<?xml version="1.0" encoding="UTF-8"?><svg id="Layer_2" xmlns="http://www.w3.org/2000/svg" width="728.2099609" height="1103.8848267" viewBox="0 0 728.2099609 1103.8848267"><defs><style>.cls-1{fill:#7920ba;}.cls-2{fill:#eeeacf;}.cls-3{fill:#dc1a35;}.cls-4{fill:#fc59fc;}.cls-5{fill:#f7dd43;}</style></defs><g id="Graphic"><path class="cls-1" d="M728.2099609,30.1183167v1043.6481018c0,16.6339111-13.9384766,30.1184082-31.1323242,30.1184082H31.1323242c-17.1940918,0-31.1323242-13.4844971-31.1323242-30.1184082V30.1183167C0,13.484436,13.9382324,0,31.1323242,0h665.9453125c17.1938477,0,31.1323242,13.484436,31.1323242,30.1183167Z"/><path class="cls-5" d="M697.6206382,77.8058618v865.2099609c0,20.5-16.6201172,37.1199951-37.1201172,37.1199951H71.5805991c-20.5,0-37.1196289-16.6199951-37.1196289-37.1199951V77.8058618c0-20.5100098,16.6196289-37.1300049,37.1196289-37.1300049h588.9199219c20.5,0,37.1201172,16.6199951,37.1201172,37.1300049Z"/><path class="cls-1" d="M707.191937,488.8808594v466.5232331c0,21.0594431-17.0996503,38.1328709-38.1911281,38.1328709H63.0890314c-21.0914778,0-38.1910025-17.0734278-38.1910025-38.1328709v-466.5232331h682.2939082Z"/><path d="M697.6206382,324.8158105v227.4400024H34.4609702v-230.0299683c28.6000977-21.0300293,57.1899414-42.0599976,85.7895508-63.0900269,22.590332,51.1900024,45.1801758,102.3699951,67.7705078,153.5599976,30.6298828-38.2699585,61.25-76.5499878,91.8798828-114.8200073,34.0400391,40.3100586,68.0898438,80.6100464,102.1298828,120.9100342,48.9101562-39.1300049,97.8300781-78.2600098,146.7402344-117.3900146,21.0996094,25.3400269,42.199707,50.6799927,63.2998047,76.0200195,35.1796875-17.5400391,70.3701172-35.0700073,105.5498047-52.6000366Z"/><path class="cls-5" d="M591.9707358,964.4757837c.340332,6.9400635-5.8198242,12.1000977-11.9897461,15.6600342H71.5805991c-20.5,0-37.1196289-16.6199951-37.1196289-37.1199951v-211.8699951c22.7700195-3.4299927,45.7099609-5.7600098,68.7099609-6.9500122,5.8500977-.3099976,11.699707-.539978,17.5498047-.6999512,20.8701172-.5700073,41.7602539-.2200317,62.6000977,1.0599976,21.9101562,1.3399658,44.4296875,3.9099731,63.6796875,14.4499512,3.4003906,1.8699951,6.9003906,4.25,8.1303711,7.9200439,1.3598633,4.0799561-.3999023,7.8099365-3.4799805,10.8699951-2.9101562,2.8900146-6.9902344,5.1899414-10.7700195,6.6400146-29.8701172,11.5-62.2602539,15.5-93.2099609,23.4499512-9.9204102,2.5400391-19.6899414,5.4899902-29.1899414,9.2200928-4.1904297,1.6398926-8.3203125,3.4399414-12.3901367,5.4199219-6.7602539,3.3000488-13.9702148,7.9899902-15.3500977,15.3900146-1.1401367,6.0799561,1.9702148,11.4599609,6.6298828,15.7999268,3.1601562,2.9400635,7.0200195,5.4001465,10.7602539,7.2700195,49.7099609,24.8701172,109.1000977,19.630127,162.1098633,36.3400879,4.2099609,1.3299561,9.1801758,3.8499756,9.1499023,8.2700195-.0400391,4.8798828-5.8295898,6.9399414-9.7197266,10.0799561-.3100586.25-.6000977.5-.8803711.7600098-6.0097656,5.6199951-4.1899414,15.9799805,1.5400391,22,.5.5299072,1.0302734,1.0198975,1.5800781,1.4699707,6.9301758,5.6500244,16.3603516,6.8599854,25.2602539,7.7299805,91.2900391,8.9100342,183.9897461,4.6500244,274.1298828,21.6700439,9.1000977,1.7199707,20.2202148,5.9199219,20.6699219,15.1699219Z"/><path class="cls-3" d="M152.5448225,908.3371565c-9.4108191.3472408-18.0545184,1.5960829-24.6314905,3.8551003-14.2413664,4.7022046-19.3542745,13.8435022-3.2617115,20.0478179,14.4060675,5.745528,38.7409154,5.8129587,56.0683782,6.0714261,18.3730791.0469373,37.0383402.5236023,55.1677757-2.6549714,19.1831174-3.8313991,32.0514908-11.1636144,23.3756529-18.0323715-7.6396746-4.6575222-15.5504438-5.4518191-27.7364123-6.8828636-25.3234402-1.6808654-54.0179779-2.8106907-78.7484196-2.4134954l-.2337729.0093577Z"/><path d="M251.6509116,757.795852c-25.2602539-10.4200439-52.6503906-15.2900391-79.9399414-17.7399902-45.8300781-4.1199951-92.3500977-1.6700439-137.25,8.3499756v-17.2600098c49.2099609-7.4199829,99.199707-9.6400146,148.8598633-6.5899658,21.9101562,1.3399658,44.4296875,3.9099731,63.6796875,14.4499512,3.4003906,1.8699951,6.9003906,4.25,8.1303711,7.9200439,1.3598633,4.0799561-.3999023,7.8099365-3.4799805,10.8699951Z"/><path d="M279.3906577,885.5959009c-.0400391,4.8798828-5.8295898,6.9399414-9.7197266,10.0799561-15.9301758-8.2301025-33.800293-13.5-51.2900391-17.7399902-24.550293-5.960083-49.4301758-10.5899658-74.4902344-13.8399658-10.0200195-1.3000488-20.1699219-2.4100342-29.7197266-5.7399902-4.3300781-1.5-8.6201172-3.5500488-11.6899414-6.960083-4.300293-4.7799072-5.4003906-11.1099854-5.1103516-17.6800537,3.1601562,2.9400635,7.0200195,5.4001465,10.7602539,7.2700195,49.7099609,24.8701172,109.1000977,19.630127,162.1098633,36.3400879,4.2099609,1.3299561,9.1801758,3.8499756,9.1499023,8.2700195Z"/><path d="M591.9707031,964.475769c.340332,6.9400635-5.8198242,12.1000977-11.9897461,15.6600342h-8.6201172c-.0703125-.1099854-.1601562-.2199707-.2402344-.3299561-4.2099609-5.5200195-10.5400391-9.0400391-17-11.5800781-13-5.1298828-27.0400391-6.8798828-40.9296875-8.5200195-70.1904297-8.25-140.6298828-14.3999023-211.2001953-18.4399414-8.1401367-.4699707-16.7099609-1.0400391-23.5498047-5.4699707-5.7001953-3.6899414-9.5302734-11.0400391-8.1103516-17.3599854.5.5299072,1.0302734,1.0198975,1.5800781,1.4699707,6.9301758,5.6500244,16.3603516,6.8599854,25.2602539,7.7299805,91.2900391,8.9100342,183.9897461,4.6500244,274.1298828,21.6700439,9.1000977,1.7199707,20.2202148,5.9199219,20.6699219,15.1699219Z"/><path d="M469.9390268,560.30377c20.0495404,15.9010365,27.9598812,42.1144961,38.587671,65.3927503,10.9718554,24.0318681,26.1468736,47.5398875,26.5410375,73.9549765.1507858,10.1049861-1.9158027,20.111487-2.4052146,30.2057406-1.0276488,21.1955291,4.8916235,42.042843,10.7546435,62.437242-3.1718729-3.3095915-6.3437461-6.619183-9.5156194-9.9287745-1.5017487,21.1085315-14.4899594,40.209906-31.3408853,53.0111422-16.8509258,12.8012362-37.2755792,20.018258-57.7883706,25.2192906-9.4534175,2.3969205-19.0755077,4.4166821-28.82618,4.6083041-20.1733966.3964512-40.3888589-7.4230023-55.044488-21.2915148-4.3818853-4.1465427-8.341486-8.9068438-10.5709871-14.5125605-5.3958395-13.5669598.4397955-29.2742005,9.585044-40.6558479,9.1452484-11.3816474,21.3220859-19.9136459,31.4070443-30.4716324,18.1304121-18.9808006,28.931019-44.010619,34.6666023-69.6247882,5.7355833-25.6141692,6.7287859-52.0234954,7.4992417-78.2606632.2480024-8.4456058.4937778-17.0107656,2.9477003-25.0958149,3.662256-12.06619,12.3631205-22.516146,23.5662415-28.3036433l9.9365189,3.3157933Z"/><path d="M389.0860298,547.8514156c-5.0590086,3.3625244-11.377437,4.1650388-17.4528107,4.3580564-16.9547967.5181032-33.9502679-3.0983885-49.4626098-9.9555054-14.6180001-6.4507444-28.2409642-16.11167-37.3535288-29.1147828-2.3363007,5.7091797-7.1309253,10.4329341-12.9622524,12.5256221-7.2127702,2.5803473-15.745972,1.0260378-21.577299-3.9314087,4.8546443-2.1607061,11.4389447-5.9916687,16.162637-12.9116573,9.0173269-13.2100193,4.4315308-27.6809465,3.6269704-42.5953864-1.6244978-30.1129189,12.1204897-62.8755053,33.4299326-81.5864338,22.0708487-19.3795147,48.5112246-20.397058,51.8926601-20.4779728,17.4230489-.4170371,30.9324222,5.0621088,38.0340818,8.5841068l-9.8233754,2.0621822c-16.0406137,3.2305185-27.7538629,18.5295055-30.4760748,34.6615128-2.7122913,16.1218386,2.143345,32.7008307,9.600162,47.2581911,7.4459043,14.567591,17.4319775,27.6621594,25.9552586,41.6201917,4.7747835,7.8120363,9.1730803,16.1726197,10.1586916,25.2748296.9851153,9.102148-2.1334244,19.1491088-9.7524431,24.2284546Z"/><path class="cls-4" d="M429.0605804,455.2448103c-1.4247845,8.3564975-2.8498922,16.7129949-4.2748014,25.0694924-.6501301,3.8127416-3.4368307,6.9296053-7.1725303,7.931711-7.3108269,1.9611376-17.1981967,3.3997952-28.3972591,1.520739-23.2633045-3.903259-53.2651748-22.3033007-55.2815362-51.8323925-1.9280681-28.2360659,22.3709468-57.2834507,57.5796425-60.9724248l.1319439.0406124c6.0039455,1.8945861,11.5252539,4.9904324,16.3863465,8.9256854,2.5823315,2.0905179,8.0381639,6.4576888,12.4235639,13.9618146,5.8367834,9.9878093,6.4841024,19.7889874,6.4216026,24.9348012,4.7415495,8.4036759,9.1666319,14.5915245,12.4558059,18.8156528,2.2638803,2.907603,4.2747854,5.2507861,3.5773674,7.4202347-1.296126,4.0332808-10.9012483,4.1961026-13.8501458,4.1840739Z"/><path class="cls-4" d="M643.8165868,515.0258325c-1.7998047,4.4500122-8.5698242,4.9899902-18.8999023,6.7999878-3.8300781.6799927-8.6699219,1.6900024-14.3100586,3.3200073-2.7797852.7900391-5.7597656,1.7399902-8.8999023,2.8599854-1.3701172,5.8699951-3.6699219,15.4000244-6.9199219,26.7900391-6.6201172,23.289978-17.1401367,54.3699951-31.5,78-6.8798828,11.3200073-14.9501953,21.4400024-27.3100586,24.1900024-1.75.3899536-10.1298828,2.0899658-23.0498047-3.1799927-29.0400391-11.8400269-42.8798828-43.3500366-47.0302734-53.8800049-31.699707-14.6100464-83.4799805-31.7000122-141.449707-19.0800171-7.4204102,1.6099854-14.4702148,3.6099854-21.1401367,5.8900146-8.4799805,13.7399902-20.5097656,31.6099854-36.6499023,51.2399902-24.9301758,30.3099976-33.0800781,32.789978-38.4902344,31.9199829-16.5200195-2.6499634-24.7700195-21.0100098-30.1801758-36.8499756-10.2695312-30.0400391-20.5297852-60.0900269-30.7998047-90.1400146-1.3500977-3.9500122-2.75-8-5.4501953-11.1900024-6.2294922-7.3499756-17.0795898-7.9500122-26.6098633-9.3499756-7.0200195-1.0300293-15.3999023-3.6199951-19.6298828-9.7700195-5.2602539-7.6500244,4.4799805-13.0700073,1.7299805-21.8300171,2.9399414-.8200073,6.0600586-.9299927,9.0498047-.3200073.0800781-2.1099854.1704102-4.2099609.2602539-6.3200073,15.5297852,3.5400391,31.0698242,7.0900269,46.6000977,10.6300049,4.1201172.9400024,8.3896484,1.9500122,11.75,4.5200195,4.1396484,3.1799927,6.2797852,8.25,8.25,13.0800171,12.0996094,29.7000122,24.199707,59.4099731,36.2998047,89.1099854,16.2602539-29.1099854,30.9799805-53.210022,42.7299805-71.6799927,10.3500977-16.2800293,16.3999023-25.0700073,27.800293-30.289978,21.9296875-10.0300293,46.6098633.9400024,56.5297852,6.0499878,1.1899414-9.9000244,2.3798828-19.7999878,3.5698242-29.710022,15.3603516,1.2600098,30.7202148,2.5200195,46.0703125,3.7800293-.2602539,7.5499878-.5302734,15.1099854-.7900391,22.6599731,49.0400391-8.4199829,69.1396484,4.2999878,78.0297852,13.8599854,5.050293,5.4299927,7.050293,10.4500122,13.7802734,24.7800293,11.0200195,23.4799805,21.4296875,43.6300049,30.2900391,60,22.7700195-44.6300049,29.9599609-67.7800293,33.4199219-80.1300049,2.1699219-7.7600098,4.5097656-16.2299805,10.9697266-21.0100098.0703125-.0599976.1499023-.1099854.2299805-.1699829,3.2304688-2.3200073,6.4902344-3.4700317,9.2402344-4.1099854,1.3300781-.3099976,2.5400391-.5,3.5698242-.6500244,8.6499023-1.2700195,17.3300781-2.2299805,25.2299805-2.960022,9.1503906-.8399658,17.2602539-1.3599854,23.090332-1.6799927,2.1298828-.8599854,4.5698242-.1499634,5.8500977,1.6699829,1.199707,1.6800537,1.1796875,4-.0703125,5.7200317.2202148.1900024.6201172.5599976,1.0400391,1.1099854.4301758.5700073.8701172,1.3400269,1.1201172,2.3099976.4599609,1.75.0898438,3.2000122-.1000977,3.7800293.449707.2600098,1.0297852.6599731,1.5698242,1.2799683,2.3500977,2.6400146,2.050293,6.8900146,1.2099609,8.9500122Z"/><path class="cls-4" d="M617.0469699,901.2113712c-1.2901737,16.8532346-5.1398614,18.2653076-6.0847983,18.5192749-3.0476075.8025763-6.5828123-2.4786612-8.8481807-5.0793458-.7822391,3.68761-3.2207219,6.7047116-6.3799361,7.5885129-4.5609946,1.2698364-10.33131-1.9707266-12.0073949-8.0761102-6.4305311,5.4957629-12.8407251,6.5828123-15.1770257,4.2462636-1.777771-1.7981083-.9652741-5.3942008-.7212274-6.4304071-96.8632235,8.2488526-166.2573053,4.6221303-208.8627983.3962039-20.1244276-1.9910639-47.6139065-5.4450438-59.0320179-24.7567264-9.8645459-16.6907848-3.3625864-37.3433602,4.7033552-58.2600715,2.6006846-6.7453861,5.3635709-13.521278,7.7916371-20.2056525,2.0828294-5.7498542,4.1145677-11.9466312,5.9935288-18.6310057,9.9151409-35.1796159,15.797063-83.5451317,5.0183341-147.8395305-6.095215-2.1942501-17.9195748-7.4970574-22.2370187-18.7630736-2.7326285-7.1212527-1.3308481-13.6634526-.548609-17.4120123,3.2708209-15.7662472,6.6537446-35.230335,10.6562095-60.4746588,59.7433248,7.6291873,119.4866495,15.2583126,179.2398949,22.8874999-.7212274,16.5282111-3.8397672,35.3827402-12.0684066,54.7553725-.0406744.1117307-.0813489.2132928-.1319439.3250856-4.1954206,9.8132688-8.1472905,16.1218386-11.2762469,22.1154294-2.5803473,4.9574465-4.5917484,9.7016001-5.6988871,16.0406137-2.2450312,12.8710449-.5386884,31.0754029,15.7355553,55.3039195,1.6254899,3.3015748,4.3888722,9.5491329,5.8516643,17.6354737,1.2088248,6.6640992,1.5337243,14.5776976-.4166651,23.1008548-5.4553364,23.8830938-26.4736098,42.8087412-53.5766815,48.5077523-2.6820335,10.5243896-5.3536503,21.0487792-8.0356838,31.5732928,51.0375046,7.9744241,102.7853241,11.4183594,154.4324494,10.2702983,12.1393388-.2641359,25.6204384-.3250236,34.6308209,7.8222669,10.33131,9.3359021,8.4320116,26.859645,7.0500724,44.8404796Z"/><path class="cls-4" d="M436.0164072,780.7373742c-26.6060498,4.3231483-57.8633716,7.5937212-92.8781196,7.8790623-32.4205118.2642599-61.5994685-2.0834494-86.7769523-5.4903065l-.0679561,114.2268729c-.0084325,14.7313429-11.7841815,26.7497744-26.5118041,27.0682256-22.7603303.4921856-52.4005947.6254937-66.5806004-1.4889576-3.8774654-.5781228-10.513849-1.5012344-12.7420151-6.1645351-1.6334263-3.4188858-.7827351-8.5996697,2.0347145-10.6197513,2.5044548-1.7957521,6.2231907-.8508152,6.2470001-1.195556.0252975-.3701623-4.3571263-.0698162-7.9032438-2.7795033-.7177552-.548237-2.6056449-2.0316143-3.3660586-4.5913764-1.0198374-3.4340147.3730145-7.5167125,3.3660586-9.8516491,3.7475056-2.9236,8.2410401-1.7327563,8.7455025-1.5900237-4.1547461-.0966018-7.4627693-1.9227358-8.4141546-4.6377552-.7519813-2.1465692.1919636-4.1747113.3779748-4.5752554,1.9191395-4.1373851,8.3164367-6.1729676,15.9974591-5.4960109-3.040167.4937977-5.9915447-.5628699-7.5639594-2.7816115-1.777771-2.508671-1.0510873-5.4565765-.8611078-6.2277789.8715245-3.5364449,3.6919503-5.5174642,5.0351991-6.3602189,8.9592914-5.6208864,20.9428768-.399428,23.3580462.7059745-.8159691-41.2949821,2.5099111-82.6706931,9.9116687-123.3051494.9017823-4.9524862,1.8923539-9.9744165,4.218734-14.4383752,6.1830122-11.8609421,19.9741305-15.2943368,25.6695454-16.9333434,20.7097428-5.9599848,95.857771-5.6432077,196.4759406,2.3007105,4.0758774,25.4487501,8.1522508,50.8975002,12.2281282,76.3463123Z"/><path class="cls-5" d="M655.7667821,472.6858667c-1.6098633,5.7599487-5.6601562,17.1199951-15.75,26.0199585-1.1298828,1.0100098-2.3500977,1.9800415-3.6401367,2.9100342-7.6000977,5.4499512-16.6401367,8.4599609-25.8696289,9.2199707-9.0102539.75-18.2099609-.6499634-26.4404297-4.0100098-4.4199219-1.789978-8.5498047-4.1499634-12.2299805-7.0499878-1.6298828-1.2700195-3.1699219-2.6500244-4.6098633-4.1400146-8.2797852-8.5799561-12.1499023-18.6499634-14.0097656-25.0299683,7.2797852.1499634,14.5698242.289978,21.8496094.4400024,11.4301758.2299805,22.8603516.4699707,34.2802734.7000122,15.4799805.3099976,30.9501953.6299438,46.4199219.9400024Z"/><path class="cls-2" d="M91.1176633,477.093699c3.0794094,5.8929398,8.8512901,15.0061742,18.656447,21.7823994,20.0584822,13.8622743,51.5460327,10.9521675,68.9708994-7.7381916,10.7299628-11.5091213,12.8315264-25.53519,13.3275332-32.173946l-100.9548796,18.1297382Z"/><path d="M401.1088016,358.367512c4.4622846,2.5880978,9.4077024,6.6320433,9.7583955,6.9202366,9.0282395,7.4172585,17.7171946,16.2179444,21.0257138,27.5296574,3.3080232,11.311713-.581347,25.5334472-11.1750568,30.3565316,4.0158578-10.6500712,1.228666-23.602961-6.7951131-31.5747809.2192452,9.0928474-5.5714074,18.0283914-13.8764354,21.411067-7.1740799,2.9221739-15.3263307,1.8579419-22.8044769,3.8402632-7.1021556,1.8824333-13.7132416,7.0230388-15.7479561,14.1923444-1.6830293,5.930285-.0099206,12.524382,3.5729031,17.506754,3.5833197,4.982434,8.8923274,8.4747322,14.5416115,10.7342722-2.0277701.5442068-5.1587106,1.1317541-8.9786365.8534814-3.870521-.281993-6.9171364-1.3413888-8.8526443-2.185879,6.1799203,5.9096002,8.9750467,14.353034,12.8519628,21.672066,4.7642,8.9940901,7.1767656,18.9242515,6.2701584,29.1282043-1.0811511,12.1684657-6.7317568,23.8630415-15.5365417,32.3315858-9.2102819,8.8585563-22.5044399,14.1666426-34.989751,11.4426143-7.941639-1.7326969-15.7920467-7.8593954-15.9753634-15.9857871,3.763073,3.7625579,10.1343131,4.0312811,14.8175872,1.5045233s7.7989898-7.3321853,9.4243444-12.3993136c2.9399116-9.1653231.8787995-20.444116-6.8799649-26.1404127-5.3823776-3.9516137-12.2200677-4.5755636-18.1763021-7.2712731-6.0856882-2.7542985-10.007562-7.9991986-13.5583761-13.4999828-13.0098712-20.1546234-17.3297953-48.2570092-8.0788384-73.1916864,6.9855886-18.8278675,19.3208592-30.0988441,24.2241144-34.1828439,26.2637892-21.875475,64.2973749-24.9640049,84.9386656-12.9916421Z"/><path class="cls-3" d="M392.068745,430.3147878c-2.6283696-.0104391-5.2738454,1.5144214-6.3397853,3.9169633s-.3034813,5.5542941,1.8912627,7.000508c1.2058257.7945725,2.6869154,1.047512,4.1279606,1.1410573,2.0537807.133321,4.1608926-.0285793,6.0706637-.7957584s3.6099275-2.190569,4.4194703-4.0827713c.8095428-1.8922024.6059166-4.2569303-.7481063-5.8069017l-9.4214657-1.3730971Z"/><path d="M390.6182256,425.5136944c-2.1699219-.8227539-3.7158203-3.0844727-3.7587891-5.5l3-.0537109c.0205078,1.1806641.8046875,2.3623047,1.8232422,2.7485352l-1.0644531,2.8051758Z"/><path d="M394.6338506,423.346214c-2.1708984-.8232422-3.7167969-3.0854492-3.7587891-5.5009766l3-.0517578c.0205078,1.1796875.8037109,2.3608398,1.8232422,2.7475586l-1.0644531,2.8051758Z"/><path d="M387.1943974,427.8384015c-2.171875-.8227539-3.7177734-3.0844727-3.7597656-5.5004883l3-.0517578c.0205078,1.1801758.8037109,2.3608398,1.8222656,2.746582l-1.0625,2.8056641Z"/><path class="cls-2" d="M419.8084598,427.2560799c-1.1752923,1.1335328-8.8571042,8.2749821-19.8135278,7.0391406-7.0976609-.8008069-11.8239592-4.7064062-13.5890194-6.3348555,1.7003288-1.8816689,4.1871485-4.214235,7.546538-6.1714947,1.1801455-.6856799,2.4634216-1.3271343,3.8638339-1.8768756,3.8488112-1.5236243,8.2943343-3.2870104,13.229122-1.4466836,1.9226945.7159303,3.484995,1.8180237,4.7416299,3.0208434,2.3067463,2.2054592,3.5453959,4.7311098,4.0214234,5.7699253Z"/><path d="M401.6769097,414.6522917c-9.1697542,6.8922727.5241594,20.609148,9.7768623,13.086549,7.9240511-6.7205916-.5026169-19.2848373-9.6094844-13.2049338l-.1673779.1183848Z"/><path class="cls-3" d="M425.2461553,464.0371319c-8.1748047,0-16.3173828-4.6474609-20.3183594-11.7919922l2.6171875-1.4658203c3.7705078,6.730957,11.7636719,10.918457,19.4462891,10.1743164l.2890625,2.9863281c-.6767578.0649414-1.3564453.097168-2.0341797.097168Z"/><path class="cls-3" d="M399.8467412,459.7480694l-1.4726562-2.6142578c1.6474609-.9272461,3.1435547-2.4140625,4.4482422-4.4179688,1.1943359-1.8369141,2.0771484-3.8339844,3.0273438-6.065918l2.7597656,1.1738281c-.9677734,2.2773438-1.9472656,4.4902344-3.2724609,6.5283203-1.5712891,2.4135742-3.4179688,4.2285156-5.4902344,5.3959961Z"/><path class="cls-3" d="M398.5215459,492.0263898c-4.9326172,0-9.8476562-.5629883-14.6826172-1.6850586l.6777344-2.921875c6.8085938,1.5795898,13.78125,1.9985352,20.7265625,1.2416992l.3242188,2.9824219c-2.3476562.2553711-4.6992188.3828125-7.0458984.3828125Z"/><path class="cls-3" d="M617.992249,514.3418194l-1.9042969-2.3173828c7.1210938-5.8520508,16.1181641-9.175293,25.3339844-9.3579102l.0585938,2.9990234c-8.5439453.1699219-16.8857422,3.2509766-23.4882812,8.6762695Z"/><path class="cls-3" d="M394.1152959,644.7246319c-13.6347656,0-26.7919922-8.4091797-32.3925781-20.8881836-3.4023438-7.5791016-4.3369141-16.9223633-2.7783203-27.7700195.8574219-5.9692383,2.3447266-11.8803711,3.7841797-17.597168.7646484-3.0380859,1.5546875-6.1796875,2.2373047-9.277832l2.9296875.6450195c-.6914062,3.1416016-1.4882812,6.3056641-2.2578125,9.3652344-1.4199219,5.6420898-2.8886719,11.4765625-3.7246094,17.2915039-1.4755859,10.2763672-.6191406,19.0625,2.5458984,26.1147461,5.328125,11.8696289,18.1416016,19.7114258,31.1181641,19.0810547l.1464844,2.9960938c-.5361328.0263672-1.0722656.0395508-1.6083984.0395508Z"/><path class="cls-3" d="M330.867249,643.4585187c-.6640625,0-1.328125-.0161133-1.9931641-.0493164-6.4296875-.3173828-12.1201172-1.9731445-17.3964844-5.0610352-5.7578125-3.3691406-9.9150391-8.3344727-11.7050781-13.9799805-1.6064453-5.0678711-1.5712891-9.1635742-.921875-15.4038086.9824219-9.4433594,2.5664062-19.1181641,4.7089844-28.7558594l2.9277344.6513672c-2.1171875,9.5253906-3.6826172,19.0854492-4.6523438,28.4150391-.6923828,6.6523438-.4990234,10.0991211.796875,14.1865234,1.5429688,4.8647461,5.3193359,9.347168,10.3613281,12.2978516,4.8496094,2.8378906,10.0927734,4.3603516,16.0292969,4.6538086,5.0517578.2456055,10.0361328-.5258789,14.8310547-2.3032227l1.0429688,2.8125c-4.546875,1.6855469-9.2568359,2.5361328-14.0292969,2.5361328Z"/><ellipse class="cls-3" cx="377.6783736" cy="616.3106347" rx="5.6374534" ry="8.2152897"/><ellipse class="cls-3" cx="313.7683594" cy="617.9006908" rx="5.6373794" ry="8.2153086"/><path class="cls-3" d="M357.3037724,686.0063702l-2.8632812-.8955078c.9199219-2.9394531.0996094-6.4013672-2.0419922-8.6142578l2.15625-2.0859375c2.9277344,3.0258789,4.0068359,7.5776367,2.7490234,11.5957031Z"/><path class="cls-3" d="M350.2588506,700.8193585c-7.4648438,0-14.9443359-.2861328-22.4365234-.8603516l.2285156-2.9912109c35.5097656,2.7211914,70.8007812-1.0839844,104.9072266-11.3076172l.8613281,2.8740234c-27.2636719,8.1723633-55.2832031,12.2851562-83.5605469,12.2851562Z"/><path class="cls-3" d="M422.7014776,797.5011994c-12.8308045,5.8412477-25.9354174,11.1035045-39.232986,15.7663092-25.4071456,8.8888551-52.02262,15.6342412-78.8315459,16.0914568,2.6006846-6.7453861,5.3635709-13.521278,7.7916371-20.2056525,2.0828294-5.7498542,4.1145677-11.9466312,5.9935288-18.6310057,34.5395514,4.7643668,69.414419,7.1009155,104.279366,6.9788922Z"/><path class="cls-3" d="M478.4825158,623.6759045c-.0406744.1117307-.0813489.2132928-.1319439.3250856-4.1954206,9.8132688-8.1472905,16.1218386-11.2762469,22.1154294-.8328341-1.1072627-1.5337243-2.3263181-2.1636823-3.5656487-5.8918427-11.5403208-6.4915428-25.0107557-6.2172383-37.9630875.2132928-10.2805909.9042624-20.6119629,3.2713169-30.6080807,3.9414533,17.0360836,9.4776426,33.7065313,16.5177944,49.6963019Z"/><path class="cls-3" d="M168.1670537,872.2934796l-.9355469-2.8505859c5.0898438-1.671875,10.5751953-2.0996094,15.8623047-1.2333984l-.484375,2.9609375c-4.8173828-.7885742-9.8085938-.3994141-14.4423828,1.1230469Z"/><path class="cls-3" d="M159.2754521,887.2563702l-.9355469-2.8505859c5.0908203-1.671875,10.5761719-2.0991211,15.8632812-1.2333984l-.484375,2.9609375c-4.8125-.7890625-9.8066406-.4003906-14.4433594,1.1230469Z"/><path class="cls-3" d="M159.2080693,906.377464l-.9355469-2.8496094c5.0898438-1.6733398,10.5751953-2.0981445,15.8623047-1.234375l-.484375,2.9609375c-4.8134766-.7875977-9.8066406-.3994141-14.4423828,1.1230469Z"/><path class="cls-3" d="M227.5059209,882.311546c-2.0048828,0-4.0126953-.6386719-5.6171875-1.8447266l1.8027344-2.3984375c1.5693359,1.1791992,3.7099609,1.5571289,5.5888672.984375,1.8779297-.5732422,3.4433594-2.081543,4.0869141-3.9365234l2.8339844.9824219c-.9511719,2.7441406-3.2675781,4.9755859-6.0458984,5.8232422-.8574219.2617188-1.7529297.3896484-2.6494141.3896484Z"/><path class="cls-3" d="M254.5371709,784.7085187c-5.3046875-4.9785156-8.6347656-11.9956055-9.1357422-19.2519531l2.9921875-.2070312c.4501953,6.5097656,3.4375,12.8051758,8.1962891,17.2714844l-2.0527344,2.1875Z"/><path class="cls-3" d="M602.3027959,915.8051984c-1.5810547-1.5849609-2.5097656-3.9335938-2.6162109-6.6142578-.0898438-2.253418.3642578-4.3964844.8027344-6.4692383l2.9355469.6220703c-.4013672,1.8920898-.8154297,3.8486328-.7402344,5.7280273.0761719,1.9262695.6943359,3.5649414,1.7412109,4.6142578l-2.1230469,2.1191406Z"/><path class="cls-3" d="M582.8858037,915.6660382c-1.5800781-1.5830078-2.5087891-3.9316406-2.6162109-6.6132812-.0888672-2.2504883.3642578-4.3950195.8027344-6.4692383l2.9355469.6201172c-.4003906,1.8945312-.8144531,3.8535156-.7402344,5.7299805.0771484,1.9262695.6953125,3.5649414,1.7412109,4.6132812l-2.1230469,2.1191406Z"/><path class="cls-3" d="M567.1846318,912.8838116c-1.5810547-1.5839844-2.5097656-3.9331055-2.6171875-6.6137695-.0888672-2.25.3642578-4.3945312.8027344-6.46875l2.9355469.6201172c-.4003906,1.8945312-.8144531,3.8535156-.7402344,5.7294922.0771484,1.9257812.6953125,3.5644531,1.7421875,4.6137695l-2.1230469,2.1191406Z"/><path class="cls-3" d="M231.523499,612.2363507l-2.9902344-.2392578c.3720703-4.6499023.1523438-9.3413086-.6523438-13.9428711l2.9550781-.5166016c.8486328,4.8510742,1.0791016,9.7963867.6875,14.6987305Z"/><path class="cls-3" d="M124.7998662,508.8291241c-2.0263672-2.6621094-5.3632812-4.3574219-8.7070312-4.4233398l.0585938-2.9990234c4.3027344.0844727,8.4287109,2.1801758,11.0351562,5.605957l-2.3867188,1.8164062Z"/><path class="cls-2" d="M658.9707358,765.1059106c-.8100586.869873-1.4199219,2.2399902-.7099609,3.1899414.3198242.4299316.8500977.6599121,1.3500977.8599854,12.1796875,4.7600098,25.2001953,3.2600098,38.0097656,3.5599365v58.7299805c-6.6396484.6101074-13.2900391,1.1501465-19.949707,1.6401367-21.8300781,1.6098633-43.7001953,2.5999756-65.590332,2.9899902-13.5297852.2399902-27.0996094.2399902-40.5800781-.9599609-6.7695312-.6101074-13.5898438-1.5400391-19.9296875-4-.9301758-.3601074-1.8901367-.7700195-2.5400391-1.5300293-1.2802734-1.4699707-.9902344-3.8400879.1601562-5.4100342,1.1499023-1.5699463,2.949707-2.5200195,4.7197266-3.3299561,25.3203125-11.5,55.3603516-4.4799805,82.1000977-12.1101074,3.0898438-.8898926,6.2001953-2,8.6801758-4.0499268,7.5297852-6.210083,2.5200195-13.1500244-5.1601562-15.2600098-15.5302734-4.25-32.2001953-1.5799561-48.25-1.9100342-3.5-.0700684-22.0097656-.3200684-21.4902344-4.8100586.4501953-3.9299316,10.0400391-4.6398926,12.2900391-7.7799072,1.3203125-1.8499756,1.2700195-4.3199463,1.1699219-6.5899658-4.159668-92.7900391-5.4296875-204.4000244-3.8095703-297.2600708h19.1699219s5.3598633,276.8800049,5.3598633,276.9000244c.0400391,1.7299805,16.4301758,2.539978,18.1699219,2.5700073,6.4501953.1199951,12.6098633-.7399902,18.9902344-1.5700073,18.5-2.4100342,37.949707-6.2000122,56.4897461-2.7299805v9.9899292c-1.5800781.4799805-3.0898438.8000488-4.0800781.9899902-7.699707,1.4899902-15.409668,2.9699707-23.199707,3.880127-4.0800781.4799805-8.5800781.9899902-11.3701172,4Z"/><path class="cls-1" d="M175.5397949,764.0369263c-.5671387,2.1868896-2.9904785,3.3721924-5.2827148,4.3044434-5.1201172,2.0821533-14.7912598,5.0183105-30.097168,4.4334717-.1789551,3.8110352,4.9309082,5.3609619,7.0310059,8.5510254,5.3701172,17.7661133-23.590332,16.4736328-34.6494141,15.3798828-25.934082-2.4302979-55.1623535,1.2585449-80.9365234-2.3999023v-26.1601562c29.0579834.4277344,64.237793-.6160889,65.5100098-8.5697021.0668945-.418335.0412598-.8636475-.0930176-1.3381348-5.9858398-4.7481689-15.4260254-.2150879-22.3508301-2.822998-4.9230957-.9974365-3.0986328-6.2253418.8103027-7.9488525,8.4343262-4.8526611,18.5803223-3.4707642,27.6992188-4.4701538.1496582-14.9115601-.1186523-259.8641357-.0095215-271.9214478,1.0212402-2.6339722,3.3601074-4.5114746,6.0805664-4.8540649,3.1450195-.3960571,6.2824707,1.324585,7.7487793,4.2954712.7519531,51.1865234,1.5029297,102.9070435,2.25,154.0401001.4799805,37.3864746,1.1906738,74.791748,1.6403809,112.1599121-.130127,4.039978-.4602051,6.460022,4.2097168,8.0599976,7.840332,2.6862793,26.7338867-.2485962,39.0339355,5.7988281,6.2807617,3.0880127,12.4951172,9.2596436,11.4052734,13.4622803Z"/><rect class="cls-2" x="101.1397099" y="468.6977765" width="3" height="255.5234375"/><rect class="cls-2" x="117.8349077" y="468.4274637" width="3.0002295" height="256.0625981" transform="translate(-7.2839388 1.5036872) rotate(-.7005689)"/><path d="M115.6367803,800.3525616l-1.2460938-2.7285156c13.1318359-6,27.0830078-9.6870117,41.4658203-10.9584961l.2636719,2.9882812c-14.0410156,1.2412109-27.6621094,4.8408203-40.4833984,10.6987305Z"/><path class="cls-3" d="M161.9580693,960.858421c-5.046875-.0253906-10.15625-.1132812-15.1865234-.2617188-4.6972656-.1391602-9.5664062-.5517578-12.9521484-3.8647461-.8388672-.8208008-1.4912109-1.7397461-2.1210938-2.6289062-.5048828-.7119141-.9814453-1.3842773-1.5244141-1.9663086-3.5205078-3.7763672-9.5146484-3.7792969-15.2705078-3.7719727l-.9228516-.0004883c-10.9960938-.0185547-21.8378906-1.8632812-32.2226562-5.4833984-2.7539062-.9604492-5.875-2.1972656-8.0585938-4.7304688-3.7246094-4.3227539-3.1376953-10.5297852-.9033203-14.7636719,2.4589844-4.6601562,6.8398438-7.8779297,10.3818359-10.1601562,10.9121094-7.0336914,23.5068359-11.4609375,36.4199219-12.8027344l.3105469,2.984375c-12.4472656,1.2929688-24.5869141,5.5600586-35.1054688,12.3398438-3.234375,2.0844727-7.2197266,4.9951172-9.3544922,9.0390625-1.7011719,3.2255859-2.2636719,8.1704102.5234375,11.4047852,1.6992188,1.9711914,4.3876953,3.0239258,6.7744141,3.855957,10.0673828,3.5097656,20.578125,5.2983398,31.2402344,5.3164062l.9160156.0004883c6.1503906-.0019531,13.0556641-.0048828,17.4658203,4.7265625.6796875.7290039,1.2373047,1.515625,1.7773438,2.2763672.5791016.8168945,1.1259766,1.5878906,1.7714844,2.2197266,2.6132812,2.5566406,6.8388672,2.8891602,10.9423828,3.0102539,5.0068359.1479492,10.0917969.2353516,15.1142578.2607422l-.015625,3Z"/><path class="cls-3" d="M76.4043584,893.5600812c-.4003906-2.8500977,2.2177734-4.7548828,4.8017578-5.5869141,4.7265625-1.5229492,9.7255859-1.7700195,14.5605469-2.0087891,5.6298828-.2783203,10.9482422-.5415039,15.8017578-2.6572266,1.7167969-.7480469,3.4404297-2.1689453,3.1689453-3.5224609-.2607422-1.2998047-2.2441406-2.0380859-3.4042969-2.362793-2.7050781-.7568359-5.6064453-1.1811523-8.4130859-1.5908203-4.6396484-.6782227-9.4375-1.3793945-13.7695312-3.5952148-3.2226562-1.6484375-5.0205078-3.9628906-5.0644531-6.5166016-.046875-2.7949219,2.0751953-4.965332,3.3427734-6.2617188l2.1445312,2.0966797c-1.2714844,1.3012695-2.5117188,2.690918-2.4873047,4.1147461.0332031,1.9492188,2.4101562,3.3740234,3.4306641,3.8959961,3.890625,1.9897461,8.2363281,2.625,12.8378906,3.2973633,2.8984375.4238281,5.8964844.8618164,8.7871094,1.6708984,3.2353516.9052734,5.0986328,2.4736328,5.5371094,4.6621094.6425781,3.2016602-2.1162109,5.644043-4.9111328,6.8618164-5.3564453,2.3354492-11.2011719,2.6240234-16.8535156,2.9033203-4.6396484.2294922-9.4384766.4663086-13.7880859,1.8681641-1.4628906.4711914-2.8769531,1.4169922-2.7509766,2.3144531l-2.9707031.4169922Z"/><path class="cls-3" d="M225.9639287,962.4526593c-1.4599609,0-2.9384766-.2329102-4.4384766-.769043l1.0097656-2.8251953c5.2578125,1.8803711,10.5361328-1.0800781,16.1240234-4.2138672,2.3369141-1.3105469,4.7539062-2.6655273,7.1972656-3.6601562,10.0712891-4.097168,21.0371094-1.9604492,31.6416016.1069336,1.0976562.2138672,2.1904297.4267578,3.2773438.6313477,18.2177734,3.434082,36.8203125,4.3725586,55.2890625,2.7871094l.2558594,2.9892578c-18.7363281,1.605957-37.6142578.65625-56.1005859-2.828125-1.0927734-.2060547-2.1914062-.4199219-3.2949219-.6352539-10.171875-1.9824219-20.6914062-4.0327148-29.9375-.2719727-2.2705078.9233398-4.6044922,2.2319336-6.8603516,3.4975586-4.5693359,2.5620117-9.2578125,5.1914062-14.1630859,5.1914062Z"/><path d="M643.5908818,909.3242413c-1.7490234-5.9765625-4.0849609-11.8120117-6.9433594-17.34375l2.6660156-1.3769531c2.9462891,5.7021484,5.3535156,11.7172852,7.15625,17.8779297l-2.8789062.8427734Z"/><path d="M652.5508428,908.9546124c-.3496094-11.6733398,2.9902344-23.4770508,9.4033203-33.2373047l2.5078125,1.6474609c-6.0791016,9.25-9.2441406,20.4370117-8.9130859,31.5l-2.9980469.0898438Z"/><path d="M647.6084599,668.3994366c-1.75-5.9775391-4.0859375-11.8129883-6.9433594-17.3432617l2.6660156-1.3769531c2.9443359,5.7006836,5.3525391,11.7158203,7.15625,17.8774414l-2.8789062.8427734Z"/><path d="M656.5684209,668.0298077c-.3496094-11.6733398,2.9902344-23.4770508,9.4033203-33.2368164l2.5078125,1.6474609c-6.0791016,9.2495117-9.2441406,20.4365234-8.9130859,31.4995117l-2.9980469.0898438Z"/><path d="M62.0332646,640.2041241c-1.75-5.9765625-4.0859375-11.8115234-6.9433594-17.3432617l2.6660156-1.3769531c2.9453125,5.7021484,5.3525391,11.7167969,7.15625,17.8774414l-2.8789062.8427734Z"/><path d="M70.9932256,639.8349835c-.3496094-11.6733398,2.9902344-23.4770508,9.4033203-33.2373047l2.5078125,1.6474609c-6.0791016,9.25-9.2441406,20.4370117-8.9130859,31.5l-2.9980469.0898438Z"/><path d="M161.4248662,692.8384015c-1.75-5.9780273-4.0869141-11.8129883-6.9443359-17.3432617l2.6660156-1.3769531c2.9453125,5.7006836,5.3535156,11.715332,7.1572266,17.8774414l-2.8789062.8427734Z"/><path d="M170.3838506,692.4692609c-.3496094-11.6733398,2.9902344-23.4770508,9.4033203-33.2373047l2.5078125,1.6474609c-6.0791016,9.25-9.2441406,20.4370117-8.9130859,31.5l-2.9980469.0898438Z"/><path class="cls-2" d="M270.2129521,531.0298077l-2.8212891-9.402832-26.6464844,7.2104492,4.4707031-4.1401367c18.0996094-16.7583008,28.7431641-34.7397461,31.6347656-53.4443359,1.8339844-11.8681641.4414062-22.6801758-.9052734-33.1357422-1.9794922-15.3642578-3.8486328-29.8769531,5.7070312-44.0341797,4.1230469-6.1074219,8.3662109-9.7270508,15.3974609-15.7236328,11.5712891-9.8701172,24.8427734-17.6123047,39.4472656-23.0117188l1.0410156,2.8134766c-14.2724609,5.2768555-27.2392578,12.840332-38.5410156,22.4804688-6.8369141,5.831543-10.9638672,9.3515625-14.8583984,15.1201172-8.921875,13.21875-7.2050781,26.543457-5.2177734,41.972168,1.3730469,10.6630859,2.7939453,21.6889648.8945312,33.9770508-2.7626953,17.8706055-12.2832031,35.0415039-28.3261719,51.1113281l17.9375-4.8535156,3.6591797,12.1987305-2.8730469.8623047Z"/><polygon class="cls-4" points="523.3221461 77.2283809 552.5133906 150.8899819 625.2413351 119.4446912 593.7960444 192.1726358 667.4576455 221.3638803 593.7960444 250.5551247 625.2413351 323.2830693 552.5133906 291.8377786 523.3221461 365.4993796 494.1309016 291.8377786 421.4029571 323.2830693 452.8482478 250.5551247 379.1866467 221.3638803 452.8482478 192.1726358 421.4029571 119.4446912 494.1309016 150.8899819 523.3221461 77.2283809"/><path d="M489.5967412,224.2051007c-2.6699219-3.9355469-4.6064453-8.2705078-5.7558594-12.8837891l2.9101562-.7255859c1.0644531,4.2700195,2.8564453,8.2822266,5.328125,11.9248047l-2.4824219,1.6845703Z"/><path d="M501.2051396,218.3203351c-2.6708984-3.9360352-4.6074219-8.2709961-5.7558594-12.8842773l2.9121094-.7246094c1.0625,4.2695312,2.8544922,8.28125,5.3261719,11.9243164l-2.4824219,1.6845703Z"/><path d="M562.9746709,224.2051007l-2.4824219-1.6845703c2.4716797-3.6425781,4.2636719-7.6547852,5.328125-11.9248047l2.9101562.7255859c-1.1494141,4.6132812-3.0859375,8.9482422-5.7558594,12.8837891Z"/><path d="M551.3662724,218.3203351l-2.4824219-1.6845703c2.4716797-3.6430664,4.2636719-7.6547852,5.3261719-11.9243164l2.9121094.7246094c-1.1484375,4.6132812-3.0849609,8.9482422-5.7558594,12.8842773Z"/><path class="cls-2" d="M574.0200474,236.8540482c-2.0186747,2.151078-24.9213821,25.7431191-57.3086933,20.5040064-21.7087992-3.5117003-34.624391-17.8649955-38.2401309-22.1892027,2.4603003-3.865423,12.1768358-18.1150608,31.2448403-23.6224595,16.8787829-4.875086,30.7876328.0741342,35.20972,1.7200132,17.3241307,6.4481493,26.281589,19.1933065,29.0942639,23.5876426Z"/><circle cx="526.2456353" cy="233.7843486" r="25.4086066"/><path d="M477.3087448,198.3650501c4.4429082-3.0079813,31.0333004-20.3948072,62.6957987-11.6244388,14.3631205,3.9785299,24.2876131,11.8210929,29.7958301,17.0292162-.8379795-4.9009553-2.8492254-12.3977685-8.2570941-19.5533797-12.5910935-16.6602223-38.5337399-24.7741952-59.4613501-14.8172143-17.1438618,8.1566566-23.3673575,24.845622-24.7731846,28.9658166Z"/><path d="M526.7178349,268.6592023c-9.2822266,0-18.6513672-2.0214844-27.1103516-5.8505859l1.2363281-2.7333984c8.0732422,3.6542969,17.0166016,5.5839844,25.8730469,5.5839844.0615234,0,.1220703-.0004883.1826172-.0004883,8.7900391-.0258789,17.671875-1.956543,25.6845703-5.5834961l1.2363281,2.7333984c-8.3955078,3.7998047-17.7011719,5.8227539-26.9111328,5.8500977-.0634766,0-.1289062.0004883-.1914062.0004883Z"/><polygon class="cls-4" points="178.1818007 166.3736648 196.8014296 209.4436721 153.7316054 190.823677 136.4415663 234.4436721 119.1617812 190.823677 76.0914687 209.4436721 94.7115859 166.3736648 51.0914687 149.0836868 94.7115859 131.7936477 76.0914687 88.7237014 119.1617812 107.3537063 136.4415663 63.7237014 153.7316054 107.3537063 196.8014296 88.7237014 178.1818007 131.7936477 221.8014296 149.0836868 178.1818007 166.3736648"/><polygon class="cls-5" points="146.4963674 153.2471324 150.9799944 163.6184372 140.6087337 159.134722 136.4452734 169.6384645 132.2842822 159.134722 121.9129039 163.6184372 126.3966485 153.2471324 115.8928766 149.0836868 126.3966485 144.9202265 121.9129039 134.5489364 132.2842822 139.0350619 136.4452734 128.528909 140.6087337 139.0350619 150.9799944 134.5489364 146.4963674 144.9202265 157.0000217 149.0836868 146.4963674 153.2471324"/><polygon class="cls-4" points="277.7539509 311.6124376 294.1240945 349.4790466 256.2576465 333.108581 241.0564615 371.4587323 225.8642917 333.108581 187.9974144 349.4790466 204.3679873 311.6124376 166.0177286 296.4113063 204.3679873 281.2101213 187.9974144 243.343566 225.8642917 259.7228321 241.0564615 221.3638803 256.2576465 259.7228321 294.1240945 243.343566 277.7539509 281.2101213 316.1037803 296.4113063 277.7539509 311.6124376"/><polygon class="cls-5" points="249.8965162 300.0717553 253.8384647 309.1900761 244.7201827 305.2480501 241.0597207 314.4828085 237.4014296 305.2480501 228.2830442 309.1900761 232.225096 300.0717553 222.9903119 296.4113063 232.225096 292.7508443 228.2830442 283.6325365 237.4014296 287.5766816 241.0597207 278.3398041 244.7201827 287.5766816 253.8384647 283.6325365 249.8965162 292.7508443 259.1311971 296.4113063 249.8965162 300.0717553"/><polygon class="cls-4" points="331.4731846 164.1529541 344.9835043 195.4043592 313.732232 181.8937739 301.1866568 213.5442477 288.6485218 181.8937739 257.3968952 195.4043592 270.9075691 164.1529541 239.2570067 151.6074232 270.9075691 139.061848 257.3968952 107.8104871 288.6485218 121.3283355 301.1866568 89.6705987 313.732232 121.3283355 344.9835043 107.8104871 331.4731846 139.061848 363.1233927 151.6074232 331.4731846 164.1529541"/><polygon class="cls-5" points="308.4823756 154.6284007 311.7356753 162.1537732 304.2103348 158.9004095 301.1893466 166.5218782 298.17015 158.9004095 290.6447242 162.1537732 293.8981092 154.6284007 286.2766192 151.6074232 293.8981092 148.586435 290.6447242 141.0610731 298.17015 144.3161858 301.1893466 136.6929682 304.2103348 144.3161858 311.7356753 141.0610731 308.4823756 148.586435 316.1037803 151.6074232 308.4823756 154.6284007"/><path class="cls-2" d="M220.2002568,1063.2798077h-10.3242188v-41.4042969h-15.5576172v-10.3598633h41.4042969v10.3598633h-15.5224609v41.4042969Z"/><path class="cls-2" d="M251.5693974,1063.2798077h-10.3603516v-51.7641602h10.3603516v20.7202148h20.6835938v-20.7202148h10.3603516v51.7641602h-10.3603516v-20.684082h-20.6835938v20.684082Z"/><path class="cls-2" d="M327.6992803,1063.2798077h-35.484375v-51.7641602h35.484375v10.3598633h-25.1240234v10.3603516h17.0019531v10.3598633h-17.0019531v10.3242188h25.1240234v10.3598633Z"/><path class="cls-2" d="M352.6065068,1027.0376202c0-2.1416016.4091797-4.1513672,1.2275391-6.0283203.8183594-1.8774414,1.9316406-3.5195312,3.3388672-4.9272461,1.4082031-1.4082031,3.0507812-2.5209961,4.9277344-3.3393555,1.8769531-.8178711,3.8867188-1.2270508,6.0283203-1.2270508h23.7529297v10.3598633h-23.7529297c-.7216797,0-1.3955078.1328125-2.0214844.3969727-.6259766.2651367-1.1728516.6318359-1.6425781,1.1010742-.46875.4692383-.8359375,1.0170898-1.1005859,1.6425781-.265625.6259766-.3974609,1.2993164-.3974609,2.0214844,0,.7216797.1318359,1.4018555.3974609,2.0395508.2646484.6376953.6318359,1.190918,1.1005859,1.6601562.4697266.4697266,1.0166016.8369141,1.6425781,1.1010742.6259766.2651367,1.2998047.3974609,2.0214844.3974609h10.3603516c2.1416016,0,4.1572266.402832,6.0458984,1.2089844,1.8896484.8066406,3.5380859,1.9130859,4.9453125,3.3212891,1.4082031,1.4077148,2.5146484,3.0561523,3.3212891,4.9453125s1.2089844,3.9047852,1.2089844,6.0463867c0,2.1420898-.4023438,4.1513672-1.2089844,6.0283203s-1.9130859,3.5195312-3.3212891,4.9272461c-1.4072266,1.4077148-3.0556641,2.5209961-4.9453125,3.3388672-1.8886719.8188477-3.9042969,1.2275391-6.0458984,1.2275391h-22.9941406v-10.3598633h22.9941406c.7216797,0,1.3955078-.1323242,2.0214844-.3974609.625-.2641602,1.1728516-.6313477,1.6425781-1.1010742.46875-.4692383.8359375-1.0161133,1.1005859-1.6420898.2646484-.6254883.3974609-1.2998047.3974609-2.0214844,0-.722168-.1328125-1.3955078-.3974609-2.0214844-.2646484-.6254883-.6318359-1.1733398-1.1005859-1.6425781-.4697266-.4692383-1.0175781-.8359375-1.6425781-1.1010742-.6259766-.2646484-1.2998047-.3969727-2.0214844-.3969727h-10.3603516c-2.1416016,0-4.1513672-.4086914-6.0283203-1.2275391-1.8769531-.8178711-3.5195312-1.9311523-4.9277344-3.3388672-1.4072266-1.4077148-2.5205078-3.0556641-3.3388672-4.9453125-.8183594-1.8891602-1.2275391-3.9042969-1.2275391-6.0463867Z"/><path class="cls-2" d="M421.8067021,1063.2798077h-10.3242188v-41.4042969h-15.5576172v-10.3598633h41.4042969v10.3598633h-15.5224609v41.4042969Z"/><path class="cls-2" d="M482.0908818,1063.2798077h-10.3603516v-10.3598633h-20.7207031v10.3598633h-10.3232422v-31.0439453c0-2.8637695.5410156-5.5532227,1.6240234-8.0678711s2.5566406-4.7109375,4.421875-6.5878906c1.8652344-1.8774414,4.0546875-3.3574219,6.5703125-4.4404297,2.5136719-1.0825195,5.203125-1.6240234,8.0673828-1.6240234,2.8632812,0,5.5527344.5415039,8.0683594,1.6240234,2.5136719,1.0830078,4.7099609,2.5629883,6.5878906,4.4404297,1.8769531,1.8769531,3.3564453,4.0732422,4.4394531,6.5878906s1.625,5.2041016,1.625,8.0678711v31.0439453ZM471.7305303,1042.5957257v-10.3598633c0-1.4199219-.2705078-2.7617188-.8125-4.0253906-.5410156-1.2631836-1.28125-2.3642578-2.2197266-3.3027344s-2.0400391-1.6787109-3.3027344-2.2202148c-1.2636719-.5410156-2.6054688-.8120117-4.0253906-.8120117s-2.7617188.2709961-4.0244141.8120117c-1.2636719.5415039-2.3652344,1.2817383-3.3037109,2.2202148s-1.6787109,2.0395508-2.2197266,3.3027344c-.5410156,1.2636719-.8125,2.6054688-.8125,4.0253906v10.3598633h20.7207031Z"/><path class="cls-2" d="M501.4385381,1063.2798077h-10.3603516v-51.7641602h20.7207031c1.9003906,0,3.7294922.2470703,5.4873047.7397461,1.7558594.4936523,3.3984375,1.1914062,4.9267578,2.09375s2.9238281,1.9853516,4.1875,3.2490234c1.2636719,1.2631836,2.3466797,2.6655273,3.2490234,4.2050781.9023438,1.5405273,1.5996094,3.1889648,2.09375,4.9453125.4921875,1.7573242.7392578,3.5864258.7392578,5.4873047,0,1.7807617-.2226562,3.5136719-.6669922,5.1977539-.4462891,1.6850586-1.0830078,3.2851562-1.9130859,4.8012695-.8310547,1.5161133-1.8476562,2.9121094-3.0507812,4.1870117-1.203125,1.2758789-2.5507812,2.3828125-4.0429688,3.3212891l5.7392578,13.5366211h-11.0097656l-4.5117188-10.4321289-11.5878906.0722656v10.3598633ZM501.4385381,1021.8755109v20.7202148h10.3603516c1.4199219,0,2.7548828-.2705078,4.0068359-.8120117,1.2509766-.5415039,2.3466797-1.2817383,3.2851562-2.2202148s1.6787109-2.0395508,2.2197266-3.3027344c.5419922-1.2636719.8125-2.6049805.8125-4.0249023s-.2705078-2.7617188-.8125-4.0253906c-.5410156-1.2631836-1.28125-2.3642578-2.2197266-3.3027344s-2.0341797-1.6787109-3.2851562-2.2202148c-1.2519531-.5410156-2.5869141-.8120117-4.0068359-.8120117h-10.3603516Z"/><rect class="cls-2" x="298.430923" y="18.2298405" width="131.3479662" height="70.0058343" rx="22.2156315" ry="22.2156315"/><path class="cls-1" d="M349.7188115,72.7856671h-9.1699219l-7.2724609-12.199707-7.2988281,12.199707h-9.1171875l11.59375-18.8925781-11.59375-18.8925781h9.1171875l7.2988281,12.199707,7.2724609-12.199707h9.1699219l-11.59375,18.8925781,11.59375,18.8925781Z"/><path class="cls-1" d="M382.1026006,35.0005109l-12.4111328,37.7851562h-7.5625l-12.3574219-37.7851562h8.5898438l7.5361328,25.2163086,7.5625-25.2163086h8.6425781Z"/><path class="cls-1" d="M393.2744756,72.7856671h-7.5625v-37.7851562h7.5625v37.7851562Z"/><path class="cls-1" d="M407.8457646,72.7856671h-7.5625v-37.7851562h7.5625v37.7851562Z"/><circle cx="704.6649876" cy="25.5125069" r="6.2608696"/><circle cx="26.6215093" cy="25.5125069" r="6.2608696"/><circle cx="704.6649876" cy="1076.4934852" r="6.2608696"/><circle cx="26.6215093" cy="1076.4934852" r="6.2608696"/></g></svg>