<?xml version="1.0" encoding="UTF-8"?><svg id="Layer_2" xmlns="http://www.w3.org/2000/svg" width="728.210022" height="1103.8847839" viewBox="0 0 728.210022 1103.8847839"><defs><style>.cls-1{fill:#7920ba;}.cls-2{fill:#eeeacf;}.cls-3{fill:#dc1a35;}.cls-4{fill:#022966;}.cls-5{fill:#fc59fc;}.cls-6{fill:#f7dd43;}</style></defs><g id="Graphic"><path class="cls-4" d="M728.210022,30.1183245v1043.648135c0,16.6338913-13.9384231,30.1183245-31.1323393,30.1183245H31.1323393c-17.1939162,0-31.1323393-13.4844332-31.1323393-30.1183245V30.1183245C0,13.4844332,13.9384231,0,31.1323393,0h665.9453435c17.1939162,0,31.1323393,13.4844332,31.1323393,30.1183245Z"/><rect x="38.5095334" y="56.4872759" width="663.1599121" height="939.4499512" rx="37.119873" ry="37.119873"/><path class="cls-2" d="M289.779553,109.7872637c-1.8701172,10.6599731-10.0400391,19.9699707-20.3601074,23.210022,3.0600586,15.6499634-1.5600586,32.6299438-12.1298828,44.5799561-10.5700684,11.9500122-26.8500977,18.6000366-42.7600098,17.4800415.3398438,11.8499756-6.5900879,23.6199951-17.1101074,29.0699463-10.5300293,5.4500122-24.1298828,4.3300171-33.619873-2.789978-7.9602051,16.210022-20.7102051,30.6300049-37.380127,37.5700073s-37.4199219,5.2399902-50.9199219-6.75l-36.1899414-20.7299805c-.2700195-.0900269-.5400391-.1799927-.8000488-.2800293V93.6072711c0-20.5,16.619873-37.1199951,37.119873-37.1199951h205.25c.7443848,1.5125427,1.640625,3.9367371,1.5039062,6.9134827-.3735352,8.1246338-8.0883789,12.6383667-8.7939453,13.0364685,1.3098145,1.0402527,3.074707,2.5632935,4.9501953,4.6000366,3.2304688,3.5080566,13.7094727,14.6731873,11.2399902,28.75Z"/><path class="cls-3" d="M220.7694846,56.4872711c-42.4,43.34-84.8,86.68-127.2,130.02,4.98-43.34,9.97-86.68,14.95-130.02h-32.89c-20.5,0-37.12,16.62-37.12,37.12v678.81l88.07,27.62,25.91-27.24c-20.26-49.14-30.41-101.83-37.87-154.45-14.49-102.18-19.28-205.74-14.29-308.82.29-5.94.62-11.94,2.29-17.64,2.46-8.4,7.67-15.67,12.74-22.79,48.56-68.16,93.08-139.19,133.25-212.61h-27.84Z"/><path class="cls-2" d="M701.6694455,93.6072711v151.9400024c-14.0300293-.0400391-27.6499023-4.4400024-37.9899902-14.0900269-9.4399414,13.7600098-26.3400879,22.0400391-42.9899902,21.0800171-18.3862305-1.0601196-30.8662109-15.4333496-40.3000488-25.8699951-2.534668-2.8042603-4.4697266-5.255249-5.7299805-6.9199829-2.7097168.6066895-6.6936035,1.2814331-11.5151367,1.2838745-24.2700195.012207-41.1220703-17.0249023-44.454834-20.553894-19.2199707-20.3515015-18.177002-46.0907898-17.8999023-50.8300171-18.0795898,3.8710938-36.0700684-5.4332886-42.7202148-21.2700195-5.6604004-13.4793091-2.2431641-29.638092,8.7019043-40.5367432-8.2055664-4.3847656-22.2580566-13.6348572-25.1018066-28.5732422-.1708984-.8983459-.3029785-1.8249207-.3898926-2.7799683h223.2700195c20.5,0,37.119873,16.6199951,37.119873,37.1199951Z"/><path class="cls-3" d="M701.6694455,93.6072711v670.9699707h-85.2299805c12.3100586-85.8599854,21.1601562-172.1699829,30.0100098-258.4599609,2.9399414-28.7400513,5.8898926-57.5400391,5.9099121-86.4300537.0200195-36.7199707-4.6999512-73.2699585-9.3999023-109.6899414-2.7700195-21.4000244-5.6000977-43.0500488-13.5-63.1200562-18.8598633-47.8799438-63.2199707-79.8699951-98.0600586-117.7399902-20.1499023-21.8999634-37.5100098-46.3800049-51.5100098-72.6499634h32.0300293c23.3100586,34.5,58.0300293,60.7799683,91.75,85.9099731-2.0200195-28.6400146-4.0400391-57.2700195-6.0600586-85.9099731h66.9401855c20.5,0,37.119873,16.6199951,37.119873,37.1199951Z"/><path class="cls-4" d="M701.6694455,755.6872271v203.1300049c0,20.5-16.619873,37.1199951-37.119873,37.1199951H75.6294065c-20.5,0-37.119873-16.6199951-37.119873-37.1199951v-211.7399902c12.579834,3.0200195,24.0500488,10.6999512,31.4499512,21.3200684,23.7399902-3.8901367,47.4899902-7.7700195,71.2299805-11.6600342-1.6699219-5.8599854-5.3898926-11.1099854-10.3701172-14.6199951,11.9902344-.2800293,24.0400391,2.8699951,34.3500977,8.9899902,6.5300293-6.8599854,13.0600586-13.7199707,19.5900879-20.5800781-.4401855,9.3200684,2.1899414,18.7600098,7.3999023,26.5100098,4.5500488-2.2199707,9.1000977-4.4399414,13.6401367-6.6599121,2.1298828,4.6899414,4.25,9.3798828,6.369873,14.0599365,22.3500977-12.8099365,51.0600586,2.9801025,76.0900879-3.1199951,19.3200684-4.7099609,34.6899414-22.1300049,54.5598145-22.8999023,9.3300781-.3601074,18.4902344,3.0998535,27.8200684,2.8498535,11.2399902-.2999268,21.7600098-5.9399414,32.9799805-6.7199707,11.2199707-.7900391,24.8000488,6.9599609,23.1101074,18.0800781,5.5100098-2.4100342,11.4299316-4.8800049,17.3598633-3.8400879,5.9301758,1.0500488,11.3100586,7.2399902,9.170166,12.8701172,9.079834-5.9799805,22.9599609-2.4700928,28.119873,7.0899658,1.4702148-6.710083,1.0100098-13.8499756-1.329834-20.3100586,8.5500488,4.1099854,17.0998535,8.210083,25.6398926,12.3199463,6.0900879-8.0499268,15.3999023-13.579834,25.3798828-15.0699463-.3098145,6.0400391,1.0800781,12.1600342,3.9602051,17.4801025,10.2600098-3.0900879,20.5100098-6.1800537,30.7600098-9.2700195l1.5,11.4599609c18.1799316-4.5200195,37.0100098-6.3599854,55.7099609-5.4399414,10.7299805-11.8701172,31.5898438-12.3601074,42.869873-1.0200195,5.8701172-8.2900391,18.2600098-7.6900635,28.130127-5.2900391,2.5698242.6300049,5.1298828,1.3100586,7.6699219,2.0799561Z"/><circle class="cls-6" cx="376.1285044" cy="320.7757756" r="162.3386053"/><circle class="cls-2" cx="515.718394" cy="503.2582228" r="7.9301413"/><circle class="cls-2" cx="507.7882527" cy="143.6880262" r="7.9301413"/><circle class="cls-2" cx="590.7794309" cy="408.4790333" r="7.0082913"/><circle class="cls-2" cx="156.8399194" cy="340.4605319" r="10.1889952"/><circle class="cls-2" cx="185.2526403" cy="493.0692276" r="10.1889952"/><path class="cls-6" d="M121.5783206,1060.0112262h-8.6582031v-34.7236328h-13.0478516v-8.6884766h34.7236328v8.6884766h-13.0175781v34.7236328Z"/><path class="cls-6" d="M147.8859378,1060.0112262h-8.6884766v-43.4121094h8.6884766v17.3769531h17.3466797v-17.3769531h8.6884766v43.4121094h-8.6884766v-17.3466797h-17.3466797v17.3466797Z"/><path class="cls-6" d="M211.7326175,1060.0112262h-29.7587891v-43.4121094h29.7587891v8.6884766h-21.0703125v8.6884766h14.2587891v8.6884766h-14.2587891v8.6582031h21.0703125v8.6884766Z"/><path class="cls-6" d="M243.8527347,1060.0112262h-8.6884766v-43.4121094h8.6884766v17.3769531h17.3466797v-17.3769531h8.6884766v43.4121094h-8.6884766v-17.3466797h-17.3466797v17.3466797Z"/><path class="cls-6" d="M312.1798831,1060.0112262h-8.6884766v-8.6884766h-17.3769531v8.6884766h-8.6582031v-26.0351562c0-2.4013672.4541016-4.65625,1.3623047-6.765625s2.144043-3.9511719,3.7084961-5.5253906c1.5639648-1.5742188,3.4003906-2.8154297,5.5097656-3.7236328,2.1088867-.9082031,4.3642578-1.3623047,6.7661133-1.3623047,2.4013672,0,4.6567383.4541016,6.7661133,1.3623047,2.1088867.9082031,3.9506836,2.1494141,5.5249023,3.7236328s2.8154297,3.4160156,3.7236328,5.5253906,1.3623047,4.3642578,1.3623047,6.765625v26.0351562ZM303.4914066,1042.6645465v-8.6884766c0-1.1904297-.2270508-2.3154297-.6811523-3.375s-1.074707-1.9833984-1.8618164-2.7705078-1.7104492-1.4072266-2.7700195-1.8613281-2.1850586-.6816406-3.3754883-.6816406c-1.190918,0-2.315918.2275391-3.3754883.6816406s-1.9829102,1.0742188-2.7700195,1.8613281-1.4077148,1.7109375-1.8618164,2.7705078-.6811523,2.1845703-.6811523,3.375v8.6884766h17.3769531Z"/><path class="cls-6" d="M354.4416019,1060.0112262h-9.2939453l-16.7412109-28.578125v28.578125h-8.6884766v-43.4121094h9.2939453l16.7412109,28.6083984v-28.6083984h8.6884766v43.4121094Z"/><path class="cls-6" d="M397.0363284,1055.6215777c-2.0185547,1.7158203-4.2685547,3.0332031-6.7509766,3.9511719s-5.065918,1.3769531-7.75,1.3769531c-2.0585938,0-4.0415039-.2675781-5.9487305-.8017578-1.9072266-.5351562-3.6884766-1.2919922-5.3432617-2.2705078-1.6552734-.9785156-3.1689453-2.1494141-4.5410156-3.5117188-1.3725586-1.3623047-2.5429688-2.8759766-3.5117188-4.5410156s-1.7207031-3.4560547-2.2553711-5.3740234c-.5351562-1.9169922-.8022461-3.9052734-.8022461-5.9638672s.2670898-4.0361328.8022461-5.9335938c.534668-1.8964844,1.2866211-3.6777344,2.2553711-5.3427734s2.1391602-3.1787109,3.5117188-4.5410156c1.3720703-1.3623047,2.8857422-2.5283203,4.5410156-3.4970703,1.6547852-.96875,3.4360352-1.7197266,5.3432617-2.2548828s3.8901367-.8027344,5.9487305-.8027344c2.684082,0,5.2675781.4599609,7.75,1.3779297s4.7324219,2.2353516,6.7509766,3.9501953l-4.5410156,7.5683594c-1.3120117-1.3320312-2.8256836-2.3759766-4.5410156-3.1328125-1.7158203-.7568359-3.5219727-1.1357422-5.4189453-1.1357422-1.8974609,0-3.6782227.3632812-5.3432617,1.0898438s-3.1235352,1.7109375-4.3745117,2.9521484c-1.2514648,1.2412109-2.2402344,2.6943359-2.9667969,4.359375s-1.0898438,3.4462891-1.0898438,5.3427734c0,1.9179688.3632812,3.7138672,1.0898438,5.3886719.7265625,1.6757812,1.715332,3.1386719,2.9667969,4.3896484,1.2509766,1.2519531,2.7094727,2.2402344,4.3745117,2.9667969s3.4458008,1.0898438,5.3432617,1.0898438c1.0898438,0,2.1494141-.1308594,3.1787109-.3935547,1.0292969-.2617188,2.0078125-.625,2.9365234-1.0898438v-12.3515625h8.3857422v17.1347656Z"/><path class="cls-6" d="M433.4855472,1060.0112262h-29.7587891v-43.4121094h29.7587891v8.6884766h-21.0703125v8.6884766h14.2587891v8.6884766h-14.2587891v8.6582031h21.0703125v8.6884766Z"/><path class="cls-6" d="M474.3546878,1038.3051715c0,1.9980469-.2573242,3.9208984-.7719727,5.7675781s-1.246582,3.5722656-2.1948242,5.1767578c-.9487305,1.6044922-2.0791016,3.0673828-3.390625,4.3896484-1.3120117,1.3222656-2.7753906,2.4570312-4.3896484,3.4052734-1.6147461.9492188-3.3452148,1.6806641-5.1918945,2.1953125s-3.769043.7714844-5.7670898.7714844h-13.078125v-43.4121094h13.078125c1.9980469,0,3.9204102.2578125,5.7670898.7724609s3.5771484,1.2460938,5.1918945,2.1943359c1.6142578.9492188,3.0776367,2.0839844,4.3896484,3.40625,1.3115234,1.3222656,2.4418945,2.7851562,3.390625,4.3896484.9482422,1.6044922,1.6801758,3.3300781,2.1948242,5.1767578s.7719727,3.7685547.7719727,5.7666016ZM465.6662113,1038.3051715c0-1.7958984-.3383789-3.4814453-1.0141602-5.0556641-.6762695-1.5742188-1.6044922-2.9511719-2.7851562-4.1318359s-2.5634766-2.1142578-4.1474609-2.8007812c-1.5844727-.6855469-3.2749023-1.0292969-5.0708008-1.0292969h-4.3291016v26.0351562h4.3291016c1.7958984,0,3.4863281-.3378906,5.0708008-1.0136719,1.5839844-.6757812,2.9667969-1.6044922,4.1474609-2.7851562s2.1088867-2.5634766,2.7851562-4.1474609c.6757812-1.5839844,1.0141602-3.2744141,1.0141602-5.0712891Z"/><path class="cls-6" d="M540.5324222,1060.0112262h-8.6582031v-31c0-.6054688-.1162109-1.1699219-.3481445-1.6953125-.2324219-.5244141-.5449219-.9833984-.9384766-1.3769531s-.8530273-.7011719-1.3774414-.9238281c-.5249023-.2216797-1.0898438-.3330078-1.6953125-.3330078s-1.1708984.1113281-1.6953125.3330078c-.5249023.2226562-.9838867.5302734-1.3774414.9238281s-.7016602.8525391-.9233398,1.3769531c-.222168.5253906-.3330078,1.0898438-.3330078,1.6953125v31h-8.6884766v-31c0-.6054688-.1113281-1.1699219-.3330078-1.6953125-.222168-.5244141-.5297852-.9833984-.9233398-1.3769531s-.8530273-.7011719-1.3774414-.9238281c-.5249023-.2216797-1.0898438-.3330078-1.6953125-.3330078s-1.1708984.1113281-1.6953125.3330078c-.5249023.2226562-.9838867.5302734-1.3774414.9238281s-.7016602.8525391-.9233398,1.3769531c-.222168.5253906-.3330078,1.0898438-.3330078,1.6953125v31h-8.6884766v-31c0-1.7958984.3378906-3.4863281,1.0141602-5.0703125.6757812-1.5839844,1.6044922-2.9667969,2.7851562-4.1474609s2.5629883-2.109375,4.1474609-2.7851562c1.5839844-.6757812,3.2744141-1.0146484,5.0708008-1.0146484,1.6142578,0,3.168457.2880859,4.6621094.8632812,1.4931641.5751953,2.8354492,1.4072266,4.0263672,2.4970703,1.1904297-1.0898438,2.527832-1.921875,4.0112305-2.4970703s3.0322266-.8632812,4.6469727-.8632812c1.7958984,0,3.4863281.3388672,5.0708008,1.0146484,1.5839844.6757812,2.9667969,1.6044922,4.1474609,2.7851562s2.1088867,2.5634766,2.7851562,4.1474609c.6757812,1.5839844,1.0141602,3.2744141,1.0141602,5.0703125v31Z"/><path class="cls-6" d="M582.52168,1060.0112262h-8.6884766v-8.6884766h-17.3769531v8.6884766h-8.6582031v-26.0351562c0-2.4013672.4541016-4.65625,1.3623047-6.765625s2.144043-3.9511719,3.7084961-5.5253906c1.5639648-1.5742188,3.4003906-2.8154297,5.5097656-3.7236328,2.1088867-.9082031,4.3642578-1.3623047,6.7661133-1.3623047,2.4013672,0,4.6567383.4541016,6.7661133,1.3623047,2.1088867.9082031,3.9506836,2.1494141,5.5249023,3.7236328s2.8154297,3.4160156,3.7236328,5.5253906,1.3623047,4.3642578,1.3623047,6.765625v26.0351562ZM573.8332034,1042.6645465v-8.6884766c0-1.1904297-.2270508-2.3154297-.6811523-3.375s-1.074707-1.9833984-1.8618164-2.7705078-1.7104492-1.4072266-2.7700195-1.8613281-2.1850586-.6816406-3.3754883-.6816406c-1.190918,0-2.315918.2275391-3.3754883.6816406s-1.9829102,1.0742188-2.7700195,1.8613281-1.4077148,1.7109375-1.8618164,2.7705078-.6811523,2.1845703-.6811523,3.375v8.6884766h17.3769531Z"/><path class="cls-6" d="M624.7833988,1060.0112262h-9.2939453l-16.7412109-28.578125v28.578125h-8.6884766v-43.4121094h9.2939453l16.7412109,28.6083984v-28.6083984h8.6884766v43.4121094Z"/><circle cx="704.6650924" cy="25.5125013" r="6.2608696"/><circle cx="26.6216142" cy="25.5125013" r="6.2608696"/><circle cx="704.6650924" cy="1076.4934795" r="6.2608696"/><circle cx="26.6216142" cy="1076.4934795" r="6.2608696"/><path d="M339.6394162,995.9372271H75.6294065c-20.5,0-37.119873-16.6199951-37.119873-37.1199951v-163.4399414c8.7199707,1.6199951,17.0900879,5.8499756,23.1899414,12.2299805,14.6699219,15.3299561,17.7900391,38.8999023,13.5800781,59.6999512,4.6699219-7.5,14.869873-9.9399414,23.5100098-8.0899658,8.6298828,1.8499756,16.0898438,7.0999756,23.2900391,12.2199707-9.2602539-8.75-1.7602539-26.539917,10.6999512-29.2299805,12.4499512-2.6900635,25.0898438,6.1600342,30.9799805,17.460083,5.8898926,11.2999268,6.5998535,24.4899902,7.1899414,37.2199707,7.2600098-10.5900879,24.6699219-9.5400391,33.75-.4599609,9.0800781,9.079834,11.2700195,23.079834,10.2800293,35.8798828,6.5-10.1099854,20.4799805-14.6398926,31.6799316-10.2600098,11.1901855,4.3701172,18.3901367,17.1900635,16.3100586,29.0300293,3.4899902-17.25,24.5200195-26.9599609,41.4699707-22.2099609,16.9499512,4.7600098,29.1000977,20.3999023,34.4299316,37.1699219,3.0800781,9.6700439,4.1901855,20.460083.7700195,29.9000244Z"/><path d="M701.6694455,798.0372027v160.7800293c0,20.5-16.619873,37.1199951-37.119873,37.1199951h-218.6101074c-.2800293-9.2999268,3.8300781-18.8399658,11.5100098-24.1899414,11.4599609-7.9901123,28.9299316-5.3199463,37.619873,5.5299072-4.829834-6.9599609-.8098145-17.6599121,6.4602051-22.4099121,7.5898438-4.9599609,17.1999512-5.2399902,26.2700195-5.3601074-20.7199707-21.6499023-17.5900879-61.2598877,6.2600098-79.3898926,23.8598633-18.1300049,62.8498535-10.5500488,78.1699219,15.1999512,8.6098633-6.8399658,22.9499512-4.4499512,28.8701172,4.8100586,2.1699219-8.8900146,11.5598145-15.3900146,20.6398926-14.2800293-12.4099121-7.8499756-17.4099121-25.5100098-10.9699707-38.6999512,6.4399414-13.1900635,23.4499512-20.1000977,37.2700195-15.1401367-1.6601562-10.2399902,4.6098633-18.9699707,13.6298828-23.9699707Z"/><rect x="660.7746097" y="629.2426715" width="3" height="15.2617188"/><path d="M647.877637,615.2602496c-.3662109-5.2705078.0625-10.5498047,1.2753906-15.6914062l2.9199219.6894531c-1.1435547,4.8466797-1.5478516,9.8242188-1.2021484,14.7929688l-2.9931641.2089844Z"/><path d="M665.6579105,285.384273c-.465332-6.25-1.7260742-12.4257812-3.7470703-18.3564453l2.8398438-.9667969c2.1030273,6.1708984,3.4145508,12.5976562,3.8994141,19.1005859l-2.9921875.2226562Z"/><rect x="675.9687155" y="258.1580723" width="3.0004603" height="9.680917" transform="translate(-43.1427627 168.9178991) rotate(-13.778314)"/><path d="M79.5534183,667.4760699c-2.5146484-6.1601562-3.2270508-13.1533203-2.0058594-19.6914062l2.9492188.5507812c-1.1166992,5.9785156-.465332,12.3740234,1.8339844,18.0058594l-2.7773438,1.1347656Z"/><rect x="93.7003932" y="645.4241975" width="2.9999955" height="20.5002293" transform="translate(-152.9488511 41.3503978) rotate(-13.7343829)"/><rect x="62.5354065" y="432.0166476" width="3.0003791" height="17.6473602" transform="translate(-34.1414937 6.3267938) rotate(-4.4671591)"/><path d="M73.9586917,413.8022418c-2.0644531-5.0175781-2.9306641-10.5292969-2.5048828-15.9394531l2.9912109.2363281c-.3896484,4.9423828.4018555,9.9775391,2.2880859,14.5625l-2.7744141,1.140625Z"/><rect x="72.6442386" y="193.7211871" width="3" height="8.2177734"/><rect x="84.4764232" y="211.5767626" width="17.6481308" height="2.9997865" transform="translate(-125.501946 292.0205414) rotate(-86.1921288)"/><path class="cls-6" d="M477.2072269,836.0063433c-1.5541992-4.0302734-2.2597656-8.4404297-2.0405273-12.7529297l2.9960938.1523438c-.1977539,3.8964844.4394531,7.8798828,1.8432617,11.5205078l-2.7988281,1.0800781Z"/><path class="cls-6" d="M486.9254886,833.8950152l-2.8652344-.8886719c1.9951172-6.4287109,2.965332-13.1015625,2.8833008-19.8320312l3-.0371094c.0854492,7.0458984-.9296875,14.0292969-3.0180664,20.7578125Z"/><path class="cls-6" d="M579.5353519,824.2641558c-1.5541992-4.0292969-2.2597656-8.4384766-2.0405273-12.7529297l2.9960938.1523438c-.1982422,3.8974609.4394531,7.8808594,1.8432617,11.5205078l-2.7988281,1.0800781Z"/><path class="cls-6" d="M589.2536136,822.1518512l-2.8652344-.8886719c1.9951172-6.4277344,2.965332-13.0996094,2.8833008-19.8310547l3-.0371094c.0854492,7.0458984-.9296875,14.0292969-3.0180664,20.7568359Z"/><path class="cls-6" d="M246.6115238,814.1616168c-1.5541992-4.0302734-2.2597656-8.4404297-2.0405273-12.7529297l2.9960938.1523438c-.1982422,3.8964844.4394531,7.8798828,1.8432617,11.5205078l-2.7988281,1.0800781Z"/><path class="cls-6" d="M256.3297855,812.0493121l-2.8652344-.8886719c1.9951172-6.4287109,2.965332-13.1015625,2.8833008-19.8320312l3-.0371094c.0854492,7.0458984-.9296875,14.0292969-3.0180664,20.7578125Z"/><path class="cls-6" d="M412.5246097,948.3784137c-1.5541992-4.0292969-2.2597656-8.4384766-2.0405273-12.7529297l2.9960938.1523438c-.1982422,3.8974609.4394531,7.8808594,1.8432617,11.5205078l-2.7988281,1.0800781Z"/><path class="cls-6" d="M422.2428714,946.266109l-2.8652344-.8886719c1.9951172-6.4277344,2.965332-13.0996094,2.8833008-19.8310547l3-.0371094c.0854492,7.0458984-.9296875,14.0292969-3.0180664,20.7568359Z"/><rect class="cls-2" x="359.1443935" y="46.6627447" width="23.1757138" height="198.6625625"/><path class="cls-5" d="M352.8680158,805.0077277c-.7616723-3.6407236.2444948-7.3855135,1.063096-11.0138609,2.2610785-10.0219398,3.1210781-20.3589394,2.5471983-30.6167371,8.2573219-.3386192,16.5146437-.6772383,24.7719656-1.0158575.5698355-.023368,1.170246-.0402466,1.6749654.2253037.9066872.4770391,1.1519884,1.6391537,1.2977553,2.6532543,2.1975915,15.2885948,4.3951823,30.577189,6.592773,45.8657833l-37.9477536-6.0978857Z"/><path class="cls-5" d="M340.4724999,848.240877c-6.2231445-16.4871826-1.7802734-38.9182129,12.5568848-49.2929688,21.6337891-15.3620605,45.0810547,4.0631104,46.9797363,27.4196777,2.6628418,21.3724365-10.9985352,46.8413086-34.0915527,44.5948486-11.8981934-1.597168-21.0087891-10.8153076-25.3361816-22.4240723l-.1088867-.2974854Z"/><path class="cls-5" d="M314.0935937,621.7550372c-8.2219238-97.3139038-13.447998-168.6140137-14.2114258-184.7954712-.2956543-6.2653809-.5527344-14.1205444,1.9663086-23.4520264,1.7165527-6.3588257,4.8081055-12.2689819,6.7080078-18.5754395,2.6828613-8.9049683,2.918457-18.3276978,3.8508301-27.5810547,1.3793945-13.6868286,4.3144531-27.1627808,7.2431641-40.6036377,2.5458984-11.6820679,5.092041-23.3637695,7.6379395-35.0458374,5.1721191-23.7332764,10.3757324-47.8944702,8.364502-72.1018677-.9025879-10.864563-2.9812012-22.8746338,3.2712402-31.8057251.7885742-1.1260986,1.782959-2.2264404,3.1154785-2.5629883,3.1806641-.8031616,5.5100098,2.9246216,6.5322266,6.0418701,2.1066895,6.425415,3.557373,13.065979,4.3212891,19.7849731,9.1442871.9052124,15.2519531,10.5731812,15.8955078,19.739502.611084,8.704834-2.6911621,13.5314331-4.9316406,26.9780273-1.6335449,9.8051147-.6425781,15.2974243.0390625,27.0564575.8034668,13.8601685,1.6098633,43.8970947-4.017334,73.4581909-1.4692383,7.7175903-4.1259766,19.3377075-9.1821289,33.2859497,1.4213867,5.8414307,2.7626953,11.7716064,4.0170898,17.7905884,13.8757324,66.5939941,14.1010742,129.7946167,7.078125,186.897522-15.8994141,8.4969482-31.7990723,16.9940186-47.6982422,25.4909668Z"/><path class="cls-5" d="M423.6320263,621.7550591c1.9528595-22.0117418,3.7696562-39.9188621,5.0289534-51.8732341,0-.000179,8.0180388-47.6010406,9.1824501-132.9222755.107418-7.8706971.0852183-15.8529298-1.9664658-23.4520383-1.7165399-6.3587885-4.8080304-12.2689277-6.707897-18.5754394-2.682944-8.9049535-2.9185475-18.3276619-3.8509359-27.5810078-1.3792473-13.6868455-4.3142656-27.1627937-7.2431968-40.603652-2.545807-11.6820673-5.091972-23.3637765-7.637779-35.0458438-5.1721775-23.7332945-10.3758642-47.8944708-8.3646409-72.1018368.9026694-10.8646162,2.981208-22.8746665-3.2712366-31.8057584-.7884482-1.1260989-1.782781-2.2264174-3.1154805-2.5629939-3.1806475-.8031287-5.5098281,2.9246345-6.5320896,6.0419053-2.1068254,6.4253877-3.5573266,13.0659694-4.3214268,19.7849663-9.1441376.9051758-15.251926,10.5731553-15.8953599,19.7394927-.6112085,8.704798,2.6911794,13.5314475,4.9315611,26.9780347,1.63347,9.8051165.6427178,15.2973997-.0390285,27.0564499-.8034868,13.8601466-1.609838,43.8970883,4.0174338,73.4581683,1.4691204,7.7176264,4.125926,19.3377493,9.182092,33.2859787-1.4214984,5.8413917-2.7627914,11.7715823-4.0170757,17.7905718-13.8759012,66.593978-14.101121,129.7946209-7.0781311,186.8975012,15.8992986,8.4969441,31.7989553,16.9940672,47.6982539,25.4910113Z"/><path class="cls-2" d="M314.8575097,625.673128c-9.5595703-91.2092896-16.5170898-157.1425171-17.2819824-161.7697144-.1083984-.6557617-.6523438-3.3594971.7297363-5.8822632.7475586-1.364563,2.0444336-2.3262939,3.3012695-3.2436523,17.4626465-12.7454834,37.1369629-26.1218872,58.6398926-23.8825684,1.3000488,16.3688965,3.1999512,32.6903076,5.6943359,48.9202881,3.1240234-17.4455566,7.5915527-34.6505737,13.3500977-51.4120483,9.0368652.2581787,26.2475586,2.0871582,43.3557129,13.1636963,7.029541,4.5511475,12.3806152,9.5881348,16.3271484,14.0040894,1.2131348,32.0646362.229248,68.9411011-5.1569824,109.3800049-2.7001953,20.2705078-6.2133789,39.2392578-10.1848145,56.8040771-12.2028809-2.5680542-27.0058594-4.6350708-43.8583984-4.8307495-26.501709-.3076782-48.7236328,4.1210327-64.9160156,8.7488403Z"/><path d="M337.9610253,827.82596c-1.5551758,4.2786865-3.3632812,10.7615967-3.6008301,18.815918-.2404785,8.1508789,1.2192383,14.7976074,2.5412598,19.1813965,2.3100586-1.9536133,4.619873-3.9072266,6.9299316-5.8607178.5654297,3.869873,2.6081543,14.2895508,11.3120117,23.6799316,9.2463379,9.9758301,20.2880859,12.6166992,24.0490723,13.3447266.026123-3.307251.5112305-9.1318359,3.5563965-15.5314941,2.4172363-5.0799561,5.5266113-8.5866699,7.7202148-10.6949463,1.4101562,1.9467773,2.8205566,3.8934326,4.2307129,5.84021,2.4633789-4.7266846,5.4289551-11.7550049,6.8596191-20.6901855,1.947998-12.1662598.1450195-22.2131348-1.3989258-28.1103516-6.798584,11.7915039-19.5239258,18.8426514-32.8757324,18.1872559-19.0544434-.9353027-28.6801758-17.0408936-29.3237305-18.1617432Z"/><path class="cls-5" d="M344.7787875,812.2251416c-3.946531.1949523-8.1200566.9540263-11.0294082,3.6277477-2.9093516,2.6737214-3.8397197,7.782962-1.0028092,10.5334259,1.5773027,1.5292416,4.0878017,2.005084,6.1153078,1.1591025,2.0275061-.8459815,3.4552641-2.9650706,3.477867-5.1618762l2.4390426-10.1584Z"/><path class="cls-5" d="M393.4659328,812.2251416c3.946531.1949523,8.1200566.9540263,11.0294082,3.6277477,2.9093516,2.6737214,3.8397197,7.782962,1.0028092,10.5334259-1.5773027,1.5292416-4.0878017,2.005084-6.1153078,1.1591025-2.0275061-.8459815-3.4552641-2.9650706-3.477867-5.1618762l-2.4390426-10.1584Z"/><path class="cls-1" d="M360.2853519,179.2622027l-1.9414062-2.2871094c6.7783203-5.7529297,16.081543-8.4462891,24.887207-7.2011719l-.4199219,2.9707031c-7.9716797-1.1318359-16.390625,1.3105469-22.5258789,6.5175781Z"/><path class="cls-1" d="M360.2853519,156.5825152l-1.9414062-2.2871094c6.7797852-5.7519531,16.0830078-8.4443359,24.887207-7.2011719l-.4199219,2.9707031c-7.9633789-1.1240234-16.3891602,1.3105469-22.5258789,6.5175781Z"/><path class="cls-1" d="M360.2853519,133.9038043l-1.9414062-2.2871094c6.7783203-5.7529297,16.081543-8.4462891,24.887207-7.2011719l-.4199219,2.9707031c-7.9716797-1.1289062-16.390625,1.3105469-22.5258789,6.5175781Z"/><path class="cls-1" d="M360.2853519,111.2241168l-1.9414062-2.2871094c6.7797852-5.7529297,16.0830078-8.4433594,24.887207-7.2011719l-.4199219,2.9707031c-7.9633789-1.1220703-16.3891602,1.3105469-22.5258789,6.5175781Z"/><rect class="cls-2" x="329.7701384" y="243.955742" width="78.1852505" height="19.8260869" rx="9.9130335" ry="9.9130335"/><path class="cls-1" d="M344.95918,264.0297808c-2.0576172-3.2910156-1.7397461-7.1748047-1.1958008-11.1972656.390625-2.8837891.8764648-6.4726562,2.9873047-9.265625l2.3935547,1.8085938c-1.637207,2.1660156-2.046875,5.1904297-2.4082031,7.859375-.4672852,3.4570312-.7602539,6.7617188.7670898,9.2050781l-2.5439453,1.5898438Z"/><path class="cls-1" d="M365.1471683,264.0297808c-2.0576172-3.2910156-1.7397461-7.1748047-1.1958008-11.1972656.390625-2.8837891.8764648-6.4726562,2.9873047-9.265625l2.3935547,1.8085938c-1.637207,2.1660156-2.046875,5.1904297-2.4082031,7.859375-.4672852,3.4570312-.7602539,6.7617188.7670898,9.2050781l-2.5439453,1.5898438Z"/><path class="cls-1" d="M385.3351566,264.0297808c-2.0581055-3.2919922-1.7397461-7.1748047-1.1953125-11.1972656.3896484-2.8828125.875-6.4716797,2.9868164-9.265625l2.3935547,1.8085938c-1.6376953,2.1669922-2.046875,5.1914062-2.4077148,7.859375-.4677734,3.4560547-.7612305,6.7617188.7666016,9.2050781l-2.5439453,1.5898438Z"/><path class="cls-5" d="M294.7369604,707.0524778c-11.6240601-11.9200615-23.2483913-23.8402631-34.8724514-35.7603246-15.6459551.8217015-55.6526729,2.7745079-66.4992036,1.3377743-1.7519333-.2321187-7.1763386-.872589-6.9965297-2.7689102.1221032-1.2882524,1.2587278-2.2113219,2.317247-2.9554535,2.9141666-2.0480824,5.9477975-3.9259932,9.0808229-5.6205795-6.4676448-5.4810345-12.2764565-7.6291146-16.3745142-8.5795144-8.817711-2.04486-17.3469202-.3148045-18.987672-4.1974749-.3535022-.83633-.4010542-1.9659656.0731611-2.8149364,1.147299-2.0538906,5.0102105-1.8587105,8.3812442-1.6883467,2.2933823.1159061,5.563055.4962257,9.4265364,1.7050325-1.9783742-4.3859699-4.4457818-6.5487744-6.2874491-7.7093454-3.2045844-2.0195059-6.0746914-1.9875221-7.2142045-4.5305775-.68068-1.5190142-.6337567-3.7109952.4898756-4.6612791,1.260606-1.0662098,3.3497289-.1316135,8.411625,1.5481186,2.0306793.6738311,4.9192811,1.5868557,8.4783703,2.5548292-2.0550868-3.207655-4.1250879-5.5099899-5.7354104-7.0866197-3.199635-3.1328394-6.0190659-5.0069094-5.5264921-6.7451304.2688375-.9485021,1.3971909-1.3876742,1.8777237-1.5746624,2.3959146-.9323828,4.9526536.4923865,7.68808,2.0670357,1.799399,1.0357857,4.2500049,2.6877763,6.7820835,5.2588389-1.1070155-2.4808091-2.133976-4.4235601-2.8681155-5.7407331-1.5470753-2.7761379-2.4051364-3.871764-2.0633998-5.355629.2806602-1.2183564,1.3143139-2.4564734,2.5626578-2.722344,2.1644567-.4610359,4.3525182,2.112095,5.9298375,3.973961,2.4785526,2.9256635,6.2013641,6.8570872,11.7976669,11.4742223,2.2843324,3.2047042,4.5691159,6.409147,6.8536891,9.6138107,9.4550792.4581317,18.9372993.9009935,28.4475628,1.3280623,7.3849514.3316172,14.7542142.6523795,22.1080393.9623065,10.505661.4428701,20.2543596,5.5766939,26.5706725,13.983471,6.70135,8.919683,13.4029407,17.8393255,20.1045416,26.7590282-4.6519314,9.3150295-9.3040631,18.6303402-13.9559945,27.9453697Z"/><path class="cls-3" d="M188.8371097,649.3315387c-2.862793-1.7705078-6.144043-2.8974609-9.4887695-3.2587891l.3222656-2.9824219c3.7875977.4082031,7.5029297,1.6845703,10.7446289,3.6904297l-1.578125,2.5507812Z"/><path class="cls-3" d="M192.4806644,637.9291949c-2.8623047-1.7705078-6.1435547-2.8974609-9.4892578-3.2597656l.3222656-2.9824219c3.7885742.4101562,7.5043945,1.6865234,10.7451172,3.6914062l-1.578125,2.5507812Z"/><path class="cls-3" d="M198.096387,628.8500933c-2.8603516-1.7695312-6.1416016-2.8964844-9.4887695-3.2587891l.3222656-2.9824219c3.7900391.4101562,7.5058594,1.6855469,10.7446289,3.6904297l-1.578125,2.5507812Z"/><path class="cls-5" d="M455.0605315,720.9341577c12.7836384-10.6670159,25.5675609-21.3341434,38.3511993-32.0011593,15.4795513,2.4196268,55.0759601,8.4591088,66.0125974,8.1406824,1.7664932-.0514893,7.2279687-.1330988,7.2433005-2.037864.010464-1.2939837-1.0256568-2.3285979-2.0026426-3.1772814-2.6888737-2.3356792-5.5142458-4.5143802-8.4572634-6.5208992,7.2244981-4.5185189,13.388552-5.9104971,17.8025577-6.3107256,8.9241149-.8091516,16.5992818,1.9005832,18.7801641-1.68605.7192595-1.1826209.6950931-2.8101369.1174889-3.8993574-1.1212513-2.1142443-4.3985438-2.3414546-8.1642837-2.5377632-2.2931947-.1195602-5.5846248-.0760753-9.5515839.7307313.9247714-1.0838936,1.9687173-2.2316597,3.1398646-3.4127193,1.6518311-1.6658514,2.6745826-2.6982164,3.9040152-3.6122206,4.3290926-3.2187302,7.5328075-2.2353897,8.465398-4.5889873.5060543-1.2773288.1271726-2.9924292-.8353521-3.8659953-1.3741054-1.2471252-3.5652364-.4191439-8.525704.6786406-2.0890079.4623341-5.0559228,1.0747474-8.6954272,1.6731585,2.2449949-3.3058141,4.6106577-5.2641895,6.4309723-6.4620203,3.5589237-2.3418413,6.8371007-2.9625475,6.9520743-4.8814893.0824948-1.3770014-1.5214046-2.4594522-1.7940989-2.6359729-2.4257955-1.5706439-5.7410722-.2388294-8.5357288.8839268-1.7769917.7139018-4.4648911,2.03908-7.2849662,4.5366629,1.1028312-1.4539842,2.3082729-3.2570194,3.4409244-5.4168387,1.1323674-2.1597077,1.9301041-4.1768203,2.499016-5.9106564-.4032512-.8297849-1.0775656-1.8392495-2.1684134-2.175975-2.2349175-.6898408-4.786716,1.8864264-6.3056211,3.3458154-2.7653639,2.6563978-6.8709707,6.1859779-12.9106757,10.2057422-2.6005049,2.9539258-5.2014319,5.9075453-7.8021722,8.8614062-9.4522861-.5125371-18.9300068-1.0430432-28.434006-1.5921311-7.4508856-.4304722-14.8849886-.8703711-22.3018546-1.3195079-10.3619163-.6275684-20.4547164,3.4287661-27.5072221,11.0459761-7.6278042,8.2384324-15.2556084,16.4768647-22.8833963,24.7152383,3.6735563,9.7424444,7.3472831,19.4851892,11.0208394,29.2276336Z"/><path class="cls-3" d="M566.7853519,674.4916949l-1.3085938-2.6992188c3.4291992-1.6621094,7.2558594-2.5517578,11.065918-2.5712891l.015625,3c-3.3647461.0175781-6.7441406.8027344-9.7729492,2.2705078Z"/><path class="cls-3" d="M564.3292972,662.7758746l-1.3095703-2.6992188c3.4272461-1.6621094,7.2543945-2.5517578,11.0668945-2.5712891l.015625,3c-3.3671875.0175781-6.746582.8027344-9.7729492,2.2705078Z"/><path class="cls-3" d="M559.6720706,653.1694293l-1.3085938-2.6992188c3.4291992-1.6621094,7.2558594-2.5517578,11.0664062-2.5712891l.015625,3c-3.3652344.0175781-6.7446289.8027344-9.7734375,2.2705078Z"/><path class="cls-2" d="M356.5301171,774.6954669c-2.7687988-.0906982-7.2531738-.4366455-12.5202637-1.8430176-23.512207-6.2779541-37.2307129-26.907959-50.4174805-47.3295898-4.7971191-7.4291992-11.2675781-18.4428711-17.4086914-32.7573242,9.3676758-13.5638428,18.7355957-27.1277466,28.1032715-40.6915894,4.8112793,7.911377,8.7001953,16.3832397,11.5629883,25.189209-.2131348-20.8143921-.4262695-41.6287842-.6391602-62.4431763,10.206543.4153442,20.7336426.6208496,31.5639648.5739746,27.5825195-.1192627,53.3935547-1.8581543,77.1884766-4.5912476.0266113,24.2720337.0527344,48.5441895.0791016,72.8161621,2.4816895-2.8311768,5.0183105-5.8950806,7.5661621-9.1998291,2.045166-2.6526489,3.9401855-5.2561646,5.6948242-7.7893677,11.5141602,14.9672241,23.0283203,29.9344482,34.5424805,44.9017334-12.654541,8.2069092-16.282959,24.904541-25.4414062,36.8886719-17.6469727,23.0916748-45.972168,24.9715576-57.5500488,26.4976807-1.3198242.1739502-2.4216309.2923584-3.1872559.3685303-2.697998-5.8737793-8.5842285-9.6202393-14.9509277-9.5262451-5.9724121.0881348-11.4477539,3.5422363-14.1860352,8.9354248Z"/><path class="cls-3" d="M313.1525394,625.5131793l-1.1230469-2.78125c35.3837891-14.2880859,75.2207031-16.90625,112.171875-7.3681641l-.75,2.9042969c-36.3330078-9.375-75.5053711-6.8027344-110.2988281,7.2451172Z"/><path class="cls-1" d="M351.9445316,799.5434527l-1.1113281-2.7871094c6.6303711-2.6445312,14.1435547-3.3613281,21.1552734-2.0205078l-.5634766,2.9472656c-6.4575195-1.2373047-13.3754883-.5751953-19.4804688,1.8603516Z"/><path d="M355.3765084,844.479029c-4.0047727-4.8617025-5.8228217-11.4591266-4.8737135-17.6859677,1.9156612,3.9577952,5.1596311,7.2582442,9.0837747,9.2419268,4.2803507,2.1637484,9.1705192,2.7382869,13.7061624,4.2975003,4.5356433,1.5592134,9.0890718,4.6082398,10.1739598,9.2800944l-28.0901834-5.1335538Z"/><path class="cls-3" d="M344.1295902,400.4428668l-1.8466797-2.3652344c2.6069336-2.0361328,4.8623047-4.4628906,6.703125-7.2148438l2.4931641,1.6679688c-2.0180664,3.0166016-4.4907227,5.6787109-7.3496094,7.9121094Z"/><path class="cls-3" d="M394.7677738,400.4428668c-2.8574219-2.2324219-5.3305664-4.8945312-7.3496094-7.9121094l2.4931641-1.6679688c1.8417969,2.7519531,4.097168,5.1796875,6.703125,7.2148438l-1.8466797,2.3652344Z"/><rect class="cls-5" x="298.4310186" y="18.2298349" width="131.3479662" height="70.0058343" rx="22.2156315" ry="22.2156315"/><path class="cls-4" d="M365.962598,72.7856402h-9.1694336l-7.2724609-12.2001953-7.2988281,12.2001953h-9.1171875l11.59375-18.8925781-11.59375-18.8925781h9.1171875l7.2988281,12.1992188,7.2724609-12.1992188h9.1694336l-11.59375,18.8925781,11.59375,18.8925781Z"/><path class="cls-4" d="M377.0294925,72.7856402h-7.5625v-37.7851562h7.5625v37.7851562Z"/><path class="cls-4" d="M391.6007816,72.7856402h-7.5625v-37.7851562h7.5625v37.7851562Z"/></g></svg>