<?xml version="1.0" encoding="UTF-8"?><svg id="Layer_2" xmlns="http://www.w3.org/2000/svg" width="728.210022" height="1103.8847839" xmlns:xlink="http://www.w3.org/1999/xlink" viewBox="0 0 728.210022 1103.8847839"><defs><style>.cls-1{fill:#eeeacf;}.cls-2{fill:#dc1a35;}.cls-3{fill:none;}.cls-4{clip-path:url(#clippath-1);}.cls-5{fill:#f7dd43;}.cls-6{clip-path:url(#clippath);}</style><clipPath id="clippath"><path class="cls-3" d="M695.6850891,79.4708806v865.2099609c0,20.5-16.6201172,37.1199951-37.1201172,37.1199951H69.64505c-20.5,0-37.1201172-16.6199951-37.1201172-37.1199951V79.4708806c0-20.5100098,16.6201172-37.1300049,37.1201172-37.1300049h588.9199219c20.5,0,37.1201172,16.6199951,37.1201172,37.1300049Z"/></clipPath><clipPath id="clippath-1"><path class="cls-3" d="M310.5940421,323.2867949c.1613806-1.0787353,1.3311415-8.1952113,7.265443-13.2243766,8.0190724-6.7955615,19.0691827-4.9763407,26.4243028-3.65362,15.5721373,2.8005704,15.425346,8.6608477,26.544634,10.9578494,23.1836079,4.7892079,38.7693335-17.3594901,57.8908246-10.8391384,4.5069292,1.5368377,6.9754608,5.3968319,6.9754638,5.3968919.0000031.00006,4.8864018,6.2026615,3.9622906,16.6416635-1.362612,15.3934897-24.9897183,32.5287834-49.17835,38.0044302-3.7680932.8529825-39.5509847,8.38868-64.5196545-13.6260289-4.2170473-3.7179816-17.4700397-15.5769853-15.3649542-29.6576711Z"/></clipPath></defs><g id="Graphic"><path class="cls-2" d="M728.210022,30.1183245v1043.648135c0,16.6338913-13.9384231,30.1183245-31.1323393,30.1183245H31.1323393c-17.1939162,0-31.1323393-13.4844332-31.1323393-30.1183245V30.1183245C0,13.4844332,13.9384231,0,31.1323393,0h665.9453435c17.1939162,0,31.1323393,13.4844332,31.1323393,30.1183245Z"/><path class="cls-1" d="M239.0617022,1060.8413043h-10.3232422v-41.4042969h-15.5585938v-10.3603516h41.4042969v10.3603516h-15.5224609v41.4042969Z"/><path class="cls-1" d="M270.4308428,1060.8413043h-10.3603516v-51.7646484h10.3603516v20.7207031h20.6845703v-20.7207031h10.359375v51.7646484h-10.359375v-20.6845703h-20.6845703v20.6845703Z"/><path class="cls-1" d="M346.5617022,1060.8413043h-35.484375v-51.7646484h35.484375v10.3603516h-25.1240234v10.3603516h17.0019531v10.359375h-17.0019531v10.3242188h25.1240234v10.3603516Z"/><path class="cls-1" d="M371.4689287,1024.5991168c0-2.1416016.4091797-4.1513672,1.2275391-6.0283203.8173828-1.8779297,1.9306641-3.5195312,3.3388672-4.9277344s3.0498047-2.5205078,4.9277344-3.3388672c1.8769531-.8183594,3.8857422-1.2275391,6.0283203-1.2275391h23.7519531v10.3603516h-23.7519531c-.7226562,0-1.3964844.1328125-2.0214844.3964844-.6259766.265625-1.1738281.6318359-1.6425781,1.1015625-.4697266.46875-.8369141,1.0166016-1.1015625,1.6425781s-.3964844,1.2988281-.3964844,2.0214844c0,.7216797.1318359,1.4013672.3964844,2.0390625s.6318359,1.1914062,1.1015625,1.6601562c.46875.4697266,1.0166016.8369141,1.6425781,1.1015625.625.2646484,1.2988281.3974609,2.0214844.3974609h10.359375c2.1416016,0,4.1572266.4023438,6.046875,1.2089844,1.8886719.8066406,3.5371094,1.9130859,4.9453125,3.3212891,1.4082031,1.4072266,2.5146484,3.0556641,3.3212891,4.9453125.8056641,1.8886719,1.2089844,3.9042969,1.2089844,6.0458984,0,2.1425781-.4033203,4.1513672-1.2089844,6.0283203-.8066406,1.8769531-1.9130859,3.5195312-3.3212891,4.9277344-1.4082031,1.4072266-3.0566406,2.5205078-4.9453125,3.3388672-1.8896484.8183594-3.9052734,1.2275391-6.046875,1.2275391h-22.9941406v-10.3603516h22.9941406c.7226562,0,1.3955078-.1318359,2.0214844-.3974609.6259766-.2636719,1.1738281-.6308594,1.6425781-1.1005859.4697266-.4697266.8359375-1.0166016,1.1015625-1.6425781.2646484-.625.3964844-1.2998047.3964844-2.0214844s-.1318359-1.3955078-.3964844-2.0214844c-.265625-.625-.6318359-1.1728516-1.1015625-1.6425781-.46875-.46875-1.0166016-.8359375-1.6425781-1.1005859s-1.2988281-.3974609-2.0214844-.3974609h-10.359375c-2.1425781,0-4.1513672-.4082031-6.0283203-1.2275391-1.8779297-.8173828-3.5195312-1.9306641-4.9277344-3.3388672-1.4082031-1.4072266-2.5214844-3.0556641-3.3388672-4.9453125-.8183594-1.8886719-1.2275391-3.9042969-1.2275391-6.0458984Z"/><path class="cls-1" d="M460.4865069,1040.156734c0,2.8642578-.5410156,5.5537109-1.6240234,8.0683594s-2.5634766,4.7050781-4.4404297,6.5693359c-1.8769531,1.8652344-4.0732422,3.3388672-6.5878906,4.421875s-5.2041016,1.625-8.0673828,1.625c-2.8642578,0-5.5537109-.5419922-8.0683594-1.625s-4.7050781-2.5566406-6.5693359-4.421875c-1.8652344-1.8642578-3.3398438-4.0546875-4.4228516-6.5693359-1.0820312-2.5146484-1.6240234-5.2041016-1.6240234-8.0683594v-31.0800781h10.3242188v31.0800781c0,1.4208984.2705078,2.7558594.8125,4.0068359.5410156,1.2519531,1.28125,2.3466797,2.2197266,3.2851562s2.0390625,1.6787109,3.3027344,2.2197266c1.2636719.5419922,2.6044922.8125,4.0253906.8125,1.4189453,0,2.7607422-.2705078,4.0244141-.8125,1.2636719-.5410156,2.3642578-1.28125,3.3027344-2.2197266s1.6787109-2.0332031,2.2207031-3.2851562c.5410156-1.2509766.8115234-2.5859375.8115234-4.0068359v-31.0800781h10.3603516v31.0800781Z"/><path class="cls-1" d="M510.879085,1060.8413043h-11.0820312l-19.9619141-34.0761719v34.0761719h-10.3603516v-51.7646484h11.0820312l19.9619141,34.1123047v-34.1123047h10.3603516v51.7646484Z"/><circle cx="704.6724977" cy="25.5125013" r="6.2608696"/><circle cx="26.6290194" cy="25.5125013" r="6.2608696"/><circle cx="704.6724977" cy="1076.4934795" r="6.2608696"/><circle cx="26.6290194" cy="1076.4934795" r="6.2608696"/><g class="cls-6"><path class="cls-5" d="M695.6850891,79.4708806v865.2099609c0,20.5-16.6201172,37.1199951-37.1201172,37.1199951H69.64505c-20.5,0-37.1201172-16.6199951-37.1201172-37.1199951V79.4708806c0-20.5100098,16.6201172-37.1300049,37.1201172-37.1300049h588.9199219c20.5,0,37.1201172,16.6199951,37.1201172,37.1300049Z"/><polygon class="cls-1" points="373.4187575 49.0083291 402.8859393 140.9162622 465.1892822 67.3107177 457.3341917 163.5288899 542.9885764 119.431511 499.0070799 205.3115777 594.9724029 197.4357906 521.5602845 259.9032901 613.2266952 289.448112 521.5602845 318.9929339 594.9724029 381.4604334 499.0070799 373.5846463 542.9885764 459.464713 457.3341917 415.3673341 465.1892822 511.5855063 402.8859393 437.9799618 373.4187575 529.8878949 343.9515757 437.9799618 281.6482328 511.5855063 289.5033233 415.3673341 203.8489385 459.464713 247.8304351 373.5846463 151.8651121 381.4604334 225.2772305 318.9929339 133.6108198 289.448112 225.2772305 259.9032901 151.8651121 197.4357906 247.8304351 205.3115777 203.8489385 119.431511 289.5033233 163.5288899 281.6482328 67.3107177 343.9515757 140.9162622 373.4187575 49.0083291"/><path d="M30.0802477,164.1636163c7.7833349-18.9006695,25.4302019-33.409619,45.4790334-37.3920763,12.7552122-2.5336741,28.5204398.5831964,33.9103797,12.4180386,4.1218269,9.0504216.6734056,19.501487-1.3671867,29.2347011-2.0405924,9.7332141-1.5721467,21.9091073,6.9596887,27.0186335,10.3407913,6.1928688,23.601781-2.8925492,35.4493348-.6746613,13.1871245,2.468656,19.8239521,18.3304029,18.1994798,31.6478952-1.6244723,13.3174923-8.8836018,25.1748979-13.5596774,37.7498266-4.6760756,12.5749286-6.3464557,27.9499197,2.1087525,38.3664434,9.0060302,11.0951172,26.7576021,13.0850725,33.8512012,25.4903552,6.2436117,10.9188253,1.3422797,24.4898103-2.4457205,36.4837457s-5.3184713,27.4284564,4.7549359,34.9603817c5.9147294,4.4224723,14.3647193,4.6676112,19.7611437,9.7095268,8.8459524,8.2648284,4.0686294,23.1172035-2.7096373,33.1478243-26.3321616,38.9668731-75.8798591,60.8351323-122.414477,54.028575-46.5346179-6.8065574-87.7433416-41.949639-101.8118817-86.8258695-14.0047131-44.672625-2.270712-92.718934,5.4114292-138.9007493C-4.4673258,247.3275548-1.6468752,223.8534068.1068588,200.2998076l29.9733889-36.1361913Z"/><path d="M718.128598,164.1636163c-7.7833349-18.9006695-25.4302019-33.409619-45.4790334-37.3920763-12.7552122-2.5336741-28.5204398.5831964-33.9103797,12.4180386-4.1218269,9.0504216-.6734056,19.501487,1.3671867,29.2347011,2.0405924,9.7332141,1.5721467,21.9091073-6.9596887,27.0186335-10.3407913,6.1928688-23.601781-2.8925492-35.4493348-.6746613-13.1871245,2.468656-19.8239521,18.3304029-18.1994798,31.6478952,1.6244723,13.3174923,8.8836018,25.1748979,13.5596774,37.7498266,4.6760756,12.5749286,6.3464557,27.9499197-2.1087525,38.3664434-9.0060302,11.0951172-26.7576021,13.0850725-33.8512012,25.4903552-6.2436117,10.9188253-1.3422797,24.4898103,2.4457205,36.4837457,3.7880003,11.9939354,5.3184713,27.4284564-4.7549359,34.9603817-5.9147294,4.4224723-14.3647193,4.6676112-19.7611437,9.7095268-8.8459524,8.2648284-4.0686294,23.1172035,2.7096373,33.1478243,26.3321616,38.9668731,75.8798591,60.8351323,122.414477,54.028575,46.5346179-6.8065574,87.7433416-41.949639,101.8118817-86.8258695,14.0047131-44.672625,2.270712-92.718934-5.4114292-138.9007493-3.8756281-23.2986521-6.6960788-46.7728001-8.4498127-70.3263993l-29.9733889-36.1361913Z"/><path class="cls-2" d="M396.6414598,149.6687148l2.7848719,8.6859958,5.8839701-6.9513577c15.3221035-18.1016253,44.8499918-5.8969106,42.9202994,17.7401785l-.7485386,9.1689612,8.148511-4.1950915c21.0734598-10.8492326,43.6730269,11.7020584,32.8688834,32.7986704l-4.2371303,8.2735937,9.2298131-.7574824c23.6093586-1.9375987,35.8400793,27.5269223,17.7988536,42.8784784l-7.1233312,6.061352,8.8885156,2.8648401c22.5412292,7.2652196,22.5412292,39.1572978,0,46.4225174l-8.8885156,2.8648401,7.1233312,6.061352c18.0412257,15.3515561,5.810505,44.8160771-17.7988536,42.8784784l-9.2298131-.7574824,4.2371303,8.2735937c10.8041436,21.096612-11.7954235,43.647903-32.8688834,32.7986704l-8.148511-4.1950915.7485386,9.1689612c1.9296924,23.6370891-27.5981959,35.8418038-42.9202994,17.7401785l-5.8839701-6.9513577-2.7848719,8.6859958c-7.2423035,22.5886938-39.203101,22.5886938-46.4454045,0l-2.7848719-8.6859958-5.8839701,6.9513577c-15.3221035,18.1016253-44.8499918,5.8969106-42.9202994-17.7401785l.7485386-9.1689612-8.148511,4.1950915c-21.0734598,10.8492326-43.6730269-11.7020584-32.8688834-32.7986704l4.2371303-8.2735937-9.2298131.7574824c-23.6093586,1.9375987-35.8400793-27.5269223-17.7988536-42.8784784l7.1233312-6.061352-8.8885156-2.8648401c-22.5412292-7.2652196-22.5412292-39.1572978,0-46.4225174l8.8885156-2.8648401-7.1233312-6.061352c-18.0412257-15.3515561-5.810505-44.8160771,17.7988536-42.8784784l9.2298131.7574824-4.2371303-8.2735937c-10.8041436-21.096612,11.7954235-43.647903,32.8688834-32.7986704l8.148511,4.1950915-.7485386-9.1689612c-1.9296924-23.6370891,27.5981959-35.8418038,42.9202994-17.7401785l5.8839701,6.9513577,2.7848719-8.6859958c7.2423035-22.5886938,39.203101-22.5886938,46.4454045,0Z"/><ellipse class="cls-5" cx="373.4187575" cy="289.448112" rx="113.7037384" ry="114.0033246"/><path d="M300.4074053,263.5141558c-3.6689453-2.78125-7.0058594-6-9.9189453-9.5683594l2.3242188-1.8964844c2.7626953,3.3828125,5.9277344,6.4365234,9.4072266,9.0742188l-1.8125,2.390625Z"/><path d="M308.597835,254.134273c-3.6660156-2.7792969-7.0029297-5.9980469-9.9189453-9.5673828l2.3242188-1.8984375c2.7646484,3.3857422,5.9296875,6.4394531,9.4072266,9.0751953l-1.8125,2.390625Z"/><path d="M319.0831866,245.5463824c-3.6679688-2.7822266-7.0048828-6.0009766-9.9189453-9.5673828l2.3242188-1.8984375c2.7626953,3.3837891,5.9277344,6.4365234,9.4072266,9.0751953l-1.8125,2.390625Z"/><ellipse class="cls-2" cx="305.8071314" cy="290.5992253" rx="19.3580019" ry="9.8462354"/><path class="cls-1" d="M370.1000136,271.7021984c-6.5592935-23.0967344-28.9296896-35.9745213-47.992891-31.181333-14.2607502,3.5856894-25.4883482,16.7632194-28.2752455,33.1434737,2.639815,2.6079215,16.0616694,15.3273104,37.1059298,15.3608154,22.8149965.036327,36.9147707-14.8660471,39.1622067-17.3229561Z"/><ellipse cx="331.5591309" cy="268.202215" rx="21.1900655" ry="21.245897"/><ellipse class="cls-1" cx="347.0691619" cy="261.2779183" rx="8.6722724" ry="8.6951221"/><path d="M453.4454912,263.5141558l-1.8125-2.390625c3.4775391-2.6357422,6.6425781-5.6894531,9.4072266-9.0751953l2.3242188,1.8984375c-2.9160156,3.5693359-6.2529297,6.7880859-9.9189453,9.5673828Z"/><path d="M445.2550616,254.134273l-1.8125-2.390625c3.4775391-2.6357422,6.6425781-5.6894531,9.4072266-9.0751953l2.3242188,1.8984375c-2.9160156,3.5693359-6.2529297,6.7880859-9.9189453,9.5673828Z"/><path d="M434.76971,245.5463824l-1.8125-2.390625c3.4794922-2.6386719,6.6445312-5.6914062,9.4072266-9.0751953l2.3242188,1.8984375c-2.9140625,3.5664062-6.2509766,6.7851562-9.9189453,9.5673828Z"/><ellipse class="cls-2" cx="454.0114741" cy="290.5992253" rx="19.3580019" ry="9.8462354"/><path class="cls-1" d="M383.7526492,271.7021984c6.5592935-23.0967344,28.9296896-35.9745213,47.992891-31.181333,14.2607502,3.5856894,25.4883482,16.7632194,28.2752455,33.1434737-2.639815,2.6079215-16.0616694,15.3273104-37.1059298,15.3608154-22.8149965.036327-36.9147707-14.8660471-39.1622067-17.3229561Z"/><ellipse cx="422.2934723" cy="268.202215" rx="21.1900655" ry="21.245897"/><ellipse class="cls-1" cx="406.7834413" cy="261.2779183" rx="8.6722724" ry="8.6951221"/><g class="cls-4"><path class="cls-1" d="M310.5940421,323.2867949c.1613806-1.0787353,1.3311415-8.1952113,7.265443-13.2243766,8.0190724-6.7955615,19.0691827-4.9763407,26.4243028-3.65362,15.5721373,2.8005704,15.425346,8.6608477,26.544634,10.9578494,23.1836079,4.7892079,38.7693335-17.3594901,57.8908246-10.8391384,4.5069292,1.5368377,6.9754608,5.3968319,6.9754638,5.3968919.0000031.00006,4.8864018,6.2026615,3.9622906,16.6416635-1.362612,15.3934897-24.9897183,32.5287834-49.17835,38.0044302-3.7680932.8529825-39.5509847,8.38868-64.5196545-13.6260289-4.2170473-3.7179816-17.4700397-15.5769853-15.3649542-29.6576711Z"/><rect x="299.3565927" y="330.9981004" width="62.816469" height="2.9998843" transform="translate(-84.793275 549.9187935) rotate(-72.7683688)"/><path d="M364.0802569,371.1489215c-.4150391-20.1738281-.0878906-40.6103516.9726562-60.7441406l2.9960938.1582031c-1.0566406,20.0605469-1.3828125,40.4238281-.96875,60.5234375l-3,.0625Z"/><path d="M400.5519366,366.0297808c-5.4365234-18.9951172-10.4511719-38.3945312-14.9052734-57.6601562l2.9238281-.6757812c4.4414062,19.2158203,9.4433594,38.5654297,14.8662109,57.5097656l-2.8847656.8261719Z"/><path d="M437.8517412,351.5600543c-11.4482422-15.1074219-22.1328125-31.046875-31.7587891-47.3740234l2.5839844-1.5234375c9.5673828,16.2275391,20.1875,32.0693359,31.5654297,47.0849609l-2.390625,1.8125Z"/></g><path d="M403.9552016,196.8269241c-.5614997.3974359-12.696025,9.2570915-15.9936379,24.9948074-1.2743935,6.0824981-.0656361,7.8939266.5897663,8.7494435,2.9608089,3.8649573,9.0568173,2.4082128,13.389755.1986579,7.4690955-3.8090557,14.3417173-8.7910845,20.2901644-14.7086699-1.2787053,3.8077947,2.1147266,7.9639688,6.0409124,8.7692883,3.9261859.8052895,7.9433998-.8510736,11.3555164-2.957862,4.9610317-3.0630003,9.2810338-7.1645937,12.6016433-11.9646271,5.4808501,4.2289482,13.580914,4.0724417,19.5384639.55076,5.958029-3.5216817,9.8660092-9.9057844,11.5217625-16.6384765.5351494-2.1763802.7857163-4.7072643-.6209075-6.4496114-1.679229-2.0801586-4.8316759-2.0120679-7.4595136-1.5438693-9.1488035,1.6299734-17.8122836,5.9095093-24.6762817,12.1893144,1.5762235-3.3728309-.6156374-7.6755741-4.0100275-9.1896312-3.393911-1.5140571-7.46143-.6956779-10.6560373,1.2052773-3.1946074,1.9009251-5.6935684,4.7568012-8.1350379,7.5641011-1.0449068-1.9769718-3.0432132-4.9307807-6.4701818-6.2572882-6.1726636-2.3894789-12.635659,2.1834655-17.306359,5.4883858Z"/><path d="M346.7604902,196.8269241c.5614997.3974359,12.696025,9.2570915,15.9936379,24.9948074,1.2743935,6.0824981.0656361,7.8939266-.5897663,8.7494435-2.9608089,3.8649573-9.0568173,2.4082128-13.389755.1986579-7.4690955-3.8090557-14.3417173-8.7910845-20.2901644-14.7086699,1.2787053,3.8077947-2.1147266,7.9639688-6.0409124,8.7692883-3.9261859.8052895-7.9433998-.8510736-11.3555164-2.957862-4.9610317-3.0630003-9.2810338-7.1645937-12.6016433-11.9646271-5.4808501,4.2289482-13.580914,4.0724417-19.5384639.55076-5.958029-3.5216817-9.8660092-9.9057844-11.5217625-16.6384765-.5351494-2.1763802-.7857163-4.7072643.6209075-6.4496114,1.679229-2.0801586,4.8316759-2.0120679,7.4595136-1.5438693,9.1488035,1.6299734,17.8122836,5.9095093,24.6762817,12.1893144-1.5762235-3.3728309.6156374-7.6755741,4.0100275-9.1896312,3.393911-1.5140571,7.46143-.6956779,10.6560373,1.2052773,3.1946074,1.9009251,5.6935684,4.7568012,8.1350379,7.5641011,1.0449068-1.9769718,3.0432132-4.9307807,6.4701818-6.2572882,6.1726636-2.3894789,12.635659,2.1834655,17.306359,5.4883858Z"/><path class="cls-2" d="M695.6850891,179.870844v764.8099976c0,20.5-16.6201172,37.1199951-37.1201172,37.1199951H69.64505c-20.5,0-37.1201172-16.6199951-37.1201172-37.1199951V236.3908635c16.4702148-3.6699829,34.4301758-1.9299927,49.0400391,6.4199829,35.3203125,20.1600342,49.9101562,65.4199829,45.550293,105.8500366-4.3100586,39.9099731-23.5200195,76.4400024-42.5600586,111.8099976,14.3696289-25.5500488,55.1401367-25.4300537,77.449707-5.8600464,22.7099609,19.9200439,30.4599609,51.6700439,34.6401367,81.5800171,11.4101562-29.9299927,47.7602539-45.8699951,79.0698242-39.1300049,31.3203125,6.75,56.3500977,32.4500122,68.1201172,62.2399902,24.9101562-37.7099609,87.3300781-41.7999878,116.9399414-7.6499634,16.4101562-41.8099976,75.5600586-59.3800049,112.1201172-33.2999878-20.0498047-16.2000122-30.6899414-45.0800171-21.2597656-69.0700073,9.0297852-22.9800415,38.6000977-36.6199951,60.5200195-26.1100464-20.1201172-11.6499634-30.4003906-38.3899536-22.7202148-60.4599609,8.0400391-23.0900269,34.7001953-37.960022,58.5698242-32.6700439-20.0898438-41.1799927-30.4599609-95.8599854,1.4003906-128.789978,12.1098633-12.5200195,28.8696289-19.5599976,46.2797852-21.3800049Z"/><path d="M478.1440322,709.3813353c3.1322964-8.605928,76.2314179-8.1214361,102.1894791,32.1237838,2.4579513,3.8103033,4.2854997,7.2114645,5.7451724,10.6082597,9.2757661,21.5858036,10.7461427,39.1865205,11.8063912,47.7693506,1.7295234,13.9970269,8.3856532,33.9042914,31.1128295,58.0869152-4.1102939.3815374-9.7844826.4106914-16.2530127-1.1286971-3.2967983-.7846233-6.1592439-1.8243091-8.5524085-2.8804733-2.1120466,7.4275141-4.2787394,18.3444965-3.6376327,31.549013.865325,17.8243719,6.4443054,31.5071833,10.3839005,39.3535576-41.1175869-24.4683894-50.8355927-45.3088642-51.5403594-60.3114935-.6456136-13.7428095,6.0375576-26.1417174,1.5774154-47.4403468-2.7773779-13.2636696-8.478608-23.2867363-12.5663674-29.385137-.8027918,6.6216238-1.6050202,13.2432477-2.407812,19.8648715-21.4331323-19.8709276-31.0846613-37.2316521-35.9081724-49.7373172-2.0495133-5.3137774-4.181841-12.222012-9.752371-21.360036-11.7370976-19.2534822-23.5327849-23.4429286-22.1970521-27.1122504Z"/><path d="M737.6181946,858.634821c-48.7714844-6.4020996-97.543457-12.8043213-146.3149414-19.2064209-2.0473633-3.6433105-4.0952148-7.2866211-6.1425781-10.9299316-2.4487305,4.6912842-5.6669922,8.9797363-9.4868164,12.6422119-3.6044922-3.3580322-7.2089844-6.7159424-10.8134766-10.0739746,2.21875,5.0640869,3.3295898,10.6101074,3.2329102,16.1380615-50.7373047,4.8883057-101.4746094,9.7764893-152.2119141,14.6646729-2.9067383-5.9262695-4.953125-12.2738037-6.0541992-18.7821045-4.1157227,6.4289551-8.2319336,12.8579102-12.3476562,19.2868652-3.0229492-6.0930176-7.7553711-11.326416-13.5146484-14.9449463.612793,5.0369873.0864258,10.2093506-1.5283203,15.0196533-66.1704102-6.1397705-132.6499023-8.9462891-199.1025391-8.4053955-3.1333008-12.1516113-4.4433594-24.7718506-3.8730469-37.3081055-7.5009766,6.7539062-12.4501953,16.2768555-13.6674805,26.2967529-9.6503906-17.1308594-20.6279297-33.5142822-32.8012695-48.9550781-.4199219,15.4453125,2.3095703,30.9696045,7.9731445,45.3453369-9.4169922-8.4024658-22.3295898-12.7574463-34.9116211-11.7745361H-27.7670593v277.8999023h830.3481445c-21.6542969-82.3043213-43.3085938-164.6086426-64.9628906-246.9129639Z"/><path class="cls-1" d="M438.2570147,733.4399371c-2.0322266-17.2255859,6.3818359-35.1357422,20.9384766-44.5683594,13.3925781-8.6787109,31.2167969-9.6787109,45.5771484-2.8564453-4.2568359-12.2734375-3.9052734-26.4990234,1.0849609-39.6767578,5.5214844-14.5791016,16.1474609-26.3603516,29.1533203-32.3212891,13.0048828-5.9619141,28.8681641-6.3193359,43.5166016-.9853516,12.9199219,4.7050781,23.7128906,13.4091797,30.2841797,24.2685547,1.4892578-10.8662109,6.2519531-19.8154297,13.4384766-25.0039062,5.2324219-3.7783203,12.2568359-5.2363281,18.7900391-3.9003906,1.9570312.4003906,3.7802734,1.0410156,5.4316406,1.8955078-12.9003906-24.4501953-18.7988281-45.3984375-18.484375-65.3710938.3740234-23.7402344,12.2998047-52.7060547,38.0976562-63.9033203,12.7041016-5.5136719,28.7783203-4.7929688,41.9541016,1.8789062,11.5078125,5.828125,19.2441406,15.1835938,21.7832031,26.3417969l-2.9257812.6660156c-2.3369141-10.2724609-9.515625-18.9140625-20.2128906-24.3320312-12.4003906-6.2802734-27.5009766-6.9707031-39.4033203-1.8027344-24.5722656,10.6650391-35.9335938,38.421875-36.2929688,61.1982422-.3398438,21.5410156,6.7949219,44.3486328,22.4541016,71.7763672l-2.5878906,1.5175781c-2.1220703-3.5263672-5.8212891-5.9853516-10.4150391-6.9257812-5.6386719-1.1533203-11.9365234.1464844-16.4326172,3.3925781-7.5214844,5.4316406-12.1308594,15.5458984-12.6445312,27.75l-.2558594,6.0634766-2.5986328-5.484375c-12.1074219-25.5527344-46.5439453-38.0957031-72.2460938-26.3134766-25.703125,11.78125-38.6816406,46.0537109-27.2294922,71.9052734l1.9121094,4.3154297-4.0527344-2.4199219c-13.9335938-8.3212891-32.4453125-7.9804688-46.0644531.8447266s-21.4912109,25.5830078-19.5908203,41.6992188l-2.9785156.3515625Z"/><path class="cls-1" d="M253.1027178,725.844234l-2.6855469-1.3378906c4.7216797-9.4716797,5.2265625-21.2070312,1.3847656-32.1972656-3.8398438-10.9892578-11.5449219-19.8544922-21.1376953-24.3232422-9.5908203-4.4667969-21.3359375-4.6601562-32.2197266-.5322266-10.8847656,4.1308594-19.5429688,12.0673828-23.7568359,21.7763672l-1.0185547,2.3466797-1.5507812-2.0351562c-6.4921875-8.5224609-17.5097656-13.5488281-29.6064453-13.5488281-.2958984,0-.5927734.0029297-.890625.0087891-12.4453125.2529297-23.6308594,5.7744141-29.921875,14.7695312l-2.4580078,3.5146484-.2685547-4.2802734c-.7548828-12.0351562-6.9355469-23.9091797-16.9560547-32.5771484-10.0205078-8.6669922-22.6572266-13.0722656-34.6777344-12.0869141l-2.2636719.1855469.7177734-2.1542969c10.1816406-30.5869141,13.1103516-63.6162109,8.4697266-95.5166016-2.7587891-18.9648438-7.6962891-32.9121094-15.5390625-43.8916016-9.7431641-13.6416016-24.6123047-21.9521484-38.84375-21.6416016l-.0605469-3c.2597656-.0048828.5234375-.0078125.7841797-.0078125,14.9521484,0,30.4277344,8.7177734,40.5615234,22.9052734,8.1308594,11.3847656,13.2363281,25.7480469,16.0664062,45.2041016,4.6015625,31.6337891,1.8662109,64.3632812-7.9072266,94.8017578,12.0947266-.3652344,24.6425781,4.2734375,34.6542969,12.9335938,9.5957031,8.2998047,15.8720703,19.4042969,17.5927734,30.9306641,7.0673828-8.0166016,18.0009766-12.8447266,29.9882812-13.0888672,12.4755859-.2441406,24.0419922,4.5117188,31.4072266,12.8486328,4.8251953-9.4453125,13.5986328-17.0966797,24.4130859-21.2011719,11.6367188-4.4160156,24.2285156-4.1904297,34.5517578.6181641,10.3212891,4.8076172,18.5966797,14.3037109,22.7021484,26.0527344,4.1074219,11.7490234,3.5488281,24.3330078-1.53125,34.5244141Z"/><path d="M329.59427,516.8358222c-1.660128-1.4597581-6.9976327-6.0286833-5.5698929-8.4598966,1.3379028-2.2784533,4.5608974-2.334091,7.187701-2.0481069,20.5028781,2.2319571,40.4240433,8.0396674,60.2208473,13.8219951,10.0765911,2.9432748,20.3176358,5.9606095,29.1138642,11.6902693,3.1472642,2.0498238,6.3320223,4.8912896,6.5584709,8.6401738-17.4866572-3.483596-31.6931508-5.5932802-41.225894-6.8600002-16.8964059-2.2452285-42.8849084-5.0016368-56.2850965-16.7844345Z"/><path d="M395.0598152,532.519568c6.9701619-2.1734424,14.2324795,3.2449433,17.7702747,9.6314433,3.5377952,6.3864535,4.7643299,13.8291876,8.1302469,20.3079375,4.5337978,8.7263913,12.9651099,15.2678322,22.4733521,17.7774209,9.5086135,2.5095423,19.9497496,1.0293666,28.5358635-3.7647542,1.1062571,5.6022825-2.800538,11.2275346-7.8098778,13.9688154-5.0093398,2.7412808-10.8962607,3.2480524-16.5890298,3.6990006,7.8882067,4.9098045,11.0892989,15.1640278,10.1868455,24.4112973-.9028245,9.2472231-5.164884,17.7838709-9.3538117,26.0770865-2.7912573-13.2913258-9.7458276-25.6770428-19.6412598-34.979254,2.8900037,6.6455237-3.8893474,14.4059819-11.1249367,14.8097378-7.2352181.4038024-13.8037121-4.2812241-18.6537955-9.6654569-6.8832947-7.6412014-11.5826598-16.9530181-16.1996125-26.1428402-2.8276376-5.6288252-5.7124441-11.4646096-6.0394953-17.7553793-.6537311-12.5814002,9.0100553-24.6646599,6.003115-36.8988698l12.3121213-1.476185Z"/><path d="M357.2099184,512.3126689c.7439393-1.0757236,8.1744229-11.445445,21.0574916-11.5782051,10.1853606-.1049645,20.1245976,6.2265938,22.4206379,13.2391684.6511325,1.9882465,1.4826814,6.0127205,1.7069027,8.844256.1941518,2.453719.3883036,4.9074843.5824555,7.3612033l-45.7674876-17.8664226Z"/><path d="M328.3130445,644.6880595c-5.6356001-29.375069-19.9315595-57.034001-40.6363852-78.6201665-14.5383708-15.1573921-31.6972343-21.8729849-31.6972343-21.8729849-8.8986872-3.9317137-16.8422067-5.9113291-22.5353471-6.9780504-3.0811596-5.092011-6.1625647-10.1840526-9.243816-15.276075-1.027235-1.6975907-3.4671786-1.7731201-4.5849765-.1337441-1.504163,2.2060237-3.0446441,4.7511737-4.4934971,7.6416116-2.5900522,5.1665081-4.1373271,9.9397938-5.0906386,13.7889094-.8244956-2.6938102-2.5818852-7.1915989-6.3995857-11.6400608-2.6310127-3.0656316-5.455901-5.1935218-7.8723617-6.6500849-1.5542316-.9368397-3.472393.4204699-3.0853769,2.1934682,1.6720543,7.6600156,2.788871,15.5576031.43419,22.9427568-1.5814279,4.9599202-4.6221498,9.2960395-7.3655188,13.7204644-8.4821702,13.6801863-14.3831978,28.7711751-20.236337,43.7657377-2.9289826,7.5034297-5.9043686,15.6303356-3.8808091,23.426942,3.0206757,11.6400144,18.5721255,17.8905524,28.8083443,11.5788083,6.7188411-4.1428955,10.2915316-11.9413581,16.3707482-16.9758949,8.5475062-7.0780962,20.5611608-7.6790666,31.6556569-7.952429-.7944262,33.7144829-4.400156,67.3622841-10.7678161,100.4795089-3.8247538,19.8926734-7.9516866,42.8205933,4.8898047,58.4873091,5.1515198,6.2852477,12.8255285,10.9863761,15.1854198,18.7628435,1.1396675,3.7548703.8601334,7.7738688.5694625,11.6871603-.663383,8.9385941-1.354608,18.0115724-4.436165,26.4284067-4.1785333,11.4127306-12.7486844,21.8759547-12.0214504,34.0077524.6136386,10.2360331,7.7419432,18.7263704,11.9698498,28.0686741,5.6070156,12.3903574,6.0974067,26.3985229,6.496476,39.9926773,4.08981.687884,8.0255608-2.5772448,9.4829988-6.4600029,1.4578092-3.8828509,1.0186474-8.1927986.4283962-12.2979218-3.6606714-25.4656289-11.6966266-53.971423,3.0889815-75.0260376,5.5806585-7.9473247,14.2402753-14.3663998,16.105692-23.89673,9.6400279,32.4067423,19.2796845,64.8134846,28.9193412,97.2202269,1.4451875,4.8585288,3.6072147,10.4499528,8.5022165,11.7665101,9.1555764-7.3401826,4.1855867-21.7688557-.2049174-32.6511954-13.3857103-33.1757394-13.6967987-69.9621274-13.8193037-105.7361788,14.6683003,8.4040269,32.72442,9.2743691,49.2521973,5.7230241,16.962584-3.6448543,32.6715133-11.5782752,48.0081177-19.6638651.8413332-.4435581,1.7342786-.7934588,2.6696412-.9657442,4.3044481-.7928404,5.5044334,2.0252134,6.4622739,4.5662372,8.388621,22.2589684,15.3275998,45.0641976,20.7579112,68.2232064,1.1392963,4.8590856,2.2191962,9.8225789,1.8219831,14.7974873-.3467262,4.3413165-1.8041642,8.5063928-3.2493517,12.6146714-6.3958734,18.1809448-12.7917468,36.3618897-19.1876202,54.5428345,5.8201,4.3457712,14.6363747.5204605,18.620385-5.5527236,3.9843815-6.0731842,4.7810351-13.6090963,6.7266368-20.607193,2.6999354-9.7113963,7.8124764-18.7423332,14.7499703-26.0545809,2.5933932-2.7336243,5.4908215-5.3040942,7.1669123-8.6788279,1.7740948-3.5715769,2.0023995-7.6854239,2.197665-11.6684133.6492764-13.2304445,1.2985527-26.4608891,1.9478291-39.6912408,8.416463,9.4059691,17.1878193,19.5264578,19.2666916,31.9757475,1.3531231,8.1050962-.3040351,16.3910729-2.2785925,24.3676317-4.6499919,18.7840034-11.1034055,37.1211421-19.2421906,54.6774044.892059,4.2482312,6.8974013,5.5339766,10.6371441,3.330372,3.740114-2.2036046,5.6786624-6.4521143,7.3944746-10.4396513,11.6502232-27.0794464,23.3004463-54.1588928,34.9506695-81.2383392,1.5023565-3.4913918,3.0370097-7.2358677,2.3732555-10.9782091-.5475601-3.0862901-2.5176629-5.7018641-4.4283692-8.1867662-4.896858-6.3690522-9.7937159-12.7381973-14.6905739-19.1072495-1.9385484-2.5212823-3.923129-5.1342578-4.7197826-8.213309-1.8706139-7.2295569,3.166568-14.1783732,6.8372625-20.6814384,8.7401732-15.4834224,10.5035023-34.7373994,4.7216387-51.5509289-5.7822348-16.8134366-19.0149995-30.9102326-35.4295526-37.7429476-13.6400009-5.6776416-28.750804-6.3927644-43.5041153-7.1765178-31.3534779-1.6656964-64.3659702-4.5501782-90.1978148-22.397529l-4.1707376-8.015352Z"/><path d="M368.1314226,517.8260889c-2.9854091,1.4280182-4.6923118,3.90415-5.5576424,5.457411-4.2379297,2.6846687-8.4758594,5.369291-12.7137891,8.0539597,2.6527896,1.7849996,5.3052079,3.5699992,7.9579974,5.3549987-.0248722,3.6939426-.0493732,7.3878389-.0742454,11.0817815,3.0811857.3234317,6.1623715.6469098,9.2435572.9703415,1.2406413,4.7670677,2.4816538,9.5341817,3.7222951,14.3012494-1.0112229.5631053-2.3817937,1.3860231-3.9168182,2.5039275-4.3526389,3.1697698-6.9426911,6.4644112-8.3299671,8.2555824-2.7823478,3.5928296-4.6878571,7.1624576-5.999774,10.2636896-2.3895895,1.8499643-5.137042,3.5943145-8.2802227,5.0574601-17.8890674,8.3270901-36.4396618,1.8876439-42.7742827-.6519214.7910852,3.5609041,2.4244848,8.7929802,6.0331844,14.2376767,2.258175,3.4070768,4.6900844,5.9929063,6.7567062,7.8741929,4.460666,1.2560008,10.4804863,2.4516308,17.6381179,2.4886607,10.0082853.0517862,18.0776509-2.1831872,23.2874534-4.0956569-.183015,4.0245669-.7168397,9.6634616-2.279335,16.2245775-2.2206811,9.324624-3.8722709,18.5823342-10.8984881,25.8206614-6.7270081,6.9302085-14.9675094,12.2112403-21.9881582,18.8440494-2.4597514,2.3239751-4.9039113,5.1184342-5.0691074,8.498365-.1577716,3.2279597,1.7974821,6.1266873,3.5745467,8.825973,10.3483294,15.7166923,17.3166351,33.6467803,20.2972183,52.2266552.483709,3.0154785.8638457,6.0947153.415032,9.1156695-.8289503,5.5755541-4.3541238,10.3217866-7.766073,14.8086242-3.5949642,4.727764-7.1902996,9.4556208-10.7852638,14.1833848-.906908,1.1924746-1.8520525,2.4846236-1.9281541,3.9809477-.1919245,3.7746382,4.8059073,5.4229797,8.5686662,5.06688,9.9102813-.9378127,18.5754665-7.0984209,25.6425187-14.1093249,1.9571098-1.9414254,3.9064238-4.0949144,4.542336-6.7771237.5590682-2.3594273.0285845-4.8246543-.5015279-7.1908564-3.6903696-16.4738566-7.3811104-32.9477131-11.0718512-49.4215697-.7294614-3.257101-1.42477-6.8289563.0946629-9.8009549,2.7879163-5.4529563,10.7559368-6.4123466,13.6069617-6.8149425,12.0414966-1.7004062,32.7051162-7.0223193,62.9957706-16.0182216-3.2823909-27.8263091-9.011169-49.4143308-13.6849194-63.9621214-5.7176413-17.7978848-12.4387097-33.0962504-14.8602247-38.5722692-3.6135255-8.1720563-6.9464033-15.0112678-9.5501909-20.1515116,1.5650939-2.6493093,3.8370043-7.2333156,4.676349-13.3203743.7008769-5.0836317,1.6671813-11.4446097-2.2800775-16.6530201-4.1759348-5.5102181-12.4335125-8.974928-18.7432612-5.9568508Z"/><path class="cls-5" d="M28.8460262,766.6246308c4.4556412-16.0616903,24.8573636-23.517677,40.779906-18.5878416,15.9225424,4.9298354,27.5019366,18.7968066,35.4912722,33.4255847,12.5413254,22.963646,18.4885919,49.4809315,16.9557325,75.6011193,16.3520905-14.4722503,47.446452-.6266878,47.6314458,21.209124,17.7946981.0737499,33.5265477,17.4899903,31.7961318,35.2005064-.5444008-15.2012181,12.9189786-29.492396,28.125621-29.8549303,15.2066424-.3625343,29.3357573,13.2708241,29.5163733,28.4807151,5.0471857-9.3550661,17.5150781-13.8939169,27.3952722-9.9730612,9.8801941,3.9208557,15.8431639,15.773809,13.1022288,26.0440874,7.3365958-16.5587826,36.3316912-15.3207732,42.2301316,1.8031084,12.3773854-18.7734439,45.6670447-16.7000842,55.6193011,3.4641033,8.0689625-26.3816684,47.7911593-35.6693271,66.7209857-15.6003896,8.8706888-15.6050578,31.2269847-21.6392522,46.7448599-12.6169188-5.1370723-16.1390051,4.4111875-35.4904881,20.3448393-41.2329387,15.9336518-5.7424506,35.6316733,3.0687415,41.9713215,18.7743412,7.9122668-6.2288179,21.3665813-2.8455719,25.39141,6.3849694,4.0569796-15.4171515,21.7259739-25.784331,37.1634647-21.8054464-2.8127388-15.0076082,5.3341805-31.4013335,18.9947838-38.2224565,13.6606033-6.821123,31.660156-3.4830658,41.9664906,7.7827795-2.0542687-16.6074106,14.4491977-31.5791254,31.1830621-31.6416148s31.8125271,11.5957495,40.1983092,26.0769366c8.3857821,14.4811871,11.2069894,31.4530702,13.1397813,48.0750567,3.489795,30.0123663,4.5660078,60.3050387,3.2148217,90.4893838-.7618365,17.0187776-2.4276861,34.4921841-10.1321351,49.6862819-12.4298878,24.5132272-38.2156691,38.9232805-63.0789446,50.6372873-194.8201864,91.7869489-425.6103491,104.3177239-629.2231325,34.1637284-35.6337-12.2774527-71.0076772-27.304968-100.0410203-51.3374747-66.5990155-55.1276973-88.3953576-157.6964024-49.9689122-235.1425133l96.7665981-51.2835273Z"/></g><rect x="298.4310279" y="18.2298349" width="131.3479662" height="70.0058343" rx="22.2156315" ry="22.2156315"/><path class="cls-1" d="M356.8195147,72.7856402h-9.1699219l-7.2724609-12.2001953-7.2988281,12.2001953h-9.1171875l11.59375-18.8925781-11.59375-18.8925781h9.1171875l7.2988281,12.1992188,7.2724609-12.1992188h9.1699219l-11.59375,18.8925781,11.59375,18.8925781Z"/><path class="cls-1" d="M367.8859209,72.7856402h-7.5625v-37.7851562h7.5625v37.7851562Z"/><path class="cls-1" d="M404.2482256,72.7856402h-9.1689453l-7.2734375-12.2001953-7.2988281,12.2001953h-9.1171875l11.59375-18.8925781-11.59375-18.8925781h9.1171875l7.2988281,12.1992188,7.2734375-12.1992188h9.1689453l-11.59375,18.8925781,11.59375,18.8925781Z"/></g></svg>