<?xml version="1.0" encoding="UTF-8"?><svg id="Layer_2" xmlns="http://www.w3.org/2000/svg" width="828.8208384" height="1103.8847839" xmlns:xlink="http://www.w3.org/1999/xlink" viewBox="0 0 828.8208384 1103.8847839"><defs><style>.cls-1{fill:#eeeacf;}.cls-2{fill:#dc1a35;}.cls-3{fill:none;}.cls-4{fill:#023866;}.cls-5{fill:#022966;}.cls-6{fill:#f7dd43;}.cls-7{clip-path:url(#clippath);}</style><clipPath id="clippath"><rect class="cls-3" x="58.9848828" y="42.3452702" width="663.1586914" height="939.4525146" rx="37.1210938" ry="37.1210938"/></clipPath></defs><g id="Graphic"><path class="cls-5" d="M754.6692395,30.1183245v1043.648135c0,16.6338913-13.9384231,30.1183245-31.1323393,30.1183245H57.5915568c-17.1939162,0-31.1323393-13.4844332-31.1323393-30.1183245V30.1183245C26.4592175,13.4844332,40.3976406,0,57.5915568,0h665.9453435c17.1939162,0,31.1323393,13.4844332,31.1323393,30.1183245Z"/><g class="cls-7"><rect x="58.9863197" y="42.3493851" width="663.159668" height="939.4500122"/><path class="cls-1" d="M722.1459876,331.0093583v650.7900391H58.9863197V164.6194047c13.2397461-5.7000122,27.4296875-9.4000244,42.3999023-10.5900269,4.6098633-.3699951,9.5600586-.4199829,13.4301758,2.0800171,12.0498047,7.7699585,1.2597656,26.5100098,3.6298828,40.6499634,2.449707,14.6000366,20.1899414,22.2300415,34.75,19.5400391,14.5600586-2.6900024,26.6098633-12.4700317,38.5097656-21.2900391,41.8901367-31.0299683,93.4501953-54.2699585,145.0302734-46.7199707,12.2597656,1.7999878,24.7900391,5.6099854,33.7099609,14.2199707,11.9599609,11.5300293,15.2299805,29.7800293,12.8798828,46.2300415-2.3398438,16.4500122-9.5,31.75-15.7998047,47.1199951-10.6601562,25.9599609-19.2001953,54.0800171-14.6904297,81.7799683,4.5205078,27.6900024,25.5400391,54.4000244,53.4599609,57.1199951,18.4301758,1.8000488,36.0703125-6.6499634,53.6401367-12.4899902,23.7001953-7.8800049,48.8901367-11.2299805,73.8100586-9.7999878,11.8300781.6799927,24.1601562,2.6400146,33.6499023,9.7399902,13.4702148,10.0700073,18.1499023,27.9400024,28.2299805,41.4000244,8.8603516,11.8300171,22.8203125,20.3800049,37.6103516,20.3999634,14.7797852.0200195,29.7197266-9.7099609,33.5595703-23.9799805,7.8203125-29.0999756-29.2895508-59.5-15.3095703-86.1799927,10.4897461-20.039978,40.2797852-17.789978,60.6499023-7.960022,3.3300781,1.6100464,6.659668,3.3500366,10.0097656,5.1199951Z"/><path d="M396.1554091,783.6214397c-43.6378174,14.4399414-53.2657471-2.1090088-98.845459,17.340332-20.0910645,8.572998-54.3917236,24.9025879-76.3659668,63.1063232-16.7741699,29.1629639-20.7058105,66.451416-6.2919922,96.8504639,16.0795898,33.9124756,51.2199707,54.3887939,85.9797363,68.5439453,25.1542969,10.2435303,51.5415039,18.3594971,78.6726074,19.6169434,20.6555176.9572754,41.2746582-2.0759277,61.6640625-5.5178223,33.0825195-5.5847168,66.1296387-12.310791,97.6433105-23.822876,36.9853516-13.5108643,73.2775879-35.3135986,91.7614746-70.0812988,12.2805176-23.0998535,15.6262207-50.053833,14.453125-76.1888428-1.1733398-26.1350098-6.6142578-51.8586426-10.9716797-77.6546631-2.6137695-15.4743652-4.9458008-31.0289307-6.685791-46.6278076-1.5722656-14.0949707,1.2397461-28.0256348.8586426-42.28125-1.0927734-40.8572388-18.3447266-81.0643921-47.2019043-110.0088501l-21.6123047-4.4735107c-6.0882568,19.041748-16.7525635,46.5874023-35.6965332,76.4832764-18.425415,29.0775757-58.1865234,91.8255005-127.3613281,114.7156372Z"/><path class="cls-2" d="M417.9711271,452.9708421c27.8664826,3.2682838,54.94612,13.0660187,78.4525937,28.3850782,13.0566551,8.5089989,25.1394919,18.8319215,34.0359956,31.6278929,8.6217371,12.4015001,13.9978129,26.718276,19.2147819,40.8927246,6.4538679,17.5345709,12.8214405,35.1943898,16.4278639,53.5276414,6.0688352,30.849962,4.1511624,62.6419807,2.209219,94.023198-.6475142,10.4580586-1.3234939,21.0660852-4.73815,30.9720638-3.5593805,10.3260688-9.9281517,19.4098452-16.2172196,28.3397582-6.2087653,8.8160513-12.4178303,17.6318029-18.6271949,26.4472549-4.9757617,7.0640774-10.0315262,14.2154988-16.6666741,19.7505317-6.2369312,5.2027362-13.6610216,8.7934287-21.2412227,11.7103888-25.6821334,9.8826069-54.9742859,12.3360296-80.6723,2.4944728-14.5871977-5.5864206-27.4445946-14.823461-40.0383114-24.0645464-9.3219873-6.840249-18.6466713-13.7781795-26.708388-22.0662714-16.1941476-16.6483963-26.573252-37.9529921-36.6805862-58.8637158-42.607993-72.6753048-38.529043-157.9305431,7.5526345-211.0115766,35.9872276-41.4533442,86.0684515-50.0117831,103.6969584-52.1648952Z"/><path d="M330.2714552,595.0368377c27.0026309-37.957187,67.6177424-66.0121409,112.6755624-77.8306984,11.9743685-3.1407885,24.6621712-5.1603377,36.6787884-2.1849485,4.3971638,1.0887288,8.6145458,2.8285674,12.6419583,4.9026504,16.6636778,8.5815858,30.8190994,23.1964998,52.1232457,53.7209069,6.7061617,9.6085895,15.2655744,22.433326,24.6103341,38.0503739,3.069475-13.0304369,6.3900453-32.0152478,6.2995552-55.052491-.1156596-29.4902121-.4425629-49.0707002-12.9799482-68.46017-11.7262696-18.1350422-31.4537293-29.3134266-50.8722639-38.7635834-7.458249-3.6297201-15.0330566-7.1273007-23.03155-9.3241597-26.9648767-7.4064119-56.3448226.878384-79.7976614,16.1074777-23.4531384,15.2290188-41.975161,36.8104037-59.7190279,58.4233253-12.1658361,14.8186668-24.2525683,29.9918034-32.3142849,47.3874928l13.6852922,33.0238239Z"/><path class="cls-1" d="M571.894633,605.8843294c-4.7986766,10.3829997-14.0649315,26.3134672-31.1612842,39.5561965-6.7256381,5.2283551-17.0966523,13.0831729-33.0636755,16.6913941-14.617461,3.3138285-26.9642775,1.4851477-33.9353177-.0981309,1.8163957-5.9769966,5.6457486-15.635925,14.0160908-24.6076374.3802386-.4049586.8099171-.8344873,1.2884364-1.3131564,2.8965848-2.8105892,7.7566869-6.7135028,15.415093-11.2913474,11.2052019-6.713353,23.3189013-12.7270551,35.8619796-16.2495803,10.3215742-2.9085703,20.9379907-4.1358809,31.5786776-2.6877383Z"/><path d="M530.6571768,649.0856024c-8.9717124,6.1856933-20.8151398,6.8362039-30.2165307,1.3010211-4.63927-2.7245936-8.1737807-7.1061763-10.4567102-11.9785634-.3436829-.7365062-.6627957-1.5095681-.9450531-2.2950648,2.8965848-2.8105892,7.7566869-6.7135028,15.415093-11.2913474,11.2052019-6.713353,23.3189013-12.7270551,35.8619796-16.2495803.6627957.9573382,1.2395957,1.9761019,1.7184146,3.0191361,5.7314446,12.4940878-.3313978,29.8851328-11.3771932,37.4943986Z"/><path class="cls-1" d="M440.4203794,665.0950998c-5.8991521,4.2795374-15.5907998,10.2050508-28.6795234,13.5495646-23.7547762,6.0836814-42.8744585-.6452097-54.8306091-4.2663568-17.645055-5.3328656-34.1440349-16.1173836-43.5987522-31.9582946-.9480436-1.5932533-1.8170031-3.673709-.7766949-5.2144003.8557789-1.2772388,2.6203808-1.5273499,4.1609114-1.6459759,16.9075806-1.3299614,33.9730077-2.6467422,50.8539055-1.5932533,5.0697345.3028339,10.139469.8295783,15.16934,1.6327953,16.2491902,2.5808388,32.4324771,8.3747063,45.5343813,18.1452774,4.4505646,3.3051325,8.5458942,7.0842869,12.1670413,11.3506437Z"/><path d="M428.2533381,653.7444562c-.473861.8557789-.9875856,1.6723373-1.5405306,2.4755542-3.6211471,5.188039-8.9146314,9.1911039-14.9060481,11.258379-4.7929405,1.6591566-9.9549396,2.0806165-15.0375333,1.9883518-3.8580776-.0659033-7.7955607-.4476604-11.3903464-1.8829065-4.595552-1.8435252-8.3613649-5.3198457-11.4295669-9.2042846-3.4633005-4.3981634-6.1888052-9.5071185-7.0185443-15.0376941-.4606804-3.120764-.2764725-6.3731738.6188484-9.3754725,5.0697345.3028339,10.139469.8295783,15.16934,1.6327953,16.2491902,2.5808388,32.4324771,8.3747063,45.5343813,18.1452774Z"/><path class="cls-5" d="M2.8078529,605.7947587c25.1308594-133.335083,112.333252-241.9373169,230.3395996-280.0342407,20.9985352-6.7791138,128.0058594-39.9147949,228.6044922,14.7264404,58.7744141,31.9239502,59.456543,64.7492676,170.8491211,267.9030151,46.121582,84.1152954,114.7705078,225.4873047,119.7358398,302.8551025.9077148,14.1413574-.184082,31.6624756-9.3911133,48.5217285-11.4262695,20.9229736-38.5097656,47.1011963-59.2685547,43.2539062-60.4150391-11.1967773-76.4443359-278.2668457-111.7827148-397.1363525-.8569336-2.8822632-7.9770508-26.3813477-23.0415039-54.9238892-15.5766602-29.5135498-26.7978516-51.104126-47.1186523-61.086853-28.0820312-13.7955322-62.1494141-3.333313-89.1376953,12.4957275-62.8994141,36.8922729-106.9443359,101.3197021-127.9101562,171.1610107-20.9663086,69.8414307-20.3300781,144.7902832-8.0458984,216.6687012,4.6879883,27.4315186,9.6928711,59.6474609-9.6914062,79.6157227-14.9091797,15.3591309-38.6064453,16.9849854-60.0019531,17.6451416-18.0498047.5568848-47.359375,5.4106445-89.0483398,2.7479248-33.300293-2.1269531-49.9506836-3.1904297-55.8227539-6.5715332-37.2888184-21.4707031-30.2167969-95.4327393-13.8769531-335.5806885,1.690918-24.8550415,3.0180664-44.680603,3.703125-54.940979-16.3647461,4.2266846-32.7297363,8.4534302-49.0944824,12.6801147Z"/><path class="cls-6" d="M206.2156408,476.8918379c-43.0411443,0-78.0578234-35.0166791-78.0578234-78.0580311s35.0166791-78.0580311,78.0578234-78.0580311c43.0415598,0,78.0582389,35.0166791,78.0582389,78.0580311s-35.0166791,78.0580311-78.0582389,78.0580311ZM206.2156408,332.2616119c-36.7078987,0-66.5719871,29.8640884-66.5719871,66.5721948s29.8640884,66.5721948,66.5719871,66.5721948c36.7083141,0,66.5724025-29.8640884,66.5724025-66.5721948s-29.8640884-66.5721948-66.5724025-66.5721948Z"/><rect class="cls-6" x="76.1352365" y="474.2529427" width="260.1607621" height="450.2388168"/><rect class="cls-6" x="56.4750547" y="448.5542376" width="299.4811257" height="52.0316839"/><rect class="cls-6" x="56.4750547" y="887.5418589" width="299.4811257" height="52.0316839"/><path class="cls-6" d="M315.6552083,939.5786768c0,4.9442791-.8467094,9.5911627-2.3470604,13.6430048-.8672093,2.3491117-1.9545395,4.5033824-3.220991,6.3908111-3.4412799,5.1289774-8.1970683,8.2986504-13.4485488,8.2986504H115.7924589c-7.1853521,0-13.4347703-5.929128-16.6695398-14.6894615-1.500351-4.0518421-2.3468924-8.6987257-2.3468924-13.6430048,0-7.8268246,2.1266035-14.9149812,5.5678834-20.0439586s8.1972363-8.2987756,13.4485488-8.2987756h180.8461492c10.502793,0,19.0166002,12.6890851,19.0166002,28.3427343Z"/><path d="M315.6552083,939.5786768c0,4.9442791-.8467094,9.5911627-2.3470604,13.6430048H99.1229191c-1.500351-4.0518421-2.3468924-8.6987257-2.3468924-13.6430048h218.8791816Z"/><path class="cls-6" d="M315.6552083,448.5491036c0-4.9442791-.8467094-9.5911627-2.3470604-13.6430048-.8672093-2.3491117-1.9545395-4.5033824-3.220991-6.3908111-3.4412799-5.1289774-8.1970683-8.2986504-13.4485488-8.2986504H115.7924589c-7.1853521,0-13.4347703,5.929128-16.6695398,14.6894615-1.500351,4.0518421-2.3468924,8.6987257-2.3468924,13.6430048,0,7.8268246,2.1266035,14.9149812,5.5678834,20.0439586s8.1972363,8.2987756,13.4485488,8.2987756h180.8461492c10.502793,0,19.0166002-12.6890851,19.0166002-28.3427343Z"/><path d="M315.6552083,448.5491036c0-4.9442791-.8467094-9.5911627-2.3470604-13.6430048H99.1229191c-1.500351,4.0518421-2.3468924,8.6987257-2.3468924,13.6430048h218.8791816Z"/><rect class="cls-2" x="76.1352365" y="500.5859215" width="260.1607621" height="16.92212"/><rect class="cls-2" x="76.1352365" y="870.6197389" width="260.1607621" height="16.92212"/><rect x="56.4750547" y="887.5418589" width="299.4811257" height="11.2300737"/><rect class="cls-2" x="56.8590224" y="481.2660931" width="298.1347656" height="3"/><rect class="cls-2" x="56.8590224" y="490.9614056" width="298.1347656" height="3"/><rect class="cls-2" x="56.8590224" y="908.9282024" width="298.1347656" height="3"/><rect class="cls-2" x="56.8590224" y="915.9301556" width="298.1347656" height="3"/><ellipse class="cls-1" cx="205.0161433" cy="691.5764757" rx="64.0639017" ry="110.4498971"/><rect class="cls-1" x="210.5280852" y="551.0001331" width="3.0002533" height="300.6578965" transform="translate(-332.8835798 211.5438404) rotate(-31.2284222)"/><rect class="cls-1" x="45.593189" y="699.8289547" width="300.6576433" height="3.0002533" transform="translate(-505.3518594 505.2095418) rotate(-58.7675815)"/><rect class="cls-1" x="96.4371474" y="685.9452923" width="211.7485352" height="3"/><polygon class="cls-5" points="205.0161433 553.2767241 230.6635405 643.1456441 321.3160068 620.4224816 256.3109376 687.5682391 321.3160068 754.7139966 230.6635405 731.990834 205.0161433 821.859754 179.3687462 731.990834 88.7162799 754.7139966 153.721349 687.5682391 88.7162799 620.4224816 179.3687462 643.1456441 205.0161433 553.2767241"/><path class="cls-2" d="M25.179585,302.1478215c14.1794434-13.4557495,33.241333-25.3743286,160.697998-43.925293,5.9783936-.8701172,16.3625488-2.2488403,27.0739746,2.6936646,11.8017578,5.4455566,17.7109375,17.1478271,29.0476074,40.3300171,0,.000061,10.7281494,21.9381714,17.366333,63.8961182.3415527,2.1594238,1.0142822,6.8302612-1.6555176,10.4650269-3.3570557,4.5703735-9.9536133,4.8082886-11.4575195,4.7498779-6.0336914-.2341919-12.4609375-2.3511963-15.7940674-7.3861084-6.5195312,5.3008423-13.2355957,10.7111206-21.2218018,13.3236694-7.9858398,2.6124878-17.644043,1.8485718-23.5977783-4.0805054-8.9207764,11.4099121-25.7319336,15.8475952-39.1217041,10.3269653-10.2839355,11.2234497-30.7160645,10.4658203-40.1402588-1.4883423-.9693604-1.2293091-1.9536133-2.6341553-3.4676514-3.0321045-1.9552002-.513916-3.8079834.7036743-4.4594727,1.119751-5.6844482,3.630249-48.6557617,44.7236328-50.4715576,46.4616089-4.0321045-9.4779663-10.9294434-22.4041138-23.0134277-34.612915-8.2130127-8.2979126-11.6032715-8.8653564-16.3220215-15.9441528-12.4112549-18.6185303-8.1588135-40.4285278-6.9935303-45.564209,1.6431885-7.2419434,6.1026611-20.7948608,23.5303955-37.3330688Z"/><path d="M229.363417,373.6391399c-.3886719-29.0805664-8.0898438-57.8740234-22.2705078-83.2675781l2.6191406-1.4628906c14.4228516,25.8271484,22.2553711,55.112793,22.6513672,84.6904297l-3,.0400391Z"/><path d="M183.5792373,383.5644329c-.3886719-29.081543-8.0898438-57.875-22.2705078-83.2675781l2.6191406-1.4628906c14.4228516,25.8266602,22.2553711,55.1118164,22.6513672,84.6904297l-3,.0400391Z"/><path d="M148.5606826,393.2060345l-2.9980469-.0986328c.6259766-18.9575195-4.6040039-38.2324219-14.7260742-54.2739258l2.5371094-1.6005859c10.4389648,16.543457,15.8325195,36.421875,15.1870117,55.9731445Z"/><path d="M102.8155654,389.6034954c-1.2509766-7.2397461.0639648-14.7421875,3.7036133-21.1245117l2.6064453,1.4863281c-3.2480469,5.6953125-4.4702148,12.6669922-3.3540039,19.1274414l-2.9560547.5107422Z"/><path class="cls-1" d="M458.5431103,687.1578923c9.7861328-5.4133301,20.677002-8.1856689,31.5803223-9.9456787,9.2294922-1.4898682,18.6552734-2.2866211,27.888916-.8254395,8.8474121,1.4000244,17.2822266,4.8306885,25.6347656,8.2380371,13.7224121,5.5977783,27.4445801,11.1955566,41.1669922,16.793335-16.1320801,2.5894775-32.263916,5.1789551-48.3959961,7.7684326,18.7880859,6.6015625,26.5285645,29.6943359,33.4350586,49.4359131,9.4511719,27.0141602,21.8271484,52.7420654,34.1730957,78.3979492-5.309082-3.0767822-10.6181641-6.1534424-15.9272461-9.2302246,3.5133057,27.8757324,10.7513428,114.791748-44.7947998,190.7901611-17.1278076,23.4343262-36.2980957,40.4576416-53.1520996,52.6304932-31.4099121-25.418457-62.8197021-50.8370361-94.2296143-76.2554932-9.8757324-8.9835205-95.5678711-89.12854-74.9404297-177.895874,2.6494141-11.4014893,7.4416504-24.6175537,16.1462402-38.652832-9.6477051,2.0843506-19.295166,4.1687012-28.942627,6.2530518,16.9116211-30.619873,44.9501953-54.0634766,76.8967285-64.2950439-3.0112305-3.8424072-6.0224609-7.6848145-9.0336914-11.5272217,24.3876953-2.1650391,48.6945801-5.3619385,72.8439941-9.5806885l9.6503906-12.098877Z"/><path class="cls-2" d="M454.2084055,621.3167123c-.2850062,14.0932211,4.9385019,28.2260287,14.3206739,38.7462454,7.2340669,8.1115436,16.7079354,14.0314251,23.651179,22.3932562,9.2185752,11.1020544,13.2848904,25.8821502,13.1609084,40.3120616-.1239819,14.4299115-4.1694088,28.5854801-9.6995486,41.9142186-14.4652689-11.1699542-27.6543701-23.9912357-39.2288905-38.1348683-5.0998602-6.2318355-9.9812526-12.9033871-12.2379208-20.6333157-2.2566682-7.7299286-1.4605559-16.7759475,3.8547832-22.8250398l6.1788154-61.7725581Z"/><path class="cls-1" d="M468.9209968,649.6434697c6.8508861,1.780739,14.1218624-4.3093704,15.2676719-5.5279915,3.8922765-4.1403754,6.2537108-9.4424411,8.8272876-14.5089926,4.8187522-9.4864877,10.7039103-18.5931862,18.6277942-25.6941189,12.8418158-11.5081343,29.9028114-16.8525985,46.3962957-21.8846918-9.8643291-2.6236161-20.4352008-1.4063433-30.1598994,1.6947433s-18.7578364,8.0080818-27.7241553,12.8860122c-.497696-3.0384627.4015127-6.2775319,2.3940946-8.6247334-14.0733213,4.6588962-25.240769,17.1986785-28.2446237,31.7154616-2.1612772-2.8454968-5.631366-4.3012802-8.9393516-3.7063522-4.1559565.7474429-7.4028163,4.6141006-7.4966025,9.2860309-1.5017775,12.4785067,3.9704816,22.523966,11.0514884,24.3646323Z"/><path d="M380.7135146,573.8437298l-.3525391-2.9794922c37.2880859-4.4116211,74.6972656-11.137207,111.1875-19.9907227l.7070312,2.9150391c-36.6064453,8.8818359-74.1347656,15.6293945-111.5419922,20.0551758Z"/><path d="M382.0157607,590.894511l-.3525391-2.9794922c37.2885742-4.4116211,74.6977539-11.1376953,111.1870117-19.9907227l.7070312,2.9150391c-36.6054688,8.8818359-74.1337891,15.6293945-111.5415039,20.0551758Z"/><path class="cls-1" d="M428.253449,653.744443c6.4020308-3.2402678,12.312658-11.7797547,9.5637938-17.4702989-2.1672699-4.4866053-9.5464149-6.8483392-17.7801229-4.8356817-1.1838633-10.4896702-9.7363844-19.7219164-20.1050015-21.7028125,1.635715,4.3844293,2.0321339,9.2235567,1.1320262,13.8157838-12.5319918-2.4264554-23.5481231-9.5467146-34.8659883-15.4495512-11.3178652-5.9028366-24.1111399-10.7897561-36.6167637-8.2319102,8.3922156,4.5481805,16.806904,9.1105938,24.6040417,14.6170115,16.8173912,11.8765372,19.1629448,17.4881273,34.0893308,27.0390367,12.2593227,7.8443305,28.3186339,18.1200604,39.9786838,12.2184223Z"/><path d="M441.665663,704.9208782c-.5927734-4.9462891-.9375-10.5507812,2.4980469-14.456543,1.1992188-1.3647461,2.8603516-2.4814453,5.0751953-3.4135742,6.1083984-2.5678711,12.9394531-2.5234375,18.9648438-2.4936523l-.0175781,3c-5.7460938-.0336914-12.2431641-.0708008-17.7841797,2.2592773-1.7880859.7524414-3.0917969,1.6123047-3.9853516,2.6289062-2.6191406,2.9770508-2.3115234,7.6191406-1.7724609,12.1191406l-2.9785156.3564453Z"/><path class="cls-6" d="M602.7944531,983.6975652c61.7023926-342.1812744,74.5748291-413.6060181,74.6219482-413.9019165.0001221-.0006714.0001221-.0009766.0001221-.0009155,14.9111328-65.5872803,10.8452148-121.4835815,13.7050781-196.1330566.9106445-23.7706299-9.2319336-46.6663208-27.5800781-61.8060913-57.7036133-47.6134644-166.2612305-47.2521973-205.4750977,18.1118164-22.0380859,44.248291,20.4643555,95.6115723,67.8125,89.4678955,3.8701172-.3424683,8.4311523-.7433472,10.9741211,2.1958008,8.8618164,21.5772705-19.4716797,36.7614136-39.8422852,38.7863159-61.550293,11.298584-90.1958008-48.2235107-93.03125-100.6358643,2.1943359-136.8443298,173.6274414-170.1961975,279.1503906-122.6384888,32.7021484,11.6049194,54.7045898,18.9017944,71.6411133,40.3678589,32.3735352,41.0315552,21.3873291,97.9891357,14.9931641,133.857605-35.4227295,198.7074585,39.9086914-79.4985352-47.1772461,389.8423462-9.6335449,51.9190674-22.6816406,120.677002-38.909668,201.8098145-26.9609375-6.44104-53.921875-12.8820801-80.8828125-19.3231201Z"/><path class="cls-2" d="M722.8570752,491.181574c-17.4494629.5397339-33.7734375,9.4683838-48.7241211,19.8170166-15.5209961,10.7433472-29.690918,23.4363403-42.0710449,37.6860352-2.8659668,3.2988892-5.6647949,6.7243042-7.5539551,10.664917-3.7709961,7.8660889-3.3886719,17.7797852,1.6520996,24.899292,5.0407715,7.1193848,14.8034668,10.7800293,23.0739746,8.0058594-12.6662598,5.02771-24.5925293,14.7319336-27.4152832,28.0638428-2.822998,13.3317871,7.4228516,29.2628174,21.0209961,28.3699951-12.9951172,2.0429688-23.6756592,10.6641235-27.3513184,22.3026123-3.3826904,10.7105713-1.1029053,24.8314209,7.902832,31.9371338,2.3812256,1.8787842,4.7896729,2.9176636,6.6118164,3.5197754-.4737549.3914795-1.1064453.9845581-1.706543,1.8122559-3.8120117,5.2573853-1.5006104,13.3479614.6335449,17.4941406,4.5494385,8.8381958,15.6384277,14.0216675,24.4611816,12.1303101,4.9786377-1.0672607,4.7553711-3.4268799,13.7897949-9.5327759,5.4139404-3.6589966,14.5671387-9.3944092,26.3300781-11.5471191,5.6130371-1.0272217,11.4104004-1.7650146,16.9985352-.6098633,5.5881348,1.1552734,10.9943848,4.5067139,13.3007812,9.7260742,3.3459473,7.5715332.2888184,18.371582,7.0876465,23.0939941,2.0986328,1.4576416,4.7089844,1.9047852,7.1967773,2.487915,11.3444824,2.6593018,22.1911621,8.8880615,33.8066406,7.9669189,16.3964844-1.3001709,28.1921387-16.2437744,35.5187988-30.9697266,9.6975098-19.4912109,15.3063965-35.3024902,17.9372559-49.1569824,1.8151855-9.5583496,5.5744629-33.3909912,1.9287109-59.0701904-8.2441406-58.0687256-55.0693359-130.6182251-104.4291992-129.0914307Z"/><path d="M643.3141005,595.5102337l-1.7402344-2.4433594c21.3740234-15.2202148,43.8544922-29.3637695,66.8164062-42.0380859,10.1933594-5.6269531,21.1103516-11.0712891,32.7675781-10.4677734l-.1542969,2.9960938c-10.8632812-.5615234-21.3496094,4.6801758-31.1640625,10.0976562-22.8623047,12.6196289-45.2441406,26.7016602-66.5253906,41.8554688Z"/><path d="M640.1773818,650.5463665l-1.546875-2.5703125c23.0332031-13.8574219,47.7080078-24.2075195,73.3388672-30.7617188,11.2724609-2.8828125,22.8642578-5.0566406,34.4521484-6.4614258l.3613281,2.9785156c-11.4599609,1.3891602-22.9228516,3.5385742-34.0693359,6.3891602-25.3496094,6.4824219-49.7539062,16.7192383-72.5361328,30.4257812Z"/><path d="M629.3726943,708.7265423l-1.7402344-2.4443359c26.6982422-19.0029297,57.6445312-33.1254883,89.4931641-40.8398438l.7070312,2.9160156c-31.4814453,7.625-62.0703125,21.5844727-88.4599609,40.3681641Z"/><path d="M690.8541396,345.9697063c-1.4609375,0-2.9277344-.1098633-4.3955078-.3574219l.5-2.9580078c5.8066406.980957,11.8125-.4926758,17.4375-2.2299805,24.3232422-7.5146484,46.7001953-20.9936523,64.7138672-38.9799805l2.1191406,2.1230469c-18.3564453,18.3291016-41.1611328,32.0654297-65.9482422,39.7231445-4.6123047,1.425293-9.4882812,2.6791992-14.4267578,2.6791992Z"/><path d="M756.7916396,399.7988079c-1.4433594,0-2.8974609-.0556641-4.3388672-.1279297l-11.6279297-.5834961c-3.5566406-.1782227-7.2333984-.362793-10.8574219-.9077148-16.0996094-2.4213867-30.7792969-12.1611328-39.2666016-26.0532227l2.5605469-1.5644531c8.0302734,13.1445312,21.9189453,22.3598633,37.1513672,24.6508789,3.4775391.5229492,7.0791016.7036133,10.5625.878418l11.6279297.5834961c6.2763672.3149414,12.2568359.3134766,16.3896484-3.1367188l1.921875,2.3027344c-3.8789062,3.2397461-8.9345703,3.9580078-14.1230469,3.9580078Z"/><path d="M676.3414443,326.6865032l-1.3828125-2.6630859c5.3691406-2.7866211,32.3691406-18.2329102,36.6806641-48.7397461,1.4726562-10.421875.0175781-21.3833008-4.2070312-31.7001953l2.7753906-1.1367188c4.4267578,10.8085938,5.9492188,22.3085938,4.4023438,33.2568359-4.5175781,31.9638672-32.6708984,48.0771484-38.2685547,50.9829102Z"/><path d="M440.9957412,448.1738079c-.6328125-2.1923828-5.8115234-21.8637695,7.2431641-37.3427734,7.4492188-8.8344727,17.1328125-11.8710938,22.2421875-12.8950195l.5898438,2.9414062c-4.7255859.9472656-13.6777344,3.7504883-20.5390625,11.887207-12.0488281,14.2875977-7.2412109,32.5419922-6.6533203,34.5761719l-2.8828125.8330078Z"/><path d="M415.0221084,408.8744915l-2.7519531-1.1962891c1.8222656-4.1914062,7.3876953-14.5263672,19.6835938-19.9487305,15.6103516-6.8842773,30.0947266-.4233398,32.8388672.9428711l-1.3359375,2.6855469c-2.5351562-1.2607422-15.9052734-7.2294922-30.2919922-.8833008-11.328125,4.9951172-16.4619141,14.53125-18.1425781,18.3999023Z"/><path d="M335.1275771,840.9335735c-.0244141-7.2617188,1.6938477-14.5263672,4.9677734-21.0078125l2.6777344,1.3525391c-3.0615234,6.0615234-4.6679688,12.8544922-4.6455078,19.6455078l-3,.0097656Z"/><path d="M386.8614638,814.3574017c-.1865234-7.3608398.8769531-14.6420898,3.1606445-21.6430664l2.8525391.9306641c-2.1777344,6.6748047-3.1918945,13.6181641-3.0141602,20.6362305l-2.9990234.0761719Z"/><path d="M410.1246474,879.9853313c-5.2431641-6.7915039-9.15625-14.7700195-11.3164062-23.0727539l2.9042969-.7548828c2.0576172,7.9145508,5.7880859,15.5200195,10.7871094,21.9946289l-2.375,1.8330078Z"/><path d="M546.650038,810.1782024c-2.9375-7.1518555-6.8212891-13.8847656-11.5449219-20.012207l2.3769531-1.8310547c4.8857422,6.3383789,8.9042969,13.3041992,11.9433594,20.7036133l-2.7753906,1.1396484Z"/><path d="M529.993788,852.0776165c-1.0810547-8.8129883-3.9628906-17.5571289-8.3310547-25.2880859l2.6113281-1.4755859c4.5605469,8.0698242,7.5683594,17.1982422,8.6982422,26.3984375l-2.9785156.3652344Z"/><rect x="498.7603896" y="909.0151165" width="3" height="19.5654297"/><circle class="cls-1" cx="416.9532719" cy="225.4314734" r="6.2608696"/><circle class="cls-1" cx="522.3445762" cy="166.5804361" r="6.2608696"/><circle class="cls-1" cx="460.9967502" cy="126.406523" r="6.2608696"/><circle cx="296.7825327" cy="206.23261" r="6.2608696"/><circle cx="280.3477501" cy="262.8129622" r="6.2608696"/></g><path class="cls-6" d="M205.8507216,1063.2797649h-10.3237305v-41.4042969h-15.5581055v-10.3598633h41.4042969v10.3598633h-15.5224609v41.4042969Z"/><path class="cls-6" d="M237.2198623,1063.2797649h-10.3603516v-51.7641602h10.3603516v20.7202148h20.684082v-20.7202148h10.3598633v51.7641602h-10.3598633v-20.684082h-20.684082v20.684082Z"/><path class="cls-6" d="M313.3502334,1063.2797649h-35.484375v-51.7641602h35.484375v10.3598633h-25.1240234v10.3603516h17.0019531v10.3598633h-17.0019531v10.3242188h25.1240234v10.3598633Z"/><path class="cls-6" d="M351.650038,1063.2797649h-10.3603516v-51.7641602h10.3603516v20.7202148h20.684082v-20.7202148h10.3598633v51.7641602h-10.3598633v-20.684082h-20.684082v20.684082Z"/><path class="cls-6" d="M427.7808974,1063.2797649h-35.4848633v-51.7641602h35.4848633v10.3598633h-25.1240234v10.3603516h17.0019531v10.3598633h-17.0019531v10.3242188h25.1240234v10.3598633Z"/><path class="cls-6" d="M445.3971084,1063.2797649h-10.3603516v-51.7641602h20.7197266c1.9013672,0,3.7304688.2470703,5.4873047.7397461,1.7568359.4936523,3.3984375,1.1914062,4.9277344,2.09375,1.5273438.9023438,2.9238281,1.9853516,4.1865234,3.2490234,1.2636719,1.2631836,2.3466797,2.6655273,3.2490234,4.2050781.9023438,1.5405273,1.6005859,3.1889648,2.09375,4.9453125.4931641,1.7573242.7402344,3.5864258.7402344,5.4873047,0,1.7807617-.2226562,3.5136719-.6679688,5.1977539-.4453125,1.6850586-1.0830078,3.2851562-1.9130859,4.8012695s-1.8476562,2.9121094-3.0498047,4.1870117c-1.2041016,1.2758789-2.5517578,2.3828125-4.0429688,3.3212891l5.7392578,13.5366211h-11.0097656l-4.5126953-10.4321289-11.5869141.0722656v10.3598633ZM445.3971084,1021.8754681v20.7202148h10.359375c1.4199219,0,2.7558594-.2705078,4.0068359-.8120117,1.2519531-.5415039,2.3466797-1.2817383,3.2851562-2.2202148s1.6787109-2.0395508,2.2207031-3.3027344c.5410156-1.2636719.8115234-2.6049805.8115234-4.0249023s-.2705078-2.7617188-.8115234-4.0253906c-.5419922-1.2631836-1.2822266-2.3642578-2.2207031-3.3027344s-2.0332031-1.6787109-3.2851562-2.2202148c-1.2509766-.5410156-2.5869141-.8120117-4.0068359-.8120117h-10.359375Z"/><path class="cls-6" d="M534.594374,1063.2797649h-10.3242188v-36.9643555c0-.7216797-.1386719-1.3955078-.4150391-2.0214844-.2763672-.6254883-.6494141-1.1728516-1.1191406-1.6420898-.46875-.4697266-1.0166016-.8359375-1.6425781-1.1010742-.6259766-.2646484-1.2988281-.3974609-2.0214844-.3974609-.7216797,0-1.3955078.1328125-2.0214844.3974609-.6259766.2651367-1.1728516.6313477-1.6416016,1.1010742-.4697266.4692383-.8369141,1.0166016-1.1015625,1.6420898-.2646484.6259766-.3964844,1.2998047-.3964844,2.0214844v36.9643555h-10.3603516v-36.9643555c0-.7216797-.1328125-1.3955078-.3974609-2.0214844-.2646484-.6254883-.6318359-1.1728516-1.1005859-1.6420898-.4697266-.4697266-1.0175781-.8359375-1.6425781-1.1010742-.6259766-.2646484-1.2998047-.3974609-2.0214844-.3974609s-1.3964844.1328125-2.0214844.3974609c-.6259766.2651367-1.1728516.6313477-1.6425781,1.1010742-.46875.4692383-.8359375,1.0166016-1.1005859,1.6420898-.265625.6259766-.3974609,1.2998047-.3974609,2.0214844v36.9643555h-10.3603516v-36.9643555c0-2.1416016.4033203-4.1567383,1.2099609-6.0463867.8056641-1.8886719,1.9130859-3.5375977,3.3203125-4.9453125,1.4082031-1.4077148,3.0566406-2.5146484,4.9453125-3.3208008,1.8896484-.8061523,3.9042969-1.2094727,6.046875-1.2094727,1.9248047,0,3.7783203.3427734,5.5585938,1.0288086,1.78125.6860352,3.3808594,1.6787109,4.8017578,2.9780273,1.4189453-1.2993164,3.0136719-2.2919922,4.7822266-2.9780273,1.7695312-.6860352,3.6162109-1.0288086,5.5410156-1.0288086,2.1416016,0,4.1572266.4033203,6.046875,1.2094727,1.8886719.8061523,3.5371094,1.9130859,4.9453125,3.3208008s2.5146484,3.0566406,3.3212891,4.9453125c.8056641,1.8896484,1.2089844,3.9047852,1.2089844,6.0463867v36.9643555Z"/><path class="cls-6" d="M554.1959365,1063.2797649h-10.3603516v-51.7641602h10.3603516v51.7641602Z"/><path class="cls-6" d="M585.5279677,1063.2797649h-10.3232422v-41.4042969h-15.5585938v-10.3598633h41.4042969v10.3598633h-15.5224609v41.4042969Z"/><rect class="cls-6" x="324.8902454" y="18.2298349" width="131.3479662" height="70.0058343" rx="22.2156315" ry="22.2156315"/><path class="cls-4" d="M384.8468154,35.0004681l-12.4106445,37.7851562h-7.5625l-12.3579102-37.7851562h8.5898438l7.5361328,25.2163086,7.5625-25.2163086h8.6425781Z"/><path class="cls-4" d="M396.0191787,72.7856243h-7.5625v-37.7851562h7.5625v37.7851562Z"/><path class="cls-4" d="M410.5904677,72.7856243h-7.5625v-37.7851562h7.5625v37.7851562Z"/><path class="cls-4" d="M425.1617568,72.7856243h-7.5625v-37.7851562h7.5625v37.7851562Z"/><circle cx="731.1243099" cy="25.5125013" r="6.2608696"/><circle cx="53.0808317" cy="25.5125013" r="6.2608696"/><circle cx="731.1243099" cy="1076.4934795" r="6.2608696"/><circle cx="53.0808317" cy="1076.4934795" r="6.2608696"/></g></svg>