<?xml version="1.0" encoding="UTF-8"?><svg id="Layer_2" xmlns="http://www.w3.org/2000/svg" width="868.7568989" height="1103.8847839" xmlns:xlink="http://www.w3.org/1999/xlink" viewBox="0 0 868.7568989 1103.8847839"><defs><style>.cls-1{fill:#eeeacf;}.cls-2{fill:#dc1a35;}.cls-3{fill:none;}.cls-4{fill:#fc59fc;}.cls-5{fill:#f7dd43;}.cls-6{clip-path:url(#clippath);}</style><clipPath id="clippath"><rect class="cls-3" x="85.9676445" y="42.3452636" width="663.1585059" height="939.4525638" rx="37.1209238" ry="37.1209238"/></clipPath></defs><g id="Graphic"><path class="cls-2" d="M781.6519084,30.1183245v1043.648135c0,16.6338913-13.9384231,30.1183245-31.1323393,30.1183245H84.5742257c-17.1939162,0-31.1323393-13.4844332-31.1323393-30.1183245V30.1183245c0-16.6338913,13.9384231-30.1183245,31.1323393-30.1183245h665.9453435c17.1939162,0,31.1323393,13.4844332,31.1323393,30.1183245Z"/><path class="cls-5" d="M226.5705305,1064.4462688h-10.3237305v-41.4042969h-15.5581055v-10.3598633h41.4042969v10.3598633h-15.5224609v41.4042969Z"/><path class="cls-5" d="M257.9396711,1064.4462688h-10.3603516v-51.7641602h10.3603516v20.7202148h20.684082v-20.7202148h10.3598633v51.7641602h-10.3598633v-20.684082h-20.684082v20.684082Z"/><path class="cls-5" d="M334.0700422,1064.4462688h-35.484375v-51.7641602h35.484375v10.3598633h-25.1240234v10.3603516h17.0019531v10.3598633h-17.0019531v10.3242188h25.1240234v10.3598633Z"/><path class="cls-5" d="M383.812718,1043.7621868c0,2.8642578-.5415039,5.5532227-1.6245117,8.0678711-1.0825195,2.5151367-2.5571289,4.7050781-4.421875,6.5698242-1.8652344,1.8652344-4.0551758,3.3388672-6.5698242,4.421875s-5.2041016,1.6245117-8.0678711,1.6245117c-1.7324219,0-3.465332-.2167969-5.1977539-.6499023v-11.1181641c.7695312.4575195,1.6000977.8066406,2.4907227,1.046875.8896484.2407227,1.7924805.3613281,2.7070312.3613281,1.4199219,0,2.7617188-.2709961,4.0249023-.8125,1.2636719-.5415039,2.3647461-1.28125,3.3032227-2.2197266.9384766-.9389648,1.6782227-2.0336914,2.2197266-3.2851562.5415039-1.2509766.8125-2.5864258.8125-4.0068359v-31.0800781h10.3237305v31.0800781Z"/><path class="cls-5" d="M433.6642805,1043.7621868c0,2.8642578-.5415039,5.5532227-1.6245117,8.0678711-1.0830078,2.5151367-2.5629883,4.7050781-4.4399414,6.5698242-1.8774414,1.8652344-4.0737305,3.3388672-6.5878906,4.421875-2.5151367,1.0830078-5.2045898,1.6245117-8.0678711,1.6245117-2.8642578,0-5.5537109-.5415039-8.0678711-1.6245117-2.5151367-1.0830078-4.7050781-2.5566406-6.5698242-4.421875-1.8652344-1.8647461-3.3393555-4.0546875-4.4223633-6.5698242-1.0825195-2.5146484-1.6240234-5.2036133-1.6240234-8.0678711v-31.0800781h10.3237305v31.0800781c0,1.4204102.2709961,2.7558594.8125,4.0068359.5410156,1.2514648,1.28125,2.3461914,2.2197266,3.2851562.9384766.9384766,2.0395508,1.6782227,3.3032227,2.2197266,1.2631836.5415039,2.6044922.8125,4.0249023.8125,1.4194336,0,2.7612305-.2709961,4.0249023-.8125,1.2631836-.5415039,2.3642578-1.28125,3.3027344-2.2197266.9384766-.9389648,1.6787109-2.0336914,2.2202148-3.2851562.5415039-1.2509766.8120117-2.5864258.8120117-4.0068359v-31.0800781h10.3603516v31.0800781Z"/><path class="cls-5" d="M439.6203352,1028.2040813c0-2.1416016.4091797-4.1513672,1.2275391-6.0283203.8178711-1.8774414,1.9311523-3.5195312,3.3388672-4.9272461,1.4082031-1.4082031,3.050293-2.5209961,4.9277344-3.3393555,1.8769531-.8178711,3.8862305-1.2270508,6.0283203-1.2270508h23.7524414v10.3598633h-23.7524414c-.722168,0-1.3959961.1328125-2.0214844.3969727-.6259766.2651367-1.1733398.6318359-1.6425781,1.1010742s-.8364258,1.0170898-1.1010742,1.6425781c-.2651367.6259766-.3969727,1.2993164-.3969727,2.0214844,0,.7216797.1318359,1.4018555.3969727,2.0395508.2646484.6376953.6318359,1.190918,1.1010742,1.6601562.4692383.4697266,1.0166016.8369141,1.6425781,1.1010742.6254883.2651367,1.2993164.3974609,2.0214844.3974609h10.3598633c2.1416016,0,4.1572266.402832,6.0463867,1.2089844,1.8891602.8066406,3.5375977,1.9130859,4.9453125,3.3212891,1.4082031,1.4077148,2.5146484,3.0561523,3.3212891,4.9453125.8061523,1.8891602,1.2089844,3.9047852,1.2089844,6.0463867,0,2.1420898-.402832,4.1513672-1.2089844,6.0283203-.8066406,1.8769531-1.9130859,3.5195312-3.3212891,4.9272461-1.4077148,1.4077148-3.0561523,2.5209961-4.9453125,3.3388672-1.8891602.8188477-3.9047852,1.2275391-6.0463867,1.2275391h-22.9941406v-10.3598633h22.9941406c.722168,0,1.3955078-.1323242,2.0214844-.3974609.6254883-.2641602,1.1733398-.6313477,1.6425781-1.1010742.4692383-.4692383.8359375-1.0161133,1.1010742-1.6420898.2646484-.6254883.3969727-1.2998047.3969727-2.0214844,0-.722168-.1323242-1.3955078-.3969727-2.0214844-.2651367-.6254883-.6318359-1.1733398-1.1010742-1.6425781s-1.0170898-.8359375-1.6425781-1.1010742c-.6259766-.2646484-1.2993164-.3969727-2.0214844-.3969727h-10.3598633c-2.1420898,0-4.1513672-.4086914-6.0283203-1.2275391-1.8774414-.8178711-3.5195312-1.9311523-4.9277344-3.3388672-1.4077148-1.4077148-2.5209961-3.0556641-3.3388672-4.9453125-.8183594-1.8891602-1.2275391-3.9042969-1.2275391-6.0463867Z"/><path class="cls-5" d="M508.8200422,1064.4462688h-10.3237305v-41.4042969h-15.5581055v-10.3598633h41.4042969v10.3598633h-15.5224609v41.4042969Z"/><path class="cls-5" d="M540.1891829,1064.4462688h-10.3603516v-51.7641602h10.3603516v51.7641602Z"/><path class="cls-5" d="M591.1232649,1059.1401165c-2.4067383,2.0698242-5.1025391,3.6582031-8.0859375,4.7646484-2.984375,1.1064453-6.0771484,1.6606445-9.2773438,1.6606445-2.4545898,0-4.8188477-.3193359-7.0932617-.956543-2.2739258-.6376953-4.4038086-1.5400391-6.3891602-2.7075195-1.9853516-1.1669922-3.7963867-2.5683594-5.4331055-4.2055664-1.6367188-1.6362305-3.0380859-3.4472656-4.2050781-5.4326172-1.1674805-1.9853516-2.0703125-4.1152344-2.7075195-6.3891602-.6376953-2.2744141-.956543-4.6386719-.956543-7.0932617s.3188477-4.824707.956543-7.1113281c.637207-2.2861328,1.5400391-4.421875,2.7075195-6.4072266,1.1669922-1.9853516,2.5683594-3.7958984,4.2050781-5.4331055,1.6367188-1.6362305,3.4477539-3.0375977,5.4331055-4.2050781,1.9853516-1.1669922,4.1152344-2.0693359,6.3891602-2.7075195,2.2744141-.637207,4.6386719-.956543,7.0932617-.956543,3.2001953,0,6.2929688.5478516,9.2773438,1.6425781,2.9833984,1.0952148,5.6791992,2.6889648,8.0859375,4.7827148l-5.4873047,9.0244141c-1.5161133-1.6362305-3.309082-2.8930664-5.378418-3.7719727-2.0698242-.878418-4.2358398-1.3178711-6.4975586-1.3178711-2.2866211,0-4.4282227.4335938-6.425293,1.2998047-1.9980469.8662109-3.7426758,2.0395508-5.234375,3.5195312-1.4921875,1.4799805-2.6713867,3.2250977-3.5375977,5.234375s-1.2993164,4.1455078-1.2993164,6.4072266c0,2.262207.4331055,4.3857422,1.2993164,6.3710938s2.0454102,3.7246094,3.5375977,5.2163086c1.4916992,1.4921875,3.2363281,2.6713867,5.234375,3.5375977,1.9970703.8662109,4.1386719,1.2993164,6.425293,1.2993164,2.2617188,0,4.4277344-.4384766,6.4975586-1.3173828,2.0693359-.878418,3.8623047-2.1352539,5.378418-3.7724609l5.4873047,9.0249023Z"/><path class="cls-5" d="M632.5993391,1064.4462688h-35.484375v-51.7641602h35.484375v10.3598633h-25.1240234v10.3603516h17.0019531v10.3598633h-17.0019531v10.3242188h25.1240234v10.3598633Z"/><g class="cls-6"><rect class="cls-4" x="72.3871009" width="686.0879499" height="1006.7050968"/><path class="cls-2" d="M252.4744091,588.9790802c-7.0986444-12.8724752-45.0955861-78.7058937-126.4714218-100.9268551-58.8817421-16.0785777-108.0128929-.4589473-126.0029873,6.2707149,6.0113233,19.6871579,16.5278522,43.3932656,35.4861161,65.611208,67.0311607,78.5566039,179.5275689,68.1145142,194.1565132,66.5288913l22.8317798-37.483959Z"/><path class="cls-2" d="M616.2824899,588.9790802c7.0986444-12.8724752,45.0955861-78.7058937,126.4714218-100.9268551,58.8817421-16.0785777,108.0128929-.4589473,126.0029873,6.2707149-6.0113233,19.6871579-16.5278522,43.3932656-35.4861161,65.611208-67.0311607,78.5566039-179.5275689,68.1145142-194.1565132,66.5288913l-22.8317798-37.483959Z"/><path class="cls-1" d="M636.5314061,559.6408097c11.53368-8.5569795,26.3782338-13.9680875,40.3403483-10.6053859,13.9620523,3.3626393,25.6285679,17.5763639,22.708797,31.6377163,1.7719092.0133147,17.5978913.4071552,27.6436255,13.9523463,9.3086985,12.5513814,6.3186834,26.5040388,5.8549719,28.5011775,9.2935173,1.9652208,31.1540328,8.051893,43.6560752,27.1069322,18.5246299,28.2343241,9.8605109,74.816952-26.7821537,107.8371544,28.1463477,8.6305213,48.8225417,37.2677698,48.1577413,66.7000411-.6648626,29.4322714-22.6131678,57.1066326-51.1205049,64.4573276-26.8562554,6.9248743-55.1948571-3.0430872-79.5814273-16.2532338-48.3565903-26.194566-90.3480203-67.673381-107.5013633-119.9255087-17.153343-52.2521277-5.4412216-115.3875073,36.1116331-151.4135905l40.5122569-41.9949764Z"/><path class="cls-1" d="M194.5302398,559.6408097c-11.53368-8.5569795-26.3782338-13.9680875-40.3403483-10.6053859-13.9620523,3.3626393-25.6285679,17.5763639-22.708797,31.6377163-1.7719092.0133147-17.5978913.4071552-27.6436255,13.9523463-9.3086985,12.5513814-6.3186834,26.5040388-5.8549719,28.5011775-9.2935173,1.9652208-31.1540483,8.051893-43.6560908,27.1069322-18.5246299,28.2343241-9.8605109,74.816952,26.7821692,107.8371544-28.1463633,8.6305213-48.8225572,37.2677698-48.1577568,66.7000411.6648626,29.4322714,22.6131678,57.1066326,51.1205204,64.4573276,26.8562554,6.9248743,55.1948571-3.0430872,79.5814273-16.2532338,48.3565903-26.194566,90.3479892-67.673381,107.5013322-119.9255087,17.153343-52.2521277,5.4412216-115.3875073-36.111602-151.4135905l-40.5122569-41.9949764Z"/><path class="cls-2" d="M533.9298424,479.52636c23.7931962-44.1599174,47.7172994-88.5249056,78.0727629-128.4594053,30.3554635-39.9344997,67.6718878-75.5837901,112.7615925-97.5641998,26.8215377-13.0750711,55.8068343-21.0624439,84.8107962-28.0712816-.607062,30.5866348-5.3613957,64.0608427-17.327367,98.5289847-57.5623179,165.808743-237.6165789,226.7472015-270.9201225,237.396389l12.602338-81.8304871Z"/><path class="cls-2" d="M477.1094753,360.2020648c-.8305494-14.676565-3.644674-90.636339,53.4673716-152.7170285,41.325012-44.9201914,91.2422188-57.8087638,110.0572206-61.6723833,5.3742127,19.8705318,9.0690344,45.5400703,4.8226492,74.4367994-15.0139737,102.1709211-115.84873,153.1300323-129.0822707,159.5638191l-39.2649707-19.6112068Z"/><circle class="cls-5" cx="667.4471639" cy="238.1891317" r="5.8695652"/><circle class="cls-5" cx="419.6990713" cy="123.9934795" r="5.8695652"/><circle class="cls-5" cx="120.4036856" cy="527.1021752" r="5.8695652"/><circle class="cls-5" cx="715.1862943" cy="527.1021752" r="5.8695652"/><circle class="cls-5" cx="673.3167291" cy="385.3195665" r="5.8695652"/><circle class="cls-5" cx="566.4906421" cy="123.9282621" r="5.8695652"/><path class="cls-2" d="M310.4875409,479.52636c-23.7931962-44.1599174-47.7172994-88.5249056-78.0727629-128.4594053s-67.6718878-75.5837901-112.7615925-97.5641998c-26.8215377-13.0750711-55.8068343-21.0624439-84.8107962-28.0712816.607062,30.5866348,5.3613957,64.0608427,17.327367,98.5289847,57.5623179,165.808743,237.6165789,226.7472015,270.9201225,237.396389l-12.602338-81.8304871Z"/><path class="cls-2" d="M367.307908,360.2020648c.8305494-14.676565,3.644674-90.636339-53.4673716-152.7170285-41.325012-44.9201914-91.2422188-57.8087638-110.0572206-61.6723833-5.3742127,19.8705318-9.0690344,45.5400703-4.8226492,74.4367994,15.0139737,102.1709211,115.84873,153.1300323,129.0822707,159.5638191l39.2649707-19.6112068Z"/><circle class="cls-5" cx="179.0993378" cy="238.1891317" r="5.8695652"/><circle class="cls-5" cx="173.2297726" cy="385.3195665" r="5.8695652"/><circle class="cls-5" cx="280.0558595" cy="123.9282621" r="5.8695652"/><rect class="cls-4" x="365.2985081" y="712.3054364" width="113.5039705" height="296.5295383"/><path class="cls-2" d="M380.6684818,712.2981325c27.9625936.0506505,55.9251873.1014148,83.8877809.1520653.2595695,10.1463725.5191959,20.2926312.7787654,30.4390038h-85.4128726c.2487565-10.197023.4975698-20.394046.7463263-30.591069Z"/><path class="cls-5" d="M342.7146294,250.879147c-8.6406211,4.9205269-17.3750267,9.9093289-24.4834084,16.6057751-9.9777924,9.3995376-11.9009655,20.4413359-13.0246885,24.752698-.9804455,3.7616798-1.4299028,7.0056609-1.6531157,9.3876175-10.1208785,3.9561192-36.5277152,15.80878-52.9751718,43.1475517-5.8869811,9.7852889-19.7750999,30.6225849-11.886893,56.0140119,5.4936861,17.6837188,20.1872221,31.4323262,34.3417604,44.363993-14.232974,4.8821701-26.84136,13.7341498-35.750411,25.0994434-6.8387712,8.7242221-11.5960621,19.7641911-8.8019598,30.2246185,1.7529313,6.5627285,6.3084531,12.2194697,11.577937,16.9051941,22.432945,19.9477136,60.169169,23.0491845,86.0556118,7.0728148,2.4573842,14.3879265,16.9051468,25.5362977,32.4967039,27.6200745,15.5915891,2.0836588,31.5856953-3.7839857,43.5081045-13.3049668,11.956298-9.5481259,20.463853-22.9507551,22.6662416-37.4156902,2.2023248-14.4649352-2.170925-29.860465-12.5281315-40.8909333,9.5845293-6.5388883,14.3221953-18.6026295,11.5082767-29.3042916-2.8138548-10.7016621-13.0125945-19.407768-24.7741117-21.148222l-56.2767444-159.1296884Z"/><path class="cls-5" d="M501.4836069,250.879147c8.6406211,4.9205269,17.3750267,9.9093289,24.4834084,16.6057751,9.9777924,9.3995376,11.9009655,20.4413359,13.0246885,24.752698.9804455,3.7616798,1.4299028,7.0056609,1.6531157,9.3876175,10.1208785,3.9561192,36.5277152,15.80878,52.9751718,43.1475517,5.8869811,9.7852889,19.7750999,30.6225849,11.886893,56.0140119-5.4936861,17.6837188-20.1872221,31.4323262-34.3417604,44.363993,14.232974,4.8821701,26.84136,13.7341498,35.750411,25.0994434,6.8387712,8.7242221,11.5960621,19.7641911,8.8019598,30.2246185-1.7529313,6.5627285-6.3084531,12.2194697-11.577937,16.9051941-22.432945,19.9477136-60.169169,23.0491845-86.0556118,7.0728148-2.4573842,14.3879265-16.9051468,25.5362977-32.4967039,27.6200745-15.5915891,2.0836588-31.5856953-3.7839857-43.5081045-13.3049668-11.956298-9.5481259-20.463853-22.9507551-22.6662416-37.4156902-2.2023248-14.4649352,2.170925-29.860465,12.5281315-40.8909333-9.5845293-6.5388883-14.3221953-18.6026295-11.5082767-29.3042916,2.8138548-10.7016621,13.0125945-19.407768,24.7741117-21.148222l56.2767444-159.1296884Z"/><rect class="cls-4" x="390.1009671" y="433.470257" width="65.0552494" height="79.8994255"/><path d="M455.1562165,433.470257v21.3058685c-8.9792489,2.787939-20.4201111,5.0443895-33.6884882,4.7460638-12.4105628-.2797728-23.0402206-2.7133861-31.3667612-5.5199918v-20.5319405h65.0552494Z"/><path class="cls-5" d="M495.0826243,220.6257838c-.2237727,1.5571324-.5314886,3.0583215-.8951476,4.5036245-3.5898101,14.0889149-13.2683771,22.7884479-16.5505282,25.5204437l-120.5064848-14.1821914c-1.0163104-2.5175565-3.4685904-9.0538587-4.2705184-17.6880583-.6993181-7.4687263-.1491628-16.5225851,3.6364769-25.9121028,6.8066847-16.8675205,20.1403383-25.0728984,25.2034514-28.1032768,31.8795262-19.0120847,81.8015502-10.3778281,102.8929794,18.9748651,3.1235981,4.3544047,13.1938241,18.3594333,10.4897714,36.8866961Z"/><path d="M494.1874767,225.1294083c-3.5898101,14.0889149-13.2683771,22.7884479-16.5505282,25.5204437l-120.5064848-14.1821914c-1.0163104-2.5175565-3.4685904-9.0538587-4.2705184-17.6880583,4.8131615-4.1035995,40.3340588-33.3830487,87.2444281-24.1475881,29.0238066,5.7140571,47.251947,23.1877899,54.0831033,30.4973941Z"/><path class="cls-4" d="M525.3304652,333.3558833c-1.1748635,28.9703675-13.1472143,59.7124205-31.8889164,80.1791414-38.406552,43.3483885-100.4966426,45.6235056-138.0453803.4568787-21.2033155-24.858459-31.7490301-58.2392313-31.5252574-91.4148976.2424394-36.6349234,13.6320361-72.9994642,40.2993434-97.3171013,24.1870841-21.9212434,59.2648751-28.1125532,89.6619357-16.364032l.1584962.0652765c38.9287072,14.8721762,63.4141738,54.2484287,69.8292564,95.5361963,1.5011892,9.6132904,2.0233444,19.3198005,1.5105225,28.858538Z"/><path class="cls-5" d="M530.6611649,304.4973452c-23.9394263,1.1841399-48.3470513-3.9161927-68.4409851-16.056373-22.9531079-13.8651422-39.6598976-37.2782983-42.1106443-62.7427989-3.511612,12.0882778-12.4550589,36.433858-35.604567,59.1381351-25.6299277,25.1369798-54.5253286,34.3862697-67.4752796,37.7406973.2590294-36.6349234,14.5648718-72.9994642,43.0570137-97.3171013,25.842198-21.9212434,63.3203504-28.1125532,95.7974715-16.364032l.169342.0652765c41.5925854,14.8721762,67.7535842,54.2484287,74.6076487,95.5361963Z"/><path class="cls-1" d="M401.0224743,319.6946397c-18.1409302-8.1604004-38.4105225-11.5322266-58.2163086-9.6842041,5.506958,3.9447632,18.1360474,11.8043823,35.739624,12.6195679,9.3591919.4334106,17.1289673-1.2631226,22.4766846-2.9353638Z"/><path d="M408.3493391,310.644511c-17.0522461-13.0859375-36.0737305-23.059082-56.5371094-29.6416016l.9189453-2.8554688c20.7915039,6.6879883,40.1186523,16.8208008,57.4443359,30.1171875l-1.8261719,2.3798828Z"/><path d="M401.4455305,320.7724407c-17.9707031-8.0844727-37.840332-11.3920898-57.4619141-9.5585938l-.2783203-2.9873047c20.1376953-1.878418,40.5288086,1.5136719,58.9707031,9.8095703l-1.2304688,2.7363281Z"/><path d="M442.5407454,310.644511l-1.8261719-2.3798828c17.3256836-13.2963867,36.652832-23.4291992,57.4443359-30.1171875l.9189453,2.8554688c-20.4633789,6.5825195-39.4848633,16.5556641-56.5371094,29.6416016Z"/><path class="cls-1" d="M449.8074685,319.6946397c18.1409302-8.1604004,38.4105225-11.5322266,58.2163086-9.6842041-5.506958,3.9447632-18.1360474,11.8043823-35.739624,12.6195679-9.3591919.4334106-17.1289673-1.2631226-22.4766846-2.9353638Z"/><path d="M449.4445539,320.7724407l-1.2304688-2.7363281c18.4428711-8.2963867,38.8369141-11.6884766,58.9707031-9.8095703l-.2783203,2.9873047c-19.621582-1.8320312-39.4912109,1.4741211-57.4619141,9.5585938Z"/><ellipse class="cls-2" cx="424.6946611" cy="303.6463782" rx="5.8377858" ry="8.4115396"/><ellipse class="cls-2" cx="359.3302652" cy="328.2548147" rx="13.622463" ry="12.1468512"/><ellipse class="cls-2" cx="490.7675324" cy="328.2548147" rx="13.622463" ry="12.1468512"/><rect x="423.6222883" y="323.0859173" width="3" height="37.9458008"/><path class="cls-2" d="M390.5763418,380.5884237c.4161307-.5569276,8.2590446-10.6978937,20.2655418-9.3728999,7.0820754.781554,11.6273584,5.1126253,13.0737427,6.6171723,1.288571-1.3824736,6.04283-6.1440171,13.5611255-6.7996278,11.8820905-1.0361153,19.2945891,9.1750215,19.6377604,9.6647946-7.3568969,13.0498971-21.3944784,20.762201-35.9349223,19.7387199-20.0174682-1.4089939-29.9103038-18.594645-30.6032479-19.848159Z"/><path d="M422.9093977,387.2436321c-11.3432617,0-22.5078125-1.9775391-33.2163086-5.8857422l1.0283203-2.8183594c10.9467773,3.9951172,22.3979492,5.9082031,33.9975586,5.6870117,10.3876953-.1992188,20.6176758-2.1123047,30.4057617-5.6870117l1.0292969,2.8183594c-10.1005859,3.6884766-20.6572266,5.6625977-31.3774414,5.8676758-.6225586.012207-1.2460938.0180664-1.8671875.0180664Z"/><rect class="cls-2" x="413.8722883" y="413.9872845" width="17.5136719" height="3"/><path d="M357.2883908,310.2577421c-.063057,1.1412293-.1149595,4.7466899,2.3475075,8.1029956,3.1448257,4.2863396,7.961971,4.856129,9.0019562,4.979113,1.495555.1768783,5.0380724.3052687,8.6425085-1.9341085,2.5444753-1.5808641,4.4186569-4.4551935,4.2088842-7.443458-2.7515731-1.0246194-6.0333259-2.0187347-9.7888029-2.7315406-5.5847561-1.0600178-10.5215845-1.1761155-14.4120535-.9730014Z"/><path d="M493.6017009,310.2577421c.063057,1.1412293.1149595,4.7466899-2.3475075,8.1029956-3.1448257,4.2863396-7.961971,4.856129-9.0019562,4.979113-1.495555.1768783-5.0380724.3052687-8.6425085-1.9341085-2.5444753-1.5808641-4.4186569-4.4551935-4.2088842-7.443458,2.7515731-1.0246194,6.0333259-2.0187347,9.7888029-2.7315406,5.5847561-1.0600178,10.5215845-1.1761155,14.4120535-.9730014Z"/><path class="cls-5" d="M416.1599654,221.5162873c-5.5348026,11.3069636-4.8592557,24.9886175-.1626585,36.6686621,4.6965972,11.6800446,13.0698099,21.5574871,22.4459599,29.9580394-4.4690328-10.2047277-8.1320335-20.9299267-8.873943-32.0456046-.7419094-11.1156779,1.6608125-22.727095,8.34928-31.6362547l-21.7586384-2.9448421Z"/><path class="cls-4" d="M332.173452,344.5527677c-3.6390207-6.0556204-8.3991491-11.9096443-15.025682-14.3595571s-15.3661692-.2270859-18.1563394,6.2635197c-1.0380192,2.4146816-1.1717927,5.1250219-.9857437,7.7467688.8128979,11.4551121,7.3454848,21.7472137,14.9743183,30.3309945,5.560739,6.2568109,11.9403544,11.9945084,19.5737625,15.4297052,4.6141553,2.0764688,11.0448066,2.7812254,13.8449205-1.4332157l-14.2252363-43.9782154Z"/><path class="cls-2" d="M332.5788313,371.6542767c-9.4287109-10.4038086-18.5795898-21.3022461-27.1982422-32.3930664l2.3691406-1.8408203c8.5722656,11.03125,17.6738281,21.871582,27.0517578,32.2192383l-2.2226562,2.0146484Z"/><path class="cls-2" d="M314.343968,364.0893353c-1.9150391-3.9853516-2.0297852-8.7958984-.3071289-12.8681641l2.7626953,1.1689453c-1.3920898,3.2910156-1.2993164,7.1791992.2485352,10.4003906l-2.7041016,1.2988281Z"/><path class="cls-4" d="M518.6152316,344.5527677c3.6390207-6.0556204,8.3991491-11.9096443,15.025682-14.3595571s15.3661692-.2270859,18.1563394,6.2635197c1.0380192,2.4146816,1.1717927,5.1250219.9857437,7.7467688-.8128979,11.4551121-7.3454848,21.7472137-14.9743183,30.3309945-5.560739,6.2568109-11.9403544,11.9945084-19.5737625,15.4297052-4.6141553,2.0764688-11.0448066,2.7812254-13.8449205-1.4332157l14.2252363-43.9782154Z"/><path class="cls-2" d="M518.2101789,371.6542767l-2.2226562-2.0146484c9.3779297-10.3476562,18.4794922-21.1879883,27.0517578-32.2192383l2.3691406,1.8408203c-8.6186523,11.0908203-17.7695312,21.9892578-27.1982422,32.3930664Z"/><path class="cls-2" d="M536.4450422,364.0893353l-2.7041016-1.2988281c1.5473633-3.2211914,1.6401367-7.1088867.2480469-10.4003906l2.7626953-1.1689453c1.7226562,4.0727539,1.6083984,8.8833008-.3066406,12.8681641Z"/><polygon class="cls-1" points="499.549388 712.3064122 345.7077956 712.3064122 313.1711097 489.0111044 532.0860739 489.0111044 499.549388 712.3064122"/><path class="cls-4" d="M390.1009671,488.1048189c0,17.9645111,14.5631136,32.5276247,32.5276247,32.5276247s32.5276247-14.5631136,32.5276247-32.5276247h-65.0552494Z"/><path d="M385.8305056,488.4490366l-.0093333.5594886-.3916022,20.6252171-.7553182,39.1058701-3.1235981,163.5564907v.0093333l-.5874318,30.583443-5.0817229,265.9460953H122.644463c-24.625353,0-44.5978618-19.9725657-44.5978618-44.5978049v-22.6206184c3.5432003-14.406021,7.0957339-29.2129207,10.6296578-44.2249263,30.4250037-129.0381883,60.141356-273.2842117,82.9390804-315.7561192,6.6481886-12.3825628,13.8838089-25.3992241,22.7138949-37.8937301,9.7345101-13.7905323,21.399145-26.9283564,36.3085977-37.8470634,4.7366736-3.459314,9.8090631-6.6947984,15.2451117-9.6692336,4.5595676-2.48028,9.3708511-4.774007,14.480574-6.8440181,8.1400444-3.3007609,16.3174222-5.7437076,24.4015234-7.4966695,41.3903206-8.9699155,80.4402474.2517727,101.0654645,6.5642453Z"/><path d="M757.0471935,899.3870264v64.8501434c0,24.6252392-19.9725657,44.5978049-44.5978618,44.5978049h-243.0736473l-1.0256438-53.2880615-.7086514-37.296965-.1118863-5.9302038-.0746099-3.9908026-1.1282537-58.7520532-2.0326778-106.6880093-.5874318-30.4342233v-.1492197l-3.1235981-163.1742218-1.1468635-60.1226893-.0093333-.5594886c24.6532961-7.5432793,75.6382404-19.254524,125.4669879.9324241,10.8627069,4.4010715,20.4387209,9.8277867,28.9517577,15.9724298,28.9051479,20.83038,45.6981155,50.0245771,59.7963637,76.2816154,22.9096676,42.6957371,52.8218494,188.2099006,83.4053493,317.7515205Z"/><path d="M421.6266829,533.2299603c-15.7246094,0-30.7426758-9.3217773-38.0727539-23.9350586l2.6816406-1.3447266c7.2773438,14.5078125,22.6762695,23.4086914,38.3095703,22.1635742,21.6762695-1.7348633,31.565918-21.3212891,31.9760742-22.1542969l2.6914062,1.3261719c-.4414062.8950195-11.0722656,21.9492188-34.4282227,23.8183594-1.0537109.0844727-2.1079102.1259766-3.1577148.1259766Z"/><ellipse class="cls-2" cx="422.2024029" cy="539.5808529" rx="8.3300441" ry="12.9118288"/><polygon class="cls-1" points="246.3463408 84.6905272 189.1931924 589.0806555 295.1295072 589.0806555 246.3463408 84.6905272"/><rect class="cls-5" x="227.6885058" y="611.3917757" width="28.945688" height="74.0669027"/><path class="cls-4" d="M127.1808965,920.3280243c21.1911366-68.4755796,42.3822732-136.9513868,63.5734098-205.4269664-1.3199003-4.2343802-9.4051966-31.7595585,6.8842255-57.2518884,9.8242298-15.3745265,23.625006-22.3579188,29.7576979-25.0042641.3040452,8.1080606.6080903,16.2161212.9121355,24.3241818,8.9420293,4.4841041,18.7566412,3.3689968,24.1464214-2.2937269,3.4894482-3.6661842,4.2018273-8.2694592,4.3736121-10.5372349,1.4839737-.2642931,15.7783807-3.9244398,22.4693946,3.1410177,3.4196757,3.6110947,4.3100713,8.163833,5.0677798,11.6996919,1.338254,6.2451473.5280739,11.4948135-.1861547,14.5078911,1.6475065,1.6366365,3.4333343,3.8938268,4.6929947,6.8735547,4.5662546,10.801528-1.7788278,21.6453974-2.7498089,23.2474323.5562447,3.2342324,1.1989652,10.0038683-2.4598491,16.5163818-.7595011,1.3518556-1.6055918,2.516589-2.4598491,3.5141189-9.1952248,65.6549738-21.4819948,133.1432625-30.6772196,198.7982363-41.1149299-.7027327-82.2298883-1.4056931-123.3447897-2.1084258Z"/><path class="cls-2" d="M272.4621321,678.253886l-.0742188-2.9990234c3.8261719-.0942383,7.6586914-1.6088867,10.5151367-4.1547852l1.9960938,2.2392578c-3.378418,3.0117188-7.9116211,4.8032227-12.4370117,4.9145508Z"/><path class="cls-2" d="M275.27805,707.7211712l-.0732422-2.9990234c3.8251953-.09375,7.6577148-1.6079102,10.5141602-4.1542969l1.9960938,2.2392578c-3.3789062,3.0117188-7.9116211,4.8032227-12.4370117,4.9140625Z"/><path class="cls-2" d="M270.3122297,728.8832806l-.0732422-2.9990234c3.8251953-.09375,7.6577148-1.6083984,10.5146484-4.1547852l1.9960938,2.2392578c-3.3789062,3.012207-7.9121094,4.8037109-12.4375,4.9145508Z"/><rect class="cls-2" x="244.3825422" y="86.6762493" width="3" height="486.5341797"/><path class="cls-5" d="M312.107337,611.3917361h-132.4496119v-22.3111382c16.7777155-1.0068633,37.4915425-5.0221374,57.8962024-16.7291138,2.7317967-1.5673194,5.3244752-3.1958746,7.7837268-4.8647225,2.189865,1.5993031,4.4997261,3.1595656,6.9355589,4.6626897,20.8244044,12.8500838,42.6688184,16.467211,59.8341239,16.9311467v22.3111382Z"/><path d="M290.5087486,860.0201072l-11.0864796,148.8148675H122.644463c-24.625353,0-44.5978618-19.9725657-44.5978618-44.5978049,1.9153849-10.4816901,3.830784-20.9633802,5.746169-31.4450703,1.6278296-11.8001961,3.2556592-23.6002783,4.8834888-35.4004744l70.7336804-134.50218,13.4175968,9.939673,90.3425302,66.9387643,27.3386822,20.2522247Z"/><rect class="cls-1" x="216.0502811" y="750.1006174" width="2.9999715" height="140.2806583" transform="translate(-565.7514599 493.8029984) rotate(-52.5218632)"/><path class="cls-5" d="M566.0798507,889.1467692h87.6027152v7.0366655c0,20.0720943-16.2959939,36.3680881-36.3680881,36.3680881h-14.8665389c-20.0720943,0-36.3680881-16.2959939-36.3680881-36.3680881v-7.0366655h0Z"/><rect class="cls-1" x="563.3471457" y="885.1617188" width="93.0681252" height="9.9189242" rx="4.1554471" ry="4.1554471"/><path class="cls-1" d="M571.8117414,891.6362103l-6.3105469-3.0302734,38.2558594-79.6645508c1.140625-2.3759766,3.4584961-3.8637695,6.1225586-3.8422852,2.6352539.0058594,4.9746094,1.4887695,6.1049805,3.8691406l37.8144531,79.6518555-6.3232422,3.0019531-37.612793-79.2250977-38.0512695,79.2392578Z"/><circle class="cls-1" cx="609.8812083" cy="804.2736503" r="7.0269558"/><path class="cls-5" d="M425.2888597,889.1467692h87.6027151v7.0366654c0,20.0720943-16.2959939,36.3680882-36.3680882,36.3680882h-14.8665387c-20.0720943,0-36.3680882-16.2959939-36.3680882-36.3680882v-7.0366654h0Z"/><rect class="cls-1" x="422.5561546" y="885.1617188" width="93.0681252" height="9.9189242" rx="4.155447" ry="4.155447"/><path class="cls-1" d="M431.0207258,891.6362103l-6.3105469-3.0302734,36.1875-75.3574219c1.5219727-3.1694336,4.6484375-5.1357422,8.1630859-5.1357422h.0209961c3.5229492.0078125,6.6503906,1.9897461,8.1611328,5.1723633l35.7651367,75.3349609-6.3232422,3.0019531-35.765625-75.3349609c-.503418-1.0615234-1.4765625-1.1621094-1.8574219-1.1743164-.3930664,0-1.3491211.1147461-1.8535156,1.1660156l-36.1875,75.3574219Z"/><circle class="cls-1" cx="469.0902172" cy="804.2736503" r="7.0269558"/><path class="cls-1" d="M467.5499255,808.7736503c18.4746185,0,36.949237,0,55.4238554,0,18.5578375,0,37.115675,0,55.6735124,0h31.2071258c2.3538492,0,4.6088492-2.0697956,4.5-4.5-.1092032-2.438109-1.9772264-4.5-4.5-4.5-18.4746185,0-36.949237,0-55.4238554,0-18.5578375,0-37.115675,0-55.6735124,0h-31.2071258c-2.3538492,0-4.6088492,2.0697956-4.5,4.5.1092032,2.438109,1.9772264,4.5,4.5,4.5h0Z"/><path class="cls-1" d="M545.0289472,805.0852889c0-17.4611677,0-34.9223355,0-52.3835032,0-4.9889051,0-9.9778101,0-14.9667152,0-3.8607137-6-3.8671083-6,0,0,17.4611677,0,34.9223355,0,52.3835032,0,4.9889051,0,9.9778101,0,14.9667152,0,3.8607137,6,3.8671083,6,0h0Z"/><path class="cls-4" d="M691.5327467,661.6581628c-13.9614919,1.7892709-42.8010787,5.4403169-76.2745015,9.3146803-12.8146285,1.4832054-16.9666589,1.5178071-23.4544163,1.2187985-10.38682-.4787324-20.5878837-2.9756304-30.9597931-3.7103469-5.2604792-.372651-11.9609118.7154807-13.3317186,5.8078459-.9336762,3.4684766,3.3040048,7.6350193,6.4821802,10.7587311,3.5999402,3.5383629,7.2945797,5.6545286,9.9299413,6.8999613-9.1840134.6669928-45.5922047,3.4370619-61.6782851,7.9653287-3.1163135.8772208-7.9499059,2.3364099-9.6030465,6.4057492-1.0566601,2.6009306-.6881636,5.9506916,1.0498877,8.2217681,1.3050751,1.7052708,3.3939237,2.8175326,10.1425595,3.5365417,9.6612092,1.0293999,16.3520808-.0810408,16.519455.7357409.1884312.9195623-8.3099227,2.2431903-16.0725926,9.0481108-3.351639,2.9380693-4.3977137,4.9972105-4.3539494,6.9824817.070057,3.1769802,2.9014758,5.4499917,3.8115909,6.1436187,8.6238419,6.5723836,25.7257774.4048624,24.6381579.8741476-12.5745224,5.4252925-21.0661039,11.5561632-21.2772993,15.2603637-.1414799,2.4808491.9058469,4.2014858.9059038,4.2015996s1.0188714,1.6740837,3.3015008,2.7286381c3.2836308,1.517238,14.0590368.9993511,28.239464-1.7037911-1.4136037.2753337-20.4328022,4.1396808-22.1388128,12.2731236-.1233823.5882285-.4573909,2.1805885.2183093,3.8814203.0000569.0001138,1.6717504,3.7986722,9.8862339,5.598187,14.0021261,3.0674842,150.987204-16.6956504,192.6163786-22.7799682-9.5323635-33.2209103-19.0647839-66.4418205-28.5971474-99.6627308Z"/><path d="M576.9401222,654.0102149c12.0456517,44.9587323,24.0913034,89.9174645,36.1370121,134.8763106,41.7157926-4.2715997,72.91683-5.0688041,114.6326225-9.3404039-14.0331993-48.4655666-28.0663418-96.9311333-42.0995411-145.396643-36.2233455,6.6201885-72.446748,13.2405478-108.6700935,19.8607363Z"/><path class="cls-2" d="M514.875218,720.6259563l-.0292969-3c20.4614258-.1987305,41.0390625-2.1782227,61.1616211-5.8833008l.5429688,2.9501953c-20.2915039,3.7363281-41.0419922,5.7324219-61.675293,5.9331055Z"/><path class="cls-2" d="M519.4816633,745.1430462l-.0292969-3c20.4619141-.1987305,41.0395508-2.1782227,61.1621094-5.8833008l.5429688,2.9501953c-20.2915039,3.7363281-41.0419922,5.7324219-61.6757812,5.9331055Z"/><path class="cls-2" d="M525.856175,765.8598431l-.0292969-3c20.4614258-.1992188,41.0390625-2.1787109,61.1616211-5.8833008l.5429688,2.9501953c-20.2915039,3.7358398-41.0419922,5.7319336-61.675293,5.9331055Z"/><rect class="cls-1" x="606.1416514" y="664.2653794" width="3.0003363" height="114.4140249" transform="translate(-169.8237192 187.3391415) rotate(-15.4053036)"/></g><rect class="cls-5" x="351.8729143" y="18.2298349" width="131.3479662" height="70.0058343" rx="22.2156315" ry="22.2156315"/><path class="cls-2" d="M426.6901594,72.7856243h-9.1694336l-7.2724609-12.199707-7.2988281,12.199707h-9.1171875l11.59375-18.8925781-11.59375-18.8925781h9.1171875l7.2988281,12.199707,7.2724609-12.199707h9.1694336l-11.59375,18.8925781,11.59375,18.8925781Z"/><path class="cls-2" d="M437.7570539,72.7856243h-7.5625v-37.7851562h7.5625v37.7851562Z"/><circle cx="78.0111227" cy="23.8168491" r="7.9565217"/><circle cx="757.0826721" cy="26.1863566" r="7.9565217"/><circle cx="78.0111227" cy="1072.4283198" r="7.9565217"/><circle cx="757.0826721" cy="1074.7978274" r="7.9565217"/></g></svg>