<?xml version="1.0" encoding="utf-8"?>
<!-- Generator: Adobe Illustrator 26.1.0, SVG Export Plug-In . SVG Version: 6.00 Build 0)  -->
<svg version="1.1" xmlns="http://www.w3.org/2000/svg" xmlns:xlink="http://www.w3.org/1999/xlink" x="0px" y="0px"
	 viewBox="0 0 2302 1522" style="enable-background:new 0 0 2302 1522;" xml:space="preserve">
<style type="text/css">
	.st0{fill:#FFFFFF;}
	.st1{fill:#EAD9EB;}
	.st2{fill:#95608F;}
	.st3{fill:#ED859E;}
	.st4{fill:#FAC87D;}
	.st5{fill:#554B4E;}
	.st6{fill:#F8F4E9;}
	.st7{fill:#BFA071;}
	.st8{fill:#F2DED6;}
</style>
<g id="Bg">
</g>
<g id="Graphic">
	<g id="Frame_00000098193538025419892370000011825041710229674378_">
		<g>
			<path class="st5" d="M2197.66,1521.75H104.34c-0.41,0-0.75-0.34-0.75-0.75c0-56.57-46.02-102.59-102.59-102.59
				c-0.41,0-0.75-0.34-0.75-0.75V104.34c0-0.41,0.34-0.75,0.75-0.75c56.57,0,102.59-46.02,102.59-102.59c0-0.41,0.34-0.75,0.75-0.75
				h2093.31c0.41,0,0.75,0.34,0.75,0.75c0,56.57,46.02,102.59,102.59,102.59c0.41,0,0.75,0.34,0.75,0.75v1313.31
				c0,0.41-0.34,0.75-0.75,0.75c-56.57,0-102.59,46.02-102.59,102.59C2198.41,1521.41,2198.07,1521.75,2197.66,1521.75z
				 M105.09,1520.25h2091.82c0.4-56.81,46.53-102.94,103.34-103.34V105.09c-56.81-0.4-102.94-46.53-103.34-103.34H105.09
				c-0.4,56.81-46.53,102.94-103.34,103.34v1311.82C58.56,1417.31,104.69,1463.44,105.09,1520.25z"/>
		</g>
		<g>
			<path class="st5" d="M2183.6,1506.75H118.4c-0.38,0-0.7-0.28-0.74-0.66c-6.75-53.15-48.6-94.99-101.75-101.75
				c-0.37-0.05-0.66-0.37-0.66-0.74V118.4c0-0.38,0.28-0.7,0.66-0.74c53.15-6.76,94.99-48.6,101.75-101.75
				c0.05-0.38,0.37-0.66,0.74-0.66h2065.2c0.38,0,0.7,0.28,0.74,0.66c6.75,53.15,48.6,94.99,101.75,101.75
				c0.37,0.05,0.66,0.37,0.66,0.74v1285.2c0,0.38-0.28,0.7-0.66,0.74c-53.15,6.75-94.99,48.6-101.75,101.75
				C2184.3,1506.47,2183.98,1506.75,2183.6,1506.75z M119.06,1505.25h2063.89c7.07-53.3,49.01-95.23,102.31-102.31V119.06
				c-53.3-7.07-95.23-49.01-102.31-102.31H119.06c-7.07,53.3-49.01,95.23-102.31,102.31v1283.89
				C70.05,1410.02,111.98,1451.95,119.06,1505.25z"/>
		</g>
		<g id="Moon_00000142892318183826643740000004452879757132804244_">
			<g>
				<path class="st5" d="M34.01,67.02c1.49,0,2.96-0.11,4.4-0.3c-6.48-6.03-10.54-14.62-10.54-24.17
					c0-16.74,12.46-30.56,28.61-32.71C50.59,4.36,42.69,1,34.01,1C15.78,1,1,15.78,1,34.01S15.78,67.02,34.01,67.02z"/>
				<path class="st5" d="M34.01,68.02C15.26,68.02,0,52.76,0,34.01C0,15.26,15.26,0,34.01,0c8.62,0,16.84,3.23,23.15,9.11
					c0.28,0.26,0.39,0.67,0.27,1.04c-0.12,0.37-0.44,0.64-0.82,0.69C40.8,12.94,28.87,26.58,28.87,42.55
					c0,8.85,3.72,17.4,10.22,23.44c0.28,0.26,0.39,0.67,0.27,1.04c-0.12,0.37-0.44,0.64-0.82,0.69C37,67.92,35.48,68.02,34.01,68.02
					z M34.01,2C16.36,2,2,16.36,2,34.01s14.36,32.01,32.01,32.01c0.72,0,1.45-0.03,2.2-0.08c-5.96-6.29-9.33-14.7-9.33-23.39
					c0-16.25,11.62-30.22,27.36-33.35C48.52,4.54,41.42,2,34.01,2z"/>
			</g>
			<g>
				<path class="st5" d="M38.41,67.72c-0.25,0-0.5-0.09-0.68-0.27c-6.9-6.42-10.86-15.5-10.86-24.9c0-16.97,12.67-31.46,29.48-33.7
					c0.29-0.04,0.59,0.06,0.81,0.26c6.9,6.42,10.86,15.5,10.86,24.9c0,16.97-12.67,31.46-29.48,33.7
					C38.5,67.72,38.45,67.72,38.41,67.72z M56.15,10.9c-15.58,2.31-27.27,15.84-27.27,31.65c0,8.7,3.59,17.09,9.88,23.11
					c15.58-2.31,27.27-15.84,27.27-31.65C66.02,25.31,62.43,16.92,56.15,10.9z"/>
			</g>
			<g>
				<path class="st5" d="M2270.06,66.95c7.36-6.05,12.05-15.23,12.05-25.5c0-18.23-14.78-33.01-33.01-33.01
					c-0.7,0-1.39,0.03-2.07,0.07c5.7-4.69,13-7.51,20.96-7.51c18.23,0,33.01,14.78,33.01,33.01
					C2301,51.54,2287.33,65.88,2270.06,66.95z"/>
				<path class="st5" d="M2270.06,67.95c-0.41,0-0.78-0.25-0.93-0.63c-0.16-0.4-0.04-0.86,0.29-1.14
					c7.43-6.11,11.69-15.12,11.69-24.73c0-17.65-14.36-32.01-32.01-32.01c-0.68,0-1.35,0.03-2.01,0.07
					c-0.42,0.03-0.83-0.23-0.99-0.63c-0.16-0.4-0.04-0.86,0.29-1.14c6.06-4.99,13.73-7.74,21.6-7.74
					c18.75,0,34.01,15.26,34.01,34.01c0,17.92-14,32.83-31.87,33.94C2270.11,67.95,2270.08,67.95,2270.06,67.95z M2250.12,7.45
					c18.29,0.54,32.99,15.58,32.99,34c0,9.15-3.64,17.8-10.08,24.17c15.35-2.43,26.97-15.77,26.97-31.61
					C2300,16.36,2285.64,2,2267.99,2C2261.61,2,2255.38,3.92,2250.12,7.45z"/>
			</g>
			<g>
				<path class="st5" d="M2267.99,68.02c-18.75,0-34.01-15.26-34.01-34.01c0-10.21,4.53-19.78,12.42-26.27
					c0.16-0.13,0.36-0.21,0.57-0.23c0.71-0.04,1.42-0.07,2.13-0.07c18.75,0,34.01,15.26,34.01,34.01c0,10.21-4.52,19.78-12.41,26.27
					c-0.16,0.13-0.36,0.21-0.57,0.23C2269.42,67.99,2268.71,68.02,2267.99,68.02z M2270.06,66.95L2270.06,66.95L2270.06,66.95z
					 M2247.42,9.49c-7.27,6.11-11.44,15.02-11.44,24.52c0,17.65,14.36,32.01,32.01,32.01c0.57,0,1.13-0.02,1.69-0.05
					c7.27-6.11,11.44-15.03,11.44-24.52c0-17.65-14.36-32.01-32.01-32.01C2248.54,9.44,2247.98,9.46,2247.42,9.49z"/>
			</g>
			<g>
				<path class="st5" d="M2301,1487.99c0,18.23-14.78,33.01-33.01,33.01c-13.31,0-24.76-7.88-29.99-19.22
					c2.81,0.78,5.78,1.21,8.84,1.21c18.23,0,33.01-14.78,33.01-33.01c0-4.93-1.09-9.6-3.02-13.79
					C2290.77,1460.05,2301,1472.82,2301,1487.99z"/>
				<path class="st5" d="M2267.99,1522c-13.23,0-25.36-7.77-30.9-19.8c-0.16-0.35-0.11-0.77,0.15-1.07c0.25-0.3,0.65-0.42,1.03-0.32
					c2.8,0.78,5.68,1.17,8.57,1.17c17.65,0,32.01-14.36,32.01-32.01c0-4.66-0.99-9.16-2.93-13.38c-0.16-0.35-0.11-0.77,0.15-1.07
					c0.25-0.3,0.65-0.42,1.03-0.32c14.66,4.07,24.91,17.54,24.91,32.77C2302,1506.74,2286.74,1522,2267.99,1522z M2239.86,1503.27
					c5.57,10.23,16.39,16.73,28.13,16.73c17.65,0,32.01-14.36,32.01-32.01c0-13.62-8.7-25.75-21.41-30.21
					c1.5,3.89,2.26,7.98,2.26,12.19c0,18.75-15.26,34.01-34.01,34.01C2244.5,1503.99,2242.16,1503.75,2239.86,1503.27z"/>
			</g>
			<g>
				<path class="st5" d="M2246.84,1503.99c-3.07,0-6.13-0.42-9.11-1.24c-0.28-0.08-0.52-0.28-0.64-0.54
					c-2.07-4.48-3.11-9.26-3.11-14.21c0-18.75,15.26-34.01,34.01-34.01c3.07,0,6.13,0.42,9.1,1.24c0.28,0.08,0.52,0.28,0.64,0.55
					c2.07,4.48,3.11,9.27,3.11,14.21C2280.85,1488.73,2265.59,1503.99,2246.84,1503.99z M2238.72,1500.94
					c2.66,0.7,5.39,1.05,8.12,1.05c17.65,0,32.01-14.36,32.01-32.01c0-4.5-0.92-8.85-2.74-12.95c-2.66-0.7-5.39-1.05-8.12-1.05
					c-17.65,0-32.01,14.36-32.01,32.01C2235.98,1492.49,2236.9,1496.84,2238.72,1500.94z"/>
			</g>
			<g>
				<path class="st5" d="M48.56,1508.14c4.85,0,9.45-1.05,13.59-2.93c-5.8,9.46-16.23,15.79-28.14,15.79
					C15.78,1521,1,1506.22,1,1487.99c0-13.37,7.96-24.87,19.39-30.06c-3.07,5.01-4.84,10.9-4.84,17.2
					C15.55,1493.36,30.33,1508.14,48.56,1508.14z"/>
				<path class="st5" d="M34.01,1522C15.26,1522,0,1506.74,0,1487.99c0-13.31,7.84-25.47,19.98-30.97c0.4-0.18,0.87-0.08,1.16,0.25
					s0.33,0.81,0.1,1.18c-3.07,5.01-4.69,10.78-4.69,16.68c0,17.65,14.36,32.01,32.01,32.01c4.59,0,9.02-0.95,13.18-2.84
					c0.4-0.18,0.87-0.08,1.16,0.25c0.29,0.33,0.33,0.81,0.1,1.18C56.76,1515.92,45.92,1522,34.01,1522z M17.95,1460.31
					C8.17,1466,2,1476.54,2,1487.99c0,17.65,14.36,32.01,32.01,32.01c10.14,0,19.45-4.68,25.48-12.66c-3.51,1.19-7.17,1.8-10.93,1.8
					c-18.75,0-34.01-15.26-34.01-34.01C14.55,1469.97,15.72,1464.91,17.95,1460.31z"/>
			</g>
			<g>
				<path class="st5" d="M48.56,1509.14c-18.75,0-34.01-15.26-34.01-34.01c0-6.27,1.72-12.4,4.99-17.72
					c0.1-0.17,0.26-0.31,0.44-0.39c4.33-1.97,8.95-2.99,13.72-3.03l0.31-0.01c18.75,0,34.01,15.26,34.01,34.01
					c0,5.43-1.25,10.62-3.71,15.45c-0.36,0.71-0.79,1.46-1.3,2.3c-0.1,0.17-0.26,0.31-0.44,0.39
					C58.15,1508.13,53.44,1509.14,48.56,1509.14z M21.08,1458.71c-2.96,4.95-4.53,10.62-4.53,16.42c0,17.65,14.36,32.01,32.01,32.01
					c4.49,0,8.82-0.91,12.9-2.71c0.41-0.69,0.76-1.31,1.06-1.9c0,0,0,0,0,0c2.32-4.54,3.5-9.43,3.5-14.54
					c0-17.65-14.36-32.01-32.01-32.01l-0.29,0.01C29.33,1456.03,25.08,1456.94,21.08,1458.71z M62.15,1505.21L62.15,1505.21
					L62.15,1505.21z"/>
			</g>
		</g>
	</g>
</g>
<g id="Guide">
</g>
</svg>
