<?xml version="1.0" encoding="utf-8"?>
<!-- Generator: Adobe Illustrator 26.1.0, SVG Export Plug-In . SVG Version: 6.00 Build 0)  -->
<svg version="1.1" xmlns="http://www.w3.org/2000/svg" xmlns:xlink="http://www.w3.org/1999/xlink" x="0px" y="0px"
	 viewBox="0 0 711.92 400.03" style="enable-background:new 0 0 711.92 400.03;" xml:space="preserve">
<style type="text/css">
	.st0{fill:#FFFFFF;}
	.st1{fill:#EAD9EB;}
	.st2{fill:#95608F;}
	.st3{fill:#ED859E;}
	.st4{fill:#FAC87D;}
	.st5{fill:#554B4E;}
	.st6{fill:#F8F4E9;}
	.st7{fill:#BFA071;}
	.st8{fill:#F2DED6;}
</style>
<g id="Bg">
</g>
<g id="Graphic">
	<g id="Cloud_1_00000152983710275465573840000006019311882841352091_">
		<g id="Sparkling_stars_00000102532301041397930920000005171849078061605288_">
			<g>
				<g>
					<path class="st5" d="M476.87,294.88c-0.55,0-1-0.45-1-1v-20c0-0.55,0.45-1,1-1s1,0.45,1,1v20
						C477.87,294.44,477.42,294.88,476.87,294.88z"/>
				</g>
				<g>
					<path class="st5" d="M545.26,285.02c-0.55,0-1-0.45-1-1v-15.08c0-0.55,0.45-1,1-1s1,0.45,1,1v15.08
						C546.26,284.57,545.82,285.02,545.26,285.02z M545.26,249.94c-0.55,0-1-0.45-1-1v-20c0-0.55,0.45-1,1-1s1,0.45,1,1v20
						C546.26,249.49,545.82,249.94,545.26,249.94z"/>
				</g>
				<g>
					<path class="st5" d="M616.22,237.29c-0.55,0-1-0.45-1-1v-5.02c0-0.55,0.45-1,1-1s1,0.45,1,1v5.02
						C617.22,236.85,616.77,237.29,616.22,237.29z M616.22,212.27c-0.55,0-1-0.45-1-1v-20c0-0.55,0.45-1,1-1s1,0.45,1,1v20
						C617.22,211.83,616.77,212.27,616.22,212.27z"/>
				</g>
				<g>
					<path class="st5" d="M188.87,298.14c-0.55,0-1-0.45-1-1v-15.8c0-0.55,0.45-1,1-1s1,0.45,1,1v15.8
						C189.87,297.7,189.42,298.14,188.87,298.14z M188.87,262.35c-0.55,0-1-0.45-1-1v-20c0-0.55,0.45-1,1-1s1,0.45,1,1v20
						C189.87,261.9,189.42,262.35,188.87,262.35z"/>
				</g>
				<g>
					<path class="st5" d="M123.27,244.2c-0.55,0-1-0.45-1-1v-20c0-0.55,0.45-1,1-1s1,0.45,1,1v20
						C124.27,243.75,123.82,244.2,123.27,244.2z"/>
				</g>
				<g>
					<path class="st5" d="M263.72,288.26c-0.55,0-1-0.45-1-1V281c0-0.55,0.45-1,1-1s1,0.45,1,1v6.27
						C264.72,287.82,264.27,288.26,263.72,288.26z M263.72,262c-0.55,0-1-0.45-1-1v-20c0-0.55,0.45-1,1-1s1,0.45,1,1v20
						C264.72,261.55,264.27,262,263.72,262z"/>
				</g>
				<g>
					<path class="st5" d="M327.45,313.11c-0.55,0-1-0.45-1-1v-15.63c0-0.55,0.45-1,1-1s1,0.45,1,1v15.63
						C328.45,312.66,328,313.11,327.45,313.11z M327.45,277.48c-0.55,0-1-0.45-1-1v-20c0-0.55,0.45-1,1-1s1,0.45,1,1v20
						C328.45,277.03,328,277.48,327.45,277.48z"/>
				</g>
				<g>
					<path class="st5" d="M404.3,353.67c-0.55,0-1-0.45-1-1v-4.07c0-0.55,0.45-1,1-1s1,0.45,1,1v4.07
						C405.3,353.22,404.85,353.67,404.3,353.67z M404.3,329.6c-0.55,0-1-0.45-1-1v-20c0-0.55,0.45-1,1-1s1,0.45,1,1v20
						C405.3,329.15,404.85,329.6,404.3,329.6z M404.3,289.6c-0.55,0-1-0.45-1-1v-20c0-0.55,0.45-1,1-1s1,0.45,1,1v20
						C405.3,289.15,404.85,289.6,404.3,289.6z"/>
				</g>
			</g>
			<g>
				<g>
					<g>
						<path class="st5" d="M476.87,349.63l-16.62-24.69l16.62-24.69l16.62,24.69L476.87,349.63z M462.66,324.94l14.21,21.11
							l14.21-21.11l-14.21-21.11L462.66,324.94z"/>
					</g>
					<g>
						<path class="st5" d="M616.22,280.34l-15.42-22.92l15.42-22.92l15.43,22.92L616.22,280.34z M603.21,257.42l13.01,19.34
							l13.02-19.34l-13.02-19.34L603.21,257.42z"/>
					</g>
					<g>
						<path class="st5" d="M545.26,347.24l-21.88-32.5l21.88-32.5l21.88,32.5L545.26,347.24z M525.8,314.73l19.47,28.92l19.47-28.92
							l-19.47-28.92L525.8,314.73z"/>
					</g>
					<g>
						<path class="st5" d="M188.87,344.73l-16.62-24.69l16.62-24.69l16.62,24.69L188.87,344.73z M174.66,320.04l14.21,21.11
							l14.21-21.11l-14.21-21.11L174.66,320.04z"/>
					</g>
					<g>
						<path class="st5" d="M123.27,299.55l-13.1-19.47l13.1-19.47l13.1,19.47L123.27,299.55z M112.57,280.08l10.69,15.89
							l10.69-15.89l-10.69-15.89L112.57,280.08z"/>
					</g>
					<g>
						<path class="st5" d="M263.72,320.95l-11.94-17.74l11.94-17.74l11.94,17.74L263.72,320.95z M254.19,303.21l9.53,14.16
							l9.53-14.16l-9.53-14.16L254.19,303.21z"/>
					</g>
					<g>
						<path class="st5" d="M404.3,400.03l-16.54-24.58l16.54-24.58l16.54,24.58L404.3,400.03z M390.17,375.45l14.13,21l14.13-21
							l-14.13-21L390.17,375.45z"/>
					</g>
					<g>
						<path class="st5" d="M327.45,385.83l-25.41-37.76l25.41-37.76l25.41,37.76L327.45,385.83z M304.45,348.08l23,34.17l23-34.17
							l-23-34.17L304.45,348.08z"/>
					</g>
				</g>
				<g>
					<g>
						<polygon class="st5" points="470.81,324.94 476.87,315.94 482.92,324.94 476.87,333.94 						"/>
						<path class="st5" d="M476.87,335.28l-6.96-10.34l6.96-10.34l6.96,10.34L476.87,335.28z M471.71,324.94l5.15,7.66l5.15-7.66
							l-5.15-7.66L471.71,324.94z"/>
					</g>
					<g>
						<path class="st5" d="M616.22,268.09l-7.18-10.67l7.18-10.67l7.18,10.67L616.22,268.09z M610.85,257.42l5.37,7.98l5.37-7.98
							l-5.37-7.98L610.85,257.42z"/>
					</g>
					<g>
						<path class="st5" d="M545.26,331.3l-11.15-16.56l11.15-16.57l11.15,16.57L545.26,331.3z M535.92,314.73l9.34,13.88l9.34-13.88
							l-9.34-13.88L535.92,314.73z"/>
					</g>
					<g>
						<path class="st5" d="M188.87,330.39l-6.96-10.34l6.96-10.34l6.96,10.34L188.87,330.39z M183.72,320.04l5.15,7.66l5.15-7.66
							l-5.15-7.66L183.72,320.04z"/>
					</g>
					<g>
						<polygon class="st5" points="128.52,280.08 123.27,272.28 118.02,280.08 123.27,287.88 						"/>
						<path class="st5" d="M123.27,289.23l-6.16-9.15l6.16-9.15l6.16,9.15L123.27,289.23z M118.92,280.08l4.35,6.46l4.35-6.46
							l-4.35-6.46L118.92,280.08z"/>
					</g>
					<g>
						<path class="st5" d="M263.72,310.83l-5.12-7.61l5.12-7.61l5.12,7.61L263.72,310.83z M260.4,303.21l3.31,4.93l3.31-4.93
							l-3.31-4.93L260.4,303.21z"/>
					</g>
					<g>
						<path class="st5" d="M404.3,386.86l-7.67-11.4l7.67-11.4l7.67,11.4L404.3,386.86z M398.43,375.45l5.87,8.71l5.87-8.71
							l-5.87-8.71L398.43,375.45z"/>
					</g>
					<g>
						<polygon class="st5" points="315.45,348.08 327.45,330.25 339.45,348.08 327.45,365.9 						"/>
						<path class="st5" d="M327.45,367.25l-12.9-19.17l12.9-19.17l12.9,19.17L327.45,367.25z M316.36,348.08l11.09,16.48
							l11.09-16.48l-11.09-16.48L316.36,348.08z"/>
					</g>
				</g>
			</g>
		</g>
		<g id="Line_00000011737890325799466150000014823138467492716470_">
			<g>
				<g>
					<path class="st5" d="M338.88,240.37c-9.53,0-19.33-2.47-24.43-11.12c-0.21-0.36-0.09-0.82,0.27-1.03
						c0.36-0.21,0.82-0.09,1.03,0.27c8.78,14.9,32.96,10.19,42.95,7.48c0.4-0.11,0.81,0.13,0.92,0.53c0.11,0.4-0.13,0.81-0.53,0.92
						C354.41,238.69,346.74,240.37,338.88,240.37z"/>
				</g>
				<g>
					<path class="st5" d="M482.23,256.89c-0.32,0-0.62-0.21-0.72-0.53c-0.12-0.4,0.1-0.82,0.5-0.94
						c17.28-5.35,29.66-18.89,30.1-32.94c0.01-0.41,0.35-0.75,0.77-0.73c0.41,0.01,0.74,0.36,0.73,0.77
						c-0.39,12.41-10.18,27.83-31.16,34.32C482.38,256.88,482.3,256.89,482.23,256.89z"/>
				</g>
				<g>
					<path class="st5" d="M1,192.97c-0.22,0-0.45-0.1-0.59-0.29c-0.25-0.33-0.19-0.8,0.13-1.05c28.32-21.92,54.92-30.67,79.04-26.01
						c0.41,0.08,0.67,0.47,0.59,0.88s-0.47,0.67-0.88,0.59c-23.68-4.57-49.87,4.08-77.83,25.73C1.32,192.92,1.16,192.97,1,192.97z"
						/>
				</g>
				<g>
					<path class="st5" d="M174.93,213.12c-7.49,0-15.01-1.74-21.81-5.2c-8.53-4.91-15.91-10.92-23.06-16.73
						c-11.09-9.03-21.57-17.56-35-21.1c-0.4-0.11-0.64-0.52-0.53-0.92c0.11-0.4,0.51-0.64,0.92-0.53
						c13.75,3.62,24.35,12.25,35.57,21.39c7.1,5.78,14.44,11.75,22.82,16.58c12.31,6.25,27.1,6.69,39.53,1.15
						c9.89-4.41,16.97-12.22,19.43-21.4c0.11-0.4,0.52-0.64,0.92-0.53c0.4,0.11,0.64,0.52,0.53,0.92
						c-2.57,9.63-9.96,17.79-20.27,22.39C187.99,211.79,181.47,213.12,174.93,213.12z"/>
				</g>
				<g>
					<path class="st5" d="M217.25,175.51c-0.08,0-0.15-0.01-0.23-0.04c-0.39-0.13-0.61-0.55-0.48-0.94
						c4.09-12.7,15.69-22.6,29.56-25.22c0.42-0.08,0.8,0.19,0.88,0.6c0.08,0.41-0.19,0.8-0.6,0.88
						c-13.34,2.52-24.49,12.02-28.41,24.2C217.86,175.31,217.57,175.51,217.25,175.51z"/>
				</g>
				<g>
					<path class="st5" d="M430.49,188.62c-0.11,0-0.23-0.03-0.34-0.08c-0.37-0.19-0.52-0.64-0.33-1.01
						c10.05-20.02,26.94-30.42,50.19-30.9c19.32-0.4,45.39,4.48,60.48,19.38c0.29,0.29,0.3,0.77,0.01,1.06
						c-0.29,0.29-0.77,0.3-1.06,0.01c-14.77-14.58-40.37-19.36-59.4-18.95c-22.65,0.47-39.09,10.59-48.88,30.07
						C431.03,188.47,430.77,188.62,430.49,188.62z"/>
				</g>
				<g>
					<path class="st5" d="M547.29,106.75c-0.16,0-0.31-0.05-0.45-0.15c-20.62-15.31-52.66-18.01-79.71-6.73
						c-0.38,0.16-0.82-0.02-0.98-0.4c-0.16-0.38,0.02-0.82,0.4-0.98c27.53-11.48,60.15-8.7,81.18,6.91c0.33,0.25,0.4,0.72,0.16,1.05
						C547.75,106.64,547.52,106.75,547.29,106.75z"/>
				</g>
				<g>
					<path class="st5" d="M310.28,133.32c-8.71,0-17.57-2.37-24.06-6.84c-0.34-0.24-0.43-0.7-0.19-1.04
						c0.24-0.34,0.7-0.43,1.04-0.19c9.93,6.84,25.66,8.58,37.41,4.14c5.53-2.09,12.59-6.46,14.83-15.41c0.1-0.4,0.51-0.64,0.91-0.55
						c0.4,0.1,0.65,0.51,0.55,0.91c-1.89,7.58-7.34,13.27-15.75,16.45C320.5,132.5,315.42,133.32,310.28,133.32z"/>
				</g>
				<g>
					<path class="st5" d="M272.04,116.34c-0.21,0-0.41-0.08-0.56-0.25c-10.86-12.09-16.12-27.31-14.41-41.76
						c0.05-0.41,0.42-0.71,0.83-0.66c0.41,0.05,0.71,0.42,0.66,0.83c-1.65,14.02,3.46,28.81,14.04,40.58
						c0.28,0.31,0.25,0.78-0.06,1.06C272.39,116.28,272.21,116.34,272.04,116.34z"/>
				</g>
				<g>
					<path class="st5" d="M272.04,48.46c-0.13,0-0.26-0.03-0.38-0.1c-0.36-0.21-0.47-0.67-0.26-1.03
						c9.64-16.27,28.21-26.62,47.59-26.62c0.43,0,0.86,0,1.29,0.02c0.41,0.01,0.74,0.35,0.73,0.77c-0.01,0.41-0.33,0.72-0.77,0.73
						c-19.36-0.47-37.98,9.7-47.56,25.87C272.54,48.32,272.29,48.46,272.04,48.46z"/>
				</g>
				<g>
					<path class="st5" d="M398.89,68.87c-0.24,0-0.48-0.12-0.63-0.34c-21.05-31.83-37.67-38.33-51.15-40.49
						c-0.41-0.07-0.69-0.45-0.62-0.86c0.06-0.41,0.46-0.69,0.86-0.62C366.91,29.7,382.51,42,399.51,67.7
						c0.23,0.35,0.13,0.81-0.21,1.04C399.17,68.83,399.03,68.87,398.89,68.87z"/>
				</g>
				<g>
					<path class="st5" d="M373.65,144.21c-0.18,0-0.35-0.06-0.5-0.19c-0.31-0.27-0.34-0.75-0.06-1.06
						c9.18-10.37,12.82-22.25,10.82-35.29c-0.06-0.41,0.22-0.79,0.63-0.85c0.42-0.06,0.79,0.22,0.86,0.63
						c2.08,13.51-1.69,25.79-11.18,36.51C374.07,144.13,373.86,144.21,373.65,144.21z"/>
				</g>
			</g>
			<g>
				<g>
					<path class="st5" d="M538.95,204.41c-2.88,0-5.88-0.22-8.98-0.67c-0.55-0.08-0.93-0.59-0.85-1.13
						c0.08-0.55,0.59-0.92,1.13-0.85c13.18,1.9,24.23-0.37,32.84-6.76c4.45-3.3,8.06-7.01,11.55-10.61
						c7.86-8.09,15.29-15.72,30.46-16.67c8.82-0.55,17.6,0.71,26.1,1.93c7.46,1.07,15.19,2.19,22.82,2.04
						c18.11-0.34,38.78-1.53,54.79-11.38c0.47-0.29,1.09-0.14,1.38,0.33c0.29,0.47,0.14,1.09-0.33,1.38
						c-16.44,10.12-37.42,11.34-55.8,11.68c-7.8,0.14-15.6-0.98-23.14-2.06c-8.4-1.21-17.09-2.46-25.69-1.92
						c-14.4,0.9-21.23,7.93-29.15,16.07c-3.55,3.65-7.22,7.42-11.8,10.82C557.28,201.8,548.78,204.41,538.95,204.41z"/>
				</g>
				<g>
					<path class="st5" d="M473.03,275c-17.57,0-35.32-5.59-47.16-15.31c-5.26,3.91-9.93,6.62-13.89,8.04
						c-8.08,2.91-17.96,1.77-25.78-2.95c-5.72-3.45-9.46-8.31-10.68-13.79c-1.15,0.45-3.04,1.03-6.11,1.88
						c-3.67,1.02-7.58,1.99-8.31,2.16c-15.41,3.56-31.44,3.62-45.13,0.17c-14.3-3.6-24.29-13.8-24.29-24.81c0-0.55,0.45-1,1-1
						s1,0.45,1,1c0,10.09,9.37,19.49,22.78,22.87c13.39,3.37,29.08,3.3,44.19-0.18c2.55-0.59,13.24-3.37,14.79-4.24
						c0.15-0.21,0.39-0.37,0.67-0.41c0.54-0.08,1.05,0.31,1.13,0.85v0c0,0,0,0,0,0c0.76,5.45,4.31,10.34,9.99,13.77
						c7.32,4.42,16.54,5.49,24.07,2.78c3.93-1.41,8.64-4.18,14-8.23c0.37-0.28,0.89-0.27,1.25,0.04
						c14.37,12.18,38.25,17.92,59.43,14.26c19.93-3.44,36.92-15.28,44.33-30.91c7.66-16.15,3.93-35.93-9.06-48.12
						c-6.73-6.31-16.07-10.95-26.31-13.07c-13.47-2.79-27.39-0.78-37.23,5.37c-9.78,6.11-14.7,16.85-12.52,27.35
						c2.17,10.48,10.71,17.83,22.86,19.67c0.55,0.08,0.92,0.59,0.84,1.14c-0.08,0.55-0.59,0.92-1.14,0.84
						c-13-1.97-22.17-9.91-24.52-21.24c-2.35-11.33,2.92-22.89,13.42-29.45c10.27-6.42,24.73-8.52,38.69-5.63
						c10.59,2.19,20.28,7.01,27.27,13.57c13.62,12.77,17.53,33.51,9.5,50.44c-7.69,16.21-25.24,28.48-45.8,32.02
						C481.97,274.64,477.5,275,473.03,275z M375.27,249.56L375.27,249.56C375.27,249.56,375.27,249.56,375.27,249.56z"/>
				</g>
				<g>
					<path class="st5" d="M544.55,229.94c-3.39,0-6.47-0.08-8.98-0.15c-0.55-0.01-0.99-0.47-0.97-1.03
						c0.01-0.55,0.43-1.01,1.03-0.97c9.45,0.25,27.03,0.72,38.69-3.87c8.37-3.29,13.94-10.07,19.34-16.63
						c6.7-8.14,13.62-16.56,25.91-18.65c6.23-1.06,12.62-0.91,18.79-0.76c3.58,0.09,7.28,0.17,10.88,0.02
						c10.96-0.46,22.26-2.84,32.68-6.88c5.65-2.19,10.75-4.94,15.15-8.17c2.52-1.85,4.94-3.94,7.2-6.23
						c0.29-0.29,0.93-1.15,1.6-2.07c0.83-1.12,1.51-2.02,2.09-2.73c-18.19,2.3-25.5,0.23-37.22-3.08c-1.29-0.37-2.65-0.75-4.08-1.14
						c-6.98-1.93-13.72-4.69-20.23-7.35c-7.7-3.15-15.66-6.41-23.96-8.26c-14.97-3.33-33.91-0.53-41.17,11.27
						c-0.28,0.46-0.88,0.61-1.34,0.35c-0.47-0.26-0.64-0.85-0.4-1.33c7.44-14.41,5.6-32.52-4.83-47.27
						c-9.37-13.26-25.15-23.62-44.43-29.16c-27.01-7.76-56.17-3.65-74.3,10.48c-0.36,0.28-0.85,0.28-1.21,0.01s-0.5-0.75-0.33-1.17
						c3.23-8.14-0.69-18.19-8.92-22.89c-8.32-4.75-20.44-3.75-27.61,2.27c-0.25,0.21-0.58,0.28-0.9,0.2
						c-0.32-0.08-0.57-0.32-0.68-0.62c-8.97-24.56-28.01-43.85-53.61-54.33c-26.59-10.88-56.08-10.34-80.92,1.47
						c-29.01,13.8-46.74,48.54-43.13,84.48c1.9,18.92,16.63,37.6,38.44,48.77c22.65,11.6,47.28,12.1,65.88,1.34
						c12.44-7.2,20.94-20.91,21.65-34.94c0.61-12.06-4.47-22.61-14.3-29.7c-11.52-8.31-26.55-7.36-36.77-3.71
						c-7.91,2.83-13.76,7.43-14.9,11.74c-0.14,0.53-0.69,0.85-1.22,0.71c-0.53-0.14-0.85-0.69-0.71-1.22
						c1.33-4.99,7.52-10.02,16.17-13.1c10.7-3.83,26.47-4.79,38.61,3.97c10.4,7.5,15.77,18.66,15.13,31.42
						c-0.74,14.69-9.63,29.04-22.64,36.57c-19.19,11.1-44.53,10.62-67.79-1.29c-22.41-11.47-37.55-30.76-39.52-50.35
						c-3.7-36.77,14.5-72.33,44.26-86.48C306.3-2.6,336.38-3.15,363.49,7.94c25.69,10.51,44.9,29.73,54.25,54.21
						c7.95-5.85,20.06-6.59,28.79-1.61c8.11,4.63,12.4,14.02,10.67,22.42c18.71-13.06,47.22-16.64,73.65-9.04
						c19.72,5.67,35.88,16.3,45.51,29.93c9.43,13.34,12.1,29.36,7.54,43.22c9.6-8.62,26.06-9.91,39-7.03
						c8.47,1.89,16.51,5.18,24.29,8.36c6.46,2.65,13.14,5.38,20.01,7.28c1.43,0.4,2.79,0.78,4.09,1.15
						c12.51,3.54,19.41,5.49,39.47,2.61c0,0,0.01,0,0.01,0c0.56-0.08,1.05,0.3,1.13,0.85c0.08,0.55-0.3,1.05-0.85,1.13
						c-0.56,0.28-2.6,3.02-3.58,4.35c-0.78,1.05-1.4,1.89-1.79,2.28c-2.33,2.36-4.83,4.52-7.44,6.44c-4.55,3.34-9.8,6.17-15.61,8.42
						c-10.62,4.11-22.14,6.54-33.32,7.01c-3.66,0.15-7.4,0.07-11.01-0.02c-6.08-0.15-12.37-0.3-18.41,0.73
						c-11.56,1.97-17.94,9.73-24.7,17.95c-5.56,6.75-11.3,13.74-20.15,17.22C566.16,229.29,554.11,229.94,544.55,229.94z"/>
				</g>
				<g>
					<path class="st5" d="M175.24,242.93c-6.42,0-12.97-0.69-19.46-2.1c-21.58-4.67-35.79-18.03-46.86-30.48
						c-12.75-14.35-24.73-23.1-37.71-27.56c-13.2-4.53-27.17-2.37-37.87,0.01c-11.09,2.47-31.78,10.27-31.99,10.35
						c-0.42,0.16-0.88,0.02-1.15-0.33c-0.27-0.35-0.27-0.84-0.01-1.2c21.07-28.57,46.84-42.39,76.54-41.1
						c2.74,0.12,5.6,0.41,8.63,0.71c7.74,0.78,15.74,1.58,22.45-0.41c6.81-2.02,10.56-4.96,14.53-8.07c3.5-2.74,7.12-5.57,13-7.94
						c11.86-4.77,24.8-4.82,36.6-0.18c1.2-13.85,3.32-23.72,16.8-32.42c13.68-8.84,31.69-12.02,48.16-8.51
						c0.54,0.11,0.88,0.65,0.77,1.19c-0.12,0.54-0.65,0.89-1.19,0.77c-15.97-3.4-33.41-0.32-46.66,8.24
						c-13.17,8.51-14.83,17.86-16,32.26c-0.03,0.32-0.21,0.61-0.48,0.77c-0.28,0.17-0.61,0.19-0.91,0.06
						c-11.65-4.96-24.56-5.08-36.35-0.33c-5.62,2.26-9.12,5-12.51,7.65c-3.94,3.08-8.02,6.27-15.2,8.41
						c-7.08,2.1-15.29,1.28-23.22,0.48c-3-0.3-5.83-0.59-8.51-0.7c-28.06-1.22-52.53,11.42-72.79,37.58
						c6.31-2.31,20.47-7.33,29.05-9.24c10.96-2.44,25.28-4.64,38.95,0.05c13.32,4.57,25.57,13.51,38.56,28.12
						c10.85,12.21,24.77,25.3,45.79,29.85c19.69,4.26,39.87,1.82,55.36-6.69c4.79-2.63,8.22-5.87,10.21-9.64
						c0.19-0.35,0.54-0.56,0.96-0.53c0.4,0.03,0.74,0.3,0.87,0.67c2.26,6.58,13.82,16.66,31.49,17.42
						c29.39,1.26,43.55-13.2,46.77-25.95c1.8-7.13,1.62-18.07-3.01-25.24c-5.69-8.8-15.08-14.77-25.11-15.96
						c-10.9-1.3-22.21,3.82-26.32,11.91c-2.02,3.98-2.12,8.81-0.26,13.25c1.92,4.58,5.67,8.05,10.3,9.52
						c0.53,0.17,0.82,0.73,0.65,1.26c-0.17,0.53-0.72,0.82-1.25,0.65c-5.18-1.64-9.39-5.53-11.54-10.65
						c-2.09-4.98-1.97-10.42,0.32-14.92c4.54-8.94,16.46-14.4,28.34-12.99c10.61,1.26,20.54,7.57,26.55,16.86
						c4.96,7.67,5.18,19.28,3.27,26.81c-2.35,9.3-8.68,16.78-18.31,21.62c-8.45,4.24-19.27,6.32-30.48,5.84
						c-10.71-0.46-27.24-5.98-32.51-16.87c-2.24,3.37-5.58,6.29-9.97,8.7C201.74,239.87,188.76,242.93,175.24,242.93z"/>
				</g>
			</g>
		</g>
	</g>
</g>
<g id="Guide">
</g>
</svg>
