<?xml version="1.0" encoding="utf-8"?>
<!-- Generator: Adobe Illustrator 26.1.0, SVG Export Plug-In . SVG Version: 6.00 Build 0)  -->
<svg version="1.1" xmlns="http://www.w3.org/2000/svg" xmlns:xlink="http://www.w3.org/1999/xlink" x="0px" y="0px"
	 viewBox="0 0 479.73 174.22" style="enable-background:new 0 0 479.73 174.22;" xml:space="preserve">
<style type="text/css">
	.st0{fill:#FFFFFF;}
	.st1{fill:#EAD9EB;}
	.st2{fill:#95608F;}
	.st3{fill:#ED859E;}
	.st4{fill:#FAC87D;}
	.st5{fill:#554B4E;}
	.st6{fill:#F8F4E9;}
	.st7{fill:#BFA071;}
	.st8{fill:#F2DED6;}
</style>
<g id="Bg">
</g>
<g id="Graphic">
	<g id="Cloud_2_00000000200342508726694950000014677099827552285374_">
		<g id="Line_00000092445909162296236920000011502951884855723935_">
			<g>
				<path class="st5" d="M163.43,134.62c-2.48,0-4.99-0.45-7.47-1.44c-0.38-0.15-0.57-0.59-0.42-0.97c0.15-0.38,0.59-0.57,0.97-0.42
					c11.76,4.68,24.21-3.71,31.35-14.11c0.14-0.2,0.37-0.33,0.62-0.33c0.01,0,0.01,0,0.02,0c0.25,0.01,0.49,0.14,0.62,0.36
					c3.66,5.94,7.64,11.19,11.84,15.6c0.29,0.3,0.27,0.77-0.03,1.06c-0.3,0.28-0.78,0.27-1.06-0.03
					c-4.04-4.25-7.88-9.25-11.42-14.88C182.42,127.78,173.11,134.62,163.43,134.62z"/>
			</g>
			<g>
				<path class="st5" d="M301.88,59.01c-0.24,0-0.48-0.11-0.62-0.33c-4.7-6.91-13.14-10.96-21.46-10.31
					c-0.4,0.05-0.77-0.28-0.81-0.69c-0.03-0.41,0.28-0.77,0.69-0.81c8.86-0.68,17.81,3.62,22.81,10.96c0.23,0.34,0.14,0.81-0.2,1.04
					C302.17,58.97,302.03,59.01,301.88,59.01z"/>
			</g>
			<g>
				<path class="st5" d="M349.56,129.21c-2.83,0-5.69-0.4-8.39-1.21c-0.4-0.12-0.62-0.54-0.5-0.93s0.54-0.62,0.93-0.5
					c6.73,2.02,14.74,1.28,20.41-1.9c4.12-2.31,6.9-5.79,8.03-10.06c0.11-0.4,0.52-0.64,0.92-0.53c0.4,0.11,0.64,0.52,0.53,0.92
					c-1.23,4.68-4.26,8.48-8.74,10.99C358.93,128.1,354.27,129.21,349.56,129.21z"/>
			</g>
			<g>
				<path class="st5" d="M121.34,88.77c-0.13,0-0.27-0.04-0.39-0.11c-0.35-0.22-0.46-0.68-0.24-1.03c4.1-6.6,9.36-13.84,17.27-17.53
					c8.1-3.78,17.16-2.54,25.06-0.68c0.53-4.87,1.62-9.71,3.23-14.4c0.13-0.39,0.56-0.6,0.95-0.46c0.39,0.13,0.6,0.56,0.46,0.95
					c-1.67,4.86-2.76,9.88-3.24,14.91c-0.02,0.22-0.13,0.41-0.31,0.54c-0.18,0.13-0.4,0.17-0.61,0.12
					c-7.84-1.9-16.94-3.33-24.91,0.39c-7.56,3.53-12.65,10.56-16.64,16.97C121.84,88.65,121.6,88.77,121.34,88.77z"/>
			</g>
			<g>
				<path class="st5" d="M219.33,60.49c-2.85,0-5.87-0.73-8.85-2.18c-0.37-0.18-0.53-0.63-0.35-1c0.18-0.37,0.63-0.53,1-0.35
					c5.54,2.7,11.15,2.7,15.38,0.01c0.35-0.22,0.81-0.12,1.04,0.23c0.22,0.35,0.12,0.81-0.23,1.04
					C224.96,59.74,222.23,60.49,219.33,60.49z"/>
			</g>
			<g>
				<path class="st5" d="M233.06,51.05c-0.1,0-0.2-0.02-0.3-0.06c-0.38-0.16-0.56-0.6-0.39-0.99c5.52-12.79-0.6-25.72-7.06-28.65
					c-0.38-0.17-0.54-0.62-0.37-0.99c0.17-0.38,0.62-0.54,0.99-0.37c10.56,4.8,11.7,21.61,7.81,30.61
					C233.62,50.88,233.35,51.05,233.06,51.05z"/>
			</g>
			<g>
				<path class="st5" d="M277.72,149.79c-5.61,0-11.15-1.26-16.23-3.71c-0.37-0.18-0.53-0.63-0.35-1c0.18-0.37,0.63-0.53,1-0.35
					c5.97,2.88,12.61,4.05,19.2,3.38c0.42-0.04,0.78,0.26,0.82,0.67s-0.26,0.78-0.67,0.82
					C280.24,149.73,278.98,149.79,277.72,149.79z"/>
			</g>
			<g>
				<path class="st5" d="M247.98,149.79c-0.16,0-0.33-0.05-0.46-0.16c-7.21-5.71-11.15-11.74-13.18-20.15
					c-0.1-0.4,0.15-0.81,0.55-0.9c0.39-0.1,0.81,0.15,0.91,0.55c1.94,8.06,5.73,13.83,12.65,19.32c0.33,0.26,0.38,0.73,0.12,1.05
					C248.42,149.69,248.2,149.79,247.98,149.79z"/>
			</g>
			<g>
				<path class="st5" d="M252.38,137.12c-0.23,0-0.46-0.11-0.61-0.31c-12.12-16.51-11.71-38.55,0.98-52.41
					c0.28-0.31,0.75-0.33,1.06-0.05c0.3,0.28,0.33,0.75,0.05,1.06c-12.2,13.33-12.57,34.57-0.87,50.51c0.25,0.33,0.17,0.8-0.16,1.05
					C252.69,137.07,252.54,137.12,252.38,137.12z"/>
			</g>
			<g>
				<path class="st5" d="M104.91,131.29c-6.7,0-13.52-2.13-20.22-4.23c-5.99-1.87-12.19-3.81-18.23-4.22
					c-0.41-0.03-0.73-0.39-0.7-0.8c0.03-0.41,0.39-0.72,0.8-0.7c6.21,0.42,12.5,2.38,18.57,4.28c13.03,4.07,25.33,7.92,36.71-2.52
					c0.31-0.28,0.78-0.26,1.06,0.05c0.28,0.31,0.26,0.78-0.05,1.06C117.11,129.49,111.06,131.29,104.91,131.29z"/>
			</g>
			<g>
				<path class="st5" d="M37.27,123.61c-0.3,0-0.59-0.18-0.7-0.48c-0.15-0.39,0.05-0.82,0.43-0.97c6.76-2.58,13.49-3.35,20.58-2.36
					c0.41,0.06,0.7,0.44,0.64,0.85c-0.06,0.41-0.43,0.7-0.85,0.64c-6.84-0.95-13.33-0.21-19.84,2.28
					C37.45,123.59,37.36,123.61,37.27,123.61z"/>
			</g>
		</g>
		<g id="Stroke_00000176724275900472995930000012824025398727131824_">
			<g>
				<path class="st5" d="M257.35,174.22c-12.24,0-24.54-2.53-36-7.43c-13.83-5.92-24.71-15.99-34.38-26.11
					c-6.67,8.56-17.78,12.68-29.33,10.78c-11.1-1.82-20.05-8.74-23.95-18.3c-3.05,6.2-11.41,15.63-33.73,12.99
					c-8.33-0.99-16.35-3.41-24.1-5.76c-12.22-3.7-23.76-7.19-36.65-5.66c-14.01,1.66-36.3,9.56-37.7,10.39
					c-0.4,0.24-0.91,0.17-1.23-0.16c-0.32-0.33-0.38-0.84-0.14-1.23c5.25-8.37,19.23-24.6,28.35-30.01
					c17.84-10.58,29.03-10.56,47.63-10.55l2.34,0c12.02-1.19,18.25-12.36,24.28-23.16c0.63-1.12,1.25-2.23,1.87-3.32
					c6.98-12.23,14.67-21.03,29.47-24.19c3.82-0.81,9.86-1.42,13.48-1.34c1.16,0.02,2.08,0.07,2.79,0.11
					c0.73,0.04,1.43,0.07,1.71,0.03c0.06-0.18,0.12-0.56,0.17-0.9c0.07-0.42,0.15-0.94,0.28-1.57c1.5-7.16,4.84-13.78,7.58-18.75
					c3.93-7.11,8.6-13.18,13.89-18.05c10.36-9.53,24.15-13.43,40.98-11.58c16.13,1.77,29.95,13.89,34.37,30.16
					c0.29,1.08,0.54,2.17,0.74,3.28c11.15-6.93,26.96-8.69,39.92-4.31c10.37,3.5,22.12,12.1,28.57,20.93
					c9.24,12.62,12.4,19.45,13.38,22l0.74-0.38c13.23-6.86,23.67-12.27,39.66-8.62c10.25,2.34,19.78,7.62,27.55,15.26
					c1.43,1.41,2.81,2.81,4.16,4.18c5.61,5.71,10.9,11.11,18.35,14.95c8.68,4.47,18.4,6.98,28.12,7.25
					c4.89,0.14,9.75-0.29,14.46-1.26c0.54-0.11,1.15-0.23,1.81-0.35c3.59-0.68,9-1.7,11.22-3.87c0.4-0.39,1.03-0.38,1.41,0.01
					c0.39,0.4,0.38,1.03-0.02,1.41l-11.2,10.97c-19.76,19.34-55.99,16.2-83.27,10.01c-3.39,11.13-11.2,16.79-17.24,19.6
					c-10.26,4.77-23.05,4.78-33.38,0.02c-8.07-3.72-11.99-5.61-13.87-6.71c-6.59,25.46-32.56,36.78-54.96,38.87
					C262.8,174.09,260.08,174.22,257.35,174.22z M186.87,138.12c0.27,0,0.54,0.11,0.73,0.31c9.73,10.26,20.65,20.56,34.53,26.51
					c13.72,5.87,28.65,8.26,43.2,6.9c22.11-2.06,47.79-13.32,53.54-38.72c0-0.01,0-0.01,0-0.02l0,0c0,0,0,0,0,0
					c0.12-0.54,0.65-0.88,1.2-0.76c0.25,0.06,0.46,0.2,0.6,0.4c0.94,0.68,6.81,3.55,14.5,7.1c9.82,4.53,21.97,4.52,31.71-0.01
					c5.82-2.7,13.39-8.24,16.42-19.24c0.14-0.52,0.67-0.83,1.19-0.71c26.89,6.22,63.01,9.65,82.34-9.28l6.7-6.55
					c-2.14,0.63-4.41,1.06-6.35,1.42c-0.65,0.12-1.24,0.23-1.77,0.34c-4.85,1-9.88,1.44-14.92,1.3
					c-10.02-0.28-20.04-2.86-28.98-7.47c-7.74-3.99-13.14-9.49-18.86-15.32c-1.34-1.37-2.71-2.76-4.13-4.16
					c-7.51-7.38-16.7-12.48-26.59-14.74c-15.28-3.49-25.44,1.77-38.3,8.44l-1.77,0.92c-0.27,0.14-0.59,0.15-0.87,0.03
					c-0.28-0.12-0.48-0.37-0.56-0.66c-0.02-0.06-1.88-6.67-13.46-22.49c-6.24-8.52-17.59-16.83-27.6-20.21
					c-12.7-4.29-28.25-2.44-38.94,4.58c0.7,5.44,0.36,11.11-1.04,16.4c-2.06,7.77-6.16,14.07-11.88,18.23
					c-11.77,8.56-28.67,7.22-41.09-3.26c-0.42-0.36-0.48-0.99-0.12-1.41c0.35-0.42,0.99-0.48,1.41-0.12
					c11.72,9.88,27.61,11.18,38.63,3.17c10.24-7.44,13.62-21.36,12.07-33.01c-0.1-0.19-0.12-0.41-0.09-0.61
					c-0.22-1.48-0.52-2.91-0.89-4.29c-4.21-15.48-17.33-27.02-32.66-28.7c-16.23-1.78-29.49,1.94-39.4,11.06
					c-5.13,4.72-9.67,10.62-13.49,17.54c-2.68,4.85-5.93,11.3-7.38,18.2c-0.12,0.59-0.2,1.08-0.27,1.48
					c-0.42,2.62-1.17,2.7-3.96,2.55c-0.7-0.04-1.59-0.08-2.73-0.11c-3.48-0.07-9.33,0.51-13.02,1.3
					c-14.08,3-21.44,11.46-28.16,23.22c-0.62,1.08-1.23,2.19-1.86,3.3c-5.99,10.72-12.78,22.88-25.93,24.18l-2.44,0
					c-18.23-0.01-29.24-0.03-46.61,10.27c-7.99,4.74-19.87,18.1-25.91,26.7c6.96-2.56,23.76-8.02,35.36-9.4
					c13.31-1.58,25.59,2.14,37.47,5.73c7.67,2.32,15.59,4.72,23.75,5.68c8.03,0.95,27.29,1.48,32.62-14.11
					c0.14-0.4,0.52-0.68,0.95-0.68c0.01,0,0.01,0,0.02,0c0.43,0.01,0.81,0.29,0.94,0.71c3.05,10.11,11.96,17.54,23.24,19.4
					c11.21,1.84,21.97-2.35,28.09-10.94c0.17-0.24,0.45-0.4,0.74-0.42C186.83,138.12,186.85,138.12,186.87,138.12z M320.83,133.54
					C320.83,133.54,320.83,133.54,320.83,133.54C320.83,133.54,320.83,133.54,320.83,133.54z M320.83,133.54
					C320.83,133.54,320.83,133.54,320.83,133.54C320.83,133.54,320.83,133.54,320.83,133.54z"/>
			</g>
			<g>
				<path class="st5" d="M285.8,138.93c-4.77,0-9.72-1.45-14.41-4.33c-6.01-3.69-13.45-11.54-14.67-21.48
					c-1.83-15.03,10.2-30.41,22.39-36.04c8.48-3.92,18.34-4,27.78-0.25c10.19,4.05,18.77,12.24,23.29,22.12
					c9.45-13.72,27.86-17.43,40.92-13.83c9.66,2.66,18.28,8.14,26.61,13.44c5.83,3.71,11.85,7.54,18.15,10.34
					c16.4,7.29,38.42,5.38,57.48-5c0.49-0.26,1.09-0.08,1.36,0.4c0.26,0.48,0.08,1.09-0.4,1.36c-19.59,10.66-42.29,12.6-59.25,5.07
					c-6.43-2.86-12.52-6.73-18.41-10.48c-8.21-5.22-16.69-10.62-26.07-13.2c-12.85-3.54-31.14,0.35-39.71,14.54
					c-0.2,0.32-0.54,0.52-0.94,0.48c-0.38-0.03-0.71-0.27-0.85-0.62c-4.06-10.16-12.63-18.66-22.92-22.75
					c-8.92-3.55-18.23-3.48-26.2,0.21c-11.56,5.34-22.97,19.85-21.25,33.99c1.13,9.24,8.1,16.56,13.73,20.02
					c8.45,5.2,17.77,5.38,24.92,0.48c0.46-0.31,1.08-0.2,1.39,0.26c0.31,0.46,0.2,1.08-0.26,1.39
					C294.68,137.63,290.33,138.93,285.8,138.93z"/>
			</g>
		</g>
	</g>
</g>
<g id="Guide">
</g>
</svg>
