<?xml version="1.0" encoding="utf-8"?>
<!-- Generator: Adobe Illustrator 26.1.0, SVG Export Plug-In . SVG Version: 6.00 Build 0)  -->
<svg version="1.1" xmlns="http://www.w3.org/2000/svg" xmlns:xlink="http://www.w3.org/1999/xlink" x="0px" y="0px"
	 viewBox="0 0 611.18 417.81" style="enable-background:new 0 0 611.18 417.81;" xml:space="preserve">
<style type="text/css">
	.st0{fill:#FFFFFF;}
	.st1{fill:#EAD9EB;}
	.st2{fill:#95608F;}
	.st3{fill:#ED859E;}
	.st4{fill:#FAC87D;}
	.st5{fill:#554B4E;}
	.st6{fill:#F8F4E9;}
	.st7{fill:#BFA071;}
	.st8{fill:#F2DED6;}
</style>
<g id="Bg">
</g>
<g id="Graphic">
	<g id="Full_Moon_00000106129307011955683380000010721635613931818426_">
		<g id="Big_moon_00000018204235950036673370000004618337986159234233_">
			<g>
				<path class="st5" d="M305.53,417.81c-17.85,0-35.97-2.31-54.01-7.14c-53.88-14.44-98.92-49-126.81-97.31
					c-27.89-48.31-35.3-104.59-20.86-158.48s49-98.92,97.31-126.81C249.47,0.18,305.75-7.23,359.63,7.21
					c111.24,29.81,177.48,144.55,147.68,255.78C482.34,356.19,397.73,417.81,305.53,417.81z M305.24,2
					c-35.84,0-71.21,9.4-103.09,27.8c-47.85,27.63-82.08,72.23-96.38,125.6s-6.96,109.11,20.66,156.96
					c27.63,47.85,72.23,82.08,125.6,96.38c110.17,29.52,223.82-36.09,253.33-146.26l0.97,0.26l-0.97-0.26
					C534.9,152.3,469.28,38.66,359.11,9.14C341.3,4.36,323.21,2,305.24,2z"/>
			</g>
			<g>
				<g>
					<path class="st5" d="M175.58,111.36c-0.07,0-0.14-0.01-0.21-0.03c-0.79-0.24-1.53-0.57-2.19-0.99
						c-3.88-2.47-4.46-7.35-4.46-10.03c0-0.71,0.04-1.44,0.12-2.17c0.04-0.41,0.4-0.71,0.83-0.67c0.41,0.04,0.71,0.41,0.67,0.83
						c-0.07,0.67-0.11,1.35-0.11,2.01c0,2.38,0.49,6.68,3.76,8.77c0.54,0.34,1.15,0.62,1.81,0.81c0.4,0.12,0.62,0.53,0.51,0.93
						C176.2,111.15,175.9,111.36,175.58,111.36z M185.45,110.8c-0.34,0-0.64-0.23-0.73-0.57c-0.1-0.4,0.15-0.81,0.55-0.91
						c4.43-1.1,8.89-2.94,13.63-5.63c0.36-0.2,0.82-0.08,1.02,0.28c0.2,0.36,0.08,0.82-0.28,1.02c-4.87,2.76-9.45,4.65-14.01,5.78
						C185.57,110.8,185.51,110.8,185.45,110.8z M207.67,99.69c-0.23,0-0.46-0.11-0.61-0.31c-0.24-0.34-0.16-0.81,0.17-1.05
						c1.28-0.91,2.6-1.89,4.04-2.99c2.39-1.83,4.72-4.25,6.73-7c0.24-0.33,0.71-0.41,1.05-0.16c0.33,0.25,0.41,0.71,0.16,1.05
						c-2.1,2.86-4.53,5.38-7.03,7.3c-1.45,1.11-2.78,2.1-4.07,3.02C207.98,99.64,207.82,99.69,207.67,99.69z M171,92.8
						c-0.08,0-0.16-0.01-0.24-0.04c-0.39-0.13-0.61-0.56-0.47-0.95c1.43-4.28,3.77-8.98,6.76-13.58c0.23-0.35,0.69-0.45,1.04-0.22
						c0.35,0.23,0.45,0.69,0.22,1.04c-2.93,4.49-5.21,9.07-6.59,13.23C171.6,92.6,171.31,92.8,171,92.8z M223.47,80.82
						c-0.09,0-0.19-0.02-0.28-0.05c-0.38-0.15-0.57-0.59-0.42-0.97c1.35-3.39,2.07-6.74,2.07-9.7c0-1.61-0.21-3.11-0.62-4.46
						c-0.12-0.4,0.1-0.82,0.5-0.94c0.4-0.12,0.82,0.1,0.94,0.5c0.46,1.49,0.69,3.14,0.69,4.9c0,3.14-0.75,6.69-2.18,10.25
						C224.05,80.64,223.77,80.82,223.47,80.82z M183.68,71.4c-0.17,0-0.35-0.06-0.49-0.18c-0.31-0.27-0.35-0.74-0.08-1.06
						c3.6-4.16,7.5-7.67,11.28-10.15c0.35-0.23,0.81-0.13,1.04,0.22c0.23,0.35,0.13,0.81-0.22,1.04c-3.66,2.4-7.45,5.82-10.96,9.88
						C184.1,71.31,183.89,71.4,183.68,71.4z M218.58,58.84c-0.11,0-0.22-0.02-0.33-0.08c-2.99-1.45-7.02-2.04-11.79-1.76
						c-0.79,0.05-1.6,0.16-2.42,0.33c-0.41,0.08-0.8-0.17-0.89-0.58c-0.09-0.41,0.17-0.8,0.58-0.89c0.89-0.19,1.78-0.31,2.65-0.36
						c5.03-0.3,9.31,0.34,12.53,1.9c0.37,0.18,0.53,0.63,0.35,1C219.13,58.69,218.86,58.84,218.58,58.84z"/>
				</g>
				<g>
					<g>
						<path class="st5" d="M357.64,39.02c-0.09,0-0.18-0.02-0.27-0.05c-3.04-1.16-6.21-2.17-9.45-3c-0.4-0.1-0.64-0.51-0.54-0.91
							c0.1-0.4,0.52-0.64,0.91-0.54c3.29,0.85,6.52,1.88,9.61,3.05c0.39,0.15,0.58,0.58,0.43,0.97
							C358.23,38.84,357.94,39.02,357.64,39.02z"/>
					</g>
					<g>
						<path class="st5" d="M270.26,40.68c-0.33,0-0.63-0.22-0.72-0.55c-0.11-0.4,0.12-0.81,0.52-0.92
							c6.95-1.95,13.23-3.48,19.22-4.68c0.4-0.08,0.8,0.18,0.88,0.59c0.08,0.41-0.18,0.8-0.59,0.88c-5.95,1.19-12.2,2.72-19.11,4.66
							C270.39,40.67,270.32,40.68,270.26,40.68z M308.94,33.18c-0.39,0-0.71-0.3-0.75-0.69c-0.04-0.41,0.27-0.78,0.68-0.81
							c6.83-0.57,13.5-0.65,19.82-0.24c0.41,0.03,0.73,0.38,0.7,0.8c-0.03,0.41-0.4,0.72-0.8,0.7c-6.24-0.41-12.84-0.33-19.6,0.24
							C308.98,33.18,308.96,33.18,308.94,33.18z"/>
					</g>
					<g>
						<path class="st5" d="M242.11,49.49l-0.48-1.42c3.17-1.04,6.34-2.08,9.51-3.1c0.39-0.13,0.82,0.09,0.94,0.48
							c0.13,0.39-0.09,0.82-0.48,0.94C248.44,47.42,245.27,48.45,242.11,49.49z"/>
					</g>
				</g>
				<g>
					<g>
						<path class="st5" d="M337.61,98.71c-0.17,0-0.33-0.06-0.47-0.17c-2.46-2-5.24-3.78-8.27-5.29c-0.37-0.18-0.52-0.64-0.34-1.01
							c0.18-0.37,0.63-0.52,1-0.34c3.13,1.56,6,3.4,8.55,5.47c0.32,0.26,0.37,0.73,0.11,1.06
							C338.05,98.61,337.83,98.71,337.61,98.71z"/>
					</g>
					<g>
						<path class="st5" d="M305.3,86.64c-0.03,0-0.07,0-0.1-0.01c-2.53-0.35-5.28-0.65-8.4-0.93c-5.42-0.49-10.93-0.85-16.38-1.07
							c-0.41-0.02-0.74-0.37-0.72-0.78s0.36-0.73,0.78-0.72c5.47,0.22,11,0.58,16.45,1.07c3.14,0.28,5.92,0.59,8.47,0.94
							c0.41,0.06,0.7,0.43,0.64,0.85C305.99,86.37,305.66,86.64,305.3,86.64z"/>
					</g>
					<g>
						<path class="st5" d="M245.53,85.07c-0.39,0-0.72-0.3-0.75-0.7c-0.03-0.41,0.29-0.77,0.7-0.8c3.32-0.22,6.69-0.38,10.01-0.5
							c0.44-0.02,0.76,0.31,0.78,0.72c0.01,0.41-0.31,0.76-0.72,0.78c-3.31,0.12-6.66,0.28-9.97,0.5
							C245.56,85.07,245.54,85.07,245.53,85.07z"/>
					</g>
				</g>
				<g>
					<g>
						<path class="st5" d="M285.82,174.52c-0.2,0-0.4-0.08-0.54-0.23c-2.29-2.42-4.57-4.86-6.84-7.3c-0.28-0.3-0.26-0.78,0.04-1.06
							c0.3-0.28,0.78-0.26,1.06,0.04c2.27,2.44,4.54,4.87,6.83,7.29c0.28,0.3,0.27,0.78-0.03,1.06
							C286.19,174.45,286,174.52,285.82,174.52z"/>
					</g>
					<g>
						<path class="st5" d="M267.22,154.35c-0.21,0-0.41-0.08-0.56-0.25c-3.86-4.29-7.75-8.69-11.56-13.06
							c-0.27-0.31-0.24-0.79,0.07-1.06c0.31-0.27,0.79-0.24,1.06,0.07c3.81,4.37,7.69,8.76,11.54,13.05
							c0.28,0.31,0.25,0.78-0.06,1.06C267.58,154.29,267.4,154.35,267.22,154.35z"/>
					</g>
					<g>
						<path class="st5" d="M244.32,128.05c-0.21,0-0.42-0.09-0.57-0.27c-2.15-2.55-4.29-5.11-6.41-7.68
							c-0.26-0.32-0.22-0.79,0.1-1.06c0.32-0.26,0.79-0.22,1.06,0.1c2.12,2.57,4.26,5.12,6.4,7.67c0.27,0.32,0.23,0.79-0.09,1.06
							C244.66,128,244.49,128.05,244.32,128.05z"/>
					</g>
				</g>
				<g>
					<g>
						<path class="st5" d="M213.7,252.27c-0.2,0-0.39-0.08-0.54-0.23c-2.26-2.37-4.38-5.03-6.3-7.92c-0.23-0.34-0.13-0.81,0.21-1.04
							c0.34-0.23,0.81-0.14,1.04,0.21c1.87,2.82,3.94,5.41,6.14,7.71c0.29,0.3,0.28,0.77-0.02,1.06
							C214.07,252.2,213.89,252.27,213.7,252.27z"/>
					</g>
					<g>
						<path class="st5" d="M199.07,227.46c-0.3,0-0.59-0.19-0.7-0.49c-2.36-6.35-4.14-12.83-5.43-17.77l-0.12-0.47
							c-0.1-0.4,0.14-0.81,0.54-0.92c0.39-0.1,0.81,0.14,0.91,0.54l0.12,0.48c1.28,4.9,3.04,11.33,5.38,17.62
							c0.14,0.39-0.05,0.82-0.44,0.96C199.24,227.44,199.15,227.46,199.07,227.46z M189.14,190.81c-0.34,0-0.66-0.24-0.73-0.59
							c-1.34-6.16-2.57-12.45-3.66-18.67c-0.07-0.41,0.2-0.8,0.61-0.87c0.41-0.07,0.8,0.2,0.87,0.61
							c1.09,6.21,2.32,12.47,3.65,18.61c0.09,0.4-0.17,0.8-0.57,0.89C189.24,190.81,189.19,190.81,189.14,190.81z"/>
					</g>
					<g>
						<path class="st5" d="M182.58,153.39c-0.37,0-0.69-0.27-0.74-0.65c-0.44-3.31-0.86-6.65-1.23-9.94
							c-0.05-0.41,0.25-0.78,0.66-0.83c0.41-0.05,0.78,0.25,0.83,0.66c0.37,3.28,0.78,6.61,1.22,9.91c0.05,0.41-0.23,0.79-0.64,0.84
							C182.65,153.39,182.61,153.39,182.58,153.39z"/>
					</g>
				</g>
				<g>
					<g>
						<path class="st5" d="M145.81,269.45c-0.27,0-0.52-0.14-0.66-0.39c-1.58-2.9-3.05-5.96-4.36-9.08
							c-0.16-0.38,0.02-0.82,0.4-0.98c0.38-0.16,0.82,0.02,0.98,0.4c1.29,3.07,2.73,6.08,4.29,8.94c0.2,0.36,0.06,0.82-0.3,1.02
							C146.06,269.42,145.93,269.45,145.81,269.45z"/>
					</g>
					<g>
						<path class="st5" d="M135.84,242.92c-0.34,0-0.65-0.23-0.73-0.58c-1.37-5.86-2.33-12.02-2.87-18.3
							c-0.04-0.41,0.27-0.78,0.68-0.81c0.4-0.02,0.78,0.27,0.81,0.68c0.53,6.21,1.48,12.3,2.83,18.09c0.09,0.4-0.16,0.81-0.56,0.9
							C135.95,242.92,135.9,242.92,135.84,242.92z M132.64,206.32c-0.01,0-0.02,0-0.03,0c-0.41-0.02-0.74-0.37-0.72-0.78
							c0.26-6.06,0.9-12.26,1.88-18.41c0.07-0.41,0.44-0.69,0.86-0.62c0.41,0.07,0.69,0.45,0.62,0.86
							c-0.98,6.1-1.6,12.23-1.87,18.24C133.37,206,133.04,206.32,132.64,206.32z M138.42,169.98c-0.07,0-0.13-0.01-0.2-0.03
							c-0.4-0.11-0.63-0.52-0.52-0.92c1.64-5.96,3.62-11.87,5.88-17.55c0.15-0.39,0.59-0.57,0.97-0.42
							c0.38,0.15,0.57,0.59,0.42,0.97c-2.24,5.63-4.2,11.49-5.82,17.39C139.05,169.77,138.75,169.98,138.42,169.98z"/>
					</g>
					<g>
						<path class="st5" d="M152.06,135.79c-0.12,0-0.24-0.03-0.36-0.09c-0.36-0.2-0.5-0.65-0.3-1.02c1.61-2.97,3.32-5.89,5.08-8.67
							c0.22-0.35,0.68-0.45,1.04-0.23c0.35,0.22,0.45,0.69,0.23,1.03c-1.75,2.75-3.44,5.64-5.03,8.58
							C152.58,135.65,152.32,135.79,152.06,135.79z"/>
					</g>
				</g>
				<g>
					<g>
						<path class="st5" d="M475.58,175.4c-0.31,0-0.6-0.2-0.71-0.51c-1.07-3.13-2.3-6.24-3.64-9.24c-0.17-0.38,0-0.82,0.38-0.99
							c0.38-0.17,0.82,0,0.99,0.38c1.36,3.04,2.6,6.19,3.69,9.37c0.13,0.39-0.08,0.82-0.47,0.95
							C475.74,175.38,475.66,175.4,475.58,175.4z"/>
					</g>
					<g>
						<path class="st5" d="M476.39,248.69c-0.07,0-0.14-0.01-0.21-0.03c-0.4-0.12-0.62-0.53-0.51-0.93
							c1.9-6.48,3.25-12.38,4.11-18.05c0.06-0.41,0.46-0.69,0.85-0.63c0.41,0.06,0.69,0.45,0.63,0.85
							c-0.88,5.73-2.24,11.7-4.16,18.25C477.01,248.48,476.71,248.69,476.39,248.69z M481.78,211.98c-0.41,0-0.75-0.33-0.75-0.74
							c-0.07-6.2-0.62-12.39-1.63-18.42c-0.07-0.41,0.21-0.8,0.62-0.86c0.41-0.06,0.79,0.21,0.86,0.62
							c1.03,6.1,1.58,12.38,1.65,18.65C482.54,211.63,482.2,211.97,481.78,211.98C481.79,211.98,481.78,211.98,481.78,211.98z"/>
					</g>
					<g>
						<path class="st5" d="M467.02,275.75c-0.09,0-0.17-0.01-0.26-0.05c-0.39-0.14-0.59-0.57-0.45-0.96l0.96-2.59
							c0.84-2.27,1.67-4.53,2.49-6.79c0.14-0.39,0.58-0.59,0.96-0.45c0.39,0.14,0.59,0.57,0.45,0.96c-0.82,2.26-1.66,4.53-2.5,6.8
							l-0.96,2.59C467.61,275.56,467.33,275.75,467.02,275.75z"/>
					</g>
				</g>
				<g>
					<g>
						<path class="st5" d="M431.87,242.12c-0.36,0-0.68-0.26-0.74-0.63c-0.54-3.29-1.14-6.59-1.78-9.82
							c-0.08-0.41,0.18-0.8,0.59-0.88c0.4-0.08,0.8,0.18,0.88,0.59c0.64,3.24,1.24,6.56,1.79,9.87c0.07,0.41-0.21,0.79-0.62,0.86
							C431.95,242.12,431.91,242.12,431.87,242.12z"/>
					</g>
					<g>
						<path class="st5" d="M435.14,270.45c-0.39,0-0.72-0.3-0.75-0.7c-0.23-3.32-0.51-6.67-0.84-9.94
							c-0.04-0.41,0.26-0.78,0.67-0.82c0.41-0.04,0.78,0.26,0.82,0.67c0.33,3.29,0.62,6.65,0.84,9.99c0.03,0.41-0.28,0.77-0.7,0.8
							C435.18,270.45,435.16,270.45,435.14,270.45z"/>
					</g>
				</g>
				<g>
					<g>
						<path class="st5" d="M419.91,201.16c-0.25,0-0.5-0.13-0.64-0.36c-1.77-2.94-3.8-5.53-6.03-7.7c-0.3-0.29-0.3-0.76-0.01-1.06
							c0.29-0.3,0.77-0.3,1.06-0.01c2.32,2.26,4.43,4.95,6.27,8c0.21,0.35,0.1,0.82-0.25,1.03
							C420.18,201.12,420.04,201.16,419.91,201.16z"/>
					</g>
					<g>
						<path class="st5" d="M425.65,214.17c-0.32,0-0.61-0.2-0.71-0.52c-1.1-3.42-2.3-6.43-3.66-9.18c-0.18-0.37-0.03-0.82,0.34-1
							c0.37-0.18,0.82-0.03,1,0.34c1.39,2.82,2.62,5.89,3.74,9.38c0.13,0.39-0.09,0.82-0.48,0.94
							C425.8,214.15,425.72,214.17,425.65,214.17z"/>
					</g>
				</g>
				<g>
					<g>
						<path class="st5" d="M392.26,277.4c-0.19,0-0.37-0.07-0.52-0.21c-2.41-2.3-4.82-4.62-7.2-6.95c-0.3-0.29-0.3-0.76-0.01-1.06
							c0.29-0.3,0.76-0.3,1.06-0.01c2.38,2.33,4.78,4.64,7.19,6.94c0.3,0.29,0.31,0.76,0.03,1.06
							C392.66,277.32,392.46,277.4,392.26,277.4z"/>
					</g>
					<g>
						<path class="st5" d="M403.55,287.97c-0.18,0-0.36-0.07-0.51-0.2c-2.46-2.26-4.9-4.53-7.33-6.82c-0.3-0.28-0.32-0.76-0.03-1.06
							c0.28-0.3,0.76-0.32,1.06-0.03c2.42,2.28,4.86,4.55,7.31,6.81c0.3,0.28,0.32,0.75,0.04,1.06
							C403.96,287.89,403.75,287.97,403.55,287.97z"/>
					</g>
				</g>
				<g>
					<g>
						<path class="st5" d="M295.21,337.09c-0.1,0-0.21-0.02-0.3-0.06c-2.1-0.93-4.14-1.94-6.08-3.01c-0.97-0.53-1.92-1.07-2.87-1.62
							c-0.36-0.21-0.48-0.67-0.27-1.03c0.21-0.36,0.67-0.48,1.03-0.27c0.93,0.54,1.88,1.08,2.83,1.61c1.9,1.05,3.91,2.04,5.96,2.96
							c0.38,0.17,0.55,0.61,0.38,0.99C295.78,336.93,295.5,337.09,295.21,337.09z"/>
					</g>
					<g>
						<path class="st5" d="M352.11,346.48c-0.41,0-0.74-0.32-0.75-0.73c-0.01-0.41,0.32-0.76,0.73-0.77
							c6.29-0.14,12.77-0.58,19.26-1.31c0.41-0.05,0.78,0.25,0.83,0.66c0.05,0.41-0.25,0.78-0.66,0.83
							c-6.53,0.73-13.06,1.17-19.39,1.32C352.12,346.48,352.12,346.48,352.11,346.48z M332.76,345.94c-0.02,0-0.04,0-0.06,0
							c-6.78-0.57-13.26-1.54-19.25-2.89c-0.4-0.09-0.66-0.49-0.57-0.9c0.09-0.4,0.49-0.66,0.9-0.57c5.92,1.33,12.32,2.3,19.04,2.86
							c0.41,0.03,0.72,0.4,0.68,0.81C333.47,345.64,333.14,345.94,332.76,345.94z"/>
					</g>
					<g>
						<path class="st5" d="M390.6,342.27c-0.36,0-0.67-0.25-0.74-0.61c-0.08-0.41,0.19-0.8,0.6-0.87c4.62-0.85,7.87-1.56,9.67-2.14
							c0.4-0.13,0.82,0.09,0.94,0.49c0.12,0.39-0.09,0.82-0.49,0.94c-1.86,0.59-5.17,1.33-9.85,2.18
							C390.69,342.27,390.64,342.27,390.6,342.27z"/>
					</g>
				</g>
				<g>
					<g>
						<path class="st5" d="M260.25,377.56c-0.08,0-0.16-0.01-0.23-0.04c-3.43-1.12-6.57-2.45-9.32-3.94c-0.36-0.2-0.5-0.65-0.3-1.02
							s0.65-0.5,1.02-0.3c2.68,1.45,5.73,2.74,9.08,3.84c0.39,0.13,0.61,0.55,0.48,0.95C260.86,377.36,260.57,377.56,260.25,377.56z
							"/>
					</g>
					<g>
						<path class="st5" d="M294.73,382.51c0,0-0.01,0-0.01,0c-6.21-0.11-12.1-0.52-17.51-1.24c-0.41-0.05-0.7-0.43-0.65-0.84
							c0.05-0.41,0.44-0.7,0.84-0.65c5.35,0.71,11.19,1.12,17.34,1.23c0.41,0.01,0.74,0.35,0.74,0.76
							C295.47,382.19,295.13,382.51,294.73,382.51z M312.2,382.05c-0.39,0-0.72-0.3-0.75-0.7c-0.03-0.41,0.28-0.77,0.7-0.8
							c5.74-0.38,11.56-0.99,17.33-1.81c0.41-0.06,0.79,0.23,0.85,0.64c0.06,0.41-0.23,0.79-0.64,0.85
							c-5.8,0.82-11.67,1.44-17.44,1.82C312.23,382.05,312.21,382.05,312.2,382.05z"/>
					</g>
					<g>
						<path class="st5" d="M346.78,377.11c-0.34,0-0.65-0.24-0.73-0.58c-0.09-0.4,0.16-0.81,0.57-0.9c3.42-0.77,6.66-1.61,9.64-2.48
							c0.4-0.12,0.81,0.11,0.93,0.51c0.12,0.4-0.11,0.81-0.51,0.93c-3.01,0.88-6.28,1.73-9.73,2.51
							C346.89,377.1,346.83,377.11,346.78,377.11z"/>
					</g>
				</g>
			</g>
		</g>
		<g id="Small_moon_00000071558798661347092490000009374876223559460776_">
			<g>
				<g>
					<path class="st5" d="M561.88,233.45c-0.18,0-0.37-0.05-0.54-0.16c-13.63-8.74-29.89-17.71-48.32-26.67
						c-0.5-0.24-0.7-0.84-0.46-1.34c0.24-0.5,0.84-0.7,1.34-0.46c18.5,8.99,34.83,18,48.53,26.78c0.46,0.3,0.6,0.92,0.3,1.38
						C562.53,233.29,562.21,233.45,561.88,233.45z"/>
				</g>
				<g>
					<path class="st5" d="M521.86,318.1c-11.65,0-24.31-0.48-37.93-1.45c-10.05-0.72-20.08-1.65-30.67-2.85
						c-0.55-0.06-0.94-0.56-0.88-1.11c0.06-0.55,0.54-0.95,1.11-0.88c10.56,1.2,20.57,2.13,30.59,2.85
						c73.54,5.25,118.93-3.69,124.51-24.53c3.25-12.15-7.42-27.88-30.86-45.5c-0.44-0.33-0.53-0.96-0.2-1.4
						c0.33-0.44,0.96-0.53,1.4-0.2c24.49,18.41,35.12,34.43,31.59,47.61C605.73,308.51,574.02,318.1,521.86,318.1z"/>
				</g>
				<g>
					<path class="st5" d="M428.72,310.66c-0.05,0-0.09,0-0.14-0.01c-44.36-6.28-93.58-16.5-142.33-29.56
						c-70.41-18.87-137.52-43.03-188.98-68.04c-15.27-7.42-29.12-14.89-41.18-22.21c-0.47-0.29-0.62-0.9-0.34-1.37
						c0.29-0.47,0.9-0.62,1.37-0.34c12.01,7.28,25.81,14.72,41.02,22.12c51.35,24.95,118.33,49.07,188.62,67.9
						c48.67,13.04,97.81,23.25,142.09,29.52c0.55,0.08,0.93,0.58,0.85,1.13C429.64,310.3,429.21,310.66,428.72,310.66z"/>
				</g>
				<g>
					<path class="st5" d="M41.35,181.17c-0.2,0-0.39-0.06-0.57-0.18C19.77,166.55-4.25,145.5,0.64,127.23
						c5.85-21.85,52-31.33,126.59-26.01c0.55,0.04,0.97,0.52,0.93,1.07c-0.04,0.55-0.51,0.96-1.07,0.93
						C53.54,97.97,8.16,106.91,2.57,127.75c-3.64,13.57,9.97,31.41,39.34,51.59c0.46,0.31,0.57,0.94,0.26,1.39
						C41.98,181.01,41.67,181.17,41.35,181.17z"/>
				</g>
			</g>
			<g>
				<g>
					<path class="st5" d="M41.18,198.23c-0.27,0-0.52-0.14-0.65-0.38c-3.08-5.34-3.09-11.96-0.02-17.27
						c3.06-5.32,8.79-8.63,14.95-8.65c0,0,0,0,0,0c0.27,0,0.52,0.14,0.65,0.38c3.08,5.34,3.09,11.96,0.03,17.27c0,0,0,0,0,0
						C53.07,194.9,47.34,198.21,41.18,198.23C41.18,198.23,41.18,198.23,41.18,198.23z M55.02,173.44
						c-5.46,0.17-10.5,3.16-13.22,7.89c-2.72,4.73-2.79,10.59-0.19,15.39c5.46-0.17,10.5-3.16,13.22-7.89l0,0
						C57.56,184.1,57.62,178.25,55.02,173.44z M55.48,189.21L55.48,189.21L55.48,189.21z"/>
				</g>
				<g>
					<path class="st5" d="M559.75,238.29c3.05-5.3,8.6-8.26,14.31-8.27c2.55-0.01,5.13,0.57,7.54,1.8
						c-0.49-5.16-3.37-10.01-8.2-12.79c-2.61-1.51-5.47-2.2-8.28-2.19c-5.71,0.01-11.25,2.97-14.31,8.27s-2.83,11.58,0.02,16.53
						c1.41,2.44,3.44,4.55,6.05,6.06c0.24,0.14,0.49,0.25,0.74,0.38C557.31,244.78,557.97,241.37,559.75,238.29z"/>
					<path class="st5" d="M557.63,248.82c-0.12,0-0.23-0.03-0.34-0.08l-0.24-0.12c-0.18-0.09-0.35-0.17-0.53-0.27
						c-2.62-1.51-4.81-3.7-6.33-6.34c-3.08-5.34-3.09-11.96-0.03-17.27c3.06-5.32,8.79-8.63,14.96-8.65c0.01,0,0.03,0,0.04,0
						c3.03,0,6.01,0.79,8.61,2.29c4.84,2.79,8.04,7.79,8.57,13.37c0.03,0.27-0.1,0.54-0.33,0.69c-0.23,0.15-0.52,0.17-0.76,0.05
						c-2.24-1.14-4.65-1.72-7.16-1.72c-0.01,0-0.03,0-0.04,0c-5.63,0.01-10.86,3.04-13.66,7.9c-1.63,2.84-2.33,6.07-2.02,9.34
						c0.03,0.27-0.1,0.54-0.33,0.69C557.92,248.77,557.77,248.82,557.63,248.82z M565.16,217.59c-0.01,0-0.03,0-0.04,0
						c-5.63,0.01-10.86,3.04-13.66,7.9c-2.8,4.86-2.79,10.9,0.02,15.78c1.3,2.25,3.13,4.15,5.32,5.51
						c-0.05-3.11,0.73-6.14,2.29-8.85c0,0,0,0,0,0c3.06-5.32,8.79-8.63,14.95-8.65c0.01,0,0.03,0,0.04,0c2.28,0,4.49,0.44,6.57,1.3
						c-0.82-4.56-3.61-8.56-7.64-10.88C570.65,218.31,567.93,217.59,565.16,217.59z"/>
				</g>
				<g>
					<path class="st5" d="M565.16,250.64c-2.66,0-5.35-0.61-7.88-1.91c-0.23-0.12-0.38-0.34-0.41-0.6
						c-0.34-3.58,0.43-7.12,2.22-10.23c3.06-5.32,8.79-8.63,14.96-8.65c2.74-0.02,5.42,0.63,7.89,1.89c0.23,0.12,0.38,0.34,0.41,0.6
						c0.34,3.59-0.43,7.13-2.22,10.24c0,0,0,0,0,0C576.94,247.52,571.15,250.64,565.16,250.64z M558.34,247.58
						c7.43,3.56,16.36,0.83,20.49-6.34c1.57-2.72,2.27-5.8,2.06-8.94c-2.14-1.03-4.39-1.56-6.83-1.54
						c-5.63,0.01-10.86,3.04-13.66,7.9C558.83,241.38,558.12,244.46,558.34,247.58z M579.48,241.62L579.48,241.62L579.48,241.62z"/>
				</g>
				<g>
					<path class="st5" d="M438,322.39c-2.61-1.51-4.65-3.62-6.05-6.06c-2.85-4.94-3.08-11.22-0.02-16.53
						c1.34-2.32,3.15-4.19,5.24-5.56c-0.2-0.01-0.4-0.02-0.6-0.02c-5.71,0.01-11.25,2.97-14.31,8.27
						c-3.05,5.3-2.83,11.58,0.02,16.53c1.41,2.44,3.44,4.55,6.05,6.06c5.58,3.22,12.25,2.8,17.3-0.5
						C443.04,324.49,440.42,323.78,438,322.39z"/>
					<path class="st5" d="M436.57,328.05c-2.96,0-5.93-0.77-8.61-2.31c-2.62-1.51-4.81-3.7-6.33-6.34
						c-3.08-5.34-3.09-11.96-0.02-17.27c3.06-5.32,8.79-8.63,14.95-8.65c0.15,0,0.31,0.01,0.47,0.01l0.16,0.01
						c0.33,0.01,0.61,0.23,0.7,0.55c0.09,0.31-0.04,0.65-0.31,0.83c-2.07,1.36-3.76,3.14-5,5.31c-2.8,4.86-2.79,10.9,0.02,15.78
						c1.39,2.41,3.39,4.41,5.78,5.78l0,0c2.25,1.29,4.7,2,7.29,2.09c0.33,0.01,0.61,0.23,0.7,0.55s-0.04,0.65-0.31,0.83
						C443.16,327.1,439.87,328.05,436.57,328.05z M434.83,295.08c-4.95,0.56-9.42,3.44-11.93,7.8c-2.8,4.86-2.79,10.9,0.02,15.78
						c1.39,2.41,3.39,4.41,5.78,5.78c4.5,2.59,9.88,2.79,14.5,0.64c-1.96-0.35-3.86-1.04-5.58-2.03l0,0
						c-2.62-1.51-4.81-3.7-6.33-6.34c-3.08-5.34-3.09-11.96-0.02-17.27C432.23,297.77,433.43,296.32,434.83,295.08z"/>
				</g>
				<g>
					<path class="st5" d="M445.64,325.33c-0.01,0-0.02,0-0.03,0c-2.8-0.1-5.56-0.89-7.98-2.29c-2.62-1.51-4.81-3.7-6.33-6.34
						c-3.08-5.34-3.09-11.96-0.02-17.27c1.36-2.37,3.21-4.32,5.48-5.81c0.13-0.09,0.28-0.13,0.44-0.12c2.87,0.1,5.57,0.86,8.02,2.28
						l0,0c8.26,4.76,11.11,15.35,6.35,23.61c-1.36,2.36-3.22,4.32-5.52,5.83C445.93,325.29,445.78,325.33,445.64,325.33z
						 M437.38,295.01c-1.98,1.34-3.6,3.08-4.8,5.17c-2.8,4.86-2.79,10.9,0.02,15.78c1.39,2.41,3.39,4.41,5.78,5.78
						c2.18,1.25,4.55,1.95,7.05,2.08c2.01-1.36,3.64-3.1,4.84-5.19c4.34-7.54,1.74-17.22-5.8-21.56
						C442.3,295.82,439.91,295.13,437.38,295.01z"/>
				</g>
				<g>
					<path class="st5" d="M63.74,174.88c-2.61-1.51-5.47-2.2-8.28-2.19c2.85,4.94,3.08,11.22,0.02,16.53
						c-3.05,5.3-8.6,8.26-14.31,8.27c1.41,2.44,3.44,4.55,6.05,6.06c7.91,4.56,18.03,1.84,22.59-6.08S71.65,179.44,63.74,174.88z"/>
					<path class="st5" d="M55.45,206.49c-2.92,0-5.89-0.74-8.6-2.3c-2.62-1.51-4.81-3.7-6.33-6.34c-0.13-0.23-0.13-0.52,0-0.75
						c0.13-0.23,0.38-0.38,0.65-0.38c5.63-0.01,10.86-3.04,13.66-7.9c2.8-4.86,2.79-10.9-0.02-15.78c-0.13-0.23-0.13-0.52,0-0.75
						c0.14-0.24,0.4-0.38,0.69-0.38c3.03,0,6,0.79,8.61,2.29l0,0c4,2.31,6.87,6.03,8.07,10.49c1.2,4.46,0.59,9.12-1.71,13.12
						C67.27,203.39,61.44,206.49,55.45,206.49z M42.5,198.18c1.33,1.93,3.07,3.55,5.1,4.71c7.55,4.35,17.22,1.74,21.56-5.8
						c2.11-3.65,2.66-7.91,1.57-11.98c-1.1-4.07-3.71-7.47-7.37-9.58c-2.03-1.17-4.3-1.87-6.64-2.05c2.45,5.11,2.25,11.17-0.59,16.1
						C53.29,194.52,48.15,197.73,42.5,198.18z"/>
				</g>
			</g>
		</g>
	</g>
</g>
<g id="Guide">
</g>
</svg>
