<?xml version="1.0" encoding="utf-8"?>
<!-- Generator: Adobe Illustrator 26.1.0, SVG Export Plug-In . SVG Version: 6.00 Build 0)  -->
<svg version="1.1" xmlns="http://www.w3.org/2000/svg" xmlns:xlink="http://www.w3.org/1999/xlink" x="0px" y="0px"
	 viewBox="0 0 271.25 271.25" style="enable-background:new 0 0 271.25 271.25;" xml:space="preserve">
<style type="text/css">
	.st0{fill:#FFFFFF;}
	.st1{fill:#EAD9EB;}
	.st2{fill:#95608F;}
	.st3{fill:#ED859E;}
	.st4{fill:#FAC87D;}
	.st5{fill:#554B4E;}
	.st6{fill:#F8F4E9;}
	.st7{fill:#BFA071;}
	.st8{fill:#F2DED6;}
</style>
<g id="Bg">
</g>
<g id="Graphic">
	<g id="Moon_aura_1_00000091722063571705687320000002968165603929240205_">
		<g id="Moon_00000041997113282304146750000016803361515244940203_">
			<g>
				<path class="st5" d="M135.63,180.58c-14.36,0-28.48-6.85-37.18-19.58c-6.77-9.91-9.28-21.87-7.06-33.67
					c2.22-11.8,8.9-22.03,18.82-28.8c12.96-8.85,29.88-10.28,44.16-3.72c0.47,0.21,0.69,0.75,0.53,1.23
					c-0.17,0.49-0.67,0.77-1.17,0.65c-8.74-2-18-0.24-25.39,4.81c-14.69,10.04-18.47,30.15-8.44,44.84
					c4.86,7.12,12.2,11.91,20.67,13.51c8.47,1.59,17.05-0.21,24.17-5.07c7.4-5.05,12.39-13.04,13.71-21.91
					c0.08-0.51,0.57-0.86,1.03-0.85c0.51,0.02,0.92,0.43,0.95,0.94c0.92,15.69-6.55,30.94-19.51,39.79
					C153.19,178.04,144.36,180.58,135.63,180.58z M135.5,92.65c-8.47,0-16.86,2.54-24.17,7.53c-9.47,6.47-15.86,16.25-17.98,27.52
					c-2.12,11.27,0.28,22.7,6.75,32.17c13.36,19.55,40.14,24.59,59.69,11.23c10.26-7.01,16.8-17.78,18.36-29.78
					c-2.54,6.06-6.79,11.35-12.29,15.1c-7.56,5.16-16.68,7.07-25.67,5.38c-8.99-1.69-16.79-6.79-21.95-14.34
					c-10.66-15.6-6.64-36.96,8.96-47.62c5.5-3.76,11.97-5.8,18.54-5.96C142.36,93.06,138.93,92.65,135.5,92.65z"/>
			</g>
			<g>
				<path class="st5" d="M135.76,196.17c-3.76,0-7.54-0.35-11.32-1.06c-15.88-2.99-29.65-11.98-38.77-25.33
					c-9.12-13.35-12.5-29.44-9.51-45.33c2.99-15.88,11.98-29.65,25.33-38.77c13.34-9.12,29.44-12.49,45.33-9.51
					c15.88,2.99,29.65,11.98,38.77,25.33c9.12,13.35,12.5,29.44,9.51,45.33c-2.99,15.88-11.98,29.65-25.33,38.77l-0.56-0.83
					l0.56,0.83C159.59,192.56,147.82,196.17,135.76,196.17z M135.51,77.11c-11.66,0-23.05,3.49-32.89,10.22
					c-12.9,8.82-21.6,22.13-24.49,37.49c-2.89,15.36,0.37,30.93,9.19,43.83c8.82,12.9,22.13,21.6,37.49,24.49
					c15.36,2.89,30.92-0.37,43.83-9.19c12.9-8.82,21.6-22.13,24.49-37.49s-0.37-30.93-9.19-43.83s-22.13-21.6-37.49-24.49
					C142.8,77.45,139.14,77.11,135.51,77.11z"/>
			</g>
			<g>
				<path class="st5" d="M120.22,170.26c-0.1,0-0.21-0.02-0.31-0.07c-6.98-3.14-13.01-8.58-16.98-15.34
					c-0.21-0.36-0.09-0.82,0.27-1.03c0.36-0.21,0.82-0.09,1.03,0.27c3.81,6.49,9.6,11.72,16.3,14.73c0.38,0.17,0.55,0.61,0.38,0.99
					C120.78,170.1,120.51,170.26,120.22,170.26z"/>
			</g>
			<g>
				<path class="st5" d="M101.71,151.6c-0.29,0-0.56-0.17-0.68-0.44c-0.66-1.47-1.22-2.99-1.67-4.53c-0.12-0.4,0.11-0.81,0.51-0.93
					c0.4-0.12,0.81,0.11,0.93,0.51c0.43,1.47,0.97,2.93,1.6,4.34c0.17,0.38,0,0.82-0.38,0.99
					C101.92,151.58,101.82,151.6,101.71,151.6z"/>
			</g>
			<g>
				<path class="st5" d="M128.8,168.89c-0.08,0-0.16-0.01-0.24-0.04c-1.41-0.47-2.82-1.05-4.19-1.71c-0.37-0.18-0.53-0.63-0.35-1
					c0.18-0.37,0.63-0.53,1-0.35c1.32,0.64,2.68,1.19,4.02,1.65c0.39,0.13,0.6,0.56,0.47,0.95
					C129.4,168.69,129.11,168.89,128.8,168.89z"/>
			</g>
			<g>
				<path class="st5" d="M122.33,165.97c-0.13,0-0.25-0.03-0.37-0.1c-3.65-2.09-7.07-4.79-10.15-8.05c-0.28-0.3-0.27-0.78,0.03-1.06
					c0.3-0.28,0.77-0.27,1.06,0.03c2.98,3.15,6.28,5.76,9.81,7.78c0.36,0.21,0.48,0.66,0.28,1.02
					C122.85,165.83,122.59,165.97,122.33,165.97z"/>
			</g>
		</g>
		<g id="Line_00000131327979603252824960000011923325357349601669_">
			<g>
				<g>
					<g>
						<path class="st5" d="M120.22,78.9c-0.33,0-0.63-0.22-0.72-0.56l-1.94-7.24c-0.11-0.4,0.13-0.81,0.53-0.92
							c0.41-0.11,0.81,0.13,0.92,0.53l1.94,7.24c0.11,0.4-0.13,0.81-0.53,0.92C120.35,78.89,120.29,78.9,120.22,78.9z"/>
					</g>
					<g>
						<path class="st5" d="M114.56,57.75c-0.33,0-0.63-0.22-0.72-0.56l-3.72-13.9c-0.11-0.4,0.13-0.81,0.53-0.92
							c0.41-0.11,0.81,0.13,0.92,0.53l3.72,13.9c0.11,0.4-0.13,0.81-0.53,0.92C114.69,57.75,114.62,57.75,114.56,57.75z"/>
					</g>
					<g>
						<path class="st5" d="M107.11,29.96c-0.33,0-0.63-0.22-0.72-0.56l-1.94-7.24c-0.11-0.4,0.13-0.81,0.53-0.92
							c0.41-0.11,0.81,0.13,0.92,0.53l1.94,7.24c0.11,0.4-0.13,0.81-0.53,0.92C107.24,29.95,107.18,29.96,107.11,29.96z"/>
					</g>
				</g>
				<g>
					<g>
						<path class="st5" d="M152.98,201.13c-0.33,0-0.63-0.22-0.72-0.56l-1.94-7.24c-0.11-0.4,0.13-0.81,0.53-0.92
							c0.41-0.11,0.81,0.13,0.92,0.53l1.94,7.24c0.11,0.4-0.13,0.81-0.53,0.92C153.11,201.12,153.04,201.13,152.98,201.13z"/>
					</g>
					<g>
						<path class="st5" d="M160.42,228.91c-0.33,0-0.63-0.22-0.72-0.56l-3.72-13.89c-0.11-0.4,0.13-0.81,0.53-0.92
							c0.41-0.1,0.81,0.13,0.92,0.53l3.72,13.89c0.11,0.4-0.13,0.81-0.53,0.92C160.55,228.9,160.48,228.91,160.42,228.91z"/>
					</g>
					<g>
						<path class="st5" d="M166.08,250.04c-0.33,0-0.63-0.22-0.72-0.56l-1.94-7.24c-0.11-0.4,0.13-0.81,0.53-0.92
							c0.41-0.11,0.81,0.13,0.92,0.53l1.94,7.24c0.11,0.4-0.13,0.81-0.53,0.92C166.21,250.03,166.14,250.04,166.08,250.04z"/>
					</g>
				</g>
				<g>
					<g>
						<path class="st5" d="M78.15,120.98c-0.06,0-0.13-0.01-0.19-0.03l-7.24-1.94c-0.4-0.11-0.64-0.52-0.53-0.92
							c0.11-0.4,0.52-0.64,0.92-0.53l7.24,1.94c0.4,0.11,0.64,0.52,0.53,0.92C78.79,120.75,78.48,120.98,78.15,120.98z"/>
					</g>
					<g>
						<path class="st5" d="M57.01,115.31c-0.06,0-0.13-0.01-0.19-0.03l-13.9-3.72c-0.4-0.11-0.64-0.52-0.53-0.92
							c0.11-0.4,0.51-0.64,0.92-0.53l13.9,3.72c0.4,0.11,0.64,0.52,0.53,0.92C57.64,115.09,57.34,115.31,57.01,115.31z"/>
					</g>
					<g>
						<path class="st5" d="M29.21,107.86c-0.06,0-0.13-0.01-0.19-0.03l-7.25-1.94c-0.4-0.11-0.64-0.52-0.53-0.92
							c0.11-0.4,0.51-0.64,0.92-0.53l7.25,1.94c0.4,0.11,0.64,0.52,0.53,0.92C29.85,107.64,29.54,107.86,29.21,107.86z"/>
					</g>
				</g>
				<g>
					<g>
						<path class="st5" d="M200.36,153.72c-0.06,0-0.13-0.01-0.19-0.03l-7.24-1.94c-0.4-0.11-0.64-0.52-0.53-0.92
							c0.11-0.4,0.52-0.64,0.92-0.53l7.24,1.94c0.4,0.11,0.64,0.52,0.53,0.92C201,153.5,200.69,153.72,200.36,153.72z"/>
					</g>
					<g>
						<path class="st5" d="M228.15,161.17c-0.06,0-0.13-0.01-0.19-0.03l-13.89-3.72c-0.4-0.11-0.64-0.52-0.53-0.92
							c0.11-0.4,0.51-0.63,0.92-0.53l13.89,3.72c0.4,0.11,0.64,0.52,0.53,0.92C228.78,160.95,228.48,161.17,228.15,161.17z"/>
					</g>
					<g>
						<path class="st5" d="M249.29,166.83c-0.06,0-0.13-0.01-0.19-0.03l-7.24-1.94c-0.4-0.11-0.64-0.52-0.53-0.92
							c0.11-0.4,0.51-0.63,0.92-0.53l7.24,1.94c0.4,0.11,0.64,0.52,0.53,0.92C249.92,166.61,249.62,166.83,249.29,166.83z"/>
					</g>
				</g>
				<g>
					<g>
						<path class="st5" d="M88.23,183.77c-0.19,0-0.38-0.07-0.53-0.22c-0.29-0.29-0.29-0.77,0-1.06l5.3-5.3
							c0.29-0.29,0.77-0.29,1.06,0s0.29,0.77,0,1.06l-5.3,5.3C88.61,183.7,88.42,183.77,88.23,183.77z"/>
					</g>
					<g>
						<path class="st5" d="M67.89,204.11c-0.19,0-0.38-0.07-0.53-0.22c-0.29-0.29-0.29-0.77,0-1.06l10.17-10.17
							c0.29-0.29,0.77-0.29,1.06,0s0.29,0.77,0,1.06l-10.17,10.17C68.28,204.04,68.09,204.11,67.89,204.11z"/>
					</g>
					<g>
						<path class="st5" d="M52.42,219.58c-0.19,0-0.38-0.07-0.53-0.22c-0.29-0.29-0.29-0.77,0-1.06l5.3-5.3
							c0.29-0.29,0.77-0.29,1.06,0s0.29,0.77,0,1.06l-5.3,5.3C52.81,219.51,52.61,219.58,52.42,219.58z"/>
					</g>
				</g>
				<g>
					<g>
						<path class="st5" d="M177.71,94.29c-0.19,0-0.38-0.07-0.53-0.22c-0.29-0.29-0.29-0.77,0-1.06l5.3-5.3
							c0.29-0.29,0.77-0.29,1.06,0s0.29,0.77,0,1.06l-5.3,5.3C178.09,94.22,177.9,94.29,177.71,94.29z"/>
					</g>
					<g>
						<path class="st5" d="M193.18,78.82c-0.19,0-0.38-0.07-0.53-0.22c-0.29-0.29-0.29-0.77,0-1.06l10.17-10.17
							c0.29-0.29,0.77-0.29,1.06,0s0.29,0.77,0,1.06L193.71,78.6C193.57,78.75,193.38,78.82,193.18,78.82z"/>
					</g>
					<g>
						<path class="st5" d="M213.53,58.47c-0.19,0-0.38-0.07-0.53-0.22c-0.29-0.29-0.29-0.77,0-1.06l5.3-5.3
							c0.29-0.29,0.77-0.29,1.06,0s0.29,0.77,0,1.06l-5.3,5.3C213.91,58.4,213.72,58.47,213.53,58.47z"/>
					</g>
				</g>
			</g>
			<g>
				<g>
					<g>
						<path class="st5" d="M93.22,93.96c-0.19,0-0.38-0.07-0.53-0.22L71.47,72.53c-0.29-0.29-0.29-0.77,0-1.06s0.77-0.29,1.06,0
							l21.21,21.21c0.29,0.29,0.29,0.77,0,1.06C93.6,93.89,93.41,93.96,93.22,93.96z"/>
					</g>
					<g>
						<path class="st5" d="M58.1,58.85c-0.19,0-0.38-0.07-0.53-0.22L36.36,37.42c-0.29-0.29-0.29-0.77,0-1.06s0.77-0.29,1.06,0
							l21.21,21.21c0.29,0.29,0.29,0.77,0,1.06C58.49,58.78,58.3,58.85,58.1,58.85z"/>
					</g>
				</g>
				<g>
					<g>
						<path class="st5" d="M199.25,200c-0.19,0-0.38-0.07-0.53-0.22l-21.21-21.21c-0.29-0.29-0.29-0.77,0-1.06s0.77-0.29,1.06,0
							l21.21,21.21c0.29,0.29,0.29,0.77,0,1.06C199.63,199.93,199.44,200,199.25,200z"/>
					</g>
					<g>
						<path class="st5" d="M234.36,235.11c-0.19,0-0.38-0.07-0.53-0.22l-21.21-21.21c-0.29-0.29-0.29-0.77,0-1.06s0.77-0.29,1.06,0
							l21.21,21.21c0.29,0.29,0.29,0.77,0,1.06C234.75,235.04,234.56,235.11,234.36,235.11z"/>
					</g>
				</g>
				<g>
					<g>
						<path class="st5" d="M48.71,159.66c-0.33,0-0.63-0.22-0.72-0.56c-0.11-0.4,0.13-0.81,0.53-0.92l28.98-7.76
							c0.41-0.1,0.81,0.13,0.92,0.53c0.11,0.4-0.13,0.81-0.53,0.92l-28.98,7.76C48.84,159.66,48.78,159.66,48.71,159.66z"/>
					</g>
					<g>
						<path class="st5" d="M0.75,172.52c-0.33,0-0.63-0.22-0.72-0.56c-0.11-0.4,0.13-0.81,0.53-0.92l28.98-7.76
							c0.41-0.11,0.81,0.13,0.92,0.53c0.11,0.4-0.13,0.81-0.53,0.92l-28.98,7.76C0.88,172.51,0.81,172.52,0.75,172.52z"/>
					</g>
				</g>
				<g>
					<g>
						<path class="st5" d="M193.56,120.85c-0.33,0-0.63-0.22-0.72-0.56c-0.11-0.4,0.13-0.81,0.53-0.92l28.98-7.76
							c0.41-0.1,0.81,0.13,0.92,0.53c0.11,0.4-0.13,0.81-0.53,0.92l-28.98,7.76C193.69,120.84,193.62,120.85,193.56,120.85z"/>
					</g>
					<g>
						<path class="st5" d="M241.52,108c-0.33,0-0.63-0.22-0.72-0.56c-0.11-0.4,0.13-0.81,0.53-0.92l28.98-7.76
							c0.41-0.1,0.81,0.13,0.92,0.53c0.11,0.4-0.13,0.81-0.53,0.92l-28.98,7.76C241.65,107.99,241.59,108,241.52,108z"/>
					</g>
				</g>
				<g>
					<g>
						<path class="st5" d="M112.34,223.29c-0.06,0-0.13-0.01-0.19-0.03c-0.4-0.11-0.64-0.52-0.53-0.92l7.76-28.98
							c0.11-0.4,0.52-0.64,0.92-0.53c0.4,0.11,0.64,0.52,0.53,0.92l-7.76,28.98C112.97,223.07,112.67,223.29,112.34,223.29z"/>
					</g>
					<g>
						<path class="st5" d="M99.49,271.25c-0.06,0-0.13-0.01-0.19-0.03c-0.4-0.11-0.64-0.52-0.53-0.92l7.76-28.98
							c0.11-0.4,0.52-0.64,0.92-0.53c0.4,0.11,0.64,0.52,0.53,0.92l-7.76,28.98C100.12,271.03,99.82,271.25,99.49,271.25z"/>
					</g>
				</g>
				<g>
					<g>
						<path class="st5" d="M151.15,78.44c-0.06,0-0.13-0.01-0.19-0.03c-0.4-0.11-0.64-0.52-0.53-0.92l7.76-28.98
							c0.11-0.4,0.51-0.64,0.92-0.53c0.4,0.11,0.64,0.52,0.53,0.92l-7.76,28.98C151.78,78.22,151.48,78.44,151.15,78.44z"/>
					</g>
					<g>
						<path class="st5" d="M164,30.48c-0.06,0-0.13-0.01-0.19-0.03c-0.4-0.11-0.64-0.52-0.53-0.92l7.76-28.98
							c0.11-0.4,0.51-0.63,0.92-0.53c0.4,0.11,0.64,0.52,0.53,0.92l-7.76,28.98C164.64,30.26,164.33,30.48,164,30.48z"/>
					</g>
				</g>
			</g>
		</g>
	</g>
</g>
<g id="Guide">
</g>
</svg>
