<?xml version="1.0" encoding="utf-8"?>
<!-- Generator: Adobe Illustrator 26.1.0, SVG Export Plug-In . SVG Version: 6.00 Build 0)  -->
<svg version="1.1" xmlns="http://www.w3.org/2000/svg" xmlns:xlink="http://www.w3.org/1999/xlink" x="0px" y="0px"
	 viewBox="0 0 169.84 201.91" style="enable-background:new 0 0 169.84 201.91;" xml:space="preserve">
<style type="text/css">
	.st0{fill:#FFFFFF;}
	.st1{fill:#EAD9EB;}
	.st2{fill:#95608F;}
	.st3{fill:#ED859E;}
	.st4{fill:#FAC87D;}
	.st5{fill:#554B4E;}
	.st6{fill:#F8F4E9;}
	.st7{fill:#BFA071;}
	.st8{fill:#F2DED6;}
</style>
<g id="Bg">
</g>
<g id="Graphic">
	<g id="Small_crescent_00000153669400722134009590000002586925276514880918_">
		<g id="Crescent_00000151504003349407206300000006938685196129045946_">
			<path class="st5" d="M101.24,201.91c-5.9,0-11.85-0.52-17.81-1.57c-26.55-4.68-49.69-19.42-65.15-41.51s-21.4-48.87-16.72-75.42
				c4.41-25.03,17.96-47.3,38.16-62.7C59.79,5.4,84.65-1.82,109.7,0.39c0.49,0.04,0.88,0.44,0.91,0.93
				c0.03,0.49-0.29,0.93-0.77,1.04C74.16,10.55,47,39.14,40.64,75.18c-8.7,49.35,24.37,96.57,73.71,105.27
				c18.44,3.25,37.14,0.81,54.06-7.08c0.45-0.21,0.98-0.06,1.25,0.35c0.27,0.41,0.21,0.96-0.15,1.29
				C150.57,192.53,126.39,201.91,101.24,201.91z M100.85,2C79.28,2,58.29,9.07,40.93,22.31C21.14,37.4,7.85,59.23,3.53,83.76
				c-4.59,26.02,1.23,52.28,16.39,73.93s37.84,36.1,63.86,40.69c28.62,5.05,57.3-2.48,79.63-20.69c-15.7,6.05-32.65,7.7-49.4,4.74
				c-50.43-8.89-84.23-57.16-75.33-107.59c6.13-34.75,31.18-62.72,64.61-72.8C102.47,2.01,101.66,2,100.85,2z"/>
		</g>
		<g id="Sparkling_stars_00000088839686872402237430000000235941990640825237_">
			<g id="Line_00000007388554962240803320000011857565783879925662_">
				<g>
					<path class="st5" d="M109.61,22.14c-0.41,0-0.75-0.34-0.75-0.75v-20c0-0.41,0.34-0.75,0.75-0.75s0.75,0.34,0.75,0.75v20
						C110.36,21.8,110.03,22.14,109.61,22.14z"/>
				</g>
				<g>
					<path class="st5" d="M95.14,60.28c-0.41,0-0.75-0.34-0.75-0.75V46.74c0-0.41,0.34-0.75,0.75-0.75s0.75,0.34,0.75,0.75v12.79
						C95.89,59.95,95.56,60.28,95.14,60.28z M95.14,27.49c-0.41,0-0.75-0.34-0.75-0.75v-20c0-0.41,0.34-0.75,0.75-0.75
						s0.75,0.34,0.75,0.75v20C95.89,27.15,95.56,27.49,95.14,27.49z"/>
				</g>
				<g>
					<path class="st5" d="M71.5,40.98c-0.41,0-0.75-0.34-0.75-0.75v-20c0-0.41,0.34-0.75,0.75-0.75s0.75,0.34,0.75,0.75v20
						C72.25,40.65,71.91,40.98,71.5,40.98z"/>
				</g>
			</g>
			<g id="Star_00000098220111058143814890000004123215395382096815_">
				<g>
					<polygon class="st5" points="116.43,40.2 109.61,30.07 102.79,40.2 109.61,50.34 					"/>
					<path class="st5" d="M109.61,52.13l-8.03-11.92l8.03-11.92l8.03,11.92L109.61,52.13z M104,40.2l5.62,8.34l5.62-8.34l-5.62-8.34
						L104,40.2z"/>
				</g>
				<g>
					<path class="st5" d="M71.5,72.54L60.31,55.92L71.5,39.29l11.19,16.63L71.5,72.54z M62.72,55.92l8.78,13.04l8.78-13.04
						L71.5,42.87L62.72,55.92z"/>
				</g>
				<g>
					<polygon class="st5" points="75.91,55.92 71.5,49.37 67.09,55.92 71.5,62.46 					"/>
					<path class="st5" d="M71.5,63.81l-5.31-7.89l5.31-7.89l5.31,7.89L71.5,63.81z M68,55.92l3.5,5.21l3.5-5.21l-3.5-5.21L68,55.92z
						"/>
				</g>
				<g>
					<path class="st5" d="M95.14,110.27L77.46,84.01l17.68-26.27l17.68,26.27L95.14,110.27z M79.87,84.01l15.27,22.68l15.27-22.68
						L95.14,61.32L79.87,84.01z"/>
				</g>
				<g>
					<polygon class="st5" points="103.31,84.01 95.14,71.88 86.98,84.01 95.14,96.14 					"/>
					<path class="st5" d="M95.14,97.48l-9.07-13.47l9.07-13.47l9.07,13.47L95.14,97.48z M87.88,84.01l7.26,10.79l7.26-10.79
						l-7.26-10.79L87.88,84.01z"/>
				</g>
			</g>
		</g>
	</g>
</g>
<g id="Guide">
</g>
</svg>
