<?xml version="1.0" encoding="utf-8"?>
<!-- Generator: Adobe Illustrator 26.1.0, SVG Export Plug-In . SVG Version: 6.00 Build 0)  -->
<svg version="1.1" xmlns="http://www.w3.org/2000/svg" xmlns:xlink="http://www.w3.org/1999/xlink" x="0px" y="0px"
	 viewBox="0 0 266.32 224.09" style="enable-background:new 0 0 266.32 224.09;" xml:space="preserve">
<style type="text/css">
	.st0{fill:#FFFFFF;}
	.st1{fill:#EAD9EB;}
	.st2{fill:#95608F;}
	.st3{fill:#ED859E;}
	.st4{fill:#FAC87D;}
	.st5{fill:#554B4E;}
	.st6{fill:#F8F4E9;}
	.st7{fill:#BFA071;}
	.st8{fill:#F2DED6;}
</style>
<g id="Bg">
</g>
<g id="Graphic">
	<g id="Constellation_3_00000121269744163929166920000013444353523874058882_">
		<g id="Line_00000139265386170960848820000001087482534663441056_">
			<g>
				<path class="st5" d="M156.54,211.84c-0.25,0-0.49-0.12-0.63-0.34l-29.88-45.88c-0.23-0.35-0.13-0.81,0.22-1.04
					c0.35-0.23,0.81-0.13,1.04,0.22l29.88,45.88c0.23,0.35,0.13,0.81-0.22,1.04C156.82,211.8,156.68,211.84,156.54,211.84z"/>
			</g>
			<g>
				<path class="st5" d="M198.49,173.89c-0.28,0-0.55-0.16-0.68-0.43l-15.04-31.63c-0.18-0.37-0.02-0.82,0.36-1
					c0.38-0.18,0.82-0.02,1,0.36l15.04,31.63c0.18,0.37,0.02,0.82-0.36,1C198.71,173.86,198.6,173.89,198.49,173.89z"/>
			</g>
			<g>
				<path class="st5" d="M164.63,212.75c-0.2,0-0.4-0.08-0.54-0.24c-0.29-0.3-0.27-0.78,0.03-1.06l34.73-32.79
					c0.3-0.29,0.78-0.27,1.06,0.03c0.29,0.3,0.27,0.78-0.03,1.06l-34.73,32.79C165,212.69,164.82,212.75,164.63,212.75z"/>
			</g>
			<g>
				<path class="st5" d="M225.35,84.87c-0.09,0-0.19-0.02-0.28-0.05c-0.38-0.15-0.57-0.59-0.42-0.98l27.14-67.72
					c0.15-0.38,0.59-0.57,0.98-0.42c0.38,0.15,0.57,0.59,0.42,0.98l-27.14,67.72C225.93,84.69,225.64,84.87,225.35,84.87z"/>
			</g>
			<g>
				<path class="st5" d="M183.58,136.09c-0.17,0-0.34-0.06-0.48-0.17c-0.32-0.26-0.36-0.74-0.1-1.06l41.24-49.7
					c0.26-0.32,0.74-0.36,1.06-0.1c0.32,0.26,0.36,0.74,0.1,1.06l-41.24,49.7C184,136,183.79,136.09,183.58,136.09z"/>
			</g>
			<g>
				<path class="st5" d="M127.97,161.24c-0.29,0-0.57-0.17-0.69-0.46c-0.16-0.38,0.02-0.82,0.4-0.98l50.12-21
					c0.38-0.16,0.82,0.02,0.98,0.4c0.16,0.38-0.02,0.82-0.4,0.98l-50.12,21C128.17,161.22,128.07,161.24,127.97,161.24z"/>
			</g>
			<g>
				<path class="st5" d="M25.18,169.64c-0.39,0-0.73-0.31-0.75-0.71c-0.02-0.41,0.29-0.77,0.71-0.79l96.63-5.33
					c0.38-0.04,0.77,0.29,0.79,0.71c0.02,0.41-0.29,0.77-0.71,0.79l-96.63,5.33C25.21,169.64,25.2,169.64,25.18,169.64z"/>
			</g>
		</g>
		<g id="Star_00000170959994401342328820000015412543801737428138_">
			<g>
				<path class="st5" d="M257.1,18.46c-0.95,0-1.91-0.15-2.84-0.45l0,0c-4.84-1.56-7.51-6.77-5.95-11.62
					c1.56-4.84,6.77-7.51,11.61-5.95c2.35,0.76,4.26,2.38,5.38,4.58c1.12,2.19,1.33,4.69,0.57,7.04s-2.38,4.26-4.57,5.38
					C259.97,18.12,258.54,18.46,257.1,18.46z M254.87,16.11c1.84,0.59,3.8,0.43,5.51-0.45c1.72-0.88,2.99-2.38,3.58-4.21
					c0.59-1.84,0.43-3.8-0.45-5.51c-0.88-1.72-2.38-2.99-4.22-3.58c-3.79-1.22-7.87,0.87-9.1,4.66
					C248.98,10.81,251.08,14.89,254.87,16.11L254.87,16.11z"/>
			</g>
			<g>
				<path class="st5" d="M160.63,224.09c-0.74,0-1.48-0.12-2.21-0.35l0,0c-3.76-1.21-5.84-5.26-4.62-9.02
					c1.21-3.76,5.26-5.83,9.02-4.62c1.82,0.59,3.31,1.85,4.18,3.55c0.87,1.7,1.03,3.65,0.44,5.47c-0.59,1.82-1.85,3.31-3.55,4.18
					C162.86,223.83,161.75,224.09,160.63,224.09z M160.63,211.75c-2.18,0-4.22,1.4-4.92,3.58c-0.87,2.71,0.62,5.63,3.33,6.5l0,0
					c1.31,0.43,2.71,0.31,3.94-0.32c1.23-0.63,2.14-1.7,2.56-3.01c0.42-1.31,0.31-2.71-0.32-3.94s-1.7-2.14-3.01-2.56
					C161.68,211.83,161.15,211.75,160.63,211.75z"/>
			</g>
			<g>
				<path class="st5" d="M200.48,180.4c-0.25,0-0.51-0.02-0.76-0.07c-1.17-0.2-2.19-0.85-2.88-1.82c-1.41-2-0.93-4.78,1.07-6.19
					c0.97-0.69,2.15-0.95,3.32-0.75c1.17,0.2,2.19,0.85,2.88,1.82c1.41,2,0.93,4.78-1.07,6.2
					C202.28,180.12,201.39,180.4,200.48,180.4z M200.47,173.5c-0.5,0-0.99,0.15-1.4,0.45c-1.1,0.78-1.37,2.31-0.59,3.41
					c0.38,0.53,0.94,0.89,1.58,1c0.64,0.11,1.29-0.04,1.83-0.41c1.1-0.78,1.37-2.31,0.59-3.41c-0.38-0.53-0.94-0.89-1.58-1
					C200.75,173.52,200.61,173.5,200.47,173.5z"/>
			</g>
			<g>
				<path class="st5" d="M124.83,166.35c-0.63,0-1.28-0.14-1.89-0.42c-2.22-1.04-3.17-3.7-2.13-5.92c0.51-1.07,1.4-1.89,2.52-2.29
					c1.12-0.4,2.32-0.34,3.4,0.16c2.22,1.04,3.17,3.7,2.13,5.92C128.1,165.41,126.49,166.35,124.83,166.35z M124.83,159.46
					c-0.28,0-0.56,0.05-0.83,0.15c-0.61,0.22-1.11,0.67-1.38,1.26c-0.57,1.22-0.05,2.68,1.17,3.26c1.21,0.57,2.68,0.05,3.25-1.17
					c0.57-1.22,0.05-2.68-1.17-3.25C125.54,159.54,125.19,159.46,124.83,159.46z"/>
			</g>
			<g>
				<path class="st5" d="M181.3,142.68c-0.63,0-1.28-0.14-1.89-0.42c-2.22-1.04-3.17-3.7-2.13-5.92c1.04-2.22,3.7-3.17,5.92-2.13
					c1.07,0.5,1.89,1.4,2.29,2.52c0.4,1.12,0.34,2.33-0.16,3.4C184.57,141.73,182.96,142.68,181.3,142.68z M181.31,135.79
					c-0.92,0-1.8,0.52-2.22,1.4c-0.57,1.22-0.05,2.68,1.17,3.25c1.22,0.57,2.68,0.05,3.25-1.17c0.28-0.59,0.31-1.25,0.09-1.87
					c-0.22-0.62-0.67-1.11-1.26-1.39C182.01,135.86,181.65,135.79,181.31,135.79z"/>
			</g>
			<g>
				<path class="st5" d="M237.2,85.93c-12.04-1.08-12.94-1.98-14.07-14.01c-1.08,12.04-1.98,12.94-14.01,14.07
					c12.04,1.08,12.94,1.98,14.07,14.01C224.27,87.97,225.17,87.07,237.2,85.93z"/>
				<path class="st5" d="M223.19,101c-0.52,0-0.95-0.39-1-0.91c-1.09-11.58-1.58-12.07-13.16-13.11c-0.51-0.05-0.91-0.48-0.91-0.99
					s0.39-0.95,0.91-1c11.58-1.09,12.07-1.58,13.11-13.16c0.05-0.51,0.48-0.91,0.99-0.91c0,0,0,0,0,0c0.52,0,0.95,0.39,1,0.91
					c1.09,11.58,1.58,12.07,13.16,13.11c0.51,0.05,0.91,0.48,0.91,0.99s-0.39,0.95-0.91,1c-11.58,1.09-12.07,1.58-13.11,13.16
					C224.14,100.61,223.71,101,223.19,101C223.19,101,223.19,101,223.19,101z M216.41,85.98c4.07,0.95,5.79,2.67,6.76,6.74
					c0.95-4.07,2.67-5.79,6.74-6.76c-4.07-0.95-5.79-2.67-6.76-6.73C222.19,83.28,220.48,85.01,216.41,85.98z"/>
			</g>
			<g>
				<path class="st5" d="M9.45,149.23c6.71,16.11,6.17,17.86-8.45,27.4c16.11-6.71,17.86-6.17,27.4,8.45
					c-6.71-16.11-6.17-17.86,8.45-27.4C20.73,164.39,18.98,163.85,9.45,149.23z"/>
				<path class="st5" d="M28.4,186.08c-0.33,0-0.65-0.16-0.84-0.45c-9.28-14.22-10.5-14.6-26.17-8.07c-0.48,0.2-1.03,0-1.27-0.46
					c-0.24-0.46-0.1-1.02,0.34-1.31c14.22-9.28,14.6-10.5,8.07-26.17c-0.2-0.48,0-1.03,0.46-1.27c0.46-0.24,1.02-0.1,1.31,0.34
					c9.28,14.22,10.5,14.6,26.17,8.07c0.48-0.2,1.03,0,1.27,0.46c0.24,0.46,0.1,1.02-0.34,1.31c-14.22,9.28-14.6,10.5-8.07,26.17
					c0.2,0.48,0,1.03-0.46,1.27C28.71,186.04,28.55,186.08,28.4,186.08z M14.74,171.47c3.75,0,6.41,1.89,9.75,6.21
					c-2.5-7.68-1.43-11.14,4.96-16.08c-7.68,2.5-11.14,1.43-16.08-4.96c2.5,7.68,1.43,11.14-4.96,16.08
					C10.89,171.91,12.94,171.47,14.74,171.47z"/>
			</g>
		</g>
	</g>
</g>
<g id="Guide">
</g>
</svg>
