<?xml version="1.0" encoding="utf-8"?>
<!-- Generator: Adobe Illustrator 26.1.0, SVG Export Plug-In . SVG Version: 6.00 Build 0)  -->
<svg version="1.1" xmlns="http://www.w3.org/2000/svg" xmlns:xlink="http://www.w3.org/1999/xlink" x="0px" y="0px"
	 viewBox="0 0 362.41 362.41" style="enable-background:new 0 0 362.41 362.41;" xml:space="preserve">
<style type="text/css">
	.st0{fill:#FFFFFF;}
	.st1{fill:#EAD9EB;}
	.st2{fill:#95608F;}
	.st3{fill:#ED859E;}
	.st4{fill:#FAC87D;}
	.st5{fill:#554B4E;}
	.st6{fill:#F8F4E9;}
	.st7{fill:#BFA071;}
	.st8{fill:#F2DED6;}
</style>
<g id="Bg">
</g>
<g id="Graphic">
	<g id="Multi_point_star_00000094589061696685775250000004103424863765092265_">
		<g id="Aura_00000066490954372403138410000007628135511962781352_">
			<g>
				<path class="st5" d="M181.21,15.16c-0.55,0-1-0.45-1-1V1c0-0.55,0.45-1,1-1s1,0.45,1,1v13.16
					C182.21,14.71,181.76,15.16,181.21,15.16z"/>
			</g>
			<g>
				<path class="st5" d="M181.21,362.41c-0.55,0-1-0.45-1-1v-13.16c0-0.55,0.45-1,1-1s1,0.45,1,1v13.16
					C182.21,361.97,181.76,362.41,181.21,362.41z"/>
			</g>
			<g>
				<path class="st5" d="M166.65,15.79c-0.51,0-0.95-0.39-1-0.91l-1.15-13.1c-0.05-0.55,0.36-1.04,0.91-1.08
					c0.54-0.05,1.04,0.36,1.08,0.91l1.15,13.1c0.05,0.55-0.36,1.04-0.91,1.08C166.71,15.79,166.68,15.79,166.65,15.79z"/>
			</g>
			<g>
				<path class="st5" d="M196.91,361.73c-0.51,0-0.95-0.39-1-0.91l-1.15-13.1c-0.05-0.55,0.36-1.04,0.91-1.08
					c0.56-0.05,1.04,0.36,1.08,0.91l1.15,13.1c0.05,0.55-0.36,1.04-0.91,1.08C196.97,361.73,196.94,361.73,196.91,361.73z"/>
			</g>
			<g>
				<path class="st5" d="M152.2,17.69c-0.48,0-0.9-0.34-0.98-0.83l-2.28-12.96c-0.1-0.54,0.27-1.06,0.81-1.16
					c0.54-0.1,1.06,0.27,1.16,0.81l2.28,12.96c0.1,0.54-0.27,1.06-0.81,1.16C152.31,17.69,152.25,17.69,152.2,17.69z"/>
			</g>
			<g>
				<path class="st5" d="M212.5,359.68c-0.48,0-0.9-0.34-0.98-0.83l-2.28-12.96c-0.1-0.54,0.27-1.06,0.81-1.16
					c0.54-0.1,1.06,0.27,1.16,0.81l2.28,12.96c0.1,0.54-0.27,1.06-0.81,1.16C212.61,359.67,212.56,359.68,212.5,359.68z"/>
			</g>
			<g>
				<path class="st5" d="M137.97,20.85c-0.44,0-0.84-0.29-0.96-0.74L133.6,7.4c-0.14-0.53,0.17-1.08,0.71-1.22
					c0.54-0.14,1.08,0.17,1.22,0.71l3.41,12.71c0.14,0.53-0.17,1.08-0.71,1.22C138.14,20.84,138.06,20.85,137.97,20.85z"/>
			</g>
			<g>
				<path class="st5" d="M227.85,356.27c-0.44,0-0.84-0.29-0.96-0.74l-3.41-12.71c-0.14-0.53,0.17-1.08,0.71-1.22
					c0.54-0.14,1.08,0.17,1.22,0.71l3.41,12.71c0.14,0.53-0.17,1.08-0.71,1.22C228.02,356.26,227.93,356.27,227.85,356.27z"/>
			</g>
			<g>
				<path class="st5" d="M124.07,25.23c-0.41,0-0.79-0.25-0.94-0.66l-4.5-12.36c-0.19-0.52,0.08-1.09,0.6-1.28
					c0.52-0.19,1.09,0.08,1.28,0.6l4.5,12.36c0.19,0.52-0.08,1.09-0.6,1.28C124.3,25.21,124.18,25.23,124.07,25.23z"/>
			</g>
			<g>
				<path class="st5" d="M242.84,351.55c-0.41,0-0.79-0.25-0.94-0.66l-4.5-12.36c-0.19-0.52,0.08-1.09,0.6-1.28
					c0.52-0.19,1.09,0.08,1.28,0.6l4.5,12.36c0.19,0.52-0.08,1.09-0.6,1.28C243.07,351.53,242.95,351.55,242.84,351.55z"/>
			</g>
			<g>
				<path class="st5" d="M110.61,30.81c-0.38,0-0.74-0.21-0.91-0.58l-5.56-11.92c-0.23-0.5-0.02-1.1,0.48-1.33
					c0.5-0.23,1.09-0.02,1.33,0.48l5.56,11.92c0.23,0.5,0.02,1.1-0.48,1.33C110.89,30.78,110.75,30.81,110.61,30.81z"/>
			</g>
			<g>
				<path class="st5" d="M257.37,345.53c-0.38,0-0.74-0.21-0.91-0.58l-5.56-11.92c-0.23-0.5-0.02-1.1,0.48-1.33
					c0.5-0.23,1.1-0.02,1.33,0.48l5.56,11.92c0.23,0.5,0.02,1.1-0.48,1.33C257.65,345.5,257.51,345.53,257.37,345.53z"/>
			</g>
			<g>
				<path class="st5" d="M97.68,37.54c-0.35,0-0.68-0.18-0.87-0.5l-6.58-11.39c-0.28-0.48-0.11-1.09,0.37-1.37
					c0.47-0.28,1.09-0.11,1.37,0.37l6.58,11.39c0.28,0.48,0.11,1.09-0.37,1.37C98.02,37.49,97.85,37.54,97.68,37.54z"/>
			</g>
			<g>
				<path class="st5" d="M271.31,338.27c-0.35,0-0.68-0.18-0.87-0.5l-6.58-11.39c-0.28-0.48-0.11-1.09,0.37-1.37
					c0.47-0.28,1.09-0.11,1.37,0.37l6.58,11.39c0.28,0.48,0.11,1.09-0.37,1.37C271.65,338.23,271.48,338.27,271.31,338.27z"/>
			</g>
			<g>
				<path class="st5" d="M85.39,45.37c-0.32,0-0.63-0.15-0.82-0.43l-7.55-10.78c-0.32-0.45-0.21-1.08,0.25-1.39
					c0.45-0.32,1.08-0.21,1.39,0.25l7.55,10.78c0.32,0.45,0.21,1.08-0.25,1.39C85.79,45.31,85.59,45.37,85.39,45.37z"/>
			</g>
			<g>
				<path class="st5" d="M284.57,329.82c-0.32,0-0.63-0.15-0.82-0.43l-7.55-10.78c-0.32-0.45-0.21-1.08,0.25-1.39
					c0.45-0.32,1.08-0.21,1.39,0.25l7.55,10.78c0.32,0.45,0.21,1.08-0.25,1.39C284.97,329.77,284.77,329.82,284.57,329.82z"/>
			</g>
			<g>
				<path class="st5" d="M73.83,54.24c-0.29,0-0.57-0.12-0.77-0.36L64.61,43.8c-0.36-0.42-0.3-1.05,0.12-1.41
					c0.42-0.35,1.06-0.3,1.41,0.12l8.46,10.08c0.36,0.42,0.3,1.05-0.12,1.41C74.28,54.16,74.06,54.24,73.83,54.24z"/>
			</g>
			<g>
				<path class="st5" d="M297.04,320.25c-0.29,0-0.57-0.12-0.77-0.36l-8.46-10.08c-0.36-0.42-0.3-1.05,0.12-1.41
					c0.43-0.36,1.06-0.3,1.41,0.12l8.46,10.08c0.36,0.42,0.3,1.05-0.12,1.41C297.5,320.18,297.27,320.25,297.04,320.25z"/>
			</g>
			<g>
				<path class="st5" d="M63.08,64.08c-0.26,0-0.51-0.1-0.71-0.29l-9.3-9.3c-0.39-0.39-0.39-1.02,0-1.41s1.02-0.39,1.41,0l9.3,9.3
					c0.39,0.39,0.39,1.02,0,1.41C63.59,63.99,63.34,64.08,63.08,64.08z"/>
			</g>
			<g>
				<path class="st5" d="M308.63,309.63c-0.26,0-0.51-0.1-0.71-0.29l-9.3-9.3c-0.39-0.39-0.39-1.02,0-1.41s1.02-0.39,1.41,0l9.3,9.3
					c0.39,0.39,0.39,1.02,0,1.41C309.14,309.54,308.89,309.63,308.63,309.63z"/>
			</g>
			<g>
				<path class="st5" d="M53.24,74.83c-0.23,0-0.45-0.08-0.64-0.23l-10.08-8.46c-0.42-0.35-0.48-0.99-0.12-1.41
					c0.35-0.42,0.98-0.48,1.41-0.12l10.08,8.46c0.42,0.35,0.48,0.99,0.12,1.41C53.81,74.71,53.52,74.83,53.24,74.83z"/>
			</g>
			<g>
				<path class="st5" d="M319.25,298.04c-0.23,0-0.45-0.08-0.64-0.23l-10.08-8.46c-0.42-0.35-0.48-0.99-0.12-1.41
					c0.35-0.42,0.99-0.48,1.41-0.12l10.08,8.46c0.42,0.35,0.48,0.99,0.12,1.41C319.82,297.92,319.54,298.04,319.25,298.04z"/>
			</g>
			<g>
				<path class="st5" d="M44.37,86.39c-0.2,0-0.4-0.06-0.57-0.18l-10.78-7.55c-0.45-0.32-0.56-0.94-0.25-1.39
					c0.32-0.45,0.94-0.56,1.39-0.25l10.78,7.55c0.45,0.32,0.56,0.94,0.25,1.39C44.99,86.24,44.68,86.39,44.37,86.39z"/>
			</g>
			<g>
				<path class="st5" d="M328.82,285.57c-0.2,0-0.4-0.06-0.57-0.18l-10.78-7.55c-0.45-0.32-0.56-0.94-0.25-1.39
					c0.32-0.45,0.94-0.56,1.39-0.25l10.78,7.55c0.45,0.32,0.56,0.94,0.25,1.39C329.45,285.42,329.14,285.57,328.82,285.57z"/>
			</g>
			<g>
				<path class="st5" d="M36.54,98.68c-0.17,0-0.34-0.04-0.5-0.13l-11.39-6.58c-0.48-0.28-0.64-0.89-0.37-1.37
					c0.28-0.48,0.89-0.64,1.37-0.37l11.39,6.58c0.48,0.28,0.64,0.89,0.37,1.37C37.22,98.5,36.88,98.68,36.54,98.68z"/>
			</g>
			<g>
				<path class="st5" d="M337.27,272.31c-0.17,0-0.34-0.04-0.5-0.13l-11.39-6.58c-0.48-0.28-0.64-0.89-0.37-1.37
					c0.28-0.48,0.89-0.64,1.37-0.37l11.39,6.58c0.48,0.28,0.64,0.89,0.37,1.37C337.95,272.13,337.62,272.31,337.27,272.31z"/>
			</g>
			<g>
				<path class="st5" d="M29.81,111.61c-0.14,0-0.29-0.03-0.42-0.09l-11.92-5.56c-0.5-0.23-0.72-0.83-0.48-1.33
					c0.23-0.5,0.83-0.71,1.33-0.48l11.92,5.56c0.5,0.23,0.72,0.83,0.48,1.33C30.54,111.39,30.18,111.61,29.81,111.61z"/>
			</g>
			<g>
				<path class="st5" d="M344.53,258.37c-0.14,0-0.29-0.03-0.42-0.09l-11.92-5.56c-0.5-0.23-0.72-0.83-0.48-1.33
					c0.23-0.5,0.83-0.71,1.33-0.48l11.92,5.56c0.5,0.23,0.72,0.83,0.48,1.33C345.27,258.15,344.91,258.37,344.53,258.37z"/>
			</g>
			<g>
				<path class="st5" d="M24.23,125.07c-0.11,0-0.23-0.02-0.34-0.06l-12.36-4.5c-0.52-0.19-0.79-0.76-0.6-1.28
					c0.19-0.52,0.77-0.79,1.28-0.6l12.36,4.5c0.52,0.19,0.79,0.76,0.6,1.28C25.02,124.82,24.64,125.07,24.23,125.07z"/>
			</g>
			<g>
				<path class="st5" d="M350.55,243.84c-0.11,0-0.23-0.02-0.34-0.06l-12.36-4.5c-0.52-0.19-0.79-0.76-0.6-1.28
					c0.19-0.52,0.76-0.79,1.28-0.6l12.36,4.5c0.52,0.19,0.79,0.76,0.6,1.28C351.34,243.59,350.95,243.84,350.55,243.84z"/>
			</g>
			<g>
				<path class="st5" d="M19.85,138.97c-0.09,0-0.17-0.01-0.26-0.03l-12.71-3.4c-0.53-0.14-0.85-0.69-0.71-1.22
					c0.14-0.53,0.69-0.85,1.22-0.71l12.71,3.4c0.53,0.14,0.85,0.69,0.71,1.22C20.69,138.68,20.29,138.97,19.85,138.97z"/>
			</g>
			<g>
				<path class="st5" d="M355.27,228.85c-0.09,0-0.17-0.01-0.26-0.03l-12.71-3.4c-0.53-0.14-0.85-0.69-0.71-1.22s0.7-0.85,1.22-0.71
					l12.71,3.4c0.53,0.14,0.85,0.69,0.71,1.22C356.12,228.55,355.71,228.85,355.27,228.85z"/>
			</g>
			<g>
				<path class="st5" d="M16.69,153.2c-0.06,0-0.12,0-0.17-0.02L3.56,150.9c-0.54-0.1-0.91-0.61-0.81-1.16
					c0.1-0.54,0.61-0.91,1.16-0.81l12.96,2.29c0.54,0.1,0.91,0.61,0.81,1.16C17.59,152.86,17.17,153.2,16.69,153.2z"/>
			</g>
			<g>
				<path class="st5" d="M358.68,213.5c-0.06,0-0.12,0-0.17-0.02l-12.96-2.29c-0.54-0.1-0.91-0.61-0.81-1.16
					c0.1-0.54,0.61-0.91,1.16-0.81l12.96,2.29c0.54,0.1,0.91,0.61,0.81,1.16C359.58,213.16,359.15,213.5,358.68,213.5z"/>
			</g>
			<g>
				<path class="st5" d="M14.79,167.65c-0.03,0-0.06,0-0.09,0L1.6,166.5c-0.55-0.05-0.96-0.53-0.91-1.08
					c0.05-0.55,0.55-0.96,1.08-0.91l13.11,1.15c0.55,0.05,0.96,0.53,0.91,1.08C15.74,167.25,15.3,167.65,14.79,167.65z"/>
			</g>
			<g>
				<path class="st5" d="M360.73,197.91c-0.03,0-0.06,0-0.09,0l-13.11-1.15c-0.55-0.05-0.96-0.53-0.91-1.08
					c0.05-0.55,0.55-0.96,1.08-0.91l13.11,1.15c0.55,0.05,0.96,0.53,0.91,1.08C361.68,197.52,361.24,197.91,360.73,197.91z"/>
			</g>
			<g>
				<path class="st5" d="M14.16,182.21H1c-0.55,0-1-0.45-1-1s0.45-1,1-1h13.16c0.55,0,1,0.45,1,1S14.71,182.21,14.16,182.21z"/>
			</g>
			<g>
				<path class="st5" d="M361.41,182.21h-13.16c-0.55,0-1-0.45-1-1s0.45-1,1-1h13.16c0.55,0,1,0.45,1,1S361.97,182.21,361.41,182.21
					z"/>
			</g>
			<g>
				<path class="st5" d="M1.68,197.91c-0.51,0-0.95-0.39-1-0.91c-0.05-0.55,0.36-1.04,0.91-1.08l13.11-1.15
					c0.54-0.05,1.04,0.36,1.08,0.91s-0.36,1.04-0.91,1.08l-13.11,1.15C1.74,197.91,1.71,197.91,1.68,197.91z"/>
			</g>
			<g>
				<path class="st5" d="M347.62,167.65c-0.51,0-0.95-0.39-1-0.91c-0.05-0.55,0.36-1.04,0.91-1.08l13.11-1.15
					c0.54-0.05,1.04,0.36,1.08,0.91s-0.36,1.04-0.91,1.08l-13.11,1.15C347.68,167.65,347.65,167.65,347.62,167.65z"/>
			</g>
			<g>
				<path class="st5" d="M3.74,213.5c-0.48,0-0.9-0.34-0.98-0.83c-0.1-0.54,0.27-1.06,0.81-1.16l12.96-2.29
					c0.54-0.1,1.06,0.27,1.16,0.81c0.1,0.54-0.27,1.06-0.81,1.16l-12.96,2.29C3.85,213.5,3.79,213.5,3.74,213.5z"/>
			</g>
			<g>
				<path class="st5" d="M345.72,153.2c-0.48,0-0.9-0.34-0.98-0.83c-0.1-0.54,0.27-1.06,0.81-1.16l12.96-2.29
					c0.54-0.1,1.06,0.27,1.16,0.81c0.1,0.54-0.27,1.06-0.81,1.16l-12.96,2.29C345.83,153.19,345.78,153.2,345.72,153.2z"/>
			</g>
			<g>
				<path class="st5" d="M7.14,228.85c-0.44,0-0.85-0.29-0.96-0.74c-0.14-0.53,0.17-1.08,0.71-1.22l12.71-3.4
					c0.53-0.14,1.08,0.17,1.22,0.71c0.14,0.53-0.17,1.08-0.71,1.22l-12.71,3.4C7.31,228.84,7.23,228.85,7.14,228.85z"/>
			</g>
			<g>
				<path class="st5" d="M342.56,138.97c-0.44,0-0.85-0.29-0.96-0.74c-0.14-0.53,0.17-1.08,0.71-1.22l12.71-3.4
					c0.54-0.14,1.08,0.17,1.22,0.71c0.14,0.53-0.17,1.08-0.71,1.22l-12.71,3.4C342.74,138.96,342.65,138.97,342.56,138.97z"/>
			</g>
			<g>
				<path class="st5" d="M11.87,243.84c-0.41,0-0.79-0.25-0.94-0.66c-0.19-0.52,0.08-1.09,0.6-1.28l12.36-4.5
					c0.52-0.19,1.09,0.08,1.28,0.6c0.19,0.52-0.08,1.09-0.6,1.28l-12.36,4.5C12.1,243.82,11.98,243.84,11.87,243.84z"/>
			</g>
			<g>
				<path class="st5" d="M338.18,125.07c-0.41,0-0.79-0.25-0.94-0.66c-0.19-0.52,0.08-1.09,0.6-1.28l12.36-4.5
					c0.52-0.19,1.09,0.08,1.28,0.6c0.19,0.52-0.08,1.09-0.6,1.28l-12.36,4.5C338.41,125.05,338.3,125.07,338.18,125.07z"/>
			</g>
			<g>
				<path class="st5" d="M17.88,258.37c-0.38,0-0.74-0.21-0.91-0.58c-0.23-0.5-0.02-1.1,0.48-1.33l11.92-5.56
					c0.5-0.23,1.1-0.02,1.33,0.48c0.23,0.5,0.02,1.1-0.48,1.33l-11.92,5.56C18.17,258.33,18.03,258.37,17.88,258.37z"/>
			</g>
			<g>
				<path class="st5" d="M332.61,111.61c-0.38,0-0.74-0.21-0.91-0.58c-0.23-0.5-0.02-1.1,0.48-1.33l11.92-5.56
					c0.5-0.23,1.1-0.02,1.33,0.48c0.23,0.5,0.02,1.1-0.48,1.33l-11.92,5.56C332.89,111.58,332.75,111.61,332.61,111.61z"/>
			</g>
			<g>
				<path class="st5" d="M25.14,272.31c-0.35,0-0.68-0.18-0.87-0.5c-0.28-0.48-0.11-1.09,0.37-1.37l11.39-6.58
					c0.47-0.28,1.09-0.11,1.37,0.37c0.28,0.48,0.11,1.09-0.37,1.37l-11.39,6.58C25.49,272.27,25.31,272.31,25.14,272.31z"/>
			</g>
			<g>
				<path class="st5" d="M325.88,98.68c-0.35,0-0.68-0.18-0.87-0.5c-0.28-0.48-0.11-1.09,0.37-1.37l11.39-6.58
					c0.48-0.28,1.09-0.11,1.37,0.37c0.28,0.48,0.11,1.09-0.37,1.37l-11.39,6.58C326.22,98.64,326.05,98.68,325.88,98.68z"/>
			</g>
			<g>
				<path class="st5" d="M33.59,285.57c-0.32,0-0.63-0.15-0.82-0.43c-0.32-0.45-0.21-1.08,0.25-1.39l10.78-7.55
					c0.45-0.32,1.08-0.21,1.39,0.25c0.32,0.45,0.21,1.08-0.25,1.39l-10.78,7.55C33.99,285.51,33.79,285.57,33.59,285.57z"/>
			</g>
			<g>
				<path class="st5" d="M318.05,86.39c-0.32,0-0.63-0.15-0.82-0.43c-0.32-0.45-0.21-1.08,0.25-1.39l10.78-7.55
					c0.45-0.32,1.08-0.21,1.39,0.25c0.32,0.45,0.21,1.08-0.25,1.39l-10.78,7.55C318.45,86.33,318.25,86.39,318.05,86.39z"/>
			</g>
			<g>
				<path class="st5" d="M43.16,298.04c-0.29,0-0.57-0.12-0.77-0.36c-0.36-0.42-0.3-1.05,0.12-1.41l10.08-8.46
					c0.43-0.36,1.06-0.3,1.41,0.12c0.36,0.42,0.3,1.05-0.12,1.41l-10.08,8.46C43.62,297.96,43.39,298.04,43.16,298.04z"/>
			</g>
			<g>
				<path class="st5" d="M309.18,74.83c-0.29,0-0.57-0.12-0.77-0.36c-0.36-0.42-0.3-1.05,0.12-1.41l10.08-8.46
					c0.43-0.36,1.06-0.3,1.41,0.12c0.36,0.42,0.3,1.05-0.12,1.41l-10.08,8.46C309.63,74.75,309.4,74.83,309.18,74.83z"/>
			</g>
			<g>
				<path class="st5" d="M53.78,309.63c-0.26,0-0.51-0.1-0.71-0.29c-0.39-0.39-0.39-1.02,0-1.41l9.3-9.3c0.39-0.39,1.02-0.39,1.41,0
					s0.39,1.02,0,1.41l-9.3,9.3C54.29,309.54,54.04,309.63,53.78,309.63z"/>
			</g>
			<g>
				<path class="st5" d="M299.33,64.08c-0.26,0-0.51-0.1-0.71-0.29c-0.39-0.39-0.39-1.02,0-1.41l9.3-9.3c0.39-0.39,1.02-0.39,1.41,0
					s0.39,1.02,0,1.41l-9.3,9.3C299.84,63.99,299.59,64.08,299.33,64.08z"/>
			</g>
			<g>
				<path class="st5" d="M65.37,320.25c-0.23,0-0.45-0.08-0.64-0.23c-0.42-0.35-0.48-0.99-0.12-1.41l8.46-10.08
					c0.35-0.42,0.98-0.48,1.41-0.12c0.42,0.35,0.48,0.99,0.12,1.41l-8.46,10.08C65.94,320.13,65.66,320.25,65.37,320.25z"/>
			</g>
			<g>
				<path class="st5" d="M288.58,54.24c-0.23,0-0.45-0.08-0.64-0.23c-0.42-0.35-0.48-0.99-0.12-1.41l8.46-10.08
					c0.35-0.42,0.99-0.48,1.41-0.12s0.48,0.99,0.12,1.41l-8.46,10.08C289.15,54.12,288.87,54.24,288.58,54.24z"/>
			</g>
			<g>
				<path class="st5" d="M77.84,329.82c-0.2,0-0.4-0.06-0.57-0.18c-0.45-0.32-0.56-0.94-0.25-1.39l7.55-10.78
					c0.32-0.45,0.94-0.56,1.39-0.25c0.45,0.32,0.56,0.94,0.25,1.39l-7.55,10.78C78.47,329.68,78.16,329.82,77.84,329.82z"/>
			</g>
			<g>
				<path class="st5" d="M277.02,45.37c-0.2,0-0.4-0.06-0.57-0.18c-0.45-0.32-0.56-0.94-0.25-1.39l7.55-10.78
					c0.32-0.45,0.94-0.56,1.39-0.25c0.45,0.32,0.56,0.94,0.25,1.39l-7.55,10.78C277.65,45.22,277.34,45.37,277.02,45.37z"/>
			</g>
			<g>
				<path class="st5" d="M91.1,338.27c-0.17,0-0.34-0.04-0.5-0.13c-0.48-0.28-0.64-0.89-0.37-1.37l6.58-11.39
					c0.28-0.48,0.89-0.64,1.37-0.37c0.48,0.28,0.64,0.89,0.37,1.37l-6.58,11.39C91.78,338.09,91.45,338.27,91.1,338.27z"/>
			</g>
			<g>
				<path class="st5" d="M264.73,37.54c-0.17,0-0.34-0.04-0.5-0.13c-0.48-0.28-0.64-0.89-0.37-1.37l6.58-11.39
					c0.28-0.48,0.89-0.64,1.37-0.37c0.48,0.28,0.64,0.89,0.37,1.37l-6.58,11.39C265.41,37.36,265.08,37.54,264.73,37.54z"/>
			</g>
			<g>
				<path class="st5" d="M105.05,345.53c-0.14,0-0.29-0.03-0.42-0.09c-0.5-0.23-0.72-0.83-0.48-1.33l5.56-11.92
					c0.23-0.5,0.83-0.71,1.33-0.48c0.5,0.23,0.72,0.83,0.48,1.33l-5.56,11.92C105.78,345.32,105.42,345.53,105.05,345.53z"/>
			</g>
			<g>
				<path class="st5" d="M251.8,30.81c-0.14,0-0.29-0.03-0.42-0.09c-0.5-0.23-0.72-0.83-0.48-1.33l5.56-11.92
					c0.23-0.5,0.83-0.71,1.33-0.48c0.5,0.23,0.72,0.83,0.48,1.33l-5.56,11.92C252.54,30.59,252.18,30.81,251.8,30.81z"/>
			</g>
			<g>
				<path class="st5" d="M119.57,351.55c-0.11,0-0.23-0.02-0.34-0.06c-0.52-0.19-0.79-0.76-0.6-1.28l4.5-12.36
					c0.19-0.52,0.77-0.79,1.28-0.6c0.52,0.19,0.79,0.76,0.6,1.28l-4.5,12.36C120.36,351.29,119.98,351.55,119.57,351.55z"/>
			</g>
			<g>
				<path class="st5" d="M238.34,25.23c-0.11,0-0.23-0.02-0.34-0.06c-0.52-0.19-0.79-0.76-0.6-1.28l4.5-12.36
					c0.19-0.52,0.76-0.79,1.28-0.6c0.52,0.19,0.79,0.76,0.6,1.28l-4.5,12.36C239.13,24.98,238.75,25.23,238.34,25.23z"/>
			</g>
			<g>
				<path class="st5" d="M134.57,356.27c-0.09,0-0.17-0.01-0.26-0.03c-0.53-0.14-0.85-0.69-0.71-1.22l3.41-12.71
					c0.14-0.53,0.69-0.85,1.22-0.71c0.53,0.14,0.85,0.69,0.71,1.22l-3.41,12.71C135.41,355.98,135.01,356.27,134.57,356.27z"/>
			</g>
			<g>
				<path class="st5" d="M224.44,20.85c-0.09,0-0.17-0.01-0.26-0.03c-0.53-0.14-0.85-0.69-0.71-1.22l3.41-12.71
					c0.14-0.53,0.69-0.85,1.22-0.71c0.53,0.14,0.85,0.69,0.71,1.22l-3.41,12.71C225.29,20.55,224.88,20.85,224.44,20.85z"/>
			</g>
			<g>
				<path class="st5" d="M149.92,359.68c-0.06,0-0.12,0-0.17-0.02c-0.54-0.1-0.91-0.61-0.81-1.16l2.28-12.96
					c0.09-0.54,0.62-0.91,1.16-0.81c0.54,0.1,0.91,0.61,0.81,1.16l-2.28,12.96C150.81,359.33,150.39,359.68,149.92,359.68z"/>
			</g>
			<g>
				<path class="st5" d="M210.22,17.69c-0.06,0-0.12,0-0.17-0.02c-0.54-0.1-0.91-0.61-0.81-1.16l2.28-12.96
					c0.09-0.54,0.62-0.91,1.16-0.81c0.54,0.1,0.91,0.61,0.81,1.16l-2.28,12.96C211.11,17.35,210.69,17.69,210.22,17.69z"/>
			</g>
			<g>
				<path class="st5" d="M165.5,361.73c-0.03,0-0.06,0-0.09,0c-0.55-0.05-0.96-0.53-0.91-1.08l1.15-13.1
					c0.05-0.55,0.54-0.96,1.08-0.91c0.55,0.05,0.96,0.53,0.91,1.08l-1.15,13.1C166.45,361.33,166.01,361.73,165.5,361.73z"/>
			</g>
			<g>
				<path class="st5" d="M195.77,15.79c-0.03,0-0.06,0-0.09,0c-0.55-0.05-0.96-0.53-0.91-1.08l1.15-13.1
					c0.05-0.55,0.55-0.96,1.08-0.91c0.55,0.05,0.96,0.53,0.91,1.08l-1.15,13.1C196.72,15.4,196.28,15.79,195.77,15.79z"/>
			</g>
		</g>
		<g id="Circle_00000006702488495909977630000013953050388089222809_">
			<path class="st5" d="M181.21,275.39c-51.93,0-94.18-42.25-94.18-94.19s42.25-94.19,94.18-94.19s94.19,42.25,94.19,94.19
				S233.14,275.39,181.21,275.39z M181.21,88.52c-51.11,0-92.68,41.58-92.68,92.69s41.58,92.69,92.68,92.69
				c51.11,0,92.69-41.58,92.69-92.69S232.31,88.52,181.21,88.52z"/>
		</g>
		<g id="Crescent_00000142138749600157889250000013651168633430465702_">
			<g>
				<path class="st5" d="M195.83,170.95c0-8.25-3.09-15.77-8.16-21.49c14.8,3,25.94,16.07,25.94,31.75c0,17.89-14.51,32.4-32.4,32.4
					c-9.65,0-18.3-4.22-24.24-10.91c2.09,0.42,4.25,0.65,6.46,0.65C181.33,203.35,195.83,188.84,195.83,170.95z"/>
				<path class="st5" d="M181.21,214.36c-9.46,0-18.5-4.07-24.8-11.16c-0.21-0.24-0.25-0.59-0.09-0.87c0.16-0.28,0.48-0.42,0.8-0.36
					c2.07,0.42,4.2,0.63,6.32,0.63c17.45,0,31.65-14.2,31.65-31.65c0-7.74-2.83-15.2-7.97-20.99c-0.21-0.24-0.25-0.59-0.09-0.87
					c0.16-0.28,0.48-0.42,0.8-0.36c15.38,3.11,26.54,16.78,26.54,32.49C214.36,199.49,199.49,214.36,181.21,214.36z M159.06,203.81
					c5.9,5.78,13.85,9.05,22.15,9.05c17.45,0,31.65-14.2,31.65-31.65c0-14.25-9.62-26.74-23.18-30.5c4.47,5.79,6.9,12.89,6.9,20.24
					c0,18.28-14.87,33.15-33.15,33.15C161.97,204.1,160.51,204,159.06,203.81z"/>
			</g>
			<g>
				<path class="st5" d="M163.43,204.1c-2.22,0-4.44-0.22-6.61-0.66c-0.16-0.03-0.3-0.12-0.41-0.24
					c-5.39-6.07-8.35-13.88-8.35-21.99c0-18.28,14.87-33.15,33.15-33.15c2.22,0,4.45,0.22,6.61,0.66c0.16,0.03,0.3,0.12,0.41,0.24
					c5.39,6.07,8.35,13.88,8.35,21.99C196.58,189.22,181.71,204.1,163.43,204.1z M157.37,202.01c1.99,0.39,4.03,0.58,6.07,0.58
					c17.45,0,31.65-14.2,31.65-31.65c0-7.66-2.77-15.04-7.81-20.81c-1.99-0.39-4.03-0.58-6.07-0.58c-17.45,0-31.65,14.2-31.65,31.65
					C149.56,188.87,152.33,196.25,157.37,202.01z"/>
			</g>
		</g>
		<g id="Star_00000126294944839064699810000003075915135979957666_">
			<path class="st5" d="M226.43,339.49c-0.39,0-0.76-0.23-0.92-0.61l-44.31-105.43L136.9,338.88c-0.2,0.47-0.72,0.72-1.2,0.57
				c-0.49-0.14-0.79-0.63-0.7-1.13l19.73-112.64l-94.27,64.74c-0.42,0.29-0.99,0.21-1.32-0.17c-0.33-0.38-0.32-0.96,0.02-1.33
				l77.5-84.1L22.33,208.3c-0.52,0.01-0.95-0.35-1.02-0.86c-0.07-0.5,0.25-0.98,0.74-1.11l110.66-28.85l-98.05-58.86
				c-0.44-0.26-0.61-0.81-0.39-1.27c0.21-0.46,0.74-0.7,1.22-0.54l108.69,35.56L93.52,49.85c-0.23-0.46-0.07-1.01,0.36-1.28
				c0.43-0.28,1-0.19,1.32,0.21l72.21,88.67l12.81-113.64c0.06-0.51,0.49-0.89,0.99-0.89s0.94,0.38,0.99,0.89l12.81,113.64
				l72.21-88.67c0.32-0.39,0.89-0.49,1.32-0.21c0.43,0.27,0.58,0.83,0.36,1.28l-50.66,102.52l108.69-35.56
				c0.48-0.16,1.01,0.07,1.22,0.54c0.21,0.46,0.04,1.01-0.39,1.27l-98.05,58.86l110.66,28.85c0.49,0.13,0.81,0.61,0.74,1.11
				c-0.07,0.5-0.53,0.87-1.02,0.86l-114.31-3.49l77.5,84.1c0.34,0.37,0.35,0.95,0.02,1.33c-0.33,0.38-0.9,0.46-1.32,0.17
				l-94.27-64.74l19.73,112.64c0.09,0.5-0.21,0.99-0.7,1.13C226.62,339.48,226.53,339.49,226.43,339.49z M181.21,229.87
				c0.4,0,0.77,0.24,0.92,0.61l41.79,99.44l-18.61-106.25c-0.07-0.4,0.11-0.8,0.44-1.01c0.34-0.22,0.77-0.21,1.11,0.02l88.92,61.06
				l-73.1-79.32c-0.27-0.3-0.34-0.73-0.17-1.09c0.17-0.37,0.51-0.58,0.94-0.58l107.82,3.3l-104.38-27.21
				c-0.39-0.1-0.68-0.43-0.74-0.83c-0.06-0.4,0.13-0.79,0.48-1l92.48-55.52l-102.52,33.54c-0.38,0.12-0.8,0.01-1.07-0.29
				c-0.26-0.3-0.32-0.74-0.14-1.1l47.79-96.7l-68.11,83.64c-0.25,0.31-0.67,0.44-1.06,0.33c-0.39-0.11-0.67-0.45-0.71-0.85
				L181.21,32.85l-12.08,107.19c-0.05,0.4-0.33,0.73-0.71,0.85c-0.39,0.11-0.8-0.02-1.06-0.33L99.24,56.92l47.79,96.7
				c0.18,0.36,0.12,0.79-0.14,1.1c-0.26,0.3-0.68,0.42-1.07,0.29L43.3,121.48L135.78,177c0.35,0.21,0.53,0.6,0.48,1
				c-0.06,0.4-0.35,0.72-0.74,0.83L31.14,206.03l107.82-3.3c0.38,0,0.77,0.22,0.94,0.58c0.17,0.37,0.1,0.8-0.17,1.09l-73.1,79.32
				l88.92-61.06c0.33-0.23,0.77-0.24,1.11-0.02c0.34,0.22,0.51,0.62,0.44,1.01l-18.61,106.25l41.79-99.44
				C180.44,230.11,180.8,229.87,181.21,229.87z"/>
		</g>
	</g>
</g>
<g id="Guide">
</g>
</svg>
