<?xml version="1.0" encoding="utf-8"?>
<!-- Generator: Adobe Illustrator 26.1.0, SVG Export Plug-In . SVG Version: 6.00 Build 0)  -->
<svg version="1.1" xmlns="http://www.w3.org/2000/svg" xmlns:xlink="http://www.w3.org/1999/xlink" x="0px" y="0px"
	 viewBox="0 0 242.54 597.49" style="enable-background:new 0 0 242.54 597.49;" xml:space="preserve">
<style type="text/css">
	.st0{fill:#FFFFFF;}
	.st1{fill:#EAD9EB;}
	.st2{fill:#95608F;}
	.st3{fill:#ED859E;}
	.st4{fill:#FAC87D;}
	.st5{fill:#554B4E;}
	.st6{fill:#F8F4E9;}
	.st7{fill:#BFA071;}
	.st8{fill:#F2DED6;}
</style>
<g id="Bg">
</g>
<g id="Graphic">
	<g id="Constellation_3_00000052082023140660080460000013894658652632514966_">
		<g id="Line_00000126316479230205827510000005945664114821260195_">
			<g>
				<path class="st5" d="M223.72,581.87c-0.21,0-0.41-0.08-0.56-0.25l-62.91-70.31c-0.28-0.31-0.25-0.78,0.06-1.06
					c0.31-0.28,0.78-0.25,1.06,0.06l62.91,70.31c0.28,0.31,0.25,0.78-0.06,1.06C224.07,581.81,223.9,581.87,223.72,581.87z"/>
			</g>
			<g>
				<path class="st5" d="M101.83,115.15c-0.11,0-0.23-0.03-0.33-0.08c-0.37-0.18-0.52-0.64-0.34-1.01l46.55-93.52
					c0.19-0.37,0.63-0.52,1.01-0.34c0.37,0.18,0.52,0.64,0.34,1.01l-46.55,93.52C102.38,115,102.11,115.15,101.83,115.15z"/>
			</g>
			<g>
				<path class="st5" d="M90.93,114.97c-0.2,0-0.41-0.08-0.55-0.25L17.04,34.14c-0.28-0.31-0.26-0.78,0.05-1.06
					c0.31-0.28,0.78-0.26,1.06,0.05l73.34,80.59c0.28,0.31,0.26,0.78-0.05,1.06C91.29,114.91,91.11,114.97,90.93,114.97z"/>
			</g>
			<g>
				<path class="st5" d="M130.42,241.68c-0.34,0-0.64-0.23-0.73-0.57l-27.72-114.62c-0.1-0.4,0.15-0.81,0.55-0.91
					c0.4-0.1,0.81,0.15,0.91,0.55l27.72,114.62c0.1,0.4-0.15,0.81-0.55,0.91C130.54,241.67,130.48,241.68,130.42,241.68z"/>
			</g>
			<g>
				<path class="st5" d="M84.07,365.81c-0.1,0-0.2-0.02-0.3-0.06c-0.38-0.16-0.56-0.6-0.39-0.99l49.71-115.97
					c0.16-0.38,0.6-0.56,0.99-0.39c0.38,0.16,0.56,0.6,0.39,0.99L84.75,365.36C84.63,365.64,84.36,365.81,84.07,365.81z"/>
			</g>
			<g>
				<path class="st5" d="M140.45,486.89c-0.27,0-0.53-0.15-0.67-0.41L82.45,375.34c-0.19-0.37-0.04-0.82,0.32-1.01
					c0.37-0.19,0.82-0.04,1.01,0.32l57.34,111.14c0.19,0.37,0.04,0.82-0.32,1.01C140.69,486.86,140.57,486.89,140.45,486.89z"/>
			</g>
		</g>
		<g id="Star_00000101062154341714757080000009380740426340433334_">
			<g>
				<path class="st5" d="M155.25,483.93c-6.2-5.65-10.18-16.09-15.96-33.85c2.44,18.52,3.36,29.65,0.2,37.42
					c-5.19-1.26-11.56-4.27-20.36-8.75c7.84,6.01,13.3,10.46,16.67,14.6c-5.65,6.2-16.09,10.18-33.85,15.96
					c18.52-2.44,29.65-3.36,37.42-0.2c-1.26,5.19-4.27,11.56-8.75,20.36c6.01-7.84,10.46-13.3,14.6-16.67
					c6.2,5.65,10.18,16.09,15.96,33.85c-2.44-18.52-3.36-29.65-0.2-37.42c5.19,1.26,11.56,4.27,20.36,8.75
					c-7.84-6.01-13.3-10.46-16.67-14.6c5.65-6.2,16.09-10.18,33.85-15.96c-18.52,2.44-29.65,3.36-37.42,0.2
					c1.26-5.19,4.27-11.56,8.75-20.36C163.84,475.09,159.39,480.56,155.25,483.93z"/>
				<path class="st5" d="M161.19,547.65c-0.42,0-0.81-0.27-0.95-0.69c-5.78-17.75-9.59-27.41-15.05-32.82
					c-3.79,3.27-7.97,8.39-13.76,15.94c-0.32,0.41-0.89,0.51-1.33,0.24c-0.44-0.28-0.59-0.84-0.36-1.3
					c4.32-8.49,7.13-14.47,8.45-19.29c-7.24-2.59-17.59-1.87-36.1,0.57c-0.51,0.07-0.99-0.27-1.11-0.77
					c-0.11-0.5,0.17-1.01,0.67-1.17c17.75-5.78,27.41-9.59,32.82-15.05c-3.27-3.79-8.39-7.97-15.94-13.76
					c-0.41-0.32-0.51-0.89-0.24-1.33c0.27-0.44,0.84-0.59,1.3-0.36c8.49,4.32,14.47,7.13,19.29,8.45c2.59-7.24,1.87-17.59-0.57-36.1
					c-0.07-0.51,0.27-0.99,0.77-1.11c0.5-0.11,1.01,0.17,1.17,0.67c5.78,17.75,9.59,27.41,15.05,32.82
					c3.79-3.27,7.97-8.39,13.76-15.94c0.32-0.41,0.89-0.51,1.33-0.24c0.44,0.28,0.59,0.84,0.36,1.3
					c-4.32,8.49-7.13,14.47-8.45,19.29c7.24,2.59,17.59,1.87,36.1-0.57c0.51-0.07,0.99,0.27,1.11,0.77c0.11,0.5-0.17,1.01-0.67,1.17
					c-17.75,5.78-27.41,9.59-32.82,15.05c3.27,3.79,8.39,7.97,15.94,13.76c0.41,0.32,0.51,0.89,0.24,1.33
					c-0.28,0.44-0.84,0.59-1.3,0.36c-8.49-4.32-14.47-7.13-19.29-8.45c-2.59,7.24-1.87,17.59,0.57,36.1
					c0.07,0.51-0.27,0.99-0.77,1.11C161.33,547.65,161.26,547.65,161.19,547.65z M145.23,511.8c0.24,0,0.48,0.09,0.67,0.26
					c5.02,4.58,8.6,12.04,13.09,24.88c-1.49-13.52-1.48-21.8,1.08-28.09c0.19-0.46,0.68-0.71,1.16-0.59c3.36,0.82,7.2,2.34,12,4.59
					c-4.1-3.35-7.13-6.16-9.32-8.84c-0.31-0.38-0.3-0.94,0.04-1.31c4.58-5.02,12.04-8.6,24.88-13.09
					c-13.52,1.49-21.8,1.48-28.09-1.08c-0.46-0.19-0.71-0.68-0.59-1.16c0.82-3.36,2.34-7.2,4.59-12c-3.35,4.1-6.16,7.13-8.84,9.32
					c-0.38,0.31-0.94,0.3-1.31-0.04c-5.02-4.58-8.6-12.04-13.09-24.88c1.49,13.52,1.48,21.8-1.08,28.09
					c-0.19,0.46-0.68,0.71-1.16,0.59c-3.36-0.82-7.2-2.34-12-4.59c4.1,3.35,7.13,6.16,9.32,8.84c0.31,0.38,0.3,0.94-0.04,1.31
					c-4.58,5.02-12.04,8.6-24.88,13.09c13.52-1.49,21.8-1.48,28.09,1.08c0.46,0.19,0.71,0.68,0.59,1.16c-0.82,3.36-2.34,7.2-4.59,12
					c3.35-4.1,6.16-7.13,8.84-9.32C144.78,511.88,145,511.8,145.23,511.8z"/>
			</g>
			<g>
				<path class="st5" d="M231.96,597.49c-0.34,0-0.68-0.02-1.02-0.05c-5.81-0.56-10.08-5.73-9.52-11.54s5.73-10.09,11.54-9.52
					c2.81,0.27,5.35,1.62,7.15,3.8c1.8,2.18,2.64,4.93,2.37,7.74C241.96,593.38,237.35,597.49,231.96,597.49z M231.95,578.33
					c-4.37,0-8.11,3.33-8.54,7.76c-0.45,4.71,3.01,8.91,7.72,9.36c4.69,0.45,8.91-3.01,9.36-7.72c0.22-2.28-0.46-4.51-1.92-6.28
					c-1.46-1.77-3.52-2.86-5.8-3.08C232.5,578.34,232.22,578.33,231.95,578.33z"/>
			</g>
			<g>
				<path class="st5" d="M134.26,250.11c-0.19,0-0.38-0.01-0.58-0.03c-1.59-0.15-3.03-0.92-4.05-2.15c-1.02-1.23-1.5-2.79-1.34-4.38
					c0.15-1.59,0.92-3.03,2.15-4.05c1.23-1.02,2.79-1.5,4.38-1.34c3.29,0.31,5.71,3.25,5.39,6.54
					C139.92,247.79,137.31,250.11,134.26,250.11z M134.25,240.13c-0.92,0-1.81,0.32-2.53,0.91c-0.82,0.68-1.33,1.64-1.43,2.7l0,0
					c-0.1,1.06,0.22,2.1,0.89,2.92c0.68,0.82,1.64,1.33,2.7,1.43c2.17,0.21,4.14-1.4,4.35-3.59s-1.4-4.14-3.59-4.35
					C134.5,240.14,134.38,240.13,134.25,240.13z M129.29,243.65L129.29,243.65L129.29,243.65z"/>
			</g>
			<g>
				<circle class="st5" cx="153.59" cy="11.17" r="10.17"/>
				<path class="st5" d="M153.59,22.34c-0.35,0-0.71-0.02-1.07-0.05c-6.13-0.59-10.64-6.05-10.05-12.18l0,0
					c0.28-2.97,1.71-5.65,4.01-7.55s5.21-2.79,8.17-2.5c2.97,0.28,5.65,1.71,7.55,4.01c1.9,2.3,2.79,5.2,2.5,8.17
					C164.15,18,159.28,22.34,153.59,22.34z M144.46,10.29c-0.48,5.03,3.22,9.52,8.25,10c5.02,0.48,9.52-3.22,10-8.25
					c0.23-2.44-0.5-4.82-2.05-6.71c-1.56-1.89-3.76-3.06-6.2-3.29C149.45,1.57,144.94,5.26,144.46,10.29L144.46,10.29z"/>
			</g>
			<g>
				<path class="st5" d="M10.41,36.14c-0.33,0-0.66-0.02-1-0.05C3.7,35.54-0.5,30.45,0.05,24.74l0,0c0.55-5.71,5.63-9.91,11.35-9.36
					c5.71,0.55,9.91,5.64,9.36,11.35C20.24,32.1,15.7,36.14,10.41,36.14z M2.04,24.93L2.04,24.93C1.6,29.54,4.99,33.65,9.6,34.1
					c4.61,0.43,8.72-2.95,9.17-7.56c0.44-4.61-2.95-8.72-7.56-9.16C6.61,16.94,2.48,20.32,2.04,24.93z"/>
			</g>
			<g>
				<path class="st5" d="M83.59,376.02c-0.19,0-0.38-0.01-0.58-0.03c-3.29-0.31-5.71-3.25-5.39-6.54l0,0
					c0.32-3.29,3.23-5.71,6.54-5.39c3.29,0.32,5.71,3.25,5.39,6.54C89.26,373.7,86.64,376.02,83.59,376.02z M79.62,369.65
					L79.62,369.65c-0.21,2.19,1.4,4.14,3.59,4.35c2.19,0.2,4.14-1.4,4.35-3.59c0.21-2.19-1.4-4.14-3.59-4.35
					C81.78,365.86,79.83,367.46,79.62,369.65z"/>
			</g>
			<g>
				<path class="st5" d="M67.91,118.04c24.41,0.09,26.39-1.54,30.93-25.52c-0.09,24.41,1.54,26.39,25.52,30.93
					c-24.41-0.09-26.39,1.54-30.93,25.52C93.53,124.57,91.9,122.59,67.91,118.04z"/>
				<path class="st5" d="M93.44,149.98c-0.03,0-0.06,0-0.1,0c-0.51-0.05-0.91-0.48-0.9-1c0.09-23.83-1.3-25.51-24.71-29.95
					c-0.51-0.1-0.86-0.56-0.81-1.08c0.05-0.51,0.48-0.9,1-0.9c0,0,0,0,0,0c0.61,0,1.2,0,1.78,0c22.14,0,23.84-1.9,28.17-24.71
					c0.1-0.51,0.57-0.86,1.08-0.81c0.51,0.05,0.91,0.48,0.9,1c-0.09,23.83,1.3,25.51,24.71,29.95c0.51,0.1,0.86,0.56,0.81,1.08
					c-0.05,0.51-0.48,0.9-1,0.9c0,0,0,0,0,0c-0.61,0-1.2,0-1.78,0c-22.14,0-23.84,1.9-28.17,24.71
					C94.33,149.64,93.92,149.98,93.44,149.98z M76.97,118.91c13.53,3.25,16.71,7.11,17.33,21.01c3.25-13.52,7.11-16.71,21.01-17.33
					c-13.53-3.25-16.71-7.11-17.33-21.01C94.73,115.1,90.87,118.29,76.97,118.91z"/>
			</g>
		</g>
	</g>
</g>
<g id="Guide">
</g>
</svg>
