<?xml version="1.0" encoding="utf-8"?>
<!-- Generator: Adobe Illustrator 26.1.0, SVG Export Plug-In . SVG Version: 6.00 Build 0)  -->
<svg version="1.1" xmlns="http://www.w3.org/2000/svg" xmlns:xlink="http://www.w3.org/1999/xlink" x="0px" y="0px"
	 viewBox="0 0 492.76 354.45" style="enable-background:new 0 0 492.76 354.45;" xml:space="preserve">
<style type="text/css">
	.st0{fill:#FFFFFF;}
	.st1{fill:#EAD9EB;}
	.st2{fill:#95608F;}
	.st3{fill:#ED859E;}
	.st4{fill:#FAC87D;}
	.st5{fill:#554B4E;}
	.st6{fill:#F8F4E9;}
	.st7{fill:#BFA071;}
	.st8{fill:#F2DED6;}
</style>
<g id="Bg">
</g>
<g id="Graphic">
	<g id="Planet_00000172433793842560891870000017553134177171516816_">
		<g id="Planet_00000034065283902679365410000016816499908441828259_">
			<g>
				<path class="st5" d="M246.17,354.45c-22.12,0-44.1-4.2-65.12-12.57c-34.84-13.86-64.94-38.9-84.75-70.5
					c-0.19-0.3-0.2-0.68-0.04-1c0.17-0.32,0.49-0.52,0.85-0.53c47.7-1.66,107.01-11.67,167.01-28.18
					c60-16.51,116.08-38.26,157.91-61.24c0.31-0.17,0.69-0.16,1,0.02c0.31,0.19,0.49,0.52,0.48,0.88
					c-0.85,37.29-13.9,74.2-36.75,103.94c-23.62,30.74-55.91,52.43-93.38,62.75C277.78,352.31,261.94,354.45,246.17,354.45z
					 M98.92,271.78c19.59,30.55,48.96,54.75,82.87,68.24c35.61,14.16,74.01,16.26,111.06,6.06c37.05-10.2,68.98-31.65,92.32-62.04
					c22.23-28.94,35.08-64.75,36.28-101.03c-41.8,22.74-97.39,44.22-156.81,60.58C205.23,259.95,146.46,269.94,98.92,271.78z"/>
			</g>
			<g>
				<path class="st5" d="M83,272.1c-48.37,0-77.4-9.54-82.28-27.27c-5.34-19.4,19.18-45.17,69.05-72.57c0.31-0.17,0.69-0.16,1,0.02
					c0.3,0.19,0.49,0.52,0.48,0.88c-0.11,4.7-0.02,9.47,0.25,14.17c0.02,0.35-0.14,0.69-0.43,0.88
					c-21.16,14.49-30.95,27.22-28.31,36.81c2.53,9.19,16.46,15.05,40.28,16.93c41.32,3.27,106.52-5.93,174.38-24.6
					c67.86-18.68,128.58-44.13,162.42-68.09c19.5-13.8,28.47-25.96,25.94-35.16c-2.64-9.59-17.56-15.51-43.16-17.14
					c-0.35-0.02-0.66-0.23-0.82-0.54c-2.16-4.16-4.52-8.3-7.03-12.3c-0.19-0.3-0.2-0.68-0.04-1c0.17-0.32,0.49-0.52,0.85-0.53
					c56.86-1.98,91.12,7.62,96.46,27.02c5.34,19.4-19.18,45.17-69.05,72.57c-41.96,23.05-98.2,44.86-158.34,61.41
					c-60.14,16.55-119.62,26.59-167.47,28.25C92.28,272.02,87.55,272.1,83,272.1z M69.22,174.85C21.95,201.06-2.3,226.34,2.65,244.3
					c5,18.15,39.43,27.46,94.46,25.55c47.7-1.66,107.01-11.67,167.01-28.18c60-16.51,116.08-38.26,157.91-61.24
					c48.26-26.51,73.08-52.13,68.08-70.28c-4.94-17.96-38.7-27.27-92.73-25.61c2.1,3.42,4.09,6.93,5.94,10.47
					c26.18,1.74,41.53,8.15,44.4,18.57c2.77,10.08-6.46,22.98-26.71,37.32c-34.02,24.08-94.97,49.65-163.04,68.38
					s-133.53,27.95-175.07,24.67c-24.73-1.96-39.27-8.32-42.05-18.4c-2.87-10.41,7.04-23.78,28.64-38.67
					C69.25,182.89,69.17,178.85,69.22,174.85z"/>
			</g>
			<g>
				<path class="st5" d="M100.75,244.6c-6.35,0-12.32-0.22-17.87-0.65c-0.38-0.03-0.71-0.27-0.85-0.62
					c-2.51-6.27-4.68-12.7-6.44-19.09c-3.31-12.01-5.35-24.39-6.08-36.78c-0.28-4.75-0.37-9.57-0.26-14.33
					c0.85-37.29,13.9-74.2,36.75-103.94c23.62-30.74,55.91-52.43,93.38-62.75c37.47-10.31,76.32-8.19,112.33,6.13
					c34.84,13.86,64.94,38.9,84.75,70.5c2.53,4.04,4.93,8.23,7.11,12.44l0,0c5.72,11.02,10.29,22.7,13.6,34.71
					c1.76,6.4,3.19,13.03,4.24,19.7c0.06,0.38-0.1,0.75-0.41,0.97c-34.02,24.08-94.97,49.65-163.04,68.38
					C198.97,235.51,141.95,244.6,100.75,244.6z M83.65,242c41.37,3.13,106.24-6.07,173.76-24.65
					c67.52-18.58,127.97-43.88,161.91-67.73c-1.03-6.39-2.4-12.74-4.09-18.87c-3.27-11.88-7.79-23.42-13.44-34.32l0,0
					c-2.16-4.16-4.52-8.3-7.03-12.3c-19.59-31.25-49.35-56-83.8-69.71C275.36,0.26,236.95-1.84,199.91,8.36
					c-37.05,10.2-68.98,31.65-92.32,62.04c-22.59,29.4-35.49,65.9-36.33,102.76c-0.11,4.7-0.02,9.47,0.25,14.17
					c0.72,12.25,2.74,24.49,6.01,36.37C79.2,229.82,81.27,235.98,83.65,242z"/>
			</g>
		</g>
		<g id="Dot_00000090286200462527480670000012879349576810425217_">
			<g>
				<path class="st5" d="M296.07,37.82c0.11,1.14,0.66,2.17,1.55,2.89c0.88,0.72,2,1.06,3.14,0.95c1.14-0.11,2.17-0.66,2.89-1.55
					c0.73-0.88,1.06-2,0.95-3.14c-0.14-1.46-1.01-2.68-2.2-3.33c-0.73-0.4-1.59-0.6-2.48-0.51
					C297.56,33.36,295.84,35.47,296.07,37.82z"/>
			</g>
			<g>
				<path class="st5" d="M260.75,31.04c1.84,1.16,4.26,0.61,5.42-1.22c0.56-0.89,0.74-1.94,0.51-2.96
					c-0.23-1.02-0.85-1.89-1.73-2.45c-0.07-0.04-0.14-0.08-0.21-0.12c-0.84-0.46-1.81-0.6-2.75-0.39c-1.02,0.23-1.9,0.85-2.46,1.73
					C258.37,27.45,258.91,29.88,260.75,31.04z"/>
			</g>
			<g>
				<path class="st5" d="M272.25,45.22c0.18,1.87,1.86,3.24,3.73,3.06c1.87-0.18,3.24-1.85,3.06-3.73c-0.11-1.16-0.8-2.13-1.75-2.65
					c-0.58-0.32-1.26-0.47-1.97-0.4C273.44,41.68,272.07,43.35,272.25,45.22z"/>
			</g>
			<g>
				<path class="st5" d="M232.78,30.01c0.17,0.76,0.63,1.41,1.29,1.82c0.66,0.42,1.44,0.55,2.2,0.38c0.76-0.17,1.41-0.63,1.82-1.29
					c0.42-0.66,0.55-1.44,0.38-2.2c-0.17-0.76-0.63-1.41-1.29-1.82c-0.05-0.03-0.1-0.06-0.16-0.09c-0.62-0.34-1.34-0.45-2.04-0.29
					c-0.76,0.17-1.41,0.63-1.82,1.29C232.74,28.47,232.61,29.25,232.78,30.01z"/>
			</g>
			<g>
				<path class="st5" d="M290.79,309.88c0.55,1,1.46,1.73,2.56,2.05c1.1,0.32,2.26,0.19,3.26-0.37c1-0.55,1.73-1.46,2.05-2.56
					c0.32-1.1,0.19-2.26-0.37-3.26c-0.71-1.28-1.98-2.06-3.34-2.19c-0.83-0.08-1.69,0.08-2.48,0.51
					C290.41,305.21,289.65,307.82,290.79,309.88z"/>
			</g>
			<g>
				<path class="st5" d="M272.24,330.36c0.91,1.65,2.99,2.24,4.63,1.34c1.65-0.91,2.24-2.98,1.34-4.63
					c-0.56-1.02-1.58-1.64-2.66-1.74c-0.66-0.06-1.35,0.06-1.97,0.41C271.93,326.64,271.33,328.71,272.24,330.36z"/>
			</g>
			<g>
				<path class="st5" d="M229.97,331.99c0.46,0.63,1.13,1.04,1.9,1.17c0.77,0.13,1.54-0.06,2.17-0.52c0.63-0.46,1.04-1.13,1.17-1.9
					c0.12-0.77-0.06-1.54-0.52-2.17c-0.46-0.63-1.13-1.04-1.9-1.17c-0.06-0.01-0.12-0.02-0.18-0.02c-0.71-0.07-1.41,0.12-1.99,0.54
					c-0.63,0.46-1.04,1.13-1.17,1.9C229.33,330.59,229.52,331.36,229.97,331.99z"/>
			</g>
		</g>
		<g id="Line_00000127741154201447205550000016279249916308525210_">
			<g>
				<path class="st5" d="M255.1,317.09c-36.02,0-65.63-18.19-84.21-33.54c-0.32-0.26-0.36-0.74-0.1-1.06
					c0.27-0.32,0.74-0.36,1.06-0.1c18.39,15.19,47.69,33.2,83.26,33.2c0.38,0,0.75,0,1.12-0.01c0.4-0.03,0.75,0.33,0.76,0.74
					c0,0.41-0.33,0.75-0.74,0.76C255.86,317.09,255.48,317.09,255.1,317.09z"/>
			</g>
			<g>
				<path class="st5" d="M128.91,231.38c-0.27,0-0.53-0.14-0.66-0.39c-7.17-13.28-12.63-27.13-16.23-41.18
					c-0.1-0.4,0.14-0.81,0.54-0.91c0.39-0.1,0.81,0.14,0.91,0.54c3.57,13.93,8.99,27.67,16.09,40.84c0.2,0.36,0.06,0.82-0.3,1.02
					C129.15,231.35,129.03,231.38,128.91,231.38z"/>
			</g>
			<g>
				<path class="st5" d="M109.92,177.99c-0.35,0-0.67-0.25-0.74-0.61c-1.76-9.45-2.61-18.9-2.52-28.1c0-0.41,0.34-0.74,0.75-0.74
					c0,0,0,0,0.01,0c0.41,0,0.75,0.34,0.74,0.76c-0.09,9.1,0.75,18.46,2.49,27.81c0.08,0.41-0.19,0.8-0.6,0.88
					C110.02,177.99,109.97,177.99,109.92,177.99z"/>
			</g>
			<g>
				<path class="st5" d="M170.97,305.55c-0.13,0-0.27-0.04-0.39-0.11c-2.95-1.83-5.85-3.75-8.62-5.69
					c-0.34-0.24-0.42-0.71-0.18-1.04c0.24-0.34,0.71-0.42,1.04-0.18c2.75,1.93,5.62,3.83,8.55,5.65c0.35,0.22,0.46,0.68,0.24,1.03
					C171.47,305.42,171.22,305.55,170.97,305.55z"/>
			</g>
			<g>
				<path class="st5" d="M153.82,293.45c-0.17,0-0.33-0.05-0.47-0.17c-6.76-5.41-12.96-11.27-18.43-17.4
					c-0.28-0.31-0.25-0.78,0.06-1.06c0.31-0.28,0.78-0.25,1.06,0.06c5.42,6.07,11.56,11.87,18.25,17.23
					c0.32,0.26,0.38,0.73,0.12,1.05C154.25,293.35,154.04,293.45,153.82,293.45z"/>
			</g>
			<g>
				<path class="st5" d="M111.17,237.36c-0.29,0-0.57-0.17-0.69-0.45c-3.19-7.39-6.2-15.66-9.21-25.29c-0.12-0.4,0.1-0.82,0.49-0.94
					c0.39-0.12,0.82,0.1,0.94,0.49c2.99,9.58,5.98,17.81,9.15,25.15c0.16,0.38-0.01,0.82-0.39,0.99
					C111.37,237.34,111.27,237.36,111.17,237.36z"/>
			</g>
			<g>
				<path class="st5" d="M236.81,293.08c-0.05,0-0.1,0-0.15-0.01c-12.42-2.53-24.38-7.84-34.59-15.34
					c-0.33-0.25-0.41-0.71-0.16-1.05c0.25-0.33,0.71-0.41,1.05-0.16c10.04,7.38,21.79,12.59,34,15.08c0.41,0.08,0.67,0.48,0.59,0.88
					C237.47,292.83,237.15,293.08,236.81,293.08z"/>
			</g>
			<g>
				<path class="st5" d="M127.61,160.12c-0.36,0-0.68-0.26-0.74-0.63c-1.43-9.11-1.91-18.4-1.42-27.6c0.02-0.41,0.37-0.75,0.79-0.71
					c0.41,0.02,0.73,0.38,0.71,0.79c-0.48,9.1-0.01,18.28,1.41,27.29c0.06,0.41-0.22,0.79-0.62,0.86
					C127.69,160.11,127.65,160.12,127.61,160.12z"/>
			</g>
			<g>
				<path class="st5" d="M404.46,150.03c-0.35,0-0.66-0.24-0.73-0.59c-1.72-7.95-4.18-15.75-7.32-23.16
					c-0.16-0.38,0.02-0.82,0.4-0.98c0.38-0.16,0.82,0.02,0.98,0.4c3.17,7.5,5.66,15.38,7.4,23.43c0.09,0.4-0.17,0.8-0.58,0.89
					C404.57,150.02,404.51,150.03,404.46,150.03z"/>
			</g>
			<g>
				<path class="st5" d="M392.09,116.21c-0.27,0-0.53-0.14-0.66-0.4c-4.87-9.13-10.95-17.9-18.09-26.06
					c-0.27-0.31-0.24-0.79,0.07-1.06c0.31-0.27,0.79-0.24,1.06,0.07c7.21,8.25,13.37,17.11,18.29,26.34
					c0.19,0.37,0.06,0.82-0.31,1.01C392.33,116.18,392.21,116.21,392.09,116.21z"/>
			</g>
			<g>
				<path class="st5" d="M364.27,79.79c-0.19,0-0.38-0.07-0.53-0.22c-5.2-5.16-11.01-10.42-17.75-16.08
					c-0.32-0.27-0.36-0.74-0.09-1.06s0.74-0.36,1.06-0.09c6.77,5.69,12.61,10.97,17.84,16.16c0.29,0.29,0.3,0.77,0,1.06
					C364.66,79.72,364.46,79.79,364.27,79.79z"/>
			</g>
			<g>
				<path class="st5" d="M377.09,145.33c-0.28,0-0.56-0.16-0.68-0.44c-1.59-3.49-3.37-6.97-5.28-10.34
					c-0.2-0.36-0.08-0.82,0.28-1.02c0.36-0.21,0.82-0.08,1.02,0.28c1.93,3.41,3.73,6.92,5.34,10.45c0.17,0.38,0.01,0.82-0.37,0.99
					C377.3,145.31,377.19,145.33,377.09,145.33z"/>
			</g>
			<g>
				<path class="st5" d="M365.99,117.73c-0.25,0-0.5-0.13-0.64-0.36c-14.5-24.05-26.68-39.3-52.98-55.92
					c-0.35-0.22-0.46-0.68-0.23-1.03c0.22-0.35,0.68-0.46,1.03-0.23c26.55,16.78,38.84,32.16,53.46,56.41
					c0.21,0.35,0.1,0.82-0.25,1.03C366.26,117.7,366.12,117.73,365.99,117.73z"/>
			</g>
			<g>
				<path class="st5" d="M365.84,165.44c-0.29,0-0.58-0.17-0.69-0.46c-0.29-0.7-0.61-1.53-0.97-2.45
					c-3.11-7.97-8.89-22.8-21.72-33.18c-0.32-0.26-0.37-0.73-0.11-1.05c0.26-0.32,0.73-0.37,1.05-0.11
					c13.14,10.63,19.02,25.71,22.18,33.8c0.36,0.91,0.67,1.73,0.96,2.43c0.16,0.38-0.03,0.82-0.41,0.98
					C366.03,165.42,365.93,165.44,365.84,165.44z"/>
			</g>
			<g>
				<path class="st5" d="M56.9,258.44c-11.72,0-32.52-3.97-39.51-14.75c-3.08-4.75-3.22-10.3-0.41-16.48
					c0.17-0.38,0.62-0.54,0.99-0.37c0.38,0.17,0.54,0.62,0.37,0.99c-2.58,5.69-2.48,10.75,0.3,15.04
					c6.74,10.39,27.2,14.17,38.58,14.07c0.38,0.03,0.75,0.33,0.75,0.75c0,0.41-0.33,0.75-0.75,0.75
					C57.12,258.44,57.01,258.44,56.9,258.44z"/>
			</g>
			<g>
				<path class="st5" d="M45.36,247.13c-0.07,0-0.13-0.01-0.2-0.03c-7.71-2.12-14.45-4.3-18.91-9.66c-0.27-0.32-0.22-0.79,0.1-1.06
					c0.32-0.27,0.79-0.22,1.06,0.1c4.18,5.03,10.7,7.13,18.16,9.17c0.4,0.11,0.63,0.52,0.53,0.92
					C45.99,246.92,45.69,247.13,45.36,247.13z"/>
			</g>
			<g>
				<path class="st5" d="M86.97,260.83c-6.54,0-13.08-0.22-19.59-0.66c-0.41-0.03-0.73-0.39-0.7-0.8c0.03-0.41,0.39-0.72,0.8-0.7
					c15.69,1.07,31.58,0.84,47.23-0.67c0.41-0.04,0.78,0.26,0.82,0.67c0.04,0.41-0.26,0.78-0.67,0.82
					C105.61,260.38,96.29,260.83,86.97,260.83z"/>
			</g>
			<g>
				<path class="st5" d="M471.58,131.7c-0.14,0-0.28-0.04-0.41-0.12c-0.35-0.23-0.45-0.69-0.22-1.04
					c3.58-5.51,7.11-13.58,3.58-20.72c-2.2-4.46-6.27-7.12-14.06-9.18c-0.4-0.11-0.64-0.52-0.53-0.92s0.52-0.64,0.92-0.53
					c6.03,1.6,12.03,3.92,15.02,9.97c3.84,7.77,0.12,16.36-3.67,22.2C472.07,131.58,471.83,131.7,471.58,131.7z"/>
			</g>
			<g>
				<path class="st5" d="M425.38,166.59c-0.26,0-0.51-0.13-0.65-0.37c-0.21-0.36-0.09-0.82,0.26-1.03
					c13.05-7.76,25.63-16.57,37.38-26.18c0.32-0.26,0.79-0.22,1.05,0.11c0.26,0.32,0.22,0.79-0.11,1.05
					c-11.81,9.66-24.45,18.51-37.57,26.31C425.65,166.55,425.51,166.59,425.38,166.59z"/>
			</g>
			<g>
				<path class="st5" d="M452.54,137.03c-0.25,0-0.5-0.13-0.64-0.36c-0.22-0.35-0.11-0.81,0.24-1.03c3.27-2.02,6.33-5.11,8.85-8.92
					c2.52-3.83,4.68-9.74,3.16-14.87c-0.12-0.4,0.11-0.81,0.5-0.93c0.4-0.12,0.81,0.11,0.93,0.5c2.1,7.08-2.03,14.13-3.34,16.13
					c-2.63,4-5.85,7.24-9.31,9.37C452.81,136.99,452.67,137.03,452.54,137.03z"/>
			</g>
			<g>
				<path class="st5" d="M76.37,251.45c0,0-0.01,0-0.01,0c-7.61-0.11-15.28-0.81-22.8-2.08c-0.41-0.07-0.68-0.46-0.61-0.86
					c0.07-0.41,0.46-0.69,0.86-0.61c7.44,1.26,15.03,1.95,22.57,2.06c0.41,0.01,0.75,0.35,0.74,0.76
					C77.11,251.12,76.78,251.45,76.37,251.45z"/>
			</g>
		</g>
	</g>
</g>
<g id="Guide">
</g>
</svg>
