<?xml version="1.0" encoding="utf-8"?>
<!-- Generator: Adobe Illustrator 26.1.0, SVG Export Plug-In . SVG Version: 6.00 Build 0)  -->
<svg version="1.1" xmlns="http://www.w3.org/2000/svg" xmlns:xlink="http://www.w3.org/1999/xlink" x="0px" y="0px"
	 viewBox="0 0 569.76 204.12" style="enable-background:new 0 0 569.76 204.12;" xml:space="preserve">
<style type="text/css">
	.st0{fill:#FFFFFF;}
	.st1{fill:#EAD9EB;}
	.st2{fill:#95608F;}
	.st3{fill:#ED859E;}
	.st4{fill:#FAC87D;}
	.st5{fill:#554B4E;}
	.st6{fill:#F8F4E9;}
	.st7{fill:#BFA071;}
	.st8{fill:#F2DED6;}
</style>
<g id="Bg">
</g>
<g id="Graphic">
	<g id="Cloud_3_00000073704233531379553590000016897347342235073422_">
		<g id="Line_00000037657695423611091320000009409791939735719603_">
			<g>
				<path class="st5" d="M278.19,58.33c-0.38,0-0.7-0.28-0.74-0.67c-1.22-11.07-11.68-17.99-20.91-18.88
					c-7.61-0.73-14.89,1.25-19.96,5.45c-0.32,0.26-0.79,0.22-1.06-0.1c-0.26-0.32-0.22-0.79,0.1-1.06
					c5.38-4.45,13.05-6.57,21.06-5.79c11.54,1.12,21.1,9.81,22.25,20.21c0.05,0.41-0.25,0.78-0.66,0.83
					C278.24,58.33,278.21,58.33,278.19,58.33z"/>
			</g>
			<g>
				<path class="st5" d="M316.19,126.4c-0.22,0-0.44-0.1-0.58-0.28c-6.72-8.32-9.98-19.2-8.95-29.84c0.04-0.41,0.41-0.73,0.82-0.67
					c0.41,0.04,0.71,0.41,0.67,0.82c-0.99,10.26,2.15,20.74,8.63,28.76c0.26,0.32,0.21,0.79-0.11,1.05
					C316.52,126.35,316.36,126.4,316.19,126.4z"/>
			</g>
			<g>
				<path class="st5" d="M227.91,176.4c-0.15,0-0.3-0.04-0.43-0.14c-6.72-4.8-12.35-11.02-16.27-18c-0.2-0.36-0.08-0.82,0.29-1.02
					c0.36-0.2,0.82-0.07,1.02,0.29c3.82,6.78,9.29,12.84,15.84,17.51c0.34,0.24,0.42,0.71,0.17,1.05
					C228.37,176.29,228.14,176.4,227.91,176.4z"/>
			</g>
			<g>
				<path class="st5" d="M270.87,176.18c-0.41,0-0.74-0.33-0.75-0.74c-0.01-0.42,0.32-0.76,0.74-0.76c7.26-0.11,14.47-1.7,20.85-4.6
					c0.38-0.17,0.82,0,0.99,0.37c0.17,0.38,0,0.82-0.37,0.99c-6.57,2.99-13.98,4.62-21.44,4.74
					C270.88,176.18,270.87,176.18,270.87,176.18z"/>
			</g>
			<g>
				<path class="st5" d="M249.05,171.93c-0.1,0-0.2-0.02-0.3-0.06c-15.24-6.58-26.8-20.07-30.92-36.06c-0.1-0.4,0.14-0.81,0.54-0.91
					c0.4-0.1,0.81,0.14,0.91,0.54c3.95,15.32,15.47,28.75,30.07,35.06c0.38,0.16,0.55,0.61,0.39,0.99
					C249.62,171.76,249.34,171.93,249.05,171.93z"/>
			</g>
			<g>
				<path class="st5" d="M353.65,139.96c-5.99,0-12.16-2.34-17.43-6.62c-4.48-3.64-8.39-8.73-11.63-15.13
					c-3.37-6.64-4.91-12.56-4.72-18.09c0.24-6.89,3.51-13.19,8.53-16.42c0.35-0.22,0.81-0.12,1.04,0.22
					c0.22,0.35,0.12,0.81-0.22,1.04c-4.62,2.97-7.62,8.8-7.84,15.21c-0.18,5.27,1.31,10.95,4.55,17.36
					c3.15,6.21,6.93,11.14,11.24,14.64c5.12,4.16,11.12,6.42,16.88,6.28c0.42,0.01,0.76,0.32,0.76,0.74
					c0.01,0.41-0.32,0.76-0.74,0.76C353.93,139.96,353.79,139.96,353.65,139.96z"/>
			</g>
			<g>
				<path class="st5" d="M383.71,65.29c-0.37,0-0.69-0.27-0.74-0.64c-1.4-9.73-6.17-18.75-13.41-25.39c-3-2.75-6.34-5.06-10.45-7.68
					c-0.35-0.22-0.45-0.69-0.23-1.04c0.22-0.35,0.69-0.45,1.04-0.23c3.36,2.15,7.24,4.71,10.66,7.84
					c7.5,6.88,12.43,16.21,13.88,26.28c0.06,0.41-0.22,0.79-0.63,0.85C383.78,65.28,383.75,65.29,383.71,65.29z"/>
			</g>
			<g>
				<path class="st5" d="M287.38,43.83c-0.06,0-0.11-0.01-0.17-0.02c-0.27-0.06-0.49-0.28-0.56-0.55
					c-2.65-10.67-14.84-18.21-25.57-15.82c-0.4,0.08-0.8-0.16-0.9-0.57c-0.09-0.4,0.17-0.81,0.57-0.9
					c11.22-2.49,23.46,4.71,26.96,15.58c15.1-16.89,39.62-24.14,61.5-18.06c0.4,0.11,0.63,0.52,0.52,0.92
					c-0.11,0.4-0.53,0.63-0.92,0.52c-21.42-5.96-46.45,1.7-60.86,18.63C287.81,43.74,287.6,43.83,287.38,43.83z"/>
			</g>
			<g>
				<path class="st5" d="M159.54,105.12c-0.1,0-0.2-0.02-0.3-0.06c-0.38-0.17-0.55-0.61-0.38-0.99
					c7.6-17.27,16.11-23.97,28.25-29.71c0.37-0.18,0.82-0.02,1,0.36c0.18,0.37,0.02,0.82-0.36,1c-11.81,5.59-20.1,12.12-27.51,28.96
					C160.1,104.95,159.82,105.12,159.54,105.12z"/>
			</g>
			<g>
				<path class="st5" d="M166.75,133.34c-0.03,0-0.05,0-0.08,0c-0.41-0.04-0.71-0.41-0.67-0.82c1.31-13.12,7.39-25.74,17.1-35.52
					c0.29-0.29,0.77-0.3,1.06,0s0.3,0.77,0,1.06c-9.47,9.54-15.39,21.83-16.67,34.62C167.45,133.05,167.13,133.34,166.75,133.34z"/>
			</g>
			<g>
				<path class="st5" d="M193.22,90.45c-0.25,0-0.49-0.12-0.63-0.34c-0.23-0.35-0.13-0.81,0.22-1.04c3.55-2.31,7.32-4.21,11.2-5.64
					c0.39-0.14,0.82,0.06,0.96,0.45c0.14,0.39-0.06,0.82-0.45,0.96c-3.78,1.39-7.45,3.24-10.9,5.49
					C193.5,90.41,193.36,90.45,193.22,90.45z"/>
			</g>
			<g>
				<path class="st5" d="M166.98,177.71c-5.66,0-11.59-2.49-16.34-7.11c-0.3-0.29-0.3-0.76-0.01-1.06c0.29-0.29,0.76-0.3,1.06-0.01
					c4.77,4.64,13.26,8.87,21.5,5.49c0.38-0.16,0.82,0.03,0.98,0.41c0.16,0.38-0.03,0.82-0.41,0.98
					C171.61,177.28,169.32,177.71,166.98,177.71z"/>
			</g>
			<g>
				<path class="st5" d="M145.61,164.65c-0.23,0-0.46-0.11-0.61-0.31l-6.29-8.7c-14.4,10.33-32.58,1.89-47.23-4.92
					c-2.64-1.23-5.13-2.39-7.51-3.4c-0.38-0.16-0.56-0.6-0.4-0.98c0.16-0.38,0.61-0.56,0.98-0.4c2.4,1.02,4.91,2.19,7.56,3.42
					c14.49,6.74,32.53,15.12,46.31,4.63c0.16-0.12,0.36-0.17,0.56-0.15c0.2,0.03,0.38,0.14,0.5,0.3l6.73,9.31
					c0.24,0.34,0.17,0.8-0.17,1.05C145.91,164.61,145.76,164.65,145.61,164.65z"/>
			</g>
			<g>
				<path class="st5" d="M75.84,144.32c-0.07,0-0.14-0.01-0.21-0.03c-8.03-2.33-16.97-3.32-26.57-2.96
					c-0.4,0.05-0.76-0.31-0.78-0.72c-0.02-0.41,0.31-0.76,0.72-0.78c9.76-0.38,18.86,0.65,27.05,3.02c0.4,0.12,0.63,0.53,0.51,0.93
					C76.47,144.1,76.17,144.32,75.84,144.32z"/>
			</g>
			<g>
				<path class="st5" d="M128.63,60.1c-0.26,0-0.52-0.14-0.65-0.38c-0.2-0.36-0.08-0.82,0.29-1.02c10.53-5.94,23.67-6.89,39.03-2.83
					c0.4,0.11,0.64,0.52,0.53,0.92s-0.51,0.64-0.92,0.53C151.94,53.36,139.18,54.26,129,60C128.88,60.07,128.76,60.1,128.63,60.1z"
					/>
			</g>
			<g>
				<path class="st5" d="M103.76,115.16c-0.32,0-0.62-0.21-0.72-0.53c-5.61-18.17,1.69-39.57,17.36-50.89
					c0.34-0.25,0.8-0.17,1.05,0.17c0.24,0.34,0.17,0.8-0.17,1.05c-15.16,10.96-22.23,31.66-16.8,49.23c0.12,0.4-0.1,0.82-0.5,0.94
					C103.91,115.15,103.84,115.16,103.76,115.16z"/>
			</g>
		</g>
		<g id="Stroke_00000097496359090193639160000013844436439236658075_">
			<g>
				<path class="st5" d="M170.02,192.03c-4.56,0-8.69-0.55-11.49-1.21c-8.53-2.02-13.82-7.32-19.12-14.66
					c-0.11-0.15-0.31-0.46-0.59-0.88c-2.78-4.24-3.99-5.6-4.51-5.93c-18.91,7.52-35.77-0.21-52.09-7.7
					c-11.05-5.07-22.47-10.3-34.61-10.93c-14.9-0.77-32.05-0.93-46.29,3.73c-0.46,0.15-0.96-0.05-1.19-0.47
					c-0.23-0.42-0.12-0.95,0.25-1.26c24.34-19.55,57.15-28.78,88.12-24.86c-4.4-10.14-5.94-21.97-4.33-33.51
					c1.17-8.41,3.91-16.68,8.14-24.58c11.58-21.61,33.71-35.03,56.46-34.17c4.88,0.18,9.2,0.97,12.83,2.34
					c1.77,0.67,3.2,1.57,4.66,2.74c0.3-11.47,7.42-23.44,14.77-29.75c8.9-7.64,20.81-10.79,31.88-8.41
					c9.95,2.13,17.55,8.11,20.85,16.4c0.21,0.51-0.04,1.09-0.56,1.3c-0.51,0.21-1.09-0.05-1.3-0.56
					c-3.1-7.77-9.99-13.17-19.42-15.19c-10.46-2.24-21.73,0.74-30.15,7.98c-8.55,7.34-14.59,20.4-14.04,30.37
					c0.02,0.4-0.2,0.78-0.57,0.96c-0.37,0.17-0.8,0.11-1.1-0.16c-1.94-1.75-3.58-3-5.72-3.81c-3.43-1.29-7.53-2.03-12.2-2.21
					c-21.95-0.83-43.4,12.17-54.62,33.11c-4.12,7.68-6.78,15.73-7.92,23.91c-1.64,11.8,0.1,23.89,4.91,34.04
					c0.16,0.33,0.12,0.72-0.1,1.02c-0.22,0.3-0.58,0.45-0.95,0.4c-29.24-4.19-60.33,3.64-84.23,21.02
					c13.4-3.27,28.56-3.07,41.92-2.38c12.52,0.65,24.12,5.97,35.34,11.11c16.73,7.67,32.52,14.92,50.77,7.55
					c1.43-0.46,2.91,1.07,6.67,6.8c0.25,0.38,0.44,0.67,0.54,0.81c5.04,6.98,10.03,12.01,17.96,13.89
					c4.34,1.03,12.03,1.77,19.37,0.46c5.55-0.99,12.59-3.49,14.6-9.82c0.08-0.24,0.14-0.48,0.19-0.72c0.11-0.54,0.64-0.89,1.18-0.78
					c0.54,0.11,0.89,0.64,0.78,1.18c-0.06,0.31-0.15,0.62-0.24,0.92c-1.83,5.76-7.42,9.63-16.16,11.18
					C175.79,191.82,172.82,192.03,170.02,192.03z"/>
			</g>
			<g>
				<path class="st5" d="M467.66,131.89c-6.83,0-13.74-1.55-20.82-5.42c-10.07-5.51-18.22-13.71-26.1-21.63
					c-3.63-3.65-7.38-7.42-11.25-10.86c-5.23-4.64-9.88-8.02-14.63-10.64c-12.22-6.73-27.92-7.65-39.07-2.28
					c-6.49,3.12-11.35,8.85-13.32,15.71c-1.87,6.49-0.93,13.17,2.63,18.83c3.87,6.15,10.53,10.01,17.82,10.32
					c8.09,0.34,15.23-3.26,18.15-9.2c2.29-4.64,1.56-9.75-2.01-14.02c-0.35-0.42-0.3-1.05,0.13-1.41c0.43-0.35,1.06-0.3,1.41,0.13
					c4.04,4.83,4.89,10.88,2.27,16.19c-3.28,6.64-11.13,10.7-20.03,10.31c-7.94-0.34-15.21-4.54-19.43-11.25
					c-3.87-6.15-4.88-13.41-2.86-20.45c2.13-7.41,7.37-13.59,14.38-16.96c11.89-5.72,27.94-4.8,40.9,2.33
					c4.89,2.69,9.65,6.15,15,10.9c3.92,3.48,7.69,7.27,11.34,10.94c7.78,7.82,15.82,15.91,25.64,21.29
					c18.26,10,34.96,4.02,53.33-4.18c21.05-9.4,49.37-3.88,68.09,5.77c0.49,0.25,0.68,0.86,0.43,1.35
					c-0.25,0.49-0.86,0.69-1.35,0.43c-18.3-9.43-45.91-14.85-66.36-5.72C490.52,127.46,479.21,131.89,467.66,131.89z"/>
			</g>
			<g>
				<path class="st5" d="M273.76,204.12c-2.03,0-4.1-0.02-6.23-0.05c-15.84-0.25-28.99-1.18-41.72-4.93
					c-14.97-4.41-27.28-12.66-34.67-23.24c-14.65-20.96-9.28-53.87,11.5-70.41c19.96-15.9,51.33-16.07,72.97-0.39
					c10.16,7.36,16.62,16.85,18.19,26.73c1.9,11.93-4.22,23.88-14.22,27.81c-7.85,3.08-17.96,1.23-27.05-4.97
					c-7.5-5.11-12.45-11.74-13.95-18.66c-1.6-7.41,1.4-17.17,9.21-20.66c0.51-0.22,1.1,0,1.32,0.5c0.23,0.5,0,1.1-0.5,1.32
					c-6.88,3.08-9.51,11.78-8.07,18.41c1.39,6.42,6.05,12.61,13.12,17.43c8.54,5.82,17.95,7.6,25.19,4.76
					c7.89-3.1,14.9-13.53,12.97-25.63c-1.49-9.35-7.66-18.38-17.39-25.43c-20.94-15.17-51.27-15.03-70.55,0.33
					c-19.99,15.92-25.18,47.56-11.1,67.7c7.13,10.2,19.06,18.18,33.6,22.46c12.51,3.69,25.51,4.61,41.18,4.85
					c14.87,0.24,27.24-0.22,39.25-3.18c11.78-2.9,20.88-7.88,27.04-14.81c7.4-8.3,10-19.51,6.65-28.55c0-0.01,0-0.01-0.01-0.02
					c-0.19-0.52,0.07-1.09,0.59-1.29c0.52-0.19,1.09,0.07,1.29,0.59l0,0c2.31,6.22,11.27,10.51,18.62,11.87
					c9.24,1.71,19.05-1.11,25.6-7.36c6.6-6.29,4.02-24.2,3.99-24.38c-0.05-0.36,0.09-0.72,0.38-0.94c0.22-0.17,5.58-4.22,14.45-3.36
					c10.33,1,19.8,6.28,28.96,11.38c12.12,6.75,23.57,13.13,37.09,10.81c11.89-2.05,22.38-8.17,32.52-14.09
					c7.91-4.62,16.1-9.4,24.97-12.29c6.26-2.03,13.44-1.84,19.77-1.66l0.84,0.02c5.53,0.15,11.1,0.61,16.5,1.07
					c-1.95-1.94-4.83-4.79-5.84-5.65c-26.34-22.41-49.54-18.03-72.95-11.09c-11.21,3.32-22.14,5.56-32.53-3.38
					c-3.69-3.17-5.41-8.16-7.24-13.45c-1.81-5.24-3.68-10.65-7.6-15.1c-10.01-11.36-19.61-11.71-31.1-11.01
					c-1.08,0.08-1.2,0.07-7.11-17.17c-1.05-3.08-1.97-5.73-2.21-6.31c-7.34-17.55-20.22-29.84-37.24-35.54
					c-20.41-6.83-45.42-3.42-66.91,9.12c-0.45,0.26-1.03,0.13-1.33-0.3c-6.65-9.74-17.63-14.8-30.12-13.91
					c-13.09,0.94-25.14,8.2-29.98,18.07c-0.24,0.5-0.84,0.7-1.34,0.46c-0.5-0.24-0.7-0.84-0.46-1.34
					c5.14-10.49,17.86-18.2,31.63-19.19c12.89-0.92,24.27,4.18,31.38,14.02c21.79-12.45,47.06-15.75,67.75-8.83
					c17.58,5.88,30.87,18.56,38.45,36.66c0.27,0.64,1.1,3.07,2.25,6.43c1.68,4.91,4.71,13.73,5.67,15.79
					c11.41-0.67,21.73-0.1,32.15,11.71c4.18,4.75,6.21,10.6,7.99,15.77c1.73,5.02,3.37,9.76,6.65,12.58
					c9.64,8.29,19.58,6.25,30.65,2.97c23.96-7.1,47.71-11.56,74.82,11.49c1.64,1.39,7.62,7.42,7.87,7.67
					c0.28,0.28,0.37,0.71,0.22,1.08c-0.15,0.37-0.51,0.62-0.91,0.62c-0.38,0.01-0.78-0.03-1.15-0.07l-1.13-0.1
					c-5.54-0.47-11.26-0.96-16.91-1.11l-0.84-0.02c-6.17-0.17-13.17-0.36-19.1,1.57c-8.67,2.83-16.76,7.55-24.58,12.12
					c-10.3,6.01-20.95,12.23-33.19,14.34c-14.23,2.45-26.52-4.4-38.41-11.03c-8.98-5-18.26-10.18-28.18-11.14
					c-6.64-0.64-11.16,1.76-12.57,2.64c0.43,3.4,2,19.13-4.67,25.5c-7.01,6.68-17.49,9.7-27.35,7.88
					c-4.66-0.86-12.25-3.43-16.88-8.18c1.04,8.45-1.98,17.74-8.39,24.94c-6.44,7.23-15.88,12.42-28.06,15.42
					C296.79,203.42,286.08,204.12,273.76,204.12z"/>
			</g>
		</g>
	</g>
</g>
<g id="Guide">
</g>
</svg>
