<?xml version="1.0" encoding="utf-8"?>
<!-- Generator: Adobe Illustrator 26.1.0, SVG Export Plug-In . SVG Version: 6.00 Build 0)  -->
<svg version="1.1" xmlns="http://www.w3.org/2000/svg" xmlns:xlink="http://www.w3.org/1999/xlink" x="0px" y="0px"
	 viewBox="0 0 505.17 566.84" style="enable-background:new 0 0 505.17 566.84;" xml:space="preserve">
<style type="text/css">
	.st0{fill:#FFFFFF;}
	.st1{fill:#EAD9EB;}
	.st2{fill:#95608F;}
	.st3{fill:#ED859E;}
	.st4{fill:#FAC87D;}
	.st5{fill:#554B4E;}
	.st6{fill:#F8F4E9;}
	.st7{fill:#BFA071;}
	.st8{fill:#F2DED6;}
</style>
<g id="Bg">
</g>
<g id="Graphic">
	<g id="Big_crescent_00000031897455678487767870000007675784103089014961_">
		<g id="Moon_00000120521797799475664050000012160680625764886437_">
			<path class="st5" d="M215.1,566.84c-28.46,0-56.73-4.13-83.79-12.36c-50.63-15.39-95.95-45.05-131.07-85.77
				c-0.28-0.32-0.32-0.79-0.11-1.15s0.63-0.56,1.06-0.48c84.86,16.44,203.65,9.6,278.02-42.67c0.01-0.51,0.01-1,0.02-1.48
				c0.06-5.51,0.1-9.86,6.62-12.35c3.01-1.15,3.28-2.57,4.11-6.81c0.39-2.01,0.88-4.52,1.82-7.76c2.08-6.55,7.5-8.22,12.74-9.85
				c3.93-1.22,7.67-2.38,10.31-5.4c-11.13-2.16-15.84-10.12-16.89-14.53c-2.46-1.77-18.32-13.55-26.92-28.03
				c-3.51-5.92-4.83-8.75-3.88-11c1.03-2.44,4.4-3.26,11.12-4.9c4.79-1.17,11.35-2.76,19.81-5.62c20.88-7.06,51.74-42.9,68.28-63.63
				c3.55-5.01,1.76-14.32,0.57-20.48c-0.31-1.6-0.57-2.97-0.71-4.06c-0.02-0.14,0-0.28,0.04-0.41c10-32.78,5.6-75.66-12.38-120.73
				C338,67.58,312.09,28.09,284.57,1.72c-0.33-0.31-0.4-0.8-0.19-1.2s0.67-0.6,1.11-0.5c38.08,8.97,73.32,25.66,104.75,49.6
				c30.23,23.02,55.42,51.55,74.89,84.79c19.45,33.22,31.99,69.12,37.28,106.7c5.5,39.08,2.81,77.94-7.99,115.51
				c-14.47,52.42-42.84,99-82.05,134.69c-36.81,33.51-82.51,57.12-132.14,68.28C258.71,564.43,236.85,566.84,215.1,566.84z
				 M3.65,469.58c34.6,39.32,78.88,67.98,128.24,82.99c47.41,14.41,98.55,16.16,147.89,5.07c49.29-11.08,94.67-34.53,131.23-67.81
				c38.93-35.44,67.1-81.69,81.47-133.75c10.72-37.3,13.39-75.89,7.93-114.69c-5.25-37.33-17.71-72.98-37.03-105.97
				c-19.33-33.01-44.35-61.35-74.37-84.21c-30.22-23.02-64-39.29-100.45-48.38c27.09,26.82,51.45,64.43,67.15,103.78
				c18.11,45.4,22.55,88.67,12.5,121.85c0.13,0.99,0.38,2.26,0.66,3.72c1.25,6.5,3.13,16.31-0.94,22.06
				c-16.71,20.95-47.87,57.1-69.23,64.32c-8.55,2.89-15.15,4.5-19.98,5.67c-5.68,1.38-9.12,2.22-9.75,3.73
				c-0.59,1.41,0.86,4.32,3.76,9.2c9.07,15.28,26.49,27.52,26.66,27.64c0.21,0.15,0.36,0.37,0.41,0.62
				c0.1,0.47,2.54,11.67,16.95,13.6c0.34,0.05,0.63,0.26,0.78,0.58s0.11,0.68-0.08,0.96c-3.04,4.59-7.77,6.06-12.35,7.48
				c-5.19,1.61-9.66,2.99-11.42,8.52c-0.91,3.13-1.39,5.59-1.77,7.56c-0.85,4.35-1.31,6.75-5.36,8.29c-5.24,2-5.27,5.02-5.33,10.5
				c-0.01,0.65-0.01,1.32-0.03,2.01c-0.01,0.32-0.16,0.61-0.42,0.79c-51.85,36.64-125.26,51.24-193.87,51.24
				C57.59,476.99,29.17,474.33,3.65,469.58z"/>
		</g>
		<g id="Mouth_00000010274469586923866380000002178296201135522969_">
			<g>
				<path class="st5" d="M310.25,397.74c-0.18,0-0.36-0.06-0.5-0.19l-9.32-8.32c-0.31-0.28-0.33-0.75-0.06-1.06
					c0.28-0.31,0.75-0.34,1.06-0.06l9.32,8.32c0.31,0.28,0.33,0.75,0.06,1.06C310.66,397.66,310.46,397.74,310.25,397.74z"/>
			</g>
			<g>
				<path class="st5" d="M310.25,420.07c-0.12,0-0.25-0.02-0.37-0.07c-13.59-5.48-20.11-11.75-20.38-12.01
					c-0.4-0.39-0.4-1.02-0.02-1.41s1.02-0.4,1.41-0.02c0.06,0.06,6.54,6.27,19.73,11.59c0.51,0.21,0.76,0.79,0.55,1.3
					C311.02,419.83,310.65,420.07,310.25,420.07z"/>
			</g>
			<g>
				<path class="st5" d="M352.69,433.1c-6.28,0-10.44-3.75-11.53-4.86c-2.61-0.27-17.44-2-27.26-6.61c-0.5-0.24-0.71-0.83-0.48-1.33
					c0.24-0.5,0.83-0.71,1.33-0.48c10.25,4.82,26.81,6.46,26.98,6.47c0.25,0.02,0.49,0.14,0.66,0.33c0.23,0.26,5.87,6.46,14.65,3.81
					c0.53-0.16,1.09,0.14,1.25,0.67c0.16,0.53-0.14,1.09-0.67,1.25C355.85,432.88,354.21,433.1,352.69,433.1z"/>
			</g>
			<g>
				<path class="st5" d="M316.52,439.54c-0.04,0-0.08,0-0.12-0.01c-30.82-4.95-36.61-13.83-36.84-14.21
					c-0.22-0.35-0.11-0.82,0.25-1.03c0.35-0.22,0.81-0.11,1.03,0.24c0.08,0.12,5.92,8.72,35.8,13.52c0.41,0.07,0.69,0.45,0.62,0.86
					C317.2,439.28,316.88,439.54,316.52,439.54z"/>
			</g>
			<g>
				<path class="st5" d="M284.89,440.96c-0.1,0-0.2-0.02-0.3-0.06c-8.01-3.49-9.27-11.69-9.32-12.03c-0.06-0.41,0.22-0.79,0.63-0.85
					c0.4-0.06,0.79,0.22,0.85,0.63c0.01,0.08,1.21,7.73,8.44,10.87c0.38,0.17,0.55,0.61,0.39,0.99
					C285.45,440.79,285.18,440.96,284.89,440.96z"/>
			</g>
			<g>
				<path class="st5" d="M333.49,441.2c-0.02,0-0.04,0-0.06,0l-13.63-1.05c-0.41-0.03-0.72-0.39-0.69-0.81
					c0.03-0.41,0.39-0.71,0.81-0.69l13.63,1.05c0.41,0.03,0.72,0.39,0.69,0.81C334.21,440.91,333.88,441.2,333.49,441.2z"/>
			</g>
			<g>
				<path class="st5" d="M359.53,445.86c-0.27,0-0.54-0.15-0.67-0.41c-0.19-0.37-0.04-0.82,0.33-1.01c3.78-1.93,7.21-4.68,9.92-7.96
					c1.22-1.48,1.98-2.69,2.45-3.91c1.59-4.16,0.04-8.76-1.83-13.51c-0.15-0.39,0.04-0.82,0.42-0.97c0.39-0.15,0.82,0.04,0.97,0.42
					c1.91,4.83,3.62,9.94,1.83,14.6c-0.53,1.39-1.36,2.72-2.69,4.33c-2.84,3.43-6.43,6.31-10.39,8.34
					C359.76,445.83,359.64,445.86,359.53,445.86z"/>
			</g>
			<g>
				<path class="st5" d="M347.53,454.88c-0.3,0-0.59-0.18-0.7-0.48c-0.15-0.39,0.04-0.82,0.43-0.97c2.41-0.92,4.7-2.16,6.79-3.66
					c0.34-0.24,0.8-0.16,1.05,0.17c0.24,0.34,0.17,0.81-0.17,1.05c-2.2,1.58-4.6,2.88-7.14,3.85
					C347.71,454.87,347.62,454.88,347.53,454.88z"/>
			</g>
			<g>
				<path class="st5" d="M381.88,429.58c-0.07,0-0.14-0.01-0.21-0.03c-0.4-0.12-0.62-0.53-0.51-0.93c0.94-3.19,0.42-6.77-1.38-9.57
					c-0.22-0.35-0.12-0.81,0.23-1.04c0.35-0.23,0.81-0.12,1.04,0.23c2.03,3.16,2.61,7.2,1.56,10.8
					C382.5,429.37,382.2,429.58,381.88,429.58z"/>
			</g>
		</g>
		<g id="Nose_00000120551495454814631760000005350911177089086637_">
			<g>
				<path class="st5" d="M325.71,377.51c-0.33,0-0.66-0.17-0.85-0.47c-0.29-0.47-0.14-1.09,0.33-1.38
					c6.41-3.96,7.33-14.97,7.34-15.08c0.04-0.55,0.51-0.96,1.07-0.92c0.55,0.04,0.96,0.52,0.92,1.07
					c-0.04,0.49-1.01,12.13-8.29,16.63C326.07,377.47,325.89,377.51,325.71,377.51z"/>
			</g>
			<g>
				<path class="st5" d="M313.22,370.63c-0.39,0-0.72-0.3-0.75-0.7c-0.03-0.41,0.28-0.77,0.7-0.8c2.43-0.17,4.86-0.64,5.58-1.05
					c-2.18-1.69-9.78-4.05-9.85-4.07c-0.4-0.12-0.62-0.54-0.5-0.94s0.55-0.61,0.94-0.5c0.33,0.1,7.99,2.48,10.36,4.34
					c0.77,0.61,0.73,1.22,0.63,1.53c-0.44,1.43-4.08,1.97-7.06,2.18C313.26,370.62,313.24,370.63,313.22,370.63z M318.91,368.22
					L318.91,368.22L318.91,368.22z"/>
			</g>
			<g>
				<path class="st5" d="M342.1,358.68c-0.03,0-0.06,0-0.09,0c-0.41-0.05-0.71-0.42-0.66-0.83c0.21-1.86-0.26-3.83-1.3-5.39
					c-0.23-0.34-0.14-0.81,0.21-1.04c0.35-0.23,0.81-0.14,1.04,0.21c1.24,1.85,1.8,4.18,1.54,6.39
					C342.8,358.39,342.47,358.68,342.1,358.68z"/>
			</g>
		</g>
		<g id="Eye_00000114063680844933312240000002445133573687256729_">
			<g>
				<path class="st5" d="M394.54,295.26c-7.92,0-13.9-2.12-17.97-4.32c-6.55-3.53-9.63-7.91-9.75-8.09
					c-0.24-0.34-0.15-0.81,0.19-1.04c3.82-2.64,5.54-10.28,5.55-10.36c0.08-0.34,0.38-0.59,0.73-0.59c0,0,0,0,0,0
					c0.35,0,0.65,0.24,0.73,0.58c0.58,2.58,3.52,6.63,3.55,6.67c7.63,11.53,29.36,13.96,29.58,13.98c0.36,0.04,0.64,0.33,0.67,0.69
					c0.03,0.36-0.21,0.69-0.56,0.78C402.58,294.77,398.33,295.26,394.54,295.26z M368.49,282.56c2.25,2.73,13.21,14.28,34.51,10.42
					c-6.86-1.28-20.63-4.92-26.65-14c-0.08-0.11-1.83-2.51-2.96-4.92C372.59,276.53,371.02,280.4,368.49,282.56z"/>
			</g>
			<g>
				<path class="st5" d="M456.79,246.76c-0.12,0-0.24-0.02-0.36-0.07c-0.33-0.13-33.06-12.75-60-20.46
					c-13.35-3.82-26.99,1.06-28.51,1.64c-0.39,0.15-0.82,0.07-1.13-0.21c-0.32-0.29-0.46-0.75-0.35-1.18
					c0.5-1.96,2.47-8.53,6.58-10.41c4.5-2.06,15.98-2.21,25.89,0.86c24.86,7.71,58.07,27.77,58.41,27.97
					c0.44,0.27,0.61,0.83,0.38,1.3C457.52,246.55,457.17,246.76,456.79,246.76z M385.57,222.79c3.64,0,7.54,0.41,11.41,1.52
					c17.19,4.92,36.72,11.83,48.75,16.24c-11.81-6.56-31.38-16.74-47.41-21.71c-9.33-2.89-20.39-2.83-24.47-0.95
					c-2.25,1.03-4.01,4.44-5.03,7.56C371.77,224.5,378.13,222.79,385.57,222.79z M368.37,226.97
					C368.37,226.97,368.37,226.98,368.37,226.97C368.37,226.98,368.37,226.97,368.37,226.97z M367.21,226
					C367.21,226,367.21,226,367.21,226C367.21,226,367.21,226,367.21,226C367.21,226,367.21,226,367.21,226z"/>
			</g>
			<g>
				<path class="st5" d="M408.93,254.23c-0.12,0-0.25-0.03-0.36-0.09c-15.88-8.7-27-5.11-27.11-5.07c-0.4,0.14-0.82-0.08-0.95-0.47
					c-0.13-0.39,0.08-0.82,0.47-0.95c0.47-0.16,11.8-3.86,28.32,5.18c0.36,0.2,0.5,0.66,0.3,1.02
					C409.45,254.09,409.2,254.23,408.93,254.23z"/>
			</g>
			<g>
				<path class="st5" d="M394.54,295.26c-7.92,0-13.9-2.12-17.97-4.32c-6.55-3.53-9.63-7.91-9.75-8.09
					c-0.22-0.32-0.16-0.77,0.15-1.01c8.27-6.61,6.66-25.79,6.64-25.98c-0.04-0.41,0.27-0.78,0.68-0.81
					c0.41-0.04,0.78,0.27,0.81,0.68c0.07,0.8,1.63,19.34-6.64,26.81c2.2,2.68,13.15,14.32,34.53,10.44
					c-6.86-1.28-20.63-4.92-26.65-14c-0.23-0.35-0.13-0.81,0.21-1.04c0.35-0.23,0.81-0.13,1.04,0.21
					c7.61,11.5,29.34,13.93,29.56,13.96c0.36,0.04,0.64,0.33,0.67,0.69c0.03,0.36-0.21,0.69-0.56,0.78
					C402.58,294.77,398.33,295.26,394.54,295.26z"/>
			</g>
			<g>
				<path class="st5" d="M429.95,278.46c-0.29,0-0.57-0.17-0.69-0.46c-4.69-11.11-15.74-18.99-15.85-19.06
					c-0.34-0.24-0.42-0.71-0.18-1.04c0.24-0.34,0.71-0.42,1.04-0.18c0.47,0.33,11.51,8.2,16.37,19.71c0.16,0.38-0.02,0.82-0.4,0.98
					C430.14,278.44,430.05,278.46,429.95,278.46z"/>
			</g>
			<g>
				<path class="st5" d="M356.51,285.69c-1.73,0-2.78-0.21-2.88-0.23c-0.4-0.08-0.66-0.48-0.58-0.89c0.08-0.41,0.48-0.67,0.89-0.58
					c0.06,0.01,5.76,1.13,13.18-2.25c0.38-0.17,0.82,0,0.99,0.37c0.17,0.38,0.01,0.82-0.37,0.99
					C363.06,285.25,359.05,285.69,356.51,285.69z"/>
			</g>
			<g>
				<path class="st5" d="M357.6,293.27c-0.37,0-0.7-0.28-0.74-0.66c-0.05-0.41,0.24-0.79,0.65-0.83c0.07-0.01,7.52-0.97,12.75-5.71
					c0.31-0.28,0.78-0.25,1.06,0.05c0.28,0.31,0.25,0.78-0.05,1.06c-5.59,5.07-13.26,6.05-13.58,6.09
					C357.67,293.27,357.63,293.27,357.6,293.27z"/>
			</g>
			<g>
				<path class="st5" d="M366.13,299.21c-0.34,0-0.65-0.24-0.73-0.58c-0.09-0.4,0.16-0.8,0.56-0.9c0.06-0.01,5.63-1.38,8.83-7.72
					c0.19-0.37,0.64-0.52,1.01-0.33c0.37,0.19,0.52,0.64,0.33,1.01c-3.53,7-9.58,8.45-9.83,8.5
					C366.24,299.2,366.18,299.21,366.13,299.21z"/>
			</g>
			<g>
				<path class="st5" d="M372.79,303.93c-0.3,0-0.59-0.19-0.7-0.49c-0.14-0.39,0.05-0.82,0.44-0.96c0.07-0.03,6.76-2.59,8.01-9.49
					c0.07-0.41,0.46-0.67,0.87-0.6c0.41,0.07,0.68,0.46,0.6,0.87c-1.4,7.75-8.66,10.51-8.96,10.63
					C372.96,303.92,372.87,303.93,372.79,303.93z"/>
			</g>
			<g>
				<path class="st5" d="M383.76,307.06c-0.22,0-0.43-0.09-0.58-0.28c-0.26-0.32-0.21-0.79,0.11-1.05
					c6.14-4.98,6.36-10.82,6.36-10.88c0.01-0.41,0.34-0.73,0.75-0.73c0.01,0,0.01,0,0.02,0c0.41,0.01,0.74,0.36,0.73,0.77
					c-0.01,0.27-0.24,6.59-6.91,12C384.1,307.01,383.93,307.06,383.76,307.06z"/>
			</g>
			<g>
				<path class="st5" d="M394.7,306.67c-0.17,0-0.33-0.05-0.47-0.17c-0.32-0.26-0.37-0.73-0.11-1.06
					c4.65-5.73,4.96-10.93,4.96-10.99c0.02-0.41,0.39-0.73,0.79-0.71c0.41,0.02,0.73,0.37,0.71,0.79
					c-0.01,0.23-0.33,5.75-5.29,11.86C395.13,306.57,394.92,306.67,394.7,306.67z"/>
			</g>
			<g>
				<path class="st5" d="M417.88,276.39c-0.24,0-0.48-0.12-0.62-0.33c-9.44-14.14-17.81-18.8-17.89-18.84
					c-0.36-0.2-0.5-0.65-0.3-1.02c0.2-0.36,0.65-0.5,1.02-0.3c0.35,0.19,8.75,4.85,18.43,19.33c0.23,0.34,0.14,0.81-0.21,1.04
					C418.16,276.35,418.02,276.39,417.88,276.39z"/>
			</g>
			<g>
				<path class="st5" d="M423.5,288.74c-0.28,0-0.56-0.16-0.68-0.44l-4.08-8.87c-0.17-0.38-0.01-0.82,0.37-1
					c0.37-0.17,0.82-0.01,1,0.37l4.08,8.87c0.17,0.38,0.01,0.82-0.37,1C423.71,288.72,423.6,288.74,423.5,288.74z"/>
			</g>
			<g>
				<path class="st5" d="M469.22,252.15c-0.08,0-0.15-0.02-0.23-0.05l-8.69-4.44c-0.25-0.13-0.34-0.43-0.22-0.67
					c0.13-0.25,0.43-0.34,0.67-0.22l8.69,4.44c0.25,0.13,0.34,0.43,0.22,0.67C469.57,252.05,469.4,252.15,469.22,252.15z"/>
			</g>
			<g>
				<path class="st5" d="M415.18,325.38c-0.38,0-0.71-0.29-0.75-0.68c-0.04-0.41,0.27-0.78,0.68-0.81
					c6.7-0.6,12.99-5.15,15.65-11.32c0.16-0.38,0.6-0.56,0.99-0.39c0.38,0.16,0.56,0.61,0.39,0.99c-2.88,6.66-9.67,11.58-16.9,12.22
					C415.23,325.38,415.2,325.38,415.18,325.38z"/>
			</g>
			<g>
				<path class="st5" d="M400.57,327.88c-8.67,0-17.24-2.51-24.56-7.27c-0.35-0.23-0.45-0.69-0.22-1.04
					c0.23-0.35,0.69-0.45,1.04-0.22c8.29,5.39,18.69,7.86,28.51,6.77c0.43-0.06,0.78,0.25,0.83,0.66c0.05,0.41-0.25,0.78-0.66,0.83
					C403.86,327.79,402.21,327.88,400.57,327.88z"/>
			</g>
		</g>
		<g id="Line_00000133519733672795854830000015516065545550889151_">
			<g>
				<path class="st5" d="M226.7,552.33c-0.06,0-0.11-0.01-0.17-0.02c-2.87-0.67-6.43-2.83-7.46-5.97c-0.45-1.36-0.58-3.44,1.34-5.68
					c3.19-3.73,9.71-5.35,14.32-5.6c0.44-0.04,0.77,0.29,0.79,0.71s-0.29,0.77-0.71,0.79c-4.66,0.25-10.57,1.92-13.26,5.08
					c-1.17,1.37-1.52,2.8-1.05,4.24c0.81,2.48,3.83,4.38,6.38,4.98c0.4,0.09,0.65,0.5,0.56,0.9
					C227.35,552.09,227.04,552.33,226.7,552.33z"/>
			</g>
			<g>
				<path class="st5" d="M236.64,552.61c-0.34,0-0.66-0.24-0.73-0.59c-0.09-0.4,0.17-0.8,0.57-0.89l3.7-0.81
					c15.86-3.46,32.26-7.03,46.72-12.5c0.39-0.15,0.82,0.05,0.97,0.44c0.15,0.39-0.05,0.82-0.44,0.97
					c-14.57,5.5-31.02,9.09-46.93,12.56l-3.7,0.81C236.75,552.6,236.69,552.61,236.64,552.61z"/>
			</g>
			<g>
				<path class="st5" d="M305.17,531.1c-0.31,0-0.6-0.19-0.71-0.5c-0.14-0.39,0.06-0.82,0.45-0.96c7.27-2.6,13.94-6.9,21.01-11.45
					c7.88-5.07,16.03-10.31,25.06-12.99c0.4-0.12,0.81,0.11,0.93,0.51c0.12,0.4-0.11,0.81-0.51,0.93
					c-8.83,2.62-16.89,7.8-24.68,12.81c-6.83,4.4-13.89,8.94-21.32,11.6C305.33,531.09,305.25,531.1,305.17,531.1z"/>
			</g>
			<g>
				<path class="st5" d="M134.23,541.12c-0.07,0-0.13-0.01-0.2-0.03c-3.69-1.04-7.4-2.25-11.04-3.61c-0.39-0.14-0.58-0.58-0.44-0.96
					c0.14-0.39,0.58-0.59,0.96-0.44c3.6,1.34,7.27,2.54,10.92,3.57c0.4,0.11,0.63,0.53,0.52,0.92
					C134.86,540.91,134.56,541.12,134.23,541.12z"/>
			</g>
			<g>
				<path class="st5" d="M203.09,549.35c-0.02,0-0.05,0-0.08,0c-4.33-0.43-8.53-1.36-12.6-2.27c-5.67-1.26-11.52-2.57-17.61-2.44
					c-10.88,0.22-21.36-0.62-31.16-2.5c-0.41-0.08-0.67-0.47-0.59-0.88c0.08-0.41,0.47-0.68,0.88-0.59
					c9.7,1.86,20.08,2.7,30.85,2.47c6.27-0.14,12.22,1.19,17.97,2.47c4.02,0.89,8.18,1.82,12.42,2.24c0.41,0.04,0.71,0.41,0.67,0.82
					C203.79,549.06,203.47,549.35,203.09,549.35z"/>
			</g>
			<g>
				<path class="st5" d="M253.23,534.42c-0.4,0-0.73-0.31-0.75-0.71c-0.02-0.41,0.29-0.77,0.71-0.79c0.09,0,8.84-0.49,15.38-1.87
					c4.1-0.87,7.09-2.83,9.49-4.4c1.46-0.96,2.72-1.79,3.97-2.23c3.11-1.1,13.17-6.75,13.27-6.81c0.36-0.2,0.82-0.07,1.02,0.29
					c0.2,0.36,0.08,0.82-0.29,1.02c-0.42,0.24-10.27,5.77-13.5,6.92c-1.08,0.38-2.27,1.17-3.65,2.07c-2.5,1.64-5.62,3.69-10,4.62
					c-6.65,1.4-15.52,1.9-15.61,1.9C253.26,534.42,253.24,534.42,253.23,534.42z"/>
			</g>
			<g>
				<path class="st5" d="M299.79,516.64c-0.16,0-0.32-0.05-0.45-0.15c-0.33-0.25-0.39-0.72-0.14-1.05
					c3.27-4.29,12.41-5.47,12.8-5.52c0.41-0.05,0.79,0.24,0.84,0.65c0.05,0.41-0.24,0.79-0.65,0.84c-0.09,0.01-8.91,1.16-11.8,4.95
					C300.24,516.54,300.02,516.64,299.79,516.64z"/>
			</g>
			<g>
				<path class="st5" d="M150.93,528.12c-0.05,0-0.1,0-0.15-0.01c-0.11-0.02-11.46-2.3-15.26-1.06c-3.05,1.01-7.85,0.15-14.26-2.54
					c-3.01-1.27-14.6-4.43-14.72-4.46c-0.4-0.11-0.63-0.52-0.53-0.92c0.11-0.4,0.51-0.63,0.92-0.53c0.48,0.13,11.8,3.22,14.9,4.52
					c7.56,3.18,11.35,3.11,13.21,2.5c4.18-1.38,15.55,0.91,16.03,1.01c0.41,0.08,0.67,0.48,0.59,0.88
					C151.59,527.88,151.28,528.12,150.93,528.12z"/>
			</g>
			<g>
				<path class="st5" d="M464.65,170.29c-0.23,0-0.46-0.11-0.61-0.31c-1.24-1.72-2.5-3.42-3.76-5.12
					c-2.81-3.78-5.71-7.69-8.25-11.77c-0.22-0.35-0.11-0.81,0.24-1.03c0.35-0.22,0.82-0.11,1.03,0.24
					c2.51,4.03,5.39,7.91,8.18,11.67c1.27,1.71,2.54,3.42,3.78,5.14c0.24,0.34,0.16,0.81-0.17,1.05
					C464.96,170.25,464.8,170.29,464.65,170.29z"/>
			</g>
			<g>
				<path class="st5" d="M424.11,106.63c-0.16,0-0.32-0.05-0.46-0.16c-1.84-1.43-3.78-2.82-5.66-4.16
					c-0.99-0.71-1.98-1.41-2.96-2.13c-0.33-0.24-0.41-0.71-0.16-1.05c0.24-0.33,0.71-0.41,1.05-0.16c0.98,0.71,1.96,1.42,2.95,2.12
					c1.89,1.35,3.84,2.74,5.7,4.19c0.33,0.25,0.39,0.73,0.13,1.05C424.56,106.53,424.33,106.63,424.11,106.63z"/>
			</g>
			<g>
				<path class="st5" d="M409.1,95.2c-0.3,0-0.58-0.18-0.7-0.47c-5.08-12.55-15.14-20.26-25.79-28.43
					c-4.28-3.28-8.71-6.68-12.73-10.39c-0.3-0.28-0.32-0.75-0.04-1.06c0.28-0.3,0.75-0.32,1.06-0.04c3.97,3.66,8.37,7.04,12.62,10.3
					c10.34,7.93,21.03,16.13,26.27,29.06c0.16,0.38-0.03,0.82-0.41,0.98C409.29,95.18,409.2,95.2,409.1,95.2z"/>
			</g>
			<g>
				<path class="st5" d="M364.17,51.1c-0.16,0-0.33-0.05-0.47-0.16c-0.73-0.58-1.49-1.24-2.29-1.95c-2.21-1.94-4.72-4.13-7.17-4.96
					c-4.46-1.51-9.44,2.19-12.01,4.54c-0.31,0.28-0.78,0.26-1.06-0.05c-0.28-0.31-0.26-0.78,0.05-1.06
					c2.82-2.57,8.32-6.61,13.51-4.85c2.72,0.92,5.35,3.22,7.67,5.25c0.79,0.69,1.53,1.34,2.24,1.9c0.32,0.26,0.38,0.73,0.12,1.05
					C364.61,51,364.39,51.1,364.17,51.1z"/>
			</g>
			<g>
				<path class="st5" d="M386.93,87.19c-0.25,0-0.5-0.13-0.64-0.36c-1.59-2.58-9.02-7.29-16.2-11.84c-4.69-2.97-9.54-6.05-13.4-8.88
					c-10.01-7.36-10.95-11.24-11.03-11.66c-0.07-0.41,0.2-0.8,0.61-0.87c0.4-0.07,0.79,0.19,0.87,0.59
					c0.02,0.09,0.98,3.77,10.44,10.73c3.81,2.8,8.64,5.86,13.31,8.83c7.99,5.07,14.9,9.44,16.67,12.32
					c0.22,0.35,0.11,0.81-0.24,1.03C387.2,87.15,387.06,87.19,386.93,87.19z"/>
			</g>
			<g>
				<path class="st5" d="M426.34,217.56c-0.06,0-0.11-0.01-0.17-0.02c-2.64-0.61-7.46-2.86-13.04-5.46
					c-6.2-2.89-13.23-6.17-18.41-7.69c-0.4-0.12-0.62-0.53-0.51-0.93c0.12-0.4,0.53-0.63,0.93-0.51c5.29,1.55,12.37,4.85,18.62,7.77
					c5.27,2.46,10.25,4.79,12.74,5.36c0.4,0.09,0.66,0.5,0.56,0.9C426.99,217.33,426.68,217.56,426.34,217.56z"/>
			</g>
			<g>
				<path class="st5" d="M390.57,202.76c-0.02,0-0.04,0-0.06,0c-2.67-0.23-4.56-1.06-5.78-2.56c-2.18-2.66-1.69-6.9-1.21-11
					c0.35-3.03,0.71-6.16,0-8.54c-0.12-0.4,0.11-0.81,0.5-0.93c0.4-0.12,0.82,0.11,0.93,0.5c0.8,2.68,0.42,5.97,0.05,9.14
					c-0.46,3.96-0.89,7.71,0.89,9.88c0.95,1.16,2.5,1.82,4.75,2.01c0.41,0.04,0.72,0.4,0.68,0.81
					C391.28,202.46,390.95,202.76,390.57,202.76z"/>
			</g>
			<g>
				<path class="st5" d="M384.79,174.14c-0.41,0-0.75-0.33-0.75-0.74c-0.12-10.19-2.04-20.58-4.1-30.3
					c-0.09-0.41,0.17-0.8,0.58-0.89c0.41-0.09,0.8,0.17,0.89,0.58c2.07,9.79,4,20.27,4.13,30.59
					C385.55,173.8,385.22,174.14,384.79,174.14C384.8,174.14,384.8,174.14,384.79,174.14z"/>
			</g>
			<g>
				<path class="st5" d="M377.63,133.18c-0.31,0-0.61-0.2-0.71-0.51l-4.66-13.98c-0.13-0.39,0.08-0.82,0.47-0.95
					c0.4-0.13,0.82,0.08,0.95,0.47l4.66,13.98c0.13,0.39-0.08,0.82-0.47,0.95C377.78,133.17,377.7,133.18,377.63,133.18z"/>
			</g>
			<g>
				<path class="st5" d="M479.8,320.92c-0.05,0-0.11-0.01-0.16-0.02c-0.4-0.09-0.66-0.49-0.57-0.9c0.65-2.91,1.24-5.91,1.75-8.48
					c0.08-0.41,0.48-0.67,0.88-0.59c0.41,0.08,0.67,0.47,0.59,0.88c-0.51,2.59-1.1,5.6-1.75,8.52
					C480.46,320.68,480.15,320.92,479.8,320.92z"/>
			</g>
			<g>
				<path class="st5" d="M473.28,336.13c-0.47,0-0.93-0.07-1.35-0.2c-2.17-0.67-4.35-3.29-3.32-8.48c0.08-0.41,0.48-0.67,0.88-0.59
					c0.41,0.08,0.67,0.48,0.59,0.88c-0.69,3.46,0.21,6.11,2.28,6.75c1.96,0.6,4.78-0.83,6.41-4.7c0.16-0.38,0.6-0.56,0.98-0.4
					c0.38,0.16,0.56,0.6,0.4,0.98C478.44,334.47,475.63,336.13,473.28,336.13z"/>
			</g>
			<g>
				<path class="st5" d="M437.28,376.77c-0.26,0-0.51-0.13-0.65-0.38c-0.21-0.36-0.08-0.82,0.27-1.02c6.07-3.5,7.07-5.56,8.58-8.67
					c1.09-2.24,2.44-5.03,6.01-9.12c0.67-1.09,1.16-2.46,1.67-3.92c0.78-2.21,1.66-4.7,3.42-6.73c0.27-0.31,0.75-0.35,1.06-0.07
					c0.31,0.27,0.35,0.75,0.07,1.06c-1.57,1.81-2.37,4.06-3.14,6.24c-0.55,1.56-1.07,3.03-1.85,4.27c-0.02,0.03-0.04,0.06-0.07,0.09
					c-3.47,3.97-4.78,6.67-5.83,8.83c-1.57,3.24-2.71,5.58-9.18,9.31C437.54,376.74,437.41,376.77,437.28,376.77z"/>
			</g>
			<g>
				<path class="st5" d="M463.14,367.3c-0.12,0-0.23-0.03-0.34-0.08c-0.37-0.19-0.51-0.64-0.32-1.01c1.71-3.29,3.92-6.11,6.43-9.2
					c0.26-0.32,0.74-0.37,1.05-0.11c0.32,0.26,0.37,0.73,0.11,1.05c-2.46,3.02-4.62,5.78-6.26,8.95
					C463.68,367.15,463.42,367.3,463.14,367.3z"/>
			</g>
			<g>
				<path class="st5" d="M418.33,442.3c-0.27,0-0.52-0.14-0.66-0.39c-0.2-0.36-0.07-0.82,0.3-1.02c3.34-1.84,6.56-4.5,9.83-8.13
					c0.28-0.31,0.75-0.33,1.06-0.06c0.31,0.28,0.33,0.75,0.06,1.06c-3.39,3.76-6.73,6.52-10.23,8.44
					C418.58,442.27,418.45,442.3,418.33,442.3z"/>
			</g>
			<g>
				<path class="st5" d="M432.36,426.78c-0.17,0-0.33-0.05-0.47-0.17c-0.32-0.26-0.37-0.73-0.12-1.05
					c7.24-9.02,11.06-18.69,14.75-28.05c2.82-7.16,5.74-14.55,10.16-21.61c0.22-0.35,0.68-0.46,1.03-0.24
					c0.35,0.22,0.46,0.68,0.24,1.03c-4.35,6.93-7.24,14.27-10.04,21.36c-3.73,9.46-7.58,19.24-14.97,28.44
					C432.8,426.68,432.58,426.78,432.36,426.78z"/>
			</g>
		</g>
		<g id="Dot_00000170263633438116249360000000201234812759784883_">
			<g>
				<path class="st5" d="M372.35,489.02c0.31-1.09,1.03-2,2.03-2.55c0.99-0.55,2.14-0.68,3.24-0.37c1.09,0.31,2,1.03,2.55,2.03
					c1.14,2.05,0.39,4.65-1.66,5.79c-0.49,0.27-1.02,0.44-1.54,0.5c-1.67,0.2-3.38-0.6-4.24-2.16
					C372.17,491.26,372.04,490.11,372.35,489.02z"/>
			</g>
			<g>
				<path class="st5" d="M352.3,486.42c0.32-2.05,2.25-3.46,4.3-3.13c0.99,0.16,1.86,0.69,2.46,1.5s0.83,1.8,0.68,2.8
					c-0.15,0.99-0.69,1.86-1.5,2.46c-0.52,0.38-1.13,0.62-1.75,0.7c-0.34,0.04-0.69,0.04-1.04-0.02c-0.99-0.16-1.86-0.69-2.46-1.5
					S352.15,487.42,352.3,486.42z"/>
			</g>
			<g>
				<path class="st5" d="M378.86,469.52c0.24-0.83,0.79-1.52,1.55-1.94c0.76-0.42,1.64-0.52,2.47-0.28
					c0.83,0.24,1.52,0.79,1.95,1.55c0.87,1.57,0.3,3.55-1.27,4.41c-0.37,0.21-0.77,0.34-1.18,0.39c-0.43,0.05-0.86,0.02-1.29-0.1
					c-0.83-0.24-1.52-0.79-1.95-1.55C378.72,471.23,378.62,470.35,378.86,469.52z"/>
			</g>
			<g>
				<path class="st5" d="M463.83,265.93c1.38-1.9,4.05-2.32,5.95-0.94c1.9,1.38,2.32,4.05,0.94,5.95l0,0
					c-0.72,0.99-1.8,1.58-2.93,1.72c-1.03,0.13-2.11-0.12-3.01-0.78C462.87,270.5,462.45,267.83,463.83,265.93z"/>
			</g>
			<g>
				<path class="st5" d="M481.06,259.58c0.96-0.27,1.98-0.16,2.86,0.32c0.88,0.49,1.52,1.28,1.8,2.25c0.28,0.96,0.16,1.98-0.32,2.86
					c-0.49,0.88-1.28,1.52-2.25,1.8c-0.2,0.06-0.39,0.1-0.59,0.12c-1.8,0.22-3.54-0.89-4.06-2.69
					C477.92,262.24,479.07,260.15,481.06,259.58z"/>
			</g>
			<g>
				<path class="st5" d="M468.24,279.41c0.51-0.7,1.26-1.16,2.12-1.3c0.85-0.12,1.72,0.07,2.42,0.58c0.7,0.51,1.16,1.26,1.3,2.12
					c0.14,0.86-0.07,1.71-0.58,2.42l0,0c-0.55,0.76-1.37,1.21-2.24,1.31c-0.79,0.1-1.61-0.09-2.3-0.59c-0.7-0.51-1.16-1.26-1.3-2.12
					S467.73,280.11,468.24,279.41z"/>
			</g>
		</g>
	</g>
</g>
<g id="Guide">
</g>
</svg>
