<?xml version="1.0" encoding="utf-8"?>
<!-- Generator: Adobe Illustrator 26.1.0, SVG Export Plug-In . SVG Version: 6.00 Build 0)  -->
<svg version="1.1" xmlns="http://www.w3.org/2000/svg" xmlns:xlink="http://www.w3.org/1999/xlink" x="0px" y="0px"
	 viewBox="0 0 627.07 627.07" style="enable-background:new 0 0 627.07 627.07;" xml:space="preserve">
<style type="text/css">
	.st0{fill:#FFFFFF;}
	.st1{fill:#EAD9EB;}
	.st2{fill:#95608F;}
	.st3{fill:#ED859E;}
	.st4{fill:#FAC87D;}
	.st5{fill:#554B4E;}
	.st6{fill:#F8F4E9;}
	.st7{fill:#BFA071;}
	.st8{fill:#F2DED6;}
</style>
<g id="Bg">
</g>
<g id="Graphic">
	<g id="Big_sun_00000006707966815004221630000017715521233541860526_">
		<g id="Face_00000137098530539521301250000004358995989696697263_">
			<g id="Face_00000072975167417307436330000002036157589380966555_">
				<path class="st5" d="M313.53,470.57c-86.59,0-157.03-70.44-157.03-157.03S226.94,156.5,313.53,156.5s157.03,70.44,157.03,157.03
					S400.12,470.57,313.53,470.57z M313.53,158.5c-85.49,0-155.03,69.55-155.03,155.03s69.55,155.03,155.03,155.03
					s155.03-69.55,155.03-155.03S399.02,158.5,313.53,158.5z"/>
			</g>
			<g id="Mouth_00000019676645410791604810000009913326132120784817_">
				<g>
					<path class="st5" d="M312.41,398.68c-1.16,0-2.24-0.01-3.22-0.02c-17.32-0.17-33.95-7.46-34.12-7.53
						c-0.35-0.16-0.58-0.5-0.59-0.88c-0.01-0.38,0.2-0.74,0.54-0.92c15.5-8.1,24.75-8.21,35.22-7.52c2.67,0.18,6.17,0.32,9.66-0.12
						c1.54-0.2,6.75-0.68,9.94-0.51c5.97,0.32,10.01,2.18,13.92,3.99c1.97,0.91,3.83,1.77,5.91,2.43c0.39-0.08,0.82,0.07,1.05,0.43
						c0.3,0.46,0.17,1.08-0.29,1.38C337.47,397.92,322.19,398.68,312.41,398.68z M277.87,390.11c4.86,1.89,17.9,6.42,31.33,6.55
						c8.72,0.09,24.62,0.24,38.2-7.72c-1.57-0.6-3.05-1.28-4.5-1.95c-3.73-1.73-7.59-3.51-13.18-3.81c-2.79-0.15-7.69,0.26-9.58,0.5
						c-3.66,0.46-7.29,0.31-10.05,0.13C300.38,383.16,291.76,383.23,277.87,390.11z"/>
				</g>
				<g>
					<path class="st5" d="M314.24,391.85c-1.91,0-3.64-0.32-5.98-0.76c-0.88-0.16-1.85-0.34-2.96-0.53
						c-8.54-1.45-29.52,0.63-29.73,0.65c-0.55,0.06-1.04-0.35-1.09-0.9c-0.05-0.55,0.35-1.04,0.9-1.09
						c0.87-0.09,21.45-2.12,30.26-0.63c1.12,0.19,2.1,0.37,2.99,0.54c4.77,0.89,6.56,1.22,12.69-0.51
						c9.7-2.74,27.75-1.01,28.52-0.93c0.55,0.05,0.95,0.54,0.9,1.09c-0.05,0.55-0.54,0.96-1.09,0.9
						c-0.18-0.02-18.45-1.77-27.78,0.87C318.48,391.49,316.26,391.85,314.24,391.85z"/>
				</g>
				<g>
					<path class="st5" d="M275.47,391.21c-0.06,0-0.12-0.01-0.18-0.02c-1.52-0.28-3.37-0.34-5.71-0.42
						c-3.27-0.12-7.34-0.26-12.54-1.07c-8.04-1.25-9.58-3.26-9.81-3.65c-0.28-0.48-0.12-1.09,0.36-1.37
						c0.47-0.28,1.09-0.12,1.37,0.36c0,0,0,0,0,0c0.01,0,1.41,1.6,8.39,2.68c5.09,0.79,9.09,0.93,12.31,1.04
						c2.42,0.08,4.33,0.15,5.99,0.46c0.54,0.1,0.9,0.62,0.8,1.16C276.37,390.88,275.95,391.21,275.47,391.21z"/>
				</g>
				<g>
					<path class="st5" d="M349.87,389.58c-0.55,0-1-0.44-1-0.99c0-0.55,0.44-1,0.99-1.01c0.09,0,9.44-0.09,18.13-1.44
						c7.07-1.1,8.42-2.72,8.43-2.74c0.28-0.48,0.87-0.61,1.35-0.33c0.48,0.28,0.62,0.92,0.34,1.4c-0.23,0.39-1.77,2.4-9.81,3.65
						C359.46,389.5,349.97,389.58,349.87,389.58C349.87,389.58,349.87,389.58,349.87,389.58z"/>
				</g>
			</g>
			<g id="Nose_00000006688612064593116870000018393479347396334490_">
				<g>
					<path class="st5" d="M312.67,357c-0.03,0-0.05,0-0.08,0c-3.07-0.24-4.75-1.48-6.54-2.79c-2.12-1.56-4.52-3.32-10.12-4.32
						c-11.37-2.02-11.24-8.55-11.23-8.83c0.02-0.55,0.48-0.99,1.04-0.96c0.55,0.02,0.98,0.49,0.96,1.04c0,0.19,0.04,5.08,9.58,6.78
						c6.06,1.08,8.77,3.07,10.95,4.68c1.73,1.27,2.99,2.2,5.43,2.4c2.45-0.21,3.7-1.13,5.43-2.4c2.18-1.6,4.89-3.6,10.95-4.68
						c9.55-1.7,9.59-6.59,9.58-6.79c-0.01-0.55,0.43-1.01,0.97-1.02c0.57,0,1,0.41,1.03,0.95c0.01,0.28,0.14,6.81-11.23,8.83
						c-5.6,1-8,2.76-10.12,4.32c-1.79,1.31-3.47,2.55-6.54,2.79C312.72,357,312.69,357,312.67,357z"/>
				</g>
				<g>
					<path class="st5" d="M312.7,346.57c-1.93-0.07-2.92-0.44-4.08-0.86c-1.34-0.49-2.87-1.05-6.43-1.37
						c-6.9-0.61-7.27-2.65-7.23-3.26c0.03-0.41,0.4-0.71,0.81-0.69c0.38,0.03,0.67,0.33,0.69,0.7c0.06,0.13,0.78,1.3,5.86,1.75
						c3.76,0.33,5.46,0.96,6.82,1.46c1.08,0.4,1.93,0.71,3.56,0.77c1.57-0.06,2.42-0.38,3.5-0.77c1.36-0.5,3.05-1.12,6.82-1.46
						c5.08-0.45,5.8-1.62,5.86-1.75c0.02-0.37,0.31-0.67,0.69-0.7c0.42-0.03,0.78,0.27,0.81,0.69c0.05,0.61-0.33,2.65-7.23,3.26
						c-3.57,0.32-5.09,0.88-6.43,1.37C315.56,346.13,314.57,346.5,312.7,346.57z M328.88,341.19
						C328.88,341.19,328.88,341.19,328.88,341.19C328.88,341.19,328.88,341.19,328.88,341.19z M296.46,341.19
						C296.46,341.19,296.46,341.19,296.46,341.19C296.46,341.19,296.46,341.19,296.46,341.19z M328.88,341.19
						C328.88,341.19,328.88,341.19,328.88,341.19C328.88,341.19,328.88,341.19,328.88,341.19z M296.46,341.19
						C296.46,341.19,296.46,341.19,296.46,341.19C296.46,341.19,296.46,341.19,296.46,341.19z M296.46,341.19
						C296.46,341.19,296.46,341.19,296.46,341.19C296.46,341.19,296.46,341.19,296.46,341.19z"/>
				</g>
				<g>
					<path class="st5" d="M312.67,340.92c-3.84,0-10.38-1.89-10.66-1.97c-0.4-0.12-0.63-0.53-0.51-0.93
						c0.12-0.4,0.53-0.63,0.93-0.51c0.07,0.02,6.62,1.91,10.24,1.91c3.36,0,10.18-1.89,10.25-1.91c0.4-0.11,0.81,0.12,0.92,0.52
						c0.11,0.4-0.12,0.81-0.52,0.92C323.03,339.04,316.23,340.92,312.67,340.92z"/>
				</g>
			</g>
			<g id="Eyes_00000137132135019557254580000000737479585422814904_">
				<g id="Right_00000038388747075162932740000005776133321253109400_">
					<g>
						<path class="st5" d="M373.11,303.88c-3.63,0-6.51-1-8.99-2.18c-5.85-2.78-11.65-4.88-17.25-6.27l-0.95-0.24
							c-0.42-0.1-0.72-0.46-0.76-0.89c-0.03-0.43,0.21-0.83,0.6-1c2.93-1.25,5.91-3.31,9.05-5.48c8.97-6.19,19.13-13.2,32.26-4.12
							c12.75,8.82,17.08,8.64,17.11,8.63c0.55-0.07,1.04,0.33,1.1,0.88c0.06,0.55-0.33,1.04-0.88,1.11
							c-0.08,0.01-8.47,1.03-18.23,5.94C380.9,302.94,376.65,303.88,373.11,303.88z M349.04,293.93c5.2,1.41,10.55,3.41,15.94,5.97
							c4.68,2.22,10.38,3.58,20.31-1.41c5.72-2.87,10.9-4.45,14.39-5.28c-2.9-1.14-7.31-3.4-13.74-7.85
							c-11.99-8.3-21.13-1.99-29.98,4.12C353.59,291.12,351.32,292.69,349.04,293.93z"/>
					</g>
					<g>
						<path class="st5" d="M377.33,296.77c8.42-1.65,8.81-10.51,9.19-12.23c-9.5-6.57-17.37-4.33-24.47-0.22
							C362.62,294.37,370.43,298.12,377.33,296.77z"/>
						<path class="st5" d="M374.58,298.04c-3.07,0-6-0.95-8.33-2.76c-2.19-1.7-4.87-4.97-5.21-10.9c-0.02-0.38,0.17-0.73,0.5-0.92
							c6.37-3.7,15.03-7.01,25.54,0.26c0.33,0.23,0.49,0.64,0.41,1.04c-0.04,0.17-0.07,0.4-0.12,0.7c-0.4,2.64-1.63,10.68-9.86,12.3
							l0,0C376.54,297.94,375.55,298.04,374.58,298.04z M363.09,284.88c0.35,3.82,1.86,6.86,4.39,8.83c2.6,2.02,6.13,2.78,9.65,2.08
							l0,0c6.85-1.34,7.84-7.86,8.26-10.64c0.01-0.05,0.01-0.1,0.02-0.15C376.41,279.05,369.1,281.49,363.09,284.88z"/>
					</g>
					<g>
						<path class="st5" d="M362.05,310.03c-0.09,0-0.18-0.02-0.27-0.05c-9.93-3.8-19.59-11.43-19.69-11.5
							c-0.32-0.26-0.38-0.73-0.12-1.05c0.26-0.32,0.73-0.38,1.05-0.12c0.09,0.08,9.58,7.56,19.29,11.28
							c0.39,0.15,0.58,0.58,0.43,0.97C362.63,309.85,362.35,310.03,362.05,310.03z"/>
					</g>
					<g>
						<path class="st5" d="M373.85,311.91c-3.28,0-5.66-0.29-5.85-0.32c-0.41-0.05-0.7-0.43-0.65-0.84c0.05-0.41,0.43-0.7,0.84-0.65
							c0.1,0.01,9.84,1.21,17.33-1.33c0.39-0.13,0.82,0.08,0.95,0.47c0.13,0.39-0.08,0.82-0.47,0.95
							C381.94,311.57,377.37,311.91,373.85,311.91z"/>
					</g>
					<g>
						<path class="st5" d="M389.21,308.96c-0.32,0-0.61-0.2-0.71-0.52c-0.13-0.39,0.08-0.82,0.48-0.95
							c6.91-2.28,8.33-3.15,12.53-5.73c1.23-0.76,2.7-1.66,4.61-2.79c0.36-0.21,0.82-0.09,1.03,0.26c0.21,0.36,0.09,0.82-0.26,1.03
							c-1.9,1.12-3.36,2.02-4.59,2.78c-4.31,2.65-5.76,3.55-12.84,5.88C389.36,308.95,389.28,308.96,389.21,308.96z"/>
					</g>
					<g>
						<path class="st5" d="M339.98,267.25c-0.22,0-0.45-0.07-0.63-0.23c-0.43-0.35-0.49-0.98-0.14-1.41
							c0.33-0.4,8.18-9.79,22.39-15.11c23.75-8.88,46.07,0.96,60.6,10.77c0.46,0.31,0.58,0.93,0.27,1.39s-0.93,0.58-1.39,0.27
							c-20.25-13.67-40.55-17.33-58.7-10.59c-13.75,5.11-21.56,14.44-21.64,14.54C340.56,267.12,340.27,267.25,339.98,267.25z"/>
					</g>
					<g>
						<path class="st5" d="M341.23,281.44c-0.16,0-0.33-0.05-0.46-0.16c-0.33-0.26-0.38-0.73-0.12-1.05
							c0.35-0.45,8.83-11.02,25.23-14.57c0.41-0.09,0.8,0.17,0.89,0.57c0.09,0.4-0.17,0.8-0.57,0.89
							c-15.84,3.43-24.28,13.93-24.37,14.04C341.67,281.34,341.45,281.44,341.23,281.44z"/>
					</g>
					<g>
						<path class="st5" d="M388.29,269.98c-0.12,0-0.24-0.03-0.35-0.09c-7.22-3.83-17.39-3.1-17.5-3.09
							c-0.4,0.03-0.77-0.28-0.81-0.69c-0.03-0.41,0.28-0.77,0.69-0.81c0.43-0.04,10.7-0.77,18.31,3.26c0.37,0.19,0.5,0.65,0.31,1.01
							C388.82,269.83,388.56,269.98,388.29,269.98z"/>
					</g>
					<g>
						<path class="st5" d="M413.26,288.81c-0.08,0-0.15-0.01-0.23-0.04c-9.41-3.05-12.6-5.26-15.69-7.4
							c-2.48-1.71-5.04-3.49-10.96-5.76c-16.88-6.48-28.03,1.59-36.16,7.48c-2.21,1.6-4.12,2.98-5.85,3.83
							c-0.37,0.18-0.82,0.03-1-0.34c-0.18-0.37-0.03-0.82,0.34-1c1.61-0.79,3.47-2.14,5.63-3.7c7.94-5.75,19.95-14.43,37.58-7.66
							c6.09,2.34,8.73,4.16,11.28,5.92c3.14,2.17,6.1,4.22,15.3,7.21c0.39,0.13,0.61,0.55,0.48,0.94
							C413.87,288.61,413.58,288.81,413.26,288.81z"/>
					</g>
				</g>
				<g id="Left_00000021814316110927226090000011942912375810731661_">
					<g>
						<path class="st5" d="M248.61,303.88c-3.75,0-8.28-1.11-13.96-4.38c-9.47-5.46-17.78-6.96-17.86-6.98
							c-0.54-0.1-0.91-0.61-0.81-1.16c0.09-0.54,0.61-0.91,1.15-0.81c0.03,0,4.42,0.4,17.58-7.63c13.62-8.32,23.37-0.73,31.97,5.96
							c3.02,2.35,5.87,4.57,8.73,5.99c0.38,0.19,0.6,0.61,0.54,1.03c-0.06,0.43-0.38,0.77-0.81,0.85l-0.96,0.18
							c-5.66,1.06-11.57,2.83-17.58,5.27C254.32,303.11,251.73,303.88,248.61,303.88z M221.59,291.66c3.44,1.03,8.52,2.9,14.07,6.1
							c9.63,5.56,15.4,4.52,20.2,2.57c5.53-2.24,10.99-3.94,16.25-5.04c-2.2-1.37-4.38-3.07-6.65-4.84
							c-8.48-6.6-17.25-13.42-29.7-5.83C229.07,288.69,224.54,290.69,221.59,291.66z"/>
					</g>
					<g>
						<path class="st5" d="M243.7,296.5c6.63,2.53,15.09-1.63,15.24-12.02c-6.67-4.22-14.2-6.51-23.71-0.71
							c-0.05,0.03-0.09,0.05-0.13,0.08C235.49,286.15,237.17,294.01,243.7,296.5z"/>
						<path class="st5" d="M247.62,298.22c-1.44,0-2.89-0.26-4.27-0.79c-6.7-2.56-8.69-10.24-9.24-13.42
							c-0.07-0.41,0.12-0.81,0.47-1.02l0.65,0.78l-0.52-0.85c10.66-6.51,18.83-3.03,24.76,0.72c0.29,0.19,0.47,0.51,0.46,0.86
							c-0.07,5.11-2.08,9.27-5.65,11.69C252.3,297.53,249.97,298.22,247.62,298.22z M236.21,284.34c0.63,3.13,2.52,9.19,7.85,11.22
							l0,0c3.03,1.16,6.44,0.77,9.1-1.04c2.89-1.96,4.57-5.32,4.76-9.51C252.32,281.56,245.38,278.97,236.21,284.34z"/>
					</g>
					<g>
						<path class="st5" d="M258.24,310.62c-0.32,0-0.61-0.2-0.71-0.52c-0.12-0.39,0.09-0.82,0.49-0.94
							c9.91-3.15,19.81-10.08,19.91-10.15c0.34-0.24,0.81-0.16,1.04,0.18c0.24,0.34,0.16,0.81-0.18,1.04
							c-0.1,0.07-10.18,7.13-20.32,10.35C258.39,310.61,258.31,310.62,258.24,310.62z"/>
					</g>
					<g>
						<path class="st5" d="M249.5,311.91c-3.52,0-9.9-0.34-15.22-2.5c-0.38-0.16-0.57-0.59-0.41-0.98s0.59-0.57,0.98-0.41
							c7.34,2.97,17.13,2.32,17.22,2.32c0.42-0.03,0.77,0.28,0.8,0.7c0.03,0.41-0.28,0.77-0.7,0.8
							C252.04,311.84,251.05,311.91,249.5,311.91z"/>
					</g>
					<g>
						<path class="st5" d="M231.18,307.99c-0.09,0-0.18-0.02-0.28-0.05c-6.13-2.42-12.16-8.1-12.42-8.34
							c-0.3-0.29-0.31-0.76-0.03-1.06c0.28-0.3,0.76-0.31,1.06-0.03c0.06,0.06,6.07,5.72,11.93,8.03c0.38,0.15,0.57,0.59,0.42,0.97
							C231.77,307.81,231.48,307.99,231.18,307.99z"/>
					</g>
					<g>
						<path class="st5" d="M299.24,308.24L299.24,308.24c-0.55,0-1-0.45-1-1c0-22.13-5.82-35.76-20.1-47.04
							c-15.34-12.13-42.82-18.49-73.94,0.02c-0.47,0.28-1.09,0.13-1.37-0.35s-0.13-1.09,0.35-1.37c32-19.03,60.34-12.4,76.21,0.13
							c18.33,14.49,20.86,31.93,20.86,48.61C300.24,307.79,299.79,308.24,299.24,308.24z"/>
					</g>
					<g>
						<path class="st5" d="M280.66,283.27c-0.24,0-0.47-0.11-0.62-0.32c-0.08-0.11-7.9-11.08-23.52-15.41
							c-0.4-0.11-0.63-0.52-0.52-0.92s0.53-0.63,0.92-0.52c16.16,4.49,24.02,15.53,24.35,16c0.24,0.34,0.15,0.81-0.19,1.04
							C280.96,283.23,280.81,283.27,280.66,283.27z"/>
					</g>
					<g>
						<path class="st5" d="M234.34,269.13c-0.28,0-0.56-0.16-0.68-0.44c-0.17-0.38-0.01-0.82,0.37-0.99
							c7.84-3.59,18.04-2.27,18.47-2.21c0.41,0.06,0.7,0.43,0.64,0.84c-0.05,0.41-0.43,0.71-0.84,0.64
							c-0.1-0.01-10.21-1.32-17.64,2.08C234.55,269.1,234.44,269.13,234.34,269.13z"/>
					</g>
					<g>
						<path class="st5" d="M277.54,288.66c-0.12,0-0.25-0.03-0.37-0.1c-1.67-0.94-3.5-2.43-5.62-4.16
							c-7.79-6.35-18.45-15.04-35.67-9.54c-6.04,1.93-8.7,3.55-11.27,5.12c-3.21,1.95-6.52,3.98-16.09,6.49
							c-0.39,0.11-0.81-0.13-0.92-0.54c-0.1-0.4,0.13-0.81,0.54-0.92c9.35-2.45,12.43-4.33,15.69-6.31
							c2.65-1.61,5.39-3.28,11.6-5.27c18-5.74,29.48,3.61,37.08,9.81c2.07,1.68,3.85,3.14,5.41,4.01c0.36,0.2,0.49,0.66,0.29,1.02
							C278.06,288.52,277.8,288.66,277.54,288.66z"/>
					</g>
				</g>
			</g>
			<g id="Line_00000124863137342258458850000015086209451933568428_">
				<g>
					<path class="st5" d="M433.1,241.41c-0.26,0-0.51-0.13-0.65-0.37c-4.63-7.99-10.32-15.51-16.92-22.35
						c-0.29-0.3-0.28-0.77,0.02-1.06c0.3-0.29,0.77-0.28,1.06,0.02c6.68,6.92,12.45,14.54,17.13,22.64
						c0.21,0.36,0.08,0.82-0.27,1.02C433.36,241.37,433.23,241.41,433.1,241.41z"/>
				</g>
				<g>
					<path class="st5" d="M411.15,214.09c-0.18,0-0.37-0.07-0.51-0.2c-2.67-2.47-5.49-4.85-8.38-7.08
						c-0.33-0.25-0.39-0.72-0.14-1.05c0.25-0.33,0.72-0.39,1.05-0.14c2.92,2.26,5.78,4.67,8.48,7.17c0.3,0.28,0.32,0.76,0.04,1.06
						C411.55,214.01,411.35,214.09,411.15,214.09z"/>
				</g>
				<g>
					<path class="st5" d="M396.87,202.71c-0.15,0-0.29-0.04-0.42-0.13c-15.41-10.57-33.27-18.12-53.09-22.43
						c-0.41-0.09-0.66-0.49-0.57-0.89c0.09-0.4,0.49-0.66,0.89-0.57c20.01,4.35,38.06,11.98,53.62,22.66
						c0.34,0.23,0.43,0.7,0.19,1.04C397.35,202.6,397.11,202.71,396.87,202.71z"/>
				</g>
				<g>
					<path class="st5" d="M449.9,292.72c-0.38,0-0.7-0.29-0.75-0.67c-0.81-7.48-2.32-14.64-4.5-21.29
						c-0.13-0.39,0.09-0.82,0.48-0.95s0.82,0.09,0.95,0.48c2.21,6.75,3.74,14.01,4.56,21.6c0.04,0.41-0.25,0.78-0.67,0.83
						C449.95,292.72,449.93,292.72,449.9,292.72z"/>
				</g>
				<g>
					<path class="st5" d="M449.14,336.61c-0.05,0-0.11-0.01-0.16-0.02c-0.4-0.09-0.66-0.49-0.57-0.89
						c2.84-12.81,1.56-32.17,1.54-32.37c-0.03-0.41,0.28-0.77,0.7-0.8c0.38-0.03,0.77,0.28,0.8,0.7c0.01,0.2,1.31,19.77-1.58,32.79
						C449.8,336.37,449.49,336.61,449.14,336.61z"/>
				</g>
				<g>
					<path class="st5" d="M217.2,410.59c-0.17,0-0.35-0.06-0.49-0.18c-5.76-4.93-11.13-10.71-15.96-17.2
						c-0.25-0.33-0.18-0.8,0.15-1.05c0.33-0.25,0.8-0.18,1.05,0.15c4.77,6.4,10.06,12.1,15.74,16.95c0.32,0.27,0.35,0.74,0.08,1.06
						C217.62,410.51,217.41,410.59,217.2,410.59z"/>
				</g>
				<g>
					<path class="st5" d="M197.5,388.03c-0.24,0-0.48-0.12-0.63-0.34c-8.43-12.76-14.68-27.11-18.56-42.65
						c-0.1-0.4,0.14-0.81,0.55-0.91c0.4-0.1,0.81,0.14,0.91,0.55c3.84,15.37,10.01,29.57,18.35,42.19c0.23,0.35,0.13,0.81-0.21,1.04
						C197.78,387.99,197.64,388.03,197.5,388.03z"/>
				</g>
				<g>
					<path class="st5" d="M316.98,452.22c-0.01,0-0.02,0-0.04,0c-5.42-0.25-10.85-0.74-16.12-1.46c-0.41-0.06-0.7-0.43-0.64-0.84
						c0.06-0.41,0.43-0.7,0.84-0.64c5.23,0.71,10.61,1.2,15.99,1.45c0.41,0.02,0.73,0.37,0.71,0.78
						C317.71,451.91,317.38,452.22,316.98,452.22z"/>
				</g>
				<g>
					<path class="st5" d="M295.7,449.98c-0.02,0-0.04,0-0.05,0c-18.45-1.32-49.04-12.72-68.29-29.5c-0.31-0.27-0.34-0.75-0.07-1.06
						c0.27-0.31,0.75-0.35,1.06-0.07c19.02,16.57,49.21,27.83,67.42,29.13c0.41,0.03,0.72,0.39,0.69,0.8
						C296.42,449.68,296.09,449.98,295.7,449.98z"/>
				</g>
			</g>
			<g id="Dot_00000109712576376020223370000009799587373201931958_">
				<g>
					<path class="st5" d="M261.55,182.67c-1.35-1.07-3.31-0.85-4.38,0.5c-1.07,1.35-0.85,3.31,0.5,4.38
						c0.57,0.45,1.26,0.68,1.94,0.68c0.92,0,1.83-0.4,2.45-1.18h0C263.12,185.71,262.9,183.75,261.55,182.67z"/>
				</g>
				<g>
					<path class="st5" d="M243.75,193.18c-0.37-1.53-1.92-2.48-3.45-2.11c-1.53,0.37-2.48,1.92-2.11,3.45
						c0.18,0.74,0.64,1.37,1.29,1.77c0.45,0.28,0.97,0.42,1.49,0.42c0.23,0,0.45-0.03,0.68-0.08c0.74-0.18,1.37-0.64,1.77-1.29
						C243.81,194.69,243.93,193.92,243.75,193.18z"/>
				</g>
				<g>
					<path class="st5" d="M256.52,197.62c-0.08-0.66-0.4-1.25-0.92-1.66s-1.17-0.6-1.83-0.52c-0.66,0.08-1.25,0.4-1.66,0.92
						c-0.85,1.07-0.67,2.64,0.4,3.49c0.46,0.36,1,0.54,1.54,0.54c0.73,0,1.46-0.32,1.95-0.94
						C256.41,198.92,256.59,198.28,256.52,197.62z"/>
				</g>
				<g>
					<path class="st5" d="M240.02,206.94c-0.28-1.14-1.43-1.84-2.56-1.56c-1.14,0.28-1.84,1.43-1.56,2.56
						c0.23,0.97,1.11,1.62,2.06,1.62c0.17,0,0.33-0.02,0.5-0.06h0c0.55-0.13,1.02-0.47,1.31-0.96
						C240.07,208.06,240.16,207.49,240.02,206.94z"/>
				</g>
				<g>
					<path class="st5" d="M338.2,443.04c-0.47-0.69-1.18-1.15-2-1.3c-0.82-0.15-1.65,0.02-2.34,0.5c-0.69,0.47-1.15,1.18-1.3,2
						c-0.15,0.82,0.02,1.65,0.5,2.34c0.6,0.88,1.58,1.35,2.58,1.35c0.61,0,1.22-0.18,1.76-0.55
						C338.81,446.41,339.17,444.46,338.2,443.04z"/>
				</g>
				<g>
					<path class="st5" d="M363.12,434.95c-1.58-0.09-2.93,1.11-3.03,2.68c-0.05,0.76,0.21,1.5,0.71,2.07
						c0.51,0.57,1.21,0.91,1.97,0.96c0.06,0,0.12,0.01,0.18,0.01c0.7,0,1.37-0.25,1.89-0.72c0.57-0.51,0.91-1.21,0.96-1.97
						C365.9,436.41,364.69,435.05,363.12,434.95z"/>
				</g>
				<g>
					<path class="st5" d="M350.79,429.95c-0.77-1.13-2.32-1.42-3.45-0.64c-1.13,0.77-1.42,2.32-0.64,3.45
						c0.48,0.7,1.26,1.08,2.05,1.08c0.48,0,0.97-0.14,1.4-0.43C351.28,432.63,351.57,431.08,350.79,429.95z"/>
				</g>
				<g>
					<path class="st5" d="M381.32,425.78c-0.38-0.42-0.9-0.68-1.46-0.71c-0.57-0.04-1.11,0.15-1.54,0.53
						c-0.42,0.38-0.68,0.9-0.71,1.46c-0.03,0.57,0.15,1.11,0.53,1.54c0.38,0.42,0.9,0.68,1.46,0.71c0.04,0,0.09,0,0.13,0
						c0.52,0,1.01-0.19,1.41-0.53c0.42-0.38,0.68-0.9,0.71-1.46C381.89,426.75,381.7,426.21,381.32,425.78z"/>
				</g>
				<g>
					<path class="st5" d="M439.05,336.09c-1.18-1.04-2.99-0.93-4.04,0.25c-1.04,1.18-0.93,2.99,0.25,4.04
						c0.54,0.48,1.22,0.71,1.89,0.71c0.79,0,1.58-0.33,2.15-0.97C440.34,338.95,440.23,337.14,439.05,336.09z"/>
				</g>
				<g>
					<path class="st5" d="M440.84,354.4c-0.42-0.38-0.97-0.56-1.54-0.53c-0.57,0.04-1.08,0.29-1.46,0.71
						c-0.77,0.88-0.69,2.22,0.19,3c0.4,0.36,0.9,0.53,1.4,0.53c0.59,0,1.17-0.24,1.59-0.72c0.38-0.43,0.56-0.97,0.53-1.54
						C441.52,355.3,441.26,354.78,440.84,354.4z"/>
				</g>
			</g>
		</g>
		<g id="Shine_00000022521446595630799700000013348868238786155961_">
			<g>
				<g>
					<path class="st5" d="M315.79,158.27c-0.13,0-0.26-0.03-0.38-0.1c-0.36-0.21-0.47-0.67-0.26-1.03
						c6.76-11.4,7.96-15.13,5.37-28.71c-1.14-5.96-3.65-11.75-6.07-17.36c-3.45-7.98-7.03-16.23-6.67-25.06
						c0.02-0.41,0.37-0.73,0.78-0.72c0.41,0.02,0.74,0.37,0.72,0.78c-0.34,8.48,3.01,16.22,6.55,24.4c2.46,5.68,5,11.55,6.17,17.67
						c2.67,14,1.33,18.14-5.55,29.76C316.3,158.14,316.05,158.27,315.79,158.27z"/>
				</g>
				<g>
					<path class="st5" d="M330.23,143.83c-0.03,0-0.06,0-0.1-0.01c-0.41-0.05-0.7-0.43-0.65-0.84c1.44-11.33-0.46-23.26-5.35-33.58
						c-0.43-0.91-0.89-1.82-1.35-2.73c-1.77-3.51-3.59-7.15-4.03-11.15c-0.05-0.41,0.25-0.78,0.66-0.83
						c0.4-0.04,0.78,0.25,0.83,0.66c0.41,3.73,2.18,7.24,3.88,10.64c0.46,0.92,0.92,1.84,1.36,2.76c5.01,10.58,6.95,22.8,5.48,34.41
						C330.92,143.55,330.6,143.83,330.23,143.83z"/>
				</g>
				<g>
					<path class="st5" d="M307.97,146.04c-0.08,0-0.17-0.01-0.25-0.04c-0.39-0.14-0.59-0.57-0.45-0.96
						c2.18-6.03,2.33-12.73,0.41-18.85c-0.12-0.4,0.1-0.82,0.49-0.94c0.4-0.13,0.82,0.1,0.94,0.49c2.01,6.44,1.86,13.47-0.43,19.81
						C308.57,145.85,308.28,146.04,307.97,146.04z"/>
				</g>
				<g>
					<path class="st5" d="M232.72,158.38c-0.31,0-0.61-0.2-0.71-0.51l-4.21-12.59c-0.96-2.86-1.94-5.81-3.67-8.29
						c-3.17-4.56-8.52-7.14-13.7-9.63c-5.71-2.75-11.61-5.58-14.8-11.11c-0.21-0.36-0.08-0.82,0.27-1.02
						c0.36-0.21,0.82-0.08,1.02,0.28c2.96,5.13,8.39,7.74,14.15,10.51c5.35,2.58,10.89,5.24,14.28,10.13
						c1.84,2.66,2.87,5.72,3.86,8.67l4.21,12.59c0.13,0.39-0.08,0.82-0.47,0.95C232.88,158.36,232.8,158.38,232.72,158.38z"/>
				</g>
				<g>
					<path class="st5" d="M222.35,162.63c-0.32,0-0.62-0.21-0.72-0.53l-6.86-22.38c-0.12-0.4,0.1-0.82,0.5-0.94
						c0.4-0.12,0.82,0.1,0.94,0.5l6.86,22.38c0.12,0.4-0.1,0.82-0.5,0.94C222.49,162.62,222.42,162.63,222.35,162.63z"/>
				</g>
				<g>
					<path class="st5" d="M179.95,233.61c-0.2,0-0.39-0.08-0.54-0.23c-10.53-11-12.43-12.98-25.34-21.78
						c-3.02-2.06-7.05-4.6-11.47-5.98c-5.22-1.64-10.97-1.72-16.54-1.8c-7.5-0.11-15.25-0.22-21.77-4.15
						c-0.35-0.21-0.47-0.67-0.25-1.03c0.21-0.35,0.67-0.47,1.03-0.25c6.17,3.72,13.38,3.83,21.02,3.94
						c5.67,0.08,11.54,0.17,16.97,1.87c4.61,1.45,8.76,4.06,11.87,6.18c12.68,8.64,14.83,10.75,25.58,21.98
						c0.29,0.3,0.28,0.77-0.02,1.06C180.32,233.54,180.13,233.61,179.95,233.61z"/>
				</g>
				<g>
					<path class="st5" d="M187.59,222.16c-0.21,0-0.41-0.09-0.56-0.25c-8.6-9.73-17.39-13.97-28.87-18.9
						c-0.38-0.16-0.56-0.6-0.39-0.98c0.16-0.38,0.61-0.56,0.99-0.39c11.28,4.84,20.61,9.34,29.4,19.28
						c0.27,0.31,0.25,0.78-0.06,1.06C187.95,222.1,187.77,222.16,187.59,222.16z"/>
				</g>
				<g>
					<path class="st5" d="M153.21,225.39c-0.18,0-0.36-0.06-0.5-0.19c-4.7-4.22-10.33-7.57-16.29-9.69
						c-0.39-0.14-0.59-0.57-0.45-0.96c0.14-0.39,0.57-0.59,0.96-0.46c6.13,2.18,11.94,5.64,16.78,9.99
						c0.31,0.28,0.33,0.75,0.06,1.06C153.62,225.3,153.41,225.39,153.21,225.39z"/>
				</g>
				<g>
					<path class="st5" d="M78.54,319.96c-0.4,0-0.73-0.31-0.75-0.71c-0.02-0.41,0.3-0.76,0.71-0.78c8.31-0.39,16.36-3.29,24.14-6.1
						c6.06-2.18,12.32-4.44,18.76-5.56c16.58-2.88,20.02-2.38,36.31,2.41c0.4,0.12,0.62,0.53,0.51,0.93
						c-0.12,0.4-0.53,0.62-0.93,0.51c-16.23-4.78-19.26-5.22-35.63-2.37c-6.31,1.09-12.51,3.33-18.5,5.49
						c-7.89,2.85-16.05,5.79-24.58,6.19C78.56,319.96,78.55,319.96,78.54,319.96z"/>
				</g>
				<g>
					<path class="st5" d="M145.51,297.16c-0.06,0-0.13-0.01-0.19-0.02c-6.02-1.57-12.39-1.57-18.41-0.02
						c-0.4,0.1-0.81-0.14-0.91-0.54c-0.1-0.4,0.14-0.81,0.54-0.91c6.27-1.62,12.9-1.61,19.16,0.02c0.4,0.1,0.64,0.51,0.54,0.92
						C146.14,296.94,145.84,297.16,145.51,297.16z"/>
				</g>
				<g>
					<path class="st5" d="M117.93,318.39c-0.34,0-0.65-0.23-0.73-0.58c-0.09-0.4,0.16-0.81,0.56-0.9c4.12-0.95,8.49-1.02,12.64-0.21
						c0.41,0.08,0.67,0.47,0.59,0.88c-0.08,0.41-0.47,0.67-0.88,0.59c-3.95-0.77-8.1-0.71-12.01,0.2
						C118.04,318.38,117.99,318.39,117.93,318.39z"/>
				</g>
				<g>
					<path class="st5" d="M119.66,428.58c-0.15,0-0.3-0.05-0.43-0.14c-0.34-0.24-0.42-0.71-0.17-1.05
						c5.99-8.39,13.41-17.86,23.01-24.53c5.54-3.85,11.73-6.73,17.71-9.51l15.51-7.21c0.38-0.18,0.82-0.01,1,0.36
						c0.17,0.38,0.01,0.82-0.36,1l-15.51,7.21c-5.92,2.75-12.05,5.6-17.49,9.38c-9.42,6.54-16.73,15.89-22.65,24.17
						C120.12,428.47,119.89,428.58,119.66,428.58z"/>
				</g>
				<g>
					<path class="st5" d="M143.68,393.95c-0.24,0-0.47-0.11-0.61-0.32c-0.24-0.34-0.16-0.81,0.18-1.04
						c5.42-3.81,11.23-7.14,17.26-9.88c0.37-0.17,0.82-0.01,0.99,0.37c0.17,0.38,0,0.82-0.37,0.99c-5.95,2.7-11.68,5.98-17.02,9.74
						C143.98,393.91,143.83,393.95,143.68,393.95z"/>
				</g>
				<g>
					<path class="st5" d="M146.79,413.62c-0.26,0-0.51-0.14-0.65-0.38c-0.2-0.36-0.08-0.82,0.28-1.02
						c7.21-4.1,14.96-7.11,23.04-8.97c0.4-0.09,0.81,0.16,0.9,0.56c0.09,0.4-0.16,0.81-0.56,0.9c-7.94,1.82-15.55,4.79-22.63,8.81
						C147.05,413.59,146.92,413.62,146.79,413.62z"/>
				</g>
				<g>
					<path class="st5" d="M203.53,521.25c-0.09,0-0.18-0.02-0.26-0.05c-0.39-0.15-0.58-0.58-0.44-0.97
						c3.61-9.64,5.44-19.76,5.43-30.06c0-1-0.02-2-0.04-3c-0.08-4.5-0.16-9.16,1.29-13.52c1.39-4.16,4.01-7.67,6.56-11.05
						c2.73-3.63,4.94-6.18,7.08-8.65c2.12-2.44,4.32-4.97,7.01-8.56c0.25-0.33,0.72-0.4,1.05-0.15c0.33,0.25,0.4,0.72,0.15,1.05
						c-2.73,3.63-4.94,6.18-7.08,8.65c-2.12,2.44-4.32,4.97-7.01,8.56c-2.47,3.29-5.02,6.69-6.33,10.63
						c-1.37,4.12-1.29,8.65-1.22,13.02c0.02,1.01,0.04,2.02,0.04,3.03c0.01,10.48-1.85,20.77-5.52,30.59
						C204.12,521.06,203.84,521.25,203.53,521.25z"/>
				</g>
				<g>
					<path class="st5" d="M199.41,489.84c-0.37,0-0.7-0.28-0.74-0.66c-1.23-9.83,0.69-20.03,5.42-28.72c0.2-0.36,0.65-0.5,1.02-0.3
						c0.36,0.2,0.5,0.65,0.3,1.02c-4.58,8.42-6.45,18.3-5.25,27.82c0.05,0.41-0.24,0.79-0.65,0.84
						C199.48,489.83,199.45,489.84,199.41,489.84z"/>
				</g>
				<g>
					<path class="st5" d="M227.86,472.82c-0.1,0-0.21-0.02-0.31-0.07c-0.38-0.17-0.55-0.62-0.38-0.99c1.42-3.15,3.49-6.07,5.98-8.46
						c0.3-0.29,0.77-0.28,1.06,0.02s0.28,0.77-0.02,1.06c-2.35,2.26-4.31,5.02-5.65,8C228.42,472.66,228.15,472.82,227.86,472.82z"
						/>
				</g>
				<g>
					<path class="st5" d="M319.43,545.63c-0.36,0-0.67-0.26-0.74-0.62c-1.79-10.13-4.82-20.04-9-29.45
						c-0.37-0.82-0.74-1.64-1.12-2.46c-1.45-3.18-2.96-6.47-3.9-9.92c-1.59-5.8-1.58-11.84-1.44-17.53
						c0.09-3.39,0.58-6.37,1.05-9.24c0.37-2.23,0.75-4.53,0.96-7.07c0.03-0.41,0.37-0.72,0.81-0.69c0.41,0.03,0.72,0.4,0.69,0.81
						c-0.21,2.61-0.6,4.94-0.97,7.19c-0.49,2.96-0.95,5.75-1.03,9.04c-0.14,5.58-0.15,11.5,1.39,17.1c0.92,3.33,2.39,6.57,3.82,9.69
						c0.38,0.83,0.75,1.65,1.12,2.48c4.23,9.52,7.29,19.54,9.11,29.8c0.07,0.41-0.2,0.8-0.61,0.87
						C319.52,545.62,319.48,545.63,319.43,545.63z"/>
				</g>
				<g>
					<path class="st5" d="M298.46,511.74c-0.28,0-0.54-0.15-0.67-0.42c-2.58-5.24-4.1-11.1-4.39-16.93
						c-0.02-0.41,0.3-0.77,0.71-0.79c0.4-0.01,0.77,0.3,0.79,0.71c0.28,5.63,1.75,11.29,4.24,16.35c0.18,0.37,0.03,0.82-0.34,1
						C298.69,511.72,298.57,511.74,298.46,511.74z"/>
				</g>
				<g>
					<path class="st5" d="M320.2,503.35c-0.4,0-0.73-0.31-0.75-0.72c-0.37-8.5,0.19-17.05,1.68-25.42c0.07-0.41,0.47-0.68,0.87-0.61
						c0.41,0.07,0.68,0.46,0.61,0.87c-1.46,8.27-2.02,16.71-1.65,25.1c0.02,0.41-0.3,0.76-0.72,0.78
						C320.23,503.35,320.22,503.35,320.2,503.35z"/>
				</g>
				<g>
					<path class="st5" d="M293.32,490.43c-0.38,0-0.7-0.28-0.74-0.67c-0.5-4.53-0.59-9.13-0.29-13.67c0.03-0.41,0.39-0.73,0.8-0.7
						c0.41,0.03,0.73,0.39,0.7,0.8c-0.3,4.45-0.2,8.96,0.28,13.4c0.05,0.41-0.25,0.78-0.66,0.83
						C293.38,490.43,293.35,490.43,293.32,490.43z"/>
				</g>
				<g>
					<path class="st5" d="M436.14,511.12c-0.21,0-0.42-0.09-0.57-0.26c-5.13-6.01-11.96-10.49-18.56-14.82
						c-7.1-4.66-14.44-9.48-19.8-16.24c-7.77-9.82-8.96-15.78-11.32-27.68l-0.1-0.51c-0.08-0.41,0.18-0.8,0.59-0.88
						c0.41-0.08,0.8,0.18,0.88,0.59l0.1,0.51c2.39,12.02,3.48,17.51,11.03,27.04c5.2,6.57,12.44,11.33,19.45,15.92
						c6.69,4.39,13.61,8.93,18.88,15.1c0.27,0.31,0.23,0.79-0.08,1.06C436.48,511.07,436.31,511.12,436.14,511.12z"/>
				</g>
				<g>
					<path class="st5" d="M416.85,481.72c-0.14,0-0.29-0.04-0.42-0.13c-8.28-5.59-14.31-14.38-16.55-24.11
						c-0.09-0.4,0.16-0.81,0.56-0.9c0.4-0.09,0.81,0.16,0.9,0.56c2.15,9.37,7.96,17.83,15.92,23.2c0.34,0.23,0.43,0.7,0.2,1.04
						C417.32,481.6,417.09,481.72,416.85,481.72z"/>
				</g>
				<g>
					<path class="st5" d="M391.76,485.6c-0.17,0-0.34-0.06-0.48-0.18c-4.93-4.17-8.62-9.89-10.39-16.1
						c-0.11-0.4,0.12-0.81,0.52-0.93c0.4-0.11,0.81,0.12,0.93,0.52c1.68,5.93,5.21,11.39,9.91,15.37c0.32,0.27,0.36,0.74,0.09,1.06
						C392.19,485.51,391.97,485.6,391.76,485.6z"/>
				</g>
				<g>
					<path class="st5" d="M420.51,504.98c-0.11,0-0.22-0.02-0.32-0.07c-6.26-2.96-12.46-6.21-18.45-9.69
						c-0.36-0.21-0.48-0.67-0.27-1.03c0.21-0.36,0.67-0.48,1.02-0.27c5.95,3.45,12.12,6.69,18.34,9.63c0.37,0.18,0.54,0.62,0.36,1
						C421.06,504.82,420.79,504.98,420.51,504.98z"/>
				</g>
				<g>
					<path class="st5" d="M517.89,423c-0.12,0-0.24-0.03-0.36-0.09c-5.69-3.07-12.09-3.53-18.87-4.02
						c-4.46-0.32-9.07-0.65-13.43-1.8c-4.58-1.21-8.87-3.31-13.02-5.34c-2.32-1.14-4.48-2.1-6.56-3.03
						c-7.42-3.31-13.28-5.92-19.16-13.23c-0.26-0.32-0.21-0.79,0.11-1.05c0.32-0.26,0.8-0.21,1.05,0.11
						c5.66,7.03,11.37,9.57,18.61,12.8c2.1,0.93,4.26,1.9,6.61,3.05c4.08,2,8.3,4.07,12.74,5.24c4.23,1.11,8.77,1.44,13.16,1.76
						c6.64,0.48,13.5,0.97,19.47,4.2c0.36,0.2,0.5,0.65,0.3,1.02C518.41,422.86,518.15,423,517.89,423z"/>
				</g>
				<g>
					<path class="st5" d="M483.99,427.33c-0.03,0-0.06,0-0.1-0.01c-6.68-0.85-13.58-1.73-20.13-3.89
						c-7.36-2.42-13.33-6.26-17.27-11.11c-0.26-0.32-0.21-0.79,0.11-1.06c0.32-0.26,0.79-0.21,1.05,0.11
						c3.76,4.63,9.49,8.31,16.58,10.63c6.41,2.11,13.25,2.98,19.85,3.82c0.41,0.05,0.7,0.43,0.65,0.84
						C484.68,427.05,484.36,427.33,483.99,427.33z"/>
				</g>
				<g>
					<path class="st5" d="M475.12,400.45c-0.1,0-0.19-0.02-0.29-0.06c-5.98-2.48-11.39-6.36-15.64-11.24
						c-0.27-0.31-0.24-0.79,0.07-1.06c0.31-0.27,0.79-0.24,1.06,0.07c4.1,4.7,9.32,8.45,15.09,10.84c0.38,0.16,0.56,0.6,0.41,0.98
						C475.7,400.28,475.42,400.45,475.12,400.45z"/>
				</g>
				<g>
					<path class="st5" d="M389.75,178.01c-0.25,0-0.5-0.13-0.64-0.36c-0.22-0.35-0.1-0.82,0.25-1.03
						c13.54-8.22,18.18-15.09,26.6-28.62c2.19-3.53,4.83-8.23,5.75-13.33c0.56-3.12,0.5-6.45,0.44-9.66
						c-0.09-4.89-0.18-9.95,1.9-14.5c0.17-0.38,0.62-0.54,0.99-0.37c0.38,0.17,0.54,0.62,0.37,0.99c-1.94,4.24-1.85,8.91-1.76,13.85
						c0.06,3.29,0.12,6.68-0.46,9.95c-0.96,5.35-3.69,10.22-5.95,13.85c-8.55,13.74-13.27,20.72-27.1,29.11
						C390.02,177.98,389.88,178.01,389.75,178.01z"/>
				</g>
				<g>
					<path class="st5" d="M395.31,156.85c-0.22,0-0.44-0.1-0.59-0.29c-0.25-0.33-0.2-0.8,0.13-1.05c3.99-3.11,7.24-7.17,9.4-11.74
						c0.18-0.37,0.62-0.53,1-0.36c0.38,0.18,0.54,0.62,0.36,1c-2.26,4.78-5.66,9.03-9.83,12.29
						C395.63,156.8,395.47,156.85,395.31,156.85z"/>
				</g>
				<g>
					<path class="st5" d="M411.45,176.52c-0.17,0-0.34-0.06-0.48-0.17c-0.32-0.26-0.37-0.73-0.1-1.06
						c7.68-9.37,13.61-19.93,17.62-31.36c0.14-0.39,0.56-0.6,0.96-0.46c0.39,0.14,0.6,0.56,0.46,0.96
						c-4.07,11.6-10.08,22.31-17.87,31.82C411.88,176.43,411.67,176.52,411.45,176.52z"/>
				</g>
				<g>
					<path class="st5" d="M448.64,236.2c-0.34,0-0.65-0.23-0.73-0.58c-0.09-0.4,0.16-0.81,0.56-0.9
						c10.32-2.38,26.86-9.54,35.24-14.48c10.55-6.21,18.87-15.9,23.43-27.26c0.16-0.39,0.59-0.57,0.98-0.42
						c0.38,0.15,0.57,0.59,0.42,0.98c-4.69,11.67-13.23,21.61-24.07,27.99c-8.48,5-25.21,12.24-35.67,14.65
						C448.76,236.19,448.7,236.2,448.64,236.2z"/>
				</g>
				<g>
					<path class="st5" d="M454.75,222.35c-0.33,0-0.64-0.22-0.72-0.56c-0.11-0.4,0.13-0.81,0.53-0.92
						c9.97-2.65,19.55-6.6,28.49-11.75c0.36-0.21,0.82-0.08,1.02,0.28c0.21,0.36,0.08,0.82-0.28,1.02
						c-9.05,5.21-18.76,9.22-28.85,11.9C454.88,222.34,454.81,222.35,454.75,222.35z"/>
				</g>
				<g>
					<path class="st5" d="M469.09,237.56c-0.33,0-0.64-0.23-0.73-0.56c-0.1-0.4,0.14-0.81,0.54-0.91c5.75-1.47,13.17-3.67,19.57-7.6
						c6.47-3.97,11.26-9.41,13.51-15.33c0.15-0.39,0.58-0.58,0.97-0.44c0.39,0.15,0.58,0.58,0.44,0.97
						c-2.36,6.23-7.38,11.93-14.12,16.07c-6.57,4.03-14.13,6.27-19.98,7.77C469.21,237.55,469.15,237.56,469.09,237.56z"/>
				</g>
				<g>
					<path class="st5" d="M490.23,321.65c-4.76,0-8.41-0.31-14.28-0.8c-1.88-0.16-3.99-0.34-6.44-0.53
						c-0.41-0.03-0.72-0.39-0.69-0.81c0.03-0.41,0.39-0.73,0.81-0.69c2.45,0.19,4.56,0.37,6.45,0.53c9.6,0.81,13.19,1.11,25.62,0.38
						c5.29-0.31,10.42-0.75,15.14-2.74c2.49-1.05,4.85-2.54,7.12-3.99c1.58-1.01,3.22-2.05,4.92-2.95
						c8.09-4.29,17.61-5.46,26.02-6.49c0.4-0.04,0.79,0.24,0.83,0.65c0.05,0.41-0.24,0.79-0.65,0.84
						c-8.28,1.01-17.65,2.16-25.5,6.33c-1.64,0.87-3.26,1.9-4.82,2.89c-2.33,1.48-4.73,3-7.34,4.1c-4.93,2.08-10.43,2.55-15.63,2.86
						C496.86,321.52,493.31,321.65,490.23,321.65z"/>
				</g>
				<g>
					<path class="st5" d="M499.91,311.28c-7.55,0-15.14-0.69-22.56-2.04c-0.41-0.07-0.68-0.46-0.6-0.87
						c0.08-0.41,0.47-0.68,0.87-0.6c7.67,1.4,15.5,2.08,23.32,2.01c0,0,0,0,0.01,0c0.41,0,0.75,0.33,0.75,0.74
						c0,0.41-0.33,0.75-0.74,0.76C500.61,311.27,500.26,311.28,499.91,311.28z"/>
				</g>
				<g>
					<path class="st5" d="M491.52,333.22c-0.97,0-1.95-0.02-2.92-0.07c-0.41-0.02-0.73-0.37-0.71-0.78
						c0.02-0.41,0.38-0.74,0.78-0.72c7.5,0.34,14.94-0.66,22.09-2.96c0.39-0.13,0.82,0.09,0.94,0.48c0.13,0.39-0.09,0.82-0.48,0.94
						C504.82,332.18,498.21,333.22,491.52,333.22z"/>
				</g>
			</g>
			<g>
				<g>
					<path class="st5" d="M345.87,161.86c-0.07,0-0.14-0.01-0.21-0.02c-19.83-4.18-40.68-4.43-60.66-0.71
						c-0.34,0.07-0.69-0.05-0.92-0.31s-0.32-0.62-0.22-0.95c1.2-4.14,2.72-8.18,4.05-11.64c0.46-1.19,0.92-2.38,1.39-3.57
						c3.33-8.5,6.77-17.28,7.44-26.48c0.57-7.84-0.91-15.81-2.33-23.52c-0.36-1.96-0.72-3.91-1.05-5.86
						c-3.6-21.26-2.75-39.28,2.59-55.07c2.87-8.49,5.34-17.27,7.72-25.77c0.68-2.42,1.36-4.83,2.04-7.25
						c0.12-0.44,0.54-0.71,0.98-0.73c0.46,0.01,0.85,0.32,0.95,0.77c1.52,6.34,2.07,13.32,2.6,20.07c0.14,1.81,0.28,3.61,0.44,5.37
						c0.82,9.1,1.67,18.52,3.25,27.81c2.19,12.88,9.39,23.97,16.35,34.69c2.1,3.24,4.28,6.6,6.28,9.95
						c5.36,8.97,8.43,16.22,9.95,23.49c1.6,7.65,1.29,15.83,0.98,23.74c-0.11,2.81-0.22,5.71-0.24,8.48c0,0.36-0.06,1.29-0.16,2.69
						c-0.07,1.08-0.16,2.42-0.25,3.88c-0.02,0.29-0.16,0.56-0.39,0.74C346.3,161.79,346.09,161.86,345.87,161.86z M313.53,156.5
						c10.55,0,21.11,1.06,31.41,3.15c0.06-1.01,0.13-1.94,0.18-2.74c0.08-1.26,0.15-2.26,0.15-2.56c0.02-2.81,0.13-5.72,0.24-8.55
						c0.3-7.79,0.61-15.85-0.94-23.26c-1.47-7.04-4.47-14.1-9.71-22.87c-1.98-3.32-4.15-6.66-6.24-9.89
						c-7.07-10.9-14.38-22.16-16.64-35.45c-1.6-9.37-2.45-18.82-3.27-27.96c-0.16-1.77-0.3-3.57-0.44-5.39
						c-0.42-5.27-0.84-10.69-1.73-15.78c-0.31,1.1-0.62,2.2-0.93,3.3c-2.39,8.52-4.87,17.33-7.75,25.87
						c-5.23,15.47-6.06,33.16-2.51,54.09c0.33,1.94,0.69,3.89,1.05,5.83c1.45,7.83,2.95,15.93,2.36,24.03
						c-0.69,9.5-4.19,18.43-7.57,27.06c-0.46,1.19-0.93,2.37-1.39,3.56c-1.15,2.98-2.44,6.4-3.53,9.92
						C295.23,157.3,304.4,156.5,313.53,156.5z"/>
				</g>
				<g>
					<path class="st5" d="M320.38,627.07c-0.01,0-0.01,0-0.02,0c-0.46-0.01-0.85-0.32-0.95-0.77c-1.52-6.34-2.07-13.32-2.6-20.07
						c-0.14-1.81-0.28-3.61-0.44-5.37c-0.82-9.1-1.67-18.52-3.25-27.81c-2.19-12.88-9.39-23.97-16.35-34.69
						c-2.11-3.25-4.28-6.6-6.28-9.95c-5.36-8.97-8.43-16.22-9.95-23.49c-1.6-7.65-1.29-15.83-0.98-23.74
						c0.11-2.81,0.22-5.71,0.24-8.48c0-0.36,0.06-1.28,0.16-2.66c0.07-1.09,0.16-2.43,0.25-3.9c0.02-0.29,0.16-0.56,0.39-0.74
						c0.23-0.18,0.53-0.24,0.81-0.18c19.83,4.18,40.68,4.43,60.66,0.71c0.34-0.06,0.69,0.05,0.92,0.31
						c0.23,0.26,0.32,0.62,0.22,0.95c-1.19,4.12-2.72,8.17-4.05,11.64c-0.46,1.19-0.93,2.38-1.39,3.57
						c-3.33,8.49-6.77,17.28-7.44,26.47c-0.57,7.84,0.9,15.81,2.33,23.52c0.36,1.96,0.72,3.91,1.06,5.87
						c3.6,21.26,2.75,39.28-2.59,55.07c-2.88,8.5-5.35,17.3-7.74,25.81c-0.67,2.4-1.35,4.8-2.03,7.2
						C321.22,626.77,320.83,627.07,320.38,627.07z M282.12,467.42c-0.06,1.02-0.13,1.96-0.18,2.76c-0.08,1.25-0.15,2.24-0.15,2.54
						c-0.02,2.81-0.13,5.72-0.24,8.55c-0.3,7.79-0.61,15.85,0.94,23.26c1.47,7.04,4.47,14.09,9.71,22.87
						c1.98,3.32,4.15,6.66,6.25,9.89c7.07,10.9,14.38,22.16,16.64,35.44c1.6,9.37,2.45,18.82,3.27,27.96
						c0.16,1.77,0.3,3.57,0.44,5.39c0.42,5.27,0.84,10.69,1.73,15.78c0.31-1.09,0.61-2.17,0.92-3.26c2.4-8.53,4.87-17.36,7.77-25.91
						c5.23-15.47,6.06-33.16,2.51-54.09c-0.33-1.94-0.69-3.89-1.05-5.84c-1.45-7.83-2.95-15.93-2.36-24.03
						c0.69-9.5,4.19-18.42,7.57-27.06c0.47-1.19,0.93-2.38,1.39-3.56c1.15-2.99,2.45-6.41,3.53-9.92
						C321.45,471.59,301.34,471.32,282.12,467.42z"/>
				</g>
				<g>
					<path class="st5" d="M211.98,196.08c-0.1,0-0.21-0.02-0.3-0.05c-0.33-0.11-0.58-0.38-0.67-0.71
						c-1.04-4.19-1.74-8.46-2.31-12.13c-0.2-1.26-0.39-2.53-0.58-3.8c-1.37-9.02-2.78-18.34-6.79-26.64
						c-3.43-7.08-8.69-13.24-13.78-19.2c-1.29-1.51-2.58-3.02-3.84-4.55c-13.75-16.62-22.02-32.64-25.29-48.99
						c-1.76-8.8-4.02-17.65-6.2-26.21c-0.62-2.42-1.24-4.84-1.84-7.27c-0.11-0.44,0.09-0.9,0.49-1.12c0.4-0.22,0.89-0.14,1.21,0.19
						c4.49,4.73,8.45,10.5,12.29,16.08c1.03,1.5,2.05,2.98,3.07,4.43c5.26,7.48,10.71,15.21,16.72,22.46
						c8.34,10.05,20.11,16.06,31.5,21.87c3.45,1.76,7.01,3.58,10.42,5.48c9.13,5.09,15.41,9.83,20.36,15.36
						c5.21,5.83,9.03,13.07,12.72,20.07c1.31,2.48,2.66,5.05,4.04,7.46l0,0c0.18,0.31,0.58,1.14,1.2,2.39
						c0.48,0.98,1.07,2.18,1.73,3.49c0.13,0.26,0.14,0.56,0.03,0.83s-0.34,0.48-0.61,0.56c-19.48,6.34-37.27,16.35-52.88,29.74
						C212.45,195.99,212.22,196.08,211.98,196.08z M153.31,50.02c0.28,1.1,0.56,2.19,0.84,3.29c2.19,8.58,4.46,17.46,6.22,26.31
						c3.2,16.01,11.34,31.75,24.87,48.1c1.26,1.52,2.54,3.02,3.82,4.53c5.17,6.06,10.52,12.32,14.06,19.63
						c4.15,8.57,5.58,18.05,6.97,27.21c0.19,1.26,0.38,2.53,0.58,3.78c0.5,3.17,1.09,6.78,1.91,10.38
						c15.21-12.79,32.43-22.44,51.21-28.7c-0.45-0.91-0.87-1.75-1.22-2.47c-0.55-1.13-0.99-2.02-1.14-2.28l0,0
						c-1.39-2.44-2.75-5.02-4.07-7.52c-3.64-6.9-7.4-14.03-12.45-19.67c-4.8-5.36-10.92-9.97-19.84-14.95
						c-3.38-1.88-6.92-3.69-10.35-5.44c-11.57-5.9-23.53-12-32.13-22.38c-6.06-7.31-11.53-15.07-16.82-22.58
						c-1.02-1.45-2.04-2.94-3.08-4.45C159.7,58.46,156.63,53.98,153.31,50.02z"/>
				</g>
				<g>
					<path class="st5" d="M475.73,581.77c-0.27,0-0.53-0.11-0.72-0.31c-4.49-4.73-8.45-10.49-12.28-16.07
						c-1.03-1.5-2.05-2.99-3.07-4.43c-5.26-7.47-10.7-15.2-16.72-22.46c-8.34-10.05-20.11-16.06-31.5-21.87
						c-3.45-1.76-7.01-3.58-10.42-5.48c-9.13-5.09-15.41-9.83-20.36-15.36c-5.21-5.83-9.03-13.07-12.72-20.07
						c-1.31-2.48-2.66-5.05-4.04-7.46l0,0c-0.18-0.31-0.58-1.14-1.2-2.39c-0.48-0.98-1.07-2.18-1.73-3.49
						c-0.13-0.26-0.14-0.56-0.03-0.83s0.34-0.48,0.61-0.56c19.48-6.34,37.27-16.35,52.88-29.74c0.26-0.23,0.63-0.3,0.96-0.19
						c0.33,0.11,0.58,0.38,0.67,0.71c1.03,4.17,1.73,8.45,2.31,12.13c0.2,1.26,0.39,2.53,0.58,3.8c1.37,9.02,2.78,18.34,6.79,26.64
						c3.43,7.08,8.69,13.24,13.78,19.2c1.29,1.51,2.58,3.02,3.85,4.55c13.75,16.62,22.02,32.64,25.29,48.99
						c1.76,8.8,4.02,17.65,6.2,26.21c0.62,2.42,1.24,4.84,1.84,7.27c0.11,0.44-0.09,0.9-0.49,1.12
						C476.06,581.73,475.9,581.77,475.73,581.77z M363.28,462.51c0.45,0.91,0.87,1.75,1.22,2.47c0.55,1.13,0.99,2.02,1.14,2.28l0,0
						c1.39,2.44,2.75,5.02,4.07,7.52c3.64,6.9,7.4,14.03,12.45,19.67c4.8,5.36,10.92,9.97,19.84,14.95
						c3.38,1.88,6.92,3.69,10.35,5.44c11.57,5.9,23.53,12,32.13,22.38c6.07,7.32,11.53,15.08,16.81,22.58
						c1.02,1.45,2.05,2.94,3.08,4.45c2.99,4.36,6.07,8.83,9.39,12.79c-0.28-1.1-0.56-2.19-0.84-3.29
						c-2.19-8.58-4.46-17.46-6.22-26.31c-3.2-16.01-11.34-31.75-24.87-48.1c-1.26-1.52-2.54-3.02-3.83-4.53
						c-5.17-6.06-10.52-12.32-14.06-19.63c-4.15-8.57-5.58-18.05-6.97-27.21c-0.19-1.26-0.38-2.53-0.58-3.78
						c-0.5-3.17-1.09-6.79-1.91-10.38C399.27,446.6,382.06,456.25,363.28,462.51z"/>
				</g>
				<g>
					<path class="st5" d="M166.33,262.69c-0.27,0-0.53-0.11-0.72-0.31c-2.97-3.1-5.71-6.43-8.04-9.32c-0.8-0.99-1.6-2-2.4-3
						c-5.69-7.13-11.57-14.5-19.2-19.67c-6.5-4.42-14.14-7.12-21.53-9.74c-1.88-0.66-3.75-1.33-5.61-2.02
						c-20.22-7.52-35.39-17.26-46.39-29.78c-5.91-6.73-12.29-13.26-18.45-19.57c-1.75-1.8-3.51-3.59-5.26-5.4
						c-0.32-0.33-0.37-0.83-0.14-1.21s0.71-0.57,1.14-0.44c6.25,1.85,12.57,4.86,18.68,7.78c1.64,0.78,3.27,1.56,4.87,2.3
						c8.29,3.84,16.86,7.81,25.71,11.09c12.25,4.54,25.45,3.85,38.22,3.19c3.86-0.2,7.86-0.41,11.76-0.47
						c10.44-0.15,18.26,0.81,25.31,3.12c7.42,2.44,14.35,6.8,21.05,11.02c2.38,1.5,4.84,3.04,7.23,4.45c0,0,0,0,0,0
						c0.31,0.18,1.07,0.69,2.22,1.46c0.91,0.61,2.04,1.37,3.28,2.19c0.24,0.16,0.4,0.42,0.44,0.71c0.04,0.29-0.05,0.58-0.25,0.8
						c-13.75,15.29-24.18,32.83-30.98,52.15c-0.12,0.33-0.39,0.57-0.73,0.65C166.47,262.69,166.4,262.69,166.33,262.69z
						 M43.01,165.44c0.8,0.82,1.6,1.64,2.4,2.46c6.18,6.33,12.57,12.88,18.52,19.64c10.78,12.27,25.69,21.83,45.59,29.22
						c1.85,0.69,3.71,1.35,5.58,2.01c7.51,2.66,15.27,5.41,21.99,9.97c7.88,5.35,13.86,12.84,19.64,20.08c0.8,1,1.6,2,2.4,2.99
						c2.01,2.49,4.32,5.31,6.81,8.01c6.77-18.6,16.87-35.54,30.06-50.41c-0.87-0.57-1.66-1.1-2.33-1.56
						c-1.04-0.7-1.86-1.25-2.12-1.4c-2.42-1.42-4.89-2.97-7.29-4.48c-6.6-4.15-13.42-8.45-20.61-10.81
						c-6.83-2.25-14.45-3.18-24.66-3.03c-3.87,0.06-7.84,0.26-11.68,0.46c-12.97,0.67-26.38,1.37-39.02-3.31
						c-8.92-3.3-17.53-7.29-25.85-11.15c-1.61-0.75-3.24-1.52-4.89-2.31C52.77,169.55,47.87,167.21,43.01,165.44z"/>
				</g>
				<g>
					<path class="st5" d="M587.62,464.87c-0.09,0-0.19-0.01-0.28-0.04c-6.25-1.85-12.57-4.86-18.68-7.78
						c-1.64-0.78-3.27-1.56-4.87-2.3c-8.29-3.84-16.86-7.81-25.71-11.09c-12.25-4.54-25.45-3.85-38.22-3.19
						c-3.86,0.2-7.86,0.41-11.76,0.47c-10.45,0.15-18.26-0.81-25.31-3.12c-7.43-2.44-14.35-6.8-21.05-11.02
						c-2.38-1.5-4.83-3.04-7.23-4.44h0c-0.31-0.18-1.07-0.69-2.23-1.47c-0.91-0.61-2.04-1.37-3.28-2.18
						c-0.24-0.16-0.4-0.42-0.44-0.71c-0.04-0.29,0.05-0.58,0.25-0.8c13.75-15.29,24.18-32.83,30.98-52.15
						c0.12-0.33,0.39-0.57,0.73-0.65c0.34-0.07,0.69,0.03,0.93,0.28c2.97,3.1,5.71,6.43,8.04,9.32c0.8,0.99,1.6,2,2.4,3
						c5.69,7.13,11.57,14.5,19.2,19.67c6.5,4.42,14.14,7.12,21.53,9.74c1.88,0.66,3.75,1.33,5.61,2.02
						c20.21,7.52,35.39,17.26,46.39,29.78c5.92,6.74,12.3,13.27,18.47,19.59c1.75,1.79,3.5,3.58,5.24,5.38
						c0.32,0.33,0.37,0.83,0.14,1.21C588.29,464.69,587.96,464.87,587.62,464.87z M513.78,437.98c8.44,0,16.87,0.79,24.99,3.8
						c8.92,3.3,17.53,7.29,25.85,11.15c1.61,0.75,3.24,1.52,4.89,2.31c4.77,2.28,9.67,4.62,14.53,6.39
						c-0.79-0.81-1.59-1.63-2.38-2.44c-6.19-6.34-12.58-12.89-18.54-19.66c-10.78-12.27-25.69-21.83-45.59-29.22
						c-1.85-0.69-3.71-1.35-5.58-2.01c-7.51-2.66-15.27-5.41-21.99-9.97c-7.88-5.35-13.86-12.84-19.64-20.08c-0.8-1-1.6-2-2.4-2.99
						c-2.01-2.49-4.32-5.31-6.81-8.01c-6.77,18.6-16.87,35.54-30.06,50.41c0.86,0.57,1.65,1.1,2.32,1.55
						c1.04,0.7,1.87,1.25,2.12,1.4c2.42,1.42,4.89,2.97,7.28,4.48c6.6,4.15,13.42,8.45,20.61,10.81c6.83,2.25,14.43,3.18,24.66,3.03
						c3.87-0.06,7.84-0.26,11.68-0.46C504.39,438.23,509.09,437.98,513.78,437.98z"/>
				</g>
				<g>
					<path class="st5" d="M160.15,343.24c-0.09,0-0.19-0.01-0.28-0.04c-4.12-1.19-8.17-2.72-11.64-4.05
						c-1.19-0.46-2.38-0.93-3.58-1.39c-8.49-3.33-17.27-6.77-26.47-7.44c-7.85-0.57-15.81,0.9-23.52,2.33
						c-1.96,0.36-3.91,0.72-5.86,1.05c-21.26,3.6-39.28,2.75-55.07-2.59c-8.49-2.87-17.29-5.34-25.79-7.73
						c-2.41-0.68-4.82-1.35-7.22-2.04c-0.44-0.12-0.73-0.53-0.73-0.98c0.01-0.45,0.32-0.85,0.77-0.95
						c6.34-1.52,13.32-2.07,20.06-2.6c1.82-0.14,3.61-0.28,5.37-0.44c9.1-0.82,18.51-1.67,27.81-3.25
						c12.88-2.19,23.97-9.39,34.69-16.35c3.24-2.1,6.6-4.28,9.95-6.28c8.97-5.36,16.21-8.43,23.48-9.95
						c7.65-1.6,15.83-1.29,23.75-0.98c2.8,0.11,5.71,0.22,8.48,0.24c0.37,0,1.3,0.06,2.7,0.16c1.08,0.07,2.41,0.16,3.86,0.25
						c0.29,0.02,0.56,0.16,0.74,0.39s0.24,0.53,0.18,0.81c-2.22,10.52-3.34,21.33-3.34,32.13c0,9.55,0.88,19.15,2.63,28.53
						c0.06,0.34-0.05,0.69-0.31,0.92C160.63,343.15,160.39,343.24,160.15,343.24z M114.61,328.19c1.24,0,2.48,0.04,3.72,0.13
						c9.5,0.69,18.42,4.19,27.05,7.57c1.19,0.47,2.38,0.93,3.57,1.39c2.99,1.15,6.41,2.44,9.92,3.53
						c-1.57-8.98-2.37-18.15-2.37-27.28c0-10.55,1.06-21.11,3.15-31.41c-1.01-0.06-1.93-0.13-2.72-0.18
						c-1.27-0.09-2.28-0.15-2.58-0.15c-2.8-0.02-5.72-0.13-8.54-0.24c-7.79-0.3-15.85-0.61-23.26,0.94
						c-7.04,1.47-14.1,4.47-22.87,9.71c-3.32,1.98-6.66,4.15-9.89,6.25c-10.89,7.07-22.16,14.38-35.44,16.64
						c-9.37,1.6-18.82,2.45-27.96,3.27c-1.77,0.16-3.57,0.3-5.39,0.44c-5.27,0.41-10.69,0.84-15.78,1.73
						c1.09,0.31,2.19,0.62,3.28,0.92c8.53,2.39,17.34,4.87,25.89,7.76c15.47,5.24,33.17,6.06,54.09,2.51
						c1.94-0.33,3.89-0.69,5.83-1.05C100.94,329.46,107.76,328.19,114.61,328.19z"/>
				</g>
				<g>
					<path class="st5" d="M490.82,347.76c-3.22,0-6.45-0.12-9.64-0.25c-2.8-0.11-5.71-0.22-8.48-0.24c-0.37,0-1.3-0.06-2.7-0.16
						c-1.08-0.07-2.41-0.16-3.86-0.25c-0.29-0.02-0.56-0.16-0.74-0.39s-0.24-0.53-0.18-0.81c2.22-10.52,3.34-21.33,3.34-32.13
						c0-9.55-0.88-19.15-2.63-28.53c-0.06-0.34,0.05-0.69,0.31-0.92c0.26-0.23,0.62-0.32,0.95-0.22c4.13,1.2,8.17,2.72,11.64,4.05
						c1.19,0.46,2.38,0.93,3.58,1.39c8.49,3.33,17.27,6.77,26.47,7.44c7.84,0.57,15.81-0.9,23.52-2.33
						c1.96-0.36,3.91-0.72,5.86-1.05c21.26-3.6,39.28-2.75,55.07,2.59c8.49,2.87,17.29,5.34,25.79,7.73
						c2.41,0.68,4.82,1.35,7.22,2.04c0.44,0.12,0.73,0.53,0.73,0.98c-0.01,0.45-0.32,0.85-0.77,0.95
						c-6.34,1.52-13.32,2.07-20.06,2.6c-1.82,0.14-3.61,0.28-5.37,0.44c-9.1,0.82-18.51,1.67-27.81,3.25
						c-12.88,2.19-23.97,9.39-34.69,16.35c-3.24,2.1-6.6,4.28-9.95,6.28c-8.97,5.36-16.21,8.43-23.48,9.95
						C500.36,347.48,495.6,347.76,490.82,347.76z M467.42,344.94c1.01,0.06,1.93,0.13,2.72,0.18c1.27,0.09,2.28,0.15,2.58,0.15
						c2.8,0.02,5.72,0.13,8.54,0.24c7.79,0.3,15.85,0.61,23.26-0.94c7.04-1.47,14.09-4.47,22.87-9.71c3.32-1.98,6.66-4.15,9.89-6.25
						c10.89-7.07,22.16-14.38,35.44-16.64c9.37-1.6,18.82-2.45,27.96-3.27c1.77-0.16,3.57-0.3,5.39-0.44
						c5.27-0.41,10.69-0.84,15.78-1.73c-1.09-0.31-2.19-0.62-3.28-0.92c-8.53-2.39-17.34-4.87-25.89-7.76
						c-15.47-5.23-33.16-6.06-54.09-2.51c-1.94,0.33-3.89,0.69-5.83,1.05c-7.83,1.45-15.93,2.95-24.03,2.36
						c-9.5-0.69-18.42-4.19-27.05-7.57c-1.19-0.47-2.38-0.93-3.57-1.39c-2.99-1.15-6.41-2.44-9.92-3.53
						c1.57,8.99,2.37,18.16,2.37,27.28C470.57,324.08,469.51,334.64,467.42,344.94z"/>
				</g>
				<g>
					<path class="st5" d="M46.3,476.73c-0.36,0-0.7-0.19-0.88-0.52c-0.22-0.4-0.14-0.89,0.19-1.21c4.73-4.49,10.49-8.45,16.07-12.28
						c1.5-1.03,2.99-2.05,4.43-3.07c7.47-5.26,15.2-10.7,22.46-16.72c10.06-8.34,16.06-20.11,21.87-31.5
						c1.76-3.44,3.57-7.01,5.47-10.41c5.09-9.13,9.83-15.41,15.36-20.36c5.83-5.21,13.07-9.03,20.07-12.72
						c2.48-1.31,5.05-2.66,7.46-4.04c0,0,0,0,0,0c0.32-0.18,1.15-0.59,2.41-1.21c0.97-0.48,2.17-1.07,3.47-1.72
						c0.26-0.13,0.56-0.14,0.83-0.03s0.47,0.34,0.57,0.61c6.34,19.48,16.35,37.27,29.74,52.88c0.23,0.26,0.3,0.63,0.19,0.96
						c-0.11,0.33-0.38,0.58-0.71,0.67c-4.18,1.03-8.45,1.73-12.13,2.31c-1.26,0.2-2.52,0.39-3.79,0.58
						c-9.02,1.36-18.35,2.78-26.65,6.79c-7.08,3.43-13.24,8.69-19.2,13.78c-1.51,1.29-3.02,2.58-4.55,3.85
						c-16.62,13.75-32.64,22.02-48.99,25.29c-8.8,1.76-17.65,4.02-26.2,6.2c-2.42,0.62-4.84,1.24-7.27,1.84
						C46.46,476.72,46.38,476.73,46.3,476.73z M159.8,365.64L159.8,365.64c-2.44,1.39-5.02,2.75-7.52,4.07
						c-6.9,3.64-14.03,7.4-19.67,12.44c-5.36,4.8-9.97,10.92-14.95,19.84c-1.88,3.38-3.69,6.92-5.44,10.35
						c-5.9,11.57-12,23.53-22.38,32.14c-7.32,6.07-15.08,11.53-22.58,16.81c-1.45,1.02-2.94,2.05-4.45,3.08
						c-4.36,2.99-8.83,6.07-12.79,9.39c1.1-0.28,2.2-0.56,3.29-0.84c8.58-2.19,17.46-4.46,26.31-6.22
						c16.01-3.2,31.75-11.34,48.1-24.87c1.52-1.26,3.02-2.54,4.53-3.83c6.06-5.17,12.32-10.52,19.63-14.06
						c8.57-4.15,18.05-5.58,27.22-6.97c1.26-0.19,2.52-0.38,3.78-0.58c3.17-0.5,6.78-1.09,10.38-1.9
						c-12.79-15.21-22.44-32.43-28.7-51.21c-0.9,0.45-1.74,0.86-2.45,1.21C160.97,365.04,160.07,365.49,159.8,365.64z"/>
				</g>
				<g>
					<path class="st5" d="M461.92,266.2c-0.13,0-0.26-0.03-0.39-0.08c-0.27-0.11-0.47-0.34-0.57-0.61
						c-6.34-19.48-16.35-37.27-29.74-52.88c-0.23-0.26-0.3-0.63-0.19-0.96c0.11-0.33,0.38-0.58,0.71-0.67
						c4.18-1.03,8.45-1.73,12.13-2.31c1.26-0.2,2.52-0.39,3.79-0.58c9.02-1.36,18.35-2.78,26.65-6.79
						c7.08-3.43,13.24-8.69,19.2-13.78c1.51-1.29,3.02-2.58,4.55-3.84c16.62-13.75,32.64-22.02,48.99-25.29
						c8.8-1.76,17.65-4.02,26.21-6.2c2.42-0.62,4.84-1.23,7.26-1.84c0.44-0.11,0.9,0.09,1.12,0.49c0.22,0.4,0.14,0.89-0.19,1.21
						c-4.72,4.49-10.49,8.45-16.07,12.28c-1.5,1.03-2.99,2.05-4.43,3.07c-7.47,5.26-15.2,10.7-22.46,16.72
						c-10.06,8.34-16.06,20.11-21.87,31.5c-1.76,3.44-3.57,7.01-5.47,10.41c-5.09,9.13-9.83,15.41-15.36,20.36
						c-5.83,5.21-13.07,9.03-20.07,12.72c-2.48,1.31-5.05,2.66-7.46,4.04c-0.32,0.18-1.16,0.59-2.42,1.22
						c-0.97,0.48-2.16,1.06-3.46,1.71C462.23,266.16,462.08,266.2,461.92,266.2z M433.81,212.58c12.79,15.21,22.43,32.43,28.7,51.21
						c0.9-0.45,1.73-0.85,2.43-1.2c1.15-0.56,2.05-1.01,2.32-1.16c0,0,0,0,0,0c2.44-1.39,5.02-2.75,7.52-4.07
						c6.9-3.64,14.03-7.4,19.67-12.44c5.36-4.8,9.97-10.92,14.95-19.84c1.88-3.38,3.69-6.92,5.44-10.35
						c5.9-11.57,12-23.53,22.38-32.14c7.32-6.07,15.08-11.53,22.58-16.81c1.45-1.02,2.94-2.05,4.45-3.08
						c4.36-2.99,8.83-6.07,12.79-9.39c-1.1,0.28-2.19,0.56-3.29,0.84c-8.59,2.19-17.47,4.46-26.31,6.23
						c-16.01,3.2-31.75,11.34-48.1,24.87c-1.52,1.26-3.02,2.54-4.52,3.82c-6.06,5.17-12.32,10.52-19.63,14.06
						c-8.57,4.15-18.05,5.58-27.22,6.97c-1.26,0.19-2.52,0.38-3.78,0.58C441.02,211.17,437.41,211.76,433.81,212.58z"/>
				</g>
				<g>
					<path class="st5" d="M163.2,588.62c-0.18,0-0.36-0.05-0.52-0.14c-0.39-0.24-0.57-0.7-0.44-1.14
						c1.85-6.25,4.86-12.57,7.78-18.68c0.79-1.64,1.56-3.27,2.3-4.87c3.84-8.29,7.81-16.86,11.09-25.71
						c4.54-12.25,3.85-25.45,3.19-38.22c-0.2-3.86-0.41-7.86-0.47-11.76c-0.16-10.45,0.81-18.26,3.12-25.31
						c2.44-7.43,6.8-14.36,11.02-21.06c1.5-2.38,3.04-4.83,4.44-7.22l0,0c0.19-0.32,0.71-1.09,1.5-2.27
						c0.61-0.9,1.35-2.02,2.16-3.23c0.16-0.24,0.42-0.4,0.71-0.44c0.29-0.04,0.58,0.05,0.8,0.25
						c15.29,13.75,32.83,24.18,52.15,30.98c0.33,0.12,0.57,0.39,0.65,0.73c0.07,0.34-0.03,0.69-0.29,0.93
						c-3.1,2.98-6.44,5.71-9.32,8.04c-0.99,0.8-1.99,1.6-2.99,2.4c-7.13,5.69-14.5,11.58-19.68,19.2
						c-4.42,6.5-7.12,14.14-9.74,21.53c-0.67,1.88-1.33,3.75-2.02,5.61c-7.51,20.21-17.25,35.39-29.78,46.39
						c-6.74,5.92-13.28,12.31-19.6,18.48c-1.79,1.74-3.57,3.49-5.37,5.23C163.7,588.52,163.45,588.62,163.2,588.62z M206.45,435.52
						L206.45,435.52c-1.42,2.42-2.97,4.89-4.48,7.28c-4.15,6.6-8.45,13.42-10.81,20.61c-2.25,6.84-3.18,14.44-3.03,24.66
						c0.06,3.87,0.26,7.84,0.46,11.69c0.67,12.97,1.37,26.38-3.31,39.02c-3.31,8.92-7.29,17.53-11.15,25.85
						c-0.75,1.61-1.53,3.24-2.31,4.89c-2.28,4.77-4.62,9.67-6.39,14.53c0.81-0.79,1.62-1.58,2.43-2.37
						c6.34-6.19,12.9-12.59,19.67-18.55c12.27-10.78,21.83-25.69,29.22-45.59c0.69-1.85,1.35-3.71,2.01-5.58
						c2.66-7.51,5.41-15.27,9.97-21.99c5.35-7.88,12.84-13.86,20.08-19.64c1-0.8,2-1.59,2.99-2.39c2.48-2.01,5.31-4.32,8.01-6.81
						c-18.6-6.76-35.54-16.87-50.41-30.06c-0.56,0.84-1.08,1.62-1.52,2.28C207.17,434.42,206.61,435.26,206.45,435.52z"/>
				</g>
				<g>
					<path class="st5" d="M417.86,198.51c-0.25,0-0.48-0.09-0.67-0.26c-15.29-13.75-32.83-24.18-52.15-30.98
						c-0.33-0.12-0.57-0.39-0.65-0.73c-0.07-0.34,0.03-0.69,0.29-0.93c3.1-2.98,6.44-5.71,9.32-8.04c0.99-0.8,1.99-1.6,2.99-2.4
						c7.13-5.69,14.5-11.58,19.68-19.2c4.42-6.5,7.12-14.14,9.74-21.53c0.67-1.88,1.33-3.75,2.02-5.61
						c7.51-20.21,17.25-35.39,29.78-46.39c6.73-5.92,13.26-12.29,19.58-18.46c1.79-1.75,3.59-3.5,5.39-5.25
						c0.33-0.32,0.83-0.37,1.21-0.14c0.39,0.24,0.57,0.7,0.44,1.14c-1.85,6.25-4.86,12.57-7.78,18.68c-0.79,1.64-1.56,3.27-2.3,4.87
						c-3.84,8.29-7.81,16.86-11.09,25.71c-4.54,12.25-3.85,25.45-3.19,38.22c0.2,3.86,0.41,7.86,0.47,11.76
						c0.16,10.45-0.81,18.26-3.12,25.31c-2.44,7.43-6.8,14.36-11.02,21.06c-1.5,2.38-3.04,4.83-4.44,7.22l0,0
						c-0.19,0.32-0.71,1.09-1.5,2.27c-0.61,0.9-1.35,2.02-2.16,3.23c-0.16,0.24-0.42,0.4-0.71,0.44
						C417.94,198.51,417.9,198.51,417.86,198.51z M367.25,165.94c18.6,6.76,35.54,16.87,50.41,30.06c0.56-0.84,1.08-1.62,1.52-2.28
						c0.71-1.06,1.28-1.9,1.43-2.17l0,0c1.42-2.42,2.97-4.89,4.48-7.28c4.15-6.6,8.45-13.42,10.81-20.61
						c2.25-6.83,3.18-14.44,3.03-24.66c-0.06-3.87-0.26-7.84-0.46-11.69c-0.67-12.97-1.37-26.38,3.31-39.02
						c3.31-8.92,7.29-17.53,11.15-25.85c0.75-1.61,1.53-3.24,2.31-4.89c2.28-4.77,4.62-9.67,6.39-14.53
						c-0.82,0.8-1.63,1.59-2.45,2.39c-6.33,6.18-12.88,12.58-19.65,18.53c-12.27,10.78-21.83,25.69-29.22,45.59
						c-0.69,1.85-1.35,3.71-2.01,5.58c-2.66,7.51-5.41,15.27-9.97,21.99c-5.35,7.88-12.84,13.86-20.08,19.64
						c-1,0.8-2,1.59-2.99,2.39C372.77,161.13,369.95,163.44,367.25,165.94z M421.48,192.05L421.48,192.05L421.48,192.05z"/>
				</g>
			</g>
		</g>
	</g>
</g>
<g id="Guide">
</g>
</svg>
