<?xml version="1.0" encoding="utf-8"?>
<!-- Generator: Adobe Illustrator 26.1.0, SVG Export Plug-In . SVG Version: 6.00 Build 0)  -->
<svg version="1.1" xmlns="http://www.w3.org/2000/svg" xmlns:xlink="http://www.w3.org/1999/xlink" x="0px" y="0px"
	 viewBox="0 0 632.2 632.2" style="enable-background:new 0 0 632.2 632.2;" xml:space="preserve">
<style type="text/css">
	.st0{fill:#FFFFFF;stroke:#000000;stroke-miterlimit:10;}
	.st1{fill:#BFA071;stroke:#554B4E;stroke-width:1.5;stroke-linecap:round;stroke-linejoin:round;stroke-miterlimit:10;}
	.st2{fill:#BFA071;stroke:#554B4E;stroke-linecap:round;stroke-linejoin:round;stroke-miterlimit:10;}
	.st3{fill:#F8F4E9;stroke:#554B4E;stroke-width:1.5;stroke-linecap:round;stroke-linejoin:round;stroke-miterlimit:10;}
	.st4{fill:#F2DED6;stroke:#554B4E;stroke-width:1.5;stroke-linecap:round;stroke-linejoin:round;stroke-miterlimit:10;}
	.st5{fill:none;stroke:#554B4E;stroke-linecap:round;stroke-linejoin:round;stroke-miterlimit:10;}
	.st6{fill:#BFA071;}
	.st7{fill:#554B4E;}
	.st8{fill:#F8F4E9;}
	.st9{fill:none;stroke:#554B4E;stroke-width:1.5;stroke-linecap:round;stroke-linejoin:round;stroke-miterlimit:10;}
	.st10{fill:#F8F4E9;stroke:#554B4E;stroke-linecap:round;stroke-linejoin:round;stroke-miterlimit:10;}
	.st11{fill:#F2DED6;stroke:#554B4E;stroke-linecap:round;stroke-linejoin:round;stroke-miterlimit:10;}
	.st12{clip-path:url(#SVGID_00000001660330030887866770000006130285410865672117_);}
	.st13{fill:none;stroke:#BFA071;stroke-width:1.5;stroke-linecap:round;stroke-linejoin:round;}
	.st14{fill:none;stroke:#BFA071;stroke-width:1.5;stroke-linecap:round;stroke-linejoin:round;stroke-dasharray:68.8403,19.6687;}
	.st15{fill:none;stroke:#BFA071;stroke-width:1.5;stroke-linecap:round;stroke-linejoin:round;stroke-dasharray:71.4455,20.413;}
	.st16{fill:none;stroke:#BFA071;stroke-width:1.5;stroke-linecap:round;stroke-linejoin:round;stroke-dasharray:69.5884,19.8824;}
	.st17{fill:none;stroke:#BFA071;stroke-width:1.5;stroke-linecap:round;stroke-linejoin:round;stroke-dasharray:61.3524,17.5292;}
	.st18{fill:none;stroke:#BFA071;stroke-width:1.5;stroke-linecap:round;stroke-linejoin:round;stroke-dasharray:63.9932,18.2838;}
	.st19{fill:none;stroke:#BFA071;stroke-width:1.5;stroke-linecap:round;stroke-linejoin:round;stroke-dasharray:72.7778,20.7937;}
	.st20{fill:none;stroke:#BFA071;stroke-width:1.5;stroke-linecap:round;stroke-linejoin:round;stroke-dasharray:77.193,22.0551;}
	.st21{fill:none;stroke:#BFA071;stroke-width:1.5;stroke-linecap:round;stroke-linejoin:round;stroke-dasharray:75.3802,21.5372;}
	.st22{fill:none;stroke:#BFA071;stroke-width:1.5;stroke-linecap:round;stroke-linejoin:round;stroke-dasharray:73.6885,21.0538;}
	.st23{fill:none;stroke:#BFA071;stroke-width:1.5;stroke-linecap:round;stroke-linejoin:round;stroke-dasharray:63.3162,18.0903;}
	.st24{fill:none;stroke:#BFA071;stroke-width:1.5;stroke-linecap:round;stroke-linejoin:round;stroke-dasharray:62.0513,17.7289;}
	.st25{fill:none;stroke:#BFA071;stroke-width:1.5;stroke-linecap:round;stroke-linejoin:round;stroke-dasharray:68.9157,19.6902;}
	.st26{fill:none;stroke:#554B4E;stroke-width:1.5;stroke-linecap:round;stroke-linejoin:round;}
	.st27{fill:none;stroke:#554B4E;stroke-width:1.5;stroke-linecap:round;stroke-linejoin:round;stroke-dasharray:15.0532,10.0355;}
	.st28{fill:none;stroke:#554B4E;stroke-width:1.5;stroke-linecap:round;stroke-linejoin:round;stroke-dasharray:14.9985,9.999;}
	.st29{fill:none;stroke:#554B4E;stroke-width:1.5;stroke-linecap:round;stroke-linejoin:round;stroke-dasharray:14.8977,9.9318;}
	.st30{fill:none;stroke:#554B4E;stroke-width:1.5;stroke-linecap:round;stroke-linejoin:round;stroke-dasharray:15.4213,10.2808;}
	.st31{fill:none;stroke:#554B4E;stroke-width:1.5;stroke-linecap:round;stroke-linejoin:round;stroke-dasharray:15.2271,10.1514;}
	.st32{fill:none;stroke:#554B4E;stroke-width:1.5;stroke-linecap:round;stroke-linejoin:round;stroke-dasharray:15.021,10.014;}
	.st33{fill:none;stroke:#554B4E;stroke-width:1.5;stroke-linecap:round;stroke-linejoin:round;stroke-dasharray:15.0727,10.0485;}
	.st34{fill:none;stroke:#554B4E;stroke-width:1.5;stroke-linecap:round;stroke-linejoin:round;stroke-dasharray:14.6942,9.7961;}
	.st35{fill:none;stroke:#554B4E;stroke-width:1.5;stroke-linecap:round;stroke-linejoin:round;stroke-dasharray:14.7469,9.8312;}
	.st36{fill:none;stroke:#554B4E;stroke-width:1.5;stroke-linecap:round;stroke-linejoin:round;stroke-dasharray:15.0819,10.0546;}
	.st37{fill:none;stroke:#554B4E;stroke-width:1.5;stroke-linecap:round;stroke-linejoin:round;stroke-dasharray:15.003,10.002;}
	.st38{fill:#F2DED6;}
	.st39{fill:#F2DED6;stroke:#554B4E;stroke-width:1.5;stroke-linecap:round;stroke-miterlimit:10;}
	.st40{fill:none;stroke:#554B4E;stroke-width:1.5;stroke-linecap:round;stroke-miterlimit:10;}
	.st41{fill:none;stroke:#554B4E;stroke-linecap:round;stroke-miterlimit:10;}
	.st42{fill:none;stroke:#BFA071;stroke-linecap:round;stroke-linejoin:round;}
	.st43{fill:none;stroke:#BFA071;stroke-linecap:round;stroke-linejoin:round;stroke-dasharray:14.9905,14.9905;}
	.st44{fill:none;stroke:#BFA071;stroke-linecap:round;stroke-linejoin:round;stroke-dasharray:51.384,34.256;}
	.st45{fill:none;stroke:#554B4E;stroke-miterlimit:10;}
	.st46{clip-path:url(#SVGID_00000056396381304624111700000017012224114096338872_);}
	.st47{fill:none;stroke:#554B4E;stroke-width:1.5;stroke-linecap:round;stroke-linejoin:round;stroke-dasharray:68.8403,19.6687;}
	.st48{fill:none;stroke:#554B4E;stroke-width:1.5;stroke-linecap:round;stroke-linejoin:round;stroke-dasharray:71.4455,20.413;}
	.st49{fill:none;stroke:#554B4E;stroke-width:1.5;stroke-linecap:round;stroke-linejoin:round;stroke-dasharray:69.5884,19.8824;}
	.st50{fill:none;stroke:#554B4E;stroke-width:1.5;stroke-linecap:round;stroke-linejoin:round;stroke-dasharray:61.3524,17.5292;}
	.st51{fill:none;stroke:#554B4E;stroke-width:1.5;stroke-linecap:round;stroke-linejoin:round;stroke-dasharray:63.9932,18.2838;}
	.st52{fill:none;stroke:#554B4E;stroke-width:1.5;stroke-linecap:round;stroke-linejoin:round;stroke-dasharray:72.7778,20.7937;}
	.st53{fill:none;stroke:#554B4E;stroke-width:1.5;stroke-linecap:round;stroke-linejoin:round;stroke-dasharray:77.193,22.0551;}
	.st54{fill:none;stroke:#554B4E;stroke-width:1.5;stroke-linecap:round;stroke-linejoin:round;stroke-dasharray:75.3802,21.5372;}
	.st55{fill:none;stroke:#554B4E;stroke-width:1.5;stroke-linecap:round;stroke-linejoin:round;stroke-dasharray:73.6885,21.0538;}
	.st56{fill:none;stroke:#554B4E;stroke-width:1.5;stroke-linecap:round;stroke-linejoin:round;stroke-dasharray:63.3162,18.0903;}
	.st57{fill:none;stroke:#554B4E;stroke-width:1.5;stroke-linecap:round;stroke-linejoin:round;stroke-dasharray:62.0513,17.7289;}
	.st58{fill:none;stroke:#554B4E;stroke-width:1.5;stroke-linecap:round;stroke-linejoin:round;stroke-dasharray:68.9157,19.6902;}
	.st59{fill:none;stroke:#554B4E;stroke-linecap:round;stroke-linejoin:round;}
	.st60{fill:none;stroke:#554B4E;stroke-linecap:round;stroke-linejoin:round;stroke-dasharray:14.9905,14.9905;}
	.st61{fill:none;stroke:#554B4E;stroke-linecap:round;stroke-linejoin:round;stroke-dasharray:51.384,34.256;}
	.st62{fill:#95608F;}
	.st63{fill:#ED859E;}
	.st64{fill:#FAC87D;}
	.st65{opacity:0.1;}
	.st66{fill:#B5846F;}
	.st67{fill:#B5846F;stroke:#B5846F;stroke-width:5;stroke-linecap:round;stroke-linejoin:round;stroke-miterlimit:10;}
	.st68{fill:#EAD9EB;}
	.st69{fill:#FFFFFF;}
	.st70{fill:url(#SVGID_00000017492708725871541380000004004974891630279851_);}
	.st71{opacity:0.8;fill:#FFFFFF;}
	.st72{fill:url(#SVGID_00000106121148699652613080000014652291016773614520_);}
	.st73{fill:url(#SVGID_00000125600882643133428900000005137298545535665039_);}
	.st74{opacity:0.8;}
	.st75{opacity:0.6;}
	.st76{opacity:0.2;}
	.st77{fill:none;}
	.st78{fill:url(#SVGID_00000000941490855853381930000011430718696725024390_);}
	.st79{fill:url(#SVGID_00000140002094656262459060000014875248228601363596_);}
	.st80{clip-path:url(#SVGID_00000128475131964167743190000015231553165728934023_);fill:#FFFFFF;}
	.st81{clip-path:url(#SVGID_00000075134642163750605380000016399373814331502752_);fill:#FFFFFF;}
	.st82{clip-path:url(#SVGID_00000174598512640269648940000004647345867767928477_);fill:#FFFFFF;}
	.st83{clip-path:url(#SVGID_00000072256167844226132810000011217875656968652456_);fill:#FFFFFF;}
	.st84{clip-path:url(#SVGID_00000112603942356790672060000014350382408500269708_);fill:#FFFFFF;}
</style>
<g id="Bg">
</g>
<g id="Graphic">
	<g id="Sun_00000038379266602585982290000002791360398359541406_">
		<g id="Sun_00000035492517616133491890000015610350166724947103_">
			<g id="Sunshine_00000180339187639249585380000002866859639821179830_">
				<g>
					<path class="st6" d="M324.64,477.46l1.51-26.28c-3.32,0.24-6.67,0.37-10.05,0.37v69.76v-69.76c-3.55,0-7.06-0.14-10.54-0.41
						l0.81,9.44l-0.81-9.44c-2.88-0.22-5.73-0.54-8.56-0.94l9.46,89.78l9.64,91.46l9.64-91.46l9.46-89.78
						c-2.99,0.42-6.01,0.75-9.05,0.98L324.64,477.46z M306.81,466.58l2.51,39.34L306.81,466.58z M309.92,510.74l1.24,18.35
						L309.92,510.74z M316.1,553.87V526.5V553.87z M322.57,520.48l1.66-35.56L322.57,520.48z"/>
					<path class="st7" d="M316.1,632.2c-0.38,0-0.71-0.29-0.75-0.67l-19.1-181.24c-0.02-0.23,0.06-0.46,0.23-0.62
						c0.17-0.16,0.4-0.24,0.62-0.2c2.9,0.41,5.77,0.72,8.52,0.94h0c6.76,0.52,13.59,0.54,20.47,0.03c0,0,0,0,0,0
						c2.95-0.22,5.98-0.54,9-0.97c0.22-0.04,0.46,0.04,0.62,0.2c0.17,0.16,0.25,0.39,0.23,0.62l-19.1,181.24
						C316.81,631.91,316.48,632.2,316.1,632.2z M297.85,451.08l18.25,173.21l18.25-173.21c-2.52,0.34-5.03,0.61-7.5,0.8l-1.47,25.62
						c-0.02,0.41-0.39,0.74-0.79,0.71c-0.4-0.02-0.71-0.35-0.71-0.75c0-0.01,0-0.03,0-0.04l1.46-25.43c-2.84,0.19-5.69,0.3-8.5,0.31
						v69.01c0,0.41-0.34,0.75-0.75,0.75s-0.75-0.34-0.75-0.75V452.3c-2.98-0.02-5.99-0.13-8.96-0.34l0.74,8.56c0,0.02,0,0.04,0,0.07
						c0,0.38-0.29,0.71-0.69,0.75c-0.41,0.04-0.78-0.27-0.81-0.68l-0.76-8.8C302.59,451.66,300.23,451.4,297.85,451.08z
						 M316.1,554.62c-0.41,0-0.75-0.34-0.75-0.75V526.5c0-0.41,0.34-0.75,0.75-0.75s0.75,0.34,0.75,0.75v27.37
						C316.85,554.28,316.51,554.62,316.1,554.62z M311.16,529.84c-0.39,0-0.72-0.3-0.75-0.7l-1.24-18.35c0-0.02,0-0.03,0-0.05
						c0-0.39,0.3-0.72,0.7-0.75c0.42-0.02,0.77,0.28,0.8,0.7l1.24,18.35c0,0.02,0,0.03,0,0.05c0,0.39-0.3,0.72-0.7,0.75
						C311.2,529.84,311.18,529.84,311.16,529.84z M322.57,521.23c-0.01,0-0.02,0-0.04,0c-0.4-0.02-0.71-0.35-0.71-0.75
						c0-0.01,0-0.02,0-0.04l1.66-35.56c0.02-0.41,0.36-0.75,0.78-0.71c0.4,0.02,0.71,0.35,0.71,0.75c0,0.01,0,0.02,0,0.04
						l-1.66,35.56C323.3,520.92,322.96,521.23,322.57,521.23z M309.32,506.67c-0.39,0-0.72-0.3-0.75-0.7l-2.51-39.34
						c0-0.02,0-0.03,0-0.05c0-0.39,0.3-0.72,0.7-0.75c0.43-0.02,0.77,0.29,0.8,0.7l2.51,39.34c0,0.02,0,0.03,0,0.05
						c0,0.39-0.3,0.72-0.7,0.75C309.35,506.67,309.33,506.67,309.32,506.67z"/>
				</g>
				<g>
					<path class="st6" d="M134.93,323.72l46.14,3.14c-0.28-3.55-0.43-7.14-0.43-10.76h-78.68h78.68c0-3.37,0.13-6.71,0.37-10.02
						l-56.87,3.96l56.87-3.96c0.22-3.06,0.55-6.08,0.98-9.08l-89.78,9.46L0.75,316.1h89.19H0.75l91.46,9.64l89.78,9.46
						c-0.39-2.75-0.7-5.53-0.92-8.34L134.93,323.72z M113.37,321.65l15.88,1.24L113.37,321.65z"/>
					<path class="st7" d="M181.99,335.95c-0.03,0-0.05,0-0.08,0L0.68,316.85c-0.08-0.01-0.15-0.03-0.22-0.06l0,0l0,0
						c-0.09-0.04-0.18-0.1-0.25-0.17c-0.07-0.08-0.13-0.17-0.17-0.27C0.01,316.27,0,316.19,0,316.1c0-0.08,0.01-0.17,0.04-0.24
						c0.04-0.1,0.09-0.2,0.17-0.27l0,0c0,0,0,0,0,0c0.07-0.08,0.17-0.14,0.27-0.18h0c0,0,0,0,0,0c0.06-0.02,0.13-0.04,0.2-0.05
						l181.24-19.1c0.22-0.02,0.46,0.06,0.62,0.23c0.16,0.17,0.24,0.4,0.2,0.62c-0.43,3.04-0.76,6.08-0.97,9.03v0
						c-0.24,3.34-0.37,6.69-0.37,9.97c0,3.53,0.14,7.13,0.42,10.7c0,0,0,0,0,0c0.21,2.69,0.52,5.48,0.92,8.29
						c0.03,0.23-0.04,0.46-0.2,0.62C182.39,335.87,182.2,335.95,181.99,335.95z M15.02,316.85l166.1,17.5
						c-0.31-2.29-0.56-4.57-0.74-6.79l-45.5-3.1c-0.4-0.03-0.7-0.36-0.7-0.75c0-0.02,0-0.03,0-0.05c0.03-0.41,0.39-0.71,0.8-0.7
						l45.28,3.08c-0.22-3.08-0.34-6.17-0.36-9.21h-77.94c-0.41,0-0.75-0.34-0.75-0.75s0.34-0.75,0.75-0.75h77.94
						c0.02-2.79,0.12-5.63,0.31-8.46l-56.01,3.9c-0.39,0.02-0.77-0.28-0.8-0.7c0-0.02,0-0.04,0-0.05c0-0.39,0.3-0.72,0.7-0.75
						l56.22-3.92c0.19-2.47,0.46-4.99,0.8-7.53l-166.09,17.5h74.91c0.41,0,0.75,0.34,0.75,0.75s-0.34,0.75-0.75,0.75H15.02z
						 M129.25,323.64c-0.02,0-0.04,0-0.06,0l-15.88-1.24c-0.39-0.03-0.69-0.36-0.69-0.75c0-0.02,0-0.04,0-0.06
						c0.03-0.41,0.39-0.71,0.81-0.69l15.88,1.24c0.39,0.03,0.69,0.36,0.69,0.75c0,0.02,0,0.04,0,0.06
						C129.97,323.35,129.64,323.64,129.25,323.64z"/>
				</g>
				<g>
					<path class="st6" d="M234.66,173.41c0,0,5.36,15.73,6.76,29.68c2.94-1.95,5.96-3.78,9.05-5.5
						c-6.54-48.78-34.98-63.82-54.37-79.13c-15.76-12.44-21.56-29.03-21.56-29.03s5.81,16.59,21.56,29.03
						c19.39,15.31,47.84,30.35,54.37,79.13c4.98-2.76,10.15-5.23,15.49-7.35l-8.81-24.33c-6.47-17.87-18.86-32.99-35.1-42.86
						l-9.13-5.54c-12.03-7.31-22.02-17.54-29.02-29.75l-25.26-44.01l8.36,44.29c3.76,19.91,14.64,37.76,30.61,50.23h0
						c15.28,11.93,25.93,28.81,30.1,47.74l5.13,23.26c2.78-2.17,5.64-4.22,8.59-6.17C240.01,189.14,234.66,173.41,234.66,173.41z
						 M256.63,185.22c-5.18-34-34-54.53-34-54.53S251.45,151.22,256.63,185.22z M203.55,133.49c0,0,10.27,7.31,16.48,14.62
						C213.82,140.8,203.55,133.49,203.55,133.49z M223.87,152.47c0,0,6.01,7.24,9.74,16.84
						C229.89,159.71,223.87,152.47,223.87,152.47z"/>
					<path class="st7" d="M232.83,210.01c-0.08,0-0.17-0.01-0.25-0.04c-0.24-0.09-0.42-0.29-0.48-0.54l-5.13-23.26
						c-4.13-18.72-14.72-35.52-29.83-47.31c-16.12-12.58-27.09-30.58-30.89-50.68l-8.36-44.29c-0.07-0.36,0.13-0.72,0.48-0.84
						c0.34-0.13,0.73,0.01,0.91,0.33l25.26,44.01c6.92,12.07,16.87,22.26,28.76,29.48l9.13,5.54c16.33,9.92,28.91,25.27,35.42,43.24
						l8.81,24.34c0.14,0.38-0.05,0.8-0.43,0.95c-5.24,2.09-10.42,4.55-15.4,7.31c0,0,0,0,0,0c-3.06,1.7-6.08,3.54-9,5.46
						c0,0,0,0,0,0c-2.95,1.95-5.82,4.02-8.54,6.14C233.16,209.96,233,210.01,232.83,210.01z M160.19,47.97l7.54,39.93
						c3.73,19.74,14.5,37.42,30.34,49.78c15.38,12.01,26.17,29.11,30.37,48.17l4.87,22.1c2.35-1.8,4.8-3.55,7.32-5.23
						c-1.45-13.59-6.62-28.91-6.68-29.07c-0.03-0.08-0.04-0.16-0.04-0.24c0-0.31,0.2-0.6,0.51-0.71c0.39-0.13,0.82,0.08,0.95,0.47
						c0.05,0.15,5.09,15.06,6.66,28.62c2.48-1.61,5.04-3.16,7.62-4.6c-5.8-42.1-28.36-58.91-46.51-72.43
						c-2.64-1.96-5.13-3.82-7.52-5.71c-15.75-12.43-21.75-29.2-21.81-29.37c-0.03-0.08-0.04-0.17-0.04-0.25
						c0-0.31,0.19-0.6,0.5-0.71c0.39-0.14,0.82,0.07,0.96,0.46c0.06,0.16,5.93,16.53,21.32,28.69c2.38,1.88,4.86,3.72,7.49,5.68
						c18.29,13.62,41.01,30.55,47.02,72.85c4.52-2.46,9.2-4.68,13.94-6.6l-8.56-23.65c-6.39-17.65-18.75-32.73-34.79-42.47
						l-9.13-5.54c-12.11-7.35-22.23-17.73-29.28-30.02L160.19,47.97z M256.63,185.97c-0.36,0-0.68-0.27-0.74-0.64
						c-5.07-33.28-33.41-53.83-33.7-54.03c-0.21-0.15-0.31-0.38-0.31-0.61c0-0.15,0.04-0.3,0.14-0.43c0.24-0.34,0.71-0.42,1.05-0.18
						c0.29,0.21,29.14,21.1,34.31,55.03c0.01,0.04,0.01,0.08,0.01,0.11c0,0.36-0.27,0.68-0.64,0.74
						C256.71,185.97,256.67,185.97,256.63,185.97z M233.62,170.06c-0.3,0-0.58-0.18-0.7-0.48c-3.64-9.38-9.56-16.57-9.62-16.64
						c-0.12-0.14-0.17-0.31-0.17-0.48c0-0.21,0.09-0.43,0.27-0.58c0.32-0.26,0.79-0.22,1.06,0.1c0.06,0.07,6.13,7.45,9.87,17.05
						c0.03,0.09,0.05,0.18,0.05,0.27c0,0.3-0.18,0.58-0.48,0.7C233.8,170.04,233.71,170.06,233.62,170.06z M220.03,148.86
						c-0.21,0-0.42-0.09-0.57-0.26c-6.08-7.15-16.25-14.42-16.35-14.49c-0.21-0.15-0.32-0.38-0.32-0.61c0-0.15,0.04-0.3,0.14-0.43
						c0.24-0.34,0.71-0.42,1.05-0.18c0.1,0.07,10.42,7.45,16.62,14.74c0.12,0.14,0.18,0.31,0.18,0.49c0,0.21-0.09,0.42-0.26,0.57
						C220.38,148.8,220.2,148.86,220.03,148.86z"/>
				</g>
				<g>
					<path class="st6" d="M186.66,248.98l7.65,7.78c1.51-3.1,3.14-6.13,4.88-9.09c-8.35-9.42-33.46-34.72-63.64-36.73
						c-27.99-1.87-46.24-14.31-46.24-14.31s18.25,12.44,46.24,14.31c30.18,2.01,55.28,27.32,63.64,36.73
						c1.66-2.84,3.43-5.6,5.29-8.3c-9.11-9.53-24.29-19.52-24.29-19.52s15.18,9.99,24.29,19.52c1.6-2.33,3.27-4.61,5.01-6.83
						l-19.35-16.29c-14.54-12.24-32.83-19.14-51.83-19.56l-10.68-0.24c-14.07-0.31-27.84-4.18-40.01-11.25l-43.88-25.49l29.39,34.18
						c13.21,15.36,31.56,25.38,51.62,28.19h0c19.2,2.69,36.86,11.99,49.94,26.3l15.71,17.18c1.2-2.99,2.51-5.92,3.91-8.8
						L186.66,248.98z M144.26,204.92c7.88,0.21,22.6,4.56,30.27,10.37C166.86,209.48,152.14,205.13,144.26,204.92
						s-17.62-1.45-17.62-1.45S136.38,204.71,144.26,204.92z M77.29,187.51l7.46,5.6L77.29,187.51z M130.84,215.98
						c-17.79-1.22-29.29-7.54-29.29-7.54S113.05,214.77,130.84,215.98c30.37,2.08,52.83,29.16,52.83,29.16
						S161.21,218.06,130.84,215.98z"/>
					<path class="st7" d="M190.4,266.3c-0.21,0-0.41-0.09-0.55-0.24l-15.71-17.18c-12.93-14.14-30.51-23.4-49.49-26.06
						c-20.25-2.84-38.75-12.94-52.09-28.45L43.17,160.2c-0.24-0.28-0.24-0.69-0.01-0.97c0.24-0.28,0.64-0.35,0.95-0.17L88,184.55
						c12.03,6.99,25.74,10.84,39.65,11.15l10.68,0.24c19.11,0.42,37.68,7.43,52.29,19.74l19.35,16.29c0.31,0.26,0.36,0.72,0.11,1.04
						c-1.67,2.13-3.35,4.42-4.99,6.79c0,0,0,0,0,0c-1.85,2.68-3.61,5.46-5.25,8.25c0,0,0,0,0,0c-1.74,2.96-3.37,6-4.85,9.04
						c0,0,0,0,0,0c-1.39,2.84-2.7,5.78-3.89,8.75c-0.1,0.24-0.31,0.41-0.56,0.46C190.49,266.3,190.45,266.3,190.4,266.3z
						 M47.21,162.59L73.7,193.4c13.1,15.23,31.27,25.15,51.16,27.94c19.33,2.71,37.22,12.13,50.39,26.53l14.91,16.3
						c1.01-2.46,2.11-4.9,3.25-7.27l-7.28-7.4c-0.14-0.15-0.22-0.34-0.22-0.53c0-0.19,0.07-0.39,0.22-0.54
						c0.29-0.29,0.77-0.29,1.06,0.01l6.91,7.02c1.29-2.59,2.69-5.18,4.16-7.72c-9.42-10.53-33.64-34.14-62.77-36.08
						c-27.87-1.86-46.42-14.31-46.61-14.43c-0.21-0.15-0.33-0.38-0.33-0.62c0-0.15,0.04-0.29,0.13-0.42c0.24-0.34,0.7-0.43,1.04-0.2
						c0.18,0.12,18.42,12.35,45.86,14.18c29.35,1.96,53.7,25.38,63.46,36.22c1.41-2.35,2.9-4.69,4.45-6.96
						c-8.98-9.23-23.58-18.87-23.73-18.97c-0.22-0.14-0.34-0.38-0.34-0.63c0-0.14,0.04-0.28,0.12-0.41
						c0.23-0.35,0.69-0.44,1.04-0.21c0.15,0.1,14.66,9.68,23.78,18.96c1.34-1.92,2.71-3.78,4.07-5.54l-18.79-15.82
						c-14.36-12.09-32.6-18.97-51.36-19.39l-10.68-0.24c-14.16-0.31-28.12-4.24-40.37-11.35L47.21,162.59z M183.67,245.89
						c-0.21,0-0.43-0.09-0.58-0.27c-0.22-0.27-22.62-26.86-52.3-28.89c-17.75-1.21-29.49-7.56-29.6-7.63
						c-0.25-0.14-0.39-0.39-0.39-0.66c0-0.12,0.03-0.25,0.09-0.36c0.2-0.36,0.65-0.49,1.02-0.3c0.11,0.06,11.58,6.26,28.98,7.45l0,0
						c27.4,1.88,48.64,24.14,52.67,28.64c0.43,0.48,0.67,0.76,0.69,0.79c0.12,0.14,0.17,0.31,0.17,0.48c0,0.21-0.09,0.43-0.27,0.58
						C184.01,245.84,183.84,245.89,183.67,245.89z M174.53,216.04c-0.16,0-0.32-0.05-0.45-0.15c-7.39-5.59-21.85-10-29.84-10.21
						c-7.4-0.19-16.54-1.31-17.6-1.44c-0.06-0.01-0.1-0.01-0.1-0.01c-0.38-0.05-0.66-0.37-0.66-0.74c0-0.03,0-0.06,0.01-0.1
						c0.05-0.41,0.42-0.71,0.84-0.65c0.1,0.01,9.8,1.24,17.55,1.45l0,0c8.22,0.22,23.1,4.76,30.7,10.52c0.2,0.15,0.3,0.37,0.3,0.6
						c0,0.16-0.05,0.32-0.15,0.45C174.98,215.94,174.76,216.04,174.53,216.04z M84.75,193.85c-0.16,0-0.31-0.05-0.45-0.15l-7.46-5.6
						c-0.2-0.15-0.3-0.37-0.3-0.6c0-0.16,0.05-0.31,0.15-0.45c0.25-0.33,0.72-0.4,1.05-0.15l7.46,5.6c0.2,0.15,0.3,0.37,0.3,0.6
						c0,0.16-0.05,0.32-0.15,0.45C85.21,193.75,84.98,193.85,84.75,193.85z"/>
				</g>
				<g>
					<path class="st6" d="M159.24,407.8c14.85-11.2,35.24-15.38,44.04-16.73c-1.52-2.28-2.97-4.61-4.35-6.99
						c-19.86,2.28-43.93,8.91-62.13,36.33c-18.66,28.12-44.59,37.25-44.59,37.25s25.93-9.13,44.59-37.25
						c18.19-27.42,42.27-34.05,62.13-36.33c-1.67-2.88-3.25-5.83-4.71-8.84c-7.89,1.95-29.26,7.62-38.55,13.89
						c9.29-6.28,30.66-11.94,38.55-13.89c-1.15-2.37-2.24-4.79-3.25-7.23l-23.57,8.53c-17.87,6.47-32.99,18.86-42.86,35.1
						l-5.54,9.13c-7.31,12.03-17.54,22.02-29.75,29.02l-44.01,25.26l44.29-8.36c19.91-3.76,37.76-14.64,50.23-30.61v0
						c11.93-15.28,28.81-25.93,47.74-30.1l23-5.07c-2.55-3.17-4.95-6.45-7.21-9.84C194.48,392.42,174.09,396.6,159.24,407.8z
						 M151.31,393.18c0,0-11.51,7.46-19.28,20.84C139.8,400.64,151.31,393.18,151.31,393.18z M127.77,420.63
						c0,0-4.14,6.76-8.18,11.11C123.63,427.39,127.77,420.63,127.77,420.63z M138.56,428.95c8.55-12.75,17.11-18.35,17.11-18.35
						S147.11,416.2,138.56,428.95z"/>
					<path class="st7" d="M45.23,475.81c-0.31,0-0.59-0.19-0.7-0.49c-0.13-0.34,0.01-0.73,0.33-0.91l44.01-25.26
						c12.07-6.92,22.26-16.87,29.48-28.76l5.54-9.13c9.92-16.33,25.28-28.91,43.24-35.42l23.57-8.54c0.38-0.13,0.79,0.05,0.95,0.42
						c1.01,2.44,2.1,4.86,3.23,7.19c0,0,0,0,0,0c1.44,2.96,3.02,5.92,4.68,8.79c0,0,0,0,0,0c1.36,2.34,2.82,4.67,4.33,6.95
						c0,0,0,0,0,0c2.22,3.34,4.64,6.63,7.17,9.78c0.16,0.2,0.21,0.47,0.12,0.72c-0.09,0.24-0.29,0.43-0.55,0.48l-23,5.07
						c-18.72,4.13-35.52,14.72-47.31,29.83c-12.58,16.12-30.58,27.09-50.68,30.89l-44.29,8.36
						C45.32,475.81,45.27,475.81,45.23,475.81z M190.54,368.96l-22.9,8.29c-17.65,6.39-32.73,18.74-42.47,34.79l-5.54,9.13
						c-7.35,12.11-17.73,22.23-30.02,29.28L49.45,473.5l39.93-7.54c19.74-3.73,37.42-14.5,49.78-30.34
						c12.01-15.38,29.12-26.17,48.17-30.37l21.83-4.81c-2.19-2.77-4.28-5.64-6.23-8.55c-8.49,1.34-28.66,5.53-43.23,16.51
						c-0.33,0.25-0.8,0.18-1.05-0.15c-0.1-0.13-0.15-0.29-0.15-0.45c0-0.23,0.1-0.45,0.3-0.6c14.46-10.91,34.26-15.22,43.22-16.69
						c-1.21-1.85-2.38-3.74-3.49-5.63c-18.93,2.23-42.85,8.43-61.1,35.94c-18.58,28.01-44.7,37.45-44.96,37.54
						c-0.39,0.14-0.82-0.07-0.96-0.46c-0.03-0.08-0.04-0.17-0.04-0.25c0-0.31,0.19-0.6,0.5-0.71c0.26-0.09,25.92-9.39,44.21-36.96
						c18.39-27.72,42.39-34.19,61.54-36.52c-1.38-2.41-2.68-4.88-3.9-7.35c-8.82,2.2-28.84,7.64-37.72,13.64
						c-0.34,0.23-0.81,0.14-1.04-0.2c-0.09-0.13-0.13-0.27-0.13-0.42c0-0.24,0.12-0.48,0.33-0.62c8.98-6.07,28.84-11.51,37.89-13.78
						C192.24,372.85,191.37,370.91,190.54,368.96z M119.59,432.5c-0.18,0-0.37-0.07-0.51-0.2c-0.16-0.15-0.24-0.35-0.24-0.55
						c0-0.18,0.07-0.37,0.2-0.51c3.94-4.25,8.05-10.93,8.09-10.99c0.22-0.35,0.68-0.47,1.03-0.25c0.23,0.14,0.36,0.39,0.36,0.64
						c0,0.13-0.04,0.27-0.11,0.39c-0.17,0.28-4.22,6.87-8.27,11.23C119.99,432.42,119.79,432.5,119.59,432.5z M138.56,429.7
						c-0.14,0-0.29-0.04-0.42-0.13c-0.22-0.14-0.33-0.38-0.33-0.62c0-0.14,0.04-0.29,0.13-0.42c8.54-12.73,16.96-18.33,17.32-18.56
						c0.35-0.22,0.81-0.13,1.04,0.22c0.08,0.13,0.12,0.27,0.12,0.41c0,0.24-0.12,0.48-0.34,0.63c-0.08,0.06-8.54,5.68-16.89,18.14
						C139.04,429.58,138.8,429.7,138.56,429.7z M132.02,414.77c-0.13,0-0.26-0.03-0.38-0.1c-0.24-0.14-0.37-0.39-0.37-0.65
						c0-0.13,0.03-0.26,0.1-0.38c7.78-13.37,19.41-21.01,19.52-21.09c0.35-0.23,0.81-0.13,1.04,0.22c0.08,0.13,0.12,0.27,0.12,0.41
						c0,0.25-0.12,0.49-0.34,0.63c-0.11,0.07-11.45,7.53-19.04,20.58C132.53,414.63,132.28,414.77,132.02,414.77z"/>
				</g>
				<g>
					<path class="st6" d="M252.65,444.39l6.26-5.48c-3.2-1.49-6.33-3.11-9.39-4.84c-6.83,5.74-22.96,20.46-29.58,36.44
						c6.62-15.98,22.75-30.7,29.58-36.44c-2.43-1.37-4.81-2.82-7.14-4.34l-7.72,7.6l7.72-7.6c-2.8-1.82-5.52-3.74-8.17-5.75
						l-16.47,19.56c-12.24,14.54-19.14,32.83-19.56,51.83l-0.24,10.68c-0.31,14.07-4.18,27.84-11.25,40.01l-25.49,43.88l34.18-29.39
						c15.36-13.21,25.38-31.56,28.19-51.62v0c2.69-19.2,11.99-36.86,26.3-49.94l17.87-16.34c-2.99-1.14-5.93-2.39-8.82-3.74
						L252.65,444.39z M230.09,442.94c-11.82,12.44-18.04,29.03-18.04,29.03S218.28,455.38,230.09,442.94z M210.19,477.46
						c0,0-4.15,8.4-3.73,20.01C206.04,485.86,210.19,477.46,210.19,477.46z M206.43,502.65c0,0-0.22,7.26-2.79,14.31
						C206.2,509.91,206.43,502.65,206.43,502.65z M213.27,499.34c-0.18,15.34-3.91,23.2-14.49,42.49
						C209.36,522.54,213.09,514.68,213.27,499.34c0.18-15.34,4.59-24.28,4.59-24.28S213.46,483.99,213.27,499.34z M221.08,490.84
						c0,0,5.7-24.78,26.78-42.3C226.78,466.06,221.08,490.84,221.08,490.84z"/>
					<path class="st7" d="M161.19,590.69c-0.17,0-0.34-0.06-0.48-0.17c-0.28-0.23-0.35-0.64-0.17-0.95l25.49-43.88
						c6.99-12.03,10.84-25.74,11.15-39.65l0.24-10.68c0.42-19.1,7.43-37.67,19.74-52.29l16.47-19.56c0.26-0.31,0.71-0.36,1.03-0.11
						c2.63,2,5.37,3.93,8.13,5.72c0,0,0,0,0,0c2.31,1.5,4.7,2.95,7.1,4.31c0,0,0,0,0,0c3.02,1.71,6.16,3.33,9.34,4.81c0,0,0,0,0,0
						c2.86,1.34,5.81,2.59,8.77,3.72c0.24,0.09,0.42,0.3,0.47,0.56c0.05,0.25-0.04,0.52-0.23,0.69l-17.87,16.34
						c-14.15,12.93-23.4,30.51-26.06,49.49c-2.84,20.25-12.94,38.75-28.45,52.09l-34.18,29.39
						C161.54,590.63,161.37,590.69,161.19,590.69z M234.31,425.01l-16.01,19.01c-12.09,14.36-18.97,32.6-19.39,51.36l-0.24,10.68
						c-0.31,14.16-4.24,28.12-11.35,40.37l-23.25,40.04l30.81-26.49c15.23-13.1,25.15-31.27,27.94-51.16
						c2.71-19.33,12.13-37.22,26.53-50.39l16.98-15.52c-2.46-0.97-4.9-2.01-7.29-3.12l-5.89,5.16c-0.31,0.27-0.78,0.24-1.06-0.07
						c-0.12-0.14-0.19-0.32-0.19-0.49c0-0.21,0.09-0.42,0.26-0.56l5.4-4.72c-2.7-1.29-5.37-2.67-7.95-4.12
						c-6.87,5.82-22.53,20.26-28.97,35.82c-0.16,0.38-0.6,0.56-0.98,0.41c-0.29-0.12-0.46-0.4-0.46-0.69c0-0.1,0.02-0.19,0.06-0.29
						c6.44-15.55,21.82-29.92,28.97-36.03c-1.94-1.12-3.87-2.29-5.75-3.5l-7.29,7.18c-0.29,0.29-0.77,0.29-1.06-0.01
						c-0.14-0.15-0.22-0.34-0.22-0.53c0-0.19,0.08-0.39,0.22-0.53l7.05-6.95C238.86,428.32,236.55,426.7,234.31,425.01z
						 M198.79,542.58c-0.12,0-0.25-0.03-0.36-0.09c-0.25-0.14-0.39-0.39-0.39-0.66c0-0.12,0.03-0.25,0.09-0.36
						c10.73-19.58,14.22-27.17,14.39-42.14c0.18-15.34,4.48-24.23,4.67-24.6s0.63-0.52,1-0.34c0.26,0.13,0.42,0.4,0.42,0.67
						c0,0.11-0.02,0.22-0.08,0.33c-0.04,0.09-4.33,8.99-4.51,23.95c-0.18,15.32-3.71,23.01-14.58,42.84
						C199.31,542.44,199.05,542.58,198.79,542.58z M203.64,517.71c-0.08,0-0.17-0.01-0.26-0.04c-0.3-0.11-0.49-0.4-0.49-0.7
						c0-0.09,0.01-0.17,0.04-0.26c2.5-6.85,2.75-14,2.75-14.07c0.01-0.42,0.38-0.75,0.77-0.73c0.41,0.01,0.73,0.35,0.73,0.75
						c0,0.01,0,0.02,0,0.02c-0.01,0.3-0.26,7.46-2.84,14.54C204.23,517.52,203.94,517.71,203.64,517.71z M206.46,498.22
						c-0.4,0-0.74-0.32-0.75-0.72c-0.02-0.57-0.03-1.13-0.03-1.68c0-10.78,3.67-18.35,3.84-18.68c0.18-0.37,0.63-0.52,1-0.34
						c0.26,0.13,0.42,0.4,0.42,0.67c0,0.11-0.02,0.22-0.08,0.33c-0.04,0.08-3.68,7.61-3.68,18.05c0,0.52,0.01,1.06,0.03,1.6
						c0,0.01,0,0.02,0,0.03c0,0.4-0.32,0.74-0.72,0.75C206.48,498.22,206.47,498.22,206.46,498.22z M221.08,491.59
						c-0.06,0-0.11-0.01-0.17-0.02c-0.35-0.08-0.58-0.39-0.58-0.73c0-0.06,0.01-0.11,0.02-0.17c0.06-0.25,6-25.23,27.04-42.71
						c0.32-0.26,0.79-0.22,1.06,0.1c0.12,0.14,0.17,0.31,0.17,0.48c0,0.22-0.09,0.43-0.27,0.58
						c-20.63,17.15-26.48,41.65-26.53,41.89C221.73,491.35,221.42,491.59,221.08,491.59z M212.06,472.72
						c-0.09,0-0.18-0.02-0.26-0.05c-0.3-0.11-0.49-0.4-0.49-0.7c0-0.09,0.01-0.18,0.05-0.26c0.06-0.17,6.41-16.87,18.2-29.28
						c0.29-0.3,0.76-0.31,1.06-0.03c0.16,0.15,0.23,0.35,0.23,0.54c0,0.19-0.07,0.37-0.21,0.52
						c-11.57,12.18-17.82,28.61-17.88,28.77C212.65,472.53,212.36,472.72,212.06,472.72z"/>
				</g>
				<g>
					<path class="st6" d="M407.57,480.88c-14.18-18.13-19.9-39.85-21.75-48.64c-2.51,1.51-5.07,2.94-7.69,4.29
						c2.46,8,9.08,27.62,19.07,42.69c-9.99-15.06-16.61-34.68-19.07-42.69c-2.86,1.48-5.78,2.85-8.75,4.12l8.64,23.85
						c6.47,17.87,18.86,32.99,35.1,42.86l9.13,5.54c12.03,7.31,22.02,17.54,29.02,29.75l25.26,44.01l-20.46-54.17l20.46,54.17
						l-8.36-44.29c-3.76-19.91-14.64-37.76-30.61-50.23v0c-15.28-11.93-25.93-28.81-30.1-47.74l-5.24-23.76
						c-5.16,4.25-10.64,8.13-16.4,11.59C387.67,441.03,393.39,462.75,407.57,480.88z M399.33,483.58c0,0,8.24,12.39,24.1,22.34
						C407.57,495.97,399.33,483.58,399.33,483.58z M445.05,507.62c-4.2-4.68-11.35-9.63-11.35-9.63S440.85,502.94,445.05,507.62z
						 M454.22,528.98c-7.26-13.68-14.16-18.62-27.37-27.78c-6.72-4.66-15.76-14.95-15.76-14.95s9.04,10.29,15.76,14.95
						C440.06,510.36,446.97,515.3,454.22,528.98z M407.57,465.64c9.49,17.93,21.77,28.3,21.77,28.3S417.06,483.58,407.57,465.64
						c-8.56-16.18-12.13-34.68-12.13-34.68S399.01,449.46,407.57,465.64z"/>
					<path class="st7" d="M476.54,587.43c-0.1,0-0.19-0.02-0.28-0.05c0,0,0,0,0,0h0c-0.09-0.04-0.18-0.09-0.25-0.17l0,0c0,0,0,0,0,0
						c-0.05-0.05-0.09-0.1-0.12-0.16l-25.25-44c-6.92-12.07-16.87-22.26-28.76-29.48l-9.13-5.54
						c-16.33-9.92-28.91-25.28-35.42-43.24l-8.64-23.85c-0.14-0.37,0.04-0.79,0.41-0.94c2.94-1.26,5.87-2.64,8.7-4.1c0,0,0,0,0,0
						c2.57-1.32,5.13-2.76,7.64-4.27c0,0,0,0,0,0c5.71-3.43,11.2-7.31,16.31-11.53c0.2-0.17,0.48-0.21,0.72-0.13
						c0.25,0.08,0.43,0.29,0.49,0.55l5.24,23.76c4.13,18.72,14.72,35.52,29.83,47.31c16.12,12.58,27.09,30.58,30.89,50.68
						l8.36,44.28c0.01,0.06,0.02,0.13,0.01,0.19c-0.01,0.1-0.03,0.21-0.08,0.3l0,0l0,0c-0.05,0.1-0.12,0.18-0.21,0.25
						c-0.06,0.05-0.12,0.08-0.2,0.11c-0.08,0.03-0.16,0.05-0.25,0.05l0,0h0C476.56,587.43,476.55,587.43,476.54,587.43z
						 M456.09,531.76c0.3,0,0.59,0.18,0.7,0.49l17.43,46.14l-6.77-35.86c-3.73-19.74-14.5-37.42-30.34-49.78
						c-15.38-12.01-26.17-29.12-30.37-48.17L401.76,422c-4.76,3.85-9.83,7.42-15.08,10.61c1.91,8.85,7.64,30.11,21.49,47.81
						c0.11,0.14,0.16,0.3,0.16,0.46c0,0.22-0.1,0.44-0.29,0.59c-0.33,0.26-0.8,0.2-1.05-0.13c-13.78-17.62-19.63-38.68-21.67-47.92
						c-2.06,1.22-4.17,2.39-6.27,3.49c2.53,8.14,9.07,27.24,18.79,41.9c0.08,0.13,0.12,0.27,0.12,0.41c0,0.24-0.12,0.48-0.34,0.63
						c-0.34,0.23-0.81,0.13-1.04-0.21c-9.72-14.66-16.29-33.68-18.89-42.03c-2.4,1.22-4.87,2.38-7.35,3.46l8.4,23.19
						c6.39,17.65,18.74,32.73,34.79,42.47l9.13,5.54c12.11,7.35,22.23,17.73,29.28,30.02l20.6,35.9l-17.15-45.42
						c-0.03-0.09-0.05-0.18-0.05-0.26c0-0.3,0.18-0.59,0.49-0.7C455.91,531.78,456,531.76,456.09,531.76z M454.22,529.74
						c-0.27,0-0.53-0.14-0.66-0.4c-7.3-13.76-14.34-18.65-27.13-27.52c-6.72-4.66-15.52-14.65-15.89-15.08
						c-0.12-0.14-0.19-0.32-0.19-0.49c0-0.21,0.09-0.42,0.25-0.56c0.31-0.27,0.79-0.24,1.06,0.07c0.09,0.1,9.05,10.28,15.62,14.83
						c12.98,9,20.13,13.96,27.6,28.05c0.06,0.11,0.09,0.23,0.09,0.35c0,0.27-0.14,0.53-0.4,0.66
						C454.46,529.71,454.34,529.74,454.22,529.74z M445.05,508.37c-0.21,0-0.41-0.08-0.56-0.25c-4.09-4.56-11.15-9.46-11.22-9.51
						c-0.21-0.15-0.32-0.38-0.32-0.62c0-0.15,0.04-0.3,0.13-0.43c0.23-0.34,0.7-0.43,1.04-0.19c0.29,0.2,7.27,5.05,11.48,9.74
						c0.13,0.14,0.19,0.32,0.19,0.5c0,0.21-0.08,0.41-0.25,0.56C445.41,508.3,445.23,508.37,445.05,508.37z M423.43,506.67
						c-0.14,0-0.27-0.04-0.4-0.11c-15.81-9.92-24.25-22.43-24.33-22.56c-0.09-0.13-0.13-0.27-0.13-0.42c0-0.24,0.12-0.48,0.33-0.62
						c0.35-0.23,0.81-0.14,1.04,0.21c0.08,0.12,8.35,12.38,23.88,22.12c0.23,0.14,0.35,0.39,0.35,0.64c0,0.14-0.04,0.27-0.11,0.4
						C423.93,506.54,423.68,506.67,423.43,506.67z M429.34,494.7c-0.17,0-0.34-0.06-0.48-0.18c-0.12-0.1-12.5-10.67-21.95-28.52
						c-7.55-14.27-11.27-30.51-12.05-34.14c-0.1-0.46-0.15-0.72-0.15-0.74c-0.01-0.05-0.01-0.1-0.01-0.14
						c0-0.35,0.25-0.67,0.61-0.74c0.42-0.09,0.8,0.19,0.88,0.59c0.04,0.18,3.65,18.58,12.06,34.47
						c9.3,17.59,21.47,27.98,21.59,28.08c0.18,0.15,0.27,0.36,0.27,0.57c0,0.17-0.06,0.34-0.18,0.48
						C429.77,494.6,429.56,494.7,429.34,494.7z"/>
				</g>
				<g>
					<path class="st6" d="M508.93,408.15L508.93,408.15c-19.2-2.69-36.86-11.99-49.94-26.3l-16.21-17.72
						c-1.09,2.88-2.28,5.72-3.56,8.5c6.49,8.25,25.97,31.23,45.27,36.31c-19.31-5.08-38.78-28.06-45.27-36.31
						c-2.73,5.93-5.87,11.64-9.4,17.07c7.89,7.43,30.41,27.71,45.75,32.09c-15.34-4.38-37.87-24.66-45.75-32.09
						c-1.78,2.74-3.65,5.41-5.61,8.01l19.33,16.27c14.54,12.24,32.83,19.14,51.83,19.56l10.68,0.24
						c14.07,0.31,27.84,4.18,40.01,11.25l43.88,25.49l-35.58-29.13l35.58,29.13l-29.39-34.18
						C547.34,420.98,528.99,410.96,508.93,408.15z M509.58,413.91c13.27,0.83,30.48,11.2,30.48,11.2S522.85,414.74,509.58,413.91
						c-13.27-0.83-20.53-3.73-20.53-3.73S496.31,413.09,509.58,413.91z M500.25,426.15c-9.12,0.21-18.66-2.07-18.66-2.07
						S491.13,426.35,500.25,426.15c9.12-0.21,12.44,0.62,20.53,3.11C512.69,426.77,509.37,425.94,500.25,426.15z M482.52,416.44
						c-26.44-7.84-43.15-29.48-43.15-29.48S456.09,408.6,482.52,416.44c26.44,7.84,36.08-1.49,66.87,20.9
						C518.6,414.95,508.96,424.28,482.52,416.44z"/>
					<path class="st7" d="M589.94,471.27c-0.07,0-0.14-0.01-0.21-0.03l0,0h0c-0.06-0.02-0.12-0.04-0.18-0.08l-43.87-25.48
						c-12.03-6.99-25.74-10.84-39.65-11.15l-10.68-0.24c-19.11-0.42-37.68-7.43-52.29-19.74l-19.33-16.27
						c-0.3-0.26-0.36-0.71-0.12-1.03c1.95-2.58,3.83-5.26,5.58-7.96c0,0,0,0,0,0c3.51-5.41,6.65-11.12,9.34-16.97c0,0,0,0,0,0
						c1.26-2.74,2.45-5.58,3.54-8.45c0.09-0.24,0.3-0.42,0.56-0.47c0.26-0.05,0.52,0.04,0.69,0.23l16.21,17.72
						c12.93,14.14,30.51,23.4,49.49,26.06h0c20.25,2.84,38.75,12.94,52.09,28.45l29.38,34.17c0.04,0.05,0.08,0.1,0.11,0.15
						c0.05,0.1,0.08,0.2,0.08,0.3c0.01,0.1-0.01,0.21-0.05,0.31c-0.03,0.07-0.07,0.14-0.12,0.21c-0.05,0.06-0.11,0.12-0.18,0.16
						c-0.09,0.06-0.19,0.09-0.29,0.1C590.01,471.26,589.98,471.27,589.94,471.27z M425.24,397.59l18.79,15.82
						c14.36,12.09,32.6,18.97,51.36,19.39l10.68,0.24c14.16,0.31,28.12,4.24,40.37,11.35l35.79,20.79l-28.34-23.2
						c-0.18-0.15-0.27-0.36-0.27-0.58c0-0.17,0.06-0.34,0.17-0.48c0.26-0.32,0.74-0.37,1.06-0.1l28.94,23.7l-23.8-27.67
						c-13.1-15.23-31.27-25.15-51.16-27.94l0,0c-19.33-2.71-37.22-12.13-50.39-26.53l-15.39-16.83c-0.92,2.37-1.91,4.72-2.95,7
						c6,7.57,25.58,30.68,44.59,35.69c0.34,0.09,0.56,0.39,0.56,0.72c0,0.06-0.01,0.13-0.02,0.19c-0.11,0.4-0.51,0.64-0.92,0.54
						c-18.61-4.9-37.1-25.83-44.92-35.62c-2.52,5.35-5.4,10.56-8.59,15.53c8.96,8.4,30.27,27.28,44.99,31.49
						c0.33,0.09,0.54,0.39,0.54,0.72c0,0.07-0.01,0.14-0.03,0.21c-0.11,0.4-0.52,0.64-0.93,0.51
						c-14.93-4.26-36.25-23.09-45.41-31.65C428.46,393.14,426.88,395.4,425.24,397.59z M549.39,438.09c-0.15,0-0.31-0.05-0.44-0.14
						c-20.03-14.57-30.97-15.59-43.63-16.78c-6.81-0.64-13.84-1.3-23.01-4.01c-26.36-7.82-43.36-29.52-43.53-29.74
						c-0.11-0.14-0.16-0.3-0.16-0.46c0-0.22,0.1-0.45,0.29-0.59c0.33-0.25,0.8-0.19,1.05,0.13c0.17,0.21,16.88,21.54,42.77,29.22
						c9.02,2.68,15.99,3.33,22.72,3.96c12.88,1.21,24.01,2.25,44.37,17.06c0.2,0.15,0.31,0.38,0.31,0.61c0,0.15-0.05,0.31-0.14,0.44
						C549.85,437.99,549.62,438.09,549.39,438.09z M520.78,430.01c-0.07,0-0.15-0.01-0.22-0.03c-7.96-2.45-11.17-3.29-20.29-3.08
						c-0.4,0.01-0.79,0.01-1.19,0.01l0,0c-8.3,0-16.68-1.88-17.58-2.09c-0.05-0.01-0.07-0.02-0.08-0.02
						c-0.34-0.08-0.58-0.39-0.58-0.73c0-0.06,0.01-0.12,0.02-0.17c0.1-0.4,0.51-0.64,0.9-0.56c0.09,0.02,9.57,2.26,18.47,2.05l0,0
						c0.89-0.02,1.73-0.03,2.53-0.03l0,0c7.26,0,10.78,0.88,18.24,3.17c0.32,0.1,0.53,0.4,0.53,0.72c0,0.07-0.01,0.15-0.03,0.22
						C521.39,429.8,521.1,430.01,520.78,430.01z M540.06,425.86c-0.13,0-0.26-0.03-0.39-0.11c-0.17-0.1-17.21-10.28-30.14-11.09
						c-11.69-0.73-18.68-3.03-20.37-3.64c-0.22-0.08-0.35-0.13-0.39-0.15c-0.29-0.12-0.47-0.4-0.47-0.7c0-0.09,0.02-0.19,0.05-0.28
						c0.15-0.38,0.59-0.57,0.97-0.42c0.07,0.03,7.32,2.87,20.29,3.68l0,0c13.3,0.83,30.11,10.88,30.82,11.3
						c0.23,0.14,0.36,0.39,0.36,0.64c0,0.13-0.03,0.27-0.11,0.39C540.56,425.73,540.31,425.86,540.06,425.86z"/>
				</g>
				<g>
					<path class="st6" d="M308.05,154.95l-2.26,26.08c3.4-0.26,6.84-0.39,10.31-0.39v-79.6v79.6c6.48,0,12.86,0.47,19.1,1.35
						l-9.46-89.78L316.1,0.75v65.46V0.75l-9.64,91.46L297,181.99c2.9-0.41,5.83-0.74,8.79-0.96L308.05,154.95z M326.15,172.8
						l-2.34-30.44L326.15,172.8z M323.41,136.53L321.96,119L323.41,136.53z M316.1,73.26v23.78V73.26z M310.6,111.02l-2.13,33.87
						L310.6,111.02z"/>
					<path class="st7" d="M335.2,182.74c-0.04,0-0.07,0-0.1-0.01c-9.69-1.37-19.53-1.68-29.25-0.95c0,0,0,0,0,0
						c-2.83,0.21-5.77,0.53-8.75,0.95c-0.23,0.04-0.46-0.04-0.62-0.2c-0.17-0.16-0.25-0.39-0.23-0.62l19.1-181.24
						c0.01-0.07,0.02-0.14,0.05-0.2c0.04-0.1,0.1-0.2,0.18-0.27c0.08-0.07,0.17-0.13,0.27-0.16C315.93,0.01,316.01,0,316.1,0
						c0,0,0,0,0,0s0,0,0,0c0.09,0,0.17,0.02,0.25,0.04l0,0c0,0,0,0,0,0c0.09,0.03,0.17,0.08,0.24,0.14l0,0c0,0,0,0,0,0
						c0.09,0.08,0.16,0.18,0.2,0.29c0.02,0.06,0.04,0.13,0.05,0.2l19.1,181.24c0.02,0.23-0.06,0.46-0.23,0.62
						C335.58,182.67,335.39,182.74,335.2,182.74z M316.85,179.9c5.82,0.03,11.7,0.44,17.5,1.22l-17.5-166.1v51.19
						c0,0.41-0.34,0.75-0.75,0.75s-0.75-0.34-0.75-0.75V15.02l-17.5,166.1c2.46-0.33,4.89-0.59,7.25-0.78l2.21-25.45
						c0.04-0.41,0.41-0.72,0.81-0.68c0.39,0.03,0.69,0.36,0.69,0.75c0,0.02,0,0.04,0,0.06l-2.18,25.2c2.9-0.2,5.83-0.31,8.73-0.32
						v-78.85c0-0.41,0.34-0.75,0.75-0.75s0.75,0.34,0.75,0.75V179.9z M326.15,173.55c-0.39,0-0.72-0.3-0.75-0.69l-2.34-30.44
						c0-0.02,0-0.04,0-0.06c0-0.39,0.3-0.72,0.69-0.75c0.42-0.01,0.77,0.28,0.81,0.69l2.34,30.44c0,0.02,0,0.04,0,0.06
						c0,0.39-0.3,0.72-0.69,0.75C326.19,173.55,326.17,173.55,326.15,173.55z M308.47,145.65c-0.02,0-0.03,0-0.05,0
						c-0.4-0.02-0.7-0.35-0.7-0.75c0-0.02,0-0.03,0-0.05l2.13-33.87c0.03-0.41,0.38-0.75,0.79-0.7c0.4,0.02,0.7,0.35,0.7,0.75
						c0,0.02,0,0.03,0,0.05l-2.13,33.87C309.19,145.34,308.86,145.65,308.47,145.65z M323.41,137.29c-0.39,0-0.71-0.3-0.75-0.69
						l-1.45-17.54c0-0.02,0-0.04,0-0.06c0-0.39,0.3-0.71,0.69-0.75c0.41-0.04,0.77,0.27,0.81,0.69l1.45,17.54c0,0.02,0,0.04,0,0.06
						c0,0.39-0.3,0.71-0.69,0.75C323.45,137.28,323.43,137.29,323.41,137.29z M316.1,97.79c-0.41,0-0.75-0.34-0.75-0.75V73.26
						c0-0.41,0.34-0.75,0.75-0.75s0.75,0.34,0.75,0.75v23.78C316.85,97.45,316.51,97.79,316.1,97.79z"/>
				</g>
				<g>
					<path class="st6" d="M413.03,147.08c-10.11,24.29-29.64,41.81-36.77,47.64c3.16,1.57,6.26,3.26,9.28,5.07
						c7.99-6.59,29.42-26.51,34.36-54.37c4.65-26.22,8.82-45.2,19.19-58.47c-10.37,13.27-14.54,32.25-19.19,58.47
						c-4.94,27.86-26.37,47.78-34.36,54.37c2.49,1.49,4.92,3.05,7.3,4.69c4.81-4.89,16.1-16.94,23.75-29.62
						c-7.65,12.68-18.94,24.73-23.75,29.62c2.64,1.82,5.21,3.72,7.71,5.72l16.89-20.06c12.24-14.54,19.14-32.83,19.56-51.83
						l0.24-10.68c0.31-14.07,4.18-27.84,11.25-40.01l25.49-43.88L439.8,73.13c-15.36,13.21-25.38,31.56-28.19,51.62v0
						c-2.69,19.2-11.99,36.86-26.3,49.94l-17.64,16.12c2.92,1.2,5.78,2.5,8.59,3.9C383.39,188.89,402.92,171.37,413.03,147.08z
						 M428.41,142.82c-1.15,14.91-8.51,25.81-8.51,25.81S427.26,157.73,428.41,142.82c1.55-20.22,4.67-31,4.67-31
						S429.96,122.61,428.41,142.82z M452.56,70.15l-11.4,13.27L452.56,70.15z M419.9,114.99c1.86-9.35,6.59-17.16,6.59-17.16
						S421.75,105.64,419.9,114.99c-1.99,10.02-3.43,17.57-4.86,25.24C416.47,132.56,417.91,125.01,419.9,114.99z"/>
					<path class="st7" d="M400.55,210.95c-0.17,0-0.33-0.05-0.47-0.16c-2.48-1.98-5.06-3.89-7.66-5.69c0,0,0,0,0,0
						c-2.36-1.63-4.81-3.2-7.26-4.67c0,0,0,0,0,0c-2.98-1.78-6.08-3.48-9.22-5.04l0,0c-2.8-1.39-5.67-2.69-8.54-3.88
						c-0.24-0.1-0.41-0.31-0.45-0.56c-0.04-0.25,0.04-0.51,0.23-0.68l17.63-16.12c14.15-12.93,23.4-30.51,26.06-49.49
						c2.84-20.25,12.94-38.75,28.45-52.09l34.18-29.39c0.28-0.24,0.69-0.24,0.97-0.01c0.28,0.23,0.35,0.64,0.17,0.95L449.14,88
						c-6.99,12.03-10.84,25.74-11.15,39.65l-0.24,10.68c-0.42,19.1-7.43,37.67-19.74,52.29l-16.89,20.06
						C400.97,210.86,400.76,210.95,400.55,210.95z M394,204.37c2.18,1.53,4.35,3.13,6.44,4.79l16.42-19.5
						c12.09-14.36,18.97-32.6,19.39-51.36l0.24-10.68c0.31-14.16,4.24-28.12,11.35-40.37l23.25-40.04L440.29,73.7
						c-15.23,13.1-25.15,31.27-27.94,51.16c-2.71,19.33-12.13,37.22-26.53,50.39l-16.77,15.33c2.39,1.01,4.78,2.1,7.12,3.25
						c7.91-6.52,26.4-23.55,36.18-47.04c0.16-0.38,0.6-0.56,0.98-0.4c0.29,0.12,0.46,0.4,0.46,0.69c0,0.1-0.02,0.19-0.06,0.29
						c-9.7,23.31-27.84,40.31-36.09,47.2c2.66,1.35,5.29,2.8,7.84,4.31c8.86-7.38,28.92-26.71,33.69-53.58
						c4.43-24.96,8.66-45.13,19.34-58.8c0.25-0.33,0.72-0.39,1.05-0.13c0.19,0.15,0.29,0.37,0.29,0.59c0,0.16-0.05,0.32-0.16,0.46
						c-10.46,13.39-14.65,33.39-19.04,58.14c-4.78,26.96-24.62,46.41-33.81,54.14c2,1.22,3.98,2.5,5.92,3.82
						c4.82-4.94,15.78-16.74,23.2-29.04c0.21-0.35,0.67-0.47,1.03-0.25c0.23,0.14,0.36,0.39,0.36,0.64c0,0.13-0.04,0.27-0.11,0.39
						C409.82,187.53,398.94,199.29,394,204.37z M419.9,169.39c-0.14,0-0.29-0.04-0.42-0.13c-0.21-0.14-0.33-0.38-0.33-0.62
						c0-0.14,0.04-0.29,0.13-0.42c0.07-0.11,7.27-10.93,8.39-25.45c1.54-20.06,4.66-31.04,4.69-31.15c0.11-0.4,0.53-0.63,0.93-0.51
						c0.33,0.09,0.54,0.4,0.54,0.72c0,0.07-0.01,0.14-0.03,0.21c-0.03,0.11-3.11,10.96-4.64,30.85
						c-1.15,14.93-8.33,25.72-8.64,26.17C420.37,169.27,420.14,169.39,419.9,169.39z M415.04,140.98c-0.05,0-0.09,0-0.14-0.01
						c-0.36-0.07-0.61-0.38-0.61-0.74c0-0.05,0-0.09,0.01-0.14c1.25-6.7,2.71-14.4,4.86-25.25c1.67-8.39,5.55-15.46,6.49-17.07
						c0.11-0.19,0.18-0.3,0.2-0.33c0.21-0.35,0.67-0.47,1.03-0.25c0.23,0.14,0.36,0.39,0.36,0.64c0,0.13-0.04,0.27-0.11,0.39
						c-0.05,0.08-4.69,7.81-6.5,16.92l0,0c-2.15,10.84-3.61,18.53-4.86,25.23C415.71,140.73,415.39,140.98,415.04,140.98z
						 M441.16,84.17c-0.17,0-0.35-0.06-0.49-0.18c-0.17-0.15-0.26-0.36-0.26-0.57c0-0.17,0.06-0.35,0.18-0.49L452,69.67
						c0.27-0.31,0.74-0.35,1.06-0.08c0.17,0.15,0.26,0.36,0.26,0.57c0,0.17-0.06,0.35-0.18,0.49l-11.4,13.27
						C441.58,84.08,441.37,84.17,441.16,84.17z"/>
				</g>
				<g>
					<path class="st6" d="M496.73,211.79c24.47-33.2,53.08-40.94,53.08-40.94S521.19,178.59,496.73,211.79
						c-19.93,27.05-51.98,34.84-63.17,36.79c1.41,2.44,2.73,4.94,3.99,7.47c8.14-2.15,28.44-7.97,39.39-14.95
						c20.63-13.17,28.09-27.68,28.09-27.68s-7.46,14.51-28.09,27.68c-10.95,6.99-31.25,12.8-39.39,14.95
						c1.45,2.92,2.79,5.91,4.03,8.95l24.21-8.77c17.87-6.47,32.99-18.86,42.86-35.1l5.54-9.13c7.31-12.03,17.54-22.02,29.75-29.02
						l44.01-25.26l-31.4,10.92l31.4-10.92l-44.29,8.36c-19.91,3.76-37.76,14.64-50.23,30.61v0c-11.93,15.28-28.81,25.93-47.74,30.1
						l-23.43,5.17c4.16,5.24,7.94,10.79,11.3,16.62C444.75,246.63,476.8,238.84,496.73,211.79z M508.34,207.88
						c0,0,6.43-9.95,15.96-15.96C514.76,197.94,508.34,207.88,508.34,207.88z M517.67,181.49c-5.39,3.11-12.65,10.37-12.65,10.37
						S512.28,184.6,517.67,181.49z M478.17,220.26c15.86-12.13,23.95-24.53,23.95-24.53S494.03,208.14,478.17,220.26
						c-15.86,12.13-40.74,17.26-40.74,17.26S462.31,232.39,478.17,220.26z"/>
					<path class="st7" d="M441.57,265.75c-0.3,0-0.58-0.18-0.69-0.47c-1.22-3-2.57-5.99-4.01-8.9l0,0c-1.29-2.6-2.62-5.1-3.96-7.43
						c0,0,0,0,0,0c-3.31-5.74-7.09-11.3-11.24-16.53c-0.16-0.2-0.21-0.47-0.12-0.72c0.09-0.24,0.29-0.43,0.55-0.48l23.43-5.17
						c18.72-4.13,35.52-14.72,47.31-29.83c12.58-16.12,30.58-27.09,50.68-30.89l44.28-8.36c0.07-0.01,0.14-0.02,0.2-0.01
						c0,0,0,0,0,0c0,0,0,0,0,0c0.1,0.01,0.19,0.03,0.28,0.08c0.1,0.05,0.19,0.12,0.26,0.21c0.05,0.06,0.09,0.13,0.11,0.21
						c0.03,0.08,0.04,0.16,0.05,0.23c0,0.11-0.02,0.22-0.06,0.32c-0.04,0.09-0.09,0.17-0.17,0.24c-0.05,0.05-0.1,0.09-0.16,0.12
						l-44,25.25c-12.07,6.93-22.26,16.87-29.48,28.76l-5.54,9.13c-9.92,16.33-25.27,28.91-43.24,35.42l-24.21,8.77
						C441.74,265.73,441.66,265.75,441.57,265.75z M438.62,256.54c1.2,2.46,2.33,4.98,3.38,7.51l23.54-8.52
						c17.65-6.39,32.73-18.74,42.47-34.79l5.54-9.13c7.35-12.11,17.73-22.23,30.02-29.28l37.05-21.26l-23.82,8.29
						c-0.39,0.13-0.82-0.07-0.95-0.46c-0.03-0.08-0.04-0.17-0.04-0.25c0-0.31,0.19-0.6,0.5-0.71l21.86-7.6l-34.36,6.49
						c-19.74,3.73-37.42,14.5-49.78,30.34c-12.01,15.38-29.12,26.17-48.17,30.37l-22.27,4.91c3.8,4.87,7.28,10.02,10.36,15.32
						c12.68-2.29,42.95-10.31,62.19-36.41c21.21-28.78,45.85-38.64,52.03-40.75c0.91-0.31,1.42-0.46,1.46-0.46
						c0.4-0.11,0.81,0.13,0.92,0.53c0.02,0.07,0.03,0.13,0.03,0.2c0,0.33-0.22,0.63-0.55,0.72c-0.28,0.08-28.66,8.08-52.67,40.66
						c-19.29,26.17-49.44,34.45-62.6,36.9c1.09,1.92,2.16,3.95,3.21,6.04c8.51-2.28,28-7.95,38.58-14.7
						c20.2-12.89,27.76-27.25,27.83-27.39c0.19-0.37,0.64-0.51,1.01-0.32c0.26,0.13,0.41,0.4,0.41,0.67c0,0.12-0.03,0.23-0.08,0.34
						c-0.08,0.15-7.79,14.85-28.36,27.97C466.69,248.52,447.34,254.2,438.62,256.54z M437.43,238.27c-0.35,0-0.66-0.24-0.73-0.6
						c-0.01-0.05-0.02-0.1-0.02-0.15c0-0.35,0.24-0.66,0.6-0.73c0.25-0.05,24.9-5.23,40.44-17.12
						c13.83-10.58,21.79-21.48,23.45-23.87c0.21-0.3,0.32-0.46,0.33-0.48c0.23-0.35,0.69-0.45,1.04-0.22
						c0.22,0.14,0.34,0.38,0.34,0.63c0,0.14-0.04,0.28-0.12,0.41c-0.08,0.13-8.34,12.65-24.12,24.72l0,0
						c-3.33,2.54-7.06,4.79-10.88,6.74c-0.01,0-0.01,0.01-0.02,0.01c-0.02,0.01-0.03,0.02-0.05,0.03c-0.01,0.01-0.02,0.01-0.04,0.02
						c-0.08,0.04-0.17,0.09-0.25,0.13c0,0,0,0,0,0c-0.03,0.02-0.07,0.04-0.1,0.05c-0.01,0-0.01,0-0.02,0.01
						c-0.02,0.01-0.05,0.02-0.07,0.03c0,0-0.01,0-0.01,0.01c-0.01,0.01-0.02,0.01-0.04,0.02c-0.03,0.01-0.06,0.03-0.08,0.04
						c-0.02,0.01-0.04,0.02-0.06,0.03c-0.03,0.01-0.06,0.03-0.09,0.04c0,0,0,0,0,0c-13.43,6.7-27.69,9.88-29.19,10.2
						c-0.08,0.02-0.12,0.03-0.13,0.03C437.53,238.26,437.48,238.27,437.43,238.27z M508.34,208.63c-0.14,0-0.28-0.04-0.41-0.12
						c-0.22-0.14-0.34-0.38-0.34-0.63c0-0.14,0.04-0.28,0.12-0.41c0.27-0.41,6.63-10.15,16.19-16.19c0.35-0.22,0.81-0.12,1.04,0.23
						c0.08,0.12,0.12,0.26,0.12,0.4c0,0.25-0.12,0.49-0.35,0.63c-9.28,5.85-15.67,15.64-15.74,15.73
						C508.82,208.51,508.58,208.63,508.34,208.63z M505.02,192.61c-0.19,0-0.38-0.07-0.53-0.22s-0.22-0.34-0.22-0.53
						s0.07-0.38,0.22-0.53c0.3-0.3,7.39-7.36,12.8-10.49c0.36-0.21,0.82-0.08,1.02,0.27c0.07,0.12,0.1,0.25,0.1,0.37
						c0,0.26-0.13,0.51-0.38,0.65c-5.24,3.02-12.42,10.18-12.49,10.25C505.4,192.54,505.21,192.61,505.02,192.61z"/>
				</g>
				<g>
					<path class="st6" d="M505.92,316.1h-54.36c0,6.48-0.47,12.86-1.35,19.1l89.78-9.46l91.46-9.64h-105.7h105.7l-91.46-9.64
						L450.21,297c0.88,6.24,1.35,12.62,1.35,19.1H505.92z M456.4,325.07l20.83-0.93L456.4,325.07z M484.39,323.21l33.9-1.87
						L484.39,323.21z M527.68,311.36l-20.15-1.91L527.68,311.36z M502.74,309.52l-43.54-3.11L502.74,309.52z"/>
					<path class="st7" d="M450.21,335.95c-0.2,0-0.4-0.08-0.54-0.23c-0.16-0.17-0.24-0.4-0.2-0.62c0.89-6.3,1.34-12.69,1.34-19
						s-0.45-12.7-1.34-19c-0.03-0.23,0.04-0.46,0.2-0.62c0.16-0.17,0.4-0.25,0.62-0.23l181.24,19.1c0.07,0.01,0.14,0.02,0.2,0.05
						c0,0,0,0,0,0h0c0.1,0.04,0.19,0.1,0.27,0.18c0,0,0,0,0,0l0,0c0.07,0.08,0.13,0.17,0.17,0.27c0.03,0.08,0.04,0.16,0.04,0.24
						c0,0.09-0.01,0.17-0.04,0.25c-0.04,0.1-0.09,0.2-0.17,0.27c-0.07,0.07-0.15,0.13-0.25,0.17l0,0l0,0
						c-0.07,0.03-0.15,0.05-0.22,0.06l-181.23,19.1C450.26,335.95,450.23,335.95,450.21,335.95z M452.3,316.85
						c-0.03,5.82-0.44,11.7-1.22,17.5l166.1-17.5h-91.42c-0.41,0-0.75-0.34-0.75-0.75s0.34-0.75,0.75-0.75h91.42l-166.1-17.5
						c0.78,5.81,1.19,11.69,1.22,17.5h53.62c0.41,0,0.75,0.34,0.75,0.75s-0.34,0.75-0.75,0.75H452.3z M456.4,325.82
						c-0.4,0-0.73-0.31-0.75-0.72c0-0.01,0-0.02,0-0.03c0-0.4,0.31-0.73,0.72-0.75l20.83-0.93c0.38-0.05,0.76,0.3,0.78,0.72
						c0,0.01,0,0.02,0,0.03c0,0.4-0.31,0.73-0.72,0.75l-20.83,0.93C456.42,325.82,456.41,325.82,456.4,325.82z M484.39,323.96
						c-0.4,0-0.73-0.31-0.75-0.71c0-0.01,0-0.03,0-0.04c0-0.4,0.31-0.73,0.71-0.75l33.9-1.87c0.38-0.02,0.77,0.29,0.79,0.71
						c0,0.01,0,0.03,0,0.04c0,0.4-0.31,0.73-0.71,0.75l-33.9,1.87C484.42,323.96,484.4,323.96,484.39,323.96z M527.68,312.11
						c-0.02,0-0.05,0-0.07,0l-20.15-1.91c-0.39-0.04-0.68-0.36-0.68-0.75c0-0.02,0-0.05,0-0.07c0.04-0.41,0.42-0.72,0.82-0.68
						l20.15,1.91c0.39,0.04,0.68,0.36,0.68,0.75c0,0.02,0,0.05,0,0.07C528.39,311.82,528.07,312.11,527.68,312.11z M502.74,310.27
						c-0.02,0-0.04,0-0.05,0l-43.54-3.11c-0.39-0.03-0.7-0.36-0.7-0.75c0-0.02,0-0.04,0-0.06c0.03-0.41,0.4-0.71,0.8-0.69
						l43.54,3.11c0.39,0.03,0.7,0.36,0.7,0.75c0,0.02,0,0.04,0,0.06C503.46,309.97,503.13,310.27,502.74,310.27z"/>
				</g>
			</g>
			<g id="Face_00000039107699551635197740000012256687081956902570_">
				<circle class="st38" cx="316.1" cy="316.1" r="135.45"/>
				<path class="st7" d="M316.1,452.3c-75.1,0-136.2-61.1-136.2-136.2c0-75.1,61.1-136.2,136.2-136.2S452.3,241,452.3,316.1
					C452.3,391.2,391.2,452.3,316.1,452.3z M316.1,181.4c-74.28,0-134.7,60.43-134.7,134.7c0,74.28,60.43,134.7,134.7,134.7
					s134.7-60.43,134.7-134.7C450.8,241.82,390.38,181.4,316.1,181.4z"/>
			</g>
			<g id="Mouth_00000178889616447788761810000006631185999340977064_">
				<g>
					<path class="st8" d="M347.64,381.25c-12.32,8.09-27.33,7.96-35.31,7.88c-15.03-0.15-29.28-6.46-29.28-6.46
						c12.92-6.75,20.61-7.06,30.12-6.43c2.86,0.19,5.72,0.25,8.55-0.11c1.52-0.19,5.9-0.57,8.48-0.44
						c7.72,0.41,11.62,3.91,17.32,5.64"/>
					<path class="st7" d="M315.13,389.9c-1,0-1.94-0.01-2.8-0.02c-15.01-0.15-29.43-6.47-29.57-6.53c-0.26-0.12-0.44-0.37-0.45-0.66
						c-0.01-0.29,0.15-0.56,0.4-0.69c13.43-7.02,21.44-7.12,30.51-6.51c2.32,0.15,5.37,0.28,8.41-0.1c1.33-0.17,5.85-0.59,8.61-0.44
						c5.16,0.28,8.66,1.89,12.04,3.45c1.72,0.8,3.35,1.55,5.18,2.13c0.31-0.08,0.63,0.04,0.82,0.31c0.23,0.35,0.13,0.81-0.21,1.04
						c-0.04,0.02-0.07,0.05-0.11,0.07c-0.01,0.01-0.02,0.01-0.03,0.02C336.74,389.24,323.57,389.9,315.13,389.9z M284.85,382.59
						c4.02,1.58,15.57,5.67,27.49,5.79c7.62,0.08,21.57,0.21,33.43-6.85c-1.45-0.54-2.81-1.16-4.13-1.77
						c-3.25-1.5-6.61-3.06-11.49-3.32c-2.43-0.14-6.7,0.22-8.34,0.43c-3.17,0.4-6.31,0.27-8.7,0.11
						C304.62,376.42,297.07,376.49,284.85,382.59z"/>
				</g>
				<g>
					<path class="st7" d="M316.71,383.97c-1.65,0-3.14-0.28-5.17-0.65c-0.76-0.14-1.61-0.3-2.57-0.46
						c-7.43-1.25-25.66,0.54-25.84,0.56c-0.41,0.05-0.78-0.26-0.82-0.67c-0.04-0.41,0.26-0.78,0.67-0.82
						c0.76-0.08,18.61-1.84,26.24-0.55c0.97,0.17,1.83,0.32,2.6,0.47c4.16,0.77,5.72,1.06,11.06-0.45
						c8.39-2.38,24.05-0.87,24.71-0.81c0.41,0.04,0.71,0.41,0.67,0.82c-0.04,0.41-0.41,0.72-0.82,0.67
						c-0.16-0.02-16.04-1.54-24.16,0.76C320.38,383.66,318.45,383.97,316.71,383.97z"/>
				</g>
				<g>
					<path class="st7" d="M283.06,383.42c-0.04,0-0.09,0-0.14-0.01c-1.33-0.24-2.94-0.3-4.97-0.37c-2.84-0.1-6.37-0.22-10.88-0.92
						c-6.92-1.08-8.24-2.78-8.43-3.11c-0.21-0.36-0.09-0.82,0.27-1.03s0.82-0.09,1.03,0.27l0,0c0,0,1.19,1.42,7.37,2.38
						c4.42,0.69,7.9,0.81,10.7,0.91c2.09,0.07,3.75,0.13,5.19,0.39c0.41,0.08,0.68,0.47,0.6,0.87
						C283.73,383.16,283.41,383.42,283.06,383.42z"/>
				</g>
				<g>
					<path class="st7" d="M347.64,382c-0.41,0-0.75-0.33-0.75-0.74c0-0.41,0.33-0.75,0.74-0.76c0.08,0,8.2-0.08,15.76-1.25
						c6.18-0.96,7.36-2.37,7.37-2.38c0.21-0.36,0.67-0.48,1.03-0.27c0.36,0.21,0.48,0.67,0.27,1.03c-0.19,0.33-1.51,2.03-8.43,3.11
						C355.96,381.92,347.73,382,347.64,382C347.65,382,347.64,382,347.64,382z"/>
				</g>
			</g>
			<g id="Nose_00000065060535231411183780000001683010593453868966_">
				<g>
					<path class="st7" d="M315.35,353.71c-0.02,0-0.04,0-0.06,0c-2.63-0.2-4.08-1.27-5.62-2.4c-1.85-1.36-3.94-2.9-8.83-3.77
						c-9.77-1.74-9.66-7.31-9.65-7.54c0.02-0.41,0.36-0.75,0.78-0.72c0.41,0.02,0.74,0.37,0.72,0.78c0,0.18,0.01,4.51,8.42,6.01
						c5.23,0.93,7.58,2.65,9.46,4.04c1.46,1.08,2.62,1.93,4.78,2.11c2.16-0.18,3.32-1.03,4.78-2.11c1.88-1.38,4.22-3.11,9.46-4.04
						c8.4-1.49,8.42-5.83,8.42-6.02c-0.01-0.41,0.32-0.76,0.73-0.77c0.38-0.03,0.75,0.3,0.77,0.71c0.01,0.24,0.12,5.81-9.65,7.54
						c-4.89,0.87-6.98,2.41-8.83,3.77c-1.54,1.13-2.99,2.2-5.62,2.4C315.39,353.71,315.37,353.71,315.35,353.71z"/>
				</g>
				<g>
					<path class="st7" d="M315.37,344.63c-1.64-0.06-2.49-0.38-3.48-0.74c-1.17-0.43-2.51-0.92-5.62-1.2
						c-5.85-0.52-6.18-2.17-6.14-2.67c0.02-0.28,0.27-0.48,0.54-0.46c0.28,0.02,0.48,0.26,0.46,0.54h0c0.01,0,0.43,1.17,5.23,1.59
						c3.25,0.29,4.71,0.83,5.88,1.26c0.95,0.35,1.7,0.62,3.13,0.68c1.4-0.06,2.15-0.33,3.1-0.68c1.17-0.43,2.63-0.97,5.88-1.26
						c4.88-0.43,5.22-1.64,5.23-1.65c-0.02-0.28,0.18-0.49,0.46-0.51c0.29-0.03,0.52,0.21,0.54,0.49c0.04,0.5-0.29,2.15-6.14,2.67
						c-3.12,0.28-4.45,0.77-5.62,1.2C317.82,344.25,316.97,344.57,315.37,344.63z"/>
				</g>
				<g>
					<path class="st7" d="M315.35,339.73c-3.31,0-8.97-1.63-9.21-1.7c-0.26-0.08-0.42-0.35-0.34-0.62c0.08-0.26,0.35-0.42,0.62-0.34
						c0.06,0.02,5.76,1.66,8.93,1.66c2.93,0,8.88-1.65,8.94-1.66c0.27-0.08,0.54,0.08,0.62,0.35c0.07,0.27-0.08,0.54-0.35,0.62
						C324.31,338.1,318.42,339.73,315.35,339.73z"/>
				</g>
			</g>
			<g id="Eyes_00000133527009925908823640000014407647195294145463_">
				<g id="Right_00000142889861260168675670000016963271032572914094_">
					<g>
						<path class="st8" d="M344.43,299.34c9.96-4.26,20.23-18.65,35.03-8.41c11.66,8.07,15.44,7.64,15.44,7.64
							s-7.38,0.86-16.12,5.25c-8.77,4.41-14.06,3.29-18.39,1.23c-4.86-2.31-9.91-4.21-15.13-5.5L344.43,299.34z"/>
						<path class="st7" d="M367.82,307.6c-3.13,0-5.62-0.86-7.75-1.88c-5.09-2.41-10.14-4.25-14.99-5.45l-0.83-0.21
							c-0.31-0.08-0.54-0.35-0.57-0.67c-0.03-0.32,0.16-0.62,0.45-0.75c2.56-1.09,5.14-2.88,7.88-4.77
							c7.75-5.35,16.54-11.41,27.87-3.57c11.09,7.67,14.94,7.51,14.95,7.51c0.42-0.04,0.77,0.27,0.8,0.68s-0.25,0.76-0.65,0.81
							c-0.07,0.01-7.37,0.9-15.87,5.17C374.55,306.78,370.88,307.6,367.82,307.6z M346.61,299.12c4.59,1.22,9.33,2.99,14.1,5.25
							c4.09,1.94,9.06,3.13,17.74-1.22c5.16-2.59,9.82-3.96,12.83-4.66c-2.49-0.93-6.4-2.89-12.25-6.94
							c-10.47-7.25-18.45-1.75-26.16,3.57C350.72,296.6,348.66,298.02,346.61,299.12z"/>
					</g>
					<g>
						<path class="st6" d="M371.48,301.55c7.31-1.43,7.65-9.12,7.98-10.62c-8.24-5.7-15.08-3.76-21.24-0.19
							C358.71,299.47,365.49,302.72,371.48,301.55z"/>
						<path class="st7" d="M369.09,302.53c-2.64,0-5.16-0.82-7.15-2.37c-2.7-2.09-4.24-5.34-4.47-9.38
							c-0.02-0.28,0.13-0.55,0.37-0.69c5.5-3.19,12.98-6.05,22.04,0.22c0.25,0.17,0.37,0.48,0.31,0.78
							c-0.03,0.15-0.06,0.36-0.1,0.62c-0.38,2.51-1.4,9.19-8.46,10.58C370.78,302.45,369.93,302.53,369.09,302.53z M359,291.16
							c0.29,3.38,1.62,6.08,3.86,7.82c2.29,1.77,5.37,2.45,8.48,1.83l0,0c6.03-1.18,6.9-6.89,7.27-9.33
							c0.01-0.07,0.02-0.14,0.03-0.2C370.7,286,364.27,288.17,359,291.16z"/>
					</g>
					<g>
						<path class="st7" d="M358.21,312.91c-0.06,0-0.12-0.01-0.18-0.03c-8.6-3.29-16.97-9.9-17.05-9.96
							c-0.22-0.17-0.25-0.49-0.08-0.7c0.17-0.22,0.49-0.25,0.7-0.08c0.08,0.07,8.33,6.58,16.79,9.81c0.26,0.1,0.39,0.39,0.29,0.65
							C358.6,312.79,358.42,312.91,358.21,312.91z"/>
					</g>
					<g>
						<path class="st7" d="M368.46,314.54c-2.84,0-4.89-0.25-5.06-0.28c-0.27-0.04-0.47-0.29-0.43-0.56
							c0.04-0.27,0.29-0.47,0.56-0.43c0.08,0.01,8.57,1.06,15.11-1.16c0.26-0.09,0.55,0.05,0.63,0.31c0.09,0.26-0.05,0.54-0.31,0.63
							C375.46,314.25,371.51,314.54,368.46,314.54z"/>
					</g>
					<g>
						<path class="st7" d="M381.79,311.98c-0.21,0-0.41-0.13-0.47-0.34c-0.09-0.26,0.06-0.54,0.32-0.63
							c6.02-1.98,7.25-2.74,10.91-4.99c1.07-0.66,2.35-1.45,4-2.42c0.23-0.14,0.54-0.06,0.68,0.18c0.14,0.24,0.06,0.54-0.18,0.68
							c-1.65,0.97-2.92,1.76-3.99,2.41c-3.73,2.3-4.99,3.07-11.12,5.09C381.9,311.97,381.84,311.98,381.79,311.98z"/>
					</g>
					<g>
						<path class="st7" d="M339.06,275.8c-0.17,0-0.34-0.06-0.48-0.17c-0.32-0.26-0.37-0.74-0.1-1.05
							c0.28-0.34,7.08-8.48,19.39-13.08c20.58-7.69,39.91,0.83,52.5,9.34c0.34,0.23,0.43,0.7,0.2,1.04c-0.23,0.34-0.7,0.43-1.04,0.2
							c-17.62-11.89-35.28-15.08-51.07-9.2c-11.96,4.45-18.76,12.57-18.82,12.65C339.49,275.71,339.28,275.8,339.06,275.8z"/>
					</g>
					<g>
						<path class="st7" d="M340.15,288.09c-0.11,0-0.22-0.04-0.31-0.11c-0.22-0.17-0.25-0.49-0.08-0.7
							c0.07-0.09,7.64-9.53,21.81-12.6c0.27-0.05,0.54,0.11,0.59,0.38s-0.11,0.54-0.38,0.59c-13.81,2.99-21.17,12.15-21.24,12.24
							C340.44,288.02,340.29,288.09,340.15,288.09z"/>
					</g>
					<g>
						<path class="st7" d="M381,278.14c-0.08,0-0.16-0.02-0.23-0.06c-6.32-3.35-15.18-2.71-15.27-2.7
							c-0.24,0.05-0.52-0.18-0.54-0.46c-0.02-0.28,0.18-0.52,0.46-0.54c0.37-0.03,9.24-0.67,15.82,2.82
							c0.24,0.13,0.34,0.43,0.21,0.68C381.35,278.04,381.17,278.14,381,278.14z"/>
					</g>
					<g>
						<path class="st7" d="M402.67,294.49c-0.05,0-0.1-0.01-0.15-0.02c-8.14-2.64-10.91-4.56-13.58-6.4
							c-2.16-1.49-4.39-3.04-9.55-5.02c-14.73-5.65-24.84,1.67-31.54,6.51c-1.92,1.39-3.57,2.58-5.06,3.31
							c-0.25,0.12-0.55,0.02-0.67-0.23c-0.12-0.25-0.02-0.55,0.23-0.67c1.41-0.69,3.03-1.86,4.91-3.22
							c6.87-4.97,17.25-12.48,32.48-6.63c5.27,2.02,7.55,3.6,9.76,5.13c2.73,1.89,5.31,3.67,13.32,6.27
							c0.26,0.08,0.41,0.37,0.32,0.63C403.08,294.35,402.88,294.49,402.67,294.49z"/>
					</g>
				</g>
				<g id="Left_00000073702901152223619620000009848822243486856373_">
					<g>
						<path class="st8" d="M282.61,300.67c-9.7-4.82-19.12-19.79-34.49-10.41c-12.1,7.38-15.86,6.74-15.86,6.74
							s7.32,1.28,15.79,6.16c8.51,4.91,13.85,4.09,18.29,2.29c4.99-2.02,10.13-3.63,15.42-4.62L282.61,300.67z"/>
						<path class="st7" d="M259.74,307.6c-3.24,0-7.15-0.96-12.06-3.79c-8.24-4.75-15.47-6.06-15.54-6.07
							c-0.41-0.07-0.68-0.46-0.61-0.87c0.07-0.41,0.46-0.67,0.87-0.61c0.02,0,3.83,0.38,15.34-6.64
							c11.76-7.18,20.18-0.62,27.62,5.17c2.63,2.04,5.11,3.97,7.59,5.21c0.29,0.14,0.45,0.46,0.41,0.78
							c-0.04,0.32-0.29,0.57-0.61,0.63l-0.84,0.16c-4.92,0.92-10.06,2.46-15.28,4.58C264.67,306.94,262.43,307.6,259.74,307.6z
							 M235.88,297.12c2.97,0.87,7.54,2.51,12.55,5.39c8.41,4.85,13.44,3.94,17.63,2.24c4.89-1.99,9.73-3.47,14.38-4.43
							c-1.99-1.22-3.96-2.75-6.02-4.35c-7.39-5.75-15.04-11.71-25.91-5.07C242.44,294.6,238.42,296.33,235.88,297.12z"/>
					</g>
					<g>
						<path class="st6" d="M255.48,301.31c5.75,2.2,13.1-1.41,13.23-10.44c-5.79-3.67-12.33-5.66-20.58-0.62
							c-0.04,0.02-0.08,0.04-0.12,0.07C248.35,292.33,249.81,299.15,255.48,301.31z"/>
						<path class="st7" d="M258.88,302.69c-1.24,0-2.48-0.22-3.67-0.68l0,0c-5.76-2.2-7.47-8.82-7.94-11.56
							c-0.05-0.31,0.09-0.61,0.36-0.77l0.5,0.58l-0.39-0.64c9.2-5.61,16.25-2.61,21.37,0.63c0.22,0.14,0.35,0.38,0.35,0.64
							c-0.06,4.4-1.79,7.97-4.85,10.05C262.89,302.1,260.89,302.69,258.88,302.69z M255.75,300.61c2.67,1.02,5.66,0.68,8.01-0.92
							c2.56-1.73,4.03-4.71,4.18-8.41c-8.59-5.29-14.48-3.34-19.1-0.58C249.38,293.42,251.02,298.81,255.75,300.61L255.75,300.61z"
							/>
					</g>
					<g>
						<path class="st7" d="M268.1,313.42c-0.21,0-0.41-0.14-0.48-0.35c-0.08-0.26,0.06-0.54,0.33-0.63
							c8.62-2.75,17.24-8.77,17.32-8.83c0.23-0.16,0.54-0.1,0.7,0.12c0.16,0.23,0.1,0.54-0.12,0.7c-0.09,0.06-8.82,6.17-17.6,8.97
							C268.2,313.41,268.15,313.42,268.1,313.42z"/>
					</g>
					<g>
						<path class="st7" d="M260.51,314.54c-3.05,0-8.55-0.3-13.16-2.16c-0.26-0.1-0.38-0.4-0.28-0.65c0.1-0.26,0.4-0.38,0.65-0.28
							c6.41,2.59,14.94,2.03,15.02,2.02c0.26-0.03,0.51,0.19,0.53,0.46c0.02,0.28-0.19,0.51-0.46,0.53
							C262.71,314.48,261.85,314.54,260.51,314.54z"/>
					</g>
					<g>
						<path class="st7" d="M244.61,311.14c-0.06,0-0.12-0.01-0.18-0.04c-5.3-2.09-10.51-7-10.73-7.21c-0.2-0.19-0.21-0.51-0.02-0.71
							s0.51-0.21,0.71-0.02c0.05,0.05,5.29,4.99,10.41,7c0.26,0.1,0.38,0.39,0.28,0.65C245,311.02,244.81,311.14,244.61,311.14z"/>
					</g>
					<g>
						<path class="st7" d="M303.69,311.39L303.69,311.39c-0.41,0-0.75-0.34-0.75-0.75c0-19.25-5.07-31.11-17.49-40.93
							c-13.35-10.55-37.25-16.09-64.33,0c-0.36,0.21-0.82,0.09-1.03-0.26c-0.21-0.36-0.09-0.82,0.26-1.03
							c27.72-16.49,52.28-10.75,66.02,0.11c15.88,12.55,18.06,27.65,18.06,42.11C304.44,311.05,304.11,311.39,303.69,311.39z"/>
					</g>
					<g>
						<path class="st7" d="M287.56,289.68c-0.16,0-0.31-0.07-0.41-0.21c-0.07-0.1-6.88-9.66-20.5-13.44
							c-0.27-0.07-0.42-0.35-0.35-0.62c0.07-0.27,0.35-0.42,0.62-0.35c13.98,3.88,20.99,13.73,21.05,13.83
							c0.16,0.23,0.1,0.54-0.12,0.7C287.76,289.65,287.66,289.68,287.56,289.68z"/>
					</g>
					<g>
						<path class="st7" d="M247.35,277.4c-0.19,0-0.37-0.11-0.45-0.29c-0.12-0.25,0-0.55,0.25-0.66c6.76-3.1,15.58-1.96,15.95-1.9
							c0.27,0.04,0.46,0.29,0.43,0.56c-0.04,0.27-0.28,0.47-0.56,0.43c-0.09-0.01-8.91-1.16-15.4,1.82
							C247.49,277.38,247.42,277.4,247.35,277.4z"/>
					</g>
					<g>
						<path class="st7" d="M284.86,294.36c-0.08,0-0.17-0.02-0.25-0.06c-1.44-0.81-3.02-2.1-4.86-3.59
							c-6.4-5.22-16.08-13.1-31.11-8.31c-5.26,1.68-7.58,3.09-9.82,4.46c-2.77,1.69-5.64,3.44-13.93,5.61
							c-0.27,0.07-0.54-0.09-0.61-0.36c-0.07-0.27,0.09-0.54,0.36-0.61c8.14-2.14,10.82-3.77,13.66-5.5
							c2.29-1.4,4.66-2.84,10.04-4.56c15.55-4.96,25.47,3.13,32.05,8.49c1.8,1.46,3.35,2.73,4.72,3.5c0.24,0.14,0.33,0.44,0.19,0.68
							C285.2,294.26,285.03,294.36,284.86,294.36z"/>
					</g>
				</g>
			</g>
			<g id="Line_00000034087254625877653100000003163949575682156968_">
				<g>
					<path class="st7" d="M419.9,253.33c-0.17,0-0.34-0.09-0.43-0.25c-4.02-6.95-8.97-13.49-14.71-19.43
						c-0.19-0.2-0.19-0.52,0.01-0.71c0.2-0.19,0.52-0.19,0.71,0.01c5.79,6,10.79,12.61,14.85,19.62c0.14,0.24,0.06,0.54-0.18,0.68
						C420.07,253.31,419.98,253.33,419.9,253.33z"/>
				</g>
				<g>
					<path class="st7" d="M400.84,229.62c-0.12,0-0.24-0.04-0.34-0.13c-2.32-2.15-4.77-4.22-7.29-6.16
						c-0.22-0.17-0.26-0.48-0.09-0.7c0.17-0.22,0.49-0.26,0.7-0.09c2.54,1.96,5.01,4.05,7.35,6.21c0.2,0.19,0.21,0.5,0.03,0.71
						C401.11,229.57,400.98,229.62,400.84,229.62z"/>
				</g>
				<g>
					<path class="st7" d="M388.45,219.75c-0.1,0-0.2-0.03-0.28-0.09c-13.39-9.19-28.92-15.75-46.14-19.5
						c-0.27-0.06-0.44-0.33-0.38-0.59c0.06-0.27,0.33-0.44,0.59-0.38c17.35,3.78,33,10.39,46.5,19.65c0.23,0.16,0.29,0.47,0.13,0.7
						C388.76,219.67,388.61,219.75,388.45,219.75z"/>
				</g>
				<g>
					<path class="st7" d="M336.07,198.99c-0.03,0-0.06,0-0.09-0.01c-3.2-0.56-6.47-1.02-9.73-1.37c-0.27-0.03-0.47-0.28-0.44-0.55
						s0.29-0.47,0.55-0.44c3.28,0.35,6.58,0.82,9.79,1.38c0.27,0.05,0.45,0.31,0.41,0.58C336.52,198.82,336.31,198.99,336.07,198.99
						z"/>
				</g>
				<g>
					<path class="st7" d="M276.7,201.14c-0.23,0-0.43-0.15-0.49-0.38c-0.07-0.27,0.1-0.54,0.37-0.6c16.57-4.04,31.34-5.38,43.9-3.96
						c0.27,0.03,0.47,0.28,0.44,0.55c-0.03,0.27-0.29,0.47-0.55,0.44c-12.44-1.4-27.09-0.07-43.55,3.94
						C276.78,201.14,276.74,201.14,276.7,201.14z"/>
				</g>
				<g>
					<path class="st7" d="M434.48,297.88c-0.25,0-0.47-0.19-0.5-0.45c-0.7-6.5-2.02-12.73-3.91-18.51
						c-0.09-0.26,0.06-0.54,0.32-0.63c0.26-0.08,0.54,0.06,0.63,0.32c1.91,5.85,3.24,12.15,3.95,18.72
						c0.03,0.27-0.17,0.52-0.44,0.55C434.52,297.88,434.5,297.88,434.48,297.88z"/>
				</g>
				<g>
					<path class="st7" d="M428.56,273.88c-0.2,0-0.38-0.12-0.46-0.31c-0.92-2.22-2.2-5.1-3.93-7.75c-0.15-0.23-0.09-0.54,0.14-0.69
						c0.23-0.15,0.54-0.09,0.69,0.14c1.78,2.72,3.08,5.65,4.01,7.91c0.11,0.25-0.02,0.55-0.27,0.65
						C428.69,273.87,428.62,273.88,428.56,273.88z"/>
				</g>
				<g>
					<path class="st7" d="M433.82,335.98c-0.04,0-0.07,0-0.11-0.01c-0.27-0.06-0.44-0.33-0.38-0.6c2.46-11.14,1.35-27.97,1.34-28.14
						c-0.02-0.28,0.19-0.51,0.46-0.53c0.26-0.02,0.51,0.19,0.53,0.46c0.01,0.17,1.13,17.14-1.36,28.43
						C434.26,335.82,434.05,335.98,433.82,335.98z"/>
				</g>
				<g>
					<path class="st7" d="M235.95,398.47c-0.12,0-0.23-0.04-0.33-0.12c-4.99-4.27-9.64-9.28-13.83-14.91
						c-0.17-0.22-0.12-0.53,0.1-0.7c0.22-0.17,0.53-0.12,0.7,0.1c4.15,5.56,8.75,10.52,13.68,14.74c0.21,0.18,0.23,0.5,0.05,0.71
						C236.23,398.41,236.09,398.47,235.95,398.47z"/>
				</g>
				<g>
					<path class="st7" d="M218.84,378.88c-0.16,0-0.32-0.08-0.42-0.22c-7.31-11.06-12.72-23.5-16.09-36.98
						c-0.07-0.27,0.1-0.54,0.36-0.61c0.27-0.07,0.54,0.1,0.61,0.36c3.34,13.37,8.7,25.7,15.95,36.67c0.15,0.23,0.09,0.54-0.14,0.69
						C219.03,378.85,218.94,378.88,218.84,378.88z"/>
				</g>
				<g>
					<path class="st7" d="M201.48,336.84c-0.23,0-0.43-0.15-0.49-0.38c-1.38-5.76-2.24-10.45-2.7-14.76
						c-0.03-0.27,0.17-0.52,0.44-0.55c0.26-0.03,0.52,0.17,0.55,0.44c0.46,4.27,1.32,8.92,2.68,14.63c0.06,0.27-0.1,0.54-0.37,0.6
						C201.56,336.84,201.52,336.84,201.48,336.84z"/>
				</g>
				<g>
					<path class="st7" d="M322.57,434.61c-0.01,0-0.02,0-0.02,0c-4.69-0.22-9.4-0.64-13.98-1.27c-0.27-0.04-0.46-0.29-0.43-0.56
						c0.04-0.27,0.28-0.47,0.56-0.43c4.56,0.62,9.23,1.04,13.89,1.26c0.28,0.01,0.49,0.25,0.48,0.52
						C323.05,434.4,322.83,434.61,322.57,434.61z"/>
				</g>
				<g>
					<path class="st7" d="M304.1,432.66c-0.03,0-0.06,0-0.09-0.01c-25.55-4.79-44.9-13.15-59.14-25.56
						c-0.21-0.18-0.23-0.5-0.05-0.71c0.18-0.21,0.5-0.23,0.71-0.05c14.1,12.29,33.3,20.58,58.67,25.33c0.27,0.05,0.45,0.31,0.4,0.58
						C304.54,432.49,304.33,432.66,304.1,432.66z"/>
				</g>
				<g>
					<path class="st7" d="M277.5,434.65c-0.06,0-0.12-0.01-0.19-0.04c-22.24-8.93-39.41-20.55-52.48-35.53
						c-0.18-0.21-0.16-0.52,0.05-0.71c0.21-0.18,0.52-0.16,0.71,0.05c12.96,14.86,30.01,26.39,52.1,35.26
						c0.26,0.1,0.38,0.39,0.28,0.65C277.89,434.53,277.7,434.65,277.5,434.65z"/>
				</g>
				<g>
					<path class="st7" d="M222.21,395.82c-0.15,0-0.3-0.07-0.4-0.2c-1.16-1.58-2.35-3.14-3.54-4.71
						c-6.04-7.96-12.29-16.19-15.11-26.65c-0.07-0.27,0.08-0.54,0.35-0.61c0.27-0.07,0.54,0.09,0.61,0.35
						c2.78,10.27,8.96,18.42,14.95,26.31c1.19,1.57,2.38,3.14,3.55,4.72c0.16,0.22,0.12,0.54-0.11,0.7
						C222.42,395.79,222.31,395.82,222.21,395.82z"/>
				</g>
			</g>
			<g id="Dot_00000147180042629049714070000010199694046779124158_">
				<g>
					<path class="st7" d="M270.97,202.5c-1.17-0.93-2.88-0.73-3.81,0.44c-0.93,1.17-0.73,2.88,0.44,3.81
						c0.5,0.39,1.09,0.59,1.68,0.59c0.8,0,1.59-0.35,2.12-1.02h0C272.34,205.14,272.14,203.43,270.97,202.5z"/>
				</g>
				<g>
					<path class="st7" d="M255.52,211.62c-0.32-1.33-1.67-2.16-3-1.83c-1.33,0.32-2.15,1.67-1.83,3c0.16,0.64,0.55,1.19,1.12,1.54
						c0.39,0.24,0.84,0.36,1.29,0.36c0.2,0,0.39-0.02,0.59-0.07c0.64-0.16,1.19-0.55,1.54-1.12
						C255.57,212.93,255.67,212.26,255.52,211.62z"/>
				</g>
				<g>
					<path class="st7" d="M266.61,215.47c-0.07-0.57-0.35-1.08-0.8-1.44s-1.02-0.52-1.59-0.45c-0.57,0.07-1.08,0.35-1.44,0.8
						c-0.74,0.93-0.58,2.29,0.35,3.03c0.4,0.31,0.87,0.47,1.34,0.47c0.63,0,1.26-0.28,1.69-0.81
						C266.51,216.61,266.67,216.04,266.61,215.47z"/>
				</g>
				<g>
					<path class="st7" d="M252.28,223.57c-0.24-0.99-1.24-1.6-2.23-1.36c-0.99,0.24-1.6,1.24-1.36,2.23
						c0.2,0.84,0.96,1.41,1.79,1.41c0.14,0,0.29-0.02,0.43-0.05h0c0.48-0.12,0.88-0.41,1.14-0.83
						C252.32,224.54,252.4,224.05,252.28,223.57z"/>
				</g>
				<g>
					<path class="st7" d="M337.51,428.53c-0.41-0.6-1.03-1-1.74-1.13c-0.71-0.13-1.43,0.02-2.03,0.43c-0.6,0.41-1,1.03-1.13,1.74
						c-0.13,0.71,0.02,1.43,0.43,2.03c0.52,0.76,1.37,1.17,2.24,1.17c0.53,0,1.06-0.15,1.53-0.47
						C338.04,431.45,338.36,429.76,337.51,428.53z"/>
				</g>
				<g>
					<path class="st7" d="M359.15,421.51c-1.37-0.08-2.55,0.96-2.63,2.33c-0.04,0.66,0.18,1.3,0.62,1.8
						c0.44,0.5,1.05,0.79,1.71,0.83c0.05,0,0.1,0,0.15,0c0.61,0,1.19-0.22,1.64-0.63c0.5-0.44,0.79-1.05,0.83-1.71
						C361.56,422.77,360.51,421.59,359.15,421.51z"/>
				</g>
				<g>
					<path class="st7" d="M348.45,417.16c-0.67-0.98-2.02-1.23-3-0.56c-0.98,0.67-1.23,2.02-0.56,3c0.42,0.61,1.09,0.93,1.78,0.93
						c0.42,0,0.84-0.12,1.22-0.38C348.87,419.49,349.12,418.14,348.45,417.16z"/>
				</g>
				<g>
					<path class="st7" d="M374.95,413.55c-0.33-0.37-0.78-0.59-1.27-0.62c-0.49-0.03-0.97,0.13-1.33,0.46
						c-0.37,0.33-0.59,0.78-0.62,1.27c-0.03,0.49,0.13,0.97,0.46,1.33c0.33,0.37,0.78,0.59,1.27,0.62c0.04,0,0.08,0,0.11,0
						c0.45,0,0.88-0.16,1.22-0.46c0.37-0.33,0.59-0.78,0.62-1.27C375.44,414.39,375.28,413.91,374.95,413.55z"/>
				</g>
				<g>
					<path class="st7" d="M425.06,335.68c-1.03-0.91-2.6-0.81-3.51,0.22c-0.91,1.03-0.81,2.6,0.22,3.51
						c0.47,0.42,1.06,0.62,1.64,0.62c0.69,0,1.37-0.28,1.86-0.84C426.18,338.16,426.09,336.59,425.06,335.68z"/>
				</g>
				<g>
					<path class="st7" d="M426.61,351.58c-0.37-0.33-0.84-0.49-1.33-0.46c-0.49,0.03-0.94,0.25-1.27,0.62
						c-0.67,0.76-0.6,1.93,0.16,2.6c0.35,0.31,0.78,0.46,1.22,0.46c0.51,0,1.02-0.21,1.38-0.62c0.33-0.37,0.49-0.84,0.46-1.33
						C427.2,352.36,426.98,351.91,426.61,351.58z"/>
				</g>
			</g>
		</g>
		<g id="Line_00000021808056582110503360000004042966376959461567_">
			<g>
				<g>
					<path class="st6" d="M281.04,185.76c-0.22,0-0.42-0.15-0.48-0.37l-1.94-7.24c-0.07-0.27,0.09-0.54,0.35-0.61
						c0.27-0.07,0.54,0.09,0.61,0.35l1.94,7.24c0.07,0.27-0.09,0.54-0.35,0.61C281.13,185.76,281.08,185.76,281.04,185.76z"/>
				</g>
				<g>
					<path class="st6" d="M275.22,164.04c-0.22,0-0.42-0.15-0.48-0.37l-3.88-14.48c-0.07-0.27,0.09-0.54,0.35-0.61
						c0.27-0.06,0.54,0.09,0.61,0.35l3.88,14.48c0.07,0.27-0.09,0.54-0.35,0.61C275.31,164.03,275.26,164.04,275.22,164.04z
						 M267.46,135.08c-0.22,0-0.42-0.15-0.48-0.37l-3.88-14.48c-0.07-0.27,0.09-0.54,0.35-0.61c0.27-0.07,0.54,0.09,0.61,0.35
						l3.88,14.48c0.07,0.27-0.09,0.54-0.35,0.61C267.55,135.07,267.5,135.08,267.46,135.08z M259.7,106.12
						c-0.22,0-0.42-0.15-0.48-0.37l-3.88-14.48c-0.07-0.27,0.09-0.54,0.35-0.61c0.27-0.07,0.54,0.09,0.61,0.35l3.88,14.48
						c0.07,0.27-0.09,0.54-0.35,0.61C259.79,106.11,259.74,106.12,259.7,106.12z M251.94,77.16c-0.22,0-0.42-0.15-0.48-0.37
						l-3.88-14.48c-0.07-0.27,0.09-0.54,0.35-0.61c0.27-0.06,0.54,0.09,0.61,0.35l3.88,14.48c0.07,0.27-0.09,0.54-0.35,0.61
						C252.03,77.15,251.98,77.16,251.94,77.16z M244.18,48.2c-0.22,0-0.42-0.15-0.48-0.37l-3.88-14.48
						c-0.07-0.27,0.09-0.54,0.35-0.61c0.27-0.06,0.54,0.09,0.61,0.35l3.88,14.48c0.07,0.27-0.09,0.54-0.35,0.61
						C244.27,48.19,244.22,48.2,244.18,48.2z"/>
				</g>
				<g>
					<path class="st6" d="M236.42,19.24c-0.22,0-0.42-0.15-0.48-0.37L234,11.62c-0.07-0.27,0.09-0.54,0.35-0.61
						c0.27-0.07,0.54,0.09,0.61,0.35l1.94,7.25c0.07,0.27-0.09,0.54-0.35,0.61C236.51,19.23,236.47,19.24,236.42,19.24z"/>
				</g>
			</g>
			<g>
				<g>
					<path class="st6" d="M353.1,454.68c-0.22,0-0.42-0.15-0.48-0.37l-1.94-7.24c-0.07-0.27,0.09-0.54,0.35-0.61
						c0.26-0.07,0.54,0.09,0.61,0.35l1.94,7.24c0.07,0.27-0.09,0.54-0.35,0.61C353.18,454.68,353.14,454.68,353.1,454.68z"/>
				</g>
				<g>
					<path class="st6" d="M391.9,599.48c-0.22,0-0.42-0.15-0.48-0.37l-3.88-14.48c-0.07-0.27,0.09-0.54,0.35-0.61
						c0.27-0.06,0.54,0.09,0.61,0.35l3.88,14.48c0.07,0.27-0.09,0.54-0.35,0.61C391.98,599.47,391.94,599.48,391.9,599.48z
						 M384.14,570.52c-0.22,0-0.42-0.15-0.48-0.37l-3.88-14.48c-0.07-0.27,0.09-0.54,0.35-0.61c0.27-0.07,0.54,0.09,0.61,0.35
						l3.88,14.48c0.07,0.27-0.09,0.54-0.35,0.61C384.22,570.52,384.18,570.52,384.14,570.52z M376.38,541.56
						c-0.22,0-0.42-0.15-0.48-0.37l-3.88-14.48c-0.07-0.27,0.09-0.54,0.35-0.61c0.27-0.06,0.54,0.09,0.61,0.35l3.88,14.48
						c0.07,0.27-0.09,0.54-0.35,0.61C376.46,541.56,376.42,541.56,376.38,541.56z M368.62,512.6c-0.22,0-0.42-0.15-0.48-0.37
						l-3.88-14.48c-0.07-0.27,0.09-0.54,0.35-0.61c0.27-0.07,0.54,0.09,0.61,0.35l3.88,14.48c0.07,0.27-0.09,0.54-0.35,0.61
						C368.7,512.6,368.66,512.6,368.62,512.6z M360.86,483.64c-0.22,0-0.42-0.15-0.48-0.37l-3.88-14.48
						c-0.07-0.27,0.09-0.54,0.35-0.61c0.27-0.06,0.54,0.09,0.61,0.35l3.88,14.48c0.07,0.27-0.09,0.54-0.35,0.61
						C360.94,483.64,360.9,483.64,360.86,483.64z"/>
				</g>
				<g>
					<path class="st6" d="M397.72,621.21c-0.22,0-0.42-0.15-0.48-0.37l-1.94-7.25c-0.07-0.27,0.09-0.54,0.35-0.61
						c0.27-0.07,0.54,0.09,0.61,0.35l1.94,7.25c0.07,0.27-0.09,0.54-0.35,0.61C397.8,621.2,397.76,621.21,397.72,621.21z"/>
				</g>
			</g>
			<g>
				<g>
					<path class="st6" d="M185.26,281.54c-0.04,0-0.09-0.01-0.13-0.02l-7.25-1.94c-0.27-0.07-0.42-0.35-0.35-0.61
						c0.07-0.27,0.35-0.42,0.61-0.35l7.25,1.94c0.27,0.07,0.42,0.35,0.35,0.61C185.68,281.39,185.48,281.54,185.26,281.54z"/>
				</g>
				<g>
					<path class="st6" d="M163.54,275.72c-0.04,0-0.09-0.01-0.13-0.02l-14.48-3.88c-0.27-0.07-0.42-0.35-0.35-0.61
						c0.07-0.27,0.34-0.42,0.61-0.35l14.48,3.88c0.27,0.07,0.42,0.35,0.35,0.61C163.96,275.57,163.76,275.72,163.54,275.72z
						 M134.58,267.96c-0.04,0-0.09-0.01-0.13-0.02l-14.48-3.88c-0.27-0.07-0.42-0.35-0.35-0.61c0.07-0.27,0.35-0.42,0.61-0.35
						l14.48,3.88c0.27,0.07,0.42,0.35,0.35,0.61C135,267.81,134.8,267.96,134.58,267.96z M105.62,260.2c-0.04,0-0.09-0.01-0.13-0.02
						l-14.48-3.88c-0.27-0.07-0.42-0.35-0.35-0.61c0.07-0.26,0.35-0.42,0.61-0.35l14.48,3.88c0.27,0.07,0.42,0.35,0.35,0.61
						C106.04,260.05,105.84,260.2,105.62,260.2z M76.66,252.44c-0.04,0-0.09-0.01-0.13-0.02l-14.48-3.88
						c-0.27-0.07-0.42-0.35-0.35-0.61c0.07-0.27,0.34-0.42,0.61-0.35l14.48,3.88c0.27,0.07,0.42,0.35,0.35,0.61
						C77.08,252.29,76.88,252.44,76.66,252.44z M47.7,244.68c-0.04,0-0.09-0.01-0.13-0.02l-14.48-3.88
						c-0.27-0.07-0.42-0.35-0.35-0.61c0.07-0.27,0.35-0.42,0.61-0.35l14.48,3.88c0.27,0.07,0.42,0.35,0.35,0.61
						C48.12,244.53,47.92,244.68,47.7,244.68z"/>
				</g>
				<g>
					<path class="st6" d="M18.74,236.92c-0.04,0-0.09-0.01-0.13-0.02l-7.24-1.94c-0.27-0.07-0.42-0.35-0.35-0.61
						c0.07-0.27,0.35-0.42,0.61-0.35l7.24,1.94c0.27,0.07,0.42,0.35,0.35,0.61C19.16,236.78,18.96,236.92,18.74,236.92z"/>
				</g>
			</g>
			<g>
				<g>
					<path class="st6" d="M454.18,353.6c-0.04,0-0.09-0.01-0.13-0.02l-7.24-1.94c-0.27-0.07-0.42-0.35-0.35-0.61
						c0.07-0.27,0.35-0.42,0.61-0.35l7.24,1.94c0.27,0.07,0.42,0.35,0.35,0.61C454.61,353.45,454.4,353.6,454.18,353.6z"/>
				</g>
				<g>
					<path class="st6" d="M598.98,392.4c-0.04,0-0.09-0.01-0.13-0.02l-14.48-3.88c-0.27-0.07-0.42-0.35-0.35-0.61
						c0.07-0.27,0.34-0.42,0.61-0.35l14.48,3.88c0.27,0.07,0.42,0.35,0.35,0.61C599.4,392.25,599.2,392.4,598.98,392.4z
						 M570.02,384.64c-0.04,0-0.09-0.01-0.13-0.02l-14.48-3.88c-0.27-0.07-0.42-0.35-0.35-0.61c0.07-0.27,0.35-0.42,0.61-0.35
						l14.48,3.88c0.27,0.07,0.42,0.35,0.35,0.61C570.44,384.49,570.24,384.64,570.02,384.64z M541.06,376.88
						c-0.04,0-0.09-0.01-0.13-0.02l-14.48-3.88c-0.27-0.07-0.42-0.35-0.35-0.61c0.07-0.27,0.35-0.42,0.61-0.35l14.48,3.88
						c0.27,0.07,0.42,0.35,0.35,0.61C541.48,376.73,541.28,376.88,541.06,376.88z M512.1,369.12c-0.04,0-0.09-0.01-0.13-0.02
						l-14.48-3.88c-0.27-0.07-0.42-0.35-0.35-0.61c0.07-0.27,0.35-0.42,0.61-0.35l14.48,3.88c0.27,0.07,0.42,0.35,0.35,0.61
						C512.52,368.97,512.32,369.12,512.1,369.12z M483.14,361.36c-0.04,0-0.09-0.01-0.13-0.02l-14.48-3.88
						c-0.27-0.07-0.42-0.35-0.35-0.61c0.07-0.27,0.35-0.42,0.61-0.35l14.48,3.88c0.27,0.07,0.42,0.35,0.35,0.61
						C483.56,361.21,483.36,361.36,483.14,361.36z"/>
				</g>
				<g>
					<path class="st6" d="M620.7,398.22c-0.04,0-0.09-0.01-0.13-0.02l-7.24-1.94c-0.27-0.07-0.42-0.35-0.35-0.61
						c0.07-0.26,0.35-0.42,0.61-0.35l7.24,1.94c0.27,0.07,0.42,0.35,0.35,0.61C621.13,398.07,620.92,398.22,620.7,398.22z"/>
				</g>
			</g>
			<g>
				<g>
					<path class="st6" d="M215.02,417.68c-0.13,0-0.26-0.05-0.35-0.15c-0.2-0.2-0.2-0.51,0-0.71l5.3-5.3c0.2-0.2,0.51-0.2,0.71,0
						s0.2,0.51,0,0.71l-5.3,5.3C215.27,417.63,215.14,417.68,215.02,417.68z"/>
				</g>
				<g>
					<path class="st6" d="M109.02,523.68c-0.13,0-0.26-0.05-0.35-0.15c-0.2-0.2-0.2-0.51,0-0.71l10.6-10.6c0.2-0.2,0.51-0.2,0.71,0
						s0.2,0.51,0,0.71l-10.6,10.6C109.27,523.63,109.14,523.68,109.02,523.68z M130.22,502.48c-0.13,0-0.26-0.05-0.35-0.15
						c-0.2-0.2-0.2-0.51,0-0.71l10.6-10.6c0.2-0.2,0.51-0.2,0.71,0s0.2,0.51,0,0.71l-10.6,10.6
						C130.47,502.43,130.34,502.48,130.22,502.48z M151.42,481.28c-0.13,0-0.26-0.05-0.35-0.15c-0.2-0.2-0.2-0.51,0-0.71l10.6-10.6
						c0.2-0.2,0.51-0.2,0.71,0s0.2,0.51,0,0.71l-10.6,10.6C151.67,481.23,151.54,481.28,151.42,481.28z M172.62,460.08
						c-0.13,0-0.26-0.05-0.35-0.15c-0.2-0.2-0.2-0.51,0-0.71l10.6-10.6c0.2-0.2,0.51-0.2,0.71,0s0.2,0.51,0,0.71l-10.6,10.6
						C172.87,460.03,172.74,460.08,172.62,460.08z M193.82,438.88c-0.13,0-0.26-0.05-0.35-0.15c-0.2-0.2-0.2-0.51,0-0.71l10.6-10.6
						c0.2-0.2,0.51-0.2,0.71,0s0.2,0.51,0,0.71l-10.6,10.6C194.07,438.83,193.94,438.88,193.82,438.88z"/>
				</g>
				<g>
					<path class="st6" d="M93.11,539.59c-0.13,0-0.26-0.05-0.35-0.15c-0.2-0.2-0.2-0.51,0-0.71l5.3-5.3c0.2-0.2,0.51-0.2,0.71,0
						s0.2,0.51,0,0.71l-5.3,5.3C93.37,539.54,93.24,539.59,93.11,539.59z"/>
				</g>
			</g>
			<g>
				<g>
					<path class="st6" d="M411.88,220.82c-0.13,0-0.26-0.05-0.35-0.15c-0.2-0.2-0.2-0.51,0-0.71l5.3-5.3c0.2-0.2,0.51-0.2,0.71,0
						s0.2,0.51,0,0.71l-5.3,5.3C412.14,220.77,412.01,220.82,411.88,220.82z"/>
				</g>
				<g>
					<path class="st6" d="M427.78,204.92c-0.13,0-0.26-0.05-0.35-0.15c-0.2-0.2-0.2-0.51,0-0.71l10.6-10.6c0.2-0.2,0.51-0.2,0.71,0
						s0.2,0.51,0,0.71l-10.6,10.6C428.04,204.87,427.91,204.92,427.78,204.92z M448.98,183.72c-0.13,0-0.26-0.05-0.35-0.15
						c-0.2-0.2-0.2-0.51,0-0.71l10.6-10.6c0.2-0.2,0.51-0.2,0.71,0s0.2,0.51,0,0.71l-10.6,10.6
						C449.24,183.67,449.11,183.72,448.98,183.72z M470.18,162.52c-0.13,0-0.26-0.05-0.35-0.15c-0.2-0.2-0.2-0.51,0-0.71l10.6-10.6
						c0.2-0.2,0.51-0.2,0.71,0s0.2,0.51,0,0.71l-10.6,10.6C470.44,162.47,470.31,162.52,470.18,162.52z M491.38,141.32
						c-0.13,0-0.26-0.05-0.35-0.15c-0.2-0.2-0.2-0.51,0-0.71l10.6-10.6c0.2-0.2,0.51-0.2,0.71,0s0.2,0.51,0,0.71l-10.6,10.6
						C491.64,141.27,491.51,141.32,491.38,141.32z M512.58,120.12c-0.13,0-0.26-0.05-0.35-0.15c-0.2-0.2-0.2-0.51,0-0.71l10.6-10.6
						c0.2-0.2,0.51-0.2,0.71,0s0.2,0.51,0,0.71l-10.6,10.6C512.84,120.07,512.71,120.12,512.58,120.12z"/>
				</g>
				<g>
					<path class="st6" d="M533.78,98.92c-0.13,0-0.26-0.05-0.35-0.15c-0.2-0.2-0.2-0.51,0-0.71l5.3-5.3c0.2-0.2,0.51-0.2,0.71,0
						s0.2,0.51,0,0.71l-5.3,5.3C534.04,98.87,533.91,98.92,533.78,98.92z"/>
				</g>
			</g>
			<g>
				<g>
					<path class="st6" d="M220.32,220.82c-0.13,0-0.26-0.05-0.35-0.15l-21.21-21.21c-0.2-0.2-0.2-0.51,0-0.71s0.51-0.2,0.71,0
						l21.21,21.21c0.2,0.2,0.2,0.51,0,0.71C220.58,220.77,220.45,220.82,220.32,220.82z"/>
				</g>
				<g>
					<path class="st6" d="M174.88,175.38c-0.13,0-0.26-0.05-0.35-0.15L138.2,138.9c-0.2-0.2-0.2-0.51,0-0.71s0.51-0.2,0.71,0
						l36.33,36.33c0.2,0.2,0.2,0.51,0,0.71C175.14,175.33,175.01,175.38,174.88,175.38z"/>
				</g>
				<g>
					<path class="st6" d="M114.33,114.83c-0.13,0-0.26-0.05-0.35-0.15L92.76,93.47c-0.2-0.2-0.2-0.51,0-0.71s0.51-0.2,0.71,0
						l21.21,21.21c0.2,0.2,0.2,0.51,0,0.71C114.58,114.78,114.46,114.83,114.33,114.83z"/>
				</g>
			</g>
			<g>
				<g>
					<path class="st6" d="M433.09,433.59c-0.13,0-0.26-0.05-0.35-0.15l-21.21-21.21c-0.2-0.2-0.2-0.51,0-0.71s0.51-0.2,0.71,0
						l21.21,21.21c0.2,0.2,0.2,0.51,0,0.71C433.35,433.54,433.22,433.59,433.09,433.59z"/>
				</g>
				<g>
					<path class="st6" d="M493.65,494.15c-0.13,0-0.26-0.05-0.35-0.15l-36.33-36.33c-0.2-0.2-0.2-0.51,0-0.71s0.51-0.2,0.71,0
						L494,493.3c0.2,0.2,0.2,0.51,0,0.71C493.91,494.1,493.78,494.15,493.65,494.15z"/>
				</g>
				<g>
					<path class="st6" d="M539.09,539.59c-0.13,0-0.26-0.05-0.35-0.15l-21.21-21.21c-0.2-0.2-0.2-0.51,0-0.71s0.51-0.2,0.71,0
						l21.21,21.21c0.2,0.2,0.2,0.51,0,0.71C539.34,539.54,539.21,539.59,539.09,539.59z"/>
				</g>
			</g>
			<g>
				<g>
					<path class="st6" d="M156.28,359.42c-0.22,0-0.42-0.15-0.48-0.37c-0.07-0.27,0.09-0.54,0.35-0.61l28.98-7.76
						c0.27-0.07,0.54,0.09,0.61,0.35c0.07,0.27-0.09,0.54-0.35,0.61l-28.98,7.76C156.37,359.42,156.33,359.42,156.28,359.42z"/>
				</g>
				<g>
					<path class="st6" d="M73.56,381.59c-0.22,0-0.42-0.15-0.48-0.37c-0.07-0.27,0.09-0.54,0.35-0.61l49.63-13.3
						c0.27-0.07,0.54,0.09,0.61,0.35c0.07,0.27-0.09,0.54-0.35,0.61l-49.63,13.3C73.65,381.58,73.61,381.59,73.56,381.59z"/>
				</g>
				<g>
					<path class="st6" d="M11.5,398.22c-0.22,0-0.42-0.15-0.48-0.37c-0.07-0.27,0.09-0.54,0.35-0.61l28.98-7.76
						c0.27-0.07,0.54,0.09,0.61,0.35c0.07,0.27-0.09,0.54-0.35,0.61l-28.98,7.76C11.58,398.21,11.54,398.22,11.5,398.22z"/>
				</g>
			</g>
			<g>
				<g>
					<path class="st6" d="M446.94,281.54c-0.22,0-0.42-0.15-0.48-0.37c-0.07-0.27,0.09-0.54,0.35-0.61l28.98-7.76
						c0.27-0.06,0.54,0.09,0.61,0.35c0.07,0.27-0.09,0.54-0.35,0.61l-28.98,7.76C447.02,281.54,446.98,281.54,446.94,281.54z"/>
				</g>
				<g>
					<path class="st6" d="M509,264.91c-0.22,0-0.42-0.15-0.48-0.37c-0.07-0.27,0.09-0.54,0.35-0.61l49.63-13.3
						c0.27-0.07,0.54,0.09,0.61,0.35c0.07,0.27-0.09,0.54-0.35,0.61l-49.63,13.3C509.09,264.91,509.05,264.91,509,264.91z"/>
				</g>
				<g>
					<path class="st6" d="M591.73,242.75c-0.22,0-0.42-0.15-0.48-0.37c-0.07-0.27,0.09-0.54,0.35-0.61l28.98-7.76
						c0.27-0.06,0.54,0.09,0.61,0.35c0.07,0.27-0.09,0.54-0.35,0.61l-28.98,7.76C591.81,242.74,591.77,242.75,591.73,242.75z"/>
				</g>
			</g>
			<g>
				<g>
					<path class="st6" d="M273.28,476.42c-0.04,0-0.09-0.01-0.13-0.02c-0.27-0.07-0.42-0.35-0.35-0.61l7.76-28.98
						c0.07-0.27,0.35-0.42,0.61-0.35c0.27,0.07,0.42,0.35,0.35,0.61l-7.76,28.98C273.7,476.27,273.5,476.42,273.28,476.42z"/>
				</g>
				<g>
					<path class="st6" d="M251.11,559.14c-0.04,0-0.09-0.01-0.13-0.02c-0.27-0.07-0.42-0.35-0.35-0.61l13.3-49.63
						c0.07-0.27,0.35-0.42,0.61-0.35c0.27,0.07,0.42,0.35,0.35,0.61l-13.3,49.63C251.54,558.99,251.33,559.14,251.11,559.14z"/>
				</g>
				<g>
					<path class="st6" d="M234.48,621.21c-0.04,0-0.09-0.01-0.13-0.02c-0.27-0.07-0.42-0.35-0.35-0.61l7.76-28.98
						c0.07-0.27,0.35-0.42,0.61-0.35c0.27,0.07,0.42,0.35,0.35,0.61l-7.76,28.98C234.9,621.06,234.7,621.21,234.48,621.21z"/>
				</g>
			</g>
			<g>
				<g>
					<path class="st6" d="M351.16,185.76c-0.04,0-0.09-0.01-0.13-0.02c-0.27-0.07-0.42-0.35-0.35-0.61l7.76-28.98
						c0.07-0.27,0.34-0.42,0.61-0.35c0.27,0.07,0.42,0.35,0.35,0.61l-7.76,28.98C351.58,185.61,351.38,185.76,351.16,185.76z"/>
				</g>
				<g>
					<path class="st6" d="M367.79,123.7c-0.04,0-0.09-0.01-0.13-0.02c-0.27-0.07-0.42-0.35-0.35-0.61l13.3-49.63
						c0.07-0.27,0.35-0.42,0.61-0.35c0.27,0.07,0.42,0.35,0.35,0.61l-13.3,49.63C368.21,123.55,368.01,123.7,367.79,123.7z"/>
				</g>
				<g>
					<path class="st6" d="M389.95,40.97c-0.04,0-0.09-0.01-0.13-0.02c-0.27-0.07-0.42-0.35-0.35-0.61l7.76-28.98
						c0.07-0.27,0.34-0.42,0.61-0.35c0.27,0.07,0.42,0.35,0.35,0.61l-7.76,28.98C390.38,40.83,390.17,40.97,389.95,40.97z"/>
				</g>
			</g>
		</g>
	</g>
</g>
<g id="Guide">
</g>
</svg>
