<?xml version="1.0" encoding="utf-8"?>
<!-- Generator: Adobe Illustrator 26.1.0, SVG Export Plug-In . SVG Version: 6.00 Build 0)  -->
<svg version="1.1" xmlns="http://www.w3.org/2000/svg" xmlns:xlink="http://www.w3.org/1999/xlink" x="0px" y="0px"
	 viewBox="0 0 478.38 606.26" style="enable-background:new 0 0 478.38 606.26;" xml:space="preserve">
<style type="text/css">
	.st0{fill:#FFFFFF;stroke:#000000;stroke-miterlimit:10;}
	.st1{fill:#BFA071;stroke:#554B4E;stroke-width:1.5;stroke-linecap:round;stroke-linejoin:round;stroke-miterlimit:10;}
	.st2{fill:#BFA071;stroke:#554B4E;stroke-linecap:round;stroke-linejoin:round;stroke-miterlimit:10;}
	.st3{fill:#F8F4E9;stroke:#554B4E;stroke-width:1.5;stroke-linecap:round;stroke-linejoin:round;stroke-miterlimit:10;}
	.st4{fill:#F2DED6;stroke:#554B4E;stroke-width:1.5;stroke-linecap:round;stroke-linejoin:round;stroke-miterlimit:10;}
	.st5{fill:none;stroke:#554B4E;stroke-linecap:round;stroke-linejoin:round;stroke-miterlimit:10;}
	.st6{fill:#BFA071;}
	.st7{fill:#554B4E;}
	.st8{fill:#F8F4E9;}
	.st9{fill:none;stroke:#554B4E;stroke-width:1.5;stroke-linecap:round;stroke-linejoin:round;stroke-miterlimit:10;}
	.st10{fill:#F8F4E9;stroke:#554B4E;stroke-linecap:round;stroke-linejoin:round;stroke-miterlimit:10;}
	.st11{fill:#F2DED6;stroke:#554B4E;stroke-linecap:round;stroke-linejoin:round;stroke-miterlimit:10;}
	.st12{clip-path:url(#SVGID_00000102541128332391373990000003410322502881203620_);}
	.st13{fill:none;stroke:#BFA071;stroke-width:1.5;stroke-linecap:round;stroke-linejoin:round;}
	.st14{fill:none;stroke:#BFA071;stroke-width:1.5;stroke-linecap:round;stroke-linejoin:round;stroke-dasharray:68.8403,19.6687;}
	.st15{fill:none;stroke:#BFA071;stroke-width:1.5;stroke-linecap:round;stroke-linejoin:round;stroke-dasharray:71.4455,20.413;}
	.st16{fill:none;stroke:#BFA071;stroke-width:1.5;stroke-linecap:round;stroke-linejoin:round;stroke-dasharray:69.5884,19.8824;}
	.st17{fill:none;stroke:#BFA071;stroke-width:1.5;stroke-linecap:round;stroke-linejoin:round;stroke-dasharray:61.3524,17.5292;}
	.st18{fill:none;stroke:#BFA071;stroke-width:1.5;stroke-linecap:round;stroke-linejoin:round;stroke-dasharray:63.9932,18.2838;}
	.st19{fill:none;stroke:#BFA071;stroke-width:1.5;stroke-linecap:round;stroke-linejoin:round;stroke-dasharray:72.7778,20.7937;}
	.st20{fill:none;stroke:#BFA071;stroke-width:1.5;stroke-linecap:round;stroke-linejoin:round;stroke-dasharray:77.193,22.0551;}
	.st21{fill:none;stroke:#BFA071;stroke-width:1.5;stroke-linecap:round;stroke-linejoin:round;stroke-dasharray:75.3802,21.5372;}
	.st22{fill:none;stroke:#BFA071;stroke-width:1.5;stroke-linecap:round;stroke-linejoin:round;stroke-dasharray:73.6885,21.0538;}
	.st23{fill:none;stroke:#BFA071;stroke-width:1.5;stroke-linecap:round;stroke-linejoin:round;stroke-dasharray:63.3162,18.0903;}
	.st24{fill:none;stroke:#BFA071;stroke-width:1.5;stroke-linecap:round;stroke-linejoin:round;stroke-dasharray:62.0513,17.7289;}
	.st25{fill:none;stroke:#BFA071;stroke-width:1.5;stroke-linecap:round;stroke-linejoin:round;stroke-dasharray:68.9157,19.6902;}
	.st26{fill:none;stroke:#554B4E;stroke-width:1.5;stroke-linecap:round;stroke-linejoin:round;}
	.st27{fill:none;stroke:#554B4E;stroke-width:1.5;stroke-linecap:round;stroke-linejoin:round;stroke-dasharray:15.0532,10.0355;}
	.st28{fill:none;stroke:#554B4E;stroke-width:1.5;stroke-linecap:round;stroke-linejoin:round;stroke-dasharray:14.9985,9.999;}
	.st29{fill:none;stroke:#554B4E;stroke-width:1.5;stroke-linecap:round;stroke-linejoin:round;stroke-dasharray:14.8977,9.9318;}
	.st30{fill:none;stroke:#554B4E;stroke-width:1.5;stroke-linecap:round;stroke-linejoin:round;stroke-dasharray:15.4213,10.2808;}
	.st31{fill:none;stroke:#554B4E;stroke-width:1.5;stroke-linecap:round;stroke-linejoin:round;stroke-dasharray:15.2271,10.1514;}
	.st32{fill:none;stroke:#554B4E;stroke-width:1.5;stroke-linecap:round;stroke-linejoin:round;stroke-dasharray:15.021,10.014;}
	.st33{fill:none;stroke:#554B4E;stroke-width:1.5;stroke-linecap:round;stroke-linejoin:round;stroke-dasharray:15.0727,10.0485;}
	.st34{fill:none;stroke:#554B4E;stroke-width:1.5;stroke-linecap:round;stroke-linejoin:round;stroke-dasharray:14.6942,9.7961;}
	.st35{fill:none;stroke:#554B4E;stroke-width:1.5;stroke-linecap:round;stroke-linejoin:round;stroke-dasharray:14.7469,9.8312;}
	.st36{fill:none;stroke:#554B4E;stroke-width:1.5;stroke-linecap:round;stroke-linejoin:round;stroke-dasharray:15.0819,10.0546;}
	.st37{fill:none;stroke:#554B4E;stroke-width:1.5;stroke-linecap:round;stroke-linejoin:round;stroke-dasharray:15.003,10.002;}
	.st38{fill:#F2DED6;}
	.st39{fill:#F2DED6;stroke:#554B4E;stroke-width:1.5;stroke-linecap:round;stroke-miterlimit:10;}
	.st40{fill:none;stroke:#554B4E;stroke-width:1.5;stroke-linecap:round;stroke-miterlimit:10;}
	.st41{fill:none;stroke:#554B4E;stroke-linecap:round;stroke-miterlimit:10;}
	.st42{fill:none;stroke:#BFA071;stroke-linecap:round;stroke-linejoin:round;}
	.st43{fill:none;stroke:#BFA071;stroke-linecap:round;stroke-linejoin:round;stroke-dasharray:14.9905,14.9905;}
	.st44{fill:none;stroke:#BFA071;stroke-linecap:round;stroke-linejoin:round;stroke-dasharray:51.384,34.256;}
	.st45{fill:none;stroke:#554B4E;stroke-miterlimit:10;}
	.st46{clip-path:url(#SVGID_00000005239996393857130990000010256829974359939518_);}
	.st47{fill:none;stroke:#554B4E;stroke-width:1.5;stroke-linecap:round;stroke-linejoin:round;stroke-dasharray:68.8403,19.6687;}
	.st48{fill:none;stroke:#554B4E;stroke-width:1.5;stroke-linecap:round;stroke-linejoin:round;stroke-dasharray:71.4455,20.413;}
	.st49{fill:none;stroke:#554B4E;stroke-width:1.5;stroke-linecap:round;stroke-linejoin:round;stroke-dasharray:69.5884,19.8824;}
	.st50{fill:none;stroke:#554B4E;stroke-width:1.5;stroke-linecap:round;stroke-linejoin:round;stroke-dasharray:61.3524,17.5292;}
	.st51{fill:none;stroke:#554B4E;stroke-width:1.5;stroke-linecap:round;stroke-linejoin:round;stroke-dasharray:63.9932,18.2838;}
	.st52{fill:none;stroke:#554B4E;stroke-width:1.5;stroke-linecap:round;stroke-linejoin:round;stroke-dasharray:72.7778,20.7937;}
	.st53{fill:none;stroke:#554B4E;stroke-width:1.5;stroke-linecap:round;stroke-linejoin:round;stroke-dasharray:77.193,22.0551;}
	.st54{fill:none;stroke:#554B4E;stroke-width:1.5;stroke-linecap:round;stroke-linejoin:round;stroke-dasharray:75.3802,21.5372;}
	.st55{fill:none;stroke:#554B4E;stroke-width:1.5;stroke-linecap:round;stroke-linejoin:round;stroke-dasharray:73.6885,21.0538;}
	.st56{fill:none;stroke:#554B4E;stroke-width:1.5;stroke-linecap:round;stroke-linejoin:round;stroke-dasharray:63.3162,18.0903;}
	.st57{fill:none;stroke:#554B4E;stroke-width:1.5;stroke-linecap:round;stroke-linejoin:round;stroke-dasharray:62.0513,17.7289;}
	.st58{fill:none;stroke:#554B4E;stroke-width:1.5;stroke-linecap:round;stroke-linejoin:round;stroke-dasharray:68.9157,19.6902;}
	.st59{fill:none;stroke:#554B4E;stroke-linecap:round;stroke-linejoin:round;}
	.st60{fill:none;stroke:#554B4E;stroke-linecap:round;stroke-linejoin:round;stroke-dasharray:14.9905,14.9905;}
	.st61{fill:none;stroke:#554B4E;stroke-linecap:round;stroke-linejoin:round;stroke-dasharray:51.384,34.256;}
	.st62{fill:#95608F;}
	.st63{fill:#ED859E;}
	.st64{fill:#FAC87D;}
	.st65{opacity:0.1;}
	.st66{fill:#B5846F;}
	.st67{fill:#B5846F;stroke:#B5846F;stroke-width:5;stroke-linecap:round;stroke-linejoin:round;stroke-miterlimit:10;}
	.st68{fill:#EAD9EB;}
	.st69{fill:#FFFFFF;}
	.st70{fill:url(#SVGID_00000013158361288948192840000010796377065438894237_);}
	.st71{opacity:0.8;fill:#FFFFFF;}
	.st72{fill:url(#SVGID_00000050658764366143649510000003473780851210433464_);}
	.st73{fill:url(#SVGID_00000059995682909796472260000003877360344169988243_);}
	.st74{opacity:0.8;}
	.st75{opacity:0.6;}
	.st76{opacity:0.2;}
	.st77{fill:none;}
	.st78{fill:url(#SVGID_00000172405844029146421000000013754002778272233895_);}
	.st79{fill:url(#SVGID_00000098933504229461126240000011162992154353378995_);}
	.st80{clip-path:url(#SVGID_00000183948996968436824710000016378375909417308081_);fill:#FFFFFF;}
	.st81{clip-path:url(#SVGID_00000160886789022704484830000001472658710045180043_);fill:#FFFFFF;}
	.st82{clip-path:url(#SVGID_00000149350815101931338770000014774739471347971224_);fill:#FFFFFF;}
	.st83{clip-path:url(#SVGID_00000032613335923225396670000011463339125778669701_);fill:#FFFFFF;}
	.st84{clip-path:url(#SVGID_00000111162936984967525570000006588113149542727356_);fill:#FFFFFF;}
</style>
<g id="Bg">
</g>
<g id="Graphic">
	<g id="Candle_00000104683760488271169790000016011177734197123716_">
		<g id="Color_00000105393646200672843110000005622007721588036761_">
			<g id="Pink_00000034091373573486741580000011246228285768940935_">
				<g>
					<path class="st38" d="M313.23,540.74c5.92,5.65,10.45,13.88,10.54,22.32c0.09,9.06-5.83,14.76-12.02,20.36
						c-12.4,11.21-28.76,16.81-44.82,19.62c-16.33,2.86-33.3,3.23-49.73,1.16c-17.02-2.14-34.24-5.49-48.24-15.94
						c-6.11-4.56-13.77-10.02-15.43-18.34c-1.69-8.49,1.76-18.34,7.22-24.73c1.58-1.84,3.32-3.54,5.16-5.1L313.23,540.74z"/>
					<path class="st7" d="M238.13,606.26c-7.06,0-14.12-0.43-21.04-1.31c-16.9-2.13-34.49-5.55-48.59-16.08l-0.62-0.46
						c-5.99-4.46-13.44-10.01-15.1-18.34c-1.61-8.12,1.35-18.31,7.39-25.36c1.51-1.76,3.27-3.51,5.24-5.19l0.21-0.18l0.28,0
						l147.63,0.64l0.22,0.21c6.66,6.36,10.69,14.9,10.77,22.86c0.1,9.75-6.76,15.95-12.27,20.93c-10.83,9.79-26.04,16.45-45.2,19.8
						C257.65,605.43,247.89,606.26,238.13,606.26z M166.18,540.86c-1.82,1.57-3.46,3.2-4.86,4.84c-5.75,6.72-8.58,16.4-7.06,24.09
						c1.54,7.76,8.74,13.12,14.53,17.43l0.62,0.46c13.83,10.32,31.19,13.69,47.89,15.79c16.31,2.05,33.43,1.66,49.51-1.16
						c18.88-3.3,33.83-9.84,44.45-19.44c6.72-6.08,11.86-11.4,11.78-19.8c-0.08-7.47-3.85-15.52-10.09-21.58L166.18,540.86z"/>
				</g>
				<g>
					<path class="st38" d="M260.64,249.47c2.62-7.02,6.55-15.63,1.94-22.6c-0.82-1.2-1.93-2.41-2.38-3.73
						c-13.6,3.33-27.77,1.17-42.02-0.03c-0.44,1.33-1.56,2.55-2.38,3.76c-4.61,6.97-0.68,15.58,1.94,22.6
						c5.32,13.94,2.6,21.39-0.06,27.16c14.49,2.93,29.79,5.14,42.94-0.17C257.99,270.72,255.37,263.27,260.64,249.47z"/>
				</g>
				<g>
					<path class="st38" d="M261.04,448.01c-0.12-1.65-0.96-3.51-2.93-5.73c-0.09-0.15-0.17-0.32-0.26-0.47
						c-12.57,2.3-25.61,1.93-38.19,1.21c-1.49,1.87-2.17,3.48-2.3,4.91C231.92,448.77,246.48,449.42,261.04,448.01z"/>
				</g>
				<g>
					<path class="st38" d="M262.09,494.67c-0.14-0.1-0.27-0.21-0.42-0.3c3.26-8.11,4.69-20.84-1.36-27.18
						c-14.19,2.65-28.77,1.46-42.8,0.63c-5.4,6.52-3.96,18.69-0.8,26.54c-0.02,0.01-0.04,0.03-0.06,0.04
						C231.65,498.55,247.62,499.73,262.09,494.67z"/>
				</g>
				<g>
					<path class="st38" d="M225.71,306.69c0.11,1.71,0.28,3.38,0.41,4.98c8.52,0,17.53-0.05,26.18-0.57
						c0.13-1.49,0.27-3.04,0.37-4.62C243.69,307.27,234.7,306.79,225.71,306.69z"/>
				</g>
			</g>
			<g id="Beige_00000165231778985346038200000008648754723030433179_">
				<g>
					<path class="st8" d="M60.84,214.98l-15.4,0c-61.66,0.46-58.21,7.34,2.28,7.53l17.06-0.08
						C122.32,221.63,116.44,215.3,60.84,214.98z"/>
				</g>
				<g>
					<path class="st8" d="M432.94,214.97l-15.4,0c-55.57,0.33-61.51,6.65-3.94,7.45l17.06,0.08
						C491.12,222.31,494.62,215.44,432.94,214.97z"/>
				</g>
				<g>
					<path class="st8" d="M255.87,325.77c-10.97,3.74-23.43,4.2-34.84,0.85c-1.28,0.61-2.86,1.07-4.77,1.38
						c-5.96,5.78-5.94,14.9-4.53,24.13c4.1,7.85,7.91,16.76,10.82,26.1c10.61,2.28,22.34,3.64,33.13,0.48
						c3.32-10.82,7.86-21.07,12.69-29.79c-0.23-7.59-2.26-14.98-7.33-21.1C258.85,327.35,257.16,326.66,255.87,325.77z"/>
				</g>
				<g>
					<path class="st8" d="M248.18,140.48l-15.4,0c-57.58,0.34-61.07,6.87-2.29,7.48l17.4,0.03
						C307.13,147.59,307.59,140.92,248.18,140.48z"/>
				</g>
			</g>
			<g id="Brown_00000112608196640820133220000007384336975516303257_">
				<g>
					<path class="st6" d="M260.31,467.19c-1.72-1.8-4.05-3.09-7.11-3.6c-0.76-6.55,8.27-9.62,7.84-15.58
						c-14.56,1.41-29.12,0.76-43.68-0.08c-0.55,6.04,8.6,9.04,7.82,15.66c-3.41,0.57-5.9,2.1-7.67,4.24
						C231.54,468.65,246.12,469.83,260.31,467.19z"/>
				</g>
				<g>
					<path class="st6" d="M271.36,516.28c-4.92-4.57-2.93-17.29-9.27-21.62c-14.47,5.07-30.44,3.88-45.44-0.26
						c-2.44,1.51-4.12,4.67-4.82,7.5c-2.06,25.39-28.35,22.2-45.96,38.21c0,0-2.62,12.47,12.68,10.61c0,0-4.88,17.06,14,12.94
						c0,0,5.86,15.2,21.48,6.2c0,0,11.39,14.11,27.02,2.89c0,0,17.25,9.11,26.37-3.22c0,0,17.25,5.92,22.79-5.87
						c1.06,0.04,13.56,0.04,10.74-12.94c12.29,2.81,12.29-9.99,12.29-9.99C300.98,528.82,283.34,526.29,271.36,516.28z"/>
				</g>
				<g>
					<path class="st6" d="M263.11,288.93c1.63-4.58-0.44-8.01-2.49-12.47c-13.15,5.3-28.45,3.1-42.94,0.17
						c-2.02,4.38-4.02,7.79-2.41,12.31c5.62,4.62,10.91,8.41,10.39,16.85c0.02,0.31,0.04,0.61,0.06,0.92
						c8.99,0.09,17.98,0.58,26.97-0.21c0.02-0.24,0.03-0.47,0.04-0.71C252.2,297.34,257.49,293.55,263.11,288.93z"/>
				</g>
				<g>
					<path class="st6" d="M259.98,126.31c-2.38-5.73-5.24-6.43-1.9-12.22c2.93-5.08,0.89-13.05,0.77-18.44
						c-0.14-6,1.69-12.17-0.56-17.98c-3.53-9.15-20.78-5.44-28.53-5.42c-15.63,0.57-7.27,20.38-8.71,30.27
						c-1.19,12.18,6.3,12.85,1.01,25.39c0.12,6.8,11.11,4.73,10.72,12.59l15.4,0C247.73,128.58,263.6,135.87,259.98,126.31z"/>
				</g>
				<g>
					<path class="st6" d="M72.64,200.8c-2.38-5.73-5.24-6.43-1.9-12.22c2.93-5.08,0.89-13.05,0.77-18.44
						c-0.14-6,1.69-12.17-0.56-17.98c-3.53-9.15-20.78-5.44-28.53-5.42c-15.63,0.57-7.27,20.38-8.71,30.27
						c-1.19,12.18,6.3,12.85,1.01,25.39c0.12,6.8,11.11,4.73,10.72,12.59l15.4,0C60.4,203.07,76.26,210.36,72.64,200.8z"/>
				</g>
				<g>
					<path class="st6" d="M255.87,325.77c-4.37-3.03-4.11-8.38-3.57-14.66c-8.65,0.52-17.67,0.57-26.18,0.57
						c0.56,6.66,0.65,12.21-5.09,14.94C232.44,329.97,244.91,329.51,255.87,325.77z"/>
				</g>
				<g>
					<path class="st6" d="M222.55,378.22c6.76,21.74,8.6,45.78-2.28,64.06c-0.22,0.25-0.42,0.49-0.61,0.74
						c12.58,0.73,25.62,1.1,38.19-1.21c-10.49-18.07-8.74-41.67-2.17-63.11C244.88,381.86,233.16,380.51,222.55,378.22z"/>
				</g>
				<g>
					<path class="st6" d="M443.66,202.39c-5.29-12.51,2.19-13.23,1.01-25.39c-1.45-9.89,6.92-29.71-8.71-30.27
						c-7.75-0.01-25-3.72-28.53,5.42c-2.25,5.82-0.42,11.98-0.56,17.98c-0.13,5.4-2.16,13.37,0.76,18.44
						c3.34,5.8,0.48,6.49-1.9,12.22c-3.58,9.54,12.33,2.35,11.8,14.18l15.4,0C432.55,207.12,443.54,209.18,443.66,202.39z"/>
				</g>
				<g>
					<path class="st6" d="M441.37,263.17c-1.79-2.58-5.69-4.22-7.13-7.29c-2.17-4.63,2.12-9.89,1.72-15.01
						c-0.44-5.91-9.13-12.69-5.31-18.37l-17.06-0.08c10.12,6.58-3.25,13.02,0.23,20.85c7.62,11.43,6.31,40.32-12.3,35.54
						c-2.07-0.2-4.2,0.44-4.22,2.95c4.65,15.1-13.59,24.47-26.26,22.17c-21.99-3.71-43.86-27.93-36.61-51.54
						c0.05,0.04,0.1,0.09,0.14,0.14c0.01-0.05,0.01-0.09,0.02-0.14c3.16,6.67,10.39,4.61,16.06,4.13c4.07,0.38,8.22,4.79,12.38,3.47
						c-13.68-17.25-3.46-39.66-16.3-56.36c-14.99-20.1-71.74-23.48-63.31,12.59c-8.24-2.22-15.48-9.31-24.25-7.82
						c-0.82-1.32-2.78-3.32-3.6-4.64c0.49-4.16-0.28-8.48-2.17-12.2c-1.94-6.34,1.27-8.9-4.74-13.88
						c-1.65-7.5-0.26-20.32-0.78-29.71l-17.4-0.03c-0.51,9.35,0.88,22.24-0.78,29.73c-6.01,4.98-2.8,7.52-4.74,13.88
						c-1.89,3.72-2.66,8.03-2.17,12.2c-0.82,1.32-2.78,3.32-3.6,4.64c-8.77-1.49-16.01,5.6-24.25,7.82
						c8.43-36.07-48.33-32.69-63.31-12.59c-12.85,16.73-2.61,39.09-16.3,56.36c4.15,1.32,8.31-3.09,12.38-3.47
						c5.68,0.48,12.9,2.54,16.06-4.13c0.01,0.04,0.01,0.09,0.02,0.14c0.05-0.05,0.09-0.1,0.14-0.14
						c7.25,23.61-14.62,47.83-36.61,51.54c-12.67,2.29-30.91-7.08-26.25-22.17c-0.02-2.52-2.16-3.16-4.22-2.95
						c-18.61,4.79-19.93-24.12-12.3-35.54c3.49-7.84-9.89-14.22,0.23-20.85l-17.06,0.08c3.82,5.67-4.87,12.47-5.31,18.37
						c-0.4,5.12,3.9,10.38,1.72,15.01c-1.44,3.06-5.33,4.7-7.13,7.29c-0.65,0.93-0.17,2.26,0.91,2.53c1.5,0.38,3.41,1.24,3.75,1.52
						c22.1,37.16,53.98,70.64,91.8,30.06c-0.06,0.09-0.1,0.18-0.14,0.27c-2.26,4.41,7.82,4.74,9.52,5.92
						c4.59,4.39,6.98,10.85,10.65,16.04c1.17,1.88,4.48,5.25,4.05,7.59c-0.42,2.27-3.14,3-3.97,4.98c-0.79,1.91,0.69,4,2.65,3.24
						c12.53-3.02,22.48,1.07,33.45,5.14c1.32,0.49,2.65,0.98,4,1.45c4.18,0.32,12.79-2.57,14.48,3.72c1.21,2.06,2.41,4.24,3.58,6.48
						c-1.4-9.23-1.43-18.34,4.53-24.13c-0.48,0.08-0.96,0.15-1.48,0.21c2.38-2.99,0.24-6.66-3.35-4.46
						c-3.14,3.34-7.25,3.82-10.68,0.36c-6.35-3.56-10.85-21.62-18.18-9.39c-0.01-0.02-0.03-0.03-0.04-0.05
						c-1.67-1.77-3.02-3.99-4.89-5.5c-1.36-0.24-1.72,1.1-1.53,2.28c0.14,0.35,0.27,0.71,0.37,1.07c-0.17-0.3-0.3-0.68-0.37-1.07
						c-1.06-2.6-3.31-4.68-5.97-5.43c-0.21,1.04-0.41,2.08-0.62,3.12c-1.31-1.99-4.48-9.22-5.86-3.41
						c-9.26-3.75-7.93-18.06-5.45-26.03c2.96-9.11,16.05-11.56,19.87-1.94c2.97-1.94,2.29-8.68,0.57-11.37
						c-4.38-6.76-20.76-8.45-24.55-0.62c-0.03,0.06-0.07,0.12-0.09,0.18c0.92-8.69-2.42-20.44-10.3-24.85
						c3.89-0.24,1.51-4.98-0.77-6.19c-6.63-5.96-7.06-17.12-2.42-24.8c7.85-14.2,40.39-22.87,43.92-1.39
						c-5.32-2.65-10.2,3.3-5.74,7.61c-2.4-1.44-6.74-7.3-9.33-5.75c1.97,12.03,15.1,19.93,26.32,15.86
						c9-2.91,15.83-12.81,25.41-12.32c-3.73,0.13-4.58,4.53-2.77,7.24c0.14,0.61,0.06,1.19-0.13,1.76
						c14.24,1.2,28.41,3.35,42.02,0.03c-0.19-0.57-0.28-1.16-0.14-1.78c1.8-2.71,0.95-7.11-2.77-7.24
						c9.58-0.49,16.41,9.41,25.41,12.32c11.23,4.08,24.36-3.83,26.32-15.86c-2.59-1.56-6.93,4.31-9.33,5.75
						c4.46-4.31-0.42-10.27-5.74-7.61c3.52-21.49,36.06-12.82,43.92,1.39c4.64,7.68,4.21,18.83-2.42,24.8
						c-2.28,1.22-4.67,5.95-0.77,6.19c-7.88,4.41-11.22,16.16-10.3,24.85c-3.62-8.04-20.23-6.37-24.64,0.44
						c-1.71,2.69-2.39,9.44,0.57,11.37c3.82-9.62,16.9-7.17,19.87,1.94c2.48,7.97,3.81,22.29-5.45,26.03
						c-1.38-5.82-4.55,1.42-5.86,3.41c-0.21-1.04-0.41-2.08-0.62-3.12c-2.66,0.75-4.91,2.84-5.97,5.43
						c-0.06,0.4-0.19,0.78-0.37,1.07c0.1-0.37,0.22-0.72,0.37-1.07c0.19-1.18-0.18-2.52-1.53-2.28c-1.89,1.51-3.25,3.76-4.94,5.54
						c-0.09-0.15-0.18-0.28-0.27-0.43c-7.16-11.33-11.63,6.31-17.9,9.82c-3.43,3.46-7.54,2.98-10.68-0.36
						c-3.59-2.19-5.73,1.48-3.35,4.46c-0.92-0.1-1.77-0.24-2.55-0.4c5.07,6.12,7.1,13.51,7.33,21.1c0.62-1.11,1.23-2.21,1.86-3.27
						c1.7-6.29,10.3-3.4,14.48-3.72c0.98-0.35,1.95-0.7,2.91-1.05c11.41-4.2,21.59-8.66,34.54-5.54c1.96,0.76,3.44-1.33,2.65-3.24
						c-0.83-1.98-3.55-2.71-3.97-4.98c-0.44-2.35,2.87-5.71,4.05-7.59c3.68-5.19,6.06-11.65,10.65-16.04
						c1.73-1.2,12.19-1.51,9.37-6.19c37.81,40.58,69.71,7.11,91.8-30.06c0.34-0.28,2.25-1.14,3.75-1.52
						C441.55,265.42,442.02,264.1,441.37,263.17z M204.03,331.31c2.09,0.6,6.01,0.97,6.87,3.36c0.34,0.94-0.47,5.36-2.11,4.25
						c-2.8-1.91-5.81-4.01-6.88-7.4C202.41,330.94,203.3,331.1,204.03,331.31z M160.59,312.83c43.67,14.64-1.76,25.32-6.68-4.25
						C155.26,311.06,158.15,311.77,160.59,312.83z M269.59,338.91c-1.64,1.11-2.45-3.3-2.11-4.25c0.86-2.39,4.78-2.76,6.87-3.36
						c0.72-0.21,1.62-0.37,2.12,0.2C275.4,334.91,272.39,337,269.59,338.91z M317.79,312.83c2.44-1.06,5.33-1.77,6.68-4.25
						C319.55,338.16,274.12,327.48,317.79,312.83z"/>
				</g>
			</g>
		</g>
		<g id="Stroke_00000172432776199462938460000008444945093695828133_">
			<path class="st7" d="M228.96,577.82c-7.94,0-13.55-5.35-15.09-7c-4.87,2.68-9.33,3.33-13.25,1.94c-5.13-1.82-7.74-6.56-8.52-8.23
				c-5.81,1.16-10,0.42-12.46-2.21c-3.09-3.29-2.49-8.51-2.05-10.74c-4.73,0.39-8.21-0.58-10.35-2.92c-3.16-3.44-2.14-8.49-2.1-8.7
				l0.05-0.24l0.18-0.16c6.62-6.02,14.27-9.29,21.68-12.45c12.22-5.22,22.77-9.73,24.04-25.26l0.02-0.12
				c0.64-2.58,2.2-5.85,4.69-7.65c-2.88-7.53-4.05-17.93-0.25-24.7c1.93-3.45,4.94-5.6,8.94-6.42c0.08-2.79-1.84-4.89-3.86-7.11
				c-3.16-3.46-6.74-7.39-0.95-14.01c7.54-12.7,9.51-29.06,5.87-48.63c-3.91-21.01-12.97-38.58-18.02-47.18l-0.08-0.18
				c-1.03-3.82-4.95-3.78-9.95-3.33c-1.42,0.13-2.77,0.25-3.86,0.17l-0.19-0.04c-1.9-0.67-3.75-1.36-5.59-2.04
				c-10.15-3.78-19.73-7.36-31.44-4.53c-1,0.39-2.12,0.17-2.9-0.64c-0.89-0.91-1.13-2.36-0.62-3.62c0.45-1.06,1.29-1.77,2.09-2.45
				c0.88-0.75,1.65-1.39,1.83-2.38c0.26-1.42-1.45-3.68-2.69-5.32c-0.48-0.63-0.94-1.23-1.25-1.74c-1.37-1.93-2.59-4.09-3.77-6.18
				c-1.94-3.44-3.94-6.99-6.72-9.66c-0.41-0.25-1.59-0.52-2.73-0.78c-2.81-0.64-6.32-1.44-7.2-3.51c-0.03-0.08-0.06-0.16-0.09-0.24
				c-12.26,12.5-24.78,18.16-37.25,16.82c-18.01-1.93-35.67-17.83-54-48.61c-0.43-0.25-2.01-0.97-3.37-1.32
				c-0.74-0.19-1.34-0.74-1.61-1.46c-0.28-0.75-0.18-1.58,0.27-2.22c0.84-1.22,2.1-2.23,3.32-3.2c1.48-1.18,3.01-2.41,3.75-3.98
				c1.12-2.4,0.3-5.08-0.58-7.91c-0.69-2.22-1.39-4.51-1.21-6.84c0.19-2.5,1.72-5.1,3.2-7.61c2.12-3.59,4.13-6.99,2.44-9.95
				c-14.24-0.05-26.24-0.48-34.74-1.24C0,220.89,0,219.53,0,218.72c0-0.79,0-2.11,11.73-3.19c7.88-0.73,19.27-1.18,32.96-1.29
				c-0.16-3.06-2.46-4.17-5.11-5.44c-2.6-1.25-5.55-2.68-5.62-6.39l0-0.16l0.06-0.15c2.91-6.9,1.81-10.04,0.54-13.69
				c-1-2.86-2.13-6.09-1.6-11.48c0.4-2.76,0.03-6.31-0.37-10.06c-0.72-6.74-1.46-13.71,2.04-17.74c1.71-1.97,4.32-3.03,7.77-3.16
				c1.55,0,3.52-0.16,5.6-0.32c8.71-0.68,20.64-1.61,23.66,6.22c1.58,4.08,1.23,8.32,0.89,12.41c-0.16,1.92-0.32,3.91-0.28,5.82
				c0.03,1.38,0.19,2.94,0.36,4.59c0.5,4.82,1.06,10.28-1.23,14.25c-2.22,3.86-1.53,5.07,0,7.73c0.6,1.05,1.28,2.24,1.94,3.83
				c0.72,1.9,0.78,3.34,0.2,4.45c-0.86,1.65-2.9,2.15-5.06,2.68c-3.33,0.82-6.77,1.67-6.88,6.58c13.24,0.09,24.45,0.53,32.43,1.27
				c12.04,1.12,12.04,2.45,12.05,3.24c0,1.02-0.81,2.09-10.62,3.06c-7.16,0.71-17.68,1.18-30.44,1.36
				c-5.01,3.38-3.42,6.47-1.41,10.38c1.53,2.98,3.27,6.35,1.63,10.03l-0.06,0.11c-4.86,7.27-6.11,22.76-0.64,30.47
				c2.81,3.96,6.89,5.27,12.13,3.92l0.11-0.02c1.65-0.17,3.05,0.19,3.93,0.99c0.73,0.66,1.1,1.57,1.11,2.71l0,0.12l-0.03,0.11
				c-1.97,6.39,0.54,11.02,2.99,13.79c5,5.64,14.64,8.83,22.42,7.42c12.2-2.06,24.58-10.69,31.56-22c5.39-8.73,7.1-18.28,4.89-27.07
				c-3.17,4.65-8.84,3.97-13.46,3.42c-0.84-0.1-1.67-0.2-2.46-0.27c-1.51,0.16-3.07,0.93-4.72,1.75c-2.54,1.26-5.16,2.56-7.9,1.68
				l-1.03-0.33l0.67-0.85c6.82-8.6,7.59-18.7,8.34-28.47c0.74-9.58,1.5-19.48,7.95-27.88c9.94-13.33,37.53-19.5,53.67-11.99
				c9.45,4.39,13.41,12.88,11.23,23.96c2.52-0.83,5-2.09,7.41-3.31c4.85-2.46,9.86-5.02,15.48-4.24c0.43-0.61,1.02-1.31,1.58-1.99
				c0.59-0.71,1.21-1.44,1.6-2.02c-0.44-4.19,0.36-8.54,2.25-12.29c0.64-2.14,0.68-3.85,0.71-5.36c0.06-2.84,0.11-5.31,4.05-8.65
				c0.94-4.52,0.81-11.1,0.68-17.46c-0.08-3.78-0.16-7.68-0.01-11.12c-13.02-0.15-23.83-0.61-31.29-1.32
				c-11.19-1.08-11.19-2.36-11.19-3.13c0-0.79,0-2.12,12.02-3.24c8.01-0.74,19.34-1.18,32.79-1.27c-0.16-3.06-2.46-4.17-5.11-5.44
				c-2.6-1.25-5.55-2.68-5.62-6.39l0-0.16l0.06-0.15c2.91-6.9,1.81-10.04,0.54-13.69c-1-2.86-2.13-6.09-1.6-11.48
				c0.4-2.76,0.03-6.31-0.37-10.06c-0.72-6.74-1.46-13.71,2.04-17.74c1.71-1.97,4.32-3.03,7.77-3.16c1.55,0,3.52-0.16,5.59-0.32
				c8.71-0.68,20.64-1.61,23.66,6.22c1.58,4.08,1.23,8.32,0.89,12.41c-0.16,1.92-0.32,3.91-0.28,5.82c0.03,1.38,0.19,2.94,0.36,4.59
				c0.5,4.82,1.06,10.28-1.23,14.25c-2.22,3.86-1.53,5.07,0,7.73c0.6,1.05,1.28,2.24,1.94,3.83c0.72,1.9,0.78,3.34,0.2,4.45
				c-0.87,1.65-2.9,2.15-5.06,2.68c-3.33,0.82-6.77,1.67-6.89,6.59c13.48,0.11,24.74,0.56,32.61,1.29
				c11.75,1.1,11.75,2.42,11.75,3.2c0,0.79,0,2.11-11.86,3.21c-7.92,0.74-19.23,1.18-32.74,1.28c0.15,3.45,0.07,7.35-0.01,11.13
				c-0.13,6.34-0.26,12.9,0.68,17.42c3.94,3.34,3.99,5.81,4.05,8.66c0.03,1.51,0.07,3.22,0.71,5.35c1.89,3.75,2.69,8.1,2.25,12.29
				c0.4,0.58,1.01,1.31,1.6,2.02c0.57,0.68,1.15,1.37,1.58,1.99c5.62-0.77,10.63,1.78,15.48,4.24c2.41,1.22,4.89,2.48,7.41,3.31
				c-2.18-11.09,1.78-19.57,11.23-23.97c16.14-7.5,43.73-1.33,53.68,12.01c6.44,8.38,7.21,18.29,7.94,27.88
				c0.75,9.77,1.53,19.88,8.34,28.47l0.67,0.85l-1.04,0.33c-2.74,0.88-5.36-0.43-7.9-1.68c-1.65-0.82-3.21-1.59-4.71-1.75
				c-0.79,0.07-1.62,0.17-2.45,0.27c-4.63,0.55-10.3,1.24-13.48-3.42c-2.21,8.79-0.5,18.33,4.89,27.06
				c6.98,11.31,19.37,19.95,31.56,22.01c7.78,1.41,17.43-1.78,22.43-7.43c2.45-2.76,4.96-7.4,2.98-13.79l-0.03-0.11l0-0.12
				c0.01-1.14,0.38-2.05,1.11-2.7c0.89-0.8,2.29-1.15,3.93-0.99l0.11,0.02c5.25,1.35,9.33,0.03,12.13-3.92
				c5.46-7.7,4.21-23.19-0.64-30.47l-0.06-0.11c-1.63-3.67,0.1-7.05,1.63-10.03c2.01-3.91,3.6-7.01-1.41-10.37
				c-12.76-0.18-23.28-0.65-30.44-1.36c-9.8-0.97-10.62-2.05-10.62-3.06c0-0.79,0.01-2.12,12.05-3.24
				c7.99-0.74,19.2-1.18,32.44-1.27c-0.09-4.87-3.52-5.73-6.84-6.56c-2.17-0.54-4.23-1.06-5.1-2.72c-0.58-1.11-0.52-2.55,0.17-4.42
				c0.67-1.62,1.35-2.8,1.95-3.85c1.53-2.66,2.22-3.87,0-7.73c-2.29-3.96-1.72-9.42-1.23-14.24c0.17-1.65,0.33-3.21,0.36-4.59
				c0.04-1.92-0.12-3.9-0.28-5.82c-0.34-4.1-0.69-8.33,0.89-12.41c3.02-7.83,14.95-6.9,23.66-6.22c2.08,0.16,4.04,0.32,5.57,0.32
				c3.47,0.12,6.08,1.19,7.79,3.16c3.49,4.03,2.75,10.99,2.04,17.73c-0.4,3.75-0.77,7.29-0.38,10.02c0.53,5.41-0.6,8.65-1.6,11.51
				c-1.27,3.65-2.37,6.81,0.54,13.69l0.06,0.15l0,0.16c-0.07,3.71-3.02,5.13-5.62,6.39c-2.64,1.27-4.95,2.38-5.11,5.44
				c13.69,0.12,25.08,0.56,32.96,1.29c11.74,1.09,11.73,2.41,11.73,3.19c0,0.81,0,2.17-12.57,3.29c-8.5,0.76-20.5,1.19-34.74,1.24
				c-1.69,2.97,0.32,6.36,2.44,9.95c1.48,2.51,3.02,5.1,3.2,7.61c0.18,2.32-0.53,4.61-1.21,6.83c-0.88,2.84-1.7,5.51-0.58,7.91
				c0.74,1.57,2.27,2.79,3.75,3.98c1.22,0.97,2.47,1.98,3.32,3.2c0.45,0.65,0.55,1.48,0.27,2.22c-0.27,0.73-0.88,1.28-1.61,1.46
				c-1.36,0.35-2.94,1.06-3.37,1.32c-18.32,30.77-35.98,46.67-54,48.6c-12.48,1.33-25-4.32-37.25-16.82
				c-0.03,0.08-0.05,0.16-0.09,0.24c-0.88,2.07-4.38,2.87-7.2,3.51c-1.14,0.26-2.32,0.53-2.73,0.78c-2.78,2.67-4.78,6.23-6.72,9.66
				c-1.18,2.09-2.4,4.26-3.79,6.22c-0.29,0.47-0.75,1.07-1.23,1.7c-1.25,1.64-2.96,3.9-2.69,5.32c0.18,0.99,0.95,1.63,1.83,2.38
				c0.81,0.68,1.65,1.39,2.09,2.45c0.52,1.26,0.27,2.72-0.61,3.63c-0.78,0.8-1.9,1.03-3,0.61c-11.62-2.8-21.2,0.78-31.35,4.56
				c-1.83,0.68-3.69,1.38-5.58,2.04l-0.19,0.04c-1.1,0.08-2.44-0.04-3.86-0.17c-5.01-0.45-8.92-0.49-9.95,3.33l-0.08,0.18
				c-5.05,8.59-14.11,26.15-18.02,47.18c-3.59,19.3-1.56,36.11,5.87,48.63c5.8,6.57,2.22,10.51-0.94,14
				c-2.02,2.23-3.94,4.34-3.87,7.12c4,0.82,7,2.97,8.93,6.42c3.8,6.77,2.63,17.16-0.25,24.69c3.62,2.51,4.63,7.41,5.62,12.16
				c0.8,3.89,1.57,7.56,3.66,9.5c5.39,4.5,11.91,7.44,18.8,10.55c8.04,3.63,16.36,7.38,23.08,13.92l0.23,0.22v0.32
				c0,0.25-0.04,6.14-3.98,9.28c-2.07,1.65-4.8,2.21-8.12,1.66c0.6,3.73-0.03,6.74-1.89,8.94c-2.87,3.41-7.75,3.78-9.33,3.8
				c-5.38,10.54-20.02,6.86-22.97,5.99c-8.64,11.02-23.86,4.51-26.58,3.22C236.69,576.71,232.58,577.82,228.96,577.82z
				 M214.21,568.9l0.4,0.5c0.45,0.55,11.15,13.42,26,2.75l0.38-0.27l0.41,0.22c0.17,0.09,16.79,8.66,25.41-3.01l0.33-0.44l0.52,0.18
				c0.17,0.06,16.68,5.56,21.86-5.48l0.21-0.45l0.5,0.02c0.06,0,5.7,0.2,8.62-3.27c1.72-2.04,2.18-4.99,1.36-8.76l-0.25-1.15
				l1.15,0.26c3.36,0.77,6.03,0.38,7.95-1.15c2.9-2.31,3.34-6.62,3.41-7.8c-6.5-6.22-14.59-9.87-22.42-13.4
				c-6.99-3.15-13.6-6.13-19.18-10.79c-2.47-2.29-3.28-6.2-4.13-10.33c-0.96-4.66-1.96-9.48-5.45-11.52l-0.56-0.33l0.24-0.6
				c2.82-7.01,4.19-17.5,0.56-23.98c-1.79-3.2-4.64-5.14-8.46-5.78l-0.56-0.09l-0.07-0.56c-0.43-3.73,1.93-6.33,4.21-8.85
				c3.27-3.61,5.85-6.45,0.88-12.05l-0.08-0.11c-7.76-13.03-9.81-29.76-6.09-49.73c3.94-21.19,13.04-38.87,18.16-47.58
				c1.49-5.24,7.28-4.72,11.51-4.33c1.32,0.12,2.56,0.23,3.52,0.17c1.86-0.65,3.67-1.33,5.46-2c10.37-3.86,20.16-7.51,32.32-4.58
				c0.63,0.23,1.12,0.14,1.48-0.23c0.39-0.4,0.64-1.18,0.3-2c-0.3-0.72-0.97-1.28-1.68-1.88c-0.96-0.81-2.06-1.74-2.34-3.25
				c-0.39-2.08,1.48-4.53,2.97-6.5c0.46-0.61,0.89-1.18,1.17-1.63c1.37-1.94,2.57-4.07,3.74-6.13c2-3.55,4.07-7.22,7.04-10.06
				l0.09-0.07c0.6-0.42,1.79-0.69,3.3-1.04c2.22-0.5,5.57-1.27,6.15-2.63c0.06-0.15,0.26-0.61-0.29-1.51l-3.73-6.18l4.92,5.28
				c12.44,13.35,25.11,19.43,37.65,18.09c17.54-1.88,34.86-17.59,52.96-48.02l0.17-0.19c0.48-0.4,2.56-1.3,4.04-1.67
				c0.27-0.07,0.48-0.26,0.58-0.54c0.11-0.29,0.07-0.6-0.1-0.84c-0.72-1.04-1.84-1.93-3.02-2.88c-1.61-1.29-3.28-2.63-4.17-4.51
				c-1.37-2.92-0.42-6.01,0.5-8.99c0.64-2.08,1.31-4.24,1.15-6.28c-0.16-2.16-1.6-4.6-3-6.96c-2.34-3.96-4.76-8.05-2.18-11.88
				l0.22-0.33l0.4,0c29.87-0.09,43.59-1.83,45.97-3.04c-2.08-1.04-13.13-2.76-43.7-2.99l-0.71,0l-0.04-0.71
				c-0.23-4.6,3.05-6.18,5.95-7.58c2.49-1.2,4.64-2.24,4.77-4.91c-3.06-7.31-1.82-10.86-0.51-14.62c0.99-2.85,2.02-5.79,1.52-10.84
				c-0.42-2.88-0.04-6.52,0.37-10.37c0.68-6.42,1.39-13.06-1.68-16.59c-1.44-1.67-3.63-2.53-6.69-2.64c-1.56,0-3.55-0.16-5.66-0.32
				c-8.24-0.64-19.52-1.52-22.14,5.27c-1.45,3.76-1.13,7.64-0.79,11.75c0.16,1.96,0.33,3.99,0.28,5.98
				c-0.03,1.44-0.2,3.03-0.37,4.71c-0.47,4.59-1.01,9.8,1.04,13.34c2.66,4.61,1.6,6.45,0,9.23c-0.58,1.01-1.24,2.15-1.86,3.66
				c-0.53,1.42-0.61,2.46-0.24,3.17c0.56,1.07,2.22,1.48,4.14,1.96c3.49,0.87,8.26,2.07,7.96,8.79l-0.03,0.71l-0.71,0
				c-28.11,0.16-41.12,1.85-43.47,3.02c2,0.96,12.08,2.55,39.53,2.93l0.22,0l0.18,0.12c6.36,4.14,4.1,8.55,2.11,12.43
				c-1.5,2.93-2.92,5.69-1.62,8.68c5.11,7.74,6.51,23.75,0.58,32.12c-2.19,3.09-6.34,6.38-13.67,4.52c-1.19-0.1-2.18,0.12-2.73,0.62
				c-0.39,0.35-0.59,0.84-0.61,1.49c1.67,5.54,0.52,10.76-3.33,15.11c-5.41,6.1-15.42,9.43-23.81,7.91
				c-12.59-2.13-25.38-11.04-32.58-22.7c-5.93-9.61-7.57-20.19-4.62-29.81l0.3-0.99l0.14,0.1l0.29-0.95l0.82,1.74
				c2.47,5.22,7.69,4.59,12.75,3.99c0.88-0.11,1.74-0.21,2.57-0.28l0.07-0.01l0.07,0.01c1.81,0.17,3.59,1.05,5.31,1.9
				c1.97,0.98,3.83,1.9,5.67,1.8c-6.41-8.72-7.17-18.67-7.92-28.31c-0.75-9.8-1.47-19.05-7.64-27.08
				c-9.42-12.62-36.55-18.67-51.85-11.55c-6.43,2.99-13.41,9.5-10.14,23.52l0.29,1.22l-1.21-0.33c-3.09-0.83-6.04-2.33-8.9-3.78
				c-4.99-2.54-9.7-4.93-15.04-4.02l-0.5,0.08l-0.27-0.43c-0.38-0.61-1.07-1.44-1.74-2.23c-0.7-0.84-1.43-1.7-1.86-2.41l-0.14-0.22
				l0.03-0.26c0.47-4.01-0.27-8.19-2.09-11.77l-0.05-0.12c-0.72-2.36-0.76-4.2-0.79-5.82c-0.06-2.84-0.1-4.71-3.71-7.7l-0.2-0.17
				l-0.06-0.25c-1.04-4.7-0.9-11.47-0.76-18.02c0.08-4.04,0.17-8.22-0.03-11.81l-0.04-0.79l0.79,0c28.53-0.19,41.35-1.83,43.65-3
				c-2.29-1.17-15.02-2.79-43.36-3l-0.72,0l-0.03-0.72c-0.25-6.77,4.53-7.95,8.02-8.81c1.9-0.47,3.54-0.88,4.1-1.92
				c0.37-0.7,0.28-1.75-0.27-3.2c-0.62-1.48-1.27-2.63-1.85-3.63c-1.6-2.78-2.65-4.62,0-9.23c2.04-3.54,1.51-8.75,1.03-13.34
				c-0.17-1.68-0.34-3.27-0.37-4.71c-0.05-2,0.12-4.02,0.28-5.98c0.34-4.11,0.66-7.99-0.79-11.75c-2.63-6.79-13.91-5.91-22.14-5.27
				c-2.11,0.17-4.1,0.32-5.68,0.32c-3.03,0.11-5.22,0.97-6.66,2.64c-3.07,3.54-2.36,10.17-1.68,16.59c0.41,3.85,0.79,7.48,0.37,10.4
				c-0.49,5.02,0.54,7.96,1.53,10.8c1.31,3.75,2.55,7.29-0.51,14.61c0.12,2.67,2.28,3.71,4.77,4.91c2.9,1.4,6.18,2.98,5.95,7.57
				l-0.04,0.71l-0.71,0c-28.61,0.17-41.49,1.82-43.81,3.01c2.02,1,12.57,2.67,41.52,2.97l0.78,0.01l-0.04,0.78
				c-0.2,3.56-0.11,7.74-0.03,11.79c0.13,6.57,0.27,13.37-0.76,18.07l-0.06,0.25l-0.2,0.16c-3.61,2.99-3.65,4.86-3.71,7.69
				c-0.03,1.62-0.07,3.46-0.8,5.83l-0.05,0.12c-1.82,3.58-2.56,7.76-2.09,11.77l0.03,0.26l-0.14,0.22
				c-0.44,0.71-1.16,1.57-1.86,2.41c-0.67,0.8-1.36,1.62-1.74,2.23l-0.27,0.43l-0.5-0.08c-5.32-0.9-10.04,1.49-15.04,4.03
				c-2.86,1.45-5.81,2.95-8.9,3.78l-1.21,0.33l0.29-1.22c3.28-14.02-3.7-20.53-10.13-23.52c-15.31-7.12-42.44-1.08-51.85,11.54
				c-6.19,8.06-6.9,17.3-7.65,27.09c-0.74,9.63-1.5,19.58-7.92,28.31c1.82,0.11,3.7-0.82,5.67-1.8c1.72-0.85,3.5-1.74,5.31-1.91
				l0.07-0.01l0.07,0.01c0.83,0.07,1.7,0.17,2.59,0.28c5.05,0.61,10.26,1.23,12.74-3.99l0.8-1.69l0.3,0.91l0.16-0.11l0.3,0.98
				c2.95,9.61,1.31,20.2-4.62,29.81c-7.2,11.66-19.99,20.57-32.58,22.69c-8.38,1.51-18.39-1.81-23.8-7.91
				c-3.85-4.34-5-9.56-3.33-15.11c-0.02-0.65-0.23-1.14-0.61-1.49c-0.56-0.51-1.53-0.72-2.73-0.62c-7.33,1.86-11.48-1.43-13.67-4.52
				c-5.94-8.38-4.54-24.39,0.58-32.12c1.3-3-0.12-5.75-1.62-8.67c-2-3.88-4.26-8.27,2.1-12.44l0.18-0.12l0.22,0
				c27.46-0.38,37.54-1.97,39.53-2.93c-2.36-1.17-15.36-2.85-43.47-3.02l-0.72,0L60.09,215c-0.25-6.77,4.53-7.95,8.02-8.81
				c1.9-0.47,3.54-0.88,4.09-1.93c0.37-0.7,0.28-1.75-0.26-3.2c-0.62-1.48-1.27-2.62-1.85-3.63c-1.6-2.78-2.65-4.62,0-9.23
				c2.04-3.54,1.51-8.75,1.03-13.34c-0.17-1.68-0.34-3.27-0.37-4.71c-0.05-2,0.12-4.02,0.28-5.98c0.34-4.11,0.66-7.99-0.79-11.75
				c-2.62-6.79-13.91-5.91-22.14-5.27c-2.11,0.17-4.1,0.32-5.68,0.32c-3.03,0.11-5.22,0.97-6.66,2.64
				c-3.07,3.53-2.36,10.17-1.68,16.59c0.41,3.85,0.79,7.48,0.37,10.4c-0.49,5.02,0.54,7.96,1.53,10.8
				c1.31,3.75,2.55,7.29-0.51,14.61c0.12,2.67,2.28,3.71,4.76,4.91c2.9,1.4,6.18,2.98,5.95,7.57l-0.04,0.71l-0.71,0.01
				c-30.56,0.23-41.62,1.95-43.7,2.99c2.38,1.21,16.1,2.94,45.97,3.04l0.4,0l0.22,0.33c2.58,3.82,0.16,7.92-2.19,11.88
				c-1.4,2.36-2.84,4.8-3,6.96c-0.16,2.04,0.51,4.2,1.15,6.28c0.92,2.98,1.88,6.07,0.5,8.99c-0.88,1.88-2.55,3.22-4.17,4.51
				c-1.18,0.95-2.3,1.85-3.02,2.88c-0.17,0.25-0.21,0.55-0.1,0.84c0.1,0.27,0.31,0.47,0.58,0.54c1.48,0.38,3.56,1.27,4.04,1.67
				l0.17,0.2c18.09,30.43,35.41,46.14,52.95,48.02c12.56,1.35,25.21-4.74,37.66-18.09l4.92-5.27l-3.72,6.17
				c-0.55,0.9-0.35,1.36-0.29,1.51c0.58,1.37,3.93,2.13,6.15,2.63c1.5,0.34,2.69,0.61,3.3,1.04l0.09,0.07
				c2.96,2.83,5.04,6.5,7.04,10.06c1.16,2.06,2.36,4.19,3.71,6.09c0.3,0.49,0.74,1.06,1.2,1.67c1.5,1.97,3.36,4.42,2.97,6.5
				c-0.28,1.52-1.38,2.44-2.34,3.25c-0.71,0.6-1.37,1.16-1.68,1.88c-0.34,0.82-0.09,1.59,0.3,2c0.36,0.37,0.85,0.46,1.38,0.25
				c12.25-2.96,22.04,0.69,32.41,4.55c1.79,0.67,3.61,1.35,5.46,2c0.96,0.06,2.2-0.05,3.52-0.17c4.23-0.38,10.02-0.9,11.51,4.33
				c16.04,27.34,28.8,69.2,12.06,97.31l-0.08,0.11c-4.97,5.65-2.39,8.48,0.88,12.06c2.29,2.5,4.65,5.09,4.21,8.84l-0.07,0.56
				l-0.55,0.09c-3.82,0.64-6.66,2.59-8.46,5.79c-3.63,6.48-2.26,16.97,0.56,23.98l0.24,0.59L217.1,495
				c-2.39,1.45-3.9,4.57-4.53,7.02c-1.36,16.39-12.81,21.28-24.94,26.46c-7.22,3.08-14.68,6.27-21.07,12.01
				c-0.14,0.95-0.52,4.66,1.78,7.16c1.95,2.12,5.35,2.9,10.11,2.33l1.12-0.14l-0.31,1.09c-0.02,0.07-1.88,6.8,1.46,10.36
				c2.16,2.3,6.09,2.85,11.65,1.64l0.63-0.14l0.23,0.6c0.02,0.06,2.39,6.01,7.89,7.95c3.63,1.28,7.84,0.56,12.52-2.13L214.21,568.9z
				 M476.94,218.93L476.94,218.93L476.94,218.93z M269.08,339.84c-0.33,0-0.65-0.11-0.94-0.34c-1.24-0.96-1.71-4.1-1.35-5.09
				c0.83-2.32,3.84-3,6.03-3.5c0.49-0.11,0.95-0.21,1.34-0.33c0.55-0.16,2.01-0.58,2.89,0.43l0.28,0.32l-0.13,0.4
				c-1.16,3.7-4.49,5.97-7.17,7.8l0,0C269.71,339.74,269.39,339.84,269.08,339.84z M269.59,338.91L269.59,338.91L269.59,338.91z
				 M275.46,331.87c-0.21,0-0.5,0.04-0.9,0.16c-0.42,0.12-0.9,0.23-1.42,0.35c-1.96,0.45-4.39,1-4.95,2.55
				c-0.22,0.66,0.38,3.23,0.9,3.42c0,0,0.03-0.01,0.08-0.05c2.45-1.67,5.21-3.56,6.37-6.42
				C275.52,331.87,275.49,331.87,275.46,331.87z M209.3,339.84c-0.31,0-0.63-0.1-0.93-0.31l0,0c-2.68-1.83-6.01-4.1-7.17-7.8
				l-0.13-0.4l0.28-0.32c0.88-1.01,2.34-0.59,2.89-0.43c0.39,0.11,0.85,0.22,1.34,0.33c2.19,0.5,5.19,1.18,6.03,3.5
				c0.36,0.99-0.12,4.13-1.35,5.09C209.95,339.73,209.63,339.84,209.3,339.84z M209.21,338.29c0.07,0.04,0.1,0.05,0.1,0.05
				c0.5-0.18,1.1-2.76,0.88-3.42c-0.56-1.54-2.99-2.1-4.95-2.54c-0.52-0.12-1-0.23-1.42-0.35c-0.42-0.12-0.75-0.17-0.99-0.16
				C204,334.73,206.75,336.62,209.21,338.29L209.21,338.29z M265.3,329.15l-1.79-0.2c-13.4-1.47-12.69-9.49-11.88-18.78
				c0.13-1.44,0.26-2.93,0.34-4.44c-0.51-8.25,4.45-12.31,9.7-16.6l0.79-0.65c1.24-3.71-0.14-6.63-1.88-10.32
				c-2.88-6.12-6.46-13.73-0.65-28.96c0.21-0.56,0.43-1.15,0.66-1.74c2.52-6.61,5.38-14.1,1.35-20.18c-0.21-0.31-0.46-0.63-0.7-0.96
				c-1.11-1.47-2.37-3.14-1.92-5.13l0.11-0.25c0.89-1.34,1.04-3.2,0.36-4.52c-0.35-0.68-1.07-1.51-2.54-1.56l-0.01-1.5
				c5.94-0.3,10.84,3.2,15.6,6.58c3.2,2.28,6.51,4.63,10.08,5.78c5.08,1.84,10.83,1.22,15.8-1.69c4.96-2.91,8.37-7.6,9.44-12.96
				c-1.41-0.12-3.6,1.96-5.26,3.52c-1.03,0.97-2.01,1.88-2.83,2.37l-5.58,3.33l4.68-4.52c2-1.93,1.74-3.98,0.84-5.26
				c-1-1.42-3.23-2.39-5.73-1.14l-1.31,0.65l0.24-1.45c1.19-7.28,5.86-11.98,13.13-13.24c11.37-1.97,27.01,5.02,32.18,14.38
				c5.13,8.49,4,19.8-2.58,25.72l-0.15,0.1c-1.35,0.72-2.66,2.89-2.42,4c0.04,0.18,0.15,0.71,1.33,0.78l2.55,0.16l-2.23,1.25
				c-7.37,4.12-10.83,15.5-9.92,24.11l0.49,4.66l-1.92-4.27c-1.25-2.77-4.45-4.55-8.79-4.88c-6-0.46-12.23,1.88-14.53,5.42
				c-1.46,2.29-1.97,7.51-0.31,9.71c1.85-3.67,5.29-5.77,9.44-5.63c5.11,0.16,9.8,3.7,11.39,8.6c2.35,7.56,4.15,22.9-5.88,26.96
				l-0.81,0.33l-0.2-0.85c-0.36-1.5-0.74-1.64-0.74-1.64c-0.01,0-0.02,0-0.03,0c-0.46,0-1.44,1.31-2.91,3.9
				c-0.31,0.55-0.59,1.04-0.82,1.39l-1.01,1.53l-0.81-4.08c-2.04,0.83-3.79,2.55-4.67,4.66c-0.08,0.46-0.24,0.89-0.44,1.24
				l-2.79,4.77l1.42-5.34c0.09-0.35,0.21-0.71,0.36-1.08c0.07-0.55-0.01-1.06-0.22-1.27c-0.03-0.03-0.1-0.1-0.28-0.1
				c-1.02,0.86-1.88,1.94-2.8,3.09c-0.6,0.76-1.23,1.54-1.9,2.25l-0.68,0.72l-0.51-0.85c-1.5-2.5-2.93-3.79-4.27-3.83
				c-0.02,0-0.04,0-0.07,0c-2.21,0-4.48,3.32-6.67,6.53c-1.89,2.76-3.83,5.62-6.07,6.91c-1.7,1.68-3.69,2.55-5.66,2.53
				c-2.11-0.03-4.17-1.03-5.95-2.9c-1.13-0.66-2.13-0.68-2.7-0.04c-0.61,0.69-0.67,2.09,0.41,3.44L265.3,329.15z M260.77,221.64
				c-0.21,1.27,0.71,2.49,1.68,3.78c0.26,0.34,0.51,0.68,0.75,1.02c4.46,6.73,1.32,14.95-1.2,21.56c-0.22,0.59-0.44,1.16-0.66,1.73
				c-5.59,14.65-2.15,21.94,0.61,27.79c1.84,3.9,3.42,7.27,1.87,11.66l-0.07,0.2l-1.12,0.92c-5.16,4.22-9.62,7.87-9.16,15.44
				c-0.08,1.62-0.22,3.12-0.34,4.57c-0.77,8.79-1.34,15.26,9.05,16.95c-0.62-1.56-0.31-3.07,0.47-3.95c0.85-0.96,2.53-1.52,4.69-0.2
				l0.16,0.13c1.52,1.62,3.23,2.48,4.95,2.51c1.58,0,3.22-0.72,4.65-2.16l0.17-0.13c1.96-1.1,3.84-3.85,5.65-6.5
				c2.55-3.74,4.99-7.26,8.02-7.18c1.72,0.05,3.35,1.26,4.97,3.7c0.4-0.46,0.79-0.95,1.16-1.43c0.97-1.22,1.97-2.48,3.2-3.46
				l0.15-0.12l0.19-0.03c0.89-0.15,1.45,0.18,1.77,0.49c0.09,0.09,0.18,0.2,0.26,0.31c1.32-1.89,3.26-3.33,5.4-3.94l0.78-0.22
				l0.39,1.98c1.48-2.58,2.75-4.49,4.25-4.27c0.93,0.13,1.44,1.01,1.74,1.91c8.14-4.13,6.39-17.88,4.25-24.77
				c-1.4-4.3-5.52-7.42-10.01-7.56c-3.92-0.14-6.96,1.94-8.44,5.67l-0.34,0.85l-0.77-0.5c-3.48-2.27-2.58-9.6-0.79-12.41
				c2.58-3.98,9.41-6.6,15.91-6.11c3.63,0.28,6.58,1.5,8.46,3.44c-0.08-7.98,2.98-17.4,9.42-21.99c-0.65-0.43-0.89-1.03-0.98-1.45
				c-0.42-1.93,1.33-4.6,3.09-5.6c5.91-5.39,6.91-16.04,2.22-23.8c-4.92-8.9-19.79-15.53-30.63-13.65
				c-4.42,0.76-9.9,3.26-11.65,10.7c2.74-0.75,5.11,0.47,6.29,2.13c0.65,0.92,1.09,2.2,0.92,3.59c2.4-2.24,5.08-4.62,7.26-3.31
				l0.44,0.26l-0.08,0.5c-0.99,6.05-4.73,11.38-10.27,14.62c-5.36,3.14-11.57,3.8-17.05,1.82c-3.76-1.22-7.17-3.64-10.46-5.98
				c-3.71-2.63-7.25-5.16-11.2-6.01c0.13,0.18,0.25,0.38,0.35,0.58C262.04,217.5,261.89,219.85,260.77,221.64z M213.08,329.15
				l1.12-1.41c1.07-1.35,1.02-2.75,0.41-3.44c-0.57-0.64-1.57-0.63-2.7,0.04c-1.79,1.87-3.84,2.87-5.96,2.9c-0.03,0-0.06,0-0.09,0
				c-1.97,0-3.9-0.87-5.57-2.53c-2.23-1.3-4.18-4.15-6.07-6.91c-2.19-3.21-4.46-6.53-6.67-6.53c-0.02,0-0.04,0-0.07,0
				c-1.34,0.04-2.77,1.33-4.27,3.83l-0.51,0.85l-0.68-0.72c-0.67-0.71-1.29-1.49-1.89-2.25c-0.91-1.15-1.78-2.23-2.8-3.09
				c-0.18,0-0.25,0.07-0.28,0.1c-0.21,0.2-0.29,0.72-0.22,1.27c0.15,0.37,0.27,0.72,0.36,1.08l1.43,5.34l-2.8-4.76
				c-0.21-0.35-0.36-0.78-0.44-1.25c-0.88-2.11-2.63-3.83-4.67-4.66l-0.81,4.07l-1.01-1.52c-0.23-0.34-0.5-0.83-0.82-1.39
				c-1.5-2.65-2.46-3.96-2.94-3.9c0,0-0.39,0.15-0.74,1.64l-0.2,0.85l-0.81-0.33c-10.02-4.06-8.23-19.4-5.88-26.95
				c1.6-4.91,6.28-8.45,11.39-8.61c4.15-0.14,7.59,1.95,9.44,5.63c1.66-2.2,1.15-7.41-0.31-9.71c-2.3-3.54-8.55-5.87-14.53-5.42
				c-4.34,0.33-7.55,2.11-8.79,4.88l-1.92,4.27l0.49-4.66c0.91-8.62-2.55-19.99-9.92-24.11l-2.23-1.25l2.55-0.16
				c1.18-0.07,1.3-0.6,1.33-0.78c0.24-1.11-1.07-3.28-2.42-4l-0.15-0.1c-6.58-5.92-7.71-17.23-2.56-25.74
				c5.16-9.33,20.81-16.32,32.16-14.36c7.28,1.26,11.94,5.96,13.13,13.24l0.24,1.45l-1.31-0.65c-2.5-1.24-4.72-0.28-5.73,1.14
				c-0.9,1.28-1.16,3.33,0.84,5.26l4.67,4.52l-5.58-3.33c-0.82-0.49-1.8-1.4-2.83-2.37c-1.67-1.56-3.9-3.65-5.26-3.52
				c1.06,5.35,4.48,10.05,9.44,12.96c4.97,2.92,10.72,3.54,15.78,1.7c3.59-1.16,6.9-3.52,10.1-5.79c4.75-3.38,9.66-6.88,15.6-6.58
				l-0.01,1.5c-1.47,0.05-2.19,0.88-2.54,1.56c-0.68,1.32-0.53,3.18,0.36,4.52l0.11,0.25c0.45,1.99-0.81,3.66-1.92,5.13
				c-0.25,0.33-0.49,0.65-0.71,0.97c-4.02,6.07-1.16,13.56,1.36,20.17c0.22,0.59,0.45,1.17,0.66,1.74
				c5.81,15.23,2.23,22.84-0.65,28.96c-1.74,3.69-3.11,6.61-1.88,10.32l0.79,0.65c5.25,4.29,10.21,8.35,9.7,16.69
				c0.08,1.42,0.21,2.91,0.34,4.35c0.81,9.28,1.52,17.3-11.88,18.78L213.08,329.15z M213.49,322.32c0.98,0,1.75,0.42,2.24,0.98
				c0.79,0.89,1.09,2.4,0.47,3.95c10.39-1.7,9.82-8.16,9.05-16.95c-0.13-1.45-0.26-2.95-0.34-4.49c0.47-7.66-3.99-11.3-9.15-15.52
				l-1.12-0.92l-0.07-0.2c-1.56-4.38,0.03-7.75,1.87-11.66c2.76-5.86,6.19-13.15,0.61-27.79c-0.21-0.57-0.43-1.15-0.66-1.74
				c-2.52-6.6-5.65-14.82-1.2-21.54c0.24-0.35,0.5-0.69,0.76-1.03c0.97-1.29,1.89-2.51,1.68-3.78c-1.12-1.79-1.27-4.14-0.37-5.91
				c0.11-0.21,0.22-0.4,0.35-0.58c-3.94,0.85-7.49,3.38-11.2,6.01c-3.29,2.34-6.7,4.76-10.49,5.99c-5.45,1.98-11.66,1.32-17.02-1.83
				c-5.54-3.25-9.28-8.58-10.27-14.62l-0.08-0.5l0.44-0.26c2.18-1.31,4.86,1.07,7.25,3.31c-0.17-1.39,0.27-2.66,0.92-3.59
				c1.18-1.66,3.55-2.88,6.29-2.13c-1.75-7.44-7.23-9.93-11.65-10.7c-10.82-1.88-25.7,4.75-30.61,13.63
				c-4.7,7.78-3.71,18.43,2.2,23.82c1.76,1,3.51,3.67,3.09,5.6c-0.09,0.42-0.33,1.02-0.98,1.45c6.45,4.58,9.5,14,9.42,21.99
				c1.89-1.95,4.84-3.17,8.46-3.44c6.49-0.49,13.33,2.13,15.91,6.1c1.79,2.81,2.69,10.14-0.79,12.41l-0.77,0.5l-0.34-0.85
				c-1.48-3.73-4.53-5.79-8.44-5.67c-4.49,0.14-8.61,3.25-10.01,7.57c-2.14,6.88-3.89,20.62,4.25,24.76
				c0.31-0.9,0.82-1.78,1.74-1.91c1.5-0.22,2.77,1.69,4.25,4.27l0.39-1.98l0.78,0.22c2.15,0.61,4.09,2.05,5.4,3.94
				c0.08-0.11,0.16-0.22,0.26-0.31c0.31-0.31,0.87-0.64,1.77-0.49l0.19,0.03l0.15,0.12c1.23,0.98,2.23,2.25,3.2,3.46
				c0.38,0.48,0.76,0.96,1.16,1.42c1.62-2.44,3.26-3.65,4.97-3.7c0.04,0,0.08,0,0.12,0c3,0,5.38,3.49,7.91,7.18
				c1.81,2.66,3.69,5.4,5.65,6.5l0.17,0.13c1.42,1.43,3.02,2.16,4.65,2.16c1.72-0.02,3.44-0.89,4.96-2.51l0.16-0.13
				C211.95,322.55,212.78,322.32,213.49,322.32z M304.38,328.12c-0.01,0-0.02,0-0.03,0c-3.42-0.01-5.75-1.23-6.07-3.2
				c-0.62-3.82,6.39-8.48,19.24-12.79c0.44-0.19,0.9-0.37,1.36-0.55c2.04-0.8,3.96-1.56,4.93-3.36l2.13-3.92l-0.73,4.41
				C322.84,322.96,311.46,328.12,304.38,328.12z M323.15,311.14c-1.14,0.82-2.48,1.35-3.72,1.84c-0.45,0.18-0.9,0.36-1.34,0.54
				l-0.06,0.02c-14.05,4.71-18.62,8.95-18.27,11.14c0.19,1.16,2.03,1.94,4.59,1.94c0.01,0,0.02,0,0.03,0
				C310.49,326.62,320.05,322.45,323.15,311.14z M317.79,312.83L317.79,312.83L317.79,312.83z M174,328.12
				c-7.09,0-18.46-5.17-20.84-19.42l-0.73-4.41l2.13,3.93c0.97,1.79,2.9,2.55,4.93,3.36c0.47,0.18,0.94,0.37,1.39,0.57
				c12.81,4.29,19.83,8.96,19.21,12.78c-0.32,1.97-2.64,3.2-6.07,3.2C174.02,328.12,174.01,328.12,174,328.12z M155.23,311.14
				c3.09,11.31,12.65,15.49,18.77,15.49c0.01,0,0.02,0,0.03,0c2.56,0,4.4-0.79,4.59-1.94c0.36-2.19-4.22-6.42-18.27-11.14
				c-0.5-0.21-0.95-0.39-1.4-0.57C157.71,312.49,156.37,311.96,155.23,311.14z"/>
		</g>
		<g id="Light_00000039113965734832411130000004957272236611818943_">
			<g>
				<g>
					<path class="st7" d="M52.43,155.96c-4.21,0-8.68-0.54-12.8-2.09c-0.39-0.15-0.58-0.58-0.44-0.97c0.15-0.39,0.58-0.58,0.97-0.44
						c8.93,3.37,19.73,1.72,25.37,0.44c0.4-0.09,0.81,0.16,0.9,0.57s-0.16,0.81-0.57,0.9C62.63,155.11,57.74,155.96,52.43,155.96z"
						/>
				</g>
				<g>
					<path class="st38" d="M47.55,138.56c0.39,2.42,3.61,4.74,6.38,3.69c2.03-0.77,2.64-2.8,3.01-4.57c0.31-1.47,0.62-2.96,0.6-4.45
						c-0.04-2.46-3.33-18.06-5.72-18.06C50.07,115.17,47.19,136.33,47.55,138.56z"/>
					<path class="st7" d="M52.5,143.25c-0.96,0-1.94-0.27-2.85-0.8c-1.51-0.87-2.6-2.32-2.83-3.78l0,0
						c-0.35-2.17,2.14-21.46,4.14-23.82c0.31-0.37,0.65-0.45,0.87-0.45l0,0c3.44,0,6.45,17.37,6.47,18.8
						c0.03,1.58-0.3,3.13-0.61,4.62c-0.28,1.34-0.87,4.12-3.48,5.11C53.66,143.15,53.09,143.25,52.5,143.25z M51.96,116.02
						c-1.38,2.39-4.04,20.11-3.67,22.42l0,0c0.16,1.01,0.99,2.07,2.1,2.72c1.08,0.63,2.27,0.77,3.27,0.39
						c1.53-0.58,2.13-2.03,2.54-4.02c0.3-1.41,0.61-2.87,0.58-4.29C56.75,130.2,53.67,117.47,51.96,116.02z"/>
				</g>
				<g>
					<path class="st7" d="M52.93,155c-0.24,0-0.45-0.17-0.49-0.41c-0.16-0.92,0.17-1.72,0.49-2.5c0.19-0.46,0.37-0.89,0.44-1.33
						c0.14-0.82-0.06-1.66-0.28-2.55l-0.11-0.48c-0.39-1.71-0.53-3.48-0.43-5.25c0.02-0.27,0.22-0.5,0.53-0.47
						c0.28,0.02,0.49,0.25,0.47,0.53c-0.1,1.68,0.04,3.35,0.4,4.97l0.11,0.47c0.23,0.95,0.47,1.94,0.29,2.96
						c-0.1,0.55-0.3,1.05-0.5,1.54c-0.28,0.68-0.54,1.32-0.43,1.95c0.05,0.27-0.13,0.53-0.41,0.58C52.99,155,52.96,155,52.93,155z"
						/>
				</g>
			</g>
			<g>
				<g>
					<path class="st7" d="M232.01,80.37c-2.25,0-4.5-0.05-6.74-0.15c-0.41-0.02-0.73-0.37-0.71-0.78s0.36-0.76,0.78-0.71
						c9.17,0.42,18.42-0.03,27.5-1.33c0.41-0.07,0.79,0.23,0.85,0.64c0.06,0.41-0.23,0.79-0.64,0.85
						C246.1,79.87,239.05,80.37,232.01,80.37z"/>
				</g>
				<g>
					<path class="st38" d="M245.24,63.68c-0.39,2.42-3.61,4.74-6.38,3.69c-2.03-0.77-2.64-2.8-3.01-4.57
						c-0.31-1.47-0.62-2.96-0.6-4.45c0.04-2.46,3.33-18.06,5.72-18.06C242.73,40.29,245.61,61.45,245.24,63.68z"/>
					<path class="st7" d="M240.29,68.38c-0.58,0-1.16-0.1-1.7-0.31c-2.61-0.99-3.2-3.78-3.48-5.11c-0.31-1.49-0.64-3.03-0.61-4.62
						c0.02-1.43,3.02-18.8,6.47-18.8c0.22,0,0.55,0.08,0.87,0.45c2,2.35,4.5,21.64,4.15,23.82l0,0c-0.24,1.46-1.32,2.9-2.83,3.78
						C242.24,68.11,241.25,68.38,240.29,68.38z M240.83,41.14c-0.48,0.47-1.58,2.51-2.98,7.82c-1.12,4.28-1.84,8.36-1.85,9.4
						c-0.02,1.42,0.28,2.88,0.58,4.29c0.42,1.99,1.01,3.44,2.54,4.02c1,0.38,2.19,0.24,3.27-0.39c1.12-0.64,1.94-1.71,2.11-2.72l0,0
						C244.88,61.25,242.21,43.52,240.83,41.14z M245.24,63.68L245.24,63.68L245.24,63.68z"/>
				</g>
				<g>
					<path class="st7" d="M239.87,80.12c-0.03,0-0.06,0-0.09-0.01c-0.27-0.05-0.45-0.31-0.41-0.58c0.11-0.63-0.15-1.27-0.43-1.95
						c-0.2-0.49-0.41-0.99-0.5-1.54c-0.18-1.02,0.06-2,0.29-2.95l0.11-0.47c0.37-1.62,0.5-3.29,0.4-4.97
						c-0.02-0.28,0.19-0.51,0.47-0.53c0.31-0.02,0.51,0.19,0.53,0.47c0.11,1.77-0.04,3.54-0.43,5.25l-0.11,0.48
						c-0.21,0.89-0.42,1.74-0.28,2.55c0.08,0.44,0.25,0.87,0.44,1.32c0.32,0.78,0.66,1.58,0.49,2.5
						C240.31,79.95,240.1,80.12,239.87,80.12z"/>
				</g>
			</g>
			<g>
				<g>
					<path class="st7" d="M432.28,154.36c-6.47,0-12.95-0.36-19.35-1.08c-0.41-0.05-0.71-0.42-0.66-0.83
						c0.05-0.41,0.42-0.7,0.83-0.66c8.85,0.99,17.85,1.29,26.75,0.9c0.4-0.03,0.76,0.3,0.78,0.72c0.02,0.41-0.3,0.76-0.72,0.78
						C437.38,154.31,434.83,154.36,432.28,154.36z"/>
				</g>
				<g>
					<path class="st38" d="M421.46,137.67c0.39,2.42,3.61,4.74,6.38,3.69c2.03-0.77,2.64-2.8,3.01-4.57
						c0.31-1.47,0.62-2.96,0.6-4.45c-0.04-2.46-3.33-18.06-5.72-18.06C423.98,114.28,421.1,135.44,421.46,137.67z"/>
					<path class="st7" d="M426.41,142.37c-0.96,0-1.94-0.27-2.85-0.8c-1.51-0.87-2.6-2.32-2.83-3.78l0,0
						c-0.35-2.17,2.14-21.46,4.14-23.82c0.31-0.37,0.65-0.45,0.87-0.45c3.45,0,6.45,17.37,6.47,18.8c0.03,1.58-0.3,3.12-0.61,4.62
						c-0.28,1.34-0.87,4.12-3.48,5.12C427.57,142.27,427,142.37,426.41,142.37z M422.21,137.55c0.16,1.01,0.99,2.07,2.1,2.72
						c1.08,0.62,2.27,0.77,3.27,0.39c1.53-0.58,2.13-2.03,2.54-4.02c0.31-1.48,0.6-2.88,0.58-4.29c-0.05-3.04-3.12-15.77-4.83-17.22
						C424.49,117.53,421.83,135.24,422.21,137.55L422.21,137.55z"/>
				</g>
				<g>
					<path class="st7" d="M426.84,154.11c-0.24,0-0.45-0.17-0.49-0.41c-0.16-0.92,0.17-1.73,0.49-2.5c0.19-0.46,0.37-0.89,0.44-1.33
						c0.14-0.82-0.06-1.66-0.28-2.55l-0.11-0.48c-0.39-1.71-0.53-3.48-0.43-5.25c0.02-0.27,0.24-0.49,0.53-0.47
						c0.28,0.02,0.49,0.25,0.47,0.53c-0.1,1.67,0.04,3.35,0.4,4.97l0.11,0.46c0.23,0.95,0.47,1.94,0.29,2.96
						c-0.09,0.55-0.3,1.05-0.5,1.54c-0.28,0.68-0.54,1.32-0.43,1.95c0.05,0.27-0.13,0.53-0.4,0.58
						C426.9,154.11,426.87,154.11,426.84,154.11z"/>
				</g>
			</g>
		</g>
		<g id="Line_00000013164563882226290790000015322351620212764343_">
			<g>
				<g>
					<path class="st7" d="M426.48,242.75c-0.86,0-1.71-0.07-2.55-0.2c-0.27-0.04-0.46-0.3-0.41-0.57c0.04-0.27,0.3-0.46,0.57-0.41
						c3.58,0.58,7.42-0.18,10.54-2.07c0.23-0.14,0.54-0.07,0.69,0.17c0.14,0.24,0.07,0.54-0.17,0.69
						C432.56,241.91,429.5,242.75,426.48,242.75z"/>
				</g>
				<g>
					<path class="st7" d="M437.17,267.32h-6.35c-0.28,0-0.5-0.22-0.5-0.5s0.22-0.5,0.5-0.5h6.35c0.28,0,0.5,0.22,0.5,0.5
						S437.45,267.32,437.17,267.32z"/>
				</g>
				<g>
					<path class="st7" d="M418.62,243.19c-0.02,0-0.04,0-0.05,0c-1.92-0.21-3.78-0.75-5.53-1.61c-0.25-0.12-0.35-0.42-0.23-0.67
						c0.12-0.25,0.42-0.35,0.67-0.23c1.64,0.81,3.38,1.32,5.19,1.51c0.27,0.03,0.47,0.28,0.44,0.55
						C419.08,243,418.87,243.19,418.62,243.19z"/>
				</g>
				<g>
					<path class="st7" d="M429.05,203.55c-6.45,0-12.91-0.48-19.29-1.42c-0.27-0.04-0.46-0.29-0.42-0.57
						c0.04-0.27,0.3-0.46,0.57-0.42c9.33,1.38,18.82,1.75,28.21,1.09c0.27-0.02,0.51,0.19,0.53,0.46s-0.19,0.51-0.46,0.53
						C435.15,203.45,432.1,203.55,429.05,203.55z"/>
				</g>
				<g>
					<path class="st7" d="M418.05,192.73c-3.09,0-6.19-0.21-9.26-0.62c-0.27-0.04-0.46-0.29-0.43-0.56s0.28-0.47,0.56-0.43
						c4.17,0.56,8.41,0.74,12.6,0.53c3.39-0.18,9.46-0.1,14.34-0.04c2.2,0.03,4.21,0.05,5.71,0.05c0.28,0,0.5,0.22,0.5,0.5
						s-0.22,0.5-0.5,0.5c-1.5,0-3.51-0.03-5.72-0.05c-4.86-0.06-10.91-0.14-14.28,0.04C420.4,192.7,419.23,192.73,418.05,192.73z"/>
				</g>
				<g>
					<path class="st7" d="M386.43,308.73c-0.22,0-0.43-0.15-0.48-0.38c-0.07-0.27,0.09-0.54,0.36-0.61
						c7.68-1.97,15.46-7.86,23.14-17.48c0.17-0.22,0.49-0.25,0.7-0.08c0.22,0.17,0.25,0.49,0.08,0.7
						c-7.81,9.8-15.78,15.8-23.67,17.83C386.51,308.73,386.47,308.73,386.43,308.73z"/>
				</g>
				<g>
					<path class="st7" d="M409.39,297.52c-0.13,0-0.27-0.05-0.36-0.16c-0.19-0.2-0.18-0.52,0.02-0.71
						c5.8-5.45,10.35-11.98,14.52-18.19c0.15-0.23,0.46-0.29,0.69-0.14c0.23,0.15,0.29,0.46,0.14,0.69
						c-4.2,6.27-8.79,12.85-14.66,18.37C409.63,297.47,409.51,297.52,409.39,297.52z"/>
				</g>
				<g>
					<path class="st7" d="M379.52,310.35c-0.01,0-0.02,0-0.03,0c-0.47-0.03-0.97-0.05-1.51-0.07c-4.68-0.2-11.75-0.51-20.19-5.58
						c-0.24-0.14-0.31-0.45-0.17-0.69c0.14-0.24,0.45-0.31,0.69-0.17c8.23,4.94,15.14,5.24,19.72,5.43
						c0.54,0.02,1.04,0.05,1.52,0.07c0.28,0.02,0.49,0.25,0.47,0.53C380,310.14,379.78,310.35,379.52,310.35z"/>
				</g>
				<g>
					<path class="st7" d="M425.45,223C425.44,223,425.44,223,425.45,223c-0.07,0-6.88-0.09-11.71-0.33
						c-0.28-0.01-0.49-0.25-0.47-0.52c0.01-0.27,0.23-0.47,0.5-0.47c0.01,0,0.02,0,0.03,0c4.81,0.24,11.6,0.33,11.67,0.33
						c0.28,0,0.5,0.23,0.49,0.51C425.94,222.78,425.72,223,425.45,223z"/>
				</g>
			</g>
			<g>
				<g>
					<path class="st7" d="M239.64,280.24c-12.68,0-21.87-3.38-22-3.43c-0.26-0.1-0.39-0.39-0.29-0.64c0.1-0.26,0.38-0.39,0.64-0.29
						c0.2,0.08,20.55,7.55,42.42,0c0.26-0.09,0.55,0.05,0.64,0.31s-0.05,0.55-0.31,0.64C253.29,279.38,246.02,280.24,239.64,280.24z
						"/>
				</g>
				<g>
					<path class="st7" d="M241.51,225.2c-5.93,0-11.89-0.33-17.77-0.97c-0.27-0.03-0.47-0.28-0.44-0.55s0.27-0.47,0.55-0.44
						c7.41,0.81,14.95,1.12,22.4,0.9c0.26,0.02,0.51,0.21,0.51,0.49c0.01,0.28-0.21,0.51-0.49,0.51
						C244.68,225.17,243.1,225.2,241.51,225.2z"/>
				</g>
				<g>
					<path class="st7" d="M242.68,211.28c-3.56,0-7.11-0.22-10.64-0.65c-0.27-0.03-0.47-0.28-0.43-0.56
						c0.03-0.27,0.27-0.48,0.56-0.43c6.92,0.85,13.94,0.86,20.87,0.02c0.27-0.04,0.52,0.16,0.56,0.44c0.03,0.27-0.16,0.52-0.44,0.56
						C249.68,211.07,246.18,211.28,242.68,211.28z"/>
				</g>
				<g>
					<path class="st7" d="M242.55,204.05c-4.73,0-9.95-0.22-15.4-0.99l0.13-0.99c6.92,0.78,13.96,1.08,20.92,0.9c0,0,0,0,0,0l0,0
						l0.03,1C246.44,204.02,244.54,204.05,242.55,204.05z"/>
				</g>
				<g>
					<path class="st7" d="M239.14,196.76c-2.86,0-5.73-0.16-8.57-0.47c-0.27-0.03-0.47-0.28-0.44-0.55
						c0.03-0.28,0.28-0.47,0.55-0.44c6.12,0.67,12.33,0.61,18.44-0.18c0.27-0.04,0.52,0.16,0.56,0.43c0.04,0.27-0.16,0.52-0.43,0.56
						C245.89,196.54,242.51,196.76,239.14,196.76z"/>
				</g>
				<g>
					<path class="st7" d="M240.22,179.24c-1.93,0-3.86-0.1-5.77-0.31c-0.27-0.03-0.47-0.28-0.44-0.55c0.03-0.27,0.28-0.47,0.55-0.44
						c3.05,0.33,6.15,0.39,9.22,0.18c0.25-0.03,0.51,0.19,0.53,0.47c0.02,0.28-0.19,0.51-0.47,0.53
						C242.64,179.2,241.43,179.24,240.22,179.24z"/>
				</g>
				<g>
					<path class="st7" d="M237.35,307.02c-2.3,0-4.6-0.04-6.89-0.1c-0.28-0.01-0.49-0.24-0.49-0.51c0.01-0.28,0.24-0.48,0.51-0.49
						c5.77,0.18,11.62,0.13,17.38-0.14c0.29-0.05,0.51,0.2,0.52,0.48c0.01,0.28-0.2,0.51-0.48,0.52
						C244.41,306.93,240.88,307.02,237.35,307.02z"/>
				</g>
				<g>
					<path class="st7" d="M230.96,312.22c-0.49,0-0.98,0-1.47,0c-0.28,0-0.5-0.23-0.5-0.5c0-0.28,0.23-0.5,0.5-0.5c0,0,0,0,0,0
						c6.38,0.04,12.82-0.18,19.17-0.64c0.25-0.02,0.51,0.19,0.54,0.46c0.02,0.28-0.19,0.51-0.46,0.54
						C242.84,312,236.87,312.22,230.96,312.22z"/>
				</g>
				<g>
					<path class="st7" d="M236.69,373.69c-0.14,0-0.27-0.06-0.37-0.17c-4.23-4.7-3.08-10.51-1.97-16.14c0.2-1,0.39-1.99,0.55-2.96
						c1.1-6.66-0.35-10.67-4.57-12.61c-1.9-0.87-4.62-0.73-6.61,0.34c-1.05,0.57-2.35,1.64-2.63,3.52
						c-0.41,2.79,1.34,5.68,3.29,7.08c0.91,0.65,2.3,1.15,3.36,0.79c0.6-0.21,1.02-0.68,1.23-1.42c0.5-1.68-0.16-3.92-0.64-5.55
						c-0.08-0.26,0.07-0.54,0.34-0.62c0.26-0.08,0.54,0.07,0.62,0.34c0.51,1.75,1.22,4.15,0.64,6.12c-0.31,1.05-0.95,1.77-1.87,2.08
						c-1.5,0.51-3.24-0.18-4.27-0.92c-2.2-1.58-4.17-4.85-3.7-8.04c0.26-1.79,1.38-3.29,3.14-4.25c2.28-1.24,5.29-1.38,7.5-0.37
						c4.63,2.13,6.31,6.6,5.14,13.68c-0.16,0.98-0.36,1.98-0.56,2.99c-1.06,5.38-2.16,10.94,1.74,15.27
						c0.18,0.21,0.17,0.52-0.04,0.71C236.93,373.65,236.81,373.69,236.69,373.69z"/>
				</g>
				<g>
					<path class="st7" d="M239.89,373.69c-0.1,0-0.2-0.03-0.29-0.09c-0.22-0.16-0.28-0.47-0.12-0.7c2.51-3.51,3.18-6.59,2.4-10.99
						c-0.19-1.09-0.45-2.2-0.69-3.27c-0.67-2.92-1.36-5.94-0.97-9.04c0.46-3.72,2.92-8.18,7.21-9.17c3.05-0.71,6.1,0.29,7.77,2.53
						c1.48,1.98,1.54,4.5,0.18,6.9c-1,1.76-4.25,5-6.62,4.65c-0.78-0.12-1.8-0.66-2.24-2.61c-0.39-1.72,0.19-3.68,0.66-5.26
						l0.1-0.35c0.08-0.26,0.35-0.42,0.62-0.34c0.26,0.08,0.42,0.36,0.34,0.62l-0.1,0.35c-0.46,1.54-0.97,3.29-0.64,4.76
						c0.25,1.12,0.73,1.74,1.41,1.84c1.76,0.27,4.69-2.54,5.61-4.16c1.16-2.04,1.12-4.16-0.11-5.81c-1.43-1.92-4.08-2.77-6.74-2.16
						c-3.83,0.88-6.02,4.93-6.45,8.32c-0.37,2.93,0.31,5.86,0.96,8.7c0.25,1.09,0.5,2.21,0.7,3.32c0.82,4.63,0.08,8.04-2.57,11.74
						C240.2,373.62,240.04,373.69,239.89,373.69z"/>
				</g>
				<g>
					<path class="st7" d="M231.25,375.72c-0.27,0-0.5-0.22-0.5-0.49c-0.03-1.77-0.92-3.58-2.81-5.68c-0.38-0.43-0.78-0.84-1.18-1.26
						c-1.88-1.96-3.83-3.99-3.92-6.98c-0.05-1.61,0.44-3,1.35-3.82c0.76-0.68,1.79-0.96,2.99-0.79c1.47,0.2,3.13,1.03,3.41,2.75
						c0.28,1.75-0.68,2.9-1.77,3.13c-1.06,0.22-2.35-0.41-2.85-2.33c-0.07-0.27,0.09-0.54,0.36-0.61c0.27-0.07,0.54,0.09,0.61,0.36
						c0.29,1.13,0.97,1.76,1.68,1.61c0.63-0.13,1.17-0.86,0.99-1.99c-0.24-1.49-2.02-1.85-2.56-1.92c-0.91-0.13-1.64,0.06-2.18,0.54
						c-0.68,0.62-1.07,1.75-1.02,3.05c0.09,2.61,1.82,4.41,3.65,6.32c0.41,0.42,0.81,0.85,1.2,1.28c1.29,1.44,3.02,3.67,3.06,6.33
						C231.76,375.48,231.54,375.71,231.25,375.72C231.26,375.72,231.26,375.72,231.25,375.72z"/>
				</g>
				<g>
					<path class="st7" d="M245.04,375.72C245.03,375.72,245.03,375.72,245.04,375.72c-0.29,0-0.5-0.23-0.5-0.51
						c0.06-3.19,2.12-5.41,4.12-7.55c1.74-1.86,3.38-3.62,3.85-5.99c0.24-1.21-0.04-2.4-0.76-3.17c-0.6-0.65-1.44-0.94-2.41-0.83
						c-0.79,0.09-1.42,0.32-1.9,0.69c-0.77,0.6-0.95,1.65-0.45,2.56c0.39,0.7,1.11,0.83,1.62,0.65c0.22-0.08,0.91-0.4,0.73-1.4
						c-0.05-0.27,0.14-0.53,0.41-0.58c0.27-0.04,0.53,0.14,0.58,0.41c0.2,1.16-0.35,2.14-1.39,2.51c-1.09,0.38-2.25-0.07-2.82-1.11
						c-0.74-1.33-0.44-2.94,0.7-3.84c0.62-0.48,1.43-0.79,2.4-0.9c1.29-0.14,2.44,0.26,3.26,1.14c0.93,1.01,1.31,2.52,1,4.05
						c-0.52,2.65-2.34,4.6-4.1,6.48c-1.96,2.09-3.8,4.07-3.85,6.88C245.53,375.5,245.31,375.72,245.04,375.72z"/>
				</g>
				<g>
					<path class="st7" d="M238.53,341.49l-0.39-0.64c-1.63-2.65-3.95-4.28-6.9-4.84c-5.32-1.02-11.17,1.58-14.89,4.35
						c-0.22,0.16-0.53,0.12-0.7-0.1c-0.17-0.22-0.12-0.54,0.1-0.7c3.89-2.9,10.05-5.61,15.67-4.53c3,0.58,5.41,2.15,7.17,4.69
						c3-3.8,6.74-4.77,9.42-4.9c4.36-0.2,9.12,1.72,11.81,4.81c0.18,0.21,0.16,0.52-0.05,0.71s-0.52,0.16-0.71-0.05
						c-2.5-2.87-6.94-4.66-11.01-4.47c-2.58,0.12-6.26,1.1-9.08,5.06L238.53,341.49z"/>
				</g>
				<g>
					<path class="st7" d="M228.74,265.56c-0.23,0-0.43-0.16-0.49-0.39c-0.98-4.3,0.23-8,1.52-11.91c0.5-1.51,1.01-3.07,1.38-4.66
						c1.79-7.66,0.78-12.07-3.1-13.48c-1.77-0.64-3.59-0.38-5.14,0.73c-1.84,1.33-2.94,3.61-2.88,5.95
						c0.04,1.35,0.63,2.36,1.67,2.84c1.2,0.56,2.77,0.29,4.01-0.69c1.21-0.96,1.81-2.68,1.46-4.2c-0.06-0.27,0.11-0.54,0.37-0.6
						c0.27-0.06,0.54,0.11,0.6,0.37c0.44,1.91-0.29,4-1.82,5.21c-1.53,1.21-3.52,1.53-5.05,0.81c-1.38-0.64-2.19-2-2.24-3.72
						c-0.07-2.67,1.19-5.27,3.29-6.79c1.82-1.31,3.98-1.62,6.06-0.86c6.6,2.4,4.44,11.62,3.73,14.65c-0.38,1.63-0.9,3.21-1.4,4.74
						c-1.24,3.78-2.42,7.35-1.49,11.38c0.06,0.27-0.11,0.54-0.38,0.6C228.81,265.55,228.77,265.56,228.74,265.56z"/>
				</g>
				<g>
					<path class="st7" d="M249.75,266.35c-0.04,0-0.07,0-0.11-0.01c-0.27-0.06-0.44-0.33-0.38-0.6c1.02-4.47-0.2-8.95-1.38-13.28
						c-0.32-1.19-0.66-2.42-0.94-3.63c-0.71-3.03-2.86-12.25,3.73-14.65c2.09-0.76,4.24-0.46,6.06,0.86
						c2.1,1.52,3.37,4.12,3.29,6.79c-0.05,1.72-0.87,3.08-2.24,3.72c-1.53,0.72-3.52,0.4-5.05-0.81c-1.53-1.21-2.26-3.3-1.82-5.21
						c0.06-0.27,0.33-0.43,0.6-0.37c0.27,0.06,0.44,0.33,0.37,0.6c-0.35,1.51,0.25,3.24,1.46,4.2c1.24,0.98,2.81,1.25,4.01,0.69
						c1.04-0.48,1.63-1.5,1.67-2.84c0.06-2.34-1.04-4.62-2.88-5.95c-1.55-1.12-3.37-1.37-5.14-0.73c-3.88,1.41-4.89,5.82-3.1,13.48
						c0.28,1.19,0.61,2.41,0.93,3.6c1.21,4.45,2.47,9.05,1.39,13.76C250.19,266.19,249.98,266.35,249.75,266.35z"/>
				</g>
				<g>
					<path class="st7" d="M236.1,263.19c-0.16,0-0.32-0.08-0.42-0.23c-1.99-3.05-1.51-7.53-1.12-11.13
						c0.07-0.67,0.14-1.31,0.19-1.92c0.02-0.28,0.28-0.46,0.54-0.46c0.27,0.02,0.48,0.26,0.46,0.54c-0.05,0.61-0.12,1.26-0.19,1.94
						c-0.37,3.44-0.83,7.73,0.97,10.48c0.15,0.23,0.09,0.54-0.15,0.69C236.28,263.16,236.19,263.19,236.1,263.19z"/>
				</g>
				<g>
					<path class="st7" d="M235.59,246.9c-0.02,0-0.04,0-0.06,0c-0.27-0.03-0.47-0.28-0.44-0.55c0.11-1,0.34-2.16,0.58-3.39
						c0.81-4.12,1.81-9.25-0.88-11.82c-2.76-2.63-10-1.4-14.32-0.66c-0.61,0.1-1.16,0.2-1.65,0.27c-0.27,0.04-0.53-0.14-0.57-0.42
						c-0.04-0.27,0.15-0.53,0.42-0.57c0.48-0.07,1.03-0.17,1.63-0.27c4.51-0.77,12.06-2.05,15.18,0.93
						c3.08,2.95,2.02,8.37,1.17,12.73c-0.24,1.21-0.46,2.35-0.57,3.31C236.06,246.71,235.84,246.9,235.59,246.9z"/>
				</g>
				<g>
					<path class="st7" d="M242.18,263.69c-0.09,0-0.19-0.03-0.27-0.08c-0.23-0.15-0.3-0.46-0.15-0.69
						c1.86-2.85,1.35-7.34,0.94-10.95c-0.08-0.72-0.16-1.42-0.22-2.07c-0.02-0.28,0.18-0.52,0.45-0.54
						c0.26-0.02,0.52,0.18,0.54,0.45c0.06,0.64,0.13,1.33,0.22,2.04c0.43,3.77,0.96,8.45-1.1,11.61
						C242.51,263.61,242.35,263.69,242.18,263.69z"/>
				</g>
				<g>
					<path class="st7" d="M242.62,246.82c-0.25,0-0.47-0.19-0.5-0.44c-0.1-0.9-0.31-1.96-0.53-3.09c-0.84-4.32-1.89-9.69,1.37-12.53
						c3.2-2.79,10.25-1.58,14.91-0.78c0.64,0.11,1.22,0.21,1.73,0.29c0.27,0.04,0.46,0.3,0.42,0.57c-0.04,0.27-0.29,0.46-0.57,0.42
						c-0.52-0.08-1.11-0.18-1.75-0.29c-4.2-0.72-11.24-1.93-14.09,0.55c-2.82,2.46-1.83,7.52-1.04,11.59
						c0.22,1.15,0.43,2.23,0.54,3.16c0.03,0.27-0.17,0.52-0.44,0.55C242.66,246.82,242.64,246.82,242.62,246.82z"/>
				</g>
				<g>
					<path class="st7" d="M225.32,261.78c-0.04,0-0.08,0-0.12-0.01c-0.27-0.06-0.43-0.33-0.37-0.6c0.28-1.18,0.15-2.53-0.4-4.15
						c-0.25-0.72-0.55-1.44-0.85-2.14c-0.28-0.66-0.57-1.34-0.82-2.03c-0.2-0.57-0.38-1.18-0.34-1.83c0.05-0.79,0.46-1.48,1.06-1.79
						c1.04-0.54,2.23,0.13,2.74,1.05c0.48,0.87,0.48,1.88,0.49,2.7c0,0.28-0.22,0.5-0.5,0.5c0,0,0,0,0,0c-0.27,0-0.5-0.22-0.5-0.5
						c0-0.74-0.01-1.58-0.36-2.22c-0.28-0.5-0.94-0.89-1.41-0.65c-0.29,0.15-0.5,0.53-0.52,0.97c-0.03,0.47,0.12,0.97,0.28,1.43
						c0.23,0.66,0.52,1.33,0.79,1.97c0.3,0.71,0.62,1.45,0.88,2.21c0.61,1.8,0.75,3.33,0.43,4.7
						C225.75,261.62,225.54,261.78,225.32,261.78z"/>
				</g>
				<g>
					<path class="st7" d="M253.94,261.78c-0.23,0-0.43-0.16-0.49-0.38c-0.32-1.37-0.18-2.9,0.43-4.7c0.26-0.76,0.57-1.49,0.88-2.21
						c0.27-0.64,0.56-1.31,0.79-1.97c0.17-0.47,0.31-0.97,0.28-1.44c-0.03-0.44-0.23-0.82-0.52-0.97c-0.47-0.24-1.12,0.14-1.4,0.65
						c-0.33,0.6-0.36,1.33-0.36,2.22c0,0.28-0.22,0.5-0.5,0.5c0,0,0,0,0,0c-0.28,0-0.5-0.23-0.5-0.5c0-0.81,0.01-1.83,0.49-2.7
						c0.51-0.93,1.73-1.57,2.74-1.05c0.6,0.31,1.01,1,1.06,1.79c0.04,0.65-0.14,1.26-0.34,1.83c-0.25,0.69-0.54,1.37-0.82,2.03
						c-0.3,0.7-0.6,1.42-0.85,2.14c-0.55,1.62-0.68,2.97-0.4,4.15c0.06,0.27-0.1,0.54-0.37,0.6
						C254.02,261.78,253.98,261.78,253.94,261.78z"/>
				</g>
				<g>
					<path class="st7" d="M236.47,277.24c-0.1,0-0.19-0.03-0.28-0.08c-1.37-0.91-3.05-0.88-4.83-0.85
						c-2.05,0.04-4.17,0.07-5.85-1.42c-0.98-0.87-1.52-2.09-1.56-3.54c-0.05-1.88,0.79-3.95,2.13-5.27
						c1.45-1.43,4.19-1.96,6.52-1.27c1.82,0.54,3.01,1.71,3.35,3.3c0.35,1.6-0.33,3.21-1.74,4.1c-1.31,0.83-2.87,0.77-4.08-0.16
						c-0.22-0.17-0.26-0.48-0.09-0.7c0.17-0.22,0.48-0.26,0.7-0.09c0.88,0.67,1.98,0.72,2.93,0.11c1.04-0.66,1.55-1.86,1.3-3.04
						c-0.36-1.64-1.82-2.31-2.66-2.56c-1.97-0.59-4.35-0.15-5.54,1.02c-1.16,1.14-1.88,2.92-1.83,4.54
						c0.02,0.81,0.25,1.95,1.22,2.81c1.38,1.23,3.22,1.2,5.16,1.17c1.85-0.03,3.77-0.06,5.4,1.02c0.23,0.15,0.29,0.46,0.14,0.69
						C236.79,277.16,236.63,277.24,236.47,277.24z"/>
				</g>
				<g>
					<path class="st7" d="M240.25,277.24c-0.16,0-0.32-0.08-0.42-0.22c-0.15-0.23-0.09-0.54,0.14-0.69c1.63-1.08,3.55-1.05,5.4-1.02
						c1.94,0.03,3.78,0.07,5.16-1.17c0.97-0.87,1.2-2.01,1.22-2.81c0.04-1.62-0.68-3.4-1.83-4.54c-1.19-1.17-3.57-1.61-5.54-1.02
						c-0.84,0.25-2.31,0.92-2.66,2.56c-0.26,1.19,0.25,2.38,1.3,3.04c0.96,0.61,2.05,0.57,2.93-0.11c0.22-0.17,0.53-0.13,0.7,0.09
						c0.17,0.22,0.13,0.53-0.09,0.7c-1.21,0.93-2.77,0.99-4.08,0.16c-1.4-0.89-2.08-2.5-1.74-4.1c0.34-1.59,1.54-2.76,3.35-3.3
						c2.33-0.69,5.07-0.16,6.52,1.27c1.34,1.33,2.18,3.4,2.13,5.27c-0.04,1.44-0.58,2.66-1.56,3.54c-1.67,1.49-3.8,1.46-5.85,1.42
						c-1.77-0.03-3.46-0.06-4.83,0.85C240.44,277.21,240.35,277.24,240.25,277.24z"/>
				</g>
				<g>
					<path class="st7" d="M239.86,381.06c-3.96,0-7.92-0.21-11.84-0.62c-0.28-0.03-0.47-0.27-0.45-0.55
						c0.03-0.28,0.28-0.48,0.55-0.45c7.49,0.78,15.1,0.82,22.6,0.09c0.26-0.01,0.52,0.17,0.55,0.45c0.03,0.27-0.17,0.52-0.45,0.55
						C247.18,380.89,243.52,381.06,239.86,381.06z"/>
				</g>
				<g>
					<path class="st7" d="M241.74,405.64c-3.4,0-6.8-0.09-10.16-0.27c-0.28-0.01-0.49-0.25-0.47-0.53c0.01-0.27,0.27-0.5,0.53-0.47
						c5.16,0.27,10.41,0.34,15.58,0.19c0.28-0.01,0.51,0.21,0.51,0.49c0.01,0.28-0.21,0.51-0.49,0.51
						C245.42,405.61,243.58,405.64,241.74,405.64z"/>
				</g>
				<g>
					<path class="st7" d="M238.57,444.44c-4.78,0-9.56-0.23-14.31-0.7c-0.27-0.03-0.48-0.27-0.45-0.55
						c0.03-0.27,0.28-0.46,0.55-0.45c9.85,0.97,19.84,0.92,29.68-0.13c0.26-0.03,0.52,0.17,0.55,0.44c0.03,0.27-0.17,0.52-0.44,0.55
						C248.98,444.16,243.77,444.44,238.57,444.44z"/>
				</g>
				<g>
					<path class="st7" d="M241.28,449.35c-6.99,0-13.99-0.33-20.93-1c-0.27-0.03-0.48-0.27-0.45-0.55c0.03-0.28,0.28-0.47,0.55-0.45
						c12.44,1.19,25.05,1.31,37.5,0.36c0.24-0.03,0.52,0.18,0.54,0.46c0.02,0.28-0.19,0.52-0.46,0.54
						C252.47,449.14,246.88,449.35,241.28,449.35z"/>
				</g>
				<g>
					<path class="st7" d="M238.99,465.54c-2.93,0-5.86-0.34-8.71-1.02c-0.27-0.06-0.44-0.33-0.37-0.6c0.06-0.27,0.34-0.44,0.6-0.37
						c5.67,1.35,11.65,1.32,17.31-0.08c0.27-0.07,0.54,0.1,0.61,0.37s-0.1,0.54-0.37,0.61
						C245.09,465.17,242.04,465.54,238.99,465.54z"/>
				</g>
				<g>
					<path class="st7" d="M231.07,490.03c-0.25,0-0.47-0.19-0.5-0.45c-0.34-3.61-1.37-14.58-7.55-14.65c-1.03,0-1.79,0.27-2.23,0.88
						c-1.38,1.88,0.12,6.52,1.11,9.58c0.37,1.15,0.7,2.15,0.82,2.82c0.05,0.27-0.13,0.53-0.41,0.58c-0.27,0.04-0.53-0.13-0.58-0.41
						c-0.11-0.6-0.42-1.57-0.78-2.68c-1.12-3.46-2.66-8.19-0.97-10.49c0.64-0.87,1.64-1.31,3.05-1.28
						c7.08,0.09,8.17,11.73,8.53,15.56c0.03,0.28-0.18,0.52-0.45,0.54C231.11,490.03,231.09,490.03,231.07,490.03z"/>
				</g>
				<g>
					<path class="st7" d="M248.33,490.03c-0.02,0-0.03,0-0.05,0c-0.27-0.03-0.48-0.27-0.45-0.54c0.36-3.83,1.45-15.47,8.53-15.56
						c1.35-0.02,2.41,0.41,3.05,1.28c1.69,2.29,0.15,7.03-0.97,10.49c-0.36,1.12-0.67,2.08-0.78,2.68
						c-0.05,0.27-0.31,0.45-0.58,0.41c-0.27-0.05-0.45-0.31-0.41-0.58c0.12-0.67,0.44-1.67,0.82-2.82c0.99-3.07,2.5-7.71,1.11-9.58
						c-0.44-0.6-1.19-0.87-2.23-0.88c-6.18,0.08-7.21,11.05-7.55,14.65C248.81,489.84,248.59,490.03,248.33,490.03z"/>
				</g>
				<g>
					<path class="st7" d="M234.7,491.54c-0.02,0-0.03,0-0.05,0c-0.27-0.03-0.48-0.27-0.45-0.54c0.11-1.13,0.08-2.59,0.05-4.14
						c-0.07-4.3-0.16-9.17,2.18-11.55c0.9-0.92,2.09-1.38,3.55-1.38c1.47,0,2.64,0.45,3.49,1.34c2.06,2.17,1.82,6.64,1.59,10.97
						c-0.09,1.62-0.18,3.3-0.14,4.8c0.01,0.28-0.21,0.51-0.49,0.51c0,0-0.01,0-0.01,0c-0.27,0-0.49-0.22-0.5-0.49
						c-0.04-1.54,0.05-3.23,0.14-4.88c0.22-4.11,0.45-8.37-1.32-10.23c-0.65-0.69-1.56-1.03-2.76-1.03c-1.2,0-2.12,0.35-2.84,1.08
						c-2.05,2.08-1.96,6.93-1.9,10.83c0.03,1.58,0.05,3.07-0.06,4.25C235.17,491.35,234.95,491.54,234.7,491.54z"/>
				</g>
				<g>
					<path class="st7" d="M239.42,469.87c-5.59,0-11.17-0.45-16.71-1.34c-0.27-0.04-0.46-0.3-0.41-0.57
						c0.04-0.27,0.3-0.47,0.57-0.41c10.31,1.66,20.79,1.76,31.14,0.3c0.28-0.04,0.53,0.15,0.57,0.42c0.04,0.27-0.15,0.53-0.42,0.57
						C249.26,469.53,244.34,469.87,239.42,469.87z"/>
				</g>
				<g>
					<path class="st7" d="M236.83,594.65c-16.83,0-33.22-3.04-48.1-9.08c-19.83-8.04-30.79-20.7-34.43-29.86
						c-0.15-0.38,0.04-0.82,0.42-0.97c0.38-0.15,0.82,0.03,0.97,0.42c5.39,13.56,21.47,24.11,33.6,29.03
						c25.52,10.34,55.53,11.79,84.5,4.07c9.48-2.53,40.85-12.68,46.2-37.26c0.09-0.4,0.48-0.66,0.89-0.57
						c0.4,0.09,0.66,0.49,0.57,0.89c-5.54,25.41-37.59,35.8-47.28,38.38C261.77,593.01,249.18,594.65,236.83,594.65z"/>
				</g>
				<g>
					<path class="st7" d="M237.59,586.66c-6.48,0-13.04-0.47-19.55-1.42c-25.47-3.86-47.34-17.3-60.01-36.86
						c-0.22-0.35-0.12-0.81,0.22-1.04c0.35-0.22,0.81-0.12,1.04,0.22c12.43,19.2,33.93,32.39,58.97,36.19
						c52.39,7.66,85.22-14.45,98.47-37.71c0.2-0.36,0.66-0.49,1.02-0.28c0.36,0.21,0.49,0.66,0.28,1.02
						c-9.13,16.02-24.28,27.89-43.79,34.32C263.09,584.78,250.51,586.66,237.59,586.66z"/>
				</g>
				<g>
					<path class="st7" d="M191.41,541.97c-0.17,0-0.34-0.09-0.44-0.26c-0.13-0.24-0.05-0.54,0.19-0.68
						c5.76-3.23,10.24-6.87,14.97-10.71c1.57-1.28,3.19-2.59,4.9-3.93c1.11-0.87,2.09-1.67,2.85-2.67c1.76-2.31,2.13-5.42,2.49-8.42
						c0.06-0.49,0.12-0.98,0.18-1.46c0.63-4.7,1.91-9.27,3.83-13.58c0.11-0.25,0.41-0.37,0.66-0.25c0.25,0.11,0.37,0.41,0.25,0.66
						c-1.88,4.23-3.14,8.7-3.75,13.3c-0.06,0.48-0.12,0.96-0.18,1.45c-0.38,3.14-0.77,6.38-2.69,8.91
						c-0.83,1.09-1.86,1.94-3.03,2.85c-1.71,1.34-3.32,2.65-4.89,3.92c-4.77,3.87-9.27,7.53-15.11,10.81
						C191.57,541.95,191.49,541.97,191.41,541.97z"/>
				</g>
				<g>
					<path class="st7" d="M177.88,551.36c-0.11,0-0.22-0.04-0.31-0.11c-0.22-0.17-0.25-0.49-0.08-0.7c0.83-1.04,8.12-6.38,8.92-6.92
						c0.23-0.15,0.54-0.09,0.69,0.14c0.15,0.23,0.09,0.54-0.14,0.69c-1.07,0.71-8.03,5.88-8.7,6.71
						C178.17,551.29,178.02,551.36,177.88,551.36z"/>
				</g>
				<g>
					<path class="st7" d="M193.84,558.89c-0.11,0-0.23-0.04-0.32-0.12c-0.21-0.18-0.24-0.49-0.07-0.7l22.9-27.61
						c0.17-0.21,0.49-0.24,0.7-0.07c0.21,0.18,0.24,0.49,0.07,0.7l-22.9,27.61C194.13,558.83,193.99,558.89,193.84,558.89z"/>
				</g>
				<g>
					<path class="st7" d="M218.22,564.17c-0.07,0-0.15-0.02-0.22-0.05c-0.25-0.12-0.35-0.42-0.23-0.67
						c4.25-8.81,9.06-18.79,9.51-29.28c0.07-1.54,0.04-3.11,0.01-4.63c-0.02-1.29-0.04-2.63-0.01-3.94
						c0.09-3.6,0.62-10.7,1.64-14.42c0.07-0.27,0.35-0.42,0.61-0.35c0.27,0.07,0.42,0.35,0.35,0.61c-0.94,3.44-1.5,10.37-1.6,14.18
						c-0.03,1.3-0.01,2.62,0.01,3.9c0.03,1.54,0.05,3.13-0.01,4.69c-0.46,10.7-5.32,20.78-9.61,29.67
						C218.58,564.06,218.4,564.17,218.22,564.17z"/>
				</g>
				<g>
					<path class="st7" d="M241.63,533.04c-0.27,0-0.49-0.21-0.5-0.48l-0.98-28.99c-0.01-0.28,0.21-0.51,0.48-0.52
						c0.25-0.01,0.51,0.21,0.52,0.48l0.98,28.99c0.01,0.28-0.21,0.51-0.48,0.52C241.64,533.04,241.64,533.04,241.63,533.04z"/>
				</g>
				<g>
					<path class="st7" d="M241.85,568.29c-0.01,0-0.02,0-0.02,0c-0.28-0.01-0.49-0.25-0.47-0.52c0.41-8.41,0.21-18.28,0.04-26.99
						l-0.05-2.39c0-0.28,0.21-0.5,0.49-0.51c0,0,0.01,0,0.01,0c0.27,0,0.5,0.22,0.5,0.49l0.05,2.39c0.17,8.72,0.36,18.61-0.05,27.06
						C242.33,568.08,242.11,568.29,241.85,568.29z"/>
				</g>
				<g>
					<path class="st7" d="M257.02,541.05c-0.18,0-0.36-0.1-0.45-0.28c-4.51-9.03-4.76-19.47-4.62-30.26
						c0.04-2.96-0.09-6.26-2.18-8.05c-0.21-0.18-0.23-0.5-0.05-0.71c0.18-0.21,0.5-0.23,0.71-0.05c2.41,2.07,2.57,5.64,2.53,8.82
						c-0.14,10.67,0.1,20.97,4.52,29.8c0.12,0.25,0.02,0.55-0.22,0.67C257.17,541.03,257.1,541.05,257.02,541.05z"/>
				</g>
				<g>
					<path class="st7" d="M267.41,570.03c-0.2,0-0.39-0.12-0.47-0.32c-1.45-3.76-3.03-8.04-4.55-12.17
						c-1.52-4.13-3.1-8.39-4.54-12.15c-0.1-0.26,0.03-0.55,0.29-0.65c0.26-0.1,0.55,0.03,0.65,0.29c1.45,3.76,3.03,8.04,4.55,12.17
						c1.52,4.13,3.1,8.39,4.54,12.15c0.1,0.26-0.03,0.55-0.29,0.65C267.54,570.02,267.47,570.03,267.41,570.03z"/>
				</g>
				<g>
					<path class="st7" d="M286.17,558.91c-0.09,0-0.19-0.03-0.27-0.08c-3.23-2.11-5.49-5.16-7.68-8.11
						c-1.15-1.55-2.35-3.16-3.66-4.6c-0.65-0.72-1.36-1.43-2.11-2.18c-2.81-2.82-5.99-6.01-6.6-10.16l-3.01-20.18
						c-0.04-0.27,0.15-0.53,0.42-0.57c0.28-0.04,0.53,0.15,0.57,0.42l3.01,20.18c0.57,3.82,3.5,6.76,6.33,9.6
						c0.76,0.76,1.47,1.48,2.14,2.21c1.35,1.48,2.56,3.11,3.72,4.68c2.23,3.01,4.34,5.86,7.42,7.87c0.23,0.15,0.3,0.46,0.15,0.69
						C286.49,558.83,286.34,558.91,286.17,558.91z"/>
				</g>
				<g>
					<path class="st7" d="M300.94,551.23c-0.12,0-0.24-0.04-0.33-0.13c-4.26-3.77-9.72-8.48-15-13.04
						c-5.28-4.56-10.74-9.27-15.01-13.05c-0.21-0.18-0.23-0.5-0.04-0.71c0.18-0.21,0.5-0.23,0.71-0.04c4.26,3.77,9.72,8.48,15,13.04
						c5.28,4.56,10.74,9.27,15.01,13.05c0.21,0.18,0.23,0.5,0.04,0.71C301.22,551.17,301.08,551.23,300.94,551.23z"/>
				</g>
				<g>
					<path class="st7" d="M262.42,510.22c-0.26,0-0.49-0.21-0.5-0.47c-0.18-3.44-2.16-6.76-5.3-8.86c-0.23-0.15-0.29-0.46-0.14-0.69
						c0.16-0.23,0.47-0.29,0.69-0.14c3.4,2.28,5.54,5.88,5.74,9.64c0.01,0.28-0.2,0.51-0.47,0.53
						C262.44,510.22,262.43,510.22,262.42,510.22z"/>
				</g>
				<g>
					<path class="st7" d="M235.69,121.11c-2.68,0-5.36-0.13-8.04-0.39c-0.28-0.03-0.48-0.27-0.45-0.55
						c0.03-0.28,0.28-0.46,0.55-0.45c7.67,0.74,15.41,0.4,22.99-1c0.26-0.05,0.53,0.13,0.58,0.4c0.05,0.27-0.13,0.53-0.4,0.58
						C245.89,120.64,240.8,121.11,235.69,121.11z"/>
				</g>
				<g>
					<path class="st7" d="M241.01,128.14c-1.65,0-3.29-0.12-4.92-0.35c-0.27-0.04-0.46-0.29-0.42-0.57
						c0.04-0.27,0.29-0.46,0.57-0.42c5.26,0.76,10.7,0.25,15.73-1.48c0.26-0.09,0.54,0.05,0.63,0.31c0.09,0.26-0.05,0.54-0.31,0.63
						C248.67,127.51,244.84,128.14,241.01,128.14z"/>
				</g>
				<g>
					<path class="st7" d="M229.31,148.55c-0.27,0-0.49-0.21-0.5-0.48c-0.01-0.28,0.21-0.51,0.48-0.52l10.43-0.4
						c0.29,0.02,0.51,0.21,0.52,0.48c0.01,0.28-0.21,0.51-0.48,0.52l-10.43,0.4C229.32,148.55,229.31,148.55,229.31,148.55z"/>
				</g>
				<g>
					<path class="st7" d="M243.16,166.63c-2.25,0-4.49-0.07-6.72-0.2c-0.28-0.02-0.49-0.25-0.47-0.53s0.26-0.5,0.53-0.47
						c3.55,0.21,7.15,0.25,10.71,0.12c0.26-0.01,0.51,0.21,0.52,0.48c0.01,0.28-0.21,0.51-0.48,0.52
						C245.88,166.61,244.52,166.63,243.16,166.63z"/>
				</g>
				<g>
					<path class="st7" d="M240.69,499.11c-0.28,0-0.56,0-0.84-0.01c-6.57-0.12-13.06-1.2-19.1-2.35c-0.27-0.05-0.45-0.31-0.4-0.58
						c0.05-0.27,0.31-0.44,0.58-0.4c6,1.14,12.44,2.22,18.93,2.33c6.85,0.12,12.19-1.32,17.99-3.07c0.26-0.08,0.54,0.07,0.62,0.33
						c0.08,0.26-0.07,0.54-0.33,0.62C252.5,497.69,247.27,499.11,240.69,499.11z"/>
				</g>
				<g>
					<path class="st7" d="M236.64,328.72c-3.76,0-7.52-0.16-11.26-0.49c-0.28-0.02-0.48-0.27-0.45-0.54
						c0.02-0.28,0.27-0.46,0.54-0.45c8.51,0.75,17.14,0.64,25.62-0.33c0.26-0.03,0.52,0.17,0.55,0.44c0.03,0.27-0.17,0.52-0.44,0.55
						C246.38,328.45,241.51,328.72,236.64,328.72z"/>
				</g>
			</g>
			<g>
				<g>
					<path class="st7" d="M50.38,193.06c-2.79,0-5.57-0.22-8.29-0.43c-1.92-0.15-3.91-0.31-5.86-0.38
						c-0.28-0.01-0.49-0.24-0.48-0.52c0.01-0.27,0.23-0.48,0.5-0.48c0.01,0,0.01,0,0.02,0c1.97,0.08,3.97,0.23,5.9,0.39
						c4.03,0.32,8.2,0.65,12.27,0.24c0.28-0.02,0.52,0.17,0.55,0.45c0.03,0.27-0.17,0.52-0.45,0.55
						C53.16,193.01,51.77,193.06,50.38,193.06z"/>
				</g>
				<g>
					<path class="st7" d="M60.21,193.11c-0.42,0-0.83-0.02-1.22-0.06c-0.27-0.03-0.47-0.28-0.44-0.55c0.03-0.28,0.3-0.47,0.55-0.44
						c2.13,0.23,4.69-0.29,7.16-0.79c1.07-0.22,2.08-0.42,3.03-0.56c0.27-0.03,0.53,0.15,0.57,0.42c0.04,0.27-0.15,0.53-0.42,0.57
						c-0.92,0.13-1.92,0.34-2.98,0.55C64.35,192.67,62.19,193.11,60.21,193.11z"/>
				</g>
				<g>
					<path class="st7" d="M52.55,205.24c-3.94,0-7.88-0.38-11.82-1.14c-0.27-0.05-0.45-0.31-0.4-0.59c0.05-0.27,0.32-0.45,0.59-0.4
						c9.36,1.8,18.8,1.42,28.06-1.13c0.27-0.07,0.54,0.08,0.62,0.35c0.07,0.27-0.08,0.54-0.35,0.62
						C63.73,204.47,58.15,205.24,52.55,205.24z"/>
				</g>
				<g>
					<path class="st7" d="M60.4,223.04c-1.83,0-3.65-0.07-5.46-0.21c-0.28-0.02-0.48-0.26-0.46-0.54c0.02-0.28,0.29-0.5,0.54-0.46
						c3.97,0.31,8.01,0.27,11.98-0.1c0.26-0.02,0.52,0.18,0.54,0.45c0.03,0.27-0.18,0.52-0.45,0.54
						C64.87,222.93,62.63,223.04,60.4,223.04z"/>
				</g>
				<g>
					<path class="st7" d="M49.6,214.48c-1.43,0-2.87-0.12-4.28-0.37c-0.27-0.05-0.45-0.31-0.41-0.58c0.05-0.27,0.31-0.47,0.58-0.41
						c2,0.35,4.04,0.44,6.06,0.28c0.26-0.01,0.52,0.18,0.54,0.46c0.02,0.28-0.18,0.52-0.46,0.54
						C50.96,214.45,50.28,214.48,49.6,214.48z"/>
				</g>
				<g>
					<path class="st7" d="M56.33,241.23c-1.4,0-2.8-0.12-4.18-0.37c-0.27-0.05-0.45-0.31-0.4-0.58s0.3-0.45,0.58-0.4
						c3.94,0.7,8.03,0.35,11.81-1.01c0.26-0.09,0.55,0.04,0.64,0.3c0.09,0.26-0.04,0.55-0.3,0.64
						C61.85,240.76,59.09,241.23,56.33,241.23z"/>
				</g>
				<g>
					<path class="st7" d="M48.05,269.82c-1.89,0-3.78-0.18-5.65-0.54c-0.27-0.05-0.45-0.31-0.4-0.59c0.05-0.27,0.31-0.45,0.59-0.4
						c3.28,0.63,6.61,0.69,9.9,0.18c0.27-0.04,0.53,0.14,0.57,0.42c0.04,0.27-0.14,0.53-0.42,0.57
						C51.12,269.7,49.58,269.82,48.05,269.82z"/>
				</g>
				<g>
					<path class="st7" d="M95.68,310.06L95.68,310.06c-5.25-0.02-11.21-4.06-15.15-6.73c-4.78-3.24-9.01-7.16-12.59-11.65
						c-0.17-0.22-0.14-0.53,0.08-0.7c0.22-0.17,0.53-0.14,0.7,0.08c3.51,4.41,7.67,8.26,12.37,11.44c3.84,2.61,9.64,6.54,14.59,6.56
						c0.28,0,0.5,0.23,0.5,0.5C96.18,309.83,95.96,310.06,95.68,310.06z"/>
				</g>
				<g>
					<path class="st7" d="M98.66,310.14c-0.27,0-0.49-0.21-0.5-0.48c-0.01-0.28,0.2-0.51,0.48-0.52c3.84-0.15,7.6-0.35,11.29-1.12
						c3.99-0.84,7.32-2.3,9.88-4.36c0.21-0.17,0.53-0.14,0.7,0.08c0.17,0.21,0.14,0.53-0.08,0.7c-2.69,2.15-6.15,3.68-10.3,4.55
						c-3.77,0.79-7.57,0.99-11.46,1.14C98.67,310.14,98.66,310.14,98.66,310.14z"/>
				</g>
				<g>
					<path class="st7" d="M57.29,244.87C57.29,244.87,57.29,244.87,57.29,244.87c-3.75-0.02-7.55-0.21-11.29-0.55
						c-0.27-0.03-0.48-0.27-0.45-0.54c0.03-0.27,0.26-0.47,0.54-0.45c3.71,0.35,7.48,0.53,11.2,0.55c0.28,0,0.5,0.23,0.5,0.5
						C57.79,244.65,57.57,244.87,57.29,244.87z"/>
				</g>
				<g>
					<path class="st7" d="M55.11,201.14c-3.9,0-7.79-0.29-11.62-0.58c-1.6-0.12-3.24-0.24-4.85-0.49c-0.27-0.04-0.46-0.3-0.42-0.57
						c0.04-0.27,0.31-0.46,0.57-0.42c1.57,0.24,3.2,0.37,4.77,0.48c7.5,0.56,15.24,1.14,22.69-0.5c0.28-0.06,0.54,0.11,0.6,0.38
						s-0.11,0.54-0.38,0.6C62.71,200.86,58.91,201.14,55.11,201.14z"/>
				</g>
				<g>
					<path class="st7" d="M54.35,277.08c-0.27,0-0.49-0.22-0.5-0.49c0-0.28,0.21-0.5,0.49-0.51c2.94-0.06,5.9-0.78,8.55-2.09
						c0.25-0.12,0.55-0.02,0.67,0.23c0.12,0.25,0.02,0.55-0.23,0.67C60.55,276.26,57.45,277.02,54.35,277.08
						C54.36,277.08,54.35,277.08,54.35,277.08z"/>
				</g>
			</g>
		</g>
		<g id="Shine_00000129901806846043984120000014088499675039024562_">
			<g>
				<g>
					<path class="st7" d="M426.3,107.79c-0.41,0-0.75-0.33-0.75-0.75l-0.05-22.76c0-0.41,0.33-0.75,0.75-0.75c0,0,0,0,0,0
						c0.41,0,0.75,0.33,0.75,0.75l0.05,22.76C427.05,107.45,426.72,107.79,426.3,107.79C426.3,107.79,426.3,107.79,426.3,107.79z"/>
				</g>
				<g>
					<path class="st7" d="M416.81,112.35c-0.19,0-0.38-0.07-0.53-0.22l-13.77-13.77c-0.29-0.29-0.29-0.77,0-1.06s0.77-0.29,1.06,0
						l13.77,13.77c0.29,0.29,0.29,0.77,0,1.06C417.19,112.28,417,112.35,416.81,112.35z"/>
				</g>
				<g>
					<path class="st7" d="M415.93,117.43c-0.05,0-0.1,0-0.15-0.01l-17.42-3.43c-0.41-0.08-0.67-0.47-0.59-0.88
						c0.08-0.41,0.46-0.67,0.88-0.59l17.42,3.43c0.41,0.08,0.67,0.47,0.59,0.88C416.59,117.18,416.28,117.43,415.93,117.43z"/>
				</g>
				<g>
					<path class="st7" d="M402.15,125.4c-0.38,0-0.7-0.29-0.75-0.67c-0.04-0.41,0.25-0.78,0.67-0.83l13.15-1.43
						c0.41-0.05,0.78,0.25,0.83,0.67c0.04,0.41-0.25,0.78-0.67,0.83l-13.15,1.43C402.21,125.39,402.18,125.4,402.15,125.4z"/>
				</g>
				<g>
					<path class="st7" d="M448.78,126.95c-0.04,0-0.09,0-0.13-0.01l-11.04-1.98c-0.41-0.07-0.68-0.46-0.61-0.87
						c0.07-0.41,0.48-0.68,0.87-0.61l11.04,1.98c0.41,0.07,0.68,0.46,0.61,0.87C449.45,126.7,449.14,126.95,448.78,126.95z"/>
				</g>
				<g>
					<path class="st7" d="M431.32,109.19c-0.12,0-0.24-0.03-0.36-0.09c-0.36-0.2-0.5-0.65-0.3-1.02l6.38-11.83
						c0.2-0.36,0.65-0.5,1.02-0.3c0.36,0.2,0.5,0.65,0.3,1.02l-6.38,11.83C431.84,109.05,431.58,109.19,431.32,109.19z"/>
				</g>
				<g>
					<path class="st7" d="M437.18,117.96c-0.39,0-0.72-0.3-0.75-0.69c-0.03-0.41,0.28-0.77,0.69-0.81l16.96-1.32
						c0.42-0.01,0.77,0.28,0.81,0.69c0.03,0.41-0.28,0.77-0.69,0.81l-16.96,1.32C437.22,117.96,437.2,117.96,437.18,117.96z"/>
				</g>
				<g>
					<path class="st7" d="M421.17,107.44c-0.31,0-0.6-0.19-0.71-0.5l-3.35-9.47c-0.14-0.39,0.07-0.82,0.46-0.96
						c0.39-0.14,0.82,0.07,0.96,0.46l3.35,9.47c0.14,0.39-0.07,0.82-0.46,0.96C421.34,107.43,421.25,107.44,421.17,107.44z"/>
				</g>
				<g>
					<path class="st7" d="M435.46,112.46c-0.22,0-0.43-0.09-0.58-0.27c-0.26-0.32-0.22-0.79,0.1-1.06l6.58-5.42
						c0.32-0.26,0.79-0.22,1.06,0.1c0.26,0.32,0.22,0.79-0.1,1.06l-6.58,5.42C435.79,112.41,435.63,112.46,435.46,112.46z"/>
				</g>
			</g>
			<g>
				<g>
					<path class="st7" d="M239.59,34.27c-0.41,0-0.75-0.34-0.75-0.75l-0.01-32.77c0-0.41,0.34-0.75,0.75-0.75s0.75,0.34,0.75,0.75
						l0.01,32.77C240.34,33.94,240.01,34.27,239.59,34.27z"/>
				</g>
				<g>
					<path class="st7" d="M245.01,34c-0.15,0-0.31-0.05-0.44-0.15c-0.33-0.24-0.41-0.71-0.16-1.05l9.45-12.89
						c0.24-0.33,0.71-0.41,1.05-0.16c0.33,0.24,0.41,0.71,0.16,1.05l-9.45,12.89C245.46,33.9,245.24,34,245.01,34z"/>
				</g>
				<g>
					<path class="st7" d="M249.34,38.77c-0.3,0-0.58-0.18-0.7-0.47c-0.16-0.38,0.03-0.82,0.41-0.98l21.14-8.58
						c0.38-0.16,0.82,0.03,0.98,0.41c0.16,0.38-0.03,0.82-0.41,0.98l-21.14,8.58C249.53,38.75,249.44,38.77,249.34,38.77z"/>
				</g>
				<g>
					<path class="st7" d="M251.4,45.14c-0.37,0-0.69-0.27-0.74-0.64c-0.06-0.41,0.22-0.79,0.63-0.85l24.6-3.59
						c0.41-0.05,0.79,0.22,0.85,0.63c0.06,0.41-0.22,0.79-0.63,0.85l-24.6,3.59C251.47,45.13,251.43,45.14,251.4,45.14z"/>
				</g>
				<g>
					<path class="st7" d="M265.43,53.03c-0.02,0-0.04,0-0.06,0l-13.01-0.97c-0.41-0.03-0.72-0.39-0.69-0.8
						c0.03-0.41,0.4-0.72,0.8-0.69l13.01,0.97c0.41,0.03,0.72,0.39,0.69,0.8C266.15,52.73,265.82,53.03,265.43,53.03z"/>
				</g>
				<g>
					<path class="st7" d="M234.95,34.83c-0.29,0-0.56-0.17-0.69-0.45l-8.33-18.72c-0.17-0.38,0-0.82,0.38-0.99
						c0.37-0.17,0.82,0,0.99,0.38l8.33,18.72c0.17,0.38,0,0.82-0.38,0.99C235.16,34.81,235.06,34.83,234.95,34.83z"/>
				</g>
				<g>
					<path class="st7" d="M231.34,39.12c-0.1,0-0.2-0.02-0.3-0.06l-16.03-6.89c-0.38-0.16-0.56-0.61-0.39-0.99
						c0.16-0.38,0.61-0.55,0.99-0.39l16.03,6.89c0.38,0.16,0.56,0.61,0.39,0.99C231.91,38.95,231.63,39.12,231.34,39.12z"/>
				</g>
				<g>
					<path class="st7" d="M229.09,45.77c-0.04,0-0.07,0-0.11-0.01l-26.99-3.97c-0.41-0.06-0.69-0.44-0.63-0.85
						c0.06-0.41,0.44-0.68,0.85-0.63l26.99,3.97c0.41,0.06,0.69,0.44,0.63,0.85C229.77,45.5,229.45,45.77,229.09,45.77z"/>
				</g>
				<g>
					<path class="st7" d="M212.5,53.02c-0.39,0-0.72-0.3-0.75-0.7c-0.03-0.41,0.28-0.77,0.7-0.8l15.2-1.06
						c0.42-0.02,0.77,0.28,0.8,0.7c0.03,0.41-0.28,0.77-0.7,0.8l-15.2,1.06C212.53,53.02,212.52,53.02,212.5,53.02z"/>
				</g>
			</g>
			<g>
				<g>
					<path class="st7" d="M51.61,108.62L51.61,108.62c-0.42,0-0.75-0.34-0.75-0.75l0.05-28.8c0-0.41,0.34-0.75,0.75-0.75h0
						c0.42,0,0.75,0.34,0.75,0.75l-0.05,28.8C52.36,108.29,52.03,108.62,51.61,108.62z"/>
				</g>
				<g>
					<path class="st7" d="M61.1,114.4c-0.16,0-0.33-0.05-0.46-0.16c-0.33-0.26-0.38-0.73-0.12-1.05l13.77-17.42
						c0.26-0.32,0.73-0.38,1.05-0.12c0.33,0.26,0.38,0.73,0.12,1.05l-13.77,17.42C61.55,114.3,61.33,114.4,61.1,114.4z"/>
				</g>
				<g>
					<path class="st7" d="M61.99,120.82c-0.34,0-0.64-0.23-0.73-0.57c-0.1-0.4,0.14-0.81,0.55-0.91L79.23,115
						c0.4-0.1,0.81,0.14,0.91,0.55s-0.14,0.81-0.55,0.91l-17.42,4.35C62.11,120.81,62.05,120.82,61.99,120.82z"/>
				</g>
				<g>
					<path class="st7" d="M75.76,130.9c-0.03,0-0.07,0-0.1-0.01l-13.15-1.81c-0.41-0.06-0.7-0.43-0.64-0.85
						c0.06-0.41,0.42-0.7,0.85-0.64l13.15,1.81c0.41,0.06,0.7,0.43,0.64,0.85C76.45,130.63,76.13,130.9,75.76,130.9z"/>
				</g>
				<g>
					<path class="st7" d="M29.13,132.88c-0.34,0-0.65-0.24-0.73-0.58c-0.09-0.4,0.16-0.81,0.57-0.9l11.04-2.5
						c0.41-0.09,0.8,0.16,0.9,0.57c0.09,0.4-0.16,0.81-0.57,0.9l-11.04,2.5C29.24,132.87,29.19,132.88,29.13,132.88z"/>
				</g>
				<g>
					<path class="st7" d="M46.6,110.4c-0.29,0-0.57-0.17-0.69-0.46l-6.38-14.97c-0.16-0.38,0.01-0.82,0.4-0.98
						c0.38-0.16,0.82,0.01,0.98,0.4l6.38,14.97c0.16,0.38-0.01,0.82-0.4,0.98C46.8,110.38,46.7,110.4,46.6,110.4z"/>
				</g>
				<g>
					<path class="st7" d="M40.73,121.5c-0.02,0-0.05,0-0.07,0l-16.96-1.66c-0.41-0.04-0.71-0.41-0.67-0.82s0.42-0.72,0.82-0.67
						L40.81,120c0.41,0.04,0.71,0.41,0.67,0.82C41.44,121.21,41.12,121.5,40.73,121.5z"/>
				</g>
				<g>
					<path class="st7" d="M56.75,108.19c-0.07,0-0.13-0.01-0.2-0.03c-0.4-0.11-0.63-0.53-0.52-0.92l3.35-11.99
						c0.11-0.4,0.52-0.63,0.92-0.52c0.4,0.11,0.63,0.53,0.52,0.92l-3.35,11.99C57.38,107.97,57.07,108.19,56.75,108.19z"/>
				</g>
				<g>
					<path class="st7" d="M42.46,114.54c-0.2,0-0.39-0.08-0.54-0.23l-6.58-6.86c-0.29-0.3-0.28-0.77,0.02-1.06
						c0.3-0.29,0.77-0.28,1.06,0.02l6.58,6.86c0.29,0.3,0.28,0.77-0.02,1.06C42.83,114.47,42.64,114.54,42.46,114.54z"/>
				</g>
			</g>
		</g>
	</g>
</g>
<g id="Guide">
</g>
</svg>
