<?xml version="1.0" encoding="utf-8"?>
<!-- Generator: Adobe Illustrator 26.1.0, SVG Export Plug-In . SVG Version: 6.00 Build 0)  -->
<svg version="1.1" xmlns="http://www.w3.org/2000/svg" xmlns:xlink="http://www.w3.org/1999/xlink" x="0px" y="0px"
	 viewBox="0 0 441.9 434.24" style="enable-background:new 0 0 441.9 434.24;" xml:space="preserve">
<style type="text/css">
	.st0{fill:#FFFFFF;stroke:#000000;stroke-miterlimit:10;}
	.st1{fill:#BFA071;stroke:#554B4E;stroke-width:1.5;stroke-linecap:round;stroke-linejoin:round;stroke-miterlimit:10;}
	.st2{fill:#BFA071;stroke:#554B4E;stroke-linecap:round;stroke-linejoin:round;stroke-miterlimit:10;}
	.st3{fill:#F8F4E9;stroke:#554B4E;stroke-width:1.5;stroke-linecap:round;stroke-linejoin:round;stroke-miterlimit:10;}
	.st4{fill:#F2DED6;stroke:#554B4E;stroke-width:1.5;stroke-linecap:round;stroke-linejoin:round;stroke-miterlimit:10;}
	.st5{fill:none;stroke:#554B4E;stroke-linecap:round;stroke-linejoin:round;stroke-miterlimit:10;}
	.st6{fill:#BFA071;}
	.st7{fill:#554B4E;}
	.st8{fill:#F8F4E9;}
	.st9{fill:none;stroke:#554B4E;stroke-width:1.5;stroke-linecap:round;stroke-linejoin:round;stroke-miterlimit:10;}
	.st10{fill:#F8F4E9;stroke:#554B4E;stroke-linecap:round;stroke-linejoin:round;stroke-miterlimit:10;}
	.st11{fill:#F2DED6;stroke:#554B4E;stroke-linecap:round;stroke-linejoin:round;stroke-miterlimit:10;}
	.st12{clip-path:url(#SVGID_00000061432897298664511880000009889454356028074889_);}
	.st13{fill:none;stroke:#BFA071;stroke-width:1.5;stroke-linecap:round;stroke-linejoin:round;}
	.st14{fill:none;stroke:#BFA071;stroke-width:1.5;stroke-linecap:round;stroke-linejoin:round;stroke-dasharray:68.8403,19.6687;}
	.st15{fill:none;stroke:#BFA071;stroke-width:1.5;stroke-linecap:round;stroke-linejoin:round;stroke-dasharray:71.4455,20.413;}
	.st16{fill:none;stroke:#BFA071;stroke-width:1.5;stroke-linecap:round;stroke-linejoin:round;stroke-dasharray:69.5884,19.8824;}
	.st17{fill:none;stroke:#BFA071;stroke-width:1.5;stroke-linecap:round;stroke-linejoin:round;stroke-dasharray:61.3524,17.5292;}
	.st18{fill:none;stroke:#BFA071;stroke-width:1.5;stroke-linecap:round;stroke-linejoin:round;stroke-dasharray:63.9932,18.2838;}
	.st19{fill:none;stroke:#BFA071;stroke-width:1.5;stroke-linecap:round;stroke-linejoin:round;stroke-dasharray:72.7778,20.7937;}
	.st20{fill:none;stroke:#BFA071;stroke-width:1.5;stroke-linecap:round;stroke-linejoin:round;stroke-dasharray:77.193,22.0551;}
	.st21{fill:none;stroke:#BFA071;stroke-width:1.5;stroke-linecap:round;stroke-linejoin:round;stroke-dasharray:75.3802,21.5372;}
	.st22{fill:none;stroke:#BFA071;stroke-width:1.5;stroke-linecap:round;stroke-linejoin:round;stroke-dasharray:73.6885,21.0538;}
	.st23{fill:none;stroke:#BFA071;stroke-width:1.5;stroke-linecap:round;stroke-linejoin:round;stroke-dasharray:63.3162,18.0903;}
	.st24{fill:none;stroke:#BFA071;stroke-width:1.5;stroke-linecap:round;stroke-linejoin:round;stroke-dasharray:62.0513,17.7289;}
	.st25{fill:none;stroke:#BFA071;stroke-width:1.5;stroke-linecap:round;stroke-linejoin:round;stroke-dasharray:68.9157,19.6902;}
	.st26{fill:none;stroke:#554B4E;stroke-width:1.5;stroke-linecap:round;stroke-linejoin:round;}
	.st27{fill:none;stroke:#554B4E;stroke-width:1.5;stroke-linecap:round;stroke-linejoin:round;stroke-dasharray:15.0532,10.0355;}
	.st28{fill:none;stroke:#554B4E;stroke-width:1.5;stroke-linecap:round;stroke-linejoin:round;stroke-dasharray:14.9985,9.999;}
	.st29{fill:none;stroke:#554B4E;stroke-width:1.5;stroke-linecap:round;stroke-linejoin:round;stroke-dasharray:14.8977,9.9318;}
	.st30{fill:none;stroke:#554B4E;stroke-width:1.5;stroke-linecap:round;stroke-linejoin:round;stroke-dasharray:15.4213,10.2808;}
	.st31{fill:none;stroke:#554B4E;stroke-width:1.5;stroke-linecap:round;stroke-linejoin:round;stroke-dasharray:15.2271,10.1514;}
	.st32{fill:none;stroke:#554B4E;stroke-width:1.5;stroke-linecap:round;stroke-linejoin:round;stroke-dasharray:15.021,10.014;}
	.st33{fill:none;stroke:#554B4E;stroke-width:1.5;stroke-linecap:round;stroke-linejoin:round;stroke-dasharray:15.0727,10.0485;}
	.st34{fill:none;stroke:#554B4E;stroke-width:1.5;stroke-linecap:round;stroke-linejoin:round;stroke-dasharray:14.6942,9.7961;}
	.st35{fill:none;stroke:#554B4E;stroke-width:1.5;stroke-linecap:round;stroke-linejoin:round;stroke-dasharray:14.7469,9.8312;}
	.st36{fill:none;stroke:#554B4E;stroke-width:1.5;stroke-linecap:round;stroke-linejoin:round;stroke-dasharray:15.0819,10.0546;}
	.st37{fill:none;stroke:#554B4E;stroke-width:1.5;stroke-linecap:round;stroke-linejoin:round;stroke-dasharray:15.003,10.002;}
	.st38{fill:#F2DED6;}
	.st39{fill:#F2DED6;stroke:#554B4E;stroke-width:1.5;stroke-linecap:round;stroke-miterlimit:10;}
	.st40{fill:none;stroke:#554B4E;stroke-width:1.5;stroke-linecap:round;stroke-miterlimit:10;}
	.st41{fill:none;stroke:#554B4E;stroke-linecap:round;stroke-miterlimit:10;}
	.st42{fill:none;stroke:#BFA071;stroke-linecap:round;stroke-linejoin:round;}
	.st43{fill:none;stroke:#BFA071;stroke-linecap:round;stroke-linejoin:round;stroke-dasharray:14.9905,14.9905;}
	.st44{fill:none;stroke:#BFA071;stroke-linecap:round;stroke-linejoin:round;stroke-dasharray:51.384,34.256;}
	.st45{fill:none;stroke:#554B4E;stroke-miterlimit:10;}
	.st46{clip-path:url(#SVGID_00000182516723537961499060000016420461075902650260_);}
	.st47{fill:none;stroke:#554B4E;stroke-width:1.5;stroke-linecap:round;stroke-linejoin:round;stroke-dasharray:68.8403,19.6687;}
	.st48{fill:none;stroke:#554B4E;stroke-width:1.5;stroke-linecap:round;stroke-linejoin:round;stroke-dasharray:71.4455,20.413;}
	.st49{fill:none;stroke:#554B4E;stroke-width:1.5;stroke-linecap:round;stroke-linejoin:round;stroke-dasharray:69.5884,19.8824;}
	.st50{fill:none;stroke:#554B4E;stroke-width:1.5;stroke-linecap:round;stroke-linejoin:round;stroke-dasharray:61.3524,17.5292;}
	.st51{fill:none;stroke:#554B4E;stroke-width:1.5;stroke-linecap:round;stroke-linejoin:round;stroke-dasharray:63.9932,18.2838;}
	.st52{fill:none;stroke:#554B4E;stroke-width:1.5;stroke-linecap:round;stroke-linejoin:round;stroke-dasharray:72.7778,20.7937;}
	.st53{fill:none;stroke:#554B4E;stroke-width:1.5;stroke-linecap:round;stroke-linejoin:round;stroke-dasharray:77.193,22.0551;}
	.st54{fill:none;stroke:#554B4E;stroke-width:1.5;stroke-linecap:round;stroke-linejoin:round;stroke-dasharray:75.3802,21.5372;}
	.st55{fill:none;stroke:#554B4E;stroke-width:1.5;stroke-linecap:round;stroke-linejoin:round;stroke-dasharray:73.6885,21.0538;}
	.st56{fill:none;stroke:#554B4E;stroke-width:1.5;stroke-linecap:round;stroke-linejoin:round;stroke-dasharray:63.3162,18.0903;}
	.st57{fill:none;stroke:#554B4E;stroke-width:1.5;stroke-linecap:round;stroke-linejoin:round;stroke-dasharray:62.0513,17.7289;}
	.st58{fill:none;stroke:#554B4E;stroke-width:1.5;stroke-linecap:round;stroke-linejoin:round;stroke-dasharray:68.9157,19.6902;}
	.st59{fill:none;stroke:#554B4E;stroke-linecap:round;stroke-linejoin:round;}
	.st60{fill:none;stroke:#554B4E;stroke-linecap:round;stroke-linejoin:round;stroke-dasharray:14.9905,14.9905;}
	.st61{fill:none;stroke:#554B4E;stroke-linecap:round;stroke-linejoin:round;stroke-dasharray:51.384,34.256;}
	.st62{fill:#95608F;}
	.st63{fill:#ED859E;}
	.st64{fill:#FAC87D;}
	.st65{opacity:0.1;}
	.st66{fill:#B5846F;}
	.st67{fill:#B5846F;stroke:#B5846F;stroke-width:5;stroke-linecap:round;stroke-linejoin:round;stroke-miterlimit:10;}
	.st68{fill:#EAD9EB;}
	.st69{fill:#FFFFFF;}
	.st70{fill:url(#SVGID_00000183933904437853089850000017349633496199683720_);}
	.st71{opacity:0.8;fill:#FFFFFF;}
	.st72{fill:url(#SVGID_00000150084429699852578920000014021205153514769033_);}
	.st73{fill:url(#SVGID_00000163781087635316672800000010192997827843385228_);}
	.st74{opacity:0.8;}
	.st75{opacity:0.6;}
	.st76{opacity:0.2;}
	.st77{fill:none;}
	.st78{fill:url(#SVGID_00000117653061974705587370000001863738783024031104_);}
	.st79{fill:url(#SVGID_00000129197455562976736060000011386741443884600765_);}
	.st80{clip-path:url(#SVGID_00000078010243915637278280000011632765738659898267_);fill:#FFFFFF;}
	.st81{clip-path:url(#SVGID_00000182523371621049491910000009021994867550872757_);fill:#FFFFFF;}
	.st82{clip-path:url(#SVGID_00000013178616682297390680000008005163541690796212_);fill:#FFFFFF;}
	.st83{clip-path:url(#SVGID_00000066478452651747455570000014471715360841279164_);fill:#FFFFFF;}
	.st84{clip-path:url(#SVGID_00000059999425834882888600000000182294275623871409_);fill:#FFFFFF;}
</style>
<g id="Bg">
</g>
<g id="Graphic">
	<g id="Skull_00000159463889754811266070000000161796818251581625_">
		<g id="Skull_00000037678086685462215750000015341690854671660449_">
			<path class="st6" d="M20.24,339.55c-0.4,13.96-4.99,27.77-13.03,39.19c-3.33,4.73-7.46,9.95-6.25,15.61
				c1.7,7.91,12.07,10.01,17.38,16.12c2.83,3.25,4.12,7.59,6.79,10.97c4.72,5.97,12.82,7.96,20.35,9.06
				c17.06,2.5,34.38,2.38,51.62,2.26c25.67-0.18,53.19,2.43,78.59-1.3c14.15-2.07,29.77-4.98,38.42-16.36
				c3.62-4.76,5.59-10.53,7.47-16.2c6.92-20.91,15.17-44.22,34.99-53.82c1.51-0.73,3.29-1.37,4.83-0.69
				c2.92,1.29,14.45,6.47,14.54,9.67c0.2,6.53,1.19,13.73,7.03,16.65c11.2,5.62,16.96,2.42,28.88-1.45
				c11.92-3.86,22.48-11.05,32.23-18.92c29.28-23.66,57.27-44.95,72.26-79.48c10.24-23.58,11.98-58.17,18.22-83.1
				c5.1-20.39,10.16-42.22,3.11-62.03c-3.39-9.52-9.38-17.88-15.71-25.77c-20.21-25.2-46.77-45-73.36-63.33
				C311.34,10.93,265.07,0.43,219.79,0.76c-12.59,0.09-25.26,0.99-37.45,4.14c-37.79,9.78-66.66,39.73-91.58,69.77
				c-5.28,6.36-10.53,12.89-13.86,20.45c-3.4,7.74-4.66,16.32-8.47,23.87c-3.81,7.56-7.95,20.09-10.77,28.07
				c-2.35,6.67-2.1,13.95-3.53,20.87c-2.12,10.21-7.81,19.28-11.39,29.08c-3.77,10.31-7.27,15.23-6.14,26.15
				c0.24,2.37,0.62,4.77,1.72,6.88c1.83,3.51,5.4,5.73,8.03,8.7c5.75,6.48,6.56,16.3,3.83,24.52c-2.73,8.22-12.3,26.3-18.55,32.29"
				/>
			<path class="st7" d="M142.59,434.24c-7.26,0-14.53-0.18-21.71-0.37c-7.86-0.2-15.97-0.41-23.76-0.35
				c-17,0.12-34.57,0.24-51.73-2.27c-7.52-1.1-15.88-3.07-20.83-9.34c-1.3-1.65-2.29-3.52-3.24-5.33c-1.08-2.04-2.09-3.97-3.53-5.62
				c-1.99-2.29-4.81-4.05-7.53-5.75c-4.38-2.74-8.91-5.56-10.02-10.7c-1.2-5.56,2.42-10.65,5.61-15.14l0.75-1.06
				c7.92-11.25,12.5-25.03,12.89-38.78c0.01-0.41,0.37-0.73,0.77-0.73c0.41,0.01,0.74,0.36,0.73,0.77
				c-0.4,14.05-5.08,28.11-13.17,39.6l-0.76,1.07c-3.16,4.44-6.43,9.04-5.37,13.95c0.97,4.51,5.04,7.05,9.35,9.74
				c2.81,1.76,5.73,3.58,7.87,6.04c1.55,1.78,2.66,3.88,3.72,5.9c0.92,1.75,1.88,3.55,3.09,5.1c4.63,5.86,12.64,7.73,19.87,8.79
				c17.04,2.5,34.56,2.37,51.5,2.26c7.81-0.05,15.94,0.15,23.81,0.35c18.22,0.46,37.06,0.94,54.68-1.64
				c14.64-2.14,29.63-5.15,37.93-16.07c3.65-4.8,5.62-10.74,7.35-15.98c6.17-18.66,14.62-44.21,35.37-54.26
				c1.57-0.76,3.61-1.53,5.46-0.71c9.87,4.35,14.92,7.83,14.99,10.33c0.19,6.37,1.13,13.26,6.61,16c9.61,4.82,15.15,2.94,24.34-0.17
				c1.25-0.42,2.57-0.87,3.97-1.32c10.08-3.27,19.95-9.06,31.99-18.79l4.67-3.77c27.39-22.07,53.25-42.91,67.37-75.43
				c6.4-14.75,9.46-33.81,12.41-52.25c1.77-11.03,3.44-21.46,5.76-30.73c4.61-18.41,10.34-41.33,3.13-61.59
				c-3.44-9.67-9.52-17.99-15.58-25.55c-21.03-26.22-48.81-46.36-73.21-63.18C305.54,7.84,256.32,1.5,221.84,1.5
				c-0.69,0-1.37,0-2.04,0.01c-14.99,0.11-26.83,1.42-37.27,4.12c-37.51,9.7-65.99,39.15-91.19,69.53
				c-5.63,6.79-10.55,13-13.75,20.28c-1.53,3.48-2.65,7.22-3.73,10.84c-1.31,4.38-2.66,8.9-4.76,13.07
				c-3.2,6.34-6.6,16.13-9.33,23.99c-0.49,1.42-0.96,2.76-1.39,3.99c-1.4,3.97-1.87,8.28-2.32,12.44c-0.3,2.74-0.61,5.58-1.18,8.33
				c-1.34,6.48-4.14,12.57-6.84,18.46c-1.6,3.49-3.25,7.09-4.58,10.73c-0.81,2.21-1.59,4.14-2.34,6.01
				c-2.68,6.62-4.62,11.41-3.75,19.81c0.23,2.24,0.59,4.6,1.64,6.61c1.12,2.14,2.91,3.77,4.82,5.5c1.06,0.96,2.15,1.95,3.11,3.04
				c5.47,6.16,7.03,16.07,3.98,25.25c-2.76,8.29-12.45,26.57-18.74,32.6c-0.3,0.28-0.77,0.28-1.06-0.02s-0.28-0.77,0.02-1.06
				c6.14-5.89,15.65-23.83,18.36-31.99c2.89-8.68,1.44-18.02-3.68-23.78c-0.91-1.03-1.98-1.99-3-2.93c-1.92-1.74-3.9-3.54-5.14-5.92
				c-1.17-2.24-1.56-4.76-1.8-7.15c-0.9-8.77,1.09-13.71,3.86-20.53c0.75-1.85,1.53-3.77,2.33-5.96c1.35-3.69,3.01-7.32,4.63-10.84
				c2.67-5.81,5.43-11.83,6.73-18.14c0.56-2.68,0.86-5.48,1.16-8.19c0.46-4.25,0.94-8.65,2.4-12.78c0.43-1.23,0.9-2.57,1.39-3.99
				c2.75-7.9,6.17-17.74,9.41-24.17c2.04-4.05,3.37-8.51,4.66-12.82c1.09-3.66,2.22-7.44,3.79-11.01
				c3.27-7.45,8.26-13.75,13.97-20.63c25.36-30.57,54.05-60.21,91.97-70.02c10.56-2.73,22.52-4.06,37.64-4.17
				c34.78-0.26,85.43,5.79,129.25,36.01c24.48,16.88,52.37,37.1,73.52,63.48c6.14,7.66,12.31,16.11,15.83,25.99
				c7.36,20.69,1.56,43.85-3.09,62.46c-2.31,9.22-3.97,19.61-5.74,30.61c-2.97,18.53-6.04,37.69-12.52,52.61
				c-14.27,32.86-40.27,53.81-67.8,76l-4.67,3.77c-8.21,6.63-19.31,14.79-32.47,19.06c-1.4,0.45-2.71,0.9-3.95,1.32
				c-9.56,3.23-15.33,5.18-25.5,0.09c-6.19-3.1-7.24-10.49-7.44-17.3c-0.04-1.3-3.75-4.44-14.1-9c-1.29-0.57-2.92,0.07-4.2,0.68
				c-20.18,9.77-28.51,34.98-34.6,53.38c-1.77,5.35-3.78,11.42-7.58,16.42c-8.64,11.37-23.96,14.46-38.91,16.65
				C165.03,433.8,153.83,434.24,142.59,434.24z"/>
		</g>
		<g id="Eyes_00000048482005433573898410000012576089867578187674_">
			<g>
				<path class="st8" d="M137.65,177c0.82-3.34,1.69-6.77,3.75-9.53c3.26-4.38,8.87-6.27,14.17-7.73c5.02-1.37,10.09-2.57,15.19-3.6
					c7.86-1.57,16.45-2.63,23.61,1.03c17.07,8.74,22.49,34.57,17.08,51.31c-4.36,13.51-13.73,34.24-27.96,35.99
					c-5.45,0.67-11.69,0.7-17.12,1.49c-4.71,0.68-17.74-10.06-22.44-10.88C118.75,230.68,133.98,191.84,137.65,177z"/>
				<path class="st7" d="M165.94,246.75c-3.03,0-8.09-3.11-12.99-6.12c-3.57-2.2-7.26-4.47-9.15-4.8
					c-5.25-0.92-9.17-3.38-11.62-7.32c-6.9-11.05-1.06-31.32,2.81-44.73c0.78-2.7,1.45-5.02,1.93-6.97l0,0
					c0.8-3.22,1.7-6.87,3.87-9.79c3.46-4.64,9.34-6.57,14.58-8c5.01-1.37,10.14-2.59,15.25-3.61c8.2-1.64,16.79-2.64,24.1,1.1
					c16.85,8.63,23.11,34.68,17.45,52.21c-3.33,10.33-12.79,34.56-28.58,36.5c-2.53,0.31-5.27,0.49-7.91,0.66
					c-3.09,0.2-6.29,0.41-9.19,0.83C166.31,246.74,166.13,246.75,165.94,246.75z M182.87,155.44c-3.93,0-7.99,0.64-11.96,1.44
					c-5.07,1.01-10.16,2.22-15.14,3.59c-5,1.37-10.6,3.19-13.77,7.45c-1.99,2.68-2.86,6.17-3.62,9.26l0,0
					c-0.49,1.97-1.16,4.31-1.94,7.02c-3.79,13.15-9.53,33.03-2.98,43.51c2.22,3.56,5.79,5.79,10.61,6.63c2.17,0.38,5.82,2.62,9.67,5
					c4.75,2.92,10.13,6.23,12.53,5.88c2.96-0.43,6.19-0.64,9.31-0.84c2.63-0.17,5.34-0.34,7.83-0.65
					c14.93-1.83,24.09-25.42,27.34-35.47c5.47-16.96-0.51-42.12-16.71-50.41C190.59,156.08,186.79,155.44,182.87,155.44z
					 M137.65,177L137.65,177L137.65,177z"/>
			</g>
			<g>
				<path class="st8" d="M74.3,133.44c4.64-4.34,12.7-5.16,18.95-2.87c6.25,2.28,10.78,7.14,13.5,12.45
					c2.72,5.32-2.08,7.93-0.98,13.67c0.13,0.71-1.15,3.21-1.86,3.6c-10.98,6.01-18.64,12.78-26,21.98
					c-2.42,3.02-4.51,6.85-8.66,7.73c-4.88,1.03-13.5,0.4-14.12-3.84c-0.61-4.24,5.5-11.92,7.11-15.99
					C67,158.13,63.54,143.51,74.3,133.44z"/>
				<path class="st7" d="M64.75,191.17c-3.03,0-6.34-0.52-8.4-1.96c-1.13-0.79-1.79-1.78-1.96-2.95c-0.45-3.08,2.17-7.51,4.49-11.42
					c1.1-1.87,2.15-3.64,2.67-4.95c1.71-4.32,2.35-9.1,2.97-13.72c1.11-8.21,2.25-16.71,9.27-23.28l0,0
					c4.56-4.26,12.85-5.54,19.72-3.03c5.83,2.13,10.77,6.68,13.91,12.81c1.64,3.2,0.78,5.57-0.05,7.85
					c-0.65,1.78-1.32,3.62-0.86,6.02c0.2,1.02-1.25,3.86-2.24,4.4c-10.4,5.69-18.11,12.21-25.77,21.79
					c-0.43,0.53-0.84,1.09-1.26,1.66c-2.04,2.73-4.14,5.56-7.83,6.33C68.14,190.99,66.49,191.17,64.75,191.17z M74.81,133.99
					c-6.63,6.2-7.69,14.06-8.81,22.38c-0.63,4.71-1.29,9.59-3.06,14.07c-0.56,1.42-1.63,3.24-2.77,5.16
					c-2.08,3.52-4.66,7.89-4.29,10.45c0.11,0.75,0.54,1.38,1.33,1.93c2.57,1.79,8.17,2.06,11.89,1.28c3.13-0.66,5.06-3.25,6.93-5.76
					c0.43-0.58,0.86-1.15,1.29-1.7c7.8-9.74,15.64-16.37,26.22-22.17c0.45-0.28,1.5-2.29,1.48-2.83c-0.53-2.78,0.24-4.91,0.92-6.79
					c0.79-2.17,1.47-4.04,0.13-6.66c-2.96-5.8-7.61-10.09-13.09-12.09C86.63,128.94,78.98,130.09,74.81,133.99L74.81,133.99z"/>
			</g>
		</g>
		<g id="Nose_00000134248918279787608010000011925563423922105266_">
			<path class="st8" d="M69.43,242.45c-1.9,5.03-4.41,10.58-2.34,15.55c2.11,5.08,8.14,7.25,13.6,7.87
				c7.63,0.87,15.47-0.17,22.6-3.01c0.69-4.85,1.39-9.69,2.08-14.54c0.25-1.77,0.5-3.58,0.08-5.32c-0.37-1.53-1.25-2.89-1.83-4.36
				c-1.25-3.17-1.07-6.68-1.13-10.09c-0.22-13.17-4.68-26.77-14.47-35.58c-1.31-1.18-3.11-2.33-4.72-1.61
				c-0.76,0.34-1.3,1.03-1.78,1.71C70.29,208.67,76.03,224.97,69.43,242.45z"/>
			<path class="st7" d="M85.96,266.91c-1.79,0-3.58-0.1-5.35-0.3c-4.22-0.48-11.67-2.2-14.21-8.33c-2-4.82,0.04-10.13,1.84-14.8
				l0.5-1.3l0,0c2.72-7.21,3.33-14.3,3.91-21.15c0.83-9.85,1.62-19.16,8.28-28.39c0.55-0.77,1.17-1.55,2.09-1.96
				c1.6-0.71,3.46-0.12,5.53,1.74c9.11,8.19,14.47,21.35,14.72,36.12c0.01,0.49,0.01,0.97,0.01,1.46c0.02,2.84,0.04,5.77,1.06,8.36
				c0.21,0.53,0.46,1.05,0.71,1.56c0.44,0.91,0.9,1.86,1.15,2.9c0.46,1.9,0.18,3.87-0.07,5.6l-2.08,14.54
				c-0.04,0.27-0.22,0.49-0.47,0.59C97.97,265.77,91.97,266.91,85.96,266.91z M70.13,242.71l-0.5,1.3
				c-1.78,4.63-3.62,9.42-1.85,13.69c2.25,5.42,9.11,6.97,13,7.41c7.37,0.84,14.91-0.13,21.84-2.8l2.02-14.1
				c0.24-1.68,0.49-3.42,0.1-5.03c-0.22-0.88-0.62-1.72-1.04-2.6c-0.26-0.54-0.53-1.09-0.75-1.67c-1.12-2.85-1.14-5.92-1.17-8.9
				c0-0.48-0.01-0.97-0.01-1.45c-0.24-14.35-5.43-27.12-14.23-35.03c-1.09-0.98-2.66-2.04-3.92-1.48c-0.58,0.26-1.03,0.84-1.48,1.46
				c-6.41,8.9-7.18,18-8,27.64C73.54,228.11,72.93,235.31,70.13,242.71z"/>
		</g>
		<g id="Tooth_00000000917095906711560970000009133255292268286623_">
			<g>
				<path class="st38" d="M168.8,322.83l-4.82,6.98h-53.19L69.16,319.3l-37.12-5.62l-3.54,13.04l22.96,9.37l31.59,9.43l27.73,8.07
					l15.28,2.48h13.62l14.92,3.14l5.29,5.43c4.51,1.18,9.35-1.21,12.39-4.75s4.64-8.06,6.18-12.46c2.33-6.67,3.85-15.3,5.01-22.27
					c-2.02,1.29-4.84,0.46-6.52-1.24c-1.69-1.7-2.51-4.05-3.28-6.32c-1.14,1.9-2.66,3.56-4.43,4.89"/>
			</g>
			<g>
				<g>
					<path class="st8" d="M160.88,364.01c0.81-3.88,1.23-8.76-2.06-10.96c-1.43-0.96-3.23-1.11-4.95-1.24
						c-1.82-0.13-3.86-0.47-5.98-0.86c-6.05-1.13-12.23-1.27-18.34-0.6c-1.45,0.16-2.79,0.21-3.49,0.1
						c-6.48-1.1-3.82-1.16-14.66-1.81c-2.53-0.15-5-0.72-7.42-1.45c-1.33-0.4-2.84-0.46-4.14-1.09c-0.97-0.47-1.66-1.38-2.6-1.9
						c-3.11-1.71-11.75-4.37-18.07-4.66c1.21-1.88-6.45-2.89-8.62-3.43c-4.38-1.09-3.94-2.35-8.42-1.81
						c-0.45,0.05-3.2-1.9-3.82-2.16c-2.53-1.03-5.24-1.55-7.87-2.25c-5.67-1.5-9.47-6.86-15.85-6.15c0,0,0.76-6.56-11.58-5.06
						c-1.64,0.52-1.25,2.08-1.68,3.75c-1.29,9.71-0.81,7.35-1.09,17.14l0.02,0.03c4.08,0.67,8.38-0.1,11.98-2.15
						c3.24,4.37,10.74,1.09,15.31,4.05c1.5,0.97,2.59,2.59,4.25,3.23c2.54,0.98,5.28-0.62,7.53-2.15c1.84,2.69,3.74,5.44,6.45,7.24
						c2.71,1.8,6.46,2.43,9.2,0.67c1.89,2.51,5.02,4.04,8.17,4c1.14-0.02,2.36-0.21,3.35,0.35c0.69,0.39,1.15,1.08,1.75,1.59
						c3.2,2.69,8.53-0.68,12.14,1.41c2.09,1.21,3.1,4.02,5.43,4.65c1.25,0.34,2.57-0.06,3.87-0.09c2.76-0.07,5.25,1.5,7.79,2.61
						c6.02,2.63,13.12,2.67,19.17,0.12c1.03-0.43,2.08-0.95,3.19-0.84c1.71,0.16,2.94,1.7,4.49,2.44c2.75,1.3,5.94-0.07,8.74-1.25
						c2.8-1.18,3.92-1.44,6.84-0.82"/>
					<path class="st7" d="M146.8,367.99c-0.94,0-1.88-0.17-2.79-0.61c-0.65-0.31-1.22-0.73-1.78-1.13c-0.82-0.6-1.6-1.16-2.46-1.24
						c-0.82-0.08-1.65,0.28-2.53,0.66l-0.3,0.13c-6.2,2.61-13.59,2.57-19.76-0.13c-0.55-0.24-1.11-0.51-1.66-0.77
						c-1.96-0.94-3.82-1.84-5.81-1.78c-0.41,0.01-0.82,0.06-1.23,0.11c-0.92,0.11-1.88,0.22-2.86-0.04
						c-1.54-0.42-2.54-1.59-3.5-2.72c-0.68-0.8-1.32-1.55-2.11-2.01c-1.5-0.87-3.42-0.66-5.44-0.42c-2.4,0.27-4.88,0.56-6.8-1.06
						c-0.25-0.21-0.48-0.45-0.71-0.69c-0.31-0.32-0.6-0.63-0.92-0.81c-0.62-0.35-1.44-0.31-2.3-0.27c-0.23,0.01-0.45,0.02-0.67,0.02
						c-3.13,0.07-6.3-1.39-8.36-3.78c-3.07,1.58-6.88,0.67-9.43-1.02c-2.65-1.76-4.57-4.39-6.24-6.83c-2.45,1.6-5.04,2.8-7.6,1.82
						c-1.13-0.43-1.98-1.23-2.81-1.99c-0.53-0.49-1.03-0.95-1.58-1.31c-1.87-1.21-4.42-1.28-6.88-1.35
						c-3.04-0.08-6.17-0.17-8.2-2.38c-3.64,1.91-7.85,2.59-11.92,1.93c-0.22-0.04-0.41-0.17-0.52-0.36
						c-0.07-0.12-0.12-0.29-0.12-0.43c0.08-2.72,0.1-4.5,0.11-5.86c0.04-3.56,0.04-4.3,0.98-11.35c0.12-0.5,0.17-0.91,0.23-1.31
						c0.15-1.18,0.32-2.52,1.97-3.05c0.04-0.01,0.09-0.02,0.14-0.03c5.23-0.64,8.91,0.05,10.91,2.05c1.04,1.03,1.38,2.18,1.48,2.95
						c3.71-0.13,6.61,1.62,9.41,3.34c1.86,1.14,3.79,2.32,5.92,2.89c0.69,0.18,1.38,0.35,2.08,0.52c1.95,0.48,3.97,0.97,5.89,1.76
						c0.29,0.12,0.79,0.43,1.57,0.92c0.62,0.39,1.63,1.04,1.99,1.17c2.96-0.35,3.96,0.1,5.35,0.71c0.79,0.35,1.69,0.74,3.23,1.13
						c0.4,0.1,0.98,0.21,1.67,0.35c3.91,0.77,6.94,1.47,7.54,2.88c0.03,0.08,0.06,0.16,0.08,0.23c6.4,0.47,14.56,3.04,17.59,4.7
						c0.51,0.28,0.94,0.65,1.35,1c0.41,0.35,0.79,0.68,1.22,0.89c0.71,0.35,1.52,0.5,2.37,0.67c0.55,0.11,1.11,0.22,1.65,0.38
						c2.78,0.84,5.08,1.29,7.25,1.42c7.86,0.47,8.71,0.65,10.98,1.11c0.88,0.18,1.96,0.4,3.76,0.71c0.57,0.1,1.8,0.06,3.28-0.1
						c6.41-0.7,12.65-0.5,18.56,0.61c2.53,0.47,4.35,0.74,5.89,0.85c1.64,0.12,3.67,0.27,5.31,1.36c4.23,2.83,2.83,9.54,2.38,11.74
						c-0.08,0.41-0.49,0.66-0.89,0.58c-0.03,0-0.05-0.01-0.07-0.02c0,0.02-0.01,0.05-0.01,0.07c-0.09,0.41-0.48,0.67-0.89,0.58
						c-2.72-0.59-3.7-0.36-6.39,0.77l-0.09,0.04C151.23,367.05,148.99,367.99,146.8,367.99z M139.56,363.5c0.12,0,0.23,0,0.35,0.02
						c1.28,0.12,2.26,0.83,3.21,1.53c0.52,0.38,1.01,0.74,1.54,0.99c2.41,1.14,5.4-0.12,8.03-1.22l0.09-0.04
						c3-1.26,4.25-1.51,7.29-0.86c0.02,0,0.04,0.01,0.07,0.02c0-0.02,0.01-0.04,0.01-0.07c1.11-5.33,0.54-8.67-1.74-10.19
						c-1.3-0.87-3.05-1-4.58-1.11c-1.6-0.12-3.47-0.39-6.06-0.87c-5.77-1.08-11.87-1.28-18.12-0.59c-0.96,0.1-2.72,0.26-3.69,0.09
						c-1.83-0.31-2.93-0.54-3.81-0.72c-2.25-0.46-3.01-0.62-10.77-1.08c-2.29-0.14-4.7-0.61-7.59-1.49
						c-0.47-0.14-0.97-0.24-1.5-0.34c-0.91-0.18-1.85-0.36-2.74-0.79c-0.6-0.29-1.07-0.7-1.54-1.09c-0.37-0.32-0.72-0.62-1.1-0.83
						c-2.96-1.63-11.54-4.28-17.74-4.57c-0.27-0.01-0.51-0.17-0.63-0.41c-0.12-0.24-0.11-0.52,0.04-0.75
						c-0.35-0.74-4.93-1.64-6.43-1.94c-0.71-0.14-1.32-0.26-1.74-0.36c-1.67-0.41-2.67-0.86-3.48-1.21
						c-1.31-0.58-2.04-0.9-4.67-0.58c-0.47,0.07-1-0.23-2.86-1.41c-0.51-0.32-1.15-0.73-1.33-0.8c-1.81-0.74-3.78-1.22-5.68-1.69
						c-0.71-0.17-1.41-0.34-2.11-0.53c-2.35-0.62-4.37-1.86-6.32-3.06c-2.91-1.78-5.65-3.46-9.26-3.07
						c-0.22,0.03-0.45-0.05-0.61-0.22c-0.16-0.16-0.24-0.39-0.21-0.62c0-0.05,0.12-1.43-1.1-2.63c-1.14-1.12-3.73-2.31-9.57-1.61
						c-0.65,0.23-0.73,0.65-0.88,1.79c-0.05,0.43-0.12,0.91-0.24,1.41c-0.91,6.87-0.92,7.59-0.95,11.08
						c-0.01,1.26-0.03,2.87-0.09,5.25c3.74,0.47,7.57-0.28,10.86-2.15c0.33-0.19,0.75-0.1,0.97,0.21c1.57,2.11,4.43,2.19,7.46,2.28
						c2.67,0.07,5.43,0.15,7.65,1.59c0.66,0.43,1.23,0.96,1.78,1.47c0.76,0.7,1.47,1.36,2.33,1.69c2.13,0.82,4.54-0.51,6.84-2.07
						c0.34-0.23,0.81-0.15,1.04,0.2c1.7,2.48,3.62,5.29,6.25,7.04c2.31,1.53,5.79,2.33,8.38,0.67c0.33-0.21,0.77-0.13,1,0.18
						c1.75,2.32,4.66,3.76,7.56,3.7c0.21,0,0.42-0.01,0.63-0.02c0.99-0.04,2.1-0.09,3.1,0.46c0.53,0.3,0.91,0.7,1.28,1.09
						c0.19,0.2,0.38,0.4,0.59,0.58c1.43,1.21,3.49,0.97,5.67,0.72c2.18-0.25,4.43-0.5,6.37,0.62c1.02,0.59,1.77,1.48,2.5,2.34
						c0.85,1,1.66,1.95,2.75,2.24c0.7,0.19,1.47,0.1,2.29,0c0.46-0.05,0.91-0.11,1.37-0.12c2.35-0.03,4.45,0.95,6.49,1.92
						c0.54,0.26,1.07,0.51,1.61,0.75c5.8,2.53,12.75,2.58,18.58,0.12l0.29-0.12C137.52,363.92,138.5,363.5,139.56,363.5z"/>
				</g>
				<g>
					<path class="st8" d="M168.8,322.83c0,0-0.4,3.09,1.09,8.25c0.25,0.86,0.59,1.71,0.62,2.6c0.08,2.37-1.77,4.46-3.92,5.46
						c-2.68,1.25-5.46,0.73-8.22,1.39c-3.17,0.76-6.39,2.35-9.5,3.42c-1,0.34-2,0.68-3.02,0.92c-1.83,0.42-4.29,0.14-4.79-1.67
						c-2.36,1.99-5.66,2.39-8.74,2.3c-3.71-0.1-7.37-0.78-11.02-1.45c-3.59-0.66-7.18-1.33-10.77-1.99
						c-4.39-0.81-4.13-3.07-8.55-3.7c-3.05-0.44-4.65,1.44-12.65-2.4c-4.42,0.68-9.05-0.12-12.99-2.25c-1.44-0.78-0.41-1.47-2-1.84
						c-1.89-0.44-6.09-3.58-8.02-3.47c-3.24,0.19-8.99-0.98-12.15-1.7c-4.66-1.07-4.1,0.9-8.05-1.79c-0.95-0.65-4.86-0.76-5.95-1.11
						c-1.85-0.59-3.95,0.03-5.74-0.7c-2.04-0.83-3.18-3.22-5.29-3.9c-1.51-0.49-5.13,0.69-6.12-0.55
						c-2.75-3.43,6.22-25.75,8.76-25.42c2.54,0.33,8.61,4.1,10.77,5.46c4.59,2.89,7.34,0.77,11.93,3.66
						c2.48,1.56,5.11,3.17,8.04,3.25c1.87,0.05,3.77-0.53,5.6-0.1c3.28,0.77,5.42,4.6,8.79,4.71c1.08,0.03,2.13-0.34,3.19-0.57
						c3.12-0.67,10.45,3.52,12.25,6.16c2.89,4.24,9.85,0.64,14.58,2.65c1.31,0.56,2.4,1.54,3.66,2.21
						c4.24,2.23,9.43,0.51,14.17,1.19c6.09,0.87,11.59,5.71,17.64,4.63c1.43-0.25,2.78-0.84,4.21-1.12
						c3.67-0.72,7.42,1.11,11.15,0.8C162.55,325.77,168.8,322.83,168.8,322.83z"/>
					<path class="st7" d="M133.02,346.27c-0.24,0-0.49,0-0.73-0.01c-3.78-0.1-7.52-0.79-11.13-1.46l-10.77-1.99
						c-2.32-0.43-3.48-1.26-4.5-2c-1.04-0.75-1.95-1.4-4.02-1.69c-0.77-0.11-1.45-0.06-2.23,0.01c-2.07,0.17-4.64,0.38-10.43-2.37
						c-4.52,0.64-9.21-0.19-13.23-2.36c-0.85-0.46-1.09-0.95-1.27-1.41c-0.08-0.21-0.09-0.25-0.55-0.36
						c-0.88-0.21-2.11-0.88-3.42-1.59c-1.51-0.83-3.39-1.86-4.33-1.86c-0.02,0-0.04,0-0.07,0c-3.39,0.19-9.2-1-12.36-1.72
						c-1.78-0.41-2.75-0.35-3.53-0.3c-1.41,0.09-2.33,0.06-4.78-1.6c-0.43-0.29-2.29-0.51-3.39-0.64c-1-0.12-1.87-0.22-2.37-0.38
						c-0.76-0.24-1.61-0.25-2.5-0.26c-1.09-0.01-2.21-0.02-3.3-0.46c-1.12-0.46-1.95-1.28-2.76-2.07c-0.79-0.78-1.54-1.51-2.47-1.81
						c-0.47-0.15-1.38-0.08-2.26-0.01c-1.66,0.13-3.38,0.26-4.21-0.78c-2.57-3.21,2.91-17.66,6.01-23.17
						c1.81-3.22,2.75-3.55,3.44-3.47c1.87,0.25,5.6,2.12,11.07,5.57c2.15,1.35,3.85,1.53,5.64,1.72c1.89,0.2,3.84,0.4,6.28,1.94
						c2.27,1.43,4.85,3.06,7.66,3.14c0.68,0.02,1.36-0.05,2.08-0.13c1.19-0.12,2.43-0.25,3.67,0.04c1.66,0.39,3.01,1.45,4.31,2.47
						c1.42,1.12,2.75,2.17,4.33,2.22c0.71,0.01,1.39-0.16,2.13-0.34c0.29-0.07,0.58-0.15,0.87-0.21c3.53-0.76,11.11,3.66,13.02,6.46
						c1.44,2.12,4.14,1.95,7.27,1.77c2.38-0.14,4.85-0.29,6.99,0.62c0.81,0.35,1.53,0.83,2.22,1.3c0.51,0.34,0.99,0.67,1.49,0.93
						c2.46,1.29,5.29,1.16,8.29,1.02c1.85-0.09,3.77-0.18,5.63,0.09c2.58,0.37,5.03,1.41,7.41,2.42c3.41,1.45,6.62,2.82,10,2.21
						c0.7-0.12,1.38-0.33,2.1-0.55c0.68-0.21,1.38-0.42,2.1-0.56c2.13-0.42,4.25-0.04,6.3,0.33c1.71,0.3,3.32,0.59,4.93,0.46
						c4.62-0.39,10.74-3.24,10.8-3.27c0.25-0.12,0.54-0.09,0.76,0.07c0.22,0.16,0.34,0.43,0.3,0.7c0,0.03-0.36,3.03,1.06,7.94
						c0.06,0.19,0.12,0.39,0.18,0.58c0.22,0.69,0.45,1.41,0.47,2.2c0.1,2.81-2.12,5.12-4.35,6.17c-1.74,0.81-3.49,0.93-5.18,1.05
						c-1.1,0.08-2.14,0.15-3.19,0.4c-1.94,0.46-3.95,1.27-5.89,2.05c-1.16,0.47-2.37,0.95-3.54,1.35c-1,0.34-2.03,0.7-3.1,0.94
						c-1.98,0.46-4.2,0.13-5.23-1.26C138.87,345.63,136.31,346.27,133.02,346.27z M100.94,337.55c0.36,0,0.74,0.02,1.14,0.08
						c2.44,0.35,3.58,1.17,4.68,1.96c0.99,0.71,1.92,1.38,3.9,1.74l10.77,1.99c3.56,0.66,7.24,1.34,10.9,1.44
						c3.71,0.1,6.42-0.59,8.24-2.13c0.2-0.17,0.46-0.22,0.71-0.14c0.24,0.08,0.43,0.27,0.5,0.52c0.37,1.32,2.5,1.46,3.9,1.13
						c1-0.23,1.99-0.57,2.95-0.9c1.14-0.39,2.32-0.86,3.47-1.32c1.99-0.8,4.05-1.62,6.1-2.11c1.17-0.28,2.32-0.36,3.44-0.43
						c1.62-0.11,3.16-0.22,4.64-0.91c1.79-0.83,3.56-2.63,3.49-4.76c-0.02-0.58-0.21-1.17-0.4-1.8c-0.07-0.21-0.13-0.41-0.19-0.62
						c-0.97-3.36-1.16-5.88-1.17-7.28c-2.04,0.87-6.49,2.6-10.2,2.91c-1.81,0.15-3.59-0.17-5.32-0.47c-2-0.36-3.9-0.69-5.75-0.33
						c-0.65,0.13-1.28,0.32-1.95,0.52c-0.73,0.22-1.48,0.45-2.27,0.59c-3.81,0.68-7.39-0.84-10.85-2.31
						c-2.29-0.97-4.65-1.98-7.03-2.32c-1.72-0.24-3.57-0.16-5.35-0.07c-3.08,0.14-6.25,0.29-9.06-1.19
						c-0.58-0.3-1.12-0.67-1.63-1.02c-0.66-0.45-1.29-0.87-1.97-1.16c-1.82-0.77-4.1-0.63-6.31-0.5c-3.28,0.2-6.68,0.4-8.6-2.42
						c-1.74-2.56-8.77-6.42-11.47-5.84c-0.27,0.06-0.55,0.13-0.82,0.2c-0.81,0.2-1.64,0.4-2.55,0.39c-2.08-0.06-3.67-1.32-5.22-2.54
						c-1.22-0.96-2.38-1.88-3.72-2.19c-0.99-0.23-2.05-0.12-3.17-0.01c-0.74,0.08-1.51,0.15-2.28,0.13
						c-3.21-0.09-6.1-1.91-8.41-3.37c-2.15-1.35-3.84-1.53-5.64-1.72c-1.89-0.2-3.84-0.4-6.29-1.94c-6.94-4.37-9.54-5.23-10.47-5.35
						c-1.02,0.36-4.73,7.45-7.03,15.18c-1.66,5.55-1.63,8.31-1.05,9.03c0.34,0.42,1.9,0.3,2.93,0.22c1.08-0.08,2.09-0.16,2.84,0.08
						c1.26,0.41,2.18,1.3,3.06,2.17c0.74,0.72,1.44,1.41,2.28,1.75c0.82,0.33,1.75,0.34,2.74,0.35c0.97,0.01,1.96,0.02,2.94,0.33
						c0.36,0.11,1.24,0.22,2.09,0.32c2.01,0.23,3.38,0.42,4.06,0.89c2.14,1.45,2.74,1.42,3.84,1.35c0.83-0.05,1.96-0.13,3.96,0.33
						c2.48,0.57,8.6,1.86,11.94,1.69c1.37-0.06,3.3,1,5.2,2.04c1.16,0.63,2.35,1.29,3.04,1.45c1.14,0.27,1.41,0.76,1.61,1.29
						c0.09,0.24,0.14,0.39,0.57,0.62c3.8,2.05,8.25,2.83,12.52,2.17c0.15-0.02,0.3,0,0.44,0.07c5.57,2.67,7.86,2.49,9.87,2.33
						C99.99,337.59,100.46,337.55,100.94,337.55z"/>
				</g>
			</g>
			<g>
				<g>
					<path class="st7" d="M158.09,338.16c-0.22,0-0.42-0.14-0.48-0.36c-1.09-3.79-1.84-7.71-2.21-11.64
						c-0.03-0.27,0.17-0.52,0.45-0.55c0.27-0.01,0.52,0.17,0.55,0.45c0.37,3.87,1.11,7.72,2.18,11.46c0.08,0.27-0.08,0.54-0.34,0.62
						C158.18,338.16,158.14,338.16,158.09,338.16z"/>
				</g>
				<g>
					<path class="st7" d="M140.89,343.75c-0.05,0-0.1-0.01-0.15-0.02c-0.26-0.08-0.41-0.36-0.33-0.63c0.14-0.45-0.14-0.95-0.47-1.52
						c-0.15-0.26-0.29-0.52-0.41-0.78c-0.52-1.19-0.35-2.51-0.14-3.52c0.27-1.31,0.69-2.6,1.1-3.85c0.75-2.28,1.45-4.43,1.31-6.69
						c-0.02-0.28,0.19-0.51,0.47-0.53c0.31-0.03,0.51,0.19,0.53,0.47c0.15,2.45-0.62,4.8-1.36,7.07c-0.4,1.22-0.81,2.49-1.07,3.74
						c-0.18,0.87-0.33,1.98,0.08,2.92c0.1,0.23,0.23,0.45,0.36,0.68c0.39,0.68,0.83,1.45,0.55,2.32
						C141.3,343.62,141.1,343.75,140.89,343.75z"/>
				</g>
				<g>
					<path class="st7" d="M123.43,341.98c-0.05,0-0.1-0.01-0.15-0.02c-0.26-0.08-0.41-0.36-0.33-0.62
						c1.84-6.03,2.72-12.29,2.61-18.59c0-0.28,0.21-0.5,0.49-0.51c0.31,0.03,0.5,0.21,0.51,0.49c0.11,6.41-0.78,12.77-2.66,18.9
						C123.84,341.84,123.65,341.98,123.43,341.98z"/>
				</g>
				<g>
					<path class="st7" d="M110.79,338.41c-0.03,0-0.07,0-0.1-0.01c-0.27-0.05-0.44-0.32-0.39-0.59c1.1-5.33,2.05-10.77,2.84-16.17
						c0.04-0.27,0.3-0.46,0.57-0.42c0.27,0.04,0.46,0.29,0.42,0.57c-0.79,5.42-1.75,10.88-2.85,16.23
						C111.23,338.25,111.02,338.41,110.79,338.41z"/>
				</g>
				<g>
					<path class="st7" d="M89.1,336.59c-0.07,0-0.15-0.02-0.22-0.05c-0.25-0.12-0.35-0.42-0.23-0.67c2.34-4.82,4.03-9.94,5-15.21
						c0.05-0.27,0.32-0.45,0.58-0.4c0.27,0.05,0.45,0.31,0.4,0.58c-0.99,5.36-2.7,10.56-5.09,15.46
						C89.46,336.48,89.29,336.59,89.1,336.59z"/>
				</g>
				<g>
					<path class="st7" d="M72.6,325.43c-0.01,0-0.02,0-0.03,0c-0.28-0.02-0.49-0.25-0.47-0.53c0.29-5.1,1.47-10.07,3.52-14.75
						c0.11-0.25,0.41-0.36,0.66-0.26c0.25,0.11,0.37,0.41,0.26,0.66c-2,4.57-3.15,9.42-3.43,14.41
						C73.09,325.22,72.86,325.43,72.6,325.43z"/>
				</g>
				<g>
					<path class="st7" d="M54.17,324.62c-0.05,0-0.11-0.01-0.16-0.03c-0.26-0.09-0.4-0.37-0.31-0.63c1.75-5.12,3.59-10.26,5.48-15.3
						c0.44-1.17,0.98-2.62,2.07-3.63c0.2-0.19,0.52-0.18,0.71,0.03c0.19,0.2,0.18,0.52-0.03,0.71c-0.92,0.85-1.4,2.12-1.82,3.25
						c-1.89,5.03-3.73,10.16-5.47,15.27C54.57,324.49,54.38,324.62,54.17,324.62z"/>
				</g>
				<g>
					<path class="st7" d="M38.41,316.45c-0.03,0-0.05,0-0.08-0.01c-0.27-0.04-0.46-0.3-0.42-0.57c0.91-5.87,2.87-11.47,5.82-16.64
						c0.14-0.24,0.44-0.32,0.68-0.19c0.24,0.14,0.32,0.44,0.19,0.68c-2.89,5.06-4.81,10.54-5.7,16.29
						C38.86,316.27,38.65,316.45,38.41,316.45z"/>
				</g>
				<g>
					<path class="st7" d="M36.72,323.84c-0.04,0-0.09-0.01-0.13-0.02c-0.27-0.07-0.42-0.35-0.35-0.62l0.93-3.4
						c0.07-0.27,0.35-0.42,0.61-0.35c0.27,0.07,0.42,0.35,0.35,0.61l-0.93,3.41C37.15,323.7,36.94,323.84,36.72,323.84z"/>
				</g>
				<g>
					<path class="st7" d="M135.52,362.19c-0.03,0-0.05,0-0.08-0.01c-0.27-0.04-0.46-0.3-0.42-0.57c0.23-1.43,0.39-2.39,0.51-3.07
						c0.26-1.54,0.26-1.54,0.16-2.2c-0.11-0.71-0.33-2.03-0.51-5.88c-0.01-0.28,0.2-0.51,0.47-0.52c0.28-0.04,0.51,0.2,0.52,0.47
						c0.19,3.79,0.39,5.08,0.5,5.77c0.13,0.82,0.12,0.89-0.16,2.52c-0.12,0.68-0.28,1.64-0.5,3.06
						C135.98,362.01,135.76,362.19,135.52,362.19z"/>
				</g>
				<g>
					<path class="st7" d="M148.13,363.44c-0.04,0-0.07,0-0.11-0.01c-0.27-0.06-0.44-0.33-0.38-0.6c0.57-2.53,1.29-8.14,1.37-10.72
						c0.01-0.28,0.2-0.46,0.52-0.48c0.28,0.01,0.49,0.24,0.48,0.52c-0.09,2.63-0.82,8.34-1.39,10.91
						C148.56,363.28,148.36,363.44,148.13,363.44z"/>
				</g>
				<g>
					<path class="st7" d="M116.14,365.33c-0.23,0-0.44-0.16-0.49-0.4c-0.46-2.29-0.03-4.59,0.38-6.82c0.27-1.49,0.56-3.03,0.57-4.53
						c0-0.28,0.22-0.5,0.5-0.5c0,0,0,0,0,0c0.28,0,0.5,0.23,0.5,0.5c-0.01,1.59-0.3,3.17-0.58,4.7c-0.41,2.23-0.8,4.34-0.38,6.44
						c0.05,0.27-0.12,0.53-0.39,0.59C116.2,365.33,116.17,365.33,116.14,365.33z"/>
				</g>
				<g>
					<path class="st7" d="M101.15,358.7c-0.01,0-0.03,0-0.04,0c-0.28-0.02-0.48-0.26-0.46-0.54l0.47-6.13
						c0.04-0.55,0.08-1.25,0.13-1.99c0.07-1.2,0.15-2.44,0.24-3.32c0.03-0.28,0.28-0.48,0.55-0.45c0.27,0.03,0.47,0.27,0.45,0.55
						c-0.09,0.85-0.16,2.08-0.23,3.28c-0.04,0.75-0.09,1.46-0.13,2.01l-0.47,6.13C101.62,358.5,101.4,358.7,101.15,358.7z"/>
				</g>
				<g>
					<path class="st7" d="M87.24,355.31c-0.27,0-0.5-0.22-0.5-0.5c-0.02-2.57,0.57-7.96,1.15-10.47c0.06-0.27,0.33-0.43,0.6-0.38
						c0.27,0.06,0.44,0.33,0.38,0.6c-0.57,2.46-1.14,7.72-1.12,10.24C87.74,355.08,87.52,355.31,87.24,355.31
						C87.24,355.31,87.24,355.31,87.24,355.31z"/>
				</g>
				<g>
					<path class="st7" d="M76.64,348.55c-0.01,0-0.03,0-0.04,0c-0.28-0.02-0.48-0.26-0.46-0.54c0.23-2.88,1.03-5.78,2.31-8.37
						c0.12-0.25,0.42-0.35,0.67-0.23c0.25,0.12,0.35,0.42,0.23,0.67c-1.23,2.48-1.99,5.25-2.21,8.01
						C77.12,348.35,76.9,348.55,76.64,348.55z"/>
				</g>
				<g>
					<path class="st7" d="M59.83,342.97c-0.06,0-0.12-0.01-0.19-0.04c-0.26-0.1-0.38-0.39-0.28-0.65c1.05-2.62,1.87-5.35,2.45-8.12
						c0.06-0.27,0.33-0.45,0.59-0.39c0.27,0.06,0.44,0.32,0.39,0.59c-0.58,2.82-1.43,5.61-2.5,8.29
						C60.21,342.85,60.03,342.97,59.83,342.97z"/>
				</g>
				<g>
					<path class="st7" d="M45.2,340.75c-0.05,0-0.09-0.01-0.14-0.02c-0.27-0.08-0.42-0.35-0.34-0.62c0.22-0.77,0.4-1.8,0.59-2.89
						c0.49-2.75,1.09-6.17,2.82-8.34c0.17-0.21,0.49-0.25,0.7-0.08c0.21,0.17,0.25,0.49,0.08,0.7c-1.57,1.96-2.15,5.25-2.61,7.89
						c-0.2,1.12-0.38,2.17-0.62,2.99C45.62,340.61,45.42,340.75,45.2,340.75z"/>
				</g>
				<g>
					<path class="st7" d="M32.05,334.18c-0.27,0-0.5-0.22-0.5-0.5c-0.02-2.62,0.73-4.73,1.54-6.97c0.36-0.99,0.72-2.02,1.03-3.12
						c0.07-0.27,0.35-0.42,0.62-0.35c0.27,0.07,0.42,0.35,0.35,0.62c-0.32,1.13-0.69,2.18-1.05,3.19c-0.77,2.15-1.5,4.18-1.48,6.62
						C32.55,333.95,32.33,334.18,32.05,334.18C32.05,334.18,32.05,334.18,32.05,334.18z"/>
				</g>
				<g>
					<path class="st7" d="M162.3,365.69c-0.88,0-1.74-0.11-2.58-0.33c-0.4-0.1-0.64-0.51-0.54-0.92c0.11-0.4,0.52-0.64,0.92-0.54
						c3.84,1.01,8.42-0.76,11.63-4.52c2.99-3.48,4.54-7.92,6.04-12.22c2.13-6.1,3.58-13.83,4.75-20.8
						c-2.17,0.55-4.61-0.45-6.09-1.94c-1.46-1.47-2.3-3.35-2.96-5.17c-1.04,1.43-2.3,2.71-3.77,3.82c-0.33,0.25-0.8,0.18-1.05-0.15
						s-0.18-0.8,0.15-1.05c1.74-1.31,3.17-2.89,4.24-4.68c0.15-0.25,0.44-0.39,0.72-0.36c0.29,0.03,0.54,0.23,0.63,0.5
						c0.71,2.07,1.51,4.42,3.1,6.03c1.41,1.42,3.88,2.23,5.59,1.14c0.25-0.16,0.57-0.16,0.82,0.01c0.25,0.16,0.38,0.46,0.33,0.75
						c-1.23,7.37-2.73,15.79-5.04,22.39c-1.48,4.22-3.15,9-6.32,12.7C169.97,363.76,166.03,365.69,162.3,365.69z"/>
				</g>
			</g>
		</g>
		<g id="Line_00000083797988428883593450000008503852653747476908_">
			<g>
				<path class="st7" d="M116.46,156.25c-0.1,0-0.2-0.02-0.29-0.06c-0.38-0.16-0.56-0.6-0.39-0.98c4.02-9.42,6.22-19.38,6.54-29.62
					c0.01-0.41,0.39-0.73,0.77-0.73c0.41,0.01,0.74,0.36,0.73,0.77c-0.33,10.42-2.57,20.57-6.66,30.16
					C117.03,156.08,116.75,156.25,116.46,156.25z"/>
			</g>
			<g>
				<path class="st7" d="M82.11,187.16c-0.22,0-0.43-0.09-0.58-0.27c-0.26-0.32-0.22-0.79,0.1-1.06c3.54-2.92,7.42-5.59,11.18-8.16
					c7.66-5.26,15.58-10.69,20.65-18.47c0.23-0.35,0.69-0.45,1.04-0.22c0.35,0.23,0.45,0.69,0.22,1.04
					c-5.23,8.03-13.28,13.55-21.06,18.89c-3.73,2.56-7.58,5.2-11.07,8.08C82.45,187.1,82.28,187.16,82.11,187.16z"/>
			</g>
			<g>
				<path class="st7" d="M280.21,310.68c-0.16,0-0.31-0.05-0.45-0.15c-6.25-4.68-12.92-8.91-19.82-12.54
					c-1.14-0.6-2.17-1.11-3.25-1.21c-1.15-0.12-2.32,0.22-3.55,0.58l-0.66,0.19c-4.63,1.29-9.44,1.4-13.98,1.4
					c-0.04,0-0.08,0-0.12,0c-11.82,0-23.77-0.78-35.5-2.31c-0.41-0.05-0.7-0.43-0.65-0.84c0.05-0.41,0.42-0.7,0.84-0.65
					c11.67,1.53,23.54,2.3,35.3,2.3c4.51,0,9.21-0.1,13.69-1.35l0.64-0.18c1.32-0.38,2.67-0.78,4.12-0.63
					c1.35,0.14,2.52,0.71,3.8,1.38c6.97,3.68,13.71,7.94,20.02,12.67c0.33,0.25,0.4,0.72,0.15,1.05
					C280.67,310.57,280.44,310.68,280.21,310.68z"/>
			</g>
			<g>
				<path class="st7" d="M253.61,309.76c-0.92,0-1.84-0.01-2.76-0.04c-2.36-0.07-5.08-0.25-7.48-1.39c-1.15-0.55-2.25-1.32-3.3-2.06
					c-2.15-1.51-4.17-2.93-6.48-2.5c-0.27,0.05-0.53-0.13-0.58-0.4c-0.05-0.27,0.13-0.53,0.4-0.58c2.72-0.51,5.02,1.11,7.24,2.67
					c1.02,0.72,2.08,1.47,3.16,1.98c2.22,1.06,4.82,1.23,7.08,1.29c5.11,0.16,10.25-0.13,15.31-0.83c0.27-0.03,0.53,0.15,0.56,0.43
					c0.04,0.27-0.15,0.53-0.43,0.56C262.12,309.47,257.86,309.76,253.61,309.76z"/>
			</g>
			<g>
				<path class="st7" d="M257.29,250.48c-0.1,0-0.19-0.02-0.29-0.06c-8.38-3.45-14.47-10.78-15.51-18.69
					c-0.67-5.08,0.64-10.11,1.9-14.98c1.14-4.4,2.32-8.95,1.99-13.43c-0.64-8.48-6.61-15.65-11.04-20.3
					c-3.07-3.22-8.79-9.22-6.42-15.16c1.22-3.05,4.15-4.85,6.73-6.44c19.53-12.01,37.14-26.8,52.33-43.98
					c0.28-0.31,0.75-0.34,1.06-0.06c0.31,0.27,0.34,0.75,0.06,1.06c-15.29,17.29-33.01,32.18-52.67,44.26
					c-2.39,1.47-5.09,3.13-6.12,5.72c-1.86,4.66,2.18,9.45,6.12,13.57c4.6,4.82,10.78,12.26,11.46,21.22
					c0.35,4.73-0.86,9.4-2.03,13.91c-1.28,4.95-2.5,9.62-1.86,14.41c0.97,7.38,6.7,14.25,14.6,17.49c0.38,0.16,0.57,0.6,0.41,0.98
					C257.87,250.31,257.59,250.48,257.29,250.48z"/>
			</g>
			<g>
				<path class="st7" d="M400.39,259.31c-0.05,0-0.1,0-0.15-0.02c-8.91-1.84-13.32-11.05-17.22-19.18c-0.4-0.84-0.8-1.67-1.2-2.48
					c-6.62-13.51-16.75-25.03-29.31-33.31c-0.92-0.6-1.85-1.2-2.79-1.79c-4.39-2.78-8.93-5.65-11.92-10.01
					c-0.8-1.17-1.49-2.44-2.16-3.67c-1.35-2.5-2.62-4.85-4.77-6.38c-0.34-0.24-0.42-0.71-0.17-1.05c0.24-0.34,0.71-0.42,1.05-0.17
					c2.43,1.73,3.85,4.36,5.22,6.89c0.65,1.2,1.31,2.43,2.07,3.53c2.82,4.1,7.22,6.89,11.49,9.59c0.95,0.6,1.89,1.2,2.81,1.81
					c12.78,8.42,23.1,20.15,29.83,33.9c0.4,0.82,0.8,1.65,1.2,2.49c3.74,7.81,7.99,16.67,16.17,18.36c0.41,0.08,0.67,0.48,0.58,0.89
					C401.05,259.06,400.73,259.31,400.39,259.31z"/>
			</g>
			<g>
				<path class="st7" d="M173.16,281.39c-0.22,0-0.43-0.15-0.48-0.38l-4.78-18.5c-0.24-0.93-0.49-1.74-1.07-2.2
					c-0.46-0.37-1.13-0.5-1.73-0.61l-14.34-2.76c-2.36-0.46-8.43-2.44-13.32-4.04c-2.55-0.83-4.75-1.55-5.93-1.89
					c-0.27-0.08-0.42-0.35-0.34-0.62c0.08-0.26,0.36-0.42,0.62-0.34c1.2,0.35,3.41,1.07,5.96,1.9c4.86,1.59,10.9,3.56,13.2,4
					l14.34,2.76c0.67,0.13,1.5,0.29,2.16,0.81c0.9,0.71,1.2,1.88,1.42,2.74l4.78,18.5c0.07,0.27-0.09,0.54-0.36,0.61
					C173.24,281.39,173.2,281.39,173.16,281.39z"/>
			</g>
			<g>
				<path class="st7" d="M66.34,220.36c-0.07,0-0.13-0.01-0.2-0.04c-3.43-1.47-6.99-3-10.75-3.38c-4.08-0.41-7.87,0.78-10.13,3.19
					c-0.19,0.2-0.5,0.21-0.71,0.02c-0.2-0.19-0.21-0.51-0.02-0.71c2.47-2.63,6.57-3.94,10.96-3.5c3.92,0.39,7.54,1.95,11.04,3.45
					c0.25,0.11,0.37,0.4,0.26,0.66C66.72,220.25,66.53,220.36,66.34,220.36z"/>
			</g>
			<g>
				<path class="st7" d="M357.47,54.07c-0.11,0-0.22-0.03-0.31-0.11c-8.62-6.7-18.86-11.31-29.59-13.33
					c-0.27-0.05-0.45-0.31-0.4-0.58c0.05-0.27,0.31-0.45,0.58-0.4c10.89,2.04,21.27,6.72,30.02,13.52c0.22,0.17,0.26,0.48,0.09,0.7
					C357.76,54.01,357.61,54.07,357.47,54.07z"/>
			</g>
			<g>
				<path class="st7" d="M346.25,72.85c-0.18,0-0.36-0.1-0.45-0.27c-3.72-7.38-12.03-10.85-20.23-13.77
					c-9.59-3.42-19.39-6.73-29.12-9.83c-0.26-0.08-0.41-0.37-0.33-0.63c0.08-0.26,0.36-0.41,0.63-0.33
					c9.74,3.1,19.55,6.41,29.15,9.84c8.01,2.86,16.89,6.55,20.78,14.26c0.12,0.25,0.03,0.55-0.22,0.67
					C346.4,72.83,346.33,72.85,346.25,72.85z"/>
			</g>
			<g>
				<path class="st7" d="M328.23,78.33c-0.11,0-0.21-0.03-0.3-0.1c-20.89-16.09-46.91-25.27-73.27-25.86
					c-0.28-0.01-0.5-0.24-0.49-0.51c0.01-0.27,0.23-0.49,0.5-0.49c0,0,0.01,0,0.01,0c26.57,0.59,52.8,9.85,73.86,26.06
					c0.22,0.17,0.26,0.48,0.09,0.7C328.53,78.26,328.38,78.33,328.23,78.33z"/>
			</g>
			<g>
				<path class="st7" d="M323.07,85.96c-0.1,0-0.19-0.03-0.28-0.09c-18.29-12.4-39.59-20.04-61.59-22.11
					c-0.27-0.03-0.48-0.27-0.45-0.54s0.27-0.47,0.54-0.45c22.17,2.09,43.62,9.79,62.06,22.28c0.23,0.16,0.29,0.47,0.13,0.69
					C323.38,85.88,323.23,85.96,323.07,85.96z"/>
			</g>
			<g>
				<path class="st7" d="M304.38,99.39c-0.14,0-0.28-0.06-0.38-0.17c-3.59-4.17-8.72-6.66-13.72-8.74
					c-12.92-5.35-26.52-8.77-40.43-10.15c-0.27-0.03-0.47-0.27-0.45-0.55c0.03-0.27,0.26-0.46,0.55-0.45
					c14.01,1.39,27.71,4.83,40.72,10.22c5.12,2.12,10.37,4.68,14.1,9.01c0.18,0.21,0.16,0.52-0.05,0.71
					C304.62,99.35,304.5,99.39,304.38,99.39z"/>
			</g>
			<g>
				<path class="st7" d="M291.51,104.56c-0.09,0-0.18-0.02-0.26-0.07c-17.87-11.01-39.29-16.94-60.27-16.66c0,0,0,0-0.01,0
					c-0.27,0-0.5-0.22-0.5-0.49c0-0.28,0.22-0.5,0.49-0.51c0.46-0.01,0.93-0.01,1.39-0.01c20.73,0,41.78,5.95,59.42,16.81
					c0.23,0.14,0.31,0.45,0.16,0.69C291.84,104.48,291.68,104.56,291.51,104.56z"/>
			</g>
			<g>
				<path class="st7" d="M269.35,120.27c-0.21,0-0.41-0.14-0.48-0.35c-1.11-3.57-4.48-6.2-10.61-8.27
					c-11.98-4.04-24.76-5.41-37.12-6.73c-0.27-0.03-0.47-0.28-0.44-0.55c0.03-0.28,0.29-0.47,0.55-0.44
					c12.42,1.32,25.25,2.69,37.33,6.77c4.07,1.37,9.66,3.79,11.25,8.92c0.08,0.26-0.07,0.54-0.33,0.63
					C269.45,120.26,269.4,120.27,269.35,120.27z"/>
			</g>
			<g>
				<path class="st7" d="M257.49,129.55c-0.14,0-0.28-0.06-0.37-0.17c-4.68-5.28-11.44-9.39-19.55-11.87
					c-7.82-2.39-16.01-3.09-23-3.46c-0.28-0.01-0.49-0.25-0.47-0.53c0.01-0.28,0.26-0.5,0.53-0.47c7.05,0.37,15.32,1.08,23.24,3.5
					c8.29,2.54,15.21,6.74,20.01,12.16c0.18,0.21,0.16,0.52-0.04,0.71C257.73,129.51,257.61,129.55,257.49,129.55z"/>
			</g>
			<g>
				<path class="st7" d="M245.72,141.56c-0.05,0-0.1-0.01-0.15-0.02c-7.07-2.2-13.94-5.41-20.58-8.51
					c-10.18-4.75-20.7-9.66-31.95-10.9c-0.27-0.03-0.47-0.28-0.44-0.55c0.03-0.28,0.28-0.48,0.55-0.44
					c11.41,1.25,22.01,6.2,32.26,10.99c6.61,3.09,13.45,6.28,20.46,8.46c0.26,0.08,0.41,0.36,0.33,0.63
					C246.13,141.42,245.93,141.56,245.72,141.56z"/>
			</g>
			<g>
				<path class="st7" d="M227.63,148.6c-0.14,0-0.28-0.06-0.38-0.18c-7.38-8.71-18.11-14.56-29.42-16.07
					c-0.27-0.04-0.47-0.29-0.43-0.56c0.04-0.27,0.29-0.47,0.56-0.43c11.56,1.54,22.51,7.52,30.05,16.42
					c0.18,0.21,0.15,0.53-0.06,0.71C227.86,148.56,227.74,148.6,227.63,148.6z"/>
			</g>
			<g>
				<path class="st7" d="M222.79,161.37c-0.11,0-0.22-0.04-0.32-0.11c-13.85-11.35-28.82-20.09-44.48-25.97
					c-0.26-0.1-0.39-0.38-0.29-0.64c0.1-0.26,0.39-0.39,0.64-0.29c15.76,5.92,30.83,14.71,44.76,26.13c0.21,0.17,0.25,0.49,0.07,0.7
					C223.08,161.31,222.93,161.37,222.79,161.37z"/>
			</g>
			<g>
				<path class="st7" d="M276.64,23c-0.08,0-0.17-0.02-0.24-0.06c-24.5-13.7-53.23-18.56-80.87-13.7c-0.27,0.05-0.53-0.13-0.58-0.41
					c-0.05-0.27,0.13-0.53,0.41-0.58c27.87-4.9,56.83,0,81.53,13.81c0.24,0.13,0.33,0.44,0.19,0.68
					C276.99,22.91,276.82,23,276.64,23z"/>
			</g>
			<g>
				<path class="st7" d="M253.74,23.97c-0.04,0-0.09-0.01-0.13-0.02c-17.87-4.94-36.32-7.88-54.84-8.74
					c-0.28-0.01-0.49-0.25-0.48-0.52c0.01-0.28,0.27-0.5,0.52-0.48c18.6,0.86,37.12,3.81,55.06,8.77c0.27,0.07,0.42,0.35,0.35,0.62
					C254.16,23.82,253.96,23.97,253.74,23.97z"/>
			</g>
			<g>
				<path class="st7" d="M229.97,34.75c-0.14,0-0.29-0.06-0.38-0.18c-4.64-5.57-12.2-7.97-18.26-9.43
					c-8.63-2.09-17.51-3.25-26.38-3.45c-0.28-0.01-0.49-0.24-0.49-0.51c0.01-0.28,0.24-0.47,0.51-0.49
					c8.94,0.2,17.89,1.37,26.59,3.48c6.21,1.5,13.97,3.97,18.8,9.77c0.18,0.21,0.15,0.53-0.06,0.7
					C230.2,34.72,230.09,34.75,229.97,34.75z"/>
			</g>
			<g>
				<path class="st7" d="M187.86,29.94c-0.03,0-0.06,0-0.09-0.01c-11.39-2.11-23.03-3.26-34.62-3.42c-0.28,0-0.5-0.23-0.49-0.51
					s0.22-0.48,0.51-0.49c11.64,0.16,23.34,1.32,34.79,3.44c0.27,0.05,0.45,0.31,0.4,0.58C188.31,29.77,188.1,29.94,187.86,29.94z"
					/>
			</g>
			<g>
				<path class="st7" d="M194.85,50.49c-0.11,0-0.21-0.03-0.31-0.1c-12.82-9.91-29.46-15.1-45.65-14.28
					c-0.32,0.04-0.51-0.2-0.52-0.47c-0.01-0.28,0.2-0.51,0.47-0.52c16.43-0.83,33.3,4.43,46.31,14.49c0.22,0.17,0.26,0.48,0.09,0.7
					C195.15,50.42,195,50.49,194.85,50.49z"/>
			</g>
			<g>
				<path class="st7" d="M155.98,48.44c-0.08,0-0.17-0.02-0.24-0.06c-7.37-4.06-16.04-5.72-24.39-4.69
					c-0.28,0.03-0.52-0.16-0.56-0.43s0.16-0.52,0.43-0.56c8.57-1.06,17.44,0.65,24.99,4.81c0.24,0.13,0.33,0.44,0.2,0.68
					C156.33,48.35,156.16,48.44,155.98,48.44z"/>
			</g>
			<g>
				<path class="st7" d="M177.92,65.85c-0.09,0-0.18-0.03-0.27-0.08c-8.85-5.62-19.58-7.63-29.86-8.97
					c-9.31-1.21-18.82-2-28.01-2.76c-0.28-0.02-0.48-0.26-0.46-0.54c0.02-0.28,0.29-0.46,0.54-0.46c9.2,0.76,18.72,1.55,28.06,2.76
					c10.39,1.35,21.25,3.39,30.27,9.12c0.23,0.15,0.3,0.46,0.15,0.69C178.25,65.77,178.09,65.85,177.92,65.85z"/>
			</g>
			<g>
				<path class="st7" d="M144.1,66.82c-0.05,0-0.1-0.01-0.14-0.02c-8.69-2.63-17.7-4.28-26.76-4.9c-0.28-0.02-0.48-0.26-0.46-0.53
					s0.26-0.5,0.53-0.46c9.14,0.62,18.22,2.28,26.98,4.94c0.26,0.08,0.41,0.36,0.33,0.62C144.52,66.68,144.32,66.82,144.1,66.82z"/>
			</g>
			<g>
				<path class="st7" d="M143.43,76.75c-0.1,0-0.19-0.03-0.28-0.08c-10.93-7.27-24.5-7.22-39.83-6.43c-0.31,0.03-0.51-0.2-0.52-0.47
					c-0.01-0.28,0.2-0.51,0.47-0.52c15.5-0.79,29.25-0.84,40.43,6.6c0.23,0.15,0.29,0.46,0.14,0.69
					C143.75,76.67,143.59,76.75,143.43,76.75z"/>
			</g>
			<g>
				<path class="st7" d="M129.99,85.29c-0.13,0-0.26-0.05-0.36-0.15c-0.48-0.21-2.62-0.86-4.06-1.29c-2.78-0.84-3.08-0.95-3.24-1.07
					c-1.4-1.08-2.82-1.33-4.54-1.54c-5.4-0.68-10.85-1.07-16.21-1.16c-0.28,0-0.5-0.23-0.49-0.51c0-0.28,0.22-0.47,0.51-0.49
					c5.39,0.09,10.88,0.48,16.31,1.17c1.47,0.18,3.3,0.41,5.03,1.75c0.16,0.07,1.69,0.53,2.92,0.9c4.57,1.38,4.57,1.4,4.63,1.82
					c0.03,0.19-0.07,0.39-0.23,0.5C130.18,85.27,130.09,85.29,129.99,85.29z"/>
			</g>
			<g>
				<path class="st7" d="M115.71,92.84c-0.11,0-0.23-0.04-0.32-0.12c-3.78-3.15-7.91-3.32-11.55-3.46l-10.62-0.42
					c-0.28-0.01-0.49-0.24-0.48-0.52c0.01-0.28,0.26-0.48,0.52-0.48l10.62,0.42c3.8,0.15,8.11,0.32,12.15,3.69
					c0.21,0.18,0.24,0.49,0.06,0.7C116,92.78,115.86,92.84,115.71,92.84z"/>
			</g>
			<g>
				<path class="st7" d="M172.74,121.26c-0.05,0-0.11-0.01-0.17-0.03c-0.26-0.09-0.4-0.38-0.31-0.64c1.52-4.31,3.36-8.55,5.47-12.6
					c0.13-0.25,0.43-0.34,0.67-0.21c0.24,0.13,0.34,0.43,0.21,0.67c-2.09,4.01-3.91,8.2-5.41,12.46
					C173.14,121.13,172.94,121.26,172.74,121.26z"/>
			</g>
			<g>
				<path class="st7" d="M147.09,99.47c-0.11,0-0.22-0.04-0.32-0.11c-0.21-0.18-0.24-0.49-0.07-0.7c2.72-3.3,5.11-6.9,7.08-10.7
					c0.13-0.24,0.43-0.34,0.67-0.21c0.24,0.13,0.34,0.43,0.21,0.67c-2.01,3.85-4.43,7.51-7.2,10.87
					C147.38,99.4,147.24,99.47,147.09,99.47z"/>
			</g>
			<g>
				<path class="st7" d="M143.96,147.17c-0.11,0-0.23-0.04-0.32-0.12c-0.21-0.18-0.24-0.49-0.07-0.7c4.1-4.93,8.49-9.73,13.03-14.25
					c0.2-0.19,0.51-0.2,0.71,0c0.19,0.2,0.19,0.51,0,0.71c-4.53,4.5-8.89,9.28-12.97,14.18
					C144.25,147.11,144.11,147.17,143.96,147.17z"/>
			</g>
			<g>
				<path class="st7" d="M126.98,119.33c-0.03,0-0.05,0-0.08-0.01c-0.27-0.04-0.46-0.3-0.42-0.57c0.75-4.92,2.63-9.52,5.59-13.68
					c0.16-0.22,0.47-0.28,0.7-0.12c0.22,0.16,0.28,0.47,0.12,0.7c-2.87,4.03-4.69,8.49-5.42,13.25
					C127.44,119.15,127.22,119.33,126.98,119.33z"/>
			</g>
			<g>
				<path class="st7" d="M389.8,216.56c-0.14,0-0.29-0.06-0.38-0.18c-6.56-7.87-16.13-13.22-26.26-14.69
					c-0.27-0.04-0.46-0.29-0.42-0.57c0.04-0.27,0.3-0.46,0.57-0.42c10.37,1.51,20.17,6.99,26.88,15.04c0.18,0.21,0.15,0.53-0.06,0.7
					C390.03,216.53,389.91,216.56,389.8,216.56z"/>
			</g>
			<g>
				<path class="st7" d="M404.01,215.05c-0.11,0-0.21-0.03-0.3-0.1c-5.94-4.58-12.09-9.31-19.24-11.93
					c-1.56-0.57-3.19-1.05-4.76-1.51c-2.64-0.77-5.37-1.57-7.89-2.84c-5.58-2.82-9.96-8.09-11.73-14.09
					c-0.08-0.27,0.07-0.54,0.34-0.62c0.27-0.08,0.54,0.07,0.62,0.34c1.69,5.74,5.88,10.78,11.22,13.48
					c2.43,1.23,5.12,2.02,7.72,2.78c1.59,0.47,3.24,0.95,4.82,1.53c7.3,2.67,13.5,7.45,19.51,12.08c0.22,0.17,0.26,0.48,0.09,0.7
					C404.3,214.99,404.15,215.05,404.01,215.05z"/>
			</g>
			<g>
				<path class="st7" d="M412.26,200.44c-0.12,0-0.25-0.04-0.34-0.13c-9.97-9.3-21.29-16.93-33.66-22.68
					c-0.25-0.12-0.36-0.41-0.24-0.66s0.42-0.36,0.66-0.24c12.46,5.79,23.88,13.48,33.92,22.86c0.2,0.19,0.21,0.5,0.02,0.71
					C412.53,200.39,412.4,200.44,412.26,200.44z"/>
			</g>
			<g>
				<path class="st7" d="M390.35,192.6c-0.09,0-0.19-0.03-0.27-0.08l-29.97-19.13c-0.23-0.15-0.3-0.46-0.15-0.69
					c0.15-0.23,0.46-0.3,0.69-0.15l29.97,19.13c0.23,0.15,0.3,0.46,0.15,0.69C390.67,192.52,390.51,192.6,390.35,192.6z"/>
			</g>
			<g>
				<path class="st7" d="M350.34,185.2c-0.14,0-0.27-0.06-0.37-0.17l-19.03-21.25c-0.18-0.21-0.17-0.52,0.04-0.71
					c0.21-0.18,0.52-0.17,0.71,0.04l19.03,21.25c0.18,0.21,0.17,0.52-0.04,0.71C350.58,185.16,350.46,185.2,350.34,185.2z"/>
			</g>
			<g>
				<path class="st7" d="M275.26,248.67c-0.11,0-0.22-0.04-0.31-0.11c-2.32-1.88-5.6-2.36-8.78-2.83c-4-0.59-8.13-1.19-10.26-4.66
					c-1.87-3.04-1.17-6.81-0.3-10.41l7.32-30.08c0.06-0.27,0.33-0.43,0.6-0.37c0.27,0.06,0.43,0.33,0.37,0.6l-7.31,30.08
					c-0.83,3.4-1.49,6.94,0.18,9.65c1.89,3.06,5.61,3.61,9.55,4.19c3.31,0.49,6.72,0.99,9.26,3.04c0.21,0.17,0.25,0.49,0.07,0.7
					C275.55,248.61,275.41,248.67,275.26,248.67z"/>
			</g>
			<g>
				<path class="st7" d="M288.17,249.34c-0.18,0-0.35-0.1-0.44-0.27c-3.42-6.48-6.05-13.38-7.81-20.5c-0.07-0.27,0.1-0.54,0.37-0.61
					c0.27-0.07,0.54,0.1,0.61,0.37c1.74,7.04,4.34,13.87,7.72,20.28c0.13,0.24,0.04,0.55-0.21,0.68
					C288.33,249.32,288.25,249.34,288.17,249.34z"/>
			</g>
			<g>
				<path class="st7" d="M266.07,232.46C266.07,232.46,266.07,232.46,266.07,232.46c-0.28,0-0.5-0.23-0.5-0.5
					c0.06-11.06,2.98-21.99,8.44-31.61c0.14-0.24,0.44-0.33,0.68-0.19c0.24,0.14,0.32,0.44,0.19,0.68
					c-5.37,9.47-8.24,20.23-8.3,31.12C266.57,232.24,266.34,232.46,266.07,232.46z"/>
			</g>
			<g>
				<path class="st7" d="M253.67,198.4c-0.26,0-0.48-0.2-0.5-0.46l-1.39-19.76c-0.01-0.09,0.01-0.19,0.06-0.27
					c1.09-2.06,1.83-4.26,2.56-6.38c1.32-3.86,2.56-7.51,5.67-10.41c0.2-0.19,0.52-0.18,0.71,0.02c0.19,0.2,0.18,0.52-0.02,0.71
					c-2.92,2.73-4.13,6.26-5.4,10c-0.72,2.12-1.46,4.3-2.55,6.4l1.38,19.61c0.02,0.28-0.19,0.51-0.46,0.53
					C253.69,198.4,253.68,198.4,253.67,198.4z"/>
			</g>
			<g>
				<path class="st7" d="M299.52,345.48c-0.26,0-0.48-0.2-0.5-0.47c-0.15-2.29,1.68-4.21,5.45-5.71l16.09-6.44
					c-3.81-3.34-8.02-6.21-12.53-8.53c-0.25-0.13-0.34-0.43-0.22-0.67c0.12-0.25,0.43-0.34,0.67-0.22
					c4.82,2.48,9.31,5.58,13.35,9.21c0.13,0.12,0.19,0.29,0.16,0.46s-0.15,0.31-0.31,0.38l-16.84,6.74
					c-3.32,1.33-4.94,2.92-4.82,4.72c0.02,0.28-0.19,0.51-0.47,0.53C299.54,345.48,299.53,345.48,299.52,345.48z"/>
			</g>
			<g>
				<path class="st7" d="M335.13,332.99c-0.2,0-0.4-0.12-0.47-0.33c-1.72-4.7-2.56-9.62-2.5-14.62c0-0.27,0.23-0.49,0.5-0.49
					c0,0,0,0,0.01,0c0.28,0,0.5,0.23,0.49,0.51c-0.06,4.88,0.76,9.68,2.44,14.26c0.09,0.26-0.04,0.55-0.3,0.64
					C335.25,332.98,335.19,332.99,335.13,332.99z"/>
			</g>
			<g>
				<path class="st7" d="M281.24,327.4c-0.18,0-0.36-0.1-0.45-0.28c-0.12-0.25-0.03-0.55,0.22-0.67
					c11.46-5.78,23.52-10.5,35.84-14.05c0.54-0.16,1.35-0.39,2.1-0.1c0.78,0.3,1.23,1.06,1.52,1.56l2.86,4.8
					c0.14,0.24,0.06,0.54-0.17,0.69c-0.24,0.14-0.54,0.06-0.69-0.17l-2.86-4.8c-0.3-0.5-0.6-0.97-1.02-1.13
					c-0.4-0.16-0.9-0.04-1.47,0.13c-12.26,3.53-24.27,8.24-35.67,13.99C281.39,327.38,281.32,327.4,281.24,327.4z"/>
			</g>
			<g>
				<path class="st7" d="M179.51,404.62c-0.25,0-0.46-0.18-0.5-0.44c-1.24-9.92-1.76-20.02-1.54-30.03
					c-0.39,0.45-0.86,0.97-1.39,1.56c-3.65,4.09-10.43,11.71-10.71,14.11c-0.03,0.28-0.28,0.47-0.55,0.44
					c-0.27-0.03-0.47-0.28-0.44-0.55c0.29-2.51,5.57-8.62,10.96-14.67c1.03-1.16,1.85-2.08,2.28-2.6c0.13-0.17,0.36-0.23,0.56-0.15
					c0.2,0.08,0.33,0.27,0.33,0.48c-0.3,10.42,0.2,20.94,1.49,31.28c0.03,0.27-0.16,0.52-0.43,0.56
					C179.55,404.61,179.53,404.62,179.51,404.62z"/>
			</g>
			<g>
				<path class="st7" d="M92.8,418.85c-8.42,0-16.51-0.6-23.35-1.97c-19.16-3.84-26.45-13.18-33.5-22.21
					c-0.61-0.78-1.21-1.55-1.82-2.31c-0.26-0.33-0.52-0.66-0.78-1c-2.56-3.29-5.2-6.69-11.91-8.17c-0.27-0.06-0.44-0.33-0.38-0.6
					c0.06-0.27,0.32-0.44,0.6-0.38c7.06,1.55,9.94,5.26,12.48,8.53c0.26,0.33,0.52,0.66,0.77,0.99c0.61,0.77,1.21,1.54,1.82,2.32
					c6.94,8.89,14.12,18.08,32.91,21.84c21.56,4.32,55.71,0.94,72.86-4.81c0.26-0.08,0.54,0.05,0.63,0.32
					c0.09,0.26-0.05,0.54-0.32,0.63C130.99,416,111.12,418.85,92.8,418.85z"/>
			</g>
			<g>
				<path class="st7" d="M25.75,402.14c-0.16,0-0.31-0.07-0.41-0.21L13.9,385.63c-0.16-0.23-0.1-0.54,0.12-0.7
					c0.22-0.16,0.54-0.1,0.7,0.12l11.44,16.29c0.16,0.23,0.1,0.54-0.12,0.7C25.95,402.11,25.85,402.14,25.75,402.14z"/>
			</g>
			<g>
				<path class="st7" d="M47.65,418.79c-0.08,0-0.17-0.02-0.24-0.06c-6.02-3.35-11.86-7.14-17.36-11.29
					c-0.22-0.17-0.26-0.48-0.1-0.7c0.17-0.22,0.48-0.26,0.7-0.1c5.47,4.12,11.27,7.89,17.25,11.22c0.24,0.13,0.33,0.44,0.19,0.68
					C48,418.7,47.83,418.79,47.65,418.79z"/>
			</g>
			<g>
				<path class="st7" d="M65.79,408.5c-0.13,0-0.25-0.05-0.35-0.15c-4.77-4.75-10.15-9.27-15.99-13.42
					c-0.22-0.16-0.28-0.47-0.12-0.7c0.16-0.22,0.47-0.28,0.7-0.12c5.88,4.18,11.3,8.74,16.11,13.53c0.2,0.2,0.2,0.51,0,0.71
					C66.04,408.45,65.92,408.5,65.79,408.5z"/>
			</g>
			<g>
				<path class="st7" d="M96.32,413.02c-0.15,0-0.3-0.07-0.39-0.19c-3.05-3.92-6.57-7.72-10.47-11.31c-0.2-0.19-0.22-0.5-0.03-0.71
					c0.19-0.2,0.5-0.21,0.71-0.03c3.94,3.63,7.5,7.47,10.58,11.43c0.17,0.22,0.13,0.53-0.09,0.7
					C96.54,412.98,96.43,413.02,96.32,413.02z"/>
			</g>
			<g>
				<path class="st7" d="M85.8,411.05c-0.1,0-0.21-0.03-0.3-0.1l-21.29-15.73c-0.22-0.16-0.27-0.48-0.11-0.7
					c0.17-0.22,0.48-0.27,0.7-0.11l21.29,15.73c0.22,0.16,0.27,0.48,0.11,0.7C86.11,410.98,85.96,411.05,85.8,411.05z"/>
			</g>
			<g>
				<path class="st7" d="M264.25,325.43c-0.05,0-0.1-0.01-0.14-0.02l-37.7-11.25c-0.26-0.08-0.42-0.36-0.34-0.62
					c0.08-0.26,0.36-0.41,0.62-0.34l37.7,11.25c0.26,0.08,0.42,0.36,0.34,0.62C264.66,325.29,264.46,325.43,264.25,325.43z"/>
			</g>
			<g>
				<path class="st7" d="M260.77,333.58c-0.07,0-0.15-0.02-0.22-0.05c-9.77-4.75-20.2-7.72-31.01-8.84
					c-0.27-0.03-0.47-0.27-0.45-0.55s0.28-0.47,0.55-0.45c10.92,1.13,21.47,4.14,31.34,8.94c0.25,0.12,0.35,0.42,0.23,0.67
					C261.13,333.48,260.95,333.58,260.77,333.58z"/>
			</g>
			<g>
				<path class="st7" d="M243.27,337.03c-0.04,0-0.08,0-0.12-0.01c-7.78-1.93-15.78-3.21-23.77-3.81c-0.28-0.02-0.48-0.26-0.46-0.54
					c0.02-0.28,0.26-0.48,0.54-0.46c8.05,0.6,16.1,1.89,23.94,3.83c0.27,0.07,0.43,0.34,0.37,0.61
					C243.69,336.88,243.49,337.03,243.27,337.03z"/>
			</g>
			<g>
				<path class="st7" d="M220.63,348.23c-0.23,0-0.44-0.16-0.49-0.4c-0.06-0.27,0.12-0.54,0.39-0.59c5.73-1.19,11.6-1.62,17.45-1.29
					c0.28,0.02,0.49,0.25,0.47,0.53c-0.01,0.27-0.24,0.47-0.5,0.47c-0.01,0-0.02,0-0.03,0c-5.75-0.32-11.54,0.1-17.19,1.27
					C220.7,348.23,220.66,348.23,220.63,348.23z"/>
			</g>
			<g>
				<path class="st7" d="M187.41,396.51c-0.24,0-0.45-0.17-0.49-0.41c-1.3-7.3-1.86-14.76-1.66-22.18c0.01-0.28,0.19-0.5,0.51-0.49
					c0.28,0.01,0.49,0.24,0.49,0.51c-0.2,7.35,0.35,14.74,1.64,21.97c0.05,0.27-0.13,0.53-0.4,0.58
					C187.47,396.51,187.44,396.51,187.41,396.51z"/>
			</g>
			<g>
				<path class="st7" d="M197.37,398.94c-0.25,0-0.46-0.18-0.49-0.43L194.33,380c-0.04-0.27,0.15-0.53,0.43-0.56
					c0.27-0.04,0.53,0.15,0.56,0.43l2.55,18.51c0.04,0.27-0.15,0.53-0.43,0.56C197.41,398.94,197.39,398.94,197.37,398.94z"/>
			</g>
			<g>
				<path class="st7" d="M207.55,400.11c-0.19,0-0.38-0.11-0.46-0.3c-2.24-5.12-3.24-10.78-2.88-16.36
					c0.02-0.27,0.23-0.48,0.53-0.47c0.28,0.02,0.48,0.25,0.47,0.53c-0.35,5.42,0.62,10.92,2.8,15.89c0.11,0.25,0,0.55-0.26,0.66
					C207.68,400.1,207.62,400.11,207.55,400.11z"/>
			</g>
			<g>
				<path class="st7" d="M148.27,221.34c-0.02,0-0.04,0-0.06,0c-5.32-0.59-8.81-5.52-9.81-9.85c-1.11-4.84,0-9.92,1.23-14.25
					c1.79-6.31,4.2-12.48,7.14-18.34c0.12-0.25,0.42-0.35,0.67-0.22c0.25,0.12,0.35,0.42,0.22,0.67c-2.92,5.81-5.3,11.92-7.07,18.16
					c-1.2,4.21-2.28,9.13-1.21,13.76c0.92,4,4.11,8.55,8.94,9.08c0.28,0.03,0.47,0.28,0.44,0.55
					C148.73,221.15,148.52,221.34,148.27,221.34z"/>
			</g>
			<g>
				<path class="st7" d="M150.44,203.7c-0.14,0-0.28-0.06-0.38-0.17c-2.43-2.77-1.18-6.95-0.02-9.86
					c3.79-9.54,8.39-18.83,13.69-27.61c0.14-0.24,0.45-0.31,0.69-0.17c0.24,0.14,0.31,0.45,0.17,0.69
					c-5.27,8.74-9.85,17.98-13.61,27.47c-1.06,2.66-2.22,6.47-0.15,8.83c0.18,0.21,0.16,0.52-0.05,0.71
					C150.68,203.66,150.56,203.7,150.44,203.7z"/>
			</g>
			<g>
				<path class="st7" d="M161.1,211.87c-0.26,0-0.47-0.2-0.5-0.46c-1.06-11.82,1.04-23.75,6.07-34.49c0.12-0.25,0.42-0.36,0.67-0.24
					c0.25,0.12,0.36,0.42,0.24,0.67c-4.96,10.58-7.03,22.33-5.98,33.98c0.02,0.28-0.18,0.52-0.45,0.54
					C161.13,211.87,161.11,211.87,161.1,211.87z"/>
			</g>
			<g>
				<path class="st7" d="M157.27,221.35c-0.08,0-0.15-0.02-0.22-0.05c-5.42-2.68-9.87-7.15-12.52-12.58
					c-0.12-0.25-0.02-0.55,0.23-0.67c0.25-0.12,0.55-0.02,0.67,0.23c2.56,5.24,6.84,9.54,12.06,12.12c0.25,0.12,0.35,0.42,0.23,0.67
					C157.63,221.25,157.45,221.35,157.27,221.35z"/>
			</g>
			<g>
				<path class="st7" d="M172.76,169.39c-0.07,0-0.13-0.01-0.2-0.04c-0.25-0.11-0.37-0.4-0.26-0.66c1.57-3.71,6.02-4.83,10.17-5.44
					l7.62-1.12c0.27-0.04,0.53,0.15,0.57,0.42c0.04,0.27-0.15,0.53-0.42,0.57l-7.62,1.12c-3.87,0.57-8.01,1.58-9.39,4.84
					C173.14,169.28,172.95,169.39,172.76,169.39z"/>
			</g>
			<g>
				<path class="st7" d="M170.69,181.06c-0.05,0-0.11-0.01-0.16-0.03c-0.26-0.09-0.4-0.38-0.31-0.64c1.14-3.29,4.25-6,8.31-7.26
					c3.6-1.12,7.38-1.08,11.04-1.04c0.28,0,0.5,0.23,0.49,0.51c0,0.27-0.23,0.49-0.5,0.49c0,0,0,0-0.01,0
					c-3.57-0.04-7.28-0.08-10.73,0.99c-3.76,1.17-6.62,3.64-7.66,6.63C171.09,180.93,170.9,181.06,170.69,181.06z"/>
			</g>
			<g>
				<path class="st7" d="M167.96,207.06c-0.01,0-0.02,0-0.03,0c-0.28-0.01-0.49-0.25-0.47-0.53c0.32-6.18,1.56-12.26,3.67-18.07
					c0.09-0.26,0.38-0.39,0.64-0.3c0.26,0.09,0.39,0.38,0.3,0.64c-2.08,5.72-3.29,11.7-3.61,17.78
					C168.45,206.85,168.23,207.06,167.96,207.06z"/>
			</g>
			<g>
				<path class="st7" d="M159.09,232.03c-0.04,0-0.08,0-0.11-0.01c-1.95-0.45-4-0.71-5.97-0.95c-2.8-0.34-5.69-0.7-8.42-1.64
					c-4.74-1.63-9.31-5.94-8.87-11.02c0.02-0.28,0.27-0.46,0.54-0.46c0.28,0.02,0.48,0.27,0.46,0.54c-0.4,4.58,3.82,8.49,8.19,9.99
					c2.63,0.9,5.47,1.25,8.22,1.59c2,0.25,4.07,0.5,6.08,0.97c0.27,0.06,0.44,0.33,0.37,0.6
					C159.53,231.88,159.32,232.03,159.09,232.03z"/>
			</g>
			<g>
				<path class="st7" d="M202.33,186.65c-0.21,0-0.41-0.14-0.48-0.35c-1.64-5.2-3.61-10.34-5.85-15.3c-0.11-0.25,0-0.55,0.25-0.66
					c0.25-0.11,0.55,0,0.66,0.25c2.26,4.99,4.25,10.17,5.9,15.41c0.08,0.26-0.06,0.54-0.33,0.63
					C202.43,186.65,202.38,186.65,202.33,186.65z"/>
			</g>
			<g>
				<path class="st7" d="M193.68,186.71c-0.03,0-0.05,0-0.08-0.01c-0.27-0.04-0.46-0.3-0.42-0.57c0.23-1.49-2.03-2.26-3.26-2.46
					c-3.48-0.57-7.02-0.74-10.53-0.5c-0.26,0.03-0.51-0.19-0.53-0.47c-0.02-0.28,0.19-0.51,0.47-0.53
					c3.58-0.24,7.21-0.07,10.76,0.52c2.25,0.37,4.38,1.62,4.09,3.6C194.14,186.54,193.92,186.71,193.68,186.71z"/>
			</g>
			<g>
				<path class="st7" d="M80.82,151.49c-0.04,0-0.09-0.01-0.13-0.02c-0.27-0.07-0.42-0.35-0.35-0.61c1.46-5.38,6.76-9.48,12.34-9.54
					c0,0,0,0,0,0c0.27,0,0.5,0.22,0.5,0.5c0,0.28-0.22,0.5-0.5,0.5c-5.15,0.05-10.04,3.83-11.38,8.8
					C81.24,151.34,81.04,151.49,80.82,151.49z"/>
			</g>
			<g>
				<path class="st7" d="M70.58,159.89c-0.09,0-0.19-0.03-0.28-0.08c-0.23-0.15-0.29-0.46-0.14-0.69c1.81-2.74,2.5-6.09,3.17-9.33
					c0.26-1.25,0.52-2.54,0.85-3.79c1.52-5.82,4.84-9.75,8.87-10.51c0.27-0.05,0.53,0.13,0.58,0.4c0.05,0.27-0.13,0.53-0.4,0.58
					c-5.4,1.02-7.55,7.74-8.09,9.78c-0.32,1.22-0.58,2.5-0.84,3.74c-0.69,3.33-1.4,6.78-3.31,9.68
					C70.9,159.81,70.74,159.89,70.58,159.89z"/>
			</g>
			<g>
				<path class="st7" d="M69.17,181.87c-0.03,0-0.05,0-0.08-0.01c-1.83-0.29-3.57-1.03-5.06-2.13c-0.09-0.07-0.15-0.16-0.18-0.27
					c-1.25-4.54,1.44-9.75,5.86-11.37c0.26-0.1,0.55,0.04,0.64,0.3c0.09,0.26-0.04,0.55-0.3,0.64c-3.84,1.4-6.27,6.04-5.28,9.99
					c1.22,0.88,2.63,1.49,4.11,1.78c2.22-4.67,9.98-14.16,13.86-17.38c0.21-0.18,0.53-0.15,0.7,0.07s0.15,0.53-0.07,0.7
					c-3.82,3.17-11.87,13.04-13.75,17.37C69.55,181.75,69.37,181.87,69.17,181.87z"/>
			</g>
			<g>
				<path class="st7" d="M74.15,166.01c-0.05,0-0.09-0.01-0.14-0.02c-0.27-0.08-0.42-0.35-0.34-0.62c1.04-3.57,2.26-7.14,3.61-10.6
					c0.1-0.26,0.39-0.39,0.65-0.28c0.26,0.1,0.38,0.39,0.28,0.65c-1.34,3.43-2.55,6.97-3.58,10.51
					C74.57,165.87,74.37,166.01,74.15,166.01z"/>
			</g>
			<g>
				<path class="st7" d="M178.67,240.45c-4.37,0-8.73-0.49-12.99-1.45c-0.27-0.06-0.44-0.33-0.38-0.6c0.06-0.27,0.33-0.44,0.6-0.38
					c4.93,1.12,9.99,1.58,15.04,1.38c0.32,0,0.51,0.21,0.52,0.48s-0.2,0.51-0.48,0.52C180.21,240.43,179.44,240.45,178.67,240.45z"
					/>
			</g>
			<g>
				<path class="st7" d="M178.17,233.71c-0.02,0-0.05,0-0.07,0l-8.53-1.16c-0.74-0.1-1.65-0.22-2.37-0.79
					c-0.68-0.54-1.02-1.35-1.3-2l-5.03-11.97c-0.11-0.25,0.01-0.55,0.27-0.65c0.25-0.11,0.55,0.01,0.65,0.27l5.03,11.97
					c0.24,0.57,0.51,1.22,0.99,1.6c0.5,0.4,1.24,0.5,1.88,0.58l8.53,1.16c0.27,0.04,0.47,0.29,0.43,0.56
					C178.63,233.52,178.42,233.71,178.17,233.71z"/>
			</g>
			<g>
				<path class="st7" d="M187.38,234.51c-0.16,0-0.31-0.07-0.41-0.21c-0.16-0.22-0.11-0.54,0.11-0.7
					c5.8-4.17,10.22-10.2,12.45-16.98c0.49-1.5,2.98-5.45,5.27-9.04c0.35-0.55,0.64-1,0.82-1.29c0.15-0.24,0.46-0.3,0.69-0.16
					c0.23,0.15,0.31,0.45,0.16,0.69c-0.19,0.3-0.48,0.75-0.83,1.3c-1.52,2.37-4.67,7.31-5.16,8.81
					c-2.29,6.98-6.84,13.19-12.81,17.48C187.59,234.48,187.49,234.51,187.38,234.51z"/>
			</g>
			<g>
				<path class="st7" d="M92.74,161.09c-0.25,0-0.5-0.01-0.76-0.03c-0.28-0.02-0.48-0.27-0.46-0.54c0.02-0.28,0.27-0.48,0.54-0.46
					c4.46,0.38,7.18-3.08,7.43-5.73c0.07-0.7,0.07-1.4,0.08-2.15c0.01-2.43,0.03-4.94,2.29-6.94c0.2-0.18,0.52-0.17,0.71,0.04
					c0.18,0.21,0.16,0.52-0.04,0.71c-1.93,1.7-1.94,3.88-1.95,6.19c0,0.74-0.01,1.5-0.08,2.24
					C100.21,157.33,97.38,161.09,92.74,161.09z"/>
			</g>
			<g>
				<path class="st7" d="M422.19,178.6c-0.08,0-0.17-0.02-0.25-0.07c-0.24-0.14-0.32-0.44-0.18-0.68
					c5.81-10.08,6.74-23.52,2.75-39.94c-1.71-7.03-4.04-13.95-6.93-20.58c-0.11-0.25,0-0.55,0.26-0.66c0.25-0.11,0.55,0,0.66,0.26
					c2.91,6.68,5.26,13.66,6.99,20.74c4.05,16.68,3.09,30.36-2.86,40.67C422.53,178.51,422.36,178.6,422.19,178.6z"/>
			</g>
			<g>
				<path class="st7" d="M413.39,155.35c-0.25,0-0.47-0.2-0.5-0.46l-1.96-21.51c-0.28-3.08-3.57-8.61-6.47-13.49
					c-2.25-3.79-4.38-7.37-5.1-9.71c-0.08-0.26,0.07-0.54,0.33-0.62c0.27-0.08,0.54,0.07,0.62,0.33c0.68,2.22,2.78,5.75,5,9.49
					c3.1,5.21,6.31,10.61,6.61,13.91l1.96,21.51c0.03,0.27-0.18,0.52-0.45,0.54C413.42,155.35,413.4,155.35,413.39,155.35z"/>
			</g>
			<g>
				<path class="st7" d="M431.51,149.98c-0.01,0-0.03,0-0.04,0c-0.28-0.02-0.48-0.27-0.45-0.54c0.66-7.44,0.15-14.9-1.5-22.18
					c-0.06-0.27,0.11-0.54,0.38-0.6c0.27-0.06,0.54,0.11,0.6,0.38c1.68,7.38,2.19,14.95,1.53,22.49
					C431.99,149.79,431.77,149.98,431.51,149.98z"/>
			</g>
			<g>
				<path class="st7" d="M414.1,182.16c-0.06,0-0.13-0.01-0.19-0.04c-0.26-0.11-0.38-0.4-0.27-0.65c2.47-5.94,4.1-12.2,4.86-18.59
					c0.03-0.27,0.27-0.47,0.55-0.44c0.27,0.03,0.47,0.28,0.44,0.55c-0.76,6.48-2.42,12.83-4.92,18.86
					C414.48,182.05,414.29,182.16,414.1,182.16z"/>
			</g>
			<g>
				<path class="st7" d="M403.54,170.59c-0.28,0-0.5-0.22-0.5-0.5v-26c0-0.28,0.22-0.5,0.5-0.5s0.5,0.22,0.5,0.5v26
					C404.04,170.37,403.82,170.59,403.54,170.59z"/>
			</g>
			<g>
				<path class="st7" d="M384.06,289.15c-0.11,0-0.22-0.04-0.31-0.11c-0.22-0.17-0.25-0.48-0.08-0.7l13.38-17.09
					c0.17-0.22,0.48-0.25,0.7-0.08c0.22,0.17,0.25,0.48,0.08,0.7l-13.38,17.09C384.35,289.08,384.2,289.15,384.06,289.15z"/>
			</g>
			<g>
				<path class="st7" d="M364.22,314.16c-0.1,0-0.19-0.03-0.28-0.08c-0.23-0.15-0.29-0.46-0.14-0.69
					c8.69-13.08,15.56-27.26,20.45-42.17c-2.08,2.09-5.17,3.8-8.2,5.47c-4.01,2.22-8.16,4.51-9.63,7.56
					c-0.12,0.25-0.42,0.35-0.67,0.23c-0.25-0.12-0.35-0.42-0.23-0.67c1.6-3.33,5.89-5.71,10.04-8c4.01-2.22,8.16-4.51,9.63-7.56
					c0.11-0.24,0.39-0.34,0.63-0.25c0.24,0.1,0.37,0.36,0.29,0.61c-4.97,16.06-12.2,31.31-21.5,45.32
					C364.55,314.08,364.39,314.16,364.22,314.16z"/>
			</g>
		</g>
		<g id="Dot_00000182506617849360877020000000053103177709921683_">
			<g>
				<path class="st7" d="M379.19,84.2c-0.48,0.26-1.04,0.33-1.57,0.17c-0.53-0.15-0.96-0.5-1.23-0.99
					c-0.26-0.48-0.33-1.04-0.17-1.57c0.15-0.53,0.5-0.96,0.99-1.23c0.62-0.34,1.34-0.33,1.92-0.03c0.36,0.18,0.67,0.47,0.87,0.85
					C380.56,82.4,380.19,83.66,379.19,84.2z"/>
			</g>
			<g>
				<path class="st7" d="M383.9,101.79c-0.96-0.42-1.4-1.53-0.98-2.48c0.2-0.46,0.57-0.82,1.04-1.01c0.47-0.19,0.98-0.18,1.44,0.02
					c0.04,0.02,0.07,0.03,0.11,0.05c0.41,0.21,0.73,0.55,0.9,0.99c0.19,0.47,0.18,0.98-0.02,1.44
					C385.97,101.76,384.86,102.2,383.9,101.79z"/>
			</g>
			<g>
				<path class="st7" d="M372.83,96.59c-0.79,0.43-1.79,0.14-2.22-0.65c-0.43-0.79-0.14-1.79,0.65-2.22
					c0.49-0.27,1.06-0.26,1.53-0.02c0.29,0.14,0.53,0.37,0.7,0.67C373.92,95.16,373.63,96.15,372.83,96.59z"/>
			</g>
			<g>
				<path class="st7" d="M383.53,117.49c-0.35,0.14-0.73,0.13-1.07-0.02c-0.34-0.15-0.61-0.42-0.75-0.77
					c-0.14-0.35-0.13-0.73,0.02-1.07c0.15-0.34,0.42-0.61,0.77-0.75c0.35-0.14,0.73-0.13,1.07,0.02c0.03,0.01,0.05,0.02,0.08,0.04
					c0.31,0.15,0.54,0.41,0.67,0.73c0.14,0.35,0.13,0.73-0.02,1.07C384.16,117.09,383.88,117.35,383.53,117.49z"/>
			</g>
			<g>
				<path class="st7" d="M154.92,386.44c-0.29-0.47-0.39-1.02-0.26-1.55c0.12-0.53,0.45-0.99,0.91-1.28
					c0.47-0.29,1.02-0.39,1.55-0.26c0.54,0.12,0.99,0.45,1.28,0.91c0.37,0.6,0.4,1.31,0.14,1.92c-0.16,0.37-0.43,0.69-0.79,0.92
					C156.8,387.69,155.53,387.4,154.92,386.44z"/>
			</g>
			<g>
				<path class="st7" d="M134.49,400.5c0.36-0.98,1.44-1.48,2.42-1.13c0.47,0.17,0.85,0.52,1.07,0.98c0.21,0.46,0.24,0.97,0.06,1.44
					c-0.01,0.04-0.03,0.07-0.04,0.11c-0.18,0.42-0.51,0.76-0.93,0.96c-0.46,0.21-0.97,0.24-1.44,0.06
					C134.64,402.56,134.13,401.48,134.49,400.5z"/>
			</g>
			<g>
				<path class="st7" d="M132.59,385.86c-0.48-0.77-0.25-1.78,0.52-2.26c0.77-0.48,1.78-0.25,2.26,0.52
					c0.3,0.47,0.32,1.04,0.11,1.52c-0.13,0.29-0.34,0.55-0.63,0.73C134.08,386.86,133.07,386.62,132.59,385.86z"/>
			</g>
			<g>
				<path class="st7" d="M112.35,397.76c-0.16-0.34-0.17-0.72-0.05-1.07c0.13-0.35,0.39-0.63,0.72-0.79
					c0.34-0.16,0.72-0.17,1.07-0.05c0.35,0.13,0.63,0.39,0.79,0.72c0.16,0.34,0.17,0.72,0.05,1.07c-0.01,0.03-0.02,0.05-0.03,0.08
					c-0.14,0.31-0.38,0.56-0.69,0.71c-0.34,0.16-0.72,0.17-1.07,0.05C112.78,398.36,112.5,398.1,112.35,397.76z"/>
			</g>
			<g>
				<path class="st7" d="M108.38,113.53c-0.79,0.43-1.79,0.14-2.22-0.65c-0.43-0.79-0.14-1.79,0.65-2.22
					c0.49-0.27,1.06-0.26,1.53-0.02c0.29,0.14,0.53,0.37,0.7,0.67C109.47,112.1,109.18,113.1,108.38,113.53z"/>
			</g>
			<g>
				<path class="st7" d="M113.83,129.89c-0.35,0.14-0.73,0.13-1.07-0.02c-0.34-0.15-0.61-0.42-0.75-0.77
					c-0.14-0.35-0.13-0.73,0.02-1.07c0.15-0.34,0.42-0.61,0.77-0.75c0.35-0.14,0.73-0.13,1.07,0.02c0.03,0.01,0.05,0.02,0.08,0.04
					c0.31,0.15,0.54,0.41,0.67,0.73c0.14,0.35,0.13,0.73-0.02,1.07C114.45,129.49,114.17,129.75,113.83,129.89z"/>
			</g>
			<g>
				<path class="st7" d="M346.26,307.72c-0.96-0.42-1.4-1.53-0.98-2.48c0.2-0.46,0.57-0.82,1.04-1.01c0.47-0.19,0.98-0.18,1.44,0.02
					c0.04,0.02,0.07,0.03,0.11,0.05c0.41,0.21,0.73,0.55,0.9,0.99c0.19,0.47,0.18,0.98-0.02,1.44
					C348.32,307.69,347.21,308.13,346.26,307.72z"/>
			</g>
			<g>
				<path class="st7" d="M335.19,302.52c-0.79,0.43-1.79,0.14-2.22-0.65c-0.43-0.79-0.14-1.79,0.65-2.22
					c0.49-0.27,1.06-0.26,1.53-0.02c0.29,0.14,0.53,0.37,0.7,0.67C336.27,301.09,335.98,302.09,335.19,302.52z"/>
			</g>
			<g>
				<path class="st7" d="M345.89,323.42c-0.35,0.14-0.73,0.13-1.07-0.02c-0.34-0.15-0.61-0.42-0.75-0.77
					c-0.14-0.35-0.13-0.73,0.02-1.07c0.15-0.34,0.42-0.61,0.77-0.75c0.35-0.14,0.73-0.13,1.07,0.02c0.03,0.01,0.05,0.02,0.08,0.04
					c0.31,0.15,0.54,0.41,0.67,0.73c0.14,0.35,0.13,0.73-0.02,1.07C346.51,323.02,346.24,323.29,345.89,323.42z"/>
			</g>
			<g>
				<path class="st7" d="M342.69,213.48c-0.14,0.53-0.48,0.98-0.96,1.25c-0.47,0.27-1.03,0.35-1.56,0.21
					c-0.53-0.14-0.98-0.48-1.25-0.96c-0.28-0.48-0.35-1.03-0.21-1.56c0.18-0.68,0.68-1.19,1.3-1.41c0.38-0.13,0.8-0.16,1.22-0.05
					C342.32,211.25,342.98,212.38,342.69,213.48z"/>
			</g>
			<g>
				<path class="st7" d="M358.21,234.72c-0.96,0.41-2.07-0.04-2.48-1c-0.2-0.46-0.2-0.98-0.01-1.45c0.19-0.47,0.55-0.83,1.01-1.03
					c0.04-0.02,0.07-0.03,0.11-0.04c0.43-0.15,0.9-0.15,1.34,0.03c0.47,0.19,0.83,0.55,1.03,1.01
					C359.62,233.2,359.17,234.32,358.21,234.72z"/>
			</g>
			<g>
				<path class="st7" d="M361.15,219.99c-0.23,0.87-1.13,1.39-2,1.16c-0.87-0.23-1.39-1.13-1.16-2c0.14-0.54,0.54-0.95,1.04-1.12
					c0.3-0.11,0.64-0.13,0.97-0.04C360.86,218.21,361.38,219.11,361.15,219.99z"/>
			</g>
			<g>
				<path class="st7" d="M373.39,239.03c-0.14,0.35-0.41,0.62-0.75,0.77c-0.34,0.15-0.73,0.15-1.07,0.01
					c-0.35-0.14-0.62-0.41-0.77-0.75c-0.15-0.34-0.15-0.73-0.01-1.07c0.14-0.35,0.41-0.62,0.75-0.77c0.03-0.01,0.05-0.02,0.08-0.03
					c0.32-0.11,0.67-0.11,0.99,0.02c0.35,0.14,0.62,0.41,0.77,0.75C373.53,238.3,373.53,238.68,373.39,239.03z"/>
			</g>
		</g>
	</g>
</g>
<g id="Guide">
</g>
</svg>
