<?xml version="1.0" encoding="utf-8"?>
<!-- Generator: Adobe Illustrator 26.1.0, SVG Export Plug-In . SVG Version: 6.00 Build 0)  -->
<svg version="1.1" xmlns="http://www.w3.org/2000/svg" xmlns:xlink="http://www.w3.org/1999/xlink" x="0px" y="0px"
	 viewBox="0 0 285.02 528.34" style="enable-background:new 0 0 285.02 528.34;" xml:space="preserve">
<style type="text/css">
	.st0{fill:#FFFFFF;stroke:#000000;stroke-miterlimit:10;}
	.st1{fill:#BFA071;stroke:#554B4E;stroke-width:1.5;stroke-linecap:round;stroke-linejoin:round;stroke-miterlimit:10;}
	.st2{fill:#BFA071;stroke:#554B4E;stroke-linecap:round;stroke-linejoin:round;stroke-miterlimit:10;}
	.st3{fill:#F8F4E9;stroke:#554B4E;stroke-width:1.5;stroke-linecap:round;stroke-linejoin:round;stroke-miterlimit:10;}
	.st4{fill:#F2DED6;stroke:#554B4E;stroke-width:1.5;stroke-linecap:round;stroke-linejoin:round;stroke-miterlimit:10;}
	.st5{fill:none;stroke:#554B4E;stroke-linecap:round;stroke-linejoin:round;stroke-miterlimit:10;}
	.st6{fill:#BFA071;}
	.st7{fill:#554B4E;}
	.st8{fill:#F8F4E9;}
	.st9{fill:none;stroke:#554B4E;stroke-width:1.5;stroke-linecap:round;stroke-linejoin:round;stroke-miterlimit:10;}
	.st10{fill:#F8F4E9;stroke:#554B4E;stroke-linecap:round;stroke-linejoin:round;stroke-miterlimit:10;}
	.st11{fill:#F2DED6;stroke:#554B4E;stroke-linecap:round;stroke-linejoin:round;stroke-miterlimit:10;}
	.st12{clip-path:url(#SVGID_00000172399057079888778570000009452046755435082673_);}
	.st13{fill:none;stroke:#BFA071;stroke-width:1.5;stroke-linecap:round;stroke-linejoin:round;}
	.st14{fill:none;stroke:#BFA071;stroke-width:1.5;stroke-linecap:round;stroke-linejoin:round;stroke-dasharray:68.8403,19.6687;}
	.st15{fill:none;stroke:#BFA071;stroke-width:1.5;stroke-linecap:round;stroke-linejoin:round;stroke-dasharray:71.4455,20.413;}
	.st16{fill:none;stroke:#BFA071;stroke-width:1.5;stroke-linecap:round;stroke-linejoin:round;stroke-dasharray:69.5884,19.8824;}
	.st17{fill:none;stroke:#BFA071;stroke-width:1.5;stroke-linecap:round;stroke-linejoin:round;stroke-dasharray:61.3524,17.5292;}
	.st18{fill:none;stroke:#BFA071;stroke-width:1.5;stroke-linecap:round;stroke-linejoin:round;stroke-dasharray:63.9932,18.2838;}
	.st19{fill:none;stroke:#BFA071;stroke-width:1.5;stroke-linecap:round;stroke-linejoin:round;stroke-dasharray:72.7778,20.7937;}
	.st20{fill:none;stroke:#BFA071;stroke-width:1.5;stroke-linecap:round;stroke-linejoin:round;stroke-dasharray:77.193,22.0551;}
	.st21{fill:none;stroke:#BFA071;stroke-width:1.5;stroke-linecap:round;stroke-linejoin:round;stroke-dasharray:75.3802,21.5372;}
	.st22{fill:none;stroke:#BFA071;stroke-width:1.5;stroke-linecap:round;stroke-linejoin:round;stroke-dasharray:73.6885,21.0538;}
	.st23{fill:none;stroke:#BFA071;stroke-width:1.5;stroke-linecap:round;stroke-linejoin:round;stroke-dasharray:63.3162,18.0903;}
	.st24{fill:none;stroke:#BFA071;stroke-width:1.5;stroke-linecap:round;stroke-linejoin:round;stroke-dasharray:62.0513,17.7289;}
	.st25{fill:none;stroke:#BFA071;stroke-width:1.5;stroke-linecap:round;stroke-linejoin:round;stroke-dasharray:68.9157,19.6902;}
	.st26{fill:none;stroke:#554B4E;stroke-width:1.5;stroke-linecap:round;stroke-linejoin:round;}
	.st27{fill:none;stroke:#554B4E;stroke-width:1.5;stroke-linecap:round;stroke-linejoin:round;stroke-dasharray:15.0532,10.0355;}
	.st28{fill:none;stroke:#554B4E;stroke-width:1.5;stroke-linecap:round;stroke-linejoin:round;stroke-dasharray:14.9985,9.999;}
	.st29{fill:none;stroke:#554B4E;stroke-width:1.5;stroke-linecap:round;stroke-linejoin:round;stroke-dasharray:14.8977,9.9318;}
	.st30{fill:none;stroke:#554B4E;stroke-width:1.5;stroke-linecap:round;stroke-linejoin:round;stroke-dasharray:15.4213,10.2808;}
	.st31{fill:none;stroke:#554B4E;stroke-width:1.5;stroke-linecap:round;stroke-linejoin:round;stroke-dasharray:15.2271,10.1514;}
	.st32{fill:none;stroke:#554B4E;stroke-width:1.5;stroke-linecap:round;stroke-linejoin:round;stroke-dasharray:15.021,10.014;}
	.st33{fill:none;stroke:#554B4E;stroke-width:1.5;stroke-linecap:round;stroke-linejoin:round;stroke-dasharray:15.0727,10.0485;}
	.st34{fill:none;stroke:#554B4E;stroke-width:1.5;stroke-linecap:round;stroke-linejoin:round;stroke-dasharray:14.6942,9.7961;}
	.st35{fill:none;stroke:#554B4E;stroke-width:1.5;stroke-linecap:round;stroke-linejoin:round;stroke-dasharray:14.7469,9.8312;}
	.st36{fill:none;stroke:#554B4E;stroke-width:1.5;stroke-linecap:round;stroke-linejoin:round;stroke-dasharray:15.0819,10.0546;}
	.st37{fill:none;stroke:#554B4E;stroke-width:1.5;stroke-linecap:round;stroke-linejoin:round;stroke-dasharray:15.003,10.002;}
	.st38{fill:#F2DED6;}
	.st39{fill:#F2DED6;stroke:#554B4E;stroke-width:1.5;stroke-linecap:round;stroke-miterlimit:10;}
	.st40{fill:none;stroke:#554B4E;stroke-width:1.5;stroke-linecap:round;stroke-miterlimit:10;}
	.st41{fill:none;stroke:#554B4E;stroke-linecap:round;stroke-miterlimit:10;}
	.st42{fill:none;stroke:#BFA071;stroke-linecap:round;stroke-linejoin:round;}
	.st43{fill:none;stroke:#BFA071;stroke-linecap:round;stroke-linejoin:round;stroke-dasharray:14.9905,14.9905;}
	.st44{fill:none;stroke:#BFA071;stroke-linecap:round;stroke-linejoin:round;stroke-dasharray:51.384,34.256;}
	.st45{fill:none;stroke:#554B4E;stroke-miterlimit:10;}
	.st46{clip-path:url(#SVGID_00000181061605700443704640000008509550458600570757_);}
	.st47{fill:none;stroke:#554B4E;stroke-width:1.5;stroke-linecap:round;stroke-linejoin:round;stroke-dasharray:68.8403,19.6687;}
	.st48{fill:none;stroke:#554B4E;stroke-width:1.5;stroke-linecap:round;stroke-linejoin:round;stroke-dasharray:71.4455,20.413;}
	.st49{fill:none;stroke:#554B4E;stroke-width:1.5;stroke-linecap:round;stroke-linejoin:round;stroke-dasharray:69.5884,19.8824;}
	.st50{fill:none;stroke:#554B4E;stroke-width:1.5;stroke-linecap:round;stroke-linejoin:round;stroke-dasharray:61.3524,17.5292;}
	.st51{fill:none;stroke:#554B4E;stroke-width:1.5;stroke-linecap:round;stroke-linejoin:round;stroke-dasharray:63.9932,18.2838;}
	.st52{fill:none;stroke:#554B4E;stroke-width:1.5;stroke-linecap:round;stroke-linejoin:round;stroke-dasharray:72.7778,20.7937;}
	.st53{fill:none;stroke:#554B4E;stroke-width:1.5;stroke-linecap:round;stroke-linejoin:round;stroke-dasharray:77.193,22.0551;}
	.st54{fill:none;stroke:#554B4E;stroke-width:1.5;stroke-linecap:round;stroke-linejoin:round;stroke-dasharray:75.3802,21.5372;}
	.st55{fill:none;stroke:#554B4E;stroke-width:1.5;stroke-linecap:round;stroke-linejoin:round;stroke-dasharray:73.6885,21.0538;}
	.st56{fill:none;stroke:#554B4E;stroke-width:1.5;stroke-linecap:round;stroke-linejoin:round;stroke-dasharray:63.3162,18.0903;}
	.st57{fill:none;stroke:#554B4E;stroke-width:1.5;stroke-linecap:round;stroke-linejoin:round;stroke-dasharray:62.0513,17.7289;}
	.st58{fill:none;stroke:#554B4E;stroke-width:1.5;stroke-linecap:round;stroke-linejoin:round;stroke-dasharray:68.9157,19.6902;}
	.st59{fill:none;stroke:#554B4E;stroke-linecap:round;stroke-linejoin:round;}
	.st60{fill:none;stroke:#554B4E;stroke-linecap:round;stroke-linejoin:round;stroke-dasharray:14.9905,14.9905;}
	.st61{fill:none;stroke:#554B4E;stroke-linecap:round;stroke-linejoin:round;stroke-dasharray:51.384,34.256;}
	.st62{fill:#95608F;}
	.st63{fill:#ED859E;}
	.st64{fill:#FAC87D;}
	.st65{opacity:0.1;}
	.st66{fill:#B5846F;}
	.st67{fill:#B5846F;stroke:#B5846F;stroke-width:5;stroke-linecap:round;stroke-linejoin:round;stroke-miterlimit:10;}
	.st68{fill:#EAD9EB;}
	.st69{fill:#FFFFFF;}
	.st70{fill:url(#SVGID_00000159460923821481221480000003927610491447531449_);}
	.st71{opacity:0.8;fill:#FFFFFF;}
	.st72{fill:url(#SVGID_00000179631638881725037580000004975426838413017790_);}
	.st73{fill:url(#SVGID_00000097492250701903067200000014804424939977694142_);}
	.st74{opacity:0.8;}
	.st75{opacity:0.6;}
	.st76{opacity:0.2;}
	.st77{fill:none;}
	.st78{fill:url(#SVGID_00000015343144022359461620000013031043849054696613_);}
	.st79{fill:url(#SVGID_00000135690925529971781940000002929334813743438474_);}
	.st80{clip-path:url(#SVGID_00000060026283688176898150000018207206157494745745_);fill:#FFFFFF;}
	.st81{clip-path:url(#SVGID_00000111910116186571602010000017241789176804189840_);fill:#FFFFFF;}
	.st82{clip-path:url(#SVGID_00000091713639651116106290000001897851029453151379_);fill:#FFFFFF;}
	.st83{clip-path:url(#SVGID_00000163069604321500066400000010756940215333809820_);fill:#FFFFFF;}
	.st84{clip-path:url(#SVGID_00000163042866269626205760000002614555010408404366_);fill:#FFFFFF;}
</style>
<g id="Bg">
</g>
<g id="Graphic">
	<g id="Hourglass_00000161599221872578789010000004180879888897920412_">
		<g id="Wood_00000021814077200879275810000014939519870034953104_">
			<g>
				<path class="st8" d="M275.44,506.79c-88.6,8.93-178.15,8.81-266.75-0.06c-4.14,0.15-8.02,3.3-7.94,7.08
					c0,3.91,3.83,7.11,8.51,7.11c88.51,8.91,177.98,8.91,266.5,0C287.07,521.07,286.48,506,275.44,506.79z"/>
				<path class="st7" d="M142.51,528.34c-44.54,0-89.09-2.23-133.33-6.68c0,0-0.01,0-0.01,0c-5.03,0-9.18-3.52-9.18-7.85
					c-0.09-4.06,3.88-7.65,8.66-7.83c0.03-0.01,0.07,0,0.1,0c88.99,8.9,178.68,8.92,266.61,0.06c0.01,0,0.01,0,0.02,0
					c3.56-0.25,6.52,1.07,8.14,3.62c1.51,2.37,1.6,5.49,0.24,7.93c-1.47,2.64-4.4,4.14-8.02,4.08
					C231.56,526.12,187.04,528.34,142.51,528.34z M8.67,507.48c-3.89,0.17-7.23,3.11-7.17,6.31c0,3.52,3.48,6.37,7.76,6.37
					c88.44,8.9,178.05,8.9,266.42,0c3.19,0.05,5.56-1.14,6.78-3.31c1.1-1.97,1.02-4.48-0.19-6.39c-1.33-2.1-3.73-3.14-6.76-2.93
					C187.51,516.41,97.73,516.39,8.67,507.48z"/>
			</g>
			<g>
				<path class="st8" d="M142.43,499.23c-44.97,0.27-89.91-2.81-134.63-6.55v-0.02c-9.99,1.24-8.6,14.44,1.46,14.05
					c88.72,9.01,178.37,8.75,267.09,0.02c4.4-0.26,7.91-3.34,7.91-7.08c0.09-3.98-4.29-7.31-8.66-7.07
					C231.37,497.02,186.9,499.23,142.43,499.23z"/>
				<path class="st7" d="M141.92,514.11c-44.67,0-89-2.22-132.69-6.66c-5.47,0.19-8.68-3.5-8.99-7.26c-0.29-3.51,1.93-7.6,7.46-8.28
					c0.11-0.01,0.22,0,0.32,0.03c42.53,3.56,88.24,6.81,134.4,6.53c0,0,0,0,0,0c0.08,0,0.15,0,0.23,0
					c44.24,0,88.94-2.24,132.86-6.65c2.64-0.15,5.33,0.87,7.21,2.7c1.51,1.46,2.32,3.29,2.28,5.14c0,4.09-3.79,7.53-8.62,7.81
					C231.45,511.9,186.52,514.11,141.92,514.11z M9.26,505.96c0.03,0,0.05,0,0.08,0c87.22,8.86,177.03,8.87,266.94,0.02
					c4.07-0.24,7.24-3.02,7.24-6.33c0.03-1.44-0.61-2.87-1.82-4.04c-1.57-1.52-3.9-2.38-6.05-2.28
					c-43.94,4.41-88.69,6.65-132.98,6.65c-0.08,0-0.15,0-0.23,0c-46.28,0.27-92.09-2.99-134.7-6.55c0,0-0.01,0-0.01,0
					c-4.46,0.62-6.22,3.77-5.98,6.65c0.24,2.97,2.64,6.06,7.49,5.88C9.24,505.96,9.25,505.96,9.26,505.96z"/>
			</g>
			<g>
				<path class="st6" d="M213.69,462.31c-49.92,2.67-168.29,3.47-205.89-7.18v37.53c89.5,8.56,179.91,8.67,269.42-0.02v-37.5
					C277.22,457.15,251.83,460.32,213.69,462.31z"/>
				<path class="st7" d="M142.86,499.85c-45,0-90.14-2.15-135.13-6.45c-0.38-0.04-0.68-0.36-0.68-0.75v-37.52
					c0-0.24,0.11-0.46,0.3-0.6c0.19-0.14,0.43-0.18,0.66-0.12c35.9,10.17,151.19,10.06,205.65,7.15h0
					c40.09-2.08,61.04-5.17,62.85-6.65c0.1-0.31,0.38-0.53,0.72-0.53c0.41,0,0.75,0.34,0.75,0.75v37.5c0,0.39-0.29,0.71-0.68,0.75
					C232.85,497.7,187.92,499.85,142.86,499.85z M8.55,491.98c89.5,8.51,179.63,8.5,267.92-0.02v-35.38
					c-1.94,0.76-6.4,1.71-16.62,2.9c-11.83,1.38-28.21,2.65-46.11,3.58c-22.21,1.19-63.73,2.27-107.62,1.41
					c-32.89-0.65-76.26-2.62-97.56-8.35V491.98z"/>
			</g>
			<g>
				<path class="st6" d="M202.74,452.24c-39.9,4.8-75.92,2.71-116.12,1.15c-4.39,0.11-8.42-1.67-10.77-5.45
					c-4.24,0.19-10.33,0.38-14.26,0.59c-1.22,7.76-8.96,6.48-20.87,5.94c-6.84-0.32-12.84,0.03-16.25-3.18
					c-56.02,5.98,40.72,12.04,117.75,12.48c76.72-0.36,174.89-6.8,118.05-12.45c-3.4,3.17-9.4,2.83-16.21,3.15
					c-11.9,0.55-19.63,1.82-20.87-5.92c-4.03-0.22-11.24-0.42-15.6-0.61C206.26,449.69,204.72,451.31,202.74,452.24z"/>
				<path class="st7" d="M142.24,464.52c-30.33-0.17-63.98-1.22-90.03-2.81c-44.96-2.74-45.09-5.5-45.15-6.68
					c-0.07-1.33,1.22-2.77,17.35-4.49c0.23-0.03,0.43,0.05,0.59,0.2c2.69,2.54,7.36,2.69,12.76,2.86c0.98,0.03,1.99,0.06,3.01,0.11
					c1.18,0.05,2.33,0.12,3.43,0.17c10.58,0.57,15.71,0.58,16.67-5.48c0.06-0.35,0.35-0.61,0.7-0.63c2.45-0.13,5.75-0.26,8.91-0.38
					c1.91-0.07,3.76-0.14,5.36-0.21c0.27-0.02,0.53,0.12,0.67,0.35c2.07,3.34,5.75,5.19,10.11,5.09c3.72,0.14,7.35,0.29,10.96,0.43
					c35.39,1.42,68.81,2.77,104.96-1.57c1.96-0.95,3.42-2.65,4.48-4.02c0.15-0.19,0.39-0.32,0.63-0.29
					c1.79,0.08,4.05,0.16,6.38,0.24c3.36,0.12,6.84,0.24,9.23,0.37c0.35,0.02,0.64,0.28,0.7,0.63c0.96,6.04,6.09,6.03,16.67,5.46
					c1.1-0.06,2.24-0.12,3.42-0.17c1.01-0.05,1.99-0.08,2.96-0.11c5.41-0.18,10.08-0.33,12.78-2.84c0.16-0.15,0.37-0.22,0.58-0.2
					c16.37,1.63,17.67,3.05,17.61,4.37c-0.06,1.17-0.19,3.92-45.52,6.72C205.84,463.32,172.12,464.38,142.24,464.52z M8.64,454.99
					c3.77,3.35,63.26,7.63,133.59,8.04c61.8-0.29,129.8-4.43,134.12-8.12c-0.63-0.46-3.43-1.55-15.83-2.8
					c-3.12,2.67-7.94,2.83-13.49,3.01c-0.96,0.03-1.94,0.06-2.94,0.11c-1.18,0.05-2.32,0.12-3.41,0.17
					c-9.61,0.52-16.62,0.9-18.12-6.12c-2.34-0.12-5.53-0.23-8.62-0.34c-2.17-0.08-4.28-0.15-6-0.23c-1.16,1.48-2.74,3.2-4.9,4.21
					c-0.07,0.03-0.15,0.06-0.23,0.07c-36.32,4.37-69.84,3.02-105.33,1.59c-3.61-0.14-7.24-0.29-10.91-0.43
					c-4.69,0.12-8.74-1.86-11.14-5.43c-1.5,0.06-3.19,0.13-4.93,0.2c-2.91,0.11-5.92,0.23-8.29,0.35c-1.48,7.04-8.5,6.66-18.12,6.14
					c-1.1-0.06-2.24-0.12-3.42-0.17c-1.02-0.05-2.01-0.08-2.99-0.11c-5.55-0.18-10.36-0.34-13.48-3.04
					C11.92,453.4,9.22,454.53,8.64,454.99z M202.74,452.24L202.74,452.24L202.74,452.24z"/>
			</g>
			<g>
				<path class="st8" d="M277.06,60.72c-88.97,8.52-178.82,9.08-267.8-0.04C5,60.45,0.64,63.8,0.75,67.73
					c0.92,9.86,15.41,6.87,22.57,8.44c66.15,5.94,132.74,6.93,199.03,2.94c17.83-1.04,35.63-2.51,53.4-4.27
					C285.87,75.04,287.27,61.88,277.06,60.72z"/>
				<path class="st7" d="M142.59,82.25c-39.87,0-79.78-1.78-119.34-5.33c-1.93-0.42-4.32-0.51-6.84-0.61
					C9.43,76.04,0.74,75.7,0,67.8c-0.05-1.89,0.75-3.71,2.26-5.18c1.87-1.82,4.49-2.83,7.04-2.7c85.97,8.81,176.02,8.83,267.69,0.05
					c0.05-0.01,0.11,0,0.16,0c5.59,0.63,7.89,4.66,7.65,8.14c-0.25,3.8-3.45,7.59-9.05,7.47c-18.88,1.88-36.35,3.28-53.34,4.27
					C195.9,81.46,169.25,82.25,142.59,82.25z M8.84,61.41c-1.96,0-4.06,0.86-5.53,2.28c-1.21,1.18-1.85,2.6-1.81,4.01
					c0.61,6.54,7.91,6.82,14.97,7.1c2.59,0.1,5.04,0.2,7.01,0.63c65.85,5.91,132.78,6.9,198.83,2.93
					c16.97-0.99,34.43-2.39,53.37-4.27c4.97,0.11,7.42-3.08,7.62-6.08c0.19-2.87-1.67-5.99-6.25-6.54
					c-91.73,8.78-181.86,8.77-267.87-0.05C9.07,61.42,8.95,61.41,8.84,61.41z"/>
			</g>
			<g>
				<path class="st8" d="M277.06,46.56C187.59,55.31,97.26,55.09,7.8,46.6v-0.02c-10.01,1.24-8.59,14.44,1.46,14.05
					c70.93,7.13,142.44,8.55,213.59,4.25c17.86-1,35.69-2.67,53.5-4.23C286.1,60.3,286.92,47.63,277.06,46.56z"/>
				<path class="st7" d="M142.64,68.05c-44.58,0-89.21-2.23-133.4-6.67c-5.51,0.2-8.69-3.51-8.99-7.27
					c-0.29-3.5,1.93-7.59,7.46-8.27c0.11-0.01,0.22,0,0.33,0.03c90.43,8.57,180.92,8.55,268.95-0.06c0.05-0.01,0.1-0.01,0.15,0
					c5.48,0.6,7.8,4.42,7.68,7.95c-0.13,3.54-2.82,7.44-8.44,7.64l-7.14,0.63c-15.18,1.34-30.87,2.73-46.34,3.6
					C196.23,67.24,169.44,68.05,142.64,68.05z M9.26,59.88c0.03,0,0.05,0,0.08,0c70.7,7.11,142.53,8.54,213.47,4.25
					c15.45-0.86,31.13-2.25,46.3-3.59l7.18-0.63c4.69-0.17,6.93-3.33,7.03-6.2c0.1-2.82-1.8-5.88-6.26-6.39
					C188.9,55.93,98.28,55.94,7.73,47.35l0,0c-4.46,0.62-6.22,3.77-5.99,6.64c0.24,2.97,2.67,6.04,7.49,5.89
					C9.24,59.88,9.25,59.88,9.26,59.88z"/>
			</g>
			<g>
				<path class="st6" d="M142.51,18.03C68.11,18.03,7.8,12.16,7.8,9.06v37.53c89.52,8.55,179.9,8.66,269.42-0.02V9.06
					C277.22,12.16,216.91,18.03,142.51,18.03z"/>
				<path class="st7" d="M142.85,53.78c-45,0-90.14-2.15-135.12-6.45c-0.38-0.04-0.68-0.36-0.68-0.75V9.06
					c0-0.41,0.34-0.75,0.75-0.75c0.34,0,0.62,0.22,0.72,0.53c3.43,2.92,61.71,8.45,133.99,8.45s130.56-5.52,133.99-8.45
					c0.09-0.31,0.38-0.53,0.72-0.53c0.41,0,0.75,0.34,0.75,0.75v37.5c0,0.39-0.29,0.71-0.68,0.75
					C232.84,51.62,187.92,53.77,142.85,53.78z M8.55,45.9c89.49,8.51,179.63,8.5,267.92-0.02V10.41
					c-2.99,1.22-11.92,3.01-38.65,5.05c-16.31,1.24-50.39,3.33-95.31,3.33s-79-2.08-95.31-3.33c-26.73-2.03-35.66-3.83-38.65-5.05
					V45.9z"/>
			</g>
			<g>
				<path class="st6" d="M142.51,18.03c179.55-1.86,179.67-16.09,0-17.28C-37.16,1.94-37.05,16.17,142.51,18.03z"/>
				<path class="st7" d="M142.51,18.78C142.51,18.78,142.5,18.78,142.51,18.78c-41.97-0.44-76.93-1.58-101.09-3.32
					C7.04,12.99,7.05,10.29,7.05,9.13c0-1.15,0.01-3.85,34.38-6.19C65.58,1.3,100.53,0.28,142.5,0c41.98,0.28,76.93,1.3,101.09,2.94
					c34.37,2.34,34.37,5.04,34.38,6.19s0.01,3.85-34.37,6.33C219.43,17.2,184.48,18.35,142.51,18.78
					C142.51,18.78,142.51,18.78,142.51,18.78z M8.58,9.14c1.84,2.4,31.93,7.08,133.92,8.14c102-1.06,132.08-5.74,133.92-8.14
					c-1.85-2.39-31.94-6.96-133.93-7.64C40.52,2.18,10.44,6.75,8.58,9.14z"/>
			</g>
			<g id="Right_00000152246625644101811900000011507844649056929665_">
				<g>
					<path class="st6" d="M252.59,245.43c5.59-10.34-4.92-36.02-4.92-63.51c0-28.6,2.96-50.48-0.85-58.05
						c10.52-4.99,13.56-12.17,1.66-16.56c8.67-5.7,15.16-21.32,13.29-31.15c-13.12,1.18-26.26,2.19-39.42,2.95
						c-0.21,8.61,6.56,22.59,14.78,27.84c-12.51,4.01-10.8,11.33,0.14,16.75c-4.64,7.34,0.75,28.98,0.75,57.72
						c0,27.49-11.93,53.44-6.14,63.92C237.78,243.79,246.75,243.76,252.59,245.43z"/>
					<path class="st7" d="M252.59,246.18c-0.07,0-0.14-0.01-0.21-0.03c-5.65-1.61-14.38-1.64-20.3-0.07
						c-0.34,0.09-0.68-0.06-0.85-0.36c-3.28-5.94-1.21-16.15,1.42-29.08c2.17-10.66,4.62-22.73,4.62-35.2
						c0-11.59-0.86-21.81-1.62-30.83c-1.05-12.53-1.83-21.76,0.59-26.58c-5.8-3.02-8.84-6.54-8.58-9.97
						c0.16-2.11,1.68-5.04,7.83-7.32c-8.14-6.1-14.08-19.48-13.89-27.64c0.01-0.39,0.32-0.71,0.71-0.73
						c12.53-0.73,25.41-1.69,39.39-2.95c0.4-0.03,0.73,0.23,0.8,0.61c1.88,9.85-4.21,24.74-12.47,31.1c5.47,2.33,6.77,5.12,6.86,7.1
						c0.15,3.42-3.15,7.05-9.09,10c2.24,5.42,1.83,16.29,1.26,31.09c-0.3,7.9-0.65,16.85-0.65,26.6c0,12.23,2.08,24.03,3.91,34.44
						c2.31,13.12,4.13,23.48,0.92,29.42C253.12,246.03,252.86,246.18,252.59,246.18z M242.15,243.43c3.59,0,7.15,0.37,10.05,1.12
						c2.59-5.6,0.85-15.5-1.34-27.92c-1.84-10.48-3.93-22.35-3.93-34.7c0-9.77,0.34-18.74,0.65-26.66
						c0.59-15.23,1.01-26.24-1.41-31.05c-0.09-0.18-0.11-0.39-0.04-0.58c0.07-0.19,0.21-0.35,0.39-0.43c5.7-2.7,9.02-6.03,8.89-8.9
						c-0.11-2.41-2.59-4.58-7.17-6.28c-0.27-0.1-0.45-0.34-0.49-0.62s0.1-0.56,0.33-0.71c8.06-5.3,14.5-20.06,13.08-29.71
						c-13.47,1.2-25.93,2.14-38.04,2.85c0.17,8.1,6.43,21.38,14.43,26.5c0.25,0.16,0.38,0.44,0.34,0.73
						c-0.04,0.29-0.24,0.53-0.52,0.62c-5.1,1.63-8.01,3.94-8.21,6.5c-0.22,2.87,2.87,6.1,8.45,8.87c0.19,0.09,0.33,0.26,0.39,0.47
						c0.06,0.2,0.03,0.42-0.09,0.6c-2.63,4.16-1.85,13.48-0.76,26.37c0.76,9.05,1.62,19.31,1.62,30.96c0,12.62-2.47,24.77-4.65,35.5
						c-2.39,11.76-4.47,21.96-1.84,27.55C235.19,243.78,238.68,243.43,242.15,243.43z"/>
				</g>
				<g>
					<path class="st6" d="M248.88,418.28c11.35-4.47,8.4-11.19-1.63-16.26c4.64-7.34-0.75-28.98-0.75-57.72
						c0-25.71,10.45-50.09,7.05-61.7c-6.24,2.16-16.17,2.27-22.32-0.69c-3.89,11.22,5.62,35.74,5.62,61.91
						c0,28.6-2.96,50.48,0.85,58.05c-11.21,5.23-13.32,12.88-0.57,16.92c-8.72,5.85-15.8,20.29-14.61,29.78
						c1.22,7.74,8.88,6.46,20.66,5.92c6.77-0.31,12.7,0.02,16.08-3.17C266.83,442.32,258.72,423.48,248.88,418.28z"/>
					<path class="st7" d="M233.26,455.65c-6.28,0-10.56-1.18-11.48-6.97c-1.17-9.29,5.4-23.22,13.74-29.66
						c-6.2-2.28-7.71-5.25-7.85-7.4c-0.23-3.51,3.06-7.18,9.05-10.12c-2.24-5.43-1.82-16.29-1.25-31.09
						c0.3-7.9,0.65-16.85,0.65-26.6c0-12.23-2.08-24.03-3.91-34.45c-2.12-12.05-3.8-21.57-1.67-27.71c0.07-0.2,0.22-0.36,0.42-0.45
						c0.2-0.08,0.42-0.08,0.61,0.02c6.18,2.97,15.91,2.67,21.75,0.65c0.19-0.07,0.41-0.05,0.59,0.04c0.18,0.09,0.32,0.26,0.38,0.46
						c1.79,6.13-0.15,15.67-2.39,26.71c-2.17,10.66-4.62,22.73-4.62,35.2c0,11.59,0.86,21.81,1.62,30.83
						c1.05,12.54,1.83,21.77-0.59,26.58c5.73,3.04,8.79,6.51,8.63,9.81c-0.13,2.69-2.27,5-6.38,6.87
						c5.56,3.65,10.48,11.41,11.98,19.13c1.13,5.8,0.18,10.87-2.68,14.26c-3.15,2.98-8.04,3.14-13.69,3.33
						c-0.95,0.03-1.93,0.06-2.92,0.11c-1.17,0.05-2.3,0.12-3.38,0.17C237.47,455.53,235.26,455.65,233.26,455.65z M231.7,282.93
						c-1.61,5.85,0.06,15.3,1.97,26.17c1.84,10.48,3.93,22.35,3.93,34.71c0,9.77-0.34,18.74-0.65,26.65
						c-0.59,15.23-1.01,26.24,1.41,31.05c0.09,0.18,0.11,0.39,0.04,0.58s-0.21,0.35-0.39,0.43c-5.74,2.68-9.05,6.04-8.85,8.98
						c0.17,2.6,3.08,4.92,8.2,6.54c0.27,0.09,0.47,0.32,0.52,0.61s-0.08,0.57-0.32,0.73c-8.5,5.7-15.45,19.83-14.29,29.07
						c0.95,6.01,6.02,6.01,16.49,5.44c1.09-0.06,2.22-0.12,3.39-0.17c1-0.05,1.99-0.08,2.94-0.11c5.35-0.18,9.98-0.33,12.66-2.85
						c2.5-2.98,3.34-7.6,2.3-12.95c-1.54-7.92-6.81-15.85-12.52-18.87c-0.26-0.14-0.41-0.41-0.4-0.71c0.02-0.29,0.2-0.55,0.47-0.66
						c4.35-1.71,6.71-3.83,6.82-6.13c0.13-2.77-2.97-5.96-8.51-8.76c-0.19-0.09-0.33-0.27-0.38-0.47c-0.06-0.2-0.02-0.42,0.09-0.6
						c2.63-4.16,1.85-13.47,0.76-26.37c-0.76-9.05-1.62-19.31-1.62-30.96c0-12.62,2.47-24.78,4.65-35.5
						c2.11-10.39,3.95-19.43,2.62-25.24C247.1,285.35,237.96,285.58,231.7,282.93z"/>
				</g>
				<g>
					<path class="st6" d="M252.59,245.43c-14.53-2.54-31.12-3.73-30.37,18.74c0,9.62,3.59,15.04,9.01,17.73
						c14.22,4.68,31.98,4.28,30.82-17.73C261.97,252.09,258.23,247.3,252.59,245.43z"/>
					<path class="st7" d="M244.6,285.03c-4.08,0-8.69-0.8-13.6-2.42c-0.03-0.01-0.07-0.02-0.1-0.04c-6.26-3.1-9.43-9.29-9.43-18.4
						c-0.26-7.9,1.52-13.41,5.46-16.84c6.02-5.23,15.95-4.37,25.79-2.65c0.04,0.01,0.07,0.02,0.11,0.03
						c6.83,2.27,9.9,8.27,9.98,19.45c0.43,8.09-1.65,13.96-6.16,17.41C253.64,283.88,249.49,285.03,244.6,285.03z M231.52,281.21
						c10.29,3.38,19.12,3.08,24.21-0.82c4.1-3.13,5.97-8.58,5.57-16.17c-0.09-13.36-4.79-16.67-8.9-18.06
						c-9.45-1.65-18.95-2.5-24.49,2.31c-3.58,3.11-5.19,8.24-4.95,15.68C222.97,272.64,225.84,278.37,231.52,281.21z"/>
				</g>
			</g>
			<g id="Left_00000018949470257556180230000015839999402992648578_">
				<g>
					<path class="st6" d="M52.42,246.49c7.02-9.55-4.25-36.09-4.25-64.57c0-28.6,2.96-50.48-0.85-58.05
						c10.52-4.99,13.56-12.17,1.66-16.56c8.04-4.92,13.86-19.42,13.69-28.2c-13.13-0.76-26.24-1.77-39.34-2.94
						c-2.22,9.78,5.47,24.71,14.3,30.79c-12.51,4.01-10.8,11.33,0.14,16.75c-4.64,7.34,0.75,28.98,0.75,57.72
						c0,28.33-12.68,55.04-5.55,64.85C38.53,245.27,46.97,245.16,52.42,246.49z"/>
					<path class="st7" d="M52.42,247.24c-0.06,0-0.12-0.01-0.18-0.02c-5.62-1.37-14.05-1.13-19.14-0.2
						c-0.28,0.05-0.57-0.06-0.74-0.3c-4.17-5.73-1.98-16.48,0.78-30.09c2.17-10.66,4.62-22.73,4.62-35.2
						c0-11.59-0.86-21.81-1.62-30.83c-1.05-12.53-1.83-21.76,0.59-26.58c-5.8-3.02-8.84-6.54-8.58-9.97
						c0.16-2.12,1.69-5.05,7.88-7.34c-8.26-6.48-15.71-20.7-13.44-30.71c0.08-0.37,0.41-0.61,0.8-0.58
						c13.96,1.25,26.82,2.22,39.31,2.94c0.39,0.02,0.7,0.34,0.71,0.73c0.18,8.79-5.31,22.42-12.84,28.04
						c5.44,2.33,6.74,5.11,6.82,7.09c0.15,3.42-3.15,7.05-9.09,10c2.24,5.42,1.83,16.29,1.26,31.09c-0.3,7.9-0.65,16.85-0.65,26.6
						c0,12.23,2.08,24.03,3.91,34.45c2.45,13.9,4.38,24.88,0.2,30.57C52.88,247.13,52.65,247.24,52.42,247.24z M42.57,244.76
						c3.33,0,6.73,0.26,9.52,0.88c3.43-5.31,1.58-15.81-0.74-29.02c-1.84-10.48-3.93-22.35-3.93-34.71c0-9.77,0.34-18.74,0.65-26.66
						c0.59-15.23,1.01-26.24-1.41-31.05c-0.09-0.18-0.11-0.39-0.04-0.58c0.07-0.19,0.21-0.35,0.39-0.43c5.7-2.7,9.02-6.03,8.89-8.9
						c-0.11-2.41-2.59-4.58-7.17-6.28c-0.27-0.1-0.46-0.34-0.49-0.63c-0.03-0.29,0.11-0.56,0.35-0.71
						c7.4-4.54,13.19-18.14,13.33-26.85c-12.09-0.71-24.53-1.64-37.99-2.84c-1.74,9.75,6.15,23.87,14.12,29.36
						c0.24,0.16,0.36,0.44,0.32,0.73s-0.24,0.52-0.51,0.6c-5.1,1.63-8.01,3.94-8.21,6.5c-0.22,2.87,2.87,6.1,8.46,8.87
						c0.19,0.09,0.33,0.26,0.39,0.47c0.06,0.2,0.03,0.42-0.09,0.6c-2.63,4.16-1.85,13.48-0.76,26.37
						c0.76,9.05,1.62,19.31,1.62,30.96c0,12.62-2.47,24.78-4.65,35.5c-2.63,12.93-4.72,23.21-1.3,28.52
						C35.89,245.03,39.2,244.76,42.57,244.76z"/>
				</g>
				<g>
					<path class="st6" d="M47.88,418.77c12.51-4.01,10.8-11.33-0.14-16.75c4.64-7.34-0.75-28.98-0.75-57.72
						c0-27.29,11.77-53.07,6.26-63.7c-5.74,2.88-15.22,2.89-21.15,0.36c-4.83,10.74,5.24,35.92,5.24,62.85
						c0,28.6-2.96,50.48,0.85,58.05c-10.28,4.89-13.62,11.92-2.05,16.42c-9.84,5.19-17.95,24.03-10.39,33.01
						c3.37,3.21,9.31,2.86,16.09,3.18c11.79,0.55,18.3,1.83,19.52-5.92C62.54,439.06,56.59,424.61,47.88,418.77z"/>
					<path class="st7" d="M51.59,455.65c-1.86,0-3.95-0.12-6.26-0.24c-1.12-0.06-2.3-0.13-3.53-0.18c-1.01-0.05-1.99-0.08-2.96-0.11
						c-5.65-0.19-10.53-0.35-13.61-3.27c-2.92-3.46-3.87-8.53-2.73-14.33c1.51-7.72,6.43-15.47,11.98-19.11
						c-5.1-2.32-6.3-5.02-6.37-6.93c-0.12-3.39,3.18-7,9.1-9.96c-2.24-5.42-1.83-16.29-1.26-31.09c0.3-7.9,0.65-16.85,0.65-26.6
						c0-12.22-2.08-24.03-3.91-34.44c-2.23-12.66-3.99-22.67-1.27-28.72c0.17-0.37,0.6-0.54,0.98-0.38
						c5.92,2.52,15.12,2.37,20.52-0.34c0.37-0.19,0.81-0.04,1,0.33c3.1,5.98,1.04,16.07-1.55,28.84
						c-2.17,10.66-4.62,22.73-4.62,35.2c0,11.59,0.86,21.81,1.62,30.83c1.05,12.53,1.83,21.76-0.59,26.58
						c5.8,3.02,8.84,6.54,8.58,9.97c-0.16,2.12-1.69,5.04-7.86,7.33c8.59,6.67,13.71,20.79,12.6,29.63
						C61.18,454.46,57.56,455.65,51.59,455.65z M32.51,281.93c-2.12,5.75-0.37,15.71,1.65,27.18c1.84,10.47,3.93,22.35,3.93,34.7
						c0,9.77-0.34,18.74-0.65,26.66c-0.59,15.23-1.01,26.24,1.41,31.05c0.09,0.18,0.1,0.39,0.04,0.58
						c-0.07,0.19-0.21,0.35-0.39,0.43c-5.68,2.71-9.01,6.02-8.91,8.87c0.08,2.34,2.44,4.47,6.81,6.17c0.27,0.11,0.46,0.36,0.48,0.66
						s-0.14,0.57-0.4,0.71c-5.71,3.01-10.97,10.94-12.52,18.85c-1.04,5.35-0.21,9.97,2.35,13.02c2.61,2.47,7.22,2.62,12.57,2.8
						c0.97,0.03,1.97,0.06,2.98,0.11c1.24,0.06,2.42,0.12,3.54,0.19c10.11,0.56,14.25,0.55,15.19-5.48
						c1.1-8.79-4.28-23.09-13.15-29.04c-0.24-0.16-0.37-0.44-0.32-0.73c0.04-0.29,0.24-0.52,0.51-0.61c5.1-1.63,8.01-3.94,8.21-6.5
						c0.22-2.87-2.87-6.1-8.45-8.87c-0.19-0.09-0.33-0.26-0.39-0.47c-0.06-0.2-0.03-0.42,0.09-0.6c2.63-4.16,1.85-13.47,0.76-26.37
						c-0.76-9.05-1.62-19.31-1.62-30.96c0-12.62,2.47-24.78,4.65-35.5c2.34-11.53,4.38-21.55,2-27.2
						C47.31,284.06,38.54,284.2,32.51,281.93z"/>
				</g>
				<g>
					<path class="st6" d="M52.42,246.49c-13.91-1.55-29.32-4.73-28.68,17.69c-0.04,9.6,3.3,14.48,8.36,16.78
						c13.02,4.46,29.63,1.93,28.8-16.78C60.9,252.34,57.52,248.05,52.42,246.49z"/>
					<path class="st7" d="M43.09,283.6c-3.94,0-7.9-0.79-11.24-1.93c-6.03-2.74-8.91-8.45-8.87-17.5
						c-0.22-7.55,1.34-12.76,4.77-15.89c5.26-4.82,13.93-3.8,22.32-2.82c0.81,0.09,1.62,0.19,2.42,0.28c0.05,0,0.09,0.01,0.14,0.03
						c6.23,1.9,9.01,7.58,9.01,18.4c0.32,7.04-1.85,12.53-6.27,15.84C51.91,282.61,47.51,283.6,43.09,283.6z M39.77,246.14
						c-4.36,0-8.27,0.74-11,3.24c-3.08,2.82-4.48,7.65-4.28,14.77c-0.04,8.42,2.56,13.68,7.92,16.12c6.64,2.27,15.97,3.1,22.06-1.46
						c4.06-3.04,5.97-7.96,5.67-14.6c0-12.77-3.97-15.77-7.88-16.98c-0.78-0.09-1.57-0.18-2.36-0.27
						C46.48,246.55,43,246.14,39.77,246.14z"/>
				</g>
			</g>
		</g>
		<g id="Glass_00000039844468819464496510000006157526231863427727_">
			<path class="st38" d="M142.22,81.53c-23.32,0.21-46.85-1.13-70.02-1.62c-30.96,58.51,14.76,119.78,53.15,162.57
				c10.38,9.95,11.03,22.58,0.27,32.45c-41.67,44.31-91.13,113.19-51.29,172.62c2.38,3.9,6.38,6.04,10.96,5.85
				c39.8,1.56,80.43,3.65,119.93-1.15c49.09-53.94-2.58-129.4-41.72-174.16c-8.37-9.52-14.14-22.69-4.25-32.52
				c18.4-23.71,37.68-47.19,50.33-74.41c12.61-27.91,19.56-62.7,5.69-90.53C191.46,78.87,166.45,82.53,142.22,81.53z"/>
			<path class="st7" d="M149.57,455.96c-18.89,0-37.77-0.76-56.34-1.5l-7.96-0.32c-4.81,0.22-9.04-2.06-11.57-6.21
				c-30.87-46.04-13.59-104.43,51.38-173.52c4.92-4.52,7.53-9.74,7.59-15.13c0.06-5.67-2.65-11.3-7.83-16.26
				c-16.38-18.26-39.62-45.91-52.75-75.63c-14.2-32.14-14.38-61.69-0.55-87.83c0.13-0.25,0.39-0.43,0.68-0.4
				c8.1,0.17,16.38,0.46,24.4,0.73c14.97,0.51,30.46,1.03,45.61,0.9c0.01,0,0.02,0,0.04,0c11.19,0.46,22.75-0.08,33.92-0.61
				c12.95-0.61,26.33-1.24,39.15-0.3c0.26,0.02,0.5,0.18,0.62,0.41c6.96,13.96,15.47,44.37-5.67,91.17
				c-11.42,24.57-28.42,46.36-44.86,67.43c-1.86,2.38-3.71,4.75-5.56,7.13c-11.33,11.28-0.82,25.83,4.22,31.56
				c44.96,51.42,88.69,123.54,41.71,175.16c-0.12,0.13-0.29,0.22-0.46,0.24C186.95,455.22,168.26,455.96,149.57,455.96z
				 M85.26,452.64l8.02,0.32c36.79,1.47,74.84,3,111.57-1.43c45.93-50.79,2.58-122.07-41.92-172.96
				c-11.09-12.6-12.66-25.15-4.22-33.54c1.78-2.31,3.64-4.69,5.5-7.07c16.39-21,33.34-42.72,44.68-67.13
				c20.7-45.8,12.69-75.6,5.89-89.5c-12.6-0.89-25.79-0.27-38.54,0.33c-11.2,0.53-22.78,1.07-34.04,0.61
				c-15.18,0.13-30.67-0.39-45.65-0.9c-7.85-0.27-15.97-0.54-23.91-0.72c-13.39,25.62-13.12,54.59,0.81,86.12
				c13.04,29.53,36.18,57.06,52.46,75.2c5.45,5.22,8.32,11.23,8.25,17.32c-0.06,5.82-2.84,11.41-8.03,16.18
				c-64.39,68.47-81.62,126.24-51.17,171.64C77.21,450.82,80.96,452.81,85.26,452.64z"/>
		</g>
		<g id="Sand_00000018941678488316318130000005632970346559872404_">
			<g>
				<path class="st8" d="M138.84,358.52c-0.17,1.59,0.23,3.32,1.44,5.24c11.37,9.62,9.76-2.77,7.93-11.06
					C145.58,346.87,138.9,355.33,138.84,358.52z"/>
				<path class="st7" d="M146.72,368.01c-1.73,0-4.02-1.22-6.93-3.67c-0.06-0.05-0.11-0.11-0.15-0.17
					c-1.23-1.94-1.75-3.85-1.56-5.69c0.08-2.55,3.56-7.75,6.9-8.44c0.97-0.2,2.77-0.16,3.91,2.36c0.02,0.05,0.04,0.1,0.05,0.15
					c1.94,8.83,1.74,13.61-0.65,15.05C147.83,367.87,147.31,368.01,146.72,368.01z M140.85,363.26c4.25,3.58,6,3.44,6.67,3.04
					c0.96-0.58,2.23-3.09-0.02-13.36c-0.73-1.55-1.61-1.56-2.21-1.44c-2.52,0.52-5.67,5.09-5.7,7.04c0,0.02,0,0.05,0,0.07
					C139.42,360.1,139.83,361.62,140.85,363.26z M138.84,358.52L138.84,358.52L138.84,358.52z"/>
			</g>
			<g>
				<path class="st8" d="M142.15,321.38c2.55,3.77,4.49-2.55,2.76-4.88c-1.93-4.33,2.72-7.85,2.49-11.74
					C140.52,296.21,140.57,318.27,142.15,321.38z"/>
				<path class="st7" d="M143.71,323.3c-0.77,0-1.51-0.5-2.18-1.5c-0.02-0.03-0.03-0.05-0.05-0.08c-1.17-2.31-1.82-16.9,1.89-19.29
					c0.93-0.6,2.49-0.77,4.62,1.87c0.1,0.12,0.16,0.27,0.17,0.43c0.11,1.83-0.72,3.53-1.52,5.17c-1.02,2.1-1.99,4.08-1.06,6.24
					c1.02,1.46,0.92,3.92,0.21,5.5c-0.45,1.01-1.13,1.6-1.91,1.67C143.81,323.3,143.76,323.3,143.71,323.3z M142.8,321
					c0.42,0.61,0.73,0.83,0.94,0.8c0.17-0.01,0.44-0.26,0.68-0.79c0.52-1.16,0.61-3.11-0.1-4.06c-0.03-0.04-0.06-0.09-0.08-0.14
					c-1.26-2.83-0.03-5.35,1.06-7.58c0.71-1.45,1.38-2.83,1.38-4.19c-0.77-0.92-1.78-1.81-2.48-1.36
					C141.57,305.37,141.64,318.57,142.8,321z"/>
			</g>
			<g>
				<path class="st8" d="M142.47,292.96c1.34,8.31,4.52-2.51,4.64-5.09c-0.51-7.37-1.39-12.66-1.12-20.08
					c0.13-3.62,3.31-16.35-4.5-12.53C141.98,267.26,142.88,280.92,142.47,292.96z"/>
				<path class="st7" d="M143.85,296.8c-1.34,0-1.84-1.98-2.12-3.71c-0.01-0.05-0.01-0.1-0.01-0.15c0.32-9.45-0.16-19.79-0.63-29.79
					c-0.12-2.67-0.25-5.3-0.35-7.86c-0.01-0.3,0.15-0.57,0.42-0.7c1.95-0.95,3.5-1.03,4.61-0.24c2.42,1.74,1.74,7.06,1.24,10.94
					c-0.13,1.04-0.25,1.93-0.27,2.53c-0.19,5.2,0.18,9.26,0.61,13.95c0.17,1.91,0.36,3.89,0.51,6.04c-0.06,1.5-1.62,8.85-3.93,8.98
					C143.9,296.8,143.87,296.8,143.85,296.8z M143.22,292.91c0.26,1.56,0.54,2.13,0.68,2.32c0.87-0.71,2.37-5.43,2.46-7.4
					c-0.15-2.06-0.33-4.03-0.5-5.93c-0.42-4.55-0.81-8.84-0.61-14.14c0.02-0.67,0.14-1.59,0.28-2.66c0.4-3.11,1.06-8.32-0.63-9.53
					c-0.56-0.4-1.45-0.35-2.64,0.16c0.1,2.39,0.21,4.85,0.33,7.35C143.06,273.08,143.54,283.42,143.22,292.91z"/>
			</g>
			<g>
				<path class="st8" d="M209.23,144.29c0,0-10.43,44.02-59.64,97.31c-2.65,2.71-6.98,2.8-9.73,0.2
					c-0.3-0.3-50.15-50.72-59.69-85.44L209.23,144.29z"/>
				<path class="st7" d="M144.62,244.43c-1.9,0-3.8-0.69-5.27-2.08c-0.51-0.51-50.24-50.63-59.9-85.79
					c-0.06-0.21-0.02-0.44,0.11-0.62c0.13-0.18,0.33-0.3,0.55-0.32l129.06-12.07c0.23-0.02,0.48,0.07,0.64,0.25
					c0.16,0.18,0.22,0.43,0.16,0.67c-0.1,0.44-11.04,44.82-59.82,97.65C148.64,243.65,146.63,244.43,144.62,244.43z M81.14,157.02
					c10.07,34.54,58.76,83.75,59.25,84.25c2.43,2.29,6.32,2.21,8.67-0.19c25.32-27.42,40.14-52.33,48.11-68.39
					c7.14-14.39,10.2-24.44,11.07-27.55L81.14,157.02z"/>
			</g>
			<g>
				<path class="st8" d="M155.58,137.17c12.71-3.4,25.07-11.63,37.91-8.74c11.5,1.7,26.38,20.2,5.28,20.56
					c-27.54,0.46-55.27,1.03-82.59,4.37c-9.75-0.12-31.45,16.24-36.01,3.02c0.52-10.14,28.34-10.08,36.65-13.41
					C129.57,138.75,142.7,140.2,155.58,137.17z"/>
				<path class="st7" d="M87.7,162.28c-1.5,0-2.88-0.24-4.11-0.8c-1.93-0.89-3.32-2.52-4.12-4.87c-0.03-0.09-0.04-0.19-0.04-0.28
					c0.39-7.61,13.66-9.73,25.36-11.59c4.77-0.76,9.27-1.48,11.76-2.48c7.24-2.39,14.65-2.99,21.82-3.57
					c5.61-0.45,11.41-0.92,17.04-2.24c3.84-1.03,7.73-2.53,11.49-3.99c8.67-3.35,17.63-6.82,26.77-4.76
					c7.91,1.17,16.88,9.68,16.49,15.7c-0.18,2.81-2.3,6.19-11.36,6.34c-25.45,0.43-54.29,0.91-82.51,4.36
					c-0.03,0-0.06,0.01-0.1,0.01c-0.03,0-0.07,0-0.1,0c-3.16,0-7.73,1.81-12.56,3.73C97.97,160.03,92.29,162.28,87.7,162.28z
					 M80.93,156.26c0.68,1.89,1.76,3.16,3.28,3.86c4.39,2.02,12.02-1.01,18.74-3.68c4.97-1.97,9.66-3.84,13.12-3.84
					c0.02,0,0.04,0,0.06,0c28.28-3.45,57.15-3.94,82.62-4.37c4.37-0.07,9.64-0.99,9.89-4.94c0.34-5.28-8.08-13.06-15.27-14.12
					c-8.75-1.97-17.11,1.27-25.96,4.69c-3.8,1.47-7.73,2.99-11.65,4.04c-0.01,0-0.01,0-0.02,0.01c-5.74,1.35-11.6,1.82-17.27,2.28
					c-7.08,0.57-14.39,1.16-21.42,3.48c-2.6,1.05-6.97,1.75-12.04,2.55C94.51,147.89,81.44,149.97,80.93,156.26z M155.58,137.17
					L155.58,137.17L155.58,137.17z"/>
			</g>
			<g>
				<path class="st8" d="M214.6,397.35c-0.33,9.69-5.58,44.71-17.17,45.25c-25.21,3.05-48.14,1.33-73.04,2.17
					c-12.97,0.44-26.02,1.06-38.74-2.14c-5.08-1.28-7.73-9.83-9.63-14.26c-4.61-10.75-5.91-22.74-5.46-34.34L214.6,397.35z"/>
				<path class="st7" d="M109.68,445.88c-8.1,0-16.24-0.52-24.21-2.52c-4.73-1.19-7.36-7.77-9.28-12.58
					c-0.31-0.77-0.59-1.48-0.86-2.11c-4.18-9.75-6.04-21.42-5.52-34.66c0.02-0.4,0.35-0.72,0.75-0.72c0.01,0,0.01,0,0.02,0
					l144.04,3.32c0.2,0,0.39,0.09,0.53,0.24c0.14,0.15,0.21,0.34,0.21,0.54c-0.2,5.93-4.6,45.36-17.89,45.98
					c-16.4,1.99-31.52,1.96-47.53,1.91c-8.28-0.02-16.84-0.04-25.52,0.25l-1.76,0.06C118.37,445.73,114.03,445.88,109.68,445.88z
					 M71.28,394.8c-0.41,12.72,1.41,23.91,5.43,33.28c0.27,0.64,0.57,1.37,0.88,2.15c1.8,4.51,4.27,10.68,8.25,11.68
					c12.04,3.03,24.61,2.59,36.77,2.18l1.77-0.06c8.71-0.29,17.28-0.27,25.58-0.25c15.96,0.05,31.04,0.07,47.4-1.91
					c5.84-0.27,9.84-10.29,12.18-18.65c2.71-9.72,4.04-20.18,4.3-25.12L71.28,394.8z"/>
			</g>
			<g>
				<path class="st8" d="M114.25,383.69c-44.89-16.09-64.96,21.15-13.78,22.68c13.65,0.38,26.62-3.59,40.25-4.21
					c13.22-0.6,71.65,10.78,73.87-4.81c3.94-11.72-65.19-14.32-74.4-12.54C131.64,386.22,122.56,385.4,114.25,383.69z"/>
				<path class="st7" d="M102.3,407.14c-0.61,0-1.23-0.01-1.84-0.02c-23.36-0.7-28.99-8.37-30.33-11.63
					c-1.34-3.28-0.49-6.85,2.33-9.81c6.3-6.58,21.72-9.98,42-2.72c9.55,1.96,18.16,2.33,25.62,1.11c7.96-1.53,66.12,0.29,74.34,9.69
					c1.01,1.16,1.33,2.46,0.91,3.77c-1.85,12.19-33.78,8.99-57.1,6.65c-7.57-0.76-14.11-1.41-17.47-1.26
					c-5.91,0.27-11.81,1.19-17.51,2.08C116.44,406.05,109.42,407.14,102.3,407.14z M92.52,380.48c-7.68,0-14.71,1.78-18.97,6.25
					c-2.43,2.54-3.15,5.46-2.03,8.2c2.55,6.23,13.39,10.23,28.98,10.7c7.63,0.21,15.19-0.97,22.52-2.11
					c5.74-0.9,11.68-1.82,17.67-2.09c3.48-0.16,10.06,0.5,17.69,1.27c21.47,2.15,53.93,5.41,55.47-5.43
					c0.01-0.05,0.02-0.09,0.03-0.13c0.28-0.83,0.09-1.58-0.6-2.37c-7.7-8.8-65.21-10.69-72.95-9.2c-7.67,1.26-16.49,0.88-26.24-1.13
					c-0.03-0.01-0.07-0.02-0.1-0.03C107.39,382.02,99.67,380.48,92.52,380.48z"/>
			</g>
		</g>
		<g id="Line_00000110471491835804548180000007144210753653928361_">
			<g id="Bottom_00000033343253727121758480000001887152094805986950_">
				<g>
					<path class="st7" d="M228.9,489.72c-3.94,0-6.39-1.23-6.92-3.49c-0.43-1.82,0.69-3.6,2-4.56c1.36-1,3.04-1.41,4.52-1.77
						l35.82-8.81c0.27-0.06,0.54,0.1,0.6,0.37c0.07,0.27-0.1,0.54-0.37,0.6l-35.82,8.81c-1.46,0.36-2.96,0.73-4.17,1.61
						c-1.04,0.76-1.94,2.14-1.61,3.52c0.58,2.47,4.23,2.77,6.36,2.71c11.47-0.25,24.46-0.53,35.79-5.25
						c0.48-1.84,0.51-4.05-0.92-4.55c-0.5-0.18-1.13-0.09-1.68-0.01l-22.53,3.19c-0.29,0.03-0.53-0.15-0.57-0.42
						c-0.04-0.27,0.15-0.53,0.42-0.57l22.53-3.19c0.63-0.09,1.41-0.2,2.15,0.06c2.15,0.76,2.18,3.6,1.49,6
						c-0.04,0.15-0.15,0.26-0.29,0.32c-11.55,4.88-24.74,5.17-36.38,5.42C229.19,489.72,229.04,489.72,228.9,489.72z"/>
				</g>
				<g>
					<path class="st7" d="M164.35,489.53c-0.27,0-0.5-0.22-0.5-0.49c0-0.28,0.21-0.5,0.49-0.51l30.43-0.55
						c5.59-0.1,10.91-0.46,14.65-3.66c1.42-1.21,2.47-2.73,3.6-4.33c0.89-1.27,1.8-2.58,2.91-3.72c3.48-3.58,8.89-5.2,13.77-4.12
						c0.27,0.06,0.44,0.33,0.38,0.6c-0.06,0.27-0.31,0.44-0.6,0.38c-4.55-1.01-9.59,0.5-12.83,3.84c-1.05,1.08-1.94,2.36-2.81,3.6
						c-1.11,1.59-2.25,3.23-3.76,4.52c-3.99,3.42-9.5,3.79-15.28,3.9L164.35,489.53C164.36,489.53,164.35,489.53,164.35,489.53z"/>
				</g>
				<g>
					<path class="st7" d="M143.82,486.16c-0.24,0-0.44-0.17-0.49-0.4c-0.66-3.3,3.08-5.35,6.49-6.11c9.45-2.1,19.15-3.28,28.83-3.52
						c0.31-0.01,0.5,0.21,0.51,0.49c0.01,0.28-0.21,0.5-0.49,0.51c-9.62,0.23-19.25,1.41-28.64,3.49c-2.25,0.5-5.85,1.99-5.78,4.48
						c11.35-1.32,22.9-1.88,34.32-1.67l1.12,0.02c3.86,0.08,7.85,0.17,11.64-0.66c2.69-0.59,7.61-2.22,10.28-6.54
						c0.15-0.24,0.45-0.31,0.69-0.16c0.24,0.15,0.31,0.45,0.16,0.69c-2.12,3.44-6,5.92-10.92,6.99c-3.91,0.85-7.96,0.77-11.88,0.68
						l-1.12-0.02c-11.54-0.22-23.21,0.36-34.68,1.72C143.86,486.16,143.84,486.16,143.82,486.16z"/>
				</g>
				<g>
					<path class="st7" d="M230.38,469c-0.2,0-0.39-0.12-0.46-0.32c-0.1-0.26,0.02-0.55,0.28-0.65c3.01-1.2,6.29-0.93,9.45-0.67
						c1.13,0.09,2.3,0.19,3.43,0.21c3.63,0.08,7.32-0.58,10.9-1.21c5.06-0.9,10.28-1.82,15.39-0.69c0.27,0.06,0.44,0.33,0.38,0.6
						s-0.33,0.44-0.6,0.38c-4.91-1.09-9.81-0.22-15,0.7c-3.63,0.64-7.38,1.31-11.1,1.23c-1.16-0.03-2.35-0.12-3.49-0.22
						c-3.19-0.26-6.21-0.51-9,0.6C230.51,468.99,230.44,469,230.38,469z"/>
				</g>
				<g>
					<path class="st7" d="M132.65,474.05c-0.22,0-0.42-0.15-0.48-0.37c-0.07-0.27,0.08-0.54,0.35-0.62
						c8.19-2.26,16.79-2.59,25.1-2.92l38.4-1.49c0.31,0,0.51,0.21,0.52,0.48c0.01,0.28-0.21,0.51-0.48,0.52l-38.4,1.49
						c-8.26,0.32-16.79,0.65-24.88,2.88C132.74,474.04,132.69,474.05,132.65,474.05z"/>
				</g>
				<g>
					<path class="st7" d="M209.79,475.31c-0.23,0-0.44-0.16-0.49-0.39c-0.39-1.78-2.32-3.07-4.11-2.76
						c-0.27,0.05-0.53-0.14-0.58-0.41c-0.05-0.27,0.14-0.53,0.41-0.58c2.3-0.39,4.75,1.25,5.26,3.53c0.06,0.27-0.11,0.54-0.38,0.6
						C209.86,475.31,209.83,475.31,209.79,475.31z"/>
				</g>
				<g>
					<path class="st7" d="M86.89,484.36C86.89,484.36,86.88,484.36,86.89,484.36c-1.69-0.03-3.37-0.06-5.05-0.09
						c-10.1-0.16-20.55-0.33-30.8-1.55c-0.27-0.03-0.47-0.28-0.44-0.55c0.03-0.27,0.28-0.48,0.55-0.44
						c10.2,1.21,20.62,1.38,30.7,1.54c1.68,0.03,3.36,0.05,5.04,0.09c0.28,0,0.5,0.23,0.49,0.51
						C87.38,484.14,87.16,484.36,86.89,484.36z"/>
				</g>
				<g>
					<path class="st7" d="M96.49,490.63C96.49,490.63,96.49,490.63,96.49,490.63c-19.85-0.28-41.11-0.91-62.17-3.65
						c-2.76-0.92-6.82-3.68-6.86-5.78c-0.01-0.55,0.23-1.3,1.41-1.77c2.68-2.09,6.48-1,10.51,0.15c1.94,0.56,3.95,1.13,5.83,1.33
						c0.27,0.03,0.47,0.28,0.44,0.55c-0.03,0.28-0.28,0.47-0.55,0.44c-1.97-0.21-4.02-0.8-6-1.37c-3.8-1.09-7.4-2.12-9.67-0.28
						c-0.04,0.03-0.09,0.06-0.14,0.08c-0.85,0.32-0.84,0.72-0.84,0.85c0.02,1.41,3.5,3.96,6.08,4.83
						c20.91,2.71,42.14,3.34,61.95,3.62c0.28,0,0.5,0.23,0.49,0.51C96.99,490.41,96.77,490.63,96.49,490.63z"/>
				</g>
				<g>
					<path class="st7" d="M115.5,492.15c-0.01,0-0.03,0-0.04,0c-4.49-0.36-8.97-0.72-13.46-1.08c-0.27-0.02-0.48-0.26-0.46-0.54
						c0.02-0.28,0.28-0.47,0.54-0.46c4.49,0.36,8.97,0.72,13.46,1.08c0.28,0.02,0.48,0.26,0.46,0.54
						C115.98,491.95,115.76,492.15,115.5,492.15z"/>
				</g>
				<g>
					<path class="st7" d="M104.74,485.19c-0.23,0-0.44-0.16-0.49-0.4c-0.05-0.27,0.12-0.54,0.39-0.59
						c7.09-1.46,14.36-1.92,21.58-1.36c0.28,0.02,0.48,0.26,0.46,0.54c-0.02,0.28-0.29,0.49-0.54,0.46
						c-7.13-0.55-14.3-0.09-21.3,1.34C104.8,485.19,104.77,485.19,104.74,485.19z"/>
				</g>
				<g>
					<path class="st7" d="M126.26,492.37c-0.2,0-0.39-0.12-0.47-0.33c-0.1-0.26,0.04-0.55,0.3-0.64c2.56-0.94,5.4-1.05,8.02-0.29
						c0.27,0.08,0.42,0.35,0.34,0.62c-0.08,0.26-0.36,0.42-0.62,0.34c-2.42-0.7-5.04-0.6-7.4,0.27
						C126.38,492.36,126.32,492.37,126.26,492.37z"/>
				</g>
				<g>
					<path class="st7" d="M20.12,488.27c-0.11,0-0.23-0.04-0.32-0.12c-2.2-1.83-3.51-4.63-3.5-7.49c0-0.27,0.22-0.5,0.5-0.5
						c0,0,0,0,0,0c0.28,0,0.5,0.23,0.5,0.5c-0.01,2.57,1.16,5.08,3.13,6.71c0.21,0.18,0.24,0.49,0.07,0.7
						C20.41,488.21,20.26,488.27,20.12,488.27z"/>
				</g>
				<g>
					<path class="st7" d="M56.33,477.94c-0.23,0-0.44-0.16-0.49-0.39c-0.06-0.27,0.11-0.54,0.38-0.6c13.68-3,27.67-3.65,41.56-1.95
						c0.27,0.03,0.47,0.28,0.44,0.56c-0.03,0.28-0.28,0.47-0.56,0.44c-13.79-1.69-27.66-1.04-41.23,1.93
						C56.4,477.94,56.37,477.94,56.33,477.94z"/>
				</g>
				<g>
					<path class="st7" d="M99.15,480.9c-0.28,0-0.55-0.01-0.83-0.04c-0.28-0.02-0.48-0.27-0.45-0.54c0.02-0.28,0.27-0.47,0.54-0.45
						c2.27,0.2,4.43-0.55,6.71-1.34c1.11-0.39,2.27-0.78,3.43-1.06c3.62-0.86,7.34-0.57,10.93-0.28l10.94,0.88
						c0.28,0.02,0.48,0.26,0.46,0.54c-0.02,0.28-0.27,0.48-0.54,0.46l-10.94-0.88c-3.51-0.28-7.15-0.57-10.62,0.25
						c-1.11,0.27-2.24,0.66-3.33,1.03C103.41,480.18,101.32,480.9,99.15,480.9z"/>
				</g>
				<g>
					<path class="st7" d="M114.27,472.33c-3.16,0-6.33-0.33-9.43-0.66c-4.78-0.5-9.72-1.03-14.49-0.29
						c-0.27,0.05-0.53-0.14-0.57-0.42c-0.04-0.27,0.14-0.53,0.42-0.57c4.89-0.76,9.9-0.23,14.75,0.28c4.76,0.5,9.67,1.02,14.42,0.3
						c0.27-0.04,0.53,0.15,0.57,0.42c0.04,0.27-0.15,0.53-0.42,0.57C117.78,472.23,116.03,472.33,114.27,472.33z"/>
				</g>
				<g>
					<path class="st7" d="M48.15,471.67c-0.27,0-0.49-0.21-0.5-0.48c-0.01-0.28,0.2-0.51,0.48-0.52l23.02-1.04
						c0.31-0.03,0.51,0.2,0.52,0.48c0.01,0.28-0.2,0.51-0.48,0.52l-23.02,1.04C48.17,471.67,48.16,471.67,48.15,471.67z"/>
				</g>
				<g>
					<path class="st7" d="M45.13,476.3c-3.46,0-6.87-1.07-10.19-2.1c-2.78-0.87-5.65-1.76-8.51-2.03c-1.51-0.14-3.07-0.1-4.58-0.07
						c-2.09,0.05-4.26,0.1-6.37-0.31c-0.27-0.05-0.45-0.31-0.4-0.58s0.32-0.45,0.58-0.4c2.01,0.38,4.12,0.34,6.17,0.29
						c1.54-0.04,3.13-0.07,4.7,0.07c2.96,0.27,5.89,1.19,8.71,2.07c4.32,1.35,8.4,2.62,12.59,1.81c0.26-0.05,0.53,0.12,0.59,0.4
						c0.05,0.27-0.12,0.53-0.4,0.59C47.05,476.22,46.09,476.3,45.13,476.3z"/>
				</g>
				<g>
					<path class="st7" d="M22.78,468.19c-0.25,0-0.47-0.19-0.5-0.45c-0.03-0.27,0.17-0.52,0.44-0.55
						c5.08-0.54,10.24-0.66,15.35-0.33l0.8,0.05c2.4,0.16,4.87,0.33,7.15-0.32c0.27-0.08,0.54,0.08,0.62,0.34
						c0.08,0.27-0.08,0.54-0.34,0.62c-2.45,0.7-5.01,0.52-7.49,0.36l-0.8-0.05c-5.04-0.32-10.15-0.21-15.18,0.33
						C22.81,468.19,22.8,468.19,22.78,468.19z"/>
				</g>
			</g>
			<g id="Top_00000103985602583041295420000009430870152225935259_">
				<g>
					<path class="st7" d="M227.24,42.13c-4.06,0-8.12-0.21-12.16-0.62c-0.21-0.02-0.38-0.17-0.43-0.37c-0.05-0.2,0.03-0.42,0.2-0.54
						c5.7-3.89,12.66-5.98,19.53-5.89l0.25,0c1.23,0.01,2.51,0.04,3.45-0.59c0.41-0.27,0.74-0.66,1.09-1.08
						c0.25-0.3,0.51-0.6,0.82-0.88c1-0.92,2.3-1.37,3.45-1.78l19.67-6.91c0.26-0.09,0.55,0.05,0.64,0.31
						c0.09,0.26-0.05,0.55-0.31,0.64l-19.67,6.91c-1.06,0.37-2.25,0.79-3.1,1.57c-0.26,0.24-0.49,0.5-0.73,0.79
						c-0.38,0.45-0.78,0.91-1.3,1.26c-1.2,0.8-2.69,0.78-4.02,0.76l-0.25,0c-6.24-0.11-12.48,1.67-17.77,4.94
						c17.84,1.62,36.07-0.87,52.81-7.23c0.26-0.09,0.55,0.03,0.65,0.29s-0.03,0.55-0.29,0.65C256.23,39.5,241.73,42.13,227.24,42.13
						z"/>
				</g>
				<g>
					<path class="st7" d="M159.83,40.28c-0.27,0-0.49-0.21-0.5-0.48c-0.01-0.28,0.21-0.51,0.48-0.52
						c21.1-0.71,41.96-4.42,62.01-11.02c0.26-0.09,0.54,0.06,0.63,0.32c0.09,0.26-0.06,0.54-0.32,0.63
						c-20.14,6.63-41.09,10.36-62.29,11.07C159.84,40.28,159.83,40.28,159.83,40.28z"/>
				</g>
				<g>
					<path class="st7" d="M73.81,38.22c-0.27,0-0.49-0.22-0.5-0.49c-0.01-0.28,0.21-0.5,0.49-0.51
						c44.43-1.04,89.22-5.05,133.13-11.93c0.26-0.04,0.53,0.14,0.57,0.42c0.04,0.27-0.14,0.53-0.42,0.57
						c-43.95,6.89-88.79,10.91-133.26,11.94C73.82,38.22,73.82,38.22,73.81,38.22z"/>
				</g>
				<g>
					<path class="st7" d="M46.7,31.37c-0.25,0-0.46-0.18-0.5-0.43c-0.04-0.27,0.16-0.53,0.43-0.56c10.4-1.36,21.13-2.77,31.84-2.72
						c3.57,0.02,7.21,0.19,10.74,0.36c9.23,0.45,18.76,0.91,27.73-1.5c0.27-0.07,0.54,0.09,0.61,0.35c0.07,0.27-0.09,0.54-0.35,0.61
						c-9.12,2.44-18.74,1.98-28.04,1.53c-3.51-0.17-7.15-0.35-10.69-0.36c-10.64-0.05-21.34,1.36-31.71,2.72
						C46.74,31.37,46.72,31.37,46.7,31.37z"/>
				</g>
				<g>
					<path class="st7" d="M94.37,45.33c-0.26,0-0.48-0.21-0.5-0.47c-0.02-0.28,0.19-0.51,0.47-0.53l44.85-2.58c0.01,0,0.02,0,0.03,0
						c0.26,0,0.48,0.21,0.5,0.47c0.02,0.28-0.19,0.51-0.47,0.53L94.4,45.33C94.39,45.33,94.38,45.33,94.37,45.33z"/>
				</g>
				<g>
					<path class="st7" d="M63.26,43.26c-0.33,0-0.68-0.02-1.07-0.06l-14.92-1.58c-0.27-0.03-0.47-0.28-0.44-0.55
						s0.28-0.48,0.55-0.44l14.92,1.58c1.33,0.14,3.01,0.08,3.43-1.01c0.15-0.38,0.12-0.73-0.09-1.08c-0.55-0.93-2.17-1.58-3.49-1.74
						c-6.21-0.78-12.53-1.09-18.79-0.9c-0.83,0.02-1.73,0.38-2,0.79c-0.09,0.14-0.1,0.26-0.04,0.42c0.1,0.26-0.02,0.55-0.28,0.65
						c-0.26,0.1-0.55-0.02-0.65-0.28c-0.19-0.47-0.14-0.93,0.13-1.34c0.54-0.82,1.83-1.22,2.81-1.25
						c6.31-0.18,12.68,0.12,18.94,0.91c1.56,0.2,3.46,0.96,4.22,2.22c0.37,0.61,0.42,1.28,0.17,1.95
						C66.34,42.37,65.49,43.26,63.26,43.26z"/>
				</g>
				<g>
					<path class="st7" d="M144.01,46.98c-0.18,0-0.35-0.09-0.44-0.26c-0.13-0.24-0.04-0.55,0.2-0.68c3.45-1.86,7.57-2.25,11.31-1.07
						c0.26,0.08,0.41,0.36,0.33,0.63c-0.08,0.26-0.36,0.41-0.63,0.33c-3.43-1.08-7.37-0.71-10.54,1
						C144.17,46.96,144.09,46.98,144.01,46.98z"/>
				</g>
				<g>
					<path class="st7" d="M18.51,34.72c-1.35,0-2.73-0.88-3.73-2.39c-1.33-2.01-1.72-4.63-1.09-7.2c0.63-2.56,2.21-4.7,4.31-5.86
						c0.24-0.13,0.55-0.04,0.68,0.2c0.13,0.24,0.05,0.55-0.2,0.68c-1.87,1.03-3.26,2.93-3.83,5.22c-0.57,2.29-0.22,4.63,0.95,6.41
						c0.32,0.49,1.52,2.05,3.07,1.94c1.42-0.12,2.21-1.41,3.12-2.9c0.54-0.89,1.1-1.8,1.84-2.5c1.48-1.4,3.56-1.8,5.56-2.09
						c6.15-0.89,12.41-1.37,18.63-1.44c0,0,0,0,0.01,0c0.27,0,0.5,0.22,0.5,0.49c0,0.28-0.22,0.5-0.49,0.51
						c-6.17,0.07-12.39,0.55-18.5,1.43c-1.84,0.27-3.75,0.63-5.02,1.83c-0.65,0.61-1.17,1.47-1.68,2.3
						c-0.97,1.58-1.97,3.21-3.89,3.38C18.68,34.71,18.6,34.72,18.51,34.72z"/>
				</g>
				<g>
					<path class="st7" d="M25.96,41.38c-0.14,0-0.28-0.06-0.37-0.17c-0.18-0.21-0.16-0.52,0.04-0.71c2.36-2.1,4.97-3.92,7.75-5.42
						c0.24-0.13,0.55-0.04,0.68,0.2c0.13,0.24,0.04,0.55-0.2,0.68c-2.71,1.46-5.25,3.25-7.56,5.29
						C26.2,41.33,26.08,41.38,25.96,41.38z"/>
				</g>
				<g>
					<path class="st7" d="M135.88,26.36c-0.27,0-0.49-0.21-0.5-0.48c-0.01-0.28,0.2-0.51,0.48-0.52l26.52-1.25
						c0.28-0.03,0.51,0.2,0.52,0.48c0.01,0.28-0.2,0.51-0.48,0.52l-26.52,1.25C135.9,26.36,135.89,26.36,135.88,26.36z"/>
				</g>
				<g>
					<path class="st7" d="M233.86,24.03c-2.7,0-5.4-0.08-8.09-0.23c-0.28-0.02-0.49-0.25-0.47-0.53c0.02-0.27,0.23-0.48,0.53-0.47
						c8.81,0.5,17.71,0.17,26.46-0.96c0.27-0.04,0.52,0.16,0.56,0.43c0.04,0.27-0.16,0.53-0.43,0.56
						C246.28,23.64,240.07,24.03,233.86,24.03z"/>
				</g>
				<g>
					<path class="st7" d="M177.83,47.29c-0.24,0-0.44-0.17-0.49-0.41c-0.05-0.27,0.13-0.53,0.4-0.58
						c9.42-1.79,19.05-3.09,28.62-3.89c0.25-0.02,0.52,0.18,0.54,0.46c0.02,0.27-0.18,0.52-0.46,0.54
						c-9.53,0.79-19.13,2.1-28.52,3.88C177.9,47.29,177.86,47.29,177.83,47.29z"/>
				</g>
			</g>
		</g>
	</g>
</g>
<g id="Guide">
</g>
</svg>
