<?xml version="1.0" encoding="utf-8"?>
<!-- Generator: Adobe Illustrator 26.1.0, SVG Export Plug-In . SVG Version: 6.00 Build 0)  -->
<svg version="1.1" xmlns="http://www.w3.org/2000/svg" xmlns:xlink="http://www.w3.org/1999/xlink" x="0px" y="0px"
	 viewBox="0 0 401.87 479.38" style="enable-background:new 0 0 401.87 479.38;" xml:space="preserve">
<style type="text/css">
	.st0{fill:#FFFFFF;stroke:#000000;stroke-miterlimit:10;}
	.st1{fill:#BFA071;stroke:#554B4E;stroke-width:1.5;stroke-linecap:round;stroke-linejoin:round;stroke-miterlimit:10;}
	.st2{fill:#BFA071;stroke:#554B4E;stroke-linecap:round;stroke-linejoin:round;stroke-miterlimit:10;}
	.st3{fill:#F8F4E9;stroke:#554B4E;stroke-width:1.5;stroke-linecap:round;stroke-linejoin:round;stroke-miterlimit:10;}
	.st4{fill:#F2DED6;stroke:#554B4E;stroke-width:1.5;stroke-linecap:round;stroke-linejoin:round;stroke-miterlimit:10;}
	.st5{fill:none;stroke:#554B4E;stroke-linecap:round;stroke-linejoin:round;stroke-miterlimit:10;}
	.st6{fill:#BFA071;}
	.st7{fill:#554B4E;}
	.st8{fill:#F8F4E9;}
	.st9{fill:none;stroke:#554B4E;stroke-width:1.5;stroke-linecap:round;stroke-linejoin:round;stroke-miterlimit:10;}
	.st10{fill:#F8F4E9;stroke:#554B4E;stroke-linecap:round;stroke-linejoin:round;stroke-miterlimit:10;}
	.st11{fill:#F2DED6;stroke:#554B4E;stroke-linecap:round;stroke-linejoin:round;stroke-miterlimit:10;}
	.st12{clip-path:url(#SVGID_00000047038725845367282070000008162596774971842495_);}
	.st13{fill:none;stroke:#BFA071;stroke-width:1.5;stroke-linecap:round;stroke-linejoin:round;}
	.st14{fill:none;stroke:#BFA071;stroke-width:1.5;stroke-linecap:round;stroke-linejoin:round;stroke-dasharray:68.8403,19.6687;}
	.st15{fill:none;stroke:#BFA071;stroke-width:1.5;stroke-linecap:round;stroke-linejoin:round;stroke-dasharray:71.4455,20.413;}
	.st16{fill:none;stroke:#BFA071;stroke-width:1.5;stroke-linecap:round;stroke-linejoin:round;stroke-dasharray:69.5884,19.8824;}
	.st17{fill:none;stroke:#BFA071;stroke-width:1.5;stroke-linecap:round;stroke-linejoin:round;stroke-dasharray:61.3524,17.5292;}
	.st18{fill:none;stroke:#BFA071;stroke-width:1.5;stroke-linecap:round;stroke-linejoin:round;stroke-dasharray:63.9932,18.2838;}
	.st19{fill:none;stroke:#BFA071;stroke-width:1.5;stroke-linecap:round;stroke-linejoin:round;stroke-dasharray:72.7778,20.7937;}
	.st20{fill:none;stroke:#BFA071;stroke-width:1.5;stroke-linecap:round;stroke-linejoin:round;stroke-dasharray:77.193,22.0551;}
	.st21{fill:none;stroke:#BFA071;stroke-width:1.5;stroke-linecap:round;stroke-linejoin:round;stroke-dasharray:75.3802,21.5372;}
	.st22{fill:none;stroke:#BFA071;stroke-width:1.5;stroke-linecap:round;stroke-linejoin:round;stroke-dasharray:73.6885,21.0538;}
	.st23{fill:none;stroke:#BFA071;stroke-width:1.5;stroke-linecap:round;stroke-linejoin:round;stroke-dasharray:63.3162,18.0903;}
	.st24{fill:none;stroke:#BFA071;stroke-width:1.5;stroke-linecap:round;stroke-linejoin:round;stroke-dasharray:62.0513,17.7289;}
	.st25{fill:none;stroke:#BFA071;stroke-width:1.5;stroke-linecap:round;stroke-linejoin:round;stroke-dasharray:68.9157,19.6902;}
	.st26{fill:none;stroke:#554B4E;stroke-width:1.5;stroke-linecap:round;stroke-linejoin:round;}
	.st27{fill:none;stroke:#554B4E;stroke-width:1.5;stroke-linecap:round;stroke-linejoin:round;stroke-dasharray:15.0532,10.0355;}
	.st28{fill:none;stroke:#554B4E;stroke-width:1.5;stroke-linecap:round;stroke-linejoin:round;stroke-dasharray:14.9985,9.999;}
	.st29{fill:none;stroke:#554B4E;stroke-width:1.5;stroke-linecap:round;stroke-linejoin:round;stroke-dasharray:14.8977,9.9318;}
	.st30{fill:none;stroke:#554B4E;stroke-width:1.5;stroke-linecap:round;stroke-linejoin:round;stroke-dasharray:15.4213,10.2808;}
	.st31{fill:none;stroke:#554B4E;stroke-width:1.5;stroke-linecap:round;stroke-linejoin:round;stroke-dasharray:15.2271,10.1514;}
	.st32{fill:none;stroke:#554B4E;stroke-width:1.5;stroke-linecap:round;stroke-linejoin:round;stroke-dasharray:15.021,10.014;}
	.st33{fill:none;stroke:#554B4E;stroke-width:1.5;stroke-linecap:round;stroke-linejoin:round;stroke-dasharray:15.0727,10.0485;}
	.st34{fill:none;stroke:#554B4E;stroke-width:1.5;stroke-linecap:round;stroke-linejoin:round;stroke-dasharray:14.6942,9.7961;}
	.st35{fill:none;stroke:#554B4E;stroke-width:1.5;stroke-linecap:round;stroke-linejoin:round;stroke-dasharray:14.7469,9.8312;}
	.st36{fill:none;stroke:#554B4E;stroke-width:1.5;stroke-linecap:round;stroke-linejoin:round;stroke-dasharray:15.0819,10.0546;}
	.st37{fill:none;stroke:#554B4E;stroke-width:1.5;stroke-linecap:round;stroke-linejoin:round;stroke-dasharray:15.003,10.002;}
	.st38{fill:#F2DED6;}
	.st39{fill:#F2DED6;stroke:#554B4E;stroke-width:1.5;stroke-linecap:round;stroke-miterlimit:10;}
	.st40{fill:none;stroke:#554B4E;stroke-width:1.5;stroke-linecap:round;stroke-miterlimit:10;}
	.st41{fill:none;stroke:#554B4E;stroke-linecap:round;stroke-miterlimit:10;}
	.st42{fill:none;stroke:#BFA071;stroke-linecap:round;stroke-linejoin:round;}
	.st43{fill:none;stroke:#BFA071;stroke-linecap:round;stroke-linejoin:round;stroke-dasharray:14.9905,14.9905;}
	.st44{fill:none;stroke:#BFA071;stroke-linecap:round;stroke-linejoin:round;stroke-dasharray:51.384,34.256;}
	.st45{fill:none;stroke:#554B4E;stroke-miterlimit:10;}
	.st46{clip-path:url(#SVGID_00000147935522674312714080000010281418325899213991_);}
	.st47{fill:none;stroke:#554B4E;stroke-width:1.5;stroke-linecap:round;stroke-linejoin:round;stroke-dasharray:68.8403,19.6687;}
	.st48{fill:none;stroke:#554B4E;stroke-width:1.5;stroke-linecap:round;stroke-linejoin:round;stroke-dasharray:71.4455,20.413;}
	.st49{fill:none;stroke:#554B4E;stroke-width:1.5;stroke-linecap:round;stroke-linejoin:round;stroke-dasharray:69.5884,19.8824;}
	.st50{fill:none;stroke:#554B4E;stroke-width:1.5;stroke-linecap:round;stroke-linejoin:round;stroke-dasharray:61.3524,17.5292;}
	.st51{fill:none;stroke:#554B4E;stroke-width:1.5;stroke-linecap:round;stroke-linejoin:round;stroke-dasharray:63.9932,18.2838;}
	.st52{fill:none;stroke:#554B4E;stroke-width:1.5;stroke-linecap:round;stroke-linejoin:round;stroke-dasharray:72.7778,20.7937;}
	.st53{fill:none;stroke:#554B4E;stroke-width:1.5;stroke-linecap:round;stroke-linejoin:round;stroke-dasharray:77.193,22.0551;}
	.st54{fill:none;stroke:#554B4E;stroke-width:1.5;stroke-linecap:round;stroke-linejoin:round;stroke-dasharray:75.3802,21.5372;}
	.st55{fill:none;stroke:#554B4E;stroke-width:1.5;stroke-linecap:round;stroke-linejoin:round;stroke-dasharray:73.6885,21.0538;}
	.st56{fill:none;stroke:#554B4E;stroke-width:1.5;stroke-linecap:round;stroke-linejoin:round;stroke-dasharray:63.3162,18.0903;}
	.st57{fill:none;stroke:#554B4E;stroke-width:1.5;stroke-linecap:round;stroke-linejoin:round;stroke-dasharray:62.0513,17.7289;}
	.st58{fill:none;stroke:#554B4E;stroke-width:1.5;stroke-linecap:round;stroke-linejoin:round;stroke-dasharray:68.9157,19.6902;}
	.st59{fill:none;stroke:#554B4E;stroke-linecap:round;stroke-linejoin:round;}
	.st60{fill:none;stroke:#554B4E;stroke-linecap:round;stroke-linejoin:round;stroke-dasharray:14.9905,14.9905;}
	.st61{fill:none;stroke:#554B4E;stroke-linecap:round;stroke-linejoin:round;stroke-dasharray:51.384,34.256;}
	.st62{fill:#95608F;}
	.st63{fill:#ED859E;}
	.st64{fill:#FAC87D;}
	.st65{opacity:0.1;}
	.st66{fill:#B5846F;}
	.st67{fill:#B5846F;stroke:#B5846F;stroke-width:5;stroke-linecap:round;stroke-linejoin:round;stroke-miterlimit:10;}
	.st68{fill:#EAD9EB;}
	.st69{fill:#FFFFFF;}
	.st70{fill:url(#SVGID_00000129925275583817709940000006199579247864257432_);}
	.st71{opacity:0.8;fill:#FFFFFF;}
	.st72{fill:url(#SVGID_00000181058896847015600320000000793033667330231460_);}
	.st73{fill:url(#SVGID_00000031184912484564499930000008777137844716122557_);}
	.st74{opacity:0.8;}
	.st75{opacity:0.6;}
	.st76{opacity:0.2;}
	.st77{fill:none;}
	.st78{fill:url(#SVGID_00000020397731479941109840000001926865168716471693_);}
	.st79{fill:url(#SVGID_00000155108807434651420540000010234585565020572325_);}
	.st80{clip-path:url(#SVGID_00000137851552540276504710000007989989195242460045_);fill:#FFFFFF;}
	.st81{clip-path:url(#SVGID_00000168107620371077116460000002371656956859206277_);fill:#FFFFFF;}
	.st82{clip-path:url(#SVGID_00000101820738539176235180000013583390982544011934_);fill:#FFFFFF;}
	.st83{clip-path:url(#SVGID_00000046308987009281697490000016142931906688044687_);fill:#FFFFFF;}
	.st84{clip-path:url(#SVGID_00000128447395806956003930000002894347128079590034_);fill:#FFFFFF;}
</style>
<g id="Bg">
</g>
<g id="Graphic">
	<g id="Big_00000057844301240839151160000009204213877279363992_">
		<g id="Gill_00000153667506357142060770000012469283365481005223_">
			<g>
				<path class="st38" d="M401.08,185.08c0.46,12.8-10.19,25.89-19.82,30.42c-9.63,4.52-20.18,4.07-30.43,4.39
					c-20.54,0.64-41.05,4.62-60.83,11.81c-13.62,4.95-27.96,11.48-41.54,6.69c-4.42-1.56-9.96-1.1-14.66-1.45l-84.43,0.27
					c-10.33-3.37-22.59-5.01-33.45-4.63c-4.43,0.16-8.86,0.63-13.28,0.14c-7.71-0.85-9.93-4.84-15.06-9.01
					c-5.08-4.12-12.25-7.33-18.76-8.97c-4-1.01-8.1-1.25-12.12-2.09c-8.8-1.85-17.17-6.67-23.99-13.81
					c-8.33-8.72-14.43-20.85-23.92-27.49c0,0,27.72-18.12,172.64-1.4S401.08,185.08,401.08,185.08z"/>
				<path class="st7" d="M258.61,240.82c-3.49,0-6.96-0.51-10.4-1.72c-3.04-1.07-6.68-1.16-10.21-1.24
					c-1.48-0.04-2.89-0.07-4.26-0.17l-84.37,0.27c0,0,0,0,0,0c-0.08,0-0.16-0.01-0.23-0.04c-10.14-3.31-22.23-4.99-33.19-4.59
					c-1.09,0.04-2.18,0.1-3.27,0.15c-3.31,0.17-6.73,0.36-10.12-0.02c-6.14-0.68-8.97-3.3-12.24-6.33c-1-0.92-2.02-1.88-3.21-2.84
					c-4.67-3.79-11.58-7.09-18.47-8.83c-2.2-0.55-4.48-0.88-6.69-1.19c-1.77-0.25-3.6-0.51-5.4-0.89
					c-8.99-1.89-17.42-6.74-24.38-14.03c-3.28-3.43-6.24-7.42-9.11-11.29c-4.43-5.96-9-12.12-14.7-16.11
					c-0.2-0.14-0.32-0.38-0.32-0.63s0.13-0.48,0.34-0.62c1.14-0.74,29.6-18.08,173.14-1.52c143.2,16.52,218.79,15.15,219.54,15.13
					c0.42-0.01,0.75,0.31,0.76,0.72c0.46,12.71-10.1,26.35-20.25,31.12c-8.48,3.98-17.69,4.18-26.59,4.36
					c-1.38,0.03-2.76,0.06-4.13,0.1c-20.48,0.63-40.87,4.59-60.6,11.77c-1.44,0.52-2.88,1.06-4.33,1.6
					C276.94,237.37,267.72,240.82,258.61,240.82z M233.81,236.19c1.39,0.1,2.77,0.13,4.24,0.17c3.64,0.09,7.41,0.17,10.67,1.32
					c11.89,4.19,24.5-0.52,36.69-5.08c1.45-0.54,2.9-1.08,4.34-1.61c19.88-7.23,40.42-11.22,61.06-11.86
					c1.38-0.04,2.76-0.07,4.15-0.1c8.75-0.18,17.79-0.37,25.99-4.22c9.52-4.47,19.42-17.07,19.4-28.98
					c-8.22,0.1-83.28,0.5-218.99-15.15c-128.48-14.82-164.95-2.04-171.13,0.77c5.43,4.11,9.8,10.01,14.04,15.72
					c2.84,3.83,5.78,7.78,8.99,11.15c6.75,7.06,14.91,11.76,23.6,13.59c1.75,0.37,3.55,0.62,5.3,0.87c2.25,0.32,4.57,0.65,6.85,1.22
					c7.09,1.79,14.21,5.2,19.05,9.12c1.23,1,2.27,1.97,3.29,2.9c3.21,2.97,5.74,5.32,11.39,5.94c3.27,0.36,6.63,0.18,9.88,0.01
					c1.1-0.06,2.2-0.12,3.3-0.16c11.1-0.4,23.32,1.3,33.6,4.63L233.81,236.19z"/>
			</g>
			<g>
				<g>
					<path class="st7" d="M18.54,181.42c-0.15,0-0.31-0.07-0.4-0.21c-0.16-0.22-0.11-0.54,0.11-0.7l13.07-9.53
						c0.22-0.16,0.54-0.11,0.7,0.11c0.16,0.22,0.11,0.54-0.11,0.7l-13.07,9.53C18.75,181.39,18.65,181.42,18.54,181.42z"/>
				</g>
				<g>
					<path class="st7" d="M27.78,193.56c-0.15,0-0.3-0.07-0.4-0.2c-0.17-0.22-0.12-0.53,0.1-0.7l23.16-17.3
						c0.22-0.17,0.53-0.12,0.7,0.1c0.17,0.22,0.12,0.53-0.1,0.7l-23.16,17.3C27.99,193.53,27.89,193.56,27.78,193.56z"/>
				</g>
				<g>
					<path class="st7" d="M42.98,206.44c-0.13,0-0.26-0.05-0.35-0.15c-0.19-0.2-0.19-0.51,0-0.71l22.58-22.52
						c0.2-0.19,0.51-0.19,0.71,0c0.19,0.2,0.19,0.51,0,0.71l-22.58,22.52C43.24,206.39,43.11,206.44,42.98,206.44z"/>
				</g>
				<g>
					<path class="st7" d="M61.62,213.96c-0.1,0-0.2-0.03-0.29-0.09c-0.23-0.16-0.28-0.47-0.12-0.7l13.74-19.66
						c0.16-0.23,0.47-0.28,0.7-0.12c0.23,0.16,0.28,0.47,0.12,0.7l-13.74,19.66C61.94,213.89,61.78,213.96,61.62,213.96z"/>
				</g>
				<g>
					<path class="st7" d="M80.03,218.47c-0.11,0-0.22-0.03-0.31-0.11c-0.22-0.17-0.26-0.48-0.09-0.7l8.64-11.08
						c0.17-0.22,0.48-0.26,0.7-0.09c0.22,0.17,0.26,0.48,0.09,0.7l-8.64,11.08C80.32,218.41,80.17,218.47,80.03,218.47z"/>
				</g>
				<g>
					<path class="st7" d="M95.57,230.92c-0.07,0-0.15-0.02-0.22-0.05c-0.25-0.12-0.35-0.42-0.23-0.67l9.36-18.99
						c0.12-0.25,0.42-0.35,0.67-0.23c0.25,0.12,0.35,0.42,0.23,0.67l-9.36,18.99C95.93,230.82,95.75,230.92,95.57,230.92z"/>
				</g>
				<g>
					<path class="st7" d="M114.18,233.15c-0.07,0-0.14-0.01-0.2-0.04c-0.25-0.11-0.37-0.41-0.26-0.66l9.64-21.9
						c0.11-0.25,0.41-0.37,0.66-0.26c0.25,0.11,0.37,0.41,0.26,0.66l-9.64,21.9C114.56,233.04,114.37,233.15,114.18,233.15z"/>
				</g>
				<g>
					<path class="st7" d="M137.38,234.71c-0.04,0-0.08,0-0.12-0.02c-0.27-0.07-0.43-0.34-0.36-0.61l6.74-26.49
						c0.07-0.27,0.34-0.43,0.61-0.36c0.27,0.07,0.43,0.34,0.36,0.61l-6.74,26.49C137.81,234.56,137.61,234.71,137.38,234.71z"/>
				</g>
				<g>
					<path class="st7" d="M248.47,238.89c-0.22,0-0.42-0.14-0.48-0.36l-5.26-18.63c-0.08-0.27,0.08-0.54,0.35-0.62
						c0.27-0.07,0.54,0.08,0.62,0.35l5.26,18.63c0.08,0.27-0.08,0.54-0.35,0.62C248.56,238.89,248.51,238.89,248.47,238.89z"/>
				</g>
				<g>
					<path class="st7" d="M274.17,237.84c-0.18,0-0.35-0.09-0.44-0.26l-15.54-28.21c-0.13-0.24-0.04-0.55,0.2-0.68
						c0.24-0.13,0.54-0.04,0.68,0.2l15.53,28.21c0.13,0.24,0.04,0.55-0.2,0.68C274.33,237.82,274.25,237.84,274.17,237.84z"/>
				</g>
				<g>
					<path class="st7" d="M295.42,230.32c-0.16,0-0.31-0.07-0.41-0.21l-21.67-30.27c-0.16-0.22-0.11-0.54,0.12-0.7
						c0.22-0.16,0.53-0.11,0.7,0.12l21.67,30.27c0.16,0.22,0.11,0.54-0.12,0.7C295.62,230.29,295.52,230.32,295.42,230.32z"/>
				</g>
				<g>
					<path class="st7" d="M316.76,224.52c-0.13,0-0.26-0.05-0.35-0.15l-29.7-29.73c-0.2-0.2-0.2-0.51,0-0.71s0.51-0.2,0.71,0
						l29.7,29.73c0.2,0.2,0.2,0.51,0,0.71C317.02,224.47,316.89,224.52,316.76,224.52z"/>
				</g>
				<g>
					<path class="st7" d="M338.18,221.21c-0.13,0-0.26-0.05-0.36-0.15l-22.69-23.7c-0.19-0.2-0.18-0.52,0.02-0.71
						s0.52-0.18,0.71,0.02l22.69,23.7c0.19,0.2,0.18,0.52-0.02,0.71C338.43,221.16,338.3,221.21,338.18,221.21z"/>
				</g>
				<g>
					<path class="st7" d="M359.11,220.18c-0.13,0-0.26-0.05-0.36-0.16l-12.51-13.15c-0.19-0.2-0.18-0.52,0.02-0.71
						c0.2-0.19,0.52-0.18,0.71,0.02l12.51,13.15c0.19,0.2,0.18,0.52-0.02,0.71C359.36,220.14,359.24,220.18,359.11,220.18z"/>
				</g>
				<g>
					<path class="st7" d="M381.27,216c-0.11,0-0.23-0.04-0.32-0.12l-14.46-12.1c-0.21-0.18-0.24-0.49-0.06-0.71
						c0.18-0.21,0.5-0.24,0.71-0.06l14.46,12.1c0.21,0.18,0.24,0.49,0.06,0.71C381.55,215.94,381.41,216,381.27,216z"/>
				</g>
				<g>
					<path class="st7" d="M394.81,204.1c-0.09,0-0.19-0.03-0.27-0.08l-12.64-8.23c-0.23-0.15-0.3-0.46-0.15-0.69
						c0.15-0.23,0.46-0.3,0.69-0.15l12.64,8.23c0.23,0.15,0.3,0.46,0.15,0.69C395.13,204.02,394.97,204.1,394.81,204.1z"/>
				</g>
			</g>
		</g>
		<g id="Stem_00000069379573244852303090000003516581706708711596_">
			<path class="st8" d="M232.3,222.03c0.13,1.48,0.59,2.58,0.63,4.06c0.59,22.02,7.1,38.79,8.53,55.47
				c2.21,25.83-2.85,44.8-4.1,70.62c-0.31,6.4-0.72,12.85,0.65,19.19c1.63,7.55,5.74,14.7,8.3,22.12
				c6.23,18.07-13.33,48.05,1.71,63.04c2.68,2.67,5.95,5.23,6.86,8.48c1.87,6.71-7.18,13.77-16.26,13.6
				c-31.19-0.57-27.51-4.34-50.06-5.85c-8.41-0.57-16.85,0.77-25.27,0.15c-77.07-5.7-36.33-7.47-30.05-65
				c1.88-17.26,2.82-24.14,4.36-35.63c1.54-11.5,7.3-26.89,6.42-46.76c-0.78-17.71-4.03-35.51-1.5-53.08
				c1.43-9.91,8.51-35.59,10.2-45.46c1.17-6.78-1.41-13.85-1.31-20.74c0,0,9.78-5.45,23.62-5.17c13.84,0.28,33.56,7.49,40.92,11.51
				S232.3,222.03,232.3,222.03z"/>
			<path class="st7" d="M238.92,479.38c-0.11,0-0.21,0-0.32,0c-18.02-0.33-24.61-1.76-30.99-3.14c-4.71-1.02-9.59-2.08-19.11-2.72
				c-4.1-0.28-8.3-0.09-12.36,0.09c-4.23,0.19-8.6,0.38-12.92,0.06c-32.06-2.37-43.25-4.03-46.27-9.15
				c-2.1-3.56,0.11-8.39,3.45-15.71c3.98-8.71,10-21.88,12.08-40.97c1.82-16.66,2.77-23.74,4.2-34.46l0.16-1.19
				c0.47-3.54,1.36-7.49,2.29-11.68c2.11-9.46,4.73-21.23,4.13-34.95c-0.23-5.29-0.7-10.69-1.14-15.91
				c-1.05-12.25-2.14-24.92-0.35-37.31c0.78-5.4,3.21-15.38,5.55-25.02c2-8.21,3.88-15.96,4.66-20.46c0.66-3.84,0.07-7.9-0.51-11.82
				c-0.42-2.88-0.86-5.87-0.81-8.8c0-0.27,0.15-0.51,0.38-0.64c0.41-0.23,10.11-5.53,24-5.27c14.52,0.3,34.35,7.83,41.26,11.6
				c7.29,3.98,16.3,9.43,16.39,9.48c0.2,0.12,0.34,0.34,0.36,0.57c0.06,0.62,0.17,1.16,0.29,1.73c0.15,0.73,0.31,1.49,0.34,2.38
				c0.34,12.74,2.64,23.53,4.86,33.97c1.58,7.42,3.07,14.43,3.67,21.45c1.42,16.53-0.13,30.22-1.77,44.71
				c-0.92,8.19-1.88,16.66-2.33,26.01l-0.05,1.01c-0.29,5.93-0.6,12.07,0.69,17.99c0.99,4.56,2.94,9.08,4.83,13.46
				c1.2,2.79,2.45,5.68,3.45,8.57c2.72,7.88,0.63,18.03-1.38,27.85c-2.68,13.06-5.45,26.57,2.91,34.9c0.5,0.5,1.01,0.99,1.53,1.48
				c2.32,2.21,4.73,4.49,5.52,7.33c0.7,2.52,0.03,5.26-1.88,7.74C250.53,476.66,244.62,479.38,238.92,479.38z M183.94,471.88
				c1.55,0,3.11,0.04,4.65,0.14c9.63,0.65,14.56,1.71,19.33,2.75c6.6,1.43,12.83,2.78,30.7,3.1c5.27,0.07,10.98-2.47,13.9-6.23
				c1.14-1.48,2.36-3.79,1.62-6.42c-0.68-2.44-2.93-4.58-5.1-6.65c-0.53-0.5-1.05-1-1.56-1.51c-8.93-8.9-6.07-22.81-3.32-36.27
				c1.97-9.62,4.01-19.57,1.43-27.06c-0.98-2.84-2.21-5.7-3.41-8.47c-1.92-4.44-3.9-9.03-4.92-13.74
				c-1.32-6.11-1.01-12.35-0.72-18.38l0.05-1.01c0.46-9.39,1.41-17.89,2.34-26.1c1.63-14.42,3.17-28.03,1.76-44.42
				c-0.59-6.93-2.07-13.9-3.64-21.27c-2.23-10.51-4.54-21.37-4.89-34.25c-0.02-0.75-0.16-1.41-0.3-2.11
				c-0.1-0.48-0.21-0.98-0.28-1.52c-1.66-1-9.52-5.71-16.01-9.26c-7.23-3.95-26.97-11.14-40.58-11.42
				c-11.92-0.25-20.93,3.91-22.85,4.88c0.01,2.68,0.41,5.44,0.8,8.12c0.59,4.04,1.2,8.22,0.5,12.29
				c-0.78,4.55-2.67,12.33-4.68,20.56c-2.34,9.61-4.76,19.55-5.53,24.88c-1.76,12.22-0.68,24.8,0.36,36.97
				c0.45,5.23,0.91,10.65,1.15,15.97c0.61,13.91-2.03,25.79-4.16,35.34c-0.93,4.16-1.8,8.08-2.27,11.56l-0.16,1.19
				c-1.44,10.71-2.39,17.78-4.2,34.43c-2.11,19.33-8.19,32.63-12.21,41.43c-3.15,6.89-5.23,11.44-3.52,14.33
				c2.7,4.57,15.51,6.23,45.09,8.41c4.23,0.31,8.55,0.12,12.74-0.06C178.66,471.99,181.3,471.88,183.94,471.88z"/>
		</g>
		<g id="Cap_00000003073501676378337270000000984234100049074584_">
			<path class="st6" d="M127.29,76.75c-35.61,31.35-73.31,45.74-111.66,71.49c0,0-11.12,10.14-12.81,12.72
				c-9.48,14.48,16.22,9.04,23.91,9.86c16.79,1.77,34.63,5.59,46.74,20.11c3.48,4.17,6.39,9.14,10.32,12.63
				c4.84,4.3,10.87,6.03,16.79,6.87c32,4.5,65.37-14.2,96.11-2.44c14.52,5.56,28.82,17.82,43.59,12.97c5-1.64,9.47-5.16,13.9-8.52
				c14.37-10.91,30.35-21.05,47.01-19.3c12.06,1.27,23.1,8.68,34.93,11.81c13.46,3.56,27.91,1.34,40.38-6.2
				c4.23-2.56,8.83-5.32,13.19-7.43c15.52-7.53,13.07-1.25,5.3-18.68c-1.25-2.81-5.69-5.67-10.7-8.79
				c-16.3-10.18-31.28-23.33-44.25-39.3l-1.3-1.6c-10.39-12.8-22.06-23.87-34.72-32.95c0,0-11.01-7.9-11.02-7.9
				c-25.79-18.5-45.18-45.62-65.96-69.5c-22.34-25.67-35.83-3.9-56,11.77C155.8,36.19,141.96,63.84,127.29,76.75z"/>
			<path class="st7" d="M233.29,222.8c-8.4,0-16.64-4.25-24.67-8.38c-3.99-2.06-8.12-4.18-12.18-5.74
				c-17.22-6.59-35.74-3.43-53.65-0.38c-13.92,2.37-28.31,4.83-42.3,2.86c-7.5-1.05-12.96-3.29-17.19-7.05
				c-2.6-2.31-4.77-5.26-6.87-8.12c-1.13-1.54-2.31-3.13-3.52-4.59c-12.05-14.46-30.14-18.14-46.24-19.84
				c-1.69-0.18-4.41-0.04-7.29,0.11c-7.73,0.4-16.49,0.85-18.81-3.21c-1.12-1.94-0.58-4.53,1.64-7.92
				c1.72-2.63,12.47-12.44,12.93-12.86c0.03-0.02,0.06-0.05,0.09-0.07c14.5-9.73,29.04-17.93,43.11-25.85
				c23.84-13.43,46.36-26.11,68.47-45.58l0.5,0.56l-0.5-0.56c6.86-6.04,13.71-15.58,20.34-24.8c7.53-10.47,15.31-21.3,23.44-27.62
				c3.58-2.78,6.96-5.76,10.22-8.64c9.55-8.44,17.77-15.73,27.43-15.09c6.34,0.42,12.68,4.36,19.38,12.06
				c4.81,5.53,9.64,11.34,14.31,16.96c15.62,18.81,31.78,38.25,51.52,52.42c0.07,0.05,11.02,7.9,11.02,7.9
				c12.71,9.12,24.44,20.25,34.87,33.09l1.3,1.6c12.71,15.64,27.53,28.81,44.07,39.13c5.62,3.51,9.69,6.21,10.99,9.12
				c1.78,3.99,3.26,6.7,4.34,8.68c1.47,2.69,2.14,3.91,1.72,5.07c-0.41,1.14-1.74,1.67-4.37,2.71c-1.77,0.7-4.19,1.66-7.35,3.19
				c-4.18,2.03-8.6,4.66-13.13,7.4c-12.69,7.68-27.24,9.91-40.96,6.28c-4.93-1.3-9.78-3.37-14.46-5.36
				c-6.58-2.8-13.38-5.69-20.35-6.42c-16.42-1.74-32.03,8.19-46.48,19.15l-0.67,0.51c-4.22,3.21-8.58,6.52-13.44,8.12
				C238.1,222.45,235.69,222.8,233.29,222.8z M173.52,203.3c7.93,0,15.79,1.05,23.45,3.98c4.14,1.58,8.31,3.73,12.33,5.8
				c10.52,5.42,20.46,10.53,30.76,7.15c4.63-1.52,8.88-4.76,13-7.89l0.68-0.51c14.69-11.15,30.62-21.22,47.54-19.45
				c7.2,0.76,14.11,3.69,20.78,6.54c4.64,1.97,9.43,4.01,14.26,5.29c13.32,3.52,27.46,1.35,39.8-6.11
				c4.56-2.76,9.01-5.41,13.25-7.46c3.22-1.56,5.67-2.53,7.45-3.24c2-0.79,3.33-1.32,3.51-1.83c0.19-0.52-0.53-1.84-1.63-3.84
				c-1.09-2-2.59-4.74-4.4-8.79c-1.21-2.72-6.1-5.77-10.42-8.46c-16.68-10.41-31.63-23.69-44.44-39.46l-1.3-1.6
				c-10.34-12.74-21.98-23.78-34.58-32.82c-11.02-7.9-11.02-7.9-11.03-7.91c-19.89-14.27-36.11-33.79-51.79-52.67
				c-4.66-5.61-9.49-11.42-14.29-16.94c-6.42-7.38-12.42-11.16-18.35-11.55c-8.99-0.58-17.04,6.5-26.34,14.72
				c-3.28,2.89-6.67,5.89-10.29,8.7c-7.96,6.18-15.68,16.92-23.14,27.31c-6.68,9.29-13.58,18.9-20.57,25.05
				c-22.23,19.57-44.82,32.29-68.73,45.76c-14.03,7.9-28.53,16.07-42.96,25.76c-3.83,3.5-11.35,10.56-12.65,12.54
				c-1.85,2.83-2.39,4.96-1.59,6.35c1.87,3.25,10.87,2.79,17.44,2.45c3.07-0.16,5.72-0.29,7.52-0.1
				c16.4,1.73,34.84,5.51,47.23,20.38c1.25,1.49,2.43,3.11,3.58,4.66c2.06,2.79,4.18,5.68,6.66,7.89c3.99,3.55,9.2,5.67,16.4,6.68
				c13.76,1.94,28.04-0.5,41.84-2.85C152.77,205.08,163.2,203.3,173.52,203.3z"/>
		</g>
		<g id="Scale_00000025441310978391538260000005307280576900829570_">
			<g>
				<path class="st38" d="M235.16,190.23c-6.18,1.39-12.91,0.62-18.91-1.62c-2.71-1.01-5.59-2.65-6.14-5.21
					c-0.39-1.84,0.59-3.71,2.08-4.98c1.49-1.27,3.42-2.03,5.35-2.71c11.13-3.94,23.24-5.79,35.36-5.42
					c0.37,0.01,0.76,0.03,1.06,0.23c0.63,0.41,0.47,1.26,0.22,1.9C251.03,180.4,244.75,188.07,235.16,190.23z"/>
				<path class="st7" d="M228.72,191.43c-4.15,0-8.48-0.79-12.64-2.34c-3.79-1.41-5.96-3.29-6.45-5.58
					c-0.4-1.86,0.46-3.95,2.25-5.47c1.59-1.35,3.67-2.16,5.5-2.8c11.13-3.94,23.43-5.82,35.54-5.45c0.35,0.01,0.88,0.03,1.31,0.31
					c0.42,0.27,1.02,0.96,0.42,2.5c-3.77,9.6-10.83,16.2-19.37,18.13l0,0C233.18,191.19,230.97,191.43,228.72,191.43z
					 M249.92,170.74c-11.03,0-22.1,1.87-32.21,5.44c-1.75,0.62-3.73,1.38-5.19,2.62c-1.5,1.28-2.24,3-1.92,4.5
					c0.51,2.41,3.45,3.96,5.82,4.85c6.25,2.33,12.86,2.9,18.63,1.6l0,0c8.21-1.85,15.01-8.24,18.66-17.52
					c0.15-0.38,0.34-1.06-0.03-1.3c-0.18-0.12-0.48-0.14-0.8-0.15C251.89,170.75,250.91,170.74,249.92,170.74z M235.16,190.23
					L235.16,190.23L235.16,190.23z"/>
			</g>
			<g>
				<path class="st38" d="M273.28,162.68c-5.08-3.36-8.54-8.92-8.1-14.45c0.08-1.06,0.31-2.13,0.88-3.06
					c0.66-1.08,1.74-1.88,2.7-2.76c1.86-1.71,3.32-3.76,4.27-6c0.77-1.81,1.26-3.81,2.76-5.19c4.64-4.27,18.6-2.68,23.65,0.67
					c4.97,3.3,8.96,10.2,8.35,15.62C306.16,162.1,287.74,172.24,273.28,162.68z"/>
				<path class="st7" d="M285.51,166.94c-4.35,0-8.65-1.29-12.5-3.83l0,0c-5.49-3.63-8.75-9.48-8.32-14.9
					c0.11-1.33,0.42-2.41,0.96-3.28c0.56-0.9,1.37-1.62,2.15-2.31c0.21-0.19,0.42-0.37,0.63-0.56c1.8-1.65,3.23-3.67,4.15-5.83
					c0.17-0.39,0.32-0.8,0.48-1.2c0.57-1.48,1.15-3.01,2.41-4.16c4.86-4.47,19.08-2.83,24.27,0.62c5.33,3.54,9.17,10.76,8.57,16.09
					c-0.81,7.21-5.76,13.77-12.92,17.12C292.17,166.19,288.82,166.94,285.51,166.94z M285.42,129.13c-3.83,0-7.39,0.71-9.28,2.46
					c-1.08,1-1.6,2.35-2.15,3.79c-0.16,0.42-0.32,0.83-0.49,1.24c-0.98,2.29-2.5,4.42-4.39,6.17c-0.21,0.2-0.43,0.39-0.65,0.58
					c-0.76,0.67-1.48,1.3-1.96,2.08c-0.45,0.73-0.72,1.66-0.81,2.84c-0.4,5.07,2.69,10.56,7.88,13.99l0,0
					c6.49,4.29,14.29,4.84,21.4,1.52c6.84-3.2,11.58-9.46,12.35-16.32c0.56-5-3.09-11.79-8.13-15.15
					C296.38,130.46,290.64,129.13,285.42,129.13z"/>
			</g>
			<g>
				<path class="st38" d="M329.16,171.57c1.51,0.52,3.14,0.84,4.72,0.65c2.61-0.31,4.71-1.93,6.53-3.58
					c1.7-1.54,3.41-3.44,3.17-5.64c-0.61-5.68-14.52-11.12-19.79-8.29C315.68,159.06,322.48,169.28,329.16,171.57z"/>
				<path class="st7" d="M332.95,172.78c-1.21,0-2.54-0.25-3.96-0.73l0,0c-4.73-1.63-9.03-6.71-9.38-11.1
					c-0.16-2,0.39-4.78,3.94-6.68c3.44-1.85,9.79-0.4,14.3,1.97c3.71,1.95,5.97,4.4,6.22,6.71c0.27,2.46-1.64,4.53-3.33,6.07
					c-1.82,1.65-4.05,3.38-6.81,3.71C333.62,172.76,333.29,172.78,332.95,172.78z M327.56,154.44c-1.41,0-2.64,0.23-3.53,0.71
					c-2.43,1.3-3.61,3.28-3.41,5.72c0.32,3.97,4.39,8.75,8.71,10.23l0,0c1.67,0.57,3.18,0.79,4.49,0.63
					c2.47-0.29,4.47-1.83,6.25-3.45c1.52-1.37,3.23-3.21,3.01-5.22c-0.21-1.94-2.34-4.16-5.69-5.93
					C334.1,155.4,330.44,154.44,327.56,154.44z"/>
			</g>
			<g>
				<path class="st38" d="M180.71,34.62c-0.47,0.45-0.93,0.98-0.92,1.6c0.02,0.7,0.64,1.27,1.27,1.7c2.87,1.97,6.74,2.43,10.23,1.87
					c3.49-0.56,6.67-2.04,9.68-3.65c0.92-0.49,1.87-1.03,2.37-1.88c0.76-1.29,0.28-2.89-0.12-4.34c-0.44-1.61-0.76-3.26-1.53-4.78
					c-2.19-4.32-6.67-4.56-9.71-1.5C188.3,27.35,184.53,30.94,180.71,34.62z"/>
				<path class="st7" d="M188.52,40.52c-2.94,0-5.66-0.75-7.75-2.18c-0.98-0.67-1.46-1.36-1.48-2.1c-0.02-0.81,0.53-1.45,1.07-1.98
					l2.03-1.95c3.2-3.07,6.22-5.97,9.24-9.02c1.66-1.68,3.77-2.45,5.79-2.14c1.98,0.31,3.65,1.65,4.72,3.76
					c0.63,1.24,0.96,2.56,1.29,3.84c0.09,0.35,0.18,0.69,0.27,1.04l0.05,0.17c0.4,1.47,0.86,3.13,0.02,4.56
					c-0.55,0.94-1.53,1.52-2.57,2.07c-2.96,1.58-6.19,3.12-9.84,3.7C190.4,40.44,189.45,40.52,188.52,40.52z M196.53,22.08
					c-1.47,0-2.96,0.67-4.19,1.91c-3.03,3.05-6.2,6.09-9.26,9.03l-2.03,1.95l0,0c-0.38,0.37-0.78,0.8-0.76,1.23
					c0.01,0.4,0.36,0.84,1.05,1.31c2.54,1.74,6.13,2.39,9.87,1.79c3.5-0.56,6.65-2.06,9.52-3.6c0.91-0.48,1.75-0.98,2.18-1.7
					c0.62-1.06,0.25-2.44-0.12-3.78l-0.05-0.17c-0.1-0.35-0.19-0.7-0.27-1.05c-0.33-1.28-0.64-2.49-1.22-3.64
					c-0.92-1.82-2.33-2.96-3.99-3.22C197.02,22.1,196.77,22.08,196.53,22.08z M180.71,34.62L180.71,34.62L180.71,34.62z"/>
			</g>
			<g>
				<path class="st38" d="M166.58,58.75c1.05,1.33,2.94,1.96,4.73,1.99c1.79,0.04,3.52-0.44,5.21-0.91
					c1.75-0.48,3.71-1.13,4.38-2.65c1.96-4.43-1.68-10.28-7.27-9.1C169.45,48.97,163.39,54.71,166.58,58.75z"/>
				<path class="st7" d="M171.5,61.24c-0.07,0-0.13,0-0.2,0c-2.16-0.04-4.07-0.86-5.12-2.18l0,0c-1.05-1.33-1.28-2.95-0.65-4.68
					c1.19-3.29,5.1-6.17,8-6.78c2.63-0.56,5.08,0.3,6.74,2.34c1.72,2.12,2.15,5.05,1.09,7.45c-0.76,1.71-2.83,2.41-4.71,2.93
					C175.01,60.77,173.31,61.24,171.5,61.24z M166.97,58.44c0.86,1.09,2.49,1.76,4.35,1.8c1.72,0.03,3.43-0.44,5.07-0.89
					c1.66-0.46,3.48-1.06,4.06-2.37c0.91-2.07,0.54-4.58-0.95-6.42c-1.41-1.74-3.51-2.47-5.76-1.99c-2.59,0.55-6.21,3.2-7.27,6.14
					C165.96,56.12,166.13,57.37,166.97,58.44L166.97,58.44z"/>
			</g>
			<g>
				<path class="st38" d="M71.82,127.23c-2.18,0.65-4.75,1.56-5.1,3.62c-0.4,2.37,2.5,4.15,5.07,4.87
					c8.51,2.36,17.6,0.48,25.81-2.22c8.18-2.7,22.07-13.01,8.3-17.83C95.51,112.02,80.92,124.53,71.82,127.23z"/>
				<path class="st7" d="M80.07,137.29c-2.79,0-5.63-0.31-8.41-1.09c-3.02-0.84-5.87-2.84-5.43-5.43c0.43-2.53,3.7-3.5,5.45-4.02
					l0,0c2.95-0.88,6.54-2.83,10.34-4.9c7.91-4.3,16.88-9.17,24.05-6.66c4.11,1.44,6.18,3.49,6.16,6.09
					c-0.05,5.12-8.59,10.75-14.47,12.69C93.04,135.52,86.69,137.29,80.07,137.29z M101.82,115.5c-6.03,0-13.02,3.8-19.32,7.23
					c-3.85,2.09-7.49,4.07-10.54,4.98l0,0c-2.3,0.68-4.47,1.54-4.75,3.23c-0.33,1.96,2.21,3.61,4.71,4.3
					c9.13,2.54,18.94-0.05,25.52-2.22c5.73-1.89,13.74-7.27,13.79-11.75c0.02-2.12-1.83-3.85-5.49-5.13
					C104.5,115.7,103.18,115.5,101.82,115.5z M71.82,127.23L71.82,127.23L71.82,127.23z"/>
			</g>
			<g>
				<path class="st38" d="M208.69,54.82c1.37,3.55,0.67,7.74-2.21,10.34c-0.69,0.62-1.5,1.15-2.44,1.39
					c-1.14,0.29-2.38,0.14-3.57-0.02c-3.37-0.45-7.14-1.15-9.07-3.69c-2.36-3.11-0.72-7.21-1.23-10.89
					c-0.23-1.65-0.87-3.5,0.17-4.84c0.68-0.88,1.9-1.27,3.08-1.5C199.8,44.4,206.7,49.65,208.69,54.82z"/>
				<path class="st7" d="M202.59,67.22c-0.77,0-1.53-0.1-2.19-0.19c-3.48-0.46-7.36-1.19-9.4-3.88c-1.65-2.17-1.48-4.76-1.32-7.26
					c0.08-1.29,0.17-2.63-0.01-3.87c-0.04-0.31-0.1-0.62-0.16-0.94c-0.26-1.41-0.55-3.01,0.42-4.27c0.84-1.09,2.33-1.48,3.38-1.68
					c6.5-1.23,13.72,4.02,15.84,9.52l0,0c1.5,3.9,0.56,8.27-2.34,10.89c-0.85,0.76-1.74,1.27-2.65,1.5
					C203.65,67.17,203.11,67.22,202.59,67.22z M195.3,45.94c-0.6,0-1.21,0.05-1.8,0.17c-1.41,0.27-2.29,0.68-2.77,1.31
					c-0.7,0.91-0.47,2.16-0.23,3.48c0.06,0.33,0.12,0.66,0.17,0.98c0.19,1.34,0.1,2.73,0.01,4.07c-0.15,2.43-0.3,4.72,1.12,6.59
					c1.81,2.39,5.46,3.06,8.74,3.5c1.08,0.14,2.3,0.31,3.38,0.03c0.75-0.19,1.5-0.62,2.23-1.28c2.6-2.34,3.44-6.28,2.08-9.79l0,0
					C206.44,50.37,200.8,45.94,195.3,45.94z"/>
			</g>
			<g>
				<path class="st38" d="M113.66,167.15c-5.12,3.79-12.78,3.23-19.19,1.23s-12.41-5.25-19.04-6.39
					c-12.21-2.1-25.93,2.97-36.45-3.19c-0.94-0.55-1.84-1.2-2.47-2.03c-2.23-2.96-0.09-7.19,3.32-8.82
					c3.41-1.64,7.53-1.43,11.44-1.25c18.55,0.88,36.6-0.33,55.02-1.29c6.47-0.34,9.42-1.1,12.16,4.63
					C120.95,155.29,118.26,163.75,113.66,167.15z"/>
				<path class="st7" d="M103.99,170.43c-3.96,0-7.64-0.94-9.67-1.58c-2.41-0.75-4.79-1.69-7.09-2.6
					c-3.83-1.51-7.78-3.07-11.89-3.78c-4.71-0.81-9.74-0.53-14.6-0.27c-7.61,0.42-15.48,0.85-22.02-2.98
					c-1.21-0.71-2.04-1.39-2.62-2.16c-0.95-1.26-1.24-2.79-0.85-4.41c0.52-2.15,2.19-4.13,4.34-5.17c3.51-1.68,7.64-1.49,11.64-1.3
					c16.46,0.78,32.14-0.06,48.75-0.95c2.09-0.11,4.18-0.22,6.27-0.33c0.58-0.03,1.14-0.06,1.67-0.1c5.37-0.33,8.33-0.51,10.96,5.01
					c2.51,5.25,0.07,14.04-4.93,17.73l-0.3-0.4l0.3,0.4C111,169.73,107.39,170.43,103.99,170.43z M68.13,160.94
					c2.49,0,4.97,0.14,7.38,0.55c4.21,0.72,8.22,2.3,12.09,3.83c2.28,0.9,4.65,1.83,7.02,2.58c3.63,1.14,12.73,3.3,18.74-1.15l0,0
					c4.58-3.39,6.91-11.71,4.62-16.5c-2.35-4.91-4.75-4.77-10-4.44c-0.53,0.03-1.09,0.07-1.68,0.1c-2.09,0.11-4.18,0.22-6.27,0.33
					c-16.63,0.89-32.34,1.74-48.8,0.96c-3.92-0.19-7.92-0.38-11.2,1.2c-1.87,0.9-3.36,2.66-3.81,4.5c-0.22,0.92-0.29,2.29,0.67,3.57
					c0.5,0.66,1.24,1.26,2.32,1.9c6.28,3.68,13.66,3.27,21.46,2.85C63.14,161.08,65.64,160.94,68.13,160.94z"/>
			</g>
			<g>
				<path class="st38" d="M237.72,159.86c-1.91-0.35-4.06-0.84-5.06-2.34c-4.86-7.27,5.41-17.24,13.28-10.66
					c2.72,2.28,4.92,6.56,4.49,9.89C249.59,163.29,243.2,160.86,237.72,159.86z"/>
				<path class="st7" d="M245.47,161.63c-1.72,0-3.66-0.41-5.56-0.82c-0.77-0.16-1.54-0.33-2.29-0.46l0,0
					c-2.03-0.37-4.28-0.9-5.39-2.56c-2.71-4.05-0.94-8.59,1.86-11.1c2.98-2.68,7.9-3.78,12.16-0.22c2.62,2.2,5.15,6.56,4.67,10.33
					c-0.23,1.84-0.89,3.12-2.01,3.91C247.97,161.39,246.79,161.63,245.47,161.63z M237.8,159.37c0.76,0.14,1.54,0.3,2.32,0.47
					c3.14,0.67,6.39,1.36,8.21,0.07c0.88-0.62,1.4-1.67,1.59-3.22c0.42-3.29-1.87-7.39-4.32-9.44c-4.06-3.4-8.38-2.02-10.85,0.2
					c-2.48,2.23-4.07,6.24-1.69,9.8C233.96,158.58,235.98,159.04,237.8,159.37L237.8,159.37z"/>
			</g>
			<g>
				<path class="st38" d="M329.08,133.97c0.58,2.53,0.35,5.13,0.12,7.68c-0.07,0.77-0.32,1.73-1.17,1.85
					c-0.36,0.05-0.73-0.08-1.07-0.21c-4.56-1.81-8.1-5.64-9.21-9.96c-0.63-2.43-0.59-5.14-2.33-7.13c-0.91-1.05-2.22-1.77-3.52-2.4
					c-2.98-1.45-6.14-2.62-8.96-4.32c-2.71-1.63-5.45-4-6.02-6.9C308.26,107.53,327.1,125.33,329.08,133.97z"/>
				<path class="st7" d="M327.85,144.01c-0.4,0-0.76-0.13-1.08-0.26c-4.71-1.88-8.36-5.82-9.51-10.3c-0.18-0.68-0.3-1.39-0.42-2.07
					c-0.32-1.81-0.63-3.51-1.8-4.86c-0.8-0.92-1.93-1.58-3.36-2.28c-1.03-0.5-2.08-0.97-3.14-1.44c-1.96-0.87-4-1.78-5.86-2.9
					c-2.5-1.51-5.62-3.98-6.25-7.23c-0.04-0.23,0.07-0.46,0.29-0.55c3.66-1.63,8.38-1.1,13.66,1.53
					c9.41,4.69,17.89,14.53,19.19,20.19l0,0c0.6,2.63,0.36,5.28,0.13,7.84c-0.16,1.73-0.96,2.21-1.6,2.3
					C328.01,144.01,327.93,144.01,327.85,144.01z M297.5,112.89c0.74,2.7,3.47,4.83,5.7,6.17c1.81,1.09,3.82,1.98,5.75,2.84
					c1.06,0.47,2.13,0.95,3.17,1.45c1.34,0.65,2.71,1.41,3.68,2.52c1.35,1.55,1.69,3.48,2.03,5.34c0.12,0.66,0.24,1.35,0.41,1.99
					c1.07,4.17,4.49,7.86,8.91,9.62c0.27,0.11,0.57,0.21,0.81,0.18c0.52-0.08,0.69-0.8,0.75-1.4c0.22-2.48,0.46-5.05-0.11-7.53
					c-1.22-5.33-9.64-15.02-18.66-19.52C306.54,112.87,301.68,111.24,297.5,112.89z"/>
			</g>
			<g>
				<path class="st38" d="M268.29,167.96c-2.6,0.14-3.33,5.75-3.16,7.5c0.1,0.99,0.36,2.01,0.02,2.94c-0.27,0.73-0.87,1.3-1.4,1.9
					c-1.22,1.38-3.13,3.87-2.67,5.79c1.54,6.4,10.92-0.3,11.91-3.37c0.86-2.68,0.89-6.02,0.12-8.77c-0.46-1.67-1.47-4.25-3.05-5.36
					C269.4,168.12,268.81,167.93,268.29,167.96z"/>
				<path class="st7" d="M264.19,189.27c-0.06,0-0.12,0-0.18,0c-1.23-0.05-2.83-0.61-3.42-3.05c-0.39-1.61,0.55-3.71,2.78-6.24
					l0.28-0.31c0.43-0.47,0.84-0.92,1.02-1.43c0.23-0.62,0.13-1.32,0.03-2.07c-0.03-0.22-0.06-0.43-0.08-0.65
					c-0.13-1.31,0.21-5.21,1.8-7.07c0.53-0.61,1.14-0.94,1.82-0.98l0,0c0.67-0.04,1.36,0.21,2.09,0.72
					c1.88,1.32,2.89,4.38,3.24,5.63c0.8,2.87,0.75,6.34-0.13,9.06C272.71,185.23,267.8,189.27,264.19,189.27z M268.32,168.46
					c-0.41,0.02-0.77,0.23-1.12,0.63c-1.27,1.48-1.7,4.95-1.57,6.32c0.02,0.2,0.05,0.41,0.07,0.61c0.11,0.83,0.23,1.7-0.08,2.54
					c-0.25,0.7-0.75,1.24-1.22,1.76l-0.27,0.3c-1.95,2.21-2.86,4.11-2.56,5.35c0.36,1.49,1.17,2.24,2.48,2.29c0.05,0,0.09,0,0.14,0
					c3.08,0,7.67-3.67,8.33-5.7c0.82-2.54,0.86-5.8,0.12-8.49c-0.25-0.9-1.19-3.91-2.85-5.08
					C269.24,168.62,268.73,168.45,268.32,168.46L268.32,168.46z"/>
			</g>
			<g>
				<path class="st38" d="M313.94,169.94c2.25,0.92,3.83,3.07,3.29,6.03c-0.69,3.8-4.44,4.45-8.4,3.55
					c-4.12-0.94-7.54-3.11-3.89-6.56C307.36,170.68,309.98,168.32,313.94,169.94z"/>
				<path class="st7" d="M311.8,180.38c-1.09,0-2.17-0.17-3.08-0.38c-1.89-0.43-5.15-1.48-5.74-3.63c-0.32-1.19,0.22-2.46,1.62-3.78
					c2.31-2.18,5.19-4.89,9.53-3.11l0,0c2.75,1.13,4.12,3.65,3.59,6.58c-0.27,1.47-0.97,2.59-2.1,3.33S313.14,180.38,311.8,180.38z
					 M311.41,169.91c-2.51,0-4.41,1.79-6.13,3.41c-1.11,1.05-1.56,1.99-1.34,2.79c0.32,1.19,2.19,2.28,4.99,2.92
					c2.59,0.59,4.77,0.42,6.13-0.47c0.88-0.58,1.44-1.48,1.66-2.68c0.53-2.91-1.19-4.74-2.98-5.47l0,0
					C312.92,170.06,312.14,169.91,311.41,169.91z"/>
			</g>
			<g>
				<path class="st38" d="M347.91,177.63c-0.68,2.65-0.75,5.61,0.93,7.9c1.68,2.29,5.57,3.45,8.02,1.81
					c1.3-0.87,1.94-2.29,2.52-3.63c0.9-2.08,1.8-4.16,2.7-6.24c0.8-1.85,1.62-3.72,2.95-5.31c0.94-1.12,2.13-2.09,2.85-3.33
					c4.09-7.02-7.19-10.6-13.05-7.8C349.43,163.62,349.16,172.77,347.91,177.63z"/>
				<path class="st7" d="M354.15,188.61c-2.22,0-4.53-1.15-5.72-2.78c-1.53-2.08-1.88-4.96-1.01-8.32c0.27-1.04,0.49-2.29,0.73-3.62
					c0.89-4.97,2-11.16,6.47-13.3c4.06-1.95,10.51-0.96,13.27,2.03c1.66,1.8,1.81,4.1,0.43,6.47c-0.5,0.86-1.2,1.58-1.87,2.28
					c-0.35,0.37-0.71,0.73-1.03,1.12c-1.3,1.55-2.1,3.4-2.88,5.19l-2.7,6.24c-0.55,1.28-1.24,2.86-2.7,3.84
					C356.25,188.34,355.21,188.61,354.15,188.61z M359.51,160.58c-1.61,0-3.18,0.29-4.46,0.9c-4,1.92-5.06,7.83-5.91,12.58
					c-0.24,1.35-0.47,2.62-0.75,3.69l0,0c-0.55,2.13-0.85,5.16,0.85,7.48c1.47,2.01,5.07,3.21,7.34,1.69
					c1.13-0.76,1.71-1.94,2.34-3.41l2.7-6.24c0.8-1.86,1.63-3.78,3.03-5.44c0.34-0.4,0.71-0.78,1.07-1.17
					c0.67-0.69,1.29-1.34,1.73-2.09c1.16-1.99,1.06-3.82-0.3-5.29C365.56,161.56,362.48,160.58,359.51,160.58z M347.91,177.63
					L347.91,177.63L347.91,177.63z"/>
			</g>
		</g>
		<g id="Line_00000038384783716351375840000012960899905841852839_">
			<g>
				<g>
					<path class="st7" d="M238.61,479.12c-0.01,0-0.02,0-0.03,0c-0.28-0.02-0.49-0.25-0.47-0.53c0.45-7.99-5.47-17.76-9.59-20.71
						c-0.57-0.41-1.17-0.81-1.77-1.2c-2.08-1.38-4.22-2.81-5.46-4.89c-2.05-3.46-0.97-7.5,0.31-11.33
						c3.8-11.37,6.8-20.87,7.99-31.07c1.38-11.92-0.19-22.5-4.67-31.46c-0.12-0.25-0.02-0.55,0.22-0.67
						c0.25-0.12,0.55-0.02,0.67,0.22c4.57,9.14,6.17,19.92,4.77,32.03c-1.29,11.12-5.03,22.29-8.03,31.27
						c-1.21,3.62-2.24,7.41-0.4,10.51c1.12,1.89,3.17,3.25,5.15,4.57c0.61,0.4,1.21,0.81,1.79,1.22c4.4,3.15,10.48,13.12,10,21.57
						C239.1,478.92,238.87,479.12,238.61,479.12z"/>
				</g>
				<g>
					<path class="st7" d="M235.44,433.54c-0.06,0-0.13-0.01-0.19-0.04c-0.26-0.1-0.38-0.39-0.28-0.65c1.25-3.09,1.98-6.41,2.69-9.62
						c1.67-7.58,3.39-15.4,1.95-23.23c-0.05-0.27,0.13-0.53,0.4-0.58c0.27-0.05,0.53,0.13,0.58,0.4c1.48,8.03-0.35,16.31-1.96,23.62
						c-0.72,3.26-1.46,6.62-2.74,9.79C235.82,433.42,235.63,433.54,235.44,433.54z"/>
				</g>
				<g>
					<path class="st7" d="M235.73,453.25c-0.14,0-0.28-0.06-0.38-0.18c-3.11-3.69-4.51-8.38-3.84-12.87
						c0.04-0.27,0.29-0.45,0.57-0.42c0.27,0.04,0.46,0.29,0.42,0.57c-0.62,4.21,0.7,8.61,3.62,12.08c0.18,0.21,0.15,0.53-0.06,0.71
						C235.96,453.21,235.84,453.25,235.73,453.25z"/>
				</g>
				<g>
					<path class="st7" d="M220.58,477.43c-0.27,0-0.49-0.21-0.5-0.48c-0.18-5.14-2.34-11.72-4.62-18.68
						c-2.54-7.76-5.17-15.79-4.86-21.8c0.21-4.03,1.56-7.87,2.87-11.58c0.09-0.26,0.38-0.4,0.64-0.3c0.26,0.09,0.4,0.38,0.3,0.64
						c-1.29,3.64-2.62,7.41-2.82,11.29c-0.3,5.82,2.3,13.76,4.82,21.43c2.3,7.03,4.48,13.67,4.67,18.96
						c0.01,0.28-0.21,0.51-0.48,0.52C220.59,477.43,220.58,477.43,220.58,477.43z"/>
				</g>
				<g>
					<path class="st7" d="M211.23,476.73c-0.21,0-0.41-0.13-0.47-0.34c-0.7-2.11-0.93-4.49-1.18-7.01
						c-0.67-6.76-1.43-14.43-11.05-21.77c-0.22-0.17-0.26-0.48-0.09-0.7c0.17-0.22,0.48-0.26,0.7-0.09
						c9.97,7.6,10.78,15.84,11.44,22.46c0.24,2.46,0.47,4.78,1.14,6.79c0.09,0.26-0.06,0.54-0.32,0.63
						C211.33,476.73,211.28,476.73,211.23,476.73z"/>
				</g>
				<g>
					<path class="st7" d="M198.45,437.97c-0.02,0-0.04,0-0.06,0c-0.27-0.03-0.47-0.28-0.43-0.56l1.79-14.22
						c0.03-0.28,0.28-0.48,0.56-0.43c0.27,0.03,0.47,0.28,0.43,0.56l-1.79,14.22C198.92,437.78,198.7,437.97,198.45,437.97z"/>
				</g>
				<g>
					<path class="st7" d="M196.92,473.74c-0.18,0-0.35-0.1-0.44-0.26c-4.78-8.88-9.02-21.84-10.31-31.53
						c-0.04-0.27,0.16-0.53,0.43-0.56c0.27-0.04,0.53,0.16,0.56,0.43c1.27,9.58,5.47,22.41,10.19,31.19
						c0.13,0.24,0.04,0.55-0.2,0.68C197.09,473.72,197,473.74,196.92,473.74z"/>
				</g>
				<g>
					<path class="st7" d="M181.62,472.6c-0.25,0-0.47-0.19-0.5-0.45l-2.99-27.19c-0.03-0.27,0.17-0.52,0.44-0.55
						c0.26-0.04,0.52,0.17,0.55,0.44l2.99,27.19c0.03,0.27-0.17,0.52-0.44,0.55C181.66,472.6,181.64,472.6,181.62,472.6z"/>
				</g>
				<g>
					<path class="st7" d="M168.61,454.74c-0.01,0-0.03,0-0.04,0c-0.28-0.02-0.48-0.26-0.46-0.54c0.71-8.63,1.1-17.41,1.18-26.09
						c0-0.28,0.23-0.5,0.5-0.5c0,0,0,0,0,0c0.28,0,0.5,0.23,0.5,0.5c-0.08,8.7-0.47,17.51-1.18,26.16
						C169.08,454.54,168.86,454.74,168.61,454.74z"/>
				</g>
				<g>
					<path class="st7" d="M157.91,472.77c-0.23,0-0.43-0.16-0.49-0.39c-1.35-5.82-1.01-13.08-0.69-20.11
						c0.3-6.49,0.61-13.2-0.44-18.55c-0.05-0.27,0.12-0.53,0.39-0.59c0.26-0.05,0.53,0.12,0.59,0.39
						c1.08,5.47,0.77,12.24,0.46,18.79c-0.32,6.96-0.65,14.15,0.67,19.84c0.06,0.27-0.11,0.54-0.37,0.6
						C157.98,472.77,157.94,472.77,157.91,472.77z"/>
				</g>
				<g>
					<path class="st7" d="M171.37,473.73c-0.24,0-0.45-0.17-0.49-0.41c-0.2-1.12-0.98-3.44-1.74-5.68c-0.8-2.38-1.56-4.63-1.77-5.82
						c-0.05-0.27,0.13-0.53,0.4-0.58c0.26-0.04,0.53,0.13,0.58,0.4c0.2,1.12,0.98,3.44,1.74,5.68c0.8,2.38,1.56,4.64,1.77,5.83
						c0.05,0.27-0.13,0.53-0.4,0.58C171.43,473.73,171.4,473.73,171.37,473.73z"/>
				</g>
				<g>
					<path class="st7" d="M140.38,471.43c-0.07,0-0.13-0.01-0.2-0.04c-0.25-0.11-0.37-0.41-0.26-0.66
						c4.22-9.65,8.31-27.4,7.67-38.45c-0.02-0.28,0.19-0.51,0.47-0.53c0.26-0.03,0.51,0.19,0.53,0.47
						c0.65,11.2-3.48,29.16-7.75,38.91C140.76,471.32,140.58,471.43,140.38,471.43z"/>
				</g>
				<g>
					<path class="st7" d="M133.78,449.58c-0.07,0-0.14-0.01-0.21-0.05c-0.25-0.12-0.36-0.41-0.24-0.66
						c2.27-4.9,4.62-9.97,5.23-15.36c0.18-1.6,0.21-3.25,0.24-4.85c0.01-0.91,0.03-1.83,0.07-2.74c0.34-7.42,2.39-14.45,4.83-22.22
						c0.08-0.26,0.37-0.41,0.63-0.33c0.26,0.08,0.41,0.36,0.33,0.63c-2.42,7.7-4.44,14.67-4.78,21.97c-0.04,0.9-0.06,1.81-0.07,2.71
						c-0.03,1.62-0.05,3.3-0.24,4.95c-0.63,5.55-3.01,10.69-5.31,15.67C134.15,449.48,133.97,449.58,133.78,449.58z"/>
				</g>
				<g>
					<path class="st7" d="M127.24,468.57c-0.24,0-0.45-0.17-0.49-0.41c-0.58-3.15,1.67-12.81,3.59-15.43
						c0.17-0.22,0.48-0.27,0.7-0.11c0.22,0.16,0.27,0.48,0.11,0.7c-1.78,2.42-3.95,11.74-3.41,14.65c0.05,0.27-0.13,0.53-0.4,0.58
						C127.31,468.56,127.27,468.57,127.24,468.57z"/>
				</g>
				<g>
					<path class="st7" d="M202.27,466.52c-0.18,0-0.36-0.1-0.45-0.27c-1.85-3.65-3.39-7.45-4.57-11.31
						c-0.08-0.26,0.07-0.54,0.33-0.62c0.26-0.08,0.54,0.07,0.62,0.33c1.17,3.8,2.69,7.55,4.51,11.15c0.12,0.25,0.03,0.55-0.22,0.67
						C202.43,466.5,202.35,466.52,202.27,466.52z"/>
				</g>
				<g>
					<path class="st7" d="M159.87,418.78c-0.23,0-0.44-0.17-0.49-0.41l-2.14-11.07c-0.05-0.27,0.12-0.53,0.4-0.59
						c0.26-0.04,0.53,0.12,0.59,0.4l2.14,11.07c0.05,0.27-0.12,0.53-0.4,0.59C159.94,418.78,159.91,418.78,159.87,418.78z"/>
				</g>
				<g>
					<path class="st7" d="M156.65,400.38c-0.27,0-0.5-0.22-0.5-0.5c-0.06-6.39,4.29-12.12,8.49-17.66
						c3.46-4.56,7.04-9.27,8.04-14.24c0.05-0.27,0.32-0.45,0.59-0.39c0.27,0.05,0.45,0.32,0.39,0.59c-1.04,5.19-4.69,10-8.22,14.65
						c-4.11,5.41-8.35,11-8.29,17.04C157.15,400.15,156.93,400.38,156.65,400.38C156.65,400.38,156.65,400.38,156.65,400.38z"/>
				</g>
				<g>
					<path class="st7" d="M161.3,375.61C161.3,375.61,161.3,375.61,161.3,375.61c-0.28,0-0.5-0.23-0.5-0.5l0.14-15.8
						c0-0.27,0.23-0.5,0.5-0.5c0,0,0,0,0,0c0.28,0,0.5,0.23,0.5,0.5l-0.14,15.8C161.8,375.39,161.58,375.61,161.3,375.61z"/>
				</g>
			</g>
			<g>
				<g>
					<path class="st7" d="M225.97,321.68c-0.04,0-0.07,0-0.11-0.01c-0.27-0.06-0.44-0.32-0.38-0.59c1.36-6.37,2.1-13.12,2.25-20.62
						c0.01-0.28,0.26-0.46,0.51-0.49c0.28,0.01,0.5,0.23,0.49,0.51c-0.16,7.57-0.9,14.38-2.27,20.81
						C226.41,321.52,226.2,321.68,225.97,321.68z"/>
				</g>
				<g>
					<path class="st7" d="M228.24,294.87c-0.27,0-0.49-0.22-0.5-0.49c-0.21-10.41-1.38-20.99-2.51-31.22
						c-0.2-1.78-0.39-3.55-0.59-5.33c-0.03-0.27,0.17-0.52,0.44-0.55c0.28-0.03,0.52,0.17,0.55,0.44c0.19,1.77,0.39,3.55,0.59,5.32
						c1.14,10.25,2.31,20.85,2.52,31.31C228.74,294.64,228.52,294.86,228.24,294.87C228.24,294.87,228.24,294.87,228.24,294.87z"/>
				</g>
				<g>
					<path class="st7" d="M224.44,251.54c-0.25,0-0.47-0.19-0.5-0.45c-0.77-7.87-1.59-18.24-1.15-28.64
						c0.01-0.27,0.23-0.48,0.5-0.48c0.01,0,0.01,0,0.02,0c0.28,0.01,0.49,0.25,0.48,0.52c-0.44,10.34,0.38,20.66,1.15,28.5
						c0.03,0.28-0.17,0.52-0.45,0.55C224.47,251.54,224.45,251.54,224.44,251.54z"/>
				</g>
				<g>
					<path class="st7" d="M211.63,263.12c-0.03,0-0.05,0-0.08-0.01c-0.27-0.04-0.46-0.29-0.42-0.57c2.22-14.79,3.67-29.88,4.3-44.85
						c0.01-0.27,0.23-0.48,0.5-0.48c0.01,0,0.01,0,0.02,0c0.28,0.01,0.49,0.25,0.48,0.52c-0.64,15-2.09,30.13-4.32,44.96
						C212.09,262.95,211.88,263.12,211.63,263.12z"/>
				</g>
				<g>
					<path class="st7" d="M201.61,254.46c-0.04,0-0.08,0-0.12-0.01c-0.27-0.07-0.43-0.34-0.37-0.6c3.22-13.09,4.96-26.56,5.15-40.04
						c0-0.28,0.21-0.45,0.51-0.49c0.28,0,0.5,0.23,0.49,0.51c-0.2,13.56-1.94,27.1-5.18,40.26
						C202.03,254.3,201.83,254.46,201.61,254.46z"/>
				</g>
				<g>
					<path class="st7" d="M190.76,302.88c-0.01,0-0.01,0-0.02,0c-0.28-0.01-0.49-0.24-0.48-0.52c0.22-5.55,0.48-11.21,0.77-16.81
						c0.01-0.28,0.23-0.51,0.52-0.47c0.28,0.01,0.49,0.25,0.47,0.52c-0.29,5.6-0.54,11.25-0.77,16.8
						C191.25,302.67,191.03,302.88,190.76,302.88z"/>
				</g>
				<g>
					<path class="st7" d="M191.86,279.89c-0.01,0-0.02,0-0.03,0c-0.28-0.02-0.49-0.25-0.47-0.53c0.67-12.03,1.5-24.21,2.48-36.21
						c0.02-0.28,0.27-0.47,0.54-0.46c0.28,0.02,0.48,0.26,0.46,0.54c-0.97,11.99-1.8,24.17-2.47,36.19
						C192.34,279.69,192.12,279.89,191.86,279.89z"/>
				</g>
				<g>
					<path class="st7" d="M194.85,237.52c-0.01,0-0.03,0-0.04,0c-0.27-0.02-0.48-0.27-0.46-0.54c0.8-9.37,1.7-18.85,2.68-28.19
						c0.03-0.27,0.28-0.48,0.55-0.45c0.28,0.03,0.47,0.27,0.45,0.55c-0.98,9.34-1.88,18.82-2.68,28.18
						C195.32,237.32,195.11,237.52,194.85,237.52z"/>
				</g>
				<g>
					<path class="st7" d="M185.75,260.95c-0.26,0-0.48-0.2-0.5-0.47c-0.59-8.69,0.31-17.46,1.17-25.94c0.93-9.12,1.9-18.56,1-27.84
						c-0.03-0.27,0.17-0.52,0.45-0.55c0.26-0.01,0.52,0.17,0.55,0.45c0.91,9.39-0.06,18.87-1,28.04
						c-0.86,8.44-1.76,17.17-1.17,25.77c0.02,0.28-0.19,0.51-0.46,0.53C185.77,260.95,185.76,260.95,185.75,260.95z"/>
				</g>
				<g>
					<path class="st7" d="M176.66,249.41c-0.02,0-0.03,0-0.05,0c-0.28-0.03-0.48-0.27-0.45-0.55c1.42-14.65,2.35-29.55,2.76-44.28
						c0.01-0.28,0.25-0.5,0.51-0.49c0.28,0.01,0.49,0.24,0.49,0.51c-0.41,14.76-1.34,29.68-2.77,44.35
						C177.13,249.22,176.91,249.41,176.66,249.41z"/>
				</g>
				<g>
					<path class="st7" d="M168.04,267.81c-0.01,0-0.02,0-0.03,0c-0.28-0.02-0.48-0.25-0.47-0.53c1.28-20.64,2.01-41.6,2.17-62.3
						c0-0.27,0.23-0.5,0.5-0.5c0,0,0,0,0,0c0.28,0,0.5,0.23,0.5,0.5c-0.16,20.71-0.89,41.69-2.17,62.35
						C168.53,267.6,168.31,267.81,168.04,267.81z"/>
				</g>
				<g>
					<path class="st7" d="M153.12,287.11c-0.02,0-0.04,0-0.06,0c-0.27-0.04-0.47-0.29-0.43-0.56c0.25-2.01,0.42-3.88,0.57-5.69
						c0.38-4.35,0.73-8.46,2.25-14.35c0.07-0.27,0.34-0.43,0.61-0.36c0.27,0.07,0.43,0.34,0.36,0.61
						c-1.49,5.82-1.85,9.88-2.22,14.19c-0.16,1.82-0.32,3.7-0.58,5.73C153.58,286.92,153.37,287.11,153.12,287.11z"/>
				</g>
				<g>
					<path class="st7" d="M157.14,260.05c-0.27,0-0.49-0.21-0.5-0.48c-0.3-6.57,0.71-13.45,1.69-20.1c0.22-1.53,0.45-3.04,0.65-4.53
						c0.93-6.76,1.27-17.67,1.51-25.63l0.11-3.34c0.01-0.28,0.21-0.46,0.52-0.48c0.28,0.01,0.49,0.24,0.48,0.52l-0.11,3.33
						c-0.25,7.99-0.59,18.93-1.52,25.74c-0.2,1.49-0.43,3.01-0.65,4.54c-0.97,6.6-1.98,13.43-1.68,19.9
						c0.01,0.28-0.2,0.51-0.48,0.52C157.15,260.05,157.15,260.05,157.14,260.05z"/>
				</g>
				<g>
					<path class="st7" d="M210.69,360.47c-0.05,0-0.1-0.01-0.14-0.02c-0.26-0.08-0.41-0.36-0.33-0.62
						c3.31-10.96,4.22-22.25,2.73-33.59c-0.04-0.27,0.16-0.53,0.43-0.56c0.26-0.03,0.53,0.16,0.56,0.43
						c1.52,11.47,0.59,22.92-2.76,34.01C211.1,360.33,210.9,360.47,210.69,360.47z"/>
				</g>
				<g>
					<path class="st7" d="M212.83,315.66c-0.06,0-0.13-0.01-0.19-0.04c-0.26-0.11-0.38-0.4-0.27-0.65c0.98-2.4,1.56-4.87,1.72-7.36
						c0.02-0.27,0.22-0.49,0.53-0.47c0.28,0.02,0.49,0.25,0.47,0.53c-0.16,2.6-0.77,5.18-1.79,7.67
						C213.21,315.54,213.02,315.66,212.83,315.66z"/>
				</g>
			</g>
		</g>
	</g>
</g>
<g id="Guide">
</g>
</svg>
