<?xml version="1.0" encoding="utf-8"?>
<!-- Generator: Adobe Illustrator 26.1.0, SVG Export Plug-In . SVG Version: 6.00 Build 0)  -->
<svg version="1.1" xmlns="http://www.w3.org/2000/svg" xmlns:xlink="http://www.w3.org/1999/xlink" x="0px" y="0px"
	 viewBox="0 0 155.24 219.44" style="enable-background:new 0 0 155.24 219.44;" xml:space="preserve">
<style type="text/css">
	.st0{fill:#FFFFFF;stroke:#000000;stroke-miterlimit:10;}
	.st1{fill:#BFA071;stroke:#554B4E;stroke-width:1.5;stroke-linecap:round;stroke-linejoin:round;stroke-miterlimit:10;}
	.st2{fill:#BFA071;stroke:#554B4E;stroke-linecap:round;stroke-linejoin:round;stroke-miterlimit:10;}
	.st3{fill:#F8F4E9;stroke:#554B4E;stroke-width:1.5;stroke-linecap:round;stroke-linejoin:round;stroke-miterlimit:10;}
	.st4{fill:#F2DED6;stroke:#554B4E;stroke-width:1.5;stroke-linecap:round;stroke-linejoin:round;stroke-miterlimit:10;}
	.st5{fill:none;stroke:#554B4E;stroke-linecap:round;stroke-linejoin:round;stroke-miterlimit:10;}
	.st6{fill:#BFA071;}
	.st7{fill:#554B4E;}
	.st8{fill:#F8F4E9;}
	.st9{fill:none;stroke:#554B4E;stroke-width:1.5;stroke-linecap:round;stroke-linejoin:round;stroke-miterlimit:10;}
	.st10{fill:#F8F4E9;stroke:#554B4E;stroke-linecap:round;stroke-linejoin:round;stroke-miterlimit:10;}
	.st11{fill:#F2DED6;stroke:#554B4E;stroke-linecap:round;stroke-linejoin:round;stroke-miterlimit:10;}
	.st12{clip-path:url(#SVGID_00000164511854665765832120000001773711030503006132_);}
	.st13{fill:none;stroke:#BFA071;stroke-width:1.5;stroke-linecap:round;stroke-linejoin:round;}
	.st14{fill:none;stroke:#BFA071;stroke-width:1.5;stroke-linecap:round;stroke-linejoin:round;stroke-dasharray:68.8403,19.6687;}
	.st15{fill:none;stroke:#BFA071;stroke-width:1.5;stroke-linecap:round;stroke-linejoin:round;stroke-dasharray:71.4455,20.413;}
	.st16{fill:none;stroke:#BFA071;stroke-width:1.5;stroke-linecap:round;stroke-linejoin:round;stroke-dasharray:69.5884,19.8824;}
	.st17{fill:none;stroke:#BFA071;stroke-width:1.5;stroke-linecap:round;stroke-linejoin:round;stroke-dasharray:61.3524,17.5292;}
	.st18{fill:none;stroke:#BFA071;stroke-width:1.5;stroke-linecap:round;stroke-linejoin:round;stroke-dasharray:63.9932,18.2838;}
	.st19{fill:none;stroke:#BFA071;stroke-width:1.5;stroke-linecap:round;stroke-linejoin:round;stroke-dasharray:72.7778,20.7937;}
	.st20{fill:none;stroke:#BFA071;stroke-width:1.5;stroke-linecap:round;stroke-linejoin:round;stroke-dasharray:77.193,22.0551;}
	.st21{fill:none;stroke:#BFA071;stroke-width:1.5;stroke-linecap:round;stroke-linejoin:round;stroke-dasharray:75.3802,21.5372;}
	.st22{fill:none;stroke:#BFA071;stroke-width:1.5;stroke-linecap:round;stroke-linejoin:round;stroke-dasharray:73.6885,21.0538;}
	.st23{fill:none;stroke:#BFA071;stroke-width:1.5;stroke-linecap:round;stroke-linejoin:round;stroke-dasharray:63.3162,18.0903;}
	.st24{fill:none;stroke:#BFA071;stroke-width:1.5;stroke-linecap:round;stroke-linejoin:round;stroke-dasharray:62.0513,17.7289;}
	.st25{fill:none;stroke:#BFA071;stroke-width:1.5;stroke-linecap:round;stroke-linejoin:round;stroke-dasharray:68.9157,19.6902;}
	.st26{fill:none;stroke:#554B4E;stroke-width:1.5;stroke-linecap:round;stroke-linejoin:round;}
	.st27{fill:none;stroke:#554B4E;stroke-width:1.5;stroke-linecap:round;stroke-linejoin:round;stroke-dasharray:15.0532,10.0355;}
	.st28{fill:none;stroke:#554B4E;stroke-width:1.5;stroke-linecap:round;stroke-linejoin:round;stroke-dasharray:14.9985,9.999;}
	.st29{fill:none;stroke:#554B4E;stroke-width:1.5;stroke-linecap:round;stroke-linejoin:round;stroke-dasharray:14.8977,9.9318;}
	.st30{fill:none;stroke:#554B4E;stroke-width:1.5;stroke-linecap:round;stroke-linejoin:round;stroke-dasharray:15.4213,10.2808;}
	.st31{fill:none;stroke:#554B4E;stroke-width:1.5;stroke-linecap:round;stroke-linejoin:round;stroke-dasharray:15.2271,10.1514;}
	.st32{fill:none;stroke:#554B4E;stroke-width:1.5;stroke-linecap:round;stroke-linejoin:round;stroke-dasharray:15.021,10.014;}
	.st33{fill:none;stroke:#554B4E;stroke-width:1.5;stroke-linecap:round;stroke-linejoin:round;stroke-dasharray:15.0727,10.0485;}
	.st34{fill:none;stroke:#554B4E;stroke-width:1.5;stroke-linecap:round;stroke-linejoin:round;stroke-dasharray:14.6942,9.7961;}
	.st35{fill:none;stroke:#554B4E;stroke-width:1.5;stroke-linecap:round;stroke-linejoin:round;stroke-dasharray:14.7469,9.8312;}
	.st36{fill:none;stroke:#554B4E;stroke-width:1.5;stroke-linecap:round;stroke-linejoin:round;stroke-dasharray:15.0819,10.0546;}
	.st37{fill:none;stroke:#554B4E;stroke-width:1.5;stroke-linecap:round;stroke-linejoin:round;stroke-dasharray:15.003,10.002;}
	.st38{fill:#F2DED6;}
	.st39{fill:#F2DED6;stroke:#554B4E;stroke-width:1.5;stroke-linecap:round;stroke-miterlimit:10;}
	.st40{fill:none;stroke:#554B4E;stroke-width:1.5;stroke-linecap:round;stroke-miterlimit:10;}
	.st41{fill:none;stroke:#554B4E;stroke-linecap:round;stroke-miterlimit:10;}
	.st42{fill:none;stroke:#BFA071;stroke-linecap:round;stroke-linejoin:round;}
	.st43{fill:none;stroke:#BFA071;stroke-linecap:round;stroke-linejoin:round;stroke-dasharray:14.9905,14.9905;}
	.st44{fill:none;stroke:#BFA071;stroke-linecap:round;stroke-linejoin:round;stroke-dasharray:51.384,34.256;}
	.st45{fill:none;stroke:#554B4E;stroke-miterlimit:10;}
	.st46{clip-path:url(#SVGID_00000103260472632693782560000014701890489742813604_);}
	.st47{fill:none;stroke:#554B4E;stroke-width:1.5;stroke-linecap:round;stroke-linejoin:round;stroke-dasharray:68.8403,19.6687;}
	.st48{fill:none;stroke:#554B4E;stroke-width:1.5;stroke-linecap:round;stroke-linejoin:round;stroke-dasharray:71.4455,20.413;}
	.st49{fill:none;stroke:#554B4E;stroke-width:1.5;stroke-linecap:round;stroke-linejoin:round;stroke-dasharray:69.5884,19.8824;}
	.st50{fill:none;stroke:#554B4E;stroke-width:1.5;stroke-linecap:round;stroke-linejoin:round;stroke-dasharray:61.3524,17.5292;}
	.st51{fill:none;stroke:#554B4E;stroke-width:1.5;stroke-linecap:round;stroke-linejoin:round;stroke-dasharray:63.9932,18.2838;}
	.st52{fill:none;stroke:#554B4E;stroke-width:1.5;stroke-linecap:round;stroke-linejoin:round;stroke-dasharray:72.7778,20.7937;}
	.st53{fill:none;stroke:#554B4E;stroke-width:1.5;stroke-linecap:round;stroke-linejoin:round;stroke-dasharray:77.193,22.0551;}
	.st54{fill:none;stroke:#554B4E;stroke-width:1.5;stroke-linecap:round;stroke-linejoin:round;stroke-dasharray:75.3802,21.5372;}
	.st55{fill:none;stroke:#554B4E;stroke-width:1.5;stroke-linecap:round;stroke-linejoin:round;stroke-dasharray:73.6885,21.0538;}
	.st56{fill:none;stroke:#554B4E;stroke-width:1.5;stroke-linecap:round;stroke-linejoin:round;stroke-dasharray:63.3162,18.0903;}
	.st57{fill:none;stroke:#554B4E;stroke-width:1.5;stroke-linecap:round;stroke-linejoin:round;stroke-dasharray:62.0513,17.7289;}
	.st58{fill:none;stroke:#554B4E;stroke-width:1.5;stroke-linecap:round;stroke-linejoin:round;stroke-dasharray:68.9157,19.6902;}
	.st59{fill:none;stroke:#554B4E;stroke-linecap:round;stroke-linejoin:round;}
	.st60{fill:none;stroke:#554B4E;stroke-linecap:round;stroke-linejoin:round;stroke-dasharray:14.9905,14.9905;}
	.st61{fill:none;stroke:#554B4E;stroke-linecap:round;stroke-linejoin:round;stroke-dasharray:51.384,34.256;}
	.st62{fill:#95608F;}
	.st63{fill:#ED859E;}
	.st64{fill:#FAC87D;}
	.st65{opacity:0.1;}
	.st66{fill:#B5846F;}
	.st67{fill:#B5846F;stroke:#B5846F;stroke-width:5;stroke-linecap:round;stroke-linejoin:round;stroke-miterlimit:10;}
	.st68{fill:#EAD9EB;}
	.st69{fill:#FFFFFF;}
	.st70{fill:url(#SVGID_00000176729591971559099860000014974107461704870029_);}
	.st71{opacity:0.8;fill:#FFFFFF;}
	.st72{fill:url(#SVGID_00000103265821571007340020000007079635410525210504_);}
	.st73{fill:url(#SVGID_00000027578990737305651670000001875778616458049696_);}
	.st74{opacity:0.8;}
	.st75{opacity:0.6;}
	.st76{opacity:0.2;}
	.st77{fill:none;}
	.st78{fill:url(#SVGID_00000109728175935531791820000016256334325735093437_);}
	.st79{fill:url(#SVGID_00000006695798540770560400000005906093356931863477_);}
	.st80{clip-path:url(#SVGID_00000053528637877435200850000013965422587160708238_);fill:#FFFFFF;}
	.st81{clip-path:url(#SVGID_00000183933929558337730740000018378469673412705671_);fill:#FFFFFF;}
	.st82{clip-path:url(#SVGID_00000054252346639358230350000012829969567800568252_);fill:#FFFFFF;}
	.st83{clip-path:url(#SVGID_00000135648796449983428860000001484820765181634996_);fill:#FFFFFF;}
	.st84{clip-path:url(#SVGID_00000010295699222839320610000000132776754638135692_);fill:#FFFFFF;}
</style>
<g id="Bg">
</g>
<g id="Graphic">
	<g id="Small_00000049902458283815847670000016606781573743826342_">
		<g id="Gill_00000110429572720368926450000009780765877783471516_">
			<g>
				<path class="st8" d="M2.8,67.86c3.78,6.51,11.62,14.65,15.4,21.16c1.28,2.2,2.59,4.44,4.5,6.13c1.82,1.61,4.07,2.62,6.28,3.62
					c4.76,2.13,9.51,4.26,14.27,6.38l50.37,11.43c6.13-1.84,11.42,0.97,17.78,1.69c6.36,0.72,12.79,1.7,19.14,0.88
					c6.35-0.81,21.35,0.38,23.37-8.95c0,0-0.58-19.3-61.7-33.75S2.8,67.86,2.8,67.86z"/>
				<path class="st7" d="M125.43,120.21c-3.94,0-7.88-0.46-11.72-0.92c-0.8-0.09-1.59-0.19-2.39-0.28c-2.12-0.24-4.11-0.7-6.03-1.15
					c-3.86-0.9-7.51-1.75-11.45-0.57c-0.12,0.04-0.26,0.04-0.38,0.01l-50.37-11.43c-0.05-0.01-0.09-0.03-0.14-0.05l-14.27-6.38
					c-2.24-1-4.56-2.04-6.48-3.74c-2.02-1.79-3.41-4.19-4.65-6.32c-1.86-3.21-4.8-6.91-7.64-10.49c-2.87-3.62-5.84-7.37-7.76-10.67
					c-0.12-0.21-0.13-0.46-0.04-0.68c0.1-0.22,0.3-0.38,0.53-0.43c0.28-0.06,29.15-5.73,89.73,8.59
					c60.98,14.42,62.25,33.65,62.28,34.46c0,0.06,0,0.12-0.02,0.18c-1.77,8.19-12.67,8.81-19.87,9.22c-1.61,0.09-3,0.17-4.13,0.32
					C128.9,120.12,127.17,120.21,125.43,120.21z M97.9,115.21c2.61,0,5.12,0.58,7.72,1.19c1.88,0.44,3.83,0.89,5.86,1.12
					c0.8,0.09,1.6,0.18,2.4,0.28c5.45,0.64,11.1,1.31,16.56,0.61c1.18-0.15,2.67-0.24,4.24-0.33c7.12-0.41,16.86-0.96,18.47-7.93
					c-0.16-1.31-3.46-19.34-61.11-32.97c-31.46-7.44-54-9.38-67.38-9.69c-11.32-0.27-18.16,0.55-20.64,0.93
					c1.86,2.98,4.51,6.32,7.08,9.56c2.87,3.62,5.84,7.37,7.76,10.67c1.23,2.12,2.51,4.32,4.34,5.95c1.74,1.54,3.96,2.54,6.09,3.49
					l14.2,6.35l50.11,11.37C95.08,115.38,96.51,115.21,97.9,115.21z"/>
			</g>
			<g>
				<g>
					<path class="st7" d="M13.22,82.4c-0.22,0-0.42-0.14-0.48-0.36c-0.08-0.26,0.07-0.54,0.34-0.62l16.34-4.85
						c0.27-0.08,0.54,0.07,0.62,0.34s-0.07,0.54-0.34,0.62l-16.34,4.85C13.31,82.39,13.27,82.4,13.22,82.4z"/>
				</g>
				<g>
					<path class="st7" d="M19.98,92.44c-0.18,0-0.36-0.1-0.44-0.27c-0.13-0.25-0.03-0.55,0.21-0.67l18.36-9.48
						c0.24-0.12,0.55-0.03,0.67,0.21c0.13,0.25,0.03,0.55-0.21,0.67l-18.36,9.48C20.14,92.42,20.06,92.44,19.98,92.44z"/>
				</g>
				<g>
					<path class="st7" d="M32.42,100.81c-0.13,0-0.25-0.05-0.35-0.14c-0.2-0.19-0.2-0.51-0.01-0.71L44.8,86.89
						c0.2-0.2,0.51-0.2,0.71-0.01c0.2,0.19,0.2,0.51,0.01,0.71l-12.74,13.07C32.68,100.76,32.55,100.81,32.42,100.81z"/>
				</g>
				<g>
					<path class="st7" d="M102.67,117.02c-0.23,0-0.43-0.15-0.49-0.38l-4.08-16.94c-0.06-0.27,0.1-0.54,0.37-0.6
						c0.27-0.06,0.54,0.1,0.6,0.37l4.08,16.94c0.06,0.27-0.1,0.54-0.37,0.6C102.75,117.01,102.71,117.02,102.67,117.02z"/>
				</g>
				<g>
					<path class="st7" d="M118.39,118.67c-0.2,0-0.38-0.12-0.46-0.31l-9.87-23.91c-0.11-0.25,0.02-0.55,0.27-0.65
						c0.25-0.11,0.55,0.02,0.65,0.27l9.87,23.91c0.11,0.25-0.02,0.55-0.27,0.65C118.52,118.66,118.45,118.67,118.39,118.67z"/>
				</g>
				<g>
					<path class="st7" d="M132.59,119.44c-0.18,0-0.36-0.1-0.45-0.28l-10.67-21.42c-0.12-0.25-0.02-0.55,0.22-0.67
						c0.25-0.12,0.55-0.02,0.67,0.22l10.67,21.42c0.12,0.25,0.02,0.55-0.22,0.67C132.74,119.42,132.67,119.44,132.59,119.44z"/>
				</g>
				<g>
					<path class="st7" d="M143.31,118.48c-0.18,0-0.35-0.1-0.44-0.27l-8.85-16.87c-0.13-0.24-0.03-0.55,0.21-0.67
						c0.24-0.13,0.55-0.04,0.67,0.21l8.85,16.87c0.13,0.24,0.03,0.55-0.21,0.67C143.47,118.46,143.39,118.48,143.31,118.48z"/>
				</g>
			</g>
		</g>
		<g id="Stem_00000034064950500913472460000003623884374078409121_">
			<path class="st38" d="M99.94,93.33c-6.7,19.27-13.72,47.74-14.87,67.89c-0.66,11.61,0.12,53.59-14.75,57.25
				c-1.69,0.42-3.46,0.17-5.16-0.17c-10.85-2.2-19.75-10.12-30.86-11.34C4.71,203.7-4.37,196.03,11.82,170.9
				c7.09-11,11.28-25.64,18.48-36.57c5.28-8.01,9.15-16.86,12.99-25.66c4.42-10.11,2.05-8.54,6.46-18.65c0,0,12.33-3.84,22.04-3.62
				S99.94,93.33,99.94,93.33z"/>
			<path class="st7" d="M68.4,219.44c-1.15,0-2.29-0.19-3.39-0.41c-5.1-1.03-9.82-3.33-14.37-5.54c-5.2-2.53-10.57-5.14-16.42-5.79
				c-17.98-1.98-26.94-5.53-29.96-11.88c-2.72-5.71-0.51-13.76,6.94-25.33c3.46-5.37,6.28-11.74,9.01-17.91
				c2.84-6.42,5.78-13.06,9.47-18.66c5.26-7.98,9.16-16.91,12.93-25.54c2.18-5,2.69-7.13,3.19-9.2c0.51-2.13,1.04-4.33,3.27-9.45
				c0.09-0.2,0.26-0.35,0.46-0.42c0.51-0.16,12.56-3.87,22.28-3.66c9.72,0.22,27.62,6.69,28.38,6.97c0.39,0.14,0.59,0.56,0.45,0.95
				c-6.32,18.18-13.65,47.12-14.83,67.69c-0.08,1.44-0.14,3.37-0.21,5.61c-0.5,15.9-1.54,48.98-15.11,52.32
				C69.8,219.37,69.1,219.44,68.4,219.44z M50.31,90.65c-2.07,4.77-2.54,6.77-3.05,8.88c-0.51,2.13-1.04,4.33-3.27,9.45
				c-3.8,8.69-7.72,17.68-13.05,25.77c-3.62,5.5-6.54,12.08-9.35,18.45c-2.75,6.22-5.6,12.65-9.12,18.12
				c-7.15,11.09-9.32,18.67-6.85,23.87c2.77,5.82,11.37,9.11,28.77,11.03c6.11,0.67,11.6,3.34,16.92,5.93
				c4.47,2.18,9.1,4.43,14.01,5.42c1.59,0.32,3.27,0.57,4.83,0.18c12.46-3.07,13.48-35.38,13.97-50.91
				c0.07-2.25,0.13-4.19,0.21-5.65c1.17-20.45,8.37-49.08,14.67-67.39c-3.44-1.21-18.79-6.44-27.21-6.63
				C63.14,86.98,52.32,90.05,50.31,90.65z"/>
		</g>
		<g id="Cap_00000137114389567567581430000016153719087857354937_">
			<path class="st6" d="M107.29,4.52c6.58,2.64,12.88,18.26,17.74,23.43c10.54,11.22,18.94,25.32,21.47,40.4
				c4.09,24.28,9.56,38.33,7.56,41.9c-0.91,1.62-9.09-6.05-14.24-7.56c-13.68-4.01-30.14-9.21-44.18-10.36
				c-9.1-0.75-17.67,2.57-26.73,2.62c-18.76,0.1-29.81-15.34-46.53-21.05c-8.64-2.95-22.22-1.25-21.61-12.37
				c0.85-15.54,35.44-30.7,47.32-38.52C71.45,7.63,80.79-6.1,107.29,4.52z"/>
			<path class="st7" d="M153.63,111.23c-1.11,0-2.82-1.12-5.77-3.13c-2.75-1.87-5.86-3.99-8.25-4.69c-1.38-0.4-2.79-0.82-4.21-1.24
				c-12.78-3.78-27.27-8.06-39.82-9.09c-4.94-0.4-9.86,0.43-14.61,1.24c-3.91,0.67-7.95,1.36-12.05,1.38c-0.06,0-0.12,0-0.19,0
				c-11.48,0-20.27-5.8-28.77-11.41c-5.56-3.67-11.31-7.46-17.82-9.68c-2.23-0.76-4.88-1.22-7.44-1.66
				C7.25,71.66-0.46,70.33,0.02,61.49c0.69-12.56,21.84-24.4,37.28-33.04c4.19-2.35,7.81-4.37,10.38-6.06
				c4.39-2.89,8.2-5.66,11.89-8.34c15.72-11.43,26.11-18.98,48-10.22c4.36,1.74,8.48,8.67,12.11,14.79c2.13,3.58,4.13,6.96,5.9,8.83
				c11.63,12.38,19.32,26.86,21.67,40.79c1.76,10.46,3.75,18.89,5.35,25.66c2.2,9.31,3.41,14.44,2.13,16.73
				c-0.16,0.29-0.43,0.49-0.76,0.57C153.85,111.21,153.74,111.23,153.63,111.23z M92.91,91.47c0.93,0,1.86,0.04,2.79,0.11
				c12.7,1.05,27.27,5.35,40.12,9.15c1.43,0.42,2.83,0.84,4.21,1.24c2.61,0.76,5.83,2.95,8.67,4.88c1.7,1.16,4,2.72,4.79,2.86
				c0.83-1.96-0.52-7.67-2.36-15.48c-1.6-6.79-3.6-15.25-5.37-25.76c-2.3-13.64-9.85-27.85-21.28-40.01c-1.87-2-3.92-5.44-6.09-9.09
				c-3.51-5.91-7.49-12.61-11.38-14.16h0c-21.12-8.46-31.24-1.1-46.56,10.04c-3.7,2.69-7.53,5.48-11.95,8.38
				c-2.61,1.72-6.25,3.76-10.47,6.12C23.75,37.75,2.17,49.83,1.52,61.57c-0.41,7.51,6.31,8.67,13.44,9.9
				c2.62,0.45,5.32,0.92,7.67,1.72c6.7,2.29,12.53,6.13,18.17,9.85c8.7,5.74,16.91,11.16,27.94,11.16c0.06,0,0.12,0,0.18,0
				c3.98-0.02,7.96-0.7,11.81-1.36C84.68,92.16,88.75,91.47,92.91,91.47z"/>
		</g>
		<g id="Line_00000171684258906110591990000014156256439585161122_">
			<g>
				<g>
					<path class="st7" d="M20.91,174.54c-0.06,0-0.12-0.01-0.18-0.03c-0.26-0.1-0.39-0.38-0.29-0.64c0.72-1.93,1.62-3.81,2.49-5.62
						c0.42-0.88,0.84-1.77,1.25-2.66c0.11-0.25,0.41-0.36,0.66-0.25c0.25,0.11,0.36,0.41,0.25,0.66c-0.41,0.9-0.83,1.79-1.26,2.68
						c-0.86,1.8-1.75,3.66-2.46,5.54C21.3,174.42,21.11,174.54,20.91,174.54z"/>
				</g>
				<g>
					<path class="st7" d="M34.88,173.81c-0.07,0-0.15-0.02-0.22-0.05c-0.25-0.12-0.35-0.42-0.23-0.67c1.5-3.06,2.62-5.9,3.43-8.67
						c0.08-0.26,0.35-0.42,0.62-0.34c0.26,0.08,0.42,0.35,0.34,0.62c-0.83,2.83-1.97,5.72-3.49,8.83
						C35.25,173.7,35.07,173.81,34.88,173.81z"/>
				</g>
				<g>
					<path class="st7" d="M21.55,204.59c-0.26,0-0.48-0.21-0.5-0.47c-0.1-1.72,0.03-3.47,0.4-5.19c0.06-0.27,0.33-0.43,0.59-0.39
						c0.27,0.06,0.44,0.32,0.39,0.59c-0.35,1.64-0.48,3.29-0.38,4.92c0.02,0.28-0.19,0.51-0.47,0.53
						C21.57,204.59,21.56,204.59,21.55,204.59z"/>
				</g>
				<g>
					<path class="st7" d="M29.26,205.91c-0.03,0-0.07,0-0.1-0.01c-0.27-0.05-0.45-0.32-0.39-0.59c1.34-6.75,3.41-10.39,5.8-14.62
						c1.46-2.58,2.97-5.24,4.55-8.97c0.11-0.25,0.4-0.37,0.66-0.26c0.25,0.11,0.37,0.4,0.26,0.66c-1.61,3.78-3.2,6.59-4.6,9.07
						c-2.35,4.15-4.38,7.74-5.69,14.32C29.7,205.75,29.49,205.91,29.26,205.91z"/>
				</g>
				<g>
					<path class="st7" d="M40.15,203.17c-0.06,0-0.12-0.01-0.19-0.04c-0.26-0.1-0.38-0.39-0.28-0.65c2-5,3.71-10.18,5.09-15.4
						c0.07-0.27,0.34-0.43,0.61-0.36c0.27,0.07,0.43,0.34,0.36,0.61c-1.39,5.25-3.12,10.47-5.13,15.51
						C40.53,203.05,40.34,203.17,40.15,203.17z"/>
				</g>
				<g>
					<path class="st7" d="M53.96,196.51c-0.04,0-0.08,0-0.12-0.01c-0.27-0.06-0.43-0.33-0.37-0.6l3.91-16.3
						c0.06-0.27,0.33-0.44,0.6-0.37c0.27,0.06,0.43,0.33,0.37,0.6l-3.91,16.3C54.39,196.36,54.19,196.51,53.96,196.51z"/>
				</g>
				<g>
					<path class="st7" d="M66.46,181.73c-0.01,0-0.03,0-0.04,0c-0.28-0.02-0.48-0.27-0.46-0.54c0.26-3.05,0.48-6.1,0.69-9.14
						c0.02-0.28,0.29-0.49,0.53-0.46c0.28,0.02,0.48,0.26,0.46,0.53c-0.22,3.05-0.44,6.11-0.69,9.16
						C66.94,181.53,66.72,181.73,66.46,181.73z"/>
				</g>
				<g>
					<path class="st7" d="M57.76,215.95c-0.13,0-0.25-0.05-0.35-0.15c-0.2-0.19-0.2-0.51,0-0.71c5.67-5.7,6.76-16.23,7.63-24.68
						c0.1-0.98,0.2-1.94,0.3-2.84c0.03-0.28,0.28-0.48,0.55-0.44c0.27,0.03,0.47,0.28,0.44,0.55c-0.1,0.9-0.2,1.85-0.3,2.83
						c-0.89,8.61-2,19.33-7.92,25.29C58.02,215.9,57.89,215.95,57.76,215.95z"/>
				</g>
				<g>
					<path class="st7" d="M71.79,202.88c-0.06,0-0.11-0.01-0.17-0.03c-0.26-0.09-0.4-0.38-0.3-0.64c3.25-9.13,4.98-18.67,5.12-28.37
						c0-0.27,0.23-0.49,0.5-0.49c0,0,0,0,0.01,0c0.28,0,0.5,0.23,0.49,0.51c-0.15,9.8-1.89,19.45-5.18,28.69
						C72.19,202.76,72,202.88,71.79,202.88z"/>
				</g>
				<g>
					<path class="st7" d="M64.44,218.36c-0.06,0-0.12-0.01-0.18-0.04c-0.26-0.1-0.38-0.39-0.28-0.65l2.83-7.15
						c0.1-0.26,0.39-0.38,0.65-0.28c0.26,0.1,0.38,0.39,0.28,0.65l-2.83,7.15C64.83,218.25,64.64,218.36,64.44,218.36z"/>
				</g>
				<g>
					<path class="st7" d="M10.88,197.66c-0.01,0-0.01,0-0.02,0c-0.28-0.01-0.49-0.25-0.48-0.52c0.18-4.25,0.92-8.47,2.21-12.53
						c0.08-0.26,0.37-0.41,0.63-0.33c0.26,0.08,0.41,0.37,0.33,0.63c-1.26,3.97-1.99,8.1-2.17,12.27
						C11.37,197.45,11.15,197.66,10.88,197.66z"/>
				</g>
				<g>
					<path class="st7" d="M49.97,207.84c-0.09,0-0.19-0.03-0.27-0.08c-0.23-0.15-0.29-0.46-0.14-0.69c1.38-2.1,2.34-4.51,2.78-6.98
						c0.05-0.27,0.3-0.45,0.58-0.4c0.27,0.05,0.45,0.31,0.4,0.58c-0.46,2.6-1.48,5.14-2.93,7.35
						C50.29,207.76,50.13,207.84,49.97,207.84z"/>
				</g>
			</g>
			<g>
				<g>
					<path class="st7" d="M41.17,134.78c-0.05,0-0.1-0.01-0.16-0.02c-0.26-0.09-0.41-0.37-0.32-0.63c0.94-2.87,2.12-5.27,3.37-7.81
						c2.4-4.88,4.87-9.92,6.29-19.31c0.04-0.27,0.29-0.46,0.57-0.42c0.27,0.04,0.46,0.3,0.42,0.57c-1.45,9.54-4.07,14.89-6.39,19.6
						c-1.23,2.51-2.39,4.87-3.31,7.68C41.58,134.65,41.38,134.78,41.17,134.78z"/>
				</g>
				<g>
					<path class="st7" d="M51.72,103.34c-0.02,0-0.05,0-0.07,0c-0.27-0.04-0.46-0.29-0.42-0.57c0.28-1.92,0.88-3.29,1.51-4.75
						c0.64-1.47,1.3-3,1.72-5.27c0.05-0.27,0.31-0.45,0.58-0.4c0.27,0.05,0.45,0.31,0.4,0.58c-0.44,2.39-1.16,4.04-1.79,5.49
						c-0.61,1.39-1.18,2.71-1.44,4.5C52.18,103.16,51.97,103.34,51.72,103.34z"/>
				</g>
				<g>
					<path class="st7" d="M53.76,123.32c-0.04,0-0.08,0-0.12-0.02c-0.27-0.07-0.43-0.34-0.36-0.61c2.46-9.61,5.79-19.83,9.14-28.03
						c0.1-0.26,0.4-0.38,0.65-0.27c0.26,0.1,0.38,0.4,0.27,0.65c-3.33,8.17-6.65,18.34-9.1,27.9
						C54.18,123.17,53.98,123.32,53.76,123.32z"/>
				</g>
				<g>
					<path class="st7" d="M58.1,136.88c-0.05,0-0.11-0.01-0.16-0.03c-0.26-0.09-0.4-0.37-0.32-0.63c1.37-4.11,2.02-7.63,2.65-11.04
						c0.64-3.44,1.29-6.99,2.68-11.17c0.84-2.54,3.4-6.03,5.88-9.41c2.43-3.32,4.94-6.75,5.73-9.14c0.09-0.26,0.37-0.41,0.63-0.32
						c0.26,0.09,0.4,0.37,0.32,0.63c-0.84,2.54-3.4,6.03-5.88,9.41c-2.43,3.32-4.94,6.75-5.73,9.14c-1.37,4.11-2.02,7.63-2.65,11.04
						c-0.64,3.44-1.29,6.99-2.68,11.17C58.51,136.75,58.31,136.88,58.1,136.88z"/>
				</g>
				<g>
					<path class="st7" d="M67.08,152.64c-0.07,0-0.13-0.01-0.2-0.04c-0.25-0.11-0.37-0.4-0.26-0.66c1.02-2.37,1.83-4.84,2.39-7.36
						c0.06-0.27,0.33-0.43,0.6-0.38c0.27,0.06,0.44,0.33,0.38,0.6c-0.58,2.58-1.4,5.12-2.45,7.54
						C67.46,152.53,67.27,152.64,67.08,152.64z"/>
				</g>
				<g>
					<path class="st7" d="M70.67,136.58c-0.02,0-0.03,0-0.05,0c-0.27-0.03-0.48-0.27-0.45-0.55c0.68-6.84,2.7-13.36,6.16-19.94
						c0.13-0.25,0.43-0.34,0.67-0.21c0.25,0.13,0.34,0.43,0.21,0.67c-3.4,6.46-5.37,12.86-6.05,19.57
						C71.14,136.39,70.93,136.58,70.67,136.58z"/>
				</g>
				<g>
					<path class="st7" d="M78.64,108.91c-0.04,0-0.08,0-0.12-0.01c-0.27-0.06-0.43-0.33-0.37-0.6l1.66-6.92
						c0.06-0.27,0.33-0.44,0.6-0.37c0.27,0.06,0.43,0.33,0.37,0.6l-1.66,6.92C79.07,108.76,78.86,108.91,78.64,108.91z"/>
				</g>
				<g>
					<path class="st7" d="M78.71,145.54c-0.26,0-0.48-0.2-0.5-0.46c-0.28-3.39,0.27-6.84,1.69-10.56c0.1-0.26,0.39-0.39,0.64-0.29
						c0.26,0.1,0.39,0.39,0.29,0.64c-1.36,3.58-1.9,6.89-1.63,10.13c0.02,0.28-0.18,0.52-0.46,0.54
						C78.73,145.54,78.72,145.54,78.71,145.54z"/>
				</g>
				<g>
					<path class="st7" d="M84.07,115.45c-0.03,0-0.06,0-0.09-0.01c-0.27-0.05-0.46-0.31-0.41-0.58c0.42-2.42,1.46-4.98,2.47-7.45
						c0.99-2.42,2.01-4.93,2.41-7.24c0.16-0.93,0.83-2.11,1.53-3.36c0.91-1.62,1.95-3.45,1.67-4.45c-0.08-0.27,0.08-0.54,0.34-0.62
						c0.27-0.08,0.54,0.08,0.62,0.34c0.4,1.4-0.7,3.34-1.76,5.21c-0.63,1.12-1.29,2.29-1.42,3.04c-0.42,2.42-1.46,4.98-2.47,7.45
						c-0.99,2.42-2.01,4.92-2.41,7.24C84.52,115.28,84.31,115.45,84.07,115.45z"/>
				</g>
			</g>
		</g>
		<g id="Scale_00000147214290855687916320000001936380561932543911_">
			<g>
				<path class="st8" d="M113.29,76.77c-2.44,1.57-4.42,4.84-2.87,7.3c1.16,1.84,3.65,2.21,5.83,2.3
					c9.67,0.44,22.2-2.79,16.34-15.43c-1.45-3.12-3.6-5.4-7.15-4.04c-2.41,0.92-3.27,4.09-5.07,5.7
					C118.28,74.47,115.6,75.27,113.29,76.77z"/>
				<path class="st7" d="M117.82,86.9c-0.64,0-1.19-0.02-1.6-0.04c-2.22-0.1-4.93-0.48-6.23-2.54c-1.67-2.65,0.27-6.21,3.02-7.98
					c0.93-0.6,1.91-1.09,2.87-1.57c1.5-0.75,2.93-1.46,4.15-2.56c0.66-0.59,1.19-1.41,1.75-2.29c0.92-1.42,1.86-2.89,3.48-3.51
					c3.26-1.25,5.88,0.2,7.78,4.29c1.99,4.3,2.07,7.87,0.22,10.63C129.97,86.25,121.91,86.9,117.82,86.9z M127.42,67
					c-0.57,0-1.17,0.12-1.81,0.37c-1.31,0.5-2.13,1.77-3,3.12c-0.57,0.89-1.17,1.81-1.92,2.49c-1.32,1.19-2.87,1.96-4.37,2.71
					c-0.93,0.46-1.89,0.94-2.77,1.51h0c-2.35,1.52-4.06,4.48-2.72,6.61c1.05,1.67,3.45,1.98,5.43,2.07
					c5.99,0.27,13.37-0.92,16.16-5.07c1.64-2.45,1.54-5.69-0.3-9.65C130.83,68.36,129.31,67,127.42,67z M113.29,76.77L113.29,76.77
					L113.29,76.77z"/>
			</g>
			<g>
				<path class="st8" d="M47.88,38.38c-0.69,2.01-0.61,4.22,0.43,5.39c1.31,1.48,3.65,1.04,5.7,0.13c3.59-1.6,14.2-10.15,8.36-13.15
					c-3-1.54-11.81,2.12-14.06,6.61C48.15,37.69,48,38.03,47.88,38.38z"/>
				<path class="st7" d="M50.69,45.24c-1.15,0-2.08-0.38-2.75-1.14c-1.11-1.26-1.32-3.57-0.53-5.88c0.13-0.37,0.28-0.73,0.45-1.08
					c1.5-3,5.57-5.46,8.93-6.56c1.45-0.47,4.12-1.14,5.8-0.28c1.69,0.87,2.02,2.13,1.99,3.03c-0.11,4.24-7.75,9.85-10.37,11.02
					C52.89,44.94,51.7,45.24,50.69,45.24z M60.55,30.88c-0.96,0-2.15,0.22-3.45,0.64c-3.06,1-6.98,3.33-8.35,6.05
					c-0.16,0.31-0.29,0.63-0.4,0.96l0,0c-0.67,1.95-0.54,3.92,0.33,4.9c1.26,1.43,3.75,0.61,5.12,0c2.78-1.24,9.69-6.63,9.78-10.14
					c0.02-0.91-0.45-1.6-1.45-2.11C61.75,30.98,61.2,30.88,60.55,30.88z M47.89,38.38L47.89,38.38L47.89,38.38z"/>
			</g>
			<g>
				<path class="st8" d="M40.2,41.46c-0.02-3.06-5.1-2.04-6.86-1.46c-0.64,0.21-1.34,0.69-1.9,1.08c-2.52,1.76,0.11,2.95,1.98,3.3
					c2.19,0.42,6.57,0.31,6.78-2.69C40.19,41.61,40.2,41.53,40.2,41.46z"/>
				<path class="st7" d="M35.4,45.06c-0.8,0-1.54-0.08-2.08-0.19c-0.51-0.1-3.08-0.66-3.39-2.11c-0.15-0.72,0.26-1.42,1.22-2.09
					c0.65-0.46,1.35-0.92,2.03-1.14c1.56-0.51,4.95-1.18,6.57-0.01c0.62,0.44,0.94,1.11,0.95,1.94c0,0.09,0,0.17-0.01,0.26
					c-0.07,0.93-0.47,1.69-1.21,2.25C38.4,44.81,36.8,45.06,35.4,45.06z M37.14,39.86c-1.26,0-2.7,0.3-3.64,0.61
					c-0.6,0.2-1.3,0.69-1.77,1.01c-0.58,0.4-0.87,0.79-0.82,1.06c0.11,0.5,1.22,1.08,2.6,1.34c1.72,0.33,4.13,0.24,5.37-0.71
					c0.51-0.39,0.77-0.89,0.82-1.53c0-0.06,0.01-0.12,0.01-0.18c0,0,0,0,0,0c0-0.51-0.17-0.88-0.53-1.13
					C38.69,39.99,37.95,39.86,37.14,39.86z"/>
			</g>
			<g>
				<path class="st8" d="M33.03,53.1c2.62,1.99,1.16,7.68-1.94,8.9c-5.72,0.55-14.53,2.33-13.89-5.6c-0.33-4.13,5.87-6.58,10.31-5.6
					L33.03,53.1z"/>
				<path class="st7" d="M24.26,63.06c-2.42,0-4.68-0.39-6.1-1.77c-1.15-1.11-1.64-2.77-1.46-4.93c-0.12-1.41,0.5-2.79,1.8-3.92
					c2.19-1.91,6.03-2.81,9.12-2.12l5.6,2.32c0.04,0.02,0.08,0.04,0.11,0.06c1.22,0.92,1.76,2.58,1.49,4.54
					c-0.27,2.01-1.48,4.4-3.55,5.22c-0.04,0.02-0.09,0.03-0.14,0.03c-0.53,0.05-1.08,0.11-1.65,0.17
					C27.83,62.86,26,63.06,24.26,63.06z M25.48,51.08c-2.3,0-4.81,0.79-6.33,2.11c-0.73,0.64-1.58,1.71-1.46,3.17
					c-0.15,1.95,0.23,3.3,1.17,4.21c2.1,2.04,6.77,1.52,10.52,1.11c0.55-0.06,1.08-0.12,1.59-0.17c1.42-0.6,2.59-2.39,2.87-4.4
					c0.22-1.57-0.17-2.87-1.05-3.58l-5.46-2.27C26.74,51.14,26.12,51.08,25.48,51.08z"/>
			</g>
			<g>
				<path class="st8" d="M43.3,58.69c-0.78,2.25-1.19,4.8-2.97,6.39c-1.34,1.2-3.57,2.19-3.23,3.96c0.14,0.73,0.72,1.28,1.28,1.78
					c1.11,1,2.31,2.04,3.78,2.28c1.74,0.29,3.44-0.6,4.97-1.47c2.59-1.47,5.24-3.08,6.88-5.57C61.32,54.97,48.59,43.49,43.3,58.69z"
					/>
				<path class="st7" d="M42.85,73.65c-0.25,0-0.51-0.02-0.77-0.06c-1.67-0.28-2.98-1.46-4.04-2.41c-0.53-0.48-1.26-1.13-1.43-2.05
					c-0.32-1.65,1.09-2.69,2.33-3.6c0.37-0.27,0.74-0.54,1.05-0.82c1.28-1.14,1.8-2.85,2.35-4.66c0.16-0.51,0.31-1.03,0.48-1.52l0,0
					c2.17-6.22,5.29-7.45,6.96-7.63c2.15-0.22,4.23,0.95,5.57,3.15c1.66,2.73,2.29,7.39-0.92,12.28c-1.67,2.53-4.29,4.15-7.05,5.73
					C45.96,72.88,44.44,73.65,42.85,73.65z M43.77,58.86L43.77,58.86c-0.17,0.48-0.32,0.98-0.47,1.48
					c-0.56,1.86-1.14,3.78-2.64,5.11c-0.35,0.31-0.74,0.6-1.13,0.88c-1.29,0.95-2.13,1.65-1.94,2.61c0.11,0.55,0.57,1,1.12,1.5
					c0.96,0.86,2.15,1.93,3.53,2.16c1.55,0.26,3.08-0.52,4.64-1.41c2.66-1.51,5.17-3.06,6.71-5.41c2.96-4.5,2.41-8.74,0.91-11.21
					c-1.13-1.86-2.86-2.87-4.61-2.68C47.42,52.16,45.24,54.63,43.77,58.86z"/>
			</g>
			<g>
				<path class="st8" d="M137.31,88.06c-1.34,0.34-2.52,1.35-2.91,2.68c-0.12,0.41-0.17,0.84-0.08,1.26
					c0.26,1.3,1.66,2.03,2.94,2.36c1.68,0.43,2.78-0.07,4.36-0.5c1.1-0.3,1.86-0.55,1.81-1.88
					C143.32,89.12,139.79,87.43,137.31,88.06z"/>
				<path class="st7" d="M138.52,95.02c-0.43,0-0.88-0.05-1.39-0.18c-1.08-0.28-2.96-1.01-3.31-2.74c-0.09-0.47-0.06-0.97,0.09-1.5
					c0.43-1.44,1.71-2.63,3.26-3.02c1.56-0.4,3.48,0.03,4.89,1.08c1.15,0.86,1.8,2.03,1.86,3.29c0.07,1.76-1.12,2.09-2.17,2.38
					c-0.24,0.07-0.47,0.14-0.7,0.2C140.2,94.78,139.42,95.02,138.52,95.02z M138.4,88.43c-0.33,0-0.66,0.04-0.97,0.11h0
					c-1.22,0.31-2.22,1.22-2.55,2.33c-0.11,0.37-0.13,0.72-0.07,1.02c0.25,1.24,1.88,1.79,2.58,1.97c1.28,0.33,2.17,0.07,3.39-0.3
					c0.23-0.07,0.46-0.14,0.71-0.21c1.1-0.31,1.48-0.46,1.44-1.38c-0.04-0.96-0.55-1.86-1.45-2.53
					C140.6,88.8,139.46,88.43,138.4,88.43z M137.31,88.06L137.31,88.06L137.31,88.06z"/>
			</g>
			<g>
				<path class="st8" d="M117.89,44.43c-1.93,1.77-4.98,1.34-7.45,0.49c-3.03-1.04-5.9-2.53-8.48-4.42
					c-5.82-4.25-3.05-19.92,5.78-18.32C114.43,23.39,123.82,39.01,117.89,44.43z"/>
				<path class="st7" d="M114.33,46.15c-1.41,0-2.84-0.35-4.05-0.76c-3.08-1.06-5.98-2.57-8.61-4.49
					c-3.68-2.69-4.05-9.41-2.08-14.01c1.69-3.95,4.69-5.85,8.24-5.21c4.71,0.85,10.13,8.06,11.83,13.94
					c1.16,4.01,0.65,7.27-1.43,9.18l0,0C117.14,45.8,115.75,46.15,114.33,46.15z M106.5,22.57c-3.56,0-5.36,3.23-6,4.72
					c-1.82,4.24-1.55,10.4,1.75,12.81c2.55,1.86,5.36,3.33,8.35,4.35c2.17,0.74,5.13,1.28,6.95-0.38l0,0
					c1.79-1.63,2.19-4.53,1.14-8.16c-1.76-6.09-7.13-12.52-11.05-13.23C107.25,22.6,106.87,22.57,106.5,22.57z M117.89,44.43
					L117.89,44.43L117.89,44.43z"/>
			</g>
			<g>
				<path class="st8" d="M103.15,11.8c-1.77-1.55-5.21-1.27-7.38-0.55c-2.65,0.88-4.99,3.12-5.31,5.89
					c-0.33,2.77,1.91,5.78,4.71,5.69c1.85-0.06,3.42-1.31,4.74-2.6c1.54-1.5,4.56-3.59,4.36-6.07
					C104.18,13.11,103.77,12.34,103.15,11.8z"/>
				<path class="st7" d="M95.04,23.32c-1.3,0-2.55-0.58-3.53-1.65c-1.16-1.26-1.74-2.98-1.55-4.59c0.32-2.76,2.6-5.29,5.65-6.31
					c2.49-0.83,6.01-0.97,7.87,0.65c0,0,0,0,0,0c0.76,0.67,1.19,1.58,1.29,2.69c0.19,2.27-1.89,4.12-3.56,5.6
					c-0.35,0.31-0.67,0.6-0.95,0.87c-1.27,1.24-3,2.68-5.08,2.74C95.13,23.32,95.09,23.32,95.04,23.32z M99.34,11.16
					c-1.15,0-2.36,0.21-3.41,0.55c-2.24,0.74-4.65,2.73-4.97,5.48c-0.15,1.31,0.34,2.76,1.3,3.8c0.82,0.89,1.82,1.37,2.9,1.33
					c1.73-0.05,3.27-1.34,4.41-2.46c0.29-0.28,0.63-0.58,0.99-0.9c1.5-1.33,3.37-3,3.23-4.77c-0.07-0.86-0.38-1.52-0.95-2.02
					C102.01,11.46,100.72,11.16,99.34,11.16z"/>
			</g>
		</g>
	</g>
</g>
<g id="Guide">
</g>
</svg>
