<?xml version="1.0" encoding="utf-8"?>
<!-- Generator: Adobe Illustrator 26.1.0, SVG Export Plug-In . SVG Version: 6.00 Build 0)  -->
<svg version="1.1" xmlns="http://www.w3.org/2000/svg" xmlns:xlink="http://www.w3.org/1999/xlink" x="0px" y="0px"
	 viewBox="0 0 313.25 284.02" style="enable-background:new 0 0 313.25 284.02;" xml:space="preserve">
<style type="text/css">
	.st0{fill:#FFFFFF;stroke:#000000;stroke-miterlimit:10;}
	.st1{fill:#BFA071;stroke:#554B4E;stroke-width:1.5;stroke-linecap:round;stroke-linejoin:round;stroke-miterlimit:10;}
	.st2{fill:#BFA071;stroke:#554B4E;stroke-linecap:round;stroke-linejoin:round;stroke-miterlimit:10;}
	.st3{fill:#F8F4E9;stroke:#554B4E;stroke-width:1.5;stroke-linecap:round;stroke-linejoin:round;stroke-miterlimit:10;}
	.st4{fill:#F2DED6;stroke:#554B4E;stroke-width:1.5;stroke-linecap:round;stroke-linejoin:round;stroke-miterlimit:10;}
	.st5{fill:none;stroke:#554B4E;stroke-linecap:round;stroke-linejoin:round;stroke-miterlimit:10;}
	.st6{fill:#BFA071;}
	.st7{fill:#554B4E;}
	.st8{fill:#F8F4E9;}
	.st9{fill:none;stroke:#554B4E;stroke-width:1.5;stroke-linecap:round;stroke-linejoin:round;stroke-miterlimit:10;}
	.st10{fill:#F8F4E9;stroke:#554B4E;stroke-linecap:round;stroke-linejoin:round;stroke-miterlimit:10;}
	.st11{fill:#F2DED6;stroke:#554B4E;stroke-linecap:round;stroke-linejoin:round;stroke-miterlimit:10;}
	.st12{clip-path:url(#SVGID_00000081608994880737857220000001108352626609222312_);}
	.st13{fill:none;stroke:#BFA071;stroke-width:1.5;stroke-linecap:round;stroke-linejoin:round;}
	.st14{fill:none;stroke:#BFA071;stroke-width:1.5;stroke-linecap:round;stroke-linejoin:round;stroke-dasharray:68.8403,19.6687;}
	.st15{fill:none;stroke:#BFA071;stroke-width:1.5;stroke-linecap:round;stroke-linejoin:round;stroke-dasharray:71.4455,20.413;}
	.st16{fill:none;stroke:#BFA071;stroke-width:1.5;stroke-linecap:round;stroke-linejoin:round;stroke-dasharray:69.5884,19.8824;}
	.st17{fill:none;stroke:#BFA071;stroke-width:1.5;stroke-linecap:round;stroke-linejoin:round;stroke-dasharray:61.3524,17.5292;}
	.st18{fill:none;stroke:#BFA071;stroke-width:1.5;stroke-linecap:round;stroke-linejoin:round;stroke-dasharray:63.9932,18.2838;}
	.st19{fill:none;stroke:#BFA071;stroke-width:1.5;stroke-linecap:round;stroke-linejoin:round;stroke-dasharray:72.7778,20.7937;}
	.st20{fill:none;stroke:#BFA071;stroke-width:1.5;stroke-linecap:round;stroke-linejoin:round;stroke-dasharray:77.193,22.0551;}
	.st21{fill:none;stroke:#BFA071;stroke-width:1.5;stroke-linecap:round;stroke-linejoin:round;stroke-dasharray:75.3802,21.5372;}
	.st22{fill:none;stroke:#BFA071;stroke-width:1.5;stroke-linecap:round;stroke-linejoin:round;stroke-dasharray:73.6885,21.0538;}
	.st23{fill:none;stroke:#BFA071;stroke-width:1.5;stroke-linecap:round;stroke-linejoin:round;stroke-dasharray:63.3162,18.0903;}
	.st24{fill:none;stroke:#BFA071;stroke-width:1.5;stroke-linecap:round;stroke-linejoin:round;stroke-dasharray:62.0513,17.7289;}
	.st25{fill:none;stroke:#BFA071;stroke-width:1.5;stroke-linecap:round;stroke-linejoin:round;stroke-dasharray:68.9157,19.6902;}
	.st26{fill:none;stroke:#554B4E;stroke-width:1.5;stroke-linecap:round;stroke-linejoin:round;}
	.st27{fill:none;stroke:#554B4E;stroke-width:1.5;stroke-linecap:round;stroke-linejoin:round;stroke-dasharray:15.0532,10.0355;}
	.st28{fill:none;stroke:#554B4E;stroke-width:1.5;stroke-linecap:round;stroke-linejoin:round;stroke-dasharray:14.9985,9.999;}
	.st29{fill:none;stroke:#554B4E;stroke-width:1.5;stroke-linecap:round;stroke-linejoin:round;stroke-dasharray:14.8977,9.9318;}
	.st30{fill:none;stroke:#554B4E;stroke-width:1.5;stroke-linecap:round;stroke-linejoin:round;stroke-dasharray:15.4213,10.2808;}
	.st31{fill:none;stroke:#554B4E;stroke-width:1.5;stroke-linecap:round;stroke-linejoin:round;stroke-dasharray:15.2271,10.1514;}
	.st32{fill:none;stroke:#554B4E;stroke-width:1.5;stroke-linecap:round;stroke-linejoin:round;stroke-dasharray:15.021,10.014;}
	.st33{fill:none;stroke:#554B4E;stroke-width:1.5;stroke-linecap:round;stroke-linejoin:round;stroke-dasharray:15.0727,10.0485;}
	.st34{fill:none;stroke:#554B4E;stroke-width:1.5;stroke-linecap:round;stroke-linejoin:round;stroke-dasharray:14.6942,9.7961;}
	.st35{fill:none;stroke:#554B4E;stroke-width:1.5;stroke-linecap:round;stroke-linejoin:round;stroke-dasharray:14.7469,9.8312;}
	.st36{fill:none;stroke:#554B4E;stroke-width:1.5;stroke-linecap:round;stroke-linejoin:round;stroke-dasharray:15.0819,10.0546;}
	.st37{fill:none;stroke:#554B4E;stroke-width:1.5;stroke-linecap:round;stroke-linejoin:round;stroke-dasharray:15.003,10.002;}
	.st38{fill:#F2DED6;}
	.st39{fill:#F2DED6;stroke:#554B4E;stroke-width:1.5;stroke-linecap:round;stroke-miterlimit:10;}
	.st40{fill:none;stroke:#554B4E;stroke-width:1.5;stroke-linecap:round;stroke-miterlimit:10;}
	.st41{fill:none;stroke:#554B4E;stroke-linecap:round;stroke-miterlimit:10;}
	.st42{fill:none;stroke:#BFA071;stroke-linecap:round;stroke-linejoin:round;}
	.st43{fill:none;stroke:#BFA071;stroke-linecap:round;stroke-linejoin:round;stroke-dasharray:14.9905,14.9905;}
	.st44{fill:none;stroke:#BFA071;stroke-linecap:round;stroke-linejoin:round;stroke-dasharray:51.384,34.256;}
	.st45{fill:none;stroke:#554B4E;stroke-miterlimit:10;}
	.st46{clip-path:url(#SVGID_00000038382913282228408930000015345803538396253075_);}
	.st47{fill:none;stroke:#554B4E;stroke-width:1.5;stroke-linecap:round;stroke-linejoin:round;stroke-dasharray:68.8403,19.6687;}
	.st48{fill:none;stroke:#554B4E;stroke-width:1.5;stroke-linecap:round;stroke-linejoin:round;stroke-dasharray:71.4455,20.413;}
	.st49{fill:none;stroke:#554B4E;stroke-width:1.5;stroke-linecap:round;stroke-linejoin:round;stroke-dasharray:69.5884,19.8824;}
	.st50{fill:none;stroke:#554B4E;stroke-width:1.5;stroke-linecap:round;stroke-linejoin:round;stroke-dasharray:61.3524,17.5292;}
	.st51{fill:none;stroke:#554B4E;stroke-width:1.5;stroke-linecap:round;stroke-linejoin:round;stroke-dasharray:63.9932,18.2838;}
	.st52{fill:none;stroke:#554B4E;stroke-width:1.5;stroke-linecap:round;stroke-linejoin:round;stroke-dasharray:72.7778,20.7937;}
	.st53{fill:none;stroke:#554B4E;stroke-width:1.5;stroke-linecap:round;stroke-linejoin:round;stroke-dasharray:77.193,22.0551;}
	.st54{fill:none;stroke:#554B4E;stroke-width:1.5;stroke-linecap:round;stroke-linejoin:round;stroke-dasharray:75.3802,21.5372;}
	.st55{fill:none;stroke:#554B4E;stroke-width:1.5;stroke-linecap:round;stroke-linejoin:round;stroke-dasharray:73.6885,21.0538;}
	.st56{fill:none;stroke:#554B4E;stroke-width:1.5;stroke-linecap:round;stroke-linejoin:round;stroke-dasharray:63.3162,18.0903;}
	.st57{fill:none;stroke:#554B4E;stroke-width:1.5;stroke-linecap:round;stroke-linejoin:round;stroke-dasharray:62.0513,17.7289;}
	.st58{fill:none;stroke:#554B4E;stroke-width:1.5;stroke-linecap:round;stroke-linejoin:round;stroke-dasharray:68.9157,19.6902;}
	.st59{fill:none;stroke:#554B4E;stroke-linecap:round;stroke-linejoin:round;}
	.st60{fill:none;stroke:#554B4E;stroke-linecap:round;stroke-linejoin:round;stroke-dasharray:14.9905,14.9905;}
	.st61{fill:none;stroke:#554B4E;stroke-linecap:round;stroke-linejoin:round;stroke-dasharray:51.384,34.256;}
	.st62{fill:#95608F;}
	.st63{fill:#ED859E;}
	.st64{fill:#FAC87D;}
	.st65{opacity:0.1;}
	.st66{fill:#B5846F;}
	.st67{fill:#B5846F;stroke:#B5846F;stroke-width:5;stroke-linecap:round;stroke-linejoin:round;stroke-miterlimit:10;}
	.st68{fill:#EAD9EB;}
	.st69{fill:#FFFFFF;}
	.st70{fill:url(#SVGID_00000078029797445283561090000007854460079588325769_);}
	.st71{opacity:0.8;fill:#FFFFFF;}
	.st72{fill:url(#SVGID_00000000941491436412659900000009109177596397556140_);}
	.st73{fill:url(#SVGID_00000000210514361426636930000003592494369213006500_);}
	.st74{opacity:0.8;}
	.st75{opacity:0.6;}
	.st76{opacity:0.2;}
	.st77{fill:none;}
	.st78{fill:url(#SVGID_00000103257447265150912800000014538296605952014233_);}
	.st79{fill:url(#SVGID_00000049924889590907786710000017068498886521818011_);}
	.st80{clip-path:url(#SVGID_00000028307477031177826230000004417566654225413001_);fill:#FFFFFF;}
	.st81{clip-path:url(#SVGID_00000057110186449239755420000001233132601656361345_);fill:#FFFFFF;}
	.st82{clip-path:url(#SVGID_00000153674237182080332250000003457977497697728915_);fill:#FFFFFF;}
	.st83{clip-path:url(#SVGID_00000080921157430002645070000008685737997206672063_);fill:#FFFFFF;}
	.st84{clip-path:url(#SVGID_00000123419949752940618380000008149274648611518909_);fill:#FFFFFF;}
</style>
<g id="Bg">
</g>
<g id="Graphic">
	<g>
		<path class="st8" d="M211.78,191.93c0.01-0.03,0.01-0.06,0.02-0.09c0.08-0.45,0.16-0.91,0.24-1.38c0.01-0.06,0.02-0.12,0.03-0.17
			c0.07-0.48,0.14-0.98,0.2-1.49c0.01-0.05,0.01-0.1,0.02-0.16c0.06-0.52,0.1-1.06,0.14-1.6c0-0.04,0-0.08,0.01-0.13
			c0.03-0.56,0.05-1.13,0.05-1.72c0-0.02,0-0.05,0-0.07c0-0.6-0.02-1.21-0.07-1.83c0,0,0,0,0-0.01c-0.04-0.61-0.11-1.23-0.21-1.86
			c-0.01-0.04-0.01-0.08-0.02-0.11c-0.09-0.6-0.21-1.21-0.36-1.83c-0.02-0.06-0.03-0.13-0.04-0.19c-0.15-0.6-0.32-1.2-0.53-1.81
			c-0.02-0.05-0.03-0.1-0.05-0.16c-0.18-0.09-0.35-0.18-0.52-0.27c-0.38-0.19-0.76-0.39-1.15-0.59c-2.18-1.12-4.32-2.3-6.4-3.51
			c-0.18-0.11-0.37-0.21-0.55-0.32c-0.11-0.06-0.22-0.13-0.33-0.19c0,0,0,0,0,0c-1.1,6.18-2.89,12.18-5.31,17.85
			c-0.12,0.28-0.4,0.46-0.69,0.46c-0.1,0-0.2-0.02-0.29-0.06c-0.38-0.16-0.56-0.6-0.39-0.98c2.38-5.56,4.13-11.46,5.21-17.52
			c0.03-0.19,0.14-0.34,0.28-0.45c-0.18-0.11-0.35-0.21-0.53-0.32c-0.2-0.12-0.39-0.24-0.59-0.35c-0.68-0.42-1.35-0.83-2.02-1.24
			c-0.03-0.02-0.06-0.03-0.08-0.05c-4.45,15.94-11.94,27.17-22.26,33.35c-1.83,1.09-3.73,2.05-5.66,2.84
			c-0.86,0.35-1.73,0.67-2.58,0.96c-3.75,1.25-7.5,1.87-11.17,1.87c-6.04,0-11.88-1.67-17.29-5c-11.6-7.13-20.03-21.18-22.65-37.67
			c-1.81,0.99-3.63,2.04-5.48,3.16c-0.2,0.12-0.41,0.24-0.63,0.37c-0.04,0.02-0.09,0.05-0.14,0.07c-0.18,0.1-0.37,0.21-0.57,0.31
			c-0.06,0.03-0.12,0.06-0.19,0.1c-0.19,0.1-0.39,0.2-0.59,0.31c-0.07,0.04-0.15,0.07-0.22,0.11c-0.2,0.1-0.4,0.2-0.61,0.3
			c-0.09,0.04-0.18,0.09-0.27,0.13c-0.19,0.09-0.4,0.19-0.6,0.28c-0.11,0.05-0.22,0.1-0.33,0.16c-0.05,0.02-0.11,0.05-0.16,0.07
			c-0.49,0.23-1,0.46-1.54,0.69c-0.02,0.01-0.04,0.02-0.05,0.02c-0.48,0.21-0.96,0.42-1.47,0.63c-0.11,0.16-0.21,0.32-0.31,0.48
			c-0.1,0.16-0.2,0.32-0.3,0.48c-0.12,0.2-0.23,0.4-0.34,0.59c-0.09,0.15-0.18,0.31-0.26,0.46c-0.11,0.2-0.21,0.41-0.31,0.61
			c-0.07,0.15-0.15,0.29-0.22,0.44c-0.1,0.21-0.19,0.43-0.28,0.64c-0.06,0.14-0.12,0.28-0.18,0.42c-0.09,0.22-0.17,0.45-0.25,0.67
			c-0.05,0.13-0.1,0.26-0.14,0.39c-0.08,0.25-0.15,0.49-0.22,0.74c-0.03,0.11-0.07,0.22-0.1,0.33c-0.08,0.28-0.14,0.56-0.2,0.85
			c-0.02,0.07-0.04,0.15-0.05,0.22c-0.15,0.72-0.25,1.43-0.3,2.15c-0.01,0.07,0,0.15-0.01,0.22c-0.02,0.29-0.03,0.57-0.04,0.86
			c0,0.12,0.01,0.24,0.01,0.35c0,0.24,0,0.49,0.02,0.73c0.01,0.14,0.02,0.28,0.03,0.41c0.02,0.23,0.03,0.45,0.06,0.68
			c0.02,0.15,0.04,0.3,0.06,0.45c0.03,0.22,0.06,0.43,0.09,0.65c0.03,0.16,0.06,0.32,0.1,0.48c0.04,0.21,0.08,0.41,0.13,0.62
			c0.04,0.17,0.09,0.34,0.13,0.51c0.05,0.2,0.1,0.4,0.16,0.6c0.05,0.17,0.11,0.35,0.17,0.53c0.05,0.17,0.11,0.33,0.16,0.5
			c2.19,1.78,4.32,3.65,6.38,5.46c1.66,1.46,3.23,2.84,4.78,4.12c12.35,10.26,27.63,16.11,43.02,16.45
			c12.9,0.29,26.61-4.34,41.99-14.16c2.24-1.43,4.52-3.01,6.93-4.68C206.59,195.38,209.16,193.61,211.78,191.93z M114.37,191.04
			c-0.11,0.06-0.24,0.09-0.36,0.09c-0.27,0-0.52-0.14-0.66-0.39c-2.86-5.26-5-10.97-6.34-16.97c-0.09-0.4,0.16-0.81,0.57-0.9
			c0.41-0.09,0.8,0.16,0.9,0.57c1.32,5.87,3.4,11.44,6.2,16.58C114.87,190.38,114.74,190.84,114.37,191.04z M126.6,198.38
			c-0.15,0.17-0.36,0.25-0.56,0.25c-0.18,0-0.35-0.06-0.5-0.19c-4.43-3.91-7.85-9.11-9.9-15.05c-0.13-0.39,0.07-0.82,0.46-0.95
			c0.4-0.14,0.82,0.07,0.95,0.46c1.96,5.7,5.24,10.68,9.47,14.42C126.85,197.59,126.88,198.07,126.6,198.38z M195.27,192.7
			c-0.1,0.18-2.54,4.37-7.59,8.38c-0.14,0.11-0.3,0.16-0.46,0.16c-0.22,0-0.44-0.1-0.59-0.28c-0.26-0.33-0.2-0.8,0.12-1.05
			c4.83-3.83,7.2-7.91,7.22-7.95c0.2-0.36,0.66-0.49,1.02-0.28C195.36,191.88,195.48,192.34,195.27,192.7z M201.51,192.21
			c-0.12,0-0.25-0.03-0.37-0.1c-0.36-0.2-0.49-0.66-0.29-1.02c0.02-0.04,2.07-3.74,3.24-9.27c0.08-0.41,0.49-0.67,0.89-0.58
			c0.41,0.08,0.67,0.48,0.58,0.89c-1.22,5.77-3.31,9.54-3.4,9.69C202.03,192.07,201.77,192.21,201.51,192.21z"/>
		<path class="st38" d="M118.48,164.92l-0.82,0.72c2.5,16.17,10.71,29.94,22,36.88c8.31,5.11,17.72,6.14,27.2,2.98
			c0.82-0.27,1.66-0.58,2.49-0.92c1.86-0.76,3.7-1.69,5.46-2.74c10.04-6.02,17.33-17.03,21.67-32.74l-0.24-0.34
			c-2.7-1.72-5.3-3.44-7.73-5.09c-1.3-0.89-2.6-1.7-3.89-2.46c0.77,4.35,0.73,8.65-0.13,12.81c-0.18,0.84-0.39,1.68-0.62,2.49
			c-3.28,11.18-12.34,18.97-23.65,20.34c-1.16,0.14-2.31,0.21-3.45,0.21c-9.56,0-18.36-4.82-23.03-12.87
			c-4.13-7.12-5.14-15.9-2.9-24.89C126.74,160.87,122.65,162.73,118.48,164.92z"/>
		<path class="st38" d="M86.37,177.35c0.28-0.09,0.56-0.17,0.85-0.26c0.28-0.08,0.55-0.17,0.83-0.26c0.27-0.09,0.55-0.17,0.82-0.26
			c0.32-0.1,0.64-0.21,0.96-0.31c0.24-0.08,0.47-0.15,0.71-0.23c0.54-0.18,1.07-0.36,1.6-0.54c0.25-0.09,0.5-0.17,0.75-0.26
			c0.3-0.1,0.61-0.21,0.91-0.32c0.29-0.1,0.58-0.21,0.88-0.31c0.25-0.09,0.5-0.18,0.75-0.27c0.33-0.12,0.66-0.24,0.99-0.36
			c0.18-0.07,0.37-0.14,0.55-0.2c0.38-0.14,0.77-0.29,1.15-0.43c0.09-0.03,0.18-0.07,0.27-0.1c1.44-0.55,2.85-1.11,4.19-1.67
			c0.01,0,0.01,0,0.02,0c3.07-1.29,5.67-2.52,7.37-3.55c8.25-4.99,16.09-8.74,23.98-11.43c0.79-0.27,1.58-0.53,2.37-0.77
			c1.13-0.35,2.25-0.68,3.38-0.99c0.15-0.04,0.3-0.08,0.45-0.12c0.31-0.08,0.61-0.17,0.92-0.25c0.94-0.24,1.88-0.47,2.82-0.68
			c0.18-0.04,0.35-0.08,0.53-0.12c1.28-0.29,2.56-0.55,3.86-0.79c0.8-0.15,1.6-0.27,2.4-0.38c0.09-0.01,0.18-0.02,0.26-0.03
			c0.72-0.1,1.43-0.18,2.15-0.25c0.04,0,0.09-0.01,0.13-0.01c9.48-0.87,18.55,0.87,27.49,5.23c0.32,0.16,0.64,0.31,0.97,0.47
			c0.17,0.09,0.35,0.18,0.52,0.27c0.56,0.29,1.11,0.58,1.67,0.89c0.02,0.01,0.04,0.02,0.06,0.03c0,0,0,0,0.01,0.01
			c1.81,1.01,3.62,2.12,5.42,3.35c7.01,4.77,15.33,10.11,23.89,14.23c0.26,0.12,0.52,0.25,0.78,0.37c0.49,0.23,0.99,0.46,1.48,0.68
			c0.24,0.11,0.49,0.22,0.73,0.33c0.53,0.23,1.06,0.46,1.59,0.68c0.19,0.08,0.39,0.16,0.58,0.24c0.56,0.23,1.13,0.46,1.69,0.68
			c0.16,0.06,0.32,0.12,0.47,0.18c0.58,0.22,1.15,0.43,1.73,0.63c0.1,0.04,0.2,0.07,0.3,0.11c-7.04-4.94-12.6-12.96-18.02-20.77
			c-2.34-3.37-4.54-6.55-6.81-9.39c-10.88-13.65-25.43-21.14-41.02-21.14c-0.15,0-0.3,0-0.45,0c-14.6,0.14-32.41,8.6-45.39,21.56
			c-2.73,2.73-5.49,6.01-8.41,9.49c-5.21,6.2-10.96,13.05-17.38,17.43c0.16-0.05,0.33-0.1,0.49-0.15
			C85.85,177.51,86.11,177.43,86.37,177.35z M189.05,156.72c-0.15,0.17-0.36,0.26-0.57,0.26c-0.17,0-0.35-0.06-0.49-0.18l-3.83-3.28
			c-0.32-0.27-0.35-0.74-0.08-1.06c0.27-0.32,0.75-0.35,1.06-0.08l3.83,3.28C189.28,155.93,189.32,156.4,189.05,156.72z
			 M202.3,165.58c0.34-0.23,0.81-0.14,1.04,0.21c1.04,1.56,2.27,2.95,3.64,4.12c0.32,0.27,0.35,0.74,0.08,1.06
			c-0.15,0.17-0.36,0.26-0.57,0.26c-0.17,0-0.34-0.06-0.49-0.18c-1.48-1.26-2.8-2.75-3.92-4.43
			C201.86,166.27,201.95,165.81,202.3,165.58z M192.63,154.06c0.29-0.29,0.77-0.29,1.06,0l7.33,7.29c0.29,0.29,0.3,0.77,0,1.06
			c-0.15,0.15-0.34,0.22-0.53,0.22c-0.19,0-0.38-0.07-0.53-0.22l-7.34-7.29C192.34,154.83,192.34,154.36,192.63,154.06z
			 M179.86,141.41c0.16-0.38,0.6-0.56,0.98-0.4c3.32,1.41,6.44,3.61,9.03,6.37c0.28,0.3,0.27,0.78-0.04,1.06
			c-0.14,0.13-0.33,0.2-0.51,0.2c-0.2,0-0.4-0.08-0.55-0.24c-2.44-2.61-5.39-4.69-8.52-6.01
			C179.87,142.23,179.7,141.79,179.86,141.41z M171.62,149.21c-0.08,0.41-0.47,0.68-0.88,0.6c-9.09-1.73-18.28-1.55-27.31,0.56
			c-0.06,0.01-0.11,0.02-0.17,0.02c-0.34,0-0.65-0.23-0.73-0.58c-0.09-0.4,0.16-0.81,0.56-0.9c9.23-2.15,18.63-2.34,27.93-0.57
			C171.43,148.42,171.7,148.81,171.62,149.21z M128.33,142.72c11.9-5.85,24.99-8.03,37.85-6.28c0.41,0.06,0.7,0.43,0.64,0.84
			c-0.05,0.41-0.43,0.71-0.84,0.64c-12.57-1.71-25.36,0.42-36.98,6.14c-0.11,0.05-0.22,0.08-0.33,0.08c-0.28,0-0.54-0.15-0.67-0.42
			C127.81,143.35,127.96,142.9,128.33,142.72z M109.71,159.18c12.76-8.73,27.27-14.75,41.95-17.43c0.41-0.07,0.8,0.2,0.87,0.6
			c0.07,0.41-0.2,0.8-0.6,0.87c-14.48,2.64-28.78,8.58-41.37,17.19c-0.13,0.09-0.28,0.13-0.42,0.13c-0.24,0-0.47-0.11-0.62-0.33
			C109.28,159.88,109.37,159.42,109.71,159.18z M99.73,166.97c2.42-1.38,4.79-2.93,7.04-4.61c0.33-0.25,0.8-0.18,1.05,0.15
			c0.25,0.33,0.18,0.8-0.15,1.05c-2.31,1.72-4.73,3.3-7.2,4.71c-0.12,0.07-0.25,0.1-0.37,0.1c-0.26,0-0.51-0.14-0.65-0.38
			C99.25,167.63,99.37,167.17,99.73,166.97z"/>
		<path class="st6" d="M213.49,190.86c4.49-2.76,9.9-5.62,15.66-6.84c-0.06-0.02-0.11-0.04-0.17-0.06
			c-4.89-1.08-10.12-2.96-15.93-5.72C214.34,182.88,214.06,187.26,213.49,190.86z"/>
		<path class="st7" d="M204.96,198.34c2.56-1.77,5.21-3.6,7.9-5.31c5.95-3.78,13.82-8.12,21.92-8.12c0.41,0,0.75-0.34,0.75-0.75
			s-0.34-0.75-0.75-0.75h-2.38c-0.97-0.21-1.93-0.5-2.95-0.87c-9.79-3.62-16.84-13.77-23.65-23.6c-2.35-3.39-4.57-6.59-6.87-9.47
			c-11.17-14.01-26.14-21.7-42.19-21.7c-0.16,0-0.31,0-0.47,0c-15.2,0.14-32.99,8.57-46.43,22c-2.78,2.77-5.56,6.08-8.5,9.59
			c-6.87,8.19-13.98,16.65-22.36,20.03c-1.19,0.48-2.37,0.84-3.5,1.08c-0.41,0.09-0.67,0.48-0.58,0.89s0.48,0.66,0.89,0.58
			c0,0,0,0,0,0c9.08-1.9,17.28,3.49,24.11,9.02c2.23,1.81,4.4,3.71,6.5,5.56c1.67,1.47,3.25,2.85,4.81,4.15
			c12.61,10.48,28.22,16.44,43.94,16.8c0.39,0.01,0.78,0.01,1.17,0.01c12.84,0,26.48-4.72,41.66-14.41
			C200.25,201.6,202.54,200.01,204.96,198.34z M229.14,184.02c-5.76,1.22-11.17,4.08-15.66,6.84c0.57-3.6,0.85-7.98-0.44-12.62
			c5.81,2.76,11.03,4.64,15.93,5.72C229.03,183.98,229.09,184,229.14,184.02z M102.48,160.31c2.92-3.48,5.68-6.77,8.41-9.49
			c12.98-12.96,30.79-21.42,45.39-21.56c0.15,0,0.3,0,0.45,0c15.58,0,30.13,7.49,41.02,21.14c2.27,2.84,4.47,6.02,6.81,9.39
			c5.42,7.81,10.98,15.83,18.02,20.77c-0.1-0.03-0.2-0.07-0.3-0.11c-0.57-0.2-1.15-0.41-1.73-0.63c-0.16-0.06-0.32-0.12-0.47-0.18
			c-0.56-0.22-1.13-0.44-1.69-0.68c-0.19-0.08-0.39-0.16-0.58-0.24c-0.53-0.22-1.06-0.45-1.59-0.68c-0.24-0.11-0.48-0.22-0.73-0.33
			c-0.49-0.22-0.99-0.45-1.48-0.68c-0.26-0.12-0.52-0.25-0.78-0.37c-8.56-4.12-16.87-9.46-23.89-14.23
			c-1.8-1.23-3.61-2.34-5.42-3.35c0,0,0,0-0.01-0.01c-0.02-0.01-0.04-0.02-0.06-0.03c-0.56-0.31-1.11-0.6-1.67-0.89
			c-0.17-0.09-0.35-0.19-0.52-0.27c-0.32-0.16-0.64-0.31-0.97-0.47c-8.95-4.37-18.01-6.1-27.49-5.23c-0.04,0-0.09,0.01-0.13,0.01
			c-0.71,0.07-1.43,0.15-2.15,0.25c-0.09,0.01-0.18,0.02-0.26,0.03c-0.8,0.11-1.6,0.24-2.4,0.38c-1.29,0.24-2.58,0.5-3.86,0.79
			c-0.18,0.04-0.35,0.08-0.53,0.12c-0.94,0.22-1.88,0.44-2.82,0.68c-0.31,0.08-0.61,0.17-0.92,0.25c-0.15,0.04-0.3,0.08-0.45,0.12
			c-1.13,0.31-2.26,0.64-3.38,0.99c-0.79,0.25-1.58,0.51-2.37,0.77c-7.88,2.69-15.73,6.44-23.98,11.43c-1.7,1.03-4.3,2.27-7.37,3.55
			c-0.01,0-0.01,0-0.02,0c-1.34,0.56-2.74,1.12-4.19,1.67c-0.09,0.04-0.18,0.07-0.27,0.1c-0.38,0.15-0.76,0.29-1.15,0.43
			c-0.18,0.07-0.37,0.14-0.55,0.2c-0.33,0.12-0.66,0.24-0.99,0.36c-0.25,0.09-0.5,0.18-0.75,0.27c-0.29,0.1-0.58,0.21-0.88,0.31
			c-0.3,0.11-0.61,0.21-0.91,0.32c-0.25,0.09-0.5,0.17-0.75,0.26c-0.53,0.18-1.07,0.36-1.6,0.54c-0.24,0.08-0.47,0.15-0.71,0.23
			c-0.32,0.1-0.64,0.21-0.96,0.31c-0.27,0.09-0.55,0.17-0.82,0.26c-0.28,0.09-0.55,0.17-0.83,0.26c-0.28,0.09-0.57,0.17-0.85,0.26
			c-0.26,0.08-0.52,0.16-0.79,0.24c-0.17,0.05-0.33,0.1-0.49,0.15C91.52,173.36,97.27,166.51,102.48,160.31z M133.73,184.19
			c4.67,8.04,13.47,12.87,23.03,12.87c1.14,0,2.29-0.07,3.45-0.21c11.31-1.37,20.37-9.16,23.65-20.34c0.24-0.81,0.45-1.65,0.62-2.49
			c0.87-4.16,0.91-8.46,0.13-12.81c1.29,0.77,2.59,1.58,3.89,2.46c2.43,1.65,5.03,3.38,7.73,5.09l0.24,0.34
			c-4.34,15.7-11.63,26.72-21.67,32.74c-1.76,1.06-3.6,1.98-5.46,2.74c-0.83,0.34-1.66,0.65-2.49,0.92
			c-9.49,3.16-18.9,2.12-27.2-2.98c-11.29-6.94-19.5-20.71-22-36.88l0.82-0.72c4.17-2.19,8.26-4.05,12.35-5.62
			C128.58,168.28,129.59,177.07,133.73,184.19z M132.54,158.66c5.32-1.93,10.55-3.35,16-4.34c11.98-2.19,23.23-0.25,34.36,5.9
			c0.99,4.59,1.03,9.12,0.12,13.49c-0.17,0.8-0.37,1.6-0.59,2.38c-3.15,10.75-11.52,17.96-22.39,19.27
			c-10.26,1.24-20.08-3.44-25.01-11.92C130.94,176.4,130.06,167.61,132.54,158.66z M81.96,180.17c5.77-1.52,12.94-3.9,19.1-6.36
			c-2.57,4.69-3.27,9.55-2.09,14.49C93.93,184.41,88.23,180.9,81.96,180.17z M155.18,215.94c-15.39-0.35-30.67-6.19-43.02-16.45
			c-1.55-1.29-3.12-2.66-4.78-4.12c-2.06-1.81-4.18-3.67-6.38-5.46c-0.06-0.17-0.11-0.33-0.16-0.5c-0.06-0.18-0.12-0.35-0.17-0.53
			c-0.06-0.2-0.11-0.4-0.16-0.6c-0.04-0.17-0.09-0.34-0.13-0.51c-0.05-0.21-0.09-0.41-0.13-0.62c-0.03-0.16-0.07-0.32-0.1-0.48
			c-0.04-0.22-0.06-0.43-0.09-0.65c-0.02-0.15-0.05-0.3-0.06-0.45c-0.03-0.23-0.04-0.45-0.06-0.68c-0.01-0.14-0.03-0.28-0.03-0.41
			c-0.01-0.24-0.01-0.49-0.02-0.73c0-0.12-0.01-0.24-0.01-0.35c0-0.29,0.02-0.57,0.04-0.86c0-0.07,0-0.15,0.01-0.22
			c0.05-0.72,0.15-1.44,0.3-2.15c0.02-0.07,0.04-0.15,0.05-0.22c0.06-0.28,0.12-0.56,0.2-0.85c0.03-0.11,0.07-0.22,0.1-0.33
			c0.07-0.25,0.14-0.49,0.22-0.74c0.04-0.13,0.09-0.26,0.14-0.39c0.08-0.22,0.16-0.45,0.25-0.67c0.06-0.14,0.12-0.28,0.18-0.42
			c0.09-0.21,0.18-0.43,0.28-0.64c0.07-0.15,0.15-0.29,0.22-0.44c0.1-0.2,0.2-0.41,0.31-0.61c0.08-0.15,0.17-0.31,0.26-0.46
			c0.11-0.2,0.22-0.4,0.34-0.59c0.09-0.16,0.2-0.32,0.3-0.48c0.1-0.16,0.2-0.32,0.31-0.48c0.51-0.21,1-0.43,1.47-0.63
			c0.02-0.01,0.04-0.02,0.05-0.02c0.54-0.23,1.05-0.47,1.54-0.69c0.05-0.02,0.11-0.05,0.16-0.07c0.11-0.05,0.22-0.1,0.33-0.16
			c0.2-0.1,0.4-0.19,0.6-0.28c0.09-0.04,0.18-0.09,0.27-0.13c0.21-0.1,0.41-0.2,0.61-0.3c0.08-0.04,0.15-0.08,0.22-0.11
			c0.2-0.1,0.4-0.2,0.59-0.31c0.06-0.03,0.12-0.07,0.19-0.1c0.2-0.11,0.39-0.21,0.57-0.31c0.04-0.02,0.09-0.05,0.14-0.07
			c0.22-0.13,0.43-0.25,0.63-0.37c1.85-1.12,3.67-2.16,5.48-3.16c2.62,16.49,11.04,30.54,22.65,37.67c5.41,3.32,11.26,5,17.29,5
			c3.67,0,7.42-0.62,11.17-1.87c0.85-0.28,1.72-0.61,2.58-0.96c1.93-0.79,3.84-1.75,5.66-2.84c10.32-6.19,17.81-17.41,22.26-33.35
			c0.03,0.02,0.06,0.03,0.08,0.05c0.66,0.41,1.34,0.83,2.02,1.24c0.2,0.12,0.39,0.24,0.59,0.35c0.18,0.11,0.35,0.21,0.53,0.32
			c-0.14,0.11-0.25,0.26-0.28,0.45c-1.08,6.07-2.84,11.96-5.21,17.52c-0.16,0.38,0.01,0.82,0.39,0.98c0.1,0.04,0.2,0.06,0.29,0.06
			c0.29,0,0.57-0.17,0.69-0.46c2.42-5.67,4.21-11.67,5.31-17.85c0,0,0,0,0,0c0.11,0.06,0.22,0.13,0.33,0.19
			c0.18,0.11,0.37,0.21,0.55,0.32c2.08,1.21,4.22,2.39,6.4,3.51c0.38,0.2,0.76,0.4,1.15,0.59c0.18,0.09,0.35,0.18,0.52,0.27
			c0.02,0.05,0.03,0.11,0.05,0.16c0.2,0.61,0.38,1.21,0.53,1.81c0.02,0.06,0.03,0.13,0.04,0.19c0.15,0.61,0.27,1.23,0.36,1.83
			c0.01,0.04,0.01,0.08,0.02,0.11c0.09,0.63,0.16,1.25,0.21,1.86c0,0,0,0,0,0.01c0.04,0.62,0.06,1.23,0.07,1.83
			c0,0.02,0,0.05,0,0.07c0,0.58-0.02,1.15-0.05,1.72c0,0.04,0,0.08-0.01,0.13c-0.03,0.55-0.08,1.08-0.14,1.6
			c-0.01,0.05-0.01,0.1-0.02,0.16c-0.06,0.51-0.12,1.01-0.2,1.49c-0.01,0.06-0.02,0.12-0.03,0.17c-0.07,0.48-0.15,0.94-0.24,1.38
			c-0.01,0.03-0.01,0.06-0.02,0.09c-2.62,1.67-5.18,3.45-7.67,5.17c-2.41,1.67-4.69,3.25-6.93,4.68
			C181.8,211.6,168.08,216.23,155.18,215.94z"/>
		<path class="st7" d="M117.06,182.9c-0.13-0.39-0.56-0.6-0.95-0.46c-0.39,0.13-0.6,0.56-0.46,0.95c2.05,5.94,5.47,11.15,9.9,15.05
			c0.14,0.13,0.32,0.19,0.5,0.19c0.21,0,0.41-0.09,0.56-0.25c0.27-0.31,0.24-0.78-0.07-1.06C122.3,193.58,119.03,188.6,117.06,182.9
			z"/>
		<path class="st7" d="M108.48,173.44c-0.09-0.4-0.49-0.66-0.9-0.57c-0.4,0.09-0.66,0.49-0.57,0.9c1.34,6,3.48,11.71,6.34,16.97
			c0.14,0.25,0.39,0.39,0.66,0.39c0.12,0,0.24-0.03,0.36-0.09c0.36-0.2,0.5-0.65,0.3-1.02C111.88,184.88,109.79,179.3,108.48,173.44
			z"/>
		<path class="st7" d="M195,191.68c-0.36-0.21-0.82-0.08-1.02,0.28c-0.02,0.04-2.39,4.12-7.22,7.95c-0.32,0.26-0.38,0.73-0.12,1.05
			c0.15,0.19,0.37,0.28,0.59,0.28c0.16,0,0.33-0.05,0.46-0.16c5.05-4,7.49-8.2,7.59-8.38C195.48,192.34,195.36,191.88,195,191.68z"
			/>
		<path class="st7" d="M204.98,181.25c-0.4-0.09-0.8,0.17-0.89,0.58c-1.17,5.53-3.22,9.23-3.24,9.27c-0.2,0.36-0.07,0.82,0.29,1.02
			c0.12,0.07,0.24,0.1,0.37,0.1c0.26,0,0.52-0.14,0.65-0.38c0.09-0.16,2.18-3.92,3.4-9.69
			C205.65,181.73,205.39,181.33,204.98,181.25z"/>
		<path class="st7" d="M110.13,160.55c0.15,0,0.29-0.04,0.42-0.13c12.59-8.61,26.9-14.55,41.37-17.19c0.41-0.07,0.68-0.46,0.6-0.87
			c-0.08-0.41-0.47-0.67-0.87-0.6c-14.68,2.68-29.19,8.7-41.95,17.43c-0.34,0.23-0.43,0.7-0.2,1.04
			C109.66,160.44,109.89,160.55,110.13,160.55z"/>
		<path class="st7" d="M199.97,162.42c0.15,0.15,0.34,0.22,0.53,0.22c0.19,0,0.39-0.07,0.53-0.22c0.29-0.29,0.29-0.77,0-1.06
			l-7.33-7.29c-0.29-0.29-0.77-0.29-1.06,0c-0.29,0.29-0.29,0.77,0,1.06L199.97,162.42z"/>
		<path class="st8" d="M160.03,195.36c10.87-1.32,19.24-8.52,22.39-19.27c0.23-0.77,0.43-1.57,0.59-2.38
			c0.91-4.37,0.87-8.9-0.12-13.49c-11.13-6.16-22.38-8.09-34.36-5.9c-5.45,0.99-10.68,2.41-16,4.34
			c-2.49,8.95-1.61,17.73,2.48,24.77C139.96,191.92,149.78,196.6,160.03,195.36z M146.15,163.12c2.14-3.44,5.35-5.76,8.8-6.36
			c3.12-0.54,6.27,0.32,9.14,2.46c2.58-1.16,5.96-0.61,8.26,1.44c2.23,1.99,2.84,4.79,1.65,7.67c-0.58,1.42-1.57,2.48-2.83,3.14
			c0.33,2.58,0.06,5.11-0.8,7.37c1.04,0.97,1.78,2.07,2.01,2.42c0.69,1.08,0.87,1.98,0.52,2.69c-0.31,0.62-0.96,0.98-1.94,1.06
			c-0.06,0-0.12,0.01-0.18,0.01c-1.19,0-2.48-0.94-3.26-1.63c-2.58,2.73-6.22,4.66-10.15,4.66c-2.6,0-5.32-0.84-7.94-2.83
			C143.68,180.85,140.71,171.86,146.15,163.12z"/>
		<path class="st8" d="M169,179.64c-0.43-0.36-0.84-0.6-1.19-0.72c-0.16-0.06-0.31-0.09-0.44-0.09c0,0-0.01,0-0.01,0
			c-0.47,0.01-0.82,0.11-0.88,0.26c-0.14,0.33,0.25,1.42,1.52,2.72c1.17,1.19,2.33,1.77,2.83,1.72c0.5-0.04,0.69-0.17,0.72-0.23
			c0.05-0.1,0.03-0.49-0.44-1.21C170.66,181.37,169.86,180.35,169,179.64z"/>
		<path class="st8" d="M162.92,167.28c1.19,2.69,4.54,4.13,7.15,3.08c1.15-0.46,2.03-1.36,2.53-2.6c0.93-2.26,0.47-4.44-1.26-5.98
			c-1.94-1.73-4.94-2.18-6.99-1.04c-0.16,0.09-0.31,0.18-0.45,0.28c-0.17,0.12-0.33,0.25-0.48,0.38
			C162.02,162.74,161.84,164.83,162.92,167.28z"/>
		<path class="st6" d="M150.33,184.02c3.93,2.99,10.5,4.33,16.13-1.69c-0.01-0.01-0.01-0.01-0.02-0.02
			c-0.08-0.09-0.16-0.2-0.25-0.31c-0.02-0.02-0.03-0.04-0.05-0.07c-0.09-0.12-0.18-0.24-0.27-0.37c-0.02-0.03-0.04-0.06-0.06-0.08
			c-0.09-0.13-0.17-0.26-0.25-0.39c-0.01-0.01-0.01-0.02-0.02-0.04c-0.08-0.14-0.16-0.29-0.23-0.43c-0.02-0.03-0.03-0.07-0.05-0.1
			c-0.07-0.15-0.13-0.3-0.17-0.45c-0.01-0.02-0.01-0.05-0.02-0.07c-0.04-0.14-0.07-0.28-0.09-0.42c0-0.03-0.01-0.05-0.01-0.08
			c-0.02-0.15-0.02-0.3-0.01-0.45c0-0.03,0.01-0.06,0.01-0.1c0.02-0.15,0.05-0.3,0.11-0.45c0.22-0.53,0.79-1.17,2.25-1.19
			c0.01,0,0.02,0,0.03,0c0.03,0,0.06,0.01,0.09,0.01c0.13,0.01,0.25,0.02,0.39,0.05c0.09,0.02,0.18,0.04,0.27,0.06
			c0.11,0.03,0.22,0.07,0.33,0.11c0.07,0.03,0.13,0.04,0.2,0.08c0.16,0.07,0.32,0.15,0.48,0.25c0.61-1.81,0.82-3.8,0.6-5.84
			c-3.19,0.75-6.78-0.99-8.18-4.15c-1.35-3.04-1.04-5.8,0.85-7.58c0.09-0.09,0.19-0.17,0.29-0.26c-1.9-1.29-3.91-1.96-5.92-1.96
			c-0.53,0-1.05,0.04-1.57,0.14c-3.03,0.53-5.86,2.59-7.78,5.68C143.66,169.95,143.46,178.8,150.33,184.02z"/>
		<path class="st7" d="M149.42,185.22c2.63,2,5.35,2.83,7.94,2.83c3.93,0,7.56-1.93,10.15-4.66c0.78,0.69,2.07,1.63,3.26,1.63
			c0.06,0,0.12,0,0.18-0.01c0.98-0.08,1.64-0.44,1.94-1.06c0.35-0.71,0.17-1.61-0.52-2.69c-0.22-0.34-0.97-1.44-2.01-2.42
			c0.86-2.26,1.13-4.79,0.8-7.37c1.26-0.66,2.25-1.72,2.83-3.14c1.19-2.88,0.58-5.68-1.65-7.67c-2.3-2.05-5.68-2.6-8.26-1.44
			c-2.87-2.15-6.02-3.01-9.14-2.46c-3.45,0.6-6.66,2.92-8.8,6.36C140.71,171.86,143.68,180.85,149.42,185.22z M171.11,182.07
			c0.46,0.72,0.49,1.11,0.44,1.21c-0.03,0.06-0.22,0.19-0.72,0.23c-0.5,0.04-1.66-0.54-2.83-1.72c-1.27-1.29-1.66-2.39-1.52-2.72
			c0.06-0.15,0.41-0.25,0.88-0.26c0,0,0.01,0,0.01,0c0.13,0,0.28,0.04,0.44,0.09c0.35,0.12,0.75,0.36,1.19,0.72
			C169.86,180.35,170.66,181.37,171.11,182.07z M163.91,161.02c0.14-0.1,0.29-0.19,0.45-0.28c2.05-1.13,5.05-0.68,6.99,1.04
			c1.73,1.54,2.19,3.72,1.26,5.98c-0.51,1.24-1.39,2.14-2.53,2.6c-2.61,1.05-5.96-0.39-7.15-3.08c-1.09-2.46-0.91-4.54,0.51-5.88
			C163.58,161.27,163.74,161.14,163.91,161.02z M147.42,163.91c1.92-3.08,4.75-5.15,7.78-5.68c0.52-0.09,1.05-0.14,1.57-0.14
			c2.01,0,4.02,0.66,5.92,1.96c-0.1,0.08-0.2,0.17-0.29,0.26c-1.89,1.78-2.2,4.54-0.85,7.58c1.4,3.16,4.99,4.9,8.18,4.15
			c0.21,2.04,0.01,4.03-0.6,5.84c-0.16-0.1-0.32-0.18-0.48-0.25c-0.07-0.03-0.13-0.05-0.2-0.08c-0.11-0.04-0.22-0.08-0.33-0.11
			c-0.09-0.03-0.18-0.05-0.27-0.06c-0.13-0.02-0.26-0.04-0.39-0.05c-0.03,0-0.06-0.01-0.09-0.01c-0.01,0-0.02,0-0.03,0
			c-1.46,0.02-2.03,0.66-2.25,1.19c-0.06,0.15-0.09,0.3-0.11,0.45c0,0.03-0.01,0.06-0.01,0.1c-0.01,0.15-0.01,0.3,0.01,0.45
			c0,0.03,0.01,0.05,0.01,0.08c0.02,0.14,0.05,0.28,0.09,0.42c0.01,0.02,0.01,0.05,0.02,0.07c0.05,0.15,0.11,0.3,0.17,0.45
			c0.02,0.03,0.03,0.07,0.05,0.1c0.07,0.15,0.15,0.29,0.23,0.43c0.01,0.01,0.01,0.02,0.02,0.04c0.08,0.14,0.16,0.27,0.25,0.39
			c0.02,0.03,0.04,0.06,0.06,0.08c0.09,0.13,0.18,0.25,0.27,0.37c0.02,0.02,0.03,0.04,0.05,0.07c0.09,0.11,0.17,0.21,0.25,0.31
			c0.01,0.01,0.01,0.01,0.02,0.02c-5.63,6.02-12.2,4.68-16.13,1.69C143.46,178.8,143.66,169.95,147.42,163.91z"/>
		<path class="st7" d="M100.11,168.37c0.13,0,0.25-0.03,0.37-0.1c2.47-1.41,4.89-2.99,7.2-4.71c0.33-0.25,0.4-0.72,0.15-1.05
			c-0.25-0.33-0.72-0.4-1.05-0.15c-2.26,1.68-4.63,3.23-7.04,4.61c-0.36,0.21-0.48,0.66-0.28,1.02
			C99.59,168.23,99.84,168.37,100.11,168.37z"/>
		<path class="st7" d="M128.66,144.14c0.11,0,0.22-0.02,0.33-0.08c11.63-5.72,24.41-7.85,36.98-6.14c0.42,0.06,0.79-0.23,0.84-0.64
			c0.06-0.41-0.23-0.79-0.64-0.84c-12.86-1.75-25.95,0.43-37.85,6.28c-0.37,0.18-0.52,0.63-0.34,1
			C128.12,143.99,128.39,144.14,128.66,144.14z"/>
		<path class="st7" d="M143.1,148.91c-0.4,0.09-0.65,0.5-0.56,0.9c0.08,0.35,0.39,0.58,0.73,0.58c0.06,0,0.11-0.01,0.17-0.02
			c9.03-2.1,18.22-2.29,27.31-0.56c0.41,0.08,0.8-0.19,0.88-0.6c0.08-0.41-0.19-0.8-0.6-0.88
			C161.73,146.56,152.33,146.75,143.1,148.91z"/>
		<path class="st7" d="M180.25,142.39c3.13,1.33,6.08,3.41,8.52,6.01c0.15,0.16,0.35,0.24,0.55,0.24c0.18,0,0.37-0.07,0.51-0.2
			c0.3-0.28,0.32-0.76,0.04-1.06c-2.59-2.76-5.71-4.96-9.03-6.37c-0.38-0.16-0.82,0.02-0.98,0.4
			C179.7,141.79,179.87,142.23,180.25,142.39z"/>
		<path class="st7" d="M206.01,171.05c0.14,0.12,0.31,0.18,0.49,0.18c0.21,0,0.42-0.09,0.57-0.26c0.27-0.32,0.23-0.79-0.08-1.06
			c-1.38-1.17-2.6-2.56-3.64-4.12c-0.23-0.34-0.7-0.44-1.04-0.21c-0.34,0.23-0.44,0.7-0.21,1.04
			C203.21,168.3,204.53,169.79,206.01,171.05z"/>
		<path class="st7" d="M185.13,152.38c-0.31-0.27-0.79-0.23-1.06,0.08c-0.27,0.31-0.23,0.79,0.08,1.06l3.83,3.28
			c0.14,0.12,0.31,0.18,0.49,0.18c0.21,0,0.42-0.09,0.57-0.26c0.27-0.31,0.23-0.79-0.08-1.06L185.13,152.38z"/>
		<path class="st6" d="M101.06,173.8c-6.16,2.46-13.33,4.85-19.1,6.36c6.27,0.74,11.98,4.25,17.01,8.13
			C97.78,183.35,98.48,178.5,101.06,173.8z"/>
		<path class="st6" d="M153.97,66.95c0.41,0,0.75-0.34,0.75-0.75l0-65L153.97,0l-0.75,1.22l0,64.98
			C153.22,66.61,153.56,66.95,153.97,66.95z"/>
		<path class="st6" d="M153.97,85.12c-0.41,0-0.75,0.34-0.75,0.75l0,35c0,0.41,0.34,0.75,0.75,0.75s0.75-0.34,0.75-0.75l0-35
			C154.72,85.46,154.38,85.12,153.97,85.12z"/>
		<path class="st6" d="M158.77,222.67C158.77,222.67,158.76,222.67,158.77,222.67c-0.42,0-0.75,0.33-0.76,0.74l-0.46,35
			c0,0.41,0.33,0.75,0.74,0.76c0,0,0.01,0,0.01,0c0.41,0,0.74-0.33,0.75-0.74l0.46-35C159.51,223.02,159.18,222.68,158.77,222.67z"
			/>
		<path class="st6" d="M158.04,278.08c-0.42-0.01-0.75,0.33-0.76,0.74l-0.07,5.2h1.5l0.07-5.18
			C158.79,278.43,158.46,278.09,158.04,278.08z"/>
		<path class="st6" d="M119.72,132.5c0.14,0.24,0.39,0.38,0.65,0.38c0.13,0,0.25-0.03,0.37-0.1c0.36-0.21,0.49-0.66,0.28-1.02
			l-17.33-30.41c-0.21-0.36-0.67-0.49-1.02-0.28c-0.36,0.21-0.49,0.66-0.28,1.02L119.72,132.5z"/>
		<path class="st6" d="M195.56,212.67c-0.25-0.33-0.72-0.39-1.05-0.14c-0.33,0.25-0.39,0.72-0.14,1.05l21.16,27.88
			c0.15,0.19,0.37,0.3,0.6,0.3c0.16,0,0.32-0.05,0.45-0.15c0.33-0.25,0.39-0.72,0.14-1.05L195.56,212.67z"/>
		<path class="st6" d="M226.27,254.37c-0.33,0.25-0.39,0.72-0.14,1.05l21.7,28.59h1.88l-22.39-29.5
			C227.07,254.19,226.6,254.12,226.27,254.37z"/>
		<path class="st6" d="M98.83,152.44c0.28,0,0.55-0.16,0.68-0.43c0.18-0.37,0.02-0.82-0.35-1l-29.82-14.26l-0.79,1.28l29.97,14.33
			C98.61,152.42,98.72,152.44,98.83,152.44z"/>
		<path class="st6" d="M253.2,211.31c0.29,0,0.56-0.17,0.69-0.45c0.17-0.38-0.01-0.82-0.38-0.99l-32.05-14.07
			c-0.38-0.17-0.82,0-0.99,0.38c-0.17,0.38,0.01,0.82,0.38,0.99l32.05,14.07C253,211.29,253.1,211.31,253.2,211.31z"/>
		<path class="st6" d="M271.94,219.6l24.66,10.83l-1.39-2.25l-22.67-9.95c-0.38-0.17-0.82,0-0.99,0.38
			C271.39,219,271.56,219.44,271.94,219.6z"/>
		<path class="st6" d="M74.42,172.7c0-0.41-0.34-0.74-0.75-0.74c0,0,0,0-0.01,0l-26.29,0.26l-0.93,1.51l27.24-0.27
			C74.1,173.46,74.43,173.12,74.42,172.7z"/>
		<path class="st6" d="M243.32,178.98c0,0.41,0.34,0.75,0.75,0.75c0,0,0,0,0,0l21.11-0.06l-0.93-1.5l-20.19,0.06
			C243.65,178.23,243.31,178.57,243.32,178.98z"/>
		<path class="st6" d="M40.71,216.85c-0.17-0.38-0.61-0.55-0.99-0.38l-27.09,11.88l-1.39,2.25l29.08-12.76
			C40.7,217.67,40.87,217.23,40.71,216.85z"/>
		<path class="st6" d="M91.05,193.95L59,208.01c-0.38,0.17-0.55,0.61-0.38,0.99c0.12,0.28,0.4,0.45,0.69,0.45
			c0.1,0,0.2-0.02,0.3-0.06l32.05-14.06c0.38-0.17,0.55-0.61,0.38-0.99C91.87,193.95,91.43,193.78,91.05,193.95z"/>
		<path class="st6" d="M214.47,155.11c0.11,0,0.22-0.02,0.33-0.08l26.92-13.26l-0.79-1.28l-26.79,13.19c-0.37,0.18-0.52,0.63-0.34,1
			C213.93,154.96,214.2,155.11,214.47,155.11z"/>
		<path class="st6" d="M89.61,256.95l-21.6,27.07h1.92l20.86-26.13c0.26-0.32,0.21-0.8-0.12-1.05
			C90.35,256.58,89.87,256.63,89.61,256.95z"/>
		<path class="st6" d="M123.56,215.62c-0.32-0.26-0.79-0.21-1.05,0.12l-21.83,27.36c-0.26,0.32-0.21,0.8,0.12,1.05
			c0.14,0.11,0.3,0.16,0.47,0.16c0.22,0,0.44-0.1,0.59-0.28l21.83-27.36C123.93,216.35,123.88,215.88,123.56,215.62z"/>
		<path class="st6" d="M191.5,132.02c0.12,0.06,0.24,0.09,0.36,0.09c0.26,0,0.52-0.14,0.66-0.38l17.04-30.57
			c0.2-0.36,0.07-0.82-0.29-1.02c-0.36-0.2-0.82-0.07-1.02,0.29L191.21,131C191.01,131.36,191.14,131.82,191.5,132.02z"/>
		<path class="st7" d="M126.72,83.38c0.05,0,0.1,0,0.14-0.01c0.41-0.08,0.67-0.47,0.59-0.88l-2.87-14.78
			c-0.08-0.41-0.48-0.68-0.88-0.59c-0.41,0.08-0.67,0.47-0.59,0.88l2.87,14.78C126.05,83.13,126.37,83.38,126.72,83.38z"/>
		<path class="st7" d="M131.5,108.01c0.05,0,0.1,0,0.14-0.01c0.41-0.08,0.67-0.47,0.59-0.88l-2.87-14.78
			c-0.08-0.41-0.48-0.68-0.88-0.59c-0.41,0.08-0.67,0.47-0.59,0.88l2.87,14.78C130.83,107.76,131.15,108.01,131.5,108.01z"/>
		<path class="st7" d="M121.94,58.75c0.05,0,0.1,0,0.14-0.01c0.41-0.08,0.67-0.47,0.59-0.88l-1.08-5.56l-1.16,1.88l0.77,3.97
			C121.28,58.5,121.59,58.75,121.94,58.75z"/>
		<path class="st7" d="M134.83,125.22c0.05,0,0.1,0,0.14-0.01c0.41-0.08,0.67-0.47,0.59-0.88l-1.43-7.36
			c-0.08-0.41-0.48-0.68-0.88-0.59c-0.41,0.08-0.67,0.47-0.59,0.88l1.43,7.36C134.17,124.97,134.48,125.22,134.83,125.22z"/>
		<path class="st7" d="M179.66,220.76c-0.13-0.39-0.55-0.61-0.94-0.49c-0.39,0.13-0.61,0.55-0.49,0.94l2.28,7.14
			c0.1,0.32,0.4,0.52,0.71,0.52c0.08,0,0.15-0.01,0.23-0.04c0.39-0.13,0.61-0.55,0.49-0.94L179.66,220.76z"/>
		<path class="st7" d="M192.6,261.24c-0.13-0.39-0.55-0.61-0.94-0.49c-0.39,0.13-0.61,0.55-0.49,0.94l4.57,14.29
			c0.1,0.32,0.4,0.52,0.71,0.52c0.08,0,0.15-0.01,0.23-0.04c0.39-0.13,0.61-0.55,0.49-0.94L192.6,261.24z"/>
		<path class="st7" d="M184.99,237.43c-0.13-0.39-0.55-0.61-0.94-0.49c-0.39,0.13-0.61,0.55-0.49,0.94l4.57,14.29
			c0.1,0.32,0.4,0.52,0.71,0.52c0.08,0,0.15-0.01,0.23-0.04c0.39-0.13,0.61-0.55,0.49-0.94L184.99,237.43z"/>
		<path class="st7" d="M95.94,129.64c0.14,0.14,0.33,0.2,0.51,0.2c0.2,0,0.4-0.08,0.55-0.24c0.28-0.3,0.27-0.78-0.03-1.06
			L86.1,118.36c-0.3-0.28-0.78-0.27-1.06,0.03c-0.28,0.3-0.27,0.78,0.03,1.06L95.94,129.64z"/>
		<path class="st7" d="M103.16,135.37c-0.28,0.3-0.27,0.78,0.03,1.06l5.47,5.13c0.14,0.14,0.33,0.2,0.51,0.2
			c0.2,0,0.4-0.08,0.55-0.24c0.28-0.3,0.27-0.78-0.03-1.06l-5.47-5.13C103.91,135.05,103.44,135.07,103.16,135.37z"/>
		<path class="st7" d="M207.63,205.17c-0.25,0.33-0.18,0.8,0.15,1.05l5.98,4.52c0.14,0.1,0.29,0.15,0.45,0.15
			c0.23,0,0.45-0.1,0.6-0.3c0.25-0.33,0.18-0.8-0.15-1.05l-5.98-4.52C208.35,204.77,207.88,204.84,207.63,205.17z"/>
		<path class="st7" d="M284.39,262.22c-0.33-0.25-0.8-0.18-1.05,0.15c-0.25,0.33-0.18,0.8,0.15,1.05l12.3,9.3
			c0.14,0.1,0.29,0.15,0.45,0.15c0.23,0,0.45-0.1,0.6-0.3c0.25-0.33,0.18-0.8-0.15-1.05L284.39,262.22z"/>
		<path class="st7" d="M243.38,231.23c-0.33-0.25-0.8-0.18-1.05,0.15c-0.25,0.33-0.18,0.8,0.15,1.05l12.3,9.3
			c0.14,0.1,0.29,0.15,0.45,0.15c0.23,0,0.45-0.1,0.6-0.3c0.25-0.33,0.18-0.8-0.15-1.05L243.38,231.23z"/>
		<path class="st7" d="M263.88,246.73c-0.33-0.25-0.8-0.18-1.05,0.15c-0.25,0.33-0.18,0.8,0.15,1.05l12.3,9.3
			c0.14,0.1,0.29,0.15,0.45,0.15c0.23,0,0.45-0.1,0.6-0.3c0.25-0.33,0.18-0.8-0.15-1.05L263.88,246.73z"/>
		<path class="st7" d="M304.9,277.71c-0.33-0.25-0.8-0.18-1.05,0.15c-0.25,0.33-0.18,0.8,0.15,1.05l6.76,5.11h2.49L304.9,277.71z"/>
		<path class="st7" d="M234.72,226.38c0.23,0,0.45-0.1,0.6-0.3c0.25-0.33,0.18-0.8-0.15-1.05l-12.3-9.3
			c-0.33-0.25-0.8-0.18-1.05,0.15c-0.25,0.33-0.18,0.8,0.15,1.05l12.3,9.3C234.41,226.33,234.56,226.38,234.72,226.38z"/>
		<path class="st7" d="M70.53,158.65c0.34,0,0.65-0.23,0.73-0.58c0.09-0.4-0.16-0.81-0.56-0.9l-12.25-2.83l-0.83,1.35l12.75,2.94
			C70.42,158.64,70.47,158.65,70.53,158.65z"/>
		<path class="st7" d="M80.59,159.45c-0.41-0.1-0.81,0.16-0.9,0.56c-0.09,0.4,0.16,0.81,0.56,0.9l7.31,1.69
			c0.06,0.01,0.11,0.02,0.17,0.02c0.34,0,0.65-0.23,0.73-0.58c0.09-0.4-0.16-0.81-0.56-0.9L80.59,159.45z"/>
		<path class="st7" d="M238.36,189.89c-0.41-0.08-0.8,0.18-0.88,0.59c-0.08,0.41,0.18,0.8,0.59,0.88l7.35,1.48
			c0.05,0.01,0.1,0.01,0.15,0.01c0.35,0,0.66-0.25,0.73-0.6c0.08-0.41-0.18-0.8-0.59-0.88L238.36,189.89z"/>
		<path class="st7" d="M254.63,193.93c-0.08,0.41,0.18,0.8,0.59,0.88l14.71,2.95c0.05,0.01,0.1,0.01,0.15,0.01
			c0.35,0,0.66-0.25,0.73-0.6c0.08-0.41-0.18-0.8-0.59-0.88l-14.71-2.95C255.11,193.26,254.71,193.52,254.63,193.93z"/>
		<path class="st7" d="M52.53,190.6l-14.71,3.04c-0.41,0.08-0.67,0.48-0.58,0.89c0.07,0.35,0.39,0.6,0.73,0.6
			c0.05,0,0.1,0,0.15-0.02l14.71-3.04c0.41-0.08,0.67-0.48,0.58-0.89C53.34,190.78,52.94,190.52,52.53,190.6z"/>
		<path class="st7" d="M69.68,187.06l-7.35,1.52c-0.41,0.08-0.67,0.48-0.58,0.89c0.07,0.35,0.39,0.6,0.73,0.6
			c0.05,0,0.1,0,0.15-0.02l7.34-1.52c0.41-0.08,0.67-0.48,0.58-0.89C70.49,187.23,70.08,186.98,69.68,187.06z"/>
		<path class="st7" d="M231.11,163.65l-7.35,1.49c-0.41,0.08-0.67,0.48-0.59,0.88c0.07,0.36,0.39,0.6,0.73,0.6
			c0.05,0,0.1,0,0.15-0.01l7.35-1.49c0.41-0.08,0.67-0.48,0.59-0.88C231.91,163.83,231.52,163.57,231.11,163.65z"/>
		<path class="st7" d="M240.37,162.54c0.07,0.36,0.39,0.6,0.73,0.6c0.05,0,0.1,0,0.15-0.01l12.15-2.47l-0.84-1.36l-11.61,2.36
			C240.55,161.73,240.29,162.13,240.37,162.54z"/>
		<path class="st7" d="M51.32,243.9l-11.78,8.79c-0.33,0.25-0.4,0.72-0.15,1.05c0.15,0.2,0.37,0.3,0.6,0.3
			c0.16,0,0.31-0.05,0.45-0.15l11.78-8.79c0.33-0.25,0.4-0.72,0.15-1.05C52.13,243.72,51.66,243.65,51.32,243.9z"/>
		<path class="st7" d="M31.7,258.55l-11.77,8.79c-0.33,0.25-0.4,0.72-0.15,1.05c0.15,0.2,0.37,0.3,0.6,0.3
			c0.16,0,0.31-0.05,0.45-0.15l11.77-8.79c0.33-0.25,0.4-0.72,0.15-1.05C32.5,258.37,32.03,258.3,31.7,258.55z"/>
		<path class="st7" d="M12.08,273.2L0.3,281.99c-0.33,0.25-0.4,0.72-0.15,1.05c0.15,0.2,0.37,0.3,0.6,0.3
			c0.16,0,0.31-0.05,0.45-0.15l11.77-8.79c0.33-0.25,0.4-0.72,0.15-1.05C12.88,273.02,12.41,272.95,12.08,273.2z"/>
		<path class="st7" d="M90.57,214.59l-11.77,8.79c-0.33,0.25-0.4,0.72-0.15,1.05c0.15,0.2,0.37,0.3,0.6,0.3
			c0.16,0,0.31-0.05,0.45-0.15l11.77-8.79c0.33-0.25,0.4-0.72,0.15-1.05C91.38,214.41,90.9,214.34,90.57,214.59z"/>
		<path class="st7" d="M72,229.4c-0.25-0.33-0.72-0.4-1.05-0.15l-11.77,8.79c-0.33,0.25-0.4,0.72-0.15,1.05
			c0.15,0.2,0.37,0.3,0.6,0.3c0.16,0,0.31-0.05,0.45-0.15l11.77-8.79C72.18,230.2,72.25,229.73,72,229.4z"/>
		<path class="st7" d="M105.48,204.4c-0.25-0.33-0.72-0.4-1.05-0.15l-6.01,4.49c-0.33,0.25-0.4,0.72-0.15,1.05
			c0.15,0.2,0.37,0.3,0.6,0.3c0.16,0,0.31-0.05,0.45-0.15l6.01-4.49C105.66,205.2,105.73,204.73,105.48,204.4z"/>
		<path class="st7" d="M205.45,143.89c0.15,0.15,0.34,0.23,0.54,0.23c0.19,0,0.38-0.07,0.52-0.21l5.38-5.23
			c0.3-0.29,0.3-0.76,0.02-1.06c-0.29-0.3-0.76-0.3-1.06-0.02l-5.38,5.23C205.17,143.12,205.16,143.59,205.45,143.89z"/>
		<path class="st7" d="M218.42,132.04c0.19,0,0.38-0.07,0.52-0.21l10.38-10.08l-0.8-1.3c-0.01,0.01-0.03,0.02-0.05,0.03
			l-10.58,10.28c-0.3,0.29-0.3,0.76-0.02,1.06C218.03,131.96,218.23,132.04,218.42,132.04z"/>
		<path class="st7" d="M133.47,238.26c-0.39-0.14-0.82,0.05-0.97,0.44l-5.31,14.12c-0.15,0.39,0.05,0.82,0.44,0.97
			c0.09,0.03,0.18,0.05,0.26,0.05c0.3,0,0.59-0.19,0.7-0.49l5.31-14.12C134.05,238.84,133.85,238.41,133.47,238.26z"/>
		<path class="st7" d="M124.61,261.79c-0.38-0.14-0.82,0.05-0.97,0.44l-5.31,14.12c-0.15,0.39,0.05,0.82,0.44,0.97
			c0.09,0.03,0.18,0.05,0.26,0.05c0.3,0,0.59-0.19,0.7-0.49l5.31-14.12C125.2,262.37,125,261.94,124.61,261.79z"/>
		<path class="st7" d="M139.65,221.83c-0.38-0.14-0.82,0.05-0.97,0.44l-2.64,7.02c-0.15,0.39,0.05,0.82,0.44,0.97
			c0.09,0.03,0.18,0.05,0.26,0.05c0.3,0,0.59-0.19,0.7-0.49l2.64-7.02C140.23,222.41,140.04,221.98,139.65,221.83z"/>
		<path class="st7" d="M175.31,124.52c0.05,0.01,0.09,0.01,0.14,0.01c0.35,0,0.67-0.25,0.74-0.61l1.38-7.37
			c0.08-0.41-0.19-0.8-0.6-0.88c-0.41-0.08-0.8,0.19-0.88,0.6l-1.38,7.37C174.64,124.05,174.91,124.44,175.31,124.52z"/>
		<path class="st7" d="M187.75,58.16c0.05,0.01,0.09,0.01,0.14,0.01c0.35,0,0.67-0.25,0.74-0.61l0.23-1.21l-1.17-1.89l-0.53,2.83
			C187.07,57.69,187.34,58.09,187.75,58.16z"/>
		<path class="st7" d="M183.14,82.74c0.05,0.01,0.09,0.01,0.14,0.01c0.35,0,0.67-0.25,0.74-0.61l2.76-14.75
			c0.08-0.41-0.19-0.8-0.6-0.88c-0.41-0.08-0.8,0.19-0.88,0.6l-2.76,14.75C182.47,82.27,182.74,82.66,183.14,82.74z"/>
		<path class="st7" d="M178.54,107.32c0.05,0.01,0.09,0.01,0.14,0.01c0.35,0,0.67-0.25,0.74-0.61l2.76-14.75
			c0.08-0.41-0.19-0.8-0.6-0.88c-0.41-0.08-0.8,0.19-0.88,0.6l-2.76,14.75C177.86,106.85,178.13,107.24,178.54,107.32z"/>
	</g>
</g>
<g id="Guide">
</g>
</svg>
