<?xml version="1.0" encoding="utf-8"?>
<!-- Generator: Adobe Illustrator 26.1.0, SVG Export Plug-In . SVG Version: 6.00 Build 0)  -->
<svg version="1.1" xmlns="http://www.w3.org/2000/svg" xmlns:xlink="http://www.w3.org/1999/xlink" x="0px" y="0px"
	 viewBox="0 0 367.94 390.68" style="enable-background:new 0 0 367.94 390.68;" xml:space="preserve">
<style type="text/css">
	.st0{fill:#FFFFFF;stroke:#000000;stroke-miterlimit:10;}
	.st1{fill:#BFA071;stroke:#554B4E;stroke-width:1.5;stroke-linecap:round;stroke-linejoin:round;stroke-miterlimit:10;}
	.st2{fill:#BFA071;stroke:#554B4E;stroke-linecap:round;stroke-linejoin:round;stroke-miterlimit:10;}
	.st3{fill:#F8F4E9;stroke:#554B4E;stroke-width:1.5;stroke-linecap:round;stroke-linejoin:round;stroke-miterlimit:10;}
	.st4{fill:#F2DED6;stroke:#554B4E;stroke-width:1.5;stroke-linecap:round;stroke-linejoin:round;stroke-miterlimit:10;}
	.st5{fill:none;stroke:#554B4E;stroke-linecap:round;stroke-linejoin:round;stroke-miterlimit:10;}
	.st6{fill:#BFA071;}
	.st7{fill:#554B4E;}
	.st8{fill:#F8F4E9;}
	.st9{fill:none;stroke:#554B4E;stroke-width:1.5;stroke-linecap:round;stroke-linejoin:round;stroke-miterlimit:10;}
	.st10{fill:#F8F4E9;stroke:#554B4E;stroke-linecap:round;stroke-linejoin:round;stroke-miterlimit:10;}
	.st11{fill:#F2DED6;stroke:#554B4E;stroke-linecap:round;stroke-linejoin:round;stroke-miterlimit:10;}
	.st12{clip-path:url(#SVGID_00000153665858334547741980000008773428445578177931_);}
	.st13{fill:none;stroke:#BFA071;stroke-width:1.5;stroke-linecap:round;stroke-linejoin:round;}
	.st14{fill:none;stroke:#BFA071;stroke-width:1.5;stroke-linecap:round;stroke-linejoin:round;stroke-dasharray:68.8403,19.6687;}
	.st15{fill:none;stroke:#BFA071;stroke-width:1.5;stroke-linecap:round;stroke-linejoin:round;stroke-dasharray:71.4455,20.413;}
	.st16{fill:none;stroke:#BFA071;stroke-width:1.5;stroke-linecap:round;stroke-linejoin:round;stroke-dasharray:69.5884,19.8824;}
	.st17{fill:none;stroke:#BFA071;stroke-width:1.5;stroke-linecap:round;stroke-linejoin:round;stroke-dasharray:61.3524,17.5292;}
	.st18{fill:none;stroke:#BFA071;stroke-width:1.5;stroke-linecap:round;stroke-linejoin:round;stroke-dasharray:63.9932,18.2838;}
	.st19{fill:none;stroke:#BFA071;stroke-width:1.5;stroke-linecap:round;stroke-linejoin:round;stroke-dasharray:72.7778,20.7937;}
	.st20{fill:none;stroke:#BFA071;stroke-width:1.5;stroke-linecap:round;stroke-linejoin:round;stroke-dasharray:77.193,22.0551;}
	.st21{fill:none;stroke:#BFA071;stroke-width:1.5;stroke-linecap:round;stroke-linejoin:round;stroke-dasharray:75.3802,21.5372;}
	.st22{fill:none;stroke:#BFA071;stroke-width:1.5;stroke-linecap:round;stroke-linejoin:round;stroke-dasharray:73.6885,21.0538;}
	.st23{fill:none;stroke:#BFA071;stroke-width:1.5;stroke-linecap:round;stroke-linejoin:round;stroke-dasharray:63.3162,18.0903;}
	.st24{fill:none;stroke:#BFA071;stroke-width:1.5;stroke-linecap:round;stroke-linejoin:round;stroke-dasharray:62.0513,17.7289;}
	.st25{fill:none;stroke:#BFA071;stroke-width:1.5;stroke-linecap:round;stroke-linejoin:round;stroke-dasharray:68.9157,19.6902;}
	.st26{fill:none;stroke:#554B4E;stroke-width:1.5;stroke-linecap:round;stroke-linejoin:round;}
	.st27{fill:none;stroke:#554B4E;stroke-width:1.5;stroke-linecap:round;stroke-linejoin:round;stroke-dasharray:15.0532,10.0355;}
	.st28{fill:none;stroke:#554B4E;stroke-width:1.5;stroke-linecap:round;stroke-linejoin:round;stroke-dasharray:14.9985,9.999;}
	.st29{fill:none;stroke:#554B4E;stroke-width:1.5;stroke-linecap:round;stroke-linejoin:round;stroke-dasharray:14.8977,9.9318;}
	.st30{fill:none;stroke:#554B4E;stroke-width:1.5;stroke-linecap:round;stroke-linejoin:round;stroke-dasharray:15.4213,10.2808;}
	.st31{fill:none;stroke:#554B4E;stroke-width:1.5;stroke-linecap:round;stroke-linejoin:round;stroke-dasharray:15.2271,10.1514;}
	.st32{fill:none;stroke:#554B4E;stroke-width:1.5;stroke-linecap:round;stroke-linejoin:round;stroke-dasharray:15.021,10.014;}
	.st33{fill:none;stroke:#554B4E;stroke-width:1.5;stroke-linecap:round;stroke-linejoin:round;stroke-dasharray:15.0727,10.0485;}
	.st34{fill:none;stroke:#554B4E;stroke-width:1.5;stroke-linecap:round;stroke-linejoin:round;stroke-dasharray:14.6942,9.7961;}
	.st35{fill:none;stroke:#554B4E;stroke-width:1.5;stroke-linecap:round;stroke-linejoin:round;stroke-dasharray:14.7469,9.8312;}
	.st36{fill:none;stroke:#554B4E;stroke-width:1.5;stroke-linecap:round;stroke-linejoin:round;stroke-dasharray:15.0819,10.0546;}
	.st37{fill:none;stroke:#554B4E;stroke-width:1.5;stroke-linecap:round;stroke-linejoin:round;stroke-dasharray:15.003,10.002;}
	.st38{fill:#F2DED6;}
	.st39{fill:#F2DED6;stroke:#554B4E;stroke-width:1.5;stroke-linecap:round;stroke-miterlimit:10;}
	.st40{fill:none;stroke:#554B4E;stroke-width:1.5;stroke-linecap:round;stroke-miterlimit:10;}
	.st41{fill:none;stroke:#554B4E;stroke-linecap:round;stroke-miterlimit:10;}
	.st42{fill:none;stroke:#BFA071;stroke-linecap:round;stroke-linejoin:round;}
	.st43{fill:none;stroke:#BFA071;stroke-linecap:round;stroke-linejoin:round;stroke-dasharray:14.9905,14.9905;}
	.st44{fill:none;stroke:#BFA071;stroke-linecap:round;stroke-linejoin:round;stroke-dasharray:51.384,34.256;}
	.st45{fill:none;stroke:#554B4E;stroke-miterlimit:10;}
	.st46{clip-path:url(#SVGID_00000183963256140771817670000003413495870586356127_);}
	.st47{fill:none;stroke:#554B4E;stroke-width:1.5;stroke-linecap:round;stroke-linejoin:round;stroke-dasharray:68.8403,19.6687;}
	.st48{fill:none;stroke:#554B4E;stroke-width:1.5;stroke-linecap:round;stroke-linejoin:round;stroke-dasharray:71.4455,20.413;}
	.st49{fill:none;stroke:#554B4E;stroke-width:1.5;stroke-linecap:round;stroke-linejoin:round;stroke-dasharray:69.5884,19.8824;}
	.st50{fill:none;stroke:#554B4E;stroke-width:1.5;stroke-linecap:round;stroke-linejoin:round;stroke-dasharray:61.3524,17.5292;}
	.st51{fill:none;stroke:#554B4E;stroke-width:1.5;stroke-linecap:round;stroke-linejoin:round;stroke-dasharray:63.9932,18.2838;}
	.st52{fill:none;stroke:#554B4E;stroke-width:1.5;stroke-linecap:round;stroke-linejoin:round;stroke-dasharray:72.7778,20.7937;}
	.st53{fill:none;stroke:#554B4E;stroke-width:1.5;stroke-linecap:round;stroke-linejoin:round;stroke-dasharray:77.193,22.0551;}
	.st54{fill:none;stroke:#554B4E;stroke-width:1.5;stroke-linecap:round;stroke-linejoin:round;stroke-dasharray:75.3802,21.5372;}
	.st55{fill:none;stroke:#554B4E;stroke-width:1.5;stroke-linecap:round;stroke-linejoin:round;stroke-dasharray:73.6885,21.0538;}
	.st56{fill:none;stroke:#554B4E;stroke-width:1.5;stroke-linecap:round;stroke-linejoin:round;stroke-dasharray:63.3162,18.0903;}
	.st57{fill:none;stroke:#554B4E;stroke-width:1.5;stroke-linecap:round;stroke-linejoin:round;stroke-dasharray:62.0513,17.7289;}
	.st58{fill:none;stroke:#554B4E;stroke-width:1.5;stroke-linecap:round;stroke-linejoin:round;stroke-dasharray:68.9157,19.6902;}
	.st59{fill:none;stroke:#554B4E;stroke-linecap:round;stroke-linejoin:round;}
	.st60{fill:none;stroke:#554B4E;stroke-linecap:round;stroke-linejoin:round;stroke-dasharray:14.9905,14.9905;}
	.st61{fill:none;stroke:#554B4E;stroke-linecap:round;stroke-linejoin:round;stroke-dasharray:51.384,34.256;}
	.st62{fill:#95608F;}
	.st63{fill:#ED859E;}
	.st64{fill:#FAC87D;}
	.st65{opacity:0.1;}
	.st66{fill:#B5846F;}
	.st67{fill:#B5846F;stroke:#B5846F;stroke-width:5;stroke-linecap:round;stroke-linejoin:round;stroke-miterlimit:10;}
	.st68{fill:#EAD9EB;}
	.st69{fill:#FFFFFF;}
	.st70{fill:url(#SVGID_00000111895734095627338670000001702422016607733439_);}
	.st71{opacity:0.8;fill:#FFFFFF;}
	.st72{fill:url(#SVGID_00000144335232770285293150000015583663446068943521_);}
	.st73{fill:url(#SVGID_00000099655703798207308660000012533660262843303809_);}
	.st74{opacity:0.8;}
	.st75{opacity:0.6;}
	.st76{opacity:0.2;}
	.st77{fill:none;}
	.st78{fill:url(#SVGID_00000031192701948486435500000008111673741563249025_);}
	.st79{fill:url(#SVGID_00000158737722007693672270000017820020765539728275_);}
	.st80{clip-path:url(#SVGID_00000078732833010971828410000012521596117943680166_);fill:#FFFFFF;}
	.st81{clip-path:url(#SVGID_00000032638944944250009340000014812065484032407424_);fill:#FFFFFF;}
	.st82{clip-path:url(#SVGID_00000019638607787031092540000013607186609453930394_);fill:#FFFFFF;}
	.st83{clip-path:url(#SVGID_00000062175577090974647600000013795711872436144271_);fill:#FFFFFF;}
	.st84{clip-path:url(#SVGID_00000129192615822424203960000005743906328150903729_);fill:#FFFFFF;}
</style>
<g id="Bg">
</g>
<g id="Graphic">
	<g id="Cat_00000010293625319826724450000002774921765854596792_">
		<g id="Face_00000124143425501423826260000000805511750181618572_">
			<path class="st8" d="M307.58,215.27c0,0-4.12,51.67-15.3,76.97c-11.18,25.3-50.6,80.61-81.79,85.91c0,0-20.59,12.36-38.25,11.77
				c-17.65-0.59-26.48-14.12-26.48-14.12s-20.59-2.94-31.19-17.06s-40.6-58.01-47.66-83.14s-8.83-41.6-5.3-66.9
				c0,0-12.94-5.54-15.3-18.95c-2.35-13.41-14.71-21.79-17.06-33.49s6.96-18.21-5.05-31.13S-1.33,55.22,1.02,41.34
				S2.2-6.97,26.91,2.3s105.32,120.85,105.32,120.85s12.36-4.5,15.89-2.73s4.94,1.93,16.59,2.73s11.4-1.39,29.17,0
				s15.88-2.77,28.89,1.96c13.01,4.73,16.6,0,16.6,0c4.86-6.23,9.73-12.45,14.62-18.67c6.2-7.88,12.41-15.75,18.66-23.59
				c5.58-7.01,11.18-14,16.81-20.97c9.39-11.63,17.94-24.75,29.6-34.3c7.63-6.25,21.1-17.29,31.75-14.25
				c10.31,2.94,23.47,23.72,11.89,76.58c-11.58,52.86-16.47,55.84-15.79,64.65c0.68,8.81-5.32,21.97-9.38,27.75
				s-12.89,11.07-13.47,21.07S307.58,215.27,307.58,215.27z"/>
			<path class="st7" d="M173.5,390.68c-0.43,0-0.85-0.01-1.28-0.02c-16.4-0.55-25.46-12.2-26.88-14.18
				c-2.78-0.45-21.3-3.9-31.35-17.31c-10.1-13.47-40.57-57.71-47.78-83.38c-7.38-26.25-8.71-42.54-5.39-66.66
				c-2.52-1.22-13.07-7-15.22-19.27c-1.2-6.85-5.13-12.43-8.92-17.82c-3.59-5.1-6.99-9.92-8.14-15.65
				c-0.87-4.34-0.2-7.94,0.45-11.42c1.14-6.09,2.12-11.34-5.32-19.35C11.34,112.36-2.12,55.36,0.28,41.21
				c0.37-2.16,0.65-4.89,0.96-7.78C2.41,22.31,4.01,7.07,12.45,1.85c3.86-2.38,8.81-2.47,14.72-0.25
				c24.09,9.04,98.93,111.82,105.34,120.66c2.64-0.93,12.54-4.21,15.94-2.51c3.44,1.72,4.82,1.86,16.31,2.65
				c5.06,0.35,7.9,0.12,10.9-0.12c3.87-0.31,8.26-0.66,18.29,0.12c7.4,0.58,11.29,0.19,14.41-0.12c4.34-0.43,6.97-0.69,14.68,2.11
				c12.2,4.44,15.72,0.29,15.75,0.24c4.86-6.23,9.73-12.45,14.62-18.67c6.57-8.35,12.67-16.07,18.66-23.59
				c5.68-7.14,11.34-14.2,16.81-20.97c2.37-2.93,4.73-6.02,7.01-9.01c6.84-8.95,13.91-18.21,22.69-25.4
				c8.02-6.57,21.41-17.54,32.43-14.39c6.42,1.83,11.9,9.35,14.67,20.11c3.64,14.16,2.86,33.99-2.26,57.36
				c-6.26,28.58-10.54,42.51-13.1,50.83c-2.17,7.05-2.98,9.69-2.68,13.6c0.67,8.64-5.1,21.95-9.52,28.24
				c-1.21,1.72-2.81,3.38-4.5,5.12c-3.96,4.1-8.44,8.74-8.84,15.56c-0.56,9.48-13.5,12.03-16.53,12.5
				c-0.51,5.86-4.86,52.95-15.31,76.61c-11.71,26.51-51.31,80.93-82.21,86.32C208.91,379.95,190.33,390.68,173.5,390.68z M19.32,1.5
				c-2.29,0-4.33,0.54-6.08,1.63C5.42,7.96,3.87,22.78,2.73,33.59c-0.31,2.91-0.6,5.66-0.97,7.87c-2.26,13.31,11.07,70.31,23,83.14
				c7.95,8.56,6.85,14.43,5.69,20.64c-0.62,3.34-1.27,6.79-0.45,10.85c1.09,5.42,4.4,10.12,7.89,15.09
				c3.89,5.53,7.91,11.24,9.17,18.42c2.25,12.84,14.73,18.34,14.86,18.39c0.31,0.13,0.49,0.46,0.45,0.79
				c-3.38,24.19-2.09,40.37,5.27,66.6c7.15,25.46,37.48,69.48,47.54,82.89c10.28,13.7,30.49,16.74,30.69,16.77
				c0.21,0.03,0.4,0.15,0.52,0.33c0.09,0.13,8.84,13.21,25.88,13.78c17.25,0.58,37.63-11.54,37.83-11.66
				c0.08-0.05,0.17-0.08,0.26-0.1c30.4-5.16,69.61-59.17,81.23-85.47c11-24.89,15.2-76.21,15.24-76.72c0.03-0.36,0.3-0.64,0.66-0.69
				c0.15-0.02,15.27-1.92,15.81-11.18c0.43-7.38,5.12-12.23,9.26-16.52c1.65-1.71,3.2-3.32,4.35-4.95
				c4.29-6.1,9.89-18.96,9.25-27.26c-0.32-4.19,0.57-7.11,2.74-14.16c2.55-8.3,6.82-22.2,13.07-50.71
				c11.82-53.94-2.26-73.11-11.36-75.7c-10.26-2.92-23.79,8.15-31.05,14.1c-8.66,7.09-15.68,16.28-22.47,25.16
				c-2.29,3-4.66,6.09-7.04,9.04c-5.47,6.78-11.12,13.83-16.8,20.97c-5.99,7.52-12.09,15.24-18.66,23.59
				c-4.88,6.21-9.75,12.43-14.62,18.66c-0.15,0.2-4.07,5.11-17.45,0.24c-7.39-2.69-9.74-2.45-14.02-2.03
				c-3.18,0.31-7.15,0.71-14.68,0.12c-9.9-0.77-14.23-0.43-18.05-0.12c-3.06,0.25-5.94,0.48-11.12,0.12
				c-11.58-0.8-13.2-0.97-16.88-2.81c-2.67-1.33-11.94,1.54-15.29,2.76c-0.31,0.11-0.67,0.01-0.87-0.27
				c-0.8-1.11-80.76-111.51-104.98-120.59C23.97,2,21.53,1.5,19.32,1.5z"/>
		</g>
		<g id="Nose_00000176754221128510614220000012158223851412009373_">
			<path class="st6" d="M168.86,321.72c-5.67-0.41-12.69-4.19-16.92-0.84c-1.8,1.43-5.3,8.42-1.25,11.36
				c1.86,1.35,6.34,2.14,8.61,2.47c7.21,1.06,2.21,9.59,6.47,11.94c2.8,1.54,6.63,2.11,12.94,0c3.12-1.04,2.14-7.05,4.03-9.46
				c4.24-5.41,15.16,2.49,15.25-9.32c0.04-4.91-5.95-6.89-10.13-6.99c-4.28-0.11-8.53,0.79-12.8,1.02
				C173.15,322.02,171.04,321.88,168.86,321.72z"/>
			<path class="st7" d="M171.42,348.79c-2.26,0-4.23-0.49-6.01-1.47c-2.21-1.22-2.34-3.77-2.46-6.03c-0.17-3.3-0.44-5.34-3.76-5.83
				c-3.06-0.45-7.1-1.27-8.94-2.61c-1.38-1.01-2.14-2.55-2.18-4.45c-0.07-3.25,1.97-6.97,3.41-8.11c3.16-2.51,7.57-1.43,11.83-0.39
				c1.89,0.46,3.85,0.94,5.61,1.07c2.27,0.17,4.3,0.29,6.1,0.19c1.68-0.09,3.39-0.29,5.05-0.49c2.55-0.3,5.17-0.61,7.81-0.54
				c4.39,0.11,10.91,2.26,10.87,7.75c-0.06,7.79-4.68,7.82-8.76,7.84c-2.66,0.02-5.17,0.03-6.65,1.93c-0.67,0.85-0.95,2.4-1.21,3.9
				c-0.43,2.37-0.91,5.06-3.17,5.81C176.12,348.32,173.64,348.79,171.42,348.79z M156.43,320.25c-1.53,0-2.89,0.33-4.02,1.22
				c-1.03,0.82-2.9,4.07-2.84,6.9c0.03,1.43,0.55,2.53,1.56,3.26c1.24,0.91,4.18,1.74,8.28,2.34c4.7,0.69,4.89,4.32,5.04,7.24
				c0.11,2.13,0.21,3.98,1.69,4.79c3.13,1.73,7.05,1.71,12.34-0.06c1.41-0.47,1.78-2.5,2.17-4.65c0.3-1.68,0.62-3.41,1.51-4.56
				c1.93-2.47,5.06-2.49,7.82-2.51c4.03-0.03,7.22-0.05,7.27-6.35c0.03-4.41-5.6-6.14-9.4-6.24c-2.52-0.06-5.1,0.24-7.6,0.53
				c-1.68,0.2-3.42,0.4-5.14,0.49c-1.91,0.1-3.98-0.03-6.29-0.2l0,0c-1.88-0.14-3.9-0.63-5.85-1.11
				C160.65,320.8,158.41,320.25,156.43,320.25z"/>
		</g>
		<g id="Eyes_00000075848778409834315800000001879548609911191971_">
			<g>
				<path class="st38" d="M217.19,264.73c8.23-8.59,15.22-18.63,25.2-25.1c10.74-6.96,24.51-9.06,36.84-5.61
					c-0.31,5.65-3.13,19.73-5.74,24.76c-5.01,9.63-15.89,15.09-26.67,16.4C236.03,276.49,217.19,264.73,217.19,264.73z"/>
				<path class="st7" d="M245.04,276.03c-11.02,0-27.51-10.2-28.24-10.66c-0.19-0.12-0.32-0.32-0.35-0.54
					c-0.03-0.22,0.05-0.45,0.2-0.61c2.38-2.48,4.7-5.14,6.94-7.71c5.52-6.32,11.22-12.86,18.39-17.5
					c10.92-7.07,24.92-9.21,37.45-5.71c0.34,0.09,0.57,0.41,0.55,0.76c-0.32,5.85-3.18,19.98-5.82,25.06
					c-4.69,9.01-14.88,15.29-27.25,16.8C246.3,276,245.68,276.03,245.04,276.03z M218.38,264.57c3.66,2.17,19.17,10.97,28.34,9.86
					c11.88-1.45,21.64-7.43,26.1-16c2.4-4.61,5.15-17.81,5.62-23.85c-11.97-3.16-25.25-1.05-35.64,5.68
					c-6.99,4.53-12.62,10.98-18.07,17.23C222.67,259.84,220.55,262.26,218.38,264.57z"/>
			</g>
			<g>
				<path class="st8" d="M248.21,263.16c0,0-3.44-6.23-3.44-13.93c0-5.44,1.72-10.14,2.73-12.43c0.39-0.19,0.79-0.37,1.19-0.54
					c0.94,2.02,2.97,7.07,2.97,12.98C251.65,256.92,248.21,263.16,248.21,263.16z"/>
				<path class="st7" d="M248.21,263.91c-0.27,0-0.52-0.15-0.66-0.39c-0.14-0.26-3.54-6.49-3.54-14.29c0-5.56,1.75-10.37,2.79-12.74
					c0.07-0.17,0.2-0.3,0.37-0.38c0.4-0.19,0.8-0.37,1.21-0.55c0.37-0.16,0.81,0,0.98,0.37c0.92,1.96,3.04,7.19,3.04,13.29
					c0,7.79-3.39,14.03-3.54,14.29C248.73,263.76,248.48,263.91,248.21,263.91z M248.07,237.35c-1,2.34-2.55,6.78-2.55,11.88
					c0,5.32,1.72,9.98,2.69,12.19c0.98-2.21,2.69-6.87,2.69-12.19c0-5.21-1.63-9.75-2.6-11.98
					C248.22,237.28,248.15,237.32,248.07,237.35z"/>
			</g>
			<g>
				<path class="st38" d="M142.36,260.6c-8.23-8.59-15.22-18.63-25.2-25.1c-10.74-6.96-24.51-9.06-36.84-5.61
					c0.31,5.65,3.13,19.73,5.74,24.76c5.01,9.63,15.89,15.09,26.67,16.4S142.36,260.6,142.36,260.6z"/>
				<path class="st7" d="M114.52,271.9c-0.64,0-1.26-0.04-1.87-0.11c-12.37-1.51-22.56-7.79-27.25-16.8
					c-2.64-5.08-5.5-19.21-5.83-25.06c-0.02-0.35,0.21-0.67,0.55-0.76c12.53-3.5,26.53-1.37,37.45,5.71
					c7.17,4.64,12.87,11.18,18.39,17.5c2.24,2.57,4.56,5.23,6.94,7.71c0.16,0.16,0.23,0.39,0.2,0.61c-0.03,0.22-0.16,0.42-0.35,0.54
					C142.02,261.7,125.54,271.9,114.52,271.9z M81.12,230.45c0.47,6.04,3.22,19.24,5.62,23.85c4.46,8.57,14.22,14.56,26.1,16
					c9.16,1.09,24.68-7.69,28.34-9.86c-2.18-2.31-4.29-4.73-6.35-7.08c-5.45-6.24-11.08-12.7-18.07-17.22
					C106.36,229.4,93.09,227.29,81.12,230.45z"/>
			</g>
			<g>
				<path class="st8" d="M111.35,259.02c0,0,3.44-6.23,3.44-13.93c0-5.44-1.72-10.14-2.73-12.43c-0.39-0.19-0.79-0.37-1.19-0.54
					c-0.94,2.02-2.97,7.07-2.97,12.98C107.9,252.79,111.35,259.02,111.35,259.02z"/>
				<path class="st7" d="M111.35,259.77c-0.27,0-0.52-0.15-0.66-0.39c-0.14-0.26-3.54-6.49-3.54-14.29c0-6.09,2.13-11.33,3.04-13.29
					c0.17-0.37,0.61-0.54,0.98-0.37c0.41,0.18,0.81,0.36,1.21,0.55c0.16,0.08,0.29,0.21,0.37,0.38c1.04,2.37,2.79,7.18,2.79,12.74
					c0,7.79-3.39,14.03-3.54,14.29C111.87,259.62,111.62,259.77,111.35,259.77z M111.25,233.11c-0.97,2.24-2.6,6.78-2.6,11.98
					c0,5.33,1.72,9.98,2.69,12.19c0.98-2.21,2.69-6.87,2.69-12.19c0-5.09-1.55-9.53-2.55-11.88
					C111.41,233.18,111.33,233.15,111.25,233.11z"/>
			</g>
			<g>
				<path class="st38" d="M145.27,214.64c0,0,14.9,19.11,33.27,19.11s33.27-19.11,33.27-19.11s-14.9-19.11-33.27-19.11
					S145.27,214.64,145.27,214.64z"/>
				<path class="st7" d="M178.54,234.5c-9.71,0-18.41-5.29-23.99-9.72c-6.02-4.78-9.72-9.48-9.87-9.68c-0.21-0.27-0.21-0.65,0-0.92
					c0.15-0.2,3.85-4.9,9.87-9.68c5.59-4.43,14.28-9.72,23.99-9.72c9.71,0,18.41,5.29,23.99,9.72c6.02,4.78,9.72,9.48,9.87,9.68
					c0.21,0.27,0.21,0.65,0,0.92c-0.15,0.2-3.85,4.9-9.87,9.68C196.95,229.22,188.25,234.5,178.54,234.5z M146.24,214.64
					c2.41,2.89,16.09,18.36,32.3,18.36c16.21,0,29.89-15.47,32.3-18.36c-2.41-2.89-16.09-18.36-32.3-18.36
					C162.33,196.28,148.65,211.75,146.24,214.64z"/>
			</g>
			<g>
				<path class="st8" d="M177.27,225.98c0,0-4.2-7.6-4.2-16.98c0-5.39,1.39-10.19,2.57-13.3c0.96-0.1,1.93-0.17,2.91-0.17
					c0.1,0,0.19,0.01,0.29,0.01c1.19,3.1,2.63,7.97,2.63,13.46C181.46,218.38,177.27,225.98,177.27,225.98z"/>
				<path class="st7" d="M177.27,226.73c-0.27,0-0.52-0.15-0.66-0.39c-0.18-0.32-4.29-7.88-4.29-17.34c0-5.52,1.42-10.43,2.62-13.57
					c0.1-0.26,0.34-0.45,0.62-0.48c1.07-0.12,2.05-0.17,2.99-0.17l0.31,0.01c0.3,0.01,0.58,0.2,0.69,0.48
					c1.22,3.18,2.68,8.14,2.68,13.73c0,9.46-4.11,17.02-4.29,17.34C177.79,226.58,177.54,226.73,177.27,226.73z M176.18,196.39
					c-1.11,3.03-2.36,7.56-2.36,12.6c0,6.8,2.29,12.71,3.45,15.27c1.16-2.56,3.45-8.47,3.45-15.27c0-5.09-1.26-9.65-2.4-12.72
					C177.63,196.29,176.93,196.32,176.18,196.39z"/>
			</g>
		</g>
		<g id="Line_00000136406214825006259110000003090700233306381474_">
			<g>
				<g>
					<path class="st7" d="M129.97,327.63c-0.04,0-0.08,0-0.11-0.01c-34.02-5.12-68.7-8-103.1-8.56c-0.42-0.01-0.75-0.35-0.74-0.76
						s0.36-0.72,0.76-0.74c34.46,0.56,69.22,3.44,103.3,8.57c0.41,0.06,0.69,0.44,0.63,0.85
						C130.66,327.36,130.34,327.63,129.97,327.63z"/>
				</g>
				<g>
					<path class="st7" d="M16.05,347.83c-0.34,0-0.65-0.24-0.73-0.58c-0.09-0.4,0.16-0.81,0.57-0.9
						c35.79-8.07,72.42-10.15,108.89-6.18c0.41,0.04,0.71,0.41,0.67,0.83c-0.05,0.41-0.43,0.71-0.83,0.67
						c-36.31-3.95-72.78-1.88-108.4,6.15C16.16,347.83,16.11,347.83,16.05,347.83z"/>
				</g>
				<g>
					<path class="st7" d="M37.24,376.46c-0.28,0-0.55-0.16-0.68-0.43c-0.18-0.37-0.02-0.82,0.36-1
						c30.02-14.24,64.96-16.7,95.78-18.87c0.41-0.03,0.77,0.28,0.8,0.7c0.03,0.41-0.28,0.77-0.7,0.8
						c-30.69,2.16-65.47,4.61-95.24,18.73C37.46,376.44,37.35,376.46,37.24,376.46z"/>
				</g>
				<g>
					<path class="st7" d="M212.38,328.03c-0.28,0-0.55-0.16-0.68-0.42c-0.18-0.37-0.03-0.82,0.35-1
						c16.7-8.09,36.62-11.46,62.67-10.63c10,0.32,20.12,1.21,29.92,2.07c11.06,0.97,22.49,1.97,33.76,2.16
						c0.41,0.01,0.74,0.35,0.74,0.76c-0.01,0.41-0.36,0.74-0.76,0.74c-11.32-0.19-22.78-1.19-33.87-2.16
						c-9.77-0.85-19.88-1.74-29.83-2.06c-25.81-0.83-45.5,2.49-61.97,10.48C212.6,328.01,212.49,328.03,212.38,328.03z"/>
				</g>
				<g>
					<path class="st7" d="M359.47,358.73c-0.08,0-0.16-0.01-0.23-0.04c-44.46-14.58-92.61-20.4-139.26-16.81
						c-0.4,0.02-0.77-0.28-0.81-0.69c-0.03-0.41,0.28-0.77,0.69-0.81c46.85-3.6,95.2,2.24,139.84,16.88
						c0.39,0.13,0.61,0.55,0.48,0.95C360.08,358.53,359.78,358.73,359.47,358.73z"/>
				</g>
				<g>
					<path class="st7" d="M301.47,386.29c-0.13,0-0.26-0.03-0.37-0.1c-29.65-17.14-63.26-28.63-97.2-33.24
						c-0.41-0.06-0.7-0.43-0.64-0.84c0.06-0.41,0.44-0.7,0.84-0.64c34.13,4.63,67.93,16.18,97.75,33.42
						c0.36,0.21,0.48,0.67,0.27,1.02C301.98,386.16,301.73,386.29,301.47,386.29z"/>
				</g>
			</g>
			<g>
				<path class="st7" d="M183.89,317.36c-0.24,0-0.45-0.17-0.49-0.41c-0.82-4.54-1.12-9.18-0.89-13.79
					c0.01-0.27,0.21-0.49,0.52-0.47c0.28,0.01,0.49,0.25,0.47,0.52c-0.23,4.53,0.07,9.1,0.87,13.56c0.05,0.27-0.13,0.53-0.4,0.58
					C183.95,317.36,183.92,317.36,183.89,317.36z"/>
			</g>
			<g>
				<path class="st7" d="M171.38,317.96c-0.02,0-0.04,0-0.06,0c-0.27-0.03-0.47-0.28-0.44-0.56c0.6-5.03,0.88-10.14,0.82-15.21
					c0-0.28,0.22-0.5,0.49-0.51c0.29-0.02,0.5,0.22,0.51,0.49c0.06,5.11-0.22,10.27-0.83,15.34
					C171.85,317.77,171.63,317.96,171.38,317.96z"/>
			</g>
			<g>
				<path class="st7" d="M164.45,317.43c-0.06,0-0.11-0.01-0.17-0.03c-0.26-0.09-0.4-0.38-0.31-0.64c1.4-3.98,1.87-8.3,1.33-12.48
					c-0.04-0.27,0.16-0.52,0.43-0.56c0.26-0.04,0.52,0.16,0.56,0.43c0.55,4.34,0.07,8.82-1.38,12.94
					C164.85,317.3,164.66,317.43,164.45,317.43z"/>
			</g>
			<g>
				<path class="st7" d="M156.75,311.31c-0.26,0-0.48-0.2-0.5-0.47c-0.12-1.83,0.23-3.68,1.01-5.35c0.12-0.25,0.41-0.36,0.67-0.24
					c0.25,0.12,0.36,0.42,0.24,0.67c-0.71,1.51-1.03,3.19-0.92,4.86c0.02,0.28-0.19,0.51-0.47,0.53
					C156.77,311.31,156.76,311.31,156.75,311.31z"/>
			</g>
			<g>
				<path class="st7" d="M190.3,312.83c-0.24,0-0.46-0.18-0.49-0.43c-0.25-1.76-0.16-3.59,0.28-5.32c0.07-0.27,0.33-0.43,0.61-0.36
					c0.27,0.07,0.43,0.34,0.36,0.61c-0.4,1.6-0.49,3.3-0.26,4.93c0.04,0.27-0.15,0.53-0.42,0.57
					C190.35,312.82,190.33,312.83,190.3,312.83z"/>
			</g>
			<g>
				<path class="st7" d="M112.4,278.33c-0.23,0-0.44-0.16-0.49-0.39c-0.06-0.27,0.11-0.54,0.38-0.6c6.98-1.53,13.96-3.44,20.74-5.67
					c0.26-0.09,0.54,0.06,0.63,0.32c0.09,0.26-0.06,0.54-0.32,0.63c-6.82,2.24-13.83,4.16-20.84,5.69
					C112.47,278.32,112.44,278.33,112.4,278.33z"/>
			</g>
			<g>
				<path class="st7" d="M254.04,281.96c-0.01,0-0.02,0-0.03,0c-12.66-0.8-25.31-2.8-37.59-5.95c-0.27-0.07-0.43-0.34-0.36-0.61
					c0.07-0.27,0.35-0.43,0.61-0.36c12.23,3.14,24.81,5.13,37.41,5.92c0.28,0.02,0.49,0.25,0.47,0.53
					C254.52,281.75,254.3,281.96,254.04,281.96z"/>
			</g>
			<g>
				<path class="st7" d="M235.78,286.61c0,0-0.01,0-0.01,0c-8.44-0.25-16.87-1.44-25.05-3.53c-0.27-0.07-0.43-0.34-0.36-0.61
					s0.34-0.43,0.61-0.36c8.11,2.08,16.47,3.26,24.83,3.5c0.28,0.01,0.49,0.24,0.49,0.51C236.27,286.39,236.05,286.61,235.78,286.61
					z"/>
			</g>
			<g>
				<path class="st7" d="M126.15,280.45c-0.19,0-0.38-0.11-0.46-0.3c-0.11-0.25,0-0.55,0.26-0.66l12.52-5.47
					c0.25-0.11,0.55,0,0.66,0.26s0,0.55-0.26,0.66l-12.52,5.47C126.29,280.43,126.22,280.45,126.15,280.45z"/>
			</g>
			<g>
				<path class="st7" d="M179.88,241.57c-0.23,0-0.44-0.16-0.49-0.39c-0.06-0.27,0.11-0.54,0.38-0.59
					c10.4-2.28,20.34-6.93,28.75-13.47c0.21-0.17,0.53-0.13,0.7,0.09c0.17,0.22,0.13,0.53-0.09,0.7
					c-8.53,6.63-18.61,11.35-29.15,13.66C179.95,241.57,179.92,241.57,179.88,241.57z"/>
			</g>
			<g>
				<path class="st7" d="M172.29,239.24c-0.06,0-0.13-0.01-0.19-0.04c-8.47-3.43-16.33-8.13-23.35-13.96
					c-0.21-0.18-0.24-0.49-0.07-0.7s0.49-0.24,0.7-0.07c6.95,5.77,14.72,10.41,23.09,13.81c0.26,0.1,0.38,0.39,0.28,0.65
					C172.68,239.12,172.49,239.24,172.29,239.24z"/>
			</g>
			<g>
				<path class="st7" d="M199.59,249.91c-0.22,0-0.43-0.15-0.49-0.38c-0.51-2.04-0.63-4.22-0.34-6.31c0.04-0.27,0.29-0.47,0.56-0.43
					c0.27,0.04,0.46,0.29,0.43,0.56c-0.27,1.96-0.15,4.01,0.32,5.93c0.07,0.27-0.1,0.54-0.37,0.61
					C199.67,249.9,199.63,249.91,199.59,249.91z"/>
			</g>
			<g>
				<path class="st7" d="M191.09,254.7c-0.28,0-0.5-0.22-0.5-0.5v-8.63c0-0.28,0.22-0.5,0.5-0.5s0.5,0.22,0.5,0.5v8.63
					C191.59,254.48,191.37,254.7,191.09,254.7z"/>
			</g>
			<g>
				<path class="st7" d="M183.99,255.21c-0.02,0-0.04,0-0.06,0c-0.27-0.03-0.47-0.28-0.44-0.55c0.27-2.32,0.26-4.66-0.05-6.98
					c-0.04-0.27,0.16-0.52,0.43-0.56c0.25-0.04,0.52,0.16,0.56,0.43c0.32,2.4,0.33,4.83,0.05,7.23
					C184.45,255.02,184.24,255.21,183.99,255.21z"/>
			</g>
			<g>
				<path class="st7" d="M171.67,255.76c-0.05,0-0.1-0.01-0.15-0.02c-0.26-0.08-0.41-0.37-0.32-0.63c0.89-2.75,1.65-5.57,2.27-8.4
					c0.06-0.27,0.33-0.44,0.59-0.38c0.27,0.06,0.44,0.33,0.38,0.59c-0.62,2.86-1.39,5.71-2.29,8.49
					C172.08,255.62,171.88,255.76,171.67,255.76z"/>
			</g>
			<g>
				<path class="st7" d="M164.2,250.89c-0.26,0-0.48-0.2-0.5-0.47c-0.14-2.14-0.08-4.31,0.17-6.44c0.03-0.28,0.29-0.47,0.55-0.44
					c0.27,0.03,0.47,0.28,0.44,0.55c-0.24,2.08-0.3,4.18-0.17,6.26c0.02,0.28-0.19,0.51-0.47,0.53
					C164.22,250.89,164.21,250.89,164.2,250.89z"/>
			</g>
			<g>
				<path class="st7" d="M155.08,243.28c-0.01,0-0.02,0-0.03,0c-0.28-0.02-0.49-0.25-0.47-0.53l0.26-4.06
					c0.02-0.28,0.24-0.48,0.53-0.47c0.28,0.02,0.49,0.25,0.47,0.53l-0.26,4.06C155.57,243.08,155.35,243.28,155.08,243.28z"/>
			</g>
			<g>
				<path class="st7" d="M90.31,265.87c-0.04,0-0.09-0.01-0.13-0.02c-4.54-1.25-8.36-4.97-9.72-9.49c-0.08-0.26,0.07-0.54,0.33-0.62
					c0.26-0.08,0.54,0.07,0.62,0.33c1.26,4.19,4.81,7.65,9.03,8.81c0.27,0.07,0.42,0.35,0.35,0.62
					C90.73,265.73,90.53,265.87,90.31,265.87z"/>
			</g>
			<g>
				<path class="st7" d="M265.99,275.02c-0.19,0-0.36-0.1-0.45-0.28c-0.12-0.25-0.02-0.55,0.23-0.67c5.44-2.62,9.67-7.4,11.61-13.11
					c0.09-0.26,0.37-0.4,0.63-0.31c0.26,0.09,0.4,0.37,0.31,0.63c-2.02,5.97-6.44,10.96-12.12,13.69
					C266.13,275.01,266.06,275.02,265.99,275.02z"/>
			</g>
			<g>
				<path class="st7" d="M224.1,210.79c-0.08,0-0.16-0.02-0.24-0.06c-0.24-0.13-0.33-0.43-0.2-0.68l3.02-5.6
					c0.13-0.25,0.44-0.33,0.68-0.2c0.24,0.13,0.33,0.43,0.2,0.68l-3.02,5.6C224.45,210.69,224.28,210.79,224.1,210.79z"/>
			</g>
			<g>
				<path class="st7" d="M217.45,206.2c-0.04,0-0.08,0-0.12-0.01c-0.27-0.06-0.43-0.33-0.37-0.6l2.41-10.19
					c0.06-0.27,0.33-0.44,0.6-0.37c0.27,0.06,0.43,0.33,0.37,0.6l-2.41,10.19C217.88,206.05,217.67,206.2,217.45,206.2z"/>
			</g>
			<g>
				<path class="st7" d="M142.2,206.71c-0.02,0-0.03,0-0.05,0c-0.28-0.03-0.48-0.27-0.45-0.54l1.03-11.17
					c0.03-0.28,0.28-0.47,0.54-0.45c0.28,0.03,0.48,0.27,0.45,0.54l-1.03,11.17C142.67,206.51,142.46,206.71,142.2,206.71z"/>
			</g>
			<g>
				<path class="st7" d="M131.29,209.22c-0.21,0-0.4-0.13-0.47-0.34l-2.54-7.61c-0.09-0.26,0.05-0.54,0.32-0.63
					c0.26-0.09,0.54,0.05,0.63,0.32l2.54,7.61c0.09,0.26-0.05,0.54-0.32,0.63C131.4,209.21,131.35,209.22,131.29,209.22z"/>
			</g>
			<g>
				<path class="st7" d="M285.76,248.35c-0.27,0-0.5-0.22-0.5-0.49l-0.23-13.2c0-0.28,0.22-0.5,0.49-0.51
					c0.29,0.03,0.5,0.21,0.51,0.49l0.23,13.2C286.26,248.12,286.04,248.34,285.76,248.35C285.76,248.35,285.76,248.35,285.76,248.35
					z"/>
			</g>
			<g>
				<path class="st7" d="M73.84,238.7c-0.21,0-0.4-0.13-0.47-0.33c-1.32-3.7-1.31-7.78,0.03-11.48c0.09-0.26,0.38-0.39,0.64-0.3
					c0.26,0.09,0.39,0.38,0.3,0.64c-1.24,3.43-1.25,7.37-0.03,10.8c0.09,0.26-0.04,0.55-0.3,0.64
					C73.95,238.69,73.9,238.7,73.84,238.7z"/>
			</g>
			<g>
				<path class="st7" d="M213.21,270.22c-0.21,0-0.4-0.13-0.47-0.33c-0.35-0.98-1-1.82-1.69-2.7c-0.52-0.67-1.06-1.35-1.47-2.12
					c-0.67-1.25-0.78-2.89-0.27-4.08c0.35-0.82,0.95-1.37,1.75-1.6c0.27-0.07,0.54,0.08,0.62,0.35c0.08,0.27-0.08,0.54-0.35,0.62
					c-0.5,0.14-0.87,0.49-1.1,1.03c-0.39,0.91-0.29,2.23,0.23,3.22c0.37,0.69,0.86,1.32,1.37,1.98c0.71,0.91,1.44,1.84,1.84,2.98
					c0.09,0.26-0.04,0.55-0.3,0.64C213.32,270.21,213.26,270.22,213.21,270.22z"/>
			</g>
			<g>
				<path class="st7" d="M145.18,267.14c-0.22,0-0.42-0.15-0.48-0.37c-0.07-0.27,0.08-0.54,0.35-0.61c1.6-0.43,2.49-2.25,2.55-3.81
					c0.07-1.77-0.65-3.56-1.29-5.13c-0.1-0.26,0.02-0.55,0.28-0.65c0.25-0.1,0.55,0.02,0.65,0.28c0.67,1.67,1.44,3.56,1.36,5.54
					c-0.07,1.87-1.13,4.15-3.29,4.74C145.27,267.14,145.22,267.14,145.18,267.14z"/>
			</g>
			<g>
				<path class="st7" d="M109.14,293.82c-0.04,0-0.09-0.01-0.13-0.02c-0.25-0.07-0.41-0.32-0.36-0.58c0.44-2.31,0.83-3.87,1.2-5.38
					c0.37-1.5,0.75-3.05,1.18-5.33c0.05-0.26,0.32-0.44,0.56-0.4c0.26,0.04,0.45,0.28,0.43,0.54c-0.35,3.69-1.16,7.34-2.41,10.84
					C109.54,293.69,109.35,293.82,109.14,293.82z"/>
			</g>
			<g>
				<path class="st7" d="M100.52,291.27c-0.04,0-0.07,0-0.11-0.01c-0.25-0.06-0.42-0.3-0.38-0.56c0.34-2.48,0.74-4.35,1.13-6.16
					c0.38-1.79,0.78-3.64,1.12-6.08c0.04-0.27,0.27-0.45,0.54-0.43c0.27,0.03,0.47,0.26,0.45,0.53c-0.23,4.2-0.99,8.36-2.26,12.37
					C100.93,291.14,100.73,291.27,100.52,291.27z"/>
			</g>
			<g>
				<path class="st7" d="M90.67,294.27C90.67,294.27,90.67,294.27,90.67,294.27c-0.28,0-0.5-0.23-0.5-0.51
					c0.11-6.45,0.61-12.96,1.5-19.36c0.04-0.27,0.3-0.46,0.56-0.43c0.27,0.04,0.46,0.29,0.43,0.56c-0.88,6.36-1.38,12.83-1.49,19.24
					C91.17,294.05,90.95,294.27,90.67,294.27z"/>
			</g>
			<g>
				<path class="st7" d="M81.97,285.61c-0.04,0-0.08,0-0.12-0.01c-0.27-0.07-0.43-0.33-0.37-0.6l3.44-14.24
					c0.07-0.27,0.34-0.43,0.6-0.37c0.27,0.07,0.43,0.33,0.37,0.6l-3.44,14.24C82.4,285.46,82.2,285.61,81.97,285.61z"/>
			</g>
			<g>
				<path class="st7" d="M76.55,276.51c-0.02,0-0.03,0-0.05,0c-0.26-0.03-0.46-0.25-0.45-0.52c0.09-2.22-0.76-6.06-1.58-9.78
					c-0.83-3.78-1.7-7.68-1.6-10.03c0.01-0.27,0.27-0.49,0.52-0.48c0.28,0.01,0.49,0.24,0.48,0.52c-0.09,2.22,0.76,6.06,1.58,9.78
					c0.48,2.15,0.96,4.34,1.27,6.26c0.48-2.39,1.06-4.76,1.72-7.08c0.08-0.27,0.35-0.42,0.62-0.34c0.27,0.08,0.42,0.35,0.34,0.62
					c-1,3.48-1.79,7.06-2.36,10.64C77,276.33,76.79,276.51,76.55,276.51z"/>
			</g>
			<g>
				<path class="st7" d="M120.15,299.85c-0.25,0-0.47-0.19-0.5-0.45l-1.04-9.51c-0.49,2.73-1.08,5.45-1.8,8.12
					c-0.07,0.27-0.34,0.43-0.61,0.36c-0.27-0.07-0.43-0.34-0.36-0.61c1.02-3.82,1.8-7.73,2.35-11.65l-0.1-0.92
					c-0.01-0.06,0-0.13,0.01-0.19l0.42-1.54c0.07-0.25,0.32-0.4,0.58-0.36c0.26,0.05,0.43,0.29,0.4,0.55
					c-0.09,0.82-0.2,1.65-0.31,2.47l1.44,13.17c0.03,0.28-0.17,0.52-0.44,0.55C120.18,299.85,120.17,299.85,120.15,299.85z"/>
			</g>
			<g>
				<path class="st7" d="M283.13,287.16c-0.03,0-0.06,0-0.09-0.01c-0.27-0.05-0.45-0.31-0.41-0.58l2.97-16.77
					c0.05-0.27,0.31-0.46,0.58-0.41c0.27,0.05,0.45,0.31,0.41,0.58l-2.97,16.77C283.58,286.99,283.37,287.16,283.13,287.16z"/>
			</g>
			<g>
				<path class="st7" d="M274.46,297.82c-0.01,0-0.03,0-0.04,0c-0.27-0.02-0.47-0.25-0.46-0.51c0.01-0.35,0.03-0.7,0.04-1.06
					c-0.11-1.96-1.23-3.62-2.41-5.37c-1.26-1.86-2.56-3.79-2.71-6.22c-0.02-0.28,0.19-0.51,0.47-0.53c0.33-0.03,0.51,0.19,0.53,0.47
					c0.14,2.16,1.36,3.97,2.55,5.72c0.62,0.92,1.26,1.86,1.74,2.85c0.39-6.3,1.19-12.61,2.39-18.8c0.05-0.27,0.32-0.45,0.59-0.4
					c0.27,0.05,0.45,0.32,0.4,0.59c-1.38,7.13-2.23,14.42-2.53,21.67c0.02,0.37,0,0.75-0.04,1.14
					C274.92,297.64,274.71,297.82,274.46,297.82z"/>
			</g>
			<g>
				<path class="st7" d="M261.69,303.43c-0.23,0-0.43-0.16-0.49-0.39c-1.07-4.61-2.35-9.23-3.83-13.73
					c-0.09-0.26,0.06-0.54,0.32-0.63c0.26-0.09,0.54,0.06,0.63,0.32c1.48,4.52,2.78,9.17,3.85,13.81c0.06,0.27-0.11,0.54-0.38,0.6
					C261.76,303.43,261.73,303.43,261.69,303.43z"/>
			</g>
			<g>
				<path class="st7" d="M254.82,310.97c-0.19,0-0.38-0.11-0.46-0.3c-2.25-5.3-3.38-11.15-3.28-16.91c0-0.27,0.23-0.49,0.5-0.49
					c0,0,0.01,0,0.01,0c0.28,0,0.5,0.23,0.49,0.51c-0.1,5.62,1.01,11.33,3.2,16.5c0.11,0.25-0.01,0.55-0.26,0.66
					C254.95,310.96,254.88,310.97,254.82,310.97z"/>
			</g>
			<g>
				<path class="st7" d="M243.43,308c-0.24,0-0.45-0.17-0.49-0.41l-2.19-12.12c-0.35,0.71-0.78,1.53-1.25,2.41
					c-1.61,3.05-3.82,7.22-3.54,9.02c0.04,0.27-0.15,0.53-0.42,0.57c-0.25,0.04-0.53-0.15-0.57-0.42c-0.32-2.12,1.79-6.11,3.65-9.63
					c0.83-1.58,1.55-2.94,1.87-3.8c0.08-0.21,0.27-0.34,0.51-0.33c0.22,0.02,0.41,0.19,0.45,0.41l2.48,13.72
					c0.05,0.27-0.13,0.53-0.4,0.58C243.49,307.99,243.46,308,243.43,308z"/>
			</g>
			<g>
				<path class="st7" d="M228.7,302.89c-0.02,0-0.04,0-0.06,0c-0.27-0.03-0.47-0.28-0.43-0.56l1.02-8.12
					c0.04-0.28,0.29-0.48,0.56-0.43c0.27,0.03,0.47,0.28,0.43,0.56l-1.02,8.12C229.16,302.7,228.94,302.89,228.7,302.89z"/>
			</g>
			<g>
				<path class="st7" d="M81.27,206.12c-0.16,0-0.32-0.08-0.42-0.22c-0.15-0.23-0.09-0.54,0.14-0.69
					c5.87-3.91,10.96-9.11,14.74-15.06c0.32-0.5,0.63-1.01,0.94-1.52c0.9-1.47,1.82-2.98,2.95-4.34c0.81-0.97,1.74-1.91,2.65-2.82
					c2.63-2.65,5.11-5.15,4.98-8.49c-0.01-0.28,0.21-0.51,0.48-0.52c0.01,0,0.01,0,0.02,0c0.27,0,0.49,0.21,0.5,0.48
					c0.14,3.77-2.61,6.55-5.27,9.23c-0.89,0.9-1.81,1.82-2.58,2.76c-1.08,1.3-1.99,2.78-2.86,4.22c-0.31,0.51-0.63,1.03-0.95,1.53
					c-3.85,6.07-9.05,11.38-15.03,15.36C81.46,206.09,81.37,206.12,81.27,206.12z"/>
			</g>
			<g>
				<path class="st7" d="M106.43,197.03c-0.12,0-0.23-0.04-0.33-0.12c-0.21-0.18-0.23-0.5-0.05-0.71c2.89-3.35,5.19-7.14,6.82-11.25
					c0.1-0.26,0.39-0.38,0.65-0.28c0.26,0.1,0.38,0.39,0.28,0.65c-1.67,4.22-4.02,8.11-6.99,11.54
					C106.71,196.97,106.57,197.03,106.43,197.03z"/>
			</g>
			<g>
				<path class="st7" d="M113.32,223.63c-0.04,0-0.09-0.01-0.13-0.02c-12.03-3.25-24.9-3.92-37.21-1.94
					c-0.27,0.04-0.53-0.14-0.57-0.42c-0.04-0.27,0.14-0.53,0.42-0.57c12.44-2,25.46-1.32,37.62,1.97c0.27,0.07,0.42,0.35,0.35,0.61
					C113.74,223.48,113.54,223.63,113.32,223.63z"/>
			</g>
			<g>
				<path class="st7" d="M293.08,206.39c-0.02,0-0.04,0-0.06,0c-8.24-1.02-16.2-4.04-23.03-8.75c-0.55-0.38-1.09-0.76-1.63-1.15
					c-2.33-1.67-4.73-3.39-7.47-4.1c-0.28-0.07-0.57-0.14-0.86-0.2c-1-0.22-2.04-0.45-2.92-1.08c-0.94-0.67-1.52-1.67-2.04-2.55
					l-4.01-6.84c-0.14-0.24-0.06-0.54,0.18-0.68c0.24-0.14,0.54-0.06,0.68,0.18l4.01,6.84c0.47,0.79,0.99,1.7,1.76,2.24
					c0.72,0.51,1.61,0.71,2.56,0.92c0.3,0.07,0.6,0.13,0.89,0.21c2.92,0.76,5.4,2.54,7.8,4.26c0.54,0.38,1.07,0.77,1.61,1.14
					c6.7,4.62,14.51,7.58,22.59,8.58c0.27,0.03,0.47,0.28,0.43,0.56C293.54,206.21,293.32,206.39,293.08,206.39z"/>
			</g>
			<g>
				<path class="st7" d="M268.79,203.97c-0.06,0-0.11-0.01-0.17-0.03c-8.34-3-16.16-7.21-23.25-12.53c-0.22-0.17-0.27-0.48-0.1-0.7
					c0.17-0.22,0.48-0.26,0.7-0.1c7.01,5.26,14.74,9.43,22.99,12.39c0.26,0.09,0.39,0.38,0.3,0.64
					C269.19,203.84,268.99,203.97,268.79,203.97z"/>
			</g>
			<g>
				<path class="st7" d="M240.46,230.49c-0.19,0-0.38-0.11-0.46-0.3c-0.11-0.25,0-0.55,0.26-0.66c7.45-3.28,15.69-5.05,23.83-5.14
					c0,0,0,0,0,0c0.27,0,0.5,0.22,0.5,0.5c0,0.28-0.22,0.5-0.5,0.5c-8,0.08-16.11,1.83-23.44,5.06
					C240.59,230.48,240.52,230.49,240.46,230.49z"/>
			</g>
			<g>
				<path class="st7" d="M216.72,252.65c-0.11,0-0.22-0.04-0.31-0.11c-0.21-0.17-0.25-0.49-0.07-0.7
					c4.98-6.16,10.88-11.59,16.59-16.84l2.11-1.95c0.21-0.19,0.52-0.17,0.71,0.03c0.19,0.2,0.17,0.52-0.03,0.71l-2.12,1.95
					c-5.68,5.23-11.56,10.64-16.49,16.74C217.01,252.58,216.87,252.65,216.72,252.65z"/>
			</g>
			<g>
				<path class="st7" d="M303.59,77.36c-0.13,0-0.26-0.05-0.36-0.15c-0.19-0.2-0.19-0.51,0.01-0.71l9.02-8.88
					c1.64-1.62,3.34-3.29,5.43-4.43c0.94-0.52,1.95-0.91,2.92-1.29c0.97-0.38,1.98-0.78,2.89-1.29c4.1-2.29,6.5-6.91,8.43-10.63
					c0.13-0.25,0.43-0.34,0.67-0.21c0.25,0.13,0.34,0.43,0.21,0.67c-1.99,3.84-4.47,8.61-8.83,11.04c-0.97,0.54-2,0.95-3.01,1.34
					c-0.94,0.37-1.91,0.75-2.8,1.24c-1.97,1.08-3.62,2.7-5.21,4.27l-9.02,8.88C303.85,77.32,303.72,77.36,303.59,77.36z"/>
			</g>
			<g>
				<path class="st7" d="M286.89,96.39c-0.2,0-0.39-0.12-0.46-0.32c-0.1-0.26,0.02-0.55,0.28-0.65
					c13.07-5.17,25.66-11.7,37.42-19.41c0.23-0.15,0.54-0.09,0.69,0.14c0.15,0.23,0.09,0.54-0.14,0.69
					c-11.81,7.75-24.46,14.31-37.6,19.5C287.01,96.38,286.95,96.39,286.89,96.39z"/>
			</g>
			<g>
				<path class="st7" d="M296.5,109.81c-0.14,0-0.29-0.06-0.39-0.18c-0.17-0.21-0.14-0.53,0.07-0.7c7.7-6.31,16.4-11.1,25.86-14.22
					c0.27-0.09,0.54,0.06,0.63,0.32c0.09,0.26-0.06,0.55-0.32,0.63c-9.34,3.08-17.93,7.81-25.54,14.04
					C296.73,109.78,296.62,109.81,296.5,109.81z"/>
			</g>
			<g>
				<path class="st7" d="M55.21,59.86c-0.13,0-0.25-0.05-0.35-0.15c-5.33-5.3-8.73-8.1-10.98-9.95c-5.11-4.2-5.31-4.37-10.31-17.8
					c-0.1-0.26,0.04-0.55,0.29-0.64c0.26-0.1,0.55,0.04,0.64,0.29c4.91,13.18,5.1,13.34,10.01,17.38
					c2.27,1.87,5.69,4.68,11.05,10.02c0.2,0.19,0.2,0.51,0,0.71C55.47,59.81,55.34,59.86,55.21,59.86z"/>
			</g>
			<g>
				<path class="st7" d="M72.02,83.36c-0.05,0-0.11-0.01-0.16-0.03c-9.22-3.07-11.42-4.4-17.28-7.94c-1.49-0.9-3.22-1.94-5.36-3.19
					c-1.76-1.03-3.45-2.07-4.78-3.52c-0.97-1.06-1.72-2.29-2.44-3.48c-0.27-0.45-0.54-0.89-0.82-1.33
					c-3.93-6.12-10.3-10.5-15.92-14.37c-0.23-0.16-0.29-0.47-0.13-0.7c0.16-0.23,0.47-0.29,0.7-0.13c5.7,3.92,12.15,8.36,16.2,14.65
					c0.29,0.45,0.56,0.9,0.83,1.35c0.73,1.2,1.41,2.34,2.32,3.32c1.24,1.35,2.86,2.35,4.55,3.33c2.15,1.25,3.88,2.3,5.37,3.2
					c5.8,3.5,7.97,4.81,17.08,7.84c0.26,0.09,0.4,0.37,0.32,0.63C72.42,83.22,72.23,83.36,72.02,83.36z"/>
			</g>
			<g>
				<path class="st7" d="M80.52,101.21c-0.04,0-0.08,0-0.12-0.01c-6.15-1.53-11.71-5.09-15.67-10.04c-0.17-0.22-0.14-0.53,0.08-0.7
					c0.21-0.17,0.53-0.14,0.7,0.08c3.82,4.78,9.2,8.22,15.13,9.69c0.27,0.07,0.43,0.34,0.36,0.61
					C80.95,101.06,80.75,101.21,80.52,101.21z"/>
			</g>
			<g>
				<path class="st7" d="M252.48,156.04c-0.03,0-0.06,0-0.09-0.01c-0.27-0.05-0.45-0.31-0.4-0.58l5.18-28.21
					c0.05-0.27,0.31-0.45,0.58-0.4c0.27,0.05,0.45,0.31,0.4,0.58l-5.18,28.21C252.92,155.87,252.71,156.04,252.48,156.04z"/>
			</g>
			<g>
				<path class="st7" d="M245.96,144.85c-0.26,0-0.48-0.2-0.5-0.46l-0.92-12.46c-0.02-0.28,0.19-0.51,0.46-0.54
					c0.25-0.03,0.51,0.19,0.54,0.46l0.92,12.46c0.02,0.28-0.19,0.51-0.46,0.54C245.99,144.85,245.98,144.85,245.96,144.85z"/>
			</g>
			<g>
				<path class="st7" d="M122.79,146.42c-0.2,0-0.39-0.12-0.47-0.32l-8.79-23.46c-0.1-0.26,0.03-0.55,0.29-0.64
					c0.26-0.1,0.55,0.03,0.64,0.29l8.79,23.46c0.1,0.26-0.03,0.55-0.29,0.64C122.91,146.41,122.85,146.42,122.79,146.42z"/>
			</g>
			<g>
				<path class="st7" d="M130.02,143.21c-0.28,0-0.5-0.22-0.5-0.5v-12.8c0-0.28,0.22-0.5,0.5-0.5s0.5,0.22,0.5,0.5v12.8
					C130.52,142.99,130.3,143.21,130.02,143.21z"/>
			</g>
			<g>
				<path class="st7" d="M300.35,192.82c-0.09,0-0.18-0.02-0.28-0.05c-5.57-2.2-5.75-4.49-5.41-7.26c0.25-2.01,0.46-3.74-4.47-5.68
					c-3.58-1.41-8.41-3.32-11.07-7.2c-3.06,1.96-6.35,3.55-9.79,4.71c-0.32,0.11-0.68-0.02-0.87-0.3
					c-4.17-6.46-4.92-15.31-2.29-27.08c0.69-3.11,1.62-5.72,2.51-8.25c1.67-4.74,3.12-8.83,2.48-14.6c-0.11-0.96-0.26-1.95-0.41-2.9
					c-0.36-2.27-0.73-4.62-0.5-6.98c0.29-2.89,1.44-5.54,2.69-8.23c13.75-29.42,37.53-58.39,65.25-79.49
					c0.33-0.25,0.8-0.19,1.05,0.14c0.25,0.33,0.19,0.8-0.14,1.05c-27.53,20.96-51.15,49.73-64.79,78.94
					c-1.2,2.57-2.3,5.09-2.56,7.74c-0.22,2.17,0.12,4.32,0.48,6.6c0.15,0.97,0.31,1.98,0.42,2.97c0.67,6.11-0.9,10.55-2.56,15.26
					c-0.88,2.49-1.79,5.06-2.46,8.08c-2.47,11.05-1.89,19.38,1.78,25.44c3.35-1.19,6.55-2.79,9.52-4.76
					c0.17-0.12,0.38-0.15,0.58-0.11c0.2,0.05,0.37,0.17,0.48,0.35c2.11,3.59,6.29,5.47,10.75,7.23c5.57,2.19,5.75,4.49,5.41,7.26
					c-0.25,2.01-0.46,3.74,4.47,5.68c0.38,0.15,0.57,0.59,0.42,0.97C300.93,192.64,300.65,192.82,300.35,192.82z"/>
			</g>
			<g>
				<path class="st7" d="M69.97,181.85c-0.46,0-0.92-0.04-1.39-0.12c-0.41-0.07-0.68-0.46-0.61-0.87c0.07-0.41,0.46-0.67,0.87-0.61
					c3.52,0.62,6.86-1.72,9.98-4.16c6.54-5.12,12.52-10.84,11.96-17.99c-0.02-0.22,0.06-0.44,0.22-0.59s0.38-0.24,0.6-0.21
					l10.85,1.06l0.84-30.93c0.07-2.63,0.14-5.34-0.39-7.92c-0.53-2.55-1.63-4.94-2.9-7.56c-12.91-26.6-29.08-51.57-48.07-74.22
					c-0.27-0.32-0.22-0.79,0.09-1.06c0.32-0.27,0.79-0.23,1.06,0.09c19.07,22.75,35.31,47.82,48.27,74.53
					c1.32,2.72,2.46,5.19,3.02,7.92c0.57,2.75,0.49,5.56,0.42,8.27l-0.86,31.74c-0.01,0.21-0.1,0.4-0.25,0.54s-0.36,0.21-0.57,0.18
					l-10.79-1.05c0.09,7.42-5.96,13.22-12.57,18.4C76.87,179.52,73.56,181.85,69.97,181.85z"/>
			</g>
			<g>
				<path class="st7" d="M11.64,61.52c-0.27,0-0.5-0.22-0.5-0.5c-0.08-14.04-0.18-29.96,5.7-43.91c0.11-0.25,0.4-0.38,0.66-0.27
					c0.25,0.11,0.37,0.4,0.27,0.66c-5.79,13.76-5.7,29.57-5.62,43.52C12.14,61.3,11.92,61.52,11.64,61.52
					C11.64,61.52,11.64,61.52,11.64,61.52z"/>
			</g>
			<g>
				<path class="st7" d="M342.87,105.62c-0.07,0-0.15-0.02-0.22-0.05c-0.25-0.12-0.35-0.42-0.23-0.67
					c9.88-20.17,14.07-42.65,12.1-65.02c-0.02-0.28,0.18-0.52,0.45-0.54c0.27-0.03,0.52,0.18,0.54,0.45
					c1.98,22.55-2.24,45.22-12.2,65.55C343.23,105.52,343.05,105.62,342.87,105.62z"/>
			</g>
			<g>
				<path class="st7" d="M283.53,145.69c-0.1,0-0.19-0.03-0.28-0.08c-0.23-0.15-0.29-0.46-0.14-0.69
					c9.58-14.24,20.28-27.92,31.82-40.64c0.19-0.2,0.5-0.22,0.71-0.03c0.2,0.19,0.22,0.5,0.03,0.71
					c-11.5,12.69-22.18,26.32-31.73,40.53C283.85,145.61,283.69,145.69,283.53,145.69z"/>
			</g>
			<g>
				<path class="st7" d="M293.33,159.36c-0.29,0-0.58-0.03-0.87-0.11c-2.11-0.55-3.09-3.08-2.7-5.1c0.37-1.91,1.61-3.45,2.95-4.99
					c5.65-6.49,11.8-12.64,18.28-18.28c0.21-0.18,0.52-0.16,0.71,0.05c0.18,0.21,0.16,0.52-0.05,0.71
					c-6.45,5.62-12.56,11.73-18.19,18.18c-1.25,1.43-2.4,2.86-2.73,4.53c-0.31,1.58,0.41,3.54,1.97,3.94
					c1.06,0.28,2.28-0.17,3.84-1.4c2.45-1.93,4.55-4.23,6.26-6.84c0.58-0.88,1.11-1.81,1.63-2.72c0.75-1.3,1.53-2.65,2.45-3.9
					c4.76-6.46,12.85-9.66,19.35-12.23c0.26-0.1,0.55,0.02,0.65,0.28c0.1,0.26-0.02,0.55-0.28,0.65
					c-6.38,2.52-14.32,5.66-18.91,11.89c-0.88,1.2-1.65,2.52-2.38,3.8c-0.53,0.91-1.07,1.86-1.66,2.76
					c-1.76,2.7-3.94,5.08-6.47,7.08C296.21,158.43,294.83,159.36,293.33,159.36z"/>
			</g>
			<g>
				<path class="st7" d="M295.24,169.23c-0.21,0-0.4-0.13-0.47-0.34c-0.09-0.26,0.05-0.54,0.32-0.63l23.65-7.89
					c0.26-0.09,0.54,0.05,0.63,0.32c0.09,0.26-0.05,0.54-0.32,0.63l-23.65,7.89C295.34,169.22,295.29,169.23,295.24,169.23z"/>
			</g>
			<g>
				<path class="st7" d="M275.94,146.87c-0.06,0-0.13-0.01-0.19-0.04c-0.26-0.1-0.38-0.4-0.27-0.65
					c4.34-10.52,7.22-21.59,8.57-32.89c0.03-0.27,0.29-0.47,0.56-0.44c0.27,0.03,0.47,0.28,0.44,0.56
					c-1.36,11.39-4.27,22.54-8.64,33.15C276.32,146.76,276.14,146.87,275.94,146.87z"/>
			</g>
			<g>
				<path class="st7" d="M72.02,128.68c-0.04,0-0.07,0-0.11-0.01c-4.12-0.93-7.97-3.7-11.79-8.48c-1.1-1.38-2.15-2.83-3.16-4.23
					c-1.76-2.44-3.57-4.96-5.71-7.12c-3.69-3.71-8.14-6.25-13.57-9.18c-4.99-2.7-10.02-5.36-14.94-7.91
					c-0.25-0.13-0.34-0.43-0.21-0.67c0.13-0.24,0.43-0.34,0.67-0.21c4.93,2.56,9.96,5.22,14.96,7.92c4.33,2.34,9.71,5.24,13.8,9.36
					c2.2,2.21,4.04,4.76,5.82,7.24c1,1.39,2.04,2.84,3.13,4.19c3.23,4.04,6.47,6.58,9.85,7.73c-14.2-19.11-29.36-37.82-45.1-55.64
					c-0.18-0.21-0.16-0.52,0.04-0.71c0.21-0.18,0.52-0.16,0.71,0.04c16.08,18.21,31.56,37.35,46.02,56.88
					c0.12,0.17,0.13,0.4,0.02,0.57C72.34,128.6,72.19,128.68,72.02,128.68z"/>
			</g>
			<g>
				<path class="st7" d="M72.26,150.83c-0.09,0-0.17-0.02-0.25-0.07c-10.83-6.35-20.77-14.11-29.56-23.08
					c-0.19-0.2-0.19-0.51,0.01-0.71c0.2-0.19,0.51-0.19,0.71,0.01c8.72,8.9,18.6,16.61,29.35,22.92c0.24,0.14,0.32,0.45,0.18,0.68
					C72.6,150.75,72.43,150.83,72.26,150.83z"/>
			</g>
			<g>
				<path class="st7" d="M72.07,158.54c-0.01,0-0.03,0-0.04,0c-10.2-0.83-20.32-3.88-29.27-8.82c-0.24-0.13-0.33-0.44-0.2-0.68
					c0.13-0.24,0.44-0.33,0.68-0.2c8.83,4.88,18.82,7.89,28.87,8.7c0.28,0.02,0.48,0.26,0.46,0.54
					C72.54,158.34,72.33,158.54,72.07,158.54z"/>
			</g>
			<g>
				<path class="st7" d="M83.46,152.76c-0.3,0-0.62-0.05-0.94-0.17c-0.19-0.07-0.33-0.25-0.33-0.46c-0.14-5.02-4.48-9.69-9.48-10.2
					c-0.27-0.03-0.47-0.27-0.45-0.55c0.03-0.28,0.28-0.48,0.55-0.45c5.44,0.55,10.01,5.35,10.36,10.79c1.86,0.3,3.3-2.72,3.59-3.36
					l4.7-10.62c0.11-0.25,0.41-0.37,0.66-0.25c0.25,0.11,0.37,0.41,0.25,0.66l-4.7,10.62C87.22,149.79,85.71,152.76,83.46,152.76z"
					/>
			</g>
			<g>
				<path class="st7" d="M80.63,129.75c-0.03,0-0.06,0-0.09-0.01c-0.18-0.03-0.33-0.16-0.39-0.33l-3.54-10.29
					c-1.42-4.14-3.04-8.84-6.11-12.34c-0.18-0.21-0.16-0.52,0.05-0.71c0.21-0.18,0.52-0.16,0.71,0.05c3.2,3.65,4.85,8.44,6.3,12.67
					l3.23,9.4c1.74-2.55,2.49-5.79,2.01-8.84c-0.04-0.27,0.14-0.53,0.42-0.57c0.27-0.04,0.53,0.14,0.57,0.42
					c0.57,3.63-0.47,7.51-2.77,10.37C80.92,129.68,80.78,129.75,80.63,129.75z"/>
			</g>
			<g>
				<path class="st7" d="M232,164.23c-0.1,0-0.21-0.03-0.29-0.1c-6.53-4.78-10.95-12.11-12.11-20.13c-0.04-0.27,0.15-0.53,0.42-0.57
					c0.27-0.03,0.53,0.15,0.57,0.42c1.12,7.75,5.39,14.84,11.71,19.46c0.22,0.16,0.27,0.48,0.11,0.7
					C232.31,164.16,232.16,164.23,232,164.23z"/>
			</g>
			<g>
				<path class="st7" d="M241.84,183.1c-0.1,0-0.21-0.03-0.29-0.1c-6.9-5.02-14.03-10.21-20.05-16.51
					c-6.81-7.13-11.17-14.66-12.96-22.4c-0.06-0.27,0.11-0.54,0.38-0.6c0.27-0.06,0.54,0.11,0.6,0.38
					c1.75,7.56,6.02,14.94,12.71,21.93c5.96,6.24,13.05,11.4,19.91,16.4c0.22,0.16,0.27,0.48,0.11,0.7
					C242.15,183.03,241.99,183.1,241.84,183.1z"/>
			</g>
			<g>
				<path class="st7" d="M216.37,177.42c-0.08,0-0.15-0.02-0.22-0.05c-4.52-2.26-7.51-7.18-7.44-12.23c0-0.27,0.23-0.49,0.5-0.49
					c0,0,0,0,0.01,0c0.28,0,0.5,0.23,0.49,0.51c-0.07,4.68,2.7,9.23,6.89,11.32c0.25,0.12,0.35,0.42,0.22,0.67
					C216.73,177.32,216.55,177.42,216.37,177.42z"/>
			</g>
			<g>
				<path class="st7" d="M144.4,158.28c-0.17,0-0.33-0.08-0.42-0.23c-0.15-0.23-0.08-0.54,0.16-0.69c5.85-3.7,11-8.33,15.3-13.76
					c0.17-0.22,0.49-0.25,0.7-0.08c0.22,0.17,0.25,0.49,0.08,0.7c-4.37,5.52-9.6,10.22-15.55,13.98
					C144.58,158.25,144.49,158.28,144.4,158.28z"/>
			</g>
			<g>
				<path class="st7" d="M121.58,168.17c-0.25,0-0.46-0.18-0.49-0.43c-0.04-0.27,0.16-0.53,0.43-0.56
					c12.97-1.74,25.48-5.59,37.18-11.47c0.24-0.12,0.55-0.03,0.67,0.22c0.12,0.25,0.02,0.55-0.22,0.67
					c-11.8,5.92-24.41,9.82-37.5,11.56C121.63,168.17,121.61,168.17,121.58,168.17z"/>
			</g>
			<g>
				<path class="st7" d="M133.43,173.95c-0.22,0-0.42-0.15-0.48-0.37c-0.07-0.27,0.09-0.54,0.36-0.61l14.77-3.89
					c0.26-0.08,0.54,0.09,0.61,0.36s-0.09,0.54-0.36,0.61l-14.77,3.89C133.51,173.94,133.47,173.95,133.43,173.95z"/>
			</g>
			<g>
				<path class="st7" d="M244.75,348.71c-0.17,0-0.33-0.05-0.47-0.17c-0.32-0.26-0.37-0.73-0.11-1.05c2.37-2.93,3.51-7.14,3.2-11.84
					c-0.28-4.3-1.65-8.49-2.97-12.55c-0.07-0.2-0.04-0.42,0.06-0.6c0.1-0.18,0.28-0.31,0.49-0.36c15.04-3.38,28.38-12.8,36.61-25.84
					c0.22-0.35,0.68-0.46,1.04-0.23c0.35,0.22,0.46,0.68,0.23,1.04c-8.29,13.14-21.65,22.7-36.74,26.32
					c1.26,3.9,2.51,7.93,2.78,12.14c0.33,5.08-0.92,9.66-3.53,12.89C245.18,348.62,244.96,348.71,244.75,348.71z"/>
			</g>
			<g>
				<path class="st7" d="M105.83,335.75c-0.35,0-0.67-0.25-0.74-0.61c-1.16-6.3-0.34-12.91,2.32-18.73
					c-11.2-3.39-21.26-12.02-30.72-26.37c-0.23-0.35-0.13-0.81,0.21-1.04s0.81-0.13,1.04,0.21c9.5,14.39,19.55,22.9,30.73,26
					c0.22,0.06,0.39,0.21,0.48,0.42c0.09,0.2,0.09,0.44-0.01,0.64c-2.81,5.72-3.73,12.33-2.57,18.61c0.08,0.41-0.19,0.8-0.6,0.87
					C105.92,335.75,105.88,335.75,105.83,335.75z"/>
			</g>
			<g>
				<path class="st7" d="M193.87,378.42c-0.01,0-0.01,0-0.02,0c-9.66-0.26-18.93-6.02-23.55-14.48
					c-2.95,5.94-9.45,10.08-16.09,10.08c-0.03,0-0.07,0-0.1,0c-0.41,0-0.75-0.34-0.75-0.75c0-0.41,0.36-0.77,0.75-0.75
					c0.03,0,0.06,0,0.09,0c6.58,0,13.02-4.45,15.34-10.61c0.11-0.28,0.37-0.47,0.67-0.48c0.29-0.04,0.58,0.16,0.71,0.43
					c4.09,8.74,13.32,14.79,22.96,15.05c0.41,0.01,0.74,0.36,0.73,0.77C194.61,378.1,194.28,378.42,193.87,378.42z"/>
			</g>
		</g>
		<g id="Dot_00000160878818743189730370000015897119807964659356_">
			<g>
				<path class="st7" d="M184.27,143.49c-0.5-0.24-0.87-0.66-1.05-1.18c-0.18-0.52-0.15-1.08,0.09-1.57
					c0.24-0.5,0.66-0.87,1.18-1.05c0.52-0.18,1.08-0.15,1.57,0.09c0.63,0.31,1.04,0.9,1.14,1.55c0.06,0.4,0.01,0.82-0.18,1.2
					C186.53,143.56,185.3,143.99,184.27,143.49z"/>
			</g>
			<g>
				<path class="st7" d="M175.57,152.32c-0.81-0.39-1.16-1.37-0.76-2.19c0.39-0.81,1.37-1.16,2.19-0.76
					c0.5,0.24,0.83,0.71,0.91,1.23c0.05,0.32,0.01,0.65-0.14,0.96C177.37,152.37,176.39,152.71,175.57,152.32z"/>
			</g>
			<g>
				<path class="st7" d="M185.81,161.07c-0.31-0.2-0.53-0.52-0.61-0.88c-0.08-0.37-0.01-0.74,0.19-1.06
					c0.2-0.31,0.52-0.53,0.88-0.61c0.37-0.08,0.74-0.01,1.06,0.19c0.31,0.2,0.53,0.52,0.61,0.88c0.01,0.03,0.01,0.06,0.02,0.09
					c0.05,0.34-0.02,0.68-0.21,0.97c-0.2,0.31-0.52,0.53-0.88,0.61C186.5,161.34,186.13,161.28,185.81,161.07z"/>
			</g>
			<g>
				<path class="st7" d="M141.73,333.83c-0.25,0.18-0.57,0.25-0.89,0.21c-0.33-0.04-0.62-0.2-0.84-0.43
					c-0.21-0.24-0.32-0.53-0.29-0.82c0.02-0.29,0.17-0.55,0.42-0.72c0.32-0.23,0.74-0.27,1.12-0.16c0.23,0.07,0.45,0.2,0.61,0.38
					C142.3,332.78,142.24,333.47,141.73,333.83z"/>
			</g>
			<g>
				<path class="st7" d="M150.42,346.33c-0.75-0.18-1.22-0.93-1.04-1.68c0.09-0.36,0.31-0.67,0.63-0.87
					c0.32-0.2,0.69-0.26,1.06-0.17c0.03,0.01,0.06,0.01,0.08,0.02c0.33,0.1,0.6,0.31,0.78,0.6c0.2,0.32,0.26,0.69,0.17,1.06
					C151.92,346.04,151.17,346.51,150.42,346.33z"/>
			</g>
			<g>
				<path class="st7" d="M141.68,343.97c-0.52,0.42-1.29,0.34-1.7-0.19c-0.42-0.52-0.34-1.29,0.19-1.7
					c0.32-0.26,0.74-0.33,1.11-0.21c0.23,0.07,0.43,0.2,0.59,0.4C142.29,342.79,142.21,343.56,141.68,343.97z"/>
			</g>
			<g>
				<path class="st7" d="M152.19,357.82c-0.24,0.15-0.51,0.19-0.78,0.13c-0.27-0.06-0.5-0.23-0.64-0.46
					c-0.15-0.24-0.19-0.51-0.13-0.78c0.06-0.27,0.23-0.5,0.46-0.64c0.24-0.15,0.51-0.19,0.78-0.13c0.02,0,0.04,0.01,0.06,0.02
					c0.24,0.07,0.45,0.23,0.58,0.45c0.15,0.24,0.19,0.51,0.13,0.78C152.59,357.45,152.42,357.68,152.19,357.82z"/>
			</g>
			<g>
				<path class="st7" d="M123.34,335.89c-0.24,0.15-0.51,0.19-0.78,0.13c-0.27-0.06-0.5-0.23-0.64-0.46
					c-0.15-0.24-0.19-0.51-0.13-0.78c0.06-0.27,0.23-0.5,0.46-0.64c0.24-0.15,0.51-0.19,0.78-0.13c0.02,0,0.04,0.01,0.06,0.02
					c0.24,0.07,0.45,0.23,0.58,0.45c0.15,0.24,0.19,0.51,0.13,0.78C123.74,335.51,123.57,335.74,123.34,335.89z"/>
			</g>
			<g>
				<path class="st7" d="M131.39,362.33c0.29-0.09,0.62-0.05,0.91,0.1c0.29,0.15,0.53,0.39,0.65,0.68c0.12,0.29,0.13,0.6,0.01,0.87
					c-0.12,0.27-0.34,0.46-0.64,0.55c-0.37,0.11-0.79,0.02-1.11-0.22c-0.2-0.14-0.36-0.33-0.46-0.56
					C130.5,363.14,130.79,362.5,131.39,362.33z"/>
			</g>
			<g>
				<path class="st7" d="M125.71,345.97c0.65,0.42,0.84,1.28,0.43,1.93c-0.2,0.32-0.51,0.53-0.87,0.62
					c-0.36,0.08-0.74,0.02-1.05-0.18c-0.02-0.02-0.05-0.03-0.07-0.05c-0.28-0.2-0.47-0.49-0.54-0.83c-0.08-0.36-0.02-0.74,0.18-1.05
					C124.2,345.75,125.06,345.56,125.71,345.97z"/>
			</g>
			<g>
				<path class="st7" d="M133.2,351.05c0.63-0.23,1.32,0.1,1.55,0.73c0.23,0.63-0.1,1.32-0.73,1.55c-0.39,0.14-0.81,0.07-1.12-0.16
					c-0.19-0.14-0.34-0.33-0.43-0.57C132.24,351.97,132.57,351.28,133.2,351.05z"/>
			</g>
			<g>
				<path class="st7" d="M129.74,340.81c0.27-0.06,0.55-0.01,0.78,0.14c0.24,0.15,0.4,0.38,0.46,0.65c0.06,0.27,0.01,0.55-0.14,0.78
					c-0.15,0.23-0.38,0.4-0.65,0.46c-0.27,0.06-0.55,0.01-0.78-0.14c-0.02-0.01-0.04-0.02-0.05-0.04c-0.21-0.15-0.35-0.36-0.4-0.61
					c-0.06-0.27-0.01-0.55,0.14-0.78C129.24,341.03,129.47,340.87,129.74,340.81z"/>
			</g>
			<g>
				<path class="st7" d="M134.59,323.6c0.01-0.3,0.14-0.6,0.36-0.84c0.23-0.24,0.53-0.39,0.85-0.42c0.32-0.03,0.61,0.06,0.83,0.25
					c0.22,0.19,0.34,0.47,0.33,0.77c-0.01,0.39-0.22,0.76-0.54,0.99c-0.19,0.14-0.43,0.24-0.67,0.27
					C135.1,324.69,134.58,324.23,134.59,323.6z"/>
			</g>
			<g>
				<path class="st7" d="M144.86,364.79c-0.75-0.18-1.22-0.93-1.04-1.68c0.09-0.36,0.31-0.67,0.63-0.87
					c0.32-0.2,0.69-0.26,1.06-0.17c0.03,0.01,0.06,0.01,0.08,0.02c0.33,0.1,0.6,0.31,0.78,0.6c0.2,0.32,0.26,0.69,0.17,1.06
					C146.36,364.5,145.61,364.96,144.86,364.79z"/>
			</g>
			<g>
				<path class="st7" d="M124.37,318.51c-0.03-0.67,0.49-1.23,1.16-1.26c0.67-0.03,1.23,0.49,1.26,1.16
					c0.02,0.41-0.18,0.79-0.49,1.02c-0.19,0.14-0.42,0.23-0.67,0.24C124.96,319.7,124.4,319.18,124.37,318.51z"/>
			</g>
			<g>
				<path class="st7" d="M137.87,356.78c-0.24,0.15-0.51,0.19-0.78,0.13c-0.27-0.06-0.5-0.23-0.64-0.46
					c-0.15-0.24-0.19-0.51-0.13-0.78c0.06-0.27,0.23-0.5,0.46-0.64c0.24-0.15,0.51-0.19,0.78-0.13c0.02,0,0.04,0.01,0.06,0.02
					c0.24,0.07,0.45,0.23,0.58,0.45c0.15,0.24,0.19,0.51,0.13,0.78C138.27,356.41,138.11,356.64,137.87,356.78z"/>
			</g>
			<g>
				<path class="st7" d="M117.08,330.66c0.65,0.42,0.84,1.28,0.43,1.93c-0.2,0.32-0.51,0.53-0.87,0.62
					c-0.36,0.08-0.74,0.02-1.05-0.18c-0.02-0.02-0.05-0.03-0.07-0.05c-0.28-0.2-0.47-0.49-0.54-0.83c-0.08-0.36-0.02-0.74,0.18-1.05
					C115.57,330.45,116.43,330.25,117.08,330.66z"/>
			</g>
			<g>
				<path class="st7" d="M206.2,331.37c0.25,0.18,0.57,0.25,0.89,0.21c0.33-0.04,0.62-0.2,0.84-0.43c0.21-0.24,0.32-0.53,0.29-0.82
					c-0.02-0.29-0.17-0.55-0.42-0.72c-0.32-0.23-0.74-0.27-1.12-0.16c-0.23,0.07-0.45,0.2-0.61,0.38
					C205.63,330.31,205.69,331,206.2,331.37z"/>
			</g>
			<g>
				<path class="st7" d="M197.51,343.86c0.75-0.18,1.22-0.93,1.04-1.68c-0.09-0.36-0.31-0.67-0.63-0.87
					c-0.32-0.2-0.69-0.26-1.06-0.17c-0.03,0.01-0.06,0.01-0.08,0.02c-0.33,0.1-0.6,0.31-0.78,0.6c-0.2,0.32-0.26,0.69-0.17,1.06
					C196.01,343.58,196.76,344.04,197.51,343.86z"/>
			</g>
			<g>
				<path class="st7" d="M206.25,341.51c0.52,0.42,1.29,0.34,1.7-0.19c0.42-0.52,0.34-1.29-0.19-1.7c-0.32-0.26-0.74-0.33-1.11-0.21
					c-0.23,0.07-0.43,0.2-0.59,0.4C205.64,340.32,205.73,341.09,206.25,341.51z"/>
			</g>
			<g>
				<path class="st7" d="M224.59,333.42c0.24,0.15,0.51,0.19,0.78,0.13c0.27-0.06,0.5-0.23,0.64-0.46c0.15-0.24,0.19-0.51,0.13-0.78
					c-0.06-0.27-0.23-0.5-0.46-0.64c-0.24-0.15-0.51-0.19-0.78-0.13c-0.02,0-0.04,0.01-0.06,0.02c-0.24,0.07-0.45,0.23-0.58,0.45
					c-0.15,0.24-0.19,0.51-0.13,0.78C224.19,333.04,224.36,333.27,224.59,333.42z"/>
			</g>
			<g>
				<path class="st7" d="M216.73,365.91c-0.29-0.09-0.62-0.05-0.91,0.1c-0.29,0.15-0.53,0.39-0.65,0.68
					c-0.13,0.29-0.13,0.6-0.01,0.87c0.12,0.27,0.34,0.46,0.64,0.55c0.37,0.11,0.79,0.02,1.11-0.22c0.2-0.14,0.36-0.33,0.46-0.56
					C217.61,366.72,217.33,366.09,216.73,365.91z"/>
			</g>
			<g>
				<path class="st7" d="M223.74,346.22c-0.77-0.05-1.43,0.54-1.48,1.31c-0.02,0.37,0.1,0.73,0.35,1.01
					c0.25,0.28,0.59,0.45,0.96,0.47c0.03,0,0.06,0,0.09,0c0.34,0,0.67-0.12,0.92-0.35c0.28-0.25,0.45-0.59,0.47-0.96
					C225.1,346.93,224.51,346.27,223.74,346.22z"/>
			</g>
			<g>
				<path class="st7" d="M214.7,345.96c-0.38-0.55-1.13-0.69-1.69-0.31c-0.55,0.38-0.69,1.13-0.31,1.69c0.23,0.34,0.61,0.53,1,0.53
					c0.24,0,0.47-0.07,0.68-0.21C214.94,347.27,215.08,346.52,214.7,345.96z"/>
			</g>
			<g>
				<path class="st7" d="M213.43,337.97c-0.27-0.06-0.55-0.01-0.78,0.14c-0.24,0.15-0.4,0.38-0.46,0.65
					c-0.06,0.27-0.01,0.55,0.14,0.78c0.15,0.23,0.38,0.4,0.65,0.46c0.27,0.06,0.55,0.01,0.78-0.14c0.02-0.01,0.04-0.02,0.05-0.04
					c0.21-0.15,0.35-0.36,0.4-0.61c0.06-0.27,0.01-0.55-0.14-0.78C213.94,338.19,213.7,338.03,213.43,337.97z"/>
			</g>
			<g>
				<path class="st7" d="M192.5,351.25c0.15,0.76,0.88,1.25,1.64,1.11c0.37-0.07,0.68-0.28,0.89-0.59c0.21-0.31,0.28-0.68,0.21-1.05
					c-0.01-0.03-0.01-0.06-0.02-0.08c-0.09-0.33-0.29-0.62-0.57-0.81c-0.31-0.21-0.68-0.28-1.05-0.21
					C192.85,349.76,192.35,350.49,192.5,351.25z"/>
			</g>
			<g>
				<path class="st7" d="M183.27,355.1c-0.44,0.5-0.39,1.27,0.12,1.71c0.5,0.44,1.27,0.39,1.71-0.12c0.27-0.31,0.36-0.73,0.26-1.1
					c-0.06-0.23-0.18-0.44-0.38-0.61C184.48,354.55,183.71,354.6,183.27,355.1z"/>
			</g>
			<g>
				<path class="st7" d="M202.18,358.74c0.57-0.36,0.74-1.11,0.38-1.67c-0.36-0.57-1.11-0.74-1.67-0.38
					c-0.35,0.22-0.55,0.59-0.57,0.98c-0.01,0.24,0.05,0.48,0.18,0.69C200.87,358.93,201.62,359.1,202.18,358.74z"/>
			</g>
			<g>
				<path class="st7" d="M191.17,360.79c0.07-0.27,0.03-0.55-0.1-0.79c-0.14-0.24-0.36-0.41-0.63-0.48
					c-0.27-0.07-0.55-0.03-0.79,0.1c-0.24,0.14-0.41,0.36-0.48,0.63c-0.07,0.27-0.03,0.55,0.1,0.79c0.01,0.02,0.02,0.04,0.03,0.05
					c0.14,0.21,0.35,0.36,0.6,0.43c0.27,0.07,0.55,0.03,0.79-0.1C190.93,361.28,191.1,361.06,191.17,360.79z"/>
			</g>
			<g>
				<path class="st7" d="M213.34,321.13c-0.01-0.3-0.14-0.6-0.36-0.84c-0.23-0.24-0.53-0.39-0.85-0.42
					c-0.32-0.03-0.61,0.06-0.83,0.25c-0.22,0.19-0.34,0.47-0.33,0.77c0.01,0.39,0.22,0.76,0.54,0.99c0.19,0.14,0.43,0.24,0.67,0.27
					C212.83,322.22,213.35,321.76,213.34,321.13z"/>
			</g>
			<g>
				<path class="st7" d="M203.26,368.37c0.75-0.18,1.22-0.93,1.04-1.68c-0.09-0.36-0.31-0.67-0.63-0.87
					c-0.32-0.2-0.69-0.26-1.06-0.17c-0.03,0.01-0.06,0.01-0.08,0.02c-0.33,0.1-0.6,0.31-0.78,0.6c-0.2,0.32-0.26,0.69-0.17,1.06
					C201.75,368.08,202.51,368.54,203.26,368.37z"/>
			</g>
			<g>
				<path class="st7" d="M223.56,316.05c0.03-0.67-0.49-1.23-1.16-1.26c-0.67-0.03-1.23,0.49-1.26,1.16
					c-0.02,0.41,0.18,0.79,0.49,1.02c0.19,0.14,0.42,0.23,0.67,0.24C222.97,317.23,223.54,316.71,223.56,316.05z"/>
			</g>
			<g>
				<path class="st7" d="M210.24,360.37c0.24,0.15,0.51,0.19,0.78,0.13c0.27-0.06,0.5-0.23,0.64-0.46c0.15-0.24,0.19-0.51,0.13-0.78
					c-0.06-0.27-0.23-0.5-0.46-0.64c-0.24-0.15-0.51-0.19-0.78-0.13c-0.02,0-0.04,0.01-0.06,0.02c-0.24,0.07-0.45,0.23-0.58,0.45
					c-0.15,0.24-0.19,0.51-0.13,0.78C209.84,359.99,210.01,360.22,210.24,360.37z"/>
			</g>
			<g>
				<path class="st7" d="M230.85,328.2c-0.65,0.42-0.84,1.28-0.43,1.93c0.2,0.32,0.51,0.53,0.87,0.62c0.36,0.08,0.74,0.02,1.05-0.18
					c0.02-0.02,0.05-0.03,0.07-0.05c0.28-0.2,0.47-0.49,0.54-0.83c0.08-0.36,0.02-0.74-0.18-1.05
					C232.36,327.98,231.5,327.78,230.85,328.2z"/>
			</g>
			<g>
				<path class="st7" d="M333.36,108.25c-0.48,0.26-1.04,0.33-1.57,0.17c-0.53-0.15-0.96-0.5-1.23-0.99
					c-0.26-0.48-0.33-1.04-0.17-1.57c0.15-0.53,0.5-0.96,0.99-1.23c0.62-0.34,1.34-0.33,1.92-0.03c0.36,0.18,0.67,0.47,0.87,0.85
					C334.72,106.45,334.36,107.71,333.36,108.25z"/>
			</g>
			<g>
				<path class="st7" d="M338.07,125.84c-0.96-0.42-1.4-1.53-0.98-2.48c0.2-0.46,0.57-0.82,1.04-1.01c0.47-0.19,0.98-0.18,1.44,0.02
					c0.04,0.02,0.07,0.03,0.11,0.05c0.41,0.21,0.73,0.55,0.9,0.99c0.19,0.47,0.18,0.98-0.02,1.44
					C340.14,125.81,339.02,126.25,338.07,125.84z"/>
			</g>
			<g>
				<path class="st7" d="M327,120.64c-0.79,0.43-1.79,0.14-2.22-0.65c-0.43-0.79-0.14-1.79,0.65-2.22c0.49-0.27,1.06-0.26,1.53-0.02
					c0.29,0.14,0.53,0.37,0.7,0.67C328.08,119.2,327.79,120.2,327,120.64z"/>
			</g>
			<g>
				<path class="st7" d="M337.7,141.54c-0.35,0.14-0.73,0.13-1.07-0.02c-0.34-0.15-0.61-0.42-0.75-0.77
					c-0.14-0.35-0.13-0.73,0.02-1.07c0.15-0.34,0.42-0.61,0.77-0.75c0.35-0.14,0.73-0.13,1.07,0.02c0.03,0.01,0.05,0.02,0.08,0.04
					c0.31,0.15,0.54,0.41,0.67,0.73c0.14,0.35,0.13,0.73-0.02,1.07C338.32,141.14,338.05,141.4,337.7,141.54z"/>
			</g>
			<g>
				<path class="st7" d="M32.64,113.93c0.15,1.03-0.57,1.99-1.6,2.14c-0.5,0.07-1-0.05-1.4-0.36c-0.4-0.3-0.67-0.74-0.74-1.24
					c-0.01-0.04-0.01-0.08-0.01-0.12c-0.04-0.46,0.09-0.91,0.37-1.28c0.3-0.4,0.74-0.67,1.24-0.74
					C31.53,112.19,32.49,112.9,32.64,113.93z"/>
			</g>
			<g>
				<path class="st7" d="M38.95,136.53c0.79,0.45,1.06,1.45,0.61,2.23c-0.45,0.78-1.45,1.06-2.23,0.61
					c-0.49-0.28-0.78-0.77-0.82-1.29c-0.03-0.32,0.04-0.65,0.21-0.94C37.16,136.35,38.17,136.08,38.95,136.53z"/>
			</g>
			<g>
				<path class="st7" d="M46.69,116.44c0.3,0.22,0.49,0.55,0.55,0.92c0.06,0.37-0.04,0.74-0.26,1.04c-0.22,0.3-0.55,0.49-0.92,0.55
					c-0.37,0.05-0.74-0.04-1.04-0.26c-0.3-0.22-0.49-0.55-0.55-0.92c0-0.03-0.01-0.06-0.01-0.09c-0.03-0.34,0.07-0.68,0.27-0.95
					c0.22-0.3,0.55-0.49,0.92-0.55C46.02,116.12,46.39,116.21,46.69,116.44z"/>
			</g>
		</g>
	</g>
</g>
<g id="Guide">
</g>
</svg>
