<?xml version="1.0" encoding="utf-8"?>
<!-- Generator: Adobe Illustrator 26.1.0, SVG Export Plug-In . SVG Version: 6.00 Build 0)  -->
<svg version="1.1" xmlns="http://www.w3.org/2000/svg" xmlns:xlink="http://www.w3.org/1999/xlink" x="0px" y="0px"
	 viewBox="0 0 166.51 351.3" style="enable-background:new 0 0 166.51 351.3;" xml:space="preserve">
<style type="text/css">
	.st0{fill:#FFFFFF;stroke:#000000;stroke-miterlimit:10;}
	.st1{fill:#BFA071;stroke:#554B4E;stroke-width:1.5;stroke-linecap:round;stroke-linejoin:round;stroke-miterlimit:10;}
	.st2{fill:#BFA071;stroke:#554B4E;stroke-linecap:round;stroke-linejoin:round;stroke-miterlimit:10;}
	.st3{fill:#F8F4E9;stroke:#554B4E;stroke-width:1.5;stroke-linecap:round;stroke-linejoin:round;stroke-miterlimit:10;}
	.st4{fill:#F2DED6;stroke:#554B4E;stroke-width:1.5;stroke-linecap:round;stroke-linejoin:round;stroke-miterlimit:10;}
	.st5{fill:none;stroke:#554B4E;stroke-linecap:round;stroke-linejoin:round;stroke-miterlimit:10;}
	.st6{fill:#BFA071;}
	.st7{fill:#554B4E;}
	.st8{fill:#F8F4E9;}
	.st9{fill:none;stroke:#554B4E;stroke-width:1.5;stroke-linecap:round;stroke-linejoin:round;stroke-miterlimit:10;}
	.st10{fill:#F8F4E9;stroke:#554B4E;stroke-linecap:round;stroke-linejoin:round;stroke-miterlimit:10;}
	.st11{fill:#F2DED6;stroke:#554B4E;stroke-linecap:round;stroke-linejoin:round;stroke-miterlimit:10;}
	.st12{clip-path:url(#SVGID_00000181796077908508971390000010213549467970910874_);}
	.st13{fill:none;stroke:#BFA071;stroke-width:1.5;stroke-linecap:round;stroke-linejoin:round;}
	.st14{fill:none;stroke:#BFA071;stroke-width:1.5;stroke-linecap:round;stroke-linejoin:round;stroke-dasharray:68.8403,19.6687;}
	.st15{fill:none;stroke:#BFA071;stroke-width:1.5;stroke-linecap:round;stroke-linejoin:round;stroke-dasharray:71.4455,20.413;}
	.st16{fill:none;stroke:#BFA071;stroke-width:1.5;stroke-linecap:round;stroke-linejoin:round;stroke-dasharray:69.5884,19.8824;}
	.st17{fill:none;stroke:#BFA071;stroke-width:1.5;stroke-linecap:round;stroke-linejoin:round;stroke-dasharray:61.3524,17.5292;}
	.st18{fill:none;stroke:#BFA071;stroke-width:1.5;stroke-linecap:round;stroke-linejoin:round;stroke-dasharray:63.9932,18.2838;}
	.st19{fill:none;stroke:#BFA071;stroke-width:1.5;stroke-linecap:round;stroke-linejoin:round;stroke-dasharray:72.7778,20.7937;}
	.st20{fill:none;stroke:#BFA071;stroke-width:1.5;stroke-linecap:round;stroke-linejoin:round;stroke-dasharray:77.193,22.0551;}
	.st21{fill:none;stroke:#BFA071;stroke-width:1.5;stroke-linecap:round;stroke-linejoin:round;stroke-dasharray:75.3802,21.5372;}
	.st22{fill:none;stroke:#BFA071;stroke-width:1.5;stroke-linecap:round;stroke-linejoin:round;stroke-dasharray:73.6885,21.0538;}
	.st23{fill:none;stroke:#BFA071;stroke-width:1.5;stroke-linecap:round;stroke-linejoin:round;stroke-dasharray:63.3162,18.0903;}
	.st24{fill:none;stroke:#BFA071;stroke-width:1.5;stroke-linecap:round;stroke-linejoin:round;stroke-dasharray:62.0513,17.7289;}
	.st25{fill:none;stroke:#BFA071;stroke-width:1.5;stroke-linecap:round;stroke-linejoin:round;stroke-dasharray:68.9157,19.6902;}
	.st26{fill:none;stroke:#554B4E;stroke-width:1.5;stroke-linecap:round;stroke-linejoin:round;}
	.st27{fill:none;stroke:#554B4E;stroke-width:1.5;stroke-linecap:round;stroke-linejoin:round;stroke-dasharray:15.0532,10.0355;}
	.st28{fill:none;stroke:#554B4E;stroke-width:1.5;stroke-linecap:round;stroke-linejoin:round;stroke-dasharray:14.9985,9.999;}
	.st29{fill:none;stroke:#554B4E;stroke-width:1.5;stroke-linecap:round;stroke-linejoin:round;stroke-dasharray:14.8977,9.9318;}
	.st30{fill:none;stroke:#554B4E;stroke-width:1.5;stroke-linecap:round;stroke-linejoin:round;stroke-dasharray:15.4213,10.2808;}
	.st31{fill:none;stroke:#554B4E;stroke-width:1.5;stroke-linecap:round;stroke-linejoin:round;stroke-dasharray:15.2271,10.1514;}
	.st32{fill:none;stroke:#554B4E;stroke-width:1.5;stroke-linecap:round;stroke-linejoin:round;stroke-dasharray:15.021,10.014;}
	.st33{fill:none;stroke:#554B4E;stroke-width:1.5;stroke-linecap:round;stroke-linejoin:round;stroke-dasharray:15.0727,10.0485;}
	.st34{fill:none;stroke:#554B4E;stroke-width:1.5;stroke-linecap:round;stroke-linejoin:round;stroke-dasharray:14.6942,9.7961;}
	.st35{fill:none;stroke:#554B4E;stroke-width:1.5;stroke-linecap:round;stroke-linejoin:round;stroke-dasharray:14.7469,9.8312;}
	.st36{fill:none;stroke:#554B4E;stroke-width:1.5;stroke-linecap:round;stroke-linejoin:round;stroke-dasharray:15.0819,10.0546;}
	.st37{fill:none;stroke:#554B4E;stroke-width:1.5;stroke-linecap:round;stroke-linejoin:round;stroke-dasharray:15.003,10.002;}
	.st38{fill:#F2DED6;}
	.st39{fill:#F2DED6;stroke:#554B4E;stroke-width:1.5;stroke-linecap:round;stroke-miterlimit:10;}
	.st40{fill:none;stroke:#554B4E;stroke-width:1.5;stroke-linecap:round;stroke-miterlimit:10;}
	.st41{fill:none;stroke:#554B4E;stroke-linecap:round;stroke-miterlimit:10;}
	.st42{fill:none;stroke:#BFA071;stroke-linecap:round;stroke-linejoin:round;}
	.st43{fill:none;stroke:#BFA071;stroke-linecap:round;stroke-linejoin:round;stroke-dasharray:14.9905,14.9905;}
	.st44{fill:none;stroke:#BFA071;stroke-linecap:round;stroke-linejoin:round;stroke-dasharray:51.384,34.256;}
	.st45{fill:none;stroke:#554B4E;stroke-miterlimit:10;}
	.st46{clip-path:url(#SVGID_00000153676708562807894100000002700472940821129132_);}
	.st47{fill:none;stroke:#554B4E;stroke-width:1.5;stroke-linecap:round;stroke-linejoin:round;stroke-dasharray:68.8403,19.6687;}
	.st48{fill:none;stroke:#554B4E;stroke-width:1.5;stroke-linecap:round;stroke-linejoin:round;stroke-dasharray:71.4455,20.413;}
	.st49{fill:none;stroke:#554B4E;stroke-width:1.5;stroke-linecap:round;stroke-linejoin:round;stroke-dasharray:69.5884,19.8824;}
	.st50{fill:none;stroke:#554B4E;stroke-width:1.5;stroke-linecap:round;stroke-linejoin:round;stroke-dasharray:61.3524,17.5292;}
	.st51{fill:none;stroke:#554B4E;stroke-width:1.5;stroke-linecap:round;stroke-linejoin:round;stroke-dasharray:63.9932,18.2838;}
	.st52{fill:none;stroke:#554B4E;stroke-width:1.5;stroke-linecap:round;stroke-linejoin:round;stroke-dasharray:72.7778,20.7937;}
	.st53{fill:none;stroke:#554B4E;stroke-width:1.5;stroke-linecap:round;stroke-linejoin:round;stroke-dasharray:77.193,22.0551;}
	.st54{fill:none;stroke:#554B4E;stroke-width:1.5;stroke-linecap:round;stroke-linejoin:round;stroke-dasharray:75.3802,21.5372;}
	.st55{fill:none;stroke:#554B4E;stroke-width:1.5;stroke-linecap:round;stroke-linejoin:round;stroke-dasharray:73.6885,21.0538;}
	.st56{fill:none;stroke:#554B4E;stroke-width:1.5;stroke-linecap:round;stroke-linejoin:round;stroke-dasharray:63.3162,18.0903;}
	.st57{fill:none;stroke:#554B4E;stroke-width:1.5;stroke-linecap:round;stroke-linejoin:round;stroke-dasharray:62.0513,17.7289;}
	.st58{fill:none;stroke:#554B4E;stroke-width:1.5;stroke-linecap:round;stroke-linejoin:round;stroke-dasharray:68.9157,19.6902;}
	.st59{fill:none;stroke:#554B4E;stroke-linecap:round;stroke-linejoin:round;}
	.st60{fill:none;stroke:#554B4E;stroke-linecap:round;stroke-linejoin:round;stroke-dasharray:14.9905,14.9905;}
	.st61{fill:none;stroke:#554B4E;stroke-linecap:round;stroke-linejoin:round;stroke-dasharray:51.384,34.256;}
	.st62{fill:#95608F;}
	.st63{fill:#ED859E;}
	.st64{fill:#FAC87D;}
	.st65{opacity:0.1;}
	.st66{fill:#B5846F;}
	.st67{fill:#B5846F;stroke:#B5846F;stroke-width:5;stroke-linecap:round;stroke-linejoin:round;stroke-miterlimit:10;}
	.st68{fill:#EAD9EB;}
	.st69{fill:#FFFFFF;}
	.st70{fill:url(#SVGID_00000137102579978324924260000005322481216478285706_);}
	.st71{opacity:0.8;fill:#FFFFFF;}
	.st72{fill:url(#SVGID_00000164482622634089426520000007854492104436808091_);}
	.st73{fill:url(#SVGID_00000100360468889986968700000002624793410824573105_);}
	.st74{opacity:0.8;}
	.st75{opacity:0.6;}
	.st76{opacity:0.2;}
	.st77{fill:none;}
	.st78{fill:url(#SVGID_00000025434048004811422520000012786392181650475418_);}
	.st79{fill:url(#SVGID_00000013894837500437358240000017465989155519256726_);}
	.st80{clip-path:url(#SVGID_00000105401449549152000210000008010526366481696924_);fill:#FFFFFF;}
	.st81{clip-path:url(#SVGID_00000152261842110961972580000014618434226495954842_);fill:#FFFFFF;}
	.st82{clip-path:url(#SVGID_00000140000407396216067130000005802074101269338256_);fill:#FFFFFF;}
	.st83{clip-path:url(#SVGID_00000018949922700140913530000013846581523199035779_);fill:#FFFFFF;}
	.st84{clip-path:url(#SVGID_00000149368629537092312550000006106988013757440703_);fill:#FFFFFF;}
</style>
<g id="Bg">
</g>
<g id="Graphic">
	<g id="Mushroom_2_00000060741474902104868250000001738613386499415445_">
		<g id="Gill_00000114789769518582460060000017055728570455258019_">
			<g>
				<path class="st6" d="M165.73,103.84c0.62,8.99-8.88,18.54-12.82,20.55c-2,1.02-4.24,1.6-6.29,2.54
					c-1.97,0.91-3.77,2.17-5.86,2.81c-6.81,2.08-15.24-2.71-21.08,1.14c-1.35,0.89-2.35,2.14-3.44,3.28
					c-2.53,2.63-3.78,4.66-7.27,6.08l-35.16,8.78c-6.85-6.35-25.59-1-33.19,1.32c-5.97,1.83-9.4-0.31-14.95-2
					c-3.73-1.14-7.84-1.02-11.46-2.49c-4.16-1.69-7.41-4.79-9.91-8.25l24.26-13.48L90,114.11l26.45-15.37L165.73,103.84z"/>
				<path class="st7" d="M36.25,151.79c-2.78,0-5.15-0.82-7.76-1.73c-0.95-0.33-1.94-0.67-3.02-1c-1.59-0.49-3.31-0.74-4.97-0.99
					c-2.19-0.33-4.45-0.67-6.55-1.53c-3.85-1.57-7.29-4.43-10.23-8.5c-0.13-0.17-0.17-0.39-0.12-0.6c0.05-0.21,0.18-0.39,0.37-0.49
					l24.26-13.48c0.08-0.04,0.16-0.07,0.24-0.08l61.28-9.99l26.33-15.3c0.14-0.08,0.29-0.12,0.45-0.1l49.27,5.1
					c0.36,0.04,0.65,0.33,0.67,0.69c0.64,9.24-8.98,19.1-13.22,21.27c-1.14,0.58-2.35,1.02-3.52,1.45c-0.93,0.34-1.9,0.69-2.79,1.1
					c-0.69,0.32-1.38,0.69-2.05,1.06c-1.23,0.67-2.5,1.36-3.91,1.79c-3.19,0.97-6.65,0.52-10,0.09c-4.05-0.52-7.87-1.02-10.88,0.96
					c-0.97,0.64-1.75,1.48-2.57,2.38c-0.25,0.27-0.49,0.53-0.74,0.79c-0.52,0.54-0.98,1.05-1.42,1.54c-1.71,1.89-3.18,3.52-6.1,4.72
					c-0.03,0.01-0.07,0.02-0.1,0.03L74,149.75c-0.24,0.06-0.51-0.01-0.69-0.18c-4.54-4.21-15.46-3.71-32.46,1.49
					C39.16,151.58,37.65,151.79,36.25,151.79z M5.43,137.84c2.66,3.48,5.71,5.94,9.08,7.31c1.94,0.79,4.01,1.1,6.21,1.43
					c1.71,0.26,3.49,0.52,5.18,1.04c1.09,0.33,2.1,0.68,3.07,1.02c3.84,1.33,6.87,2.38,11.44,0.98c17.19-5.26,28.49-5.74,33.61-1.43
					l34.72-8.67c2.57-1.06,3.81-2.43,5.51-4.32c0.45-0.5,0.92-1.02,1.45-1.57c0.24-0.25,0.48-0.51,0.72-0.77
					c0.85-0.92,1.73-1.88,2.85-2.62c3.47-2.29,7.76-1.74,11.9-1.2c3.19,0.41,6.49,0.84,9.37-0.03c1.26-0.39,2.42-1.01,3.63-1.67
					c0.69-0.37,1.4-0.76,2.13-1.1c0.95-0.44,1.95-0.8,2.91-1.15c1.18-0.43,2.3-0.84,3.35-1.38c3.77-1.93,12.54-10.91,12.43-19.2
					l-48.38-5.01l-26.24,15.25c-0.08,0.05-0.17,0.08-0.26,0.09l-61.29,9.99L5.43,137.84z"/>
			</g>
			<g>
				<g>
					<path class="st7" d="M20.39,147.8c-0.1,0-0.2-0.03-0.28-0.09c-0.23-0.16-0.28-0.47-0.13-0.7l8.84-12.78
						c0.16-0.23,0.47-0.29,0.7-0.13c0.23,0.16,0.28,0.47,0.13,0.7l-8.84,12.78C20.7,147.72,20.55,147.8,20.39,147.8z"/>
				</g>
				<g>
					<path class="st7" d="M34.78,151.64c-0.09,0-0.18-0.02-0.26-0.07c-0.24-0.14-0.31-0.45-0.17-0.69l14.94-24.39
						c0.15-0.24,0.45-0.31,0.69-0.17c0.24,0.14,0.31,0.45,0.17,0.69L35.2,151.4C35.11,151.55,34.94,151.64,34.78,151.64z"/>
				</g>
				<g>
					<path class="st7" d="M58,146.87c-0.05,0-0.09-0.01-0.14-0.02c-0.26-0.08-0.42-0.35-0.34-0.62l6.32-21.65
						c0.08-0.26,0.35-0.42,0.62-0.34c0.26,0.08,0.42,0.35,0.34,0.62l-6.32,21.65C58.42,146.73,58.22,146.87,58,146.87z"/>
				</g>
				<g>
					<path class="st7" d="M119.69,131.37c-0.14,0-0.28-0.06-0.38-0.18l-14.04-16.56c-0.18-0.21-0.15-0.53,0.06-0.7
						c0.21-0.18,0.53-0.15,0.7,0.06l14.04,16.56c0.18,0.21,0.15,0.53-0.06,0.7C119.92,131.33,119.8,131.37,119.69,131.37z"/>
				</g>
				<g>
					<path class="st7" d="M140.76,130.23c-0.12,0-0.24-0.04-0.33-0.13l-26.05-23.43c-0.21-0.18-0.22-0.5-0.04-0.71
						c0.19-0.21,0.5-0.22,0.71-0.04l26.05,23.43c0.21,0.18,0.22,0.5,0.04,0.71C141.04,130.18,140.9,130.23,140.76,130.23z"/>
				</g>
				<g>
					<path class="st7" d="M152.91,124.88c-0.13,0-0.26-0.05-0.36-0.15l-12.71-13.24c-0.19-0.2-0.19-0.52,0.01-0.71
						c0.2-0.19,0.52-0.18,0.71,0.01l12.71,13.24c0.19,0.2,0.19,0.52-0.01,0.71C153.16,124.84,153.04,124.88,152.91,124.88z"/>
				</g>
			</g>
		</g>
		<g id="Stem_00000175312396879286048920000002010518104219986873_">
			<path class="st8" d="M102.07,118.19c7.22,22.16,7.21,43.9,11.37,64.22c3.32,16.23,8.47,31.96,13.61,47.64
				c3.95,12.06,7.9,24.13,12.41,35.96c10.64,27.91,20.25,40.93,11.97,69.23c-0.78,2.68-1.82,5.36-3.68,7.23
				c-2.5,2.5-6.06,3.11-9.42,3.63c-9.07,1.4-18.15,2.79-27.22,4.19c-2.01,0.31-4.21,0.58-5.98-0.6c-1.56-1.04-2.43-2.97-3.22-4.79
				C91.66,321.22,86,313.98,84.28,288c-0.89-13.53,0.53-27.02,0.74-40.55c0.62-40.3-6.93-83.61-16.94-122.69l9.29-5.6L102.07,118.19
				z"/>
			<path class="st7" d="M108.36,351.3c-1.29,0-2.53-0.24-3.66-0.99c-1.67-1.11-2.57-2.97-3.5-5.12c-1.93-4.47-3.73-8.42-5.32-11.9
				c-6.83-14.99-10.96-24.04-12.36-45.24c-0.59-8.92-0.17-17.95,0.23-26.69c0.21-4.56,0.43-9.28,0.5-13.92
				c0.55-35.34-5.15-76.55-16.92-122.49c-0.08-0.32,0.06-0.66,0.34-0.83l9.29-5.6c0.11-0.07,0.23-0.1,0.36-0.11l24.71-0.97
				c0.31-0.03,0.64,0.2,0.74,0.52c4.52,13.88,6.22,27.59,7.87,40.85c1.01,8.14,1.96,15.83,3.52,23.45
				c3.31,16.21,8.54,32.15,13.58,47.56c3.88,11.85,7.9,24.1,12.4,35.92c1.85,4.87,3.65,9.21,5.38,13.4
				c8.14,19.69,13.51,32.7,6.6,56.3c-0.75,2.57-1.8,5.48-3.87,7.55c-2.76,2.75-6.68,3.36-9.84,3.84l-27.22,4.19
				C110.25,351.18,109.29,351.3,108.36,351.3z M68.94,125.12c11.71,45.85,17.37,87.01,16.83,122.34c-0.07,4.66-0.29,9.39-0.5,13.97
				c-0.4,8.7-0.82,17.69-0.24,26.52c1.38,20.93,5.23,29.38,12.23,44.72c1.59,3.49,3.39,7.44,5.33,11.93
				c0.83,1.92,1.63,3.58,2.95,4.47c1.49,0.99,3.35,0.81,5.45,0.48l27.22-4.19c2.94-0.45,6.59-1.01,9.01-3.42
				c1.83-1.83,2.79-4.52,3.49-6.91c6.76-23.1,1.46-35.91-6.55-55.31c-1.74-4.21-3.54-8.56-5.4-13.44
				c-4.52-11.85-8.54-24.12-12.43-35.99c-5.06-15.46-10.3-31.44-13.63-47.73c-1.57-7.68-2.53-15.4-3.54-23.57
				c-1.61-13.01-3.28-26.46-7.63-40.03l-23.95,0.94L68.94,125.12z"/>
		</g>
		<g id="Cap_00000093176253777899187630000001109382306933054369_">
			<path class="st38" d="M17.64,60.73c-1.86,18.51-19.24,40.56-16.63,67.8c1.27,13.17,10.03,14.34,21.21,9.22
				c14.99-6.87,28.3-13.74,45.85-12.97c5.57,0.25,18.23,5.75,28.12-1.51c10.53-7.73,12.76-15.52,18.51-16.95
				c8.84-2.2,16.46,3.21,25.49,4.83c8.68,1.56,21.49,10.24,25.03-2.41c2.32-8.29-3.63-17.9-8.04-24.71
				c-10.66-16.45-26.12-29.08-38.24-44.41C100.32,16.06,100.79,7.7,72.25,2C32.56-5.93,21.28,24.65,17.64,60.73z"/>
			<path class="st7" d="M11.57,141.31c-2.12,0-3.96-0.45-5.53-1.36c-3.28-1.89-5.22-5.71-5.76-11.36
				c-1.61-16.79,4.3-31.66,9.52-44.77c3.29-8.26,6.39-16.06,7.11-23.17l0.75,0.08l-0.75-0.08c2.82-28.04,9.68-45.2,21.58-53.99
				c8.6-6.36,20.01-8.17,33.92-5.39c22.85,4.56,27.45,10.97,37.53,25c2.68,3.74,5.72,7.97,9.61,12.89
				c4.97,6.28,10.61,12.22,16.06,17.96c7.83,8.24,15.92,16.77,22.23,26.5c3.98,6.13,10.63,16.4,8.14,25.32
				c-0.88,3.15-2.35,5.22-4.48,6.35c-4.04,2.13-9.49,0.29-14.76-1.49c-2.38-0.8-4.62-1.56-6.64-1.92c-3.19-0.58-6.21-1.61-9.12-2.61
				c-5.4-1.86-10.5-3.61-16.06-2.23c-2.72,0.68-4.64,2.97-7.3,6.14c-2.57,3.07-5.77,6.88-10.95,10.68
				c-7.81,5.73-17.36,3.77-23.68,2.46c-1.96-0.4-3.66-0.75-4.92-0.81c-16.03-0.71-28.71,5.15-42.12,11.35
				c-1.12,0.52-2.24,1.04-3.38,1.56C18.33,140.35,14.66,141.31,11.57,141.31z M60.46,1.5c-8.3,0-15.37,2.13-21.09,6.36
				c-11.54,8.53-18.2,25.35-20.98,52.94c-0.74,7.32-3.88,15.22-7.2,23.57c-5.16,12.96-11,27.64-9.42,44.08
				c0.49,5.14,2.18,8.57,5.02,10.21c3.42,1.97,8.51,1.43,15.14-1.6c1.13-0.52,2.26-1.04,3.38-1.55
				c13.58-6.28,26.41-12.21,42.82-11.48c1.38,0.06,3.13,0.42,5.16,0.84c6.42,1.32,15.21,3.13,22.49-2.2
				c5.04-3.7,8.17-7.44,10.69-10.44c2.73-3.26,4.89-5.84,8.09-6.63c5.98-1.49,11.29,0.34,16.91,2.27c2.86,0.98,5.82,2,8.9,2.55
				c2.13,0.38,4.43,1.16,6.86,1.98c4.97,1.68,10.11,3.41,13.58,1.58c1.75-0.93,2.97-2.7,3.74-5.43c2.31-8.26-4.11-18.17-7.95-24.1
				c-6.24-9.62-14.28-18.09-22.06-26.29c-5.47-5.76-11.13-11.73-16.14-18.06c-3.91-4.95-6.96-9.2-9.66-12.95
				C98.57,13.02,94.37,7.18,72.1,2.73C67.99,1.91,64.11,1.5,60.46,1.5z"/>
		</g>
		<g id="Line_00000038402624296184663650000014666973258166958475_">
			<g>
				<path class="st7" d="M93.02,186.63c-0.25,0-0.47-0.19-0.5-0.45c-1.35-14.21-3.37-28.53-6.02-42.57
					c-0.05-0.27,0.13-0.53,0.4-0.58c0.27-0.05,0.53,0.13,0.58,0.4c2.66,14.07,4.69,28.42,6.04,42.66c0.03,0.27-0.18,0.52-0.45,0.54
					C93.05,186.63,93.03,186.63,93.02,186.63z"/>
			</g>
			<g>
				<path class="st7" d="M106.79,218.7c-0.24,0-0.45-0.17-0.49-0.41c-1.71-9.38-3.32-19.45-5.21-32.65
					c-0.04-0.27,0.15-0.53,0.42-0.57c0.26-0.03,0.53,0.15,0.57,0.42c1.89,13.19,3.49,23.25,5.21,32.62c0.05,0.27-0.13,0.53-0.4,0.58
					C106.85,218.69,106.82,218.7,106.79,218.7z"/>
			</g>
			<g>
				<path class="st7" d="M100.23,176.51c-0.25,0-0.46-0.18-0.49-0.43l-1.51-10.91c-0.04-0.27,0.15-0.53,0.43-0.56
					c0.26-0.04,0.53,0.15,0.56,0.43l1.51,10.91c0.04,0.27-0.15,0.53-0.43,0.56C100.28,176.51,100.26,176.51,100.23,176.51z"/>
			</g>
			<g>
				<path class="st7" d="M100.17,288.5c-0.24,0-0.45-0.18-0.49-0.42c-0.57-3.63-1.15-7.17-1.72-10.51
					c-0.05-0.27,0.14-0.53,0.41-0.58c0.27-0.04,0.53,0.14,0.58,0.41c0.57,3.35,1.15,6.89,1.72,10.53c0.04,0.27-0.14,0.53-0.42,0.57
					C100.22,288.5,100.19,288.5,100.17,288.5z"/>
			</g>
			<g>
				<path class="st7" d="M116.35,349.21c-0.15,0-0.3-0.07-0.4-0.2c-7.15-9.54-9.07-16.17-11.97-26.19
					c-0.44-1.53-0.91-3.15-1.43-4.88c-0.62-2.09-0.97-6.07-1.35-10.28c-0.35-3.95-0.71-8.03-1.29-10.01
					c-0.08-0.26,0.07-0.54,0.34-0.62c0.26-0.08,0.54,0.07,0.62,0.34c0.61,2.08,0.96,6.02,1.33,10.2c0.35,3.98,0.71,8.09,1.31,10.08
					c0.52,1.73,0.99,3.35,1.43,4.89c2.97,10.27,4.77,16.47,11.81,25.87c0.17,0.22,0.12,0.53-0.1,0.7
					C116.56,349.18,116.45,349.21,116.35,349.21z"/>
			</g>
			<g>
				<path class="st7" d="M126.07,347.41c-0.01,0-0.03,0-0.04,0c-0.28-0.02-0.48-0.26-0.46-0.54c0.49-6.02-1.88-11.92-4.19-17.63
					c-0.35-0.87-0.7-1.73-1.04-2.6c-2.64-6.73-4.68-13.75-6.07-20.86c-0.05-0.27,0.12-0.53,0.39-0.59c0.27-0.06,0.53,0.12,0.59,0.39
					c1.38,7.05,3.41,14,6.02,20.68c0.34,0.86,0.68,1.72,1.03,2.59c2.34,5.81,4.77,11.83,4.25,18.08
					C126.54,347.21,126.32,347.41,126.07,347.41z"/>
			</g>
			<g>
				<path class="st7" d="M103.17,240.23c-0.05,0-0.09-0.01-0.14-0.02c-0.27-0.08-0.42-0.36-0.34-0.62
					c1.19-4.09-0.42-8.75-1.98-13.25c-0.24-0.69-0.48-1.38-0.71-2.07c-1.78-5.35-2.94-10.77-3.46-16.13
					c-0.03-0.28,0.18-0.52,0.45-0.55c0.27-0.01,0.52,0.17,0.55,0.45c0.5,5.28,1.65,10.63,3.41,15.91c0.23,0.68,0.46,1.37,0.7,2.06
					c1.61,4.65,3.28,9.46,2,13.86C103.58,240.09,103.39,240.23,103.17,240.23z"/>
			</g>
			<g>
				<path class="st7" d="M128.99,312.16c-0.26,0-0.48-0.2-0.5-0.46c-1.09-14.29-3.53-22.46-6.34-31.92
					c-1.13-3.8-2.3-7.73-3.51-12.43c-0.07-0.27,0.09-0.54,0.36-0.61c0.27-0.07,0.54,0.09,0.61,0.36c1.21,4.68,2.38,8.6,3.5,12.39
					c2.83,9.52,5.28,17.74,6.38,32.13c0.02,0.28-0.19,0.52-0.46,0.54C129.02,312.16,129,312.16,128.99,312.16z"/>
			</g>
			<g>
				<path class="st7" d="M141.04,314.27c-0.26,0-0.48-0.2-0.5-0.46c-0.65-9.37-2.37-18.67-5.11-27.66
					c-0.08-0.26,0.07-0.54,0.33-0.62c0.26-0.08,0.54,0.07,0.62,0.33c2.76,9.06,4.49,18.44,5.15,27.88c0.02,0.28-0.19,0.51-0.46,0.53
					C141.06,314.27,141.05,314.27,141.04,314.27z"/>
			</g>
			<g>
				<path class="st7" d="M101.31,150.9c-0.24,0-0.45-0.17-0.49-0.42c-0.82-4.77-2.05-9.5-3.66-14.04c-0.09-0.26,0.04-0.55,0.3-0.64
					c0.26-0.09,0.54,0.04,0.64,0.3c1.63,4.6,2.88,9.38,3.71,14.21c0.05,0.27-0.14,0.53-0.41,0.58
					C101.36,150.9,101.33,150.9,101.31,150.9z"/>
			</g>
			<g>
				<path class="st7" d="M142.21,344.6C142.21,344.6,142.21,344.6,142.21,344.6c-0.28,0-0.5-0.23-0.5-0.51
					c0.04-3.05,0.59-5.78,1.13-8.42c0.82-4.04,1.6-7.87,0.35-12.28c-0.08-0.27,0.08-0.54,0.35-0.62c0.27-0.07,0.54,0.08,0.62,0.35
					c1.32,4.65,0.51,8.58-0.33,12.75c-0.53,2.59-1.07,5.27-1.11,8.23C142.71,344.38,142.48,344.6,142.21,344.6z"/>
			</g>
		</g>
		<g id="Scale_00000048477538275963551170000002914696445720901042_">
			<g>
				<path class="st8" d="M16.82,91.59c-4.1,6.4-5.9,31.75,5.49,26.98c9.77-4.09,11.67-14.96,8.17-21.35
					C28.98,94.5,21.21,84.73,16.82,91.59z"/>
				<path class="st7" d="M19.69,119.66c-1.81,0-3.03-0.9-3.81-1.83c-4.65-5.54-2.58-21.67,0.52-26.51c1.15-1.8,2.61-2.7,4.38-2.62
					c4.35,0.15,8.95,6.13,10.14,8.29c1.95,3.57,2.24,8.22,0.76,12.45c-1.52,4.35-4.78,7.76-9.17,9.6
					C21.44,119.48,20.5,119.66,19.69,119.66z M20.61,89.69c-1.33,0-2.44,0.71-3.37,2.16l0,0c-3.21,5.01-4.68,20.47-0.6,25.33
					c1.34,1.6,3.13,1.9,5.47,0.92c4.13-1.73,7.19-4.93,8.62-9.01c1.37-3.91,1.1-8.37-0.69-11.64c-1.22-2.23-5.64-7.64-9.29-7.77
					C20.7,89.69,20.65,89.69,20.61,89.69z M16.82,91.59L16.82,91.59L16.82,91.59z"/>
			</g>
			<g>
				<path class="st8" d="M37.37,87.01c6.78-3.77,16.93,3.73,9.08,10.25c-2.24,1.86-5.66,1.98-8.08,0.28
					c-2.6-1.82-4.43-6.64-2.28-9.43C36.45,87.64,36.88,87.28,37.37,87.01z"/>
				<path class="st7" d="M42.24,99.24c-1.46,0-2.92-0.43-4.16-1.3c-1.67-1.17-3.01-3.46-3.36-5.71c-0.26-1.74,0.07-3.28,0.97-4.44
					c0.38-0.5,0.87-0.91,1.43-1.23v0c4.23-2.35,9.55-0.54,11.66,2.55c1.87,2.73,1.11,5.92-2.02,8.52
					C45.49,98.7,43.87,99.24,42.24,99.24z M37.61,87.45c-0.45,0.25-0.82,0.57-1.13,0.96c-0.92,1.19-0.93,2.66-0.77,3.68
					c0.3,1.99,1.49,4.02,2.94,5.04c2.25,1.58,5.4,1.47,7.47-0.25c2.74-2.27,3.4-4.89,1.83-7.19C46.09,86.95,41.37,85.35,37.61,87.45
					L37.61,87.45z"/>
			</g>
			<g>
				<path class="st8" d="M48.24,109.03c6.63-8.79,17.2-7.63,8.19,3.26c-2.57,3.11-7.58,5.65-11.84,6.01
					c-1.98,0.17-4.55-0.12-6.18-1.52C31.67,110.97,46.74,111,48.24,109.03z"/>
				<path class="st7" d="M43.56,118.84c-1.54,0-3.84-0.27-5.47-1.68c-1.5-1.29-2.1-2.43-1.84-3.48c0.5-2.02,4.03-2.82,7.43-3.6
					c1.78-0.4,3.79-0.86,4.17-1.35c3.32-4.4,7.62-6.35,10.13-6c1.1,0.15,1.89,0.73,2.24,1.63c0.5,1.29,0.32,3.76-3.4,8.25
					c-2.66,3.21-7.78,5.82-12.18,6.19C44.35,118.82,43.98,118.84,43.56,118.84z M57.35,103.69c-2.24,0-5.87,1.88-8.71,5.64
					c0,0,0,0,0,0c-0.56,0.74-2.17,1.14-4.74,1.72c-2.67,0.61-6.33,1.44-6.68,2.87c-0.2,0.8,0.72,1.79,1.53,2.48
					c1.85,1.6,4.91,1.47,5.81,1.4c4.16-0.35,8.99-2.8,11.5-5.83c3.72-4.49,3.5-6.57,3.24-7.25c-0.22-0.56-0.71-0.9-1.45-1
					C57.68,103.7,57.52,103.69,57.35,103.69z M48.24,109.03L48.24,109.03L48.24,109.03z"/>
			</g>
			<g>
				<path class="st8" d="M97.92,33.21c2.17,3.81,4.9,8.04,9.06,8.65c0.73,0.11,1.5,0.1,2.15,0.48c1.35,0.78,1.47,2.94,0.56,4.21
					c-0.91,1.27-2.48,1.79-3.99,1.98c-6.75,0.86-13.15-3.38-18.74-7.61c-2.94-2.22-5.92-4.57-7.92-7.75
					c-2.07-3.3-7.74-18.92-1.16-19.28C90.2,13.2,92.14,23.04,97.92,33.21z"/>
				<path class="st7" d="M103.9,49.14c-6.32,0-12.18-4-17.25-7.82c-3.1-2.34-6.04-4.71-8.04-7.88c-1.79-2.84-5.93-13.83-3.67-18.2
					c0.6-1.15,1.58-1.78,2.91-1.85c10.34-0.57,13.65,6.13,17.53,13.89c0.92,1.85,1.88,3.76,2.98,5.69l0,0
					c2.14,3.76,4.75,7.82,8.69,8.4c0.16,0.02,0.33,0.04,0.49,0.06c0.61,0.07,1.24,0.14,1.83,0.48c0.66,0.38,1.13,1.06,1.31,1.92
					c0.22,1.04,0,2.19-0.59,3.02c-0.86,1.19-2.32,1.93-4.34,2.19C105.13,49.1,104.51,49.14,103.9,49.14z M79.06,14.35
					c-0.37,0-0.76,0.01-1.16,0.03c-0.97,0.05-1.65,0.48-2.07,1.31c-1.97,3.8,1.86,14.39,3.63,17.21c1.91,3.04,4.66,5.25,7.79,7.62
					c5.4,4.08,11.71,8.37,18.38,7.51c1.74-0.22,2.96-0.82,3.65-1.78c0.42-0.59,0.59-1.46,0.43-2.22c-0.12-0.57-0.42-1.02-0.84-1.26
					c-0.41-0.24-0.91-0.29-1.44-0.35c-0.18-0.02-0.35-0.04-0.53-0.06c-4.39-0.65-7.16-4.93-9.42-8.9c-1.11-1.95-2.07-3.87-3-5.73
					C90.77,20.29,87.8,14.35,79.06,14.35z"/>
			</g>
			<g>
				<path class="st8" d="M116.86,55.57c-2.8-1.89-6.54-0.95-9.26,0.57c-2.96,1.66-4.79,5.97-2.81,8.9c1.37,2.03,3.98,2.66,6.32,2.63
					c2.97-0.03,6.15-1.03,7.8-3.6C120.64,61.35,119.44,57.31,116.86,55.57z"/>
				<path class="st7" d="M110.98,68.16c-1.81,0-4.94-0.39-6.6-2.85c-0.87-1.29-1.13-2.93-0.72-4.62c0.49-2.08,1.91-3.99,3.71-5
					c1.36-0.76,6.07-3.04,9.78-0.55l0,0c2.66,1.79,4.16,6.09,2.19,9.17c-1.53,2.4-4.52,3.79-8.21,3.83
					C111.07,68.16,111.03,68.16,110.98,68.16z M113.22,55.01c-2.34,0-4.55,1.09-5.38,1.56c-1.56,0.87-2.79,2.54-3.22,4.35
					c-0.24,1-0.33,2.48,0.58,3.83c1.44,2.14,4.31,2.44,5.9,2.41c1.58-0.02,5.47-0.38,7.38-3.37c1.64-2.57,0.32-6.31-1.91-7.81l0,0
					C115.53,55.27,114.36,55.01,113.22,55.01z"/>
			</g>
			<g>
				<path class="st8" d="M89.67,52.12c0.08-0.02,0.17-0.03,0.25-0.03c1.99-0.1,4.12,4.07,3.68,5.82c-0.59,2.37-4.08,2.92-5.61,1.03
					C86.68,57.32,87.38,52.56,89.67,52.12z"/>
				<path class="st7" d="M90.52,60.58c-1.15,0-2.23-0.48-2.92-1.32c-1-1.24-0.92-3.62-0.34-5.24c0.49-1.35,1.31-2.2,2.31-2.39
					c0,0,0,0,0,0c0.1-0.02,0.21-0.03,0.32-0.04c0.84-0.04,1.69,0.45,2.49,1.42c1.09,1.32,2.05,3.62,1.7,5.02
					c-0.31,1.23-1.3,2.15-2.67,2.45C91.12,60.54,90.82,60.58,90.52,60.58z M89.77,52.61c-0.87,0.17-1.35,1.17-1.56,1.75
					c-0.55,1.51-0.47,3.47,0.18,4.26c0.63,0.77,1.74,1.12,2.83,0.88c0.98-0.22,1.7-0.86,1.91-1.71c0.23-0.93-0.48-2.91-1.5-4.14
					c-0.58-0.71-1.19-1.1-1.66-1.06C89.89,52.59,89.83,52.6,89.77,52.61z"/>
			</g>
		</g>
	</g>
</g>
<g id="Guide">
</g>
</svg>
