<?xml version="1.0" encoding="utf-8"?>
<!-- Generator: Adobe Illustrator 26.1.0, SVG Export Plug-In . SVG Version: 6.00 Build 0)  -->
<svg version="1.1" xmlns="http://www.w3.org/2000/svg" xmlns:xlink="http://www.w3.org/1999/xlink" x="0px" y="0px"
	 viewBox="0 0 208.06 426.84" style="enable-background:new 0 0 208.06 426.84;" xml:space="preserve">
<style type="text/css">
	.st0{fill:#FFFFFF;stroke:#000000;stroke-miterlimit:10;}
	.st1{fill:#BFA071;stroke:#554B4E;stroke-width:1.5;stroke-linecap:round;stroke-linejoin:round;stroke-miterlimit:10;}
	.st2{fill:#BFA071;stroke:#554B4E;stroke-linecap:round;stroke-linejoin:round;stroke-miterlimit:10;}
	.st3{fill:#F8F4E9;stroke:#554B4E;stroke-width:1.5;stroke-linecap:round;stroke-linejoin:round;stroke-miterlimit:10;}
	.st4{fill:#F2DED6;stroke:#554B4E;stroke-width:1.5;stroke-linecap:round;stroke-linejoin:round;stroke-miterlimit:10;}
	.st5{fill:none;stroke:#554B4E;stroke-linecap:round;stroke-linejoin:round;stroke-miterlimit:10;}
	.st6{fill:#BFA071;}
	.st7{fill:#554B4E;}
	.st8{fill:#F8F4E9;}
	.st9{fill:none;stroke:#554B4E;stroke-width:1.5;stroke-linecap:round;stroke-linejoin:round;stroke-miterlimit:10;}
	.st10{fill:#F8F4E9;stroke:#554B4E;stroke-linecap:round;stroke-linejoin:round;stroke-miterlimit:10;}
	.st11{fill:#F2DED6;stroke:#554B4E;stroke-linecap:round;stroke-linejoin:round;stroke-miterlimit:10;}
	.st12{clip-path:url(#SVGID_00000127019104880286289770000000299537293161549727_);}
	.st13{fill:none;stroke:#BFA071;stroke-width:1.5;stroke-linecap:round;stroke-linejoin:round;}
	.st14{fill:none;stroke:#BFA071;stroke-width:1.5;stroke-linecap:round;stroke-linejoin:round;stroke-dasharray:68.8403,19.6687;}
	.st15{fill:none;stroke:#BFA071;stroke-width:1.5;stroke-linecap:round;stroke-linejoin:round;stroke-dasharray:71.4455,20.413;}
	.st16{fill:none;stroke:#BFA071;stroke-width:1.5;stroke-linecap:round;stroke-linejoin:round;stroke-dasharray:69.5884,19.8824;}
	.st17{fill:none;stroke:#BFA071;stroke-width:1.5;stroke-linecap:round;stroke-linejoin:round;stroke-dasharray:61.3524,17.5292;}
	.st18{fill:none;stroke:#BFA071;stroke-width:1.5;stroke-linecap:round;stroke-linejoin:round;stroke-dasharray:63.9932,18.2838;}
	.st19{fill:none;stroke:#BFA071;stroke-width:1.5;stroke-linecap:round;stroke-linejoin:round;stroke-dasharray:72.7778,20.7937;}
	.st20{fill:none;stroke:#BFA071;stroke-width:1.5;stroke-linecap:round;stroke-linejoin:round;stroke-dasharray:77.193,22.0551;}
	.st21{fill:none;stroke:#BFA071;stroke-width:1.5;stroke-linecap:round;stroke-linejoin:round;stroke-dasharray:75.3802,21.5372;}
	.st22{fill:none;stroke:#BFA071;stroke-width:1.5;stroke-linecap:round;stroke-linejoin:round;stroke-dasharray:73.6885,21.0538;}
	.st23{fill:none;stroke:#BFA071;stroke-width:1.5;stroke-linecap:round;stroke-linejoin:round;stroke-dasharray:63.3162,18.0903;}
	.st24{fill:none;stroke:#BFA071;stroke-width:1.5;stroke-linecap:round;stroke-linejoin:round;stroke-dasharray:62.0513,17.7289;}
	.st25{fill:none;stroke:#BFA071;stroke-width:1.5;stroke-linecap:round;stroke-linejoin:round;stroke-dasharray:68.9157,19.6902;}
	.st26{fill:none;stroke:#554B4E;stroke-width:1.5;stroke-linecap:round;stroke-linejoin:round;}
	.st27{fill:none;stroke:#554B4E;stroke-width:1.5;stroke-linecap:round;stroke-linejoin:round;stroke-dasharray:15.0532,10.0355;}
	.st28{fill:none;stroke:#554B4E;stroke-width:1.5;stroke-linecap:round;stroke-linejoin:round;stroke-dasharray:14.9985,9.999;}
	.st29{fill:none;stroke:#554B4E;stroke-width:1.5;stroke-linecap:round;stroke-linejoin:round;stroke-dasharray:14.8977,9.9318;}
	.st30{fill:none;stroke:#554B4E;stroke-width:1.5;stroke-linecap:round;stroke-linejoin:round;stroke-dasharray:15.4213,10.2808;}
	.st31{fill:none;stroke:#554B4E;stroke-width:1.5;stroke-linecap:round;stroke-linejoin:round;stroke-dasharray:15.2271,10.1514;}
	.st32{fill:none;stroke:#554B4E;stroke-width:1.5;stroke-linecap:round;stroke-linejoin:round;stroke-dasharray:15.021,10.014;}
	.st33{fill:none;stroke:#554B4E;stroke-width:1.5;stroke-linecap:round;stroke-linejoin:round;stroke-dasharray:15.0727,10.0485;}
	.st34{fill:none;stroke:#554B4E;stroke-width:1.5;stroke-linecap:round;stroke-linejoin:round;stroke-dasharray:14.6942,9.7961;}
	.st35{fill:none;stroke:#554B4E;stroke-width:1.5;stroke-linecap:round;stroke-linejoin:round;stroke-dasharray:14.7469,9.8312;}
	.st36{fill:none;stroke:#554B4E;stroke-width:1.5;stroke-linecap:round;stroke-linejoin:round;stroke-dasharray:15.0819,10.0546;}
	.st37{fill:none;stroke:#554B4E;stroke-width:1.5;stroke-linecap:round;stroke-linejoin:round;stroke-dasharray:15.003,10.002;}
	.st38{fill:#F2DED6;}
	.st39{fill:#F2DED6;stroke:#554B4E;stroke-width:1.5;stroke-linecap:round;stroke-miterlimit:10;}
	.st40{fill:none;stroke:#554B4E;stroke-width:1.5;stroke-linecap:round;stroke-miterlimit:10;}
	.st41{fill:none;stroke:#554B4E;stroke-linecap:round;stroke-miterlimit:10;}
	.st42{fill:none;stroke:#BFA071;stroke-linecap:round;stroke-linejoin:round;}
	.st43{fill:none;stroke:#BFA071;stroke-linecap:round;stroke-linejoin:round;stroke-dasharray:14.9905,14.9905;}
	.st44{fill:none;stroke:#BFA071;stroke-linecap:round;stroke-linejoin:round;stroke-dasharray:51.384,34.256;}
	.st45{fill:none;stroke:#554B4E;stroke-miterlimit:10;}
	.st46{clip-path:url(#SVGID_00000176737298606631248310000008305673084487728780_);}
	.st47{fill:none;stroke:#554B4E;stroke-width:1.5;stroke-linecap:round;stroke-linejoin:round;stroke-dasharray:68.8403,19.6687;}
	.st48{fill:none;stroke:#554B4E;stroke-width:1.5;stroke-linecap:round;stroke-linejoin:round;stroke-dasharray:71.4455,20.413;}
	.st49{fill:none;stroke:#554B4E;stroke-width:1.5;stroke-linecap:round;stroke-linejoin:round;stroke-dasharray:69.5884,19.8824;}
	.st50{fill:none;stroke:#554B4E;stroke-width:1.5;stroke-linecap:round;stroke-linejoin:round;stroke-dasharray:61.3524,17.5292;}
	.st51{fill:none;stroke:#554B4E;stroke-width:1.5;stroke-linecap:round;stroke-linejoin:round;stroke-dasharray:63.9932,18.2838;}
	.st52{fill:none;stroke:#554B4E;stroke-width:1.5;stroke-linecap:round;stroke-linejoin:round;stroke-dasharray:72.7778,20.7937;}
	.st53{fill:none;stroke:#554B4E;stroke-width:1.5;stroke-linecap:round;stroke-linejoin:round;stroke-dasharray:77.193,22.0551;}
	.st54{fill:none;stroke:#554B4E;stroke-width:1.5;stroke-linecap:round;stroke-linejoin:round;stroke-dasharray:75.3802,21.5372;}
	.st55{fill:none;stroke:#554B4E;stroke-width:1.5;stroke-linecap:round;stroke-linejoin:round;stroke-dasharray:73.6885,21.0538;}
	.st56{fill:none;stroke:#554B4E;stroke-width:1.5;stroke-linecap:round;stroke-linejoin:round;stroke-dasharray:63.3162,18.0903;}
	.st57{fill:none;stroke:#554B4E;stroke-width:1.5;stroke-linecap:round;stroke-linejoin:round;stroke-dasharray:62.0513,17.7289;}
	.st58{fill:none;stroke:#554B4E;stroke-width:1.5;stroke-linecap:round;stroke-linejoin:round;stroke-dasharray:68.9157,19.6902;}
	.st59{fill:none;stroke:#554B4E;stroke-linecap:round;stroke-linejoin:round;}
	.st60{fill:none;stroke:#554B4E;stroke-linecap:round;stroke-linejoin:round;stroke-dasharray:14.9905,14.9905;}
	.st61{fill:none;stroke:#554B4E;stroke-linecap:round;stroke-linejoin:round;stroke-dasharray:51.384,34.256;}
	.st62{fill:#95608F;}
	.st63{fill:#ED859E;}
	.st64{fill:#FAC87D;}
	.st65{opacity:0.1;}
	.st66{fill:#B5846F;}
	.st67{fill:#B5846F;stroke:#B5846F;stroke-width:5;stroke-linecap:round;stroke-linejoin:round;stroke-miterlimit:10;}
	.st68{fill:#EAD9EB;}
	.st69{fill:#FFFFFF;}
	.st70{fill:url(#SVGID_00000129922108595426405940000015779013301748191104_);}
	.st71{opacity:0.8;fill:#FFFFFF;}
	.st72{fill:url(#SVGID_00000047020641746477003940000011011131313782206610_);}
	.st73{fill:url(#SVGID_00000104690029587303586400000009682299710803571873_);}
	.st74{opacity:0.8;}
	.st75{opacity:0.6;}
	.st76{opacity:0.2;}
	.st77{fill:none;}
	.st78{fill:url(#SVGID_00000083767018139048816230000004521426539199232159_);}
	.st79{fill:url(#SVGID_00000011001343116883502040000003331316541862850480_);}
	.st80{clip-path:url(#SVGID_00000172430394796761067500000017576918700533050773_);fill:#FFFFFF;}
	.st81{clip-path:url(#SVGID_00000003799410546428382970000012829004862944220301_);fill:#FFFFFF;}
	.st82{clip-path:url(#SVGID_00000013177210321913610010000010868793926369405105_);fill:#FFFFFF;}
	.st83{clip-path:url(#SVGID_00000100381282983654912250000005174597572066209940_);fill:#FFFFFF;}
	.st84{clip-path:url(#SVGID_00000024000431025984528470000016786078136126009255_);fill:#FFFFFF;}
</style>
<g id="Bg">
</g>
<g id="Graphic">
	<g id="Potion_00000047750421013307697070000000873419504590259608_">
		<g id="Glass_00000008117389957507768590000011170240154006007441_">
			<g id="Color_00000083788459857229462570000002974491055937421458_">
				<g>
					<path class="st6" d="M34.81,390.53c3.7,7.47,8.16,14.75,13.76,19.85c14.85,13.53,35.78,15.5,54.97,15.69
						c19.44,0.2,40.95-2,55.97-15.69c5.52-5.03,9.93-12.18,13.6-19.54C142.72,410,76.87,416.07,34.81,390.53z"/>
				</g>
				<g>
					<path class="st8" d="M205.88,226.62c-1.3-11.66-4.57-24.19-13.96-31.22c-7.03-5.26-16.2-6.46-24.42-9.55
						c-3.01-1.13-6.03-2.76-8.64-4.79c-2.05,2.88-4.86,5.48-8.29,7.57c-2.09,1.27-4.7,2.55-7.46,3.77
						c-3.27,1.45-6.75,2.84-9.89,4.04c0.61,1.34,1.08,2.73,1.23,4.01c0.14,1.17,0.03,2.24-0.5,3.09c-0.27,0.43-1.17,1.61-2.96,1.61
						c-0.45,0-0.96-0.07-1.54-0.25c-1.33-0.42-2.06-1.83-1.65-3.16c0.23-0.75,0.78-1.3,1.45-1.58c-0.01-0.02-0.02-0.05-0.03-0.07
						c-0.18-0.56-0.45-1.21-0.77-1.9c-0.11,0.01-0.22,0.03-0.33,0.03c0,0,0,0,0,0c0,0,0,0,0,0c-0.17,0-0.34-0.02-0.5-0.06
						c-0.02,0-0.04,0-0.06-0.01c-1.06-0.24-2.18-0.55-3.34-0.91c-3.27-1.01-6.91-2.43-10.71-3.91c-3.79-1.48-7.71-3.01-11.3-4.13
						c-2.95-0.92-5.33-1.46-7.28-1.65c-4.75-0.47-9.65-0.62-14.39-0.77c-6.5-0.21-13.22-0.42-19.83-1.42
						c-3.04-0.46-6.26-1.12-9.21-2.79c-0.81-0.46-1.56-0.99-2.24-1.56c-2.62,2.05-5.67,3.7-8.71,4.84
						c-8.22,3.09-17.39,4.29-24.42,9.55c-9.39,7.03-12.66,19.56-13.96,31.22c-5.8,51.87,6.64,102.67,26.77,150.82
						c1.74,4.15,3.66,8.65,5.86,13.09c42.07,25.54,94.6,20.76,138.29,0.31c2.26-4.54,4.24-9.15,6.02-13.4
						C199.25,329.29,211.68,278.49,205.88,226.62z"/>
				</g>
			</g>
			<g>
				<g>
					<path class="st7" d="M105.95,426.84c-0.82,0-1.63,0-2.43-0.01c-19.97-0.2-40.52-2.27-55.46-15.89
						c-8.83-8.04-14.85-21.36-19.8-33.2C5.04,322.21-3.73,272.75,1.43,226.54c1.73-15.47,6.39-25.85,14.26-31.74
						c4.91-3.68,10.89-5.43,16.67-7.12c2.64-0.77,5.36-1.57,7.94-2.54c3.12-1.17,6.06-2.81,8.51-4.73c0.28-0.22,0.67-0.21,0.94,0.01
						c0.67,0.56,1.39,1.06,2.13,1.48c2.84,1.61,5.98,2.25,8.96,2.7c6.55,1,13.25,1.21,19.71,1.41c4.79,0.15,9.7,0.31,14.47,0.78
						c2,0.2,4.43,0.75,7.43,1.69c3.62,1.13,7.55,2.66,11.35,4.14c3.63,1.42,7.38,2.88,10.66,3.89c1.24,0.38,2.31,0.68,3.29,0.9
						c0.26,0.04,0.43,0.05,0.63,0.02c0.32-0.04,0.64,0.13,0.78,0.43c0.34,0.73,0.61,1.41,0.8,1.98c0.12,0.38-0.04,0.85-0.4,1
						c-0.49,0.2-0.86,0.6-1.02,1.11c-0.29,0.93,0.23,1.93,1.16,2.22c0.47,0.15,0.91,0.22,1.31,0.22c1.4,0,2.09-0.88,2.33-1.25
						c0.39-0.63,0.52-1.51,0.39-2.61c-0.14-1.1-0.53-2.38-1.17-3.79c-0.09-0.19-0.09-0.4-0.01-0.59c0.08-0.19,0.23-0.34,0.42-0.42
						c2.77-1.07,6.38-2.49,9.85-4.03c3.1-1.38,5.51-2.6,7.38-3.73c3.27-1.99,6.06-4.53,8.07-7.36c0.12-0.17,0.3-0.28,0.5-0.31
						c0.2-0.03,0.41,0.03,0.57,0.15c2.43,1.9,5.35,3.52,8.44,4.68c2.58,0.97,5.3,1.77,7.94,2.54c5.78,1.69,11.75,3.44,16.67,7.12
						c7.86,5.89,12.53,16.27,14.26,31.74c5.17,46.21-3.61,95.67-26.82,151.2c-4.95,11.85-10.98,25.16-19.8,33.2
						C144.87,424.73,123.5,426.84,105.95,426.84z M49.25,181.96c-2.47,1.86-5.37,3.44-8.43,4.59c-2.63,0.99-5.38,1.79-8.05,2.57
						c-5.65,1.65-11.49,3.36-16.19,6.88c-7.51,5.63-11.98,15.67-13.66,30.7c-5.14,45.95,3.6,95.17,26.72,150.45
						c4.89,11.7,10.83,24.84,19.43,32.67c14.58,13.28,34.79,15.3,54.47,15.5c17.69,0.18,40-1.42,55.46-15.5
						c8.6-7.83,14.54-20.97,19.43-32.67c23.11-55.28,31.85-104.5,26.72-150.45c-1.68-15.04-6.15-25.08-13.67-30.7
						c-4.7-3.52-10.54-5.23-16.19-6.88c-2.66-0.78-5.42-1.58-8.04-2.57c-2.97-1.12-5.8-2.64-8.22-4.43
						c-2.08,2.74-4.86,5.2-8.05,7.15c-1.92,1.17-4.39,2.42-7.54,3.82c-3.2,1.42-6.52,2.74-9.19,3.78c0.52,1.27,0.85,2.45,0.98,3.5
						c0.18,1.44-0.02,2.65-0.6,3.58c-0.28,0.46-1.39,1.96-3.6,1.96c-0.56,0-1.15-0.1-1.76-0.29c-1.72-0.54-2.68-2.38-2.14-4.1
						c0.22-0.7,0.66-1.29,1.25-1.7c-0.1-0.27-0.22-0.56-0.35-0.85c-0.17-0.01-0.34-0.03-0.51-0.07c-1.09-0.24-2.21-0.55-3.48-0.94
						c-3.33-1.03-7.11-2.51-10.76-3.93c-3.78-1.47-7.68-2.99-11.25-4.11c-2.9-0.91-5.23-1.44-7.13-1.62
						c-4.72-0.46-9.61-0.62-14.33-0.77c-6.55-0.21-13.29-0.42-19.93-1.43c-3.11-0.47-6.41-1.15-9.47-2.88
						C50.49,182.85,49.86,182.43,49.25,181.96z"/>
				</g>
				<g>
					<path class="st8" d="M149.53,167.26c-12,3.87-28.36,6.25-46.41,6.25c-18.05,0-34.41-2.38-46.41-6.25H56.7
						c0.17,3.85-1.33,7.3-3.76,10.22c0.33,0.25,0.68,0.48,1.05,0.69c2.24,1.27,4.92,1.8,7.49,2.19c6.31,0.96,12.88,1.17,19.23,1.37
						c4.82,0.15,9.81,0.31,14.73,0.79c2.3,0.23,5.01,0.83,8.29,1.86c3.75,1.17,7.75,2.73,11.63,4.24c3.5,1.36,6.85,2.67,9.82,3.61
						c0-0.67,0.25-1.33,0.77-1.83c1-0.96,2.6-0.93,3.56,0.07c0.26,0.27,0.69,0.82,1.19,1.53c5.72-2.2,12.85-5.02,17.26-7.7
						c3.09-1.88,5.56-4.23,7.22-6.78c-2.46-2.94-3.99-6.41-3.82-10.28H149.53z"/>
					<path class="st7" d="M125.17,193c-0.08,0-0.15-0.01-0.23-0.04c-3.07-0.98-6.68-2.39-9.86-3.63c-3.86-1.5-7.85-3.06-11.58-4.22
						c-3.23-1.01-5.9-1.61-8.14-1.83c-4.9-0.48-9.87-0.64-14.68-0.79c-6.37-0.2-12.96-0.41-19.32-1.38c-2.64-0.4-5.4-0.96-7.75-2.28
						c-0.36-0.2-0.72-0.44-1.13-0.75c-0.17-0.12-0.27-0.31-0.3-0.51c-0.02-0.2,0.04-0.41,0.17-0.57c2.53-3.04,3.74-6.31,3.59-9.71
						c-0.01-0.2,0.07-0.4,0.21-0.55c0.2-0.2,0.52-0.28,0.78-0.2c12.44,4.01,28.84,6.21,46.18,6.21s33.74-2.21,46.18-6.21
						c0.07-0.02,0.15-0.04,0.23-0.04h1.83c0.21,0,0.4,0.08,0.54,0.23s0.22,0.35,0.21,0.55c-0.15,3.42,1.08,6.7,3.64,9.77
						c0.21,0.25,0.23,0.62,0.05,0.89c-1.75,2.68-4.33,5.1-7.46,7c-4.22,2.57-10.85,5.25-17.38,7.76c-0.32,0.12-0.69,0.01-0.88-0.27
						c-0.53-0.76-0.92-1.24-1.12-1.44c-0.33-0.34-0.77-0.53-1.24-0.54c-0.52-0.01-0.92,0.17-1.26,0.49
						c-0.35,0.34-0.54,0.79-0.54,1.29c0,0.24-0.11,0.47-0.31,0.61C125.48,192.95,125.33,193,125.17,193z M54.02,177.32
						c0.11,0.07,0.22,0.14,0.33,0.2c2.14,1.21,4.74,1.73,7.24,2.11c6.27,0.96,12.82,1.16,19.14,1.36c4.83,0.15,9.82,0.31,14.78,0.8
						c2.35,0.23,5.11,0.85,8.44,1.89c3.78,1.18,7.79,2.75,11.68,4.26c2.88,1.12,6.1,2.38,8.94,3.33c0.16-0.52,0.45-1,0.86-1.39
						c0.63-0.61,1.47-0.95,2.33-0.91c0.87,0.02,1.69,0.37,2.29,1c0.24,0.24,0.56,0.65,0.92,1.15c6.29-2.43,12.59-5,16.6-7.43
						c2.76-1.68,5.06-3.78,6.68-6.09c-2.39-3-3.61-6.22-3.65-9.57h-0.95c-12.57,4.03-29.08,6.25-46.53,6.25
						c-17.04,0-33.21-2.12-45.66-5.98C57.36,171.45,56.21,174.48,54.02,177.32z"/>
				</g>
			</g>
			<g>
				<g>
					<path class="st8" d="M77.06,115.71c-24.09,3.33-40.56,11.38-40.56,20.58c0,12.2,29.83,22.09,66.62,22.09
						c36.79,0,66.62-9.89,66.62-22.09c0,0,0,0,0,0c0-8.96-16.1-16.68-39.24-20.15"/>
					<path class="st7" d="M103.12,158.87c-37.01,0-67.12-10.13-67.12-22.59c0-9.36,16.09-17.63,40.99-21.07
						c0.26-0.03,0.53,0.15,0.56,0.43c0.04,0.27-0.15,0.53-0.43,0.56c-24,3.31-40.13,11.38-40.13,20.08
						c0,11.91,29.66,21.59,66.12,21.59c36.46,0,66.12-9.69,66.12-21.59c0-8.41-15.24-16.12-38.82-19.65
						c-0.27-0.04-0.46-0.29-0.42-0.57c0.04-0.27,0.29-0.46,0.57-0.42c24.1,3.61,39.67,11.71,39.67,20.64
						C170.24,148.74,140.13,158.87,103.12,158.87z"/>
				</g>
				<g>
					<path class="st6" d="M126.4,134.89c0.41-6.43,0.88-13.12,4.09-18.71c3.7-6.47,10.44-10.46,16.12-15.28
						c18.52-15.73,26.11-43.64,16.76-66.06c-4.72-11.32-13.78-20.58-24.59-26.24C118.34-2.11,87.66-1.92,67.53,9.55
						C57.5,15.27,49.16,24.13,44.7,34.83c-9.36,22.43-1.76,50.33,16.76,66.06c5.68,4.82,12.41,8.82,16.12,15.28
						c3.2,5.59,3.68,12.28,4.09,18.71l0.05,0.01C96.46,137.84,111.65,137.84,126.4,134.89L126.4,134.89z"/>
					<path class="st7" d="M104.03,137.87c-7.51,0-15.01-0.74-22.47-2.23c-0.33-0.07-0.63-0.36-0.66-0.7
						c-0.38-6.01-0.81-12.83-3.99-18.39c-2.69-4.69-7.14-8.14-11.44-11.48c-1.5-1.16-3.05-2.36-4.51-3.6
						C41.76,85.15,34.63,57.01,44,34.54C48.4,24.01,56.62,14.91,67.16,8.9C87.31-2.59,118.25-3,139.13,7.93
						c11.41,5.98,20.26,15.43,24.93,26.61c9.37,22.47,2.24,50.61-16.96,66.93c-1.46,1.24-3.01,2.44-4.51,3.6
						c-4.31,3.34-8.76,6.79-11.44,11.48c-3.18,5.55-3.61,12.37-3.99,18.39c-0.02,0.34-0.27,0.62-0.6,0.69
						C119.08,137.12,111.55,137.87,104.03,137.87z M82.37,134.27c14.41,2.8,28.96,2.8,43.32,0c0.38-6.03,0.9-12.79,4.15-18.46
						c2.83-4.95,7.4-8.49,11.83-11.92c1.49-1.15,3.02-2.34,4.46-3.56c18.72-15.9,25.68-43.33,16.55-65.21
						c-4.53-10.86-13.14-20.05-24.24-25.86C117.97-1.46,87.65-1.05,67.9,10.2C57.65,16.05,49.65,24.9,45.39,35.12
						c-9.13,21.88-2.17,49.3,16.55,65.21c1.44,1.22,2.97,2.41,4.46,3.56c4.42,3.43,8.99,6.97,11.83,11.92
						C81.47,121.48,81.99,128.23,82.37,134.27z M126.4,134.89L126.4,134.89L126.4,134.89z"/>
				</g>
				<g>
					<path class="st38" d="M103.12,158.37c-36.79,0-66.62-9.89-66.62-22.09v15.14c0,4.9,4.82,9.42,12.96,13.09
						c1.33,0.6,2.74,1.17,4.23,1.72c0.97,0.36,1.98,0.7,3.02,1.03c12,3.87,28.36,6.25,46.41,6.25c18.05,0,34.41-2.38,46.41-6.25
						c2.08-0.67,4.03-1.39,5.83-2.14c1.63-0.68,3.15-1.4,4.53-2.14c6.24-3.36,9.85-7.32,9.85-11.56v-15.14
						C169.74,148.48,139.91,158.37,103.12,158.37z"/>
					<path class="st7" d="M103.12,174.01c-17.47,0-34.01-2.23-46.56-6.27c-1.04-0.34-2.06-0.68-3.04-1.04
						c-1.47-0.54-2.9-1.12-4.27-1.74c-8.67-3.9-13.25-8.58-13.25-13.54v-15.14c0-0.28,0.22-0.5,0.5-0.5s0.5,0.22,0.5,0.5
						c0,11.91,29.66,21.59,66.12,21.59c36.46,0,66.12-9.69,66.12-21.59c0-0.28,0.22-0.5,0.5-0.5l0,0c0.28,0,0.5,0.22,0.5,0.5v15.14
						c0,4.29-3.5,8.44-10.11,12c-1.36,0.73-2.9,1.46-4.57,2.16c-1.82,0.76-3.8,1.49-5.87,2.16
						C137.13,171.79,120.59,174.01,103.12,174.01z M37,140.18v11.24c0,4.54,4.38,8.9,12.66,12.63c1.34,0.6,2.75,1.18,4.2,1.71
						c0.96,0.35,1.97,0.69,3,1.03c12.46,4.01,28.89,6.22,46.26,6.22s33.79-2.21,46.26-6.22c2.05-0.66,4-1.38,5.79-2.13
						c1.65-0.69,3.16-1.4,4.49-2.12c6.27-3.38,9.58-7.22,9.58-11.12v-11.24c-5.5,10.61-33.06,18.69-66.12,18.69
						S42.5,150.79,37,140.18z"/>
				</g>
			</g>
		</g>
		<g id="Line_00000164490938996484768530000013701272658168353932_">
			<g>
				<path class="st7" d="M103.66,8.21c-6.74,0-13.48-0.45-19.88-1.34c-0.27-0.04-0.46-0.29-0.43-0.56c0.04-0.27,0.29-0.45,0.56-0.43
					c12.05,1.68,25.35,1.77,37.46,0.26c0.26-0.04,0.52,0.16,0.56,0.43s-0.16,0.52-0.43,0.56C115.74,7.85,109.7,8.21,103.66,8.21z"/>
			</g>
			<g>
				<path class="st7" d="M72.25,97.37c-0.12,0-0.23-0.04-0.33-0.12c-1.71-1.48-3.37-3.09-4.94-4.79c-0.19-0.2-0.17-0.52,0.03-0.71
					c0.2-0.18,0.52-0.17,0.71,0.03c1.54,1.67,3.17,3.26,4.85,4.72c0.21,0.18,0.23,0.5,0.05,0.71
					C72.53,97.31,72.39,97.37,72.25,97.37z"/>
			</g>
			<g>
				<path class="st7" d="M62.44,86.58c-0.15,0-0.31-0.07-0.41-0.21c-12.57-17.41-15.49-37.34-7.82-53.31
					c0.12-0.25,0.42-0.35,0.67-0.23c0.25,0.12,0.35,0.42,0.23,0.67c-7.51,15.63-4.62,35.18,7.73,52.29c0.16,0.22,0.11,0.54-0.11,0.7
					C62.64,86.55,62.54,86.58,62.44,86.58z"/>
			</g>
			<g>
				<path class="st7" d="M56.98,29.35c-0.09,0-0.17-0.02-0.25-0.07c-0.24-0.14-0.32-0.45-0.18-0.68c2.16-3.65,4.78-6.97,7.79-9.86
					c0.2-0.19,0.52-0.18,0.71,0.02c0.19,0.2,0.18,0.52-0.02,0.71c-2.94,2.82-5.51,6.07-7.62,9.64
					C57.32,29.26,57.15,29.35,56.98,29.35z"/>
			</g>
			<g>
				<path class="st7" d="M67.94,16.78c-0.15,0-0.29-0.07-0.39-0.19c-0.17-0.22-0.13-0.53,0.09-0.7c1.4-1.1,2.88-2.11,4.4-3.01
					c0.24-0.14,0.54-0.06,0.69,0.17c0.14,0.24,0.06,0.54-0.17,0.69c-1.48,0.88-2.93,1.87-4.3,2.94
					C68.16,16.74,68.05,16.78,67.94,16.78z"/>
			</g>
			<g>
				<path class="st7" d="M74.59,88.51c-0.16,0-0.32-0.08-0.42-0.23c-2.26-3.46-4.12-7.23-5.55-11.22c-0.09-0.26,0.04-0.55,0.3-0.64
					c0.26-0.09,0.55,0.04,0.64,0.3c1.4,3.92,3.23,7.62,5.45,11.01c0.15,0.23,0.09,0.54-0.15,0.69
					C74.78,88.48,74.68,88.51,74.59,88.51z"/>
			</g>
			<g>
				<path class="st7" d="M67.54,72.3c-0.22,0-0.43-0.15-0.48-0.38c-4.31-16.99-0.88-35.15,9.17-48.6c0.17-0.22,0.48-0.27,0.7-0.1
					c0.22,0.17,0.27,0.48,0.1,0.7c-9.87,13.21-13.24,31.06-9.01,47.76c0.07,0.27-0.09,0.54-0.36,0.61
					C67.62,72.3,67.58,72.3,67.54,72.3z"/>
			</g>
			<g>
				<path class="st7" d="M91.48,79.41c-0.25,0-0.46-0.18-0.49-0.43c-0.69-4.9-1.2-9.97-1.53-15.05c-0.02-0.28,0.19-0.51,0.47-0.53
					c0.26-0.02,0.51,0.19,0.53,0.47c0.33,5.06,0.84,10.1,1.52,14.98c0.04,0.27-0.15,0.53-0.43,0.56
					C91.53,79.41,91.51,79.41,91.48,79.41z"/>
			</g>
			<g>
				<path class="st7" d="M89.71,59.76c-0.27,0-0.49-0.21-0.5-0.48c-0.17-4-0.23-8.11-0.19-12.22c0-0.27,0.23-0.49,0.5-0.49
					c0,0,0,0,0.01,0c0.28,0,0.5,0.23,0.49,0.51c-0.04,4.09,0.02,8.18,0.19,12.16c0.01,0.28-0.2,0.51-0.48,0.52
					C89.73,59.76,89.72,59.76,89.71,59.76z"/>
			</g>
			<g>
				<path class="st7" d="M90.28,30.76c-0.01,0-0.03,0-0.04,0c-0.28-0.02-0.48-0.26-0.46-0.54c0.29-3.77,0.68-7.67,1.14-11.59
					c0.03-0.27,0.29-0.48,0.55-0.44c0.27,0.03,0.47,0.28,0.44,0.55c-0.46,3.91-0.85,7.8-1.14,11.55
					C90.76,30.56,90.54,30.76,90.28,30.76z"/>
			</g>
			<g>
				<path class="st7" d="M107.79,95.11c-0.04,0-0.07,0-0.11-0.01c-0.27-0.06-0.44-0.33-0.38-0.6c1.62-7.15,2.86-14.51,3.68-21.85
					c0.03-0.27,0.27-0.48,0.55-0.44c0.27,0.03,0.47,0.28,0.44,0.55c-0.82,7.38-2.07,14.77-3.7,21.96
					C108.23,94.96,108.02,95.11,107.79,95.11z"/>
			</g>
			<g>
				<path class="st7" d="M111.93,68.67c-0.01,0-0.03,0-0.04,0c-0.28-0.02-0.48-0.27-0.45-0.54c0.45-5.06,0.7-10.22,0.75-15.33
					c0-0.27,0.23-0.5,0.5-0.5c0,0,0,0,0,0c0.28,0,0.5,0.23,0.5,0.5c-0.05,5.13-0.31,10.31-0.76,15.4
					C112.41,68.48,112.19,68.67,111.93,68.67z"/>
			</g>
			<g>
				<path class="st7" d="M111.34,28.06c-0.25,0-0.47-0.19-0.5-0.44c-0.5-4.25-1.15-8.54-1.93-12.75c-0.05-0.27,0.13-0.53,0.4-0.58
					c0.27-0.05,0.53,0.13,0.58,0.4c0.78,4.24,1.43,8.55,1.94,12.82c0.03,0.27-0.16,0.52-0.44,0.55
					C111.38,28.06,111.36,28.06,111.34,28.06z"/>
			</g>
			<g>
				<path class="st7" d="M122.46,96.76c-0.11,0-0.22-0.04-0.32-0.11c-0.21-0.17-0.25-0.49-0.07-0.7
					c4.31-5.29,7.83-11.26,10.46-17.73c0.1-0.26,0.4-0.38,0.65-0.27c0.26,0.1,0.38,0.4,0.27,0.65c-2.67,6.56-6.24,12.61-10.61,17.98
					C122.75,96.7,122.61,96.76,122.46,96.76z"/>
			</g>
			<g>
				<path class="st7" d="M134.32,75.42c-0.05,0-0.11-0.01-0.16-0.03c-0.26-0.09-0.4-0.38-0.31-0.64c4.79-13.8,5.14-28.66,0.97-41.86
					c-0.08-0.26,0.06-0.54,0.33-0.63c0.26-0.08,0.54,0.06,0.63,0.33c4.23,13.4,3.88,28.49-0.98,42.49
					C134.72,75.29,134.52,75.42,134.32,75.42z"/>
			</g>
			<g>
				<path class="st7" d="M133.38,28.85c-0.18,0-0.36-0.1-0.45-0.28c-2.2-4.52-4.96-8.74-7.62-12.83c-0.15-0.23-0.08-0.54,0.15-0.69
					c0.23-0.15,0.54-0.09,0.69,0.15c2.68,4.11,5.45,8.37,7.68,12.94c0.12,0.25,0.02,0.55-0.23,0.67
					C133.53,28.83,133.46,28.85,133.38,28.85z"/>
			</g>
			<g>
				<path class="st7" d="M135.29,94.45c-0.12,0-0.24-0.04-0.33-0.12c-0.21-0.18-0.23-0.5-0.05-0.71c3.54-4.03,6.31-7.49,8.7-10.91
					c7.47-10.66,15.15-27.01,9.29-44.33c-0.09-0.26,0.05-0.54,0.31-0.63c0.26-0.09,0.55,0.05,0.63,0.31
					c6,17.72-1.81,34.37-9.42,45.22c-2.42,3.45-5.2,6.94-8.77,11C135.57,94.39,135.43,94.45,135.29,94.45z"/>
			</g>
			<g>
				<path class="st7" d="M150.32,31.71c-0.18,0-0.35-0.1-0.44-0.26c-3.32-6.19-8.17-11.96-14.39-17.14
					c-0.21-0.18-0.24-0.49-0.07-0.7c0.18-0.21,0.5-0.24,0.7-0.07c6.33,5.26,11.25,11.13,14.63,17.44c0.13,0.24,0.04,0.55-0.2,0.68
					C150.48,31.69,150.4,31.71,150.32,31.71z"/>
			</g>
			<g>
				<path class="st7" d="M70.22,143.97c-0.18,0-0.36-0.1-0.45-0.27c-0.13-0.25-0.03-0.55,0.22-0.67c3.37-1.72,6.1-4.56,7.69-7.98
					c0.12-0.25,0.42-0.36,0.66-0.24c0.25,0.12,0.36,0.41,0.24,0.66c-1.69,3.63-4.58,6.63-8.15,8.45
					C70.37,143.95,70.29,143.97,70.22,143.97z"/>
			</g>
			<g>
				<path class="st7" d="M137.8,143.97c-0.08,0-0.16-0.02-0.23-0.05c-3.56-1.82-6.46-4.82-8.15-8.45c-0.12-0.25-0.01-0.55,0.24-0.66
					c0.25-0.12,0.55-0.01,0.66,0.24c1.6,3.42,4.33,6.26,7.7,7.98c0.25,0.13,0.34,0.43,0.22,0.67
					C138.16,143.87,137.99,143.97,137.8,143.97z"/>
			</g>
			<g>
				<path class="st7" d="M72.99,134.44c-0.18,0-0.35-0.09-0.44-0.26c-2.08-3.74-5.14-6.84-8.85-8.96c-0.24-0.14-0.32-0.44-0.19-0.68
					c0.14-0.24,0.45-0.32,0.68-0.19c3.87,2.21,7.06,5.44,9.23,9.34c0.13,0.24,0.05,0.55-0.19,0.68
					C73.16,134.42,73.07,134.44,72.99,134.44z"/>
			</g>
			<g>
				<path class="st7" d="M64.68,144.55c-0.12,0-0.25-0.04-0.34-0.13c-4.64-4.34-10.67-7.12-16.98-7.81
					c-0.27-0.03-0.47-0.28-0.44-0.55c0.03-0.28,0.27-0.48,0.55-0.44c6.53,0.72,12.76,3.58,17.55,8.07c0.2,0.19,0.21,0.51,0.02,0.71
					C64.95,144.49,64.81,144.55,64.68,144.55z"/>
			</g>
			<g>
				<path class="st7" d="M135.29,134.44c-0.08,0-0.17-0.02-0.24-0.06c-0.24-0.13-0.33-0.44-0.19-0.68c2.17-3.9,5.36-7.13,9.23-9.34
					c0.24-0.13,0.54-0.06,0.68,0.19c0.14,0.24,0.05,0.54-0.19,0.68c-3.71,2.12-6.77,5.22-8.85,8.96
					C135.64,134.35,135.47,134.44,135.29,134.44z"/>
			</g>
			<g>
				<path class="st7" d="M143.6,144.55c-0.13,0-0.27-0.05-0.37-0.16c-0.19-0.2-0.18-0.52,0.02-0.71c4.79-4.49,11.03-7.35,17.55-8.07
					c0.27-0.03,0.52,0.17,0.55,0.44c0.03,0.27-0.17,0.52-0.44,0.55c-6.31,0.69-12.34,3.47-16.98,7.81
					C143.85,144.5,143.72,144.55,143.6,144.55z"/>
			</g>
			<g>
				<path class="st7" d="M101.11,149.11c-8.44,0-16.83-0.62-25.02-1.86c-0.27-0.04-0.46-0.3-0.42-0.57
					c0.04-0.27,0.31-0.47,0.57-0.42c10.51,1.59,21.35,2.16,32.2,1.69c0.31,0,0.51,0.2,0.52,0.48c0.01,0.28-0.2,0.51-0.48,0.52
					C106.01,149.06,103.56,149.11,101.11,149.11z"/>
			</g>
			<g>
				<path class="st7" d="M112.18,148.8c-0.26,0-0.48-0.21-0.5-0.47c-0.02-0.28,0.19-0.51,0.47-0.53c8.45-0.49,13.46-0.93,19.03-2.16
					c0.28-0.06,0.54,0.11,0.6,0.38c0.06,0.27-0.11,0.54-0.38,0.6c-5.64,1.24-10.68,1.69-19.19,2.18
					C112.2,148.8,112.19,148.8,112.18,148.8z"/>
			</g>
			<g>
				<path class="st7" d="M195.77,259.17C195.77,259.17,195.77,259.17,195.77,259.17c-0.28,0-0.5-0.22-0.5-0.5
					c0-3.29,0.16-6.76,0.32-10.11c0.54-11.64,1.09-23.67-4.2-33.91c-0.13-0.25-0.03-0.55,0.21-0.67c0.24-0.13,0.55-0.03,0.67,0.21
					c5.42,10.48,4.86,22.65,4.31,34.42c-0.16,3.49-0.31,6.79-0.32,10.06C196.27,258.94,196.05,259.17,195.77,259.17z"/>
			</g>
			<g>
				<path class="st7" d="M187.28,207.92c-0.15,0-0.29-0.07-0.39-0.19c-3.21-4.1-7.29-8.06-12.46-12.11
					c-0.22-0.17-0.25-0.48-0.08-0.7c0.17-0.22,0.48-0.25,0.7-0.08c5.24,4.1,9.37,8.12,12.63,12.28c0.17,0.22,0.13,0.53-0.08,0.7
					C187.5,207.88,187.39,207.92,187.28,207.92z"/>
			</g>
			<g>
				<path class="st7" d="M178.35,347.98c-0.07,0-0.13-0.01-0.2-0.04c-0.25-0.11-0.37-0.4-0.26-0.66c3.31-7.67,6.07-15.24,8.21-22.52
					c0.08-0.26,0.36-0.41,0.62-0.34c0.26,0.08,0.42,0.36,0.34,0.62c-2.15,7.32-4.93,14.93-8.25,22.63
					C178.73,347.87,178.55,347.98,178.35,347.98z"/>
			</g>
			<g>
				<path class="st7" d="M188.09,319.96c-0.04,0-0.08,0-0.13-0.02c-0.27-0.07-0.43-0.34-0.36-0.61c3.45-13.28,5.14-26.73,6.34-38.14
					c0.03-0.28,0.27-0.48,0.55-0.45c0.28,0.03,0.47,0.27,0.45,0.55c-1.2,11.45-2.9,24.95-6.36,38.29
					C188.52,319.81,188.32,319.96,188.09,319.96z"/>
			</g>
			<g>
				<path class="st7" d="M195,276.32c-0.02,0-0.03,0-0.05,0c-0.28-0.03-0.48-0.27-0.45-0.55c0.27-2.71,0.52-5.42,0.78-8.12
					c0.03-0.27,0.27-0.47,0.54-0.45c0.27,0.03,0.48,0.27,0.45,0.54c-0.25,2.71-0.51,5.42-0.78,8.13
					C195.47,276.13,195.25,276.32,195,276.32z"/>
			</g>
			<g>
				<path class="st7" d="M99.16,408.19c-8.42,0-17.59-0.56-26.66-2.7c-0.27-0.06-0.43-0.33-0.37-0.6c0.06-0.27,0.32-0.44,0.6-0.37
					c12.06,2.84,24.33,2.87,34.75,2.52c0.26-0.02,0.51,0.21,0.52,0.48c0.01,0.28-0.21,0.51-0.48,0.52
					C104.83,408.12,102.04,408.19,99.16,408.19z"/>
			</g>
			<g>
				<path class="st7" d="M94.76,414.48c-0.01,0-0.02,0-0.04,0c-5.14-0.37-9.78-0.95-14.19-1.78c-0.27-0.05-0.45-0.31-0.4-0.58
					c0.05-0.27,0.31-0.45,0.58-0.4c4.37,0.82,8.97,1.4,14.07,1.76c0.28,0.02,0.48,0.26,0.46,0.53
					C95.24,414.27,95.02,414.48,94.76,414.48z"/>
			</g>
			<g>
				<path class="st7" d="M61.15,402.74c-0.04,0-0.08,0-0.13-0.02c-3.62-0.95-7.01-2.25-10.06-3.86c-0.24-0.13-0.34-0.43-0.21-0.68
					c0.13-0.25,0.43-0.34,0.68-0.21c2.99,1.58,6.3,2.84,9.85,3.77c0.27,0.07,0.43,0.34,0.36,0.61
					C61.58,402.59,61.37,402.74,61.15,402.74z"/>
			</g>
			<g>
				<path class="st7" d="M120.72,407.49c-0.26,0-0.48-0.21-0.5-0.47c-0.02-0.28,0.19-0.51,0.47-0.53
					c11.29-0.67,24.6-3.77,35.61-8.29c0.26-0.1,0.55,0.02,0.65,0.27c0.1,0.26-0.02,0.55-0.27,0.65
					c-11.11,4.56-24.54,7.69-35.93,8.37C120.74,407.49,120.73,407.49,120.72,407.49z"/>
			</g>
			<g>
				<path class="st7" d="M131.15,412.63c-0.23,0-0.44-0.16-0.49-0.4c-0.06-0.27,0.12-0.54,0.39-0.59c5.51-1.15,9.91-2.49,13.84-4.23
					c0.25-0.12,0.55,0,0.66,0.25c0.11,0.25,0,0.55-0.25,0.66c-4,1.77-8.47,3.13-14.05,4.29
					C131.22,412.63,131.18,412.63,131.15,412.63z"/>
			</g>
			<g>
				<path class="st7" d="M15.35,267.72c-0.25,0-0.46-0.18-0.5-0.44c-1.27-9.87-2.81-24.66-1.45-39.03
					c0.74-7.8,3.86-21.68,16.51-26.95c0.25-0.1,0.55,0.01,0.65,0.27c0.11,0.25-0.01,0.55-0.27,0.65
					c-12.16,5.07-15.18,18.54-15.9,26.12c-1.35,14.28,0.18,28.99,1.45,38.81c0.04,0.27-0.16,0.52-0.43,0.56
					C15.39,267.72,15.37,267.72,15.35,267.72z"/>
			</g>
			<g>
				<path class="st7" d="M37.62,199.52c-0.2,0-0.39-0.12-0.47-0.32c-0.1-0.26,0.03-0.55,0.29-0.64c2.42-0.91,5.49-2.26,7.79-4.62
					c0.19-0.2,0.51-0.2,0.71-0.01c0.2,0.19,0.2,0.51,0.01,0.71c-2.44,2.51-5.64,3.92-8.16,4.86
					C37.74,199.51,37.68,199.52,37.62,199.52z"/>
			</g>
			<g>
				<path class="st7" d="M42.51,375.74c-0.19,0-0.38-0.11-0.46-0.3c-3.81-8.96-7.29-18.21-10.32-27.5
					c-0.09-0.26,0.06-0.54,0.32-0.63c0.26-0.08,0.54,0.06,0.63,0.32c3.03,9.27,6.49,18.49,10.29,27.42
					c0.11,0.25-0.01,0.55-0.26,0.66C42.65,375.72,42.58,375.74,42.51,375.74z"/>
			</g>
			<g>
				<path class="st7" d="M26.36,233.84c-0.28,0-0.5-0.22-0.5-0.5c-0.02-6.22-0.04-12.65,4.61-19.22c0.16-0.23,0.47-0.27,0.7-0.12
					c0.23,0.16,0.28,0.47,0.12,0.7c-4.47,6.31-4.45,12.58-4.43,18.63C26.86,233.62,26.63,233.84,26.36,233.84
					C26.36,233.84,26.36,233.84,26.36,233.84z"/>
			</g>
		</g>
		<g id="Liquid_00000082361211569964737180000015665744382070250943_">
			<g>
				<path class="st38" d="M183.03,271.11c-5.52,47.51-20.58,108.61-36.23,118.95c-12.27,7.48-27.49,7.71-41.85,7.18
					c-11.32-0.41-23.07-1.27-32.97-6.79c-14.01-7.8-21.66-23.35-27.29-38.37c-10.92-29.15-17.23-63.46-19-94.54L183.03,271.11z"/>
				<path class="st7" d="M113.19,398.17c-2.81,0-5.58-0.07-8.27-0.17c-11.34-0.41-23.26-1.28-33.31-6.88
					c-14.68-8.18-22.47-25.01-27.62-38.77c-10.38-27.72-17.14-61.37-19.04-94.76c-0.01-0.22,0.07-0.43,0.23-0.58
					c0.16-0.15,0.37-0.22,0.59-0.21l157.34,13.56c0.2,0.02,0.39,0.12,0.52,0.27c0.13,0.16,0.19,0.36,0.16,0.56
					c-2.89,24.89-8.12,51.69-14.34,73.53c-5.01,17.58-12.93,39.82-22.22,45.96C137.04,396.89,124.8,398.17,113.19,398.17z
					 M26.49,258.37c1.96,32.96,8.67,66.11,18.9,93.45c5.37,14.35,12.78,30.09,26.95,37.98c9.76,5.44,21.47,6.29,32.64,6.69
					c13.62,0.49,29.17,0.4,41.43-7.08c14.71-9.72,29.99-68.46,35.79-117.63L26.49,258.37z"/>
			</g>
			<g>
				<path class="st38" d="M176.14,261.1c-1.07-0.46-2.17-0.78-3.3-1.01c-1.21,1.28-2.45,2.64-3.11,4.58
					c-0.88,2.62,0.24,4.54-0.89,6.42c-0.24,0.41-0.59,0.81-1.09,1.23c-2.46,2.04-9.36,2.86-12.53,3.93
					c-3.89,1.32-10.65,5.24-14.7,5.01c-3.56-0.2-3.69-2.43-7.12-4.06c-2.79-1.32-6.26-0.82-9.12-2.13
					c-3.44-1.57-8.61-10.75-12.11-18.12c-17.22-2.84-34.35-7.01-51.38-10.81c-7.25-1.62-14.81-3.16-22.03-1.41
					s-15.58,9.61-12.39,16.35c3.42,7.23,15.45,16.31,23.15,18.36c7.7,2.06,15.78,1.96,23.74,2.24c33.8,1.17,75.78,22.89,100.72-2.04
					c2.49-2.49,6.88-2.77,8.38-5.97C184.61,268.94,180.94,263.15,176.14,261.1z"/>
				<path class="st7" d="M141.45,292.31c-11.48,0-23.79-2.52-35.91-5c-10.85-2.22-22.07-4.51-32.3-4.87
					c-1.17-0.04-2.33-0.07-3.5-0.11c-6.76-0.19-13.75-0.38-20.4-2.16c-7.6-2.03-20-11.09-23.64-18.77c-1.1-2.33-1.02-4.95,0.24-7.59
					c2.1-4.41,7.42-8.53,12.64-9.8c7.1-1.73,14.33-0.39,22.37,1.4c3.55,0.79,7.1,1.6,10.66,2.41c13.31,3.03,27.07,6.15,40.68,8.39
					c0.24,0.04,0.45,0.2,0.56,0.42c3.63,7.65,8.63,16.34,11.74,17.76c1.32,0.6,2.79,0.79,4.35,1c1.61,0.21,3.28,0.42,4.79,1.14
					c1.51,0.72,2.41,1.53,3.21,2.25c1.04,0.95,1.8,1.63,3.63,1.73c2.58,0.15,6.58-1.62,10.09-3.18c1.59-0.71,3.1-1.38,4.33-1.8
					c1.09-0.37,2.58-0.71,4.16-1.06c2.95-0.66,6.63-1.49,8.13-2.74c0.41-0.34,0.71-0.68,0.93-1.04c0.49-0.81,0.46-1.64,0.43-2.7
					c-0.03-1.04-0.06-2.21,0.39-3.58c0.72-2.15,2.14-3.65,3.27-4.85c0.18-0.19,0.44-0.27,0.69-0.22c1.26,0.25,2.39,0.6,3.45,1.05
					l0,0c3.01,1.29,5.59,3.95,6.73,6.95c0.88,2.32,0.84,4.62-0.11,6.64c-0.99,2.1-3,3.05-4.95,3.98c-1.35,0.64-2.63,1.25-3.58,2.2
					C165.35,289.35,153.89,292.31,141.45,292.31z M45.62,244.71c-2.27,0-4.49,0.22-6.68,0.76c-4.83,1.18-9.72,4.96-11.65,8.99
					c-1.07,2.25-1.15,4.37-0.24,6.31c3.41,7.21,15.52,16.05,22.67,17.96c6.49,1.73,13.39,1.92,20.06,2.11
					c1.17,0.03,2.34,0.06,3.51,0.1c10.35,0.36,21.64,2.67,32.55,4.9c24.85,5.08,50.55,10.34,67.62-6.72c1.14-1.14,2.59-1.83,4-2.5
					c1.79-0.85,3.47-1.65,4.23-3.26c0.98-2.08,0.58-4.12,0.06-5.47c-1-2.63-3.27-4.97-5.92-6.1l0,0c-0.85-0.36-1.75-0.65-2.75-0.87
					c-1.01,1.08-2.09,2.32-2.65,3.99c-0.37,1.11-0.34,2.1-0.32,3.05c0.03,1.15,0.07,2.33-0.64,3.52c-0.3,0.5-0.71,0.97-1.26,1.42
					c-1.78,1.48-5.49,2.31-8.76,3.05c-1.54,0.35-2.99,0.67-4.01,1.02c-1.17,0.4-2.65,1.05-4.21,1.75c-3.66,1.63-7.81,3.48-10.78,3.3
					c-2.36-0.13-3.43-1.1-4.55-2.12c-0.75-0.68-1.53-1.39-2.84-2.01c-1.29-0.61-2.77-0.8-4.33-1.01c-1.6-0.21-3.25-0.42-4.78-1.12
					c-4.16-1.9-9.87-13.04-12.3-18.13c-13.53-2.24-27.18-5.35-40.38-8.35c-3.55-0.81-7.11-1.62-10.65-2.41
					C55.31,245.7,50.37,244.71,45.62,244.71z"/>
			</g>
		</g>
		<g id="Tag_00000173124387449936867170000014501320227456017799_">
			<g id="Paper_00000163046770316165920080000017641882258816758921_">
				<g>
					<path class="st6" d="M175.68,252.09c-1.82-6.78-9.44-17.02-11.57-23.73c-3.2-10.05-0.52-16.77-4.72-26.49
						c-0.45-1.04-0.95-2.11-1.87-2.8c-2.1-1.55-6.62,0.05-9.35-1.26c-1.94-0.93-3.36-4.15-5.05-5.41c-3.27,1.45-6.75,2.84-9.89,4.04
						c0.61,1.34,1.08,2.73,1.23,4.01c0.81,0.7,1.47,1.75,1.83,3.25c1.85,7.56-12.55,8.58-10.52,0.98c0.58-2.16,1.92-3.76,3.47-4.6
						c-0.18-0.56-0.45-1.21-0.77-1.9c-0.11,0.01-0.22,0.03-0.33,0.03c0,0,0,0,0,0s0,0,0,0c-0.17,0-0.34-0.02-0.5-0.06
						c-0.02,0-0.04,0-0.06-0.01c-1.06-0.24-2.18-0.55-3.34-0.91c-4,0.95-9.09,2.04-11.24,3.96c-2.71,2.42-0.96,4.38-2.48,8.05
						c-1.11,2.67-3.54,4.8-5.87,6.49c-3.32,2.43,2.48,28.23,4,32.9c0.55,1.67,1.84,4.79,3.52,8.32c3.5,7.37,8.66,16.55,12.11,18.12
						c2.87,1.31,6.34,0.81,9.12,2.13c3.43,1.63,3.55,3.86,7.12,4.06c4.05,0.22,10.82-3.69,14.7-5.01c3.17-1.08,10.07-1.9,12.53-3.93
						c0.5-0.41,0.85-0.82,1.09-1.23c1.13-1.89,0.01-3.8,0.89-6.42c0.65-1.94,1.9-3.29,3.11-4.58
						C174.84,257.97,176.74,256.06,175.68,252.09z"/>
					<path class="st7" d="M140.86,282.03c-0.13,0-0.26,0-0.38-0.01c-2.36-0.13-3.43-1.1-4.55-2.12c-0.75-0.68-1.53-1.39-2.84-2.01
						c-1.29-0.61-2.77-0.8-4.33-1.01c-1.6-0.21-3.25-0.42-4.78-1.12c-4.26-1.95-10.14-13.58-12.47-18.48
						c-1.6-3.37-2.96-6.59-3.55-8.4c-0.63-1.93-7.89-30.69-3.73-33.74c1.88-1.37,4.51-3.49,5.62-6.17c0.59-1.42,0.64-2.54,0.7-3.62
						c0.08-1.59,0.16-3.09,1.97-4.71c2.14-1.91,6.68-2.98,10.69-3.93l0.87-0.21c0.13-0.03,0.27-0.03,0.4,0.01
						c1.24,0.38,2.31,0.68,3.29,0.9c0.26,0.04,0.43,0.05,0.63,0.02c0.32-0.04,0.64,0.13,0.78,0.43c0.34,0.73,0.61,1.41,0.8,1.98
						c0.11,0.34-0.04,0.72-0.35,0.89c-1.49,0.81-2.62,2.32-3.11,4.14c-0.42,1.55-0.09,2.72,0.98,3.48c1.62,1.15,4.6,1.04,6.5-0.26
						c1.03-0.7,2.13-1.99,1.59-4.22c-0.31-1.25-0.84-2.21-1.6-2.87c-0.14-0.12-0.23-0.29-0.25-0.47c-0.14-1.1-0.53-2.38-1.17-3.79
						c-0.09-0.19-0.09-0.4-0.01-0.59c0.08-0.19,0.23-0.34,0.42-0.42c2.77-1.07,6.38-2.49,9.85-4.03c0.25-0.11,0.54-0.08,0.75,0.08
						c0.83,0.62,1.56,1.61,2.28,2.57c0.85,1.14,1.72,2.32,2.65,2.76c1.16,0.55,2.8,0.51,4.38,0.47c1.95-0.05,3.8-0.09,5.09,0.86
						c1.05,0.78,1.6,1.91,2.12,3.1c2.32,5.38,2.59,9.96,2.85,14.4c0.22,3.76,0.45,7.64,1.89,12.17c0.99,3.11,3.28,7.16,5.49,11.08
						c2.51,4.44,5.11,9.04,6.09,12.68c1.16,4.3-0.9,6.48-2.89,8.59l-0.12,0.12c-1.09,1.15-2.32,2.46-2.94,4.3
						c-0.37,1.11-0.34,2.1-0.32,3.05c0.03,1.15,0.07,2.33-0.64,3.52c-0.3,0.5-0.71,0.97-1.26,1.42c-1.78,1.48-5.49,2.31-8.76,3.05
						c-1.54,0.35-2.99,0.67-4.01,1.02c-1.17,0.4-2.65,1.05-4.21,1.75C147.76,280.27,143.81,282.03,140.86,282.03z M124.21,198.02
						l-0.67,0.16c-3.65,0.86-8.18,1.93-10.04,3.58c-1.34,1.2-1.4,2.18-1.47,3.67c-0.06,1.1-0.13,2.46-0.81,4.11
						c-1.26,3.03-4.1,5.33-6.12,6.81c-2.58,1.89,2.2,25.7,4.28,32.06c0.58,1.76,1.91,4.91,3.48,8.23
						c3.63,7.66,8.63,16.34,11.74,17.76c1.32,0.6,2.79,0.79,4.35,1c1.61,0.21,3.28,0.42,4.79,1.14c1.51,0.72,2.41,1.53,3.21,2.25
						c1.04,0.95,1.8,1.63,3.63,1.73c2.58,0.15,6.58-1.62,10.09-3.18c1.59-0.71,3.1-1.38,4.33-1.8c1.09-0.37,2.58-0.71,4.16-1.06
						c2.95-0.66,6.63-1.49,8.13-2.74c0.41-0.34,0.71-0.68,0.93-1.04c0.49-0.81,0.46-1.64,0.43-2.7c-0.03-1.04-0.06-2.21,0.39-3.58
						c0.72-2.15,2.14-3.65,3.27-4.85l0.12-0.12c1.94-2.06,3.48-3.68,2.54-7.17l0,0c-0.93-3.46-3.48-7.97-5.95-12.33
						c-2.35-4.16-4.58-8.1-5.62-11.36c-1.5-4.7-1.73-8.68-1.96-12.53c-0.27-4.5-0.52-8.76-2.73-13.89c-0.43-1-0.88-1.93-1.63-2.49
						c-0.88-0.65-2.48-0.61-4.16-0.57c-1.76,0.04-3.59,0.09-5.07-0.62c-1.26-0.61-2.25-1.94-3.21-3.22
						c-0.57-0.76-1.1-1.49-1.64-1.99c-3.07,1.35-6.21,2.6-8.76,3.59c0.48,1.16,0.79,2.24,0.94,3.22c0.88,0.85,1.5,2,1.86,3.45
						c0.58,2.36-0.22,4.48-2.2,5.82c-2.41,1.64-6.1,1.75-8.22,0.24c-1.58-1.12-2.14-2.93-1.56-5.09c0.53-1.99,1.71-3.68,3.29-4.73
						c-0.1-0.25-0.21-0.52-0.33-0.8c-0.17-0.01-0.34-0.03-0.51-0.07C126.46,198.67,125.4,198.38,124.21,198.02z"/>
				</g>
				<g>
					<path class="st38" d="M161.75,239.84c-0.59,10.23-6.64,19.3-15.71,22.32c-8.06,2.02-16.13,0-22.18-5.04
						c-6.05-7.06-11.09-18.14-6.05-27.22c5.04-8.06,14.11-14.11,24.19-13.1c11.09,1.01,19.15,11.09,19.73,22.37
						C161.74,239.39,161.75,239.61,161.75,239.84z"/>
					<path class="st7" d="M139.8,263.43c-5.91,0-11.6-2.04-16.27-5.93c-6.38-7.43-11.3-18.6-6.17-27.84
						c5.66-9.06,15.33-14.31,24.68-13.36c10.89,0.99,19.56,10.81,20.18,22.84c0.01,0.24,0.01,0.47,0.01,0.7c0,0.01,0,0.02,0,0.03
						c-0.61,10.62-7.06,19.77-16.05,22.77C144.06,263.17,141.92,263.43,139.8,263.43z M139.9,217.19c-8.31,0-16.63,4.92-21.66,12.97
						c-4.87,8.77-0.1,19.51,6,26.63c6.03,5.01,13.95,6.81,21.68,4.88c8.56-2.86,14.74-11.64,15.33-21.85c0-0.21,0-0.42-0.01-0.64
						c-0.59-11.53-8.88-20.94-19.27-21.89C141.27,217.23,140.58,217.19,139.9,217.19z M161.75,239.84L161.75,239.84L161.75,239.84z"
						/>
				</g>
				<g>
					<path class="st8" d="M157.53,240.27c-0.79,13.53-14.86,23.27-27.86,16.77c-9.74-5.41-11.91-16.24-7.58-25.99
						c4.33-9.74,15.16-12.99,23.82-8.66c4.33,1.08,7.58,5.41,10.26,10.75C157.07,235.34,157.56,237.74,157.53,240.27z"/>
					<path class="st7" d="M138.2,259.6c-2.96,0-5.94-0.7-8.76-2.11c-9.43-5.24-12.57-15.94-7.81-26.64
						c2.08-4.67,5.75-8.15,10.36-9.8c4.55-1.63,9.69-1.32,14.09,0.87c3.92,1,7.27,4.5,10.54,11c0.97,2.36,1.43,4.82,1.41,7.36
						c0,0.01,0,0.02,0,0.02c-0.41,6.97-4.24,13.22-10.26,16.7C144.77,258.73,141.5,259.6,138.2,259.6z M137.98,221.02
						c-1.92,0-3.83,0.32-5.64,0.97c-4.35,1.56-7.82,4.85-9.78,9.27c-4.53,10.2-1.57,20.38,7.37,25.35
						c5.63,2.82,11.96,2.65,17.35-0.47c5.72-3.31,9.37-9.25,9.76-15.88c0.03-2.4-0.42-4.72-1.31-6.92
						c-3.13-6.21-6.28-9.54-9.92-10.45c-0.04-0.01-0.07-0.02-0.1-0.04C143.27,221.63,140.62,221.02,137.98,221.02z M157.53,240.27
						L157.53,240.27L157.53,240.27z"/>
				</g>
				<g>
					<path class="st38" d="M133.03,241.55c0.05-6.63-0.01-13.26-0.33-19.89c3.61,3.04,5.51,6.8,8.89,10.07
						c4.21,4.07,7.65,10.16,13.79,16.46c-0.4-0.64-3.92-0.26-4.68-0.36c-2.45-0.31-4.9-0.73-7.32-1.21
						c-7.53-1.49-14.88-3.77-22.39-5.35c3.2-1.47,5.9-2.64,8.6-4.21c3.66-2.13,7.29-4.63,11.19-6.27c3.51-1.48,7.23-2.81,10.11-5.38
						c-1.29,1.33-1.53,3.37-2.1,5.06c-1.27,3.8-2.49,7.09-4.59,10.51c-2.1,3.43-4.01,6.99-6.32,10.3c-1.03,1.47-2.16,2.85-3.26,4.27
						c-0.48,0.61-1.9,1.91-1.92,2.75C132.86,252.72,132.99,247.14,133.03,241.55z"/>
					<path class="st7" d="M132.73,258.8c0,0-0.01,0-0.01,0c-0.28-0.01-0.5-0.24-0.49-0.51l0,0c0,0,0,0,0,0
						c0.11-4.61,0.21-9.14,0.27-13.71c-0.36-0.09-0.71-0.18-1.07-0.27c-3.44-0.88-7-1.8-10.53-2.54c-0.21-0.04-0.37-0.22-0.39-0.43
						c-0.02-0.21,0.09-0.42,0.29-0.51l1.45-0.66c2.6-1.18,4.85-2.21,7.11-3.52c1.01-0.59,2.03-1.21,3.04-1.83
						c0.05-0.03,0.09-0.06,0.14-0.09c-0.03-4.71-0.14-8.95-0.33-13.04c-0.01-0.2,0.1-0.38,0.28-0.47c0.18-0.09,0.39-0.06,0.54,0.07
						c2.02,1.7,3.53,3.64,4.99,5.52c0.89,1.14,1.8,2.31,2.82,3.43c0.39-0.16,0.78-0.32,1.17-0.48c3.01-1.25,6.13-2.53,8.57-4.71
						c0.2-0.18,0.51-0.17,0.69,0.03c0.19,0.19,0.19,0.5,0,0.69c-0.88,0.9-1.24,2.23-1.58,3.51c-0.13,0.46-0.25,0.92-0.4,1.36
						c-0.72,2.16-1.47,4.3-2.44,6.46c0.34,0.44,0.68,0.89,1.03,1.34c2.17,2.84,4.62,6.06,7.76,9.29c0.08,0.06,0.14,0.13,0.19,0.21
						c0.13,0.22,0.08,0.5-0.12,0.66c-0.2,0.16-0.49,0.14-0.67-0.04c-0.03-0.04-0.07-0.07-0.1-0.11c-0.39-0.18-2.17-0.13-2.95-0.1
						c-0.59,0.02-1.06,0.03-1.33,0c-2.27-0.29-4.68-0.68-7.35-1.21c-0.63-0.12-1.26-0.26-1.9-0.39c-0.97,1.63-1.99,3.27-3.08,4.84
						c-0.78,1.12-1.63,2.2-2.46,3.25l-0.82,1.04c-0.12,0.16-0.31,0.36-0.51,0.59c-0.45,0.5-1.29,1.42-1.3,1.87v0l0,0
						C133.22,258.58,133,258.8,132.73,258.8z M133.5,244.83c-0.05,3.84-0.13,7.66-0.22,11.51c0.17-0.2,0.35-0.39,0.51-0.58
						c0.19-0.21,0.35-0.39,0.46-0.53l0.82-1.05c0.82-1.04,1.66-2.11,2.42-3.2c1.02-1.45,1.96-2.97,2.88-4.5
						C138.06,245.98,135.76,245.41,133.5,244.83z M141.94,245.82c0.52,0.11,1.04,0.22,1.55,0.32c2.65,0.53,5.03,0.92,7.28,1.2
						c0.19,0.02,0.66,0.01,1.17-0.01c0.76-0.02,1.4-0.03,1.92-0.01c-2.69-2.9-4.86-5.74-6.8-8.29c-0.24-0.31-0.48-0.62-0.71-0.93
						c-0.5,1.04-1.07,2.08-1.71,3.14c-0.69,1.13-1.36,2.28-2.04,3.42C142.39,245.05,142.17,245.43,141.94,245.82z M133.51,243.81
						c2.44,0.62,4.92,1.24,7.4,1.79c0.28-0.48,0.56-0.96,0.84-1.43c0.67-1.15,1.35-2.3,2.04-3.44c0.72-1.18,1.34-2.34,1.88-3.5
						c-1.5-1.94-2.91-3.66-4.43-5.13c-0.23-0.22-0.45-0.44-0.66-0.66c-2.42,1.06-4.77,2.46-7.05,3.85c0.01,2,0.01,4.08-0.01,6.27
						l0,0C133.52,242.31,133.52,243.06,133.51,243.81z M122.58,241.11c3.06,0.68,6.13,1.47,9.1,2.23c0.28,0.07,0.55,0.14,0.83,0.21
						c0.01-0.67,0.01-1.33,0.02-2c0.01-1.97,0.02-3.85,0.01-5.66c-0.9,0.55-1.79,1.09-2.69,1.61c-2.31,1.34-4.58,2.37-7.2,3.57
						L122.58,241.11z M133.03,241.55L133.03,241.55L133.03,241.55z M141.58,231.01c0.12,0.12,0.24,0.24,0.37,0.36
						c1.44,1.39,2.81,3.04,4.2,4.82c0.85-1.96,1.53-3.91,2.19-5.87c0.14-0.42,0.26-0.86,0.38-1.3c0.15-0.56,0.31-1.13,0.51-1.68
						c-2.13,1.4-4.51,2.39-6.83,3.35C142.12,230.79,141.85,230.9,141.58,231.01z M133.26,222.83c0.15,3.56,0.24,7.25,0.28,11.29
						c2.05-1.24,4.16-2.48,6.34-3.46c-0.96-1.07-1.81-2.17-2.64-3.24C135.97,225.8,134.76,224.25,133.26,222.83z"/>
				</g>
			</g>
			<g id="Rope_00000024003481198207128830000018440587921169916813_">
				<path class="st38" d="M159.89,162.98c-1.38,0.74-2.9,1.46-4.53,2.14c0.13,0.47,0.4,0.91,0.8,1.25c1,0.84,1.51,2.55,1.37,4.56
					c-0.15,2.24-0.98,4.49-2.36,6.61c-1.66,2.55-4.13,4.89-7.22,6.78c-4.41,2.68-11.54,5.5-17.26,7.7c-0.5-0.72-0.93-1.26-1.19-1.53
					c-0.96-1-2.56-1.04-3.56-0.07c-0.52,0.5-0.77,1.17-0.77,1.83c-2.96-0.95-6.32-2.25-9.82-3.61c-3.87-1.51-7.87-3.07-11.63-4.24
					c-3.28-1.03-6-1.64-8.29-1.86c-4.92-0.48-9.9-0.64-14.73-0.79c-6.35-0.2-12.92-0.41-19.23-1.37c-2.57-0.39-5.25-0.93-7.49-2.19
					c-0.37-0.21-0.72-0.45-1.05-0.69c-1.57-1.17-2.64-2.7-2.93-4.26c-0.33-1.83,0.51-3.05,1.46-4.28c0.96-1.25,2.72-2.53,2.72-2.53
					c-1.5-0.55-3.41-1.31-4.73-1.9c-3.2,1.71-5.11,5.74-4.4,9.62c0.47,2.6,1.97,5.01,4.21,6.88c0.68,0.57,1.43,1.1,2.24,1.56
					c2.95,1.67,6.17,2.32,9.21,2.79c6.61,1.01,13.33,1.22,19.83,1.42c4.74,0.15,9.64,0.31,14.39,0.77c1.95,0.19,4.33,0.73,7.28,1.65
					c3.59,1.12,7.51,2.65,11.3,4.13c3.8,1.48,7.44,2.9,10.71,3.91c1.16,0.36,2.28,0.67,3.34,0.91c0.02,0,0.04,0,0.06,0.01
					c0.16,0.03,0.33,0.06,0.5,0.06c0,0,0,0,0,0s0,0,0,0c0.11,0,0.22-0.01,0.33-0.03c0.32,0.69,0.59,1.35,0.77,1.9
					c0.01,0.02,0.02,0.05,0.03,0.07c-0.67,0.27-1.22,0.83-1.45,1.58c-0.42,1.33,0.32,2.74,1.65,3.16c0.57,0.18,1.08,0.25,1.54,0.25
					c1.8,0,2.69-1.18,2.96-1.61c0.53-0.85,0.64-1.93,0.5-3.09c-0.16-1.28-0.63-2.68-1.23-4.01c3.13-1.21,6.62-2.59,9.89-4.04
					c2.76-1.23,5.37-2.5,7.46-3.77c3.43-2.08,6.24-4.69,8.29-7.57c2.17-3.05,3.47-6.4,3.7-9.78
					C162.8,167.89,161.82,164.92,159.89,162.98z"/>
				<path class="st7" d="M131,205.91c-0.56,0-1.15-0.1-1.76-0.29c-1.72-0.54-2.68-2.38-2.14-4.1c0.22-0.7,0.66-1.29,1.25-1.7
					c-0.1-0.27-0.22-0.56-0.35-0.85c-0.17-0.01-0.34-0.03-0.51-0.07c-1.09-0.24-2.21-0.55-3.48-0.94
					c-3.33-1.03-7.11-2.51-10.76-3.93c-3.78-1.47-7.68-2.99-11.25-4.11c-2.9-0.91-5.23-1.44-7.13-1.62
					c-4.72-0.46-9.61-0.62-14.33-0.77c-6.55-0.21-13.29-0.42-19.93-1.43c-3.11-0.47-6.41-1.15-9.47-2.88
					c-0.82-0.46-1.61-1.01-2.35-1.63c-2.39-1.99-3.97-4.59-4.47-7.32c-0.76-4.15,1.26-8.53,4.79-10.41c0.2-0.11,0.45-0.12,0.66-0.02
					c1.2,0.54,3.04,1.28,4.68,1.88c0.26,0.09,0.45,0.33,0.48,0.6c0.04,0.27-0.08,0.55-0.3,0.71c-0.02,0.01-1.68,1.24-2.57,2.38
					c-0.94,1.22-1.59,2.2-1.32,3.69c0.24,1.34,1.21,2.73,2.63,3.79c0.36,0.27,0.67,0.47,0.97,0.64c2.14,1.21,4.74,1.73,7.24,2.11
					c6.27,0.96,12.82,1.16,19.14,1.36c4.83,0.15,9.82,0.31,14.78,0.8c2.35,0.23,5.11,0.85,8.44,1.89c3.78,1.18,7.79,2.75,11.68,4.26
					c2.88,1.12,6.1,2.38,8.94,3.33c0.16-0.52,0.45-1,0.86-1.39c0.63-0.61,1.47-0.95,2.33-0.91c0.87,0.02,1.69,0.37,2.29,1
					c0.24,0.24,0.56,0.65,0.92,1.15c6.29-2.43,12.59-5,16.6-7.43c2.94-1.79,5.36-4.05,6.98-6.54c1.34-2.06,2.1-4.16,2.24-6.25
					c0.12-1.75-0.31-3.26-1.11-3.94c-0.51-0.43-0.87-0.99-1.04-1.62c-0.1-0.36,0.08-0.75,0.43-0.89c1.64-0.69,3.14-1.4,4.46-2.11
					c0.29-0.16,0.65-0.1,0.89,0.13c2.11,2.12,3.14,5.27,2.89,8.88c-0.24,3.45-1.56,6.96-3.84,10.17c-2.13,2.99-5.07,5.68-8.51,7.77
					c-1.92,1.17-4.39,2.42-7.54,3.82c-3.2,1.42-6.52,2.74-9.19,3.78c0.52,1.27,0.85,2.45,0.98,3.5c0.18,1.44-0.02,2.65-0.6,3.58
					C134.32,204.41,133.21,205.91,131,205.91z M128.48,197.44c0.29,0,0.56,0.17,0.68,0.43c0.34,0.73,0.61,1.41,0.8,1.98
					c0.12,0.38-0.04,0.85-0.4,1c-0.49,0.2-0.86,0.6-1.02,1.11c-0.29,0.93,0.23,1.93,1.16,2.22c0.47,0.15,0.91,0.22,1.31,0.22
					c1.4,0,2.09-0.88,2.33-1.25c0.39-0.63,0.52-1.51,0.39-2.61c-0.14-1.1-0.53-2.38-1.17-3.79c-0.09-0.19-0.09-0.4-0.01-0.59
					c0.08-0.19,0.23-0.34,0.42-0.42c2.77-1.07,6.38-2.49,9.85-4.03c3.1-1.38,5.51-2.6,7.38-3.73c3.27-1.99,6.06-4.53,8.07-7.36
					c2.12-2.98,3.35-6.23,3.57-9.4c0.2-2.94-0.54-5.51-2.09-7.31c-1.03,0.54-2.16,1.07-3.36,1.59c0.08,0.11,0.17,0.2,0.28,0.29
					c1.18,0.99,1.79,2.93,1.64,5.19c-0.16,2.35-1,4.69-2.48,6.97c-1.75,2.68-4.33,5.1-7.46,7c-4.22,2.57-10.85,5.25-17.38,7.76
					c-0.32,0.12-0.69,0.01-0.88-0.27c-0.53-0.76-0.92-1.24-1.12-1.44c-0.33-0.34-0.77-0.53-1.24-0.54
					c-0.52-0.01-0.92,0.17-1.26,0.49c-0.35,0.34-0.54,0.79-0.54,1.29c0,0.24-0.11,0.47-0.31,0.61c-0.2,0.14-0.45,0.18-0.67,0.11
					c-3.07-0.98-6.68-2.39-9.86-3.63c-3.86-1.5-7.85-3.06-11.58-4.22c-3.23-1.01-5.9-1.61-8.14-1.83c-4.9-0.48-9.87-0.64-14.68-0.79
					c-6.37-0.2-12.96-0.41-19.32-1.38c-2.64-0.4-5.4-0.96-7.75-2.28c-0.36-0.2-0.72-0.44-1.13-0.75c-1.76-1.31-2.9-2.99-3.22-4.73
					c-0.41-2.26,0.75-3.77,1.61-4.87c0.51-0.67,1.23-1.33,1.81-1.83c-1.15-0.44-2.3-0.91-3.2-1.3c-2.78,1.67-4.33,5.24-3.71,8.64
					c0.43,2.38,1.84,4.67,3.96,6.44c0.67,0.56,1.39,1.06,2.13,1.48c2.84,1.61,5.98,2.25,8.96,2.7c6.56,1,13.25,1.21,19.71,1.41
					c4.79,0.15,9.7,0.31,14.47,0.78c2,0.2,4.43,0.75,7.43,1.69c3.62,1.13,7.55,2.66,11.35,4.14c3.63,1.42,7.38,2.88,10.66,3.89
					c1.24,0.38,2.31,0.68,3.29,0.9c0.26,0.04,0.43,0.05,0.63,0.02C128.41,197.44,128.44,197.44,128.48,197.44z"/>
			</g>
		</g>
		<g id="Dot_00000137850827281572644500000008000231068508909962_">
			<g>
				<path class="st7" d="M50.66,293.86c0.61-0.2,1.1-0.62,1.39-1.19c0.29-0.57,0.34-1.22,0.14-1.82c-0.2-0.61-0.62-1.1-1.19-1.39
					c-0.57-0.29-1.22-0.34-1.82-0.14c-0.78,0.25-1.33,0.87-1.55,1.6c-0.13,0.45-0.13,0.94,0.02,1.41
					C48.06,293.58,49.41,294.27,50.66,293.86z"/>
			</g>
			<g>
				<path class="st7" d="M51.25,313.91c0.41-1.14-0.19-2.39-1.32-2.8c-0.55-0.2-1.15-0.17-1.68,0.08c-0.53,0.25-0.93,0.69-1.13,1.24
					c-0.02,0.04-0.03,0.09-0.04,0.13c-0.15,0.51-0.11,1.06,0.12,1.55c0.25,0.53,0.69,0.93,1.24,1.13
					C49.58,315.64,50.84,315.05,51.25,313.91z"/>
			</g>
			<g>
				<path class="st7" d="M57.57,305.93c1-0.33,1.54-1.4,1.21-2.4c-0.33-1-1.4-1.54-2.4-1.21c-0.62,0.2-1.06,0.69-1.23,1.28
					c-0.1,0.36-0.11,0.74,0.02,1.12C55.5,305.71,56.58,306.26,57.57,305.93z"/>
			</g>
			<g>
				<path class="st7" d="M135.93,382.55c0.41-1.14-0.19-2.39-1.32-2.8c-0.55-0.2-1.15-0.17-1.68,0.08
					c-0.53,0.25-0.93,0.69-1.13,1.24c-0.02,0.04-0.03,0.09-0.04,0.13c-0.15,0.51-0.11,1.06,0.12,1.55c0.25,0.53,0.69,0.93,1.24,1.13
					C134.26,384.28,135.52,383.68,135.93,382.55z"/>
			</g>
			<g>
				<path class="st7" d="M147.7,372.37c1-0.33,1.54-1.4,1.21-2.4c-0.33-1-1.4-1.54-2.4-1.21c-0.62,0.2-1.06,0.69-1.23,1.28
					c-0.1,0.36-0.11,0.74,0.02,1.12C145.63,372.16,146.7,372.7,147.7,372.37z"/>
			</g>
			<g>
				<path class="st7" d="M54.07,329.26c0.39-0.19,0.69-0.51,0.84-0.92c0.15-0.41,0.13-0.85-0.06-1.24
					c-0.19-0.39-0.51-0.69-0.92-0.84c-0.41-0.15-0.85-0.13-1.24,0.06c-0.39,0.19-0.69,0.51-0.84,0.92c-0.01,0.03-0.02,0.06-0.03,0.1
					c-0.11,0.38-0.08,0.79,0.09,1.15c0.19,0.39,0.51,0.69,0.92,0.84C53.24,329.47,53.68,329.45,54.07,329.26z"/>
			</g>
			<g>
				<path class="st7" d="M137.81,368.51c0.39-0.19,0.69-0.51,0.84-0.92c0.15-0.41,0.13-0.85-0.06-1.24
					c-0.19-0.39-0.51-0.69-0.92-0.84c-0.41-0.15-0.85-0.13-1.24,0.06c-0.39,0.19-0.69,0.51-0.84,0.92c-0.01,0.03-0.02,0.06-0.03,0.1
					c-0.11,0.38-0.08,0.79,0.09,1.15c0.19,0.39,0.51,0.69,0.92,0.84C136.98,368.72,137.42,368.7,137.81,368.51z"/>
			</g>
		</g>
	</g>
</g>
<g id="Guide">
</g>
</svg>
