<?xml version="1.0" encoding="utf-8"?>
<!-- Generator: Adobe Illustrator 26.1.0, SVG Export Plug-In . SVG Version: 6.00 Build 0)  -->
<svg version="1.1" xmlns="http://www.w3.org/2000/svg" xmlns:xlink="http://www.w3.org/1999/xlink" x="0px" y="0px"
	 viewBox="0 0 603.52 964.94" style="enable-background:new 0 0 603.52 964.94;" xml:space="preserve">
<style type="text/css">
	.st0{fill:#FFFFFF;stroke:#000000;stroke-miterlimit:10;}
	.st1{fill:#BFA071;stroke:#554B4E;stroke-width:1.5;stroke-linecap:round;stroke-linejoin:round;stroke-miterlimit:10;}
	.st2{fill:#BFA071;stroke:#554B4E;stroke-linecap:round;stroke-linejoin:round;stroke-miterlimit:10;}
	.st3{fill:#F8F4E9;stroke:#554B4E;stroke-width:1.5;stroke-linecap:round;stroke-linejoin:round;stroke-miterlimit:10;}
	.st4{fill:#F2DED6;stroke:#554B4E;stroke-width:1.5;stroke-linecap:round;stroke-linejoin:round;stroke-miterlimit:10;}
	.st5{fill:none;stroke:#554B4E;stroke-linecap:round;stroke-linejoin:round;stroke-miterlimit:10;}
	.st6{fill:#BFA071;}
	.st7{fill:#554B4E;}
	.st8{fill:#F8F4E9;}
	.st9{fill:none;stroke:#554B4E;stroke-width:1.5;stroke-linecap:round;stroke-linejoin:round;stroke-miterlimit:10;}
	.st10{fill:#F8F4E9;stroke:#554B4E;stroke-linecap:round;stroke-linejoin:round;stroke-miterlimit:10;}
	.st11{fill:#F2DED6;stroke:#554B4E;stroke-linecap:round;stroke-linejoin:round;stroke-miterlimit:10;}
	.st12{clip-path:url(#SVGID_00000165953755333774057670000018030953484301781676_);}
	.st13{fill:none;stroke:#BFA071;stroke-width:1.5;stroke-linecap:round;stroke-linejoin:round;}
	.st14{fill:none;stroke:#BFA071;stroke-width:1.5;stroke-linecap:round;stroke-linejoin:round;stroke-dasharray:68.8403,19.6687;}
	.st15{fill:none;stroke:#BFA071;stroke-width:1.5;stroke-linecap:round;stroke-linejoin:round;stroke-dasharray:71.4455,20.413;}
	.st16{fill:none;stroke:#BFA071;stroke-width:1.5;stroke-linecap:round;stroke-linejoin:round;stroke-dasharray:69.5884,19.8824;}
	.st17{fill:none;stroke:#BFA071;stroke-width:1.5;stroke-linecap:round;stroke-linejoin:round;stroke-dasharray:61.3524,17.5292;}
	.st18{fill:none;stroke:#BFA071;stroke-width:1.5;stroke-linecap:round;stroke-linejoin:round;stroke-dasharray:63.9932,18.2838;}
	.st19{fill:none;stroke:#BFA071;stroke-width:1.5;stroke-linecap:round;stroke-linejoin:round;stroke-dasharray:72.7778,20.7937;}
	.st20{fill:none;stroke:#BFA071;stroke-width:1.5;stroke-linecap:round;stroke-linejoin:round;stroke-dasharray:77.193,22.0551;}
	.st21{fill:none;stroke:#BFA071;stroke-width:1.5;stroke-linecap:round;stroke-linejoin:round;stroke-dasharray:75.3802,21.5372;}
	.st22{fill:none;stroke:#BFA071;stroke-width:1.5;stroke-linecap:round;stroke-linejoin:round;stroke-dasharray:73.6885,21.0538;}
	.st23{fill:none;stroke:#BFA071;stroke-width:1.5;stroke-linecap:round;stroke-linejoin:round;stroke-dasharray:63.3162,18.0903;}
	.st24{fill:none;stroke:#BFA071;stroke-width:1.5;stroke-linecap:round;stroke-linejoin:round;stroke-dasharray:62.0513,17.7289;}
	.st25{fill:none;stroke:#BFA071;stroke-width:1.5;stroke-linecap:round;stroke-linejoin:round;stroke-dasharray:68.9157,19.6902;}
	.st26{fill:none;stroke:#554B4E;stroke-width:1.5;stroke-linecap:round;stroke-linejoin:round;}
	.st27{fill:none;stroke:#554B4E;stroke-width:1.5;stroke-linecap:round;stroke-linejoin:round;stroke-dasharray:15.0532,10.0355;}
	.st28{fill:none;stroke:#554B4E;stroke-width:1.5;stroke-linecap:round;stroke-linejoin:round;stroke-dasharray:14.9985,9.999;}
	.st29{fill:none;stroke:#554B4E;stroke-width:1.5;stroke-linecap:round;stroke-linejoin:round;stroke-dasharray:14.8977,9.9318;}
	.st30{fill:none;stroke:#554B4E;stroke-width:1.5;stroke-linecap:round;stroke-linejoin:round;stroke-dasharray:15.4213,10.2808;}
	.st31{fill:none;stroke:#554B4E;stroke-width:1.5;stroke-linecap:round;stroke-linejoin:round;stroke-dasharray:15.2271,10.1514;}
	.st32{fill:none;stroke:#554B4E;stroke-width:1.5;stroke-linecap:round;stroke-linejoin:round;stroke-dasharray:15.021,10.014;}
	.st33{fill:none;stroke:#554B4E;stroke-width:1.5;stroke-linecap:round;stroke-linejoin:round;stroke-dasharray:15.0727,10.0485;}
	.st34{fill:none;stroke:#554B4E;stroke-width:1.5;stroke-linecap:round;stroke-linejoin:round;stroke-dasharray:14.6942,9.7961;}
	.st35{fill:none;stroke:#554B4E;stroke-width:1.5;stroke-linecap:round;stroke-linejoin:round;stroke-dasharray:14.7469,9.8312;}
	.st36{fill:none;stroke:#554B4E;stroke-width:1.5;stroke-linecap:round;stroke-linejoin:round;stroke-dasharray:15.0819,10.0546;}
	.st37{fill:none;stroke:#554B4E;stroke-width:1.5;stroke-linecap:round;stroke-linejoin:round;stroke-dasharray:15.003,10.002;}
	.st38{fill:#F2DED6;}
	.st39{fill:#F2DED6;stroke:#554B4E;stroke-width:1.5;stroke-linecap:round;stroke-miterlimit:10;}
	.st40{fill:none;stroke:#554B4E;stroke-width:1.5;stroke-linecap:round;stroke-miterlimit:10;}
	.st41{fill:none;stroke:#554B4E;stroke-linecap:round;stroke-miterlimit:10;}
	.st42{fill:none;stroke:#BFA071;stroke-linecap:round;stroke-linejoin:round;}
	.st43{fill:none;stroke:#BFA071;stroke-linecap:round;stroke-linejoin:round;stroke-dasharray:14.9905,14.9905;}
	.st44{fill:none;stroke:#BFA071;stroke-linecap:round;stroke-linejoin:round;stroke-dasharray:51.384,34.256;}
	.st45{fill:none;stroke:#554B4E;stroke-miterlimit:10;}
	.st46{clip-path:url(#SVGID_00000125588069330447004050000009080259649346754194_);}
	.st47{fill:none;stroke:#554B4E;stroke-width:1.5;stroke-linecap:round;stroke-linejoin:round;stroke-dasharray:68.8403,19.6687;}
	.st48{fill:none;stroke:#554B4E;stroke-width:1.5;stroke-linecap:round;stroke-linejoin:round;stroke-dasharray:71.4455,20.413;}
	.st49{fill:none;stroke:#554B4E;stroke-width:1.5;stroke-linecap:round;stroke-linejoin:round;stroke-dasharray:69.5884,19.8824;}
	.st50{fill:none;stroke:#554B4E;stroke-width:1.5;stroke-linecap:round;stroke-linejoin:round;stroke-dasharray:61.3524,17.5292;}
	.st51{fill:none;stroke:#554B4E;stroke-width:1.5;stroke-linecap:round;stroke-linejoin:round;stroke-dasharray:63.9932,18.2838;}
	.st52{fill:none;stroke:#554B4E;stroke-width:1.5;stroke-linecap:round;stroke-linejoin:round;stroke-dasharray:72.7778,20.7937;}
	.st53{fill:none;stroke:#554B4E;stroke-width:1.5;stroke-linecap:round;stroke-linejoin:round;stroke-dasharray:77.193,22.0551;}
	.st54{fill:none;stroke:#554B4E;stroke-width:1.5;stroke-linecap:round;stroke-linejoin:round;stroke-dasharray:75.3802,21.5372;}
	.st55{fill:none;stroke:#554B4E;stroke-width:1.5;stroke-linecap:round;stroke-linejoin:round;stroke-dasharray:73.6885,21.0538;}
	.st56{fill:none;stroke:#554B4E;stroke-width:1.5;stroke-linecap:round;stroke-linejoin:round;stroke-dasharray:63.3162,18.0903;}
	.st57{fill:none;stroke:#554B4E;stroke-width:1.5;stroke-linecap:round;stroke-linejoin:round;stroke-dasharray:62.0513,17.7289;}
	.st58{fill:none;stroke:#554B4E;stroke-width:1.5;stroke-linecap:round;stroke-linejoin:round;stroke-dasharray:68.9157,19.6902;}
	.st59{fill:none;stroke:#554B4E;stroke-linecap:round;stroke-linejoin:round;}
	.st60{fill:none;stroke:#554B4E;stroke-linecap:round;stroke-linejoin:round;stroke-dasharray:14.9905,14.9905;}
	.st61{fill:none;stroke:#554B4E;stroke-linecap:round;stroke-linejoin:round;stroke-dasharray:51.384,34.256;}
	.st62{fill:#95608F;}
	.st63{fill:#ED859E;}
	.st64{fill:#FAC87D;}
	.st65{opacity:0.1;}
	.st66{fill:#B5846F;}
	.st67{fill:#B5846F;stroke:#B5846F;stroke-width:5;stroke-linecap:round;stroke-linejoin:round;stroke-miterlimit:10;}
	.st68{fill:#EAD9EB;}
	.st69{fill:#FFFFFF;}
	.st70{fill:url(#SVGID_00000102513515794409804860000016284292246890506624_);}
	.st71{opacity:0.8;fill:#FFFFFF;}
	.st72{fill:url(#SVGID_00000145764636623082458730000008939992377840836750_);}
	.st73{fill:url(#SVGID_00000005976625705107851630000012331513754062344092_);}
	.st74{opacity:0.8;}
	.st75{opacity:0.6;}
	.st76{opacity:0.2;}
	.st77{fill:none;}
	.st78{fill:url(#SVGID_00000030454985251433522410000006541606716287201187_);}
	.st79{fill:url(#SVGID_00000093166074785707570880000009219689978435416977_);}
	.st80{clip-path:url(#SVGID_00000019665891211498452580000005600559001222418360_);fill:#FFFFFF;}
	.st81{clip-path:url(#SVGID_00000173854203770663157750000017899801457048946099_);fill:#FFFFFF;}
	.st82{clip-path:url(#SVGID_00000098943218030644032300000003190607797774881153_);fill:#FFFFFF;}
	.st83{clip-path:url(#SVGID_00000025408352504901124700000016506487184812950403_);fill:#FFFFFF;}
	.st84{clip-path:url(#SVGID_00000085949104533787094160000009810416860453904018_);fill:#FFFFFF;}
</style>
<g id="Bg">
</g>
<g id="Graphic">
	<g id="Fairy_00000148645863024733901400000007919519083662501016_">
		<g id="Moon_00000163053139176601123130000002856344493337135798_">
			<g id="Stroke_00000153676811208027283680000013826612586921109174_">
				<g>
					<path class="st7" d="M232.2,668.32c-0.07,0-0.14-0.01-0.21-0.03c-40.46-12.04-79.18-32.83-111.96-60.11
						c-33.39-27.78-60.69-62.4-78.94-100.1c-0.18-0.37-0.02-0.82,0.35-1c0.38-0.18,0.82-0.02,1,0.35
						c18.16,37.52,45.32,71.96,78.55,99.6c32.63,27.15,71.17,47.84,111.43,59.82c0.4,0.12,0.62,0.54,0.5,0.93
						C232.82,668.11,232.52,668.32,232.2,668.32z"/>
				</g>
				<g>
					<path class="st7" d="M319.25,681.64c-21.37,0-43.58-2.49-65.66-7.43c-0.4-0.09-0.66-0.49-0.57-0.9
						c0.09-0.41,0.49-0.66,0.9-0.57c34.56,7.73,69.44,9.43,100.86,4.94c0.41-0.07,0.79,0.23,0.85,0.64
						c0.06,0.41-0.23,0.79-0.64,0.85C343.47,680.82,331.5,681.64,319.25,681.64z"/>
				</g>
				<g>
					<path class="st7" d="M422.68,662.07c-0.31,0-0.6-0.19-0.71-0.5c-0.14-0.39,0.06-0.82,0.45-0.96
						c24.39-8.75,48.06-21.19,72.36-38.02c21.67-15.01,41.24-33.17,59.82-55.5c1.34-1.61,2.71-3.21,4.08-4.81
						c3.83-4.47,7.78-9.09,11.08-13.97c1.19-1.75,2.33-3.6,3.43-5.39c0.72-1.16,1.44-2.33,2.18-3.49
						c-18.73,17.7-64.26,57.75-96.45,73.41c-12.3,5.98-24.89,10.75-37.42,14.18c-0.4,0.11-0.81-0.13-0.92-0.53s0.13-0.81,0.53-0.92
						c12.44-3.41,24.94-8.14,37.16-14.08c36.8-17.89,91.09-67.81,102.41-79.29c0.58-0.66,1.19-1.31,1.82-1.93
						c0.29-0.28,0.75-0.29,1.04-0.01c0.29,0.27,0.32,0.73,0.06,1.04c-0.34,0.4-0.94,1.04-1.78,1.88c-2.83,3.22-5.12,6.93-7.35,10.53
						c-1.11,1.8-2.26,3.66-3.46,5.44c-3.35,4.95-7.33,9.61-11.18,14.1c-1.37,1.6-2.73,3.19-4.06,4.79
						c-18.67,22.44-38.33,40.68-60.12,55.77c-24.41,16.91-48.19,29.4-72.71,38.2C422.85,662.05,422.76,662.07,422.68,662.07z"/>
				</g>
				<g>
					<path class="st7" d="M340.22,641.48c-0.01,0-0.02,0-0.03,0c-8.75-0.33-18.98-1.25-27.37-2.46c-0.41-0.06-0.69-0.44-0.63-0.85
						c0.06-0.41,0.45-0.69,0.85-0.63c8.34,1.21,18.52,2.12,27.22,2.45c0.41,0.01,0.74,0.36,0.72,0.78
						C340.95,641.16,340.62,641.48,340.22,641.48z"/>
				</g>
				<g>
					<path class="st7" d="M286.12,633.54c-0.07,0-0.13-0.01-0.2-0.03c-4.13-1.16-9.6-2.86-13.61-4.24c-0.39-0.13-0.6-0.56-0.46-0.95
						c0.14-0.39,0.56-0.6,0.95-0.46c3.98,1.37,9.42,3.07,13.53,4.21c0.4,0.11,0.63,0.53,0.52,0.92
						C286.75,633.32,286.45,633.54,286.12,633.54z"/>
				</g>
				<g>
					<path class="st7" d="M238.89,616.15c-0.09,0-0.19-0.02-0.29-0.06c-39.07-16.04-76.09-42.29-107.05-75.9
						c-0.28-0.3-0.26-0.78,0.04-1.06c0.3-0.28,0.78-0.26,1.06,0.04c30.82,33.45,67.65,59.57,106.52,75.53
						c0.38,0.16,0.57,0.59,0.41,0.98C239.46,615.97,239.18,616.15,238.89,616.15z"/>
				</g>
				<g>
					<path class="st7" d="M125.02,533.01c-0.18,0-0.36-0.06-0.5-0.19c-0.26-0.23-6.48-5.92-17.97-22.03
						c-0.24-0.34-0.16-0.81,0.17-1.05c0.34-0.24,0.81-0.16,1.05,0.17c11.37,15.95,17.69,21.73,17.75,21.79
						c0.31,0.28,0.33,0.75,0.05,1.06C125.43,532.92,125.22,533.01,125.02,533.01z"/>
				</g>
				<g>
					<path class="st7" d="M104.35,506.27c-0.24,0-0.47-0.11-0.62-0.32c-41.01-59.14-58.82-136.9-50.15-218.95
						c0.04-0.41,0.41-0.71,0.83-0.67c0.41,0.04,0.71,0.41,0.67,0.83c-8.64,81.7,9.08,159.09,49.89,217.94
						c0.24,0.34,0.15,0.81-0.19,1.04C104.65,506.22,104.5,506.27,104.35,506.27z"/>
				</g>
				<g>
					<path class="st7" d="M63.79,249.23c-0.07,0-0.14-0.01-0.22-0.03c-0.4-0.12-0.62-0.54-0.5-0.93
						c19.08-63.35,64.69-123.4,122.98-162.46c-70.01,33.17-124.83,89.37-151.27,155.48c-0.15,0.38-0.59,0.57-0.97,0.42
						c-0.38-0.15-0.57-0.59-0.42-0.97c27.72-69.3,86.44-127.77,161.13-160.43c0.08-0.04,0.16-0.07,0.24-0.11c0,0,0,0,0,0l0,0
						c0,0,0,0,0,0h0c0,0,0,0,0,0l0,0c0,0,0,0,0,0l0,0c0,0,0,0,0,0h0c0,0,0,0,0,0l0,0c0,0,0,0,0,0l0,0c0,0,0,0,0,0h0c0,0,0,0,0,0l0,0
						c0,0,0,0,0,0l0,0c0,0,0,0,0,0c0,0,0,0,0,0v0c0,0,0,0,0,0c0,0,0,0,0,0h0c0,0,0,0,0,0c0,0,0,0,0,0l0,0c0,0,0,0,0,0c0,0,0,0,0,0
						l0,0c0,0,0,0,0,0c0,0,0,0,0,0l0,0c0,0,0,0,0,0h0l0,0c0,0,0,0,0,0c0,0,0,0,0,0h0c0,0,0,0,0,0l0,0c0,0,0,0,0,0c0,0,0,0,0,0l0,0
						c0,0,0,0,0,0c0,0,0,0,0,0h0c0,0,0,0,0,0c0,0,0,0,0,0c0,0,0,0,0,0l0,0c0,0,0,0,0,0h0h0c0,0,0,0,0,0c0,0,0,0,0,0c0,0,0,0,0,0h0
						c0,0,0,0,0,0c0,0,0,0,0,0l0,0h0h0c0,0,0,0,0,0c0,0,0,0,0,0s0,0,0,0h0c0,0,0,0,0,0c0,0,0,0,0,0c0,0,0,0,0,0h0c0,0,0,0,0,0
						c0,0,0,0,0,0c0,0,0,0,0,0c0,0,0,0,0,0h0h0c0,0,0,0,0,0c0,0,0,0,0,0c0,0,0,0,0,0c0,0,0,0,0,0h0c0,0,0,0,0,0c0,0,0,0,0,0
						c0,0,0,0,0,0h0c0,0,0,0,0,0h0c0,0,0,0,0,0c0,0,0,0,0,0c0,0,0,0,0,0h0h0c0,0,0,0,0,0l0,0c0,0,0,0,0,0h0c0,0,0,0,0,0c0,0,0,0,0,0
						l0,0c0,0,0,0,0,0h0c0,0,0,0,0,0l0,0c0,0,0,0,0,0c0,0,0,0,0,0c0,0,0,0,0,0c0,0,0,0,0,0l0,0c0,0,0,0,0,0h0c0,0,0,0,0,0
						c0,0,0,0,0,0c0,0,0,0,0,0h0c0,0,0,0,0,0c0,0,0,0,0,0c0,0,0,0,0,0h0c0,0,0,0,0,0c0,0,0,0,0,0c0,0,0,0,0,0h0c0,0,0,0,0,0
						c0,0,0,0,0,0c0,0,0,0,0,0h0c0,0,0,0,0,0c0,0,0,0,0,0c0,0,0,0,0,0c0,0,0,0,0,0c0,0,0,0,0,0h0c0,0,0,0,0,0c0,0,0,0,0,0
						c0,0,0,0,0,0l0,0c0,0,0,0,0,0c0,0,0,0,0,0c0,0,0,0,0,0h0c0,0,0,0,0,0l0,0c0,0,0,0,0,0h0c0,0,0,0,0,0l0,0c0,0,0,0,0,0s0,0,0,0
						c0.15-0.02,0.32,0,0.45,0.08c0,0,0,0,0,0l0,0c0,0,0,0,0,0v0c0,0,0,0,0,0l0,0c0,0,0,0,0,0c0,0,0,0,0,0c0,0,0,0,0,0h0
						c0,0,0,0,0,0s0,0,0,0c0,0,0,0,0,0c0,0,0,0,0,0c0,0,0,0,0,0c0,0,0,0,0,0c0,0,0,0,0,0c0,0,0,0,0,0c0,0,0,0,0,0l0,0c0,0,0,0,0,0
						c0,0,0,0,0,0h0c0,0,0,0,0,0c0,0,0,0,0,0c0,0,0,0,0,0l0,0c0,0,0,0,0,0l0,0c0,0,0,0,0,0c0,0,0,0,0,0h0c0,0,0,0,0,0l0,0
						c0.11,0.07,0.2,0.17,0.27,0.29c0.08,0.15,0.1,0.32,0.07,0.48l0,0c0,0,0,0,0,0l0,0c0,0,0,0,0,0v0c0,0,0,0,0,0c0,0,0,0,0,0v0
						c0,0,0,0,0,0c0,0,0,0,0,0l0,0c0,0,0,0,0,0c0,0,0,0,0,0c0,0,0,0,0,0l0,0v0v0c0,0,0,0,0,0c0,0,0,0,0,0c0,0,0,0,0,0l0,0
						c0,0,0,0,0,0c0,0,0,0,0,0c0,0,0,0,0,0c0,0,0,0,0,0l0,0c-0.02,0.11-0.07,0.22-0.15,0.31l0,0l0,0c-0.05,0.07-0.12,0.12-0.19,0.17
						C133.37,120.11,84.41,182.6,64.51,248.7C64.41,249.02,64.11,249.23,63.79,249.23z"/>
				</g>
				<g>
					<path class="st7" d="M41.76,508.5c-0.27,0-0.53-0.15-0.67-0.41c-18.41-35.62-29.85-76.06-33.11-116.97
						c-3.25-40.86,1.64-82.61,14.14-120.74c0.13-0.39,0.56-0.61,0.95-0.48c0.39,0.13,0.61,0.55,0.48,0.95
						C11.11,308.79,6.24,350.34,9.48,391c3.24,40.71,14.63,80.96,32.94,116.4c0.19,0.37,0.05,0.82-0.32,1.01
						C41.99,508.47,41.87,508.5,41.76,508.5z"/>
				</g>
			</g>
			<g id="Line_00000142863636003629905300000003569033528217662624_">
				<g>
					<path class="st7" d="M129.73,599.88c-0.11,0-0.23-0.04-0.32-0.11c-11.29-9.32-22.13-19.44-32.22-30.08
						c-0.19-0.2-0.18-0.52,0.02-0.71c0.2-0.19,0.52-0.18,0.71,0.02c10.07,10.61,20.88,20.7,32.13,30c0.21,0.18,0.24,0.49,0.07,0.7
						C130.02,599.82,129.88,599.88,129.73,599.88z"/>
				</g>
				<g>
					<path class="st7" d="M92.79,564.72c-0.14,0-0.27-0.05-0.37-0.16c-4.09-4.48-8.1-9.11-11.93-13.75
						c-0.18-0.21-0.15-0.53,0.07-0.7c0.21-0.18,0.53-0.15,0.7,0.07c3.82,4.63,7.82,9.24,11.9,13.71c0.19,0.2,0.17,0.52-0.03,0.71
						C93.03,564.68,92.91,564.72,92.79,564.72z"/>
				</g>
				<g>
					<path class="st7" d="M77.72,544.98c-0.15,0-0.29-0.07-0.39-0.19c-1.74-2.2-3.47-4.48-5.16-6.77c-0.16-0.22-0.12-0.54,0.11-0.7
						c0.22-0.17,0.53-0.12,0.7,0.11c1.68,2.29,3.41,4.55,5.14,6.74c0.17,0.22,0.13,0.53-0.08,0.7
						C77.93,544.94,77.82,544.98,77.72,544.98z"/>
				</g>
				<g>
					<path class="st7" d="M68.39,533.75c-0.17,0-0.33-0.08-0.42-0.23c-7.51-11.9-14.64-25.19-21.8-40.64
						c-0.12-0.25-0.01-0.55,0.24-0.66c0.25-0.12,0.55-0.01,0.66,0.24c7.14,15.41,14.25,28.67,21.74,40.53
						c0.15,0.23,0.08,0.54-0.16,0.69C68.58,533.72,68.48,533.75,68.39,533.75z"/>
				</g>
				<g>
					<path class="st7" d="M43.98,487.35c-0.19,0-0.37-0.11-0.46-0.3c-1.5-3.35-3.01-6.86-4.51-10.42c-0.11-0.25,0.01-0.55,0.27-0.65
						c0.26-0.1,0.55,0.01,0.65,0.27c1.49,3.56,3.01,7.06,4.5,10.4c0.11,0.25,0,0.55-0.25,0.66
						C44.12,487.34,44.05,487.35,43.98,487.35z"/>
				</g>
				<g>
					<path class="st7" d="M35.26,466.47c-0.2,0-0.38-0.12-0.46-0.31c-5.08-12.21-8.93-23.98-11.79-36c-0.06-0.27,0.1-0.54,0.37-0.6
						c0.26-0.07,0.54,0.1,0.6,0.37c2.85,11.96,6.69,23.69,11.74,35.84c0.11,0.26-0.01,0.55-0.27,0.65
						C35.39,466.46,35.32,466.47,35.26,466.47z"/>
				</g>
				<g>
					<path class="st7" d="M44.77,235.17c-0.07,0-0.14-0.01-0.21-0.05c-0.25-0.12-0.36-0.41-0.24-0.66
						c7.83-16.91,12.77-24.43,14.88-27.64c0.48-0.73,0.83-1.26,1.04-1.63c0.13-0.24,0.44-0.33,0.68-0.19
						c0.24,0.13,0.33,0.44,0.19,0.68c-0.23,0.4-0.58,0.94-1.07,1.69c-2.1,3.19-7.01,10.67-14.81,27.51
						C45.14,235.06,44.96,235.17,44.77,235.17z"/>
				</g>
				<g>
					<path class="st7" d="M62.34,203.17c-0.09,0-0.17-0.02-0.25-0.07c-0.24-0.14-0.32-0.45-0.18-0.69
						c5.86-9.9,12.31-19.26,19.16-27.79c0.17-0.21,0.49-0.25,0.7-0.08c0.22,0.17,0.25,0.49,0.08,0.7
						c-6.82,8.5-13.23,17.81-19.07,27.68C62.68,203.08,62.51,203.17,62.34,203.17z"/>
				</g>
				<g>
					<path class="st7" d="M84.5,171.73c-0.11,0-0.23-0.04-0.32-0.12c-0.21-0.18-0.24-0.49-0.06-0.71c2.78-3.3,5.44-6.24,8.13-8.98
						c0.19-0.2,0.51-0.2,0.71-0.01c0.2,0.19,0.2,0.51,0.01,0.71c-2.67,2.73-5.32,5.65-8.08,8.92
						C84.79,171.67,84.65,171.73,84.5,171.73z"/>
				</g>
				<g>
					<path class="st7" d="M443.91,643.15c-0.21,0-0.4-0.13-0.47-0.34c-0.09-0.26,0.05-0.55,0.31-0.64
						c12.41-4.27,26.83-11.26,39.57-19.17c0.23-0.14,0.54-0.07,0.69,0.16c0.15,0.23,0.07,0.54-0.16,0.69
						c-12.79,7.95-27.29,14.97-39.77,19.27C444.01,643.14,443.96,643.15,443.91,643.15z"/>
				</g>
				<g>
					<path class="st7" d="M487.37,621.21c-0.16,0-0.32-0.08-0.42-0.22c-0.15-0.23-0.09-0.54,0.14-0.69
						c2.67-1.78,5.31-3.62,7.84-5.48c0.22-0.16,0.53-0.12,0.7,0.11c0.16,0.22,0.12,0.54-0.11,0.7c-2.54,1.87-5.19,3.72-7.88,5.51
						C487.56,621.18,487.46,621.21,487.37,621.21z"/>
				</g>
				<g>
					<path class="st7" d="M53.3,483.91c-0.19,0-0.37-0.11-0.46-0.29c-4.68-10.44-9.61-24.76-11.98-31.64
						c-0.41-1.18-0.73-2.13-0.97-2.79c-0.09-0.26,0.04-0.55,0.31-0.64c0.26-0.09,0.55,0.04,0.64,0.31c0.23,0.66,0.56,1.61,0.97,2.8
						c2.37,6.87,7.29,21.16,11.95,31.56c0.11,0.25,0,0.55-0.25,0.66C53.44,483.89,53.37,483.91,53.3,483.91z"/>
				</g>
				<g>
					<path class="st7" d="M37.68,441.59c-0.21,0-0.41-0.13-0.48-0.35c-8.03-24.71-12.8-49.33-14.18-73.18
						c-0.02-0.28,0.19-0.51,0.47-0.53c0.3-0.02,0.51,0.2,0.53,0.47c1.37,23.76,6.12,48.3,14.13,72.92c0.08,0.26-0.06,0.54-0.32,0.63
						C37.78,441.58,37.73,441.59,37.68,441.59z"/>
				</g>
				<g>
					<path class="st7" d="M23.13,361.14c-0.27,0-0.49-0.21-0.5-0.48c-0.37-8.97-0.38-18.56-0.03-29.3c0.01-0.28,0.2-0.46,0.52-0.48
						c0.28,0.01,0.49,0.24,0.48,0.52c-0.35,10.72-0.34,20.28,0.03,29.22c0.01,0.28-0.2,0.51-0.48,0.52
						C23.14,361.14,23.14,361.14,23.13,361.14z"/>
				</g>
			</g>
			<g id="Dot_00000026875874510628801580000012318460076771112328_">
				<g>
					<path class="st7" d="M136.51,581.73c0.64-0.31,1.12-0.85,1.36-1.52c0.23-0.67,0.19-1.4-0.12-2.04
						c-0.31-0.64-0.85-1.12-1.52-1.36c-0.67-0.23-1.4-0.19-2.04,0.12c-0.82,0.4-1.35,1.16-1.48,2c-0.08,0.51-0.01,1.06,0.23,1.56
						C133.58,581.81,135.18,582.37,136.51,581.73z"/>
				</g>
				<g>
					<path class="st7" d="M150.25,609.03c0.28-1.32-0.56-2.62-1.87-2.9c-0.64-0.14-1.29-0.02-1.84,0.34
						c-0.55,0.35-0.93,0.9-1.06,1.54c-0.01,0.05-0.02,0.1-0.03,0.15c-0.09,0.59,0.04,1.19,0.36,1.69c0.35,0.55,0.9,0.93,1.54,1.06
						C148.66,611.19,149.97,610.35,150.25,609.03z"/>
				</g>
				<g>
					<path class="st7" d="M153.1,593.45c1.05-0.51,1.5-1.78,0.99-2.83c-0.51-1.05-1.78-1.5-2.83-0.99
						c-0.65,0.32-1.07,0.92-1.18,1.59c-0.06,0.41-0.01,0.84,0.19,1.24C150.78,593.52,152.05,593.96,153.1,593.45z"/>
				</g>
				<g>
					<path class="st7" d="M167.08,620.46c0.41-0.26,0.69-0.67,0.79-1.14c0.11-0.47,0.01-0.96-0.25-1.37
						c-0.26-0.41-0.67-0.69-1.14-0.79c-0.47-0.1-0.96-0.01-1.37,0.25c-0.41,0.26-0.69,0.67-0.79,1.14
						c-0.01,0.04-0.01,0.07-0.02,0.11c-0.07,0.44,0.03,0.88,0.27,1.26c0.26,0.41,0.67,0.69,1.14,0.79
						C166.18,620.81,166.67,620.73,167.08,620.46z"/>
				</g>
				<g>
					<path class="st7" d="M40.09,289.99c-0.04-1.55-1.33-2.77-2.87-2.74c-1.55,0.04-2.77,1.33-2.74,2.87
						c0.02,0.71,0.3,1.35,0.75,1.84c0.53,0.57,1.29,0.92,2.13,0.9C38.9,292.82,40.13,291.53,40.09,289.99z"/>
				</g>
				<g>
					<path class="st7" d="M28.11,303.48c-0.01-0.56-0.24-1.07-0.65-1.46c-0.4-0.38-0.93-0.59-1.49-0.57
						c-1.15,0.03-2.06,0.98-2.03,2.13c0.01,0.53,0.22,1,0.55,1.36c0.39,0.42,0.96,0.68,1.58,0.67c0.56-0.01,1.07-0.24,1.46-0.65
						C27.92,304.56,28.13,304.04,28.11,303.48z"/>
				</g>
			</g>
		</g>
		<g id="Right_wing_00000063632345664823534690000016803298740429168782_">
			<g>
				<path class="st7" d="M589.51,503.33c-8.34,0-16.29-3.42-24.02-6.76c-4.11-1.77-8.36-3.6-12.54-4.84
					c-12.1-2.5-23.52-3.08-34.57-3.66c-20.98-1.08-40.8-2.11-63.2-15.73c-0.35-0.21-0.47-0.68-0.25-1.03
					c0.21-0.35,0.67-0.47,1.03-0.25c22.08,13.43,41.72,14.44,62.5,15.52c11.1,0.57,22.58,1.17,34.85,3.7
					c4.32,1.27,8.61,3.12,12.76,4.91c9.29,4,18.89,8.14,28.92,6.08c4.62-1.66,6.99-4.44,7.02-8.26c0.07-7.88-9.64-17.65-18.03-20.8
					c-9.91-3.71-15.69-1.34-21.29,0.95c-5.86,2.4-11.92,4.88-22.21,0.2c-0.23-0.1-0.39-0.31-0.43-0.55
					c-0.04-0.24,0.04-0.49,0.22-0.67c11.51-11.18,16.76-24.43,14.42-36.37c-4.68-8.81-6.78-18.48-8.81-27.84
					c-1.14-5.27-2.33-10.72-3.96-15.96c-14.02-25.27-75.94-7.37-76.56-7.19c-0.41,0.12-0.82-0.11-0.93-0.51
					c-0.12-0.4,0.11-0.81,0.51-0.93c0,0,0,0,0,0l0,0c0.01,0,0.01,0,0.02,0c15.85-4.69,32.04-18.97,39.37-34.72
					c6.51-13.99,2.04-26.44-2.68-39.63c-2.86-7.97-5.81-16.21-6.36-25.06c-0.2-4.6-0.18-9.35-0.17-13.95
					c0.06-16.66,0.12-33.89-9.76-48.71c-20.16-27.1-32.68-53.6-39.38-83.37c-1.34-4.02-2.73-7.95-4.07-11.75
					c-1.35-3.83-2.75-7.8-4.13-11.93c-1.94-4.32-4.09-8.67-6.37-13.27c-9.95-20.15-20.25-40.98-14.67-63.81
					c0.14-2.1,0.63-4.8,1.19-7.92c1.5-8.29,3.55-19.65-0.69-24.82c-1.55-1.89-3.81-2.85-6.9-2.93
					c-27.36,13.13-29.91,85.98-31.78,139.2c-0.69,19.67-1.29,36.65-3.01,47.2c-0.07,0.41-0.46,0.68-0.86,0.62
					c-0.41-0.07-0.69-0.45-0.62-0.86c1.7-10.45,2.3-27.39,2.99-47.01c1.89-53.71,4.47-127.26,32.8-140.58
					c0.1-0.05,0.2-0.08,0.33-0.07c3.6,0.06,6.36,1.23,8.21,3.49c4.69,5.71,2.65,16.98,1.01,26.04c-0.56,3.11-1.05,5.79-1.18,7.81
					c0,0.04-0.01,0.09-0.02,0.13c-5.48,22.32,4.7,42.92,14.54,62.85c2.28,4.62,4.43,8.98,6.42,13.39c1.4,4.19,2.8,8.15,4.15,11.97
					c1.34,3.81,2.73,7.74,4.1,11.84c6.68,29.63,19.12,55.95,39.16,82.91c10.16,15.23,10.09,32.69,10.03,49.58
					c-0.02,4.58-0.03,9.31,0.16,13.86c0.54,8.62,3.46,16.76,6.28,24.63c4.83,13.48,9.4,26.22,2.63,40.77
					c-6,12.91-17.83,24.85-30.65,31.56c18.58-4.09,57.11-9.73,68.24,10.5c0.02,0.04,0.04,0.09,0.06,0.14
					c1.66,5.32,2.86,10.83,4.02,16.16c2.02,9.29,4.1,18.9,8.72,27.55c0.03,0.06,0.06,0.13,0.07,0.21
					c2.44,12.2-2.67,25.65-14.03,37.06c9.08,3.82,14.39,1.64,20.01-0.66c5.86-2.4,11.93-4.88,22.38-0.96
					c9.03,3.39,19.08,13.61,19.01,22.21c-0.03,3.12-1.45,7.33-8.07,9.68c-0.03,0.01-0.07,0.02-0.1,0.03
					C593.38,503.14,591.43,503.33,589.51,503.33z"/>
			</g>
			<g>
				<g>
					<path class="st7" d="M410.26,244.33c-0.1,0-0.2-0.03-0.28-0.09c-0.16-0.11-0.24-0.3-0.21-0.5
						c3.11-18.48,9.49-44.27,22.22-62.23c4.56-6.44,8.76-8.83,12.44-7.13c7.05,3.25,9.22,20.86,6.86,30.19
						c-0.43,1.71-1.1,3.59-2.72,4.48c-1.1,0.6-2.32,0.59-3.51,0.58c-0.42,0-0.84-0.01-1.25,0.02c-5.97,0.37-9.37,6.67-12.37,12.23
						c-0.27,0.51-0.54,1.01-0.81,1.5c-4.72,8.61-11.67,15.82-20.1,20.86C410.43,244.31,410.35,244.33,410.26,244.33z M442.12,174.88
						c-2.75,0-5.93,2.45-9.31,7.22c-12.38,17.46-18.71,42.44-21.87,60.73c7.85-4.91,14.34-11.78,18.8-19.91
						c0.27-0.49,0.54-0.99,0.81-1.49c3.12-5.79,6.67-12.35,13.19-12.75c0.43-0.03,0.87-0.02,1.32-0.02
						c1.11,0.01,2.15,0.02,3.02-0.46c1.29-0.71,1.85-2.35,2.24-3.85c2.48-9.78-0.24-26.24-6.31-29.04
						C443.4,175.02,442.77,174.88,442.12,174.88z"/>
				</g>
				<g>
					<path class="st7" d="M433.04,316.74c-0.83,0-1.56-0.44-2-1.02c-0.66-0.86-0.88-2.24,0.12-3.36l0,0
						c2.94-3.3,7.78-7.32,11.67-10.56c0.67-0.56,1.31-1.09,1.9-1.58c1.92-1.61,3.86-3.42,5.73-5.17
						c7.56-7.05,15.37-14.33,25.21-12.42c0.2,0.04,0.36,0.2,0.4,0.4c1.12,6.18-3.02,12.1-12.68,18.09
						c-5.69,3.53-20.74,11.12-29.2,15.34C433.79,316.65,433.41,316.74,433.04,316.74z M431.91,313.03L431.91,313.03
						c-0.66,0.74-0.45,1.58-0.07,2.08c0.36,0.47,1.07,0.86,1.9,0.45c8.45-4.21,23.47-11.79,29.12-15.29
						c9.09-5.64,13.11-11.11,12.28-16.72c-9.17-1.59-16.71,5.44-23.99,12.23c-1.89,1.76-3.84,3.58-5.77,5.2
						c-0.59,0.5-1.23,1.03-1.91,1.59C439.61,305.79,434.8,309.78,431.91,313.03z"/>
				</g>
				<g>
					<path class="st7" d="M441.18,224.44c-1.39,0-2.78-0.37-3.51-1.63c-0.57-0.98-0.62-2.08-0.15-3.18c1.02-2.38,4.27-4.29,6.8-4.89
						l0.59-0.14c2.54-0.6,5.17-1.22,7.86-1.14c0.33,0.01,0.7,0.04,1.02,0.29c0.34,0.26,0.51,0.69,0.51,1.27
						c0.01,2.36-1.88,4.07-3.92,5.56c-1.96,1.43-3.76,2.67-5.86,3.31C443.76,224.12,442.47,224.44,441.18,224.44z M452.29,214.46
						c-2.4,0-4.81,0.57-7.15,1.12l-0.6,0.14l0,0c-2.33,0.54-5.25,2.3-6.11,4.31c-0.35,0.81-0.32,1.58,0.09,2.28
						c1.08,1.86,4.64,0.95,5.7,0.62c1.95-0.59,3.67-1.78,5.56-3.16c1.83-1.33,3.52-2.83,3.51-4.75c0-0.24-0.05-0.42-0.13-0.48
						c-0.09-0.07-0.31-0.07-0.44-0.08C452.59,214.46,452.44,214.46,452.29,214.46z M444.43,215.23L444.43,215.23L444.43,215.23z"/>
				</g>
				<g>
					<path class="st7" d="M433.8,233.08c-0.76,0-1.52-0.33-2.09-0.91c-0.58-0.58-0.9-1.35-0.88-2.11c0.03-1.71,1.42-3.7,3.22-3.79
						l0,0c0.51-0.03,0.99,0.17,1.41,0.56c0.83,0.77,1.29,2.19,1.32,3.2c0.02,0.76-0.3,1.53-0.87,2.12S434.57,233.08,433.8,233.08
						C433.81,233.08,433.8,233.08,433.8,233.08z M434.1,227.27L434.1,227.27c-1.23,0.06-2.25,1.58-2.27,2.8
						c-0.01,0.49,0.21,1,0.6,1.39c0.39,0.39,0.89,0.62,1.38,0.62c0,0,0,0,0.01,0c0.49,0,1-0.23,1.38-0.63
						c0.38-0.4,0.6-0.91,0.58-1.4c-0.02-0.79-0.4-1.94-1-2.5C434.55,227.36,434.32,227.28,434.1,227.27z"/>
				</g>
				<g>
					<path class="st7" d="M405.97,267.72c-0.11,0-0.21-0.01-0.32-0.03c-0.39-0.08-0.69-0.31-0.87-0.67
						c-0.23-0.46-0.14-0.95-0.03-1.38c0.67-2.5,2.03-4.1,3.47-5.8c0.53-0.63,1.08-1.28,1.63-2l0,0c0.75-1,1.5-2,2.25-3.01
						c3.5-4.69,7.12-9.53,11.03-14c0.14-0.17,0.36-0.48,0.64-0.88c1.45-2.08,2.99-4.13,4.54-4.26c0.54-0.05,1.03,0.15,1.43,0.56
						c1.16,1.18,0.14,3.84-3.21,8.37c-1.14,1.54-2.36,2.95-3.55,4.32c-1.5,1.73-3.04,3.52-4.33,5.44c-0.46,0.69-0.89,1.41-1.33,2.12
						c-0.58,0.95-1.17,1.94-1.83,2.86c-2.12,2.95-4.91,5.28-7.61,7.54C407.42,267.3,406.66,267.72,405.97,267.72z M410.65,258.44
						c-0.56,0.75-1.12,1.41-1.67,2.05c-1.42,1.67-2.65,3.12-3.26,5.41c-0.07,0.24-0.12,0.51-0.04,0.67
						c0.04,0.08,0.09,0.12,0.18,0.14c0.33,0.06,0.94-0.18,1.4-0.57c2.65-2.22,5.39-4.51,7.44-7.36c0.64-0.89,1.23-1.86,1.79-2.79
						c0.44-0.73,0.88-1.46,1.35-2.16c1.32-1.97,2.88-3.79,4.4-5.54c1.17-1.35,2.38-2.76,3.46-4.21c4.12-5.57,3.6-6.86,3.34-7.12
						c-0.19-0.2-0.4-0.28-0.63-0.26c-1.21,0.1-2.97,2.62-3.81,3.83c-0.3,0.43-0.55,0.78-0.71,0.96c-3.88,4.44-7.49,9.27-10.98,13.94
						C412.15,256.43,411.4,257.43,410.65,258.44L410.65,258.44z"/>
				</g>
				<g>
					<path class="st7" d="M529.14,398.67c-1.57,0-3.13-0.19-4.58-0.37c-0.77-0.09-2.36-0.2-4.38-0.32
						c-16.54-1.06-31.85-2.71-31.89-7.53c0-0.61,0.26-1.16,0.8-1.64c5.04-4.48,34.54-1.52,34.83-1.48c0.01,0,0.02,0,0.03,0
						c2.39,0.43,4.89,1.03,7.01,2.47c2.37,1.61,3.76,4.1,3.65,6.5c-0.01,0.32-0.06,0.73-0.3,1.08c-0.3,0.44-0.79,0.64-1.23,0.77
						C531.79,398.54,530.46,398.67,529.14,398.67z M505.2,387.34c-6.96,0-13.54,0.52-15.45,2.22c-0.31,0.28-0.46,0.57-0.46,0.88
						c0.04,4.56,22.5,6,30.95,6.54c2.11,0.14,3.64,0.23,4.44,0.33c2.57,0.31,5.49,0.67,8.1-0.12c0.27-0.08,0.57-0.19,0.69-0.37
						c0.1-0.14,0.12-0.38,0.13-0.56c0.1-2.06-1.13-4.21-3.21-5.63c-1.96-1.33-4.34-1.9-6.61-2.31
						C520.74,387.95,512.74,387.34,505.2,387.34z"/>
				</g>
				<g>
					<path class="st7" d="M478.21,394.52c-0.4,0-0.81-0.07-1.22-0.21c-0.98-0.35-1.78-1.06-2.19-1.95c-0.34-0.75-0.39-1.5-0.14-2.12
						c0.26-0.64,0.98-1.11,2.09-1.36c1.6-0.37,3.91-0.24,4.87,0.61l0,0c0.46,0.41,0.66,0.96,0.58,1.59
						c-0.17,1.28-1.46,2.56-2.59,3.12C479.17,394.41,478.7,394.52,478.21,394.52z M478.54,389.68c-0.53,0-1.08,0.05-1.57,0.17
						c-0.74,0.17-1.26,0.46-1.39,0.77c-0.15,0.36-0.1,0.84,0.12,1.32c0.29,0.64,0.9,1.17,1.62,1.42c0.65,0.23,1.3,0.21,1.84-0.06
						c0.89-0.44,1.93-1.49,2.04-2.36c0.04-0.3-0.04-0.53-0.25-0.71C480.56,389.88,479.58,389.68,478.54,389.68z"/>
				</g>
				<g>
					<path class="st7" d="M512.97,479.69c-0.89,0-1.77-0.03-2.64-0.08c-0.91-0.06-1.62-0.71-1.77-1.62
						c-0.15-0.91,0.31-1.76,1.15-2.11c7.64-3.2,17.96-3.73,20.94-3.81l0,0c1.06-0.02,2.48,0.11,3.31,0.93
						c0.43,0.43,0.64,0.97,0.63,1.62c-0.02,1.25-1.01,2.34-2.34,2.59l-1,0.19C525.8,478.44,519.17,479.69,512.97,479.69z
						 M530.7,473.07c-2.94,0.08-13.1,0.61-20.59,3.73c-0.5,0.21-0.61,0.67-0.55,1.03c0.06,0.36,0.31,0.75,0.85,0.78
						c6.78,0.44,14.49-1.02,20.69-2.19l1-0.19c0.87-0.16,1.51-0.85,1.53-1.63c0.01-0.37-0.1-0.67-0.33-0.89
						C532.83,473.27,531.89,473.04,530.7,473.07L530.7,473.07z"/>
				</g>
				<g>
					<path class="st7" d="M588.68,495.11c-0.02,0-0.05,0-0.07,0c-4.95-0.03-18.42-6.85-20.05-13.01c-0.44-1.65-0.24-4.04,3.19-6.03
						c5.08-2.94,15,4.24,19.2,10.51c2.34,3.5,2.63,6.31,0.81,7.71l0,0C590.82,495.01,589.63,495.11,588.68,495.11z M574.56,476.37
						c-0.86,0-1.64,0.18-2.32,0.57c-2.35,1.36-3.24,2.96-2.72,4.9c1.51,5.68,14.49,12.25,19.09,12.27c0.77,0,1.81-0.06,2.52-0.61
						c1.92-1.48-0.08-4.94-1.03-6.36C586.8,482.18,579.47,476.37,574.56,476.37z M591.45,493.9L591.45,493.9L591.45,493.9z"/>
				</g>
				<g>
					<path class="st7" d="M559.52,488.26c-0.04,0-0.08,0-0.12,0c-0.87-0.04-1.76-0.46-2.51-1.2c-1.17-1.15-1.69-2.8-1.32-4.19
						c0.33-1.26,1.11-2.1,2.18-2.36c1.31-0.33,2.92,0.26,4,1.44c1.05,1.14,1.38,2.58,0.91,3.94c0,0,0,0,0,0
						c-0.04,0.1-0.07,0.2-0.12,0.3C562.01,487.43,560.78,488.26,559.52,488.26z M558.5,481.42c-0.18,0-0.35,0.02-0.51,0.06
						c-0.71,0.18-1.22,0.75-1.46,1.65c-0.28,1.06,0.14,2.32,1.06,3.23c0.57,0.56,1.23,0.89,1.85,0.91c0.9,0.02,1.8-0.58,2.18-1.46
						c0.03-0.08,0.06-0.16,0.09-0.23c0.34-1.01,0.09-2.08-0.7-2.94C560.32,481.87,559.35,481.42,558.5,481.42z M562.19,485.73
						L562.19,485.73L562.19,485.73z"/>
				</g>
				<g>
					<path class="st7" d="M400.75,280.06c-0.23,0-0.43-0.16-0.49-0.38c-3.08-12.64-6.57-26.97-8.55-32.39
						c-2.15-5.9-3.74-12.1-5.19-17.95c-0.01-0.05-0.02-0.1-0.01-0.15l1.22-19.28c0.4-6.17,0.8-12.34,1.2-18.51
						c1.29-20.02,2.63-40.72,4.15-61.07c0.06-0.76,0.16-2.42,0.3-4.77c2.76-46.38,5.51-68.92,8.65-70.95
						c0.69-0.45,1.42-0.52,2.11-0.2c4.22,1.95,6.83,19.15,9.56,39.73c1.15,8.66,2.14,16.13,2.98,17.52
						c4.62,7.65,9.39,15.56,11.76,24.41c4.94,18.45-1.61,37.89-6.97,50.92l0,0c-1.7,4.14-3.56,8.31-5.35,12.35
						c-5.15,11.58-10.48,23.56-12.8,36.16c-1.79,9.69-1.81,19.84-1.83,29.65c-0.01,4.75-0.02,9.65-0.24,14.44
						c-0.01,0.25-0.2,0.45-0.45,0.48C400.78,280.06,400.76,280.06,400.75,280.06z M387.51,229.18c1.43,5.79,3.01,11.94,5.14,17.77
						c1.82,4.99,4.76,16.84,7.72,28.97c0.09-3.6,0.1-7.23,0.11-10.77c0.02-9.86,0.05-20.05,1.85-29.83
						c2.35-12.71,7.7-24.75,12.87-36.38c1.79-4.03,3.65-8.2,5.34-12.32l0,0c5.3-12.89,11.79-32.13,6.93-50.28
						c-2.33-8.71-7.07-16.56-11.65-24.15c-0.9-1.49-1.73-7.47-3.12-17.9c-1.96-14.76-4.93-37.08-8.99-38.95
						c-0.37-0.17-0.74-0.13-1.14,0.13c-2.77,1.79-5.53,25.4-8.2,70.17c-0.14,2.35-0.24,4.02-0.3,4.78
						c-1.53,20.34-2.86,41.04-4.15,61.06c-0.4,6.17-0.8,12.34-1.2,18.51L387.51,229.18z M421.01,186.8L421.01,186.8L421.01,186.8z"
						/>
				</g>
				<g>
					<path class="st7" d="M413.48,325.14c-0.04,0-0.08,0-0.11-0.01c-0.17-0.04-0.31-0.17-0.36-0.34c-1.26-4.06-2.65-8.23-4.26-12.76
						c-0.72-2.03-1.7-5.4-2.98-10.28c-0.01-0.05-0.02-0.1-0.02-0.14l0.03-0.77c0.11-3.2,0.22-6.51,0.83-9.69
						c1.64-8.63,6.89-16.19,11.52-22.85c1.93-2.77,3.99-6.17,6.17-9.77c9.76-16.07,23.13-38.07,42.77-33.07
						c8.79,2.23,15.27,9.22,16.92,18.23c0.67,3.64,0.64,10.68-0.71,17.1c-1.14,5.45-3.58,12.28-8.74,13.9
						c-2.05,0.65-4.18,0.37-6.24,0.11c-1.2-0.15-2.45-0.31-3.64-0.28c-3.79,0.1-7.33,2.12-10.29,4.08
						c-6.58,4.36-12.5,9.63-17.59,15.68c-3.66,4.35-6.91,9.14-10.05,13.78c-3.04,4.48-6.19,9.12-9.71,13.37
						c-0.99,1.19-2.05,2.39-3.16,3.56C413.74,325.08,413.61,325.14,413.48,325.14z M406.74,301.56c1.27,4.81,2.23,8.13,2.94,10.12
						c1.51,4.24,2.83,8.17,4.02,11.98c0.88-0.95,1.73-1.92,2.53-2.88c3.49-4.21,6.62-8.83,9.65-13.29
						c3.16-4.66,6.43-9.48,10.12-13.87l0,0c5.15-6.12,11.14-11.46,17.8-15.87c3.08-2.04,6.78-4.14,10.82-4.25
						c1.28-0.03,2.55,0.13,3.79,0.29c2.05,0.26,3.98,0.51,5.82-0.07c3.67-1.15,6.53-5.83,8.07-13.16c1.32-6.29,1.35-13.17,0.7-16.72
						c-1.58-8.62-7.78-15.3-16.18-17.44c-18.93-4.82-31.54,15.94-41.67,32.62c-2.19,3.61-4.26,7.02-6.21,9.82
						c-4.58,6.59-9.76,14.05-11.36,22.47c-0.59,3.1-0.7,6.37-0.81,9.54L406.74,301.56z"/>
				</g>
				<g>
					<path class="st7" d="M419.65,348.36c-0.09,0-0.17-0.02-0.25-0.07c-0.12-0.07-0.2-0.18-0.24-0.31
						c-0.39-1.55-0.76-3.09-1.14-4.65c-0.27-1.12-0.55-2.25-0.84-3.42c-0.05-0.21,0.04-0.44,0.23-0.55
						c17.08-9.98,33.97-21.09,51.63-33.97c5.23-3.81,10.18-7.41,14.78-6.33c2.79,0.65,5.19,2.96,7.33,7.05l0,0
						c2.3,4.39,2.72,7.97,1.27,10.64c-1.73,3.17-5.96,5.02-12.93,5.66c-12.26,1.13-23.47,7.59-34.31,13.84
						c-8.17,4.71-16.61,9.58-25.4,12.08C419.74,348.36,419.69,348.36,419.65,348.36z M418.24,340.05c0.26,1.04,0.5,2.05,0.75,3.05
						c0.34,1.39,0.67,2.76,1.02,4.14c8.5-2.51,16.72-7.25,24.68-11.84c10.93-6.3,22.23-12.82,34.71-13.97
						c6.53-0.6,10.61-2.33,12.15-5.15c1.28-2.36,0.85-5.62-1.28-9.7l0,0c-2-3.82-4.18-5.96-6.67-6.54
						c-4.17-0.98-8.93,2.49-13.96,6.17C452.06,319.03,435.24,330.1,418.24,340.05z"/>
				</g>
				<g>
					<path class="st7" d="M430.81,370.03c-0.14,0-0.28-0.06-0.37-0.17c-3.14-3.51-6.69-7.48-10.27-12.39
						c-0.09-0.13-0.12-0.3-0.07-0.45c0.05-0.15,0.17-0.27,0.32-0.32c1.52-0.5,3.08-0.92,4.27-1.23l16.94-4.43
						c9.3-2.43,17.24-5.5,25.79-12.59c0.88-0.73,1.73-1.5,2.56-2.24c4.44-4,8.63-7.79,15.48-3.63c3.39,2.06,5.02,4.7,4.85,7.87
						c-0.27,5.01-5.07,10.23-9.06,13.74c-4.73,4.16-10.17,7.58-13.47,9.12c-2.95,1.38-6.18,1.91-9.31,2.42l0,0l-16.66,2.72
						c-3.18,0.52-7.13,1.16-10.94,1.58C430.84,370.03,430.83,370.03,430.81,370.03z M421.38,357.44c3.34,4.52,6.53,8.11,9.62,11.56
						c3.7-0.42,7.53-1.04,10.63-1.54l16.66-2.72c3.06-0.5,6.22-1.02,9.04-2.34c6.27-2.93,21.48-13.42,21.95-22.01
						c0.15-2.77-1.32-5.11-4.37-6.96c-6.22-3.77-9.78-0.56-14.29,3.51c-0.83,0.75-1.69,1.53-2.59,2.27
						c-8.69,7.21-16.75,10.32-26.17,12.79l-16.94,4.43C423.87,356.72,422.64,357.05,421.38,357.44z M458.38,365.23L458.38,365.23
						L458.38,365.23z"/>
				</g>
				<g>
					<path class="st7" d="M530.14,428.46c-2.26,0-4.63-0.41-6.88-0.9l0,0c-20.24-4.42-40.61-9.53-60.55-15.18
						c-3.49-0.99-7.17-1.89-11.06-2.85l-2.69-0.66c-0.19-0.05-0.34-0.21-0.37-0.4c-0.55-3.2-1.14-6.14-1.81-8.99
						c-0.04-0.16,0.01-0.33,0.12-0.45s0.28-0.19,0.44-0.16c3.49,0.47,6.99,0.95,10.48,1.43c19.16,2.64,38.97,5.37,58.87,5.63
						c5.95,0.08,12.68,0.17,17.87,3.63c3.04,2.04,5.21,5.72,5.52,9.4c0.23,2.77-0.63,5.24-2.44,6.95
						C535.62,427.82,532.97,428.46,530.14,428.46z M523.47,426.59c4.82,1.05,10.19,1.71,13.48-1.4c1.58-1.49,2.34-3.67,2.13-6.13
						c-0.29-3.38-2.28-6.78-5.08-8.65c-4.94-3.3-11.24-3.38-17.33-3.46c-19.97-0.26-39.81-3-59-5.64c-3.25-0.45-6.51-0.9-9.76-1.33
						c0.59,2.55,1.11,5.19,1.6,8.02l2.37,0.58c3.9,0.96,7.59,1.86,11.1,2.86C482.9,417.07,503.26,422.17,523.47,426.59
						L523.47,426.59z"/>
				</g>
				<g>
					<path class="st7" d="M454.09,394.42c-2.89,0-5.81-0.12-8.42-0.4c-0.2-0.02-0.37-0.16-0.42-0.35l-0.12-0.44
						c-0.24-0.79-0.51-1.6-0.86-2.57c-0.05-0.14-0.04-0.3,0.04-0.42s0.21-0.22,0.35-0.24c3.6-0.56,8.62-0.41,13.04-0.28
						c3.53,0.11,6.58,0.2,7.98-0.1c0.93-0.2,1.99-0.43,2.97-0.03c0.63,0.25,1.15,0.85,1.32,1.51c0.14,0.54,0.04,1.05-0.28,1.45
						c-0.41,0.51-1.01,0.67-1.6,0.79l0,0C465,393.97,459.58,394.42,454.09,394.42z M446.11,393.05c7.43,0.75,17.19,0.25,21.77-0.71
						l0,0c0.43-0.09,0.82-0.19,1.02-0.44c0.15-0.18,0.13-0.41,0.09-0.57c-0.09-0.36-0.39-0.7-0.73-0.84
						c-0.7-0.28-1.55-0.1-2.38,0.08c-1.52,0.33-4.63,0.23-8.22,0.13c-4.14-0.12-8.8-0.26-12.26,0.18c0.26,0.74,0.48,1.4,0.67,2.04
						L446.11,393.05z"/>
				</g>
				<g>
					<path class="st7" d="M439.91,381.32c-0.17,0-0.33-0.08-0.42-0.23c-0.47-0.72-0.95-1.42-1.45-2.11c-0.1-0.14-0.12-0.33-0.05-0.5
						s0.23-0.28,0.41-0.29c3.73-0.38,7.44-1.1,11.03-2.13c2.51-0.72,5.02-1.62,7.45-2.49c2.77-0.99,5.63-2.01,8.52-2.79
						c0.24-0.06,0.58-0.17,1-0.29c3.21-0.97,6.44-1.85,7.67-1c0,0,0,0,0,0c1,0.69,1.14,1.4,1.08,1.87c-0.16,1.32-1.96,2.2-3.02,2.61
						c-10.34,3.98-21.16,6.46-32.16,7.34C439.94,381.32,439.92,381.32,439.91,381.32z M439.35,379.09c0.28,0.4,0.55,0.8,0.82,1.2
						c10.8-0.9,21.43-3.34,31.58-7.26c1.38-0.53,2.32-1.24,2.39-1.8c0.04-0.29-0.19-0.6-0.66-0.93l0,0
						c-0.93-0.65-5.2,0.65-6.81,1.13c-0.43,0.13-0.78,0.24-1.03,0.3c-2.85,0.77-5.7,1.78-8.44,2.77c-2.44,0.87-4.97,1.78-7.51,2.51
						C446.33,377.99,442.85,378.69,439.35,379.09z"/>
				</g>
				<g>
					<path class="st7" d="M513.95,469.04c-4.92,0-9.6-1.9-14.13-3.74c-2.26-0.92-4.61-1.87-6.94-2.57c-1.44-0.43-2.95-0.78-4.4-1.12
						c-2.66-0.62-5.4-1.26-7.95-2.42c-4.96-2.27-8.79-6.32-12.49-10.25c-3.59-3.81-7.3-7.75-12.01-9.95
						c-0.96-0.45-1.99-0.83-2.86-1.14c-0.18-0.06-0.3-0.22-0.33-0.41c-0.26-2.01-0.53-3.82-0.8-5.54
						c-0.53-3.37-1.01-6.85-1.48-10.22c-0.19-1.35-0.37-2.71-0.57-4.07c-0.02-0.17,0.04-0.35,0.18-0.46
						c0.13-0.11,0.32-0.14,0.49-0.08c1.51,0.55,3.01,1.25,4.47,1.92c1.37,0.63,2.66,1.23,3.89,1.68c4.83,1.77,9.78,3.41,14.71,4.88
						c19.54,5.82,39.71,9.25,59.96,10.2c2.49,0.12,5.58,0.26,7.65,2.24v0c1.89,1.81,2.47,4.93,1.49,7.94
						c-0.87,2.65-2.71,4.87-4.33,6.84c-6.56,7.93-13.77,15.71-23.52,16.24C514.63,469.04,514.29,469.04,513.95,469.04z
						 M453.79,437.02c0.83,0.3,1.76,0.66,2.66,1.08c4.88,2.29,8.66,6.29,12.32,10.17c3.63,3.85,7.39,7.84,12.18,10.02
						c2.45,1.12,5.15,1.75,7.76,2.36c1.47,0.34,2.99,0.7,4.46,1.14c2.38,0.71,4.75,1.67,7.03,2.6c4.96,2.01,9.66,3.92,14.71,3.64
						c9.35-0.51,16.39-8.12,22.81-15.88c1.65-1.99,3.35-4.05,4.16-6.51c0.66-2.01,0.73-5.02-1.23-6.91l0,0
						c-1.79-1.72-4.68-1.86-7-1.97c-20.33-0.95-40.58-4.39-60.19-10.24c-4.95-1.48-9.92-3.12-14.77-4.9
						c-1.27-0.47-2.58-1.07-3.97-1.71c-1.18-0.55-2.4-1.11-3.61-1.59c0.15,1.08,0.3,2.16,0.45,3.23c0.46,3.37,0.94,6.85,1.48,10.2
						C453.29,433.39,453.54,435.12,453.79,437.02z"/>
				</g>
				<g>
					<path class="st7" d="M499.56,478.18c-0.04,0-0.08,0-0.12,0c-8.38-0.11-16.74-2.08-23.91-3.91c-6.77-1.73-14.52-3.94-20.8-8.23
						c-0.14-0.1-0.22-0.25-0.22-0.42c0.11-5.35-0.05-10.97-0.48-16.72c-0.01-0.19,0.08-0.37,0.24-0.47c0.16-0.1,0.37-0.09,0.53,0.01
						c1.97,1.26,3.94,2.91,5.84,4.51c1.75,1.47,3.4,2.86,4.89,3.8c10.49,6.62,22.01,11.84,33.15,16.88l1,0.46
						c0.89,0.4,1.89,1.21,2.12,2.1c0.12,0.46,0.02,0.9-0.27,1.28C501.05,478.08,500.28,478.18,499.56,478.18z M455.52,465.37
						c6.11,4.1,13.66,6.24,20.26,7.93c7.12,1.82,15.4,3.77,23.67,3.88c0.49,0,1.05-0.03,1.28-0.32c0.1-0.14,0.13-0.27,0.09-0.43
						c-0.12-0.47-0.79-1.08-1.56-1.43l-1-0.45c-11.17-5.06-22.72-10.29-33.27-16.95c-1.55-0.98-3.22-2.39-5-3.88
						c-1.6-1.35-3.25-2.73-4.89-3.87C455.47,455.17,455.61,460.39,455.52,465.37z"/>
				</g>
			</g>
		</g>
		<g id="Left_wing_00000049917242916649775120000014192116534532704441_">
			<g>
				<path class="st7" d="M210.97,481.05c-0.21,0-0.42-0.09-0.57-0.26c-2.96-3.44-4.55-7.18-6.09-10.8
					c-1.95-4.59-3.79-8.93-8.27-11.92c-1.51-0.91-3.03-1.81-4.52-2.69c-7.32-4.34-14.23-8.44-21.09-13.78
					c-15.69-13.84-24.08-32.49-32.19-50.52c-3.45-6.2-7.42-11.34-11.62-16.78c-1.27-1.64-2.55-3.3-3.83-5
					c-5.21-5.79-10.82-11.23-16.25-16.5c-11.9-11.54-23.13-22.45-31.25-37.39l-2.66-2.66c-0.07-0.07-0.12-0.14-0.16-0.23
					c-6.75-15.18-18.62-27.35-35.29-36.18c-4.04-2.02-8.33-3.6-12.49-5.14c-9.22-3.4-17.93-6.61-24.27-14.23
					c-0.08-0.1-0.13-0.21-0.16-0.33c-2.23-11.14,10.87-14.41,15.17-15.49c14.85-1.99,29.48,1.4,40.58,4.57
					c8.26,2.75,16.63,5.77,24.72,8.7c8.07,2.92,16.42,5.93,24.63,8.67c8.26,3.21,16.63,6.7,24.71,10.07
					c8.08,3.37,16.43,6.85,24.64,10.04c28.88,12.25,56.49,25.11,89.07,40.66c0.37,0.18,0.53,0.63,0.35,1
					c-0.18,0.37-0.62,0.53-1,0.35c-32.56-15.53-60.15-28.39-88.99-40.62c-8.21-3.19-16.57-6.68-24.66-10.05
					c-8.08-3.37-16.43-6.85-24.64-10.04c-8.19-2.73-16.55-5.75-24.63-8.67c-8.08-2.92-16.44-5.94-24.66-8.67
					c-10.93-3.12-25.36-6.47-39.85-4.54c-10.59,2.65-15.2,7.09-14.01,13.54c6.08,7.2,14.55,10.32,23.51,13.63
					c4.2,1.55,8.53,3.15,12.66,5.21c16.94,8.97,29.02,21.34,35.92,36.77l2.64,2.64c0.05,0.05,0.09,0.11,0.13,0.17
					c8.01,14.79,19.19,25.64,31.03,37.12c5.44,5.28,11.08,10.75,16.36,16.62c1.32,1.75,2.59,3.4,3.86,5.04
					c4.24,5.49,8.24,10.67,11.77,17.02c8.08,17.95,16.4,36.44,31.81,50.04c6.76,5.25,13.63,9.33,20.9,13.64
					c1.5,0.89,3.02,1.79,4.56,2.72c4.89,3.26,6.81,7.8,8.85,12.6c1.49,3.51,3.03,7.15,5.84,10.4c0.27,0.31,0.24,0.79-0.08,1.06
					C211.31,480.99,211.14,481.05,210.97,481.05z"/>
			</g>
			<g>
				<path class="st7" d="M293.69,662.98c-2.36,0-4.77-0.71-7.19-2.12c-3.99-2.9-6.33-6.82-6.82-11.39
					c-0.64-5.92,1.84-12.68,6.64-18.07c3.28-3.93,7.55-6.84,11.68-9.65c2.14-1.46,4.36-2.96,6.38-4.58c2.3-1.84,5.17-4.38,6.85-7.61
					c0.97-1.87,2.76-7.19,1.82-9.02c-0.17-0.32-0.41-0.49-0.77-0.54c-0.42-0.06-0.88,0.04-1.38,0.13l-0.17,0.04
					c-4.18,0.82-6.74,0.9-10.82-0.76c-0.38-0.16-0.57-0.59-0.41-0.98c0.16-0.38,0.59-0.57,0.98-0.41c3.75,1.53,6.01,1.46,9.96,0.68
					l0.17-0.03c0.57-0.11,1.21-0.24,1.88-0.15c0.85,0.12,1.51,0.58,1.9,1.34c1.46,2.82-1.26,9.32-1.82,10.4
					c-1.81,3.48-4.82,6.15-7.24,8.09c-2.07,1.66-4.31,3.18-6.47,4.65c-4.05,2.75-8.23,5.6-11.39,9.39
					c-4.54,5.1-6.88,11.42-6.28,16.93c0.45,4.2,2.52,7.66,6.15,10.3c3.32,1.93,6.63,2.38,9.79,1.3c4.65-1.6,9.1-6.74,11.91-13.75
					c0.68-1.81,1.35-3.63,2.02-5.45c4.79-13.05,9.32-25.38,18.17-36c0.27-0.32,0.74-0.36,1.06-0.1c0.32,0.26,0.36,0.74,0.1,1.06
					c-8.68,10.42-13.16,22.63-17.91,35.56c-0.67,1.82-1.34,3.65-2.02,5.48c-1.43,3.57-5.53,12.12-12.82,14.63
					C296.31,662.76,295.01,662.98,293.69,662.98z"/>
			</g>
			<g>
				<g>
					<path class="st7" d="M144.85,354.17c-0.86,0-1.82-0.58-2.88-1.73c-5.78-6.29-13.63-10.27-21.23-14.11
						c-4.13-2.09-8.41-4.25-12.34-6.78c-2.75-1.77-6.71-4.57-9.34-8.54c-2.59-3.9-3.47-8.51-2.36-12.35
						c0.07-0.23,0.27-0.37,0.52-0.36c9.12,0.66,18.33,1.93,23.93,6.77c2.62,2.27,5.17,5.01,7.63,7.66c2.45,2.64,4.98,5.38,7.65,7.71
						c7.21,6.31,10.76,12.65,10.55,18.86c-0.04,1.31-0.42,2.16-1.15,2.59C145.51,354.08,145.19,354.17,144.85,354.17z M97.54,311.33
						c-0.86,3.48,0,7.6,2.34,11.13c2.53,3.81,6.38,6.53,9.05,8.25c3.89,2.5,8.14,4.65,12.25,6.73c7.68,3.88,15.61,7.9,21.52,14.33
						c0.76,0.83,1.84,1.73,2.6,1.27c0.41-0.24,0.63-0.82,0.66-1.77c0.2-5.89-3.24-11.97-10.21-18.07c-2.71-2.37-5.26-5.12-7.73-7.78
						c-2.55-2.75-4.97-5.36-7.55-7.59C115.18,313.25,106.35,311.98,97.54,311.33z"/>
				</g>
				<g>
					<path class="st7" d="M164.17,359.92c-1.39,0-2.78-0.1-4.15-0.5c-3.48-1-5.28-4.6-5.2-7.48c0.08-2.8,1.76-4.85,4.52-5.49
						c6.31-1.45,11.98,9.29,12.61,10.52c0.17,0.33,0.52,1.02,0.25,1.7c-0.39,0.95-1.58,1-2.03,1.02l-3.63,0.16
						C165.77,359.88,164.97,359.92,164.17,359.92z M160.51,347.32c-0.31,0-0.63,0.03-0.94,0.11c-2.31,0.53-3.68,2.19-3.74,4.54
						c-0.07,2.5,1.48,5.63,4.48,6.49c1.99,0.57,4.13,0.48,6.2,0.39l3.63-0.16c0.66-0.03,1.05-0.16,1.15-0.4
						c0.09-0.22-0.06-0.56-0.21-0.86l0,0C169.07,353.51,164.74,347.32,160.51,347.32z"/>
				</g>
				<g>
					<path class="st7" d="M294.05,656.24c-1.33,0-2.7-0.59-3.63-1.46c-1.51-1.41-2.22-3.38-2.82-5.27
						c-0.68-2.13-1.38-4.61-1.18-7.14c0.22-2.77,1.63-5.17,3.68-6.28c1.23-0.66,2.8-0.79,4.18-0.35c1.2,0.39,2.14,1.16,2.64,2.18
						c0.55,1.12,0.56,2.36,0.57,3.46c0.01,0.62,0,1.24,0,1.85c-0.01,2-0.02,3.88,0.27,5.86l0.01,0.1c0.28,1.88,0.69,4.73-1.43,6.31
						C295.66,656.02,294.86,656.24,294.05,656.24z M292.59,636.48c-0.71,0-1.42,0.17-2.02,0.49c-1.75,0.94-2.96,3.04-3.16,5.47
						c-0.19,2.35,0.49,4.72,1.14,6.75c0.56,1.76,1.22,3.59,2.55,4.84c1.21,1.13,3.27,1.69,4.64,0.67c1.52-1.13,1.36-3.19,1.04-5.37
						c0-0.02-0.01-0.1-0.01-0.1c-0.3-2.04-0.29-3.96-0.28-6c0-0.6,0.01-1.21,0-1.83c-0.01-1-0.02-2.12-0.46-3.03
						c-0.38-0.78-1.11-1.37-2.05-1.67C293.52,636.56,293.05,636.48,292.59,636.48z"/>
				</g>
				<g>
					<path class="st7" d="M303.54,643.92c-0.04,0-0.08,0-0.11,0c-0.97-0.07-1.66-0.98-1.89-2.51c-0.59-3.99-1.09-8.56,0.42-12.34
						c0.04-0.11,0.09-0.22,0.14-0.33c1.41-3.21,4.25-6.97,7.61-7.01c0.01,0,0.02,0,0.03,0c0.79,0,1.75,0.3,2.14,1.13
						c0.32,0.69,0.09,1.45-0.17,2.09c-0.56,1.39-1.33,2.68-2.08,3.92c-0.88,1.47-1.71,2.85-2.23,4.4c-0.47,1.41-0.71,2.95-0.95,4.44
						c-0.22,1.37-0.44,2.79-0.84,4.1C305.21,643.14,304.44,643.92,303.54,643.92z M309.75,622.73c-0.01,0-0.01,0-0.02,0
						c-3.09,0.03-5.67,4.04-6.71,6.41c-0.04,0.1-0.09,0.2-0.13,0.3c0,0,0,0,0,0c-1.42,3.55-0.93,7.96-0.36,11.82
						c0.06,0.38,0.29,1.61,0.97,1.65c0.55,0.06,0.95-0.7,1.17-1.4c0.38-1.24,0.59-2.56,0.81-3.96c0.24-1.53,0.49-3.11,0.99-4.6
						c0.55-1.65,1.45-3.15,2.32-4.59c0.73-1.21,1.48-2.46,2.01-3.78c0.19-0.47,0.34-0.96,0.18-1.3
						C310.79,622.87,310.2,622.73,309.75,622.73z M302.43,629.26L302.43,629.26L302.43,629.26z"/>
				</g>
				<g>
					<path class="st7" d="M230.68,353.9c-18.56,0-37.04-6.1-53.38-11.5c-10.18-3.36-20.71-6.84-29.63-13.24
						c-4.01-2.88-7.66-6.34-11.2-9.7c-5.12-4.86-10.42-9.88-16.79-13.06c-5.31-2.65-11.31-3.97-17.12-5.25
						c-7.19-1.58-14.62-3.22-20.82-7.4c-3.75-2.52-6.79-5.85-9.73-9.06c-0.95-1.03-1.89-2.07-2.86-3.08
						c-1.45-1.51-3.63-3.03-5.74-4.5c-2.89-2.01-5.89-4.09-7.37-6.36c-2.25-3.44-2.78-5.87-1.62-7.42c2.53-3.38,12.15-1,21.22,1.76
						c0.56,0.17,1.03,0.32,1.4,0.42c28.98,8.43,57.12,19.9,83.64,34.11c5.23,2.8,10.51,5.77,15.61,8.63
						c18.62,10.46,37.87,21.27,58.8,26.43l0.79,0.19c1.07,0.26,2.18,0.53,3.26,0.84c0.14,0.04,0.25,0.14,0.32,0.27
						c0.06,0.13,0.06,0.28,0,0.42l-0.31,0.67c-2.5,5.44-5.09,11.08-7.04,16.47c-0.07,0.2-0.26,0.33-0.46,0.33
						C231.33,353.89,231,353.9,230.68,353.9z M59.34,262.68c-1.91,0-3.42,0.35-4.1,1.27c-0.86,1.14-0.29,3.31,1.65,6.27
						c1.38,2.1,4.29,4.13,7.1,6.08c2.15,1.5,4.38,3.04,5.89,4.62c0.98,1.02,1.93,2.06,2.88,3.09c2.9,3.17,5.9,6.45,9.55,8.9
						c6.04,4.07,13.38,5.69,20.47,7.25c5.86,1.29,11.92,2.63,17.35,5.33c6.5,3.24,11.85,8.31,17.03,13.22
						c3.51,3.33,7.14,6.77,11.09,9.61c8.8,6.32,19.25,9.77,29.36,13.11c16.27,5.37,34.67,11.45,53.06,11.45c0.21,0,0.42,0,0.62,0
						c1.95-5.33,4.49-10.87,6.95-16.22l0.06-0.14c-0.88-0.24-1.78-0.46-2.66-0.67l-0.79-0.19c-21.06-5.18-40.38-16.03-59.05-26.53
						c-5.1-2.87-10.38-5.83-15.6-8.62c-26.46-14.17-54.53-25.62-83.44-34.03c-0.37-0.11-0.85-0.25-1.42-0.43
						C71.88,265.01,64.25,262.68,59.34,262.68z"/>
				</g>
				<g>
					<path class="st7" d="M225.97,372.58c-8.88,0-18.56-2.38-27.19-4.51c-3.89-0.96-7.56-1.86-11.02-2.53
						c-2.43-0.47-7.46-2.73-8.04-5.82c-0.31-1.6,0.59-3.09,2.67-4.42c3.26-2.08,12.3,1.61,18.9,4.3c1.91,0.78,3.56,1.46,4.6,1.78
						c2.74,0.86,5.57,1.76,8.45,2.16c1.95,0.27,3.96,0.33,5.91,0.38c1.06,0.03,2.12,0.06,3.18,0.12c1.64,0.1,3.33,0.29,5.17,0.59
						c0.27,0.04,0.45,0.29,0.42,0.56c-0.3,2.22-0.38,4.44-0.25,6.79c0.01,0.13-0.04,0.26-0.13,0.36c-0.09,0.1-0.21,0.16-0.35,0.17
						C227.53,372.56,226.75,372.58,225.97,372.58z M185.03,355.68c-0.88,0-1.6,0.14-2.1,0.46c-1.7,1.08-2.45,2.22-2.23,3.39
						c0.44,2.29,4.59,4.51,7.25,5.02c3.49,0.68,7.17,1.58,11.07,2.54c9.6,2.36,19.52,4.8,28.73,4.45c-0.09-2.05-0.02-4.02,0.22-5.99
						c-1.63-0.25-3.13-0.42-4.59-0.5c-1.05-0.06-2.1-0.09-3.15-0.12c-1.97-0.05-4.02-0.11-6.02-0.39l0,0
						c-2.96-0.42-5.84-1.32-8.62-2.2c-1.08-0.34-2.74-1.02-4.68-1.81C196.26,358.63,189.03,355.68,185.03,355.68z"/>
				</g>
				<g>
					<path class="st7" d="M177.63,407.82c-1.77,0-3.59-0.32-5.34-1.14c-3.17-1.5-5.4-4.36-7.38-6.88l-16.73-21.41
						c-1.17-1.5-2.5-3.2-2.88-5.28c-0.38-2.1,0.54-4.67,2.73-5.34c1.08-0.33,2.23-0.11,3.22,0.12c4.56,1.06,8.98,2.79,13.25,4.46
						c1.33,0.52,2.66,1.04,4,1.54c15.13,5.69,31.04,8.98,47.3,9.8l0,0c4.43,0.22,9.03,0.12,14.45-0.32
						c0.26-0.03,0.47,0.14,0.53,0.38c0.23,0.92,0.46,1.85,0.7,2.77c0.57,2.25,1.16,4.57,1.65,6.91c0.03,0.14,0,0.29-0.09,0.4
						c-0.08,0.12-0.22,0.19-0.36,0.2c-3.22,0.28-6.55,0.35-9.76,0.42c-8.18,0.17-16.64,0.34-24.15,4.01
						c-2.08,1.02-4.09,2.28-6.03,3.5c-2.01,1.27-4.09,2.58-6.29,3.64C184.41,406.57,181.13,407.82,177.63,407.82z M149.24,368.59
						c-0.31,0-0.62,0.04-0.92,0.13c-1.64,0.5-2.33,2.58-2.04,4.21c0.33,1.84,1.58,3.44,2.68,4.85l16.73,21.41
						c1.9,2.44,4.06,5.2,7.02,6.59c4.86,2.3,10.41,0.31,13.29-1.08c2.14-1.03,4.2-2.33,6.19-3.58c1.96-1.24,3.99-2.52,6.12-3.56
						c7.71-3.77,16.28-3.95,24.57-4.12c3.01-0.06,6.12-0.13,9.14-0.37c-0.46-2.13-1-4.25-1.52-6.31c-0.2-0.79-0.4-1.58-0.6-2.37
						c-5.29,0.42-9.79,0.51-14.16,0.29c-16.35-0.82-32.37-4.14-47.6-9.86c-1.34-0.5-2.67-1.03-4.01-1.55
						c-4.24-1.66-8.63-3.38-13.11-4.42C150.43,368.72,149.82,368.59,149.24,368.59z"/>
				</g>
				<g>
					<path class="st7" d="M219.04,457.54c-0.09,0-0.18-0.02-0.26-0.07c-11.57-7.02-21.72-16.11-31.54-24.9l-3.87-3.47
						c-0.4-0.36-0.89-0.8-1.12-1.41c-0.57-1.52,0.52-3.04,3.08-4.28c5.05-2.45,9.52-6.1,12.93-10.56c0.31-0.4,0.61-0.81,0.91-1.22
						c1.39-1.89,2.83-3.85,4.92-5.06c2.17-1.26,4.74-1.52,7-1.75c3.67-0.38,7.44-0.85,11.08-1.31c3.8-0.48,7.73-0.97,11.6-1.36
						c0.14-0.02,0.28,0.03,0.38,0.12c0.1,0.09,0.17,0.22,0.17,0.36c0.06,1.7,0.02,3.3-0.12,4.88c-0.66,7.36-3.33,14.27-5.91,20.95
						c-1.81,4.67-3.67,9.5-4.83,14.42c-0.57,2.44-1.31,4.98-2.09,7.68c-0.62,2.15-1.27,4.38-1.84,6.61
						c-0.04,0.15-0.15,0.28-0.3,0.34C219.17,457.53,219.11,457.54,219.04,457.54z M233.33,403.19c-3.68,0.38-7.42,0.85-11.04,1.31
						c-3.65,0.46-7.42,0.93-11.1,1.31c-2.17,0.22-4.62,0.47-6.6,1.62l0,0c-1.9,1.1-3.28,2.98-4.61,4.79
						c-0.31,0.42-0.61,0.83-0.92,1.23c-3.51,4.58-8.1,8.33-13.29,10.85c-0.95,0.46-3.09,1.67-2.58,3.03
						c0.15,0.39,0.51,0.71,0.85,1.02l3.87,3.47c9.62,8.61,19.57,17.51,30.82,24.44c0.53-2.02,1.11-4.04,1.68-5.98
						c0.78-2.68,1.51-5.22,2.07-7.63c1.17-4.99,3.05-9.85,4.87-14.55c2.56-6.62,5.21-13.46,5.85-20.68
						C233.32,406.04,233.36,404.66,233.33,403.19z M204.33,407L204.33,407L204.33,407z"/>
				</g>
				<g>
					<path class="st7" d="M311.29,573.73c-0.09,0-0.18-0.02-0.26-0.07c-0.18-0.11-0.28-0.32-0.23-0.53
						c0.79-3.83,1.17-7.72,1.15-11.56c0.53-9.58-1.98-18.75-4.42-27.62c-1.57-5.7-3.18-11.6-3.92-17.44
						c-0.02-0.2,0.07-0.39,0.24-0.49c1.84-1.12,3.33-1.88,4.65-2.54c3.88-1.96,5.83-2.95,9.34-10.12c0.93-1.9,2.06-5.56,3.26-9.44
						c1.94-6.26,3.94-12.74,5.93-15.05l0,0c2.32-2.7,5.9-5.48,8.32-4.41c1.54,0.68,2.11,2.68,1.71,5.95
						c-0.66,5.31-3.84,13.86-6.91,22.12c-2.5,6.73-4.87,13.08-5.71,17.24c-1.54,7.59-2.06,13.43-2.57,19.07
						c-0.76,8.49-1.41,15.83-5.38,26.44c-1.56,4.18-3.16,6.91-4.87,8.34C311.52,573.7,311.4,573.73,311.29,573.73z M304.64,516.71
						c0.75,5.67,2.33,11.42,3.85,16.98c2.46,8.95,4.99,18.2,4.45,27.91c0.02,3.33-0.27,6.72-0.86,10.08
						c1.17-1.47,2.31-3.7,3.45-6.75c3.92-10.48,4.57-17.76,5.32-26.18c0.51-5.67,1.03-11.54,2.58-19.18
						c0.86-4.23,3.24-10.62,5.75-17.39c3.05-8.21,6.21-16.7,6.86-21.9c0.33-2.7-0.06-4.45-1.12-4.91c-1.51-0.67-4.52,1.08-7.16,4.15
						l0,0c-1.85,2.16-3.92,8.82-5.74,14.69c-1.21,3.92-2.36,7.61-3.32,9.58c-3.66,7.48-5.83,8.58-9.78,10.58
						C307.71,514.99,306.33,515.69,304.64,516.71z"/>
				</g>
				<g>
					<path class="st7" d="M331.29,550.18c-0.17,0-0.33-0.08-0.42-0.23c-1.37-2.09-2.41-4.58-2.77-6.64
						c-0.32-1.84,2.42-8.44,5.51-15.63c0.82-1.92,1.48-3.44,1.69-4.07c0.77-2.25,1.45-4.21,2.05-5.94
						c4.5-12.97,4.5-12.97,5.24-24.48c0.14-2.24,0.31-4.92,0.55-8.21c0.3-4.22,0.85-8.21,2.77-8.9c0.88-0.31,1.87,0.11,2.94,1.25
						c2.14,2.27,2.75,9.24,3.2,14.33c0.11,1.29,0.21,2.4,0.32,3.2c0.88,6.7,1.31,13.6,1.28,20.49c0,0.12-0.04,0.23-0.12,0.32
						c-0.78,0.91-1.56,1.81-2.33,2.71c-3.36,3.89-6.54,7.57-9.11,11.06c-4.38,5.95-7.85,12.8-10.33,20.38
						c-0.06,0.18-0.22,0.32-0.41,0.34C331.33,550.18,331.31,550.18,331.29,550.18z M346.5,477c-0.08,0-0.16,0.01-0.24,0.04
						c-1.57,0.56-1.96,5.97-2.11,8.01c-0.24,3.3-0.41,5.98-0.55,8.22c-0.74,11.64-0.74,11.64-5.29,24.74
						c-0.6,1.73-1.28,3.69-2.05,5.93c-0.23,0.66-0.89,2.2-1.72,4.14c-2.01,4.67-5.74,13.37-5.44,15.07c0.28,1.62,1.05,3.6,2.06,5.36
						c2.48-7.27,5.89-13.88,10.13-19.64c2.59-3.52,5.78-7.21,9.16-11.12c0.73-0.85,1.47-1.7,2.21-2.57
						c0.03-6.79-0.4-13.57-1.27-20.17c-0.11-0.82-0.21-1.95-0.32-3.25c-0.41-4.66-1.02-11.71-2.93-13.73
						C347.67,477.54,347.04,477,346.5,477z M353.15,515.37L353.15,515.37L353.15,515.37z"/>
				</g>
				<g>
					<path class="st7" d="M366.23,498.51c-0.17,0-0.33-0.08-0.42-0.23c-1.03-1.59-1.94-3.48-2.64-5.48
						c-0.39-1.12-0.72-2.29-1.04-3.42c-0.31-1.08-0.62-2.2-0.98-3.25c-0.66-1.93-1.74-3.85-2.78-5.69
						c-1.32-2.35-2.69-4.77-3.28-7.35c-0.78-3.39-0.71-5.12,0.21-5.62c0.71-0.38,1.68,0.07,2.95,1.4l0,0
						c4.27,4.43,8.78,14.53,11.81,22.22c0.05,0.12,0.05,0.25,0,0.37c-0.88,2.18-2.02,4.47-3.4,6.81c-0.09,0.15-0.25,0.24-0.42,0.25
						C366.24,498.51,366.24,498.51,366.23,498.51z M355.84,468.33c-0.03,0-0.05,0-0.06,0.01c-0.01,0-0.66,0.41,0.29,4.52
						c0.56,2.44,1.89,4.8,3.18,7.08c1.06,1.89,2.16,3.84,2.85,5.86c0.37,1.08,0.69,2.21,1,3.3c0.32,1.12,0.65,2.28,1.02,3.37
						c0.57,1.64,1.28,3.2,2.09,4.56c1.14-1.98,2.09-3.92,2.85-5.78c-3-7.58-7.4-17.43-11.53-21.71
						C356.56,468.54,356.03,468.33,355.84,468.33z"/>
				</g>
			</g>
		</g>
		<g id="Hair_00000045597411192585253580000006442682257516346524_">
			<g>
				<path class="st7" d="M257.33,699.93c-0.14,0-0.29-0.04-0.42-0.12c-20.94-13.89-31.95-38.31-27.4-60.75
					c2.23-11.93,7.56-22.67,12.7-33.06c5.36-10.81,10.9-22,12.86-34.44c0.05-15.22-8.82-27.36-18.22-40.22
					c-6.09-8.33-12.38-16.94-15.92-26.41c-0.15-0.39,0.05-0.82,0.44-0.96c0.39-0.15,0.82,0.05,0.96,0.44
					c3.46,9.27,9.7,17.8,15.72,26.04c9.13,12.5,18.58,25.43,18.51,41.17c0,0.04,0,0.07-0.01,0.11c-1.98,12.69-7.58,24-13,34.93
					c-5.1,10.3-10.38,20.94-12.58,32.68c-4.32,21.3,5.78,44.44,25.21,58.15c-2.7-12.63-3.96-22.12-2.7-32.19
					c1.83-14.55,8.96-28.32,20.06-38.79c20.17-19.01,38.27-38.28,38.14-64.95c0.53-9.56-1.98-18.71-4.41-27.55
					c-3.56-12.97-7.25-26.38-0.88-40.49c5.42-12,14.57-21.72,23.43-31.12c4.97-5.27,10.1-10.72,14.46-16.48
					c0.25-0.33,0.72-0.4,1.05-0.14c0.33,0.25,0.39,0.72,0.14,1.05c-4.41,5.81-9.57,11.3-14.57,16.6
					c-8.77,9.31-17.84,18.94-23.15,30.71c-6.15,13.61-2.7,26.17,0.96,39.47c2.46,8.96,5.01,18.23,4.47,27.99
					c0.14,27.21-19,47.53-38.61,66c-10.85,10.23-17.81,23.68-19.61,37.88c-1.3,10.34,0.14,20.12,3.07,33.52
					c0.07,0.3-0.06,0.61-0.31,0.78C257.62,699.88,257.47,699.93,257.33,699.93z"/>
			</g>
			<g>
				<path class="st7" d="M217.78,476.85c-0.33,0-0.64-0.23-0.73-0.56c-2.08-8.14,0.68-17.67,3.11-26.08
					c0.78-2.68,1.51-5.21,2.07-7.61c1.17-5.01,3.05-9.88,4.88-14.59c2.55-6.6,5.19-13.42,5.83-20.61
					c0.66-7.38-1.04-14.07-2.68-20.55c-1.9-7.49-3.86-15.24-2.13-23.95c1.68-8.45,5.82-17.46,9.83-26.18
					c4.72-10.28,9.61-20.91,10.72-30.98c2.55-14.04,8.77-21.96,18.5-23.59c0.41-0.08,0.79,0.21,0.86,0.62
					c0.07,0.41-0.21,0.79-0.62,0.86c-9.04,1.52-14.85,9.03-17.27,22.33c-1.14,10.26-6.07,21-10.85,31.39
					c-4.15,9.03-8.07,17.57-9.72,25.84c-1.67,8.38,0.17,15.62,2.11,23.29c1.67,6.6,3.4,13.42,2.72,21.05
					c-0.66,7.4-3.34,14.32-5.93,21.02c-1.8,4.66-3.67,9.48-4.81,14.39c-0.57,2.44-1.31,4.99-2.09,7.69
					c-2.38,8.23-5.08,17.55-3.1,25.29c0.1,0.4-0.14,0.81-0.54,0.91C217.91,476.84,217.84,476.85,217.78,476.85z"/>
			</g>
			<g>
				<path class="st7" d="M369.51,307.66c-0.06,0-0.13-0.01-0.2-0.03c-6.66-1.81-11.4-8.94-15.58-15.23
					c-1.01-1.53-1.97-2.97-2.92-4.28c-8.38-11.61-17.81-18.16-33.64-23.36c-25.66-8.44-41.16,9.55-45.29,15.26
					c-0.26,0.36-0.53,0.74-1.07,0.57c-0.31-0.1-0.52-0.39-0.52-0.72c0-0.21,0.09-0.4,0.23-0.54c0.03-0.04,0.08-0.11,0.14-0.2
					c4.29-5.92,20.35-24.56,46.98-15.81c16.16,5.31,25.8,12.01,34.39,23.9c0.97,1.34,1.93,2.79,2.96,4.33
					c4.03,6.07,8.6,12.95,14.72,14.61c0.4,0.11,0.64,0.52,0.53,0.92C370.14,307.44,369.84,307.66,369.51,307.66z M271.79,279.88
					L271.79,279.88L271.79,279.88z"/>
			</g>
			<g>
				<g>
					<path class="st7" d="M236.74,440.67c-0.06,0-0.11-0.01-0.17-0.03c-0.26-0.09-0.39-0.38-0.3-0.64l5.76-15.94
						c1.81-4.99,3.85-10.65,3.5-16.29c-0.27-4.33-1.94-8.5-3.55-12.53c-0.35-0.88-0.7-1.75-1.04-2.63c-3.45-9-7.94-26.07,0.72-39.39
						c0.15-0.23,0.46-0.29,0.69-0.15c0.23,0.15,0.3,0.46,0.15,0.69c-8.42,12.95-4.01,29.67-0.63,38.49
						c0.33,0.87,0.68,1.75,1.03,2.62c1.64,4.11,3.34,8.35,3.62,12.84c0.37,5.85-1.72,11.61-3.55,16.7l-5.76,15.94
						C237.14,440.54,236.95,440.67,236.74,440.67z"/>
				</g>
				<g>
					<path class="st7" d="M256.16,656.26c-0.03,0-0.07,0-0.1-0.01c-8.23-1.68-16.2-11.42-14.72-24.2
						c1.18-10.17,7.29-18.97,13.45-27.12l0.84-1.11c5.81-7.67,11.81-15.6,13.96-24.91c2.56-11.09-0.35-23.72-8.66-37.54
						c-2.99-4.98-6.43-9.8-9.75-14.46c-4.28-6-8.7-12.21-12.24-18.83c-0.13-0.24-0.04-0.55,0.21-0.68c0.24-0.13,0.55-0.04,0.68,0.21
						c3.5,6.56,7.91,12.74,12.17,18.72c3.33,4.68,6.78,9.52,9.79,14.52c8.44,14.05,11.39,26.93,8.77,38.28
						c-2.2,9.52-8.27,17.54-14.14,25.29l-0.84,1.11c-6.08,8.04-12.1,16.72-13.25,26.63c-1.11,9.56,4.23,21.12,13.93,23.11
						c0.27,0.06,0.44,0.32,0.39,0.59C256.6,656.09,256.4,656.26,256.16,656.26z"/>
				</g>
				<g>
					<path class="st7" d="M239.8,659.76c-0.18,0-0.36-0.1-0.44-0.27c-2.16-4.19-3.35-8.9-3.46-13.62c-0.01-0.28,0.21-0.5,0.49-0.51
						c0.31,0,0.5,0.21,0.51,0.49c0.1,4.56,1.25,9.12,3.34,13.18c0.13,0.25,0.03,0.55-0.21,0.67
						C239.95,659.74,239.87,659.76,239.8,659.76z"/>
				</g>
				<g>
					<path class="st7" d="M254.66,686.76c-0.14,0-0.28-0.06-0.38-0.17c-4.71-5.4-8.52-11.48-11.33-18.07
						c-0.11-0.25,0.01-0.55,0.26-0.66c0.26-0.11,0.55,0.01,0.66,0.26c2.77,6.5,6.52,12.49,11.16,17.8c0.18,0.21,0.16,0.52-0.05,0.71
						C254.9,686.72,254.78,686.76,254.66,686.76z"/>
				</g>
				<g>
					<path class="st7" d="M253.22,669.11c-0.13,0-0.25-0.05-0.35-0.15c-2.39-2.37-4.38-5.09-5.93-8.07
						c-0.13-0.25-0.03-0.55,0.21-0.67c0.25-0.13,0.55-0.03,0.67,0.21c1.5,2.89,3.44,5.53,5.75,7.83c0.2,0.19,0.2,0.51,0,0.71
						C253.47,669.06,253.35,669.11,253.22,669.11z"/>
				</g>
				<g>
					<path class="st7" d="M262.56,581.79c-0.02,0-0.04,0-0.05,0c-0.27-0.03-0.47-0.27-0.45-0.55c0.15-1.46,0.31-2.73,0.45-3.89
						c0.54-4.39,0.9-7.29-0.04-12.74c-0.92-5.35-5.04-17.01-7.74-21.89c-0.13-0.24-0.05-0.55,0.2-0.68c0.24-0.13,0.55-0.05,0.68,0.2
						c2.79,5.04,6.89,16.66,7.85,22.2c0.96,5.6,0.6,8.56,0.04,13.03c-0.14,1.16-0.3,2.43-0.45,3.88
						C263.03,581.59,262.82,581.79,262.56,581.79z"/>
				</g>
				<g>
					<path class="st7" d="M250.84,536.26c-0.07,0-0.14-0.01-0.21-0.05c-4.19-1.93-6.86-5.9-9.24-9.81
						c-4.42-7.28-8.48-14.88-12.06-22.62c-0.12-0.25-0.01-0.55,0.24-0.66c0.25-0.12,0.55-0.01,0.66,0.24
						c3.57,7.7,7.61,15.27,12.01,22.52c2.29,3.78,4.86,7.61,8.8,9.42c0.25,0.12,0.36,0.41,0.25,0.66
						C251.21,536.15,251.03,536.26,250.84,536.26z"/>
				</g>
				<g>
					<path class="st7" d="M231.25,458.41c-0.06,0-0.12-0.01-0.18-0.03c-0.26-0.1-0.38-0.39-0.28-0.65l3.14-8.03
						c0.1-0.26,0.39-0.39,0.65-0.28c0.26,0.1,0.38,0.39,0.28,0.65l-3.14,8.03C231.64,458.29,231.45,458.41,231.25,458.41z"/>
				</g>
				<g>
					<path class="st7" d="M262.49,432.62c-4.57,0-9.05-2.62-10.78-6.69c-1.32-3.13-1.06-6.61-0.58-9.91c0.28-1.94,0.64-3.9,0.99-5.8
						c1.04-5.68,2.11-11.56,1.28-17.28c-0.44-3.06-1.44-6.15-2.4-9.14c-1.73-5.39-3.52-10.96-2.13-16.52
						c0.07-0.27,0.33-0.43,0.61-0.36c0.27,0.07,0.43,0.34,0.36,0.61c-1.33,5.28,0.34,10.48,2.11,15.97
						c0.97,3.03,1.98,6.16,2.44,9.31c0.85,5.89-0.24,11.84-1.29,17.61c-0.35,1.89-0.7,3.85-0.98,5.77
						c-0.46,3.15-0.72,6.47,0.51,9.38c1.97,4.66,7.94,7.23,13.03,5.59c4.77-1.53,8.44-6.54,8.73-11.91
						c0.15-2.93-0.63-5.55-2.22-7.37c-1.77-2.03-4.66-2.88-6.9-2.03c-1.2,0.46-2.21,1.5-2.72,2.79c-0.44,1.14-0.42,2.29,0.05,3.25
						c1.3,2.6,4.93,2.99,7.95,3.05c0.28,0,0.5,0.23,0.49,0.51s-0.2,0.48-0.51,0.49c-3.3-0.06-7.29-0.52-8.83-3.6
						c-0.61-1.21-0.64-2.66-0.09-4.06c0.6-1.55,1.83-2.8,3.29-3.36c2.65-1.01,5.95-0.06,8.01,2.31c1.75,2.01,2.63,4.88,2.46,8.08
						c-0.31,5.86-4.18,11.13-9.42,12.81C264.83,432.45,263.66,432.62,262.49,432.62z"/>
				</g>
				<g>
					<path class="st7" d="M293.25,562.64c-3.11,0-5.68-2.71-7.39-4.82c-1.81-2.23-3.81-4.87-4.71-7.92c-1-3.41-0.37-6.86,1.67-9.02
						c0.87-0.92,2.29-1.72,3.63-1.2c1.13,0.44,1.67,1.6,2.06,2.67c1.17,3.29,1.87,6.71,2.09,10.19c0.02,0.28-0.19,0.51-0.47,0.53
						c-0.27,0.02-0.51-0.19-0.53-0.47c-0.21-3.38-0.9-6.72-2.04-9.92c-0.31-0.86-0.72-1.78-1.48-2.08
						c-0.88-0.34-1.92,0.29-2.54,0.95c-2.14,2.27-2.14,5.64-1.43,8.05c0.85,2.87,2.7,5.32,4.53,7.57c1.7,2.11,4.31,4.85,7.27,4.4
						c3.37-0.51,4.87-4.73,5.13-8.18c0.58-7.65-1.41-15.32-3.35-22.74c-0.34-1.29-0.67-2.58-0.99-3.87
						c-2.12-8.47-3.85-18.32-0.63-27.12c0.09-0.26,0.39-0.39,0.64-0.3c0.26,0.1,0.39,0.38,0.3,0.64
						c-3.13,8.55-1.42,18.21,0.66,26.54c0.32,1.28,0.66,2.57,0.99,3.86c1.95,7.5,3.97,15.25,3.38,23.07c-0.31,4-2.04,8.5-5.98,9.1
						C293.79,562.62,293.52,562.64,293.25,562.64z"/>
				</g>
				<g>
					<path class="st7" d="M272.52,616.96c-0.07,0-0.13-0.01-0.2-0.04c-0.25-0.11-0.37-0.4-0.26-0.66
						c2.46-5.69,7.41-9.67,12.19-13.53c1.58-1.28,3.23-2.6,4.74-3.96c9.43-8.46,14.88-19.61,14.95-30.58c0-0.28,0.23-0.5,0.5-0.5
						c0,0,0,0,0,0c0.28,0,0.5,0.23,0.5,0.5c-0.07,11.25-5.64,22.67-15.28,31.32c-1.53,1.38-3.18,2.71-4.78,3.99
						c-4.69,3.78-9.53,7.68-11.89,13.15C272.9,616.85,272.71,616.96,272.52,616.96z"/>
				</g>
				<g>
					<path class="st7" d="M255.34,636.96c-0.05,0-0.09-0.01-0.14-0.02c-0.26-0.08-0.42-0.35-0.34-0.62
						c1.32-4.53,3.71-8.75,6.94-12.2c0.19-0.2,0.51-0.21,0.71-0.02c0.2,0.19,0.21,0.5,0.02,0.71c-3.12,3.34-5.43,7.41-6.71,11.79
						C255.75,636.82,255.55,636.96,255.34,636.96z"/>
				</g>
				<g>
					<path class="st7" d="M257.34,619.16c-0.03,0-0.07,0-0.1-0.01c-0.27-0.05-0.45-0.32-0.39-0.59c1.19-5.93,6.68-9.78,11.09-12.88
						c5.1-3.58,10.94-7.84,15.65-13.1c5-5.59,8.14-11.75,9.08-17.81c0.04-0.27,0.31-0.46,0.57-0.42c0.27,0.04,0.46,0.3,0.42,0.57
						c-0.97,6.26-4.19,12.6-9.32,18.33c-4.78,5.33-10.67,9.64-15.82,13.25c-4.26,3-9.57,6.72-10.68,12.26
						C257.78,618.99,257.57,619.16,257.34,619.16z"/>
				</g>
				<g>
					<path class="st7" d="M277.7,590.08c-0.11,0-0.23-0.04-0.32-0.12c-0.21-0.18-0.24-0.49-0.06-0.71
						c4.97-5.94,7.46-13.77,6.84-21.49c-0.02-0.28,0.18-0.52,0.46-0.54c0.27-0.01,0.52,0.18,0.54,0.46
						c0.64,7.98-1.94,16.07-7.07,22.21C277.99,590.02,277.85,590.08,277.7,590.08z"/>
				</g>
				<g>
					<path class="st7" d="M275.03,553.08c-0.25,0-0.47-0.19-0.5-0.45c-0.2-1.95-0.58-3.88-1.14-5.76c-0.08-0.26,0.07-0.54,0.34-0.62
						c0.26-0.08,0.54,0.07,0.62,0.34c0.57,1.93,0.97,3.93,1.17,5.94c0.03,0.27-0.17,0.52-0.45,0.55
						C275.06,553.08,275.04,553.08,275.03,553.08z"/>
				</g>
				<g>
					<path class="st7" d="M279.07,564.25c-0.12,0-0.23-0.04-0.33-0.12c-1.64-1.43-2.64-3.58-2.67-5.75c0-0.28,0.22-0.5,0.49-0.51
						c0,0,0,0,0.01,0c0.27,0,0.5,0.22,0.5,0.49c0.03,1.89,0.89,3.77,2.32,5.01c0.21,0.18,0.23,0.5,0.05,0.71
						C279.35,564.19,279.21,564.25,279.07,564.25z"/>
				</g>
				<g>
					<path class="st7" d="M306.32,562.89c-0.28,0-0.5-0.22-0.5-0.5v-8.48c0-0.28,0.22-0.5,0.5-0.5s0.5,0.22,0.5,0.5v8.48
						C306.82,562.67,306.59,562.89,306.32,562.89z"/>
				</g>
				<g>
					<path class="st7" d="M295.37,496.03c-0.07,0-0.14-0.01-0.2-0.04c-0.25-0.11-0.37-0.41-0.25-0.66l2.82-6.38
						c0.11-0.25,0.4-0.37,0.66-0.25c0.25,0.11,0.37,0.41,0.25,0.66l-2.82,6.38C295.74,495.92,295.56,496.03,295.37,496.03z"/>
				</g>
				<g>
					<path class="st7" d="M303.89,482.42c-0.09,0-0.19-0.03-0.27-0.08c-0.23-0.15-0.3-0.46-0.15-0.69
						c3.56-5.52,8.07-10.27,13.4-14.11c0.22-0.16,0.54-0.11,0.7,0.11c0.16,0.22,0.11,0.54-0.11,0.7
						c-5.23,3.77-9.65,8.42-13.15,13.84C304.21,482.34,304.05,482.42,303.89,482.42z"/>
				</g>
				<g>
					<path class="st7" d="M281.93,532.03c-0.21,0-0.41-0.14-0.48-0.35c-0.68-2.18-1.2-4.54-1.65-7.43
						c-1.19-7.65-1.04-14.14,0.47-19.84c1.88-7.1,6.06-13.46,9.89-18.74c0.16-0.22,0.48-0.27,0.7-0.11c0.22,0.16,0.27,0.47,0.11,0.7
						c-3.78,5.21-7.9,11.48-9.74,18.41c-1.47,5.56-1.62,11.92-0.45,19.43c0.44,2.84,0.96,5.16,1.62,7.29
						c0.08,0.26-0.07,0.54-0.33,0.63C282.03,532.02,281.98,532.03,281.93,532.03z"/>
				</g>
				<g>
					<path class="st7" d="M272.88,528.93c-0.08,0-0.16-0.02-0.24-0.06c-5.95-3.19-9.71-10.34-9.56-18.21
						c0.11-6.09,2.36-12.62,6.86-19.96c0.14-0.24,0.45-0.31,0.69-0.16c0.24,0.14,0.31,0.45,0.16,0.69
						c-4.41,7.18-6.61,13.54-6.71,19.45c-0.14,7.5,3.41,14.3,9.04,17.31c0.24,0.13,0.33,0.43,0.2,0.68
						C273.23,528.84,273.06,528.93,272.88,528.93z"/>
				</g>
				<g>
					<path class="st7" d="M256.58,512.41c-0.1,0-0.2-0.03-0.29-0.09c-2.85-2.03-3.89-6.23-2.32-9.36c0.12-0.25,0.43-0.35,0.67-0.22
						s0.35,0.42,0.22,0.67c-1.36,2.71-0.46,6.34,2.01,8.09c0.22,0.16,0.28,0.47,0.12,0.7C256.89,512.34,256.73,512.41,256.58,512.41
						z"/>
				</g>
				<g>
					<path class="st7" d="M286.61,402.59c-0.05,0-0.11-0.01-0.16-0.03c-0.26-0.09-0.4-0.37-0.32-0.63c2.11-6.3,0.76-13.7-3.43-18.85
						c-1.23-1.52-4.3-4.27-7.54-7.19c-3.62-3.25-7.36-6.61-8.72-8.44c-11.79-15.77-13.36-38.8-3.8-56.02
						c0.14-0.24,0.44-0.33,0.68-0.2c0.24,0.13,0.33,0.44,0.2,0.68c-9.37,16.88-7.84,39.48,3.73,54.94c1.31,1.75,5.01,5.08,8.59,8.3
						c3.27,2.94,6.37,5.72,7.65,7.3c4.4,5.41,5.81,13.18,3.6,19.8C287.01,402.45,286.82,402.59,286.61,402.59z"/>
				</g>
				<g>
					<path class="st7" d="M297.72,408.44c-0.19,0-0.37-0.11-0.46-0.3c-0.11-0.25,0-0.55,0.25-0.66c6.3-2.81,8.37-11.03,6.72-17.36
						c-1.76-6.75-6.79-12.31-11.37-17c-0.19-0.2-0.19-0.51,0.01-0.71c0.2-0.19,0.51-0.19,0.71,0.01c4.67,4.78,9.8,10.46,11.62,17.45
						c1.75,6.73-0.49,15.5-7.28,18.53C297.86,408.42,297.79,408.44,297.72,408.44z"/>
				</g>
				<g>
					<path class="st7" d="M316.78,393.94L316.78,393.94c-0.28,0-0.5-0.22-0.5-0.5c0-3.66,0.51-7.3,1.52-10.81
						c0.08-0.27,0.35-0.42,0.62-0.34c0.27,0.08,0.42,0.35,0.34,0.62c-0.98,3.43-1.48,6.97-1.48,10.54
						C317.28,393.72,317.05,393.94,316.78,393.94z"/>
				</g>
				<g>
					<path class="st7" d="M327.4,384.44c-0.14,0-0.27-0.06-0.37-0.17c-0.18-0.21-0.17-0.52,0.04-0.71c2.3-2.07,4.86-3.84,7.61-5.26
						c0.25-0.13,0.55-0.03,0.67,0.22c0.13,0.25,0.03,0.55-0.22,0.67c-2.67,1.38-5.16,3.1-7.4,5.11
						C327.64,384.4,327.52,384.44,327.4,384.44z"/>
				</g>
				<g>
					<path class="st7" d="M288.07,422.1c-0.09,0-0.17-0.02-0.25-0.07c-0.24-0.14-0.32-0.44-0.18-0.68l5.9-10.12
						c0.14-0.24,0.45-0.32,0.68-0.18c0.24,0.14,0.32,0.45,0.18,0.68l-5.9,10.12C288.41,422.01,288.25,422.1,288.07,422.1z"/>
				</g>
				<g>
					<path class="st7" d="M251.69,447.38c-0.1,0-0.21-0.03-0.29-0.1c-0.22-0.16-0.27-0.48-0.11-0.7c2.75-3.77,6.73-6.57,11.2-7.9
						c0.27-0.08,0.54,0.07,0.62,0.34c0.08,0.26-0.07,0.54-0.34,0.62c-4.26,1.26-8.06,3.94-10.68,7.53
						C251.99,447.31,251.84,447.38,251.69,447.38z"/>
				</g>
				<g>
					<path class="st7" d="M278.51,407.34c-0.27,0-0.49-0.22-0.5-0.49c-0.14-6.21-2.22-12.41-5.85-17.46
						c-1.01-1.4-2.16-2.75-3.27-4.06c-1.83-2.15-3.72-4.37-5.07-6.92c-0.13-0.24-0.04-0.55,0.21-0.68c0.25-0.13,0.55-0.04,0.68,0.21
						c1.3,2.46,3.16,4.63,4.95,6.74c1.12,1.32,2.29,2.69,3.32,4.12c3.74,5.21,5.89,11.61,6.03,18.02c0.01,0.28-0.21,0.5-0.49,0.51
						C278.52,407.34,278.52,407.34,278.51,407.34z"/>
				</g>
				<g>
					<path class="st7" d="M269.43,401.94c-0.22,0-0.43-0.15-0.49-0.38c-1.02-4.08-2.41-8.1-4.14-11.93c-0.11-0.25,0-0.55,0.25-0.66
						c0.25-0.11,0.55,0,0.66,0.25c1.75,3.89,3.16,7.96,4.2,12.1c0.07,0.27-0.1,0.54-0.36,0.61
						C269.51,401.93,269.47,401.94,269.43,401.94z"/>
				</g>
				<g>
					<path class="st7" d="M295.4,397.31c-0.1,0-0.21-0.03-0.3-0.1c-0.22-0.17-0.27-0.48-0.1-0.7c0.71-0.96,0.67-2.43-0.09-3.34
						c-0.18-0.21-0.15-0.53,0.07-0.7s0.53-0.15,0.7,0.07c1.06,1.28,1.11,3.25,0.12,4.58C295.7,397.24,295.55,397.31,295.4,397.31z"
						/>
				</g>
				<g>
					<path class="st7" d="M269.31,318.98c-0.08,0-0.17-0.02-0.24-0.06c-0.24-0.13-0.33-0.44-0.2-0.68l3.33-6.04
						c0.13-0.24,0.44-0.33,0.68-0.2c0.24,0.13,0.33,0.44,0.2,0.68l-3.33,6.04C269.66,318.88,269.49,318.98,269.31,318.98z"/>
				</g>
				<g>
					<path class="st7" d="M265.87,336.38c-0.2,0-0.39-0.12-0.47-0.33c-0.75-2.01-0.96-4.18-0.61-6.3c0.04-0.27,0.29-0.46,0.58-0.41
						c0.27,0.04,0.46,0.3,0.41,0.58c-0.32,1.94-0.13,3.94,0.56,5.78c0.1,0.26-0.04,0.55-0.29,0.64
						C265.98,336.37,265.92,336.38,265.87,336.38z"/>
				</g>
				<g>
					<path class="st7" d="M279.45,305.05c-0.14,0-0.28-0.06-0.38-0.17c-0.18-0.21-0.16-0.52,0.04-0.71
						c4.22-3.72,10.69-4.57,15.74-2.07c0.25,0.12,0.35,0.42,0.23,0.67c-0.12,0.25-0.42,0.35-0.67,0.23
						c-4.69-2.32-10.71-1.53-14.63,1.93C279.68,305,279.56,305.05,279.45,305.05z"/>
				</g>
				<g>
					<path class="st7" d="M302.93,303.69c-0.1,0-0.21-0.03-0.29-0.1c-0.22-0.16-0.27-0.48-0.11-0.7
						c4.38-5.97,10.17-10.92,16.75-14.32c0.25-0.13,0.55-0.03,0.67,0.21c0.13,0.25,0.03,0.55-0.21,0.67
						c-6.44,3.32-12.11,8.17-16.4,14.02C303.23,303.62,303.08,303.69,302.93,303.69z"/>
				</g>
				<g>
					<path class="st7" d="M278.85,289c-0.09,0-0.17-0.02-0.25-0.07c-0.24-0.14-0.32-0.45-0.18-0.68c2.33-3.96,4.91-8.1,8.54-11.34
						c3.99-3.56,8.81-5.38,13.19-5c0.28,0.02,0.48,0.27,0.46,0.54c-0.02,0.28-0.26,0.48-0.54,0.46c-4.12-0.36-8.65,1.37-12.44,4.75
						c-3.52,3.14-6.05,7.2-8.35,11.1C279.18,288.91,279.02,289,278.85,289z"/>
				</g>
				<g>
					<path class="st7" d="M261.72,308.47c-0.04,0-0.08,0-0.13-0.02c-0.27-0.07-0.43-0.34-0.36-0.61c1.36-5.18,4.42-9.88,8.6-13.24
						c0.21-0.17,0.53-0.14,0.7,0.08c0.17,0.21,0.14,0.53-0.08,0.7c-4.02,3.22-6.95,7.73-8.26,12.71
						C262.14,308.32,261.94,308.47,261.72,308.47z"/>
				</g>
				<g>
					<path class="st7" d="M343.81,295.45c-0.04,0-0.08,0-0.12-0.01c-3.22-0.77-6.04-1.58-7.99-3.75c-0.88-0.98-1.47-2.14-2.04-3.26
						c-0.34-0.67-0.69-1.36-1.1-1.99c-2.39-3.73-7.3-6.1-12.81-6.19c-3.83-0.08-7.64,0.84-11.03,2.6c-0.24,0.13-0.55,0.03-0.67-0.21
						c-0.13-0.24-0.03-0.55,0.21-0.67c3.54-1.84,7.54-2.77,11.51-2.72c5.93,0.1,11.03,2.58,13.64,6.64
						c0.43,0.67,0.79,1.39,1.15,2.08c0.57,1.12,1.11,2.17,1.9,3.05c1.76,1.95,4.42,2.71,7.48,3.44c0.27,0.06,0.43,0.33,0.37,0.6
						C344.24,295.3,344.04,295.45,343.81,295.45z"/>
				</g>
			</g>
		</g>
		<g id="Body_00000036240211774987492320000001563059422683601571_">
			<g id="Storke_00000109736594015910994880000016848746342505248690_">
				<g>
					<path class="st7" d="M377.98,360.19c-0.21,0-0.43-0.09-0.58-0.27c-9.42-11.3-15.55-24.85-21.48-37.95
						c-1.12-2.47-2.24-4.94-3.37-7.39c-0.17-0.38-0.01-0.82,0.37-1c0.37-0.17,0.82-0.01,1,0.37c1.14,2.45,2.26,4.92,3.38,7.4
						c5.89,13.01,11.98,26.46,21.27,37.61c0.27,0.32,0.22,0.79-0.1,1.06C378.32,360.13,378.15,360.19,377.98,360.19z"/>
				</g>
				<g>
					<path class="st7" d="M323.94,373.09c-11.08,0-22.99-4.5-29.41-15.59c-7.24-4.86-12.99-11.02-19.07-17.55
						c-0.82-0.88-1.64-1.76-2.47-2.64c-0.28-0.3-0.27-0.78,0.03-1.06c0.3-0.28,0.78-0.27,1.06,0.03c0.83,0.88,1.65,1.76,2.47,2.64
						c6.06,6.5,11.79,12.64,18.96,17.42c0.1,0.06,0.18,0.15,0.24,0.25c7.55,13.21,23.29,16.69,35.6,14.28
						c7.2-4.67,8.5-13.45,9.76-21.95c0.41-2.77,0.84-5.64,1.46-8.28c0.1-0.4,0.5-0.65,0.9-0.56c0.4,0.1,0.65,0.5,0.56,0.9
						c-0.61,2.58-1.01,5.28-1.44,8.15c-1.32,8.88-2.68,18.05-10.56,23.07c-0.08,0.05-0.16,0.08-0.25,0.1
						C329.28,372.82,326.64,373.09,323.94,373.09z"/>
				</g>
				<g>
					<path class="st7" d="M423.33,361.55c-0.32,0-0.61-0.2-0.71-0.52c-2.2-6.77-3.48-12.03-4.84-17.6
						c-1.99-8.19-4.06-16.65-9.28-31.32c-1.89-5.3-5.02-18.14-8.33-31.74c-3.31-13.57-6.73-27.6-8.69-33
						c-2.39-6.56-4.08-13.44-5.72-20.09c-0.49-1.99-0.98-3.97-1.49-5.96c-6.48-25.3-16.09-50.04-25.39-73.97
						c-0.03-0.08-0.05-0.17-0.05-0.26c-0.19-12.62,1.29-22.17,5.45-35.27c0.21-0.65,0.42-1.3,0.63-1.95
						c1.19-3.63,2.42-7.38,2.59-11.19c0.02-0.44-0.04-0.53-0.05-0.55c-0.1-0.01-0.55,0.18-0.94,0.63c-2.79,3.23-5.36,6.7-7.63,10.3
						c-1.32,2.1-2.32,2.92-3.58,3.97c-0.59,0.49-1.27,1.05-2.08,1.83c-0.03,0.03-0.06,0.05-0.09,0.08l-1.35,0.93
						c-0.22,0.15-0.49,0.17-0.73,0.07c-0.24-0.11-0.4-0.33-0.44-0.59c-0.47-3.68-0.58-6.9-0.68-10.02c-0.1-3.09-0.21-6.28-0.67-9.89
						c-0.54-4.27-2.75-11.6-6.6-14.29c-0.22-0.16-0.3-0.17-0.32-0.17c0.01,0.04-0.07,0.35-0.01,0.81c0.09,0.68,0.17,1.27,0.25,1.85
						c0.14,1,0.27,1.93,0.41,3.12c1.25,11.09,0.71,22.25-1.6,33.16c-0.38,1.79-0.87,3.67-1.39,5.66
						c-1.73,6.59-3.68,14.07-1.58,19.75c9.28,25.08,15.74,51.24,19.21,77.75l0.09,0.71c0.47,3.66,0.96,7.45,2.28,10.9
						c0.83,2.18,2.01,4.27,3.14,6.3c0.73,1.31,1.49,2.66,2.16,4.03c3.36,6.9,4.56,14.49,5.35,21.67
						c2.95,26.57,0.36,48.27-7.93,66.35c-0.17,0.38-0.62,0.54-0.99,0.37c-0.38-0.17-0.54-0.62-0.37-0.99
						c8.17-17.82,10.72-39.27,7.8-65.56c-0.78-7.04-1.95-14.48-5.21-21.17c-0.65-1.34-1.4-2.67-2.12-3.95
						c-1.17-2.07-2.37-4.22-3.24-6.5c-1.38-3.62-1.88-7.49-2.36-11.24l-0.09-0.71c-3.45-26.41-9.88-52.46-19.12-77.43
						c-2.27-6.13-0.25-13.84,1.53-20.65c0.52-1.97,1-3.83,1.37-5.59c2.28-10.76,2.8-21.76,1.57-32.69c-0.13-1.17-0.26-2.09-0.4-3.08
						c-0.08-0.58-0.17-1.18-0.25-1.86c-0.18-1.36,0.3-2.31,1.24-2.48c0.58-0.11,1.08,0.17,1.44,0.42c4.58,3.2,6.73,11.43,7.22,15.33
						c0.47,3.68,0.58,6.91,0.69,10.03c0.09,2.73,0.19,5.54,0.53,8.66l0.28-0.19c0.83-0.8,1.51-1.36,2.12-1.86
						c1.2-0.99,2.07-1.71,3.26-3.61c2.31-3.67,4.92-7.2,7.76-10.48c0.23-0.26,1.05-1.13,2.02-1.16c0.46-0.01,0.83,0.15,1.13,0.46
						c0.53,0.54,0.49,1.3,0.47,1.66c-0.18,4.01-1.44,7.86-2.66,11.58c-0.21,0.65-0.42,1.29-0.63,1.94
						c-4.1,12.88-5.56,22.29-5.38,34.66c9.3,23.93,18.91,48.68,25.4,74.02c0.51,1.99,1,3.98,1.49,5.97
						c1.63,6.61,3.31,13.45,5.67,19.93c2,5.48,5.42,19.55,8.74,33.15c3.16,12.96,6.42,26.36,8.29,31.59
						c5.25,14.75,7.32,23.25,9.32,31.47c1.35,5.54,2.63,10.78,4.81,17.5c0.13,0.39-0.09,0.82-0.48,0.95
						C423.49,361.54,423.41,361.55,423.33,361.55z"/>
				</g>
				<g>
					<path class="st7" d="M338.98,127.26c-0.26,0-0.52-0.14-0.66-0.38c-0.04-0.07-4.17-7.46-6.75-11.95
						c-0.16-0.28-0.42-0.7-0.72-1.19c-2.84-4.6-4.04-6.98-3.16-8.05c0.4-0.48,1.04-0.56,1.9-0.24c3.71,1.62,6.55,4.41,8.54,6.95
						c-2.04-5.25-4.56-10.1-7.64-15.84c-0.21-0.38-0.65-1.36-0.38-2.21c0.13-0.4,0.4-0.7,0.77-0.88c0.66-0.32,1.34-0.04,1.57,0.04
						c0.9,0.35,1.73,0.88,2.48,1.57c1.08,0.99,2.07,2.15,2.95,3.4c-1.35-3.73-2.85-7.42-4.41-10.76c-0.23-0.5-0.71-1.53-0.16-2.43
						c0.53-0.87,1.69-1.01,2.51-0.65c0.46,0.2,2.15,1.04,2.71,1.49c3.04,2.42,4.92,8.3,5,8.55c0.12,0.39-0.09,0.82-0.49,0.94
						c-0.4,0.13-0.82-0.09-0.94-0.49c-0.02-0.06-1.83-5.7-4.51-7.83c-0.36-0.29-1.8-1.03-2.38-1.29c-0.25-0.11-0.55-0.06-0.62,0.06
						c-0.13,0.22,0.14,0.82,0.24,1.02c3.09,6.63,5.98,14.6,7.84,21.59c0.13,0.46,0.25,0.91,0.35,1.34c0.09,0.4-0.15,0.8-0.55,0.9
						c-0.4,0.1-0.8-0.14-0.9-0.54c-0.11-0.44-0.22-0.88-0.34-1.32c-1.17-4.11-3.63-9.5-7.3-12.85c-0.61-0.56-1.29-0.99-2.02-1.28
						c-0.29-0.11-0.38-0.09-0.38-0.09c-0.04,0.08,0.01,0.52,0.28,1.03c4.28,7.99,7.49,14.26,9.86,22.27
						c0.11,0.38-0.09,0.78-0.46,0.92c-0.37,0.14-0.78-0.04-0.94-0.4c-0.04-0.09-3.92-8.6-11.24-11.8c-0.04-0.02-0.08-0.03-0.12-0.04
						c0.19,1.25,2.44,4.89,3.22,6.15c0.32,0.51,0.58,0.94,0.75,1.24c2.58,4.49,6.72,11.89,6.76,11.96c0.2,0.36,0.07,0.82-0.29,1.02
						C339.23,127.23,339.1,127.26,338.98,127.26z M328.67,106.76L328.67,106.76L328.67,106.76z"/>
				</g>
				<g>
					<path class="st7" d="M348.44,381.56c-0.24,0-0.47-0.11-0.62-0.33c-4.66-6.82-7.48-8.84-12.39-11.56
						c-0.36-0.2-0.49-0.66-0.29-1.02c0.2-0.36,0.66-0.49,1.02-0.29c5.12,2.83,8.06,4.95,12.91,12.03c0.23,0.34,0.15,0.81-0.2,1.04
						C348.73,381.52,348.59,381.56,348.44,381.56z"/>
				</g>
				<g>
					<path class="st7" d="M116.67,546.34c-1.65,0-2.37-0.68-2.68-1.25c-0.66-1.22,0.17-2.6,0.44-3.06
						c3.95-6.55,10.5-10.78,16.83-14.87c2.79-1.8,5.67-3.67,8.29-5.7c0.79-0.61,1.53-2.09,1.45-2.88c-0.01-0.11-0.04-0.18-0.07-0.23
						c-5.41,0.9-10.93-0.3-16.1-1.73c-1.83-0.51-3.45-0.92-4.96-1.31c-4.43-1.14-7.93-2.03-13.01-4.27
						c-0.08-0.04-0.33-0.13-0.66-0.25c-1.6-0.6-2.53-0.98-2.89-1.22c-1.16-0.79-1.67-2.07-1.25-3.13c0.33-0.84,1.47-2.16,5.38-1.54
						c1.88,0.19,5.66,0.42,9.34,0.63c-0.4-0.23-0.84-0.46-1.28-0.7c-1.93-1.04-4.12-2.22-5.25-3.62c-0.9-1.11-1.74-2.39-1.2-3.44
						c0.47-0.91,1.71-1.23,4.12-1.08c0.3,0.02,0.54,0.12,0.74,0.2c0.06,0.02,0.11,0.05,0.17,0.07c0.1,0.03,9.64,2.93,16.59,4.34
						c-2.47-1.35-4.91-3.15-7.63-5.36c-1.54-1.24-3.63-3.2-4.06-5.87c-0.18-1.1,0.2-1.68,0.55-1.98c0.79-0.67,1.85-0.28,2.25-0.13
						c2.04,0.76,5.37,2.74,8.9,4.83c2.75,1.64,5.57,3.31,7.8,4.42c-0.16-0.21-0.33-0.42-0.49-0.62c-0.86-1.09-1.73-2.18-2.31-2.88
						c-0.82-0.99-1.53-4.13-0.37-5.29c0.21-0.22,0.53-0.28,0.82-0.17c1.67,0.68,3.19,1.66,4.65,2.61l0.11,0.07
						c1.27,0.82,2.56,1.75,3.92,2.74c5.15,3.72,10.97,7.94,18.77,8.6c9.46-4.99,36.58-18.01,41.05-19.59
						c4.62-1.63,16.9-9.85,26.77-16.46c7-4.69,12.54-8.39,14.14-8.97c22.94-8.29,39.42-24.79,56.86-42.25
						c13.17-13.18,26.78-26.81,43.38-36.45c0.36-0.21,0.82-0.09,1.03,0.27c0.21,0.36,0.09,0.82-0.27,1.03
						c-16.43,9.54-29.97,23.1-43.07,36.21c-16.79,16.81-34.15,34.19-57.41,42.6c-1.43,0.52-7.45,4.54-13.81,8.8
						c-9.94,6.65-22.32,14.93-27.11,16.62c-4.47,1.58-31.8,14.71-41.04,19.6c-0.12,0.07-0.26,0.1-0.41,0.08
						c-8.33-0.63-14.4-5.02-19.75-8.9c-1.35-0.98-2.62-1.9-3.86-2.7l-0.12-0.07c-1.2-0.78-2.44-1.58-3.73-2.19
						c-0.09,0.79,0.15,2.27,0.61,2.82c0.59,0.7,1.46,1.8,2.33,2.91c0.86,1.09,1.73,2.18,2.31,2.88c0.21,0.25,0.23,0.62,0.05,0.9
						c-0.18,0.28-0.54,0.41-0.86,0.31c-2.46-0.74-6.68-3.25-10.76-5.67c-3.47-2.06-6.74-4.01-8.66-4.72
						c-0.63-0.23-0.76-0.14-0.76-0.13c-0.03,0.02-0.1,0.18-0.04,0.59c0.27,1.64,1.38,3.21,3.52,4.94c4.66,3.77,8.45,6.32,12.94,7.37
						c0.38,0.09,0.63,0.46,0.57,0.85c-0.06,0.39-0.42,0.67-0.8,0.63l-1.92-0.16c-6.46-0.62-20.54-4.9-21.13-5.08
						c-0.11-0.04-0.21-0.08-0.3-0.12c-0.08-0.03-0.2-0.08-0.24-0.09c-2.37-0.15-2.69,0.27-2.69,0.28c0,0-0.12,0.38,1.04,1.81
						c0.94,1.16,2.99,2.27,4.79,3.24c1.27,0.68,2.38,1.28,3.06,1.87c5.39,0.34,5.64,0.59,5.86,0.81c0.22,0.22,0.28,0.55,0.15,0.84
						s-0.42,0.45-0.73,0.44c-1.01-0.06-2.3-0.13-3.71-0.21c-4.86-0.26-10.9-0.59-13.53-0.86c-0.01,0-0.09-0.01-0.1-0.01
						c-2.28-0.36-3.53,0.04-3.75,0.61c-0.15,0.39,0.15,0.97,0.7,1.34c0.28,0.19,1.95,0.82,2.57,1.06c0.36,0.14,0.63,0.24,0.73,0.28
						c4.96,2.19,8.41,3.07,12.78,4.19c1.52,0.39,3.15,0.81,4.99,1.32c5.1,1.42,10.55,2.59,15.76,1.64c0.16-0.03,0.32-0.01,0.46,0.06
						c0.6,0.29,0.96,0.84,1.04,1.54c0.15,1.44-0.94,3.38-2.02,4.22c-2.66,2.07-5.58,3.96-8.39,5.78c-6.19,4-12.58,8.13-16.36,14.39
						c-0.44,0.73-0.58,1.26-0.41,1.57c0.24,0.45,1.12,0.48,1.47,0.47c3.03-0.07,5.88-1.58,8.64-3.05c0.77-0.41,1.54-0.82,2.32-1.2
						c5.73-2.82,12.19-4.21,18.44-5.56c9.24-1.99,17.98-3.88,24.53-9.97c3.4-3.17,6.24-10.06,6.26-10.13
						c0.09-0.22,0.29-0.39,0.52-0.45l36.81-8.8c8.02-1.92,16.32-3.9,24.01-7.19c6.33-2.71,12.36-6.37,18.19-9.9
						c1.77-1.07,3.54-2.15,5.32-3.2c13.52-7.97,27.93-14.73,41.87-21.27l43.54-20.42c0.37-0.18,0.82-0.02,1,0.36
						c0.18,0.38,0.01,0.82-0.36,1l-43.54,20.42c-13.9,6.52-28.28,13.27-41.74,21.2c-1.77,1.05-3.54,2.12-5.3,3.18
						c-5.87,3.56-11.94,7.24-18.37,10c-7.81,3.35-16.17,5.34-24.25,7.27l-36.44,8.71c-0.65,1.51-3.26,7.31-6.48,10.3
						c-6.86,6.38-16.2,8.39-25.23,10.34c-6.16,1.33-12.52,2.7-18.09,5.44c-0.76,0.37-1.52,0.78-2.28,1.18
						c-2.91,1.55-5.93,3.15-9.31,3.22C116.76,546.34,116.72,546.34,116.67,546.34z"/>
				</g>
				<g>
					<path class="st7" d="M418.01,668.62c-0.16,0-0.32-0.05-0.45-0.15c-0.33-0.25-0.4-0.72-0.15-1.05
						c33.28-44.13,47.14-116.75,32.25-168.93c-0.04-0.14-0.04-0.28,0-0.42c0.04-0.12,3.6-12.59,4.4-26.96
						c0.68-12.23-0.08-25.41-2.27-39.18c-0.53-3.36-1.01-6.84-1.48-10.21c-1.31-9.52-2.67-19.36-5.43-28.44
						c-3.18-10.46-8.54-16.45-14.75-23.39c-6.68-7.46-14.24-15.93-21.61-32.1c-0.17-0.38,0-0.82,0.37-0.99
						c0.38-0.17,0.82,0,0.99,0.37c7.28,15.96,14.76,24.33,21.37,31.72c6.32,7.07,11.78,13.17,15.06,23.95
						c2.8,9.19,4.16,19.09,5.48,28.67c0.46,3.36,0.94,6.83,1.47,10.18c2.2,13.87,2.96,27.16,2.28,39.49
						c-0.75,13.52-3.92,25.37-4.4,27.08c14.92,52.57,0.95,125.63-32.55,170.04C418.47,668.52,418.24,668.62,418.01,668.62z"/>
				</g>
				<g>
					<path class="st7" d="M243.61,910.12c-0.03,0-0.05,0-0.08,0c-2.8-0.02-5.04-0.87-6.66-2.54c-2.92-3.01,0.13-7.27,1.14-8.67
						c1.53-2.14,3.24-4.17,4.89-6.13c1.75-2.08,3.57-4.24,5.16-6.51c5.02-7.16,8.63-14.53,11.06-22.5c1.25-4.11,2.04-8.43,2.81-12.6
						c0.75-4.07,1.52-8.28,2.72-12.32c1.12-3.76,3.73-9.13,7.42-11.9c1.37-1.03,2.81-1.45,4.16-1.23c1.31,0.22,2.49,1.03,3.44,2.36
						c14.4-22.85,26.22-47.35,35.16-72.83c0.48-1.38,0.96-2.75,1.43-4.14c3-8.73,6.11-17.75,11.19-25.64
						c4.32-6.7,10.51-12.46,16.5-18.03c5.57-5.18,11.32-10.53,15.47-16.57c0.23-0.34,0.7-0.43,1.04-0.19
						c0.34,0.23,0.43,0.7,0.19,1.04c-4.24,6.17-10.06,11.58-15.68,16.81c-5.92,5.5-12.04,11.2-16.26,17.74
						c-4.98,7.73-8.06,16.67-11.03,25.32c-0.48,1.38-0.95,2.77-1.43,4.14c-9.21,26.27-21.48,51.5-36.46,74.96
						c-0.18,0.28-0.52,0.41-0.84,0.32c-0.32-0.09-0.54-0.39-0.54-0.72v-1.42c-0.7-0.96-1.53-1.54-2.41-1.68
						c-0.96-0.16-1.96,0.16-3.01,0.95c-3.4,2.55-5.83,7.59-6.88,11.12c-1.18,3.97-1.94,8.14-2.69,12.17
						c-0.78,4.21-1.58,8.57-2.85,12.76c-2.47,8.13-6.16,15.63-11.27,22.93c-1.63,2.33-3.46,4.51-5.24,6.62
						c-1.63,1.94-3.32,3.95-4.82,6.04c-2.3,3.21-2.7,5.29-1.28,6.75c1.33,1.37,3.21,2.07,5.59,2.08c0.03,0,0.05,0,0.08,0
						c10.36,0,27.14-12.45,32.09-17.43c10.19-10.24,16.91-23.43,23.42-36.18c1.07-2.1,2.13-4.19,3.21-6.26
						c8.73-16.77,21.26-31.33,33.37-45.41c4.73-5.5,9.63-11.19,14.2-16.9c11.01-13.76,22.85-30.42,27.16-49.74
						c0.09-0.41,0.5-0.65,0.9-0.57c0.4,0.09,0.66,0.49,0.57,0.9c-4.38,19.62-16.34,36.46-27.46,50.35
						c-4.59,5.74-9.5,11.43-14.24,16.94c-12.06,14.01-24.54,28.5-33.18,45.12c-1.08,2.07-2.14,4.16-3.21,6.25
						c-6.56,12.86-13.33,26.15-23.69,36.56C271.7,897.35,254.42,910.12,243.61,910.12z"/>
				</g>
				<g>
					<path class="st7" d="M375.23,964.94c-3.25,0-6.62-0.55-9.71-2.11c-0.8-0.4-1.79-0.98-2.43-1.89c-2.53-3.6,2.48-7.19,5.17-9.12
						c9.51-6.82,20.1-16.84,29.44-25.68c2.76-2.61,5.41-5.12,7.9-7.42c3.84-3.55,5.37-6.52,6.06-11.76
						c-1.31-21.16-6.99-46.02-12.48-70.06c-6.26-27.42-12.74-55.77-13.15-79.82c-4.04-6.67-6.82-14.24-9.51-21.56
						c-0.92-2.5-1.87-5.07-2.84-7.54l-13.29-33.71c-2.1-5.33-4.24-10.66-6.37-15.99c-5.62-14.02-11.43-28.52-16.56-42.98
						c-5.43-15.33-11.64-35.65-11.42-56.98c0.14-13.49,2.86-33.05,15.04-49.6c2.6-3.53,5.79-7.23,9.18-11.15
						c14.64-16.95,31.24-36.17,12.7-55.49c-1.27-1.32-2.68-2.56-4.05-3.75c-1.49-1.31-3.04-2.66-4.43-4.14
						c-1.97-2.1-3.63-4.48-5.24-6.79c-1.04-1.49-2.11-3.03-3.25-4.46c-3.44-4.34-7.07-6.92-10.78-7.68
						c-0.41-0.08-0.67-0.48-0.58-0.88c0.08-0.41,0.48-0.67,0.88-0.58c4.07,0.83,7.99,3.6,11.66,8.22c1.17,1.47,2.25,3.03,3.3,4.53
						c1.58,2.26,3.21,4.59,5.1,6.62c1.34,1.43,2.85,2.76,4.32,4.04c1.39,1.22,2.83,2.48,4.14,3.84
						c19.49,20.31,1.67,40.94-12.65,57.51c-3.36,3.89-6.54,7.57-9.11,11.06c-11.95,16.23-14.62,35.45-14.75,48.73
						c-0.22,21.1,5.95,41.26,11.34,56.47c5.12,14.44,10.92,28.92,16.54,42.93c2.14,5.33,4.27,10.66,6.38,16l13.29,33.71
						c0.98,2.49,1.93,5.07,2.85,7.58c2.69,7.32,5.47,14.88,9.49,21.47c0.07,0.11,0.11,0.25,0.11,0.38
						c0.37,23.95,6.85,52.3,13.12,79.72c5.51,24.13,11.21,49.08,12.52,70.37c0,0.05,0,0.09,0,0.14c-0.73,5.61-2.44,8.94-6.54,12.74
						c-2.48,2.29-5.13,4.8-7.88,7.41c-9.38,8.88-20.01,18.94-29.6,25.81c-3.37,2.42-6.28,4.94-4.81,7.04
						c0.44,0.63,1.24,1.08,1.88,1.41c7.04,3.56,15.87,1.47,20.51-0.09c2.93-0.98,5.8-2.22,8.59-3.42c3.63-1.56,7.38-3.18,11.33-4.27
						c5.78-1.6,11.98-2.08,17.97-2.54c7.88-0.61,16.04-1.25,22.97-4.47c2.16-1,3.59-2.01,4.5-3.19c3.76-4.82,2.74-12.2-3.03-21.95
						l-1.12-1.91c-0.03-0.04-0.05-0.09-0.06-0.13c-9.67-27.54-9.95-51.92-10.23-75.5c-0.29-24.68-0.58-50.19-11.94-78.83l-0.39-0.72
						c-0.05-0.09-0.08-0.19-0.08-0.29l-10.12-122.35c-1.18-14.31-2.41-29.11-4.86-43.48c-3.2-18.78-8.55-37.33-15.9-55.14
						c-0.16-0.38,0.02-0.82,0.41-0.98c0.38-0.16,0.82,0.02,0.98,0.41c7.39,17.91,12.77,36.57,15.99,55.46
						c2.46,14.44,3.69,29.27,4.87,43.61l10.11,122.2l0.35,0.66c11.49,28.97,11.79,54.63,12.08,79.44
						c0.27,23.44,0.55,47.67,10.12,74.95l1.09,1.84c6.12,10.33,7.1,18.28,2.93,23.63c-1.07,1.37-2.67,2.52-5.06,3.62
						c-7.18,3.34-15.47,3.98-23.49,4.6c-5.92,0.46-12.05,0.94-17.69,2.49c-3.85,1.07-7.56,2.66-11.14,4.2
						c-2.81,1.21-5.71,2.46-8.7,3.46C384.32,963.79,379.91,964.94,375.23,964.94z"/>
				</g>
				<g>
					<path class="st7" d="M402.31,561.56c-0.03,0-0.05,0-0.08,0c-0.41-0.04-0.71-0.41-0.67-0.83c0.39-3.68,1.75-7.21,3.95-10.2
						c0.25-0.33,0.71-0.41,1.05-0.16c0.33,0.25,0.41,0.71,0.16,1.05c-2.04,2.77-3.3,6.05-3.67,9.47
						C403.01,561.27,402.69,561.56,402.31,561.56z"/>
				</g>
			</g>
			<g id="Face_00000056385593307271317400000003716840797453890965_">
				<g>
					<path class="st7" d="M336.75,327.33c-0.3,0-0.58-0.18-0.7-0.47c-0.15-0.38,0.04-0.82,0.42-0.97c0.8-0.32,3.04-1.49,2.92-2.71
						c-0.12-1.31-0.61-2.15-1-2.83c-0.26-0.45-0.49-0.84-0.56-1.27c-0.74-4.7-2.27-8.82-4.31-11.62c-2.4-3.29-5.83-5.03-8.75-4.41
						c-2.9,0.61-5.57,4.21-4.83,8.13c0.08,0.41-0.19,0.8-0.6,0.88c-0.4,0.08-0.8-0.19-0.88-0.6c-0.84-4.41,1.95-9.03,5.99-9.88
						c3.49-0.74,7.53,1.23,10.27,5c2.18,2.99,3.8,7.35,4.58,12.27c0.02,0.16,0.19,0.45,0.37,0.75c0.44,0.76,1.05,1.8,1.2,3.44
						c0.24,2.55-3.45,4.08-3.87,4.25C336.94,327.31,336.84,327.33,336.75,327.33z"/>
				</g>
				<g>
					<path class="st7" d="M334.09,321.47c-0.06,0-0.12,0-0.18-0.01c-0.76-0.1-2.55-1.6-2.82-1.88c-0.42-0.44-0.6-1.01-0.75-1.52
						l-0.03-0.11c-0.35-1.16-0.4-2.57-0.45-3.94c-0.05-1.54-0.11-3.12-0.59-4.28c-0.71-1.7-2.8-2.71-4.56-2.19
						c-0.27,0.08-0.54-0.08-0.62-0.34c-0.08-0.27,0.08-0.54,0.34-0.62c2.23-0.65,4.88,0.62,5.77,2.77c0.55,1.32,0.61,3,0.66,4.63
						c0.05,1.36,0.09,2.65,0.4,3.68l0.03,0.11c0.13,0.44,0.25,0.85,0.51,1.11c0.41,0.42,1.88,1.52,2.24,1.58
						c0.46-0.32-0.1-3.15-1.31-6c-0.11-0.25,0.01-0.55,0.27-0.66c0.25-0.1,0.55,0.01,0.66,0.27c0.1,0.23,2.34,5.58,1.26,6.99
						C334.72,321.33,334.43,321.47,334.09,321.47z"/>
				</g>
				<g>
					<path class="st7" d="M309.59,338.13c-0.15,0-0.3-0.07-0.4-0.2c-0.16-0.22-0.12-0.54,0.11-0.7l0.12-0.09
						c4.31-3.17,7.17-5.27,9.14-10.98c0.09-0.26,0.38-0.4,0.64-0.31c0.26,0.09,0.4,0.38,0.31,0.64c-2.08,6-5.19,8.29-9.49,11.46
						l-0.12,0.09C309.79,338.1,309.69,338.13,309.59,338.13z"/>
				</g>
				<g>
					<path class="st7" d="M291.09,351.16c-0.19,0-0.37-0.11-0.46-0.29c-0.11-0.25,0-0.55,0.25-0.66c5.18-2.33,6.5-3.46,9.66-6.2
						l0.94-0.81c0.21-0.18,0.53-0.16,0.71,0.05c0.18,0.21,0.16,0.53-0.05,0.71l-0.94,0.81c-3.15,2.72-4.59,3.97-9.91,6.36
						C291.23,351.14,291.16,351.16,291.09,351.16z"/>
				</g>
				<g>
					<path class="st7" d="M306.11,330.14c-0.12,0-0.24-0.04-0.34-0.13c-0.2-0.19-0.22-0.5-0.03-0.71
						c3.62-3.96,7.88-7.45,12.68-10.37c0.23-0.14,0.54-0.07,0.69,0.17c0.14,0.24,0.07,0.54-0.17,0.69
						c-4.72,2.87-8.91,6.3-12.46,10.19C306.38,330.08,306.25,330.14,306.11,330.14z"/>
				</g>
				<g>
					<path class="st7" d="M282.26,345.31c-0.15,0-0.3-0.07-0.4-0.2c-0.17-0.22-0.12-0.54,0.1-0.7c5.15-3.82,8.96-5.91,14.56-8.02
						c0.26-0.1,0.55,0.03,0.64,0.29c0.1,0.26-0.03,0.55-0.29,0.64c-5.5,2.07-9.25,4.14-14.32,7.89
						C282.46,345.28,282.36,345.31,282.26,345.31z"/>
				</g>
				<g>
					<path class="st7" d="M315.07,354.16c-0.39,0-0.75-0.12-1.07-0.37c-0.12-0.09-0.19-0.23-0.2-0.38c-0.07-1.9-3.02-6.83-4.51-8.82
						c-0.17-0.22-0.12-0.54,0.1-0.7c0.22-0.17,0.53-0.12,0.7,0.1c1.13,1.52,4.38,6.56,4.69,9.11c0.13,0.06,0.27,0.07,0.42,0.05
						c0.72-0.1,1.54-1,1.79-1.34c0.17-0.22,0.48-0.27,0.7-0.1c0.22,0.17,0.27,0.48,0.1,0.7c-0.12,0.16-1.18,1.55-2.45,1.74
						C315.25,354.16,315.16,354.16,315.07,354.16z"/>
				</g>
				<g>
					<path class="st7" d="M316.38,364.14c-0.1,0-0.19-0.01-0.29-0.02c-0.27-0.04-0.46-0.29-0.42-0.57c0.04-0.27,0.3-0.45,0.57-0.42
						c0.93,0.13,1.65-1.02,1.86-1.38l0.23-0.41c0.44-0.79,0.94-1.68,1.85-2.13c0.39-0.19,0.78-0.27,1.17-0.34
						c0.37-0.07,0.71-0.14,0.99-0.29c0.63-0.35,1.06-0.84,1.16-1.31c0.45-2.14,1.98-2.89,3.33-3.54c0.63-0.3,1.22-0.59,1.71-1
						c0.21-0.17,0.53-0.14,0.7,0.07c0.17,0.21,0.14,0.53-0.07,0.7c-0.59,0.48-1.26,0.81-1.91,1.13c-1.31,0.64-2.44,1.19-2.79,2.85
						c-0.16,0.76-0.76,1.48-1.65,1.98c-0.42,0.23-0.86,0.32-1.29,0.4c-0.34,0.07-0.66,0.13-0.92,0.26
						c-0.63,0.31-1.01,0.99-1.41,1.72l-0.24,0.43C318.25,363.47,317.32,364.14,316.38,364.14z"/>
				</g>
				<g>
					<path class="st7" d="M322.84,365.17c-0.2,0-0.39-0.12-0.47-0.33c-0.1-0.26,0.04-0.55,0.29-0.64c1.79-0.67,3.45-1.75,4.8-3.11
						c0.19-0.2,0.51-0.2,0.71-0.01s0.2,0.51,0.01,0.71c-1.45,1.47-3.23,2.63-5.16,3.35C322.96,365.16,322.9,365.17,322.84,365.17z"
						/>
				</g>
			</g>
			<g id="Line_00000070819803245992174370000004341587327194905255_">
				<g>
					<path class="st7" d="M337.49,398.19c-0.22,0-0.43-0.15-0.48-0.38c-0.07-0.27,0.09-0.54,0.36-0.61
						c10.02-2.54,15.71-4.7,19.47-6.13c6.68-2.54,7.35-2.64,13.99,1.58c0.23,0.15,0.3,0.46,0.15,0.69c-0.15,0.23-0.46,0.3-0.69,0.15
						c-6.38-4.05-6.63-3.95-13.1-1.49c-3.78,1.44-9.5,3.61-19.58,6.16C337.57,398.19,337.53,398.19,337.49,398.19z"/>
				</g>
				<g>
					<path class="st7" d="M383.23,380.69c-0.2,0-0.38-0.12-0.46-0.31c-2.95-7.29-2.74-7.93,0.96-14.05
						c2.08-3.44,5.24-8.64,9.54-18.04c0.12-0.25,0.42-0.36,0.66-0.25c0.25,0.12,0.36,0.41,0.25,0.66
						c-4.33,9.45-7.5,14.68-9.59,18.14c-3.59,5.92-3.73,6.15-0.89,13.15c0.1,0.26-0.02,0.55-0.28,0.65
						C383.35,380.68,383.29,380.69,383.23,380.69z"/>
				</g>
				<g>
					<path class="st7" d="M417.97,495.11c-0.17,0-0.34-0.09-0.44-0.26c-1.57-2.81-0.21-9.34,0.24-11.27
						c0.06-0.27,0.33-0.44,0.6-0.37c0.27,0.06,0.44,0.33,0.37,0.6c-0.85,3.63-1.45,8.57-0.34,10.55c0.13,0.24,0.05,0.54-0.19,0.68
						C418.14,495.09,418.06,495.11,417.97,495.11z"/>
				</g>
				<g>
					<path class="st7" d="M406.82,760.29c-2.76,0-5.54-0.47-8.18-1.4c-0.26-0.09-0.4-0.38-0.3-0.64c0.09-0.26,0.38-0.4,0.64-0.3
						c4.88,1.73,10.24,1.8,15.07,0.19c0.26-0.08,0.54,0.06,0.63,0.32c0.09,0.26-0.05,0.55-0.32,0.63
						C411.93,759.89,409.38,760.29,406.82,760.29z"/>
				</g>
				<g>
					<path class="st7" d="M422.68,917.32c-0.24,0-0.45-0.18-0.49-0.42c-0.04-0.27,0.14-0.53,0.42-0.57
						c5.35-0.84,10.34-2.72,14.42-5.44c0.23-0.15,0.54-0.09,0.69,0.14c0.15,0.23,0.09,0.54-0.14,0.69
						c-4.2,2.79-9.32,4.73-14.82,5.59C422.73,917.32,422.7,917.32,422.68,917.32z"/>
				</g>
				<g>
					<path class="st7" d="M286.88,844.92c-0.28,0-0.5-0.22-0.5-0.5c0-1.03,1.33-9.54,3.02-13.26c0.12-0.25,0.41-0.36,0.66-0.25
						c0.25,0.12,0.36,0.41,0.25,0.66c-1.61,3.52-2.93,11.88-2.93,12.84C287.38,844.7,287.16,844.92,286.88,844.92z"/>
				</g>
				<g>
					<path class="st7" d="M368.88,749.65c-0.09,0-0.17-0.02-0.25-0.07l-1.22-0.72c-5.41-3.19-6.87-4.05-11.66-10.46
						c-0.17-0.22-0.12-0.54,0.1-0.7c0.22-0.17,0.53-0.12,0.7,0.1c4.67,6.24,6.09,7.08,11.37,10.2l1.22,0.72
						c0.24,0.14,0.32,0.45,0.17,0.68C369.22,749.56,369.05,749.65,368.88,749.65z"/>
				</g>
			</g>
		</g>
		<g id="Hair_line_00000134929044293271343710000000708739318537045915_">
			<g>
				<path class="st7" d="M282.66,363.79c-0.19,0-0.39-0.07-0.53-0.22c-7.33-7.41-10.5-21.4-9.33-30.64c0.05-0.41,0.42-0.7,0.84-0.65
					c0.41,0.05,0.7,0.43,0.65,0.84c-1.1,8.69,1.99,22.4,8.91,29.4c0.29,0.29,0.29,0.77-0.01,1.06
					C283.04,363.72,282.85,363.79,282.66,363.79z"/>
			</g>
			<g>
				<path class="st7" d="M274.64,329.71c-0.07,0-0.13-0.01-0.2-0.03c-0.4-0.11-0.63-0.53-0.52-0.92c0.85-3.04,2.13-5.95,3.38-8.75
					c1.04-2.36,2.12-4.79,2.92-7.27c0.13-0.39,0.55-0.61,0.94-0.48c0.39,0.13,0.61,0.55,0.48,0.94c-0.82,2.55-1.92,5.02-2.97,7.41
					c-1.22,2.76-2.48,5.61-3.3,8.55C275.27,329.49,274.97,329.71,274.64,329.71z"/>
			</g>
			<g>
				<path class="st7" d="M346.06,315.4c-0.09,0-0.19-0.01-0.28-0.02c-0.5-0.08-0.88-0.38-1.18-0.67c-1.7-1.6-2.63-3.73-3.53-5.79
					c-0.2-0.45-0.4-0.91-0.6-1.35c-1.39-3.01-3.01-6.06-5.47-7.98c-5.71-4.45-13.98-4.26-18.83,0.42c-1.63,1.57-3.03,3.66-4.38,5.68
					c-2.69,4.01-5.47,8.16-10.26,8.59c-2.52,0.23-4.96-0.71-7.32-1.62c-0.79-0.3-1.58-0.61-2.38-0.87
					c-2.79-0.91-6.34-1.04-7.89,1.32c-0.23,0.35-0.69,0.44-1.04,0.21c-0.35-0.23-0.44-0.69-0.21-1.04c1.71-2.6,5.3-3.32,9.61-1.92
					c0.82,0.27,1.65,0.58,2.45,0.89c2.3,0.88,4.47,1.72,6.65,1.52c4.08-0.37,6.54-4.04,9.15-7.93c1.4-2.08,2.84-4.24,4.59-5.92
					c5.38-5.19,14.51-5.41,20.79-0.52c2.72,2.12,4.45,5.36,5.92,8.54c0.21,0.46,0.41,0.92,0.61,1.38c0.88,2.01,1.7,3.91,3.18,5.29
					c0.08,0.07,0.28,0.26,0.4,0.28c0.06,0.01,0.18,0,0.43-0.12c0.59-0.27,1.15-0.68,1.75-1.12c1.18-0.86,2.52-1.84,4.18-1.6
					c0.41,0.06,0.69,0.44,0.63,0.85c-0.06,0.41-0.44,0.68-0.85,0.63c-1.04-0.16-1.98,0.53-3.07,1.32c-0.63,0.46-1.28,0.93-2,1.27
					C346.83,315.25,346.47,315.4,346.06,315.4z"/>
			</g>
		</g>
	</g>
</g>
<g id="Guide">
</g>
</svg>
