<?xml version="1.0" encoding="utf-8"?>
<!-- Generator: Adobe Illustrator 26.1.0, SVG Export Plug-In . SVG Version: 6.00 Build 0)  -->
<svg version="1.1" xmlns="http://www.w3.org/2000/svg" xmlns:xlink="http://www.w3.org/1999/xlink" x="0px" y="0px"
	 viewBox="0 0 478.38 606.26" style="enable-background:new 0 0 478.38 606.26;" xml:space="preserve">
<style type="text/css">
	.st0{fill:#FFFFFF;stroke:#000000;stroke-miterlimit:10;}
	.st1{fill:#BFA071;stroke:#554B4E;stroke-width:1.5;stroke-linecap:round;stroke-linejoin:round;stroke-miterlimit:10;}
	.st2{fill:#BFA071;stroke:#554B4E;stroke-linecap:round;stroke-linejoin:round;stroke-miterlimit:10;}
	.st3{fill:#F8F4E9;stroke:#554B4E;stroke-width:1.5;stroke-linecap:round;stroke-linejoin:round;stroke-miterlimit:10;}
	.st4{fill:#F2DED6;stroke:#554B4E;stroke-width:1.5;stroke-linecap:round;stroke-linejoin:round;stroke-miterlimit:10;}
	.st5{fill:none;stroke:#554B4E;stroke-linecap:round;stroke-linejoin:round;stroke-miterlimit:10;}
	.st6{fill:#BFA071;}
	.st7{fill:#554B4E;}
	.st8{fill:#F8F4E9;}
	.st9{fill:none;stroke:#554B4E;stroke-width:1.5;stroke-linecap:round;stroke-linejoin:round;stroke-miterlimit:10;}
	.st10{fill:#F8F4E9;stroke:#554B4E;stroke-linecap:round;stroke-linejoin:round;stroke-miterlimit:10;}
	.st11{fill:#F2DED6;stroke:#554B4E;stroke-linecap:round;stroke-linejoin:round;stroke-miterlimit:10;}
	.st12{clip-path:url(#SVGID_00000047023689082819423560000010367492943881671614_);}
	.st13{fill:none;stroke:#BFA071;stroke-width:1.5;stroke-linecap:round;stroke-linejoin:round;}
	.st14{fill:none;stroke:#BFA071;stroke-width:1.5;stroke-linecap:round;stroke-linejoin:round;stroke-dasharray:68.8403,19.6687;}
	.st15{fill:none;stroke:#BFA071;stroke-width:1.5;stroke-linecap:round;stroke-linejoin:round;stroke-dasharray:71.4455,20.413;}
	.st16{fill:none;stroke:#BFA071;stroke-width:1.5;stroke-linecap:round;stroke-linejoin:round;stroke-dasharray:69.5884,19.8824;}
	.st17{fill:none;stroke:#BFA071;stroke-width:1.5;stroke-linecap:round;stroke-linejoin:round;stroke-dasharray:61.3524,17.5292;}
	.st18{fill:none;stroke:#BFA071;stroke-width:1.5;stroke-linecap:round;stroke-linejoin:round;stroke-dasharray:63.9932,18.2838;}
	.st19{fill:none;stroke:#BFA071;stroke-width:1.5;stroke-linecap:round;stroke-linejoin:round;stroke-dasharray:72.7778,20.7937;}
	.st20{fill:none;stroke:#BFA071;stroke-width:1.5;stroke-linecap:round;stroke-linejoin:round;stroke-dasharray:77.193,22.0551;}
	.st21{fill:none;stroke:#BFA071;stroke-width:1.5;stroke-linecap:round;stroke-linejoin:round;stroke-dasharray:75.3802,21.5372;}
	.st22{fill:none;stroke:#BFA071;stroke-width:1.5;stroke-linecap:round;stroke-linejoin:round;stroke-dasharray:73.6885,21.0538;}
	.st23{fill:none;stroke:#BFA071;stroke-width:1.5;stroke-linecap:round;stroke-linejoin:round;stroke-dasharray:63.3162,18.0903;}
	.st24{fill:none;stroke:#BFA071;stroke-width:1.5;stroke-linecap:round;stroke-linejoin:round;stroke-dasharray:62.0513,17.7289;}
	.st25{fill:none;stroke:#BFA071;stroke-width:1.5;stroke-linecap:round;stroke-linejoin:round;stroke-dasharray:68.9157,19.6902;}
	.st26{fill:none;stroke:#554B4E;stroke-width:1.5;stroke-linecap:round;stroke-linejoin:round;}
	.st27{fill:none;stroke:#554B4E;stroke-width:1.5;stroke-linecap:round;stroke-linejoin:round;stroke-dasharray:15.0532,10.0355;}
	.st28{fill:none;stroke:#554B4E;stroke-width:1.5;stroke-linecap:round;stroke-linejoin:round;stroke-dasharray:14.9985,9.999;}
	.st29{fill:none;stroke:#554B4E;stroke-width:1.5;stroke-linecap:round;stroke-linejoin:round;stroke-dasharray:14.8977,9.9318;}
	.st30{fill:none;stroke:#554B4E;stroke-width:1.5;stroke-linecap:round;stroke-linejoin:round;stroke-dasharray:15.4213,10.2808;}
	.st31{fill:none;stroke:#554B4E;stroke-width:1.5;stroke-linecap:round;stroke-linejoin:round;stroke-dasharray:15.2271,10.1514;}
	.st32{fill:none;stroke:#554B4E;stroke-width:1.5;stroke-linecap:round;stroke-linejoin:round;stroke-dasharray:15.021,10.014;}
	.st33{fill:none;stroke:#554B4E;stroke-width:1.5;stroke-linecap:round;stroke-linejoin:round;stroke-dasharray:15.0727,10.0485;}
	.st34{fill:none;stroke:#554B4E;stroke-width:1.5;stroke-linecap:round;stroke-linejoin:round;stroke-dasharray:14.6942,9.7961;}
	.st35{fill:none;stroke:#554B4E;stroke-width:1.5;stroke-linecap:round;stroke-linejoin:round;stroke-dasharray:14.7469,9.8312;}
	.st36{fill:none;stroke:#554B4E;stroke-width:1.5;stroke-linecap:round;stroke-linejoin:round;stroke-dasharray:15.0819,10.0546;}
	.st37{fill:none;stroke:#554B4E;stroke-width:1.5;stroke-linecap:round;stroke-linejoin:round;stroke-dasharray:15.003,10.002;}
	.st38{fill:#F2DED6;}
	.st39{fill:#F2DED6;stroke:#554B4E;stroke-width:1.5;stroke-linecap:round;stroke-miterlimit:10;}
	.st40{fill:none;stroke:#554B4E;stroke-width:1.5;stroke-linecap:round;stroke-miterlimit:10;}
	.st41{fill:none;stroke:#554B4E;stroke-linecap:round;stroke-miterlimit:10;}
	.st42{fill:none;stroke:#BFA071;stroke-linecap:round;stroke-linejoin:round;}
	.st43{fill:none;stroke:#BFA071;stroke-linecap:round;stroke-linejoin:round;stroke-dasharray:14.9905,14.9905;}
	.st44{fill:none;stroke:#BFA071;stroke-linecap:round;stroke-linejoin:round;stroke-dasharray:51.384,34.256;}
	.st45{fill:none;stroke:#554B4E;stroke-miterlimit:10;}
	.st46{clip-path:url(#SVGID_00000145043141045664179810000010794443715363787199_);}
	.st47{fill:none;stroke:#554B4E;stroke-width:1.5;stroke-linecap:round;stroke-linejoin:round;stroke-dasharray:68.8403,19.6687;}
	.st48{fill:none;stroke:#554B4E;stroke-width:1.5;stroke-linecap:round;stroke-linejoin:round;stroke-dasharray:71.4455,20.413;}
	.st49{fill:none;stroke:#554B4E;stroke-width:1.5;stroke-linecap:round;stroke-linejoin:round;stroke-dasharray:69.5884,19.8824;}
	.st50{fill:none;stroke:#554B4E;stroke-width:1.5;stroke-linecap:round;stroke-linejoin:round;stroke-dasharray:61.3524,17.5292;}
	.st51{fill:none;stroke:#554B4E;stroke-width:1.5;stroke-linecap:round;stroke-linejoin:round;stroke-dasharray:63.9932,18.2838;}
	.st52{fill:none;stroke:#554B4E;stroke-width:1.5;stroke-linecap:round;stroke-linejoin:round;stroke-dasharray:72.7778,20.7937;}
	.st53{fill:none;stroke:#554B4E;stroke-width:1.5;stroke-linecap:round;stroke-linejoin:round;stroke-dasharray:77.193,22.0551;}
	.st54{fill:none;stroke:#554B4E;stroke-width:1.5;stroke-linecap:round;stroke-linejoin:round;stroke-dasharray:75.3802,21.5372;}
	.st55{fill:none;stroke:#554B4E;stroke-width:1.5;stroke-linecap:round;stroke-linejoin:round;stroke-dasharray:73.6885,21.0538;}
	.st56{fill:none;stroke:#554B4E;stroke-width:1.5;stroke-linecap:round;stroke-linejoin:round;stroke-dasharray:63.3162,18.0903;}
	.st57{fill:none;stroke:#554B4E;stroke-width:1.5;stroke-linecap:round;stroke-linejoin:round;stroke-dasharray:62.0513,17.7289;}
	.st58{fill:none;stroke:#554B4E;stroke-width:1.5;stroke-linecap:round;stroke-linejoin:round;stroke-dasharray:68.9157,19.6902;}
	.st59{fill:none;stroke:#554B4E;stroke-linecap:round;stroke-linejoin:round;}
	.st60{fill:none;stroke:#554B4E;stroke-linecap:round;stroke-linejoin:round;stroke-dasharray:14.9905,14.9905;}
	.st61{fill:none;stroke:#554B4E;stroke-linecap:round;stroke-linejoin:round;stroke-dasharray:51.384,34.256;}
	.st62{fill:#95608F;}
	.st63{fill:#ED859E;}
	.st64{fill:#FAC87D;}
	.st65{opacity:0.1;}
	.st66{fill:#B5846F;}
	.st67{fill:#B5846F;stroke:#B5846F;stroke-width:5;stroke-linecap:round;stroke-linejoin:round;stroke-miterlimit:10;}
	.st68{fill:#EAD9EB;}
	.st69{fill:#FFFFFF;}
	.st70{fill:url(#SVGID_00000080911619086073017730000016566415974249919881_);}
	.st71{opacity:0.8;fill:#FFFFFF;}
	.st72{fill:url(#SVGID_00000116933198716852473200000002106657084206431105_);}
	.st73{fill:url(#SVGID_00000005968267377818855970000005528201391026644376_);}
	.st74{opacity:0.8;}
	.st75{opacity:0.6;}
	.st76{opacity:0.2;}
	.st77{fill:none;}
	.st78{fill:url(#SVGID_00000174569702686550603470000017442996375959078295_);}
	.st79{fill:url(#SVGID_00000020399454754391442570000016026774484320277660_);}
	.st80{clip-path:url(#SVGID_00000020356739978079776650000001719661894063368584_);fill:#FFFFFF;}
	.st81{clip-path:url(#SVGID_00000147178422613434605290000001045022191345815485_);fill:#FFFFFF;}
	.st82{clip-path:url(#SVGID_00000130645715999115614010000001613843623016930448_);fill:#FFFFFF;}
	.st83{clip-path:url(#SVGID_00000037668703222168768200000007556324994067196579_);fill:#FFFFFF;}
	.st84{clip-path:url(#SVGID_00000131368852459461479760000016025346544294346626_);fill:#FFFFFF;}
</style>
<g id="Bg">
</g>
<g id="Graphic">
	<g id="Candle_00000180365036495014198390000000016132516260915889_">
		<g id="Stroke_00000032614586796966683550000005624943388567941025_">
			<path class="st7" d="M238.14,606.26c-7.06,0-14.12-0.43-21.04-1.31c-16.9-2.13-34.49-5.55-48.59-16.08l-0.62-0.46
				c-5.99-4.46-13.44-10.01-15.1-18.34c-1.62-8.12,1.35-18.31,7.39-25.36c1.46-1.71,3.17-3.41,5.08-5.05l0.11-0.11
				c6.62-6.02,14.27-9.29,21.68-12.45c12.22-5.22,22.77-9.73,24.04-25.26l0.02-0.12c0.09-0.37,0.2-0.75,0.33-1.13
				c0.1-0.31,0.22-0.62,0.34-0.92l0.07-0.2c0.96-2.34,2.35-4.23,3.95-5.39c-0.1-0.27-0.2-0.54-0.3-0.81l-0.1-0.29
				c-0.18-0.53-0.34-1.02-0.49-1.51c-0.15-0.51-0.29-1.02-0.43-1.53l-0.09-0.35c-0.13-0.53-0.26-1.06-0.37-1.6
				c-0.11-0.54-0.21-1.08-0.31-1.63l-0.06-0.33c-0.18-1.12-0.32-2.26-0.4-3.38l-0.02-0.29c-0.08-1.17-0.1-2.32-0.05-3.44l0.01-0.25
				c0.05-1.16,0.17-2.3,0.36-3.37l0.04-0.21c0.21-1.12,0.49-2.2,0.84-3.19l0.07-0.18c0.38-1.03,0.85-2,1.4-2.88l0.1-0.17
				c0.31-0.48,0.62-0.91,0.94-1.3c0.48-0.58,1-1.11,1.56-1.58c0.3-0.25,0.59-0.47,0.89-0.68l0.08-0.05
				c0.27-0.19,0.57-0.38,0.89-0.56l0.11-0.06c0.34-0.18,0.63-0.34,0.94-0.48c0.07-0.03,0.14-0.06,0.22-0.09l0.21-0.09
				c0.23-0.1,0.46-0.19,0.7-0.28c0.13-0.04,0.26-0.08,0.4-0.12l0.38-0.12c0.14-0.04,0.28-0.09,0.43-0.13
				c0.24-0.06,0.48-0.12,0.72-0.17c0-0.03,0-0.06,0-0.09l0-0.19c0-0.14-0.01-0.28-0.02-0.42l-0.02-0.19
				c-0.02-0.15-0.04-0.29-0.07-0.44l0.71-0.3l-0.73,0.17c-0.04-0.19-0.1-0.38-0.16-0.57c-0.07-0.21-0.14-0.38-0.21-0.55l0.63-0.43
				l-0.68,0.31c-0.07-0.15-0.14-0.31-0.22-0.46l0.61-0.45l-0.66,0.36c-0.74-1.36-1.9-2.63-3.01-3.86c-2.9-3.18-6.18-6.79-2.14-12.51
				l0.11-0.16c0.16-0.21,0.31-0.42,0.48-0.64c0.19-0.23,0.38-0.47,0.59-0.71c0.4-0.67,0.8-1.41,1.28-2.31l0.29-0.56
				c0.43-0.86,0.81-1.64,1.14-2.39l0.13-0.31c0.32-0.74,0.62-1.48,0.9-2.23l0.22-0.57c0.3-0.82,0.58-1.64,0.84-2.48l0.16-0.52
				c0.22-0.72,0.42-1.45,0.61-2.18l0.15-0.58c0.21-0.84,0.39-1.68,0.57-2.53l0.13-0.7c0.14-0.72,0.26-1.45,0.38-2.18l0.09-0.58
				c0.12-0.84,0.22-1.69,0.32-2.55l0.08-0.87c0.07-0.73,0.13-1.45,0.17-2.18l0.05-0.84c0.04-0.74,0.07-1.49,0.08-2.24
				c0.01-0.35,0.02-0.7,0.02-1.04c0.01-0.73,0.01-1.47,0-2.2c-0.01-0.41-0.02-0.83-0.03-1.24c-0.02-0.57-0.04-1.14-0.07-1.72
				c-0.02-0.41-0.04-0.82-0.07-1.24c-0.05-0.76-0.11-1.53-0.17-2.29c-0.03-0.37-0.07-0.74-0.11-1.11l-0.03-0.25
				c-0.05-0.44-0.09-0.89-0.14-1.33l-0.02-0.18c-0.05-0.42-0.1-0.85-0.15-1.28c-0.09-0.71-0.19-1.43-0.3-2.14
				c-0.08-0.54-0.17-1.09-0.26-1.63c-0.05-0.32-0.11-0.64-0.16-0.96c-0.2-1.11-0.41-2.23-0.63-3.34l-0.07-0.33
				c-0.13-0.62-0.26-1.24-0.4-1.86l-0.12-0.53c-0.28-1.23-0.58-2.47-0.9-3.7l0.7-0.3l-0.73,0.19c-0.5-1.91-1.05-3.86-1.65-5.79
				l-0.1-0.32c-2.69-8.67-6.42-17.65-10.77-25.97c-0.58-1.12-1.17-2.21-1.76-3.28c-0.6-1.1-1.2-2.15-1.8-3.17l-0.08-0.18
				c-1.03-3.82-4.94-3.78-9.95-3.33c-1.42,0.13-2.77,0.25-3.86,0.17l-0.19-0.04c-1.91-0.67-3.77-1.37-5.62-2.05
				c-1.11-0.41-2.21-0.82-3.31-1.22l-0.45-0.17c-0.55-0.2-1.1-0.39-1.65-0.58l-0.61-0.21c-0.52-0.18-1.05-0.35-1.57-0.53l-0.6-0.2
				c-0.59-0.19-1.17-0.37-1.76-0.54l-0.38-0.11c-0.72-0.21-1.44-0.41-2.16-0.59l-0.25-0.06c-0.62-0.15-1.24-0.3-1.87-0.43l-0.7-0.13
				c-0.48-0.09-0.96-0.18-1.44-0.26c-0.22-0.03-0.44-0.06-0.66-0.09l-0.18-0.02c-0.44-0.06-0.89-0.12-1.33-0.17
				c-0.3-0.03-0.6-0.06-0.9-0.08c-0.43-0.04-0.87-0.07-1.31-0.09c-0.31-0.02-0.62-0.03-0.93-0.03c-0.44-0.01-0.88-0.01-1.33,0
				c-0.31,0-0.62,0.01-0.94,0.02c-0.46,0.02-0.93,0.05-1.4,0.09l-0.25,0.02c-0.22,0.02-0.44,0.03-0.66,0.06
				c-0.52,0.05-1.05,0.13-1.58,0.21l-0.32,0.04c-0.15,0.02-0.31,0.04-0.47,0.07c-0.85,0.15-1.65,0.31-2.42,0.5
				c-1,0.39-2.12,0.17-2.9-0.64c-0.89-0.91-1.14-2.36-0.62-3.62c0.45-1.06,1.29-1.77,2.09-2.45c0.89-0.75,1.65-1.39,1.83-2.38
				c0.26-1.42-1.45-3.68-2.7-5.32c-0.48-0.63-0.94-1.23-1.25-1.74c-1.37-1.93-2.59-4.09-3.77-6.19c-1.94-3.44-3.94-6.99-6.72-9.66
				c-0.02-0.01-0.04-0.02-0.07-0.04l-0.69-0.25c-0.58-0.17-1.25-0.32-1.98-0.49c-2.81-0.64-6.32-1.44-7.2-3.51
				c-0.03-0.08-0.06-0.16-0.09-0.24c-12.26,12.5-24.78,18.16-37.25,16.82c-18.01-1.93-35.67-17.83-54-48.61
				c-0.43-0.25-2.01-0.97-3.37-1.32c-0.74-0.19-1.34-0.74-1.61-1.46c-0.28-0.75-0.18-1.58,0.27-2.22c0.84-1.22,2.1-2.23,3.32-3.2
				c1.48-1.19,3.01-2.41,3.74-3.98c1.12-2.4,0.3-5.08-0.58-7.91c-0.68-2.22-1.39-4.51-1.21-6.84c0.19-2.5,1.72-5.1,3.2-7.61
				c2.12-3.59,4.13-6.99,2.44-9.95c-14.24-0.05-26.24-0.48-34.74-1.24C0,220.89,0,219.53,0,218.72c0-0.79,0-2.11,11.73-3.19
				c7.88-0.73,19.27-1.18,32.96-1.29c-0.16-3.06-2.46-4.17-5.11-5.44c-2.6-1.25-5.55-2.68-5.62-6.39l0-0.16l0.06-0.15
				c2.91-6.9,1.81-10.04,0.54-13.69c-1-2.86-2.13-6.09-1.6-11.48c0.4-2.76,0.03-6.31-0.37-10.06c-0.72-6.74-1.46-13.71,2.04-17.74
				c1.71-1.97,4.32-3.03,7.76-3.16c1.55,0,3.52-0.16,5.6-0.32c8.71-0.68,20.63-1.61,23.66,6.22c1.58,4.08,1.23,8.32,0.89,12.41
				c-0.16,1.92-0.32,3.91-0.28,5.82c0.03,1.38,0.19,2.94,0.36,4.59c0.5,4.82,1.06,10.28-1.23,14.25c-2.22,3.86-1.53,5.07,0,7.73
				c0.6,1.05,1.28,2.24,1.94,3.83c0.72,1.9,0.78,3.34,0.2,4.45c-0.87,1.65-2.9,2.15-5.06,2.68c-3.33,0.82-6.77,1.67-6.89,6.58
				c13.24,0.09,24.45,0.53,32.43,1.27c12.04,1.12,12.05,2.45,12.05,3.24c0,1.02-0.81,2.09-10.62,3.06
				c-7.16,0.71-17.68,1.18-30.44,1.36c-5.01,3.38-3.42,6.47-1.41,10.38c1.53,2.98,3.27,6.35,1.63,10.03l-0.06,0.11
				c-4.86,7.27-6.11,22.76-0.64,30.47c2.81,3.95,6.88,5.28,12.13,3.92l0.11-0.02c1.65-0.16,3.05,0.19,3.93,0.99
				c0.73,0.66,1.1,1.57,1.11,2.71l0,0.12l-0.03,0.11c-1.97,6.39,0.54,11.03,2.99,13.79c5,5.64,14.64,8.83,22.42,7.42
				c12.2-2.06,24.58-10.69,31.56-22c5.39-8.73,7.1-18.28,4.89-27.07c-3.17,4.65-8.83,3.97-13.46,3.42c-0.84-0.1-1.67-0.2-2.47-0.27
				c-1.51,0.16-3.07,0.93-4.71,1.75c-2.54,1.26-5.16,2.56-7.9,1.68l-1.03-0.33l0.67-0.85c6.82-8.6,7.59-18.7,8.34-28.47
				c0.74-9.58,1.5-19.48,7.95-27.88c9.94-13.33,37.54-19.5,53.68-12c9.45,4.39,13.41,12.88,11.23,23.96c2.52-0.83,5-2.09,7.41-3.31
				c4.85-2.46,9.87-5.02,15.48-4.24c0.43-0.61,1.02-1.31,1.58-1.99c0.59-0.71,1.21-1.44,1.6-2.02c-0.44-4.19,0.36-8.54,2.25-12.29
				c0.64-2.14,0.68-3.85,0.71-5.36c0.06-2.84,0.11-5.31,4.05-8.65c0.94-4.52,0.81-11.1,0.68-17.46c-0.08-3.78-0.16-7.68-0.01-11.12
				c-13.02-0.15-23.83-0.61-31.29-1.32c-11.19-1.08-11.19-2.36-11.19-3.13c0-0.79,0-2.12,12.02-3.24
				c8.01-0.74,19.34-1.18,32.79-1.27c-0.16-3.06-2.46-4.17-5.11-5.44c-2.6-1.25-5.55-2.68-5.62-6.39l0-0.16l0.06-0.15
				c2.91-6.9,1.81-10.04,0.54-13.69c-1-2.86-2.13-6.09-1.6-11.48c0.4-2.76,0.03-6.31-0.37-10.06c-0.72-6.74-1.46-13.71,2.04-17.74
				c1.71-1.97,4.32-3.03,7.77-3.16c1.55,0,3.52-0.16,5.59-0.32c8.71-0.68,20.64-1.61,23.66,6.22c1.58,4.08,1.23,8.32,0.89,12.41
				c-0.16,1.92-0.32,3.91-0.28,5.82c0.03,1.38,0.19,2.94,0.36,4.59c0.5,4.82,1.06,10.28-1.23,14.25c-2.22,3.86-1.53,5.07,0,7.73
				c0.6,1.05,1.28,2.24,1.94,3.83c0.72,1.9,0.78,3.34,0.2,4.45c-0.86,1.65-2.9,2.15-5.06,2.68c-3.33,0.82-6.77,1.67-6.88,6.59
				c13.48,0.11,24.74,0.56,32.61,1.29c11.75,1.1,11.75,2.42,11.75,3.2c0,0.79,0,2.11-11.86,3.22c-7.92,0.74-19.23,1.18-32.74,1.28
				c0.15,3.45,0.07,7.35-0.01,11.13c-0.13,6.34-0.26,12.9,0.68,17.42c3.94,3.34,3.99,5.81,4.05,8.66c0.03,1.51,0.07,3.22,0.71,5.35
				c1.89,3.75,2.69,8.1,2.25,12.29c0.4,0.58,1.01,1.31,1.6,2.02c0.57,0.68,1.15,1.37,1.58,1.99c5.62-0.77,10.63,1.77,15.48,4.24
				c2.41,1.22,4.89,2.48,7.41,3.31c-2.18-11.09,1.78-19.57,11.23-23.97c16.14-7.5,43.73-1.33,53.68,12.01
				c6.44,8.38,7.21,18.29,7.94,27.88c0.75,9.77,1.53,19.88,8.34,28.47l0.67,0.85l-1.04,0.33c-2.74,0.88-5.36-0.43-7.9-1.68
				c-1.65-0.82-3.21-1.59-4.72-1.75c-0.79,0.07-1.62,0.17-2.45,0.27c-4.63,0.56-10.3,1.24-13.48-3.42
				c-2.21,8.79-0.5,18.33,4.88,27.06c6.98,11.31,19.37,19.95,31.56,22.01c7.79,1.4,17.43-1.78,22.43-7.42
				c2.45-2.76,4.95-7.4,2.98-13.79l-0.03-0.11l0-0.12c0.01-1.14,0.38-2.05,1.11-2.7c0.89-0.8,2.28-1.15,3.93-0.99l0.11,0.02
				c5.25,1.35,9.33,0.03,12.13-3.92c5.46-7.7,4.22-23.19-0.64-30.47l-0.06-0.11c-1.63-3.67,0.1-7.05,1.63-10.03
				c2.01-3.91,3.6-7.01-1.41-10.37c-12.76-0.18-23.28-0.65-30.44-1.36c-9.8-0.97-10.62-2.05-10.62-3.06c0-0.79,0.01-2.12,12.05-3.24
				c7.99-0.74,19.2-1.18,32.44-1.27c-0.09-4.87-3.52-5.73-6.84-6.56c-2.17-0.54-4.23-1.06-5.1-2.72c-0.58-1.11-0.52-2.55,0.17-4.42
				c0.67-1.62,1.35-2.8,1.96-3.85c1.53-2.66,2.22-3.87,0-7.73c-2.29-3.96-1.72-9.43-1.23-14.25c0.17-1.65,0.33-3.21,0.36-4.59
				c0.04-1.92-0.12-3.9-0.28-5.82c-0.34-4.1-0.69-8.33,0.89-12.41c3.02-7.83,14.95-6.9,23.66-6.22c2.08,0.16,4.04,0.32,5.57,0.32
				c3.47,0.12,6.08,1.19,7.79,3.16c3.49,4.03,2.75,10.99,2.04,17.73c-0.4,3.75-0.78,7.3-0.38,10.03c0.53,5.41-0.6,8.65-1.6,11.51
				c-1.27,3.65-2.37,6.81,0.54,13.69l0.06,0.15l0,0.16c-0.07,3.71-3.02,5.13-5.62,6.39c-2.64,1.27-4.95,2.38-5.11,5.44
				c13.69,0.12,25.08,0.56,32.96,1.29c11.74,1.09,11.73,2.41,11.73,3.19c0,0.81,0,2.17-12.57,3.29c-8.5,0.76-20.5,1.19-34.74,1.24
				c-1.69,2.97,0.32,6.36,2.44,9.95c1.48,2.51,3.02,5.1,3.2,7.61c0.18,2.32-0.53,4.62-1.21,6.83c-0.88,2.84-1.7,5.51-0.58,7.91
				c0.74,1.57,2.27,2.79,3.74,3.98c1.22,0.97,2.47,1.98,3.32,3.2c0.45,0.65,0.55,1.48,0.27,2.22c-0.27,0.73-0.88,1.28-1.61,1.46
				c-1.37,0.35-2.94,1.07-3.37,1.32c-18.32,30.77-35.98,46.67-54,48.6c-12.46,1.34-25-4.32-37.25-16.82
				c-0.03,0.08-0.05,0.16-0.09,0.24c-0.88,2.07-4.38,2.87-7.2,3.51c-1.14,0.26-2.32,0.53-2.73,0.78c-2.78,2.67-4.78,6.23-6.72,9.66
				c-1.18,2.09-2.4,4.26-3.79,6.22c-0.29,0.47-0.75,1.07-1.23,1.7c-1.25,1.64-2.96,3.9-2.7,5.32c0.18,0.99,0.95,1.63,1.83,2.38
				c0.81,0.68,1.65,1.39,2.09,2.45c0.52,1.26,0.27,2.72-0.62,3.63c-0.78,0.8-1.9,1.03-3,0.61c-0.7-0.16-1.5-0.33-2.36-0.47
				c-0.16-0.03-0.31-0.05-0.47-0.07l-0.33-0.04c-0.54-0.08-1.07-0.16-1.59-0.21c-0.2-0.02-0.41-0.04-0.61-0.05l-0.32-0.02
				c-0.52-0.04-0.96-0.08-1.4-0.09c-0.26-0.01-0.51-0.01-0.77-0.01l-0.2,0c-0.44,0-0.88-0.01-1.32,0c-0.27,0.01-0.54,0.02-0.81,0.04
				l-0.16,0.01c-0.42,0.02-0.85,0.05-1.27,0.08c-0.32,0.03-0.64,0.06-0.96,0.1c-0.42,0.05-0.84,0.1-1.26,0.16
				c-0.31,0.04-0.63,0.09-0.94,0.15c-0.42,0.07-0.84,0.15-1.26,0.23c-0.3,0.06-0.61,0.12-0.91,0.18c-0.43,0.09-0.87,0.19-1.3,0.3
				l-0.85,0.21c-0.46,0.12-0.91,0.25-1.37,0.37l-0.77,0.22c-0.51,0.15-1.03,0.31-1.54,0.47l-0.58,0.18
				c-0.69,0.22-1.37,0.45-2.05,0.69c-2,0.69-3.9,1.4-5.91,2.15c-1.84,0.68-3.7,1.38-5.6,2.05l-0.19,0.04
				c-1.1,0.08-2.44-0.04-3.86-0.17c-5-0.45-8.92-0.49-9.95,3.33l-0.08,0.18c-0.61,1.04-1.22,2.12-1.83,3.21l-0.72-0.25l0.66,0.36
				c-0.57,1.03-1.14,2.09-1.7,3.16l-0.75-0.19l0.67,0.35c-4.38,8.4-8.11,17.48-10.8,26.25c-3.07,10.01-4.82,19.61-5.21,28.52
				c-0.09,2.1-0.1,4.13-0.04,6.07c0.04,1.24,0.11,2.49,0.21,3.72l0.03,0.42c0.16,1.81,0.38,3.63,0.68,5.4l0.11,0.62
				c0.2,1.13,0.43,2.23,0.67,3.28l0.05,0.23c0.13,0.54,0.27,1.08,0.41,1.62l0.2,0.71c0.25,0.87,0.52,1.76,0.82,2.63l0.26,0.75
				c0.17,0.5,0.36,0.99,0.55,1.48c0.07,0.17,0.14,0.34,0.21,0.51l0.11,0.26c0.32,0.8,0.67,1.59,1.03,2.37
				c0.13,0.28,0.27,0.57,0.4,0.85c0.22,0.45,0.45,0.91,0.68,1.35c0.28,0.52,0.56,1.04,0.86,1.55l0.05,0.09
				c0.08,0.14,0.12,0.22,0.17,0.3c0.03,0.05,0.06,0.11,0.09,0.16c0.26,0.29,0.49,0.58,0.71,0.86l0.23,0.3
				c0.15,0.2,0.29,0.39,0.42,0.58c0.08,0.11,0.14,0.22,0.21,0.32c0.13,0.21,0.24,0.37,0.33,0.54c0.07,0.13,0.14,0.25,0.21,0.38
				c0.08,0.15,0.15,0.3,0.22,0.45c0.06,0.13,0.12,0.26,0.17,0.38c0.06,0.14,0.11,0.28,0.16,0.42c0.06,0.17,0.1,0.28,0.13,0.39
				c0.03,0.11,0.06,0.21,0.08,0.31c0.13,0.56,0.2,1.04,0.21,1.51c0,0.12,0,0.25,0,0.38c0,0.12-0.01,0.24-0.03,0.36
				c-0.01,0.11-0.03,0.23-0.04,0.34c-0.02,0.11-0.03,0.23-0.06,0.34c-0.02,0.11-0.05,0.22-0.08,0.33c-0.05,0.19-0.1,0.38-0.17,0.56
				c-0.06,0.17-0.08,0.25-0.12,0.32c-0.04,0.11-0.09,0.22-0.14,0.32c-0.05,0.1-0.09,0.19-0.13,0.28c-0.06,0.12-0.12,0.23-0.18,0.34
				c-0.04,0.07-0.09,0.16-0.13,0.23c-0.06,0.11-0.13,0.22-0.2,0.33l-0.08,0.12c-0.18,0.28-0.35,0.53-0.54,0.77l-0.68-0.35l0.6,0.45
				c-0.1,0.13-0.2,0.25-0.3,0.38l-0.1,0.12c-0.11,0.13-0.22,0.27-0.33,0.4c-0.43,0.51-0.89,1.01-1.34,1.52
				c-0.49,0.54-0.99,1.09-1.45,1.65c-0.16,0.19-0.29,0.35-0.41,0.51l-0.67-0.36l0.59,0.46c-0.11,0.15-0.22,0.29-0.33,0.44
				l-0.68-0.34l0.61,0.43c-0.12,0.18-0.25,0.36-0.36,0.54c-0.12,0.19-0.21,0.35-0.3,0.52l-0.05,0.1c-0.1,0.18-0.16,0.31-0.22,0.45
				l-0.07,0.16c-0.07,0.15-0.12,0.3-0.17,0.45l-0.75-0.13l0.71,0.24c-0.06,0.18-0.11,0.37-0.16,0.56l-0.75-0.07l0.72,0.21
				c-0.03,0.14-0.05,0.29-0.07,0.43l-0.02,0.19c-0.01,0.14-0.02,0.28-0.02,0.42l0,0.19c0,0.03,0,0.05,0,0.08
				c0.22,0.05,0.44,0.1,0.66,0.15c0.09,0.02,0.18,0.05,0.27,0.08l0.14,0.04c0.26,0.07,0.51,0.15,0.76,0.23
				c0.14,0.05,0.27,0.1,0.4,0.15c0.28,0.11,0.49,0.19,0.69,0.28c0.16,0.07,0.32,0.15,0.48,0.23c0.18,0.09,0.35,0.18,0.53,0.27
				c0.16,0.09,0.32,0.18,0.48,0.27c0.15,0.09,0.31,0.19,0.45,0.29c0.16,0.1,0.32,0.21,0.47,0.32c0.12,0.09,0.24,0.18,0.35,0.28
				l-0.38,0.65l0.47-0.59c0.14,0.11,0.28,0.22,0.41,0.34c0.08,0.07,0.16,0.15,0.24,0.22l0.14,0.14c0.13,0.12,0.26,0.25,0.39,0.38
				c0.34,0.36,0.68,0.77,1.03,1.24l0.13,0.17c0.32,0.45,0.61,0.9,0.86,1.36l0.06,0.12c0.24,0.45,0.47,0.92,0.67,1.41l0.07,0.15
				c0.2,0.5,0.39,1.02,0.55,1.56l0.04,0.14c0.17,0.58,0.3,1.11,0.42,1.65c0.13,0.62,0.22,1.18,0.3,1.76l0.02,0.18
				c0.15,1.19,0.22,2.35,0.22,3.55v0.29c0,0.59-0.02,1.17-0.05,1.76c-0.04,0.64-0.09,1.2-0.15,1.76l-0.03,0.31
				c-0.06,0.57-0.14,1.13-0.23,1.7l-0.03,0.17c-0.1,0.59-0.19,1.09-0.29,1.6l-0.05,0.28c-0.11,0.54-0.24,1.08-0.37,1.61l-0.08,0.33
				c-0.12,0.49-0.25,0.96-0.39,1.43l-0.06,0.19c-0.15,0.5-0.31,1-0.48,1.49l-0.09,0.27c-0.12,0.33-0.23,0.63-0.33,0.92
				c3.62,2.51,4.63,7.41,5.62,12.17c0.47,2.28,0.92,4.43,1.63,6.25l-0.65,0.4l0.7-0.28c0.14,0.34,0.29,0.66,0.45,0.97l0.12,0.25
				c0.15,0.28,0.32,0.53,0.49,0.79c0.04,0.05,0.07,0.11,0.1,0.16c0.02,0.03,0.04,0.06,0.06,0.09c0.24,0.33,0.5,0.62,0.76,0.86
				c5.39,4.5,11.91,7.44,18.8,10.55c8.04,3.63,16.36,7.38,23.08,13.92c6.66,6.35,10.69,14.9,10.77,22.85
				c0.1,9.75-6.76,15.95-12.27,20.93c-10.83,9.79-26.04,16.45-45.2,19.8C257.65,605.44,247.89,606.26,238.14,606.26z M166.55,540.51
				l0,0.01l-0.19,0.18c-1.9,1.62-3.59,3.3-5.04,4.99c-5.75,6.72-8.59,16.4-7.06,24.09c1.54,7.76,8.74,13.12,14.53,17.43l0.62,0.46
				c13.83,10.32,31.19,13.69,47.88,15.79c16.31,2.05,33.43,1.66,49.51-1.16c18.88-3.3,33.83-9.84,44.45-19.44
				c6.73-6.08,11.86-11.4,11.78-19.8c-0.08-7.56-3.93-15.71-10.31-21.79c-6.54-6.36-14.74-10.06-22.66-13.63
				c-6.99-3.16-13.6-6.13-19.18-10.79c-0.36-0.34-0.68-0.69-0.98-1.09c-0.05-0.07-0.1-0.15-0.15-0.22
				c-0.25-0.38-0.45-0.68-0.63-1.01c-0.03-0.06-0.06-0.13-0.09-0.19c-0.22-0.44-0.39-0.8-0.54-1.18l-0.04-0.1
				c-0.77-1.98-1.25-4.29-1.71-6.53c-0.97-4.66-1.97-9.48-5.45-11.52l-0.56-0.33l0.24-0.6c0.18-0.44,0.35-0.9,0.51-1.37l0.11-0.33
				c0.16-0.47,0.32-0.94,0.46-1.43l0.03-0.11c0.15-0.52,0.28-0.99,0.4-1.45l0.08-0.32c0.12-0.51,0.24-1.03,0.35-1.55l0.03-0.17
				c0.12-0.58,0.2-1.07,0.28-1.56l0.04-0.24c0.08-0.55,0.16-1.09,0.22-1.64l0.03-0.3c0.06-0.53,0.1-1.07,0.13-1.61
				c0.04-0.64,0.05-1.2,0.06-1.76v-0.29c0-1.14-0.07-2.25-0.2-3.29l-0.03-0.24c-0.07-0.54-0.16-1.07-0.27-1.59
				c-0.12-0.56-0.24-1.05-0.39-1.53l-0.05-0.19c-0.15-0.49-0.32-0.97-0.51-1.43l0.63-0.43l-0.69,0.29
				c-0.19-0.44-0.39-0.87-0.61-1.27l0.6-0.47l-0.66,0.36c-0.23-0.41-0.49-0.82-0.77-1.22l-0.06-0.08c-0.37-0.5-0.67-0.86-0.97-1.17
				l-0.04-0.05c-0.09-0.09-0.19-0.18-0.29-0.27l-0.16-0.15c-0.06-0.06-0.12-0.12-0.19-0.18c-0.11-0.1-0.23-0.19-0.35-0.29
				l-0.08-0.07c-0.1-0.08-0.2-0.16-0.31-0.24c-0.13-0.09-0.27-0.19-0.41-0.28c-0.13-0.09-0.27-0.17-0.4-0.26
				c-0.14-0.08-0.28-0.16-0.42-0.24c-0.15-0.08-0.31-0.16-0.47-0.24c-0.14-0.07-0.28-0.14-0.43-0.2c-0.18-0.08-0.37-0.15-0.55-0.22
				c-0.19-0.07-0.3-0.12-0.42-0.16c-0.22-0.08-0.45-0.14-0.68-0.2l-0.37-0.1c-0.37-0.09-0.74-0.17-1.13-0.24l-0.55-0.09l-0.07-0.56
				c-0.03-0.27-0.04-0.52-0.05-0.78l0-0.2c0-0.21,0.01-0.39,0.03-0.57c0.01-0.08,0.02-0.17,0.03-0.25c0.02-0.18,0.05-0.36,0.09-0.54
				l0.04-0.18c0.05-0.23,0.12-0.46,0.19-0.68l0.04-0.1c0.07-0.21,0.14-0.39,0.22-0.57l0.07-0.15c0.09-0.2,0.17-0.36,0.25-0.51
				l0.1-0.18c0.1-0.18,0.21-0.37,0.33-0.56c0.15-0.24,0.28-0.44,0.43-0.64l0.07-0.1c0.12-0.17,0.24-0.33,0.37-0.49l0.08-0.11
				c0.14-0.17,0.28-0.35,0.42-0.52c0.5-0.6,1.01-1.16,1.51-1.72c0.44-0.49,0.89-0.98,1.3-1.47c0.11-0.13,0.21-0.26,0.31-0.38
				l0.09-0.11c0.09-0.12,0.18-0.23,0.27-0.35l0.67,0.35l-0.6-0.45c0.16-0.22,0.32-0.44,0.46-0.66l0.08-0.13
				c0.06-0.1,0.12-0.19,0.17-0.29l0.11-0.2c0.05-0.1,0.1-0.19,0.15-0.29l0.09-0.21c0.05-0.12,0.09-0.2,0.13-0.29l0.09-0.26
				c0.05-0.14,0.09-0.29,0.13-0.44c0.02-0.08,0.04-0.17,0.06-0.25c0.02-0.08,0.03-0.17,0.04-0.26c0.01-0.09,0.02-0.18,0.03-0.26
				c0.01-0.09,0.02-0.18,0.02-0.27c0-0.09,0-0.19,0-0.29c-0.01-0.36-0.06-0.74-0.15-1.11c-0.04-0.17-0.06-0.24-0.08-0.32
				c-0.02-0.08-0.05-0.16-0.08-0.25c-0.06-0.18-0.11-0.3-0.15-0.42c-0.04-0.11-0.09-0.21-0.14-0.32c-0.06-0.13-0.12-0.26-0.19-0.39
				c-0.06-0.11-0.12-0.22-0.18-0.33c-0.08-0.14-0.17-0.29-0.27-0.44l-0.21-0.32c-0.12-0.17-0.25-0.34-0.38-0.52l-0.21-0.28
				c-0.22-0.28-0.45-0.56-0.71-0.85l-0.08-0.11c-0.06-0.09-0.11-0.19-0.16-0.28l-0.17-0.3c-0.34-0.59-0.63-1.12-0.92-1.66
				c-0.24-0.46-0.47-0.93-0.7-1.39c-0.14-0.29-0.28-0.58-0.42-0.88c-0.37-0.79-0.73-1.61-1.06-2.44l-0.1-0.26
				c-0.07-0.18-0.15-0.36-0.22-0.54c-0.2-0.5-0.38-1.01-0.56-1.52l-0.26-0.77c-0.3-0.9-0.58-1.81-0.84-2.71l-0.2-0.73
				c-0.15-0.55-0.29-1.1-0.42-1.66l-0.04-0.17c-0.27-1.14-0.5-2.27-0.7-3.43l-0.11-0.63c-0.3-1.81-0.54-3.67-0.69-5.52l-0.03-0.43
				c-0.1-1.25-0.17-2.52-0.21-3.76c-0.06-2.01-0.04-4.07,0.04-6.14c0.39-9.11,2.16-18.83,5.27-28.97
				c2.72-8.86,6.49-18.03,10.91-26.51l0.08-0.16c0.57-1.08,1.14-2.15,1.72-3.2l0.06-0.11c0.6-1.08,1.19-2.13,1.79-3.16
				c1.49-5.24,7.27-4.72,11.51-4.33c1.31,0.12,2.56,0.23,3.52,0.17c1.86-0.66,3.68-1.33,5.48-2c2.02-0.75,3.92-1.46,5.87-2.14
				c0.76-0.26,1.46-0.5,2.15-0.72l0.59-0.19c0.52-0.17,1.05-0.33,1.57-0.48l0.78-0.22c0.47-0.13,0.94-0.26,1.4-0.38l0.88-0.21
				c0.44-0.11,0.89-0.21,1.34-0.31c0.31-0.07,0.62-0.13,0.94-0.19c0.43-0.08,0.87-0.16,1.31-0.24c0.32-0.05,0.65-0.1,0.97-0.15
				c0.43-0.06,0.87-0.12,1.3-0.16c0.33-0.04,0.67-0.07,1-0.1c0.44-0.04,0.88-0.06,1.33-0.09l0.17-0.01
				c0.28-0.01,0.56-0.03,0.85-0.04c0.45-0.01,0.91-0.01,1.37,0l0.2,0c0.27,0,0.54,0,0.81,0.01c0.46,0.02,0.93,0.05,1.39,0.09
				l0.38,0.03c0.22,0.01,0.44,0.03,0.66,0.05c0.55,0.06,1.1,0.14,1.66,0.22l0.3,0.04c0.18,0.02,0.35,0.05,0.53,0.08
				c0.89,0.15,1.73,0.33,2.55,0.52c0.62,0.23,1.12,0.14,1.48-0.22c0.39-0.4,0.64-1.18,0.3-2c-0.3-0.72-0.97-1.28-1.68-1.88
				c-0.97-0.82-2.06-1.74-2.34-3.25c-0.39-2.08,1.48-4.53,2.98-6.5c0.46-0.61,0.89-1.18,1.17-1.63c1.37-1.94,2.57-4.07,3.74-6.13
				c2-3.55,4.07-7.22,7.04-10.06l0.09-0.07c0.6-0.42,1.79-0.69,3.3-1.03c2.22-0.5,5.57-1.27,6.15-2.63
				c0.06-0.15,0.26-0.61-0.29-1.51l-3.73-6.18l4.92,5.28c12.44,13.35,25.11,19.43,37.65,18.09c17.54-1.88,34.86-17.59,52.95-48.02
				l0.16-0.19c0.48-0.4,2.56-1.3,4.04-1.67c0.27-0.07,0.48-0.26,0.58-0.54c0.11-0.29,0.07-0.6-0.1-0.84
				c-0.72-1.04-1.84-1.94-3.02-2.88c-1.61-1.29-3.28-2.63-4.16-4.51c-1.37-2.92-0.42-6.01,0.5-8.99c0.64-2.08,1.31-4.24,1.15-6.28
				c-0.16-2.16-1.6-4.6-3-6.96c-2.34-3.96-4.76-8.05-2.18-11.88l0.22-0.33l0.4,0c29.87-0.09,43.59-1.83,45.97-3.04
				c-2.08-1.04-13.13-2.76-43.7-2.99l-0.71,0l-0.04-0.71c-0.23-4.6,3.06-6.18,5.95-7.57c2.49-1.2,4.64-2.24,4.77-4.91
				c-3.05-7.31-1.82-10.86-0.51-14.62c0.99-2.85,2.02-5.79,1.52-10.84c-0.42-2.88-0.04-6.52,0.37-10.37
				c0.68-6.42,1.39-13.06-1.68-16.59c-1.45-1.67-3.63-2.53-6.69-2.64c-1.56,0-3.55-0.16-5.66-0.32c-8.24-0.64-19.52-1.52-22.14,5.27
				c-1.45,3.76-1.13,7.64-0.79,11.75c0.16,1.96,0.33,3.99,0.28,5.98c-0.03,1.44-0.2,3.03-0.37,4.71c-0.47,4.59-1.01,9.8,1.03,13.34
				c2.66,4.61,1.6,6.44,0,9.23c-0.58,1.01-1.24,2.15-1.86,3.66c-0.53,1.42-0.61,2.46-0.24,3.17c0.56,1.07,2.22,1.48,4.14,1.96
				c3.49,0.87,8.26,2.07,7.96,8.79l-0.03,0.71l-0.71,0c-28.11,0.16-41.12,1.85-43.47,3.02c2,0.96,12.08,2.55,39.53,2.93l0.22,0
				l0.18,0.12c6.36,4.14,4.1,8.55,2.11,12.43c-1.5,2.93-2.92,5.69-1.62,8.68c5.11,7.74,6.51,23.75,0.58,32.12
				c-2.19,3.09-6.35,6.38-13.67,4.52c-1.2-0.11-2.17,0.11-2.73,0.62c-0.39,0.35-0.59,0.84-0.61,1.49
				c1.67,5.54,0.52,10.76-3.33,15.11c-5.41,6.1-15.42,9.42-23.81,7.91c-12.59-2.13-25.38-11.04-32.58-22.7
				c-5.93-9.61-7.57-20.19-4.62-29.8l0.3-0.99l0.14,0.1l0.29-0.95l0.82,1.74c2.47,5.22,7.69,4.59,12.75,3.99
				c0.88-0.11,1.74-0.21,2.58-0.28l0.07-0.01l0.07,0.01c1.81,0.17,3.59,1.05,5.31,1.9c1.97,0.98,3.86,1.9,5.67,1.8
				c-6.41-8.72-7.17-18.67-7.92-28.31c-0.75-9.8-1.47-19.05-7.64-27.08c-9.41-12.62-36.55-18.67-51.85-11.55
				c-6.43,2.99-13.41,9.5-10.14,23.52l0.29,1.22l-1.21-0.33c-3.09-0.83-6.04-2.33-8.9-3.78c-4.99-2.54-9.72-4.93-15.03-4.02
				l-0.5,0.08l-0.27-0.43c-0.38-0.61-1.07-1.44-1.74-2.23c-0.7-0.84-1.43-1.7-1.86-2.41l-0.14-0.22l0.03-0.26
				c0.47-4.01-0.27-8.19-2.1-11.77l-0.05-0.12c-0.72-2.36-0.76-4.2-0.79-5.82c-0.06-2.84-0.1-4.71-3.71-7.7l-0.2-0.16l-0.06-0.25
				c-1.04-4.7-0.9-11.47-0.76-18.02c0.08-4.04,0.17-8.22-0.03-11.81l-0.04-0.79l0.79,0c28.53-0.19,41.35-1.83,43.65-3
				c-2.29-1.17-15.02-2.79-43.36-3l-0.72,0l-0.03-0.72c-0.25-6.77,4.53-7.95,8.02-8.82c1.9-0.47,3.54-0.88,4.09-1.92
				c0.37-0.7,0.28-1.75-0.26-3.2c-0.62-1.48-1.27-2.62-1.85-3.63c-1.6-2.78-2.65-4.62,0-9.23c2.04-3.54,1.51-8.75,1.03-13.34
				c-0.17-1.68-0.34-3.27-0.37-4.71c-0.05-2,0.12-4.02,0.28-5.98c0.34-4.11,0.66-7.99-0.79-11.75c-2.62-6.79-13.9-5.91-22.15-5.27
				c-2.11,0.17-4.1,0.32-5.68,0.32c-3.03,0.11-5.22,0.97-6.66,2.64c-3.07,3.54-2.36,10.17-1.68,16.59c0.41,3.85,0.79,7.48,0.37,10.4
				c-0.49,5.02,0.54,7.96,1.53,10.8c1.31,3.75,2.55,7.29-0.51,14.61c0.12,2.67,2.28,3.71,4.77,4.91c2.9,1.4,6.18,2.98,5.95,7.57
				l-0.04,0.71l-0.71,0c-28.61,0.17-41.49,1.82-43.81,3.01c2.02,1,12.57,2.67,41.52,2.97l0.78,0.01l-0.04,0.78
				c-0.2,3.56-0.11,7.74-0.03,11.79c0.13,6.57,0.27,13.37-0.76,18.07l-0.06,0.25l-0.2,0.16c-3.61,2.99-3.65,4.86-3.71,7.69
				c-0.03,1.62-0.07,3.46-0.8,5.83l-0.05,0.12c-1.82,3.58-2.56,7.76-2.09,11.77l0.03,0.26l-0.14,0.22
				c-0.44,0.71-1.16,1.57-1.86,2.41c-0.67,0.8-1.36,1.62-1.74,2.23l-0.27,0.43l-0.5-0.08c-5.32-0.9-10.04,1.49-15.04,4.02
				c-2.86,1.45-5.81,2.95-8.9,3.78l-1.21,0.33l0.29-1.22c3.28-14.02-3.7-20.53-10.13-23.52c-15.31-7.12-42.44-1.08-51.85,11.54
				c-6.19,8.06-6.9,17.3-7.65,27.09c-0.74,9.63-1.5,19.58-7.92,28.31c1.83,0.09,3.7-0.83,5.67-1.8c1.72-0.85,3.5-1.74,5.31-1.91
				l0.07-0.01l0.07,0.01c0.84,0.07,1.7,0.17,2.59,0.28c5.04,0.6,10.26,1.23,12.74-3.99l0.82-1.74l0.29,0.94l0.14-0.1l0.3,0.99
				c2.95,9.61,1.31,20.2-4.62,29.81c-7.2,11.66-19.99,20.57-32.58,22.69c-8.38,1.52-18.39-1.81-23.8-7.91
				c-3.85-4.34-5-9.56-3.33-15.11c-0.02-0.66-0.23-1.14-0.61-1.49c-0.56-0.51-1.53-0.72-2.73-0.62c-7.32,1.86-11.48-1.43-13.67-4.52
				c-5.94-8.38-4.54-24.39,0.58-32.12c1.3-3-0.12-5.75-1.62-8.67c-2-3.88-4.26-8.27,2.1-12.44l0.18-0.12l0.22,0
				c27.46-0.38,37.54-1.97,39.53-2.93c-2.36-1.17-15.36-2.85-43.47-3.02l-0.72,0L60.09,215c-0.25-6.77,4.53-7.95,8.02-8.81
				c1.9-0.47,3.54-0.88,4.09-1.93c0.37-0.7,0.28-1.75-0.26-3.2c-0.62-1.48-1.27-2.63-1.85-3.63c-1.6-2.78-2.66-4.62,0-9.23
				c2.04-3.54,1.51-8.75,1.04-13.34c-0.17-1.68-0.34-3.27-0.37-4.71c-0.05-2,0.12-4.02,0.28-5.98c0.34-4.11,0.66-7.99-0.79-11.75
				c-2.62-6.79-13.91-5.91-22.14-5.27c-2.11,0.17-4.1,0.32-5.68,0.32c-3.03,0.11-5.22,0.97-6.66,2.64
				c-3.06,3.53-2.36,10.17-1.68,16.59c0.41,3.85,0.79,7.48,0.37,10.4c-0.49,5.02,0.54,7.96,1.53,10.81
				c1.31,3.75,2.54,7.29-0.51,14.61c0.12,2.67,2.28,3.71,4.76,4.91c2.9,1.4,6.18,2.98,5.95,7.57l-0.04,0.71l-0.71,0
				c-30.56,0.23-41.62,1.95-43.7,2.99c2.38,1.21,16.1,2.94,45.97,3.04l0.4,0l0.22,0.33c2.58,3.82,0.16,7.92-2.19,11.88
				c-1.4,2.36-2.84,4.8-3,6.96c-0.16,2.04,0.51,4.2,1.15,6.28c0.92,2.98,1.87,6.07,0.5,8.99c-0.88,1.88-2.55,3.22-4.16,4.51
				c-1.18,0.95-2.3,1.85-3.02,2.88c-0.17,0.25-0.21,0.55-0.1,0.84c0.1,0.27,0.31,0.47,0.58,0.54c1.48,0.38,3.56,1.27,4.04,1.67
				l0.17,0.19c18.09,30.43,35.41,46.14,52.95,48.02c12.55,1.35,25.21-4.74,37.66-18.09l4.92-5.27l-3.73,6.17
				c-0.55,0.9-0.35,1.36-0.29,1.51c0.58,1.37,3.93,2.13,6.15,2.63c0.77,0.17,1.47,0.33,2.03,0.5l0.98,0.37
				c0.11,0.06,0.2,0.11,0.28,0.16l0.09,0.08c2.96,2.83,5.03,6.5,7.04,10.06c1.16,2.06,2.36,4.19,3.71,6.09
				c0.3,0.49,0.74,1.06,1.2,1.66c1.5,1.97,3.36,4.42,2.98,6.5c-0.28,1.52-1.38,2.44-2.34,3.25c-0.71,0.6-1.37,1.16-1.68,1.88
				c-0.34,0.82-0.09,1.59,0.3,2c0.36,0.37,0.85,0.46,1.38,0.25c0.9-0.22,1.72-0.39,2.61-0.55c0.17-0.03,0.35-0.05,0.52-0.08
				l0.3-0.04c0.55-0.08,1.1-0.16,1.64-0.22c0.24-0.03,0.47-0.04,0.71-0.06l0.24-0.02c0.49-0.04,0.98-0.07,1.46-0.09
				c0.33-0.01,0.66-0.02,0.98-0.02c0.47-0.01,0.93-0.01,1.38,0c0.32,0.01,0.65,0.02,0.97,0.04c0.46,0.02,0.91,0.05,1.36,0.09
				c0.31,0.03,0.63,0.05,0.94,0.09c0.46,0.05,0.92,0.11,1.38,0.17l0.17,0.02c0.23,0.03,0.46,0.06,0.69,0.1
				c0.5,0.08,0.99,0.17,1.49,0.27l0.28,0.05c0.15,0.03,0.3,0.05,0.44,0.08c0.64,0.13,1.28,0.28,1.92,0.44l0.26,0.06
				c0.74,0.19,1.48,0.39,2.21,0.6l0.39,0.12c0.6,0.18,1.2,0.36,1.79,0.55l0.61,0.2c0.53,0.17,1.06,0.35,1.59,0.53l0.62,0.21
				c0.55,0.19,1.11,0.39,1.66,0.59l0.46,0.17c1.1,0.4,2.2,0.81,3.32,1.23c1.8,0.67,3.63,1.35,5.49,2.01
				c0.96,0.06,2.2-0.05,3.52-0.17c4.24-0.38,10.02-0.9,11.51,4.33c0.59,1.01,1.18,2.04,1.76,3.09c0.61,1.11,1.2,2.21,1.79,3.34
				c4.3,8.23,8,17.1,10.7,25.69h0.2l0,0.64c0.63,2.02,1.21,4.06,1.73,6.07l0.03,0.12c0.32,1.24,0.63,2.49,0.91,3.74l0.12,0.54
				c0.14,0.62,0.28,1.25,0.41,1.88l0.07,0.33c0.23,1.13,0.44,2.25,0.64,3.38c0.06,0.32,0.11,0.65,0.17,0.97
				c0.09,0.55,0.18,1.1,0.26,1.65c0.11,0.72,0.21,1.45,0.31,2.17c0.06,0.43,0.11,0.86,0.16,1.3l0.02,0.18
				c0.05,0.45,0.1,0.9,0.15,1.36l0.03,0.25c0.04,0.38,0.08,0.76,0.11,1.14c0.07,0.78,0.13,1.55,0.17,2.33
				c0.03,0.42,0.05,0.84,0.07,1.26c0.03,0.58,0.05,1.17,0.07,1.75c0.01,0.42,0.03,0.84,0.03,1.26c0.01,0.75,0.01,1.5,0,2.24
				c0,0.35-0.01,0.71-0.02,1.06c-0.02,0.76-0.05,1.53-0.08,2.28l-0.05,0.85c-0.05,0.75-0.11,1.49-0.18,2.23l-0.09,0.88
				c-0.09,0.88-0.2,1.74-0.32,2.6l-0.09,0.59c-0.12,0.75-0.24,1.49-0.38,2.22l-0.14,0.72c-0.18,0.87-0.37,1.73-0.58,2.59l-0.15,0.59
				c-0.19,0.75-0.4,1.5-0.63,2.24l-0.16,0.54c-0.27,0.86-0.56,1.71-0.86,2.55l-0.22,0.59c-0.29,0.77-0.6,1.54-0.93,2.29l-0.13,0.32
				c-0.34,0.78-0.73,1.59-1.17,2.47l-0.29,0.57c-0.5,0.96-0.93,1.73-1.35,2.44l-0.08,0.11c-0.21,0.24-0.4,0.48-0.59,0.71
				c-0.16,0.2-0.3,0.39-0.44,0.58l-0.08,0.11c-3.37,4.77-0.89,7.51,1.99,10.67c1.18,1.29,2.4,2.63,3.22,4.15l0.06,0.1
				c0.09,0.18,0.18,0.36,0.26,0.54l-0.62,0.44l0.69-0.3c0.09,0.21,0.17,0.42,0.25,0.64c0.09,0.27,0.15,0.5,0.21,0.74l0.02,0.12
				c0.05,0.23,0.08,0.42,0.1,0.6l0.03,0.24c0.02,0.18,0.03,0.36,0.03,0.54l0,0.23c0,0.26-0.02,0.52-0.05,0.78l-0.07,0.56l-0.56,0.09
				c-0.41,0.07-0.8,0.15-1.18,0.25c-0.12,0.03-0.24,0.07-0.35,0.1l-0.42,0.13c-0.11,0.03-0.22,0.06-0.32,0.1
				c-0.21,0.07-0.41,0.16-0.61,0.24l-0.39,0.16c-0.27,0.12-0.53,0.26-0.79,0.4l-0.1,0.05c-0.32,0.18-0.58,0.34-0.83,0.52
				c-0.33,0.22-0.58,0.42-0.83,0.63c-0.5,0.42-0.96,0.89-1.38,1.39c-0.28,0.34-0.56,0.72-0.84,1.15l-0.09,0.15
				c-0.5,0.8-0.92,1.67-1.27,2.61l-0.06,0.16c-0.33,0.92-0.59,1.92-0.78,2.96l-0.03,0.2c-0.18,1.01-0.29,2.08-0.34,3.18l-0.01,0.24
				c-0.04,1.06-0.02,2.17,0.05,3.28l0.02,0.29c0.08,1.07,0.21,2.17,0.38,3.25l0.06,0.33c0.09,0.53,0.19,1.05,0.29,1.57
				c0.11,0.52,0.23,1.03,0.36,1.54l0.09,0.34c0.13,0.49,0.26,0.98,0.41,1.46l0.03,0.11c0.12,0.38,0.28,0.85,0.43,1.31l0.12,0.33
				c0.16,0.45,0.33,0.9,0.5,1.32l0.24,0.59l-0.24,0.14v0.33l-0.53,0c-1.46,0.97-2.74,2.7-3.64,4.88l-0.07,0.19
				c-0.11,0.28-0.22,0.56-0.31,0.84c-0.11,0.32-0.2,0.65-0.28,0.96c-1.36,16.39-12.81,21.28-24.93,26.46
				C180.41,531.58,172.94,534.77,166.55,540.51z M476.94,218.93L476.94,218.93L476.94,218.93z M209.3,339.84
				c-0.31,0-0.63-0.1-0.93-0.31c-2.68-1.83-6.01-4.1-7.17-7.8l-0.13-0.4l0.28-0.32c0.88-1,2.34-0.59,2.89-0.43
				c0.39,0.11,0.85,0.22,1.34,0.33c2.19,0.5,5.19,1.18,6.03,3.5c0.36,0.99-0.11,4.12-1.35,5.09
				C209.95,339.73,209.63,339.84,209.3,339.84z M202.83,331.87c1.16,2.87,3.92,4.75,6.38,6.43c0.06,0.04,0.09,0.05,0.09,0.05
				c0.5-0.18,1.1-2.76,0.88-3.42c-0.56-1.55-2.99-2.1-4.95-2.55c-0.52-0.12-1-0.23-1.42-0.35
				C203.4,331.91,203.07,331.86,202.83,331.87z M269.08,339.84c-0.33,0-0.65-0.11-0.95-0.34c-1.24-0.96-1.71-4.1-1.35-5.09
				c0.83-2.32,3.84-3,6.03-3.5c0.49-0.11,0.95-0.21,1.34-0.33c0.55-0.16,2.01-0.57,2.89,0.43l0.28,0.32l-0.13,0.4
				c-1.16,3.7-4.49,5.97-7.17,7.8l0,0C269.71,339.74,269.39,339.84,269.08,339.84z M269.59,338.91L269.59,338.91L269.59,338.91z
				 M275.47,331.87c-0.23,0-0.53,0.05-0.91,0.16c-0.42,0.12-0.9,0.23-1.42,0.35c-1.96,0.45-4.39,1-4.95,2.55
				c-0.22,0.66,0.38,3.23,0.9,3.42c0,0,0.03-0.01,0.08-0.05c2.45-1.67,5.21-3.56,6.37-6.43
				C275.52,331.87,275.49,331.87,275.47,331.87z M265.3,329.15l-1.79-0.2c-0.91-0.1-1.79-0.24-2.62-0.41
				c-0.54-0.11-1.04-0.24-1.51-0.38l-0.18-0.05c-0.47-0.14-0.89-0.29-1.29-0.44c-0.5-0.2-0.91-0.39-1.3-0.59l-0.1-0.05
				c-0.36-0.19-0.67-0.38-0.96-0.58l-0.17-0.11c-0.25-0.18-0.48-0.36-0.7-0.54l-0.09-0.07c-0.49-0.43-0.93-0.91-1.31-1.42
				l-0.06-0.08c-0.17-0.25-0.31-0.46-0.44-0.69l-0.08-0.15c-0.13-0.25-0.24-0.46-0.34-0.68l-0.08-0.19
				c-0.1-0.23-0.19-0.48-0.28-0.72l-0.05-0.13c-0.18-0.57-0.33-1.18-0.44-1.83l-0.02-0.11c-0.05-0.33-0.08-0.58-0.11-0.83
				l-0.02-0.22c-0.03-0.29-0.04-0.52-0.06-0.75l-0.02-0.32c-0.01-0.23-0.02-0.47-0.02-0.7l-0.01-0.29c0-0.29,0-0.58,0.01-0.87
				l0-0.24c0.01-0.3,0.02-0.59,0.03-0.9l0.13-2.01c0.06-0.78,0.13-1.57,0.2-2.38c0.11-1.23,0.22-2.48,0.3-3.77l0.04-0.71
				c-0.51-8.25,4.45-12.3,9.7-16.6l0.79-0.65c0.07-0.22,0.14-0.44,0.19-0.65l0.06-0.27c0.04-0.19,0.08-0.37,0.11-0.55
				c0.01-0.09,0.02-0.17,0.03-0.26c0.03-0.22,0.05-0.38,0.06-0.54c0.01-0.11,0.01-0.21,0.01-0.32c0-0.15,0.01-0.3,0-0.46
				c0-0.11,0-0.21-0.01-0.31c-0.01-0.16-0.02-0.31-0.04-0.47l-0.03-0.3c-0.02-0.17-0.06-0.34-0.09-0.51l-0.04-0.24
				c-0.06-0.25-0.12-0.5-0.19-0.75c-0.08-0.27-0.16-0.52-0.25-0.78l-0.1-0.27c-0.06-0.17-0.13-0.35-0.19-0.52l-1.62-3.61l-0.45-0.98
				c-0.15-0.32-0.3-0.65-0.44-0.99l-0.15-0.36c-0.1-0.24-0.21-0.49-0.31-0.74l-0.17-0.44c-0.09-0.24-0.19-0.48-0.27-0.72l-0.16-0.44
				c-0.1-0.29-0.18-0.53-0.26-0.78c-0.06-0.17-0.11-0.35-0.16-0.53c-0.08-0.25-0.15-0.51-0.22-0.76c-0.06-0.24-0.11-0.39-0.14-0.55
				c-0.07-0.27-0.13-0.55-0.19-0.83l-0.02-0.1c-0.03-0.15-0.06-0.3-0.09-0.45c-0.06-0.32-0.11-0.64-0.16-0.97l-0.08-0.48
				c-0.07-0.5-0.12-1.01-0.16-1.53c-0.04-0.55-0.06-1.08-0.07-1.62c0-0.11,0-0.22,0-0.34l0-0.21c0-0.38,0-0.76,0.02-1.16
				c0.01-0.17,0.02-0.34,0.03-0.51l0.01-0.18c0.02-0.37,0.05-0.74,0.09-1.12c0.02-0.25,0.06-0.51,0.09-0.77
				c0.04-0.37,0.1-0.76,0.16-1.15c0.04-0.27,0.09-0.55,0.14-0.82c0.07-0.4,0.15-0.8,0.24-1.21c0.06-0.28,0.12-0.57,0.18-0.86
				c0.1-0.43,0.21-0.88,0.33-1.32l0.06-0.22c0.05-0.21,0.11-0.42,0.17-0.64c0.14-0.5,0.3-1.01,0.47-1.53l0.08-0.27
				c0.05-0.16,0.1-0.33,0.16-0.49c0.26-0.78,0.54-1.59,0.86-2.42c0.21-0.57,0.43-1.15,0.66-1.74c2.52-6.61,5.38-14.1,1.35-20.18
				c-0.21-0.3-0.44-0.62-0.68-0.93c-0.58-0.78-1.18-1.58-1.58-2.46h-0.24l0-0.63c-0.05-0.16-0.09-0.33-0.12-0.49
				c-0.03-0.17-0.06-0.33-0.07-0.5c-0.01-0.08-0.01-0.16-0.01-0.25c0-0.26,0.01-0.53,0.08-0.83l0.03-0.14l0.08-0.12
				c0.89-1.34,1.04-3.2,0.36-4.52c-0.35-0.68-1.08-1.51-2.54-1.56l-0.01-1.5c5.95-0.3,10.84,3.2,15.6,6.58
				c3.2,2.28,6.51,4.63,10.08,5.78c5.08,1.84,10.83,1.23,15.8-1.69c4.96-2.91,8.38-7.6,9.44-12.96c-1.39-0.1-3.6,1.96-5.26,3.52
				c-1.03,0.97-2.01,1.88-2.83,2.37l-5.58,3.33l4.67-4.52c2-1.93,1.74-3.98,0.84-5.26c-1.01-1.42-3.23-2.39-5.73-1.14l-1.31,0.65
				l0.24-1.45c1.19-7.28,5.86-11.98,13.13-13.24c11.37-1.96,27.01,5.02,32.18,14.38c5.13,8.49,4,19.8-2.58,25.72l-0.15,0.1
				c-1.35,0.72-2.66,2.89-2.42,4c0.04,0.18,0.15,0.71,1.33,0.78l2.55,0.16l-2.23,1.25c-7.37,4.12-10.83,15.5-9.92,24.11l0.49,4.66
				l-1.92-4.27c-1.25-2.77-4.45-4.55-8.79-4.88c-6.01-0.45-12.23,1.88-14.53,5.42c-1.46,2.29-1.97,7.51-0.31,9.7
				c1.85-3.67,5.28-5.75,9.44-5.63c5.11,0.16,9.8,3.7,11.39,8.6c2.35,7.56,4.15,22.9-5.88,26.96l-0.81,0.33l-0.2-0.85
				c-0.36-1.5-0.74-1.64-0.74-1.64c-0.46-0.06-1.44,1.24-2.95,3.9c-0.31,0.55-0.59,1.04-0.82,1.39l-1.01,1.53l-0.81-4.08
				c-2.05,0.83-3.79,2.55-4.67,4.66c-0.08,0.46-0.24,0.89-0.44,1.25l-2.81,4.77l1.44-5.35c0.09-0.35,0.22-0.71,0.36-1.08
				c0.07-0.55-0.01-1.06-0.22-1.27c-0.03-0.03-0.1-0.1-0.28-0.1c-1.02,0.86-1.89,1.94-2.8,3.09c-0.6,0.76-1.23,1.54-1.9,2.25
				l-0.68,0.72l-0.51-0.85c-1.5-2.5-2.93-3.79-4.27-3.83c-0.02,0-0.04,0-0.07,0c-2.21,0-4.48,3.32-6.67,6.53
				c-1.16,1.7-2.37,3.46-3.63,4.85c-0.2,0.22-0.36,0.38-0.52,0.54l-0.1,0.11c-0.16,0.16-0.31,0.29-0.47,0.43l-0.15,0.14
				c-0.15,0.13-0.31,0.25-0.47,0.37l-0.15,0.12c-0.19,0.13-0.38,0.25-0.56,0.36c-1.67,1.66-3.59,2.53-5.57,2.53
				c-0.03,0-0.06,0-0.09,0c-2.11-0.03-4.17-1.03-5.95-2.9c-1.13-0.66-2.13-0.68-2.7-0.04c-0.61,0.69-0.66,2.09,0.41,3.44
				L265.3,329.15z M257.3,325.75c0.33,0.17,0.69,0.34,1.07,0.49c0.44,0.17,0.82,0.3,1.22,0.42l0.19,0.06
				c0.45,0.13,0.91,0.25,1.41,0.35c0.32,0.07,0.64,0.13,0.98,0.18c-0.62-1.56-0.31-3.06,0.47-3.95c0.85-0.96,2.53-1.52,4.69-0.2
				l0.16,0.13c1.52,1.62,3.23,2.48,4.96,2.51c0.02,0,0.05,0,0.07,0c1.6,0,3.18-0.75,4.58-2.16l0.17-0.13
				c0.18-0.1,0.35-0.21,0.52-0.33l0.12-0.1c0.14-0.1,0.27-0.2,0.4-0.31l0.12-0.11c0.14-0.12,0.28-0.24,0.41-0.37l0.63,0.43
				l-0.53-0.53c0.14-0.14,0.29-0.29,0.43-0.45c1.23-1.35,2.4-3.07,3.54-4.73c2.55-3.74,4.95-7.26,8.02-7.18
				c1.72,0.05,3.35,1.26,4.97,3.7c0.4-0.46,0.79-0.95,1.16-1.43c0.97-1.22,1.97-2.48,3.2-3.46l0.15-0.12l0.19-0.03
				c0.89-0.16,1.45,0.18,1.77,0.49c0.09,0.09,0.18,0.2,0.26,0.31c1.32-1.89,3.26-3.33,5.4-3.94l0.78-0.22l0.39,1.98
				c1.48-2.58,2.73-4.48,4.25-4.27c0.93,0.13,1.44,1.01,1.74,1.91c8.14-4.14,6.39-17.88,4.25-24.77c-1.4-4.3-5.52-7.42-10.01-7.56
				c-3.92-0.14-6.96,1.94-8.44,5.67l-0.34,0.85l-0.77-0.5c-3.48-2.27-2.58-9.6-0.8-12.4c2.58-3.98,9.41-6.6,15.91-6.11
				c3.63,0.28,6.58,1.5,8.47,3.44c-0.08-7.98,2.98-17.4,9.42-21.99c-0.65-0.43-0.89-1.03-0.98-1.45c-0.42-1.93,1.33-4.6,3.09-5.6
				c5.91-5.39,6.91-16.04,2.22-23.8c-4.92-8.9-19.8-15.53-30.63-13.65c-4.42,0.76-9.9,3.26-11.65,10.7
				c2.74-0.75,5.11,0.46,6.29,2.13c0.65,0.92,1.08,2.2,0.92,3.59c2.4-2.24,5.07-4.62,7.26-3.31l0.44,0.26l-0.08,0.5
				c-0.99,6.05-4.74,11.38-10.27,14.63c-5.36,3.14-11.58,3.8-17.05,1.82c-3.76-1.22-7.17-3.64-10.46-5.98
				c-3.71-2.64-7.25-5.16-11.2-6.01c0.13,0.18,0.25,0.38,0.35,0.58c0.91,1.76,0.76,4.12-0.36,5.9c-0.02,0.12-0.02,0.25-0.02,0.36
				c0,0.07,0,0.11,0,0.16c0.01,0.11,0.03,0.21,0.05,0.32c0.03,0.12,0.06,0.25,0.1,0.38l0.01,0.04c0.29,0.85,0.94,1.72,1.56,2.55
				c0.25,0.33,0.5,0.66,0.72,0.99c4.45,6.73,1.32,14.95-1.2,21.55c-0.22,0.59-0.44,1.17-0.66,1.74c-0.31,0.81-0.59,1.6-0.84,2.36
				c-0.05,0.16-0.1,0.31-0.15,0.46l-0.09,0.29c-0.16,0.5-0.32,1-0.45,1.49c-0.06,0.21-0.11,0.41-0.16,0.61l-0.06,0.22
				c-0.11,0.43-0.22,0.86-0.32,1.28c-0.06,0.28-0.12,0.55-0.18,0.83c-0.08,0.39-0.16,0.78-0.23,1.17c-0.05,0.27-0.09,0.53-0.13,0.79
				c-0.06,0.37-0.11,0.74-0.15,1.1c-0.03,0.25-0.06,0.5-0.09,0.74c-0.04,0.36-0.06,0.72-0.08,1.07l-0.01,0.19
				c-0.01,0.16-0.02,0.32-0.03,0.47c-0.01,0.37-0.02,0.74-0.02,1.1l0,0.52c0.01,0.51,0.03,1.01,0.07,1.49
				c0.04,0.53,0.09,1.01,0.15,1.48l0.07,0.46c0.05,0.31,0.09,0.62,0.15,0.91c0.03,0.14,0.06,0.28,0.09,0.41l0.02,0.1
				c0.06,0.27,0.11,0.53,0.18,0.79l0.11,0.43c0.09,0.33,0.16,0.57,0.23,0.81c0.05,0.17,0.1,0.33,0.15,0.5
				c0.08,0.24,0.15,0.47,0.23,0.7l0.17,0.46c0.08,0.24,0.17,0.46,0.26,0.69l0.17,0.43c0.1,0.24,0.2,0.48,0.3,0.71l0.15,0.35
				c0.14,0.33,0.29,0.65,0.43,0.97l2.1,4.66c0.07,0.19,0.14,0.37,0.21,0.56l0.1,0.29c0.1,0.28,0.19,0.56,0.27,0.84
				c0.08,0.29,0.15,0.57,0.21,0.85l0.04,0.2c0.05,0.27,0.09,0.46,0.12,0.66l0.03,0.25c0.03,0.26,0.05,0.45,0.06,0.63
				c0.01,0.12,0.01,0.24,0.01,0.37c0,0.17,0,0.36,0,0.54c0,0.13-0.01,0.25-0.02,0.37c-0.01,0.19-0.03,0.38-0.06,0.57
				c-0.02,0.15-0.03,0.26-0.05,0.36c-0.03,0.21-0.08,0.42-0.13,0.63c-0.03,0.16-0.05,0.24-0.07,0.31c-0.08,0.32-0.18,0.65-0.3,0.98
				l-0.07,0.19l-1.12,0.92c-5.16,4.22-9.62,7.86-9.15,15.43l-0.04,0.8c-0.08,1.3-0.2,2.57-0.3,3.81c-0.07,0.8-0.14,1.59-0.2,2.36
				l-0.12,1.97c-0.01,0.29-0.02,0.58-0.03,0.86l0,0.23c-0.01,0.28-0.01,0.55-0.01,0.83l0.01,0.28c0,0.22,0.01,0.44,0.02,0.66
				l0.02,0.3c0.01,0.21,0.03,0.42,0.05,0.63l0.03,0.26c0.02,0.24,0.06,0.46,0.09,0.68l0.01,0.1c0.11,0.65,0.24,1.19,0.4,1.69
				l-0.67,0.35l0.71-0.24c0.07,0.21,0.15,0.42,0.24,0.62l0.07,0.15c0.09,0.19,0.18,0.37,0.27,0.55l0.09,0.15
				c0.11,0.19,0.22,0.37,0.35,0.54l-0.54,0.53l0.61-0.44c0.32,0.43,0.68,0.83,1.09,1.19c0.26,0.22,0.45,0.37,0.66,0.51l0.09,0.06
				c0.31,0.21,0.58,0.37,0.86,0.52l-0.24,0.72L257.3,325.75z M213.08,329.14l1.12-1.41c1.07-1.35,1.02-2.75,0.41-3.44
				c-0.57-0.64-1.57-0.63-2.7,0.04c-1.78,1.87-3.84,2.87-5.95,2.9c-2,0.04-3.96-0.85-5.66-2.53c-2.23-1.3-4.18-4.15-6.07-6.91
				c-2.19-3.21-4.46-6.53-6.67-6.53c-0.02,0-0.04,0-0.07,0c-1.34,0.04-2.77,1.33-4.27,3.83l-0.51,0.85l-0.72-0.77
				c-0.66-0.7-1.27-1.46-1.86-2.2c-0.54-0.67-1.09-1.37-1.67-1.99c-0.21-0.23-0.38-0.4-0.55-0.56l0.4-0.66l-0.52,0.54
				c-0.15-0.15-0.31-0.29-0.47-0.42c-0.18,0-0.25,0.07-0.28,0.1c-0.21,0.2-0.29,0.72-0.22,1.27c0.15,0.37,0.27,0.73,0.36,1.08
				l1.43,5.35l-2.8-4.78c-0.21-0.35-0.36-0.78-0.44-1.24c-0.88-2.11-2.63-3.83-4.67-4.66l-0.81,4.08l-1.01-1.53
				c-0.23-0.34-0.5-0.83-0.82-1.39c-1.5-2.66-2.5-3.95-2.95-3.9c0,0-0.39,0.15-0.74,1.64l-0.2,0.85l-0.81-0.33
				c-10.02-4.06-8.23-19.4-5.88-26.95c1.6-4.91,6.28-8.45,11.39-8.61c4.15-0.14,7.59,1.95,9.44,5.63c1.66-2.2,1.15-7.41-0.32-9.71
				c-0.12-0.19-0.26-0.38-0.4-0.56l-0.16-0.18c-0.14-0.17-0.22-0.27-0.31-0.36l-0.29-0.28c-0.08-0.08-0.16-0.16-0.25-0.24
				l-0.33-0.28c-0.08-0.07-0.17-0.14-0.26-0.21l-0.41-0.3c-0.07-0.06-0.15-0.11-0.23-0.16c-0.07-0.05-0.14-0.09-0.21-0.13
				l-0.26-0.16c-0.07-0.05-0.15-0.09-0.22-0.14c-0.1-0.06-0.19-0.11-0.28-0.16l-0.23-0.12c-0.07-0.04-0.15-0.08-0.23-0.12
				c-0.12-0.06-0.24-0.12-0.35-0.17l-0.42-0.2c-0.13-0.06-0.26-0.11-0.39-0.16l-0.42-0.17c-0.17-0.07-0.35-0.13-0.52-0.19
				l-0.33-0.12c-0.19-0.06-0.4-0.12-0.6-0.18l-0.27-0.08c-0.22-0.06-0.45-0.12-0.69-0.18l-0.19-0.05c-0.25-0.06-0.5-0.11-0.76-0.16
				l-0.01-0.77l-0.14,0.74c-0.27-0.05-0.54-0.1-0.81-0.14l0.01-0.76l-0.11,0.74c-0.29-0.04-0.58-0.08-0.87-0.11
				c-4.45-0.45-10.29,0.51-12.3,4.66l-1.97,4.26l0.45-4.49c0.91-8.62-2.55-19.99-9.92-24.11l-2.23-1.25l2.55-0.16
				c1.18-0.07,1.3-0.6,1.33-0.78c0.24-1.11-1.07-3.28-2.42-4l-0.15-0.1c-6.58-5.92-7.71-17.23-2.56-25.74
				c5.16-9.33,20.8-16.31,32.16-14.36c7.28,1.26,11.94,5.96,13.13,13.24l0.24,1.45l-1.31-0.65c-2.5-1.25-4.72-0.28-5.73,1.14
				c-0.9,1.28-1.16,3.33,0.84,5.26l4.68,4.52l-5.58-3.33c-0.82-0.49-1.79-1.4-2.83-2.37c-1.67-1.56-3.89-3.62-5.26-3.52
				c1.06,5.35,4.48,10.05,9.44,12.96c4.97,2.92,10.72,3.54,15.78,1.7c3.59-1.16,6.9-3.52,10.1-5.79c4.75-3.38,9.68-6.86,15.6-6.58
				l-0.01,1.5c-1.47,0.05-2.19,0.88-2.54,1.56c-0.68,1.32-0.53,3.18,0.36,4.52l0.11,0.25c0.07,0.29,0.08,0.57,0.08,0.8
				c0,0.14,0,0.21-0.01,0.29c-0.01,0.18-0.04,0.38-0.08,0.57c-0.04,0.18-0.09,0.34-0.14,0.51c-0.36,1.09-1.09,2.06-1.79,3
				c-0.24,0.32-0.47,0.63-0.69,0.94c-4.02,6.07-1.16,13.56,1.36,20.17c0.22,0.59,0.45,1.17,0.66,1.74c0.32,0.83,0.6,1.64,0.87,2.43
				c0.06,0.17,0.11,0.33,0.16,0.5l0.08,0.27c0.17,0.52,0.33,1.04,0.47,1.54c0.06,0.23,0.12,0.45,0.18,0.67l0.05,0.19
				c0.12,0.45,0.23,0.89,0.33,1.33c0.07,0.29,0.13,0.58,0.19,0.86c0.09,0.42,0.17,0.82,0.24,1.23c0.05,0.28,0.1,0.55,0.14,0.82
				c0.06,0.4,0.11,0.79,0.16,1.17c0.04,0.29,0.06,0.53,0.09,0.75c0.04,0.4,0.07,0.78,0.09,1.17l0.01,0.21
				c0.01,0.15,0.02,0.3,0.03,0.44c0.02,0.46,0.02,0.91,0.02,1.35l0,0.36c-0.01,0.56-0.04,1.1-0.08,1.62
				c-0.01,0.09-0.02,0.19-0.03,0.28l-0.02,0.15c-0.03,0.37-0.07,0.75-0.12,1.11c-0.02,0.13-0.04,0.26-0.06,0.39l-0.03,0.16
				c-0.05,0.31-0.1,0.62-0.16,0.92l-0.12,0.55c-0.06,0.29-0.13,0.57-0.2,0.85c-0.04,0.17-0.09,0.35-0.14,0.52
				c-0.08,0.28-0.15,0.55-0.23,0.81l-0.15,0.47c-0.09,0.28-0.19,0.56-0.28,0.83l-0.14,0.39c-0.12,0.32-0.24,0.64-0.37,0.95
				l-0.08,0.2c-0.32,0.78-0.65,1.52-0.98,2.24l-0.57,1.23c-0.21,0.44-0.41,0.88-0.61,1.31l-0.05,0.12c-0.1,0.22-0.2,0.45-0.3,0.67
				l-0.1,0.24c-0.08,0.18-0.16,0.37-0.23,0.56l-0.1,0.26c-0.07,0.18-0.14,0.36-0.2,0.54l-0.09,0.25c-0.07,0.2-0.13,0.4-0.19,0.6
				l-0.06,0.18c-0.07,0.25-0.14,0.5-0.19,0.76l-0.76-0.01l0.74,0.15c-0.04,0.2-0.08,0.41-0.11,0.61l-0.03,0.26
				c-0.02,0.17-0.03,0.33-0.04,0.49l-0.01,0.23c-0.01,0.22,0,0.38,0,0.54c0,0.1,0.01,0.2,0.01,0.31c0.01,0.16,0.03,0.32,0.05,0.49
				c0.02,0.13,0.03,0.22,0.04,0.3c0.03,0.18,0.07,0.37,0.11,0.55l0.06,0.27c0.05,0.21,0.12,0.43,0.19,0.65l0.79,0.65
				c5.25,4.29,10.22,8.35,9.71,16.69c0.08,1.46,0.22,2.98,0.35,4.46l0.35,5.14c0.01,0.29,0.01,0.57,0.01,0.85l0,0.21
				c0,0.35-0.01,0.69-0.02,1.03l-0.02,0.29c-0.01,0.25-0.03,0.5-0.05,0.74l-0.03,0.32c-0.03,0.25-0.06,0.49-0.09,0.73l-0.04,0.26
				c-0.06,0.33-0.12,0.65-0.2,0.96l-0.03,0.1c-0.07,0.26-0.15,0.54-0.24,0.82l-0.08,0.23c-0.09,0.25-0.18,0.47-0.27,0.68l-0.11,0.24
				c-0.12,0.25-0.25,0.5-0.39,0.74l-0.06,0.11c-0.16,0.27-0.35,0.53-0.54,0.79l-0.09,0.11c-0.2,0.25-0.38,0.44-0.56,0.63l-0.2,0.2
				c-0.18,0.18-0.38,0.35-0.58,0.52l-0.2,0.16c-0.55,0.42-1.18,0.81-1.87,1.14l-0.23,0.11c-0.31,0.14-0.55,0.24-0.81,0.34
				l-0.21,0.08c-0.38,0.14-0.71,0.25-1.05,0.35c-0.92,0.26-1.82,0.46-2.77,0.62l-0.82,0.12c-0.23,0.03-0.46,0.06-0.7,0.09
				L213.08,329.14z M213.49,322.32c0.98,0,1.75,0.42,2.24,0.98c0.78,0.89,1.09,2.39,0.48,3.94c0.87-0.14,1.69-0.32,2.44-0.54
				c0.4-0.12,0.69-0.22,0.98-0.32l0.25-0.09c0.23-0.09,0.45-0.18,0.65-0.27l0.27-0.12c0.6-0.29,1.14-0.62,1.61-0.98l0.1-0.08
				c0.23-0.19,0.39-0.33,0.55-0.48l0.17-0.17c0.15-0.16,0.3-0.32,0.43-0.48l0.07-0.08c0.2-0.26,0.36-0.48,0.5-0.71l0.69,0.29
				l-0.65-0.38c0.12-0.2,0.23-0.4,0.33-0.61l0.09-0.2c0.08-0.19,0.16-0.37,0.22-0.56l0.08-0.22c0.08-0.24,0.15-0.48,0.21-0.73
				c0.09-0.35,0.14-0.63,0.19-0.92l0.04-0.24c0.03-0.21,0.06-0.44,0.08-0.66l0.03-0.3c0.02-0.23,0.04-0.46,0.05-0.69l0.02-0.27
				c0.01-0.32,0.02-0.64,0.02-0.96l0-0.12c0-0.35-0.01-0.62-0.01-0.89l-0.34-5.05c-0.13-1.49-0.27-3.02-0.35-4.59
				c0.47-7.66-3.99-11.3-9.16-15.52l-1.12-0.92l-0.07-0.2c-0.12-0.33-0.21-0.65-0.29-0.97l-0.07-0.31c-0.05-0.22-0.1-0.43-0.13-0.64
				c-0.02-0.1-0.03-0.21-0.04-0.32c-0.03-0.23-0.05-0.42-0.06-0.61c-0.01-0.12-0.01-0.24-0.02-0.36c0-0.19-0.01-0.38,0-0.56
				l0.01-0.34c0.01-0.2,0.03-0.39,0.05-0.58l0.03-0.3c0.03-0.24,0.08-0.47,0.12-0.7l0.03-0.16c0.06-0.28,0.13-0.57,0.21-0.85
				l0.04-0.12c0.09-0.29,0.15-0.5,0.23-0.72l0.07-0.21c0.09-0.25,0.16-0.45,0.24-0.64l0.11-0.28c0.08-0.2,0.16-0.39,0.25-0.59
				l0.11-0.25c0.1-0.23,0.2-0.46,0.31-0.69l0.74,0.19l-0.68-0.31c0.2-0.43,0.41-0.88,0.62-1.32l0.57-1.22
				c0.32-0.7,0.65-1.43,0.96-2.19l0.05-0.12c0.15-0.37,0.27-0.68,0.38-0.99l0.13-0.37c0.09-0.26,0.18-0.52,0.27-0.79l0.14-0.45
				c0.08-0.25,0.15-0.51,0.22-0.77c0.04-0.16,0.09-0.33,0.13-0.49c0.07-0.26,0.13-0.53,0.19-0.8l0.11-0.52
				c0.06-0.28,0.1-0.57,0.15-0.87l0.03-0.17c0.02-0.11,0.04-0.23,0.05-0.35c0.05-0.34,0.08-0.69,0.12-1.04l0.04-0.41
				c0.04-0.5,0.06-1.01,0.08-1.54l0-0.35c0-0.42,0-0.84-0.02-1.28c-0.01-0.13-0.01-0.26-0.02-0.4l-0.01-0.22
				c-0.02-0.37-0.05-0.73-0.08-1.11c-0.02-0.22-0.05-0.44-0.08-0.66c-0.05-0.43-0.1-0.8-0.16-1.18c-0.04-0.26-0.08-0.52-0.13-0.79
				c-0.07-0.39-0.14-0.78-0.23-1.18c-0.06-0.27-0.12-0.55-0.18-0.83c-0.1-0.42-0.21-0.85-0.32-1.28l-0.05-0.2
				c-0.06-0.21-0.11-0.42-0.17-0.64c-0.14-0.48-0.29-0.99-0.45-1.49l-0.09-0.29c-0.05-0.15-0.09-0.31-0.15-0.46
				c-0.26-0.77-0.54-1.56-0.85-2.37c-0.21-0.57-0.43-1.15-0.66-1.74c-2.52-6.6-5.65-14.82-1.2-21.54c0.23-0.34,0.48-0.67,0.73-1
				c0.63-0.84,1.29-1.72,1.57-2.58c0.04-0.12,0.07-0.24,0.1-0.35c0.02-0.11,0.04-0.23,0.05-0.36l0-0.1c0-0.17,0-0.3-0.02-0.42
				c-1.12-1.79-1.27-4.14-0.36-5.9c0.11-0.21,0.22-0.4,0.35-0.58c-3.94,0.85-7.49,3.38-11.2,6.01c-3.29,2.34-6.7,4.76-10.49,5.99
				c-5.45,1.98-11.66,1.32-17.02-1.82c-5.54-3.25-9.28-8.58-10.27-14.63l-0.08-0.5l0.44-0.26c2.19-1.31,4.86,1.07,7.26,3.31
				c-0.17-1.39,0.27-2.66,0.92-3.59c1.18-1.66,3.55-2.88,6.29-2.13c-1.75-7.44-7.23-9.93-11.65-10.7
				c-10.84-1.88-25.7,4.75-30.61,13.63c-4.7,7.78-3.7,18.43,2.2,23.82c1.76,1,3.51,3.67,3.09,5.6c-0.09,0.42-0.33,1.02-0.98,1.45
				c6.45,4.58,9.5,14.01,9.42,21.99c2.95-3.08,8.03-3.81,12.28-3.39c0.36,0.04,0.67,0.08,0.98,0.12l0.12,0.02
				c0.28,0.04,0.57,0.09,0.85,0.14l0.16,0.03c0.27,0.05,0.54,0.11,0.81,0.17l0.14,0.03c0.32,0.08,0.57,0.14,0.81,0.21l0.18,0.05
				l-0.11,0.75l0.21-0.72c0.22,0.06,0.43,0.13,0.65,0.2l0.31,0.11c0.23,0.08,0.42,0.15,0.61,0.22l0.45,0.18
				c0.14,0.06,0.29,0.12,0.43,0.18l0.36,0.17c0.22,0.1,0.36,0.17,0.49,0.23c0.09,0.05,0.19,0.1,0.28,0.15l0.2,0.11
				c0.11,0.06,0.23,0.12,0.33,0.18c0.09,0.05,0.18,0.11,0.27,0.17l0.24,0.15c0.09,0.05,0.18,0.11,0.26,0.17
				c0.09,0.06,0.19,0.13,0.28,0.2l0.2,0.15c0.08,0.06,0.16,0.11,0.24,0.17c0.11,0.08,0.21,0.17,0.31,0.26l0.36,0.3
				c0.11,0.1,0.21,0.2,0.31,0.3l0.15,0.15c0.05,0.05,0.11,0.1,0.16,0.15c0.11,0.12,0.22,0.24,0.32,0.36l0.12,0.14
				c0.04,0.05,0.08,0.1,0.12,0.14c0.18,0.22,0.34,0.45,0.49,0.68c1.79,2.8,2.69,10.13-0.79,12.41l-0.77,0.5l-0.34-0.85
				c-1.48-3.72-4.51-5.81-8.44-5.67c-4.49,0.14-8.61,3.25-10.01,7.57c-2.14,6.88-3.89,20.62,4.25,24.76
				c0.31-0.9,0.82-1.78,1.74-1.91c1.49-0.21,2.77,1.69,4.25,4.27l0.39-1.98l0.78,0.22c2.15,0.61,4.09,2.05,5.4,3.94
				c0.08-0.12,0.16-0.22,0.26-0.31c0.31-0.31,0.87-0.65,1.77-0.49l0.19,0.03l0.15,0.12c0.25,0.2,0.5,0.42,0.73,0.64l0.09,0.09
				c0.23,0.22,0.41,0.41,0.59,0.6l0.07,0.08c0.59,0.64,1.16,1.36,1.72,2.05c0.38,0.47,0.77,0.96,1.16,1.42
				c1.62-2.44,3.26-3.65,4.97-3.7c0.04,0,0.08,0,0.12,0c3,0,5.38,3.49,7.91,7.18c1.81,2.66,3.69,5.4,5.65,6.5l0.17,0.13
				c1.42,1.43,3.03,2.2,4.65,2.16c1.72-0.02,3.44-0.89,4.95-2.51l0.16-0.13C211.95,322.55,212.77,322.32,213.49,322.32z
				 M304.38,328.12c-0.01,0-0.02,0-0.03,0c-3.42-0.01-5.75-1.23-6.07-3.2c-0.62-3.82,6.4-8.48,19.24-12.79
				c0.44-0.19,0.9-0.37,1.35-0.55c2.04-0.8,3.96-1.56,4.93-3.36l2.13-3.92l-0.73,4.4C322.84,322.96,311.46,328.12,304.38,328.12z
				 M323.15,311.14c-1.14,0.82-2.48,1.35-3.72,1.84c-0.45,0.18-0.9,0.36-1.34,0.54l-0.06,0.02c-14.05,4.71-18.63,8.95-18.27,11.14
				c0.19,1.16,2.03,1.94,4.59,1.94c0.01,0,0.02,0,0.03,0C310.49,326.62,320.05,322.45,323.15,311.14z M317.79,312.83L317.79,312.83
				L317.79,312.83z M174,328.12c-7.09,0-18.46-5.17-20.83-19.42l-0.73-4.4l2.13,3.92c0.97,1.79,2.9,2.55,4.93,3.36
				c0.47,0.19,0.93,0.37,1.38,0.57c12.81,4.29,19.83,8.96,19.21,12.78c-0.32,1.97-2.64,3.2-6.07,3.2
				C174.02,328.12,174.01,328.12,174,328.12z M155.23,311.14c3.09,11.31,12.65,15.49,18.77,15.49c0.01,0,0.02,0,0.03,0
				c2.56-0.01,4.4-0.79,4.59-1.94c0.36-2.19-4.22-6.42-18.27-11.14c-0.5-0.21-0.95-0.39-1.4-0.57
				C157.71,312.49,156.37,311.96,155.23,311.14z"/>
		</g>
		<g id="Light_00000110470187360086769600000013366387049755695531_">
			<g>
				<g>
					<path class="st7" d="M52.43,155.96c-4.21,0-8.68-0.54-12.8-2.09c-0.39-0.15-0.58-0.58-0.44-0.97c0.15-0.39,0.58-0.58,0.97-0.44
						c8.93,3.37,19.73,1.73,25.37,0.44c0.4-0.09,0.8,0.16,0.9,0.57c0.09,0.4-0.16,0.81-0.57,0.9
						C62.63,155.11,57.74,155.96,52.43,155.96z"/>
				</g>
				<g>
					<path class="st7" d="M52.5,143.26c-0.96,0-1.94-0.27-2.86-0.8c-1.51-0.87-2.6-2.32-2.83-3.78l0,0
						c-0.35-2.17,2.14-21.46,4.15-23.82c0.31-0.37,0.65-0.45,0.87-0.45c3.45,0,6.45,17.37,6.47,18.8c0.03,1.59-0.3,3.13-0.61,4.62
						c-0.28,1.34-0.87,4.12-3.48,5.11C53.66,143.15,53.09,143.26,52.5,143.26z M48.29,138.44c0.16,1.01,0.99,2.07,2.11,2.72
						c1.08,0.62,2.27,0.77,3.27,0.39c1.53-0.58,2.13-2.03,2.54-4.02c0.3-1.41,0.6-2.87,0.58-4.29c-0.05-3.04-3.12-15.77-4.83-17.22
						C50.58,118.42,47.92,136.13,48.29,138.44L48.29,138.44z"/>
				</g>
				<g>
					<path class="st7" d="M52.93,155c-0.24,0-0.45-0.17-0.49-0.41c-0.16-0.92,0.17-1.72,0.49-2.5c0.19-0.46,0.37-0.89,0.44-1.33
						c0.14-0.82-0.06-1.66-0.28-2.55l-0.11-0.48c-0.39-1.71-0.53-3.48-0.43-5.25c0.02-0.28,0.23-0.49,0.53-0.47
						c0.28,0.02,0.49,0.25,0.47,0.53c-0.1,1.67,0.03,3.35,0.4,4.97l0.11,0.46c0.23,0.95,0.47,1.94,0.29,2.96
						c-0.09,0.55-0.3,1.05-0.5,1.54c-0.28,0.68-0.54,1.32-0.43,1.95c0.05,0.27-0.13,0.53-0.41,0.58C52.99,155,52.96,155,52.93,155z"
						/>
				</g>
			</g>
			<g>
				<g>
					<path class="st7" d="M232.01,80.37c-2.25,0-4.5-0.05-6.74-0.15c-0.41-0.02-0.73-0.37-0.71-0.78s0.36-0.76,0.78-0.71
						c9.16,0.42,18.42-0.03,27.5-1.33c0.41-0.07,0.79,0.23,0.85,0.64s-0.23,0.79-0.64,0.85C246.1,79.87,239.04,80.37,232.01,80.37z"
						/>
				</g>
				<g>
					<path class="st7" d="M240.29,68.38c-0.59,0-1.16-0.1-1.7-0.31c-2.62-0.99-3.2-3.78-3.48-5.11c-0.31-1.49-0.64-3.04-0.61-4.62
						c0.02-1.43,3.03-18.8,6.47-18.8c0.22,0,0.55,0.08,0.87,0.45c2,2.35,4.5,21.64,4.14,23.82l0,0c-0.24,1.46-1.32,2.9-2.83,3.78
						C242.24,68.11,241.25,68.38,240.29,68.38z M240.83,41.14c-0.48,0.47-1.58,2.51-2.98,7.82c-1.12,4.28-1.84,8.36-1.85,9.4
						c-0.02,1.41,0.28,2.87,0.58,4.29c0.42,1.99,1.01,3.44,2.54,4.02c1,0.38,2.19,0.24,3.27-0.39c1.12-0.64,1.94-1.71,2.1-2.72
						C244.88,61.25,242.21,43.52,240.83,41.14z M245.24,63.68L245.24,63.68L245.24,63.68z"/>
				</g>
				<g>
					<path class="st7" d="M239.87,80.12c-0.03,0-0.06,0-0.09-0.01c-0.27-0.05-0.45-0.31-0.41-0.58c0.11-0.63-0.15-1.27-0.43-1.95
						c-0.2-0.49-0.41-0.99-0.5-1.54c-0.18-1.02,0.06-2,0.29-2.96l0.11-0.47c0.37-1.62,0.5-3.29,0.4-4.97
						c-0.02-0.28,0.19-0.51,0.47-0.53c0.3-0.03,0.51,0.19,0.53,0.47c0.11,1.77-0.04,3.54-0.43,5.25l-0.11,0.48
						c-0.21,0.89-0.42,1.74-0.28,2.55c0.08,0.44,0.25,0.87,0.44,1.33c0.32,0.78,0.65,1.58,0.49,2.5
						C240.31,79.95,240.1,80.12,239.87,80.12z"/>
				</g>
			</g>
			<g>
				<g>
					<path class="st7" d="M432.29,154.36c-6.47,0-12.95-0.36-19.36-1.08c-0.41-0.05-0.71-0.42-0.66-0.83
						c0.05-0.41,0.42-0.71,0.83-0.66c8.85,0.99,17.86,1.29,26.75,0.9c0.4-0.03,0.76,0.3,0.78,0.72c0.02,0.41-0.3,0.76-0.72,0.78
						C437.38,154.31,434.83,154.36,432.29,154.36z"/>
				</g>
				<g>
					<path class="st7" d="M426.41,142.37c-0.96,0-1.94-0.27-2.86-0.8c-1.51-0.87-2.6-2.32-2.83-3.78l0,0
						c-0.35-2.17,2.14-21.46,4.14-23.82c0.31-0.37,0.65-0.45,0.87-0.45l0,0c3.44,0,6.45,17.37,6.47,18.8
						c0.03,1.58-0.3,3.13-0.61,4.62c-0.28,1.34-0.87,4.12-3.48,5.11C427.57,142.27,427,142.37,426.41,142.37z M425.88,115.14
						c-1.38,2.39-4.04,20.11-3.67,22.42l0,0c0.16,1.01,0.99,2.07,2.1,2.72c1.08,0.62,2.27,0.77,3.27,0.39
						c1.53-0.58,2.13-2.03,2.54-4.02c0.3-1.41,0.61-2.87,0.58-4.29C430.66,129.31,427.58,116.59,425.88,115.14z"/>
				</g>
				<g>
					<path class="st7" d="M426.84,154.11c-0.24,0-0.45-0.17-0.49-0.41c-0.16-0.92,0.17-1.72,0.49-2.5c0.19-0.46,0.37-0.89,0.44-1.33
						c0.14-0.81-0.06-1.65-0.27-2.55l-0.11-0.49c-0.39-1.71-0.53-3.48-0.43-5.25c0.02-0.27,0.22-0.5,0.53-0.47
						c0.28,0.02,0.49,0.25,0.47,0.53c-0.1,1.68,0.04,3.35,0.4,4.97l0.11,0.47c0.23,0.95,0.46,1.93,0.29,2.95
						c-0.1,0.55-0.3,1.05-0.5,1.54c-0.28,0.68-0.54,1.32-0.43,1.95c0.05,0.27-0.13,0.53-0.41,0.58
						C426.9,154.11,426.87,154.11,426.84,154.11z"/>
				</g>
			</g>
		</g>
		<g id="Line_00000098189676720636378540000002084548676648335539_">
			<g>
				<g>
					<path class="st7" d="M426.48,242.75c-0.86,0-1.71-0.07-2.55-0.2c-0.27-0.04-0.46-0.3-0.41-0.57c0.04-0.27,0.31-0.47,0.57-0.41
						c3.58,0.58,7.42-0.18,10.54-2.07c0.23-0.14,0.54-0.07,0.69,0.17c0.14,0.24,0.07,0.54-0.17,0.69
						C432.56,241.91,429.5,242.75,426.48,242.75z"/>
				</g>
				<g>
					<path class="st7" d="M437.17,267.32h-6.35c-0.28,0-0.5-0.22-0.5-0.5s0.22-0.5,0.5-0.5h6.35c0.28,0,0.5,0.22,0.5,0.5
						S437.45,267.32,437.17,267.32z"/>
				</g>
				<g>
					<path class="st7" d="M418.61,243.19c-0.02,0-0.04,0-0.05,0c-1.92-0.21-3.78-0.75-5.53-1.61c-0.25-0.12-0.35-0.42-0.23-0.67
						s0.42-0.35,0.67-0.23c1.64,0.81,3.38,1.32,5.19,1.51c0.27,0.03,0.47,0.28,0.44,0.55C419.08,243,418.87,243.19,418.61,243.19z"
						/>
				</g>
				<g>
					<path class="st7" d="M429.04,203.55c-6.45,0-12.91-0.47-19.28-1.42c-0.27-0.04-0.46-0.29-0.42-0.57
						c0.04-0.27,0.3-0.46,0.57-0.42c9.32,1.38,18.81,1.75,28.21,1.09c0.26-0.02,0.51,0.19,0.53,0.46s-0.19,0.51-0.46,0.53
						C435.15,203.45,432.09,203.55,429.04,203.55z"/>
				</g>
				<g>
					<path class="st7" d="M418.05,192.73c-3.1,0-6.2-0.21-9.26-0.63c-0.27-0.04-0.46-0.29-0.43-0.56s0.3-0.48,0.56-0.43
						c4.16,0.57,8.39,0.74,12.59,0.53c3.39-0.18,9.46-0.1,14.34-0.04c2.2,0.03,4.21,0.05,5.7,0.05c0.28,0,0.5,0.22,0.5,0.5
						s-0.22,0.5-0.5,0.5c-1.5,0-3.51-0.03-5.72-0.05c-4.86-0.06-10.92-0.14-14.28,0.04C420.4,192.7,419.23,192.73,418.05,192.73z"/>
				</g>
				<g>
					<path class="st7" d="M386.43,308.73c-0.22,0-0.43-0.15-0.48-0.38c-0.07-0.27,0.09-0.54,0.36-0.61
						c7.68-1.97,15.46-7.86,23.14-17.49c0.17-0.22,0.49-0.25,0.7-0.08c0.22,0.17,0.25,0.49,0.08,0.7
						c-7.81,9.8-15.78,15.8-23.67,17.83C386.51,308.73,386.47,308.73,386.43,308.73z"/>
				</g>
				<g>
					<path class="st7" d="M409.39,297.52c-0.13,0-0.27-0.05-0.36-0.16c-0.19-0.2-0.18-0.52,0.02-0.71
						c5.8-5.45,10.35-11.98,14.52-18.19c0.15-0.23,0.46-0.29,0.69-0.14c0.23,0.15,0.29,0.46,0.14,0.69
						c-4.2,6.27-8.79,12.84-14.66,18.37C409.63,297.47,409.51,297.52,409.39,297.52z"/>
				</g>
				<g>
					<path class="st7" d="M379.52,310.35c-0.01,0-0.02,0-0.03,0c-0.47-0.03-0.97-0.05-1.5-0.07c-4.68-0.2-11.75-0.51-20.2-5.58
						c-0.24-0.14-0.31-0.45-0.17-0.69c0.14-0.24,0.45-0.31,0.69-0.17c8.23,4.94,15.15,5.24,19.73,5.43
						c0.54,0.02,1.04,0.04,1.52,0.07c0.28,0.02,0.49,0.25,0.47,0.53C380,310.14,379.78,310.35,379.52,310.35z"/>
				</g>
				<g>
					<path class="st7" d="M425.45,223C425.44,223,425.44,223,425.45,223c-0.07,0-6.88-0.09-11.71-0.33
						c-0.28-0.01-0.49-0.25-0.47-0.52c0.01-0.28,0.2-0.5,0.52-0.47c4.81,0.24,11.6,0.33,11.67,0.33c0.28,0,0.5,0.23,0.49,0.51
						C425.94,222.78,425.72,223,425.45,223z"/>
				</g>
			</g>
			<g>
				<g>
					<path class="st7" d="M239.64,280.24c-12.68,0-21.87-3.38-22-3.43c-0.26-0.1-0.39-0.39-0.29-0.64c0.1-0.26,0.39-0.39,0.64-0.29
						c0.2,0.08,20.55,7.55,42.42,0c0.26-0.09,0.55,0.05,0.64,0.31s-0.05,0.55-0.31,0.64C253.29,279.38,246.02,280.24,239.64,280.24z
						"/>
				</g>
				<g>
					<path class="st7" d="M241.51,225.2c-5.93,0-11.89-0.33-17.78-0.97c-0.27-0.03-0.47-0.28-0.44-0.55
						c0.03-0.28,0.28-0.48,0.55-0.44c7.41,0.81,14.95,1.12,22.4,0.9c0.29,0.02,0.51,0.21,0.51,0.49s-0.21,0.51-0.49,0.51
						C244.68,225.17,243.1,225.2,241.51,225.2z"/>
				</g>
				<g>
					<path class="st7" d="M242.68,211.28c-3.56,0-7.12-0.22-10.65-0.65c-0.27-0.03-0.47-0.28-0.43-0.56
						c0.03-0.27,0.27-0.48,0.56-0.43c6.92,0.85,13.94,0.86,20.87,0.02c0.27-0.04,0.52,0.16,0.56,0.44c0.03,0.27-0.16,0.52-0.44,0.56
						C249.68,211.07,246.18,211.28,242.68,211.28z"/>
				</g>
				<g>
					<path class="st7" d="M242.55,204.06c-4.73,0-9.95-0.22-15.4-0.99l0.13-0.99c6.92,0.78,13.96,1.08,20.92,0.9c0,0,0,0,0,0l0,0
						l0.03,1l0,0l0,0c0,0,0,0,0,0C246.43,204.02,244.53,204.06,242.55,204.06z"/>
				</g>
				<g>
					<path class="st7" d="M239.13,196.76c-2.86,0-5.73-0.16-8.57-0.47c-0.27-0.03-0.47-0.28-0.44-0.55
						c0.03-0.28,0.28-0.48,0.55-0.44c6.13,0.68,12.33,0.61,18.44-0.18c0.26-0.04,0.52,0.16,0.56,0.43c0.04,0.27-0.16,0.52-0.43,0.56
						C245.89,196.54,242.51,196.76,239.13,196.76z"/>
				</g>
				<g>
					<path class="st7" d="M240.22,179.24c-1.93,0-3.85-0.1-5.76-0.31c-0.28-0.03-0.47-0.28-0.44-0.55c0.03-0.28,0.29-0.47,0.55-0.44
						c3.05,0.33,6.15,0.39,9.22,0.18c0.25-0.01,0.51,0.19,0.53,0.47c0.02,0.28-0.19,0.51-0.47,0.53
						C242.64,179.2,241.43,179.24,240.22,179.24z"/>
				</g>
				<g>
					<path class="st7" d="M237.34,307.02c-2.3,0-4.6-0.03-6.89-0.1c-0.28-0.01-0.49-0.24-0.49-0.51c0.01-0.28,0.26-0.47,0.51-0.49
						c5.76,0.17,11.61,0.13,17.38-0.14c0.26-0.05,0.51,0.2,0.52,0.48c0.01,0.28-0.2,0.51-0.48,0.52
						C244.41,306.93,240.87,307.02,237.34,307.02z"/>
				</g>
				<g>
					<path class="st7" d="M230.98,312.22c-0.5,0-1,0-1.49,0c-0.28,0-0.5-0.23-0.5-0.5s0.18-0.51,0.5-0.5
						c6.37,0.04,12.81-0.18,19.17-0.64c0.24-0.03,0.51,0.19,0.54,0.46c0.02,0.28-0.19,0.51-0.46,0.54
						C242.84,312,236.88,312.22,230.98,312.22z"/>
				</g>
				<g>
					<path class="st7" d="M236.69,373.69c-0.14,0-0.27-0.06-0.37-0.17c-4.23-4.7-3.08-10.51-1.97-16.13c0.2-1,0.39-1.99,0.55-2.96
						c1.1-6.66-0.35-10.67-4.57-12.61c-1.9-0.88-4.62-0.73-6.61,0.34c-1.05,0.57-2.35,1.64-2.63,3.52
						c-0.41,2.79,1.34,5.68,3.29,7.08c0.91,0.65,2.3,1.15,3.36,0.79c0.6-0.21,1.02-0.68,1.23-1.42c0.49-1.68-0.16-3.92-0.64-5.55
						c-0.08-0.27,0.07-0.54,0.34-0.62c0.27-0.08,0.54,0.08,0.62,0.34c0.51,1.75,1.22,4.15,0.64,6.11c-0.31,1.05-0.95,1.77-1.87,2.08
						c-1.5,0.51-3.24-0.17-4.27-0.92c-2.19-1.58-4.17-4.85-3.7-8.04c0.26-1.79,1.38-3.3,3.14-4.25c2.28-1.24,5.3-1.39,7.5-0.37
						c4.63,2.13,6.31,6.6,5.14,13.68c-0.16,0.98-0.36,1.98-0.56,3c-1.06,5.38-2.16,10.94,1.74,15.27c0.18,0.21,0.17,0.52-0.04,0.71
						C236.93,373.65,236.81,373.69,236.69,373.69z"/>
				</g>
				<g>
					<path class="st7" d="M239.89,373.69c-0.1,0-0.2-0.03-0.29-0.09c-0.22-0.16-0.28-0.47-0.12-0.7c2.51-3.51,3.18-6.59,2.4-10.99
						c-0.19-1.09-0.45-2.2-0.69-3.27c-0.67-2.92-1.36-5.94-0.97-9.04c0.46-3.72,2.92-8.17,7.21-9.17c3.05-0.7,6.1,0.29,7.77,2.53
						c1.48,1.98,1.54,4.5,0.18,6.9c-1,1.76-4.23,5.02-6.62,4.65c-0.78-0.11-1.8-0.66-2.24-2.61c-0.39-1.72,0.19-3.69,0.66-5.27
						l0.1-0.34c0.08-0.26,0.35-0.42,0.62-0.34c0.26,0.08,0.42,0.36,0.34,0.62l-0.1,0.35c-0.46,1.54-0.97,3.29-0.64,4.76
						c0.25,1.12,0.73,1.74,1.41,1.84c1.75,0.25,4.69-2.54,5.61-4.16c1.16-2.04,1.12-4.16-0.11-5.81c-1.43-1.92-4.08-2.77-6.74-2.16
						c-3.83,0.88-6.02,4.93-6.45,8.31c-0.37,2.93,0.31,5.86,0.96,8.7c0.25,1.09,0.5,2.21,0.7,3.32c0.82,4.63,0.08,8.04-2.58,11.75
						C240.2,373.62,240.04,373.69,239.89,373.69z"/>
				</g>
				<g>
					<path class="st7" d="M231.25,375.72c-0.27,0-0.5-0.22-0.5-0.49c-0.03-1.77-0.92-3.58-2.81-5.68c-0.38-0.43-0.78-0.84-1.18-1.26
						c-1.88-1.96-3.82-3.99-3.92-6.98c-0.05-1.61,0.44-3,1.35-3.82c0.76-0.68,1.8-0.96,2.99-0.79c1.47,0.2,3.13,1.03,3.41,2.75
						c0.28,1.73-0.7,2.9-1.77,3.13c-1.06,0.22-2.35-0.41-2.85-2.33c-0.07-0.27,0.09-0.54,0.36-0.61c0.27-0.07,0.54,0.09,0.61,0.36
						c0.29,1.13,0.95,1.76,1.68,1.61c0.63-0.13,1.17-0.86,0.99-1.99c-0.24-1.49-2.02-1.85-2.56-1.92c-0.91-0.13-1.64,0.06-2.18,0.54
						c-0.68,0.62-1.07,1.76-1.02,3.05c0.09,2.61,1.81,4.41,3.64,6.32c0.41,0.43,0.82,0.85,1.2,1.29c1.29,1.44,3.02,3.67,3.06,6.33
						C231.76,375.48,231.54,375.71,231.25,375.72C231.26,375.72,231.26,375.72,231.25,375.72z"/>
				</g>
				<g>
					<path class="st7" d="M245.04,375.72C245.03,375.72,245.03,375.72,245.04,375.72c-0.29,0-0.5-0.23-0.5-0.51
						c0.06-3.19,2.12-5.41,4.12-7.55c1.74-1.86,3.38-3.62,3.85-5.99c0.24-1.21-0.04-2.4-0.76-3.17c-0.6-0.65-1.44-0.95-2.41-0.83
						c-0.78,0.09-1.42,0.32-1.9,0.69c-0.77,0.6-0.95,1.65-0.45,2.56c0.39,0.7,1.11,0.83,1.62,0.65c0.22-0.08,0.91-0.4,0.73-1.4
						c-0.05-0.27,0.14-0.53,0.41-0.58c0.27-0.05,0.53,0.14,0.58,0.41c0.2,1.16-0.35,2.14-1.39,2.51c-1.09,0.38-2.25-0.07-2.82-1.11
						c-0.74-1.33-0.45-2.94,0.7-3.84c0.62-0.48,1.43-0.79,2.4-0.9c1.29-0.15,2.44,0.26,3.26,1.14c0.93,1.01,1.31,2.52,1,4.05
						c-0.52,2.65-2.34,4.6-4.1,6.48c-1.96,2.09-3.8,4.07-3.85,6.88C245.53,375.5,245.31,375.72,245.04,375.72z"/>
				</g>
				<g>
					<path class="st7" d="M238.53,341.49l-0.39-0.64c-1.63-2.65-3.95-4.28-6.9-4.84c-5.3-1.02-11.17,1.58-14.89,4.35
						c-0.22,0.16-0.54,0.12-0.7-0.1s-0.12-0.54,0.1-0.7c3.89-2.9,10.05-5.61,15.67-4.53c3,0.57,5.41,2.15,7.16,4.69
						c3-3.8,6.74-4.77,9.42-4.9c4.36-0.22,9.12,1.72,11.81,4.81c0.18,0.21,0.16,0.52-0.05,0.71c-0.21,0.18-0.52,0.16-0.71-0.05
						c-2.5-2.87-6.93-4.67-11.01-4.47c-2.58,0.12-6.26,1.1-9.09,5.06L238.53,341.49z"/>
				</g>
				<g>
					<path class="st7" d="M228.74,265.56c-0.23,0-0.43-0.16-0.49-0.39c-0.98-4.3,0.23-8,1.52-11.91c0.5-1.51,1.01-3.07,1.38-4.66
						c1.79-7.66,0.78-12.07-3.1-13.48c-1.77-0.64-3.59-0.38-5.14,0.73c-1.84,1.33-2.94,3.61-2.88,5.95
						c0.04,1.35,0.63,2.36,1.67,2.84c1.19,0.56,2.77,0.29,4.01-0.69c1.21-0.96,1.81-2.68,1.46-4.19c-0.06-0.27,0.11-0.54,0.37-0.6
						c0.28-0.06,0.54,0.11,0.6,0.37c0.44,1.91-0.29,4-1.82,5.21c-1.53,1.21-3.51,1.53-5.05,0.81c-1.38-0.64-2.19-2-2.24-3.72
						c-0.07-2.67,1.19-5.27,3.29-6.79c1.82-1.31,3.98-1.62,6.06-0.86c6.6,2.4,4.44,11.62,3.73,14.65c-0.38,1.63-0.9,3.21-1.4,4.74
						c-1.24,3.78-2.42,7.35-1.49,11.38c0.06,0.27-0.11,0.54-0.38,0.6C228.81,265.55,228.77,265.56,228.74,265.56z"/>
				</g>
				<g>
					<path class="st7" d="M249.75,266.35c-0.04,0-0.07,0-0.11-0.01c-0.27-0.06-0.44-0.33-0.38-0.6c1.02-4.47-0.2-8.95-1.38-13.28
						c-0.33-1.19-0.66-2.42-0.94-3.63c-0.71-3.03-2.86-12.25,3.73-14.65c2.09-0.76,4.24-0.46,6.06,0.86
						c2.1,1.52,3.37,4.12,3.29,6.79c-0.05,1.72-0.87,3.08-2.24,3.72c-1.53,0.72-3.52,0.4-5.05-0.81c-1.53-1.21-2.26-3.3-1.82-5.21
						c0.06-0.27,0.33-0.43,0.6-0.37c0.27,0.06,0.44,0.33,0.37,0.6c-0.35,1.51,0.25,3.24,1.46,4.19c1.24,0.98,2.81,1.25,4.01,0.69
						c1.04-0.48,1.63-1.5,1.67-2.84c0.06-2.34-1.04-4.62-2.88-5.95c-1.55-1.12-3.37-1.37-5.14-0.73c-3.88,1.41-4.89,5.82-3.1,13.48
						c0.28,1.19,0.61,2.42,0.93,3.6c1.21,4.45,2.47,9.05,1.39,13.76C250.19,266.19,249.98,266.35,249.75,266.35z"/>
				</g>
				<g>
					<path class="st7" d="M236.09,263.19c-0.16,0-0.32-0.08-0.42-0.23c-1.99-3.05-1.51-7.54-1.12-11.14
						c0.07-0.67,0.14-1.31,0.19-1.92c0.02-0.28,0.28-0.46,0.54-0.46c0.27,0.02,0.48,0.26,0.46,0.54c-0.05,0.61-0.12,1.26-0.19,1.94
						c-0.37,3.44-0.83,7.73,0.97,10.48c0.15,0.23,0.09,0.54-0.15,0.69C236.28,263.16,236.19,263.19,236.09,263.19z"/>
				</g>
				<g>
					<path class="st7" d="M235.59,246.91c-0.02,0-0.04,0-0.06,0c-0.27-0.03-0.47-0.28-0.44-0.55c0.11-1,0.34-2.16,0.58-3.39
						c0.81-4.12,1.81-9.25-0.88-11.82c-2.75-2.63-10-1.4-14.32-0.66c-0.61,0.1-1.16,0.2-1.65,0.27c-0.28,0.04-0.53-0.14-0.57-0.42
						s0.15-0.53,0.42-0.57c0.48-0.07,1.03-0.17,1.63-0.27c4.51-0.77,12.06-2.05,15.18,0.93c3.08,2.95,2.02,8.37,1.17,12.73
						c-0.24,1.21-0.46,2.35-0.57,3.31C236.05,246.72,235.84,246.91,235.59,246.91z"/>
				</g>
				<g>
					<path class="st7" d="M242.18,263.69c-0.09,0-0.19-0.03-0.27-0.08c-0.23-0.15-0.3-0.46-0.15-0.69
						c1.86-2.85,1.35-7.34,0.94-10.95c-0.08-0.72-0.16-1.42-0.22-2.07c-0.02-0.28,0.18-0.52,0.45-0.54
						c0.26-0.02,0.52,0.18,0.54,0.45c0.06,0.64,0.13,1.33,0.22,2.04c0.43,3.77,0.96,8.46-1.1,11.61
						C242.5,263.61,242.34,263.69,242.18,263.69z"/>
				</g>
				<g>
					<path class="st7" d="M242.62,246.82c-0.25,0-0.47-0.19-0.5-0.44c-0.1-0.9-0.31-1.96-0.53-3.09c-0.84-4.32-1.88-9.69,1.37-12.53
						c3.2-2.79,10.25-1.58,14.92-0.78c0.64,0.11,1.22,0.21,1.73,0.29c0.27,0.04,0.46,0.3,0.42,0.57s-0.29,0.46-0.57,0.42
						c-0.52-0.08-1.11-0.18-1.75-0.29c-4.2-0.72-11.24-1.93-14.09,0.55c-2.82,2.46-1.83,7.52-1.04,11.58
						c0.22,1.15,0.43,2.23,0.54,3.16c0.03,0.27-0.17,0.52-0.44,0.55C242.66,246.82,242.64,246.82,242.62,246.82z"/>
				</g>
				<g>
					<path class="st7" d="M225.32,261.78c-0.04,0-0.08,0-0.12-0.01c-0.27-0.06-0.43-0.33-0.37-0.6c0.28-1.18,0.15-2.54-0.4-4.15
						c-0.25-0.72-0.55-1.44-0.85-2.13c-0.28-0.66-0.57-1.34-0.82-2.03c-0.2-0.57-0.38-1.18-0.34-1.83c0.05-0.79,0.46-1.48,1.06-1.79
						c1-0.52,2.23,0.12,2.74,1.05c0.48,0.87,0.49,1.88,0.49,2.7c0,0.28-0.22,0.5-0.5,0.5c0,0,0,0,0,0c-0.28,0-0.5-0.22-0.5-0.5
						c0-0.89-0.03-1.62-0.36-2.22c-0.28-0.5-0.94-0.89-1.41-0.65c-0.29,0.15-0.5,0.53-0.52,0.97c-0.03,0.47,0.12,0.97,0.28,1.44
						c0.23,0.66,0.52,1.33,0.79,1.97c0.3,0.71,0.62,1.45,0.88,2.2c0.61,1.8,0.75,3.33,0.43,4.7
						C225.75,261.63,225.54,261.78,225.32,261.78z"/>
				</g>
				<g>
					<path class="st7" d="M253.94,261.78c-0.23,0-0.43-0.16-0.49-0.38c-0.32-1.37-0.18-2.91,0.43-4.7c0.26-0.75,0.57-1.49,0.88-2.2
						c0.27-0.64,0.56-1.31,0.79-1.97c0.17-0.47,0.31-0.96,0.28-1.44c-0.03-0.44-0.23-0.82-0.52-0.97c-0.47-0.24-1.12,0.14-1.4,0.65
						c-0.36,0.64-0.36,1.48-0.37,2.22c0,0.28-0.23,0.5-0.5,0.5c0,0,0,0,0,0c-0.28,0-0.5-0.23-0.5-0.5c0-0.82,0.01-1.83,0.49-2.7
						c0.51-0.93,1.73-1.57,2.74-1.05c0.6,0.31,1.01,1,1.06,1.79c0.04,0.65-0.14,1.27-0.34,1.83c-0.24,0.69-0.53,1.37-0.82,2.03
						c-0.3,0.7-0.6,1.42-0.85,2.13c-0.55,1.61-0.68,2.97-0.4,4.15c0.06,0.27-0.1,0.54-0.37,0.6
						C254.02,261.78,253.98,261.78,253.94,261.78z"/>
				</g>
				<g>
					<path class="st7" d="M236.47,277.24c-0.1,0-0.19-0.03-0.28-0.08c-1.37-0.91-3.05-0.88-4.83-0.85
						c-2.05,0.04-4.17,0.07-5.85-1.42c-0.98-0.87-1.52-2.1-1.56-3.54c-0.05-1.88,0.79-3.95,2.13-5.27c1.45-1.43,4.19-1.96,6.52-1.27
						c1.82,0.54,3.01,1.71,3.36,3.3c0.35,1.6-0.33,3.21-1.74,4.1c-1.31,0.83-2.87,0.77-4.08-0.16c-0.22-0.17-0.26-0.48-0.09-0.7
						c0.17-0.22,0.48-0.26,0.7-0.09c0.88,0.68,1.98,0.72,2.93,0.11c1.04-0.66,1.55-1.86,1.3-3.04c-0.36-1.64-1.82-2.31-2.67-2.56
						c-1.97-0.59-4.35-0.15-5.54,1.02c-1.16,1.14-1.88,2.92-1.83,4.53c0.02,0.81,0.25,1.95,1.22,2.82c1.38,1.23,3.23,1.2,5.16,1.16
						c1.85-0.03,3.77-0.06,5.4,1.02c0.23,0.15,0.29,0.46,0.14,0.69C236.79,277.16,236.63,277.24,236.47,277.24z"/>
				</g>
				<g>
					<path class="st7" d="M240.25,277.24c-0.16,0-0.32-0.08-0.42-0.22c-0.15-0.23-0.09-0.54,0.14-0.69c1.63-1.08,3.55-1.05,5.4-1.02
						c1.94,0.04,3.78,0.07,5.16-1.17c0.97-0.87,1.2-2.01,1.22-2.82c0.04-1.62-0.68-3.39-1.83-4.53c-1.18-1.17-3.57-1.61-5.53-1.02
						c-0.84,0.25-2.31,0.92-2.67,2.56c-0.26,1.19,0.25,2.38,1.3,3.04c0.96,0.61,2.06,0.56,2.93-0.11c0.22-0.17,0.53-0.13,0.7,0.09
						c0.17,0.22,0.13,0.53-0.09,0.7c-1.21,0.93-2.77,0.99-4.08,0.16c-1.4-0.89-2.09-2.5-1.74-4.1c0.34-1.59,1.54-2.76,3.36-3.3
						c2.33-0.69,5.07-0.16,6.52,1.27c1.34,1.32,2.18,3.39,2.13,5.27c-0.04,1.44-0.58,2.66-1.56,3.54c-1.68,1.49-3.79,1.46-5.85,1.42
						c-1.78-0.03-3.46-0.06-4.83,0.85C240.44,277.21,240.35,277.24,240.25,277.24z"/>
				</g>
				<g>
					<path class="st7" d="M239.86,381.06c-3.96,0-7.91-0.21-11.84-0.62c-0.28-0.03-0.47-0.27-0.45-0.55
						c0.03-0.28,0.28-0.47,0.55-0.45c7.49,0.78,15.09,0.81,22.6,0.09c0.26-0.01,0.52,0.17,0.55,0.45c0.03,0.27-0.17,0.52-0.45,0.55
						C247.18,380.89,243.52,381.06,239.86,381.06z"/>
				</g>
				<g>
					<path class="st7" d="M241.74,405.64c-3.39,0-6.79-0.09-10.17-0.27c-0.28-0.01-0.49-0.25-0.47-0.53s0.26-0.49,0.53-0.47
						c5.18,0.27,10.42,0.34,15.58,0.19c0.3-0.01,0.51,0.21,0.51,0.49c0.01,0.28-0.21,0.51-0.49,0.51
						C245.42,405.61,243.58,405.64,241.74,405.64z"/>
				</g>
				<g>
					<path class="st7" d="M238.57,444.44c-4.78,0-9.56-0.23-14.31-0.7c-0.27-0.03-0.48-0.27-0.45-0.55
						c0.03-0.27,0.28-0.46,0.55-0.45c9.85,0.97,19.83,0.93,29.68-0.13c0.26-0.02,0.52,0.17,0.55,0.44c0.03,0.27-0.17,0.52-0.44,0.55
						C248.97,444.16,243.77,444.44,238.57,444.44z"/>
				</g>
				<g>
					<path class="st7" d="M241.28,449.35c-6.99,0-13.99-0.33-20.92-1c-0.27-0.03-0.48-0.27-0.45-0.55c0.03-0.28,0.27-0.47,0.55-0.45
						c12.43,1.19,25.05,1.31,37.5,0.36c0.25-0.02,0.51,0.18,0.54,0.46c0.02,0.28-0.19,0.52-0.46,0.54
						C252.47,449.14,246.87,449.35,241.28,449.35z"/>
				</g>
				<g>
					<path class="st7" d="M238.98,465.54c-2.93,0-5.86-0.34-8.71-1.02c-0.27-0.06-0.44-0.33-0.37-0.6c0.06-0.27,0.33-0.44,0.6-0.37
						c5.67,1.35,11.65,1.32,17.31-0.08c0.27-0.07,0.54,0.1,0.61,0.37s-0.1,0.54-0.37,0.61
						C245.09,465.17,242.04,465.54,238.98,465.54z"/>
				</g>
				<g>
					<path class="st7" d="M231.07,490.03c-0.25,0-0.47-0.19-0.5-0.45c-0.34-3.61-1.37-14.58-7.55-14.65c-1.04,0-1.79,0.27-2.23,0.88
						c-1.38,1.88,0.12,6.51,1.11,9.58c0.37,1.15,0.7,2.15,0.82,2.82c0.05,0.27-0.13,0.53-0.41,0.58c-0.27,0.05-0.53-0.13-0.58-0.41
						c-0.11-0.6-0.42-1.57-0.78-2.69c-1.12-3.46-2.66-8.19-0.97-10.48c0.64-0.87,1.64-1.3,3.05-1.28
						c7.08,0.08,8.17,11.73,8.53,15.56c0.03,0.28-0.18,0.52-0.45,0.54C231.11,490.03,231.09,490.03,231.07,490.03z"/>
				</g>
				<g>
					<path class="st7" d="M248.33,490.03c-0.02,0-0.03,0-0.05,0c-0.27-0.03-0.48-0.27-0.45-0.54c0.36-3.83,1.45-15.47,8.53-15.56
						c1.34-0.02,2.41,0.41,3.05,1.28c1.69,2.29,0.15,7.03-0.97,10.48c-0.36,1.12-0.68,2.08-0.78,2.69
						c-0.05,0.27-0.31,0.46-0.58,0.41c-0.27-0.05-0.45-0.31-0.41-0.58c0.12-0.67,0.44-1.67,0.82-2.82c0.99-3.07,2.5-7.7,1.11-9.58
						c-0.44-0.6-1.21-0.88-2.23-0.88c-6.18,0.07-7.21,11.04-7.55,14.65C248.81,489.84,248.59,490.03,248.33,490.03z"/>
				</g>
				<g>
					<path class="st7" d="M234.7,491.54c-0.02,0-0.03,0-0.05,0c-0.27-0.03-0.48-0.27-0.45-0.54c0.11-1.13,0.08-2.59,0.05-4.14
						c-0.07-4.3-0.16-9.17,2.18-11.55c0.9-0.92,2.09-1.38,3.55-1.38c1.47,0,2.64,0.45,3.49,1.34c2.06,2.17,1.82,6.64,1.59,10.97
						c-0.09,1.62-0.18,3.3-0.14,4.8c0.01,0.28-0.21,0.51-0.49,0.51c0,0-0.01,0-0.01,0c-0.27,0-0.49-0.22-0.5-0.49
						c-0.04-1.54,0.05-3.23,0.14-4.88c0.22-4.11,0.45-8.37-1.31-10.23c-0.65-0.69-1.56-1.03-2.76-1.03c-1.19,0-2.12,0.35-2.84,1.08
						c-2.05,2.08-1.96,6.93-1.9,10.83c0.03,1.58,0.05,3.07-0.06,4.25C235.17,491.35,234.95,491.54,234.7,491.54z"/>
				</g>
				<g>
					<path class="st7" d="M239.42,469.87c-5.59,0-11.17-0.45-16.71-1.34c-0.27-0.04-0.46-0.3-0.41-0.57
						c0.04-0.27,0.3-0.46,0.57-0.41c10.32,1.66,20.79,1.76,31.14,0.3c0.28-0.03,0.53,0.15,0.57,0.42c0.04,0.27-0.15,0.53-0.42,0.57
						C249.26,469.53,244.34,469.87,239.42,469.87z"/>
				</g>
				<g>
					<path class="st7" d="M236.83,594.65c-16.83,0-33.22-3.04-48.1-9.08c-19.83-8.04-30.79-20.7-34.43-29.86
						c-0.15-0.38,0.04-0.82,0.42-0.97c0.38-0.15,0.82,0.03,0.97,0.42c5.39,13.56,21.47,24.11,33.6,29.03
						c25.52,10.34,55.53,11.79,84.5,4.07c9.48-2.53,40.85-12.68,46.2-37.25c0.09-0.4,0.48-0.66,0.89-0.57
						c0.4,0.09,0.66,0.49,0.57,0.89c-5.54,25.41-37.59,35.8-47.28,38.38C261.77,593.01,249.18,594.65,236.83,594.65z"/>
				</g>
				<g>
					<path class="st7" d="M237.59,586.66c-6.47,0-13.04-0.47-19.55-1.42c-25.47-3.86-47.34-17.3-60.01-36.86
						c-0.22-0.35-0.12-0.81,0.22-1.04c0.35-0.22,0.81-0.12,1.04,0.22c12.43,19.2,33.93,32.39,58.97,36.19
						c52.39,7.66,85.22-14.45,98.47-37.71c0.2-0.36,0.66-0.49,1.02-0.28c0.36,0.21,0.49,0.66,0.28,1.02
						c-9.13,16.02-24.28,27.89-43.79,34.32C263.09,584.78,250.51,586.66,237.59,586.66z"/>
				</g>
				<g>
					<path class="st7" d="M191.4,541.97c-0.17,0-0.34-0.09-0.44-0.26c-0.13-0.24-0.05-0.54,0.19-0.68
						c5.76-3.23,10.24-6.86,14.97-10.71c1.57-1.28,3.19-2.59,4.9-3.93c1.11-0.87,2.09-1.67,2.85-2.67c1.76-2.31,2.13-5.42,2.49-8.42
						c0.06-0.49,0.12-0.98,0.18-1.46c0.63-4.7,1.91-9.26,3.83-13.58c0.11-0.25,0.41-0.36,0.66-0.25c0.25,0.11,0.37,0.41,0.25,0.66
						c-1.88,4.23-3.14,8.7-3.75,13.3c-0.06,0.48-0.12,0.96-0.18,1.45c-0.38,3.14-0.77,6.38-2.69,8.91
						c-0.83,1.09-1.86,1.94-3.02,2.85c-1.71,1.34-3.32,2.65-4.89,3.92c-4.77,3.87-9.27,7.53-15.11,10.81
						C191.57,541.95,191.49,541.97,191.4,541.97z"/>
				</g>
				<g>
					<path class="st7" d="M177.88,551.36c-0.11,0-0.22-0.04-0.31-0.11c-0.22-0.17-0.25-0.49-0.08-0.7c0.83-1.04,8.12-6.38,8.92-6.92
						c0.23-0.15,0.54-0.09,0.69,0.14s0.09,0.54-0.14,0.69c-1.07,0.71-8.03,5.88-8.69,6.71
						C178.17,551.29,178.02,551.36,177.88,551.36z"/>
				</g>
				<g>
					<path class="st7" d="M193.84,558.89c-0.11,0-0.23-0.04-0.32-0.12c-0.21-0.18-0.24-0.49-0.07-0.7l22.9-27.61
						c0.18-0.21,0.49-0.24,0.7-0.07c0.21,0.18,0.24,0.49,0.07,0.7l-22.9,27.61C194.13,558.83,193.99,558.89,193.84,558.89z"/>
				</g>
				<g>
					<path class="st7" d="M218.22,564.17c-0.07,0-0.15-0.02-0.22-0.05c-0.25-0.12-0.35-0.42-0.23-0.67
						c4.25-8.81,9.06-18.79,9.51-29.28c0.07-1.54,0.04-3.11,0.01-4.64c-0.02-1.29-0.04-2.62-0.01-3.94
						c0.09-3.6,0.62-10.7,1.64-14.42c0.07-0.27,0.35-0.42,0.61-0.35c0.27,0.07,0.42,0.35,0.35,0.61c-0.94,3.44-1.5,10.37-1.6,14.18
						c-0.03,1.3-0.01,2.62,0.01,3.9c0.03,1.54,0.05,3.13-0.01,4.7c-0.46,10.7-5.32,20.78-9.61,29.67
						C218.58,564.06,218.4,564.17,218.22,564.17z"/>
				</g>
				<g>
					<path class="st7" d="M241.63,533.04c-0.27,0-0.49-0.21-0.5-0.48l-0.98-28.99c-0.01-0.28,0.21-0.51,0.48-0.52
						c0.28-0.01,0.51,0.21,0.52,0.48l0.98,28.99c0.01,0.28-0.21,0.51-0.48,0.52C241.64,533.04,241.64,533.04,241.63,533.04z"/>
				</g>
				<g>
					<path class="st7" d="M241.85,568.29c-0.01,0-0.02,0-0.02,0c-0.28-0.01-0.49-0.25-0.47-0.52c0.41-8.41,0.21-18.28,0.04-26.99
						l-0.05-2.39c0-0.28,0.21-0.5,0.49-0.51c0,0,0.01,0,0.01,0c0.27,0,0.5,0.22,0.5,0.49l0.05,2.39c0.17,8.72,0.36,18.61-0.05,27.06
						C242.33,568.08,242.11,568.29,241.85,568.29z"/>
				</g>
				<g>
					<path class="st7" d="M257.02,541.05c-0.18,0-0.36-0.1-0.45-0.28c-4.51-9.03-4.76-19.47-4.62-30.26
						c0.04-2.96-0.1-6.26-2.18-8.05c-0.21-0.18-0.23-0.5-0.05-0.71c0.18-0.21,0.5-0.23,0.71-0.05c2.41,2.07,2.57,5.64,2.53,8.82
						c-0.14,10.67,0.1,20.97,4.52,29.8c0.12,0.25,0.02,0.55-0.22,0.67C257.17,541.03,257.1,541.05,257.02,541.05z"/>
				</g>
				<g>
					<path class="st7" d="M267.41,570.03c-0.2,0-0.39-0.12-0.47-0.32c-1.45-3.76-3.03-8.04-4.55-12.17
						c-1.52-4.13-3.1-8.39-4.54-12.15c-0.1-0.26,0.03-0.55,0.29-0.65c0.26-0.1,0.55,0.03,0.65,0.29c1.45,3.76,3.03,8.04,4.55,12.17
						c1.52,4.13,3.1,8.39,4.54,12.15c0.1,0.26-0.03,0.55-0.29,0.65C267.54,570.02,267.47,570.03,267.41,570.03z"/>
				</g>
				<g>
					<path class="st7" d="M286.17,558.91c-0.09,0-0.19-0.03-0.27-0.08c-3.23-2.11-5.49-5.16-7.68-8.11
						c-1.15-1.55-2.34-3.16-3.66-4.6c-0.65-0.72-1.36-1.43-2.11-2.18c-2.81-2.82-5.99-6.01-6.61-10.16l-3.01-20.18
						c-0.04-0.27,0.15-0.53,0.42-0.57c0.28-0.04,0.53,0.15,0.57,0.42l3.01,20.18c0.57,3.82,3.5,6.76,6.33,9.6
						c0.76,0.76,1.47,1.48,2.14,2.21c1.35,1.48,2.56,3.11,3.72,4.68c2.23,3.01,4.34,5.86,7.42,7.87c0.23,0.15,0.3,0.46,0.15,0.69
						C286.49,558.83,286.34,558.91,286.17,558.91z"/>
				</g>
				<g>
					<path class="st7" d="M300.94,551.23c-0.12,0-0.24-0.04-0.33-0.13c-4.26-3.77-9.72-8.48-15-13.04
						c-5.28-4.56-10.74-9.27-15.01-13.05c-0.21-0.18-0.23-0.5-0.04-0.71c0.18-0.21,0.5-0.23,0.71-0.04c4.26,3.77,9.72,8.48,15,13.04
						c5.28,4.56,10.74,9.27,15.01,13.05c0.21,0.18,0.23,0.5,0.04,0.71C301.22,551.17,301.08,551.23,300.94,551.23z"/>
				</g>
				<g>
					<path class="st7" d="M262.42,510.22c-0.26,0-0.49-0.21-0.5-0.47c-0.18-3.44-2.16-6.76-5.3-8.86c-0.23-0.15-0.29-0.46-0.14-0.69
						c0.16-0.23,0.47-0.29,0.69-0.14c3.4,2.28,5.54,5.88,5.74,9.64c0.01,0.28-0.2,0.51-0.47,0.53
						C262.44,510.22,262.43,510.22,262.42,510.22z"/>
				</g>
				<g>
					<path class="st7" d="M235.69,121.11c-2.68,0-5.36-0.13-8.04-0.39c-0.28-0.03-0.48-0.27-0.45-0.55
						c0.03-0.28,0.29-0.47,0.55-0.45c7.67,0.74,15.41,0.41,22.99-1c0.26-0.05,0.53,0.13,0.58,0.4c0.05,0.27-0.13,0.53-0.4,0.58
						C245.89,120.64,240.79,121.11,235.69,121.11z"/>
				</g>
				<g>
					<path class="st7" d="M241.02,128.14c-1.65,0-3.29-0.12-4.92-0.35c-0.27-0.04-0.46-0.29-0.42-0.57c0.04-0.27,0.3-0.45,0.57-0.42
						c5.26,0.76,10.7,0.25,15.73-1.48c0.26-0.09,0.54,0.05,0.63,0.31c0.09,0.26-0.05,0.54-0.31,0.63
						C248.67,127.51,244.84,128.14,241.02,128.14z"/>
				</g>
				<g>
					<path class="st7" d="M229.31,148.55c-0.27,0-0.49-0.21-0.5-0.48c-0.01-0.28,0.21-0.51,0.48-0.52l10.43-0.4
						c0.28-0.01,0.51,0.21,0.52,0.48c0.01,0.28-0.21,0.51-0.48,0.52l-10.43,0.4C229.32,148.55,229.31,148.55,229.31,148.55z"/>
				</g>
				<g>
					<path class="st7" d="M243.15,166.63c-2.24,0-4.49-0.07-6.72-0.2c-0.28-0.02-0.49-0.25-0.47-0.53c0.02-0.28,0.25-0.51,0.53-0.47
						c3.55,0.21,7.15,0.25,10.71,0.12c0.25-0.01,0.51,0.21,0.52,0.48c0.01,0.28-0.21,0.51-0.48,0.52
						C245.88,166.61,244.52,166.63,243.15,166.63z"/>
				</g>
				<g>
					<path class="st7" d="M240.69,499.11c-0.28,0-0.56,0-0.84-0.01c-6.58-0.12-13.07-1.2-19.1-2.35c-0.27-0.05-0.45-0.31-0.4-0.58
						s0.31-0.45,0.58-0.4c5.99,1.14,12.43,2.22,18.93,2.33c6.81,0.13,12.19-1.32,17.99-3.07c0.26-0.08,0.54,0.07,0.62,0.33
						s-0.07,0.54-0.33,0.62C252.5,497.69,247.27,499.11,240.69,499.11z"/>
				</g>
				<g>
					<path class="st7" d="M236.64,328.72c-3.76,0-7.52-0.17-11.25-0.5c-0.28-0.02-0.48-0.27-0.45-0.54
						c0.02-0.28,0.29-0.47,0.54-0.45c8.51,0.75,17.13,0.64,25.62-0.33c0.27-0.02,0.52,0.17,0.55,0.44s-0.17,0.52-0.44,0.55
						C246.38,328.45,241.5,328.72,236.64,328.72z"/>
				</g>
			</g>
			<g>
				<g>
					<path class="st7" d="M50.38,193.06c-2.78,0-5.56-0.22-8.28-0.43c-1.92-0.15-3.92-0.31-5.87-0.38
						c-0.28-0.01-0.49-0.24-0.48-0.52c0.01-0.28,0.22-0.47,0.52-0.48c1.97,0.08,3.97,0.23,5.91,0.39c4.03,0.32,8.2,0.65,12.27,0.24
						c0.28-0.02,0.52,0.17,0.55,0.45c0.03,0.27-0.17,0.52-0.45,0.55C53.15,193.01,51.76,193.06,50.38,193.06z"/>
				</g>
				<g>
					<path class="st7" d="M60.21,193.11c-0.42,0-0.83-0.02-1.22-0.06c-0.27-0.03-0.47-0.28-0.44-0.55c0.03-0.28,0.3-0.47,0.55-0.44
						c2.14,0.23,4.68-0.29,7.16-0.79c1.07-0.22,2.08-0.42,3.03-0.56c0.27-0.04,0.53,0.15,0.57,0.42c0.04,0.27-0.15,0.53-0.42,0.57
						c-0.92,0.13-1.92,0.34-2.98,0.55C64.35,192.67,62.19,193.11,60.21,193.11z"/>
				</g>
				<g>
					<path class="st7" d="M52.55,205.24c-3.94,0-7.89-0.38-11.82-1.14c-0.27-0.05-0.45-0.31-0.4-0.59c0.05-0.27,0.32-0.45,0.59-0.4
						c9.36,1.8,18.8,1.42,28.06-1.13c0.27-0.07,0.54,0.08,0.62,0.35c0.07,0.27-0.08,0.54-0.35,0.62
						C63.73,204.47,58.15,205.24,52.55,205.24z"/>
				</g>
				<g>
					<path class="st7" d="M60.4,223.04c-1.83,0-3.65-0.07-5.47-0.21c-0.28-0.02-0.48-0.26-0.46-0.54c0.02-0.28,0.29-0.49,0.54-0.46
						c3.98,0.31,8.01,0.27,11.98-0.1c0.25-0.02,0.52,0.17,0.54,0.45c0.03,0.27-0.18,0.52-0.45,0.54
						C64.87,222.93,62.64,223.04,60.4,223.04z"/>
				</g>
				<g>
					<path class="st7" d="M49.61,214.48c-1.44,0-2.87-0.12-4.29-0.37c-0.27-0.05-0.45-0.31-0.41-0.58c0.05-0.27,0.31-0.46,0.58-0.41
						c2,0.35,4.04,0.44,6.06,0.28c0.29-0.01,0.52,0.18,0.54,0.46c0.02,0.28-0.18,0.52-0.46,0.54
						C50.96,214.45,50.28,214.48,49.61,214.48z"/>
				</g>
				<g>
					<path class="st7" d="M56.33,241.23c-1.4,0-2.8-0.12-4.18-0.37c-0.27-0.05-0.45-0.31-0.4-0.58c0.05-0.27,0.3-0.45,0.58-0.4
						c3.95,0.7,8.03,0.35,11.81-1.01c0.26-0.09,0.55,0.04,0.64,0.3c0.09,0.26-0.04,0.55-0.3,0.64
						C61.85,240.76,59.09,241.23,56.33,241.23z"/>
				</g>
				<g>
					<path class="st7" d="M48.05,269.82c-1.89,0-3.78-0.18-5.65-0.54c-0.27-0.05-0.45-0.31-0.4-0.59s0.31-0.45,0.59-0.4
						c3.28,0.63,6.61,0.69,9.9,0.18c0.27-0.04,0.53,0.14,0.57,0.42c0.04,0.27-0.14,0.53-0.42,0.57
						C51.12,269.7,49.58,269.82,48.05,269.82z"/>
				</g>
				<g>
					<path class="st7" d="M95.68,310.06C95.68,310.06,95.68,310.06,95.68,310.06c-5.25-0.02-11.21-4.06-15.15-6.73
						c-4.78-3.24-9.01-7.16-12.58-11.65c-0.17-0.22-0.14-0.53,0.08-0.7c0.22-0.17,0.53-0.14,0.7,0.08
						c3.51,4.41,7.67,8.26,12.37,11.44c3.84,2.61,9.64,6.54,14.59,6.56c0.28,0,0.5,0.23,0.5,0.5
						C96.18,309.83,95.96,310.06,95.68,310.06z"/>
				</g>
				<g>
					<path class="st7" d="M98.66,310.14c-0.27,0-0.49-0.21-0.5-0.48c-0.01-0.28,0.2-0.51,0.48-0.52c3.85-0.15,7.6-0.35,11.29-1.12
						c3.99-0.84,7.32-2.3,9.88-4.35c0.21-0.17,0.53-0.14,0.7,0.08s0.14,0.53-0.08,0.7c-2.69,2.15-6.15,3.68-10.3,4.55
						c-3.76,0.79-7.57,0.99-11.46,1.14C98.67,310.14,98.66,310.14,98.66,310.14z"/>
				</g>
				<g>
					<path class="st7" d="M57.29,244.88C57.29,244.88,57.29,244.88,57.29,244.88c-3.76-0.02-7.56-0.21-11.29-0.56
						c-0.27-0.03-0.48-0.27-0.45-0.54c0.03-0.27,0.26-0.47,0.54-0.45c3.71,0.35,7.47,0.53,11.2,0.55c0.28,0,0.5,0.23,0.5,0.5
						C57.79,244.65,57.56,244.88,57.29,244.88z"/>
				</g>
				<g>
					<path class="st7" d="M55.11,201.14c-3.9,0-7.79-0.29-11.62-0.58c-1.59-0.12-3.23-0.24-4.85-0.49c-0.27-0.04-0.46-0.3-0.42-0.57
						c0.04-0.27,0.31-0.46,0.57-0.42c1.59,0.25,3.21,0.37,4.78,0.48c7.49,0.56,15.23,1.14,22.68-0.51c0.28-0.06,0.54,0.11,0.6,0.38
						c0.06,0.27-0.11,0.54-0.38,0.6C62.71,200.86,58.91,201.14,55.11,201.14z"/>
				</g>
				<g>
					<path class="st7" d="M54.35,277.08c-0.27,0-0.49-0.22-0.5-0.49c0-0.28,0.21-0.5,0.49-0.51c2.94-0.06,5.9-0.78,8.55-2.09
						c0.25-0.12,0.55-0.02,0.67,0.23c0.12,0.25,0.02,0.55-0.23,0.67C60.55,276.26,57.45,277.02,54.35,277.08
						C54.36,277.08,54.35,277.08,54.35,277.08z"/>
				</g>
			</g>
		</g>
		<g id="Shine_00000144311299828645406090000012387963086305428643_">
			<g>
				<g>
					<path class="st7" d="M426.3,107.79c-0.41,0-0.75-0.33-0.75-0.75l-0.05-22.76c0-0.42,0.32-0.73,0.75-0.75
						c0.41,0,0.75,0.33,0.75,0.75l0.05,22.76C427.05,107.45,426.72,107.79,426.3,107.79C426.3,107.79,426.3,107.79,426.3,107.79z"/>
				</g>
				<g>
					<path class="st7" d="M416.81,112.35c-0.19,0-0.38-0.07-0.53-0.22l-13.77-13.77c-0.29-0.29-0.29-0.77,0-1.06
						c0.29-0.29,0.77-0.29,1.06,0l13.77,13.77c0.29,0.29,0.29,0.77,0,1.06C417.19,112.28,417,112.35,416.81,112.35z"/>
				</g>
				<g>
					<path class="st7" d="M415.93,117.43c-0.05,0-0.1,0-0.15-0.01l-17.42-3.43c-0.41-0.08-0.67-0.47-0.59-0.88
						c0.08-0.41,0.47-0.67,0.88-0.59l17.42,3.43c0.41,0.08,0.67,0.47,0.59,0.88C416.59,117.18,416.28,117.43,415.93,117.43z"/>
				</g>
				<g>
					<path class="st7" d="M402.15,125.4c-0.38,0-0.7-0.29-0.75-0.67c-0.04-0.41,0.25-0.78,0.67-0.83l13.16-1.43
						c0.4-0.04,0.78,0.25,0.83,0.67c0.04,0.41-0.25,0.78-0.67,0.83l-13.16,1.43C402.21,125.39,402.18,125.4,402.15,125.4z"/>
				</g>
				<g>
					<path class="st7" d="M448.78,126.95c-0.04,0-0.09,0-0.13-0.01l-11.04-1.97c-0.41-0.07-0.68-0.46-0.61-0.87
						c0.07-0.41,0.47-0.67,0.87-0.61l11.04,1.97c0.41,0.07,0.68,0.46,0.61,0.87C449.45,126.7,449.14,126.95,448.78,126.95z"/>
				</g>
				<g>
					<path class="st7" d="M431.32,109.19c-0.12,0-0.24-0.03-0.36-0.09c-0.36-0.2-0.5-0.65-0.3-1.02l6.38-11.83
						c0.2-0.36,0.65-0.5,1.02-0.3c0.36,0.2,0.5,0.65,0.3,1.02l-6.38,11.83C431.84,109.05,431.58,109.19,431.32,109.19z"/>
				</g>
				<g>
					<path class="st7" d="M437.18,117.96c-0.39,0-0.72-0.3-0.75-0.69c-0.03-0.41,0.28-0.77,0.69-0.81l16.96-1.32
						c0.41-0.02,0.77,0.28,0.81,0.69c0.03,0.41-0.28,0.77-0.69,0.81l-16.96,1.32C437.22,117.96,437.2,117.96,437.18,117.96z"/>
				</g>
				<g>
					<path class="st7" d="M421.17,107.44c-0.31,0-0.6-0.19-0.71-0.5l-3.35-9.47c-0.14-0.39,0.07-0.82,0.46-0.96
						c0.39-0.14,0.82,0.07,0.96,0.46l3.35,9.47c0.14,0.39-0.07,0.82-0.46,0.96C421.34,107.43,421.25,107.44,421.17,107.44z"/>
				</g>
				<g>
					<path class="st7" d="M435.46,112.46c-0.22,0-0.43-0.09-0.58-0.27c-0.26-0.32-0.22-0.79,0.1-1.06l6.58-5.42
						c0.32-0.26,0.79-0.22,1.06,0.1c0.26,0.32,0.22,0.79-0.1,1.06l-6.58,5.42C435.79,112.41,435.63,112.46,435.46,112.46z"/>
				</g>
			</g>
			<g>
				<g>
					<path class="st7" d="M239.59,34.27c-0.41,0-0.75-0.34-0.75-0.75l-0.01-32.77c0-0.41,0.34-0.75,0.75-0.75s0.75,0.34,0.75,0.75
						l0.01,32.77C240.34,33.94,240.01,34.27,239.59,34.27z"/>
				</g>
				<g>
					<path class="st7" d="M245.01,34c-0.15,0-0.31-0.05-0.44-0.15c-0.33-0.24-0.41-0.71-0.16-1.05l9.45-12.89
						c0.24-0.33,0.71-0.41,1.05-0.16c0.33,0.24,0.41,0.71,0.16,1.05l-9.45,12.89C245.46,33.9,245.24,34,245.01,34z"/>
				</g>
				<g>
					<path class="st7" d="M249.34,38.77c-0.3,0-0.58-0.18-0.7-0.47c-0.16-0.38,0.03-0.82,0.41-0.98l21.14-8.58
						c0.38-0.16,0.82,0.03,0.98,0.41c0.16,0.38-0.03,0.82-0.41,0.98l-21.14,8.58C249.53,38.75,249.44,38.77,249.34,38.77z"/>
				</g>
				<g>
					<path class="st7" d="M251.4,45.14c-0.37,0-0.69-0.27-0.74-0.64c-0.06-0.41,0.22-0.79,0.63-0.85l24.6-3.59
						c0.42-0.05,0.79,0.22,0.85,0.63c0.06,0.41-0.22,0.79-0.63,0.85l-24.6,3.59C251.47,45.14,251.43,45.14,251.4,45.14z"/>
				</g>
				<g>
					<path class="st7" d="M265.43,53.03c-0.02,0-0.04,0-0.06,0l-13.01-0.97c-0.41-0.03-0.72-0.39-0.69-0.8s0.4-0.71,0.8-0.69
						l13.01,0.97c0.41,0.03,0.72,0.39,0.69,0.8C266.15,52.73,265.82,53.03,265.43,53.03z"/>
				</g>
				<g>
					<path class="st7" d="M234.95,34.83c-0.29,0-0.56-0.17-0.69-0.45l-8.33-18.72c-0.17-0.38,0-0.82,0.38-0.99
						c0.37-0.17,0.82,0,0.99,0.38l8.33,18.72c0.17,0.38,0,0.82-0.38,0.99C235.16,34.81,235.06,34.83,234.95,34.83z"/>
				</g>
				<g>
					<path class="st7" d="M231.34,39.12c-0.1,0-0.2-0.02-0.3-0.06l-16.03-6.89c-0.38-0.16-0.56-0.61-0.39-0.99
						c0.16-0.38,0.61-0.56,0.99-0.39l16.03,6.89c0.38,0.16,0.56,0.61,0.39,0.99C231.91,38.95,231.63,39.12,231.34,39.12z"/>
				</g>
				<g>
					<path class="st7" d="M229.09,45.77c-0.04,0-0.07,0-0.11-0.01l-26.99-3.97c-0.41-0.06-0.69-0.44-0.63-0.85
						c0.06-0.41,0.44-0.68,0.85-0.63l26.99,3.97c0.41,0.06,0.69,0.44,0.63,0.85C229.77,45.5,229.45,45.77,229.09,45.77z"/>
				</g>
				<g>
					<path class="st7" d="M212.5,53.02c-0.39,0-0.72-0.3-0.75-0.7c-0.03-0.41,0.28-0.77,0.7-0.8l15.2-1.06
						c0.42-0.02,0.77,0.28,0.8,0.7c0.03,0.41-0.28,0.77-0.7,0.8l-15.2,1.06C212.53,53.02,212.52,53.02,212.5,53.02z"/>
				</g>
			</g>
			<g>
				<g>
					<path class="st7" d="M51.61,108.62C51.61,108.62,51.61,108.62,51.61,108.62c-0.42,0-0.75-0.34-0.75-0.75l0.05-28.8
						c0-0.41,0.34-0.75,0.75-0.75h0c0.42,0,0.75,0.34,0.75,0.75l-0.05,28.8C52.36,108.29,52.03,108.62,51.61,108.62z"/>
				</g>
				<g>
					<path class="st7" d="M61.1,114.4c-0.16,0-0.33-0.05-0.46-0.16c-0.33-0.26-0.38-0.73-0.12-1.05l13.77-17.42
						c0.26-0.32,0.73-0.38,1.05-0.12c0.33,0.26,0.38,0.73,0.12,1.05l-13.77,17.42C61.55,114.3,61.33,114.4,61.1,114.4z"/>
				</g>
				<g>
					<path class="st7" d="M61.99,120.82c-0.34,0-0.64-0.23-0.73-0.57c-0.1-0.4,0.14-0.81,0.55-0.91L79.22,115
						c0.4-0.1,0.81,0.14,0.91,0.55c0.1,0.4-0.14,0.81-0.55,0.91l-17.42,4.34C62.11,120.81,62.05,120.82,61.99,120.82z"/>
				</g>
				<g>
					<path class="st7" d="M75.76,130.9c-0.03,0-0.07,0-0.1-0.01l-13.16-1.81c-0.41-0.06-0.7-0.43-0.64-0.85
						c0.06-0.41,0.43-0.7,0.85-0.64l13.16,1.81c0.41,0.06,0.7,0.43,0.64,0.85C76.45,130.63,76.13,130.9,75.76,130.9z"/>
				</g>
				<g>
					<path class="st7" d="M29.13,132.88c-0.34,0-0.65-0.24-0.73-0.58c-0.09-0.4,0.16-0.81,0.57-0.9l11.04-2.5
						c0.41-0.09,0.81,0.16,0.9,0.57c0.09,0.4-0.16,0.81-0.57,0.9l-11.04,2.5C29.24,132.87,29.19,132.88,29.13,132.88z"/>
				</g>
				<g>
					<path class="st7" d="M46.6,110.4c-0.29,0-0.57-0.17-0.69-0.46l-6.38-14.97c-0.16-0.38,0.01-0.82,0.4-0.98
						c0.38-0.16,0.82,0.01,0.98,0.4l6.38,14.97c0.16,0.38-0.01,0.82-0.4,0.98C46.79,110.38,46.7,110.4,46.6,110.4z"/>
				</g>
				<g>
					<path class="st7" d="M40.73,121.5c-0.02,0-0.05,0-0.07,0l-16.96-1.66c-0.41-0.04-0.71-0.41-0.67-0.82s0.42-0.72,0.82-0.67
						L40.81,120c0.41,0.04,0.71,0.41,0.67,0.82C41.44,121.21,41.11,121.5,40.73,121.5z"/>
				</g>
				<g>
					<path class="st7" d="M56.74,108.19c-0.07,0-0.13-0.01-0.2-0.03c-0.4-0.11-0.63-0.53-0.52-0.92l3.35-11.99
						c0.11-0.4,0.53-0.63,0.92-0.52c0.4,0.11,0.63,0.53,0.52,0.92l-3.35,11.99C57.37,107.97,57.07,108.19,56.74,108.19z"/>
				</g>
				<g>
					<path class="st7" d="M42.46,114.54c-0.2,0-0.39-0.08-0.54-0.23l-6.58-6.86c-0.29-0.3-0.28-0.77,0.02-1.06
						c0.3-0.29,0.77-0.28,1.06,0.02l6.58,6.86c0.29,0.3,0.28,0.77-0.02,1.06C42.83,114.47,42.64,114.54,42.46,114.54z"/>
				</g>
			</g>
		</g>
	</g>
</g>
<g id="Guide">
</g>
</svg>
