<?xml version="1.0" encoding="utf-8"?>
<!-- Generator: Adobe Illustrator 26.1.0, SVG Export Plug-In . SVG Version: 6.00 Build 0)  -->
<svg version="1.1" xmlns="http://www.w3.org/2000/svg" xmlns:xlink="http://www.w3.org/1999/xlink" x="0px" y="0px"
	 viewBox="0 0 401.87 479.38" style="enable-background:new 0 0 401.87 479.38;" xml:space="preserve">
<style type="text/css">
	.st0{fill:#FFFFFF;stroke:#000000;stroke-miterlimit:10;}
	.st1{fill:#BFA071;stroke:#554B4E;stroke-width:1.5;stroke-linecap:round;stroke-linejoin:round;stroke-miterlimit:10;}
	.st2{fill:#BFA071;stroke:#554B4E;stroke-linecap:round;stroke-linejoin:round;stroke-miterlimit:10;}
	.st3{fill:#F8F4E9;stroke:#554B4E;stroke-width:1.5;stroke-linecap:round;stroke-linejoin:round;stroke-miterlimit:10;}
	.st4{fill:#F2DED6;stroke:#554B4E;stroke-width:1.5;stroke-linecap:round;stroke-linejoin:round;stroke-miterlimit:10;}
	.st5{fill:none;stroke:#554B4E;stroke-linecap:round;stroke-linejoin:round;stroke-miterlimit:10;}
	.st6{fill:#BFA071;}
	.st7{fill:#554B4E;}
	.st8{fill:#F8F4E9;}
	.st9{fill:none;stroke:#554B4E;stroke-width:1.5;stroke-linecap:round;stroke-linejoin:round;stroke-miterlimit:10;}
	.st10{fill:#F8F4E9;stroke:#554B4E;stroke-linecap:round;stroke-linejoin:round;stroke-miterlimit:10;}
	.st11{fill:#F2DED6;stroke:#554B4E;stroke-linecap:round;stroke-linejoin:round;stroke-miterlimit:10;}
	.st12{clip-path:url(#SVGID_00000035526070932475058310000005644424783638104751_);}
	.st13{fill:none;stroke:#BFA071;stroke-width:1.5;stroke-linecap:round;stroke-linejoin:round;}
	.st14{fill:none;stroke:#BFA071;stroke-width:1.5;stroke-linecap:round;stroke-linejoin:round;stroke-dasharray:68.8403,19.6687;}
	.st15{fill:none;stroke:#BFA071;stroke-width:1.5;stroke-linecap:round;stroke-linejoin:round;stroke-dasharray:71.4455,20.413;}
	.st16{fill:none;stroke:#BFA071;stroke-width:1.5;stroke-linecap:round;stroke-linejoin:round;stroke-dasharray:69.5884,19.8824;}
	.st17{fill:none;stroke:#BFA071;stroke-width:1.5;stroke-linecap:round;stroke-linejoin:round;stroke-dasharray:61.3524,17.5292;}
	.st18{fill:none;stroke:#BFA071;stroke-width:1.5;stroke-linecap:round;stroke-linejoin:round;stroke-dasharray:63.9932,18.2838;}
	.st19{fill:none;stroke:#BFA071;stroke-width:1.5;stroke-linecap:round;stroke-linejoin:round;stroke-dasharray:72.7778,20.7937;}
	.st20{fill:none;stroke:#BFA071;stroke-width:1.5;stroke-linecap:round;stroke-linejoin:round;stroke-dasharray:77.193,22.0551;}
	.st21{fill:none;stroke:#BFA071;stroke-width:1.5;stroke-linecap:round;stroke-linejoin:round;stroke-dasharray:75.3802,21.5372;}
	.st22{fill:none;stroke:#BFA071;stroke-width:1.5;stroke-linecap:round;stroke-linejoin:round;stroke-dasharray:73.6885,21.0538;}
	.st23{fill:none;stroke:#BFA071;stroke-width:1.5;stroke-linecap:round;stroke-linejoin:round;stroke-dasharray:63.3162,18.0903;}
	.st24{fill:none;stroke:#BFA071;stroke-width:1.5;stroke-linecap:round;stroke-linejoin:round;stroke-dasharray:62.0513,17.7289;}
	.st25{fill:none;stroke:#BFA071;stroke-width:1.5;stroke-linecap:round;stroke-linejoin:round;stroke-dasharray:68.9157,19.6902;}
	.st26{fill:none;stroke:#554B4E;stroke-width:1.5;stroke-linecap:round;stroke-linejoin:round;}
	.st27{fill:none;stroke:#554B4E;stroke-width:1.5;stroke-linecap:round;stroke-linejoin:round;stroke-dasharray:15.0532,10.0355;}
	.st28{fill:none;stroke:#554B4E;stroke-width:1.5;stroke-linecap:round;stroke-linejoin:round;stroke-dasharray:14.9985,9.999;}
	.st29{fill:none;stroke:#554B4E;stroke-width:1.5;stroke-linecap:round;stroke-linejoin:round;stroke-dasharray:14.8977,9.9318;}
	.st30{fill:none;stroke:#554B4E;stroke-width:1.5;stroke-linecap:round;stroke-linejoin:round;stroke-dasharray:15.4213,10.2808;}
	.st31{fill:none;stroke:#554B4E;stroke-width:1.5;stroke-linecap:round;stroke-linejoin:round;stroke-dasharray:15.2271,10.1514;}
	.st32{fill:none;stroke:#554B4E;stroke-width:1.5;stroke-linecap:round;stroke-linejoin:round;stroke-dasharray:15.021,10.014;}
	.st33{fill:none;stroke:#554B4E;stroke-width:1.5;stroke-linecap:round;stroke-linejoin:round;stroke-dasharray:15.0727,10.0485;}
	.st34{fill:none;stroke:#554B4E;stroke-width:1.5;stroke-linecap:round;stroke-linejoin:round;stroke-dasharray:14.6942,9.7961;}
	.st35{fill:none;stroke:#554B4E;stroke-width:1.5;stroke-linecap:round;stroke-linejoin:round;stroke-dasharray:14.7469,9.8312;}
	.st36{fill:none;stroke:#554B4E;stroke-width:1.5;stroke-linecap:round;stroke-linejoin:round;stroke-dasharray:15.0819,10.0546;}
	.st37{fill:none;stroke:#554B4E;stroke-width:1.5;stroke-linecap:round;stroke-linejoin:round;stroke-dasharray:15.003,10.002;}
	.st38{fill:#F2DED6;}
	.st39{fill:#F2DED6;stroke:#554B4E;stroke-width:1.5;stroke-linecap:round;stroke-miterlimit:10;}
	.st40{fill:none;stroke:#554B4E;stroke-width:1.5;stroke-linecap:round;stroke-miterlimit:10;}
	.st41{fill:none;stroke:#554B4E;stroke-linecap:round;stroke-miterlimit:10;}
	.st42{fill:none;stroke:#BFA071;stroke-linecap:round;stroke-linejoin:round;}
	.st43{fill:none;stroke:#BFA071;stroke-linecap:round;stroke-linejoin:round;stroke-dasharray:14.9905,14.9905;}
	.st44{fill:none;stroke:#BFA071;stroke-linecap:round;stroke-linejoin:round;stroke-dasharray:51.384,34.256;}
	.st45{fill:none;stroke:#554B4E;stroke-miterlimit:10;}
	.st46{clip-path:url(#SVGID_00000031904669745061055160000005460593156402265788_);}
	.st47{fill:none;stroke:#554B4E;stroke-width:1.5;stroke-linecap:round;stroke-linejoin:round;stroke-dasharray:68.8403,19.6687;}
	.st48{fill:none;stroke:#554B4E;stroke-width:1.5;stroke-linecap:round;stroke-linejoin:round;stroke-dasharray:71.4455,20.413;}
	.st49{fill:none;stroke:#554B4E;stroke-width:1.5;stroke-linecap:round;stroke-linejoin:round;stroke-dasharray:69.5884,19.8824;}
	.st50{fill:none;stroke:#554B4E;stroke-width:1.5;stroke-linecap:round;stroke-linejoin:round;stroke-dasharray:61.3524,17.5292;}
	.st51{fill:none;stroke:#554B4E;stroke-width:1.5;stroke-linecap:round;stroke-linejoin:round;stroke-dasharray:63.9932,18.2838;}
	.st52{fill:none;stroke:#554B4E;stroke-width:1.5;stroke-linecap:round;stroke-linejoin:round;stroke-dasharray:72.7778,20.7937;}
	.st53{fill:none;stroke:#554B4E;stroke-width:1.5;stroke-linecap:round;stroke-linejoin:round;stroke-dasharray:77.193,22.0551;}
	.st54{fill:none;stroke:#554B4E;stroke-width:1.5;stroke-linecap:round;stroke-linejoin:round;stroke-dasharray:75.3802,21.5372;}
	.st55{fill:none;stroke:#554B4E;stroke-width:1.5;stroke-linecap:round;stroke-linejoin:round;stroke-dasharray:73.6885,21.0538;}
	.st56{fill:none;stroke:#554B4E;stroke-width:1.5;stroke-linecap:round;stroke-linejoin:round;stroke-dasharray:63.3162,18.0903;}
	.st57{fill:none;stroke:#554B4E;stroke-width:1.5;stroke-linecap:round;stroke-linejoin:round;stroke-dasharray:62.0513,17.7289;}
	.st58{fill:none;stroke:#554B4E;stroke-width:1.5;stroke-linecap:round;stroke-linejoin:round;stroke-dasharray:68.9157,19.6902;}
	.st59{fill:none;stroke:#554B4E;stroke-linecap:round;stroke-linejoin:round;}
	.st60{fill:none;stroke:#554B4E;stroke-linecap:round;stroke-linejoin:round;stroke-dasharray:14.9905,14.9905;}
	.st61{fill:none;stroke:#554B4E;stroke-linecap:round;stroke-linejoin:round;stroke-dasharray:51.384,34.256;}
	.st62{fill:#95608F;}
	.st63{fill:#ED859E;}
	.st64{fill:#FAC87D;}
	.st65{opacity:0.1;}
	.st66{fill:#B5846F;}
	.st67{fill:#B5846F;stroke:#B5846F;stroke-width:5;stroke-linecap:round;stroke-linejoin:round;stroke-miterlimit:10;}
	.st68{fill:#EAD9EB;}
	.st69{fill:#FFFFFF;}
	.st70{fill:url(#SVGID_00000130626270872628044630000000608698536242657670_);}
	.st71{opacity:0.8;fill:#FFFFFF;}
	.st72{fill:url(#SVGID_00000046303102020675140330000016210691403803791766_);}
	.st73{fill:url(#SVGID_00000049909453148203698750000014727086466067012490_);}
	.st74{opacity:0.8;}
	.st75{opacity:0.6;}
	.st76{opacity:0.2;}
	.st77{fill:none;}
	.st78{fill:url(#SVGID_00000074423474944668801790000012400608616506840724_);}
	.st79{fill:url(#SVGID_00000136397388357304894250000008212569845188364721_);}
	.st80{clip-path:url(#SVGID_00000183219453953854926310000013612138115478222468_);fill:#FFFFFF;}
	.st81{clip-path:url(#SVGID_00000094599161054259799660000007589157835719177126_);fill:#FFFFFF;}
	.st82{clip-path:url(#SVGID_00000007413255334863754390000012406332136953148334_);fill:#FFFFFF;}
	.st83{clip-path:url(#SVGID_00000129185053096701190200000005634788640335191683_);fill:#FFFFFF;}
	.st84{clip-path:url(#SVGID_00000010295643696088953100000007745224229707432616_);fill:#FFFFFF;}
</style>
<g id="Bg">
</g>
<g id="Graphic">
	<g id="Big_00000068635788631256824640000008022102481139183287_">
		<g id="Gill_00000016768061454315233670000000933476570366942113_">
			<g>
				<path class="st7" d="M149.38,237.96c-0.08,0-0.16-0.01-0.23-0.04c-10.14-3.31-22.23-4.99-33.19-4.59
					c-1.09,0.04-2.18,0.1-3.28,0.15c-3.31,0.18-6.73,0.36-10.12-0.02c-6.15-0.68-8.97-3.3-12.25-6.33
					c-0.99-0.92-2.02-1.88-3.21-2.84c-4.67-3.79-11.58-7.09-18.47-8.83c-2.2-0.55-4.48-0.88-6.7-1.2c-1.77-0.25-3.6-0.51-5.39-0.89
					c-8.99-1.89-17.42-6.74-24.38-14.02c-3.28-3.43-6.24-7.42-9.11-11.28c-4.43-5.96-9-12.13-14.7-16.11
					c-0.34-0.24-0.42-0.71-0.18-1.04c0.24-0.34,0.7-0.42,1.04-0.18c5.89,4.13,10.55,10.39,15.04,16.45
					c2.84,3.83,5.78,7.78,8.99,11.14c6.75,7.06,14.91,11.76,23.6,13.59c1.75,0.37,3.55,0.62,5.3,0.87c2.25,0.32,4.58,0.65,6.85,1.22
					c7.09,1.79,14.21,5.2,19.05,9.12c1.23,1,2.27,1.96,3.29,2.9c3.21,2.97,5.74,5.32,11.39,5.94c3.27,0.36,6.62,0.18,9.87,0.01
					c1.1-0.06,2.2-0.12,3.3-0.16c11.14-0.39,23.41,1.31,33.71,4.67c0.39,0.13,0.61,0.55,0.48,0.95
					C149.99,237.76,149.7,237.96,149.38,237.96z"/>
			</g>
			<g>
				<path class="st7" d="M258.61,240.82c-3.49,0-6.96-0.51-10.4-1.72c-3.04-1.07-6.68-1.16-10.21-1.24
					c-1.48-0.04-2.89-0.07-4.26-0.17c-0.41-0.03-0.72-0.39-0.69-0.8c0.03-0.41,0.38-0.71,0.8-0.69c1.33,0.1,2.72,0.13,4.18,0.17
					c3.64,0.09,7.41,0.17,10.67,1.32c11.88,4.19,24.5-0.52,36.69-5.08c1.45-0.54,2.9-1.08,4.34-1.61
					c19.88-7.23,40.42-11.22,61.06-11.86c1.38-0.04,2.76-0.07,4.15-0.1c8.75-0.18,17.79-0.37,25.98-4.22
					c9.72-4.56,19.83-17.59,19.39-29.71c-0.02-0.41,0.31-0.76,0.72-0.78c0.44,0.01,0.76,0.31,0.78,0.72
					c0.46,12.71-10.1,26.35-20.25,31.12c-8.48,3.98-17.69,4.18-26.59,4.36c-1.38,0.03-2.76,0.06-4.13,0.1
					c-20.48,0.63-40.87,4.59-60.6,11.77c-1.44,0.52-2.88,1.06-4.33,1.6C276.93,237.37,267.72,240.82,258.61,240.82z"/>
			</g>
			<g>
				<g>
					<path class="st7" d="M18.54,181.42c-0.15,0-0.31-0.07-0.4-0.21c-0.16-0.22-0.11-0.54,0.11-0.7l13.07-9.53
						c0.22-0.16,0.54-0.11,0.7,0.11c0.16,0.22,0.11,0.54-0.11,0.7l-13.07,9.53C18.75,181.39,18.65,181.42,18.54,181.42z"/>
				</g>
				<g>
					<path class="st7" d="M27.78,193.56c-0.15,0-0.3-0.07-0.4-0.2c-0.17-0.22-0.12-0.53,0.1-0.7l23.16-17.3
						c0.22-0.17,0.53-0.12,0.7,0.1c0.17,0.22,0.12,0.53-0.1,0.7l-23.16,17.3C27.99,193.53,27.89,193.56,27.78,193.56z"/>
				</g>
				<g>
					<path class="st7" d="M42.98,206.44c-0.13,0-0.26-0.05-0.35-0.15c-0.19-0.2-0.19-0.51,0-0.71l22.58-22.52
						c0.2-0.19,0.51-0.19,0.71,0c0.19,0.2,0.19,0.51,0,0.71l-22.58,22.52C43.24,206.39,43.11,206.44,42.98,206.44z"/>
				</g>
				<g>
					<path class="st7" d="M61.62,213.96c-0.1,0-0.2-0.03-0.29-0.09c-0.23-0.16-0.28-0.47-0.12-0.7l13.74-19.66
						c0.16-0.23,0.47-0.28,0.7-0.12c0.23,0.16,0.28,0.47,0.12,0.7l-13.74,19.66C61.94,213.89,61.78,213.96,61.62,213.96z"/>
				</g>
				<g>
					<path class="st7" d="M80.02,218.47c-0.11,0-0.22-0.03-0.31-0.11c-0.22-0.17-0.26-0.48-0.09-0.7l8.64-11.08
						c0.17-0.22,0.48-0.26,0.7-0.09c0.22,0.17,0.26,0.48,0.09,0.7l-8.64,11.08C80.32,218.41,80.17,218.47,80.02,218.47z"/>
				</g>
				<g>
					<path class="st7" d="M95.57,230.92c-0.07,0-0.15-0.02-0.22-0.05c-0.25-0.12-0.35-0.42-0.23-0.67l9.36-18.99
						c0.12-0.25,0.43-0.35,0.67-0.23c0.25,0.12,0.35,0.42,0.23,0.67l-9.36,18.99C95.93,230.82,95.75,230.92,95.57,230.92z"/>
				</g>
				<g>
					<path class="st7" d="M114.18,233.15c-0.07,0-0.14-0.01-0.2-0.04c-0.25-0.11-0.37-0.41-0.26-0.66l9.64-21.9
						c0.11-0.25,0.41-0.36,0.66-0.26c0.25,0.11,0.37,0.41,0.26,0.66l-9.64,21.9C114.56,233.04,114.37,233.15,114.18,233.15z"/>
				</g>
				<g>
					<path class="st7" d="M137.38,234.71c-0.04,0-0.08,0-0.12-0.02c-0.27-0.07-0.43-0.34-0.36-0.61l6.74-26.5
						c0.07-0.27,0.33-0.43,0.61-0.36c0.27,0.07,0.43,0.34,0.36,0.61l-6.74,26.5C137.81,234.56,137.61,234.71,137.38,234.71z"/>
				</g>
				<g>
					<path class="st7" d="M248.47,238.89c-0.22,0-0.42-0.14-0.48-0.36l-5.26-18.63c-0.08-0.27,0.08-0.54,0.35-0.62
						c0.27-0.07,0.54,0.08,0.62,0.35l5.26,18.63c0.08,0.27-0.08,0.54-0.35,0.62C248.56,238.89,248.51,238.89,248.47,238.89z"/>
				</g>
				<g>
					<path class="st7" d="M274.17,237.84c-0.18,0-0.35-0.09-0.44-0.26l-15.54-28.21c-0.13-0.24-0.04-0.55,0.2-0.68
						c0.24-0.13,0.54-0.04,0.68,0.2l15.53,28.21c0.13,0.24,0.04,0.55-0.2,0.68C274.33,237.82,274.25,237.84,274.17,237.84z"/>
				</g>
				<g>
					<path class="st7" d="M295.42,230.33c-0.16,0-0.31-0.07-0.41-0.21l-21.67-30.26c-0.16-0.22-0.11-0.54,0.12-0.7
						c0.22-0.16,0.54-0.11,0.7,0.12l21.67,30.26c0.16,0.22,0.11,0.54-0.12,0.7C295.62,230.3,295.52,230.33,295.42,230.33z"/>
				</g>
				<g>
					<path class="st7" d="M316.76,224.52c-0.13,0-0.26-0.05-0.35-0.15l-29.7-29.73c-0.2-0.2-0.2-0.51,0-0.71s0.51-0.2,0.71,0
						l29.7,29.73c0.2,0.2,0.2,0.51,0,0.71C317.02,224.47,316.89,224.52,316.76,224.52z"/>
				</g>
				<g>
					<path class="st7" d="M338.18,221.21c-0.13,0-0.26-0.05-0.36-0.15l-22.68-23.7c-0.19-0.2-0.18-0.52,0.02-0.71
						s0.52-0.18,0.71,0.02l22.68,23.7c0.19,0.2,0.18,0.52-0.02,0.71C338.42,221.16,338.3,221.21,338.18,221.21z"/>
				</g>
				<g>
					<path class="st7" d="M359.11,220.18c-0.13,0-0.26-0.05-0.36-0.16l-12.51-13.15c-0.19-0.2-0.18-0.52,0.02-0.71
						c0.2-0.19,0.52-0.18,0.71,0.02l12.51,13.15c0.19,0.2,0.18,0.52-0.02,0.71C359.36,220.14,359.24,220.18,359.11,220.18z"/>
				</g>
				<g>
					<path class="st7" d="M381.26,216c-0.11,0-0.23-0.04-0.32-0.12l-14.45-12.1c-0.21-0.18-0.24-0.49-0.06-0.71
						c0.18-0.21,0.49-0.24,0.71-0.06l14.45,12.1c0.21,0.18,0.24,0.49,0.06,0.71C381.55,215.94,381.41,216,381.26,216z"/>
				</g>
				<g>
					<path class="st7" d="M394.81,204.1c-0.09,0-0.19-0.03-0.27-0.08l-12.64-8.23c-0.23-0.15-0.3-0.46-0.15-0.69
						c0.15-0.23,0.46-0.3,0.69-0.15l12.64,8.23c0.23,0.15,0.3,0.46,0.15,0.69C395.13,204.02,394.97,204.1,394.81,204.1z"/>
				</g>
			</g>
		</g>
		<g>
			<path class="st7" d="M238.92,479.38c-0.11,0-0.22,0-0.32,0c-18.02-0.33-24.61-1.76-30.99-3.14c-4.71-1.02-9.59-2.08-19.11-2.72
				c-4.1-0.27-8.29-0.09-12.35,0.09c-4.23,0.19-8.6,0.38-12.92,0.06c-32.06-2.37-43.25-4.03-46.27-9.15
				c-2.1-3.56,0.11-8.39,3.45-15.71c3.98-8.71,10-21.88,12.08-40.97c1.82-16.66,2.77-23.74,4.2-34.46l0.16-1.19
				c0.47-3.54,1.36-7.5,2.29-11.69c2.11-9.46,4.73-21.23,4.13-34.94c-0.23-5.29-0.7-10.69-1.14-15.91
				c-1.05-12.25-2.14-24.92-0.35-37.31c0.78-5.4,3.21-15.38,5.55-25.02c2-8.21,3.88-15.95,4.66-20.45c0.66-3.84,0.07-7.9-0.51-11.82
				c-0.42-2.88-0.86-5.87-0.82-8.8c0.01-0.41,0.34-0.74,0.75-0.74c0,0,0.01,0,0.01,0c0.41,0.01,0.75,0.35,0.74,0.76
				c-0.04,2.82,0.39,5.74,0.8,8.56c0.59,4.04,1.2,8.22,0.5,12.29c-0.78,4.55-2.67,12.32-4.68,20.55
				c-2.34,9.61-4.76,19.55-5.53,24.88c-1.76,12.22-0.68,24.8,0.36,36.97c0.45,5.23,0.91,10.65,1.15,15.97
				c0.61,13.91-2.03,25.79-4.16,35.34c-0.93,4.16-1.8,8.08-2.27,11.56l-0.16,1.19c-1.44,10.71-2.39,17.78-4.2,34.43
				c-2.11,19.33-8.19,32.63-12.21,41.43c-3.15,6.89-5.23,11.44-3.52,14.33c2.7,4.57,15.51,6.23,45.09,8.42
				c4.23,0.31,8.56,0.12,12.74-0.06c4.1-0.18,8.34-0.37,12.52-0.09c9.63,0.65,14.56,1.71,19.33,2.75c6.6,1.43,12.83,2.78,30.7,3.1
				c5.25,0.08,10.98-2.47,13.9-6.23c1.14-1.48,2.36-3.79,1.62-6.42c-0.68-2.44-2.93-4.58-5.11-6.65c-0.53-0.5-1.05-1-1.56-1.5
				c-8.93-8.9-6.08-22.81-3.32-36.27c1.97-9.62,4.01-19.57,1.43-27.06c-0.98-2.84-2.21-5.7-3.41-8.47
				c-1.92-4.44-3.9-9.03-4.92-13.74c-1.32-6.11-1.01-12.35-0.72-18.38l0.05-1.01c0.46-9.39,1.41-17.89,2.34-26.1
				c1.63-14.42,3.17-28.03,1.76-44.42c-0.59-6.93-2.07-13.89-3.64-21.27c-2.23-10.51-4.54-21.37-4.89-34.25
				c-0.02-0.75-0.16-1.41-0.3-2.11c-0.12-0.59-0.25-1.2-0.32-1.91c-0.04-0.41,0.27-0.78,0.68-0.82c0.41-0.05,0.78,0.27,0.82,0.68
				c0.06,0.62,0.17,1.16,0.29,1.74c0.15,0.73,0.31,1.49,0.34,2.38c0.34,12.74,2.64,23.53,4.86,33.97
				c1.58,7.42,3.07,14.43,3.67,21.45c1.42,16.53-0.13,30.22-1.77,44.71c-0.92,8.19-1.88,16.66-2.33,26.01l-0.05,1.01
				c-0.29,5.93-0.6,12.07,0.69,17.99c0.99,4.56,2.94,9.09,4.83,13.46c1.21,2.79,2.45,5.68,3.45,8.57
				c2.72,7.88,0.64,18.04-1.38,27.85c-2.68,13.06-5.45,26.57,2.91,34.9c0.5,0.5,1.01,0.99,1.53,1.48c2.32,2.21,4.73,4.49,5.52,7.33
				c0.7,2.52,0.03,5.26-1.88,7.74C250.53,476.66,244.62,479.38,238.92,479.38z"/>
		</g>
		<g id="Cap_00000181046211274664229570000015868156923247679679_">
			<path class="st7" d="M233.29,222.8c-8.4,0-16.64-4.25-24.68-8.39c-3.99-2.06-8.12-4.18-12.18-5.74
				c-17.22-6.59-35.74-3.43-53.65-0.38c-13.92,2.38-28.31,4.83-42.3,2.86c-7.5-1.06-12.97-3.29-17.19-7.05
				c-2.6-2.31-4.77-5.26-6.87-8.12c-1.13-1.54-2.31-3.13-3.52-4.59c-12.05-14.46-30.14-18.14-46.24-19.84
				c-1.69-0.18-4.41-0.04-7.29,0.11c-7.73,0.4-16.49,0.85-18.81-3.21c-1.12-1.94-0.58-4.53,1.64-7.92
				c1.72-2.63,12.47-12.44,12.93-12.86c0.03-0.02,0.06-0.05,0.09-0.07c14.49-9.73,29.04-17.92,43.1-25.85
				c23.84-13.43,46.36-26.12,68.47-45.58v0c6.86-6.04,13.71-15.57,20.34-24.8c7.53-10.47,15.31-21.31,23.44-27.62
				c3.58-2.78,6.96-5.76,10.22-8.64c9.55-8.44,17.77-15.73,27.43-15.09c6.34,0.42,12.68,4.36,19.38,12.06
				c4.81,5.53,9.64,11.34,14.31,16.96c15.62,18.81,31.78,38.25,51.52,52.42l0,0c0.35,0.24,2.03,1.45,11.02,7.9
				c12.71,9.12,24.44,20.25,34.87,33.09l1.3,1.6c12.7,15.64,27.53,28.81,44.07,39.13c5.62,3.5,9.69,6.21,10.99,9.12
				c1.78,3.99,3.26,6.7,4.34,8.68c1.47,2.68,2.14,3.91,1.72,5.07c-0.41,1.14-1.73,1.67-4.37,2.71c-1.77,0.7-4.19,1.66-7.35,3.19
				c-4.18,2.03-8.6,4.66-13.13,7.4c-12.69,7.67-27.24,9.91-40.96,6.28c-4.93-1.3-9.78-3.37-14.46-5.36
				c-6.58-2.8-13.38-5.69-20.35-6.42c-16.4-1.73-32.03,8.19-46.48,19.15l-0.66,0.5c-4.22,3.21-8.58,6.53-13.45,8.13
				C238.1,222.45,235.69,222.8,233.29,222.8z M173.52,203.3c7.93,0,15.79,1.05,23.45,3.98c4.14,1.58,8.3,3.73,12.33,5.8
				c10.52,5.42,20.45,10.54,30.76,7.15c4.63-1.52,8.89-4.76,13.01-7.9l0.67-0.51c14.69-11.15,30.62-21.23,47.54-19.45
				c7.2,0.76,14.11,3.69,20.78,6.54c4.64,1.97,9.43,4.01,14.26,5.29c13.32,3.52,27.46,1.35,39.8-6.11
				c4.56-2.76,9.01-5.41,13.25-7.46c3.22-1.56,5.67-2.53,7.45-3.24c2-0.79,3.33-1.32,3.51-1.83c0.19-0.52-0.53-1.84-1.63-3.84
				c-1.09-2-2.59-4.74-4.4-8.79c-1.21-2.72-6.1-5.77-10.42-8.46c-16.68-10.41-31.63-23.69-44.44-39.46l-1.3-1.6
				c-10.34-12.74-21.98-23.78-34.58-32.82c0,0-10.88-7.8-11.01-7.9c-19.9-14.28-36.12-33.8-51.8-52.68
				c-4.66-5.61-9.49-11.42-14.29-16.94c-6.42-7.38-12.42-11.16-18.35-11.55c-9-0.6-17.04,6.5-26.34,14.72
				c-3.28,2.89-6.67,5.89-10.29,8.7c-7.96,6.18-15.68,16.92-23.14,27.31c-6.68,9.29-13.58,18.9-20.57,25.05l0,0
				c-22.23,19.57-44.82,32.29-68.73,45.76c-14.03,7.9-28.53,16.07-42.96,25.76c-3.83,3.5-11.35,10.56-12.65,12.54
				c-1.85,2.83-2.39,4.96-1.59,6.35c1.87,3.25,10.87,2.79,17.44,2.45c3.07-0.16,5.72-0.29,7.52-0.1
				c16.4,1.73,34.83,5.51,47.23,20.38c1.25,1.5,2.43,3.11,3.58,4.67c2.06,2.79,4.18,5.68,6.66,7.88c3.99,3.55,9.2,5.67,16.4,6.68
				c13.75,1.94,28.03-0.5,41.84-2.85C152.77,205.08,163.21,203.3,173.52,203.3z"/>
		</g>
		<g id="Scale_00000139260621567627195890000014554367717924032168_">
			<g>
				<path class="st7" d="M228.72,191.43c-4.15,0-8.48-0.79-12.64-2.34c-3.79-1.42-5.96-3.29-6.45-5.58
					c-0.4-1.85,0.46-3.95,2.24-5.47c1.59-1.35,3.67-2.16,5.5-2.8c11.13-3.94,23.42-5.82,35.54-5.45c0.37,0.01,0.88,0.03,1.31,0.31
					c0.42,0.27,1.02,0.96,0.41,2.5c-3.77,9.59-10.83,16.2-19.37,18.12l0,0C233.18,191.19,230.97,191.43,228.72,191.43z
					 M249.92,170.74c-11.03,0-22.1,1.87-32.21,5.44c-1.75,0.62-3.73,1.38-5.19,2.62c-1.5,1.28-2.23,3-1.91,4.5
					c0.51,2.4,3.45,3.96,5.82,4.85c6.25,2.33,12.87,2.9,18.63,1.6l0,0c8.21-1.85,15.01-8.23,18.66-17.52
					c0.15-0.38,0.35-1.06-0.03-1.3c-0.18-0.12-0.47-0.14-0.8-0.15C251.89,170.75,250.9,170.74,249.92,170.74z"/>
			</g>
			<g>
				<path class="st7" d="M285.51,166.94c-4.35,0-8.65-1.29-12.5-3.83l0,0c-5.49-3.62-8.75-9.47-8.32-14.9
					c0.1-1.33,0.42-2.41,0.96-3.28c0.56-0.9,1.37-1.62,2.15-2.31c0.21-0.19,0.42-0.37,0.63-0.56c1.8-1.65,3.23-3.67,4.15-5.83
					c0.17-0.39,0.32-0.79,0.47-1.2c0.57-1.48,1.15-3.01,2.41-4.17c4.86-4.47,19.08-2.83,24.27,0.62c5.33,3.54,9.17,10.76,8.57,16.09
					c-0.81,7.21-5.76,13.77-12.92,17.12C292.17,166.19,288.82,166.94,285.51,166.94z M285.42,129.13c-3.83,0-7.39,0.71-9.28,2.46
					c-1.08,1-1.6,2.35-2.15,3.79c-0.16,0.42-0.32,0.83-0.49,1.23c-0.98,2.29-2.5,4.42-4.39,6.17c-0.21,0.2-0.43,0.39-0.65,0.58
					c-0.76,0.67-1.48,1.3-1.96,2.08c-0.45,0.74-0.72,1.66-0.81,2.83c-0.4,5.07,2.69,10.56,7.88,13.99l0,0
					c6.49,4.29,14.29,4.84,21.4,1.52c6.84-3.2,11.58-9.46,12.35-16.32c0.56-5-3.09-11.79-8.13-15.15
					C296.38,130.46,290.64,129.13,285.42,129.13z"/>
			</g>
			<g>
				<path class="st7" d="M332.95,172.78c-1.21,0-2.54-0.25-3.96-0.73h0c-4.73-1.63-9.03-6.71-9.38-11.1c-0.16-2,0.39-4.77,3.94-6.68
					c3.43-1.84,9.79-0.4,14.3,1.97c3.71,1.95,5.97,4.4,6.22,6.71c0.27,2.46-1.64,4.53-3.33,6.07c-1.91,1.73-4.06,3.38-6.81,3.71
					C333.61,172.76,333.29,172.78,332.95,172.78z M329.32,171.1c1.67,0.57,3.18,0.78,4.49,0.63c2.47-0.29,4.47-1.83,6.26-3.45
					c1.52-1.37,3.23-3.21,3.01-5.22c-0.21-1.94-2.34-4.16-5.69-5.93c-4.9-2.59-10.65-3.43-13.36-1.98c-2.43,1.3-3.61,3.28-3.41,5.72
					C320.93,164.83,325,169.62,329.32,171.1L329.32,171.1z"/>
			</g>
			<g>
				<path class="st7" d="M188.52,40.52c-2.94,0-5.66-0.75-7.75-2.18c-0.98-0.67-1.46-1.36-1.48-2.1c-0.02-0.81,0.53-1.45,1.07-1.98
					l0,0l2.1-2.02c3.17-3.05,6.17-5.93,9.17-8.95c1.67-1.68,3.78-2.45,5.79-2.14c1.98,0.31,3.65,1.65,4.72,3.76
					c0.63,1.24,0.96,2.56,1.29,3.83c0.09,0.35,0.18,0.69,0.27,1.04l0.05,0.17c0.4,1.47,0.86,3.13,0.02,4.55
					c-0.55,0.94-1.53,1.52-2.57,2.07c-2.96,1.58-6.19,3.12-9.84,3.7C190.4,40.44,189.45,40.52,188.52,40.52z M181.05,34.98
					c-0.4,0.39-0.78,0.81-0.76,1.23c0.01,0.4,0.36,0.84,1.05,1.31c2.54,1.74,6.13,2.39,9.87,1.79c3.5-0.56,6.65-2.06,9.53-3.6
					c0.91-0.48,1.75-0.98,2.18-1.7c0.62-1.06,0.24-2.44-0.12-3.78l-0.05-0.17c-0.1-0.35-0.19-0.7-0.28-1.06
					c-0.33-1.28-0.64-2.49-1.21-3.63c-0.92-1.82-2.33-2.96-3.98-3.22c-1.7-0.27-3.49,0.41-4.92,1.85c-3.01,3.03-6.15,6.05-9.19,8.97
					L181.05,34.98z"/>
			</g>
			<g>
				<path class="st7" d="M171.5,61.24c-0.07,0-0.13,0-0.2,0c-2.16-0.04-4.07-0.86-5.12-2.18l0,0c-1.05-1.33-1.28-2.95-0.65-4.68
					c1.19-3.29,5.1-6.17,8-6.78c2.62-0.56,5.08,0.3,6.74,2.34c1.72,2.12,2.15,5.05,1.09,7.45c-0.76,1.71-2.83,2.41-4.71,2.93
					C175.01,60.77,173.31,61.24,171.5,61.24z M166.97,58.44c0.86,1.09,2.49,1.77,4.35,1.8c1.73,0.04,3.43-0.43,5.07-0.89
					c1.66-0.46,3.48-1.06,4.06-2.37c0.91-2.07,0.54-4.58-0.95-6.42c-1.41-1.74-3.51-2.47-5.76-1.99c-2.59,0.55-6.21,3.21-7.27,6.14
					C165.96,56.12,166.13,57.38,166.97,58.44L166.97,58.44z"/>
			</g>
			<g>
				<path class="st7" d="M80.07,137.29c-2.79,0-5.63-0.31-8.41-1.09c-3.02-0.84-5.87-2.84-5.43-5.43c0.42-2.53,3.69-3.5,5.45-4.02
					c2.95-0.88,6.54-2.83,10.34-4.9c7.91-4.3,16.87-9.18,24.05-6.66c4.11,1.44,6.18,3.49,6.16,6.09
					c-0.05,5.12-8.59,10.75-14.47,12.69C93.04,135.52,86.69,137.29,80.07,137.29z M101.82,115.51c-6.03,0-13.02,3.8-19.32,7.23
					c-3.85,2.09-7.49,4.07-10.54,4.98l0,0c-2.3,0.68-4.47,1.54-4.75,3.23c-0.33,1.97,2.21,3.61,4.71,4.3
					c9.13,2.54,18.94-0.05,25.52-2.22c5.73-1.89,13.74-7.27,13.79-11.75c0.02-2.12-1.83-3.85-5.49-5.14
					C104.5,115.7,103.18,115.51,101.82,115.51z M71.82,127.23L71.82,127.23L71.82,127.23z"/>
			</g>
			<g>
				<path class="st7" d="M202.59,67.22c-0.75,0-1.5-0.1-2.19-0.19c-3.48-0.47-7.35-1.19-9.4-3.88c-1.65-2.17-1.48-4.76-1.32-7.26
					c0.08-1.29,0.17-2.63-0.01-3.87c-0.04-0.31-0.1-0.63-0.16-0.94c-0.26-1.41-0.55-3.01,0.42-4.27c0.84-1.09,2.33-1.48,3.38-1.68
					c6.5-1.22,13.72,4.02,15.84,9.52l0,0c1.5,3.89,0.56,8.27-2.34,10.89c-0.85,0.76-1.74,1.27-2.65,1.5
					C203.64,67.17,203.11,67.22,202.59,67.22z M195.3,45.94c-0.6,0-1.21,0.05-1.8,0.17c-1.41,0.27-2.29,0.68-2.77,1.31
					c-0.7,0.91-0.47,2.16-0.23,3.48c0.06,0.33,0.12,0.66,0.17,0.99c0.19,1.34,0.1,2.73,0.01,4.07c-0.15,2.43-0.3,4.72,1.12,6.59
					c1.81,2.39,5.46,3.06,8.74,3.5c1.08,0.14,2.31,0.31,3.38,0.03c0.75-0.19,1.5-0.62,2.23-1.28c2.6-2.35,3.44-6.28,2.08-9.79l0,0
					C206.44,50.37,200.8,45.94,195.3,45.94z"/>
			</g>
			<g>
				<path class="st7" d="M103.99,170.43c-3.96,0-7.64-0.94-9.67-1.58c-2.41-0.75-4.79-1.69-7.09-2.6
					c-3.83-1.51-7.78-3.07-11.89-3.78c-4.71-0.81-9.74-0.53-14.6-0.27c-7.61,0.42-15.47,0.85-22.02-2.98
					c-1.21-0.71-2.04-1.39-2.62-2.16c-0.95-1.26-1.24-2.78-0.85-4.41c0.52-2.15,2.19-4.13,4.34-5.17c3.51-1.68,7.64-1.49,11.63-1.3
					c16.47,0.78,32.14-0.06,48.74-0.95c2.09-0.11,4.19-0.22,6.28-0.33c0.58-0.03,1.14-0.06,1.67-0.1c5.36-0.33,8.33-0.51,10.96,5.01
					c2.51,5.25,0.07,14.04-4.93,17.73C111,169.73,107.39,170.43,103.99,170.43z M68.13,160.94c2.49,0,4.97,0.14,7.38,0.55
					c4.21,0.72,8.22,2.3,12.09,3.83c2.28,0.9,4.65,1.83,7.02,2.57c3.63,1.14,12.73,3.3,18.74-1.15l0,0
					c4.58-3.39,6.91-11.71,4.62-16.5c-2.35-4.91-4.75-4.76-10-4.44c-0.53,0.03-1.09,0.07-1.68,0.1c-2.1,0.11-4.19,0.22-6.28,0.33
					c-16.62,0.89-32.33,1.74-48.79,0.95c-3.92-0.18-7.92-0.37-11.2,1.2c-1.87,0.9-3.36,2.66-3.81,4.5
					c-0.22,0.92-0.29,2.29,0.67,3.57c0.5,0.66,1.24,1.26,2.33,1.9c6.28,3.68,13.65,3.27,21.46,2.84
					C63.14,161.08,65.64,160.94,68.13,160.94z"/>
			</g>
			<g>
				<path class="st7" d="M245.47,161.64c-1.72,0-3.66-0.41-5.56-0.82c-0.77-0.16-1.54-0.33-2.29-0.46l0,0
					c-2.03-0.37-4.28-0.9-5.39-2.56c-2.71-4.05-0.94-8.59,1.86-11.09c2.98-2.68,7.9-3.79,12.16-0.22c2.62,2.2,5.15,6.56,4.67,10.33
					c-0.23,1.84-0.89,3.12-2.01,3.91C247.97,161.39,246.78,161.64,245.47,161.64z M237.8,159.37c0.76,0.14,1.54,0.3,2.32,0.47
					c3.14,0.67,6.39,1.36,8.21,0.07c0.88-0.62,1.4-1.67,1.59-3.22c0.42-3.29-1.87-7.39-4.32-9.44c-4.06-3.4-8.38-2.02-10.85,0.2
					c-2.48,2.23-4.07,6.24-1.69,9.79C233.96,158.58,235.98,159.04,237.8,159.37L237.8,159.37z"/>
			</g>
			<g>
				<path class="st7" d="M327.85,144.01c-0.39,0-0.76-0.13-1.08-0.26c-4.71-1.88-8.36-5.82-9.51-10.3c-0.17-0.68-0.3-1.38-0.42-2.07
					c-0.32-1.81-0.63-3.51-1.8-4.86c-0.8-0.92-1.92-1.58-3.36-2.28c-1.03-0.5-2.08-0.97-3.14-1.44c-1.96-0.87-4-1.78-5.86-2.9
					c-2.5-1.51-5.62-3.99-6.26-7.23c-0.04-0.23,0.07-0.46,0.29-0.55c3.66-1.63,8.39-1.11,13.66,1.53
					c9.41,4.69,17.89,14.53,19.19,20.19l0,0c0.6,2.63,0.36,5.28,0.13,7.84c-0.16,1.73-0.96,2.21-1.6,2.3
					C328.01,144.01,327.93,144.01,327.85,144.01z M297.5,112.89c0.74,2.7,3.48,4.83,5.7,6.17c1.81,1.09,3.82,1.98,5.75,2.84
					c1.06,0.47,2.13,0.95,3.17,1.45c1.34,0.65,2.71,1.41,3.68,2.52c1.35,1.55,1.69,3.48,2.03,5.34c0.12,0.66,0.24,1.35,0.41,1.99
					c1.07,4.17,4.49,7.86,8.91,9.62c0.28,0.11,0.57,0.22,0.81,0.18c0.52-0.07,0.69-0.8,0.75-1.4c0.22-2.48,0.46-5.05-0.11-7.53l0,0
					c-1.22-5.33-9.64-15.02-18.66-19.52C306.54,112.87,301.69,111.25,297.5,112.89z"/>
			</g>
			<g>
				<path class="st7" d="M264.19,189.27c-0.06,0-0.12,0-0.18,0c-1.23-0.05-2.83-0.61-3.42-3.05c-0.39-1.61,0.55-3.71,2.78-6.24
					l0.28-0.31c0.43-0.47,0.84-0.92,1.02-1.43c0.23-0.62,0.13-1.32,0.03-2.07c-0.03-0.22-0.06-0.43-0.08-0.65
					c-0.15-1.55,0.33-5.35,1.8-7.06c0.53-0.61,1.14-0.94,1.82-0.98c0.65-0.05,1.36,0.21,2.09,0.72c1.88,1.32,2.89,4.38,3.24,5.63
					c0.8,2.87,0.75,6.34-0.13,9.06C272.71,185.23,267.8,189.27,264.19,189.27z M268.39,168.46c-0.03,0-0.05,0-0.08,0c0,0,0,0,0,0
					c-0.41,0.02-0.77,0.23-1.12,0.63c-1.27,1.48-1.7,4.95-1.57,6.32c0.02,0.2,0.05,0.41,0.07,0.62c0.11,0.83,0.22,1.69-0.08,2.54
					c-0.25,0.7-0.75,1.24-1.22,1.76l-0.27,0.3c-1.95,2.21-2.86,4.11-2.56,5.35c0.36,1.49,1.17,2.24,2.48,2.29
					c3.07,0.13,7.8-3.63,8.47-5.7c0.82-2.54,0.86-5.8,0.12-8.49c-0.25-0.9-1.19-3.91-2.85-5.08
					C269.27,168.64,268.8,168.46,268.39,168.46z M268.29,167.96L268.29,167.96L268.29,167.96z"/>
			</g>
			<g>
				<path class="st7" d="M311.8,180.38c-1.09,0-2.17-0.17-3.08-0.38c-1.89-0.43-5.15-1.47-5.74-3.63c-0.32-1.19,0.22-2.46,1.62-3.78
					c2.31-2.18,5.19-4.9,9.53-3.11l0,0c2.75,1.13,4.12,3.65,3.59,6.58c-0.27,1.47-0.97,2.59-2.1,3.33
					C314.5,180.13,313.14,180.38,311.8,180.38z M311.42,169.91c-2.51,0-4.41,1.79-6.13,3.41c-1.11,1.05-1.56,1.99-1.34,2.79
					c0.32,1.19,2.19,2.28,4.99,2.92c2.59,0.59,4.77,0.42,6.13-0.47c0.88-0.58,1.44-1.48,1.66-2.68c0.53-2.91-1.19-4.74-2.98-5.47
					l0,0C312.92,170.06,312.14,169.91,311.42,169.91z"/>
			</g>
			<g>
				<path class="st7" d="M354.15,188.61c-2.22,0-4.53-1.15-5.72-2.78c-1.53-2.08-1.88-4.96-1.01-8.32l0,0
					c0.27-1.04,0.49-2.29,0.73-3.62c0.89-4.97,2-11.16,6.47-13.3c4.06-1.95,10.52-0.96,13.27,2.03c1.66,1.8,1.81,4.1,0.43,6.47
					c-0.5,0.85-1.2,1.58-1.87,2.28c-0.35,0.37-0.71,0.73-1.03,1.12c-1.3,1.54-2.1,3.4-2.88,5.19l-2.7,6.24
					c-0.55,1.28-1.24,2.87-2.7,3.85C356.25,188.34,355.21,188.61,354.15,188.61z M359.51,160.58c-1.61,0-3.18,0.29-4.46,0.9
					c-4,1.92-5.06,7.83-5.91,12.58c-0.24,1.35-0.47,2.62-0.75,3.69l0,0c-0.55,2.13-0.85,5.16,0.85,7.48
					c1.47,2.01,5.07,3.2,7.34,1.69c1.22-0.82,1.81-2.2,2.34-3.41l2.7-6.24c0.8-1.86,1.64-3.78,3.03-5.44
					c0.34-0.4,0.71-0.79,1.08-1.17c0.66-0.69,1.29-1.34,1.73-2.09c1.16-1.99,1.05-3.82-0.3-5.29
					C365.56,161.56,362.48,160.58,359.51,160.58z M347.91,177.63L347.91,177.63L347.91,177.63z"/>
			</g>
		</g>
		<g id="Line_00000105406263363245407170000001694138964322718380_">
			<g>
				<g>
					<path class="st7" d="M238.61,479.12c-0.01,0-0.02,0-0.03,0c-0.28-0.02-0.49-0.25-0.47-0.53c0.45-7.99-5.47-17.75-9.59-20.71
						c-0.57-0.41-1.17-0.81-1.76-1.2c-2.08-1.38-4.22-2.81-5.46-4.9c-2.05-3.46-0.97-7.5,0.31-11.33c3.8-11.37,6.8-20.87,7.99-31.07
						c1.38-11.92-0.19-22.5-4.67-31.46c-0.12-0.25-0.02-0.55,0.22-0.67s0.55-0.02,0.67,0.22c4.57,9.14,6.17,19.91,4.77,32.03
						c-1.19,10.3-4.21,19.85-8.03,31.28c-1.21,3.62-2.24,7.41-0.4,10.5c1.12,1.89,3.17,3.25,5.15,4.57c0.61,0.4,1.21,0.81,1.79,1.22
						c4.4,3.15,10.48,13.12,10,21.57C239.09,478.92,238.87,479.12,238.61,479.12z"/>
				</g>
				<g>
					<path class="st7" d="M235.44,433.54c-0.06,0-0.13-0.01-0.19-0.04c-0.26-0.1-0.38-0.39-0.28-0.65c1.25-3.1,1.98-6.42,2.69-9.63
						c1.67-7.57,3.39-15.4,1.95-23.22c-0.05-0.27,0.13-0.53,0.4-0.58c0.27-0.05,0.53,0.13,0.58,0.4c1.48,8.02-0.35,16.31-1.96,23.62
						c-0.72,3.25-1.46,6.61-2.74,9.79C235.82,433.42,235.63,433.54,235.44,433.54z"/>
				</g>
				<g>
					<path class="st7" d="M235.73,453.25c-0.14,0-0.28-0.06-0.38-0.18c-3.11-3.69-4.51-8.38-3.84-12.87
						c0.04-0.27,0.3-0.46,0.57-0.42c0.27,0.04,0.46,0.29,0.42,0.57c-0.62,4.21,0.7,8.61,3.62,12.08c0.18,0.21,0.15,0.53-0.06,0.71
						C235.96,453.21,235.84,453.25,235.73,453.25z"/>
				</g>
				<g>
					<path class="st7" d="M220.58,477.43c-0.27,0-0.49-0.21-0.5-0.48c-0.18-5.14-2.34-11.72-4.62-18.68
						c-2.54-7.76-5.17-15.79-4.86-21.79c0.21-4.03,1.56-7.87,2.87-11.58c0.09-0.26,0.38-0.39,0.64-0.3c0.26,0.09,0.4,0.38,0.3,0.64
						c-1.29,3.64-2.62,7.41-2.82,11.29c-0.3,5.82,2.3,13.76,4.82,21.43c2.3,7.03,4.48,13.67,4.67,18.96
						c0.01,0.28-0.21,0.51-0.48,0.52C220.59,477.43,220.58,477.43,220.58,477.43z"/>
				</g>
				<g>
					<path class="st7" d="M211.23,476.73c-0.21,0-0.41-0.13-0.47-0.34c-0.7-2.11-0.93-4.49-1.18-7.01
						c-0.67-6.76-1.43-14.43-11.05-21.77c-0.22-0.17-0.26-0.48-0.09-0.7c0.17-0.22,0.48-0.26,0.7-0.09
						c9.97,7.6,10.78,15.84,11.44,22.46c0.24,2.46,0.47,4.78,1.14,6.79c0.09,0.26-0.06,0.54-0.32,0.63
						C211.33,476.73,211.28,476.73,211.23,476.73z"/>
				</g>
				<g>
					<path class="st7" d="M198.45,437.97c-0.02,0-0.04,0-0.06,0c-0.27-0.03-0.47-0.28-0.43-0.56l1.79-14.22
						c0.03-0.28,0.28-0.47,0.56-0.43c0.27,0.03,0.47,0.28,0.43,0.56l-1.79,14.22C198.91,437.78,198.7,437.97,198.45,437.97z"/>
				</g>
				<g>
					<path class="st7" d="M196.92,473.74c-0.18,0-0.35-0.1-0.44-0.26c-4.78-8.88-9.02-21.84-10.31-31.53
						c-0.04-0.27,0.16-0.53,0.43-0.56c0.26-0.03,0.53,0.16,0.56,0.43c1.27,9.58,5.47,22.41,10.19,31.19
						c0.13,0.24,0.04,0.55-0.2,0.68C197.09,473.72,197,473.74,196.92,473.74z"/>
				</g>
				<g>
					<path class="st7" d="M181.62,472.6c-0.25,0-0.47-0.19-0.5-0.45l-2.99-27.19c-0.03-0.27,0.17-0.52,0.44-0.55
						c0.26-0.04,0.52,0.17,0.55,0.44l2.99,27.19c0.03,0.27-0.17,0.52-0.44,0.55C181.65,472.6,181.64,472.6,181.62,472.6z"/>
				</g>
				<g>
					<path class="st7" d="M168.61,454.74c-0.01,0-0.03,0-0.04,0c-0.28-0.02-0.48-0.26-0.46-0.54c0.71-8.63,1.1-17.41,1.18-26.09
						c0-0.28,0.23-0.5,0.5-0.5c0,0,0,0,0,0c0.28,0,0.5,0.23,0.5,0.5c-0.08,8.71-0.47,17.51-1.18,26.16
						C169.08,454.54,168.86,454.74,168.61,454.74z"/>
				</g>
				<g>
					<path class="st7" d="M157.91,472.78c-0.23,0-0.43-0.16-0.49-0.39c-1.35-5.82-1.01-13.08-0.69-20.11
						c0.3-6.49,0.61-13.19-0.44-18.55c-0.05-0.27,0.12-0.53,0.39-0.59c0.26-0.05,0.53,0.12,0.59,0.39
						c1.08,5.47,0.76,12.24,0.46,18.79c-0.32,6.96-0.65,14.16,0.67,19.84c0.06,0.27-0.11,0.54-0.37,0.6
						C157.98,472.77,157.94,472.78,157.91,472.78z"/>
				</g>
				<g>
					<path class="st7" d="M171.37,473.73c-0.24,0-0.45-0.17-0.49-0.41c-0.2-1.12-0.98-3.44-1.74-5.68c-0.8-2.38-1.56-4.64-1.77-5.83
						c-0.05-0.27,0.13-0.53,0.4-0.58c0.26-0.05,0.53,0.13,0.58,0.4c0.2,1.12,0.98,3.44,1.74,5.68c0.8,2.38,1.56,4.63,1.77,5.82
						c0.05,0.27-0.13,0.53-0.4,0.58C171.43,473.73,171.4,473.73,171.37,473.73z"/>
				</g>
				<g>
					<path class="st7" d="M140.38,471.43c-0.07,0-0.13-0.01-0.2-0.04c-0.25-0.11-0.37-0.41-0.26-0.66
						c4.22-9.65,8.31-27.4,7.66-38.45c-0.02-0.28,0.19-0.51,0.47-0.53c0.27-0.02,0.51,0.19,0.53,0.47
						c0.65,11.2-3.48,29.16-7.75,38.91C140.76,471.32,140.58,471.43,140.38,471.43z"/>
				</g>
				<g>
					<path class="st7" d="M133.78,449.58c-0.07,0-0.14-0.01-0.21-0.05c-0.25-0.12-0.36-0.41-0.24-0.66
						c2.27-4.9,4.62-9.97,5.23-15.36c0.18-1.6,0.21-3.26,0.24-4.86c0.02-0.91,0.03-1.82,0.07-2.73c0.34-7.41,2.39-14.45,4.83-22.22
						c0.08-0.26,0.36-0.41,0.63-0.33c0.26,0.08,0.41,0.36,0.33,0.63c-2.42,7.71-4.45,14.68-4.78,21.97c-0.04,0.9-0.06,1.8-0.07,2.7
						c-0.03,1.62-0.06,3.31-0.24,4.96c-0.63,5.55-3.01,10.69-5.31,15.67C134.15,449.48,133.97,449.58,133.78,449.58z"/>
				</g>
				<g>
					<path class="st7" d="M127.24,468.57c-0.24,0-0.45-0.17-0.49-0.41c-0.58-3.15,1.67-12.81,3.59-15.42
						c0.17-0.22,0.48-0.27,0.7-0.11c0.22,0.16,0.27,0.48,0.11,0.7c-1.78,2.42-3.95,11.73-3.41,14.65c0.05,0.27-0.13,0.53-0.4,0.58
						C127.31,468.56,127.27,468.57,127.24,468.57z"/>
				</g>
				<g>
					<path class="st7" d="M202.27,466.52c-0.18,0-0.36-0.1-0.45-0.27c-1.85-3.65-3.39-7.46-4.57-11.31
						c-0.08-0.26,0.07-0.54,0.33-0.62c0.26-0.08,0.54,0.07,0.62,0.33c1.17,3.8,2.69,7.55,4.51,11.15c0.12,0.25,0.03,0.55-0.22,0.67
						C202.43,466.5,202.35,466.52,202.27,466.52z"/>
				</g>
				<g>
					<path class="st7" d="M159.87,418.78c-0.23,0-0.44-0.17-0.49-0.41l-2.14-11.07c-0.05-0.27,0.12-0.53,0.4-0.59
						c0.26-0.05,0.53,0.12,0.59,0.4l2.14,11.07c0.05,0.27-0.12,0.53-0.4,0.59C159.94,418.78,159.91,418.78,159.87,418.78z"/>
				</g>
				<g>
					<path class="st7" d="M156.65,400.38c-0.27,0-0.5-0.22-0.5-0.5c-0.06-6.39,4.29-12.12,8.49-17.66
						c3.46-4.56,7.04-9.27,8.04-14.24c0.05-0.27,0.33-0.44,0.59-0.39c0.27,0.05,0.45,0.32,0.39,0.59c-1.04,5.19-4.69,10-8.22,14.65
						c-4.1,5.41-8.35,11-8.29,17.04C157.15,400.15,156.93,400.38,156.65,400.38C156.65,400.38,156.65,400.38,156.65,400.38z"/>
				</g>
				<g>
					<path class="st7" d="M161.3,375.61C161.3,375.61,161.3,375.61,161.3,375.61c-0.28,0-0.5-0.23-0.5-0.5l0.14-15.8
						c0-0.27,0.23-0.5,0.5-0.5c0,0,0,0,0,0c0.28,0,0.5,0.23,0.5,0.5l-0.14,15.8C161.8,375.39,161.58,375.61,161.3,375.61z"/>
				</g>
			</g>
			<g>
				<g>
					<path class="st7" d="M225.97,321.68c-0.04,0-0.07,0-0.11-0.01c-0.27-0.06-0.44-0.32-0.38-0.59c1.36-6.37,2.1-13.12,2.25-20.63
						c0.01-0.27,0.23-0.49,0.5-0.49c0,0,0.01,0,0.01,0c0.28,0.01,0.5,0.23,0.49,0.51c-0.16,7.57-0.9,14.38-2.27,20.81
						C226.41,321.52,226.2,321.68,225.97,321.68z"/>
				</g>
				<g>
					<path class="st7" d="M228.23,294.87c-0.27,0-0.49-0.22-0.5-0.49c-0.21-10.42-1.38-21-2.51-31.24c-0.2-1.77-0.39-3.54-0.58-5.31
						c-0.03-0.27,0.17-0.52,0.44-0.55c0.27-0.03,0.52,0.17,0.55,0.44c0.19,1.77,0.39,3.54,0.58,5.31
						c1.14,10.26,2.31,20.86,2.52,31.33C228.74,294.64,228.52,294.86,228.23,294.87C228.24,294.87,228.24,294.87,228.23,294.87z"/>
				</g>
				<g>
					<path class="st7" d="M224.44,251.54c-0.25,0-0.47-0.19-0.5-0.45c-0.77-7.87-1.59-18.24-1.15-28.64
						c0.01-0.27,0.23-0.48,0.5-0.48c0.01,0,0.01,0,0.02,0c0.28,0.01,0.49,0.25,0.48,0.52c-0.44,10.34,0.38,20.66,1.15,28.5
						c0.03,0.28-0.17,0.52-0.45,0.55C224.47,251.54,224.45,251.54,224.44,251.54z"/>
				</g>
				<g>
					<path class="st7" d="M211.63,263.13c-0.03,0-0.05,0-0.08-0.01c-0.27-0.04-0.46-0.29-0.42-0.57c2.22-14.79,3.67-29.88,4.3-44.85
						c0.01-0.27,0.23-0.48,0.5-0.48c0.01,0,0.01,0,0.02,0c0.28,0.01,0.49,0.25,0.48,0.52c-0.64,15-2.09,30.13-4.32,44.96
						C212.09,262.95,211.88,263.13,211.63,263.13z"/>
				</g>
				<g>
					<path class="st7" d="M201.61,254.46c-0.04,0-0.08,0-0.12-0.01c-0.27-0.07-0.43-0.34-0.37-0.6c3.22-13.08,4.95-26.55,5.15-40.04
						c0-0.28,0.21-0.53,0.51-0.49c0.28,0,0.5,0.23,0.49,0.51c-0.2,13.56-1.94,27.11-5.18,40.26
						C202.03,254.31,201.83,254.46,201.61,254.46z"/>
				</g>
				<g>
					<path class="st7" d="M190.76,302.89c-0.01,0-0.01,0-0.02,0c-0.28-0.01-0.49-0.24-0.48-0.52c0.22-5.58,0.48-11.24,0.77-16.81
						c0.01-0.28,0.21-0.51,0.52-0.47c0.28,0.01,0.49,0.25,0.47,0.52c-0.29,5.57-0.54,11.23-0.77,16.8
						C191.25,302.68,191.03,302.89,190.76,302.89z"/>
				</g>
				<g>
					<path class="st7" d="M191.86,279.89c-0.01,0-0.02,0-0.03,0c-0.28-0.02-0.49-0.25-0.47-0.53c0.67-12.03,1.5-24.21,2.48-36.21
						c0.02-0.28,0.28-0.47,0.54-0.46c0.28,0.02,0.48,0.26,0.46,0.54c-0.97,11.99-1.8,24.17-2.47,36.19
						C192.34,279.69,192.12,279.89,191.86,279.89z"/>
				</g>
				<g>
					<path class="st7" d="M194.85,237.52c-0.01,0-0.03,0-0.04,0c-0.28-0.02-0.48-0.27-0.46-0.54c0.8-9.37,1.7-18.85,2.68-28.19
						c0.03-0.28,0.28-0.48,0.55-0.45c0.28,0.03,0.47,0.27,0.45,0.55c-0.98,9.33-1.88,18.81-2.68,28.17
						C195.32,237.32,195.11,237.52,194.85,237.52z"/>
				</g>
				<g>
					<path class="st7" d="M185.75,260.95c-0.26,0-0.48-0.2-0.5-0.47c-0.59-8.68,0.31-17.45,1.17-25.93c0.93-9.12,1.9-18.56,1-27.85
						c-0.03-0.27,0.17-0.52,0.45-0.55c0.27,0,0.52,0.17,0.55,0.45c0.91,9.39-0.06,18.87-1,28.04c-0.86,8.44-1.76,17.17-1.17,25.76
						c0.02,0.28-0.19,0.51-0.46,0.53C185.77,260.95,185.76,260.95,185.75,260.95z"/>
				</g>
				<g>
					<path class="st7" d="M176.66,249.41c-0.02,0-0.03,0-0.05,0c-0.28-0.03-0.48-0.27-0.45-0.55c1.42-14.67,2.35-29.57,2.76-44.28
						c0.01-0.28,0.22-0.47,0.51-0.49c0.28,0.01,0.49,0.24,0.49,0.51c-0.41,14.74-1.34,29.66-2.77,44.35
						C177.13,249.22,176.91,249.41,176.66,249.41z"/>
				</g>
				<g>
					<path class="st7" d="M168.04,267.81c-0.01,0-0.02,0-0.03,0c-0.28-0.02-0.48-0.25-0.47-0.53c1.28-20.64,2.01-41.6,2.17-62.29
						c0-0.27,0.23-0.5,0.5-0.5c0,0,0,0,0,0c0.28,0,0.5,0.23,0.5,0.5c-0.16,20.72-0.89,41.69-2.17,62.35
						C168.52,267.6,168.31,267.81,168.04,267.81z"/>
				</g>
				<g>
					<path class="st7" d="M153.12,287.11c-0.02,0-0.04,0-0.06,0c-0.27-0.04-0.47-0.29-0.43-0.56c0.25-2.01,0.42-3.88,0.57-5.69
						c0.38-4.35,0.73-8.46,2.25-14.35c0.07-0.27,0.34-0.43,0.61-0.36c0.27,0.07,0.43,0.34,0.36,0.61c-1.5,5.82-1.85,9.88-2.22,14.19
						c-0.16,1.82-0.32,3.7-0.58,5.73C153.58,286.93,153.37,287.11,153.12,287.11z"/>
				</g>
				<g>
					<path class="st7" d="M157.14,260.05c-0.27,0-0.49-0.21-0.5-0.48c-0.3-6.58,0.71-13.46,1.69-20.11
						c0.22-1.52,0.45-3.03,0.65-4.51c0.92-6.76,1.26-17.67,1.51-25.63l0.11-3.34c0.01-0.27,0.23-0.48,0.5-0.48c0,0,0.01,0,0.02,0
						c0.28,0.01,0.49,0.24,0.48,0.52l-0.11,3.34c-0.25,7.99-0.59,18.92-1.52,25.74c-0.2,1.49-0.43,3-0.65,4.52
						c-0.97,6.61-1.98,13.44-1.68,19.92c0.01,0.28-0.2,0.51-0.48,0.52C157.15,260.05,157.15,260.05,157.14,260.05z"/>
				</g>
				<g>
					<path class="st7" d="M210.69,360.47c-0.05,0-0.1-0.01-0.14-0.02c-0.26-0.08-0.41-0.36-0.33-0.62
						c3.31-10.95,4.22-22.25,2.72-33.59c-0.04-0.27,0.16-0.53,0.43-0.56c0.27-0.03,0.53,0.16,0.56,0.43
						c1.52,11.47,0.59,22.92-2.76,34.01C211.1,360.33,210.9,360.47,210.69,360.47z"/>
				</g>
				<g>
					<path class="st7" d="M212.83,315.66c-0.06,0-0.13-0.01-0.19-0.04c-0.26-0.1-0.38-0.4-0.27-0.65c0.98-2.4,1.56-4.88,1.72-7.36
						c0.02-0.27,0.22-0.51,0.53-0.47c0.28,0.02,0.49,0.25,0.47,0.53c-0.16,2.59-0.76,5.17-1.79,7.67
						C213.21,315.54,213.02,315.66,212.83,315.66z"/>
				</g>
			</g>
		</g>
	</g>
</g>
<g id="Guide">
</g>
</svg>
