<?xml version="1.0" encoding="utf-8"?>
<!-- Generator: Adobe Illustrator 26.1.0, SVG Export Plug-In . SVG Version: 6.00 Build 0)  -->
<svg version="1.1" xmlns="http://www.w3.org/2000/svg" xmlns:xlink="http://www.w3.org/1999/xlink" x="0px" y="0px"
	 viewBox="0 0 166.51 351.3" style="enable-background:new 0 0 166.51 351.3;" xml:space="preserve">
<style type="text/css">
	.st0{fill:#FFFFFF;stroke:#000000;stroke-miterlimit:10;}
	.st1{fill:#BFA071;stroke:#554B4E;stroke-width:1.5;stroke-linecap:round;stroke-linejoin:round;stroke-miterlimit:10;}
	.st2{fill:#BFA071;stroke:#554B4E;stroke-linecap:round;stroke-linejoin:round;stroke-miterlimit:10;}
	.st3{fill:#F8F4E9;stroke:#554B4E;stroke-width:1.5;stroke-linecap:round;stroke-linejoin:round;stroke-miterlimit:10;}
	.st4{fill:#F2DED6;stroke:#554B4E;stroke-width:1.5;stroke-linecap:round;stroke-linejoin:round;stroke-miterlimit:10;}
	.st5{fill:none;stroke:#554B4E;stroke-linecap:round;stroke-linejoin:round;stroke-miterlimit:10;}
	.st6{fill:#BFA071;}
	.st7{fill:#554B4E;}
	.st8{fill:#F8F4E9;}
	.st9{fill:none;stroke:#554B4E;stroke-width:1.5;stroke-linecap:round;stroke-linejoin:round;stroke-miterlimit:10;}
	.st10{fill:#F8F4E9;stroke:#554B4E;stroke-linecap:round;stroke-linejoin:round;stroke-miterlimit:10;}
	.st11{fill:#F2DED6;stroke:#554B4E;stroke-linecap:round;stroke-linejoin:round;stroke-miterlimit:10;}
	.st12{clip-path:url(#SVGID_00000034079181932398818710000004788249874894994603_);}
	.st13{fill:none;stroke:#BFA071;stroke-width:1.5;stroke-linecap:round;stroke-linejoin:round;}
	.st14{fill:none;stroke:#BFA071;stroke-width:1.5;stroke-linecap:round;stroke-linejoin:round;stroke-dasharray:68.8403,19.6687;}
	.st15{fill:none;stroke:#BFA071;stroke-width:1.5;stroke-linecap:round;stroke-linejoin:round;stroke-dasharray:71.4455,20.413;}
	.st16{fill:none;stroke:#BFA071;stroke-width:1.5;stroke-linecap:round;stroke-linejoin:round;stroke-dasharray:69.5884,19.8824;}
	.st17{fill:none;stroke:#BFA071;stroke-width:1.5;stroke-linecap:round;stroke-linejoin:round;stroke-dasharray:61.3524,17.5292;}
	.st18{fill:none;stroke:#BFA071;stroke-width:1.5;stroke-linecap:round;stroke-linejoin:round;stroke-dasharray:63.9932,18.2838;}
	.st19{fill:none;stroke:#BFA071;stroke-width:1.5;stroke-linecap:round;stroke-linejoin:round;stroke-dasharray:72.7778,20.7937;}
	.st20{fill:none;stroke:#BFA071;stroke-width:1.5;stroke-linecap:round;stroke-linejoin:round;stroke-dasharray:77.193,22.0551;}
	.st21{fill:none;stroke:#BFA071;stroke-width:1.5;stroke-linecap:round;stroke-linejoin:round;stroke-dasharray:75.3802,21.5372;}
	.st22{fill:none;stroke:#BFA071;stroke-width:1.5;stroke-linecap:round;stroke-linejoin:round;stroke-dasharray:73.6885,21.0538;}
	.st23{fill:none;stroke:#BFA071;stroke-width:1.5;stroke-linecap:round;stroke-linejoin:round;stroke-dasharray:63.3162,18.0903;}
	.st24{fill:none;stroke:#BFA071;stroke-width:1.5;stroke-linecap:round;stroke-linejoin:round;stroke-dasharray:62.0513,17.7289;}
	.st25{fill:none;stroke:#BFA071;stroke-width:1.5;stroke-linecap:round;stroke-linejoin:round;stroke-dasharray:68.9157,19.6902;}
	.st26{fill:none;stroke:#554B4E;stroke-width:1.5;stroke-linecap:round;stroke-linejoin:round;}
	.st27{fill:none;stroke:#554B4E;stroke-width:1.5;stroke-linecap:round;stroke-linejoin:round;stroke-dasharray:15.0532,10.0355;}
	.st28{fill:none;stroke:#554B4E;stroke-width:1.5;stroke-linecap:round;stroke-linejoin:round;stroke-dasharray:14.9985,9.999;}
	.st29{fill:none;stroke:#554B4E;stroke-width:1.5;stroke-linecap:round;stroke-linejoin:round;stroke-dasharray:14.8977,9.9318;}
	.st30{fill:none;stroke:#554B4E;stroke-width:1.5;stroke-linecap:round;stroke-linejoin:round;stroke-dasharray:15.4213,10.2808;}
	.st31{fill:none;stroke:#554B4E;stroke-width:1.5;stroke-linecap:round;stroke-linejoin:round;stroke-dasharray:15.2271,10.1514;}
	.st32{fill:none;stroke:#554B4E;stroke-width:1.5;stroke-linecap:round;stroke-linejoin:round;stroke-dasharray:15.021,10.014;}
	.st33{fill:none;stroke:#554B4E;stroke-width:1.5;stroke-linecap:round;stroke-linejoin:round;stroke-dasharray:15.0727,10.0485;}
	.st34{fill:none;stroke:#554B4E;stroke-width:1.5;stroke-linecap:round;stroke-linejoin:round;stroke-dasharray:14.6942,9.7961;}
	.st35{fill:none;stroke:#554B4E;stroke-width:1.5;stroke-linecap:round;stroke-linejoin:round;stroke-dasharray:14.7469,9.8312;}
	.st36{fill:none;stroke:#554B4E;stroke-width:1.5;stroke-linecap:round;stroke-linejoin:round;stroke-dasharray:15.0819,10.0546;}
	.st37{fill:none;stroke:#554B4E;stroke-width:1.5;stroke-linecap:round;stroke-linejoin:round;stroke-dasharray:15.003,10.002;}
	.st38{fill:#F2DED6;}
	.st39{fill:#F2DED6;stroke:#554B4E;stroke-width:1.5;stroke-linecap:round;stroke-miterlimit:10;}
	.st40{fill:none;stroke:#554B4E;stroke-width:1.5;stroke-linecap:round;stroke-miterlimit:10;}
	.st41{fill:none;stroke:#554B4E;stroke-linecap:round;stroke-miterlimit:10;}
	.st42{fill:none;stroke:#BFA071;stroke-linecap:round;stroke-linejoin:round;}
	.st43{fill:none;stroke:#BFA071;stroke-linecap:round;stroke-linejoin:round;stroke-dasharray:14.9905,14.9905;}
	.st44{fill:none;stroke:#BFA071;stroke-linecap:round;stroke-linejoin:round;stroke-dasharray:51.384,34.256;}
	.st45{fill:none;stroke:#554B4E;stroke-miterlimit:10;}
	.st46{clip-path:url(#SVGID_00000152242751538925291100000016637555647147196850_);}
	.st47{fill:none;stroke:#554B4E;stroke-width:1.5;stroke-linecap:round;stroke-linejoin:round;stroke-dasharray:68.8403,19.6687;}
	.st48{fill:none;stroke:#554B4E;stroke-width:1.5;stroke-linecap:round;stroke-linejoin:round;stroke-dasharray:71.4455,20.413;}
	.st49{fill:none;stroke:#554B4E;stroke-width:1.5;stroke-linecap:round;stroke-linejoin:round;stroke-dasharray:69.5884,19.8824;}
	.st50{fill:none;stroke:#554B4E;stroke-width:1.5;stroke-linecap:round;stroke-linejoin:round;stroke-dasharray:61.3524,17.5292;}
	.st51{fill:none;stroke:#554B4E;stroke-width:1.5;stroke-linecap:round;stroke-linejoin:round;stroke-dasharray:63.9932,18.2838;}
	.st52{fill:none;stroke:#554B4E;stroke-width:1.5;stroke-linecap:round;stroke-linejoin:round;stroke-dasharray:72.7778,20.7937;}
	.st53{fill:none;stroke:#554B4E;stroke-width:1.5;stroke-linecap:round;stroke-linejoin:round;stroke-dasharray:77.193,22.0551;}
	.st54{fill:none;stroke:#554B4E;stroke-width:1.5;stroke-linecap:round;stroke-linejoin:round;stroke-dasharray:75.3802,21.5372;}
	.st55{fill:none;stroke:#554B4E;stroke-width:1.5;stroke-linecap:round;stroke-linejoin:round;stroke-dasharray:73.6885,21.0538;}
	.st56{fill:none;stroke:#554B4E;stroke-width:1.5;stroke-linecap:round;stroke-linejoin:round;stroke-dasharray:63.3162,18.0903;}
	.st57{fill:none;stroke:#554B4E;stroke-width:1.5;stroke-linecap:round;stroke-linejoin:round;stroke-dasharray:62.0513,17.7289;}
	.st58{fill:none;stroke:#554B4E;stroke-width:1.5;stroke-linecap:round;stroke-linejoin:round;stroke-dasharray:68.9157,19.6902;}
	.st59{fill:none;stroke:#554B4E;stroke-linecap:round;stroke-linejoin:round;}
	.st60{fill:none;stroke:#554B4E;stroke-linecap:round;stroke-linejoin:round;stroke-dasharray:14.9905,14.9905;}
	.st61{fill:none;stroke:#554B4E;stroke-linecap:round;stroke-linejoin:round;stroke-dasharray:51.384,34.256;}
	.st62{fill:#95608F;}
	.st63{fill:#ED859E;}
	.st64{fill:#FAC87D;}
	.st65{opacity:0.1;}
	.st66{fill:#B5846F;}
	.st67{fill:#B5846F;stroke:#B5846F;stroke-width:5;stroke-linecap:round;stroke-linejoin:round;stroke-miterlimit:10;}
	.st68{fill:#EAD9EB;}
	.st69{fill:#FFFFFF;}
	.st70{fill:url(#SVGID_00000008851035516280184730000017716792391754784434_);}
	.st71{opacity:0.8;fill:#FFFFFF;}
	.st72{fill:url(#SVGID_00000127011060255176376540000002445954330471107971_);}
	.st73{fill:url(#SVGID_00000043436801496056319550000003810510864981787834_);}
	.st74{opacity:0.8;}
	.st75{opacity:0.6;}
	.st76{opacity:0.2;}
	.st77{fill:none;}
	.st78{fill:url(#SVGID_00000036930538347867503520000007655304443429168774_);}
	.st79{fill:url(#SVGID_00000138567531487541123220000010691256998939760015_);}
	.st80{clip-path:url(#SVGID_00000031192599583281321160000001027854038274657975_);fill:#FFFFFF;}
	.st81{clip-path:url(#SVGID_00000157999633994023561890000014212550098340183433_);fill:#FFFFFF;}
	.st82{clip-path:url(#SVGID_00000124131017152024449340000001323539699747308683_);fill:#FFFFFF;}
	.st83{clip-path:url(#SVGID_00000128475881751657020490000017017203378240445568_);fill:#FFFFFF;}
	.st84{clip-path:url(#SVGID_00000005972630472185585650000016307550867418686878_);fill:#FFFFFF;}
</style>
<g id="Bg">
</g>
<g id="Graphic">
	<g id="Mushroom_2_00000043444640891059963440000014396298464950670467_">
		<g id="Gill_00000018933348146838913920000000036834079337377706_">
			<g>
				<path class="st7" d="M36.25,151.79c-2.78,0-5.15-0.82-7.76-1.73c-0.95-0.33-1.94-0.67-3.02-1c-1.59-0.49-3.31-0.74-4.97-0.99
					c-2.19-0.33-4.45-0.67-6.55-1.53c-3.85-1.57-7.29-4.43-10.23-8.5c-0.24-0.34-0.17-0.8,0.17-1.05c0.33-0.25,0.8-0.17,1.05,0.17
					c2.78,3.84,6,6.53,9.58,7.99c1.94,0.79,4.01,1.1,6.21,1.43c1.71,0.26,3.49,0.52,5.18,1.04c1.09,0.33,2.1,0.68,3.07,1.02
					c3.84,1.33,6.87,2.38,11.44,0.98c17.54-5.37,28.96-5.76,33.92-1.16c0.3,0.28,0.32,0.76,0.04,1.06c-0.28,0.3-0.76,0.32-1.06,0.04
					c-4.54-4.21-15.46-3.71-32.46,1.49C39.16,151.58,37.65,151.79,36.25,151.79z"/>
			</g>
			<g>
				<path class="st7" d="M107.37,141.31c-0.29,0-0.58-0.18-0.69-0.47c-0.16-0.38,0.03-0.82,0.41-0.98c2.97-1.21,5.7-3.19,8.62-6.23
					c0.24-0.25,0.48-0.51,0.72-0.77c0.85-0.92,1.73-1.88,2.85-2.62c3.47-2.29,7.76-1.73,11.9-1.2c3.19,0.42,6.49,0.84,9.37-0.03
					c1.26-0.39,2.42-1.01,3.63-1.67c0.69-0.37,1.4-0.76,2.14-1.1c0.95-0.44,1.95-0.8,2.91-1.15c1.18-0.43,2.3-0.84,3.35-1.38
					c3.86-1.97,12.99-11.37,12.41-19.83c-0.03-0.41,0.28-0.77,0.7-0.8c0.41-0.02,0.77,0.28,0.8,0.7c0.64,9.24-8.98,19.1-13.22,21.27
					c-1.14,0.58-2.35,1.02-3.52,1.45c-0.93,0.34-1.9,0.69-2.79,1.1c-0.69,0.32-1.38,0.69-2.05,1.06c-1.23,0.67-2.5,1.36-3.91,1.79
					c-3.19,0.97-6.65,0.52-10,0.09c-4.05-0.53-7.88-1.02-10.88,0.96c-0.97,0.64-1.75,1.49-2.57,2.38c-0.25,0.27-0.49,0.53-0.74,0.79
					c-3.06,3.19-5.96,5.28-9.13,6.58C107.56,141.29,107.47,141.31,107.37,141.31z"/>
			</g>
			<g>
				<g>
					<path class="st7" d="M20.39,147.8c-0.1,0-0.2-0.03-0.28-0.09c-0.23-0.16-0.28-0.47-0.13-0.7l8.84-12.78
						c0.16-0.23,0.47-0.29,0.7-0.13c0.23,0.16,0.28,0.47,0.13,0.7l-8.84,12.78C20.7,147.72,20.55,147.8,20.39,147.8z"/>
				</g>
				<g>
					<path class="st7" d="M34.78,151.64c-0.09,0-0.18-0.02-0.26-0.07c-0.24-0.14-0.31-0.45-0.17-0.69l14.94-24.39
						c0.14-0.24,0.45-0.31,0.69-0.17c0.24,0.14,0.31,0.45,0.17,0.69L35.2,151.4C35.11,151.55,34.94,151.64,34.78,151.64z"/>
				</g>
				<g>
					<path class="st7" d="M58,146.87c-0.05,0-0.09-0.01-0.14-0.02c-0.26-0.08-0.42-0.35-0.34-0.62l6.32-21.65
						c0.08-0.26,0.35-0.42,0.62-0.34c0.26,0.08,0.42,0.35,0.34,0.62l-6.32,21.65C58.42,146.73,58.22,146.87,58,146.87z"/>
				</g>
				<g>
					<path class="st7" d="M119.69,131.37c-0.14,0-0.28-0.06-0.38-0.18l-14.04-16.56c-0.18-0.21-0.15-0.53,0.06-0.7
						c0.21-0.18,0.53-0.15,0.7,0.06l14.04,16.56c0.18,0.21,0.15,0.53-0.06,0.7C119.92,131.33,119.8,131.37,119.69,131.37z"/>
				</g>
				<g>
					<path class="st7" d="M140.76,130.23c-0.12,0-0.24-0.04-0.33-0.13l-26.05-23.42c-0.21-0.18-0.22-0.5-0.04-0.71
						c0.19-0.21,0.5-0.22,0.71-0.04l26.05,23.42c0.21,0.18,0.22,0.5,0.04,0.71C141.04,130.18,140.9,130.23,140.76,130.23z"/>
				</g>
				<g>
					<path class="st7" d="M152.91,124.88c-0.13,0-0.26-0.05-0.36-0.15l-12.71-13.24c-0.19-0.2-0.19-0.52,0.01-0.71
						c0.2-0.19,0.52-0.18,0.71,0.01l12.71,13.24c0.19,0.2,0.19,0.52-0.01,0.71C153.16,124.84,153.04,124.88,152.91,124.88z"/>
				</g>
			</g>
		</g>
		<g id="Stem_00000082362439980979696260000003462979506122781099_">
			<path class="st7" d="M108.36,351.3c-1.29,0-2.53-0.24-3.65-0.99c-1.67-1.11-2.57-2.97-3.5-5.12c-1.93-4.47-3.73-8.42-5.32-11.9
				c-6.83-14.99-10.96-24.04-12.36-45.24c-0.59-8.92-0.17-17.95,0.23-26.69c0.21-4.56,0.43-9.28,0.5-13.92
				c0.55-35.34-5.15-76.55-16.92-122.49c-0.1-0.4,0.14-0.81,0.54-0.91c0.39-0.1,0.81,0.14,0.91,0.54
				c11.8,46.07,17.51,87.41,16.96,122.88c-0.07,4.66-0.29,9.39-0.5,13.97c-0.4,8.7-0.82,17.69-0.24,26.52
				c1.38,20.93,5.23,29.38,12.22,44.72c1.59,3.49,3.39,7.44,5.33,11.93c0.83,1.92,1.62,3.58,2.95,4.47
				c1.49,0.99,3.35,0.81,5.45,0.48l27.22-4.19c2.94-0.45,6.59-1.01,9.01-3.42c1.83-1.83,2.79-4.52,3.49-6.91
				c6.76-23.1,1.46-35.91-6.55-55.3c-1.74-4.21-3.54-8.56-5.4-13.45c-4.51-11.84-8.53-24.11-12.42-35.97
				c-5.07-15.47-10.3-31.45-13.63-47.74c-1.57-7.68-2.53-15.4-3.54-23.57c-1.63-13.19-3.33-26.82-7.8-40.56
				c-0.13-0.39,0.09-0.82,0.48-0.95c0.39-0.13,0.82,0.09,0.95,0.48c4.52,13.88,6.22,27.59,7.87,40.84
				c1.01,8.14,1.96,15.83,3.52,23.46c3.31,16.21,8.54,32.15,13.58,47.56c3.89,11.86,7.9,24.12,12.4,35.92
				c1.86,4.87,3.65,9.21,5.38,13.41c8.14,19.69,13.51,32.69,6.6,56.3c-0.75,2.57-1.8,5.48-3.87,7.55c-2.76,2.75-6.68,3.36-9.84,3.84
				l-27.22,4.19C110.25,351.18,109.29,351.3,108.36,351.3z"/>
		</g>
		<g id="Cap_00000159458010691922557910000003567588779249689253_">
			<path class="st7" d="M11.57,141.31c-2.12,0-3.96-0.45-5.53-1.36c-3.28-1.89-5.22-5.71-5.76-11.36
				c-1.61-16.79,4.3-31.66,9.52-44.77c3.29-8.26,6.39-16.06,7.11-23.17l0,0c2.82-28.04,9.68-45.2,21.58-53.99
				c8.6-6.36,20.01-8.17,33.92-5.39c22.85,4.56,27.45,10.97,37.53,25c2.68,3.74,5.72,7.97,9.61,12.89
				c4.97,6.28,10.61,12.22,16.06,17.96c7.83,8.24,15.92,16.77,22.23,26.5c3.98,6.13,10.63,16.4,8.14,25.32
				c-0.88,3.15-2.35,5.22-4.48,6.35c-4.04,2.14-9.49,0.29-14.76-1.49c-2.38-0.8-4.62-1.56-6.64-1.92c-3.19-0.58-6.21-1.61-9.12-2.61
				c-5.4-1.86-10.51-3.61-16.06-2.23c-2.72,0.68-4.64,2.97-7.3,6.14c-2.57,3.07-5.77,6.88-10.95,10.68
				c-7.81,5.73-17.36,3.77-23.68,2.46c-1.96-0.4-3.66-0.75-4.92-0.81c-16.04-0.71-28.71,5.15-42.12,11.34
				c-1.12,0.52-2.25,1.04-3.39,1.56C18.33,140.35,14.66,141.31,11.57,141.31z M18.39,60.8c-0.74,7.32-3.88,15.22-7.2,23.58
				c-5.16,12.96-11,27.64-9.42,44.07c0.49,5.14,2.18,8.57,5.02,10.21c3.42,1.97,8.51,1.43,15.14-1.6c1.14-0.52,2.26-1.04,3.38-1.56
				c13.58-6.27,26.41-12.23,42.81-11.48c1.38,0.06,3.13,0.42,5.16,0.84c6.42,1.32,15.21,3.13,22.49-2.2
				c5.04-3.7,8.17-7.44,10.69-10.44c2.73-3.26,4.89-5.84,8.09-6.63c5.98-1.49,11.29,0.34,16.91,2.27c2.86,0.98,5.82,2,8.9,2.55
				c2.13,0.38,4.43,1.16,6.86,1.98c4.97,1.68,10.11,3.41,13.58,1.58c1.75-0.93,2.97-2.7,3.74-5.43c2.31-8.26-4.11-18.17-7.95-24.1
				c-6.24-9.62-14.28-18.09-22.06-26.28c-5.47-5.77-11.13-11.73-16.15-18.07c-3.91-4.95-6.96-9.2-9.66-12.95
				C98.57,13.02,94.38,7.18,72.1,2.73C58.63,0.04,47.61,1.77,39.37,7.86C27.83,16.39,21.17,33.21,18.39,60.8L18.39,60.8z"/>
		</g>
		<g id="Line_00000103962007343843331080000014296975989785959567_">
			<g>
				<path class="st7" d="M93.02,186.63c-0.25,0-0.47-0.19-0.5-0.45c-1.35-14.2-3.37-28.52-6.02-42.57c-0.05-0.27,0.13-0.53,0.4-0.58
					c0.27-0.05,0.53,0.13,0.58,0.4c2.66,14.08,4.69,28.43,6.04,42.66c0.03,0.27-0.18,0.52-0.45,0.54
					C93.05,186.63,93.04,186.63,93.02,186.63z"/>
			</g>
			<g>
				<path class="st7" d="M106.79,218.69c-0.24,0-0.45-0.17-0.49-0.41c-1.72-9.4-3.32-19.47-5.21-32.66
					c-0.04-0.27,0.15-0.53,0.42-0.57c0.26-0.03,0.53,0.15,0.57,0.42c1.89,13.17,3.49,23.23,5.21,32.62c0.05,0.27-0.13,0.53-0.4,0.58
					C106.85,218.69,106.82,218.69,106.79,218.69z"/>
			</g>
			<g>
				<path class="st7" d="M100.23,176.51c-0.25,0-0.46-0.18-0.49-0.43l-1.51-10.91c-0.04-0.27,0.15-0.53,0.43-0.56
					c0.26-0.03,0.53,0.15,0.56,0.43l1.51,10.91c0.04,0.27-0.15,0.53-0.43,0.56C100.28,176.51,100.26,176.51,100.23,176.51z"/>
			</g>
			<g>
				<path class="st7" d="M100.17,288.5c-0.24,0-0.45-0.18-0.49-0.42c-0.57-3.63-1.15-7.17-1.72-10.52
					c-0.05-0.27,0.14-0.53,0.41-0.58c0.27-0.05,0.53,0.14,0.58,0.41c0.57,3.35,1.15,6.9,1.72,10.53c0.04,0.27-0.14,0.53-0.42,0.57
					C100.22,288.5,100.19,288.5,100.17,288.5z"/>
			</g>
			<g>
				<path class="st7" d="M116.35,349.21c-0.15,0-0.3-0.07-0.4-0.2c-7.15-9.54-9.07-16.16-11.97-26.19
					c-0.44-1.54-0.91-3.16-1.43-4.89c-0.62-2.09-0.97-6.06-1.34-10.28c-0.35-3.95-0.71-8.03-1.29-10.01
					c-0.08-0.26,0.07-0.54,0.34-0.62c0.26-0.08,0.54,0.07,0.62,0.34c0.61,2.08,0.96,6.02,1.33,10.21c0.35,3.98,0.71,8.09,1.31,10.08
					c0.52,1.73,0.99,3.36,1.43,4.89c2.98,10.27,4.77,16.47,11.81,25.87c0.17,0.22,0.12,0.53-0.1,0.7
					C116.56,349.18,116.45,349.21,116.35,349.21z"/>
			</g>
			<g>
				<path class="st7" d="M126.07,347.41c-0.01,0-0.03,0-0.04,0c-0.28-0.02-0.48-0.26-0.46-0.54c0.49-6.02-1.88-11.92-4.18-17.63
					c-0.35-0.87-0.7-1.74-1.04-2.6c-2.63-6.73-4.68-13.74-6.07-20.86c-0.05-0.27,0.12-0.53,0.39-0.59c0.26-0.06,0.53,0.12,0.59,0.39
					c1.38,7.05,3.41,14.01,6.02,20.68c0.34,0.86,0.68,1.72,1.03,2.59c2.34,5.81,4.77,11.82,4.25,18.08
					C126.54,347.21,126.32,347.41,126.07,347.41z"/>
			</g>
			<g>
				<path class="st7" d="M103.17,240.23c-0.05,0-0.09-0.01-0.14-0.02c-0.27-0.08-0.42-0.36-0.34-0.62
					c1.19-4.09-0.42-8.75-1.98-13.26c-0.24-0.69-0.48-1.38-0.71-2.06c-1.78-5.35-2.94-10.77-3.46-16.13
					c-0.03-0.28,0.18-0.52,0.45-0.55c0.28-0.01,0.52,0.17,0.55,0.45c0.5,5.28,1.65,10.63,3.41,15.91c0.23,0.68,0.46,1.37,0.7,2.05
					c1.61,4.66,3.28,9.47,2,13.87C103.58,240.09,103.39,240.23,103.17,240.23z"/>
			</g>
			<g>
				<path class="st7" d="M128.99,312.16c-0.26,0-0.48-0.2-0.5-0.46c-1.09-14.29-3.53-22.46-6.34-31.92
					c-1.13-3.8-2.3-7.73-3.51-12.43c-0.07-0.27,0.09-0.54,0.36-0.61s0.54,0.09,0.61,0.36c1.21,4.68,2.38,8.6,3.5,12.39
					c2.83,9.52,5.28,17.74,6.38,32.13c0.02,0.28-0.19,0.52-0.46,0.54C129.02,312.16,129,312.16,128.99,312.16z"/>
			</g>
			<g>
				<path class="st7" d="M141.04,314.26c-0.26,0-0.48-0.2-0.5-0.46c-0.65-9.37-2.37-18.67-5.11-27.66
					c-0.08-0.26,0.07-0.54,0.33-0.62c0.26-0.08,0.54,0.07,0.62,0.33c2.76,9.06,4.49,18.44,5.15,27.88c0.02,0.28-0.19,0.51-0.46,0.53
					C141.06,314.26,141.05,314.26,141.04,314.26z"/>
			</g>
			<g>
				<path class="st7" d="M101.31,150.9c-0.24,0-0.45-0.17-0.49-0.42c-0.82-4.77-2.05-9.49-3.66-14.04c-0.09-0.26,0.04-0.55,0.3-0.64
					c0.26-0.09,0.54,0.04,0.64,0.3c1.63,4.61,2.87,9.39,3.71,14.21c0.05,0.27-0.14,0.53-0.41,0.58
					C101.36,150.9,101.33,150.9,101.31,150.9z"/>
			</g>
			<g>
				<path class="st7" d="M142.21,344.6C142.21,344.6,142.21,344.6,142.21,344.6c-0.28,0-0.5-0.23-0.5-0.51
					c0.03-3.05,0.59-5.78,1.13-8.42c0.82-4.04,1.6-7.87,0.35-12.28c-0.08-0.27,0.08-0.54,0.35-0.62c0.27-0.07,0.54,0.08,0.62,0.35
					c1.31,4.64,0.51,8.58-0.33,12.75c-0.53,2.59-1.07,5.27-1.11,8.23C142.71,344.38,142.48,344.6,142.21,344.6z"/>
			</g>
		</g>
		<g id="Scale_00000093147221195741511480000009816810273115358137_">
			<g>
				<path class="st7" d="M19.69,119.66c-1.81,0-3.03-0.9-3.81-1.83c-4.65-5.54-2.58-21.67,0.52-26.51l0,0
					c1.15-1.8,2.6-2.68,4.38-2.62c4.35,0.15,8.95,6.13,10.14,8.29c1.95,3.57,2.24,8.22,0.76,12.45c-1.52,4.35-4.78,7.76-9.17,9.6
					C21.44,119.47,20.5,119.66,19.69,119.66z M17.24,91.85L17.24,91.85c-3.21,5.01-4.68,20.47-0.59,25.33
					c1.34,1.6,3.13,1.9,5.47,0.92c4.13-1.73,7.19-4.93,8.62-9.01c1.37-3.91,1.1-8.37-0.69-11.64c-1.22-2.23-5.64-7.64-9.29-7.77
					C19.33,89.62,18.2,90.35,17.24,91.85z"/>
			</g>
			<g>
				<path class="st7" d="M42.24,99.24c-1.46,0-2.92-0.43-4.16-1.3c-1.67-1.17-3.01-3.46-3.35-5.71c-0.27-1.74,0.07-3.28,0.97-4.44
					c0.38-0.5,0.86-0.91,1.43-1.23c0,0,0,0,0,0c4.24-2.35,9.55-0.54,11.66,2.55c1.87,2.73,1.11,5.92-2.02,8.52
					C45.49,98.7,43.87,99.24,42.24,99.24z M37.61,87.44c-0.46,0.25-0.82,0.57-1.13,0.96c-0.92,1.19-0.93,2.66-0.77,3.68
					c0.3,1.99,1.49,4.02,2.94,5.04c2.25,1.58,5.4,1.47,7.47-0.25c2.74-2.27,3.4-4.89,1.83-7.19C46.09,86.95,41.38,85.35,37.61,87.44
					z"/>
			</g>
			<g>
				<path class="st7" d="M43.56,118.84c-1.54,0-3.84-0.27-5.47-1.68c-1.5-1.29-2.1-2.43-1.84-3.48c0.5-2.02,4.03-2.83,7.43-3.6
					c1.78-0.41,3.79-0.86,4.17-1.35c3.32-4.4,7.6-6.35,10.13-6c1.1,0.15,1.89,0.73,2.24,1.63c0.5,1.29,0.32,3.76-3.4,8.25
					c-2.66,3.21-7.79,5.82-12.18,6.19C44.35,118.82,43.98,118.84,43.56,118.84z M57.35,103.69c-2.24,0-5.87,1.88-8.71,5.64
					c0,0,0,0,0,0c-0.56,0.74-2.17,1.13-4.74,1.72c-2.67,0.61-6.33,1.44-6.68,2.87c-0.2,0.8,0.72,1.79,1.53,2.48
					c1.85,1.6,4.91,1.47,5.81,1.4c4.16-0.35,8.99-2.8,11.5-5.83c3.72-4.49,3.5-6.57,3.23-7.25c-0.22-0.56-0.71-0.9-1.45-1
					C57.68,103.7,57.52,103.69,57.35,103.69z M48.24,109.03L48.24,109.03L48.24,109.03z"/>
			</g>
			<g>
				<path class="st7" d="M103.9,49.14c-6.32,0-12.18-4-17.25-7.82c-3.1-2.34-6.04-4.71-8.04-7.88c-1.79-2.84-5.93-13.83-3.67-18.2
					c0.6-1.15,1.57-1.78,2.91-1.85c10.32-0.59,13.65,6.13,17.53,13.89c0.92,1.85,1.88,3.76,2.98,5.69c2.14,3.76,4.75,7.82,8.69,8.4
					c0.16,0.02,0.32,0.04,0.49,0.06c0.61,0.07,1.25,0.14,1.84,0.48c0.66,0.38,1.13,1.07,1.31,1.92c0.22,1.04,0,2.19-0.59,3.02
					c-0.86,1.19-2.31,1.93-4.34,2.19C105.13,49.1,104.51,49.14,103.9,49.14z M79.06,14.35c-0.38,0-0.76,0.01-1.16,0.03
					c-0.97,0.05-1.65,0.48-2.07,1.31c-1.97,3.8,1.86,14.39,3.63,17.21c1.91,3.04,4.66,5.25,7.79,7.62
					c5.4,4.08,11.73,8.36,18.38,7.51c1.74-0.22,2.96-0.82,3.65-1.78c0.42-0.59,0.59-1.46,0.43-2.22c-0.12-0.57-0.42-1.02-0.84-1.26
					c-0.41-0.24-0.91-0.29-1.45-0.35c-0.17-0.02-0.35-0.04-0.52-0.06c-4.39-0.65-7.16-4.93-9.42-8.9l0,0
					c-1.11-1.95-2.07-3.87-3-5.73C90.77,20.29,87.8,14.35,79.06,14.35z"/>
			</g>
			<g>
				<path class="st7" d="M110.98,68.16c-1.81,0-4.94-0.39-6.61-2.85c-0.87-1.29-1.13-2.93-0.72-4.62c0.49-2.08,1.91-3.99,3.71-5
					c1.36-0.76,6.07-3.04,9.78-0.55c2.66,1.79,4.16,6.09,2.19,9.17c-1.53,2.4-4.52,3.79-8.21,3.83
					C111.08,68.16,111.03,68.16,110.98,68.16z M113.22,55.01c-2.34,0-4.55,1.09-5.38,1.56c-1.56,0.87-2.79,2.54-3.22,4.35
					c-0.24,1-0.33,2.48,0.58,3.83c1.44,2.14,4.37,2.44,5.9,2.41c1.58-0.02,5.47-0.38,7.38-3.37c1.5-2.35,0.57-6.14-1.91-7.81l0,0
					C115.53,55.27,114.36,55.01,113.22,55.01z"/>
			</g>
			<g>
				<path class="st7" d="M90.52,60.57c-1.15,0-2.23-0.48-2.92-1.32c-1-1.24-0.93-3.62-0.34-5.23c0.49-1.35,1.31-2.2,2.32-2.39h0
					c0.1-0.02,0.21-0.03,0.32-0.04c0.84-0.04,1.69,0.45,2.49,1.42c1.09,1.32,2.05,3.62,1.7,5.02c-0.31,1.23-1.3,2.15-2.67,2.45
					C91.12,60.54,90.82,60.57,90.52,60.57z M89.77,52.61c-0.87,0.17-1.35,1.17-1.57,1.75c-0.55,1.51-0.47,3.46,0.18,4.26
					c0.63,0.77,1.74,1.12,2.83,0.88c0.98-0.22,1.7-0.86,1.91-1.71c0.23-0.93-0.48-2.91-1.5-4.14c-0.57-0.7-1.18-1.09-1.66-1.06
					C89.89,52.59,89.83,52.59,89.77,52.61z"/>
			</g>
		</g>
	</g>
</g>
<g id="Guide">
</g>
</svg>
