<?xml version="1.0" encoding="utf-8"?>
<!-- Generator: Adobe Illustrator 26.1.0, SVG Export Plug-In . SVG Version: 6.00 Build 0)  -->
<svg version="1.1" xmlns="http://www.w3.org/2000/svg" xmlns:xlink="http://www.w3.org/1999/xlink" x="0px" y="0px"
	 viewBox="0 0 445.59 479.95" style="enable-background:new 0 0 445.59 479.95;" xml:space="preserve">
<style type="text/css">
	.st0{fill:#FFFFFF;stroke:#000000;stroke-miterlimit:10;}
	.st1{fill:#BFA071;stroke:#554B4E;stroke-width:1.5;stroke-linecap:round;stroke-linejoin:round;stroke-miterlimit:10;}
	.st2{fill:#BFA071;stroke:#554B4E;stroke-linecap:round;stroke-linejoin:round;stroke-miterlimit:10;}
	.st3{fill:#F8F4E9;stroke:#554B4E;stroke-width:1.5;stroke-linecap:round;stroke-linejoin:round;stroke-miterlimit:10;}
	.st4{fill:#F2DED6;stroke:#554B4E;stroke-width:1.5;stroke-linecap:round;stroke-linejoin:round;stroke-miterlimit:10;}
	.st5{fill:none;stroke:#554B4E;stroke-linecap:round;stroke-linejoin:round;stroke-miterlimit:10;}
	.st6{fill:#BFA071;}
	.st7{fill:#554B4E;}
	.st8{fill:#F8F4E9;}
	.st9{fill:none;stroke:#554B4E;stroke-width:1.5;stroke-linecap:round;stroke-linejoin:round;stroke-miterlimit:10;}
	.st10{fill:#F8F4E9;stroke:#554B4E;stroke-linecap:round;stroke-linejoin:round;stroke-miterlimit:10;}
	.st11{fill:#F2DED6;stroke:#554B4E;stroke-linecap:round;stroke-linejoin:round;stroke-miterlimit:10;}
	.st12{clip-path:url(#SVGID_00000173879743208016998710000003083993961802420897_);}
	.st13{fill:none;stroke:#BFA071;stroke-width:1.5;stroke-linecap:round;stroke-linejoin:round;}
	.st14{fill:none;stroke:#BFA071;stroke-width:1.5;stroke-linecap:round;stroke-linejoin:round;stroke-dasharray:68.8403,19.6687;}
	.st15{fill:none;stroke:#BFA071;stroke-width:1.5;stroke-linecap:round;stroke-linejoin:round;stroke-dasharray:71.4455,20.413;}
	.st16{fill:none;stroke:#BFA071;stroke-width:1.5;stroke-linecap:round;stroke-linejoin:round;stroke-dasharray:69.5884,19.8824;}
	.st17{fill:none;stroke:#BFA071;stroke-width:1.5;stroke-linecap:round;stroke-linejoin:round;stroke-dasharray:61.3524,17.5292;}
	.st18{fill:none;stroke:#BFA071;stroke-width:1.5;stroke-linecap:round;stroke-linejoin:round;stroke-dasharray:63.9932,18.2838;}
	.st19{fill:none;stroke:#BFA071;stroke-width:1.5;stroke-linecap:round;stroke-linejoin:round;stroke-dasharray:72.7778,20.7937;}
	.st20{fill:none;stroke:#BFA071;stroke-width:1.5;stroke-linecap:round;stroke-linejoin:round;stroke-dasharray:77.193,22.0551;}
	.st21{fill:none;stroke:#BFA071;stroke-width:1.5;stroke-linecap:round;stroke-linejoin:round;stroke-dasharray:75.3802,21.5372;}
	.st22{fill:none;stroke:#BFA071;stroke-width:1.5;stroke-linecap:round;stroke-linejoin:round;stroke-dasharray:73.6885,21.0538;}
	.st23{fill:none;stroke:#BFA071;stroke-width:1.5;stroke-linecap:round;stroke-linejoin:round;stroke-dasharray:63.3162,18.0903;}
	.st24{fill:none;stroke:#BFA071;stroke-width:1.5;stroke-linecap:round;stroke-linejoin:round;stroke-dasharray:62.0513,17.7289;}
	.st25{fill:none;stroke:#BFA071;stroke-width:1.5;stroke-linecap:round;stroke-linejoin:round;stroke-dasharray:68.9157,19.6902;}
	.st26{fill:none;stroke:#554B4E;stroke-width:1.5;stroke-linecap:round;stroke-linejoin:round;}
	.st27{fill:none;stroke:#554B4E;stroke-width:1.5;stroke-linecap:round;stroke-linejoin:round;stroke-dasharray:15.0532,10.0355;}
	.st28{fill:none;stroke:#554B4E;stroke-width:1.5;stroke-linecap:round;stroke-linejoin:round;stroke-dasharray:14.9985,9.999;}
	.st29{fill:none;stroke:#554B4E;stroke-width:1.5;stroke-linecap:round;stroke-linejoin:round;stroke-dasharray:14.8977,9.9318;}
	.st30{fill:none;stroke:#554B4E;stroke-width:1.5;stroke-linecap:round;stroke-linejoin:round;stroke-dasharray:15.4213,10.2808;}
	.st31{fill:none;stroke:#554B4E;stroke-width:1.5;stroke-linecap:round;stroke-linejoin:round;stroke-dasharray:15.2271,10.1514;}
	.st32{fill:none;stroke:#554B4E;stroke-width:1.5;stroke-linecap:round;stroke-linejoin:round;stroke-dasharray:15.021,10.014;}
	.st33{fill:none;stroke:#554B4E;stroke-width:1.5;stroke-linecap:round;stroke-linejoin:round;stroke-dasharray:15.0727,10.0485;}
	.st34{fill:none;stroke:#554B4E;stroke-width:1.5;stroke-linecap:round;stroke-linejoin:round;stroke-dasharray:14.6942,9.7961;}
	.st35{fill:none;stroke:#554B4E;stroke-width:1.5;stroke-linecap:round;stroke-linejoin:round;stroke-dasharray:14.7469,9.8312;}
	.st36{fill:none;stroke:#554B4E;stroke-width:1.5;stroke-linecap:round;stroke-linejoin:round;stroke-dasharray:15.0819,10.0546;}
	.st37{fill:none;stroke:#554B4E;stroke-width:1.5;stroke-linecap:round;stroke-linejoin:round;stroke-dasharray:15.003,10.002;}
	.st38{fill:#F2DED6;}
	.st39{fill:#F2DED6;stroke:#554B4E;stroke-width:1.5;stroke-linecap:round;stroke-miterlimit:10;}
	.st40{fill:none;stroke:#554B4E;stroke-width:1.5;stroke-linecap:round;stroke-miterlimit:10;}
	.st41{fill:none;stroke:#554B4E;stroke-linecap:round;stroke-miterlimit:10;}
	.st42{fill:none;stroke:#BFA071;stroke-linecap:round;stroke-linejoin:round;}
	.st43{fill:none;stroke:#BFA071;stroke-linecap:round;stroke-linejoin:round;stroke-dasharray:14.9905,14.9905;}
	.st44{fill:none;stroke:#BFA071;stroke-linecap:round;stroke-linejoin:round;stroke-dasharray:51.384,34.256;}
	.st45{fill:none;stroke:#554B4E;stroke-miterlimit:10;}
	.st46{clip-path:url(#SVGID_00000144314299323668699960000016413174538276681603_);}
	.st47{fill:none;stroke:#554B4E;stroke-width:1.5;stroke-linecap:round;stroke-linejoin:round;stroke-dasharray:68.8403,19.6687;}
	.st48{fill:none;stroke:#554B4E;stroke-width:1.5;stroke-linecap:round;stroke-linejoin:round;stroke-dasharray:71.4455,20.413;}
	.st49{fill:none;stroke:#554B4E;stroke-width:1.5;stroke-linecap:round;stroke-linejoin:round;stroke-dasharray:69.5884,19.8824;}
	.st50{fill:none;stroke:#554B4E;stroke-width:1.5;stroke-linecap:round;stroke-linejoin:round;stroke-dasharray:61.3524,17.5292;}
	.st51{fill:none;stroke:#554B4E;stroke-width:1.5;stroke-linecap:round;stroke-linejoin:round;stroke-dasharray:63.9932,18.2838;}
	.st52{fill:none;stroke:#554B4E;stroke-width:1.5;stroke-linecap:round;stroke-linejoin:round;stroke-dasharray:72.7778,20.7937;}
	.st53{fill:none;stroke:#554B4E;stroke-width:1.5;stroke-linecap:round;stroke-linejoin:round;stroke-dasharray:77.193,22.0551;}
	.st54{fill:none;stroke:#554B4E;stroke-width:1.5;stroke-linecap:round;stroke-linejoin:round;stroke-dasharray:75.3802,21.5372;}
	.st55{fill:none;stroke:#554B4E;stroke-width:1.5;stroke-linecap:round;stroke-linejoin:round;stroke-dasharray:73.6885,21.0538;}
	.st56{fill:none;stroke:#554B4E;stroke-width:1.5;stroke-linecap:round;stroke-linejoin:round;stroke-dasharray:63.3162,18.0903;}
	.st57{fill:none;stroke:#554B4E;stroke-width:1.5;stroke-linecap:round;stroke-linejoin:round;stroke-dasharray:62.0513,17.7289;}
	.st58{fill:none;stroke:#554B4E;stroke-width:1.5;stroke-linecap:round;stroke-linejoin:round;stroke-dasharray:68.9157,19.6902;}
	.st59{fill:none;stroke:#554B4E;stroke-linecap:round;stroke-linejoin:round;}
	.st60{fill:none;stroke:#554B4E;stroke-linecap:round;stroke-linejoin:round;stroke-dasharray:14.9905,14.9905;}
	.st61{fill:none;stroke:#554B4E;stroke-linecap:round;stroke-linejoin:round;stroke-dasharray:51.384,34.256;}
	.st62{fill:#95608F;}
	.st63{fill:#ED859E;}
	.st64{fill:#FAC87D;}
	.st65{opacity:0.1;}
	.st66{fill:#B5846F;}
	.st67{fill:#B5846F;stroke:#B5846F;stroke-width:5;stroke-linecap:round;stroke-linejoin:round;stroke-miterlimit:10;}
	.st68{fill:#EAD9EB;}
	.st69{fill:#FFFFFF;}
	.st70{fill:url(#SVGID_00000088116981292705715060000008892192308885445760_);}
	.st71{opacity:0.8;fill:#FFFFFF;}
	.st72{fill:url(#SVGID_00000081616020410517965580000003438567738752312962_);}
	.st73{fill:url(#SVGID_00000112625050365242031260000013106260365470621116_);}
	.st74{opacity:0.8;}
	.st75{opacity:0.6;}
	.st76{opacity:0.2;}
	.st77{fill:none;}
	.st78{fill:url(#SVGID_00000053529331521099154280000015118783479480764804_);}
	.st79{fill:url(#SVGID_00000076593127950296337210000005544681067487931317_);}
	.st80{clip-path:url(#SVGID_00000081637299275626963670000011131916344390303929_);fill:#FFFFFF;}
	.st81{clip-path:url(#SVGID_00000031917001465400783120000018238647390376561584_);fill:#FFFFFF;}
	.st82{clip-path:url(#SVGID_00000029751081595414634750000010121341992293764012_);fill:#FFFFFF;}
	.st83{clip-path:url(#SVGID_00000176734389931517104470000002002170735029444513_);fill:#FFFFFF;}
	.st84{clip-path:url(#SVGID_00000012446947111609991150000001875697693009851564_);fill:#FFFFFF;}
</style>
<g id="Bg">
</g>
<g id="Graphic">
	<g id="Crystal_ball_00000119823790822110999610000008230298788800226459_">
		<g id="Circle_00000168112474925939213680000007361153519701683888_">
			<path class="st7" d="M222.79,387.14c-23.32,0-46.4-5.87-66.75-16.98c-8.85-4.83-17.21-10.65-24.83-17.3
				c-30.44-26.52-47.9-64.87-47.9-105.2c0-76.91,62.57-139.48,139.48-139.48s139.48,62.57,139.48,139.48
				c0,40.33-17.46,78.68-47.9,105.2c-7.62,6.64-15.98,12.46-24.83,17.3C269.2,381.27,246.12,387.14,222.79,387.14z M222.79,109.68
				c-76.08,0-137.98,61.9-137.98,137.98c0,39.9,17.27,77.83,47.39,104.07c7.54,6.57,15.81,12.33,24.57,17.11
				c20.13,10.99,42.96,16.8,66.03,16.8c23.07,0,45.9-5.81,66.03-16.8c8.76-4.78,17.02-10.54,24.56-17.11
				c30.11-26.24,47.39-64.17,47.39-104.07C360.78,171.58,298.88,109.68,222.79,109.68z"/>
		</g>
		<g id="Shine_00000044144263044054041450000015866892434001546682_">
			<g>
				<path class="st7" d="M335.49,217.12c-5.8,0-14.03-4.41-17.49-9c-3.33-4.43-3.53-8.59-3.73-12.61c-0.04-0.82-0.08-1.63-0.15-2.45
					c-0.98-11.99-8.72-25.52-21.78-38.12c-0.49-0.48-1.1-1.05-1.78-1.69c-7.91-7.45-11.69-11.58-10.44-13.53
					c0.64-1,2.21-1.53,9.3,1.32c11.97,4.82,24.01,20.66,29.8,28.27l0.12,0.16c9.91,13.04,15.92,25.79,20.48,36.55
					c1.16,2.74,2.22,5.85,1.25,8.17c-0.46,1.1-1.33,1.92-2.6,2.42C337.6,216.96,336.59,217.12,335.49,217.12z M281.97,140.43
					c-0.46,0-0.58,0.1-0.59,0.11c-0.56,1.48,7.55,9.12,10.21,11.62c0.68,0.64,1.29,1.22,1.79,1.7
					c13.32,12.85,21.22,26.73,22.23,39.08c0.07,0.83,0.11,1.66,0.15,2.5c0.19,3.97,0.37,7.72,3.43,11.78c3.69,4.91,14,9.88,18.73,8
					c0.88-0.35,1.46-0.88,1.76-1.6c0.76-1.82-0.26-4.7-1.24-7.01c-4.53-10.67-10.48-23.32-20.3-36.22l0,0l-0.12-0.16
					c-5.26-6.92-17.58-23.12-29.16-27.78C284.66,140.74,282.78,140.43,281.97,140.43z"/>
			</g>
			<g>
				<path class="st7" d="M341.85,259.52c-1.89,0-3.96-1.16-6.18-3.46c-2.44-2.54-4.02-6.22-4.69-10.95
					c-0.67-4.72-0.21-8.76,1.35-12.01c1.75-3.62,4.76-5.96,8.25-6.42c2.93-0.38,5.82,0.7,7.71,2.9l0,0
					c1.52,1.76,2.36,4.16,2.43,6.92c0.08,3.08-0.51,6.15-1.08,9.12c-0.2,1.05-0.4,2.1-0.57,3.15c-0.56,3.42-2.06,9.34-5.87,10.53
					C342.76,259.45,342.31,259.52,341.85,259.52z M341.79,228.11c-0.33,0-0.67,0.02-1.01,0.07c-2.98,0.39-5.56,2.43-7.09,5.58
					c-1.43,2.97-1.84,6.72-1.22,11.14c0.62,4.41,2.06,7.81,4.28,10.12c2.32,2.41,4.34,3.38,6,2.86c2.19-0.68,4-4.18,4.84-9.34
					c0.17-1.06,0.38-2.12,0.58-3.19c0.55-2.9,1.13-5.89,1.05-8.8c-0.06-2.42-0.78-4.49-2.06-5.98l0,0
					C345.79,228.97,343.87,228.11,341.79,228.11z"/>
			</g>
			<g>
				<path class="st7" d="M162.12,353.04c-1.2,0-2.36-0.34-3.62-0.72l-0.44-0.13c-9.48-2.78-19.82-13.92-24.78-19.28l-0.11-0.12l0,0
					c-0.68-0.73-1.75-1.78-2.99-2.99c-6.25-6.11-17.89-17.47-17.74-25.99c0.04-2.34,0.95-4.33,2.71-5.93
					c1.38-1.25,3.05-1.68,4.97-1.29c6.81,1.42,14.8,13.06,16.69,17.25c7.13,15.84,14.76,24.37,26.34,34.58
					c0.91,0.8,1.85,1.63,1.98,3.28c0.02,0.31-0.15,0.6-0.43,0.74C163.79,352.88,162.95,353.04,162.12,353.04z M134.27,331.78
					l0.11,0.12c4.49,4.85,15.02,16.2,24.1,18.86l0.45,0.13c1.85,0.55,3.13,0.93,4.61,0.42c-0.18-0.63-0.61-1.07-1.39-1.75
					c-11.74-10.35-19.48-19-26.72-35.09c-1.9-4.21-9.72-15.17-15.62-16.4c-1.44-0.3-2.63,0-3.65,0.93
					c-1.46,1.33-2.18,2.91-2.22,4.85c-0.14,7.87,11.2,18.94,17.29,24.89C132.48,329.96,133.56,331.02,134.27,331.78L134.27,331.78z"
					/>
			</g>
			<g>
				<path class="st7" d="M110.24,292.37c-1.79,0-4.03-0.73-6.73-2.89l0,0c-1.75-1.4-2.84-3.43-3.16-5.88
					c-0.56-4.33-0.12-14.31,4.78-17.5c5.51-3.58,8.83-1.06,10.32,0.77c4.59,5.64,4.25,18.6-0.62,23.52
					C113.91,291.32,112.39,292.37,110.24,292.37z M110.36,265.79c-1.32,0-2.8,0.53-4.41,1.58c-4.03,2.62-4.66,11.75-4.11,16.05
					c0.26,2.05,1.17,3.75,2.61,4.9h0c2.63,2.1,6.38,3.99,9.31,1.03c4.26-4.3,4.55-16.56,0.52-21.51
					C113.18,266.47,111.87,265.79,110.36,265.79z"/>
			</g>
			<g>
				<path class="st7" d="M265.01,142.43c-2.99,0-6.28-1.49-9.27-4.27c-1.2-1.12-5-5.1-3.47-9.34c0.62-1.73,1.82-2.93,3.48-3.48
					c2.51-0.83,5.49,0.03,7.33,1.26c0.82,0.54,1.94,0.87,3.13,1.22c1.64,0.48,3.33,0.98,4.58,2.12c0,0,0,0,0,0
					c0.16,0.15,0.31,0.3,0.45,0.47c1.37,1.62,1.82,3.85,1.24,6.14c-0.63,2.47-2.36,4.53-4.52,5.36
					C267.03,142.26,266.03,142.43,265.01,142.43z M257.91,126.5c-0.58,0-1.15,0.08-1.7,0.26c-1.22,0.4-2.07,1.27-2.54,2.57
					c-0.97,2.69,0.96,5.76,3.08,7.74c3.59,3.34,7.57,4.63,10.66,3.44c1.71-0.66,3.09-2.32,3.61-4.33c0.46-1.81,0.12-3.56-0.93-4.8
					c-0.1-0.12-0.21-0.23-0.32-0.33c-0.99-0.91-2.51-1.35-3.99-1.78c-1.25-0.37-2.53-0.74-3.54-1.41
					C261.11,127.09,259.49,126.5,257.91,126.5z"/>
			</g>
			<g>
				<path class="st7" d="M105.08,227.84c-0.59,0-1.14-0.13-1.66-0.39c-2.82-1.41-4.01-6.6-3.18-13.88l0.75,0.08l-0.75-0.08
					c1.27-11.19,8.27-28.86,21.65-28.86c0.07,0,0.13,0,0.2,0c1.21,0.02,2.23,0.48,2.96,1.34c1.28,1.51,1.63,4.21,1.03,8
					c-1.66,10.57-9.87,25.56-15.56,30.93C108.49,226.89,106.67,227.84,105.08,227.84z M121.89,186.21
					c-12.4,0-18.95,16.85-20.16,27.53l0,0c-0.72,6.33,0.23,11.3,2.36,12.37c1.63,0.82,3.83-0.75,5.39-2.22
					c5.49-5.17,13.54-20.06,15.11-30.07c0.65-4.17-0.02-6-0.7-6.8c-0.45-0.53-1.05-0.8-1.83-0.81
					C122.01,186.21,121.95,186.21,121.89,186.21z"/>
			</g>
		</g>
		<g id="Base_00000087380342705369584720000007829891517556467884_">
			<g>
				<path class="st7" d="M222.79,479.95c-76.42,0-139.07-18.75-143.23-42.77c-0.14-0.14-0.23-0.33-0.23-0.54v-27.67
					c0-0.41,0.34-0.75,0.75-0.75s0.75,0.34,0.75,0.75c0,24.17,63.68,43.83,141.96,43.83c78.27,0,141.96-19.66,141.96-43.83
					c0-0.41,0.34-0.75,0.75-0.75l0,0c0.41,0,0.75,0.34,0.75,0.75v27.67c0,0.21-0.09,0.4-0.23,0.54
					C361.87,461.2,299.22,479.95,222.79,479.95z M80.84,436.19c0.08,0.1,0.13,0.22,0.15,0.35c1.6,11.17,16.97,21.67,43.28,29.55
					c26.62,7.97,61.61,12.37,98.53,12.37s71.91-4.39,98.53-12.37c26.31-7.88,41.68-18.38,43.28-29.55c0.02-0.13,0.07-0.25,0.15-0.35
					v-20.56c-4.43,9.71-18.54,18.63-40.83,25.59c-27.02,8.44-62.94,13.09-101.13,13.09c-38.19,0-74.11-4.65-101.13-13.09
					c-22.29-6.96-36.4-15.87-40.82-25.59V436.19z"/>
			</g>
			<g>
				<path class="st7" d="M222.79,454.3c-38.19,0-74.11-4.65-101.13-13.09c-27.29-8.53-42.32-19.98-42.32-32.24
					c0-10.87,12.15-21.33,34.21-29.48c0.23-0.09,0.49-0.05,0.69,0.09c0.2,0.14,0.32,0.37,0.32,0.62v10.38
					c0,18.36,48.55,33.3,108.23,33.3s108.23-14.94,108.23-33.3v-10.38c0-0.25,0.12-0.48,0.32-0.62c0.2-0.14,0.46-0.17,0.69-0.09
					c22.06,8.15,34.21,18.62,34.21,29.48c0,12.26-15.03,23.71-42.33,32.24C296.9,449.65,260.99,454.3,222.79,454.3z M113.06,381.27
					c-20.79,7.85-32.22,17.67-32.22,27.7c0,24.17,63.68,43.83,141.96,43.83c78.27,0,141.96-19.66,141.96-43.83
					c0-10.03-11.43-19.85-32.22-27.7v9.3c0,9.45-11.52,18.25-32.45,24.79c-20.66,6.45-48.1,10.01-77.29,10.01
					s-56.63-3.55-77.29-10.01c-20.92-6.54-32.45-15.34-32.45-24.79V381.27z"/>
			</g>
			<g>
				<path class="st7" d="M222.79,425.37c-29.18,0-56.63-3.55-77.29-10.01c-20.92-6.54-32.45-15.34-32.45-24.79v-19.58
					c0-0.41,0.34-0.75,0.75-0.75s0.75,0.34,0.75,0.75c0,2.56,0.99,5.12,2.95,7.63c11.79,15.11,55.09,25.67,105.29,25.67
					s93.49-10.55,105.29-25.67l0,0c1.96-2.5,2.95-5.07,2.95-7.63c0-0.41,0.34-0.75,0.75-0.75s0.75,0.34,0.75,0.75v19.58
					c0,9.45-11.52,18.25-32.45,24.79C279.43,421.82,251.98,425.37,222.79,425.37z M114.56,376.82v13.75
					c0,18.36,48.55,33.3,108.23,33.3s108.23-14.94,108.23-33.3v-13.75c-0.48,0.92-1.06,1.82-1.76,2.72
					c-12.06,15.45-55.84,26.24-106.47,26.24s-94.41-10.79-106.47-26.24C115.62,378.64,115.04,377.74,114.56,376.82z"/>
			</g>
			<g>
				<path class="st7" d="M222.79,405.78c-50.63,0-94.41-10.79-106.47-26.24c-2.17-2.78-3.26-5.65-3.26-8.55
					c0-0.48,0.04-0.99,0.11-1.55c0.86-6.41,7.16-12.58,18.21-17.82c0.27-0.13,0.59-0.08,0.81,0.11
					c7.54,6.57,15.81,12.33,24.57,17.11c20.13,10.99,42.96,16.8,66.03,16.8c23.07,0,45.9-5.81,66.03-16.8
					c8.76-4.78,17.02-10.54,24.56-17.11c0.22-0.2,0.54-0.24,0.81-0.11c10.84,5.15,17.11,11.17,18.16,17.45
					c0.1,0.13,0.17,0.29,0.17,0.47v1.45c0,2.9-1.1,5.78-3.26,8.56C317.21,394.99,273.42,405.78,222.79,405.78z M131.59,353.18
					c-10.3,4.97-16.15,10.65-16.93,16.46c-0.07,0.49-0.1,0.93-0.1,1.35c0,2.56,0.99,5.12,2.95,7.63
					c11.79,15.11,55.09,25.67,105.29,25.67s93.49-10.55,105.29-25.67c1.96-2.5,2.95-5.07,2.95-7.63v-1.07
					c-0.05-0.08-0.08-0.18-0.1-0.28c-0.78-5.8-6.63-11.49-16.93-16.46c-7.53,6.51-15.75,12.22-24.46,16.97
					c-20.35,11.11-43.43,16.98-66.75,16.98c-23.32,0-46.4-5.87-66.75-16.98C147.34,365.4,139.11,359.69,131.59,353.18z"/>
			</g>
		</g>
		<g id="Line_00000121264811962796612600000012163114540795525052_">
			<g>
				<path class="st7" d="M340.72,449.61c-0.17,0-0.33-0.09-0.43-0.24c-0.14-0.24-0.07-0.54,0.17-0.69c4.1-2.47,8.08-5.21,11.83-8.13
					c0.22-0.17,0.53-0.13,0.7,0.09c0.17,0.22,0.13,0.53-0.09,0.7c-3.78,2.95-7.79,5.7-11.92,8.2
					C340.9,449.58,340.81,449.61,340.72,449.61z"/>
			</g>
			<g>
				<path class="st7" d="M280.39,467.32c-0.27,0-0.49-0.22-0.5-0.49c-0.01-0.28,0.21-0.5,0.49-0.51
					c18.78-0.49,37.59-5.48,54.41-14.42c0.24-0.13,0.54-0.04,0.68,0.21c0.13,0.24,0.04,0.55-0.21,0.68
					c-16.95,9.02-35.92,14.05-54.85,14.54C280.4,467.32,280.39,467.32,280.39,467.32z"/>
			</g>
			<g>
				<path class="st7" d="M299.17,456.47c-0.24,0-0.46-0.18-0.49-0.42c-0.04-0.27,0.15-0.53,0.42-0.57
					c14.8-2.27,29.45-7.49,42.36-15.1c0.24-0.14,0.54-0.06,0.68,0.18c0.14,0.24,0.06,0.54-0.18,0.68
					c-13.02,7.67-27.79,12.93-42.71,15.22C299.22,456.47,299.2,456.47,299.17,456.47z"/>
			</g>
			<g>
				<path class="st7" d="M179.52,442.67c0,0-0.01,0-0.01,0c-3.77-0.08-7.59-0.34-11.34-0.77c-0.27-0.03-0.47-0.28-0.44-0.55
					c0.03-0.28,0.29-0.47,0.55-0.44c3.72,0.43,7.51,0.69,11.25,0.77c0.28,0.01,0.5,0.24,0.49,0.51
					C180.01,442.46,179.79,442.67,179.52,442.67z"/>
			</g>
			<g>
				<path class="st7" d="M161.91,441.01c-0.04,0-0.08,0-0.12-0.01c-4.22-1.05-8.56-1.95-13.16-2.9
					c-16.12-3.33-32.79-6.77-44.22-17.21c-0.2-0.19-0.22-0.5-0.03-0.71s0.5-0.22,0.71-0.03c11.23,10.25,27.76,13.67,43.75,16.96
					c4.61,0.95,8.96,1.85,13.2,2.91c0.27,0.07,0.43,0.34,0.36,0.61C162.34,440.86,162.14,441.01,161.91,441.01z"/>
			</g>
			<g>
				<path class="st7" d="M146.69,429.77c-0.03,0-0.06,0-0.08-0.01c-17.55-2.98-34.07-12.6-45.32-26.4c-0.17-0.21-0.14-0.53,0.07-0.7
					c0.21-0.17,0.53-0.14,0.7,0.07c11.09,13.62,27.39,23.11,44.71,26.05c0.27,0.05,0.46,0.3,0.41,0.58
					C147.14,429.6,146.93,429.77,146.69,429.77z"/>
			</g>
			<g>
				<path class="st7" d="M183.39,435.34c-0.01,0-0.01,0-0.02,0c-8.19-0.28-16.37-1.46-24.32-3.51c-0.27-0.07-0.43-0.34-0.36-0.61
					c0.07-0.27,0.34-0.43,0.61-0.36c7.87,2.03,15.98,3.2,24.1,3.48c0.28,0.01,0.49,0.24,0.48,0.52
					C183.88,435.13,183.66,435.34,183.39,435.34z"/>
			</g>
			<g>
				<path class="st7" d="M295.31,426.02c-0.22,0-0.43-0.15-0.48-0.38c-0.07-0.27,0.09-0.54,0.36-0.61
					c8.28-2.12,16.84-4.3,24.41-8.57c8.43-4.75,14.21-11.49,16.28-19c0.07-0.27,0.35-0.42,0.62-0.35c0.27,0.07,0.42,0.35,0.35,0.62
					c-2.15,7.76-8.1,14.72-16.76,19.6c-7.68,4.33-16.31,6.53-24.65,8.66C295.39,426.02,295.35,426.02,295.31,426.02z"/>
			</g>
			<g>
				<path class="st7" d="M266.53,440.05c-0.26,0-0.47-0.2-0.5-0.46c-0.02-0.28,0.18-0.52,0.45-0.54c10.13-0.91,20.6-1.85,30.84-3.87
					c0.26-0.06,0.53,0.12,0.59,0.39c0.05,0.27-0.12,0.53-0.39,0.59c-10.29,2.03-20.79,2.97-30.94,3.88
					C266.56,440.05,266.54,440.05,266.53,440.05z"/>
			</g>
			<g>
				<path class="st7" d="M303.92,434.72c-0.22,0-0.43-0.15-0.49-0.38c-0.07-0.27,0.1-0.54,0.36-0.61c9.38-2.35,17.69-5.7,24.71-9.95
					c0.24-0.14,0.54-0.07,0.69,0.17s0.07,0.54-0.17,0.69c-7.11,4.3-15.51,7.69-24.99,10.07C304,434.72,303.96,434.72,303.92,434.72z
					"/>
			</g>
			<g>
				<path class="st7" d="M334.59,420.77c-0.15,0-0.3-0.07-0.4-0.2c-0.17-0.22-0.12-0.53,0.1-0.7c2.21-1.67,4.3-3.5,6.22-5.43
					c0.2-0.2,0.51-0.2,0.71,0c0.2,0.2,0.2,0.51,0,0.71c-1.96,1.96-4.08,3.82-6.33,5.52C334.8,420.74,334.69,420.77,334.59,420.77z"
					/>
			</g>
			<g>
				<path class="st7" d="M344.3,406.27c-0.04,0-0.07,0-0.1-0.01c-0.27-0.06-0.44-0.32-0.39-0.59c0.91-4.29-0.54-9.04-3.69-12.09
					c-0.2-0.19-0.2-0.51-0.01-0.71c0.19-0.2,0.51-0.2,0.71-0.01c3.4,3.28,4.96,8.39,3.97,13.01
					C344.74,406.11,344.53,406.27,344.3,406.27z"/>
			</g>
			<g>
				<path class="st7" d="M186.49,468.83c-0.01,0-0.01,0-0.02,0c-9.08-0.38-17.79-1.29-25.91-2.69c-0.27-0.05-0.46-0.31-0.41-0.58
					s0.31-0.45,0.58-0.41c8.07,1.39,16.75,2.29,25.78,2.67c0.28,0.01,0.49,0.25,0.48,0.52
					C186.97,468.62,186.75,468.83,186.49,468.83z"/>
			</g>
			<g>
				<path class="st7" d="M135.07,461.46c-0.04,0-0.09-0.01-0.13-0.02c-16.09-4.33-30.44-10.15-42.64-17.29
					c-0.24-0.14-0.32-0.45-0.18-0.68c0.14-0.24,0.44-0.32,0.68-0.18c12.12,7.1,26.39,12.88,42.39,17.19
					c0.27,0.07,0.42,0.35,0.35,0.61C135.49,461.31,135.29,461.46,135.07,461.46z"/>
			</g>
			<g>
				<path class="st7" d="M276.6,394.25c-0.24,0-0.45-0.17-0.49-0.42c-0.04-0.27,0.14-0.53,0.41-0.57c9.43-1.54,18.41-4.73,26.7-9.5
					c0.23-0.14,0.54-0.06,0.68,0.18c0.14,0.24,0.05,0.54-0.18,0.68c-8.39,4.83-17.49,8.06-27.04,9.62
					C276.66,394.25,276.63,394.25,276.6,394.25z"/>
			</g>
			<g>
				<path class="st7" d="M308.76,381.32c-0.15,0-0.31-0.07-0.41-0.21c-0.16-0.22-0.11-0.54,0.11-0.7c5.71-4.13,9-8.67,9.78-13.49
					c0.04-0.27,0.3-0.46,0.57-0.42c0.27,0.04,0.46,0.3,0.42,0.57c-0.82,5.09-4.24,9.85-10.18,14.14
					C308.97,381.29,308.87,381.32,308.76,381.32z"/>
			</g>
			<g>
				<path class="st7" d="M174.03,391.78c-0.04,0-0.08,0-0.11-0.01c-4.71-1.11-9.48-2.41-14.16-3.87c-0.26-0.08-0.41-0.36-0.33-0.63
					c0.08-0.26,0.36-0.41,0.63-0.33c4.66,1.45,9.4,2.75,14.09,3.85c0.27,0.06,0.44,0.33,0.37,0.6
					C174.46,391.62,174.25,391.78,174.03,391.78z"/>
			</g>
			<g>
				<path class="st7" d="M152.95,385.61c-0.05,0-0.11-0.01-0.17-0.03c-0.84-0.29-1.7-0.59-2.59-0.9
					c-8.96-3.08-20.11-6.92-24.91-15.55c-0.13-0.24-0.05-0.55,0.19-0.68c0.24-0.13,0.55-0.05,0.68,0.19
					c4.62,8.29,15.56,12.06,24.36,15.09c0.89,0.31,1.75,0.6,2.59,0.9c0.26,0.09,0.4,0.38,0.31,0.64
					C153.35,385.48,153.16,385.61,152.95,385.61z"/>
			</g>
			<g>
				<path class="st7" d="M225.3,397.01c0,0-0.01,0-0.01,0c-6.05-0.14-12.17-0.58-18.19-1.3c-0.27-0.03-0.47-0.28-0.44-0.55
					c0.03-0.28,0.29-0.47,0.56-0.44c5.99,0.71,12.08,1.15,18.1,1.29c0.28,0.01,0.5,0.24,0.49,0.51
					C225.79,396.79,225.57,397.01,225.3,397.01z"/>
			</g>
			<g>
				<path class="st7" d="M218.81,438.88c-2.01,0-4.02-0.03-6.02-0.09c-0.28-0.01-0.49-0.24-0.49-0.51c0.01-0.28,0.25-0.47,0.51-0.49
					c9.77,0.29,19.63-0.13,29.34-1.25c0.27-0.03,0.52,0.16,0.55,0.44c0.03,0.27-0.17,0.52-0.44,0.55
					C234.5,438.43,226.64,438.88,218.81,438.88z"/>
			</g>
			<g>
				<path class="st7" d="M244.65,466.93c-0.26,0-0.48-0.21-0.5-0.47c-0.02-0.28,0.19-0.51,0.47-0.53l17.05-0.98
					c0.32-0.02,0.51,0.2,0.53,0.47c0.02,0.28-0.19,0.51-0.47,0.53l-17.05,0.98C244.67,466.93,244.66,466.93,244.65,466.93z"/>
			</g>
		</g>
		<g id="Crystal_00000086653674244710607860000003562538042031626656_">
			<g>
				<path class="st7" d="M210.14,246.16c-0.06,0-0.13-0.01-0.19-0.04l-13.03-5.4c-0.16-0.07-0.28-0.21-0.3-0.39l-1.32-8.98
					c-0.03-0.24,0.1-0.47,0.33-0.54l15.93-5.53c0.16-0.06,0.34-0.03,0.47,0.08s0.21,0.27,0.19,0.43l-1.58,19.91
					c-0.01,0.16-0.1,0.3-0.24,0.39C210.32,246.13,210.23,246.16,210.14,246.16z M197.56,239.9l12.14,5.03l1.46-18.46l-14.82,5.15
					L197.56,239.9z"/>
			</g>
			<g>
				<path class="st7" d="M214.44,304.8c-0.23,0-0.44-0.16-0.49-0.4l-8.61-42.03l-5.88-3.8c-0.12-0.08-0.2-0.21-0.22-0.35l-2.63-17.9
					c-0.03-0.18,0.05-0.36,0.19-0.47c0.14-0.11,0.33-0.14,0.5-0.07l13.03,5.4c0.17,0.07,0.29,0.24,0.31,0.43l4.3,58.65
					c0.02,0.26-0.17,0.5-0.43,0.53C214.48,304.8,214.46,304.8,214.44,304.8z M200.2,257.86l5.86,3.79c0.11,0.07,0.19,0.19,0.22,0.32
					l7.1,34.64L209.66,246l-11.93-4.94L200.2,257.86z"/>
			</g>
			<g>
				<path class="st7" d="M195.78,231.78c-0.15,0-0.3-0.07-0.4-0.2c-0.13-0.17-0.14-0.41-0.01-0.59l34.71-50.01
					c0.15-0.21,0.43-0.27,0.65-0.15c0.22,0.12,0.32,0.4,0.22,0.63l-18.78,44.48c-0.06,0.13-0.16,0.23-0.3,0.28l-15.93,5.53
					C195.89,231.77,195.84,231.78,195.78,231.78z M228.16,185.5l-31.09,44.8l14.27-4.96L228.16,185.5z"/>
			</g>
			<g>
				<path class="st7" d="M248.43,246.36C248.43,246.36,248.43,246.36,248.43,246.36l-38.3-0.21c-0.14,0-0.27-0.06-0.37-0.16
					c-0.09-0.1-0.14-0.24-0.13-0.38l1.58-19.91c0.02-0.26,0.23-0.46,0.49-0.46l35.75-0.42c0,0,0,0,0.01,0c0.27,0,0.49,0.21,0.5,0.48
					l0.97,20.53c0.01,0.14-0.04,0.27-0.14,0.37C248.7,246.31,248.57,246.36,248.43,246.36z M210.68,245.16l37.23,0.2l-0.92-19.53
					l-34.81,0.41L210.68,245.16z"/>
			</g>
			<g>
				<path class="st7" d="M248.43,246.36c-0.09,0-0.19-0.03-0.27-0.08c-0.14-0.09-0.22-0.24-0.23-0.4l-0.97-20.53
					c-0.01-0.16,0.06-0.31,0.18-0.41c0.12-0.1,0.29-0.14,0.44-0.1l17.54,4.41c0.25,0.06,0.41,0.31,0.37,0.56l-1.59,10.12
					c-0.03,0.17-0.14,0.32-0.31,0.39l-14.98,6.01C248.56,246.35,248.5,246.36,248.43,246.36z M248,225.98l0.9,19.16l14.07-5.64
					l1.48-9.38L248,225.98z"/>
			</g>
			<g>
				<path class="st7" d="M239.73,335.63c-0.04,0-0.08,0-0.13-0.02c-0.24-0.06-0.39-0.29-0.37-0.53l8.7-89.26
					c0.02-0.19,0.14-0.35,0.31-0.42l14.98-6.01c0.17-0.07,0.36-0.04,0.5,0.07c0.14,0.11,0.21,0.29,0.18,0.47l-10.18,64.72
					c-0.01,0.04-0.02,0.08-0.04,0.12l-13.51,30.55C240.11,335.51,239.93,335.63,239.73,335.63z M248.9,246.21l-8.37,85.87
					l12.23-27.65l10.03-63.79L248.9,246.21z"/>
			</g>
			<g>
				<path class="st7" d="M265.01,230.24c-0.04,0-0.08,0-0.12-0.01l-17.54-4.41c-0.16-0.04-0.29-0.15-0.34-0.31l-16.97-44.06
					c-0.09-0.24,0.01-0.5,0.23-0.62c0.22-0.12,0.5-0.05,0.64,0.15l34.51,48.47c0.12,0.17,0.12,0.4,0.01,0.57
					C265.33,230.16,265.17,230.24,265.01,230.24z M247.84,224.91l15.97,4.02l-31.43-44.14L247.84,224.91z"/>
			</g>
			<g>
				<path class="st7" d="M211.71,226.25c-0.17,0-0.32-0.08-0.42-0.22c-0.09-0.14-0.11-0.32-0.05-0.47l18.78-44.48
					c0.08-0.19,0.27-0.32,0.47-0.31c0.2,0,0.39,0.13,0.46,0.32l16.97,44.06c0.06,0.15,0.04,0.32-0.05,0.46s-0.24,0.22-0.41,0.22
					L211.71,226.25C211.72,226.25,211.71,226.25,211.71,226.25z M230.47,182.6l-18,42.64l34.27-0.4L230.47,182.6z"/>
			</g>
			<g>
				<path class="st7" d="M233.4,349.96c-0.01,0-0.03,0-0.04,0l-9.86-0.78c-0.22-0.02-0.41-0.18-0.45-0.4l-9.09-44.38l-4.31-58.71
					c-0.01-0.14,0.04-0.28,0.13-0.38c0.1-0.1,0.23-0.21,0.37-0.16l38.3,0.21c0.14,0,0.27,0.06,0.37,0.17
					c0.09,0.1,0.14,0.24,0.13,0.38l-8.7,89.26c-0.01,0.05-0.02,0.1-0.04,0.15l-6.34,14.34C233.77,349.85,233.59,349.96,233.4,349.96
					z M223.95,348.21l9.13,0.72l6.16-13.94l8.64-88.64l-37.21-0.2l4.26,58.11L223.95,348.21z"/>
			</g>
			<g>
				<path class="st7" d="M204.99,362.26c-0.2,0-0.38-0.12-0.46-0.3l-33.7-78.42c-0.08-0.17-0.04-0.37,0.08-0.52
					c0.12-0.14,0.31-0.21,0.5-0.16l14.5,3.46l3.34-13.75c0.05-0.22,0.25-0.38,0.47-0.38c0.01,0,0.01,0,0.02,0
					c0.22,0,0.41,0.14,0.48,0.35l26.5,85.85c0.04,0.13,0.03,0.27-0.04,0.39c-0.06,0.12-0.17,0.21-0.3,0.24l-11.24,3.23
					C205.08,362.26,205.03,362.26,204.99,362.26z M172.14,284.06l33.13,77.1l10.33-2.97l-25.81-83.63l-3.03,12.47
					c-0.07,0.27-0.33,0.44-0.6,0.37L172.14,284.06z"/>
			</g>
			<g>
				<path class="st7" d="M216.23,359.03c-0.21,0-0.41-0.14-0.48-0.35l-26.5-85.85c-0.07-0.21,0.02-0.44,0.2-0.56l16.05-10.61
					c0.14-0.09,0.31-0.11,0.47-0.04s0.26,0.2,0.3,0.36l19.24,93.93c0.05,0.26-0.1,0.51-0.35,0.58l-8.8,2.53
					C216.32,359.02,216.28,359.03,216.23,359.03z M190.32,272.89l26.24,85.02l7.89-2.27l-10.5-51.24l0,0l-8.5-41.51L190.32,272.89z"
					/>
			</g>
			<g>
				<path class="st7" d="M189.73,273.18c-0.15,0-0.3-0.07-0.4-0.2l-31.11-41.12c-0.15-0.19-0.13-0.46,0.03-0.64
					c0.17-0.18,0.43-0.21,0.64-0.08l47.17,30.5c0.14,0.09,0.23,0.25,0.23,0.42c0,0.17-0.08,0.33-0.22,0.42l-16.05,10.61
					C189.92,273.15,189.83,273.18,189.73,273.18z M160.73,233.52L189.85,272l15.03-9.93L160.73,233.52z"/>
			</g>
			<g>
				<path class="st7" d="M154.82,283.95c-0.14,0-0.27-0.06-0.37-0.16c-0.1-0.1-0.14-0.24-0.13-0.38l3.8-51.89
					c0.02-0.25,0.21-0.44,0.46-0.46c0.25-0.02,0.47,0.14,0.53,0.38l12.67,51.78c0.04,0.15,0,0.31-0.09,0.43
					c-0.09,0.12-0.24,0.19-0.39,0.19L154.82,283.95C154.82,283.95,154.82,283.95,154.82,283.95z M158.89,234.76l-3.53,48.19
					l15.29-0.1L158.89,234.76z"/>
			</g>
			<g>
				<path class="st7" d="M200.86,363.45c-0.17,0-0.34-0.09-0.43-0.25l-46.04-79.5c-0.09-0.15-0.09-0.34,0-0.5
					c0.09-0.16,0.25-0.25,0.43-0.25l16.47-0.11c0,0,0,0,0,0c0.2,0,0.38,0.12,0.46,0.3l33.7,78.42c0.06,0.13,0.05,0.28-0.01,0.41
					s-0.18,0.23-0.31,0.27l-4.13,1.19C200.95,363.45,200.9,363.45,200.86,363.45z M155.68,283.95l45.41,78.42l3.21-0.92
					l-33.35-77.59L155.68,283.95z"/>
			</g>
			<g>
				<path class="st7" d="M296.88,285.07c-0.07,0-0.15-0.02-0.21-0.05l-19.44-9.21c-0.15-0.07-0.26-0.22-0.28-0.39
					c-0.02-0.17,0.04-0.34,0.17-0.45l29.33-24.88c0.17-0.14,0.41-0.16,0.59-0.04c0.19,0.12,0.27,0.35,0.21,0.56l-9.89,34.09
					c-0.04,0.14-0.14,0.26-0.28,0.32C297.02,285.05,296.95,285.07,296.88,285.07z M278.35,275.24l18.21,8.63l9.27-31.93
					L278.35,275.24z"/>
			</g>
			<g>
				<path class="st7" d="M277.44,275.86c-0.03,0-0.06,0-0.09-0.01c-0.15-0.03-0.27-0.12-0.35-0.24l-6.35-11.14
					c-0.07-0.13-0.08-0.28-0.04-0.42s0.16-0.25,0.29-0.3l35.69-13.73c0.22-0.09,0.48,0,0.61,0.21c0.12,0.21,0.08,0.48-0.11,0.64
					l-29.33,24.88C277.67,275.82,277.56,275.86,277.44,275.86z M271.81,264.47l5.77,10.11l26.63-22.58L271.81,264.47z"/>
			</g>
			<g>
				<path class="st7" d="M296.88,285.07c-0.15,0-0.29-0.07-0.39-0.19c-0.1-0.13-0.14-0.3-0.09-0.45l9.89-34.09
					c0.07-0.24,0.29-0.39,0.55-0.36c0.25,0.03,0.43,0.24,0.43,0.49l0.28,33.42c0,0.26-0.2,0.49-0.47,0.5l-10.18,0.67
					C296.9,285.07,296.89,285.07,296.88,285.07z M306.3,253.9l-8.74,30.12l8.99-0.59L306.3,253.9z"/>
			</g>
			<g>
				<path class="st7" d="M243.51,358.75c-0.06,0-0.12-0.01-0.17-0.03l-6.38-2.32c-0.13-0.05-0.24-0.15-0.29-0.28
					c-0.05-0.13-0.05-0.28,0.02-0.41l40.31-80.58c0.12-0.24,0.42-0.34,0.66-0.23l19.44,9.21c0.13,0.06,0.23,0.18,0.27,0.33
					s0.01,0.3-0.08,0.42l-53.37,73.68C243.82,358.68,243.67,358.75,243.51,358.75z M237.83,355.66l5.5,2l52.79-72.89l-18.45-8.75
					L237.83,355.66z"/>
			</g>
			<g>
				<path class="st7" d="M237.13,356.43c-0.06,0-0.11-0.01-0.17-0.03l-5.69-2.06c-0.13-0.05-0.23-0.15-0.29-0.27
					c-0.05-0.13-0.05-0.27,0-0.4l39.64-89.65c0.08-0.17,0.24-0.29,0.43-0.3c0.18-0.01,0.37,0.09,0.46,0.25l6.35,11.14
					c0.08,0.15,0.09,0.32,0.01,0.47l-40.31,80.58C237.49,356.33,237.32,356.43,237.13,356.43z M232.12,353.58l4.76,1.73l39.99-79.94
					l-5.73-10.05L232.12,353.58z"/>
			</g>
			<g>
				<path class="st7" d="M249.23,360.83c-0.06,0-0.12-0.01-0.17-0.03l-5.72-2.08c-0.15-0.05-0.26-0.17-0.31-0.32
					c-0.05-0.15-0.02-0.31,0.07-0.44l53.37-73.68c0.09-0.12,0.22-0.2,0.37-0.21l10.18-0.67c0.21-0.01,0.38,0.09,0.47,0.26
					c0.09,0.17,0.08,0.38-0.04,0.54l-57.82,76.42C249.54,360.76,249.39,360.83,249.23,360.83z M244.31,358.01l4.75,1.73L306,284.47
					l-8.85,0.58L244.31,358.01z"/>
			</g>
			<g>
				<path class="st7" d="M186.27,287.42c-0.04,0-0.08,0-0.12-0.01l-14.99-3.57c-0.18-0.04-0.33-0.19-0.37-0.37l-12.67-51.78
					c-0.06-0.23,0.06-0.47,0.27-0.57c0.22-0.1,0.47-0.04,0.61,0.15l31.11,41.12c0.09,0.12,0.12,0.27,0.09,0.42l-3.46,14.24
					C186.7,287.26,186.5,287.42,186.27,287.42z M171.7,282.93l14.21,3.38l3.29-13.52l-29.51-39L171.7,282.93z"/>
			</g>
		</g>
		<g id="Sparkle_00000016795999241081052610000017439154633117522339_">
			<g>
				<path class="st7" d="M230.5,174.28c-0.28,0-0.5-0.22-0.5-0.5v-24.07c0-0.28,0.22-0.5,0.5-0.5s0.5,0.22,0.5,0.5v24.07
					C231,174.06,230.77,174.28,230.5,174.28z"/>
			</g>
			<g>
				<path class="st7" d="M223.67,174.28c-0.18,0-0.36-0.1-0.44-0.27l-7.97-15.42c-0.13-0.25-0.03-0.55,0.21-0.67
					c0.24-0.13,0.55-0.03,0.67,0.21l7.97,15.42c0.13,0.25,0.03,0.55-0.21,0.67C223.83,174.26,223.75,174.28,223.67,174.28z"/>
			</g>
			<g>
				<path class="st7" d="M215.7,181.77c-0.15,0-0.3-0.07-0.4-0.19l-8.32-10.79c-0.17-0.22-0.13-0.53,0.09-0.7
					c0.22-0.17,0.53-0.13,0.7,0.09l8.32,10.79c0.17,0.22,0.13,0.53-0.09,0.7C215.91,181.73,215.8,181.77,215.7,181.77z"/>
			</g>
			<g>
				<path class="st7" d="M239.73,176.38c-0.05,0-0.11-0.01-0.17-0.03c-0.26-0.09-0.4-0.38-0.31-0.64l4.18-11.96
					c0.09-0.26,0.38-0.4,0.64-0.31c0.26,0.09,0.4,0.38,0.31,0.64l-4.18,11.96C240.13,176.25,239.94,176.38,239.73,176.38z"/>
			</g>
			<g>
				<path class="st7" d="M243.91,185.96c-0.11,0-0.22-0.04-0.31-0.11c-0.22-0.17-0.25-0.49-0.08-0.7l13.32-16.86
					c0.17-0.22,0.49-0.25,0.7-0.08c0.22,0.17,0.25,0.49,0.08,0.7l-13.32,16.86C244.2,185.9,244.06,185.96,243.91,185.96z"/>
			</g>
			<g>
				<path class="st7" d="M301.97,244.63c-0.03,0-0.05,0-0.08-0.01c-0.27-0.04-0.46-0.3-0.42-0.57l1.99-12.56
					c0.04-0.27,0.31-0.46,0.57-0.42c0.27,0.04,0.46,0.3,0.42,0.57l-1.99,12.56C302.42,244.45,302.21,244.63,301.97,244.63z"/>
			</g>
			<g>
				<path class="st7" d="M154.82,231.78c-0.19,0-0.37-0.11-0.46-0.29l-9.88-21.61c-0.11-0.25,0-0.55,0.25-0.66
					c0.25-0.11,0.55-0.01,0.66,0.25l9.88,21.61c0.11,0.25,0,0.55-0.25,0.66C154.96,231.77,154.89,231.78,154.82,231.78z"/>
			</g>
			<g>
				<path class="st7" d="M149.88,240.08c-0.1,0-0.19-0.03-0.28-0.08l-14.67-9.84c-0.23-0.15-0.29-0.46-0.14-0.69
					c0.16-0.23,0.47-0.29,0.69-0.14l14.67,9.84c0.23,0.15,0.29,0.46,0.14,0.69C150.2,240.01,150.04,240.08,149.88,240.08z"/>
			</g>
			<g>
				<path class="st7" d="M165.95,224.97c-0.28,0-0.5-0.22-0.5-0.5v-13.92c0-0.28,0.22-0.5,0.5-0.5s0.5,0.22,0.5,0.5v13.92
					C166.45,224.75,166.23,224.97,165.95,224.97z"/>
			</g>
			<g>
				<path class="st7" d="M151.17,250.98c-0.04,0-0.08,0-0.13-0.02l-10.64-2.82c-0.27-0.07-0.43-0.34-0.36-0.61
					c0.07-0.27,0.34-0.43,0.61-0.36L151.3,250c0.27,0.07,0.43,0.34,0.36,0.61C151.59,250.83,151.39,250.98,151.17,250.98z"/>
			</g>
			<g>
				<path class="st7" d="M310.67,246.16c-0.08,0-0.17-0.02-0.25-0.07c-0.24-0.14-0.32-0.44-0.19-0.68l8.07-14.09
					c0.14-0.24,0.44-0.32,0.68-0.19c0.24,0.14,0.32,0.44,0.19,0.68l-8.07,14.09C311.01,246.07,310.84,246.16,310.67,246.16z"/>
			</g>
			<g>
				<path class="st7" d="M314.7,255.04c-0.19,0-0.38-0.11-0.46-0.3c-0.11-0.25,0.01-0.55,0.26-0.66l9.54-4.05
					c0.25-0.11,0.55,0.01,0.66,0.26c0.11,0.25-0.01,0.55-0.26,0.66L314.9,255C314.84,255.02,314.77,255.04,314.7,255.04z"/>
			</g>
		</g>
		<g id="Dot_00000060013962787527651350000003179295208994413991_">
			<g>
				<path class="st7" d="M323.13,320.06c-0.09,0-0.19,0-0.28-0.01c-0.94-0.08-1.79-0.51-2.4-1.23c-0.61-0.72-0.91-1.63-0.83-2.57
					c0.08-0.94,0.51-1.79,1.23-2.4c0.72-0.61,1.63-0.91,2.57-0.83c0.94,0.08,1.79,0.51,2.4,1.23s0.91,1.63,0.83,2.57
					c-0.06,0.71-0.33,1.38-0.78,1.94C325.2,319.58,324.19,320.06,323.13,320.06z M323.12,314c-0.6,0-1.17,0.21-1.63,0.6
					c-0.51,0.44-0.83,1.05-0.88,1.72c-0.05,0.67,0.16,1.33,0.59,1.84c0.44,0.52,1.05,0.83,1.72,0.88c0.84,0.06,1.64-0.28,2.17-0.93
					c0.32-0.4,0.51-0.88,0.56-1.39c0.05-0.67-0.16-1.32-0.6-1.84s-1.05-0.83-1.72-0.88l0,0C323.26,314.01,323.19,314,323.12,314z"/>
			</g>
			<g>
				<path class="st7" d="M334.58,294.95c-0.82,0-1.6-0.3-2.21-0.86c-1.33-1.22-1.42-3.29-0.2-4.63h0c0.59-0.64,1.4-1.02,2.27-1.06
					c0.9-0.04,1.71,0.27,2.36,0.86c0.64,0.59,1.02,1.4,1.06,2.27c0.03,0.8-0.22,1.58-0.73,2.2l-0.13,0.15
					c-0.6,0.65-1.41,1.03-2.28,1.06C334.68,294.94,334.63,294.95,334.58,294.95z M332.91,290.13c-0.85,0.93-0.79,2.37,0.14,3.22
					c0.45,0.41,1.03,0.64,1.64,0.6c0.61-0.03,1.17-0.29,1.58-0.74l0.09-0.11c0.35-0.44,0.53-0.96,0.5-1.53
					c-0.03-0.61-0.29-1.17-0.74-1.58c-0.45-0.41-1.03-0.61-1.64-0.6C333.88,289.42,333.32,289.68,332.91,290.13z"/>
			</g>
			<g>
				<path class="st7" d="M321.03,301.32c-0.08,0-0.16,0-0.24-0.01c-0.77-0.06-1.48-0.42-1.98-1.02s-0.75-1.35-0.68-2.12
					c0.06-0.77,0.42-1.48,1.02-1.98s1.34-0.75,2.12-0.68c0.77,0.06,1.48,0.42,1.98,1.02s0.75,1.35,0.68,2.12
					c-0.05,0.58-0.27,1.14-0.64,1.59C322.73,300.93,321.9,301.32,321.03,301.32z M321.03,296.5c-0.45,0-0.88,0.16-1.23,0.46
					c-0.39,0.33-0.63,0.79-0.67,1.3c-0.04,0.51,0.12,1,0.45,1.39c0.33,0.39,0.79,0.63,1.3,0.67c0.63,0.05,1.24-0.21,1.64-0.7
					c0.24-0.3,0.39-0.66,0.42-1.05c0.04-0.51-0.12-1-0.45-1.39c-0.33-0.39-0.79-0.63-1.3-0.67
					C321.13,296.51,321.08,296.5,321.03,296.5z"/>
			</g>
			<g>
				<path class="st7" d="M336.86,275.09c-0.64,0-1.25-0.24-1.73-0.67c-0.5-0.46-0.8-1.09-0.83-1.78c-0.03-0.69,0.21-1.34,0.67-1.84
					c0.46-0.5,1.09-0.8,1.77-0.83l0,0c0.68-0.03,1.34,0.21,1.84,0.67c0.5,0.46,0.8,1.09,0.83,1.78c0.03,0.62-0.17,1.24-0.57,1.72
					l-0.1,0.12c-0.46,0.51-1.09,0.8-1.78,0.83C336.94,275.08,336.9,275.09,336.86,275.09z M336.8,270.96L336.8,270.96
					c-0.42,0.02-0.8,0.2-1.08,0.5c-0.29,0.3-0.43,0.7-0.41,1.12c0.02,0.42,0.2,0.8,0.5,1.08c0.31,0.28,0.72,0.42,1.12,0.41
					c0.42-0.02,0.8-0.2,1.08-0.5l0.07-0.08c0.24-0.3,0.36-0.66,0.34-1.05c-0.02-0.42-0.2-0.8-0.5-1.08
					C337.61,271.09,337.21,270.95,336.8,270.96z"/>
			</g>
			<g>
				<path class="st7" d="M139.89,173.87c-0.57,0-1.14-0.14-1.66-0.42c-0.83-0.45-1.44-1.19-1.71-2.09s-0.18-1.86,0.27-2.69
					c0.44-0.83,1.19-1.44,2.09-1.71c0.91-0.27,1.86-0.18,2.69,0.27c0.83,0.44,1.44,1.19,1.71,2.09c0.27,0.9,0.18,1.86-0.27,2.69
					c-0.34,0.63-0.85,1.14-1.49,1.46C141.01,173.74,140.45,173.87,139.89,173.87z M139.9,167.81c-0.25,0-0.49,0.04-0.73,0.11
					c-0.65,0.2-1.18,0.63-1.5,1.23c-0.32,0.6-0.39,1.28-0.19,1.93c0.2,0.65,0.63,1.18,1.23,1.5c0.74,0.39,1.62,0.4,2.36,0.01
					c0.45-0.23,0.82-0.6,1.06-1.05c0.32-0.59,0.39-1.28,0.19-1.92s-0.63-1.18-1.22-1.5l0,0
					C140.72,167.92,140.31,167.81,139.9,167.81z"/>
			</g>
			<g>
				<path class="st7" d="M165.95,150.09c-0.47,0-0.94-0.12-1.37-0.34c-0.68-0.37-1.18-0.98-1.41-1.72
					c-0.23-0.75-0.15-1.53,0.22-2.22c0.37-0.68,0.98-1.18,1.72-1.41c0.75-0.22,1.53-0.15,2.22,0.22c0.68,0.37,1.18,0.98,1.41,1.72
					c0.23,0.75,0.15,1.53-0.22,2.22c-0.28,0.52-0.7,0.94-1.23,1.21C166.87,149.98,166.41,150.09,165.95,150.09z M165.96,145.27
					c-0.19,0-0.37,0.03-0.56,0.08c-0.49,0.15-0.89,0.48-1.13,0.92s-0.29,0.96-0.14,1.45c0.15,0.49,0.48,0.89,0.92,1.13
					c0.55,0.3,1.22,0.3,1.78,0.01c0.34-0.18,0.62-0.45,0.8-0.79c0.24-0.45,0.29-0.96,0.14-1.45c-0.15-0.49-0.48-0.89-0.92-1.13
					C166.58,145.35,166.27,145.27,165.96,145.27z"/>
			</g>
			<g>
				<path class="st7" d="M144.51,149.34c-0.31,0-0.63-0.06-0.93-0.17c-0.64-0.25-1.14-0.73-1.42-1.35
					c-0.28-0.63-0.29-1.32-0.05-1.96c0.25-0.64,0.73-1.15,1.36-1.42c0.62-0.28,1.32-0.29,1.96-0.05c0.64,0.25,1.14,0.73,1.42,1.35
					c0.28,0.62,0.29,1.32,0.05,1.96c-0.23,0.58-0.66,1.07-1.21,1.35c-0.05,0.02-0.1,0.05-0.15,0.07
					C145.21,149.27,144.86,149.34,144.51,149.34z M144.51,145.22c-0.21,0-0.43,0.04-0.63,0.13c-0.38,0.17-0.67,0.47-0.82,0.86
					c-0.15,0.39-0.14,0.81,0.03,1.2c0.17,0.38,0.48,0.67,0.87,0.82c0.39,0.15,0.81,0.14,1.19-0.03c0.43-0.22,0.69-0.5,0.82-0.87
					c0.15-0.39,0.14-0.81-0.03-1.19c-0.17-0.38-0.48-0.68-0.87-0.83C144.89,145.25,144.7,145.22,144.51,145.22z"/>
			</g>
		</g>
		<g id="Moon_00000003810264809818444150000000191164477310986162_">
			<g>
				<path class="st7" d="M222.79,80.54c-22.21,0-40.27-18.07-40.27-40.27S200.59,0,222.79,0s40.27,18.07,40.27,40.27
					S245,80.54,222.79,80.54z M222.79,1.5c-21.38,0-38.77,17.39-38.77,38.77s17.39,38.77,38.77,38.77s38.77-17.39,38.77-38.77
					S244.17,1.5,222.79,1.5z"/>
			</g>
			<g>
				<path class="st7" d="M109.35,111.98c-4.62,0-9.32-0.8-13.92-2.47c-10.11-3.68-18.18-11.07-22.72-20.82
					c-4.55-9.75-5.02-20.69-1.34-30.79c5.45-14.96,19.23-25.32,35.13-26.41c0.25-0.01,0.52,0.1,0.67,0.33
					c0.15,0.22,0.17,0.5,0.06,0.74c-0.54,1.14-0.99,2.23-1.39,3.31c-7.31,20.09,3.09,42.38,23.17,49.69l0,0
					c5.11,1.86,10.45,2.62,15.87,2.25c0.26-0.02,0.52,0.11,0.67,0.33c0.15,0.22,0.17,0.5,0.06,0.74
					C138.78,103.38,124.51,111.98,109.35,111.98z M105.34,33.09C90.57,34.58,77.88,44.4,72.78,58.4
					c-3.54,9.73-3.08,20.26,1.29,29.65c4.38,9.39,12.15,16.5,21.88,20.05c18.55,6.75,38.84-1.29,47.75-18.73
					c-5.18,0.2-10.29-0.62-15.2-2.4l0,0c-20.87-7.6-31.66-30.75-24.07-51.62C104.71,34.6,105.01,33.85,105.34,33.09z"/>
			</g>
			<g>
				<path class="st7" d="M40.24,184.74c-4.59,0-9.24-0.79-13.74-2.42c-20.87-7.6-31.66-30.75-24.07-51.62
					c3.89-10.68,12.16-19.26,22.7-23.54c0.31-0.13,0.66-0.03,0.87,0.23c0.21,0.26,0.22,0.63,0.03,0.9
					c-1.95,2.79-3.53,5.82-4.69,9.01c-7.31,20.09,3.08,42.38,23.17,49.69l0,0c9.04,3.29,18.93,3.11,27.84-0.51
					c0.31-0.12,0.66-0.03,0.87,0.23c0.21,0.26,0.22,0.63,0.03,0.9C65.56,178.57,53.1,184.74,40.24,184.74z M23.4,109.57
					c-9.05,4.38-16.1,12.15-19.55,21.64c-7.31,20.09,3.08,42.38,23.17,49.69c15.66,5.7,33.18,0.7,43.49-12.15
					c-8.6,2.87-17.92,2.76-26.51-0.36l0,0c-20.87-7.6-31.66-30.75-24.07-51.62C20.84,114.27,22,111.85,23.4,109.57z"/>
			</g>
			<g>
				<path class="st7" d="M337.33,111.98c-15.15,0-29.42-8.6-36.26-23.1c-0.11-0.24-0.09-0.52,0.06-0.74
					c0.15-0.22,0.4-0.34,0.67-0.33c5.42,0.37,10.75-0.39,15.87-2.25c20.09-7.31,30.49-29.6,23.17-49.69
					c-0.39-1.08-0.85-2.17-1.39-3.31c-0.11-0.24-0.09-0.52,0.06-0.74c0.15-0.22,0.4-0.34,0.67-0.33
					c15.9,1.08,29.69,11.45,35.13,26.41c3.68,10.11,3.2,21.04-1.34,30.79c-4.55,9.75-12.62,17.14-22.72,20.82
					C346.65,111.18,341.95,111.98,337.33,111.98z M302.99,89.37c8.91,17.44,29.2,25.48,47.75,18.73
					c9.73-3.54,17.5-10.66,21.88-20.05c4.38-9.39,4.84-19.92,1.29-29.65c-5.1-14-17.79-23.83-32.56-25.32
					c0.33,0.77,0.63,1.51,0.91,2.26c3.68,10.11,3.2,21.04-1.34,30.79s-12.62,17.14-22.72,20.82l0,0
					C313.28,88.75,308.18,89.57,302.99,89.37z M317.93,86.26L317.93,86.26L317.93,86.26z"/>
			</g>
			<g>
				<path class="st7" d="M405.35,184.74c-12.86,0-25.32-6.17-33-17.14c-0.19-0.27-0.18-0.64,0.03-0.9c0.21-0.26,0.56-0.35,0.87-0.23
					c8.91,3.62,18.79,3.8,27.84,0.51c20.09-7.31,30.48-29.6,23.17-49.69c-1.16-3.19-2.74-6.22-4.69-9.01
					c-0.19-0.27-0.18-0.64,0.03-0.9c0.21-0.26,0.56-0.35,0.87-0.23c10.54,4.28,18.82,12.86,22.7,23.54
					c7.59,20.87-3.2,44.02-24.07,51.62C414.59,183.95,409.94,184.74,405.35,184.74z M375.09,168.76
					c10.31,12.85,27.83,17.85,43.49,12.15c20.09-7.31,30.49-29.6,23.17-49.69c-3.45-9.49-10.51-17.26-19.55-21.64
					c1.39,2.28,2.55,4.7,3.47,7.21c7.59,20.87-3.2,44.02-24.07,51.62l0,0C393.01,171.52,383.69,171.63,375.09,168.76z
					 M401.34,167.69L401.34,167.69L401.34,167.69z"/>
			</g>
			<g>
				<g>
					<path class="st7" d="M240.42,63.04c-0.72,0-1.39-0.04-1.99-0.13c-0.4-0.06-0.87-0.14-1.27-0.41c-0.52-0.35-0.85-0.95-1-1.78
						c-0.38-2.23,0.65-4.7,2.69-6.44c1.83-1.56,4.1-2.35,6.28-2.98c0.7-0.2,1.38-0.37,2.11-0.3c1.61,0.16,2.75,1.46,3.42,2.53l0,0
						c1.6,2.55,1.09,4.39,0.38,5.49C249.22,61.83,244.22,63.04,240.42,63.04z M246.92,51.98c-0.48,0-0.98,0.13-1.5,0.28
						c-2.07,0.6-4.22,1.34-5.9,2.78c-1.75,1.49-2.67,3.65-2.35,5.51c0.07,0.38,0.22,0.88,0.57,1.12c0.22,0.15,0.54,0.21,0.84,0.25
						c3.52,0.49,9.79-0.61,11.63-3.45c0.81-1.24,0.68-2.73-0.38-4.42c-0.55-0.88-1.46-1.95-2.67-2.07
						C247.07,51.98,246.99,51.98,246.92,51.98z"/>
				</g>
				<g>
					<path class="st7" d="M250.63,44.66c-0.35,0-0.71-0.06-1.07-0.17c-1.12-0.37-2.12-1.29-2.6-2.4c-0.83-1.93-1.49-4.14-0.12-5.85
						v0c0.28-0.35,0.64-0.67,1.08-0.95c1.68-1.08,4.17-1.12,5.42,0.68c0.72,1.03,1.02,2.48,0.87,4.18c-0.1,1.13-0.5,3.18-2.07,4.11
						C251.68,44.53,251.17,44.66,250.63,44.66z M247.62,36.87L247.62,36.87c-1.04,1.3-0.49,3.09,0.26,4.83
						c0.37,0.85,1.13,1.56,1.99,1.84c0.45,0.15,1.12,0.24,1.76-0.14c0.87-0.51,1.45-1.73,1.59-3.33c0.09-1.02,0.04-2.46-0.7-3.52
						c-0.91-1.31-2.78-1.24-4.06-0.41C248.12,36.35,247.84,36.6,247.62,36.87z"/>
				</g>
				<g>
					<path class="st7" d="M233.83,48.9c-1.67,0-2.79-0.9-3.1-2.51c-0.17-0.87,0.14-1.71,0.51-2.49l0.23-0.51
						c1.1-2.41,2.35-5.15,5.58-4.51c2.27,0.45,3.81,2.28,3.74,4.46c-0.09,2.66-3.75,5.32-6.57,5.54
						C234.09,48.9,233.96,48.9,233.83,48.9z M236.15,39.8c-1.79,0-2.65,1.57-3.77,4.02l-0.23,0.51c0,0,0,0,0,0
						c-0.27,0.59-0.55,1.26-0.43,1.88c0.24,1.23,1.06,1.8,2.43,1.68c2.36-0.19,5.58-2.48,5.65-4.58c0.05-1.68-1.15-3.09-2.93-3.44
						C236.61,39.82,236.37,39.8,236.15,39.8z M231.7,44.11L231.7,44.11L231.7,44.11z"/>
				</g>
				<g>
					<path class="st7" d="M219.73,70.22c-1.28,0-2.68-0.12-3.9-0.75c-2.79-1.44-3.69-4.88-3.34-7.65c0.08-0.67,0.25-1.53,0.81-2.21
						c1.08-1.33,2.95-1.32,4.47-1.17l0.9,0.08c4.03,0.37,10.77,0.99,12.33,5.5c0.64,1.85,0.59,3.31-0.15,4.34
						c-1.4,1.93-4.79,1.88-7.8,1.83c-0.73-0.01-1.42-0.02-2.04,0C220.59,70.21,220.17,70.22,219.73,70.22z M216.56,59.37
						c-0.97,0-1.93,0.18-2.49,0.87c-0.39,0.48-0.52,1.17-0.59,1.71c-0.29,2.35,0.46,5.43,2.81,6.64c1.41,0.72,3.14,0.67,4.67,0.61
						c0.63-0.02,1.35-0.01,2.09,0c2.62,0.04,5.88,0.09,6.97-1.42c0.54-0.75,0.55-1.9,0.02-3.43c-1.35-3.91-7.45-4.46-11.48-4.83
						l-0.9-0.08c0,0,0,0,0,0C217.31,59.4,216.93,59.37,216.56,59.37z"/>
				</g>
				<g>
					<path class="st7" d="M246.57,27.36c-0.1,0-0.2-0.03-0.29-0.09c-1.7-1.19-3.28-2.56-4.68-4.09c-1.44-1.57-1.84-3.11-1.11-4.23
						c0.72-1.09,2.19-1.22,3.22-0.79c1.07,0.45,1.79,1.38,2.31,2.14c0.88,1.3,1.57,2.72,2.05,4.22c0.19,0.59,0.33,1.22,0.09,1.83
						c-0.16,0.41-0.55,0.75-0.99,0.87c-0.1,0.03-0.2,0.04-0.29,0.04C246.79,27.33,246.68,27.36,246.57,27.36z M246.47,26.13
						c0.11,0,0.22,0.04,0.32,0.11c0.03,0.03,0.09,0.02,0.13,0.01c0.13-0.04,0.27-0.15,0.31-0.27c0.13-0.32,0.02-0.74-0.11-1.15
						c-0.45-1.41-1.1-2.74-1.93-3.96c-0.44-0.65-1.04-1.43-1.86-1.78c-0.65-0.27-1.59-0.19-1.99,0.42c-0.68,1.03,0.6,2.56,1.01,3
						c1.23,1.34,2.6,2.56,4.07,3.63C246.43,26.13,246.45,26.13,246.47,26.13z"/>
				</g>
				<g>
					<path class="st7" d="M193.44,37.86c-0.12,0-0.24-0.02-0.37-0.08c-0.5-0.21-0.61-0.77-0.65-0.97l0,0
						c-0.58-2.91,0.32-9.67,2.99-13.23c1.06-1.41,2.3-2.19,3.68-2.31c1.25-0.1,1.97,0.06,2.36,0.54c0.49,0.6,0.25,1.43,0,2.3
						c-0.22,0.76-0.77,1.5-1.36,2.27c-0.47,0.63-0.96,1.27-1.2,1.86c-0.32,0.79-0.54,1.65-0.76,2.48c-0.14,0.53-0.28,1.07-0.44,1.59
						c-0.81,2.58-1.95,4.31-3.49,5.28C194.08,37.68,193.79,37.86,193.44,37.86z M193.49,36.88L193.49,36.88L193.49,36.88z
						 M199.75,22.25c-0.16,0-0.35,0.01-0.57,0.03c-1.08,0.09-2.08,0.74-2.96,1.91c-2.42,3.22-3.36,9.66-2.81,12.43l0,0
						c0.03,0.15,0.06,0.22,0.07,0.25c0.02-0.01,0.08-0.04,0.19-0.11c1.33-0.84,2.33-2.39,3.07-4.73c0.16-0.51,0.29-1.02,0.43-1.54
						c0.23-0.86,0.46-1.75,0.8-2.6c0.28-0.71,0.82-1.41,1.33-2.09c0.51-0.67,1.03-1.36,1.19-1.92c0.17-0.59,0.35-1.22,0.2-1.42
						C200.64,22.4,200.45,22.25,199.75,22.25z"/>
				</g>
				<g>
					<path class="st7" d="M205.22,19.15c-1.11,0-2.27-0.38-3.18-1.14c-0.7-0.58-1.17-1.27-1.35-2c-0.39-1.54,0.53-3.3,2.15-4.09
						c1.48-0.72,3.38-0.47,4.84,0.64l0,0c1.02,0.78,1.63,1.84,1.66,2.9c0.02,0.7-0.2,1.73-1.35,2.72
						C207.23,18.83,206.24,19.15,205.22,19.15z M204.66,12.51c-0.49,0-0.96,0.1-1.38,0.31c-1.03,0.51-1.92,1.75-1.62,2.95
						c0.17,0.66,0.65,1.16,1.02,1.47c1.37,1.13,3.46,1.22,4.65,0.19c0.68-0.59,1.02-1.24,1-1.93c-0.02-0.76-0.48-1.54-1.27-2.14
						c0,0,0,0,0,0C206.33,12.8,205.47,12.51,204.66,12.51z"/>
				</g>
				<g>
					<path class="st7" d="M349.66,101.36c-0.02,0-0.04,0-0.06,0c-1.35-0.01-1.92-0.65-2.16-1.18c-0.58-1.3,0.24-3.28,1.3-4.47
						c1.56-1.76,3.86-2.79,5.46-2.45h0c0.63,0.13,1.14,0.48,1.47,0.99c0.5,0.79,0.58,1.96,0.23,3.48
						C355.31,100.23,352.27,101.36,349.66,101.36z M353.56,94.19c-1.23,0-2.92,0.89-4.07,2.18c-0.85,0.96-1.51,2.55-1.13,3.4
						c0.06,0.14,0.26,0.58,1.25,0.59c0.01,0,0.03,0,0.04,0c1.87,0,4.78-0.76,5.27-2.86c0.29-1.22,0.25-2.16-0.1-2.71
						c-0.19-0.29-0.46-0.47-0.83-0.55C353.86,94.2,353.71,94.19,353.56,94.19z"/>
				</g>
				<g>
					<path class="st7" d="M362.03,91.75c-1.23,0-2.41-0.35-3.25-1.04c-1.2-0.98-1.59-2.54-1.1-4.38c0.7-2.65,2.64-5.04,4.93-6.08
						c0.87-0.39,1.78-0.71,2.5-0.38c0.68,0.32,1.02,1.08,1.34,2.21c0.49,1.73,0.77,3.55,0.82,5.4l0,0c0.04,1.53-0.83,2.85-2.4,3.62
						C363.97,91.53,362.98,91.75,362.03,91.75z M364.42,80.72c-0.31,0-0.76,0.14-1.4,0.43c-2.03,0.92-3.74,3.05-4.37,5.42
						c-0.39,1.46-0.12,2.62,0.77,3.35c1.18,0.97,3.33,1.09,5,0.27c0.71-0.35,1.89-1.16,1.84-2.69l0,0c-0.05-1.77-0.31-3.5-0.78-5.15
						c-0.28-0.98-0.51-1.45-0.8-1.58C364.61,80.74,364.53,80.72,364.42,80.72z"/>
				</g>
				<g>
					<path class="st7" d="M336.9,103.64c-1.05,0-2.12-0.11-3.21-0.23c-3.29-0.38-6.72-0.93-9.3-3c-0.75-0.6-0.69-1.15-0.59-1.43
						c0.17-0.47,0.65-0.64,0.83-0.71c1.2-0.44,2.51-0.49,3.65-0.5c2.08-0.02,4.13,0.08,6.13,0.17c0.59,0.02,1.29,0.01,2.03-0.02
						c1.78-0.05,3.79-0.11,5.22,0.48c1.18,0.49,1.43,1.23,1.43,1.76c-0.01,1.2-1.28,2.35-2.48,2.83
						C339.43,103.48,338.18,103.64,336.9,103.64z M328.85,98.77c-0.18,0-0.37,0-0.55,0c-1.1,0.01-2.26,0.05-3.31,0.44
						c-0.19,0.07-0.24,0.12-0.24,0.13c0.01,0,0.07,0.12,0.28,0.29c2.37,1.91,5.64,2.42,8.78,2.79c2.29,0.27,4.5,0.44,6.44-0.34
						c0.98-0.4,1.85-1.29,1.85-1.91c0-0.33-0.27-0.61-0.81-0.84c-1.23-0.51-3.13-0.45-4.81-0.4c-0.76,0.02-1.48,0.04-2.11,0.01h0
						C332.56,98.85,330.7,98.77,328.85,98.77z"/>
				</g>
				<g>
					<path class="st7" d="M348.21,89.85c-0.23,0-0.45-0.02-0.67-0.07c-1.85-0.4-2.34-1.36-2.41-2.09c-0.16-1.54,1.45-3.4,2.99-4.1
						c1.03-0.46,3.36-1.15,4.76-0.38c0.58,0.31,0.94,0.84,1.04,1.53c0.03,0.19,0.04,0.39,0.02,0.58l0,0
						c-0.08,1.18-0.94,2.29-2.61,3.37c-0.27,0.17-0.55,0.34-0.83,0.5C349.66,89.63,348.91,89.85,348.21,89.85z M351.3,83.86
						c-0.93,0-2.05,0.31-2.78,0.64c-1.18,0.54-2.52,2.03-2.41,3.08c0.06,0.59,0.61,0.99,1.63,1.21c0.65,0.14,1.38-0.02,2.28-0.49
						c0.26-0.14,0.52-0.29,0.76-0.45c1.37-0.88,2.1-1.76,2.16-2.6l0,0c0.01-0.12,0-0.25-0.01-0.37c-0.06-0.38-0.23-0.64-0.53-0.81
						C352.11,83.93,351.73,83.86,351.3,83.86z M353.44,85.29L353.44,85.29L353.44,85.29z"/>
				</g>
				<g>
					<path class="st7" d="M436.43,139.52c-0.02,0-0.03,0-0.05,0c-0.59-0.02-1.41-0.36-2.02-1.9l0,0c-0.71-1.82-1.12-3.73-1.45-5.38
						c-0.07-0.33-0.17-0.67-0.28-0.99c-0.25-0.79-0.52-1.61-0.12-2.29c0.26-0.46,0.77-0.76,1.54-0.93c0.44-0.1,1.11-0.24,1.7,0.06
						c0.48,0.25,0.75,0.7,0.96,1.1c0.54,1.01,0.99,2.07,1.36,3.15c0.74,2.19,0.84,3.97,0.31,5.46
						C438.09,138.65,437.42,139.52,436.43,139.52z M434.95,128.93c-0.2,0-0.43,0.04-0.67,0.1c-0.33,0.07-0.74,0.21-0.88,0.45
						c-0.17,0.3,0.01,0.88,0.21,1.48c0.11,0.36,0.23,0.72,0.31,1.1c0.32,1.6,0.71,3.46,1.4,5.21l0,0c0.18,0.47,0.57,1.25,1.11,1.26
						c0,0,0.01,0,0.01,0c0.44,0,0.83-0.52,1.02-1.04c0.45-1.26,0.35-2.83-0.31-4.8c-0.35-1.03-0.78-2.04-1.29-3
						c-0.15-0.28-0.31-0.57-0.54-0.68C435.2,128.95,435.08,128.93,434.95,128.93z"/>
				</g>
				<g>
					<path class="st7" d="M409.91,177.89c-0.88,0-1.8-0.07-2.79-0.22c-0.51-0.08-1.71-0.33-1.98-0.99
						c-0.09-0.23-0.14-0.67,0.55-1.01c0,0,0,0,0,0l6.06-2.96c0.23-0.11,0.56-0.32,0.94-0.57c1.37-0.88,3.25-2.07,4.79-1.86
						c0.88,0.13,3.57,0.53,3.66,2.23c0.12,2.02-3.85,4.1-4.8,4.35C414.24,177.42,412.23,177.89,409.91,177.89z M406.37,176.45
						c0.22,0.08,0.54,0.17,0.9,0.23c3.43,0.53,6.03-0.04,8.82-0.79c1.14-0.3,4.12-2.19,4.06-3.33c-0.03-0.57-1.06-1.04-2.81-1.3
						c-1.17-0.17-2.94,0.96-4.11,1.71c-0.42,0.27-0.77,0.5-1.04,0.63L406.37,176.45z"/>
				</g>
				<g>
					<path class="st7" d="M425.68,169.85c-0.43,0-0.83-0.04-1.18-0.12c-1.5-0.35-2.65-1.83-2.68-3.46
						c-0.02-1.46,0.83-2.95,2.17-3.79l0,0c1.57-0.98,3.96-1.11,5.7-0.3c1.28,0.6,2.09,1.65,2.28,2.97c0.15,1.07-0.24,2.06-1.14,2.88
						C429.51,169.23,427.37,169.85,425.68,169.85z M424.52,163.32c-1.05,0.66-1.72,1.81-1.7,2.93c0.02,1.16,0.86,2.26,1.9,2.5
						c1.44,0.33,4.08-0.22,5.43-1.47c0.65-0.6,0.93-1.27,0.82-2.01c-0.17-1.24-1.03-1.88-1.71-2.2
						C427.84,162.42,425.8,162.52,424.52,163.32L424.52,163.32z"/>
				</g>
				<g>
					<path class="st7" d="M106.2,105.56c-3.61,0-8.03-1.98-10.21-3.9c-1.17-1.03-1.59-1.92-1.29-2.73c0.62-1.72,4.3-2.04,8.19-2.13
						c0.26-0.01,0.47-0.01,0.62-0.02l0,0c2.58-0.08,7.4,2.19,8,4.84c0.22,0.98-0.04,2.37-2.57,3.45
						C108.12,105.41,107.19,105.56,106.2,105.56z M103.54,97.79L103.54,97.79c-0.16,0.01-0.38,0.01-0.64,0.02
						c-4.51,0.11-6.95,0.6-7.27,1.47c-0.13,0.36,0.23,0.95,1.01,1.64c2.53,2.23,8.57,4.65,11.9,3.23c1.52-0.65,2.18-1.42,1.98-2.3
						c-0.43-1.92-4.48-4.06-6.83-4.06C103.64,97.78,103.59,97.78,103.54,97.79z"/>
				</g>
				<g>
					<path class="st7" d="M90.84,94.78c-0.45,0-0.91-0.06-1.35-0.19c-1.55-0.45-2.88-1.65-3.47-3.15c-0.59-1.5-0.44-3.29,0.38-4.67
						c0.74-1.23,2.24-2.34,3.93-2.07c1.97,0.33,3.67,2.99,4.12,5.27l0,0c0.37,1.91-0.11,3.43-1.3,4.18
						C92.48,94.57,91.68,94.78,90.84,94.78z M89.81,85.65c-1.08,0-2.06,0.8-2.55,1.62c-0.67,1.12-0.79,2.58-0.31,3.79
						c0.48,1.22,1.56,2.2,2.82,2.56c1,0.29,2.07,0.17,2.85-0.33c1.17-0.74,0.99-2.45,0.85-3.15c-0.42-2.16-1.96-4.26-3.3-4.48
						C90.05,85.66,89.93,85.65,89.81,85.65z"/>
				</g>
				<g>
					<path class="st7" d="M104.28,89.34c-0.76,0-1.59-0.19-2.4-0.56c-2.1-0.96-3.54-2.67-4.92-4.32c-1.06-1.26-2.06-2.45-3.34-3.35
						c-0.8-0.56-1.78-0.92-2.82-1.29c-1.7-0.62-3.46-1.25-4.51-2.89c-1.42-2.21-1.03-3.51-0.45-4.21c1.14-1.38,3.74-1.31,5.71-0.53
						c2.3,0.92,4.32,2.45,6.26,3.94c1.46,1.11,2.97,2.26,4.56,3.11l0,0c1.6,0.85,4.39,2.63,5.13,4.9c0.59,1.8,0.31,3.39-0.76,4.34
						C106.1,89.05,105.24,89.34,104.28,89.34z M88.73,72.62c-0.94,0-1.73,0.25-2.13,0.73c-0.66,0.8-0.08,2.1,0.52,3.04
						c0.87,1.35,2.39,1.9,4.01,2.49c1.05,0.38,2.14,0.78,3.05,1.41c1.39,0.97,2.48,2.27,3.54,3.53c1.38,1.64,2.68,3.18,4.58,4.05
						c1.48,0.68,2.93,0.62,3.78-0.14c0.77-0.69,0.94-1.86,0.47-3.29c-0.66-2.01-3.47-3.7-4.65-4.33c-1.67-0.89-3.21-2.07-4.7-3.2
						c-1.89-1.44-3.85-2.94-6.03-3.8C90.34,72.79,89.49,72.62,88.73,72.62z"/>
				</g>
				<g>
					<path class="st7" d="M34.31,178.71c-0.13,0-0.27-0.01-0.42-0.06c-0.78-0.22-1.1-1.04-1.25-1.43c-0.41-1.06-0.86-2.33-1.02-3.67
						c-0.17-1.44,0.01-2.78,0.54-3.88c0.1-0.22,0.24-0.46,0.49-0.63c0.29-0.19,0.9-0.42,1.82,0.27c1.5,1.11,3.16,3.05,3.32,5.18
						c0.09,1.26-0.34,2.38-1.3,3.34c-0.42,0.42-1.01,0.7-1.74,0.83C34.62,178.69,34.46,178.71,34.31,178.71z M33.3,169.85
						c-0.03,0-0.06,0.01-0.08,0.02c-0.06,0.04-0.13,0.18-0.15,0.24c-0.45,0.93-0.6,2.08-0.45,3.33c0.15,1.22,0.57,2.42,0.96,3.42
						c0.14,0.37,0.33,0.76,0.59,0.83c0.11,0.03,0.27,0.01,0.41-0.01c0.53-0.09,0.94-0.28,1.21-0.55c0.74-0.75,1.08-1.61,1.01-2.56
						c-0.13-1.8-1.65-3.52-2.92-4.45l0,0C33.63,169.94,33.42,169.85,33.3,169.85z"/>
				</g>
				<g>
					<path class="st7" d="M26.18,174.28c-0.7,0-1.43-0.21-1.96-0.37c-2.53-0.73-4.59-2.43-6.49-4.1l0,0
						c-0.95-0.83-1.97-1.84-2.04-3.2c-0.05-0.92,0.39-1.86,1.16-2.52c0.62-0.54,1.47-0.89,2.45-1.04c2.36-0.34,5.47,0.54,7.55,2.14
						c1.82,1.4,1.81,2.73,1.58,4.75c-0.03,0.24-0.03,0.54-0.04,0.87c-0.02,1-0.04,2.13-0.58,2.78
						C27.39,174.12,26.8,174.28,26.18,174.28z M20.35,163.99c-0.32,0-0.62,0.02-0.91,0.06c-0.79,0.11-1.46,0.39-1.94,0.8
						c-0.53,0.45-0.84,1.11-0.81,1.71c0.05,0.97,0.9,1.79,1.7,2.49l0,0c1.82,1.6,3.78,3.21,6.07,3.88c0.86,0.25,2.1,0.61,2.58,0.03
						c0.32-0.39,0.34-1.41,0.35-2.16c0.01-0.36,0.01-0.7,0.04-0.96c0.21-1.81,0.24-2.73-1.19-3.84
						C24.65,164.77,22.31,163.99,20.35,163.99z"/>
				</g>
				<g>
					<path class="st7" d="M12.5,163.04c-0.13,0-0.26-0.01-0.39-0.02c-1.69-0.22-2.33-1.72-2.66-2.84c-0.04-0.14-0.1-0.31-0.16-0.5
						c-0.54-1.69-1.56-4.83,0.37-5.81c0.49-0.25,1.03-0.27,1.61-0.06c1.96,0.71,3.85,3.9,4.32,4.98l0,0
						c0.73,1.69,0.07,2.72-0.62,3.29C14.22,162.71,13.34,163.04,12.5,163.04z M10.5,154.68c-0.14,0-0.27,0.03-0.39,0.09
						c-1.17,0.59-0.29,3.3,0.13,4.61c0.06,0.2,0.12,0.37,0.16,0.52c0.41,1.38,0.96,2.02,1.83,2.13c0.67,0.09,1.45-0.17,2.09-0.7
						c0.4-0.33,0.87-0.91,0.34-2.12l0,0c-0.55-1.28-2.32-3.93-3.74-4.44C10.78,154.7,10.64,154.68,10.5,154.68z"/>
				</g>
			</g>
		</g>
	</g>
</g>
<g id="Guide">
</g>
</svg>
