<?xml version="1.0" encoding="utf-8"?>
<!-- Generator: Adobe Illustrator 26.1.0, SVG Export Plug-In . SVG Version: 6.00 Build 0)  -->
<svg version="1.1" xmlns="http://www.w3.org/2000/svg" xmlns:xlink="http://www.w3.org/1999/xlink" x="0px" y="0px"
	 viewBox="0 0 208.06 426.84" style="enable-background:new 0 0 208.06 426.84;" xml:space="preserve">
<style type="text/css">
	.st0{fill:#FFFFFF;stroke:#000000;stroke-miterlimit:10;}
	.st1{fill:#BFA071;stroke:#554B4E;stroke-width:1.5;stroke-linecap:round;stroke-linejoin:round;stroke-miterlimit:10;}
	.st2{fill:#BFA071;stroke:#554B4E;stroke-linecap:round;stroke-linejoin:round;stroke-miterlimit:10;}
	.st3{fill:#F8F4E9;stroke:#554B4E;stroke-width:1.5;stroke-linecap:round;stroke-linejoin:round;stroke-miterlimit:10;}
	.st4{fill:#F2DED6;stroke:#554B4E;stroke-width:1.5;stroke-linecap:round;stroke-linejoin:round;stroke-miterlimit:10;}
	.st5{fill:none;stroke:#554B4E;stroke-linecap:round;stroke-linejoin:round;stroke-miterlimit:10;}
	.st6{fill:#BFA071;}
	.st7{fill:#554B4E;}
	.st8{fill:#F8F4E9;}
	.st9{fill:none;stroke:#554B4E;stroke-width:1.5;stroke-linecap:round;stroke-linejoin:round;stroke-miterlimit:10;}
	.st10{fill:#F8F4E9;stroke:#554B4E;stroke-linecap:round;stroke-linejoin:round;stroke-miterlimit:10;}
	.st11{fill:#F2DED6;stroke:#554B4E;stroke-linecap:round;stroke-linejoin:round;stroke-miterlimit:10;}
	.st12{clip-path:url(#SVGID_00000117658399509296037360000017466527125192001158_);}
	.st13{fill:none;stroke:#BFA071;stroke-width:1.5;stroke-linecap:round;stroke-linejoin:round;}
	.st14{fill:none;stroke:#BFA071;stroke-width:1.5;stroke-linecap:round;stroke-linejoin:round;stroke-dasharray:68.8403,19.6687;}
	.st15{fill:none;stroke:#BFA071;stroke-width:1.5;stroke-linecap:round;stroke-linejoin:round;stroke-dasharray:71.4455,20.413;}
	.st16{fill:none;stroke:#BFA071;stroke-width:1.5;stroke-linecap:round;stroke-linejoin:round;stroke-dasharray:69.5884,19.8824;}
	.st17{fill:none;stroke:#BFA071;stroke-width:1.5;stroke-linecap:round;stroke-linejoin:round;stroke-dasharray:61.3524,17.5292;}
	.st18{fill:none;stroke:#BFA071;stroke-width:1.5;stroke-linecap:round;stroke-linejoin:round;stroke-dasharray:63.9932,18.2838;}
	.st19{fill:none;stroke:#BFA071;stroke-width:1.5;stroke-linecap:round;stroke-linejoin:round;stroke-dasharray:72.7778,20.7937;}
	.st20{fill:none;stroke:#BFA071;stroke-width:1.5;stroke-linecap:round;stroke-linejoin:round;stroke-dasharray:77.193,22.0551;}
	.st21{fill:none;stroke:#BFA071;stroke-width:1.5;stroke-linecap:round;stroke-linejoin:round;stroke-dasharray:75.3802,21.5372;}
	.st22{fill:none;stroke:#BFA071;stroke-width:1.5;stroke-linecap:round;stroke-linejoin:round;stroke-dasharray:73.6885,21.0538;}
	.st23{fill:none;stroke:#BFA071;stroke-width:1.5;stroke-linecap:round;stroke-linejoin:round;stroke-dasharray:63.3162,18.0903;}
	.st24{fill:none;stroke:#BFA071;stroke-width:1.5;stroke-linecap:round;stroke-linejoin:round;stroke-dasharray:62.0513,17.7289;}
	.st25{fill:none;stroke:#BFA071;stroke-width:1.5;stroke-linecap:round;stroke-linejoin:round;stroke-dasharray:68.9157,19.6902;}
	.st26{fill:none;stroke:#554B4E;stroke-width:1.5;stroke-linecap:round;stroke-linejoin:round;}
	.st27{fill:none;stroke:#554B4E;stroke-width:1.5;stroke-linecap:round;stroke-linejoin:round;stroke-dasharray:15.0532,10.0355;}
	.st28{fill:none;stroke:#554B4E;stroke-width:1.5;stroke-linecap:round;stroke-linejoin:round;stroke-dasharray:14.9985,9.999;}
	.st29{fill:none;stroke:#554B4E;stroke-width:1.5;stroke-linecap:round;stroke-linejoin:round;stroke-dasharray:14.8977,9.9318;}
	.st30{fill:none;stroke:#554B4E;stroke-width:1.5;stroke-linecap:round;stroke-linejoin:round;stroke-dasharray:15.4213,10.2808;}
	.st31{fill:none;stroke:#554B4E;stroke-width:1.5;stroke-linecap:round;stroke-linejoin:round;stroke-dasharray:15.2271,10.1514;}
	.st32{fill:none;stroke:#554B4E;stroke-width:1.5;stroke-linecap:round;stroke-linejoin:round;stroke-dasharray:15.021,10.014;}
	.st33{fill:none;stroke:#554B4E;stroke-width:1.5;stroke-linecap:round;stroke-linejoin:round;stroke-dasharray:15.0727,10.0485;}
	.st34{fill:none;stroke:#554B4E;stroke-width:1.5;stroke-linecap:round;stroke-linejoin:round;stroke-dasharray:14.6942,9.7961;}
	.st35{fill:none;stroke:#554B4E;stroke-width:1.5;stroke-linecap:round;stroke-linejoin:round;stroke-dasharray:14.7469,9.8312;}
	.st36{fill:none;stroke:#554B4E;stroke-width:1.5;stroke-linecap:round;stroke-linejoin:round;stroke-dasharray:15.0819,10.0546;}
	.st37{fill:none;stroke:#554B4E;stroke-width:1.5;stroke-linecap:round;stroke-linejoin:round;stroke-dasharray:15.003,10.002;}
	.st38{fill:#F2DED6;}
	.st39{fill:#F2DED6;stroke:#554B4E;stroke-width:1.5;stroke-linecap:round;stroke-miterlimit:10;}
	.st40{fill:none;stroke:#554B4E;stroke-width:1.5;stroke-linecap:round;stroke-miterlimit:10;}
	.st41{fill:none;stroke:#554B4E;stroke-linecap:round;stroke-miterlimit:10;}
	.st42{fill:none;stroke:#BFA071;stroke-linecap:round;stroke-linejoin:round;}
	.st43{fill:none;stroke:#BFA071;stroke-linecap:round;stroke-linejoin:round;stroke-dasharray:14.9905,14.9905;}
	.st44{fill:none;stroke:#BFA071;stroke-linecap:round;stroke-linejoin:round;stroke-dasharray:51.384,34.256;}
	.st45{fill:none;stroke:#554B4E;stroke-miterlimit:10;}
	.st46{clip-path:url(#SVGID_00000139972552227694999030000003148419987154938247_);}
	.st47{fill:none;stroke:#554B4E;stroke-width:1.5;stroke-linecap:round;stroke-linejoin:round;stroke-dasharray:68.8403,19.6687;}
	.st48{fill:none;stroke:#554B4E;stroke-width:1.5;stroke-linecap:round;stroke-linejoin:round;stroke-dasharray:71.4455,20.413;}
	.st49{fill:none;stroke:#554B4E;stroke-width:1.5;stroke-linecap:round;stroke-linejoin:round;stroke-dasharray:69.5884,19.8824;}
	.st50{fill:none;stroke:#554B4E;stroke-width:1.5;stroke-linecap:round;stroke-linejoin:round;stroke-dasharray:61.3524,17.5292;}
	.st51{fill:none;stroke:#554B4E;stroke-width:1.5;stroke-linecap:round;stroke-linejoin:round;stroke-dasharray:63.9932,18.2838;}
	.st52{fill:none;stroke:#554B4E;stroke-width:1.5;stroke-linecap:round;stroke-linejoin:round;stroke-dasharray:72.7778,20.7937;}
	.st53{fill:none;stroke:#554B4E;stroke-width:1.5;stroke-linecap:round;stroke-linejoin:round;stroke-dasharray:77.193,22.0551;}
	.st54{fill:none;stroke:#554B4E;stroke-width:1.5;stroke-linecap:round;stroke-linejoin:round;stroke-dasharray:75.3802,21.5372;}
	.st55{fill:none;stroke:#554B4E;stroke-width:1.5;stroke-linecap:round;stroke-linejoin:round;stroke-dasharray:73.6885,21.0538;}
	.st56{fill:none;stroke:#554B4E;stroke-width:1.5;stroke-linecap:round;stroke-linejoin:round;stroke-dasharray:63.3162,18.0903;}
	.st57{fill:none;stroke:#554B4E;stroke-width:1.5;stroke-linecap:round;stroke-linejoin:round;stroke-dasharray:62.0513,17.7289;}
	.st58{fill:none;stroke:#554B4E;stroke-width:1.5;stroke-linecap:round;stroke-linejoin:round;stroke-dasharray:68.9157,19.6902;}
	.st59{fill:none;stroke:#554B4E;stroke-linecap:round;stroke-linejoin:round;}
	.st60{fill:none;stroke:#554B4E;stroke-linecap:round;stroke-linejoin:round;stroke-dasharray:14.9905,14.9905;}
	.st61{fill:none;stroke:#554B4E;stroke-linecap:round;stroke-linejoin:round;stroke-dasharray:51.384,34.256;}
	.st62{fill:#95608F;}
	.st63{fill:#ED859E;}
	.st64{fill:#FAC87D;}
	.st65{opacity:0.1;}
	.st66{fill:#B5846F;}
	.st67{fill:#B5846F;stroke:#B5846F;stroke-width:5;stroke-linecap:round;stroke-linejoin:round;stroke-miterlimit:10;}
	.st68{fill:#EAD9EB;}
	.st69{fill:#FFFFFF;}
	.st70{fill:url(#SVGID_00000056425684130298275570000002803959795764475323_);}
	.st71{opacity:0.8;fill:#FFFFFF;}
	.st72{fill:url(#SVGID_00000017489343484807169520000005803457586807684780_);}
	.st73{fill:url(#SVGID_00000054972455550354189330000014919459721261483945_);}
	.st74{opacity:0.8;}
	.st75{opacity:0.6;}
	.st76{opacity:0.2;}
	.st77{fill:none;}
	.st78{fill:url(#SVGID_00000180350939132204332170000005571399008665478796_);}
	.st79{fill:url(#SVGID_00000028300061453498019850000002589081821828895104_);}
	.st80{clip-path:url(#SVGID_00000031895027129844606980000004028048314687815332_);fill:#FFFFFF;}
	.st81{clip-path:url(#SVGID_00000034072900096944727830000001643722120805708986_);fill:#FFFFFF;}
	.st82{clip-path:url(#SVGID_00000160174514212860669580000012141178289876644502_);fill:#FFFFFF;}
	.st83{clip-path:url(#SVGID_00000181067521614768424880000003153597740837606838_);fill:#FFFFFF;}
	.st84{clip-path:url(#SVGID_00000178182517531431446440000000785228439676373642_);fill:#FFFFFF;}
</style>
<g id="Bg">
</g>
<g id="Graphic">
	<g id="Potion_00000121252271445226269840000001956808798663441847_">
		<g id="Glass_00000117636735946249714810000002192137459235606689_">
			<g>
				<g>
					<path class="st7" d="M105.94,426.84c-0.82,0-1.62,0-2.42-0.01c-19.97-0.21-40.52-2.27-55.46-15.89
						c-8.83-8.04-14.85-21.36-19.8-33.21C5.04,322.21-3.73,272.75,1.43,226.54c1.73-15.47,6.39-25.85,14.26-31.74
						c4.91-3.68,10.89-5.43,16.66-7.11c2.64-0.77,5.36-1.57,7.94-2.54c3.12-1.17,6.06-2.81,8.51-4.73c0.28-0.22,0.67-0.21,0.94,0.01
						c0.67,0.56,1.39,1.06,2.13,1.48c2.84,1.61,5.98,2.25,8.96,2.7c6.56,1,13.26,1.21,19.74,1.42c4.79,0.15,9.69,0.31,14.45,0.77
						c2,0.2,4.43,0.75,7.43,1.69c3.62,1.13,7.55,2.66,11.35,4.14c3.63,1.42,7.38,2.88,10.66,3.89c1.24,0.38,2.31,0.68,3.29,0.9
						c0.33,0.06,0.45,0.04,0.63,0.02c0.32-0.04,0.64,0.13,0.78,0.43c0.34,0.74,0.62,1.42,0.8,1.99c0.12,0.37-0.04,0.85-0.4,1
						c-0.49,0.2-0.86,0.6-1.02,1.11c-0.14,0.45-0.1,0.93,0.12,1.35s0.59,0.73,1.04,0.87c0.46,0.15,0.9,0.22,1.31,0.22
						c1.4,0,2.09-0.88,2.33-1.25c0.39-0.63,0.52-1.51,0.39-2.6c-0.14-1.11-0.53-2.38-1.17-3.8c-0.09-0.19-0.09-0.4-0.01-0.59
						c0.08-0.19,0.23-0.34,0.42-0.42c2.77-1.07,6.4-2.5,9.85-4.03c3.1-1.38,5.52-2.6,7.38-3.73c3.26-1.99,6.05-4.53,8.07-7.36
						c0.12-0.17,0.3-0.28,0.5-0.31c0.2-0.03,0.41,0.02,0.57,0.15c2.44,1.9,5.36,3.52,8.44,4.68c2.58,0.97,5.3,1.77,7.94,2.54
						c5.78,1.69,11.75,3.44,16.66,7.11c7.87,5.89,12.53,16.27,14.26,31.74l0,0c5.17,46.21-3.61,95.67-26.82,151.2
						c-4.95,11.85-10.98,25.16-19.8,33.2C144.87,424.73,123.49,426.84,105.94,426.84z M49.25,181.96c-2.47,1.85-5.37,3.43-8.43,4.59
						c-2.63,0.99-5.38,1.79-8.05,2.57c-5.65,1.65-11.49,3.36-16.19,6.88C9.07,201.62,4.6,211.67,2.92,226.7
						c-5.14,45.96,3.6,95.17,26.72,150.45c4.89,11.7,10.83,24.84,19.43,32.67c14.57,13.28,34.79,15.29,54.47,15.5
						c17.72,0.18,40-1.42,55.46-15.5c8.6-7.83,14.54-20.97,19.43-32.67c23.11-55.28,31.85-104.5,26.72-150.45l0,0
						c-1.68-15.04-6.15-25.08-13.67-30.71c-4.7-3.52-10.54-5.22-16.19-6.88c-2.66-0.78-5.42-1.58-8.05-2.57
						c-2.97-1.12-5.8-2.64-8.22-4.43c-2.09,2.74-4.86,5.2-8.05,7.15c-1.91,1.16-4.38,2.41-7.54,3.82c-3.18,1.42-6.51,2.74-9.19,3.78
						c0.52,1.27,0.85,2.45,0.98,3.5c0.18,1.44-0.02,2.65-0.6,3.58c-0.29,0.46-1.39,1.96-3.6,1.96c-0.56,0-1.15-0.1-1.76-0.29
						c-0.83-0.26-1.51-0.83-1.92-1.61s-0.48-1.66-0.22-2.49c0.22-0.7,0.66-1.29,1.25-1.7c-0.1-0.27-0.22-0.56-0.35-0.85
						c-0.16-0.01-0.33-0.03-0.52-0.07c-1.09-0.24-2.2-0.55-3.47-0.94c-3.33-1.03-7.11-2.5-10.76-3.93c-3.78-1.47-7.68-3-11.25-4.11
						c-2.9-0.91-5.23-1.44-7.13-1.62c-4.71-0.46-9.58-0.62-14.29-0.77c-6.58-0.21-13.32-0.42-19.97-1.43
						c-3.11-0.47-6.42-1.15-9.47-2.88C50.49,182.85,49.86,182.43,49.25,181.96z"/>
				</g>
				<g>
					<path class="st7" d="M125.17,193c-0.08,0-0.15-0.01-0.23-0.04c-3.06-0.98-6.51-2.33-9.86-3.63c-3.87-1.51-7.85-3.06-11.58-4.23
						c-3.23-1.01-5.9-1.61-8.14-1.83c-4.89-0.48-9.86-0.63-14.66-0.79c-6.39-0.2-12.98-0.41-19.34-1.38
						c-2.64-0.4-5.4-0.96-7.75-2.28c-0.36-0.21-0.72-0.44-1.13-0.75c-0.17-0.12-0.27-0.31-0.3-0.51c-0.02-0.21,0.04-0.41,0.17-0.57
						c2.53-3.04,3.74-6.31,3.59-9.71c-0.01-0.2,0.07-0.4,0.21-0.55c0.2-0.2,0.51-0.28,0.78-0.2c12.43,4.01,28.83,6.21,46.18,6.21
						s33.74-2.21,46.18-6.21c0.08-0.02,0.15-0.04,0.23-0.04h1.83c0.21,0,0.4,0.08,0.54,0.23s0.22,0.35,0.21,0.55
						c-0.15,3.42,1.08,6.7,3.64,9.77c0.21,0.25,0.23,0.62,0.05,0.89c-1.75,2.68-4.33,5.1-7.46,7.01
						c-4.22,2.57-10.85,5.25-17.38,7.76c-0.32,0.12-0.69,0.01-0.88-0.27c-0.53-0.76-0.92-1.24-1.12-1.44
						c-0.68-0.71-1.8-0.73-2.5-0.05c-0.35,0.34-0.54,0.79-0.54,1.29c0,0.24-0.11,0.47-0.31,0.61
						C125.48,192.95,125.33,193,125.17,193z M54.03,177.32c0.11,0.07,0.22,0.14,0.33,0.2c2.13,1.21,4.74,1.72,7.23,2.11
						c6.27,0.95,12.81,1.16,19.14,1.36c4.85,0.15,9.84,0.31,14.78,0.79c2.35,0.23,5.11,0.85,8.44,1.89
						c3.77,1.18,7.78,2.74,11.66,4.25c3.03,1.18,6.15,2.4,8.95,3.33c0.16-0.52,0.45-1,0.86-1.39c1.3-1.25,3.37-1.21,4.62,0.09
						c0.24,0.24,0.56,0.65,0.92,1.15c6.29-2.43,12.59-4.99,16.6-7.43c2.76-1.68,5.06-3.78,6.68-6.09c-2.39-3-3.61-6.22-3.65-9.57
						h-0.95c-12.57,4.03-29.08,6.25-46.53,6.25c-17.05,0-33.21-2.12-45.66-5.98C57.36,171.45,56.21,174.48,54.03,177.32z"/>
				</g>
			</g>
			<g>
				<g>
					<path class="st7" d="M103.12,158.87c-37.01,0-67.12-10.13-67.12-22.59c0-9.36,16.09-17.63,40.99-21.07
						c0.27-0.03,0.53,0.15,0.56,0.43c0.04,0.27-0.15,0.53-0.43,0.56c-24,3.31-40.13,11.38-40.13,20.08
						c0,11.91,29.66,21.59,66.12,21.59c36.46,0,66.12-9.69,66.12-21.59c0-8.41-15.24-16.12-38.82-19.65
						c-0.27-0.04-0.46-0.29-0.42-0.57c0.04-0.27,0.3-0.46,0.57-0.42c24.1,3.61,39.67,11.71,39.67,20.64
						C170.24,148.74,140.13,158.87,103.12,158.87z"/>
				</g>
				<g>
					<path class="st7" d="M104.03,137.87c-7.51,0-15.01-0.74-22.46-2.23c-0.33-0.07-0.64-0.36-0.66-0.7
						c-0.38-6.01-0.81-12.83-3.99-18.39c-2.68-4.69-7.14-8.14-11.44-11.48c-1.5-1.16-3.05-2.36-4.51-3.6
						C41.77,85.16,34.63,57.01,44,34.54C48.39,24.01,56.62,14.91,67.16,8.9C87.31-2.59,118.25-3,139.13,7.93
						c11.41,5.97,20.26,15.42,24.93,26.61c9.37,22.47,2.24,50.61-16.96,66.92c-1.46,1.24-3.01,2.44-4.51,3.6
						c-4.31,3.34-8.76,6.79-11.44,11.48c-3.18,5.55-3.61,12.37-3.99,18.39c-0.02,0.34-0.27,0.62-0.6,0.69
						C119.08,137.12,111.55,137.87,104.03,137.87z M82.37,134.27c14.41,2.8,28.96,2.8,43.32,0c0.38-6.03,0.9-12.79,4.15-18.46
						c2.83-4.95,7.4-8.49,11.83-11.92c1.49-1.15,3.02-2.34,4.46-3.56c18.72-15.9,25.68-43.32,16.55-65.2
						c-4.53-10.87-13.14-20.05-24.24-25.86C117.97-1.46,87.65-1.05,67.9,10.2C57.65,16.05,49.65,24.9,45.39,35.12
						c-9.13,21.88-2.17,49.3,16.55,65.2c1.44,1.22,2.97,2.41,4.46,3.56c4.42,3.43,8.99,6.97,11.83,11.92
						C81.47,121.48,81.99,128.23,82.37,134.27z M126.4,134.89L126.4,134.89L126.4,134.89z"/>
				</g>
				<g>
					<path class="st7" d="M103.12,174.01c-17.47,0-34.01-2.23-46.56-6.27c-1.04-0.34-2.06-0.68-3.04-1.04
						c-1.48-0.54-2.92-1.13-4.27-1.74c-8.67-3.9-13.25-8.59-13.25-13.54v-15.14c0-0.28,0.22-0.5,0.5-0.5s0.5,0.22,0.5,0.5
						c0,11.91,29.66,21.59,66.12,21.59c36.46,0,66.12-9.69,66.12-21.59c0-0.28,0.22-0.5,0.5-0.5l0,0c0.28,0,0.5,0.22,0.5,0.5v15.14
						c0,4.29-3.5,8.44-10.11,12c-1.36,0.73-2.9,1.46-4.57,2.16c-1.82,0.76-3.8,1.49-5.87,2.16
						C137.13,171.79,120.59,174.01,103.12,174.01z M37,140.18v11.24c0,4.54,4.38,8.9,12.66,12.63c1.33,0.6,2.74,1.17,4.2,1.71
						c0.96,0.35,1.97,0.69,3,1.03c12.46,4.01,28.89,6.23,46.26,6.23s33.8-2.21,46.26-6.23c2.05-0.66,4-1.38,5.79-2.13
						c1.65-0.69,3.16-1.4,4.49-2.12c6.27-3.38,9.58-7.22,9.58-11.12v-11.24c-5.5,10.61-33.06,18.69-66.12,18.69
						C70.06,158.87,42.5,150.79,37,140.18z"/>
				</g>
			</g>
		</g>
		<g id="Line_00000081611266257914276160000008764836426834913457_">
			<g>
				<path class="st7" d="M103.66,8.21c-6.74,0-13.48-0.45-19.88-1.34c-0.27-0.04-0.46-0.29-0.43-0.56s0.29-0.45,0.56-0.43
					c12.05,1.68,25.35,1.77,37.46,0.26c0.27-0.04,0.52,0.16,0.56,0.43c0.03,0.27-0.16,0.52-0.43,0.56
					C115.74,7.85,109.7,8.21,103.66,8.21z"/>
			</g>
			<g>
				<path class="st7" d="M72.25,97.37c-0.12,0-0.23-0.04-0.33-0.12c-1.71-1.48-3.37-3.09-4.94-4.79c-0.19-0.2-0.17-0.52,0.03-0.71
					c0.2-0.18,0.52-0.17,0.71,0.03c1.54,1.67,3.18,3.26,4.86,4.72c0.21,0.18,0.23,0.5,0.05,0.71
					C72.53,97.31,72.39,97.37,72.25,97.37z"/>
			</g>
			<g>
				<path class="st7" d="M62.44,86.58c-0.15,0-0.31-0.07-0.41-0.21c-12.57-17.41-15.49-37.34-7.82-53.31
					c0.12-0.25,0.42-0.35,0.67-0.23c0.25,0.12,0.35,0.42,0.23,0.67c-7.51,15.63-4.62,35.18,7.73,52.29c0.16,0.22,0.11,0.54-0.11,0.7
					C62.64,86.55,62.54,86.58,62.44,86.58z"/>
			</g>
			<g>
				<path class="st7" d="M56.98,29.35c-0.09,0-0.17-0.02-0.25-0.07c-0.24-0.14-0.32-0.45-0.18-0.68c2.16-3.66,4.78-6.97,7.79-9.86
					c0.2-0.19,0.52-0.18,0.71,0.02c0.19,0.2,0.18,0.52-0.02,0.71c-2.94,2.82-5.51,6.06-7.62,9.64
					C57.32,29.26,57.15,29.35,56.98,29.35z"/>
			</g>
			<g>
				<path class="st7" d="M67.94,16.78c-0.15,0-0.3-0.07-0.39-0.19c-0.17-0.22-0.13-0.53,0.09-0.7c1.41-1.1,2.89-2.11,4.4-3.01
					c0.24-0.14,0.54-0.07,0.68,0.17c0.14,0.24,0.06,0.54-0.17,0.68c-1.48,0.88-2.92,1.87-4.3,2.94
					C68.16,16.74,68.05,16.78,67.94,16.78z"/>
			</g>
			<g>
				<path class="st7" d="M74.59,88.51c-0.16,0-0.32-0.08-0.42-0.23c-2.26-3.46-4.12-7.23-5.55-11.22c-0.09-0.26,0.04-0.55,0.3-0.64
					c0.26-0.09,0.55,0.04,0.64,0.3c1.4,3.92,3.23,7.62,5.45,11.01c0.15,0.23,0.09,0.54-0.15,0.69
					C74.78,88.48,74.68,88.51,74.59,88.51z"/>
			</g>
			<g>
				<path class="st7" d="M67.54,72.3c-0.22,0-0.43-0.15-0.48-0.38c-4.31-16.99-0.88-35.16,9.17-48.6c0.17-0.22,0.48-0.27,0.7-0.1
					c0.22,0.17,0.27,0.48,0.1,0.7c-9.87,13.21-13.24,31.06-9.01,47.76c0.07,0.27-0.09,0.54-0.36,0.61
					C67.62,72.3,67.58,72.3,67.54,72.3z"/>
			</g>
			<g>
				<path class="st7" d="M91.48,79.41c-0.25,0-0.46-0.18-0.49-0.43c-0.69-4.91-1.2-9.97-1.53-15.05c-0.02-0.28,0.19-0.51,0.47-0.53
					c0.25-0.01,0.51,0.19,0.53,0.47c0.33,5.06,0.84,10.1,1.52,14.98c0.04,0.27-0.15,0.53-0.43,0.56
					C91.53,79.41,91.51,79.41,91.48,79.41z"/>
			</g>
			<g>
				<path class="st7" d="M89.71,59.75c-0.27,0-0.49-0.21-0.5-0.48c-0.17-4-0.23-8.11-0.19-12.22c0-0.27,0.23-0.49,0.5-0.49
					c0,0,0,0,0.01,0c0.28,0,0.5,0.23,0.49,0.51c-0.04,4.09,0.02,8.18,0.19,12.16c0.01,0.28-0.2,0.51-0.48,0.52
					C89.73,59.75,89.72,59.75,89.71,59.75z"/>
			</g>
			<g>
				<path class="st7" d="M90.28,30.76c-0.01,0-0.03,0-0.04,0c-0.28-0.02-0.48-0.26-0.46-0.54c0.29-3.76,0.68-7.66,1.14-11.59
					c0.03-0.28,0.28-0.48,0.55-0.44c0.27,0.03,0.47,0.28,0.44,0.55c-0.46,3.92-0.85,7.8-1.14,11.55
					C90.76,30.56,90.54,30.76,90.28,30.76z"/>
			</g>
			<g>
				<path class="st7" d="M107.79,95.11c-0.04,0-0.07,0-0.11-0.01c-0.27-0.06-0.44-0.33-0.38-0.6c1.62-7.16,2.86-14.51,3.68-21.85
					c0.03-0.27,0.27-0.47,0.55-0.44c0.27,0.03,0.47,0.28,0.44,0.55c-0.82,7.37-2.06,14.76-3.7,21.96
					C108.23,94.96,108.02,95.11,107.79,95.11z"/>
			</g>
			<g>
				<path class="st7" d="M111.93,68.67c-0.01,0-0.03,0-0.04,0c-0.28-0.02-0.48-0.27-0.45-0.54c0.45-5.06,0.7-10.22,0.75-15.33
					c0-0.27,0.23-0.5,0.5-0.5c0,0,0,0,0,0c0.28,0,0.5,0.23,0.5,0.5c-0.05,5.13-0.31,10.32-0.76,15.4
					C112.41,68.48,112.19,68.67,111.93,68.67z"/>
			</g>
			<g>
				<path class="st7" d="M111.34,28.06c-0.25,0-0.47-0.19-0.5-0.44c-0.5-4.25-1.15-8.54-1.93-12.75c-0.05-0.27,0.13-0.53,0.4-0.58
					c0.27-0.05,0.53,0.13,0.58,0.4c0.78,4.23,1.43,8.55,1.94,12.82c0.03,0.27-0.16,0.52-0.44,0.55
					C111.38,28.06,111.36,28.06,111.34,28.06z"/>
			</g>
			<g>
				<path class="st7" d="M122.46,96.76c-0.11,0-0.22-0.04-0.32-0.11c-0.21-0.17-0.25-0.49-0.07-0.7
					c4.31-5.29,7.83-11.26,10.46-17.73c0.1-0.26,0.4-0.38,0.65-0.27c0.26,0.1,0.38,0.4,0.27,0.65c-2.67,6.56-6.24,12.61-10.61,17.98
					C122.75,96.7,122.61,96.76,122.46,96.76z"/>
			</g>
			<g>
				<path class="st7" d="M134.32,75.42c-0.05,0-0.11-0.01-0.16-0.03c-0.26-0.09-0.4-0.38-0.31-0.64c4.79-13.8,5.14-28.66,0.97-41.86
					c-0.08-0.26,0.06-0.54,0.33-0.63c0.26-0.08,0.54,0.06,0.63,0.33c4.23,13.4,3.88,28.49-0.98,42.49
					C134.72,75.29,134.52,75.42,134.32,75.42z"/>
			</g>
			<g>
				<path class="st7" d="M133.38,28.85c-0.18,0-0.36-0.1-0.45-0.28c-2.21-4.52-4.96-8.74-7.62-12.83c-0.15-0.23-0.08-0.54,0.15-0.69
					c0.23-0.15,0.54-0.09,0.69,0.15c2.68,4.11,5.45,8.37,7.68,12.94c0.12,0.25,0.02,0.55-0.23,0.67
					C133.53,28.83,133.46,28.85,133.38,28.85z"/>
			</g>
			<g>
				<path class="st7" d="M135.29,94.45c-0.12,0-0.24-0.04-0.33-0.12c-0.21-0.18-0.23-0.5-0.05-0.71c3.54-4.03,6.31-7.5,8.7-10.91
					c7.48-10.66,15.16-27.01,9.29-44.33c-0.09-0.26,0.05-0.54,0.31-0.63c0.26-0.09,0.55,0.05,0.63,0.31
					c6,17.72-1.81,34.37-9.42,45.22c-2.42,3.44-5.2,6.94-8.77,11C135.57,94.39,135.43,94.45,135.29,94.45z"/>
			</g>
			<g>
				<path class="st7" d="M150.32,31.71c-0.18,0-0.35-0.1-0.44-0.26c-3.32-6.19-8.17-11.96-14.39-17.14
					c-0.21-0.18-0.24-0.49-0.07-0.71c0.18-0.21,0.49-0.24,0.71-0.06c6.33,5.26,11.25,11.13,14.63,17.44
					c0.13,0.24,0.04,0.55-0.2,0.68C150.48,31.69,150.4,31.71,150.32,31.71z"/>
			</g>
			<g>
				<path class="st7" d="M70.22,143.97c-0.18,0-0.36-0.1-0.45-0.27c-0.13-0.25-0.03-0.55,0.22-0.67c3.36-1.72,6.1-4.56,7.7-7.98
					c0.12-0.25,0.42-0.36,0.66-0.24c0.25,0.12,0.36,0.41,0.24,0.66c-1.69,3.63-4.58,6.63-8.15,8.45
					C70.37,143.95,70.29,143.97,70.22,143.97z"/>
			</g>
			<g>
				<path class="st7" d="M137.8,143.97c-0.08,0-0.16-0.02-0.23-0.05c-3.56-1.82-6.46-4.82-8.15-8.45c-0.12-0.25-0.01-0.55,0.24-0.66
					c0.25-0.12,0.55-0.01,0.66,0.24c1.6,3.43,4.33,6.26,7.7,7.98c0.25,0.13,0.34,0.43,0.22,0.67
					C138.16,143.87,137.99,143.97,137.8,143.97z"/>
			</g>
			<g>
				<path class="st7" d="M72.99,134.45c-0.18,0-0.35-0.09-0.44-0.26c-2.08-3.74-5.14-6.84-8.85-8.96c-0.24-0.14-0.32-0.44-0.19-0.68
					c0.14-0.24,0.44-0.32,0.68-0.19c3.87,2.21,7.07,5.45,9.23,9.35c0.13,0.24,0.05,0.54-0.2,0.68
					C73.16,134.42,73.07,134.45,72.99,134.45z"/>
			</g>
			<g>
				<path class="st7" d="M64.68,144.54c-0.12,0-0.25-0.04-0.34-0.13c-4.64-4.34-10.67-7.12-16.98-7.81
					c-0.27-0.03-0.47-0.28-0.44-0.55c0.03-0.28,0.27-0.48,0.55-0.44c6.53,0.72,12.76,3.58,17.55,8.07c0.2,0.19,0.21,0.51,0.02,0.71
					C64.95,144.49,64.81,144.54,64.68,144.54z"/>
			</g>
			<g>
				<path class="st7" d="M135.29,134.45c-0.08,0-0.17-0.02-0.24-0.06c-0.24-0.13-0.33-0.44-0.2-0.68c2.17-3.9,5.36-7.13,9.23-9.35
					c0.24-0.14,0.54-0.05,0.68,0.19c0.14,0.24,0.05,0.54-0.19,0.68c-3.71,2.12-6.78,5.22-8.85,8.96
					C135.64,134.35,135.47,134.45,135.29,134.45z"/>
			</g>
			<g>
				<path class="st7" d="M143.6,144.54c-0.13,0-0.27-0.05-0.37-0.16c-0.19-0.2-0.18-0.52,0.02-0.71c4.79-4.49,11.03-7.36,17.55-8.07
					c0.27-0.04,0.52,0.17,0.55,0.44c0.03,0.27-0.17,0.52-0.44,0.55c-6.31,0.69-12.34,3.47-16.98,7.81
					C143.85,144.5,143.72,144.54,143.6,144.54z"/>
			</g>
			<g>
				<path class="st7" d="M101.1,149.11c-8.44,0-16.82-0.62-25.01-1.86c-0.27-0.04-0.46-0.3-0.42-0.57c0.04-0.27,0.3-0.47,0.57-0.42
					c10.52,1.59,21.35,2.16,32.2,1.69c0.28,0,0.51,0.2,0.52,0.48c0.01,0.28-0.2,0.51-0.48,0.52
					C106.01,149.06,103.55,149.11,101.1,149.11z"/>
			</g>
			<g>
				<path class="st7" d="M112.18,148.8c-0.26,0-0.48-0.21-0.5-0.47c-0.02-0.28,0.19-0.51,0.47-0.53c8.46-0.49,13.47-0.94,19.03-2.16
					c0.27-0.06,0.54,0.11,0.6,0.38c0.06,0.27-0.11,0.54-0.38,0.6c-5.63,1.23-10.68,1.69-19.19,2.18
					C112.2,148.8,112.19,148.8,112.18,148.8z"/>
			</g>
			<g>
				<path class="st7" d="M195.77,259.17C195.77,259.17,195.77,259.17,195.77,259.17c-0.28,0-0.5-0.22-0.5-0.5
					c0-3.29,0.16-6.76,0.32-10.11c0.54-11.64,1.09-23.67-4.21-33.91c-0.13-0.25-0.03-0.55,0.21-0.67c0.24-0.12,0.55-0.03,0.67,0.21
					c5.42,10.48,4.86,22.65,4.32,34.42c-0.16,3.49-0.31,6.79-0.32,10.07C196.27,258.94,196.05,259.17,195.77,259.17z"/>
			</g>
			<g>
				<path class="st7" d="M187.28,207.92c-0.15,0-0.29-0.07-0.39-0.19c-3.21-4.1-7.29-8.06-12.46-12.11
					c-0.22-0.17-0.25-0.48-0.08-0.7c0.17-0.22,0.48-0.25,0.7-0.08c5.24,4.1,9.37,8.12,12.63,12.28c0.17,0.22,0.13,0.53-0.08,0.7
					C187.5,207.88,187.39,207.92,187.28,207.92z"/>
			</g>
			<g>
				<path class="st7" d="M178.35,347.99c-0.07,0-0.13-0.01-0.2-0.04c-0.25-0.11-0.37-0.4-0.26-0.66c3.31-7.67,6.07-15.24,8.21-22.52
					c0.08-0.26,0.35-0.42,0.62-0.34c0.26,0.08,0.42,0.36,0.34,0.62c-2.15,7.31-4.93,14.93-8.25,22.63
					C178.73,347.87,178.55,347.99,178.35,347.99z"/>
			</g>
			<g>
				<path class="st7" d="M188.09,319.96c-0.04,0-0.08,0-0.13-0.02c-0.27-0.07-0.43-0.34-0.36-0.61c3.45-13.28,5.14-26.73,6.34-38.14
					c0.03-0.28,0.27-0.48,0.55-0.45c0.28,0.03,0.47,0.27,0.45,0.55c-1.2,11.45-2.9,24.95-6.36,38.29
					C188.52,319.81,188.32,319.96,188.09,319.96z"/>
			</g>
			<g>
				<path class="st7" d="M195,276.32c-0.02,0-0.03,0-0.05,0c-0.27-0.03-0.48-0.27-0.45-0.55c0.27-2.71,0.52-5.42,0.78-8.12
					c0.03-0.28,0.28-0.47,0.54-0.45c0.28,0.03,0.48,0.27,0.45,0.54c-0.26,2.71-0.51,5.42-0.78,8.13
					C195.47,276.13,195.25,276.32,195,276.32z"/>
			</g>
			<g>
				<path class="st7" d="M99.15,408.19c-8.42,0-17.58-0.56-26.65-2.7c-0.27-0.06-0.43-0.33-0.37-0.6c0.06-0.27,0.32-0.44,0.6-0.37
					c12.06,2.84,24.33,2.87,34.75,2.51c0.28,0,0.51,0.21,0.52,0.48c0.01,0.28-0.21,0.51-0.48,0.52
					C104.83,408.12,102.03,408.19,99.15,408.19z"/>
			</g>
			<g>
				<path class="st7" d="M94.76,414.48c-0.01,0-0.02,0-0.04,0c-5.14-0.37-9.79-0.95-14.19-1.78c-0.27-0.05-0.45-0.31-0.4-0.58
					c0.05-0.27,0.32-0.45,0.58-0.4c4.36,0.82,8.97,1.4,14.07,1.76c0.28,0.02,0.48,0.26,0.46,0.53
					C95.24,414.27,95.02,414.48,94.76,414.48z"/>
			</g>
			<g>
				<path class="st7" d="M61.15,402.74c-0.04,0-0.08,0-0.13-0.02c-3.62-0.95-7.01-2.25-10.06-3.86c-0.24-0.13-0.34-0.43-0.21-0.68
					c0.13-0.25,0.43-0.34,0.68-0.21c2.99,1.58,6.3,2.85,9.85,3.77c0.27,0.07,0.43,0.34,0.36,0.61
					C61.58,402.59,61.37,402.74,61.15,402.74z"/>
			</g>
			<g>
				<path class="st7" d="M120.72,407.49c-0.26,0-0.48-0.21-0.5-0.47c-0.02-0.28,0.19-0.51,0.47-0.53
					c11.29-0.67,24.6-3.77,35.61-8.29c0.26-0.1,0.55,0.02,0.65,0.27c0.1,0.26-0.02,0.55-0.27,0.65
					c-11.11,4.56-24.54,7.69-35.93,8.36C120.74,407.49,120.73,407.49,120.72,407.49z"/>
			</g>
			<g>
				<path class="st7" d="M131.15,412.63c-0.23,0-0.44-0.16-0.49-0.4c-0.06-0.27,0.12-0.54,0.39-0.59c5.51-1.15,9.91-2.49,13.84-4.23
					c0.25-0.12,0.55,0,0.66,0.25c0.11,0.25,0,0.55-0.25,0.66c-4,1.77-8.47,3.13-14.05,4.29
					C131.22,412.63,131.18,412.63,131.15,412.63z"/>
			</g>
			<g>
				<path class="st7" d="M15.35,267.72c-0.25,0-0.46-0.18-0.5-0.44c-1.27-9.87-2.81-24.66-1.45-39.03
					c1.27-13.47,7.13-23.04,16.51-26.95c0.25-0.1,0.55,0.01,0.65,0.27c0.11,0.25-0.01,0.55-0.27,0.65
					c-12.16,5.07-15.18,18.54-15.9,26.12c-1.35,14.28,0.18,28.99,1.45,38.81c0.04,0.27-0.16,0.52-0.43,0.56
					C15.39,267.72,15.37,267.72,15.35,267.72z"/>
			</g>
			<g>
				<path class="st7" d="M37.62,199.52c-0.2,0-0.39-0.12-0.47-0.32c-0.1-0.26,0.03-0.55,0.29-0.64c2.42-0.91,5.49-2.25,7.79-4.62
					c0.2-0.2,0.51-0.2,0.71-0.01c0.2,0.19,0.2,0.51,0.01,0.71c-2.44,2.51-5.64,3.92-8.16,4.86
					C37.74,199.51,37.68,199.52,37.62,199.52z"/>
			</g>
			<g>
				<path class="st7" d="M42.51,375.74c-0.19,0-0.38-0.11-0.46-0.3c-3.81-8.96-7.29-18.21-10.32-27.5
					c-0.08-0.26,0.06-0.54,0.32-0.63c0.26-0.09,0.54,0.06,0.63,0.32c3.03,9.26,6.49,18.49,10.29,27.42
					c0.11,0.25-0.01,0.55-0.26,0.66C42.65,375.72,42.58,375.74,42.51,375.74z"/>
			</g>
			<g>
				<path class="st7" d="M26.36,233.84c-0.28,0-0.5-0.22-0.5-0.5c-0.02-6.22-0.04-12.64,4.61-19.22c0.16-0.23,0.47-0.28,0.7-0.12
					c0.23,0.16,0.28,0.47,0.12,0.7c-4.47,6.31-4.45,12.58-4.43,18.63C26.86,233.62,26.63,233.84,26.36,233.84
					C26.36,233.84,26.36,233.84,26.36,233.84z"/>
			</g>
		</g>
		<g id="Liquid_00000110441900316740972490000016973132336288420506_">
			<g>
				<path class="st7" d="M113.19,398.17c-2.81,0-5.58-0.07-8.27-0.17c-11.34-0.41-23.26-1.28-33.31-6.88
					c-14.68-8.18-22.47-25.01-27.62-38.76c-10.38-27.72-17.14-61.37-19.04-94.76c-0.02-0.41,0.29-0.77,0.71-0.79
					c0.4-0.04,0.77,0.29,0.79,0.71c1.89,33.24,8.63,66.74,18.95,94.32c5.37,14.35,12.78,30.09,26.95,37.98
					c9.76,5.44,21.48,6.29,32.64,6.69c13.62,0.5,29.17,0.4,41.43-7.07c14.79-9.77,30.15-69.07,35.88-118.4
					c0.05-0.41,0.42-0.7,0.83-0.66c0.41,0.05,0.71,0.42,0.66,0.83c-2.89,24.89-8.12,51.69-14.34,73.53
					c-5.01,17.58-12.93,39.82-22.22,45.96C137.04,396.89,124.8,398.17,113.19,398.17z"/>
			</g>
			<g>
				<path class="st7" d="M141.45,292.31c-11.48,0-23.79-2.52-35.9-5c-10.85-2.22-22.08-4.52-32.3-4.87
					c-1.17-0.04-2.33-0.07-3.5-0.11c-6.76-0.19-13.75-0.38-20.4-2.16c-7.6-2.03-20.01-11.09-23.64-18.77
					c-1.1-2.33-1.02-4.95,0.24-7.59c2.1-4.41,7.42-8.53,12.65-9.8c7.11-1.73,14.33-0.39,22.37,1.4c3.56,0.79,7.13,1.6,10.7,2.42
					c13.29,3.02,27.04,6.15,40.64,8.39c0.24,0.04,0.45,0.2,0.56,0.42c3.64,7.66,8.63,16.34,11.74,17.76c1.32,0.61,2.79,0.8,4.35,1
					c1.61,0.21,3.28,0.42,4.78,1.14c1.51,0.72,2.41,1.53,3.21,2.25c1.04,0.95,1.8,1.63,3.63,1.73c2.6,0.14,6.59-1.62,10.09-3.18
					c1.59-0.71,3.09-1.38,4.33-1.8c1.09-0.37,2.58-0.71,4.16-1.06c2.95-0.67,6.63-1.49,8.14-2.74c0.41-0.34,0.71-0.68,0.93-1.04
					c0.49-0.81,0.46-1.64,0.43-2.7c-0.03-1.04-0.06-2.21,0.39-3.58c0.72-2.15,2.14-3.65,3.27-4.85c0.18-0.19,0.43-0.27,0.69-0.22
					c1.26,0.25,2.38,0.6,3.45,1.05l0,0c3.01,1.29,5.59,3.95,6.73,6.95c0.88,2.32,0.84,4.62-0.11,6.64c-0.99,2.1-3,3.05-4.95,3.98
					c-1.35,0.64-2.63,1.25-3.58,2.2C165.35,289.35,153.89,292.31,141.45,292.31z M45.63,244.71c-2.27,0-4.49,0.22-6.69,0.76
					c-4.83,1.18-9.72,4.96-11.65,8.99c-1.07,2.25-1.16,4.37-0.24,6.31c3.41,7.21,15.52,16.05,22.67,17.96
					c6.49,1.73,13.39,1.92,20.06,2.11c1.17,0.03,2.34,0.06,3.51,0.1c10.35,0.36,21.64,2.67,32.55,4.9
					c24.85,5.08,50.55,10.34,67.62-6.72c1.14-1.14,2.59-1.83,4-2.5c1.79-0.85,3.48-1.65,4.23-3.26c0.98-2.08,0.58-4.12,0.06-5.47
					c-1-2.63-3.27-4.97-5.92-6.1l0,0c-0.85-0.36-1.75-0.65-2.75-0.87c-1.01,1.08-2.09,2.32-2.65,3.99c-0.37,1.11-0.34,2.1-0.32,3.05
					c0.03,1.15,0.07,2.33-0.64,3.52c-0.3,0.51-0.71,0.97-1.26,1.42c-1.78,1.48-5.49,2.31-8.77,3.05c-1.54,0.35-2.99,0.67-4,1.02
					c-1.17,0.4-2.64,1.05-4.2,1.75c-3.66,1.63-7.79,3.48-10.79,3.31c-2.36-0.13-3.43-1.1-4.55-2.12c-0.75-0.68-1.53-1.39-2.84-2.01
					c-1.29-0.61-2.77-0.8-4.33-1.01c-1.6-0.21-3.25-0.42-4.78-1.12c-4.16-1.9-9.87-13.04-12.3-18.13
					c-13.52-2.24-27.15-5.34-40.34-8.34c-3.57-0.81-7.13-1.62-10.69-2.41C55.32,245.7,50.37,244.71,45.63,244.71z"/>
			</g>
		</g>
		<g id="Tag_00000129191851381972895450000014972771305449862806_">
			<g id="Paper_00000124853600180738657870000008073747455765513088_">
				<g>
					<path class="st7" d="M140.86,282.03c-0.13,0-0.26,0-0.38-0.01c-2.36-0.13-3.43-1.1-4.55-2.12c-0.75-0.68-1.53-1.39-2.84-2.01
						c-1.29-0.61-2.77-0.8-4.33-1.01c-1.6-0.21-3.25-0.42-4.78-1.12c-4.26-1.94-10.14-13.57-12.47-18.48
						c-1.6-3.36-2.96-6.58-3.55-8.41c-0.63-1.93-7.89-30.69-3.73-33.74c1.88-1.37,4.51-3.49,5.62-6.17c0.59-1.42,0.64-2.53,0.7-3.62
						c0.08-1.59,0.16-3.09,1.98-4.71c2.14-1.91,6.67-2.98,10.68-3.92l0.88-0.21c0.13-0.03,0.27-0.02,0.4,0.01
						c1.23,0.38,2.31,0.68,3.29,0.9c0.33,0.06,0.45,0.04,0.63,0.02c0.32-0.04,0.64,0.13,0.78,0.43c0.34,0.74,0.62,1.42,0.8,1.99
						c0.11,0.34-0.04,0.72-0.35,0.89c-1.49,0.81-2.62,2.32-3.11,4.14c-0.42,1.55-0.09,2.72,0.98,3.48c1.62,1.15,4.6,1.03,6.5-0.26
						c1.02-0.7,2.13-1.99,1.58-4.22c-0.31-1.25-0.84-2.21-1.6-2.87c-0.14-0.12-0.23-0.29-0.25-0.47c-0.14-1.11-0.53-2.38-1.17-3.8
						c-0.09-0.19-0.09-0.4-0.01-0.59c0.08-0.19,0.23-0.34,0.42-0.42c2.77-1.07,6.4-2.5,9.85-4.03c0.25-0.11,0.54-0.08,0.75,0.09
						c0.83,0.62,1.56,1.61,2.27,2.57c0.85,1.14,1.72,2.32,2.65,2.76c1.15,0.55,2.8,0.51,4.38,0.48c1.96-0.05,3.8-0.09,5.09,0.86
						c1.05,0.78,1.6,1.91,2.12,3.1c2.32,5.38,2.59,9.96,2.85,14.4c0.22,3.76,0.45,7.64,1.89,12.16c0.99,3.12,3.28,7.16,5.49,11.08
						c2.51,4.44,5.11,9.04,6.09,12.68c1.16,4.3-0.9,6.48-2.89,8.59l-0.12,0.12c-1.09,1.15-2.32,2.46-2.94,4.3
						c-0.37,1.11-0.34,2.1-0.32,3.05c0.03,1.15,0.07,2.33-0.64,3.52c-0.3,0.51-0.71,0.97-1.26,1.42c-1.78,1.48-5.49,2.31-8.77,3.05
						c-1.54,0.35-2.99,0.67-4,1.02c-1.17,0.4-2.64,1.05-4.2,1.75C147.76,280.27,143.81,282.03,140.86,282.03z M124.21,198.02
						l-0.69,0.16c-3.64,0.86-8.17,1.93-10.02,3.58c-1.35,1.2-1.4,2.18-1.48,3.67c-0.06,1.1-0.13,2.46-0.81,4.11
						c-1.26,3.03-4.1,5.34-6.12,6.81c-2.58,1.89,2.2,25.7,4.28,32.06c0.58,1.76,1.91,4.92,3.48,8.23
						c3.64,7.65,8.63,16.34,11.74,17.76c1.32,0.61,2.79,0.8,4.35,1c1.61,0.21,3.28,0.42,4.78,1.14c1.51,0.72,2.41,1.53,3.21,2.25
						c1.04,0.95,1.8,1.63,3.63,1.73c2.6,0.14,6.59-1.62,10.09-3.18c1.59-0.71,3.09-1.38,4.33-1.8c1.09-0.37,2.58-0.71,4.16-1.06
						c2.95-0.67,6.63-1.49,8.14-2.74c0.41-0.34,0.71-0.68,0.93-1.04c0.49-0.81,0.46-1.64,0.43-2.7c-0.03-1.04-0.06-2.21,0.39-3.58
						c0.72-2.15,2.14-3.65,3.27-4.85l0.12-0.12c1.94-2.06,3.48-3.68,2.54-7.17l0,0c-0.93-3.46-3.48-7.97-5.94-12.33
						c-2.35-4.16-4.58-8.1-5.62-11.36c-1.5-4.7-1.73-8.68-1.96-12.53c-0.27-4.5-0.52-8.76-2.73-13.89c-0.43-1-0.88-1.93-1.63-2.49
						c-0.88-0.65-2.47-0.61-4.16-0.57c-1.76,0.05-3.59,0.09-5.07-0.62c-1.26-0.6-2.25-1.94-3.21-3.22c-0.56-0.76-1.1-1.49-1.64-1.99
						c-3.05,1.34-6.2,2.59-8.76,3.59c0.47,1.16,0.79,2.24,0.94,3.23c0.88,0.85,1.5,2,1.86,3.45c0.58,2.36-0.22,4.48-2.2,5.82
						c-2.41,1.64-6.1,1.75-8.22,0.24c-1.58-1.12-2.14-2.93-1.56-5.09c0.53-1.99,1.71-3.68,3.29-4.73c-0.1-0.25-0.21-0.52-0.33-0.8
						c-0.16-0.01-0.33-0.03-0.52-0.07C126.46,198.67,125.4,198.38,124.21,198.02z"/>
				</g>
				<g>
					<path class="st7" d="M139.8,263.43c-5.9,0-11.6-2.04-16.26-5.93c-6.38-7.43-11.3-18.6-6.17-27.84
						c5.66-9.06,15.33-14.31,24.68-13.36c10.89,0.99,19.56,10.81,20.18,22.84c0.01,0.24,0.01,0.47,0.01,0.7c0,0.01,0,0.02,0,0.03
						c-0.61,10.62-7.06,19.77-16.05,22.77C144.06,263.17,141.92,263.43,139.8,263.43z M139.9,217.19c-8.31,0-16.63,4.92-21.66,12.97
						c-4.87,8.77-0.1,19.51,6,26.63c6.03,5.01,13.95,6.81,21.68,4.88c8.56-2.85,14.74-11.64,15.33-21.85c0-0.21,0-0.42-0.01-0.64
						c-0.59-11.53-8.88-20.94-19.27-21.89C141.27,217.23,140.58,217.19,139.9,217.19z M161.75,239.84L161.75,239.84L161.75,239.84z"
						/>
				</g>
				<g>
					<path class="st7" d="M138.2,259.6c-2.96,0-5.94-0.7-8.76-2.11c-9.43-5.24-12.57-15.94-7.81-26.64
						c2.08-4.67,5.75-8.15,10.36-9.8c4.56-1.63,9.69-1.31,14.09,0.87c3.92,1,7.27,4.5,10.54,11c0.97,2.35,1.43,4.82,1.41,7.36
						c0,0.01,0,0.02,0,0.02c-0.41,6.97-4.24,13.22-10.26,16.7C144.77,258.73,141.5,259.6,138.2,259.6z M137.98,221.02
						c-1.92,0-3.83,0.32-5.65,0.97c-4.35,1.56-7.82,4.85-9.78,9.27c-4.53,10.2-1.57,20.38,7.37,25.35
						c5.63,2.82,11.96,2.65,17.35-0.47c5.72-3.31,9.37-9.25,9.76-15.88c0.03-2.4-0.42-4.73-1.31-6.92
						c-3.13-6.21-6.28-9.54-9.92-10.45c-0.04-0.01-0.07-0.02-0.1-0.04C143.27,221.63,140.62,221.02,137.98,221.02z M157.53,240.27
						L157.53,240.27L157.53,240.27z"/>
				</g>
				<g>
					<path class="st7" d="M132.73,258.8c0,0-0.01,0-0.01,0c-0.28-0.01-0.5-0.24-0.49-0.51l0,0c0,0,0,0,0,0
						c0.11-4.63,0.21-9.18,0.27-13.71c-0.36-0.09-0.71-0.18-1.07-0.27c-3.44-0.88-7-1.8-10.53-2.54c-0.21-0.04-0.37-0.22-0.39-0.43
						c-0.02-0.21,0.09-0.42,0.29-0.51l1.47-0.67c2.59-1.18,4.83-2.2,7.09-3.51c1.01-0.59,2.03-1.21,3.04-1.83
						c0.05-0.03,0.1-0.06,0.14-0.09c-0.03-4.71-0.14-8.95-0.33-13.04c-0.01-0.2,0.1-0.38,0.28-0.47c0.18-0.09,0.39-0.06,0.54,0.07
						c2.02,1.7,3.53,3.64,4.99,5.52c0.89,1.14,1.8,2.31,2.82,3.43c0.39-0.16,0.78-0.32,1.17-0.48c3.01-1.25,6.13-2.53,8.57-4.71
						c0.2-0.18,0.51-0.17,0.69,0.03c0.19,0.19,0.19,0.5,0,0.69c-0.88,0.9-1.24,2.23-1.58,3.51c-0.12,0.46-0.25,0.92-0.4,1.36
						c-0.72,2.16-1.47,4.3-2.44,6.46c0.34,0.44,0.68,0.89,1.03,1.34c2.17,2.84,4.62,6.05,7.75,9.28c0.08,0.06,0.15,0.14,0.2,0.22
						c0.13,0.22,0.08,0.5-0.12,0.66s-0.49,0.14-0.67-0.04c-0.03-0.04-0.07-0.07-0.1-0.11c-0.39-0.18-2.17-0.13-2.95-0.1
						c-0.6,0.02-1.07,0.03-1.33,0c-2.27-0.29-4.68-0.68-7.35-1.21c-0.63-0.12-1.26-0.26-1.9-0.39c-0.97,1.63-1.99,3.27-3.08,4.84
						c-0.78,1.11-1.63,2.19-2.45,3.23l-0.83,1.06c-0.12,0.16-0.31,0.36-0.51,0.59c-0.45,0.5-1.29,1.42-1.3,1.87
						C133.22,258.58,133,258.8,132.73,258.8z M133.5,244.83c-0.05,3.81-0.13,7.64-0.22,11.52c0.17-0.2,0.35-0.39,0.51-0.58
						c0.19-0.21,0.35-0.39,0.46-0.53l0.83-1.06c0.81-1.03,1.65-2.1,2.41-3.19c1.01-1.45,1.96-2.97,2.87-4.5
						C138.06,245.98,135.76,245.41,133.5,244.83z M141.94,245.82c0.52,0.11,1.04,0.22,1.55,0.32c2.65,0.53,5.04,0.92,7.28,1.2
						c0.19,0.02,0.67,0.01,1.18-0.01c0.77-0.02,1.4-0.03,1.92-0.01c-2.69-2.9-4.86-5.74-6.8-8.28c-0.24-0.31-0.48-0.62-0.71-0.93
						c-0.5,1.04-1.07,2.08-1.71,3.14c-0.69,1.13-1.36,2.27-2.03,3.41C142.4,245.04,142.17,245.43,141.94,245.82z M133.51,243.81
						c2.44,0.62,4.92,1.24,7.4,1.79c0.29-0.48,0.57-0.96,0.85-1.44c0.67-1.15,1.35-2.29,2.04-3.43c0.72-1.18,1.34-2.34,1.88-3.5
						c-1.5-1.94-2.91-3.66-4.43-5.13c-0.23-0.22-0.45-0.44-0.66-0.66c-2.42,1.06-4.77,2.46-7.05,3.85c0.01,2,0.01,4.08-0.01,6.27
						l0,0C133.52,242.31,133.52,243.06,133.51,243.81z M122.58,241.11c3.06,0.68,6.13,1.47,9.1,2.23c0.28,0.07,0.55,0.14,0.83,0.21
						c0.01-0.67,0.01-1.33,0.02-2c0.01-1.97,0.02-3.85,0.01-5.66c-0.9,0.55-1.79,1.09-2.69,1.61c-2.3,1.34-4.56,2.37-7.17,3.56
						L122.58,241.11z M133.03,241.55L133.03,241.55L133.03,241.55z M141.58,231.01c0.12,0.12,0.24,0.24,0.37,0.36
						c1.44,1.39,2.81,3.04,4.2,4.82c0.85-1.96,1.53-3.91,2.19-5.87c0.14-0.42,0.26-0.86,0.38-1.3c0.15-0.56,0.31-1.13,0.51-1.68
						c-2.13,1.4-4.51,2.39-6.83,3.35C142.12,230.79,141.85,230.9,141.58,231.01z M133.26,222.83c0.15,3.56,0.24,7.26,0.28,11.29
						c2.05-1.24,4.16-2.48,6.34-3.46c-0.96-1.07-1.81-2.16-2.64-3.24C135.97,225.8,134.76,224.25,133.26,222.83z"/>
				</g>
			</g>
			<g id="Rope_00000119808343764961246040000014915585809452149939_">
				<path class="st7" d="M131,205.91c-0.56,0-1.15-0.1-1.76-0.29c-0.83-0.26-1.51-0.83-1.92-1.61s-0.48-1.66-0.22-2.49
					c0.22-0.7,0.66-1.29,1.25-1.7c-0.1-0.27-0.22-0.56-0.35-0.85c-0.16-0.01-0.33-0.03-0.52-0.07c-1.09-0.24-2.2-0.55-3.47-0.94
					c-3.33-1.03-7.11-2.5-10.76-3.93c-3.78-1.47-7.68-3-11.25-4.11c-2.9-0.91-5.23-1.44-7.13-1.62c-4.71-0.46-9.58-0.62-14.29-0.77
					c-6.58-0.21-13.32-0.42-19.97-1.43c-3.11-0.47-6.42-1.15-9.47-2.88c-0.82-0.46-1.61-1.01-2.35-1.63
					c-2.38-1.99-3.97-4.59-4.47-7.32c-0.76-4.15,1.26-8.53,4.79-10.41c0.21-0.11,0.45-0.12,0.66-0.02c1.19,0.53,3.03,1.27,4.69,1.88
					c0.26,0.1,0.45,0.33,0.48,0.6c0.04,0.27-0.08,0.55-0.3,0.71c-0.02,0.01-1.68,1.24-2.57,2.38c-0.94,1.22-1.59,2.2-1.32,3.69
					c0.24,1.34,1.21,2.73,2.64,3.79c0.35,0.26,0.66,0.47,0.97,0.64c2.13,1.21,4.74,1.72,7.23,2.11c6.27,0.95,12.81,1.16,19.14,1.36
					c4.85,0.15,9.84,0.31,14.78,0.79c2.35,0.23,5.11,0.85,8.44,1.89c3.77,1.18,7.78,2.74,11.66,4.25c3.03,1.18,6.15,2.4,8.95,3.33
					c0.16-0.52,0.45-1,0.86-1.39c1.3-1.25,3.37-1.21,4.62,0.09c0.24,0.24,0.56,0.65,0.92,1.15c6.29-2.43,12.59-4.99,16.6-7.43
					c2.94-1.79,5.36-4.05,6.98-6.54c1.34-2.06,2.1-4.16,2.24-6.25c0.12-1.75-0.31-3.26-1.11-3.94c-0.5-0.42-0.87-0.99-1.04-1.62
					c-0.1-0.37,0.08-0.75,0.43-0.89c1.64-0.69,3.14-1.39,4.46-2.11c0.29-0.16,0.65-0.1,0.89,0.13c2.11,2.12,3.14,5.27,2.89,8.88
					c-0.24,3.45-1.56,6.96-3.84,10.17c-2.13,2.99-5.07,5.68-8.51,7.77c-1.91,1.16-4.38,2.41-7.54,3.82
					c-3.18,1.42-6.51,2.74-9.19,3.78c0.52,1.27,0.85,2.45,0.98,3.5c0.18,1.44-0.02,2.65-0.6,3.58
					C134.32,204.41,133.21,205.91,131,205.91z M128.48,197.44c0.29,0,0.56,0.17,0.68,0.43c0.34,0.74,0.62,1.42,0.8,1.99
					c0.12,0.37-0.04,0.85-0.4,1c-0.49,0.2-0.86,0.6-1.02,1.11c-0.14,0.45-0.1,0.93,0.12,1.35s0.59,0.73,1.04,0.87
					c0.46,0.15,0.9,0.22,1.31,0.22c1.4,0,2.09-0.88,2.33-1.25c0.39-0.63,0.52-1.51,0.39-2.6c-0.14-1.11-0.53-2.38-1.17-3.8
					c-0.09-0.19-0.09-0.4-0.01-0.59c0.08-0.19,0.23-0.34,0.42-0.42c2.77-1.07,6.4-2.5,9.85-4.03c3.1-1.38,5.52-2.6,7.38-3.73
					c3.26-1.99,6.05-4.53,8.07-7.36c2.12-2.98,3.35-6.23,3.57-9.4c0.2-2.94-0.54-5.51-2.08-7.31c-1.03,0.54-2.16,1.07-3.36,1.59
					c0.08,0.11,0.17,0.2,0.28,0.29c1.18,0.99,1.79,2.93,1.64,5.19c-0.16,2.35-1,4.69-2.48,6.97c-1.75,2.68-4.33,5.1-7.46,7.01
					c-4.22,2.57-10.85,5.25-17.38,7.76c-0.32,0.12-0.69,0.01-0.88-0.27c-0.53-0.76-0.92-1.24-1.12-1.44
					c-0.68-0.71-1.8-0.73-2.5-0.05c-0.35,0.34-0.54,0.79-0.54,1.29c0,0.24-0.11,0.47-0.31,0.61c-0.2,0.14-0.45,0.18-0.67,0.11
					c-3.06-0.98-6.51-2.33-9.86-3.63c-3.87-1.51-7.85-3.06-11.58-4.23c-3.23-1.01-5.9-1.61-8.14-1.83
					c-4.89-0.48-9.86-0.63-14.66-0.79c-6.39-0.2-12.98-0.41-19.34-1.38c-2.64-0.4-5.4-0.96-7.75-2.28
					c-0.36-0.21-0.72-0.44-1.13-0.75c-1.76-1.31-2.9-2.99-3.22-4.73c-0.41-2.26,0.75-3.77,1.61-4.87c0.51-0.67,1.23-1.33,1.81-1.83
					c-1.16-0.44-2.31-0.91-3.2-1.3c-2.78,1.67-4.33,5.24-3.7,8.64c0.43,2.39,1.84,4.67,3.95,6.44c0.67,0.56,1.39,1.06,2.13,1.48
					c2.84,1.61,5.98,2.25,8.96,2.7c6.56,1,13.26,1.21,19.74,1.42c4.79,0.15,9.69,0.31,14.45,0.77c2,0.2,4.43,0.75,7.43,1.69
					c3.62,1.13,7.55,2.66,11.35,4.14c3.63,1.42,7.38,2.88,10.66,3.89c1.24,0.38,2.31,0.68,3.29,0.9c0.33,0.06,0.45,0.04,0.63,0.02
					C128.41,197.44,128.44,197.44,128.48,197.44z"/>
			</g>
		</g>
		<g id="Dot_00000155138917903195083740000007321046541533269179_">
			<g>
				<path class="st7" d="M50.66,293.86c0.61-0.2,1.1-0.62,1.39-1.19c0.29-0.57,0.34-1.22,0.14-1.82c-0.2-0.61-0.62-1.1-1.19-1.39
					c-0.57-0.29-1.22-0.34-1.82-0.14c-0.78,0.25-1.33,0.87-1.55,1.6c-0.13,0.45-0.13,0.94,0.02,1.41
					C48.06,293.58,49.41,294.27,50.66,293.86z"/>
			</g>
			<g>
				<path class="st7" d="M51.25,313.91c0.41-1.14-0.19-2.39-1.32-2.8c-0.55-0.2-1.15-0.17-1.68,0.08c-0.53,0.25-0.93,0.69-1.13,1.24
					c-0.02,0.04-0.03,0.09-0.04,0.13c-0.15,0.51-0.11,1.06,0.12,1.55c0.25,0.53,0.69,0.93,1.24,1.13
					C49.58,315.64,50.84,315.05,51.25,313.91z"/>
			</g>
			<g>
				<path class="st7" d="M57.57,305.93c1-0.33,1.54-1.4,1.21-2.4c-0.33-1-1.4-1.54-2.4-1.21c-0.62,0.2-1.06,0.69-1.23,1.28
					c-0.1,0.36-0.11,0.74,0.02,1.12C55.5,305.71,56.58,306.26,57.57,305.93z"/>
			</g>
			<g>
				<path class="st7" d="M135.93,382.55c0.41-1.14-0.19-2.39-1.32-2.8c-0.55-0.2-1.15-0.17-1.68,0.08
					c-0.53,0.25-0.93,0.69-1.13,1.24c-0.02,0.04-0.03,0.09-0.04,0.13c-0.15,0.51-0.11,1.06,0.12,1.55c0.25,0.53,0.69,0.93,1.24,1.13
					C134.26,384.28,135.52,383.68,135.93,382.55z"/>
			</g>
			<g>
				<path class="st7" d="M147.7,372.37c1-0.33,1.54-1.4,1.21-2.4c-0.33-1-1.4-1.54-2.4-1.21c-0.62,0.2-1.06,0.69-1.23,1.28
					c-0.1,0.36-0.11,0.74,0.02,1.12C145.63,372.16,146.7,372.7,147.7,372.37z"/>
			</g>
			<g>
				<path class="st7" d="M54.07,329.26c0.39-0.19,0.69-0.51,0.84-0.92c0.15-0.41,0.13-0.85-0.06-1.24
					c-0.19-0.39-0.51-0.69-0.92-0.84c-0.41-0.15-0.85-0.13-1.24,0.06c-0.39,0.19-0.69,0.51-0.84,0.92c-0.01,0.03-0.02,0.06-0.03,0.1
					c-0.11,0.38-0.08,0.79,0.09,1.15c0.19,0.39,0.51,0.69,0.92,0.84C53.24,329.47,53.68,329.45,54.07,329.26z"/>
			</g>
			<g>
				<path class="st7" d="M137.81,368.51c0.39-0.19,0.69-0.51,0.84-0.92c0.15-0.41,0.13-0.85-0.06-1.24
					c-0.19-0.39-0.51-0.69-0.92-0.84c-0.41-0.15-0.85-0.13-1.24,0.06c-0.39,0.19-0.69,0.51-0.84,0.92c-0.01,0.03-0.02,0.06-0.03,0.1
					c-0.11,0.38-0.08,0.79,0.09,1.15c0.19,0.39,0.51,0.69,0.92,0.84C136.98,368.72,137.42,368.7,137.81,368.51z"/>
			</g>
		</g>
	</g>
</g>
<g id="Guide">
</g>
</svg>
