<?xml version="1.0" encoding="utf-8"?>
<!-- Generator: Adobe Illustrator 26.1.0, SVG Export Plug-In . SVG Version: 6.00 Build 0)  -->
<svg version="1.1" xmlns="http://www.w3.org/2000/svg" xmlns:xlink="http://www.w3.org/1999/xlink" x="0px" y="0px"
	 viewBox="0 0 466.24 523.2" style="enable-background:new 0 0 466.24 523.2;" xml:space="preserve">
<style type="text/css">
	.st0{fill:#FFFFFF;stroke:#000000;stroke-miterlimit:10;}
	.st1{fill:#BFA071;stroke:#554B4E;stroke-width:1.5;stroke-linecap:round;stroke-linejoin:round;stroke-miterlimit:10;}
	.st2{fill:#BFA071;stroke:#554B4E;stroke-linecap:round;stroke-linejoin:round;stroke-miterlimit:10;}
	.st3{fill:#F8F4E9;stroke:#554B4E;stroke-width:1.5;stroke-linecap:round;stroke-linejoin:round;stroke-miterlimit:10;}
	.st4{fill:#F2DED6;stroke:#554B4E;stroke-width:1.5;stroke-linecap:round;stroke-linejoin:round;stroke-miterlimit:10;}
	.st5{fill:none;stroke:#554B4E;stroke-linecap:round;stroke-linejoin:round;stroke-miterlimit:10;}
	.st6{fill:#BFA071;}
	.st7{fill:#554B4E;}
	.st8{fill:#F8F4E9;}
	.st9{fill:none;stroke:#554B4E;stroke-width:1.5;stroke-linecap:round;stroke-linejoin:round;stroke-miterlimit:10;}
	.st10{fill:#F8F4E9;stroke:#554B4E;stroke-linecap:round;stroke-linejoin:round;stroke-miterlimit:10;}
	.st11{fill:#F2DED6;stroke:#554B4E;stroke-linecap:round;stroke-linejoin:round;stroke-miterlimit:10;}
	.st12{clip-path:url(#SVGID_00000042705517154272724640000011038680363493804218_);}
	.st13{fill:none;stroke:#BFA071;stroke-width:1.5;stroke-linecap:round;stroke-linejoin:round;}
	.st14{fill:none;stroke:#BFA071;stroke-width:1.5;stroke-linecap:round;stroke-linejoin:round;stroke-dasharray:68.8403,19.6687;}
	.st15{fill:none;stroke:#BFA071;stroke-width:1.5;stroke-linecap:round;stroke-linejoin:round;stroke-dasharray:71.4455,20.413;}
	.st16{fill:none;stroke:#BFA071;stroke-width:1.5;stroke-linecap:round;stroke-linejoin:round;stroke-dasharray:69.5884,19.8824;}
	.st17{fill:none;stroke:#BFA071;stroke-width:1.5;stroke-linecap:round;stroke-linejoin:round;stroke-dasharray:61.3524,17.5292;}
	.st18{fill:none;stroke:#BFA071;stroke-width:1.5;stroke-linecap:round;stroke-linejoin:round;stroke-dasharray:63.9932,18.2838;}
	.st19{fill:none;stroke:#BFA071;stroke-width:1.5;stroke-linecap:round;stroke-linejoin:round;stroke-dasharray:72.7778,20.7937;}
	.st20{fill:none;stroke:#BFA071;stroke-width:1.5;stroke-linecap:round;stroke-linejoin:round;stroke-dasharray:77.193,22.0551;}
	.st21{fill:none;stroke:#BFA071;stroke-width:1.5;stroke-linecap:round;stroke-linejoin:round;stroke-dasharray:75.3802,21.5372;}
	.st22{fill:none;stroke:#BFA071;stroke-width:1.5;stroke-linecap:round;stroke-linejoin:round;stroke-dasharray:73.6885,21.0538;}
	.st23{fill:none;stroke:#BFA071;stroke-width:1.5;stroke-linecap:round;stroke-linejoin:round;stroke-dasharray:63.3162,18.0903;}
	.st24{fill:none;stroke:#BFA071;stroke-width:1.5;stroke-linecap:round;stroke-linejoin:round;stroke-dasharray:62.0513,17.7289;}
	.st25{fill:none;stroke:#BFA071;stroke-width:1.5;stroke-linecap:round;stroke-linejoin:round;stroke-dasharray:68.9157,19.6902;}
	.st26{fill:none;stroke:#554B4E;stroke-width:1.5;stroke-linecap:round;stroke-linejoin:round;}
	.st27{fill:none;stroke:#554B4E;stroke-width:1.5;stroke-linecap:round;stroke-linejoin:round;stroke-dasharray:15.0532,10.0355;}
	.st28{fill:none;stroke:#554B4E;stroke-width:1.5;stroke-linecap:round;stroke-linejoin:round;stroke-dasharray:14.9985,9.999;}
	.st29{fill:none;stroke:#554B4E;stroke-width:1.5;stroke-linecap:round;stroke-linejoin:round;stroke-dasharray:14.8977,9.9318;}
	.st30{fill:none;stroke:#554B4E;stroke-width:1.5;stroke-linecap:round;stroke-linejoin:round;stroke-dasharray:15.4213,10.2808;}
	.st31{fill:none;stroke:#554B4E;stroke-width:1.5;stroke-linecap:round;stroke-linejoin:round;stroke-dasharray:15.2271,10.1514;}
	.st32{fill:none;stroke:#554B4E;stroke-width:1.5;stroke-linecap:round;stroke-linejoin:round;stroke-dasharray:15.021,10.014;}
	.st33{fill:none;stroke:#554B4E;stroke-width:1.5;stroke-linecap:round;stroke-linejoin:round;stroke-dasharray:15.0727,10.0485;}
	.st34{fill:none;stroke:#554B4E;stroke-width:1.5;stroke-linecap:round;stroke-linejoin:round;stroke-dasharray:14.6942,9.7961;}
	.st35{fill:none;stroke:#554B4E;stroke-width:1.5;stroke-linecap:round;stroke-linejoin:round;stroke-dasharray:14.7469,9.8312;}
	.st36{fill:none;stroke:#554B4E;stroke-width:1.5;stroke-linecap:round;stroke-linejoin:round;stroke-dasharray:15.0819,10.0546;}
	.st37{fill:none;stroke:#554B4E;stroke-width:1.5;stroke-linecap:round;stroke-linejoin:round;stroke-dasharray:15.003,10.002;}
	.st38{fill:#F2DED6;}
	.st39{fill:#F2DED6;stroke:#554B4E;stroke-width:1.5;stroke-linecap:round;stroke-miterlimit:10;}
	.st40{fill:none;stroke:#554B4E;stroke-width:1.5;stroke-linecap:round;stroke-miterlimit:10;}
	.st41{fill:none;stroke:#554B4E;stroke-linecap:round;stroke-miterlimit:10;}
	.st42{fill:none;stroke:#BFA071;stroke-linecap:round;stroke-linejoin:round;}
	.st43{fill:none;stroke:#BFA071;stroke-linecap:round;stroke-linejoin:round;stroke-dasharray:14.9905,14.9905;}
	.st44{fill:none;stroke:#BFA071;stroke-linecap:round;stroke-linejoin:round;stroke-dasharray:51.384,34.256;}
	.st45{fill:none;stroke:#554B4E;stroke-miterlimit:10;}
	.st46{clip-path:url(#SVGID_00000163033544476410568450000004882131585117533584_);}
	.st47{fill:none;stroke:#554B4E;stroke-width:1.5;stroke-linecap:round;stroke-linejoin:round;stroke-dasharray:68.8403,19.6687;}
	.st48{fill:none;stroke:#554B4E;stroke-width:1.5;stroke-linecap:round;stroke-linejoin:round;stroke-dasharray:71.4455,20.413;}
	.st49{fill:none;stroke:#554B4E;stroke-width:1.5;stroke-linecap:round;stroke-linejoin:round;stroke-dasharray:69.5884,19.8824;}
	.st50{fill:none;stroke:#554B4E;stroke-width:1.5;stroke-linecap:round;stroke-linejoin:round;stroke-dasharray:61.3524,17.5292;}
	.st51{fill:none;stroke:#554B4E;stroke-width:1.5;stroke-linecap:round;stroke-linejoin:round;stroke-dasharray:63.9932,18.2838;}
	.st52{fill:none;stroke:#554B4E;stroke-width:1.5;stroke-linecap:round;stroke-linejoin:round;stroke-dasharray:72.7778,20.7937;}
	.st53{fill:none;stroke:#554B4E;stroke-width:1.5;stroke-linecap:round;stroke-linejoin:round;stroke-dasharray:77.193,22.0551;}
	.st54{fill:none;stroke:#554B4E;stroke-width:1.5;stroke-linecap:round;stroke-linejoin:round;stroke-dasharray:75.3802,21.5372;}
	.st55{fill:none;stroke:#554B4E;stroke-width:1.5;stroke-linecap:round;stroke-linejoin:round;stroke-dasharray:73.6885,21.0538;}
	.st56{fill:none;stroke:#554B4E;stroke-width:1.5;stroke-linecap:round;stroke-linejoin:round;stroke-dasharray:63.3162,18.0903;}
	.st57{fill:none;stroke:#554B4E;stroke-width:1.5;stroke-linecap:round;stroke-linejoin:round;stroke-dasharray:62.0513,17.7289;}
	.st58{fill:none;stroke:#554B4E;stroke-width:1.5;stroke-linecap:round;stroke-linejoin:round;stroke-dasharray:68.9157,19.6902;}
	.st59{fill:none;stroke:#554B4E;stroke-linecap:round;stroke-linejoin:round;}
	.st60{fill:none;stroke:#554B4E;stroke-linecap:round;stroke-linejoin:round;stroke-dasharray:14.9905,14.9905;}
	.st61{fill:none;stroke:#554B4E;stroke-linecap:round;stroke-linejoin:round;stroke-dasharray:51.384,34.256;}
	.st62{fill:#95608F;}
	.st63{fill:#ED859E;}
	.st64{fill:#FAC87D;}
	.st65{opacity:0.1;}
	.st66{fill:#B5846F;}
	.st67{fill:#B5846F;stroke:#B5846F;stroke-width:5;stroke-linecap:round;stroke-linejoin:round;stroke-miterlimit:10;}
	.st68{fill:#EAD9EB;}
	.st69{fill:#FFFFFF;}
	.st70{fill:url(#SVGID_00000047061261514859653590000013256163242568972950_);}
	.st71{opacity:0.8;fill:#FFFFFF;}
	.st72{fill:url(#SVGID_00000086655046033759708400000013891931946188617897_);}
	.st73{fill:url(#SVGID_00000024686517273380928320000012493073373183523239_);}
	.st74{opacity:0.8;}
	.st75{opacity:0.6;}
	.st76{opacity:0.2;}
	.st77{fill:none;}
	.st78{fill:url(#SVGID_00000015320429407188807780000013048943582274700188_);}
	.st79{fill:url(#SVGID_00000127037939536335838930000006917287584570212012_);}
	.st80{clip-path:url(#SVGID_00000067208764339985402620000003379064672371699608_);fill:#FFFFFF;}
	.st81{clip-path:url(#SVGID_00000127726472907054931300000005923595971038726571_);fill:#FFFFFF;}
	.st82{clip-path:url(#SVGID_00000074444302551397106060000012534164298021922235_);fill:#FFFFFF;}
	.st83{clip-path:url(#SVGID_00000121248894106127020590000015946302635189184681_);fill:#FFFFFF;}
	.st84{clip-path:url(#SVGID_00000176019119342353530350000017234333383352717986_);fill:#FFFFFF;}
</style>
<g id="Bg">
</g>
<g id="Graphic">
	<g id="Moon_00000003818867257720370800000015099548873540898961_">
		<g id="Moon_00000072272627344101352310000015898311107206925734_">
			<path class="st7" d="M198.5,523.2c-26.27,0-52.36-3.81-77.34-11.41c-46.73-14.21-88.56-41.58-120.97-79.17
				c-0.21-0.24-0.24-0.59-0.08-0.87c0.16-0.28,0.47-0.42,0.79-0.36c78.44,15.2,188.26,8.86,256.99-39.49
				c0.01-0.5,0.01-0.99,0.02-1.46c0.05-5.22,0.09-8.99,6-11.25c2.87-1.09,3.13-2.44,3.9-6.41c0.36-1.86,0.81-4.17,1.68-7.16
				c1.89-5.95,6.85-7.49,11.65-8.98c3.59-1.11,7.29-2.26,9.79-5.27c-10.46-1.9-14.83-9.35-15.77-13.4
				c-2.08-1.49-16.88-12.42-24.87-25.88c-3.21-5.41-4.42-8-3.58-10c0.92-2.18,4-2.93,10.15-4.42c4.43-1.08,10.49-2.55,18.31-5.2
				c19.33-6.54,47.86-39.66,63.14-58.83c3.32-4.69,1.66-13.33,0.56-19.05c-0.28-1.47-0.53-2.75-0.65-3.75
				c-0.01-0.1,0-0.21,0.03-0.31c9.25-30.31,5.18-69.96-11.44-111.63c-14.66-36.76-38.61-73.25-64.05-97.62
				c-0.24-0.23-0.3-0.6-0.14-0.9c0.16-0.3,0.5-0.45,0.83-0.37c35.15,8.28,67.67,23.68,96.68,45.78
				c27.9,21.25,51.16,47.59,69.12,78.27c17.95,30.66,29.53,63.8,34.41,98.49c5.07,36.07,2.59,71.94-7.38,106.61
				c-13.36,48.39-39.55,91.38-75.74,124.32c-33.98,30.93-76.16,52.72-121.97,63.02C238.75,520.97,218.57,523.2,198.5,523.2z
				 M2.74,433.28c32.02,36.53,73.07,63.16,118.86,77.08c43.82,13.32,91.08,14.94,136.68,4.69c45.56-10.24,87.5-31.91,121.29-62.67
				c35.98-32.75,62.02-75.5,75.3-123.62c9.91-34.48,12.38-70.13,7.33-106c-4.85-34.5-16.37-67.45-34.22-97.94
				c-17.87-30.51-40.99-56.7-68.74-77.83c-28.1-21.41-59.53-36.49-93.45-44.87c25.19,24.78,47.86,59.69,62.44,96.24
				c16.72,41.92,20.81,81.85,11.53,112.47c0.12,0.93,0.35,2.12,0.61,3.49c1.15,5.97,2.88,14.99-0.84,20.24
				c-15.41,19.33-44.17,52.69-63.86,59.35c-7.89,2.67-13.99,4.15-18.44,5.23c-5.3,1.29-8.5,2.07-9.13,3.55
				c-0.58,1.38,0.72,4,3.48,8.66c8.39,14.14,24.52,25.47,24.68,25.58c0.16,0.11,0.27,0.28,0.31,0.47c0.09,0.44,2.36,10.91,15.8,12.7
				c0.26,0.03,0.48,0.2,0.58,0.43s0.09,0.51-0.06,0.72c-2.77,4.19-7.11,5.54-11.31,6.84c-4.63,1.44-9.01,2.79-10.66,7.98
				c-0.85,2.9-1.29,5.18-1.64,7c-0.79,4.09-1.19,6.14-4.84,7.53c-4.95,1.89-4.98,4.72-5.03,9.86c-0.01,0.6-0.01,1.21-0.03,1.86
				c-0.01,0.24-0.12,0.46-0.32,0.59C190.61,441.29,81.46,448.04,2.74,433.28z"/>
		</g>
		<g id="Mouth_00000029021150056996038760000016796205524146661278_">
			<g>
				<path class="st7" d="M286.38,367c-0.12,0-0.24-0.04-0.33-0.13l-8.61-7.69c-0.21-0.18-0.22-0.5-0.04-0.71
					c0.18-0.21,0.5-0.22,0.71-0.04l8.61,7.69c0.21,0.18,0.22,0.5,0.04,0.71C286.66,366.94,286.52,367,286.38,367z"/>
			</g>
			<g>
				<path class="st7" d="M286.38,387.39c-0.06,0-0.13-0.01-0.19-0.04c-12.47-5.03-18.43-10.76-18.68-11
					c-0.2-0.19-0.2-0.51-0.01-0.71c0.19-0.2,0.51-0.2,0.71-0.01c0.06,0.06,6.09,5.84,18.36,10.79c0.26,0.1,0.38,0.39,0.28,0.65
					C286.77,387.27,286.58,387.39,286.38,387.39z"/>
			</g>
			<g>
				<path class="st7" d="M325.66,399.41c-5.87,0-9.76-3.66-10.53-4.45c-1.8-0.19-16.08-1.8-25.2-6.09
					c-0.25-0.12-0.36-0.42-0.24-0.67c0.12-0.25,0.41-0.36,0.67-0.24c9.53,4.48,24.9,6,25.06,6.02c0.13,0.01,0.24,0.07,0.33,0.17
					c0.05,0.06,5.59,6.18,13.97,3.65c0.27-0.08,0.54,0.07,0.62,0.33c0.08,0.26-0.07,0.54-0.33,0.62
					C328.46,399.21,327.01,399.41,325.66,399.41z"/>
			</g>
			<g>
				<path class="st7" d="M292.17,405.61c-0.03,0-0.05,0-0.08-0.01c-28.38-4.56-33.68-12.69-33.89-13.03
					c-0.14-0.23-0.07-0.54,0.16-0.69c0.23-0.15,0.54-0.07,0.69,0.16c0.07,0.12,5.47,8.12,33.2,12.57c0.27,0.04,0.46,0.3,0.42,0.57
					C292.63,405.43,292.42,405.61,292.17,405.61z"/>
			</g>
			<g>
				<path class="st7" d="M262.95,406.91c-0.07,0-0.13-0.01-0.2-0.04c-7.3-3.18-8.45-10.65-8.5-10.96c-0.04-0.27,0.15-0.53,0.42-0.57
					c0.25-0.05,0.53,0.15,0.57,0.42c0.01,0.07,1.13,7.24,7.91,10.19c0.25,0.11,0.37,0.4,0.26,0.66
					C263.33,406.8,263.15,406.91,262.95,406.91z"/>
			</g>
			<g>
				<path class="st7" d="M307.84,407.14c-0.01,0-0.03,0-0.04,0l-12.59-0.97c-0.28-0.02-0.48-0.26-0.46-0.54
					c0.02-0.28,0.28-0.49,0.54-0.46l12.59,0.97c0.28,0.02,0.48,0.26,0.46,0.54C308.32,406.94,308.1,407.14,307.84,407.14z"/>
			</g>
			<g>
				<path class="st7" d="M331.89,411.44c-0.18,0-0.36-0.1-0.45-0.27c-0.13-0.25-0.03-0.55,0.22-0.67c3.52-1.8,6.71-4.36,9.22-7.4
					c1.14-1.38,1.85-2.51,2.29-3.67c1.5-3.9,0.05-8.2-1.69-12.62c-0.1-0.26,0.02-0.55,0.28-0.65c0.26-0.1,0.55,0.02,0.65,0.28
					c1.75,4.43,3.32,9.11,1.69,13.34c-0.48,1.26-1.24,2.48-2.46,3.95c-2.6,3.15-5.9,5.79-9.54,7.65
					C332.05,411.42,331.97,411.44,331.89,411.44z"/>
			</g>
			<g>
				<path class="st7" d="M320.81,419.77c-0.2,0-0.39-0.12-0.47-0.32c-0.1-0.26,0.03-0.55,0.29-0.65c2.25-0.86,4.37-2.01,6.32-3.41
					c0.22-0.16,0.54-0.11,0.7,0.11c0.16,0.22,0.11,0.54-0.11,0.7c-2.02,1.45-4.22,2.64-6.55,3.53
					C320.93,419.76,320.87,419.77,320.81,419.77z"/>
			</g>
			<g>
				<path class="st7" d="M352.54,396.41c-0.05,0-0.09-0.01-0.14-0.02c-0.26-0.08-0.42-0.36-0.34-0.62c0.88-3,0.39-6.37-1.3-9
					c-0.15-0.23-0.08-0.54,0.15-0.69c0.23-0.15,0.54-0.08,0.69,0.15c1.85,2.87,2.38,6.54,1.41,9.82
					C352.95,396.27,352.75,396.41,352.54,396.41z"/>
			</g>
		</g>
		<g id="Nose_00000142893182818678273680000008559093349693647235_">
			<g>
				<path class="st7" d="M300.65,348.08c-0.17,0-0.33-0.08-0.43-0.24c-0.14-0.23-0.07-0.54,0.16-0.69
					c6.11-3.78,6.97-14.15,6.98-14.25c0.02-0.28,0.28-0.47,0.54-0.46c0.28,0.02,0.48,0.26,0.46,0.54
					c-0.03,0.45-0.91,10.99-7.45,15.03C300.84,348.06,300.74,348.08,300.65,348.08z"/>
			</g>
			<g>
				<path class="st7" d="M289.12,341.95c-0.26,0-0.48-0.2-0.5-0.46c-0.02-0.28,0.19-0.51,0.46-0.53c2.62-0.18,5.13-0.72,5.45-1.16
					c-0.02-0.01-0.07-0.07-0.17-0.15c-2.01-1.59-9.11-3.79-9.18-3.81c-0.26-0.08-0.41-0.36-0.33-0.62c0.08-0.26,0.36-0.42,0.62-0.33
					c0.3,0.09,7.34,2.28,9.5,3.98c0.59,0.47,0.61,0.92,0.52,1.21c-0.39,1.28-4.15,1.73-6.35,1.88
					C289.15,341.95,289.13,341.95,289.12,341.95z"/>
			</g>
			<g>
				<path class="st7" d="M315.79,330.92c-0.02,0-0.04,0-0.06,0c-0.27-0.03-0.47-0.28-0.44-0.55c0.2-1.77-0.25-3.62-1.23-5.1
					c-0.15-0.23-0.09-0.54,0.14-0.69c0.23-0.15,0.54-0.09,0.69,0.14c1.12,1.67,1.63,3.78,1.4,5.77
					C316.26,330.73,316.04,330.92,315.79,330.92z"/>
			</g>
		</g>
		<g id="Eye_00000026865358715092904080000012661055309595266435_">
			<g>
				<path class="st7" d="M364.27,272.34c-17.38,0-25.39-11.24-25.49-11.38l-0.28-0.41l0.41-0.28c3.58-2.48,5.19-9.61,5.21-9.68
					l0.48-2.19l0.49,2.19c0.55,2.43,3.29,6.19,3.31,6.23c7.1,10.72,27.25,12.97,27.46,12.99l2.76,0.29l-2.69,0.69
					C371.66,271.89,367.77,272.34,364.27,272.34z M339.9,260.78c1.84,2.28,12.34,13.88,33.2,9.64c-5.85-1-19.67-4.22-25.51-13.03
					c-0.08-0.12-1.91-2.63-2.92-4.98C343.98,254.66,342.47,258.7,339.9,260.78z"/>
			</g>
			<g>
				<path class="st7" d="M421.73,227.31c-0.06,0-0.12-0.01-0.18-0.03c-0.3-0.12-30.55-11.78-55.46-18.91
					c-12.46-3.57-25.19,0.99-26.6,1.52c0,0,0,0,0,0c-0.21,0.08-0.45,0.03-0.61-0.12c-0.18-0.16-0.26-0.42-0.19-0.66
					c0.45-1.77,2.22-7.67,5.84-9.33c4.08-1.88,14.55-1.99,23.61,0.82c22.92,7.1,53.54,25.61,53.85,25.79
					c0.22,0.13,0.3,0.42,0.19,0.65C422.09,227.21,421.92,227.31,421.73,227.31z M355.83,206c3.34,0,6.94,0.38,10.54,1.41
					c18.54,5.31,40.04,13.12,49.98,16.83c-9.7-5.56-31.3-17.36-48.5-22.69c-8.84-2.74-18.98-2.66-22.9-0.86
					c-2.89,1.33-4.54,6.06-5.11,8.02C342.25,207.86,348.44,206,355.83,206z M339.32,209.43L339.32,209.43L339.32,209.43z
					 M339.65,209.36C339.65,209.36,339.65,209.36,339.65,209.36C339.65,209.36,339.65,209.36,339.65,209.36z M339.14,208.96
					C339.14,208.96,339.14,208.96,339.14,208.96C339.14,208.96,339.14,208.96,339.14,208.96z"/>
			</g>
			<g>
				<path class="st7" d="M377.52,234.45c-0.08,0-0.16-0.02-0.24-0.06c-14.76-8.08-25.09-4.73-25.2-4.7
					c-0.26,0.08-0.55-0.05-0.63-0.31c-0.09-0.26,0.05-0.54,0.31-0.63c0.43-0.15,10.82-3.54,26,4.77c0.24,0.13,0.33,0.44,0.2,0.68
					C377.87,234.36,377.7,234.45,377.52,234.45z"/>
			</g>
			<g>
				<path class="st7" d="M364.27,272.34c-17.38,0-25.39-11.24-25.49-11.38c-0.15-0.22-0.11-0.51,0.1-0.67
					c7.72-6.17,6.23-23.99,6.21-24.16c-0.02-0.28,0.18-0.52,0.45-0.54c0.26-0.02,0.52,0.18,0.54,0.45
					c0.07,0.74,1.51,17.98-6.21,24.72c1.79,2.24,12.29,13.91,33.21,9.66c-5.85-1-19.67-4.22-25.51-13.03
					c-0.15-0.23-0.09-0.54,0.14-0.69c0.23-0.15,0.54-0.09,0.69,0.14c7.08,10.7,27.24,12.95,27.44,12.98
					c0.24,0.03,0.43,0.22,0.45,0.46s-0.14,0.46-0.38,0.52C371.66,271.89,367.77,272.34,364.27,272.34z"/>
			</g>
			<g>
				<path class="st7" d="M396.94,256.83c-0.19,0-0.38-0.11-0.46-0.31c-4.35-10.31-14.61-17.62-14.71-17.69
					c-0.23-0.16-0.28-0.47-0.12-0.7c0.16-0.23,0.47-0.28,0.7-0.12c0.11,0.07,10.59,7.54,15.06,18.12c0.11,0.25-0.01,0.55-0.27,0.66
					C397.07,256.82,397,256.83,396.94,256.83z"/>
			</g>
			<g>
				<path class="st7" d="M329.11,263.51c-1.58,0-2.53-0.19-2.62-0.21c-0.27-0.06-0.44-0.32-0.39-0.59c0.06-0.27,0.32-0.44,0.59-0.39
					c0.05,0.01,5.37,1.06,12.29-2.09c0.25-0.11,0.55,0,0.66,0.25s0,0.55-0.25,0.66C335.1,263.1,331.43,263.51,329.11,263.51z"/>
			</g>
			<g>
				<path class="st7" d="M330.12,270.51c-0.25,0-0.46-0.19-0.5-0.44c-0.03-0.27,0.16-0.52,0.44-0.56c0.07-0.01,7.01-0.9,11.88-5.32
					c0.21-0.18,0.52-0.17,0.71,0.03c0.19,0.21,0.17,0.52-0.03,0.71c-5.12,4.64-12.14,5.54-12.44,5.58
					C330.16,270.5,330.14,270.51,330.12,270.51z"/>
			</g>
			<g>
				<path class="st7" d="M337.99,275.99c-0.23,0-0.43-0.16-0.49-0.39c-0.06-0.27,0.11-0.54,0.38-0.6c0.05-0.01,5.28-1.28,8.29-7.23
					c0.12-0.25,0.42-0.34,0.67-0.22c0.25,0.12,0.34,0.42,0.22,0.67c-3.22,6.38-8.72,7.7-8.95,7.75
					C338.07,275.99,338.03,275.99,337.99,275.99z"/>
			</g>
			<g>
				<path class="st7" d="M344.14,280.35c-0.2,0-0.39-0.12-0.47-0.33c-0.1-0.26,0.04-0.55,0.29-0.64c0.06-0.02,6.35-2.43,7.52-8.91
					c0.05-0.27,0.31-0.45,0.58-0.4c0.27,0.05,0.45,0.31,0.4,0.58c-1.28,7.05-7.88,9.56-8.16,9.67
					C344.26,280.34,344.2,280.35,344.14,280.35z"/>
			</g>
			<g>
				<path class="st7" d="M354.28,283.25c-0.15,0-0.29-0.06-0.39-0.18c-0.17-0.21-0.14-0.53,0.07-0.7
					c5.71-4.64,5.94-10.14,5.94-10.19c0.01-0.27,0.23-0.49,0.5-0.49c0,0,0.01,0,0.01,0c0.28,0.01,0.49,0.24,0.49,0.51
					c-0.01,0.24-0.22,6-6.31,10.94C354.5,283.21,354.39,283.25,354.28,283.25z"/>
			</g>
			<g>
				<path class="st7" d="M364.38,282.88c-0.11,0-0.22-0.04-0.31-0.11c-0.21-0.17-0.25-0.49-0.07-0.7
					c4.32-5.33,4.62-10.21,4.62-10.26c0.01-0.27,0.22-0.48,0.52-0.47c0.28,0.01,0.49,0.25,0.47,0.52c-0.01,0.21-0.3,5.24-4.84,10.84
					C364.67,282.81,364.52,282.88,364.38,282.88z"/>
			</g>
			<g>
				<path class="st7" d="M385.78,254.91c-0.16,0-0.32-0.08-0.42-0.22c-8.76-13.1-16.52-17.42-16.6-17.46
					c-0.24-0.13-0.33-0.44-0.2-0.68c0.13-0.24,0.43-0.33,0.68-0.2c0.32,0.18,8.04,4.45,16.95,17.79c0.15,0.23,0.09,0.54-0.14,0.69
					C385.98,254.88,385.88,254.91,385.78,254.91z"/>
			</g>
			<g>
				<path class="st7" d="M390.98,266.32c-0.19,0-0.37-0.11-0.45-0.29l-3.76-8.19c-0.12-0.25-0.01-0.55,0.25-0.66
					c0.25-0.12,0.55,0,0.66,0.25l3.76,8.19c0.12,0.25,0.01,0.55-0.25,0.66C391.12,266.3,391.05,266.32,390.98,266.32z"/>
			</g>
			<g>
				<path class="st7" d="M433.2,232.76c-0.08,0-0.15-0.02-0.23-0.05l-8.03-4.1c-0.25-0.13-0.34-0.43-0.22-0.67
					c0.13-0.25,0.43-0.34,0.67-0.22l8.03,4.1c0.25,0.13,0.34,0.43,0.22,0.67C433.56,232.66,433.39,232.76,433.2,232.76z"/>
			</g>
			<g>
				<path class="st7" d="M383.3,300.16c-0.26,0-0.47-0.2-0.5-0.46c-0.02-0.28,0.18-0.52,0.45-0.54c6.25-0.56,12.13-4.81,14.62-10.57
					c0.11-0.25,0.4-0.37,0.66-0.26c0.25,0.11,0.37,0.4,0.26,0.66c-2.63,6.09-8.84,10.58-15.45,11.17
					C383.33,300.16,383.31,300.16,383.3,300.16z"/>
			</g>
			<g>
				<path class="st7" d="M369.8,302.48c-7.98,0-15.85-2.31-22.58-6.69c-0.23-0.15-0.3-0.46-0.15-0.69c0.15-0.23,0.46-0.29,0.69-0.15
					c7.69,5,17.33,7.3,26.46,6.28c0.27-0.03,0.52,0.17,0.55,0.44c0.03,0.27-0.17,0.52-0.44,0.55
					C372.82,302.39,371.31,302.48,369.8,302.48z"/>
			</g>
		</g>
		<g id="Line_00000044880535596597320830000017311885019352141699_">
			<g>
				<path class="st7" d="M209.21,509.78c-0.04,0-0.08,0-0.11-0.01c-2.6-0.61-5.82-2.56-6.75-5.39c-0.4-1.21-0.51-3.06,1.2-5.06
					c2.9-3.4,8.87-4.88,13.09-5.1c0.31-0.02,0.51,0.2,0.53,0.47c0.02,0.28-0.2,0.51-0.47,0.53c-4.35,0.24-9.86,1.8-12.39,4.76
					c-1.13,1.32-1.47,2.7-1.01,4.1c0.77,2.36,3.62,4.16,6.03,4.73c0.27,0.06,0.44,0.33,0.37,0.6
					C209.64,509.62,209.44,509.78,209.21,509.78z"/>
			</g>
			<g>
				<path class="st7" d="M218.39,510.04c-0.23,0-0.44-0.16-0.49-0.39c-0.06-0.27,0.11-0.54,0.38-0.59l3.39-0.74
					c14.66-3.2,29.82-6.5,43.2-11.56c0.26-0.1,0.55,0.03,0.64,0.29c0.1,0.26-0.03,0.55-0.29,0.64c-13.45,5.08-28.65,8.4-43.34,11.6
					l-3.39,0.74C218.46,510.03,218.43,510.04,218.39,510.04z"/>
			</g>
			<g>
				<path class="st7" d="M281.68,490.17c-0.21,0-0.4-0.13-0.47-0.33c-0.09-0.26,0.04-0.55,0.3-0.64
					c6.73-2.41,12.91-6.38,19.45-10.59c7.27-4.67,14.78-9.51,23.1-11.98c0.26-0.08,0.54,0.07,0.62,0.34
					c0.08,0.26-0.07,0.54-0.34,0.62c-8.18,2.42-15.64,7.22-22.84,11.86c-6.3,4.05-12.81,8.24-19.65,10.69
					C281.8,490.16,281.74,490.17,281.68,490.17z"/>
			</g>
			<g>
				<path class="st7" d="M123.81,499.43c-0.04,0-0.09-0.01-0.14-0.02c-3.4-0.96-6.82-2.08-10.18-3.33c-0.26-0.1-0.39-0.38-0.29-0.64
					c0.1-0.26,0.39-0.39,0.64-0.29c3.33,1.24,6.73,2.36,10.1,3.3c0.27,0.08,0.42,0.35,0.35,0.62
					C124.22,499.28,124.02,499.43,123.81,499.43z"/>
			</g>
			<g>
				<path class="st7" d="M187.4,507.02c-0.02,0-0.03,0-0.05,0c-3.98-0.4-7.86-1.26-11.61-2.09c-5.25-1.17-10.67-2.36-16.32-2.25
					c-10.05,0.21-19.7-0.57-28.74-2.31c-0.27-0.05-0.45-0.31-0.4-0.59s0.31-0.45,0.59-0.4c8.97,1.72,18.58,2.5,28.53,2.29
					c5.78-0.1,11.25,1.1,16.55,2.28c3.72,0.83,7.57,1.68,11.49,2.07c0.27,0.03,0.47,0.27,0.45,0.55
					C187.87,506.83,187.66,507.02,187.4,507.02z"/>
			</g>
			<g>
				<path class="st7" d="M233.71,493.23c-0.26,0-0.48-0.21-0.5-0.47c-0.02-0.28,0.2-0.51,0.47-0.53c0.08,0,8.18-0.46,14.23-1.73
					c3.83-0.81,6.6-2.63,8.83-4.09c1.34-0.88,2.49-1.63,3.63-2.04c2.89-1.02,12.19-6.25,12.29-6.3c0.24-0.14,0.54-0.05,0.68,0.19
					s0.05,0.55-0.19,0.68c-0.39,0.22-9.47,5.32-12.44,6.37c-1.02,0.36-2.13,1.09-3.41,1.93c-2.3,1.51-5.16,3.39-9.17,4.24
					c-6.12,1.29-14.3,1.75-14.38,1.75C233.73,493.23,233.72,493.23,233.71,493.23z"/>
			</g>
			<g>
				<path class="st7" d="M276.72,476.81c-0.11,0-0.21-0.03-0.3-0.1c-0.22-0.17-0.26-0.48-0.09-0.7c2.97-3.89,11.34-4.98,11.7-5.03
					c0.27-0.04,0.52,0.16,0.56,0.43c0.03,0.27-0.16,0.52-0.43,0.56c-0.08,0.01-8.31,1.08-11.03,4.64
					C277.02,476.75,276.87,476.81,276.72,476.81z"/>
			</g>
			<g>
				<path class="st7" d="M139.23,487.42c-0.03,0-0.07,0-0.1-0.01c-0.11-0.02-10.64-2.14-14.2-0.97c-2.77,0.91-7.16,0.13-13.03-2.34
					c-2.8-1.18-13.51-4.1-13.62-4.13c-0.27-0.07-0.42-0.35-0.35-0.61s0.34-0.42,0.61-0.35c0.44,0.12,10.89,2.97,13.74,4.17
					c5.65,2.38,9.8,3.15,12.33,2.32c3.8-1.26,14.27,0.85,14.71,0.94c0.27,0.06,0.45,0.32,0.39,0.59
					C139.67,487.26,139.46,487.42,139.23,487.42z"/>
			</g>
			<g>
				<path class="st7" d="M428.99,156.92c-0.16,0-0.31-0.07-0.41-0.21c-1.14-1.59-2.31-3.16-3.48-4.73
					c-2.59-3.49-5.27-7.1-7.61-10.86c-0.15-0.23-0.07-0.54,0.16-0.69c0.23-0.14,0.54-0.07,0.69,0.16c2.32,3.73,4.99,7.32,7.57,10.79
					c1.17,1.58,2.34,3.15,3.49,4.75c0.16,0.22,0.11,0.54-0.11,0.7C429.19,156.89,429.09,156.92,428.99,156.92z"/>
			</g>
			<g>
				<path class="st7" d="M391.54,98.12c-0.11,0-0.22-0.03-0.31-0.11c-1.71-1.33-3.5-2.61-5.23-3.84c-0.91-0.65-1.83-1.3-2.73-1.97
					c-0.22-0.16-0.27-0.48-0.11-0.7c0.16-0.22,0.48-0.27,0.7-0.11c0.9,0.66,1.81,1.31,2.72,1.96c1.74,1.24,3.54,2.53,5.27,3.87
					c0.22,0.17,0.26,0.48,0.09,0.7C391.84,98.06,391.69,98.12,391.54,98.12z"/>
			</g>
			<g>
				<path class="st7" d="M377.68,87.56c-0.2,0-0.38-0.12-0.46-0.31c-4.71-11.64-14.46-19.11-23.88-26.34
					c-3.95-3.03-8.04-6.16-11.74-9.58c-0.2-0.19-0.22-0.5-0.03-0.71c0.19-0.2,0.5-0.21,0.71-0.03c3.67,3.39,7.74,6.51,11.67,9.52
					c9.53,7.31,19.38,14.87,24.2,26.76c0.1,0.26-0.02,0.55-0.28,0.65C377.81,87.55,377.74,87.56,377.68,87.56z"/>
			</g>
			<g>
				<path class="st7" d="M336.18,46.83c-0.11,0-0.22-0.04-0.31-0.11c-0.67-0.53-1.37-1.15-2.11-1.79c-2.06-1.8-4.39-3.84-6.68-4.62
					c-4.21-1.43-8.88,2.04-11.29,4.23c-0.2,0.19-0.52,0.17-0.71-0.03c-0.19-0.2-0.17-0.52,0.03-0.71c2.57-2.34,7.59-6.03,12.28-4.44
					c2.48,0.84,4.89,2.95,7.02,4.81c0.72,0.63,1.42,1.24,2.07,1.76c0.22,0.17,0.25,0.49,0.08,0.7
					C336.47,46.77,336.33,46.83,336.18,46.83z"/>
			</g>
			<g>
				<path class="st7" d="M357.2,80.17c-0.17,0-0.33-0.08-0.43-0.24c-1.5-2.42-8.07-6.59-15.02-11c-4.33-2.75-8.81-5.58-12.37-8.2
					c-9.34-6.87-10.08-10.5-10.11-10.65c-0.05-0.27,0.13-0.53,0.41-0.58c0.26-0.04,0.53,0.13,0.58,0.4
					c0.01,0.06,0.84,3.5,9.72,10.02c3.53,2.59,7.99,5.42,12.31,8.16c7.06,4.47,13.72,8.7,15.34,11.31c0.14,0.24,0.07,0.54-0.16,0.69
					C357.38,80.14,357.29,80.17,357.2,80.17z"/>
			</g>
			<g>
				<path class="st7" d="M393.6,200.58c-0.04,0-0.07,0-0.11-0.01c-2.42-0.56-6.86-2.63-12-5.03c-5.73-2.67-12.23-5.71-17.03-7.11
					c-0.26-0.08-0.42-0.35-0.34-0.62c0.08-0.26,0.35-0.42,0.62-0.34c4.87,1.43,11.41,4.47,17.17,7.17c4.88,2.28,9.49,4.43,11.8,4.96
					c0.27,0.06,0.44,0.33,0.38,0.6C394.03,200.42,393.83,200.58,393.6,200.58z"/>
			</g>
			<g>
				<path class="st7" d="M360.56,186.9c-0.01,0-0.03,0-0.04,0c-2.41-0.21-4.11-0.96-5.21-2.29c-1.96-2.4-1.51-6.27-1.08-10.02
					c0.33-2.82,0.66-5.73,0-7.97c-0.08-0.26,0.07-0.54,0.34-0.62c0.27-0.08,0.54,0.07,0.62,0.34c0.72,2.44,0.38,5.45,0.04,8.37
					c-0.43,3.7-0.83,7.2,0.86,9.27c0.91,1.12,2.39,1.75,4.52,1.93c0.28,0.02,0.48,0.27,0.46,0.54
					C361.04,186.71,360.82,186.9,360.56,186.9z"/>
			</g>
			<g>
				<path class="st7" d="M355.23,160.48c-0.27,0-0.5-0.22-0.5-0.49c-0.12-9.42-1.89-19.04-3.79-28.02
					c-0.06-0.27,0.12-0.54,0.39-0.59c0.26-0.05,0.54,0.11,0.59,0.39c1.91,9.03,3.69,18.71,3.81,28.22
					C355.73,160.25,355.51,160.47,355.23,160.48C355.23,160.48,355.23,160.48,355.23,160.48z"/>
			</g>
			<g>
				<path class="st7" d="M348.61,122.64c-0.21,0-0.4-0.13-0.47-0.34l-4.3-12.91c-0.09-0.26,0.05-0.54,0.32-0.63
					c0.26-0.09,0.54,0.05,0.63,0.32l4.3,12.91c0.09,0.26-0.05,0.54-0.32,0.63C348.71,122.64,348.66,122.64,348.61,122.64z"/>
			</g>
			<g>
				<path class="st7" d="M442.98,296.05c-0.04,0-0.07,0-0.11-0.01c-0.27-0.06-0.44-0.33-0.38-0.6c0.6-2.7,1.15-5.46,1.61-7.84
					c0.05-0.27,0.32-0.46,0.59-0.39c0.27,0.05,0.45,0.32,0.39,0.59c-0.46,2.38-1.01,5.15-1.62,7.87
					C443.42,295.89,443.21,296.05,442.98,296.05z"/>
			</g>
			<g>
				<path class="st7" d="M436.96,310.09c-0.42,0-0.82-0.06-1.19-0.17c-1.93-0.59-3.86-2.94-2.93-7.61c0.05-0.27,0.32-0.44,0.59-0.39
					c0.27,0.05,0.45,0.32,0.39,0.59c-0.66,3.3,0.22,5.84,2.24,6.46c1.83,0.56,4.53-0.59,6.15-4.45c0.11-0.26,0.4-0.38,0.65-0.27
					c0.25,0.11,0.38,0.4,0.27,0.65C441.58,308.59,439.06,310.09,436.96,310.09z"/>
			</g>
			<g>
				<path class="st7" d="M403.71,347.63c-0.17,0-0.34-0.09-0.43-0.25c-0.14-0.24-0.06-0.54,0.18-0.68c5.66-3.26,6.59-5.18,8-8.09
					c1-2.07,2.25-4.64,5.56-8.42c0.6-0.97,1.06-2.27,1.54-3.64c0.71-2.02,1.52-4.31,3.12-6.15c0.18-0.21,0.5-0.23,0.71-0.05
					c0.21,0.18,0.23,0.5,0.05,0.71c-1.48,1.7-2.22,3.8-2.94,5.83c-0.5,1.43-0.98,2.78-1.69,3.9c-3.27,3.75-4.48,6.25-5.46,8.26
					c-1.44,2.96-2.48,5.1-8.4,8.52C403.88,347.61,403.79,347.63,403.71,347.63z"/>
			</g>
			<g>
				<path class="st7" d="M427.6,338.88c-0.08,0-0.16-0.02-0.23-0.06c-0.25-0.13-0.34-0.43-0.21-0.67c1.57-3.02,3.69-5.73,5.92-8.46
					c0.17-0.21,0.49-0.25,0.7-0.07s0.25,0.49,0.07,0.7c-2.27,2.8-4.28,5.35-5.8,8.29C427.95,338.78,427.78,338.88,427.6,338.88z"/>
			</g>
			<g>
				<path class="st7" d="M386.21,408.15c-0.18,0-0.35-0.09-0.44-0.26c-0.13-0.24-0.04-0.55,0.2-0.68c3.1-1.71,6.09-4.18,9.13-7.55
					c0.19-0.2,0.5-0.22,0.71-0.04c0.21,0.18,0.22,0.5,0.04,0.71c-3.12,3.46-6.19,6-9.39,7.76
					C386.37,408.13,386.29,408.15,386.21,408.15z"/>
			</g>
			<g>
				<path class="st7" d="M399.17,393.82c-0.11,0-0.22-0.04-0.31-0.11c-0.21-0.17-0.25-0.49-0.08-0.7
					c6.71-8.35,10.24-17.3,13.65-25.96c2.6-6.6,5.29-13.43,9.37-19.92c0.15-0.23,0.46-0.3,0.69-0.16c0.23,0.15,0.3,0.46,0.16,0.69
					c-4.03,6.42-6.7,13.2-9.29,19.76c-3.44,8.72-6.99,17.74-13.8,26.22C399.46,393.75,399.31,393.82,399.17,393.82z"/>
			</g>
		</g>
		<g id="Dot_00000048493120849453610340000010524575347428313746_">
			<g>
				<path class="st7" d="M343.74,451.49c0.29-1.01,0.96-1.85,1.87-2.35c0.92-0.51,1.98-0.63,2.99-0.34s1.85,0.96,2.35,1.87
					c1.05,1.9,0.36,4.29-1.53,5.34c-0.45,0.25-0.94,0.4-1.43,0.46c-1.54,0.19-3.12-0.56-3.92-2
					C343.57,453.57,343.45,452.5,343.74,451.49z"/>
			</g>
			<g>
				<path class="st7" d="M325.22,449.1c0.3-1.89,2.08-3.19,3.97-2.89c0.92,0.14,1.72,0.64,2.27,1.38s0.77,1.67,0.62,2.58
					c-0.14,0.92-0.64,1.72-1.38,2.27c-0.48,0.35-1.04,0.57-1.62,0.64c-0.32,0.04-0.64,0.03-0.96-0.02
					c-0.92-0.14-1.72-0.64-2.27-1.38C325.3,450.93,325.08,450.02,325.22,449.1z"/>
			</g>
			<g>
				<path class="st7" d="M349.75,433.49c0.22-0.77,0.73-1.41,1.43-1.8c0.7-0.39,1.51-0.48,2.28-0.26c0.77,0.22,1.41,0.73,1.8,1.43
					c0.8,1.45,0.28,3.27-1.17,4.08c-0.34,0.19-0.71,0.31-1.09,0.36c-0.39,0.05-0.8,0.02-1.19-0.1c-0.77-0.22-1.41-0.73-1.8-1.43
					C349.62,435.07,349.53,434.26,349.75,433.49z"/>
			</g>
			<g>
				<path class="st7" d="M428.23,245.45c1.28-1.75,3.74-2.14,5.49-0.87c1.75,1.27,2.14,3.74,0.87,5.49l0,0
					c-0.67,0.92-1.66,1.46-2.71,1.59c-0.95,0.12-1.95-0.11-2.78-0.72C427.35,249.67,426.96,247.2,428.23,245.45z"/>
			</g>
			<g>
				<path class="st7" d="M444.15,239.58c0.89-0.25,1.83-0.15,2.64,0.3c0.81,0.45,1.4,1.19,1.66,2.08c0.26,0.89,0.15,1.83-0.3,2.64
					c-0.45,0.81-1.19,1.4-2.08,1.66c-0.18,0.05-0.36,0.09-0.55,0.11c-1.66,0.2-3.27-0.83-3.75-2.48
					C441.24,242.04,442.31,240.11,444.15,239.58z"/>
			</g>
			<g>
				<path class="st7" d="M432.31,257.9c0.47-0.65,1.17-1.07,1.96-1.2c0.78-0.11,1.58,0.07,2.23,0.54c0.65,0.47,1.07,1.17,1.2,1.96
					c0.13,0.79-0.06,1.58-0.54,2.23l0,0c-0.51,0.7-1.27,1.11-2.07,1.21c-0.73,0.09-1.49-0.09-2.12-0.55
					c-0.65-0.47-1.07-1.17-1.2-1.96S431.83,258.55,432.31,257.9z"/>
			</g>
		</g>
	</g>
</g>
<g id="Guide">
</g>
</svg>
