<?xml version="1.0" encoding="utf-8"?>
<!-- Generator: Adobe Illustrator 26.1.0, SVG Export Plug-In . SVG Version: 6.00 Build 0)  -->
<svg version="1.1" xmlns="http://www.w3.org/2000/svg" xmlns:xlink="http://www.w3.org/1999/xlink" x="0px" y="0px"
	 viewBox="0 0 205.76 621.71" style="enable-background:new 0 0 205.76 621.71;" xml:space="preserve">
<style type="text/css">
	.st0{fill:#FFFFFF;stroke:#000000;stroke-miterlimit:10;}
	.st1{fill:#BFA071;stroke:#554B4E;stroke-width:1.5;stroke-linecap:round;stroke-linejoin:round;stroke-miterlimit:10;}
	.st2{fill:#BFA071;stroke:#554B4E;stroke-linecap:round;stroke-linejoin:round;stroke-miterlimit:10;}
	.st3{fill:#F8F4E9;stroke:#554B4E;stroke-width:1.5;stroke-linecap:round;stroke-linejoin:round;stroke-miterlimit:10;}
	.st4{fill:#F2DED6;stroke:#554B4E;stroke-width:1.5;stroke-linecap:round;stroke-linejoin:round;stroke-miterlimit:10;}
	.st5{fill:none;stroke:#554B4E;stroke-linecap:round;stroke-linejoin:round;stroke-miterlimit:10;}
	.st6{fill:#BFA071;}
	.st7{fill:#554B4E;}
	.st8{fill:#F8F4E9;}
	.st9{fill:none;stroke:#554B4E;stroke-width:1.5;stroke-linecap:round;stroke-linejoin:round;stroke-miterlimit:10;}
	.st10{fill:#F8F4E9;stroke:#554B4E;stroke-linecap:round;stroke-linejoin:round;stroke-miterlimit:10;}
	.st11{fill:#F2DED6;stroke:#554B4E;stroke-linecap:round;stroke-linejoin:round;stroke-miterlimit:10;}
	.st12{clip-path:url(#SVGID_00000083061766392954155160000005919062696735774143_);}
	.st13{fill:none;stroke:#BFA071;stroke-width:1.5;stroke-linecap:round;stroke-linejoin:round;}
	.st14{fill:none;stroke:#BFA071;stroke-width:1.5;stroke-linecap:round;stroke-linejoin:round;stroke-dasharray:68.8403,19.6687;}
	.st15{fill:none;stroke:#BFA071;stroke-width:1.5;stroke-linecap:round;stroke-linejoin:round;stroke-dasharray:71.4455,20.413;}
	.st16{fill:none;stroke:#BFA071;stroke-width:1.5;stroke-linecap:round;stroke-linejoin:round;stroke-dasharray:69.5884,19.8824;}
	.st17{fill:none;stroke:#BFA071;stroke-width:1.5;stroke-linecap:round;stroke-linejoin:round;stroke-dasharray:61.3524,17.5292;}
	.st18{fill:none;stroke:#BFA071;stroke-width:1.5;stroke-linecap:round;stroke-linejoin:round;stroke-dasharray:63.9932,18.2838;}
	.st19{fill:none;stroke:#BFA071;stroke-width:1.5;stroke-linecap:round;stroke-linejoin:round;stroke-dasharray:72.7778,20.7937;}
	.st20{fill:none;stroke:#BFA071;stroke-width:1.5;stroke-linecap:round;stroke-linejoin:round;stroke-dasharray:77.193,22.0551;}
	.st21{fill:none;stroke:#BFA071;stroke-width:1.5;stroke-linecap:round;stroke-linejoin:round;stroke-dasharray:75.3802,21.5372;}
	.st22{fill:none;stroke:#BFA071;stroke-width:1.5;stroke-linecap:round;stroke-linejoin:round;stroke-dasharray:73.6885,21.0538;}
	.st23{fill:none;stroke:#BFA071;stroke-width:1.5;stroke-linecap:round;stroke-linejoin:round;stroke-dasharray:63.3162,18.0903;}
	.st24{fill:none;stroke:#BFA071;stroke-width:1.5;stroke-linecap:round;stroke-linejoin:round;stroke-dasharray:62.0513,17.7289;}
	.st25{fill:none;stroke:#BFA071;stroke-width:1.5;stroke-linecap:round;stroke-linejoin:round;stroke-dasharray:68.9157,19.6902;}
	.st26{fill:none;stroke:#554B4E;stroke-width:1.5;stroke-linecap:round;stroke-linejoin:round;}
	.st27{fill:none;stroke:#554B4E;stroke-width:1.5;stroke-linecap:round;stroke-linejoin:round;stroke-dasharray:15.0532,10.0355;}
	.st28{fill:none;stroke:#554B4E;stroke-width:1.5;stroke-linecap:round;stroke-linejoin:round;stroke-dasharray:14.9985,9.999;}
	.st29{fill:none;stroke:#554B4E;stroke-width:1.5;stroke-linecap:round;stroke-linejoin:round;stroke-dasharray:14.8977,9.9318;}
	.st30{fill:none;stroke:#554B4E;stroke-width:1.5;stroke-linecap:round;stroke-linejoin:round;stroke-dasharray:15.4213,10.2808;}
	.st31{fill:none;stroke:#554B4E;stroke-width:1.5;stroke-linecap:round;stroke-linejoin:round;stroke-dasharray:15.2271,10.1514;}
	.st32{fill:none;stroke:#554B4E;stroke-width:1.5;stroke-linecap:round;stroke-linejoin:round;stroke-dasharray:15.021,10.014;}
	.st33{fill:none;stroke:#554B4E;stroke-width:1.5;stroke-linecap:round;stroke-linejoin:round;stroke-dasharray:15.0727,10.0485;}
	.st34{fill:none;stroke:#554B4E;stroke-width:1.5;stroke-linecap:round;stroke-linejoin:round;stroke-dasharray:14.6942,9.7961;}
	.st35{fill:none;stroke:#554B4E;stroke-width:1.5;stroke-linecap:round;stroke-linejoin:round;stroke-dasharray:14.7469,9.8312;}
	.st36{fill:none;stroke:#554B4E;stroke-width:1.5;stroke-linecap:round;stroke-linejoin:round;stroke-dasharray:15.0819,10.0546;}
	.st37{fill:none;stroke:#554B4E;stroke-width:1.5;stroke-linecap:round;stroke-linejoin:round;stroke-dasharray:15.003,10.002;}
	.st38{fill:#F2DED6;}
	.st39{fill:#F2DED6;stroke:#554B4E;stroke-width:1.5;stroke-linecap:round;stroke-miterlimit:10;}
	.st40{fill:none;stroke:#554B4E;stroke-width:1.5;stroke-linecap:round;stroke-miterlimit:10;}
	.st41{fill:none;stroke:#554B4E;stroke-linecap:round;stroke-miterlimit:10;}
	.st42{fill:none;stroke:#BFA071;stroke-linecap:round;stroke-linejoin:round;}
	.st43{fill:none;stroke:#BFA071;stroke-linecap:round;stroke-linejoin:round;stroke-dasharray:14.9905,14.9905;}
	.st44{fill:none;stroke:#BFA071;stroke-linecap:round;stroke-linejoin:round;stroke-dasharray:51.384,34.256;}
	.st45{fill:none;stroke:#554B4E;stroke-miterlimit:10;}
	.st46{clip-path:url(#SVGID_00000119083929896466191630000001893103252467805581_);}
	.st47{fill:none;stroke:#554B4E;stroke-width:1.5;stroke-linecap:round;stroke-linejoin:round;stroke-dasharray:68.8403,19.6687;}
	.st48{fill:none;stroke:#554B4E;stroke-width:1.5;stroke-linecap:round;stroke-linejoin:round;stroke-dasharray:71.4455,20.413;}
	.st49{fill:none;stroke:#554B4E;stroke-width:1.5;stroke-linecap:round;stroke-linejoin:round;stroke-dasharray:69.5884,19.8824;}
	.st50{fill:none;stroke:#554B4E;stroke-width:1.5;stroke-linecap:round;stroke-linejoin:round;stroke-dasharray:61.3524,17.5292;}
	.st51{fill:none;stroke:#554B4E;stroke-width:1.5;stroke-linecap:round;stroke-linejoin:round;stroke-dasharray:63.9932,18.2838;}
	.st52{fill:none;stroke:#554B4E;stroke-width:1.5;stroke-linecap:round;stroke-linejoin:round;stroke-dasharray:72.7778,20.7937;}
	.st53{fill:none;stroke:#554B4E;stroke-width:1.5;stroke-linecap:round;stroke-linejoin:round;stroke-dasharray:77.193,22.0551;}
	.st54{fill:none;stroke:#554B4E;stroke-width:1.5;stroke-linecap:round;stroke-linejoin:round;stroke-dasharray:75.3802,21.5372;}
	.st55{fill:none;stroke:#554B4E;stroke-width:1.5;stroke-linecap:round;stroke-linejoin:round;stroke-dasharray:73.6885,21.0538;}
	.st56{fill:none;stroke:#554B4E;stroke-width:1.5;stroke-linecap:round;stroke-linejoin:round;stroke-dasharray:63.3162,18.0903;}
	.st57{fill:none;stroke:#554B4E;stroke-width:1.5;stroke-linecap:round;stroke-linejoin:round;stroke-dasharray:62.0513,17.7289;}
	.st58{fill:none;stroke:#554B4E;stroke-width:1.5;stroke-linecap:round;stroke-linejoin:round;stroke-dasharray:68.9157,19.6902;}
	.st59{fill:none;stroke:#554B4E;stroke-linecap:round;stroke-linejoin:round;}
	.st60{fill:none;stroke:#554B4E;stroke-linecap:round;stroke-linejoin:round;stroke-dasharray:14.9905,14.9905;}
	.st61{fill:none;stroke:#554B4E;stroke-linecap:round;stroke-linejoin:round;stroke-dasharray:51.384,34.256;}
	.st62{fill:#95608F;}
	.st63{fill:#ED859E;}
	.st64{fill:#FAC87D;}
	.st65{opacity:0.1;}
	.st66{fill:#B5846F;}
	.st67{fill:#B5846F;stroke:#B5846F;stroke-width:5;stroke-linecap:round;stroke-linejoin:round;stroke-miterlimit:10;}
	.st68{fill:#EAD9EB;}
	.st69{fill:#FFFFFF;}
	.st70{fill:url(#SVGID_00000103224552613895199610000005309907459020011708_);}
	.st71{opacity:0.8;fill:#FFFFFF;}
	.st72{fill:url(#SVGID_00000113313706538431547480000016590052195640492732_);}
	.st73{fill:url(#SVGID_00000012458259284275343830000011412128401530046378_);}
	.st74{opacity:0.8;}
	.st75{opacity:0.6;}
	.st76{opacity:0.2;}
	.st77{fill:none;}
	.st78{fill:url(#SVGID_00000067919266383240820670000007440494606415921064_);}
	.st79{fill:url(#SVGID_00000149362400519302437700000004548239752193133983_);}
	.st80{clip-path:url(#SVGID_00000043418927689324641180000015815005314593351858_);fill:#FFFFFF;}
	.st81{clip-path:url(#SVGID_00000142869251284315537460000008140907398074792866_);fill:#FFFFFF;}
	.st82{clip-path:url(#SVGID_00000183946815504699498810000009201454926473419962_);fill:#FFFFFF;}
	.st83{clip-path:url(#SVGID_00000157284448506246852880000011026795237453019023_);fill:#FFFFFF;}
	.st84{clip-path:url(#SVGID_00000035495446854011833190000014858392681982251936_);fill:#FFFFFF;}
</style>
<g id="Bg">
</g>
<g id="Graphic">
	<g id="Key_00000036956321576415715730000002027248850404474752_">
		<g id="Bow_00000016784621918567278590000008825008199224322738_">
			<path class="st7" d="M102.88,621.71c-9.75,0-17.69-7.93-17.7-17.68c-3.61,4-8.32,7.09-13.49,8.82
				c-18.24,6.11-40.96,0.9-52.83-12.1c-21.15-23.17-24.69-51.77-9.69-78.48c1.49-2.65,3.16-5.3,4.97-7.88
				c-1.85-2.66-3.33-5.55-4.4-8.62c-2.6-7.45-1.64-16.79,2.51-24.37c3.68-6.72,9.31-11.28,15.84-12.84c0.52-0.12,1.07-0.16,1.7-0.12
				l0.06,0c0.21-0.01,0.42-0.03,0.63-0.03c2.93,0,5.66,1.16,7.71,3.26s3.12,4.87,3.04,7.8c-0.16,5.55-4.81,10.23-10.36,10.43
				c-3.05,0.13-6.06-1.12-8.17-3.34c-0.08,0.14-0.17,0.29-0.25,0.43c-2.58,4.71-3.26,10.58-1.73,14.95c0.33,0.95,0.73,1.89,1.2,2.81
				c17.91-19.32,42.62-29.2,64.42-36.96c0.21-0.07,0.43-0.05,0.63,0.06c1.45,0.83,3.08,1.27,4.72,1.27h22.38
				c1.64,0,3.28-0.44,4.72-1.27c0.19-0.11,0.42-0.13,0.63-0.06c21.8,7.76,46.51,17.65,64.42,36.96c0.46-0.92,0.87-1.87,1.2-2.81
				c1.53-4.37,0.85-10.24-1.73-14.95c-0.08-0.15-0.16-0.29-0.25-0.43c-2.11,2.22-5.09,3.47-8.17,3.34
				c-5.55-0.2-10.2-4.88-10.35-10.43c-0.08-2.93,1-5.7,3.04-7.8c2.04-2.1,4.78-3.26,7.71-3.26c0.21,0,0.42,0.01,0.63,0.03l0.06,0
				c0.63-0.04,1.18,0,1.7,0.12c6.54,1.55,12.16,6.11,15.84,12.84c4.15,7.58,5.11,16.92,2.51,24.37c-1.07,3.06-2.55,5.96-4.4,8.62
				c1.82,2.59,3.49,5.24,4.97,7.88c14.99,26.71,11.46,55.31-9.69,78.48c-11.88,13.01-34.59,18.21-52.83,12.1
				c-5.17-1.73-9.88-4.82-13.49-8.82C120.57,613.78,112.63,621.71,102.88,621.71z M86.09,601.02c0.1,0,0.19,0.02,0.29,0.06
				c0.31,0.13,0.5,0.46,0.46,0.79c-0.11,0.82-0.16,1.5-0.16,2.14c0,8.93,7.27,16.2,16.2,16.2s16.2-7.27,16.2-16.2
				c0-0.64-0.05-1.32-0.16-2.14c-0.04-0.34,0.14-0.66,0.46-0.79c0.32-0.13,0.68-0.04,0.88,0.24c3.57,4.64,8.64,8.23,14.28,10.12
				c17.71,5.93,39.75,0.9,51.25-11.69c20.69-22.66,24.15-50.63,9.49-76.73l0,0c-1.56-2.78-3.26-5.46-5.19-8.18
				c-0.19-0.26-0.18-0.61,0-0.87c1.91-2.66,3.43-5.58,4.51-8.67c2.47-7.06,1.54-15.94-2.41-23.16c-3.47-6.35-8.75-10.65-14.87-12.1
				c-0.38-0.09-0.8-0.12-1.3-0.08c-0.04,0-0.07,0-0.1,0l-0.12-0.01c-0.17-0.01-0.35-0.03-0.53-0.03c-2.52,0-4.87,1-6.63,2.81
				c-1.76,1.81-2.69,4.19-2.61,6.71c0.14,4.78,4.13,8.8,8.91,8.97c3.01,0.13,5.77-1.19,7.62-3.57c0.15-0.19,0.41-0.31,0.62-0.29
				c0.24,0.01,0.46,0.14,0.6,0.34c0.29,0.44,0.57,0.9,0.83,1.39c2.77,5.07,3.49,11.41,1.83,16.16c-0.47,1.35-1.07,2.68-1.79,3.98
				c-0.12,0.21-0.33,0.35-0.57,0.38c-0.23,0.03-0.48-0.06-0.64-0.24c-17.65-19.48-42.36-29.44-64.21-37.23
				c-1.6,0.85-3.38,1.3-5.17,1.3H91.69c-1.79,0-3.57-0.45-5.17-1.3c-21.85,7.79-46.56,17.75-64.21,37.23
				c-0.16,0.18-0.4,0.26-0.64,0.24c-0.24-0.03-0.45-0.17-0.57-0.38c-0.72-1.29-1.32-2.63-1.79-3.98c-1.66-4.75-0.94-11.1,1.83-16.16
				c0.26-0.48,0.54-0.94,0.83-1.39c0.13-0.2,0.35-0.33,0.6-0.34c0.22-0.03,0.47,0.1,0.62,0.29c1.83,2.34,4.71,3.67,7.62,3.57
				c4.78-0.17,8.77-4.2,8.91-8.97c0.07-2.52-0.86-4.9-2.61-6.71c-1.76-1.81-4.12-2.81-6.63-2.81c-0.18,0-0.35,0.01-0.53,0.03
				l-0.12,0.01c-0.03,0-0.07,0-0.1,0c-0.5-0.04-0.91-0.01-1.3,0.08c-6.12,1.46-11.4,5.75-14.87,12.1
				c-3.95,7.22-4.87,16.09-2.41,23.16c1.08,3.1,2.6,6.01,4.51,8.67c0.19,0.26,0.19,0.61,0,0.87c-1.9,2.67-3.65,5.42-5.19,8.18
				c-14.66,26.11-11.2,54.07,9.49,76.73c11.51,12.6,33.54,17.62,51.25,11.69c5.64-1.89,10.71-5.48,14.28-10.12
				C85.64,601.12,85.86,601.02,86.09,601.02z M102.88,611.95c-4.38,0-7.94-3.56-7.94-7.94s3.56-7.94,7.94-7.94s7.94,3.56,7.94,7.94
				S107.26,611.95,102.88,611.95z M102.88,597.57c-3.55,0-6.44,2.89-6.44,6.44s2.89,6.44,6.44,6.44s6.44-2.89,6.44-6.44
				S106.43,597.57,102.88,597.57z M150,605.2c-4.39,0-8.74-0.63-12.71-1.96c-5.86-1.96-10.61-6.3-12.71-11.61
				c-1.14-2.89-1.97-7.32,0.58-12.05c1.82-3.38,4.92-5.94,8.98-7.4c0.23-0.08,0.49-0.05,0.69,0.09s0.32,0.37,0.32,0.61
				c0,6.12,4.98,11.09,11.1,11.09c3.69,0,7.13-1.83,9.21-4.91c0.17-0.25,0.47-0.38,0.78-0.31c0.3,0.06,0.53,0.3,0.58,0.6
				c0.11,0.61,0.34,1.17,0.68,1.67c5.59,8.1,19.53,6.53,27.54,3.51c0.3-0.11,0.65-0.02,0.85,0.23c0.2,0.25,0.22,0.61,0.04,0.88
				c-1.92,2.87-4.1,5.65-6.49,8.27l0,0C172.91,601.04,161.29,605.2,150,605.2z M133.68,573.96c-3.23,1.37-5.71,3.54-7.21,6.32
				c-2.27,4.23-1.53,8.2-0.5,10.79c1.94,4.9,6.35,8.92,11.8,10.74c13.69,4.58,31.87,0.58,40.54-8.92l0,0
				c1.81-1.99,3.5-4.07,5.04-6.2c-13.34,4.3-23.32,0.66-27.1-4.83c-0.17-0.25-0.33-0.52-0.46-0.79c-2.38,2.78-5.86,4.4-9.56,4.4
				C139.65,585.47,134.23,580.4,133.68,573.96z M178.86,593.41L178.86,593.41L178.86,593.41z M55.76,605.2
				c-11.3,0-22.91-4.16-29.42-11.29c-2.4-2.62-4.58-5.41-6.49-8.27c-0.18-0.27-0.17-0.63,0.04-0.88c0.2-0.25,0.55-0.35,0.85-0.23
				c8.01,3.02,21.95,4.59,27.54-3.51c0.34-0.49,0.57-1.05,0.68-1.67c0.05-0.3,0.29-0.54,0.58-0.6c0.29-0.06,0.6,0.06,0.77,0.31
				c2.08,3.07,5.52,4.91,9.21,4.91c6.12,0,11.1-4.98,11.1-11.09c0-0.24,0.12-0.47,0.32-0.61c0.2-0.14,0.46-0.17,0.69-0.09
				c4.05,1.46,7.16,4.02,8.98,7.4c2.55,4.73,1.72,9.17,0.58,12.05l0,0c-2.1,5.31-6.86,9.65-12.71,11.61
				C64.5,604.57,60.15,605.2,55.76,605.2z M22.41,586.7c1.54,2.14,3.23,4.22,5.04,6.21c8.67,9.5,26.87,13.5,40.55,8.92
				c5.44-1.82,9.85-5.84,11.8-10.74l0,0c1.03-2.59,1.77-6.56-0.5-10.79c-1.5-2.78-3.98-4.96-7.21-6.32
				c-0.55,6.44-5.97,11.51-12.55,11.51c-3.7,0-7.17-1.62-9.56-4.4c-0.13,0.28-0.28,0.54-0.46,0.79
				C45.72,587.35,35.75,590.99,22.41,586.7z M80.49,591.35L80.49,591.35L80.49,591.35z M114.85,592.77c-0.19,0-0.39-0.08-0.53-0.22
				c-3.06-3.06-7.13-4.75-11.44-4.75s-8.38,1.69-11.44,4.75c-0.24,0.24-0.61,0.29-0.9,0.12c-0.29-0.17-0.44-0.51-0.35-0.84
				c1.44-5.63,0.77-11.29-1.96-16.36c-3.32-6.18-9.58-10.73-17.16-12.48c-0.38-0.09-0.62-0.44-0.58-0.82
				c0.05-0.38,0.35-0.7,0.76-0.66c0.74,0.02,1.53,0.03,2.33,0c14.12-0.48,28.44-8.29,28.5-22.29c0.03-7.4-5.31-14.07-11.91-14.88
				c-0.58-0.07-1.16-0.03-1.73,0.14c-0.06,0.02-0.12,0.03-0.18,0.03c-4.96,0.22-8.84,4.28-8.84,9.23c0,5.1,4.15,9.25,9.25,9.25
				c0.98,0,1.96-0.16,2.9-0.47c0.28-0.1,0.6-0.01,0.8,0.21c0.2,0.22,0.25,0.54,0.12,0.82c-1.01,2.17-2.8,3.99-5.46,5.56
				c-3.71,2.2-8.85,3.61-13.76,3.77c-9.37,0.33-20.64-3.65-24.28-15.81c-0.67-2.24-1.11-4.54-1.29-6.85
				c-0.02-0.21,0.05-0.42,0.2-0.57c0.14-0.15,0.31-0.22,0.56-0.24c10.75,0.12,21.46-3.33,29.41-9.38
				c11.75-8.93,20.25-27.64,24.29-42.17c0.09-0.32,0.39-0.55,0.72-0.55s0.63,0.22,0.72,0.55c4.04,14.53,12.54,33.25,24.29,42.18
				c7.95,6.04,18.64,9.49,29.41,9.38c0.16,0,0.41,0.09,0.56,0.24c0.14,0.15,0.21,0.36,0.2,0.57c-0.19,2.3-0.62,4.6-1.3,6.85
				c-3.64,12.17-14.95,16.16-24.28,15.81c-4.91-0.17-10.05-1.58-13.76-3.77c-2.66-1.57-4.44-3.39-5.46-5.56
				c-0.13-0.27-0.08-0.59,0.12-0.82c0.2-0.22,0.51-0.31,0.8-0.21c0.95,0.31,1.93,0.47,2.9,0.47c5.1,0,9.25-4.15,9.25-9.25
				c0-4.95-3.88-9.01-8.84-9.23c-0.06,0-0.12-0.01-0.18-0.03c-0.56-0.17-1.15-0.21-1.73-0.14c-6.6,0.81-11.95,7.49-11.91,14.88
				c0.06,14,14.39,21.81,28.5,22.29c0.8,0.03,1.58,0.01,2.32,0c0.38-0.04,0.71,0.27,0.76,0.66s-0.2,0.74-0.58,0.82
				c-7.58,1.76-13.83,6.31-17.16,12.48l0,0c-2.73,5.07-3.4,10.73-1.96,16.36c0.08,0.33-0.06,0.67-0.35,0.84
				C115.11,592.74,114.98,592.77,114.85,592.77z M75.76,562.89c6.02,2.38,10.91,6.56,13.78,11.88c2.55,4.74,3.42,9.95,2.56,15.21
				c3.08-2.38,6.83-3.67,10.78-3.67s7.7,1.29,10.78,3.67c-0.86-5.25,0.01-10.47,2.56-15.21l0,0c2.86-5.32,7.76-9.5,13.78-11.88
				c-12.26-1.04-24.17-7.39-27.12-18.38C99.93,555.5,88.02,561.85,75.76,562.89z M49.27,530.91c0.21,1.93,0.6,3.85,1.16,5.73
				c3.4,11.35,13.98,15.06,22.79,14.74c4.67-0.16,9.55-1.49,13.05-3.57c1.75-1.04,3.07-2.17,4-3.45c-0.53,0.08-1.06,0.12-1.6,0.12
				c-5.93,0-10.75-4.82-10.75-10.75c0-5.73,4.47-10.42,10.18-10.72c0.73-0.2,1.49-0.25,2.24-0.16c5.83,0.71,10.77,5.5,12.54,11.51
				c1.77-6.01,6.71-10.8,12.54-11.51c0.75-0.1,1.51-0.04,2.24,0.16c5.72,0.3,10.18,4.99,10.18,10.72c0,5.93-4.82,10.75-10.75,10.75
				c-0.53,0-1.07-0.04-1.6-0.12c0.93,1.28,2.25,2.41,4,3.45c3.5,2.07,8.38,3.41,13.04,3.56c8.79,0.33,19.39-3.39,22.79-14.74
				c0.56-1.88,0.95-3.8,1.16-5.73c-10.78-0.09-21.49-3.6-29.5-9.68c-13.72-10.43-21.31-31.31-24.11-40.49
				c-2.79,9.18-10.39,30.06-24.11,40.49C70.76,527.31,60.05,530.82,49.27,530.91z M175.08,578.12c-0.21,0-0.42-0.09-0.56-0.26
				c-0.16-0.19-0.22-0.44-0.16-0.68c0.21-0.79,0.31-1.57,0.31-2.33c0-5.1-4.15-9.25-9.25-9.25c-2.95,0-5.66,1.37-7.43,3.76
				c-0.16,0.22-0.43,0.33-0.71,0.3c-0.27-0.04-0.5-0.23-0.6-0.49c-1.9-5.36-7.73-8.57-13.44-6.98c-0.08,0.02-0.16,0.04-0.23,0.03
				c-0.44-0.02-0.87-0.02-1.31-0.01h-0.11c0,0,0,0,0,0c-0.38,0-0.71-0.29-0.75-0.67c-0.04-0.38,0.21-0.73,0.59-0.81
				c7.84-1.65,14.59-5.89,19.02-11.92c0.16-0.22,0.42-0.34,0.7-0.3c0.27,0.04,0.5,0.21,0.6,0.47c0.66,1.67,1.79,3.11,3.27,4.15
				c0.03,0.02,0.1,0.08,0.13,0.11c4.59,3.36,8.81,3.13,11.53,2.33c7.81-2.27,11.83-11.19,12.87-13.87c0.54-1.4,0.98-2.81,1.33-4.33
				c0.08-0.32,0.36-0.56,0.69-0.58c0.32-0.03,0.64,0.19,0.75,0.5c2.01,5.7,3.07,11.51,3.16,17.28c0,0.07-0.01,0.15-0.03,0.22
				c-0.06,0.2-0.12,0.41-0.14,0.62l0,0c-1.29,9.86-4.22,15.63-9.78,19.31c-2.52,1.66-6.29,2.91-10.35,3.41
				C175.14,578.12,175.11,578.12,175.08,578.12z M165.42,564.1c5.93,0,10.75,4.82,10.75,10.75c0,0.54-0.04,1.08-0.13,1.63
				c3.39-0.54,6.57-1.65,8.66-3.03c5.16-3.41,7.89-8.86,9.12-18.25c0,0,0,0,0,0c0.03-0.25,0.09-0.49,0.16-0.73
				c-0.08-4.77-0.85-9.58-2.29-14.33c-0.22,0.7-0.46,1.4-0.73,2.09c-1.11,2.84-5.38,12.3-13.85,14.77
				c-3.04,0.89-7.75,1.16-12.88-2.6c-0.03-0.02-0.1-0.08-0.12-0.11c-1.32-0.93-2.42-2.17-3.2-3.62c-3.4,4.25-7.93,7.57-13.16,9.68
				c4.27,0.52,8.01,3.22,9.86,7.12C159.63,565.35,162.47,564.1,165.42,564.1z M30.67,578.12c-0.03,0-0.06,0-0.09-0.01
				c-4.05-0.5-7.82-1.75-10.35-3.41c-5.56-3.67-8.49-9.44-9.78-19.31c-0.03-0.22-0.09-0.42-0.14-0.63
				c-0.02-0.07-0.03-0.14-0.03-0.21c0.08-5.76,1.15-11.58,3.16-17.28c0.11-0.31,0.38-0.53,0.75-0.5c0.33,0.02,0.61,0.25,0.69,0.58
				c0.35,1.5,0.78,2.92,1.33,4.32c1.04,2.68,5.06,11.6,12.87,13.87c2.72,0.79,6.94,1.03,11.57-2.37c0.01,0,0.08-0.07,0.08-0.07
				c1.48-1.04,2.61-2.48,3.27-4.15c0.1-0.25,0.33-0.43,0.6-0.47c0.27-0.04,0.54,0.08,0.7,0.3c4.43,6.03,11.18,10.27,19.02,11.92
				c0.38,0.08,0.63,0.43,0.59,0.81c-0.04,0.38-0.36,0.67-0.75,0.67c0,0,0,0,0,0h-0.11c-0.44,0-0.87,0-1.31,0.01
				c-0.07,0.01-0.16-0.01-0.23-0.03c-0.99-0.28-2-0.42-2.99-0.42c-4.68,0-8.88,2.97-10.45,7.4c-0.09,0.26-0.32,0.45-0.6,0.49
				c-0.28,0.04-0.55-0.07-0.71-0.3c-1.77-2.39-4.48-3.76-7.43-3.76c-5.1,0-9.25,4.15-9.25,9.25c0,0.76,0.1,1.54,0.31,2.33
				c0.06,0.24,0,0.5-0.16,0.68C31.09,578.03,30.89,578.12,30.67,578.12z M11.78,554.48c0.07,0.24,0.12,0.48,0.16,0.73l0,0
				c1.23,9.38,3.96,14.84,9.12,18.25c2.09,1.38,5.27,2.48,8.66,3.03c-0.09-0.55-0.13-1.09-0.13-1.63c0-5.93,4.82-10.75,10.75-10.75
				c2.95,0,5.79,1.25,7.81,3.39c1.85-3.91,5.59-6.6,9.86-7.12c-5.23-2.12-9.76-5.43-13.16-9.68c-0.79,1.45-1.9,2.7-3.26,3.66
				c-5.19,3.81-9.9,3.55-12.94,2.66c-8.47-2.46-12.74-11.93-13.85-14.77c-0.27-0.69-0.51-1.38-0.73-2.09
				C12.63,544.9,11.86,549.71,11.78,554.48z M26.39,542.03c-0.27,0-0.52-0.14-0.65-0.38c-0.57-0.99-1.07-2.03-1.49-3.1
				c-1.17-2.99-1.67-6.04-1.64-9.92c0.01-0.86,0.39-3.22,0.81-5.64c0.04-0.25,0.21-0.46,0.44-0.56c0.23-0.1,0.5-0.08,0.71,0.06
				c3.2,2.13,6.8,3.8,10.67,4.97c0.93,0.28,1.94,0.54,3.11,0.8c0.33,0.07,0.57,0.36,0.58,0.7c0.09,2.32,0.4,4.72,0.92,7.16
				c0.06,0.27-0.04,0.55-0.25,0.73c-0.21,0.18-0.51,0.23-0.76,0.12c-1.11-0.45-2.26-0.67-3.44-0.67c-3.54,0-6.81,2.07-8.34,5.28
				c-0.12,0.25-0.37,0.42-0.65,0.43C26.41,542.03,26.4,542.03,26.39,542.03z M24.71,524.37c-0.25,1.5-0.59,3.62-0.59,4.28
				c-0.03,3.67,0.44,6.56,1.54,9.36c0.23,0.58,0.48,1.16,0.76,1.71c1.97-3.02,5.37-4.9,9-4.9c0.92,0,1.84,0.12,2.73,0.36
				c-0.35-1.88-0.57-3.75-0.67-5.56c-0.97-0.23-1.84-0.46-2.65-0.7C31.18,527.82,27.78,526.29,24.71,524.37z M179.37,542.03
				c-0.01,0-0.02,0-0.03,0c-0.28-0.01-0.53-0.17-0.65-0.43c-1.53-3.21-4.81-5.28-8.34-5.28c-1.18,0-2.33,0.23-3.44,0.67
				c-0.26,0.11-0.55,0.06-0.76-0.12c-0.21-0.18-0.31-0.46-0.25-0.73c0.52-2.44,0.83-4.85,0.92-7.16c0.01-0.34,0.25-0.63,0.58-0.7
				c1.17-0.26,2.18-0.52,3.11-0.8c3.88-1.17,7.47-2.84,10.67-4.97c0.21-0.14,0.48-0.17,0.71-0.06c0.23,0.1,0.4,0.31,0.44,0.56
				c0.39,2.3,0.8,4.77,0.81,5.64c0.03,3.87-0.47,6.92-1.64,9.92c-0.42,1.08-0.92,2.12-1.49,3.1
				C179.88,541.89,179.64,542.03,179.37,542.03z M170.35,534.82c3.63,0,7.03,1.88,9,4.9c0.27-0.56,0.53-1.13,0.76-1.71
				c1.09-2.8,1.57-5.69,1.54-9.36c0-0.66-0.34-2.78-0.59-4.28c-3.08,1.92-6.47,3.44-10.11,4.54c-0.81,0.24-1.68,0.48-2.66,0.7
				c-0.09,1.81-0.32,3.68-0.67,5.56C168.51,534.94,169.42,534.82,170.35,534.82z M156.51,520.81
				C156.51,520.81,156.51,520.81,156.51,520.81c-8.67-0.06-16.98-2.78-23.39-7.66c-9.36-7.11-16.86-23.26-20.44-34.93
				c-0.09-0.28,0-0.59,0.23-0.79c0.22-0.2,0.54-0.24,0.81-0.11c24.27,11.43,39.72,26.54,43.52,42.56c0.05,0.22,0,0.46-0.14,0.64
				C156.96,520.71,156.74,520.81,156.51,520.81z M114.64,479.43c4.68,14.41,12.2,27.07,19.39,32.54c5.83,4.43,13.62,7.08,21.52,7.33
				C151.57,504.41,137.11,490.33,114.64,479.43z M49.24,520.81c-0.23,0-0.44-0.1-0.59-0.28c-0.14-0.18-0.2-0.42-0.14-0.64
				c3.8-16.02,19.25-31.14,43.52-42.56c0.27-0.13,0.58-0.08,0.81,0.11c0.22,0.19,0.31,0.5,0.23,0.79
				c-3.58,11.67-11.07,27.82-20.44,34.93C66.22,518.03,57.92,520.75,49.24,520.81C49.25,520.81,49.25,520.81,49.24,520.81z
				 M91.12,479.43c-22.47,10.9-36.93,24.99-40.91,39.87c7.9-0.26,15.69-2.9,21.52-7.33C78.93,506.49,86.44,493.84,91.12,479.43z
				 M166.67,519.54c-0.14,0-0.27-0.04-0.39-0.11c-0.18-0.11-0.3-0.28-0.34-0.48c-1.71-8.1-5.83-15.98-12.25-23.43
				c-0.24-0.28-0.24-0.69-0.01-0.97c0.23-0.28,0.64-0.35,0.96-0.17c9.42,5.52,17.03,11.68,23.27,18.83c0.14,0.16,0.2,0.36,0.18,0.57
				c-0.02,0.21-0.13,0.39-0.29,0.52c-2.82,2.15-6.11,3.8-9.77,4.9c-0.27,0.08-0.54,0.15-0.81,0.22l-0.35,0.09
				C166.8,519.53,166.73,519.54,166.67,519.54z M157.56,497.92c4.85,6.4,8.09,13.08,9.67,19.94c0.12-0.03,0.23-0.06,0.35-0.1
				c3.21-0.97,6.12-2.37,8.65-4.18C171.04,507.76,164.9,502.61,157.56,497.92z M39.09,519.54c-0.06,0-0.13-0.01-0.19-0.03
				l-0.35-0.09c-0.27-0.07-0.54-0.14-0.81-0.22c-3.66-1.1-6.94-2.75-9.77-4.9c-0.17-0.13-0.27-0.31-0.29-0.52
				c-0.02-0.21,0.04-0.41,0.18-0.57c6.24-7.16,13.85-13.32,23.27-18.83c0.31-0.18,0.72-0.11,0.96,0.17
				c0.23,0.28,0.23,0.69-0.01,0.97c-6.42,7.45-10.54,15.33-12.25,23.43c-0.04,0.2-0.17,0.38-0.34,0.48
				C39.36,519.5,39.23,519.54,39.09,519.54z M29.53,513.58c2.53,1.81,5.43,3.21,8.64,4.18c0.12,0.04,0.24,0.07,0.35,0.1
				c1.57-6.85,4.82-13.54,9.67-19.94C40.85,502.61,34.71,507.76,29.53,513.58z"/>
		</g>
		<g id="Blade_00000010287245315121380080000011533729734486276504_">
			<g>
				<g>
					<path class="st7" d="M113.61,379.98H91.28c-0.41,0-0.74-0.32-0.75-0.73l-5.15-192.38c0-0.2,0.07-0.4,0.21-0.54
						c0.14-0.14,0.33-0.23,0.54-0.23h33.49c0.2,0,0.4,0.08,0.54,0.23c0.14,0.15,0.22,0.34,0.21,0.54l-6.01,192.38
						C114.35,379.66,114.02,379.98,113.61,379.98z M92.01,378.48h20.87l5.96-190.88H86.9L92.01,378.48z"/>
				</g>
				<g>
					<path class="st7" d="M102.88,379.73c-0.28,0-0.5-0.22-0.5-0.5V186.85c0-0.28,0.22-0.5,0.5-0.5s0.5,0.22,0.5,0.5v192.38
						C103.38,379.51,103.15,379.73,102.88,379.73z"/>
				</g>
				<g>
					<path class="st7" d="M97.58,379.73c-0.27,0-0.5-0.22-0.5-0.49l-3.15-192.38c0-0.28,0.22-0.5,0.49-0.51c0,0,0,0,0.01,0
						c0.27,0,0.5,0.22,0.5,0.49l3.15,192.38C98.09,379.5,97.87,379.73,97.58,379.73C97.59,379.73,97.59,379.73,97.58,379.73z"/>
				</g>
				<g>
					<path class="st7" d="M108.46,379.73C108.46,379.73,108.45,379.73,108.46,379.73c-0.29,0-0.5-0.23-0.5-0.51l3.44-192.38
						c0-0.27,0.23-0.49,0.5-0.49c0,0,0.01,0,0.01,0c0.28,0,0.5,0.23,0.49,0.51l-3.44,192.38
						C108.96,379.51,108.73,379.73,108.46,379.73z"/>
				</g>
			</g>
			<g>
				<g>
					<path class="st7" d="M112.13,391.72h-18.5c-3.65,0-6.62-2.97-6.62-6.62s2.97-6.62,6.62-6.62h18.5c3.65,0,6.62,2.97,6.62,6.62
						S115.78,391.72,112.13,391.72z M93.63,379.98c-2.82,0-5.12,2.3-5.12,5.12s2.3,5.12,5.12,5.12h18.5c2.82,0,5.12-2.3,5.12-5.12
						s-2.3-5.12-5.12-5.12H93.63z"/>
				</g>
				<g>
					<path class="st7" d="M115.11,397.5H90.65c-2.01,0-3.64-1.63-3.64-3.64c0-2.01,1.63-3.64,3.64-3.64h24.46
						c2.01,0,3.64,1.63,3.64,3.64C118.75,395.87,117.11,397.5,115.11,397.5z M90.65,391.72c-1.18,0-2.14,0.96-2.14,2.14
						c0,1.18,0.96,2.14,2.14,2.14h24.46c1.18,0,2.14-0.96,2.14-2.14c0-1.18-0.96-2.14-2.14-2.14H90.65z"/>
				</g>
				<g>
					<path class="st7" d="M112.13,409.24h-18.5c-3.65,0-6.62-2.97-6.62-6.62s2.97-6.62,6.62-6.62h18.5c3.65,0,6.62,2.97,6.62,6.62
						S115.78,409.24,112.13,409.24z M93.63,397.5c-2.82,0-5.12,2.3-5.12,5.12s2.3,5.12,5.12,5.12h18.5c2.82,0,5.12-2.3,5.12-5.12
						s-2.3-5.12-5.12-5.12H93.63z"/>
				</g>
				<g>
					<path class="st7" d="M115.11,415.02H90.65c-2.01,0-3.64-1.63-3.64-3.64c0-2.01,1.63-3.64,3.64-3.64h24.46
						c2.01,0,3.64,1.63,3.64,3.64C118.75,413.38,117.11,415.02,115.11,415.02z M90.65,409.24c-1.18,0-2.14,0.96-2.14,2.14
						c0,1.18,0.96,2.14,2.14,2.14h24.46c1.18,0,2.14-0.96,2.14-2.14c0-1.18-0.96-2.14-2.14-2.14H90.65z"/>
				</g>
				<g>
					<path class="st7" d="M112.13,426.75h-18.5c-3.65,0-6.62-2.97-6.62-6.62s2.97-6.62,6.62-6.62h18.5c3.65,0,6.62,2.97,6.62,6.62
						S115.78,426.75,112.13,426.75z M93.63,415.02c-2.82,0-5.12,2.3-5.12,5.12s2.3,5.12,5.12,5.12h18.5c2.82,0,5.12-2.3,5.12-5.12
						s-2.3-5.12-5.12-5.12H93.63z"/>
				</g>
				<g>
					<path class="st7" d="M112.13,444.27h-18.5c-3.65,0-6.62-2.97-6.62-6.62s2.97-6.62,6.62-6.62h18.5c3.65,0,6.62,2.97,6.62,6.62
						S115.78,444.27,112.13,444.27z M93.63,432.54c-2.82,0-5.12,2.3-5.12,5.12s2.3,5.12,5.12,5.12h18.5c2.82,0,5.12-2.3,5.12-5.12
						s-2.3-5.12-5.12-5.12H93.63z"/>
				</g>
				<g>
					<path class="st7" d="M115.11,432.54H90.65c-2.01,0-3.64-1.63-3.64-3.64c0-2.01,1.63-3.64,3.64-3.64h24.46
						c2.01,0,3.64,1.63,3.64,3.64C118.75,430.9,117.11,432.54,115.11,432.54z M90.65,426.75c-1.18,0-2.14,0.96-2.14,2.14
						c0,1.18,0.96,2.14,2.14,2.14h24.46c1.18,0,2.14-0.96,2.14-2.14c0-1.18-0.96-2.14-2.14-2.14H90.65z"/>
				</g>
				<g>
					<path class="st7" d="M115.11,450.05H90.65c-2.01,0-3.64-1.63-3.64-3.64c0-2.01,1.63-3.64,3.64-3.64h24.46
						c2.01,0,3.64,1.63,3.64,3.64C118.75,448.42,117.11,450.05,115.11,450.05z M90.65,444.27c-1.18,0-2.14,0.96-2.14,2.14
						c0,1.18,0.96,2.14,2.14,2.14h24.46c1.18,0,2.14-0.96,2.14-2.14c0-1.18-0.96-2.14-2.14-2.14H90.65z"/>
				</g>
				<g>
					<path class="st7" d="M114.07,470.62H91.69c-1.91,0-3.8-0.51-5.47-1.47c-3.43-1.98-5.56-5.64-5.56-9.56
						c0-6.08,4.95-11.03,11.03-11.03h22.38c6.08,0,11.03,4.95,11.03,11.03c0,3.92-2.13,7.58-5.56,9.56
						C117.87,470.11,115.98,470.62,114.07,470.62z M91.69,450.05c-5.26,0-9.53,4.28-9.53,9.53c0,3.39,1.84,6.55,4.81,8.26
						c1.45,0.83,3.08,1.27,4.72,1.27h22.38c1.64,0,3.28-0.44,4.72-1.27c2.97-1.71,4.81-4.87,4.81-8.26c0-5.26-4.28-9.53-9.53-9.53
						H91.69z"/>
				</g>
			</g>
		</g>
		<g id="Tip_00000067224787054329907330000010674384316428778149_">
			<g>
				<path class="st7" d="M112.13,149.52h-18.5c-3.65,0-6.62-2.97-6.62-6.62s2.97-6.62,6.62-6.62h18.5c3.65,0,6.62,2.97,6.62,6.62
					S115.78,149.52,112.13,149.52z M93.63,137.78c-2.82,0-5.12,2.3-5.12,5.12s2.3,5.12,5.12,5.12h18.5c2.82,0,5.12-2.3,5.12-5.12
					s-2.3-5.12-5.12-5.12H93.63z"/>
			</g>
			<g>
				<path class="st7" d="M115.11,155.3H90.65c-2.01,0-3.64-1.63-3.64-3.64c0-2.01,1.63-3.64,3.64-3.64h24.46
					c2.01,0,3.64,1.63,3.64,3.64C118.75,153.67,117.11,155.3,115.11,155.3z M90.65,149.52c-1.18,0-2.14,0.96-2.14,2.14
					c0,1.18,0.96,2.14,2.14,2.14h24.46c1.18,0,2.14-0.96,2.14-2.14c0-1.18-0.96-2.14-2.14-2.14H90.65z"/>
			</g>
			<g>
				<path class="st7" d="M112.13,167.04h-18.5c-3.65,0-6.62-2.97-6.62-6.62s2.97-6.62,6.62-6.62h18.5c3.65,0,6.62,2.97,6.62,6.62
					S115.78,167.04,112.13,167.04z M93.63,155.3c-2.82,0-5.12,2.3-5.12,5.12s2.3,5.12,5.12,5.12h18.5c2.82,0,5.12-2.3,5.12-5.12
					s-2.3-5.12-5.12-5.12H93.63z"/>
			</g>
			<g>
				<path class="st7" d="M115.64,187.6H90.11c-6.08,0-11.03-4.95-11.03-11.03s4.95-11.03,11.03-11.03h25.53
					c6.08,0,11.03,4.95,11.03,11.03S121.73,187.6,115.64,187.6z M90.11,167.04c-5.26,0-9.53,4.28-9.53,9.53s4.28,9.53,9.53,9.53
					h25.53c5.26,0,9.53-4.28,9.53-9.53s-4.28-9.53-9.53-9.53H90.11z"/>
			</g>
			<g>
				<path class="st7" d="M112.13,23.57h-18.5c-3.65,0-6.62-2.97-6.62-6.62s2.97-6.62,6.62-6.62h18.5c3.65,0,6.62,2.97,6.62,6.62
					S115.78,23.57,112.13,23.57z M93.63,11.83c-2.82,0-5.12,2.3-5.12,5.12s2.3,5.12,5.12,5.12h18.5c2.82,0,5.12-2.3,5.12-5.12
					s-2.3-5.12-5.12-5.12H93.63z"/>
			</g>
			<g>
				<path class="st7" d="M115.27,11.83H90.48c-3.26,0-5.92-2.65-5.92-5.92S87.22,0,90.48,0h24.79c3.26,0,5.92,2.65,5.92,5.92
					S118.53,11.83,115.27,11.83z M90.48,1.5c-2.43,0-4.42,1.98-4.42,4.42s1.98,4.42,4.42,4.42h24.79c2.43,0,4.42-1.98,4.42-4.42
					s-1.98-4.42-4.42-4.42H90.48z"/>
			</g>
			<g>
				<path class="st7" d="M113.47,137.78H92.29c-0.41,0-0.75-0.34-0.75-0.75V22.82c0-0.41,0.34-0.75,0.75-0.75h21.18
					c0.41,0,0.75,0.34,0.75,0.75v114.21C114.22,137.45,113.88,137.78,113.47,137.78z M93.04,136.28h19.68V23.57H93.04V136.28z"/>
			</g>
		</g>
		<g id="Cuts_00000147939389239352637530000014404678165524249474_">
			<path class="st7" d="M92.29,90.53H68.6c-0.41,0-0.75-0.34-0.75-0.75V75.99c0-0.41,0.34-0.75,0.75-0.75h11.07v-5.29H68.6
				c-0.41,0-0.75-0.34-0.75-0.75V57.74h-5.29V69.2c0,0.41-0.34,0.75-0.75,0.75H50.74v5.29h11.07c0.41,0,0.75,0.34,0.75,0.75v13.78
				c0,0.41-0.34,0.75-0.75,0.75H38.12c-0.41,0-0.75-0.34-0.75-0.75v-8.61H25.34c-0.41,0-0.75-0.34-0.75-0.75V35.5
				c0-0.41,0.34-0.75,0.75-0.75h66.95c0.41,0,0.75,0.34,0.75,0.75v54.28C93.04,90.19,92.7,90.53,92.29,90.53z M69.35,89.03h22.18
				V36.25H26.09v43.42h12.04c0.41,0,0.75,0.34,0.75,0.75v8.61h22.18V76.74H49.99c-0.41,0-0.75-0.34-0.75-0.75V69.2
				c0-0.41,0.34-0.75,0.75-0.75h11.07V56.99c0-0.41,0.34-0.75,0.75-0.75h6.79c0.41,0,0.75,0.34,0.75,0.75v11.47h11.07
				c0.41,0,0.75,0.34,0.75,0.75v6.79c0,0.41-0.34,0.75-0.75,0.75H69.35V89.03z"/>
		</g>
	</g>
</g>
<g id="Guide">
</g>
</svg>
