<svg fill="#000000" xmlns="http://www.w3.org/2000/svg"  viewBox="0 0 80 80" width="80px" height="80px"><path d="M 21.916016 20.892578 C 20.742186 20.892578 19.782469 21.540604 18.597656 22.339844 C 17.412843 23.139084 16.104891 24.171609 14.806641 25.193359 C 13.508391 26.215109 12.220001 27.2256 11.132812 27.958984 C 10.045625 28.692369 9.0582641 29.066406 8.9335938 29.066406 A 1.0001 1.0001 0 1 0 8.9335938 31.066406 C 10.107423 31.066406 11.06714 30.416427 12.251953 29.617188 C 13.436766 28.817947 14.744719 27.787375 16.042969 26.765625 C 17.341219 25.743875 18.62961 24.731432 19.716797 23.998047 C 20.803984 23.264662 21.791345 22.892578 21.916016 22.892578 C 22.040686 22.892578 22.521305 23.133733 23.099609 23.816406 C 23.677914 24.49908 24.317672 25.493875 24.966797 26.515625 C 25.615922 27.537375 26.276086 28.585596 26.996094 29.435547 C 27.716102 30.285498 28.531248 31.066406 29.705078 31.066406 C 30.878908 31.066406 31.838625 30.416427 33.023438 29.617188 C 34.20825 28.817947 35.518156 27.787375 36.816406 26.765625 C 38.114656 25.743875 39.401094 24.731432 40.488281 23.998047 C 41.575468 23.264662 42.564783 22.892578 42.689453 22.892578 C 42.814123 22.892578 43.294742 23.133733 43.873047 23.816406 C 44.451351 24.49908 45.091109 25.493875 45.740234 26.515625 C 46.389359 27.537375 47.04757 28.585596 47.767578 29.435547 C 48.487586 30.285498 49.304686 31.066406 50.478516 31.066406 C 51.652345 31.066406 52.612062 30.416428 53.796875 29.617188 C 54.981688 28.817947 56.291594 27.787375 57.589844 26.765625 C 58.888094 25.743875 60.174532 24.731432 61.261719 23.998047 C 62.348906 23.264662 63.33822 22.892578 63.462891 22.892578 C 63.587561 22.892578 64.06818 23.133733 64.646484 23.816406 C 65.224789 24.49908 65.864547 25.493875 66.513672 26.515625 C 67.162797 27.537375 67.821008 28.585596 68.541016 29.435547 C 69.261024 30.285498 70.078123 31.066406 71.251953 31.066406 A 1.0001 1.0001 0 1 0 71.251953 29.066406 C 71.127283 29.066406 70.646664 28.825252 70.068359 28.142578 C 69.490055 27.459904 68.850297 26.465109 68.201172 25.443359 C 67.552047 24.421609 66.891883 23.373388 66.171875 22.523438 C 65.451867 21.673485 64.63672 20.892578 63.462891 20.892578 C 62.289061 20.892578 61.329344 21.540604 60.144531 22.339844 C 58.959718 23.139084 57.649814 24.171609 56.351562 25.193359 C 55.053314 26.215109 53.766875 27.2256 52.679688 27.958984 C 51.5925 28.692369 50.603186 29.066406 50.478516 29.066406 C 50.353845 29.066406 49.873226 28.825252 49.294922 28.142578 C 48.716617 27.459904 48.076859 26.465109 47.427734 25.443359 C 46.778609 24.421609 46.120399 23.373388 45.400391 22.523438 C 44.680383 21.673486 43.863283 20.892578 42.689453 20.892578 C 41.515623 20.892578 40.555907 21.540604 39.371094 22.339844 C 38.186281 23.139084 36.876375 24.171609 35.578125 25.193359 C 34.279875 26.215109 32.993437 27.2256 31.90625 27.958984 C 30.819063 28.692369 29.829748 29.066406 29.705078 29.066406 C 29.580408 29.066406 29.099789 28.825252 28.521484 28.142578 C 27.94318 27.459904 27.303422 26.465109 26.654297 25.443359 C 26.005172 24.421609 25.346961 23.373388 24.626953 22.523438 C 23.906945 21.673486 23.089845 20.892578 21.916016 20.892578 z M 5 29 A 1 1 0 0 0 5 31 A 1 1 0 0 0 5 29 z M 75 29 A 1 1 0 0 0 75 31 A 1 1 0 0 0 75 29 z M 21.916016 44 C 20.753353 44 19.790202 44.633841 18.605469 45.416016 C 17.420735 46.19819 16.112703 47.207031 14.814453 48.207031 C 13.516203 49.207031 12.227892 50.19819 11.140625 50.916016 C 10.053358 51.633841 9.0694307 52 8.9335938 52 A 1.0001 1.0001 0 1 0 8.9335938 54 C 10.096257 54 11.057454 53.366159 12.242188 52.583984 C 13.42692 51.80181 14.736906 50.792969 16.035156 49.792969 C 17.333406 48.792969 18.619765 47.80181 19.707031 47.083984 C 20.794298 46.366159 21.780179 46 21.916016 46 C 22.051853 46 22.530241 46.237453 23.107422 46.904297 C 23.684603 47.571141 24.323531 48.544922 24.972656 49.544922 C 25.621781 50.544922 26.280822 51.571141 27.001953 52.404297 C 27.723084 53.237453 28.542415 54 29.705078 54 C 30.867741 54 31.830892 53.366159 33.015625 52.583984 C 34.200358 51.80181 35.510344 50.792969 36.808594 49.792969 C 38.106844 48.792969 39.393202 47.80181 40.480469 47.083984 C 41.567735 46.366159 42.553616 46 42.689453 46 C 42.82529 46 43.303678 46.237453 43.880859 46.904297 C 44.458041 47.571141 45.096969 48.544922 45.746094 49.544922 C 46.395219 50.544922 47.054259 51.571141 47.775391 52.404297 C 48.496522 53.237453 49.315853 54 50.478516 54 C 51.641179 54 52.604329 53.366159 53.789062 52.583984 C 54.973796 51.80181 56.281828 50.792969 57.580078 49.792969 C 58.878328 48.792969 60.16664 47.80181 61.253906 47.083984 C 62.341173 46.366159 63.327054 46 63.462891 46 C 63.598728 46 64.077116 46.237453 64.654297 46.904297 C 65.231478 47.571141 65.868453 48.544922 66.517578 49.544922 C 67.166703 50.544922 67.827697 51.571141 68.548828 52.404297 C 69.269959 53.237453 70.08929 54 71.251953 54 A 1.0001 1.0001 0 1 0 71.251953 52 C 71.116116 52 70.637728 51.762547 70.060547 51.095703 C 69.483366 50.428859 68.844438 49.455078 68.195312 48.455078 C 67.546188 47.455078 66.887147 46.428859 66.166016 45.595703 C 65.444884 44.762547 64.625554 44 63.462891 44 C 62.300228 44 61.337077 44.633841 60.152344 45.416016 C 58.96761 46.19819 57.657625 47.207031 56.359375 48.207031 C 55.061125 49.207031 53.774767 50.19819 52.6875 50.916016 C 51.600233 51.633841 50.614353 52 50.478516 52 C 50.342679 52 49.864291 51.762547 49.287109 51.095703 C 48.709928 50.428859 48.071 49.455078 47.421875 48.455078 C 46.77275 47.455078 46.113709 46.428859 45.392578 45.595703 C 44.671447 44.762547 43.852116 44 42.689453 44 C 41.52679 44 40.56364 44.633841 39.378906 45.416016 C 38.194173 46.19819 36.886141 47.207031 35.587891 48.207031 C 34.289641 49.207031 33.001329 50.19819 31.914062 50.916016 C 30.826797 51.633841 29.840915 52 29.705078 52 C 29.569241 52 29.090853 51.762547 28.513672 51.095703 C 27.936491 50.428859 27.299516 49.455078 26.650391 48.455078 C 26.001266 47.455078 25.340272 46.428859 24.619141 45.595703 C 23.898009 44.762547 23.078679 44 21.916016 44 z M 5 52 A 1 1 0 0 0 5 54 A 1 1 0 0 0 5 52 z M 75 52 A 1 1 0 0 0 75 54 A 1 1 0 0 0 75 52 z"/></svg>