<svg fill="#000000" xmlns="http://www.w3.org/2000/svg"  viewBox="0 0 80 80" width="80px" height="80px"><path d="M 19.361328 9 C 14.568414 9 11.616972 11.117157 10.003906 13.234375 C 8.3908406 15.351593 8.015625 17.507812 8.015625 17.507812 A 1.0001 1.0001 0 1 0 9.984375 17.853516 C 9.984375 17.853516 10.280816 16.170548 11.59375 14.447266 C 12.906684 12.723984 15.136242 11 19.361328 11 C 21.617138 11 23.58485 11.960827 25.423828 13.763672 C 27.262806 15.566516 28.917561 18.216042 30.351562 21.410156 C 37.407626 37.125931 39 65.840444 39 71 A 1.0001 1.0001 0 0 0 39.003906 71.099609 A 1.0001 1.0001 0 0 0 39.017578 71.199219 A 1.0001 1.0001 0 0 0 39.041016 71.296875 A 1.0001 1.0001 0 0 0 39.074219 71.390625 A 1.0001 1.0001 0 0 0 39.226562 71.648438 A 1.0001 1.0001 0 0 0 39.367188 71.789062 A 1.0001 1.0001 0 0 0 39.447266 71.847656 A 1.0001 1.0001 0 0 0 39.533203 71.898438 A 1.0001 1.0001 0 0 0 39.71875 71.974609 A 1.0001 1.0001 0 0 0 39.816406 71.998047 A 1.0001 1.0001 0 0 0 39.916016 72.009766 A 1.0001 1.0001 0 0 0 40.310547 71.964844 A 1.0001 1.0001 0 0 0 40.576172 71.830078 A 1.0001 1.0001 0 0 0 40.65625 71.769531 A 1.0001 1.0001 0 0 0 40.728516 71.699219 A 1.0001 1.0001 0 0 0 40.792969 71.623047 A 1.0001 1.0001 0 0 0 40.898438 71.455078 A 1.0001 1.0001 0 0 0 40.966797 71.267578 A 1.0001 1.0001 0 0 0 40.998047 71.070312 A 1.0001 1.0001 0 0 0 41 71 C 41 65.840444 42.592374 37.125931 49.648438 21.410156 C 51.082439 18.216042 52.737194 15.566516 54.576172 13.763672 C 56.41515 11.960827 58.382862 11 60.638672 11 C 64.863758 11 67.093316 12.723984 68.40625 14.447266 C 69.719184 16.170548 70.015625 17.853516 70.015625 17.853516 A 1.0001 1.0001 0 1 0 71.984375 17.507812 C 71.984375 17.507812 71.60916 15.351593 69.996094 13.234375 C 68.383028 11.117157 65.431586 9 60.638672 9 C 57.798482 9 55.281053 10.272031 53.175781 12.335938 C 51.104545 14.366476 49.38702 17.172077 47.904297 20.441406 C 47.900997 20.448606 47.895898 20.453688 47.892578 20.460938 A 1.0001 1.0001 0 0 0 47.824219 20.589844 A 1.0001 1.0001 0 0 0 47.773438 20.726562 C 43.209436 30.972015 41.070443 45.352663 40 56.429688 C 38.929314 45.350157 36.790679 30.964433 32.224609 20.71875 A 1.0001 1.0001 0 0 0 32.175781 20.589844 A 1.0001 1.0001 0 0 0 32.101562 20.449219 C 30.617906 17.17592 28.897403 14.368385 26.824219 12.335938 C 24.718947 10.272031 22.201518 9 19.361328 9 z M 17.955078 15.076172 L 17.154297 15.478516 L 16.996094 16.359375 L 17.607422 17.013672 L 17.955078 17.076172 L 18.755859 16.675781 L 18.914062 15.792969 L 18.302734 15.138672 L 17.955078 15.076172 z M 62.044922 15.076172 L 61.244141 15.478516 L 61.085938 16.359375 L 61.697266 17.013672 L 62.044922 17.076172 L 62.845703 16.675781 L 63.003906 15.792969 L 62.392578 15.138672 L 62.044922 15.076172 z M 21.792969 15.835938 L 20.992188 16.238281 L 20.833984 17.119141 L 21.447266 17.775391 L 21.792969 17.835938 L 22.59375 17.435547 L 22.751953 16.552734 L 22.140625 15.898438 L 21.792969 15.835938 z M 58.207031 15.835938 L 57.40625 16.238281 L 57.248047 17.119141 L 57.859375 17.775391 L 58.207031 17.835938 L 59.007812 17.435547 L 59.166016 16.552734 L 58.552734 15.898438 L 58.207031 15.835938 z M 14.404297 16.746094 L 13.603516 17.148438 L 13.445312 18.03125 L 14.056641 18.685547 L 14.404297 18.746094 L 15.205078 18.345703 L 15.363281 17.462891 L 14.751953 16.808594 L 14.404297 16.746094 z M 65.595703 16.746094 L 64.794922 17.148438 L 64.636719 18.03125 L 65.248047 18.685547 L 65.595703 18.746094 L 66.396484 18.345703 L 66.554688 17.462891 L 65.943359 16.808594 L 65.595703 16.746094 z M 24.640625 18.611328 L 23.839844 19.013672 L 23.681641 19.896484 L 24.292969 20.550781 L 24.640625 20.611328 L 25.441406 20.210938 L 25.599609 19.328125 L 24.988281 18.673828 L 24.640625 18.611328 z M 55.359375 18.611328 L 54.558594 19.013672 L 54.400391 19.896484 L 55.011719 20.550781 L 55.359375 20.611328 L 56.160156 20.210938 L 56.318359 19.328125 L 55.707031 18.673828 L 55.359375 18.611328 z M 12.458984 20.189453 L 11.65625 20.591797 L 11.5 21.472656 L 12.111328 22.126953 L 12.458984 22.189453 L 13.259766 21.789062 L 13.417969 20.90625 L 12.804688 20.251953 L 12.458984 20.189453 z M 67.541016 20.189453 L 66.740234 20.591797 L 66.582031 21.472656 L 67.195312 22.126953 L 67.541016 22.189453 L 68.34375 21.789062 L 68.5 20.90625 L 67.888672 20.251953 L 67.541016 20.189453 z M 26.695312 22.037109 L 25.894531 22.439453 L 25.736328 23.320312 L 26.347656 23.974609 L 26.695312 24.037109 L 27.496094 23.636719 L 27.654297 22.753906 L 27.042969 22.099609 L 26.695312 22.037109 z M 53.304688 22.037109 L 52.503906 22.439453 L 52.345703 23.320312 L 52.957031 23.974609 L 53.304688 24.037109 L 54.105469 23.636719 L 54.263672 22.753906 L 53.652344 22.099609 L 53.304688 22.037109 z M 28.322266 25.689453 L 27.521484 26.089844 L 27.363281 26.972656 L 27.976562 27.626953 L 28.322266 27.689453 L 29.125 27.287109 L 29.28125 26.40625 L 28.669922 25.751953 L 28.322266 25.689453 z M 51.677734 25.689453 L 50.875 26.089844 L 50.71875 26.972656 L 51.330078 27.626953 L 51.677734 27.689453 L 52.478516 27.287109 L 52.636719 26.40625 L 52.023438 25.751953 L 51.677734 25.689453 z M 29.621094 29.470703 L 28.820312 29.873047 L 28.662109 30.755859 L 29.273438 31.410156 L 29.621094 31.470703 L 30.421875 31.070312 L 30.580078 30.1875 L 29.96875 29.533203 L 29.621094 29.470703 z M 50.378906 29.470703 L 49.578125 29.873047 L 49.419922 30.755859 L 50.03125 31.410156 L 50.378906 31.470703 L 51.179688 31.070312 L 51.337891 30.1875 L 50.726562 29.533203 L 50.378906 29.470703 z M 30.691406 33.324219 L 29.890625 33.726562 L 29.732422 34.607422 L 30.345703 35.261719 L 30.691406 35.324219 L 31.492188 34.923828 L 31.650391 34.041016 L 31.039062 33.386719 L 30.691406 33.324219 z M 49.308594 33.324219 L 48.507812 33.726562 L 48.349609 34.607422 L 48.960938 35.261719 L 49.308594 35.324219 L 50.109375 34.923828 L 50.267578 34.041016 L 49.654297 33.386719 L 49.308594 33.324219 z M 31.587891 37.222656 L 30.787109 37.623047 L 30.628906 38.505859 L 31.240234 39.160156 L 31.587891 39.222656 L 32.388672 38.820312 L 32.546875 37.939453 L 31.933594 37.285156 L 31.587891 37.222656 z M 48.412109 37.222656 L 47.611328 37.623047 L 47.453125 38.505859 L 48.066406 39.160156 L 48.412109 39.222656 L 49.212891 38.820312 L 49.371094 37.939453 L 48.759766 37.285156 L 48.412109 37.222656 z M 32.335938 41.152344 L 31.535156 41.552734 L 31.376953 42.435547 L 31.988281 43.089844 L 32.335938 43.152344 L 33.136719 42.75 L 33.294922 41.869141 L 32.683594 41.212891 L 32.335938 41.152344 z M 47.664062 41.152344 L 46.863281 41.552734 L 46.705078 42.435547 L 47.316406 43.089844 L 47.664062 43.152344 L 48.464844 42.75 L 48.623047 41.869141 L 48.011719 41.212891 L 47.664062 41.152344 z M 32.966797 45.101562 L 32.166016 45.501953 L 32.007812 46.384766 L 32.621094 47.039062 L 32.966797 47.101562 L 33.769531 46.699219 L 33.925781 45.818359 L 33.314453 45.164062 L 32.966797 45.101562 z M 47.033203 45.101562 L 46.230469 45.501953 L 46.074219 46.384766 L 46.685547 47.039062 L 47.033203 47.101562 L 47.833984 46.699219 L 47.992188 45.818359 L 47.378906 45.164062 L 47.033203 45.101562 z M 33.505859 49.064453 L 32.705078 49.466797 L 32.546875 50.347656 L 33.158203 51.001953 L 33.505859 51.064453 L 34.306641 50.664062 L 34.464844 49.78125 L 33.853516 49.126953 L 33.505859 49.064453 z M 46.494141 49.064453 L 45.693359 49.466797 L 45.535156 50.347656 L 46.146484 51.001953 L 46.494141 51.064453 L 47.294922 50.664062 L 47.453125 49.78125 L 46.841797 49.126953 L 46.494141 49.064453 z M 33.947266 53.041016 L 33.146484 53.441406 L 32.988281 54.324219 L 33.599609 54.978516 L 33.947266 55.041016 L 34.748047 54.638672 L 34.90625 53.755859 L 34.292969 53.101562 L 33.947266 53.041016 z M 46.052734 53.041016 L 45.251953 53.441406 L 45.09375 54.324219 L 45.707031 54.978516 L 46.052734 55.041016 L 46.853516 54.638672 L 47.011719 53.755859 L 46.400391 53.101562 L 46.052734 53.041016 z M 34.34375 57.019531 L 33.542969 57.421875 L 33.384766 58.302734 L 33.998047 58.958984 L 34.34375 59.019531 L 35.146484 58.619141 L 35.302734 57.736328 L 34.691406 57.082031 L 34.34375 57.019531 z M 45.65625 57.019531 L 44.853516 57.421875 L 44.697266 58.302734 L 45.308594 58.958984 L 45.65625 59.019531 L 46.457031 58.619141 L 46.615234 57.736328 L 46.001953 57.082031 L 45.65625 57.019531 z M 34.640625 61.009766 L 33.839844 61.410156 L 33.681641 62.292969 L 34.292969 62.947266 L 34.640625 63.009766 L 35.441406 62.607422 L 35.599609 61.726562 L 34.988281 61.072266 L 34.640625 61.009766 z M 45.359375 61.009766 L 44.558594 61.410156 L 44.400391 62.292969 L 45.011719 62.947266 L 45.359375 63.009766 L 46.160156 62.607422 L 46.318359 61.726562 L 45.707031 61.072266 L 45.359375 61.009766 z M 35 69 L 34.199219 69.402344 L 34.041016 70.283203 L 34.652344 70.9375 L 35 71 L 35.800781 70.597656 L 35.958984 69.716797 L 35.347656 69.0625 L 35 69 z M 45 69 L 44.199219 69.402344 L 44.041016 70.283203 L 44.652344 70.9375 L 45 71 L 45.800781 70.597656 L 45.958984 69.716797 L 45.347656 69.0625 L 45 69 z"/></svg>