<svg fill="#000000" xmlns="http://www.w3.org/2000/svg"  viewBox="0 0 80 80" width="80px" height="80px"><path d="M 37.820312 12 C 33.318019 12 29.197987 12.630054 25.546875 13.580078 A 1.0001 1.0001 0 1 0 26.050781 15.515625 C 29.555669 14.603649 33.504607 14 37.820312 14 C 49.164415 14 57.861247 18.772849 62.824219 22.386719 C 62.15102 22.278356 61.464999 22.207031 60.761719 22.207031 C 53.614844 22.207031 47.798828 28.023053 47.798828 35.169922 C 47.798828 42.316791 53.614844 48.132813 60.761719 48.132812 C 67.908593 48.132812 73.722656 42.316791 73.722656 35.169922 C 73.722656 31.22582 71.946422 27.69409 69.158203 25.314453 A 1.0001 1.0001 0 0 0 68.958984 25.003906 C 68.958984 25.003906 56.977277 12 37.820312 12 z M 21.972656 14.712891 L 21.171875 15.115234 L 21.013672 15.996094 L 21.625 16.650391 L 21.972656 16.712891 L 22.773438 16.3125 L 22.931641 15.429688 L 22.320312 14.775391 L 21.972656 14.712891 z M 18.251953 16.179688 L 17.451172 16.580078 L 17.292969 17.462891 L 17.904297 18.117188 L 18.251953 18.179688 L 19.052734 17.777344 L 19.210938 16.896484 L 18.599609 16.242188 L 18.251953 16.179688 z M 14.666016 17.947266 L 13.865234 18.349609 L 13.707031 19.230469 L 14.318359 19.884766 L 14.666016 19.947266 L 15.466797 19.546875 L 15.625 18.664062 L 15.013672 18.009766 L 14.666016 17.947266 z M 11.224609 19.984375 L 10.423828 20.384766 L 10.265625 21.267578 L 10.876953 21.921875 L 11.224609 21.984375 L 12.025391 21.582031 L 12.183594 20.701172 L 11.572266 20.046875 L 11.224609 19.984375 z M 60.761719 24.207031 C 66.827714 24.207031 71.722656 29.103931 71.722656 35.169922 C 71.722656 41.235913 66.827714 46.132813 60.761719 46.132812 C 54.695724 46.132812 49.798828 41.235913 49.798828 35.169922 C 49.798828 29.103931 54.695724 24.207031 60.761719 24.207031 z M 60.798828 27.132812 L 59.996094 27.535156 L 59.839844 28.416016 L 60.451172 29.070312 L 60.798828 29.132812 L 61.599609 28.732422 L 61.757812 27.849609 L 61.144531 27.195312 L 60.798828 27.132812 z M 64.556641 28.234375 L 63.755859 28.636719 L 63.597656 29.517578 L 64.210938 30.171875 L 64.556641 30.234375 L 65.357422 29.833984 L 65.515625 28.951172 L 64.904297 28.296875 L 64.556641 28.234375 z M 57.013672 28.25 L 56.212891 28.650391 L 56.054688 29.533203 L 56.666016 30.1875 L 57.013672 30.25 L 57.814453 29.847656 L 57.972656 28.966797 L 57.361328 28.3125 L 57.013672 28.25 z M 67.150391 31.205078 L 66.349609 31.607422 L 66.191406 32.490234 L 66.802734 33.144531 L 67.150391 33.205078 L 67.951172 32.804688 L 68.109375 31.921875 L 67.498047 31.267578 L 67.150391 31.205078 z M 54.433594 31.232422 L 53.632812 31.632812 L 53.474609 32.515625 L 54.085938 33.169922 L 54.433594 33.232422 L 55.234375 32.830078 L 55.392578 31.949219 L 54.779297 31.294922 L 54.433594 31.232422 z M 19.037109 32 C 11.890235 32 6.0761719 37.816021 6.0761719 44.962891 C 6.0761719 48.907072 7.8523085 52.439255 10.640625 54.818359 A 1.0001 1.0001 0 0 0 10.640625 54.820312 A 1.0001 1.0001 0 0 0 10.841797 55.128906 C 10.841797 55.128906 22.821551 68.132812 41.978516 68.132812 C 46.48081 68.132812 50.600841 67.502758 54.251953 66.552734 A 1.0001 1.0001 0 1 0 53.748047 64.617188 C 50.243159 65.529163 46.294222 66.132812 41.978516 66.132812 C 30.631884 66.132812 21.933114 61.358298 16.970703 57.744141 C 17.645106 57.852871 18.332502 57.923828 19.037109 57.923828 C 26.183984 57.923828 32 52.10976 32 44.962891 C 32 37.816021 26.183984 32 19.037109 32 z M 19.037109 34 C 25.103104 34 30 38.8969 30 44.962891 C 30 51.028882 25.103104 55.923828 19.037109 55.923828 C 12.971114 55.923828 8.0761719 51.028882 8.0761719 44.962891 C 8.0761719 38.8969 12.971114 34 19.037109 34 z M 67.722656 35.107422 L 66.921875 35.507812 L 66.763672 36.390625 L 67.375 37.044922 L 67.722656 37.107422 L 68.523438 36.705078 L 68.681641 35.824219 L 68.070312 35.169922 L 67.722656 35.107422 z M 53.878906 35.136719 L 53.076172 35.537109 L 52.919922 36.419922 L 53.53125 37.074219 L 53.878906 37.136719 L 54.679688 36.734375 L 54.837891 35.853516 L 54.224609 35.197266 L 53.878906 35.136719 z M 19 37 L 18.199219 37.402344 L 18.041016 38.283203 L 18.652344 38.9375 L 19 39 L 19.800781 38.597656 L 19.958984 37.716797 L 19.347656 37.0625 L 19 37 z M 22.759766 38.101562 L 21.958984 38.503906 L 21.800781 39.384766 L 22.412109 40.039062 L 22.759766 40.101562 L 23.560547 39.699219 L 23.71875 38.818359 L 23.105469 38.164062 L 22.759766 38.101562 z M 15.216797 38.117188 L 14.414062 38.517578 L 14.257812 39.400391 L 14.869141 40.054688 L 15.216797 40.117188 L 16.017578 39.714844 L 16.175781 38.833984 L 15.5625 38.179688 L 15.216797 38.117188 z M 66.095703 38.699219 L 65.294922 39.101562 L 65.136719 39.982422 L 65.75 40.636719 L 66.095703 40.699219 L 66.896484 40.296875 L 67.054688 39.416016 L 66.443359 38.761719 L 66.095703 38.699219 z M 55.519531 38.720703 L 54.71875 39.123047 L 54.560547 40.003906 L 55.171875 40.658203 L 55.519531 40.720703 L 56.320312 40.320312 L 56.478516 39.4375 L 55.867188 38.783203 L 55.519531 38.720703 z M 62.785156 40.841797 L 61.984375 41.244141 L 61.826172 42.126953 L 62.4375 42.78125 L 62.785156 42.841797 L 63.585938 42.441406 L 63.744141 41.558594 L 63.132812 40.904297 L 62.785156 40.841797 z M 58.839844 40.849609 L 58.039062 41.251953 L 57.880859 42.132812 L 58.492188 42.787109 L 58.839844 42.849609 L 59.640625 42.449219 L 59.798828 41.566406 L 59.185547 40.912109 L 58.839844 40.849609 z M 25.351562 41.072266 L 24.550781 41.474609 L 24.392578 42.355469 L 25.005859 43.009766 L 25.351562 43.072266 L 26.154297 42.671875 L 26.310547 41.789062 L 25.699219 41.134766 L 25.351562 41.072266 z M 12.634766 41.099609 L 11.833984 41.5 L 11.675781 42.382812 L 12.287109 43.037109 L 12.634766 43.099609 L 13.435547 42.697266 L 13.59375 41.816406 L 12.982422 41.162109 L 12.634766 41.099609 z M 25.923828 44.974609 L 25.123047 45.375 L 24.964844 46.257812 L 25.578125 46.912109 L 25.923828 46.974609 L 26.724609 46.572266 L 26.882812 45.691406 L 26.271484 45.037109 L 25.923828 44.974609 z M 12.080078 45.003906 L 11.279297 45.404297 L 11.121094 46.287109 L 11.732422 46.941406 L 12.080078 47.003906 L 12.880859 46.601562 L 13.039062 45.71875 L 12.427734 45.064453 L 12.080078 45.003906 z M 24.298828 48.566406 L 23.498047 48.966797 L 23.339844 49.849609 L 23.951172 50.503906 L 24.298828 50.566406 L 25.099609 50.164062 L 25.257812 49.283203 L 24.644531 48.628906 L 24.298828 48.566406 z M 13.720703 48.587891 L 12.919922 48.990234 L 12.761719 49.871094 L 13.375 50.525391 L 13.720703 50.587891 L 14.521484 50.185547 L 14.679688 49.304688 L 14.068359 48.650391 L 13.720703 48.587891 z M 20.986328 50.708984 L 20.185547 51.111328 L 20.027344 51.992188 L 20.640625 52.648438 L 20.986328 52.708984 L 21.787109 52.308594 L 21.945312 51.425781 L 21.333984 50.771484 L 20.986328 50.708984 z M 17.041016 50.716797 L 16.240234 51.119141 L 16.082031 52 L 16.695312 52.654297 L 17.041016 52.716797 L 17.841797 52.316406 L 18 51.433594 L 17.388672 50.779297 L 17.041016 50.716797 z M 68.572266 58.148438 L 67.771484 58.550781 L 67.613281 59.431641 L 68.226562 60.085938 L 68.572266 60.148438 L 69.375 59.748047 L 69.533203 58.865234 L 68.919922 58.210938 L 68.572266 58.148438 z M 65.132812 60.185547 L 64.332031 60.585938 L 64.173828 61.46875 L 64.785156 62.123047 L 65.132812 62.185547 L 65.933594 61.783203 L 66.091797 60.902344 L 65.478516 60.248047 L 65.132812 60.185547 z M 61.546875 61.953125 L 60.746094 62.355469 L 60.587891 63.238281 L 61.199219 63.892578 L 61.546875 63.953125 L 62.347656 63.552734 L 62.505859 62.669922 L 61.892578 62.015625 L 61.546875 61.953125 z M 57.826172 63.419922 L 57.025391 63.820312 L 56.867188 64.703125 L 57.478516 65.357422 L 57.826172 65.419922 L 58.626953 65.017578 L 58.785156 64.136719 L 58.171875 63.482422 L 57.826172 63.419922 z"/></svg>