<svg fill="#000000" xmlns="http://www.w3.org/2000/svg"  viewBox="0 0 80 80" width="80px" height="80px"><path d="M 10.988281 7.9941406 A 1.0001 1.0001 0 0 0 10.533203 9.8847656 C 10.533203 9.8847656 18 13.777947 18 23.013672 L 18 33 L 18 53 A 1.0001 1.0001 0 1 0 20 53 L 20 33 L 20 23.013672 C 20 22.797207 19.976092 22.598137 19.96875 22.386719 A 1.0001 1.0001 0 0 0 20 22.125 C 20 21.370554 20.515055 20.097422 21.457031 18.738281 C 22.399008 17.37914 23.720844 15.919962 25.134766 14.599609 C 26.548687 13.279256 28.057784 12.091582 29.357422 11.255859 C 30.657059 10.420137 31.857331 10 32.095703 10 C 32.559783 10 33.686853 10.244557 34.955078 10.777344 C 36.223303 11.31013 37.677193 12.114787 39.03125 13.158203 C 41.739364 15.245035 44 18.218793 44 22 L 44 43 C 44 50.010468 45.803505 55.558485 49.201172 59.359375 C 49.555321 59.755553 49.995426 60.046193 50.382812 60.402344 C 49.598292 62.284374 48.67058 64.089957 47.310547 65.615234 A 1.0001 1.0001 0 0 0 47.794922 67.330078 A 1.0001 1.0001 0 0 0 47.869141 67.341797 A 1.0004735 1.0004735 0 0 0 47.929688 67.347656 A 1.0004735 1.0004735 0 0 0 48.099609 67.345703 A 1.0001 1.0001 0 0 0 48.152344 67.337891 A 1.0004735 1.0004735 0 0 0 48.193359 67.332031 A 1.0001 1.0001 0 0 0 48.871094 66.861328 C 50.226747 65.316927 51.170928 63.5837 51.96875 61.806641 C 55.08706 63.995278 59.012305 65.125 63.523438 65.125 C 69.850183 65.125 75 59.963288 75 53.625 C 75 47.286712 69.850183 42.125 63.523438 42.125 C 60.434826 42.125 58.1559 43.18561 56.582031 44.894531 C 55.008163 46.603452 54.110342 48.85768 53.347656 51.285156 C 52.622869 53.592007 51.996295 56.068563 51.175781 58.455078 C 51.024084 58.299895 50.83686 58.188106 50.691406 58.025391 C 47.704073 54.683531 46 49.668532 46 43 L 46 22 C 46 17.422207 43.267089 13.897637 40.251953 11.574219 C 38.744385 10.41251 37.153447 9.5322134 35.728516 8.9335938 C 34.303584 8.334974 33.090123 8 32.095703 8 C 30.874575 8 29.706675 8.6550975 28.277344 9.5742188 C 26.848013 10.49334 25.264485 11.740697 23.769531 13.136719 C 22.274578 14.532741 20.871695 16.072203 19.814453 17.597656 C 19.645934 17.840805 19.501031 18.082375 19.349609 18.324219 C 17.370234 11.30021 11.466797 8.1152344 11.466797 8.1152344 A 1.0001 1.0001 0 0 0 10.988281 7.9941406 z M 7 10 A 1.0001 1.0001 0 1 0 7 12 A 1.0001 1.0001 0 1 0 7 10 z M 10.429688 12.228516 L 9.6269531 12.628906 L 9.4707031 13.511719 L 10.082031 14.166016 L 10.429688 14.228516 L 11.230469 13.826172 L 11.388672 12.945312 L 10.775391 12.291016 L 10.429688 12.228516 z M 13.042969 15.375 L 12.242188 15.777344 L 12.083984 16.658203 L 12.695312 17.3125 L 13.042969 17.375 L 13.84375 16.972656 L 14.001953 16.091797 L 13.390625 15.4375 L 13.042969 15.375 z M 14.599609 19.158203 L 13.798828 19.560547 L 13.640625 20.441406 L 14.251953 21.097656 L 14.599609 21.158203 L 15.400391 20.757812 L 15.558594 19.875 L 14.945312 19.220703 L 14.599609 19.158203 z M 15 23.236328 L 14.199219 23.638672 L 14.041016 24.519531 L 14.652344 25.173828 L 15 25.236328 L 15.800781 24.835938 L 15.958984 23.953125 L 15.347656 23.298828 L 15 23.236328 z M 15 27.345703 L 14.199219 27.746094 L 14.041016 28.628906 L 14.652344 29.283203 L 15 29.345703 L 15.800781 28.943359 L 15.958984 28.060547 L 15.347656 27.40625 L 15 27.345703 z M 15 31.453125 L 14.199219 31.853516 L 14.041016 32.736328 L 14.652344 33.390625 L 15 33.453125 L 15.800781 33.050781 L 15.958984 32.169922 L 15.347656 31.515625 L 15 31.453125 z M 15 35.560547 L 14.199219 35.962891 L 14.041016 36.84375 L 14.652344 37.498047 L 15 37.560547 L 15.800781 37.160156 L 15.958984 36.277344 L 15.347656 35.623047 L 15 35.560547 z M 15 39.669922 L 14.199219 40.070312 L 14.041016 40.953125 L 14.652344 41.607422 L 15 41.669922 L 15.800781 41.267578 L 15.958984 40.384766 L 15.347656 39.730469 L 15 39.669922 z M 15 43.777344 L 14.199219 44.177734 L 14.041016 45.060547 L 14.652344 45.714844 L 15 45.777344 L 15.800781 45.375 L 15.958984 44.494141 L 15.347656 43.839844 L 15 43.777344 z M 63.523438 44.125 C 68.766692 44.125 73 48.365288 73 53.625 C 73 58.884712 68.766692 63.125 63.523438 63.125 C 59.160559 63.125 55.593999 61.995086 52.802734 59.898438 C 53.821861 57.131084 54.488901 54.325841 55.255859 51.884766 C 55.987299 49.556741 56.825697 47.582329 58.052734 46.25 C 59.279772 44.917671 60.864549 44.125 63.523438 44.125 z M 15 47.884766 L 14.199219 48.287109 L 14.041016 49.167969 L 14.652344 49.822266 L 15 49.884766 L 15.800781 49.484375 L 15.958984 48.601562 L 15.347656 47.947266 L 15 47.884766 z M 15 52 A 1.0001 1.0001 0 1 0 15 54 A 1.0001 1.0001 0 1 0 15 52 z M 44.658203 68.109375 L 43.857422 68.511719 L 43.699219 69.392578 L 44.310547 70.048828 L 44.658203 70.109375 L 45.458984 69.708984 L 45.617188 68.826172 L 45.005859 68.171875 L 44.658203 68.109375 z M 40.6875 69.855469 L 39.886719 70.257812 L 39.728516 71.138672 L 40.341797 71.792969 L 40.6875 71.855469 L 41.488281 71.455078 L 41.646484 70.572266 L 41.035156 69.917969 L 40.6875 69.855469 z M 36.4375 70.740234 L 35.636719 71.142578 L 35.478516 72.023438 L 36.089844 72.677734 L 36.4375 72.740234 L 37.238281 72.339844 L 37.396484 71.457031 L 36.785156 70.802734 L 36.4375 70.740234 z M 32.095703 71 A 1.0001 1.0001 0 1 0 32.095703 73 A 1.0001 1.0001 0 1 0 32.095703 71 z"/></svg>