<svg fill="#000000" xmlns="http://www.w3.org/2000/svg"  viewBox="0 0 80 80" width="80px" height="80px"><path d="M 39.984375 3.9863281 A 1.0001 1.0001 0 0 0 39 5 L 39 18 L 28 18 A 1.0001 1.0001 0 1 0 28 20 L 39 20 L 39 34 A 1.0001 1.0001 0 0 0 39.001953 34.025391 C 27.87785 34.547494 19 43.74817 19 55 A 1.0001 1.0001 0 1 0 21 55 C 21 44.494407 29.494407 36 40 36 C 50.505593 36 59 44.494407 59 55 A 1.0001 1.0001 0 1 0 61 55 C 61 43.748824 52.123195 34.548474 41 34.025391 A 1.0001 1.0001 0 0 0 41 34 L 41 20 L 52 20 A 1.0001 1.0001 0 1 0 52 18 L 41 18 L 41 5 A 1.0001 1.0001 0 0 0 39.984375 3.9863281 z M 20 18 L 19.199219 18.402344 L 19.041016 19.283203 L 19.652344 19.9375 L 20 20 L 20.800781 19.597656 L 20.958984 18.716797 L 20.347656 18.0625 L 20 18 z M 24 18 L 23.199219 18.402344 L 23.041016 19.283203 L 23.652344 19.9375 L 24 20 L 24.800781 19.597656 L 24.958984 18.716797 L 24.347656 18.0625 L 24 18 z M 56 18 L 55.199219 18.402344 L 55.041016 19.283203 L 55.652344 19.9375 L 56 20 L 56.800781 19.597656 L 56.958984 18.716797 L 56.347656 18.0625 L 56 18 z M 60 18 L 59.199219 18.402344 L 59.041016 19.283203 L 59.652344 19.9375 L 60 20 L 60.800781 19.597656 L 60.958984 18.716797 L 60.347656 18.0625 L 60 18 z M 20.201172 56.810547 L 19.400391 57.212891 L 19.242188 58.095703 L 19.853516 58.75 L 20.201172 58.810547 L 21.001953 58.410156 L 21.160156 57.527344 L 20.546875 56.873047 L 20.201172 56.810547 z M 59.603516 57.974609 L 58.802734 58.375 L 58.644531 59.257812 L 59.257812 59.912109 L 59.603516 59.974609 L 60.404297 59.572266 L 60.5625 58.691406 L 59.951172 58.035156 L 59.603516 57.974609 z M 21.167969 60.683594 L 20.367188 61.085938 L 20.208984 61.966797 L 20.822266 62.621094 L 21.167969 62.683594 L 21.96875 62.283203 L 22.126953 61.400391 L 21.515625 60.746094 L 21.167969 60.683594 z M 58.425781 61.791016 L 57.625 62.191406 L 57.466797 63.074219 L 58.078125 63.728516 L 58.425781 63.791016 L 59.226562 63.388672 L 59.384766 62.507812 L 58.771484 61.853516 L 58.425781 61.791016 z M 22.875 64.291016 L 22.072266 64.693359 L 21.916016 65.574219 L 22.527344 66.228516 L 22.875 66.291016 L 23.675781 65.890625 L 23.833984 65.007812 L 23.220703 64.353516 L 22.875 64.291016 z M 56.501953 65.291016 L 55.701172 65.693359 L 55.542969 66.574219 L 56.15625 67.230469 L 56.501953 67.291016 L 57.302734 66.890625 L 57.460938 66.007812 L 56.849609 65.353516 L 56.501953 65.291016 z M 25.263672 67.488281 L 24.460938 67.888672 L 24.304688 68.771484 L 24.916016 69.425781 L 25.263672 69.488281 L 26.064453 69.085938 L 26.222656 68.205078 L 25.609375 67.550781 L 25.263672 67.488281 z M 53.923828 68.339844 L 53.123047 68.742188 L 52.964844 69.623047 L 53.576172 70.279297 L 53.923828 70.339844 L 54.724609 69.939453 L 54.882812 69.056641 L 54.271484 68.402344 L 53.923828 68.339844 z M 28.236328 70.150391 L 27.435547 70.550781 L 27.277344 71.433594 L 27.888672 72.087891 L 28.236328 72.150391 L 29.037109 71.748047 L 29.195312 70.865234 L 28.583984 70.210938 L 28.236328 70.150391 z M 50.794922 70.820312 L 49.994141 71.220703 L 49.835938 72.103516 L 50.447266 72.757812 L 50.794922 72.820312 L 51.595703 72.417969 L 51.753906 71.537109 L 51.142578 70.880859 L 50.794922 70.820312 z M 31.677734 72.169922 L 30.876953 72.570312 L 30.71875 73.453125 L 31.330078 74.107422 L 31.677734 74.169922 L 32.478516 73.767578 L 32.636719 72.886719 L 32.025391 72.232422 L 31.677734 72.169922 z M 47.238281 72.628906 L 46.435547 73.029297 L 46.279297 73.912109 L 46.890625 74.566406 L 47.238281 74.628906 L 48.039062 74.226562 L 48.197266 73.345703 L 47.583984 72.691406 L 47.238281 72.628906 z M 35.453125 73.460938 L 34.652344 73.863281 L 34.494141 74.744141 L 35.107422 75.398438 L 35.453125 75.460938 L 36.255859 75.060547 L 36.412109 74.177734 L 35.800781 73.523438 L 35.453125 73.460938 z M 43.394531 73.707031 L 42.591797 74.109375 L 42.435547 74.990234 L 43.046875 75.644531 L 43.394531 75.707031 L 44.195312 75.306641 L 44.353516 74.423828 L 43.740234 73.769531 L 43.394531 73.707031 z M 39.410156 73.984375 L 38.609375 74.386719 L 38.451172 75.267578 L 39.064453 75.923828 L 39.410156 75.984375 L 40.210938 75.583984 L 40.369141 74.701172 L 39.757812 74.046875 L 39.410156 73.984375 z"/></svg>