<svg fill="#000000" xmlns="http://www.w3.org/2000/svg"  viewBox="0 0 80 80" width="80px" height="80px"><path d="M 26.4375 10 A 1.0001 1.0001 0 1 0 26.4375 12 C 32.808514 12 38 16.683628 38 23 C 38 31.910963 31.098889 45.201432 14.642578 52.0625 A 1.0001 1.0001 0 0 0 13.990234 52.908203 A 1.0001 1.0001 0 0 0 13.990234 52.914062 A 1.0001 1.0001 0 0 0 13.990234 52.916016 A 1.0001 1.0001 0 0 0 13.992188 53.115234 A 1.0001 1.0001 0 0 0 14.035156 53.310547 A 1.0001 1.0001 0 0 0 14.070312 53.402344 A 1.0001 1.0001 0 0 0 14.070312 53.404297 A 1.0001 1.0001 0 0 0 15.074219 54 L 52 54 L 52 65 A 1.0001 1.0001 0 1 0 54 65 L 54 54 L 63 54 A 1.0001 1.0001 0 1 0 63 52 L 54 52 L 54 24 A 1.0001 1.0001 0 0 0 52.984375 22.986328 A 1.0001 1.0001 0 0 0 52 24 L 52 52 L 19.259766 52 C 33.584307 44.508244 40 32.128927 40 23 C 40 15.578372 33.804486 10 26.4375 10 z M 23.226562 10.402344 L 22.425781 10.802734 L 22.267578 11.685547 L 22.880859 12.339844 L 23.226562 12.402344 L 24.027344 12 L 24.185547 11.119141 L 23.574219 10.464844 L 23.226562 10.402344 z M 53 11 L 52.199219 11.402344 L 52.041016 12.283203 L 52.652344 12.9375 L 53 13 L 53.800781 12.597656 L 53.958984 11.716797 L 53.347656 11.0625 L 53 11 z M 19.556641 11.943359 L 18.755859 12.345703 L 18.597656 13.228516 L 19.208984 13.882812 L 19.556641 13.943359 L 20.357422 13.542969 L 20.515625 12.660156 L 19.902344 12.005859 L 19.556641 11.943359 z M 16.585938 14.59375 L 15.785156 14.994141 L 15.626953 15.876953 L 16.238281 16.53125 L 16.585938 16.59375 L 17.386719 16.191406 L 17.544922 15.308594 L 16.931641 14.654297 L 16.585938 14.59375 z M 53 15 L 52.199219 15.402344 L 52.041016 16.283203 L 52.652344 16.9375 L 53 17 L 53.800781 16.597656 L 53.958984 15.716797 L 53.347656 15.0625 L 53 15 z M 14.660156 18.074219 L 13.859375 18.474609 L 13.701172 19.357422 L 14.3125 20.011719 L 14.660156 20.074219 L 15.460938 19.671875 L 15.619141 18.791016 L 15.005859 18.136719 L 14.660156 18.074219 z M 53 19 L 52.199219 19.402344 L 52.041016 20.283203 L 52.652344 20.9375 L 53 21 L 53.800781 20.597656 L 53.958984 19.716797 L 53.347656 19.0625 L 53 19 z M 14 22 L 13.199219 22.402344 L 13.041016 23.283203 L 13.652344 23.9375 L 14 24 L 14.800781 23.597656 L 14.958984 22.716797 L 14.347656 22.0625 L 14 22 z M 67 52 L 66.199219 52.402344 L 66.041016 53.283203 L 66.652344 53.9375 L 67 54 L 67.800781 53.597656 L 67.958984 52.716797 L 67.347656 52.0625 L 67 52 z M 71 52 L 70.199219 52.402344 L 70.041016 53.283203 L 70.652344 53.9375 L 71 54 L 71.800781 53.597656 L 71.958984 52.716797 L 71.347656 52.0625 L 71 52 z M 53 68 L 52.199219 68.402344 L 52.041016 69.283203 L 52.652344 69.9375 L 53 70 L 53.800781 69.597656 L 53.958984 68.716797 L 53.347656 68.0625 L 53 68 z M 53 72 L 52.199219 72.402344 L 52.041016 73.283203 L 52.652344 73.9375 L 53 74 L 53.800781 73.597656 L 53.958984 72.716797 L 53.347656 72.0625 L 53 72 z"/></svg>