<svg fill="#000000" xmlns="http://www.w3.org/2000/svg"  viewBox="0 0 80 80" width="80px" height="80px"><path d="M 46.013672 7 C 35.682895 7 27 15.669346 27 26 C 27 31.956547 28.328355 35.871585 29.724609 39.005859 C 27.805029 37.697855 25.490368 36.931641 23 36.931641 C 21.867051 36.931641 20.769495 37.090149 19.728516 37.384766 A 1.0001 1.0001 0 1 0 20.271484 39.308594 C 21.138505 39.06321 22.052949 38.931641 23 38.931641 C 28.182352 38.931641 32.429887 42.862929 32.947266 47.925781 C 32.976209 48.268972 32.999504 48.617078 33 48.982422 C 32.991539 54.530329 28.527641 59 23 59 A 1.0001 1.0001 0 1 0 23 61 C 29.558578 61 34.896167 55.692801 34.990234 49.140625 A 1.0001 1.0001 0 0 0 35 49 C 35 48.993933 35.000007 48.988483 35 48.982422 C 35.000007 48.977165 35 48.972056 35 48.966797 C 35 48.552248 34.978541 48.142199 34.9375 47.738281 C 34.644987 44.35037 33.225649 41.815748 31.90625 38.980469 C 30.427416 35.802578 29 32.16331 29 26 C 29 16.794654 36.806449 9 46.013672 9 C 55.219837 9 63 16.792947 63 26 C 63 34.037204 58.246024 39.660661 53.269531 44.970703 C 48.293039 50.280745 43 55.237697 43 62 C 43 68.564319 48.435681 74 55 74 C 59.368422 74 63.769989 71.980757 65.869141 68.296875 A 1.0002734 1.0002734 0 0 0 64.130859 67.306641 C 62.484011 70.196759 58.739578 72 55 72 C 49.542319 72 45 67.457681 45 62 C 45 56.308303 49.706961 51.698099 54.730469 46.337891 C 59.753976 40.977682 65 34.827796 65 26 C 65 15.694624 56.382589 7.0414016 46.083984 7.0019531 A 1.0001 1.0001 0 0 0 46.013672 7 z M 58 7 L 57.199219 7.4023438 L 57.041016 8.2832031 L 57.652344 8.9375 L 58 9 L 58.800781 8.5976562 L 58.958984 7.7167969 L 58.347656 7.0625 L 58 7 z M 61.509766 8.8984375 L 60.708984 9.2988281 L 60.550781 10.181641 L 61.162109 10.835938 L 61.509766 10.898438 L 62.310547 10.496094 L 62.46875 9.6132812 L 61.855469 8.9589844 L 61.509766 8.8984375 z M 64.490234 11.548828 L 63.689453 11.951172 L 63.53125 12.832031 L 64.144531 13.486328 L 64.490234 13.548828 L 65.291016 13.148438 L 65.449219 12.265625 L 64.837891 11.611328 L 64.490234 11.548828 z M 66.802734 14.800781 L 66.001953 15.201172 L 65.84375 16.083984 L 66.457031 16.738281 L 66.802734 16.800781 L 67.605469 16.398438 L 67.761719 15.515625 L 67.150391 14.861328 L 66.802734 14.800781 z M 68.302734 18.498047 L 67.501953 18.900391 L 67.34375 19.78125 L 67.955078 20.435547 L 68.302734 20.498047 L 69.103516 20.095703 L 69.261719 19.214844 L 68.650391 18.560547 L 68.302734 18.498047 z M 68.982422 22.431641 L 68.181641 22.833984 L 68.023438 23.716797 L 68.636719 24.371094 L 68.982422 24.431641 L 69.785156 24.03125 L 69.941406 23.148438 L 69.330078 22.494141 L 68.982422 22.431641 z M 68.955078 26.427734 L 68.154297 26.828125 L 67.996094 27.710938 L 68.609375 28.365234 L 68.955078 28.427734 L 69.755859 28.025391 L 69.914062 27.144531 L 69.302734 26.488281 L 68.955078 26.427734 z M 68.224609 30.353516 L 67.421875 30.753906 L 67.265625 31.636719 L 67.876953 32.291016 L 68.224609 32.353516 L 69.025391 31.951172 L 69.183594 31.070312 L 68.570312 30.416016 L 68.224609 30.353516 z M 66.857422 34.109375 L 66.056641 34.509766 L 65.898438 35.392578 L 66.509766 36.046875 L 66.857422 36.109375 L 67.658203 35.707031 L 67.816406 34.826172 L 67.205078 34.171875 L 66.857422 34.109375 z M 65.033203 37.666016 L 64.232422 38.066406 L 64.074219 38.949219 L 64.685547 39.603516 L 65.033203 39.666016 L 65.833984 39.263672 L 65.992188 38.382812 L 65.380859 37.728516 L 65.033203 37.666016 z M 16.787109 38.859375 L 15.986328 39.261719 L 15.828125 40.144531 L 16.439453 40.798828 L 16.787109 40.859375 L 17.587891 40.458984 L 17.746094 39.576172 L 17.132812 38.921875 L 16.787109 38.859375 z M 62.916016 41.058594 L 62.115234 41.458984 L 61.957031 42.341797 L 62.570312 42.996094 L 62.916016 43.058594 L 63.716797 42.65625 L 63.875 41.775391 L 63.263672 41.119141 L 62.916016 41.058594 z M 13.972656 41.671875 L 13.171875 42.074219 L 13.013672 42.957031 L 13.626953 43.611328 L 13.972656 43.671875 L 14.775391 43.271484 L 14.931641 42.388672 L 14.320312 41.734375 L 13.972656 41.671875 z M 60.601562 44.318359 L 59.800781 44.720703 L 59.642578 45.603516 L 60.253906 46.257812 L 60.601562 46.318359 L 61.402344 45.917969 L 61.560547 45.035156 L 60.949219 44.380859 L 60.601562 44.318359 z M 12.328125 45.292969 L 11.527344 45.695312 L 11.369141 46.576172 L 11.980469 47.230469 L 12.328125 47.292969 L 13.128906 46.892578 L 13.287109 46.009766 L 12.673828 45.355469 L 12.328125 45.292969 z M 58.138672 47.470703 L 57.337891 47.873047 L 57.179688 48.753906 L 57.792969 49.408203 L 58.138672 49.470703 L 58.939453 49.070312 L 59.097656 48.1875 L 58.486328 47.533203 L 58.138672 47.470703 z M 12.082031 49.263672 L 11.28125 49.664062 L 11.123047 50.546875 L 11.736328 51.201172 L 12.082031 51.263672 L 12.882812 50.861328 L 13.041016 49.980469 L 12.429688 49.326172 L 12.082031 49.263672 z M 55.613281 50.572266 L 54.810547 50.972656 L 54.654297 51.855469 L 55.265625 52.509766 L 55.613281 52.572266 L 56.414062 52.169922 L 56.572266 51.289062 L 55.958984 50.634766 L 55.613281 50.572266 z M 13.25 53.064453 L 12.449219 53.466797 L 12.291016 54.349609 L 12.904297 55.003906 L 13.25 55.064453 L 14.052734 54.664062 L 14.208984 53.78125 L 13.597656 53.126953 L 13.25 53.064453 z M 53.097656 53.681641 L 52.294922 54.083984 L 52.138672 54.964844 L 52.75 55.619141 L 53.097656 55.681641 L 53.898438 55.279297 L 54.056641 54.398438 L 53.443359 53.744141 L 53.097656 53.681641 z M 15.695312 56.201172 L 14.894531 56.601562 L 14.736328 57.484375 L 15.349609 58.138672 L 15.695312 58.201172 L 16.498047 57.798828 L 16.654297 56.917969 L 16.042969 56.263672 L 15.695312 56.201172 z M 50.71875 56.896484 L 49.917969 57.296875 L 49.759766 58.179688 L 50.371094 58.833984 L 50.71875 58.896484 L 51.519531 58.494141 L 51.677734 57.613281 L 51.066406 56.958984 L 50.71875 56.896484 z M 19.089844 58.269531 L 18.289062 58.671875 L 18.130859 59.552734 L 18.744141 60.207031 L 19.089844 60.269531 L 19.890625 59.867188 L 20.048828 58.986328 L 19.4375 58.332031 L 19.089844 58.269531 z M 49.046875 60.498047 L 48.246094 60.900391 L 48.087891 61.78125 L 48.699219 62.4375 L 49.046875 62.498047 L 49.847656 62.097656 L 50.005859 61.214844 L 49.394531 60.560547 L 49.046875 60.498047 z M 50.132812 64.236328 L 49.332031 64.636719 L 49.173828 65.519531 L 49.785156 66.173828 L 50.132812 66.236328 L 50.933594 65.833984 L 51.091797 64.953125 L 50.480469 64.298828 L 50.132812 64.236328 z M 60.601562 64.472656 L 59.800781 64.873047 L 59.642578 65.755859 L 60.253906 66.410156 L 60.601562 66.472656 L 61.402344 66.070312 L 61.560547 65.1875 L 60.949219 64.533203 L 60.601562 64.472656 z M 53.361328 66.494141 L 52.560547 66.894531 L 52.402344 67.777344 L 53.013672 68.431641 L 53.361328 68.494141 L 54.162109 68.091797 L 54.320312 67.208984 L 53.708984 66.554688 L 53.361328 66.494141 z M 57.300781 66.605469 L 56.5 67.007812 L 56.341797 67.888672 L 56.955078 68.544922 L 57.300781 68.605469 L 58.101562 68.205078 L 58.259766 67.322266 L 57.648438 66.667969 L 57.300781 66.605469 z"/></svg>