<svg fill="#000000" xmlns="http://www.w3.org/2000/svg"  viewBox="0 0 80 80" width="80px" height="80px"><path d="M40 11C27.986956 11 18.162574 19.970827 18.025391 31.152344A1.0001 1.0001 0 0018 31.382812a1.0001 1.0001 0 00.04297.302735C18.144564 37.904127 21.32756 43.331672 26.132812 47H6a1.0001 1.0001 0 100 2h23.050781a1.0001 1.0001 0 00.07227-.002 1.0001 1.0001 0 00.541015-1.878906C23.851853 43.887487 20 38.047863 20 31.382812 20 21.262216 28.899664 13 40 13 51.097207 13 60 21.262403 60 31.382812 60 38.052947 56.144912 43.895358 50.328125 47.125a1.0001 1.0001 0 00.59375 1.875 1.0001 1.0001 0 00.02734 0H74a1.0001 1.0001 0 100-2H53.871094c4.805381-3.66917 7.986315-9.0991 8.085937-15.320312A1.0001 1.0001 0 0062 31.382812 1.0001 1.0001 0 0061.974609 31.152344C61.837386 19.970647 52.010194 11 40 11zM6 59a1.0001 1.0001 0 100 2h68a1.0001 1.0001 0 100-2zM6 63a1.0001 1.0001 0 100 2 1.0001 1.0001 0 100-2zM9.1992188 63.402344L9.0410156 64.283203 9.6523438 64.9375 10 65 10.800781 64.597656 10.958984 63.716797 10.347656 63.0625 10 63zm4.0000002 0l-.158203.880859L13.652344 64.9375 14 65 14.800781 64.597656 14.958984 63.716797 14.347656 63.0625 14 63zm4 0l-.158203.880859L17.652344 64.9375 18 65 18.800781 64.597656 18.958984 63.716797 18.347656 63.0625 18 63zm4 0l-.158203.880859L21.652344 64.9375 22 65 22.800781 64.597656 22.958984 63.716797 22.347656 63.0625 22 63zm4 0l-.158203.880859L25.652344 64.9375 26 65 26.800781 64.597656 26.958984 63.716797 26.347656 63.0625 26 63zm4 0l-.158203.880859L29.652344 64.9375 30 65 30.800781 64.597656 30.958984 63.716797 30.347656 63.0625 30 63zm4 0l-.158203.880859L33.652344 64.9375 34 65 34.800781 64.597656 34.958984 63.716797 34.347656 63.0625 34 63zm4 0l-.158203.880859L37.652344 64.9375 38 65 38.800781 64.597656 38.958984 63.716797 38.347656 63.0625 38 63zm4 0l-.158203.880859L41.652344 64.9375 42 65 42.800781 64.597656 42.958984 63.716797 42.347656 63.0625 42 63zm4 0l-.158203.880859L45.652344 64.9375 46 65 46.800781 64.597656 46.958984 63.716797 46.347656 63.0625 46 63zm4 0l-.158203.880859L49.652344 64.9375 50 65 50.800781 64.597656 50.958984 63.716797 50.347656 63.0625 50 63zm4 0l-.158203.880859L53.652344 64.9375 54 65 54.800781 64.597656 54.958984 63.716797 54.347656 63.0625 54 63zm4 0l-.158203.880859L57.652344 64.9375 58 65 58.800781 64.597656 58.958984 63.716797 58.347656 63.0625 58 63zm4 0l-.158203.880859L61.652344 64.9375 62 65 62.800781 64.597656 62.958984 63.716797 62.347656 63.0625 62 63zm4 0l-.158203.880859L65.652344 64.9375 66 65 66.800781 64.597656 66.958984 63.716797 66.347656 63.0625 66 63zm4 0l-.158203.880859L69.652344 64.9375 70 65 70.800781 64.597656 70.958984 63.716797 70.347656 63.0625 70 63zM74 63a1.0001 1.0001 0 100 2 1.0001 1.0001 0 100-2zM54 51a1.0001 1.0001 0 100 2 1.0001 1.0001 0 100-2zM57.199219 51.402344L57.041016 52.283203 57.652344 52.9375 58 53 58.800781 52.597656 58.958984 51.716797 58.347656 51.0625 58 51zm4 0l-.158203.880859L61.652344 52.9375 62 53 62.800781 52.597656 62.958984 51.716797 62.347656 51.0625 62 51zm4 0l-.158203.880859L65.652344 52.9375 66 53 66.800781 52.597656 66.958984 51.716797 66.347656 51.0625 66 51zm4 0l-.158203.880859L69.652344 52.9375 70 53 70.800781 52.597656 70.958984 51.716797 70.347656 51.0625 70 51zM74 51a1.0001 1.0001 0 100 2 1.0001 1.0001 0 100-2zM6 51a1.0001 1.0001 0 100 2 1.0001 1.0001 0 100-2zM9.1992188 51.402344L9.0410156 52.283203 9.6523438 52.9375 10 53 10.800781 52.597656 10.958984 51.716797 10.347656 51.0625 10 51zm4.0000002 0l-.158203.880859L13.652344 52.9375 14 53 14.800781 52.597656 14.958984 51.716797 14.347656 51.0625 14 51zm4 0l-.158203.880859L17.652344 52.9375 18 53 18.800781 52.597656 18.958984 51.716797 18.347656 51.0625 18 51zm4 0l-.158203.880859L21.652344 52.9375 22 53 22.800781 52.597656 22.958984 51.716797 22.347656 51.0625 22 51zM26 51a1.0001 1.0001 0 100 2 1.0001 1.0001 0 100-2z"/></svg>