<svg fill="#000000" xmlns="http://www.w3.org/2000/svg"  viewBox="0 0 80 80" width="80px" height="80px"><path d="M 69.007812 9.9863281 A 1.0001 1.0001 0 0 0 68.863281 10 L 55 10 A 1.0001 1.0001 0 1 0 55 12 L 66.607422 12 L 45.134766 33.472656 C 41.138346 29.830065 36.070115 28.005859 31 28.005859 C 25.623495 28.005859 20.246488 30.054294 16.150391 34.150391 A 1.0001 1.0001 0 1 0 17.564453 35.564453 C 24.992259 28.136647 37.007741 28.136647 44.435547 35.564453 C 51.863383 42.99229 51.863457 55.006686 44.435547 62.435547 A 1.0001 1.0001 0 1 0 45.849609 63.849609 C 53.801082 55.897119 54.033262 43.12172 46.548828 34.886719 L 68.021484 13.414062 L 68.021484 25 A 1.0001 1.0001 0 1 0 70.021484 25 L 70.021484 11.167969 A 1.0001 1.0001 0 0 0 69.886719 10.478516 A 1.0001 1.0001 0 0 0 69.4375 10.078125 A 1.0001 1.0001 0 0 0 69.298828 10.025391 A 1.0001 1.0001 0 0 0 69.007812 9.9863281 z M 47 10 L 46.199219 10.402344 L 46.041016 11.283203 L 46.652344 11.9375 L 47 12 L 47.800781 11.597656 L 47.958984 10.716797 L 47.347656 10.0625 L 47 10 z M 51 10 L 50.199219 10.402344 L 50.041016 11.283203 L 50.652344 11.9375 L 51 12 L 51.800781 11.597656 L 51.958984 10.716797 L 51.347656 10.0625 L 51 10 z M 69 28 L 68.199219 28.402344 L 68.041016 29.283203 L 68.652344 29.9375 L 69 30 L 69.800781 29.597656 L 69.958984 28.716797 L 69.347656 28.0625 L 69 28 z M 69 32 L 68.199219 32.402344 L 68.041016 33.283203 L 68.652344 33.9375 L 69 34 L 69.800781 33.597656 L 69.958984 32.716797 L 69.347656 32.0625 L 69 32 z M 14.328125 36.949219 L 13.527344 37.349609 L 13.369141 38.232422 L 13.980469 38.886719 L 14.328125 38.949219 L 15.128906 38.546875 L 15.287109 37.664062 L 14.675781 37.009766 L 14.328125 36.949219 z M 12.462891 40.480469 L 11.662109 40.882812 L 11.503906 41.763672 L 12.115234 42.417969 L 12.462891 42.480469 L 13.263672 42.080078 L 13.421875 41.197266 L 12.810547 40.542969 L 12.462891 40.480469 z M 11.347656 44.316406 L 10.546875 44.716797 L 10.388672 45.599609 L 11 46.253906 L 11.347656 46.316406 L 12.148438 45.914062 L 12.306641 45.033203 L 11.693359 44.376953 L 11.347656 44.316406 z M 11.013672 48.294922 L 10.212891 48.697266 L 10.054688 49.578125 L 10.667969 50.232422 L 11.013672 50.294922 L 11.816406 49.892578 L 11.972656 49.011719 L 11.361328 48.357422 L 11.013672 48.294922 z M 11.474609 52.259766 L 10.673828 52.662109 L 10.515625 53.542969 L 11.126953 54.199219 L 11.474609 54.259766 L 12.275391 53.859375 L 12.433594 52.976562 L 11.820312 52.322266 L 11.474609 52.259766 z M 12.710938 56.054688 L 11.910156 56.457031 L 11.751953 57.337891 L 12.363281 57.992188 L 12.710938 58.054688 L 13.511719 57.654297 L 13.669922 56.771484 L 13.056641 56.117188 L 12.710938 56.054688 z M 14.666016 59.535156 L 13.865234 59.9375 L 13.707031 60.820312 L 14.318359 61.474609 L 14.666016 61.535156 L 15.466797 61.134766 L 15.625 60.251953 L 15.011719 59.597656 L 14.666016 59.535156 z M 17.285156 62.548828 L 16.484375 62.949219 L 16.326172 63.832031 L 16.939453 64.486328 L 17.285156 64.548828 L 18.087891 64.146484 L 18.244141 63.265625 L 17.632812 62.611328 L 17.285156 62.548828 z M 43.013672 63.986328 L 42.212891 64.388672 L 42.054688 65.271484 L 42.666016 65.925781 L 43.013672 65.986328 L 43.814453 65.585938 L 43.972656 64.703125 L 43.359375 64.048828 L 43.013672 63.986328 z M 20.455078 64.976562 L 19.652344 65.376953 L 19.496094 66.259766 L 20.107422 66.914062 L 20.455078 66.976562 L 21.255859 66.574219 L 21.414062 65.691406 L 20.800781 65.037109 L 20.455078 64.976562 z M 39.589844 66.041016 L 38.789062 66.443359 L 38.630859 67.324219 L 39.244141 67.978516 L 39.589844 68.041016 L 40.392578 67.638672 L 40.548828 66.757812 L 39.9375 66.103516 L 39.589844 66.041016 z M 24.037109 66.732422 L 23.236328 67.132812 L 23.078125 68.015625 L 23.691406 68.669922 L 24.037109 68.732422 L 24.837891 68.330078 L 24.996094 67.449219 L 24.384766 66.794922 L 24.037109 66.732422 z M 35.833984 67.386719 L 35.033203 67.787109 L 34.875 68.669922 L 35.486328 69.324219 L 35.833984 69.386719 L 36.634766 68.984375 L 36.792969 68.101562 L 36.181641 67.447266 L 35.833984 67.386719 z M 27.900391 67.736328 L 27.099609 68.138672 L 26.941406 69.021484 L 27.552734 69.675781 L 27.900391 69.736328 L 28.701172 69.335938 L 28.859375 68.453125 L 28.246094 67.798828 L 27.900391 67.736328 z M 31.884766 67.957031 L 31.083984 68.359375 L 30.925781 69.240234 L 31.537109 69.894531 L 31.884766 69.957031 L 32.685547 69.556641 L 32.84375 68.673828 L 32.230469 68.019531 L 31.884766 67.957031 z"/></svg>