<svg fill="#000000" xmlns="http://www.w3.org/2000/svg"  viewBox="0 0 80 80" width="80px" height="80px"><path d="M 29 10 C 29 14.273438 31.457031 17.980469 35.03125 19.800781 C 28.636719 21.894531 24 27.910156 24 35 C 24 43.488281 30.644531 50.429688 39 50.949219 C 39 50.964844 39 50.984375 39 51 C 39 51.550781 39.449219 52 40 52 C 40.550781 52 41 51.550781 41 51 C 41 50.984375 40.996094 50.964844 40.996094 50.949219 C 49.355469 50.429688 56 43.488281 56 35 C 56 27.910156 51.363281 21.894531 44.96875 19.800781 C 48.542969 17.980469 51 14.273438 51 10 L 49 10 C 49 14.984375 44.984375 19 40 19 C 35.015625 19 31 14.984375 31 10 Z M 40 21 C 47.742188 21 54 27.257813 54 35 C 54 42.742188 47.742188 49 40 49 C 32.257813 49 26 42.742188 26 35 C 26 27.257813 32.257813 21 40 21 Z M 40 24 C 39.449219 24 39 24.449219 39 25 C 39 25.550781 39.449219 26 40 26 C 40.550781 26 41 25.550781 41 25 C 41 24.449219 40.550781 24 40 24 Z M 34.976563 25.339844 C 34.808594 25.34375 34.644531 25.390625 34.5 25.472656 C 34.269531 25.605469 34.101563 25.824219 34.03125 26.082031 C 33.964844 26.335938 34 26.609375 34.132813 26.839844 C 34.265625 27.070313 34.484375 27.238281 34.742188 27.304688 C 34.996094 27.375 35.269531 27.339844 35.5 27.203125 C 35.976563 26.929688 36.140625 26.316406 35.863281 25.839844 C 35.683594 25.523438 35.34375 25.332031 34.976563 25.339844 Z M 44.953125 25.34375 C 44.613281 25.359375 44.304688 25.546875 44.136719 25.839844 C 43.859375 26.316406 44.023438 26.929688 44.5 27.203125 C 44.976563 27.480469 45.589844 27.316406 45.863281 26.839844 C 46.140625 26.363281 45.976563 25.75 45.5 25.472656 C 45.335938 25.378906 45.144531 25.332031 44.953125 25.34375 Z M 48.636719 29 C 48.46875 29.003906 48.304688 29.050781 48.15625 29.132813 C 47.929688 29.265625 47.761719 29.484375 47.691406 29.742188 C 47.625 29.996094 47.660156 30.269531 47.792969 30.5 C 48.070313 30.976563 48.679688 31.140625 49.15625 30.863281 C 49.636719 30.589844 49.800781 29.976563 49.527344 29.5 C 49.34375 29.183594 49 28.992188 48.636719 29 Z M 31.292969 29 C 30.953125 29.019531 30.644531 29.207031 30.472656 29.5 C 30.339844 29.730469 30.304688 30.003906 30.371094 30.257813 C 30.441406 30.515625 30.609375 30.734375 30.839844 30.867188 C 31.316406 31.144531 31.929688 30.976563 32.203125 30.5 C 32.480469 30.023438 32.316406 29.410156 31.839844 29.136719 C 31.671875 29.039063 31.484375 28.992188 31.292969 29 Z M 30 34 C 29.449219 34 29 34.449219 29 35 C 29 35.550781 29.449219 36 30 36 C 30.550781 36 31 35.550781 31 35 C 31 34.449219 30.550781 34 30 34 Z M 50 34 C 49.449219 34 49 34.449219 49 35 C 49 35.550781 49.449219 36 50 36 C 50.550781 36 51 35.550781 51 35 C 51 34.449219 50.550781 34 50 34 Z M 31.316406 39 C 31.148438 39.003906 30.984375 39.050781 30.839844 39.132813 C 30.609375 39.265625 30.441406 39.484375 30.371094 39.742188 C 30.304688 39.996094 30.339844 40.269531 30.472656 40.5 C 30.605469 40.730469 30.824219 40.898438 31.082031 40.964844 C 31.335938 41.035156 31.609375 41 31.839844 40.863281 C 32.316406 40.589844 32.480469 39.976563 32.203125 39.5 C 32.023438 39.183594 31.683594 38.992188 31.316406 39 Z M 48.609375 39 C 48.273438 39.019531 47.964844 39.207031 47.792969 39.5 C 47.660156 39.730469 47.625 40.003906 47.691406 40.257813 C 47.761719 40.515625 47.929688 40.734375 48.15625 40.867188 C 48.386719 41 48.660156 41.035156 48.917969 40.96875 C 49.175781 40.898438 49.394531 40.730469 49.527344 40.5 C 49.800781 40.023438 49.636719 39.410156 49.15625 39.136719 C 48.992188 39.039063 48.800781 38.992188 48.609375 39 Z M 44.972656 42.65625 C 44.808594 42.664063 44.644531 42.707031 44.5 42.792969 C 44.019531 43.070313 43.855469 43.679688 44.132813 44.15625 C 44.410156 44.636719 45.019531 44.800781 45.5 44.527344 C 45.726563 44.394531 45.894531 44.175781 45.964844 43.917969 C 46.035156 43.660156 46 43.386719 45.863281 43.15625 C 45.683594 42.839844 45.339844 42.648438 44.972656 42.65625 Z M 34.953125 42.660156 C 34.613281 42.679688 34.304688 42.867188 34.132813 43.160156 C 34 43.390625 33.964844 43.664063 34.03125 43.917969 C 34.101563 44.175781 34.269531 44.394531 34.5 44.527344 C 34.726563 44.660156 35 44.695313 35.257813 44.628906 C 35.515625 44.558594 35.734375 44.390625 35.863281 44.160156 C 36.140625 43.683594 35.976563 43.070313 35.5 42.796875 C 35.332031 42.699219 35.140625 42.652344 34.953125 42.660156 Z M 40 44 C 39.449219 44 39 44.449219 39 45 C 39 45.550781 39.449219 46 40 46 C 40.550781 46 41 45.550781 41 45 C 41 44.449219 40.550781 44 40 44 Z M 40 54 C 39.449219 54 39 54.449219 39 55 C 39 55.550781 39.449219 56 40 56 C 40.550781 56 41 55.550781 41 55 C 41 54.449219 40.550781 54 40 54 Z M 40 58 C 39.449219 58 39 58.449219 39 59 L 39 64 L 33 64 L 33 66 L 39 66 L 39 72 L 41 72 L 41 66 L 47 66 L 47 64 L 41 64 L 41 59 C 41 58.449219 40.550781 58 40 58 Z"/></svg>