<svg fill="#000000" xmlns="http://www.w3.org/2000/svg"  viewBox="0 0 80 80" width="80px" height="80px"><path d="M 50 7 C 31.8 7 17 21.8 17 40 C 17 58.2 31.8 73 50 73 C 55.42 73 60.540781 71.689375 65.050781 69.359375 C 65.820781 68.969375 66.559062 68.549844 67.289062 68.089844 C 66.499062 67.799844 65.730469 67.480859 64.980469 67.130859 C 62.340469 65.910859 59.880156 64.320625 57.660156 62.390625 C 57.569444 62.312871 57.464844 62.263293 57.359375 62.222656 L 57.347656 62.208984 L 57.332031 62.207031 C 57.283354 62.189973 57.2337 62.189037 57.183594 62.179688 L 57 62.146484 L 56.982422 62.154297 C 56.709656 62.159098 56.441989 62.266247 56.25 62.490234 C 56.23843 62.503368 56.23536 62.519674 56.224609 62.533203 L 56.199219 62.546875 L 56.191406 62.591797 C 56.023824 62.835214 55.980926 63.119064 56.048828 63.388672 L 56.041016 63.429688 L 56.066406 63.457031 C 56.120475 63.621512 56.201524 63.778939 56.339844 63.900391 C 58.309844 65.610391 60.450234 67.069766 62.740234 68.259766 C 58.850234 70.019766 54.54 71 50 71 C 32.91 71 19 57.09 19 40 C 19 22.91 32.91 9 50 9 C 53.75 9 57.349453 9.6701562 60.689453 10.910156 C 59.159453 11.840156 57.709844 12.909609 56.339844 14.099609 C 55.929844 14.459609 55.88 15.089766 56.25 15.509766 C 56.61 15.929766 57.240156 15.969375 57.660156 15.609375 C 59.320156 14.169375 61.119531 12.909141 63.019531 11.869141 C 63.739531 11.459141 64.49 11.08 65.25 10.75 C 64.5 10.35 63.729453 9.9803906 62.939453 9.6503906 C 58.969453 7.9403906 54.59 7 50 7 z M 55.035156 15.730469 L 54.232422 16.132812 L 54.076172 17.013672 L 54.6875 17.667969 L 55.035156 17.730469 L 55.835938 17.330078 L 55.994141 16.447266 L 55.380859 15.792969 L 55.035156 15.730469 z M 52.427734 18.761719 L 51.626953 19.162109 L 51.46875 20.044922 L 52.080078 20.699219 L 52.427734 20.761719 L 53.228516 20.359375 L 53.386719 19.478516 L 52.775391 18.822266 L 52.427734 18.761719 z M 50.234375 22.103516 L 49.433594 22.503906 L 49.275391 23.386719 L 49.886719 24.041016 L 50.234375 24.103516 L 51.035156 23.701172 L 51.193359 22.818359 L 50.582031 22.164062 L 50.234375 22.103516 z M 48.464844 25.685547 L 47.664062 26.087891 L 47.505859 26.96875 L 48.117188 27.623047 L 48.464844 27.685547 L 49.265625 27.285156 L 49.423828 26.402344 L 48.810547 25.748047 L 48.464844 25.685547 z M 47.15625 29.462891 L 46.353516 29.863281 L 46.197266 30.746094 L 46.808594 31.400391 L 47.15625 31.462891 L 47.957031 31.060547 L 48.115234 30.179688 L 47.501953 29.525391 L 47.15625 29.462891 z M 46.34375 33.376953 L 45.542969 33.777344 L 45.384766 34.660156 L 45.996094 35.314453 L 46.34375 35.376953 L 47.144531 34.974609 L 47.302734 34.09375 L 46.689453 33.4375 L 46.34375 33.376953 z M 46.017578 37.359375 L 45.216797 37.761719 L 45.058594 38.642578 L 45.669922 39.296875 L 46.017578 39.359375 L 46.818359 38.958984 L 46.976562 38.076172 L 46.365234 37.421875 L 46.017578 37.359375 z M 46.179688 41.353516 L 45.376953 41.753906 L 45.220703 42.636719 L 45.832031 43.291016 L 46.179688 43.353516 L 46.980469 42.951172 L 47.138672 42.070312 L 46.525391 41.416016 L 46.179688 41.353516 z M 46.841797 45.294922 L 46.041016 45.697266 L 45.882812 46.578125 L 46.494141 47.232422 L 46.841797 47.294922 L 47.642578 46.892578 L 47.800781 46.011719 L 47.189453 45.357422 L 46.841797 45.294922 z M 47.998047 49.121094 L 47.197266 49.521484 L 47.039062 50.404297 L 47.650391 51.058594 L 47.998047 51.121094 L 48.798828 50.71875 L 48.957031 49.837891 L 48.34375 49.183594 L 47.998047 49.121094 z M 49.615234 52.775391 L 48.814453 53.177734 L 48.65625 54.058594 L 49.267578 54.714844 L 49.615234 54.775391 L 50.416016 54.375 L 50.574219 53.492188 L 49.960938 52.837891 L 49.615234 52.775391 z M 51.683594 56.195312 L 50.882812 56.597656 L 50.724609 57.480469 L 51.335938 58.134766 L 51.683594 58.195312 L 52.484375 57.794922 L 52.642578 56.912109 L 52.029297 56.257812 L 51.683594 56.195312 z M 54.160156 59.332031 L 53.359375 59.734375 L 53.201172 60.615234 L 53.814453 61.269531 L 54.160156 61.332031 L 54.962891 60.929688 L 55.119141 60.048828 L 54.507812 59.394531 L 54.160156 59.332031 z"/></svg>