<svg fill="#000000" xmlns="http://www.w3.org/2000/svg"  viewBox="0 0 80 80" width="80px" height="80px"><path d="M 64 8 L 63.199219 8.4023438 L 63.041016 9.2832031 L 63.652344 9.9375 L 64 10 L 64.800781 9.5976562 L 64.958984 8.7167969 L 64.347656 8.0625 L 64 8 z M 40 9 L 39.199219 9.4023438 L 39.041016 10.283203 L 39.652344 10.9375 L 40 11 L 40.800781 10.597656 L 40.958984 9.7167969 L 40.347656 9.0625 L 40 9 z M 16 9.0019531 L 15.199219 9.4023438 L 15.041016 10.285156 L 15.652344 10.939453 L 16 11.001953 L 16.800781 10.599609 L 16.958984 9.71875 L 16.347656 9.0644531 L 16 9.0019531 z M 64 12 L 63.199219 12.402344 L 63.041016 13.283203 L 63.652344 13.9375 L 64 14 L 64.800781 13.597656 L 64.958984 12.716797 L 64.347656 12.0625 L 64 12 z M 40 13 L 39.199219 13.402344 L 39.041016 14.283203 L 39.652344 14.9375 L 40 15 L 40.800781 14.597656 L 40.958984 13.716797 L 40.347656 13.0625 L 40 13 z M 16 13.001953 L 15.199219 13.402344 L 15.041016 14.285156 L 15.652344 14.939453 L 16 15.001953 L 16.800781 14.599609 L 16.958984 13.71875 L 16.347656 13.064453 L 16 13.001953 z M 64 16 L 63.199219 16.402344 L 63.041016 17.283203 L 63.652344 17.9375 L 64 18 L 64.800781 17.597656 L 64.958984 16.716797 L 64.347656 16.0625 L 64 16 z M 40 17 L 39.199219 17.402344 L 39.041016 18.283203 L 39.652344 18.9375 L 40 19 L 40.800781 18.597656 L 40.958984 17.716797 L 40.347656 17.0625 L 40 17 z M 16 17.001953 L 15.199219 17.402344 L 15.041016 18.285156 L 15.652344 18.939453 L 16 19.001953 L 16.800781 18.599609 L 16.958984 17.71875 L 16.347656 17.064453 L 16 17.001953 z M 64 20 L 63.199219 20.402344 L 63.041016 21.283203 L 63.652344 21.9375 L 64 22 L 64.800781 21.597656 L 64.958984 20.716797 L 64.347656 20.0625 L 64 20 z M 40 21 L 39.199219 21.402344 L 39.041016 22.283203 L 39.652344 22.9375 L 40 23 L 40.800781 22.597656 L 40.958984 21.716797 L 40.347656 21.0625 L 40 21 z M 16 21.001953 L 15.199219 21.402344 L 15.041016 22.285156 L 15.652344 22.939453 L 16 23.001953 L 16.800781 22.599609 L 16.958984 21.71875 L 16.347656 21.064453 L 16 21.001953 z M 63.958984 24 L 63.158203 24.400391 L 63 25.283203 L 63.113281 25.404297 A 1.0006008 1.0006008 0 0 0 62.919922 25.916016 C 61.965227 37.348135 52.555872 46.473674 41 46.974609 L 41 34 A 1.0001 1.0001 0 0 0 39.984375 32.986328 A 1.0001 1.0001 0 0 0 39 34 L 39 46.974609 C 27.444128 46.473674 18.034773 37.348135 17.080078 25.916016 A 1.0001 1.0001 0 0 0 16.083984 24.986328 A 1.0001 1.0001 0 0 0 15.085938 26.083984 C 16.126392 38.543061 26.407471 48.474485 39 48.976562 L 39 61 L 31 61 A 1.0001 1.0001 0 1 0 31 63 L 39 63 L 39 72 A 1.0001 1.0001 0 1 0 41 72 L 41 63 L 49 63 A 1.0001 1.0001 0 1 0 49 61 L 41 61 L 41 48.976562 C 53.592529 48.474485 63.873608 38.543061 64.914062 26.083984 A 1.0006008 1.0006008 0 0 0 64.779297 25.492188 L 64.917969 24.714844 L 64.304688 24.060547 L 63.958984 24 z M 40 25 L 39.199219 25.402344 L 39.041016 26.283203 L 39.652344 26.9375 L 40 27 L 40.800781 26.597656 L 40.958984 25.716797 L 40.347656 25.0625 L 40 25 z M 40 29 L 39.199219 29.402344 L 39.041016 30.283203 L 39.652344 30.9375 L 40 31 L 40.800781 30.597656 L 40.958984 29.716797 L 40.347656 29.0625 L 40 29 z M 23 61 L 22.199219 61.402344 L 22.041016 62.283203 L 22.652344 62.9375 L 23 63 L 23.800781 62.597656 L 23.958984 61.716797 L 23.347656 61.0625 L 23 61 z M 27 61 L 26.199219 61.402344 L 26.041016 62.283203 L 26.652344 62.9375 L 27 63 L 27.800781 62.597656 L 27.958984 61.716797 L 27.347656 61.0625 L 27 61 z M 53 61 L 52.199219 61.402344 L 52.041016 62.283203 L 52.652344 62.9375 L 53 63 L 53.800781 62.597656 L 53.958984 61.716797 L 53.347656 61.0625 L 53 61 z M 57 61 L 56.199219 61.402344 L 56.041016 62.283203 L 56.652344 62.9375 L 57 63 L 57.800781 62.597656 L 57.958984 61.716797 L 57.347656 61.0625 L 57 61 z"/></svg>