<svg fill="#000000" xmlns="http://www.w3.org/2000/svg"  viewBox="0 0 80 80" width="80px" height="80px"><path d="M 19.007812 6.9902344 A 1.0001 1.0001 0 0 0 18.28125 8.6953125 C 18.28125 8.6953125 28.499263 19.353631 28.923828 39 L 19 39 A 1.0001 1.0001 0 1 0 19 41 L 28.949219 41 C 28.657961 60.892895 18.292969 71.292969 18.292969 71.292969 A 1.0001 1.0001 0 1 0 19.707031 72.707031 C 19.707031 72.707031 30.650599 61.607878 30.947266 41 L 49.052734 41 C 49.349401 61.607878 60.292969 72.707031 60.292969 72.707031 A 1.0001 1.0001 0 1 0 61.707031 71.292969 C 61.707031 71.292969 51.342039 60.892895 51.050781 41 L 61 41 A 1.0001 1.0001 0 1 0 61 39 L 51.076172 39 C 51.500737 19.353631 61.71875 8.6953125 61.71875 8.6953125 A 1.0001 1.0001 0 1 0 60.28125 7.3046875 C 60.28125 7.3046875 49.509957 18.6359 49.078125 39 L 30.921875 39 C 30.490043 18.6359 19.71875 7.3046875 19.71875 7.3046875 A 1.0001 1.0001 0 0 0 19.007812 6.9902344 z M 64 9 L 63.199219 9.4023438 L 63.041016 10.283203 L 63.652344 10.9375 L 64 11 L 64.800781 10.597656 L 64.958984 9.7167969 L 64.347656 9.0625 L 64 9 z M 15.960938 9.2128906 L 15.160156 9.6152344 L 15.001953 10.496094 L 15.615234 11.150391 L 15.960938 11.212891 L 16.761719 10.810547 L 16.919922 9.9296875 L 16.308594 9.2753906 L 15.960938 9.2128906 z M 61.851562 12.373047 L 61.050781 12.773438 L 60.892578 13.65625 L 61.503906 14.310547 L 61.851562 14.373047 L 62.652344 13.970703 L 62.810547 13.089844 L 62.199219 12.435547 L 61.851562 12.373047 z M 18.015625 12.644531 L 17.214844 13.046875 L 17.056641 13.927734 L 17.667969 14.582031 L 18.015625 14.644531 L 18.816406 14.244141 L 18.974609 13.361328 L 18.363281 12.707031 L 18.015625 12.644531 z M 59.921875 15.875 L 59.119141 16.275391 L 58.962891 17.158203 L 59.574219 17.8125 L 59.921875 17.875 L 60.722656 17.472656 L 60.880859 16.591797 L 60.267578 15.9375 L 59.921875 15.875 z M 20 16.117188 L 19.199219 16.519531 L 19.041016 17.400391 L 19.654297 18.054688 L 20 18.117188 L 20.802734 17.716797 L 20.958984 16.833984 L 20.347656 16.179688 L 20 16.117188 z M 58.21875 19.492188 L 57.417969 19.894531 L 57.259766 20.775391 L 57.873047 21.431641 L 58.21875 21.492188 L 59.019531 21.091797 L 59.177734 20.208984 L 58.566406 19.554688 L 58.21875 19.492188 z M 21.894531 19.640625 L 21.09375 20.042969 L 20.935547 20.923828 L 21.546875 21.578125 L 21.894531 21.640625 L 22.695312 21.238281 L 22.853516 20.357422 L 22.242188 19.703125 L 21.894531 19.640625 z M 56.785156 23.224609 L 55.982422 23.626953 L 55.826172 24.509766 L 56.4375 25.164062 L 56.785156 25.224609 L 57.585938 24.824219 L 57.744141 23.941406 L 57.130859 23.287109 L 56.785156 23.224609 z M 23.482422 23.308594 L 22.681641 23.708984 L 22.523438 24.591797 L 23.134766 25.246094 L 23.482422 25.308594 L 24.283203 24.90625 L 24.441406 24.025391 L 23.830078 23.371094 L 23.482422 23.308594 z M 55.599609 27.044922 L 54.798828 27.447266 L 54.640625 28.328125 L 55.253906 28.982422 L 55.599609 29.044922 L 56.400391 28.642578 L 56.558594 27.761719 L 55.947266 27.107422 L 55.599609 27.044922 z M 24.691406 27.119141 L 23.890625 27.519531 L 23.732422 28.402344 L 24.34375 29.056641 L 24.691406 29.119141 L 25.492188 28.716797 L 25.650391 27.835938 L 25.039062 27.179688 L 24.691406 27.119141 z M 54.677734 30.935547 L 53.876953 31.337891 L 53.71875 32.21875 L 54.332031 32.873047 L 54.677734 32.935547 L 55.478516 32.535156 L 55.636719 31.652344 L 55.025391 30.998047 L 54.677734 30.935547 z M 25.523438 31.029297 L 24.722656 31.431641 L 24.564453 32.3125 L 25.175781 32.966797 L 25.523438 33.029297 L 26.324219 32.628906 L 26.482422 31.746094 L 25.871094 31.091797 L 25.523438 31.029297 z M 54.019531 34.880859 L 53.216797 35.28125 L 53.060547 36.164062 L 53.671875 36.818359 L 54.019531 36.880859 L 54.820312 36.478516 L 54.978516 35.597656 L 54.365234 34.943359 L 54.019531 34.880859 z M 26 35 L 25.199219 35.402344 L 25.041016 36.283203 L 25.652344 36.9375 L 26 37 L 26.800781 36.597656 L 26.958984 35.716797 L 26.347656 35.0625 L 26 35 z M 25.662109 42.945312 L 24.859375 43.345703 L 24.703125 44.228516 L 25.314453 44.882812 L 25.662109 44.945312 L 26.462891 44.542969 L 26.621094 43.662109 L 26.007812 43.007812 L 25.662109 42.945312 z M 54.152344 43 L 53.351562 43.402344 L 53.193359 44.283203 L 53.804688 44.9375 L 54.152344 45 L 54.953125 44.597656 L 55.111328 43.716797 L 54.498047 43.0625 L 54.152344 43 z M 25.216797 46.917969 L 24.416016 47.320312 L 24.257812 48.201172 L 24.869141 48.855469 L 25.216797 48.917969 L 26.017578 48.517578 L 26.175781 47.634766 L 25.564453 46.980469 L 25.216797 46.917969 z M 54.638672 46.96875 L 53.837891 47.371094 L 53.679688 48.251953 L 54.292969 48.90625 L 54.638672 48.96875 L 55.439453 48.566406 L 55.597656 47.685547 L 54.986328 47.03125 L 54.638672 46.96875 z M 24.402344 50.832031 L 23.601562 51.234375 L 23.443359 52.115234 L 24.056641 52.771484 L 24.402344 52.832031 L 25.203125 52.431641 L 25.361328 51.548828 L 24.75 50.894531 L 24.402344 50.832031 z M 55.474609 50.878906 L 54.673828 51.28125 L 54.515625 52.162109 L 55.126953 52.816406 L 55.474609 52.878906 L 56.275391 52.478516 L 56.433594 51.595703 L 55.820312 50.941406 L 55.474609 50.878906 z M 23.269531 54.666016 L 22.46875 55.068359 L 22.310547 55.951172 L 22.923828 56.605469 L 23.269531 56.666016 L 24.072266 56.265625 L 24.228516 55.382812 L 23.617188 54.728516 L 23.269531 54.666016 z M 56.677734 54.693359 L 55.876953 55.09375 L 55.71875 55.976562 L 56.330078 56.630859 L 56.677734 56.693359 L 57.478516 56.291016 L 57.636719 55.408203 L 57.023438 54.753906 L 56.677734 54.693359 z M 21.785156 58.378906 L 20.984375 58.78125 L 20.826172 59.662109 L 21.439453 60.318359 L 21.785156 60.378906 L 22.587891 59.978516 L 22.744141 59.095703 L 22.132812 58.441406 L 21.785156 58.378906 z M 58.207031 58.386719 L 57.40625 58.787109 L 57.248047 59.669922 L 57.859375 60.324219 L 58.207031 60.386719 L 59.007812 59.984375 L 59.166016 59.101562 L 58.554688 58.447266 L 58.207031 58.386719 z M 60.042969 61.9375 L 59.242188 62.339844 L 59.083984 63.222656 L 59.695312 63.876953 L 60.042969 63.9375 L 60.84375 63.537109 L 61.001953 62.654297 L 60.390625 62 L 60.042969 61.9375 z M 19.994141 61.953125 L 19.193359 62.355469 L 19.035156 63.236328 L 19.648438 63.892578 L 19.994141 63.953125 L 20.794922 63.552734 L 20.953125 62.669922 L 20.341797 62.015625 L 19.994141 61.953125 z M 62.189453 65.310547 L 61.388672 65.712891 L 61.230469 66.595703 L 61.841797 67.25 L 62.189453 67.310547 L 62.990234 66.910156 L 63.148438 66.027344 L 62.537109 65.373047 L 62.189453 65.310547 z M 17.898438 65.357422 L 17.095703 65.759766 L 16.939453 66.640625 L 17.550781 67.294922 L 17.898438 67.357422 L 18.699219 66.957031 L 18.857422 66.074219 L 18.244141 65.419922 L 17.898438 65.357422 z M 64.619141 68.486328 L 63.818359 68.888672 L 63.660156 69.771484 L 64.271484 70.425781 L 64.619141 70.486328 L 65.419922 70.085938 L 65.578125 69.203125 L 64.966797 68.548828 L 64.619141 68.486328 z M 15.449219 68.515625 L 14.648438 68.917969 L 14.490234 69.798828 L 15.101562 70.453125 L 15.449219 70.515625 L 16.25 70.115234 L 16.408203 69.232422 L 15.796875 68.578125 L 15.449219 68.515625 z"/></svg>