<svg fill="#000000" xmlns="http://www.w3.org/2000/svg"  viewBox="0 0 80 80" width="80px" height="80px"><path d="M 68.980469 9.9902344 A 1.0001 1.0001 0 0 0 68.869141 10 L 50 10 A 1.0001 1.0001 0 0 0 49.666016 10.054688 L 49.363281 10 L 48.5625 10.402344 L 48.404297 11.283203 L 49.017578 11.9375 L 49.363281 12 L 49.556641 11.902344 A 1.0001 1.0001 0 0 0 50 12 L 66.585938 12 L 26.818359 51.767578 L 19.707031 44.65625 A 1.0001 1.0001 0 0 0 18.990234 44.353516 A 1.0001 1.0001 0 0 0 18.292969 46.070312 L 25.404297 53.181641 L 16.292969 62.292969 A 1.0001 1.0001 0 0 0 16.056641 62.642578 L 15.855469 62.744141 L 15.697266 63.626953 L 16.310547 64.28125 L 16.65625 64.34375 L 17.457031 63.941406 L 17.466797 63.890625 A 1.0001 1.0001 0 0 0 17.707031 63.707031 L 26.818359 54.595703 L 33.929688 61.707031 A 1.0001 1.0001 0 1 0 35.34375 60.292969 L 28.232422 53.181641 L 68 13.414062 L 68 30 A 1.0001 1.0001 0 1 0 70 30 L 70 11.126953 A 1.0001 1.0001 0 0 0 68.980469 9.9902344 z M 37.363281 10 L 36.5625 10.402344 L 36.404297 11.283203 L 37.017578 11.9375 L 37.363281 12 L 38.166016 11.597656 L 38.322266 10.716797 L 37.710938 10.0625 L 37.363281 10 z M 41.363281 10 L 40.5625 10.402344 L 40.404297 11.283203 L 41.017578 11.9375 L 41.363281 12 L 42.166016 11.597656 L 42.322266 10.716797 L 41.710938 10.0625 L 41.363281 10 z M 45.363281 10 L 44.5625 10.402344 L 44.404297 11.283203 L 45.017578 11.9375 L 45.363281 12 L 46.166016 11.597656 L 46.322266 10.716797 L 45.710938 10.0625 L 45.363281 10 z M 69 33 L 68.199219 33.402344 L 68.041016 34.283203 L 68.652344 34.9375 L 69 35 L 69.800781 34.597656 L 69.958984 33.716797 L 69.347656 33.0625 L 69 33 z M 69 37 L 68.199219 37.402344 L 68.041016 38.283203 L 68.652344 38.9375 L 69 39 L 69.800781 38.597656 L 69.958984 37.716797 L 69.347656 37.0625 L 69 37 z M 13.636719 39 L 12.833984 39.402344 L 12.677734 40.283203 L 13.289062 40.9375 L 13.636719 41 L 14.4375 40.597656 L 14.595703 39.716797 L 13.982422 39.0625 L 13.636719 39 z M 69 41 L 68.199219 41.402344 L 68.041016 42.283203 L 68.652344 42.9375 L 69 43 L 69.800781 42.597656 L 69.958984 41.716797 L 69.347656 41.0625 L 69 41 z M 16.464844 41.828125 L 15.664062 42.230469 L 15.505859 43.111328 L 16.117188 43.765625 L 16.464844 43.828125 L 17.265625 43.427734 L 17.423828 42.544922 L 16.810547 41.890625 L 16.464844 41.828125 z M 37.546875 62.744141 L 36.746094 63.144531 L 36.587891 64.027344 L 37.199219 64.681641 L 37.546875 64.744141 L 38.347656 64.341797 L 38.505859 63.460938 L 37.892578 62.806641 L 37.546875 62.744141 z M 13.828125 65.171875 L 13.027344 65.572266 L 12.869141 66.455078 L 13.482422 67.109375 L 13.828125 67.171875 L 14.628906 66.769531 L 14.787109 65.888672 L 14.175781 65.234375 L 13.828125 65.171875 z M 40.457031 65.488281 L 39.65625 65.888672 L 39.498047 66.771484 L 40.109375 67.425781 L 40.457031 67.488281 L 41.257812 67.085938 L 41.416016 66.205078 L 40.804688 65.550781 L 40.457031 65.488281 z M 11 68 L 10.199219 68.402344 L 10.041016 69.283203 L 10.652344 69.9375 L 11 70 L 11.800781 69.597656 L 11.958984 68.716797 L 11.347656 68.0625 L 11 68 z"/></svg>