<svg fill="#000000" xmlns="http://www.w3.org/2000/svg"  viewBox="0 0 80 80" width="80px" height="80px"><path d="M 28.984375 4.9863281 A 1.0001 1.0001 0 0 0 28 6 L 28 20 L 17 20 A 1.0001 1.0001 0 1 0 17 22 L 28 22 L 28 48.763672 L 28 67.5 A 1.0001 1.0001 0 1 0 30 67.5 L 30 48.806641 A 1.0001 1.0001 0 0 0 30 48.736328 C 29.908835 42.218512 35.314883 36.874096 41.730469 37 C 48.06325 37.124064 53.219163 42.537403 53 48.966797 L 53 48.982422 L 53 53 A 1.0001 1.0001 0 1 0 55 53 L 55 49.033203 C 55.256837 41.498597 49.21875 35.145936 41.769531 35 C 36.816196 34.902792 32.428856 37.599346 30 41.605469 L 30 22 L 41 22 A 1.0001 1.0001 0 1 0 41 20 L 30 20 L 30 6 A 1.0001 1.0001 0 0 0 28.984375 4.9863281 z M 9 20 L 8.1992188 20.402344 L 8.0410156 21.283203 L 8.6523438 21.9375 L 9 22 L 9.8007812 21.597656 L 9.9589844 20.716797 L 9.3476562 20.0625 L 9 20 z M 13 20 L 12.199219 20.402344 L 12.041016 21.283203 L 12.652344 21.9375 L 13 22 L 13.800781 21.597656 L 13.958984 20.716797 L 13.347656 20.0625 L 13 20 z M 45 20 L 44.199219 20.402344 L 44.041016 21.283203 L 44.652344 21.9375 L 45 22 L 45.800781 21.597656 L 45.958984 20.716797 L 45.347656 20.0625 L 45 20 z M 49 20 L 48.199219 20.402344 L 48.041016 21.283203 L 48.652344 21.9375 L 49 22 L 49.800781 21.597656 L 49.958984 20.716797 L 49.347656 20.0625 L 49 20 z M 54.154297 55.996094 L 53.353516 56.398438 L 53.195312 57.28125 L 53.806641 57.935547 L 54.154297 57.996094 L 54.955078 57.595703 L 55.113281 56.712891 L 54.5 56.058594 L 54.154297 55.996094 z M 54.306641 59.994141 L 53.505859 60.396484 L 53.347656 61.277344 L 53.960938 61.931641 L 54.306641 61.994141 L 55.109375 61.591797 L 55.265625 60.710938 L 54.654297 60.056641 L 54.306641 59.994141 z M 54.460938 63.990234 L 53.660156 64.392578 L 53.501953 65.275391 L 54.113281 65.929688 L 54.460938 65.990234 L 55.261719 65.589844 L 55.419922 64.707031 L 54.808594 64.052734 L 54.460938 63.990234 z M 55.003906 67.933594 L 54.203125 68.333984 L 54.044922 69.216797 L 54.65625 69.871094 L 55.003906 69.933594 L 55.804688 69.53125 L 55.962891 68.650391 L 55.349609 67.996094 L 55.003906 67.933594 z M 57.095703 71.302734 L 56.294922 71.705078 L 56.136719 72.585938 L 56.748047 73.240234 L 57.095703 73.302734 L 57.896484 72.902344 L 58.054688 72.019531 L 57.441406 71.365234 L 57.095703 71.302734 z M 68.125 72.697266 L 67.324219 73.097656 L 67.166016 73.980469 L 67.779297 74.634766 L 68.125 74.697266 L 68.927734 74.294922 L 69.083984 73.412109 L 68.472656 72.757812 L 68.125 72.697266 z M 60.431641 73.447266 L 59.630859 73.847656 L 59.472656 74.730469 L 60.085938 75.384766 L 60.431641 75.447266 L 61.232422 75.044922 L 61.390625 74.164062 L 60.779297 73.509766 L 60.431641 73.447266 z M 64.363281 73.949219 L 63.5625 74.349609 L 63.404297 75.232422 L 64.017578 75.886719 L 64.363281 75.949219 L 65.166016 75.546875 L 65.322266 74.666016 L 64.710938 74.009766 L 64.363281 73.949219 z"/></svg>