<svg fill="#000000" xmlns="http://www.w3.org/2000/svg"  viewBox="0 0 80 80" width="80px" height="80px"><path d="M 10.011719 7.9941406 A 1.0001 1.0001 0 0 0 9.5117188 9.8730469 C 9.5117188 9.8730469 17 13.988003 17 23.816406 L 17 61 A 1.0001 1.0001 0 1 0 19 61 L 19 23.816406 C 19 23.548546 18.937844 23.328901 18.927734 23.068359 A 1.0001 1.0001 0 0 0 19 22.683594 C 19 20.786241 20.508597 17.382526 22.433594 14.652344 C 23.396092 13.287253 24.451239 12.067383 25.402344 11.224609 C 26.353449 10.381836 27.23813 10 27.5 10 C 27.700823 10 28.606689 10.420632 29.564453 11.349609 C 30.522217 12.278586 31.585607 13.607188 32.554688 15.048828 C 33.523767 16.490468 34.403817 18.049673 35.029297 19.4375 C 35.654777 20.825327 36 22.082363 36 22.683594 L 36 61 A 1.0001 1.0001 0 1 0 38 61 L 38 22.683594 C 38 22.668474 37.99624 22.651887 37.996094 22.636719 A 1.0001 1.0001 0 0 0 38 22.542969 C 38 20.674332 39.505453 17.304189 41.429688 14.603516 C 42.391804 13.253179 43.447603 12.046618 44.398438 11.212891 C 45.349272 10.379164 46.232951 10 46.5 10 C 46.706608 10 47.610946 10.416964 48.568359 11.335938 C 49.525773 12.25491 50.587888 13.569921 51.556641 14.996094 C 52.525393 16.422267 53.406223 17.963488 54.03125 19.335938 C 54.656277 20.708385 55 21.954095 55 22.542969 L 55 49.625 C 55 56.530717 56.40177 61.583173 59.722656 64.890625 C 60.967989 66.13092 62.457736 67.100362 64.197266 67.828125 C 64.487187 67.949419 64.784072 68.063896 65.087891 68.171875 C 67.250696 68.94055 69.771468 69.371415 72.648438 69.519531 L 68.875 73.292969 A 1.0005839 1.0005839 0 1 0 70.291016 74.707031 L 75.626953 69.371094 A 1.0001 1.0001 0 0 0 75.623047 67.789062 A 1.0001 1.0001 0 0 0 75.617188 67.785156 L 70.291016 62.458984 A 1.0001 1.0001 0 0 0 69.572266 62.15625 A 1.0001 1.0001 0 0 0 68.875 63.875 L 72.509766 67.509766 C 67.239112 67.20671 63.563622 65.895586 61.132812 63.474609 C 58.335449 60.688562 57 56.261283 57 49.625 L 57 22.542969 A 1.0001 1.0001 0 0 0 56.996094 22.443359 A 1.0001 1.0001 0 0 0 56.841797 21.988281 C 56.735461 20.923552 56.441149 19.802437 55.851562 18.507812 C 55.167997 17.006823 54.23906 15.384671 53.210938 13.871094 C 52.182814 12.357517 51.060555 10.955544 49.953125 9.8925781 C 48.845695 8.8296127 47.805892 8 46.5 8 C 45.254549 8 44.194087 8.73218 43.080078 9.7089844 C 41.966069 10.685789 40.835539 11.989118 39.800781 13.441406 C 38.626763 15.089147 37.575038 16.89578 36.873047 18.662109 C 36.865869 18.646111 36.860743 18.63127 36.853516 18.615234 C 36.170402 17.09953 35.242638 15.462579 34.214844 13.933594 C 33.187049 12.404609 32.064111 10.987867 30.957031 9.9140625 C 29.849952 8.8402582 28.811677 8 27.5 8 C 26.24937 8 25.189911 8.7396795 24.076172 9.7265625 C 22.962433 10.713445 21.833205 12.032966 20.798828 13.5 C 19.747174 14.991539 18.789406 16.611287 18.095703 18.214844 C 15.945572 11.325628 10.488281 8.1269531 10.488281 8.1269531 A 1.0001 1.0001 0 0 0 10.011719 7.9941406 z M 6 10 L 5.1992188 10.402344 L 5.0410156 11.283203 L 5.6523438 11.9375 L 6 12 L 6.8007812 11.597656 L 6.9589844 10.716797 L 6.3476562 10.0625 L 6 10 z M 9.0605469 12.560547 L 8.2597656 12.962891 L 8.1015625 13.84375 L 8.7128906 14.498047 L 9.0605469 14.560547 L 9.8613281 14.160156 L 10.019531 13.277344 L 9.40625 12.623047 L 9.0605469 12.560547 z M 11.482422 15.734375 L 10.681641 16.134766 L 10.523438 17.017578 L 11.136719 17.671875 L 11.482422 17.734375 L 12.283203 17.332031 L 12.441406 16.449219 L 11.830078 15.794922 L 11.482422 15.734375 z M 13.123047 19.371094 L 12.322266 19.773438 L 12.164062 20.65625 L 12.775391 21.310547 L 13.123047 21.371094 L 13.923828 20.970703 L 14.082031 20.087891 L 13.46875 19.433594 L 13.123047 19.371094 z M 52 22 L 51.199219 22.402344 L 51.041016 23.283203 L 51.652344 23.9375 L 52 24 L 52.800781 23.597656 L 52.958984 22.716797 L 52.347656 22.0625 L 52 22 z M 33 23 L 32.199219 23.402344 L 32.041016 24.283203 L 32.652344 24.9375 L 33 25 L 33.800781 24.597656 L 33.958984 23.716797 L 33.347656 23.0625 L 33 23 z M 13.917969 23.283203 L 13.117188 23.683594 L 12.958984 24.566406 L 13.570312 25.220703 L 13.917969 25.283203 L 14.71875 24.880859 L 14.876953 24 L 14.263672 23.34375 L 13.917969 23.283203 z M 52 26 L 51.199219 26.402344 L 51.041016 27.283203 L 51.652344 27.9375 L 52 28 L 52.800781 27.597656 L 52.958984 26.716797 L 52.347656 26.0625 L 52 26 z M 33 27 L 32.199219 27.402344 L 32.041016 28.283203 L 32.652344 28.9375 L 33 29 L 33.800781 28.597656 L 33.958984 27.716797 L 33.347656 27.0625 L 33 27 z M 14 27.28125 L 13.199219 27.681641 L 13.041016 28.564453 L 13.652344 29.21875 L 14 29.28125 L 14.800781 28.878906 L 14.958984 27.998047 L 14.347656 27.341797 L 14 27.28125 z M 52 30 L 51.199219 30.402344 L 51.041016 31.283203 L 51.652344 31.9375 L 52 32 L 52.800781 31.597656 L 52.958984 30.716797 L 52.347656 30.0625 L 52 30 z M 33 31 L 32.199219 31.402344 L 32.041016 32.283203 L 32.652344 32.9375 L 33 33 L 33.800781 32.597656 L 33.958984 31.716797 L 33.347656 31.0625 L 33 31 z M 14 31.28125 L 13.199219 31.681641 L 13.041016 32.564453 L 13.652344 33.21875 L 14 33.28125 L 14.800781 32.878906 L 14.958984 31.998047 L 14.347656 31.341797 L 14 31.28125 z M 52 34 L 51.199219 34.402344 L 51.041016 35.283203 L 51.652344 35.9375 L 52 36 L 52.800781 35.597656 L 52.958984 34.716797 L 52.347656 34.0625 L 52 34 z M 33 35 L 32.199219 35.402344 L 32.041016 36.283203 L 32.652344 36.9375 L 33 37 L 33.800781 36.597656 L 33.958984 35.716797 L 33.347656 35.0625 L 33 35 z M 14 35.28125 L 13.199219 35.681641 L 13.041016 36.564453 L 13.652344 37.21875 L 14 37.28125 L 14.800781 36.878906 L 14.958984 35.998047 L 14.347656 35.341797 L 14 35.28125 z M 52 38 L 51.199219 38.402344 L 51.041016 39.283203 L 51.652344 39.9375 L 52 40 L 52.800781 39.597656 L 52.958984 38.716797 L 52.347656 38.0625 L 52 38 z M 33 39 L 32.199219 39.402344 L 32.041016 40.283203 L 32.652344 40.9375 L 33 41 L 33.800781 40.597656 L 33.958984 39.716797 L 33.347656 39.0625 L 33 39 z M 14 39.28125 L 13.199219 39.681641 L 13.041016 40.564453 L 13.652344 41.21875 L 14 41.28125 L 14.800781 40.878906 L 14.958984 39.998047 L 14.347656 39.341797 L 14 39.28125 z M 52 42 L 51.199219 42.402344 L 51.041016 43.283203 L 51.652344 43.9375 L 52 44 L 52.800781 43.597656 L 52.958984 42.716797 L 52.347656 42.0625 L 52 42 z M 33 43 L 32.199219 43.402344 L 32.041016 44.283203 L 32.652344 44.9375 L 33 45 L 33.800781 44.597656 L 33.958984 43.716797 L 33.347656 43.0625 L 33 43 z M 14 43.28125 L 13.199219 43.681641 L 13.041016 44.564453 L 13.652344 45.21875 L 14 45.28125 L 14.800781 44.878906 L 14.958984 43.998047 L 14.347656 43.341797 L 14 43.28125 z M 52 46 L 51.199219 46.402344 L 51.041016 47.283203 L 51.652344 47.9375 L 52 48 L 52.800781 47.597656 L 52.958984 46.716797 L 52.347656 46.0625 L 52 46 z M 33 47 L 32.199219 47.402344 L 32.041016 48.283203 L 32.652344 48.9375 L 33 49 L 33.800781 48.597656 L 33.958984 47.716797 L 33.347656 47.0625 L 33 47 z M 14 47.28125 L 13.199219 47.681641 L 13.041016 48.564453 L 13.652344 49.21875 L 14 49.28125 L 14.800781 48.878906 L 14.958984 47.998047 L 14.347656 47.341797 L 14 47.28125 z M 52 50 L 51.199219 50.402344 L 51.041016 51.283203 L 51.652344 51.9375 L 52 52 L 52.800781 51.597656 L 52.958984 50.716797 L 52.347656 50.0625 L 52 50 z M 33 51 L 32.199219 51.402344 L 32.041016 52.283203 L 32.652344 52.9375 L 33 53 L 33.800781 52.597656 L 33.958984 51.716797 L 33.347656 51.0625 L 33 51 z M 14 51.28125 L 13.199219 51.681641 L 13.041016 52.564453 L 13.652344 53.21875 L 14 53.28125 L 14.800781 52.878906 L 14.958984 51.998047 L 14.347656 51.341797 L 14 51.28125 z M 52.304688 53.984375 L 51.503906 54.384766 L 51.345703 55.267578 L 51.957031 55.921875 L 52.304688 55.984375 L 53.105469 55.582031 L 53.263672 54.699219 L 52.652344 54.044922 L 52.304688 53.984375 z M 33 55 L 32.199219 55.402344 L 32.041016 56.283203 L 32.652344 56.9375 L 33 57 L 33.800781 56.597656 L 33.958984 55.716797 L 33.347656 55.0625 L 33 55 z M 14 55.28125 L 13.199219 55.681641 L 13.041016 56.564453 L 13.652344 57.21875 L 14 57.28125 L 14.800781 56.878906 L 14.958984 55.998047 L 14.347656 55.341797 L 14 55.28125 z M 53.039062 57.914062 L 52.236328 58.314453 L 52.080078 59.197266 L 52.691406 59.851562 L 53.039062 59.914062 L 53.839844 59.511719 L 53.998047 58.630859 L 53.384766 57.976562 L 53.039062 57.914062 z M 33 59 L 32.199219 59.402344 L 32.041016 60.283203 L 32.652344 60.9375 L 33 61 L 33.800781 60.597656 L 33.958984 59.716797 L 33.347656 59.0625 L 33 59 z M 14 59.28125 L 13.199219 59.681641 L 13.041016 60.564453 L 13.652344 61.21875 L 14 61.28125 L 14.800781 60.878906 L 14.958984 59.998047 L 14.347656 59.341797 L 14 59.28125 z M 54.28125 61.710938 L 53.480469 62.113281 L 53.322266 62.994141 L 53.933594 63.650391 L 54.28125 63.710938 L 55.082031 63.310547 L 55.240234 62.427734 L 54.628906 61.773438 L 54.28125 61.710938 z M 56.203125 65.208984 L 55.402344 65.611328 L 55.244141 66.492188 L 55.855469 67.148438 L 56.203125 67.208984 L 57.003906 66.808594 L 57.162109 65.925781 L 56.548828 65.271484 L 56.203125 65.208984 z M 58.935547 68.109375 L 58.134766 68.509766 L 57.976562 69.392578 L 58.587891 70.046875 L 58.935547 70.109375 L 59.736328 69.707031 L 59.894531 68.826172 L 59.283203 68.171875 L 58.935547 68.109375 z M 62.410156 70.048828 L 61.609375 70.449219 L 61.451172 71.332031 L 62.064453 71.986328 L 62.410156 72.048828 L 63.212891 71.646484 L 63.369141 70.763672 L 62.757812 70.109375 L 62.410156 70.048828 z M 66.300781 70.921875 L 65.5 71.324219 L 65.341797 72.207031 L 65.953125 72.861328 L 66.300781 72.921875 L 67.101562 72.521484 L 67.259766 71.638672 L 66.648438 70.984375 L 66.300781 70.921875 z"/></svg>