<svg fill="#000000" xmlns="http://www.w3.org/2000/svg"  viewBox="0 0 80 80" width="80px" height="80px"><path d="M 40 7 C 21.786436 7 7 21.786449 7 40 C 7 58.213551 21.786436 73 40 73 C 58.213564 73 73 58.213551 73 40 C 73 21.786449 58.213564 7 40 7 z M 40 9 C 57.132684 9 71 22.867328 71 40 C 71 57.132672 57.132684 71 40 71 C 22.867316 71 9 57.132672 9 40 C 9 22.867328 22.867316 9 40 9 z M 40 27 L 39.199219 27.402344 L 39.041016 28.283203 L 39.652344 28.9375 L 40 29 L 40.800781 28.597656 L 40.958984 27.716797 L 40.347656 27.0625 L 40 27 z M 43.333984 27.478516 L 42.533203 27.880859 L 42.375 28.761719 L 42.986328 29.416016 L 43.333984 29.478516 L 44.134766 29.078125 L 44.292969 28.195312 L 43.679688 27.541016 L 43.333984 27.478516 z M 36.076172 27.669922 L 35.275391 28.070312 L 35.117188 28.953125 L 35.728516 29.607422 L 36.076172 29.669922 L 36.876953 29.267578 L 37.035156 28.386719 L 36.421875 27.732422 L 36.076172 27.669922 z M 46.917969 29.205078 L 46.117188 29.607422 L 45.958984 30.490234 L 46.572266 31.144531 L 46.917969 31.205078 L 47.71875 30.804688 L 47.876953 29.921875 L 47.265625 29.267578 L 46.917969 29.205078 z M 32.583984 29.578125 L 31.783203 29.980469 L 31.625 30.861328 L 32.236328 31.515625 L 32.583984 31.578125 L 33.384766 31.175781 L 33.542969 30.294922 L 32.931641 29.640625 L 32.583984 29.578125 z M 49.742188 32.011719 L 48.941406 32.412109 L 48.783203 33.294922 L 49.394531 33.949219 L 49.742188 34.011719 L 50.542969 33.609375 L 50.701172 32.728516 L 50.087891 32.074219 L 49.742188 32.011719 z M 29.908203 32.523438 L 29.107422 32.925781 L 28.949219 33.806641 L 29.560547 34.460938 L 29.908203 34.523438 L 30.708984 34.123047 L 30.867188 33.240234 L 30.253906 32.585938 L 29.908203 32.523438 z M 40 33 C 36.145849 33 33 36.145852 33 40 C 33 43.854148 36.145849 47 40 47 C 43.854151 47 47 43.854148 47 40 C 47 36.145852 43.854151 33 40 33 z M 40 35 C 42.773271 35 45 37.226731 45 40 C 45 42.773269 42.773271 45 40 45 C 37.226729 45 35 42.773269 35 40 C 35 37.226731 37.226729 35 40 35 z M 51.5 35.582031 L 50.697266 35.982422 L 50.541016 36.865234 L 51.152344 37.519531 L 51.5 37.582031 L 52.300781 37.179688 L 52.458984 36.298828 L 51.845703 35.644531 L 51.5 35.582031 z M 28.345703 36.183594 L 27.544922 36.585938 L 27.386719 37.466797 L 28 38.121094 L 28.345703 38.183594 L 29.146484 37.783203 L 29.304688 36.900391 L 28.693359 36.246094 L 28.345703 36.183594 z M 51.972656 39.533203 L 51.171875 39.935547 L 51.013672 40.816406 L 51.626953 41.470703 L 51.972656 41.533203 L 52.773438 41.130859 L 52.931641 40.25 L 52.320312 39.595703 L 51.972656 39.533203 z M 28.058594 40.154297 L 27.257812 40.554688 L 27.099609 41.4375 L 27.710938 42.091797 L 28.058594 42.154297 L 28.859375 41.751953 L 29.017578 40.871094 L 28.404297 40.216797 L 28.058594 40.154297 z M 51.146484 43.425781 L 50.345703 43.826172 L 50.1875 44.708984 L 50.800781 45.363281 L 51.146484 45.425781 L 51.947266 45.023438 L 52.105469 44.142578 L 51.494141 43.488281 L 51.146484 43.425781 z M 29.099609 43.996094 L 28.298828 44.396484 L 28.140625 45.279297 L 28.751953 45.933594 L 29.099609 45.996094 L 29.900391 45.59375 L 30.058594 44.712891 L 29.445312 44.056641 L 29.099609 43.996094 z M 49.082031 46.828125 L 48.28125 47.228516 L 48.123047 48.111328 L 48.736328 48.765625 L 49.082031 48.828125 L 49.884766 48.425781 L 50.041016 47.544922 L 49.429688 46.890625 L 49.082031 46.828125 z M 31.335938 47.287109 L 30.533203 47.689453 L 30.376953 48.570312 L 30.988281 49.226562 L 31.335938 49.287109 L 32.136719 48.886719 L 32.294922 48.003906 L 31.681641 47.349609 L 31.335938 47.287109 z M 46.019531 49.369141 L 45.21875 49.771484 L 45.060547 50.652344 L 45.673828 51.306641 L 46.019531 51.369141 L 46.820312 50.96875 L 46.978516 50.085938 L 46.367188 49.431641 L 46.019531 49.369141 z M 34.523438 49.669922 L 33.722656 50.070312 L 33.564453 50.953125 L 34.175781 51.607422 L 34.523438 51.669922 L 35.324219 51.267578 L 35.482422 50.384766 L 34.871094 49.730469 L 34.523438 49.669922 z M 42.296875 50.775391 L 41.496094 51.175781 L 41.337891 52.058594 L 41.949219 52.712891 L 42.296875 52.775391 L 43.097656 52.373047 L 43.255859 51.492188 L 42.644531 50.835938 L 42.296875 50.775391 z M 38.318359 50.869141 L 37.515625 51.269531 L 37.359375 52.152344 L 37.970703 52.806641 L 38.318359 52.869141 L 39.119141 52.466797 L 39.277344 51.585938 L 38.664062 50.929688 L 38.318359 50.869141 z"/></svg>