<svg fill="#000000" xmlns="http://www.w3.org/2000/svg"  viewBox="0 0 80 80" width="80px" height="80px"><path d="M 13 7 L 12.199219 7.4023438 L 12.041016 8.2832031 L 12.652344 8.9375 L 13 9 L 13.800781 8.5976562 L 13.958984 7.7167969 L 13.347656 7.0625 L 13 7 z M 64.408203 7.1757812 L 63.607422 7.5761719 L 63.449219 8.4589844 L 64.0625 9.1132812 L 64.408203 9.1757812 L 65.210938 8.7734375 L 65.367188 7.8925781 L 64.755859 7.2382812 L 64.408203 7.1757812 z M 16.96875 7.4238281 L 16.167969 7.8242188 L 16.009766 8.7070312 L 16.623047 9.3613281 L 16.96875 9.4238281 L 17.769531 9.0214844 L 17.927734 8.140625 L 17.316406 7.4863281 L 16.96875 7.4238281 z M 60.572266 8.25 L 59.771484 8.6523438 L 59.613281 9.5351562 L 60.224609 10.189453 L 60.572266 10.25 L 61.373047 9.8496094 L 61.53125 8.9667969 L 60.919922 8.3125 L 60.572266 8.25 z M 20.652344 8.9296875 L 19.851562 9.3320312 L 19.693359 10.212891 L 20.304688 10.869141 L 20.652344 10.929688 L 21.453125 10.529297 L 21.611328 9.6464844 L 20.998047 8.9921875 L 20.652344 8.9296875 z M 57.328125 10.554688 L 56.527344 10.957031 L 56.369141 11.837891 L 56.980469 12.492188 L 57.328125 12.554688 L 58.128906 12.152344 L 58.287109 11.271484 L 57.675781 10.617188 L 57.328125 10.554688 z M 10.001953 11 A 1.0001 1.0001 0 1 0 10.001953 13 C 14.215427 13 16.738561 14.147896 18.650391 15.869141 C 20.56222 17.590385 21.855514 19.977552 23.267578 22.490234 C 24.679643 25.002916 26.221083 27.642208 28.771484 29.660156 C 30.089864 30.703295 31.684625 31.551032 33.619141 32.132812 C 25.12925 35.004431 19.00334 43.037412 19 52.492188 C 18.995809 64.354448 28.627729 73.995809 40.486328 74 L 40.5 74 C 52.358628 74.004191 61.995809 64.370044 62 52.507812 C 62.003406 42.868226 55.643613 34.695368 46.896484 31.96875 C 48.600384 31.394851 50.03015 30.609882 51.230469 29.660156 C 53.78087 27.642208 55.322311 25.002916 56.734375 22.490234 C 58.146439 19.977552 59.439733 17.590385 61.351562 15.869141 C 63.263393 14.14793 65.786526 13 70 13 A 1.0001 1.0001 0 1 0 70 11 C 65.407974 11 62.267061 12.352104 60.013672 14.380859 C 57.760282 16.409615 56.388045 19.022448 54.990234 21.509766 C 53.592424 23.997084 52.179302 26.357792 49.990234 28.089844 C 47.801167 29.821895 44.811516 31 40.001953 31 C 35.19239 31 32.200786 29.821895 30.011719 28.089844 C 27.822651 26.357792 26.409529 23.997084 25.011719 21.509766 C 23.613908 19.022448 22.241671 16.409615 19.988281 14.380859 C 17.734892 12.352104 14.593979 11 10.001953 11 z M 23.603516 11.599609 L 22.802734 12 L 22.644531 12.882812 L 23.257812 13.537109 L 23.603516 13.599609 L 24.40625 13.197266 L 24.5625 12.316406 L 23.951172 11.662109 L 23.603516 11.599609 z M 54.919922 13.736328 L 54.119141 14.136719 L 53.960938 15.019531 L 54.574219 15.673828 L 54.919922 15.736328 L 55.722656 15.333984 L 55.878906 14.453125 L 55.267578 13.796875 L 54.919922 13.736328 z M 25.798828 14.9375 L 24.996094 15.339844 L 24.839844 16.222656 L 25.451172 16.876953 L 25.798828 16.9375 L 26.599609 16.537109 L 26.757812 15.654297 L 26.144531 15 L 25.798828 14.9375 z M 52.955078 17.21875 L 52.154297 17.619141 L 51.996094 18.501953 L 52.607422 19.15625 L 52.955078 19.21875 L 53.755859 18.816406 L 53.914062 17.935547 L 53.302734 17.28125 L 52.955078 17.21875 z M 27.722656 18.445312 L 26.921875 18.845703 L 26.763672 19.728516 L 27.375 20.382812 L 27.722656 20.445312 L 28.523438 20.042969 L 28.681641 19.162109 L 28.070312 18.507812 L 27.722656 18.445312 z M 50.900391 20.648438 L 50.099609 21.048828 L 49.941406 21.931641 L 50.554688 22.585938 L 50.900391 22.648438 L 51.701172 22.246094 L 51.859375 21.365234 L 51.248047 20.710938 L 50.900391 20.648438 z M 29.953125 21.757812 L 29.152344 22.158203 L 28.994141 23.041016 L 29.607422 23.695312 L 29.953125 23.757812 L 30.755859 23.355469 L 30.912109 22.474609 L 30.300781 21.820312 L 29.953125 21.757812 z M 48.183594 23.560547 L 47.380859 23.962891 L 47.224609 24.84375 L 47.835938 25.498047 L 48.183594 25.560547 L 48.984375 25.160156 L 49.142578 24.277344 L 48.529297 23.623047 L 48.183594 23.560547 z M 32.978516 24.341797 L 32.177734 24.742188 L 32.019531 25.625 L 32.632812 26.279297 L 32.978516 26.341797 L 33.78125 25.939453 L 33.9375 25.058594 L 33.326172 24.402344 L 32.978516 24.341797 z M 44.638672 25.363281 L 43.837891 25.765625 L 43.679688 26.646484 L 44.292969 27.300781 L 44.638672 27.363281 L 45.439453 26.960938 L 45.597656 26.080078 L 44.986328 25.425781 L 44.638672 25.363281 z M 36.720703 25.697266 L 35.917969 26.099609 L 35.761719 26.982422 L 36.373047 27.636719 L 36.720703 27.697266 L 37.521484 27.296875 L 37.679688 26.414062 L 37.066406 25.759766 L 36.720703 25.697266 z M 40.699219 25.974609 L 39.898438 26.375 L 39.740234 27.257812 L 40.353516 27.912109 L 40.699219 27.974609 L 41.501953 27.572266 L 41.658203 26.691406 L 41.046875 26.037109 L 40.699219 25.974609 z M 40.5 33 L 40.513672 33 C 51.291074 33.003809 60.003809 41.72412 60 52.505859 C 59.996191 63.287628 51.277372 72.003809 40.5 72 L 40.486328 72 C 29.708926 71.996191 20.996191 63.27588 21 52.494141 C 21.003809 41.712372 29.722628 32.996191 40.5 33 z M 40.5 37 L 39.699219 37.402344 L 39.541016 38.283203 L 40.152344 38.9375 L 40.5 39 L 41.300781 38.597656 L 41.458984 37.716797 L 40.847656 37.0625 L 40.5 37 z M 43.558594 37.330078 L 42.757812 37.730469 L 42.599609 38.613281 L 43.212891 39.267578 L 43.558594 39.330078 L 44.361328 38.927734 L 44.517578 38.046875 L 43.90625 37.392578 L 43.558594 37.330078 z M 36.552734 37.558594 L 35.75 37.958984 L 35.59375 38.841797 L 36.205078 39.496094 L 36.552734 39.558594 L 37.353516 39.15625 L 37.511719 38.275391 L 36.898438 37.621094 L 36.552734 37.558594 z M 47.304688 38.699219 L 46.503906 39.099609 L 46.345703 39.982422 L 46.957031 40.636719 L 47.304688 40.699219 L 48.105469 40.296875 L 48.263672 39.416016 L 47.652344 38.759766 L 47.304688 38.699219 z M 32.90625 39.164062 L 32.105469 39.566406 L 31.947266 40.449219 L 32.558594 41.103516 L 32.90625 41.164062 L 33.707031 40.763672 L 33.865234 39.880859 L 33.251953 39.226562 L 32.90625 39.164062 z M 50.529297 41.042969 L 49.728516 41.445312 L 49.570312 42.326172 L 50.181641 42.980469 L 50.529297 43.042969 L 51.330078 42.642578 L 51.488281 41.759766 L 50.875 41.105469 L 50.529297 41.042969 z M 29.833984 41.701172 L 29.033203 42.103516 L 28.875 42.984375 L 29.486328 43.640625 L 29.833984 43.701172 L 30.634766 43.300781 L 30.792969 42.417969 L 30.179688 41.763672 L 29.833984 41.701172 z M 52.996094 44.171875 L 52.195312 44.574219 L 52.037109 45.455078 L 52.650391 46.109375 L 52.996094 46.171875 L 53.798828 45.771484 L 53.955078 44.888672 L 53.34375 44.234375 L 52.996094 44.171875 z M 27.5625 44.976562 L 26.761719 45.376953 L 26.603516 46.259766 L 27.216797 46.914062 L 27.5625 46.976562 L 28.365234 46.574219 L 28.521484 45.693359 L 27.910156 45.039062 L 27.5625 44.976562 z M 54.519531 47.853516 L 53.71875 48.255859 L 53.560547 49.136719 L 54.171875 49.791016 L 54.519531 49.853516 L 55.320312 49.453125 L 55.478516 48.570312 L 54.867188 47.916016 L 54.519531 47.853516 z M 26.269531 48.746094 L 25.46875 49.148438 L 25.310547 50.029297 L 25.921875 50.683594 L 26.269531 50.746094 L 27.070312 50.34375 L 27.228516 49.462891 L 26.615234 48.808594 L 26.269531 48.746094 z M 54.984375 51.810547 L 54.183594 52.212891 L 54.025391 53.095703 L 54.636719 53.75 L 54.984375 53.810547 L 55.785156 53.410156 L 55.943359 52.527344 L 55.332031 51.873047 L 54.984375 51.810547 z M 26.0625 52.728516 L 25.261719 53.128906 L 25.103516 54.011719 L 25.714844 54.666016 L 26.0625 54.728516 L 26.863281 54.326172 L 27.021484 53.445312 L 26.408203 52.789062 L 26.0625 52.728516 z M 54.363281 55.75 L 53.5625 56.152344 L 53.404297 57.033203 L 54.017578 57.6875 L 54.363281 57.75 L 55.166016 57.347656 L 55.322266 56.466797 L 54.710938 55.8125 L 54.363281 55.75 z M 26.945312 56.613281 L 26.144531 57.015625 L 25.986328 57.896484 L 26.597656 58.550781 L 26.945312 58.613281 L 27.746094 58.212891 L 27.904297 57.330078 L 27.292969 56.675781 L 26.945312 56.613281 z M 52.673828 59.361328 L 51.873047 59.761719 L 51.714844 60.644531 L 52.326172 61.298828 L 52.673828 61.361328 L 53.474609 60.958984 L 53.632812 60.078125 L 53.019531 59.421875 L 52.673828 59.361328 z M 28.853516 60.111328 L 28.052734 60.511719 L 27.894531 61.394531 L 28.505859 62.048828 L 28.853516 62.111328 L 29.654297 61.708984 L 29.8125 60.828125 L 29.201172 60.173828 L 28.853516 60.111328 z M 50.068359 62.376953 L 49.265625 62.777344 L 49.109375 63.660156 L 49.720703 64.314453 L 50.068359 64.376953 L 50.869141 63.974609 L 51.027344 63.091797 L 50.414062 62.4375 L 50.068359 62.376953 z M 31.638672 62.960938 L 30.837891 63.361328 L 30.679688 64.244141 L 31.292969 64.898438 L 31.638672 64.960938 L 32.439453 64.558594 L 32.597656 63.675781 L 31.986328 63.021484 L 31.638672 62.960938 z M 46.742188 64.572266 L 45.941406 64.972656 L 45.783203 65.855469 L 46.396484 66.509766 L 46.742188 66.572266 L 47.542969 66.169922 L 47.701172 65.289062 L 47.089844 64.634766 L 46.742188 64.572266 z M 35.09375 64.947266 L 34.292969 65.349609 L 34.134766 66.230469 L 34.746094 66.884766 L 35.09375 66.947266 L 35.894531 66.546875 L 36.052734 65.664062 L 35.441406 65.009766 L 35.09375 64.947266 z M 42.945312 65.777344 L 42.144531 66.179688 L 41.986328 67.0625 L 42.599609 67.716797 L 42.945312 67.777344 L 43.746094 67.376953 L 43.904297 66.494141 L 43.292969 65.839844 L 42.945312 65.777344 z M 38.960938 65.916016 L 38.160156 66.318359 L 38.001953 67.199219 L 38.615234 67.853516 L 38.960938 67.916016 L 39.761719 67.515625 L 39.919922 66.632812 L 39.308594 65.978516 L 38.960938 65.916016 z"/></svg>