<svg fill="#000000" xmlns="http://www.w3.org/2000/svg"  viewBox="0 0 80 80" width="80px" height="80px"><path d="M 40 3 L 39.199219 3.4023438 L 39.041016 4.2832031 L 39.652344 4.9375 L 40 5 L 40.800781 4.5976562 L 40.958984 3.7167969 L 40.347656 3.0625 L 40 3 z M 12.923828 6.9980469 A 1.0001 1.0001 0 0 0 12.777344 8.9746094 C 22.029363 11.081279 29 19.66507 29 30 C 29 40.33493 22.029363 48.918721 12.777344 51.025391 A 1.0001 1.0001 0 1 0 13.222656 52.974609 C 23.103143 50.72484 30.519693 41.787903 30.957031 31 L 39 31 L 39 54 A 1.0001 1.0001 0 0 0 39.001953 54.050781 C 33.404662 54.557623 29 59.273383 29 65 A 1.0001 1.0001 0 1 0 31 65 C 31 60.017407 35.017407 56 40 56 C 44.982593 56 49 60.017407 49 65 A 1.0001 1.0001 0 1 0 51 65 C 51 59.273383 46.595338 54.557623 40.998047 54.050781 A 1.0001 1.0001 0 0 0 41 54 L 41 31 L 49.042969 31 C 49.480307 41.787903 56.896857 50.72484 66.777344 52.974609 A 1.0001 1.0001 0 1 0 67.222656 51.025391 C 57.970637 48.918721 51 40.33493 51 30 C 51 19.66507 57.970637 11.081279 67.222656 8.9746094 A 1.0001 1.0001 0 0 0 67.044922 6.9980469 A 1.0001 1.0001 0 0 0 66.777344 7.0253906 C 56.896857 9.2751605 49.480307 18.212097 49.042969 29 L 41 29 L 41 20 A 1.0001 1.0001 0 0 0 39.984375 18.986328 A 1.0001 1.0001 0 0 0 39 20 L 39 29 L 30.957031 29 C 30.519693 18.212097 23.103143 9.2751608 13.222656 7.0253906 A 1.0001 1.0001 0 0 0 12.923828 6.9980469 z M 40 7 L 39.199219 7.4023438 L 39.041016 8.2832031 L 39.652344 8.9375 L 40 9 L 40.800781 8.5976562 L 40.958984 7.7167969 L 40.347656 7.0625 L 40 7 z M 40 11 L 39.199219 11.402344 L 39.041016 12.283203 L 39.652344 12.9375 L 40 13 L 40.800781 12.597656 L 40.958984 11.716797 L 40.347656 11.0625 L 40 11 z M 40 15 L 39.199219 15.402344 L 39.041016 16.283203 L 39.652344 16.9375 L 40 17 L 40.800781 16.597656 L 40.958984 15.716797 L 40.347656 15.0625 L 40 15 z M 49.416016 67.339844 L 48.615234 67.742188 L 48.457031 68.623047 L 49.070312 69.277344 L 49.416016 69.339844 L 50.216797 68.939453 L 50.375 68.056641 L 49.763672 67.402344 L 49.416016 67.339844 z M 30.787109 67.896484 L 29.986328 68.296875 L 29.828125 69.179688 L 30.441406 69.833984 L 30.787109 69.896484 L 31.587891 69.494141 L 31.746094 68.613281 L 31.134766 67.958984 L 30.787109 67.896484 z M 47.369141 70.742188 L 46.568359 71.144531 L 46.410156 72.025391 L 47.023438 72.679688 L 47.369141 72.742188 L 48.171875 72.341797 L 48.328125 71.458984 L 47.716797 70.804688 L 47.369141 70.742188 z M 33.039062 71.169922 L 32.238281 71.572266 L 32.080078 72.455078 L 32.691406 73.109375 L 33.039062 73.169922 L 33.839844 72.769531 L 33.998047 71.886719 L 33.384766 71.232422 L 33.039062 71.169922 z M 44.162109 73.083984 L 43.361328 73.486328 L 43.203125 74.367188 L 43.816406 75.021484 L 44.162109 75.083984 L 44.962891 74.681641 L 45.121094 73.800781 L 44.509766 73.146484 L 44.162109 73.083984 z M 36.382812 73.314453 L 35.580078 73.716797 L 35.423828 74.597656 L 36.035156 75.251953 L 36.382812 75.314453 L 37.183594 74.914062 L 37.341797 74.03125 L 36.728516 73.376953 L 36.382812 73.314453 z M 40.294922 73.984375 L 39.494141 74.386719 L 39.335938 75.267578 L 39.949219 75.923828 L 40.294922 75.984375 L 41.097656 75.583984 L 41.253906 74.701172 L 40.642578 74.046875 L 40.294922 73.984375 z"/></svg>