<svg fill="#000000" xmlns="http://www.w3.org/2000/svg"  viewBox="0 0 80 80" width="80px" height="80px"><path d="M 39.410156 4.015625 L 38.609375 4.4160156 L 38.451172 5.2988281 L 39.064453 5.953125 L 39.410156 6.015625 L 40.210938 5.6132812 L 40.369141 4.7324219 L 39.757812 4.0761719 L 39.410156 4.015625 z M 43.394531 4.2929688 L 42.591797 4.6933594 L 42.435547 5.5761719 L 43.046875 6.2304688 L 43.394531 6.2929688 L 44.195312 5.890625 L 44.353516 5.0097656 L 43.740234 4.3554688 L 43.394531 4.2929688 z M 35.453125 4.5390625 L 34.652344 4.9394531 L 34.494141 5.8222656 L 35.107422 6.4765625 L 35.453125 6.5390625 L 36.255859 6.1367188 L 36.412109 5.2558594 L 35.800781 4.6015625 L 35.453125 4.5390625 z M 47.238281 5.3710938 L 46.435547 5.7734375 L 46.279297 6.6542969 L 46.890625 7.3085938 L 47.238281 7.3710938 L 48.039062 6.9707031 L 48.197266 6.0878906 L 47.583984 5.4335938 L 47.238281 5.3710938 z M 31.677734 5.8300781 L 30.876953 6.2324219 L 30.71875 7.1132812 L 31.330078 7.7675781 L 31.677734 7.8300781 L 32.478516 7.4296875 L 32.636719 6.546875 L 32.025391 5.8925781 L 31.677734 5.8300781 z M 50.794922 7.1796875 L 49.994141 7.5820312 L 49.835938 8.4628906 L 50.447266 9.1191406 L 50.794922 9.1796875 L 51.595703 8.7792969 L 51.753906 7.8964844 L 51.142578 7.2421875 L 50.794922 7.1796875 z M 28.236328 7.8496094 L 27.435547 8.2519531 L 27.277344 9.1347656 L 27.888672 9.7890625 L 28.236328 9.8496094 L 29.037109 9.4492188 L 29.195312 8.5664062 L 28.583984 7.9121094 L 28.236328 7.8496094 z M 53.923828 9.6601562 L 53.123047 10.060547 L 52.964844 10.943359 L 53.576172 11.597656 L 53.923828 11.660156 L 54.724609 11.257812 L 54.882812 10.376953 L 54.271484 9.7207031 L 53.923828 9.6601562 z M 25.263672 10.511719 L 24.460938 10.914062 L 24.304688 11.794922 L 24.916016 12.449219 L 25.263672 12.511719 L 26.064453 12.111328 L 26.222656 11.228516 L 25.609375 10.574219 L 25.263672 10.511719 z M 56.501953 12.708984 L 55.701172 13.109375 L 55.542969 13.992188 L 56.15625 14.646484 L 56.501953 14.708984 L 57.302734 14.306641 L 57.460938 13.425781 L 56.849609 12.769531 L 56.501953 12.708984 z M 22.875 13.708984 L 22.072266 14.109375 L 21.916016 14.992188 L 22.527344 15.646484 L 22.875 15.708984 L 23.675781 15.306641 L 23.833984 14.425781 L 23.220703 13.771484 L 22.875 13.708984 z M 58.425781 16.208984 L 57.625 16.611328 L 57.466797 17.492188 L 58.078125 18.146484 L 58.425781 18.208984 L 59.226562 17.808594 L 59.384766 16.925781 L 58.771484 16.271484 L 58.425781 16.208984 z M 21.167969 17.316406 L 20.367188 17.716797 L 20.208984 18.599609 L 20.822266 19.253906 L 21.167969 19.316406 L 21.96875 18.914062 L 22.126953 18.033203 L 21.515625 17.378906 L 21.167969 17.316406 z M 59.603516 20.025391 L 58.802734 20.427734 L 58.644531 21.308594 L 59.257812 21.964844 L 59.603516 22.025391 L 60.404297 21.625 L 60.5625 20.742188 L 59.951172 20.087891 L 59.603516 20.025391 z M 20.201172 21.189453 L 19.400391 21.589844 L 19.242188 22.472656 L 19.853516 23.126953 L 20.201172 23.189453 L 21.001953 22.787109 L 21.160156 21.904297 L 20.546875 21.25 L 20.201172 21.189453 z M 19.984375 23.986328 A 1.0001 1.0001 0 0 0 19 25 C 19 36.251176 27.876805 45.451526 39 45.974609 A 1.0001 1.0001 0 0 0 39 46 L 39 60 L 28 60 A 1.0001 1.0001 0 1 0 28 62 L 39 62 L 39 75 A 1.0001 1.0001 0 1 0 41 75 L 41 62 L 52 62 A 1.0001 1.0001 0 1 0 52 60 L 41 60 L 41 46 A 1.0001 1.0001 0 0 0 40.998047 45.974609 C 52.12215 45.452506 61 36.25183 61 25 A 1.0001 1.0001 0 1 0 59 25 C 59 35.505593 50.505593 44 40 44 C 29.494407 44 21 35.505593 21 25 A 1.0001 1.0001 0 0 0 19.984375 23.986328 z M 20 60 L 19.199219 60.402344 L 19.041016 61.283203 L 19.652344 61.9375 L 20 62 L 20.800781 61.597656 L 20.958984 60.716797 L 20.347656 60.0625 L 20 60 z M 24 60 L 23.199219 60.402344 L 23.041016 61.283203 L 23.652344 61.9375 L 24 62 L 24.800781 61.597656 L 24.958984 60.716797 L 24.347656 60.0625 L 24 60 z M 56 60 L 55.199219 60.402344 L 55.041016 61.283203 L 55.652344 61.9375 L 56 62 L 56.800781 61.597656 L 56.958984 60.716797 L 56.347656 60.0625 L 56 60 z M 60 60 L 59.199219 60.402344 L 59.041016 61.283203 L 59.652344 61.9375 L 60 62 L 60.800781 61.597656 L 60.958984 60.716797 L 60.347656 60.0625 L 60 60 z"/></svg>