<svg fill="#000000" xmlns="http://www.w3.org/2000/svg"  viewBox="0 0 80 80" width="80px" height="80px"><path d="M 11.003906 7.9941406 A 1.0001 1.0001 0 0 0 10.519531 9.8769531 C 10.519531 9.8769531 18 13.911961 18 23.53125 L 18 60 A 1.0001 1.0001 0 1 0 20 60 L 20 23.53125 C 20 23.271022 19.937624 23.057876 19.927734 22.804688 A 1.0001 1.0001 0 0 0 20 22.421875 C 20 20.578518 21.504006 17.236259 23.427734 14.560547 C 24.389599 13.222691 25.445892 12.0273 26.396484 11.201172 C 27.347077 10.375043 28.229009 10 28.5 10 C 28.711082 10 29.613216 10.413708 30.570312 11.324219 C 31.52741 12.234729 32.590054 13.538132 33.558594 14.951172 C 34.527133 16.364212 35.408491 17.89067 36.033203 19.25 C 36.657915 20.60933 37 21.843789 37 22.421875 L 37 22.542969 L 37 60 A 1.0001 1.0001 0 1 0 39 60 L 39 22.542969 C 39 20.674976 40.506818 17.304206 42.433594 14.603516 C 43.396982 13.25317 44.454164 12.046693 45.40625 11.212891 C 46.358336 10.379089 47.243435 10 47.511719 10 C 47.693973 10 48.606293 10.432081 49.564453 11.392578 C 50.522613 12.353075 51.585873 13.724754 52.554688 15.208984 C 53.5235 16.693214 54.401594 18.293062 55.027344 19.710938 C 55.653094 21.128813 56 22.410472 56 23 L 56 38 L 56 61 C 56 61.952594 56.059573 62.825212 56.142578 63.662109 C 53.321108 65.504182 49.967129 67.028825 45.964844 68.029297 A 1.0006963 1.0006963 0 1 0 46.451172 69.970703 C 50.304251 69.00753 53.617406 67.572099 56.455078 65.830078 C 56.991484 68.543941 57.932999 70.54309 58.908203 71.943359 C 60.390417 74.071631 62.017578 74.898438 62.017578 74.898438 A 1.0005845 1.0005845 0 0 0 62.898438 73.101562 C 62.898438 73.101562 61.795615 72.59101 60.548828 70.800781 C 59.639788 69.495514 58.707337 67.522548 58.265625 64.623047 C 62.065509 61.921306 64.908641 58.6614 66.970703 55.333984 C 70.7762 49.193303 72 42.890519 72 39.234375 C 72 35.153037 71.237841 31.014472 70.132812 27.824219 C 69.580299 26.229092 68.947857 24.872304 68.230469 23.849609 C 67.51308 22.826915 66.670553 22 65.490234 22 C 64.827859 22 64.309811 22.291298 63.814453 22.654297 C 63.319095 23.017295 62.839103 23.491595 62.349609 24.056641 C 61.370621 25.186731 60.362743 26.681 59.433594 28.318359 C 58.923894 29.21656 58.440453 30.147838 58 31.082031 L 58 23 C 58 21.806528 57.537703 20.445734 56.857422 18.904297 C 56.177141 17.36286 55.253327 15.685254 54.228516 14.115234 C 53.203704 12.545214 52.083137 11.087784 50.978516 9.9804688 C 49.873894 8.873153 48.842965 8 47.511719 8 C 46.266002 8 45.205133 8.730302 44.089844 9.7070312 C 42.974555 10.683761 41.842753 11.989126 40.806641 13.441406 C 39.635935 15.082341 38.615293 16.875764 37.912109 18.634766 C 37.876109 18.554466 37.886949 18.497263 37.849609 18.416016 C 37.165571 16.927595 36.237445 15.320774 35.208984 13.820312 C 34.180524 12.319852 33.056872 10.928739 31.949219 9.875 C 30.841565 8.8212606 29.800918 8 28.5 8 C 27.258991 8 26.198142 8.7250816 25.083984 9.6933594 C 23.969827 10.661637 22.839822 11.954762 21.804688 13.394531 C 20.750696 14.860526 19.790886 16.451955 19.095703 18.029297 C 16.94392 11.261446 11.480469 8.1230469 11.480469 8.1230469 A 1.0001 1.0001 0 0 0 11.003906 7.9941406 z M 7 10 L 6.1992188 10.402344 L 6.0410156 11.283203 L 6.6523438 11.9375 L 7 12 L 7.8007812 11.597656 L 7.9589844 10.716797 L 7.3476562 10.0625 L 7 10 z M 10.060547 12.560547 L 9.2597656 12.962891 L 9.1015625 13.84375 L 9.7128906 14.498047 L 10.060547 14.560547 L 10.861328 14.160156 L 11.019531 13.277344 L 10.40625 12.623047 L 10.060547 12.560547 z M 12.482422 15.734375 L 11.681641 16.134766 L 11.523438 17.017578 L 12.136719 17.671875 L 12.482422 17.734375 L 13.283203 17.332031 L 13.441406 16.449219 L 12.830078 15.794922 L 12.482422 15.734375 z M 14.123047 19.371094 L 13.322266 19.773438 L 13.164062 20.65625 L 13.775391 21.310547 L 14.123047 21.371094 L 14.923828 20.970703 L 15.082031 20.087891 L 14.46875 19.433594 L 14.123047 19.371094 z M 34 23 L 33.199219 23.402344 L 33.041016 24.283203 L 33.652344 24.9375 L 34 25 L 34.800781 24.597656 L 34.958984 23.716797 L 34.347656 23.0625 L 34 23 z M 14.917969 23.283203 L 14.117188 23.683594 L 13.958984 24.566406 L 14.570312 25.220703 L 14.917969 25.283203 L 15.71875 24.880859 L 15.876953 24 L 15.263672 23.34375 L 14.917969 23.283203 z M 53 24 L 52.199219 24.402344 L 52.041016 25.283203 L 52.652344 25.9375 L 53 26 L 53.800781 25.597656 L 53.958984 24.716797 L 53.347656 24.0625 L 53 24 z M 65.490234 24 C 65.565414 24 66.040842 24.212616 66.591797 24.998047 C 67.142752 25.783477 67.731326 27.003642 68.242188 28.478516 C 69.263909 31.428263 70 35.405713 70 39.234375 C 70 42.428231 68.849535 48.504432 65.269531 54.28125 C 63.5002 57.136305 61.146655 59.928951 58.042969 62.320312 C 58.021648 61.890961 58 61.462547 58 61 L 58 38 C 58 36.193561 59.414377 32.407171 61.173828 29.306641 C 62.053554 27.756375 63.012847 26.344675 63.861328 25.365234 C 64.285569 24.875514 64.6838 24.496427 64.996094 24.267578 C 65.308388 24.038729 65.524859 24 65.490234 24 z M 34 27 L 33.199219 27.402344 L 33.041016 28.283203 L 33.652344 28.9375 L 34 29 L 34.800781 28.597656 L 34.958984 27.716797 L 34.347656 27.0625 L 34 27 z M 15 27.28125 L 14.199219 27.681641 L 14.041016 28.564453 L 14.652344 29.21875 L 15 29.28125 L 15.800781 28.878906 L 15.958984 27.998047 L 15.347656 27.341797 L 15 27.28125 z M 53 28 L 52.199219 28.402344 L 52.041016 29.283203 L 52.652344 29.9375 L 53 30 L 53.800781 29.597656 L 53.958984 28.716797 L 53.347656 28.0625 L 53 28 z M 34 31 L 33.199219 31.402344 L 33.041016 32.283203 L 33.652344 32.9375 L 34 33 L 34.800781 32.597656 L 34.958984 31.716797 L 34.347656 31.0625 L 34 31 z M 15 31.28125 L 14.199219 31.681641 L 14.041016 32.564453 L 14.652344 33.21875 L 15 33.28125 L 15.800781 32.878906 L 15.958984 31.998047 L 15.347656 31.341797 L 15 31.28125 z M 53 32 L 52.199219 32.402344 L 52.041016 33.283203 L 52.652344 33.9375 L 53 34 L 53.800781 33.597656 L 53.958984 32.716797 L 53.347656 32.0625 L 53 32 z M 34 35 L 33.199219 35.402344 L 33.041016 36.283203 L 33.652344 36.9375 L 34 37 L 34.800781 36.597656 L 34.958984 35.716797 L 34.347656 35.0625 L 34 35 z M 15 35.28125 L 14.199219 35.681641 L 14.041016 36.564453 L 14.652344 37.21875 L 15 37.28125 L 15.800781 36.878906 L 15.958984 35.998047 L 15.347656 35.341797 L 15 35.28125 z M 53 36 L 52.199219 36.402344 L 52.041016 37.283203 L 52.652344 37.9375 L 53 38 L 53.800781 37.597656 L 53.958984 36.716797 L 53.347656 36.0625 L 53 36 z M 34 39 L 33.199219 39.402344 L 33.041016 40.283203 L 33.652344 40.9375 L 34 41 L 34.800781 40.597656 L 34.958984 39.716797 L 34.347656 39.0625 L 34 39 z M 15 39.28125 L 14.199219 39.681641 L 14.041016 40.564453 L 14.652344 41.21875 L 15 41.28125 L 15.800781 40.878906 L 15.958984 39.998047 L 15.347656 39.341797 L 15 39.28125 z M 53 40 L 52.199219 40.402344 L 52.041016 41.283203 L 52.652344 41.9375 L 53 42 L 53.800781 41.597656 L 53.958984 40.716797 L 53.347656 40.0625 L 53 40 z M 34 43 L 33.199219 43.402344 L 33.041016 44.283203 L 33.652344 44.9375 L 34 45 L 34.800781 44.597656 L 34.958984 43.716797 L 34.347656 43.0625 L 34 43 z M 15 43.28125 L 14.199219 43.681641 L 14.041016 44.564453 L 14.652344 45.21875 L 15 45.28125 L 15.800781 44.878906 L 15.958984 43.998047 L 15.347656 43.341797 L 15 43.28125 z M 53 44 L 52.199219 44.402344 L 52.041016 45.283203 L 52.652344 45.9375 L 53 46 L 53.800781 45.597656 L 53.958984 44.716797 L 53.347656 44.0625 L 53 44 z M 34 47 L 33.199219 47.402344 L 33.041016 48.283203 L 33.652344 48.9375 L 34 49 L 34.800781 48.597656 L 34.958984 47.716797 L 34.347656 47.0625 L 34 47 z M 15 47.28125 L 14.199219 47.681641 L 14.041016 48.564453 L 14.652344 49.21875 L 15 49.28125 L 15.800781 48.878906 L 15.958984 47.998047 L 15.347656 47.341797 L 15 47.28125 z M 53 48 L 52.199219 48.402344 L 52.041016 49.283203 L 52.652344 49.9375 L 53 50 L 53.800781 49.597656 L 53.958984 48.716797 L 53.347656 48.0625 L 53 48 z M 34 51 L 33.199219 51.402344 L 33.041016 52.283203 L 33.652344 52.9375 L 34 53 L 34.800781 52.597656 L 34.958984 51.716797 L 34.347656 51.0625 L 34 51 z M 15 51.28125 L 14.199219 51.681641 L 14.041016 52.564453 L 14.652344 53.21875 L 15 53.28125 L 15.800781 52.878906 L 15.958984 51.998047 L 15.347656 51.341797 L 15 51.28125 z M 53 52 L 52.199219 52.402344 L 52.041016 53.283203 L 52.652344 53.9375 L 53 54 L 53.800781 53.597656 L 53.958984 52.716797 L 53.347656 52.0625 L 53 52 z M 34 55 L 33.199219 55.402344 L 33.041016 56.283203 L 33.652344 56.9375 L 34 57 L 34.800781 56.597656 L 34.958984 55.716797 L 34.347656 55.0625 L 34 55 z M 15 55.28125 L 14.199219 55.681641 L 14.041016 56.564453 L 14.652344 57.21875 L 15 57.28125 L 15.800781 56.878906 L 15.958984 55.998047 L 15.347656 55.341797 L 15 55.28125 z M 53 56 L 52.199219 56.402344 L 52.041016 57.283203 L 52.652344 57.9375 L 53 58 L 53.800781 57.597656 L 53.958984 56.716797 L 53.347656 56.0625 L 53 56 z M 34 59 L 33.199219 59.402344 L 33.041016 60.283203 L 33.652344 60.9375 L 34 61 L 34.800781 60.597656 L 34.958984 59.716797 L 34.347656 59.0625 L 34 59 z M 15 59.28125 L 14.199219 59.681641 L 14.041016 60.564453 L 14.652344 61.21875 L 15 61.28125 L 15.800781 60.878906 L 15.958984 59.998047 L 15.347656 59.341797 L 15 59.28125 z M 53 60 L 52.199219 60.402344 L 52.041016 61.283203 L 52.652344 61.9375 L 53 62 L 53.800781 61.597656 L 53.958984 60.716797 L 53.347656 60.0625 L 53 60 z M 54.765625 69 L 53.964844 69.402344 L 53.806641 70.283203 L 54.417969 70.9375 L 54.765625 71 L 55.566406 70.597656 L 55.724609 69.716797 L 55.111328 69.0625 L 54.765625 69 z M 56.548828 72.5625 L 55.748047 72.962891 L 55.589844 73.845703 L 56.203125 74.5 L 56.548828 74.5625 L 57.349609 74.160156 L 57.507812 73.279297 L 56.896484 72.625 L 56.548828 72.5625 z"/></svg>