<svg id="Layer_1" data-name="Layer 1" xmlns="http://www.w3.org/2000/svg" viewBox="0 0 1000 1000"><defs><style>.cls-1{fill:#38c2d5;}.cls-2{fill:#ce7cb3;}.cls-3{fill:#fad0e2;}</style></defs><title>Aquarius</title><path class="cls-1" d="M435.7,362.06c22.6-18.05,44.78-35.56,63.81-57.3-5.79-5.19-14.55-9.17-21.41-12.41a100.93,100.93,0,0,0-25.48-8.11c-37.3-6.56-69,7.91-96,32.7-11,10.08-21.57,20.65-33.88,29.13-13.52,9.31-28.72,14.23-44.55,18.09-16.11,3.93-32.53,7.41-47.5,14.82-8.31,4.11-16.7,9.4-22.74,16.57-6.45,7.67-9.09,21.67,4.31,23.12,6.86.74,12.71-2.63,19.33,1.13a18.3,18.3,0,0,1,7.85,9.77c4.11,11.43-1.82,22.25-10.06,30-12.52,11.78-26.26,21.8-38.07,34.45-2.6,2.79-11.74,10.59-7.2,15,2.65,2.56,9.16.31,11.86-.55,5.69-1.83,11.13-3.91,17.2-2.93,10.74,1.74,17.94,11.71,19.66,22,2.25,13.44-5.2,26-12.66,36.56-18.95,26.69-42.28,48.53-67.51,69.13-11,8.93-22,18.09-30.91,29.1-7.21,8.87-26.73,40.48-2.07,36.85,10-1.48,21-3.78,28.14,5.58,8.14,10.74,3.46,24.23-3.2,34.35-8.47,12.89-19.13,24.18-28,36.75-6.61,9.32-24.76,36.91-11.94,46.73s33.71-7.62,42.37-15.37c11.62-10.38,21.83-22.29,34.18-31.86,16.14-12.51,52.2-30.55,62.74-2.86,6.47,17,10.38,35.35,18.06,51.85,3.48,7.46,9.23,16.87,18.46,13.3,7.92-3.08,12-13.65,15.24-21,14.35-32.05,15.55-66.7,16.5-101.19.37-13.5,2.5-27.86,13.44-37,8.9-7.46,20.85-8.65,30.48-1.79,11.17,8,14.25,22.06,23.4,31.62,8.92,9.32,19.65,9.25,23.88-4.14,2.74-8.66,3.06-18.1,2.19-27.09-3.46-36-26.4-66.25-35.16-100.76-3-11.92-7.12-30.09-1-41.65,2.61-4.95,6.92-7,12.29-7.69,4.15-.52,9.14.64,12.61-2.57s3.83-9,3.2-13.34c-1.27-8.69-6.14-16.57-9.24-24.72a153.11,153.11,0,0,1-6.93-24C378.28,447,377,431,379,415.56c3.62-27.93,28.14-49.25,55.54-53.44A5.28,5.28,0,0,1,435.7,362.06ZM224.5,653.45a1.85,1.85,0,0,1,3.57,1c-2.93,12.46-7.85,27-17.23,36.14a1.94,1.94,0,0,1-3-2.34C213.79,676.42,220.74,666.41,224.5,653.45Zm-9.51,5c-4.1,11.74-8.89,24.89-17.06,34.44-1.73,2-4.2-.58-3.35-2.58,4.83-11.3,11.46-21.52,15.8-33.13C211.45,654.38,216,655.57,215,658.49Zm-32.66,33.73c3.64-10.88,9.18-20.81,12.22-32,.92-3.42,5.95-2,5.25,1.45-2.25,11-6.27,24.07-14.24,32.41C184.26,695.45,181.72,694.06,182.33,692.22Zm-4.61,1.42a1.87,1.87,0,0,1-3.1-1.8c2.56-7.75,6.86-14.75,9.08-22.72.65-2.33,4-1.33,3.57,1C185.73,678.08,183.33,687.48,177.72,693.64Zm-48.19-25.09c-1.66,1.15-3.39-1-2.59-2.59,7.36-14.13,25.32-24.39,37.85-33.7,16.26-12.07,32.42-24.46,44.36-41.06,1-1.44,3.43-.13,2.44,1.43-10.12,16-24.21,28-39,39.52-7.79,6.06-15.7,12-23.21,18.39C142.63,656.3,136.81,663.52,129.53,668.55Zm6.27,25c-1.48.17-1.54-2-.33-2.42a18.18,18.18,0,0,1,19.2,3.94c5.85,5.61,7.43,12.77,5.94,20.46-.38,1.93-3.06,1.26-3.21-.44C156.41,703.64,148.47,692.06,135.8,693.51Zm90.58,44.36a398.89,398.89,0,0,0-63.23,41.88c-9.57,7.78-18.06,17.25-28,24.46-6.22,4.51-13.42,7.3-20.26,3-1.64-1-1.62-4.11.58-4.47,7.69-1.27,13.65-3.15,19.63-8.39,4-3.51,7.89-7.17,12-10.62q10.58-9,21.79-17.1a325.51,325.51,0,0,1,55.59-32.15C226.66,733.48,228.63,736.67,226.38,737.87Zm10.69-80.74c-.93,6.55-2.19,14.65-6.68,19.78-.89,1-3,.25-2.82-1.17.44-3.3,1.77-6.22,2.75-9.37a71.85,71.85,0,0,0,2.38-10.45C233.15,653,237.48,654.29,237.07,657.13Zm9-128.32c-.47,2.37-4,2.17-4.6,0-2.16-8-2.21-14.84-8.82-20.93-6.88-6.35-18.37-6.65-27.4-7.08a2,2,0,0,1,0-3.9c7.18-.18,14.39-.21,21.46,1.24,5.1,1,7.21,2.69,11.05,6.38C244,510.6,247.75,520.07,246,528.81Zm8.86-5.38c-.39,1.92-2.91,1.51-3.49,0-1.16-3-1.29-6.29-2.14-9.38a54.8,54.8,0,0,0-3.68-9.85,1.77,1.77,0,0,1,3.06-1.79C252.32,508.21,256.33,516.37,254.88,523.43Zm-6.78-66.88a2,2,0,0,1-3-2.27c2.36-7.5,4.51-14.67,4.25-22.66-.41-12.33-6.52-18-17.84-20.43-5.76-1.22-15-3.79-10.24-11.46.67-1.09,2.56-.38,2.11.88-1.53,4.34,18.31,6.9,21.23,8.51a21.6,21.6,0,0,1,10,12.79C258,432.33,258.28,450,248.1,456.55Zm14.29-7.76a1.63,1.63,0,0,1-3-.82c-.15-5.84,1.17-11.51,1-17.36a57.37,57.37,0,0,0-3.93-18.84c-.85-2.19,2.7-3.6,3.74-1.58C265.89,421.29,269.91,437.57,262.39,448.79Zm37.53,103.39c.14-2.29,3.58-2.32,3.58,0,0,15.91,1.6,31.92,1.26,47.8,0,2-3.25,2.6-3.63.49C298.23,584.79,298.93,568,299.92,552.18Zm-7.21,17c1.64,14,5.25,27.92,6.37,41.95.17,2.14-2.78,2.14-3.44.47-5.16-13.08-6-28.49-6.47-42.42C289.09,566.89,292.45,567,292.71,569.22Zm-7.06,22.4c2.78,12.27,7.12,25.83,6.86,38.5,0,1.88-2.41,1.94-3.05.41-4.81-11.54-5.75-25.55-7.65-37.86C281.43,590.2,285.07,589.07,285.65,591.62Zm-3.27,28.81c2,6.39,4.49,12.87,5.27,19.53.23,1.94-2.9,2.74-3.71,1-2.82-6.06-4.06-12.92-5.74-19.38C277.49,618.87,281.56,617.77,282.38,620.43Zm27.28,61.93c-13.73,22.95-12,48.93-12.62,74.61-.45,18.5-.59,47.64-15.61,61.08a3,3,0,0,1-4.88-2.85c2.92-11.73,8.55-22.06,10.43-34.29s1.91-24.84,2.69-37.27c1.37-21.86,4.67-44.43,17.86-62.52C308.45,679.86,310.5,681,309.66,682.36ZM457.43,327.73c-4.66-.52-8.49-3.89-12.55-6.1A155.46,155.46,0,0,0,428,313.88a1.75,1.75,0,0,1,.93-3.38,77.86,77.86,0,0,1,16.83,5.58c4.51,2.07,10.71,4.58,13,9.2C459.34,326.26,458.75,327.88,457.43,327.73Zm21.71-15.08c-2.83-1-4.89-3.71-7.33-5.43a39,39,0,0,0-9-5,1.37,1.37,0,0,1,.73-2.64,30.61,30.61,0,0,1,10.7,3.53c2.73,1.63,6.42,4,7.24,7.23A1.91,1.91,0,0,1,479.14,312.65Zm-51-25.09c12.45-.32,24.78.5,36.88,3.61,7.46,1.92,17.73,4.83,21,12.47.44,1-.32,2.75-1.69,2.19-7.64-3.12-13.8-8-22.11-10.14a168.53,168.53,0,0,0-34.1-5A1.55,1.55,0,0,1,428.17,287.56Zm-42.9,32.34c13.74-.81,27.91-1.59,41.64-.4,9.45.82,20.76,2.7,27,10.53a2.18,2.18,0,0,1-2.63,3.41c-11.08-5.08-19.87-8-32.2-8.73-11.29-.68-22.55-1.18-33.81-2.34A1.24,1.24,0,0,1,385.27,319.9Zm-4,26.2c11.95-6.79,24.12-11.69,37.8-13.66,8.68-1.25,20-2.24,26.31,5.09,1.05,1.22.09,3.55-1.7,2.93-20.17-7-42-.78-60.72,8.53C381.06,349.94,379.4,347.17,381.29,346.1Zm-27,40.77c15.08-30.9,55.37-52.62,89.73-43.58,1.54.41,1.75,3.08,0,3.34-17.12,2.55-33.66,1.92-50,8.85-15.61,6.64-29,17.91-37.22,32.88C356,390,353.5,388.56,354.32,386.87Zm13.9,215.93c7.64,16.7,16.21,33.17,22.61,50.41,4.64,12.49,11.4,33.19,3.89,45.59-1,1.67-4,1.55-4.4-.57-1.56-8.25.23-16.7-1.21-25.17a142.62,142.62,0,0,0-5.94-21.64c-5.41-16-11.64-31.73-17.57-47.52C365,602.38,367.55,601.34,368.22,602.8ZM380.3,491.52c2.95,6.14,9,19.38.19,23.29-1.82.8-4.39-1-3-3,6.38-9.49-6.55-25.19-10-34.09-3.85-10-4.34-21.11-5.69-31.64-.21-1.58,2.49-1.92,2.77-.37,1.49,8.15,2.59,16.58,5.26,24.46C372.38,477.74,376.84,484.34,380.3,491.52Zm3.55-115.74c-14,11-21.18,28.62-21.72,46.1a1.53,1.53,0,0,1-3.06,0c0-18.4,5.77-36.88,20-49.29,13.46-11.76,37.87-21.95,55.86-19.22,2.13.32,1.64,3.25,0,3.83C417.3,363.51,399.35,363.53,383.85,375.78Z"/><path class="cls-2" d="M673.86,660.8a11.68,11.68,0,1,0,11.68,11.68A11.69,11.69,0,0,0,673.86,660.8Z"/><path class="cls-2" d="M579.26,177.21c-7.18,0-19.2,4.28-36.66,16.28-23,15.81-49.17,40.66-73.67,70-3.28,3.93-6.44,7.87-9.54,11.81,2.65.59,5.29,1.25,7.9,2,3.54,1.08,7.3,2.35,11.11,3.82,13.76-22.19,29.5-43.1,52.92-55.84,5.76-3.13,10.9,5.67,5.14,8.8-21.55,11.71-35.92,30.78-48.61,51.13a77.7,77.7,0,0,1,18.24,11.71,462.39,462.39,0,0,0,30-41.9c8.67-13.66,16.86-27.54,20.31-43.52,1.38-6.41,11.2-3.68,9.82,2.71-6.78,31.42-29.52,60.16-49,85C506.4,313,495,326.5,481.65,338c-14,12.05-28.79,23.28-43.21,34.83a5.35,5.35,0,0,1-6.5.2,66.92,66.92,0,0,0-28.18,14.88,9.22,9.22,0,0,0,2.76,5.28c1.85,1.55,5.07,2.22,9.72,1.51,2.83-.86,5.67-1.64,8.53-2.36,6.54-2.45,14.71-6.76,24.7-13.62,23-15.81,49.17-40.66,73.66-70s44.31-59.46,55.79-84.91c12.17-27,11.4-40.84,6.63-44.84C584.19,177.88,582.11,177.21,579.26,177.21ZM517.82,225a248,248,0,0,0-22,23.52c-6.81,8.14-12.49,17.7-20,25.14-1.55,1.52-3.61-.41-2.82-2.17,8.56-19,28.27-34.4,43.92-47.37C517.55,223.67,518.41,224.49,517.82,225Zm56.06-.27c-1.14,1.66-3.94.66-3.35-1.42,3-10.64,6.72-20.37,7-31.63a1.57,1.57,0,0,1,3.14,0C581.43,202.91,580.4,215.24,573.88,224.77Z"/><path class="cls-2" d="M462,632.19a11.68,11.68,0,1,0,11.68,11.68A11.69,11.69,0,0,0,462,632.19Z"/><path class="cls-2" d="M117.68,581.38a11.68,11.68,0,1,0,11.68,11.68A11.69,11.69,0,0,0,117.68,581.38Z"/><path class="cls-2" d="M346.22,246.83a11.68,11.68,0,1,0-11.68-11.68A11.69,11.69,0,0,0,346.22,246.83Z"/><path class="cls-2" d="M187.31,343.93a11.68,11.68,0,1,0-11.68-11.68A11.69,11.69,0,0,0,187.31,343.93Z"/><path class="cls-3" d="M538.68,578.46c-2-.28-1.46-3.5.47-3.48,16.49.2,32.12-2.65,48.29-4.47q-3.29-5.85-6-12c-.15.07-.28.16-.45.23-20.42,8-41.58,9.91-62,.3-17.62-8.3-33.57-18.61-42.07-36.75-9.79-20.89-10.08-42.41,7.44-59.32,16.38-15.8,38.77-18.84,60.36-16.33a106.79,106.79,0,0,0-9.52-14.31c-27.83-5.14-63.22-4.34-84.48,16.86-24.68,24.59-11.31,56.47,5.94,81,30.84,43.79,85,65.95,136.53,49.76-1-1.43-1.91-2.88-2.83-4.35C574.28,581.25,555.3,580.72,538.68,578.46ZM476.59,439.65c12.68-4.28,30-11,43.33-6.18,1.18.42,1.5,2.47,0,2.72-7,1.2-14.18.7-21.26,1.74s-14.31,2.67-21.39,4.17A1.27,1.27,0,0,1,476.59,439.65Zm-14.82,31.6c11.53-18.64,38.17-36.31,61.11-30.82,1.52.36,1.64,2.9,0,3.18-11,1.89-21.22,2-31.54,6.92a73.67,73.67,0,0,0-26.82,22.33C463.31,474.45,460.66,473,461.77,471.25Zm62.05,98c-35.31-4.81-62.46-38.64-61.24-73.68a1.28,1.28,0,0,1,2.55,0c1.39,16.87,7.75,33.49,19,46.27,11.52,13.09,26.21,16.85,40.57,25.37C525.86,567.89,525,569.39,523.82,569.23Z"/><path class="cls-3" d="M664.85,313.64c-5.81-21.47-5.56-44.79,8.64-63.23,14.41-18.72,35.47-21,56.93-14.3,18.91,5.91,31.78,20.21,42.34,36.44,12,18.45,13.25,39,8.78,59.89a133.11,133.11,0,0,1,22.57,10.06c8.87-54.54-23-105.31-71.93-128.9-26.35-12.69-58.56-20-78.6,7.13-18.22,24.65-13.19,60.29-3.68,87.45A111,111,0,0,0,664.85,313.64ZM772.14,259c8.81,10.07,15.07,20.45,19,33.37,3.54,11.65,6.92,26.77,2.61,38.61-.53,1.46-3,1.81-3.34,0-2.36-11.76-1.16-23.75-4.19-35.54A130.45,130.45,0,0,0,771,259.93C770.55,259.23,771.59,258.41,772.14,259Zm-80-31.77a62,62,0,0,1,40.82-.6c10.51,3.43,24.7,10.28,28.91,21.24.45,1.18-1,2-2,1.53-5.24-2.75-9.26-7.34-14.19-10.63a67,67,0,0,0-15.54-7.59A73.28,73.28,0,0,0,692.63,229,.88.88,0,0,1,692.16,227.27ZM679.56,232a1.13,1.13,0,0,1,1.14,2c-19.49,13.25-24.53,32.43-22.31,54.91.18,1.8-2.29,1.73-2.85.38C646.36,267.44,659.53,242.15,679.56,232ZM647.2,271.53c-6-11.78,3.7-28,12.29-35.75a1.37,1.37,0,0,1,1.94,1.94A48.42,48.42,0,0,0,652,255.05c-1.63,5.33-1.06,11-2.69,16.21A1.17,1.17,0,0,1,647.2,271.53Z"/><path class="cls-3" d="M854.78,433.08c-6.57-34.8-27.42-68.41-59.73-84.4-34.53-17.1-74.09-15.33-111.27-21.22-31.74-5-61-17.18-78.92-45-10.51-16.32-15.33-35.06-16.74-54.19C576.25,254.46,556,285.37,531,315.29s-52,55.5-75.71,71.82c-.38.27-.76.51-1.14.77,25.46-1.28,50.68,4.59,72,21a94.3,94.3,0,0,1,15.15,14.71,3.94,3.94,0,0,1,1.21,1.53c17.47,21.91,26,50.53,32.63,77.41,8.83,35.63,16.88,71.77,48.61,94.24C655,618.93,694.55,624.61,731.48,616a193,193,0,0,0,55-22.17c17.82-10.6,35.29-23.14,45.39-41.61C851.51,516.37,862.52,474.1,854.78,433.08Zm-10-3.81c-8.14-6-15-13.72-22.7-20.24-9.27-7.82-19.16-14.8-29.08-21.78a1.67,1.67,0,0,1,1.69-2.88c18.66,9.66,41,24.47,52.68,42.31C848.39,428.2,846.34,430.4,844.8,429.27Zm-21.15-48.51c1.53,1.38,3.1,2.72,4.58,4.15s2.91,2.68,3.51,4.5a1.48,1.48,0,0,1-1.81,1.81c-1.82-.61-3.18-2.17-4.49-3.52s-2.78-3.05-4.15-4.58A1.67,1.67,0,0,1,823.65,380.76Zm-9.14,3.9c7.34,7.52,20,10.58,24.56,21,.6,1.37-.69,3.07-2.18,2.18-4.77-2.85-8.39-7.74-12.67-11.31-4-3.34-8.31-6.24-11.46-10.48C812,385,813.65,383.78,814.51,384.66ZM694.2,335.88c20.67,4.72,42,4.46,62.81,8.36,13.61,2.55,33.12,7.42,40.9,20,1.38,2.25-1.27,4.25-3.32,3.32-8.35-3.78-15.17-9.53-24-12.73A126.33,126.33,0,0,0,749,349.41c-18.77-3.25-37.58-3.9-55.75-10.11A1.77,1.77,0,0,1,694.2,335.88Zm89,117.76c-15.33,3-32.43-3.75-45.73-10.83-1.53-.82-.18-2.92,1.33-2.27a117.47,117.47,0,0,0,23.15,7c7,1.42,14.24,1.28,21.25,2.73A1.77,1.77,0,0,1,783.21,453.64Zm-.65,11.93c-11.6,2.47-24.47-2.24-35.44-5.81-4-1.28-8-2.5-11.45-4.89-7-4.88-10.07-11-18.66-14.4-1.09-.43-.66-2.19.5-1.8,10.62,3.5,17.32,11.84,27.66,15.27,12.36,4.1,24.83,5.29,37.39,8.13A1.83,1.83,0,0,1,782.56,465.57Zm-29.49-26.05c-1.14-.3-.93-2.25.29-2.11,5.47.64,11,.82,16.47,1.06,4.76.21,10-.57,14.55,1,.85.29,1.25,1.66.27,2.11C775.58,445.71,762.28,441.94,753.07,439.52ZM767.69,430c3,0,6.5-.33,9.17,1.24a1.33,1.33,0,0,1-.31,2.4c-2.9,1.08-6.35,0-9.29-.44C765.4,432.85,765.91,429.92,767.69,430Zm10.15-61.13a96.57,96.57,0,0,0-10.11-5.47c-1.28-.59-.34-2.5.92-2.19a59,59,0,0,1,13.16,4.71c2.84,1.48,6.63,3.65,6.45,7.31a1.51,1.51,0,0,1-2.24,1.29C783.15,373.08,780.62,370.51,777.84,368.82ZM682.6,439.87c17.22-1.5,28.17,6,41.88,15.12a91.43,91.43,0,0,0,27.35,12.23c8.87,2.35,18,2.33,26.87,4.27,2,.43,1.93,3.5,0,4-14.67,3.65-32.13-2.16-45.19-8.76-17.81-9-29.08-25.41-50.91-24.06C680.79,442.77,680.83,440,682.6,439.87Zm-22.55,75a2.3,2.3,0,0,1-4.18,1.77c-7.15-12.29-12.34-25.71-19.41-38.1s-14.86-24.36-23.12-36c-1.48-2.08,2-4.72,3.53-2.73C633.93,461.68,652.34,487.87,660.05,514.84Zm-2.85-32.67c8.24,12.6,18.61,27.62,21.31,42.68a2,2,0,0,1-3.64,1.53c-4.43-6.38-7.1-14.07-10.55-21s-7.2-14-11.1-20.85C651.73,481.9,655.59,479.7,657.2,482.17Zm-22.83,12c.86,2.06-2.29,3.05-3.38,1.43-21.24-31.49-41.14-62.53-67.43-90.27a1.39,1.39,0,0,1,2-2C593.32,428.5,619.8,459.29,634.37,494.18ZM611.79,522.9c5.26,11.48,10.77,23,17.65,33.62,7.16,11,16.23,17.73,25.47,26.65a2.53,2.53,0,0,1-2.44,4.19c-25.23-7.67-36.06-41.18-43.77-63.15C608.07,522.4,611,521.17,611.79,522.9ZM654.51,571C643.65,558.75,635.9,545,628.7,530.33c-.39-.8.7-1.8,1.31-1,9.3,11.87,18.14,24.39,28.2,35.62,9.72,10.84,21.42,17.59,32.64,26.45,2,1.62-.23,4.52-2.37,4.06C675.15,592.55,663.29,581,654.51,571Zm-.64-26.36c-1.33-1.89,1.73-4.22,3.19-2.46a227.06,227.06,0,0,0,30.64,30c6.44,5.32,12.95,10.11,20.9,12.94,6,2.14,12.31,2.93,18.21,5.45,2.5,1.07.87,4.4-1.25,4.6C695.17,598.09,669.37,566.72,653.87,544.68Zm37.38,16.79c-1.73-1.53.74-3.82,2.47-2.48,8.95,7,19,13.14,29.7,17.08,9.08,3.34,18.51,3.13,27.61,5.76,2.1.6,1.79,3.23,0,3.95C730.21,594.17,705.65,574.16,691.25,561.47ZM723,467.17c16.37,10.34,34.2,10.12,51.66,16.57a1.1,1.1,0,0,1-.29,2.15c-18.2,1.72-39.17-4.82-53.44-16C719.39,468.64,721.41,466.16,723,467.17Zm8.56,101.53a2,2,0,0,1,2-3.43c13.32,6.7,26.44,7,40.88,8.62,2.5.28,3.3,3.81.62,4.57C760.24,582.71,744.05,576.63,731.57,568.7Zm-53.83-69.91c3.9,7.16,9.38,14.71,11.24,22.71.36,1.52-1.6,2.9-2.76,1.61-5.47-6.13-8.5-14.89-12.12-22.19C672.9,498.5,676.44,496.39,677.74,498.79ZM585,263.17c7.68,17.12,15.16,35.32,29.77,47.79,15.76,13.44,33.23,16.53,53.15,18.13,2.42.19,3.24,3.86.61,4.45-18.46,4.17-39.85-3.59-54.45-14.83-17.66-13.6-25.81-33.56-32.28-54.19C581.22,262.64,584.19,261.35,585,263.17Zm-9.09,7.05c7.91,12.7,9.71,28.2,18.89,40.47.92,1.23-1.19,2.84-2.12,1.64-9-11.52-16.71-26.62-19.06-41.15A1.26,1.26,0,0,1,575.91,270.22Zm-8.37,8.16c4.9,3,7.15,10.13,9.36,15.13,1.05,2.39-2.37,4.51-3.58,2.09-1.45-2.9-3-5.76-4.62-8.56-1.42-2.43-2.79-4.73-3-7.57A1.26,1.26,0,0,1,567.54,278.38Zm-84.09,96.25c4.16-5.61,10.31-9.31,15.61-13.82a230.4,230.4,0,0,0,17.36-16.44c11.65-12.21,21.84-25.83,31.38-39.73a1.47,1.47,0,0,1,2.54,1.49,197.18,197.18,0,0,1-29.07,40.67c-9.58,10.49-22.07,25.67-35.8,30.46C484.06,377.75,482.52,375.87,483.45,374.63Zm47.35-3.8c2.28,1.62.27,5.26-2.23,3.81a65,65,0,0,0-9.36-4.51c-2.84-1.09-5.92-1.65-8.46-3.37-1.13-.78-1.22-3,.43-3.28C517.89,362.42,525.55,367.09,530.8,370.83Zm-13.65-13.55c3.92-.88,7.78.15,11.49,1.47,2.74,1,1.54,5.37-1.2,4.37-3.38-1.22-6.94-1.7-10.29-3C515.88,359.68,515.59,357.63,517.15,357.28ZM544.4,395a1.45,1.45,0,0,1-2,2.06,92.27,92.27,0,0,0-20.06-13.19c-6.62-3.22-13.88-4.21-20.44-7.39-1.45-.7-1.19-3.35.47-3.6C518.27,370.52,535.25,383.18,544.4,395Zm5.69,27.64c-8.23-5.2-12.27-14.68-19.73-20.87-9.34-7.76-21.43-12.64-33-16-1.57-.45-.87-2.6.66-2.38,25.22,3.72,41.27,15.29,54.21,37.06A1.58,1.58,0,0,1,550.09,422.66Zm8.66-133.31c-.58-1.56,1.1-2.63,2.42-2.42,3.94.6,6.85,5.4,8.61,8.57,1.63,2.95-2.72,5.47-4.5,2.63a31,31,0,0,0-3.3-4.27A14.48,14.48,0,0,1,558.75,289.35ZM783.44,585.91c-19,17.18-51.66,22.69-76.4,23.35-25.84.69-54.31-3.85-75.15-20.12-46-36-43.88-100.84-68.65-149a1.31,1.31,0,0,1,2.27-1.32c24.86,43.61,26.62,101,63.5,137.49,20,19.85,48.94,25.39,76.29,24.84a157.55,157.55,0,0,0,40.08-6c12.27-3.49,23.38-9.83,35.51-13.54C783.35,580.77,785.39,584.15,783.44,585.91Zm-1.83-21c-2.35.74-3.47-2.15-2.19-3.76,3.56-4.45,8.77-8,12.92-11.94s8.43-8.29,12.6-12.48c1.67-1.68,4.87.63,3.37,2.61C801.49,548.34,792.9,561.38,781.61,564.94Zm62.49-69.52c-8.05,28.48-23.77,61.77-50,77.9-2.11,1.29-5.24-1.44-3.6-3.6,8.94-11.69,19.55-21.75,27.93-34a192.87,192.87,0,0,0,21.95-41.35C841.26,492.14,844.78,493,844.1,495.42Zm2.44-30.61c-5.32-4.38-8.59-11.53-12.87-16.91A63,63,0,0,0,815.61,432c-1.86-1-.21-3.84,1.66-2.85A67.08,67.08,0,0,1,836,444.44c4.76,5.39,10.88,12,13,18.94A1.48,1.48,0,0,1,846.54,464.81Zm6.9-10.23c-8.39-5.2-15-14.3-21.92-21.33-7.83-8-15.88-15.67-24.33-23-1.37-1.19.51-3.64,1.95-2.53,8.53,6.59,16.91,13.4,24.92,20.61,7.55,6.79,17.23,14.68,21.64,24C856.36,453.72,854.94,455.52,853.44,454.58Z"/><path d="M813.35,348.33c12.44-64.59-26.86-123.92-86.22-148-28.66-11.64-59.63-13.63-80.49,12.87C627.42,237.59,628.72,272,637,301a81.87,81.87,0,0,1-7.19-5.41c-30.25-25.67-34.62-66.57-30.6-103.71a4.78,4.78,0,0,0-.23-2.19c.12-8.31-2.14-14.55-6.85-18.49-10.34-8.65-29.45-3.84-55.25,13.89-23.75,16.33-50.64,41.84-75.71,71.83q-6.83,8.16-13.14,16.38a117.9,117.9,0,0,0-30.32.38c-34.1,4.85-56.87,25.89-81.25,48.17-14,12.79-28.5,23.15-46.83,28.74-16.72,5.1-34.07,7.75-50.51,13.84-19.06,7.05-60.45,29.47-43.54,55.88a18.09,18.09,0,0,0,11.21,8.11c8.47,1.91,22.39-5.21,23.72,7.73.91,8.85-7,15.35-13.14,20.41-7.37,6-14.71,12-21.63,18.59-7.94,7.55-26.66,21.53-23,34.66,3,10.66,15.72,11.51,24.54,8.94s17.51-6.06,23.31,3.78c5.41,9.18,1.14,20-3.82,28.36-9.17,15.39-21.57,29.38-34,42.16-22.21,22.77-50.84,39.52-70.36,64.82-7.41,9.61-15.71,22.77-15.41,35.42.27,11.78,9.54,17.39,20.46,16.38,5.49-.51,12.89-3.67,18.27-1.66,13.78,5.15,2.6,22.62-2.5,29.8-9.23,13-20.21,24.63-28.88,38-11.19,17.26-25.93,57.45,7.68,58.93,30.16,1.32,51.23-31.11,71.65-48.37,10.21-8.63,43.25-30.92,51-10,6.15,16.66,10.46,34.19,17.51,50.5,4.17,9.63,11.29,20.8,22.74,22.08,14,1.57,22.07-11.82,27.43-22.58,15.27-30.63,19.3-65.34,20-99.14.18-8.9-.47-18.28,1.77-27,2.65-10.23,11.27-21.44,23.12-17.12,13.66,5,17.72,26.19,28.57,35.39,8.52,7.22,20.77,10.41,29.8,2.14,10.11-9.26,11.26-27.5,10.57-40.18C414,643.2,391.11,612.11,381.2,577a98.28,98.28,0,0,1-4.09-27.09c0-7.1.41-10.86,8.29-12.95,3.5-.93,6.91,0,10.43-1.53,10.73-4.67,13.64-17.71,11.42-28.15-1.76-8.3-6.15-15.87-9.16-23.75A151,151,0,0,1,390.5,456c-3-17.2-5-39,3.16-55.09a37.85,37.85,0,0,1,2.6-4.35A17,17,0,0,0,400,401c3.34,2.79,7.6,4.18,12.71,4.18a33,33,0,0,0,4.54-.34,5.7,5.7,0,0,0,1.25-.2,54,54,0,0,0,9.05-2.48c33.54-8.22,70-5.42,96.63,18.28-27.41-2.89-57.35.7-78.25,19.25-11.49,10.21-19.17,25.05-19.7,40.51-.53,15.63,6.92,30.86,14.61,44,32.15,55,97.16,86,159,64.15a102,102,0,0,0,20.07,18.1c29.15,20,65.6,27.14,100.32,22,37-5.44,72-22.59,100.51-46.52,30.07-25.19,41.72-69.12,45.66-106.51,3.68-35-4.45-70.63-25-99.46A114.07,114.07,0,0,0,813.35,348.33ZM653.58,220.73c20-27.1,52.25-19.82,78.6-7.13C781.12,237.19,813,288,804.11,342.5a133.11,133.11,0,0,0-22.57-10.06c4.47-20.91,3.22-41.44-8.78-59.89-10.56-16.23-23.43-30.53-42.34-36.44-21.46-6.72-42.52-4.42-56.93,14.3-14.2,18.44-14.45,41.76-8.64,63.23a111,111,0,0,1-15-5.46C640.39,281,635.36,245.38,653.58,220.73ZM771.77,329.48c-5.17-1.39-10.45-2.58-15.86-3.51-24.85-4.3-53.42-4-79.61-9.49-6.07-18.81-8.18-39.86,3.3-57.18,12.74-19.2,34.25-19.66,53.81-11.28,13.42,5.75,24.17,19,31.58,31.33C774.5,295.19,775.47,311.87,771.77,329.48ZM379,415.56c-2,15.4-.7,31.45,2.36,46.63a153.11,153.11,0,0,0,6.93,24c3.1,8.15,8,16,9.24,24.72.63,4.33.34,10.05-3.2,13.34s-8.46,2.05-12.61,2.57c-5.37.68-9.68,2.74-12.29,7.69-6.1,11.56-2,29.73,1,41.65C379.19,610.7,402.13,641,405.59,677c.87,9,.55,18.43-2.19,27.09-4.23,13.39-15,13.46-23.88,4.14-9.15-9.56-12.23-23.67-23.4-31.62-9.63-6.86-21.58-5.67-30.48,1.79-10.94,9.18-13.07,23.54-13.44,37-.95,34.49-2.15,69.14-16.5,101.19-3.28,7.33-7.32,17.9-15.24,21-9.23,3.57-15-5.84-18.46-13.3-7.68-16.5-11.59-34.86-18.06-51.85-10.54-27.69-46.6-9.65-62.74,2.86-12.35,9.57-22.56,21.48-34.18,31.86-8.66,7.75-29.54,25.19-42.37,15.37s5.33-37.41,11.94-46.73c8.92-12.57,19.58-23.86,28-36.75,6.66-10.12,11.34-23.61,3.2-34.35-7.09-9.36-18.09-7.06-28.14-5.58-24.66,3.63-5.14-28,2.07-36.85,8.94-11,20-20.17,30.91-29.1,25.23-20.6,48.56-42.44,67.51-69.13,7.46-10.51,14.91-23.12,12.66-36.56-1.72-10.24-8.92-20.21-19.66-22-6.07-1-11.51,1.1-17.2,2.93-2.7.86-9.21,3.11-11.86.55-4.54-4.38,4.6-12.18,7.2-15,11.81-12.65,25.55-22.67,38.07-34.45,8.24-7.74,14.17-18.56,10.06-30a18.3,18.3,0,0,0-7.85-9.77c-6.62-3.76-12.47-.39-19.33-1.13-13.4-1.45-10.76-15.45-4.31-23.12,6-7.17,14.43-12.46,22.74-16.57,15-7.41,31.39-10.89,47.5-14.82,15.83-3.86,31-8.78,44.55-18.09,12.31-8.48,22.91-19.05,33.88-29.13,27-24.79,58.68-39.26,96-32.7a100.93,100.93,0,0,1,25.48,8.11c6.86,3.24,15.62,7.22,21.41,12.41-19,21.74-41.21,39.25-63.81,57.3a5.28,5.28,0,0,0-1.18.06C407.12,366.31,382.6,387.63,379,415.56Zm45.79-23.22c-2.86.72-5.7,1.5-8.53,2.36-4.65.71-7.87,0-9.72-1.51a9.22,9.22,0,0,1-2.76-5.28A66.92,66.92,0,0,1,431.94,373a5.35,5.35,0,0,0,6.5-.2c14.42-11.55,29.21-22.78,43.21-34.83,13.36-11.5,24.75-25,35.59-38.84,19.43-24.79,42.17-53.53,49-85,1.38-6.39-8.44-9.12-9.82-2.71-3.45,16-11.64,29.86-20.31,43.52a462.39,462.39,0,0,1-30,41.9,77.7,77.7,0,0,0-18.24-11.71c12.69-20.35,27.06-39.42,48.61-51.13,5.76-3.13.62-11.93-5.14-8.8C507.9,238,492.16,258.93,478.4,281.12c-3.81-1.47-7.57-2.74-11.11-3.82-2.61-.79-5.25-1.45-7.9-2,3.1-3.94,6.26-7.88,9.54-11.81,24.5-29.3,50.66-54.15,73.67-70,17.46-12,29.48-16.28,36.66-16.28,2.85,0,4.93.67,6.29,1.8,4.77,4,5.54,17.87-6.63,44.84-11.48,25.45-31.29,55.6-55.79,84.91s-50.65,54.15-73.66,70C439.48,385.58,431.31,389.89,424.77,392.34ZM456.69,530.1c-17.25-24.49-30.62-56.37-5.94-81,21.26-21.2,56.65-22,84.48-16.86a106.79,106.79,0,0,1,9.52,14.31c-21.59-2.51-44,.53-60.36,16.33-17.52,16.91-17.23,38.43-7.44,59.32,8.5,18.14,24.45,28.45,42.07,36.75,20.38,9.61,41.54,7.72,62-.3.17-.07.3-.16.45-.23q2.73,6.21,6,12c-16.17,1.82-31.8,4.67-48.29,4.47-1.93,0-2.49,3.2-.47,3.48,16.62,2.26,35.6,2.79,51.71-3,.92,1.47,1.85,2.92,2.83,4.35C541.71,596.05,487.53,573.89,456.69,530.1Zm92.61-72.66a5.52,5.52,0,0,0,.9.06c9.13,20.55,13.89,43.49,19.32,64.83a262.11,262.11,0,0,0,8.16,26.76c-16.72,6.48-32.59,8.7-49.87,2.42-13.15-4.79-28.72-13.43-36.79-25-11.42-16.42-16.14-37.78-1.78-53.91C504.41,455.52,528.23,453.81,549.3,457.44Zm282.58,94.82c-10.1,18.47-27.57,31-45.39,41.61a193,193,0,0,1-55,22.17c-36.93,8.57-76.48,2.89-107.76-19.28-31.73-22.47-39.78-58.61-48.61-94.24-6.67-26.88-15.16-55.5-32.63-77.41a3.94,3.94,0,0,0-1.21-1.53,94.3,94.3,0,0,0-15.15-14.71c-21.34-16.4-46.56-22.27-72-21,.38-.26.76-.5,1.14-.77C479,370.79,505.87,345.28,531,315.29s45.3-60.83,57.17-87.06c1.41,19.13,6.23,37.87,16.74,54.19,17.95,27.86,47.18,40,78.92,45,37.18,5.89,76.74,4.12,111.27,21.22,32.31,16,53.16,49.6,59.73,84.4C862.52,474.1,851.51,516.37,831.88,552.26Z"/><path d="M614.08,318.71c14.6,11.24,36,19,54.45,14.83,2.63-.59,1.81-4.26-.61-4.45-19.92-1.6-37.39-4.69-53.15-18.13-14.61-12.47-22.09-30.67-29.77-47.79-.81-1.82-3.78-.53-3.2,1.35C588.27,285.15,596.42,305.11,614.08,318.71Z"/><path d="M594.8,310.69c-9.18-12.27-11-27.77-18.89-40.47a1.26,1.26,0,0,0-2.29,1c2.35,14.53,10.07,29.63,19.06,41.15C593.61,313.53,595.72,311.92,594.8,310.69Z"/><path d="M573.32,295.6c1.21,2.42,4.63.3,3.58-2.09-2.21-5-4.46-12.15-9.36-15.13a1.26,1.26,0,0,0-1.88,1.09c.25,2.84,1.62,5.14,3,7.57C570.34,289.84,571.87,292.7,573.32,295.6Z"/><path d="M569.78,295.5c-1.76-3.17-4.67-8-8.61-8.57-1.32-.21-3,.86-2.42,2.42a14.48,14.48,0,0,0,3.23,4.51,31,31,0,0,1,3.3,4.27C567.06,301,571.41,298.45,569.78,295.5Z"/><path d="M517,224.16c-15.65,13-35.36,28.35-43.92,47.37-.79,1.76,1.27,3.69,2.82,2.17,7.52-7.44,13.2-17,20-25.14a248,248,0,0,1,22-23.52C518.41,224.49,517.55,223.67,517,224.16Z"/><path d="M573.88,224.77c6.52-9.53,7.55-21.86,6.8-33.05a1.57,1.57,0,0,0-3.14,0c-.29,11.26-4,21-7,31.63C569.94,225.43,572.74,226.43,573.88,224.77Z"/><path d="M434.9,353.37c-18-2.73-42.4,7.46-55.86,19.22-14.2,12.41-20,30.89-20,49.29a1.53,1.53,0,0,0,3.06,0c.54-17.48,7.76-35.08,21.72-46.1,15.5-12.25,33.45-12.27,51-18.58C436.54,356.62,437,353.69,434.9,353.37Z"/><path d="M394.09,355.48c16.3-6.93,32.84-6.3,50-8.85,1.75-.26,1.54-2.93,0-3.34-34.36-9-74.65,12.68-89.73,43.58-.82,1.69,1.63,3.17,2.55,1.49C365,373.39,378.48,362.12,394.09,355.48Z"/><path d="M383,349c18.73-9.31,40.55-15.5,60.72-8.53,1.79.62,2.75-1.71,1.7-2.93-6.27-7.33-17.63-6.34-26.31-5.09-13.68,2-25.85,6.87-37.8,13.66C379.4,347.17,381.06,349.94,383,349Z"/><path d="M385.27,322.37c11.26,1.16,22.52,1.66,33.81,2.34,12.33.74,21.12,3.65,32.2,8.73a2.18,2.18,0,0,0,2.63-3.41c-6.24-7.83-17.55-9.71-27-10.53-13.73-1.19-27.9-.41-41.64.4A1.24,1.24,0,0,0,385.27,322.37Z"/><path d="M445.79,316.08A77.86,77.86,0,0,0,429,310.5a1.75,1.75,0,0,0-.93,3.38,155.46,155.46,0,0,1,16.85,7.75c4.06,2.21,7.89,5.58,12.55,6.1,1.32.15,1.91-1.47,1.41-2.45C456.5,320.66,450.3,318.15,445.79,316.08Z"/><path d="M428.17,290.66a168.53,168.53,0,0,1,34.1,5c8.31,2.17,14.47,7,22.11,10.14,1.37.56,2.13-1.16,1.69-2.19-3.29-7.64-13.56-10.55-21-12.47-12.1-3.11-24.43-3.93-36.88-3.61A1.55,1.55,0,0,0,428.17,290.66Z"/><path d="M474.23,303.09a30.61,30.61,0,0,0-10.7-3.53,1.37,1.37,0,0,0-.73,2.64,39,39,0,0,1,9,5c2.44,1.72,4.5,4.44,7.33,5.43a1.91,1.91,0,0,0,2.33-2.33C480.65,307.08,477,304.72,474.23,303.09Z"/><path d="M364.55,445.68c-.28-1.55-3-1.21-2.77.37,1.35,10.53,1.84,21.66,5.69,31.64,3.44,8.9,16.37,24.6,10,34.09-1.36,2,1.21,3.83,3,3,8.79-3.91,2.76-17.15-.19-23.29-3.46-7.18-7.92-13.78-10.49-21.38C367.14,462.26,366,453.83,364.55,445.68Z"/><path d="M304.76,600c.34-15.88-1.24-31.89-1.26-47.8,0-2.32-3.44-2.29-3.58,0-1,15.84-1.69,32.61,1.21,48.29C301.51,602.58,304.72,602,304.76,600Z"/><path d="M299.08,611.17c-1.12-14-4.73-27.93-6.37-41.95-.26-2.2-3.62-2.33-3.54,0,.45,13.93,1.31,29.34,6.47,42.42C296.3,613.31,299.25,613.31,299.08,611.17Z"/><path d="M289.46,630.53c.64,1.53,3,1.47,3.05-.41.26-12.67-4.08-26.23-6.86-38.5-.58-2.55-4.22-1.42-3.84,1C283.71,605,284.65,619,289.46,630.53Z"/><path d="M283.94,641c.81,1.74,3.94.94,3.71-1-.78-6.66-3.31-13.14-5.27-19.53-.82-2.66-4.89-1.56-4.18,1.15C279.88,628,281.12,634.9,283.94,641Z"/><path d="M365.6,603.9c5.93,15.79,12.16,31.55,17.57,47.52a142.62,142.62,0,0,1,5.94,21.64c1.44,8.47-.35,16.92,1.21,25.17.41,2.12,3.4,2.24,4.4.57,7.51-12.4.75-33.1-3.89-45.59-6.4-17.24-15-33.71-22.61-50.41C367.55,601.34,365,602.38,365.6,603.9Z"/><path d="M307.53,681.12c-13.19,18.09-16.49,40.66-17.86,62.52-.78,12.43-.8,24.94-2.69,37.27s-7.51,22.56-10.43,34.29a3,3,0,0,0,4.88,2.85c15-13.44,15.16-42.58,15.61-61.08.63-25.68-1.11-51.66,12.62-74.61C310.5,681,308.45,679.86,307.53,681.12Z"/><path d="M224.41,734.51a325.51,325.51,0,0,0-55.59,32.15q-11.2,8.13-21.79,17.1c-4.07,3.45-7.94,7.11-12,10.62-6,5.24-11.94,7.12-19.63,8.39-2.2.36-2.22,3.45-.58,4.47,6.84,4.27,14,1.48,20.26-3,10-7.21,18.46-16.68,28-24.46a398.89,398.89,0,0,1,63.23-41.88C228.63,736.67,226.66,733.48,224.41,734.51Z"/><path d="M183.7,669.12c-2.22,8-6.52,15-9.08,22.72a1.87,1.87,0,0,0,3.1,1.8c5.61-6.16,8-15.56,9.55-23.54C187.72,667.79,184.35,666.79,183.7,669.12Z"/><path d="M185.56,694.09c8-8.34,12-21.37,14.24-32.41.7-3.41-4.33-4.87-5.25-1.45-3,11.18-8.58,21.11-12.22,32C181.72,694.06,184.26,695.45,185.56,694.09Z"/><path d="M210.38,657.22c-4.34,11.61-11,21.83-15.8,33.13-.85,2,1.62,4.59,3.35,2.58,8.17-9.55,13-22.7,17.06-34.44C216,655.57,211.45,654.38,210.38,657.22Z"/><path d="M210.84,690.57c9.38-9.15,14.3-23.68,17.23-36.14a1.85,1.85,0,0,0-3.57-1c-3.76,13-10.71,23-16.69,34.78A1.94,1.94,0,0,0,210.84,690.57Z"/><path d="M232.7,655.92a71.85,71.85,0,0,1-2.38,10.45c-1,3.15-2.31,6.07-2.75,9.37-.19,1.42,1.93,2.18,2.82,1.17,4.49-5.13,5.75-13.23,6.68-19.78C237.48,654.29,233.15,653,232.7,655.92Z"/><path d="M172.58,632.15c14.8-11.51,28.89-23.53,39-39.52,1-1.56-1.4-2.87-2.44-1.43-11.94,16.6-28.1,29-44.36,41.06-12.53,9.31-30.49,19.57-37.85,33.7-.8,1.56.93,3.74,2.59,2.59,7.28-5,13.1-12.25,19.84-18C156.88,644.12,164.79,638.21,172.58,632.15Z"/><path d="M160.61,715.49c1.49-7.69-.09-14.85-5.94-20.46a18.18,18.18,0,0,0-19.2-3.94c-1.21.43-1.15,2.59.33,2.42,12.67-1.45,20.61,10.13,21.6,21.54C157.55,716.75,160.23,717.42,160.61,715.49Z"/><path d="M226.66,498.14c-7.07-1.45-14.28-1.42-21.46-1.24a2,2,0,0,0,0,3.9c9,.43,20.52.73,27.4,7.08,6.61,6.09,6.66,12.9,8.82,20.93.58,2.17,4.13,2.37,4.6,0,1.73-8.74-2-18.21-8.31-24.29C233.87,500.83,231.76,499.18,226.66,498.14Z"/><path d="M245.57,504.2a54.8,54.8,0,0,1,3.68,9.85c.85,3.09,1,6.4,2.14,9.38.58,1.51,3.1,1.92,3.49,0,1.45-7.06-2.56-15.22-6.25-21A1.77,1.77,0,0,0,245.57,504.2Z"/><path d="M244.65,409.12c-2.92-1.61-22.76-4.17-21.23-8.51.45-1.26-1.44-2-2.11-.88-4.71,7.67,4.48,10.24,10.24,11.46,11.32,2.4,17.43,8.1,17.84,20.43.26,8-1.89,15.16-4.25,22.66a2,2,0,0,0,3,2.27c10.18-6.56,9.85-24.22,6.54-34.64A21.6,21.6,0,0,0,244.65,409.12Z"/><path d="M256.41,411.77a57.37,57.37,0,0,1,3.93,18.84c.21,5.85-1.11,11.52-1,17.36a1.63,1.63,0,0,0,3,.82c7.52-11.22,3.5-27.5-2.24-38.6C259.11,408.17,255.56,409.58,256.41,411.77Z"/><path d="M780.89,581.52c-12.13,3.71-23.24,10.05-35.51,13.54a157.55,157.55,0,0,1-40.08,6c-27.35.55-56.25-5-76.29-24.84-36.88-36.53-38.64-93.88-63.5-137.49a1.31,1.31,0,0,0-2.27,1.32c24.77,48.21,22.6,113.08,68.65,149.05C652.73,605.41,681.2,610,707,609.26c24.74-.66,57.38-6.17,76.4-23.35C785.39,584.15,783.35,580.77,780.89,581.52Z"/><path d="M652.47,587.36a2.53,2.53,0,0,0,2.44-4.19c-9.24-8.92-18.31-15.61-25.47-26.65-6.88-10.61-12.39-22.14-17.65-33.62-.79-1.73-3.72-.5-3.09,1.31C616.41,546.18,627.24,579.69,652.47,587.36Z"/><path d="M688.48,595.45c2.14.46,4.42-2.44,2.37-4.06-11.22-8.86-22.92-15.61-32.64-26.45-10.06-11.23-18.9-23.75-28.2-35.62-.61-.79-1.7.21-1.31,1,7.2,14.62,14.95,28.42,25.81,40.71C663.29,581,675.15,592.55,688.48,595.45Z"/><path d="M725.56,595.24c2.12-.2,3.75-3.53,1.25-4.6-5.9-2.52-12.18-3.31-18.21-5.45-8-2.83-14.46-7.62-20.9-12.94a227.06,227.06,0,0,1-30.64-30c-1.46-1.76-4.52.57-3.19,2.46C669.37,566.72,695.17,598.09,725.56,595.24Z"/><path d="M751,585.78c1.79-.72,2.1-3.35,0-3.95-9.1-2.63-18.53-2.42-27.61-5.76-10.67-3.94-20.75-10.12-29.7-17.08-1.73-1.34-4.2,1-2.47,2.48C705.65,574.16,730.21,594.17,751,585.78Z"/><path d="M775.07,578.46c2.68-.76,1.88-4.29-.62-4.57-14.44-1.63-27.56-1.92-40.88-8.62a2,2,0,0,0-2,3.43C744.05,576.63,760.24,582.71,775.07,578.46Z"/><path d="M840.42,494.41a192.87,192.87,0,0,1-21.95,41.35c-8.38,12.21-19,22.27-27.93,34-1.64,2.16,1.49,4.89,3.6,3.6,26.19-16.13,41.91-49.42,50-77.9C844.78,493,841.26,492.14,840.42,494.41Z"/><path d="M808.31,539.37c1.5-2-1.7-4.29-3.37-2.61-4.17,4.19-8.32,8.4-12.6,12.48s-9.36,7.49-12.92,11.94c-1.28,1.61-.16,4.5,2.19,3.76C792.9,561.38,801.49,548.34,808.31,539.37Z"/><path d="M565.53,403.37a1.39,1.39,0,0,0-2,2c26.29,27.74,46.19,58.78,67.43,90.27,1.09,1.62,4.24.63,3.38-1.43C619.8,459.29,593.32,428.5,565.53,403.37Z"/><path d="M613.34,442.54c8.26,11.61,16,23.59,23.12,36s12.26,25.81,19.41,38.1a2.3,2.3,0,0,0,4.18-1.77c-7.71-27-26.12-53.16-43.18-75C615.31,437.82,611.86,440.46,613.34,442.54Z"/><path d="M674.87,526.38a2,2,0,0,0,3.64-1.53c-2.7-15.06-13.07-30.08-21.31-42.68-1.61-2.47-5.47-.27-4,2.33q5.85,10.26,11.1,20.85C667.77,512.31,670.44,520,674.87,526.38Z"/><path d="M686.22,523.11c1.16,1.29,3.12-.09,2.76-1.61-1.86-8-7.34-15.55-11.24-22.71-1.3-2.4-4.84-.29-3.64,2.13C677.72,508.22,680.75,517,686.22,523.11Z"/><path d="M521.27,346.8a197.18,197.18,0,0,0,29.07-40.67,1.47,1.47,0,0,0-2.54-1.49c-9.54,13.9-19.73,27.52-31.38,39.73a230.4,230.4,0,0,1-17.36,16.44c-5.3,4.51-11.45,8.21-15.61,13.82-.93,1.24.61,3.12,2,2.63C499.2,372.47,511.69,357.29,521.27,346.8Z"/><path d="M498,383.45c-1.53-.22-2.23,1.93-.66,2.38,11.56,3.32,23.65,8.2,33,16,7.46,6.19,11.5,15.67,19.73,20.87a1.58,1.58,0,0,0,2.15-2.15C539.3,398.74,523.25,387.17,498,383.45Z"/><path d="M502.32,372.9c-1.66.25-1.92,2.9-.47,3.6,6.56,3.18,13.82,4.17,20.44,7.39a92.27,92.27,0,0,1,20.06,13.19,1.45,1.45,0,0,0,2-2.06C535.25,383.18,518.27,370.52,502.32,372.9Z"/><path d="M511.18,363.48c-1.65.27-1.56,2.5-.43,3.28,2.54,1.72,5.62,2.28,8.46,3.37a65,65,0,0,1,9.36,4.51c2.5,1.45,4.51-2.19,2.23-3.81C525.55,367.09,517.89,362.42,511.18,363.48Z"/><path d="M527.44,363.12c2.74,1,3.94-3.39,1.2-4.37-3.71-1.32-7.57-2.35-11.49-1.47-1.56.35-1.27,2.4,0,2.88C520.5,361.42,524.06,361.9,527.44,363.12Z"/><path d="M464.52,472.86a73.67,73.67,0,0,1,26.82-22.33c10.32-4.9,20.58-5,31.54-6.92,1.64-.28,1.52-2.82,0-3.18-22.94-5.49-49.58,12.18-61.11,30.82C460.66,473,463.31,474.45,464.52,472.86Z"/><path d="M477.27,442.1c7.08-1.5,14.22-3.12,21.39-4.17s14.26-.54,21.26-1.74c1.5-.25,1.18-2.3,0-2.72-13.36-4.78-30.65,1.9-43.33,6.18A1.27,1.27,0,0,0,477.27,442.1Z"/><path d="M655.54,289.27c.56,1.35,3,1.42,2.85-.38-2.22-22.48,2.82-41.66,22.31-54.91a1.13,1.13,0,0,0-1.14-2C659.53,242.15,646.36,267.44,655.54,289.27Z"/><path d="M661.43,237.72a1.37,1.37,0,0,0-1.94-1.94c-8.59,7.73-18.27,24-12.29,35.75a1.17,1.17,0,0,0,2.11-.27c1.63-5.25,1.06-10.88,2.69-16.21A48.42,48.42,0,0,1,661.43,237.72Z"/><path d="M786.22,295.48c3,11.79,1.83,23.78,4.19,35.54.37,1.81,2.81,1.46,3.34,0,4.31-11.84.93-27-2.61-38.61-3.93-12.92-10.19-23.3-19-33.37-.55-.63-1.59.19-1.15.89A130.45,130.45,0,0,1,786.22,295.48Z"/><path d="M692.63,229a73.28,73.28,0,0,1,37.54,2.26,67,67,0,0,1,15.54,7.59c4.93,3.29,8.95,7.88,14.19,10.63,1,.49,2.44-.35,2-1.53-4.21-11-18.4-17.81-28.91-21.24a62,62,0,0,0-40.82.6A.88.88,0,0,0,692.63,229Z"/><path d="M524.68,567.19c-14.36-8.52-29-12.28-40.57-25.37-11.23-12.78-17.59-29.4-19-46.27a1.28,1.28,0,0,0-2.55,0c-1.22,35,25.93,68.87,61.24,73.68C525,569.39,525.86,567.89,524.68,567.19Z"/><path d="M836,444.44a67.08,67.08,0,0,0-18.75-15.27c-1.87-1-3.52,1.8-1.66,2.85a63,63,0,0,1,18.06,15.88c4.28,5.38,7.55,12.53,12.87,16.91a1.48,1.48,0,0,0,2.46-1.43C846.9,456.4,840.78,449.83,836,444.44Z"/><path d="M834.06,428.33c-8-7.21-16.39-14-24.92-20.61-1.44-1.11-3.32,1.34-1.95,2.53,8.45,7.33,16.5,15,24.33,23,6.89,7,13.53,16.13,21.92,21.33,1.5.94,2.92-.86,2.26-2.26C851.29,443,841.61,435.12,834.06,428.33Z"/><path d="M794.71,384.37a1.67,1.67,0,0,0-1.69,2.88c9.92,7,19.81,14,29.08,21.78,7.73,6.52,14.56,14.26,22.7,20.24,1.54,1.13,3.59-1.07,2.59-2.59C835.67,408.84,813.37,394,794.71,384.37Z"/><path d="M812.76,386c3.15,4.24,7.45,7.14,11.46,10.48,4.28,3.57,7.9,8.46,12.67,11.31,1.49.89,2.78-.81,2.18-2.18-4.56-10.38-17.22-13.44-24.56-21C813.65,383.78,812,385,812.76,386Z"/><path d="M821.29,383.12c1.37,1.53,2.72,3.1,4.15,4.58s2.67,2.91,4.49,3.52a1.48,1.48,0,0,0,1.81-1.81c-.6-1.82-2.17-3.19-3.51-4.5s-3.05-2.77-4.58-4.15A1.67,1.67,0,0,0,821.29,383.12Z"/><path d="M682.6,442.66c21.83-1.35,33.1,15.06,50.91,24.06,13.06,6.6,30.52,12.41,45.19,8.76,1.93-.49,2-3.56,0-4-8.88-1.94-18-1.92-26.87-4.27A91.43,91.43,0,0,1,724.48,455c-13.71-9.14-24.66-16.62-41.88-15.12C680.83,440,680.79,442.77,682.6,442.66Z"/><path d="M782.56,462.07c-12.56-2.84-25-4-37.39-8.13-10.34-3.43-17-11.77-27.66-15.27-1.16-.39-1.59,1.37-.5,1.8,8.59,3.38,11.64,9.52,18.66,14.4,3.45,2.39,7.5,3.61,11.45,4.89,11,3.57,23.84,8.28,35.44,5.81A1.83,1.83,0,0,0,782.56,462.07Z"/><path d="M783.21,450.26c-7-1.45-14.2-1.31-21.25-2.73a117.47,117.47,0,0,1-23.15-7c-1.51-.65-2.86,1.45-1.33,2.27,13.3,7.08,30.4,13.79,45.73,10.83A1.77,1.77,0,0,0,783.21,450.26Z"/><path d="M784.38,439.44c-4.52-1.54-9.79-.76-14.55-1-5.5-.24-11-.42-16.47-1.06-1.22-.14-1.43,1.81-.29,2.11,9.21,2.42,22.51,6.19,31.58,2C785.63,441.1,785.23,439.73,784.38,439.44Z"/><path d="M776.55,433.59a1.33,1.33,0,0,0,.31-2.4c-2.67-1.57-6.18-1.2-9.17-1.24-1.78,0-2.29,2.9-.43,3.2C770.2,433.62,773.65,434.67,776.55,433.59Z"/><path d="M774.38,485.89a1.1,1.1,0,0,0,.29-2.15c-17.46-6.45-35.29-6.23-51.66-16.57-1.6-1-3.62,1.47-2.07,2.69C735.21,481.07,756.18,487.61,774.38,485.89Z"/><path d="M693.26,339.3c18.17,6.21,37,6.86,55.75,10.11a126.33,126.33,0,0,1,21.58,5.45c8.83,3.2,15.65,8.95,24,12.73,2,.93,4.7-1.07,3.32-3.32-7.78-12.61-27.29-17.48-40.9-20-20.79-3.9-42.14-3.64-62.81-8.36A1.77,1.77,0,0,0,693.26,339.3Z"/><path d="M788.26,373.18c.18-3.66-3.61-5.83-6.45-7.31a59,59,0,0,0-13.16-4.71c-1.26-.31-2.2,1.6-.92,2.19a96.57,96.57,0,0,1,10.11,5.47c2.78,1.69,5.31,4.26,8.18,5.65A1.51,1.51,0,0,0,788.26,373.18Z"/><path d="M585.25,664.83c-6.59-1.12-13.22-1-19.88-1.28-3.26-.11-6.57-.45-9.87-.6a9.16,9.16,0,0,0-6-7.34c-.17-2.84-.43-5.69-.53-8.5-.24-6.66-.16-13.28-1.27-19.88a1,1,0,0,0-2,0c-1.11,6.6-1,13.22-1.27,19.88-.1,2.72-.34,5.46-.51,8.2a9.15,9.15,0,0,0-7.15,7.7c-2.94.17-5.88.44-8.78.54-6.67.24-13.29.16-19.88,1.28a1,1,0,0,0,0,2c6.59,1.12,13.21,1,19.88,1.28,3,.1,6.13.4,9.21.56a8.91,8.91,0,0,0,6.62,6c.16,3.31.49,6.62.61,9.89.23,6.66.16,13.29,1.27,19.88a1,1,0,0,0,2,0c1.11-6.59,1-13.22,1.27-19.88.12-3.37.47-6.79.62-10.2a8.91,8.91,0,0,0,5.51-5.62c3.44-.14,6.9-.5,10.31-.62,6.66-.24,13.29-.16,19.88-1.28A1,1,0,0,0,585.25,664.83Z"/><path d="M908.06,300.77c-6.59-1.12-13.21-1-19.88-1.28-3.26-.11-6.57-.45-9.86-.6a9.22,9.22,0,0,0-6.05-7.35c-.17-2.84-.43-5.68-.53-8.49-.24-6.66-.16-13.29-1.27-19.88a1,1,0,0,0-2,0c-1.11,6.59-1,13.22-1.27,19.88-.1,2.71-.34,5.46-.51,8.2a9.15,9.15,0,0,0-7.15,7.7c-2.93.17-5.88.44-8.78.54-6.67.24-13.29.16-19.88,1.28a1,1,0,0,0,0,2c6.59,1.11,13.21,1,19.88,1.27,3,.11,6.13.41,9.21.57a8.92,8.92,0,0,0,6.62,6c.16,3.3.49,6.62.61,9.89.24,6.66.16,13.28,1.27,19.87a1,1,0,0,0,2,0c1.11-6.59,1-13.21,1.27-19.87.12-3.38.48-6.79.62-10.2a8.93,8.93,0,0,0,5.51-5.62c3.44-.14,6.9-.51,10.31-.63,6.67-.23,13.29-.16,19.88-1.27A1,1,0,0,0,908.06,300.77Z"/><path d="M404.1,796.92c-6.59-1.11-13.21-1-19.87-1.27-3.27-.11-6.57-.45-9.87-.6a9.2,9.2,0,0,0-6.05-7.35c-.17-2.84-.43-5.68-.52-8.49-.24-6.67-.16-13.29-1.28-19.88a1,1,0,0,0-2,0c-1.12,6.59-1,13.21-1.28,19.88-.09,2.71-.34,5.45-.51,8.2a9.12,9.12,0,0,0-7.14,7.7c-2.94.17-5.88.44-8.79.54-6.66.24-13.29.16-19.88,1.27a1,1,0,0,0,0,2c6.59,1.11,13.22,1,19.88,1.27,3.05.11,6.14.41,9.22.57a8.91,8.91,0,0,0,6.62,6c.15,3.3.49,6.61.6,9.88.24,6.67.16,13.29,1.28,19.88a1,1,0,0,0,2,0c1.12-6.59,1-13.21,1.28-19.88.11-3.37.47-6.79.62-10.19a8.92,8.92,0,0,0,5.5-5.62c3.45-.15,6.91-.51,10.32-.63,6.66-.23,13.28-.16,19.87-1.27A1,1,0,0,0,404.1,796.92Z"/><path d="M390.9,191.2c6.59,1.11,13.21,1,19.88,1.27,3.05.11,6.13.41,9.21.57a8.92,8.92,0,0,0,6.62,6c.16,3.3.49,6.61.61,9.88.23,6.67.16,13.29,1.27,19.88a1,1,0,0,0,2,0c1.11-6.59,1-13.21,1.27-19.88.12-3.37.48-6.79.62-10.19a8.93,8.93,0,0,0,5.51-5.62c3.44-.15,6.9-.51,10.31-.63,6.67-.23,13.29-.16,19.88-1.27a1,1,0,0,0,0-2c-6.59-1.11-13.21-1-19.88-1.27-3.26-.11-6.57-.45-9.86-.6a9.22,9.22,0,0,0-6-7.35c-.17-2.84-.43-5.68-.53-8.49-.24-6.66-.16-13.29-1.27-19.88a1,1,0,0,0-2,0c-1.11,6.59-1,13.22-1.27,19.88-.1,2.71-.34,5.45-.51,8.2a9.15,9.15,0,0,0-7.15,7.7c-2.93.17-5.88.44-8.78.54-6.67.24-13.29.16-19.88,1.27A1,1,0,0,0,390.9,191.2Z"/><path d="M462,626.08a17.79,17.79,0,1,0,17.79,17.79A17.81,17.81,0,0,0,462,626.08Zm0,29.47a11.68,11.68,0,1,1,11.68-11.68A11.69,11.69,0,0,1,462,655.55Z"/><path d="M673.86,654.69a17.79,17.79,0,1,0,17.79,17.79A17.81,17.81,0,0,0,673.86,654.69Zm0,29.47a11.68,11.68,0,1,1,11.68-11.68A11.69,11.69,0,0,1,673.86,684.16Z"/><path d="M346.22,252.94a17.79,17.79,0,1,0-17.79-17.79A17.81,17.81,0,0,0,346.22,252.94Zm0-29.47a11.68,11.68,0,1,1-11.68,11.68A11.69,11.69,0,0,1,346.22,223.47Z"/><path d="M187.31,350a17.79,17.79,0,1,0-17.79-17.79A17.81,17.81,0,0,0,187.31,350Zm0-29.47a11.68,11.68,0,1,1-11.68,11.68A11.69,11.69,0,0,1,187.31,320.57Z"/><path d="M117.68,610.85a17.79,17.79,0,1,0-17.79-17.79A17.81,17.81,0,0,0,117.68,610.85Zm0-29.47A11.68,11.68,0,1,1,106,593.06,11.69,11.69,0,0,1,117.68,581.38Z"/></svg>