<svg id="Layer_1" data-name="Layer 1" xmlns="http://www.w3.org/2000/svg" viewBox="0 0 1000 1000"><defs><style>.cls-1{fill:#ef7727;}.cls-2{fill:#faf7ec;}.cls-3{fill:#c22227;}</style></defs><title>Aries</title><path class="cls-1" d="M303.39,327.78c9.91,11.77,18.66,24.72,32.39,32.29,1.55-1.33,3.13-2.64,4.76-3.9,14.36-11.06,30.24-19.9,46.06-28.79-4.65-4.27-9.93-7.79-15-11.51a17.87,17.87,0,0,1-5.53.25c-2.77-.14-5.53-.24-8.29-.26-2.22,0-2.17-3.26,0-3.41,2.45-.17,5.61-.63,8.62-.61q-1.68-1.38-3.27-2.87a77.68,77.68,0,0,1-7.78,0c-4.3,0-8.59-.09-12.89-.19a1.65,1.65,0,0,1,0-3.29c4.29-.32,8.59-.65,12.89-.86,1.14-.06,2.33-.17,3.53-.26-.27-.33-.55-.65-.8-1-.63-.83-1.19-1.7-1.77-2.56a1.39,1.39,0,0,1-1,1.46c-10.94,2.26-23.72-.1-34.53-2.38-1.34-.29-1-2.54.33-2.4,11.29,1.13,23.05.31,34.2,2l.15,0a58.41,58.41,0,0,1-3.12-5.65,7.07,7.07,0,0,1-.82.1,310,310,0,0,1-66.11-5.74A93.19,93.19,0,0,1,273,296.23,341.91,341.91,0,0,1,303.39,327.78Zm-4.5-21.1c7.46,5.12,12.34,12.27,18.14,19,6.36,7.45,14.75,12.57,21.18,19.75,1,1.13.05,3.42-1.62,2.78-18-6.83-25.22-27.9-39.65-39.05C295.49,308.08,297.4,305.66,298.89,306.68Z"/><circle class="cls-1" cx="112.75" cy="253.18" r="11.38"/><path class="cls-1" d="M522.68,152.84a11.38,11.38,0,1,0-11.38-11.38A11.39,11.39,0,0,0,522.68,152.84Z"/><path class="cls-1" d="M887.25,282.62A11.38,11.38,0,1,0,898.63,294,11.39,11.39,0,0,0,887.25,282.62Z"/><path class="cls-1" d="M281,361.71c6.43,12.32,11.28,28,23.52,35.89a6.52,6.52,0,0,1,.93.76q2.6-4.73,5.5-9.26a5.08,5.08,0,0,1-1.54-1.64c-4-6.73-9.32-12.13-12.68-19.4-3.11-6.73-4.91-13.94-7.65-20.81a143.81,143.81,0,0,0-29.28-45.34,69.88,69.88,0,0,1-21.43,3.58c8.62,9.62,16.9,19.58,24.8,29.75C269.65,343.65,276,352.25,281,361.71Zm-15.06-43.14c7.92,8.44,19.26,21.51,19.34,33.74a1.23,1.23,0,0,1-2.09.86c-4-4.42-6-10.63-8.82-15.86a175.38,175.38,0,0,0-10.53-17.12C262.91,318.92,264.87,317.48,265.89,318.57Z"/><path class="cls-1" d="M668.51,518.69c-11.78-13.38-29.66-31.76-22-50.8a71.61,71.61,0,0,1-15.44-14.17c-13.77-17.13-18-39.86-17.29-61.35a145.74,145.74,0,0,1,38.36-93.9,62.9,62.9,0,0,0-17.9,11.44c-8.75,8.25-10.58,20.63-19.65,28.4-17.12,14.69-48.37,13.74-69.13,9.56-22.07-4.46-42.48-18.23-54.36-37.43a71.67,71.67,0,0,1-10.41-34.53,653,653,0,0,1-61,43.48c-23.4,14.71-48.91,26.55-71.14,43.05-21.72,16.13-35.09,37.66-44.19,62.87a557.16,557.16,0,0,0-21.55,78.85c-5.4,26.69-7.06,54.58-16,80.42-7.39,21.29-18.89,40.75-30.33,60-12,20.25-24.33,40.73-31.1,63.43-4.46,14.93-7.69,32,4.31,44.34a51.24,51.24,0,0,0,12,8.94,5.28,5.28,0,0,1,.85-.26c21.84-4.24,43.15-19.18,60.1-33.06,11.82-9.68,24.81-27.64,42-26.38s11.38,20.89,2.88,29c-13.47,12.77-33.26,18-51.39,16.83a5.18,5.18,0,0,1-1.68-.4c-11.8,8.55-24.7,16.12-38.07,20.62,1.3.43,2.59.83,3.87,1.21,51.52,15,101.59-13.43,136.32-49.66,4.43-4.62,11.44,2.41,7,7-20.42,21.3-46.19,39.88-74.28,49.58a72.61,72.61,0,0,0,31.49,5.38c5.44-7.35,15-12.69,21.95-18.53,8.43-7.12,17-14.21,25-21.79a1.47,1.47,0,0,1,2.08,2.08c-7.69,8.75-15.4,17.23-24.13,25-4.15,3.67-8.82,8.38-13.86,12.05a93.69,93.69,0,0,0,10.6-2.51c2-3.43,5.66-6.39,8.2-9,4.33-4.47,8.8-8.79,13.27-13.12,2-1.93,4.81,1,3,3-4.1,4.71-8.2,9.39-12.43,14-.35.38-.69.78-1,1.19a117.08,117.08,0,0,0,21-11.57C407.26,753,418.5,742,428.75,730.28c11.3-12.89,18.27-26.2,25.11-41.74,5.74-13,13.09-23.72,25.3-31.31,12.84-8,27.83-12.21,41.59-18.29,30.12-13.3,59.88-33,69.78-66.21,1.82-6.11,11.4-3.49,9.57,2.64-8.21,27.52-29.16,47.89-53.61,61.82-12.26,7-25.31,12.46-38.41,17.65S481,665.11,472,676.5c-8.67,11-12,25.06-18.77,37.14a116,116,0,0,1-9.87,14.65,5.24,5.24,0,0,1,0,1.18,480,480,0,0,0-4.77,83.93c.19,6-.95,15.18,1.11,20.87,1.55,4.28,2.23,4.81,6.78,1.85,2.52-1.64,4.59-4.9,6.69-7.13l29.4-31.36c2.46-2.63,7.53-1.45,8.3,2.19q2.16,10.24,4.31,20.48c.59,2.75.63,6.78,2,9.3q-.75,5.31,4.34,4,4.45,1.92,5.82-2.86c4.27-3.86,7.49-11.27,10.66-16.1q5.29-8.07,10.52-16.19,21.92-34.11,42.52-69c2.72-4.61,8.69-2.09,9.25,2.51l2,16.26a67.3,67.3,0,0,0,.88,7.23c.92,4,.85,7.5,5.11,6.82,6.85-1.1,14.82-10.61,19.44-15.46,10.69-11.22,19.11-24.32,28-36.95,7.23-10.27,14.91-22,24.66-30.09,3-2.49,6.42-4.23,10.2-2.13,3.55,2,3.54,8.23,6,9,5.51,1.75,14.59-10,16.93-13.86,3.39-5.56,5.32-11.78,6.71-18.11,3.7-16.85,3.49-34.29,1.48-51.35C697.91,571.86,689.81,542.89,668.51,518.69ZM271.91,760.36c-5.85,3-12,5.38-17.79,8.43a1.55,1.55,0,0,1-1.56-2.68c5.84-3.5,11.7-6.59,18.39-8C272.27,757.8,273.21,759.69,271.91,760.36ZM691.75,588.15c-3.91,16.74-9.77,35.12-21.19,48.33-1.39,1.6-3.39-.45-2.68-2.06,7-15.95,15.29-30.37,19.83-47.38C688.41,584.43,692.36,585.53,691.75,588.15ZM656,514.78c4.35,23,9.13,51.81-5.36,72.42-1,1.39-3.59.58-2.94-1.25,8.44-23.83,9.51-45.35,5.16-70.31C652.51,513.6,655.62,512.71,656,514.78Zm-11.46-11.46c3.35,20.1,6.57,42.36,2.84,62.56-.32,1.76-2.69,1.1-2.85-.39-2.25-20.42-1.18-41.17-3.46-61.7C640.86,501.81,644.22,501.38,644.55,503.32Zm-3.87,126.21c5.69-13.84,13.56-26.27,18-40.75a138,138,0,0,0,6.45-46.48c-.08-2,2.85-1.9,3.07,0a118,118,0,0,1-4.14,48c-4.19,14-10.32,30.1-19.76,41.4C643,633.29,639.85,631.54,640.68,629.53Zm-6.11-129c3.08,22.15,7.64,52.19-10.42,69.59a2.39,2.39,0,0,1-3.74-2.89c5.27-10.07,9.48-19.77,10.61-31.19,1.14-11.61-.15-23.3-1.37-34.84C629.36,498.42,634.18,497.8,634.57,500.56Zm1.55,141.63c-5.19,8.49-11.26,17.46-19,23.79-1.56,1.27-4.25-.37-3-2.3,5.45-8.31,12.35-15.74,18.42-23.6C634.1,638,637.57,639.82,636.12,642.19ZM615,481.48c-.47-3.16,4.32-4.56,4.86-1.34,4.1,24.3,5.3,54.85-6,77.58-1.3,2.62-4.69.59-4.33-1.83,1.88-12.43,5.71-24.25,6.76-36.89A163,163,0,0,0,615,481.48ZM399.16,582.26q5.38-2.81,10.54-6c2.14-1.33,3.92,1.91,1.94,3.32-5.83,4.16-13.67,10.19-21.09,10.61a1.3,1.3,0,0,1-1-.46A89,89,0,0,1,371,605.15c-5.44,3.39-10.42-5.2-5-8.57,25.36-15.79,36.1-42.1,46.39-68.64a5,5,0,0,1,.72-1.86c4.68-12.09,9.33-24.17,15.3-35.29,9.51-17.73,27.26-26.32,44.8-34.59a336.6,336.6,0,0,1,59.29-21.35c6.2-1.61,8.82,8,2.64,9.57a323.5,323.5,0,0,0-63.28,23.44c-9.42,4.7-20.17,9.5-27.47,17.29-4.85,5.17-8.25,11.59-11.16,18.18a81.07,81.07,0,0,1,21-12.81c21.13-8.65,44.23-1.93,66-6.88,5.88-1.34,8.55,7.11,3.58,9.25l-27.15,30c-7.81,8.63-15.59,17.53-25.58,23.72-17.58,10.89-39.18,13.26-58.89,7.47-5.15,11-11.08,21.56-18.62,30.86C395.42,584,397.34,583.21,399.16,582.26Zm-1.09-32.11c1.4-11.3,4.53-22.67,6.84-33.83,2.41-11.67,5.67-22.2,12.86-31.84,1-1.34,3.22-.16,2.31,1.35-6.51,10.7-9.21,22.89-11.24,35.1-1.69,10.11-2.48,21.18-8.32,29.89C399.87,551.78,397.89,551.56,398.07,550.15Zm64.49-100.66c1.79.38,1.45,2.76,0,3.29-6.16,2.28-13.06.74-19.1,3.08-5.77,2.24-10.43,7.71-14.64,12.09-1.33,1.39-3.92-.53-2.71-2.09,4.15-5.38,8.64-11.78,15-14.69C447.18,448.4,456.16,448.12,462.56,449.49Zm-7.26-7.69c8-.69,16.69-1.36,24.24,1.72a1.58,1.58,0,0,1-.41,3.09c-7.9.64-15.89-.9-23.83-.73C452.64,445.93,452.73,442,455.3,441.8ZM422.21,567.16c11.36-6.27,26.29-4,38.6-8.55A79.12,79.12,0,0,0,497,531.12c1.21-1.66,4-.13,2.81,1.64-17.59,26.33-46.06,36.44-76.84,37.07A1.44,1.44,0,0,1,422.21,567.16Zm15.16,7.23c12.87-5.77,27.25-6.55,39.51-14.1.83-.51,1.84.75,1.06,1.37-11.26,8.94-25.4,14.11-39.69,16C436.55,577.86,435.84,575.08,437.37,574.39Zm25,54.49c7.92-14.15,20-23.92,32.91-33.35,17-12.44,34.43-27.66,53.38-37a1.79,1.79,0,0,1,2.16,2.8c-25.61,25.87-64.25,38.83-85.57,69.2C464,632.3,461.29,630.78,462.36,628.88Zm57.1-26.7a247.8,247.8,0,0,0,24.88-18.89c6.59-5.55,12.5-12.34,19.6-17.17,1.82-1.24,4.17,1.2,3,3-10.23,15.74-30,26.69-46,35.64A1.5,1.5,0,0,1,519.46,602.18Zm20.95-217.73a1.83,1.83,0,0,1,1-3.52,112,112,0,0,0,32.91,2.28c10-.89,19.59-5.12,29.49-5.57a1.92,1.92,0,0,1,1.35,3.24C589.1,394.43,558.59,390.9,540.41,384.45Zm-47.66-49.16c16.1,13.52,35.55,27.24,57,29.16a167,167,0,0,0,27.75.39c9.34-.75,16.75-4.62,25.57-6.89a2.09,2.09,0,0,1,2,3.47c-11.67,14.46-42.81,11.07-58.86,9.08-21.81-2.7-40.9-17.6-56.25-32.46C488.19,336.27,490.87,333.71,492.75,335.29Zm-2.14,91.9c3.34.42,6.68.91,10,1.35,2.88.39,5.57.65,8.08,2.22a1.31,1.31,0,0,1-.31,2.37c-5.53,1.89-13-.82-18.24-2.59C488.43,430,488.61,426.93,490.61,427.19Zm-5.48,8.27c3.94.1,8.05-.29,11.84.89a1.53,1.53,0,0,1,0,2.92c-7.45,2.74-18,.06-25.44-1.84-1.42-.37-1.14-2.69.35-2.59C476.29,435.13,480.72,435.35,485.13,435.46ZM474.9,312.85c-4.51,9.21-14.6,16.6-22.37,23-8.17,6.75-16.66,13.11-24.88,19.79-17.69,14.37-34.89,31-43.1,52.77-.79,2.09-4.11,1.25-3.4-.94,6.88-21.09,21-37.23,37.63-51.5,9.25-8,19-15.31,28.37-23.15,8.52-7.12,16-16.49,25.05-22.69C474,308.94,475.7,311.22,474.9,312.85Zm-27.5,5c7.18-7.58,13.39-16.67,22-22.74,1.63-1.15,3.25,1,2.52,2.53-4.62,9.39-12.83,17.16-20,24.71a217.91,217.91,0,0,1-22.15,20.49C413.52,355.79,395.9,367,383.5,384c-1.45,2-4.8.15-3.38-2,11.29-16.83,27.33-28.92,42.82-41.63A263,263,0,0,0,447.4,317.81Zm-10.66-1.44c1.43-1.7,4.4.6,3.08,2.37-8.29,11.11-18.93,19.32-30.39,26.95a396.24,396.24,0,0,0-38,29.23c-1.73,1.47-4.54-.41-3.26-2.52,6.94-11.46,20.12-19.26,31.08-26.42C412.68,337.22,426.31,328.75,436.74,316.37ZM364.82,362.9c6-8.66,15.49-15.88,24-21.88,1.47-1,3.14,1.25,1.88,2.43-7.69,7.22-15.05,15.56-23.42,21.94C365.86,366.5,363.82,364.34,364.82,362.9Zm-4.61,80.83c.69-2.26,4.21-1.31,3.55,1-8.14,28.35-16.71,56.58-25.06,84.87-7.27,24.62-12.11,52.77-25.85,74.8-1.11,1.78-4.26.63-3.51-1.48,9.07-25.39,18.22-50.42,26-76.29C343.62,499,351.7,471.29,360.21,443.73Zm-17.37,30.93a1,1,0,0,1,2,.55c-5.12,21.18-11.47,42-18.15,62.73-6.26,19.41-11.37,40.12-20.42,58.44-.85,1.72-3.4.47-3-1.25,5-20.38,14-40,20.46-60S336.32,494.77,342.84,474.66Zm-33,71.21c.7-1.71,3.48-1,2.85.78-6.08,17.49-9.59,37.52-18.27,53.88-.69,1.3-3.05.77-2.89-.79C293.38,581.41,302.92,562.79,309.81,545.87ZM297.6,556.72c-3.71,10.82-6.22,22.52-11,32.91-.79,1.71-3,.36-2.77-1.16,1.69-11.11,6.79-22.15,11-32.52C295.48,554.25,298.22,554.92,297.6,556.72Zm-20.92,27.41c2.11-7.26,4.61-14.35,5.86-21.84.33-2,3.27-1.11,3,.83-1.09,7.7-2.87,15.14-7,21.81A1,1,0,0,1,276.68,584.13Zm-12.7,88c-8.08,16.06-14.35,34.85-24.56,49.61a1.48,1.48,0,0,1-2.69-1.13c4.65-17.41,16-34.29,24.7-50C262.36,669,264.82,670.45,264,672.14Zm-36,47.23c2.52-10,9.86-19.48,14.85-28.38,1-1.79,3.47-.22,2.68,1.56-4.1,9.22-8.14,20.85-15.43,28A1.26,1.26,0,0,1,227.94,719.37ZM253,741.7c-5.09,2.59-10.15,5.23-15.4,7.48-4.23,1.8-9,4.33-13.61,4.17a1.89,1.89,0,0,1-.95-3.5c3.54-2.7,8.55-3.55,12.75-5,5.29-1.78,10.57-3.58,15.7-5.77C253.23,738.39,254.77,740.81,253,741.7Zm16.19-55.24c-7.57,13.48-15.11,27.56-23.7,40.38-1.14,1.69-4.18.66-3.44-1.45,4.6-13.17,13.35-25.11,20.66-36.91,8.4-13.57,16-27.39,20.56-42.79a1.56,1.56,0,0,1,3,.83C282.58,660.69,276.36,673.73,269.21,686.46Zm71.31,18.71c-2.14-3.89-3.24-8.58-6.7-11.59-7.51-6.53-15.93-1.69-22.48,2.12-8.34,4.84-16.43,10.07-24.87,14.76a1.51,1.51,0,0,1-1.52-2.61c11.08-7.77,26.77-22,41.17-22.23,10.06-.2,18.29,8.61,18.2,18.52A2.06,2.06,0,0,1,340.52,705.17Zm50.89,2.21c-12,.8-16.86,7.66-24.92,15.3a119.33,119.33,0,0,1-20.26,15.07c-1.94,1.19-3.48-1.69-1.74-3,10.57-7.87,18.61-17.87,28.46-26.4,5.41-4.69,12.7-8.37,19.36-4.28A1.78,1.78,0,0,1,391.41,707.38Zm40-9.22c-4.65,19.32-19,39.71-34.15,52.29-1.74,1.45-4.25-1-2.52-2.52,8-7.18,14.14-15.66,19.47-25,4.85-8.47,8.07-18.34,13.69-26.28A1.93,1.93,0,0,1,431.44,698.16ZM434.17,685c-1.45,2.09-4.83.19-3.45-2,7.41-11.88,10.44-28.82,21.4-38.13,1.44-1.22,4.37-.1,3.54,2.06-2.44,6.28-6.89,11.7-9.81,17.82A145,145,0,0,1,434.17,685ZM475,643c-10.31,13.13-15.11,29.61-25.09,42.63a1.81,1.81,0,0,1-3.3-1.39c3.11-14.79,13.28-30.57,22.34-42.44a86.72,86.72,0,0,1,15.85-16.12c7.56-5.85,16.39-9.69,23.57-16.06a1.32,1.32,0,0,1,1.87,1.86C499.27,623.1,485.05,630.27,475,643Zm82.48-38c-7.15,9.7-15.39,17.24-26.31,22.31a1.32,1.32,0,0,1-1.33-2.27c8.82-6.66,17.66-13.83,25.32-21.83C556.33,602,558.51,603.66,557.51,605Zm10.65-20.42c-11.64,12.65-24.71,23.33-38.68,33.27-14.41,10.26-28.54,22.72-43.88,31.41-1.88,1.06-3.37-1.3-2.16-2.8,10-12.54,26.13-21.26,39.16-30.36,15-10.46,30.14-21,43.23-33.85A1.65,1.65,0,0,1,568.16,584.6Zm-1-184.76c-2.75-.36-2.94-4.61,0-4.46a88.58,88.58,0,0,0,21-1.26c5.52-1,10.86-3.6,16.51-3.37a1.71,1.71,0,0,1,1.19,2.88C597,402.29,578.52,401.33,567.17,399.84Zm15.77,7.1c3.56-.45,7.09-1.1,10.63-1.71,2.76-.48,5.41-1.37,8.19-.71,1.77.42,1.69,2.61.46,3.54-2.49,1.89-6,2-9,2.36a94.68,94.68,0,0,1-10.24.56C580.26,411,580.45,407.26,582.94,406.94ZM593,421c-3.11.51-4.48-4.19-1.32-4.78l6.25-1.17c1.87-.35,3.91-1.07,5.59.09a2,2,0,0,1,.7,2.68c-1.26,1.75-2.89,1.83-4.93,2.16Zm5.49,114.26c1.07-13,4.24-25.57,4.73-38.67a170,170,0,0,0-3.66-41.91c-.58-2.72,3.48-3.88,4.19-1.16,6.68,25.58,10.34,58.06-.74,83C602,538.69,598.25,537.61,598.44,535.28ZM625.91,591c.77-2.16,4.18-1.28,3.47,1-6.12,19.24-17.34,33-31.44,47-15.49,15.46-30.54,33-48,46.26-2.38,1.81-4.42-1.85-2.91-3.77C571.44,650.45,612.09,629.51,625.91,591Zm-150,110.29c5.39-14.88,15.56-31.32,28.64-40.64,1.82-1.29,4.12,1.22,3,3-3.94,6.26-9.83,11.41-14.59,17.07-5.7,6.79-10.69,13.6-14.28,21.73C477.94,704,475.3,702.84,475.87,701.25ZM450.09,809.87c-.5,2.6-4.18,1.74-4.34-.59-1.12-15.53,2.76-32.75,6.65-47.72a225.62,225.62,0,0,1,17.31-44.74c.61-1.21,2.71-.33,2.2.93A307.85,307.85,0,0,0,457.53,763C453.85,778.5,453.09,794.31,450.09,809.87ZM469.14,776c-2.86,11.62-3.14,23.45-5.2,35.15-.36,2-3.8,2.06-4.12,0-3.49-22.85,5.88-49,15.1-69.55C486,717,501.6,695,517.86,673.62c1.31-1.72,4.27-.1,3,1.75-14,20-27.58,40.52-38,62.64A203.79,203.79,0,0,0,469.14,776Zm17.47,2.14c-.6,1.92-3.72,1.64-3.62-.49.76-14.94,7.11-29.67,13.21-43.14,6.29-13.89,12.66-28.55,22-40.7,10.2-13.24,22.45-25.12,33.8-37.37s24.87-24.29,32.88-39.13c1.19-2.19,4.28-.26,3.28,1.92-6.25,13.71-17.36,24.21-27.44,35.15-10.82,11.74-21.9,23.3-32.43,35.29C506.56,714.48,496.28,747.37,486.61,778.18Zm27.4,15c-3.05,11.44-3,24.1-7,35.19-.44,1.2-2.62,1.59-2.84,0-1.7-12.09,3.27-24.69,6.95-36A1.52,1.52,0,0,1,514,793.15Zm-8.18-27.48c-1.87,7-2.5,14.06-5.3,20.75a2,2,0,0,1-3.85-.52c-1.57-13.65,3.43-27.84,9.65-39.82a287.25,287.25,0,0,1,25.19-40.2c1.34-1.79,4.34-.19,3.08,1.8-7.62,12-14,24.78-20.38,37.47A106.45,106.45,0,0,0,505.83,765.67Zm9,14.24c.24-13.73,6.59-27.83,12.67-39.94a207.78,207.78,0,0,1,25-37.86A381.84,381.84,0,0,1,586.6,666c12-11.31,26.68-21.68,33.23-37.33,1.12-2.67,5.52-1.53,4.41,1.22-5,12.35-14,21.08-23.63,30-12.13,11.31-24.07,22.88-34.87,35.48a239.69,239.69,0,0,0-29.3,41.94c-7.58,14.06-11.38,29.16-17.65,43.65C517.92,783,514.78,781.89,514.82,779.91Zm23.84-14c-2.74,10.12-6,21.92-12.82,30.13-1.17,1.42-3.66-.1-3.07-1.79,3.45-10,9.28-19.1,12.75-29.21A1.63,1.63,0,0,1,538.66,765.91ZM567.8,718c-7.34,11.31-12.4,23.83-19.5,35.2a2,2,0,0,1-3.69-1.55c6.7-26.73,28.15-51.17,47.87-69.39a1.09,1.09,0,0,1,1.54,1.53A252.18,252.18,0,0,0,567.8,718Zm45.06,5.75c-2.48,4-4.75,8.08-7,12.23-2,3.74-3.63,7.87-6.55,11-1.09,1.17-2.75-.08-2.49-1.45.8-4.2,3.38-8,5.58-11.56,2.44-4,5.08-7.91,7.71-11.8C611.27,720.48,613.93,722,612.86,723.73Zm26.34-40.06c-5.8,10.53-14.24,18.5-22.94,26.65-5.25,4.92-10.53,9.95-14.76,15.82-3.7,5.13-5.67,11-9,16.33a1.53,1.53,0,0,1-2.82-.76c-.68-11.05,8.57-21.18,15.95-28.46,10.48-10.36,22.66-18.62,30.81-31.17A1.57,1.57,0,0,1,639.2,683.67Zm12.62-33.41c-5,14.69-18.69,25.77-30,35.59-13.45,11.63-27.32,23.15-35.39,39.37-1.15,2.31-4.43.28-3.42-2,6.58-14.82,17.75-25.92,29.66-36.58a264.45,264.45,0,0,0,35.37-38C649.32,646.92,652.66,647.83,651.82,650.26Zm1.39-9.32c-1,1.22-3.12-.1-2.62-1.53,4.52-13,11.18-25,15.52-38.09a229.46,229.46,0,0,0,9.45-40.13c.3-2.13,3.94-1.61,3.73.5C676.61,588.21,670.27,619.6,653.21,640.94Zm40.52,4.73c-2.52,9.52-7.14,21-15.48,26.84-1.58,1.12-3.28-1-2.49-2.49,2.16-4.1,5.27-7.66,7.57-11.7a70.92,70.92,0,0,0,6-13.87C690.2,641.65,694.48,642.81,693.73,645.67ZM665.3,666.21c-1.66,1.46-4.34-.4-3.13-2.42,11-18.36,26-32,28.68-54.5.35-3,5-3.1,4.77,0C693.93,630.6,681.24,652.2,665.3,666.21Z"/><path class="cls-1" d="M234.29,446.05a11.39,11.39,0,1,0-11.38-11.38A11.4,11.4,0,0,0,234.29,446.05Z"/><path class="cls-2" d="M472.74,533.24c13.23-11,24.63-24.94,36.05-38.21-10.81.57-21.71-.3-32.45.59,4.17,11.37,1.49,27.32-10.55,32.3-6.28,2.61-15.39,3.83-22,2.18-6.11-1.51-10.1-5.63-13.19-10.62A99,99,0,0,0,422.4,530c-2,5-4,10-6.1,15C435.84,550.16,457,546.37,472.74,533.24Z"/><path class="cls-3" d="M489.53,248.44c-7.4,2.65-14.91,4.23-22.14,7.78A133.88,133.88,0,0,0,450,266.64c-13.25,9.19-24.1,19.65-31.92,33.85a1.24,1.24,0,0,1-2.26-1c3.61-15.49,16.46-26.47,28.63-35.72,11.67-8.88,27.51-20,42.95-21.27-1.09-2.86-2.29-5.68-3.55-8.48a90.64,90.64,0,0,0-34.8,3.32c-2,.61-2.73-2.37-.85-3.11a82.64,82.64,0,0,1,32.88-6.05q-2.82-5.62-6.06-11.06c-14,2.38-26.28,5.16-39.53,10.73-1.9.8-2.91-2.19-1.34-3.19C445,217.75,458.8,212.81,472,212.17a194.94,194.94,0,0,0-23.61-29.63c-6.66,2.24-14.08,2-21,3.76a153.38,153.38,0,0,0-27.46,10.28,1.48,1.48,0,0,1-1.48-2.55,83.56,83.56,0,0,1,25.91-12.47c5.67-1.65,12.89-3.75,19.41-3.63A231.77,231.77,0,0,0,383,135.58a1.78,1.78,0,0,1-.66,2.49c-9.84,5.91-19.85,11.52-29.72,17.38-11.85,7.05-18.22,13.81-23,26.8a2,2,0,0,1-4-.54c-.74-9.88,6.91-18.16,14.32-23.73,12.28-9.23,27-16,40.52-23.19a2.1,2.1,0,0,1,.56-.17q-10-4.68-20.17-8.31c-8.1,3-14.41,10.49-21.63,14.84-2,1.22-3.6-1.42-2.33-3,3.31-4.18,8.18-7.47,12.65-10.3,1.94-1.22,3.86-2.4,5.85-3.39-3.58-1.16-7.17-2.23-10.76-3.17a151.14,151.14,0,0,0-40-5c-2,2.49-5,4.46-7,6.83A44.75,44.75,0,0,0,290.44,135c-.93,2.25-4.59,1.36-3.74-1a48.62,48.62,0,0,1,6.91-13.12c1-1.31,2.12-2.84,3.39-4.28-4.18.25-8.35.69-12.48,1.29-2.13,5.49-4.84,10.67-6.22,16.54a128.43,128.43,0,0,0-2.77,23.7c-.12,2.75-4.35,2.78-4.31,0,.19-11.73.41-27.78,6.53-39.08-19.33,3.8-37.6,11.56-52.79,23.47a68.54,68.54,0,0,1,7.9,2.23,2,2,0,0,1-1.07,3.89c-4-.74-8.17-.86-12.17-1.62a103.64,103.64,0,0,0-28.33,41.68c-10.56,28.53-10,68.48,11.48,92.21A43.88,43.88,0,0,0,224.11,294a30.77,30.77,0,0,1-2.09-6.22,74.3,74.3,0,0,1-2.27-14.14c-.15-1.74,2.64-2.07,3-.41a96.14,96.14,0,0,0,4,13.24c1,2.72,3.07,5.75,2.52,8.63,9.87,1.54,20.31.13,30-3.4-.58-.68-1.07-1.41-1.43-1.91a40.26,40.26,0,0,1-4.17-7.37c-1.14-2.58,2.62-4.86,3.85-2.25a40.12,40.12,0,0,0,4.35,7.26,21.11,21.11,0,0,1,1.85,2.5,72.44,72.44,0,0,0,16.58-10.12,5.11,5.11,0,0,1,1.15-1l.57-.48c22.17-19.4,40-55.53,22.06-83.21-5.53-8.5-30.49-26.91-35.88-9-1.28,4.25.57,9,2.67,13.71,2.41-1.5,5.19-2.47,7.42-4.38a30.21,30.21,0,0,0,7-8.59c.91-1.69,3.75-.51,3.12,1.32A26.69,26.69,0,0,1,281.88,199c-2.23,2.14-5.45,4.84-8.72,5.77a31.23,31.23,0,0,1,1.57,4.32.64.64,0,0,1,0,.07c1.5-1.61,4.36-2.56,6-3.72a35.38,35.38,0,0,0,7.23-7c1.44-1.83,4.43.57,3.2,2.47a35.92,35.92,0,0,1-7.41,8.47c-2.07,1.68-5.21,4.69-8.07,4.06a39.22,39.22,0,0,1,.53,6.67c2.56-.55,5.6-.45,7.77-1.1a31.09,31.09,0,0,0,13.47-8.56c1.47-1.54,4.26.54,3,2.3a32.11,32.11,0,0,1-14,11.05c-2.76,1.13-7.34,2.83-10.82,2.2a26.49,26.49,0,0,1-2.53,7.11,36.77,36.77,0,0,0,4.48,2.33,37.79,37.79,0,0,0,11.56,1.86c2.4.07,3.12,3.91.58,4.34a28.19,28.19,0,0,1-14.83-1.36,19,19,0,0,1-4.95-2.48A27.65,27.65,0,0,1,266.7,241c1.17,1.12,2.21,2.46,3.37,3.46a31.53,31.53,0,0,0,7,4.5c2.23,1.08.28,4.24-1.92,3.28a34.92,34.92,0,0,1-7.64-4.61,20.81,20.81,0,0,1-4.24-4.11,24.76,24.76,0,0,1-7.88,3.17c1.71,3.25,2.12,6.8,4.66,9.81a74.84,74.84,0,0,0,8.37,8.52c1.69,1.43-.54,4.27-2.35,3-6.11-4.16-15.78-12.46-14.18-20.94a19.16,19.16,0,0,1-7.9-1.3c.05,3.8-.16,7.49,1,11.31,1.38,4.63,3.72,9,5.92,13.3a1.71,1.71,0,0,1-2.94,1.73c-4.67-7.17-12.41-19.52-7.71-28.34A21.28,21.28,0,0,1,236,240a8.6,8.6,0,0,0-.64.58,28.49,28.49,0,0,0-4.31,6.06,55.86,55.86,0,0,0-5.95,15.12c-.63,2.67-4.58,1.51-4.07-1.13A53.42,53.42,0,0,1,228.15,242a27.51,27.51,0,0,1,5-6.25,26.55,26.55,0,0,1-3.21-9.82c-9.72-1.21-19.32-1.66-28.31,3.56-1.92,1.11-3.52-1.73-1.72-3,6.05-4.11,12.78-5.81,20-6.07,2.68-.1,6.61-.46,10,.1a25.85,25.85,0,0,1,2.82-8.91c-5.37-1.8-10.38-4.92-16-6.28a64.46,64.46,0,0,0-22.7-1.19c-1.55.18-1.86-2.4-.37-2.7,11.94-2.43,31.37-2.59,41.47,6.36a41.64,41.64,0,0,1,11.31-10.45c-7.24-11.44-23.29-14.12-35.34-18.38-2.54-.9-1.52-4.85,1.12-4.08,13.25,3.87,31.74,6.59,39,19.79a46.67,46.67,0,0,1,6.91-2.75,22.07,22.07,0,0,1-.34-5.47c-4.09-11.72-12.33-21-20.25-30.48a1.84,1.84,0,0,1,2.61-2.6c7.93,7.33,15.53,15.36,20.28,25,4.87-7.62,15.34-10.21,24.37-8.61,1,.17,1.93.4,2.87.65a50.71,50.71,0,0,1,2.92-22.61,1.51,1.51,0,0,1,2.92.8,50.46,50.46,0,0,0,0,24A42.74,42.74,0,0,1,305,180.67a5,5,0,0,1,1.74-.53,33.45,33.45,0,0,1,5.33-.21c-1.73-9.73,4.09-20.12,8.68-28.21.75-1.32,3-.42,2.48,1.05-1.54,4.46-3.07,8.95-4.26,13.52-1.24,4.81-1.34,9.44-1.77,14.31,15.83,3.54,24.49,20.08,29.18,36.68,14.69-18.87,38.23-37.85,61.56-43.07a1.54,1.54,0,0,1,1.18,2.8c-10.57,6.54-22,11.26-32.32,18.36-10.67,7.36-20.22,16.13-29.58,25.06a145,145,0,0,1,3,15.44c8.53-13.14,20.25-23.24,32.59-33.27,1.31-1.06,3.13.64,1.89,1.89-12.32,12.46-25.11,25.4-33.32,41,1.7,15.68,3.13,32,10.77,45.94,9.12-23.09,32.25-41.27,52-54.43,1.57-1.05,3,1.44,1.46,2.51-19,13.38-42.74,34.7-49.45,57.9,4.44,5.46,10.08,9.6,15.77,13.74,1.56-9.69,8-19.22,13.17-26.91a179,179,0,0,1,24.94-29c1.28-1.23,3,.61,1.92,1.92a278.61,278.61,0,0,0-21,28.55c-6.16,9.48-10,18.87-14.05,29.14a78.35,78.35,0,0,1,8.66,7.44c4.4-2.51,8.78-5.06,13.09-7.7a644.64,644.64,0,0,0,73.72-52.8,34.07,34.07,0,0,1,5.5-11.11,5,5,0,0,1,1.07-1.35,4.86,4.86,0,0,1,.66-.63c0-.08-.08-.15-.11-.23Z"/><path class="cls-3" d="M805.43,304.27c-2.07.08-2.57-3.38-.49-3.66,10.74-1.46,24.73-4.05,35.49-.44.05-2.43,0-4.86,0-7.27a62.55,62.55,0,0,0-28-1.91c-2.66.43-3.86-3.5-1.14-4.11a62,62,0,0,1,28.92.14c-.17-3.11-.44-6.2-.79-9.28a136.21,136.21,0,0,0-4.28-21.58c-14-.87-26.74-1.16-41,2.76-2.41.67-3.24-2.8-1-3.66,12-4.65,26.54-7.59,39.88-6A125.4,125.4,0,0,0,817.13,218c-17.26,2-36.49,10.75-47.48,24-1.14,1.38-3.48-.45-2.47-1.9,6.54-9.4,15.55-15.32,25.65-20.43,6.22-3.15,12.82-6.68,19.7-7.81-1.58-2-3.24-3.88-4.95-5.74-4.82,1.2-10,1.54-14.77,2.91a88.24,88.24,0,0,0-18.68,7.76,97.31,97.31,0,0,0-31.31,28.12c-1.22,1.69-4,.2-2.85-1.66a87.7,87.7,0,0,1,31.24-31.46c8.06-4.77,19.52-10.52,30.15-11.9a102.86,102.86,0,0,0-41-23.3c-.35-.11-.71-.2-1.06-.3C744.55,179.47,730,191,719.78,201c-1.83,1.8-4.47-.9-2.79-2.8a99.79,99.79,0,0,1,22.74-19.29c2.8-1.7,5.94-3.59,9.24-5.17a172.56,172.56,0,0,0-26.86-3.37l-.16.09a42.94,42.94,0,0,0-7.78,6.19c-2.66,2.54-5.18,5.22-7.8,7.82-3,3-7.49,6.16-8.93,10.36a1.42,1.42,0,0,1-2.73-.76c1.68-7.78,10-14.62,15.23-20.28.93-1,2.11-2.32,3.44-3.66a258.07,258.07,0,0,0-47.84,4.52c-10,9.79-17.42,25.36-18.27,38.62a2.07,2.07,0,0,1-4.14,0c-.35-12,5.08-26.41,13.5-36.86-9.16,2-18.16,4.25-26.9,6.8a135.58,135.58,0,0,0-8.84,31.48c-.28,1.9-3.31,1.38-3.28-.44a76.17,76.17,0,0,1,6.3-29.31c-1.68.52-3.36,1-5,1.57a344.31,344.31,0,0,0-38.3,14.87c-1.25,10.09-3.37,19.65-2.9,30.07.12,2.47-3.49,2.35-3.76,0a94.92,94.92,0,0,1-.33-20.36,65.62,65.62,0,0,1,.89-6.84q-8.9,4.29-17.52,9.08c-.42,9.61,1.57,18.61,4.33,27.84.64,2.16-2.59,3-3.33.92-3.08-8.46-6.14-16.92-6.15-25.85q-9.83,5.67-19.26,12a143.23,143.23,0,0,0,7.77,50.13c.75,2.2-2.79,3.69-3.76,1.59a109.06,109.06,0,0,1-10.06-47.58c-2.85,2-5.67,4-8.46,6.1a156.89,156.89,0,0,0,10.61,51.88c.78,2-2.57,3.39-3.47,1.47a133.83,133.83,0,0,1-10.41-30.23c-1.11-5.53-2.68-12.15-2.86-18.43q-8.13,6.36-15.92,13.18c-7.65,9-5.69,25.21-2.44,35.82s10,20.16,18.2,27.73c16.22,15,36.44,20,58,19.9,11.73,0,24.9-.19,35.14-6.7-24.08,4.76-50.57-8.9-69.72-21.61-1.32-.88-.49-3.34,1.14-2.7,11.76,4.67,23.49,9.85,35.66,13.37,13.91,4,26.35,3.51,40.46,1.83a3,3,0,0,1,.79,0q1-1.63,1.83-3.33c-23.44,1.37-46.8-2-65.53-17.42-2-1.61.66-4.94,2.7-3.5,19.78,14,43.46,14.42,66.72,13.51.65-1.14,1.34-2.26,2.1-3.34-8.1-1.76-16.15-7.92-22-12.46-11.87-9.28-22-20.43-30.9-32.52-1.71-2.31,2.2-5.28,3.95-3.06A161.13,161.13,0,0,0,598,287.9a112.12,112.12,0,0,0,16.3,11.32c4.33,2.35,8.51,2.9,12.84,3.77a60,60,0,0,1,6.49-5.34c-6.84-2.21-13.34-6.74-18.67-10.71a170.23,170.23,0,0,1-28.64-27.76c-1.94-2.32,1.26-5.66,3.37-3.37a181.3,181.3,0,0,0,26,23.23c8.85,6.53,17.17,9.83,27,13.11a116.14,116.14,0,0,1,12.59-5.56c-6.57-3.37-12.4-9.33-16.57-14.52C630.57,262,626,249.81,621.54,237.86c-.89-2.35,3-3.92,4-1.7,4.83,9.92,9.75,19.85,16.43,28.67a56.13,56.13,0,0,0,13.39,13c3.11,2.08,6.58,3.43,9.76,5.3,2-.65,4.08-1.28,6.11-1.91-4.78-3-9.19-7.83-11.84-11.17-6.22-7.81-9.83-17.19-13.47-26.38-.79-2,2.47-3.3,3.44-1.45,3.77,7.21,7.61,14.42,12.62,20.86,3.8,4.87,9.69,11.48,16.09,13.69a133.53,133.53,0,0,1,15-8.24c-12.61-18.23-11.42-43.24-2-62.55.61-1.24,2.76-.33,2.23.94-8.64,20.56-4.45,40.31,5.34,59.16,1.61-.67,3.24-1.31,4.87-1.91-5.23-14.82-.39-31.88,3.94-46.41a2.08,2.08,0,0,1,4,1.1c-3.81,15.17-5.51,28.63-1.77,43.19a139.73,139.73,0,0,1,28.11-5.82c16.87-1.72,46.25-2.65,58.07,12.34,13.24,16.8-6,33.24-21.3,37.45-11.24,3.1-22.25,5.1-32.93,9.52a62.51,62.51,0,0,1,8.93,19.66c4.86.18,9.29,3,13.69,5.25a169.72,169.72,0,0,1,20,12.22A1.34,1.34,0,0,1,783,355c-10.24-5-20.5-10.06-31.11-14.23a63.43,63.43,0,0,1,.73,14.76c4,2.51,7.38,7.17,10.24,10.5a75.72,75.72,0,0,1,10.62,15.63c1.5,3-3,5.64-4.52,2.64a73.2,73.2,0,0,0-11.28-15.68c-1.77-1.91-4-3.75-6-5.75-.26,1.38-.56,2.74-.91,4.1a2.43,2.43,0,0,1,2.24,1.29c11.45,19.1,21.49,36.56,19.15,59.47-.31,3-4.87,3.12-4.77,0,.36-11.34-.94-22-5.91-32.28-3.81-7.88-8.38-15.39-12.34-23.2-.35,1-.7,2-1.11,2.93a57.25,57.25,0,0,1-9.32,15c5.25,10.76,3,25.63-.21,36.48a2.08,2.08,0,0,1-4-1.11A68,68,0,0,0,736.24,406c-.23-3.89-1.1-7.69-1.7-11.52a43.19,43.19,0,0,1-9.26,6.63c2.65,7-5.45,16.27-7.67,22.34-.77,2.12-4.09,1.28-3.44-.95,1.16-3.93,3.1-7.48,4.59-11.28a36.52,36.52,0,0,0,1.64-8,29.3,29.3,0,0,1-5.69,1.29c-7.58,18-27.79,30.38-43.23,40.59-1.76,1.16-3.27-1.58-1.63-2.78a223.37,223.37,0,0,0,23.46-19.17c5.94-5.74,10.4-12.11,15.06-18.65a27.51,27.51,0,0,1-7.19-1.91,30.09,30.09,0,0,1-5.53-3.08C685.55,410.77,668.9,418,655,422.55c-2.19.72-3-2.62-.94-3.4A120.64,120.64,0,0,0,676.71,408c5.41-3.43,10.09-7.77,15.17-11.55-.52-.52-1-1.08-1.48-1.64-17,4.57-35.39.45-50.27-8.44a2,2,0,0,1,2-3.45c14.54,8,29.19,9.57,45.16,7.66a33.09,33.09,0,0,1-2.94-6.36c-7.59-.56-14.47-4.73-21.13-8.61-8.28-4.81-15.48-10.31-21.17-18.08-1.23-1.68,1.55-3.78,2.86-2.21,8.05,9.64,24.26,20.76,38,23.42-.19-1.06-.33-2.12-.44-3.19-17.21-8.31-30.4-30.24-30.86-48.67,0-1.62,2.59-2,2.85-.39a58,58,0,0,0,11.65,26.67c4.66,6,10.84,10.43,16.2,15.6a44.93,44.93,0,0,1,3.55-15.34,76.84,76.84,0,0,1,17.76-24.69c-9.08-8.13-14.28-22.61-12.88-34.07.33-2.65,4.45-2.79,4.27,0-.46,7.28,1.58,13.9,5.25,20.13,2.14,3.64,5.16,6.71,7.62,10.11a110.82,110.82,0,0,1,11.7-8.7c-4.7-9.72-3.15-24-.88-33.61.72-3.07,5.25-1.74,4.67,1.28a59.15,59.15,0,0,0-.55,20.08c.47,3,1.43,6,2.17,8.95,3.3-1.89,6.63-3.63,10-5.17,1-.48,2.08-.93,3.13-1.37-4.11-7.85-3.17-18.87-1-26.91.72-2.72,4.63-1.54,4.15,1.15a42.34,42.34,0,0,0-.16,14.51c.5,3.13,1.72,6.08,2.51,9.1q4.56-1.65,9.21-3c-4.44-6.8-1.83-18.81-.56-25.66.47-2.54,4.74-1.94,4.5.6-.47,4.86-1,9.79-.32,14.65.43,3.07,1.79,5.83,2.56,8.74,1.31-.33,2.62-.65,3.94-1-5-9.64-1.39-22.69,3.84-31.38,1.22-2,4.12-.25,3.12,1.82a32.75,32.75,0,0,0-3.28,15.17c.08,4.62,1.58,8.63,2.38,13,4.65-1,9.44-2.27,13.37-4.88,7.14-4.73,11.29-14.25,2.82-20.32-9.12-6.54-24.19-6.51-34.92-6.48A124.21,124.21,0,0,0,718,270c-45.27,12.36-79.27,49.34-90.4,94.61-5.52,22.42-6.46,48.53,3.29,70a59,59,0,0,0,13.49,18.71c2.24-.71,4.59-1.16,6.8-2a52,52,0,0,0,8.43-3.91c2.17-1.25,3.86,1.88,1.92,3.29a43.93,43.93,0,0,1-12.42,6.66c9.59,7.44,21.25,12.36,33.42,15.07,3.07.69,6.19,1.24,9.35,1.68a25.27,25.27,0,0,1,4-4.13,137.84,137.84,0,0,0,9.89-10.19c1-1.18,3,.39,2.13,1.65-2.67,3.89-5.24,7.82-8.25,11.47-.36.43-.89,1.14-1.51,1.89,2.62.23,5.26.37,7.9.43,3.15-5.74,8.25-10.88,12-16.17,4.4-6.29,8.54-12.71,12.37-19.36,1.1-1.9,3.84-.23,2.92,1.71a196.39,196.39,0,0,1-12.34,22.5,122.3,122.3,0,0,1-7.69,11.27,111.64,111.64,0,0,0,39.24-8.52,86.23,86.23,0,0,0,9.79-4.94c.66-1.55,1.42-3.07,1.9-4.49A66.45,66.45,0,0,0,767,444.9c.21-1.57,2.84-1.18,2.74.37a106.36,106.36,0,0,1-1.33,12.47c13.7-9.52,24.76-22.53,33.67-36.78a268.91,268.91,0,0,0,19.2-36.8,2.94,2.94,0,0,1-.3-.31c-6.72-9.76-12-19.51-20.54-28.14a135,135,0,0,0-27.62-21.3c-2.29-1.35-.26-4.8,2.07-3.55A139.46,139.46,0,0,1,806.73,354c6,5.86,14.72,14,17.55,22.82q2.87-7.29,5.28-14.75a85.56,85.56,0,0,0-23-20c-1.52-.88-.46-3.62,1.22-2.91a62,62,0,0,1,23.65,17,222.77,222.77,0,0,0,8-39.06,160.22,160.22,0,0,0-62.7.89c-2.45.54-3.49-3.13-1-3.77a154.46,154.46,0,0,1,64.34-3.55c.12-1.55.21-3.09.29-4.63C829.36,303,816.59,303.79,805.43,304.27Z"/><path d="M471.1,546.63c10-6.19,17.77-15.09,25.58-23.72l27.15-30c5-2.14,2.3-10.59-3.58-9.25-21.8,4.95-44.9-1.77-66,6.88a81.07,81.07,0,0,0-21,12.81c2.91-6.59,6.31-13,11.16-18.18,7.3-7.79,18-12.59,27.47-17.29a323.5,323.5,0,0,1,63.28-23.44c6.18-1.6,3.56-11.18-2.64-9.57a336.6,336.6,0,0,0-59.29,21.35c-17.54,8.27-35.29,16.86-44.8,34.59-6,11.12-10.62,23.2-15.3,35.29a5,5,0,0,0-.72,1.86c-10.29,26.54-21,52.85-46.39,68.64-5.41,3.37-.43,12,5,8.57a89,89,0,0,0,18.54-15.45,1.3,1.3,0,0,0,1,.46c7.42-.42,15.26-6.45,21.09-10.61,2-1.41.2-4.65-1.94-3.32q-5.15,3.22-10.54,6c-1.82,1-3.74,1.75-5.57,2.7,7.54-9.3,13.47-19.82,18.62-30.86C431.92,559.89,453.52,557.52,471.1,546.63ZM422.4,530a99,99,0,0,1,8.17-10.48c3.09,5,7.08,9.11,13.19,10.62,6.64,1.65,15.75.43,22-2.18,12-5,14.72-20.93,10.55-32.3,10.74-.89,21.64,0,32.45-.59C497.37,508.3,486,522.2,472.74,533.24c-15.75,13.13-36.9,16.92-56.44,11.68C418.41,540,420.42,535,422.4,530Z"/><path d="M676.26,512.5c-8.25-9.43-25.51-25.26-21.14-39.43a103.58,103.58,0,0,0,30.51,10c47.08,7.94,91.18-9.28,119-48.08,50.66-70.7,74.42-200-11.81-254.72-46.07-29.26-109-21.58-159.16-8.41a355.83,355.83,0,0,0-135.92,70C458.4,134.09,283.53,46.72,199.22,154.71a115.06,115.06,0,0,0-23.49,85.06c3.63,28.44,18,56.53,47.55,63.93a2,2,0,0,0,.17.23,496.28,496.28,0,0,1,34.85,41.23,182,182,0,0,1,18.58,30.74c5.53,11.45,11.6,23.15,22.58,30.28a4.89,4.89,0,0,0,1.57.66c-14.59,30.14-21.86,65-28.12,96.49-5.6,28.18-7.34,57.51-17.83,84.49-9.76,25.12-25.16,47.54-38.31,70.91-11.58,20.56-23.16,43.47-25.22,67.35-2.28,26.49,17,42,40,50.36,21.44,7.78,43.07,8.12,63.76,3.37a1,1,0,0,1,.13.09c47.12,28.07,100.28.14,133.88-35.49l2.46-2.63c-1.55,13.06-2.64,26.17-3.11,39.33-.65,18-2.12,38.45,1.43,56.25,2,10.06,10,16.71,19.42,9.63,6.94-5.2,12.7-13.21,18.63-19.53l15-16c1.44,6.92,2.88,13.85,4.39,20.75,1.13,5.17,2,10.77,7.2,13.46C505.9,851.48,514,838.6,519,831q27.51-41.36,53-84c.54,4.64,1.11,9.27,1.78,13.89.73,5,2.22,10,7.55,11.82,11.43,3.92,25.31-10.65,32.31-17.83,10.37-10.64,18.74-23.05,27.19-35.2,4.75-6.83,9.5-13.66,14.76-20.11,2.43-3,5-5.89,7.62-8.68.52-.54,1.37-1.59,2.21-2.49.09.41.29,1,.53,1.9,3.38,12.59,19.41,4.39,25.48-.43,10.19-8.1,15.54-20.05,18.27-32.52,7.27-33.08,3-72.53-8.83-104.2A131.18,131.18,0,0,0,676.26,512.5ZM496,256.33q7.77-6.84,15.92-13.18c.18,6.28,1.75,12.9,2.86,18.43a133.83,133.83,0,0,0,10.41,30.23c.9,1.92,4.25.55,3.47-1.47a156.89,156.89,0,0,1-10.61-51.88c2.79-2.08,5.61-4.1,8.46-6.1a109.06,109.06,0,0,0,10.06,47.58c1,2.1,4.51.61,3.76-1.59a143.23,143.23,0,0,1-7.77-50.13q9.44-6.3,19.26-12c0,8.93,3.07,17.39,6.15,25.85.74,2.06,4,1.24,3.33-.92C558.54,232,556.55,223,557,213.34q8.63-4.78,17.52-9.08a65.62,65.62,0,0,0-.89,6.84,94.92,94.92,0,0,0,.33,20.36c.27,2.35,3.88,2.47,3.76,0-.47-10.42,1.65-20,2.9-30.07a344.31,344.31,0,0,1,38.3-14.87c1.66-.53,3.34-1.05,5-1.57a76.17,76.17,0,0,0-6.3,29.31c0,1.82,3,2.34,3.28.44a135.58,135.58,0,0,1,8.84-31.48c8.74-2.55,17.74-4.85,26.9-6.8-8.42,10.45-13.85,24.83-13.5,36.86a2.07,2.07,0,0,0,4.14,0c.85-13.26,8.22-28.83,18.27-38.62a258.07,258.07,0,0,1,47.84-4.52c-1.33,1.34-2.51,2.64-3.44,3.66-5.19,5.66-13.55,12.5-15.23,20.28a1.42,1.42,0,0,0,2.73.76c1.44-4.2,5.91-7.36,8.93-10.36,2.62-2.6,5.14-5.28,7.8-7.82a42.94,42.94,0,0,1,7.78-6.19l.16-.09A172.56,172.56,0,0,1,749,173.75c-3.3,1.58-6.44,3.47-9.24,5.17A99.79,99.79,0,0,0,717,198.21c-1.68,1.9,1,4.6,2.79,2.8,10.17-10,24.77-21.54,39.56-24.71.35.1.71.19,1.06.3a102.86,102.86,0,0,1,41,23.3c-10.63,1.38-22.09,7.13-30.15,11.9A87.7,87.7,0,0,0,740,243.26c-1.1,1.86,1.63,3.35,2.85,1.66a97.31,97.31,0,0,1,31.31-28.12A88.24,88.24,0,0,1,792.81,209c4.77-1.37,10-1.71,14.77-2.91,1.71,1.86,3.37,3.77,4.95,5.74-6.88,1.13-13.48,4.66-19.7,7.81-10.1,5.11-19.11,11-25.65,20.43-1,1.45,1.33,3.28,2.47,1.9,11-13.27,30.22-22,47.48-24a125.4,125.4,0,0,1,15.81,31.24c-13.34-1.56-27.87,1.38-39.88,6-2.23.86-1.4,4.33,1,3.66,14.31-3.92,27-3.63,41-2.76a136.21,136.21,0,0,1,4.28,21.58c.35,3.08.62,6.17.79,9.28a62,62,0,0,0-28.92-.14c-2.72.61-1.52,4.54,1.14,4.11a62.55,62.55,0,0,1,28,1.91c.05,2.41.06,4.84,0,7.27-10.76-3.61-24.75-1-35.49.44-2.08.28-1.58,3.74.49,3.66,11.16-.48,23.93-1.31,34.8,1.79-.08,1.54-.17,3.08-.29,4.63a154.46,154.46,0,0,0-64.34,3.55c-2.45.64-1.41,4.31,1,3.77a160.22,160.22,0,0,1,62.7-.89,222.77,222.77,0,0,1-8,39.06,62,62,0,0,0-23.65-17c-1.68-.71-2.74,2-1.22,2.91a85.56,85.56,0,0,1,23,20q-2.41,7.47-5.28,14.75c-2.83-8.79-11.56-17-17.55-22.82a139.46,139.46,0,0,0-31.83-23.16c-2.33-1.25-4.36,2.2-2.07,3.55a135,135,0,0,1,27.62,21.3c8.52,8.63,13.82,18.38,20.54,28.14a2.94,2.94,0,0,0,.3.31,268.91,268.91,0,0,1-19.2,36.8c-8.91,14.25-20,27.26-33.67,36.78a106.36,106.36,0,0,0,1.33-12.47c.1-1.55-2.53-1.94-2.74-.37a66.45,66.45,0,0,1-2.86,12.29c-.48,1.42-1.24,2.94-1.9,4.49a86.23,86.23,0,0,1-9.79,4.94,111.64,111.64,0,0,1-39.24,8.52,122.3,122.3,0,0,0,7.69-11.27,196.39,196.39,0,0,0,12.34-22.5c.92-1.94-1.82-3.61-2.92-1.71-3.83,6.65-8,13.07-12.37,19.36-3.71,5.29-8.81,10.43-12,16.17-2.64-.06-5.28-.2-7.9-.43.62-.75,1.15-1.46,1.51-1.89,3-3.65,5.58-7.58,8.25-11.47.87-1.26-1.13-2.83-2.13-1.65a137.84,137.84,0,0,1-9.89,10.19,25.27,25.27,0,0,0-4,4.13c-3.16-.44-6.28-1-9.35-1.68-12.17-2.71-23.83-7.63-33.42-15.07a43.93,43.93,0,0,0,12.42-6.66c1.94-1.41.25-4.54-1.92-3.29a52,52,0,0,1-8.43,3.91c-2.21.81-4.56,1.26-6.8,2a59,59,0,0,1-13.49-18.71c-9.75-21.44-8.81-47.55-3.29-70C638.68,319.3,672.68,282.32,718,270a124.21,124.21,0,0,1,32.31-4.43c10.73,0,25.8-.06,34.92,6.48,8.47,6.07,4.32,15.59-2.82,20.32-3.93,2.61-8.72,3.84-13.37,4.88-.8-4.39-2.3-8.4-2.38-13A32.75,32.75,0,0,1,769.89,269c1-2.07-1.9-3.83-3.12-1.82-5.23,8.69-8.82,21.74-3.84,31.38-1.32.31-2.63.63-3.94,1-.77-2.91-2.13-5.67-2.56-8.74-.68-4.86-.15-9.79.32-14.65.24-2.54-4-3.14-4.5-.6-1.27,6.85-3.88,18.86.56,25.66q-4.65,1.34-9.21,3c-.79-3-2-6-2.51-9.1a42.34,42.34,0,0,1,.16-14.51c.48-2.69-3.43-3.87-4.15-1.15-2.15,8-3.09,19.06,1,26.91-1,.44-2.09.89-3.13,1.37-3.35,1.54-6.68,3.28-10,5.17-.74-3-1.7-5.91-2.17-8.95a59.15,59.15,0,0,1,.55-20.08c.58-3-3.95-4.35-4.67-1.28-2.27,9.6-3.82,23.89.88,33.61a110.82,110.82,0,0,0-11.7,8.7c-2.46-3.4-5.48-6.47-7.62-10.11-3.67-6.23-5.71-12.85-5.25-20.13.18-2.79-3.94-2.65-4.27,0-1.4,11.46,3.8,25.94,12.88,34.07a76.84,76.84,0,0,0-17.76,24.69,44.93,44.93,0,0,0-3.55,15.34c-5.36-5.17-11.54-9.61-16.2-15.6a58,58,0,0,1-11.65-26.67c-.26-1.63-2.89-1.23-2.85.39.46,18.43,13.65,40.36,30.86,48.67.11,1.07.25,2.13.44,3.19-13.75-2.66-30-13.78-38-23.42-1.31-1.57-4.09.53-2.86,2.21,5.69,7.77,12.89,13.27,21.17,18.08,6.66,3.88,13.54,8.05,21.13,8.61a33.09,33.09,0,0,0,2.94,6.36c-16,1.91-30.62.35-45.16-7.66a2,2,0,0,0-2,3.45c14.88,8.89,33.25,13,50.27,8.44.48.56,1,1.12,1.48,1.64-5.08,3.78-9.76,8.12-15.17,11.55a120.64,120.64,0,0,1-22.61,11.17c-2.09.78-1.25,4.12.94,3.4,13.86-4.57,30.51-11.78,40.61-23.05a30.09,30.09,0,0,0,5.53,3.08,27.51,27.51,0,0,0,7.19,1.91c-4.66,6.54-9.12,12.91-15.06,18.65a223.37,223.37,0,0,1-23.46,19.17c-1.64,1.2-.13,3.94,1.63,2.78,15.44-10.21,35.65-22.6,43.23-40.59a29.3,29.3,0,0,0,5.69-1.29,36.52,36.52,0,0,1-1.64,8c-1.49,3.8-3.43,7.35-4.59,11.28-.65,2.23,2.67,3.07,3.44.95,2.22-6.07,10.32-15.32,7.67-22.34a43.19,43.19,0,0,0,9.26-6.63c.6,3.83,1.47,7.63,1.7,11.52a68,68,0,0,1-1.77,19.55,2.08,2.08,0,0,0,4,1.11c3.22-10.85,5.46-25.72.21-36.48a57.25,57.25,0,0,0,9.32-15c.41-1,.76-1.95,1.11-2.93,4,7.81,8.53,15.32,12.34,23.2,5,10.3,6.27,20.94,5.91,32.28-.1,3.12,4.46,3,4.77,0,2.34-22.91-7.7-40.37-19.15-59.47a2.43,2.43,0,0,0-2.24-1.29c.35-1.36.65-2.72.91-4.1,2,2,4.24,3.84,6,5.75a73.2,73.2,0,0,1,11.28,15.68c1.57,3,6,.36,4.52-2.64A75.72,75.72,0,0,0,762.84,366c-2.86-3.33-6.24-8-10.24-10.5a63.43,63.43,0,0,0-.73-14.76C762.48,344.94,772.74,350,783,355a1.34,1.34,0,0,0,1.35-2.31,169.72,169.72,0,0,0-20-12.22c-4.4-2.26-8.83-5.07-13.69-5.25a62.51,62.51,0,0,0-8.93-19.66c10.68-4.42,21.69-6.42,32.93-9.52,15.26-4.21,34.54-20.65,21.3-37.45-11.82-15-41.2-14.06-58.07-12.34a139.73,139.73,0,0,0-28.11,5.82c-3.74-14.56-2-28,1.77-43.19a2.08,2.08,0,0,0-4-1.1c-4.33,14.53-9.17,31.59-3.94,46.41-1.63.6-3.26,1.24-4.87,1.91-9.79-18.85-14-38.6-5.34-59.16.53-1.27-1.62-2.18-2.23-.94-9.47,19.31-10.66,44.32,2,62.55a133.53,133.53,0,0,0-15,8.24c-6.4-2.21-12.29-8.82-16.09-13.69-5-6.44-8.85-13.65-12.62-20.86-1-1.85-4.23-.56-3.44,1.45,3.64,9.19,7.25,18.57,13.47,26.38,2.65,3.34,7.06,8.21,11.84,11.17-2,.63-4.07,1.26-6.11,1.91-3.18-1.87-6.65-3.22-9.76-5.3a56.13,56.13,0,0,1-13.39-13c-6.68-8.82-11.6-18.75-16.43-28.67-1.08-2.22-4.93-.65-4,1.7,4.5,11.95,9,24.15,17.11,34.21,4.17,5.19,10,11.15,16.57,14.52a116.14,116.14,0,0,0-12.59,5.56c-9.81-3.28-18.13-6.58-27-13.11a181.3,181.3,0,0,1-26-23.23c-2.11-2.29-5.31,1.05-3.37,3.37A170.23,170.23,0,0,0,615,286.94c5.33,4,11.83,8.5,18.67,10.71a60,60,0,0,0-6.49,5.34c-4.33-.87-8.51-1.42-12.84-3.77A112.12,112.12,0,0,1,598,287.9a161.13,161.13,0,0,1-25.82-26.06c-1.75-2.22-5.66.75-3.95,3.06,8.93,12.09,19,23.24,30.9,32.52,5.8,4.54,13.85,10.7,22,12.46-.76,1.08-1.45,2.2-2.1,3.34-23.26.91-46.94.44-66.72-13.51-2-1.44-4.66,1.89-2.7,3.5,18.73,15.41,42.09,18.79,65.53,17.42q-.87,1.69-1.83,3.33a3,3,0,0,0-.79,0c-14.11,1.68-26.55,2.19-40.46-1.83-12.17-3.52-23.9-8.7-35.66-13.37-1.63-.64-2.46,1.82-1.14,2.7,19.15,12.71,45.64,26.37,69.72,21.61-10.24,6.51-23.41,6.66-35.14,6.7-21.58.09-41.8-4.93-58-19.9-8.2-7.57-14.9-17-18.2-27.73S488.35,265.35,496,256.33ZM726.62,388.48c-13.06,10.59-29.59,6-34-10.48-3.91-14.7,5.7-29.35,15.41-39.42a102.45,102.45,0,0,1,24.7-18.66.91.91,0,0,0,.08.13C747,340.22,747,372,726.62,388.48ZM229.3,295.05c.55-2.88-1.51-5.91-2.52-8.63a96.14,96.14,0,0,1-4-13.24c-.37-1.66-3.16-1.33-3,.41A74.3,74.3,0,0,0,222,287.73a30.77,30.77,0,0,0,2.09,6.22,43.88,43.88,0,0,1-21.34-13.06c-21.53-23.73-22-63.68-11.48-92.21A103.64,103.64,0,0,1,219.62,147c4,.76,8.15.88,12.17,1.62a2,2,0,0,0,1.07-3.89,68.54,68.54,0,0,0-7.9-2.23c15.19-11.91,33.46-19.67,52.79-23.47-6.12,11.3-6.34,27.35-6.53,39.08,0,2.78,4.19,2.75,4.31,0a128.43,128.43,0,0,1,2.77-23.7c1.38-5.87,4.09-11,6.22-16.54,4.13-.6,8.3-1,12.48-1.29-1.27,1.44-2.41,3-3.39,4.28A48.62,48.62,0,0,0,286.7,134c-.85,2.39,2.81,3.28,3.74,1a44.75,44.75,0,0,1,7.18-11.88c2-2.37,5-4.34,7-6.83a151.14,151.14,0,0,1,40,5c3.59.94,7.18,2,10.76,3.17-2,1-3.91,2.17-5.85,3.39-4.47,2.83-9.34,6.12-12.65,10.3-1.27,1.59.31,4.23,2.33,3,7.22-4.35,13.53-11.88,21.63-14.84Q371,129.93,381,134.62a2.1,2.1,0,0,0-.56.17c-13.52,7.22-28.24,14-40.52,23.19-7.41,5.57-15.06,13.85-14.32,23.73a2,2,0,0,0,4,.54c4.82-13,11.19-19.75,23-26.8,9.87-5.86,19.88-11.47,29.72-17.38a1.78,1.78,0,0,0,.66-2.49,231.77,231.77,0,0,1,60.74,42.35c-6.52-.12-13.74,2-19.41,3.63A83.56,83.56,0,0,0,398.43,194a1.48,1.48,0,0,0,1.48,2.55,153.38,153.38,0,0,1,27.46-10.28c6.89-1.72,14.31-1.52,21-3.76A194.94,194.94,0,0,1,472,212.17c-13.15.64-26.91,5.58-37.77,12.53-1.57,1-.56,4,1.34,3.19,13.25-5.57,25.57-8.35,39.53-10.73q3.24,5.43,6.06,11.06a82.64,82.64,0,0,0-32.88,6.05c-1.88.74-1.17,3.72.85,3.11a90.64,90.64,0,0,1,34.8-3.32c1.26,2.8,2.46,5.62,3.55,8.48-15.44,1.28-31.28,12.39-42.95,21.27-12.17,9.25-25,20.23-28.63,35.72a1.24,1.24,0,0,0,2.26,1c7.82-14.2,18.67-24.66,31.92-33.85a133.88,133.88,0,0,1,17.36-10.42c7.23-3.55,14.74-5.13,22.14-7.78h0c0,.08.08.15.11.23a4.86,4.86,0,0,0-.66.63,5,5,0,0,0-1.07,1.35,34.07,34.07,0,0,0-5.5,11.11,644.64,644.64,0,0,1-73.72,52.8c-4.31,2.64-8.69,5.19-13.09,7.7a78.35,78.35,0,0,0-8.66-7.44c4-10.27,7.89-19.66,14.05-29.14a278.61,278.61,0,0,1,21-28.55c1.12-1.31-.64-3.15-1.92-1.92a179,179,0,0,0-24.94,29C390,292,383.55,301.49,382,311.18c-5.69-4.14-11.33-8.28-15.77-13.74,6.71-23.2,30.48-44.52,49.45-57.9,1.51-1.07.11-3.56-1.46-2.51-19.76,13.16-42.89,31.34-52,54.43-7.64-14-9.07-30.26-10.77-45.94,8.21-15.63,21-28.57,33.32-41,1.24-1.25-.58-3-1.89-1.89-12.34,10-24.06,20.13-32.59,33.27a145,145,0,0,0-3-15.44c9.36-8.93,18.91-17.7,29.58-25.06,10.3-7.1,21.75-11.82,32.32-18.36a1.54,1.54,0,0,0-1.18-2.8c-23.33,5.22-46.87,24.2-61.56,43.07-4.69-16.6-13.35-33.14-29.18-36.68.43-4.87.53-9.5,1.77-14.31,1.19-4.57,2.72-9.06,4.26-13.52.51-1.47-1.73-2.37-2.48-1.05-4.59,8.09-10.41,18.48-8.68,28.21a33.45,33.45,0,0,0-5.33.21,5,5,0,0,0-1.74.53,42.74,42.74,0,0,0-11.47-8.06,50.46,50.46,0,0,1,0-24,1.51,1.51,0,0,0-2.92-.8,50.71,50.71,0,0,0-2.92,22.61c-.94-.25-1.9-.48-2.87-.65-9-1.6-19.5,1-24.37,8.61-4.75-9.62-12.35-17.65-20.28-25a1.84,1.84,0,0,0-2.61,2.6c7.92,9.49,16.16,18.76,20.25,30.48a22.07,22.07,0,0,0,.34,5.47,46.67,46.67,0,0,0-6.91,2.75c-7.25-13.2-25.74-15.92-39-19.79-2.64-.77-3.66,3.18-1.12,4.08,12.05,4.26,28.1,6.94,35.34,18.38a41.64,41.64,0,0,0-11.31,10.45c-10.1-8.95-29.53-8.79-41.47-6.36-1.49.3-1.18,2.88.37,2.7a64.46,64.46,0,0,1,22.7,1.19c5.64,1.36,10.65,4.48,16,6.28a25.85,25.85,0,0,0-2.82,8.91c-3.4-.56-7.33-.2-10-.1-7.26.26-14,2-20,6.07-1.8,1.22-.2,4.06,1.72,3,9-5.22,18.59-4.77,28.31-3.56a26.55,26.55,0,0,0,3.21,9.82,27.51,27.51,0,0,0-5,6.25A53.42,53.42,0,0,0,221,260.58c-.51,2.64,3.44,3.8,4.07,1.13A55.86,55.86,0,0,1,231,246.59a28.49,28.49,0,0,1,4.31-6.06A8.6,8.6,0,0,1,236,240a21.28,21.28,0,0,0,4.22,3.89c-4.7,8.82,3,21.17,7.71,28.34a1.71,1.71,0,0,0,2.94-1.73c-2.2-4.27-4.54-8.67-5.92-13.3-1.14-3.82-.93-7.51-1-11.31a19.16,19.16,0,0,0,7.9,1.3c-1.6,8.48,8.07,16.78,14.18,20.94,1.81,1.23,4-1.61,2.35-3a74.84,74.84,0,0,1-8.37-8.52c-2.54-3-2.95-6.56-4.66-9.81a24.76,24.76,0,0,0,7.88-3.17,20.81,20.81,0,0,0,4.24,4.11,34.92,34.92,0,0,0,7.64,4.61c2.2,1,4.15-2.2,1.92-3.28a31.53,31.53,0,0,1-7-4.5c-1.16-1-2.2-2.34-3.37-3.46a27.65,27.65,0,0,0,3.22-3.27,19,19,0,0,0,4.95,2.48,28.19,28.19,0,0,0,14.83,1.36c2.54-.43,1.82-4.27-.58-4.34a37.79,37.79,0,0,1-11.56-1.86,36.77,36.77,0,0,1-4.48-2.33,26.49,26.49,0,0,0,2.53-7.11c3.48.63,8.06-1.07,10.82-2.2a32.11,32.11,0,0,0,14-11.05c1.28-1.76-1.51-3.84-3-2.3A31.09,31.09,0,0,1,284,219c-2.17.65-5.21.55-7.77,1.1a39.22,39.22,0,0,0-.53-6.67c2.86.63,6-2.38,8.07-4.06a35.92,35.92,0,0,0,7.41-8.47c1.23-1.9-1.76-4.3-3.2-2.47a35.38,35.38,0,0,1-7.23,7c-1.61,1.16-4.47,2.11-6,3.72a.64.64,0,0,0,0-.07,31.23,31.23,0,0,0-1.57-4.32c3.27-.93,6.49-3.63,8.72-5.77a26.69,26.69,0,0,0,6.59-10.79c.63-1.83-2.21-3-3.12-1.32a30.21,30.21,0,0,1-7,8.59c-2.23,1.91-5,2.88-7.42,4.38-2.1-4.66-3.95-9.46-2.67-13.71,5.39-17.93,30.35.48,35.88,9,18,27.68.11,63.81-22.06,83.21l-.57.48a5.11,5.11,0,0,0-1.15,1,72.44,72.44,0,0,1-16.58,10.12,21.11,21.11,0,0,0-1.85-2.5,40.12,40.12,0,0,1-4.35-7.26c-1.23-2.61-5-.33-3.85,2.25a40.26,40.26,0,0,0,4.17,7.37c.36.5.85,1.23,1.43,1.91C249.61,295.18,239.17,296.59,229.3,295.05Zm86.84-98.69a55.2,55.2,0,0,0-3.51-6.37c29.18,2.86,28.14,57,31.65,77.44a117.15,117.15,0,0,0,4.06,16.71A298.89,298.89,0,0,1,295,280C317.46,257.9,329.49,225.07,316.14,196.36ZM351.48,294a7.07,7.07,0,0,0,.82-.1,58.41,58.41,0,0,0,3.12,5.65l-.15,0c-11.15-1.7-22.91-.88-34.2-2-1.37-.14-1.67,2.11-.33,2.4,10.81,2.28,23.59,4.64,34.53,2.38a1.39,1.39,0,0,0,1-1.46c.58.86,1.14,1.73,1.77,2.56.25.33.53.65.8,1-1.2.09-2.39.2-3.53.26-4.3.21-8.6.54-12.89.86a1.65,1.65,0,0,0,0,3.29c4.3.1,8.59.2,12.89.19a77.68,77.68,0,0,0,7.78,0q1.59,1.48,3.27,2.87c-3,0-6.17.44-8.62.61-2.17.15-2.22,3.39,0,3.41,2.76,0,5.52.12,8.29.26a17.87,17.87,0,0,0,5.53-.25c5.09,3.72,10.37,7.24,15,11.51-15.82,8.89-31.7,17.73-46.06,28.79-1.63,1.26-3.21,2.57-4.76,3.9-13.73-7.57-22.48-20.52-32.39-32.29A341.91,341.91,0,0,0,273,296.23a93.19,93.19,0,0,0,12.39-7.93A310,310,0,0,0,351.48,294Zm-92.41-59.15c-10.24,7.38-20.33-2.92-19.22-13.6s11.83-17,21.12-19.83C265.49,213.5,271.83,225.69,259.07,234.89ZM281,361.71c-4.94-9.46-11.3-18.06-17.83-26.47-7.9-10.17-16.18-20.13-24.8-29.75a69.88,69.88,0,0,0,21.43-3.58A143.81,143.81,0,0,1,289,347.25c2.74,6.87,4.54,14.08,7.65,20.81,3.36,7.27,8.68,12.67,12.68,19.4a5.08,5.08,0,0,0,1.54,1.64q-2.89,4.53-5.5,9.26a6.52,6.52,0,0,0-.93-.76C292.23,389.66,287.38,374,281,361.71Zm419.18,293c-1.39,6.33-3.32,12.55-6.71,18.11-2.34,3.85-11.42,15.61-16.93,13.86-2.49-.79-2.48-7-6-9-3.78-2.1-7.18-.36-10.2,2.13-9.75,8.06-17.43,19.82-24.66,30.09-8.89,12.63-17.31,25.73-28,36.95-4.62,4.85-12.59,14.36-19.44,15.46-4.26.68-4.19-2.85-5.11-6.82a67.3,67.3,0,0,1-.88-7.23l-2-16.26c-.56-4.6-6.53-7.12-9.25-2.51q-20.62,34.92-42.52,69-5.22,8.12-10.52,16.19c-3.17,4.83-6.39,12.24-10.66,16.1q-1.37,4.79-5.82,2.86-5.09,1.26-4.34-4c-1.34-2.52-1.38-6.55-2-9.3q-2.16-10.24-4.31-20.48c-.77-3.64-5.84-4.82-8.3-2.19L453.1,829c-2.1,2.23-4.17,5.49-6.69,7.13-4.55,3-5.23,2.43-6.78-1.85-2.06-5.69-.92-14.83-1.11-20.87a480,480,0,0,1,4.77-83.93,5.24,5.24,0,0,0,0-1.18,116,116,0,0,0,9.87-14.65C460,701.56,463.3,687.46,472,676.5c9-11.39,23-16.49,36.11-21.66s26.15-10.66,38.41-17.65c24.45-13.93,45.4-34.3,53.61-61.82,1.83-6.13-7.75-8.75-9.57-2.64-9.9,33.17-39.66,52.91-69.78,66.21C507,645,492,649.24,479.16,657.23c-12.21,7.59-19.56,18.3-25.3,31.31-6.84,15.54-13.81,28.85-25.11,41.74C418.5,742,407.26,753,394.43,761.91a117.08,117.08,0,0,1-21,11.57c.35-.41.69-.81,1-1.19,4.23-4.59,8.33-9.27,12.43-14,1.79-2-1-4.94-3-3-4.47,4.33-8.94,8.65-13.27,13.12-2.54,2.63-6.2,5.59-8.2,9a93.69,93.69,0,0,1-10.6,2.51c5-3.67,9.71-8.38,13.86-12.05,8.73-7.74,16.44-16.22,24.13-25a1.47,1.47,0,0,0-2.08-2.08c-8,7.58-16.55,14.67-25,21.79-6.92,5.84-16.51,11.18-21.95,18.53a72.61,72.61,0,0,1-31.49-5.38c28.09-9.7,53.86-28.28,74.28-49.58,4.42-4.61-2.59-11.64-7-7-34.73,36.23-84.8,64.68-136.32,49.66-1.28-.38-2.57-.78-3.87-1.21,13.37-4.5,26.27-12.07,38.07-20.62a5.18,5.18,0,0,0,1.68.4c18.13,1.15,37.92-4.06,51.39-16.83,8.5-8.06,14.28-27.69-2.88-29s-30.15,16.7-42,26.38c-16.95,13.88-38.26,28.82-60.1,33.06a5.28,5.28,0,0,0-.85.26,51.24,51.24,0,0,1-12-8.94c-12-12.37-8.77-29.41-4.31-44.34,6.77-22.7,19.1-43.18,31.1-63.43,11.44-19.3,22.94-38.76,30.33-60,9-25.84,10.63-53.73,16-80.42a557.16,557.16,0,0,1,21.55-78.85c9.1-25.21,22.47-46.74,44.19-62.87,22.23-16.5,47.74-28.34,71.14-43.05a653,653,0,0,0,61-43.48,71.67,71.67,0,0,0,10.41,34.53c11.88,19.2,32.29,33,54.36,37.43,20.76,4.18,52,5.13,69.13-9.56,9.07-7.77,10.9-20.15,19.65-28.4a62.9,62.9,0,0,1,17.9-11.44,145.74,145.74,0,0,0-38.36,93.9c-.68,21.49,3.52,44.22,17.29,61.35a71.61,71.61,0,0,0,15.44,14.17c-7.66,19,10.22,37.42,22,50.8,21.3,24.2,29.4,53.17,33.1,84.64C703.62,620.39,703.83,637.83,700.13,654.68Z"/><path d="M422.93,569.83c30.78-.63,59.25-10.74,76.84-37.07,1.18-1.77-1.6-3.3-2.81-1.64a79.12,79.12,0,0,1-36.15,27.49c-12.31,4.52-27.24,2.28-38.6,8.55A1.44,1.44,0,0,0,422.93,569.83Z"/><path d="M438.25,577.64c14.29-1.87,28.43-7,39.69-16,.78-.62-.23-1.88-1.06-1.37-12.26,7.55-26.64,8.33-39.51,14.1C435.84,575.08,436.55,577.86,438.25,577.64Z"/><path d="M344.32,704.14c.09-9.91-8.14-18.72-18.2-18.52-14.4.28-30.09,14.46-41.17,22.23a1.51,1.51,0,0,0,1.52,2.61c8.44-4.69,16.53-9.92,24.87-14.76,6.55-3.81,15-8.65,22.48-2.12,3.46,3,4.56,7.7,6.7,11.59A2.06,2.06,0,0,0,344.32,704.14Z"/><path d="M392.31,704.09c-6.66-4.09-13.95-.41-19.36,4.28-9.85,8.53-17.89,18.53-28.46,26.4-1.74,1.29-.2,4.17,1.74,3a119.33,119.33,0,0,0,20.26-15.07c8.06-7.64,12.93-14.5,24.92-15.3A1.78,1.78,0,0,0,392.31,704.09Z"/><path d="M427.93,696.68c-5.62,7.94-8.84,17.81-13.69,26.28-5.33,9.31-11.45,17.79-19.47,25-1.73,1.55.78,4,2.52,2.52,15.14-12.58,29.5-33,34.15-52.29A1.93,1.93,0,0,0,427.93,696.68Z"/><path d="M452.12,644.84c-11,9.31-14,26.25-21.4,38.13-1.38,2.2,2,4.1,3.45,2a145,145,0,0,0,11.68-20.26c2.92-6.12,7.37-11.54,9.81-17.82C456.49,644.74,453.56,643.62,452.12,644.84Z"/><path d="M465.24,630.56c21.32-30.37,60-43.33,85.57-69.2a1.79,1.79,0,0,0-2.16-2.8c-18.95,9.31-36.36,24.53-53.38,37-12.89,9.43-25,19.2-32.91,33.35C461.29,630.78,464,632.3,465.24,630.56Z"/><path d="M510.27,611.51a1.32,1.32,0,0,0-1.87-1.86c-7.18,6.37-16,10.21-23.57,16.06A86.72,86.72,0,0,0,469,641.83c-9.06,11.87-19.23,27.65-22.34,42.44a1.81,1.81,0,0,0,3.3,1.39c10-13,14.78-29.5,25.09-42.63C485.05,630.27,499.27,623.1,510.27,611.51Z"/><path d="M521,604.76c15.94-9,35.74-19.9,46-35.64,1.17-1.8-1.18-4.24-3-3-7.1,4.83-13,11.62-19.6,17.17a247.8,247.8,0,0,1-24.88,18.89A1.5,1.5,0,0,0,521,604.76Z"/><path d="M565.83,582.27c-13.09,12.84-28.23,23.39-43.23,33.85-13,9.1-29.12,17.82-39.16,30.36-1.21,1.5.28,3.86,2.16,2.8,15.34-8.69,29.47-21.15,43.88-31.41,14-9.94,27-20.62,38.68-33.27A1.65,1.65,0,0,0,565.83,582.27Z"/><path d="M555.19,603.23c-7.66,8-16.5,15.17-25.32,21.83a1.32,1.32,0,0,0,1.33,2.27c10.92-5.07,19.16-12.61,26.31-22.31C558.51,603.66,556.33,602,555.19,603.23Z"/><path d="M400.52,550.82c5.84-8.71,6.63-19.78,8.32-29.89,2-12.21,4.73-24.4,11.24-35.1.91-1.51-1.31-2.69-2.31-1.35-7.19,9.64-10.45,20.17-12.86,31.84-2.31,11.16-5.44,22.53-6.84,33.83C397.89,551.56,399.87,551.78,400.52,550.82Z"/><path d="M426.11,465.86c-1.21,1.56,1.38,3.48,2.71,2.09,4.21-4.38,8.87-9.85,14.64-12.09,6-2.34,12.94-.8,19.1-3.08,1.45-.53,1.79-2.91,0-3.29-6.4-1.37-15.38-1.09-21.44,1.68C434.75,454.08,430.26,460.48,426.11,465.86Z"/><path d="M479.13,446.61a1.58,1.58,0,0,0,.41-3.09c-7.55-3.08-16.27-2.41-24.24-1.72-2.57.23-2.66,4.13,0,4.08C463.24,445.71,471.23,447.25,479.13,446.61Z"/><path d="M471.53,437.43c7.44,1.9,18,4.58,25.44,1.84a1.53,1.53,0,0,0,0-2.92c-3.79-1.18-7.9-.79-11.84-.89-4.41-.11-8.84-.33-13.25-.62C470.39,434.74,470.11,437.06,471.53,437.43Z"/><path d="M490.16,430.54c5.27,1.77,12.71,4.48,18.24,2.59a1.31,1.31,0,0,0,.31-2.37c-2.51-1.57-5.2-1.83-8.08-2.22-3.34-.44-6.68-.93-10-1.35C488.61,426.93,488.43,430,490.16,430.54Z"/><path d="M418.78,356c-16.59,14.27-30.75,30.41-37.63,51.5-.71,2.19,2.61,3,3.4.94,8.21-21.74,25.41-38.4,43.1-52.77,8.22-6.68,16.71-13,24.88-19.79,7.77-6.42,17.86-13.81,22.37-23,.8-1.63-.94-3.91-2.7-2.7-9.1,6.2-16.53,15.57-25.05,22.69C437.79,340.68,428,348,418.78,356Z"/><path d="M380.12,382.06c-1.42,2.13,1.93,4,3.38,2,12.4-17.06,30-28.25,46.25-41.24a217.91,217.91,0,0,0,22.15-20.49c7.14-7.55,15.35-15.32,20-24.71.73-1.5-.89-3.68-2.52-2.53-8.56,6.07-14.77,15.16-22,22.74a263,263,0,0,1-24.46,22.62C407.45,353.14,391.41,365.23,380.12,382.06Z"/><path d="M368.18,372.4c-1.28,2.11,1.53,4,3.26,2.52a396.24,396.24,0,0,1,38-29.23c11.46-7.63,22.1-15.84,30.39-26.95,1.32-1.77-1.65-4.07-3.08-2.37-10.43,12.38-24.06,20.85-37.48,29.61C388.3,353.14,375.12,360.94,368.18,372.4Z"/><path d="M367.31,365.39c8.37-6.38,15.73-14.72,23.42-21.94,1.26-1.18-.41-3.46-1.88-2.43-8.54,6-18.05,13.22-24,21.88C363.82,364.34,365.86,366.5,367.31,365.39Z"/><path d="M546.26,370.5c16,2,47.19,5.38,58.86-9.08a2.09,2.09,0,0,0-2-3.47c-8.82,2.27-16.23,6.14-25.57,6.89a167,167,0,0,1-27.75-.39c-21.48-1.92-40.93-15.64-57-29.16-1.88-1.58-4.56,1-2.74,2.75C505.36,352.9,524.45,367.8,546.26,370.5Z"/><path d="M605.13,380.88a1.92,1.92,0,0,0-1.35-3.24c-9.9.45-19.48,4.68-29.49,5.57a112,112,0,0,1-32.91-2.28,1.83,1.83,0,0,0-1,3.52C558.59,390.9,589.1,394.43,605.13,380.88Z"/><path d="M605.88,393.63a1.71,1.71,0,0,0-1.19-2.88c-5.65-.23-11,2.34-16.51,3.37a88.58,88.58,0,0,1-21,1.26c-2.94-.15-2.75,4.1,0,4.46C578.52,401.33,597,402.29,605.88,393.63Z"/><path d="M602.22,408.06c1.23-.93,1.31-3.12-.46-3.54-2.78-.66-5.43.23-8.19.71-3.54.61-7.07,1.26-10.63,1.71-2.49.32-2.68,4.07,0,4a94.68,94.68,0,0,0,10.24-.56C596.21,410,599.73,410,602.22,408.06Z"/><path d="M604.17,417.84a2,2,0,0,0-.7-2.68c-1.68-1.16-3.72-.44-5.59-.09l-6.25,1.17c-3.16.59-1.79,5.29,1.32,4.78l6.29-1C601.28,419.67,602.91,419.59,604.17,417.84Z"/><path d="M603,536.5c11.08-24.9,7.42-57.38.74-83-.71-2.72-4.77-1.56-4.19,1.16a170,170,0,0,1,3.66,41.91c-.49,13.1-3.66,25.7-4.73,38.67C598.25,537.61,602,538.69,603,536.5Z"/><path d="M609.54,555.89c-.36,2.42,3,4.45,4.33,1.83,11.25-22.73,10-53.28,6-77.58-.54-3.22-5.33-1.82-4.86,1.34A163,163,0,0,1,616.3,519C615.25,531.64,611.42,543.46,609.54,555.89Z"/><path d="M631,536.07c-1.13,11.42-5.34,21.12-10.61,31.19a2.39,2.39,0,0,0,3.74,2.89c18.06-17.4,13.5-47.44,10.42-69.59-.39-2.76-5.21-2.14-4.92.67C630.87,512.77,632.16,524.46,631,536.07Z"/><path d="M547,681.45c-1.51,1.92.53,5.58,2.91,3.77,17.46-13.22,32.51-30.8,48-46.26,14.1-14.08,25.32-27.8,31.44-47,.71-2.24-2.7-3.12-3.47-1C612.09,629.51,571.44,650.45,547,681.45Z"/><path d="M565.74,695.4c10.8-12.6,22.74-24.17,34.87-35.48,9.59-8.94,18.63-17.67,23.63-30,1.11-2.75-3.29-3.89-4.41-1.22-6.55,15.65-21.24,26-33.23,37.33a381.84,381.84,0,0,0-34.15,36.1,207.78,207.78,0,0,0-25,37.86c-6.08,12.11-12.43,26.21-12.67,39.94,0,2,3.1,3.08,4,1.08,6.27-14.49,10.07-29.59,17.65-43.65A239.69,239.69,0,0,1,565.74,695.4Z"/><path d="M592.48,682.24c-19.72,18.22-41.17,42.66-47.87,69.39a2,2,0,0,0,3.69,1.55c7.1-11.37,12.16-23.89,19.5-35.2A252.18,252.18,0,0,1,594,683.77,1.09,1.09,0,0,0,592.48,682.24Z"/><path d="M531.52,705.88a287.25,287.25,0,0,0-25.19,40.2c-6.22,12-11.22,26.17-9.65,39.82a2,2,0,0,0,3.85.52c2.8-6.69,3.43-13.78,5.3-20.75a106.45,106.45,0,0,1,8.39-20.52c6.42-12.69,12.76-25.44,20.38-37.47C535.86,705.69,532.86,704.09,531.52,705.88Z"/><path d="M560.74,654.42c10.08-10.94,21.19-21.44,27.44-35.15,1-2.18-2.09-4.11-3.28-1.92-8,14.84-21.52,26.86-32.88,39.13s-23.6,24.13-33.8,37.37c-9.36,12.15-15.73,26.81-22,40.7-6.1,13.47-12.45,28.2-13.21,43.14-.1,2.13,3,2.41,3.62.49,9.67-30.81,19.95-63.7,41.7-88.47C538.84,677.72,549.92,666.16,560.74,654.42Z"/><path d="M517.86,673.62C501.6,695,486,717,474.92,741.64c-9.22,20.52-18.59,46.7-15.1,69.55.32,2.06,3.76,2,4.12,0,2.06-11.7,2.34-23.53,5.2-35.15a203.79,203.79,0,0,1,13.7-38c10.42-22.12,24-42.65,38-62.64C522.13,673.52,519.17,671.9,517.86,673.62Z"/><path d="M469.71,716.82a225.62,225.62,0,0,0-17.31,44.74c-3.89,15-7.77,32.19-6.65,47.72.16,2.33,3.84,3.19,4.34.59,3-15.56,3.76-31.37,7.44-46.9a307.85,307.85,0,0,1,14.38-45.22C472.42,716.49,470.32,715.61,469.71,716.82Z"/><path d="M478.64,702.41c3.59-8.13,8.58-14.94,14.28-21.73,4.76-5.66,10.65-10.81,14.59-17.07,1.12-1.78-1.18-4.29-3-3-13.08,9.32-23.25,25.76-28.64,40.64C475.3,702.84,477.94,704,478.64,702.41Z"/><path d="M648,648.65a264.45,264.45,0,0,1-35.37,38C600.72,697.3,589.55,708.4,583,723.22c-1,2.28,2.27,4.31,3.42,2,8.07-16.22,21.94-27.74,35.39-39.37,11.35-9.82,25-20.9,30-35.59C652.66,647.83,649.32,646.92,648,648.65Z"/><path d="M636.49,682.08c-8.15,12.55-20.33,20.81-30.81,31.17-7.38,7.28-16.63,17.41-15.95,28.46a1.53,1.53,0,0,0,2.82.76c3.28-5.32,5.25-11.2,9-16.33,4.23-5.87,9.51-10.9,14.76-15.82,8.7-8.15,17.14-16.12,22.94-26.65A1.57,1.57,0,0,0,636.49,682.08Z"/><path d="M610.15,722.14c-2.63,3.89-5.27,7.79-7.71,11.8-2.2,3.6-4.78,7.36-5.58,11.56-.26,1.37,1.4,2.62,2.49,1.45,2.92-3.12,4.57-7.25,6.55-11,2.21-4.15,4.48-8.23,7-12.23C613.93,722,611.27,720.48,610.15,722.14Z"/><path d="M647.39,565.88c3.73-20.2.51-42.46-2.84-62.56-.33-1.94-3.69-1.51-3.47.47,2.28,20.53,1.21,41.28,3.46,61.7C644.7,567,647.07,567.64,647.39,565.88Z"/><path d="M647.71,586c-.65,1.83,1.95,2.64,2.94,1.25,14.49-20.61,9.71-49.4,5.36-72.42-.39-2.07-3.5-1.18-3.14.86C657.22,540.6,656.15,562.12,647.71,586Z"/><path d="M665.17,542.3a138,138,0,0,1-6.45,46.48c-4.48,14.48-12.35,26.91-18,40.75-.83,2,2.3,3.76,3.66,2.13,9.44-11.3,15.57-27.37,19.76-41.4a118,118,0,0,0,4.14-48C668,540.4,665.09,540.29,665.17,542.3Z"/><path d="M650.59,639.41c-.5,1.43,1.64,2.75,2.62,1.53,17.06-21.34,23.4-52.73,26.08-79.25.21-2.11-3.43-2.63-3.73-.5a229.46,229.46,0,0,1-9.45,40.13C661.77,614.4,655.11,626.45,650.59,639.41Z"/><path d="M670.56,636.48c11.42-13.21,17.28-31.59,21.19-48.33.61-2.62-3.34-3.72-4-1.11-4.54,17-12.84,31.43-19.83,47.38C667.17,636,669.17,638.08,670.56,636.48Z"/><path d="M690.85,609.29c-2.64,22.47-17.71,36.14-28.68,54.5-1.21,2,1.47,3.88,3.13,2.42,15.94-14,28.63-35.61,30.32-56.92C695.86,606.19,691.2,606.31,690.85,609.29Z"/><path d="M689.31,644.45a70.92,70.92,0,0,1-6,13.87c-2.3,4-5.41,7.6-7.57,11.7-.79,1.49.91,3.61,2.49,2.49,8.34-5.88,13-17.32,15.48-26.84C694.48,642.81,690.2,641.65,689.31,644.45Z"/><path d="M632.51,640.08c-6.07,7.86-13,15.29-18.42,23.6-1.27,1.93,1.42,3.57,3,2.3,7.79-6.33,13.86-15.3,19-23.79C637.57,639.82,634.1,638,632.51,640.08Z"/><path d="M535.52,765c-3.47,10.11-9.3,19.2-12.75,29.21-.59,1.69,1.9,3.21,3.07,1.79,6.81-8.21,10.08-20,12.82-30.13A1.63,1.63,0,0,0,535.52,765Z"/><path d="M511.09,792.34c-3.68,11.31-8.65,23.91-6.95,36,.22,1.59,2.4,1.2,2.84,0,4-11.09,4-23.75,7-35.19A1.52,1.52,0,0,0,511.09,792.34Z"/><path d="M309.34,602.9c-.75,2.11,2.4,3.26,3.51,1.48,13.74-22,18.58-50.18,25.85-74.8,8.35-28.29,16.92-56.52,25.06-84.87.66-2.29-2.86-3.24-3.55-1-8.51,27.56-16.59,55.25-24.88,82.88C327.56,552.48,318.41,577.51,309.34,602.9Z"/><path d="M306.25,596.38c9.05-18.32,14.16-39,20.42-58.44,6.68-20.73,13-41.55,18.15-62.73a1,1,0,0,0-2-.55c-6.52,20.11-12.57,40.37-19.11,60.48s-15.47,39.61-20.46,60C302.85,596.85,305.4,598.1,306.25,596.38Z"/><path d="M294.39,600.53c8.68-16.36,12.19-36.39,18.27-53.88.63-1.82-2.15-2.49-2.85-.78-6.89,16.92-16.43,35.54-18.31,53.87C291.34,601.3,293.7,601.83,294.39,600.53Z"/><path d="M286.61,589.63c4.77-10.39,7.28-22.09,11-32.91.62-1.8-2.12-2.47-2.8-.77-4.17,10.37-9.27,21.41-11,32.52C283.61,590,285.82,591.34,286.61,589.63Z"/><path d="M278.55,584.93c4.11-6.67,5.89-14.11,7-21.81.28-1.94-2.66-2.81-3-.83-1.25,7.49-3.75,14.58-5.86,21.84A1,1,0,0,0,278.55,584.93Z"/><path d="M283.29,645.69c-4.53,15.4-12.16,29.22-20.56,42.79-7.31,11.8-16.06,23.74-20.66,36.91-.74,2.11,2.3,3.14,3.44,1.45,8.59-12.82,16.13-26.9,23.7-40.38,7.15-12.73,13.37-25.77,17.08-39.94A1.56,1.56,0,0,0,283.29,645.69Z"/><path d="M239.42,721.75C249.63,707,255.9,688.2,264,672.14c.84-1.69-1.62-3.16-2.55-1.49-8.68,15.68-20.05,32.56-24.7,50A1.48,1.48,0,0,0,239.42,721.75Z"/><path d="M230,720.59c7.29-7.19,11.33-18.82,15.43-28,.79-1.78-1.68-3.35-2.68-1.56-5,8.9-12.33,18.43-14.85,28.38A1.26,1.26,0,0,0,230,720.59Z"/><path d="M251.51,739.12c-5.13,2.19-10.41,4-15.7,5.77-4.2,1.41-9.21,2.26-12.75,5a1.89,1.89,0,0,0,.95,3.5c4.66.16,9.38-2.37,13.61-4.17,5.25-2.25,10.31-4.89,15.4-7.48C254.77,740.81,253.23,738.39,251.51,739.12Z"/><path d="M271,758.09c-6.69,1.43-12.55,4.52-18.39,8a1.55,1.55,0,0,0,1.56,2.68c5.83-3,11.94-5.44,17.79-8.43C273.21,759.69,272.27,757.8,271,758.09Z"/><path d="M336.59,348.25c1.67.64,2.63-1.65,1.62-2.78-6.43-7.18-14.82-12.3-21.18-19.75-5.8-6.77-10.68-13.92-18.14-19-1.49-1-3.4,1.4-1.95,2.52C311.37,320.35,318.55,341.42,336.59,348.25Z"/><path d="M263.79,320.19a175.38,175.38,0,0,1,10.53,17.12c2.81,5.23,4.8,11.44,8.82,15.86a1.23,1.23,0,0,0,2.09-.86c-.08-12.23-11.42-25.3-19.34-33.74C264.87,317.48,262.91,318.92,263.79,320.19Z"/><path d="M393.91,855.38c-6.42-1.09-12.88-1-19.37-1.24-3.18-.12-6.41-.44-9.62-.59a8.93,8.93,0,0,0-5.89-7.16c-.17-2.77-.42-5.54-.52-8.28-.23-6.49-.15-13-1.24-19.37a1,1,0,0,0-1.94,0c-1.09,6.42-1,12.88-1.24,19.37-.1,2.65-.34,5.32-.5,8a8.91,8.91,0,0,0-7,7.51c-2.86.16-5.73.43-8.56.53-6.49.23-12.95.15-19.37,1.24a1,1,0,0,0,0,1.94c6.42,1.09,12.88,1,19.37,1.24,3,.11,6,.4,9,.56A8.69,8.69,0,0,0,353.5,865c.14,3.22.47,6.45.59,9.64.23,6.49.15,12.95,1.24,19.37a1,1,0,0,0,1.94,0c1.09-6.42,1-12.88,1.24-19.37.12-3.29.47-6.62.61-9.94a8.72,8.72,0,0,0,5.37-5.48c3.35-.14,6.72-.49,10.05-.61,6.49-.23,12.95-.15,19.37-1.24A1,1,0,0,0,393.91,855.38Z"/><path d="M864.06,560.2c-6.43-1.09-12.88-1-19.38-1.25-3.18-.11-6.4-.44-9.61-.58a9,9,0,0,0-5.9-7.16c-.16-2.77-.41-5.54-.51-8.28-.23-6.5-.16-12.95-1.24-19.37a1,1,0,0,0-1.95,0c-1.08,6.42-1,12.87-1.24,19.37-.09,2.64-.33,5.32-.5,8a8.9,8.9,0,0,0-7,7.5c-2.86.17-5.73.43-8.56.53-6.5.23-13,.16-19.38,1.25a1,1,0,0,0,0,1.94c6.43,1.09,12.88,1,19.38,1.24,3,.11,6,.39,9,.55a8.69,8.69,0,0,0,6.45,5.84c.15,3.22.48,6.45.59,9.64.23,6.49.16,13,1.24,19.37a1,1,0,0,0,1.95,0c1.08-6.42,1-12.88,1.24-19.37.12-3.29.46-6.62.6-9.94a8.72,8.72,0,0,0,5.37-5.48c3.36-.14,6.73-.49,10-.61,6.5-.23,13-.15,19.38-1.24A1,1,0,0,0,864.06,560.2Z"/><path d="M203.47,582.07c-6.42-1.09-12.88-1-19.37-1.24-3.18-.12-6.41-.44-9.62-.59a8.93,8.93,0,0,0-5.89-7.16c-.17-2.77-.42-5.54-.52-8.28-.23-6.49-.15-12.95-1.24-19.37a1,1,0,0,0-1.94,0c-1.09,6.42-1,12.88-1.24,19.37-.1,2.65-.34,5.32-.5,8a8.91,8.91,0,0,0-7,7.51c-2.86.16-5.72.43-8.56.53-6.49.23-13,.15-19.37,1.24a1,1,0,0,0,0,1.94c6.42,1.09,12.88,1,19.37,1.24,3,.11,6,.4,9,.56a8.69,8.69,0,0,0,6.46,5.83c.15,3.22.47,6.45.59,9.64.23,6.49.15,13,1.24,19.37a1,1,0,0,0,1.94,0c1.09-6.42,1-12.88,1.24-19.37.12-3.29.47-6.62.61-9.94a8.69,8.69,0,0,0,5.37-5.48c3.35-.14,6.72-.49,10-.61,6.49-.23,13-.15,19.37-1.24A1,1,0,0,0,203.47,582.07Z"/><path d="M251.63,434.67A17.34,17.34,0,1,0,234.29,452,17.36,17.36,0,0,0,251.63,434.67Zm-28.72,0a11.39,11.39,0,1,1,11.38,11.38A11.4,11.4,0,0,1,222.91,434.67Z"/><path d="M522.68,158.8a17.34,17.34,0,1,0-17.34-17.34A17.36,17.36,0,0,0,522.68,158.8Zm0-28.72a11.38,11.38,0,1,1-11.38,11.38A11.4,11.4,0,0,1,522.68,130.08Z"/><path d="M112.75,235.84a17.34,17.34,0,1,0,17.34,17.34A17.36,17.36,0,0,0,112.75,235.84Zm0,28.72a11.38,11.38,0,1,1,11.38-11.38A11.39,11.39,0,0,1,112.75,264.56Z"/><path d="M887.25,276.66A17.34,17.34,0,1,0,904.59,294,17.36,17.36,0,0,0,887.25,276.66Zm0,28.72A11.38,11.38,0,1,1,898.63,294,11.39,11.39,0,0,1,887.25,305.38Z"/></svg>