<svg id="Layer_1" data-name="Layer 1" xmlns="http://www.w3.org/2000/svg" viewBox="0 0 1000 1000"><defs><style>.cls-1{fill:#8793a3;}.cls-2{fill:#faf7ec;}.cls-3{fill:#3f4e54;}</style></defs><title>Cancer</title><path class="cls-1" d="M444.55,267.32a10.3,10.3,0,1,0,10.3,10.3A10.32,10.32,0,0,0,444.55,267.32Z"/><path class="cls-1" d="M529.39,217a10.31,10.31,0,1,0,10.31,10.31A10.33,10.33,0,0,0,529.39,217Z"/><path class="cls-1" d="M265.79,696.6c-18,9-36.5,17.38-53,28.89-3.55,2.48-10.3,5.64-5.79,9.68,3.46,3.1,11.51,2.34,15.86,2.67,10.39.8,20.81,1.25,31.23,1.06a206,206,0,0,0,62.86-10.69,4.83,4.83,0,0,1,.78-.18q15-12.16,30.88-23.22a5.46,5.46,0,0,1,.77-.43c-.38-1.91-.79-3.8-1.32-5.67-1.68-6-2.19-9-9.43-9.25-1.07,0-2.07.82-3.2.72-2.56-.21-4.7-.46-6.59-2.39-3.05-3.1-3.84-8.39-4-13.66C303.9,678.05,284.77,687.1,265.79,696.6Zm11.56,1.46c12.2-7.42,29.52-20.28,44.7-17.42a1.35,1.35,0,0,1,.31,2.44c-6.33,2.84-13.43,3.62-20,5.94a213.94,213.94,0,0,0-24.06,10.64A.93.93,0,0,1,277.35,698.06Zm63.1,9.23c-7.32,6.28-17.53,9.75-26.47,13.18a219.38,219.38,0,0,1-30.34,9A210.71,210.71,0,0,1,220,734.28c-2.58-.22-2.66-4.13,0-4.07,20.91.42,41.81-1,62.24-5.74A231.44,231.44,0,0,0,311,715.76c9.27-3.45,18.14-8.94,27.66-11.46C340.34,703.86,341.85,706.08,340.45,707.29Zm-2.65-12.46a1.66,1.66,0,0,1,1.61,2.75c-6.74,6.52-17.52,9.83-26.11,13.34-10.79,4.41-22.07,7.36-33.32,10.35a1.35,1.35,0,0,1-.72-2.6c10.12-3.21,19.81-7.33,29.61-11.39C318.12,703.44,328,696.75,337.8,694.83Z"/><path class="cls-1" d="M697.17,858.77c-8.84-.55-17.69-1-26.54-1.37-7.16-.29-15.93-1.69-23.63-1.17,6.23,4.43,23.3,12.52,25.58,13.57,5.48,2.5,14.36,6.25,20.54,4.41,4.77-1.43,7.51-6.4,9.17-11.17A6,6,0,0,1,697.17,858.77Zm-5.06,7c-3.62,2.28-7.69,1.47-11.69.65-5-1-10.56-2.22-15-4.93-1.42-.88-1-3.67.93-3.44,7.94,1,16.62,6.63,24.68,5.22A1.37,1.37,0,0,1,692.11,865.76Z"/><path class="cls-1" d="M817.6,764.78a10.3,10.3,0,1,0,10.3,10.3A10.31,10.31,0,0,0,817.6,764.78Z"/><path class="cls-1" d="M822,226a10.31,10.31,0,1,0-10.3-10.31A10.32,10.32,0,0,0,822,226Z"/><path class="cls-1" d="M269,832.8a225,225,0,0,0-14.2-33.39c-9.84-19.33-19.95-38-36.43-52.42a57.22,57.22,0,0,1-14.78-3.25c-.6,19.74,8.12,40.88,17.7,57,11.22,18.9,26.77,35,44.19,48.32,1.35,1,4.91,4.47,6.74,4.77,3.62.6,1.34-2.84.86-5.35A136.78,136.78,0,0,0,269,832.8Zm-13.89,4.13c-12.22-7.94-21.9-21.8-29-34.34-8-14.05-12.89-28.55-16.23-44.32-.36-1.67,2.14-2.38,2.57-.71a151.93,151.93,0,0,0,17.69,41c8,12.92,18.48,23,27.7,34.86C259.27,835.25,257.43,838.43,255.1,836.93Zm6.2-6.52c-5.09-3.55-9.55-9.09-14.05-13.43a60,60,0,0,1-11.8-16.51c-1-2,1.93-3.76,3-1.77,3.68,6.65,8.66,11.79,14.3,16.81,4.11,3.66,9.6,7.46,10.86,13.1C263.92,829.86,262.51,831.26,261.3,830.41Z"/><path class="cls-1" d="M296.5,758.45c-3.73,3.51-21,16.3-9.88,19.43,5.52,1.56,15.7-2.47,21-4.12a107.31,107.31,0,0,0,19.27-8.15,110.76,110.76,0,0,0,31-25.2,26.87,26.87,0,0,1-1.73-3.27c-5.8,7.85-16.63,14-24.33,18.47C320.15,762.47,307.46,767.7,295,773c-2.21,1-4.19-2.21-1.93-3.3,11.33-5.46,22.54-11,33.29-17.58a164.74,164.74,0,0,0,17.82-12.28c3.42-2.76,6.4-6,10.06-8.36q-.8-2.84-1.36-5.74a2.29,2.29,0,0,1-.2.59c-2.79,5.23-9.05,9.24-14,12.38a89.27,89.27,0,0,1-18,8.9c-1.14.41-1.83-1.36-.81-1.93a125.74,125.74,0,0,0,17-11c4.37-3.43,8.4-8.29,13.27-10.86a1.81,1.81,0,0,1,2.42.65c-.65-3.45-1.14-6.95-1.64-10.44-13,9.18-25.63,18.88-37.71,29.26Q304.72,750.71,296.5,758.45Z"/><path class="cls-1" d="M844.52,378.79c.14,14.41-.1,28.83-.22,43.24,5.18-1.44,10.31-1.07,13.81,3.88A18.51,18.51,0,0,1,861,433.1c13.55-4.35-1-42.62-3.59-50.94q-3.72-11.85-8.2-23.45-2.79-7.18-5.86-14.24c-.61-1.38-1.36-4-2.43-6.12-1.07,6,.84,12.16,1.91,18.37A134.84,134.84,0,0,1,844.52,378.79Zm8.27-2c2.5,7.72,4.84,15.46,6.75,23.35,1.32,5.44,3,11.06,1.41,16.57-.32,1.13-2.24,1.3-2.47,0-2.27-13.2-5.14-26.17-7.85-39.33A1.12,1.12,0,0,1,852.79,376.75Z"/><path class="cls-1" d="M388.57,822.87c-7.25-7.54-16.72-12.52-25.74-17.61-17.5-9.88-35.91-21.13-56.62-21.22-6.4,2.06-13.36,3.63-19.45,3.31,6.31,6.76,16.94,12.65,22.11,15.78A260.17,260.17,0,0,0,336,816.87c19.5,8.86,39.05,19.2,59.34,26.08,2.43.83,3.41,2.14,4.54,0,.69-1.28-2.17-6.33-2.68-7.44A45.94,45.94,0,0,0,388.57,822.87Zm-80.13-36.19c12.44-2.17,28.51,7.58,37.15,15.94.82.79-.27,2.25-1.24,1.6-10.65-7.22-24.06-9.56-35.91-13.82C306.82,789.82,306.39,787,308.44,786.68Zm71.89,44.6c-13-5-25.55-11.21-38.32-16.73-13.27-5.73-28.76-10.59-40.51-19.09a1.57,1.57,0,0,1,1.2-2.85c13.27,2.95,26.17,10.63,38.43,16.38,13.49,6.32,27.43,12,40.64,18.86C383.65,828.82,382.32,832,380.33,831.28Z"/><path class="cls-1" d="M764.52,539.71c.39.52.76,1,1.1,1.59a5.82,5.82,0,0,1,.73,0c24,1.71,48.14-18,62.24-35.89a108.46,108.46,0,0,0,18.1-34.2,114,114,0,0,0,4-16.9c.79-5.06,2.76-14.15,1.09-19.19-4-12.07-27.33,9.15-31.89,14-7.25,7.72-16.6,13.34-23.38,21.43-15.2,18.12-29.91,43.69-31.59,67.56A4.76,4.76,0,0,1,764.52,539.71Zm58.74-43.08c11.93-15.8,14.22-36.05,22.58-53.64.65-1.36,3-.37,2.44,1-7.14,18.87-8.85,39.28-21.34,55.85-5.76,7.65-12.85,14.1-20.4,20-7.32,5.66-15.52,12.48-24.36,15.48-1.89.65-3.2-1.93-1.89-3.25,6-6.08,14.46-9.95,21.38-15C809.71,511.22,817.25,504.6,823.26,496.63Zm-50,28.56c6-7,15-12,22.14-17.73,7.41-6,14.61-12.18,21.51-18.74a1.87,1.87,0,0,1,2.65,2.65,234.58,234.58,0,0,1-22.6,22.1c-6.53,5.45-13.72,12.16-21.82,14.94C773.18,529.09,772.13,526.53,773.27,525.19Z"/><circle class="cls-1" cx="103.13" cy="578.65" r="10.3"/><path class="cls-1" d="M672.56,294.38c3.63-11.39,13.58-19.9,25.14-26.35a160.76,160.76,0,0,1-21.52-32.62,173.83,173.83,0,0,1-7.52-17.94c-1.36-3.8-2.34-8.2-4.5-11.64a7.4,7.4,0,0,0-5.9-4.8,42.37,42.37,0,0,0-1.11,4.84c-3.12,16.66-.42,36.17,2.19,52.82C661.36,271.53,665.13,284,672.56,294.38Zm-9.64-73.26a1,1,0,0,1,2,0c.72,10.1.88,20.08,3,30,1.91,8.9,5.51,17.57,7,26.52.31,1.93-2.22,3.29-3.31,1.4C662.69,263.61,661,238.49,662.92,221.12Z"/><path class="cls-1" d="M307.9,858c-8.83.35-17.66.83-26.48,1.38a6,6,0,0,1-5.17,4.26c1.93,5.48,5.13,10.31,11.4,11.27,5.94.91,13-2.11,18.3-4.51,2.21-1,19.3-9.13,25.56-13.56C323.82,856.3,315.06,857.7,307.9,858Zm5.07,5.17c-4.4,2.7-10,3.89-15,4.93-4,.82-8.07,1.63-11.7-.65a1.38,1.38,0,0,1,1.06-2.5c8.07,1.41,16.72-4.24,24.68-5.22C314,859.48,314.39,862.27,313,863.15Z"/><path class="cls-1" d="M428.08,823l-19.76,16c1.42,4.6,1.82,9.43-1.21,12.33,12.07,8,29.44-24.29,30.5-33.54a13.19,13.19,0,0,0,.26-2.33C435.87,818.14,430.21,821.29,428.08,823Zm3.86,4.12c-3.61,8-9.34,17.16-17.5,21.09-1.22.59-3.15-.76-2.11-2.11,2.54-3.31,5.58-6.11,8.29-9.27a66,66,0,0,0,7.89-11.71C429.75,822.85,433,824.86,431.94,827.14Z"/><path class="cls-1" d="M570.17,838.44l-19.72-16c-2.13-1.73-7.79-4.88-9.79-7.5a13.09,13.09,0,0,0,.26,2.33c1.05,9.25,18.41,41.55,30.48,33.55C568.37,848,568.73,843.13,570.17,838.44ZM564,846.56c-8.16-3.93-13.89-13.09-17.5-21.09-1-2.28,2.19-4.29,3.43-2a65.58,65.58,0,0,0,7.89,11.7c2.71,3.17,5.75,6,8.29,9.28C567.13,845.8,565.2,847.15,564,846.56Z"/><path class="cls-1" d="M706.88,509.16c7.76,2.64,13,9.54,14.22,18.32,12.38-1.58,20.23-12,27.29-21.45,6.29-8.39,11.63-16.9,14.35-27.15s3.11-20.93,2.6-31.48-.84-22.6-5.2-32.35c-2.94-6.59-9.4-13.18-17.37-10.88a11.63,11.63,0,0,0-1.89.71,4.45,4.45,0,0,1-1.77,1c-3.56,2.24-6.44,5.87-8.65,9.17-6,8.91-10.4,19.2-14,29.26a171,171,0,0,0-9.55,64.14A4.5,4.5,0,0,1,706.88,509.16Zm51.18-70.07c-.11-1.93,2.74-1.84,2.94,0,1.76,15.75-.09,30.85-6.34,45.48-5.59,13.11-15.25,29.12-28.19,36.1a1.84,1.84,0,0,1-2.21-2.87c9.56-11.35,19.56-20.48,25.69-34.4A97.42,97.42,0,0,0,758.06,439.09Zm-8.57,15.39c.48-2,3.3-1.1,3,.82a92,92,0,0,1-10.1,29.8c-4.27,7.74-10.34,18.31-18.63,22.19a1.39,1.39,0,0,1-1.89-1.89c4.11-8.2,11.83-14.57,16.51-22.64A105.55,105.55,0,0,0,749.49,454.48Zm-8.11-41.69c.89-1.07,2.62.32,1.9,1.46-7.22,11.48-12.1,23.55-18.1,35.61-.37.73-1.71.41-1.6-.44C725.29,436.07,732.89,423,741.38,412.79Zm-25.81,90.26c.64-3.26,2.68-6.16,4.32-9,1.84-3.16,3.73-6.28,5.6-9.42,1.22-2.06,4.35-.22,3.21,1.88-1.75,3.21-3.46,6.44-5.23,9.63-1.6,2.87-3.05,6.07-5.52,8.29A1.44,1.44,0,0,1,715.57,503.05Z"/><path class="cls-1" d="M707.38,612.6l.81-.09a138.05,138.05,0,0,0,28.72-17.84c11.37-9.25,24.63-24.22,23.61-40-1.37-21.16-29.8-16.49-41.21-6.76l0,0A64,64,0,0,1,708.35,570c-7.62,9.66-21.85,20.87-34,23.94.9,4.87,1,9.72-1.09,13.77-1.7,3.24-4.55,4.67-7.92,5.7-7.37,2.27-11.11,4-12.43,12.4q-.13.89-.24,1.77a176.61,176.61,0,0,0,51.6-13.37A4.59,4.59,0,0,1,707.38,612.6ZM678,602.88c3.79-3.43,9.44-3.91,14.15-5.67a90.45,90.45,0,0,0,17.23-9.12c1.78-1.14,3.3,1.61,1.63,2.79-5.46,3.89-10.9,7.89-17,10.64-4.63,2.08-10.17,5.38-15.27,4A1.61,1.61,0,0,1,678,602.88Zm-13.49,17.94a1.78,1.78,0,0,1-.47-3.48c7.44-3.09,15.5-4.29,23-7.51A157.21,157.21,0,0,0,707.25,599c13.06-8.07,26.5-16.61,38.14-26.66,1.61-1.38,3.87.8,2.35,2.36-11.38,11.73-25.5,20.81-39.29,29.45C696.36,611.74,679.36,622.39,664.49,620.82Z"/><path class="cls-1" d="M472.48,450.88c1.31,2.44,3.69,4.35,6,6.13.44-3.87.6-7.72-1.2-10.35C473.84,441.69,470.23,446.66,472.48,450.88Z"/><path class="cls-1" d="M117.54,433.68a18.56,18.56,0,0,1,2.87-7.19c3.51-4.94,8.64-5.32,13.82-3.87-.12-14.41-.36-28.83-.23-43.24a134.76,134.76,0,0,1,1.71-22.07c1.08-6.19,3-12.35,1.9-18.37-1.06,2.17-1.81,4.74-2.42,6.12q-3.08,7.05-5.86,14.24-4.49,11.58-8.2,23.44C118.52,391.06,104,429.34,117.54,433.68Zm1.34-31.91c1.91-7.89,4.25-15.63,6.74-23.35a1.13,1.13,0,0,1,2.17.6c-2.72,13.15-5.58,26.12-7.85,39.32-.23,1.3-2.15,1.13-2.48,0C115.87,412.83,117.55,407.21,118.88,401.77Z"/><path class="cls-1" d="M162.79,633.1c-21.59,8.62-36.63,27.13-48.76,46.49-6.53,10.42-12.59,21.15-18.81,31.76-6,10.24-13.56,20.77-16,32.54-2.28,10.93,2.77,4.22,7.19,0,4.74-4.51,9.37-9.12,14.2-13.55,9.09-8.32,18.54-16.25,28.24-23.85,19.62-15.37,43-32.47,43.89-59.81a5.45,5.45,0,0,1,.14-1c-.8-.77-1.61-1.55-2.37-2.36A49.33,49.33,0,0,1,162.79,633.1Zm-41,61c8.12-13.88,24.49-20.58,32.35-34.87.67-1.22,2.83-.35,2.28,1-6.29,15-21,24.82-32.68,35.42A1.25,1.25,0,0,1,121.74,694.08ZM150,682.33c-12.2,11.77-25.25,24.9-39.36,34.31-1.79,1.19-3.37-1.35-2.15-2.79,9.46-11.11,21.87-20.24,32.75-30s21.79-20.51,21.93-36c0-2,2.94-2,3.09,0C167.31,662,159.73,672.94,150,682.33Z"/><path class="cls-1" d="M892.14,743.32c4.34,4.16,9.58,11.41,7.19,0-2.56-12.25-10.61-23.29-16.84-33.93-5.94-10.16-11.74-20.42-18-30.38-12.16-19.36-27.16-37.87-48.76-46.48a49.65,49.65,0,0,1-7.7,10.2c-.76.81-1.57,1.59-2.37,2.37a5.23,5.23,0,0,1,.14,1c.9,27.34,24.27,44.43,43.88,59.8,10.15,8,20,16.26,29.49,25C883.58,735,887.82,739.18,892.14,743.32Zm-67.81-85.78c7.86,14.29,24.23,21,32.35,34.87a1.25,1.25,0,0,1-2,1.51c-11.69-10.6-26.38-20.45-32.67-35.42C821.49,657.17,823.67,656.34,824.33,657.54ZM867.78,715c-14.11-9.4-27.16-22.54-39.36-34.3-9.73-9.39-17.31-20.34-16.26-34.4a1.55,1.55,0,0,1,3.09,0c.14,15.46,11.14,26.34,21.93,36s23.29,18.83,32.75,29.95C871.16,713.63,869.55,716.15,867.78,715Z"/><path class="cls-1" d="M760.12,746.45c-16.85,14.8-27.14,34-37.12,53.83a216.23,216.23,0,0,0-14,33.48,132.87,132.87,0,0,0-3.91,15.73c-.61,3.46-1.39,4.28,2.11,3.17,2-.64,4.08-2.87,5.81-4.18,17.82-13.6,33.68-30.17,45-49.63,9.19-15.83,17.49-36.43,16.93-55.68A57.54,57.54,0,0,1,760.12,746.45Zm-45.34,80.49c1.26-5.64,6.75-9.44,10.86-13.1,5.64-5,10.61-10.15,14.3-16.81,1.1-2,4-.23,3,1.77a60,60,0,0,1-11.8,16.51c-4.51,4.34-8.95,9.87-14,13.43C715.91,829.59,714.5,828.19,714.78,826.94Zm53.77-70.34c-3.33,15.75-8.28,30.28-16.23,44.32-7.09,12.52-16.8,26.41-29,34.33-2.33,1.52-4.15-1.69-2.72-3.52,9.22-11.85,19.72-21.94,27.7-34.86a151.93,151.93,0,0,0,17.69-41C766.41,754.22,768.9,754.93,768.55,756.6Z"/><path class="cls-1" d="M660.8,727.44a5.12,5.12,0,0,1,.8.19,207.2,207.2,0,0,0,64.48,10.7c10.44.12,20.88-.36,31.28-1.2,4.11-.33,12.27.34,15.07-3.08,3.14-3.83-3.63-7-6.68-9.15-17-11.81-36-20.42-54.47-29.62s-37.18-17.91-57.59-21.73c-.11,5.26-.89,10.51-4,13.65-1.93,2-4,2.27-6.59,2.4s-3.25-.86-6.23-.11c-4.75,1.19-5.16,4.16-6.41,8.63-.52,1.87-.93,3.77-1.32,5.67a4.54,4.54,0,0,1,.77.43Q645.79,715.28,660.8,727.44ZM656.37,679c15.19-2.86,32.49,10,44.7,17.42a.93.93,0,0,1-.94,1.6,213.94,213.94,0,0,0-24.06-10.64c-6.58-2.32-13.68-3.1-20-6A1.34,1.34,0,0,1,656.37,679Zm-15.75,14.19c9.8,1.92,19.68,8.6,28.93,12.44,9.79,4.08,19.49,8.19,29.61,11.4a1.35,1.35,0,0,1-.72,2.6c-11.25-3-22.53-5.93-33.32-10.35-8.57-3.51-19.38-6.83-26.11-13.34A1.66,1.66,0,0,1,640.62,693.16Zm-.9,9.47c10,2.65,19.36,8.43,29.14,12a230.16,230.16,0,0,0,27.3,8.17c20.43,4.7,41.33,6.16,62.24,5.74,2.66-.06,2.57,3.85,0,4.07a210.39,210.39,0,0,1-63.62-4.77A219.94,219.94,0,0,1,663,718.22c-8.49-3.33-18-6.61-25-12.6C636.57,704.41,638.08,702.19,639.72,702.63Z"/><path class="cls-1" d="M806.56,623.88c-3.79-3.91-13.59-3.64-18.43-4.09q-7.71-.7-15.45-1a399.27,399.27,0,0,0-61,2.37c-19.11,8.61-40.15,13.57-59.41,15.54.14,8.45,1.35,17.19,1.19,25.35,0,.76,0,1.58,0,2.43l.16,0a150.16,150.16,0,0,1,26.89,7.29h.13c8,1.64,18.57-.79,26.61-1.57a277.87,277.87,0,0,0,31-4.68c18.92-4,37.78-10.51,53.93-21.39C796.68,641.12,812.07,629.56,806.56,623.88Zm-71.26-1.82c15.14.47,30.62.5,45.44,3.91,1.72.39,1.28,3-.4,3-15.05.06-30.08-2.6-45-4.07C733.51,624.72,733.44,622,735.3,622.06ZM655,646.73c10.73-1.76,22.47.38,33.37.29q18.12-.13,36.21-1.13c2-.11,2.46,3.18.48,3.51a244,244,0,0,1-35,3.51c-11.11.25-24.47,1.47-35.1-2.08C653.17,650.22,652.75,647.1,655,646.73Zm131.26-9.15c-33.87,13.6-73.82,32.18-111.27,25.6-2.75-.48-2-4.87.65-4.79,19.75.6,38.19-1.14,57.24-6.65,17.69-5.12,35-11.71,52.45-17.54C787.48,633.47,788.27,636.76,786.23,637.58Z"/><path class="cls-1" d="M310.87,613.34a10.9,10.9,0,0,1-5.63-5c-2.11-4-1.87-9-1-13.74-12.54-3.13-27.25-14.9-34.92-25.07a63.72,63.72,0,0,1-10.07-21l0,0c-12.1-10.32-41.23-14.16-41.19,8.39,0,15.31,12.42,29.3,23.59,38.4a138.05,138.05,0,0,0,28.72,17.84l.81.08a4.62,4.62,0,0,1,3.09,1.66A176,176,0,0,0,326,628.22a25.51,25.51,0,0,0-.73-4.45C323,615.54,317.29,616.09,310.87,613.34Zm-41.81-23.58a92,92,0,0,0,17.23,9.13c4.7,1.77,10.35,2.23,14.15,5.66a1.61,1.61,0,0,1-.7,2.67c-5.06,1.34-10.68-2-15.27-4-6.14-2.75-11.58-6.75-17-10.64C265.76,591.37,267.28,588.63,269.06,589.76Zm44.87,32.73c-14.9,1.58-31.84-9.06-44-16.64-13.79-8.64-27.92-17.72-39.29-29.45-1.52-1.56.74-3.74,2.35-2.35,11.64,10,25.08,18.58,38.14,26.65a148.31,148.31,0,0,0,22.76,11.89c6.68,2.66,13.88,3.69,20.47,6.42A1.78,1.78,0,0,1,313.93,622.49Z"/><path class="cls-1" d="M306,294.94c7.42-10.41,11.19-22.84,13.21-35.66,2.6-16.61,5.3-36.2,2.19-52.83a44.44,44.44,0,0,0-1.11-4.83,7.4,7.4,0,0,0-5.9,4.8c-2.16,3.43-3.14,7.84-4.5,11.63A174,174,0,0,1,302.35,236a160.94,160.94,0,0,1-21.92,33.07C291.74,275.54,302.08,284.08,306,294.94Zm4.53-42.1c2.14-10,2.3-19.94,3-30.05a1,1,0,0,1,2,0c1.9,17.36.23,42.49-8.64,58-1.09,1.9-3.61.51-3.3-1.39C305,270.41,308.6,261.74,310.51,252.84Z"/><path class="cls-1" d="M105.65,793c-2.79-4.82-5.5-9.65-8-14.64-3.56-7.16-8.31-14.83-11.24-22.6-4,3-8.44,5.21-12.05,3.72-1.91,11.08,4.12,23.07,11.72,30.78a111.45,111.45,0,0,0,15.41,12.49,75.28,75.28,0,0,0,6.71,4.26,40.94,40.94,0,0,0,6.08,2.92l-.88-.54C114.38,805.41,107.64,796.42,105.65,793Zm-10.71-1.67C85.4,788.7,80.67,775.07,79,766.53a1.6,1.6,0,0,1,3.08-.85,48.53,48.53,0,0,0,6.36,12.94c2.45,3.63,6.29,6.53,8.17,10.48A1.53,1.53,0,0,1,94.94,791.32Z"/><path class="cls-1" d="M266.93,540.36c2.09,10.78,6.17,21.09,14.06,28.92,5.57,5.52,14.45,12.59,22.58,15.67a5.21,5.21,0,0,1,3.09-.57c1.59-6.34,3.59-13.78.36-19.88-1.86-3.51-5.53-5.74-7.06-9.47-2.92-7.16,2.55-13.19,7-18.27l.55-.59c-7.08-7.09-14.18-15.86-24.16-18.08C268.29,514.73,264.63,528.47,266.93,540.36Zm21.1,8.73a127.49,127.49,0,0,0,8.74,12.61c2.93,3.69,6.8,6.7,9.31,10.7.93,1.47-.83,2.73-2.16,2.16C295,570.7,288.63,558.81,285.79,550,285.35,548.67,287.33,547.94,288,549.09ZM272.3,527.37a1.92,1.92,0,0,1,3.83,0A60.73,60.73,0,0,0,284,557.3c5,8.82,12.27,14.48,19.34,21.44,1,1,0,3.08-1.45,2.49C282,573.08,271.88,547.42,272.3,527.37Z"/><path class="cls-1" d="M126.75,435.69c-1.67,5,.3,14.06,1.09,19.19a113,113,0,0,0,4.48,18.4A107.45,107.45,0,0,0,149.94,506c14.13,17.84,38.19,37.6,62.24,35.89a4.15,4.15,0,0,1,.71,0c.35-.55.72-1.09,1.12-1.61a5,5,0,0,1-.41-1.6c-.95-13.53-5.85-25.91-12.36-37.7-5.58-10.11-11.77-21-19.22-29.86-7.13-8.47-16.86-14.52-24.48-22.62C153,443.69,130.64,423.92,126.75,435.69Zm34.75,54.7c6.9,6.56,14.1,12.75,21.5,18.74,7.13,5.75,16.21,10.75,22.15,17.73,1.14,1.34.09,3.9-1.88,3.22-8.09-2.78-15.29-9.5-21.82-14.94a233.43,233.43,0,0,1-22.6-22.1A1.87,1.87,0,0,1,161.5,490.39Zm-28.92-45.73c8.36,17.6,10.67,37.82,22.58,53.64,6,8,13.55,14.59,21.59,20.44,6.93,5,15.35,8.89,21.38,15,1.31,1.33,0,3.9-1.89,3.25-8.82-3-17.06-9.82-24.36-15.48-7.54-5.86-14.65-12.3-20.4-19.95-12.48-16.59-14.2-37-21.34-55.85C129.6,444.27,131.94,443.32,132.58,444.66Z"/><path class="cls-1" d="M692.14,786.28a55.66,55.66,0,0,1-8.85-.94c-3.21-.53-6.38-1.22-9.52-2a4.49,4.49,0,0,1-1.13.13c-21.33,0-40.23,11.8-58.22,21.95-8.6,4.86-17.55,9.7-24.46,16.89A45.78,45.78,0,0,0,580.39,837c-2.09,5.27-3.07,7.37,2.81,5.38,20.78-7,40.85-17.64,60.8-26.75a241.82,241.82,0,0,0,27-13.92C676,798.62,686.17,792.85,692.14,786.28ZM632.83,801c8.64-8.35,24.71-18.11,37.15-15.94,2,.35,1.61,3.14,0,3.72-11.85,4.25-25.26,6.6-35.91,13.82C633.09,803.21,632,801.74,632.83,801Zm3.58,11.93c-12.77,5.52-25.33,11.75-38.32,16.73-2,.77-3.3-2.47-1.45-3.43,13.22-6.88,27.16-12.54,40.65-18.87,12.24-5.73,25.16-13.42,38.43-16.38a1.57,1.57,0,0,1,1.2,2.86C665.17,802.29,649.68,807.14,636.41,812.88Z"/><path class="cls-1" d="M231,507.77c6.85,9.06,14.57,18.78,26.43,20.29,1.21-8.87,6.53-15.63,14.22-18.27a5,5,0,0,1,0-.79,170.91,170.91,0,0,0-10.1-65.63c-3.69-10.08-8.21-20.74-14.63-29.42a26.88,26.88,0,0,0-8.16-7.78l-.21-.12a14,14,0,0,0-4.56-1.54c-7.48-1.09-12.77,5.06-15.55,11.12-4.62,10.05-4.86,22.94-5.28,33.87-.41,10.53.14,21.2,3,31.39S224.7,499.45,231,507.77Zm31.85-3a1.44,1.44,0,0,1-2.38,1.38c-2.47-2.22-3.92-5.42-5.52-8.29-1.77-3.19-3.49-6.42-5.23-9.63-1.14-2.1,2-3.94,3.21-1.88,1.87,3.14,3.76,6.26,5.6,9.42C260.17,498.56,262.21,501.46,262.85,504.72ZM237,414.46c8.5,10.17,16.08,23.28,17.8,36.63.11.85-1.24,1.17-1.6.44-6-12.06-10.88-24.13-18.1-35.61C234.41,414.77,236.15,413.4,237,414.46Zm-8.11,41.69a105.42,105.42,0,0,0,11.13,28.28c4.69,8.08,12.4,14.43,16.51,22.64a1.39,1.39,0,0,1-1.89,1.89c-8.23-3.85-14.41-14.5-18.63-22.19A92.3,92.3,0,0,1,226,457C225.63,455.05,228.45,454.18,228.93,456.15Zm-11.52-15.39c.21-1.84,3.06-1.92,3,0a97.4,97.4,0,0,0,8.11,44.31c6.15,14,16.1,23,25.69,34.4a1.84,1.84,0,0,1-2.21,2.87c-12.94-7-22.6-23-28.19-36.1C217.51,471.62,215.66,456.51,217.41,440.76Z"/><path class="cls-1" d="M501.29,446.08c-1.81,2.64-1.65,6.49-1.21,10.37,2.48-1.9,5.18-4,6.28-6.72C508.14,445.36,504.36,441.58,501.29,446.08Z"/><path class="cls-1" d="M272.78,670.91c7.58.71,17.51,3,25.06,1.43l.14,0A150,150,0,0,1,324.85,665H325c0-.86,0-1.69,0-2.43q-.16-9.24.27-18.49c.11-2.23.33-4.56.52-6.91-19.16-2-40-6.94-59-15.5a397.9,397.9,0,0,0-62.69-2.28q-7.73.38-15.44,1.13c-3.76.37-15,.33-17.67,4.46-3.83,6,11.35,17.06,15.25,19.69,16.58,11.17,36,17.69,55.45,21.72A282.65,282.65,0,0,0,272.78,670.91Zm-18.91-23.35q18.09,1,36.21,1.13c10.88.09,22.65-2,33.37-.29,2.22.37,1.8,3.5,0,4.1-10.6,3.54-24,2.35-35.1,2.09a248.4,248.4,0,0,1-35-3.51C251.38,650.74,251.88,647.45,253.87,647.56Zm-56.19-19.92c14.82-3.41,30.3-3.44,45.44-3.91,1.86-.06,1.79,2.66,0,2.84-15,1.47-30,4.13-45,4.07A1.53,1.53,0,0,1,197.68,627.64Zm-4.56,8.23c17.47,5.83,34.75,12.42,52.45,17.54,19.06,5.51,37.49,7.25,57.24,6.65,2.72-.08,3.37,4.32.65,4.8-37.45,6.57-77.39-12-111.27-25.61C190.14,638.43,190.94,635.14,193.12,635.87Z"/><path class="cls-1" d="M671.23,535.33c4.33,4.46,8.23,9.71,8.31,14.7.05,3.72-2.07,6.26-4.13,9.05-4.92,6.67-6.34,11.76-4.7,20,.29,1.47.7,3,1.15,4.7a5.18,5.18,0,0,1,3.1.57c8.49-3.22,17.88-10.77,23.55-16.68,7.31-7.62,11.1-17.67,13.08-27.92,2.45-12.63-2.22-26.2-17.67-22C684.67,520.33,677.93,528.57,671.23,535.33Zm1.11,35.39c2.5-4,6.38-7,9.31-10.69a125.82,125.82,0,0,0,8.74-12.61,1.23,1.23,0,0,1,2.24,1c-2.84,8.76-9.21,20.66-18.13,24.52C673.17,573.46,671.41,572.2,672.34,570.72Zm29.95-45c0-2.46,3.77-2.45,3.83,0,.42,20.06-9.66,45.71-29.54,53.87-1.43.58-2.44-1.52-1.45-2.5,7.1-7,14.29-12.57,19.34-21.43A60.84,60.84,0,0,0,702.29,525.69Z"/><path class="cls-1" d="M651.62,765a108,108,0,0,0,19.27,8.15c5.31,1.66,15.5,5.68,21,4.12,11.09-3.12-6.15-15.91-9.89-19.43q-8.21-7.73-16.76-15.08c-12.08-10.38-24.69-20.09-37.71-29.26-.43,3-.86,6-1.38,8.92a1.79,1.79,0,0,1,2.05-.22c4.9,2.58,8.87,7.41,13.27,10.85a124.85,124.85,0,0,0,17,11c1,.57.32,2.33-.81,1.93a89.8,89.8,0,0,1-18-8.9c-4.9-3.13-11.17-7.16-14-12.37-.35,1.8-.76,3.59-1.23,5.35,4.23,2.75,7.8,6.65,11.77,9.73a170,170,0,0,0,15.77,10.7c10.75,6.54,22,12.12,33.29,17.58,2.26,1.09.28,4.25-1.93,3.3C671,766,658.27,760.8,646.56,753.94c-7.47-4.38-18.08-10.4-24-18a26.64,26.64,0,0,1-2,3.87A110.7,110.7,0,0,0,651.62,765Z"/><path class="cls-1" d="M904.15,758.91c-3.59,1.5-8-.74-12-3.74-2.94,7.77-7.69,15.45-11.24,22.59-2.71,5.44-5.72,10.67-8.74,15.94-1.47,2.57-8.33,12.53-7,15.09q-2.46,1.44,1.47-.53a33.78,33.78,0,0,0,5.11-2.63,75.45,75.45,0,0,0,6.62-4.42,110.82,110.82,0,0,0,14.12-11.55C900,782,906.05,770,904.15,758.91Zm-4.76,6A41.26,41.26,0,0,1,893.75,780c-2.5,3.83-5.66,8.34-10.27,9.61a1.53,1.53,0,0,1-1.71-2.22c1.89-4,5.73-6.84,8.18-10.48A48.53,48.53,0,0,0,896.31,764,1.6,1.6,0,0,1,899.39,764.86Z"/><path class="cls-2" d="M553.2,419.69a23.77,23.77,0,0,0-3,2.35,13.16,13.16,0,0,1,10.27,6.16,14.12,14.12,0,0,1-3.22,18.57c-5.27,4.24-12.6,3.67-16.74-1.87a11.48,11.48,0,0,1-1.11-1.82c-.74,2.43-1.45,4.85-2.23,7.16-.31.93-.63,1.83-1,2.74,9.26,2.65,19.76,1.13,27.12-5.46a21.6,21.6,0,0,0,7.25-16.81C570.23,421.75,561.86,413.92,553.2,419.69Z"/><path class="cls-2" d="M439.08,443.65a12.38,12.38,0,0,1-4.82,5.15c-5.71,3.28-12.47.51-16-4.62a14.16,14.16,0,0,1,1.43-17.66,12.07,12.07,0,0,1,8.58-3.88,23.94,23.94,0,0,0-3-2.36c-8.63-5.75-17,2-17.43,11a21.63,21.63,0,0,0,7.25,16.81c7.36,6.59,17.87,8.1,27.12,5.46-.33-.91-.65-1.82-1-2.74C440.53,448.51,439.81,446.09,439.08,443.65Z"/><path class="cls-3" d="M657,138.67a438.33,438.33,0,0,1,25.91,40.85c13.6,24.31,29.32,52.37,31.36,80.84,6.31-2.47,12.45-4.48,17.75-6.12,15-4.67,33.36-9.88,49.25-7.77a33.73,33.73,0,0,1,4.3.86c-9.72-57.1-52.71-104.11-109.45-118.09a141.36,141.36,0,0,0-23.22-3.76q-2.91-.23-5.82-.33,2.06,2.89,4.21,5.7C653.16,133.45,655.09,136,657,138.67Zm79.18,104.08c-.37,1.09-2,1.86-2.88.76-1.68-2.18-1.83-4.72-2.26-7.39a62.12,62.12,0,0,1-1.07-8.46,1.52,1.52,0,0,1,2.81-.77,39.54,39.54,0,0,1,2.7,8C736.07,237.44,737,240.19,736.14,242.75Zm10.47,1.11c-.11,2.27-2.92,2.41-3.72.5-2-4.77-2.65-10.11-4.24-15.06a145.08,145.08,0,0,0-6.33-16.21,1.39,1.39,0,0,1,2.39-1.4C740.66,220.51,747.18,232.91,746.61,243.86Zm9.52-3.51c-5.66-8-7.92-18.69-12.62-27.4a162.41,162.41,0,0,0-18.28-27.23c-1.21-1.45.79-3.54,2.11-2.11a150,150,0,0,1,20.39,26.87c4.78,8.27,11.49,19.2,11.64,29C759.39,241.31,757.07,241.67,756.13,240.35ZM682,136.81a205.57,205.57,0,0,1,58.6,44.51,190.71,190.71,0,0,1,22,28.53c4.87,7.9,12.27,19.53,10.12,29.13-.42,1.87-2.83,1.85-3.78.5-3.29-4.68-4-10.79-6.35-16a100.9,100.9,0,0,0-7.83-14.13,230.43,230.43,0,0,0-74-70.45A1.19,1.19,0,0,1,682,136.81Z"/><path class="cls-3" d="M792.57,260a5.05,5.05,0,0,1-5.33-2.58,38.27,38.27,0,0,0-16.14-2.19c-17.52,1.13-35.57,6.52-51.8,13-15.38,6.13-37.95,15.6-39.22,34.92v.16a4,4,0,0,1,.13,3.54c1.06,8.16,7,15.43,11.47,22q7.74,11.47,15.72,22.8,15.78,22.36,32.54,44c9.69-2.95,19.42,1.68,25.24,9.89,4.63,6.54,6.59,14.72,7.64,23,26.61-20.22,36.28-54.48,41.21-86.31C817.86,317.5,816.32,274.42,792.57,260Zm-50.4,129c-5-8.31-9-16.56-15-24.29-5.3-6.86-10.86-13.51-16-20.5-9.63-13.08-20.74-27.55-20.65-44.5a1.21,1.21,0,0,1,2.42,0c1.55,18.18,18.1,36.34,29,50.15,8.73,11.05,21.28,23.29,24,37.53C746.43,389.62,743.43,391.05,742.17,389Zm17.71-4.47a1.8,1.8,0,0,1-3.27-1.38c1.1-7.55,5-15.19,8-22.24,3.42-8.22,6.37-16.39,9-24.9a1.3,1.3,0,0,1,2.51.69C771.69,351.74,769.08,371.53,759.88,384.48Zm8.38,7.76c-1.56,1.6-4.52,0-3.82-2.22,2.3-7.13,6.7-13.5,9.69-20.39a171.4,171.4,0,0,0,8-22.91,176.85,176.85,0,0,0,6.11-49c0-1.7,2.43-1.62,2.59,0a150.44,150.44,0,0,1-3.27,50.49C784.19,362.48,778.69,381.48,768.26,392.24Zm36.5-46.53a137.27,137.27,0,0,1-9.62,33.93c-4,9.26-8.86,21.69-17.28,27.71-1.58,1.13-3.76-.75-3.22-2.48,2.8-9,9.92-17.07,13.86-25.81A147.72,147.72,0,0,0,798.62,347c4.45-22.76,1.73-44.59-2.74-67.08-.28-1.4,1.83-2.52,2.47-1C807.38,299.53,808.07,323.67,804.76,345.71Z"/><path class="cls-3" d="M258.64,259c1.81.69,3.7,1.44,5.64,2.25,2-28.56,17.74-56.75,31.38-81.13a437.72,437.72,0,0,1,25.91-40.86c2.19-3.06,4.44-6.08,6.68-9.1,3.79-5.12,3.45-4.54-2.58-4.09a141.36,141.36,0,0,0-23.22,3.76c-56.26,13.86-101.74,61.28-110.08,118.87C213.37,242.83,239.21,251.61,258.64,259Zm-23.11-13a1.9,1.9,0,0,1-3.72-.5c-.57-10.95,6-23.36,11.89-32.17a1.39,1.39,0,0,1,2.4,1.4A145.08,145.08,0,0,0,239.77,231C238.18,235.91,237.52,241.28,235.53,246Zm11.89-8.24c-.43,2.67-.58,5.21-2.26,7.39-.86,1.1-2.51.33-2.88-.76-.86-2.56.07-5.31.7-7.85a40.36,40.36,0,0,1,2.69-8,1.53,1.53,0,0,1,2.82.77A63.73,63.73,0,0,1,247.42,237.79Zm5.76-50.4a162.56,162.56,0,0,0-18.27,27.23c-4.7,8.72-6.95,19.41-12.62,27.4-.94,1.33-3.26,1-3.24-.88.15-9.73,6.88-20.78,11.64-29a150.85,150.85,0,0,1,20.39-26.87C252.4,183.85,254.4,185.94,253.18,187.39Zm-47.55,53.26c-2.14-9.53,5.28-21.31,10.12-29.12a192.64,192.64,0,0,1,22-28.54,205,205,0,0,1,58.59-44.51c1.37-.7,2.55,1.29,1.21,2.06a218.35,218.35,0,0,0-52.8,43.22,215.6,215.6,0,0,0-22,28.46,98.16,98.16,0,0,0-7,12.9c-2.32,5.27-3,11.32-6.35,16C208.46,242.51,206.05,242.53,205.63,240.65Z"/><path class="cls-3" d="M298.45,303.74c-1.27-19.33-23.84-28.79-39.22-34.93-16.23-6.47-34.28-11.87-51.8-13-44.18-2.85-47.69,56.26-42.93,87,4.93,31.82,14.6,66.09,41.21,86.31,1-8.24,3-16.42,7.64-22.95,5.81-8.21,15.57-12.83,25.24-9.89q16.72-21.68,32.54-44,8-11.31,15.72-22.8c4.43-6.58,10.41-13.86,11.47-22a3.92,3.92,0,0,1,.13-3.54ZM200.56,409c-8.39-6-13.33-18.49-17.29-27.71a138.11,138.11,0,0,1-9.61-33.93c-3.32-22-2.62-46.18,6.41-66.85.65-1.49,2.74-.35,2.47,1.05-4.46,22.46-7.23,44.33-2.74,67.07a147.72,147.72,0,0,0,10.12,32.08c4,8.74,11.06,16.78,13.86,25.81C204.32,408.28,202.13,410.14,200.56,409Zm9.6-15.11c-10.45-10.78-15.93-29.72-19.35-44a150.42,150.42,0,0,1-3.28-50.48c.17-1.64,2.62-1.71,2.6,0a176.78,176.78,0,0,0,6.11,49,172.53,172.53,0,0,0,8,22.92c3,6.88,7.39,13.25,9.69,20.38C214.68,393.88,211.72,395.51,210.16,393.91Zm8.38-7.76c-9.2-12.94-11.81-32.74-16.17-47.83a1.3,1.3,0,0,1,2.51-.69c2.6,8.51,5.55,16.68,9,24.91,2.92,7,6.86,14.68,8,22.23A1.8,1.8,0,0,1,218.54,386.15Zm48.72-40.32c-5.66,7.68-11.86,14.93-17.6,22.54-5.32,7.08-8.91,14.73-13.42,22.25-1.27,2.12-4.25.65-3.81-1.61,2.78-14.25,15.3-26.47,24.05-37.53,10.89-13.77,27.46-32,29-50.15a1.21,1.21,0,0,1,2.42,0C288,318.28,276.89,332.75,267.26,345.83Z"/><path class="cls-3" d="M616.25,512.27c-41-15-84.17-25.44-126.12-37.68a6.68,6.68,0,0,1-.76.31L413,497.23c-21.33,6.24-43.31,11.67-63.64,20.82-9.79,4.41-19.33,9.75-27.54,16.71a83.09,83.09,0,0,0-9.4,9.36c-6.51,7.62-1.11,9.65,2.32,15.84,4.28,7.74,2.9,17,1,25.16-1.08,4.62-4.83,12.61-2.92,17.13s9.11,3.94,12.81,6.56c14.31,10.12,8.41,32.46,8.33,47.06,0,6.49-.43,13.71.6,20.16s1.81,3.52,7.14,3.85c5.86.36,10.43,4.71,12.86,9.76,4.18,8.7,4.62,20.12,6.35,29.5.85,4.63,1.26,10.32,3.53,14.59,4.07,7.64,8.13,4.08,13.4,1.56,15.34-7.32,24,10.13,30.33,21.42,2.94,5.26,5.18,14.06,11.29,16.35,4.22,1.58,9.19,1.75,13.54,3.27a77.92,77.92,0,0,1,20.68,11,65.78,65.78,0,0,1,10.79,9.83c2.79,3.26,4.49,6.88,9.06,8,4.05,1,9.54.42,13.73.54,5.16.15,11.66.73,16.72-.48s6.75-5.18,10.14-8.89a74.55,74.55,0,0,1,9.32-8.53,77.67,77.67,0,0,1,22.81-12.27c5.58-1.88,13.66-1.7,17.72-6.55,3-3.54,4.79-10.13,7.12-14.21,3.68-6.41,7.95-14.64,14-19.21,5.48-4.14,10.74-3.1,16.52-.28,1.64.8,4,2.92,5.82,2.93,2.42,0,5.55-3.18,6.61-5,2.31-4.06,2.71-10.12,3.53-14.59,2.17-11.82,2.46-39.76,20.35-39.2,2.59.08,3.75,1.52,5.76-.57.5-.52.43-6.57.44-6.71.3-5.59.44-11.2.4-16.8-.06-9.89-1.85-20.22-.69-30,.81-6.92,3.84-13.86,10-17.62,2.79-1.71,6.59-1.3,9.13-2.82,5.41-3.24,1.71-12.54.56-17.23-2-8.06-4-16.5-1.32-24.68,1.18-3.52,3.56-5.36,5.22-8.41,3.4-6.22-.32-10.1-5-14.87C649.81,526.61,633.09,518.44,616.25,512.27ZM327.11,569.84l-.07-.37a.67.67,0,0,1,.45-.8c1.56-.49,1.95-4.92,1.9-6.2a14,14,0,0,0-1.63-5.72c-1.56-3.12-3.88-5.83-5.6-8.88-.74-1.31.82-3.14,2.18-2.18,4.73,3.32,8.88,8.21,9.42,14.21.33,3.66-1,10.37-5.64,10.7A1.05,1.05,0,0,1,327.11,569.84Zm19,99.71c-2.28-1.72-2.57-4.16-2.77-6.89-.31-4.15-.42-8.32-.52-12.47,0-1.52,2.48-1.91,2.69-.37q1.24,9.12,2.64,18.16C348.34,669,347.24,670.36,346.14,669.55Zm.74-26.54c-.55,2.31-3.59,1.5-3.82-.52-1.9-16.56,2.05-34.86-13.58-46.31-1.66-1.22-.17-3.95,1.65-2.82C347.4,603.48,351.1,625.39,346.88,643ZM632,562.22c-23.67-17.21-46.28-34.37-73.07-46.66-1.46-.67-.39-3.19,1.1-2.6,26.77,10.7,54.11,25.4,73.72,47C634.77,561.11,633.36,563.22,632,562.22Zm-60.35,46c3.37-8.41,6.87-16.48,8.54-25.44.4-2.1,3.43-1.16,3.15.87-1.26,9.08-3.8,18.14-9.41,25.53C573.13,610.19,571.06,609.65,571.63,608.22Zm-2.41-11.75c-.29-3.06.32-6.2.67-9.24a1.87,1.87,0,1,1,3.68.5c-.41,3-.59,6.22-1.62,9.11A1.4,1.4,0,0,1,569.22,596.47Zm6.89,18.13c2.19-7.18,5.71-13.63,7.32-21,.64-2.91,5-1.66,4.44,1.22-1.52,7.39-3.8,15.73-9.09,21.37A1.61,1.61,0,0,1,576.11,614.6ZM511.63,487.76a350.75,350.75,0,0,1,63,20.55c19.92,8.75,40.63,18.86,57.31,33,1.44,1.23-.41,3.31-1.94,2.51-19-10-36.78-21.81-56.28-30.91a421.86,421.86,0,0,0-62.6-23.4A.93.93,0,0,1,511.63,487.76ZM500.37,742.38a83.71,83.71,0,0,1-6.68-9.1c-1.46-2.32,2.23-4.47,3.67-2.15a81.39,81.39,0,0,1,5.08,9.65C503,742,501.41,743.61,500.37,742.38ZM455,581.48a104.66,104.66,0,0,1-3.48,11.39c-.61,1.62-3.53,1.55-3.27-.44a111.5,111.5,0,0,1,2.35-12.16C451.28,577.42,455.71,578.64,455,581.48Zm3.18-6.39c.43-2.81,4.69-1.61,4.26,1.18-1.28,8.37-3,16.76-6.43,24.53-.84,1.86-3.49.46-3.12-1.31C454.61,591.33,456.89,583.36,458.16,575.09Zm-9.79,129.8c-.66-2.26,2.73-3.13,3.49-1,4,11.58,8.79,22.91,13.58,34.2,1,2.45-2.44,4.65-3.67,2.15A218.62,218.62,0,0,1,448.37,704.89Zm-.55,57.54c-10.06-19.14-18.15-41.91-37.71-53.27a1.62,1.62,0,0,1,1.24-2.95c22.68,7.1,31,35,39.57,54.41C451.83,762.68,448.92,764.5,447.82,762.43Zm11.91-47.07c-.71-1.8,2.27-3,3.11-1.31,5.05,10.37,12.27,22,14.17,33.45.18,1.06-1.22,2.31-2.08,1.21C467.64,739.36,464,726.33,459.73,715.36Zm16.47,18.73c-2.16-3.71-4.51-7.34-7-10.87-1.15-1.66,1.49-3.67,2.78-2.15a89.57,89.57,0,0,1,8,10.8c2.18,3.51,4.58,7.1,5.06,11.27.16,1.4-1.82,2-2.69,1.11C479.61,741.4,478.17,737.49,476.2,734.09Zm6.8-3.23c-1.8-2.11,1.23-5.2,3.08-3.07a68.18,68.18,0,0,1,5.09,6.51,23.52,23.52,0,0,1,2.27,3.92c.48,1.13.58,2.3.95,3.47s-1.25,2.14-2,1.18-1.7-1.64-2.45-2.6-1.39-2-2.08-3C486.31,735.08,484.74,732.92,483,730.86Zm16.15-90.55c-1.17,5.58-2.26,11.17-3.85,16.65-.48,1.63-3.3,1.37-3.07-.42.73-5.82,2-11.53,3.13-17.27C495.86,636.79,499.67,637.84,499.15,640.31ZM492,608.11c.38-2.35,3.9-1.33,3.56,1-3.38,23-6.47,47-13.75,69.19a1.46,1.46,0,0,1-2.81-.78C482.38,654.25,488.35,631.35,492,608.11Zm-2.35-14.52c-2.27,20.65-5.7,42.32-14.33,61.36-.74,1.64-3.11.42-2.76-1.16,4.52-20.16,10.31-39.58,12.81-60.2C485.71,590.9,490,590.85,489.67,593.59Zm-3.79-21.86c-3.71,23.64-8.88,47.35-17.89,69.58-.71,1.75-3.42,1.13-2.91-.8,6.17-23.25,12.39-46.28,16.07-70.09C481.63,567.31,486.37,568.63,485.88,571.73Zm-7.14-33.59c-2.6,33.43-7.93,67.52-19.25,99.18a1.56,1.56,0,0,1-3-.83c8.45-32.56,15.91-64.75,18.82-98.35C475.49,536,478.91,535.92,478.74,538.14Zm-126.93,3.21c16.67-14.18,37.39-24.29,57.31-33a350.49,350.49,0,0,1,63-20.55.93.93,0,0,1,.49,1.79A422.27,422.27,0,0,0,410,513c-19.49,9.1-37.31,20.89-56.28,30.91C352.2,544.67,350.37,542.57,351.81,541.35ZM350,560c19.6-21.6,47-36.3,73.72-47,1.5-.6,2.54,1.94,1.09,2.6-26.79,12.29-49.4,29.45-73.07,46.66C350.38,563.23,349,561.1,350,560Zm45.07,94a1.46,1.46,0,0,1-2.92,0,31,31,0,0,0-3.82-13.9c-2.33-4.07-5.78-6.69-8.76-10.18-.76-.88-.06-2.47,1.21-2.08C390.86,630.88,395.94,644.37,395.1,653.94Zm-3.28-27.71a12.68,12.68,0,0,1,6.41,8.37c.75,2.68-3.28,3.75-4.12,1.14a20.76,20.76,0,0,0-4.29-6.92A1.66,1.66,0,0,1,391.82,626.23Zm-.13,45.32c.14,1.65-2.67,2-2.89.39a114.41,114.41,0,0,0-4.88-19.62c-1.15-3.55-2.27-6.53-5-9.23-2.2-2.16-4.74-3.52-6.79-5.79a1.42,1.42,0,0,1,1.36-2.35C388.11,638.86,390.66,658.89,391.69,671.55Zm-3.52,15.32c.08,2.19-3.1,2.08-3.34,0A74.38,74.38,0,0,0,378,662.7c-3-6.27-7.58-11.54-10.66-17.72-.61-1.24.73-3,2.07-2.06C382.61,651.9,387.6,671.87,388.17,686.87ZM377.91,563.18c-3.73,3.67-7.29,7.5-10.84,11.34s-6.55,8.33-10.55,11.57a1.45,1.45,0,0,1-2.26-1.75c2.25-4.48,6.24-8.2,9.71-11.76a134.2,134.2,0,0,1,12.33-11C377.41,560.67,379,562.13,377.91,563.18ZM355,595.71c1.32-2.92,3.92-5.19,6.06-7.53q3.57-3.87,7.12-7.76c.44-.48,1.31.18.91.7L362.47,590c-1.85,2.47-3.56,5.27-6.11,7.07C355.46,597.71,354.63,596.52,355,595.71Zm3.06,7.63c1.18-3.67,3.61-6.62,5.77-9.77,1.19-1.73,4-.12,2.85,1.66-2.11,3.19-3.95,6.63-6.92,9.1C359,604.93,357.73,604.39,358.06,603.34Zm5.37,53.92c7.84,2.87,11.7,9.13,14.24,16.92,1.84,5.65,2.31,11.69,4.23,17.29,2.8,8.2,8.58,10.31,15.9,13.78,1.59.75.45,3.4-1.19,2.82-9.23-3.26-15.87-4-19.08-13.86-4.12-12.63-4.57-25.26-15.62-34.34C360.71,658.89,362,656.74,363.43,657.26Zm-13.67-81.93c9.71-16,28.77-28.24,44.65-37.42a1.51,1.51,0,0,1,1.52,2.61,225.69,225.69,0,0,0-23.71,18.07c-6.86,5.94-12.65,13.24-19.73,18.84C351,578.59,348.67,577.14,349.76,575.33Zm55.75,165.84c-6.43-10.19-13.86-13.43-25.63-12.51-5.28.41-9.29-.67-11.66-5.6-7.32-15.2,3.73-39.88-17.43-47.35-1.73-.61-1-3.29.77-2.78,16.61,4.71,17.72,22.86,18.72,37.31.55,7.91-.33,12,12.08,13,1.43.12,3-.29,4.43-.23a24.19,24.19,0,0,1,9.44,2.34c6.06,2.86,10.71,8,12.1,14.58A1.55,1.55,0,0,1,405.51,741.17Zm17,17.05c-4.85-9.4-7.06-19.52-14.07-27.85a45.56,45.56,0,0,0-26.09-15.47c-1.9-.38-1.47-3.54.45-3.38,22,1.79,42.58,23.4,43,45.81A1.78,1.78,0,0,1,422.52,758.22Zm54.24,40.94c-.14,1.58-2.08,2.71-3.33,1.38-2.78-3-4.49-6.64-7.32-9.61-3.22-3.37-7.26-5.82-11.08-8.42-5.76-3.92-11.09-8.08-15.17-13.8-9.5-13.34-11.77-30.54-22.77-43-1.69-1.91,1-4.65,2.83-2.83,11.94,11.79,14.5,28.65,24.09,41.91C451.55,775.26,478.17,783.6,476.76,799.16Zm8.55-4.18c-4.3-4.85-8-10.28-12.31-15.18a156.43,156.43,0,0,0-15.2-15.48c-1.68-1.45.61-4.41,2.38-3.08a131.1,131.1,0,0,1,18,16.49c4.06,4.39,10,9.65,10,16.08A1.66,1.66,0,0,1,485.31,795Zm9.81-4.29c-3.79-3.68-6.26-8.93-9.72-13-4.14-4.87-8.46-9.58-12.86-14.21-2.06-2.16,1.16-5.39,3.27-3.27,5.15,5.16,10.25,10.41,15,16,3.21,3.74,7.25,8.18,7.16,13.35A1.68,1.68,0,0,1,495.12,790.69ZM507.17,789c-3.87-2.31-5.85-7.74-8.42-11.37A113,113,0,0,0,487.41,764a1.83,1.83,0,0,1,2.58-2.58,98.72,98.72,0,0,1,11.85,12.51c2.92,3.73,7.71,8.81,7.63,13.78A1.54,1.54,0,0,1,507.17,789Zm11.59-6.31c-3.57-1.2-5.83-5.07-8.21-7.82q-4.32-5-8.82-9.81c-2-2.18,1.18-5.41,3.28-3.28q4.61,4.71,9.06,9.56c2.39,2.62,6.17,5.66,6.74,9.3C521,781.82,520.09,783.16,518.76,782.71Zm8.21-6.05c-2-1.25-3.33-3.61-4.87-5.38a47.12,47.12,0,0,0-5.46-5.3c-1.67-1.39.6-4.31,2.31-3a50.09,50.09,0,0,1,6.08,5.38c1.66,1.75,3.91,4,4.34,6.47A1.65,1.65,0,0,1,527,776.66Zm5.68-4.42c-1.62-.23-2.91-1.73-3.93-2.91a24.72,24.72,0,0,1-2.88-4.09c-1.34-2.37,2.35-4.51,3.63-2.13a19.85,19.85,0,0,0,2.45,3.62c1,1.14,2.2,2.07,2.7,3.54C535.05,771.56,533.75,772.39,532.65,772.24Zm5.87-16.14a1.67,1.67,0,0,1-2.61-2c8.2-13,17.09-25.4,24-39.18a210.79,210.79,0,0,0,16.49-45.55c.54-2.23,3.89-1.27,3.42.95C573.39,700.69,560.74,733.66,538.52,756.1ZM580,726.55c-3.28,10-7.8,19.5-15.29,27a1.66,1.66,0,0,1-2.59-2c4.94-8.52,10.05-16.86,13.37-26.2C576.51,722.5,581,723.67,580,726.55ZM584.91,697a345.29,345.29,0,0,1-15.22,32.64c-5.57,10.33-11.16,21.7-19.33,30.25-1.42,1.49-3.37-.41-2.64-2,4.75-10.71,12.09-20.4,17.72-30.7s11-20.92,15.78-31.71C582.15,693.38,585.77,694.93,584.91,697Zm6.5-89.15c-1.6,3.63-3.28,7.16-5.14,10.67a1.37,1.37,0,0,1-2.5-1c1.22-3.78,2.57-7.45,4.05-11.13A2,2,0,1,1,591.41,607.88Zm-3.59-67.36a1.51,1.51,0,0,1,1.53-2.61c15.87,9.18,34.93,21.41,44.64,37.42,1.11,1.82-1.28,3.25-2.73,2.1-7.08-5.61-12.87-12.9-19.73-18.84A224.34,224.34,0,0,0,587.82,540.52ZM621.29,590l-6.63-8.89c-.4-.53.48-1.17.91-.7l7.12,7.76c2.14,2.33,4.75,4.62,6.07,7.53.37.81-.46,2-1.37,1.37C624.84,595.28,623.13,592.48,621.29,590Zm2.7,14.32c-3-2.47-4.8-5.9-6.91-9.1-1.18-1.78,1.65-3.39,2.84-1.66,2.17,3.14,4.6,6.1,5.77,9.77C626,604.39,624.71,604.93,624,604.33Zm3.25-18.24c-4-3.24-7.07-7.79-10.56-11.57s-7.11-7.67-10.84-11.34c-1.07-1,.5-2.51,1.62-1.61a135.53,135.53,0,0,1,12.33,11c3.47,3.57,7.45,7.27,9.71,11.76A1.45,1.45,0,0,1,627.24,586.09ZM606.47,649c-.34,5.26-1.17,11.4-4.81,15.47-1.29,1.44-3.19-.14-2.93-1.7.76-4.69,2.89-9,3.46-13.77C602.51,646.37,606.65,646.24,606.47,649Zm-1.62,18.08c1.06-4.93,3.58-9.44,5.21-14.2a92.87,92.87,0,0,0,3.69-14.78c.37-2.22,4.16-1.69,3.93.53-1,9.85-3.18,22.53-10.6,29.75A1.35,1.35,0,0,1,604.85,667.11Zm10.94-3.28c5.08-11.86,5.79-22.82,6.52-35.51.54-9.32,2-18.22,6.7-26.41,1.35-2.36,4.78-.28,3.6,2.11-9.4,19.14,2.42,46.14-13.26,62.55C617.42,668.59,614.85,666,615.79,663.83Zm-9.17,27.67c-5.2,12.15-3.34,24.07-5.24,36.63-.3,2-3.54,1.89-4,0-2.77-12.49-.06-27.33,6.2-38.38C604.76,687.75,607.48,689.51,606.62,691.5Zm28.87-22.84c-1.94,4.2-4.76,6.51-8.27,9.38-5.32,4.35-9,8.81-11,15.54-3.68,12.07-1.32,24.95-5.88,36.8-.69,1.79-3.58,1.67-3.52-.47.37-12.8,0-26.89,4.41-39.09a33.72,33.72,0,0,1,6.64-11.43c4.37-4.74,10.65-7.08,13.64-13.07C632.83,663.63,636.72,666,635.49,668.66ZM656.14,557.9c-3.73,8.91-3.48,16.36-2.26,25.7.55,4.16.46,7-1.59,10.8-3.11,5.78-8,10.46-10.83,16.46-4.59,9.74-2.12,19.77-3.16,30a1.93,1.93,0,0,1-3.76.51c-5.07-15.41-1.1-30.57,8.09-43.33,3.2-4.45,5.92-7.57,5.74-13.31-.11-3.25-.94-6.39-.85-9.69a40.31,40.31,0,0,1,5.25-18.54C653.75,554.68,657,556,656.14,557.9Z"/><path d="M909.58,747.84c0-9.54-6.65-21-10.49-27.83-7.87-13.93-16-27.79-24.32-41.46-14.09-23.13-31.38-45.08-57.23-54.91a9,9,0,0,0-.46-1.57c-3.42-8.44-16.23-9.9-23.82-10.74a346.87,346.87,0,0,0-61.9-1,102.17,102.17,0,0,0,28-26.57c6.38-9.13,11.49-22.11,9.62-33.43,27.84.44,54.81-22.86,70.07-44.13a116.73,116.73,0,0,0,19.1-43.36c1.18-5.5,3-13.2,3.34-20.57,22.56-2.62,11.65-37.84,7.83-51.44a382.54,382.54,0,0,0-14-40.72c-3.37-8.27-6-20.59-15.19-24a4.52,4.52,0,0,0-5.08,2.06c-7.58,13.63-.37,29.13.26,43.6.78,18,0,36.17-.11,54.2-1.87,1.06-3.6,2.14-5.08,3.08a84.65,84.65,0,0,0-16.68,13.68c-5.41,5.72-11.39,10.25-17.31,15.39-11.38,9.87-19.48,24.67-26.69,37.71-6.47,11.72-11.29,23.94-13,37.12-5.76-2.86-12.79-3.27-19.74-2.1a60.76,60.76,0,0,0,14.31-13.62c7.74-9.76,15.15-19.81,19.11-31.75,4.53-13.64,4.92-28.43,3.9-42.65-.1-1.3-.19-2.63-.28-4,26-17.51,38.93-46.36,45.51-76.12,6.86-31.07,11.22-67.54-7.8-95.39a53.55,53.55,0,0,0-16.3-15.92c-6.66-48.22-35-91.65-77.81-115.52a158.69,158.69,0,0,0-34.68-14.26,151.54,151.54,0,0,0-18.52-3.89c-5.69-.84-13.45-2.77-19.13-1.45-9.61,2.24-6.87,11.84-2.53,17.77,8.59,11.73,16.89,23.59,24.46,36a439.68,439.68,0,0,1,22.84,42.65c7.47,16,14.84,32.62,15.59,50.48-13.62-15.95-22.69-33.63-29.87-53.35-2.32-6.37-5.26-14.34-11.72-17.63-5.17-2.65-10.67-1.28-13.34,4-4,7.92-3.58,19.69-3.24,28.27.44,10.86,1.39,21.83,2.86,32.61,2.51,18.36,8.18,36.15,21.12,49.7,0,.11,0,.21,0,.31.78,8.27,5.31,15.21,9.8,22q8.63,13,17.6,25.69,16.15,23,33.32,45.16c-7.09,5.47-11.78,14.22-15.63,21.95a178.1,178.1,0,0,0-18.4,86.19c-14.19.9-23.65,11.79-33.26,21.16L663,527.83a119,119,0,0,0-25.66-16.41c-19.94-9.61-41.53-15.26-62.7-21.46l-50.19-14.68a65.61,65.61,0,0,0,8.42-13.93c12.41,4.08,27.14,1.49,36.84-7.48,10.4-9.6,14-27.8,3.8-38.9-11.52-12.49-26-4.38-34.44,6.59-5.24,6.79-7.1,15.76-9.72,23.81-3.25,10-7,19.43-14.38,27.13l-15.07-4.4a4.72,4.72,0,0,0,.82-2.15c0-.1,0-.21,0-.31a4.54,4.54,0,0,0,3.48-1.09c5.18-4.39,11.16-8.91,11.59-16.31.39-6.84-4.09-13.55-11.45-13.27-6.54.25-11.53,5.5-12.71,11.68-1.21,6.35.82,12.71.1,19.06l-.22-.06a4,4,0,0,0-3.43.4,4.81,4.81,0,0,0-1.14.18l-.22.07c-.7-6.17,1.19-12.33.19-18.51-1-6.41-6-12-12.81-12.24-7-.27-11.56,5.94-11.46,12.57.12,7.76,6.21,12.44,11.61,17a4.5,4.5,0,0,0,3.47,1.1l0,.31a4.68,4.68,0,0,0,.82,2.14l-15.07,4.41c-7.33-7.7-11.13-17.12-14.38-27.14-2.62-8-4.5-17-9.72-23.8C431,411.19,416.5,403,405,415.56c-10.18,11.09-6.65,29.31,3.8,38.9,9.73,8.94,24.41,11.56,36.84,7.48a65.29,65.29,0,0,0,8.42,13.92l-41.71,12.21c-20.14,5.89-40.67,11.17-60.14,19.08-13.78,5.6-27.24,12.72-38.33,22.69-9.48-9.26-18.91-20.26-33-21.21h-.27a178.3,178.3,0,0,0-17.69-84.73c-4-8.15-8.83-17.59-16.33-23.37q14.47-18.81,28.3-38.09c10.2-14.28,23.3-29.39,30.09-45.67a33.77,33.77,0,0,0,2.48-9.5c12.7-13.37,18.35-30.88,20.89-49,1.47-10.42,2.36-21,2.87-31.54.46-9.19,1.05-21.41-3.16-29.94-2.52-5.08-7.74-6.53-12.81-4.19-6.4,3-9.45,10.4-11.78,16.57-7.58,20.17-16.34,38.2-30.33,54.61,1.18-29.2,18.48-58.64,32.67-83.38q10.84-18.88,23.52-36.64c4.32-6,16.38-17.22,8.37-24.85-6.17-5.88-23.08-.81-30.52.64a156.85,156.85,0,0,0-37,12.26A158.46,158.46,0,0,0,213.15,178a147.84,147.84,0,0,0-30.29,74.59,40.27,40.27,0,0,0-9.76,7.72c-22.51,24.19-21.71,59.53-16.42,90,6,34.2,18.09,68.95,48.07,89.17-.09,1.35-.19,2.69-.28,4-1,13.76-.63,28,3.46,41.23,3.87,12.54,11.48,23,19.55,33.16a60.49,60.49,0,0,0,14.3,13.61c-6.94-1.16-14-.74-19.73,2.12-1.76-13.18-6.58-25.41-13.05-37.12-7.21-13.05-15.31-27.84-26.69-37.72-5.92-5.14-11.9-9.66-17.31-15.38a84,84,0,0,0-16.68-13.68c-1.48-.94-3.21-2-5.08-3.08-.13-18-.89-36.2-.11-54.2.63-14.47,7.84-30,.26-43.6a4.53,4.53,0,0,0-5.08-2.07c-9.19,3.44-11.81,15.73-15.2,24a379.5,379.5,0,0,0-14,40.72c-3.81,13.59-14.75,48.81,7.83,51.43.36,7.38,2.16,15.07,3.34,20.58a117,117,0,0,0,19.09,43.36c15.27,21.26,42.23,44.56,70.07,44.13-1.86,11.32,3.27,24.33,9.63,33.42a102.06,102.06,0,0,0,28,26.58,348.75,348.75,0,0,0-61.9.94c-7.7.85-19.61,2.22-23.6,10.21a8.57,8.57,0,0,0-.7,2.11c-25.31,9.63-42.46,30.91-56.38,53.54-8.39,13.64-16.45,27.56-24.38,41.47-4,7.09-11.3,19.22-11.28,29.22a4.17,4.17,0,0,0-.7,1.09c-6,13.61-2.45,28.72,6,40.58,4.52,6.32,10.56,11.13,16.67,15.86s13.28,10.48,21,12.6c14.61,4,9.88-13.91,6.51-21-3.9-8.15-9-15.71-13-23.81-3.84-7.71-9.28-16.15-11.69-24.54,12-11.7,24.45-22.92,37.59-33.38,21.46-17.08,46-34.74,49.89-63.36,15.2,10.8,34.88,17.15,52.07,21.21a280.91,280.91,0,0,0,34.85,5.7c3.14.33,6.47.81,9.88,1.24-8.56,4-17,8.27-25.42,12.49-12.18,6.11-24.51,12-36.13,19.17-6.4,3.95-18.92,10-21.21,18.11a10,10,0,0,0,0,5.87c-3.18,24,6.92,50.25,19.09,70.26a168.75,168.75,0,0,0,25.13,31.66c7.1,7.08,17,17.68,26.76,22.73a3.9,3.9,0,0,0,.08.57c1.88,7.6,5.7,16.62,13,20.51s17.31,1.54,24.66-1.15c9.42-3.46,18.19-8.81,26.84-13.84,5.9-3.44,13.3-7.24,11.67-15a4.43,4.43,0,0,0-3.14-3.14c-8.62-2-19.07-.34-27.9,0-9.77.36-19.53.87-29.29,1.47-1.24-14.1-10-34.88-11.86-39.22-9.76-22.34-21.19-45.5-38.16-63.36,3.92,0,7.14,0,8.93.06a233.88,233.88,0,0,0,60.12-5.75c-1.31,1.15-2.62,2.31-3.91,3.48-6.54,5.92-29.55,22.22-24.38,34.05,1.29,10.73,12.5,18,20.64,24,12.14,9,25.72,15.45,39.4,21.65s27.13,12.25,40.71,18.35c5.68,2.55,15.09,8.36,23.14,9.81,17.95,24.84,44.95-12.69,49-30.5,1.35-5.94,2.36-21.51-8.42-18.33-5.11,1.51-10.37,7.78-14.32,11l-18.28,14.83a2.4,2.4,0,0,1-.11-.23c-5.39-10.91-14.38-18.83-24.5-25.28-16.86-10.75-36.38-22.85-56.69-27.7a118.18,118.18,0,0,0,41-30.7c.17.09.32.19.5.27,9,3.85,17.55-7.82,24.95-1.58,8.14,6.85,11.86,19.86,16.9,28.84,4.77,8.49,12.63,7.43,21.2,10.06a66.61,66.61,0,0,1,26.66,15.63c5.61,5.47,8.17,12.46,16.48,14,9.73,1.83,21.44,1.38,31.22.53,11.47-1,12.37-5.9,20.1-13.72A67.85,67.85,0,0,1,550,783.7c8.63-2.73,16.93-1.59,21.71-10.22S580,753,587.53,746c8.76-8.21,15.15,4.06,25.12.63a13.21,13.21,0,0,0,1.43-.64,118.18,118.18,0,0,0,41,30.72c-20.31,4.85-39.82,17-56.68,27.69-9.67,6.16-18.49,13.71-23.87,24-.24.45-.5,1-.77,1.49l-17-13.77c-4.39-3.56-9.65-9.81-15.08-11.82-11.07-4.09-10.34,12-9,18.11,4.06,17.83,31.11,55.42,49.06,30.41,7.6-1.43,16.3-6.69,21.69-9.11q21.08-9.43,42.1-19c13.68-6.19,27.27-12.67,39.4-21.64,8.12-6,19.42-13.39,20.65-24.16C710.58,767.33,689,752,682.47,746c-1.68-1.54-3.38-3-5.09-4.56a232,232,0,0,0,58.47,5.78c2,0,5.86,0,10.51,0-16.57,17.48-27.77,40-37.45,61.8-2,4.48-11.18,26.21-12.46,40.72-9.77-.61-19.56-1.12-29.34-1.47-8.89-.32-19.23-2-27.9,0a4.41,4.41,0,0,0-3.14,3.14c-1.63,7.79,5.75,11.58,11.67,15,8.66,5,17.42,10.35,26.84,13.84,7.33,2.71,17.3,5.06,24.66,1.16s11.14-12.93,13-20.52a3.85,3.85,0,0,0,.08-.58c9.4-4.87,18.83-14.93,25.67-21.65a170.46,170.46,0,0,0,25.42-31.44C776,787,786.59,760.19,783.31,735.69a10.05,10.05,0,0,0,0-5.83c-2.28-8.11-14.76-14.13-21.22-18.1-11.15-6.87-23-12.59-34.69-18.45-8.89-4.46-17.79-9-26.83-13.22,3.41-.43,6.74-.91,9.86-1.24a281.21,281.21,0,0,0,34.85-5.7c17.15-4,36.89-10.38,52.07-21.18,3.79,28,27.45,45.58,48.57,62.29a500.06,500.06,0,0,1,38,33.48l1,.94c-2.3,7.91-7.43,15.87-11,23.17-4,8.15-8.94,15.76-13,23.86-3.44,6.87-9.63,26.55,5.83,22.29,12.94-3.57,28.67-16.59,36.69-27.13,9.13-12,13.27-27.78,7-41.91A4.59,4.59,0,0,0,909.58,747.84ZM537.22,450.24c.78-2.31,1.49-4.73,2.23-7.16a11.48,11.48,0,0,0,1.11,1.82c4.14,5.54,11.47,6.11,16.74,1.87a14.12,14.12,0,0,0,3.22-18.57A13.16,13.16,0,0,0,550.25,422a23.77,23.77,0,0,1,3-2.35c8.66-5.77,17,2.06,17.43,11a21.6,21.6,0,0,1-7.25,16.81c-7.36,6.59-17.86,8.11-27.12,5.46C536.59,452.07,536.91,451.17,537.22,450.24Zm-122.07-2.13a21.63,21.63,0,0,1-7.25-16.81c.4-9.05,8.8-16.77,17.43-11a23.94,23.94,0,0,1,3,2.36,12.07,12.07,0,0,0-8.58,3.88,14.16,14.16,0,0,0-1.43,17.66c3.51,5.13,10.27,7.9,16,4.62a12.38,12.38,0,0,0,4.82-5.15c.73,2.44,1.45,4.86,2.23,7.18.31.92.63,1.83,1,2.74C433,456.21,422.51,454.7,415.15,448.11ZM281.42,859.36c8.82-.55,17.65-1,26.48-1.38,7.16-.28,15.92-1.68,23.61-1.16-6.26,4.43-23.35,12.56-25.56,13.56-5.29,2.4-12.36,5.42-18.3,4.51-6.27-1-9.47-5.79-11.4-11.27A6,6,0,0,0,281.42,859.36Zm126.9-20.3,19.76-16c2.13-1.73,7.79-4.88,9.79-7.5a13.19,13.19,0,0,1-.26,2.33c-1.06,9.25-18.43,41.58-30.5,33.54C410.14,848.49,409.74,843.66,408.32,839.06Zm132.6-21.8a13.09,13.09,0,0,1-.26-2.33c2,2.62,7.66,5.77,9.79,7.5l19.72,16c-1.44,4.69-1.8,9.51,1.23,12.37C559.33,858.81,542,826.51,540.92,817.26Zm152.2,57c-6.18,1.84-15.06-1.91-20.54-4.41-2.28-1-19.35-9.14-25.58-13.57,7.7-.52,16.47.88,23.63,1.17,8.85.34,17.7.82,26.54,1.37a6,6,0,0,0,5.12,4.27C700.63,867.81,697.89,872.78,693.12,874.21ZM840.91,338.35c1.07,2.17,1.82,4.74,2.43,6.12q3.07,7.06,5.86,14.24,4.47,11.6,8.2,23.45c2.61,8.32,17.14,46.59,3.59,50.94a18.51,18.51,0,0,0-2.88-7.19c-3.5-5-8.63-5.32-13.81-3.88.12-14.41.36-28.83.22-43.24a134.84,134.84,0,0,0-1.7-22.07C841.75,350.51,839.84,344.37,840.91,338.35Zm-76,199.75c1.68-23.87,16.39-49.44,31.59-67.56,6.78-8.09,16.13-13.71,23.38-21.43,4.56-4.86,27.9-26.08,31.89-14,1.67,5-.3,14.13-1.09,19.19a114,114,0,0,1-4,16.9,108.46,108.46,0,0,1-18.1,34.2c-14.1,17.86-38.22,37.6-62.24,35.89a5.82,5.82,0,0,0-.73,0c-.34-.54-.71-1.07-1.1-1.59A4.76,4.76,0,0,0,764.92,538.1Zm-4.4,16.54c1,15.81-12.24,30.78-23.61,40a138.05,138.05,0,0,1-28.72,17.84l-.81.09a4.59,4.59,0,0,0-3.08,1.65,176.61,176.61,0,0,1-51.6,13.37q.1-.89.24-1.77c1.32-8.36,5.06-10.13,12.43-12.4,3.37-1,6.22-2.46,7.92-5.7,2.13-4,2-8.9,1.09-13.77,12.12-3.07,26.35-14.28,34-23.94a64,64,0,0,0,10.94-22.14l0,0C730.72,538.15,759.15,533.48,760.52,554.64ZM682.87,179.52A438.33,438.33,0,0,0,657,138.67c-1.87-2.63-3.8-5.22-5.71-7.82q-2.16-2.81-4.21-5.7,2.91.1,5.82.33a141.36,141.36,0,0,1,23.22,3.76c56.74,14,99.73,61,109.45,118.09a33.73,33.73,0,0,0-4.3-.86c-15.89-2.11-34.21,3.1-49.25,7.77-5.3,1.64-11.44,3.65-17.75,6.12C712.19,231.89,696.47,203.83,682.87,179.52Zm-23.53,79.17c-2.61-16.65-5.31-36.16-2.19-52.82a42.37,42.37,0,0,1,1.11-4.84,7.4,7.4,0,0,1,5.9,4.8c2.16,3.44,3.14,7.84,4.5,11.64a173.83,173.83,0,0,0,7.52,17.94A160.76,160.76,0,0,0,697.7,268c-11.56,6.45-21.51,15-25.14,26.35C665.13,284,661.36,271.53,659.34,258.69Zm48.06,93q-8-11.32-15.72-22.8c-4.43-6.59-10.41-13.86-11.47-22a4,4,0,0,0-.13-3.54v-.16c1.27-19.32,23.84-28.79,39.22-34.92,16.23-6.48,34.28-11.87,51.8-13a38.27,38.27,0,0,1,16.14,2.19,5.05,5.05,0,0,0,5.33,2.58c23.75,14.42,25.29,57.5,21.46,82.23-4.93,31.83-14.6,66.09-41.21,86.31-1.05-8.23-3-16.41-7.64-23-5.82-8.21-15.55-12.84-25.24-9.89Q723.2,374,707.4,351.67Zm9.08,92.6c3.58-10.06,8-20.35,14-29.26,2.21-3.3,5.09-6.93,8.65-9.17a4.45,4.45,0,0,0,1.77-1,11.63,11.63,0,0,1,1.89-.71c8-2.3,14.43,4.29,17.37,10.88,4.36,9.75,4.7,21.79,5.2,32.35s.12,21.22-2.6,31.48-8.06,18.76-14.35,27.15c-7.06,9.44-14.91,19.87-27.29,21.45-1.2-8.78-6.46-15.68-14.22-18.32a4.5,4.5,0,0,0,0-.75A171,171,0,0,1,716.48,444.27Zm-45.25,91.06c6.7-6.76,13.44-15,22.69-17.54,15.45-4.22,20.12,9.35,17.67,22-2,10.25-5.77,20.3-13.08,27.92-5.67,5.91-15.06,13.46-23.55,16.68a5.18,5.18,0,0,0-3.1-.57c-.45-1.65-.86-3.23-1.15-4.7-1.64-8.26-.22-13.35,4.7-20,2.06-2.79,4.18-5.33,4.13-9.05C679.46,545,675.56,539.79,671.23,535.33ZM501.29,446.08c3.07-4.5,6.85-.72,5.07,3.65-1.1,2.71-3.8,4.82-6.28,6.72C499.64,452.57,499.48,448.72,501.29,446.08ZM478.44,457c-2.27-1.78-4.65-3.69-6-6.13-2.25-4.22,1.36-9.19,4.76-4.22C479,449.29,478.88,453.14,478.44,457ZM283.38,518.09c10,2.22,17.08,11,24.16,18.08l-.55.59c-4.48,5.08-9.95,11.11-7,18.27,1.53,3.73,5.2,6,7.06,9.47,3.23,6.1,1.23,13.54-.36,19.88a5.21,5.21,0,0,0-3.09.57c-8.13-3.08-17-10.15-22.58-15.67-7.89-7.83-12-18.14-14.06-28.92C264.63,528.47,268.29,514.73,283.38,518.09Zm19-282.09a174,174,0,0,0,7.52-17.95c1.36-3.79,2.34-8.2,4.5-11.63a7.4,7.4,0,0,1,5.9-4.8,44.44,44.44,0,0,1,1.11,4.83c3.11,16.63.41,36.22-2.19,52.83-2,12.82-5.79,25.25-13.21,35.66-3.9-10.86-14.24-19.4-25.55-25.87A160.94,160.94,0,0,0,302.35,236Zm.1-106.18a141.36,141.36,0,0,1,23.22-3.76c6-.45,6.37-1,2.58,4.09-2.24,3-4.49,6-6.68,9.1a437.72,437.72,0,0,0-25.91,40.86c-13.64,24.38-29.42,52.57-31.38,81.13-1.94-.81-3.83-1.56-5.64-2.25-19.43-7.38-45.27-16.16-66.27-10.3C200.71,191.1,246.19,143.68,302.45,129.82ZM205.71,429.13c-26.61-20.22-36.28-54.49-41.21-86.31-4.76-30.75-1.25-89.86,42.93-87,17.52,1.13,35.57,6.53,51.8,13,15.38,6.14,37.95,15.6,39.22,34.93v.16a3.92,3.92,0,0,0-.13,3.54c-1.06,8.15-7,15.43-11.47,22q-7.74,11.49-15.72,22.8-15.78,22.38-32.54,44c-9.67-2.94-19.43,1.68-25.24,9.89C208.73,412.71,206.76,420.89,205.71,429.13ZM231,507.77c-6.3-8.32-11.93-16.72-14.84-26.88s-3.46-20.86-3-31.39c.42-10.93.66-23.82,5.28-33.87,2.78-6.06,8.07-12.21,15.55-11.12a14,14,0,0,1,4.56,1.54l.21.12a26.88,26.88,0,0,1,8.16,7.78c6.42,8.68,10.94,19.34,14.63,29.42A170.91,170.91,0,0,1,271.6,509a5,5,0,0,0,0,.79c-7.69,2.64-13,9.4-14.22,18.27C245.57,526.55,237.85,516.83,231,507.77ZM120.41,426.49a18.56,18.56,0,0,0-2.87,7.19c-13.55-4.34,1-42.62,3.59-50.94q3.72-11.85,8.2-23.44,2.79-7.19,5.86-14.24c.61-1.38,1.36-3.95,2.42-6.12,1.07,6-.82,12.18-1.9,18.37A134.76,134.76,0,0,0,134,379.38c-.13,14.41.11,28.83.23,43.24C129.05,421.17,123.92,421.55,120.41,426.49Zm92.48,115.4a4.15,4.15,0,0,0-.71,0c-24.05,1.71-48.11-18-62.24-35.89a107.45,107.45,0,0,1-17.62-32.7,113,113,0,0,1-4.48-18.4c-.79-5.13-2.76-14.16-1.09-19.19,3.89-11.77,26.27,8,30.79,12.81,7.62,8.1,17.35,14.15,24.48,22.62,7.45,8.86,13.64,19.75,19.22,29.86,6.51,11.79,11.41,24.17,12.36,37.7a5,5,0,0,0,.41,1.6C213.61,540.8,213.24,541.34,212.89,541.89Zm28.73,53.37c-11.17-9.1-23.55-23.09-23.59-38.4,0-22.55,29.09-18.71,41.19-8.39l0,0a63.72,63.72,0,0,0,10.07,21c7.67,10.17,22.38,21.94,34.92,25.07-.88,4.78-1.12,9.73,1,13.74a10.9,10.9,0,0,0,5.63,5c6.42,2.75,12.16,2.2,14.37,10.43a25.51,25.51,0,0,1,.73,4.45,176,176,0,0,1-51.73-13.38,4.62,4.62,0,0,0-3.09-1.66l-.81-.08A138.05,138.05,0,0,1,241.62,595.26ZM97.67,778.35c2.48,5,5.19,9.82,8,14.64,2,3.43,8.73,12.42,7.77,16.39l.88.54a40.94,40.94,0,0,1-6.08-2.92,75.28,75.28,0,0,1-6.71-4.26A111.45,111.45,0,0,1,86.1,790.25c-7.6-7.71-13.63-19.7-11.72-30.78,3.61,1.49,8.1-.77,12.05-3.72C89.36,763.52,94.11,771.19,97.67,778.35Zm75.05-131.66c-.9,27.34-24.27,44.44-43.89,59.81-9.7,7.6-19.15,15.53-28.24,23.85-4.83,4.43-9.46,9-14.2,13.55-4.42,4.21-9.47,10.92-7.19,0,2.46-11.77,10-22.3,16-32.54C101.44,700.74,107.5,690,114,679.59c12.13-19.36,27.17-37.87,48.76-46.49a49.33,49.33,0,0,0,7.7,10.2c.76.81,1.57,1.59,2.37,2.36A5.45,5.45,0,0,0,172.72,646.69Zm100.06,24.22a282.65,282.65,0,0,1-31.06-4.5c-19.46-4-38.87-10.55-55.45-21.72C182.37,642.06,167.19,631,171,625c2.65-4.13,13.91-4.09,17.67-4.46q7.71-.76,15.44-1.13a397.9,397.9,0,0,1,62.69,2.28c19,8.56,39.84,13.5,59,15.5-.19,2.35-.41,4.68-.52,6.91q-.42,9.24-.27,18.49c0,.74,0,1.57,0,2.43h-.17A150,150,0,0,0,298,672.32l-.14,0C290.29,673.88,280.36,671.62,272.78,670.91Zm-18,128.5A225,225,0,0,1,269,832.8a136.78,136.78,0,0,1,4.08,15.68c.48,2.51,2.76,5.95-.86,5.35-1.83-.3-5.39-3.74-6.74-4.77-17.42-13.28-33-29.42-44.19-48.32-9.58-16.12-18.3-37.26-17.7-57A57.22,57.22,0,0,0,218.36,747C234.84,761.44,245,780.08,254.79,799.41Zm-.72-60.51c-10.42.19-20.84-.26-31.23-1.06-4.35-.33-12.4.43-15.86-2.67-4.51-4,2.24-7.2,5.79-9.68,16.52-11.51,35.07-19.91,53-28.89,19-9.5,38.11-18.55,59.07-22.47.12,5.27.91,10.56,4,13.66,1.89,1.93,4,2.18,6.59,2.39,1.13.1,2.13-.76,3.2-.72,7.24.28,7.75,3.21,9.43,9.25.53,1.87.94,3.76,1.32,5.67a5.46,5.46,0,0,0-.77.43Q332.74,715.87,317.71,728a4.83,4.83,0,0,0-.78.18A206,206,0,0,1,254.07,738.9Zm108.76,66.36c9,5.09,18.49,10.07,25.74,17.61a45.94,45.94,0,0,1,8.62,12.66c.51,1.11,3.37,6.16,2.68,7.44-1.13,2.12-2.11.81-4.54,0C375,836.07,355.49,825.73,336,816.87a260.17,260.17,0,0,1-27.12-13.74c-5.17-3.13-15.8-9-22.11-15.78,6.09.32,13.05-1.25,19.45-3.31C326.92,784.13,345.33,795.38,362.83,805.26Zm-35.92-39.65a107.31,107.31,0,0,1-19.27,8.15c-5.32,1.65-15.5,5.68-21,4.12-11.09-3.13,6.15-15.92,9.88-19.43q8.22-7.74,16.77-15.09C325.35,733,338,723.28,351,714.1c.5,3.49,1,7,1.64,10.44a1.81,1.81,0,0,0-2.42-.65c-4.87,2.57-8.9,7.43-13.27,10.86a125.74,125.74,0,0,1-17,11c-1,.57-.33,2.34.81,1.93a89.27,89.27,0,0,0,18-8.9c4.92-3.14,11.18-7.15,14-12.38a2.29,2.29,0,0,0,.2-.59q.57,2.91,1.36,5.74c-3.66,2.35-6.64,5.6-10.06,8.36a164.74,164.74,0,0,1-17.82,12.28c-10.75,6.54-22,12.12-33.29,17.58-2.26,1.09-.28,4.25,1.93,3.3,12.46-5.33,25.15-10.56,36.86-17.42,7.7-4.51,18.53-10.62,24.33-18.47a26.87,26.87,0,0,0,1.73,3.27A110.76,110.76,0,0,1,326.91,765.61Zm287.16-32.46c-1.06,1.85-4.19,5-6.61,5-1.82,0-4.18-2.13-5.82-2.93-5.78-2.82-11-3.86-16.52.28-6.06,4.57-10.33,12.8-14,19.21-2.33,4.08-4.17,10.67-7.12,14.21-4.06,4.85-12.14,4.67-17.72,6.55a77.67,77.67,0,0,0-22.81,12.27,74.55,74.55,0,0,0-9.32,8.53c-3.39,3.71-4.94,7.64-10.14,8.89s-11.56.63-16.72.48c-4.19-.12-9.68.45-13.73-.54-4.57-1.12-6.27-4.74-9.06-8a65.78,65.78,0,0,0-10.79-9.83,77.92,77.92,0,0,0-20.68-11c-4.35-1.52-9.32-1.69-13.54-3.27-6.11-2.29-8.35-11.09-11.29-16.35-6.31-11.29-15-28.74-30.33-21.42-5.27,2.52-9.33,6.08-13.4-1.56-2.27-4.27-2.68-10-3.53-14.59-1.73-9.38-2.17-20.8-6.35-29.5-2.43-5-7-9.4-12.86-9.76-5.33-.33-6.11,2.62-7.14-3.85s-.64-13.67-.6-20.16c.08-14.6,6-36.94-8.33-47.06-3.7-2.62-11-2.16-12.81-6.56s1.84-12.51,2.92-17.13c1.92-8.19,3.3-17.42-1-25.16-3.43-6.19-8.83-8.22-2.32-15.84a83.09,83.09,0,0,1,9.4-9.36c8.21-7,17.75-12.3,27.54-16.71,20.33-9.15,42.31-14.58,63.64-20.82l76.33-22.33a6.68,6.68,0,0,0,.76-.31c42,12.24,85.08,22.64,126.12,37.68,16.84,6.17,33.56,14.34,46.23,27.33,4.65,4.77,8.37,8.65,5,14.87-1.66,3-4,4.89-5.22,8.41-2.73,8.18-.67,16.62,1.32,24.68,1.15,4.69,4.85,14-.56,17.23-2.54,1.52-6.34,1.11-9.13,2.82-6.16,3.76-9.19,10.7-10,17.62-1.16,9.83.63,20.16.69,30,0,5.6-.1,11.21-.4,16.8,0,.14.06,6.19-.44,6.71-2,2.09-3.17.65-5.76.57-17.89-.56-18.18,27.38-20.35,39.2C616.78,723,616.38,729.09,614.07,733.15ZM671,801.7a241.82,241.82,0,0,1-27,13.92c-20,9.11-40,19.7-60.8,26.75-5.88,2-4.9-.11-2.81-5.38A45.78,45.78,0,0,1,590,822.28c6.91-7.19,15.86-12,24.46-16.89,18-10.15,36.89-22,58.22-21.95a4.49,4.49,0,0,0,1.13-.13c3.14.81,6.31,1.5,9.52,2a55.66,55.66,0,0,0,8.85.94C686.17,792.85,676,798.62,671,801.7Zm11-43.84c3.74,3.52,21,16.31,9.89,19.43-5.52,1.56-15.71-2.46-21-4.12A108,108,0,0,1,651.62,765a110.7,110.7,0,0,1-31-25.22,26.64,26.64,0,0,0,2-3.87c5.89,7.61,16.5,13.63,24,18,11.71,6.86,24.4,12.09,36.86,17.42,2.21.95,4.19-2.21,1.93-3.3-11.33-5.46-22.54-11-33.29-17.58a170,170,0,0,1-15.77-10.7c-4-3.08-7.54-7-11.77-9.73.47-1.76.88-3.55,1.23-5.35,2.79,5.21,9.06,9.24,14,12.37a89.8,89.8,0,0,0,18,8.9c1.13.4,1.84-1.36.81-1.93a124.85,124.85,0,0,1-17-11c-4.4-3.44-8.37-8.27-13.27-10.85a1.79,1.79,0,0,0-2.05.22c.52-3,1-5.94,1.38-8.92,13,9.17,25.63,18.88,37.71,29.26Q673.81,750.13,682,757.86Zm76,41c-11.28,19.46-27.14,36-45,49.63-1.73,1.31-3.78,3.54-5.81,4.18-3.5,1.11-2.72.29-2.11-3.17a132.87,132.87,0,0,1,3.91-15.73,216.23,216.23,0,0,1,14-33.48c10-19.8,20.27-39,37.12-53.83A57.54,57.54,0,0,0,775,743.17C775.51,762.42,767.21,783,758,798.85ZM711.28,695.28c18.43,9.2,37.52,17.81,54.47,29.62,3,2.13,9.82,5.32,6.68,9.15-2.8,3.42-11,2.75-15.07,3.08-10.4.84-20.84,1.32-31.28,1.2a207.2,207.2,0,0,1-64.48-10.7,5.12,5.12,0,0,0-.8-.19q-15-12.16-30.87-23.22a4.54,4.54,0,0,0-.77-.43c.39-1.9.8-3.8,1.32-5.67,1.25-4.47,1.66-7.44,6.41-8.63,3-.75,3.61.24,6.23.11s4.66-.42,6.59-2.4c3.09-3.14,3.87-8.39,4-13.65C674.1,677.37,692.78,686.05,711.28,695.28Zm81-51.17c-16.15,10.88-35,17.34-53.93,21.39a277.87,277.87,0,0,1-31,4.68c-8,.78-18.61,3.21-26.61,1.57h-.13a150.16,150.16,0,0,0-26.89-7.29l-.16,0c0-.85,0-1.67,0-2.43.16-8.16-1-16.9-1.19-25.35,19.26-2,40.3-6.93,59.41-15.54a399.27,399.27,0,0,1,61-2.37q7.74.35,15.45,1c4.84.45,14.64.18,18.43,4.09C812.07,629.56,796.68,641.12,792.26,644.11Zm86.92,86.8c-9.48-8.74-19.34-17-29.49-25-19.61-15.37-43-32.46-43.88-59.8a5.23,5.23,0,0,0-.14-1c.8-.78,1.61-1.56,2.37-2.37a49.65,49.65,0,0,0,7.7-10.2c21.6,8.61,36.6,27.12,48.76,46.48,6.25,10,12,20.22,18,30.38,6.23,10.64,14.28,21.68,16.84,33.93,2.39,11.42-2.85,4.17-7.19,0S883.58,735,879.18,730.91Zm13.25,58.75a110.82,110.82,0,0,1-14.12,11.55,75.45,75.45,0,0,1-6.62,4.42,33.78,33.78,0,0,1-5.11,2.63q-3.93,2-1.47.53c-1.32-2.56,5.54-12.52,7-15.09,3-5.27,6-10.5,8.74-15.94,3.55-7.14,8.3-14.82,11.24-22.59,4,3,8.46,5.24,12,3.74C906.05,770,900,782,892.43,789.66Z"/><path d="M396.23,725.4a24.19,24.19,0,0,0-9.44-2.34c-1.47-.06-3,.35-4.43.23-12.41-1.09-11.53-5.14-12.08-13-1-14.45-2.11-32.6-18.72-37.31-1.8-.51-2.5,2.17-.77,2.78,21.16,7.47,10.11,32.15,17.43,47.35,2.37,4.93,6.38,6,11.66,5.6,11.77-.92,19.2,2.32,25.63,12.51a1.55,1.55,0,0,0,2.82-1.19C406.94,733.39,402.29,728.26,396.23,725.4Z"/><path d="M382.81,711.52c-1.92-.16-2.35,3-.45,3.38a45.56,45.56,0,0,1,26.09,15.47c7,8.33,9.22,18.45,14.07,27.85a1.78,1.78,0,0,0,3.3-.89C425.39,734.92,404.81,713.31,382.81,711.52Z"/><path d="M444,764.84c-9.59-13.26-12.15-30.12-24.09-41.91-1.85-1.82-4.52.92-2.83,2.83,11,12.41,13.27,29.61,22.77,43,4.08,5.72,9.41,9.88,15.17,13.8,3.82,2.6,7.86,5,11.08,8.42,2.83,3,4.54,6.64,7.32,9.61,1.25,1.33,3.19.2,3.33-1.38C478.17,783.6,451.55,775.26,444,764.84Z"/><path d="M411.35,706.21a1.62,1.62,0,0,0-1.24,2.95c19.56,11.36,27.65,34.13,37.71,53.27,1.1,2.07,4,.25,3.1-1.81C442.31,741.21,434,713.31,411.35,706.21Z"/><path d="M460.18,761.24c-1.77-1.33-4.06,1.63-2.38,3.08A156.43,156.43,0,0,1,473,779.8c4.32,4.9,8,10.33,12.31,15.18a1.66,1.66,0,0,0,2.81-1.17c.06-6.43-5.92-11.69-10-16.08A131.1,131.1,0,0,0,460.18,761.24Z"/><path d="M475.81,760.2c-2.11-2.12-5.33,1.11-3.27,3.27,4.4,4.63,8.72,9.34,12.86,14.21,3.46,4.08,5.93,9.33,9.72,13a1.68,1.68,0,0,0,2.84-1.18c.09-5.17-3.95-9.61-7.16-13.35C486.06,770.61,481,765.36,475.81,760.2Z"/><path d="M490,761.42a1.83,1.83,0,0,0-2.58,2.58,113,113,0,0,1,11.34,13.65c2.57,3.63,4.55,9.06,8.42,11.37a1.54,1.54,0,0,0,2.3-1.31c.08-5-4.71-10.05-7.63-13.78A98.72,98.72,0,0,0,490,761.42Z"/><path d="M514.07,771.36q-4.44-4.86-9.06-9.56c-2.1-2.13-5.31,1.1-3.28,3.28q4.49,4.83,8.82,9.81c2.38,2.75,4.64,6.62,8.21,7.82,1.33.45,2.23-.89,2-2.05C520.24,777,516.46,774,514.07,771.36Z"/><path d="M525,768.35A50.09,50.09,0,0,0,519,763c-1.71-1.3-4,1.62-2.31,3a47.12,47.12,0,0,1,5.46,5.3c1.54,1.77,2.85,4.13,4.87,5.38a1.65,1.65,0,0,0,2.4-1.84C528.94,772.35,526.69,770.1,525,768.35Z"/><path d="M531.92,766.73a19.85,19.85,0,0,1-2.45-3.62c-1.28-2.38-5-.24-3.63,2.13a24.72,24.72,0,0,0,2.88,4.09c1,1.18,2.31,2.68,3.93,2.91,1.1.15,2.4-.68,2-2C534.12,768.8,532.9,767.87,531.92,766.73Z"/><path d="M331.13,593.36c-1.82-1.13-3.31,1.6-1.65,2.82,15.63,11.45,11.68,29.75,13.58,46.31.23,2,3.27,2.83,3.82.52C351.1,625.39,347.4,603.48,331.13,593.36Z"/><path d="M333.76,559.9c-.54-6-4.69-10.89-9.42-14.21-1.36-1-2.92.87-2.18,2.18,1.72,3,4,5.76,5.6,8.88a14,14,0,0,1,1.63,5.72c.05,1.28-.34,5.71-1.9,6.2a.67.67,0,0,0-.45.8l.07.37a1.05,1.05,0,0,0,1,.76C332.75,570.27,334.09,563.56,333.76,559.9Z"/><path d="M353.74,543.86c19-10,36.79-21.81,56.28-30.91a422.27,422.27,0,0,1,62.6-23.4.93.93,0,0,0-.49-1.79,350.49,350.49,0,0,0-63,20.55c-19.92,8.75-40.64,18.86-57.31,33C350.37,542.57,352.2,544.67,353.74,543.86Z"/><path d="M351.77,562.22c23.67-17.21,46.28-34.37,73.07-46.66,1.45-.66.41-3.2-1.09-2.6-26.77,10.7-54.12,25.4-73.72,47C349,561.1,350.38,563.23,351.77,562.22Z"/><path d="M352.49,577.43c7.08-5.6,12.87-12.9,19.73-18.84a225.69,225.69,0,0,1,23.71-18.07,1.51,1.51,0,0,0-1.52-2.61c-15.88,9.18-34.94,21.41-44.65,37.42C348.67,577.14,351,578.59,352.49,577.43Z"/><path d="M376.3,561.57a134.2,134.2,0,0,0-12.33,11c-3.47,3.56-7.46,7.28-9.71,11.76a1.45,1.45,0,0,0,2.26,1.75c4-3.24,7.06-7.79,10.55-11.57s7.11-7.67,10.84-11.34C379,562.13,377.41,560.67,376.3,561.57Z"/><path d="M356.36,597.08c2.55-1.8,4.26-4.6,6.11-7.07l6.62-8.89c.4-.52-.47-1.18-.91-.7q-3.56,3.89-7.12,7.76c-2.14,2.34-4.74,4.61-6.06,7.53C354.63,596.52,355.46,597.71,356.36,597.08Z"/><path d="M359.76,604.33c3-2.47,4.81-5.91,6.92-9.1,1.18-1.78-1.66-3.39-2.85-1.66-2.16,3.15-4.59,6.1-5.77,9.77C357.73,604.39,359,604.93,359.76,604.33Z"/><path d="M511.13,489.55a421.86,421.86,0,0,1,62.6,23.4c19.5,9.1,37.32,20.89,56.28,30.91,1.53.8,3.38-1.28,1.94-2.51-16.68-14.18-37.39-24.29-57.31-33a350.75,350.75,0,0,0-63-20.55A.93.93,0,0,0,511.13,489.55Z"/><path d="M560,513c-1.49-.59-2.56,1.93-1.1,2.6C585.7,527.85,608.31,545,632,562.22c1.38,1,2.79-1.11,1.75-2.26C614.12,538.36,586.78,523.66,560,513Z"/><path d="M631.26,577.43c1.45,1.15,3.84-.28,2.73-2.1-9.71-16-28.77-28.24-44.64-37.42a1.51,1.51,0,0,0-1.53,2.61,224.34,224.34,0,0,1,23.71,18.07C618.39,564.53,624.18,571.82,631.26,577.43Z"/><path d="M629.5,584.34c-2.26-4.49-6.24-8.19-9.71-11.76a135.53,135.53,0,0,0-12.33-11c-1.12-.9-2.69.56-1.62,1.61,3.73,3.67,7.29,7.5,10.84,11.34s6.55,8.33,10.56,11.57A1.45,1.45,0,0,0,629.5,584.34Z"/><path d="M628.76,595.71c-1.32-2.91-3.93-5.2-6.07-7.53l-7.12-7.76c-.43-.47-1.31.17-.91.7l6.63,8.89c1.84,2.47,3.55,5.27,6.1,7.07C628.3,597.71,629.13,596.52,628.76,595.71Z"/><path d="M617.08,595.23c2.11,3.2,3.95,6.63,6.91,9.1.72.6,2,.06,1.7-1-1.17-3.67-3.6-6.63-5.77-9.77C618.73,591.84,615.9,593.45,617.08,595.23Z"/><path d="M377.53,694.21c3.21,9.83,9.85,10.6,19.08,13.86,1.64.58,2.78-2.07,1.19-2.82-7.32-3.47-13.1-5.58-15.9-13.78-1.92-5.6-2.39-11.64-4.23-17.29-2.54-7.79-6.4-14-14.24-16.92-1.43-.52-2.72,1.63-1.52,2.61C373,669,373.41,681.58,377.53,694.21Z"/><path d="M369.43,642.92c-1.34-.92-2.68.82-2.07,2.06,3.08,6.18,7.66,11.45,10.66,17.72a74.38,74.38,0,0,1,6.81,24.17c.24,2.08,3.42,2.19,3.34,0C387.6,671.87,382.61,651.9,369.43,642.92Z"/><path d="M372.11,637.3c2.05,2.27,4.59,3.63,6.79,5.79,2.75,2.7,3.87,5.68,5,9.23a114.41,114.41,0,0,1,4.88,19.62c.22,1.63,3,1.26,2.89-.39-1-12.66-3.58-32.69-18.22-36.6A1.42,1.42,0,0,0,372.11,637.3Z"/><path d="M380.81,627.78c-1.27-.39-2,1.2-1.21,2.08,3,3.49,6.43,6.11,8.76,10.18a31,31,0,0,1,3.82,13.9,1.46,1.46,0,0,0,2.92,0C395.94,644.37,390.86,630.88,380.81,627.78Z"/><path d="M398.23,634.6a12.68,12.68,0,0,0-6.41-8.37,1.66,1.66,0,0,0-2,2.59,20.76,20.76,0,0,1,4.29,6.92C395,638.35,399,637.28,398.23,634.6Z"/><path d="M345.54,649.82c-.21-1.54-2.72-1.15-2.69.37.1,4.15.21,8.32.52,12.47.2,2.73.49,5.17,2.77,6.89,1.1.81,2.2-.54,2-1.57Q346.8,658.94,345.54,649.82Z"/><path d="M576.4,669.35a210.79,210.79,0,0,1-16.49,45.55c-6.91,13.78-15.8,26.18-24,39.18a1.67,1.67,0,0,0,2.61,2c22.22-22.44,34.87-55.41,41.3-85.8C580.29,668.08,576.94,667.12,576.4,669.35Z"/><path d="M581.22,695.47c-4.82,10.79-10.11,21.34-15.78,31.71s-13,20-17.72,30.7c-.73,1.63,1.22,3.53,2.64,2,8.17-8.55,13.76-19.92,19.33-30.25A345.29,345.29,0,0,0,584.91,697C585.77,694.93,582.15,693.38,581.22,695.47Z"/><path d="M575.51,725.3c-3.32,9.34-8.43,17.68-13.37,26.2a1.66,1.66,0,0,0,2.59,2c7.49-7.45,12-17,15.29-27C581,723.67,576.51,722.5,575.51,725.3Z"/><path d="M635.49,668.66c1.23-2.67-2.66-5-4-2.34-3,6-9.27,8.33-13.64,13.07a33.72,33.72,0,0,0-6.64,11.43c-4.46,12.2-4,26.29-4.41,39.09-.06,2.14,2.83,2.26,3.52.47,4.56-11.85,2.2-24.73,5.88-36.8,2.06-6.73,5.7-11.19,11-15.54C630.73,675.17,633.55,672.86,635.49,668.66Z"/><path d="M603.62,689.75c-6.26,11-9,25.89-6.2,38.38.42,1.89,3.66,2,4,0,1.9-12.56,0-24.48,5.24-36.63C607.48,689.51,604.76,687.75,603.62,689.75Z"/><path d="M634.54,641.35a1.93,1.93,0,0,0,3.76-.51c1-10.21-1.43-20.24,3.16-30,2.83-6,7.72-10.68,10.83-16.46,2.05-3.81,2.14-6.64,1.59-10.8-1.22-9.34-1.47-16.79,2.26-25.7.81-1.93-2.39-3.22-3.37-1.42A40.31,40.31,0,0,0,647.52,575c-.09,3.3.74,6.44.85,9.69.18,5.74-2.54,8.86-5.74,13.31C633.44,610.78,629.47,625.94,634.54,641.35Z"/><path d="M619.35,666.57c15.68-16.41,3.86-43.41,13.26-62.55,1.18-2.39-2.25-4.47-3.6-2.11-4.68,8.19-6.16,17.09-6.7,26.41-.73,12.69-1.44,23.65-6.52,35.51C614.85,666,617.42,668.59,619.35,666.57Z"/><path d="M607.08,668.41c7.42-7.22,9.57-19.9,10.6-29.75.23-2.22-3.56-2.75-3.93-.53a92.87,92.87,0,0,1-3.69,14.78c-1.63,4.76-4.15,9.27-5.21,14.2A1.35,1.35,0,0,0,607.08,668.41Z"/><path d="M602.19,649c-.57,4.78-2.7,9.08-3.46,13.77-.26,1.56,1.64,3.14,2.93,1.7,3.64-4.07,4.47-10.21,4.81-15.47C606.65,646.24,602.51,646.37,602.19,649Z"/><path d="M459.49,637.32c11.32-31.66,16.65-65.75,19.25-99.18.17-2.22-3.25-2.19-3.44,0-2.91,33.6-10.37,65.79-18.82,98.35A1.56,1.56,0,0,0,459.49,637.32Z"/><path d="M468,641.31c9-22.23,14.18-45.94,17.89-69.58.49-3.1-4.25-4.42-4.73-1.31-3.68,23.81-9.9,46.84-16.07,70.09C464.57,642.44,467.28,643.06,468,641.31Z"/><path d="M472.58,653.79c-.35,1.58,2,2.8,2.76,1.16,8.63-19,12.06-40.71,14.33-61.36.3-2.74-4-2.69-4.28,0C482.89,614.21,477.1,633.63,472.58,653.79Z"/><path d="M481.83,678.28c7.28-22.15,10.37-46.18,13.75-69.19.34-2.31-3.18-3.33-3.56-1-3.67,23.24-9.64,46.14-13,69.39A1.46,1.46,0,0,0,481.83,678.28Z"/><path d="M492.23,656.54c-.23,1.79,2.59,2.05,3.07.42,1.59-5.48,2.68-11.07,3.85-16.65.52-2.47-3.29-3.52-3.79-1C494.2,645,493,650.72,492.23,656.54Z"/><path d="M456,600.8c3.47-7.77,5.15-16.16,6.43-24.53.43-2.79-3.83-4-4.26-1.18-1.27,8.27-3.55,16.24-5.29,24.4C452.5,601.26,455.15,602.66,456,600.8Z"/><path d="M450.58,580.27a111.5,111.5,0,0,0-2.35,12.16c-.26,2,2.66,2.06,3.27.44A104.66,104.66,0,0,0,455,581.48C455.71,578.64,451.28,577.42,450.58,580.27Z"/><path d="M573.91,609.18c5.61-7.39,8.15-16.45,9.41-25.53.28-2-2.75-3-3.15-.87-1.67,9-5.17,17-8.54,25.44C571.06,609.65,573.13,610.19,573.91,609.18Z"/><path d="M578.78,616.15c5.29-5.64,7.57-14,9.09-21.37.59-2.88-3.8-4.13-4.44-1.22-1.61,7.41-5.13,13.86-7.32,21A1.61,1.61,0,0,0,578.78,616.15Z"/><path d="M587.82,606.37c-1.48,3.68-2.83,7.35-4.05,11.13a1.37,1.37,0,0,0,2.5,1c1.86-3.51,3.54-7,5.14-10.67A2,2,0,1,0,587.82,606.37Z"/><path d="M572,596.84c1-2.89,1.21-6.08,1.62-9.11a1.87,1.87,0,1,0-3.68-.5c-.35,3-1,6.18-.67,9.24A1.4,1.4,0,0,0,572,596.84Z"/><path d="M465.44,738.13c-4.79-11.29-9.54-22.62-13.58-34.2-.76-2.17-4.15-1.3-3.49,1a218.62,218.62,0,0,0,13.4,35.39C463,742.78,466.48,740.58,465.44,738.13Z"/><path d="M477,747.5c-1.9-11.5-9.12-23.08-14.17-33.45-.84-1.71-3.82-.49-3.11,1.31,4.3,11,7.91,24,15.2,33.35C475.79,749.81,477.19,748.56,477,747.5Z"/><path d="M485.06,743.14c-.48-4.17-2.88-7.76-5.06-11.27a89.57,89.57,0,0,0-8-10.8c-1.29-1.52-3.93.49-2.78,2.15,2.45,3.53,4.8,7.16,7,10.87,2,3.4,3.41,7.31,6.17,10.16C483.24,745.16,485.22,744.54,485.06,743.14Z"/><path d="M489.92,740.27c.75,1,1.69,1.66,2.45,2.6s2.37-.08,2-1.18-.47-2.34-.95-3.47a23.52,23.52,0,0,0-2.27-3.92,68.18,68.18,0,0,0-5.09-6.51c-1.85-2.13-4.88,1-3.08,3.07s3.31,4.22,4.84,6.43C488.53,738.28,489.18,739.32,489.92,740.27Z"/><path d="M493.69,733.28a83.71,83.71,0,0,0,6.68,9.1c1,1.23,2.63-.34,2.07-1.6a81.39,81.39,0,0,0-5.08-9.65C495.92,728.81,492.23,731,493.69,733.28Z"/><path d="M338.7,704.3c-9.52,2.52-18.39,8-27.66,11.46a231.44,231.44,0,0,1-28.78,8.71c-20.43,4.7-41.33,6.16-62.24,5.74-2.66-.06-2.58,3.85,0,4.07a210.71,210.71,0,0,0,63.62-4.77,219.38,219.38,0,0,0,30.34-9c8.94-3.43,19.15-6.9,26.47-13.18C341.85,706.08,340.34,703.86,338.7,704.3Z"/><path d="M279.26,718.67a1.35,1.35,0,0,0,.72,2.6c11.25-3,22.53-5.94,33.32-10.35,8.59-3.51,19.37-6.82,26.11-13.34a1.66,1.66,0,0,0-1.61-2.75c-9.81,1.92-19.68,8.61-28.93,12.45C299.07,711.34,289.38,715.46,279.26,718.67Z"/><path d="M278.29,699.66A213.94,213.94,0,0,1,302.35,689c6.58-2.32,13.68-3.1,20-5.94a1.35,1.35,0,0,0-.31-2.44c-15.18-2.86-32.5,10-44.7,17.42A.93.93,0,0,0,278.29,699.66Z"/><path d="M209.87,758.27c3.34,15.77,8.27,30.27,16.23,44.32,7.1,12.54,16.78,26.4,29,34.34,2.33,1.5,4.17-1.68,2.73-3.53-9.22-11.84-19.72-21.94-27.7-34.86a151.93,151.93,0,0,1-17.69-41C212,755.89,209.51,756.6,209.87,758.27Z"/><path d="M247.25,817c4.5,4.34,9,9.88,14.05,13.43,1.21.85,2.62-.55,2.34-1.8-1.26-5.64-6.75-9.44-10.86-13.1-5.64-5-10.62-10.16-14.3-16.81-1.1-2-4-.24-3,1.77A60,60,0,0,0,247.25,817Z"/><path d="M286.3,867.43c3.63,2.28,7.7,1.47,11.7.65,5-1,10.57-2.23,15-4.93,1.42-.88,1-3.67-.93-3.44-8,1-16.61,6.63-24.68,5.22A1.38,1.38,0,0,0,286.3,867.43Z"/><path d="M302.7,792.61a1.57,1.57,0,0,0-1.2,2.85c11.75,8.5,27.24,13.36,40.51,19.09,12.77,5.52,25.33,11.75,38.32,16.73,2,.76,3.32-2.46,1.44-3.43C368.56,821,354.62,815.31,341.13,809,328.87,803.24,316,795.56,302.7,792.61Z"/><path d="M308.44,790.4c11.85,4.26,25.26,6.6,35.91,13.82,1,.65,2.06-.81,1.24-1.6-8.64-8.36-24.71-18.11-37.15-15.94C306.39,787,306.82,789.82,308.44,790.4Z"/><path d="M414.44,848.23c8.16-3.93,13.89-13.09,17.5-21.09,1-2.28-2.19-4.29-3.43-2a66,66,0,0,1-7.89,11.71c-2.71,3.16-5.75,6-8.29,9.27C411.29,847.47,413.22,848.82,414.44,848.23Z"/><path d="M301.84,581.23c1.43.59,2.44-1.52,1.45-2.49-7.07-7-14.31-12.62-19.34-21.44a60.73,60.73,0,0,1-7.82-29.93,1.92,1.92,0,0,0-3.83,0C271.88,547.42,282,573.08,301.84,581.23Z"/><path d="M303.92,574.56c1.33.57,3.09-.69,2.16-2.16-2.51-4-6.38-7-9.31-10.7A127.49,127.49,0,0,1,288,549.09c-.7-1.15-2.68-.42-2.24.95C288.63,558.81,295,570.7,303.92,574.56Z"/><path d="M228.47,485.07a97.4,97.4,0,0,1-8.11-44.31c.11-1.92-2.74-1.84-3,0-1.75,15.75.1,30.86,6.35,45.48,5.59,13.12,15.25,29.12,28.19,36.1a1.84,1.84,0,0,0,2.21-2.87C244.57,508.09,234.62,499,228.47,485.07Z"/><path d="M240.06,484.43a105.42,105.42,0,0,1-11.13-28.28c-.48-2-3.3-1.1-3,.82a92.3,92.3,0,0,0,10.1,29.8c4.22,7.69,10.4,18.34,18.63,22.19a1.39,1.39,0,0,0,1.89-1.89C252.46,498.86,244.75,492.51,240.06,484.43Z"/><path d="M249.72,488.18c1.74,3.21,3.46,6.44,5.23,9.63,1.6,2.87,3.05,6.07,5.52,8.29a1.44,1.44,0,0,0,2.38-1.38c-.64-3.26-2.68-6.16-4.32-9-1.84-3.16-3.73-6.28-5.6-9.42C251.71,484.24,248.58,486.08,249.72,488.18Z"/><path d="M253.24,451.53c.36.73,1.71.41,1.6-.44-1.72-13.35-9.3-26.46-17.8-36.63-.89-1.06-2.63.31-1.9,1.46C242.36,427.4,247.24,439.47,253.24,451.53Z"/><path d="M189.92,380.73a147.72,147.72,0,0,1-10.12-32.08c-4.49-22.74-1.72-44.61,2.74-67.07.27-1.4-1.82-2.54-2.47-1.05-9,20.67-9.73,44.82-6.41,66.85a138.11,138.11,0,0,0,9.61,33.93c4,9.22,8.9,21.71,17.29,27.71,1.57,1.12,3.76-.74,3.22-2.48C201,397.51,193.87,389.47,189.92,380.73Z"/><path d="M214,391.69c-2.3-7.13-6.7-13.5-9.69-20.38a172.53,172.53,0,0,1-8-22.92,176.78,176.78,0,0,1-6.11-49c0-1.71-2.43-1.64-2.6,0a150.42,150.42,0,0,0,3.28,50.48c3.42,14.3,8.9,33.24,19.35,44C211.72,395.51,214.68,393.88,214,391.69Z"/><path d="M218.54,386.15a1.8,1.8,0,0,0,3.27-1.38c-1.1-7.55-5-15.19-8-22.23-3.42-8.23-6.37-16.4-9-24.91a1.3,1.3,0,0,0-2.51.69C206.73,353.41,209.34,373.21,218.54,386.15Z"/><path d="M236.24,390.62c4.51-7.52,8.1-15.17,13.42-22.25,5.74-7.61,11.94-14.86,17.6-22.54,9.63-13.08,20.73-27.55,20.65-44.5a1.21,1.21,0,0,0-2.42,0c-1.55,18.14-18.12,36.38-29,50.15-8.75,11.06-21.27,23.28-24.05,37.53C232,391.27,235,392.74,236.24,390.62Z"/><path d="M306.86,280.75c8.87-15.47,10.54-40.6,8.64-58a1,1,0,0,0-2,0c-.72,10.11-.88,20.08-3,30.05-1.91,8.9-5.51,17.57-6.95,26.52C303.25,281.26,305.77,282.65,306.86,280.75Z"/><path d="M209.41,241.15c3.31-4.71,4-10.76,6.35-16a98.16,98.16,0,0,1,7-12.9,215.6,215.6,0,0,1,22-28.46,218.35,218.35,0,0,1,52.8-43.22c1.34-.77.16-2.76-1.21-2.06A205,205,0,0,0,237.78,183a192.64,192.64,0,0,0-22,28.54c-4.84,7.81-12.26,19.59-10.12,29.12C206.05,242.53,208.46,242.51,209.41,241.15Z"/><path d="M251.08,185.28a150.85,150.85,0,0,0-20.39,26.87c-4.76,8.21-11.49,19.26-11.64,29,0,1.84,2.3,2.21,3.24.88,5.67-8,7.92-18.68,12.62-27.4a162.56,162.56,0,0,1,18.27-27.23C254.4,185.94,252.4,183.85,251.08,185.28Z"/><path d="M243.7,213.36c-5.93,8.81-12.46,21.22-11.89,32.17a1.9,1.9,0,0,0,3.72.5c2-4.75,2.65-10.12,4.24-15.06a145.08,145.08,0,0,1,6.33-16.21A1.39,1.39,0,0,0,243.7,213.36Z"/><path d="M245.67,228.56a40.36,40.36,0,0,0-2.69,8c-.63,2.54-1.56,5.29-.7,7.85.37,1.09,2,1.86,2.88.76,1.68-2.18,1.83-4.72,2.26-7.39a63.73,63.73,0,0,0,1.07-8.46A1.53,1.53,0,0,0,245.67,228.56Z"/><path d="M176.75,518.74c-8-5.85-15.59-12.47-21.59-20.44-11.91-15.82-14.22-36-22.58-53.64-.64-1.34-3-.39-2.44,1,7.14,18.88,8.86,39.26,21.34,55.85,5.75,7.65,12.86,14.09,20.4,19.95,7.3,5.66,15.54,12.49,24.36,15.48,1.89.65,3.2-1.92,1.89-3.25C192.1,527.63,183.68,523.78,176.75,518.74Z"/><path d="M183,509.13c-7.4-6-14.6-12.18-21.5-18.74a1.87,1.87,0,0,0-2.65,2.65,233.43,233.43,0,0,0,22.6,22.1c6.53,5.44,13.73,12.16,21.82,14.94,2,.68,3-1.88,1.88-3.22C199.21,519.88,190.13,514.88,183,509.13Z"/><path d="M313.93,622.49a1.78,1.78,0,0,0,.47-3.48c-6.59-2.73-13.79-3.76-20.47-6.42a148.31,148.31,0,0,1-22.76-11.89c-13.06-8.07-26.5-16.62-38.14-26.65-1.61-1.39-3.87.79-2.35,2.35,11.37,11.73,25.5,20.81,39.29,29.45C282.09,613.43,299,624.07,313.93,622.49Z"/><path d="M267.43,592.55c5.46,3.89,10.9,7.89,17,10.64,4.59,2.06,10.21,5.37,15.27,4a1.61,1.61,0,0,0,.7-2.67c-3.8-3.43-9.45-3.89-14.15-5.66a92,92,0,0,1-17.23-9.13C267.28,588.63,265.76,591.37,267.43,592.55Z"/><path d="M302.81,660.06c-19.75.6-38.18-1.14-57.24-6.65-17.7-5.12-35-11.71-52.45-17.54-2.18-.73-3,2.56-.93,3.38,33.88,13.6,73.82,32.18,111.27,25.61C306.18,664.38,305.53,660,302.81,660.06Z"/><path d="M253.39,651.08a248.4,248.4,0,0,0,35,3.51c11.08.26,24.5,1.45,35.1-2.09,1.8-.6,2.22-3.73,0-4.1-10.72-1.75-22.49.38-33.37.29q-18.12-.13-36.21-1.13C251.88,647.45,251.38,650.74,253.39,651.08Z"/><path d="M198.08,630.64c15,.06,30.08-2.6,45-4.07,1.79-.18,1.86-2.9,0-2.84-15.14.47-30.62.5-45.44,3.91A1.53,1.53,0,0,0,198.08,630.64Z"/><path d="M163.17,647.93c-.14,15.46-11.13,26.34-21.93,36s-23.29,18.84-32.75,30c-1.22,1.44.36,4,2.15,2.79,14.11-9.41,27.16-22.54,39.36-34.31,9.73-9.39,17.31-20.34,16.26-34.4C166.11,646,163.19,645.91,163.17,647.93Z"/><path d="M123.69,695.59c11.7-10.6,26.39-20.45,32.68-35.42.55-1.31-1.61-2.18-2.28-1-7.86,14.29-24.23,21-32.35,34.87A1.25,1.25,0,0,0,123.69,695.59Z"/><path d="M79,766.53c1.64,8.54,6.37,22.17,15.91,24.79a1.53,1.53,0,0,0,1.7-2.22c-1.88-4-5.72-6.85-8.17-10.48a48.53,48.53,0,0,1-6.36-12.94A1.6,1.6,0,0,0,79,766.53Z"/><path d="M125.62,378.42c-2.49,7.72-4.83,15.46-6.74,23.35-1.33,5.44-3,11.06-1.42,16.57.33,1.13,2.25,1.3,2.48,0,2.27-13.2,5.13-26.17,7.85-39.32A1.13,1.13,0,0,0,125.62,378.42Z"/><path d="M668.86,714.63c-9.78-3.57-19.12-9.35-29.14-12-1.64-.44-3.15,1.78-1.75,3,7,6,16.51,9.27,25,12.6a219.94,219.94,0,0,0,31.81,9.62,210.39,210.39,0,0,0,63.62,4.77c2.57-.22,2.66-4.13,0-4.07-20.91.42-41.81-1-62.24-5.74A230.16,230.16,0,0,1,668.86,714.63Z"/><path d="M665.12,709.25c10.79,4.42,22.07,7.36,33.32,10.35a1.35,1.35,0,0,0,.72-2.6c-10.12-3.21-19.82-7.32-29.61-11.4-9.25-3.84-19.13-10.52-28.93-12.44a1.66,1.66,0,0,0-1.61,2.75C645.74,702.42,656.55,705.74,665.12,709.25Z"/><path d="M656.05,681.4c6.34,2.85,13.44,3.63,20,6A213.94,213.94,0,0,1,700.13,698a.93.93,0,0,0,.94-1.6c-12.21-7.43-29.51-20.28-44.7-17.42A1.34,1.34,0,0,0,656.05,681.4Z"/><path d="M720.59,831.73c-1.43,1.83.39,5,2.72,3.52,12.21-7.92,21.92-21.81,29-34.33,7.95-14,12.9-28.57,16.23-44.32.35-1.67-2.14-2.38-2.57-.71a151.93,151.93,0,0,1-17.69,41C740.31,809.79,729.81,819.88,720.59,831.73Z"/><path d="M731.17,815.31A60,60,0,0,0,743,798.8c1-2-1.93-3.76-3-1.77-3.69,6.66-8.66,11.78-14.3,16.81-4.11,3.66-9.6,7.46-10.86,13.1-.28,1.25,1.13,2.65,2.34,1.8C722.22,825.18,726.66,819.65,731.17,815.31Z"/><path d="M691.06,863.26C683,864.67,674.32,859,666.38,858c-1.92-.23-2.35,2.56-.93,3.44,4.41,2.71,9.94,3.89,15,4.93,4,.82,8.07,1.63,11.69-.65A1.37,1.37,0,0,0,691.06,863.26Z"/><path d="M675.72,790.93c-13.27,3-26.19,10.65-38.43,16.38-13.49,6.33-27.43,12-40.65,18.87-1.85,1-.56,4.2,1.45,3.43,13-5,25.55-11.21,38.32-16.73,13.27-5.74,28.76-10.59,40.51-19.09A1.57,1.57,0,0,0,675.72,790.93Z"/><path d="M634.07,802.55c10.65-7.22,24.06-9.57,35.91-13.82,1.61-.58,2-3.37,0-3.72-12.44-2.17-28.51,7.59-37.15,15.94C632,801.74,633.09,803.21,634.07,802.55Z"/><path d="M557.8,835.17a65.58,65.58,0,0,1-7.89-11.7c-1.24-2.29-4.46-.28-3.43,2,3.61,8,9.34,17.16,17.5,21.09,1.22.59,3.15-.76,2.11-2.11C563.55,841.14,560.51,838.34,557.8,835.17Z"/><path d="M675.13,577.06c-1,1,0,3.08,1.45,2.5,19.88-8.16,30-33.81,29.54-53.87-.06-2.45-3.81-2.46-3.83,0a60.84,60.84,0,0,1-7.82,29.94C689.42,564.49,682.23,570.09,675.13,577.06Z"/><path d="M674.5,572.89c8.92-3.86,15.29-15.76,18.13-24.52a1.23,1.23,0,0,0-2.24-1A125.82,125.82,0,0,1,681.65,560c-2.93,3.68-6.81,6.71-9.31,10.69C671.41,572.2,673.17,573.46,674.5,572.89Z"/><path d="M724.26,517.8a1.84,1.84,0,0,0,2.21,2.87c12.94-7,22.6-23,28.19-36.1,6.25-14.63,8.1-29.73,6.34-45.48-.2-1.84-3-1.93-2.94,0A97.42,97.42,0,0,1,750,483.4C743.82,497.32,733.82,506.45,724.26,517.8Z"/><path d="M721.85,505.4a1.39,1.39,0,0,0,1.89,1.89c8.29-3.88,14.36-14.45,18.63-22.19a92,92,0,0,0,10.1-29.8c.32-1.92-2.5-2.79-3-.82a105.55,105.55,0,0,1-11.13,28.28C733.68,490.83,726,497.2,721.85,505.4Z"/><path d="M718,504.43c2.47-2.22,3.92-5.42,5.52-8.29,1.77-3.19,3.48-6.42,5.23-9.63,1.14-2.1-2-3.94-3.21-1.88-1.87,3.14-3.76,6.26-5.6,9.42-1.64,2.84-3.68,5.74-4.32,9A1.44,1.44,0,0,0,718,504.43Z"/><path d="M725.18,449.86c6-12.06,10.88-24.13,18.1-35.61.72-1.14-1-2.53-1.9-1.46-8.49,10.16-16.09,23.28-17.8,36.63C723.47,450.27,724.81,450.59,725.18,449.86Z"/><path d="M774.64,404.87c-.54,1.73,1.64,3.61,3.22,2.48,8.42-6,13.31-18.45,17.28-27.71a137.27,137.27,0,0,0,9.62-33.93c3.31-22,2.62-46.18-6.41-66.85-.64-1.48-2.75-.36-2.47,1,4.47,22.49,7.19,44.32,2.74,67.08a147.72,147.72,0,0,1-10.12,32.08C784.56,387.8,777.44,395.85,774.64,404.87Z"/><path d="M764.44,390c-.7,2.19,2.26,3.82,3.82,2.22,10.43-10.76,15.93-29.76,19.35-44a150.44,150.44,0,0,0,3.27-50.49c-.16-1.62-2.61-1.7-2.59,0a176.85,176.85,0,0,1-6.11,49,171.4,171.4,0,0,1-8,22.91C771.14,376.52,766.74,382.89,764.44,390Z"/><path d="M759.88,384.48c9.2-13,11.81-32.74,16.17-47.83a1.3,1.3,0,0,0-2.51-.69c-2.6,8.51-5.55,16.68-9,24.9-2.92,7.05-6.86,14.69-8,22.24A1.8,1.8,0,0,0,759.88,384.48Z"/><path d="M746,387.34c-2.77-14.24-15.32-26.48-24-37.53-10.91-13.81-27.46-32-29-50.15a1.21,1.21,0,0,0-2.42,0c-.09,16.95,11,31.42,20.65,44.5,5.14,7,10.7,13.64,16,20.5,6,7.73,10,16,15,24.29C743.43,391.05,746.43,389.62,746,387.34Z"/><path d="M664.89,221.12a1,1,0,0,0-2,0c-1.9,17.37-.23,42.49,8.63,58,1.09,1.89,3.62.53,3.31-1.4-1.44-8.95-5-17.62-7-26.52C665.77,241.2,665.61,231.22,664.89,221.12Z"/><path d="M733.64,182.09a219.55,219.55,0,0,1,21.19,27.23,100.9,100.9,0,0,1,7.83,14.13c2.32,5.24,3.06,11.35,6.35,16,1,1.35,3.36,1.37,3.78-.5,2.15-9.6-5.25-21.23-10.12-29.13a190.71,190.71,0,0,0-22-28.53A205.57,205.57,0,0,0,682,136.81a1.19,1.19,0,0,0-1.2,2.06A218.54,218.54,0,0,1,733.64,182.09Z"/><path d="M727.34,183.61c-1.32-1.43-3.32.66-2.11,2.11A162.41,162.41,0,0,1,743.51,213c4.7,8.71,7,19.42,12.62,27.4.94,1.32,3.26,1,3.24-.88-.15-9.79-6.86-20.72-11.64-29A150,150,0,0,0,727.34,183.61Z"/><path d="M732.32,213.09a145.08,145.08,0,0,1,6.33,16.21c1.59,4.95,2.25,10.29,4.24,15.06.8,1.91,3.61,1.77,3.72-.5.57-11-6-23.35-11.9-32.17A1.39,1.39,0,0,0,732.32,213.09Z"/><path d="M732.74,226.89a1.52,1.52,0,0,0-2.81.77,62.12,62.12,0,0,0,1.07,8.46c.43,2.67.58,5.21,2.26,7.39.86,1.1,2.51.33,2.88-.76.86-2.56-.07-5.31-.7-7.85A39.54,39.54,0,0,0,732.74,226.89Z"/><path d="M801.67,517.07c-6.92,5-15.36,8.9-21.38,15-1.31,1.32,0,3.9,1.89,3.25,8.84-3,17-9.82,24.36-15.48,7.55-5.85,14.64-12.3,20.4-20,12.49-16.57,14.2-37,21.34-55.85.53-1.4-1.79-2.39-2.44-1-8.36,17.59-10.65,37.84-22.58,53.64C817.25,504.6,809.71,511.22,801.67,517.07Z"/><path d="M775.15,528.41c8.1-2.78,15.29-9.49,21.82-14.94a234.58,234.58,0,0,0,22.6-22.1,1.87,1.87,0,0,0-2.65-2.65c-6.9,6.56-14.1,12.75-21.51,18.74-7.15,5.78-16.18,10.73-22.14,17.73C772.13,526.53,773.18,529.09,775.15,528.41Z"/><path d="M687,609.83c-7.48,3.22-15.54,4.42-23,7.51a1.78,1.78,0,0,0,.47,3.48c14.87,1.57,31.87-9.08,44-16.64,13.79-8.64,27.91-17.72,39.29-29.45,1.52-1.56-.74-3.74-2.35-2.36-11.64,10-25.08,18.59-38.14,26.66A157.21,157.21,0,0,1,687,609.83Z"/><path d="M678.68,605.55c5.1,1.35,10.64-1.95,15.27-4,6.14-2.75,11.58-6.75,17-10.64,1.67-1.18.15-3.93-1.63-2.79a90.45,90.45,0,0,1-17.23,9.12c-4.71,1.76-10.36,2.24-14.15,5.67A1.61,1.61,0,0,0,678.68,605.55Z"/><path d="M785.3,634.2c-17.47,5.83-34.76,12.42-52.45,17.54-19.05,5.51-37.49,7.25-57.24,6.65-2.69-.08-3.4,4.31-.65,4.79,37.45,6.58,77.4-12,111.27-25.6C788.27,636.76,787.48,633.47,785.3,634.2Z"/><path d="M690.07,652.91a244,244,0,0,0,35-3.51c2-.33,1.53-3.62-.48-3.51q-18.09,1-36.21,1.13c-10.9.09-22.64-2-33.37-.29-2.22.37-1.8,3.49,0,4.1C665.6,654.38,679,653.16,690.07,652.91Z"/><path d="M735.3,624.9c15,1.47,30,4.13,45,4.07,1.68,0,2.12-2.61.4-3-14.82-3.41-30.3-3.44-45.44-3.91C733.44,622,733.51,624.72,735.3,624.9Z"/><path d="M837.18,682.23c-10.79-9.63-21.79-20.51-21.93-36a1.55,1.55,0,0,0-3.09,0c-1,14.06,6.53,25,16.26,34.4,12.2,11.76,25.25,24.9,39.36,34.3,1.77,1.19,3.38-1.33,2.15-2.78C860.47,701.06,848.06,691.93,837.18,682.23Z"/><path d="M854.72,693.92a1.25,1.25,0,0,0,2-1.51c-8.12-13.88-24.49-20.58-32.35-34.87-.66-1.2-2.84-.37-2.28,1C828.34,673.47,843,683.32,854.72,693.92Z"/><path d="M896.31,764A48.53,48.53,0,0,1,890,777c-2.45,3.64-6.29,6.52-8.18,10.48a1.53,1.53,0,0,0,1.71,2.22c4.61-1.27,7.77-5.78,10.27-9.61a41.26,41.26,0,0,0,5.64-15.18A1.6,1.6,0,0,0,896.31,764Z"/><path d="M858.48,416.67c.23,1.3,2.15,1.13,2.47,0,1.6-5.51-.09-11.13-1.41-16.57-1.91-7.89-4.25-15.63-6.75-23.35a1.12,1.12,0,0,0-2.16.59C853.34,390.5,856.21,403.47,858.48,416.67Z"/><path d="M462.84,337.53c5.82,1,11.66.91,17.54,1.12,2.69.1,5.41.36,8.13.5a7.84,7.84,0,0,0,5.84,5.29c.13,2.91.43,5.83.53,8.71.21,5.88.14,11.72,1.12,17.54a.92.92,0,0,0,1.76,0c1-5.82.92-11.66,1.13-17.54.1-3,.41-6,.54-9a7.87,7.87,0,0,0,4.86-5c3-.12,6.09-.44,9.1-.55,5.88-.21,11.72-.14,17.53-1.12a.92.92,0,0,0,0-1.76c-5.81-1-11.65-.92-17.53-1.12-2.88-.11-5.8-.4-8.7-.54a8.1,8.1,0,0,0-5.34-6.47c-.15-2.51-.38-5-.46-7.5-.21-5.87-.15-11.72-1.13-17.53a.92.92,0,0,0-1.76,0c-1,5.81-.91,11.66-1.12,17.53-.09,2.4-.3,4.82-.45,7.23a8.06,8.06,0,0,0-6.3,6.8c-2.59.14-5.19.39-7.75.48-5.88.2-11.72.14-17.54,1.12A.92.92,0,0,0,462.84,337.53Z"/><path d="M334.54,381c-.15-2.51-.38-5-.46-7.49-.21-5.88-.14-11.72-1.13-17.54a.92.92,0,0,0-1.76,0c-1,5.82-.91,11.66-1.12,17.54-.08,2.39-.3,4.81-.45,7.23a8.05,8.05,0,0,0-6.3,6.79c-2.59.15-5.19.39-7.75.48-5.88.21-11.72.14-17.54,1.12a.92.92,0,0,0,0,1.76c5.82,1,11.66.92,17.54,1.13,2.69.09,5.41.35,8.13.5a7.84,7.84,0,0,0,5.84,5.28c.13,2.91.43,5.83.53,8.72.21,5.88.14,11.72,1.12,17.53a.92.92,0,0,0,1.76,0c1-5.81.92-11.65,1.13-17.53.1-3,.42-6,.54-9a7.89,7.89,0,0,0,4.86-5c3-.13,6.09-.45,9.1-.55,5.88-.21,11.72-.14,17.53-1.13a.92.92,0,0,0,0-1.76c-5.81-1-11.65-.91-17.53-1.12-2.88-.1-5.8-.4-8.7-.53A8.11,8.11,0,0,0,334.54,381Z"/><path d="M215.75,830.26c-5.81-1-11.66-.91-17.53-1.12-2.88-.1-5.8-.4-8.71-.53a8.1,8.1,0,0,0-5.33-6.48c-.15-2.51-.38-5-.47-7.49-.2-5.88-.14-11.72-1.12-17.53a.92.92,0,0,0-1.76,0c-1,5.81-.91,11.65-1.12,17.53-.09,2.39-.3,4.81-.45,7.23a8.06,8.06,0,0,0-6.31,6.79c-2.59.15-5.18.39-7.74.48-5.88.21-11.73.14-17.54,1.12a.92.92,0,0,0,0,1.76c5.81,1,11.66.92,17.54,1.13,2.68.09,5.41.35,8.12.5a7.88,7.88,0,0,0,5.84,5.28c.14,2.91.44,5.84.54,8.72.21,5.88.14,11.72,1.12,17.53a.92.92,0,0,0,1.76,0c1-5.81.92-11.65,1.12-17.53.11-3,.42-6,.55-9a7.92,7.92,0,0,0,4.86-5c3-.13,6.09-.45,9.1-.55,5.87-.21,11.72-.14,17.53-1.13A.92.92,0,0,0,215.75,830.26Z"/><path d="M934.13,580.71c-5.82-1-11.66-.91-17.54-1.12-2.88-.1-5.79-.4-8.7-.53a8.11,8.11,0,0,0-5.34-6.48c-.14-2.5-.37-5-.46-7.49-.21-5.88-.14-11.72-1.12-17.53a.92.92,0,0,0-1.76,0c-1,5.81-.92,11.65-1.13,17.53-.08,2.39-.3,4.81-.45,7.23a8.06,8.06,0,0,0-6.3,6.79c-2.59.15-5.18.39-7.75.48-5.88.21-11.72.14-17.53,1.12a.92.92,0,0,0,0,1.76c5.81,1,11.65.92,17.53,1.13,2.69.09,5.41.35,8.13.5a7.84,7.84,0,0,0,5.84,5.28c.13,2.91.43,5.84.53,8.72.21,5.88.14,11.72,1.13,17.53a.92.92,0,0,0,1.76,0c1-5.81.91-11.65,1.12-17.53.1-3,.42-6,.55-9a7.92,7.92,0,0,0,4.86-5c3-.13,6.08-.45,9.09-.55,5.88-.21,11.72-.14,17.54-1.13A.92.92,0,0,0,934.13,580.71Z"/><path d="M444.55,293.31a15.7,15.7,0,1,0-15.7-15.69A15.71,15.71,0,0,0,444.55,293.31Zm0-26a10.3,10.3,0,1,1-10.31,10.3A10.31,10.31,0,0,1,444.55,267.32Z"/><path d="M529.39,243a15.7,15.7,0,1,0-15.69-15.69A15.71,15.71,0,0,0,529.39,243Zm0-26a10.31,10.31,0,1,1-10.3,10.31A10.32,10.32,0,0,1,529.39,217Z"/><path d="M822,231.35a15.7,15.7,0,1,0-15.69-15.7A15.71,15.71,0,0,0,822,231.35Zm0-26a10.31,10.31,0,1,1-10.3,10.3A10.31,10.31,0,0,1,822,205.35Z"/><path d="M817.6,759.38a15.7,15.7,0,1,0,15.69,15.7A15.71,15.71,0,0,0,817.6,759.38Zm0,26a10.3,10.3,0,1,1,10.3-10.3A10.31,10.31,0,0,1,817.6,785.38Z"/><path d="M103.13,594.34a15.7,15.7,0,1,0-15.69-15.69A15.71,15.71,0,0,0,103.13,594.34Zm0-26a10.31,10.31,0,1,1-10.3,10.31A10.32,10.32,0,0,1,103.13,568.34Z"/></svg>