<svg id="Layer_1" data-name="Layer 1" xmlns="http://www.w3.org/2000/svg" viewBox="0 0 1000 1000"><defs><style>.cls-1{fill:#a6dde5;}.cls-2{fill:#fad0e2;}.cls-3{fill:#faf7ec;}.cls-4{fill:#38c2d5;}</style></defs><title>Capicorn</title><path class="cls-1" d="M696.43,720.57a10.3,10.3,0,1,0,10.3,10.3A10.31,10.31,0,0,0,696.43,720.57Z"/><path class="cls-1" d="M726.37,506.42a10.3,10.3,0,1,0,10.3,10.3A10.31,10.31,0,0,0,726.37,506.42Z"/><path class="cls-1" d="M176.93,222.75C167.69,205.63,149,199.09,130.51,201a164.13,164.13,0,0,0-28.34,25.1c17.31-4.36,35.83-4.69,48.84,9.9,12.15,13.63,13.66,31.79,12.22,49.23A134.08,134.08,0,0,1,186.85,275c.32-9.62-1.1-19-3-28.5C182.29,238.38,180.89,230.08,176.93,222.75Z"/><path class="cls-1" d="M56.12,333.47a362.53,362.53,0,0,0-3.47,38.21q-.18,4.41-.21,8.76c14.24-16.87,38.21-32.55,60.08-26.82q1.24-4.31,2.73-8.53C98.23,330,77.53,323.94,56.12,333.47Z"/><path class="cls-1" d="M128.94,260.62c-14.44-12.11-32.81-10-49-2.77A195,195,0,0,0,67.21,287c11.45-7.71,28.7-11.07,40.5-6.45,12.85,5,22.29,16.51,25.68,29.67a93.86,93.86,0,0,1,16.7-16.33c-2.45-5.41-3.38-11.43-6.63-16.7A69.92,69.92,0,0,0,128.94,260.62Z"/><path class="cls-1" d="M109.94,454.7c-5,3.76-9.34,7.64-12.36,13.4-2.31,4.43-3.07,10.76-5.61,15.23a22.11,22.11,0,0,0,7.32,3.15c8.1,1.76,17.56-3.74,15.29-13Q111.91,464.33,109.94,454.7Z"/><path class="cls-1" d="M105.23,403.69c-17.15,4.94-34.58,7.88-45.66,23.52a3.67,3.67,0,0,1-.75.77,118.77,118.77,0,0,0,6.71,16.67c1.66,3.36,3.39,6.87,5.21,10.4,4.92-15.93,18.67-34.43,34.65-37.68C105.2,412.82,105.14,408.25,105.23,403.69Z"/><path class="cls-1" d="M256,603.19a10.3,10.3,0,1,0,10.3,10.3A10.31,10.31,0,0,0,256,603.19Z"/><circle class="cls-1" cx="447.78" cy="194.86" r="10.3"/><path class="cls-1" d="M946.89,357.42c-.64-8.26-1.58-16.56-2.85-24.82-21.31-8.66-41.79-2-58.58,13.48a2.05,2.05,0,0,1-.45.34c.86,2.54,1.65,5.11,2.39,7.68,21.66-7,45.75,7.79,60.59,24.5C947.85,371.55,947.43,364.48,946.89,357.42Z"/><path class="cls-1" d="M890.77,453.68c-1.35,6.92-3,13.76-4.95,20.46-2.65,10.74,9.41,15.18,17.81,12.25a23.49,23.49,0,0,0,6.21-3.38c-2.45-4.45-3.2-10.62-5.49-15C901.07,461.74,896.27,457.75,890.77,453.68Z"/><path class="cls-1" d="M932.25,285.33a195.49,195.49,0,0,0-13-28.75c-15.56-6.27-32.61-7.54-46.29,3.93a68.28,68.28,0,0,0-15.3,17.81c-3.17,5.51-3.86,11.87-6.8,17.3a97.71,97.71,0,0,1,17,17.2c2.72-14.27,12.55-27.08,26.29-32.4C905.23,276.16,920.89,278.74,932.25,285.33Z"/><path class="cls-1" d="M730.34,269.7a164.62,164.62,0,0,1,27.32-2.48c-12.81-14.65-21.69-32.59-29.39-50.33-7.57-17.43-4.56-34.58,3.64-50.83a263.67,263.67,0,0,0-34.8,4.35C685.65,208.38,702.35,243.81,730.34,269.7Z"/><path class="cls-1" d="M651.52,276.08c5.45,7.62,13.17,12.79,21.19,17.42a3.71,3.71,0,0,1,.32.23c1-.76,2-1.54,3-2.27a126.67,126.67,0,0,1,22-12.16c-21-5.27-39.16-20.75-44.87-41.78-5-18.24-4.37-41.49,7.27-57.28a246.41,246.41,0,0,0-24.83,10.16c-.57.27-1.12.56-1.69.84-1.6,19.36-2.38,38.6,4.39,57.21C641.71,257.72,645.74,268,651.52,276.08Z"/><path class="cls-1" d="M726.91,320a117.32,117.32,0,0,0-34.09,10.77c-22.48,11.27-39.76,29.94-46.58,54.38-1,3.46-5,4.12-7.51,2-4.67-4-9.4-7.84-14.16-11.69-.14.18-.25.36-.39.54-6.07,7.79-15,10.71-24.66,10.94-20.47.5-41.55-8-57.41-20.51-9.13-7.22-17.75-16.32-22.3-27.17-3.91-9.32-3.16-18.2-.29-27.38H481.07c2.71,8.95,3.33,17.64-.49,26.74-8.34,19.91-28.94,34.57-48.55,41.93-17,6.38-43,11.28-55.82-5.19-.13-.17-.25-.36-.38-.54q-7.15,5.78-14.16,11.7c-2.53,2.14-6.55,1.47-7.51-2-6.83-24.44-24.11-43.11-46.58-54.38a117.07,117.07,0,0,0-35.32-11c-12.62-1.86-29-3.62-41.36.8a162.6,162.6,0,0,0,3.82,28.78c1.73,7.92,2.78,19.28,6.72,26.36,1,1.75,2.45,2.8,3.31,4.72,1.22,2.75,1.59,6,2.63,8.84a57.42,57.42,0,0,0,10.4,17.74c17.78,20.67,47.46,28.11,73.74,24.44a4.67,4.67,0,0,1,1.88.1c-.39-2.85-.82-5.74-1.32-8.65a2,2,0,0,1-1.2.64c-15,2.22-31.15-5.81-40.2-17.66-10.57-13.84-12.68-32.49-24.54-45.43a.75.75,0,0,1,1.07-1.06C277.7,367.88,283,380.07,289.62,392c4.34,7.79,9.71,14.73,17.62,19.16,7.5,4.21,15.43,4.88,23.64,6.53a2.17,2.17,0,0,1,.38.16A122.91,122.91,0,0,0,326,398.56c-3.21,1.29-7.82-.57-10.67-2a28.28,28.28,0,0,1-9.56-8.41c-1-1.36,1.22-3,2.34-1.81a23.09,23.09,0,0,0,9.56,6.15c1.9.68,4.29.79,6.38,1.31-.69-1.54-1.44-3.05-2.23-4.51a1.6,1.6,0,0,1-.53.14c-4.5.44-8.52-2.36-11.58-5.45-1.29-1.31.49-3.79,2-2.62a33.37,33.37,0,0,0,7.72,3.91c-4.94-7.64-11.58-13.76-20.65-17.12-5.39-2-3.05-10.67,2.38-8.67,25.07,9.28,34.16,34.56,38.81,58.82,5.88,30.75,5.42,61.41,8.21,92.42,5.22,57.87,33.14,110.79,59.67,161.66,1.27-9.1,2.79-18.16,2.91-27.38.23-18.79-6.55-36.87-15.75-53-2.88-5,4.89-9.56,7.75-4.54,8.29,14.51,14.42,30.12,16.36,46.8,2,17-3.1,33.44-3.88,50.4-.79,17.24,1.7,34.44,10.08,49.73,8,14.52,22.59,22.57,38.36,26.21,15.26,3.53,30.17.56,45.48,2.14a74.6,74.6,0,0,0,47.23-10.49c29.4-17.8,30.49-52.26,26.58-82.68-3.65-28.37-2.25-57.31,14.62-81.47,3.29-4.71,11.08-.22,7.76,4.53-11.65,16.69-15.69,35.8-15.15,55.94.22,8.26,1.3,16.39,2.26,24.52C619,622.23,647,569.28,652.19,511.37c2.8-31,2.34-61.66,8.22-92.41,4.63-24.26,13.74-49.55,38.8-58.82,5.44-2,7.77,6.68,2.39,8.67-9,3.34-15.65,9.42-20.58,17,3.13-1.41,6.38-2.42,9.18-4.55,1.55-1.18,3.3,1.32,2,2.62-3.06,3.09-7.08,5.89-11.58,5.45a1.81,1.81,0,0,1-1.3-.8q-1.55,2.71-2.87,5.63c2.35-1,5.42-.92,7.79-1.77a23.09,23.09,0,0,0,9.56-6.15c1.13-1.23,3.37.47,2.34,1.81a28.28,28.28,0,0,1-9.56,8.41c-3.1,1.53-8.33,3.66-11.51,1.59a1,1,0,0,1-.19-.16c-4.16,10.58-6.39,22.49-7.91,33.64a4.67,4.67,0,0,1,1.88-.1c26.29,3.67,56-3.78,73.75-24.44a58,58,0,0,0,10.8-18.86c1.79-5.23,3.84-9.31,6-14.09,3.52-7.83,4.84-18,6.61-26.35a158.47,158.47,0,0,0,3.47-27.14C756.8,316,739.83,317.91,726.91,320ZM256.22,384.38c-.57,2-3.24,1.4-3.45-.46-.93-8.4-7.31-14.63-8.35-23.27-1.27-10.62-2.31-20.8-5.37-31.1-.44-1.48,1.75-2,2.27-.63,3.81,10.36,5.41,20.63,7.24,31.43C250,368.62,258.63,375.88,256.22,384.38Zm19.9,25.53c5.48,4.62,12.27,6.4,18,10.43,1.14.79.91,3.13-.8,2.94-6.4-.7-12.49-4.57-17.46-8.49-5.27-4.16-8.1-10.22-13.11-14.43-1.29-1.09.47-3.36,1.81-2.34C269,401.39,271.86,406.3,276.12,409.91Zm215.42-36.73c1,11.91,2.89,24.24,2,36.19-.16,2.13-3.43,2.85-3.93.53-2.56-11.91-2.38-24.59-3.05-36.72C486.38,370,491.28,370,491.54,373.18ZM493,434.1a.09.09,0,0,1,0-.18A.09.09,0,0,1,493,434.1ZM483.39,548c.06-2.5,3.53-2.37,3.79,0,1,9.38,2.39,21.43-1.48,30.32-.69,1.57-3.55,1.21-3.79-.49-.65-4.7.32-9.32.67-14C483,558.54,483.26,553.25,483.39,548Zm-2.34-160.18c.88,7.58,2.27,16.21.28,23.7-.55,2.05-3.88,2.22-4.33,0-1.55-7.65-.69-15.91-1.35-23.7C475.35,384.3,480.66,384.43,481.05,387.81Zm-8.69,189.83c-.23,2-3.57,3-3.93.53-3-20.52-4.42-40.51-11.53-60.23-3.61-10-8-20-14-28.83-5.88-8.52-13.78-15-21.06-22.29a1.41,1.41,0,0,1,1.7-2.2c17.87,11.07,28.51,26.5,36.32,45.81C468.09,530.93,474.92,555.33,472.36,577.64ZM390.55,419.2c-2.6-.37-5.3-.69-7.2-2.66a1.62,1.62,0,0,1,.71-2.67c2.29-.6,4.45.09,6.73.52a52.34,52.34,0,0,0,8.29.83c2.92.07,2.92,4.5,0,4.52A57.91,57.91,0,0,1,390.55,419.2Zm3.13,7.38c-1.79.18-3.59.42-5.39.51a22.34,22.34,0,0,1-5-.59c-1.55-.26-1.24-2.41,0-2.84a22.51,22.51,0,0,1,5-1.35c1.79-.18,3.6-.25,5.39-.36C396.69,421.76,396.6,426.29,393.68,426.58Zm-12.39-22.7c-.83-.85-.28-2.65,1-2.52,6.62.63,12.63,3.18,19.44,2.76a146.47,146.47,0,0,0,22.32-3.54c1.87-.41,2.66,2.43.79,2.88C412.27,406.51,392.3,415.15,381.29,403.88Zm-3.4-12.83c6.54-.73,13.13,1.32,19.6,2.24a59,59,0,0,0,22.54-1c13.75-3.19,27.08-7.58,39.21-14.9,1.21-.73,2.27,1.12,1.1,1.88-24.24,15.84-54.52,26.5-83,15.5A1.92,1.92,0,0,1,377.89,391.05Zm-1.19,56c10.19,1.4,24.75,1.49,31.79,10.3a1.63,1.63,0,0,1-2,2.54c-9.79-5.21-19.91-7.32-30.61-10C374,449.41,374.89,446.79,376.7,447Zm-15.17-24.56c1.63,4.53,2.91,9.38,2.27,14.23-.18,1.31-2.18,1.88-2.52.34-1-4.58-1.39-9.24-2.6-13.79A1.48,1.48,0,0,1,361.53,422.48Zm-3.16,41.8c-1.91.72-3.93,1.81-6,1.49a1.92,1.92,0,0,1-.85-3.19c1.54-1.35,3.91-1.51,5.85-1.92A1.88,1.88,0,0,1,358.37,464.28ZM295.85,384c4.51,5.42,9.12,11.06,15,15.05a31.94,31.94,0,0,0,9.32,4.38c2.47.69,4.73.78,7,2.05a1.62,1.62,0,0,1,0,2.78c-5.77,2.67-13-1.37-17.73-4.78-6.51-4.7-11.33-11.19-16.08-17.57C292.29,384.42,294.71,382.59,295.85,384Zm-11-54.13c-1.59-.38-1.26-3.1.4-2.9,14.9,1.82,28.09,8.64,38.89,19,11.15,10.71,22.61,26,26.28,41.19a1.48,1.48,0,0,1-2.69,1.13c-9.14-11.9-14.6-25.65-25.3-36.6C312.05,341,299.34,333.25,284.85,329.82Zm53.92,66.43c-.56-1.35,1.69-2.25,2.35-1,7.08,13.73,15.7,29,15.46,44.92a1.8,1.8,0,0,1-3.52.48C349.12,425.32,344.86,411,338.77,396.25Zm12.83,57.87a5.09,5.09,0,0,1,2.82-.11,2.33,2.33,0,1,1-.62,4.59c-.49-.11-1-.18-1.47-.31a3.94,3.94,0,0,1-1.58-1C349.56,456.25,350.38,454.62,351.6,454.12Zm-1.21,18.53c.81-2.33,3.24-2.89,5.33-3.86a41.34,41.34,0,0,1,7.14-2.72c1.28-.33,2.54,1.45,1.38,2.38a40.89,40.89,0,0,1-6.31,4.11c-1.95,1.06-4.08,2.88-6.37,2.16A1.7,1.7,0,0,1,350.39,472.65Zm18.72,11.26c-5.16,2.71-9.68,6.62-15,9a1.82,1.82,0,0,1-2.2-2.83c8.93-9.89,24.37-15.9,37.54-15.65a1.81,1.81,0,0,1,0,3.61A48.61,48.61,0,0,0,369.11,483.91Zm14.62.42a68.47,68.47,0,0,0-15.16,9c-4.69,3.66-8.2,8.42-12.69,12.25a1.66,1.66,0,0,1-2.59-2c4.92-11,18.39-18.37,29.21-22.17C384.2,480.81,385.38,483.62,383.73,484.33Zm-30.37,33.76c-.91.86-2.89,0-2.31-1.35,3.7-8.82,12.51-16.2,19.87-21.94,1.68-1.31,4.08,1,2.39,2.38a100,100,0,0,0-10.54,9.94C359.54,510.66,356.86,514.82,353.36,518.09Zm2,4.46c-.22-2.73,1.78-5.24,3.26-7.36a60.63,60.63,0,0,1,5.52-6.77c1.78-1.9,4.6.94,2.85,2.86a52.41,52.41,0,0,0-5.26,6.72c-1.31,2-2.27,4.42-4.39,5.69A1.34,1.34,0,0,1,355.36,522.55Zm1.79,5.91c1-1.48,1.71-3.12,2.67-4.65a31.93,31.93,0,0,0,2.58-4.87c1-2.5,5.15-1.39,4.1,1.13a32.41,32.41,0,0,1-2.87,5.59,19.64,19.64,0,0,1-4.49,4.33C358.11,530.81,356.26,529.73,357.15,528.46Zm2.7,10.6c.26-3.41,2.57-7,4-10.06.76-1.62,3.55-.43,2.89,1.22-1.24,3.13-2.25,7.29-4.54,9.81A1.38,1.38,0,0,1,359.85,539.06Zm6.55,15.58a0,0,0,0,1-.09,0c.19-.87.38-1.74.58-2.6,0-.06.1,0,.08,0Zm1.15-14.32a32.48,32.48,0,0,1-2.88,6.18,1,1,0,0,1-1.89-.8,31,31,0,0,1,1.93-6.16C365.38,537.77,368.25,538.57,367.55,540.32Zm33,104.67c-7.95-7.11-11.15-20.28-14.16-30.13-4-13-7.47-26.22-14.17-38.19a1.46,1.46,0,0,1,2.51-1.47c6.51,10.32,10.34,21.52,14,33.08,1.87,5.89,3.73,11.8,6,17.56,2.38,6.07,6.08,11.66,8.07,17.84C403.25,645,401.5,645.84,400.55,645Zm-3.79-34q2.5,6.15,5,12.3c1.51,3.69,3.38,7.34,3.76,11.34.18,2-2.46,2.22-3.4.92-2.34-3.22-3.31-7.36-4.6-11.09q-2.16-6.26-4.31-12.5C392.45,609.68,395.89,608.86,396.76,611Zm-2.58-137.69a69,69,0,0,0-19.73-2.89c-5.79,0-5.79-9,0-9,59.83.24,89.78,63.48,86.18,116.4-.39,5.75-9.38,5.77-9,0a127.92,127.92,0,0,0-1.89-31.61c-5.86,2.08-14.52.7-19.89-.06a33.25,33.25,0,0,1-19.64-9.69c-1.39-1.38.63-3.21,2.08-2.08,11.15,8.62,23.73,5.26,36.25,6-.28-1.21-.57-2.42-.89-3.62-14,4.61-30-2-38.26-13.75C399.23,508.47,396.31,490.54,394.18,473.29Zm40.94,184.76c1.58-6,4.54-11.59,6.56-17.45a167.8,167.8,0,0,0,5.1-18c.51-2.26,3.8-1.27,3.42.94-2,11.79-4.67,25.95-11.68,35.91C437.34,661.16,434.56,660.17,435.12,658.05Zm-4.32.49c-.87,1.32-3.44,1-3.27-.89,1-10.44,5.58-20.84,8.37-30.95,3.08-11.19,5.52-22.6,7.74-34,.33-1.7,3.19-1.31,3,.41a272.42,272.42,0,0,1-5.3,33.36C439,637,436.82,649.44,430.8,658.54Zm15-5.49c1.16-4.09,2.37-8.17,3.48-12.27.55-2,3.32-1.11,3.05.84-.59,4.24-1.27,8.44-2.26,12.61-.88,3.67-1.51,7.79-3.72,10.91a1.74,1.74,0,0,1-3.21-.87C443.12,660.44,444.79,656.71,445.83,653.05Zm6.11,9.39a25.76,25.76,0,0,0,.65-7.42c-.11-2.25,3.14-2.11,3.41,0,.59,4.58.62,11.34-3,14.82a1.55,1.55,0,0,1-2.61-1.08C450.53,666.58,451.41,664.55,451.94,662.44ZM419.1,588.85c-.05,0-.05-.09,0-.09A0,0,0,0,1,419.1,588.85Zm-17-7.35c-.17-3,1-5.85,1-8.87,0-2.8,4.18-2.76,4.32,0,.16,3.38,0,7.52-2.54,10A1.64,1.64,0,0,1,402.11,581.5Zm5.25,4.64c-1-3.2.49-7.09,1.12-10.26.58-2.87,5-1.65,4.4,1.22-.66,3.21-.86,7.09-3,9.7A1.51,1.51,0,0,1,407.36,586.14Zm3.66,9.19c-.31-3.25.67-6.44,1.31-9.61.77-3.83,1.44-7.66,1.94-11.54.35-2.75,4.68-2.83,4.38,0-.7,6.85-.86,16.1-4.89,21.89A1.48,1.48,0,0,1,411,595.33Zm7.19,14.91c-.6,1-2.42.66-2.32-.63,1.11-14.31,7.86-26.33,4.31-41.17a1.41,1.41,0,0,1,2.71-.75C427.07,581.11,425.61,598.12,418.21,610.24Zm2.39,2.82c-.15-4.93,2.82-10.56,4.58-15.07.8-2.07,4.08-1.26,3.38.93q-1.26,3.9-2.39,7.85c-.69,2.42-1.19,5-2.6,7.1A1.61,1.61,0,0,1,420.6,613.06ZM439.8,732.5c-6.94-5.78-13-13.16-15.5-22-2.93-10.39-1.51-22.43-2.67-33.14-.23-2.08,2.77-2.57,3.72-1,4.87,7.94,2.4,17.08,2.91,25.91.66,11.53,7.85,19.31,13.72,28.57C442.88,732.24,440.94,733.44,439.8,732.5Zm35.92-.69a16.29,16.29,0,0,1-26.21,0c-7.05-9.84-8.42-24.38-6.11-36a36.11,36.11,0,0,0-4.71-.68c-5.74-.44-5.77-9.43,0-9,12.28.94,23.74,6.22,31.68,15.82C476.9,709.76,482.6,722.36,475.72,731.81Zm8.66,7.23a1.47,1.47,0,0,1-2.44-1.42c1.82-9.06,5-16.69,2.39-26.16a35.58,35.58,0,0,0-15.61-20.72,1.39,1.39,0,0,1,1.4-2.39C486.42,697.25,499.87,722.94,484.38,739Zm13.22-81.7a1.55,1.55,0,0,1-3.09,0c-1.13-15.55.13-31.37-.37-47-.06-1.78,2.63-1.75,2.74,0C497.83,625.77,499.45,642,497.6,657.34Zm-.09-81c-.55,2.06-4,2.27-4.4,0-1.42-7.76-.73-15.85-1.39-23.7-.26-3.11,5-3.81,5.45-.74C498.25,559.85,499.61,568.42,497.51,576.32ZM500.41,461c-1.88-23.9.31-48.39-.44-72.4-.09-3,4.52-3,4.71,0,1.47,23.78,3.6,49.32-.41,72.92C503.87,463.83,500.57,463,500.41,461Zm5.28,187.16c-.4,1.36-2.72,1.57-3,0-1.17-7.11-1.59-16.07.14-23.1a1.35,1.35,0,0,1,2.57,0C508,631.84,507.68,641.19,505.69,648.13Zm1.48-73a1.93,1.93,0,0,1-3.47-.45c-.94-2.65-.2-5.56-.15-8.33a60.05,60.05,0,0,0-.67-10c-.45-2.94,4-4.25,4.53-1.25a66.9,66.9,0,0,1,1.16,10.56C508.65,568.8,509,572.45,507.17,575.15Zm137.39-114.6c1.94.41,4.31.57,5.85,1.92a1.92,1.92,0,0,1-.85,3.19c-2.07.32-4.09-.77-6-1.48A1.88,1.88,0,0,1,644.56,460.55Zm-4.16-38.18a1.48,1.48,0,0,1,2.85.79c-1.21,4.54-1.59,9.21-2.6,13.78-.34,1.55-2.34,1-2.52-.34C637.49,431.75,638.77,426.9,640.4,422.37ZM626,449.78c-10.7,2.68-20.82,4.78-30.61,10a1.63,1.63,0,0,1-2-2.54c7-8.81,21.59-8.9,31.79-10.3C627.05,446.68,627.91,449.3,626,449.78Zm-17.76-27.94c1.79.11,3.6.18,5.39.37a21.46,21.46,0,0,1,5,1.34c1.24.43,1.55,2.58,0,2.84a23,23,0,0,1-5,.6c-1.8-.09-3.6-.34-5.39-.52C605.33,426.18,605.24,421.65,608.25,421.84Zm-5.4-2.2c-2.92,0-2.91-4.46,0-4.53a51.19,51.19,0,0,0,8.29-.83c2.28-.43,4.44-1.12,6.73-.51a1.61,1.61,0,0,1,.71,2.66c-1.9,2-4.6,2.29-7.2,2.66A57.92,57.92,0,0,1,602.85,419.64Zm-25.8-16.29c-1.87-.45-1.07-3.29.79-2.88A151.6,151.6,0,0,0,600.16,404c6.88.47,12.77-2.12,19.44-2.76,1.32-.12,1.86,1.67,1,2.52C609.62,415.05,589.67,406.41,577.05,403.35Zm-34.36-26c12.13,7.32,25.46,11.71,39.21,14.9a62.33,62.33,0,0,0,25.37.54c5.59-.91,11.1-2.45,16.77-1.81a1.92,1.92,0,0,1,.51,3.75c-28.46,11-58.7.35-83-15.5A1.09,1.09,0,0,1,542.69,377.32Zm-.57,133c7.82-19.31,18.45-34.75,36.32-45.82a1.41,1.41,0,0,1,1.7,2.21c-7.65,7.62-15.89,14.47-21.93,23.54-5.62,8.47-9.75,18-13.18,27.57-7.1,19.71-8.51,39.72-11.53,60.23-.36,2.44-3.7,1.48-3.93-.53C527,555.24,533.84,530.8,542.12,510.33Zm-19.71-85.56c.27,5.25,1.49,11.49.24,16.64-.44,1.84-2.88,1.56-3.45,0-1.8-5-1.24-11.41-1.56-16.64C517.45,421.7,522.26,421.71,522.41,424.77Zm-6.86-13.86c1.2,13.93,1.84,28.2-.95,42-.36,1.75-2.9,1.22-3-.4-.63-13.87,0-27.72-1.06-41.59C510.32,407.7,515.28,407.74,515.55,410.91Zm-2.49,160.27a.09.09,0,0,1,0-.18A.09.09,0,0,1,513.06,571.18Zm4.49,167.75c-15.49-16.1-2-41.79,14.26-50.69a1.39,1.39,0,0,1,1.4,2.39,35.58,35.58,0,0,0-15.61,20.72c-2.57,9.47.57,17.1,2.39,26.16A1.47,1.47,0,0,1,517.55,738.93Zm33-6.08a16.28,16.28,0,0,1-25.86-.41c-7.1-9.76-.85-23,6.13-30.89,8-9,19-14,30.91-14.87,5.77-.44,5.73,8.55,0,9a36,36,0,0,0-4.72.68C559.31,708.05,558,723.23,550.53,732.85ZM550,662.33c.53,2.11,1.41,4.14,1.53,6.32a1.54,1.54,0,0,1-2.61,1.08c-3.6-3.47-3.57-10.24-3-14.82.27-2.11,3.52-2.24,3.41,0A25.73,25.73,0,0,0,550,662.33Zm10.26-21.84c2,5.86,5,11.47,6.56,17.45.57,2.14-2.23,3.1-3.4,1.43-7-10-9.67-24.12-11.68-35.91-.38-2.21,2.91-3.2,3.42-.94A167.8,167.8,0,0,0,560.25,640.49Zm-5-47.48c-.16-1.74,2.71-2.09,3-.41,2.22,11.4,4.66,22.8,7.75,34,2.77,10.1,7.39,20.52,8.36,30.95.17,1.87-2.4,2.21-3.27.89-6-9.08-8.23-21.54-10.57-32A274.52,274.52,0,0,1,555.26,593Zm-2.64,47.66c1.11,4.11,2.32,8.18,3.48,12.27,1,3.66,2.71,7.39,2.66,11.22a1.74,1.74,0,0,1-3.21.87c-2.21-3.12-2.84-7.23-3.72-10.91-1-4.17-1.67-8.36-2.26-12.61C549.3,639.56,552.07,638.65,552.62,640.67Zm25,69.72c-2.49,8.85-8.56,16.22-15.5,22-1.15,1-3.07-.27-2.18-1.68,5.87-9.27,13-17,13.72-28.56.52-8.83-1.95-18,2.91-25.92.95-1.56,3.95-1.07,3.72,1C579.14,688,580.57,700,577.63,710.39Zm.73-96.63c-1.41-2.11-1.91-4.68-2.6-7.1-.75-2.63-1.55-5.24-2.39-7.85-.7-2.19,2.58-3,3.38-.93,1.76,4.52,4.73,10.14,4.58,15.08A1.61,1.61,0,0,1,578.36,613.76Zm5.36-3.63c-7.4-12.11-8.85-29.14-4.7-42.55a1.41,1.41,0,0,1,2.71.75c-3.56,14.91,3.19,26.79,4.31,41.17C586.14,610.79,584.32,611.12,583.72,610.13Zm7.19-14.91a1.48,1.48,0,0,1-2.74.75c-4-5.8-4.19-15.05-4.89-21.9-.3-2.84,4-2.74,4.38,0,.5,3.88,1.17,7.71,1.94,11.54C590.24,588.78,591.22,592,590.91,595.22Zm3.66-9.19a1.51,1.51,0,0,1-2.5.66c-2.16-2.61-2.36-6.49-3-9.7-.59-2.87,3.82-4.09,4.4-1.21C594.08,578.94,595.53,582.83,594.57,586Zm5.25-4.64a1.64,1.64,0,0,1-2.76,1.14c-2.55-2.49-2.7-6.62-2.54-10,.14-2.76,4.35-2.79,4.32,0C598.81,575.54,600,578.42,599.82,581.39ZM591,523.67c-8.23,11.78-24.28,18.36-38.26,13.75-.26,1-.5,2-.73,3,13-1.14,26.11,2.78,37.63-6.13,1.45-1.13,3.47.7,2.08,2.08A33.19,33.19,0,0,1,572.07,546c-5.79.82-15.37,2.36-21.19-.47a128.45,128.45,0,0,0-2.13,32.89c.4,5.78-8.59,5.74-9,0-3.6-52.92,26.35-116.17,86.18-116.4,5.79,0,5.78,9,0,9a69,69,0,0,0-19.74,2.88C604.09,491.17,601.16,509.11,591,523.67Zm56.81-30.85c-5.3-2.4-9.84-6.27-15-9a48,48,0,0,0-20.37-5.86,1.81,1.81,0,0,1,0-3.61c13.18-.25,28.6,5.76,37.54,15.65A1.82,1.82,0,0,1,647.8,492.82Zm-1.75,12.65c-4.49-3.83-8-8.58-12.69-12.25a68.24,68.24,0,0,0-15.16-9c-1.67-.72-.45-3.51,1.23-2.92,10.83,3.8,24.29,11.17,29.21,22.17A1.66,1.66,0,0,1,646.05,505.47Zm-49.67,129c.38-4,2.25-7.64,3.76-11.33q2.52-6.16,5-12.31c.87-2.12,4.3-1.29,3.52,1q-2.15,6.25-4.31,12.5c-1.29,3.74-2.26,7.87-4.6,11.09C598.84,636.73,596.2,636.5,596.38,634.51Zm33.33-57.94c-6.7,12-10.2,25.16-14.17,38.19-3,9.78-6.24,23-14.16,30.13-1,.84-2.7,0-2.26-1.32,2-6.18,5.69-11.77,8.07-17.84,2.26-5.76,4.12-11.67,6-17.56,3.69-11.57,7.51-22.75,14-33.07A1.46,1.46,0,0,1,629.71,576.57Zm7.55-30.18a32.19,32.19,0,0,1-2.88-6.18c-.7-1.75,2.17-2.55,2.84-.78a31,31,0,0,1,1.93,6.16A1,1,0,0,1,637.26,546.39Zm2.48-6.47c-2.29-2.52-3.3-6.68-4.54-9.81-.66-1.67,2.14-2.82,2.89-1.22,1.42,3.07,3.73,6.65,4,10.06A1.38,1.38,0,0,1,639.74,539.92Zm3-10a19.64,19.64,0,0,1-4.49-4.33,32.41,32.41,0,0,1-2.87-5.59c-1-2.52,3.07-3.63,4.1-1.13a31.93,31.93,0,0,0,2.58,4.87c1,1.53,1.63,3.17,2.67,4.65C645.68,529.63,643.81,530.7,642.79,529.88Zm1.8-6.3c-2.12-1.27-3.08-3.69-4.39-5.69a52.41,52.41,0,0,0-5.26-6.72c-1.75-1.91,1.07-4.76,2.85-2.86a60.63,60.63,0,0,1,5.52,6.77c1.48,2.12,3.48,4.63,3.26,7.36A1.34,1.34,0,0,1,644.59,523.58Zm4-5.6c-3.49-3.27-6.19-7.43-9.41-11a100,100,0,0,0-10.54-9.94c-1.69-1.39.71-3.69,2.39-2.38,7.36,5.74,16.17,13.12,19.87,21.94C651.46,518,649.48,518.84,648.57,518Zm1.8-43.36c-2.29.71-4.41-1.1-6.37-2.16a41.7,41.7,0,0,1-6.31-4.12c-1.17-.93.11-2.71,1.38-2.37a40.51,40.51,0,0,1,7.14,2.71c2.1,1,4.51,1.52,5.33,3.86A1.71,1.71,0,0,1,650.37,474.62Zm.81-17.42a3.9,3.9,0,0,1-1.58,1c-.47.13-1,.21-1.47.31a2.33,2.33,0,1,1-.62-4.59,5.09,5.09,0,0,1,2.82.11C651.55,454.51,652.37,456.14,651.18,457.2Zm12-61.05c-6.09,14.69-10.35,29.06-14.29,44.41a1.8,1.8,0,0,1-3.52-.47c-.24-15.9,8.38-31.2,15.46-44.93C661.47,393.88,663.71,394.81,663.16,396.15Zm16.34-44.61c-10.7,10.95-16.16,24.7-25.3,36.61a1.48,1.48,0,0,1-2.69-1.14c3.67-15.21,15.14-30.48,26.28-41.19,10.8-10.36,24-17.19,38.89-19,1.68-.21,2,2.52.4,2.89C702.59,333.14,689.88,340.93,679.5,351.54Zm-4.74,53.78c2.54-1.42,5.16-1.45,7.93-2.3a32,32,0,0,0,8.37-4.13c5.9-4,10.51-9.63,15-15.05,1.14-1.37,3.54.49,2.48,1.92-4.75,6.37-9.57,12.86-16.08,17.56-4.72,3.41-12,7.46-17.73,4.79A1.63,1.63,0,0,1,674.76,405.32Zm-3.71,17.46c-2.65-.39-2.51-4.7,0-5.21,8.68-1.74,17.1-2.45,24.85-7.26,7.29-4.51,12.29-11,16.41-18.43,6.63-11.92,11.92-24.11,22.41-33.25a.75.75,0,0,1,1.07,1.06c-11.87,12.95-13.92,31.62-24.54,45.44C702.15,417,686.1,425,671.05,422.78Zm68.13-22.53c-5,4.21-7.83,10.28-13.11,14.43-5,3.92-11,7.79-17.46,8.49-1.72.19-1.94-2.14-.8-2.94,5.73-4,12.51-5.85,18-10.43,4.28-3.58,7.11-8.51,11.56-11.89C738.73,396.88,740.46,399.18,739.18,400.25Zm21.43-71.44c.52-1.4,2.71-.84,2.27.63-3.06,10.29-4.1,20.5-5.37,31.1-1,8.65-7.42,14.88-8.35,23.27-.21,1.88-2.88,2.49-3.45.47-2.4-8.48,6.25-15.78,7.66-24C755.21,349.44,756.79,339.18,760.61,328.81Z"/><path class="cls-1" d="M815.2,175.49a221.88,221.88,0,0,0-29-6.74C772,178.93,763.79,193,762.79,211c-1.1,19.76,6.78,38,14.81,55.6a3.68,3.68,0,0,1,.35,1.64c2.61.28,5.22.61,7.81,1q4.14.64,8.24,1.47c-4.32-9-5.44-20.17-6.09-30-.71-10.82-.17-22,2.62-32.51C794,195,802.38,181.11,815.2,175.49Z"/><path class="cls-1" d="M895.27,403.17a2.21,2.21,0,0,1-.34-.18q.23,7,0,14c16.19,2.21,30.37,20.43,35.81,36.57,2.43-4.6,4.71-9.27,6.81-13.93A105,105,0,0,0,942.27,427C930.88,411,912.83,408.36,895.27,403.17Z"/><path class="cls-1" d="M359.78,328.53a2.11,2.11,0,0,1,.58-.06c6,.26,10.85,1,16.82-.58,4.56-1.18,9.1-2.55,13.56-4.05,9.65-3.24,19-7.59,26.35-14.86,14.49-14.41,22.43-36.7,24.87-57.06q-2.5-3.49-5.23-6.86a184.53,184.53,0,0,0-15.07-16.41c0,42.29-31.8,78.09-73.61,83.69A144.87,144.87,0,0,1,359.78,328.53Z"/><path class="cls-1" d="M239.14,211.13c-.91-18.34-9.56-32.6-24.19-42.78A228.16,228.16,0,0,0,185.29,175c13.64,5.18,22.47,19.62,26.11,33.35,2.92,11,3.41,22.82,2.51,34.16-.7,8.78-1.75,18.64-5.32,26.93,5.18-.94,10.37-1.65,15.53-2.13a5.53,5.53,0,0,1,.21-.61C232.4,249.11,240.13,230.94,239.14,211.13Z"/><path class="cls-1" d="M244.91,266.59a160.4,160.4,0,0,1,27,2.87c27.83-25.91,44.34-61.3,32.78-99.2a269.45,269.45,0,0,0-34.88-4.42c8.33,16.34,11.43,33.62,3.8,51.16S257.38,252.08,244.91,266.59Z"/><path class="cls-1" d="M303.73,279.44A128.76,128.76,0,0,1,328.63,294a3.87,3.87,0,0,1,.59-.42c8.72-5,17.2-10.8,22.65-19.49,4.89-7.78,8.59-16.95,11.72-25.56,6.76-18.6,6-37.85,4.39-57.2a243.14,243.14,0,0,0-26.68-11.21c11.82,15.8,12.34,39.12,7.43,57.48C343.09,258.7,324.73,274.21,303.73,279.44Z"/><path class="cls-1" d="M612.53,324.18c4.45,1.46,9,3,13.6,4,5.11,1.12,9.59.51,14.6.25a159.33,159.33,0,0,1,12.44-16.27c-41.68-5.94-73.25-41.91-72.91-84.25a181.28,181.28,0,0,0-20.42,22.82c2.28,20.64,10.25,43.5,25,58.17C592.49,316.48,602.42,320.87,612.53,324.18Z"/><path class="cls-1" d="M850.92,235.92c12.29-13.76,29.46-14.24,45.9-10.59q-3.12-3.39-6.47-6.62a173.37,173.37,0,0,0-22.25-18.05c-17.38-.85-34.42,5.89-43.1,22-4.22,7.8-5.6,16.75-7.27,25.35-1.84,9.49-3.09,18.86-2.57,28.48a129.88,129.88,0,0,1,23.73,10.92C837.14,269.29,838.25,250.12,850.92,235.92Z"/><path class="cls-2" d="M519.13,772.78c-6.74.23-13.37-1.28-20.16-1.28-16.68,0-32.43.63-48.38-5.42a63.85,63.85,0,0,1-22.28-14.15,235,235,0,0,0,14.12,35.75q11.83,24.78,23.71,49.54a37.32,37.32,0,0,1,5.65-3.83,4.56,4.56,0,0,1,6.6,2.69,328.36,328.36,0,0,1,9.44,37.39,108.52,108.52,0,0,0,29.29-37.66c1.35-2.85,6.45-3,7.75,0l2.07,4.81c12.7-12,22.26-25.68,27.73-42.76,4-12.35,3.85-25.07,5.57-37.62A78.6,78.6,0,0,1,545,767.57,87.16,87.16,0,0,1,519.13,772.78Zm-45.88,49a1.25,1.25,0,0,1-2.27.3c-1.33-2.85-1.92-5.88-3-8.81a38.27,38.27,0,0,0-5.25-9.49c-1.15-1.56,1.48-3.57,2.67-2.07C469.7,807.09,474.25,814.53,473.25,821.73Zm6.43,1.57c-.3,1.51-2.34,1.23-2.78,0-.85-2.38-1-5-1.51-7.47a44.42,44.42,0,0,0-2.52-7.94c-.76-1.8,1.79-3.41,2.7-1.57C478,811.27,480.78,817.69,479.68,823.3ZM492,848.67c-2.93-5.82-3.73-12.59-5.27-18.9-1.74-7.12-3.61-14.18-5.69-21.21-.83-2.81,3.39-3.89,4.33-1.2,4.22,12.06,11.25,27.22,10.88,40.16C496.2,849.66,493.07,850.78,492,848.67Zm9.8-3.78a1.56,1.56,0,0,1-3,0c-1.75-5.19-1.33-10.95-2.07-16.36A99.36,99.36,0,0,0,493,812.28c-.79-2.51,2.95-3.41,3.86-1.07C500.6,820.72,505.55,834.77,501.81,844.89Zm7.84-9.6a1.68,1.68,0,0,1-3.22,0c-1.58-6.39-.8-13.52-1.43-20.08-.28-3,4.26-2.88,4.6,0C510.36,821.58,511.62,829.05,509.65,835.29Zm8-6.11c-.8,1.78-3,.6-3.23-.88-.57-4.42.17-9-.2-13.48-.25-3,4.48-3,4.74,0C519.35,819.53,519.62,824.78,517.63,829.18Zm7.2-13.54c-.82,1.22-3.06.87-3-.81.16-3,1.42-5.84,2.33-8.63.81-2.49,4.77-1.4,3.92,1.08C527.17,810,526.46,813.2,524.83,815.64Zm20-20.74c-6.09,11.81-9.18,24.78-15,36.56a1.74,1.74,0,0,1-3.21-.87c1-13.1,8.09-26.63,14.13-38.08C542.19,789.81,546.25,792.2,544.86,794.9ZM550.69,777c-8,9.12-39.86,34.08-51.41,18.62-9.14,3.47-21,3.19-29.88.47-11.46-3.52-19.23-10.78-25.53-20.73-1.21-1.92,1.67-3.45,3-1.74,6.75,8.9,18.2,14.92,29.11,16.65,9.05,1.43,18.49-3.64,27-1.07a2.47,2.47,0,0,1,1.72,2.27c2.63.84,5,1.63,8.52,1.15a50.32,50.32,0,0,0,11.25-3.39,77.2,77.2,0,0,0,23.47-15A2,2,0,0,1,550.69,777Z"/><path class="cls-2" d="M415.8,734.84c-6.07-11.74-9.15-25.38-9.61-39.57-.08-2.44,0-4.86.08-7.28a4.37,4.37,0,0,1-1.16-1.44c-14.63-28.22-29.92-56.78-42.19-86.4.27,19.72-1.56,39.51-1.52,59.35,3.3-2,6.88-3.13,10.12-.53,5.09,4.07,5.43,15,6.11,20.83,2.18,19,3.63,38.08,5.27,57.13,3.78-3.45,8-6.68,12.17-7.63,6.23-1.43,9.05,3.48,11.44,8.3a246.89,246.89,0,0,1,17.62,48.73,40.73,40.73,0,0,0,6.85-2c-6.93-15.21-12.71-30.88-15.28-47.48A4.62,4.62,0,0,1,415.8,734.84ZM370,652c-.32,1.67-3.21,1.75-3.45,0-1.29-9.19-.9-18.88-1.43-28.16a1.39,1.39,0,0,1,2.72-.37C370.12,632.47,371.77,642.88,370,652Zm8.09,3.38c-.16,1.37-2.38,2-2.65.36-1.17-7.21-1.39-14.41-3.12-21.56a1.32,1.32,0,0,1,2.54-.7C377,640.37,379,648.19,378.11,655.42Zm13.08,57.38c-.07,2.05-3.17,2.59-3.65.5-4.27-18.59-4.78-38.24-7.61-57.11-.24-1.66,2.19-2.42,2.58-.71C386.68,673.87,391.8,693.78,391.19,712.8ZM400.53,724c-.12,1.66-2.71,2.24-3.07.42-3-15.14-3.72-30.93-6-46.22-.3-2,2.63-3,3.15-.87C398.28,692.06,401.67,708.68,400.53,724Z"/><path class="cls-2" d="M637.82,600c-12.32,29.92-27.78,58.74-42.54,87.2a4.4,4.4,0,0,1-1.36,1.59,99.85,99.85,0,0,1-.26,14.76c-2,19.61-9.67,36.3-22.71,48.47-2.44,9.37-2.24,19.12-3.25,28.7-.11,1.09-.25,2.18-.41,3.25A42,42,0,0,0,576.6,787a247.24,247.24,0,0,1,17.63-48.74c2.45-5,5.57-10.09,12-8.21,3.9,1.12,7.94,4.25,11.58,7.56,1.63-19,3.08-38.16,5.27-57.14.68-5.9,1-17.49,6.56-21.19,3.19-2.11,6.56-1,9.66.86C639.38,640.06,637.49,620,637.82,600ZM604.47,724.27c-.37,1.84-3,1.23-3.07-.42-1.14-15.27,2.25-31.9,5.9-46.67.52-2.09,3.45-1.15,3.15.87C608.19,693.34,607.46,709.13,604.47,724.27Zm9.92-11.08c-.48,2.11-3.58,1.53-3.65-.5-.61-19,4.51-38.92,8.68-57.32.39-1.71,2.82-.94,2.58.71C619.17,675,618.66,694.61,614.39,713.19Zm15.2-79.08c-1.73,7.15-1.94,14.35-3.12,21.56-.27,1.65-2.49,1-2.65-.36-.87-7.23,1.1-15,3.23-21.9A1.32,1.32,0,0,1,629.59,634.11Zm5.77,17.82c-.24,1.75-3.13,1.67-3.45,0-1.75-9.16-.1-19.57,2.16-28.53a1.39,1.39,0,0,1,2.72.37C636.26,633.05,636.65,642.74,635.36,651.93Z"/><path class="cls-3" d="M425.65,520.88c-8.62-.94-12.37-10.39-12.35-18,0-3.84.71-8.37,3.56-11.2a8.31,8.31,0,0,1,4.51-2.27A68.85,68.85,0,0,0,403.64,477c1.56,11.77,3.82,23.69,9.2,34.33,6.11,12.06,18.58,21.1,32.22,16.86a112.82,112.82,0,0,0-6-14.32C436.31,518.38,431.07,521.48,425.65,520.88Z"/><path class="cls-3" d="M579,490.11a8.37,8.37,0,0,1,6,4c2.29,3.71,2.47,8.71,1.89,12.91-1.25,9.05-8.52,17.53-18.31,13.5a14.37,14.37,0,0,1-7.17-6.08,113.09,113.09,0,0,0-6,14.37c13.76,4.31,26-4.8,32.22-16.85,5.44-10.58,7.66-22.58,9.21-34.34A69,69,0,0,0,579,490.11Z"/><path class="cls-4" d="M97.55,231.5c-3.25,4-6.37,8.11-9.29,12.47q-2.6,3.89-4.94,7.89c15.25-6.74,31.59-9.28,46.42,1,10,7,24.48,21.88,26.34,35.92,1.51-16,1.53-33-8.44-46.41C135.43,226,115.43,228,97.55,231.5Z"/><path class="cls-4" d="M74.83,462.57a88.27,88.27,0,0,0,10.54,15c.46.51.93,1,1.42,1.5.64-5.27,3.73-11,6-14.94,3.84-6.58,9.68-10.83,16.18-14.46a238.44,238.44,0,0,1-3.34-27.29C89.49,429.44,81,447.08,74.83,462.57Z"/><path class="cls-4" d="M104.19,286.14c-11.18-3.9-28.57.67-39.13,7.42A258.6,258.6,0,0,0,57,327.89C77.21,319,102.24,322,117.8,338.27A143,143,0,0,1,126,321.12c.66-1.18,1.35-2.32,2.06-3.45a3.51,3.51,0,0,1-.18-.6C125.24,303.63,117.79,290.87,104.19,286.14Z"/><path class="cls-4" d="M52.49,386.8a152.91,152.91,0,0,0,4.14,33.4c11.59-14.21,30.92-19.48,48.73-20.92a195.3,195.3,0,0,1,5.5-39.5C89.44,355.53,66.27,371.15,52.49,386.8Z"/><path class="cls-4" d="M178.62,177.14a191.17,191.17,0,0,0-41,19.19c15.89-1.7,31.61,5.51,41.45,18.59,5.95,7.9,8.35,17.06,10.33,26.6,2.18,10.43,4,20.86,3.93,31.47q3.84-1.08,7.73-2c1.21-9,4.33-17.68,5.35-26.83a103.27,103.27,0,0,0-.31-26.81C203.33,199.17,194.12,186.14,178.62,177.14Z"/><path class="cls-4" d="M446,257.88c-1.87,22-10.31,44.52-27.19,59-8.71,7.46-19.44,11.71-30.25,15.08-6.57,2.05-16.88,6.22-24.33,4,5.53,9.53,10.51,19.4,16.1,29.19,12.53,21.93,46.15,10.16,63.29-.14,10.09-6.06,19.68-14.37,25.86-24.48,7.66-12.55,4.11-23.9-.84-36.52C462.34,287.87,455.36,272.25,446,257.88ZM379.8,347.93a1.6,1.6,0,0,1,0-2.73c2.24-1.14,4.47-1.12,6.93-1.26a66.21,66.21,0,0,0,8.77-1.05c2.64-.51,3.74,3.27,1.12,4.06C391.73,348.43,384.56,350.73,379.8,347.93Zm3.3,8.85a2.19,2.19,0,0,1,0-4.2c5.81-1.74,12.17-1.21,18.22-1.7A187.85,187.85,0,0,0,424,347.75a1.77,1.77,0,0,1,.94,3.42C412.83,355.14,395.75,360.7,383.1,356.78Zm85-25.77c-7.65,13.92-20.22,23.12-34.89,28.71a134,134,0,0,1-29.08,7c-6.09.87-12,1.93-16.87-2.43a2.45,2.45,0,0,1,1.71-4.14c27.29,1.44,59.63-7.4,75.88-31A1.88,1.88,0,0,1,468.09,331Z"/><path class="cls-4" d="M265,165.61a257.3,257.3,0,0,0-42.64,1.71c13.29,7.6,21.15,23.2,23.22,38.05,3,21.27-4,42.42-13.27,61.38,1-.05,1.95-.09,2.92-.12,13.08-13.32,21.4-29.85,29.35-46.54,4.53-9.5,7.86-18.44,7-29.17C270.77,182.23,268.07,173.74,265,165.61Z"/><path class="cls-4" d="M331.88,179.74a3.41,3.41,0,0,1-.85-3q-10.36-3.16-21.16-5.48c14.67,35.42-2.45,74.8-29.36,100.09a145,145,0,0,1,18.38,6,.57.57,0,0,1,.11-.11c8.2-5.42,17.52-8.92,25.49-14.8a46.55,46.55,0,0,0,17.17-25.39C347.13,217.77,345.43,195.25,331.88,179.74Z"/><path class="cls-4" d="M417,224.32a212.65,212.65,0,0,0-44.26-30.56c3.43,20.71,3.83,40.85-4.13,60.9-3.79,9.54-7.71,19.76-14.13,27.85-5.42,6.83-12.71,11.73-20.21,16,2.85,2.42,5.57,5,8.2,7.72C385.28,302.37,416.89,267.28,417,224.32Z"/><path class="cls-4" d="M613.35,331.85c-10.81-3.37-21.55-7.62-30.25-15.08-17.26-14.8-25.71-38-27.32-60.44-2.76,4-5.37,8.13-7.78,12.39-6.5,11.47-11.47,23.67-16.27,35.91-5.19,13.25-8.49,24.82-.06,37.77,12,18.48,33.81,30.79,55.23,34.44,13.13,2.24,25.87,1.71,33.14-11.08,5.5-9.66,9.85-19.91,15.62-29.46C628.46,337.38,619.38,333.73,613.35,331.85Zm1.33,32.31c-5.2,4.69-12,3.19-18.43,2.21a132.24,132.24,0,0,1-27.52-6.76c-14.67-5.59-27.24-14.79-34.89-28.71-1.18-2.14,1.89-3.86,3.25-1.89,16.26,23.62,48.58,32.46,75.88,31A2.44,2.44,0,0,1,614.68,364.16Zm4.15-7.49c-12.65,3.92-29.73-1.64-41.8-5.61a1.77,1.77,0,0,1,.94-3.42,191.84,191.84,0,0,0,22.65,3.14c6,.49,12.42,0,18.21,1.69A2.19,2.19,0,0,1,618.83,356.67Zm3.3-8.85c-4.76,2.8-11.93.5-16.82-1-2.63-.79-1.52-4.57,1.12-4.06a66.21,66.21,0,0,0,8.77,1.05c2.46.14,4.69.12,6.93,1.26A1.6,1.6,0,0,1,622.13,347.82Z"/><path class="cls-4" d="M822.11,177.73c-14.79,9-23.55,21.82-26.26,39.53a105.2,105.2,0,0,0-.14,28.47c1.08,8.79,4.21,17.11,5.28,25.84a2.88,2.88,0,0,1,0,.72q3.87.94,7.67,2.08c-.3-11.13,1.63-22,3.9-33,2-9.55,4.41-18.67,10.33-26.6a46.25,46.25,0,0,1,38-18.82A192.45,192.45,0,0,0,822.11,177.73Z"/><path class="cls-4" d="M915.73,250.53a162.73,162.73,0,0,0-14.05-19.64c-17.16-3.11-35.8-4.19-47.39,11.38-10,13.39-9.95,30.41-8.43,46.41,1.85-14,16.31-28.94,26.33-35.92C886.07,243.1,901.32,244.73,915.73,250.53Z"/><path class="cls-4" d="M736.84,165.83c-3.22,8.47-6.05,17.39-6.52,26.47-.52,10.18,2.78,18.69,7.07,27.68,8,16.8,16.37,33.43,29.59,46.79a4.13,4.13,0,0,1,.54.68c.87.05,1.75.08,2.62.14-9.5-19.2-16.78-40.71-13.75-62.33,2-14.55,9.6-29.82,22.41-37.59A250,250,0,0,0,736.84,165.83Z"/><path class="cls-4" d="M943.12,327a256.77,256.77,0,0,0-8.56-34.95c-10.64-6-26.37-9.68-36.82-6-13.64,4.75-21,17.47-23.73,30.93a2.75,2.75,0,0,1-1.68,2.07,97.73,97.73,0,0,1,8.25,15.59c.72,1.72,1.4,3.45,2.06,5.19C897.61,322.6,922.57,318.85,943.12,327Z"/><path class="cls-4" d="M647.44,282.4c-6.42-8.07-10.35-18.32-14.13-27.85-8-20.07-7.56-40.23-4.12-61a215.6,215.6,0,0,0-44.28,30.07c-.15,43,31.23,78.21,73.88,82.43,2.71-2.75,5.57-5.34,8.53-7.83C659.94,294,652.8,289.13,647.44,282.4Z"/><path class="cls-4" d="M692,171.44c-7.11,1.51-14.13,3.34-21,5.42a3.38,3.38,0,0,1-.88,2.77c-13.55,15.51-15.25,38-9.78,57.34a46.52,46.52,0,0,0,17.18,25.4c8,5.86,17.28,9.37,25.48,14.8,0,0,.06.06.1.09a141.26,141.26,0,0,1,18.58-5.79C694.65,246.25,677.43,206.88,692,171.44Z"/><path class="cls-4" d="M889,360.14a201.22,201.22,0,0,1,5.75,39.2,1.79,1.79,0,0,1,1-.24c17.57,1.32,36.75,6.34,48.59,20A155.6,155.6,0,0,0,948,385.12C933.65,369.52,910.29,354.61,889,360.14Z"/><path class="cls-4" d="M894.74,421.71a230.55,230.55,0,0,1-3.08,27.16c7,3.79,13.37,8.17,17.46,15.18,2.17,3.71,5.06,9.08,5.9,14.13a62.83,62.83,0,0,0,4.66-6.08c2.4-3.55,4.7-7.23,6.88-11C920.27,445.48,911.41,428.07,894.74,421.71Z"/><path d="M447.66,536.78c.32,1.2.61,2.41.89,3.62-12.52-.77-25.1,2.59-36.25-6-1.45-1.13-3.47.7-2.08,2.08a33.25,33.25,0,0,0,19.64,9.69c5.37.76,14,2.14,19.89.06a127.92,127.92,0,0,1,1.89,31.61c-.39,5.77,8.6,5.75,9,0,3.6-52.92-26.35-116.16-86.18-116.4-5.79,0-5.79,9,0,9a69,69,0,0,1,19.73,2.89c2.13,17.25,5.05,35.18,15.22,49.74C417.64,534.82,433.67,541.39,447.66,536.78ZM421.37,489.4a8.31,8.31,0,0,0-4.51,2.27c-2.85,2.83-3.56,7.36-3.56,11.2,0,7.62,3.73,17.07,12.35,18,5.42.6,10.66-2.5,13.43-7a112.82,112.82,0,0,1,6,14.32c-13.64,4.24-26.11-4.8-32.22-16.86-5.38-10.64-7.64-22.56-9.2-34.33A68.85,68.85,0,0,1,421.37,489.4Z"/><path d="M438.69,686c-5.77-.44-5.74,8.55,0,9a36.11,36.11,0,0,1,4.71.68c-2.31,11.67-.94,26.21,6.11,36a16.29,16.29,0,0,0,26.21,0c6.88-9.45,1.18-22-5.35-29.95C462.43,692.26,451,687,438.69,686Z"/><path d="M539.77,578.45c.39,5.74,9.38,5.78,9,0a128.45,128.45,0,0,1,2.13-32.89c5.82,2.83,15.4,1.29,21.19.47a33.19,33.19,0,0,0,19.64-9.69c1.39-1.38-.63-3.21-2.08-2.08-11.52,8.91-24.66,5-37.63,6.13.23-1,.47-2,.73-3,14,4.61,30-2,38.26-13.75,10.17-14.56,13.1-32.5,15.22-49.75A69,69,0,0,1,626,471c5.78,0,5.79-9,0-9C566.12,462.28,536.17,525.53,539.77,578.45ZM587.55,512c-6.2,12.05-18.46,21.16-32.22,16.85a113.09,113.09,0,0,1,6-14.37,14.37,14.37,0,0,0,7.17,6.08c9.79,4,17.06-4.45,18.31-13.5.58-4.2.4-9.2-1.89-12.91a8.37,8.37,0,0,0-6-4,69,69,0,0,1,17.81-12.49C595.21,489.38,593,501.38,587.55,512Z"/><path d="M561.71,695.66c5.73-.43,5.77-9.42,0-9-11.87.91-23,5.85-30.91,14.87-7,7.92-13.23,21.13-6.13,30.89a16.28,16.28,0,0,0,25.86.41c7.48-9.62,8.78-24.8,6.46-36.51A36,36,0,0,1,561.71,695.66Z"/><path d="M956.28,363.39c-1.49-24.21-5.09-48.48-12.29-71.68-13.92-44.84-42.13-82.49-83-106.1-43.59-25.19-95.71-32.45-145.26-26.88C673.36,163.5,631.5,178,596.66,202.82c-35.82,25.55-58.37,59.67-73.87,100H477.86a321.86,321.86,0,0,0-13.69-31.74A183.26,183.26,0,0,0,427,221.34c-30.84-29.43-70.71-48.76-112.09-58.16-92.23-21-201.69,6.34-246.17,96.65-11.75,23.86-18.47,49.84-22,76.11-3.64,26.89-6.12,56.05-.22,82.77,3,13.68,8.93,26.55,15.6,38.8,5.95,10.93,12.05,23.37,22,31.24,7.9,6.23,19.19,9.65,28.69,4.88a19.71,19.71,0,0,0,10.41-22.51c-8.14-28-10.94-57.05-7.24-86,3.32-26,10.5-54.85,28.71-74.65a82,82,0,0,1,14.81-12.56,2.83,2.83,0,0,0,2.29-1.5c14.29-9,31.12-14.42,47.31-17.69a157.09,157.09,0,0,1,69,1.23c21.51,5.4,41.56,15.94,57.22,31.76,9.15,9.25,16.65,19.91,23.21,31.1,4.52,7.7,8,16.5,12.42,24.43q-5.16,4.14-10.23,8.37c-8.79-24.26-27.37-43.22-50.81-54.34A127.84,127.84,0,0,0,271,310c-15.38-1.93-32.5-3.26-47,3.13a4.4,4.4,0,0,0-2.22,3.88,165.81,165.81,0,0,0,3.53,30.84c2,9.64,3.45,22.23,8,31,1.25,2.4,2.68,3.88,3.6,6.44,1.23,3.38,2.09,6.84,3.53,10.15a67.77,67.77,0,0,0,12.46,19c20.28,21.94,52.27,29.09,81,25.07.2,0,.38-.09.56-.13.31,2.59.59,5.11.88,7.52,3.28,27.9,1.66,56.17,6.54,83.9a287.64,287.64,0,0,0,8.51,34.92,4.94,4.94,0,0,0,.1.83c7.48,33.64.87,67.71,2.06,101.71.11,3.12,3.84,6,6.76,3.88,1.75-1.25,4.26-3.81,6.7-4.92,5.19,10.71,4,27.51,5,38.6l3.72,41c.34,3.78,4.7,6,7.67,3.17,3.22-3.11,10.51-12.22,14.9-10.65,2.54.91,7.35,16.24,8.06,18a259.09,259.09,0,0,1,11.05,35.29c.41,1.72,2.45,3.52,4.33,3.3a56.53,56.53,0,0,0,14-3.45c8.67,18.26,17.46,36.47,26.18,54.7A4.51,4.51,0,0,0,468,848a29.45,29.45,0,0,1,3.52-3.54,329.14,329.14,0,0,1,8.93,38.16c.46,2.71,4.38,4.27,6.6,2.68a117.65,117.65,0,0,0,33.54-36.89c.28.66.56,1.32.85,2,1.22,2.86,5.12,2.58,7,.91,14.47-12.5,26.26-27.1,32.86-45.2a132.74,132.74,0,0,0,4.13-13.22A56.47,56.47,0,0,0,580,796.55c1.88.22,3.92-1.55,4.34-3.3A259,259,0,0,1,595.35,758c1-2.56,5.16-16.7,8-18,3.73-1.72,12.13,8,14.91,10.65,3,2.87,7.32.6,7.67-3.18q1.85-20.48,3.71-40.95c.59-6.53,1.16-13.06,1.78-19.59.56-5.94.72-13.23,3.29-19,2.43,1.12,4.92,3.66,6.65,4.9,2.92,2.1,6.65-.76,6.76-3.88,1.2-34-5.41-68.07,2.06-101.7a4.5,4.5,0,0,0,.06-1.78,286.83,286.83,0,0,0,8.22-34c4.83-27.74,3.27-56,6.54-83.91.28-2.4.56-4.92.87-7.52a5.09,5.09,0,0,0,.56.14c28.77,4,60.66-3.16,81-25.07a67.71,67.71,0,0,0,15.66-28c.87-3.12,2.2-4.4,3.7-7.09,4.61-8.23,5.91-20.67,7.86-29.89a169.14,169.14,0,0,0,3.87-32.49,4.4,4.4,0,0,0-2.22-3.88c-14.12-6.23-30.68-5.06-45.74-3.27a128.87,128.87,0,0,0-40.11,11.45c-23.43,11.11-42,30.08-50.81,54.33-3.38-2.81-6.79-5.61-10.22-8.36,4.46-7.93,7.9-16.74,12.41-24.43,12.35-21.05,28.25-39.25,49.84-51.06,44.28-24.22,106.55-21.64,148.85,6,25.74,16.82,36.39,46.07,41.87,75.06,6.21,32.86,4.05,66.27-5.28,98.31-4.78,19.38,16.79,29.26,32.4,21.87,9.54-4.52,15.72-13.25,21-22a236.06,236.06,0,0,0,17.64-34.23C957.69,413.75,957.82,388.43,956.28,363.39ZM52.49,386.8c13.78-15.65,36.95-31.27,58.37-27a195.3,195.3,0,0,0-5.5,39.5C87.55,400.72,68.22,406,56.63,420.2A152.91,152.91,0,0,1,52.49,386.8Zm13,57.85A118.77,118.77,0,0,1,58.82,428a3.67,3.67,0,0,0,.75-.77c11.08-15.64,28.51-18.58,45.66-23.52-.09,4.56,0,9.13.16,13.68-16,3.25-29.73,21.75-34.65,37.68C68.92,451.52,67.19,448,65.53,444.65Zm19.84,33a88.27,88.27,0,0,1-10.54-15c6.13-15.49,14.66-33.13,30.82-40.16A238.44,238.44,0,0,0,109,449.7c-6.5,3.63-12.34,7.88-16.18,14.46-2.29,3.92-5.38,9.67-6,14.94C86.3,478.61,85.83,478.11,85.37,477.6Zm29.21-4.09c2.27,9.23-7.19,14.73-15.29,13A22.11,22.11,0,0,1,92,483.33c2.54-4.47,3.3-10.8,5.61-15.23,3-5.76,7.39-9.64,12.36-13.4Q111.91,464.32,114.58,473.51Zm-2.06-119.89c-21.87-5.73-45.84,9.95-60.08,26.82q0-4.35.21-8.76a362.53,362.53,0,0,1,3.47-38.21c21.41-9.53,42.11-3.51,59.13,11.62Q113.77,349.32,112.52,353.62ZM126,321.12a143,143,0,0,0-8.24,17.15C102.24,322,77.21,319,57,327.89a258.6,258.6,0,0,1,8.07-34.33c10.56-6.75,28-11.32,39.13-7.42,13.6,4.73,21,17.49,23.73,30.93a3.51,3.51,0,0,0,.18.6C127.39,318.8,126.7,319.94,126,321.12Zm7.35-10.92C130,297,120.56,285.56,107.71,280.53c-11.8-4.62-29-1.26-40.5,6.45a195,195,0,0,1,12.71-29.13c16.21-7.21,34.58-9.34,49,2.77a69.92,69.92,0,0,1,14.52,16.55c3.25,5.27,4.18,11.29,6.63,16.7A93.86,93.86,0,0,0,133.39,310.2Zm22.69-21.41c-1.86-14-16.3-29-26.34-35.92-14.83-10.29-31.17-7.75-46.42-1q2.36-4,4.94-7.89c2.92-4.36,6-8.49,9.29-12.47,17.88-3.46,37.88-5.52,50.09,10.88C157.61,255.76,157.59,272.78,156.08,288.79ZM186.85,275a134.08,134.08,0,0,0-23.62,10.29c1.44-17.44-.07-35.6-12.22-49.23-13-14.59-31.53-14.26-48.84-9.9A164.13,164.13,0,0,1,130.51,201c18.51-1.94,37.18,4.6,46.42,21.72,4,7.33,5.36,15.63,6.95,23.72C185.75,256,187.17,265.35,186.85,275Zm19.54-30.79c-1,9.15-4.14,17.8-5.35,26.83q-3.89.9-7.73,2c.1-10.61-1.75-21-3.93-31.47-2-9.54-4.38-18.7-10.33-26.6-9.84-13.08-25.56-20.29-41.45-18.59a191.17,191.17,0,0,1,41-19.19c15.5,9,24.71,22,27.46,40.23A103.27,103.27,0,0,1,206.39,244.18Zm17.73,23.15c-5.16.48-10.35,1.19-15.53,2.13,3.57-8.29,4.62-18.15,5.32-26.93.9-11.34.41-23.12-2.51-34.16-3.64-13.73-12.47-28.17-26.11-33.35A228.16,228.16,0,0,1,215,168.35c14.63,10.18,23.28,24.44,24.19,42.78,1,19.81-6.74,38-14.81,55.59A5.53,5.53,0,0,0,224.12,267.33Zm11.07-.7c-1,0-1.95.07-2.92.12,9.27-19,16.24-40.11,13.27-61.38-2.07-14.85-9.93-30.45-23.22-38.05A257.3,257.3,0,0,1,265,165.61c3.11,8.13,5.81,16.62,6.54,25.31.9,10.73-2.43,19.67-7,29.17C256.59,236.78,248.27,253.31,235.19,266.63ZM272,269.46a160.4,160.4,0,0,0-27-2.87c12.47-14.51,21.16-32.15,28.75-49.59s4.53-34.82-3.8-51.16a269.45,269.45,0,0,1,34.88,4.42C316.3,208.16,299.79,243.55,272,269.46Zm26.93,7.92a145,145,0,0,0-18.38-6c26.91-25.29,44-64.67,29.36-100.09q10.78,2.31,21.16,5.48a3.41,3.41,0,0,0,.85,3c13.55,15.51,15.25,38,9.78,57.34a46.55,46.55,0,0,1-17.17,25.39c-8,5.88-17.29,9.38-25.49,14.8A.57.57,0,0,0,298.89,277.38ZM328.63,294a128.76,128.76,0,0,0-24.9-14.59c21-5.23,39.36-20.74,45-41.81,4.91-18.36,4.39-41.68-7.43-57.48A243.14,243.14,0,0,1,368,191.36c1.6,19.35,2.37,38.6-4.39,57.2-3.13,8.61-6.83,17.78-11.72,25.56-5.45,8.69-13.93,14.45-22.65,19.49A3.87,3.87,0,0,0,328.63,294Zm5.65,4.52c7.5-4.31,14.79-9.21,20.21-16,6.42-8.09,10.34-18.31,14.13-27.85,8-20,7.56-40.19,4.13-60.9A212.65,212.65,0,0,1,417,224.32c-.12,43-31.73,78.05-74.53,81.95C339.85,303.57,337.13,301,334.28,298.55Zm25.5,30a144.87,144.87,0,0,0-11.73-16.19c41.81-5.6,73.62-41.4,73.61-83.69a184.53,184.53,0,0,1,15.07,16.41q2.73,3.36,5.23,6.86c-2.44,20.36-10.38,42.65-24.87,57.06-7.31,7.27-16.7,11.62-26.35,14.86-4.46,1.5-9,2.87-13.56,4.05-6,1.55-10.84.84-16.82.58A2.11,2.11,0,0,0,359.78,328.53Zm4.47,7.41c7.45,2.24,17.76-1.93,24.33-4,10.81-3.37,21.54-7.62,30.25-15.08,16.88-14.48,25.32-37,27.19-59,9.34,14.37,16.32,30,22.64,46.11,4.95,12.62,8.5,24,.84,36.52-6.18,10.11-15.77,18.42-25.86,24.48-17.14,10.3-50.76,22.07-63.29.14C374.76,355.34,369.78,345.47,364.25,335.94Zm59.88,450.39a246.89,246.89,0,0,0-17.62-48.73c-2.39-4.82-5.21-9.73-11.44-8.3-4.15,1-8.39,4.18-12.17,7.63-1.64-19-3.09-38.15-5.27-57.13-.68-5.87-1-16.76-6.11-20.83-3.24-2.6-6.82-1.48-10.12.53,0-19.84,1.79-39.63,1.52-59.35,12.27,29.62,27.56,58.18,42.19,86.4a4.37,4.37,0,0,0,1.16,1.44c-.12,2.42-.16,4.84-.08,7.28.46,14.19,3.54,27.83,9.61,39.57a4.62,4.62,0,0,0-.1,2c2.57,16.6,8.35,32.27,15.28,47.48A40.73,40.73,0,0,1,424.13,786.33Zm130.54,11.53c-5.47,17.08-15,30.74-27.73,42.76l-2.07-4.81c-1.3-3-6.4-2.85-7.75,0a108.52,108.52,0,0,1-29.29,37.66,328.36,328.36,0,0,0-9.44-37.39,4.56,4.56,0,0,0-6.6-2.69,37.32,37.32,0,0,0-5.65,3.83q-11.86-24.76-23.71-49.54a235,235,0,0,1-14.12-35.75,63.85,63.85,0,0,0,22.28,14.15c16,6,31.7,5.4,48.38,5.42,6.79,0,13.42,1.51,20.16,1.28A87.16,87.16,0,0,0,545,767.57a78.6,78.6,0,0,0,15.23-7.33C558.52,772.79,558.64,785.51,554.67,797.86Zm75-138.55c-5.6,3.7-5.88,15.29-6.56,21.19-2.19,19-3.64,38.09-5.27,57.14-3.64-3.31-7.68-6.44-11.58-7.56-6.46-1.88-9.58,3.25-12,8.21A247.24,247.24,0,0,0,576.6,787a42,42,0,0,1-9.31-3.07c.16-1.07.3-2.16.41-3.25,1-9.58.81-19.33,3.25-28.7,13-12.17,20.75-28.86,22.71-48.47a99.85,99.85,0,0,0,.26-14.76,4.4,4.4,0,0,0,1.36-1.59C610,658.73,625.5,629.91,637.82,600c-.33,20,1.56,40.07,1.51,60.18C636.23,658.27,632.86,657.2,629.67,659.31Zm9.06-272.23c2.52,2.14,6.54,1.48,7.51-2,6.82-24.44,24.1-43.11,46.58-54.38A117.32,117.32,0,0,1,726.91,320c12.92-2,29.89-3.93,42.58.61A158.47,158.47,0,0,1,766,347.7c-1.77,8.38-3.09,18.52-6.61,26.35-2.15,4.78-4.2,8.86-6,14.09A58,58,0,0,1,742.62,407c-17.78,20.66-47.46,28.11-73.75,24.44a4.67,4.67,0,0,0-1.88.1c1.52-11.15,3.75-23.06,7.91-33.64a1,1,0,0,0,.19.16c3.18,2.07,8.41-.06,11.51-1.59a28.28,28.28,0,0,0,9.56-8.41c1-1.34-1.21-3-2.34-1.81a23.09,23.09,0,0,1-9.56,6.15c-2.37.85-5.44.8-7.79,1.77q1.32-2.91,2.87-5.63a1.81,1.81,0,0,0,1.3.8c4.5.44,8.52-2.36,11.58-5.45,1.28-1.3-.47-3.8-2-2.62-2.8,2.13-6.05,3.14-9.18,4.55,4.93-7.59,11.55-13.67,20.58-17,5.38-2,3-10.68-2.39-8.67C674.15,369.41,665,394.7,660.41,419c-5.88,30.75-5.42,61.41-8.22,92.41C647,569.28,619,622.23,592.48,673.13c-1-8.13-2-16.26-2.26-24.52-.54-20.14,3.5-39.25,15.15-55.94,3.32-4.75-4.47-9.24-7.76-4.53-16.87,24.16-18.27,53.1-14.62,81.47,3.91,30.42,2.82,64.88-26.58,82.68a74.6,74.6,0,0,1-47.23,10.49c-15.31-1.58-30.22,1.39-45.48-2.14C447.93,757,433.3,749,425.34,734.43c-8.38-15.29-10.87-32.49-10.08-49.73.78-17,5.86-33.38,3.88-50.4-1.94-16.68-8.07-32.29-16.36-46.8-2.86-5-10.63-.5-7.75,4.54,9.2,16.11,16,34.19,15.75,53-.12,9.22-1.64,18.28-2.91,27.38-26.53-50.87-54.45-103.79-59.67-161.66-2.79-31-2.33-61.67-8.21-92.42-4.65-24.26-13.74-49.54-38.81-58.82-5.43-2-7.77,6.68-2.38,8.67,9.07,3.36,15.71,9.48,20.65,17.12a33.37,33.37,0,0,1-7.72-3.91c-1.53-1.17-3.31,1.31-2,2.62,3.06,3.09,7.08,5.89,11.58,5.45a1.6,1.6,0,0,0,.53-.14c.79,1.46,1.54,3,2.23,4.51-2.09-.52-4.48-.63-6.38-1.31a23.09,23.09,0,0,1-9.56-6.15c-1.12-1.22-3.39.45-2.34,1.81a28.28,28.28,0,0,0,9.56,8.41c2.85,1.41,7.46,3.27,10.67,2a122.91,122.91,0,0,1,5.26,19.28,2.17,2.17,0,0,0-.38-.16c-8.21-1.65-16.14-2.32-23.64-6.53-7.91-4.43-13.28-11.37-17.62-19.16-6.63-11.92-11.92-24.11-22.41-33.25a.75.75,0,0,0-1.07,1.06c11.86,12.94,14,31.59,24.54,45.43,9.05,11.85,25.19,19.88,40.2,17.66a2,2,0,0,0,1.2-.64c.5,2.91.93,5.8,1.32,8.65a4.67,4.67,0,0,0-1.88-.1c-26.28,3.67-56-3.77-73.74-24.44a57.42,57.42,0,0,1-10.4-17.74c-1-2.85-1.41-6.09-2.63-8.84-.86-1.92-2.34-3-3.31-4.72-3.94-7.08-5-18.44-6.72-26.36a162.6,162.6,0,0,1-3.82-28.78c12.39-4.42,28.74-2.66,41.36-.8a117.07,117.07,0,0,1,35.32,11c22.47,11.27,39.75,29.94,46.58,54.38,1,3.46,5,4.13,7.51,2q7-5.94,14.16-11.7c.13.18.25.37.38.54C389,391.76,415,386.86,432,380.48c19.61-7.36,40.21-22,48.55-41.93,3.82-9.1,3.2-17.79.49-26.74h38.45c-2.87,9.18-3.62,18.06.29,27.38,4.55,10.85,13.17,19.95,22.3,27.17,15.86,12.55,36.94,21,57.41,20.51,9.63-.23,18.59-3.15,24.66-10.94.14-.18.25-.36.39-.54C629.33,379.24,634.06,383.12,638.73,387.08ZM620,365.76c-7.27,12.79-20,13.32-33.14,11.08-21.42-3.65-43.21-16-55.23-34.44-8.43-12.95-5.13-24.52.06-37.77,4.8-12.24,9.77-24.44,16.27-35.91,2.41-4.26,5-8.39,7.78-12.39,1.61,22.41,10.06,45.64,27.32,60.44,8.7,7.46,19.44,11.71,30.25,15.08,6,1.88,15.11,5.53,22.31,4.45C629.89,345.85,625.54,356.1,620,365.76Zm20.69-37.35c-5,.26-9.49.87-14.6-.25-4.57-1-9.15-2.52-13.6-4-10.11-3.31-20-7.7-27.69-15.3-14.75-14.67-22.72-37.53-25-58.17a181.28,181.28,0,0,1,20.42-22.82c-.34,42.34,31.23,78.31,72.91,84.25A159.33,159.33,0,0,0,640.73,328.41Zm18.06-22.32c-42.65-4.22-74-39.45-73.88-82.43a215.6,215.6,0,0,1,44.28-30.07c-3.44,20.73-3.84,40.89,4.12,61,3.78,9.53,7.71,19.78,14.13,27.85,5.36,6.73,12.5,11.59,19.88,15.86C664.36,300.75,661.5,303.34,658.79,306.09Zm17.28-14.63c-1,.73-2,1.51-3,2.27a3.71,3.71,0,0,0-.32-.23c-8-4.63-15.74-9.8-21.19-17.42-5.78-8.08-9.81-18.36-13.18-27.63-6.77-18.61-6-37.85-4.39-57.21.57-.28,1.12-.57,1.69-.84a246.41,246.41,0,0,1,24.83-10.16c-11.64,15.79-12.22,39-7.27,57.28,5.71,21,23.87,36.51,44.87,41.78A126.67,126.67,0,0,0,676.07,291.46Zm27-14.2s-.06-.07-.1-.09c-8.2-5.43-17.51-8.94-25.48-14.8A46.52,46.52,0,0,1,660.27,237c-5.47-19.31-3.77-41.83,9.78-57.34a3.38,3.38,0,0,0,.88-2.77c6.9-2.08,13.92-3.91,21-5.42-14.53,35.44,2.69,74.81,29.65,100A141.26,141.26,0,0,0,703,277.26Zm27.31-7.56c-28-25.89-44.69-61.32-33.23-99.29a263.67,263.67,0,0,1,34.8-4.35c-8.2,16.25-11.21,33.4-3.64,50.83,7.7,17.74,16.58,35.68,29.39,50.33A164.62,164.62,0,0,0,730.34,269.7Zm37.18-2.25a4.13,4.13,0,0,0-.54-.68c-13.22-13.36-21.59-30-29.59-46.79-4.29-9-7.59-17.5-7.07-27.68.47-9.08,3.3-18,6.52-26.47a250,250,0,0,1,42,1.84c-12.81,7.77-20.37,23-22.41,37.59-3,21.62,4.25,43.13,13.75,62.33C769.27,267.53,768.39,267.5,767.52,267.45Zm18.24,1.82c-2.59-.4-5.2-.73-7.81-1a3.68,3.68,0,0,0-.35-1.64c-8-17.55-15.91-35.84-14.81-55.6,1-18,9.22-32.09,23.44-42.27a221.88,221.88,0,0,1,29,6.74C802.38,181.11,794,195,790.53,208.26c-2.79,10.53-3.33,21.69-2.62,32.51.65,9.8,1.77,20.93,6.09,30Q789.91,269.91,785.76,269.27Zm22.89,5.1q-3.79-1.14-7.67-2.08a2.88,2.88,0,0,0,0-.72c-1.07-8.73-4.2-17-5.28-25.84a105.2,105.2,0,0,1,.14-28.47c2.71-17.71,11.47-30.55,26.26-39.53A192.45,192.45,0,0,1,860.93,196a46.25,46.25,0,0,0-38,18.82c-5.92,7.93-8.35,17.05-10.33,26.6C810.28,252.33,808.35,263.24,808.65,274.37Zm30.24,13a129.88,129.88,0,0,0-23.73-10.92c-.52-9.62.73-19,2.57-28.48,1.67-8.6,3-17.55,7.27-25.35,8.68-16.09,25.72-22.83,43.1-22a173.37,173.37,0,0,1,22.25,18.05q3.36,3.22,6.47,6.62c-16.44-3.65-33.61-3.17-45.9,10.59C838.25,250.12,837.14,269.29,838.89,287.39Zm15.4-45.12c11.59-15.57,30.23-14.49,47.39-11.38a162.73,162.73,0,0,1,14.05,19.64c-14.41-5.8-29.66-7.43-43.54,2.23-10,7-24.48,21.88-26.33,35.92C844.34,272.68,844.31,255.66,854.29,242.27Zm-3.4,53.35c2.94-5.43,3.63-11.79,6.8-17.3A68.28,68.28,0,0,1,873,260.51c13.68-11.47,30.73-10.2,46.29-3.93a195.49,195.49,0,0,1,13,28.75c-11.36-6.59-27-9.17-38-4.91-13.74,5.32-23.57,18.13-26.29,32.4A97.71,97.71,0,0,0,850.89,295.62Zm29.69,39A97.73,97.73,0,0,0,872.33,319,2.75,2.75,0,0,0,874,317c2.68-13.46,10.09-26.18,23.73-30.93,10.45-3.64,26.18.07,36.82,6A256.77,256.77,0,0,1,943.12,327c-20.55-8.17-45.51-4.42-60.48,12.79C882,338.07,881.3,336.34,880.58,334.62Zm4.43,11.8a2.05,2.05,0,0,0,.45-.34c16.79-15.51,37.27-22.14,58.58-13.48,1.27,8.26,2.21,16.56,2.85,24.82.54,7.06,1,14.13,1.1,21.18-14.84-16.71-38.93-31.54-60.59-24.5C886.66,351.53,885.87,349,885,346.42Zm18.62,140c-8.4,2.93-20.46-1.51-17.81-12.25,1.95-6.7,3.6-13.54,4.95-20.46,5.5,4.07,10.3,8.06,13.58,14.32,2.29,4.39,3,10.56,5.49,15A23.49,23.49,0,0,1,903.63,486.39Zm16-14.29a62.83,62.83,0,0,1-4.66,6.08c-.84-5.05-3.73-10.42-5.9-14.13-4.09-7-10.45-11.39-17.46-15.18a230.55,230.55,0,0,0,3.08-27.16c16.67,6.36,25.53,23.77,31.82,39.4C924.38,464.87,922.08,468.55,919.68,472.1Zm17.87-32.47c-2.1,4.66-4.38,9.33-6.81,13.93-5.44-16.14-19.62-34.36-35.81-36.57q.23-7,0-14a2.21,2.21,0,0,0,.34.18c17.56,5.19,35.61,7.85,47,23.82A105,105,0,0,1,937.55,439.63Zm6.86-20.57c-11.84-13.62-31-18.64-48.59-20a1.79,1.79,0,0,0-1,.24,201.22,201.22,0,0,0-5.75-39.2c21.25-5.53,44.61,9.38,59,25A155.6,155.6,0,0,1,944.41,419.06Z"/><path d="M419.1,588.85a0,0,0,0,0,0-.09C419.05,588.76,419.05,588.85,419.1,588.85Z"/><path d="M513.16,792.63c-3.56.48-5.89-.31-8.52-1.15a2.47,2.47,0,0,0-1.72-2.27c-8.48-2.57-17.92,2.5-27,1.07-10.91-1.73-22.36-7.75-29.11-16.65-1.3-1.71-4.18-.18-3,1.74,6.3,10,14.07,17.21,25.53,20.73,8.84,2.72,20.74,3,29.88-.47,11.55,15.46,43.37-9.5,51.41-18.62a2,2,0,0,0-2.81-2.8,77.2,77.2,0,0,1-23.47,15A50.32,50.32,0,0,1,513.16,792.63Z"/><path d="M462.72,803.73a38.27,38.27,0,0,1,5.25,9.49c1.09,2.93,1.68,6,3,8.81a1.25,1.25,0,0,0,2.27-.3c1-7.2-3.55-14.64-7.86-20.07C464.2,800.16,461.57,802.17,462.72,803.73Z"/><path d="M472.87,807.89a44.42,44.42,0,0,1,2.52,7.94c.53,2.48.66,5.09,1.51,7.47.44,1.23,2.48,1.51,2.78,0,1.1-5.61-1.67-12-4.11-17C474.66,804.48,472.11,806.09,472.87,807.89Z"/><path d="M481.05,808.56c2.08,7,3.95,14.09,5.69,21.21,1.54,6.31,2.34,13.08,5.27,18.9,1.06,2.11,4.19,1,4.25-1.15.37-12.94-6.66-28.1-10.88-40.16C484.44,804.67,480.22,805.75,481.05,808.56Z"/><path d="M493,812.28a99.36,99.36,0,0,1,3.72,16.25c.74,5.41.32,11.17,2.07,16.36a1.56,1.56,0,0,0,3,0c3.74-10.12-1.21-24.17-4.91-33.68C496,808.87,492.25,809.77,493,812.28Z"/><path d="M505,815.21c.63,6.56-.15,13.69,1.43,20.08a1.68,1.68,0,0,0,3.22,0c2-6.24.71-13.71,0-20.08C509.26,812.33,504.72,812.24,505,815.21Z"/><path d="M514.2,814.82c.37,4.48-.37,9.06.2,13.48.18,1.48,2.43,2.66,3.23.88,2-4.4,1.72-9.65,1.31-14.36C518.68,811.81,514,811.78,514.2,814.82Z"/><path d="M540.77,792.51c-6,11.45-13.17,25-14.13,38.08a1.74,1.74,0,0,0,3.21.87c5.83-11.78,8.92-24.75,15-36.56C546.25,792.2,542.19,789.81,540.77,792.51Z"/><path d="M524.19,806.2c-.91,2.79-2.17,5.68-2.33,8.63-.09,1.68,2.15,2,3,.81,1.63-2.44,2.34-5.6,3.28-8.36C529,804.8,525,803.71,524.19,806.2Z"/><path d="M470.12,688.35a1.39,1.39,0,0,0-1.4,2.39,35.58,35.58,0,0,1,15.61,20.72c2.57,9.47-.57,17.1-2.39,26.16a1.47,1.47,0,0,0,2.44,1.42C499.87,722.94,486.42,697.25,470.12,688.35Z"/><path d="M428.26,702.25c-.51-8.83,2-18-2.91-25.91-1-1.56-4-1.07-3.72,1,1.16,10.71-.26,22.75,2.67,33.14,2.49,8.85,8.56,16.23,15.5,22,1.14.94,3.08-.26,2.18-1.68C436.11,721.56,428.92,713.78,428.26,702.25Z"/><path d="M293.36,385.86c4.75,6.38,9.57,12.87,16.08,17.57,4.72,3.41,12,7.45,17.73,4.78a1.62,1.62,0,0,0,0-2.78c-2.25-1.27-4.51-1.36-7-2.05a31.94,31.94,0,0,1-9.32-4.38c-5.9-4-10.51-9.63-15-15.05C294.71,382.59,292.29,384.42,293.36,385.86Z"/><path d="M241.32,328.92c-.52-1.39-2.71-.85-2.27.63,3.06,10.3,4.1,20.48,5.37,31.1,1,8.64,7.42,14.87,8.35,23.27.21,1.86,2.88,2.5,3.45.46,2.41-8.5-6.26-15.76-7.66-24C246.73,349.55,245.13,339.28,241.32,328.92Z"/><path d="M350.42,387.12c-3.67-15.22-15.13-30.48-26.28-41.19-10.8-10.37-24-17.19-38.89-19-1.66-.2-2,2.52-.4,2.9,14.49,3.43,27.2,11.22,37.58,21.83,10.7,11,16.16,24.7,25.3,36.6A1.48,1.48,0,0,0,350.42,387.12Z"/><path d="M389,360.13a2.45,2.45,0,0,0-1.71,4.14c4.84,4.36,10.78,3.3,16.87,2.43a134,134,0,0,0,29.08-7c14.67-5.59,27.24-14.79,34.89-28.71a1.88,1.88,0,0,0-3.25-1.89C448.59,352.73,416.25,361.57,389,360.13Z"/><path d="M383.1,356.78c12.65,3.92,29.73-1.64,41.8-5.61a1.77,1.77,0,0,0-.94-3.42,187.85,187.85,0,0,1-22.64,3.13c-6.05.49-12.41,0-18.22,1.7A2.19,2.19,0,0,0,383.1,356.78Z"/><path d="M396.62,347c2.62-.79,1.52-4.57-1.12-4.06a66.21,66.21,0,0,1-8.77,1.05c-2.46.14-4.69.12-6.93,1.26a1.6,1.6,0,0,0,0,2.73C384.56,350.73,391.73,348.43,396.62,347Z"/><path d="M262.75,400.36c5,4.21,7.84,10.27,13.11,14.43,5,3.92,11.06,7.79,17.46,8.49,1.71.19,1.94-2.15.8-2.94-5.73-4-12.52-5.81-18-10.43-4.26-3.61-7.11-8.52-11.56-11.89C263.22,397,261.46,399.27,262.75,400.36Z"/><path d="M407.41,572.63c-.14-2.76-4.35-2.8-4.32,0,0,3-1.15,5.9-1,8.87a1.64,1.64,0,0,0,2.76,1.14C407.42,580.15,407.57,576,407.41,572.63Z"/><path d="M408.48,575.88c-.63,3.17-2.08,7.06-1.12,10.26a1.51,1.51,0,0,0,2.5.66c2.16-2.61,2.36-6.49,3-9.7C413.47,574.23,409.06,573,408.48,575.88Z"/><path d="M414.27,574.18c-.5,3.88-1.17,7.71-1.94,11.54-.64,3.17-1.62,6.36-1.31,9.61a1.48,1.48,0,0,0,2.74.74c4-5.79,4.19-15,4.89-21.89C419,571.35,414.62,571.43,414.27,574.18Z"/><path d="M422.91,567.69a1.41,1.41,0,0,0-2.71.75c3.55,14.84-3.2,26.86-4.31,41.17-.1,1.29,1.72,1.62,2.32.63C425.61,598.12,427.07,581.11,422.91,567.69Z"/><path d="M423.57,613.87c1.41-2.11,1.91-4.68,2.6-7.1q1.13-3.94,2.39-7.85c.7-2.19-2.58-3-3.38-.93-1.76,4.51-4.73,10.14-4.58,15.07A1.61,1.61,0,0,0,423.57,613.87Z"/><path d="M446.67,593.12c.16-1.72-2.7-2.11-3-.41-2.22,11.39-4.66,22.8-7.74,34-2.79,10.11-7.4,20.51-8.37,30.95-.17,1.86,2.4,2.21,3.27.89,6-9.1,8.22-21.53,10.57-32.06A272.42,272.42,0,0,0,446.67,593.12Z"/><path d="M438.52,659.48c7-10,9.67-24.12,11.68-35.91.38-2.21-2.91-3.2-3.42-.94a167.8,167.8,0,0,1-5.1,18c-2,5.86-5,11.47-6.56,17.45C434.56,660.17,437.34,661.16,438.52,659.48Z"/><path d="M446.38,665.14c2.21-3.12,2.84-7.24,3.72-10.91,1-4.17,1.67-8.37,2.26-12.61.27-2-2.5-2.86-3.05-.84-1.11,4.1-2.32,8.18-3.48,12.27-1,3.66-2.71,7.39-2.66,11.22A1.74,1.74,0,0,0,446.38,665.14Z"/><path d="M453,669.84c3.6-3.48,3.57-10.24,3-14.82-.27-2.11-3.52-2.25-3.41,0a25.76,25.76,0,0,1-.65,7.42c-.53,2.11-1.41,4.14-1.53,6.32A1.55,1.55,0,0,0,453,669.84Z"/><path d="M394.74,625.84c-2.26-5.76-4.12-11.67-6-17.56-3.68-11.56-7.51-22.76-14-33.08a1.46,1.46,0,0,0-2.51,1.47c6.7,12,10.2,25.16,14.17,38.19,3,9.85,6.21,23,14.16,30.13.95.85,2.7,0,2.26-1.31C400.82,637.5,397.12,631.91,394.74,625.84Z"/><path d="M393.24,612q2.14,6.25,4.31,12.5c1.29,3.73,2.26,7.87,4.6,11.09.94,1.3,3.58,1.07,3.4-.92-.38-4-2.25-7.65-3.76-11.34q-2.52-6.15-5-12.3C395.89,608.86,392.45,609.68,393.24,612Z"/><path d="M365.14,623.88c.53,9.28.14,19,1.43,28.16.24,1.75,3.13,1.67,3.45,0,1.75-9.16.1-19.57-2.16-28.53A1.39,1.39,0,0,0,365.14,623.88Z"/><path d="M372.34,634.22c1.73,7.15,2,14.35,3.12,21.56.27,1.63,2.49,1,2.65-.36.87-7.23-1.1-15-3.23-21.9A1.32,1.32,0,0,0,372.34,634.22Z"/><path d="M379.93,656.19c2.83,18.87,3.34,38.52,7.61,57.11.48,2.09,3.58,1.55,3.65-.5.61-19-4.51-38.93-8.68-57.32C382.12,653.77,379.69,654.53,379.93,656.19Z"/><path d="M391.48,678.16c2.26,15.29,3,31.08,6,46.22.36,1.82,3,1.24,3.07-.42,1.14-15.28-2.25-31.9-5.9-46.67C394.11,675.2,391.18,676.14,391.48,678.16Z"/><path d="M375.92,449.88c10.7,2.68,20.82,4.79,30.61,10a1.63,1.63,0,0,0,2-2.54c-7-8.81-21.6-8.9-31.79-10.3C374.89,446.79,374,449.41,375.92,449.88Z"/><path d="M423.49,464.62a1.41,1.41,0,0,0-1.7,2.2c7.28,7.26,15.18,13.77,21.06,22.29,6.07,8.8,10.44,18.81,14,28.83,7.11,19.72,8.51,39.71,11.53,60.23.36,2.42,3.7,1.5,3.93-.53,2.56-22.31-4.27-46.71-12.55-67.21C452,491.12,441.36,475.69,423.49,464.62Z"/><path d="M357.93,472.56a40.89,40.89,0,0,0,6.31-4.11c1.16-.93-.1-2.71-1.38-2.38a41.34,41.34,0,0,0-7.14,2.72c-2.09,1-4.52,1.53-5.33,3.86a1.7,1.7,0,0,0,1.17,2.07C353.85,475.44,356,473.62,357.93,472.56Z"/><path d="M352.37,465.77c2.07.32,4.09-.77,6-1.49a1.88,1.88,0,0,0-1-3.62c-1.94.41-4.31.57-5.85,1.92A1.92,1.92,0,0,0,352.37,465.77Z"/><path d="M352.33,458.29c.48.13,1,.2,1.47.31a2.33,2.33,0,1,0,.62-4.59,5.09,5.09,0,0,0-2.82.11c-1.22.5-2,2.13-.85,3.19A3.94,3.94,0,0,0,352.33,458.29Z"/><path d="M377.38,394.81c28.44,11,58.72.34,83-15.5,1.17-.76.11-2.61-1.1-1.88-12.13,7.32-25.46,11.71-39.21,14.9a59,59,0,0,1-22.54,1c-6.47-.92-13.06-3-19.6-2.24A1.92,1.92,0,0,0,377.38,394.81Z"/><path d="M424.09,400.58a146.47,146.47,0,0,1-22.32,3.54c-6.81.42-12.82-2.13-19.44-2.76-1.32-.13-1.87,1.67-1,2.52,11,11.27,31,2.63,43.59-.42C426.75,403,426,400.17,424.09,400.58Z"/><path d="M399.08,415.22a52.34,52.34,0,0,1-8.29-.83c-2.28-.43-4.44-1.12-6.73-.52a1.62,1.62,0,0,0-.71,2.67c1.9,2,4.6,2.29,7.2,2.66a57.91,57.91,0,0,0,8.53.54C402,419.72,402,415.29,399.08,415.22Z"/><path d="M388.29,422.31a22.51,22.51,0,0,0-5,1.35c-1.24.43-1.55,2.58,0,2.84a22.34,22.34,0,0,0,5,.59c1.8-.09,3.6-.33,5.39-.51,2.92-.29,3-4.82,0-4.63C391.89,422.06,390.08,422.13,388.29,422.31Z"/><path d="M356.58,440.19c.24-15.89-8.38-31.19-15.46-44.92-.66-1.27-2.91-.37-2.35,1,6.09,14.7,10.35,29.07,14.29,44.42A1.8,1.8,0,0,0,356.58,440.19Z"/><path d="M361.28,437.05c.34,1.54,2.34,1,2.52-.34.64-4.85-.64-9.7-2.27-14.23a1.48,1.48,0,0,0-2.85.78C359.89,427.81,360.27,432.47,361.28,437.05Z"/><path d="M389.48,474.44c-13.17-.25-28.61,5.76-37.54,15.65a1.82,1.82,0,0,0,2.2,2.83c5.29-2.39,9.81-6.3,15-9a48.61,48.61,0,0,1,20.37-5.86A1.81,1.81,0,0,0,389.48,474.44Z"/><path d="M382.5,481.41c-10.82,3.8-24.29,11.17-29.21,22.17a1.66,1.66,0,0,0,2.59,2c4.49-3.83,8-8.59,12.69-12.25a68.47,68.47,0,0,1,15.16-9C385.38,483.62,384.2,480.81,382.5,481.41Z"/><path d="M373.31,497.18c1.69-1.39-.71-3.69-2.39-2.38-7.36,5.74-16.17,13.12-19.87,21.94-.58,1.36,1.4,2.21,2.31,1.35,3.5-3.27,6.18-7.43,9.41-11A100,100,0,0,1,373.31,497.18Z"/><path d="M361.73,518a52.41,52.41,0,0,1,5.26-6.72c1.75-1.92-1.07-4.76-2.85-2.86a60.63,60.63,0,0,0-5.52,6.77c-1.48,2.12-3.48,4.63-3.26,7.36a1.34,1.34,0,0,0,2,1.14C359.46,522.42,360.42,520,361.73,518Z"/><path d="M363.63,525.66a32.41,32.41,0,0,0,2.87-5.59c1.05-2.52-3.07-3.63-4.1-1.13a31.93,31.93,0,0,1-2.58,4.87c-1,1.53-1.63,3.17-2.67,4.65-.89,1.27,1,2.35,2,1.53A19.64,19.64,0,0,0,363.63,525.66Z"/><path d="M363.84,529c-1.42,3.07-3.73,6.65-4,10.06a1.38,1.38,0,0,0,2.34,1c2.29-2.52,3.3-6.68,4.54-9.81C367.39,528.57,364.6,527.38,363.84,529Z"/><path d="M364.71,539.54a31,31,0,0,0-1.93,6.16,1,1,0,0,0,1.89.8,32.48,32.48,0,0,0,2.88-6.18C368.25,538.57,365.38,537.77,364.71,539.54Z"/><path d="M517.6,711.35a35.58,35.58,0,0,1,15.61-20.72,1.39,1.39,0,0,0-1.4-2.39c-16.31,8.9-29.75,34.59-14.26,50.69a1.47,1.47,0,0,0,2.44-1.42C518.17,728.45,515,720.82,517.6,711.35Z"/><path d="M576.58,676.23c-4.86,7.93-2.39,17.09-2.91,25.92-.67,11.53-7.85,19.29-13.72,28.56-.89,1.41,1,2.63,2.18,1.68,6.94-5.78,13-13.15,15.5-22,2.94-10.44,1.51-22.4,2.67-33.15C580.53,675.16,577.53,674.67,576.58,676.23Z"/><path d="M695.9,410.31c-7.75,4.81-16.17,5.52-24.85,7.26-2.51.51-2.65,4.82,0,5.21,15.05,2.23,31.1-5.83,40.2-17.65,10.62-13.82,12.67-32.49,24.54-45.44a.75.75,0,0,0-1.07-1.06c-10.49,9.14-15.78,21.33-22.41,33.25C708.19,399.28,703.19,405.8,695.9,410.31Z"/><path d="M674.76,408.11c5.78,2.67,13-1.38,17.73-4.79,6.51-4.7,11.33-11.19,16.08-17.56,1.06-1.43-1.34-3.29-2.48-1.92-4.52,5.42-9.13,11.07-15,15.05a32,32,0,0,1-8.37,4.13c-2.77.85-5.39.88-7.93,2.3A1.63,1.63,0,0,0,674.76,408.11Z"/><path d="M749.16,383.81c.93-8.39,7.32-14.62,8.35-23.27,1.27-10.6,2.31-20.81,5.37-31.1.44-1.47-1.75-2-2.27-.63-3.82,10.37-5.4,20.63-7.24,31.43-1.41,8.26-10.06,15.56-7.66,24C746.28,386.3,749,385.69,749.16,383.81Z"/><path d="M654.2,388.15c9.14-11.91,14.6-25.66,25.3-36.61,10.38-10.61,23.09-18.4,37.58-21.83,1.57-.37,1.28-3.1-.4-2.89-14.89,1.81-28.09,8.64-38.89,19-11.14,10.71-22.61,26-26.28,41.19A1.48,1.48,0,0,0,654.2,388.15Z"/><path d="M613,360c-27.3,1.44-59.62-7.4-75.88-31-1.36-2-4.43-.25-3.25,1.89,7.65,13.92,20.22,23.12,34.89,28.71a132.24,132.24,0,0,0,27.52,6.76c6.46,1,13.23,2.48,18.43-2.21A2.44,2.44,0,0,0,613,360Z"/><path d="M618.83,352.47c-5.79-1.73-12.2-1.2-18.21-1.69A191.84,191.84,0,0,1,578,347.64a1.77,1.77,0,0,0-.94,3.42c12.07,4,29.15,9.53,41.8,5.61A2.19,2.19,0,0,0,618.83,352.47Z"/><path d="M622.13,345.09c-2.24-1.14-4.47-1.12-6.93-1.26a66.21,66.21,0,0,1-8.77-1.05c-2.64-.51-3.75,3.27-1.12,4.06,4.89,1.48,12.06,3.78,16.82,1A1.6,1.6,0,0,0,622.13,345.09Z"/><path d="M725.81,409.8c-5.49,4.58-12.27,6.4-18,10.43-1.14.8-.92,3.13.8,2.94,6.42-.7,12.47-4.57,17.46-8.49,5.28-4.15,8.1-10.22,13.11-14.43,1.28-1.07-.45-3.37-1.81-2.34C732.92,401.29,730.09,406.22,725.81,409.8Z"/><path d="M594.52,572.52c-.16,3.39,0,7.52,2.54,10a1.64,1.64,0,0,0,2.76-1.14c.17-3-1-5.85-1-8.87C598.87,569.73,594.66,569.76,594.52,572.52Z"/><path d="M589.05,577c.66,3.21.86,7.09,3,9.7a1.51,1.51,0,0,0,2.5-.66c1-3.2-.49-7.09-1.12-10.25C592.87,572.9,588.46,574.12,589.05,577Z"/><path d="M587.66,574.07c-.35-2.74-4.68-2.84-4.38,0,.7,6.85.86,16.1,4.89,21.9a1.48,1.48,0,0,0,2.74-.75c.31-3.24-.67-6.44-1.31-9.61C588.83,581.78,588.16,578,587.66,574.07Z"/><path d="M581.73,568.33a1.41,1.41,0,0,0-2.71-.75c-4.15,13.41-2.7,30.44,4.7,42.55.6,1,2.42.66,2.32-.63C584.92,595.12,578.17,583.24,581.73,568.33Z"/><path d="M573.37,598.81c.84,2.61,1.64,5.22,2.39,7.85.69,2.42,1.19,5,2.6,7.1a1.61,1.61,0,0,0,3-.8c.15-4.94-2.82-10.56-4.58-15.08C576,595.82,572.67,596.62,573.37,598.81Z"/><path d="M571.13,658.43c.87,1.32,3.44,1,3.27-.89-1-10.43-5.59-20.85-8.36-30.95-3.09-11.19-5.53-22.59-7.75-34-.32-1.68-3.19-1.33-3,.41a274.52,274.52,0,0,0,5.3,33.37C562.9,636.89,565.12,649.35,571.13,658.43Z"/><path d="M551.73,623.46c2,11.79,4.67,25.95,11.68,35.91,1.17,1.67,4,.71,3.4-1.43-1.58-6-4.54-11.59-6.56-17.45a167.8,167.8,0,0,1-5.1-18C554.64,620.26,551.35,621.25,551.73,623.46Z"/><path d="M549.57,641.51c.59,4.25,1.27,8.44,2.26,12.61.88,3.68,1.51,7.79,3.72,10.91a1.74,1.74,0,0,0,3.21-.87c0-3.83-1.61-7.56-2.66-11.22-1.16-4.09-2.37-8.16-3.48-12.27C552.07,638.65,549.3,639.56,549.57,641.51Z"/><path d="M545.93,654.91c-.59,4.58-.62,11.35,3,14.82a1.54,1.54,0,0,0,2.61-1.08c-.12-2.18-1-4.21-1.53-6.32a25.73,25.73,0,0,1-.65-7.42C549.45,652.67,546.2,652.8,545.93,654.91Z"/><path d="M627.2,575.1c-6.51,10.32-10.33,21.5-14,33.07-1.87,5.89-3.73,11.8-6,17.56-2.38,6.07-6.08,11.66-8.07,17.84-.44,1.36,1.31,2.16,2.26,1.32,7.92-7.08,11.17-20.35,14.16-30.13,4-13,7.47-26.23,14.17-38.19A1.46,1.46,0,0,0,627.2,575.1Z"/><path d="M604.38,624.34q2.16-6.24,4.31-12.5c.78-2.26-2.65-3.09-3.52-1q-2.5,6.15-5,12.31c-1.51,3.69-3.38,7.33-3.76,11.33-.18,2,2.46,2.22,3.4.92C602.12,632.21,603.09,628.08,604.38,624.34Z"/><path d="M634.07,623.4c-2.26,9-3.91,19.37-2.16,28.53.32,1.67,3.21,1.75,3.45,0,1.29-9.19.9-18.88,1.43-28.16A1.39,1.39,0,0,0,634.07,623.4Z"/><path d="M627.05,633.41c-2.13,6.85-4.1,14.67-3.23,21.9.16,1.36,2.38,2,2.65.36,1.18-7.21,1.39-14.41,3.12-21.56A1.32,1.32,0,0,0,627.05,633.41Z"/><path d="M619.42,655.37c-4.17,18.4-9.29,38.3-8.68,57.32.07,2,3.17,2.61,3.65.5,4.27-18.58,4.78-38.24,7.61-57.11C622.24,654.43,619.81,653.66,619.42,655.37Z"/><path d="M607.3,677.18c-3.65,14.77-7,31.4-5.9,46.67.12,1.65,2.7,2.26,3.07.42,3-15.14,3.72-30.93,6-46.22C610.75,676,607.82,675.09,607.3,677.18Z"/><path d="M593.44,457.23a1.63,1.63,0,0,0,2,2.54c9.79-5.21,19.91-7.31,30.61-10,1.9-.48,1-3.1-.78-2.85C615,448.33,600.48,448.42,593.44,457.23Z"/><path d="M533.5,578.06c3-20.51,4.43-40.52,11.53-60.23,3.43-9.53,7.56-19.1,13.18-27.57,6-9.07,14.28-15.92,21.93-23.54a1.41,1.41,0,0,0-1.7-2.21c-17.87,11.07-28.5,26.51-36.32,45.82-8.28,20.47-15.11,44.91-12.55,67.2C529.8,579.54,533.14,580.5,533.5,578.06Z"/><path d="M644,472.46c2,1.06,4.08,2.87,6.37,2.16a1.71,1.71,0,0,0,1.17-2.08c-.82-2.34-3.23-2.88-5.33-3.86a40.51,40.51,0,0,0-7.14-2.71c-1.27-.34-2.55,1.44-1.38,2.37A41.7,41.7,0,0,0,644,472.46Z"/><path d="M643.56,464.18c1.91.71,3.93,1.8,6,1.48a1.92,1.92,0,0,0,.85-3.19c-1.54-1.35-3.91-1.51-5.85-1.92A1.88,1.88,0,0,0,643.56,464.18Z"/><path d="M648.13,458.49c.49-.1,1-.18,1.47-.31a3.9,3.9,0,0,0,1.58-1c1.19-1.06.37-2.69-.85-3.19a5.09,5.09,0,0,0-2.82-.11,2.33,2.33,0,1,0,.62,4.59Z"/><path d="M607.27,392.76a62.33,62.33,0,0,1-25.37-.54c-13.75-3.19-27.08-7.58-39.21-14.9a1.09,1.09,0,0,0-1.1,1.88c24.26,15.85,54.5,26.51,83,15.5A1.92,1.92,0,0,0,624,391C618.37,390.31,612.86,391.85,607.27,392.76Z"/><path d="M619.6,401.25c-6.67.64-12.56,3.23-19.44,2.76a151.6,151.6,0,0,1-22.32-3.54c-1.86-.41-2.66,2.43-.79,2.88,12.62,3.06,32.57,11.7,43.59.42C621.46,402.92,620.92,401.13,619.6,401.25Z"/><path d="M618.58,416.43a1.61,1.61,0,0,0-.71-2.66c-2.29-.61-4.45.08-6.73.51a51.19,51.19,0,0,1-8.29.83c-2.91.07-2.92,4.5,0,4.53a57.92,57.92,0,0,0,8.53-.55C614,418.72,616.68,418.4,618.58,416.43Z"/><path d="M608.25,426.47c1.79.18,3.59.43,5.39.52a23,23,0,0,0,5-.6c1.55-.26,1.24-2.41,0-2.84a21.46,21.46,0,0,0-5-1.34c-1.79-.19-3.6-.26-5.39-.37C605.24,421.65,605.33,426.18,608.25,426.47Z"/><path d="M648.87,440.56c3.94-15.35,8.2-29.72,14.29-44.41.55-1.34-1.69-2.27-2.35-1-7.08,13.73-15.7,29-15.46,44.93A1.8,1.8,0,0,0,648.87,440.56Z"/><path d="M640.65,436.94c1-4.57,1.39-9.24,2.6-13.78a1.48,1.48,0,0,0-2.85-.79c-1.63,4.53-2.91,9.38-2.27,14.23C638.31,437.9,640.31,438.49,640.65,436.94Z"/><path d="M650,490c-8.94-9.89-24.36-15.9-37.54-15.65a1.81,1.81,0,0,0,0,3.61,48,48,0,0,1,20.37,5.86c5.14,2.75,9.68,6.62,15,9A1.82,1.82,0,0,0,650,490Z"/><path d="M619.43,481.3c-1.68-.59-2.9,2.2-1.23,2.92a68.24,68.24,0,0,1,15.16,9c4.68,3.67,8.2,8.42,12.69,12.25a1.66,1.66,0,0,0,2.59-2C643.72,492.47,630.26,485.1,619.43,481.3Z"/><path d="M631,494.69c-1.68-1.31-4.08,1-2.39,2.38A100,100,0,0,1,639.16,507c3.22,3.54,5.92,7.7,9.41,11,.91.86,2.89,0,2.31-1.35C647.18,507.81,638.37,500.43,631,494.69Z"/><path d="M637.79,508.31c-1.78-1.9-4.6.95-2.85,2.86a52.41,52.41,0,0,1,5.26,6.72c1.31,2,2.27,4.42,4.39,5.69a1.34,1.34,0,0,0,2-1.14c.22-2.73-1.78-5.24-3.26-7.36A60.63,60.63,0,0,0,637.79,508.31Z"/><path d="M642.11,523.7a31.93,31.93,0,0,1-2.58-4.87c-1-2.5-5.15-1.39-4.1,1.13a32.41,32.41,0,0,0,2.87,5.59,19.64,19.64,0,0,0,4.49,4.33c1,.82,2.89-.25,2-1.53C643.74,526.87,643.07,525.23,642.11,523.7Z"/><path d="M635.2,530.11c1.24,3.13,2.25,7.29,4.54,9.81a1.38,1.38,0,0,0,2.34-1c-.26-3.41-2.57-7-4-10.06C637.34,527.29,634.54,528.44,635.2,530.11Z"/><path d="M634.38,540.21a32.19,32.19,0,0,0,2.88,6.18,1,1,0,0,0,1.89-.8,31,31,0,0,0-1.93-6.16C636.55,537.66,633.68,538.46,634.38,540.21Z"/><path d="M366.89,552c-.2.86-.39,1.73-.58,2.6a0,0,0,0,0,.09,0L367,552S366.9,552,366.89,552Z"/><path d="M481.91,577.82c.24,1.7,3.1,2.06,3.79.49,3.87-8.89,2.5-20.94,1.48-30.32-.26-2.37-3.73-2.5-3.79,0-.13,5.26-.43,10.55-.81,15.8C482.23,568.5,481.26,573.12,481.91,577.82Z"/><path d="M491.72,552.62c.66,7.85,0,15.94,1.39,23.7.41,2.27,3.85,2.06,4.4,0,2.1-7.9.74-16.47-.34-24.44C496.75,548.81,491.46,549.51,491.72,552.62Z"/><path d="M507.41,555.1c-.55-3-5-1.69-4.53,1.25a60.05,60.05,0,0,1,.67,10c-.05,2.77-.79,5.68.15,8.33a1.93,1.93,0,0,0,3.47.45c1.79-2.7,1.48-6.35,1.4-9.49A66.9,66.9,0,0,0,507.41,555.1Z"/><path d="M513.06,571.18a.09.09,0,0,0,0-.18A.09.09,0,0,0,513.06,571.18Z"/><path d="M494.14,610.36c.5,15.61-.76,31.43.37,47a1.55,1.55,0,0,0,3.09,0c1.85-15.38.23-31.57-.72-47C496.77,608.61,494.08,608.58,494.14,610.36Z"/><path d="M493.54,409.37c.89-11.95-1-24.28-2-36.19-.26-3.16-5.16-3.23-5,0,.67,12.13.49,24.81,3.05,36.72C490.11,412.22,493.38,411.5,493.54,409.37Z"/><path d="M493,434.1a.09.09,0,1,0,0-.18A.09.09,0,0,0,493,434.1Z"/><path d="M504.27,461.49c4-23.6,1.88-49.14.41-72.92-.19-3-4.8-3-4.71,0,.75,24-1.44,48.5.44,72.4C500.57,463,503.87,463.83,504.27,461.49Z"/><path d="M514.6,452.9c2.79-13.79,2.15-28.06.95-42-.27-3.17-5.23-3.21-5,0,1.05,13.87.43,27.72,1.06,41.59C511.7,454.12,514.24,454.65,514.6,452.9Z"/><path d="M522.65,441.41c1.25-5.15,0-11.39-.24-16.64-.15-3.06-5-3.07-4.77,0,.32,5.23-.24,11.68,1.56,16.64C519.77,443,522.21,443.25,522.65,441.41Z"/><path d="M481.33,411.51c2-7.49.6-16.12-.28-23.7-.39-3.38-5.7-3.51-5.4,0,.66,7.79-.2,16.05,1.35,23.7C477.45,413.73,480.78,413.56,481.33,411.51Z"/><path d="M502.85,625c-1.73,7-1.31,16-.14,23.1.26,1.57,2.58,1.36,3,0,2-6.94,2.34-16.29-.27-23.1A1.35,1.35,0,0,0,502.85,625Z"/><path d="M808.53,642.32c-5.81-1-11.66-.91-17.53-1.12-2.88-.1-5.8-.4-8.71-.53a8.1,8.1,0,0,0-5.33-6.48c-.15-2.51-.38-5-.47-7.49-.21-5.88-.14-11.72-1.12-17.54a.92.92,0,0,0-1.76,0c-1,5.82-.92,11.66-1.12,17.54-.09,2.39-.3,4.81-.45,7.23a8.06,8.06,0,0,0-6.31,6.79c-2.59.15-5.18.39-7.75.48-5.87.21-11.72.14-17.53,1.12a.92.92,0,0,0,0,1.76c5.81,1,11.66.92,17.53,1.12,2.69.1,5.42.36,8.13.51A7.88,7.88,0,0,0,772,651c.14,2.91.43,5.83.54,8.72.2,5.87.14,11.72,1.12,17.53a.92.92,0,0,0,1.76,0c1-5.81.91-11.66,1.12-17.53.11-3,.42-6,.55-9a7.87,7.87,0,0,0,4.86-5c3-.12,6.09-.44,9.1-.55,5.87-.2,11.72-.14,17.53-1.12A.92.92,0,0,0,808.53,642.32Z"/><path d="M513.87,149.61c5.82,1,11.66.92,17.54,1.13,2.69.09,5.41.35,8.13.5a7.84,7.84,0,0,0,5.84,5.28c.13,2.91.43,5.83.53,8.72.21,5.88.14,11.72,1.12,17.53a.92.92,0,0,0,1.76,0c1-5.81.92-11.65,1.13-17.53.1-3,.42-6,.54-9a7.89,7.89,0,0,0,4.86-5c3-.13,6.09-.45,9.1-.55,5.88-.21,11.72-.15,17.53-1.13a.92.92,0,0,0,0-1.76c-5.81-1-11.65-.91-17.53-1.12-2.88-.1-5.8-.4-8.7-.53a8.11,8.11,0,0,0-5.34-6.48c-.15-2.51-.38-5-.46-7.49-.21-5.88-.15-11.72-1.13-17.54a.92.92,0,0,0-1.76,0c-1,5.82-.91,11.66-1.12,17.54-.09,2.39-.3,4.81-.45,7.23a8.05,8.05,0,0,0-6.3,6.79c-2.59.15-5.19.39-7.75.48-5.88.21-11.72.14-17.54,1.12A.92.92,0,0,0,513.87,149.61Z"/><path d="M344.57,791.68c-5.82-1-11.66-.92-17.54-1.13-2.88-.1-5.79-.39-8.7-.53a8.11,8.11,0,0,0-5.34-6.48c-.14-2.5-.37-5-.46-7.49-.21-5.88-.14-11.72-1.12-17.53a.92.92,0,0,0-1.76,0c-1,5.81-.92,11.65-1.13,17.53-.08,2.39-.3,4.81-.45,7.23a8.06,8.06,0,0,0-6.3,6.79c-2.59.15-5.18.39-7.75.48-5.88.21-11.72.14-17.53,1.13a.92.92,0,0,0,0,1.76c5.81,1,11.65.91,17.53,1.12,2.69.09,5.41.36,8.13.5a7.86,7.86,0,0,0,5.84,5.28c.13,2.92.43,5.84.53,8.72.21,5.88.14,11.72,1.13,17.53a.92.92,0,0,0,1.76,0c1-5.81.91-11.65,1.12-17.53.1-3,.42-6,.55-9a7.89,7.89,0,0,0,4.86-5c3-.13,6.08-.44,9.09-.55,5.88-.21,11.72-.14,17.54-1.12A.92.92,0,0,0,344.57,791.68Z"/><path d="M210.32,462.34c-5.81-1-11.65-.91-17.53-1.12-2.88-.11-5.79-.4-8.7-.54a8.1,8.1,0,0,0-5.34-6.47c-.15-2.51-.37-5-.46-7.5-.21-5.87-.14-11.72-1.13-17.53a.92.92,0,0,0-1.76,0c-1,5.81-.91,11.66-1.12,17.53-.08,2.4-.3,4.82-.45,7.24a8.05,8.05,0,0,0-6.3,6.79c-2.59.15-5.19.39-7.75.48-5.88.21-11.72.14-17.53,1.12a.92.92,0,0,0,0,1.76c5.81,1,11.65.91,17.53,1.12,2.69.1,5.41.36,8.13.5a7.84,7.84,0,0,0,5.84,5.29c.13,2.91.43,5.83.53,8.72.21,5.87.14,11.72,1.12,17.53a.92.92,0,0,0,1.76,0c1-5.81.92-11.66,1.13-17.53.1-3,.42-6,.55-9a7.86,7.86,0,0,0,4.85-5c3-.12,6.09-.44,9.1-.55,5.88-.21,11.72-.14,17.53-1.12A.92.92,0,0,0,210.32,462.34Z"/><path d="M726.37,501a15.69,15.69,0,1,0,15.69,15.69A15.7,15.7,0,0,0,726.37,501Zm0,26a10.3,10.3,0,1,1,10.3-10.3A10.31,10.31,0,0,1,726.37,527Z"/><path d="M696.43,715.18a15.69,15.69,0,1,0,15.69,15.69A15.71,15.71,0,0,0,696.43,715.18Zm0,26a10.3,10.3,0,1,1,10.3-10.3A10.31,10.31,0,0,1,696.43,741.17Z"/><path d="M256,597.8a15.7,15.7,0,1,0,15.7,15.69A15.71,15.71,0,0,0,256,597.8Zm0,26a10.3,10.3,0,1,1,10.3-10.3A10.31,10.31,0,0,1,256,623.79Z"/><path d="M447.78,210.55a15.69,15.69,0,1,0-15.7-15.69A15.71,15.71,0,0,0,447.78,210.55Zm0-26a10.3,10.3,0,1,1-10.31,10.3A10.31,10.31,0,0,1,447.78,184.56Z"/></svg>