<svg id="Layer_1" data-name="Layer 1" xmlns="http://www.w3.org/2000/svg" viewBox="0 0 1000 1000"><defs><style>.cls-1{fill:#ea7a3a;}.cls-2{fill:#faf7ec;}.cls-3{fill:#911a1d;}</style></defs><title>Leo</title><path class="cls-1" d="M651.46,407c-1.15-2.52-2.3-5-3.48-7.55-10.2-21.7-20.88-44.57-38.09-61.69-8.55-8.51-18.78-15.56-30.38-19.14-11.28-3.49-23.44-4.12-35.16-4.87-19.42-1.24-38.88-1.12-58.34-1h-.72l-9.62,0a4.28,4.28,0,0,1-1.16-.16l-7-.13a1.17,1.17,0,0,1,0,1.34c-7.21,11.08-15.76,21.17-22.76,32.43A273.27,273.27,0,0,0,426,381.08c-.35.81-1.74.21-1.42-.59,9.41-23.91,21.52-50.11,40.42-68.13-17.17-.33-34.34-.65-51.49.36-11.83.7-24.15,1.47-35.41,5.48-11,3.91-20.69,10.95-28.8,19.25-17,17.38-27.63,40.37-37.81,62.14q-1.42,3.07-2.82,6.17a6.06,6.06,0,0,1,0,.62c-1.34,35.84,4.34,72.55,18.75,105.56,12.35,28.26,34.53,50,50.17,76.24,1.33-20.95.43-41.09-8.25-61.36-2.07-4.84,5.05-9.05,7.14-4.17a129.13,129.13,0,0,1,10,60.18c-1.33,20.28-5.8,40.95-1.78,61.19,4.16,20.92,16.75,35.66,37.75,40.83,16.42,4,37.73,5.16,50.39-7.77-2.74-7.76-15-5.32-21.56-6.37-5.47-.86-11.75-2.71-16.16-6.25-8-6.44-7.08-21.18-6-30.2,2.86-23.42,35.87-21.44,53.21-20.72a2.51,2.51,0,0,1,.27,0c10.94.15,22,.91,32.41,4.4s15.13,9.25,16,20.26c.76,9.3,1,22.78-7.78,28.53-4.22,2.77-9.73,4.38-14.63,5.15-6.59,1.05-18.83-1.39-21.56,6.37,12.94,13.22,35,11.82,51.68,7.45,20.34-5.34,32.5-20.21,36.45-40.5,4-20.79-.63-41.91-1.86-62.73a127.79,127.79,0,0,1,10.13-58.65c2.08-4.88,9.2-.67,7.13,4.17-8.68,20.29-9.57,40.4-8.24,61.35,15.64-26.25,37.82-48,50.16-76.23,14.42-33,20.1-69.72,18.76-105.56A4.35,4.35,0,0,1,651.46,407Zm-214.52,6.31c1.34,1.6-.89,3.91-2.33,2.33-10.74-11.76-25.57-18.41-41-21.45A137.52,137.52,0,0,0,365.4,392c-7.4.08-15,1.29-22.31-.14-2.34-.47-1.91-3.66,0-4.33,8.73-3.06,19.38-2.38,28.52-2a121.71,121.71,0,0,1,26.11,3.58C413.13,393.13,426.7,401,436.94,413.27ZM452.85,314c1.07-.9,3,.29,2.07,1.6-10.41,15-20.66,28.19-27.42,45.42-.61,1.55-3.08.94-2.55-.71C430.35,343.67,439.2,325.42,452.85,314ZM440,316.51a1,1,0,0,1,1.49,1.15c-4,8.13-10,15.35-14.33,23.36-.75,1.39-2.73.17-2.09-1.22C428.8,331.72,433.19,322.47,440,316.51ZM429,317a1.35,1.35,0,0,1,2.45,1c-.67,4.48-4.14,8.76-6.92,12.18-1,1.18-3-.39-2.1-1.62a58,58,0,0,0,3.44-5.71A46.54,46.54,0,0,1,429,317Zm-9.16,6.32a40.47,40.47,0,0,1,3.6-5.36c.63-.76,2.07,0,1.7,1a41,41,0,0,1-3,5.7A1.31,1.31,0,0,1,419.79,323.34Zm-4-7.84c.78-1.11,2.93-.86,2.8.75-.37,4.54-2.34,8.8-3.86,13.06q-2.58,7.2-5.15,14.41c-1,2.68-5.27,1.51-4.3-1.19q2.61-7.18,5.2-14.39C412.06,323.89,413.23,319.22,415.83,315.5ZM396.45,352c3.11-10,4.9-20.9,8.89-30.53.61-1.47,3.29-1.5,3.08.41-1.18,10.43-5.94,21.05-9.82,30.71C398.08,353.91,396,353.42,396.45,352ZM394,381.76c-18.57-3.25-35.63-.42-54,1.82-2.36.29-2.3-3-.51-3.77,17.17-7,37.75-5.18,55.34-.91C396.64,379.36,395.81,382.08,394,381.76Zm-3.18-54.59c.52-2.69,4.63-1.55,4.11,1.13-1.82,9.27-3,19.61-6.91,28.25-.61,1.31-2.73.64-2.68-.73C385.68,346.28,389,336.53,390.79,327.17Zm-11.7-2c.48-2.37,4.05-1.35,3.61,1-2,10.66-3.27,21.88-6.64,32.21-.51,1.56-3.1,1.37-3-.4C373.85,347,376.9,336,379.09,325.16Zm-7.2-1.11c.52-2.25,3.84-1.27,3.43.95-1.29,6.79-2,14.17-4.59,20.62-.59,1.49-3,1.43-3-.4C368,338.14,370.31,330.92,371.89,324.05Zm-7.54,2.77a1.37,1.37,0,0,1,2.64.73c-1.75,6.08-2.34,12.57-4.3,18.56a1.19,1.19,0,0,1-2.32-.32C360.16,339.5,362.47,332.75,364.35,326.82ZM336,374.2c5.7-4.33,15.33-4.86,22.23-5.76,1.6-.21,1.91,2.46.38,2.79-3.89.83-7.73,1.84-11.56,2.91-3.4.95-6.83,2.47-10.4,2.47A1.31,1.31,0,0,1,336,374.2ZM314,430c6.57-10.1,22-12.23,32.95-12.59,1.06,0,1,1.5,0,1.62a57.81,57.81,0,0,0-18.69,5.84c-4.38,2.15-8.21,5.37-12.78,7.05A1.32,1.32,0,0,1,314,430Zm31.92,31c-8.15-6.69-11-18.94-9.69-29,.15-1.08,1.73-1.16,1.75,0,.18,10.93,4.05,18.69,9.28,27.95A.86.86,0,0,1,345.9,461Zm2.37,42.16A151.41,151.41,0,0,0,358,522.08c3.26,5.45,7.73,10.51,10.36,16.26a1.77,1.77,0,0,1-2.77,2.13C355.35,532,349.6,516.16,345.28,504,344.6,502,347.52,501.36,348.27,503.14Zm-34.13-61.78c2.65-5.79,9.69-10.19,15.19-12.89a1.13,1.13,0,0,1,1.14,1.95,50,50,0,0,0-8,5.76c-2.31,2-4.15,4.62-6.53,6.55A1.13,1.13,0,0,1,314.14,441.36Zm2.23,9a1.21,1.21,0,0,1-1.64-1.63c1.07-2,3.08-3.45,4.62-5.06s3.27-3.56,4.84-5.39c.88-1,2.6.33,1.85,1.43a64,64,0,0,1-4.41,5.72C320.12,447.16,318.5,449.36,316.37,450.35Zm55.84,106.42a1.88,1.88,0,0,1-2.56,2.56c-13.27-8.68-24.39-26.37-30.6-40.64-7.67-17.63-12.57-36.37-18.61-54.58-.5-1.52,1.82-2.1,2.37-.65,6.69,17.5,12.86,35.63,20.53,52.73a109.69,109.69,0,0,0,14.88,23.64C362.77,545.49,368.51,550.53,372.21,556.77Zm-8.88-80.94c-1.4-.81-.17-2.84,1.25-2.15,11.41,5.58,25.62,8.62,37.44,2.84.36-1.45.69-2.94,1-4.45a45.53,45.53,0,0,1-50.79-15.14c-5.19-6.58-12.6-17.74-11.39-26.63,1.17-8.63,13-6.71,19.29-6.5,17.95.62,46.77,6.53,51.54,27.32,2.19,9.56-.08,20.74-2.33,30.09a119,119,0,0,1-13.08,31.95c-2.68,4.6-9.81.43-7.13-4.17A111.84,111.84,0,0,0,400.3,483C388.45,488.08,373.59,481.75,363.33,475.83Zm52,8.91c-.43-5.3,7.84-5.26,8.26,0,1.71,21.2-1.14,42.15-4,63.12-1.56,11.5-3.11,23-3.73,34.63-.54,10-1.26,20.54,4.7,29.1,3,4.37-4.11,8.5-7.13,4.17-11.3-16.22-5.57-41.57-3.2-59.69C413.36,532.35,417.3,508.73,415.37,484.74Zm-12.58,64c-2-5.19-3.27-10.64-5.31-15.84-.63-1.62,2.08-2.74,2.81-1.18,2.46,5.3,4.68,10.79,4.87,16.7C405.21,549.92,403.25,550,402.79,548.78Zm.06,12.79a1.5,1.5,0,0,1-2.94.4c-2.84-9.18-3.43-18.41-7.4-27.35-.7-1.59,1.59-3,2.37-1.39C399,541.7,403.75,551.93,402.85,561.57Zm.52,106.29c-17.49-10.78-13.72-38-11.49-54.88a174.4,174.4,0,0,0-6.72-77.6c-.64-2,2.32-2.69,3-.84a147.62,147.62,0,0,1,10.35,65.56c-.83,11.3-3.38,22.47-3.45,33.83-.08,12.5,4,21.26,10.85,31.35C407,666.87,404.93,668.83,403.37,667.86Zm35,8.77a1.64,1.64,0,0,1-.82,3c-10.47.58-20.51-8-26.24-16.08-8-11.25-10.55-24.76-9.86-38.35.11-2.2,3.46-2.23,3.45,0-.09,11.8,2.15,24.12,9.12,33.92C420.48,668.23,429.14,671.47,438.38,676.63ZM429.52,662a1.53,1.53,0,0,1-1.47,2.53c-10.44-1.41-14.44-16.88-16.86-25.07-.56-1.91,2.25-2.6,2.93-.81a76.76,76.76,0,0,0,6.39,13.57C423,656.23,426.64,658.5,429.52,662ZM428,609c-9.47-9.08-7.5-25.85-6.12-37.56,2.1-17.9,5.1-35.72,8.81-53.35.26-1.24,2.38-1,2.22.3-2.08,16.11-4.21,32.22-6.14,48.35-.8,6.65-1.76,13.32-1.63,20,.15,7.68,2.62,13.78,5.4,20.75C431.17,609,429.05,610,428,609Zm8.95-2.55c-4.82-3-5.45-8.67-5.89-14a94.74,94.74,0,0,1,1.83-26.61c.24-1.21,2.32-.93,2.15.29-1.68,12.55-2.05,26.71,4.14,38.1C440,605.62,438.42,607.37,437,606.47Zm-4.2-101.7c-5.24-25.44-12.33-52.23-32.23-70.37-18.85-17.18-45-23.9-69.65-27.16-5.21-.69-5.26-8.95,0-8.26,26.21,3.47,53.07,10.34,73.6,27.91,22.25,19.05,30.55,48.05,36.25,75.69C441.83,507.77,433.86,510,432.79,504.77Zm11.53-27.9c-1-6.62-1.15-13.2-2.73-19.75a1.35,1.35,0,0,1,2.61-.72c1.7,6.54,3.13,13.71,2.11,20.47A1,1,0,0,1,444.32,476.87Zm8,129.23c.17,1.51-2.17,1.7-2.57.35-6.78-23.35-4.36-48.36-2.33-72.29,2.12-25,4.8-50.25,2.39-75.34-.09-.95,1.48-1.15,1.65-.23,4.46,24.16,2.66,48.23.64,72.55C450,556.34,449.49,580.93,452.31,606.1Zm6.45-247.25c-2.74,9.43-4.94,19.31-8.93,28.29-.5,1.12-2,.25-1.83-.77,1.67-9.59,5.34-18.94,8.27-28.2A1.29,1.29,0,0,1,458.76,358.85Zm1.78,17c-.8,5.24-1.19,10.81-2.85,15.86a1.11,1.11,0,0,1-2.18-.29c-.05-5.44,1.32-11,2.17-16.36C458,373.23,460.83,374,460.54,375.9Zm-1.71,224c-5-16.33-3.57-35-1.23-51.66.25-1.76,3.35-1.33,3.11.42-2.33,17.33-.4,33.67.15,51A1,1,0,0,1,458.83,599.87ZM462.25,396a1.09,1.09,0,0,1-2.09,0c-.74-3.22,0-7.09.19-10.38.09-1.82,2.94-1.82,2.84,0C463,388.88,463.34,392.86,462.25,396Zm4,208.86a.9.9,0,0,1-1.62-.21c-.75-3-.3-6.15-.36-9.24a89.09,89.09,0,0,0-1-11.76c-.35-2.29,3.15-3.29,3.51-1C467.88,589.38,469.46,598.53,466.25,604.84Zm3.15-279.36c-9,17.53-17.17,35.47-25.93,53.14a.84.84,0,0,1-1.53-.65c6.71-18.62,15.83-36.4,25.65-53.55C468.26,323.24,470,324.28,469.4,325.48Zm4.77,277.12a1.25,1.25,0,0,1-2.4,0c-.8-3.81-.66-7.75-1.41-11.59-.39-2,2.6-2.83,3.05-.84C474.31,594.13,475.21,598.59,474.17,602.6Zm128.07-237c6.9.9,16.53,1.43,22.22,5.77a1.3,1.3,0,0,1-.65,2.4c-3.56,0-7-1.51-10.4-2.46-3.83-1.08-7.66-2.08-11.55-2.92C600.31,368.1,600.65,365.44,602.24,365.64ZM565.71,376.1c17.58-4.26,38.17-6.09,55.33.92,1.81.74,1.83,4.06-.51,3.77-18.39-2.24-35.46-5.07-54-1.82C564.65,379.29,563.83,376.56,565.71,376.1Zm-42.18,34.38c10.24-12.25,23.8-20.14,39.22-24.18a122.25,122.25,0,0,1,26.11-3.58c9.16-.35,19.77-1,28.51,2,1.92.67,2.34,3.86,0,4.32-7.77,1.53-16,.17-23.86.13a134.58,134.58,0,0,0-26.66,2.16c-15.42,3-30.26,9.68-41,21.45C524.41,414.39,522.19,412.08,523.53,410.48ZM490.1,588.22c-.75,3.84-.61,7.78-1.41,11.59a1.25,1.25,0,0,1-2.39,0c-1-4-.15-8.47.75-12.43C487.51,585.38,490.49,586.24,490.1,588.22Zm7.07-7.38a89.1,89.1,0,0,0-1,11.76c-.05,3.1.4,6.21-.35,9.24a.9.9,0,0,1-1.62.21c-3.22-6.31-1.64-15.46-.57-22.18C494,577.55,497.51,578.55,497.17,580.84Zm4.47,16.24a1,1,0,0,1-2-.28c.55-17.29,2.47-33.64.15-51-.24-1.77,2.86-2.16,3.1-.42C505.21,562.09,506.62,580.75,501.64,597.08Zm9.08,6.57c-.4,1.37-2.73,1.16-2.57-.34,2.82-25.17,2.31-49.76.22-75-2-24.32-3.81-48.39.65-72.55a.84.84,0,0,1,1.64.22c-2.4,25.1.27,50.34,2.4,75.35C515.09,555.29,517.5,580.31,510.72,603.65ZM517,476.35c-1-6.75.42-13.93,2.11-20.46a1.36,1.36,0,0,1,2.62.72c-1.59,6.55-1.77,13.12-2.74,19.74A1,1,0,0,1,517,476.35Zm2.45,27.44c5.69-27.64,14-56.64,36.24-75.68,20.53-17.58,47.4-24.45,73.61-27.92,5.26-.7,5.19,7.57,0,8.26-24.67,3.26-50.81,10-69.66,27.17-19.89,18.13-27,44.92-32.23,70.36C526.3,511.19,518.34,509,519.41,503.79Zm30.49,53.49c2.36,18.11,8.09,43.47-3.2,59.69-3,4.33-10.18.2-7.14-4.17,6.24-8.95,5.25-20.27,4.62-30.66-.66-11.07-2.15-22.08-3.65-33.07-2.86-21-5.7-41.92-4-63.12.42-5.27,8.68-5.29,8.26,0C542.86,509.94,546.81,533.56,549.9,557.28Zm-20.53,32.39c-.45,5.35-1.07,11-5.9,14a1.64,1.64,0,0,1-2.23-2.22c6.2-11.39,5.82-25.55,4.14-38.1-.16-1.24,1.92-1.49,2.16-.29A95.11,95.11,0,0,1,529.37,589.67Zm.52,15.08c2.78-7,5.25-13.07,5.39-20.75.13-6.71-.83-13.38-1.62-20-1.94-16.13-4.06-32.24-6.15-48.35-.16-1.28,2-1.53,2.22-.3,3.71,17.62,6.71,35.45,8.82,53.35,1.38,11.72,3.35,28.48-6.12,37.55C531.42,607.19,529.3,606.23,529.89,604.75Zm1.05,54.48c2.88-3.51,6.53-5.81,9-9.78a77.14,77.14,0,0,0,6.4-13.57c.68-1.79,3.49-1.1,2.92.81-2.41,8.19-6.42,23.66-16.85,25.07A1.53,1.53,0,0,1,530.94,659.23Zm-8,17.64a1.64,1.64,0,0,1-.82-3c9.23-5.16,17.93-8.39,24.34-17.47,6.94-9.83,9.22-22.1,9.13-33.92,0-2.23,3.34-2.2,3.45,0,.68,13.58-1.84,27.1-9.86,38.35C543.42,668.83,533.38,677.45,522.91,676.87ZM563,530.15c-2,5.19-3.27,10.65-5.3,15.84-.47,1.19-2.42,1.13-2.38-.33.19-5.9,2.42-11.4,4.88-16.69C560.91,527.39,563.61,528.54,563,530.15Zm2.6.29c.79-1.6,3.07-.2,2.37,1.39-4,8.94-4.55,18.17-7.39,27.35a1.51,1.51,0,0,1-2.95-.4C556.72,549.14,561.43,538.9,565.58,530.44Zm9.73,2.14a174.46,174.46,0,0,0-6.73,77.61c2.24,16.83,6,44.1-11.49,54.88-1.56,1-3.65-1-2.58-2.58,6.83-10.11,10.94-18.82,10.85-31.36-.09-11.35-2.62-22.52-3.45-33.82a147.54,147.54,0,0,1,10.35-65.57C573,529.9,576,530.61,575.31,532.58Zm-18.19-59.3c.71,3.43,1.58,6.73,2.37,9.65A111.1,111.1,0,0,0,571,510.2c2.68,4.61-4.46,8.76-7.14,4.17a119.2,119.2,0,0,1-13.07-31.95c-2.37-9.82-4.71-21.5-2-31.44,5.46-19.78,33.73-25.37,51.17-26,6.33-.21,18.06-2.12,19.29,6.5,1.31,9.22-6.64,21-12.2,27.66A45.5,45.5,0,0,1,557.12,473.28Zm58.06,27.89c-4.32,12.2-10.07,28-20.26,36.51a1.77,1.77,0,0,1-2.76-2.13c2.63-5.75,7.1-10.81,10.36-16.26a152.7,152.7,0,0,0,9.67-18.94C613,498.57,615.86,499.25,615.18,501.17ZM640,461.32c-6,18.21-10.91,37-18.6,54.58-6.24,14.27-17.32,32-30.61,40.64-1.59,1-3.49-1-2.56-2.56,4-6.65,10.08-12,14.89-18.05a109,109,0,0,0,14-22.53c7.72-17.06,13.84-35.24,20.53-52.74C638.21,459.21,640.52,459.8,640,461.32Zm4.08-13.76c-2.13-1-3.75-3.19-5.26-4.93a62.84,62.84,0,0,1-4.42-5.73c-.75-1.1,1-2.43,1.85-1.42,1.58,1.82,3.18,3.64,4.85,5.39s3.54,3.08,4.61,5.06A1.2,1.2,0,0,1,644.1,447.56Zm.45-7.62c-2.38-1.93-4.21-4.51-6.52-6.55a50.18,50.18,0,0,0-8-5.77c-1.27-.73-.15-2.58,1.14-1.95,5.5,2.71,12.54,7.11,15.2,12.9A1.14,1.14,0,0,1,644.55,439.94Zm.46-10.85c-4.58-1.68-8.41-4.9-12.79-7a58,58,0,0,0-18.68-5.85c-1-.11-1.06-1.64,0-1.61,11,.36,26.38,2.49,32.94,12.59A1.32,1.32,0,0,1,645,429.09Z"/><path class="cls-1" d="M691.47,184.22a9.48,9.48,0,1,0-9.48-9.48A9.49,9.49,0,0,0,691.47,184.22Z"/><path class="cls-1" d="M293.53,141.36a9.47,9.47,0,1,0-9.47-9.47A9.48,9.48,0,0,0,293.53,141.36Z"/><path class="cls-1" d="M271.94,291.4c-10,2.3-17.55,9.57-21.22,19-7.67,19.8,4.26,39.26,21.24,49.23q4.85-11.61,10.5-22.88h0c-2.95.2-5.19-3.48-6.72-5.59a38,38,0,0,1-4.7-8.79c-.84-2.17,2.68-3.58,3.72-1.57a43.19,43.19,0,0,0,5,7.78c1.33,1.61,3.53,3.17,4.22,5.2.53-1,1-2.08,1.58-3.11l.21-.39a6.45,6.45,0,0,1-3.34-2.07c-1.25-1.2-2.48-2.43-3.72-3.64-2.11-2.06,1.14-5.32,3.24-3.24,1.23,1.22,2.48,2.43,3.7,3.66a9.27,9.27,0,0,1,1.74,2.19c1.6-3.06,3.22-6.16,4.87-9.27l-.46-.41-3.73-3.36c-2.07-1.87,1-4.89,3.06-3.05l3.25,2.86,2-3.61c-.66-.42-1.3-.91-2-1.29a30,30,0,0,0-4-2c-2.66-1.06-1.48-5.4,1.19-4.33a37.1,37.1,0,0,1,4.85,2.3c.69.39,1.48.82,2.2,1.32.48-.84,1-1.68,1.47-2.51-3.23-1.71-6.05-3.79-9.84-4.68a23.81,23.81,0,0,0-13.84,1.07c-2.06.75-3.49-2.67-1.49-3.54,8.14-3.53,21-4.24,28.17,2.24l1.05-1.62C296.19,290.23,281.81,289.12,271.94,291.4Zm0,61.7c-17.65-7.6-16.66-34.38-11.27-49.09a1.39,1.39,0,0,1,2.67.74c-1.82,8.74-2.77,18.19-.28,26.9,2.21,7.72,7.11,12.49,11.48,18.85C275.76,352.26,273.49,353.77,272,353.1ZM272.7,333c1.82,3,4.78,5.52,6.19,8.71.58,1.3-.41,3.48-2.13,2.77-7.33-3-11-13.86-12.16-21-.42-2.51,3.29-3.64,3.89-1.07A35.3,35.3,0,0,0,272.7,333Zm13.69-11.18a0,0,0,0,1,0,.08A0,0,0,0,1,286.39,321.84Z"/><path class="cls-1" d="M709.44,311.64c-3.86-9.95-12-17.34-22.56-19.35-9.54-1.81-23.25-.52-30.85,6.29q.88,1.37,1.74,2.73a3.09,3.09,0,0,1,.25-.42c6.37-9,21.3-8.58,30.35-4.65,2,.87.55,4.28-1.49,3.54A23.73,23.73,0,0,0,673,298.71c-4.48,1-7.6,3.77-11.64,5.56a2.78,2.78,0,0,1-1.73.13c2.31,3.86,4.51,7.8,6.64,11.75a9.49,9.49,0,0,1,2.07-2.23q1.89-1.65,3.76-3.32c2.08-1.83,5.14,1.19,3.06,3.06q-1.86,1.68-3.73,3.35c-1,.91-2.12,2.08-3.52,2.23,2.26,4.26,4.46,8.51,6.65,12.67q7.47,14.18,13.6,29C705.19,350.9,717.12,331.45,709.44,311.64Zm-36.53-5a30.1,30.1,0,0,0-4,2c-1.25.72-2.45,1.86-3.89,2.13a2,2,0,0,1-2.19-2.85c.78-1.52,2.64-2.45,4.07-3.28a39.17,39.17,0,0,1,4.86-2.29C674.39,301.21,675.56,305.55,672.91,306.61Zm4,14.72a0,0,0,0,1,0,.08A0,0,0,1,1,676.89,321.33Zm-.38,8.45a1.36,1.36,0,0,1-1-1c-.32-1.79.91-3.11,2.09-4.3s2.46-2.44,3.69-3.66c2.1-2.08,5.35,1.17,3.24,3.24-1.23,1.21-2.46,2.44-3.71,3.64S678.29,330.13,676.51,329.78Zm2.55,4.73c0-2.67,2.86-4.49,4.46-6.41a43.55,43.55,0,0,0,5-7.78c1.05-2,4.55-.58,3.72,1.56a37.92,37.92,0,0,1-4.7,8.79c-1.55,2.13-3.76,5.8-6.73,5.6A1.8,1.8,0,0,1,679.06,334.51Zm7.45,9.48c-1.7.7-2.7-1.48-2.13-2.77,1.42-3.2,4.37-5.7,6.2-8.71a35.67,35.67,0,0,0,4.21-10.61c.59-2.58,4.31-1.44,3.89,1.07C697.48,330.13,693.85,341,686.51,344Zm4.82,8.6c-1.55.67-3.82-.85-2.61-2.6,4.38-6.36,9.28-11.13,11.48-18.85,2.5-8.71,1.54-18.16-.28-26.9a1.39,1.39,0,0,1,2.68-.74C708,318.2,709,345,691.33,352.59Z"/><path class="cls-1" d="M494.11,692.81a2.13,2.13,0,0,1-.53.3c-1.76.63-3.56,0-5.36-.29s-3.78-.49-5.68-.66a2,2,0,0,1-1.08.45c-2.14.17-4.28.43-6.41.72-1.79.25-3.6.92-5.35.3a1.75,1.75,0,0,1-.76-2.89c1.55-1.41,3.51-1.45,5.53-1.68a41.89,41.89,0,0,1,6.13-.22,1.87,1.87,0,0,1,1.22-.49c1.46-.06,2.91-.07,4.36,0a35.57,35.57,0,0,1-6.62-6.22l0,0c-12.16,13.55-31.79,15-48.89,12.62a87.27,87.27,0,0,1-12.07-2.51c2.95,14.53,12.85,26.39,26.58,32.6,8.28,3.75,16.77,4.68,25.74,4.5,5.85-.11,11.5,1.18,17.38,1.15a4.29,4.29,0,0,1,1.09-.05h.08l.93,0a4.13,4.13,0,0,1,1.58.2c23.3,1,44.84-14.21,49.62-37.17a87.88,87.88,0,0,1-12.07,2.51C517.83,697.54,505,697.37,494.11,692.81Zm8.8,13.9a52.19,52.19,0,0,0,8.95-4.91c2.23-1.56,4.63-4.86,7.56-4.69a1.59,1.59,0,0,1,1.55,1.55,3.51,3.51,0,0,1-.1.92,4.18,4.18,0,0,1,1.36-.19,1.59,1.59,0,0,1,1.55,1.55c.1,3.24-3.88,5.39-6.31,6.91a36.28,36.28,0,0,1-10.37,4.41,1.92,1.92,0,0,1-2.17-2.47l-.64.19C502.39,710.46,501,707.54,502.91,706.71Zm-39.57-9.32A65.78,65.78,0,0,1,478,694.74a1.78,1.78,0,0,1,1.74-.88c6.89.36,13.65.91,20.25,3,1.64.53,1.42,3.21-.42,3.11-5.18-.29-10.3-1-15.44-1.55a2.6,2.6,0,0,1-.5.1c-6.63.51-13.18,1.59-19.82,2C461.9,700.6,461.71,697.91,463.34,697.39Zm-22.29,2.52c2.92-.17,5.33,3.13,7.55,4.68a53,53,0,0,0,8.95,4.91c1.93.84.51,3.75-1.38,3.27a35.94,35.94,0,0,1-10.36-4.41c-2.42-1.5-6.41-3.68-6.31-6.91A1.58,1.58,0,0,1,441.05,699.91Zm94.27,2.85c-2.62,9.08-13.14,14.47-21.49,17.22s-17.82,3.56-27.05,3.4c-12.37,1-25.66,1-37.34-2.89-8.34-2.75-18.86-8.14-21.48-17.22-.62-2.12,1.9-3.11,3.37-2,4,3.11,6.93,6.86,11.34,9.54a47.78,47.78,0,0,0,14.2,5.41A129.12,129.12,0,0,0,477.14,719c9.81-.47,19.67-1,29.27-3.26a47.08,47.08,0,0,0,15.24-6c3.88-2.51,6.69-6.11,10.3-8.92C533.42,699.65,535.93,700.64,535.32,702.76Z"/><path class="cls-1" d="M694.2,270.87c-13.79-.49-38,4.48-44.83,18.26.66.86,1.3,1.73,1.94,2.6,9.16-7.62,23.75-9.42,35-7.84a38,38,0,0,1,29.15,21c12.13,24.59-1.69,51.23-24.15,63.71q2.67,6.87,5.07,13.86c17.74-1.42,31.68-14.7,38.08-30.78,5.78-14.49,9.46-36.91,2-51.35C728.31,284.47,712.37,271.52,694.2,270.87ZM736.77,338c-2.47,10.5-9.13,25-20,28.85a1.64,1.64,0,0,1-1.84-2.39c3-4.45,7.29-7.73,10.29-12.29a48.39,48.39,0,0,0,6.64-15.53c3.11-13.22.8-26.86-3.82-39.43-.63-1.71,2.14-2.84,2.92-1.23C737.26,309,740.15,323.56,736.77,338Z"/><path class="cls-1" d="M522.27,653.81a44.93,44.93,0,0,0,.18-19.45c-1.42-6.3-7.53-8-13-9.48-10.07-2.77-20.47-3-30.86-3.08a4.55,4.55,0,0,1-1.26-.2c-8.13-.29-16.34-.32-24.29,1.51-4.63,1.07-11.64,2.45-14.26,6.84-2.71,4.55-1.93,13.14-1.44,18.23.74,7.78,3.8,11.37,11.35,13.51,5.69,1.62,11.5,1,17.29,1.8,6.23.84,11.94,3.93,14.37,9.52C487.94,657.65,517.45,671.8,522.27,653.81Zm-25.62-18c6.15-1,13.72.39,18.33,4.85,4.45,4.3,4.32,10,2.61,15.46-1.58,5.07-9.55,2.9-8-2.19a11.08,11.08,0,0,0,.63-4.72c-4.19,5.43-12.17,7.43-19,5.95a11.15,11.15,0,0,0,1.77,3.57c3.18,4.27-4,8.38-7.14,4.17A17,17,0,0,1,496.65,635.79Zm-22.4,25.88c-3.14,4.22-10.31.09-7.13-4.17a11.35,11.35,0,0,0,1.77-3.57c-6.82,1.48-14.82-.53-19-6a10.85,10.85,0,0,0,.66,4.76c1.59,5.09-6.39,7.25-8,2.19-1.73-5.56-1.82-11.12,2.6-15.46s12.23-5.85,18.34-4.85A17,17,0,0,1,474.25,661.67Z"/><path class="cls-1" d="M791.17,703.35a9.48,9.48,0,1,0,9.47,9.47A9.48,9.48,0,0,0,791.17,703.35Z"/><path class="cls-1" d="M347.7,876.92a9.47,9.47,0,1,0,9.48,9.47A9.48,9.48,0,0,0,347.7,876.92Z"/><path class="cls-1" d="M244.69,303.68a38,38,0,0,1,29.7-21.07c11.15-1.4,25.43.39,34.47,7.91.64-.87,1.28-1.74,1.94-2.59-6.92-14-32.1-19.19-46.12-18.22-17.62,1.21-33,14-41,29.41-7.73,15-3.66,38.56,2.91,53.36,6.73,15.19,20.18,27.41,37.19,28.77q2.4-7,5.07-13.86C246.37,354.91,232.56,328.26,244.69,303.68Zm1.86,63.65c-10.9-3.82-17.58-18.38-20-28.85-3.38-14.41-.5-28.92,5.85-42,.79-1.62,3.54-.45,2.92,1.23-4.61,12.57-6.92,26.22-3.81,39.43a48.43,48.43,0,0,0,7.32,16.59c2.86,4.09,6.83,7.13,9.6,11.23A1.64,1.64,0,0,1,246.55,367.33Z"/><path class="cls-2" d="M591.17,433.83a16,16,0,0,1,4.74,13.77c-1.32,10.11-9.82,16-19.81,14.35-7.79-1.33-15.23-7.33-14.92-15.75a17.91,17.91,0,0,0-4,6.19,28.58,28.58,0,0,0-1.36,11.91,4.06,4.06,0,0,1,1.42.28c10.8,4.28,23,4.27,33.21-1.76A41.75,41.75,0,0,0,603.75,450c2.59-3.87,7.47-11.22,7.3-16.59C605.06,432.13,597.77,432.69,591.17,433.83Z"/><path class="cls-2" d="M398.91,444.78a13,13,0,0,1-.78,5.41c-2.88,7.9-12.36,11.82-20.29,10.65-14.28-2.09-16.76-20.5-9.07-28.26-6.54-1.13-13.71-1.66-19.67-.42-.19,5.38,4.68,12.66,7.31,16.59a41.06,41.06,0,0,0,13.3,12.86c10.34,5.91,22.3,6.08,33.21,1.76a4.07,4.07,0,0,1,1.34-.28A30.8,30.8,0,0,0,403,451.18,17,17,0,0,0,398.91,444.78Z"/><path class="cls-3" d="M776.53,325.43c-2.94-8.18-1.66-20.05,6.07-23.74-20.79-27.12-51-44.52-81.17-59.71-14.8-7.45-32.41-13.4-45.62-23.47-7.35-5.6-11.88-16.88-7-24.46A484.17,484.17,0,0,0,549.27,168c-2.34-.35-3.27-3.09-2.89-5.08q1.62-8.4,3.22-16.81a172.78,172.78,0,0,0-66,32.19,4.5,4.5,0,0,1-6.21-.66,4.14,4.14,0,0,1-.88-.55,172.92,172.92,0,0,0-66-32.19l3.21,16.81c.38,2-.56,4.73-2.88,5.08a483.8,483.8,0,0,0-99.54,26.07c5,7.72.1,19.21-7.43,24.79-13.24,9.83-30.49,15.74-45.19,23.15C228.6,256,198.39,273.34,177.6,300.43c8.18,3.81,8.79,16.73,5.52,25.07-6.37,16.27-13.25,32.09-18.38,48.84a406.92,406.92,0,0,0-17.26,100.79l11.12-6.91c2.93-1.83,5.84.65,6.21,3.56q9,71.46,22.85,142.17a48,48,0,0,0,7.42-8.87,4.17,4.17,0,0,1,7.13,0c5.32,9.37,11.92,18,15.57,28.22,3.23,9.06,4.48,18.68,6.74,28,4.82,19.87,10.4,39.58,15.92,59.28,2.26-5.41,4.71-10.74,7.4-16,1.35-2.62,5.84-2.78,7.14,0q28.62,61.32,61.83,120.31a131.55,131.55,0,0,0,8.38-17.81c.92-2.43,3.6-4,6.07-2.47q43.28,26,85.27,54.07c12.49,8.36,25.88,16.35,36.75,26.84,10,9.63,15.31,23.82,26.82,31.8a5.82,5.82,0,0,1,.74.63c11-8.07,16.29-21.81,26.05-31.22,10.87-10.48,24.26-18.48,36.75-26.84q42-28.08,85.27-54.07c2.47-1.48,5.15,0,6.07,2.47a130.35,130.35,0,0,0,8.38,17.81q33.17-59,61.83-120.31c1.3-2.78,5.79-2.62,7.13,0,2.7,5.23,5.15,10.56,7.4,16,5.53-19.7,11.14-39.42,15.93-59.28,2.34-9.73,3.63-19.78,7.18-29.18,3.67-9.75,10-18.05,15.12-27a4.18,4.18,0,0,1,7.14,0,48,48,0,0,0,7.42,8.87Q786.26,544.48,795.35,473c.37-2.92,3.28-5.4,6.22-3.57l11.12,6.91a406.47,406.47,0,0,0-17.27-100.79C790.16,358.36,782.58,342.29,776.53,325.43ZM786,375.76c.12,1.41-2.15,2.06-2.74.74-4.47-10.1-8.91-20.08-13.71-30-4.19-8.71-7.33-17.56-7.9-27.27-.09-1.51,2.46-1.87,2.66-.36C767.07,339.36,784.25,355.32,786,375.76Zm-40-100.3c4.56,5.91,9.11,11.81,13.54,17.82,3.91,5.31,8.58,10.58,11.06,16.74.69,1.73-1.71,2.67-2.86,1.67-5-4.35-8.45-10.65-12.18-16.09-4.2-6.12-8.25-12.32-12.32-18.53C742.1,275.3,744.8,273.88,746,275.46Zm-47,115c1.41,4.47,2.78,8.95,4,13.46,1.42,5.14-6.55,7.32-8,2.2a349.67,349.67,0,0,0-27.63-70c-10.61-20.13-21.21-42.6-39.4-57a4.78,4.78,0,0,1-.51-.49,1.53,1.53,0,0,1-2.42,1.8c-18-18.06-42.4-27.39-67.45-29.9a184.24,184.24,0,0,0-39.42.67,122.26,122.26,0,0,0-19.37,3.55c-5.52,1.56-10.62,4.47-16.18,5.71a2.14,2.14,0,0,1-2.51-1.23,2.2,2.2,0,0,1-1.31.09c-6-1.34-11.48-4.48-17.46-6.07A127.32,127.32,0,0,0,443.35,250a184.15,184.15,0,0,0-39.41-.67c-25.05,2.51-49.5,11.84-67.46,29.9-1.42,1.42-3.51-.71-2.19-2.19,17.5-19.66,41.78-30.56,67.65-33.88a174.57,174.57,0,0,1,45.44.58c10.78,1.44,26.07,3.12,33.65,11.86a2,2,0,0,1,.26.41c7.88-8.18,22.83-9.8,33.4-11.19a174.19,174.19,0,0,1,45-.52c25.75,3.31,49.91,14.12,67.38,33.59-1.86-3.3,3.18-7.58,6.85-4.67a84.5,84.5,0,0,1,9.77,9.14c9.66-15,35.83-20.68,51.81-19.71,20.68,1.24,38.63,15.4,48.13,33.5,9.42,17.94,5,44.84-3.21,62.47C732.54,375.42,717.44,388,699,390.45Zm63.48,48.4c8.62,12.3,19,25.91,20,41.41.15,2.15-2.74,2.11-3.42.46-3.72-9-7.16-17.89-12.18-26.29-4.39-7.35-9.47-14.25-14.22-21.37-9-13.41-16.31-27.48-17.6-43.78-.16-2.12,3-2,3.26,0C740.59,408.16,751.91,423.72,762.52,438.85ZM706.59,414.3q8.91,20.82,15.94,42.34C726.92,470.18,733.85,486,734,500.3a1.39,1.39,0,0,1-2.58.7c-6.54-12.42-8.6-28.23-12.87-41.65-4.68-14.7-9.74-29.27-15-43.76C702.87,413.8,705.84,412.56,706.59,414.3ZM694.22,584.13a394.2,394.2,0,0,1-.08,57.3c-1.29,17.39-2.81,36.12-8.53,52.67-.52,1.49-3,1.34-2.89-.39C684,675.22,687.78,657,689,638.42a426.36,426.36,0,0,0,.06-52.78,418.64,418.64,0,0,0-21.43-108.57c-.79-2.34,2.85-3.29,3.67-1A403.08,403.08,0,0,1,694.22,584.13Zm-2.66-104.42c6,21.84,12.12,45.16,12.53,67.9a1.48,1.48,0,0,1-2.89.39c-5.53-22.11-8.12-45.05-13.1-67.33C687.6,478.42,691,477.48,691.56,479.71Zm-32.78,23c-.22-1.48,1.91-2.16,2.3-.63,11.33,44.63,17.44,91.19,16.57,137.29a375.65,375.65,0,0,1-6.44,63.47c-3.87,20.22-8.66,42.49-19.25,60.35a1.9,1.9,0,0,1-3.45-1.46c5.37-20.34,13.12-39.64,17.08-60.44a371.79,371.79,0,0,0,6.25-63.42C672.6,592.35,665.42,547.56,658.78,502.7Zm18.08-31.47q-7.8-23-17.13-45.32c-.9,30-6.81,60-18.36,87.72-13.74,33-40.47,57.1-56.64,88.71a4.1,4.1,0,0,1-1.05,1.33c.05.58.11,1.15.16,1.73,2,20.68,2.7,42.35-7.19,61.32-5.93,11.38-15.3,18.93-26.28,23.63a56.09,56.09,0,0,1-60.81,48.34c-5,.23-9.49-.42-14.42-1-4.14-.48-8.35.2-12.52-.12a61.74,61.74,0,0,1-26.32-8.07,53.59,53.59,0,0,1-26.51-40.38c-11-4.71-20.29-12.25-26.28-23.62-9.95-18.88-9.23-40.71-7.19-61.32.06-.58.11-1.15.17-1.73a4.13,4.13,0,0,1-1.06-1.33c-16.16-31.62-42.89-55.7-56.63-88.71-11.55-27.74-17.46-57.7-18.37-87.72Q291.1,447.07,283.3,470c-1.7,5-9.68,2.85-8-2.2a711.5,711.5,0,0,1,30.37-75.18c10.55-22.3,21.74-45.5,39.67-62.91,16.78-16.3,36.41-22.62,59.28-24.62,26.85-2.36,53.85-.91,80.75-.7,22.46-.08,44.95-.22,67.36,1.66,23.41,2,43.57,7.47,61.05,23.95,18.51,17.46,29.91,41.15,40.64,63.83A713.65,713.65,0,0,1,684.83,469C686.55,474.09,678.57,476.23,676.86,471.23ZM628.8,568.89c-.33-2.18,2.94-3.16,3.36-.93a220.45,220.45,0,0,1,3.46,54.09c-1,16.55-3,35.62-10.9,50.43-.62,1.17-2.78.7-2.61-.71,2-16.71,7-32.83,8.56-49.72A223.12,223.12,0,0,0,628.8,568.89Zm6.5-23.33c-.64-2.13,2.5-2.89,3.27-.9C645.33,562.25,654,583.81,650.3,603c-.39,2-3.1,1.25-3.3-.45-1.2-10.1-1.57-20-4-30C640.86,563.44,638,554.52,635.3,545.56ZM526.51,791.05c4.21-16.59,13.65-32.79,20.16-48.61,6.7-16.29,13.53-32.53,19.66-49,.73-2,3.87-1.15,3.17.87-5.88,17.11-11.71,34.23-18.5,51-6.25,15.44-11.78,33.44-21.34,47.1A1.73,1.73,0,0,1,526.51,791.05Zm-22.83,33.51a1.61,1.61,0,0,1-3.11-.86c5.32-27,18.15-52.86,31.09-77,1-1.93,3.92-.22,2.93,1.71C522,773.05,513.86,799,503.68,824.56Zm54.21-66.33c3.65-13.23,11-25.71,16-38.48Q581.23,701,587,681.67A477.35,477.35,0,0,0,604.32,599c.25-2.16,3.67-2.18,3.42,0-3.18,27.85-8.12,55.51-15.86,82.46q-5.77,20.07-13.23,39.61c-4.86,12.71-9.62,27.43-17.75,38.43C559.84,760.93,557.36,760.14,557.89,758.23ZM589.33,719c7.52-21.77,16.21-42.32,20.54-65.12a266.56,266.56,0,0,0,3.57-70.5c-.19-2.51,3.62-2.44,3.87,0a253.85,253.85,0,0,1-2.66,70.32c-4,22.41-10.36,47-22.64,66.43C591.15,721.52,588.77,720.65,589.33,719Zm-84.65,25.68c-2.06,8.25-6.52,16-9.48,24s-5.79,16.28-8,24.63c-.55,2.08-3.7,1.2-3.21-.88,3.77-15.84,7.7-35.74,17.65-49A1.67,1.67,0,0,1,504.68,744.71Zm-28.61,49.16c-2.21-8.36-5-16.54-8-24.64s-7.41-15.76-9.48-24a1.67,1.67,0,0,1,3-1.28c9.95,13.31,13.88,33.19,17.64,49C479.77,795.06,476.61,795.94,476.07,793.87ZM353.4,654.43c4.34,22.8,13,43.34,20.55,65.11.56,1.64-1.83,2.48-2.69,1.13-12.28-19.44-18.63-44-22.64-66.43A253.07,253.07,0,0,1,346,583.92c.25-2.44,4.07-2.5,3.88,0A267.08,267.08,0,0,0,353.4,654.43Zm18,27.54c-7.75-27-12.69-54.61-15.87-82.46-.25-2.18,3.18-2.16,3.42,0a477.9,477.9,0,0,0,17.3,82.67q5.78,19.3,13.16,38.08c5,12.77,12.33,25.27,16,38.48.53,1.93-2,2.69-3,1.27-8.15-11-12.88-25.69-17.75-38.43Q377.18,702.08,371.4,682Zm22.37,12.81c-.69-2,2.45-2.83,3.18-.87,6.12,16.51,12.95,32.76,19.66,49,6.5,15.81,15.95,32,20.16,48.62a1.74,1.74,0,0,1-3.16,1.33c-9.57-13.68-15.08-31.66-21.33-47.11C405.48,729,399.65,711.9,393.77,694.78ZM428.69,749c-1-1.94,1.89-3.64,2.92-1.71,12.95,24.08,25.78,50,31.1,76.94a1.62,1.62,0,0,1-3.12.86C449.42,799.54,441.25,773.57,428.69,749ZM331.12,568.47c.42-2.23,3.68-1.24,3.36.93a223.18,223.18,0,0,0-1.87,53.17c1.52,16.88,6.6,33,8.56,49.71.16,1.41-2,1.88-2.62.71-7.88-14.81-9.92-33.88-10.89-50.42A220.5,220.5,0,0,1,331.12,568.47Zm-10.88,4.58c-2.39,10-2.76,19.9-4,30-.21,1.71-2.92,2.46-3.3.44-3.67-19.19,5-40.74,11.73-58.33.77-2,3.9-1.23,3.27.9C325.3,555,322.42,564,320.24,573.05Zm-28.8,65.32a371.89,371.89,0,0,0,6.24,63.43c4,20.8,11.71,40.1,17.09,60.43a1.9,1.9,0,0,1-3.45,1.46c-10.6-17.86-15.38-40.12-19.25-60.34a374.75,374.75,0,0,1-6.45-63.48c-.83-46.11,5.24-92.64,16.58-137.29.39-1.53,2.52-.84,2.3.63C297.85,548.07,290.67,592.87,291.44,638.37Zm-17,2.07c1.2,18,4.91,35.8,6.13,53.78.12,1.75-2.37,1.87-2.88.39-5.87-17-7.38-36.33-8.65-54.17a393.49,393.49,0,0,1,0-55.79A403.53,403.53,0,0,1,292,476.57c.82-2.28,4.46-1.32,3.67,1a418.55,418.55,0,0,0-21.42,108.56A425.74,425.74,0,0,0,274.42,640.44Zm-12.35-91.93a1.47,1.47,0,0,1-2.88-.39c.41-22.74,6.56-46.05,12.53-67.89.61-2.24,3.95-1.29,3.45.95C270.19,503.46,267.6,526.41,262.07,548.51Zm394.21-187c-21.11-24.48-38.72-55.19-72.34-63.35a246.91,246.91,0,0,0-51-6.41,183.86,183.86,0,0,0-25.49,1c-7.83.87-15.6,3.58-23.47,3.6a1.79,1.79,0,0,1-1.4-.64,1.84,1.84,0,0,1-1.73,1.16c-8.33,0-16.65-2.89-25-3.75a184.12,184.12,0,0,0-25.51-.77A248.69,248.69,0,0,0,381,298.7c-33.62,8.17-51.23,38.87-72.34,63.35-.93,1.08-2.82-.39-2-1.53,19.45-26.14,37.77-57.75,71.47-66.78,17.27-4.63,36-6.8,53.79-7.47,15.06-.56,36.64-1.27,49.95,6.91a2,2,0,0,1,.4.35,2,2,0,0,1,.75-.87c7.1-4.36,16.29-5.13,24.46-6.05a171.47,171.47,0,0,1,27-.79c17.34.75,35.48,2.9,52.28,7.41,33.7,9,52,40.63,71.47,66.78C659.11,361.16,657.2,362.6,656.28,361.54Zm-227.19-92c14.66-1.58,39.08-3.81,52.25,5.93,5.8-4.38,14.14-5.71,21.1-6.58a137.53,137.53,0,0,1,31.74.13,169.5,169.5,0,0,1,57.24,17.11c1.94,1,.23,3.64-1.66,2.84A187,187,0,0,0,534.18,275a157.87,157.87,0,0,0-26.09-.44c-8.72.66-15.92,3.86-24.06,5.7a2.47,2.47,0,0,1-2.45,1c-9.59-1.76-17.78-5.65-27.81-6.28a160.16,160.16,0,0,0-24.68.52,186.6,186.6,0,0,0-55.57,13.94c-1.9.8-3.6-1.88-1.66-2.84A168.7,168.7,0,0,1,429.09,269.52Zm-13.85-8.83a162.16,162.16,0,0,1,37.23-3.54c9,.26,21.58,0,28.21,7.09,1.22,1.32,0,3.83-1.85,3.19-19.85-6.78-42.53-6.05-63.15-3.5C413.82,264.16,413.45,261.06,415.24,260.69Zm67.36,3c6.64-7.14,19.17-6.8,28.21-7.09A159.48,159.48,0,0,1,548,260.18c1.8.37,1.39,3.46-.44,3.23-20.63-2.54-43.3-3.28-63.15,3.5C482.56,267.56,481.38,265,482.6,263.73Zm93.28.73a183.12,183.12,0,0,1,79,73.77,1.16,1.16,0,0,1-2,1.18,255.09,255.09,0,0,0-78.42-72.58A1.37,1.37,0,0,1,575.88,264.46Zm-187.1,2.88a255.09,255.09,0,0,0-78.42,72.58c-.85,1.2-2.76.15-2-1.17a183.22,183.22,0,0,1,79-73.78C389,264.21,390.32,266.44,388.78,267.34Zm-56.64-6c-3.52,3.18-6.32,7.15-10.17,9.93a1.63,1.63,0,0,1-2.37-1.82C323,260.1,335,251.9,344.13,248.92c1.68-.55,2.36,1.76,1.12,2.65C340.81,254.75,336.19,257.67,332.14,261.35Zm25.12-19.79a147.06,147.06,0,0,1,44.19-13.33c15.05-2,34-3.15,48.35,2.77,2.39,1,2.32,4.87-.65,4.82-14.62-.28-28.6-3.35-43.37-2.25a148,148,0,0,0-46.57,11.33C357,245.85,355,242.65,357.26,241.56Zm156.22-11.07c14.33-5.92,33.32-4.74,48.35-2.77A147.15,147.15,0,0,1,606,241.05c2.29,1.09.28,4.29-1.95,3.34a148.09,148.09,0,0,0-46.58-11.34c-14.79-1.1-28.73,2-43.36,2.25C511.13,235.36,511.11,231.47,513.48,230.49Zm105.67,17.92c9.09,3,21.15,11.18,24.53,20.54a1.63,1.63,0,0,1-2.37,1.82c-3.85-2.78-6.66-6.75-10.17-9.94-4-3.67-8.68-6.59-13.11-9.77C616.77,250.16,617.48,247.86,619.15,248.41Zm40.48,2.24q2.89,2.17,5.92,4.16c1.79,1.16,4.07,2.16,5.16,4.08a1.62,1.62,0,0,1-1.4,2.42c-2.35-.05-4.36-1.75-6.21-3.06-2-1.43-4-2.93-5.87-4.48C655.48,252.34,657.85,249.3,659.63,250.65Zm1-8.89c4.18,2,8.32,4.17,12.33,6.54,3.25,1.93,7.21,3.75,9.42,6.88.83,1.18-.54,2.59-1.77,2.3-3.76-.89-7.13-4-10.38-6-3.72-2.34-7.44-4.66-11.24-6.87C657.13,243.51,658.75,240.85,660.61,241.76Zm-3.34,17.92c1.2,1.07,2.57,2.05,3.26,3.54.52,1.11-.35,2.77-1.74,2.27a11.9,11.9,0,0,1-4-2.93L650.94,259c-1.74-1.62.85-4.16,2.61-2.6Zm-5.42-37.45c13.26,9.5,28.44,15.1,43.45,21.19,12.86,5.22,27.06,10.27,36.93,20.38a1.79,1.79,0,0,1-2.16,2.79c-14.49-7.47-28.59-14.57-43.67-20.87-13.12-5.48-25.76-11.5-37-20.35C647.64,224,650,220.92,651.85,222.23Zm4.55,23.28c1.58,1.19.14,3.87-1.6,2.73C630.09,232.05,601.51,221.88,572,220a163.08,163.08,0,0,0-64.88,8.8c-7.2,2.52-14.13,6.71-21.6,8.15a2.28,2.28,0,0,1-.78,0,2.42,2.42,0,0,1-1.93.51c-7.47-1.45-14.4-5.64-21.6-8.16a167.85,167.85,0,0,0-19.55-5.51,163.86,163.86,0,0,0-45.32-3.29c-29.57,1.93-58.14,12.1-82.86,28.29-1.74,1.14-3.18-1.54-1.59-2.73a161.28,161.28,0,0,1,84.45-32,164.59,164.59,0,0,1,47.06,3.36c12.71,2.73,30.13,6.56,40.47,15.32,10.57-9.42,29.08-13.37,42.48-16.13A164.24,164.24,0,0,1,572,213.55,161.31,161.31,0,0,1,656.4,245.51ZM292.57,259.4c1.08-1.91,3.37-2.92,5.15-4.08,2-1.31,4-2.71,5.92-4.16s4.14,1.71,2.41,3.12c-1.91,1.55-3.86,3.06-5.87,4.48s-3.86,3-6.22,3.07A1.63,1.63,0,0,1,292.57,259.4Zm-9.89-1.4c-1.23.29-2.6-1.12-1.76-2.3,2.21-3.15,6.15-4.95,9.42-6.88,4-2.38,8.14-4.5,12.32-6.55,1.87-.91,3.48,1.75,1.65,2.82-3.8,2.2-7.53,4.52-11.24,6.86C289.82,254,286.44,257.1,282.68,258Zm20.06,5.73A12,12,0,0,1,306,260.2l3.72-3.31c1.76-1.56,4.34,1,2.6,2.61l-3.84,3.57a11.89,11.89,0,0,1-4,2.94C303.1,266.5,302.22,264.84,302.74,263.73Zm53.91-76.61c25.14-.14,49-10.06,74.14-10.35a135.7,135.7,0,0,1,35.78,4.11c7,1.83,15.88,4.7,19.88,11.19,4-7.19,13.92-10.17,21.42-12a139.37,139.37,0,0,1,34.53-3.81c25.19.29,49,10.22,74.14,10.36a1.74,1.74,0,0,1,0,3.48c-22,.68-43-6.5-64.8-7.73a146.17,146.17,0,0,0-34.88,2.11,77.89,77.89,0,0,0-15.55,4.14c-4.69,1.92-8.08,5.08-12.29,7.75a2,2,0,0,1-2.12.12,2,2,0,0,1-2.73.39c-4.89-3.1-8.7-6.58-14.3-8.55A88.48,88.48,0,0,0,456.32,185a147.62,147.62,0,0,0-34.87-2.1c-21.81,1.23-42.82,8.4-64.8,7.73A1.75,1.75,0,0,1,356.65,187.12Zm-25,26.51a217.33,217.33,0,0,1,85.07-20.08c22.92-.72,52,1.48,69.62,18.27,17.56-17.27,47-19.51,70.17-18.78a217.16,217.16,0,0,1,85.07,20.08c1.47.68.4,3.18-1.11,2.62-26-9.65-53.17-15.6-80.92-16.28-12.92-.32-26.1.24-38.75,3.12-12,2.72-21.91,8.12-32.1,14.78a2.89,2.89,0,0,1-1.2.44,2.49,2.49,0,0,1-3,.07c-10.6-6.92-20.89-12.38-33.4-15.06-12.26-2.62-24.95-3.15-37.45-2.84-27.75.69-55,6.63-80.92,16.28C331.21,216.82,330.17,214.31,331.63,213.63ZM231.05,264.31c9.86-10.09,24.08-15.17,36.92-20.37,15-6.09,30.19-11.7,43.46-21.2,1.85-1.32,4.19,1.75,2.42,3.14-11.22,8.85-23.85,14.87-37,20.35-15.08,6.3-29.19,13.4-43.68,20.87A1.78,1.78,0,0,1,231.05,264.31ZM266,261.4c15.71-.57,41,5.09,50.52,19.76a83.6,83.6,0,0,1,9.76-9.14c4.13-3.27,10,2.54,5.84,5.84-18.19,14.41-28.78,36.87-39.39,57a349.7,349.7,0,0,0-27.64,70c-1.41,5.13-9.38,2.94-8-2.2,1.25-4.51,2.61-9,4-13.46-18.92-2.48-34.18-15.71-41.95-33.06s-11.81-43.62-2.64-61.23C226.21,276.39,244.79,262.16,266,261.4Zm-6.21,154.7c-5.27,14.49-10.33,29.07-15,43.76-4.26,13.38-6.35,29.26-12.87,41.65a1.4,1.4,0,0,1-2.59-.7c.14-14.34,7.07-30.11,11.46-43.65q7-21.56,15.94-42.35C257.44,413.06,260.4,414.34,259.76,416.1Zm-31.63-26.31c-1.29,16.31-8.64,30.38-17.59,43.78-5,7.51-10.39,14.79-15,22.6-4.69,8-7.92,16.51-11.44,25.06-.69,1.67-3.57,1.67-3.42-.46,1.05-15.49,11.43-29.11,20-41.4,10.6-15.14,21.92-30.7,24.11-49.58C225.11,387.75,228.3,387.67,228.13,389.79Zm-35.46-79.25c2.48-6.17,7.14-11.43,11.06-16.75,4.43-6,9-11.9,13.53-17.82,1.22-1.58,3.92-.15,2.76,1.61-4.06,6.21-8.11,12.42-12.31,18.54-3.72,5.42-7.18,11.73-12.18,16.08C194.38,313.2,192,312.26,192.67,310.54Zm6.32,8.82c.21-1.53,2.75-1.14,2.66.36-.57,9.73-3.72,18.53-7.89,27.26-4.78,10-9.25,19.94-13.71,30-.59,1.33-2.86.67-2.74-.74C179,355.83,196.21,339.87,199,319.36Zm-40.57,113a51.4,51.4,0,0,1,5.94-24.87c4.92-9,12.84-16.08,18.22-24.85a1.73,1.73,0,0,1,3,1.74c-4.39,7.91-10.14,14.49-15.09,22-5.38,8.13-5.73,17.46-8.5,26.48A1.81,1.81,0,0,1,158.42,432.33Zm5,24.91c-5-15.47,4-31.54,13-43.72,11.49-15.61,26.11-30.7,26.12-51.34,0-2.32,3.5-2.3,3.58,0,.58,16.58-7.85,30.49-17.28,43.47-11.72,16.12-21.37,30.5-21.83,51.1A1.83,1.83,0,0,1,163.38,457.24Zm8.83,16.62c-4.63-35.22,37.09-55.22,41.54-88.4.35-2.59,4.45-2.68,4.16,0-3.66,34.19-38.76,53.79-42,88.4A1.83,1.83,0,0,1,172.21,473.86Zm12.58,68.47c-.08,2.11-3.34,2.72-3.8.51-5.12-24.4,5.48-51.07,13.46-73.71.72-2,3.92-1.21,3.27.9-3.55,11.43-7,22.89-9.54,34.6C185.48,517.24,185.27,529.53,184.79,542.33Zm13.79-35.28c-4.72,17.65-3.39,34.85-5.46,52.72-.17,1.47-2.59,2.14-2.85.38-5.41-36.28,9.62-69.93,20.62-103.58.57-1.75,3.33-1,2.77.76C208.41,473.8,203,490.34,198.58,507.05Zm10.24,18.24c-2.25,15.81-1.32,31.34-1.76,47.2a1.44,1.44,0,0,1-2.82.38c-7.59-27.13-.14-59.62,7.89-85.84a372,372,0,0,1,15.94-41.84c6.18-13.94,12.94-27.58,16.33-42.55.52-2.28,3.85-1.28,3.45.95-2.37,13.6-7.83,26-13.29,38.59a445.21,445.21,0,0,0-16,41.88A252.58,252.58,0,0,0,208.82,525.29Zm33.47,165.39c-6-12-7.51-27.66-10.54-40.73-3.27-14.09-6.8-28.18-8.76-42.53-3.9-28.53-1.65-57.23.88-85.77.19-2.17,3.54-2.22,3.42,0-1.61,29.08-3.59,58.65.92,87.58,2.07,13.26,5.44,26.3,8.54,39.35s8.8,27.75,8.72,41.23C245.47,691.44,243.07,692.24,242.29,690.68ZM241,593A322,322,0,0,0,244.91,632c2.08,12.6,6.43,24.86,8.23,37.44.3,2.09-2.59,3.81-3.72,1.57-5.69-11.34-7.76-25.12-9.87-37.53a316.34,316.34,0,0,1-4.06-37.35,437,437,0,0,1,3.68-79c6.94-52.77,30-98.53,58.17-143a.84.84,0,0,1,1.44.85C287.24,397.14,275,419,265,442a272.35,272.35,0,0,0-20.52,75.52A457.2,457.2,0,0,0,241,593ZM266.3,700.45c-4.79-11.39-6.41-24.48-8.14-36.65q-2.48-17.4-3.24-35a326.12,326.12,0,0,1,5.37-72.07c.18-1,1.87-.75,1.74.24a390.14,390.14,0,0,0-2.48,71.83,345.84,345.84,0,0,0,4.29,38.25c1.86,11,5.08,21.8,6.26,32.86C270.36,702.33,267.05,702.24,266.3,700.45Zm46.07,106c-4.87-7.1-7.64-15.88-11-23.79q-4.61-10.89-9.17-21.79c-6.78-16.11-13-32.4-19.74-48.53-.52-1.26,1.63-2.14,2.18-.92,7.21,15.91,14.83,31.63,22,47.59q5.34,12,10.69,24c3.16,7.11,7.12,14.28,8.8,21.91A2.05,2.05,0,0,1,312.37,806.46Zm9.33-2.25c-2.91-4.12-3.85-9.58-5.31-14.37-1.67-5.46-3.38-10.91-5.08-16.37-.75-2.4,2.94-3.37,3.73-1,1.83,5.42,3.66,10.84,5.53,16.25,1.64,4.74,4,9.66,4.11,14.72A1.61,1.61,0,0,1,321.7,804.21ZM348,801.94c-6.33-7.86-10.36-17.9-14.47-27.06q-6-13.5-11.32-27.32a388.57,388.57,0,0,1-17.76-61c-8.41-41.83-8.63-84.54,2.15-125.94.56-2.12,3.75-1.21,3.27.91-9.37,41.44-8.18,85.07.7,126.48a401,401,0,0,0,16.79,56.57q5.73,15.25,12.5,30.1c3.79,8.34,8.62,16.73,11,25.59C351.33,801.82,349.15,803.34,348,801.94Zm29.34,17.43c-10.95-14.13-18-33-25.28-49.25-7.18-16-13.75-32.29-19.43-48.88a378.85,378.85,0,0,1-20.23-107.16c-.1-2.3,3.42-2.27,3.55,0,2,35.85,10.89,71.68,22.57,105.53,6,17.48,13.07,34.6,20.77,51.41,7,15.21,16.84,30.14,22.09,46C382.12,819.2,378.86,821.3,377.36,819.37Zm34.46,26.35c-8.73-12.66-14.05-28.39-21.24-42-6.94-13.14-14.08-26.17-20.94-39.34C356,738.07,343.62,711,338,681.76c-.46-2.4,3.17-3.44,3.7-1,6.56,30,20,57.72,34.56,84.59,7.31,13.46,14.89,26.78,21.94,40.38,6.21,12,14.41,25.28,16.6,38.77A1.62,1.62,0,0,1,411.82,845.72Zm22.48,18.15c-6.08-7.78-9-18.16-12.87-27.15q-6.26-14.37-13-28.52c-9.18-19.33-18.62-38.58-28.87-57.37a1.29,1.29,0,0,1,2.23-1.31c11.18,18.86,22,37.88,31.67,57.55q7.27,14.71,14,29.69c3.68,8.17,8.64,16.92,9.67,25.91A1.71,1.71,0,0,1,434.3,863.87Zm27.41,21.62c-5.12-8.35-7.93-18.31-11.79-27.3q-5.28-12.35-11.27-24.37A499.23,499.23,0,0,0,411,784.38c-1.06-1.64,1.56-3.15,2.62-1.53,10.61,16.25,20.78,32.72,29.61,50q6.43,12.6,12.2,25.54c3.66,8.2,8.1,16.79,9.62,25.68A1.83,1.83,0,0,1,461.71,885.49Zm16.66,16.44c-6.25-11.89-8-26.65-12-39.44C461.73,848,456,834,447.62,821.21c-1.21-1.85,1.69-3.48,2.92-1.71a166.21,166.21,0,0,1,19.94,38.94c4.74,13.08,10.74,28.68,10.68,42.73A1.51,1.51,0,0,1,478.37,901.93Zm3.05-41.29a1.41,1.41,0,0,1-2.1-1.15q0-3.62.26-7.25c-3.43-16.77-6.19-33.54-11.15-50a327.16,327.16,0,0,0-23.27-57.58c-.94-1.8,1.76-3.39,2.73-1.6a321.07,321.07,0,0,1,24.52,56.53,280.07,280.07,0,0,1,9.18,35.93A277.74,277.74,0,0,1,490.87,799a320.29,320.29,0,0,1,24.51-56.53c1-1.79,3.67-.2,2.73,1.6a326.81,326.81,0,0,0-23.26,57.58c-5,16.58-7.75,33.43-11.2,50.29.18,2.68.29,5.35.31,8A1.37,1.37,0,0,1,481.42,860.64Zm3.49,40.77a1.51,1.51,0,0,1-2.8-.75c-.06-14.06,5.94-29.64,10.68-42.73A166.66,166.66,0,0,1,512.73,819c1.24-1.76,4.13-.13,2.93,1.71-8.37,12.81-14.11,26.74-18.72,41.29C492.88,874.77,491.15,889.53,484.91,901.41Zm27.41-41.28c-3.47,8.21-6.08,17.23-10.75,24.85-1.14,1.86-3.67.56-3.34-1.41,1.52-8.86,6-17.49,9.62-25.67q5.77-12.93,12.2-25.54c8.84-17.3,19-33.77,29.62-50,1.06-1.63,3.68-.12,2.61,1.53a504.32,504.32,0,0,0-27.66,49.43Q518.07,846.53,512.32,860.13Zm28.9-22.49c-3.71,8.58-6.45,18.31-12.24,25.72a1.71,1.71,0,0,1-2.89-1.2c1.08-9.44,6.43-18.77,10.31-27.33q6.47-14.25,13.38-28.28c9.71-19.66,20.49-38.68,31.68-57.54a1.29,1.29,0,0,1,2.23,1.3c-10.25,18.79-19.7,38.05-28.87,57.38Q547.76,822.56,541.22,837.64Zm10.23,7.57a1.62,1.62,0,0,1-2.94-1.25c2.26-13.91,10.81-27.64,17.24-40,6.86-13.18,14.21-26.09,21.3-39.14,14.58-26.87,28-54.55,34.55-84.59.53-2.43,4.17-1.38,3.7,1-5.65,29.27-18,56.31-31.66,82.59-7.08,13.59-14.46,27-21.59,40.58C565.08,817.67,559.94,832.91,551.45,845.21Zm34.47-26.36c-1.5,1.94-4.77-.17-4-2.35,2.68-8.11,7.38-15.64,11.19-23.27q6-11.93,11.51-24.07c7.47-16.37,14.28-33,20.15-50.06,11.69-33.86,20.59-69.68,22.58-105.54.12-2.27,3.64-2.29,3.54,0a378.55,378.55,0,0,1-20.22,107.17c-5.84,17.06-12.62,33.8-20,50.23C603.47,786.76,596.58,805.1,585.92,818.85Zm29.33-17.42c-1.12,1.4-3.3-.12-2.88-1.68,2.4-8.85,7.24-17.25,11-25.58,4.49-9.9,8.68-19.93,12.49-30.11a401.84,401.84,0,0,0,16.8-56.56c8.88-41.41,10.06-85,.69-126.49-.47-2.12,2.72-3,3.27-.9,10.78,41.4,10.57,84.11,2.16,125.94a389.94,389.94,0,0,1-18.31,62.42C633.82,765.93,627.05,786.77,615.25,801.43Zm26.33,2.27a1.61,1.61,0,0,1-3-.81c.07-5,2.47-10,4.11-14.71,1.87-5.41,3.69-10.83,5.53-16.25.79-2.35,4.48-1.36,3.73,1-1.7,5.45-3.42,10.91-5.08,16.37C645.43,794.11,644.48,799.58,641.58,803.7Zm49.21-91.87c-6.69,16.13-13,32.43-19.73,48.53q-4.59,10.9-9.17,21.79c-3.34,7.92-6.11,16.7-11,23.8a2.06,2.06,0,0,1-3.75-1.58c1.69-7.63,5.65-14.79,8.8-21.9q5.32-12,10.7-24c7.13-16,14.75-31.68,22-47.6C689.17,709.68,691.31,710.59,690.79,711.83Zm17.57-83.51q-.75,17.55-3.24,35c-1.74,12.18-3.35,25.26-8.14,36.66-.76,1.81-4.06,1.86-3.81-.52,1.24-11.57,4.63-22.91,6.53-34.4a340,340,0,0,0,4-36.7,390.28,390.28,0,0,0-2.48-71.84c-.13-1,1.57-1.2,1.75-.23A324.87,324.87,0,0,1,708.36,628.32Zm1.78,40.59c1.87-13.09,6.38-25.83,8.48-39a328.21,328.21,0,0,0,3.75-39c1-24.7-.6-49.47-3.6-74a272.9,272.9,0,0,0-21.11-76.9c-9.83-22.47-21.85-43.92-33.17-65.66a.84.84,0,0,1,1.45-.85c28.13,44.51,51.23,90.29,58.17,143,3.51,26.65,5.07,53.62,3.6,80.48a315.94,315.94,0,0,1-4.24,37.32c-2.09,11.94-4.13,25.12-9.62,36C712.72,672.73,709.84,671,710.14,668.91Zm30.14-62c-2,14.36-5.49,28.44-8.76,42.54-3,13.11-4.47,28.66-10.53,40.72-.79,1.56-3.18.76-3.19-.86-.07-13.48,5.63-28.15,8.73-41.24S733,622,735.06,608.71c4.54-28.91,2.54-58.5.93-87.57-.13-2.22,3.22-2.16,3.42,0C741.94,549.67,744.18,578.37,740.28,606.9ZM759,572.36a1.44,1.44,0,0,1-2.82-.38c-.45-15.87.47-31.39-1.76-47.2a251.31,251.31,0,0,0-9.72-41.23,446.92,446.92,0,0,0-16-41.88c-5.47-12.58-10.92-25-13.3-38.59-.39-2.24,2.94-3.23,3.46-.95,3.49,15.46,10.6,29.51,16.94,43.94a369.15,369.15,0,0,1,15.32,40.44C759.18,512.73,766.63,545.23,759,572.36Zm14-12.72c-.27,1.77-2.69,1.07-2.86-.39-2.07-17.86-.73-35.07-5.45-52.72-4.47-16.7-9.84-33.24-15.08-49.71-.57-1.77,2.19-2.51,2.76-.77C763.38,489.7,778.41,523.36,773,559.64Zm9.28-17.31c-.47,2.23-3.72,1.58-3.8-.51-.49-12.79-.69-25.11-3.4-37.7-2.51-11.72-6-23.17-9.53-34.61-.65-2.1,2.55-2.93,3.27-.9C776.8,491.25,787.4,517.93,782.29,542.33Zm8.77-69a1.82,1.82,0,0,1-3.64,0c-3.3-34.62-38.39-54.22-42-88.4-.29-2.69,3.81-2.59,4.16,0C754,418.13,795.7,438.13,791.06,473.35Zm8.83-16.63a1.83,1.83,0,0,1-3.58-.48c-.45-20.62-10.1-35-21.82-51.1-9.44-13-17.86-26.9-17.29-43.48.08-2.3,3.58-2.31,3.58,0,0,20.66,14.63,35.73,26.13,51.35C795.87,425.19,804.94,441.25,799.89,456.72Zm5-24.9a1.82,1.82,0,0,1-3.55.48c-2.78-9.05-3.19-18.29-8.51-26.48-4.88-7.53-10.69-14.07-15.08-22a1.73,1.73,0,0,1,3-1.75C786.07,390.86,794,398,798.92,407A51.6,51.6,0,0,1,804.86,431.82Z"/><path d="M404.51,426.89C384,409.32,357.12,402.45,330.91,399c-5.26-.69-5.21,7.57,0,8.26,24.67,3.26,50.8,10,69.65,27.16,19.9,18.14,27,44.93,32.23,70.37,1.07,5.2,9,3,8-2.19C435.06,474.94,426.76,445.94,404.51,426.89Z"/><path d="M219.18,356.18c7.77,17.35,23,30.58,41.95,33.06-1.42,4.46-2.78,8.95-4,13.46-1.42,5.14,6.55,7.33,8,2.2a349.7,349.7,0,0,1,27.64-70c10.61-20.14,21.2-42.6,39.39-57,4.17-3.3-1.71-9.11-5.84-5.84a83.6,83.6,0,0,0-9.76,9.14C307,266.49,281.68,260.83,266,261.4c-21.18.76-39.76,15-49.43,33.55C207.37,312.56,211.37,338.72,219.18,356.18ZM303.08,299c-7.14-6.48-20-5.77-28.17-2.24-2,.87-.57,4.29,1.49,3.54a23.81,23.81,0,0,1,13.84-1.07c3.79.89,6.61,3,9.84,4.68-.49.83-1,1.67-1.47,2.51-.72-.5-1.51-.93-2.2-1.32a37.1,37.1,0,0,0-4.85-2.3c-2.67-1.07-3.85,3.27-1.19,4.33a30,30,0,0,1,4,2c.66.38,1.3.87,2,1.29l-2,3.61-3.25-2.86c-2.07-1.84-5.13,1.18-3.06,3.05l3.73,3.36.46.41c-1.65,3.11-3.27,6.21-4.87,9.27a9.27,9.27,0,0,0-1.74-2.19c-1.22-1.23-2.47-2.44-3.7-3.66-2.1-2.08-5.35,1.18-3.24,3.24,1.24,1.21,2.47,2.44,3.72,3.64a6.45,6.45,0,0,0,3.34,2.07l-.21.39c-.54,1-1.05,2.07-1.58,3.11-.69-2-2.89-3.59-4.22-5.2a43.19,43.19,0,0,1-5-7.78c-1-2-4.56-.6-3.72,1.57a38,38,0,0,0,4.7,8.79c1.53,2.11,3.77,5.79,6.72,5.59h0Q276.81,348,272,359.66c-17-10-28.91-29.43-21.24-49.23,3.67-9.46,11.2-16.73,21.22-19s24.25-1.17,32.19,6Zm-79.41.13c8-15.44,23.39-28.2,41-29.41,14-1,39.2,4.2,46.12,18.22-.66.85-1.3,1.72-1.94,2.59-9-7.52-23.32-9.31-34.47-7.91a38,38,0,0,0-29.7,21.07c-12.13,24.58,1.68,51.23,24.15,63.71q-2.68,6.87-5.07,13.86c-17-1.36-30.46-13.58-37.19-28.77C220,337.68,215.94,314.11,223.67,299.12Z"/><path d="M413.47,615.76c3,4.33,10.18.2,7.13-4.17-6-8.56-5.24-19.14-4.7-29.1.62-11.6,2.17-23.13,3.73-34.63,2.86-21,5.71-41.92,4-63.12-.42-5.26-8.69-5.3-8.26,0,1.93,24-2,47.61-5.1,71.33C407.9,574.19,402.17,599.54,413.47,615.76Z"/><path d="M463.52,634.58c-6.11-1-13.77.37-18.34,4.85s-4.33,9.9-2.6,15.46c1.57,5.06,9.55,2.9,8-2.19a10.85,10.85,0,0,1-.66-4.76c4.19,5.46,12.19,7.47,19,6a11.35,11.35,0,0,1-1.77,3.57c-3.18,4.26,4,8.39,7.13,4.17A17,17,0,0,0,463.52,634.58Z"/><path d="M527.37,506c5.25-25.44,12.34-52.23,32.23-70.36,18.85-17.19,45-23.91,69.66-27.17,5.19-.69,5.26-9,0-8.26-26.21,3.47-53.08,10.34-73.61,27.92-22.25,19-30.55,48-36.24,75.68C518.34,509,526.3,511.19,527.37,506Z"/><path d="M654.46,393.85c-10.73-22.68-22.13-46.37-40.64-63.83-17.48-16.48-37.64-22-61.05-23.95-22.41-1.88-44.9-1.74-67.36-1.66-26.9-.21-53.9-1.66-80.75.7-22.87,2-42.5,8.32-59.28,24.62-17.93,17.41-29.12,40.61-39.67,62.91a711.5,711.5,0,0,0-30.37,75.18c-1.72,5.05,6.26,7.21,8,2.2q7.81-22.95,17.13-45.32c.91,30,6.82,60,18.37,87.72,13.74,33,40.47,57.09,56.63,88.71a4.13,4.13,0,0,0,1.06,1.33c-.06.58-.11,1.15-.17,1.73-2,20.61-2.76,42.44,7.19,61.32,6,11.37,15.32,18.91,26.28,23.62a53.59,53.59,0,0,0,26.51,40.38,61.74,61.74,0,0,0,26.32,8.07c4.17.32,8.38-.36,12.52.12,4.93.57,9.44,1.22,14.42,1a56.09,56.09,0,0,0,60.81-48.34c11-4.7,20.35-12.25,26.28-23.63,9.89-19,9.23-40.64,7.19-61.32-.05-.58-.11-1.15-.16-1.73a4.1,4.1,0,0,0,1.05-1.33c16.17-31.61,42.9-55.7,56.64-88.71,11.55-27.74,17.46-57.7,18.36-87.72q9.35,22.35,17.13,45.32c1.71,5,9.69,2.86,8-2.2A713.65,713.65,0,0,0,654.46,393.85ZM492,730.59a4.13,4.13,0,0,0-1.58-.2l-.93,0h-.08a4.29,4.29,0,0,0-1.09.05c-5.88,0-11.53-1.26-17.38-1.15-9,.18-17.46-.75-25.74-4.5-13.73-6.21-23.63-18.07-26.58-32.6a87.27,87.27,0,0,0,12.07,2.51c17.1,2.36,36.73.93,48.89-12.62l0,0a35.57,35.57,0,0,0,6.62,6.22c-1.45-.07-2.9-.06-4.36,0a1.87,1.87,0,0,0-1.22.49,41.89,41.89,0,0,0-6.13.22c-2,.23-4,.27-5.53,1.68a1.75,1.75,0,0,0,.76,2.89c1.75.62,3.56,0,5.35-.3,2.13-.29,4.27-.55,6.41-.72a2,2,0,0,0,1.08-.45c1.9.17,3.8.4,5.68.66s3.6.92,5.36.29a2.13,2.13,0,0,0,.53-.3c10.86,4.56,23.72,4.73,35.4,3.12a87.88,87.88,0,0,0,12.07-2.51C536.8,716.38,515.26,731.61,492,730.59Zm-26-67.1c-5.79-.79-11.6-.18-17.29-1.8C441.1,659.55,438,656,437.3,648.18c-.49-5.09-1.27-13.68,1.44-18.23,2.62-4.39,9.63-5.77,14.26-6.84,7.95-1.83,16.16-1.8,24.29-1.51a4.55,4.55,0,0,0,1.26.2c10.39,0,20.79.31,30.86,3.08,5.51,1.52,11.62,3.18,13,9.48a44.93,44.93,0,0,1-.18,19.45c-4.82,18-34.33,3.84-42,19.2C477.88,667.42,472.17,664.33,465.94,663.49ZM632.66,513.15c-12.34,28.25-34.52,50-50.16,76.23-1.33-21-.44-41.06,8.24-61.35,2.07-4.84-5-9-7.13-4.17a127.79,127.79,0,0,0-10.13,58.65c1.23,20.82,5.91,41.94,1.86,62.73-4,20.29-16.11,35.16-36.45,40.5-16.67,4.37-38.74,5.77-51.68-7.45,2.73-7.76,15-5.32,21.56-6.37,4.9-.77,10.41-2.38,14.63-5.15,8.77-5.75,8.54-19.23,7.78-28.53-.89-11-5.48-16.74-16-20.26s-21.47-4.25-32.41-4.4a2.51,2.51,0,0,0-.27,0c-17.34-.72-50.35-2.7-53.21,20.72-1.11,9-2,23.76,6,30.2,4.41,3.54,10.69,5.39,16.16,6.25,6.59,1,18.82-1.39,21.56,6.37-12.66,12.93-34,11.8-50.39,7.77-21-5.17-33.59-19.91-37.75-40.83-4-20.24.45-40.91,1.78-61.19a129.13,129.13,0,0,0-10-60.18c-2.09-4.88-9.21-.67-7.14,4.17,8.68,20.27,9.58,40.41,8.25,61.36-15.64-26.26-37.82-48-50.17-76.24-14.41-33-20.09-69.72-18.75-105.56a6.06,6.06,0,0,0,0-.62q1.4-3.09,2.82-6.17c10.18-21.77,20.8-44.76,37.81-62.14,8.11-8.3,17.81-15.34,28.8-19.25,11.26-4,23.58-4.78,35.41-5.48,17.15-1,34.32-.69,51.49-.36-18.9,18-31,44.22-40.42,68.13-.32.8,1.07,1.4,1.42.59a273.27,273.27,0,0,1,18.68-34.91c7-11.26,15.55-21.35,22.76-32.43a1.17,1.17,0,0,0,0-1.34l7,.13a4.28,4.28,0,0,0,1.16.16l9.62,0H486c19.46-.08,38.92-.2,58.34,1,11.72.75,23.88,1.38,35.16,4.87,11.6,3.58,21.83,10.63,30.38,19.14,17.21,17.12,27.89,40,38.09,61.69,1.18,2.51,2.33,5,3.48,7.55a4.35,4.35,0,0,0,0,.63C652.76,443.43,647.08,480.15,632.66,513.15Z"/><path d="M796.71,353.4q-3.59-9.9-7.7-19.59c-2-4.81-13.2-26.59,1-24.87,3.06.36,5.23-3.81,3.57-6.22-16.66-24.15-40.1-41.64-65.41-55.94-13-7.32-26.33-13.88-39.69-20.42-6.81-3.33-13.66-6.6-20.38-10.09-5.53-2.87-21.2-14.12-9.33-20,3.51-1.75,2-6.36-1-7.55A484.07,484.07,0,0,0,555.21,160.6q1.8-9.43,3.61-18.86a4.2,4.2,0,0,0-5.09-5.08,181.77,181.77,0,0,0-72.86,33.4,181.75,181.75,0,0,0-74.44-34.61,4.19,4.19,0,0,0-5.08,5.08q1.8,9.43,3.61,18.86a484.16,484.16,0,0,0-102.53,28.08c-3,1.18-4.48,5.81-1,7.55,11.25,5.62-2.8,16.58-8.27,19.5-6.65,3.55-13.52,6.75-20.3,10.07-13.74,6.73-27.51,13.45-40.84,21-25.31,14.3-48.74,31.79-65.4,55.94-1.66,2.41.51,6.58,3.57,6.21,14.15-1.71,3,20.07.95,24.88q-4.09,9.7-7.71,19.59a408,408,0,0,0-13,43.15,418,418,0,0,0-11.49,87.39,4.16,4.16,0,0,0,6.21,3.57l12.3-7.65q9.38,72.33,23.48,143.92c.49,2.47,4,4,6.07,2.47a58.81,58.81,0,0,0,11.27-10.46c4.66,7.51,9.64,14.83,12.35,23.35,2.91,9.13,4.19,18.7,6.54,28,5.85,23,12.31,45.94,18.67,68.85,1.14,4.11,6.66,3.73,8,0q3.33-9.5,7.56-18.57Q280,776.87,313.14,835.25a4.17,4.17,0,0,0,7.13,0,141.33,141.33,0,0,0,10.87-21q41.19,24.88,81.22,51.61c13.37,8.94,28.25,17.45,39,29.6,8.57,9.7,13.67,21.48,24.57,29a5261.07,5261.07,0,0,0,8.3,1.21c10.9-7.55,16-19.33,24.57-29,10.75-12.15,25.64-20.66,39-29.6q40-26.77,81.21-51.61a142.74,142.74,0,0,0,10.87,21,4.18,4.18,0,0,0,7.14,0q33.12-58.35,61.78-119.06,4.23,9.09,7.56,18.57c1.31,3.72,6.83,4.12,8,0,6.35-22.91,12.81-45.81,18.66-68.85,2.36-9.27,3.63-18.86,6.55-28,2.72-8.52,7.69-15.83,12.34-23.35a58.87,58.87,0,0,0,11.28,10.46c2.08,1.49,5.57,0,6.06-2.47q14.14-71.55,23.49-143.91L815,487.51a4.17,4.17,0,0,0,6.22-3.57,418.64,418.64,0,0,0-11.49-87.39A405.73,405.73,0,0,0,796.71,353.4Zm4.86,116c-2.94-1.83-5.85.65-6.22,3.57q-9,71.44-22.84,142.16a48,48,0,0,1-7.42-8.87,4.18,4.18,0,0,0-7.14,0c-5.11,9-11.45,17.29-15.12,27-3.55,9.4-4.84,19.45-7.18,29.18-4.79,19.86-10.4,39.58-15.93,59.28-2.25-5.42-4.7-10.75-7.4-16-1.34-2.62-5.83-2.78-7.13,0q-28.62,61.32-61.83,120.31A130.35,130.35,0,0,1,635,808.31c-.92-2.43-3.6-3.95-6.07-2.47q-43.27,26-85.27,54.07c-12.49,8.36-25.88,16.36-36.75,26.84-9.76,9.41-15.09,23.15-26.05,31.22a5.82,5.82,0,0,0-.74-.63c-11.51-8-16.83-22.17-26.82-31.8-10.87-10.49-24.26-18.48-36.75-26.84q-42-28.08-85.27-54.07c-2.47-1.48-5.15,0-6.07,2.47a131.55,131.55,0,0,1-8.38,17.81q-33.18-59-61.83-120.31c-1.3-2.78-5.79-2.62-7.14,0-2.69,5.23-5.14,10.56-7.4,16-5.52-19.7-11.1-39.41-15.92-59.28-2.26-9.31-3.51-18.93-6.74-28-3.65-10.23-10.25-18.85-15.57-28.22a4.17,4.17,0,0,0-7.13,0,48,48,0,0,1-7.42,8.87q-13.75-70.69-22.85-142.17c-.37-2.91-3.28-5.39-6.21-3.56l-11.12,6.91a406.92,406.92,0,0,1,17.26-100.79c5.13-16.75,12-32.57,18.38-48.84,3.27-8.34,2.66-21.26-5.52-25.07,20.79-27.09,51-44.47,81.14-59.66,14.7-7.41,31.95-13.32,45.19-23.15,7.53-5.58,12.45-17.07,7.43-24.79a483.8,483.8,0,0,1,99.54-26.07c2.32-.35,3.26-3.11,2.88-5.08l-3.21-16.81a172.92,172.92,0,0,1,66,32.19,4.14,4.14,0,0,0,.88.55,4.5,4.5,0,0,0,6.21.66,172.78,172.78,0,0,1,66-32.19q-1.61,8.41-3.22,16.81c-.38,2,.55,4.73,2.89,5.08a484.17,484.17,0,0,1,99.56,26.08c-4.9,7.58-.37,18.86,7,24.46,13.21,10.07,30.82,16,45.62,23.47,30.15,15.19,60.38,32.59,81.17,59.71-7.73,3.69-9,15.56-6.07,23.74,6.05,16.86,13.63,32.93,18.89,50.12a406.47,406.47,0,0,1,17.27,100.79Z"/><path d="M743.62,296.16c-9.5-18.1-27.45-32.26-48.13-33.5-16-1-42.15,4.75-51.81,19.71a84.5,84.5,0,0,0-9.77-9.14c-3.67-2.91-8.71,1.37-6.85,4.67-17.47-19.47-41.63-30.28-67.38-33.59a174.19,174.19,0,0,0-45,.52c-10.57,1.39-25.52,3-33.4,11.19a2,2,0,0,0-.26-.41c-7.58-8.74-22.87-10.42-33.65-11.86a174.57,174.57,0,0,0-45.44-.58c-25.87,3.32-50.15,14.22-67.65,33.88-1.32,1.48.77,3.61,2.19,2.19,18-18.06,42.41-27.39,67.46-29.9a184.15,184.15,0,0,1,39.41.67,127.32,127.32,0,0,1,18.09,3.19c6,1.59,11.47,4.73,17.46,6.07a2.2,2.2,0,0,0,1.31-.09,2.14,2.14,0,0,0,2.51,1.23c5.56-1.24,10.66-4.15,16.18-5.71a122.26,122.26,0,0,1,19.37-3.55,184.24,184.24,0,0,1,39.42-.67c25,2.51,49.49,11.84,67.45,29.9a1.53,1.53,0,0,0,2.42-1.8,4.78,4.78,0,0,0,.51.49c18.19,14.41,28.79,36.88,39.4,57a349.67,349.67,0,0,1,27.63,70c1.42,5.12,9.39,2.94,8-2.2-1.25-4.51-2.62-9-4-13.46,18.4-2.41,33.5-15,41.37-31.82C748.67,341,753,314.1,743.62,296.16Zm-69,35.75c-2.19-4.16-4.39-8.41-6.65-12.67,1.4-.15,2.52-1.32,3.52-2.23q1.88-1.67,3.73-3.35c2.08-1.87-1-4.89-3.06-3.06q-1.87,1.66-3.76,3.32a9.49,9.49,0,0,0-2.07,2.23c-2.13-3.95-4.33-7.89-6.64-11.75a2.78,2.78,0,0,0,1.73-.13c4-1.79,7.16-4.52,11.64-5.56a23.73,23.73,0,0,1,13.84,1.07c2,.74,3.51-2.67,1.49-3.54-9-3.93-24-4.39-30.35,4.65a3.09,3.09,0,0,0-.25.42q-.85-1.37-1.74-2.73c7.6-6.81,21.31-8.1,30.85-6.29,10.61,2,18.7,9.4,22.56,19.35,7.68,19.81-4.25,39.26-21.24,49.23Q682.05,346.11,674.6,331.91Zm59.88,19.77c-6.4,16.08-20.34,29.36-38.08,30.78q-2.4-7-5.07-13.86c22.46-12.48,36.28-39.12,24.15-63.71a38,38,0,0,0-29.15-21c-11.27-1.58-25.86.22-35,7.84-.64-.87-1.28-1.74-1.94-2.6,6.8-13.78,31-18.75,44.83-18.26,18.17.65,34.11,13.6,42.29,29.46C743.94,314.77,740.26,337.19,734.48,351.68Z"/><path d="M607.13,459.17c5.56-6.7,13.51-18.44,12.2-27.66-1.23-8.62-13-6.71-19.29-6.5-17.44.6-45.71,6.19-51.17,26-2.75,9.94-.41,21.62,2,31.44a119.2,119.2,0,0,0,13.07,31.95c2.68,4.59,9.82.44,7.14-4.17a111.1,111.1,0,0,1-11.55-27.27c-.79-2.92-1.66-6.22-2.37-9.65A45.5,45.5,0,0,0,607.13,459.17Zm-16.67,3.65c-10.23,6-22.41,6-33.21,1.76a4.06,4.06,0,0,0-1.42-.28,28.58,28.58,0,0,1,1.36-11.91,17.91,17.91,0,0,1,4-6.19c-.31,8.42,7.13,14.42,14.92,15.75,10,1.7,18.49-4.24,19.81-14.35a16,16,0,0,0-4.74-13.77c6.6-1.14,13.89-1.7,19.88-.46.17,5.37-4.71,12.72-7.3,16.59A41.75,41.75,0,0,1,590.46,462.82Z"/><path d="M536.54,486c-1.71,21.2,1.13,42.16,4,63.12,1.5,11,3,22,3.65,33.07.63,10.39,1.62,21.71-4.62,30.66-3,4.37,4.11,8.5,7.14,4.17,11.29-16.22,5.56-41.58,3.2-59.69-3.09-23.72-7-47.34-5.1-71.33C545.22,480.66,537,480.68,536.54,486Z"/><path d="M493.05,658.71a11.15,11.15,0,0,1-1.77-3.57c6.8,1.48,14.78-.52,19-5.95a11.08,11.08,0,0,1-.63,4.72c-1.58,5.09,6.39,7.26,8,2.19,1.71-5.51,1.84-11.16-2.61-15.46-4.61-4.46-12.18-5.85-18.33-4.85a17,17,0,0,0-10.74,27.09C489.05,667.09,496.23,663,493.05,658.71Z"/><path d="M400.3,483A111.84,111.84,0,0,1,389.13,509c-2.68,4.6,4.45,8.77,7.13,4.17a119,119,0,0,0,13.08-31.95c2.25-9.35,4.52-20.53,2.33-30.09-4.77-20.79-33.59-26.7-51.54-27.32-6.33-.21-18.12-2.13-19.29,6.5-1.21,8.89,6.2,20.05,11.39,26.63A45.53,45.53,0,0,0,403,472.07c-.31,1.51-.64,3-1,4.45-11.82,5.78-26,2.74-37.44-2.84-1.42-.69-2.65,1.34-1.25,2.15C373.59,481.75,388.45,488.08,400.3,483Zm2.62-19.67c-10.91,4.32-22.87,4.15-33.21-1.76a41.06,41.06,0,0,1-13.3-12.86c-2.63-3.93-7.5-11.21-7.31-16.59,6-1.24,13.13-.71,19.67.42-7.69,7.76-5.21,26.17,9.07,28.26,7.93,1.17,17.41-2.75,20.29-10.65a13,13,0,0,0,.78-5.41,17,17,0,0,1,4.07,6.4,30.8,30.8,0,0,1,1.28,11.91A4.07,4.07,0,0,0,402.92,463.37Z"/><path d="M338,432c0-1.16-1.6-1.08-1.75,0-1.33,10.05,1.54,22.3,9.69,29a.86.86,0,0,0,1.34-1C342,450.68,338.14,442.92,338,432Z"/><path d="M387.4,265a183.22,183.22,0,0,0-79,73.78c-.75,1.32,1.16,2.37,2,1.17a255.09,255.09,0,0,1,78.42-72.58C390.32,266.44,389,264.21,387.4,265Z"/><path d="M302.2,502.58c-11.34,44.65-17.41,91.18-16.58,137.29a374.75,374.75,0,0,0,6.45,63.48c3.87,20.22,8.65,42.48,19.25,60.34a1.9,1.9,0,0,0,3.45-1.46c-5.38-20.33-13.11-39.63-17.09-60.43a371.89,371.89,0,0,1-6.24-63.43c-.77-45.5,6.41-90.3,13.06-135.16C304.72,501.74,302.59,501.05,302.2,502.58Z"/><path d="M339.88,774.68q-6.75-14.83-12.5-30.1A401,401,0,0,1,310.59,688c-8.88-41.41-10.07-85-.7-126.48.48-2.12-2.71-3-3.27-.91-10.78,41.4-10.56,84.11-2.15,125.94a388.57,388.57,0,0,0,17.76,61q5.25,13.83,11.32,27.32c4.11,9.16,8.14,19.2,14.47,27.06,1.13,1.4,3.31-.12,2.89-1.67C348.5,791.41,343.67,783,339.88,774.68Z"/><path d="M359.31,771c-7.7-16.81-14.73-33.93-20.77-51.41C326.86,685.76,318,649.93,316,614.08c-.13-2.27-3.65-2.3-3.55,0a378.85,378.85,0,0,0,20.23,107.16c5.68,16.59,12.25,32.88,19.43,48.88,7.27,16.24,14.33,35.12,25.28,49.25,1.5,1.93,4.76-.17,4-2.36C376.15,801.16,366.28,786.23,359.31,771Z"/><path d="M398.17,805.71c-7.05-13.6-14.63-26.92-21.94-40.38-14.59-26.87-28-54.55-34.56-84.59-.53-2.42-4.16-1.38-3.7,1,5.65,29.27,18,56.31,31.67,82.6,6.86,13.17,14,26.2,20.94,39.34,7.19,13.63,12.51,29.36,21.24,42a1.62,1.62,0,0,0,2.95-1.24C412.58,831,404.38,817.7,398.17,805.71Z"/><path d="M413.49,807.07c-9.7-19.67-20.49-38.69-31.67-57.55a1.29,1.29,0,0,0-2.23,1.31c10.25,18.79,19.69,38,28.87,57.37q6.72,14.16,13,28.52c3.91,9,6.79,19.37,12.87,27.15a1.71,1.71,0,0,0,2.89-1.2c-1-9-6-17.74-9.67-25.91Q420.76,821.81,413.49,807.07Z"/><path d="M455.42,858.41q-5.76-12.93-12.2-25.54c-8.83-17.3-19-33.77-29.61-50-1.06-1.62-3.68-.11-2.62,1.53a499.23,499.23,0,0,1,27.66,49.44q6,12,11.27,24.37c3.86,9,6.67,18.95,11.79,27.3a1.83,1.83,0,0,0,3.33-1.4C463.52,875.2,459.08,866.61,455.42,858.41Z"/><path d="M450.54,819.5c-1.23-1.77-4.13-.14-2.92,1.71C456,834,461.73,848,466.34,862.49c4.05,12.79,5.78,27.55,12,39.44a1.51,1.51,0,0,0,2.79-.76c.06-14-5.94-29.65-10.68-42.73A166.21,166.21,0,0,0,450.54,819.5Z"/><path d="M324.71,545.18c-6.77,17.59-15.4,39.14-11.73,58.33.38,2,3.09,1.27,3.3-.44,1.2-10.12,1.57-20,4-30,2.18-9.1,5.06-18,7.74-27C328.61,544,325.48,543.18,324.71,545.18Z"/><path d="M338.55,673c.62,1.17,2.78.7,2.62-.71-2-16.71-7-32.83-8.56-49.71a223.18,223.18,0,0,1,1.87-53.17c.32-2.17-2.94-3.16-3.36-.93a220.5,220.5,0,0,0-3.46,54.1C328.63,639.11,330.67,658.18,338.55,673Z"/><path d="M346,583.92a253.07,253.07,0,0,0,2.66,70.32c4,22.41,10.36,47,22.64,66.43.86,1.35,3.25.51,2.69-1.13-7.52-21.77-16.21-42.31-20.55-65.11a267.08,267.08,0,0,1-3.56-70.51C350,581.42,346.21,581.48,346,583.92Z"/><path d="M402.38,760c1.05,1.42,3.54.66,3-1.27-3.65-13.21-11-25.71-16-38.48q-7.38-18.75-13.16-38.08A477.9,477.9,0,0,1,359,599.51c-.24-2.16-3.67-2.18-3.42,0,3.18,27.85,8.12,55.51,15.87,82.46q5.76,20.09,13.23,39.61C389.5,734.32,394.23,749,402.38,760Z"/><path d="M433.61,792.9a1.74,1.74,0,0,0,3.16-1.33c-4.21-16.6-13.66-32.81-20.16-48.62-6.71-16.28-13.54-32.53-19.66-49-.73-2-3.87-1.15-3.18.87,5.88,17.12,11.71,34.23,18.51,51C418.53,761.24,424,779.22,433.61,792.9Z"/><path d="M462.71,824.21c-5.32-27-18.15-52.86-31.1-76.94-1-1.93-3.91-.23-2.92,1.71,12.56,24.59,20.73,50.56,30.9,76.09A1.62,1.62,0,0,0,462.71,824.21Z"/><path d="M484,860c0-2.67-.13-5.34-.31-8,3.45-16.86,6.22-33.71,11.2-50.29a326.81,326.81,0,0,1,23.26-57.58c.94-1.8-1.75-3.39-2.73-1.6A320.29,320.29,0,0,0,490.87,799a277.74,277.74,0,0,0-9.28,36.44,280.07,280.07,0,0,0-9.18-35.93A321.07,321.07,0,0,0,447.89,743c-1-1.79-3.67-.2-2.73,1.6a327.16,327.16,0,0,1,23.27,57.58c5,16.5,7.72,33.27,11.15,50q-.24,3.63-.26,7.25a1.41,1.41,0,0,0,2.1,1.15A1.37,1.37,0,0,0,484,860Z"/><path d="M458.59,745.22c2.07,8.25,6.52,16,9.48,24s5.79,16.28,8,24.64c.54,2.07,3.7,1.19,3.2-.89-3.76-15.85-7.69-35.73-17.64-49A1.67,1.67,0,0,0,458.59,745.22Z"/><path d="M295.68,477.59c.79-2.34-2.85-3.3-3.67-1a403.53,403.53,0,0,0-22.95,108.08,393.49,393.49,0,0,0,0,55.79c1.27,17.84,2.78,37.18,8.65,54.17.51,1.48,3,1.36,2.88-.39-1.22-18-4.93-35.74-6.13-53.78a425.74,425.74,0,0,1-.16-54.29A418.55,418.55,0,0,1,295.68,477.59Z"/><path d="M263.84,667.08a345.84,345.84,0,0,1-4.29-38.25A390.14,390.14,0,0,1,262,557c.13-1-1.56-1.22-1.74-.24a326.12,326.12,0,0,0-5.37,72.07q.74,17.55,3.24,35c1.73,12.17,3.35,25.26,8.14,36.65.75,1.79,4.06,1.88,3.8-.51C268.92,688.88,265.7,678,263.84,667.08Z"/><path d="M307.31,783q-5.32-12-10.69-24c-7.13-16-14.75-31.68-22-47.59-.55-1.22-2.7-.34-2.18.92,6.7,16.13,13,32.42,19.74,48.53q4.57,10.89,9.17,21.79c3.34,7.91,6.11,16.69,11,23.79a2.05,2.05,0,0,0,3.74-1.57C314.43,797.26,310.47,790.09,307.31,783Z"/><path d="M315,772.44c-.79-2.34-4.48-1.37-3.73,1,1.7,5.46,3.41,10.91,5.08,16.37,1.46,4.79,2.4,10.25,5.31,14.37a1.61,1.61,0,0,0,3-.8c-.07-5.06-2.47-10-4.11-14.72C318.7,783.28,316.87,777.86,315,772.44Z"/><path d="M265,442c10-23,22.22-44.86,33.76-67a.84.84,0,0,0-1.44-.85c-28.13,44.52-51.23,90.28-58.17,143a437,437,0,0,0-3.68,79,316.34,316.34,0,0,0,4.06,37.35c2.11,12.41,4.18,26.19,9.87,37.53,1.13,2.24,4,.52,3.72-1.57-1.8-12.58-6.15-24.84-8.23-37.44A322,322,0,0,1,241,593a457.2,457.2,0,0,1,3.53-75.52A272.35,272.35,0,0,1,265,442Z"/><path d="M228.21,609.23c-4.51-28.93-2.53-58.5-.92-87.58.12-2.22-3.23-2.17-3.42,0-2.53,28.54-4.78,57.24-.88,85.77,2,14.35,5.49,28.44,8.76,42.53,3,13.07,4.49,28.71,10.54,40.73.78,1.56,3.18.76,3.18-.87.08-13.48-5.62-28.15-8.72-41.23S230.28,622.49,228.21,609.23Z"/><path d="M256.69,414.81q-8.92,20.82-15.94,42.35c-4.39,13.54-11.32,29.31-11.46,43.65a1.4,1.4,0,0,0,2.59.7c6.52-12.39,8.61-28.27,12.87-41.65,4.68-14.69,9.74-29.27,15-43.76C260.4,414.34,257.44,413.06,256.69,414.81Z"/><path d="M247.85,403.59c.4-2.23-2.93-3.23-3.45-.95-3.39,15-10.15,28.61-16.33,42.55A372,372,0,0,0,212.13,487c-8,26.22-15.48,58.71-7.89,85.84a1.44,1.44,0,0,0,2.82-.38c.44-15.86-.49-31.39,1.76-47.2a252.58,252.58,0,0,1,9.72-41.23,445.21,445.21,0,0,1,16-41.88C240,429.61,245.48,417.19,247.85,403.59Z"/><path d="M210.89,456.57c-11,33.65-26,67.3-20.62,103.58.26,1.76,2.68,1.09,2.85-.38,2.07-17.87.74-35.07,5.46-52.72,4.46-16.71,9.83-33.25,15.08-49.72C214.22,455.56,211.46,454.82,210.89,456.57Z"/><path d="M194.45,469.13c-8,22.64-18.58,49.31-13.46,73.71.46,2.21,3.72,1.6,3.8-.51.48-12.8.69-25.09,3.39-37.7,2.52-11.71,6-23.17,9.54-34.6C198.37,467.92,195.17,467.09,194.45,469.13Z"/><path d="M224.87,389.79c-2.19,18.88-13.51,34.44-24.11,49.58-8.61,12.29-19,25.91-20,41.4-.15,2.13,2.73,2.13,3.42.46,3.52-8.55,6.75-17.05,11.44-25.06,4.57-7.81,9.94-15.09,15-22.6,9-13.4,16.3-27.47,17.59-43.78C228.3,387.67,225.11,387.75,224.87,389.79Z"/><path d="M213.75,385.46c-4.45,33.18-46.17,53.18-41.54,88.4a1.83,1.83,0,0,0,3.65,0c3.29-34.61,38.39-54.21,42-88.4C218.2,382.78,214.1,382.87,213.75,385.46Z"/><path d="M206.07,362.18c-.08-2.3-3.58-2.32-3.58,0,0,20.64-14.63,35.73-26.12,51.34-9,12.18-18,28.25-13,43.72a1.83,1.83,0,0,0,3.58-.49c.46-20.6,10.11-35,21.83-51.1C198.22,392.67,206.65,378.76,206.07,362.18Z"/><path d="M170.47,406.33c4.95-7.49,10.7-14.07,15.09-22a1.73,1.73,0,0,0-3-1.74c-5.38,8.77-13.3,15.89-18.22,24.85a51.4,51.4,0,0,0-5.94,24.87,1.81,1.81,0,0,0,3.55.48C164.74,423.79,165.09,414.46,170.47,406.33Z"/><path d="M180.05,377c4.46-10.09,8.93-20.07,13.71-30,4.17-8.73,7.32-17.53,7.89-27.26.09-1.5-2.45-1.89-2.66-.36-2.78,20.51-20,36.47-21.68,56.91C177.19,377.68,179.46,378.34,180.05,377Z"/><path d="M195.53,312.2c5-4.35,8.46-10.66,12.18-16.08,4.2-6.12,8.25-12.33,12.31-18.54,1.16-1.76-1.54-3.19-2.76-1.61-4.55,5.92-9.1,11.81-13.53,17.82-3.92,5.32-8.58,10.58-11.06,16.75C192,312.26,194.38,313.2,195.53,312.2Z"/><path d="M271.72,480.23c-6,21.84-12.12,45.15-12.53,67.89a1.47,1.47,0,0,0,2.88.39c5.53-22.1,8.12-45.05,13.1-67.33C275.67,478.94,272.33,478,271.72,480.23Z"/><path d="M373.52,289.47a186.6,186.6,0,0,1,55.57-13.94,160.16,160.16,0,0,1,24.68-.52c10,.63,18.22,4.52,27.81,6.28a2.47,2.47,0,0,0,2.45-1c8.14-1.84,15.34-5,24.06-5.7a157.87,157.87,0,0,1,26.09.44A187,187,0,0,1,589.76,289c1.89.8,3.6-1.88,1.66-2.84A169.5,169.5,0,0,0,534.18,269a137.53,137.53,0,0,0-31.74-.13c-7,.87-15.3,2.2-21.1,6.58-13.17-9.74-37.59-7.51-52.25-5.93a168.7,168.7,0,0,0-57.23,17.11C369.92,287.59,371.62,290.27,373.52,289.47Z"/><path d="M415.68,263.93c20.62-2.55,43.3-3.28,63.15,3.5,1.89.64,3.07-1.87,1.85-3.19-6.63-7.13-19.18-6.83-28.21-7.09a162.16,162.16,0,0,0-37.23,3.54C413.45,261.06,413.82,264.16,415.68,263.93Z"/><path d="M359.21,244.9a148,148,0,0,1,46.57-11.33c14.77-1.1,28.75,2,43.37,2.25,3,.05,3-3.83.65-4.82-14.34-5.92-33.3-4.74-48.35-2.77a147.06,147.06,0,0,0-44.19,13.33C355,242.65,357,245.85,359.21,244.9Z"/><path d="M332.74,216.25c26-9.65,53.17-15.59,80.92-16.28,12.5-.31,25.19.22,37.45,2.84,12.51,2.68,22.8,8.14,33.4,15.06a2.49,2.49,0,0,0,3-.07,2.89,2.89,0,0,0,1.2-.44c10.19-6.66,20.11-12.06,32.1-14.78,12.65-2.88,25.83-3.44,38.75-3.12,27.75.68,55,6.63,80.92,16.28,1.51.56,2.58-1.94,1.11-2.62A217.16,217.16,0,0,0,556.49,193c-23.16-.73-52.61,1.51-70.17,18.78-17.61-16.79-46.7-19-69.62-18.27a217.33,217.33,0,0,0-85.07,20.08C330.17,214.31,331.21,216.82,332.74,216.25Z"/><path d="M356.65,190.61c22,.67,43-6.5,64.8-7.73a147.62,147.62,0,0,1,34.87,2.1,88.48,88.48,0,0,1,13.55,3.34c5.6,2,9.41,5.45,14.3,8.55a2,2,0,0,0,2.73-.39,2,2,0,0,0,2.12-.12c4.21-2.67,7.6-5.83,12.29-7.75a77.89,77.89,0,0,1,15.55-4.14,146.17,146.17,0,0,1,34.88-2.11c21.81,1.23,42.82,8.41,64.8,7.73a1.74,1.74,0,0,0,0-3.48c-25.14-.14-48.95-10.07-74.14-10.36a139.37,139.37,0,0,0-34.53,3.81c-7.5,1.84-17.4,4.82-21.42,12-4-6.49-12.9-9.36-19.88-11.19a135.7,135.7,0,0,0-35.78-4.11c-25.19.29-49,10.21-74.14,10.35A1.75,1.75,0,0,0,356.65,190.61Z"/><path d="M233.2,267.1c14.49-7.47,28.6-14.57,43.68-20.87,13.12-5.48,25.75-11.5,37-20.35,1.77-1.39-.57-4.46-2.42-3.14-13.27,9.5-28.45,15.11-43.46,21.2-12.84,5.2-27.06,10.28-36.92,20.37A1.78,1.78,0,0,0,233.2,267.1Z"/><path d="M304.31,245.09c1.83-1.07.22-3.73-1.65-2.82-4.18,2-8.32,4.17-12.32,6.55-3.27,1.93-7.21,3.73-9.42,6.88-.84,1.18.53,2.59,1.76,2.3,3.76-.9,7.14-4,10.39-6.05C296.78,249.61,300.51,247.29,304.31,245.09Z"/><path d="M294,261.83c2.36-.06,4.36-1.76,6.22-3.07s4-2.93,5.87-4.48c1.73-1.41-.6-4.48-2.41-3.12s-3.89,2.85-5.92,4.16c-1.78,1.16-4.07,2.17-5.15,4.08A1.63,1.63,0,0,0,294,261.83Z"/><path d="M304.49,266a11.89,11.89,0,0,0,4-2.94l3.84-3.57c1.74-1.63-.84-4.17-2.6-2.61L306,260.2a12,12,0,0,0-3.27,3.53C302.22,264.84,303.1,266.5,304.49,266Z"/><path d="M344.13,248.92c-9.11,3-21.15,11.18-24.53,20.54a1.63,1.63,0,0,0,2.37,1.82c3.85-2.78,6.65-6.75,10.17-9.93,4.05-3.68,8.67-6.6,13.11-9.78C346.49,250.68,345.81,248.37,344.13,248.92Z"/><path d="M246.55,367.33a1.64,1.64,0,0,0,1.84-2.4c-2.77-4.1-6.74-7.14-9.6-11.23a48.43,48.43,0,0,1-7.32-16.59c-3.11-13.21-.8-26.86,3.81-39.43.62-1.68-2.13-2.85-2.92-1.23-6.35,13.11-9.23,27.62-5.85,42C229,349,235.65,363.51,246.55,367.33Z"/><path d="M263.07,331.65c-2.49-8.71-1.54-18.16.28-26.9a1.39,1.39,0,0,0-2.67-.74c-5.39,14.71-6.38,41.49,11.27,49.09,1.54.67,3.81-.84,2.6-2.6C270.18,344.14,265.28,339.37,263.07,331.65Z"/><path d="M264.6,323.48c1.19,7.16,4.83,18,12.16,21,1.72.71,2.71-1.47,2.13-2.77-1.41-3.19-4.37-5.7-6.19-8.71a35.3,35.3,0,0,1-4.21-10.61C267.89,319.84,264.18,321,264.6,323.48Z"/><path d="M286.39,321.84a0,0,0,0,0,0,.08A0,0,0,0,0,286.39,321.84Z"/><path d="M362.69,346.11c2-6,2.55-12.48,4.3-18.56a1.37,1.37,0,0,0-2.64-.73c-1.88,5.93-4.19,12.68-4,19A1.19,1.19,0,0,0,362.69,346.11Z"/><path d="M370.73,345.62c2.56-6.45,3.3-13.83,4.59-20.62.41-2.22-2.91-3.2-3.43-.95-1.58,6.87-3.9,14.09-4.14,21.17C367.69,347.05,370.14,347.11,370.73,345.62Z"/><path d="M376.06,358.37c3.37-10.33,4.65-21.55,6.64-32.21.44-2.35-3.13-3.37-3.61-1-2.19,10.79-5.24,21.82-6,32.81C373,359.74,375.55,359.93,376.06,358.37Z"/><path d="M388,356.55c3.95-8.64,5.09-19,6.91-28.25.52-2.68-3.59-3.82-4.11-1.13-1.83,9.36-5.11,19.11-5.48,28.65C385.26,357.19,387.38,357.86,388,356.55Z"/><path d="M398.6,352.61c3.88-9.66,8.64-20.28,9.82-30.71.21-1.91-2.47-1.88-3.08-.41-4,9.63-5.78,20.55-8.89,30.53C396,353.42,398.08,353.91,398.6,352.61Z"/><path d="M409.62,343.72q2.58-7.22,5.15-14.41c1.52-4.26,3.49-8.52,3.86-13.06.13-1.61-2-1.86-2.8-.75-2.6,3.72-3.77,8.39-5.31,12.64q-2.59,7.2-5.2,14.39C404.35,345.23,408.66,346.4,409.62,343.72Z"/><path d="M446.31,476.87c1-6.76-.41-13.93-2.11-20.47a1.35,1.35,0,0,0-2.61.72c1.58,6.55,1.77,13.13,2.73,19.75A1,1,0,0,0,446.31,476.87Z"/><path d="M463.76,700.5c6.64-.37,13.19-1.45,19.82-2a2.6,2.6,0,0,0,.5-.1c5.14.55,10.26,1.26,15.44,1.55,1.84.1,2.06-2.58.42-3.11-6.6-2.11-13.36-2.66-20.25-3a1.78,1.78,0,0,0-1.74.88,65.78,65.78,0,0,0-14.61,2.65C461.71,697.91,461.9,700.6,463.76,700.5Z"/><path d="M425.18,586.79c-.13-6.71.83-13.38,1.63-20,1.93-16.13,4.06-32.24,6.14-48.35.16-1.26-2-1.54-2.22-.3-3.71,17.63-6.71,35.45-8.81,53.35-1.38,11.71-3.35,28.48,6.12,37.56,1,1,3.13,0,2.54-1.48C427.8,600.57,425.33,594.47,425.18,586.79Z"/><path d="M435.08,566.14c.17-1.22-1.91-1.5-2.15-.29a94.74,94.74,0,0,0-1.83,26.61c.44,5.34,1.07,11,5.89,14,1.43.9,3-.85,2.23-2.23C433,592.85,433.4,578.69,435.08,566.14Z"/><path d="M451.45,458.59c-.17-.92-1.74-.72-1.65.23,2.41,25.09-.27,50.33-2.39,75.34-2,23.93-4.45,48.94,2.33,72.29.4,1.35,2.74,1.16,2.57-.35-2.82-25.17-2.31-49.76-.22-75C454.11,506.82,455.91,482.75,451.45,458.59Z"/><path d="M460.71,548.63c.24-1.75-2.86-2.18-3.11-.42-2.34,16.68-3.76,35.33,1.23,51.66a1,1,0,0,0,2-.28C460.31,582.3,458.38,566,460.71,548.63Z"/><path d="M463.3,583.63a89.09,89.09,0,0,1,1,11.76c.06,3.09-.39,6.22.36,9.24a.9.9,0,0,0,1.62.21c3.21-6.31,1.63-15.46.56-22.18C466.45,580.34,463,581.34,463.3,583.63Z"/><path d="M470.36,591c.75,3.84.61,7.78,1.41,11.59a1.25,1.25,0,0,0,2.4,0c1-4,.14-8.47-.76-12.43C473,588.18,470,589,470.36,591Z"/><path d="M343.34,516.19c-7.67-17.1-13.84-35.23-20.53-52.73-.55-1.45-2.87-.87-2.37.65,6,18.21,10.94,36.95,18.61,54.58,6.21,14.27,17.33,32,30.6,40.64a1.88,1.88,0,0,0,2.56-2.56c-3.7-6.24-9.44-11.28-14-16.94A109.69,109.69,0,0,1,343.34,516.19Z"/><path d="M345.28,504c4.32,12.19,10.07,28,20.26,36.5a1.77,1.77,0,0,0,2.77-2.13c-2.63-5.75-7.1-10.81-10.36-16.26a151.41,151.41,0,0,1-9.68-18.94C347.52,501.36,344.6,502,345.28,504Z"/><path d="M395.11,633.93c.07-11.36,2.62-22.53,3.45-33.83a147.62,147.62,0,0,0-10.35-65.56c-.73-1.85-3.69-1.14-3,.84a174.4,174.4,0,0,1,6.72,77.6c-2.23,16.84-6,44.1,11.49,54.88,1.56,1,3.66-1,2.59-2.58C399.14,655.19,395,646.43,395.11,633.93Z"/><path d="M414,659.16c-7-9.8-9.21-22.12-9.12-33.92,0-2.23-3.34-2.2-3.45,0-.69,13.59,1.83,27.1,9.86,38.35,5.73,8,15.77,16.66,26.24,16.08a1.64,1.64,0,0,0,.82-3C429.14,671.47,420.48,668.23,414,659.16Z"/><path d="M420.51,652.24a76.76,76.76,0,0,1-6.39-13.57c-.68-1.79-3.49-1.1-2.93.81,2.42,8.19,6.42,23.66,16.86,25.07a1.53,1.53,0,0,0,1.47-2.53C426.64,658.5,423,656.23,420.51,652.24Z"/><path d="M392.51,534.62c4,8.94,4.56,18.17,7.4,27.35a1.5,1.5,0,0,0,2.94-.4c.9-9.64-3.81-19.87-8-28.34C394.1,531.63,391.81,533,392.51,534.62Z"/><path d="M405.16,548.46c-.19-5.91-2.41-11.4-4.87-16.7-.73-1.56-3.44-.44-2.81,1.18,2,5.2,3.27,10.65,5.31,15.84C403.25,550,405.21,549.92,405.16,548.46Z"/><path d="M315.91,442.73c2.38-1.93,4.22-4.51,6.53-6.55a50,50,0,0,1,8-5.76,1.13,1.13,0,0,0-1.14-1.95c-5.5,2.7-12.54,7.1-15.19,12.89A1.13,1.13,0,0,0,315.91,442.73Z"/><path d="M326,439.7c.75-1.1-1-2.45-1.85-1.43-1.57,1.83-3.17,3.65-4.84,5.39s-3.55,3.09-4.62,5.06a1.21,1.21,0,0,0,1.64,1.63c2.13-1,3.75-3.19,5.26-4.93A64,64,0,0,0,326,439.7Z"/><path d="M315.46,431.88c4.57-1.68,8.4-4.9,12.78-7.05A57.81,57.81,0,0,1,346.93,419c1-.12,1.06-1.65,0-1.62-11,.36-26.38,2.49-32.95,12.59A1.32,1.32,0,0,0,315.46,431.88Z"/><path d="M371.61,385.52c-9.14-.36-19.79-1-28.52,2-1.91.67-2.34,3.86,0,4.33,7.3,1.43,14.91.22,22.31.14a137.52,137.52,0,0,1,28.22,2.14c15.42,3,30.25,9.69,41,21.45,1.44,1.58,3.67-.73,2.33-2.33C426.7,401,413.13,393.13,397.72,389.1A121.71,121.71,0,0,0,371.61,385.52Z"/><path d="M339.42,379.81c-1.79.73-1.85,4.06.51,3.77,18.41-2.24,35.47-5.07,54-1.82,1.84.32,2.67-2.4.79-2.86C377.17,374.63,356.59,372.8,339.42,379.81Z"/><path d="M336.65,376.61c3.57,0,7-1.52,10.4-2.47,3.83-1.07,7.67-2.08,11.56-2.91,1.53-.33,1.22-3-.38-2.79-6.9.9-16.53,1.43-22.23,5.76A1.31,1.31,0,0,0,336.65,376.61Z"/><path d="M445.81,708.36a35.94,35.94,0,0,0,10.36,4.41c1.89.48,3.31-2.43,1.38-3.27a53,53,0,0,1-8.95-4.91c-2.22-1.55-4.63-4.85-7.55-4.68a1.58,1.58,0,0,0-1.55,1.54C439.4,704.68,443.39,706.86,445.81,708.36Z"/><path d="M532.43,606.22c9.47-9.07,7.5-25.83,6.12-37.55-2.11-17.9-5.11-35.73-8.82-53.35-.26-1.23-2.38-1-2.22.3,2.09,16.11,4.21,32.22,6.15,48.35.79,6.65,1.75,13.32,1.62,20-.14,7.68-2.61,13.77-5.39,20.75C529.3,606.23,531.42,607.19,532.43,606.22Z"/><path d="M525.38,563.35c1.68,12.55,2.06,26.71-4.14,38.1a1.64,1.64,0,0,0,2.23,2.22c4.83-3,5.45-8.65,5.9-14a95.11,95.11,0,0,0-1.83-26.61C527.3,561.86,525.22,562.11,525.38,563.35Z"/><path d="M510.66,456a.84.84,0,0,0-1.64-.22c-4.46,24.16-2.66,48.23-.65,72.55,2.09,25.2,2.6,49.79-.22,75-.16,1.5,2.17,1.71,2.57.34,6.78-23.34,4.37-48.36,2.34-72.28C510.93,506.36,508.26,481.12,510.66,456Z"/><path d="M499.76,545.84c2.32,17.32.4,33.67-.15,51a1,1,0,0,0,2,.28c5-16.33,3.57-35,1.22-51.66C502.62,543.68,499.52,544.07,499.76,545.84Z"/><path d="M493.65,579.87c-1.07,6.72-2.65,15.87.57,22.18a.9.9,0,0,0,1.62-.21c.75-3,.3-6.14.35-9.24a89.1,89.1,0,0,1,1-11.76C497.51,578.55,494,577.55,493.65,579.87Z"/><path d="M487.05,587.38c-.9,4-1.79,8.42-.75,12.43a1.25,1.25,0,0,0,2.39,0c.8-3.81.66-7.75,1.41-11.59C490.49,586.24,487.51,585.38,487.05,587.38Z"/><path d="M637.66,460.66c-6.69,17.5-12.81,35.68-20.53,52.74a109,109,0,0,1-14,22.53c-4.81,6.07-10.94,11.4-14.89,18.05-.93,1.56,1,3.6,2.56,2.56,13.29-8.69,24.37-26.37,30.61-40.64,7.69-17.62,12.57-36.37,18.6-54.58C640.52,459.8,638.21,459.21,637.66,460.66Z"/><path d="M612.19,500.35a152.7,152.7,0,0,1-9.67,18.94c-3.26,5.45-7.73,10.51-10.36,16.26a1.77,1.77,0,0,0,2.76,2.13c10.19-8.49,15.94-24.31,20.26-36.51C615.86,499.25,613,498.57,612.19,500.35Z"/><path d="M572.26,531.74a147.54,147.54,0,0,0-10.35,65.57c.83,11.3,3.36,22.47,3.45,33.82.09,12.54-4,21.25-10.85,31.36-1.07,1.58,1,3.54,2.58,2.58,17.49-10.78,13.73-38.05,11.49-54.88a174.46,174.46,0,0,1,6.73-77.61C576,530.61,573,529.9,572.26,531.74Z"/><path d="M559,622.45c-.11-2.2-3.47-2.23-3.45,0,.09,11.82-2.19,24.09-9.13,33.92-6.41,9.08-15.11,12.31-24.34,17.47a1.64,1.64,0,0,0,.82,3c10.47.58,20.51-8,26.24-16.07C557.17,649.55,559.69,636,559,622.45Z"/><path d="M532.42,661.76c10.43-1.41,14.44-16.88,16.85-25.07.57-1.91-2.24-2.6-2.92-.81a77.14,77.14,0,0,1-6.4,13.57c-2.48,4-6.13,6.27-9,9.78A1.53,1.53,0,0,0,532.42,661.76Z"/><path d="M557.61,558.78a1.51,1.51,0,0,0,2.95.4C563.4,550,564,540.77,568,531.83c.7-1.59-1.58-3-2.37-1.39C561.43,538.9,556.72,549.14,557.61,558.78Z"/><path d="M560.18,529c-2.46,5.29-4.69,10.79-4.88,16.69,0,1.46,1.91,1.52,2.38.33,2-5.19,3.26-10.65,5.3-15.84C563.61,528.54,560.91,527.39,560.18,529Z"/><path d="M631.13,425.67c-1.29-.63-2.41,1.22-1.14,1.95a50.18,50.18,0,0,1,8,5.77c2.31,2,4.14,4.62,6.52,6.55a1.14,1.14,0,0,0,1.78-1.37C643.67,432.78,636.63,428.38,631.13,425.67Z"/><path d="M641.12,440.87c-1.67-1.75-3.27-3.57-4.85-5.39-.86-1-2.6.32-1.85,1.42a62.84,62.84,0,0,0,4.42,5.73c1.51,1.74,3.13,3.94,5.26,4.93a1.2,1.2,0,0,0,1.63-1.63C644.66,444,642.66,442.48,641.12,440.87Z"/><path d="M613.54,414.58c-1.06,0-1,1.5,0,1.61A58,58,0,0,1,632.22,422c4.38,2.15,8.21,5.37,12.79,7a1.32,1.32,0,0,0,1.47-1.92C639.92,417.07,624.5,414.94,613.54,414.58Z"/><path d="M525.86,412.81c10.73-11.77,25.57-18.41,41-21.45a134.58,134.58,0,0,1,26.66-2.16c7.89,0,16.09,1.4,23.86-.13,2.34-.46,1.92-3.65,0-4.32-8.74-3.07-19.35-2.38-28.51-2a122.25,122.25,0,0,0-26.11,3.58c-15.42,4-29,11.93-39.22,24.18C522.19,412.08,524.41,414.39,525.86,412.81Z"/><path d="M566.5,379c18.57-3.25,35.64-.42,54,1.82,2.34.29,2.32-3,.51-3.77-17.16-7-37.75-5.18-55.33-.92C563.83,376.56,564.65,379.29,566.5,379Z"/><path d="M601.86,368.43c3.89.84,7.72,1.84,11.55,2.92,3.41.95,6.84,2.47,10.4,2.46a1.3,1.3,0,0,0,.65-2.4c-5.69-4.34-15.32-4.87-22.22-5.77C600.65,365.44,600.31,368.1,601.86,368.43Z"/><path d="M504.29,710l.64-.19a1.92,1.92,0,0,0,2.17,2.47,36.28,36.28,0,0,0,10.37-4.41c2.43-1.52,6.41-3.67,6.31-6.91a1.59,1.59,0,0,0-1.55-1.55,4.18,4.18,0,0,0-1.36.19,3.51,3.51,0,0,0,.1-.92,1.59,1.59,0,0,0-1.55-1.55c-2.93-.17-5.33,3.13-7.56,4.69a52.19,52.19,0,0,1-8.95,4.91C501,707.54,502.39,710.46,504.29,710Z"/><path d="M652.92,339.41a1.16,1.16,0,0,0,2-1.18,183.12,183.12,0,0,0-79-73.77,1.37,1.37,0,0,0-1.38,2.37A255.09,255.09,0,0,1,652.92,339.41Z"/><path d="M665.59,701.28c-4,20.8-11.71,40.1-17.08,60.44a1.9,1.9,0,0,0,3.45,1.46c10.59-17.86,15.38-40.13,19.25-60.35a375.65,375.65,0,0,0,6.44-63.47c.87-46.1-5.24-92.66-16.57-137.29-.39-1.53-2.52-.85-2.3.63,6.64,44.86,13.82,89.65,13.06,135.16A371.79,371.79,0,0,1,665.59,701.28Z"/><path d="M658.81,686.05c8.41-41.83,8.62-84.54-2.16-125.94-.55-2.12-3.74-1.22-3.27.9,9.37,41.45,8.19,85.08-.69,126.49a401.84,401.84,0,0,1-16.8,56.56c-3.81,10.18-8,20.21-12.49,30.11-3.79,8.33-8.63,16.73-11,25.58-.42,1.56,1.76,3.08,2.88,1.68,11.8-14.66,18.57-35.5,25.25-53A389.94,389.94,0,0,0,658.81,686.05Z"/><path d="M650.85,613.56c.1-2.29-3.42-2.27-3.54,0-2,35.86-10.89,71.68-22.58,105.54-5.87,17-12.68,33.69-20.15,50.06Q599,781.3,593.07,793.23c-3.81,7.63-8.51,15.16-11.19,23.27-.73,2.18,2.54,4.29,4,2.35,10.66-13.75,17.55-32.09,24.67-47.89,7.42-16.43,14.2-33.17,20-50.23A378.55,378.55,0,0,0,650.85,613.56Z"/><path d="M625.3,681.25c.47-2.4-3.17-3.45-3.7-1-6.56,30-20,57.72-34.55,84.59-7.09,13-14.44,26-21.3,39.14-6.43,12.36-15,26.09-17.24,40a1.62,1.62,0,0,0,2.94,1.25c8.49-12.3,13.63-27.54,20.6-40.79,7.13-13.56,14.51-27,21.59-40.58C607.33,737.56,619.65,710.52,625.3,681.25Z"/><path d="M583.69,750.31a1.29,1.29,0,0,0-2.23-1.3c-11.19,18.86-22,37.88-31.68,57.54q-6.91,14-13.38,28.28c-3.88,8.56-9.23,17.89-10.31,27.33a1.71,1.71,0,0,0,2.89,1.2c5.79-7.41,8.53-17.14,12.24-25.72q6.54-15.09,13.6-29.95C564,788.36,573.44,769.1,583.69,750.31Z"/><path d="M549.67,782.34c-10.62,16.25-20.78,32.72-29.62,50q-6.43,12.6-12.2,25.54c-3.64,8.18-8.1,16.81-9.62,25.67-.33,2,2.2,3.27,3.34,1.41,4.67-7.62,7.28-16.64,10.75-24.85q5.73-13.61,12.3-26.83a504.32,504.32,0,0,1,27.66-49.43C553.35,782.22,550.73,780.71,549.67,782.34Z"/><path d="M512.73,819a166.66,166.66,0,0,0-19.94,38.95c-4.74,13.09-10.74,28.67-10.68,42.73a1.51,1.51,0,0,0,2.8.75c6.24-11.88,8-26.64,12-39.43,4.61-14.55,10.35-28.48,18.72-41.29C516.86,818.85,514,817.22,512.73,819Z"/><path d="M647,602.55c.2,1.7,2.91,2.48,3.3.45,3.66-19.19-5-40.75-11.73-58.34-.77-2-3.91-1.23-3.27.9,2.68,9,5.56,17.88,7.74,27C645.43,582.51,645.8,592.45,647,602.55Z"/><path d="M622.11,671.77c-.17,1.41,2,1.88,2.61.71,7.88-14.81,9.92-33.88,10.9-50.43A220.45,220.45,0,0,0,632.16,568c-.42-2.23-3.69-1.25-3.36.93a223.12,223.12,0,0,1,1.87,53.16C629.15,638.94,624.07,655.06,622.11,671.77Z"/><path d="M592,720.16c12.28-19.43,18.67-44,22.64-66.43a253.85,253.85,0,0,0,2.66-70.32c-.25-2.44-4.06-2.51-3.87,0a266.56,266.56,0,0,1-3.57,70.5c-4.33,22.8-13,43.35-20.54,65.12C588.77,720.65,591.15,721.52,592,720.16Z"/><path d="M560.9,759.5c8.13-11,12.89-25.72,17.75-38.43q7.46-19.52,13.23-39.61c7.74-27,12.68-54.61,15.86-82.46.25-2.18-3.17-2.16-3.42,0A477.35,477.35,0,0,1,587,681.67q-5.78,19.3-13.15,38.08c-5,12.77-12.33,25.25-16,38.48C557.36,760.14,559.84,760.93,560.9,759.5Z"/><path d="M529.66,792.38c9.56-13.66,15.09-31.66,21.34-47.1,6.79-16.78,12.62-33.9,18.5-51,.7-2-2.44-2.84-3.17-.87-6.13,16.51-13,32.75-19.66,49-6.51,15.82-15.95,32-20.16,48.61A1.73,1.73,0,0,0,529.66,792.38Z"/><path d="M531.66,746.75c-12.94,24.09-25.77,50-31.09,77a1.61,1.61,0,0,0,3.11.86c10.18-25.53,18.35-51.51,30.91-76.1C535.58,746.53,532.7,744.82,531.66,746.75Z"/><path d="M501.65,743.43c-9.95,13.3-13.88,33.2-17.65,49-.49,2.08,2.66,3,3.21.88,2.2-8.35,5-16.53,8-24.63s7.42-15.76,9.48-24A1.67,1.67,0,0,0,501.65,743.43Z"/><path d="M667.59,477.07A418.64,418.64,0,0,1,689,585.64a426.36,426.36,0,0,1-.06,52.78c-1.18,18.55-5,36.8-6.24,55.29-.11,1.73,2.37,1.88,2.89.39,5.72-16.55,7.24-35.28,8.53-52.67a394.2,394.2,0,0,0,.08-57.3,403.08,403.08,0,0,0-23-108.07C670.44,473.78,666.8,474.73,667.59,477.07Z"/><path d="M701.24,556.48a390.28,390.28,0,0,1,2.48,71.84,340,340,0,0,1-4,36.7c-1.9,11.49-5.29,22.83-6.53,34.4-.25,2.38,3.05,2.33,3.81.52,4.79-11.4,6.4-24.48,8.14-36.66q2.48-17.38,3.24-35A324.87,324.87,0,0,0,703,556.25C702.81,555.28,701.11,555.49,701.24,556.48Z"/><path d="M688.61,710.91c-7.2,15.92-14.82,31.64-22,47.6q-5.35,12-10.7,24c-3.15,7.11-7.11,14.27-8.8,21.9a2.06,2.06,0,0,0,3.75,1.58c4.87-7.1,7.64-15.88,11-23.8q4.59-10.89,9.17-21.79c6.77-16.1,13-32.4,19.73-48.53C691.31,710.59,689.17,709.68,688.61,710.91Z"/><path d="M648.24,771.93c-1.84,5.42-3.66,10.84-5.53,16.25-1.64,4.74-4,9.66-4.11,14.71a1.61,1.61,0,0,0,3,.81c2.9-4.12,3.85-9.59,5.31-14.37,1.66-5.46,3.38-10.92,5.08-16.37C652.72,770.57,649,769.58,648.24,771.93Z"/><path d="M727.71,597.13c1.47-26.86-.09-53.83-3.6-80.48-6.94-52.76-30-98.54-58.17-143a.84.84,0,0,0-1.45.85c11.32,21.74,23.34,43.19,33.17,65.66A272.9,272.9,0,0,1,718.77,517c3,24.51,4.56,49.28,3.6,74a328.21,328.21,0,0,1-3.75,39c-2.1,13.13-6.61,25.87-8.48,39-.3,2.07,2.58,3.82,3.71,1.56,5.49-10.9,7.53-24.08,9.62-36A315.94,315.94,0,0,0,727.71,597.13Z"/><path d="M736,521.14c1.61,29.07,3.61,58.66-.93,87.57C733,622,729.63,635,726.53,648.06s-8.8,27.76-8.73,41.24c0,1.62,2.4,2.42,3.19.86,6.06-12.06,7.49-27.61,10.53-40.72,3.27-14.1,6.8-28.18,8.76-42.54,3.9-28.53,1.66-57.23-.87-85.76C739.21,519,735.86,518.92,736,521.14Z"/><path d="M703.52,415.59c5.27,14.49,10.33,29.06,15,43.76,4.27,13.42,6.33,29.23,12.87,41.65a1.39,1.39,0,0,0,2.58-.7c-.13-14.34-7.06-30.12-11.45-43.66q-7-21.56-15.94-42.34C705.84,412.56,702.87,413.8,703.52,415.59Z"/><path d="M735.82,446.07c-6.34-14.43-13.45-28.48-16.94-43.94-.52-2.28-3.85-1.29-3.46.95,2.38,13.6,7.83,26,13.3,38.59a446.92,446.92,0,0,1,16,41.88,251.31,251.31,0,0,1,9.72,41.23c2.23,15.81,1.31,31.33,1.76,47.2a1.44,1.44,0,0,0,2.82.38c7.59-27.13.14-59.63-7.9-85.85A369.15,369.15,0,0,0,735.82,446.07Z"/><path d="M749.62,456.82c5.24,16.47,10.61,33,15.08,49.71,4.72,17.65,3.38,34.86,5.45,52.72.17,1.46,2.59,2.16,2.86.39,5.4-36.28-9.63-69.94-20.63-103.59C751.81,454.31,749.05,455.05,749.62,456.82Z"/><path d="M765.56,469.51c3.55,11.44,7,22.89,9.53,34.61,2.71,12.59,2.91,24.91,3.4,37.7.08,2.09,3.33,2.74,3.8.51,5.11-24.4-5.49-51.08-13.46-73.72C768.11,466.58,764.91,467.41,765.56,469.51Z"/><path d="M735.14,389.28c1.29,16.3,8.65,30.37,17.6,43.78,4.75,7.12,9.83,14,14.22,21.37,5,8.4,8.46,17.27,12.18,26.29.68,1.65,3.57,1.69,3.42-.46-1.06-15.5-11.42-29.11-20-41.41-10.61-15.13-21.93-30.69-24.12-49.57C738.17,387.24,735,387.16,735.14,389.28Z"/><path d="M745.37,385c3.66,34.18,38.75,53.78,42,88.4a1.82,1.82,0,0,0,3.64,0c4.64-35.22-37.09-55.22-41.53-88.4C749.18,382.36,745.08,382.26,745.37,385Z"/><path d="M760.78,361.66c0-2.31-3.5-2.3-3.58,0-.57,16.58,7.85,30.5,17.29,43.48,11.72,16.13,21.37,30.48,21.82,51.1a1.83,1.83,0,0,0,3.58.48c5.05-15.47-4-31.53-13-43.71C775.41,397.39,760.79,382.32,760.78,361.66Z"/><path d="M777.72,383.84c4.39,7.91,10.2,14.45,15.08,22,5.32,8.19,5.73,17.43,8.51,26.48a1.82,1.82,0,0,0,3.55-.48A51.6,51.6,0,0,0,798.92,407c-4.91-9-12.85-16.09-18.22-24.86A1.73,1.73,0,0,0,777.72,383.84Z"/><path d="M761.62,319.2c.57,9.71,3.71,18.56,7.9,27.27,4.8,9.95,9.24,19.93,13.71,30,.59,1.32,2.86.67,2.74-.74-1.72-20.44-18.9-36.4-21.69-56.92C764.08,317.33,761.53,317.69,761.62,319.2Z"/><path d="M755.57,295.6c3.73,5.44,7.18,11.74,12.18,16.09,1.15,1,3.55.06,2.86-1.67-2.48-6.16-7.15-11.43-11.06-16.74-4.43-6-9-11.91-13.54-17.82-1.21-1.58-3.91-.16-2.76,1.61C747.32,283.28,751.37,289.48,755.57,295.6Z"/><path d="M704.09,547.61c-.41-22.74-6.56-46.06-12.53-67.9-.61-2.23-4-1.29-3.46,1,5,22.28,7.57,45.22,13.1,67.33A1.48,1.48,0,0,0,704.09,547.61Z"/><path d="M586.78,293.23c-16.8-4.51-34.94-6.66-52.28-7.41a171.47,171.47,0,0,0-27,.79c-8.17.92-17.36,1.69-24.46,6.05a2,2,0,0,0-.75.87,2,2,0,0,0-.4-.35c-13.31-8.18-34.89-7.47-49.95-6.91-17.84.67-36.52,2.84-53.79,7.47-33.7,9-52,40.64-71.47,66.78-.85,1.14,1,2.61,2,1.53,21.11-24.48,38.72-55.18,72.34-63.35a248.69,248.69,0,0,1,49.44-6.37,184.12,184.12,0,0,1,25.51.77c8.31.86,16.63,3.72,25,3.75a1.84,1.84,0,0,0,1.73-1.16,1.79,1.79,0,0,0,1.4.64c7.87,0,15.64-2.73,23.47-3.6a183.86,183.86,0,0,1,25.49-1,246.91,246.91,0,0,1,51,6.41c33.62,8.16,51.23,38.87,72.34,63.35.92,1.06,2.83-.38,2-1.53C638.79,333.86,620.48,302.26,586.78,293.23Z"/><path d="M484.45,266.91c19.85-6.78,42.52-6,63.15-3.5,1.83.23,2.24-2.86.44-3.23a159.48,159.48,0,0,0-37.23-3.54c-9,.29-21.57-.05-28.21,7.09C481.38,265,482.56,267.56,484.45,266.91Z"/><path d="M526.3,216.61c-13.4,2.76-31.91,6.71-42.48,16.13-10.34-8.76-27.76-12.59-40.47-15.32a164.59,164.59,0,0,0-47.06-3.36,161.28,161.28,0,0,0-84.45,32c-1.59,1.19-.15,3.87,1.59,2.73,24.72-16.19,53.29-26.36,82.86-28.29a163.86,163.86,0,0,1,45.32,3.29,167.85,167.85,0,0,1,19.55,5.51c7.2,2.52,14.13,6.71,21.6,8.16a2.42,2.42,0,0,0,1.93-.51,2.28,2.28,0,0,0,.78,0c7.47-1.44,14.4-5.63,21.6-8.15A163.08,163.08,0,0,1,572,220c29.56,1.93,58.14,12.1,82.85,28.29,1.74,1.14,3.18-1.54,1.6-2.73a161.31,161.31,0,0,0-84.45-32A164.24,164.24,0,0,0,526.3,216.61Z"/><path d="M557.49,233.05a148.09,148.09,0,0,1,46.58,11.34c2.23,1,4.24-2.25,1.95-3.34a147.15,147.15,0,0,0-44.19-13.33c-15-2-34-3.15-48.35,2.77-2.37,1-2.35,4.87.65,4.81C528.76,235,542.7,232,557.49,233.05Z"/><path d="M649.42,225.37c11.22,8.85,23.86,14.87,37,20.35,15.08,6.3,29.18,13.4,43.67,20.87a1.79,1.79,0,0,0,2.16-2.79c-9.87-10.11-24.07-15.16-36.93-20.38-15-6.09-30.19-11.69-43.45-21.19C650,220.92,647.64,224,649.42,225.37Z"/><path d="M659,244.57c3.8,2.21,7.52,4.53,11.24,6.87,3.25,2,6.62,5.15,10.38,6,1.23.29,2.6-1.12,1.77-2.3-2.21-3.13-6.17-5-9.42-6.88-4-2.37-8.15-4.5-12.33-6.54C658.75,240.85,657.13,243.51,659,244.57Z"/><path d="M657.23,253.77c1.91,1.55,3.86,3,5.87,4.48,1.85,1.31,3.86,3,6.21,3.06a1.62,1.62,0,0,0,1.4-2.42c-1.09-1.92-3.37-2.92-5.16-4.08q-3-2-5.92-4.16C657.85,249.3,655.48,252.34,657.23,253.77Z"/><path d="M650.94,259l3.84,3.58a11.9,11.9,0,0,0,4,2.93c1.39.5,2.26-1.16,1.74-2.27-.69-1.49-2.06-2.47-3.26-3.54l-3.72-3.3C651.79,254.82,649.2,257.36,650.94,259Z"/><path d="M641.31,270.77a1.63,1.63,0,0,0,2.37-1.82c-3.38-9.36-15.44-17.56-24.53-20.54-1.67-.55-2.38,1.75-1.12,2.65,4.43,3.18,9.06,6.1,13.11,9.77C634.65,264,637.46,268,641.31,270.77Z"/><path d="M728,297.17c4.62,12.57,6.93,26.21,3.82,39.43a48.39,48.39,0,0,1-6.64,15.53c-3,4.56-7.27,7.84-10.29,12.29a1.64,1.64,0,0,0,1.84,2.39c10.92-3.82,17.58-18.35,20-28.85,3.38-14.4.49-28.92-5.86-42C730.13,294.33,727.36,295.46,728,297.17Z"/><path d="M702.6,303.5a1.39,1.39,0,0,0-2.68.74c1.82,8.74,2.78,18.19.28,26.9-2.2,7.72-7.1,12.49-11.48,18.85-1.21,1.75,1.06,3.27,2.61,2.6C709,345,708,318.2,702.6,303.5Z"/><path d="M698.68,323c.42-2.51-3.3-3.65-3.89-1.07a35.67,35.67,0,0,1-4.21,10.61c-1.83,3-4.78,5.51-6.2,8.71-.57,1.29.43,3.47,2.13,2.77C693.85,341,697.48,330.13,698.68,323Z"/><path d="M687.55,330.67a37.92,37.92,0,0,0,4.7-8.79c.83-2.14-2.67-3.6-3.72-1.56a43.55,43.55,0,0,1-5,7.78c-1.6,1.92-4.43,3.74-4.46,6.41a1.8,1.8,0,0,0,1.76,1.76C683.79,336.47,686,332.8,687.55,330.67Z"/><path d="M684.56,324.09c2.11-2.07-1.14-5.32-3.24-3.24-1.23,1.22-2.48,2.42-3.69,3.66s-2.41,2.51-2.09,4.3a1.36,1.36,0,0,0,1,1c1.78.35,3.13-.91,4.34-2S683.33,325.3,684.56,324.09Z"/><path d="M676.89,321.33a0,0,0,1,0,0,.08A0,0,0,0,0,676.89,321.33Z"/><path d="M671.72,302.28a39.17,39.17,0,0,0-4.86,2.29c-1.43.83-3.29,1.76-4.07,3.28A2,2,0,0,0,665,310.7c1.44-.27,2.64-1.41,3.89-2.13a30.1,30.1,0,0,1,4-2C675.56,305.55,674.39,301.21,671.72,302.28Z"/><path d="M519.07,455.89c-1.69,6.53-3.12,13.71-2.11,20.46a1,1,0,0,0,2,0c1-6.62,1.15-13.19,2.74-19.74A1.36,1.36,0,0,0,519.07,455.89Z"/><path d="M506.41,715.74c-9.6,2.22-19.46,2.79-29.27,3.26a129.12,129.12,0,0,1-20.27-2.74,47.78,47.78,0,0,1-14.2-5.41c-4.41-2.68-7.35-6.43-11.34-9.54-1.47-1.15-4-.16-3.37,2,2.62,9.08,13.14,14.47,21.48,17.22,11.68,3.85,25,3.86,37.34,2.89,9.23.16,18.57-.61,27.05-3.4s18.87-8.14,21.49-17.22c.61-2.12-1.9-3.11-3.37-2-3.61,2.81-6.42,6.41-10.3,8.92A47.08,47.08,0,0,1,506.41,715.74Z"/><path d="M427.5,361c6.76-17.23,17-30.43,27.42-45.42.92-1.31-1-2.5-2.07-1.6-13.65,11.44-22.5,29.69-27.9,46.31C424.42,361.94,426.89,362.55,427.5,361Z"/><path d="M427.16,341c4.34-8,10.31-15.23,14.33-23.36a1,1,0,0,0-1.49-1.15c-6.81,6-11.2,15.21-14.93,23.29C424.43,341.19,426.41,342.41,427.16,341Z"/><path d="M424.48,330.23c2.78-3.42,6.25-7.7,6.92-12.18a1.35,1.35,0,0,0-2.45-1,46.54,46.54,0,0,0-3.13,5.88,58,58,0,0,1-3.44,5.71C421.53,329.84,423.52,331.41,424.48,330.23Z"/><path d="M422.05,324.66a41,41,0,0,0,3-5.7c.37-.93-1.07-1.74-1.7-1a40.47,40.47,0,0,0-3.6,5.36A1.31,1.31,0,0,0,422.05,324.66Z"/><path d="M467.59,324.42c-9.82,17.15-18.94,34.93-25.65,53.55a.84.84,0,0,0,1.53.65c8.76-17.67,16.9-35.61,25.93-53.14C470,324.28,468.26,323.24,467.59,324.42Z"/><path d="M456.27,358.17c-2.93,9.26-6.6,18.61-8.27,28.2-.18,1,1.33,1.89,1.83.77,4-9,6.19-18.86,8.93-28.29A1.29,1.29,0,0,0,456.27,358.17Z"/><path d="M457.68,375.11c-.85,5.36-2.22,10.92-2.17,16.36a1.11,1.11,0,0,0,2.18.29c1.66-5.05,2.05-10.62,2.85-15.86C460.83,374,458,373.23,457.68,375.11Z"/><path d="M460.35,385.6c-.17,3.29-.93,7.16-.19,10.38a1.09,1.09,0,0,0,2.09,0c1.09-3.12.74-7.1.94-10.38C463.29,383.78,460.44,383.78,460.35,385.6Z"/><path d="M170.23,641.66c-5.34-.91-10.71-.84-16.12-1-2.64-.09-5.32-.36-8-.49a7.43,7.43,0,0,0-4.9-6c-.14-2.31-.35-4.61-.43-6.89-.19-5.4-.13-10.78-1-16.12a.85.85,0,0,0-1.62,0c-.9,5.34-.84,10.72-1,16.12-.08,2.2-.28,4.42-.42,6.65a7.39,7.39,0,0,0-5.79,6.24c-2.38.14-4.77.36-7.13.44-5.4.2-10.77.13-16.12,1a.84.84,0,0,0,0,1.61c5.35.91,10.72.85,16.12,1,2.48.08,5,.32,7.48.46a7.21,7.21,0,0,0,5.37,4.86c.12,2.67.39,5.36.49,8,.19,5.41.13,10.78,1,16.12a.85.85,0,0,0,1.62,0c.9-5.34.84-10.71,1-16.12.1-2.73.39-5.51.5-8.27a7.2,7.2,0,0,0,4.47-4.56c2.79-.11,5.6-.4,8.36-.5,5.41-.19,10.78-.13,16.12-1A.84.84,0,0,0,170.23,641.66Z"/><path d="M449.87,106.29c5.34.9,10.71.84,16.12,1,2.47.09,5,.33,7.47.46a7.25,7.25,0,0,0,5.37,4.86c.12,2.67.4,5.36.49,8,.19,5.41.13,10.78,1,16.12a.85.85,0,0,0,1.62,0c.91-5.34.84-10.71,1-16.12.1-2.73.39-5.5.51-8.26a7.3,7.3,0,0,0,4.47-4.56c2.79-.12,5.59-.41,8.36-.51,5.4-.19,10.77-.13,16.12-1a.85.85,0,0,0,0-1.62c-5.35-.9-10.72-.84-16.12-1-2.65-.1-5.33-.37-8-.49a7.46,7.46,0,0,0-4.91-6c-.14-2.3-.35-4.61-.43-6.89-.19-5.4-.12-10.77-1-16.12a.85.85,0,0,0-1.62,0c-.9,5.35-.84,10.72-1,16.12-.08,2.2-.28,4.43-.41,6.65a7.42,7.42,0,0,0-5.8,6.24c-2.38.14-4.77.36-7.12.45-5.41.19-10.78.13-16.12,1A.85.85,0,0,0,449.87,106.29Z"/><path d="M892.36,534.15c-5.35-.9-10.72-.84-16.12-1-2.65-.09-5.33-.36-8-.49a7.45,7.45,0,0,0-4.91-6c-.14-2.31-.35-4.61-.43-6.89-.19-5.41-.13-10.78-1-16.12a.85.85,0,0,0-1.62,0c-.9,5.34-.84,10.71-1,16.12-.08,2.2-.28,4.42-.41,6.65a7.41,7.41,0,0,0-5.8,6.24c-2.38.14-4.77.36-7.12.44-5.41.19-10.78.13-16.12,1a.84.84,0,0,0,0,1.62c5.34.91,10.71.84,16.12,1,2.47.09,5,.33,7.47.47a7.22,7.22,0,0,0,5.37,4.85c.12,2.68.4,5.37.49,8,.19,5.4.13,10.77,1,16.12a.85.85,0,0,0,1.62,0c.9-5.35.84-10.72,1-16.12.1-2.74.39-5.51.51-8.27a7.24,7.24,0,0,0,4.46-4.56c2.8-.11,5.6-.41,8.37-.51,5.4-.19,10.77-.12,16.12-1A.85.85,0,0,0,892.36,534.15Z"/><path d="M791.17,698.4a14.43,14.43,0,1,0,14.43,14.42A14.44,14.44,0,0,0,791.17,698.4Zm0,23.9a9.48,9.48,0,1,1,9.47-9.48A9.49,9.49,0,0,1,791.17,722.3Z"/><path d="M691.47,189.17A14.43,14.43,0,1,0,677,174.74,14.44,14.44,0,0,0,691.47,189.17Zm0-23.9a9.48,9.48,0,1,1-9.48,9.47A9.48,9.48,0,0,1,691.47,165.27Z"/><path d="M347.7,872a14.43,14.43,0,1,0,14.43,14.43A14.44,14.44,0,0,0,347.7,872Zm0,23.9a9.47,9.47,0,1,1,9.48-9.47A9.48,9.48,0,0,1,347.7,895.86Z"/><path d="M293.53,146.32a14.43,14.43,0,1,0-14.43-14.43A14.45,14.45,0,0,0,293.53,146.32Zm0-23.9a9.47,9.47,0,1,1-9.47,9.47A9.48,9.48,0,0,1,293.53,122.42Z"/></svg>