<svg id="Layer_1" data-name="Layer 1" xmlns="http://www.w3.org/2000/svg" viewBox="0 0 1000 1000"><defs><style>.cls-1{fill:#ea116d;}.cls-2{fill:#de8c72;}</style></defs><title>Libra</title><path class="cls-1" d="M265.07,718.31c35.07,0,64.88-17.73,75.29-42.22H189.77C200.18,700.58,230,718.31,265.07,718.31Zm-24.15-31c-11.06,2.28-23.82.73-35.06.28a1.74,1.74,0,0,1,0-3.47c11.23-.45,24-2,35.06.28A1.52,1.52,0,0,1,240.92,687.3Zm86.3-7.39c1.39-1.81,4.85-.88,4,1.69-4.15,12.68-19.31,19.84-30.71,24.56a103.24,103.24,0,0,1-47.29,7.9,1.35,1.35,0,0,1,0-2.7C280.23,709.72,310.09,702.14,327.22,679.91Zm-124-1.24c13.65-1.26,27.38-1.29,41.07-1.41,12.5-.11,25.54-1.11,37.91,1a1.63,1.63,0,0,1,0,3.12c-12.37,2.07-25.39,1.07-37.91,1-13.69-.13-27.42-.15-41.07-1.42A1.11,1.11,0,0,1,203.26,678.67Z"/><path class="cls-1" d="M604.79,812.17l-12.3-2c1.58,4,.69,8.15-5.15,12-8.29,5.43-19.77,8.5-29.16,11.13a182.37,182.37,0,0,1-29.78,5.67c-20.73,2.22-41.16-2-61.85.34-20.41,2.28-41.79-.5-61.43-6.25-8.58-2.52-37.08-8.45-33.51-22.12.05-.19.13-.38.19-.57l-13.5,2.25c-2.65.44-7.32.33-9.64,1.83-9.23,5.94-1.06,10.84,2.66,13.45,12.46,8.76,27.17,14.6,41.59,19.17A217.53,217.53,0,0,0,440,856.37c15.32,1.3,30.31-.9,45.55-.41s30,1.44,45.28-.29a218.12,218.12,0,0,0,47.37-10.89c12.78-4.47,31-10.64,40.39-21.15C626.25,815,610,813,604.79,812.17ZM432.18,848.45c-14.84,3.38-34-2.49-47.77-7.72-12-4.53-24.93-9.66-30.22-22.18-.7-1.67,1.65-3.18,2.52-1.47,6.31,12.36,23.1,16.76,35.42,20.26,13.11,3.72,27.21,3.61,40.05,7.59C433.82,845.44,434,848,432.18,848.45ZM604.1,820.23c-3.51,10.37-17.75,14.42-27.11,17.6-14.84,5-29.79,7.29-45.37,8.44-1.47.11-1.8-2.37-.35-2.59a253.73,253.73,0,0,0,38-9.16c6.5-2,13.16-4.08,19.27-7.15,4.84-2.43,8.51-6.18,13-9.11A1.76,1.76,0,0,1,604.1,820.23Z"/><path class="cls-1" d="M620.13,676.09c10.41,24.49,40.22,42.23,75.3,42.23s64.88-17.74,75.29-42.23Zm54,11.85c-11.06,2.28-23.82.73-35.06.28a1.74,1.74,0,0,1,0-3.47c11.23-.45,24-2,35.06.28A1.52,1.52,0,0,1,674.13,687.94Zm-37.65-6.42a1.11,1.11,0,0,1,0-2.21c13.64-1.26,27.37-1.29,41.06-1.41,12.5-.11,25.54-1.11,37.92,1a1.63,1.63,0,0,1,0,3.12c-12.38,2.07-25.4,1.07-37.92,1C663.85,682.81,650.11,682.79,636.48,681.52Zm97.25,25.28a103.38,103.38,0,0,1-47.29,7.91,1.36,1.36,0,0,1,0-2.71c27-1.63,56.86-9.22,74-31.45,1.39-1.81,4.85-.88,4,1.69C760.29,694.93,745.13,702.08,733.73,706.8Z"/><path class="cls-1" d="M426.1,270.34l.24-.35,3,.2c.37,0,.75.05,1.14.05H531.16l.18.27c50.57-.79,97.62-2.81,135.77-5.89,58.5-4.72,75.34-10.15,80.09-12.55-4.75-2.4-21.59-7.83-80.09-12.55-50-4-115.19-6.26-183.64-6.26s-133.68,2.22-183.65,6.26c-58.5,4.72-75.34,10.15-80.09,12.55,4.75,2.4,21.59,7.83,80.09,12.55C335.57,267.51,379.14,269.46,426.1,270.34Zm247-9.73c-12,1.56-24.45.8-36.54.79s-24.42.23-36.53-.93a1.46,1.46,0,0,1,0-2.91c12.11-1.17,24.38-.93,36.53-.94s24.53-.77,36.54.8A1.6,1.6,0,0,1,673.13,260.61ZM607.28,240c13.4-.71,28.65-2.23,41.89.26a1.15,1.15,0,0,1,0,2.2c-13.23,2.48-28.48,1-41.89.25A1.36,1.36,0,0,1,607.28,240ZM585,248.63c21.08-.7,42.16-.84,63.25-.84,20.79,0,42.6-1.81,63.24.82a1.74,1.74,0,0,1,0,3.48c-20.63,2.63-42.45.82-63.24.82-21.09,0-42.17-.14-63.25-.84A1.72,1.72,0,0,1,585,248.63Zm-209.66.73c30.1-2.75,61.11-1,91.32-1.05l44.76-.13c14.38,0,29.2-1.05,43.45,1,1.73.25,1.73,3.24,0,3.49-14.24,2.05-29.08,1-43.45,1l-44.76-.13c-30.21-.09-61.22,1.7-91.32-1A1.57,1.57,0,0,1,375.38,249.36Zm-53.9-9.67c13.39-1,27.44-1.52,40.81-.13a1.55,1.55,0,0,1,0,3.09c-13.37,1.4-27.43.87-40.81-.12A1.42,1.42,0,0,1,321.48,239.69Zm-67,11.29a1.47,1.47,0,0,1,0-2.81c16.21-2.44,33.29-1.09,49.65-1.09,17.49,0,35.4-1.07,52.78,1a1.48,1.48,0,0,1,0,3c-17.39,2.1-35.28,1-52.78,1C287.78,252.07,270.66,253.43,254.47,251Zm26.58,6.79c13.78-.48,27.59-.5,41.38-.54,12.55,0,25.85-1.36,38.24.87a1.15,1.15,0,0,1,0,2.2c-12.37,2.24-25.71.91-38.24.88-13.79,0-27.6-.07-41.38-.54A1.44,1.44,0,0,1,281.05,257.77Z"/><path class="cls-2" d="M242,800.16a10.3,10.3,0,1,0,10.3,10.3A10.31,10.31,0,0,0,242,800.16Z"/><path class="cls-2" d="M482.43,168A12.45,12.45,0,1,0,470,155.5,12.46,12.46,0,0,0,482.43,168Zm3.63-22.09c2.69,2.34,5.21,5.47,5.49,9.17.21,2.8-1.13,7-4.31,7.44-.87.13-2-.58-1.62-1.62.94-2.39,2.93-3.8,2.32-6.7-.53-2.53-2.55-4.59-4-6.63C482.94,146.18,485,144.91,486.06,145.86Z"/><path class="cls-2" d="M697.51,789.22a10.3,10.3,0,1,0,10.3,10.3A10.32,10.32,0,0,0,697.51,789.22Z"/><path class="cls-2" d="M159.72,441.61A10.31,10.31,0,1,0,170,451.92,10.32,10.32,0,0,0,159.72,441.61Z"/><path class="cls-2" d="M490.07,195V175.51a21.16,21.16,0,0,1-14.32.35v18.47l1.57,0c1.44,0,2.86,0,4.26.08-.39-4.55.14-9.38.25-13.74a1.76,1.76,0,0,1,3.51,0c.1,4.42.65,9.33.23,13.93Q487.85,194.73,490.07,195Z"/><path class="cls-2" d="M589.23,147.86a10.31,10.31,0,1,0,10.3,10.3A10.31,10.31,0,0,0,589.23,147.86Z"/><path class="cls-2" d="M431.21,279.43a6.25,6.25,0,0,0-.35,2c0,8.9,19.63,18.81,47.8,18.81s47.79-9.91,47.79-18.81a6.15,6.15,0,0,0-.3-1.83q-21,.29-42.68.29C465.72,279.86,448.24,279.71,431.21,279.43Zm73.71,13c-4.45,1.38-9.24.85-13.86.8-5.25-.06-10.5-.23-15.76-.4a1.67,1.67,0,0,1,0-3.33c5.26-.17,10.51-.34,15.76-.4,4.6-.05,9.43-.57,13.86.79A1.33,1.33,0,0,1,504.92,292.43Zm13.91-9.27a1.52,1.52,0,0,1,0,2.91c-9.07,2.13-19.19.86-28.49.83-10.53,0-21.06-.12-31.59-.37a1.91,1.91,0,0,1,0-3.82c10.53-.26,21.06-.35,31.59-.38C499.6,282.3,509.79,281.05,518.83,283.16Z"/><path class="cls-2" d="M524.72,224.28a6.24,6.24,0,0,0,.4-2.17c0-8.9-19.63-18.81-47.8-18.81s-47.79,9.91-47.79,18.81a6.28,6.28,0,0,0,.4,2.17Zm-9.6-5.78c-11,2.49-24.58,1.05-35.77-.06a1.21,1.21,0,0,1,0-2.42c11.17-1.1,24.73-2.54,35.77-.06A1.33,1.33,0,0,1,515.12,218.5ZM466.64,210c11.44-1,23.62-1.7,35-.3a1.37,1.37,0,0,1,0,2.74c-11.42,1.4-23.6.71-35-.3A1.07,1.07,0,0,1,466.64,210Z"/><path class="cls-2" d="M581.15,809.43a13.85,13.85,0,0,0-1.31-1.7,3.37,3.37,0,0,1-1.39-1.44c-3.16-3-7.58-6-10.25-8.42q-4.83-4.43-9.58-8.94c-26.13-25-50.84-54.29-59.83-90.11-5.13-20.44-4.5-42-5-62.88Q493,603,492.4,570q-2.52-130.63-2.9-261.3-5.25.46-10.84.47c-1.14,0-2.27,0-3.39-.05Q474.8,456.58,471.69,604c-.85,39.48,2.81,81.91-14.26,118.62-7.58,16.3-18.24,31-30.07,44.51-6.71,7.64-13.85,14.9-21.21,21.93q-5.37,5.12-10.87,10.11c-2.74,2.5-6.44,5-9.34,7.83a3.32,3.32,0,0,1-.53.53,22.29,22.29,0,0,0-1.8,2c-4.65,6.11,3.38,7.48,8.68,9.58q6.73,2.67,13.68,4.76a166,166,0,0,0,30.41,6.23c19.67,2.06,38.95-2.1,58.58-.22a166.21,166.21,0,0,0,64.1-6.25,154.79,154.79,0,0,0,18.08-6.55c1.12-.5,5.18-1.82,5.67-2.73C584.7,810.79,582.38,811.35,581.15,809.43ZM489.63,651.67c.78,10.59,3,21.89,2.13,32.47a1.43,1.43,0,0,1-2.79.38c-2.79-9.85-2.58-21-3.24-31.14-.74-11.4-1.13-22.82-1.43-34.25-.05-2.11,3.17-2.08,3.27,0C488.11,630,488.83,640.83,489.63,651.67ZM484,324.86a1.29,1.29,0,0,1,2.57,0c.25,12.08,1,24.33-.07,36.38a1.21,1.21,0,0,1-2.42,0C483,349.19,483.79,336.94,484,324.86Zm-1.2,125.91a1.72,1.72,0,0,1,3.44,0c.63,24.93.51,49.86.46,74.79s.68,50.05-1,74.8a1.2,1.2,0,0,1-2.39,0c-1.67-24.75-.93-50-1-74.8S482.19,475.7,482.83,450.77Zm-2.12,309c-2-2.71-2.88-6.28-3.88-9.49-1.13-3.59-2.24-7.19-3.36-10.78-.73-2.32,2.76-3.19,3.59-1l4,10.61c1.18,3.18,2.64,6.41,2.67,9.85C483.71,760.68,481.61,760.94,480.71,759.76ZM477,721a1.88,1.88,0,0,1,3.62-1c3.28,11.54,9.24,24.59,9.65,36.64a1.5,1.5,0,0,1-2.78.75C481.22,747.16,479.52,732.55,477,721Zm16.7,104.24c-1.82-1.33-2.53-3.38-3.49-5.37-1-2.17-2-4.37-2.94-6.57s2-4,3.24-1.9,2.43,4.1,3.58,6.2c1,1.89,2.42,3.82,2.43,6C496.49,824.93,494.84,826.11,493.66,825.24Zm11.82,1.18c-4.51-2.24-6.79-8.48-9-12.75-2.88-5.48-5.51-11-9.22-16-1.26-1.69,1.56-3.82,2.89-2.23a93.58,93.58,0,0,1,9.59,14.15c2.57,4.51,7.24,9.9,8.14,15A1.63,1.63,0,0,1,505.48,826.42Zm21.1-1.36c-3-.77-5.26-3.85-7.09-6.22a93.35,93.35,0,0,1-6.15-9.25c-1-1.69,1.47-3,2.58-1.51a80.57,80.57,0,0,0,7,8.14c2,2.08,4.69,4.18,5.54,7A1.51,1.51,0,0,1,526.58,825.06Zm14.34-4.22c-5.92-1.11-11.63-8-15.63-12.11A107,107,0,0,1,512.42,792c-.9-1.4,1.23-3.06,2.31-1.78A171.61,171.61,0,0,0,529,805c4.32,4,11.38,7.77,14.13,13A2,2,0,0,1,540.92,820.84Zm13.66-2c-10.7-5.83-19.88-17.15-27.65-26.36a127.27,127.27,0,0,1-20.22-31.83c-.67-1.51,1.48-2.86,2.27-1.33,6,11.65,14.45,22.42,23.62,31.73,8,8.14,18.56,15.31,25,24.79C558.87,817.79,556.39,819.88,554.58,818.89Zm12.78-3.08c-9.7-7.43-17.9-17.19-26.4-25.95-7.31-7.54-14.64-15-21-23.4a148.93,148.93,0,0,1-26.6-58.06,1.37,1.37,0,0,1,2.64-.73,161.46,161.46,0,0,0,29.6,58.19c13.54,16.81,31.73,29.85,44.5,47.21C571.25,814.64,568.93,817,567.36,815.81Z"/><path class="cls-2" d="M797.21,459.81a10.3,10.3,0,1,0,10.3,10.3A10.31,10.31,0,0,0,797.21,459.81Z"/><path class="cls-2" d="M186.92,667.1h156.3a49.71,49.71,0,0,0,1-7.44H185.89A47.24,47.24,0,0,0,186.92,667.1Z"/><path class="cls-2" d="M617.28,667.1h156.3a48.44,48.44,0,0,0,1-7.44H616.25A47.24,47.24,0,0,0,617.28,667.1Z"/><path d="M783.45,650.67h-6.86a4.5,4.5,0,0,0,.06-2.23L694.21,273.86v-2.73c15.77-1.7,28.72-3.57,38.62-5.59,17.83-3.64,24.78-7.42,24.78-13.47s-7-9.83-24.78-13.47c-13.75-2.81-33.37-5.33-58.3-7.48-39-3.37-87.7-5.57-140.66-6.43a16.06,16.06,0,0,0,.23-2.58c0-12-14.09-21.82-35.05-25.83V169.87a4.66,4.66,0,0,0-.08-.76,21.45,21.45,0,1,0-32.2,1v24.67c-27,2.29-46.22,13.28-46.22,27.35a14.7,14.7,0,0,0,.29,2.8c-48.22,1-92.5,3.11-128.43,6.21-24.94,2.15-44.56,4.67-58.31,7.48-17.83,3.64-24.78,7.42-24.78,13.47s7,9.83,24.78,13.47c8.52,1.74,19.3,3.37,32.19,4.87v3.45q-41.24,187.29-82.45,374.58a4.5,4.5,0,0,0,.06,2.23H177l-.17,4.84c0,.48,0,1,0,1.45,0,38.79,39.58,70.34,88.24,70.34,41.44,0,76.28-22.9,85.71-53.65a4.9,4.9,0,0,0,.39-1.37A56.68,56.68,0,0,0,353.31,657c0-.48,0-1,0-1.42l-.17-4.87h-8.05q-34.38-188.25-68.74-376.49a5.48,5.48,0,0,0-.29-1l-.06-.81.09-.9q7.76.79,16.36,1.54c36.23,3.13,80.95,5.26,129.64,6.23a15.57,15.57,0,0,0-.17,2.15c0,13.75,18.39,24.56,44.41,27.18q-.44,138.8-3.22,277.57-.7,34.73-1.55,69.44c-.59,22.79-3,44.45-13.14,65.17-9.27,18.93-22.59,35.51-37.17,50.61-6.76,7-13.83,13.68-21,20.24-2.74,2.52-6.67,5.24-10.24,8.26l-24.06,4c-5.34.89-11.4,1.37-15.83,4.82-8.68,6.75-4.87,17.85,2.5,23.85,23.45,19.06,57.72,27.86,87,31.67,16,2.09,31.82,2.07,47.92,1s32,1.39,48.18-.05c31.08-2.76,63.21-11.32,89.8-28.08,7.88-5,20.41-15.17,12.23-25.27-3.37-4.16-8.81-6.08-13.86-7.19-9.84-2.14-20-3.34-29.94-5-2.9-2.57-5.91-4.94-8.11-6.94-15.7-14.33-31.1-29.27-43.74-46.43-12.24-16.62-22-35.34-26-55.75-4.44-23-3.19-47.3-3.71-70.6q-3.5-156.15-3.94-312.33c22-3.77,37-13.78,37-26.18a14.53,14.53,0,0,0-.16-2c52.42-.87,100.64-3.07,139.25-6.41,3.43-.3,6.75-.6,10-.91l0,.27c0,.27,0,.54-.07.81a4.77,4.77,0,0,0-.28,1q-34.38,188.25-68.75,376.49h-8l-.17,4.84c0,.48,0,1,0,1.45a56.67,56.67,0,0,0,2.13,15.32,4.75,4.75,0,0,0,.4,1.38c9.43,30.75,44.27,53.64,85.71,53.64,48.65,0,88.24-31.55,88.24-70.34,0-.48,0-1,0-1.45Zm-15.5,0H733.7q-16-150.37-31.94-300.75Q734.85,500.3,768,650.67Zm-43.23,0H694.21V363.42ZM482.43,143.05A12.45,12.45,0,1,1,470,155.5,12.47,12.47,0,0,1,482.43,143.05Zm2.91,37.6a1.76,1.76,0,0,0-3.51,0c-.11,4.36-.64,9.19-.25,13.74-1.4,0-2.82-.08-4.26-.08l-1.57,0V175.86a21.16,21.16,0,0,0,14.32-.35V195q-2.22-.24-4.5-.39C486,190,485.44,185.07,485.34,180.65Zm-8,22.65c28.17,0,47.8,9.91,47.8,18.81a6.24,6.24,0,0,1-.4,2.17H429.93a6.28,6.28,0,0,1-.4-2.17C429.53,213.21,449.16,203.3,477.32,203.3ZM258.74,349.92l-32,300.75H192.54Q225.65,500.29,258.74,349.92Zm7.55,13.5V650.67H235.77Q251,507,266.29,363.42Zm-1.22,354.89c-35.08,0-64.89-17.73-75.3-42.22H340.36C330,700.58,300.14,718.31,265.07,718.31Zm78.15-51.21H186.92a47.24,47.24,0,0,1-1-7.44H344.25A49.71,49.71,0,0,1,343.22,667.1ZM336,650.67H302.37c-8.06-97.79-13.25-195.78-20-293.66Q309.14,503.83,336,650.67Zm-42.57,0H275.27V385.29C281.16,473.76,286.1,562.3,293.38,650.67Zm294,171.43c5.84-3.83,6.73-8,5.15-12l12.3,2c5.23.87,21.46,2.87,13.83,11.46-9.35,10.51-27.61,16.68-40.39,21.15a218.12,218.12,0,0,1-47.37,10.89c-15.28,1.73-30,.79-45.28.29s-30.23,1.71-45.55.41A217.53,217.53,0,0,1,392.91,847c-14.42-4.57-29.13-10.41-41.59-19.17-3.72-2.61-11.89-7.51-2.66-13.45,2.32-1.5,7-1.39,9.64-1.83l13.5-2.25c-.06.19-.14.38-.19.57-3.57,13.67,24.93,19.6,33.51,22.12,19.64,5.75,41,8.53,61.43,6.25,20.69-2.32,41.12,1.88,61.85-.34a182.37,182.37,0,0,0,29.78-5.67C567.57,830.6,579.05,827.53,587.34,822.1ZM498.79,698.82c9,35.82,33.7,65.15,59.83,90.11q4.74,4.53,9.58,8.94c2.67,2.44,7.09,5.4,10.25,8.42a3.37,3.37,0,0,0,1.39,1.44,13.85,13.85,0,0,1,1.31,1.7c1.23,1.92,3.55,1.36,1.66,4.91-.49.91-4.55,2.23-5.67,2.73a154.79,154.79,0,0,1-18.08,6.55,166.21,166.21,0,0,1-64.1,6.25c-19.63-1.88-38.91,2.28-58.58.22A166,166,0,0,1,406,823.86q-6.93-2.1-13.68-4.76c-5.3-2.1-13.33-3.47-8.68-9.58a22.29,22.29,0,0,1,1.8-2,3.32,3.32,0,0,0,.53-.53c2.9-2.79,6.6-5.33,9.34-7.83q5.49-5,10.87-10.11c7.36-7,14.5-14.29,21.21-21.93,11.83-13.48,22.49-28.21,30.07-44.51,17.07-36.71,13.41-79.14,14.26-118.62q3.13-147.39,3.58-294.83c1.12,0,2.25.05,3.39.05q5.59,0,10.84-.47.4,130.66,2.9,261.3.63,33,1.4,65.92C494.29,656.86,493.66,678.38,498.79,698.82ZM478.66,300.21c-28.17,0-47.8-9.91-47.8-18.81a6.25,6.25,0,0,1,.35-2c17,.28,34.51.43,52.26.43q21.66,0,42.68-.29a6.15,6.15,0,0,1,.3,1.83C526.45,290.3,506.82,300.21,478.66,300.21Zm188.45-35.59c-38.15,3.08-85.2,5.1-135.77,5.89l-.18-.27H430.45c-.39,0-.77,0-1.14-.05l-3-.2-.24.35c-47-.88-90.53-2.83-126.28-5.72-58.5-4.72-75.34-10.15-80.09-12.55,4.75-2.4,21.59-7.83,80.09-12.55,50-4,115.19-6.26,183.65-6.26s133.67,2.22,183.64,6.26c58.5,4.72,75.34,10.15,80.09,12.55C742.45,254.47,725.61,259.9,667.11,264.62Zm18.11,120.67V650.67H667.11C674.39,562.3,679.33,473.76,685.22,385.29ZM678.16,357c-6.79,97.88-12,195.87-20,293.66H624.54Q651.36,503.84,678.16,357Zm17.27,361.31c-35.08,0-64.89-17.74-75.3-42.23H770.72C760.31,700.58,730.5,718.32,695.43,718.32Zm78.15-51.22H617.28a47.24,47.24,0,0,1-1-7.44H774.61A48.44,48.44,0,0,1,773.58,667.1Z"/><path d="M203.26,680.88c13.65,1.27,27.38,1.29,41.07,1.42,12.52.11,25.54,1.11,37.91-1a1.63,1.63,0,0,0,0-3.12c-12.37-2.07-25.41-1.07-37.91-1-13.69.12-27.42.15-41.07,1.41A1.11,1.11,0,0,0,203.26,680.88Z"/><path d="M240.92,684.39c-11.07-2.28-23.83-.73-35.06-.28a1.74,1.74,0,0,0,0,3.47c11.24.45,24,2,35.06-.28A1.52,1.52,0,0,0,240.92,684.39Z"/><path d="M253.23,714.06a103.24,103.24,0,0,0,47.29-7.9c11.4-4.72,26.56-11.88,30.71-24.56.84-2.57-2.62-3.5-4-1.69-17.13,22.23-47,29.81-74,31.45A1.35,1.35,0,0,0,253.23,714.06Z"/><path d="M636.48,681.52c13.63,1.27,27.37,1.29,41.06,1.42,12.52.11,25.54,1.11,37.92-1a1.63,1.63,0,0,0,0-3.12c-12.38-2.07-25.42-1.07-37.92-1-13.69.12-27.42.15-41.06,1.41A1.11,1.11,0,0,0,636.48,681.52Z"/><path d="M674.13,685c-11.07-2.28-23.83-.73-35.06-.28a1.74,1.74,0,0,0,0,3.47c11.24.45,24,2,35.06-.28A1.52,1.52,0,0,0,674.13,685Z"/><path d="M686.44,714.71a103.38,103.38,0,0,0,47.29-7.91c11.4-4.72,26.56-11.87,30.71-24.56.84-2.57-2.62-3.5-4-1.69-17.13,22.23-47,29.82-74,31.45A1.36,1.36,0,0,0,686.44,714.71Z"/><path d="M493.36,708.4A148.93,148.93,0,0,0,520,766.46c6.36,8.38,13.69,15.86,21,23.4,8.5,8.76,16.7,18.52,26.4,25.95,1.57,1.2,3.89-1.17,2.74-2.74-12.77-17.36-31-30.4-44.5-47.21A161.46,161.46,0,0,1,496,707.67,1.37,1.37,0,0,0,493.36,708.4Z"/><path d="M532.6,791.1C523.43,781.79,515,771,509,759.37c-.79-1.53-2.94-.18-2.27,1.33a127.27,127.27,0,0,0,20.22,31.83c7.77,9.21,17,20.53,27.65,26.36,1.81,1,4.29-1.1,3-3C551.16,806.41,540.63,799.24,532.6,791.1Z"/><path d="M529,805a171.61,171.61,0,0,1-14.24-14.81c-1.08-1.28-3.21.38-2.31,1.78a107,107,0,0,0,12.87,16.72c4,4.16,9.71,11,15.63,12.11A2,2,0,0,0,543.1,818C540.35,812.81,533.29,809.06,529,805Z"/><path d="M522.88,816.22a80.57,80.57,0,0,1-7-8.14c-1.11-1.52-3.59-.18-2.58,1.51a93.35,93.35,0,0,0,6.15,9.25c1.83,2.37,4.06,5.45,7.09,6.22a1.51,1.51,0,0,0,1.84-1.84C527.57,820.4,524.86,818.3,522.88,816.22Z"/><path d="M499.71,809.62a93.58,93.58,0,0,0-9.59-14.15c-1.33-1.59-4.15.54-2.89,2.23,3.71,5,6.34,10.49,9.22,16,2.24,4.27,4.52,10.51,9,12.75a1.63,1.63,0,0,0,2.37-1.82C507,819.52,502.28,814.13,499.71,809.62Z"/><path d="M490.47,811.4c-1.27-2.13-4.18-.27-3.24,1.9s1.9,4.4,2.94,6.57c1,2,1.67,4,3.49,5.37,1.18.87,2.83-.31,2.82-1.62,0-2.2-1.41-4.13-2.43-6C492.9,815.5,491.69,813.45,490.47,811.4Z"/><path d="M490.23,756.64c-.41-12-6.37-25.1-9.65-36.64a1.88,1.88,0,0,0-3.62,1c2.56,11.55,4.26,26.16,10.49,36.39A1.5,1.5,0,0,0,490.23,756.64Z"/><path d="M477.06,738.5c-.83-2.2-4.32-1.33-3.59,1,1.12,3.59,2.23,7.19,3.36,10.78,1,3.21,1.83,6.78,3.88,9.49.9,1.18,3,.92,3-.8,0-3.44-1.49-6.67-2.67-9.85Z"/><path d="M531.62,846.27c15.58-1.15,30.53-3.4,45.37-8.44,9.36-3.18,23.6-7.23,27.11-17.6a1.76,1.76,0,0,0-2.55-2c-4.47,2.93-8.14,6.68-13,9.11-6.11,3.07-12.77,5.11-19.27,7.15a253.73,253.73,0,0,1-38,9.16C529.82,843.9,530.15,846.38,531.62,846.27Z"/><path d="M432.18,844.93c-12.84-4-26.94-3.87-40.05-7.59-12.32-3.5-29.11-7.9-35.42-20.26-.87-1.71-3.22-.2-2.52,1.47,5.29,12.52,18.27,17.65,30.22,22.18,13.81,5.23,32.93,11.1,47.77,7.72C434,848,433.82,845.44,432.18,844.93Z"/><path d="M484.3,619.13c.3,11.43.69,22.85,1.43,34.25.66,10.18.45,21.29,3.24,31.14a1.43,1.43,0,0,0,2.79-.38c.84-10.58-1.35-21.88-2.13-32.47-.8-10.84-1.52-21.68-2.06-32.54C487.47,617.05,484.25,617,484.3,619.13Z"/><path d="M483.35,600.36a1.2,1.2,0,0,0,2.39,0c1.67-24.75.93-50,1-74.8s.17-49.86-.46-74.79a1.72,1.72,0,0,0-3.44,0c-.64,24.93-.52,49.86-.46,74.79S481.68,575.61,483.35,600.36Z"/><path d="M486.53,361.24c1.1-12.05.32-24.3.07-36.38a1.29,1.29,0,0,0-2.57,0c-.24,12.08-1,24.33.08,36.38A1.21,1.21,0,0,0,486.53,361.24Z"/><path d="M518.83,283.16c-9-2.11-19.23-.86-28.49-.83-10.53,0-21.06.12-31.59.38a1.91,1.91,0,0,0,0,3.82c10.53.25,21.06.34,31.59.37,9.3,0,19.42,1.3,28.49-.83A1.52,1.52,0,0,0,518.83,283.16Z"/><path d="M504.92,289.89c-4.43-1.36-9.26-.84-13.86-.79-5.25.06-10.5.23-15.76.4a1.67,1.67,0,0,0,0,3.33c5.26.17,10.51.34,15.76.4,4.62,0,9.41.58,13.86-.8A1.33,1.33,0,0,0,504.92,289.89Z"/><path d="M554.91,249.18c-14.25-2.05-29.07-1-43.45-1l-44.76.13c-30.21.09-61.22-1.7-91.32,1.05a1.57,1.57,0,0,0,0,3.13c30.1,2.75,61.11,1,91.32,1l44.76.13c14.37,0,29.21,1.05,43.45-1C556.64,252.42,556.64,249.43,554.91,249.18Z"/><path d="M711.53,248.61c-20.64-2.63-42.45-.82-63.24-.82-21.09,0-42.17.14-63.25.84a1.72,1.72,0,0,0,0,3.44c21.08.7,42.16.84,63.25.84,20.79,0,42.61,1.81,63.24-.82A1.74,1.74,0,0,0,711.53,248.61Z"/><path d="M673.13,257.42c-12-1.57-24.45-.81-36.54-.8s-24.42-.23-36.53.94a1.46,1.46,0,0,0,0,2.91c12.11,1.16,24.38.92,36.53.93s24.53.77,36.54-.79A1.6,1.6,0,0,0,673.13,257.42Z"/><path d="M607.28,242.75c13.41.71,28.66,2.23,41.89-.25a1.15,1.15,0,0,0,0-2.2c-13.24-2.49-28.49-1-41.89-.26A1.36,1.36,0,0,0,607.28,242.75Z"/><path d="M356.9,251.05a1.48,1.48,0,0,0,0-3c-17.38-2.09-35.29-1-52.78-1-16.36,0-33.44-1.35-49.65,1.09a1.47,1.47,0,0,0,0,2.81c16.19,2.45,33.31,1.09,49.65,1.1C321.62,252.08,339.51,253.15,356.9,251.05Z"/><path d="M360.67,258.1c-12.39-2.23-25.69-.9-38.24-.87-13.79,0-27.6.06-41.38.54a1.44,1.44,0,0,0,0,2.87c13.78.47,27.59.5,41.38.54,12.53,0,25.87,1.36,38.24-.88A1.15,1.15,0,0,0,360.67,258.1Z"/><path d="M362.29,239.56c-13.37-1.39-27.42-.87-40.81.13a1.42,1.42,0,0,0,0,2.84c13.38,1,27.44,1.52,40.81.12A1.55,1.55,0,0,0,362.29,239.56Z"/><path d="M466.64,212.14c11.44,1,23.62,1.7,35,.3a1.37,1.37,0,0,0,0-2.74c-11.42-1.4-23.6-.7-35,.3A1.07,1.07,0,0,0,466.64,212.14Z"/><path d="M479.35,216a1.21,1.21,0,0,0,0,2.42c11.19,1.11,24.73,2.55,35.77.06a1.33,1.33,0,0,0,0-2.54C504.08,213.48,490.52,214.92,479.35,216Z"/><path d="M487.94,154.15c.61,2.9-1.38,4.31-2.32,6.7-.42,1,.75,1.75,1.62,1.62,3.18-.48,4.52-4.64,4.31-7.44-.28-3.7-2.8-6.83-5.49-9.17-1.09-1-3.12.32-2.15,1.66C485.39,149.56,487.41,151.62,487.94,154.15Z"/><path d="M377.11,597.66c2.69.09,5.41.35,8.13.5a7.84,7.84,0,0,0,5.84,5.28c.13,2.91.43,5.84.53,8.72.21,5.88.14,11.72,1.12,17.53a.92.92,0,0,0,1.76,0c1-5.81.92-11.65,1.13-17.53.1-3,.42-6,.54-9a7.87,7.87,0,0,0,4.86-5c3-.13,6.09-.45,9.1-.55,5.88-.21,11.72-.14,17.53-1.13a.92.92,0,0,0,0-1.76c-5.81-1-11.65-.91-17.53-1.12-2.88-.1-5.8-.4-8.7-.53a8.11,8.11,0,0,0-5.34-6.48c-.15-2.5-.38-5-.46-7.49-.21-5.88-.14-11.72-1.13-17.53a.92.92,0,0,0-1.76,0c-1,5.81-.91,11.65-1.12,17.53-.08,2.39-.3,4.81-.45,7.23a8.06,8.06,0,0,0-6.3,6.79c-2.59.15-5.19.39-7.75.48-5.88.21-11.72.14-17.54,1.12a.92.92,0,0,0,0,1.76C365.39,597.52,371.23,597.45,377.11,597.66Z"/><path d="M855.32,614.07c-5.81-1-11.66-.92-17.53-1.12-2.88-.11-5.8-.4-8.71-.54a8.12,8.12,0,0,0-5.33-6.48c-.15-2.5-.38-5-.47-7.49-.2-5.88-.14-11.72-1.12-17.53a.92.92,0,0,0-1.76,0c-1,5.81-.91,11.65-1.12,17.53-.09,2.4-.3,4.81-.45,7.23a8.05,8.05,0,0,0-6.3,6.8c-2.6.14-5.19.38-7.75.48-5.88.2-11.73.14-17.54,1.12a.92.92,0,0,0,0,1.76c5.81,1,11.66.91,17.54,1.12,2.68.1,5.41.36,8.12.5a7.86,7.86,0,0,0,5.84,5.28c.14,2.92.44,5.84.54,8.72.21,5.88.14,11.72,1.12,17.54a.92.92,0,0,0,1.76,0c1-5.82.92-11.66,1.12-17.54.11-3,.42-6,.55-9a7.89,7.89,0,0,0,4.86-5c3-.12,6.09-.44,9.1-.55,5.87-.21,11.72-.14,17.53-1.12A.92.92,0,0,0,855.32,614.07Z"/><path d="M613.87,461.6c-5.81-1-11.65-.91-17.53-1.12-2.88-.11-5.8-.4-8.7-.54a8.1,8.1,0,0,0-5.34-6.47c-.15-2.51-.38-5-.46-7.5-.21-5.87-.14-11.72-1.13-17.53a.92.92,0,0,0-1.76,0c-1,5.81-.91,11.66-1.12,17.53-.08,2.4-.3,4.82-.45,7.23a8.08,8.08,0,0,0-6.3,6.8c-2.59.15-5.19.39-7.75.48-5.88.21-11.72.14-17.54,1.12a.92.92,0,0,0,0,1.76c5.82,1,11.66.91,17.54,1.12,2.69.1,5.41.36,8.13.5a7.84,7.84,0,0,0,5.84,5.29c.13,2.91.43,5.83.53,8.72.21,5.87.14,11.72,1.12,17.53a.92.92,0,0,0,1.76,0c1-5.81.92-11.66,1.13-17.53.1-3,.42-6,.54-9a7.87,7.87,0,0,0,4.86-5c3-.12,6.09-.44,9.1-.55,5.88-.21,11.72-.14,17.53-1.12A.92.92,0,0,0,613.87,461.6Z"/><path d="M589.23,173.86a15.7,15.7,0,1,0-15.69-15.7A15.71,15.71,0,0,0,589.23,173.86Zm0-26a10.31,10.31,0,1,1-10.3,10.3A10.31,10.31,0,0,1,589.23,147.86Z"/><path d="M812.9,470.11a15.69,15.69,0,1,0-15.69,15.69A15.7,15.7,0,0,0,812.9,470.11Zm-26,0a10.3,10.3,0,1,1,10.3,10.3A10.31,10.31,0,0,1,786.91,470.11Z"/><path d="M242,794.77a15.69,15.69,0,1,0,15.69,15.69A15.71,15.71,0,0,0,242,794.77Zm0,26a10.3,10.3,0,1,1,10.3-10.3A10.31,10.31,0,0,1,242,820.76Z"/><path d="M697.51,783.83a15.69,15.69,0,1,0,15.69,15.69A15.71,15.71,0,0,0,697.51,783.83Zm0,26a10.3,10.3,0,1,1,10.3-10.3A10.32,10.32,0,0,1,697.51,809.82Z"/><path d="M159.72,436.22a15.7,15.7,0,1,0,15.69,15.7A15.71,15.71,0,0,0,159.72,436.22Zm0,26a10.31,10.31,0,1,1,10.3-10.3A10.31,10.31,0,0,1,159.72,462.22Z"/></svg>