<svg id="Layer_1" data-name="Layer 1" xmlns="http://www.w3.org/2000/svg" viewBox="0 0 1000 1000"><defs><style>.cls-1{fill:#faf7ec;}.cls-2{fill:#f7a6ae;}.cls-3{fill:#61c6c6;}</style></defs><title>Pieces</title><path class="cls-1" d="M204.78,531.87h-.62a22.35,22.35,0,1,0,.62,0Zm-2.49,38.89a14.53,14.53,0,1,1,14.12-14.93A14.53,14.53,0,0,1,202.29,570.76Z"/><path class="cls-1" d="M795.3,432.6a21.57,21.57,0,1,0,21.57,21.57A21.6,21.6,0,0,0,795.3,432.6Zm3,33.38a14.53,14.53,0,1,1,14.53-14.53A14.53,14.53,0,0,1,798.26,466Z"/><path class="cls-2" d="M182.15,295.35c-6,10.53-8.18,23.88-11.42,35.47q-2.88,10.33-5.77,20.68,4-3.6,8.11-7.1c2.66-14.18,5.67-28.89,11.85-41.93.87-1.84,3.47-.47,3.1,1.3-2.62,12.36-6.8,24.43-10.26,36.63q5.49-4.63,11.09-9.11c3.05-14.84,5.42-31.68,11.59-45.09.69-1.51,3-.69,3,.81,0,12.81-4.62,27.2-9.25,40.06q5.12-4,10.29-7.92a1.09,1.09,0,0,1,0-.26c1.27-10.26,1.9-23.8,8.06-32.46a1.32,1.32,0,0,1,2.44.66c0,5.22-2,10.21-3.34,15.2-1.27,4.67-2.4,9.35-3.4,14.07l2.11-1.57q3.63-2.67,7.3-5.34a1.64,1.64,0,0,1,0-.22c.49-3.76,1-7.48,1.68-11.21s1-7.62,3.18-10.72c.62-.89,2.29-.93,2.53.33.65,3.39-.3,6.63-1,9.95-.69,3-1.5,6-2.35,9q8.19-5.9,16.55-11.7C225.21,273.59,194.79,273.25,182.15,295.35Z"/><path class="cls-2" d="M101.12,516.66c-14.26,4.19-28.93,9.14-40.68,18.55-4.71,3.78-16.88,14.64-5.87,18.85,6,2.29,19-3.82,23.81-6.54,6.79-3.87,17.19-12.66,24.17-3.54,6.51,8.5-6.32,21.1-10.27,27.87-2.85,4.89-8.48,14.07-6.53,20.16,4.68,14.54,19.9-5.34,22.42-9.25,15.46-24,27.34-51.18,39-77.28C141,503.17,106.14,515.18,101.12,516.66Zm-10.07,11c-10,5.75-23,7.73-30.62,17.15-.88,1.08-2.65-.34-1.91-1.48a33.31,33.31,0,0,1,13.16-11.58c5.59-2.87,12.35-6.4,18.72-6.46A1.28,1.28,0,0,1,91.05,527.65Zm32,.92c-4.25,16.28-17.4,28.87-21.36,45.55-.37,1.52-2.58.85-2.32-.64,2.83-16.15,11.57-32.56,20.14-46.4A2,2,0,0,1,123,528.57Z"/><path class="cls-2" d="M488.24,401c-3.4-1.88-9.18-.06-12.69.51-9,1.46-18.86,1.82-24.63-5.57q-3.12,4-6.21,8c6.08-.31,12.3,1.26,18.38,1.75,6.34.5,12.7.47,19,1.08a.91.91,0,0,1,.25,1.78c-11.54,3.17-28.06,4-39.09-1.26a1.46,1.46,0,0,1-.66-.61q-4.51,5.91-9,11.85c5.77.1,11.52.85,17.33.66,6.79-.22,13.53-.93,20.28-1.66,1.88-.21,2.3,3,.45,3.29-12.59,1.79-28.13,5.2-40.53,1L426.49,428a225.17,225.17,0,0,0,41.94-.12c1.54-.13,1.79,2.28.36,2.65a120.14,120.14,0,0,1-45.88,2.17c-7.51,9.87-15.1,19.65-23,29.16-1,1.22-2,2.43-3.06,3.64a314.23,314.23,0,0,0,38.26-2.16c1.35-.18,1.61,2.08.32,2.35-13.74,2.94-27.81,4.58-41.86,3.72q-4.35,5.18-8.75,10.29a330.79,330.79,0,0,0,62.42-5.38A1.38,1.38,0,0,1,448,477a194.47,194.47,0,0,1-67.35,7.59q-4.53,5.24-9.13,10.41c3.51-.05,7,.18,10.55.07,6.13-.2,12.26-.71,18.38-1.09a.91.91,0,0,1,.24,1.78c-10,2.39-22.65,5-33.13,3.73Q360.82,507,354,514.39c17.29.37,34.24-.26,51.43-3.09,1.93-.32,2.8,2.56.82,3-18.67,4-37.87,6.24-57,5.19Q342,527.3,334.55,535c8.53-2.17,18.92-1.33,27.39-2.24a326.25,326.25,0,0,0,36.92-6.1,1.52,1.52,0,0,1,.81,2.92,279.45,279.45,0,0,1-37,8.84c-9.76,1.57-22.51,4.77-32,1.56a2.23,2.23,0,0,1-.65-.35q-6.39,6.54-12.87,13a252.85,252.85,0,0,0,86-17.56c4.64-1.86,9.24-3,11.62-8,1.09-2.27,1.06-5.09,1.69-7.51a30.29,30.29,0,0,1,5.91-11.87c6.22-7.62,15.38-11.87,23-17.8,4.6-3.57,8.52-7.66,10.05-13.44,1.81-6.79.95-14,3-20.76,3.23-10.68,11.26-18.89,18.71-26.79,3.88-4.11,7.86-8.2,11-12.92C491.13,411.55,495.91,405.22,488.24,401ZM393.79,522.4c-13.23,3.22-28.7,8.6-42.41,5.17-1.27-.32-1.4-2.48,0-2.7,13.77-2.22,28.13-1.83,42-3.82C394.28,520.93,394.69,522.18,393.79,522.4Zm19.93-18.46c-12.59,3.37-27.47,6.38-40.54,4.93-1.29-.14-1.84-2.21-.34-2.46,13.28-2.21,27-2.52,40.31-4.53C414.48,501.68,415.08,503.58,413.72,503.94Zm27.7-14.16c-9.08,3.5-20.2,3.27-29.79,4.36-1.69.19-2-2.6-.4-2.94,9.5-1.95,19.93-5.6,29.7-5.08A1.87,1.87,0,0,1,441.42,489.78Zm-15.11-46c7.42-1.67,16.52.09,24.08.47a1.39,1.39,0,0,1,0,2.77c-7.34.77-17,2.14-24.08-.51C425.1,446.09,424.83,444.14,426.31,443.81Zm25.25,11.91c-10.58,1.31-23.2,3.55-33.75,1.34a1.43,1.43,0,0,1,0-2.74c10.37-2.79,23.13-1.25,33.75-.52A1,1,0,0,1,451.56,455.72Z"/><path class="cls-2" d="M808.16,705.55c-.9,1.78-3.54.49-3.1-1.31,3-12.29,7.48-24.24,11.29-36.35q-5.69,4.51-11.47,8.89c-1.89,7.27-3.87,14.51-5.78,21.78-2,7.65-3.39,15.71-6.91,22.82-.71,1.45-3,.73-3-.81.3-12.82,5.37-27.08,10.37-39.82q-5.27,3.9-10.57,7.67a1.87,1.87,0,0,1,0,.58c-1.52,10-2.64,23.52-8.88,31.82-.72,1-2.48.76-2.44-.66.16-5.21,2.25-10.13,3.75-15.08,1.4-4.64,2.66-9.3,3.79-14l-2,1.43q-3.78,2.63-7.62,5.25a1.66,1.66,0,0,1,0,.55c-.61,3.87-1.25,7.7-2.1,11.53-.74,3.36-1.23,7-3.3,9.84-.61.84-2.31,1-2.52-.33-1-5.83,1.69-12.86,3.79-18.79q-8.29,5.63-16.74,11.15c12.33,21.47,42.58,23,55.9,1.19,6.33-10.35,8.87-23.61,12.43-35.12q3.2-10.31,6.38-20.62-4.11,3.48-8.3,6.87C818.1,678.1,814.7,692.7,808.16,705.55Z"/><path class="cls-2" d="M585.14,473.42c-1.54,2.5-1.61,5.82-2.42,8.6a30.72,30.72,0,0,1-6.18,11.74c-6.29,7.33-15.38,11.35-23.1,16.88-4.88,3.49-9.08,7.5-10.89,13.38-2.07,6.72-1.36,14-3.58,20.68-3.5,10.6-11.71,18.59-19.39,26.29-4,4-8.1,8-11.38,12.59-2.76,3.87-7.63,10-1.82,14.45,3.42,2.62,10.28,1,13.87.48,9-1.31,19-1.37,24.55,6.15,2.15-2.59,4.3-5.18,6.42-7.79-6,.12-12.19-1.6-18.19-2.25-6.35-.68-12.72-.84-19-1.62-.94-.12-1.31-1.51-.24-1.78,11.51-2.81,28.22-3.18,39,2.32a1.51,1.51,0,0,1,.66.64q4.68-5.77,9.34-11.55c-5.73-.23-11.45-1.2-17.23-1.18-6.79,0-13.56.56-20.33,1.1-2.18.18-2.1-3.11,0-3.35,12.28-1.4,28.2-4.46,40.16.2l4.85-6a223.11,223.11,0,0,0-41.93-1,1.35,1.35,0,0,1-.36-2.64,120.37,120.37,0,0,1,46-.91c8.78-10.84,17.64-21.62,26.86-32.06a315,315,0,0,0-38.23,1.1c-1.35.14-1.64-2.11-.32-2.36,13.81-2.55,27.93-3.8,42-2.55q4.48-5,9-10a330.53,330.53,0,0,0-62.48,3.64c-1.72.26-2.5-2.2-.73-2.67a194.48,194.48,0,0,1,67.56-5.72q4.66-5.08,9.36-10.11c-3.91,0-7.88-.44-11.75-.39-5.7.07-11.4.36-17.1.56a.91.91,0,0,1-.24-1.78c10.12-2.12,22.78-4.42,33.25-2.82Q638,496.24,645,489c-17.23-.84-34.2-.69-51.41,1.65-1.92.27-2.81-2.61-.82-3,18.78-3.49,38-5.2,57.12-3.61Q657.4,476.46,665,469c-8.57,1.91-18.88.8-27.35,1.47a326.62,326.62,0,0,0-37.11,5.05c-1.89.37-2.7-2.39-.81-2.91A278.09,278.09,0,0,1,635.5,465c10.08-1.4,23.74-4.48,33.49-.89a2,2,0,0,1,.65.38q6.57-6.37,13.24-12.62A254.33,254.33,0,0,0,596.55,467C592.63,468.4,587.5,469.57,585.14,473.42Zm-14.32,84.14c-7.47,1.46-16.5-.55-24.06-1.14a1.38,1.38,0,0,1,0-2.76c7.36-.57,17-1.68,24.06,1.16C572,555.29,572.34,557.26,570.82,557.56Zm8.79-13a1.43,1.43,0,0,1,0,2.74c-10.46,2.5-23.16.61-33.76-.41a1,1,0,0,1,0-1.92C556.44,543.94,569.14,542.05,579.61,544.55Zm7.61-33.95c-9.54,1.69-20.08,5-29.82,4.26a1.87,1.87,0,0,1-.49-3.66c9.2-3.26,20.25-2.71,29.91-3.53C588.5,507.53,588.86,510.31,587.22,510.6ZM626,494.06a1.27,1.27,0,0,1,0,2.42c-13.43,1.84-27.2,1.78-40.71,3.44-1.22.15-1.43-1.83-.28-2.1C597.91,494.75,612.79,492.23,626,494.06Zm-20.55-14.14c13.33-2.85,28.92-7.81,42.52-4,1.65.46,1.1,2.56-.37,2.75-13.76,1.81-28.07,1-42,2.62C604.86,481.38,604.71,480.08,605.46,479.92Z"/><path class="cls-2" d="M945.58,457.73c-6.23-2.7-20,3.51-25.42,6.57-6.65,3.79-17.21,11.18-23.24,1.8-5.43-8.45,6.51-19.62,10.6-26,3.35-5.25,9.32-14.32,7.82-21-3-13.45-17.66,1.62-20.89,5.92-9,12-15.77,26.31-22.87,39.52s-13.75,26.35-20.22,39.74c3.46,2.13,43.46-9.59,48-10.8,14.39-3.88,29.61-8.58,41.32-18.21C945.37,471.35,955.18,461.89,945.58,457.73Zm-69.3,23.62c4.71-16.16,18.21-28.38,22.64-45,.4-1.5,2.61-.86,2.31.64-3.28,16.07-12.46,32.21-21.41,45.8C878.64,484.63,875.65,483.52,876.28,481.35Zm65-13a33.62,33.62,0,0,1-13.86,11.4c-5.66,2.66-12.16,5.89-18.5,5.78a1.28,1.28,0,0,1-.65-2.37c10.24-5.49,23.17-7.09,31.09-16.29C940.22,465.81,942,467.2,941.23,468.33Z"/><path class="cls-3" d="M888.73,651.15A10.83,10.83,0,1,0,899.55,662,10.84,10.84,0,0,0,888.73,651.15Z"/><path class="cls-3" d="M914.45,498.84c-15.94,5.25-32.52,8.78-48.83,12.68-7.72,1.84-17.92,4.72-22.62-3.08a4.8,4.8,0,0,1-1.29-5.89q13.1-27.27,27.7-53.78c7.14-12.91,14-28.94,25.91-38.34-18-12.35-39.9-14.28-61.24-15.58-24.86-1.51-48.49-.86-71.56,9.52-36.33,16.34-65.55,46.42-93.5,74q-45.43,44.82-86.36,93.93c-26.34,31.59-50.23,66.14-82.12,92.56-14.07,11.67-29.47,21.66-46.44,28.55-20.24,8.22-41.86,10.06-63.22,13.56-5.95,1-8.49-8.12-2.51-9.1,4.46-.74,8.91-1.41,13.34-2.1a5.41,5.41,0,0,1-.33-1.26A285.81,285.81,0,0,0,385,628.32c-3.87-10.2-8-21.05-13.85-30.3-2.22-3.5-8.78-11.61-12.14-6.4-1.7,2.65-1,9.35-1.26,12.34-3.1,37.54-17.44,77.73-48.65,100.75-13.31,9.81-28.42,16.8-43.43,23.57-3.45,1.56-10,3-10.31,6.85s6.82,7.88,9.65,9.76A84.23,84.23,0,0,0,290,756c19.54,5.2,40.06,3.48,59.26-2.33,9.27-2.8,17.82-6.85,26.56-10.9,4.8-2.22,7.39-2,11.78,1,15.55,10.56,30.39,20.68,48,27.7a221.4,221.4,0,0,0,53.84,13.79c38.71,5,77.9.11,115.2-10.86C643,763,679.34,745.52,713.91,725.58c34-19.59,67-41.45,97.77-65.81,55.88-44.29,104.09-100.92,124.38-170.12A125.67,125.67,0,0,1,914.45,498.84Zm-20.72,26.65a660,660,0,0,1-49.14,54.58c-16.38,16.43-32.91,34.34-51.48,48.29-2,1.51-4-1.64-2.55-3.3,15.83-17.7,35.11-32.76,52-49.47a715.93,715.93,0,0,0,48.54-52.71C892.64,521,895.18,523.66,893.73,525.49ZM845,551.79c12.22-12.68,22.22-26.52,32.22-40.94a2.21,2.21,0,0,1,3.82,2.23c-15.46,29.77-44.43,54.44-70.35,74.89-1.22,1-2.92-.61-1.75-1.75C820.83,574.63,833.43,563.77,845,551.79ZM832,418.08c-3.88-.76-7.79-1.33-11.66-2.07-1.27-.25-.8-2,.28-2.07a49.52,49.52,0,0,1,12.16.34c3.22.44,6.9.7,9.3,3.05a1.13,1.13,0,0,1-.5,1.88C838.44,420.05,835.16,418.69,832,418.08Zm3.94,7.85c-2.75.93-7.35-1.17-9.3-3.1a1.08,1.08,0,0,1,1-1.79,45.67,45.67,0,0,1,4.42,1.17c1.34.34,3,.51,4.16,1.33A1.33,1.33,0,0,1,836,425.93Zm-13.09-15.88a197.72,197.72,0,0,0-25.29-.9c-1.63,0-1.53-2.29,0-2.47,16.17-1.86,35.75-2.12,51,4.48,1.43.62.72,3.09-.8,2.95C839.39,413.34,831.26,411,822.87,410.05Zm3.44,44.12a31,31,0,1,1-31-31A31,31,0,0,1,826.31,454.17Zm-45.88,36.28a49.88,49.88,0,0,0,26.77-.79C815.61,487,821,481.45,828,476.61c1.8-1.25,3.71,1.13,2.82,2.83-9,17.06-35.07,20.2-51.13,13.64A1.37,1.37,0,0,1,780.43,490.45Zm19.28,11.34a41.1,41.1,0,0,0,14-4.9,1.72,1.72,0,0,1,1.73,3,25.84,25.84,0,0,1-15.43,4C798.85,503.84,798.47,502,799.71,501.79Zm57-41.92c-3.61,9.13-6.93,18.51-11.4,27.27-6.16,12.08-12.37,20.69-7.78,34.62.62,1.86-2,3.47-3.36,2-6.44-7.43-3.74-17.82.27-25.86,6.5-13.06,13.72-25.71,20.08-38.9C855.06,457.73,857.16,458.62,856.67,459.87ZM863,444.15c2.44-10.14,9.85-19.6,16.3-27.57,1.06-1.3,3.3.45,2.32,1.79-6.19,8.49-10.35,18.25-16.43,26.71A1.21,1.21,0,0,1,863,444.15ZM756.61,412.67c14.33-8.26,30.43-12.75,46.87-14.23,16.69-1.5,36.58-1.53,52.32,4.84,1.34.54,1.29,2.72-.36,2.68-16.36-.43-32.21-4.13-48.72-3.35A143.86,143.86,0,0,0,757.18,414C756.39,414.35,755.91,413.07,756.61,412.67ZM744.28,527.84c10.63,5.62,22.37,8.65,34.27,10.06,9.36,1.12,19.15,0,28.34,1.86,1.47.3,1.34,2.47,0,2.85-20.11,5.6-46.58-2.23-63.62-13.05A1,1,0,0,1,744.28,527.84Zm25.85,30a1.22,1.22,0,0,1,.65-2.35c4.53,1.19,9.16,1.24,13.72,2.22a1.08,1.08,0,0,1,0,2.06C779.65,560.74,774.72,559.4,770.13,557.81Zm7.6,8.81a12.16,12.16,0,0,1-3.65-.37c-1.92-.37-1.08-3.54.82-3a11.59,11.59,0,0,1,3.35,1.39A1,1,0,0,1,777.73,566.62ZM759.16,547c-1.6-.68-.43-3.39,1.18-2.79a65,65,0,0,0,17.7,3.83c4.88.38,9.8-.38,14.62.49a1.3,1.3,0,0,1,.31,2.36C782.78,555.62,768.82,551.15,759.16,547ZM672.29,707.4c1.8-8.72,10-16.94,15.6-23.65,6.79-8.09,14.36-15.51,21.87-22.93,16.09-15.89,32.21-31.26,44.39-50.52a.7.7,0,0,1,1.21.71c-9.9,18.18-23.69,34-37.69,49.15-7.2,7.78-14.36,15.58-21.24,23.64-4,4.75-8,9.52-11.68,14.59-2.81,3.91-5,8.13-8.73,11.18A2.25,2.25,0,0,1,672.29,707.4Zm-3.82-14.74c-1.45,1.49-3.46-.41-2.7-2.08,7.93-17.27,25.23-31.06,39-43.57,15.14-13.74,31-27,43.87-42.93.51-.64,1.63.23,1.13.87-12,15.55-25.68,29.29-39.86,42.84-7.4,7.07-14.77,14.17-21.71,21.7S675.53,685.38,668.47,692.66Zm57.63-29.18C737.34,648.27,749.7,634,759,617.37c.55-1,2-.12,1.5.87-7.7,16.17-17.91,30.8-28.16,45.43-5.1,7.27-10.2,14.55-14.69,22.23-4.39,7.5-7.06,16.43-12.05,23.44-1,1.37-3.55,1.06-3.43-.93C703.06,692.6,717.05,675.73,726.1,663.48ZM714.29,477c-10.06,12.22-20.64,25.52-33.6,34.78-1,.69-1.9-.77-1.2-1.57,10.53-12.07,22.87-22.46,33.34-34.67C713.71,474.51,715.13,476,714.29,477Zm-23.67,46.4c-2.08,2.61-4.51,5.93-7.59,7.38a1.17,1.17,0,0,1-1.59-1.59c1.5-2.83,4.32-5.07,6.4-7.49a91.75,91.75,0,0,0,6.88-9.08,1.33,1.33,0,0,1,2.3,1.34A81.52,81.52,0,0,1,690.62,523.38Zm4.66,4.49c-2.44,3.54-4.58,7.3-7.86,10.12a1.22,1.22,0,0,1-1.91-1.48c1.74-4,4.74-7.09,7.42-10.45C694,524.73,696.23,526.49,695.28,527.87Zm-13.57-7.08c-.67.36-1.53-.39-1.08-1.09,2.18-3.39,5.36-6,8.19-8.8q4.62-4.65,8.87-9.65c.45-.52,1.34.18.95.74C694.13,508.49,688.8,517,681.71,520.79Zm28-55.7c.8-.83,1.89.37,1.23,1.22-10,13-21.8,28.13-35.56,37.26-.81.54-2-.57-1.39-1.39,4.9-6.54,11.28-11.89,17-17.71C697.24,478.06,703.4,471.52,709.67,465.09Zm-20,11.57c-6.21,7.79-12.93,16-21.09,21.8-1,.74-2.05-.83-1.3-1.68,6.68-7.51,14.13-14.19,20.51-22C688.87,473.45,690.72,475.34,689.67,476.66Zm-28,14.48c3.29-4,7.67-7.26,11.4-10.85s7.39-7.47,11.09-11.19c1.2-1.2,3.46.44,2.41,1.86a109.94,109.94,0,0,1-10.66,12.16c-3.72,3.72-7.73,7.9-12.36,10.46A1.56,1.56,0,0,1,661.66,491.14Zm-10.93,11.57c1.25-2.1,4.19-.26,3.21,1.88-2.41,5.3-8.74,15.61-.42,18.08,3.1.92,7.06-1,10.45-.23a3.24,3.24,0,0,1,2.26,2.27c1.65,6.42-6.44,15.63-9.16,21.08-2.59,5.21-7.07,13-6.61,19.12.36,4.89,2.4,5.67,7.33,5.69a39.46,39.46,0,0,0,10.78-1.71,3.28,3.28,0,0,1,4.11,3.14c-.14,5.65-1.8,10.52-3.51,15.87s-4.83,10.7,4,12c2.88.42,7.81-1.9,10.52-2.59a3.16,3.16,0,0,1,3.84,3.84c-1.15,5.68-5.73,18.53,1.2,22.17,3.07,1.62.92,6.58-2.35,5.56-10.3-3.21-8-14.78-6-23.9-6.86,2.34-15.5,4.84-18.78-2.45-3.67-8.13,2.25-17.61,4.09-26.18-7.31,1.56-17.59,2.26-21.22-3.94-4.25-7.29,2.5-20.6,5.6-27.12,1.2-2.53,9.18-15.65,8.39-16.58-1.44-1.7-10.25,1.21-13.36-1C636.84,521.8,647.53,508,650.73,502.71Zm-38.57,53.71a138.17,138.17,0,0,1,13.19-21.52c1.46-2,4.77-.18,3.38,2a145.9,145.9,0,0,0-14.08,27.43c-.7,1.88-2.25,5.1-2.11,7.27.23,3.84,3.86,5.95,7.57,7,5,1.41,11.11.93,16.28,1.36a3.06,3.06,0,0,1,2.61,4.55C634.07,593,629.78,603,629.25,613c-.39,7.18,2.93,7.7,9.57,7.75,4.43,0,9.2-1.12,13.6-1.66,2.49-.3,3.62,2.8,2.67,4.64A65.81,65.81,0,0,0,650,636.27c-.45,1.53-.82,3.08-1.12,4.64q-2.45,6.38,5.53,7.51c1.27-1.81,4.83-1.41,4.61,1.25-.6,7.15-9.46,8.58-14,3.55-6-6.68-2-18.51,2-27-9.3,1.71-21.22,3.9-23.6-6.94-2.35-10.65,2.65-23.48,7.93-33.43-9.87-.12-23.92,0-24.92-11.09C605.87,568.43,609.51,561.9,612.16,556.42Zm-116,124.18c13.72-17.1,32.59-30,46.91-46.69,15.25-17.79,27.66-38.22,41.4-57.17,1-1.41,3.37-.13,2.39,1.4-12.49,19.56-24.66,40-39,58.21-7.52,9.54-16.1,18.23-24.84,26.65-7.61,7.35-15.2,15.37-24.28,20.9C496.48,685.24,494.73,682.34,496.13,680.6Zm-127-73.72c7,11.68,10.8,26,15,38.88,4.66,14.2,8.11,28.68,11.44,43.24a1.46,1.46,0,0,1-2.81.78c-4-13.76-8.65-27.32-13.09-40.94-4.37-13.42-10.82-26.83-13.74-40.63A1.74,1.74,0,0,1,369.09,606.88Zm-7.25,26.83c6.59,7.59,10.89,17.65,15.47,26.55a280.71,280.71,0,0,1,12.62,28c.6,1.56-1.85,2.48-2.63,1.11-5.27-9.25-10.22-18.68-15.28-28.05-4.53-8.38-10.4-16.62-13.57-25.6C357.78,633.8,360.53,632.21,361.84,633.71Zm-5.46,28.52c5,3.14,9.07,8,13.34,12.08,4.72,4.51,9.28,9.19,14.06,13.64,1.58,1.47-.71,3.6-2.32,2.32-5.14-4.09-10.31-8.1-15.13-12.57-4.32-4-9.26-8-12.29-13.13A1.72,1.72,0,0,1,356.38,662.23Zm28.23,59.61c5.32-1.34,11.58-.55,17.06-.84,1.67-.09,2.06,2.7.4,2.94-5.42.77-12.11,2.11-17.46.57A1.4,1.4,0,0,1,384.61,721.84Zm-33-43.45c9.06,8.58,20.31,14.9,30,22.75,1.63,1.33-.47,3.76-2.17,2.81-10.87-6.06-23.17-13.17-30.49-23.5C347.79,678.82,350.27,677.13,351.61,678.39ZM341,687.3c12,7.45,23.76,15.54,35.55,23.34a2.1,2.1,0,0,1-2.12,3.63q-10.26-5.5-20.12-11.69c-5.65-3.53-12-7.18-15.83-12.76C337.39,688.28,339.47,686.36,341,687.3Zm-14.63,13.82c7.94,1,15.94,5.47,23.36,8.33,8.37,3.23,16.81,6.3,25.42,8.81,3.05.89,1.76,5.61-1.31,4.77-9.05-2.47-17.95-5.52-26.82-8.57-7.1-2.44-16.33-4.68-22.16-9.69C323.51,703.63,324.52,700.88,326.35,701.12ZM314.55,717c9.63,1,19,3.91,28.69,5a182.09,182.09,0,0,0,29.24,1.29c2.33-.11,2.2,3.28,0,3.55-17.89,2.14-42.53,2.49-58.9-6.27C312,719.7,312.62,716.79,314.55,717Zm54.74,22.73c-25.94,8-68.05,24.23-92.7,4.57-2.07-1.65.19-4.89,2.47-4.26,14.49,4,26.75,7.41,42.06,5.82,15.92-1.65,31.65-6.06,47.35-9.08A1.53,1.53,0,0,1,369.29,739.71Zm7.3-8.33q-16.5,2.49-33.07,4.63c-15.28,2-37,7.11-50-3.88-1.47-1.25.17-3.2,1.71-2.93,10.65,1.83,20.1,3.84,31.09,3.09,7-.48,14-1.19,21-1.85,9.6-.91,19.21-1.72,28.81-2.65v.09C378,728.08,378.74,731.05,376.59,731.38Zm11.74,7.18c-2.45.29-5.89,1.25-8.26.31a1.41,1.41,0,0,1-.33-2.53c2.18-1.55,6-1.41,8.59-1.73S390.83,738.27,388.33,738.56Zm5.15-7.58-5.55.48a11.87,11.87,0,0,1-5.14-.17,1.42,1.42,0,0,1-.33-2.56c3.1-1.6,7.61-1.1,11-1.29C395.78,727.32,395.72,730.79,393.48,731Zm23.29,3.74a16.79,16.79,0,0,0-8.22,3.66c-2.65,2.1-1,5.44-.6,8.29a1.6,1.6,0,0,1-2.65,1.54c-2.15-1.76-3.49-3.6-3.66-6.52a7.8,7.8,0,0,1,2.33-6.08,17,17,0,0,1,13.24-4.15C419.18,731.78,418.49,734.58,416.77,734.72Zm24.08-11.33c-4.68,1.22-12,3.69-10.32,10.64.52,2.16,3.53,4.81,4.82,6.48,1.43,1.89,4.71,4.5,4.22,7.2-.38,2.13-1.78,2.74-3.67,3.53-2.14.91-4.89.57-6.9,1.56-4.88,2.41-1.55,3.71,1.35,5.54,1.66,1,1.09,3.93-1,3.85-4.34-.17-12.48-3.82-10.49-9.62.73-2.12,3.08-3.29,5-4,1.15-.44,9.88-2.53,10.4-1.14-.39-2.32-8.22-10.55-9.07-12.92a7.49,7.49,0,0,1,.13-6.36c2.7-5,10.4-5.9,15.36-6.32C441.57,721.71,441.71,723.16,440.85,723.39Zm-12.25-11c-13.25,4-28.65,7.48-42.5,5.31-1.76-.27-1.62-3,0-3.41,12.58-2.91,25.65-2,38.32-5.55,6.57-1.82,13.11-3.77,19.68-5.58,7-1.94,16.07-3,21.31-8.45,1-1,2.38.46,1.54,1.53-3.89,5-9.17,6.56-15,8.51C444.21,707.38,436.44,710,428.6,712.4Zm52.68,67.49c-3.4-.65-7.87-2.36-8.51-6.28-.41-2.54,1-3.9,2.4-5.26-6.56,0-14.82-.57-18-5.42-4.22-6.45,2.05-10.84,6.58-14.29,8.39-6.39-1.32-6.72-6.2-9.45-2.18-1.22-4.38-2.86-5.1-5.39-2.1-7.41,10.64-13.48,15.14-17,1.54-1.22,3.7.77,2.22,2.22-2.58,2.51-7.21,5.6-9,8.71q-5.39,3.09,1.21,7.57c1.28.34,2.56.69,3.83,1,3.12,1,8.13,2.31,9.13,6.07,1.07,4-3.4,6.5-5.52,9.14-1.78,2.22-9.26,4.1-3.45,9.55,2.08,1.95,11.75,1.15,14.72,1.22a3.08,3.08,0,0,1,2.92,3.83c-1,4.55-5.86,5.49-.56,9.39A2.41,2.41,0,0,1,481.28,779.89Zm66.34,2.92c-3.53,1.13-5.37-1.07-6.28-4.25-1.23-4.31,2.71-4.82-4.51-5.82-4.49-.63-9.21.36-13.75-.15-5.23-.58-11.76-1.5-11.64-8.09.09-4.71,3.78-8.12,7.2-11.46a137.11,137.11,0,0,1-21.64.66c-4.18-.23-8.77-.23-10.5-4.62-3.82-9.7,9.24-19.33,16.44-26.37-8.9-.31-25.43.42-25.86-7.88s17.84-17.75,23.69-20.74a1.31,1.31,0,0,1,1.32,2.26A106.7,106.7,0,0,0,490.3,705c-3.88,3.32-7.79,4.68-4.07,9.19,4.52,5.51,15.48,2.27,22.56,4.14,1.47.39,2.5,2.39,1.52,3.73-4.45,6.13-10.85,10.43-15.3,16.5-2.95,4-3.64,7.3,2,9.58,2.35.95,6.47.2,8.92.16a144.07,144.07,0,0,0,18.78-1.51c2.22-.31,4.58,1.81,3.15,4.09a32.72,32.72,0,0,1-4.17,5.31c-2.93,3.11-4.57,2.9-3.57,7.45,1.26,5.71,6.88,3.7,11.68,3.66a64.72,64.72,0,0,1,10,.29c2.92.44,5,.56,6.22,3.63.57,1.46.43,6.3-1.81,6.62C549.48,777.33,550.89,781.76,547.62,782.81Zm64-15.92c-7.83,2.55-23.56,6-30.88.29-5.49-4.28-3.26-11.94-.44-18.23-7.3,1.61-14.65,3.35-22,4.33-3.21.43-6.53.94-9.16-1.53s-2.65-6.74-2.08-10a30.18,30.18,0,0,1,3.72-9.31q1.61-2.7,3.32-5.33a3.71,3.71,0,0,1-2.58.92c-8.19,0-25.33,9.76-32.6,2.37-2.19-2.23-1.76-5.34-.7-7.93,2.56-6.23,7.86-12.37,12.52-18.09-7.12.65-16.55,1-18.53-4.78-1.11-3.25,1.07-5.87,2.94-8.16,4.88-6,11-11.29,16.43-16.76,1.46-1.47,3.53.7,2.24,2.25-3.32,4-11.47,10.64-13,15.46-3.07,9.74,10.71,5.75,16.38,5.51,2.14-.09,3.83,2.63,2.56,4.46q-5.82,8.39-11.69,16.72c-.76,1.08-4.84,5.32-3.85,6.78.85,1.27,10.26-.84,11.61-1.08,5.52-1,17.36-6.49,22.8-3.29s.59,9.52-1.37,12.92a35.27,35.27,0,0,0-3.12,6.16l2.43,6.49c1.23.59,9.27-1.77,10.66-2l17.78-3.4a3.15,3.15,0,0,1,3.51,4.56c-3.06,6-8.49,16.38,1.62,17.2,6.77.56,13.34-.61,19.89-2.22C613.81,760.25,615.28,765.71,611.65,766.89Zm35.26-15.25c-4.65,4.07-10.88,3.47-14.74-1.66s-3.47-11.35-1.64-17.11c-7.93,2.88-18.64,5.68-24.44.87-2.71-2.24-3.43-5.29-3.3-8.68.12-2.76,1.31-5.54,2.1-8.13q.72-2.29,1.42-4.61a2.51,2.51,0,0,1-2.48,1.36c-3.09,1.75-8.13,2.07-11.56,3.11-3,.89-6.34,2.65-9.47,2.79s-5.33-.56-6.92-3.26c-4.59-7.8,4.67-16.27,7.45-24.05-8,1.78-16.18,4-24.16,4.47-3.52.23-7.4-.4-8.84-4.14-2-5.29,3-12.87,5.74-17a68.08,68.08,0,0,1,7.1-8.79c2-2.19,7.3-6,9.47-9.6-6.56.08-14.74-1.49-16.47-7.9-1.91-7.1,8.44-17.74,12.16-23.12,1.42-2.07,4.72-.22,3.4,2-2.57,4.32-5.07,8.68-7.44,13.11-1.35,2.53-3.39,5-1.17,7.76s9.92,2.32,12.7,1.92a3.12,3.12,0,0,1,3.86,2.94c.94,9.13-11.94,16.11-16.74,22.7-1.49,2.05-7.31,9.62-6.36,12.07,1.2,3.1,7.67.58,9.51.22l20.4-4.06a3.34,3.34,0,0,1,4.16,3.17c.38,8.38-6.44,12.41-8,19.84-1.8,8.61,10,2.54,14.63,1.38,3.81-1,8-2.56,12-2.3a2.85,2.85,0,0,1,2.47,1.41c2.24,4.81-2.41,9.39-2.64,14.23-.67,13.71,19.5,4.51,25.95,2.29,2.37-.82,4.66,2.21,3.29,4.27a15,15,0,0,0-3.22,9.77q-.84,7.84,8.48,8.41C646.24,745.91,649.3,749.55,646.91,751.64ZM680.31,726c-12.06-.8-26-5.63-30.27-18.07a2.73,2.73,0,0,1-.73.6c-4.83,2.65-10.28,1-13.12-3.82-3.57-6.06-1.7-15.49-.54-23-10.39,2.22-23.48,4.68-23.6-10.36,0-3.27,1-6.32,1.88-9.42,1.68-5.53,2.21-8.08-4.73-7.64-5,.32-11.84,2-15.62-2.13-4.23-4.63-1.67-13.32.19-18.34a88.73,88.73,0,0,1,4.73-10c.94-1.8,3.13-4.48,3.35-6.56.38-3.68-1.45-4.52-3.6-5.82-4.45-2.68-7.44-3.34-8.53-9.24-1.44-7.8,3.7-15,4.62-22.49a1.53,1.53,0,0,1,3.06,0c.8,6.81-3.92,13.06-2.94,19.54,1.52,10,8.78,4.9,13.06,9.84,6.58,7.58-7.42,21.47-8.35,29.19-2.51,20.74,19,0,23.13,12.82,1.63,5.06-1.7,10.59-2.68,15.32-1.29,6.16-2,11.12,8.23,10.67,3.48-.15,7.37-2.28,10.87-2.92,1.94-.35,4.54.89,4.29,3.27-.27,2.6-4.93,28.8,3.88,25.35a2.56,2.56,0,0,1,2,0c-1.51-11.91,4.61-24.45,10.65-34.19,17-27.34,45.05-46.9,69.69-67-8.3-8.46-16.52-17-24.37-25.87-6.81-7.72-14.18-15.29-17.14-25.38-.29-1,1-1.37,1.51-.64,6.74,9.47,15.86,17,24.13,25.12,8.52,8.35,16.81,16.94,25.17,25.45a3.46,3.46,0,0,1,1,3.15,4,4,0,0,1-1.59,3.17c-20.57,16.92-43,33-60.41,53.37-8.61,10.06-18.74,24-19.39,37.8-.92,19.19,23.4,20.57,37.07,17.54,28.53-6.33,47-33.21,59.72-57.41,13.74-26.11,27.87-52.35,38.32-80,2.14-5.64,11.26-3.18,9.11,2.51a499.71,499.71,0,0,1-22.29,49.26c-8.16,16.06-15.88,32.67-25.45,47.94C738.64,703.17,712.72,728.16,680.31,726Zm107.13-57.68a18.28,18.28,0,0,0-10.66,1.08c-1.65.7-3.82-1.39-2.13-2.75a13.94,13.94,0,0,1,13.9-2.38A2.1,2.1,0,0,1,787.44,668.33Zm9.49-6.85c-6.52-8.5-17.82-1-25.87.54a1.8,1.8,0,0,1-1.38-3.27c5.66-4.36,13.88-7.09,21.08-6.21,4.5.55,9.38,3.06,9.16,8.13A1.62,1.62,0,0,1,796.93,661.48Zm6-7.38c-2.56-1.71-4.37-3.94-7.4-5a14.43,14.43,0,0,0-9.49,0c-1.18.41-1.83-1.35-.83-2a14.21,14.21,0,0,1,11.32-1.63c3.44.91,7.58,3.33,8.41,7C805.14,653.65,803.94,654.8,802.89,654.1Zm7.43-26.81c7.87-9.13,18.59-16.57,27.71-24.46,9.33-8.06,18.82-16,27.88-24.38a1,1,0,0,1,1.36,1.36c-9,9.22-17.86,18.61-27.26,27.49-8.46,8-17.07,17.34-27,23.44C810.74,632.11,808.77,629.1,810.32,627.29Zm87.54-68.77c-6.55,15.11-19.17,27.84-30.35,39.64-11.66,12.31-25,27-39.79,35.46a1.92,1.92,0,0,1-2.32-3C836.65,618.15,851,608,862.94,596c11.57-11.6,25.13-24.13,32.72-38.77C896.43,555.75,898.49,557.05,897.86,558.52ZM878,563.05a.86.86,0,0,1-1.22-1.22A187.33,187.33,0,0,0,898,533.41c5.65-9.06,9.12-20.41,15.55-28.76.7-.91,2.68-.82,2.51.68-1.19,10.56-8.71,21.49-14.43,30.2C894.93,545.72,886.76,554.58,878,563.05Zm26.42-17a1.33,1.33,0,0,1-2.29-1.34c7.3-13.2,13.15-27.49,20.81-40.41a1.31,1.31,0,0,1,2.39,1C921.19,519.57,912.5,533.66,904.45,546.05Z"/><path class="cls-3" d="M332.83,523.1q44.64-46.82,84.53-97.9c25.35-32.47,48.49-67.64,80.41-94.24,13.15-11,27.55-20.41,43.37-27,19.5-8.16,40.38-10.53,61-14.5,5.94-1.15,8.47,7.95,2.51,9.1-4.34.84-8.67,1.62-13,2.4,0,.05,0,.1,0,.16a290,290,0,0,0,17.14,63.8c4.12,10.35,8.66,21.06,14.5,30.58,1.85,3,7.67,11.91,12.22,10.86,3-.69,2.23-10.86,2.34-13.25,1.73-37.58,14.65-78.91,45.07-103,12.53-9.92,26.77-17.26,41.08-24.24,2.73-1.34,11.27-3.62,12.8-6.33,2.5-4.42-6.22-9-8.93-10.78a81.35,81.35,0,0,0-23.63-10.4c-19.38-5.18-39.71-3.63-58.76,2.24-10,3.08-19.22,7.5-28.54,12.18-4,2-6.79,3.3-11,1.14-8-4.13-15.14-10.51-23.07-15a186.46,186.46,0,0,0-24.61-11.58,218.85,218.85,0,0,0-54-13c-39.3-4.36-78.84,1.25-116.36,13.26-38.08,12.19-74,30.61-108,51.43a804.57,804.57,0,0,0-96.1,68.39C128.69,393.47,81.6,451.61,63.07,521.87A125.42,125.42,0,0,1,83,512.64C98.1,507,113.93,503.18,129.46,499c7.29-2,21.52-7.65,26.36,1.83a4.92,4.92,0,0,1,1.14,5.67q-12,26.82-25.37,52.95C124.6,573,118,589.85,106,599.94c18.4,11.91,40.37,13.17,61.78,13.87,25.48.83,49.45-.67,72.63-12.25C276.59,583.48,305.3,552,332.83,523.1Zm-79.14-44.75c-10.92-5.37-22.77-8-34.82-9.11-9.32-.86-18.93.51-28.12-1.05-1.52-.26-1.29-2.46,0-2.85,20-6,46.53.93,63.94,11.29A1,1,0,0,1,253.69,478.35Zm-34.38,35.76a1.37,1.37,0,0,1-.73,2.64,49.93,49.93,0,0,0-26.77,1.55c-8.31,2.93-13.57,8.61-20.41,13.64-1.82,1.33-3.65-1.17-2.83-2.83C177.06,511.82,203.11,508,219.31,514.11Zm-35.9-5.8a25.57,25.57,0,0,1,15.3-4.45c1.17,0,1.5,1.87.29,2.1a40.81,40.81,0,0,0-13.86,5.31C183.25,512.44,181.57,509.51,183.41,508.31Zm-13.45,75a11.72,11.72,0,0,1,4.35,2.35c.64.58.18,1.94-.75,1.82a40.16,40.16,0,0,1-4.47-1c-1.42-.33-3.25-.45-4.46-1.28a1.32,1.32,0,0,1,.31-2.39C166.42,582.24,168.51,582.81,170,583.31Zm-1,7.22c3.92.66,7.87,1.12,11.8,1.76,1.3.21.77,1.93-.28,2.06a49.72,49.72,0,0,1-12.84-.07c-3.15-.39-6.25-.62-8.7-2.74a1.13,1.13,0,0,1,.49-1.88C162.63,588.84,165.86,590,169,590.53Zm9.48,7.78a195.64,195.64,0,0,0,25.28.18c1.38-.06,1.71,2.23.33,2.43-16.07,2.31-35.65,3.3-51-2.87-1.53-.61-1.5-3.23.43-3.11C161.87,595.47,170.09,597.61,178.49,598.31Zm26.25-13.87a30.86,30.86,0,1,1,.89,0Zm22.32-135.3a1.22,1.22,0,0,1-.64,2.35c-4.57-1.06-9.19-1-13.77-1.83a1.08,1.08,0,0,1,0-2.07C217.45,446.46,222.45,447.68,227.06,449.14ZM219,440.58a12.16,12.16,0,0,1,3.94.24c1.91.31,1.12,3.49-.82,2.95a11.63,11.63,0,0,1-3.37-1.31C218,442,218,440.71,219,440.58Zm19,18.87c1.8.71,1.09,3.59-.81,2.95a65.88,65.88,0,0,0-18-3.34c-4.84-.22-9.66.6-14.45-.08a1.3,1.3,0,0,1-.31-2.36C214.47,451.83,228.21,455.64,238,459.45Zm82.67-162.52c-1.57,8.85-9.48,17.17-15,24.08-6.57,8.27-13.92,15.89-21.22,23.52-15.62,16.31-31.29,32.13-42.92,51.7a.7.7,0,0,1-1.21-.71c9.39-18.46,22.76-34.7,36.34-50.22,7-8,13.94-16,20.6-24.24,6.52-8.09,11.82-19.6,19.65-26.3A2.25,2.25,0,0,1,320.64,296.93Zm4.28,14.53c1.44-1.57,3.4.44,2.7,2.08-7.26,17-23.61,31-36.7,43.58-15,14.46-31,28.36-43.62,45-.55.73-1.79,0-1.24-.72,11.57-15.89,24.87-30,38.68-44,7.2-7.27,14.37-14.58,21.1-22.3S318.07,318.94,324.92,311.46Zm-56.82,30.8c-10.82,15.53-22.77,30.21-31.57,47.05-.52,1-1.94.12-1.49-.88,7.25-16.39,17.05-31.32,26.9-46.23,5-7.63,10.07-15.26,14.42-23.31,4-7.45,6.38-16.07,11-23.08,1-1.45,3.51-1,3.44.93C290.21,312.58,276.8,329.76,268.1,342.26Zm17,186.08c9.73-12.49,19.92-26.07,32.62-35.68,1-.74,1.87.77,1.21,1.56-10.2,12.36-22.23,23.09-32.37,35.58C285.74,530.85,284.32,529.37,285.12,528.34ZM307.75,481c2-2.59,4.18-5.72,7.13-7.25a1.17,1.17,0,0,1,1.59,1.59c-1.44,2.86-4.15,5.14-6.17,7.63a91,91,0,0,0-6.65,9.31,1.33,1.33,0,0,1-2.29-1.34A78.52,78.52,0,0,1,307.75,481Zm-5-4c2.34-3.61,4.38-7.42,7.58-10.32.81-.73,2.53,0,2,1.19-1.64,4-4.43,7.2-7,10.64C304.17,479.93,301.64,478.58,302.71,476.93Zm13.76,6.73a.8.8,0,0,1,1.09,1.08c-2.1,3.44-5.2,6.1-7.94,9q-4.5,4.78-8.61,9.9c-.43.55-1.32-.17-.95-.73C304.38,496.3,309.5,487.71,316.47,483.66ZM290,540.15c-.66.71-2-.26-1.36-1.06,9.74-13.33,21.06-28.81,34.64-38.4a1,1,0,0,1,1.39,1.39c-4.7,6.66-10.92,12.17-16.45,18.13C302.13,526.81,296.14,533.52,290,540.15Zm19.51-11.91c6.06-8.06,12.59-16.51,20.67-22.63,1-.79,2,.83,1.3,1.68-6.39,7.61-13.58,14.4-19.68,22.29C310.82,530.91,308.52,529.62,309.55,528.24Zm27.74-15.47c-3.22,4.06-7.46,7.48-11.1,11.18s-7.17,7.67-10.77,11.48c-1.18,1.25-3.41-.42-2.4-1.85,5.85-8.34,13.56-17.94,22.39-23.24C337,509.36,338.31,511.48,337.29,512.77Zm10.61-11.85c-1.21,2.16-4.12.26-3.22-1.88,2.25-5.31,8.27-15.82-.19-18-3.14-.82-7,1.18-10.43.5a3.21,3.21,0,0,1-2.27-2.27c-1.81-6.31,6.11-15.85,8.63-21.32,2.36-5.1,6.88-13.38,6.05-19.3q1.69-4.77-4.63-5.32l-3-.07c-3.62-.17-7.32,1-10.72,2a3.28,3.28,0,0,1-4.12-3.13c0-5.68,1.53-10.55,3.09-16s4.51-10.8-4.4-11.77c-2.92-.32-7.71,2.1-10.44,2.87-2.46.7-4.23-1.58-3.84-3.84,1-5.82,5.44-18.48-1.91-22.08-3.16-1.55-.89-6.47,2.34-5.56,10.45,2.93,8.21,14.71,6.52,23.73,6.83-2.54,15.49-5.35,18.94,2,3.78,8-1.77,17.62-3.38,26.2,7.26-1.76,17.59-2.75,21.35,3.43,4.37,7.2-2,20.66-4.93,27.27-1.24,2.78-8.62,15.89-7.79,16.72,1.85,1.83,10-1.65,13.37.69C361.2,481.48,351,495.46,347.9,500.92Zm37-54.74A138.65,138.65,0,0,1,372.37,468c-1.42,2-4.7.21-3.38-2a145.47,145.47,0,0,0,13.3-27.84c.65-1.91,2.11-5.17,1.9-7.33-.37-3.84-4.11-5.78-7.86-6.72-5-1.25-11.12-.61-16.31-.9a3.06,3.06,0,0,1-2.61-4.55,74.06,74.06,0,0,0,8.24-23.28,43.16,43.16,0,0,0,.73-7.69q-4.56-2.67-9.11-5.35c-3.5-.78-10,1.5-13.55,2-2.7.4-4.72-1.95-3.49-4.53a64,64,0,0,0,4.68-12.66A42.15,42.15,0,0,0,346.1,361q1.25-5.27-6-5.66c-1.26,1.91-4.74,1.35-4.6-1.25.39-7.21,9.37-8.69,14-3.8,6.11,6.51,2.44,18.35-1.26,26.94,9-1.94,20.29-4.17,23.56,5.39C375.31,393,370.08,407,365,417.27c9.88-.14,23.95-.67,25.21,10.47C390.91,434.06,387.47,440.58,384.94,446.18ZM497.79,318.36c-13,17.16-31.06,30.43-44.83,47.08-15.28,18.49-27.35,39.84-40.86,59.62-1,1.45-3.32.14-2.39-1.4,12.16-20.26,23.91-41.5,38.21-60.35A278.14,278.14,0,0,1,471.24,337c7.4-7.56,14.75-15.75,23.67-21.54C496.59,314.39,499.08,316.66,497.79,318.36ZM606.5,282c-12.5,3.26-25.6,2.76-38.17,6.62-6.51,2-13,4.13-19.5,6.12-7,2.14-16,3.49-21,9.05-.83.91-2.45-.32-1.71-1.31,7.24-9.8,24.28-12.68,35.2-16.44,13.82-4.76,30-9.4,44.75-7.52C607.88,278.76,608.58,281.45,606.5,282Zm20,106.85c-7.34-11.44-11.53-25.76-16.1-38.48-5.06-14.05-8.9-28.42-12.64-42.87a1.46,1.46,0,0,1,2.81-.78c4.38,13.65,9.41,27.09,14.24,40.59,4.74,13.28,11.56,26.5,14.86,40.2A1.74,1.74,0,0,1,626.52,388.85Zm6.48-27c-6.8-7.4-11.37-17.36-16.19-26.13a281.49,281.49,0,0,1-13.38-27.58c-.64-1.56,1.82-2.44,2.63-1.11,5.53,9.11,10.75,18.41,16.08,27.64,4.76,8.25,10.83,16.32,14.25,25.21C637.13,361.76,634.32,363.25,633,361.82Zm4.66-28.64c-5.12-3-9.29-7.76-13.68-11.73-4.83-4.37-9.51-8.92-14.41-13.22-1.39-1.22.5-3.69,2-2.58,5.09,3.82,10.22,7.56,15,11.72s10.07,8.2,13.41,13.47A1.73,1.73,0,0,1,637.66,333.18Zm14.7-25.49c-12.21-7.11-24.19-14.87-36.2-22.34a2.1,2.1,0,0,1,2.12-3.63c7,3.48,13.79,7.22,20.52,11.16,5.73,3.36,12.08,6.84,16.08,12.29C656,306.72,653.85,308.56,652.36,307.69Zm14.22-14.2c-8-.8-16.11-5-23.6-7.7-8.45-3-17-5.82-25.65-8.09-3.08-.81-1.77-5.52,1.32-4.77,9.11,2.22,18.1,5,27.05,7.82,7.22,2.26,16.38,4.22,22.39,9.09C669.5,291,668.36,293.67,666.58,293.49Zm11.36-16.18c-9.66-.7-19.13-3.38-28.84-4.2a184.19,184.19,0,0,0-29.24-.48c-2,.16-2.44-3.18-.47-3.47,18.08-2.68,42.66-3.84,59.52,4.57A1.93,1.93,0,0,1,677.94,277.31ZM622.68,256.1c16.59-5.62,33.35-11.57,50.79-13.9,13.11-1.74,30.15-1.94,41.24,6.41,2.23,1.67,1,5.38-2,4.65-15.56-3.82-28.55-6.78-44.76-4.23-15,2.35-29.7,6.75-44.49,10A1.54,1.54,0,0,1,622.68,256.1Zm-7.06,8.53q17.32-3.11,34.73-5.83c14.87-2.33,35.41-7.48,48.26,2.81,1.55,1.24-.21,3.15-1.7,2.93-10.75-1.55-20.21-3.27-31.2-2.2-7,.67-13.94,1.57-20.9,2.43-9.57,1.17-19.14,2.26-28.7,3.45v-.08C614.18,268,613.48,265,615.62,264.63Zm29,50.2c1.22,1.62-1.32,3.26-2.66,2.05-9.18-8.22-20.48-14.14-30.26-21.63a1.79,1.79,0,0,1,1.8-3.09C624.59,297.93,637,304.69,644.65,314.83Zm-41.48-57c2.57-.37,6.24-1.52,8.75-.59a1.4,1.4,0,0,1,.33,2.52c-2,1.54-5.58,1.51-8,1.88S600.67,258.23,603.17,257.86Zm-4.42,7.65,5.54-.63a11.94,11.94,0,0,1,5.12,0,1.42,1.42,0,0,1,.34,2.56,11.83,11.83,0,0,1-5.06,1.08l-5.94.49C596.45,269.24,596.54,265.76,598.75,265.51Zm9,6.23a1.4,1.4,0,0,1,0,2.67c-5.27,1.49-11.56.87-17,1.31-1.67.13-2-2.65-.39-2.94C595.75,271.86,602.4,270.36,607.78,271.74Zm-32.41-9.31a16.58,16.58,0,0,0,8.22-4c2.4-2.13.67-5.48.19-8.21a1.61,1.61,0,0,1,2.66-1.54c2.21,1.73,3.59,3.49,3.81,6.46a7.74,7.74,0,0,1-2,5.85c-2.91,3.13-8.75,5.35-12.93,4.79A1.66,1.66,0,0,1,575.37,262.43Zm-23.79,12c4.53-1.32,12.09-4.14,10-11-.81-2.64-4.67-5.92-6.38-8.05-1.21-1.5-3.22-3.23-3-5.38.24-2.36,2.41-3.14,4.4-3.9,1.83-.71,4.42-.52,6.1-1.44,4.7-2.56,1.26-3.79-1.63-5.5a2.08,2.08,0,0,1,1-3.85c4.36.05,12.58,3.55,10.68,9.39-.69,2.13-3,3.34-4.94,4.12a31.84,31.84,0,0,1-4.87,1.31,36.74,36.74,0,0,0-4.62,1.05l.59.46c-.33,2.27,7,8.52,8.07,11.31a7.49,7.49,0,0,1,0,6.36c-2.61,5-10.25,6.13-15.17,6.69C550.86,276.12,550.74,274.66,551.58,274.42Zm-42-55.33c3.32.54,7.61,2,8.57,5.71.71,2.7-.72,4.15-2.21,5.65,6.58-.15,14.8.16,18.2,5,5.48,7.79-4.37,11-7.92,15.7-4.6,6.06,4,5.69,8.22,8,2.18,1.19,4.47,2.8,5.2,5.28,2.16,7.38-10.24,13.68-14.7,17.42-1.53,1.28-3.65-.74-2.22-2.22,2.5-2.58,7.07-5.81,8.72-9q5.35-3.27-1.53-7.51c-1.29-.3-2.58-.62-3.86-.94-3.07-.84-8.29-2.12-9.25-5.86-1-4,3.23-6.61,5.34-9.28,1.81-2.29,9.22-4.22,3-9.61-2.15-1.88-11.78-.79-14.75-.79a3.07,3.07,0,0,1-2.92-3.83c.89-4.71,5.78-5.49.22-9.35A2.41,2.41,0,0,1,509.63,219.09ZM443.24,218c3.71-1.3,5.14,1.18,6.33,4.17.3.76-.72,2-.44,2.73,1.41,3.84,3.63,2.9,6.87,2.83,5-.11,10-.63,15,.13s9.09,2.21,8.83,7.89c-.21,4.52-3.61,7.88-6.81,11.19a131.9,131.9,0,0,1,21.66-1.23c4.38.14,9.37,0,10.85,5,2.93,9.82-9.14,19-16,26.18,8.95.09,25.53-1.29,26.12,7.17.23,3.32-3.82,6.6-5.91,8.67a75.63,75.63,0,0,1-17.24,12.69,1.31,1.31,0,0,1-1.32-2.26,105.29,105.29,0,0,0,11.55-8.94q2.24-2,4.3-4.2,4.33-2.52-.53-5.09c-4.76-5.33-15.56-1.82-22.73-3.5a2.56,2.56,0,0,1-1.52-3.73c4.62-6.74,12-11.5,16-18.57,5.18-9-4.84-8-10.7-7.8A147.32,147.32,0,0,0,467,253.44c-2.29.39-4.47-1.83-3.14-4.09a34.17,34.17,0,0,1,4-5.4q1.28-1.35,2.61-2.64c3.54-2.06,3.51-4-.09-5.67-4.46-5.26-14.77-1.72-21.1-2.53-2.89-.37-5.1-.47-6.29-3.52-.55-1.41-.52-6.22,1.6-6.58A2.61,2.61,0,0,1,443.24,218Zm-63.55,17.7c7.76-2.77,23.41-6.64,30.85-1.07,5.53,4.14,3.52,11.8.89,18.13,7.28-1.82,14.61-3.79,21.95-4.95,3.21-.51,6.5-1.07,9.18,1.36s2.76,6.69,2.27,10a30.2,30.2,0,0,1-3.48,9.4c-1,1.83-2.08,3.63-3.18,5.42a3.82,3.82,0,0,1,2.7-1.1c8-.41,25.24-10.4,32.49-3.19,2.23,2.22,1.81,5.33.81,7.92-2.42,6.3-7.49,12.53-12,18.36,7.11-.84,16.59-1.46,18.69,4.33,1.13,3.13-1,5.91-2.8,8.21-4.74,6.08-10.67,11.57-15.93,17.2-1.43,1.53-3.47-.69-2.25-2.25,3.18-4,11.26-11,12.57-15.83,2.65-9.75-11.06-5.39-16.66-5a3,3,0,0,1-2.56-4.47c3.72-5.69,7.48-11.36,11.23-17,.76-1.16,4.61-5.27,3.52-6.8-.89-1.25-10.24,1.14-11.57,1.43-5.46,1.15-17.23,7-22.7,3.85s-.72-9.54,1.14-13a34,34,0,0,0,2.92-6.26L435.1,254c-1.28-.56-9.2,2-10.61,2.34l-17.68,3.89a3.14,3.14,0,0,1-3.5-4.56c2.85-6.06,8-16.55-2.23-17.08-6.79-.34-13.31,1-19.81,2.8C377.53,242.44,376.14,237,379.69,235.69Zm-34.84,16.19c4.55-4.2,10.87-3.61,14.77,1.38s3.73,11.2,2.07,17c7.55-3,17-5.75,23.3-2.2,3,1.71,4.34,4.38,4.62,7.76a21.28,21.28,0,0,1-1,6.71c-.58,2-1.15,4-1.71,6.05q.66,1.29,2.1.09c7.64,1.55,21.78-13.14,27.8-3.31,4.69,7.66-4.17,16.3-6.76,24.13,8.07-2.1,16.58-4.8,24.62-5.21,3.38-.17,6.95.59,8.35,4.08,2.13,5.31-2.65,12.81-5.33,17.1a67.88,67.88,0,0,1-6.87,9c-2,2.26-7.05,6.08-9.12,9.78,6.57-.26,14.75,1.14,16.7,7.52,2.12,6.94-8.08,18.06-11.57,23.44a2,2,0,0,1-3.41-2c2.12-3.8,4.78-7.75,6.33-11.82a11,11,0,0,0,1.6-9.28,18.78,18.78,0,0,0-12.76-1.49,3.13,3.13,0,0,1-3.86-2.95c-1.2-9.19,12.31-17.17,16.8-24,1.27-1.93,6.61-9.55,5.34-11.36-2-2.81-7.26-.37-9.61.17L407,317a3.34,3.34,0,0,1-4.16-3.17c-.61-8.35,6.21-12.57,7.46-20,1.44-8.52-10.23-2.15-14.77-.87-3.79,1.07-8,2.76-11.92,2.61a2.88,2.88,0,0,1-2.47-1.41c-2.35-4.7,2.23-9.52,2.31-14.3.24-13.63-19.77-3.85-26.11-1.47-2.41.91-4.55-2.24-3.28-4.27a15,15,0,0,0,2.9-9.87q.69-8.82-8.77-8C345.5,257.72,342.56,254,344.85,251.88Zm-32.6,26.61c12,.51,26.08,4.94,30.62,17.2a4.11,4.11,0,0,1,.8-.65c4.75-2.79,10.27-1.18,13.2,3.58,3.67,6,2.1,15.34,1.14,22.84,9.94-2.51,22.4-5.49,23.85,8.65.34,3.3-.5,6.48-1.33,9.63-.68,2.54-1.93,4.46-.64,7,1.55,3,3.91,1.6,6.95,1.32,5.21-.47,11.42-2,14.78,2.94,3.5,5.18,1,13.38-1,18.67-1.31,3.47-3,6.76-4.6,10.1-.82,1.72-3.58,5.59-3.32,7.31.49,3.21,3.69,3,5.74,4,13.91,6.57,4.74,20,3.67,31.35-.15,1.58-2.74,2.24-3,.41-.87-6,1.34-10.36,2.12-16.14,1.51-11.22-7.67-8-12.71-12.8-6.44-6.08,3.75-20,5.85-25.91,1.48-4.18,4.51-10.91-1.42-13.66-1.88-.88-6.91.63-9.21.84-3.51.32-8,1.69-10.64-1.37-3-3.52-.5-10.5.36-14.1,1.34-5.63,5.38-13.77-7.65-13.69-3.29,0-7.49,2.53-10.79,3.22-2,.42-4.47-.94-4.29-3.27.22-2.93,3.91-28.74-3.92-25.42a3.36,3.36,0,0,1-2.71,0c2,12-3.81,24.84-9.69,34.93-16.17,27.75-43.69,48.07-67.72,68.78,8.56,8.23,17,16.54,25.14,25.23,7,7.53,14.54,14.84,17.79,24.85.31,1-1,1.33-1.52.64-7-9.3-16.37-16.62-24.87-24.49C274.5,422.3,266,414,257.37,405.67a3.37,3.37,0,0,1-.94-3.65,4.16,4.16,0,0,1,1.5-2.7c20.08-17.48,42.09-34.22,58.89-55,8.35-10.33,18.06-24.57,18.24-38.36.26-19.17-24.12-19.76-37.67-16.33-28.32,7.17-46,34.58-58,59.13-13,26.49-26.37,53.11-36.05,81-2,5.71-11.1,3.24-9.1-2.51a494.46,494.46,0,0,1,20.94-49.85c7.7-16.28,14.95-33.1,24.1-48.63C254.48,302.9,279.84,277.09,312.25,278.49ZM206.7,339.15a18.31,18.31,0,0,0,10.62-1.42c1.67-.76,3.74,1.37,2.12,2.75a14,14,0,0,1-13.85,2.72A2.1,2.1,0,0,1,206.7,339.15ZM197.12,346c7,8.61,17.79.87,26.13-1,1.59-.36,3.22,1.78,1.74,3-5.56,4.52-13.3,7.5-20.56,7.08-4.72-.27-10.13-2.57-10.05-8C194.4,345.81,196.2,344.83,197.12,346Zm-5.49,7.85c2.62,1.65,4.48,3.8,7.53,4.77a14.43,14.43,0,0,0,9.49-.27c1.19-.45,1.79,1.34.83,2-5.78,3.7-17.78,3.15-19.86-4.92A1.38,1.38,0,0,1,191.63,353.81Zm-6.75,27c-7.63,9.35-18.12,17.08-27,25.22-9.08,8.31-18.34,16.53-27.16,25.13a1,1,0,0,1-1.35-1.36c8.79-9.48,17.35-19.12,26.5-28.27,8.24-8.25,16.58-17.78,26.38-24.17C184.47,375.92,186.33,379.05,184.88,380.84ZM99.22,452.26c6-14.91,17.7-27.65,28.25-39.53,11.63-13.09,24.87-28.66,39.92-37.8,2-1.2,3.68,1.43,2.33,3-10.91,12.77-25,23.35-36.58,35.65-11.25,11.94-24.41,24.79-31.59,39.65C100.92,454.54,98.69,453.59,99.22,452.26ZM73.34,505.91c3.77-14.38,12.08-28.7,19.77-41.31a1.33,1.33,0,0,1,2.29,1.34c-6.92,13.4-12.37,27.85-19.67,41A1.31,1.31,0,0,1,73.34,505.91Zm11.79.4c-.71,1-2.64.79-2.51-.68.87-10.52,8.17-21.82,13.61-30.61,6.41-10.37,14.33-19.42,22.81-28.14.79-.8,2,.4,1.23,1.23a187.48,187.48,0,0,0-20.42,29C94.44,486.39,91.34,497.76,85.13,506.31Zm19-21.09a656.67,656.67,0,0,1,45.5-53.76c16.49-17.62,33.18-36.87,52.09-51.91a2.1,2.1,0,0,1,3,3c-15.33,18.13-34.18,33.73-50.62,50.9a712.32,712.32,0,0,0-47,54C105.74,489.11,102.89,486.88,104.13,485.22Zm48.21-28c-11.88,13-21.46,27.15-31.06,41.84a2.21,2.21,0,0,1-3.82-2.23c14.62-30.16,42.91-55.64,68.23-76.79,1.21-1,2.88.59,1.75,1.75C175.85,433.77,163.55,445,152.34,457.27Zm-15,108.1c-2.14,10.09-9.16,19.65-15.31,27.71-1.13,1.47-3.65.11-2.55-1.49,5.94-8.66,9.83-18.53,15.67-27.15A1.21,1.21,0,0,1,137.33,565.37Zm5.94-16c3.35-9.23,6.41-18.71,10.65-27.59,5.85-12.24,11.75-21,6.76-34.82-.68-1.9,2-3.4,3.36-2,6.65,7.24,4.17,17.76.39,25.87-6.15,13.23-13,26.07-19,39.43C144.91,551.58,142.81,550.68,143.27,549.41Zm2.4,56.57a1.37,1.37,0,0,1,.36-2.68c15.84,0,31.33,3.13,47.3,2.09a143.2,143.2,0,0,0,50.51-12.81.74.74,0,0,1,.74,1.27c-14.13,8.67-30.12,13.59-46.55,15.51C181.37,611.31,161.61,612,145.67,606Z"/><path class="cls-3" d="M736.06,356a10.83,10.83,0,1,0,10.82-10.82A10.84,10.84,0,0,0,736.06,356Z"/><path class="cls-3" d="M220.64,769.17h0a10.83,10.83,0,0,0,0,21.65h0a10.83,10.83,0,0,0,0-21.65Z"/><circle class="cls-3" cx="789.04" cy="255.43" r="10.83"/><path class="cls-3" d="M441.44,581.23h0a10.83,10.83,0,0,0,0,21.65h0a10.83,10.83,0,0,0,0-21.65Z"/><path d="M957.51,453.1c-7.22-9-24.82-4.31-33.7-.88a62.4,62.4,0,0,0-8.41,3.93c-2.45,1.38-9,6-8.65,1.86.23-2.5,4.29-6.31,5.69-8.37,2.16-3.18,4.34-6.36,6.2-9.73,4.57-8.25,9.8-21.79,3.39-30.46-4.54-6.13-11.95-6.13-18.46-3.71a4.82,4.82,0,0,0-1.73-2.26c-14.6-10.71-32-14.72-49.69-16.66-20.49-2.24-42.12-3.94-62.54-.57-38,6.25-69.42,31.22-97,56.52a4.67,4.67,0,0,0-1.45-.27c-34.38-1-70,4.15-101.95,17.17-5,2-9.42,4.19-12.24,9-3.45,5.86-2.72,12.93-7.12,18.43-7.07,8.86-19,12.58-27.29,20.18-11,10.1-8.17,22-12.7,34.93-4.73,13.42-18.06,21.93-26.74,32.61-6,7.39-13.47,18.55-6.16,27.54,3.42,4.22,9,6.19,14.26,6.51,8.45.51,22.34-6.68,27.17,3.47-6.73,7.95-13.61,15.76-20.75,23.34-15.92,16.87-33.7,32.23-54.32,43.1-16.74,8.82-34.43,12.59-52.53,15.56A297.08,297.08,0,0,0,397,633.78a294.69,294.69,0,0,0-11.28-27.87c-3.57-7.69-7.23-16.71-14.5-21.68-4.67-3.18-11.09-6.94-16.39-3.21-4.59,3.24-5.44,9.66-6,14.8-2.36,23.36-6.2,45.11-16.71,66.41-9.08,18.4-22.24,31.81-39.85,42.23-7.56,4.47-15.45,8.34-23.41,12-7,3.26-18.38,5.87-23,12.54-8.72,12.62,14.8,25,23.46,29.26a104,104,0,0,0,53.46,9.94,133.64,133.64,0,0,0,28.93-5.48,160.42,160.42,0,0,0,15.38-5.6c3.7-1.55,8.46-5.19,12.38-5.72,2.45-.33,2.14-.42,4.54,1.36,2.09,1.55,4.2,3.05,6.33,4.54,3.46,2.43,6.94,4.84,10.53,7.09A199.11,199.11,0,0,0,429,778.84c37,15.55,78.19,20.36,118,16.46,72-7,138.9-39.67,199.72-78.48,12.34,21.24,40.22,28.34,60.59,13.48,11.08-8.08,15.58-20.4,19.54-33,5.34-17,10.54-34.06,15.81-51.08a4.23,4.23,0,0,0,.16-.82c49-44.38,88.92-98.24,105.14-163.7a4.29,4.29,0,0,0,.07-.5c.76-.68,1.54-1.33,2.26-2C956.41,473.16,964.16,461.36,957.51,453.1ZM520.25,598.51c-3.59.52-10.45,2.14-13.87-.48-5.81-4.45-.94-10.58,1.82-14.45,3.28-4.61,7.39-8.59,11.38-12.59,7.68-7.7,15.89-15.69,19.39-26.29,2.22-6.72,1.51-14,3.58-20.68,1.81-5.88,6-9.89,10.89-13.38,7.72-5.53,16.81-9.55,23.1-16.88A30.72,30.72,0,0,0,582.72,482c.81-2.78.88-6.1,2.42-8.6,2.36-3.85,7.49-5,11.41-6.44a254.33,254.33,0,0,1,86.33-15.12q-6.68,6.25-13.24,12.62a2,2,0,0,0-.65-.38c-9.75-3.59-23.41-.51-33.49.89a278.09,278.09,0,0,0-35.74,7.61c-1.89.52-1.08,3.28.81,2.91a326.62,326.62,0,0,1,37.11-5.05c8.47-.67,18.78.44,27.35-1.47q-7.63,7.47-15.12,15.09c-19.09-1.59-38.34.12-57.12,3.61-2,.37-1.1,3.25.82,3,17.21-2.34,34.18-2.49,51.41-1.65q-7,7.22-13.93,14.54c-10.47-1.6-23.13.7-33.25,2.82a.91.91,0,0,0,.24,1.78c5.7-.2,11.4-.49,17.1-.56,3.87-.05,7.84.36,11.75.39q-4.7,5-9.36,10.11A194.48,194.48,0,0,0,550,523.82c-1.77.47-1,2.93.73,2.67a330.53,330.53,0,0,1,62.48-3.64q-4.54,5-9,10c-14-1.25-28.14,0-42,2.55-1.32.25-1,2.5.32,2.36a315,315,0,0,1,38.23-1.1c-9.22,10.44-18.08,21.22-26.86,32.06a120.37,120.37,0,0,0-46,.91,1.35,1.35,0,0,0,.36,2.64,223.11,223.11,0,0,1,41.93,1l-4.85,6c-12-4.66-27.88-1.6-40.16-.2-2.1.24-2.18,3.53,0,3.35,6.77-.54,13.54-1.08,20.33-1.1,5.78,0,11.5.95,17.23,1.18q-4.65,5.79-9.34,11.55a1.51,1.51,0,0,0-.66-.64c-10.79-5.5-27.5-5.13-39-2.32-1.07.27-.7,1.66.24,1.78,6.33.78,12.7.94,19,1.62,6,.65,12.15,2.37,18.19,2.25-2.12,2.61-4.27,5.2-6.42,7.79C539.23,597.14,529.21,597.2,520.25,598.51Zm302.82,79.26c-3.56,11.51-6.1,24.77-12.43,35.12-13.32,21.77-43.57,20.28-55.9-1.19q8.44-5.52,16.74-11.15c-2.1,5.93-4.74,13-3.79,18.79.21,1.3,1.91,1.17,2.52.33,2.07-2.82,2.56-6.48,3.3-9.84.85-3.83,1.49-7.66,2.1-11.53a1.66,1.66,0,0,0,0-.55q3.84-2.62,7.62-5.25l2-1.43c-1.13,4.71-2.39,9.37-3.79,14-1.5,4.95-3.59,9.87-3.75,15.08,0,1.42,1.72,1.62,2.44.66,6.24-8.3,7.36-21.85,8.88-31.82a1.87,1.87,0,0,0,0-.58q5.31-3.76,10.57-7.67c-5,12.74-10.07,27-10.37,39.82,0,1.54,2.28,2.26,3,.81,3.52-7.11,4.91-15.17,6.91-22.82,1.91-7.27,3.89-14.51,5.78-21.78q5.79-4.37,11.47-8.89C812.54,680,808,692,805.06,704.24c-.44,1.8,2.2,3.09,3.1,1.31,6.54-12.85,9.94-27.45,13-41.53q4.19-3.39,8.3-6.87Q826.27,667.46,823.07,677.77Zm-11.39-18C781,684.13,747.86,706,713.91,725.58,679.34,745.52,643,763,604.65,774.33c-37.3,11-76.49,15.82-115.2,10.86a221.4,221.4,0,0,1-53.84-13.79c-17.61-7-32.45-17.14-48-27.7-4.39-3-7-3.18-11.78-1-8.74,4-17.29,8.1-26.56,10.9-19.2,5.81-39.72,7.53-59.26,2.33a84.23,84.23,0,0,1-25-11.08c-2.83-1.88-9.94-5.81-9.65-9.76s6.86-5.29,10.31-6.85c15-6.77,30.12-13.76,43.43-23.57,31.21-23,45.55-63.21,48.65-100.75.24-3-.44-9.69,1.26-12.34,3.36-5.21,9.92,2.9,12.14,6.4,5.87,9.25,10,20.1,13.85,30.3a285.81,285.81,0,0,1,16.37,66.18,5.41,5.41,0,0,0,.33,1.26c-4.43.69-8.88,1.36-13.34,2.1-6,1-3.44,10.08,2.51,9.1,21.36-3.5,43-5.34,63.22-13.56,17-6.89,32.37-16.88,46.44-28.55,31.89-26.42,55.78-61,82.12-92.56q40.86-49,86.36-93.93c28-27.57,57.17-57.65,93.5-74,23.07-10.38,46.7-11,71.56-9.52,21.34,1.3,43.21,3.23,61.24,15.58-11.89,9.4-18.77,25.43-25.91,38.34q-14.65,26.48-27.7,53.78a4.8,4.8,0,0,0,1.29,5.89c4.7,7.8,14.9,4.92,22.62,3.08,16.31-3.9,32.89-7.43,48.83-12.68a125.67,125.67,0,0,0,21.61-9.19C915.77,558.85,867.56,615.48,811.68,659.77Zm129-184.54c-11.71,9.63-26.93,14.33-41.32,18.21-4.52,1.21-44.52,12.93-48,10.8q9.71-20.08,20.22-39.74c7.1-13.21,13.86-27.49,22.87-39.52,3.23-4.3,17.88-19.37,20.89-5.92,1.5,6.68-4.47,15.75-7.82,21-4.09,6.42-16,17.59-10.6,26,6,9.38,16.59,2,23.24-1.8,5.39-3.06,19.19-9.27,25.42-6.57C955.18,461.89,945.37,471.35,940.66,475.23Z"/><path d="M764.29,454.17a31,31,0,1,0,31-31A31,31,0,0,0,764.29,454.17Zm52.58,0A21.57,21.57,0,1,1,795.3,432.6,21.6,21.6,0,0,1,816.87,454.17Z"/><circle cx="798.26" cy="451.45" r="14.53" transform="translate(-82.37 195.48) rotate(-13.28)"/><path d="M802.37,580.48c2.15-5.69-7-8.15-9.11-2.51-10.45,27.63-24.58,53.87-38.32,80-12.75,24.2-31.19,51.08-59.72,57.41-13.67,3-38,1.65-37.07-17.54.65-13.76,10.78-27.74,19.39-37.8,17.4-20.33,39.84-36.45,60.41-53.37a4,4,0,0,0,1.59-3.17,3.46,3.46,0,0,0-1-3.15c-8.36-8.51-16.65-17.1-25.17-25.45-8.27-8.09-17.39-15.65-24.13-25.12-.51-.73-1.8-.32-1.51.64,3,10.09,10.33,17.66,17.14,25.38,7.85,8.89,16.07,17.41,24.37,25.87-24.64,20.06-52.72,39.62-69.69,67-6,9.74-12.16,22.28-10.65,34.19a2.56,2.56,0,0,0-2,0c-8.81,3.45-4.15-22.75-3.88-25.35.25-2.38-2.35-3.62-4.29-3.27-3.5.64-7.39,2.77-10.87,2.92-10.22.45-9.52-4.51-8.23-10.67,1-4.73,4.31-10.26,2.68-15.32-4.11-12.83-25.64,7.92-23.13-12.82.93-7.72,14.93-21.61,8.35-29.19-4.28-4.94-11.54.19-13.06-9.84-1-6.48,3.74-12.73,2.94-19.54a1.53,1.53,0,0,0-3.06,0c-.92,7.54-6.06,14.69-4.62,22.49,1.09,5.9,4.08,6.56,8.53,9.24,2.15,1.3,4,2.14,3.6,5.82-.22,2.08-2.41,4.76-3.35,6.56a88.73,88.73,0,0,0-4.73,10c-1.86,5-4.42,13.71-.19,18.34,3.78,4.14,10.65,2.45,15.62,2.13,6.94-.44,6.41,2.11,4.73,7.64-.93,3.1-1.91,6.15-1.88,9.42.12,15,13.21,12.58,23.6,10.36-1.16,7.49-3,16.92.54,23,2.84,4.82,8.29,6.47,13.12,3.82a2.73,2.73,0,0,0,.73-.6c4.25,12.44,18.21,17.27,30.27,18.07,32.41,2.15,58.33-22.84,74.32-48.33,9.57-15.27,17.29-31.88,25.45-47.94A499.71,499.71,0,0,0,802.37,580.48Z"/><path d="M842.58,575.59c-16.91,16.71-36.19,31.77-52,49.47-1.49,1.66.53,4.81,2.55,3.3,18.57-14,35.1-31.86,51.48-48.29a660,660,0,0,0,49.14-54.58c1.45-1.83-1.09-4.45-2.61-2.61A715.93,715.93,0,0,1,842.58,575.59Z"/><path d="M867.27,579.81a1,1,0,0,0-1.36-1.36c-9.06,8.36-18.55,16.32-27.88,24.38-9.12,7.89-19.84,15.33-27.71,24.46-1.55,1.81.42,4.82,2.66,3.45,10-6.1,18.57-15.43,27-23.44C849.41,598.42,858.22,589,867.27,579.81Z"/><path d="M895.66,557.23c-7.59,14.64-21.15,27.17-32.72,38.77-11.93,12-26.29,22.15-37.54,34.61a1.92,1.92,0,0,0,2.32,3c14.84-8.45,28.13-23.15,39.79-35.46,11.18-11.8,23.8-24.53,30.35-39.64C898.49,557.05,896.43,555.75,895.66,557.23Z"/><path d="M898,533.41a187.33,187.33,0,0,1-21.2,28.42.86.86,0,0,0,1.22,1.22c8.73-8.47,16.9-17.33,23.61-27.52,5.72-8.71,13.24-19.64,14.43-30.2.17-1.5-1.81-1.59-2.51-.68C907.13,513,903.66,524.35,898,533.41Z"/><path d="M904.45,546.05c8-12.39,16.74-26.48,20.91-40.74a1.31,1.31,0,0,0-2.39-1c-7.66,12.92-13.51,27.21-20.81,40.41A1.33,1.33,0,0,0,904.45,546.05Z"/><path d="M808.92,586.22c-1.17,1.14.53,2.71,1.75,1.75,25.92-20.45,54.89-45.12,70.35-74.89a2.21,2.21,0,0,0-3.82-2.23c-10,14.42-20,28.26-32.22,40.94C833.43,563.77,820.83,574.63,808.92,586.22Z"/><path d="M709.93,647.79c14.18-13.55,27.85-27.29,39.86-42.84.5-.64-.62-1.51-1.13-.87-12.84,16-28.73,29.19-43.87,42.93-13.79,12.51-31.09,26.3-39,43.57-.76,1.67,1.25,3.57,2.7,2.08,7.06-7.28,12.86-15.7,19.75-23.17S702.53,654.86,709.93,647.79Z"/><path d="M676,709.57c3.77-3.05,5.92-7.27,8.73-11.18,3.65-5.07,7.63-9.84,11.68-14.59,6.88-8.06,14-15.86,21.24-23.64,14-15.12,27.79-31,37.69-49.15a.7.7,0,0,0-1.21-.71c-12.18,19.26-28.3,34.63-44.39,50.52-7.51,7.42-15.08,14.84-21.87,22.93-5.64,6.71-13.8,14.93-15.6,23.65A2.25,2.25,0,0,0,676,709.57Z"/><path d="M705.55,709.34c5-7,7.66-15.94,12.05-23.44,4.49-7.68,9.59-15,14.69-22.23,10.25-14.63,20.46-29.26,28.16-45.43.47-1-1-1.86-1.5-.87-9.25,16.58-21.61,30.9-32.85,46.11-9.05,12.25-23,29.12-24,44.93C702,710.4,704.58,710.71,705.55,709.34Z"/><path d="M854.48,459c-6.36,13.19-13.58,25.84-20.08,38.9-4,8-6.71,18.43-.27,25.86,1.32,1.52,4-.09,3.36-2-4.59-13.93,1.62-22.54,7.78-34.62,4.47-8.76,7.79-18.14,11.4-27.27C857.16,458.62,855.06,457.73,854.48,459Z"/><path d="M898.92,436.4c-4.43,16.57-17.93,28.79-22.64,45-.63,2.17,2.36,3.28,3.54,1.49,8.95-13.59,18.13-29.73,21.41-45.8C901.53,435.54,899.32,434.9,898.92,436.4Z"/><path d="M939.31,466.85c-7.92,9.2-20.85,10.8-31.09,16.29a1.28,1.28,0,0,0,.65,2.37c6.34.11,12.84-3.12,18.5-5.78a33.62,33.62,0,0,0,13.86-11.4C942,467.2,940.22,465.81,939.31,466.85Z"/><path d="M779.7,493.08c16.06,6.56,42.16,3.42,51.13-13.64.89-1.7-1-4.08-2.82-2.83-7,4.84-12.4,10.36-20.81,13.05a49.88,49.88,0,0,1-26.77.79A1.37,1.37,0,0,0,779.7,493.08Z"/><path d="M800,503.89a25.84,25.84,0,0,0,15.43-4,1.72,1.72,0,0,0-1.73-3,41.1,41.1,0,0,1-14,4.9C798.47,502,798.85,503.84,800,503.89Z"/><path d="M663.54,493.58c4.63-2.56,8.64-6.74,12.36-10.46A109.94,109.94,0,0,0,686.56,471c1.05-1.42-1.21-3.06-2.41-1.86-3.7,3.72-7.31,7.54-11.09,11.19s-8.11,6.87-11.4,10.85A1.56,1.56,0,0,0,663.54,493.58Z"/><path d="M668.58,498.46c8.16-5.82,14.88-14,21.09-21.8,1.05-1.32-.8-3.21-1.88-1.88-6.38,7.81-13.83,14.49-20.51,22C666.53,497.63,667.54,499.2,668.58,498.46Z"/><path d="M674,502.18c-.61.82.58,1.93,1.39,1.39,13.76-9.13,25.53-24.3,35.56-37.26.66-.85-.43-2.05-1.23-1.22-6.27,6.43-12.43,13-18.73,19.38C685.23,490.29,678.85,495.64,674,502.18Z"/><path d="M679.49,510.19c-.7.8.22,2.26,1.2,1.57,13-9.26,23.54-22.56,33.6-34.78.84-1-.58-2.47-1.46-1.46C702.36,487.73,690,498.12,679.49,510.19Z"/><path d="M697.69,501.25q-4.25,5-8.87,9.65c-2.83,2.84-6,5.41-8.19,8.8-.45.7.41,1.45,1.08,1.09,7.09-3.84,12.42-12.3,16.93-18.8C699,501.43,698.14,500.73,697.69,501.25Z"/><path d="M694.72,512.6a91.75,91.75,0,0,1-6.88,9.08c-2.08,2.42-4.9,4.66-6.4,7.49a1.17,1.17,0,0,0,1.59,1.59c3.08-1.45,5.51-4.77,7.59-7.38a81.52,81.52,0,0,0,6.4-9.44A1.33,1.33,0,0,0,694.72,512.6Z"/><path d="M692.93,526.06c-2.68,3.36-5.68,6.5-7.42,10.45a1.22,1.22,0,0,0,1.91,1.48c3.28-2.82,5.42-6.58,7.86-10.12C696.23,526.49,694,524.73,692.93,526.06Z"/><path d="M645.07,527.7c3.11,2.23,11.92-.68,13.36,1,.79.93-7.19,14-8.39,16.58-3.1,6.52-9.85,19.83-5.6,27.12,3.63,6.2,13.91,5.5,21.22,3.94-1.84,8.57-7.76,18-4.09,26.18,3.28,7.29,11.92,4.79,18.78,2.45-2,9.12-4.31,20.69,6,23.9,3.27,1,5.42-3.94,2.35-5.56-6.93-3.64-2.35-16.49-1.2-22.17a3.16,3.16,0,0,0-3.84-3.84c-2.71.69-7.64,3-10.52,2.59-8.79-1.31-5.63-6.76-4-12s3.37-10.22,3.51-15.87a3.28,3.28,0,0,0-4.11-3.14,39.46,39.46,0,0,1-10.78,1.71c-4.93,0-7-.8-7.33-5.69-.46-6.13,4-13.91,6.61-19.12,2.72-5.45,10.81-14.66,9.16-21.08a3.24,3.24,0,0,0-2.26-2.27c-3.39-.77-7.35,1.15-10.45.23-8.32-2.47-2-12.78.42-18.08,1-2.14-2-4-3.21-1.88C647.53,508,636.84,521.8,645.07,527.7Z"/><path d="M631.35,585.81c-5.28,10-10.28,22.78-7.93,33.43,2.38,10.84,14.3,8.65,23.6,6.94-4,8.53-8,20.36-2,27,4.56,5,13.42,3.6,14-3.55.22-2.66-3.34-3.06-4.61-1.25q-8-1.14-5.53-7.51c.3-1.56.67-3.11,1.12-4.64a65.81,65.81,0,0,1,5.06-12.51c.95-1.84-.18-4.94-2.67-4.64-4.4.54-9.17,1.69-13.6,1.66-6.64,0-10-.57-9.57-7.75.53-10,4.82-20,9.75-28.54a3.06,3.06,0,0,0-2.61-4.55c-5.17-.43-11.32,0-16.28-1.36-3.71-1.06-7.34-3.17-7.57-7-.14-2.17,1.41-5.39,2.11-7.27a145.9,145.9,0,0,1,14.08-27.43c1.39-2.15-1.92-4-3.38-2a138.17,138.17,0,0,0-13.19,21.52c-2.65,5.48-6.29,12-5.73,18.3C607.43,585.79,621.48,585.69,631.35,585.81Z"/><path d="M643.6,747.36q-9.32-.57-8.48-8.41a15,15,0,0,1,3.22-9.77c1.37-2.06-.92-5.09-3.29-4.27-6.45,2.22-26.62,11.42-25.95-2.29.23-4.84,4.88-9.42,2.64-14.23a2.85,2.85,0,0,0-2.47-1.41c-3.94-.26-8.17,1.34-12,2.3-4.62,1.16-16.43,7.23-14.63-1.38,1.55-7.43,8.37-11.46,8-19.84a3.34,3.34,0,0,0-4.16-3.17L566.09,689c-1.84.36-8.31,2.88-9.51-.22-1-2.45,4.87-10,6.36-12.07,4.8-6.59,17.68-13.57,16.74-22.7a3.12,3.12,0,0,0-3.86-2.94c-2.78.4-10.56.73-12.7-1.92s-.18-5.23,1.17-7.76c2.37-4.43,4.87-8.79,7.44-13.11,1.32-2.21-2-4.06-3.4-2-3.72,5.38-14.07,16-12.16,23.12,1.73,6.41,9.91,8,16.47,7.9-2.17,3.65-7.43,7.41-9.47,9.6a68.08,68.08,0,0,0-7.1,8.79c-2.72,4.08-7.77,11.66-5.74,17,1.44,3.74,5.32,4.37,8.84,4.14,8-.51,16.19-2.69,24.16-4.47-2.78,7.78-12,16.25-7.45,24.05,1.59,2.7,3.89,3.39,6.92,3.26s6.5-1.9,9.47-2.79c3.43-1,8.47-1.36,11.56-3.11a2.51,2.51,0,0,0,2.48-1.36q-.7,2.31-1.42,4.61c-.79,2.59-2,5.37-2.1,8.13-.13,3.39.59,6.44,3.3,8.68,5.8,4.81,16.51,2,24.44-.87-1.83,5.76-2.17,12,1.64,17.11s10.09,5.73,14.74,1.66C649.3,749.55,646.24,745.91,643.6,747.36Z"/><path d="M610.08,761.16c-6.55,1.61-13.12,2.78-19.89,2.22-10.11-.82-4.68-11.16-1.62-17.2a3.15,3.15,0,0,0-3.51-4.56L567.28,745c-1.39.27-9.43,2.63-10.66,2l-2.43-6.49a35.27,35.27,0,0,1,3.12-6.16c2-3.4,6.76-9.75,1.37-12.92s-17.28,2.29-22.8,3.29c-1.35.24-10.76,2.35-11.61,1.08-1-1.46,3.09-5.7,3.85-6.78q5.85-8.36,11.69-16.72c1.27-1.83-.42-4.55-2.56-4.46-5.67.24-19.45,4.23-16.38-5.51,1.51-4.82,9.66-11.47,13-15.46,1.29-1.55-.78-3.72-2.24-2.25-5.42,5.47-11.55,10.79-16.43,16.76-1.87,2.29-4,4.91-2.94,8.16,2,5.77,11.41,5.43,18.53,4.78-4.66,5.72-10,11.86-12.52,18.09-1.06,2.59-1.49,5.7.7,7.93,7.27,7.39,24.41-2.39,32.6-2.37a3.71,3.71,0,0,0,2.58-.92q-1.71,2.63-3.32,5.33a30.18,30.18,0,0,0-3.72,9.31c-.57,3.26-.55,7.55,2.08,10s6,2,9.16,1.53c7.35-1,14.7-2.72,22-4.33-2.82,6.29-5.05,13.95.44,18.23,7.32,5.71,23.05,2.26,30.88-.29C615.28,765.71,613.81,760.25,610.08,761.16Z"/><path d="M546.24,777.79c2.24-.32,2.38-5.16,1.81-6.62-1.18-3.07-3.3-3.19-6.22-3.63a64.72,64.72,0,0,0-10-.29c-4.8,0-10.42,2-11.68-3.66-1-4.55.64-4.34,3.57-7.45a32.72,32.72,0,0,0,4.17-5.31c1.43-2.28-.93-4.4-3.15-4.09a144.07,144.07,0,0,1-18.78,1.51c-2.45,0-6.57.79-8.92-.16-5.63-2.28-4.94-5.56-2-9.58,4.45-6.07,10.85-10.37,15.3-16.5,1-1.34-.05-3.34-1.52-3.73-7.08-1.87-18,1.37-22.56-4.14-3.72-4.51.19-5.87,4.07-9.19a106.7,106.7,0,0,1,11.79-8.6,1.31,1.31,0,0,0-1.32-2.26c-5.85,3-24.11,12.47-23.69,20.74s17,7.57,25.86,7.88c-7.2,7-20.26,16.67-16.44,26.37,1.73,4.39,6.32,4.39,10.5,4.62a137.11,137.11,0,0,0,21.64-.66c-3.42,3.34-7.11,6.75-7.2,11.46-.12,6.59,6.41,7.51,11.64,8.09,4.54.51,9.26-.48,13.75.15,7.22,1,3.28,1.51,4.51,5.82.91,3.18,2.75,5.38,6.28,4.25C550.89,781.76,549.48,777.33,546.24,777.79Z"/><path d="M483.13,775.51c-5.3-3.9-.44-4.84.56-9.39a3.08,3.08,0,0,0-2.92-3.83c-3-.07-12.64.73-14.72-1.22-5.81-5.45,1.67-7.33,3.45-9.55,2.12-2.64,6.59-5.09,5.52-9.14-1-3.76-6-5.12-9.13-6.07-1.27-.36-2.55-.71-3.83-1q-6.6-4.49-1.21-7.57c1.75-3.11,6.38-6.2,9-8.71,1.48-1.45-.68-3.44-2.22-2.22-4.5,3.56-17.24,9.63-15.14,17,.72,2.53,2.92,4.17,5.1,5.39,4.88,2.73,14.59,3.06,6.2,9.45-4.53,3.45-10.8,7.84-6.58,14.29,3.18,4.85,11.44,5.38,18,5.42-1.44,1.36-2.81,2.72-2.4,5.26.64,3.92,5.11,5.63,8.51,6.28A2.41,2.41,0,0,0,483.13,775.51Z"/><path d="M440.64,721.8c-5,.42-12.66,1.37-15.36,6.32a7.49,7.49,0,0,0-.13,6.36c.85,2.37,8.68,10.6,9.07,12.92-.52-1.39-9.25.7-10.4,1.14-1.92.74-4.27,1.91-5,4-2,5.8,6.15,9.45,10.49,9.62,2.13.08,2.7-2.8,1-3.85-2.9-1.83-6.23-3.13-1.35-5.54,2-1,4.76-.65,6.9-1.56,1.89-.79,3.29-1.4,3.67-3.53.49-2.7-2.79-5.31-4.22-7.2-1.29-1.67-4.3-4.32-4.82-6.48-1.67-6.95,5.64-9.42,10.32-10.64C441.71,723.16,441.57,721.71,440.64,721.8Z"/><path d="M417.21,731.46A17,17,0,0,0,404,735.61a7.8,7.8,0,0,0-2.33,6.08c.17,2.92,1.51,4.76,3.66,6.52a1.6,1.6,0,0,0,2.65-1.54c-.41-2.85-2.05-6.19.6-8.29a16.79,16.79,0,0,1,8.22-3.66C418.49,734.58,419.18,731.78,417.21,731.46Z"/><path d="M379.66,648.84c4.44,13.62,9.1,27.18,13.09,40.94a1.46,1.46,0,0,0,2.81-.78c-3.33-14.56-6.78-29-11.44-43.24-4.23-12.9-8-27.2-15-38.88a1.74,1.74,0,0,0-3.17,1.33C368.84,622,375.29,635.42,379.66,648.84Z"/><path d="M372,661.29c5.06,9.37,10,18.8,15.28,28.05.78,1.37,3.23.45,2.63-1.11a280.71,280.71,0,0,0-12.62-28c-4.58-8.9-8.88-19-15.47-26.55-1.31-1.5-4.06.09-3.39,2C361.62,644.67,367.49,652.91,372,661.29Z"/><path d="M366.33,677.7c4.82,4.47,10,8.48,15.13,12.57,1.61,1.28,3.9-.85,2.32-2.32-4.78-4.45-9.34-9.13-14.06-13.64-4.27-4.09-8.3-8.94-13.34-12.08a1.72,1.72,0,0,0-2.34,2.34C357.07,669.68,362,673.7,366.33,677.7Z"/><path d="M368.47,736.76c-15.7,3-31.43,7.43-47.35,9.08-15.31,1.59-27.57-1.83-42.06-5.82-2.28-.63-4.54,2.61-2.47,4.26,24.65,19.66,66.76,3.42,92.7-4.57A1.53,1.53,0,0,0,368.47,736.76Z"/><path d="M376.11,727.88v-.09c-9.6.93-19.21,1.74-28.81,2.65-7,.66-14,1.37-21,1.85-11,.75-20.44-1.26-31.09-3.09-1.54-.27-3.18,1.68-1.71,2.93,13,11,34.71,5.85,50,3.88q16.56-2.13,33.07-4.63C378.74,731.05,378,728.08,376.11,727.88Z"/><path d="M313.58,720.55c16.37,8.76,41,8.41,58.9,6.27,2.2-.27,2.33-3.66,0-3.55A182.09,182.09,0,0,1,343.24,722c-9.67-1.09-19.06-4-28.69-5C312.62,716.79,312,719.7,313.58,720.55Z"/><path d="M347,714.46c8.87,3,17.77,6.1,26.82,8.57,3.07.84,4.36-3.88,1.31-4.77-8.61-2.51-17.05-5.58-25.42-8.81-7.42-2.86-15.42-7.3-23.36-8.33-1.83-.24-2.84,2.51-1.51,3.65C330.67,709.78,339.9,712,347,714.46Z"/><path d="M354.29,702.58q9.88,6.17,20.12,11.69a2.1,2.1,0,0,0,2.12-3.63C364.74,702.84,353,694.75,341,687.3c-1.51-.94-3.59,1-2.52,2.52C342.31,695.4,348.64,699.05,354.29,702.58Z"/><path d="M379.44,704c1.7.95,3.8-1.48,2.17-2.81-9.69-7.85-20.94-14.17-30-22.75-1.34-1.26-3.82.43-2.66,2.06C356.27,690.78,368.57,697.89,379.44,704Z"/><path d="M467,696.25c.84-1.07-.53-2.57-1.54-1.53-5.24,5.41-14.28,6.51-21.31,8.45-6.57,1.81-13.11,3.76-19.68,5.58-12.67,3.51-25.74,2.64-38.32,5.55-1.62.37-1.76,3.14,0,3.41,13.85,2.17,29.25-1.3,42.5-5.31,7.84-2.37,15.61-5,23.37-7.64C457.78,702.81,463.06,701.23,467,696.25Z"/><path d="M384.61,724.51c5.35,1.54,12,.2,17.46-.57,1.66-.24,1.27-3-.4-2.94-5.48.29-11.74-.5-17.06.84A1.4,1.4,0,0,0,384.61,724.51Z"/><path d="M393.48,727.44c-3.41.19-7.92-.31-11,1.29a1.42,1.42,0,0,0,.33,2.56,11.87,11.87,0,0,0,5.14.17l5.55-.48C395.72,730.79,395.78,727.32,393.48,727.44Z"/><path d="M388.33,734.61c-2.57.32-6.41.18-8.59,1.73a1.41,1.41,0,0,0,.33,2.53c2.37.94,5.81,0,8.26-.31S390.84,734.3,388.33,734.61Z"/><path d="M498.67,683.9c9.08-5.53,16.67-13.55,24.28-20.9,8.74-8.42,17.32-17.11,24.84-26.65,14.38-18.25,26.55-38.65,39-58.21,1-1.53-1.36-2.81-2.39-1.4-13.74,19-26.15,39.38-41.4,57.17-14.32,16.72-33.19,29.59-46.91,46.69C494.73,682.34,496.48,685.24,498.67,683.9Z"/><path d="M557.4,514.86c9.74.79,20.28-2.57,29.82-4.26,1.64-.29,1.28-3.07-.4-2.93-9.66.82-20.71.27-29.91,3.53A1.87,1.87,0,0,0,557.4,514.86Z"/><path d="M585.3,499.92c13.51-1.66,27.28-1.6,40.71-3.44a1.27,1.27,0,0,0,0-2.42c-13.22-1.83-28.1.69-41,3.76C583.87,498.09,584.08,500.07,585.3,499.92Z"/><path d="M605.65,481.29c13.89-1.59,28.2-.81,42-2.62,1.47-.19,2-2.29.37-2.75-13.6-3.81-29.19,1.15-42.52,4C604.71,480.08,604.86,481.38,605.65,481.29Z"/><path d="M545.85,546.88c10.6,1,23.3,2.91,33.76.41a1.43,1.43,0,0,0,0-2.74c-10.47-2.5-23.17-.61-33.76.41A1,1,0,0,0,545.85,546.88Z"/><path d="M570.82,554.82c-7-2.84-16.7-1.73-24.06-1.16a1.38,1.38,0,0,0,0,2.76c7.56.59,16.59,2.6,24.06,1.14C572.34,557.26,572,555.29,570.82,554.82Z"/><path d="M790.76,652.54c-7.2-.88-15.42,1.85-21.08,6.21a1.8,1.8,0,0,0,1.38,3.27c8.05-1.57,19.35-9,25.87-.54a1.62,1.62,0,0,0,3-.81C800.14,655.6,795.26,653.09,790.76,652.54Z"/><path d="M796.49,645.51a14.21,14.21,0,0,0-11.32,1.63c-1,.61-.35,2.37.83,2a14.43,14.43,0,0,1,9.49,0c3,1,4.84,3.28,7.4,5,1.05.7,2.25-.45,2-1.54C804.07,648.84,799.93,646.42,796.49,645.51Z"/><path d="M788.55,664.28a13.94,13.94,0,0,0-13.9,2.38c-1.69,1.36.48,3.45,2.13,2.75a18.28,18.28,0,0,1,10.66-1.08A2.1,2.1,0,0,0,788.55,664.28Z"/><path d="M743.27,529.56c17,10.82,43.51,18.65,63.62,13.05,1.34-.38,1.47-2.55,0-2.85-9.19-1.89-19-.74-28.34-1.86-11.9-1.41-23.64-4.44-34.27-10.06A1,1,0,0,0,743.27,529.56Z"/><path d="M792.66,548.57c-4.82-.87-9.74-.11-14.62-.49a65,65,0,0,1-17.7-3.83c-1.61-.6-2.78,2.11-1.18,2.79,9.66,4.11,23.62,8.58,33.81,3.89A1.3,1.3,0,0,0,792.66,548.57Z"/><path d="M784.5,559.74a1.08,1.08,0,0,0,0-2.06c-4.56-1-9.19-1-13.72-2.22a1.22,1.22,0,0,0-.65,2.35C774.72,559.4,779.65,560.74,784.5,559.74Z"/><path d="M774.9,563.3c-1.9-.59-2.74,2.58-.82,3a12.16,12.16,0,0,0,3.65.37,1,1,0,0,0,.52-1.93A11.59,11.59,0,0,0,774.9,563.3Z"/><path d="M757.18,414a143.86,143.86,0,0,1,49.54-11.4c16.51-.78,32.36,2.92,48.72,3.35,1.65,0,1.7-2.14.36-2.68-15.74-6.37-35.63-6.34-52.32-4.84-16.44,1.48-32.54,6-46.87,14.23C755.91,413.07,756.39,414.35,757.18,414Z"/><path d="M848.56,411.16c-15.23-6.6-34.81-6.34-51-4.48-1.53.18-1.63,2.5,0,2.47a197.72,197.72,0,0,1,25.29.9c8.39.91,16.52,3.29,24.89,4.06C849.28,414.25,850,411.78,848.56,411.16Z"/><path d="M841.6,419.21a1.13,1.13,0,0,0,.5-1.88c-2.4-2.35-6.08-2.61-9.3-3.05a49.52,49.52,0,0,0-12.16-.34c-1.08.11-1.55,1.82-.28,2.07,3.87.74,7.78,1.31,11.66,2.07C835.16,418.69,838.44,420.05,841.6,419.21Z"/><path d="M832.12,422.21A45.67,45.67,0,0,0,827.7,421a1.08,1.08,0,0,0-1,1.79c2,1.93,6.55,4,9.3,3.1a1.33,1.33,0,0,0,.32-2.39C835.15,422.72,833.46,422.55,832.12,422.21Z"/><path d="M865.22,445.08c6.08-8.46,10.24-18.22,16.43-26.71,1-1.34-1.26-3.09-2.32-1.79-6.45,8-13.86,17.43-16.3,27.57A1.21,1.21,0,0,0,865.22,445.08Z"/><path d="M213.74,620.89c37.12-7.65,67.43-33.14,93.95-58.9a4.85,4.85,0,0,0,1.36.2c34.47,0,69.73-6.13,101.43-20,4.93-2.15,9.33-4.38,12-9.24,3.16-5.65,2.36-12.47,6.07-17.93,6.54-9.6,19-13.67,27.22-21.65,10.74-10.46,7.61-22.14,11.79-35.23,4.25-13.36,17-22.17,25.34-32.83,5.95-7.57,13.59-19.23,6-28.26-3.46-4.1-9.17-6.06-14.4-6.2-8.31-.22-22.28,7.28-27.33-2.6,0-.06-.07-.1-.1-.16,7.9-9.89,16-19.57,24.65-28.82,15.17-16.31,32.25-31.06,52-41.51,15.46-8.18,31.93-12,48.71-15.2a5.73,5.73,0,0,0,0,1,291,291,0,0,0,16.51,62.22,295.79,295.79,0,0,0,12.35,27.43c3.64,7.09,7.53,14.83,14.64,19.06,14.19,8.42,20.37-.83,21.11-14.83,1.22-23.11,5.48-45.31,15.41-66.38,8.7-18.43,21.86-31.92,39.12-42.59,7.89-4.87,16.14-9.11,24.45-13.2,6.38-3.14,16.52-5.87,20.39-12.33,8.05-13.46-18.38-25.61-27.19-29.36-17.14-7.29-36.06-9.26-54.45-6.89a135.34,135.34,0,0,0-28.6,7c-3.92,1.42-7.78,3-11.59,4.71-2.69,1.19-11.23,7.36-14,7.33-2.51,0-7.31-5.09-9.6-6.6-4.41-2.93-8.85-5.77-13.47-8.37a204.91,204.91,0,0,0-26.87-12.53c-37.67-14.44-79.17-17.72-119-12.54C370.67,215,305.2,249.33,245.94,289.53c-12.8-20.57-40.11-27.1-60.19-12.37-11.34,8.32-15.65,21-19.33,34-4.87,17.15-9.59,34.34-14.38,51.5a5.78,5.78,0,0,0-.17.95C104.16,409.28,65.74,464.19,51.37,530a4.88,4.88,0,0,0-.06.52c-1.06,1-2.11,2-3.08,3.11-5.54,6.17-12,17.47-5.65,25.26,7.14,8.71,24.08,3.88,32.73.48a61.29,61.29,0,0,0,9.24-4.53c1.47-.88,3.68-3,5.17-3.5h2.17c2.34-.61,2.8-.18,1.38,1.31-.18,2.67-4.43,6.89-5.86,9.13a107.72,107.72,0,0,0-6.21,10.64c-4,8.19-8.37,21.61-1.58,29.6,4.78,5.61,11.93,5.38,18.21,2.85A4.74,4.74,0,0,0,99.57,607c14.87,10.28,32.36,13.9,50.12,15.33C170.72,624.05,193,625.18,213.74,620.89ZM475.55,401.51c3.51-.57,9.29-2.39,12.69-.51,7.67,4.22,2.89,10.55,0,14.95-3.14,4.72-7.12,8.81-11,12.92-7.45,7.9-15.48,16.11-18.71,26.79-2.05,6.78-1.19,14-3,20.76-1.53,5.78-5.45,9.87-10.05,13.44-7.64,5.93-16.8,10.18-23,17.8a30.29,30.29,0,0,0-5.91,11.87c-.63,2.42-.6,5.24-1.69,7.51-2.38,5-7,6.15-11.62,8a252.85,252.85,0,0,1-86,17.56q6.48-6.45,12.87-13a2.23,2.23,0,0,0,.65.35c9.5,3.21,22.25,0,32-1.56a279.45,279.45,0,0,0,37-8.84,1.52,1.52,0,0,0-.81-2.92,326.25,326.25,0,0,1-36.92,6.1c-8.47.91-18.86.07-27.39,2.24q7.41-7.68,14.69-15.51c19.11,1,38.31-1.18,57-5.19,2-.43,1.11-3.31-.82-3-17.19,2.83-34.14,3.46-51.43,3.09q6.84-7.41,13.57-14.92c10.48,1.29,23.11-1.34,33.13-3.73a.91.91,0,0,0-.24-1.78c-6.12.38-12.25.89-18.38,1.09-3.51.11-7-.12-10.55-.07q4.59-5.18,9.13-10.41A194.47,194.47,0,0,0,448,477a1.38,1.38,0,0,0-.73-2.67,330.79,330.79,0,0,1-62.42,5.38q4.41-5.12,8.75-10.29c14.05.86,28.12-.78,41.86-3.72,1.29-.27,1-2.53-.32-2.35a314.23,314.23,0,0,1-38.26,2.16c1-1.21,2.05-2.42,3.06-3.64,7.89-9.51,15.48-19.29,23-29.16a120.14,120.14,0,0,0,45.88-2.17c1.43-.37,1.18-2.78-.36-2.65a225.17,225.17,0,0,1-41.94.12l4.66-6.16c12.4,4.22,27.94.81,40.53-1,1.85-.26,1.43-3.5-.45-3.29-6.75.73-13.49,1.44-20.28,1.66-5.81.19-11.56-.56-17.33-.66q4.49-5.94,9-11.85a1.46,1.46,0,0,0,.66.61c11,5.24,27.55,4.43,39.09,1.26a.91.91,0,0,0-.25-1.78c-6.33-.61-12.69-.58-19-1.08-6.08-.49-12.3-2.06-18.38-1.75q3.09-4,6.21-8C456.69,403.33,466.55,403,475.55,401.51ZM170.73,330.82c3.24-11.59,5.4-24.94,11.42-35.47,12.64-22.1,43.06-21.76,56-.47q-8.35,5.79-16.55,11.7c.85-3,1.66-6,2.35-9,.75-3.32,1.7-6.56,1-9.95-.24-1.26-1.91-1.22-2.53-.33-2.14,3.1-2.49,7.09-3.18,10.72s-1.19,7.45-1.68,11.21a1.64,1.64,0,0,0,0,.22q-3.68,2.67-7.3,5.34l-2.11,1.57c1-4.72,2.13-9.4,3.4-14.07,1.35-5,3.32-10,3.34-15.2a1.32,1.32,0,0,0-2.44-.66c-6.16,8.66-6.79,22.2-8.06,32.46a1.09,1.09,0,0,0,0,.26q-5.17,3.9-10.29,7.92c4.63-12.86,9.3-27.25,9.25-40.06,0-1.5-2.3-2.32-3-.81-6.17,13.41-8.54,30.25-11.59,45.09q-5.59,4.48-11.09,9.11c3.46-12.2,7.64-24.27,10.26-36.63.37-1.77-2.23-3.14-3.1-1.3-6.18,13-9.19,27.75-11.85,41.93q-4.09,3.51-8.11,7.1Q167.84,341.15,170.73,330.82ZM85.75,592c-2-6.09,3.68-15.27,6.53-20.16,4-6.77,16.78-19.37,10.27-27.87-7-9.12-17.38-.33-24.17,3.54-4.77,2.72-17.83,8.83-23.81,6.54-11-4.21,1.16-15.07,5.87-18.85,11.75-9.41,26.42-14.36,40.68-18.55,5-1.48,39.83-13.49,46-11.18-11.62,26.1-23.5,53.3-39,77.28C105.65,586.67,90.43,606.55,85.75,592Zm82,21.8c-21.41-.7-43.38-2-61.78-13.87,12-10.09,18.59-26.94,25.58-40.51Q145,533.33,157,506.48a4.92,4.92,0,0,0-1.14-5.67c-4.84-9.48-19.07-3.8-26.36-1.83-15.53,4.2-31.36,8-46.45,13.66a125.42,125.42,0,0,0-19.94,9.23c18.53-70.26,65.62-128.4,120.75-174.46A804.57,804.57,0,0,1,279.92,279c34-20.82,69.92-39.24,108-51.43,37.52-12,77.06-17.62,116.36-13.26a218.85,218.85,0,0,1,54,13,186.46,186.46,0,0,1,24.61,11.58c7.93,4.46,15.06,10.84,23.07,15,4.18,2.16,7,.85,11-1.14,9.32-4.68,18.54-9.1,28.54-12.18,19-5.87,39.38-7.42,58.76-2.24a81.35,81.35,0,0,1,23.63,10.4c2.71,1.77,11.43,6.36,8.93,10.78-1.53,2.71-10.07,5-12.8,6.33-14.31,7-28.55,14.32-41.08,24.24-30.42,24.06-43.34,65.39-45.07,103-.11,2.39.66,12.56-2.34,13.25-4.55,1.05-10.37-7.83-12.22-10.86-5.84-9.52-10.38-20.23-14.5-30.58a290,290,0,0,1-17.14-63.8c0-.06,0-.11,0-.16,4.32-.78,8.65-1.56,13-2.4,6-1.15,3.43-10.25-2.51-9.1-20.58,4-41.46,6.34-61,14.5-15.82,6.63-30.22,16.08-43.37,27-31.92,26.6-55.06,61.77-80.41,94.24q-39.81,51-84.53,97.9c-27.53,28.87-56.24,60.38-92.41,78.46C217.24,613.14,193.27,614.64,167.79,613.81Z"/><path d="M227.3,574.74a31,31,0,1,0-22.56,9.7h.89A30.8,30.8,0,0,0,227.3,574.74ZM190,569.1a21.57,21.57,0,0,1,14.21-37.23h.62A21.56,21.56,0,1,1,190,569.1Z"/><circle cx="201.88" cy="556.23" r="14.53" transform="translate(-389.84 552.7) rotate(-69.71)"/><path d="M194.21,427.24c-2,5.75,7.12,8.22,9.1,2.51,9.68-27.92,23-54.54,36.05-81,12.06-24.55,29.71-52,58-59.13,13.55-3.43,37.93-2.84,37.67,16.33-.18,13.79-9.89,28-18.24,38.36-16.8,20.82-38.81,37.56-58.89,55a4.16,4.16,0,0,0-1.5,2.7,3.37,3.37,0,0,0,.94,3.65C266,414,274.5,422.3,283.26,430.41c8.5,7.87,17.86,15.19,24.87,24.49.52.69,1.83.34,1.52-.64-3.25-10-10.76-17.32-17.79-24.85-8.11-8.69-16.58-17-25.14-25.23,24-20.71,51.55-41,67.72-68.78,5.88-10.09,11.69-22.91,9.69-34.93a3.36,3.36,0,0,0,2.71,0c7.83-3.32,4.14,22.49,3.92,25.42-.18,2.33,2.3,3.69,4.29,3.27,3.3-.69,7.5-3.2,10.79-3.22,13-.08,9,8.06,7.65,13.69-.86,3.6-3.35,10.58-.36,14.1,2.6,3.06,7.13,1.69,10.64,1.37,2.3-.21,7.33-1.72,9.21-.84,5.93,2.75,2.9,9.48,1.42,13.66-2.1,5.94-12.29,19.83-5.85,25.91,5,4.76,14.22,1.58,12.71,12.8-.78,5.78-3,10.16-2.12,16.14.27,1.83,2.86,1.17,3-.41,1.07-11.37,10.24-24.78-3.67-31.35-2.05-1-5.25-.75-5.74-4-.26-1.72,2.5-5.59,3.32-7.31,1.59-3.34,3.29-6.63,4.6-10.1,2-5.29,4.46-13.49,1-18.67-3.36-4.94-9.57-3.41-14.78-2.94-3,.28-5.4,1.66-6.95-1.32-1.29-2.5,0-4.42.64-7,.83-3.15,1.67-6.33,1.33-9.63C380.41,316,368,319,358,321.46c1-7.5,2.53-16.88-1.14-22.84-2.93-4.76-8.45-6.37-13.2-3.58a4.11,4.11,0,0,0-.8.65c-4.54-12.26-18.59-16.69-30.62-17.2-32.41-1.4-57.77,24.41-73,50.27-9.15,15.53-16.4,32.35-24.1,48.63A494.46,494.46,0,0,0,194.21,427.24Z"/><path d="M204.69,382.52a2.1,2.1,0,0,0-3-3c-18.91,15-35.6,34.29-52.09,51.91a656.67,656.67,0,0,0-45.5,53.76c-1.24,1.66,1.61,3.89,2.9,2.24a712.32,712.32,0,0,1,47-54C170.51,416.25,189.36,400.65,204.69,382.52Z"/><path d="M155.84,401.56c-9.15,9.15-17.71,18.79-26.5,28.27a1,1,0,0,0,1.35,1.36c8.82-8.6,18.08-16.82,27.16-25.13,8.91-8.14,19.4-15.87,27-25.22,1.45-1.79-.41-4.92-2.66-3.45C172.42,383.78,164.08,393.31,155.84,401.56Z"/><path d="M101.55,453.24c7.18-14.86,20.34-27.71,31.59-39.65,11.6-12.3,25.67-22.88,36.58-35.65,1.35-1.58-.36-4.21-2.33-3-15,9.14-28.29,24.71-39.92,37.8-10.55,11.88-22.28,24.62-28.25,39.53C98.69,453.59,100.92,454.54,101.55,453.24Z"/><path d="M119,446.88c-8.48,8.72-16.4,17.77-22.81,28.14-5.44,8.79-12.74,20.09-13.61,30.61-.13,1.47,1.8,1.64,2.51.68,6.21-8.55,9.31-19.92,14.72-29.17a187.48,187.48,0,0,1,20.42-29C121,447.28,119.83,446.08,119,446.88Z"/><path d="M93.11,464.6c-7.69,12.61-16,26.93-19.77,41.31a1.31,1.31,0,0,0,2.39,1c7.3-13.13,12.75-27.58,19.67-41A1.33,1.33,0,0,0,93.11,464.6Z"/><path d="M187.44,421.84c1.13-1.16-.54-2.76-1.75-1.75-25.32,21.15-53.61,46.63-68.23,76.79a2.21,2.21,0,0,0,3.82,2.23c9.6-14.69,19.18-28.81,31.06-41.84C163.55,445,175.85,433.77,187.44,421.84Z"/><path d="M284.74,357.46c-13.81,14-27.11,28.08-38.68,44-.55.75.69,1.45,1.24.72,12.65-16.67,28.59-30.57,43.62-45,13.09-12.59,29.44-26.55,36.7-43.58.7-1.64-1.26-3.65-2.7-2.08-6.85,7.48-12.4,16.05-19.08,23.7S291.94,350.19,284.74,357.46Z"/><path d="M316.91,294.76c-7.83,6.7-13.13,18.21-19.65,26.3-6.66,8.26-13.61,16.26-20.6,24.24-13.58,15.52-27,31.76-36.34,50.22a.7.7,0,0,0,1.21.71c11.63-19.57,27.3-35.39,42.92-51.7,7.3-7.63,14.65-15.25,21.22-23.52,5.49-6.91,13.4-15.23,15-24.08A2.25,2.25,0,0,0,316.91,294.76Z"/><path d="M287.38,295.81c-4.64,7-7,15.63-11,23.08-4.35,8.05-9.38,15.68-14.42,23.31-9.85,14.91-19.65,29.84-26.9,46.23-.45,1,1,1.88,1.49.88,8.8-16.84,20.75-31.52,31.57-47.05,8.7-12.5,22.11-29.68,22.72-45.52C290.89,294.81,288.34,294.36,287.38,295.81Z"/><path d="M145.46,550.34c6-13.36,12.82-26.2,19-39.43,3.78-8.11,6.26-18.63-.39-25.87-1.31-1.44-4,.06-3.36,2,5,13.78-.91,22.58-6.76,34.82-4.24,8.88-7.3,18.36-10.65,27.59C142.81,550.68,144.91,551.58,145.46,550.34Z"/><path d="M119.5,527.08c-8.57,13.84-17.31,30.25-20.14,46.4-.26,1.49,2,2.16,2.32.64,4-16.68,17.11-29.27,21.36-45.55A2,2,0,0,0,119.5,527.08Z"/><path d="M90.4,525.28c-6.37.06-13.13,3.59-18.72,6.46a33.31,33.31,0,0,0-13.16,11.58c-.74,1.14,1,2.56,1.91,1.48,7.62-9.42,20.58-11.4,30.62-17.15A1.28,1.28,0,0,0,90.4,525.28Z"/><path d="M168.57,529.11c-.82,1.66,1,4.16,2.83,2.83,6.84-5,12.1-10.71,20.41-13.64a49.93,49.93,0,0,1,26.77-1.55,1.37,1.37,0,0,0,.73-2.64C203.11,508,177.06,511.82,168.57,529.11Z"/><path d="M185.14,511.27A40.81,40.81,0,0,1,199,506c1.21-.23.88-2.08-.29-2.1a25.57,25.57,0,0,0-15.3,4.45C181.57,509.51,183.25,512.44,185.14,511.27Z"/><path d="M335.41,510.34c-8.83,5.3-16.54,14.9-22.39,23.24-1,1.43,1.22,3.1,2.4,1.85,3.6-3.81,7.1-7.73,10.77-11.48s7.88-7.12,11.1-11.18C338.31,511.48,337,509.36,335.41,510.34Z"/><path d="M330.22,505.61c-8.08,6.12-14.61,14.57-20.67,22.63-1,1.38,1.27,2.67,2.29,1.34,6.1-7.89,13.29-14.68,19.68-22.29C332.24,506.44,331.26,504.82,330.22,505.61Z"/><path d="M323.32,500.69c-13.58,9.59-24.9,25.07-34.64,38.4-.59.8.7,1.77,1.36,1.06,6.1-6.63,12.09-13.34,18.22-19.94,5.53-6,11.75-11.47,16.45-18.13A1,1,0,0,0,323.32,500.69Z"/><path d="M317.74,492.66c-12.7,9.61-22.89,23.19-32.62,35.68-.8,1,.62,2.51,1.46,1.46,10.14-12.49,22.17-23.22,32.37-35.58C319.61,493.43,318.72,491.92,317.74,492.66Z"/><path d="M301,503.65q4.11-5.11,8.61-9.9c2.74-2.91,5.84-5.57,7.94-9a.8.8,0,0,0-1.09-1.08c-7,4-12.09,12.64-16.41,19.26C299.69,503.48,300.58,504.2,301,503.65Z"/><path d="M303.65,492.25a91,91,0,0,1,6.65-9.31c2-2.49,4.73-4.77,6.17-7.63a1.17,1.17,0,0,0-1.59-1.59c-2.95,1.53-5.13,4.66-7.13,7.25a78.52,78.52,0,0,0-6.39,9.94A1.33,1.33,0,0,0,303.65,492.25Z"/><path d="M305.29,478.44c2.6-3.44,5.39-6.64,7-10.64.5-1.22-1.22-1.92-2-1.19-3.2,2.9-5.24,6.71-7.58,10.32C301.64,478.58,304.17,479.93,305.29,478.44Z"/><path d="M353,475.78c-3.39-2.34-11.52,1.14-13.37-.69-.83-.83,6.55-13.94,7.79-16.72,2.95-6.61,9.3-20.07,4.93-27.27-3.76-6.18-14.09-5.19-21.35-3.43,1.61-8.58,7.16-18.18,3.38-26.2-3.45-7.33-12.11-4.52-18.94-2,1.69-9,3.93-20.8-6.52-23.73-3.23-.91-5.5,4-2.34,5.56,7.35,3.6,2.92,16.26,1.91,22.08-.39,2.26,1.38,4.54,3.84,3.84,2.73-.77,7.52-3.19,10.44-2.87,8.91,1,5.95,6.42,4.4,11.77s-3.1,10.29-3.09,16a3.28,3.28,0,0,0,4.12,3.13c3.4-1.06,7.1-2.19,10.72-2l3,.07q6.33.54,4.63,5.32c.83,5.92-3.69,14.2-6.05,19.3-2.52,5.47-10.44,15-8.63,21.32a3.21,3.21,0,0,0,2.27,2.27c3.41.68,7.29-1.32,10.43-.5,8.46,2.22,2.44,12.73.19,18-.9,2.14,2,4,3.22,1.88C351,495.46,361.2,481.48,353,475.78Z"/><path d="M365,417.27c5.1-10.25,10.33-24.26,6.79-34.61-3.27-9.56-14.61-7.33-23.56-5.39,3.7-8.59,7.37-20.43,1.26-26.94-4.59-4.89-13.57-3.41-14,3.8-.14,2.6,3.34,3.16,4.6,1.25q7.23.39,6,5.66a42.15,42.15,0,0,1-1.19,6.22,64,64,0,0,1-4.68,12.66c-1.23,2.58.79,4.93,3.49,4.53,3.59-.54,10-2.82,13.55-2q4.55,2.68,9.11,5.35a43.16,43.16,0,0,1-.73,7.69,74.06,74.06,0,0,1-8.24,23.28,3.06,3.06,0,0,0,2.61,4.55c5.19.29,11.29-.35,16.31.9,3.75.94,7.49,2.88,7.86,6.72.21,2.16-1.25,5.42-1.9,7.33A145.47,145.47,0,0,1,369,466.07c-1.32,2.18,2,4,3.38,2a138.65,138.65,0,0,0,12.57-21.86c2.53-5.6,6-12.12,5.25-18.44C388.93,416.6,374.86,417.13,365,417.27Z"/><path d="M348.16,256.17q9.45-.78,8.77,8a15,15,0,0,1-2.9,9.87c-1.27,2,.87,5.18,3.28,4.27,6.34-2.38,26.35-12.16,26.11,1.47-.08,4.78-4.66,9.6-2.31,14.3a2.88,2.88,0,0,0,2.47,1.41c4,.15,8.13-1.54,11.92-2.61,4.54-1.28,16.21-7.65,14.77.87-1.25,7.47-8.07,11.69-7.46,20A3.34,3.34,0,0,0,407,317l20.28-4.62c2.35-.54,7.64-3,9.61-.17,1.27,1.81-4.07,9.43-5.34,11.36-4.49,6.87-18,14.85-16.8,24a3.13,3.13,0,0,0,3.86,2.95,18.78,18.78,0,0,1,12.76,1.49,11,11,0,0,1-1.6,9.28c-1.55,4.07-4.21,8-6.33,11.82a2,2,0,0,0,3.41,2c3.49-5.38,13.69-16.5,11.57-23.44-1.95-6.38-10.13-7.78-16.7-7.52,2.07-3.7,7.12-7.52,9.12-9.78a67.88,67.88,0,0,0,6.87-9c2.68-4.29,7.46-11.79,5.33-17.1-1.4-3.49-5-4.25-8.35-4.08-8,.41-16.55,3.11-24.62,5.21,2.59-7.83,11.45-16.47,6.76-24.13-6-9.83-20.16,4.86-27.8,3.31q-1.44,1.2-2.1-.09c.56-2,1.13-4,1.71-6.05a21.28,21.28,0,0,0,1-6.71c-.28-3.38-1.61-6.05-4.62-7.76-6.27-3.55-15.75-.8-23.3,2.2,1.66-5.78,1.83-12-2.07-17s-10.22-5.58-14.77-1.38C342.56,254,345.5,257.72,348.16,256.17Z"/><path d="M381.27,241.41c6.5-1.79,13-3.14,19.81-2.8,10.19.53,5.08,11,2.23,17.08a3.14,3.14,0,0,0,3.5,4.56l17.68-3.89c1.41-.31,9.33-2.9,10.61-2.34l2.71,6.3a34,34,0,0,1-2.92,6.26c-1.86,3.45-6.52,9.9-1.14,13s17.24-2.7,22.7-3.85c1.33-.29,10.68-2.68,11.57-1.43,1.09,1.53-2.76,5.64-3.52,6.8-3.75,5.68-7.51,11.35-11.23,17a3,3,0,0,0,2.56,4.47c5.6-.39,19.31-4.75,16.66,5-1.31,4.81-9.39,11.8-12.57,15.83-1.22,1.56.82,3.78,2.25,2.25,5.26-5.63,11.19-11.12,15.93-17.2,1.8-2.3,3.93-5.08,2.8-8.21-2.1-5.79-11.58-5.17-18.69-4.33,4.47-5.83,9.54-12.06,12-18.36,1-2.59,1.42-5.7-.81-7.92-7.25-7.21-24.52,2.78-32.49,3.19a3.82,3.82,0,0,0-2.7,1.1c1.1-1.79,2.15-3.59,3.18-5.42a30.2,30.2,0,0,0,3.48-9.4c.49-3.28.41-7.55-2.27-10s-6-1.87-9.18-1.36c-7.34,1.16-14.67,3.13-21.95,4.95,2.63-6.33,4.64-14-.89-18.13-7.44-5.57-23.09-1.7-30.85,1.07C376.14,237,377.53,242.44,381.27,241.41Z"/><path d="M444.63,223c-2.12.36-2.15,5.17-1.6,6.58,1.19,3,3.4,3.15,6.29,3.52,6.33.81,16.64-2.73,21.1,2.53,3.6,1.71,3.63,3.61.09,5.67q-1.33,1.29-2.61,2.64a34.17,34.17,0,0,0-4,5.4c-1.33,2.26.85,4.48,3.14,4.09a147.32,147.32,0,0,1,20.52-2.13c5.86-.16,15.88-1.21,10.7,7.8-4.06,7.07-11.41,11.83-16,18.57a2.56,2.56,0,0,0,1.52,3.73c7.17,1.68,18-1.83,22.73,3.5q4.86,2.56.53,5.09-2.07,2.17-4.3,4.2a105.29,105.29,0,0,1-11.55,8.94,1.31,1.31,0,0,0,1.32,2.26,75.63,75.63,0,0,0,17.24-12.69c2.09-2.07,6.14-5.35,5.91-8.67-.59-8.46-17.17-7.08-26.12-7.17,6.89-7.19,19-16.36,16-26.18-1.48-5-6.47-4.85-10.85-5A131.9,131.9,0,0,0,473,246.93c3.2-3.31,6.6-6.67,6.81-11.19.26-5.68-4-7.16-8.83-7.89s-10-.24-15-.13c-3.24.07-5.46,1-6.87-2.83-.28-.74.74-2,.44-2.73-1.19-3-2.62-5.47-6.33-4.17A2.61,2.61,0,0,0,444.63,223Z"/><path d="M507.79,223.47c5.56,3.86.67,4.64-.22,9.35a3.07,3.07,0,0,0,2.92,3.83c3,0,12.6-1.09,14.75.79,6.17,5.39-1.24,7.32-3,9.61-2.11,2.67-6.38,5.23-5.34,9.28,1,3.74,6.18,5,9.25,5.86,1.28.32,2.57.64,3.86.94q6.88,4.25,1.53,7.51c-1.65,3.16-6.22,6.39-8.72,9-1.43,1.48.69,3.5,2.22,2.22,4.46-3.74,16.86-10,14.7-17.42-.73-2.48-3-4.09-5.2-5.28-4.25-2.31-12.82-1.94-8.22-8,3.55-4.69,13.4-7.91,7.92-15.7-3.4-4.82-11.62-5.13-18.2-5,1.49-1.5,2.92-2.95,2.21-5.65-1-3.68-5.25-5.17-8.57-5.71A2.41,2.41,0,0,0,507.79,223.47Z"/><path d="M551.8,276c4.92-.56,12.56-1.7,15.17-6.69a7.49,7.49,0,0,0,0-6.36c-1.07-2.79-8.4-9-8.07-11.31l-.59-.46a36.74,36.74,0,0,1,4.62-1.05,31.84,31.84,0,0,0,4.87-1.31c1.89-.78,4.25-2,4.94-4.12,1.9-5.84-6.32-9.34-10.68-9.39a2.08,2.08,0,0,0-1,3.85c2.89,1.71,6.33,2.94,1.63,5.5-1.68.92-4.27.73-6.1,1.44-2,.76-4.16,1.54-4.4,3.9-.22,2.15,1.79,3.88,3,5.38,1.71,2.13,5.57,5.41,6.38,8.05,2.13,6.84-5.43,9.66-10,11C550.74,274.66,550.86,276.12,551.8,276Z"/><path d="M575.37,265.75c4.18.56,10-1.66,12.93-4.79a7.74,7.74,0,0,0,2-5.85c-.22-3-1.6-4.73-3.81-6.46a1.61,1.61,0,0,0-2.66,1.54c.48,2.73,2.21,6.08-.19,8.21a16.58,16.58,0,0,1-8.22,4A1.66,1.66,0,0,0,575.37,265.75Z"/><path d="M614.83,347.31c-4.83-13.5-9.86-26.94-14.24-40.59a1.46,1.46,0,0,0-2.81.78c3.74,14.45,7.58,28.82,12.64,42.87,4.57,12.72,8.76,27,16.1,38.48a1.74,1.74,0,0,0,3.17-1.34C626.39,373.81,619.57,360.59,614.83,347.31Z"/><path d="M622.14,334.64c-5.33-9.23-10.55-18.53-16.08-27.64-.81-1.33-3.27-.45-2.63,1.11a281.49,281.49,0,0,0,13.38,27.58c4.82,8.77,9.39,18.73,16.19,26.13,1.32,1.43,4.13-.06,3.39-2C633,351,626.9,342.89,622.14,334.64Z"/><path d="M626.6,317.37c-4.82-4.16-10-7.9-15-11.72-1.49-1.11-3.38,1.36-2,2.58,4.9,4.3,9.58,8.85,14.41,13.22,4.39,4,8.56,8.74,13.68,11.73a1.73,1.73,0,0,0,2.35-2.34C636.67,325.57,631.3,321.42,626.6,317.37Z"/><path d="M623.5,259.06c14.79-3.28,29.51-7.68,44.49-10,16.21-2.55,29.2.41,44.76,4.23,3,.73,4.19-3,2-4.65-11.09-8.35-28.13-8.15-41.24-6.41-17.44,2.33-34.2,8.28-50.79,13.9A1.54,1.54,0,0,0,623.5,259.06Z"/><path d="M616.11,268.14v.08c9.56-1.19,19.13-2.28,28.7-3.45,7-.86,13.92-1.76,20.9-2.43,11-1.07,20.45.65,31.2,2.2,1.49.22,3.25-1.69,1.7-2.93-12.85-10.29-33.39-5.14-48.26-2.81q-17.4,2.71-34.73,5.83C613.48,265,614.18,268,616.11,268.14Z"/><path d="M678.91,273.73c-16.86-8.41-41.44-7.25-59.52-4.57-2,.29-1.52,3.63.47,3.47a184.19,184.19,0,0,1,29.24.48c9.71.82,19.18,3.5,28.84,4.2A1.93,1.93,0,0,0,678.91,273.73Z"/><path d="M645.7,280.75c-9-2.8-17.94-5.6-27.05-7.82-3.09-.75-4.4,4-1.32,4.77,8.68,2.27,17.2,5.1,25.65,8.09,7.49,2.66,15.64,6.9,23.6,7.7,1.78.18,2.92-2.51,1.51-3.65C662.08,285,652.92,283,645.7,280.75Z"/><path d="M638.8,292.88c-6.73-3.94-13.55-7.68-20.52-11.16a2.1,2.1,0,0,0-2.12,3.63c12,7.47,24,15.23,36.2,22.34,1.49.87,3.66-1,2.52-2.52C650.88,299.72,644.53,296.24,638.8,292.88Z"/><path d="M611.73,295.25c9.78,7.49,21.08,13.41,30.26,21.63,1.34,1.21,3.88-.43,2.66-2.05-7.62-10.14-20.06-16.9-31.12-22.67A1.79,1.79,0,0,0,611.73,295.25Z"/><path d="M606,278.52c-14.74-1.88-30.93,2.76-44.75,7.52-10.92,3.76-28,6.64-35.2,16.44-.74,1,.88,2.22,1.71,1.31,5.09-5.56,14.05-6.91,21-9.05,6.51-2,13-4.11,19.5-6.12,12.57-3.86,25.67-3.36,38.17-6.62C608.58,281.45,607.88,278.76,606,278.52Z"/><path d="M590.75,275.72c5.47-.44,11.76.18,17-1.31a1.4,1.4,0,0,0,0-2.67c-5.38-1.38-12,.12-17.42,1C588.71,273.07,589.08,275.85,590.75,275.72Z"/><path d="M598.75,269.05l5.94-.49a11.83,11.83,0,0,0,5.06-1.08,1.42,1.42,0,0,0-.34-2.56,11.94,11.94,0,0,0-5.12,0l-5.54.63C596.54,265.76,596.45,269.24,598.75,269.05Z"/><path d="M604.22,261.67c2.45-.37,6-.34,8-1.88a1.4,1.4,0,0,0-.33-2.52c-2.51-.93-6.18.22-8.75.59S601.73,262.05,604.22,261.67Z"/><path d="M494.91,315.48c-8.92,5.79-16.27,14-23.67,21.54a278.14,278.14,0,0,0-23.32,26.29c-14.3,18.85-26.05,40.09-38.21,60.35-.93,1.54,1.4,2.85,2.39,1.4,13.51-19.78,25.58-41.13,40.86-59.62,13.77-16.65,31.82-29.92,44.83-47.08C499.08,316.66,496.59,314.39,494.91,315.48Z"/><path d="M440.93,486.12c-9.77-.52-20.2,3.13-29.7,5.08-1.62.34-1.29,3.13.4,2.94,9.59-1.09,20.71-.86,29.79-4.36A1.87,1.87,0,0,0,440.93,486.12Z"/><path d="M413.15,501.88c-13.36,2-27,2.32-40.31,4.53-1.5.25-.95,2.32.34,2.46,13.07,1.45,27.95-1.56,40.54-4.93C415.08,503.58,414.48,501.68,413.15,501.88Z"/><path d="M393.42,521.05c-13.91,2-28.27,1.6-42,3.82-1.4.22-1.27,2.38,0,2.7,13.71,3.43,29.18-2,42.41-5.17C394.69,522.18,394.28,520.93,393.42,521.05Z"/><path d="M451.56,453.8c-10.62-.73-23.38-2.27-33.75.52a1.43,1.43,0,0,0,0,2.74c10.55,2.21,23.17,0,33.75-1.34A1,1,0,0,0,451.56,453.8Z"/><path d="M426.31,446.54c7.08,2.65,16.74,1.28,24.08.51a1.39,1.39,0,0,0,0-2.77c-7.56-.38-16.66-2.14-24.08-.47C424.83,444.14,425.1,446.09,426.31,446.54Z"/><path d="M204.43,355.05c7.26.42,15-2.56,20.56-7.08,1.48-1.21-.15-3.35-1.74-3-8.34,1.85-19.13,9.59-26.13,1-.92-1.13-2.72-.15-2.74,1.13C194.3,352.48,199.71,354.78,204.43,355.05Z"/><path d="M209.48,360.27c1-.62.36-2.41-.83-2a14.43,14.43,0,0,1-9.49.27c-3-1-4.91-3.12-7.53-4.77a1.38,1.38,0,0,0-2,1.54C191.7,363.42,203.7,364,209.48,360.27Z"/><path d="M205.59,343.2a14,14,0,0,0,13.85-2.72c1.62-1.38-.45-3.51-2.12-2.75a18.31,18.31,0,0,1-10.62,1.42A2.1,2.1,0,0,0,205.59,343.2Z"/><path d="M254.69,476.63c-17.41-10.36-43.9-17.33-63.94-11.29-1.29.39-1.52,2.59,0,2.85,9.19,1.56,18.8.19,28.12,1.05,12,1.12,23.9,3.74,34.82,9.11A1,1,0,0,0,254.69,476.63Z"/><path d="M204.74,459c4.79.68,9.61-.14,14.45.08a65.88,65.88,0,0,1,18,3.34c1.9.64,2.61-2.24.81-2.95-9.76-3.81-23.5-7.62-33.54-2.83A1.3,1.3,0,0,0,204.74,459Z"/><path d="M212.65,447.59a1.08,1.08,0,0,0,0,2.07c4.58.84,9.2.77,13.77,1.83a1.22,1.22,0,0,0,.64-2.35C222.45,447.68,217.45,446.46,212.65,447.59Z"/><path d="M222.07,443.77c1.94.54,2.73-2.64.82-2.95a12.16,12.16,0,0,0-3.94-.24c-.95.13-.91,1.45-.25,1.88A11.63,11.63,0,0,0,222.07,443.77Z"/><path d="M243.84,592.58a143.2,143.2,0,0,1-50.51,12.81c-16,1-31.46-2.14-47.3-2.09a1.37,1.37,0,0,0-.36,2.68c15.94,6,35.7,5.33,52.36,3.38,16.43-1.92,32.42-6.84,46.55-15.51A.74.74,0,0,0,243.84,592.58Z"/><path d="M153.06,598.05c15.39,6.17,35,5.18,51,2.87,1.38-.2,1.05-2.49-.33-2.43a195.64,195.64,0,0,1-25.28-.18c-8.4-.7-16.62-2.84-25-3.37C151.56,594.82,151.53,597.44,153.06,598.05Z"/><path d="M159.48,589.66a1.13,1.13,0,0,0-.49,1.88c2.45,2.12,5.55,2.35,8.7,2.74a49.72,49.72,0,0,0,12.84.07c1.05-.13,1.58-1.85.28-2.06-3.93-.64-7.88-1.1-11.8-1.76C165.86,590,162.63,588.84,159.48,589.66Z"/><path d="M164.94,582.79a1.32,1.32,0,0,0-.31,2.39c1.21.83,3,1,4.46,1.28a40.16,40.16,0,0,0,4.47,1c.93.12,1.39-1.24.75-1.82a11.72,11.72,0,0,0-4.35-2.35C168.51,582.81,166.42,582.24,164.94,582.79Z"/><path d="M135.14,564.44c-5.84,8.62-9.73,18.49-15.67,27.15-1.1,1.6,1.42,3,2.55,1.49,6.15-8.06,13.17-17.62,15.31-27.71A1.21,1.21,0,0,0,135.14,564.44Z"/><path d="M808.27,318.4c6.11,1,12.25,1,18.43,1.18,2.83.1,5.69.38,8.54.53a8.26,8.26,0,0,0,6.14,5.55c.14,3.06.46,6.13.56,9.17.22,6.17.15,12.31,1.18,18.42a1,1,0,0,0,1.85,0c1-6.11,1-12.25,1.18-18.42.11-3.13.44-6.3.58-9.46a8.26,8.26,0,0,0,5.11-5.21c3.19-.13,6.39-.46,9.55-.58,6.18-.22,12.32-.14,18.43-1.18a1,1,0,0,0,0-1.85c-6.11-1-12.25-1-18.43-1.18-3-.1-6.09-.41-9.14-.56a8.5,8.5,0,0,0-5.61-6.8c-.15-2.64-.39-5.27-.49-7.88-.22-6.18-.14-12.32-1.18-18.43a1,1,0,0,0-1.85,0c-1,6.11-1,12.25-1.18,18.43-.09,2.52-.31,5.06-.47,7.6a8.47,8.47,0,0,0-6.62,7.14c-2.73.16-5.45.41-8.15.5-6.18.22-12.32.15-18.43,1.18A1,1,0,0,0,808.27,318.4Z"/><path d="M239.31,683.42c-6.11-1-12.25-1-18.43-1.23-3-.12-6.09-.44-9.14-.59a8.53,8.53,0,0,0-5.59-6.82c-.15-2.64-.38-5.28-.47-7.88-.2-6.18-.11-12.32-1.13-18.43a1,1,0,0,0-1.84,0c-1.05,6.11-1,12.25-1.24,18.43-.09,2.51-.33,5.05-.49,7.59a8.46,8.46,0,0,0-6.64,7.12c-2.73.15-5.46.39-8.16.48-6.17.2-12.31.11-18.42,1.13a1,1,0,0,0,0,1.85c6.1,1,12.25,1,18.42,1.23,2.83.11,5.69.39,8.54.55a8.25,8.25,0,0,0,6.12,5.57c.13,3.06.44,6.14.54,9.17.2,6.18.11,12.32,1.13,18.43a1,1,0,0,0,1.85,0c1-6.11,1-12.25,1.23-18.43.12-3.12.46-6.29.6-9.44a8.28,8.28,0,0,0,5.12-5.2c3.2-.12,6.4-.45,9.57-.55,6.18-.2,12.31-.12,18.43-1.13A1,1,0,0,0,239.31,683.42Z"/><path d="M68.05,343.28c6.11,1,12.25,1,18.43,1.18,2.83.1,5.69.37,8.54.53a8.27,8.27,0,0,0,6.14,5.55c.14,3.06.45,6.13.56,9.16.22,6.18.15,12.32,1.18,18.43a1,1,0,0,0,1.85,0c1-6.11,1-12.25,1.18-18.43.11-3.13.44-6.29.58-9.45a8.29,8.29,0,0,0,5.1-5.21c3.2-.13,6.4-.47,9.56-.58,6.18-.22,12.32-.15,18.43-1.18a1,1,0,0,0,0-1.85c-6.11-1-12.25-1-18.43-1.18-3-.11-6.09-.42-9.14-.56a8.53,8.53,0,0,0-5.61-6.81c-.16-2.63-.4-5.27-.49-7.87-.22-6.18-.15-12.32-1.18-18.43a1,1,0,0,0-1.85,0c-1,6.11-1,12.25-1.18,18.43-.09,2.51-.32,5.05-.47,7.6a8.47,8.47,0,0,0-6.63,7.13c-2.72.16-5.45.41-8.14.51-6.18.22-12.32.15-18.43,1.18A1,1,0,0,0,68.05,343.28Z"/><path d="M730.39,356a16.5,16.5,0,1,0,16.49-16.49A16.51,16.51,0,0,0,730.39,356Zm27.32,0a10.83,10.83,0,1,1-10.83-10.82A10.84,10.84,0,0,1,757.71,356Z"/><path d="M888.73,645.48A16.5,16.5,0,1,0,905.22,662,16.52,16.52,0,0,0,888.73,645.48Zm0,27.32A10.83,10.83,0,1,1,899.55,662,10.84,10.84,0,0,1,888.73,672.8Z"/><path d="M789,271.93a16.5,16.5,0,1,0-16.49-16.5A16.51,16.51,0,0,0,789,271.93Zm0-27.32a10.83,10.83,0,1,1-10.83,10.82A10.84,10.84,0,0,1,789,244.61Z"/><path d="M220.66,763.51h0a16.49,16.49,0,0,0-.05,33h.05a16.49,16.49,0,0,0,0-33Zm7.58,24.17a10.74,10.74,0,0,1-7.63,3.14h0A10.84,10.84,0,0,1,209.78,780a10.84,10.84,0,0,1,10.83-10.8h0a10.83,10.83,0,0,1,7.6,18.51Z"/><path d="M441.45,575.56h0a16.5,16.5,0,0,0-.05,33h.05a16.5,16.5,0,0,0,0-33Zm0,27.32h0a10.83,10.83,0,0,1,0-21.65h0a10.83,10.83,0,0,1,0,21.65Z"/></svg>