<svg id="Layer_1" data-name="Layer 1" xmlns="http://www.w3.org/2000/svg" viewBox="0 0 1000 1000"><defs><style>.cls-1{fill:#b3dadc;}.cls-2{fill:#6c5b78;}</style></defs><title>Sagittarius</title><path class="cls-1" d="M731.92,269.15c-12.61,12.39-25.35,24.65-38.1,36.91Q581.45,414.12,468.11,521.15q-50.72,48.2-101.41,96.44c-13.37,12.75-28,25-40.7,38.63,1.73,1.94,3.43,3.89,5.11,5.87,15.41-16.52,33.26-31.42,49.5-46.89Q493.23,507.92,606,400.84q50.13-47.74,100.06-95.69,16-15.47,32-31.06c3.15-3.11,6.31-6.2,9.38-9.38.88-.91,4.44-5.16,3.2-3.31a5.63,5.63,0,0,1,1.68-1.66c.15-1.66.27-3.34.39-5-2.1,0-4.2,0-6.32,0C742.24,260,736.6,264.55,731.92,269.15Z"/><path class="cls-1" d="M335.69,673.1a5,5,0,0,1-.57.76.86.86,0,0,1,0,.16q-2.72,20.88-5.42,41.76-1.35,10.44-2.71,20.88L325.91,745q-.42,3.13-.82,6.27s0,.07,0,.11l.09,0,3.08-2.08q3.83-2.61,7.58-5.33,7.71-5.58,15.1-11.58a350.09,350.09,0,0,0,26.15-23.61c16.71-16.68,39.44-38,43.75-62.11,2.24-12.58,2.76-25.56,4.68-38.22,1.26-8.36,2.7-16.68,4.19-25q-25.58,24.3-51.12,48.61C364.45,645.53,348.86,658.52,335.69,673.1Zm.47,55.37c-.59,4.36-.58,9.16-2.5,13.14a1.44,1.44,0,0,1-2.62-.34c-.66-4,.44-7.91,1-11.85A147.12,147.12,0,0,1,335,714.71a1.17,1.17,0,0,1,2.28.31A128.8,128.8,0,0,1,336.16,728.47Zm2.11-20.65c-.16-11.82.07-23.62.08-35.44,0-2.08,3-2,3.16,0a134.39,134.39,0,0,1-.75,35.78C340.52,709.61,338.29,709.19,338.27,707.82Zm5.18,22.89c-.78,1.83-3.87.89-3.73-1,1.44-20.61,6.29-40.12,5.75-61-.07-2.67,3.91-2.6,4.09,0C351,688.56,351.46,712,343.45,730.71Zm29.89-82.55c2.35,8.16,5.09,18.18,3.38,26.69a1.48,1.48,0,0,1-2.84,0c-1.78-8.51-1.33-17.35-3.27-25.94A1.42,1.42,0,0,1,373.34,648.16Zm-14.91,75.19c-.53,2.27-3.5,1.46-3.73-.5-1.21-10.11.26-20.72.26-30.92s-.18-20.6-.12-30.91c0-1.59,2.64-2,2.86-.38C360.38,680.28,363,703.91,358.43,723.35Zm11.8-13c-.25,1.77-3.19,1.7-3.5,0-3.37-18.19-2.21-38-3.73-56.52-.15-1.8,2.87-2.2,3.15-.43C369,671.64,372.87,692,370.23,710.37Zm6.41-8.26a1.23,1.23,0,0,1-2.36,0c-.89-3-.52-6.2-.52-9.31,0-3.52.23-7,.44-10.47a1.12,1.12,0,0,1,2.24,0C377.22,688.37,378.65,696.2,376.64,702.11Zm44.65-101.79c.92,2.57,2.44,5.42,1.74,8.2a1.21,1.21,0,0,1-2,.53c-2.17-1.82-2.61-5.15-3.35-7.73C417,599,420.48,598.08,421.29,600.32Zm-4.24,4.62c1.87,3.9,4.25,8.81,3.68,13.24-.16,1.21-2,2.19-2.68.72-1.8-4-2.15-8.68-3.7-12.82C413.76,604.5,416.33,603.45,417.05,604.94ZM413,612.48c2.75,8.5,6.41,20.82,3.68,29.69a1.39,1.39,0,0,1-2.65,0c-1.22-4.15-.83-8.6-1.23-12.89a131.48,131.48,0,0,0-2.65-16A1.48,1.48,0,0,1,413,612.48Zm-6.59,6.62c5,15.41,8.72,34.25,2.85,49.93a1.29,1.29,0,0,1-2.53-.34c-1.05-16.64.38-32.12-4.11-48.55C402,617.69,405.63,616.71,406.41,619.1Zm-7.64,7.53c4.91,15.43,3.63,34.46,1.14,50.26-.24,1.52-2.62,1.1-2.61-.35.15-16.58-2.46-32.92-2.59-49.36C394.69,624.78,398.08,624.46,398.77,626.63Zm-8.54,7.73c6.84,14,5.28,33.66,2.93,48.63-.3,1.88-3.52,1.42-3.32-.45a136,136,0,0,0,.55-23.79c-.55-8-3.12-15.59-3.5-23.49C386.8,633.53,389.45,632.76,390.23,634.36Zm-8.05,5.16c6.73,16.82,4.68,38.12,1.52,55.54-.18,1-1.79.75-1.74-.23.89-18.63-2.81-36.47-2.94-54.89C379,638,381.54,637.94,382.18,639.52Z"/><path class="cls-1" d="M362.61,606.47c-21.6-1.91-42-4-63.77-1.38-2.18.26-2.65-3.45-.52-3.82,21.47-3.72,45.19-5.2,66.42.69a2.15,2.15,0,0,1,1.39,1.21c.86-.8,1.73-1.6,2.57-2.41q21-20,42-39.9c-8,1.12-16,2.19-24,3.11-13.19,1.52-26.64,1.59-39.76,3.45-24,3.4-46,25.18-63.1,41a350.73,350.73,0,0,0-24.6,25.23q-6.13,6.95-11.9,14.23c-2.4,3-4.73,6.12-7,9.24-.27.36-.53.74-.8,1.11,4.9-1.12,11.86-.45,16.23-.85l21-1.9,38.59-3.5C329.65,635.8,346.63,621.27,362.61,606.47Zm5.42-8.41c-4.91.76-9.59-.71-14.47-1.43-6.93-1-13.94-1.42-20.91-2-1.26-.1-1.75-2.13-.32-2.36a85.92,85.92,0,0,1,19.23-.87c5.64.34,12.05.41,16.88,3.53C369.57,595.63,369.61,597.82,368,598.06Zm-34-23.57c17.11-3.51,38.81-8.51,56-4.36,1.63.39,1.74,3.1,0,3.42-7.94,1.45-16.14.56-24.2.9a261,261,0,0,0-30.93,3.3C332.86,578.1,331.92,574.94,334.07,574.49Zm-10.62,9.31c16.72-2.67,39.84-8.41,56.15-2.76a1.51,1.51,0,0,1,0,2.89c-8.26,2.37-17.42,1.09-26,1.25-10,.2-19.85.56-29.76,1.48C322.2,586.81,321.84,584.06,323.45,583.8Zm-18.08,10c2.18-1.53,4.88-1.59,7.47-1.9q5-.61,10.08-1.32c2.09-.29,3.07,2.77.9,3.25-3.26.73-6.51,1.47-9.75,2.27-2.74.67-5.49,1.63-8.28.9A1.77,1.77,0,0,1,305.37,593.76Zm-20.48,19.1c17.47-3.25,37.39-5.7,54.86-1.49,2.47.6,1.84,4.28-.58,4.31-18.14.29-35.57-1.36-53.76,1C283.21,617,282.75,613.26,284.89,612.86ZM278,623.52c16.77-2,37.61-4.51,53.86,1.32a2.21,2.21,0,0,1-.59,4.32c-8.76.39-17.79-1.49-26.58-2a208.52,208.52,0,0,0-26.69.42C275.32,627.81,275.44,623.83,278,623.52Zm12,28.15c-11.4,3.06-25.55,2.16-37.28,1.62-1.19,0-1.55-1.9-.29-2.16,11.62-2.34,25.83-4.88,37.57-2.76C291.75,648.68,291.58,651.26,290,651.67Zm22.65-8.78c-7.7,2-15.93.94-23.85,1-9.1.08-18.21.26-27.29.88-2.34.16-2.26-3.35,0-3.59,15.57-1.65,35.9-6,51.14-1.23A1.53,1.53,0,0,1,312.68,642.89Zm11.43-3.49c-19.49-3.92-38.59-4.56-58.39-3.27-2.3.15-2.25-3.34,0-3.54,19.88-1.77,40.36-4.25,59.83,1.6C328.91,635.2,327.5,640.08,324.11,639.4Z"/><path class="cls-1" d="M708.82,227.71C699.67,231.6,691,238,681.76,241.34c-3,1.1-8.16,2.1-.37,1.2,5.49-.63,11.61.22,17.14.32l60,1.12a5.38,5.38,0,0,1,2.53.66,4.61,4.61,0,0,1,2.87,4.75c-.95,19.3-4.52,38.19-6.76,57.36-.45,3.87-.85,7.75-1.14,11.64-.12,1.57-.19,3.14-.28,4.7.3-.22.63-.44,1-.68,3.58-8,9.74-15.47,13.78-23.35,16.58-32.34,30.25-67.36,39.06-102.75C775.14,202.9,741,214,708.82,227.71Zm33,2.86c-3.55,2.36-8.09,2.91-12.18,4-4.64,1.21-9.25,2.36-14,3.22-1.14.2-2-1.35-.83-2a71.15,71.15,0,0,1,13.6-5.63c4.23-1.29,8.62-2.86,13-2.21C742.85,228.14,742.78,230,741.87,230.57Zm24.51,65.51a2,2,0,0,1-3.9-.53c-.48-8,1.25-16.36,2.09-24.37.74-7.12,1.39-14.32,2.62-21.38.31-1.84,3-1.23,3.06.41C771.19,264.4,771,282.48,766.38,296.08ZM775,278.61a1.71,1.71,0,0,1-3.09-.4,12.72,12.72,0,0,1,0-4.84c.17-1.62.4-3.21.65-4.81.23-1.44,2.73-1.46,2.93,0C776,271.65,776.57,275.76,775,278.61Zm23.56-69.33c-13.8,4.82-28.88,6.18-43,9.89s-28.11,8.63-42.14,13c-1.15.36-2-1.48-.83-2,13.67-5.86,27.78-10.25,42-14.66s28.6-10,43.38-11C800.8,204.31,801,208.43,798.55,209.28Z"/><path class="cls-2" d="M834.42,295.37a12.39,12.39,0,1,0,12.39,12.39A12.41,12.41,0,0,0,834.42,295.37Z"/><path class="cls-2" d="M483.16,696.68a12.39,12.39,0,1,0,12.39,12.39A12.4,12.4,0,0,0,483.16,696.68Z"/><path class="cls-2" d="M443,404.73a12.39,12.39,0,1,0,12.39,12.39A12.41,12.41,0,0,0,443,404.73Z"/><path class="cls-2" d="M313.41,199.16A12.39,12.39,0,1,0,301,186.77,12.41,12.41,0,0,0,313.41,199.16Z"/><path class="cls-2" d="M624.74,351.25c-26-32.18-58.24-60.61-97.45-75.09-20.89-7.14-42.61-10.51-64.48-12.93a695.55,695.55,0,0,0-132.94-2c-35.1,2.85-75.52,12.5-107.67-7.08A69.35,69.35,0,0,1,193.44,219c-3.06-8.39-3.48-17.36-6.14-25.83-1.24-3.95-5.36-14-10.76-14.74-6.94-.92-11.45,14-13,18.75a124.49,124.49,0,0,0-6.33,29.47c-2.4,30.37,19.2,62.2,43.06,79C235.07,330,278,324.55,317.78,320c41.94-4.84,81.64-2.65,122.64,7.66,38,9.56,78.92,20.62,111.48,43.22a290.15,290.15,0,0,1,31.66,25.63l10.57-10.06q16.7-15.9,33.37-31.82C626.57,353.48,625.65,352.38,624.74,351.25ZM177,189.73c7.81,10,9.47,23.08,14,34.66,6.86,17.52,17.29,27.31,32.21,37.89a2,2,0,0,1-1.52,3.59c-13.25-2.63-23.57-15.22-29.87-26.49a107,107,0,0,1-8.44-20.23c-2.88-9.21-3.69-19.18-8.83-27.53C173.6,190.13,175.87,188.32,177,189.73Zm-2.49,17c3.4,12.92,10.83,24.21,14.89,36.78A1.45,1.45,0,0,1,187,245c-9.26-10-11.93-24.78-14-37.75C172.77,206.2,174.21,205.75,174.48,206.77Zm-3.35,10.63c1.14,5.18,2.6,10.32,3.93,15.46a.93.93,0,0,1-1.7.71,39.49,39.49,0,0,1-5.09-15.79C168.06,216.14,170.78,215.83,171.13,217.4ZM234.65,311c-16-.3-32.8-12.51-43.94-23.22-13.19-12.68-21.1-27.81-25.63-45.34a1,1,0,0,1,2-.55c5.58,15.65,15.87,30.31,27.92,41.61,12.43,11.65,26.36,15.93,40.53,24.31A1.73,1.73,0,0,1,234.65,311Zm252.53,22.26c-17.56-7.42-34.56-14.08-53.39-17.57a286.35,286.35,0,0,0-54.54-4.28c-38.77.32-77.39,5.61-116.15,7.1-1.68.07-1.62-2.42,0-2.57C304.42,312,345.25,305,386.91,305.51c34.24.41,73.16,4.85,102.76,23.47C492.44,330.73,490,334.45,487.18,333.25Zm49,17.61c-9-5.61-16.48-13.17-25.11-19.27a124.54,124.54,0,0,0-28.72-14.78C461.2,309,438.69,302,416,301.48a1,1,0,0,1,0-2c12.86-1.18,25,1.39,37.52,4.16,10.8,2.4,21.57,4.55,32,8.33,19.7,7.14,39.63,19.51,52.75,36.1C539.48,349.55,538,352,536.16,350.86Zm23.6,5.64c-10.7-7.14-19-17.77-29.11-25.82-11.78-9.42-24.41-17.57-38.77-22.42a1.07,1.07,0,0,1,.57-2.07,101,101,0,0,1,38.46,17.86c11.09,8.32,23.64,18.34,31.21,30.08A1.74,1.74,0,0,1,559.76,356.5ZM570,351.75c-5.58-3-9.77-9.46-14.24-13.92a186.29,186.29,0,0,0-16.09-14.28c-1.44-1.14.44-3.47,2-2.52a132.81,132.81,0,0,1,17.68,13.26c4.69,4.2,11.12,9.47,13,15.68A1.59,1.59,0,0,1,570,351.75Zm8.35-6.49c-3.59-2.2-6.36-5.51-9.41-8.37a102,102,0,0,0-11.09-9.12c-2-1.43-.2-4.73,2-3.39,7.48,4.61,17.2,10.79,20.66,19.23C581,344.83,579.32,345.87,578.32,345.26Zm10.23-6.07a1.28,1.28,0,0,1-1.13.65c-3.11.19-4.8-4.16-6.87-6a49.79,49.79,0,0,0-5.13-3.49c-1.72-1.17-3.21-2.59-4.88-3.83-.92-.68-.41-2.46.84-2,4.23,1.55,8.65,2.56,12.25,5.46C586,331.91,590.2,335.91,588.55,339.19Zm7.86-4.41a1.51,1.51,0,0,1-1.69.69c-2.16-.8-2.86-3.47-4.4-5.07a32.12,32.12,0,0,0-6.77-4.92c-1.66-1-.21-3.25,1.47-2.52a30.86,30.86,0,0,1,8.42,4.81C595.23,329.37,597.9,332.26,596.41,334.78Z"/><path class="cls-2" d="M791.1,844c-5.46-4.29-17.68-2.25-24.23-3.11a80.12,80.12,0,0,1-20.27-5.18c-14.25-5.87-25.26-16.56-29.9-31.45-5.06-16.25-1.91-33.85,3.31-49.61,6.66-20.09,14.76-39.06,18.54-60s4.92-42.25,6.21-63.45c1.32-21.87,2-43.69-.4-65.52a257.6,257.6,0,0,0-41.82-115.24c-12.17-18.3-24.66-37-38.52-54.09-5.45-6.7-11.2-13.13-17-19.53q-21.37,20.43-42.8,40.8a320.12,320.12,0,0,1,25.23,31.66c11.41,16.46,19.78,35.39,28.21,53.49s16.17,36.66,22.11,55.77c11.92,38.32,14.84,77.53,7.58,117-5.23,28.47-16.73,56-23.61,84.28a5.26,5.26,0,0,1-.42,1.79,176.65,176.65,0,0,0-5,35.08c-1.25,40.65,21.34,77.14,63.52,83.52,18.73,2.83,41.61-.53,57.49-11.45C784.8,865,799.7,850.71,791.1,844Zm-61.43-8.7a50,50,0,0,0,11.52,5.14c3.33,1.09,7.28,1.2,10.24,3.13a1.78,1.78,0,0,1-.42,3.21c-3.92,1.38-8.85-.56-12.53-2.06-4-1.62-7.41-4.27-10.73-6.93C726.33,836.6,728.18,834.31,729.67,835.25ZM720.25,833c1.83,1.36.18,4.42-1.84,3.13-39.75-25.3-31.78-76.66-19.7-115.07C707,694.7,714.89,669,716.5,641.18c1.6-27.68-2.43-54.74-9.44-81.45-.33-1.27,1.45-1.67,1.92-.53,17.54,43,17.92,91.66,5.13,135.91C701.75,737.86,675.14,799.47,720.25,833Zm12.28-154.54c-7.94,45.22-35.1,91.86-18.31,138.14.47,1.29-1.59,2.12-2.2.93-20.32-39.72.79-82.33,10.51-121.82a276.57,276.57,0,0,0,8.19-71.9c-.52-24.52-5.81-47.41-12.56-70.83-.72-2.5,3.21-4.26,4.28-1.8C739.4,590.3,739.79,637.14,732.53,678.49ZM728,528.1c9.07,16.42,10.26,38.46,12.26,56.84.17,1.65-2.55,2-2.87.39C733.73,567,725.88,547.6,725,528.92A1.64,1.64,0,0,1,728,528.1ZM640.14,408.58a46.48,46.48,0,0,1,7.28,8.06c1.92,2.6,4.75,6.09,5.22,9.35.13.92-.8,2-1.77,1.36-2.6-1.8-4.33-5.16-6.17-7.72a114.73,114.73,0,0,1-6.45-9.59A1.21,1.21,0,0,1,640.14,408.58Zm-8.46,2.35a61.73,61.73,0,0,1,10.79,10.14c2.76,3.35,5.71,6.86,6.27,11.29.15,1.2-1.49,1.31-2,.55-5.18-7.1-10-13.94-16.67-19.82C628.86,412.06,630.44,410,631.68,410.93Zm-7.08,4.42c9.94,5.14,20.72,17.21,23,28.44a1.17,1.17,0,0,1-1.94,1.13c-4.14-3.7-6.7-9-9.91-13.51a75.69,75.69,0,0,0-12.92-13.78C621.5,416.52,623.21,414.63,624.6,415.35Zm34,67.68c-16.49-19-24-44.93-43.35-61.88-.94-.83.3-2.41,1.33-1.73,9.4,6.29,15.75,14.27,21.86,23.67,7.86,12.07,17.37,24.49,23,37.74C662.21,482.56,660.09,484.73,658.62,483ZM689,460.71c-11.2-19.85-24-39.46-39.18-56.48-.81-.91.46-2.21,1.34-1.35a261.37,261.37,0,0,1,41.44,53.6c11.19,18.88,24.54,40,30.68,61.22.7,2.4-2.53,3.46-3.82,1.61C707.09,501.55,699.64,479.61,689,460.71Zm-8,274.88c6.65-24.56,21.31-49.92,17.08-76.06-.38-2.36,3.12-3.43,3.67-1,4.31,19-.91,36.26-7,54.33-7,20.81-13.43,42.16-13.13,64.34.27,19.89,6.29,40.65,20.5,55.13,14.67,14.95,33.89,19.12,54.08,18.48,3.09-.1,3.7,4.63.73,5.35-38,9.15-71.49-21.32-79.5-56.57C672.64,778.34,675.36,756.39,681,735.59Zm44.26,139.26c-30.12-4.34-45.16-26.8-56.82-52.65-.58-1.29,1.2-2.4,1.93-1.13,10.77,18.65,23,37.69,44.44,45,18.92,6.46,56.59,5.7,65.18-16.37a2.16,2.16,0,0,1,4.22.57C786.77,874.2,740.28,877,725.25,874.85Z"/><path d="M786.5,831.43c-19-2.72-39-1.1-52.62-17.6-15.07-18.23-8.13-43.88-.83-63.78,7.8-21.25,14.62-41.74,17.76-64.27,3-21.51,4.2-43.28,5.35-65,2.31-43.84-2.36-88.2-19.11-129.11a274.58,274.58,0,0,0-28.25-51.37c-12.33-17.95-24.47-36.42-38.36-53.22-5-6.09-10.22-12.06-15.44-18q25.39-24.28,50.73-48.62c12.75-12.26,25.49-24.52,38.1-36.92,2-2,4.23-4,6.41-6-1.93,14.24-4.22,28.45-5.18,42.81-.42,6.19-1.5,15.12,5.88,17.84,7.86,2.89,12.73-6.81,16.21-12,13-19.25,22.06-40.93,30.86-62.33,9.61-23.37,18-47.16,23.69-71.81a5.79,5.79,0,0,0,.11-1.74,5.88,5.88,0,0,0-6.76-6c-24.27,4.11-47.91,10.84-71.18,18.79C722,210.64,699.74,218.43,679.64,230c-5.51,3.18-15.73,7.3-14.39,15.18,1,6.17,6.45,7.53,11.86,8.05,17.74,1.68,35.94,1.58,54,1.47l-5,4.91q-15.87,15.64-32,31.06-29.27,28.2-58.68,56.24c-2.68-3.07-5.35-6.15-8-9.25a289.12,289.12,0,0,0-43.43-41.88,202.33,202.33,0,0,0-53.94-30.08C487.08,251,438.4,248.66,393.22,248.22a696.1,696.1,0,0,0-71.77,3c-20.19,1.89-40.65,5.35-61,3.56-21.71-1.91-42.22-11.39-53.08-31.14-8.43-15.31-5.91-34.71-17.74-48.32-15.24-17.54-29.32-.43-35.26,15.27-8.09,21.38-10.64,43.32-3.56,65.28,10,31,33.83,57.49,64,70a119.11,119.11,0,0,0,34.6,8.33c13.46,15.38,28.05,29.9,42.07,44.76q47.82,50.67,95.69,101.28,25.64,27.11,51.26,54.2-7.24,6.9-14.5,13.79c-.24,0-.48,0-.74,0-17.8,2.56-35.61,5.11-53.53,6.63-13.77,1.17-27.52.7-40.37,6.46-24.93,11.19-47.65,33.06-66.44,52.43a355.62,355.62,0,0,0-26.37,30.5c-4.18,5.42-15.95,16.26-8.06,23.33,3.44,3.08,8.42,2.23,12.56,1.94,8.39-.59,16.78-1.52,25.16-2.28l50.33-4.57a5.22,5.22,0,0,0,.57-.11l.17,0q3.74,4.15,7.33,8.43a5.86,5.86,0,0,0,.14,1.51,6,6,0,0,0-.4,1.47q-3.26,25.05-6.5,50.11c-1.09,8.35-2.28,16.7-3.25,25.06-.49,4.17-1.45,9,1.59,12.57,6.54,7.54,16.74-2.51,22.15-6.33a362.59,362.59,0,0,0,33-26.29c20.06-18,42.92-39.85,54.91-64.4,6.17-12.62,6.21-26.44,7.91-40.12,2.22-17.85,5.51-35.55,8.75-53.23,0-.17,0-.32,0-.49q7.92-7.51,15.82-15,71.81,75.92,143.56,151.88c16.72,17.72,34.1,35,50.25,53.3a197.12,197.12,0,0,0-4.74,30.44c-2.51,36.18,10.66,72.27,44,90,28.64,15.23,71.66,14.84,97.41-6.72C804.07,862.26,813.38,835.28,786.5,831.43Zm-88-588.57c-5.53-.1-11.65-1-17.14-.32-7.79.9-2.59-.1.37-1.2,9.2-3.39,17.91-9.74,27.06-13.63C741,214,775.14,202.9,809.58,196.31c-8.81,35.39-22.48,70.41-39.06,102.75-4,7.88-10.2,15.37-13.78,23.35-.39.24-.72.46-1,.68.09-1.56.16-3.13.28-4.7.29-3.89.69-7.77,1.14-11.64,2.24-19.17,5.81-38.06,6.76-57.36a4.61,4.61,0,0,0-2.87-4.75,5.38,5.38,0,0,0-2.53-.66ZM200.24,305.57c-23.86-16.76-45.46-48.59-43.06-79a124.49,124.49,0,0,1,6.33-29.47c1.58-4.71,6.09-19.67,13-18.75,5.4.71,9.52,10.79,10.76,14.74,2.66,8.47,3.08,17.44,6.14,25.83a69.35,69.35,0,0,0,28.76,35.22c32.15,19.58,72.57,9.93,107.67,7.08a695.55,695.55,0,0,1,132.94,2c21.87,2.42,43.59,5.79,64.48,12.93,39.21,14.48,71.49,42.91,97.45,75.09.91,1.13,1.83,2.23,2.76,3.34q-16.68,15.92-33.37,31.82l-10.57,10.06a290.15,290.15,0,0,0-31.66-25.63c-32.56-22.6-73.47-33.66-111.48-43.22-41-10.31-80.7-12.5-122.64-7.66C278,324.55,235.07,330,200.24,305.57Zm109.05,76.48c-14.83-15.71-30.18-31.1-44.73-47.12,26.4.17,53.31-4.93,79.35-6.75,46.68-3.27,92,8.08,136.1,22.22,21.56,6.91,42.75,14.24,61.85,26.67,12.15,7.91,23,17.29,33.37,27.31Q510.79,465.72,446.29,527,377.77,454.54,309.29,382.05Zm6,270-38.59,3.5-21,1.9c-4.37.4-11.33-.27-16.23.85.27-.37.53-.75.8-1.11,2.29-3.12,4.62-6.21,7-9.24q5.76-7.27,11.9-14.23a350.73,350.73,0,0,1,24.6-25.23c17.09-15.84,39.12-37.62,63.1-41,13.12-1.86,26.57-1.93,39.76-3.45,8-.92,16-2,24-3.11q-21,19.95-42,39.9c-.84.81-1.71,1.61-2.57,2.41a2.15,2.15,0,0,0-1.39-1.21c-21.23-5.89-44.95-4.41-66.42-.69-2.13.37-1.66,4.08.52,3.82,21.76-2.6,42.17-.53,63.77,1.38C346.63,621.27,329.65,635.8,315.25,652Zm110.29-43.58c-1.92,12.66-2.44,25.64-4.68,38.22-4.31,24.16-27,45.43-43.75,62.11A350.09,350.09,0,0,1,351,732.36q-7.38,6-15.1,11.58-3.75,2.71-7.58,5.33l-3.08,2.08-.09,0s0-.07,0-.11q.41-3.13.82-6.27l1.08-8.35q1.35-10.44,2.71-20.88,2.71-20.88,5.42-41.76a.86.86,0,0,0,0-.16,5,5,0,0,0,.57-.76c13.17-14.58,28.76-27.57,42.92-41.07q25.53-24.35,51.12-48.61C428.24,591.74,426.8,600.06,425.54,608.42Zm-44.93,6.78c-16.24,15.47-34.09,30.37-49.5,46.89-1.68-2-3.38-3.93-5.11-5.87,12.68-13.6,27.33-25.88,40.7-38.63q50.64-48.29,101.41-96.44,113-107.37,225.71-215.09c12.75-12.26,25.49-24.52,38.1-36.91,4.68-4.6,10.32-9.18,14.48-14.46,2.12,0,4.22,0,6.32,0-.12,1.67-.24,3.35-.39,5a5.63,5.63,0,0,0-1.68,1.66c1.24-1.85-2.32,2.4-3.2,3.31-3.07,3.18-6.23,6.27-9.38,9.38q-15.87,15.65-32,31.06-49.85,48-100.06,95.69Q493.44,508.12,380.61,615.2Zm239.44,95.63q-47.82-50.67-95.69-101.27Q495.45,579,466.54,548.41L480,535.58q57.91-55,115.83-110.05c12.66,13.57,24.69,27.74,33.47,44.21A659.2,659.2,0,0,1,658.79,532C676,574.44,685.27,619,678.27,664.82c-4.36,28.54-15,55.8-22.58,83.63C644.07,735.68,631.87,723.36,620.05,710.83ZM779.32,868.72c-15.88,10.92-38.76,14.28-57.49,11.45-42.18-6.38-64.77-42.87-63.52-83.52a176.65,176.65,0,0,1,5-35.08,5.26,5.26,0,0,0,.42-1.79c6.88-28.26,18.38-55.81,23.61-84.28,7.26-39.52,4.34-78.73-7.58-117-5.94-19.11-13.66-37.64-22.11-55.77s-16.8-37-28.21-53.49a320.12,320.12,0,0,0-25.23-31.66q21.4-20.38,42.8-40.8c5.78,6.4,11.53,12.83,17,19.53,13.86,17.07,26.35,35.79,38.52,54.09a257.6,257.6,0,0,1,41.82,115.24c2.43,21.83,1.72,43.65.4,65.52-1.29,21.2-2.45,42.52-6.21,63.45s-11.88,40-18.54,60c-5.22,15.76-8.37,33.36-3.31,49.61,4.64,14.89,15.65,25.58,29.9,31.45a80.12,80.12,0,0,0,20.27,5.18c6.55.86,18.77-1.18,24.23,3.11C799.7,850.71,784.8,865,779.32,868.72Z"/><path d="M433.79,315.68c18.83,3.49,35.83,10.15,53.39,17.57,2.85,1.2,5.26-2.52,2.49-4.27-29.6-18.62-68.52-23.06-102.76-23.47-41.66-.5-82.49,6.53-123.81,10.42-1.62.15-1.68,2.64,0,2.57,38.76-1.49,77.38-6.78,116.15-7.1A286.35,286.35,0,0,1,433.79,315.68Z"/><path d="M416,301.48c22.66.54,45.17,7.5,66.3,15.33a124.54,124.54,0,0,1,28.72,14.78c8.63,6.1,16.15,13.66,25.11,19.27,1.84,1.15,3.32-1.31,2.15-2.78-13.12-16.59-33-29-52.75-36.1-10.44-3.78-21.21-5.93-32-8.33-12.5-2.77-24.66-5.34-37.52-4.16A1,1,0,0,0,416,301.48Z"/><path d="M491.88,308.26c14.36,4.85,27,13,38.77,22.42,10.08,8.05,18.41,18.68,29.11,25.82a1.74,1.74,0,0,0,2.36-2.37c-7.57-11.74-20.12-21.76-31.21-30.08a101,101,0,0,0-38.46-17.86A1.07,1.07,0,0,0,491.88,308.26Z"/><path d="M555.73,337.83c4.47,4.46,8.66,10.91,14.24,13.92a1.59,1.59,0,0,0,2.32-1.78c-1.9-6.21-8.33-11.48-13-15.68A132.81,132.81,0,0,0,541.59,321c-1.51-.95-3.39,1.38-2,2.52A186.29,186.29,0,0,1,555.73,337.83Z"/><path d="M557.82,327.77a102,102,0,0,1,11.09,9.12c3.05,2.86,5.82,6.17,9.41,8.37,1,.61,2.63-.43,2.14-1.65C577,335.17,567.28,329,559.8,324.38,557.62,323,555.78,326.34,557.82,327.77Z"/><path d="M235.52,307.8c-14.17-8.38-28.1-12.66-40.53-24.31-12.05-11.3-22.34-26-27.92-41.61a1,1,0,0,0-2,.55c4.53,17.53,12.44,32.66,25.63,45.34,11.14,10.71,27.91,22.92,43.94,23.22A1.73,1.73,0,0,0,235.52,307.8Z"/><path d="M183.35,219.15a107,107,0,0,0,8.44,20.23c6.3,11.27,16.62,23.86,29.87,26.49a2,2,0,0,0,1.52-3.59c-14.92-10.58-25.35-20.37-32.21-37.89-4.53-11.58-6.19-24.69-14-34.66-1.1-1.41-3.37.4-2.45,1.89C179.66,200,180.47,209.94,183.35,219.15Z"/><path d="M189.37,243.55c-4.06-12.57-11.49-23.86-14.89-36.78-.27-1-1.71-.57-1.55.43,2.11,13,4.78,27.7,14,37.75A1.45,1.45,0,0,0,189.37,243.55Z"/><path d="M175.06,232.86c-1.33-5.14-2.79-10.28-3.93-15.46-.35-1.57-3.07-1.26-2.86.38a39.49,39.49,0,0,0,5.09,15.79A.93.93,0,0,0,175.06,232.86Z"/><path d="M575.42,330.38a49.79,49.79,0,0,1,5.13,3.49c2.07,1.81,3.76,6.16,6.87,6a1.28,1.28,0,0,0,1.13-.65c1.65-3.28-2.56-7.28-4.92-9.18-3.6-2.9-8-3.91-12.25-5.46-1.25-.46-1.76,1.32-.84,2C572.21,327.79,573.7,329.21,575.42,330.38Z"/><path d="M583.55,325.48a32.12,32.12,0,0,1,6.77,4.92c1.54,1.6,2.24,4.27,4.4,5.07a1.51,1.51,0,0,0,1.69-.69c1.49-2.52-1.18-5.41-3-7A30.86,30.86,0,0,0,585,323C583.34,322.23,581.89,324.49,583.55,325.48Z"/><path d="M757,856.15c3-.72,2.36-5.45-.73-5.35-20.19.64-39.41-3.53-54.08-18.48-14.21-14.48-20.23-35.24-20.5-55.13-.3-22.18,6.16-43.53,13.13-64.34,6.05-18.07,11.27-35.29,7-54.33-.55-2.42-4-1.35-3.67,1,4.23,26.14-10.43,51.5-17.08,76.06-5.63,20.8-8.35,42.75-3.53,64C685.47,834.83,719,865.3,757,856.15Z"/><path d="M714.11,695.11c12.79-44.25,12.41-92.93-5.13-135.91-.47-1.14-2.25-.74-1.92.53,7,26.71,11,53.77,9.44,81.45C714.89,669,707,694.7,698.71,721.09c-12.08,38.41-20.05,89.77,19.7,115.07,2,1.29,3.67-1.77,1.84-3.13C675.14,799.47,701.75,737.86,714.11,695.11Z"/><path d="M718.16,553c6.75,23.42,12,46.31,12.56,70.83a276.57,276.57,0,0,1-8.19,71.9c-9.72,39.49-30.83,82.1-10.51,121.82.61,1.19,2.67.36,2.2-.93-16.79-46.28,10.37-92.92,18.31-138.14,7.26-41.35,6.87-88.19-10.09-127.28C721.37,548.75,717.44,550.51,718.16,553Z"/><path d="M723.25,517.7c-6.14-21.17-19.49-42.34-30.68-61.22a261.37,261.37,0,0,0-41.44-53.6c-.88-.86-2.15.44-1.34,1.35,15.19,17,28,36.63,39.18,56.48,10.67,18.9,18.12,40.84,30.46,58.6C720.72,521.16,724,520.1,723.25,517.7Z"/><path d="M780,849.71c-8.59,22.07-46.26,22.83-65.18,16.37-21.42-7.32-33.67-26.36-44.44-45-.73-1.27-2.51-.16-1.93,1.13,11.66,25.85,26.7,48.31,56.82,52.65,15,2.16,61.52-.65,59-24.57A2.16,2.16,0,0,0,780,849.71Z"/><path d="M738.48,844.67c3.68,1.5,8.61,3.44,12.53,2.06a1.78,1.78,0,0,0,.42-3.21c-3-1.93-6.91-2-10.24-3.13a50,50,0,0,1-11.52-5.14c-1.49-.94-3.34,1.35-1.92,2.49C731.07,840.4,734.53,843.05,738.48,844.67Z"/><path d="M740.24,584.94c-2-18.38-3.19-40.42-12.26-56.84a1.64,1.64,0,0,0-3,.82c.93,18.68,8.78,38,12.42,56.41C737.69,586.92,740.41,586.59,740.24,584.94Z"/><path d="M638.46,443.09c-6.11-9.4-12.46-17.38-21.86-23.67-1-.68-2.27.9-1.33,1.73,19.3,17,26.86,42.83,43.35,61.88,1.47,1.7,3.59-.47,2.85-2.2C655.83,467.58,646.32,455.16,638.46,443.09Z"/><path d="M635.76,431.41c3.21,4.47,5.77,9.81,9.91,13.51a1.17,1.17,0,0,0,1.94-1.13c-2.29-11.23-13.07-23.3-23-28.44-1.39-.72-3.1,1.17-1.76,2.28A75.69,75.69,0,0,1,635.76,431.41Z"/><path d="M646.69,432.91c.56.76,2.2.65,2-.55-.56-4.43-3.51-7.94-6.27-11.29a61.73,61.73,0,0,0-10.79-10.14c-1.24-.93-2.82,1.13-1.66,2.16C636.65,419,641.51,425.81,646.69,432.91Z"/><path d="M644.7,419.63c1.84,2.56,3.57,5.92,6.17,7.72,1,.67,1.9-.44,1.77-1.36-.47-3.26-3.3-6.75-5.22-9.35a46.48,46.48,0,0,0-7.28-8.06,1.21,1.21,0,0,0-1.89,1.46A114.73,114.73,0,0,0,644.7,419.63Z"/><path d="M797.9,204.51c-14.78,1-29.33,6.65-43.38,11s-28.3,8.8-42,14.66c-1.12.49-.32,2.33.83,2,14-4.35,27.92-9.26,42.14-13s29.23-5.07,43-9.89C801,208.43,800.8,204.31,797.9,204.51Z"/><path d="M741.53,227.94c-4.43-.65-8.82.92-13,2.21a71.15,71.15,0,0,0-13.6,5.63c-1.13.62-.31,2.17.83,2,4.73-.86,9.34-2,14-3.22,4.09-1.05,8.63-1.6,12.18-4C742.78,230,742.85,228.14,741.53,227.94Z"/><path d="M767.19,249.8c-1.23,7.06-1.88,14.26-2.62,21.38-.84,8-2.57,16.36-2.09,24.37a2,2,0,0,0,3.9.53c4.61-13.6,4.81-31.68,3.87-45.87C770.15,248.57,767.5,248,767.19,249.8Z"/><path d="M772.59,268.56c-.25,1.6-.48,3.19-.65,4.81a12.72,12.72,0,0,0,0,4.84,1.71,1.71,0,0,0,3.09.4c1.58-2.85,1-7,.53-10.05C775.32,267.1,772.82,267.12,772.59,268.56Z"/><path d="M335,577.75a261,261,0,0,1,30.93-3.3c8.06-.34,16.26.55,24.2-.9,1.74-.32,1.63-3,0-3.42-17.22-4.15-38.92.85-56,4.36C331.92,574.94,332.86,578.1,335,577.75Z"/><path d="M323.84,586.66c9.91-.92,19.8-1.28,29.76-1.48,8.58-.16,17.74,1.12,26-1.25a1.51,1.51,0,0,0,0-2.89c-16.31-5.65-39.43.09-56.15,2.76C321.84,584.06,322.2,586.81,323.84,586.66Z"/><path d="M368.44,594.9c-4.83-3.12-11.24-3.19-16.88-3.53a85.92,85.92,0,0,0-19.23.87c-1.43.23-.94,2.26.32,2.36,7,.61,14,1,20.91,2,4.88.72,9.56,2.19,14.47,1.43C369.61,597.82,369.57,595.63,368.44,594.9Z"/><path d="M305.79,597c2.79.73,5.54-.23,8.28-.9,3.24-.8,6.49-1.54,9.75-2.27,2.17-.48,1.19-3.54-.9-3.25q-5,.71-10.08,1.32c-2.59.31-5.29.37-7.47,1.9A1.77,1.77,0,0,0,305.79,597Z"/><path d="M285.41,616.72c18.19-2.4,35.62-.75,53.76-1,2.42,0,3.05-3.71.58-4.31-17.47-4.21-37.39-1.76-54.86,1.49C282.75,613.26,283.21,617,285.41,616.72Z"/><path d="M278,627.62a208.52,208.52,0,0,1,26.69-.42c8.79.47,17.82,2.35,26.58,2a2.21,2.21,0,0,0,.59-4.32c-16.25-5.83-37.09-3.36-53.86-1.32C275.44,623.83,275.32,627.81,278,627.62Z"/><path d="M325.55,634.19c-19.47-5.85-39.95-3.37-59.83-1.6-2.25.2-2.3,3.69,0,3.54,19.8-1.29,38.9-.65,58.39,3.27C327.5,640.08,328.91,635.2,325.55,634.19Z"/><path d="M312.68,640c-15.24-4.81-35.57-.42-51.14,1.23-2.26.24-2.34,3.75,0,3.59,9.08-.62,18.19-.8,27.29-.88,7.92-.07,16.15,1,23.85-1A1.53,1.53,0,0,0,312.68,640Z"/><path d="M290,648.37c-11.74-2.12-25.95.42-37.57,2.76-1.26.26-.9,2.11.29,2.16,11.73.54,25.88,1.44,37.28-1.62C291.58,651.26,291.75,648.68,290,648.37Z"/><path d="M340.76,708.16a134.39,134.39,0,0,0,.75-35.78c-.2-2-3.16-2.08-3.16,0,0,11.82-.24,23.62-.08,35.44C338.29,709.19,340.52,709.61,340.76,708.16Z"/><path d="M345.47,668.67c.54,20.91-4.31,40.42-5.75,61-.14,1.9,2.95,2.84,3.73,1,8-18.68,7.54-42.15,6.11-62C349.38,666.07,345.4,666,345.47,668.67Z"/><path d="M354.84,661c-.06,10.31.13,20.61.12,30.91s-1.47,20.81-.26,30.92c.23,2,3.2,2.77,3.73.5,4.55-19.44,1.95-43.07-.73-62.71C357.48,659,354.85,659.43,354.84,661Z"/><path d="M335,714.71a147.12,147.12,0,0,0-2.92,14.71c-.59,3.94-1.69,7.89-1,11.85a1.44,1.44,0,0,0,2.62.34c1.92-4,1.91-8.78,2.5-13.14A128.8,128.8,0,0,0,337.27,715,1.17,1.17,0,0,0,335,714.71Z"/><path d="M363,653.85c1.52,18.49.36,38.33,3.73,56.52.31,1.7,3.25,1.77,3.5,0,2.64-18.36-1.24-38.73-4.08-57C365.87,651.65,362.85,652.05,363,653.85Z"/><path d="M373.88,674.85a1.48,1.48,0,0,0,2.84,0c1.71-8.51-1-18.53-3.38-26.69a1.42,1.42,0,0,0-2.73.75C372.55,657.5,372.1,666.34,373.88,674.85Z"/><path d="M374.2,682.33c-.21,3.5-.43,6.95-.44,10.47,0,3.11-.37,6.31.52,9.31a1.23,1.23,0,0,0,2.36,0c2-5.91.58-13.74-.2-19.78A1.12,1.12,0,0,0,374.2,682.33Z"/><path d="M382,694.83c0,1,1.56,1.23,1.74.23,3.16-17.42,5.21-38.72-1.52-55.54-.64-1.58-3.17-1.52-3.16.42C379.15,658.36,382.85,676.2,382,694.83Z"/><path d="M389.84,682.54c-.2,1.87,3,2.33,3.32.45,2.35-15,3.91-34.58-2.93-48.63-.78-1.6-3.43-.83-3.34.9.38,7.9,2.95,15.53,3.5,23.49A136,136,0,0,1,389.84,682.54Z"/><path d="M399.91,676.89c2.49-15.8,3.77-34.83-1.14-50.26-.69-2.17-4.08-1.85-4.06.55.13,16.44,2.74,32.78,2.59,49.36C397.29,678,399.67,678.41,399.91,676.89Z"/><path d="M406.73,668.69a1.29,1.29,0,0,0,2.53.34c5.87-15.68,2.15-34.52-2.85-49.93-.78-2.39-4.46-1.41-3.79,1C407.11,636.57,405.68,652.05,406.73,668.69Z"/><path d="M412.8,629.28c.4,4.29,0,8.74,1.23,12.89a1.39,1.39,0,0,0,2.65,0c2.73-8.87-.93-21.19-3.68-29.69a1.48,1.48,0,0,0-2.85.78A131.48,131.48,0,0,1,412.8,629.28Z"/><path d="M418.05,618.9c.66,1.47,2.52.49,2.68-.72.57-4.43-1.81-9.34-3.68-13.24-.72-1.49-3.29-.44-2.7,1.14C415.9,610.22,416.25,614.9,418.05,618.9Z"/><path d="M421,609.05a1.21,1.21,0,0,0,2-.53c.7-2.78-.82-5.63-1.74-8.2-.81-2.24-4.31-1.36-3.62,1C418.41,603.9,418.85,607.23,421,609.05Z"/><path d="M814.79,397.46c-7-1.18-14-1.1-21.09-1.35-3.47-.12-7-.48-10.47-.64a9.74,9.74,0,0,0-6.42-7.79c-.18-3-.45-6-.56-9-.25-7.08-.17-14.1-1.35-21.09a1.11,1.11,0,0,0-2.12,0c-1.18,7-1.1,14-1.35,21.09-.1,2.87-.36,5.78-.54,8.69a9.7,9.7,0,0,0-7.58,8.17c-3.12.18-6.24.47-9.32.58-7.07.25-14.1.17-21.09,1.35a1.11,1.11,0,0,0,0,2.12c7,1.18,14,1.1,21.09,1.35,3.23.11,6.51.43,9.78.6a9.42,9.42,0,0,0,7,6.35c.16,3.51.52,7,.64,10.49.25,7.07.17,14.1,1.35,21.09a1.11,1.11,0,0,0,2.12,0c1.18-7,1.1-14,1.35-21.09.13-3.57.51-7.2.66-10.81a9.48,9.48,0,0,0,5.84-6c3.66-.15,7.33-.53,11-.66,7.07-.25,14.09-.17,21.09-1.35A1.11,1.11,0,0,0,814.79,397.46Z"/><path d="M263.65,509c3.23.11,6.51.43,9.78.6a9.45,9.45,0,0,0,7,6.36c.16,3.5.52,7,.64,10.48.25,7.07.17,14.1,1.35,21.09a1.11,1.11,0,0,0,2.12,0c1.18-7,1.1-14,1.35-21.09.13-3.57.51-7.2.66-10.81a9.52,9.52,0,0,0,5.85-6c3.65-.15,7.32-.53,10.94-.66,7.07-.25,14.09-.17,21.09-1.35a1.11,1.11,0,0,0,0-2.12c-7-1.18-14-1.1-21.09-1.35-3.47-.12-7-.48-10.47-.64a9.74,9.74,0,0,0-6.42-7.79c-.18-3-.45-6-.56-9-.25-7.07-.17-14.1-1.35-21.09a1.11,1.11,0,0,0-2.12,0c-1.18,7-1.1,14-1.35,21.09-.1,2.87-.36,5.78-.54,8.69a9.71,9.71,0,0,0-7.58,8.17c-3.12.18-6.24.47-9.32.58-7.07.25-14.1.17-21.09,1.35a1.11,1.11,0,0,0,0,2.12C249.55,508.79,256.58,508.71,263.65,509Z"/><path d="M662.55,150.76c7,1.19,14,1.1,21.09,1.35,3.23.12,6.51.43,9.78.61a9.43,9.43,0,0,0,7,6.35c.16,3.5.52,7,.64,10.49.25,7.07.17,14.1,1.35,21.09a1.11,1.11,0,0,0,2.12,0c1.18-7,1.1-14,1.35-21.09.13-3.58.5-7.21.66-10.82a9.44,9.44,0,0,0,5.84-6c3.66-.15,7.33-.54,10.94-.67,7.07-.25,14.1-.16,21.09-1.35a1.1,1.1,0,0,0,0-2.11c-7-1.18-14-1.1-21.09-1.35-3.46-.13-7-.48-10.46-.65a9.77,9.77,0,0,0-6.42-7.79c-.18-3-.45-6-.56-9-.25-7.07-.17-14.1-1.35-21.09a1.11,1.11,0,0,0-2.12,0c-1.18,7-1.1,14-1.35,21.09-.1,2.88-.36,5.79-.54,8.7a9.69,9.69,0,0,0-7.58,8.17c-3.12.18-6.24.47-9.32.58-7.07.25-14.1.17-21.09,1.35A1.1,1.1,0,0,0,662.55,150.76Z"/><path d="M635.77,569.64c-7-1.18-14-1.1-21.09-1.35-3.46-.13-7-.48-10.47-.64a9.75,9.75,0,0,0-6.42-7.8c-.18-3-.45-6-.56-9-.25-7.07-.17-14.1-1.35-21.09a1.1,1.1,0,0,0-2.11,0c-1.19,7-1.1,14-1.36,21.09-.1,2.88-.36,5.79-.54,8.7a9.7,9.7,0,0,0-7.58,8.17c-3.11.18-6.24.47-9.32.58-7.07.25-14.1.17-21.09,1.35a1.1,1.1,0,0,0,0,2.11c7,1.19,14,1.1,21.09,1.36,3.24.11,6.51.42,9.78.6a9.43,9.43,0,0,0,7,6.35c.17,3.51.52,7,.64,10.49.26,7.07.17,14.1,1.36,21.09a1.1,1.1,0,0,0,2.11,0c1.18-7,1.1-14,1.35-21.09.13-3.58.51-7.2.66-10.82a9.48,9.48,0,0,0,5.85-6c3.65-.15,7.32-.54,10.94-.66,7.07-.26,14.1-.17,21.09-1.36A1.1,1.1,0,0,0,635.77,569.64Z"/><path d="M313.41,205.64a18.88,18.88,0,1,0-18.87-18.87A18.9,18.9,0,0,0,313.41,205.64Zm0-31.26A12.39,12.39,0,1,1,301,186.77,12.4,12.4,0,0,1,313.41,174.38Z"/><path d="M483.16,690.19A18.88,18.88,0,1,0,502,709.07,18.9,18.9,0,0,0,483.16,690.19Zm0,31.27a12.39,12.39,0,1,1,12.39-12.39A12.41,12.41,0,0,1,483.16,721.46Z"/><path d="M461.83,417.12A18.88,18.88,0,1,0,443,436,18.89,18.89,0,0,0,461.83,417.12ZM443,429.51a12.39,12.39,0,1,1,12.39-12.39A12.4,12.4,0,0,1,443,429.51Z"/><path d="M834.42,288.89a18.88,18.88,0,1,0,18.87,18.87A18.9,18.9,0,0,0,834.42,288.89Zm0,31.26a12.39,12.39,0,1,1,12.39-12.39A12.4,12.4,0,0,1,834.42,320.15Z"/></svg>