<svg id="Layer_1" data-name="Layer 1" xmlns="http://www.w3.org/2000/svg" viewBox="0 0 1000 1000"><defs><style>.cls-1{fill:#563014;}.cls-2{fill:#bd8a6c;}</style></defs><title>Scorpio</title><path class="cls-1" d="M267.78,278.24c-6.11-2-14.48-5.52-15.3-12.8-.38-3.36,1-6.42,2.56-9.28,2.25-4,5-5.36.87-8.49-5.46-4.16-10.54-6.67-9-14.72.63-3.39,2.66-6,4.73-8.6.85-1.09,3.18-3.07,3.6-4.46,1.3-4.36-.08-4.22-3.24-7-4.08-3.59-8.2-6.52-9.05-12.25a19,19,0,0,1,2.6-12.14c2.14-3.52,6.45-6.18,5.15-11.12-1.53-5.82-8.73-9.17-10.72-15.3a22.63,22.63,0,0,1-.53-10.22c.65-4.43,4.6-11.66,3.7-16.16-3-15.24-23.23,8.22-26.06,12C204.91,164,199,184,194.27,203.46c-10.25,41.92-10.56,87.35,12.4,125.3,11.86,19.6,30,25.19,52,23.49,23.85-1.85,47.86-28.45,39-52.45C290.84,288.92,279.79,282.25,267.78,278.24ZM247,246a1.71,1.71,0,0,1-1.9,2.48,9.72,9.72,0,0,1-7.56-6.72,12,12,0,0,1-.06-5.47,49.93,49.93,0,0,0,.86-9.61c-.07-2.72,3.82-2.56,4.13,0,.47,3.94-.18,7.6-.11,11.49C242.36,241.74,245.2,243.16,247,246Zm-8.78-63.78a1.37,1.37,0,0,1,2.63-.73c1.71,5.7,0,10.2-1.13,15.75s-.19,8.35,3.23,12.44c1.45,1.73,2.34,2.73,2.9,4.89a1.5,1.5,0,0,1-1.82,1.82c-4.35-1.31-8.56-6.09-9.66-10.56C232.26,197.42,239.83,190.42,238.17,182.18Zm-9.46,128.28a33.1,33.1,0,0,0,19.68,13.59c7.91,2,14.45-.49,22.13-1.5,2.12-.28,3.35,3,1.77,4.27-15.72,12.89-38.11.55-46.13-14.87A1.48,1.48,0,0,1,228.71,310.46Zm50.13,25.64c-18.48,13.37-45.36,11-60.64-5.65-16.26-17.74-21-43-23.35-66.09-.15-1.47,2.18-1.71,2.52-.34,4.79,18.76,10,39,21.23,55.06,6.1,8.72,14.38,15.93,25.17,17.6,11.92,1.85,21.65-3.81,33-5.53A2.72,2.72,0,0,1,278.84,336.1ZM291.39,317c-.69,2.33-3.57,2-4.38,0-2.66-6.44-3.42-12.51-8.82-17.57-4.8-4.48-11.08-5.93-16.86-8.67-8.93-4.23-14.52-11-17.39-20.38-.62-2,2.33-2.7,3.07-.84,6.64,16.85,23,13.91,34.78,23.86C288.29,298.88,293.94,308.36,291.39,317Z"/><path class="cls-1" d="M596.74,666.67c2.74,11.78,1,25.2-3.81,35.63-3.53,7.69-10.28,13.32-13.83,21-5.72,12.33,1.68,25.22,13.57,29.74,5.35-2.35,11.27-2.56,16.37,1.57a23.4,23.4,0,0,1,4.82,5.41c6.63-15.8,4.26-37.89,1.2-53.18C612.1,692,607.85,676.31,596.74,666.67Zm-2.67,56.65a39.26,39.26,0,0,0-1.43,8.67c-.12,2.49.38,5.12-.44,7.5a1.73,1.73,0,0,1-3.11.4c-3.34-4.82-.56-13.19,1.73-17.94C591.71,720.09,594.58,721.43,594.07,723.32Zm.57-13.19c-1.38,5.59-4.91,8.47-7.54,13.34-3.16,5.88-1,12.27-2.2,18.48a1.61,1.61,0,0,1-2.91.38c-2.71-5-2.89-11.25-1.33-16.71,2-6.85,8.57-9.82,11-16.33A1.57,1.57,0,0,1,594.64,710.13ZM612,747.71c-.39,2.64-4.24,1.75-4.39-.59-1.37-21.67-1.23-42.42-5.91-63.87a1.59,1.59,0,0,1,3.06-.85C610.64,702.82,615.16,726.47,612,747.71Z"/><path class="cls-1" d="M715.67,275a5.21,5.21,0,0,1-.09-1c.51-30.65.95-61.4-2.56-91.87a30.47,30.47,0,0,0-5.32,8.17c-2.49,5.75-3.93,12-5.74,18-3.56,11.82-7.09,23.66-9.58,35.76-3.72,18.1-4.71,36.95,0,54.55.23-.67.48-1.34.75-2a4.79,4.79,0,0,1,.61-1.47A57.81,57.81,0,0,1,715.67,275ZM709,229.66a1.69,1.69,0,0,1,3.37,0c.11,14,1.88,31-2.93,44.39-.44,1.22-2.62,1.58-2.85,0C704.49,259.85,708.22,244,709,229.66Zm-11.34,48.11c-2.19-7.06.42-16.69,1.72-23.8.53-2.93,5-1.68,4.45,1.23-.76,4.15-1.4,8.31-1.84,12.51-.36,3.43-.39,6.86-1.74,10.06A1.36,1.36,0,0,1,697.66,277.77Z"/><path class="cls-1" d="M801.67,188.48c-5.58-18.84-13.37-38.31-28.61-51.49-1.42-1.23-6.91-6.66-9.15-6.45-5.14.49-7.15,5.76-6.27,9.69,1,4.34,2.67,8.45,3.11,12.92a21,21,0,0,1-5,16.33c-2.37,2.85-6.28,5.13-6.54,9.19-.33,5,4.67,7.62,6.44,11.62,2.54,5.7,2.11,12.63-1.83,17.5-2.22,2.75-6.06,4.23-8.09,7-3.41,4.69,1.32,7.39,4.09,11.3,3.16,4.46,5,9.61,2.29,14.78-1.59,3-4.16,4.7-7.07,6.35-4.25,2.41-3.87,2.52-1.17,7.18,2.45,4.21,5.57,9.64,2.91,14.58-3.46,6.43-12.38,8.27-18.42,10.65-10.53,4.13-19.91,10.49-26,20.15-5.32,14.24,0,27.3,10.62,37.63a71.55,71.55,0,0,0,15.91,11.72c6.21,3.29,13.14,3.25,20,3.48,11.15.38,22.47-2,31.66-8.63,9.87-7.12,16-19.66,20.79-30.58C818.6,273.71,813.65,228.91,801.67,188.48ZM771,311a1.48,1.48,0,0,1,2.55,1.49c-8,15.42-30.4,27.77-46.13,14.86-1.59-1.31-.33-4.54,1.77-4.26,7.68,1,14.22,3.47,22.13,1.49A33.09,33.09,0,0,0,771,311Zm-17.09-95.94c.65-2.54,1.9-3.5,3.56-5.57,3.08-3.84,3.6-6.87,2.57-11.76-1.18-5.58-2.85-10-1.13-15.74a1.36,1.36,0,0,1,2.63.72c-1.65,8.23,5.91,15.26,3.85,23.62-1.1,4.47-5.29,9.24-9.66,10.55A1.49,1.49,0,0,1,753.92,215.05Zm-1.15,31.44c1.75-2.81,4.59-4.22,4.64-7.84.06-3.88-.58-7.55-.11-11.48.31-2.56,4.2-2.72,4.13,0a50,50,0,0,0,.86,9.6,12.46,12.46,0,0,1-.06,5.47,9.68,9.68,0,0,1-7.56,6.72A1.7,1.7,0,0,1,752.77,246.49Zm-40.06,71.05c-.81,2-3.69,2.32-4.38,0-2.56-8.66,3.08-18.12,9.6-23.61,11.83-9.95,28.14-7,34.78-23.86.74-1.86,3.68-1.15,3.07.85-2.87,9.36-8.47,16.15-17.39,20.38-6.2,2.94-12.87,4.43-17.79,9.55C716,305.66,715.12,311.68,712.71,317.54ZM781.52,331c-15.35,16.61-42.11,19.06-60.64,5.65a2.72,2.72,0,0,1,2.09-4.95c12.25,1.87,23,8.51,35.93,5.08,9.41-2.51,16.75-9.34,22.22-17.14,11.25-16.05,16.44-36.32,21.23-55.06.35-1.39,2.67-1.12,2.52.34C802.58,287.94,797.83,313.34,781.52,331Z"/><path class="cls-1" d="M297.5,206.53c-1.85-6.15-3.17-13.06-6.22-18.75a28.58,28.58,0,0,0-4.28-5.84c-3.53,30.53-3.09,61.33-2.58,92a5.55,5.55,0,0,1-.08.93,57.48,57.48,0,0,1,21.88,20.22,4.83,4.83,0,0,1,.62,1.49c.26.67.51,1.33.74,2,4.75-17.61,3.76-36.45,0-54.55C305,231.36,301.25,218.94,297.5,206.53Zm-4.37,67c-.23,1.58-2.41,1.21-2.85,0-4.81-13.42-3-30.35-2.93-44.4a1.69,1.69,0,0,1,3.37,0C291.49,243.44,295.23,259.32,293.13,273.53Zm8.93,3.72a1.36,1.36,0,0,1-2.59,0c-1.34-3.2-1.38-6.65-1.74-10.06-.44-4.2-1.08-8.37-1.84-12.52-.53-2.91,3.92-4.15,4.45-1.23C301.64,260.55,304.25,270.19,302.06,277.25Z"/><path class="cls-2" d="M580.9,587.34a200.06,200.06,0,0,0-6.21-152.44c-20.61,3-43.59,4.85-63.76.83-10.62-2.12-20.43-.35-31.26.08-12.68.5-25.34,1.45-38,.37-4.59-.38-10.35-.75-15.87-1.72-24.93,53.72-25.21,119.51,2.49,172.35,6,11.46,14.49,21.39,20,33.11a136.93,136.93,0,0,1,10.35,32.34c5.4,27.59,4.16,55.86,8.16,83.61,1.9,13.17,4.85,26.74,11.08,38.61,5.58,10.62,16.67,26.69,30,18.24,23.86-15.09,26.28-55.58,28-80.39,1.77-25.34,2.17-51.21,9.78-75.67C553.56,631.52,571.78,612,580.9,587.34Zm-32,34.55c-2.21-3.52-3.86-7.27-6.28-10.71a38,38,0,0,1-5.51-10.29c-.52-1.63,1.86-2.16,2.48-.68,2.89,6.91,11.61,13.23,11.53,21.08A1.2,1.2,0,0,1,548.85,621.89Zm7.51-13c-2.72-1-4.49-3.93-6.47-6A49.45,49.45,0,0,0,542,596.4c-2-1.32-.18-4.46,1.88-3.2a66.38,66.38,0,0,1,8.42,6c2.2,1.85,5.75,4.59,6.17,7.6C558.64,608,557.74,609.45,556.36,608.93Zm6.32-6.76c-5.7-1.94-9.64-8.71-14.1-12.68a87.47,87.47,0,0,0-20.53-13.43c-1.08-.52-.29-2.39.81-1.94a108,108,0,0,1,21.28,11.5c5,3.53,13.15,8.4,14.31,14.78C564.63,601.4,563.8,602.56,562.68,602.17Zm.78-12.84c-14.84-11.72-28.65-26.35-49.28-26.25-1.24,0-1.14-1.7,0-1.85,10.84-1.46,21.58,3.7,31.29,8.07,8.27,3.71,18,9.18,21.25,18.13C567.46,589.47,564.81,590.39,563.46,589.33ZM481.71,510c-14.83,1.8-28.74,6.31-43.21,9.7-1.5.36-2.53-1.8-1.08-2.56,25.4-13.16,57.87-14.09,85.69-10.74,2.09.25,2.14,3.56,0,3.33A181.39,181.39,0,0,0,481.71,510Zm21.13,8.87a200.65,200.65,0,0,0-37.68,5.64c-11.38,2.82-22.1,8-33.49,10.52a1.52,1.52,0,0,1-1.16-2.77c19.43-14,49.11-16.67,72.33-16.61C504.93,515.65,504.9,518.76,502.84,518.87Zm74.51,55.21c-2.21.2-4.21-1.41-6-2.55-2-1.29-4-2.62-6-3.93a2.24,2.24,0,0,1,2.25-3.86c2.11,1.14,4.23,2.25,6.33,3.41,1.83,1,4.24,2,5.11,4A2,2,0,0,1,577.35,574.08ZM580,566.6c-3.33-.77-6-4.05-8.94-5.79a87,87,0,0,0-11.35-5.46c-2.18-.89-1.35-4.39,1-3.62a83.31,83.31,0,0,1,12.82,4.87c3.16,1.66,7.87,4.15,8.49,8A1.66,1.66,0,0,1,580,566.6Zm3.39-9.63c-14.79-13.32-30.29-23.41-49.81-28.29-2.46-.61-1.4-4.24,1-3.76,19.72,3.87,39.17,12.93,52.82,28A2.86,2.86,0,0,1,583.43,557Zm2.5-30.67c-5-1.07-9.14-6.1-13-9.37-5.42-4.6-10.72-9.22-16.46-13.43-1.45-1.06-.09-3.5,1.43-2.45,5.94,4.08,12.06,7.95,17.84,12.25,4.21,3.12,9.93,6.31,11.85,11.33C588,525.67,586.85,526.5,585.93,526.3Zm-1.07,10.38c-4.24-2-7.78-6.19-11.33-9.22-4-3.4-7.95-6.79-12-10-1.66-1.31.53-4.09,2.24-2.91,4.25,2.9,8.48,5.87,12.53,9.06,3.84,3,8.75,6.2,11.25,10.47A2,2,0,0,1,584.86,536.68ZM588,512.6c-6.6-3.44-12.1-8.84-18.47-12.78a138.09,138.09,0,0,0-62.39-20.48c-2.22-.21-2.31-3.51,0-3.52a124.41,124.41,0,0,1,47.73,9.26c12.58,5.16,28.44,12.74,36.55,24.1C592.93,511.36,590,513.66,588,512.6Zm-2.65-17.86c-4.5-2.82-7.95-7.49-11.92-11a134.63,134.63,0,0,0-14.91-11.59,1.82,1.82,0,0,1,1.84-3.14,92.89,92.89,0,0,1,15.27,9.92c4.41,3.56,10,8,12.29,13.28C588.55,493.75,587.05,495.83,585.3,494.74Zm-.09-17.88a1.66,1.66,0,0,1-2.25,2.25c-6.05-2.81-10.89-8.31-16.58-11.89A127.91,127.91,0,0,0,548.14,458c-1.85-.79-.46-3.53,1.32-3.11A69.22,69.22,0,0,1,570,463.33C575.42,466.66,582.36,471,585.21,476.86Zm-67.6-34.63c17.16,7.15,46.49-2.76,59.72,13,1.16,1.38.1,4.17-2,3.38-11-4.19-19.87-6.47-31.82-7-9.58-.42-18.78-1.42-27.57-5.46C513.76,445.13,515.39,441.3,517.61,442.23ZM426.69,447c9.19-5,20.91-3.08,31-2.76a91.22,91.22,0,0,0,37.81-6.38c1.65-.64,2.77,2.09,1.2,2.84a71.94,71.94,0,0,1-30.48,7.49c-6.26.12-12.51-.38-18.77-.29-6.75.1-13.28,1.62-20,1.88A1.5,1.5,0,0,1,426.69,447Zm-5.63,24c9.46-10,27-13.45,40.17-15.17,16.27-2.13,33.95-1.66,49.94,2.08a1.81,1.81,0,0,1-.48,3.54c-16.32-.66-32.09-2.84-48.45-.66A104.65,104.65,0,0,0,440.37,466c-6.09,2.22-11.58,5.74-17.77,7.64A1.6,1.6,0,0,1,421.06,471Zm-7.9,16c10.65-11,28.48-15.92,43.26-17,1.63-.12,2,2.52.39,2.83a120.06,120.06,0,0,0-21.68,6.28c-7.07,2.85-13.23,7.16-20.09,10.37A1.56,1.56,0,0,1,413.16,487Zm-1.85,12.87c3.89-5,10.87-7.59,16.54-10.07a115.71,115.71,0,0,1,18.54-6,1.25,1.25,0,0,1,.66,2.41,156.93,156.93,0,0,0-19.24,8.26c-5,2.53-9.74,6.35-15.21,7.65A1.34,1.34,0,0,1,411.31,499.85Zm-.88,10.32c2.91-3.41,7.53-5.62,11.4-7.82a111.42,111.42,0,0,1,12.42-6c1.09-.44,1.71,1.28.78,1.84-4.1,2.45-8.17,4.93-12.25,7.42-3.62,2.22-7.11,5.18-11.13,6.6C410.37,512.71,409.69,511,410.43,510.17ZM425.77,513,419,517.72c-2,1.42-4.08,3.3-6.48,4-1.62.49-2.41-1.48-1.51-2.6,1.55-1.93,4.14-3.15,6.2-4.5l6.88-4.48C425.91,509,427.46,511.79,425.77,513Zm3,30.54c16.72-11.07,40.44-14.91,60-17.24,1.85-.22,2.25,2.93.44,3.23a243.56,243.56,0,0,0-30.08,6.79c-9.84,2.93-19.19,7.64-29.09,10.19A1.63,1.63,0,0,1,428.81,543.52ZM433,553c6.13-4.86,14.1-7.62,21.31-10.48,2.63-1,3.76,3.2,1.17,4.23-7,2.77-13.8,6.74-21,8.75C433.08,555.84,431.75,553.93,433,553Zm13,6.66c-2.07,1.12-4.22,2.81-6.58,3.15a1.76,1.76,0,0,1-1.69-2.91c1.65-1.91,4.46-2.83,6.72-3.86s4.75-2.11,7.15-3.09c1.84-.75,3.09,2.34,1.34,3.19Q449.44,557.79,446,559.63Zm5.14,4.06c-2.42,1.73-5.91,4.41-9,4.15a1.44,1.44,0,0,1-1-2.42,13.49,13.49,0,0,1,4-2.44,38,38,0,0,0,4.18-2.56C451.24,559,453.1,562.28,451.15,563.69ZM435,595.44c11-9.87,28.24-14.7,42.18-18.52a1.48,1.48,0,0,1,.79,2.85,200,200,0,0,0-23.33,9.5c-6,2.9-11.67,6.78-18,9C435,598.9,433.72,596.56,435,595.44Zm4.64,11.38c3-5.34,10.25-8.44,15.6-11a118.19,118.19,0,0,1,19.86-7.07,1.46,1.46,0,0,1,.78,2.82,102.72,102.72,0,0,0-19.41,8.63c-4.85,2.76-9.75,7.47-15.2,8.7A1.46,1.46,0,0,1,439.61,606.82Zm5.74,12.49c-1.6.81-3.73-.92-2.62-2.62,6.91-10.52,23.39-15.66,34.65-19.92,1.55-.58,2.54,1.89,1.11,2.63-5.74,3-11.58,5.84-17.17,9.09S451,616.43,445.35,619.31Zm4.85,6.84a1.79,1.79,0,0,1-1.78-1.78c.25-2.66,2.47-4.18,4.47-5.68a46.73,46.73,0,0,1,7.09-4.34c2.53-1.27,4.72,2.39,2.23,3.82a43.14,43.14,0,0,0-6.34,4.39C454.11,624.05,452.6,625.91,450.2,626.15Zm8.52,14.7c13.68-7.79,32.62-8,47.87-6.71,2.52.22,2.58,4.11,0,4a120.37,120.37,0,0,0-24.87,1.19c-7.33,1.15-14.34,3.69-21.65,4.76C458.22,644.34,456.85,641.91,458.72,640.85Zm2.21,11.1c9.12-8,25-9.17,36.62-9.11,2.57,0,2.55,3.9,0,4a81.68,81.68,0,0,0-18.8,2.6c-5.48,1.45-10.7,4.25-16.26,5.22C461.06,654.89,459.6,653.11,460.93,652Zm.85,7c1.73-2,4.52-2.5,7-3.14,2.91-.75,5.84-1.34,8.8-1.83s4.4,4.16,1.3,4.71c-2.95.52-5.88,1.15-8.77,1.94-2.53.68-4.94,1.77-7.57,1.2A1.74,1.74,0,0,1,461.78,658.91ZM477.6,667a10.92,10.92,0,0,1-5.08,1.19c-2.21.2-4.39.33-6.59.68s-3.28-2.95-1-3.5c3.63-.87,9.19-2.6,12.63-.46A1.22,1.22,0,0,1,477.6,667Zm-13,30.86a1.78,1.78,0,0,1-1.25-3c12.49-10,33.69-9.11,48.49-6.27,2.24.43,1.72,4.26-.54,4a89.46,89.46,0,0,0-26.19.35C478.1,694.12,471.57,697.09,464.58,697.9Zm39.2,3.93a58.49,58.49,0,0,0-18,.38c-5.41,1-10.4,3.47-15.76,4.38-1.68.28-3.52-1.87-1.87-3.23,9.37-7.74,24.88-7.33,36.19-5.58C506.62,698.13,506.06,702.13,503.78,701.83ZM468.44,716a1.72,1.72,0,0,1-1-2.47c1.11-2.33,4-2.91,6.29-3.6a81,81,0,0,1,8.8-2.11c3.32-.61,4.73,4.46,1.4,5.08a79.12,79.12,0,0,0-8.29,2C473.35,715.54,470.78,717,468.44,716Zm2.63,5.46a24.62,24.62,0,0,1,5.4-2.11c2.5-.81,3.57,3.46,1.06,3.87a25.35,25.35,0,0,1-5.82.61A1.28,1.28,0,0,1,471.07,721.48ZM489.14,797a.05.05,0,1,1,0-.1A.05.05,0,0,1,489.14,797Zm.69-6.74a37.89,37.89,0,0,1-4.17,2.11c-1.5.64-3,1.29-4.59.45a1.79,1.79,0,0,1-.63-2.4c.72-1.32,2.17-1.67,3.51-2.1a33.67,33.67,0,0,0,3.86-1.53C490.11,785.72,492.1,789,489.83,790.27Zm.62-8.73q-3,1.4-6,2.57c-1.89.71-3.95,1.41-5.94.72a1.39,1.39,0,0,1-.6-2.28c1.28-1.48,3.19-2,5-2.52,2-.62,4.06-1.31,6.05-2.09S492.45,780.61,490.45,781.54Zm11.29-12.23c-8.27,2.88-17.47,7.72-26.32,8a1.62,1.62,0,0,1-.81-3c7.47-4.74,17.82-5.93,26.25-8.22C502.93,765.57,503.72,768.62,501.74,769.31Zm-27.58-3.58a1.68,1.68,0,0,1-.44-3.28c12.63-4.32,26.39-5.22,39.19-9.49,2.62-.88,3.64,3.15,1.13,4.09C502,761.56,487.25,767.09,474.16,765.73Zm53.35,1.85c-2.36,10.18-6.76,24.68-16.31,30.26-1.07.62-2.7-.44-2.23-1.71,1.82-4.88,5.21-8.81,7.55-13.47a77,77,0,0,0,6.15-18c3-13.88,3.54-28.94,3.88-43.12a1.1,1.1,0,0,1,2.2,0C529.84,737.13,531.07,752.17,527.51,767.58ZM537.84,658c-4.09,13.52-2.52,27.6-6,40.93a1.64,1.64,0,0,1-3.14,0c-2.42-11.09-.2-24.84,2.72-35.76,3.47-13,10.38-24.76,10.43-38.5,0-1.52,2.16-1.44,2.31,0C545.35,636.53,541.21,646.87,537.84,658Z"/><circle class="cls-2" cx="814.15" cy="567.6" r="11.11"/><path class="cls-2" d="M710.23,508.66a4.43,4.43,0,0,1-.35.56,24.4,24.4,0,0,1,0,6.88c26.05,18.21,60.61,4.91,78-19.06,8.43-11.6,11.67-24.26,16.88-37.32,4.89-12.27,16.38-18.69,25.05-28,3.16-3.41,18.81-19.7,8.72-24.22-8.14-3.65-19.38,7.78-24.08,12.54a143.62,143.62,0,0,1-33.19,24.79C753.85,460,724.61,479.47,710.23,508.66ZM778.63,486c5.49-8.87,6.87-19.41,12.66-28.24,5.17-7.88,12-14.46,18.74-21,1.33-1.29,3.2.64,2,2-9.6,11-18.29,22-22.55,36.21-2.82,9.38-6.27,17.74-13.42,24.68-12.08,11.73-37.2,22-53.59,14.79-1.75-.77-.92-3.13.48-3.67,9.95-3.82,21.41-2.15,31.69-6.05C764.11,501.1,773.25,494.69,778.63,486Zm-25.22,9c1.61-.35,2.84,2.08,1.18,2.8-9.32,4-22.46,9.24-32.7,6.57-1.3-.34-1.76-2.47-.4-3.08,4.68-2.09,10-2.14,15-3C742.11,497.3,747.79,496.23,753.41,495Z"/><path class="cls-2" d="M335.24,626.56c-6.88,2.79-13.84,12.44-18.07,17.36A88.66,88.66,0,0,0,304,663.81,137.06,137.06,0,0,0,296,686.47a82.66,82.66,0,0,0-2.23,9.58c-1,6.59-1.64,12.12,4.46,15.76q3.84,4.49,8.19.44a40.09,40.09,0,0,0,6.37-4.62,55.78,55.78,0,0,0,6.29-6.57c4.95-6,8.7-13.08,12-20.1a246.91,246.91,0,0,0,14.49-39.45C338,640.76,335.24,634.83,335.24,626.56Zm-29.46,80.82a2,2,0,0,1-2.41-3.12c6.71-8.6,14.44-15.48,19.56-25.39,5.41-10.47,8.55-22.07,12.29-33.2a1.25,1.25,0,0,1,2.41.66C334.63,666.4,325.56,697.28,305.78,707.38Z"/><path class="cls-2" d="M432.08,338.47c6.13-6.55,10.58-14.16,16.68-20.73A85,85,0,0,1,467,303.09c-3.76-1.35-7.82-1.89-11.8-2.68-6.78-1.32-13.59-3.48-20.24-.64C418.1,307,422,327.49,432,338.56Zm14.48-22.15a5.14,5.14,0,0,0-3,2.76c-.42.79-.82,1.76-1.69,2.14a1.74,1.74,0,0,1-2.29-.93c-.84-1.81.48-4,1.79-5.21a7.77,7.77,0,0,1,4.74-2C448,313,448.24,315.81,446.56,316.32Zm1.65-6.49a26.31,26.31,0,0,0-9,3.14c-2.47,1.58-2.32,4.31-4.28,6.17a1.3,1.3,0,0,1-2.15-.57c-1.14-2.94,1-6.68,3.51-8.27,3.31-2.09,7.81-2.58,11.63-2.66C449.16,307.61,449.46,309.59,448.21,309.83Zm-18.52,3.24a1.23,1.23,0,0,1-1.85-1.06c.39-4.47,4.41-9,8.73-10.37,5.92-1.84,13.28.3,19.13,1.6a1.25,1.25,0,0,1-.33,2.45c-4.84-.18-9.84-.5-14.68-.35C435.08,305.52,433.72,310.26,429.69,313.07Z"/><path class="cls-2" d="M452.81,327.78c-4.32,5.35-7,10.78-11.94,15.57-17.8,17.21-29.22,53.66-22.49,78.3,25.67,8.38,53.53,5.27,79.94,2.83,6-.56,10.67,1.17,16.49,2,6.36.92,13,.91,19.44,1a247.53,247.53,0,0,0,42-2.62c7.71-12.92,7.16-27.44,2.87-41.72a126.55,126.55,0,0,0-8.6-20.63c-2-3.93-2.36-7.64-4-11.52-5-11.73-15.36-23.32-24.55-32A89.5,89.5,0,0,0,520.69,304l-.18-.09a51.66,51.66,0,0,0-13.87-4.61c-11.83-2-28.31,7.73-37.86,14.14A72.16,72.16,0,0,0,452.81,327.78ZM556,421.31c-.37,1-2,1.57-2.59.33-1.11-2.54-1-5.12-1.24-7.85-.24-3.23-.56-6.45-1-9.66-.25-1.93,2.92-2.28,3.35-.45C555.72,408.78,557.89,416.22,556,421.31Zm11.53-.24c-.28,1.88-2.79,1.37-3.32,0-3-7.66-3.32-16.46-5.53-24.46a169.7,169.7,0,0,0-9.44-26.34c-.77-1.65,1.58-3.1,2.49-1.45C559.9,383.53,570.09,403.74,567.52,421.07ZM523.6,319.52c16,9,28.07,23.79,38.29,38.71,9.35,13.66,20.51,33.79,16.5,51a1.54,1.54,0,0,1-2.95,0c-2.34-8.51-2.92-17.18-6.11-25.53A112.91,112.91,0,0,0,557.18,361c-9.46-14-20.84-29.39-35.2-38.69A1.61,1.61,0,0,1,523.6,319.52ZM446.75,423.76c-9.07-7.18-13.75-19.52-13-30.89a1.1,1.1,0,0,1,2.2,0c1.06,11.57,8.22,19.24,12.93,29.22A1.39,1.39,0,0,1,446.75,423.76Zm28.51.2C457,413.27,451,382.81,456.91,364c.29-.91,1.78-.79,1.71.23-.69,10.45-.34,20.81,3.09,30.82,3.56,10.4,10.47,17.31,16.12,26.33A1.89,1.89,0,0,1,475.26,424Zm-13-70c2.82-12.34,10.64-22.34,19.51-31,1.17-1.15,3.28.37,2.32,1.79-6.8,9.93-14.46,19.16-19.27,30.3C464.19,356.54,462,355.39,462.28,353.93ZM493.13,416c-5.44-5-8.43-12.67-11.31-19.34-.91-2.11,2-4,3.17-1.85,3.63,6.36,8.5,12.68,10.64,19.74A1.5,1.5,0,0,1,493.13,416Zm15,3.1c-7.08-8.5-11.81-19.2-15.82-29.43-.73-1.86,2.3-3.07,3.18-1.34,5,9.71,10.89,19.26,15,29.37C511.05,419,509,420.19,508.1,419.12ZM505.35,308.5c1.58-1.13,3.14,1,2.44,2.44-5.53,11.25-13.5,20.24-17.83,32.36a110.36,110.36,0,0,0-6.47,36.51,1.58,1.58,0,0,1-3.15,0,96.18,96.18,0,0,1,5.58-40.88C490,328.21,495.83,315.35,505.35,308.5Zm-11.07,5.75c-10.25,5.23-19.58,8.83-28.15,17-8.8,8.4-15.8,18.5-22.85,28.34-.84,1.17-2.71.15-2-1.14,10.49-18.2,27.67-47.35,52.1-47.42C495.06,311,495.83,313.46,494.28,314.25Z"/><path class="cls-2" d="M287.91,718a25.45,25.45,0,0,1-4.48-12.3c-3.28,6-3,16.75-3.47,21.81q-.85,9.42-1.19,18.88c-.41,12.12.55,24.38-1.06,36.43-1.63,12.24-7.2,23.42-9.12,35.6a89.54,89.54,0,0,0-.8,20.1c.42,5.87.58,15.41,4.08,20.51,8.37,12.18,12.62-9.66,13-14.11.51-6.14.51-12.35.52-18.5,0-10.62-1.3-21.76.67-32.27,2.18-11.61,8.78-21.91,11.35-33.53,2.64-11.93,3.1-24.14,2.79-36.32C295.69,724.57,291.4,722.86,287.91,718Zm-7.38,131.28a1.37,1.37,0,0,1-2.68-.36c-.53-7.84.18-15.78-.23-23.67a140.05,140.05,0,0,1,.45-23.79c.18-1.5,2.46-1.59,2.42,0C280.12,816.6,285.88,834.82,280.53,849.32Zm5.54-74c-.67,1.25-2.94.74-2.79-.76,1.48-14.79,10-27.28,7.3-42.74-.4-2.37,3.09-3.42,3.65-1C297.69,745.67,293.11,762.1,286.07,775.33Z"/><path class="cls-2" d="M345.89,429H346a90.67,90.67,0,0,0,61.31-13c-.12-2.42-.08-4.75-.07-6.66a122.43,122.43,0,0,1,11.17-49.65q1.35-3,2.91-5.89a216.59,216.59,0,0,0-82.78,45c.54,1.21,1.09,2.42,1.58,3.66A79,79,0,0,1,345.89,429Zm57-19.11c-1.28,7.28-10.92,8.51-16.83,10.31-9.67,2.93-19.95,7.1-30,4a.93.93,0,0,1,.25-1.82c8.66-.16,16.32-2.41,24.38-5.23,6.82-2.39,13.9-4,19.34-9A1.74,1.74,0,0,1,402.92,409.84Zm.84-26.1c-2.74,2.6-6.82,3.38-10.31,4.64a73.76,73.76,0,0,0-13.23,6.18c-1.36.83-3-1.19-1.72-2.23a54.69,54.69,0,0,1,11.75-7.42c3.73-1.73,8.24-4.23,12.41-3.82A1.57,1.57,0,0,1,403.76,383.74Zm1.93-7.87c-13.08,7-27.84,9.92-39.72,19.51-1.6,1.28-3.88-.87-2.3-2.31,5.9-5.37,12.79-9.25,19.84-12.92,6.41-3.33,13.95-7.71,21.36-7.31C406.4,372.92,407.19,375.07,405.69,375.87Zm-59.2,23.29C354.44,390,364,383,374.54,377c8.44-4.79,20.89-12.65,30.93-11.44,1.07.13,2.12,1.58,1,2.45-7.74,6.11-19.34,7.72-28.14,12.32-10.82,5.66-20.44,13.16-30,20.74A1.34,1.34,0,0,1,346.49,399.16Z"/><path class="cls-2" d="M339.58,504.42a145,145,0,0,0,32.79-13.18c8.67-4.64,17-11.49,26.45-14.33a2.38,2.38,0,0,1,2.82,1.25,212.44,212.44,0,0,1,9.63-34c-36.49,5.48-72.53,24.46-99.85,48.74-9.18,8.16-20.34,26.66,0,28.73a135.25,135.25,0,0,0,28.09-.15,141.81,141.81,0,0,0,58.13-19.94,5.4,5.4,0,0,1,.77-.37q.24-2.82.55-5.64a2,2,0,0,1-.46.51c-10.8,8.48-27.19,13.79-40.36,17.43-14.31,4-28.77,5.24-43.32,1.88-1.57-.36-1.24-3,.38-2.82a105.09,105.09,0,0,0,43.09-5.21c12.75-4.22,24.81-12.45,37.78-15.45a2.81,2.81,0,0,1,3.09,1.83q.75-6.25,1.87-12.44c-7.68,7.48-19.21,12.09-28.85,16.48a136.17,136.17,0,0,1-31.67,10.13C338.27,508.35,337.28,505,339.58,504.42Zm22.3-16.81c5-3.11,9.88-6.21,15-9.08,4.57-2.56,9.16-5.8,14.33-6.91a2,2,0,0,1,1.91,3.29c-3.85,4.07-9.5,6.37-14.49,8.79a158,158,0,0,1-15.69,6.37C361.43,490.6,360.65,488.39,361.88,487.61Z"/><path class="cls-2" d="M343.88,530.72a3.32,3.32,0,0,1-.36.26c-9.9,5.91-19.75,13.27-25.35,23.63-3.48,6.42-7.95,17.15,2.57,19.95,5.21,1.38,11.43-.61,16.45-2,22.88-6.32,42.52-20.55,61.38-34.49a210.38,210.38,0,0,1-.79-25.35A151.74,151.74,0,0,1,343.88,530.72Zm7.43,18.59c6.29-4.79,12.42-9.64,19.06-13.95,5.75-3.72,11.64-8.21,18.29-10.11a1.62,1.62,0,0,1,1.56,2.69c-4.66,5.12-11.34,8.36-17.21,11.93-6.69,4.08-13.64,7.73-20.25,11.92C351.16,552.81,349.88,550.39,351.31,549.31Zm45.21-16.84c-6.8,10.16-19.7,17.13-30.35,22.53a129.92,129.92,0,0,1-38.62,12.59,1,1,0,0,1-.53-1.94A222.09,222.09,0,0,0,363.26,550c10.64-5.89,20-14.78,30.85-20C395.57,529.37,397.58,530.88,396.52,532.47Z"/><path class="cls-2" d="M519,293.06c.46-1.39,1-2.77,1.47-4.18a30.28,30.28,0,0,0,1.29-4.26c.06-.32.19-2,.38-3l-.35,0a9.61,9.61,0,0,0-2.77,1.1,13.06,13.06,0,0,0-2.47,3.25l-3.33,5c.93.27,1.89.56,2.9.92S518,292.69,519,293.06Z"/><path class="cls-2" d="M569.6,337.53c9.1-11.33,11.95-30.56-4.12-37.42-6.62-2.82-13.5-.67-20.24.65-2.78.55-5.84.85-8.77,1.49.21.14.42.26.62.4C550.26,311.82,560.84,324.16,569.6,337.53ZM560.8,320a1.76,1.76,0,0,1-2.5.84,5.11,5.11,0,0,1-1.55-2.18,5,5,0,0,0-2.92-2.63c-1.7-.52-1.45-3.35.43-3.2a7.75,7.75,0,0,1,4.85,2.06C560.38,316.11,561.61,318.22,560.8,320Zm6.81-1.72a1.31,1.31,0,0,1-2.15.57c-2-1.85-1.84-4.6-4.28-6.17a26.08,26.08,0,0,0-9-3.14c-1.25-.24-.93-2.22.3-2.19,3.81.08,8.32.57,11.62,2.66C566.6,311.6,568.75,315.33,567.61,318.28ZM544.69,303c5.82-1.29,13.22-3.44,19.13-1.6,4.32,1.35,8.34,5.89,8.73,10.37a1.24,1.24,0,0,1-1.86,1.06c-4-2.81-5.38-7.55-11-7.73-4.84-.15-9.84.17-14.68.35A1.25,1.25,0,0,1,544.69,303Z"/><path class="cls-2" d="M475.23,280.48c-.05.19-.11.4-.19.65.42,1.49.27,3.19.74,4.74a35.53,35.53,0,0,0,4.45,8.61,4.76,4.76,0,0,1,.64,1.51c2.33-1,4.7-1.91,7.08-2.76-2.91-4.74-6.22-9.6-11.24-12.09A7.52,7.52,0,0,0,475.23,280.48Z"/><path class="cls-2" d="M688.58,493c-27.24-24.22-63.15-43.16-99.53-48.7a211.83,211.83,0,0,1,9.6,33.7,2.29,2.29,0,0,1,2.25-.51c9.43,2.83,17.79,9.69,26.45,14.33a144.68,144.68,0,0,0,32.79,13.17c2.3.58,1.31,3.93-1,3.51a136.64,136.64,0,0,1-31.67-10.13c-9.28-4.24-20.35-8.71-28-15.74q.94,5.37,1.6,10.78a2.68,2.68,0,0,1,2.52-.92c13,3,25,11.23,37.78,15.46a105.08,105.08,0,0,0,43.09,5.2c1.63-.15,1.93,2.47.38,2.83-14.55,3.36-29,2.07-43.32-1.88-13-3.61-29.22-8.85-40-17.19.16,1.51.31,3,.44,4.55a3.26,3.26,0,0,1,.38.18,140.64,140.64,0,0,0,59.78,20.11c9.2.86,19.92,1.76,29-.35C708.84,517.22,696.87,500.31,688.58,493Zm-51.78-2.36a155.62,155.62,0,0,1-15.69-6.37c-5-2.41-10.64-4.71-14.49-8.78a2,2,0,0,1,1.91-3.29c5.17,1.11,9.76,4.35,14.33,6.91,5.1,2.87,10,6,15,9.08C639.08,488.92,638.28,491.12,636.8,490.59Z"/><path class="cls-2" d="M589.34,383.49c2.77,10.49,3.58,21.23,1.31,31.39a5.73,5.73,0,0,1,1.16.54A90.74,90.74,0,0,0,654,429h.1a79.21,79.21,0,0,1,5.78-26.55c.49-1.24,1-2.45,1.58-3.66a216.83,216.83,0,0,0-84.17-45.37c.87,2.26,1.78,4.53,2.94,6.85A124.1,124.1,0,0,1,589.34,383.49Zm5.51-10.13c7.41-.4,14.94,4,21.36,7.32,7,3.66,13.94,7.54,19.84,12.92,1.58,1.44-.71,3.59-2.3,2.3-11.88-9.58-26.64-12.5-39.72-19.5C592.52,375.59,593.32,373.45,594.85,373.36Zm2.21,8.25c4.16-.4,8.69,2.1,12.4,3.82a54.55,54.55,0,0,1,11.76,7.43c1.27,1-.38,3.05-1.72,2.23a72.41,72.41,0,0,0-13.23-6.18c-3.48-1.27-7.58-2-10.31-4.65A1.57,1.57,0,0,1,597.06,381.61Zm46.59,43.1c-10.06,3.07-20.35-1.11-30-4-5.87-1.78-15.55-3-16.83-10.31a1.74,1.74,0,0,1,2.88-1.67c5.45,5,12.51,6.59,19.34,9,8.1,2.83,15.67,5.08,24.38,5.23A.93.93,0,0,1,643.65,424.71Zm-49.4-58.64c9.94-1.19,22.57,6.68,30.93,11.45,10.5,6,20.1,13,28.05,22.17a1.34,1.34,0,0,1-1.9,1.9c-9.51-7.58-19.14-15.09-30-20.74-8.8-4.61-20.4-6.21-28.14-12.32C592.13,367.66,593.19,366.2,594.25,366.07Z"/><path class="cls-2" d="M362.21,573.1c-5.79,11.65-11.59,23.39-14.95,36-1.54,5.78-3.29,12.77-1.71,18.74,2,7.55,10.09,2.22,15.18-.7,19.28-11.09,36.79-28.62,44.09-49.91a5.21,5.21,0,0,1,.83-1.51,203.27,203.27,0,0,1-5.77-26.66C387.86,557.9,375.57,566.45,362.21,573.1Zm38.63-7.59c2,10.22-7.74,19.72-13.82,27A153.23,153.23,0,0,1,357.12,620c-1.45,1-3.12-1.25-1.86-2.41,15.88-14.69,33.92-31.71,42.08-52.08C397.93,564,400.46,563.56,400.84,565.51Z"/><path class="cls-2" d="M582.07,816.5c-4.89-1.45-14.31,2.94-18.3,5-8.07,4.21-19.65,12-23.31,20.67a5.25,5.25,0,0,1-1.12,1.69,45,45,0,0,1,.76,4.79,31.83,31.83,0,0,1-2.23,15.21c19.67,1.74,36.57-12.47,47-28.5C589.28,828.63,592.62,819.63,582.07,816.5ZM571.3,841.94a51.71,51.71,0,0,1-21,12c-1.68.5-2.85-2.16-1.21-2.87a56.42,56.42,0,0,0,25.46-21.93c1.72-2.84,2.73-6,5-8.4a2,2,0,0,1,3.36,1.39C583,829.22,576.17,837.32,571.3,841.94Z"/><path class="cls-2" d="M524.59,831.21c-1.23-2.63-4.26-11.67-7.71-12.28-.11,0-.19-.06-.29-.08-6.85,6.12-15,9.15-24,5.16a38.86,38.86,0,0,1-8.35-5.07c-.36,17.81,3.61,38,18.59,48.41,13.51,9.38,28.49-1.7,27.71-17.05C530.25,843.69,527.33,837.09,524.59,831.21Zm-10.42,33.57c-17.89,1.41-24-23.51-26.53-36.59-.45-2.34,3.06-3.36,3.61-1,1.66,7.14,3.24,14.89,7.1,21.23,4.08,6.71,10,9.6,16.74,12.93C516.87,862.23,515.83,864.65,514.17,864.78Z"/><path class="cls-2" d="M897.9,618.19c.39-2.86-.6-4.5-3-4.94-9.13-6-27.12-1.52-36.26,2.22-8.81,3.61-15.8,10.27-24.49,14-9,3.89-17.22,2.57-26.22-.54-10.87-3.75-20.45-5.54-31.22-2.8a16.69,16.69,0,0,1-1.9,10.3c19.79,11,42.76,12.64,65.1,9.22a160.13,160.13,0,0,0,32.69-8.37,105.42,105.42,0,0,0,16.8-8.15c1.89-1.14,3.77-2.34,5.57-3.63Q901.4,623.51,897.9,618.19Zm-11.19,6.16c-19-5.7-34.26,9.34-51.34,14.69-14.55,4.55-29.61-.66-43.83-4.29-1.95-.5-2.12-3.74,0-4.13,7.41-1.35,14.28,1.07,21.49,2.71,12,2.73,21.65-.15,32.52-5.11,13.45-6.14,27.29-13.19,42-7C889.44,622,888.78,625,886.71,624.35Z"/><path class="cls-2" d="M722.29,782.86c-1.6-12.05-.63-24.32-1.06-36.43q-.37-10.39-1.37-20.76c-.46-4.77-.15-14.42-3.27-20a25.53,25.53,0,0,1-4.5,12.41c-3.49,4.82-7.78,6.53-12.28,6.3-.32,12.17.12,24.4,2.79,36.32,2.59,11.61,9.19,21.92,11.35,33.53,2.06,11.06.6,22.81.67,34,0,5.57,0,11.22.52,16.78.39,4.37,4.66,26.22,13,14.11,3.41-5,3.7-14.82,4.08-20.51a90.36,90.36,0,0,0-1.12-21.85C729,805.16,723.84,794.52,722.29,782.86Zm-8.64-7c-7-13.21-11.62-29.69-8.16-44.51.56-2.41,4-1.35,3.65,1-2.68,15.56,5.82,27.88,7.3,42.75C716.59,776.6,714.32,777.11,713.65,775.85Zm8.45,50c-.41,7.89.3,15.83-.23,23.67a1.37,1.37,0,0,1-2.68.36c-5.35-14.51.41-32.73,0-47.82,0-1.6,2.24-1.5,2.42,0A140,140,0,0,1,722.1,825.82Z"/><path class="cls-2" d="M314.62,583a15,15,0,0,1-8-6.67h-.06c-20.38-2.35-38.56,6.54-53.49,19.87-7,6.22-25.23,27.87-17.85,36.41a4.65,4.65,0,0,1,1.68,1.41,15.93,15.93,0,0,0,7.74,2c15.6.82,32.51-10.16,44-19.86A105.65,105.65,0,0,0,314.62,583ZM238.78,621.2c5.2-3.32,12-4.35,17.61-7a90.57,90.57,0,0,0,16.41-9.7c1.31-1,2.86,1.15,1.72,2.23-5.1,4.88-10.22,9.16-16.57,12.37-5.38,2.71-12.22,6-18.32,5.24A1.7,1.7,0,0,1,238.78,621.2Zm5,10.66a2.25,2.25,0,0,1-1.12-4.16c10.46-5.85,22.31-8.3,32.59-15,11.58-7.49,20.64-17.49,28.63-28.6a1.59,1.59,0,0,1,2.75,1.6c-6.35,11.9-15.59,21.87-26.3,30C270.5,623.18,256.58,632.16,243.76,631.86Z"/><path class="cls-2" d="M652.28,607.39c-3.41-12-9-23.19-14.5-34.31-13.21-6.56-25.37-15-37.26-23.7a203.7,203.7,0,0,1-5.78,26.91,5.29,5.29,0,0,1,.44,1c7.3,21.29,24.81,38.82,44.09,49.91,6.32,3.63,14.78,8.83,15.59-1.78C655.32,619.3,653.93,613.2,652.28,607.39Zm-9.68,13.13a153.18,153.18,0,0,1-29.9-27.47c-6-7.23-15.82-16.83-13.82-27,.38-2,2.91-1.49,3.5,0,8.17,20.37,26.2,37.38,42.08,52.08C645.73,619.29,644,621.53,642.6,620.52Z"/><path class="cls-2" d="M701.73,711.81c6.08-3.63,5.48-9.18,4.46-15.76a87,87,0,0,0-2.23-9.58,130.41,130.41,0,0,0-8.65-24.18,90.16,90.16,0,0,0-12.48-18.37c-4-4.72-11.27-14.48-18.06-17.33,0,8.24-2.81,14.16-10.41,14.92a245.16,245.16,0,0,0,15.16,40.84,94.66,94.66,0,0,0,11.36,18.71,54.24,54.24,0,0,0,6.29,6.57,40.09,40.09,0,0,0,6.37,4.62Q697.89,716.3,701.73,711.81Zm-7.79-3.9c-19.79-10.11-28.84-41-31.85-61a1.25,1.25,0,0,1,2.41-.67c3.73,11.13,6.88,22.74,12.29,33.2,5.11,9.89,12.87,16.81,19.56,25.39A2,2,0,0,1,693.94,707.91Z"/><path class="cls-2" d="M662.81,572.57c4.5,1.24,13.85,4.48,18.33,1.68,7.6-4.74,4.09-13.5.69-19.64-5.72-10.35-15.39-17.68-25.35-23.63-.13-.08-.23-.17-.35-.26a151.46,151.46,0,0,1-53.52-17.78,211.64,211.64,0,0,1-.79,25.43C620.56,552.22,640.09,566.29,662.81,572.57Zm-51.75-46.8c6.65,1.91,12.53,6.39,18.29,10.12,6.64,4.3,12.77,9.15,19.06,13.94,1.43,1.09.15,3.5-1.45,2.48-6.61-4.19-13.56-7.84-20.25-11.91-5.86-3.57-12.55-6.82-17.21-11.94A1.62,1.62,0,0,1,611.06,525.77Zm-5.45,4.82c10.88,5.18,20.2,14.06,30.85,20a223,223,0,0,0,36.24,15.63,1,1,0,0,1-.54,1.93,129.66,129.66,0,0,1-38.61-12.59C623,550.15,610,543.12,603.2,533,602.14,531.41,604.15,529.89,605.61,530.59Z"/><path class="cls-2" d="M746.94,596.15c-14.93-13.33-33.11-22.22-53.49-19.87h-.11a15,15,0,0,1-8,6.67,105.54,105.54,0,0,0,26,33.2c11.44,9.67,28.43,20.68,44,19.86a15.67,15.67,0,0,0,7.75-2.06,4.92,4.92,0,0,1,1.64-1.38C772.14,624.07,754.06,602.51,746.94,596.15Zm9,36.23c-12.82.31-26.74-8.68-36.55-16.12-10.71-8.11-19.95-18.09-26.3-30a1.59,1.59,0,0,1,2.75-1.61c8,11.12,17,21.12,28.63,28.6,10.29,6.66,22.13,9.1,32.59,15A2.25,2.25,0,0,1,756,632.38Zm4.13-7.52c-6.09.79-13-2.53-18.32-5.24-6.34-3.2-11.48-7.5-16.57-12.37-1.15-1.09.43-3.21,1.72-2.23a90.23,90.23,0,0,0,16.41,9.7c5.62,2.65,12.41,3.68,17.61,7A1.69,1.69,0,0,1,760.09,624.86Z"/><path class="cls-2" d="M584.14,777.25c-3,9.65-1.48,20.16-.28,30,6.1.64,11.43,3.3,13.9,9.24,11.7-10.18,16.85-38.64,8.3-50.2C597.13,754.18,586.82,768.58,584.14,777.25Zm16.78,30.8a2,2,0,0,1-3.36-1.39c.25-6.33,3-12.26,3.39-18.69.46-7.17-.81-14.15-2.56-21.09-.46-1.83,2.22-3.06,3.12-1.31C607.39,777.07,610.33,797.54,600.92,808.05Z"/><path class="cls-2" d="M467.49,204.09A11.12,11.12,0,1,0,456.38,193,11.13,11.13,0,0,0,467.49,204.09Z"/><path class="cls-2" d="M370.67,242.15A11.11,11.11,0,1,0,359.56,231,11.13,11.13,0,0,0,370.67,242.15Z"/><path class="cls-2" d="M680.74,456.41c45.63,13.9,52-65,54.87-95.29a54.21,54.21,0,0,1-18.44-7.93L715.54,352c-16.66,12.51-32.62,26.72-42.63,45.28C663.48,414.82,654.92,448.55,680.74,456.41Zm-5.44-10.73c.72-2.51,3-4.42,4.73-6.31,1.94-2.17,4-4.24,6-6.29a1.56,1.56,0,0,1,2.44,1.88,68.3,68.3,0,0,1-5.12,7.15c-1.73,2.1-3.44,4.62-6,5.62C676.14,448.2,675,446.82,675.3,445.68Zm52-73.69c.38-1.48,2.54-.84,2.26.62-3.27,16.84-7.06,33.84-13.31,49.86-4.32,11.1-10.27,24.09-21.24,30a2.23,2.23,0,0,1-2.69-3.48c10-11.35,17.45-21.73,23-36C720.49,399.76,723.63,385.76,727.25,372Zm-15.59,40.7a128.6,128.6,0,0,1-12.49,23.7c-4.12,6-9.24,13.72-16.41,16.1a2.39,2.39,0,0,1-2.67-3.48c3.84-6.24,10.59-10.88,15.09-16.83,5-6.62,9.28-13.73,14-20.53C710,410.49,712.28,411.2,711.66,412.69ZM666,430c.56-8.68,5.82-16.81,10-24.25a230.22,230.22,0,0,1,17.24-26.05c1.13-1.5,3.69-.12,2.58,1.51-5.19,7.61-9.13,15.94-13.51,24s-7.68,18.09-13.16,25.61C668.23,432.09,665.84,431.85,666,430Z"/><path class="cls-2" d="M195.44,460.3c5,12.93,8.3,25.32,16.63,36.74,17.47,23.94,52,37.28,78.05,19.06a24.7,24.7,0,0,1,0-6.87,4.56,4.56,0,0,1-.35-.57c-14.39-29.2-43.61-48.66-71.08-63.85a145,145,0,0,1-34.26-25.91c-4.45-4.55-15.43-14.82-23-11.42-10,4.5,5.23,20.45,8.72,24.22C179,441.23,190.54,447.71,195.44,460.3Zm50.87,34.19c5.62,1.21,11.3,2.28,17,3.27,5,.88,10.28.94,15,3,1.36.6.9,2.74-.4,3.07-10.24,2.67-23.41-2.57-32.7-6.57C243.45,496.57,244.72,494.15,246.31,494.49ZM189.69,436.2c7.08,6.91,14.37,13.88,19.62,22.35s6.59,18.52,11.78,26.9c5.72,9.25,15.45,15.65,25.52,19.25,9.79,3.5,20.69,1.88,30.15,5.52,1.41.54,2.23,2.89.48,3.67-16.38,7.21-41.52-3.07-53.59-14.8-7.81-7.58-10.61-16.35-13.92-26.4-4.41-13.42-12.88-24-22-34.49A1.42,1.42,0,0,1,189.69,436.2Z"/><path class="cls-2" d="M224,626.35c-11.09-3-20.79-1.25-31.94,2.6-9,3.11-17.25,4.43-26.22.54-9.53-4.12-17.05-11.5-27-15-9.09-3.23-24.8-6.41-33.79-1.22C93.49,620,106.32,626.67,112,630A106.73,106.73,0,0,0,129,637.87a161.7,161.7,0,0,0,31.12,7.8c22.43,3.44,45.51,1.73,65.35-9.35A20.17,20.17,0,0,1,224,626.35Zm-15.82,7.88c-14.22,3.62-29.28,8.84-43.83,4.28-17.08-5.34-32.3-20.38-51.34-14.68-2.07.62-2.73-2.36-.87-3.14,14.73-6.18,28.59.85,42,7,11.6,5.32,21.4,7.74,34.06,4.75,6.72-1.58,13.05-3.6,20-2.34C210.3,630.49,210.13,633.73,208.18,634.23Z"/><path class="cls-2" d="M851.71,352.57a11.12,11.12,0,1,0-11.11-11.11A11.12,11.12,0,0,0,851.71,352.57Z"/><path class="cls-2" d="M319.26,456.41c26.49-8.07,16.86-43,7-60.51-10-17.86-25.54-31.62-41.73-43.78a84.23,84.23,0,0,1-8.5,5.39,39.75,39.75,0,0,1-11.63,4C267.32,392.19,273.83,470.26,319.26,456.41Zm3.11-9.2c-2.61-1-4.31-3.53-6-5.62a70.47,70.47,0,0,1-5.12-7.15,1.56,1.56,0,0,1,2.44-1.88c2.07,2,4.09,4.12,6,6.28,1.7,1.9,4,3.8,4.73,6.32C324.75,446.29,323.58,447.67,322.37,447.21Zm-15.87-68a230.35,230.35,0,0,1,17.24,26.06c4.19,7.42,9.47,15.59,10,24.24.12,1.85-2.27,2.1-3.17.86-5.48-7.51-8.69-17.36-13.16-25.61-4.38-8.09-8.32-16.42-13.51-24C302.81,379.06,305.37,377.68,306.5,379.17Zm-16,32c4.75,6.79,9,13.9,14,20.52,4.5,6,11.24,10.58,15.09,16.84A2.39,2.39,0,0,1,317,452c-7.18-2.38-12.27-10-16.41-16.1a128.28,128.28,0,0,1-12.49-23.7C287.44,410.66,289.71,410,290.51,411.13Zm-20.3-39c-.29-1.47,1.88-2.1,2.26-.63,3.62,13.77,6.75,27.78,12,41.05,5.56,14.19,13.07,24.68,23,36a2.23,2.23,0,0,1-2.69,3.48c-11-6-16.91-18.93-21.25-30C277.27,405.92,273.48,388.93,270.21,372.09Z"/><path d="M910,618.32c-2.24-25.31-44.57-17-58.7-10.21-5.61,2.68-10.44,6.5-15.74,9.68-8.72,5.21-15.71,5-25,1.82-12.5-4.29-23.88-6.16-36.33-2.84-4.05-9.76-11.82-19.29-16.87-24.19-16.67-16.18-38.22-28.13-61.93-26.14a34.59,34.59,0,0,0-2.75-11.62c-3.83-9.11-10.2-16.53-17.68-22.73,9.66.37,22.15.51,29.2-5.31a15.49,15.49,0,0,0,1.86-1.85c19.41,12.11,44.19,12,64.38.72,11.16-6.25,20.43-15.52,27.55-26.08a102,102,0,0,0,9.47-17.85c2.79-6.7,4-14.3,7.33-20.73,3.44-6.66,9.73-10.77,15.14-15.69a109.52,109.52,0,0,0,14.68-16.2c5.67-7.73,11.78-21.73,1.9-29-8.3-6.07-22.52-.71-29.77,4.64-6,4.42-10.61,10.37-16.16,15.28a126.84,126.84,0,0,1-22.66,15.56c-27.32,15.27-56.19,34-72.52,61.72-4.53-7.17-11.46-12.75-18.12-17.83a285.29,285.29,0,0,0-32.45-21.66C633.07,445.53,609.67,437,584.87,434c-.36-.82-.74-1.63-1.11-2.44a3.47,3.47,0,0,0,.16-.55,48.16,48.16,0,0,0,3.67-6.79,100.86,100.86,0,0,0,67.12,14.34c1.74,10.91,7.39,20.49,19.25,25.67,21.19,9.26,42.22-1.93,52.26-21.2,12.9-24.78,16.21-53,18.93-80.48a67,67,0,0,0,32.57-5.77c20.95-9.67,31.83-34.09,38.14-55,7-23.29,7.72-48,4.62-72-3-22.92-8.53-46.53-18.08-67.64A102.7,102.7,0,0,0,786.72,137c-5.85-6.75-16.15-17.11-25.73-17.57-7.87-.39-13,6.07-13.69,13.38-.56,5.55,1.37,10.54,2.62,15.83,2,8.61.44,12-5,18.08-4.09,4.56-6.78,10-5.3,16.35,1.2,5.1,7.85,9.48,7.77,14.71-.09,6-7.6,8.39-10.71,12.6-6.06,8.2,0,14,4.89,20.84,5.17,7.17-3.48,7.29-7.26,11.24-2.7,2.83-3.08,6.55-2.18,10.26.8,3.28,6.12,8,5.73,10.89-.49,3.54-7.61,5.59-12.5,7.1.53-33.44.62-66.83-4.08-100-.56-3.9-5.7-4.25-8.1-2.14-10.68,9.39-14.86,18.43-18.93,31.9-4.46,14.75-9.06,29.51-11.9,44.68-4.91,26.29-4.1,53.64,9.49,77.31a5,5,0,0,0,.74,1c2.89,8.38,8.46,16,15.33,22.37-16.23,12.42-31.59,26.48-41.84,44.12a227.22,227.22,0,0,0-88.66-46.56c11.13-13.89,14.19-34.86-.82-47.65-6.88-5.85-14.93-7.42-23.72-6.17-7.2,1-16.75,1.63-24,4.79,2.71-8.19,6.17-18.68-2.69-22.19-4-1.61-9.91.63-13.16,3.14-4.46,3.46-7.33,9.64-10.41,14.27a1,1,0,0,0-.08.14,33.08,33.08,0,0,0-5,.66c-5-8.14-14-22-25.18-19.56-10.21,2.25-7.54,14.06-3.78,22.45-6.57-2.18-14-3-20.33-4-9-1.42-17.32.05-24.37,6.09-15,12.9-11.94,33.93-.66,47.84A227.22,227.22,0,0,0,334,389.89c-10.24-17.6-25.55-31.64-41.75-44.05,6.85-6.41,12.39-14,15.26-22.46a4.81,4.81,0,0,0,.72-1c13.59-23.67,14.4-51,9.49-77.31-2.84-15.17-7.44-29.93-11.9-44.68-4.07-13.49-8.22-22.47-18.93-31.9-2.4-2.11-7.54-1.76-8.1,2.14-4.7,33.16-4.61,66.52-4.08,99.93-1.86-.7-3.74-1.4-5.61-2.14-9-3.57-6.35-5.11-2.87-11.81,3.1-6,3-12-2.84-16-5.69-3.87-8.49-4.33-3.4-11.2,2.41-3.25,5.67-6.46,6.14-10.72,1-8.68-7.52-10.6-11.58-16.24-4.87-6.73,2.6-11.32,4.95-17a16.07,16.07,0,0,0,0-12.58c-3.61-8.51-12.27-10.29-10.13-21.34,1.82-9.41,7.61-22-1.86-29.37-15.15-11.85-36.53,16.33-43.17,27.16-12.23,20-18.43,44-22.64,66.8-4.29,23.24-5.47,47.12-1.17,70.45,4,21.58,13.19,48.53,30.49,63.07,7.94,6.68,17.89,10.57,28.1,12a90.8,90.8,0,0,0,15.78.91c2.73,27.44,6,55.67,18.93,80.43,10.05,19.27,31.06,30.46,52.26,21.2,11.85-5.18,17.5-14.76,19.25-25.67A101,101,0,0,0,409.38,426a9.45,9.45,0,0,0,3.22,3.86,22.61,22.61,0,0,0,3.76,2l-.93,2.09c-24.37,2.93-47.38,11.16-68.8,23.11a283.13,283.13,0,0,0-33.87,22.46c-6.68,5.11-13.66,10.71-18.19,17.93C288,486.8,279.08,477.88,270.19,469A155.79,155.79,0,0,0,233.88,442c-15.16-8.23-29.32-16.41-41.52-28.82-8.8-8.95-19.76-17.28-33.24-15.17-10.72,1.68-12.37,13-9.08,21.77,4.83,12.78,16.83,22.53,26.74,31.26,11.43,10.06,12.72,25.48,19.41,38.58a89.14,89.14,0,0,0,24.57,30.15C242,536.15,271.34,539.1,294,525a16.74,16.74,0,0,0,1.84,1.83c7.1,5.87,19.81,5.54,29.21,5.27-7.15,5.89-13.3,12.92-17.12,21.47a37,37,0,0,0-3.31,12.92c-23.19-2-44.32,9.45-60.85,25.09-7.46,7.05-14.36,15.47-17.72,25.31-12.54-3.41-24-1.52-36.57,2.77-8.73,3-15.52,3.7-23.76-1.07-5.78-3.34-11-7.53-17-10.43C134.57,601.33,92.25,593,90,618.32c-1,11.34,13.18,18.13,21.49,22.43,13.27,6.88,27.83,11.13,42.51,13.69,27,4.7,55.11,3.29,78.76-11.18,15.82,8.2,38.32-3.13,51.31-11.7a114.23,114.23,0,0,0,40.42-46.84c8.05.1,16.61-2.51,24.28-5.58-4.49,10.26-10.16,24.77-12.48,37.23-9.3,1.62-15.13,8.88-21.48,15.7-7.95,8.56-15.05,17.69-19.94,28.37-3.84,8.39-9.08,20.62-11,32.47C272,698,271.81,712.25,270.63,723.79c-1.85,18.13-.55,36.32-2.11,54.41-1.47,17-9.76,32.31-10.54,49.63-.53,11.84-.3,31.45,8.49,40.85,8.43,9,19.64,3,24.29-6.59,6.31-13,4.43-30.32,4.26-44.24-.09-8-.92-16.32,1-24.11,2-8.18,6.62-15.64,9-23.77,4.58-15.75,5.33-32.28,4.76-48.59,7.7-4.1,14.9-11.56,18.83-16.85,13.73-18.48,21.6-42.31,27.44-64.41,12.3-3.79,23.82-13.8,32.73-22.12a97,97,0,0,0,21.36-28.52l0,.09c10.27,27.78,30.87,49.7,37.74,78.82,7.11,30.1,5.13,61.39,9.83,91.84,2.37,15.35,7.14,35,17.43,49.13-2.61,24.88,6.39,75.94,41.76,71A25.83,25.83,0,0,0,532,872.81c15.24,2.92,30.19-1.75,42.39-11.42,9.45-7.48,22.57-20.81,24.52-34.08l.15-.06c12.71-6.21,17.92-24,19.82-36.91a54.87,54.87,0,0,0-.43-18.64c13.4-18.64,9.91-50,5.21-70.9-4.95-22-13.27-42.24-35.94-50.21-3.82-1.34-7.94,3.72-5.48,7.12,8.12,11.18,7.3,27.55,2,39.89-3.81,8.92-11.93,15.21-15.16,24.46-5.26,15.07,2.07,29.52,14.64,37.17a30.42,30.42,0,0,0-2.3,2.55c-10.47,13-9.16,30.17-7.28,45.76l0,.12a45.21,45.21,0,0,0-6.94,1.78C556,813.32,543.1,821.62,535.5,832c-1-2.39-2.09-4.74-3.21-7.06-2.22-4.59-4.48-10.69-8.83-13.69,7-9.4,12.08-21.25,14.42-28.88,9-29.27,7.3-60.38,10.73-90.49,1.72-15.1,4.66-30.32,10.81-44.3,6-13.71,16-25.1,22.61-38.5a196.07,196.07,0,0,0,8.13-18.89A96.21,96.21,0,0,0,610.09,617c9.07,8.7,21.12,19.28,33.85,23.19,5.85,22.12,13.71,45.88,27.44,64.39,3.92,5.29,11.12,12.75,18.83,16.85-.57,16.29.15,32.86,4.76,48.59,2.39,8.12,6.95,15.6,9,23.77,1.94,7.78,1.11,16.17,1,24.11-.17,13.89-2,31.28,4.26,44.24,4.64,9.56,15.84,15.62,24.29,6.59,8.85-9.46,9-29,8.49-40.85-.78-17.31-9.07-32.61-10.54-49.63-1.56-18.09-.25-36.28-2.11-54.41-1.19-11.57-1.31-25.77-13.28-30.88-1.9-11.84-7.14-24.06-11-32.47-4.87-10.69-12-19.81-19.94-28.37-6.33-6.82-12.19-14.08-21.47-15.7-2.32-12.44-8-26.92-12.47-37.18,7.72,3.1,16.25,5.66,24.26,5.55a114.34,114.34,0,0,0,39.21,46c13,8.83,36.44,21,52.55,12.52,23.66,14.45,51.79,15.83,78.73,11.16a148.93,148.93,0,0,0,41-13C895.62,637.21,911,630.12,910,618.32ZM710.23,508.66c14.38-29.19,43.62-48.66,71.08-63.85A143.62,143.62,0,0,0,814.5,420c4.7-4.76,15.94-16.19,24.08-12.54,10.09,4.52-5.56,20.81-8.72,24.22-8.67,9.33-20.16,15.75-25.05,28-5.21,13.06-8.45,25.72-16.88,37.32-17.43,24-52,37.27-78,19.06a24.4,24.4,0,0,0,0-6.88A4.43,4.43,0,0,0,710.23,508.66ZM693.17,296.59c-.27.68-.52,1.35-.75,2-4.75-17.6-3.76-36.45,0-54.55,2.49-12.1,6-23.94,9.58-35.76,1.81-6,3.25-12.28,5.74-18A30.47,30.47,0,0,1,713,182.1c3.51,30.47,3.07,61.22,2.56,91.87a5.21,5.21,0,0,0,.09,1,57.81,57.81,0,0,0-21.89,20.16A4.79,4.79,0,0,0,693.17,296.59Zm9.13,3.2c6.1-9.66,15.48-16,26-20.15,6-2.38,15-4.22,18.42-10.65,2.66-4.94-.46-10.37-2.91-14.58-2.7-4.66-3.08-4.77,1.17-7.18,2.91-1.65,5.48-3.31,7.07-6.35,2.7-5.17.87-10.32-2.29-14.78-2.77-3.91-7.5-6.61-4.09-11.3,2-2.78,5.87-4.26,8.09-7,3.94-4.87,4.37-11.8,1.83-17.5-1.77-4-6.77-6.67-6.44-11.62.26-4.06,4.17-6.34,6.54-9.19a21,21,0,0,0,5-16.33c-.44-4.47-2.15-8.58-3.11-12.92-.88-3.93,1.13-9.2,6.27-9.69,2.24-.21,7.73,5.22,9.15,6.45,15.24,13.18,23,32.65,28.61,51.49,12,40.43,16.93,85.23-.39,124.93-4.76,10.92-10.92,23.46-20.79,30.58-9.19,6.62-20.51,9-31.66,8.63-6.86-.23-13.79-.19-20-3.48a71.55,71.55,0,0,1-15.91-11.72C702.25,327.09,697,314,702.3,299.79Zm-29.39,97.53c10-18.56,26-32.77,42.63-45.28l1.63,1.15a54.21,54.21,0,0,0,18.44,7.93c-2.87,30.34-9.24,109.19-54.87,95.29C654.92,448.55,663.48,414.82,672.91,397.32ZM287,181.94a28.58,28.58,0,0,1,4.28,5.84c3.05,5.69,4.37,12.6,6.22,18.75,3.75,12.41,7.51,24.83,10.12,37.53,3.72,18.1,4.71,36.94,0,54.55-.23-.67-.48-1.33-.74-2a4.83,4.83,0,0,0-.62-1.49,57.48,57.48,0,0,0-21.88-20.22,5.55,5.55,0,0,0,.08-.93C283.91,243.27,283.47,212.47,287,181.94ZM206.67,328.76c-23-37.95-22.65-83.38-12.4-125.3C199,184,204.91,164,217.06,147.72c2.83-3.8,23-27.26,26.06-12,.9,4.5-3.05,11.73-3.7,16.16a22.63,22.63,0,0,0,.53,10.22c2,6.13,9.19,9.48,10.72,15.3,1.3,4.94-3,7.6-5.15,11.12a19,19,0,0,0-2.6,12.14c.85,5.73,5,8.66,9.05,12.25,3.16,2.78,4.54,2.64,3.24,7-.42,1.39-2.75,3.37-3.6,4.46-2.07,2.64-4.1,5.21-4.73,8.6-1.51,8.05,3.57,10.56,9,14.72,4.1,3.13,1.38,4.48-.87,8.49-1.61,2.86-2.94,5.92-2.56,9.28.82,7.28,9.19,10.76,15.3,12.8,12,4,23.06,10.68,29.93,21.56,8.81,24-15.2,50.6-39,52.45C236.64,354,218.53,348.36,206.67,328.76ZM319.26,456.41c-45.43,13.85-51.94-64.22-54.83-94.88a39.75,39.75,0,0,0,11.63-4,84.23,84.23,0,0,0,8.5-5.39c16.19,12.16,31.73,25.92,41.73,43.78C336.12,413.46,345.75,448.34,319.26,456.41ZM290.12,516.1C264.05,534.32,229.54,521,212.07,497c-8.33-11.42-11.6-23.81-16.63-36.74-4.9-12.59-16.45-19.07-25.3-28.6-3.49-3.77-18.76-19.72-8.72-24.22,7.58-3.4,18.56,6.87,23,11.42a145,145,0,0,0,34.26,25.91c27.47,15.19,56.69,34.65,71.08,63.85a4.56,4.56,0,0,0,.35.57A24.7,24.7,0,0,0,290.12,516.1Zm-130,129.57a161.7,161.7,0,0,1-31.12-7.8A106.73,106.73,0,0,1,112,630c-5.71-3.31-18.54-10-6.94-16.73,9-5.19,24.7-2,33.79,1.22,9.91,3.52,17.43,10.9,27,15,9,3.89,17.23,2.57,26.22-.54,11.15-3.85,20.85-5.63,31.94-2.6a20.17,20.17,0,0,0,1.43,10C205.59,647.4,182.51,649.11,160.08,645.67Zm419,77.58c3.55-7.63,10.3-13.26,13.83-21,4.77-10.43,6.55-23.85,3.81-35.63,11.11,9.64,15.36,25.33,18.32,40.12,3.06,15.29,5.43,37.38-1.2,53.18a23.4,23.4,0,0,0-4.82-5.41c-5.1-4.13-11-3.92-16.37-1.57C580.78,748.47,573.38,735.58,579.1,723.25Zm5,54c2.68-8.67,13-23.07,21.92-11,8.55,11.56,3.4,40-8.3,50.2-2.47-5.94-7.8-8.6-13.9-9.24C582.66,797.41,581.17,786.9,584.14,777.25Zm-44,71.42a45,45,0,0,0-.76-4.79,5.25,5.25,0,0,0,1.12-1.69c3.66-8.72,15.24-16.46,23.31-20.67,4-2.08,13.41-6.47,18.3-5,10.55,3.13,7.21,12.13,2.81,18.88-10.44,16-27.34,30.24-47,28.5A31.83,31.83,0,0,0,540.1,848.67ZM688.58,493c8.29,7.36,20.26,24.27,2.54,28.4-9.09,2.11-19.81,1.21-29,.35a140.64,140.64,0,0,1-59.78-20.11,3.26,3.26,0,0,0-.38-.18c-.13-1.52-.28-3-.44-4.55,10.82,8.34,27,13.58,40,17.19,14.31,4,28.77,5.24,43.32,1.88,1.55-.36,1.25-3-.38-2.83a105.08,105.08,0,0,1-43.09-5.2c-12.76-4.23-24.81-12.45-37.78-15.46a2.68,2.68,0,0,0-2.52.92q-.66-5.42-1.6-10.78c7.66,7,18.73,11.5,28,15.74a136.64,136.64,0,0,0,31.67,10.13c2.27.42,3.26-2.93,1-3.51a144.68,144.68,0,0,1-32.79-13.17c-8.66-4.64-17-11.5-26.45-14.33a2.29,2.29,0,0,0-2.25.51,211.83,211.83,0,0,0-9.6-33.7C625.43,449.79,661.34,468.73,688.58,493Zm-27.1-94.21c-.54,1.21-1.09,2.42-1.58,3.66A79.21,79.21,0,0,0,654.12,429H654a90.74,90.74,0,0,1-62.21-13.54,5.73,5.73,0,0,0-1.16-.54c2.27-10.16,1.46-20.9-1.31-31.39a124.1,124.1,0,0,0-9.09-23.27c-1.16-2.32-2.07-4.59-2.94-6.85A216.83,216.83,0,0,1,661.48,398.74Zm-116.24-98c6.74-1.32,13.62-3.47,20.24-.65,16.07,6.86,13.22,26.09,4.12,37.42-8.76-13.37-19.34-25.71-32.51-34.88-.2-.14-.41-.26-.62-.4C539.4,301.61,542.46,301.31,545.24,300.76ZM516.54,286a13.06,13.06,0,0,1,2.47-3.25,9.61,9.61,0,0,1,2.77-1.1l.35,0c-.19,1-.32,2.67-.38,3a30.28,30.28,0,0,1-1.29,4.26c-.51,1.41-1,2.79-1.47,4.18-1-.37-1.91-.78-2.88-1.11s-2-.65-2.9-.92Zm-41.31-5.54a7.52,7.52,0,0,1,1.48.66c5,2.49,8.33,7.35,11.24,12.09-2.38.85-4.75,1.76-7.08,2.76a4.76,4.76,0,0,0-.64-1.51,35.53,35.53,0,0,1-4.45-8.61c-.47-1.55-.32-3.25-.74-4.74C475.12,280.88,475.18,280.67,475.23,280.48ZM435,299.77c6.65-2.84,13.46-.68,20.24.64,4,.79,8,1.33,11.8,2.68a85,85,0,0,0-18.23,14.65c-6.1,6.57-10.55,14.18-16.68,20.73l-.08.09C422,327.49,418.1,307,435,299.77Zm5.92,43.58c4.95-4.79,7.62-10.22,11.94-15.57a72.16,72.16,0,0,1,16-14.38c9.55-6.41,26-16.12,37.86-14.14a51.66,51.66,0,0,1,13.87,4.61l.18.09A89.5,89.5,0,0,1,542,319.08c9.19,8.64,19.57,20.23,24.55,32,1.64,3.88,2,7.59,4,11.52a126.55,126.55,0,0,1,8.6,20.63c4.29,14.28,4.84,28.8-2.87,41.72a247.53,247.53,0,0,1-42,2.62c-6.42-.13-13.08-.12-19.44-1-5.82-.84-10.47-2.57-16.49-2-26.41,2.44-54.27,5.55-79.94-2.83C411.65,397,423.07,360.56,440.87,343.35Zm-33.65,66c0,1.91-.05,4.24.07,6.66A90.67,90.67,0,0,1,346,429h-.09a79,79,0,0,0-5.79-26.55c-.49-1.24-1-2.45-1.58-3.66a216.59,216.59,0,0,1,82.78-45q-1.56,2.91-2.91,5.89A122.43,122.43,0,0,0,407.22,409.31ZM311.45,521.68c-20.37-2.07-9.21-20.57,0-28.73,27.32-24.28,63.36-43.26,99.85-48.74a212.44,212.44,0,0,0-9.63,34,2.38,2.38,0,0,0-2.82-1.25c-9.45,2.84-17.78,9.69-26.45,14.33a145,145,0,0,1-32.79,13.18c-2.3.58-1.31,3.93,1,3.5a136.17,136.17,0,0,0,31.67-10.13c9.64-4.39,21.17-9,28.85-16.48q-1.12,6.19-1.87,12.44a2.81,2.81,0,0,0-3.09-1.83c-13,3-25,11.23-37.78,15.45a105.09,105.09,0,0,1-43.09,5.21c-1.62-.15-2,2.46-.38,2.82,14.55,3.36,29,2.08,43.32-1.88,13.17-3.64,29.56-8.95,40.36-17.43a2,2,0,0,0,.46-.51q-.32,2.82-.55,5.64a5.4,5.4,0,0,0-.77.37,141.81,141.81,0,0,1-58.13,19.94A135.25,135.25,0,0,1,311.45,521.68Zm-22.83,94.47c-11.48,9.7-28.39,20.68-44,19.86a15.93,15.93,0,0,1-7.74-2,4.65,4.65,0,0,0-1.68-1.41c-7.38-8.54,10.88-30.19,17.85-36.41,14.93-13.33,33.11-22.22,53.49-19.87h.06a15,15,0,0,0,8,6.67A105.65,105.65,0,0,1,288.62,616.15Zm48.57-43.58c-5,1.38-11.24,3.37-16.45,2-10.52-2.8-6.05-13.53-2.57-19.95,5.6-10.36,15.45-17.72,25.35-23.63a3.32,3.32,0,0,0,.36-.26,151.74,151.74,0,0,0,53.9-18,210.38,210.38,0,0,0,.79,25.35C379.71,552,360.07,566.25,337.19,572.57ZM297.4,760.66c-2.57,11.62-9.17,21.92-11.35,33.53-2,10.51-.64,21.65-.67,32.27,0,6.15,0,12.36-.52,18.5-.37,4.45-4.62,26.29-13,14.11-3.5-5.1-3.66-14.64-4.08-20.51a89.54,89.54,0,0,1,.8-20.1c1.92-12.18,7.49-23.36,9.12-35.6,1.61-12.05.65-24.31,1.06-36.43q.33-9.45,1.19-18.88c.46-5.06.19-15.76,3.47-21.81a25.45,25.45,0,0,0,4.48,12.3c3.49,4.82,7.78,6.53,12.28,6.3C300.5,736.52,300,748.73,297.4,760.66ZM331.15,681c-3.33,7-7.08,14.06-12,20.1a55.78,55.78,0,0,1-6.29,6.57,40.09,40.09,0,0,1-6.37,4.62q-4.35,4.05-8.19-.44c-6.1-3.64-5.46-9.17-4.46-15.76a82.66,82.66,0,0,1,2.23-9.58A137.06,137.06,0,0,1,304,663.81a88.66,88.66,0,0,1,13.2-19.89c4.23-4.92,11.19-14.57,18.07-17.36,0,8.27,2.79,14.2,10.4,15A246.91,246.91,0,0,1,331.15,681Zm73.67-103.71c-7.3,21.29-24.81,38.82-44.09,49.91-5.09,2.92-13.18,8.25-15.18.7-1.58-6,.17-13,1.71-18.74,3.36-12.63,9.16-24.37,14.95-36,13.36-6.65,25.65-15.2,37.67-24a203.27,203.27,0,0,0,5.77,26.66A5.21,5.21,0,0,0,404.82,577.25Zm119.77,254c2.74,5.88,5.66,12.48,6,19.09.78,15.35-14.2,26.43-27.71,17.05-15-10.4-18.95-30.6-18.59-48.41a38.86,38.86,0,0,0,8.35,5.07c9,4,17.11,1,24-5.16.1,0,.18.06.29.08C520.33,819.54,523.36,828.58,524.59,831.21ZM580.9,587.34c-9.12,24.67-27.34,44.18-35.16,69.32-7.61,24.46-8,50.33-9.78,75.67-1.74,24.81-4.16,65.3-28,80.39-13.37,8.45-24.46-7.62-30-18.24-6.23-11.87-9.18-25.44-11.08-38.61-4-27.75-2.76-56-8.16-83.61a136.93,136.93,0,0,0-10.35-32.34c-5.55-11.72-14-21.65-20-33.11-27.7-52.84-27.42-118.63-2.49-172.35,5.52,1,11.28,1.34,15.87,1.72,12.68,1.08,25.34.13,38-.37,10.83-.43,20.64-2.2,31.26-.08,20.17,4,43.15,2.17,63.76-.83A200.06,200.06,0,0,1,580.9,587.34ZM712.09,718a25.53,25.53,0,0,0,4.5-12.41c3.12,5.62,2.81,15.27,3.27,20q1,10.35,1.37,20.76c.43,12.11-.54,24.38,1.06,36.43,1.55,11.66,6.75,22.3,8.8,33.85a90.36,90.36,0,0,1,1.12,21.85c-.38,5.69-.67,15.53-4.08,20.51-8.33,12.11-12.6-9.74-13-14.11-.49-5.56-.48-11.21-.52-16.78-.07-11.18,1.39-22.93-.67-34-2.16-11.61-8.76-21.92-11.35-33.53-2.67-11.92-3.11-24.15-2.79-36.32C704.31,724.57,708.6,722.86,712.09,718Zm-47.32-91.45c6.79,2.85,14,12.61,18.06,17.33a90.16,90.16,0,0,1,12.48,18.37A130.41,130.41,0,0,1,704,686.47a87,87,0,0,1,2.23,9.58c1,6.58,1.62,12.13-4.46,15.76q-3.84,4.49-8.19.44a40.09,40.09,0,0,1-6.37-4.62,54.24,54.24,0,0,1-6.29-6.57,94.66,94.66,0,0,1-11.36-18.71,245.16,245.16,0,0,1-15.16-40.84C662,640.75,664.75,634.83,664.77,626.59Zm-12.49-19.2c1.65,5.81,3,11.91,2.58,18-.81,10.61-9.27,5.41-15.59,1.78-19.28-11.09-36.79-28.62-44.09-49.91a5.29,5.29,0,0,0-.44-1,203.7,203.7,0,0,0,5.78-26.91c11.89,8.71,24.05,17.14,37.26,23.7C643.31,584.2,648.87,595.4,652.28,607.39Zm28.86-33.14c-4.48,2.8-13.83-.44-18.33-1.68-22.72-6.28-42.25-20.35-61-34.2a211.64,211.64,0,0,0,.79-25.43,151.46,151.46,0,0,0,53.52,17.78c.12.09.22.18.35.26,10,5.95,19.63,13.28,25.35,23.63C685.23,560.75,688.74,569.51,681.14,574.25Zm83.62,58.32a4.92,4.92,0,0,0-1.64,1.38,15.67,15.67,0,0,1-7.75,2.06c-15.56.82-32.55-10.19-44-19.86a105.54,105.54,0,0,1-26-33.2,15,15,0,0,0,8-6.67h.11c20.38-2.35,38.56,6.54,53.49,19.87C754.06,602.51,772.14,624.07,764.76,632.57ZM895,625.52c-1.8,1.29-3.68,2.49-5.57,3.63a105.42,105.42,0,0,1-16.8,8.15,160.13,160.13,0,0,1-32.69,8.37c-22.34,3.42-45.31,1.74-65.1-9.22a16.69,16.69,0,0,0,1.9-10.3c10.77-2.74,20.35-.95,31.22,2.8,9,3.11,17.23,4.43,26.22.54,8.69-3.75,15.68-10.41,24.49-14,9.14-3.74,27.13-8.24,36.26-2.22,2.39.44,3.38,2.08,3,4.94Q901.41,623.52,895,625.52Z"/><path d="M443.28,359.6c7.05-9.84,14.05-19.94,22.85-28.34,8.57-8.18,17.9-11.78,28.15-17,1.55-.79.78-3.21-.87-3.21-24.43.07-41.61,29.22-52.1,47.42C440.57,359.75,442.44,360.77,443.28,359.6Z"/><path d="M480.34,379.81a1.58,1.58,0,0,0,3.15,0A110.36,110.36,0,0,1,490,343.3c4.33-12.12,12.3-21.11,17.83-32.36.7-1.44-.86-3.57-2.44-2.44-9.52,6.85-15.38,19.71-19.43,30.43A96.18,96.18,0,0,0,480.34,379.81Z"/><path d="M464.84,355c4.81-11.14,12.47-20.37,19.27-30.3,1-1.42-1.15-2.94-2.32-1.79-8.87,8.67-16.69,18.67-19.51,31C462,355.39,464.19,356.54,464.84,355Z"/><path d="M461.71,395.07c-3.43-10-3.78-20.37-3.09-30.82.07-1-1.42-1.14-1.71-.23C451,382.81,457,413.27,475.26,424a1.89,1.89,0,0,0,2.57-2.56C472.18,412.38,465.27,405.47,461.71,395.07Z"/><path d="M446.75,423.76a1.39,1.39,0,0,0,2.17-1.67c-4.71-10-11.87-17.65-12.93-29.22a1.1,1.1,0,0,0-2.2,0C433,404.24,437.68,416.58,446.75,423.76Z"/><path d="M485,394.83c-1.2-2.11-4.08-.26-3.17,1.85,2.88,6.67,5.87,14.31,11.31,19.34a1.5,1.5,0,0,0,2.5-1.45C493.49,407.51,488.62,401.19,485,394.83Z"/><path d="M492.28,389.69c4,10.23,8.74,20.93,15.82,29.43.89,1.07,2.95-.08,2.4-1.4-4.15-10.11-10-19.66-15-29.37C494.58,386.62,491.55,387.83,492.28,389.69Z"/><path d="M522,322.3c14.36,9.3,25.74,24.65,35.2,38.69a112.91,112.91,0,0,1,12.15,22.67c3.19,8.35,3.77,17,6.11,25.53a1.54,1.54,0,0,0,2.95,0c4-17.17-7.15-37.3-16.5-51-10.22-14.92-22.31-29.76-38.29-38.71A1.61,1.61,0,0,0,522,322.3Z"/><path d="M549.23,370.27a169.7,169.7,0,0,1,9.44,26.34c2.21,8,2.52,16.8,5.53,24.46.53,1.37,3,1.88,3.32,0,2.57-17.33-7.62-37.54-15.8-52.25C550.81,367.17,548.46,368.62,549.23,370.27Z"/><path d="M551.17,404.13c.43,3.21.75,6.43,1,9.66.21,2.73.13,5.31,1.24,7.85.54,1.24,2.22.67,2.59-.33,1.9-5.09-.27-12.53-1.47-17.63C554.09,401.85,550.92,402.2,551.17,404.13Z"/><path d="M427.45,449.81c6.7-.26,13.23-1.78,20-1.88,6.26-.09,12.51.41,18.77.29a71.94,71.94,0,0,0,30.48-7.49c1.57-.75.45-3.48-1.2-2.84a91.22,91.22,0,0,1-37.81,6.38c-10.07-.32-21.79-2.25-31,2.76A1.5,1.5,0,0,0,427.45,449.81Z"/><path d="M422.6,473.66c6.19-1.9,11.68-5.42,17.77-7.64a104.65,104.65,0,0,1,21.87-5.23c16.36-2.18,32.13,0,48.45.66a1.81,1.81,0,0,0,.48-3.54c-16-3.74-33.67-4.21-49.94-2.08-13.14,1.72-30.71,5.17-40.17,15.17A1.6,1.6,0,0,0,422.6,473.66Z"/><path d="M415,489.42c6.86-3.21,13-7.52,20.09-10.37a120.06,120.06,0,0,1,21.68-6.28c1.57-.31,1.24-2.95-.39-2.83-14.78,1.12-32.61,6.08-43.26,17A1.56,1.56,0,0,0,415,489.42Z"/><path d="M412.6,502.06c5.47-1.3,10.22-5.12,15.21-7.65a156.93,156.93,0,0,1,19.24-8.26,1.25,1.25,0,0,0-.66-2.41,115.71,115.71,0,0,0-18.54,6c-5.67,2.48-12.65,5.1-16.54,10.07A1.34,1.34,0,0,0,412.6,502.06Z"/><path d="M411.65,512.26c4-1.42,7.51-4.38,11.13-6.6,4.08-2.49,8.15-5,12.25-7.42.93-.56.31-2.28-.78-1.84a111.42,111.42,0,0,0-12.42,6c-3.87,2.2-8.49,4.41-11.4,7.82C409.69,511,410.37,512.71,411.65,512.26Z"/><path d="M424.13,510.17l-6.88,4.48c-2.06,1.35-4.65,2.57-6.2,4.5-.9,1.12-.11,3.09,1.51,2.6,2.4-.73,4.45-2.61,6.48-4l6.73-4.74C427.46,511.79,425.91,509,424.13,510.17Z"/><path d="M523.11,506.4c-27.82-3.35-60.29-2.42-85.69,10.74-1.45.76-.42,2.92,1.08,2.56,14.47-3.39,28.38-7.9,43.21-9.7a181.39,181.39,0,0,1,41.4-.27C525.25,510,525.2,506.65,523.11,506.4Z"/><path d="M430.51,532.26a1.52,1.52,0,0,0,1.16,2.77c11.39-2.56,22.11-7.7,33.49-10.52a200.65,200.65,0,0,1,37.68-5.64c2.06-.11,2.09-3.22,0-3.22C479.62,515.59,449.94,518.26,430.51,532.26Z"/><path d="M489.24,529.51c1.81-.3,1.41-3.45-.44-3.23-19.55,2.33-43.27,6.17-60,17.24a1.63,1.63,0,0,0,1.26,3c9.9-2.55,19.25-7.26,29.09-10.19A243.56,243.56,0,0,1,489.24,529.51Z"/><path d="M454.28,542.49c-7.21,2.86-15.18,5.62-21.31,10.48-1.22,1,.11,2.87,1.46,2.5,7.22-2,14.06-6,21-8.75C458,545.69,456.91,541.44,454.28,542.49Z"/><path d="M451.61,552.92c-2.4,1-4.79,2-7.15,3.09s-5.07,2-6.72,3.86a1.76,1.76,0,0,0,1.69,2.91c2.36-.34,4.51-2,6.58-3.15q3.44-1.85,6.94-3.52C454.7,555.26,453.45,552.17,451.61,552.92Z"/><path d="M449.24,560.42a38,38,0,0,1-4.18,2.56,13.49,13.49,0,0,0-4,2.44,1.44,1.44,0,0,0,1,2.42c3.14.26,6.63-2.42,9-4.15C453.1,562.28,451.24,559,449.24,560.42Z"/><path d="M477.94,579.77a1.48,1.48,0,0,0-.79-2.85c-13.94,3.82-31.22,8.65-42.18,18.52-1.25,1.12,0,3.46,1.67,2.87,6.3-2.26,11.93-6.14,18-9A200,200,0,0,1,477.94,579.77Z"/><path d="M475.85,591.61a1.46,1.46,0,0,0-.78-2.82,118.19,118.19,0,0,0-19.86,7.07c-5.35,2.52-12.63,5.62-15.6,11a1.46,1.46,0,0,0,1.63,2.12c5.45-1.23,10.35-5.94,15.2-8.7A102.72,102.72,0,0,1,475.85,591.61Z"/><path d="M478.49,599.4c1.43-.74.44-3.21-1.11-2.63-11.26,4.26-27.74,9.4-34.65,19.92-1.11,1.7,1,3.43,2.62,2.62,5.67-2.88,10.41-7.59,16-10.82S472.75,602.37,478.49,599.4Z"/><path d="M460,614.35a46.73,46.73,0,0,0-7.09,4.34c-2,1.5-4.22,3-4.47,5.68a1.79,1.79,0,0,0,1.78,1.78c2.4-.24,3.91-2.1,5.67-3.59a43.14,43.14,0,0,1,6.34-4.39C464.7,616.74,462.51,613.08,460,614.35Z"/><path d="M506.59,638.12c2.58.13,2.52-3.76,0-4-15.25-1.28-34.19-1.08-47.87,6.71-1.87,1.06-.5,3.49,1.35,3.22,7.31-1.07,14.32-3.61,21.65-4.76A120.37,120.37,0,0,1,506.59,638.12Z"/><path d="M462.49,654.64c5.56-1,10.78-3.77,16.26-5.22a81.68,81.68,0,0,1,18.8-2.6c2.55-.08,2.57-4,0-4-11.61-.06-27.5,1.13-36.62,9.11C459.6,653.11,461.06,654.89,462.49,654.64Z"/><path d="M470.11,660.59c2.89-.79,5.82-1.42,8.77-1.94,3.1-.55,1.77-5.21-1.3-4.71s-5.89,1.08-8.8,1.83c-2.48.64-5.27,1.13-7,3.14a1.74,1.74,0,0,0,.76,2.88C465.17,662.36,467.58,661.27,470.11,660.59Z"/><path d="M511.28,692.6c2.26.28,2.78-3.55.54-4-14.8-2.84-36-3.72-48.49,6.27a1.78,1.78,0,0,0,1.25,3c7-.81,13.52-3.78,20.51-4.95A89.46,89.46,0,0,1,511.28,692.6Z"/><path d="M468.14,703.36c-1.65,1.36.19,3.51,1.87,3.23,5.36-.91,10.35-3.4,15.76-4.38a58.49,58.49,0,0,1,18-.38c2.28.3,2.84-3.7.55-4.05C493,696,477.51,695.62,468.14,703.36Z"/><path d="M483.92,712.92c3.33-.62,1.92-5.69-1.4-5.08a81,81,0,0,0-8.8,2.11c-2.29.69-5.18,1.27-6.29,3.6a1.72,1.72,0,0,0,1,2.47c2.34,1,4.91-.48,7.19-1.15A79.12,79.12,0,0,1,483.92,712.92Z"/><path d="M477.53,723.24c2.51-.41,1.44-4.68-1.06-3.87a24.62,24.62,0,0,0-5.4,2.11,1.28,1.28,0,0,0,.64,2.37A25.35,25.35,0,0,0,477.53,723.24Z"/><path d="M512.91,753c-12.8,4.27-26.56,5.17-39.19,9.49a1.68,1.68,0,0,0,.44,3.28c13.09,1.36,27.83-4.17,39.88-8.68C516.55,756.11,515.53,752.08,512.91,753Z"/><path d="M500.86,766.13c-8.43,2.29-18.78,3.48-26.25,8.22a1.62,1.62,0,0,0,.81,3c8.85-.32,18.05-5.16,26.32-8C503.72,768.62,502.93,765.57,500.86,766.13Z"/><path d="M488.93,777.94c-2,.78-4,1.47-6.05,2.09-1.81.55-3.72,1-5,2.52a1.39,1.39,0,0,0,.6,2.28c2,.69,4,0,5.94-.72s4.05-1.64,6-2.57S491,777.13,488.93,777.94Z"/><path d="M487.81,786.8a33.67,33.67,0,0,1-3.86,1.53c-1.34.43-2.79.78-3.51,2.1a1.79,1.79,0,0,0,.63,2.4c1.55.84,3.09.19,4.59-.45a37.89,37.89,0,0,0,4.17-2.11C492.1,789,490.11,785.72,487.81,786.8Z"/><path d="M489.14,797a.05.05,0,0,0,0-.1A.05.05,0,1,0,489.14,797Z"/><path d="M465,665.41c-2.32.55-1.3,3.87,1,3.5s4.38-.48,6.59-.68A10.92,10.92,0,0,0,477.6,667a1.22,1.22,0,0,0,0-2.09C474.16,662.81,468.6,664.54,465,665.41Z"/><path d="M554.82,485.08a124.41,124.41,0,0,0-47.73-9.26c-2.31,0-2.22,3.31,0,3.52a138.09,138.09,0,0,1,62.39,20.48c6.37,3.94,11.87,9.34,18.47,12.78,2,1.06,5-1.24,3.42-3.42C583.26,497.82,567.4,490.24,554.82,485.08Z"/><path d="M534.65,524.92c-2.43-.48-3.49,3.15-1,3.76,19.52,4.88,35,15,49.81,28.29a2.86,2.86,0,0,0,4-4.05C573.82,537.85,554.37,528.79,534.65,524.92Z"/><path d="M573.56,556.6a83.31,83.31,0,0,0-12.82-4.87c-2.34-.77-3.17,2.73-1,3.62a87,87,0,0,1,11.35,5.46c2.95,1.74,5.61,5,8.94,5.79a1.66,1.66,0,0,0,2-2C581.43,560.75,576.72,558.26,573.56,556.6Z"/><path d="M573.91,567.15c-2.1-1.16-4.22-2.27-6.33-3.41a2.24,2.24,0,0,0-2.25,3.86c2,1.31,4,2.64,6,3.93,1.79,1.14,3.79,2.75,6,2.55a2,2,0,0,0,1.67-2.91C578.15,569.15,575.74,568.16,573.91,567.15Z"/><path d="M516,446.14c8.79,4,18,5,27.57,5.46,12,.53,20.79,2.81,31.82,7,2.08.79,3.14-2,2-3.38-13.23-15.75-42.56-5.84-59.72-13C515.39,441.3,513.76,445.13,516,446.14Z"/><path d="M549.46,454.87c-1.78-.42-3.17,2.32-1.32,3.11a127.91,127.91,0,0,1,18.24,9.24c5.69,3.58,10.53,9.08,16.58,11.89a1.66,1.66,0,0,0,2.25-2.25c-2.85-5.89-9.79-10.2-15.23-13.53A69.22,69.22,0,0,0,549.46,454.87Z"/><path d="M575.58,478.9A92.89,92.89,0,0,0,560.31,469a1.82,1.82,0,0,0-1.84,3.14,134.63,134.63,0,0,1,14.91,11.59c4,3.54,7.42,8.21,11.92,11,1.75,1.09,3.25-1,2.57-2.56C585.56,486.86,580,482.46,575.58,478.9Z"/><path d="M575.75,513.3c-5.78-4.3-11.9-8.17-17.84-12.25-1.52-1.05-2.88,1.39-1.43,2.45,5.74,4.21,11,8.83,16.46,13.43,3.85,3.27,7.95,8.3,13,9.37.92.2,2.07-.63,1.67-1.67C585.68,519.61,580,516.42,575.75,513.3Z"/><path d="M576.26,523.57c-4-3.19-8.28-6.16-12.53-9.06-1.71-1.18-3.9,1.6-2.24,2.91,4.09,3.25,8.07,6.64,12,10,3.55,3,7.09,7.24,11.33,9.22a2,2,0,0,0,2.65-2.64C585,529.77,580.1,526.6,576.26,523.57Z"/><path d="M545.47,569.3c-9.71-4.37-20.45-9.53-31.29-8.07-1.14.15-1.24,1.86,0,1.85,20.63-.1,34.44,14.53,49.28,26.25,1.35,1.06,4,.14,3.26-1.9C563.46,578.48,553.74,573,545.47,569.3Z"/><path d="M550.14,585.62a108,108,0,0,0-21.28-11.5c-1.1-.45-1.89,1.42-.81,1.94a87.47,87.47,0,0,1,20.53,13.43c4.46,4,8.4,10.74,14.1,12.68,1.12.39,2-.77,1.77-1.77C563.29,594,555.15,589.15,550.14,585.62Z"/><path d="M552.31,599.21a66.38,66.38,0,0,0-8.42-6c-2.06-1.26-3.84,1.88-1.88,3.2a49.45,49.45,0,0,1,7.88,6.56c2,2,3.75,5,6.47,6,1.38.52,2.28-1,2.12-2.12C558.06,603.8,554.51,601.06,552.31,599.21Z"/><path d="M537.06,600.89a38,38,0,0,0,5.51,10.29c2.42,3.44,4.07,7.19,6.28,10.71a1.2,1.2,0,0,0,2.22-.6c.08-7.85-8.64-14.17-11.53-21.08C538.92,598.73,536.54,599.26,537.06,600.89Z"/><path d="M541.81,624.68c0,13.74-7,25.53-10.43,38.5-2.92,10.92-5.14,24.67-2.72,35.76a1.64,1.64,0,0,0,3.14,0c3.52-13.33,2-27.41,6-40.93,3.37-11.14,7.51-21.48,6.28-33.33C544,623.24,541.81,623.16,541.81,624.68Z"/><path d="M526.55,721.54c-.34,14.18-.86,29.24-3.88,43.12a77,77,0,0,1-6.15,18c-2.34,4.66-5.73,8.59-7.55,13.47-.47,1.27,1.16,2.33,2.23,1.71,9.55-5.58,13.95-20.08,16.31-30.26,3.56-15.41,2.33-30.45,1.24-46A1.1,1.1,0,0,0,526.55,721.54Z"/><path d="M515.09,861.36c-6.74-3.33-12.66-6.22-16.74-12.93-3.86-6.34-5.44-14.09-7.1-21.23-.55-2.37-4.06-1.35-3.61,1,2.5,13.08,8.64,38,26.53,36.59C515.83,864.65,516.87,862.23,515.09,861.36Z"/><path d="M550.32,854a51.71,51.71,0,0,0,21-12c4.87-4.62,11.69-12.72,11.66-19.77a2,2,0,0,0-3.36-1.39c-2.3,2.43-3.31,5.56-5,8.4a56.42,56.42,0,0,1-25.46,21.93C547.47,851.82,548.64,854.48,550.32,854Z"/><path d="M597.56,806.66a2,2,0,0,0,3.36,1.39c9.41-10.51,6.47-31,.59-42.48-.9-1.75-3.58-.52-3.12,1.31,1.75,6.94,3,13.92,2.56,21.09C600.53,794.4,597.81,800.33,597.56,806.66Z"/><path d="M607.64,747.12c.15,2.34,4,3.23,4.39.59,3.13-21.24-1.39-44.89-7.24-65.31a1.59,1.59,0,0,0-3.06.85C606.41,704.7,606.27,725.45,607.64,747.12Z"/><path d="M594.64,710.13a1.57,1.57,0,0,0-3-.84c-2.38,6.51-9,9.48-11,16.33-1.56,5.46-1.38,11.68,1.33,16.71a1.61,1.61,0,0,0,2.91-.38c1.2-6.21-1-12.6,2.2-18.48C589.73,718.6,593.26,715.72,594.64,710.13Z"/><path d="M592.64,732a39.26,39.26,0,0,1,1.43-8.67c.51-1.89-2.36-3.23-3.25-1.37-2.29,4.75-5.07,13.12-1.73,17.94a1.73,1.73,0,0,0,3.11-.4C593,737.11,592.52,734.48,592.64,732Z"/><path d="M440.69,305.34c4.84-.15,9.84.17,14.68.35a1.25,1.25,0,0,0,.33-2.45c-5.85-1.3-13.21-3.44-19.13-1.6-4.32,1.35-8.34,5.9-8.73,10.37a1.23,1.23,0,0,0,1.85,1.06C433.72,310.26,435.08,305.52,440.69,305.34Z"/><path d="M447.92,307.64c-3.82.08-8.32.57-11.63,2.66-2.5,1.59-4.65,5.33-3.51,8.27a1.3,1.3,0,0,0,2.15.57c2-1.86,1.81-4.59,4.28-6.17a26.31,26.31,0,0,1,9-3.14C449.46,309.59,449.16,307.61,447.92,307.64Z"/><path d="M446.12,313.12a7.77,7.77,0,0,0-4.74,2c-1.31,1.21-2.63,3.4-1.79,5.21a1.74,1.74,0,0,0,2.29.93c.87-.38,1.27-1.35,1.69-2.14a5.14,5.14,0,0,1,3-2.76C448.24,315.81,448,313,446.12,313.12Z"/><path d="M545,305.4c4.84-.18,9.84-.5,14.68-.35,5.61.18,7,4.92,11,7.73a1.24,1.24,0,0,0,1.86-1.06c-.39-4.48-4.41-9-8.73-10.37-5.91-1.84-13.31.31-19.13,1.6A1.25,1.25,0,0,0,545,305.4Z"/><path d="M564.09,310c-3.3-2.09-7.81-2.58-11.62-2.66-1.23,0-1.55,1.95-.3,2.19a26.08,26.08,0,0,1,9,3.14c2.44,1.57,2.33,4.32,4.28,6.17a1.31,1.31,0,0,0,2.15-.57C568.75,315.33,566.6,311.6,564.09,310Z"/><path d="M554.26,312.83c-1.88-.15-2.13,2.68-.43,3.2a5,5,0,0,1,2.92,2.63,5.11,5.11,0,0,0,1.55,2.18,1.76,1.76,0,0,0,2.5-.84c.81-1.78-.42-3.89-1.69-5.11A7.75,7.75,0,0,0,554.26,312.83Z"/><path d="M405.47,365.55c-10-1.21-22.49,6.65-30.93,11.44-10.51,6-20.1,13.05-28.05,22.17a1.34,1.34,0,0,0,1.9,1.9c9.52-7.58,19.14-15.08,30-20.74,8.8-4.6,20.4-6.21,28.14-12.32C407.59,367.13,406.54,365.68,405.47,365.55Z"/><path d="M404.87,372.84c-7.41-.4-14.95,4-21.36,7.31-7.05,3.67-13.94,7.55-19.84,12.92-1.58,1.44.7,3.59,2.3,2.31,11.88-9.59,26.64-12.51,39.72-19.51C407.19,375.07,406.4,372.92,404.87,372.84Z"/><path d="M402.66,381.09c-4.17-.41-8.68,2.09-12.41,3.82a54.69,54.69,0,0,0-11.75,7.42c-1.26,1,.36,3.06,1.72,2.23a73.76,73.76,0,0,1,13.23-6.18c3.49-1.26,7.57-2,10.31-4.64A1.57,1.57,0,0,0,402.66,381.09Z"/><path d="M400,408.16c-5.44,5-12.52,6.59-19.34,9-8.06,2.82-15.72,5.07-24.38,5.23a.93.93,0,0,0-.25,1.82c10.07,3.06,20.35-1.11,30-4,5.91-1.8,15.55-3,16.83-10.31A1.74,1.74,0,0,0,400,408.16Z"/><path d="M284.43,412.51c-5.21-13.27-8.34-27.28-12-41.05-.38-1.47-2.55-.84-2.26.63,3.27,16.84,7.06,33.83,13.3,49.86,4.34,11.1,10.28,24.08,21.25,30a2.23,2.23,0,0,0,2.69-3.48C297.5,437.19,290,426.7,284.43,412.51Z"/><path d="M304.54,431.65c-5-6.62-9.28-13.73-14-20.52-.8-1.15-3.07-.47-2.45,1a128.28,128.28,0,0,0,12.49,23.7c4.14,6.05,9.23,13.72,16.41,16.1a2.39,2.39,0,0,0,2.67-3.47C315.78,442.23,309,437.61,304.54,431.65Z"/><path d="M319.69,438.84c-1.95-2.16-4-4.24-6-6.28a1.56,1.56,0,0,0-2.44,1.88,70.47,70.47,0,0,0,5.12,7.15c1.73,2.09,3.43,4.61,6,5.62,1.21.46,2.38-.92,2.05-2C323.69,442.64,321.39,440.74,319.69,438.84Z"/><path d="M306.5,379.17c-1.13-1.49-3.69-.11-2.58,1.51,5.19,7.62,9.13,15.95,13.51,24,4.47,8.25,7.68,18.1,13.16,25.61.9,1.24,3.29,1,3.17-.86-.55-8.65-5.83-16.82-10-24.24A230.35,230.35,0,0,0,306.5,379.17Z"/><path d="M276.75,331.15c-11.33,1.72-21.06,7.38-33,5.53C233,335,224.7,327.8,218.6,319.08,207.35,303,202.16,282.78,197.37,264c-.34-1.37-2.67-1.13-2.52.34,2.3,23.13,7.09,48.35,23.35,66.09,15.28,16.67,42.16,19,60.64,5.65A2.72,2.72,0,0,0,276.75,331.15Z"/><path d="M272.29,326.82c1.58-1.3.35-4.55-1.77-4.27-7.68,1-14.22,3.48-22.13,1.5a33.1,33.1,0,0,1-19.68-13.59,1.48,1.48,0,0,0-2.55,1.49C234.18,327.37,256.57,339.71,272.29,326.82Z"/><path d="M291.39,317c2.55-8.65-3.1-18.13-9.6-23.6-11.82-10-28.14-7-34.78-23.86-.74-1.86-3.69-1.16-3.07.84,2.87,9.36,8.46,16.15,17.39,20.38,5.78,2.74,12.06,4.19,16.86,8.67,5.4,5.06,6.16,11.13,8.82,17.57C287.82,319,290.7,319.34,291.39,317Z"/><path d="M293.13,273.53c2.1-14.21-1.64-30.09-2.41-44.4a1.69,1.69,0,0,0-3.37,0c-.11,14.05-1.88,31,2.93,44.4C290.72,274.74,292.9,275.11,293.13,273.53Z"/><path d="M297.73,267.19c.36,3.41.4,6.86,1.74,10.06a1.36,1.36,0,0,0,2.59,0c2.19-7.06-.42-16.7-1.72-23.81-.53-2.92-5-1.68-4.45,1.23C296.65,258.82,297.29,263,297.73,267.19Z"/><path d="M234.32,205.79c1.1,4.47,5.31,9.25,9.66,10.56a1.5,1.5,0,0,0,1.82-1.82c-.56-2.16-1.45-3.16-2.9-4.89-3.42-4.09-4.37-6.94-3.23-12.44s2.84-10,1.13-15.75a1.37,1.37,0,0,0-2.63.73C239.83,190.42,232.26,197.42,234.32,205.79Z"/><path d="M242.42,226.64c-.31-2.56-4.2-2.72-4.13,0a49.93,49.93,0,0,1-.86,9.61,12,12,0,0,0,.06,5.47,9.72,9.72,0,0,0,7.56,6.72A1.71,1.71,0,0,0,247,246c-1.75-2.8-4.59-4.22-4.64-7.83C242.24,234.24,242.89,230.58,242.42,226.64Z"/><path d="M276.76,510.22c-9.46-3.64-20.36-2-30.15-5.52-10.07-3.6-19.8-10-25.52-19.25-5.19-8.38-6.54-18.45-11.78-26.9s-12.54-15.44-19.62-22.35a1.42,1.42,0,0,0-2,2c9.17,10.53,17.64,21.07,22,34.49,3.31,10.05,6.11,18.82,13.92,26.4,12.07,11.73,37.21,22,53.59,14.8C279,513.11,278.17,510.76,276.76,510.22Z"/><path d="M278.23,500.79c-4.68-2.09-10-2.15-15-3-5.66-1-11.34-2.06-17-3.27-1.59-.34-2.86,2.08-1.18,2.8,9.29,4,22.46,9.24,32.7,6.57C279.13,503.53,279.59,501.39,278.23,500.79Z"/><path d="M362.92,490.07a158,158,0,0,0,15.69-6.37c5-2.42,10.64-4.72,14.49-8.79a2,2,0,0,0-1.91-3.29c-5.17,1.11-9.76,4.35-14.33,6.91-5.1,2.87-10,6-15,9.08C360.65,488.39,361.43,490.6,362.92,490.07Z"/><path d="M394.11,530.06c-10.87,5.18-20.21,14.07-30.85,20A222.09,222.09,0,0,1,327,565.65a1,1,0,0,0,.53,1.94A129.92,129.92,0,0,0,366.17,555c10.65-5.4,23.55-12.37,30.35-22.53C397.58,530.88,395.57,529.37,394.11,530.06Z"/><path d="M352.76,551.79c6.61-4.19,13.56-7.84,20.25-11.92,5.87-3.57,12.55-6.81,17.21-11.93a1.62,1.62,0,0,0-1.56-2.69c-6.65,1.9-12.54,6.39-18.29,10.11-6.64,4.31-12.77,9.16-19.06,13.95C349.88,550.39,351.16,552.81,352.76,551.79Z"/><path d="M303.86,584.15c-8,11.11-17.05,21.11-28.63,28.6-10.28,6.65-22.13,9.1-32.59,15a2.25,2.25,0,0,0,1.12,4.16c12.82.3,26.74-8.68,36.55-16.12,10.71-8.12,19.95-18.09,26.3-30A1.59,1.59,0,0,0,303.86,584.15Z"/><path d="M258,619.1c6.35-3.21,11.47-7.49,16.57-12.37,1.14-1.08-.41-3.23-1.72-2.23a90.57,90.57,0,0,1-16.41,9.7c-5.63,2.65-12.41,3.68-17.61,7a1.7,1.7,0,0,0,.85,3.14C245.73,625.12,252.57,621.81,258,619.1Z"/><path d="M208.18,630.1c-6.9-1.26-13.23.76-20,2.34-12.66,3-22.46.57-34.06-4.75-13.44-6.15-27.3-13.18-42-7-1.86.78-1.2,3.76.87,3.14,19-5.7,34.26,9.34,51.34,14.68,14.55,4.56,29.61-.66,43.83-4.28C210.13,633.73,210.3,630.49,208.18,630.1Z"/><path d="M397.34,565.51c-8.16,20.37-26.2,37.39-42.08,52.08-1.26,1.16.41,3.42,1.86,2.41A153.23,153.23,0,0,0,387,592.52c6.08-7.29,15.83-16.79,13.82-27C400.46,563.56,397.93,564,397.34,565.51Z"/><path d="M335.22,645.67c-3.74,11.13-6.88,22.73-12.29,33.2-5.12,9.91-12.85,16.79-19.56,25.39a2,2,0,0,0,2.41,3.12c19.78-10.1,28.85-41,31.85-61A1.25,1.25,0,0,0,335.22,645.67Z"/><path d="M290.58,731.83c2.67,15.46-5.82,27.95-7.3,42.74-.15,1.5,2.12,2,2.79.76,7-13.23,11.62-29.66,8.16-44.51C293.67,728.41,290.18,729.46,290.58,731.83Z"/><path d="M280.49,801.5c0-1.59-2.24-1.5-2.42,0a140.05,140.05,0,0,0-.45,23.79c.41,7.89-.3,15.83.23,23.67a1.37,1.37,0,0,0,2.68.36C285.88,834.82,280.12,816.6,280.49,801.5Z"/><path d="M621.37,380.85c10.82,5.65,20.45,13.16,30,20.74a1.34,1.34,0,0,0,1.9-1.9c-8-9.13-17.55-16.19-28.05-22.17-8.36-4.77-21-12.64-30.93-11.45-1.06.13-2.12,1.59-1,2.46C601,374.64,612.57,376.24,621.37,380.85Z"/><path d="M636.05,393.6c-5.9-5.38-12.79-9.26-19.84-12.92-6.42-3.34-14-7.72-21.36-7.32-1.53.09-2.33,2.23-.82,3,13.08,7,27.84,9.92,39.72,19.5C635.34,397.19,637.63,395,636.05,393.6Z"/><path d="M619.5,395.09c1.34.82,3-1.19,1.72-2.23a54.55,54.55,0,0,0-11.76-7.43c-3.71-1.72-8.24-4.22-12.4-3.82a1.57,1.57,0,0,0-1.1,2.65c2.73,2.61,6.83,3.38,10.31,4.65A72.41,72.41,0,0,1,619.5,395.09Z"/><path d="M643.4,422.89c-8.71-.15-16.28-2.4-24.38-5.23-6.83-2.38-13.89-4-19.34-9a1.74,1.74,0,0,0-2.88,1.67c1.28,7.28,11,8.53,16.83,10.31,9.67,2.93,20,7.11,30,4A.93.93,0,0,0,643.4,422.89Z"/><path d="M695,452.5c11-5.94,16.92-18.93,21.24-30,6.25-16,10-33,13.31-49.86.28-1.46-1.88-2.1-2.26-.62-3.62,13.77-6.76,27.77-12,41.05-5.57,14.25-13,24.63-23,36A2.23,2.23,0,0,0,695,452.5Z"/><path d="M680.09,449a2.39,2.39,0,0,0,2.67,3.48c7.17-2.38,12.29-10.08,16.41-16.1a128.6,128.6,0,0,0,12.49-23.7c.62-1.49-1.64-2.2-2.46-1-4.74,6.8-9,13.91-14,20.53C690.68,438.13,683.93,442.77,680.09,449Z"/><path d="M683.39,442.11a68.3,68.3,0,0,0,5.12-7.15,1.56,1.56,0,0,0-2.44-1.88c-2.07,2.05-4.1,4.12-6,6.29-1.7,1.89-4,3.8-4.73,6.31-.33,1.14.84,2.52,2.05,2.05C680,446.73,681.66,444.21,683.39,442.11Z"/><path d="M695.8,381.21c1.11-1.63-1.45-3-2.58-1.51A230.22,230.22,0,0,0,676,405.75c-4.2,7.44-9.46,15.57-10,24.25-.12,1.85,2.27,2.09,3.17.86,5.48-7.52,8.69-17.36,13.16-25.61S690.61,388.82,695.8,381.21Z"/><path d="M723,331.67a2.72,2.72,0,0,0-2.09,4.95c18.53,13.41,45.29,11,60.64-5.65,16.31-17.63,21.06-43,23.35-66.08.15-1.46-2.17-1.73-2.52-.34-4.79,18.74-10,39-21.23,55.06-5.47,7.8-12.81,14.63-22.22,17.14C746,340.18,735.22,333.54,723,331.67Z"/><path d="M729.2,323.08c-2.1-.28-3.36,2.95-1.77,4.26,15.73,12.91,38.11.56,46.13-14.86A1.48,1.48,0,0,0,771,311a33.09,33.09,0,0,1-19.68,13.58C743.42,326.55,736.88,324.09,729.2,323.08Z"/><path d="M738.39,291.3c8.92-4.23,14.52-11,17.39-20.38.61-2-2.33-2.71-3.07-.85-6.64,16.87-23,13.91-34.78,23.86-6.52,5.49-12.16,14.95-9.6,23.61.69,2.32,3.57,2,4.38,0,2.41-5.86,3.28-11.88,7.89-16.69C725.52,295.73,732.19,294.24,738.39,291.3Z"/><path d="M709.44,274.05c4.81-13.43,3-30.35,2.93-44.39a1.69,1.69,0,0,0-3.37,0c-.78,14.31-4.51,30.19-2.41,44.39C706.82,275.63,709,275.27,709.44,274.05Z"/><path d="M703.83,255.2c.53-2.91-3.92-4.16-4.45-1.23-1.3,7.11-3.91,16.74-1.72,23.8a1.36,1.36,0,0,0,2.59,0c1.35-3.2,1.38-6.63,1.74-10.06C702.43,263.51,703.07,259.35,703.83,255.2Z"/><path d="M755.74,216.87c4.37-1.31,8.56-6.08,9.66-10.55,2.06-8.36-5.5-15.39-3.85-23.62a1.36,1.36,0,0,0-2.63-.72c-1.72,5.73,0,10.16,1.13,15.74,1,4.89.51,7.92-2.57,11.76-1.66,2.07-2.91,3-3.56,5.57A1.49,1.49,0,0,0,755.74,216.87Z"/><path d="M754.67,249a9.68,9.68,0,0,0,7.56-6.72,12.46,12.46,0,0,0,.06-5.47,50,50,0,0,1-.86-9.6c.07-2.72-3.82-2.56-4.13,0-.47,3.93.17,7.6.11,11.48,0,3.62-2.89,5-4.64,7.84A1.7,1.7,0,0,0,754.67,249Z"/><path d="M723,510.74c-1.4.54-2.23,2.9-.48,3.67,16.39,7.22,41.51-3.06,53.59-14.79,7.15-6.94,10.6-15.3,13.42-24.68,4.26-14.18,13-25.19,22.55-36.21,1.19-1.37-.68-3.3-2-2-6.7,6.55-13.57,13.13-18.74,21-5.79,8.83-7.17,19.37-12.66,28.24-5.38,8.72-14.52,15.13-24,18.72C744.37,508.59,732.91,506.92,723,510.74Z"/><path d="M721.89,504.39c10.24,2.67,23.38-2.56,32.7-6.57,1.66-.72.43-3.15-1.18-2.8-5.62,1.21-11.3,2.28-17,3.27-5,.88-10.28.93-15,3C720.13,501.92,720.59,504.05,721.89,504.39Z"/><path d="M621.11,484.22a155.62,155.62,0,0,0,15.69,6.37c1.48.53,2.28-1.67,1-2.45-5-3.12-9.88-6.21-15-9.08-4.57-2.56-9.16-5.8-14.33-6.91a2,2,0,0,0-1.91,3.29C610.47,479.51,616.13,481.81,621.11,484.22Z"/><path d="M672.7,566.18a223,223,0,0,1-36.24-15.63c-10.65-5.9-20-14.78-30.85-20-1.46-.7-3.47.82-2.41,2.41,6.77,10.12,19.76,17.15,30.35,22.52a129.66,129.66,0,0,0,38.61,12.59A1,1,0,0,0,672.7,566.18Z"/><path d="M626.71,540.4c6.69,4.07,13.64,7.72,20.25,11.91,1.6,1,2.88-1.39,1.45-2.48-6.29-4.79-12.42-9.64-19.06-13.94-5.76-3.73-11.64-8.21-18.29-10.12a1.62,1.62,0,0,0-1.56,2.69C614.16,533.58,620.85,536.83,626.71,540.4Z"/><path d="M757.08,628.22c-10.46-5.85-22.3-8.29-32.59-15-11.58-7.48-20.64-17.48-28.63-28.6a1.59,1.59,0,0,0-2.75,1.61c6.35,11.89,15.59,21.87,26.3,30,9.81,7.44,23.73,16.43,36.55,16.12A2.25,2.25,0,0,0,757.08,628.22Z"/><path d="M726.92,605c-1.29-1-2.87,1.14-1.72,2.23,5.09,4.87,10.23,9.17,16.57,12.37,5.37,2.71,12.23,6,18.32,5.24a1.69,1.69,0,0,0,.85-3.13c-5.2-3.33-12-4.36-17.61-7A90.23,90.23,0,0,1,726.92,605Z"/><path d="M887.58,621.21c-14.74-6.18-28.58.87-42,7-10.87,5-20.54,7.84-32.52,5.11-7.21-1.64-14.08-4.06-21.49-2.71-2.12.39-1.95,3.63,0,4.13,14.22,3.63,29.28,8.84,43.83,4.29,17.08-5.35,32.3-20.39,51.34-14.69C888.78,625,889.44,622,887.58,621.21Z"/><path d="M602.38,566c-.59-1.49-3.12-2-3.5,0-2,10.18,7.79,19.78,13.82,27a153.18,153.18,0,0,0,29.9,27.47c1.43,1,3.13-1.23,1.86-2.4C628.58,603.42,610.55,586.41,602.38,566Z"/><path d="M693.94,707.91a2,2,0,0,0,2.41-3.13c-6.69-8.58-14.45-15.5-19.56-25.39-5.41-10.46-8.56-22.07-12.29-33.2a1.25,1.25,0,0,0-2.41.67C665.1,666.94,674.15,697.8,693.94,707.91Z"/><path d="M716.44,775.1c-1.48-14.87-10-27.19-7.3-42.75.4-2.36-3.09-3.42-3.65-1-3.46,14.82,1.13,31.3,8.16,44.51C714.32,777.11,716.59,776.6,716.44,775.1Z"/><path d="M719.19,849.85a1.37,1.37,0,0,0,2.68-.36c.53-7.84-.18-15.78.23-23.67a140,140,0,0,0-.45-23.79c-.18-1.5-2.46-1.6-2.42,0C719.6,817.12,713.84,835.34,719.19,849.85Z"/><path d="M575,202.58c6.27,1.06,12.57,1,18.91,1.21,2.91.1,5.84.39,8.77.54A8.49,8.49,0,0,0,609,210c.15,3.14.47,6.3.58,9.41.22,6.34.15,12.64,1.21,18.91a1,1,0,0,0,1.9,0c1.06-6.27,1-12.57,1.21-18.91.11-3.21.45-6.46.59-9.7a8.51,8.51,0,0,0,5.24-5.35c3.28-.14,6.57-.48,9.82-.6,6.34-.22,12.64-.15,18.91-1.21a1,1,0,0,0,0-1.9c-6.27-1.06-12.57-1-18.91-1.21-3.11-.11-6.26-.43-9.39-.58a8.74,8.74,0,0,0-5.76-7c-.16-2.71-.4-5.41-.5-8.08-.22-6.35-.15-12.65-1.21-18.92a1,1,0,0,0-1.9,0c-1.06,6.27-1,12.57-1.21,18.92-.09,2.58-.33,5.19-.49,7.8a8.7,8.7,0,0,0-6.8,7.32c-2.79.16-5.59.42-8.36.52-6.34.22-12.64.15-18.91,1.21A1,1,0,0,0,575,202.58Z"/><path d="M843.89,752.32c-6.28-1.06-12.58-1-18.92-1.21-3.11-.11-6.25-.43-9.39-.58a8.72,8.72,0,0,0-5.75-7c-.16-2.71-.41-5.41-.5-8.09-.23-6.34-.16-12.64-1.22-18.91a1,1,0,0,0-1.89,0c-1.06,6.27-1,12.57-1.22,18.91-.09,2.59-.32,5.2-.48,7.8a8.7,8.7,0,0,0-6.8,7.33c-2.8.16-5.59.42-8.36.52-6.34.22-12.64.15-18.92,1.21a1,1,0,0,0,0,1.9c6.28,1.06,12.58,1,18.92,1.21,2.9.1,5.84.38,8.77.54a8.46,8.46,0,0,0,6.3,5.7c.14,3.14.46,6.29.57,9.41.23,6.34.16,12.64,1.22,18.91a1,1,0,0,0,1.89,0c1.06-6.27,1-12.57,1.22-18.91.11-3.21.45-6.47.59-9.71a8.52,8.52,0,0,0,5.24-5.34c3.27-.14,6.56-.48,9.81-.6,6.34-.22,12.64-.15,18.92-1.21A1,1,0,0,0,843.89,752.32Z"/><path d="M103.47,522.77c6.27,1.06,12.57,1,18.92,1.21,2.9.11,5.83.39,8.76.54a8.48,8.48,0,0,0,6.3,5.7c.15,3.14.47,6.3.58,9.41.22,6.34.15,12.64,1.21,18.91a1,1,0,0,0,1.9,0c1.06-6.27,1-12.57,1.21-18.91.12-3.21.45-6.46.59-9.7a8.48,8.48,0,0,0,5.24-5.35c3.28-.14,6.57-.48,9.82-.6,6.34-.22,12.64-.15,18.91-1.21a1,1,0,0,0,0-1.9c-6.27-1.06-12.57-1-18.91-1.21-3.11-.11-6.26-.43-9.39-.57a8.74,8.74,0,0,0-5.76-7c-.16-2.7-.4-5.41-.5-8.08-.22-6.34-.15-12.65-1.21-18.92a1,1,0,0,0-1.9,0c-1.06,6.27-1,12.58-1.21,18.92-.09,2.58-.32,5.19-.49,7.8a8.68,8.68,0,0,0-6.79,7.32c-2.8.16-5.6.42-8.36.52-6.35.23-12.65.15-18.92,1.21A1,1,0,0,0,103.47,522.77Z"/><path d="M439.67,747.86c-6.27-1.06-12.57-1-18.91-1.21-3.11-.11-6.25-.43-9.39-.58a8.76,8.76,0,0,0-5.75-7c-.17-2.7-.41-5.4-.51-8.08-.22-6.34-.15-12.64-1.21-18.91a1,1,0,0,0-1.9,0c-1.06,6.27-1,12.57-1.21,18.91-.09,2.58-.32,5.19-.48,7.8a8.69,8.69,0,0,0-6.8,7.33c-2.8.16-5.6.42-8.36.52-6.34.22-12.65.15-18.92,1.21a1,1,0,0,0,0,1.9c6.27,1.06,12.58,1,18.92,1.21,2.9.1,5.84.38,8.77.54a8.46,8.46,0,0,0,6.3,5.7c.14,3.14.46,6.29.57,9.4.23,6.34.15,12.65,1.21,18.92a1,1,0,0,0,1.9,0c1.06-6.27,1-12.58,1.21-18.92.12-3.21.46-6.46.59-9.7a8.5,8.5,0,0,0,5.25-5.35c3.27-.13,6.56-.48,9.81-.59,6.34-.23,12.64-.15,18.91-1.21A1,1,0,0,0,439.67,747.86Z"/><path d="M370.67,248A16.93,16.93,0,1,0,353.74,231,16.94,16.94,0,0,0,370.67,248Zm0-28A11.11,11.11,0,1,1,359.56,231,11.13,11.13,0,0,1,370.67,219.93Z"/><path d="M467.49,209.9A16.93,16.93,0,1,0,450.56,193,16.94,16.94,0,0,0,467.49,209.9Zm0-28A11.12,11.12,0,1,1,456.38,193,11.13,11.13,0,0,1,467.49,181.86Z"/><path d="M814.15,550.68a16.93,16.93,0,1,0,16.93,16.92A16.94,16.94,0,0,0,814.15,550.68Zm0,28a11.12,11.12,0,1,1,11.11-11.12A11.13,11.13,0,0,1,814.15,578.72Z"/><path d="M851.71,358.38a16.93,16.93,0,1,0-16.93-16.92A16.94,16.94,0,0,0,851.71,358.38Zm0-28a11.12,11.12,0,1,1-11.11,11.12A11.13,11.13,0,0,1,851.71,330.34Z"/></svg>