<svg id="Layer_1" data-name="Layer 1" xmlns="http://www.w3.org/2000/svg" viewBox="0 0 1000 1000"><defs><style>.cls-1{fill:#faf7ec;}.cls-2{fill:#563014;}.cls-3{fill:#bd8a6c;}.cls-4{fill:#d5934b;}</style></defs><title>Taurus</title><path class="cls-1" d="M361.54,526.71a4.31,4.31,0,0,1-4.48,2.94,22.1,22.1,0,0,1-8.65,1.62A22.79,22.79,0,0,1,329,520.14c-7-11.94-3.31-34.3,9.68-40.81a76.08,76.08,0,0,0-43.35-18.7c-2.57,20.11,5.66,46.16,15.81,62.61,11.84,19.2,33.81,32,56.27,23.89q-2.57-10.46-5.38-20.93C361.88,526.38,361.71,526.54,361.54,526.71Z"/><path class="cls-1" d="M671.31,460.63A76,76,0,0,0,628,479.33c13,6.51,16.69,28.88,9.68,40.81a22.78,22.78,0,0,1-20.5,11.08,21.78,21.78,0,0,1-7.58-1.57,4.3,4.3,0,0,1-4.45-2.91,6.39,6.39,0,0,1-.5-.54q-2.83,10.45-5.38,20.93c22.46,8.09,44.43-4.69,56.27-23.89C665.66,506.77,673.88,480.76,671.31,460.63Z"/><path class="cls-2" d="M391.88,258.87c-4.83,18.33-14.54,34.86-17.16,53.6l20.91-8.42c3.34-1.35,6.27,2,6.49,4.95q3.21,41.82,7.25,83.58c5.25-7.95,11.13-15.38,18.68-21.51,2.93-2.37,7.44-1.73,8.58,2.27a1053.44,1053.44,0,0,1,27.84,127.47C491,466,494.55,423.64,495.38,380.47c-.09-.35-.2-.7-.28-1.06a5,5,0,0,1,.78-4.06c2-4.42,9.92-3.72,9.82,2.09l0,1.81c3.63,13.36,12.7,24.13,19.66,36,3-22.62,7.08-45.1,12.31-67.33,1.55-6.58,2.37-23.69,11.63-25.16,4.12-.66,7.68,1.46,10.59,4.59a371.29,371.29,0,0,0,5.7-47.29c.48-8.62,1.7-18.4,8.74-21.59A241.69,241.69,0,0,0,557,220.7c-1.53-2.71-.25-6.87,3.07-7.54l4.68-.94c-37-19.88-79.24-36.19-121.32-25.26-20.56,5.35-39.39,20.07-54.17,34.8a121.48,121.48,0,0,0-14.7,17.5c-.27.39-.54.81-.82,1.25C385.11,241.45,395.81,244,391.88,258.87Zm19.18,90.94c-.32-15,3.61-30.68,5.43-45.6.26-2.16,3.55-2.3,3.49,0-.39,14.91-.2,31.86-5.06,46.12A2,2,0,0,1,411.06,349.81Zm16.83-17.27c-1.54,12.78-2.32,26.65-6.32,38.9-.76,2.34-4.33,2-4.33-.59,0-12.28,3-24.9,4.76-37.05,2.09-14.57,4.27-29.14,6-43.76.3-2.52,4.24-2.6,4,0C430.76,304.22,429.59,318.4,427.89,332.54Zm8.1-104.4c-7,22.94-11,47.42-19.75,69.74-.86,2.2-4.81,2.16-4.49-.6,2.77-24,12.74-47.53,21-70C433.48,225.24,436.64,226,436,228.14Zm7.52,136.06c-.31,1.95-3.5,1.88-3.87,0-3.13-15.83-1.44-34-.24-50a196.52,196.52,0,0,1,9.8-48.69c.69-2,3.86-1.2,3.24.9-4.93,16.79-7,34.13-7.83,51.58C443.88,333.19,445.92,349.19,443.51,364.2Zm29.74,111.61c-.37,2.18-4,2.14-4.37,0-2.45-13.25-2.65-26.41-6.76-39.41-3.65-11.57-7.3-22.73-9-34.79-3.61-25.17-1.33-50.08,1.82-75.15.22-1.81,3-1.93,2.92,0-.93,26.33-2.81,53.4,1.84,79.48C463.77,429,477.28,451.83,473.25,475.81Zm.58-35.19c-9.34-28.67-11.5-62.27-10.5-92.22,1-28.59,6.52-57.68,19.33-83.4.85-1.72,3.83-.47,3.11,1.31A240.14,240.14,0,0,0,468.3,352.1c-.54,30,6.05,58.49,8.76,88.08C477.24,442.12,474.38,442.29,473.83,440.62ZM480.6,415c-7.25-28-8.24-60.73-3.16-89.1.46-2.57,4.25-1.44,3.87,1.06a199.42,199.42,0,0,0-1.39,45.35c1.1,14.06,4.15,28.08,4.58,42.16C484.57,416.68,481.15,417.09,480.6,415Zm7.09-14.62c-6.07-21.5-4.69-47.08-2.31-69,.14-1.33,2.16-1.4,2.13,0-.31,11.45-.53,23,.06,34.41s2.72,22.83,2.84,34.26A1.39,1.39,0,0,1,487.69,400.33Zm14.21-34.74a2.13,2.13,0,0,1-4.17.57c-4.73-15.54-2.83-34.37-1.85-50.39.12-2.07,3.24-2.1,3.24,0C499.17,332.27,502.79,349.24,501.9,365.59ZM511,389.74c-7.6-23.77-.3-51.11-3.87-75.67-.39-2.66,3.62-3.85,4.1-1.13a203.55,203.55,0,0,1,2.52,36.5c-.09,13.3,1.17,26.51,1.22,39.76C515,391.55,511.69,391.87,511,389.74Zm13.79,4c-.21,1.87-2.87,2.48-3.43.46-5.27-19-2.84-41.92-1.36-61.36,1.58-20.71,5.53-40.43,10.71-60.51.37-1.44,2.49-.82,2.2.6a469.45,469.45,0,0,0-7.73,61.87C524,354.27,526.91,374.41,524.8,393.7Zm9-36.66a1.74,1.74,0,0,1-3.48,0c-2-16.9,1.17-34.35,4.19-51,.34-1.86,3.55-1.42,3.31.45C535.61,323.31,535.94,340.27,533.79,357Zm13-48.4c.11,4.64.91,9.27.29,13.88-.26,1.91-2.78,1.33-3.33,0-3.65-8.85-1.41-20.87.37-30,.38-1.9,3.61-1.46,3.39.46A115.12,115.12,0,0,0,546.79,308.64ZM559,257c.83,10.45-.33,20.68-1.53,31.06s-.73,20.26-.64,30.68c0,2.39-3.08,2.45-3.86.52-7.67-18.94,2.82-42.63,2.26-62.26C555.11,254.57,558.76,254.64,559,257Zm-2.6-24.95c1,2,.43,3.81.13,5.9a70.81,70.81,0,0,0-.64,7.84,2.09,2.09,0,0,1-4.17,0,64.22,64.22,0,0,1,.14-8c.2-2.19.23-4.55,1.92-6.11A1.68,1.68,0,0,1,556.35,232.07Zm-6-12.78c1.17-1,3.17-.09,2.69,1.56-1.19,4.06-4,7.64-5.92,11.43a95.56,95.56,0,0,0-5.74,14.36c-.74,2.36-4.39,1.37-3.72-1a99,99,0,0,1,5-13.88C544.54,227.52,546.72,222.27,550.32,219.29Zm-2.67-6.59c-3.1,7-7.92,13.25-11.52,20a201.34,201.34,0,0,0-10.5,23.43c-.75,2-3.91,1.2-3.25-.89,4.74-15,11.19-33.37,22.53-44.68C546.41,209.09,548.41,211,547.65,212.7Zm-11.18-6.92a1.51,1.51,0,0,1,2.36,1.82c-5.7,11.78-14.61,21.86-20.39,33.78a166.89,166.89,0,0,0-13.27,40.19c-.43,2.17-3.65,1.23-3.28-.9a169,169,0,0,1,12-40C519.23,228.69,526,214.16,536.47,205.78Zm-9.91-8a2,2,0,0,1,2.67,2.66c-2.49,4-6.18,7.22-9.21,10.84a151.36,151.36,0,0,0-9.94,13.17c-1.49,2.23-5,.23-3.64-2.13C511.4,213.88,517.89,202.9,526.56,197.81ZM516,193.59c1.45-.73,3.5.85,2.42,2.41-3.78,5.43-9.2,9.71-13.31,15a109,109,0,0,0-11.54,18.42c-.77,1.54-3.39.44-2.79-1.17C495.39,216.05,503.82,199.7,516,193.59Zm-12-1.49c1.55-.87,3.84,1,2.63,2.64-5.77,7.77-13,14-18.15,22.37a105.53,105.53,0,0,0-12,29.16c-.55,2.15-3.57,1.19-3.25-.9C476.21,226.44,486.49,202,504.05,192.1Zm-16.9-1.93c1.47-1.08,3.08,1,2.34,2.33-2.53,4.71-6.52,8.56-9.69,12.84a55.07,55.07,0,0,0-8.22,15.21,1.69,1.69,0,0,1-3.25-.9C471.18,208.83,478,196.91,487.15,190.17Zm-13.7-1.84c1.51-1.05,3,.93,2.31,2.31-1.4,2.94-3.9,5.3-5.82,7.9a32.89,32.89,0,0,0-4.87,9.15c-.72,2.17-4.07,1.28-3.45-.95C463.47,200.16,467.72,192.31,473.45,188.33Zm-18.63,7.87a69.54,69.54,0,0,1,4-5.92c1.31-1.74,2.64-3.65,4.66-4.61,1.15-.54,2.81.37,2.33,1.79-.69,2.06-2.17,3.61-3.46,5.32s-2.62,3.67-3.8,5.58C457.08,200.71,453.39,198.57,454.82,196.2Zm-11.3-1.27c2.37-3.31,4.94-8.13,9-9.3a1.3,1.3,0,0,1,1.63,1.24c-.47,4.28-4.54,7.79-7,11.16-3.16,4.32-6.2,8.71-9,13.25a2,2,0,0,1-3.46-2A135.69,135.69,0,0,1,443.52,194.93Zm-15.14,5.54c1.39-1.82,2.82-3.61,4.32-5.35s2.94-3.48,5.07-4.22a1.92,1.92,0,0,1,2.34,2.35c-.72,2-2.38,3.47-3.83,5s-3,3.25-4.41,4.93C430.25,205.1,426.85,202.46,428.38,200.47Zm-6.14,34.13c-4.81,21.62-11.61,46.15-25.22,64.09a2.41,2.41,0,0,1-4.16-2.43c9-21,20.07-40.25,26.29-62.52A1.6,1.6,0,0,1,422.24,234.6Zm-20.05-3.7-2.85,6.64c-.87,2-1.59,4.3-3.14,5.88-1,1-3.21.33-3.05-1.26.24-2.26,1.45-4.23,2.47-6.24,1.15-2.28,2.32-4.55,3.49-6.82C400.18,227,403.07,228.84,402.19,230.9ZM404.61,246A1.77,1.77,0,0,1,408,247c-1.64,7.45-3.47,15.84-8.09,22.07a1.68,1.68,0,0,1-3.05-1.28C398.39,260.32,402.17,253.22,404.61,246ZM387,240.13c-.47-6.2,5.1-13.68,8.7-18.39a58.1,58.1,0,0,1,16.39-14.49c1.91-1.15,3.38,1.64,1.7,2.91a70.46,70.46,0,0,0-15.39,15.73c-3.33,4.74-4.88,11.24-8.8,15.32A1.54,1.54,0,0,1,387,240.13Z"/><path class="cls-3" d="M283.17,765a11.78,11.78,0,1,0,11.77,11.78A11.79,11.79,0,0,0,283.17,765Z"/><path class="cls-3" d="M342.4,489.61c0-.13,0-.26,0-.39-.19.12-.36.28-.54.42A4.71,4.71,0,0,1,342.4,489.61Z"/><circle class="cls-3" cx="778.83" cy="495.17" r="11.77"/><circle class="cls-3" cx="194.83" cy="398.24" r="11.77"/><path class="cls-3" d="M420,862a48.74,48.74,0,0,1-14.17-5.54c2,18.74,7.76,35.64,23.07,47.86,8.28,6.61,18.27,12.64,29,13.61,8.12.73,16.65-.26,24.79-.49a4.67,4.67,0,0,0,1.22,0c9.11.26,18.82,1.51,27.82,0,9.61-1.63,18.46-7.09,26-13.1,15.4-12.29,21.11-29.42,23.11-48.27-8.26,4.61-17.5,6.67-28.33,8.23C495.94,869.56,456.28,869.83,420,862Zm13.34,30.61c7.48,3,16.16.11,23.74,2.9,1.59.59,1.87,3,0,3.52-4.68,1.16-9.69.34-14.44,0a29.39,29.39,0,0,1-10.94-2.52C429.53,895.45,431.11,891.72,433.33,892.61ZM441.6,902c4.26,0,9.56-.67,13.63.75,1.14.4,1.71,2.26.37,2.86-4.34,1.94-10,1.09-14.55.45C438.69,905.7,439.35,902,441.6,902Zm18.54,11.1c-3.24,1.36-7.42.53-10.77,0-2.93-.45-1.65-4.8,1.21-4.41,3.14.43,6.53,0,9.56.88C462,910.11,461.72,912.41,460.14,913.07Zm1.91-22.4c-14.08,3.12-30.74.19-42.81-7.53a1.67,1.67,0,0,1,1.68-2.88c13.44,6.19,27.19,3.57,41.13,6.08C464.25,886.73,464.15,890.21,462.05,890.67ZM477.81,879c-19,4.22-42.05,1.55-59-8.19-1.86-1.07-.22-3.62,1.64-2.81,19,8.24,37.19,4.68,56.85,7.1C479.33,875.36,480.18,878.48,477.81,879Zm40.38,34.21c-3.35.52-7.53,1.35-10.77,0-1.58-.66-1.87-3,0-3.51,3-.91,6.42-.46,9.56-.89C519.84,908.42,521.11,912.77,518.19,913.22Zm8.32-7.05c-4.58.64-10.21,1.49-14.55-.45-1.33-.6-.76-2.47.37-2.86,4.06-1.42,9.37-.73,13.63-.75C528.24,902.1,528.85,905.84,526.51,906.17Zm9.36-9.53a29.63,29.63,0,0,1-10.94,2.52c-4.74.36-9.76,1.17-14.43,0-1.88-.47-1.59-2.93,0-3.52,7.57-2.79,16.25.1,23.73-2.9C536.48,891.85,538,895.6,535.87,896.64Zm12.46-13.36a59.13,59.13,0,0,1-42.82,7.53c-2.09-.46-2.19-3.94,0-4.33,14-2.51,27.69.11,41.14-6.08A1.67,1.67,0,0,1,548.33,883.28Zm.44-12.32c-17,9.74-40,12.41-59,8.19-2.38-.53-1.5-3.65.53-3.9,19.66-2.42,37.88,1.14,56.85-7.1C549,867.34,550.63,869.89,548.77,871Z"/><path class="cls-3" d="M624.22,489.22c0,.13,0,.26,0,.39l.53,0A5.7,5.7,0,0,0,624.22,489.22Z"/><path class="cls-3" d="M632,367.11a1,1,0,0,1,0-1.89c10-.25,20-.79,30-.84,5.1,0,10.12-.33,15,.7l-4-11.71c-8.73,1-17.41,1.73-25.84,2.22-27,1.56-58.9,3.74-83.68-9.26a5.74,5.74,0,0,1-6.18-3.59,18,18,0,0,0-5.24-8.44q-1.2-2.54-1.29,3.18c-1.41,4.23-2.2,8.79-3.22,13.13q-3.09,13.14-5.67,26.42c-3.72,19.14-6.56,38.41-8.66,57.8-.58,5.37-8.71,7.42-10.08,1.36-3-13.05-11.26-23.53-18.22-34.67-2.28,42-10.24,82-40.14,114.94-2.39,2.64-8,1.57-8.58-2.26a1052.21,1052.21,0,0,0-27.22-130c-7.54,7.86-13.22,17.11-18.78,26.63-2.76,4.72-9.09,2.22-9.57-2.59q-2.85-28.49-5.3-57a343.14,343.14,0,0,1-101.57,1.82q-2.07,6-4.14,12.11c5.15-1.29,10.5-1,15.93-.94,10,0,20,.59,30,.84a1,1,0,0,1,0,1.89c-15.75.91-31.54,2.46-47.33,2.25-20.86,61.28-40.79,125.9-23,190.19,9.26,33.39,26.29,64,44.76,93.06s38.86,56.71,63.44,80.92c5.47-9.6,13.62-16.68,25.13-18.14-7.88-45.21-14.35-90.69-23.79-135.6-3.21,1.42-10.34-1.27-12.45-1.95a1.83,1.83,0,0,1,1-3.52c3.1.53,6.13.29,9.24.53a8.8,8.8,0,0,1,1.21.17c-.25-1.19-.51-2.39-.77-3.58-21.18,2.41-44-3.6-59.56-18.2-1.57-1.47.72-3.67,2.32-2.33,16.48,13.83,35.77,12.94,55.65,13.43-.51-2.25-1-4.51-1.55-6.76,0-.1-.05-.2-.07-.29-24.31,8.59-49.48-3.54-64.05-23.54-8.16-11.21-13.24-24.41-16.46-37.82s-6.13-28.15-3.2-42a5.18,5.18,0,0,1,4.95-3.77,86.8,86.8,0,0,1,51.35,19.08c-9.5-19.68-23.47-36.81-42.38-48.33-5.64-3.43-.47-12.31,5.19-8.86,45.85,27.93,59.5,82.53,71.78,131.3,15.42,61.25,23.11,124,34.52,186.08,1.19,6.47-8.71,9.22-9.9,2.73q-.62-3.35-1.21-6.7c-19.42,2.24-25.58,28.88-26.2,45.23-.67,17.75,4.42,35.09,13.3,50.36,9.62,16.51,21,28.8,40.4,32.09,18.73,3.17,37,3.68,55.9,4a293,293,0,0,0,54.93-4c19.36-3.3,30.78-15.62,40.4-32.09,8.88-15.21,14-32.66,13.3-50.36-.67-16.37-6.72-43-26.19-45.23q-.6,3.36-1.21,6.7c-1.2,6.5-11.09,3.73-9.9-2.73,11.41-62,19.1-124.83,34.52-186.08,12.28-48.77,25.93-103.37,71.78-131.3,5.67-3.45,10.82,5.43,5.18,8.86-18.89,11.52-32.89,28.65-42.38,48.33a86.8,86.8,0,0,1,51.35-19.08,5.16,5.16,0,0,1,4.95,3.77c3.05,14.33-.11,29.68-3.63,43.69-3.22,12.79-8.22,25.36-16,36.08-14.57,20-39.74,32.13-64,23.54,0,.09-.05.19-.07.29-.54,2.31-1.06,4.62-1.59,6.93,20.22-.55,39.86.59,56.61-13.45,1.6-1.35,3.89.85,2.33,2.32-15.8,14.82-39.06,20.8-60.5,18.1l-.87,4a8.46,8.46,0,0,1,2.67-.51,74.4,74.4,0,0,0,8.82-.51,1.83,1.83,0,0,1,1,3.52c-2.29.74-10.75,3.93-13.3,1.4-9.49,45-16,90.65-23.86,136,11.78,1.4,20,8.29,25.4,17.89,24.87-24.56,45.46-52.65,64.11-82.14,18.1-28.64,34.7-58.74,43.81-91.56,17.82-64.25-2.06-128.81-22.9-190C663,369.51,647.46,368,632,367.11ZM292.52,374c6.27-2.35,13.58-1.61,20.15-1.57,2.63,0,2.53,3.79,0,4-6.55.58-13.71,1.9-20.15.07A1.31,1.31,0,0,1,292.52,374Zm-15.94,46.74a58,58,0,0,1,13.2-1.36c2.19.09,2.87,3.55.54,4A58.08,58.08,0,0,1,277,424C275.24,423.9,274.7,421.08,276.58,420.74Zm-13.94,51.72a22.77,22.77,0,0,1,6.85-9.45c2.8-2.3,6.6-5.29,10.34-5.46a2,2,0,0,1,1.69,3c-1.87,2.65-5.22,3.88-7.82,5.73a20.55,20.55,0,0,0-7.13,7.88C265.51,476.3,261.78,474.72,262.64,472.46Zm3.2,28.85c-.82,2.49-4.71,1.45-3.95-1.09,2.91-9.57,7.48-29.59,19.18-32.3a1.71,1.71,0,0,1,1.9,2.47c-2.29,4.68-6.86,8.19-9.59,12.78C270,488.87,267.91,495.05,265.84,501.31ZM373.18,713.4a2.08,2.08,0,0,1-3.24,2.51c-13.28-11.3-21-28.17-33.48-40.38-9.32-9.14-21.23-17.68-25.15-30.67a1.19,1.19,0,0,1,2.16-.92c8.07,13.61,21.4,20.32,32,31.46C355.64,686.12,367.12,700,373.18,713.4ZM367,660c-.14-2.29,3.65-2.81,4-.54,1,6,1.08,11.41-.87,17.27-.59,1.77-3.42,1.54-3.35-.45C367,670.91,367.33,665.41,367,660Zm-8.11-22.71c-.55-2.77,3.61-4,4.26-1.18,2.46,10.67,4.27,25.83-1.75,35.61a1.44,1.44,0,0,1-2.66-.72c-.16-5.3,1.47-10.53,1.67-15.86A77,77,0,0,0,358.89,637.31Zm-5.72-17.5c3,12.88,6.21,29.46,2.1,42.33-.36,1.12-2.35,1.38-2.55,0-.87-6-.18-12.11-.51-18.19a127.29,127.29,0,0,0-3.64-22.87C347.84,618.09,352.47,616.82,353.17,619.81Zm-12.59-12.69c5.26,14,9.92,32.44,5.75,47.3-.67,2.39-4,1.73-4.14-.56-.54-7.25.43-14.48-.21-21.77a101.83,101.83,0,0,0-5.26-23.9C335.88,605.71,339.69,604.74,340.58,607.12Zm-14.49-14.68c7.59,15.89,12.71,34.12,10,51.83-.36,2.37-3.73,1.53-3.9-.53-1.4-17.13-2.9-33.14-9.75-49.15C321.36,592.13,324.89,589.94,326.09,592.44Zm-12.61-12.17c7.66,16.58,12.51,37.25,10.22,55.56a1.79,1.79,0,0,1-3.57,0c-1.76-19-3.94-35.91-10.24-54.05C309.16,579.68,312.55,578.26,313.48,580.27ZM301.86,573c7.69,14.63,11,32.31,9.75,48.76-.12,1.68-2.74,2.27-3.11.42-3.19-16.14-2.74-31.94-10.27-47.06C297,572.75,300.6,570.63,301.86,573Zm-8.18.7c4,9.73,8.34,21.45,7.5,32.17-.15,2-3,2.58-3.62.49-2.92-10.47-3.69-21.33-7.09-31.78C289.79,572.53,292.89,571.82,293.68,573.74ZM285,570.07c3.74,6.8,7.19,15.13,6.06,23-.22,1.53-2.43,1.24-2.82,0-2.29-7.21-3.19-14.12-6.87-20.91C280.08,569.81,283.71,567.69,285,570.07Zm35.17-121.9c1.69,1.27.17,4.11-1.7,2.91-6.38-4.12-14.84-6.41-22.33-7.95-8.12-1.68-15.09,1.21-23,2.18-2.17.26-2.73-2.95-1.06-3.93C287.63,432.21,306.62,438,320.18,448.17ZM300.65,431a1.49,1.49,0,0,1-.78,2.87,77.3,77.3,0,0,0-14.19-.4c-4.21.21-8.37,1.29-12.59,1.18a2,2,0,0,1-1-3.77C280.57,426.11,291.9,428.07,300.65,431Zm46.15,4c-7.77-8.13-14.24-17.4-22.17-25.46a202.71,202.71,0,0,0-27.94-23.71c-1.77-1.24-.17-4.11,1.72-2.94,19.55,12.13,41.08,28.6,51.67,49.58C351.11,434.49,348.5,436.74,346.8,435Zm15.59-71.06c-1.43,0-1.35-2,0-2.17,7.57-.88,16.58-3.46,24.14-1.93,1.44.29,1.18,2.25,0,2.67C379.3,365,370,363.71,362.39,363.9Zm22.82,7.89a24.4,24.4,0,0,1-9.67.07c-2.42-.38-1.39-4.07,1-3.68,2.73.45,5.54.6,8.29.89C386.3,369.23,386.84,371.42,385.21,371.79Zm5.94,218.09c-4.31-14.24-5.72-29.54-8.78-44.11s-6.19-29.39-10-43.95a1.33,1.33,0,0,1,2.56-.71c4.75,14.91,9.33,30,12.69,45.24,3.09,14,6.9,28.66,6.88,43.07A1.71,1.71,0,0,1,391.15,589.88Zm76.61,18.66q.18-30.37.71-60.73a1.75,1.75,0,0,1,3.49,0q.57,30.38.72,60.73c.11,20,1.68,40.8-.37,60.73a2.09,2.09,0,0,1-4.18,0C466.08,649.32,467.65,628.59,467.76,608.54Zm-12.17-53.69c0-3,4.58-3,4.61,0,.27,26.6,2.73,54.54-.48,81a1.83,1.83,0,0,1-3.65,0C452.86,609.39,455.33,581.45,455.59,554.85Zm-19.27-114c6.18,24.7,13.32,51.4,13,77,0,1.72-2.63,2.13-3,.41-5.91-25.1-7.63-51.33-12.81-76.67C433.12,439.79,435.86,439,436.32,440.85Zm11.54,164.61a1.41,1.41,0,0,1-2.81,0c-1.37-15-.88-30.25-.82-45.33,0-2.87,4.44-2.86,4.45,0C448.74,575.21,449.23,590.43,447.86,605.46ZM442,538.59c0,1.7-2.67,2.16-3,.41-3.27-15.63-4.29-31.71-6.93-47.47s-5.73-31.6-8.9-47.33a1.39,1.39,0,0,1,2.67-.74C434.6,473.42,442.7,507.17,442,538.59ZM425.67,399.17c2.84,8.76,5.63,17.91,6,27.18.07,1.74-2.41,1.92-2.92.39-2.85-8.66-4-17.93-5.59-26.88A1.3,1.3,0,0,1,425.67,399.17Zm-5.79,13.49c2.05,4.83,4.21,10.11,4.19,15.44a1.35,1.35,0,0,1-2.64.36c-1.81-4.58-2.75-9.41-4.71-14C415.8,412.36,419,410.51,419.88,412.66Zm27.68,348c8,5.66,16.93,13.41,19.79,23.07a1.64,1.64,0,0,1-2.71,1.58c-6.36-5.67-11.49-12.55-18.05-18.08-9-7.63-18.45-9.65-30-9.67-2.25,0-2.18-3.27,0-3.45C428.07,753.13,437.87,753.78,447.56,760.65ZM395.63,607.76c-.4-2.43,3.24-3.52,3.75-1C406,639.33,414.32,673,416.23,706.3c0,.59-.82.65-1,.14C405.22,674.77,401,640.46,395.63,607.76ZM384.08,757.31c.16-6.76,5.1-14.63,10.79-18.12,1.65-1,3.21,1.25,2,2.59a30.19,30.19,0,0,0-5.14,8.09c-1.26,2.77-1.9,6-3.67,8.52C386.9,760,384,759.58,384.08,757.31Zm36.59,83.89c-5.17-4-.05-12.89,5.18-8.86,6.57,5,15.09,10.32,22.35,3.32.18-.17.32-.37.49-.55-12.5-4.07-22.73-13.39-30.37-24-6-8.38-15-24.09-14.66-36-10.13,5.57-4.11,24.45,1.76,32.06,4,5.24-4.89,10.35-8.87,5.18-9.62-12.49-14.48-38.11,2.82-46.56,15.52-7.58,40.07,3.8,51,15.49,12.21,13.1,17.21,34.3,11.38,51.39C455,852.35,435.38,852.53,420.67,841.2Zm45.92,2.28a2.36,2.36,0,0,1-3.68-2.85c2.16-4.9,4.54-9.14,5.5-14.51a104.79,104.79,0,0,0,1.2-17.79c0-1.8,3-2.31,3.23-.44C474.42,819.14,476.75,835.27,466.59,843.48ZM483.16,638c.16,31.77,1.32,63.78-1,95.49a1.37,1.37,0,0,1-2.73,0c-2.33-31.71-1.18-63.72-1-95.49s-1.85-63.87.7-95.5a1.69,1.69,0,0,1,3.37,0C485,574.16,483,606.32,483.16,638Zm42.46-163.7c-.42,22.49-.72,46.38-7,68.16a1.69,1.69,0,0,1-3.31-.45c.53-22.58,5.12-45.23,7.28-67.71C522.8,472.44,525.66,472.36,525.62,474.33Zm-5.23,95.09a.05.05,0,1,1,0-.1A.05.05,0,0,1,520.39,569.42Zm-5.28,14.92a1.77,1.77,0,0,1-3.53,0c-1.12-8.39-.51-17.08-.48-25.53,0-2.89,4.48-2.89,4.49,0C515.62,567.26,516.23,576,515.11,584.34Zm.43-125c-.92,24,.08,49.93-4.87,73.52-.46,2.14-3.44,1.44-3.59-.49-1.85-23.83,2.48-49.27,4.65-73C511.94,457,515.63,456.89,515.54,459.37Zm-9.73,145.21a1.27,1.27,0,0,1-2.53,0c-1.57-16.35-.71-32.89-.48-49.29a1.75,1.75,0,0,1,3.49,0C506.52,571.69,507.38,588.23,505.81,604.58Zm1.4-175.14c.27-1.75,3.08-1.29,3,.41-.52,18.65-1.58,37.95-5.23,56.28-.32,1.58-2.69,1.14-2.72-.37C502,467.08,504.41,447.89,507.21,429.44Zm-7,354.42c2.85-9.63,11.82-17.44,19.79-23.07,9.65-6.82,19.55-7.51,31-6.55,2.18.18,2.25,3.44,0,3.45-11.6,0-21,2-30,9.67-6.56,5.53-11.69,12.41-18,18.08A1.64,1.64,0,0,1,500.21,783.86Zm-7.57-94.35c-2.44-22.44-.88-45.65-.71-68.21.17-22.74.5-45.47.83-68.21a1.67,1.67,0,0,1,3.33,0c.33,22.74.65,45.47.83,68.21.17,22.55,1.72,45.77-.71,68.21A1.79,1.79,0,0,1,492.64,689.51ZM501,843.62c-10.16-8.21-7.83-24.34-6.25-35.59.27-1.88,3.23-1.34,3.24.44a104.79,104.79,0,0,0,1.19,17.79c1,5.37,3.35,9.64,5.5,14.52A2.35,2.35,0,0,1,501,843.62ZM572.7,739.34c5.68,3.48,10.62,11.34,10.78,18.12,0,2.26-2.82,2.68-4,1.07-1.78-2.5-2.42-5.74-3.68-8.52a30,30,0,0,0-5.14-8.09C569.47,740.57,571.06,738.33,572.7,739.34Zm-4.12,27c15.93,9.15,10.76,34,1.5,46-4,5.17-12.89,0-8.86-5.18,6.31-8.19,11.48-25.83,1.78-31.66.15,11.87-8.72,27.33-14.68,35.61-7.71,10.7-18.05,20.08-30.69,24.09a10.68,10.68,0,0,0,2.61,2.41c7,4.43,15-1,20.55-5.27,5.23-4,10.34,4.89,5.18,8.86-15.45,11.9-35.19,10.56-41.46-9.89-5.16-16.81-.13-37.25,11.78-50C527.36,769.41,553,757.45,568.58,766.38Zm3.36-158.48c-5.38,32.71-9.59,67-19.62,98.68-.17.52-1,.45-1-.13,1.92-33.31,10.21-67,16.85-99.59C568.69,604.38,572.33,605.47,571.94,607.9ZM595.19,502c-3.81,14.56-6.9,29.23-10,43.95-3.05,14.56-4.47,29.88-8.78,44.11a1.71,1.71,0,0,1-3.35-.45c0-14.4,3.79-29.09,6.88-43.08,3.38-15.28,7.94-30.33,12.7-45.24A1.32,1.32,0,0,1,595.19,502ZM582.72,369.22c2.75-.3,5.56-.45,8.29-.9,2.41-.39,3.43,3.3,1,3.68a24.45,24.45,0,0,1-9.68-.07C580.71,371.55,581.28,369.37,582.72,369.22ZM605.17,364c-7.57-.19-16.9,1.13-24.13-1.43-1.19-.42-1.45-2.38,0-2.67,7.55-1.53,16.56,1.05,24.13,1.93C606.52,362,606.6,364.07,605.17,364Zm49.72,8.53c6.57,0,13.88-.77,20.15,1.57a1.31,1.31,0,0,1,0,2.51c-6.44,1.83-13.6.52-20.15-.07C652.36,376.36,652.27,372.59,654.89,372.57Zm-12,37.07C635,417.7,628.54,427,620.76,435.1c-1.71,1.79-4.3-.49-3.27-2.52,10.59-21,32.12-37.46,51.66-49.59,1.89-1.17,3.49,1.7,1.72,2.95A202.53,202.53,0,0,0,642.93,409.64Zm28.48,33.63c-7.42,1.5-16,3.88-22.33,8-1.87,1.21-3.39-1.64-1.7-2.91,13.57-10.21,32.55-16,48.12-6.79,1.66,1,1.1,4.19-1.07,3.93C686.53,444.48,679.48,441.64,671.41,443.27ZM657.68,581.92c-6.31,18.14-8.49,35.05-10.25,54.05a1.79,1.79,0,0,1-3.57,0c-2.29-18.31,2.57-39,10.22-55.56C655,578.38,658.4,579.85,657.68,581.92Zm-12.53,12.81c-6.86,16-8.35,32-9.76,49.15-.17,2.08-3.54,2.88-3.9.53-2.72-17.71,2.39-35.94,10-51.83C642.67,590.07,646.2,592.27,645.15,594.73ZM627,607.26c.89-2.38,4.7-1.4,3.87,1.07a101.85,101.85,0,0,0-5.27,23.9c-.64,7.29.33,14.53-.21,21.77-.17,2.31-3.47,2.93-4.14.56C617.06,639.7,621.72,621.3,627,607.26ZM614.39,620c.7-3,5.33-1.72,4.61,1.27a129.26,129.26,0,0,0-3.65,22.87c-.34,6.08.36,12.17-.51,18.19-.2,1.39-2.19,1.12-2.55,0C608.19,649.42,611.39,632.83,614.39,620Zm-10,16.32c.64-2.78,4.8-1.58,4.25,1.18a76.93,76.93,0,0,0-1.51,17.85c.19,5.34,1.82,10.55,1.66,15.86a1.43,1.43,0,0,1-2.65.72C600.14,662.1,602,646.93,604.42,636.27Zm-7.88,23.35c.38-2.29,4.16-1.72,4,.55-.33,5.39,0,10.88.21,16.27.06,2-2.77,2.21-3.35.46C595.46,671,595.56,665.68,596.54,659.62ZM656.25,645c-3.92,13-15.81,21.51-25.15,30.67-12.45,12.21-20.2,29.08-33.47,40.38a2.08,2.08,0,0,1-3.25-2.5c6-13.4,17.54-27.29,27.74-38,10.59-11.15,23.89-17.84,32-31.45A1.19,1.19,0,0,1,656.25,645Zm-.3-23.06c-1.23-16.44,2.07-34.15,9.75-48.76,1.27-2.42,4.84-.29,3.64,2.12-7.54,15.13-7.09,30.92-10.28,47.06C658.69,624.23,656.07,623.61,656,621.94Zm10.43-15.89c-.84-10.72,3.48-22.44,7.5-32.17.79-1.92,3.89-1.2,3.21.88-3.39,10.45-4.17,21.31-7.09,31.78C669.42,608.64,666.53,608.06,666.38,606.05Zm19.81-33.72c-3.69,6.8-4.58,13.7-6.88,20.91-.39,1.24-2.6,1.53-2.82,0-1.13-7.89,2.32-16.23,6.06-23C683.86,567.83,687.48,570,686.19,572.33Zm15.53-70.88c-2.07-6.26-4.15-12.44-7.54-18.14-2.73-4.59-7.3-8.09-9.59-12.77a1.71,1.71,0,0,1,1.9-2.48c11.7,2.71,16.27,22.71,19.18,32.31C706.44,502.9,702.55,503.93,701.72,501.45Zm3.2-28.85c.88,2.28-2.88,3.82-3.92,1.66a20.74,20.74,0,0,0-7.14-7.88c-2.59-1.85-6-3.08-7.82-5.73a2,2,0,0,1,1.7-3c3.72.17,7.54,3.17,10.33,5.46A22.68,22.68,0,0,1,704.92,472.6Zm-10.45-37.81c-4.22.1-8.38-1-12.59-1.19a78.09,78.09,0,0,0-14.18.4,1.48,1.48,0,0,1-.79-2.86c8.77-2.94,20.07-4.89,28.58-.13A2,2,0,0,1,694.47,434.79Zm-3.93-10.68a58.08,58.08,0,0,1-13.3-.61c-2.35-.43-1.63-3.89.54-4a58.48,58.48,0,0,1,13.2,1.36C692.88,421.23,692.31,424,690.54,424.11Z"/><path class="cls-4" d="M392.44,316.33,384,319.74q4.32-.5,8.63-1.11Z"/><path class="cls-4" d="M284,336.66c-31.22-6-65-16.36-84.93-42.75-1-1.36,1.21-3,2.33-1.8,22.05,23.63,55.34,33,86.18,38.65a284.86,284.86,0,0,0,105.15-.22,3.34,3.34,0,0,1,.82-.06c-.14-1.6-.26-3.19-.39-4.79-25.25,5-52.25,3.74-77.76,2.46-22.93-1.15-50.49-3-70.06-16.11a1.49,1.49,0,0,1,1.5-2.57c10.19,5.34,23.26,7.11,34.5,8.85a321.71,321.71,0,0,0,38,3.18c14.9.52,29.76.61,44.58-.15a4.05,4.05,0,0,1-.12-1c0-1.06.12-2.09.19-3.13-26.63,2.2-54.68.46-80.94-3.21-2.27-.32-1.67-4,.54-3.94,27,.88,54,.62,81,1.15.27-1.91.58-3.8,1-5.68a227.33,227.33,0,0,1-37.9-.21,1.29,1.29,0,0,1,0-2.57c13.11-.47,26.13-1.73,39.19-2.82.22-.86.45-1.72.69-2.57-6.4-.18-12.79-.46-19.19-.68a1.89,1.89,0,0,1,0-3.77c6.92-.24,13.83-.56,20.75-.73.3-.95.61-1.9.94-2.85l-5.09-.78c-2.35-.37-1.71-4.1.55-4.06,2.07,0,4.15,0,6.21.11q1.2-3.27,2.46-6.54c.86-2.22,1.93-4.61,3-7l-1.66-.19c-2.6-.27-5.17-.72-7.75-1.15-1.67-.28-1.2-2.88.39-2.88,2.46,0,4.9-.12,7.36-.25,1.2-.07,2.46-.3,3.66-.26.44-1.12.85-2.23,1.23-3.35-22,5-46.28,4.5-68.59,4-2.29-.05-2.3-3.57,0-3.57,23.67,0,46.49-4,69.94-5.63.09-.52.2-1.05.25-1.55a9.88,9.88,0,0,0,0-2.49s-.07,0-.12.06c-17.54,4.15-37,4.34-55,4.23-18.29-.11-36.76-1.39-54.62-5.45a1.19,1.19,0,0,1,.31-2.33c18.12.8,36.16,2.24,54.31,2.11,12.15-.09,24.16-1.3,36.19-2.3a5.7,5.7,0,0,1-4.52-5.81c-28.48,3.6-59.85,6.11-87.36-.45-24.53-5.85-42.83-28.05-45.91-52.81-2.73-21.9,7.22-44.05,23.8-58.25,9.43-8.08,20.47-13.17,32.51-16,7.06-1.69,46.49-4.74,35.95-19.08-5-6.84-18.93-7.3-26.56-8.37a237.24,237.24,0,0,0-25.26-2.28c-14.68-.48-29.47.74-43.53,5.21-26.29,8.37-48.17,28.07-61.1,52.22-14.93,27.88-17.53,61.58-9.78,92,7.55,29.66,30.44,53.85,53.34,73.24,25.66,21.73,59.4,29.44,92,33.66a329,329,0,0,0,97.22-2.07,4.56,4.56,0,0,1,.51,0l-.39-4.59C357.44,343,320.64,343.72,284,336.66ZM297,106c1.12-.17,1.63,1.47.48,1.74C279.15,112,258.71,117,243.12,128c-19.09,13.49-24.58,33.24-26,55.39-.11,1.67-2.63,2.18-3,.41-4.41-19.43,5.55-41.65,19.93-54.61C251.68,113.27,274.46,109.53,297,106Zm-89.94,30.17c4.41-15.56,19.27-25.74,34.23-29.6a.8.8,0,0,1,.43,1.55c-14.65,5.41-23.79,16.49-32.06,29.15A1.43,1.43,0,0,1,207.09,136.17Zm57.38-30.77c1.82-.54,2.55,2.23.78,2.82-13.12,4.41-26.73,9.18-37.11,18.72-9.53,8.76-13.24,19.24-18.32,30.67-.71,1.58-3.3.77-3.22-.87C208.06,126.39,239.9,112.74,264.47,105.4ZM173.16,263.49c-9.11-8.66-13.95-23.34-16.85-35.28-3.42-14.06-3.34-27.88-1.43-42.13.2-1.56,2.63-1.66,2.52,0a125.59,125.59,0,0,0,4.27,40.65c3.36,12.45,10.23,23.08,14.33,35.1C176.58,263.51,174.32,264.6,173.16,263.49ZM188.44,266c-15.18-12.32-19.89-35-23.87-53.08-.48-2.19,2.78-3.11,3.36-.93,5.11,19.26,11.38,35.86,22.43,52.52C191.19,265.72,189.43,266.76,188.44,266Z"/><path class="cls-4" d="M793.43,126.15c-19.85-24.27-48-37.78-79.24-39.2a203.7,203.7,0,0,0-51.25,4.31c-4,.86-11.76,2.35-13.87,6.28-3.91,7.24,1.68,11,7.6,13.23,6.43,2.36,13.42,3,20.11,4.2,24.48,4.3,46.22,16.54,57.79,39.34a63.32,63.32,0,0,1-4.94,66.07c-16.44,22.72-41.13,25.6-67.3,26.45-28.74.93-57.62-1.43-85.33-9.16,1.11,2.5,2.17,5,3.2,7.54,17.42.8,34.67,3.26,52.2,3.39,18.15.13,36.18-1.31,54.3-2.11a1.19,1.19,0,0,1,.32,2.33c-17.87,4.06-36.33,5.33-54.62,5.45-16.25.1-33.74-.09-49.9-3.19.68,1.81,1.35,3.63,2,5.46,23.32,1.66,46,5.59,69.57,5.6,2.31,0,2.29,3.52,0,3.57-22,.51-46,1-67.78-3.8.51,2.9-1.74,5-4.35,5.48,1.86.09,3.72.17,5.58.17,1.62,0,2,2.6.39,2.87-2.57.44-5.14.88-7.74,1.15a26.63,26.63,0,0,1-3.55.29,73.44,73.44,0,0,0-1.27,13.29l.26,0c2.37-.13,4.75-.09,7.12-.14s2.87,3.7.55,4.06-4.66.76-7,1.08c-.35.05-.74.08-1.13.1-.09,1.22-.22,2.44-.33,3.66,7.1.16,14.17.5,21.27.74a1.89,1.89,0,0,1,0,3.77c-7.26.25-14.5.6-21.76.76-.06.55-.13,1.11-.19,1.66,13.43,1.11,26.8,2.44,40.28,2.92a1.28,1.28,0,0,1,0,2.56c-13.59,1.06-27.31,1.4-40.89-.09,0,.27-.06.55-.1.82-.12,1-.28,2-.42,3.06,28-.63,56-.3,84.06-1.22,2.23-.07,2.78,3.63.53,3.94-27.71,3.88-57.44,5.65-85.36,2.85-.14.91-.3,1.83-.44,2.74a3.72,3.72,0,0,1,.74,0c25.1,3.79,50.35,4.08,75.7,3.19a313.48,313.48,0,0,0,39.89-3.48c10.66-1.74,22.89-3.48,32.58-8.55a1.49,1.49,0,0,1,1.49,2.57c-19.56,13.11-47.13,15-70.06,16.11-26.75,1.35-55.13,2.72-81.42-3.22h0c-.25,1.44-.54,2.86-.81,4.29H570a284.65,284.65,0,0,0,105.15.22c30.84-5.67,64.13-15,86.18-38.65,1.14-1.21,3.35.45,2.33,1.8-20,26.4-53.7,36.73-84.93,42.76-36.59,7.05-73.35,6.38-109.94-.14-.14.65-.28,1.3-.41,1.95,14,7.29,30,8.46,45.69,8.62,17.59.18,35.22-.22,52.7-2.32,38.81-4.67,75.58-14.52,104.28-42.32,11.59-11.22,23.94-23.48,32.71-37.07,9.38-14.54,13.7-32.26,15.26-49.35C821.85,183.39,813.61,150.81,793.43,126.15Zm-67.19-19.44c15,3.86,29.82,14,34.24,29.6a1.44,1.44,0,0,1-2.61,1.1c-8.26-12.65-17.42-23.74-32.06-29.15A.8.8,0,0,1,726.24,106.71Zm27.19,77.21c-.41,1.79-2.93,1.24-3-.41-1.38-22.27-6.91-41.75-25.95-55.39-15.49-11.08-36.09-16-54.4-20.23-1.15-.27-.64-1.92.48-1.74,22.51,3.52,45.44,7.22,63,23.16C747.85,142.35,757.85,164.43,753.43,183.92Zm4.32-26.17c-5.07-11.37-8.75-22-18.33-30.67-10.5-9.48-23.91-14.29-37.1-18.71-1.78-.6-1-3.37.78-2.83,24.55,7.34,56.4,21,57.86,51.34C761,158.52,758.45,159.33,757.75,157.75ZM779.12,266.1c-1,.81-2.74-.24-1.92-1.49,11-16.66,17.32-33.23,22.43-52.52.58-2.18,3.85-1.26,3.37.93C799,231.13,794.3,253.78,779.12,266.1Zm32.13-37.75c-2.87,12-7.74,26.62-16.84,35.28-1.17,1.11-3.42,0-2.85-1.66,4.1-12,11-22.64,14.33-35.1a125.9,125.9,0,0,0,4.27-40.65c-.11-1.66,2.32-1.56,2.53,0C814.6,200.5,814.63,214.27,811.25,228.35Z"/><path d="M450.34,781.27c-10.9-11.69-35.45-23.07-51-15.49-17.3,8.45-12.44,34.07-2.82,46.56,4,5.17,12.9.06,8.87-5.18-5.87-7.61-11.89-26.49-1.76-32.06-.35,11.92,8.63,27.63,14.66,36,7.64,10.61,17.87,19.93,30.37,24-.17.18-.31.38-.49.55-7.26,7-15.78,1.73-22.35-3.32-5.23-4-10.35,4.88-5.18,8.86,14.71,11.33,34.33,11.15,41.05-8.54C467.55,815.57,462.55,794.37,450.34,781.27Z"/><path d="M784.47,302.32c11.58-12,24.12-24.49,31.86-39.38,14.52-27.94,16.92-63.31,9.54-93.63a124.43,124.43,0,0,0-46.23-70.37c-26.18-19.52-58.26-24.39-90.19-21.62-14.2,1.23-32.51,1.58-44.44,10.24C637,93.42,633.37,103.77,640.1,112c8.66,10.63,24.92,11,37.26,13.46,16.15,3.15,30.56,9.85,41.13,22.81,23,28.22,13.22,75.15-24.18,85.09-18.88,5-41,3.94-60.34,3a242.78,242.78,0,0,1-63-11.2c-.58-1.14-1.17-2.27-1.77-3.4l11.5-2.32c4.41-.89,4.9-7.29,1.23-9.39-41.21-23.52-86.59-43-135.12-34.32-20,3.59-37.76,15.32-53.17,28.1-8.44,7-16.79,14.88-23.45,23.65a48.56,48.56,0,0,0-3.22,5.38,5.51,5.51,0,0,0-.7,0,400.24,400.24,0,0,1-52.92,3.67c-15.91,0-35,1-49.6-6.3-28.1-14-36.22-50-20-75.86a62.11,62.11,0,0,1,35.67-26.59c13.1-3.8,28.06-3.31,40.15-10.18,8.56-4.87,13.61-13.88,8.37-23.13-6.7-11.84-22.23-13.5-34.26-15.22C263.5,75,232,74.67,204,88.47c-23.77,11.72-43.28,32.26-54.52,56.18-12.75,27.15-15.53,58.17-9.63,87.45,6.5,32.22,26.54,55.52,49.78,77.67C216,334.92,248,345.7,283.44,351.55c-23.07,67.54-47.89,139.11-28.06,210.59,9.33,33.64,26.29,64.65,44.84,94,19.41,30.7,40.89,60,66.92,85.44a5,5,0,0,0,2,1.24c-5.08,14.06-6.06,30.68-4.48,43,2.75,21.41,13.64,47.89,31.44,63.61a4.4,4.4,0,0,0-.94,3.3c1.87,22.43,7.8,43.39,25.59,58.19,7.82,6.52,16.79,12.17,26.54,15.29,11.24,3.59,23.78,1.82,35.39,1.49a6,6,0,0,0,.61-.08,5.63,5.63,0,0,0,.61.08c11,.31,22.87,2,33.59-.9,10.42-2.84,20.11-9,28.34-15.88,17.81-14.74,23.72-35.8,25.59-58.19a4.36,4.36,0,0,0-1.16-3.55,57.29,57.29,0,0,0,4.86-5.05,117.27,117.27,0,0,0,23.67-43c4.4-15.14,5.39-39.42-1.1-58.36a5.23,5.23,0,0,0,1.78-1.16c25.6-25,46.82-53.78,66-83.94,18.94-29.81,36.31-61.29,45.8-95.51,19.79-71.33-4.89-142.76-27.92-210.17,22.77-3.43,45.47-9.44,64.91-20.3C761.88,324.05,773.66,313.5,784.47,302.32ZM374.52,239.26a121.48,121.48,0,0,1,14.7-17.5C404,207,422.83,192.31,443.39,187c42.08-10.93,84.36,5.38,121.32,25.26l-4.68.94c-3.32.67-4.6,4.83-3.07,7.54a241.69,241.69,0,0,1,17.34,37.73c-7,3.19-8.26,13-8.74,21.59a371.29,371.29,0,0,1-5.7,47.29c-2.91-3.13-6.47-5.25-10.59-4.59-9.26,1.47-10.08,18.58-11.63,25.16-5.23,22.23-9.28,44.71-12.31,67.33-7-11.83-16-22.6-19.66-36l0-1.81c.1-5.81-7.83-6.51-9.82-2.09a5,5,0,0,0-.78,4.06c.08.36.19.71.28,1.06-.83,43.17-4.4,85.53-30.91,120.34a1053.44,1053.44,0,0,0-27.84-127.47c-1.14-4-5.65-4.64-8.58-2.27-7.55,6.13-13.43,13.56-18.68,21.51q-4-41.76-7.25-83.58c-.22-3-3.15-6.3-6.49-4.95l-20.91,8.42c2.62-18.74,12.33-35.27,17.16-53.6,3.93-14.9-6.77-17.42-18.18-18.36C374,240.07,374.25,239.65,374.52,239.26Zm18.1,79.37q-4.31.62-8.63,1.11l8.45-3.41Zm-187.94-9.08c-22.9-19.39-45.79-43.58-53.34-73.24-7.75-30.41-5.15-64.11,9.78-92,12.93-24.15,34.81-43.85,61.1-52.22,14.06-4.47,28.85-5.69,43.53-5.21A237.24,237.24,0,0,1,291,89.17c7.63,1.07,21.53,1.53,26.56,8.37,10.54,14.34-28.89,17.39-35.95,19.08-12,2.86-23.08,7.95-32.51,16-16.58,14.2-26.53,36.35-23.8,58.25,3.08,24.76,21.38,47,45.91,52.81,27.51,6.56,58.88,4,87.36.45A5.7,5.7,0,0,0,363.1,250c-12,1-24,2.21-36.19,2.3-18.15.13-36.19-1.31-54.31-2.11a1.19,1.19,0,0,0-.31,2.33c17.86,4.06,36.33,5.34,54.62,5.45,18,.11,37.43-.08,55-4.23.05,0,.08-.05.12-.06a9.88,9.88,0,0,1,0,2.49c-.05.5-.16,1-.25,1.55-23.45,1.65-46.27,5.62-69.94,5.63-2.3,0-2.29,3.52,0,3.57,22.31.51,46.58,1,68.59-4-.38,1.12-.79,2.23-1.23,3.35-1.2,0-2.46.19-3.66.26-2.46.13-4.9.26-7.36.25-1.59,0-2.06,2.6-.39,2.88,2.58.43,5.15.88,7.75,1.15l1.66.19c-1.08,2.44-2.15,4.83-3,7s-1.66,4.36-2.46,6.54c-2.06-.09-4.14-.07-6.21-.11-2.26,0-2.9,3.69-.55,4.06l5.09.78c-.33.95-.64,1.9-.94,2.85-6.92.17-13.83.49-20.75.73a1.89,1.89,0,0,0,0,3.77c6.4.22,12.79.5,19.19.68-.24.85-.47,1.71-.69,2.57-13.06,1.09-26.08,2.35-39.19,2.82a1.29,1.29,0,0,0,0,2.57,227.33,227.33,0,0,0,37.9.21c-.38,1.88-.69,3.77-1,5.68-27-.53-54-.27-81-1.15-2.21-.07-2.81,3.62-.54,3.94,26.26,3.67,54.31,5.41,80.94,3.21-.07,1-.16,2.07-.19,3.13a4.05,4.05,0,0,0,.12,1c-14.82.76-29.68.67-44.58.15a321.71,321.71,0,0,1-38-3.18c-11.24-1.74-24.31-3.51-34.5-8.85a1.49,1.49,0,0,0-1.5,2.57c19.57,13.11,47.13,15,70.06,16.11,25.51,1.28,52.51,2.58,77.76-2.46.13,1.6.25,3.19.39,4.79a3.34,3.34,0,0,0-.82.06,284.86,284.86,0,0,1-105.15.22c-30.84-5.68-64.13-15-86.18-38.65-1.12-1.2-3.36.44-2.33,1.8,20,26.39,53.71,36.73,84.93,42.75,36.62,7.06,73.42,6.38,110-.15l.39,4.59a4.56,4.56,0,0,0-.51,0,329,329,0,0,1-97.22,2.07C264.08,339,230.34,331.28,204.68,309.55ZM537.75,904.32c-7.54,6-16.39,11.47-26,13.1-9,1.53-18.71.28-27.82,0a4.67,4.67,0,0,1-1.22,0c-8.14.23-16.67,1.22-24.79.49-10.76-1-20.75-7-29-13.61-15.31-12.22-21-29.12-23.07-47.86A48.74,48.74,0,0,0,420,862c36.29,7.83,75.95,7.56,112.54,2.28,10.83-1.56,20.07-3.62,28.33-8.23C558.86,874.9,553.15,892,537.75,904.32ZM701.36,559.41c-9.11,32.82-25.71,62.92-43.81,91.56-18.65,29.49-39.24,57.58-64.11,82.14-5.42-9.6-13.62-16.49-25.4-17.89,7.9-45.33,14.37-91,23.86-136,2.55,2.53,11-.66,13.3-1.4a1.83,1.83,0,0,0-1-3.52,74.4,74.4,0,0,1-8.82.51,8.46,8.46,0,0,0-2.67.51l.87-4c21.44,2.7,44.7-3.28,60.5-18.1,1.56-1.47-.73-3.67-2.33-2.32-16.75,14-36.39,12.9-56.61,13.45.53-2.31,1.05-4.62,1.59-6.93,0-.1,0-.2.07-.29,24.31,8.59,49.48-3.54,64-23.54,7.8-10.72,12.8-23.29,16-36.08,3.52-14,6.68-29.36,3.63-43.69a5.16,5.16,0,0,0-4.95-3.77,86.8,86.8,0,0,0-51.35,19.08c9.49-19.68,23.49-36.81,42.38-48.33,5.64-3.43.49-12.31-5.18-8.86-45.85,27.93-59.5,82.53-71.78,131.3-15.42,61.25-23.11,124-34.52,186.08-1.19,6.46,8.7,9.23,9.9,2.73q.62-3.35,1.21-6.7c19.47,2.23,25.52,28.86,26.19,45.23.73,17.7-4.42,35.15-13.3,50.36-9.62,16.47-21,28.79-40.4,32.09a293,293,0,0,1-54.93,4c-18.91-.35-37.17-.86-55.9-4-19.4-3.29-30.78-15.58-40.4-32.09-8.88-15.27-14-32.61-13.3-50.36.62-16.35,6.78-43,26.2-45.23q.6,3.36,1.21,6.7c1.19,6.49,11.09,3.74,9.9-2.73-11.41-62-19.1-124.83-34.52-186.08-12.28-48.77-25.93-103.37-71.78-131.3-5.66-3.45-10.83,5.43-5.19,8.86,18.91,11.52,32.88,28.65,42.38,48.33a86.8,86.8,0,0,0-51.35-19.08,5.18,5.18,0,0,0-4.95,3.77c-2.93,13.8,0,28.42,3.2,42s8.3,26.61,16.46,37.82c14.57,20,39.74,32.13,64.05,23.54,0,.09.05.19.07.29.53,2.25,1,4.51,1.55,6.76-19.88-.49-39.17.4-55.65-13.43-1.6-1.34-3.89.86-2.32,2.33C329,567.7,351.84,573.71,373,571.3c.26,1.19.52,2.39.77,3.58a8.8,8.8,0,0,0-1.21-.17c-3.11-.24-6.14,0-9.24-.53a1.83,1.83,0,0,0-1,3.52c2.11.68,9.24,3.37,12.45,1.95,9.44,44.91,15.91,90.39,23.79,135.6-11.51,1.46-19.66,8.54-25.13,18.14-24.58-24.21-45-51.85-63.44-80.92s-35.5-59.67-44.76-93.06c-17.84-64.29,2.09-128.91,23-190.19,15.79.21,31.58-1.34,47.33-2.25a1,1,0,0,0,0-1.89c-10-.25-20-.8-30-.84-5.43,0-10.78-.35-15.93.94q2.07-6.07,4.14-12.11a343.14,343.14,0,0,0,101.57-1.82q2.46,28.53,5.3,57c.48,4.81,6.81,7.31,9.57,2.59,5.56-9.52,11.24-18.77,18.78-26.63a1052.21,1052.21,0,0,1,27.22,130c.55,3.83,6.19,4.9,8.58,2.26,29.9-33,37.86-72.92,40.14-114.94,7,11.14,15.25,21.62,18.22,34.67,1.37,6.06,9.5,4,10.08-1.36,2.1-19.39,4.94-38.66,8.66-57.8q2.58-13.27,5.67-26.42c1-4.34,1.81-8.9,3.22-13.13q.09-5.72,1.29-3.18a18,18,0,0,1,5.24,8.44,5.74,5.74,0,0,0,6.18,3.59c24.78,13,56.71,10.82,83.68,9.26,8.43-.49,17.11-1.19,25.84-2.22l4,11.71c-4.86-1-9.88-.72-15-.7-10,.05-20,.59-30,.84a1,1,0,0,0,0,1.89c15.46.89,31,2.4,46.46,2.25C699.3,430.6,719.18,495.16,701.36,559.41Zm-63.72-39.27c7-11.93,3.31-34.3-9.68-40.81a76,76,0,0,1,43.35-18.7c2.57,20.13-5.65,46.14-15.81,62.61-11.84,19.2-33.81,32-56.27,23.89q2.57-10.46,5.38-20.93a6.39,6.39,0,0,0,.5.54,4.3,4.3,0,0,0,4.45,2.91,21.78,21.78,0,0,0,7.58,1.57A22.78,22.78,0,0,0,637.64,520.14Zm-13.42-30.92a5.7,5.7,0,0,1,.55.42l-.53,0C624.23,489.48,624.23,489.35,624.22,489.22ZM329,520.14a22.79,22.79,0,0,0,19.41,11.13,22.1,22.1,0,0,0,8.65-1.62,4.31,4.31,0,0,0,4.48-2.94c.17-.17.34-.33.49-.51q2.84,10.45,5.38,20.93c-22.46,8.09-44.43-4.69-56.27-23.89-10.15-16.45-18.38-42.5-15.81-62.61a76.08,76.08,0,0,1,43.35,18.7C325.69,485.84,322,508.2,329,520.14Zm12.87-30.5c.18-.14.35-.3.54-.42,0,.13,0,.26,0,.39A4.71,4.71,0,0,0,341.87,489.64ZM771,301.28c-28.7,27.8-65.47,37.65-104.28,42.32-17.48,2.1-35.11,2.5-52.7,2.32-15.71-.16-31.65-1.33-45.69-8.62.13-.65.27-1.3.41-1.95,36.59,6.52,73.35,7.19,109.94.14,31.23-6,65-16.36,84.93-42.76,1-1.35-1.19-3-2.33-1.8-22,23.63-55.34,33-86.18,38.65A284.65,284.65,0,0,1,570,329.36h-.06c.27-1.43.56-2.85.81-4.29h0c26.29,5.94,54.67,4.57,81.42,3.22,22.93-1.15,50.5-3,70.06-16.11a1.49,1.49,0,0,0-1.49-2.57c-9.69,5.07-21.92,6.81-32.58,8.55a313.48,313.48,0,0,1-39.89,3.48c-25.35.89-50.6.6-75.7-3.19a3.72,3.72,0,0,0-.74,0c.14-.91.3-1.83.44-2.74,27.92,2.8,57.65,1,85.36-2.85,2.25-.31,1.7-4-.53-3.94-28,.92-56.05.59-84.06,1.22.14-1,.3-2,.42-3.06,0-.27.06-.55.1-.82,13.58,1.49,27.3,1.15,40.89.09a1.28,1.28,0,0,0,0-2.56c-13.48-.48-26.85-1.81-40.28-2.92.06-.55.13-1.11.19-1.66,7.26-.16,14.5-.51,21.76-.76a1.89,1.89,0,0,0,0-3.77c-7.1-.24-14.17-.58-21.27-.74.11-1.22.24-2.44.33-3.66.39,0,.78-.05,1.13-.1,2.33-.32,4.66-.72,7-1.08s1.74-4.1-.55-4.06-4.75,0-7.12.14l-.26,0a73.44,73.44,0,0,1,1.27-13.29,26.63,26.63,0,0,0,3.55-.29c2.6-.27,5.17-.71,7.74-1.15,1.66-.27,1.23-2.88-.39-2.87-1.86,0-3.72-.08-5.58-.17,2.61-.52,4.86-2.58,4.35-5.48,21.79,4.77,45.75,4.31,67.78,3.8,2.29,0,2.31-3.57,0-3.57-23.54,0-46.25-3.94-69.57-5.6-.64-1.83-1.31-3.65-2-5.46,16.16,3.1,33.65,3.29,49.9,3.19,18.29-.12,36.75-1.39,54.62-5.45a1.19,1.19,0,0,0-.32-2.33c-18.12.8-36.15,2.24-54.3,2.11-17.53-.13-34.78-2.59-52.2-3.39-1-2.53-2.09-5-3.2-7.54,27.71,7.73,56.59,10.09,85.33,9.16,26.17-.85,50.86-3.73,67.3-26.45a63.32,63.32,0,0,0,4.94-66.07c-11.57-22.8-33.31-35-57.79-39.34-6.69-1.18-13.68-1.84-20.11-4.2-5.92-2.18-11.51-6-7.6-13.23,2.11-3.93,9.89-5.42,13.87-6.28A203.7,203.7,0,0,1,714.19,87c31.21,1.42,59.39,14.93,79.24,39.2,20.18,24.66,28.42,57.24,25.55,88.71-1.56,17.09-5.88,34.81-15.26,49.35C795,277.8,782.6,290.06,771,301.28Z"/><path d="M516.29,781.27c-11.91,12.79-16.94,33.23-11.78,50,6.27,20.45,26,21.79,41.46,9.89,5.16-4,0-12.89-5.18-8.86-5.52,4.24-13.51,9.7-20.55,5.27a10.68,10.68,0,0,1-2.61-2.41c12.64-4,23-13.39,30.69-24.09,6-8.28,14.83-23.74,14.68-35.61,9.7,5.83,4.53,23.47-1.78,31.66-4,5.23,4.88,10.35,8.86,5.18,9.26-12,14.43-36.81-1.5-46C553,757.45,527.36,769.41,516.29,781.27Z"/><path d="M214.13,183.78c.41,1.77,2.93,1.26,3-.41,1.37-22.15,6.86-41.9,26-55.39,15.59-11,36-15.94,54.39-20.24,1.15-.27.64-1.91-.48-1.74-22.57,3.53-45.35,7.27-63,23.17C219.68,142.13,209.72,164.35,214.13,183.78Z"/><path d="M209.82,157.61c5.08-11.43,8.79-21.91,18.32-30.67,10.38-9.54,24-14.31,37.11-18.72,1.77-.59,1-3.36-.78-2.82-24.57,7.34-56.41,21-57.87,51.34C206.52,158.38,209.11,159.19,209.82,157.61Z"/><path d="M209.69,137.27c8.27-12.66,17.41-23.74,32.06-29.15a.8.8,0,0,0-.43-1.55c-15,3.86-29.82,14-34.23,29.6A1.43,1.43,0,0,0,209.69,137.27Z"/><path d="M161.67,226.73a125.59,125.59,0,0,1-4.27-40.65c.11-1.66-2.32-1.56-2.52,0-1.91,14.25-2,28.07,1.43,42.13,2.9,11.94,7.74,26.62,16.85,35.28,1.16,1.11,3.42,0,2.84-1.66C171.9,249.81,165,239.18,161.67,226.73Z"/><path d="M167.93,212c-.58-2.18-3.84-1.26-3.36.93,4,18.12,8.69,40.76,23.87,53.08,1,.8,2.75-.24,1.92-1.49C179.31,247.81,173,231.21,167.93,212Z"/><path d="M292.52,376.51c6.44,1.83,13.6.51,20.15-.07,2.53-.22,2.63-4,0-4-6.57,0-13.88-.78-20.15,1.57A1.31,1.31,0,0,0,292.52,376.51Z"/><path d="M386.53,362.47c1.18-.42,1.44-2.38,0-2.67-7.56-1.53-16.57,1.05-24.14,1.93-1.35.16-1.43,2.2,0,2.17C370,363.71,379.3,365,386.53,362.47Z"/><path d="M376.55,368.18c-2.4-.39-3.43,3.3-1,3.68a24.4,24.4,0,0,0,9.67-.07c1.63-.37,1.09-2.56-.37-2.72C382.09,368.78,379.28,368.63,376.55,368.18Z"/><path d="M298.41,382.85c-1.89-1.17-3.49,1.7-1.72,2.94a202.71,202.71,0,0,1,27.94,23.71c7.93,8.06,14.4,17.33,22.17,25.46,1.7,1.78,4.31-.47,3.28-2.53C339.49,411.45,318,395,298.41,382.85Z"/><path d="M374.93,501.11a1.33,1.33,0,0,0-2.56.71c3.81,14.56,6.91,29.23,10,43.95s4.47,29.87,8.78,44.11a1.71,1.71,0,0,0,3.35-.46c0-14.41-3.79-29.06-6.88-43.07C384.26,531.07,379.68,516,374.93,501.11Z"/><path d="M416.23,706.3c-1.91-33.3-10.21-67-16.85-99.58-.51-2.48-4.15-1.39-3.75,1,5.37,32.7,9.59,67,19.61,98.68C415.41,707,416.26,706.89,416.23,706.3Z"/><path d="M272.07,441.38c-1.67,1-1.11,4.19,1.06,3.93,7.93-1,14.9-3.86,23-2.18,7.49,1.54,16,3.83,22.33,7.95,1.87,1.2,3.39-1.64,1.7-2.91C306.62,438,287.63,432.21,272.07,441.38Z"/><path d="M272.07,430.87a2,2,0,0,0,1,3.77c4.22.11,8.38-1,12.59-1.18a77.3,77.3,0,0,1,14.19.4,1.49,1.49,0,0,0,.78-2.87C291.9,428.07,280.57,426.11,272.07,430.87Z"/><path d="M277,424a58.08,58.08,0,0,0,13.3-.61c2.33-.43,1.65-3.89-.54-4a58,58,0,0,0-13.2,1.36C274.7,421.08,275.24,423.9,277,424Z"/><path d="M281.07,467.92c-11.7,2.71-16.27,22.73-19.18,32.3-.76,2.54,3.13,3.58,3.95,1.09,2.07-6.26,4.15-12.44,7.54-18.14,2.73-4.59,7.3-8.1,9.59-12.78A1.71,1.71,0,0,0,281.07,467.92Z"/><path d="M266.57,474.12a20.55,20.55,0,0,1,7.13-7.88c2.6-1.85,5.95-3.08,7.82-5.73a2,2,0,0,0-1.69-3c-3.74.17-7.54,3.16-10.34,5.46a22.77,22.77,0,0,0-6.85,9.45C261.78,474.72,265.51,476.3,266.57,474.12Z"/><path d="M370.15,676.75c2-5.86,1.85-11.22.87-17.27-.37-2.27-4.16-1.75-4,.54.33,5.39,0,10.89-.2,16.28C366.73,678.29,369.56,678.52,370.15,676.75Z"/><path d="M281.38,572.19c3.68,6.79,4.58,13.7,6.87,20.91.39,1.24,2.6,1.53,2.82,0,1.13-7.9-2.32-16.23-6.06-23C283.71,567.69,280.08,569.81,281.38,572.19Z"/><path d="M297.56,606.4c.58,2.09,3.47,1.53,3.62-.49.84-10.72-3.48-22.44-7.5-32.17-.79-1.92-3.89-1.21-3.21.88C293.87,585.07,294.64,595.93,297.56,606.4Z"/><path d="M308.5,622.22c.37,1.85,3,1.26,3.11-.42,1.23-16.45-2.06-34.13-9.75-48.76-1.26-2.41-4.84-.29-3.63,2.12C305.76,590.28,305.31,606.08,308.5,622.22Z"/><path d="M320.13,635.83a1.79,1.79,0,0,0,3.57,0c2.29-18.31-2.56-39-10.22-55.56-.93-2-4.32-.59-3.59,1.51C316.19,599.92,318.37,616.8,320.13,635.83Z"/><path d="M332.17,643.74c.17,2.06,3.54,2.9,3.9.53,2.73-17.71-2.39-35.94-10-51.83-1.2-2.5-4.73-.31-3.67,2.15C329.27,610.6,330.77,626.61,332.17,643.74Z"/><path d="M342,632.09c.64,7.29-.33,14.52.21,21.77.17,2.29,3.47,2.95,4.14.56,4.17-14.86-.49-33.26-5.75-47.3-.89-2.38-4.7-1.41-3.86,1.07A101.83,101.83,0,0,1,342,632.09Z"/><path d="M352.21,644c.33,6.08-.36,12.16.51,18.19.2,1.38,2.19,1.12,2.55,0,4.11-12.87.9-29.45-2.1-42.33-.7-3-5.33-1.72-4.6,1.27A127.29,127.29,0,0,1,352.21,644Z"/><path d="M358.74,671a1.44,1.44,0,0,0,2.66.72c6-9.78,4.21-24.94,1.75-35.61-.65-2.78-4.81-1.59-4.26,1.18a77,77,0,0,1,1.52,17.85C360.21,660.49,358.58,665.72,358.74,671Z"/><path d="M313.47,643.94a1.19,1.19,0,0,0-2.16.92c3.92,13,15.83,21.53,25.15,30.67,12.46,12.21,20.2,29.08,33.48,40.38a2.08,2.08,0,0,0,3.24-2.51c-6.06-13.41-17.54-27.28-27.73-38C334.87,664.26,321.54,657.55,313.47,643.94Z"/><path d="M391.72,749.87a30.19,30.19,0,0,1,5.14-8.09c1.22-1.34-.34-3.6-2-2.59-5.69,3.49-10.63,11.36-10.79,18.12-.05,2.27,2.82,2.69,4,1.08C389.82,755.9,390.46,752.64,391.72,749.87Z"/><path d="M416.54,757.55c11.6,0,21,2,30,9.67,6.56,5.53,11.69,12.41,18.05,18.08a1.64,1.64,0,0,0,2.71-1.58c-2.86-9.66-11.8-17.41-19.79-23.07-9.69-6.87-19.49-7.52-31-6.55C414.36,754.28,414.29,757.54,416.54,757.55Z"/><path d="M469.61,808.33a104.79,104.79,0,0,1-1.2,17.79c-1,5.37-3.34,9.61-5.5,14.51a2.36,2.36,0,0,0,3.68,2.85c10.16-8.21,7.83-24.34,6.25-35.59C472.57,806,469.62,806.53,469.61,808.33Z"/><path d="M477.28,875.11c-19.66-2.42-37.88,1.14-56.85-7.1-1.86-.81-3.5,1.74-1.64,2.81,17,9.74,40,12.41,59,8.19C480.18,878.48,479.33,875.36,477.28,875.11Z"/><path d="M462.05,886.34c-13.94-2.51-27.69.11-41.13-6.08a1.67,1.67,0,0,0-1.68,2.88c12.07,7.72,28.73,10.65,42.81,7.53C464.15,890.21,464.25,886.73,462.05,886.34Z"/><path d="M457.07,899c1.87-.47,1.59-2.93,0-3.52-7.58-2.79-16.26.1-23.74-2.9-2.22-.89-3.8,2.84-1.64,3.88A29.39,29.39,0,0,0,442.63,899C447.38,899.37,452.39,900.19,457.07,899Z"/><path d="M455.6,905.58c1.34-.6.77-2.46-.37-2.86-4.07-1.42-9.37-.73-13.63-.75-2.25,0-2.91,3.73-.55,4.06C445.64,906.67,451.26,907.52,455.6,905.58Z"/><path d="M460.14,909.55c-3-.9-6.42-.45-9.56-.88-2.86-.39-4.14,4-1.21,4.41,3.35.52,7.53,1.35,10.77,0C461.72,912.41,462,910.11,460.14,909.55Z"/><path d="M733.5,129.31c-17.53-15.94-40.46-19.64-63-23.16-1.12-.18-1.63,1.47-.48,1.74,18.31,4.28,38.91,9.15,54.4,20.23,19,13.64,24.57,33.12,25.95,55.39.1,1.65,2.62,2.2,3,.41C757.85,164.43,747.85,142.35,733.5,129.31Z"/><path d="M703.1,105.54c-1.82-.54-2.56,2.23-.78,2.83,13.19,4.42,26.6,9.23,37.1,18.71,9.58,8.65,13.26,19.3,18.33,30.67.7,1.58,3.29.77,3.21-.87C759.5,126.54,727.65,112.88,703.1,105.54Z"/><path d="M725.81,108.26c14.64,5.41,23.8,16.5,32.06,29.15a1.44,1.44,0,0,0,2.61-1.1c-4.42-15.56-19.28-25.74-34.24-29.6A.8.8,0,0,0,725.81,108.26Z"/><path d="M812.69,186.22c-.21-1.56-2.64-1.66-2.53,0a125.9,125.9,0,0,1-4.27,40.65c-3.33,12.46-10.23,23.08-14.33,35.1-.57,1.68,1.68,2.77,2.85,1.66,9.1-8.66,14-23.31,16.84-35.28C814.63,214.27,814.6,200.5,812.69,186.22Z"/><path d="M799.63,212.09c-5.11,19.29-11.38,35.86-22.43,52.52-.82,1.25.92,2.3,1.92,1.49C794.3,253.78,799,231.13,803,213,803.48,210.83,800.21,209.91,799.63,212.09Z"/><path d="M654.89,376.58c6.55.59,13.71,1.9,20.15.07a1.31,1.31,0,0,0,0-2.51c-6.27-2.34-13.58-1.61-20.15-1.57C652.27,372.59,652.36,376.36,654.89,376.58Z"/><path d="M605.17,361.87c-7.57-.88-16.58-3.46-24.13-1.93-1.45.29-1.19,2.25,0,2.67,7.23,2.56,16.56,1.24,24.13,1.43C606.6,364.07,606.52,362,605.17,361.87Z"/><path d="M592,372c2.41-.38,1.39-4.07-1-3.68-2.73.45-5.54.6-8.29.9-1.44.15-2,2.33-.37,2.71A24.45,24.45,0,0,0,592,372Z"/><path d="M669.15,383c-19.54,12.13-41.07,28.61-51.66,49.59-1,2,1.56,4.31,3.27,2.52,7.78-8.13,14.25-17.4,22.17-25.46a202.53,202.53,0,0,1,27.94-23.7C672.64,384.69,671,381.82,669.15,383Z"/><path d="M592.64,501.25c-4.76,14.91-9.32,30-12.7,45.24-3.09,14-6.9,28.68-6.88,43.08a1.71,1.71,0,0,0,3.35.45c4.31-14.23,5.73-29.55,8.78-44.11,3.1-14.72,6.19-29.39,10-43.95A1.32,1.32,0,0,0,592.64,501.25Z"/><path d="M568.18,606.86c-6.64,32.62-14.93,66.28-16.85,99.59,0,.58.82.65,1,.13,10-31.67,14.24-66,19.62-98.68C572.33,605.47,568.69,604.38,568.18,606.86Z"/><path d="M695.5,441.52c-15.57-9.17-34.55-3.42-48.12,6.79-1.69,1.27-.17,4.12,1.7,2.91,6.3-4.07,14.91-6.45,22.33-8,8.07-1.63,15.12,1.21,23,2.18C696.6,445.71,697.16,442.51,695.5,441.52Z"/><path d="M666.91,431.14a1.48,1.48,0,0,0,.79,2.86,78.09,78.09,0,0,1,14.18-.4c4.21.21,8.37,1.29,12.59,1.19a2,2,0,0,0,1-3.78C687,426.25,675.68,428.2,666.91,431.14Z"/><path d="M677.24,423.5a58.08,58.08,0,0,0,13.3.61c1.77-.07,2.34-2.88.44-3.23a58.48,58.48,0,0,0-13.2-1.36C675.61,419.61,674.89,423.07,677.24,423.5Z"/><path d="M686.49,468.06a1.71,1.71,0,0,0-1.9,2.48c2.29,4.68,6.86,8.18,9.59,12.77,3.39,5.7,5.47,11.88,7.54,18.14.83,2.48,4.72,1.45,3.95-1.08C702.76,490.77,698.19,470.77,686.49,468.06Z"/><path d="M686,460.65c1.87,2.65,5.23,3.88,7.82,5.73a20.74,20.74,0,0,1,7.14,7.88c1,2.16,4.8.62,3.92-1.66a22.68,22.68,0,0,0-6.85-9.45c-2.79-2.29-6.61-5.29-10.33-5.46A2,2,0,0,0,686,460.65Z"/><path d="M600.77,676.44c-.19-5.39-.54-10.88-.21-16.27.14-2.27-3.64-2.84-4-.55-1,6.06-1.08,11.42.88,17.28C598,678.65,600.83,678.45,600.77,676.44Z"/><path d="M682.55,570.21c-3.74,6.8-7.19,15.14-6.06,23,.22,1.53,2.43,1.24,2.82,0,2.3-7.21,3.19-14.11,6.88-20.91C687.48,570,683.86,567.83,682.55,570.21Z"/><path d="M673.88,573.88c-4,9.73-8.34,21.45-7.5,32.17.15,2,3,2.59,3.62.49,2.92-10.47,3.7-21.33,7.09-31.78C677.77,572.68,674.67,572,673.88,573.88Z"/><path d="M665.7,573.18c-7.68,14.61-11,32.32-9.75,48.76.12,1.67,2.74,2.29,3.11.42,3.19-16.14,2.74-31.93,10.28-47.06C670.54,572.89,667,570.76,665.7,573.18Z"/><path d="M643.86,636a1.79,1.79,0,0,0,3.57,0c1.76-19,3.94-35.91,10.25-54.05.72-2.07-2.66-3.54-3.6-1.51C646.43,597,641.57,617.66,643.86,636Z"/><path d="M631.49,644.41c.36,2.35,3.73,1.55,3.9-.53,1.41-17.15,2.9-33.13,9.76-49.15,1.05-2.46-2.48-4.66-3.67-2.15C633.88,608.47,628.77,626.7,631.49,644.41Z"/><path d="M625.37,654c.54-7.24-.43-14.48.21-21.77a101.85,101.85,0,0,1,5.27-23.9c.83-2.47-3-3.45-3.87-1.07-5.26,14-9.92,32.44-5.75,47.3C621.9,656.93,625.2,656.31,625.37,654Z"/><path d="M614.84,662.28c.87-6,.17-12.11.51-18.19A129.26,129.26,0,0,1,619,621.22c.72-3-3.91-4.26-4.61-1.27-3,12.88-6.2,29.47-2.1,42.33C612.65,663.4,614.64,663.67,614.84,662.28Z"/><path d="M608.82,671.16c.16-5.31-1.47-10.52-1.66-15.86a76.93,76.93,0,0,1,1.51-17.85c.55-2.76-3.61-4-4.25-1.18-2.46,10.66-4.28,25.83,1.75,35.61A1.43,1.43,0,0,0,608.82,671.16Z"/><path d="M654.09,644.09c-8.08,13.61-21.38,20.3-32,31.45-10.2,10.72-21.69,24.61-27.74,38a2.08,2.08,0,0,0,3.25,2.5c13.27-11.3,21-28.17,33.47-40.38,9.34-9.16,21.23-17.66,25.15-30.67A1.19,1.19,0,0,0,654.09,644.09Z"/><path d="M575.84,750c1.26,2.78,1.9,6,3.68,8.52,1.14,1.61,4,1.19,4-1.07-.16-6.78-5.1-14.64-10.78-18.12-1.64-1-3.23,1.23-2,2.58A30,30,0,0,1,575.84,750Z"/><path d="M502.93,785.44c6.35-5.67,11.48-12.55,18-18.08,9-7.63,18.45-9.65,30-9.67,2.25,0,2.18-3.27,0-3.45-11.47-1-21.37-.27-31,6.55-8,5.63-16.94,13.44-19.79,23.07A1.64,1.64,0,0,0,502.93,785.44Z"/><path d="M499.15,826.26A104.79,104.79,0,0,1,498,808.47c0-1.78-3-2.32-3.24-.44-1.58,11.25-3.91,27.38,6.25,35.59a2.35,2.35,0,0,0,3.68-2.84C502.5,835.9,500.11,831.63,499.15,826.26Z"/><path d="M489.75,879.15c19.05,4.22,42,1.55,59-8.19,1.86-1.07.23-3.62-1.64-2.81-19,8.24-37.19,4.68-56.85,7.1C488.25,875.5,487.37,878.62,489.75,879.15Z"/><path d="M546.65,880.4c-13.45,6.19-27.19,3.57-41.14,6.08-2.19.39-2.09,3.87,0,4.33a59.13,59.13,0,0,0,42.82-7.53A1.67,1.67,0,0,0,546.65,880.4Z"/><path d="M534.23,892.75c-7.48,3-16.16.11-23.73,2.9-1.59.59-1.88,3.05,0,3.52,4.67,1.16,9.69.35,14.43,0a29.63,29.63,0,0,0,10.94-2.52C538,895.6,536.48,891.85,534.23,892.75Z"/><path d="M526,902.11c-4.26,0-9.57-.67-13.63.75-1.13.39-1.7,2.26-.37,2.86,4.34,1.94,10,1.09,14.55.45C528.85,905.84,528.24,902.1,526,902.11Z"/><path d="M517,908.81c-3.14.43-6.52,0-9.56.89-1.87.55-1.58,2.85,0,3.51,3.24,1.36,7.42.53,10.77,0C521.11,912.77,519.84,908.42,517,908.81Z"/><path d="M482.47,542.53a1.69,1.69,0,0,0-3.37,0c-2.55,31.63-.53,63.78-.7,95.5s-1.31,63.78,1,95.49a1.37,1.37,0,0,0,2.73,0c2.33-31.71,1.17-63.72,1-95.49S485,574.16,482.47,542.53Z"/><path d="M472.31,669.27c2.05-19.93.48-40.69.37-60.73q-.18-30.37-.72-60.73a1.75,1.75,0,0,0-3.49,0q-.56,30.38-.71,60.73c-.11,20.05-1.68,40.78.37,60.73A2.09,2.09,0,0,0,472.31,669.27Z"/><path d="M496.21,689.51c2.43-22.44.88-45.66.71-68.21-.18-22.74-.5-45.47-.83-68.21a1.67,1.67,0,0,0-3.33,0c-.33,22.74-.66,45.47-.83,68.21-.17,22.56-1.73,45.77.71,68.21A1.79,1.79,0,0,0,496.21,689.51Z"/><path d="M459.72,635.83c3.21-26.44.75-54.38.48-81,0-3-4.58-3-4.61,0-.26,26.6-2.73,54.54.48,81A1.83,1.83,0,0,0,459.72,635.83Z"/><path d="M444.23,560.13c-.06,15.08-.55,30.3.82,45.33a1.41,1.41,0,0,0,2.81,0c1.37-15,.88-30.25.82-45.33C448.67,557.27,444.24,557.26,444.23,560.13Z"/><path d="M502.8,555.29c-.23,16.4-1.09,32.94.48,49.29a1.27,1.27,0,0,0,2.53,0c1.57-16.35.71-32.89.48-49.29A1.75,1.75,0,0,0,502.8,555.29Z"/><path d="M511.1,558.81c0,8.45-.64,17.14.48,25.53a1.77,1.77,0,0,0,3.53,0c1.12-8.39.51-17.08.48-25.53C515.58,555.92,511.11,555.92,511.1,558.81Z"/><path d="M520.39,569.42a.05.05,0,0,0,0-.1A.05.05,0,1,0,520.39,569.42Z"/><path d="M423.15,444.2c3.17,15.73,6.26,31.5,8.9,47.33S435.71,523.37,439,539c.36,1.75,3,1.29,3-.41.69-31.42-7.41-65.17-16.19-95.13A1.39,1.39,0,0,0,423.15,444.2Z"/><path d="M446.3,518.29c.4,1.72,3,1.31,3-.41.31-25.63-6.83-52.33-13-77-.46-1.84-3.2-1.06-2.83.77C438.67,467,440.39,493.19,446.3,518.29Z"/><path d="M507.08,532.4c.15,1.93,3.13,2.63,3.59.49,4.95-23.59,3.95-49.48,4.87-73.52.09-2.48-3.6-2.4-3.81,0C509.56,483.13,505.23,508.57,507.08,532.4Z"/><path d="M518.65,542.49c6.25-21.78,6.55-45.67,7-68.16,0-2-2.82-1.89-3,0-2.16,22.48-6.75,45.13-7.28,67.71A1.69,1.69,0,0,0,518.65,542.49Z"/><path d="M505,486.13c3.65-18.33,4.71-37.63,5.23-56.28.05-1.7-2.76-2.16-3-.41-2.8,18.45-5.25,37.64-4.92,56.32C502.32,487.27,504.69,487.71,505,486.13Z"/><path d="M431.67,426.35c-.37-9.27-3.16-18.42-6-27.18a1.3,1.3,0,0,0-2.51.69c1.59,8.95,2.74,18.22,5.59,26.88C429.26,428.27,431.74,428.09,431.67,426.35Z"/><path d="M421.43,428.46a1.35,1.35,0,0,0,2.64-.36c0-5.33-2.14-10.61-4.19-15.44-.92-2.15-4.08-.3-3.16,1.84C418.68,419.05,419.62,423.88,421.43,428.46Z"/><path d="M468.3,352.1a240.14,240.14,0,0,1,17.47-85.79c.72-1.78-2.26-3-3.11-1.31-12.81,25.72-18.37,54.81-19.33,83.4-1,30,1.16,63.55,10.5,92.22.55,1.67,3.41,1.5,3.23-.44C474.35,410.59,467.76,382.06,468.3,352.1Z"/><path d="M481.31,326.91c.38-2.5-3.41-3.63-3.87-1.06-5.08,28.37-4.09,61.1,3.16,89.1.55,2.14,4,1.73,3.9-.53-.43-14.08-3.48-28.1-4.58-42.16A199.42,199.42,0,0,1,481.31,326.91Z"/><path d="M457.82,326.46c.07-1.93-2.7-1.81-2.92,0-3.15,25.07-5.43,50-1.82,75.15,1.74,12.06,5.39,23.22,9,34.79,4.11,13,4.31,26.16,6.76,39.41.39,2.14,4,2.18,4.37,0,4-24-9.48-46.85-13.59-69.87C455,379.86,456.89,352.79,457.82,326.46Z"/><path d="M444.61,318c.83-17.45,2.9-34.79,7.83-51.58.62-2.1-2.55-2.94-3.24-.9a196.52,196.52,0,0,0-9.8,48.69c-1.2,16-2.89,34.18.24,50,.37,1.88,3.56,1.95,3.87,0C445.92,349.19,443.88,333.19,444.61,318Z"/><path d="M428,290c-1.71,14.62-3.89,29.19-6,43.76-1.74,12.15-4.77,24.77-4.76,37.05,0,2.55,3.57,2.93,4.33.59,4-12.25,4.78-26.12,6.32-38.9,1.7-14.14,2.87-28.32,4.1-42.5C432.22,287.44,428.28,287.52,428,290Z"/><path d="M416.49,304.21c-1.82,14.92-5.75,30.57-5.43,45.6a2,2,0,0,0,3.86.52c4.86-14.26,4.67-31.21,5.06-46.12C420,301.91,416.75,302.05,416.49,304.21Z"/><path d="M432.74,227.25c-8.25,22.5-18.22,46.05-21,70-.32,2.76,3.63,2.8,4.49.6C425,275.56,429,251.08,436,228.14,436.64,226,433.48,225.24,432.74,227.25Z"/><path d="M397,298.69c13.61-17.94,20.41-42.47,25.22-64.09a1.6,1.6,0,0,0-3.09-.86c-6.22,22.27-17.28,41.51-26.29,62.52A2.41,2.41,0,0,0,397,298.69Z"/><path d="M399.93,269c4.62-6.23,6.45-14.62,8.09-22.07a1.77,1.77,0,0,0-3.41-.94c-2.44,7.19-6.22,14.29-7.73,21.73A1.68,1.68,0,0,0,399.93,269Z"/><path d="M495.88,315.77c-1,16-2.88,34.85,1.85,50.39a2.13,2.13,0,0,0,4.17-.57c.89-16.35-2.73-33.32-2.78-49.82C499.12,313.67,496,313.7,495.88,315.77Z"/><path d="M525.19,334.76a469.45,469.45,0,0,1,7.73-61.87c.29-1.42-1.83-2-2.2-.6-5.18,20.08-9.13,39.8-10.71,60.51-1.48,19.44-3.91,42.38,1.36,61.36.56,2,3.22,1.41,3.43-.46C526.91,374.41,524,354.27,525.19,334.76Z"/><path d="M511.24,312.94c-.48-2.72-4.49-1.53-4.1,1.13,3.57,24.56-3.73,51.9,3.87,75.67.68,2.13,4,1.81,4-.54-.05-13.25-1.31-26.46-1.22-39.76A203.55,203.55,0,0,0,511.24,312.94Z"/><path d="M534.5,306.07c-3,16.62-6.15,34.07-4.19,51a1.74,1.74,0,0,0,3.48,0c2.15-16.77,1.82-33.73,4-50.52C538.05,304.65,534.84,304.21,534.5,306.07Z"/><path d="M501.89,280.67c-.37,2.13,2.85,3.07,3.28.9a166.89,166.89,0,0,1,13.27-40.19c5.78-11.92,14.69-22,20.39-33.78a1.51,1.51,0,0,0-2.36-1.82c-10.47,8.38-17.24,22.91-22.58,34.92A169,169,0,0,0,501.89,280.67Z"/><path d="M525.63,256.15a201.34,201.34,0,0,1,10.5-23.43c3.6-6.77,8.42-13,11.52-20,.76-1.71-1.24-3.61-2.74-2.12-11.34,11.31-17.79,29.67-22.53,44.68C521.72,257.35,524.88,258.15,525.63,256.15Z"/><path d="M537.63,245.61c-.67,2.4,3,3.39,3.72,1a95.56,95.56,0,0,1,5.74-14.36c1.89-3.79,4.73-7.37,5.92-11.43.48-1.65-1.52-2.52-2.69-1.56-3.6,3-5.78,8.23-7.69,12.44A99,99,0,0,0,537.63,245.61Z"/><path d="M476.55,246.27a105.53,105.53,0,0,1,12-29.16c5.14-8.36,12.38-14.6,18.15-22.37,1.21-1.63-1.08-3.51-2.63-2.64-17.56,9.9-27.84,34.34-30.75,53.27C473,247.46,476,248.42,476.55,246.27Z"/><path d="M493.6,229.39A109,109,0,0,1,505.14,211c4.11-5.26,9.53-9.54,13.31-15,1.08-1.56-1-3.14-2.42-2.41-12.21,6.11-20.64,22.46-25.22,34.63C490.21,229.83,492.83,230.93,493.6,229.39Z"/><path d="M510.08,224.48A151.36,151.36,0,0,1,520,211.31c3-3.62,6.72-6.82,9.21-10.84a2,2,0,0,0-2.67-2.66c-8.67,5.09-15.16,16.07-20.12,24.54C505.06,224.71,508.59,226.71,510.08,224.48Z"/><path d="M471.58,220.55a55.07,55.07,0,0,1,8.22-15.21c3.17-4.28,7.16-8.13,9.69-12.84.74-1.37-.87-3.41-2.34-2.33-9.11,6.74-16,18.66-18.82,29.48A1.69,1.69,0,0,0,471.58,220.55Z"/><path d="M465.07,207.69a32.89,32.89,0,0,1,4.87-9.15c1.92-2.6,4.42-5,5.82-7.9.65-1.38-.8-3.36-2.31-2.31-5.73,4-10,11.83-11.83,18.41C461,209,464.35,209.86,465.07,207.69Z"/><path d="M458.53,198.36c1.18-1.91,2.43-3.79,3.8-5.58s2.77-3.26,3.46-5.32c.48-1.42-1.18-2.33-2.33-1.79-2,1-3.35,2.87-4.66,4.61a69.54,69.54,0,0,0-4,5.92C453.39,198.57,457.08,200.71,458.53,198.36Z"/><path d="M438.14,211.28c2.83-4.54,5.87-8.93,9-13.25,2.47-3.37,6.54-6.88,7-11.16a1.3,1.3,0,0,0-1.63-1.24c-4.09,1.17-6.66,6-9,9.3a135.69,135.69,0,0,0-8.84,14.32A2,2,0,0,0,438.14,211.28Z"/><path d="M431.87,203.16c1.42-1.68,2.88-3.33,4.41-4.93s3.11-3,3.83-5a1.92,1.92,0,0,0-2.34-2.35c-2.13.74-3.63,2.56-5.07,4.22s-2.93,3.53-4.32,5.35C426.85,202.46,430.25,205.1,431.87,203.16Z"/><path d="M413.77,210.16c1.68-1.27.21-4.06-1.7-2.91a58.1,58.1,0,0,0-16.39,14.49c-3.6,4.71-9.17,12.19-8.7,18.39a1.54,1.54,0,0,0,2.6,1.08c3.92-4.08,5.47-10.58,8.8-15.32A70.46,70.46,0,0,1,413.77,210.16Z"/><path d="M399.11,229.1c-1.17,2.27-2.34,4.54-3.49,6.82-1,2-2.23,4-2.47,6.24-.16,1.59,2,2.29,3.05,1.26,1.55-1.58,2.27-3.86,3.14-5.88l2.85-6.64C403.07,228.84,400.18,227,399.11,229.1Z"/><path d="M555.18,257c.56,19.63-9.93,43.32-2.26,62.26.78,1.93,3.88,1.87,3.86-.52-.09-10.42-.58-20.25.64-30.68S559.78,267.47,559,257C558.76,254.64,555.11,254.57,555.18,257Z"/><path d="M544.12,292.54c-1.78,9.11-4,21.13-.37,30,.55,1.33,3.07,1.91,3.33,0,.62-4.61-.18-9.24-.29-13.88a115.12,115.12,0,0,1,.72-15.64C547.73,291.08,544.5,290.64,544.12,292.54Z"/><path d="M551.67,245.81a2.09,2.09,0,0,0,4.17,0,70.81,70.81,0,0,1,.64-7.84c.3-2.09.83-3.95-.13-5.9a1.68,1.68,0,0,0-2.62-.34c-1.69,1.56-1.72,3.92-1.92,6.11A64.22,64.22,0,0,0,551.67,245.81Z"/><path d="M487.51,331.29c0-1.4-2-1.33-2.13,0-2.38,22-3.76,47.54,2.31,69a1.39,1.39,0,0,0,2.72-.37c-.12-11.43-2.26-22.83-2.84-34.26S487.2,342.74,487.51,331.29Z"/><path d="M421.28,112.17c6.65,1.12,13.32,1,20,1.28,3.07.11,6.19.41,9.29.57a9,9,0,0,0,6.67,6c.16,3.33.5,6.67.62,10,.23,6.72.16,13.4,1.28,20a1,1,0,0,0,2,0c1.12-6.64,1.05-13.32,1.28-20,.12-3.39.48-6.84.63-10.27a9,9,0,0,0,5.55-5.67c3.47-.14,7-.51,10.4-.63,6.72-.24,13.39-.16,20-1.28a1.06,1.06,0,0,0,0-2c-6.65-1.12-13.32-1-20-1.28-3.29-.12-6.62-.45-9.95-.61a9.26,9.26,0,0,0-6.09-7.4c-.18-2.86-.44-5.73-.54-8.56-.23-6.72-.16-13.4-1.28-20a1,1,0,0,0-2,0c-1.12,6.64-1.05,13.32-1.28,20-.1,2.73-.35,5.5-.52,8.26a9.21,9.21,0,0,0-7.2,7.76c-3,.17-5.93.45-8.86.55-6.72.24-13.39.16-20,1.28A1.06,1.06,0,0,0,421.28,112.17Z"/><path d="M862.36,385.36c-6.64-1.12-13.32-1-20-1.28-3.29-.12-6.62-.46-9.94-.61a9.27,9.27,0,0,0-6.1-7.4c-.17-2.87-.43-5.73-.53-8.57-.24-6.72-.16-13.39-1.28-20a1.06,1.06,0,0,0-2,0c-1.12,6.65-1,13.32-1.28,20-.1,2.74-.34,5.5-.52,8.27a9.21,9.21,0,0,0-7.2,7.76c-3,.17-5.92.44-8.85.55-6.72.24-13.4.16-20,1.28a1,1,0,0,0,0,2c6.64,1.13,13.32,1.05,20,1.29,3.07.11,6.18.4,9.29.57a9,9,0,0,0,6.67,6c.15,3.33.49,6.67.61,10,.24,6.72.16,13.4,1.28,20a1.06,1.06,0,0,0,2,0c1.12-6.64,1-13.32,1.28-20,.12-3.4.48-6.84.63-10.28a9,9,0,0,0,5.55-5.66c3.47-.15,7-.51,10.39-.63,6.72-.24,13.4-.16,20-1.29A1,1,0,0,0,862.36,385.36Z"/><path d="M245.5,641.49c-6.64-1.12-13.32-1-20-1.28-3.29-.12-6.62-.46-9.94-.61a9.25,9.25,0,0,0-6.1-7.4c-.17-2.87-.43-5.73-.53-8.57-.24-6.71-.16-13.39-1.28-20a1.06,1.06,0,0,0-2,0c-1.12,6.65-1,13.33-1.28,20-.1,2.74-.34,5.5-.51,8.27a9.21,9.21,0,0,0-7.21,7.76c-3,.17-5.92.44-8.85.55-6.72.24-13.4.16-20,1.28a1,1,0,0,0,0,2c6.64,1.13,13.32,1,20,1.29,3.07.11,6.18.4,9.29.57a9,9,0,0,0,6.67,6c.15,3.33.49,6.67.61,10,.24,6.72.16,13.4,1.28,20a1.06,1.06,0,0,0,2,0c1.12-6.64,1-13.32,1.28-20,.12-3.4.48-6.84.63-10.28a9,9,0,0,0,5.55-5.66c3.47-.15,7-.51,10.39-.63,6.72-.24,13.4-.16,20-1.29A1,1,0,0,0,245.5,641.49Z"/><path d="M739.84,752.3c-6.64-1.12-13.32-1-20-1.28-3.29-.12-6.62-.46-9.95-.61a9.24,9.24,0,0,0-6.09-7.4c-.17-2.87-.43-5.73-.53-8.57-.24-6.71-.17-13.39-1.29-20a1.05,1.05,0,0,0-2,0c-1.12,6.65-1,13.33-1.28,20-.1,2.74-.35,5.5-.52,8.27a9.21,9.21,0,0,0-7.2,7.76c-3,.17-5.93.44-8.86.55-6.72.24-13.39.16-20,1.28a1.05,1.05,0,0,0,0,2c6.65,1.13,13.32,1.05,20,1.29,3.08.11,6.19.4,9.29.57a9,9,0,0,0,6.68,6c.15,3.33.49,6.67.61,10,.23,6.72.16,13.4,1.28,20a1,1,0,0,0,2,0c1.12-6.64,1-13.32,1.29-20,.12-3.4.47-6.84.62-10.28a9,9,0,0,0,5.55-5.66c3.48-.15,7-.51,10.4-.63,6.72-.24,13.4-.16,20-1.29A1,1,0,0,0,739.84,752.3Z"/><path d="M778.83,477.23a17.94,17.94,0,1,0,17.94,17.94A18,18,0,0,0,778.83,477.23Zm0,29.71a11.78,11.78,0,1,1,11.77-11.77A11.78,11.78,0,0,1,778.83,506.94Z"/><path d="M212.77,398.24a17.94,17.94,0,1,0-17.94,17.94A18,18,0,0,0,212.77,398.24Zm-29.71,0A11.77,11.77,0,1,1,194.83,410,11.78,11.78,0,0,1,183.06,398.24Z"/><path d="M283.17,758.82a17.94,17.94,0,1,0,17.93,17.94A18,18,0,0,0,283.17,758.82Zm0,29.71a11.78,11.78,0,1,1,11.77-11.77A11.79,11.79,0,0,1,283.17,788.53Z"/></svg>