<svg id="Layer_1" data-name="Layer 1" xmlns="http://www.w3.org/2000/svg" viewBox="0 0 1000 1000"><defs><style>.cls-1{fill:#d7c4a0;}.cls-2{fill:#b96844;}.cls-3{fill:#a6dde5;}.cls-4{fill:#519041;}</style></defs><title>Virgo</title><path class="cls-1" d="M686.59,372.47c-.25-5.53.31-12.86-8.94-11.61-2.6.35-6.17,3.6-8.33,4.88q-10.25,6.12-20.51,12.22a4.56,4.56,0,0,1-6.15-1.61c-8.73-14.89-7.78-31.57-7.48-48.22.39-22.19-5.55-39.86-19.44-57.29a4.66,4.66,0,0,1-.69-1.19l-6.56-.11c-24.39-.34-46.13-6.49-64.88-22.64A65.45,65.45,0,0,1,524.91,221a64.46,64.46,0,0,1-12.57-3.55c-.44,1.38-.93,2.74-1.48,4.08-8.16,19.86-27.25,34.51-46.8,42.15-13.91,5.44-28.86,6.33-43.92,6.56a4.74,4.74,0,0,1-.41.62c-13.91,17.44-19.83,35.08-19.44,57.29.3,16.65,1.25,33.33-7.48,48.22a4.57,4.57,0,0,1-6.15,1.61q-10.26-6.1-20.51-12.22c-4.83-2.87-6.77-5.48-12.24-3.37s-4.8,4.5-5,10.1c-.6,15,2.06,31.26,8.67,44.83,3.55,7.28,8.39,13.48,16,16.72,5.36,2.28,10.53,3.34,15.21,7.08,7.62,6.09,11.36,15.25,14.92,24A357.31,357.31,0,0,0,423,506.09c7.05,12.6,14.58,26.12,25.72,35.59,1.29,1.09,2.6,2.1,3.95,3a4.24,4.24,0,0,1,2.42,1.59c15.12,9.43,33.78,10.81,51.82,10.19a3.85,3.85,0,0,1,3.18-1.11c2.5.19,5,.38,7.61.55,2.58-.17,5.12-.36,7.62-.55a3.84,3.84,0,0,1,3.18,1.11c18,.62,36.7-.75,51.82-10.18a4.12,4.12,0,0,1,2.43-1.6c1.34-.94,2.66-2,3.94-3,11.52-9.8,19.29-23.94,26.52-37a360.77,360.77,0,0,0,18.54-39.52c3.71-9.17,7.67-18.75,15.9-24.79,4.37-3.22,9.33-4.29,14.23-6.34,7.6-3.18,12.49-9.5,16-16.72C684.51,403.76,687.25,387.42,686.59,372.47ZM379.87,431.8c-4.69-.13-8.67-3.7-11.36-7.29-3.85-5.14-4-11.67-7.51-16.95-1.11-1.68,1.49-3.08,2.63-1.54,3,4.07,4.36,9,6.82,13.33,2.58,4.62,6.77,6.46,10.51,9.81A1.56,1.56,0,0,1,379.87,431.8Zm-17.54-45.69c4.11-1.73,7,3.9,9,6.62a48.64,48.64,0,0,1,7.57,15c.53,1.84-2.37,3.13-3.15,1.33a61.46,61.46,0,0,0-6.09-10.38c-2.15-3.12-4.56-7.24-7.75-9.38A1.76,1.76,0,0,1,362.33,386.11Zm26,38.68c-2.24-9.59-5-19-9.39-27.85s-10.48-13.05-18.39-18.2c-1.79-1.17-1.25-4.43,1.16-4.29C383.79,375.78,387.5,408,391,424.07,391.32,425.77,388.75,426.49,388.35,424.79Zm152.9-108a91,91,0,0,1,36.64-23c12.29-4,27.46-6.89,39.31-.29,5,2.82.52,10.58-4.54,7.76-10.25-5.71-24.71-1.7-35.08,2.13a81.77,81.77,0,0,0-30,19.77C543.54,327.27,537.2,320.91,541.25,316.78ZM428.11,295.83c19.45-1.29,40.7-2.26,57.81,8.8,15.08,9.75,20.62,25.9,22,43.09,1.66,20.79.53,42.65-7.49,62.11-3.54,8.58-11.74,21-10.23,30.76,1.2,7.78,9.79,5.52,16.05,5.71l17,.5c5.78.18,5.78,9.16,0,9-10.67-.32-22.67.84-33.15-1.13-6.8-1.28-8.76-6.2-8.88-12.63-.38-19.63,13.68-36.84,16.74-56,3.13-19.67,5-49-7.88-65.7-14.4-18.61-41-16.91-61.93-15.52C422.33,305.2,422.37,296.21,428.11,295.83Zm13.7,73.81c-12.38.24-25.82-.26-33-11.91-3-5,4.75-9.46,7.76-4.54,5.62,9.18,19.08,7.78,28.39,7.37,11.33-.5,22-3.14,29.6-12.08,3.74-4.42,10.07,2,6.35,6.36C471.11,366.47,456.4,369.35,441.81,369.64Zm116.2,118c-6.17,13.23-23.82,21.2-37.7,22-16.4,1-32.32-6.38-43-18.66-3.78-4.34,2.55-10.72,6.35-6.35,8.63,9.92,20.63,16.08,33.93,16.1,11.6,0,27.45-6.45,32.66-17.64C552.69,477.86,560.43,482.43,558,487.64Zm68.61-129.91c-7.14,11.65-20.58,12.15-33,11.91-14.59-.29-29.3-3.17-39.14-14.8-3.72-4.39,2.61-10.78,6.35-6.36,7.58,9,18.27,11.58,29.6,12.08,9.31.41,22.76,1.82,28.39-7.37C621.87,348.26,629.64,352.78,626.62,357.73Zm46.88,48.65c-3.48,5.28-3.67,11.82-7.52,16.95-2.69,3.58-6.67,7.16-11.36,7.29a1.56,1.56,0,0,1-1.09-2.64c3.75-3.35,7.92-5.18,10.52-9.8,2.45-4.38,3.79-9.27,6.81-13.34C672,403.3,674.6,404.71,673.5,406.38Zm-17.9.16a48.55,48.55,0,0,1,7.56-15c2-2.71,4.89-8.35,9-6.62a1.77,1.77,0,0,1,.42,3.18c-3.2,2.13-5.59,6.24-7.75,9.38a61,61,0,0,0-6.09,10.37C658,409.69,655.06,408.35,655.6,406.54Zm18.32-29c-7.91,5.16-14,9.46-18.39,18.21s-7.15,18.27-9.39,27.84c-.4,1.7-3,1-2.61-.72,3.45-16,7.18-48.29,29.23-49.62C675.17,373.13,675.71,376.39,673.92,377.56Z"/><path class="cls-1" d="M579.73,556.86l-.37.21c-19.11,9.2-40.81,9.16-61.65,7.84-13.15.83-26.87,1.14-39.94-1.07.05,1.27,0,2.56-.06,3.81a1.79,1.79,0,0,1-3.58,0,37.52,37.52,0,0,1,0-4.5l-1.48-.33c.08,1.41.05,2.82,0,4.25a1.67,1.67,0,0,1-3.33,0,47,47,0,0,1,.09-5c-.88-.24-1.75-.48-2.62-.75,0,.71,0,1.43,0,2.13l-.12,4.82a1.44,1.44,0,0,1-2.88,0c0-1.61-.08-3.22-.11-4.82a19.53,19.53,0,0,1,.07-3.15c-1-.34-2-.68-2.94-1.07.91,2.25.51,4.81.52,7.25,0,3.39,0,6.77-.06,10.16a1.53,1.53,0,0,1-3,0c0-3.39-.08-6.77-.06-10.16,0-2.68-.49-5.5.81-7.91a1.09,1.09,0,0,1,.11-.1c-1.13-.49-2.25-1-3.35-1.54-.23,13.77-.54,27.55-1.05,41.31-.54,14.29.54,29.93-1.8,44,2.11,2.9,4.33,5.92,6.71,8.73-1.9-15.39-.15-31.79.26-47.2a1.34,1.34,0,0,1,2.67,0c.44,16,2.34,33,.07,48.9a1.11,1.11,0,0,1-.69.87,38.57,38.57,0,0,0,5.68,5c-.83-9.33-.13-18.92.05-28.23a1.36,1.36,0,0,1,2.71,0c.19,9.87,1,20-.12,29.88a20.51,20.51,0,0,0,3.52,1.51c-.68-5.13-.11-10.35.17-15.51a1.14,1.14,0,0,1,2.28,0c.29,5.37.89,10.79.07,16.11a14.89,14.89,0,0,0,2,.22c.16,0,.29.05.43.07l.44-.07a19.55,19.55,0,0,1,0-3.25c.06-1.76.12-3.52.19-5.28a1.53,1.53,0,0,1,3.05,0c.07,1.76.13,3.52.2,5.28a26.21,26.21,0,0,1,0,2.94,24.12,24.12,0,0,1,11,2.35c4.24-11.14,15.71-17.54,27.42-17.9,13.43-.4,22.77,5.69,26.69,18.1a27.61,27.61,0,0,1,7.92-1.88,4.82,4.82,0,0,1,1.58-.36c11.91-.5,18.49-11.28,25.31-20.91-2.22-13.93-1.19-29.34-1.72-43.42C580.28,584.43,580,570.65,579.73,556.86Z"/><path class="cls-2" d="M574.82,710.17c-9.09.22-16.93,5.45-24,10.69a31.27,31.27,0,0,1,1.36,9.13,31.72,31.72,0,0,1-1.33,9c6.56,4.34,13.84,8.4,21.46,10.1,12.87,2.87,23.1-5.62,22.56-18.7C594.44,719,586.68,709.88,574.82,710.17Zm9.51,23.07c-2.12-.5-3.48-2.61-5.23-3.8a18.59,18.59,0,0,0-6.34-2.67c-2.33-.52-1.82-4.32.57-4.17a18.09,18.09,0,0,1,8.31,2.5c2.23,1.34,5.16,3.41,5.13,6.28A2,2,0,0,1,584.33,733.24Zm3.41-6c-4.4-2.5-6.92-6.41-12.41-6.81-5.83-.43-12.37,2.25-18.08,3.19a2,2,0,0,1-1.06-3.86c7-2.42,15.88-6.24,23.45-4.29,5,1.29,10.34,4.72,10.84,10.19A1.84,1.84,0,0,1,587.74,727.2Z"/><path class="cls-2" d="M520.57,761.62a31.43,31.43,0,0,1-9-1.33c-4.34,6.56-8.4,13.85-10.1,21.46-2.87,12.88,5.62,23.1,18.7,22.57,11.43-.47,20.55-8.23,20.26-20.09-.22-9.08-5.45-16.92-10.68-24A31.72,31.72,0,0,1,520.57,761.62ZM511,799.06c-11.55-3.88-3.28-21.45-.93-28.49a1.44,1.44,0,0,1,2.77.76,117.54,117.54,0,0,0-3,13.73c-.64,4.92.76,7.61,2.95,11.68A1.6,1.6,0,0,1,511,799.06Zm5.25-6.16a1.43,1.43,0,0,1-2.07.84c-2.74-1.66-2.52-6.26-2-9,.34-1.92,3.31-1.39,3.31.45a17.47,17.47,0,0,0,.39,3.95A8,8,0,0,1,516.25,792.9Z"/><path class="cls-2" d="M494.16,747.36c-8.68,6.33-18.84,11.74-29.6,11.43-4.37,7.7-4.49,16,2.38,22.78s16.71,9.11,25.11,4.29c.19-10.36,5.59-20.71,11.26-29.39A31.89,31.89,0,0,1,494.16,747.36Zm-8.88,35.28c-8.93,2.63-17.91-7-19.75-14.81-.36-1.52,1.86-2.59,2.6-1.1a23.28,23.28,0,0,0,7.66,8.87c3.06,2.06,6.59,2.64,9.86,4.19C486.92,780.39,486.47,782.29,485.28,782.64Zm.4-5.86c-4.29-.11-8.27-3.36-11.12-6.31-1.28-1.33.49-3.84,2.05-2.65a25.1,25.1,0,0,0,4.84,3,45.93,45.93,0,0,1,5.23,2.28A2,2,0,0,1,485.68,776.78Zm1.73-5.91a3.69,3.69,0,0,1-3.35-.27c-1.05-.47-2.06-.94-3.15-1.32-2.34-.81-1.37-4.52,1-3.75,2,.63,6,1.63,6.07,4.28A1.24,1.24,0,0,1,487.41,770.87Z"/><path class="cls-2" d="M494.1,712.73a31.73,31.73,0,0,1,9.1-9.15c-6.36-8.73-11.78-19-11.42-29.76-16.59-9.88-36.42,11.45-27.09,27.64C475.06,701.65,485.41,707.06,494.1,712.73Zm-16.28-12.54a1.71,1.71,0,0,1-2.91,0c-1.59-2.67-.33-6,1-8.53a17.94,17.94,0,0,1,6.31-6.75c1.71-1.12,3.76,1.52,2.19,2.84a15.62,15.62,0,0,0-4.38,5.86C479.09,695.74,479.14,698.27,477.82,700.19Zm9.25-2.85c-.25,1.51-.51,3.36-1.78,4.35a1.73,1.73,0,0,1-2.85-.75c-.53-1.44.07-3,.42-4.45s.76-3,1.05-4.57c.38-2,3.65-1.53,3.58.49A36.84,36.84,0,0,1,487.07,697.34Zm-2-22.35c1.94-.65,3.14,2.32,1.37,3.27-6.05,3.24-13.3,8-14.69,15.27a1.45,1.45,0,0,1-2.63.34C464.55,684.7,478,677.33,485.06,675Z"/><path class="cls-2" d="M547.05,747.25a31.77,31.77,0,0,1-9.11,9.15c6.35,8.7,11.76,18.88,11.43,29.66,8.47,4.56,17.17,3.94,23.78-3.49a24.71,24.71,0,0,0,2.5-3.35c-.93-2.4-.07-5.4,2.61-5.9a19.29,19.29,0,0,0-1.91-14.8C566,758.3,555.71,752.9,547.05,747.25Zm3,23.18c0-2.65,4-3.65,6.07-4.29,2.41-.76,3.38,3,1,3.76-1.08.38-2.1.85-3.14,1.32s-2.25.88-3.35.27A1.22,1.22,0,0,1,550.07,770.43Zm1.34,3.27a46.57,46.57,0,0,1,5.22-2.28,24.87,24.87,0,0,0,4.85-3c1.57-1.2,3.31,1.33,2,2.65-2.84,2.95-6.83,6.2-11.11,6.31A2,2,0,0,1,551.41,773.7Zm21.14-5.25c-1.84,7.8-10.82,17.44-19.74,14.81-1.2-.35-1.64-2.25-.37-2.85,3.26-1.55,6.8-2.12,9.85-4.2a23.27,23.27,0,0,0,7.67-8.86C570.7,765.85,572.91,766.94,572.55,768.45Z"/><path class="cls-2" d="M520.57,698.35a31.45,31.45,0,0,1,9,1.34c4.33-6.57,8.39-13.85,10.09-21.46,2.87-12.88-5.62-23.11-18.7-22.57-11.42.46-20.55,8.23-20.26,20.09.22,9.08,5.45,16.92,10.69,24A31.66,31.66,0,0,1,520.57,698.35Zm-5.92-13.77c-2.35-2.12-2.75-6.14-2.76-9.12,0-2.38,3.62-2.36,3.68,0,.07,2.84,1.35,5.32,1.57,8.09C517.24,684.89,515.51,685.35,514.65,684.58Zm-8.16-12.4c1.09-6,3.75-11.28,10-13.07,1.73-.5,2.92,2.18,1.24,2.95-4.91,2.26-6.3,7.27-7.11,12.19-1,6,2.28,10.69,3.61,16.39.17.74-.82,1.47-1.38.8C507.67,685.23,505,680.18,506.49,672.18Z"/><path class="cls-2" d="M547,712.62c8.81-6.42,19.12-11.88,30-11.41,9.28-13.48-3.82-29.73-18.16-29.85-.55.07-1.1.14-1.66.16a4.75,4.75,0,0,1-.54,0,18.25,18.25,0,0,0-5.76,1.59,4.79,4.79,0,0,1-1.81.44c0,10.56-5.48,21.14-11.25,30A31.86,31.86,0,0,1,547,712.62ZM565,699a1.71,1.71,0,0,1-2.91,0c-1.32-1.92-1.26-4.44-2.18-6.58a15.52,15.52,0,0,0-4.38-5.86c-1.58-1.33.5-3.94,2.19-2.83a17.86,17.86,0,0,1,6.32,6.74C565.3,693,566.56,696.34,565,699Zm-10.14-25.2c7.06,2.34,20.5,9.71,15.94,18.89a1.46,1.46,0,0,1-2.63-.35c-1.39-7.28-8.63-12-14.69-15.27C551.66,676.13,552.9,673.17,554.83,673.81ZM556,690.75c.29,1.54.68,3,1,4.56s1,3,.42,4.45a1.73,1.73,0,0,1-2.85.75c-1.27-1-1.53-2.83-1.78-4.34a37.13,37.13,0,0,1-.42-4.94C552.32,689.19,555.6,688.72,556,690.75Z"/><path class="cls-2" d="M490.29,739.12a31.5,31.5,0,0,1,0-18.18c-6.56-4.33-13.84-8.39-21.46-10.09-12.88-2.87-23.1,5.62-22.57,18.7.47,11.42,8.23,20.55,20.09,20.26C475.41,749.59,483.25,744.36,490.29,739.12ZM450.37,726.7c.51-5.46,5.83-8.9,10.85-10.19,7.59-2,16.34,1.86,23.44,4.3a2,2,0,0,1-1.06,3.85c-5.82-1-12.13-3.54-18.08-3.19-5.67.34-7.93,4.28-12.4,6.81A1.85,1.85,0,0,1,450.37,726.7Zm6.16,7.63a2,2,0,0,1-2.45-1.86c0-2.88,2.9-4.94,5.14-6.29a17.93,17.93,0,0,1,8.31-2.49c2.41-.16,2.87,3.65.57,4.17a18.42,18.42,0,0,0-6.34,2.67C460,731.71,458.65,733.83,456.53,734.33Z"/><path class="cls-2" d="M520.57,707.34A22.65,22.65,0,1,0,543.22,730,22.67,22.67,0,0,0,520.57,707.34Zm-7.09,38.87c-7.66.08-11.28-10.52-10.69-16.84.78-8.47,7.34-14.42,15.42-15.91.88-.16,1.58,1.13.65,1.54-5.7,2.56-11.17,8.07-11.53,14.67-.37,6.84,4.29,9.35,7.36,14.43A1.42,1.42,0,0,1,513.48,746.21Zm7.38-1.17c-4.14-.51-6.17-4.72-7.74-8.18-1.94-4.26-.54-7.77,1.3-11.74.38-.83,1.68-.23,1.44.61a13.91,13.91,0,0,0,1.75,10.45c1.4,2.28,3.38,4.3,4.46,6.74C522.44,743.77,522,745.18,520.86,745Zm6.39-3a4.23,4.23,0,0,1-2.82-.78,14.92,14.92,0,0,1-2.09-1.8,22.2,22.2,0,0,1-3.41-4.81,1.57,1.57,0,0,1,2.7-1.58,23.85,23.85,0,0,0,3.4,3.7c.62.56,1.25,1.1,1.88,1.65a4.77,4.77,0,0,1,1.29,2A1.12,1.12,0,0,1,527.25,742Z"/><path class="cls-3" d="M680.17,706.52c-3.11-5.51-10.76-1-14.75-.1-9.66,2.18-25.11,4.51-30.43-6.5-2.21-4.59-1.77-9.91-.68-14.72.55-2.44,2.75-6.74,2.55-9.25-.9-11.09-8.62-5.43-13.07-3.71-8.42,3.24-20.84,4.39-25-5.81-3.34-8.16,3.55-14.78,2.94-22.73,1-3.31-.43-5.29-4.22-5.91a47.32,47.32,0,0,0-4.65,5.73c-1.76,2.33-3.47,4.7-5.27,7-4.31,5.5-9.5,11.46-15.59,15.63a34.79,34.79,0,0,1,6.27,4c3.75-6.69,9.12-12.63,13.14-19.12a1.17,1.17,0,0,1,2,1.18c-3.48,6.9-6.8,14.84-12.13,20.66a32.64,32.64,0,0,1,3.27,3.9l.13-.21c1.6-2.74,3.12-5.53,4.67-8.29.87-1.55,3.63-.46,2.92,1.23a93.47,93.47,0,0,1-4.37,8.94c-.37.67-.73,1.36-1.11,2.05a27.24,27.24,0,0,1,1.45,3.44c.81-1.16,1.62-2.32,2.38-3.47,1.13-1.73,3.9-.14,2.78,1.63-1.35,2.16-2.64,4.5-4.07,6.71a23.61,23.61,0,0,1-3,14.39,25.47,25.47,0,0,1,8.73,5.84c.06-.06.09-.13.16-.19,5.75-4.84,11.59-8.72,16.61-14.47,5.53-6.34,10.69-13,16-19.59,1-1.31,3.16.4,2.29,1.76-7.21,11.39-17.77,32.34-32.52,35.43a30,30,0,0,1,2.93,4.8c1.16-.87,2.39-1.65,3.54-2.56a70.09,70.09,0,0,0,5.12-4.79,72.94,72.94,0,0,1,10.14-8.69c1.46-1,3.25,1.35,1.88,2.42-6,4.65-11.13,15.63-19,17.71a34.12,34.12,0,0,1,1.61,8.33,78.72,78.72,0,0,1,7.8-5.37c1.64-1.06,3.13,1.54,1.52,2.6a61.15,61.15,0,0,1-9,5.47.83.83,0,0,1-.21.06,34.3,34.3,0,0,1-.4,5.17,78.65,78.65,0,0,1,7.75-3.09q5.89-2.31,11.59-5.11a1.74,1.74,0,0,1,1.76,3c-6.31,4-14.5,9.53-22.18,9.74a24.88,24.88,0,0,1-1.17,2.91c7-2,13.79-2.71,20.59-5.91,6.16-2.88,12.25-6,18.2-9.32a1.27,1.27,0,0,1,1.28,2.19c-12,7.58-25.9,20.58-41.34,16.93a1.65,1.65,0,0,1-.77-.43c-3,4.18-7.52,7.26-13.44,9.13a27.47,27.47,0,0,1,1.57,16.63c29.37,1,59.9-9.28,80.19-31.08,5.44-5.85,9.94-12.67,11.94-20.49C680.41,718.49,682.25,710.21,680.17,706.52Zm-73.51-14.44c-2.62,2.16-5.18,4.41-7.8,6.58-2.28,1.88-4.4,4.09-7.28,5a1.26,1.26,0,0,1-1.4-1.83c1.38-2.87,4.25-4.74,6.7-6.67s5.18-3.8,7.83-5.61C606.22,688.51,608.07,690.92,606.66,692.08Zm32.79,62.44c-12.75,10.06-28.78,16.84-45.1,13.46a1.28,1.28,0,0,1-.31-2.31c6.72-2.86,13.63-.57,20.54-2.66,7.76-2.35,16.76-5.87,23.53-10.23C639.16,752.11,640.44,753.74,639.45,754.52Zm33.26-40a107.37,107.37,0,0,1-36.5,34.16c-12.31,7-31.8,16.39-46.23,12.95-1.48-.35-2-2.76-.45-3.43,6.72-3,14.63-3.19,21.73-5.26a116.09,116.09,0,0,0,22.21-9,122.06,122.06,0,0,0,37.31-31C671.66,712,673.48,713.4,672.71,714.54Z"/><path class="cls-3" d="M447.9,650.52c-1.8-2.3-3.51-4.66-5.27-7a47.32,47.32,0,0,0-4.65-5.73c-3.79.62-5.19,2.6-4.22,5.91-.61,7.95,6.28,14.57,2.94,22.73-4.19,10.21-16.6,9.05-25,5.81-4.88-1.88-11.48-7.14-13.07,3.71-.39,2.7,1.95,6.51,2.55,9.25,1.06,4.83,1.54,10.11-.68,14.72-5.32,11-20.77,8.68-30.43,6.5-4-.9-11.64-5.41-14.75.1-2.08,3.69-.24,12,.71,15.67,2,7.82,6.5,14.64,11.94,20.49,21.4,23,54.18,33.17,85,30.81A27.94,27.94,0,0,1,455.35,757c-11.26-4.18-17.74-15.71-18.09-27.49-.41-13.4,5.65-22.72,18-26.66-5.67-12.78.6-27.11,11.21-34.9C459.07,663.89,452.89,656.89,447.9,650.52Zm-53.44,80c6,3.3,12,6.44,18.2,9.32,7.22,3.39,14.43,3.93,21.87,6.28,1.64.52,1.82,3.09,0,3.52-15.45,3.65-29.38-9.35-41.34-16.94A1.26,1.26,0,0,1,394.46,730.49Zm18.82-26.19c-1.4-1.08.43-3.39,1.87-2.43a72.43,72.43,0,0,1,10.14,8.7c1.67,1.63,3.3,3.33,5.12,4.79s3.78,2.48,5.36,4.11a1.73,1.73,0,0,1-1.21,2.91C425.33,722.06,419.82,709.38,413.28,704.3ZM430.39,733a62,62,0,0,1-9-5.47c-1.61-1.07-.12-3.67,1.52-2.61a63.1,63.1,0,0,1,8.89,6.29C432.81,732.2,431.49,733.52,430.39,733Zm-7.14,2.14c3.29,1.29,6.85,2.22,9.74,4.29,1.35,1,1,3.39-.9,3.34-7.7-.21-15.88-5.75-22.18-9.74a1.74,1.74,0,0,1,1.75-3Q417.35,732.86,423.25,735.18Zm16.9,34c-16.35,3.38-32.34-3.39-45.11-13.46-1-.79.3-2.4,1.34-1.74,6.77,4.36,15.77,7.88,23.53,10.22,6.92,2.1,13.82-.19,20.54,2.67C441.45,767.27,441.14,769,440.15,769.16ZM445,759.4c1.5.67,1,3.08-.44,3.43-14.43,3.44-33.94-6-46.24-13a107.55,107.55,0,0,1-36.5-34.16c-.78-1.15,1.06-2.57,1.93-1.49A122,122,0,0,0,401,745.18a115.9,115.9,0,0,0,23.54,9.33C431.27,756.39,438.61,756.56,445,759.4Zm-7.61-46.18c-15-2.73-25.69-24-33-35.53-.88-1.38,1.25-3.06,2.29-1.76,5.27,6.55,10.43,13.25,16,19.58,5,5.76,10.86,9.64,16.61,14.48C440.84,711.35,439.05,713.53,437.35,713.22Zm5.56-8.39c-2.88-.9-5-3.11-7.28-5-2.62-2.17-5.18-4.41-7.8-6.58-1.42-1.17.46-3.56,1.95-2.53,2.65,1.81,5.31,3.63,7.83,5.61s5.32,3.79,6.7,6.67A1.26,1.26,0,0,1,442.91,704.83Zm6.64-9.41c-3.59-3.32-5.89-8.08-8.47-12.18-1.11-1.78,1.65-3.36,2.79-1.63,2.66,4,6,8.09,7.5,12.75C451.73,695.44,450.31,696.11,449.55,695.42Zm2.34-8.43c-2.47-1.77-3.86-4.78-5.31-7.4a92.49,92.49,0,0,1-4.37-9c-.72-1.7,2.06-2.76,2.92-1.23,1.55,2.77,3.07,5.56,4.68,8.3,1.43,2.44,3.5,4.95,4.07,7.76C454.09,686.51,452.94,687.74,451.89,687Zm4.24-10.14c-7.14-5.86-11-15.41-15.06-23.49a1.18,1.18,0,0,1,2-1.19C448,660,454.82,667,458.36,675.55,458.93,676.92,457,677.58,456.13,676.85Z"/><path class="cls-4" d="M161.42,461.44a10.3,10.3,0,1,0,10.31,10.3A10.32,10.32,0,0,0,161.42,461.44Z"/><circle class="cls-4" cx="732.24" cy="782.21" r="10.3"/><path class="cls-4" d="M187.42,309.76a10.3,10.3,0,1,0,10.3,10.3A10.31,10.31,0,0,0,187.42,309.76Z"/><path class="cls-4" d="M654.71,667.59a3.58,3.58,0,0,1-2.29-3.78,3.49,3.49,0,0,1,2.29-4c13.2-5.65,26.28-11.84,38-20.25,23.93-17.19,38.39-43.82,30.61-73.37-6.44-24.42-22-45.74-25.91-71-8.09-52.34,47.1-85.24,46.93-136.1-.06-15.39-3-32.67-10.51-46.3s-21.27-22.31-35.15-28.66a137.33,137.33,0,0,0-25-8.51c11.69,4.16,23.3,13.89,32.68,21.58a101.2,101.2,0,0,1,26.58,32.85,1.05,1.05,0,0,1-1.82,1.06c-7.55-12.88-18.12-22.91-29.93-31.87-9.73-7.38-22.46-12.81-30.93-21.51a1.67,1.67,0,0,1,.8-2.74c-14.64-3.28-29.67-4.54-44.78-5.1,9.52,13.09,16.39,27.32,17.66,43.9,1.37,17.88-3,37.17,4.45,53.91Q658,362,667.72,356.24c4.91-2.9,10.21-6.47,16.22-5.24,9.67,2,11.35,13.28,11.63,21.47.75,22-4.33,53.39-24.22,66.67-5.27,3.53-11.78,4.27-17.1,7.58s-8.66,9.14-11.28,14.79c-5.53,12-10,24.37-15.89,36.18-9.55,19-20.71,40.84-38.44,53.76.22,14.44.53,28.89,1,43.33.25,7.41.62,14.82.93,22.22.19,4.75-.06,9.85,0,14.83a24.14,24.14,0,0,1,2.6-2.1c8.45-5.91,16.28.41,17.34,9.52a31.85,31.85,0,0,1-.81,10.65c-.34,1.51-1.16,3.13-1.36,4.65q-2.6,4,1.67,7.15l2.66,4.12c4.2,1.86,13.27-4.54,17.59-5.55,8.83-2.06,15.46,3.06,15.73,12.2.19,6.7-4.76,13.69-3.58,20.19,1.93,10.58,18.6,5.81,25.33,3.8,8.81-2.63,17.15-2.94,20.38,5.88a101.93,101.93,0,0,0,27.41-6.72c4.71-1.83,9.49-3.51,14.25-5.23C704,688.24,677.56,678,654.71,667.59ZM705.23,578a57.14,57.14,0,0,1-29.83,56.69,2.24,2.24,0,0,1-2.7-3.5C680.88,623,689.86,615.69,695,605c6.7-14.06,4.61-29.69.37-44.12-7-23.69-19.13-46.8-12.53-72,.57-2.19,3.79-1.25,3.35.92C679.83,521,701.87,547.94,705.23,578Zm23.88-197.89c.69-1.88,3.65-1.13,3,.84-5.11,16.67-16.57,29.79-25.21,44.64a198.87,198.87,0,0,0-13.32,27.48c-2.88,7.39-4.47,15.56-8.44,22.43a1.68,1.68,0,0,1-3.11-.84c-.18-15.34,9.74-33.27,17-46.39C708.31,411.81,722.62,398,729.11,380.11Zm-65.9-35.44c-.26,2.07-3.33,2.2-3.34,0-.1-17.76-5.49-30.5-12.61-46.34-.8-1.79,1.38-3.89,2.89-2.23C661.54,308.5,665.17,328.43,663.21,344.67ZM673.48,337A141,141,0,0,0,670,322.42c-1.27-4.31-3.13-8.49-3.66-13a1.68,1.68,0,0,1,2.85-1.18c5.92,7.57,7,19,7.68,28.29C677,338.51,673.82,338.93,673.48,337Zm14.44-6.49a104.8,104.8,0,0,0-23.37-31.33c-7.53-6.82-17.29-12.24-21-22.13-.72-1.93,2-3.25,3.32-1.93,17.06,17,34.32,30.84,44.34,53.48C692.16,330.82,689,332.76,687.92,330.54Zm5.7-15.87c-11.94-12.48-26.69-23.23-37.46-36.68-1.45-1.8.35-4.6,2.57-3.34,9.13,5.22,16.73,13.27,24.23,20.55,7.25,7,14.91,14.3,21,22.41,11.33,15.11,9.48,32.46,5.77,49.92-.31,1.42-2.32.77-2.14-.59,1.26-9.31,2.38-19.23.51-28.55C706.13,328.66,700.3,321.65,693.62,314.67Zm-8.19,115.49A145.36,145.36,0,0,1,710,393c1.28-1.39,3.29.66,2.06,2.06-10,11.38-16.61,25.37-22.72,39.11s-10.9,29.36-18.88,42.13a2.06,2.06,0,0,1-3.75-1.58C670.63,459.54,678.77,444.32,685.43,430.16Zm-12.75,16c-9.65,11.8-10.69,26-17,39.19-.76,1.6-3.31.79-3.27-.88.42-14.39,7.69-30.67,17.79-40.79C671.83,442.08,674.08,444.48,672.68,446.19Zm-16.87,7.72c1.35-1.88,4.45-.16,3.15,1.84a87.49,87.49,0,0,0-8.56,16.67c-1.86,4.84-2.86,10-5,14.7-.78,1.71-3.41.78-3.41-.92C642,474.9,649.42,462.77,655.81,453.91Zm-56,152.43c-1.75-14.72.5-30.21.36-45.06,0-2.53,3.74-2.48,3.9,0,.9,14.71,2.55,31.06-1.33,45.46C602.23,608.49,600,607.91,599.78,606.34Zm7.65,13c-1.95,1.93-4.62-.51-3.58-2.76,6.75-14.62,9.94-27.07,10-43.32.06-14.73-.34-29.17,3.22-43.58.46-1.86,3.22-1.06,2.85.79-3.55,17.51-.12,35.22-.83,52.9C618.6,595.54,616.52,610.35,607.43,619.31Zm7.05,1.9c2.13-5.27,6.1-9.5,8.77-14.53a73.45,73.45,0,0,0,7-20.38c3.16-16.24,1.86-33,.55-49.32-.24-3,4.37-2.94,4.67,0,1.78,17.35,3.67,35,.2,52.27-2.25,11.17-7.39,28.56-18.56,33.94C615.84,623.78,613.85,622.77,614.48,621.21Zm5.62,19.85c-1.64.79-3.68-.87-2.62-2.61C622.88,629.56,632.26,623,639,615c7.38-8.76,13.78-18.76,16.94-29.86,6.81-23.94-2.28-49,2.63-73.35.43-2.11,3.51-1.18,3.19.88-4.16,26.57,8,53.23-1.61,79.36-3.58,9.7-9.25,18.39-15.78,26.35S629.67,636.46,620.1,641.06Zm17.56,5.46a2.06,2.06,0,0,1-2.49-3.22c6.33-7.4,14.54-13.16,21.14-20.37a99.82,99.82,0,0,0,16.2-23c10.76-21.86,6.82-44.87,1-67.54a1.85,1.85,0,0,1,3.56-1c6.71,22.8,12,45.07,2.19,67.8C671.57,617.09,655.41,637.7,637.66,646.52Z"/><path class="cls-4" d="M521,188.58c2.47-22.34,12.91-44.7,31.09-58.44,20-15.1,46.25-19.92,70.74-16.88,20.15,2.49,38.37,10.13,54.82,21.08-7.06-10.65-16.49-18.71-29.14-24.57C631.68,102,612.74,99,594.26,100c-36.44,1.91-71.09,18.94-98.51,42.43a75,75,0,0,1,8.47,12.71c8.18,15.55,13,35.44,10.18,53.49a57.18,57.18,0,0,0,7.61,2.56A71.36,71.36,0,0,1,521,188.58Zm-8.6-44.22a1.47,1.47,0,0,1-2.44-1.42c1.53-7.51,10-12.88,15.9-16.91,1.43-1,3,1.19,1.81,2.34-2.65,2.6-5.36,5.16-7.9,7.85S515.2,142,512.43,144.36Zm2.57,7.21c6.2-16.51,26.36-29.77,41.6-37.11,18-8.65,37.45-12.58,57.26-10.15a1.25,1.25,0,0,1,0,2.49c-18.73.26-37.6,4.1-54.41,12.54a113.24,113.24,0,0,0-23.36,15.46c-6.55,5.68-11.63,12.95-18.34,18.37C516.62,154.09,514.35,153.28,515,151.57Z"/><path class="cls-4" d="M403.46,487.43c-5.17-11.24-8.48-24.75-15.91-34.74-7.31-9.82-21-9.73-29.45-18.58-15.46-16.22-21.65-47.9-17.49-69.4,1.51-7.81,6.55-15,15.41-13.82,5.85.8,11.2,5,16.13,8l15,8.91c7.5-16.75,3.08-36,4.45-53.91,1.26-16.42,8-30.53,17.39-43.52-9.54.09-19,.3-28.24,1.62-27.54,3.94-63.26,14-78.34,39.63-15.68,26.67-14.29,62.17-.27,88.91,10.92,20.82,26.55,39.43,33.6,62.16,7.15,23.07.69,44.91-8.67,66.27-10.9,24.85-24.48,51-12.13,78.1s39.79,41.63,65.87,52.8a3.49,3.49,0,0,1,2.29,4,3.57,3.57,0,0,1-2.29,3.76c-11.93,5.45-23.85,11.07-36.29,15.27a154.25,154.25,0,0,1-37.7,7.95c4.39,1.57,8.78,3.12,13.11,4.81a102.06,102.06,0,0,0,27.19,6.7,15.25,15.25,0,0,1,2.31-4c2.71-3.33,6.77-4.38,10.91-3.87,7.71,1,14.35,4.38,22.38,4.64,6.15.21,11-3.19,10.11-9.77-.44-3.21-1.74-6.24-2.45-9.4-1.06-4.73-1.63-9.76.7-14.22,4.65-8.87,14.18-5.73,21.6-2.7,1.91.78,5.89,2.9,8.34,2.65s6.57-5,7.08-8c.44-2.63-2.33-7.09-2.81-9.92-.75-4.48-.95-9.62,1-13.85,4.1-8.85,12.78-7.22,18.62-1.67.16-5.64-.15-11.43.08-16.85.29-6.83.63-13.67.86-20.51.5-14.42.8-28.85,1-43.28C426.33,536.67,413.71,509.71,403.46,487.43Zm-24.78-32.35c6.38,8.87,13.78,21,13.81,32.3,0,1.7-2.63,2.63-3.4.92-2.14-4.71-3.14-9.87-5-14.71a88.41,88.41,0,0,0-8.57-16.67C374.23,454.93,377.33,453.21,378.68,455.08Zm-14.39-10.19c10.1,10.12,17.38,26.39,17.79,40.79.05,1.67-2.51,2.47-3.27.88-6.3-13.15-7.36-27.41-17-39.19C360.41,445.65,362.66,443.26,364.29,444.89Zm-15.22-13.56c6.65,14.16,14.79,29.39,18.76,44.53a2.06,2.06,0,0,1-3.75,1.58c-8-12.77-12.75-28.37-18.88-42.13s-12.71-27.73-22.72-39.11c-1.23-1.4.78-3.45,2.06-2.06A145.52,145.52,0,0,1,349.07,431.33ZM364.51,323.6a138.56,138.56,0,0,0-3.5,14.61c-.34,1.91-3.51,1.45-3.38-.46.67-9.3,1.76-20.72,7.68-28.29a1.68,1.68,0,0,1,2.85,1.18C367.63,315.11,365.77,319.29,364.51,323.6Zm22.72-24.09c-7.12,15.83-12.51,28.58-12.61,46.34,0,2.21-3.08,2.07-3.33,0-2-16.24,1.67-36.17,13-48.58C385.86,295.61,388,297.74,387.23,299.51Zm.42-23.19c1.32-1.31,4,0,3.31,1.93-3.73,9.91-13.49,15.31-21,22.14a104.8,104.8,0,0,0-23.37,31.33c-1.1,2.22-4.24.27-3.27-1.91C353.32,307.17,370.58,293.34,387.65,276.32Zm-9.32,2.85c-10.77,13.45-25.52,24.19-37.46,36.68-6.68,7-12.51,14-14.46,23.72-1.86,9.31-.75,19.24.51,28.55.18,1.36-1.83,2-2.13.58-3.71-17.41-5.59-34.86,5.76-49.92,6.43-8.52,14.49-16.16,22.16-23.55,7.16-6.89,14.36-14.44,23.05-19.4C378,274.55,379.76,277.38,378.33,279.17Zm-76.76,52.12a101.27,101.27,0,0,1,26.58-32.84c9.88-8.1,22.21-18.46,34.52-22.2a1.65,1.65,0,0,1,1.59,2.73c-8.47,8.69-21.22,14.13-30.94,21.51-11.81,9-22.38,19-29.93,31.87C302.7,333.54,301,332.5,301.57,331.29Zm26,95.48c-8.63-14.85-20.1-28-25.21-44.64-.6-2,2.36-2.72,3.05-.84,6.49,17.83,20.81,31.71,30,48.16,7.32,13.13,17.23,31,17.05,46.39a1.68,1.68,0,0,1-3.11.84c-4.23-7.33-5.87-16-9-23.89A198.3,198.3,0,0,0,327.54,426.77Zm31.55,209.1a57.13,57.13,0,0,1-29.83-56.69c3.36-30.06,25.4-57,19.09-88.2-.44-2.18,2.78-3.11,3.35-.93,6.61,25.26-5.61,48.29-12.53,72-4.21,14.42-6.37,30.08.37,44.12,5.13,10.68,14.06,18,22.25,26.18C363.63,634.21,361.29,637,359.09,635.87Zm37.75,11.83c-17.75-8.82-33.92-29.43-41.65-47.32-9.83-22.74-4.52-45,2.19-67.8a1.85,1.85,0,0,1,3.56,1c-5.78,22.67-9.73,45.67,1,67.54a101.29,101.29,0,0,0,17.15,24c6.35,6.8,14.16,12.28,20.19,19.34A2.06,2.06,0,0,1,396.84,647.7Zm17.55-5.46c-9.95-4.78-18.32-15.3-25.13-23.78a90.84,90.84,0,0,1-14.88-25.25c-9.64-26.13,2.55-52.79-1.6-79.37-.33-2.05,2.75-3,3.18-.87,4.91,24.29-4.26,49.45,2.63,73.35,3.34,11.58,10.07,21.87,17.87,30.93,6.48,7.54,15.39,13.88,20.55,22.37C418.07,641.37,416,643,414.39,642.24Zm3-17.87c-11.17-5.38-16.31-22.75-18.56-34-3.47-17.26-1.58-34.91.2-52.26.3-2.95,4.91-3,4.67,0-1.3,16.35-2.61,33.08.55,49.32a73,73,0,0,0,6.95,20.37c2.68,5,6.64,9.27,8.77,14.54C420.64,624,418.64,625,417.43,624.37Zm9.63-3.88c-9.09-9-11.17-23.78-11.66-36-.71-17.68,2.72-35.39-.83-52.91-.37-1.84,2.39-2.64,2.85-.78,3.56,14.42,3.16,28.84,3.22,43.58.06,16.27,3.25,28.7,10,43.32C431.69,620,429,622.4,427.06,620.49Zm7.65-13c-.18,1.58-2.46,2.13-2.93.4-3.87-14.39-2.23-30.75-1.32-45.47.15-2.48,3.92-2.52,3.89,0C434.21,577.31,436.47,592.79,434.71,607.52Z"/><path class="cls-4" d="M838.58,454.6a10.3,10.3,0,1,0,10.3,10.3A10.32,10.32,0,0,0,838.58,454.6Z"/><path class="cls-4" d="M448.44,123.81C388,109.58,341.2,155.44,304,196.22c-38.09,41.71-70.14,94.29-65.89,152.92,2,28.13,15.9,51.64,25.45,77.53,8.65,23.46,9.19,46.15-2.64,68.59-12.83,24.35-30.42,44.49-38,71.6-7.32,26.27-5.87,54.78,8.31,78.53s38.73,36.54,66.3,36.74c24.83.18,47.74-8.46,70-18.37a181.56,181.56,0,0,1-26.78-14.66c-19.54-13.32-36.16-32.91-39.44-57-3-22.25,6.9-43,15.75-62.76,10.34-23.07,17.54-45.48,7.89-70.17-8.52-21.8-24.38-39.82-34-61.07-10.72-23.57-10.73-49.25-3.44-73.91S313,284.53,336.2,274.73c25-10.6,52.42-13.88,79.42-14.12,13.55-.12,27.33.41,40.44-3.63a83.4,83.4,0,0,0,31.35-18.13c19.11-17.56,22.23-41.64,14.63-65.74C494,147.52,474.5,130,448.44,123.81Zm31.92,34.47c-8.46,1.83-19.78-1.81-27.93-4-2.31-.61-1.3-3.91,1-3.52,5,.85,10,1.58,15,2.16,4,.46,8.2.27,12,1.69C482,155.23,482.35,157.86,480.36,158.28Zm-74.43-29.64c20-1.78,45.76.4,62.54,12.73,1.8,1.31.81,4.57-1.61,3.81-9.63-3-18.51-7.53-28.41-10a128.49,128.49,0,0,0-32.52-3.53C403.93,131.72,404,128.81,405.93,128.64Zm-39.64,17.15c12.74-4.38,24.84-8.07,38.46-6.58,12.42,1.36,27.62,5.12,38.09,12.19a1.76,1.76,0,0,1-1.35,3.21c-11.78-1.8-22.67-7.9-34.59-9.79-13.67-2.16-26.62.29-39.79,4C365.18,149.31,364.43,146.43,366.29,145.79ZM285,224.54c30.67-22.08,53.87-57.35,93.64-63.69,17.69-2.82,35.44.56,52.83,3.71,10.2,1.86,20.47,3.68,30.85,4,9.71.31,18.86-2.45,28.41-2.72a2.33,2.33,0,0,1,1.16,4.32c-14.51,8.14-34.41,5.63-50.1,3.09-18.67-3-37.41-8.5-56.47-7.62-41.26,1.9-66.74,40.85-98.65,61.76C284.87,228.57,283.31,225.76,285,224.54Zm114.58-22.37c-12.1-1-24.15-.16-35.48,4.48-1.33.55-2.24-1.69-1-2.31a71.54,71.54,0,0,1,34.93-7.11c12.3.55,27.37,2.32,38.41,7.92a1.84,1.84,0,0,1-.92,3.4C423.53,208.2,411.68,203.2,399.58,202.17Zm25.21,12.7c-8.43-.12-17.28-3.37-25.43-5.35-2-.48-1.11-3.35.82-3,8.26,1.57,17.58,2.3,25.33,5.68C426.85,212.8,426.11,214.88,424.79,214.87Zm2.32-21.4c-13.23-2.48-26.49-5-40-4A101.6,101.6,0,0,0,321.42,221c-1.52,1.6-3.88-.79-2.41-2.41,16.27-18,37.83-30.12,61.88-33.83a117.91,117.91,0,0,1,36.26.51c7.78,1.22,15.49,2.84,23.28,4s15.48,1.23,23.06,2.83c2,.42,1.89,3.47,0,4C451.83,199.16,438.69,195.63,427.11,193.47ZM259.19,267c3.14-11.68,18.57-18.92,27.18-26.06,1.44-1.19,3.49.76,2.09,2.09-4.52,4.28-9.45,8.06-14.12,12.17s-8,9.07-12.21,13.51A1.77,1.77,0,0,1,259.19,267ZM253,293.43c3.5-14.85,15.2-26.08,27.6-34,16.77-10.74,34.19-20.76,51.73-30.18a1,1,0,0,1,1,1.73c-14.59,10.32-29.64,20-44.72,29.54-6.92,4.39-13.86,8.84-19.4,15-5.36,5.94-8.63,13.28-13.55,19.52C254.64,296.32,252.69,294.84,253,293.43Zm-4.28,32.93c10.75-46.09,61.22-73.17,102.39-86.84,23.81-7.91,48.42-12.92,72.71-19.09,12-3.05,24-6.47,35.28-11.53,11.8-5.28,21.46-12.68,31.26-21,2.21-1.87,6.23.64,4.3,3.32-12.39,17.15-34.45,25.88-54,31.79-22.82,6.89-46.37,11.17-69.39,17.35C322.5,253.46,271,276.9,250.67,326.89A1,1,0,0,1,248.74,326.36Zm19,91a1.56,1.56,0,0,1,2.7-1.57c14.88,23.38,22.72,49.7,24.36,77.33a218,218,0,0,1-2.2,44c-2,14.11-4.19,30-10.53,42.86-1.07,2.17-5,1.22-4.71-1.27,1.57-13.47,6.28-26.58,8.39-40a228.52,228.52,0,0,0,2.69-42.45C287.62,468.9,281,441.42,267.78,417.38ZM254,661c-19.56-15.24-23.05-43.4-23.34-66.58-.37-29.88,7.09-57.7,24.68-82.08,1.16-1.6,3.81-.13,2.7,1.58-15.05,23.19-22.14,49.49-21.9,77,.22,24.64,4.42,48,20.39,67.5A1.79,1.79,0,0,1,254,661Zm5.69-47.74a1.84,1.84,0,0,1-3.59.49c-8.62-21.33-2.9-45.2,6-65.2,11.07-24.76,16.05-50.8,13.59-77.92-.16-1.8,2.88-2.19,3.14-.43A138.47,138.47,0,0,1,272.1,539c-4.18,11.3-10.27,22-12.53,33.92C257,586.59,261,599.78,259.69,613.28Zm49.16,65.35c-23.87,1.94-39.15-27.5-48.42-44.74a1.46,1.46,0,0,1,2.51-1.47c6.15,9.42,12.73,18.88,20.78,26.79,7.87,7.73,16.56,10.91,26.12,15.76C311.72,675.92,310.63,678.48,308.85,678.63Zm34.94-17.51c1.34.37,1.83,2.55.41,3.18-23.17,10.3-44.88-16.72-58.54-30.89-1.35-1.41.66-3.32,2.11-2.11,8.56,7.13,16.93,15.44,26.37,21.39S333.37,658.3,343.79,661.12Zm-36.18-33.25c7.15,9,16.59,15.12,24.39,23.38,1.1,1.16,0,3.44-1.65,2.84-24-8.49-39.78-37-41-61.23-.09-1.66,2.7-2.06,2.93-.39A72.67,72.67,0,0,0,307.61,627.87Zm6.13-112.81c-.42,2.59-3.91,1.57-4.17-.56-1.75-14.6-2.15-29.07-5.71-43.44a170.87,170.87,0,0,0-15.13-39.42c-11-20.56-30.42-37.7-31.8-62.19-.08-1.39,2.26-1.71,2.45-.33,1.88,14,10.35,25.19,18.56,36.19s15.67,22,21.52,34.3C310,461.89,317.77,490.32,313.74,515.06Zm-10.19-89.27a165.58,165.58,0,0,1,15.69,33.41c3.61,10.58,8,23.59,6.14,34.88a1.42,1.42,0,0,1-2.57.34c-5.05-11.38-6.16-24.76-10.46-36.57a168.69,168.69,0,0,0-18.77-36.56c-12.39-18.37-27-35.92-29.2-58.76-.15-1.58,2.48-1.91,2.76-.37C271.74,387.11,290.72,405,303.55,425.79Zm94.09-176.63c-17.32,2.9-34.75,5.64-51.27,11.83C314,273.13,286.47,296.7,267,325a1.47,1.47,0,0,1-2.54-1.48c16.52-29.33,42.44-51.85,73.23-65.35,17.09-7.49,35.15-11.47,53.48-14.6,9.46-1.61,18.93-3.13,28.31-5.18,9.8-2.14,19.39-5.57,29.24-7.34a1.84,1.84,0,0,1,1.41,3.34C435.37,244.47,414.8,246.28,397.64,249.16Zm79.88-12.29c-6,7-13.43,11.32-22.09,14.31-9.62,3.32-20.35,6.91-30.5,7.78a1.57,1.57,0,0,1-.79-2.91c17.15-7.91,37.22-7.16,51.79-20.77A1.12,1.12,0,0,1,477.52,236.87Zm22.93-39.72C496.42,213,484,231.06,466.72,234a1.8,1.8,0,0,1-1.38-3.27c6.48-4.43,13.26-7.81,18.83-13.52a59.76,59.76,0,0,0,13.37-20.86A1.51,1.51,0,0,1,500.45,197.15Z"/><path class="cls-4" d="M449.46,114.85a83.75,83.75,0,0,1,40.18,21,206.1,206.1,0,0,1,36-24.79,329.25,329.25,0,0,0-60.23-9.2c-20.1-1.14-41.42-1.47-61.07,3.45a112.5,112.5,0,0,0-60,38.78A148.85,148.85,0,0,1,374.2,124.6C397.46,113.49,424.13,109.28,449.46,114.85Zm42.11-7.76c2.72,1.35,5.47,2.62,8.2,3.94,2.39,1.16,5,1.88,6.6,4.1.82,1.17-.31,2.49-1.49,2.59-2.63.24-5.13-1.6-7.38-2.8-2.67-1.44-5.2-3.08-7.72-4.77A1.77,1.77,0,0,1,491.57,107.09Zm-51-3.26c13.76,0,42,.62,49.65,14.81a1.93,1.93,0,0,1-2.62,2.62c-7-3.3-12.64-7.48-20.41-9.57a154.61,154.61,0,0,0-26.62-4.84C438.68,106.68,438.62,103.82,440.59,103.83Z"/><path class="cls-4" d="M765.1,463c-1.12-25.79,12.65-49,22-72.15A142.12,142.12,0,0,0,794,305.48c-12.44-56.14-51.71-100.66-92.11-139.39-21.25-20.37-44.18-37.41-73.72-43-25.75-4.85-55.73-.24-75.46,18.14-17.48,16.28-26.18,43.55-22.49,67,3.78,24,27.17,41.87,49.18,48.7,13.1,4.06,26.89,3.51,40.44,3.63a270.78,270.78,0,0,1,40.42,3.16c24.69,4,51.41,12.63,70,30.09,18.18,17.05,24.15,46.36,22.91,70.39C752,388,740.1,407.86,727.82,427.51c-12.63,20.2-25.7,41.8-21.57,66.65,4,23.8,18.32,44.2,25,67.15,6.48,22.22,3,44.57-10.71,63.35-13.31,18.2-32.55,29.83-52.69,39.11a261.64,261.64,0,0,0,28.25,11.32c26.68,8.52,58,11.5,82.91-3.71,21.23-13,34.3-36.94,37.27-61.26,3.5-28.61-5.91-57.36-20.71-81.56C782.89,507.8,766.2,488.41,765.1,463Zm1.61-46.74c-13.26,24.05-19.79,51.5-20.7,78.85a227,227,0,0,0,3,44.11c2.12,12.87,6.62,25.46,8.12,38.37.3,2.49-3.64,3.44-4.7,1.27C746.06,566,743.89,550,741.85,536a218,218,0,0,1-2.2-44c1.64-27.62,9.48-53.95,24.36-77.33A1.57,1.57,0,0,1,766.71,416.21Zm12.09-122.4c-4.92-6.25-8.2-13.57-13.55-19.53-5.52-6.14-12.48-10.58-19.39-15-15.08-9.58-30.14-19.21-44.72-29.54a1,1,0,0,1,1-1.73c17.54,9.42,35,19.44,51.72,30.19,12.4,7.94,24.1,19.18,27.6,34C781.8,293.66,779.85,295.14,778.8,293.81ZM634.91,201c-12.09,1.08-23.95,6-36,6.39A1.84,1.84,0,0,1,598,204c11.09-5.63,26.05-7.37,38.42-7.92a71.28,71.28,0,0,1,34.92,7.11c1.28.62.34,2.85-1,2.31C659.09,200.84,647,199.91,634.91,201Zm.22,7.35c-8.14,2-17,5.23-25.43,5.35-1.32,0-2.05-2.07-.72-2.65,7.74-3.38,17.07-4.11,25.33-5.68C636.24,205,637.08,207.87,635.13,208.34Zm12.25-20c-14.09-1.05-27.87,1.75-41.65,4.3-11.11,2.06-23.57,5.25-34.72,2.34-1.9-.49-2-3.53,0-4,7.57-1.59,15.39-1.65,23-2.82s15.5-2.81,23.28-4a118,118,0,0,1,36.27-.51c24,3.7,45.6,15.85,61.87,33.82,1.47,1.62-.89,4-2.4,2.41A101.65,101.65,0,0,0,647.38,188.3ZM775.3,265.78a1.77,1.77,0,0,1-2.93,1.71c-4.24-4.43-7.55-9.4-12.22-13.51s-9.6-7.89-14.12-12.17c-1.4-1.33.65-3.27,2.09-2.08C756.72,246.85,772.17,254.11,775.3,265.78ZM668.2,144.62c1.86.64,1.11,3.51-.82,3-13.17-3.66-26.12-6.13-39.79-4-11.91,1.91-22.81,8-34.59,9.79a1.76,1.76,0,0,1-1.35-3.2c10.51-7.1,25.61-10.83,38.09-12.19C643.4,136.54,655.43,140.22,668.2,144.62ZM566,140.19c16.78-12.32,42.51-14.5,62.54-12.73,1.93.17,2,3.08,0,3A128.54,128.54,0,0,0,596,134c-9.89,2.43-18.78,7-28.41,10C565.19,144.77,564.24,141.49,566,140.19Zm-11.89,13.26c3.74-1.41,8-1.23,12-1.69,5-.58,10-1.31,15-2.16,2.28-.39,3.28,2.91,1,3.52-8.15,2.17-19.47,5.81-27.93,4C552.14,156.68,552.52,154.05,554.13,153.45Zm-10.36,11.21c10.06.29,19.65,3.14,29.9,2.68s20.66-2.37,30.87-4.23c16.88-3.09,34.16-6.17,51.31-3.44,39.78,6.35,63,41.61,93.64,63.69,1.69,1.22.13,4-1.67,2.85-31.9-20.9-57.4-59.87-98.64-61.76-19.58-.9-38.81,4.88-58,7.86-15.26,2.37-34.51,4.56-48.59-3.33A2.34,2.34,0,0,1,543.77,164.66Zm.34,22.07c9.82,8.32,19.46,15.69,31.26,21s24.21,8.74,36.64,11.87c23.85,6,48,11,71.36,18.75C724.54,252,775,279.11,785.75,325.18a1,1,0,0,1-1.93.53c-20.33-50-71.83-73.43-120.6-86.52-23-6.18-46.57-10.45-69.39-17.35-19.58-5.92-41.62-14.63-54-31.79C537.86,187.35,541.92,184.88,544.11,186.73ZM534,196a1.51,1.51,0,0,1,2.91-.81A59.91,59.91,0,0,0,550.33,216c5.57,5.71,12.33,9.08,18.82,13.51a1.8,1.8,0,0,1-1.38,3.27C550.5,229.89,538.08,211.78,534,196Zm75.53,61.81c-10.17-.88-20.87-4.46-30.51-7.79-8.66-3-16.13-7.27-22.09-14.31a1.12,1.12,0,0,1,1.59-1.59c14.57,13.61,34.64,12.86,51.79,20.78A1.57,1.57,0,0,1,609.57,257.79Zm78.56,2c-17-6.38-35-9.1-52.86-12.1-16.68-2.8-36.56-4.7-50.89-14.46a1.84,1.84,0,0,1,1.41-3.34c10.38,1.87,20.46,5.49,30.8,7.68,9.39,2,18.88,3.48,28.33,5.11,17.8,3.09,35.3,7.06,51.9,14.34,30.79,13.49,56.72,36,73.23,65.34a1.47,1.47,0,0,1-2.54,1.49C748,295.52,720.53,272,688.13,259.81Zm21,233.09c-1.82-11.26,2.56-24.32,6.14-34.87a164.34,164.34,0,0,1,15.69-33.42c12.83-20.81,31.81-38.69,36.41-63.63.29-1.56,2.91-1.19,2.76.37-2.15,22.85-16.81,40.39-29.2,58.76a170.27,170.27,0,0,0-18.77,36.56c-4.32,11.82-5.39,25.17-10.46,36.57A1.42,1.42,0,0,1,709.11,492.9Zm21.15-21.52c-3.3,13.88-3.65,27.86-5.34,41.94-.26,2.15-3.75,3.13-4.17.56-4-24.73,3.74-53.17,14.29-75.45,5.84-12.34,13.37-23.39,21.51-34.3s16.69-22.21,18.57-36.18c.18-1.41,2.52-1.05,2.44.33-1.38,24.49-20.81,41.62-31.8,62.18A171.59,171.59,0,0,0,730.26,471.38ZM702.49,650.07c7.8-8.26,17.25-14.37,24.39-23.38a72.69,72.69,0,0,0,15.32-35.4c.23-1.68,3-1.25,2.93.4-1.21,24.2-17,52.73-41,61.22C702.46,653.51,701.39,651.23,702.49,650.07Zm-12.2,13c-1.42-.63-.92-2.81.41-3.17,10.44-2.84,20-2.36,29.65-8.43,9.45-6,17.8-14.26,26.37-21.4,1.46-1.21,3.47.7,2.11,2.11C735.18,646.39,713.46,673.42,690.29,663.12Zm83.78-30.41c-9.27,17.24-24.57,46.68-48.42,44.74-1.79-.14-2.87-2.71-1-3.66,9.54-4.84,18.27-8,26.12-15.76,8.05-7.91,14.64-17.37,20.78-26.79A1.46,1.46,0,0,1,774.07,632.71Zm.74-20.61c-1.41-14.09,2.83-27.72-.2-42-2.4-11.31-8.26-21.52-12.22-32.3A138.94,138.94,0,0,1,755.61,469c.27-1.78,3.3-1.34,3.14.43-2.46,27.12,2.52,53.17,13.6,77.92,8.94,20,14.66,43.87,6,65.2A1.83,1.83,0,0,1,774.81,612.1Zm5.68,47.75a1.79,1.79,0,0,1-2.53-2.54c16-19.51,20.17-42.86,20.39-67.49.24-27.58-6.85-53.86-21.89-77.06-1.12-1.71,1.54-3.17,2.69-1.57,17.59,24.37,25.05,52.2,24.68,82.07C803.55,616.44,800.05,644.61,780.49,659.85Z"/><path d="M428.11,304.82c20.93-1.39,47.53-3.09,61.93,15.52,12.91,16.66,11,46,7.88,65.7-3.06,19.15-17.12,36.36-16.74,56,.12,6.43,2.08,11.35,8.88,12.63,10.48,2,22.48.81,33.15,1.13,5.78.17,5.78-8.81,0-9l-17-.5c-6.26-.19-14.85,2.07-16.05-5.71-1.51-9.78,6.69-22.18,10.23-30.76,8-19.46,9.15-41.32,7.49-62.11-1.38-17.19-6.92-33.34-22-43.09-17.11-11.06-38.36-10.09-57.81-8.8C422.37,296.21,422.33,305.2,428.11,304.82Z"/><path d="M481,354.84c3.72-4.39-2.61-10.78-6.35-6.36-7.56,8.94-18.27,11.58-29.6,12.08-9.31.41-22.77,1.81-28.39-7.37-3-4.92-10.79-.41-7.76,4.54,7.14,11.65,20.58,12.15,33,11.91C456.4,369.35,471.11,366.47,481,354.84Z"/><path d="M550.25,483.1c-5.21,11.19-21.06,17.66-32.66,17.64-13.3,0-25.3-6.18-33.93-16.1-3.8-4.37-10.13,2-6.35,6.35,10.68,12.28,26.6,19.61,43,18.66,13.88-.81,31.53-8.78,37.7-22C560.43,482.43,552.69,477.86,550.25,483.1Z"/><path d="M618.86,353.19c-5.63,9.19-19.08,7.78-28.39,7.37-11.33-.5-22-3.12-29.6-12.08-3.74-4.42-10.07,2-6.35,6.36,9.84,11.63,24.55,14.51,39.14,14.8,12.38.24,25.82-.26,33-11.91C629.64,352.78,621.87,348.26,618.86,353.19Z"/><path d="M775.61,445.74c5.78-27.41,22.73-51,28.31-78.54,11.36-56-12.81-111.33-46.84-154.72a478.67,478.67,0,0,0-61.47-64.4c-.53-.46-1.06-.89-1.58-1.34l0-.14c-7.38-18.21-17.78-32.34-35.3-41.79-17.75-9.57-38-14.08-58.14-14-22.11.09-43.68,5.53-63.69,14.64a4.26,4.26,0,0,0-2.28-1.43A343.1,343.1,0,0,0,465.4,92.83c-21.76-1.21-44.81-1.4-66,4.44a122.55,122.55,0,0,0-78.52,67.81,4.38,4.38,0,0,0-.26.8c-4.54,4.56-9,9.17-13.36,13.71-38.95,40.42-73,88.79-78,146.3-2.46,28.23,4.32,53.8,15.57,79.43,12.42,28.32,23.88,55.78,8.27,85.41-6.36,12.08-14.77,22.92-21.79,34.61A160.69,160.69,0,0,0,214.68,563c-7.12,24.49-7.29,51,2.67,74.72,9.13,21.73,26,39.78,48.34,48a86.83,86.83,0,0,0,14.89,4c11.84,6,24.57,9.83,36.91,14.62a110.24,110.24,0,0,0,28,6.86,52.65,52.65,0,0,0,4,19.69c4.78,11.53,13.64,20.77,23.42,28.28a116.91,116.91,0,0,0,83,23.12l.23,0a29.19,29.19,0,0,0,4.46,5.73c8.7,8.7,21.73,12.07,32.86,7.29,3.93,12.41,13.26,18.49,26.68,18.08,11.8-.35,23.34-6.85,27.51-18.13,11.17,4.86,23.17,3.31,31.86-6.24a33.4,33.4,0,0,0,4.53-6.32,117,117,0,0,0,70.85-18.06c18-11.64,36.06-30.67,34.87-53.37A110.46,110.46,0,0,0,718,704.29c12.4-4.81,25.19-8.65,37.07-14.7a77.34,77.34,0,0,0,44.47-23.29c37.47-38.85,30.46-97.91,4.61-141C788.83,499.88,768.89,477.6,775.61,445.74ZM594.26,100c18.48-1,37.42,2,54.28,9.8,12.65,5.86,22.08,13.92,29.14,24.57-16.45-11-34.67-18.59-54.82-21.08-24.49-3-50.78,1.78-70.74,16.88-18.18,13.74-28.62,36.1-31.09,58.44a71.36,71.36,0,0,0,1,22.58,57.18,57.18,0,0,1-7.61-2.56c2.84-18-2-37.94-10.18-53.49a75,75,0,0,0-8.47-12.71C523.17,118.91,557.82,101.88,594.26,100Zm48.4,276.38a4.56,4.56,0,0,0,6.15,1.61q10.26-6.1,20.51-12.22c2.16-1.28,5.73-4.53,8.33-4.88,9.25-1.25,8.69,6.08,8.94,11.61.66,14.95-2.08,31.29-8.67,44.83-3.52,7.22-8.41,13.54-16,16.72-4.9,2.05-9.86,3.12-14.23,6.34-8.23,6-12.19,15.62-15.9,24.79a360.77,360.77,0,0,1-18.54,39.52c-7.23,13.07-15,27.21-26.52,37-1.28,1.08-2.6,2.1-3.94,3a4.12,4.12,0,0,0-2.43,1.6c-15.12,9.43-33.78,10.8-51.82,10.18a3.84,3.84,0,0,0-3.18-1.11c-2.5.19-5,.38-7.62.55-2.57-.17-5.11-.36-7.61-.55a3.85,3.85,0,0,0-3.18,1.11c-18,.62-36.7-.76-51.82-10.19a4.24,4.24,0,0,0-2.42-1.59c-1.35-.94-2.66-2-3.95-3-11.14-9.47-18.67-23-25.72-35.59a357.31,357.31,0,0,1-19.34-40.94c-3.56-8.8-7.3-18-14.92-24-4.68-3.74-9.85-4.8-15.21-7.08-7.62-3.24-12.46-9.44-16-16.72-6.61-13.57-9.27-29.84-8.67-44.83.23-5.6-.45-8,5-10.1s7.41.5,12.24,3.37q10.25,6.12,20.51,12.22a4.57,4.57,0,0,0,6.15-1.61c8.73-14.89,7.78-31.57,7.48-48.22-.39-22.21,5.53-39.85,19.44-57.29a4.74,4.74,0,0,0,.41-.62c15.06-.23,30-1.12,43.92-6.56,19.55-7.64,38.64-22.29,46.8-42.15.55-1.34,1-2.7,1.48-4.08A64.46,64.46,0,0,0,524.91,221a65.45,65.45,0,0,0,18.7,25.92c18.75,16.15,40.49,22.3,64.88,22.64l6.56.11a4.66,4.66,0,0,0,.69,1.19c13.89,17.43,19.83,35.1,19.44,57.29C634.88,344.78,633.93,361.46,642.66,376.35ZM503.2,703.58a31.73,31.73,0,0,0-9.1,9.15c-8.69-5.67-19-11.08-29.41-11.27-9.33-16.19,10.5-37.52,27.09-27.64C491.42,684.63,496.84,694.85,503.2,703.58Zm-2.45-27.83c-.29-11.86,8.84-19.63,20.26-20.09,13.08-.54,21.57,9.69,18.7,22.57-1.7,7.61-5.76,14.89-10.09,21.46a31.28,31.28,0,0,0-18.18,0C506.2,692.67,501,684.83,500.75,675.75Zm19.82,31.59A22.65,22.65,0,1,1,497.92,730,22.67,22.67,0,0,1,520.57,707.34Zm17.27-3.83c5.77-8.85,11.26-19.43,11.25-30a4.79,4.79,0,0,0,1.81-.44,18.25,18.25,0,0,1,5.76-1.59,4.75,4.75,0,0,0,.54,0c.56,0,1.11-.09,1.66-.16,14.34.12,27.44,16.37,18.16,29.85-10.92-.47-21.23,5-30,11.41A31.86,31.86,0,0,0,537.84,703.51Zm19.36-41a4.82,4.82,0,0,0-1.58.36,27.61,27.61,0,0,0-7.92,1.88c-3.92-12.41-13.26-18.5-26.69-18.1-11.71.36-23.18,6.76-27.42,17.9a24.12,24.12,0,0,0-11-2.35,26.21,26.21,0,0,0,0-2.94c-.07-1.76-.13-3.52-.2-5.28a1.53,1.53,0,0,0-3.05,0c-.07,1.76-.13,3.52-.19,5.28a19.55,19.55,0,0,0,0,3.25l-.44.07c-.14,0-.27-.06-.43-.07a14.89,14.89,0,0,1-2-.22c.82-5.32.22-10.74-.07-16.11a1.14,1.14,0,0,0-2.28,0c-.28,5.16-.85,10.38-.17,15.51a20.51,20.51,0,0,1-3.52-1.51c1.07-9.85.31-20,.12-29.88a1.36,1.36,0,0,0-2.71,0c-.18,9.31-.88,18.9-.05,28.23a38.57,38.57,0,0,1-5.68-5,1.11,1.11,0,0,0,.69-.87c2.27-15.87.37-32.93-.07-48.9a1.34,1.34,0,0,0-2.67,0c-.41,15.41-2.16,31.81-.26,47.2-2.38-2.81-4.6-5.83-6.71-8.73,2.34-14.09,1.26-29.73,1.8-44,.51-13.76.82-27.54,1.05-41.31,1.1.55,2.22,1.05,3.35,1.54a1.09,1.09,0,0,0-.11.1c-1.3,2.41-.8,5.23-.81,7.91,0,3.39,0,6.77.06,10.16a1.53,1.53,0,0,0,3,0c0-3.39.08-6.77.06-10.16,0-2.44.39-5-.52-7.25,1,.39,1.95.73,2.94,1.07a19.53,19.53,0,0,0-.07,3.15c0,1.6.07,3.21.11,4.82a1.44,1.44,0,0,0,2.88,0l.12-4.82c0-.7,0-1.42,0-2.13.87.27,1.74.51,2.62.75a47,47,0,0,0-.09,5,1.67,1.67,0,0,0,3.33,0c0-1.43.05-2.84,0-4.25l1.48.33a37.52,37.52,0,0,0,0,4.5,1.79,1.79,0,0,0,3.58,0c0-1.25.11-2.54.06-3.81,13.07,2.21,26.79,1.9,39.94,1.07,20.84,1.32,42.54,1.36,61.65-7.84l.37-.21c.24,13.79.55,27.57,1.06,41.34.53,14.08-.5,29.49,1.72,43.42C575.69,651.25,569.11,662,557.2,662.53ZM404.33,105.27c19.65-4.92,41-4.59,61.07-3.45a329.25,329.25,0,0,1,60.23,9.2,206.1,206.1,0,0,0-36,24.79,83.75,83.75,0,0,0-40.18-21c-25.33-5.57-52-1.36-75.26,9.75a148.85,148.85,0,0,0-29.89,19.45A112.5,112.5,0,0,1,404.33,105.27ZM231.22,645.39c-14.18-23.75-15.63-52.26-8.31-78.53,7.56-27.11,25.15-47.25,38-71.6,11.83-22.44,11.29-45.13,2.64-68.59-9.55-25.89-23.41-49.4-25.45-77.53-4.25-58.63,27.8-111.21,65.89-152.92,37.23-40.78,84-86.64,144.47-72.41C474.5,130,494,147.52,502,173.11c7.6,24.1,4.48,48.18-14.63,65.74A83.4,83.4,0,0,1,456.06,257c-13.11,4-26.89,3.51-40.44,3.63-27,.24-54.38,3.52-79.42,14.12-23.16,9.8-41.42,24.7-48.73,49.44s-7.28,50.34,3.44,73.91c9.67,21.25,25.53,39.27,34,61.07,9.65,24.69,2.45,47.1-7.89,70.17-8.85,19.74-18.77,40.51-15.75,62.76,3.28,24.11,19.9,43.7,39.44,57a181.56,181.56,0,0,0,26.78,14.66c-22.28,9.91-45.19,18.55-70,18.37C270,681.93,245.48,669.25,231.22,645.39Zm118.16,52.89a15.25,15.25,0,0,0-2.31,4,102.06,102.06,0,0,1-27.19-6.7c-4.33-1.69-8.72-3.24-13.11-4.81a154.25,154.25,0,0,0,37.7-7.95c12.44-4.2,24.36-9.82,36.29-15.27a3.57,3.57,0,0,0,2.29-3.76,3.49,3.49,0,0,0-2.29-4c-26.08-11.17-53.51-25.72-65.87-52.8s1.23-53.25,12.13-78.1c9.36-21.36,15.82-43.2,8.67-66.27-7.05-22.73-22.68-41.34-33.6-62.16-14-26.74-15.41-62.24.27-88.91,15.08-25.66,50.8-35.69,78.34-39.63,9.21-1.32,18.7-1.53,28.24-1.62-9.38,13-16.13,27.1-17.39,43.52-1.37,17.88,3.05,37.16-4.45,53.91l-15-8.91c-4.93-2.94-10.28-7.17-16.13-8-8.86-1.21-13.9,6-15.41,13.82-4.16,21.5,2,53.18,17.49,69.4,8.44,8.85,22.14,8.76,29.45,18.58,7.43,10,10.74,23.5,15.91,34.74,10.25,22.28,22.87,49.24,43.37,64.07-.22,14.43-.52,28.86-1,43.28-.23,6.84-.57,13.68-.86,20.51-.23,5.42.08,11.21-.08,16.85-5.84-5.55-14.52-7.18-18.62,1.67-2,4.23-1.76,9.37-1,13.85.48,2.83,3.25,7.29,2.81,9.92-.51,3-4.55,7.77-7.08,8s-6.43-1.87-8.34-2.65c-7.42-3-16.95-6.17-21.6,2.7-2.33,4.46-1.76,9.49-.7,14.22.71,3.16,2,6.19,2.45,9.4.9,6.58-4,10-10.11,9.77-8-.26-14.67-3.68-22.38-4.64C356.15,693.9,352.09,695,349.38,698.28Zm103.55,75.21c-30.8,2.36-63.58-7.82-85-30.81C362.51,736.83,358,730,356,722.19c-.95-3.7-2.79-12-.71-15.67,3.11-5.51,10.76-1,14.75-.1,9.66,2.18,25.11,4.49,30.43-6.5,2.22-4.61,1.74-9.89.68-14.72-.6-2.74-2.94-6.55-2.55-9.25,1.59-10.85,8.19-5.59,13.07-3.71,8.42,3.24,20.83,4.4,25-5.81,3.34-8.16-3.55-14.78-2.94-22.73-1-3.31.43-5.29,4.22-5.91a47.32,47.32,0,0,1,4.65,5.73c1.76,2.34,3.47,4.7,5.27,7,5,6.37,11.17,13.37,18.57,17.47-10.61,7.79-16.88,22.12-11.21,34.9-12.35,3.94-18.41,13.26-18,26.66.35,11.78,6.83,23.31,18.09,27.49A27.94,27.94,0,0,0,452.93,773.49Zm-6.69-43.94c-.53-13.08,9.69-21.57,22.57-18.7,7.62,1.7,14.9,5.76,21.46,10.09a31.5,31.5,0,0,0,0,18.18c-7,5.24-14.88,10.47-24,10.69C454.47,750.1,446.71,741,446.24,729.55Zm45.81,56.31c-8.4,4.82-18.25,2.5-25.11-4.29s-6.75-15.08-2.38-22.78c10.76.31,20.92-5.1,29.6-11.43a31.89,31.89,0,0,0,9.15,9.11C497.64,765.15,492.24,775.5,492.05,785.86Zm28.08,18.46c-13.08.53-21.57-9.69-18.7-22.57,1.7-7.61,5.76-14.9,10.1-21.46a31.5,31.5,0,0,0,18.18,0c5.23,7,10.46,14.88,10.68,24C540.68,796.09,531.56,803.85,520.13,804.32Zm58.13-31c-2.68.5-3.54,3.5-2.61,5.9a24.71,24.71,0,0,1-2.5,3.35c-6.61,7.43-15.31,8-23.78,3.49.33-10.78-5.08-21-11.43-29.66a31.77,31.77,0,0,0,9.11-9.15c8.66,5.65,19,11,29.3,11.27A19.29,19.29,0,0,1,578.26,773.32Zm-5.92-24.19c-7.62-1.7-14.9-5.76-21.46-10.1a31.72,31.72,0,0,0,1.33-9,31.27,31.27,0,0,0-1.36-9.13c7-5.24,14.88-10.47,24-10.69,11.86-.29,19.62,8.84,20.08,20.26C595.44,743.51,585.21,752,572.34,749.13Zm107.12-26.94c-2,7.82-6.5,14.64-11.94,20.49-20.29,21.8-50.82,32.09-80.19,31.08a27.47,27.47,0,0,0-1.57-16.63c5.92-1.87,10.41-5,13.44-9.13a1.65,1.65,0,0,0,.77.43c15.44,3.65,29.38-9.35,41.34-16.93a1.27,1.27,0,0,0-1.28-2.19c-5.95,3.31-12,6.44-18.2,9.32-6.8,3.2-13.61,3.88-20.59,5.91a24.88,24.88,0,0,0,1.17-2.91c7.68-.21,15.87-5.75,22.18-9.74a1.74,1.74,0,0,0-1.76-3q-5.69,2.79-11.59,5.11a78.65,78.65,0,0,0-7.75,3.09,34.3,34.3,0,0,0,.4-5.17.83.83,0,0,0,.21-.06,61.15,61.15,0,0,0,9-5.47c1.61-1.06.12-3.66-1.52-2.6a78.72,78.72,0,0,0-7.8,5.37,34.12,34.12,0,0,0-1.61-8.33c7.89-2.08,13-13.06,19-17.71,1.37-1.07-.42-3.4-1.88-2.42a72.94,72.94,0,0,0-10.14,8.69,70.09,70.09,0,0,1-5.12,4.79c-1.15.91-2.38,1.69-3.54,2.56a30,30,0,0,0-2.93-4.8c14.75-3.09,25.31-24,32.52-35.43.87-1.36-1.24-3.07-2.29-1.76-5.27,6.55-10.43,13.25-16,19.59-5,5.75-10.86,9.63-16.61,14.47-.07.06-.1.13-.16.19a25.47,25.47,0,0,0-8.73-5.84,23.61,23.61,0,0,0,3-14.39c1.43-2.21,2.72-4.55,4.07-6.71,1.12-1.77-1.65-3.36-2.78-1.63-.76,1.15-1.57,2.31-2.38,3.47a27.24,27.24,0,0,0-1.45-3.44c.38-.69.74-1.38,1.11-2.05a93.47,93.47,0,0,0,4.37-8.94c.71-1.69-2-2.78-2.92-1.23-1.55,2.76-3.07,5.55-4.67,8.29l-.13.21a32.64,32.64,0,0,0-3.27-3.9c5.33-5.82,8.65-13.76,12.13-20.66a1.17,1.17,0,0,0-2-1.18c-4,6.49-9.39,12.43-13.14,19.12a34.79,34.79,0,0,0-6.27-4c6.09-4.17,11.28-10.13,15.59-15.63,1.8-2.3,3.51-4.67,5.27-7a47.32,47.32,0,0,1,4.65-5.73c3.79.62,5.19,2.6,4.22,5.91.61,7.95-6.28,14.57-2.94,22.73,4.18,10.2,16.6,9.05,25,5.81,4.45-1.72,12.17-7.38,13.07,3.71.2,2.51-2,6.81-2.55,9.25-1.09,4.81-1.53,10.13.68,14.72,5.32,11,20.77,8.68,30.43,6.5,4-.9,11.64-5.41,14.75.1C682.25,710.21,680.41,718.49,679.46,722.19Zm36.13-26.57a101.93,101.93,0,0,1-27.41,6.72c-3.23-8.82-11.57-8.51-20.38-5.88-6.73,2-23.4,6.78-25.33-3.8-1.18-6.5,3.77-13.49,3.58-20.19-.27-9.14-6.9-14.26-15.73-12.2-4.32,1-13.39,7.41-17.59,5.55l-2.66-4.12q-4.26-3.13-1.67-7.15c.2-1.52,1-3.14,1.36-4.65a31.85,31.85,0,0,0,.81-10.65c-1.06-9.11-8.89-15.43-17.34-9.52a24.14,24.14,0,0,0-2.6,2.1c-.1-5,.15-10.08,0-14.83-.31-7.4-.68-14.81-.93-22.22-.49-14.44-.8-28.89-1-43.33,17.73-12.92,28.89-34.78,38.44-53.76,5.94-11.81,10.36-24.21,15.89-36.18,2.62-5.65,5.85-11.4,11.28-14.79s11.83-4.05,17.1-7.58c19.89-13.28,25-44.66,24.22-66.67-.28-8.19-2-19.51-11.63-21.47-6-1.23-11.31,2.34-16.22,5.24Q658,362,648.37,367.77c-7.5-16.74-3.08-36-4.45-53.91-1.27-16.58-8.14-30.81-17.66-43.9,15.11.56,30.14,1.82,44.78,5.1a1.67,1.67,0,0,0-.8,2.74c8.47,8.7,21.2,14.13,30.93,21.51,11.81,9,22.38,19,29.93,31.87a1.05,1.05,0,0,0,1.82-1.06,101.2,101.2,0,0,0-26.58-32.85c-9.38-7.69-21-17.42-32.68-21.58a137.33,137.33,0,0,1,25,8.51c13.88,6.35,27.61,14.94,35.15,28.66s10.45,30.91,10.51,46.3c.17,50.86-55,83.76-46.93,136.1,3.9,25.21,19.47,46.53,25.91,71,7.78,29.55-6.68,56.18-30.61,73.37-11.7,8.41-24.78,14.6-38,20.25a3.49,3.49,0,0,0-2.29,4,3.58,3.58,0,0,0,2.29,3.78c22.85,10.45,49.33,20.65,75.13,22.8C725.08,692.11,720.3,693.79,715.59,695.62Zm100.7-85.5c-3,24.32-16,48.31-37.27,61.26-24.94,15.21-56.23,12.23-82.91,3.71a261.64,261.64,0,0,1-28.25-11.32c20.14-9.28,39.38-20.91,52.69-39.11,13.75-18.78,17.19-41.13,10.71-63.35-6.69-22.95-21-43.35-25-67.15-4.13-24.85,8.94-46.45,21.57-66.65C740.1,407.86,752,388,753.2,364.25c1.24-24-4.73-53.34-22.91-70.39-18.61-17.46-45.33-26.13-70-30.09a270.78,270.78,0,0,0-40.42-3.16c-13.55-.12-27.34.43-40.44-3.63-22-6.83-45.4-24.71-49.18-48.7-3.69-23.47,5-50.74,22.49-67,19.73-18.38,49.71-23,75.46-18.14,29.54,5.56,52.47,22.6,73.72,43,40.4,38.73,79.67,83.25,92.11,139.39a142.12,142.12,0,0,1-6.89,85.32c-9.37,23.12-23.14,46.36-22,72.15,1.1,25.46,17.79,44.85,30.48,65.61C810.38,552.76,819.79,581.51,816.29,610.12Z"/><path d="M547.6,323.13a81.77,81.77,0,0,1,30-19.77c10.37-3.83,24.83-7.84,35.08-2.13,5.06,2.82,9.59-4.94,4.54-7.76-11.85-6.6-27-3.74-39.31.29a91,91,0,0,0-36.64,23C537.2,320.91,543.54,327.27,547.6,323.13Z"/><path d="M371.27,240.37c23-6.18,46.57-10.46,69.39-17.35,19.57-5.91,41.63-14.64,54-31.79,1.93-2.68-2.09-5.19-4.3-3.32-9.8,8.31-19.46,15.71-31.26,21-11.3,5.06-23.31,8.48-35.28,11.53-24.29,6.17-48.9,11.18-72.71,19.09-41.17,13.67-91.64,40.75-102.39,86.84a1,1,0,0,0,1.93.53C271,276.9,322.5,253.46,371.27,240.37Z"/><path d="M448.7,231.09c-9.85,1.77-19.44,5.2-29.24,7.34-9.38,2-18.85,3.57-28.31,5.18-18.33,3.13-36.39,7.11-53.48,14.6-30.79,13.5-56.71,36-73.23,65.35A1.47,1.47,0,0,0,267,325c19.49-28.34,47-51.91,79.39-64.05,16.52-6.19,33.95-8.93,51.27-11.83,17.16-2.88,37.73-4.69,52.47-14.73A1.84,1.84,0,0,0,448.7,231.09Z"/><path d="M465.34,230.73a1.8,1.8,0,0,0,1.38,3.27c17.28-2.94,29.7-21,33.73-36.85a1.51,1.51,0,0,0-2.91-.8,59.76,59.76,0,0,1-13.37,20.86C478.6,222.92,471.82,226.3,465.34,230.73Z"/><path d="M475.93,235.28c-14.57,13.61-34.64,12.86-51.79,20.77a1.57,1.57,0,0,0,.79,2.91c10.15-.87,20.88-4.46,30.5-7.78,8.66-3,16.13-7.27,22.09-14.31A1.12,1.12,0,0,0,475.93,235.28Z"/><path d="M463.49,196.12c1.89-.49,2-3.54,0-4-7.58-1.6-15.4-1.66-23.06-2.83s-15.5-2.8-23.28-4a117.91,117.91,0,0,0-36.26-.51c-24.05,3.71-45.61,15.86-61.88,33.83-1.47,1.62.89,4,2.41,2.41a101.6,101.6,0,0,1,65.69-31.56c13.51-1,26.77,1.51,40,4C438.69,195.63,451.83,199.16,463.49,196.12Z"/><path d="M436.47,205.15c-11-5.6-26.11-7.37-38.41-7.92a71.54,71.54,0,0,0-34.93,7.11c-1.27.62-.36,2.86,1,2.31,11.33-4.64,23.38-5.52,35.48-4.48s23.95,6,36,6.38A1.84,1.84,0,0,0,436.47,205.15Z"/><path d="M400.18,206.54c-1.93-.37-2.78,2.5-.82,3,8.15,2,17,5.23,25.43,5.35,1.32,0,2.06-2.07.72-2.65C417.76,208.84,408.44,208.11,400.18,206.54Z"/><path d="M286.67,227.39c31.91-20.91,57.39-59.86,98.65-61.76,19.06-.88,37.8,4.61,56.47,7.62,15.69,2.54,35.59,5.05,50.1-3.09a2.33,2.33,0,0,0-1.16-4.32c-9.55.27-18.7,3-28.41,2.72-10.38-.32-20.65-2.14-30.85-4-17.39-3.15-35.14-6.53-52.83-3.71-39.77,6.34-63,41.61-93.64,63.69C283.31,225.76,284.87,228.57,286.67,227.39Z"/><path d="M367.11,148.77c13.17-3.66,26.12-6.11,39.79-4,11.92,1.89,22.81,8,34.59,9.79a1.76,1.76,0,0,0,1.35-3.21c-10.47-7.07-25.67-10.83-38.09-12.19-13.62-1.49-25.72,2.2-38.46,6.58C364.43,146.43,365.18,149.31,367.11,148.77Z"/><path d="M453.4,150.78c-2.27-.39-3.28,2.91-1,3.52,8.15,2.17,19.47,5.81,27.93,4,2-.42,1.61-3.05,0-3.65-3.77-1.42-8-1.23-12-1.69C463.38,152.36,458.37,151.63,453.4,150.78Z"/><path d="M405.93,131.69a128.49,128.49,0,0,1,32.52,3.53c9.9,2.43,18.78,7,28.41,10,2.42.76,3.41-2.5,1.61-3.81C451.69,129,426,126.86,405.93,128.64,404,128.81,403.93,131.72,405.93,131.69Z"/><path d="M255.69,295c4.92-6.24,8.19-13.58,13.55-19.52,5.54-6.13,12.48-10.58,19.4-15,15.08-9.58,30.13-19.22,44.72-29.54a1,1,0,0,0-1-1.73c-17.54,9.42-35,19.44-51.73,30.18-12.4,8-24.1,19.18-27.6,34C252.69,294.84,254.64,296.32,255.69,295Z"/><path d="M262.13,268.67c4.24-4.44,7.54-9.39,12.21-13.51s9.6-7.89,14.12-12.17c1.4-1.33-.65-3.28-2.09-2.09-8.61,7.14-24,14.38-27.18,26.06A1.77,1.77,0,0,0,262.13,268.67Z"/><path d="M264.38,362.53c2.16,22.84,16.81,40.39,29.2,58.76a168.69,168.69,0,0,1,18.77,36.56c4.3,11.81,5.41,25.19,10.46,36.57a1.42,1.42,0,0,0,2.57-.34c1.83-11.29-2.53-24.3-6.14-34.88a165.58,165.58,0,0,0-15.69-33.41c-12.83-20.82-31.81-38.68-36.41-63.63C266.86,360.62,264.23,361,264.38,362.53Z"/><path d="M303.86,471.06c3.56,14.37,4,28.84,5.71,43.44.26,2.13,3.75,3.15,4.17.56,4-24.74-3.73-53.17-14.28-75.45-5.85-12.34-13.38-23.4-21.52-34.3s-16.68-22.21-18.56-36.19c-.19-1.38-2.53-1.06-2.45.33,1.38,24.49,20.81,41.63,31.8,62.19A170.87,170.87,0,0,1,303.86,471.06Z"/><path d="M285.79,538.69c-2.11,13.45-6.82,26.56-8.39,40-.29,2.49,3.64,3.44,4.71,1.27,6.34-12.89,8.49-28.75,10.53-42.86a218,218,0,0,0,2.2-44c-1.64-27.63-9.48-53.95-24.36-77.33a1.56,1.56,0,0,0-2.7,1.57c13.25,24,19.84,51.52,20.7,78.86A228.52,228.52,0,0,1,285.79,538.69Z"/><path d="M259.57,572.93c2.26-11.94,8.35-22.62,12.53-33.92a138.47,138.47,0,0,0,6.78-68.79c-.26-1.76-3.3-1.37-3.14.43,2.46,27.12-2.52,53.16-13.59,77.92-8.95,20-14.67,43.87-6,65.2a1.84,1.84,0,0,0,3.59-.49C261,599.78,257,586.59,259.57,572.93Z"/><path d="M236.14,591c-.24-27.56,6.85-53.86,21.9-77,1.11-1.71-1.54-3.18-2.7-1.58-17.59,24.38-25.05,52.2-24.68,82.08C231,617.62,234.44,645.78,254,661a1.79,1.79,0,0,0,2.53-2.53C240.56,639,236.36,615.63,236.14,591Z"/><path d="M309.84,675c-9.56-4.85-18.25-8-26.12-15.76-8.05-7.91-14.63-17.37-20.78-26.79a1.46,1.46,0,0,0-2.51,1.47c9.27,17.24,24.55,46.68,48.42,44.74C310.63,678.48,311.72,675.92,309.84,675Z"/><path d="M343.79,661.12c-10.42-2.82-20.07-2.38-29.65-8.43s-17.81-14.26-26.37-21.39c-1.45-1.21-3.46.7-2.11,2.11C299.32,647.58,321,674.6,344.2,664.3,345.62,663.67,345.13,661.49,343.79,661.12Z"/><path d="M289.37,592.86c1.2,24.22,17,52.74,41,61.23,1.68.6,2.75-1.68,1.65-2.84-7.8-8.26-17.24-14.36-24.39-23.38a72.67,72.67,0,0,1-15.31-35.4C292.07,590.8,289.28,591.2,289.37,592.86Z"/><path d="M339.54,606.19c-6.74-14-4.58-29.7-.37-44.12,6.92-23.73,19.14-46.76,12.53-72-.57-2.18-3.79-1.25-3.35.93,6.31,31.15-15.73,58.14-19.09,88.2a57.13,57.13,0,0,0,29.83,56.69c2.2,1.16,4.54-1.66,2.7-3.5C353.6,624.17,344.67,616.87,339.54,606.19Z"/><path d="M399.32,644.48c-6-7.06-13.84-12.54-20.19-19.34a101.29,101.29,0,0,1-17.15-24c-10.77-21.87-6.82-44.87-1-67.54a1.85,1.85,0,0,0-3.56-1c-6.71,22.8-12,45.06-2.19,67.8,7.73,17.89,23.9,38.5,41.65,47.32A2.06,2.06,0,0,0,399.32,644.48Z"/><path d="M376,513c-.43-2.11-3.51-1.18-3.18.87,4.15,26.58-8,53.24,1.6,79.37a90.84,90.84,0,0,0,14.88,25.25c6.81,8.48,15.18,19,25.13,23.78,1.64.79,3.68-.87,2.62-2.62-5.16-8.49-14.07-14.83-20.55-22.37-7.8-9.06-14.53-19.35-17.87-30.93C371.7,562.42,380.87,537.26,376,513Z"/><path d="M417.43,624.37c1.21.58,3.21-.42,2.58-2-2.13-5.27-6.09-9.51-8.77-14.54a73,73,0,0,1-6.95-20.37c-3.16-16.24-1.85-33-.55-49.32.24-3-4.37-2.95-4.67,0-1.78,17.35-3.67,35-.2,52.26C401.12,601.62,406.26,619,417.43,624.37Z"/><path d="M415.4,584.52c.49,12.19,2.57,27,11.66,36,1.93,1.91,4.63-.49,3.58-2.76-6.75-14.62-9.94-27.05-10-43.32-.06-14.74.34-29.16-3.22-43.58-.46-1.86-3.22-1.06-2.85.78C418.12,549.13,414.69,566.84,415.4,584.52Z"/><path d="M434.71,607.52c1.76-14.73-.5-30.21-.36-45.07,0-2.52-3.74-2.48-3.89,0-.91,14.72-2.55,31.08,1.32,45.47C432.25,609.65,434.53,609.1,434.71,607.52Z"/><path d="M349.3,476.68a1.68,1.68,0,0,0,3.11-.84c.18-15.37-9.73-33.26-17.05-46.39-9.17-16.45-23.49-30.33-30-48.16-.69-1.88-3.65-1.13-3.05.84,5.11,16.67,16.58,29.79,25.21,44.64a198.3,198.3,0,0,1,12.75,26C343.43,460.64,345.07,469.35,349.3,476.68Z"/><path d="M322.48,396.2c10,11.38,16.61,25.36,22.72,39.11s10.9,29.36,18.88,42.13a2.06,2.06,0,0,0,3.75-1.58c-4-15.14-12.11-30.37-18.76-44.53a145.52,145.52,0,0,0-24.53-37.19C323.26,392.75,321.25,394.8,322.48,396.2Z"/><path d="M378.81,486.56c.76,1.59,3.32.79,3.27-.88-.41-14.4-7.69-30.67-17.79-40.79-1.63-1.63-3.88.76-2.48,2.48C371.45,459.15,372.51,473.41,378.81,486.56Z"/><path d="M384.1,473.59c1.85,4.84,2.85,10,5,14.71.77,1.71,3.4.78,3.4-.92,0-11.31-7.43-23.43-13.81-32.3-1.35-1.87-4.45-.15-3.15,1.84A88.41,88.41,0,0,1,384.1,473.59Z"/><path d="M330.55,318.78c-11.35,15.06-9.47,32.51-5.76,49.92.3,1.43,2.31.78,2.13-.58-1.26-9.31-2.37-19.24-.51-28.55,1.95-9.74,7.78-16.74,14.46-23.72,11.94-12.49,26.69-23.23,37.46-36.68,1.43-1.79-.33-4.62-2.57-3.34-8.69,5-15.89,12.51-23.05,19.4C345,302.62,337,310.26,330.55,318.78Z"/><path d="M343.3,329.81c-1,2.18,2.17,4.13,3.27,1.91a104.8,104.8,0,0,1,23.37-31.33c7.53-6.83,17.29-12.23,21-22.14.72-1.92-2-3.24-3.31-1.93C370.58,293.34,353.32,307.17,343.3,329.81Z"/><path d="M384.34,297.27c-11.38,12.41-15,32.34-13,48.58.25,2.07,3.32,2.21,3.33,0,.1-17.76,5.49-30.51,12.61-46.34C388,297.74,385.86,295.61,384.34,297.27Z"/><path d="M365.31,309.46c-5.92,7.57-7,19-7.68,28.29-.13,1.91,3,2.37,3.38.46a138.56,138.56,0,0,1,3.5-14.61c1.26-4.31,3.12-8.49,3.65-13A1.68,1.68,0,0,0,365.31,309.46Z"/><path d="M303.39,332.36c7.55-12.88,18.12-22.91,29.93-31.87,9.72-7.38,22.47-12.82,30.94-21.51a1.65,1.65,0,0,0-1.59-2.73c-12.31,3.74-24.64,14.1-34.52,22.2a101.27,101.27,0,0,0-26.58,32.84C301,332.5,302.7,333.54,303.39,332.36Z"/><path d="M483.6,724.66a2,2,0,0,0,1.06-3.85c-7.1-2.44-15.85-6.25-23.44-4.3-5,1.29-10.34,4.73-10.85,10.19a1.85,1.85,0,0,0,2.75,1.58c4.47-2.53,6.73-6.47,12.4-6.81C471.47,721.12,477.78,723.7,483.6,724.66Z"/><path d="M467.53,723.69a17.93,17.93,0,0,0-8.31,2.49c-2.24,1.35-5.16,3.41-5.14,6.29a2,2,0,0,0,2.45,1.86c2.12-.5,3.47-2.62,5.23-3.8a18.42,18.42,0,0,1,6.34-2.67C470.4,727.34,469.94,723.53,467.53,723.69Z"/><path d="M486.43,678.26c1.77-1,.57-3.92-1.37-3.27-7.07,2.34-20.51,9.71-15.95,18.88a1.45,1.45,0,0,0,2.63-.34C473.13,686.26,480.38,681.5,486.43,678.26Z"/><path d="M484.38,687.75c1.57-1.32-.48-4-2.19-2.84a17.94,17.94,0,0,0-6.31,6.75c-1.3,2.56-2.56,5.86-1,8.53a1.71,1.71,0,0,0,2.91,0c1.32-1.92,1.27-4.45,2.18-6.58A15.62,15.62,0,0,1,484.38,687.75Z"/><path d="M483.91,691.92c-.29,1.54-.68,3.05-1.05,4.57s-.95,3-.42,4.45a1.73,1.73,0,0,0,2.85.75c1.27-1,1.53-2.84,1.78-4.35a36.84,36.84,0,0,0,.42-4.93C487.56,690.39,484.29,689.87,483.91,691.92Z"/><path d="M485.65,779.79c-3.27-1.55-6.8-2.13-9.86-4.19a23.28,23.28,0,0,1-7.66-8.87c-.74-1.49-3-.42-2.6,1.1,1.84,7.8,10.82,17.44,19.75,14.81C486.47,782.29,486.92,780.39,485.65,779.79Z"/><path d="M486.68,773.08a45.93,45.93,0,0,0-5.23-2.28,25.1,25.1,0,0,1-4.84-3c-1.56-1.19-3.33,1.32-2.05,2.65,2.85,2.95,6.83,6.2,11.12,6.31A2,2,0,0,0,486.68,773.08Z"/><path d="M482,765.53c-2.41-.77-3.38,2.94-1,3.75,1.09.38,2.1.85,3.15,1.32a3.69,3.69,0,0,0,3.35.27,1.24,1.24,0,0,0,.61-1.06C488,767.16,484,766.16,482,765.53Z"/><path d="M509.83,785.06a117.54,117.54,0,0,1,3-13.73,1.44,1.44,0,0,0-2.77-.76c-2.35,7-10.62,24.61.93,28.49a1.6,1.6,0,0,0,1.78-2.32C510.59,792.67,509.19,790,509.83,785.06Z"/><path d="M515.45,785.21c0-1.84-3-2.37-3.31-.45-.48,2.72-.7,7.32,2,9a1.43,1.43,0,0,0,2.07-.84,8,8,0,0,0-.41-3.74A17.47,17.47,0,0,1,515.45,785.21Z"/><path d="M514.19,690.64c-1.33-5.7-4.59-10.39-3.61-16.39.81-4.92,2.2-9.93,7.11-12.19,1.68-.77.49-3.45-1.24-2.95-6.21,1.79-8.87,7-10,13.07-1.45,8,1.18,13.05,6.32,19.26C513.37,692.11,514.36,691.38,514.19,690.64Z"/><path d="M511.89,675.46c0,3,.41,7,2.76,9.12.86.77,2.59.31,2.49-1-.22-2.77-1.5-5.25-1.57-8.09C515.51,673.1,511.87,673.08,511.89,675.46Z"/><path d="M445,759.4c-6.35-2.84-13.69-3-20.4-4.89A115.9,115.9,0,0,1,401,745.18a122,122,0,0,1-37.31-30.95c-.87-1.08-2.71.34-1.93,1.49a107.55,107.55,0,0,0,36.5,34.16c12.3,7,31.81,16.39,46.24,13C446,762.48,446.46,760.07,445,759.4Z"/><path d="M393.19,732.67c12,7.59,25.89,20.59,41.34,16.94,1.82-.43,1.64-3,0-3.52-7.44-2.35-14.65-2.89-21.87-6.28-6.16-2.88-12.25-6-18.2-9.32A1.26,1.26,0,0,0,393.19,732.67Z"/><path d="M409.91,733.07c6.3,4,14.48,9.53,22.18,9.74,1.91.05,2.25-2.37.9-3.34-2.89-2.07-6.45-3-9.74-4.29q-5.89-2.31-11.59-5.11A1.74,1.74,0,0,0,409.91,733.07Z"/><path d="M437.35,713.22c1.7.31,3.49-1.87,1.87-3.23-5.75-4.84-11.58-8.72-16.61-14.48-5.53-6.33-10.69-13-16-19.58-1-1.3-3.17.38-2.29,1.76C411.66,689.21,422.34,710.49,437.35,713.22Z"/><path d="M435.77,719.47c-1.58-1.63-3.59-2.7-5.36-4.11s-3.45-3.16-5.12-4.79a72.43,72.43,0,0,0-10.14-8.7c-1.44-1-3.27,1.35-1.87,2.43,6.54,5.08,12.05,17.76,21.28,18.08A1.73,1.73,0,0,0,435.77,719.47Z"/><path d="M435.63,699.83c2.28,1.89,4.4,4.1,7.28,5a1.26,1.26,0,0,0,1.4-1.83c-1.38-2.88-4.24-4.74-6.7-6.67s-5.18-3.8-7.83-5.61c-1.49-1-3.37,1.36-1.95,2.53C430.45,695.42,433,697.66,435.63,699.83Z"/><path d="M456.13,676.85c.89.73,2.8.07,2.23-1.3C454.82,667,448,660,443.1,652.17a1.18,1.18,0,0,0-2,1.19C445.15,661.44,449,671,456.13,676.85Z"/><path d="M449.81,677.71c-1.61-2.74-3.13-5.53-4.68-8.3-.86-1.53-3.64-.47-2.92,1.23a92.49,92.49,0,0,0,4.37,9c1.45,2.62,2.84,5.63,5.31,7.4,1.05.75,2.2-.48,2-1.52C453.31,682.66,451.24,680.15,449.81,677.71Z"/><path d="M449.55,695.42c.76.69,2.18,0,1.82-1.06-1.52-4.66-4.84-8.7-7.5-12.75-1.14-1.73-3.9-.15-2.79,1.63C443.66,687.34,446,692.1,449.55,695.42Z"/><path d="M430.39,733c1.1.48,2.42-.84,1.38-1.79a63.1,63.1,0,0,0-8.89-6.29c-1.64-1.06-3.13,1.54-1.52,2.61A62,62,0,0,0,430.39,733Z"/><path d="M440.45,766.85c-6.72-2.86-13.62-.57-20.54-2.67-7.76-2.34-16.76-5.86-23.53-10.22-1-.66-2.34.95-1.34,1.74,12.77,10.07,28.76,16.84,45.11,13.46C441.14,769,441.45,767.27,440.45,766.85Z"/><path d="M361.73,374.45c-2.41-.14-3,3.12-1.16,4.29,7.91,5.15,14,9.38,18.39,18.2s7.15,18.26,9.39,27.85c.4,1.7,3,1,2.61-.72C387.5,408,383.79,375.78,361.73,374.45Z"/><path d="M369.66,398.66A61.46,61.46,0,0,1,375.75,409c.78,1.8,3.68.51,3.15-1.33a48.64,48.64,0,0,0-7.57-15c-2-2.72-4.89-8.35-9-6.62a1.76,1.76,0,0,0-.42,3.17C365.1,391.42,367.51,395.54,369.66,398.66Z"/><path d="M370.45,419.35c-2.46-4.38-3.79-9.26-6.82-13.33-1.14-1.54-3.74-.14-2.63,1.54,3.47,5.28,3.66,11.81,7.51,16.95,2.69,3.59,6.67,7.16,11.36,7.29a1.56,1.56,0,0,0,1.09-2.64C377.22,425.81,373,424,370.45,419.35Z"/><path d="M593.83,221.84c22.82,6.9,46.38,11.17,69.39,17.35,48.77,13.09,100.27,36.54,120.6,86.52a1,1,0,0,0,1.93-.53C775,279.11,724.54,252,683.37,238.34,660,230.6,635.86,225.6,612,219.59c-12.43-3.13-24.92-6.61-36.64-11.87s-21.44-12.67-31.26-21c-2.19-1.85-6.25.62-4.3,3.32C552.21,207.21,574.25,215.92,593.83,221.84Z"/><path d="M770.05,322.38c-16.51-29.32-42.44-51.85-73.23-65.34-16.6-7.28-34.1-11.25-51.9-14.34-9.45-1.63-18.94-3.11-28.33-5.11-10.34-2.19-20.42-5.81-30.8-7.68a1.84,1.84,0,0,0-1.41,3.34c14.33,9.76,34.21,11.66,50.89,14.46,17.84,3,35.83,5.72,52.86,12.1,32.4,12.14,59.9,35.71,79.38,64.06A1.47,1.47,0,0,0,770.05,322.38Z"/><path d="M569.15,229.55c-6.49-4.43-13.25-7.8-18.82-13.51A59.91,59.91,0,0,1,537,195.17,1.51,1.51,0,0,0,534,196c4,15.8,16.46,33.91,33.73,36.84A1.8,1.8,0,0,0,569.15,229.55Z"/><path d="M610.35,254.88c-17.15-7.92-37.22-7.17-51.79-20.78a1.12,1.12,0,0,0-1.59,1.59c6,7,13.43,11.32,22.09,14.31,9.64,3.33,20.34,6.91,30.51,7.79A1.57,1.57,0,0,0,610.35,254.88Z"/><path d="M713.08,219.86c1.51,1.6,3.87-.79,2.4-2.41-16.27-18-37.83-30.12-61.87-33.82a118,118,0,0,0-36.27.51c-7.78,1.21-15.49,2.83-23.28,4s-15.48,1.23-23,2.82c-2,.43-1.9,3.47,0,4,11.15,2.91,23.61-.28,34.72-2.34,13.78-2.55,27.56-5.35,41.65-4.3A101.65,101.65,0,0,1,713.08,219.86Z"/><path d="M670.39,205.48c1.31.54,2.25-1.69,1-2.31a71.28,71.28,0,0,0-34.92-7.11c-12.37.55-27.33,2.29-38.42,7.92a1.84,1.84,0,0,0,.92,3.4c12-.36,23.88-5.31,36-6.39S659.09,200.84,670.39,205.48Z"/><path d="M609,211c-1.33.58-.6,2.67.72,2.65,8.43-.12,17.29-3.37,25.43-5.35,2-.47,1.11-3.35-.82-3C626.05,206.93,616.72,207.66,609,211Z"/><path d="M542.6,169c14.08,7.89,33.33,5.7,48.59,3.33,19.18-3,38.41-8.76,58-7.86,41.24,1.89,66.74,40.86,98.64,61.76,1.8,1.18,3.36-1.63,1.67-2.85-30.67-22.08-53.86-57.34-93.64-63.69-17.15-2.73-34.43.35-51.31,3.44-10.21,1.86-20.48,3.76-30.87,4.23s-19.84-2.39-29.9-2.68A2.34,2.34,0,0,0,542.6,169Z"/><path d="M591.65,150.23a1.76,1.76,0,0,0,1.35,3.2c11.78-1.79,22.68-7.88,34.59-9.79,13.67-2.18,26.62.29,39.79,4,1.93.54,2.68-2.33.82-3-12.77-4.4-24.8-8.08-38.46-6.58C617.26,139.4,602.16,143.13,591.65,150.23Z"/><path d="M554.13,157.11c8.46,1.82,19.78-1.82,27.93-4,2.31-.61,1.31-3.91-1-3.52-5,.85-10,1.58-15,2.16-4,.46-8.23.28-12,1.69C552.52,154.05,552.14,156.68,554.13,157.11Z"/><path d="M567.63,144c9.63-3,18.52-7.54,28.41-10a128.54,128.54,0,0,1,32.52-3.53c2,0,1.93-2.88,0-3-20-1.77-45.76.41-62.54,12.73C564.24,141.49,565.19,144.77,567.63,144Z"/><path d="M753.87,258.23c-16.77-10.75-34.18-20.77-51.72-30.19a1,1,0,0,0-1,1.73c14.58,10.33,29.64,20,44.72,29.54,6.91,4.39,13.87,8.83,19.39,15,5.35,6,8.63,13.28,13.55,19.53,1.05,1.33,3-.15,2.67-1.56C778,277.41,766.27,266.17,753.87,258.23Z"/><path d="M746,241.81c4.52,4.28,9.45,8.06,14.12,12.17s8,9.08,12.22,13.51a1.77,1.77,0,0,0,2.93-1.71c-3.13-11.67-18.58-18.93-27.18-26C746.68,238.54,744.63,240.48,746,241.81Z"/><path d="M740.91,420.11c12.39-18.37,27.05-35.91,29.2-58.76.15-1.56-2.47-1.93-2.76-.37-4.6,24.94-23.58,42.82-36.41,63.63A164.34,164.34,0,0,0,715.25,458c-3.58,10.55-8,23.61-6.14,34.87a1.42,1.42,0,0,0,2.57.34c5.07-11.4,6.14-24.75,10.46-36.57A170.27,170.27,0,0,1,740.91,420.11Z"/><path d="M777.56,368.28c.08-1.38-2.26-1.74-2.44-.33-1.88,14-10.36,25.19-18.57,36.18s-15.67,22-21.51,34.3c-10.55,22.28-18.32,50.72-14.29,75.45.42,2.57,3.91,1.59,4.17-.56,1.69-14.08,2-28.06,5.34-41.94a171.59,171.59,0,0,1,15.5-40.92C756.75,409.9,776.18,392.77,777.56,368.28Z"/><path d="M764,414.63C749.13,438,741.29,464.34,739.65,492a218,218,0,0,0,2.2,44c2,14.08,4.21,30,10.54,42.86,1.06,2.17,5,1.22,4.7-1.27-1.5-12.91-6-25.5-8.12-38.37a227,227,0,0,1-3-44.11c.91-27.35,7.44-54.8,20.7-78.85A1.57,1.57,0,0,0,764,414.63Z"/><path d="M778.39,612.59c8.62-21.33,2.9-45.19-6-65.2-11.08-24.75-16.06-50.8-13.6-77.92.16-1.77-2.87-2.21-3.14-.43a138.94,138.94,0,0,0,6.78,68.79c4,10.78,9.82,21,12.22,32.3,3,14.25-1.21,27.88.2,42A1.83,1.83,0,0,0,778.39,612.59Z"/><path d="M776.46,512.76c15,23.2,22.13,49.48,21.89,77.06-.22,24.63-4.41,48-20.39,67.49a1.79,1.79,0,0,0,2.53,2.54c19.56-15.24,23.06-43.41,23.34-66.59.37-29.87-7.09-57.7-24.68-82.07C778,509.59,775.34,511.05,776.46,512.76Z"/><path d="M771.55,631.24c-6.14,9.42-12.73,18.88-20.78,26.79-7.85,7.72-16.58,10.92-26.12,15.76-1.87,1-.79,3.52,1,3.66,23.85,1.94,39.15-27.5,48.42-44.74A1.46,1.46,0,0,0,771.55,631.24Z"/><path d="M748.83,632.23c1.36-1.41-.65-3.32-2.11-2.11-8.57,7.14-16.92,15.44-26.37,21.4-9.62,6.07-19.21,5.59-29.65,8.43-1.33.36-1.83,2.54-.41,3.17C713.46,673.42,735.18,646.39,748.83,632.23Z"/><path d="M704.15,652.91c24-8.49,39.77-37,41-61.22.08-1.65-2.7-2.08-2.93-.4a72.69,72.69,0,0,1-15.32,35.4c-7.14,9-16.59,15.12-24.39,23.38C701.39,651.23,702.46,653.51,704.15,652.91Z"/><path d="M686.14,489.8c.44-2.17-2.78-3.11-3.35-.92-6.6,25.21,5.58,48.32,12.53,72,4.24,14.43,6.33,30.06-.37,44.12-5.09,10.68-14.07,18-22.25,26.18a2.24,2.24,0,0,0,2.7,3.5A57.14,57.14,0,0,0,705.23,578C701.87,547.94,679.83,521,686.14,489.8Z"/><path d="M679.3,599.2c9.83-22.73,4.52-45-2.19-67.8a1.85,1.85,0,0,0-3.56,1c5.78,22.67,9.72,45.68-1,67.54a99.82,99.82,0,0,1-16.2,23c-6.6,7.21-14.81,13-21.14,20.37a2.06,2.06,0,0,0,2.49,3.22C655.41,637.7,671.57,617.09,679.3,599.2Z"/><path d="M660.11,592c9.65-26.13-2.55-52.79,1.61-79.36.32-2.06-2.76-3-3.19-.88-4.91,24.3,4.18,49.41-2.63,73.35-3.16,11.1-9.56,21.1-16.94,29.86-6.7,8-16.08,14.56-21.48,23.45-1.06,1.74,1,3.4,2.62,2.61,9.57-4.6,17.61-14.59,24.23-22.68S656.53,601.73,660.11,592Z"/><path d="M635.62,589.25c3.47-17.27,1.58-34.92-.2-52.27-.3-2.94-4.91-3-4.67,0,1.31,16.35,2.61,33.08-.55,49.32a73.45,73.45,0,0,1-7,20.38c-2.67,5-6.64,9.26-8.77,14.53-.63,1.56,1.36,2.57,2.58,2C628.23,617.81,633.37,600.42,635.62,589.25Z"/><path d="M619.92,530.44c.37-1.85-2.39-2.65-2.85-.79-3.56,14.41-3.16,28.85-3.22,43.58-.06,16.25-3.25,28.7-10,43.32-1,2.25,1.63,4.69,3.58,2.76,9.09-9,11.17-23.77,11.66-36C619.8,565.66,616.37,548,619.92,530.44Z"/><path d="M604,561.28c-.16-2.48-3.92-2.53-3.9,0,.14,14.85-2.11,30.34-.36,45.06.18,1.57,2.45,2.15,2.93.4C606.59,592.34,604.94,576,604,561.28Z"/><path d="M682.08,474.66a1.68,1.68,0,0,0,3.11.84c4-6.87,5.56-15,8.44-22.43A198.87,198.87,0,0,1,707,425.59c8.64-14.85,20.1-28,25.21-44.64.6-2-2.36-2.72-3-.84-6.49,17.84-20.8,31.7-30,48.16C691.82,441.39,681.9,459.32,682.08,474.66Z"/><path d="M670.41,476.26c8-12.77,12.75-28.37,18.88-42.13S702,406.4,712,395c1.23-1.4-.78-3.45-2.06-2.06a145.36,145.36,0,0,0-24.52,37.2c-6.66,14.16-14.8,29.38-18.77,44.52A2.06,2.06,0,0,0,670.41,476.26Z"/><path d="M655.68,485.38c6.31-13.17,7.35-27.39,17-39.19,1.4-1.71-.85-4.11-2.48-2.48-10.1,10.12-17.37,26.4-17.79,40.79C652.37,486.17,654.92,487,655.68,485.38Z"/><path d="M645.41,487.12c2.13-4.71,3.13-9.86,5-14.7A87.49,87.49,0,0,1,659,455.75c1.3-2-1.8-3.72-3.15-1.84-6.39,8.86-13.78,21-13.81,32.29C642,487.9,644.63,488.83,645.41,487.12Z"/><path d="M707.57,366.94c-.18,1.36,1.83,2,2.14.59,3.71-17.46,5.56-34.81-5.77-49.92-6.07-8.11-13.73-15.38-21-22.41-7.5-7.28-15.1-15.33-24.23-20.55-2.22-1.26-4,1.54-2.57,3.34,10.77,13.45,25.52,24.2,37.46,36.68,6.68,7,12.51,14,14.46,23.72C710,347.71,708.83,357.63,707.57,366.94Z"/><path d="M646.85,275.15c-1.32-1.32-4,0-3.32,1.93,3.73,9.89,13.49,15.31,21,22.13a104.8,104.8,0,0,1,23.37,31.33c1.1,2.22,4.24.28,3.27-1.91C681.17,306,663.91,292.16,646.85,275.15Z"/><path d="M647.26,298.33c7.12,15.84,12.51,28.58,12.61,46.34,0,2.2,3.08,2.07,3.34,0,2-16.24-1.67-36.17-13.06-48.57C648.64,294.44,646.46,296.54,647.26,298.33Z"/><path d="M666.33,309.46c.53,4.47,2.39,8.65,3.66,13A141,141,0,0,1,673.48,337c.34,1.9,3.52,1.48,3.38-.46-.66-9.29-1.76-20.72-7.68-28.29A1.68,1.68,0,0,0,666.33,309.46Z"/><path d="M579.64,715.43c-7.57-1.95-16.4,1.87-23.45,4.29a2,2,0,0,0,1.06,3.86c5.71-.94,12.25-3.62,18.08-3.19,5.49.4,8,4.31,12.41,6.81a1.84,1.84,0,0,0,2.74-1.58C590,720.15,584.67,716.72,579.64,715.43Z"/><path d="M581.64,725.1a18.09,18.09,0,0,0-8.31-2.5c-2.39-.15-2.9,3.65-.57,4.17a18.59,18.59,0,0,1,6.34,2.67c1.75,1.19,3.11,3.3,5.23,3.8a2,2,0,0,0,2.44-1.86C586.8,728.51,583.87,726.44,581.64,725.1Z"/><path d="M553.45,677.08c6.06,3.24,13.3,8,14.69,15.27a1.46,1.46,0,0,0,2.63.35c4.56-9.18-8.88-16.55-15.94-18.89C552.9,673.17,551.66,676.13,553.45,677.08Z"/><path d="M557.69,683.74c-1.69-1.11-3.77,1.5-2.19,2.83a15.52,15.52,0,0,1,4.38,5.86c.92,2.14.86,4.66,2.18,6.58a1.71,1.71,0,0,0,2.91,0c1.59-2.67.33-6-1-8.53A17.86,17.86,0,0,0,557.69,683.74Z"/><path d="M554.59,700.51a1.73,1.73,0,0,0,2.85-.75c.53-1.44-.07-3-.42-4.45s-.76-3-1-4.56c-.37-2-3.65-1.56-3.58.48a37.13,37.13,0,0,0,.42,4.94C553.06,697.68,553.32,699.52,554.59,700.51Z"/><path d="M570,767.35a23.27,23.27,0,0,1-7.67,8.86c-3,2.08-6.59,2.65-9.85,4.2-1.27.6-.83,2.5.37,2.85,8.92,2.63,17.9-7,19.74-14.81C572.91,766.94,570.7,765.85,570,767.35Z"/><path d="M563.52,771.09c1.27-1.32-.47-3.85-2-2.65a24.87,24.87,0,0,1-4.85,3,46.57,46.57,0,0,0-5.22,2.28,2,2,0,0,0,1,3.7C556.69,777.29,560.68,774,563.52,771.09Z"/><path d="M554,771.22c1-.47,2.06-.94,3.14-1.32,2.35-.81,1.38-4.52-1-3.76-2,.64-6,1.64-6.07,4.29a1.22,1.22,0,0,0,.61,1.06C551.78,772.1,553,771.69,554,771.22Z"/><path d="M670.78,713.05a122.06,122.06,0,0,1-37.31,31,116.09,116.09,0,0,1-22.21,9c-7.1,2.07-15,2.26-21.73,5.26-1.5.67-1,3.08.45,3.43,14.43,3.44,33.92-6,46.23-12.95a107.37,107.37,0,0,0,36.5-34.16C673.48,713.4,671.66,712,670.78,713.05Z"/><path d="M604.71,689.54c-2.65,1.81-5.31,3.63-7.83,5.61s-5.32,3.8-6.7,6.67a1.26,1.26,0,0,0,1.4,1.83c2.88-.9,5-3.11,7.28-5,2.62-2.17,5.18-4.42,7.8-6.58C608.07,690.92,606.22,688.51,604.71,689.54Z"/><path d="M638.11,752.78c-6.77,4.36-15.77,7.88-23.53,10.23-6.91,2.09-13.82-.2-20.54,2.66a1.28,1.28,0,0,0,.31,2.31c16.32,3.38,32.35-3.4,45.1-13.46C640.44,753.74,639.16,752.11,638.11,752.78Z"/><path d="M646.14,423.61c2.24-9.57,4.94-19,9.39-27.84s10.48-13,18.39-18.21c1.79-1.17,1.25-4.43-1.16-4.29-22,1.33-25.78,33.62-29.23,49.62C643.17,424.59,645.74,425.31,646.14,423.61Z"/><path d="M658.74,407.86a61,61,0,0,1,6.09-10.37c2.16-3.14,4.55-7.25,7.75-9.38a1.77,1.77,0,0,0-.42-3.18c-4.11-1.73-7,3.91-9,6.62a48.55,48.55,0,0,0-7.56,15C655.06,408.35,658,409.69,658.74,407.86Z"/><path d="M670.86,404.84c-3,4.07-4.36,9-6.81,13.34-2.6,4.62-6.77,6.45-10.52,9.8a1.56,1.56,0,0,0,1.09,2.64c4.69-.13,8.67-3.71,11.36-7.29,3.85-5.13,4-11.67,7.52-16.95C674.6,404.71,672,403.3,670.86,404.84Z"/><path d="M513.48,746.21a1.42,1.42,0,0,0,1.21-2.11c-3.07-5.08-7.73-7.59-7.36-14.43.36-6.6,5.83-12.11,11.53-14.67.93-.41.23-1.7-.65-1.54-8.08,1.49-14.64,7.44-15.42,15.91C502.2,735.69,505.82,746.29,513.48,746.21Z"/><path d="M517.61,736.18a13.91,13.91,0,0,1-1.75-10.45c.24-.84-1.06-1.44-1.44-.61-1.84,4-3.24,7.48-1.3,11.74,1.57,3.46,3.6,7.67,7.74,8.18,1.17.14,1.58-1.27,1.21-2.12C521,740.48,519,738.46,517.61,736.18Z"/><path d="M518.93,734.6a22.2,22.2,0,0,0,3.41,4.81,14.92,14.92,0,0,0,2.09,1.8,4.23,4.23,0,0,0,2.82.78,1.12,1.12,0,0,0,1-1.66,4.77,4.77,0,0,0-1.29-2c-.63-.55-1.26-1.09-1.88-1.65a23.85,23.85,0,0,1-3.4-3.7A1.57,1.57,0,0,0,518.93,734.6Z"/><path d="M515,151.57c-.65,1.71,1.62,2.52,2.75,1.6,6.71-5.42,11.79-12.69,18.34-18.37a113.24,113.24,0,0,1,23.36-15.46c16.81-8.44,35.68-12.28,54.41-12.54a1.25,1.25,0,0,0,0-2.49c-19.81-2.43-39.29,1.5-57.26,10.15C541.36,121.8,521.2,135.06,515,151.57Z"/><path d="M512.43,144.36c2.77-2.38,4.86-5.48,7.37-8.14s5.25-5.25,7.9-7.85c1.18-1.15-.38-3.31-1.81-2.34-5.91,4-14.37,9.4-15.9,16.91A1.47,1.47,0,0,0,512.43,144.36Z"/><path d="M440.59,106.85a154.61,154.61,0,0,1,26.62,4.84c7.77,2.09,13.37,6.27,20.41,9.57a1.93,1.93,0,0,0,2.62-2.62c-7.63-14.19-35.89-14.78-49.65-14.81C438.62,103.82,438.68,106.68,440.59,106.85Z"/><path d="M489.78,110.15c2.52,1.69,5.05,3.33,7.72,4.77,2.25,1.2,4.75,3,7.38,2.8,1.18-.1,2.31-1.42,1.49-2.59-1.57-2.22-4.21-2.94-6.6-4.1-2.73-1.32-5.48-2.59-8.2-3.94A1.77,1.77,0,0,0,489.78,110.15Z"/><path d="M344.94,769.16c-5.81-1-11.65-.92-17.53-1.12-2.88-.11-5.79-.4-8.7-.54a8.13,8.13,0,0,0-5.34-6.48c-.15-2.5-.37-5-.46-7.49-.21-5.88-.14-11.72-1.12-17.53a.92.92,0,0,0-1.76,0c-1,5.81-.92,11.65-1.13,17.53-.08,2.4-.3,4.81-.45,7.23a8.06,8.06,0,0,0-6.3,6.8c-2.59.14-5.19.38-7.75.48-5.88.2-11.72.14-17.53,1.12a.92.92,0,0,0,0,1.76c5.81,1,11.65.91,17.53,1.12,2.69.1,5.41.36,8.13.5a7.84,7.84,0,0,0,5.84,5.28c.13,2.92.43,5.84.53,8.72.21,5.88.14,11.72,1.13,17.54a.92.92,0,0,0,1.76,0c1-5.82.91-11.66,1.12-17.54.1-3,.42-6,.55-9a7.89,7.89,0,0,0,4.86-5c3-.12,6.08-.44,9.09-.55,5.88-.21,11.72-.14,17.53-1.12A.92.92,0,0,0,344.94,769.16Z"/><path d="M767.59,143.19c5.82,1,11.66.91,17.54,1.12,2.69.09,5.41.35,8.13.5a7.84,7.84,0,0,0,5.84,5.28c.13,2.91.43,5.84.53,8.72.21,5.88.14,11.72,1.12,17.53a.92.92,0,0,0,1.76,0c1-5.81.92-11.65,1.13-17.53.1-3,.42-6,.54-9a7.87,7.87,0,0,0,4.86-5c3-.13,6.09-.45,9.1-.55,5.88-.21,11.72-.14,17.53-1.12a.92.92,0,0,0,0-1.76c-5.81-1-11.65-.92-17.53-1.13-2.88-.1-5.8-.4-8.7-.53a8.11,8.11,0,0,0-5.34-6.48c-.15-2.5-.38-5-.46-7.49-.21-5.88-.14-11.72-1.13-17.53a.92.92,0,0,0-1.76,0c-1,5.81-.91,11.65-1.12,17.53-.08,2.39-.3,4.81-.45,7.23a8.06,8.06,0,0,0-6.3,6.79c-2.59.15-5.19.39-7.75.48-5.88.21-11.72.14-17.54,1.13A.92.92,0,0,0,767.59,143.19Z"/><path d="M602.4,873.62c-5.81-1-11.65-.92-17.53-1.12-2.88-.11-5.8-.4-8.7-.54a8.1,8.1,0,0,0-5.34-6.47c-.15-2.51-.38-5-.46-7.5-.21-5.87-.14-11.72-1.13-17.53a.92.92,0,0,0-1.76,0c-1,5.81-.91,11.66-1.12,17.53-.08,2.4-.3,4.82-.45,7.23a8.06,8.06,0,0,0-6.3,6.8c-2.59.14-5.19.39-7.75.48-5.88.2-11.72.14-17.54,1.12a.92.92,0,0,0,0,1.76c5.82,1,11.66.91,17.54,1.12,2.69.1,5.41.36,8.13.5a7.84,7.84,0,0,0,5.84,5.29c.13,2.91.43,5.83.53,8.71.21,5.88.14,11.72,1.12,17.54a.92.92,0,0,0,1.76,0c1-5.82.92-11.66,1.13-17.54.1-3,.42-6,.55-9a7.86,7.86,0,0,0,4.85-5c3-.12,6.09-.44,9.1-.55,5.88-.21,11.72-.14,17.53-1.12A.92.92,0,0,0,602.4,873.62Z"/><path d="M838.58,449.21a15.7,15.7,0,1,0,15.69,15.69A15.71,15.71,0,0,0,838.58,449.21Zm0,26a10.3,10.3,0,1,1,10.3-10.3A10.32,10.32,0,0,1,838.58,475.2Z"/><path d="M732.24,766.52a15.69,15.69,0,1,0,15.69,15.69A15.71,15.71,0,0,0,732.24,766.52Zm0,26a10.3,10.3,0,1,1,10.3-10.3A10.31,10.31,0,0,1,732.24,792.51Z"/><path d="M161.42,456.05a15.69,15.69,0,1,0,15.7,15.69A15.71,15.71,0,0,0,161.42,456.05Zm0,26a10.3,10.3,0,1,1,10.31-10.3A10.32,10.32,0,0,1,161.42,482Z"/><path d="M187.42,304.36a15.7,15.7,0,1,0,15.69,15.7A15.71,15.71,0,0,0,187.42,304.36Zm0,26a10.3,10.3,0,1,1,10.3-10.3A10.31,10.31,0,0,1,187.42,330.36Z"/></svg>