<svg enable-background="new 0 0 593.54 593.54" viewBox="0 0 593.54 593.54" xmlns="http://www.w3.org/2000/svg"><g fill="#95608f"><path d="m265.22 166.7c8.59-.3 17.4-.09 26.04-.14 6.84-.04 13.69-.07 20.53-.11 5.52-.03 10.86.15 16.37-.17-2.06.12-.32-18.96-.3-20.68.06-9.92 1.35-20.64-.69-30.4-1.65-7.88-5.23-15.14-9.33-22.01-8.18-13.69-18.86-26.56-21.61-42.72-1.49-8.77-2.3-17.63-3.1-26.48-.71-7.83-1.05-16.46-2.87-24.01-2.99 10.49-5.79 21.05-9.29 31.39-5.63 16.64-5.33 34.68-2.42 51.83 1.58 9.33 3.91 18.69 3.23 28.13-.74 10.1-4.85 19.47-8.45 28.8-1.85 4.79-3.63 9.63-4.78 14.65-.3 1.31-1.29 11.85-3.33 11.92z"/><path d="m328.32 426.83c-8.59.3-17.4.09-26.04.14-6.84.04-13.69.07-20.53.11-5.52.03-10.86-.15-16.37.17 2.06-.12.32 18.96.3 20.68-.06 9.92-1.35 20.64.69 30.4 1.65 7.88 5.23 15.14 9.33 22.01 8.18 13.69 18.86 26.56 21.61 42.72 1.49 8.77 2.3 17.63 3.1 26.48.71 7.83 1.05 16.46 2.87 24.01 2.99-10.49 5.79-21.05 9.29-31.39 5.63-16.64 5.33-34.68 2.42-51.83-1.58-9.33-3.91-18.69-3.23-28.13.74-10.1 4.85-19.47 8.45-28.8 1.85-4.79 3.63-9.63 4.78-14.65.3-1.31 1.28-11.84 3.33-11.92z"/><path d="m204.41 199.9c7.29-4.56 15.02-8.78 22.49-13.14 5.91-3.45 11.82-6.9 17.72-10.36 4.77-2.79 9.48-5.3 14.09-8.33-1.73 1.13-9.75-16.26-10.6-17.75-4.91-8.62-9.15-18.55-15.8-25.98-5.37-6-12.1-10.5-19.09-14.39-13.93-7.76-29.61-13.57-40.07-26.19-5.68-6.85-10.81-14.12-15.92-21.38-4.53-6.43-9.14-13.73-14.49-19.36 2.65 10.58 5.51 21.13 7.65 31.83 3.44 17.23 12.73 32.7 23.81 46.1 6.03 7.29 12.74 14.23 16.86 22.75 4.41 9.11 5.53 19.29 7.09 29.17.8 5.07 1.67 10.16 3.18 15.08.4 1.25 4.82 10.87 3.08 11.95z"/><path d="m389.12 393.63c-7.29 4.56-15.02 8.78-22.49 13.14-5.91 3.45-11.82 6.9-17.72 10.36-4.77 2.79-9.48 5.3-14.09 8.33 1.73-1.13 9.75 16.26 10.6 17.75 4.91 8.62 9.15 18.55 15.8 25.98 5.37 6 12.1 10.5 19.09 14.39 13.93 7.76 29.61 13.57 40.07 26.19 5.68 6.85 10.81 14.12 15.92 21.38 4.53 6.43 9.14 13.73 14.49 19.36-2.65-10.58-5.51-21.13-7.65-31.83-3.44-17.23-12.73-32.7-23.81-46.1-6.03-7.29-12.74-14.23-16.86-22.75-4.41-9.11-5.53-19.29-7.09-29.17-.8-5.07-1.67-10.16-3.18-15.08-.39-1.24-4.81-10.86-3.08-11.95z"/><path d="m168.36 259.06c4.03-7.59 8.62-15.11 12.9-22.62 3.39-5.94 6.78-11.89 10.17-17.83 2.74-4.8 5.56-9.33 8.04-14.26-.93 1.84-16.58-9.21-18.06-10.07-8.56-5.01-17.2-11.49-26.67-14.6-7.65-2.51-15.73-3.04-23.73-2.92-15.94.24-32.43 3.05-47.8-2.64-8.34-3.09-16.42-6.82-24.48-10.56-7.14-3.31-14.78-7.32-22.23-9.52 7.59 7.84 15.33 15.54 22.54 23.74 11.6 13.2 27.37 21.95 43.67 28.01 8.87 3.3 18.14 5.95 25.97 11.27 8.37 5.68 14.44 13.94 20.72 21.72 3.23 3.99 6.53 7.96 10.29 11.47.99.88 9.63 7 8.67 8.81z"/><path d="m425.18 334.48c-4.03 7.59-8.62 15.11-12.9 22.62-3.39 5.94-6.78 11.89-10.17 17.83-2.74 4.8-5.56 9.33-8.04 14.26.93-1.84 16.58 9.21 18.06 10.07 8.56 5.01 17.2 11.49 26.67 14.6 7.65 2.51 15.73 3.04 23.73 2.92 15.94-.24 32.43-3.05 47.8 2.64 8.34 3.09 16.42 6.82 24.48 10.56 7.14 3.31 14.78 7.32 22.23 9.52-7.59-7.84-15.33-15.54-22.54-23.74-11.6-13.2-27.37-21.95-43.67-28.01-8.87-3.3-18.14-5.95-25.97-11.27-8.37-5.68-14.44-13.94-20.72-21.72-3.23-3.99-6.53-7.96-10.29-11.47-.99-.88-9.63-7-8.67-8.81z"/><path d="m166.7 328.32c-.3-8.59-.09-17.4-.14-26.04-.04-6.84-.07-13.69-.11-20.53-.03-5.52.15-10.86-.17-16.37.12 2.06-18.96.32-20.68.3-9.92-.06-20.64-1.35-30.4.69-7.88 1.65-15.14 5.23-22.01 9.33-13.69 8.18-26.56 18.86-42.72 21.61-8.77 1.49-17.63 2.3-26.48 3.1-7.83.71-16.46 1.05-24.01 2.87 10.49 2.99 21.05 5.79 31.39 9.29 16.64 5.63 34.68 5.33 51.83 2.42 9.33-1.58 18.69-3.91 28.13-3.23 10.1.74 19.47 4.85 28.8 8.45 4.79 1.85 9.63 3.63 14.65 4.78 1.31.3 11.85 1.28 11.92 3.33z"/><path d="m426.83 265.22c.3 8.59.09 17.4.14 26.04.04 6.84.07 13.69.11 20.53.03 5.52-.15 10.86.17 16.37-.12-2.06 18.96-.32 20.68-.3 9.92.06 20.64 1.35 30.4-.69 7.88-1.65 15.14-5.23 22.01-9.33 13.69-8.18 26.56-18.86 42.72-21.61 8.77-1.49 17.63-2.3 26.48-3.1 7.83-.71 16.46-1.05 24.01-2.87-10.49-2.99-21.05-5.79-31.39-9.29-16.64-5.63-34.68-5.33-51.83-2.42-9.33 1.58-18.69 3.91-28.13 3.23-10.1-.74-19.47-4.85-28.8-8.45-4.79-1.85-9.63-3.63-14.65-4.78-1.31-.3-11.84-1.28-11.92-3.33z"/><path d="m199.9 389.12c-4.56-7.29-8.78-15.02-13.14-22.49-3.45-5.91-6.9-11.82-10.36-17.72-2.79-4.77-5.3-9.48-8.33-14.09 1.13 1.73-16.26 9.75-17.75 10.6-8.62 4.91-18.55 9.15-25.98 15.8-6 5.37-10.5 12.1-14.39 19.09-7.76 13.93-13.57 29.61-26.19 40.07-6.85 5.68-14.12 10.81-21.38 15.92-6.43 4.53-13.73 9.14-19.36 14.49 10.58-2.65 21.13-5.51 31.83-7.65 17.23-3.44 32.7-12.73 46.1-23.81 7.29-6.03 14.23-12.74 22.75-16.86 9.11-4.41 19.29-5.53 29.17-7.09 5.07-.8 10.16-1.67 15.08-3.18 1.25-.39 10.87-4.81 11.95-3.08z"/><path d="m393.63 204.41c4.56 7.29 8.78 15.02 13.14 22.49 3.45 5.91 6.9 11.82 10.36 17.72 2.79 4.77 5.3 9.48 8.33 14.09-1.13-1.73 16.26-9.75 17.75-10.6 8.62-4.91 18.55-9.15 25.98-15.8 6-5.37 10.5-12.1 14.39-19.09 7.76-13.93 13.57-29.61 26.19-40.07 6.85-5.68 14.12-10.81 21.38-15.92 6.43-4.53 13.73-9.14 19.36-14.49-10.58 2.65-21.13 5.51-31.83 7.65-17.23 3.44-32.7 12.73-46.1 23.81-7.29 6.03-14.23 12.74-22.75 16.86-9.11 4.41-19.29 5.53-29.17 7.09-5.07.8-10.16 1.67-15.08 3.18-1.24.4-10.86 4.82-11.95 3.08z"/><path d="m259.06 425.18c-7.59-4.03-15.11-8.62-22.62-12.9-5.94-3.39-11.89-6.78-17.83-10.17-4.8-2.74-9.33-5.56-14.26-8.04 1.84.93-9.21 16.58-10.07 18.06-5.01 8.56-11.49 17.2-14.6 26.67-2.51 7.65-3.04 15.73-2.92 23.73.24 15.94 3.05 32.43-2.64 47.8-3.09 8.34-6.82 16.42-10.56 24.48-3.31 7.14-7.32 14.78-9.52 22.23 7.84-7.59 15.54-15.33 23.74-22.54 13.2-11.6 21.95-27.37 28.01-43.67 3.3-8.87 5.95-18.14 11.27-25.97 5.68-8.37 13.94-14.44 21.72-20.72 3.99-3.23 7.96-6.53 11.47-10.29.88-.99 7-9.63 8.81-8.67z"/><path d="m334.48 168.36c7.59 4.03 15.11 8.62 22.62 12.9 5.94 3.39 11.89 6.78 17.83 10.17 4.8 2.74 9.33 5.56 14.26 8.04-1.84-.93 9.21-16.58 10.07-18.06 5.01-8.56 11.49-17.2 14.6-26.67 2.51-7.65 3.04-15.73 2.92-23.73-.24-15.94-3.05-32.43 2.64-47.8 3.09-8.34 6.82-16.42 10.56-24.48 3.31-7.14 7.32-14.78 9.52-22.23-7.84 7.59-15.54 15.33-23.74 22.54-13.2 11.6-21.95 27.37-28.01 43.67-3.3 8.87-5.95 18.14-11.27 25.97-5.68 8.37-13.94 14.44-21.72 20.72-3.99 3.23-7.96 6.53-11.47 10.29-.88.99-7 9.63-8.81 8.67z"/></g><g opacity=".1"><path d="m327.86 145.62c.06-9.92 1.35-20.64-.69-30.4-1.65-7.88-5.23-15.14-9.33-22.01-8.18-13.69-18.86-26.56-21.61-42.72-1.49-8.77-2.3-17.63-3.1-26.48-.71-7.83-1.05-16.46-2.87-24.01-2 7.03-3.93 14.08-6.02 21.08-1.43 15.61-.98 31.15 8.78 44.16 22.13 31.97 27.46 66.63 22.6 101.23 4.19.02 8.32.07 12.55-.17-2.07.11-.32-18.96-.31-20.68z"/><path d="m315.8 427c-8.92 19.55-15.48 39.9-11.78 60.24 7.05 32.89 5.51 63.33-2.7 93.24.41 4.47.96 8.92 1.96 13.06 2.99-10.49 5.79-21.05 9.29-31.39 5.63-16.64 5.33-34.68 2.42-51.83-1.58-9.33-3.91-18.69-3.23-28.13.74-10.1 4.85-19.47 8.45-28.8 1.85-4.79 3.63-9.63 4.78-14.65.3-1.3 1.28-11.84 3.33-11.91-4.14.15-8.33.17-12.52.17z"/><path d="m258.72 168.08c-1.73 1.13-9.75-16.26-10.6-17.75-4.91-8.62-9.15-18.55-15.8-25.98-5.37-6-12.1-10.5-19.09-14.39-13.93-7.76-29.61-13.57-40.07-26.19-5.68-6.85-10.81-14.12-15.92-21.38-4.53-6.43-9.14-13.73-14.49-19.36 2.14 8.52 4.4 17.01 6.32 25.58 16.23 25.73 49.9 37.47 73.95 57.64 14.75 11.98 17.6 32.46 21.09 50.47.17-.1.35-.2.52-.3 4.76-2.8 9.48-5.31 14.09-8.34z"/><path d="m443.14 518.7c-3.44-17.23-12.73-32.7-23.81-46.1-6.03-7.29-12.73-14.23-16.86-22.75-4.41-9.11-5.53-19.29-7.09-29.17-.8-5.07-1.67-10.16-3.18-15.08-.39-1.28-4.81-10.89-3.08-11.98-3.57 2.23-7.24 4.38-10.93 6.5 5.21 16.26 4.11 34.52 11.83 49.1 10 19 30 31 38 51 4.29 12.34 8.01 24.68 12.39 36.86 3.25 4.71 6.63 9.47 10.38 13.42-2.66-10.56-5.51-21.1-7.65-31.8z"/><path d="m181.41 194.27c-8.56-5.01-17.2-11.49-26.67-14.6-7.65-2.51-15.73-3.04-23.73-2.92-.3 0-.6.02-.9.02 20.21 7.1 41.74 14.59 48.89 32.47 6 14-22 19-17 38-1.3.33-2.5.97-3.66 1.65.45.44.88.9 1.34 1.33.98.91 9.61 7.03 8.65 8.84 4.03-7.59 8.62-15.11 12.9-22.62 3.39-5.94 6.78-11.89 10.17-17.83 2.74-4.8 5.56-9.33 8.04-14.26-.9 1.84-16.54-9.21-18.03-10.08z"/><path d="m534.49 415.78c-11.6-13.2-27.37-21.95-43.67-28.01-8.87-3.3-18.14-5.95-25.97-11.27-8.37-5.68-14.44-13.94-20.72-21.72-3.23-3.99-6.53-7.96-10.29-11.47-.98-.91-9.61-7.03-8.65-8.84-2.78 5.23-5.82 10.43-8.85 15.62 15.47 11.48 28.07 28.07 43.68 34.14 32.41 12.15 68.1 29.56 92.71 53.81 1.44.54 2.88 1.04 4.31 1.47-7.6-7.83-15.34-15.53-22.55-23.73z"/><path d="m166.57 302.27c-.04-6.84-.07-13.69-.11-20.53-.03-5.52.15-10.86-.17-16.37.06 1.06-5 1.11-10.14.91-1.49 15.33 4.61 37.27-6.14 39.96-10.8 2.7-22.04 4.8-33.5 6.19 8.16 1.48 15.91 4.8 23.63 7.78 4.79 1.85 9.63 3.63 14.65 4.78 1.3.3 11.84 1.28 11.91 3.33-.3-8.59-.09-17.4-.13-26.05z"/><path d="m562.15 280.97c-7.08-2.39-14.41-3.71-21.81-4.21 2.74 5.26 3.75 10.73-.32 12.48-20.65 8.45-37.77 20.42-54.68 35.91 5.24-1.88 10.22-4.46 14.99-7.32 13.69-8.18 26.56-18.86 42.72-21.61 8.77-1.49 17.63-2.3 26.48-3.1 7.83-.71 16.46-1.05 24.01-2.87-10.49-2.98-21.05-5.78-31.39-9.28z"/><path d="m186.76 366.64c-3.45-5.91-6.9-11.82-10.36-17.72-2.79-4.77-5.3-9.48-8.33-14.09.57.87-3.54 3.33-7.96 5.67 7.92 9.82 10.86 22.84 15.9 33.76-28 10-50 31-70 55-.55.67-1.1 1.33-1.67 1.98 5.83-3.53 11.37-7.57 16.59-11.9 7.29-6.03 14.23-12.74 22.75-16.86 9.11-4.41 19.29-5.53 29.17-7.09 5.07-.8 10.16-1.67 15.08-3.18 1.28-.39 10.89-4.81 11.98-3.08-4.57-7.29-8.78-15.03-13.15-22.49z"/><path d="m522.93 149.52c-9.47 7.09-18.3 14.3-23.91 24.72-9.02 17.4-14.73 35.63-24.06 52.01 3.3-4.03 6.1-8.47 8.64-13.02 7.76-13.93 13.57-29.61 26.19-40.07 6.85-5.68 14.12-10.81 21.38-15.92 6.43-4.53 13.73-9.14 19.36-14.49-9.19 2.3-18.35 4.76-27.6 6.77z"/><path d="m251.2 420.82c-14.24 11.7-33.95 16.96-39.18 34.42-9.56 30.26-24.19 57.34-46.92 76.21-.52 1.12-1.03 2.24-1.55 3.35-3.31 7.14-7.32 14.78-9.52 22.23 7.84-7.59 15.54-15.33 23.74-22.54 13.2-11.6 21.95-27.37 28.01-43.67 3.3-8.87 5.95-18.14 11.27-25.97 5.68-8.37 13.94-14.44 21.72-20.72 3.99-3.23 7.96-6.53 11.47-10.29.91-.98 7.03-9.61 8.84-8.65-2.65-1.4-5.27-2.88-7.88-4.37z"/><path d="m421.04 54.28c-2.89 14.39-9.39 27.01-12.03 41.96-3.42 24.77 6.28 51-2.65 73.7 2.99-4.9 5.77-9.92 7.51-15.2 2.51-7.65 3.04-15.73 2.92-23.73-.24-15.94-3.05-32.43 2.64-47.8 3.09-8.34 6.82-16.42 10.56-24.48 3.31-7.14 7.32-14.78 9.52-22.23-6.13 5.95-12.19 11.98-18.47 17.78z"/></g><circle cx="296.77" cy="297" fill="#fac87d" r="142.58"/><g opacity=".1"><path d="m213.91 413.03c23.35 16.71 51.95 26.55 82.86 26.55 30.63 0 59-9.67 82.24-26.11-51.91 22.28-112.29 18.36-165.1-.44z"/><path d="m296.77 154.43c-7.89 0-15.63.65-23.17 1.88 26.6.36 52.79 3.99 76.91 17.6 19.33 11.05 33.14 27.62 46.95 45.11 25.78 32.22 37.74 71.81 30.38 112.31-2.82 15.49-7.08 30.55-12.63 45.07 15.24-22.69 24.14-50 24.14-79.39 0-78.75-63.84-142.58-142.58-142.58z"/></g><path d="m330.11 365.79c-9.05 8.04-21.98 10.69-33.83 10.18-5.91-.24-11.92-1.54-17.66-2.93-5.76-1.41-11.45-2.81-17.19-4.71-1.15-.37-1.19-2.01-.08-2.48 10.83-7.12 21.99-9.41 34.6-8.1 4.36.33 8.6-.36 12.96-.26 4.6 0 9.46 1.35 13.36 3.61 2.63 1.45 5 3.06 7.65 4.31.13.06.18.21.12.34-.05.1-.16.16-.27.14-2.97-.43-5.8-1.56-8.52-2.45-2.67-.87-5.35-1.49-8.12-1.61-4.23-.21-8.55.73-12.76 1.14-4.42.38-8.86-.24-13.26-.29-8.52-.28-16.66 2.34-24.48 5.6l-.08-2.48c7.64 3.96 16.38 6.45 25.06 6.4 2.82.01 5.84-.23 8.66-.41 8.29-.41 17.46-.99 25.41-3.42 2.74-.83 5.44-1.85 8.16-3.01.23-.11.49.25.27.43z" fill="#b5846f"/><path d="m261.96 366.82c5.43-2.23 11.2-3.19 17.01-2.87 5.67.66 11.38 2.55 17.11 2.27 2.73-.24 5.02-1.23 7.65-2.07 2.99-.98 5.96-1.46 8.91-1.56 5.89-.08 11.68.73 17.22 2.82.23.09.2.46-.05.5-9.78 1.85-19.58 1.82-29.28 3.47-4.53.41-8.67-2.2-13.08-2.33-2.8-.1-5.62.69-8.41 1.06-2.8.37-5.62.31-8.44.22-2.84-.12-5.69-.35-8.6-1.02-.22-.04-.27-.39-.04-.49z" fill="#b5846f"/><path d="m261.99 367.07c-6.43 2.11-13.19 2.54-19.58.1-2.05-.91-4.61-2.08-5.44-4.36 1.84.6 4.37.38 6.27.52 4.18.11 8.27.48 12.42 1.34 2.07.48 4.35 1.02 6.33 2.4z" fill="#b5846f"/><path d="m354.99 361.37c-2.55 5.48-13.15 6.52-18.47 5.92-2.19-.25-4.38-.69-6.54-1.71 2.12-1.07 4.21-1.7 6.3-2.22 4.1-.99 8.29-1.38 12.46-1.48 1.88-.12 4.4.09 6.25-.51z" fill="#b5846f"/><path d="m320.62 316.57c.46 2.69-1.66 5.2-3.81 6.59-1.87 1.36-4.94 2.17-7.14 2.84-2.14.72-4.03 1.63-5.81 3-1.99 1.71-5.16 3.8-8.08 3.66-4.19-.06-7.08-3.67-10.43-5.39-1.72-.93-4.7-1.77-6.61-2.35-3.51-1.22-7.95-4.13-7.41-8.36 1.64 4.92 7.58 5.01 11.88 5.63 3.88.46 7.41 2.77 10.45 4.8.79.44 1.54.62 2.5.7h-.38c3.39-.25 5.7-3.46 9.05-4.44 5.19-2.26 13.4-.2 15.79-6.68z" fill="#b5846f"/><path d="m326.59 279.37c10.49-4.48 21.29-19.64 36.87-8.86 12.27 8.49 16.26 8.04 16.26 8.04s-7.77.9-16.96 5.52c-9.24 4.64-14.8 3.46-19.36 1.3-5.12-2.43-10.43-4.43-15.93-5.79z" fill="#fff"/><path d="m355.06 281.69c7.7-1.51 8.05-9.6 8.4-11.18-8.68-6-15.87-3.96-22.36-.2.52 9.19 7.65 12.61 13.96 11.38z" fill="#95608f"/><path d="m323.29 282.71c3.72.49 6.75 1.88 9.84 3.66 3.05 1.88 5.64 3.8 7.97 6.75-7.15.95-14.97-3.87-17.81-10.41z" fill="#b5846f"/><path d="m320.94 253.8c12.43-18.25 37.23-23.79 57.09-15.02 6.5 2.74 12.45 6.53 17.53 11.23-11.09-5.3-22.35-9.71-34.59-10.32-14.51-.71-28.85 4.89-40.03 14.11z" fill="#b5846f"/><path d="m322.08 266.99c2.18-6.85 8.81-11.47 15.59-12.99 2.29-.5 4.69-.58 7.07-.08-1.93 1.53-3.82 2.6-5.66 3.75-5.52 3.2-11.16 6.58-17 9.32z" fill="#b5846f"/><path d="m324.64 272.07c2.3-1.84 4.3-3.9 6.52-5.85 4.51-4.02 9.89-7.36 15.96-8.6 9.2-1.91 18.84 1.4 26.29 6.84 4.56 3.9 9.21 6.52 14.48 9.27-2.93-.39-5.8-1.06-8.65-2.01-2.85-.91-5.61-2.58-8-3.98-2.68-1.57-5.57-2.71-8.52-3.77-.61-.18-2.29-.68-2.92-.88-6.51-1.84-13.36-1.26-19.64 1.35-5.31 2.06-10.05 5.71-15.52 7.63z" fill="#b5846f"/><path d="m261.52 280.76c-10.21-5.08-20.13-20.83-36.3-10.96-12.74 7.77-16.69 7.1-16.69 7.1s7.71 1.35 16.62 6.49c8.95 5.16 14.58 4.3 19.26 2.41 5.25-2.13 10.67-3.82 16.24-4.87z" fill="#fff"/><path d="m232.96 281.44c6.06 2.31 13.79-1.49 13.92-10.99-6.09-3.86-12.97-5.95-21.66-.65-.04.03-.08.05-.12.07.35 2.11 1.89 9.29 7.86 11.57z" fill="#95608f"/><path d="m196.4 247.49c8.34-6.06 18.11-10.58 28.39-12.13 20.88-3.82 44.37 6.04 54.26 25.34 4.9 9.41 5.73 20.24 4.66 30.55-.84-7.58-1.88-15.07-4.78-22.08-8.36-20.91-31.77-32.26-53.66-29.95-10.11.79-19.63 4.12-28.87 8.27z" fill="#b5846f"/><path d="m263.88 273.59c-5.35-2.23-9.87-6.15-15.05-8.51-6.12-2.97-12.93-3.94-19.53-2.48-.64.16-2.34.56-2.96.71-3.01.89-5.96 1.87-8.73 3.28-2.47 1.27-5.32 2.77-8.22 3.52-2.9.79-5.81 1.29-8.75 1.51 5.42-2.45 10.22-4.79 14.99-8.42 7.75-5.01 17.56-7.76 26.63-5.32 5.99 1.59 11.17 5.24 15.44 9.51 2.11 2.06 3.99 4.23 6.18 6.2z" fill="#b5846f"/><path d="m245.53 184.13c-1.86-1.47-4.57-1.17-6.04.69s-1.17 4.57.69 6.04c.79.63 1.73.93 2.67.93 1.27 0 2.52-.56 3.37-1.62 1.48-1.85 1.17-4.56-.69-6.04z" fill="#95608f"/><path d="m220.99 198.6c-.51-2.11-2.65-3.42-4.76-2.9-2.11.51-3.42 2.65-2.9 4.76.25 1.02.88 1.89 1.78 2.44.63.38 1.33.58 2.05.58.31 0 .62-.04.94-.11 1.02-.25 1.89-.88 2.44-1.78.54-.91.7-1.96.45-2.99z" fill="#95608f"/><path d="m238.6 204.72c-.1-.91-.55-1.72-1.27-2.29s-1.61-.83-2.52-.72c-.91.1-1.72.55-2.29 1.27-1.17 1.48-.93 3.63.55 4.81.63.5 1.38.74 2.13.74 1.01 0 2.01-.44 2.68-1.29.56-.71.82-1.61.72-2.52z" fill="#95608f"/><path d="m215.86 217.58c-.38-1.57-1.97-2.54-3.53-2.16-1.57.38-2.54 1.97-2.16 3.53.32 1.34 1.53 2.24 2.85 2.24.23 0 .46-.03.69-.08.76-.18 1.4-.65 1.81-1.32.4-.67.52-1.45.34-2.21z" fill="#95608f"/><path d="m407.79 320.96c-2.5-2.21-6.33-1.97-8.55.53-2.21 2.5-1.97 6.34.53 8.55 1.15 1.01 2.58 1.51 4 1.51 1.68 0 3.35-.69 4.54-2.04 2.22-2.5 1.98-6.34-.52-8.55z" fill="#95608f"/><path d="m412.8 346.13c-.9-.79-2.05-1.19-3.25-1.12s-2.3.61-3.09 1.51c-1.64 1.86-1.46 4.7.4 6.34.85.75 1.91 1.12 2.97 1.12 1.24 0 2.48-.51 3.37-1.52.79-.9 1.19-2.06 1.12-3.25-.08-1.19-.62-2.29-1.52-3.08z" fill="#95608f"/></svg>