<?xml version="1.0" encoding="utf-8"?>
<!-- Generator: Adobe Illustrator 26.2.1, SVG Export Plug-In . SVG Version: 6.00 Build 0)  -->
<svg version="1.1" id="Layer_1" xmlns="http://www.w3.org/2000/svg" xmlns:xlink="http://www.w3.org/1999/xlink" x="0px" y="0px"
	 viewBox="0 0 605.8 968.1" style="enable-background:new 0 0 605.8 968.1;" xml:space="preserve">
<style type="text/css">
	.st0{fill:#EAD9EB;}
	.st1{opacity:0.1;enable-background:new    ;}
	.st2{fill:#ED859E;}
	.st3{opacity:0.1;}
	.st4{fill:#95608F;}
	.st5{opacity:0.2;}
	.st6{fill:#FAC87D;}
	.st7{fill:#B5846F;}
	.st8{clip-path:url(#SVGID_00000009567044291798432910000008848594966792372647_);fill:#FFFFFF;}
	.st9{clip-path:url(#SVGID_00000139263882966671718610000002881995850198326659_);fill:#FFFFFF;}
	.st10{clip-path:url(#SVGID_00000178922800220499860270000001174295255535072387_);fill:#FFFFFF;}
	.st11{opacity:0.8;fill:#FFFFFF;enable-background:new    ;}
	.st12{clip-path:url(#SVGID_00000057132223869417129880000005315640471991707027_);fill:#FFFFFF;}
	.st13{clip-path:url(#SVGID_00000133529452882054460370000008685652942191904640_);fill:#FFFFFF;}
	.st14{clip-path:url(#SVGID_00000086653122029587777250000015745603337159097009_);fill:#FFFFFF;}
</style>
<path class="st0" d="M41.7,508.9C4.6,437.2-2.2,350.9,23,274.2l11.1-29.3c28.7-71.8,89.8-128.1,159.4-158.5c-4.4,2.7-4.8,2.1,0,0
	c-60.2,37.4-110,99.7-130.4,167.2l-9,36.9c-7.9,74.9,6.1,153.7,49.5,216.2l6.5,10.6l8.7,10.7l12.3,12.5c29.5,32,65.3,58.3,105.7,75
	l33.3,13c4,1.4,9.4,3.1,13.4,4.2l26.5,5.4c8.5,1.2,18.5,2.1,27,2.4l100.1-14.3c12.7-3.5,25.1-8.2,36.9-14
	c39.7-19.3,99.2-75.7,103.4-80.5c-5.2,5.1-8.5,11.8-12.5,17.7c-4.5,6.6-10,12.5-15,18.7c-17.5,21-36.9,39.5-59.4,55.1
	c-22.6,15.6-45.9,28.4-71.8,37.7l-67.1,16.9c-32.9,4.7-68.2,2.2-100.8-5.1l-20.6-5.7C149.6,643.2,78.8,585.6,41.7,508.9L41.7,508.9z
	"/>
<path class="st1" d="M550,568.2c5.1-6.1,10.6-12.1,15-18.7c3.7-5.5,6.8-11.5,11.3-16.4c-9.6,9.8-64.7,61-102.2,79.2
	c-11.9,5.8-24.2,10.5-36.9,14l-100.1,14.3c-8.5-0.3-18.5-1.2-27-2.4l-26.5-5.4c-4-1.1-9.5-2.8-13.4-4.2l-33.3-13
	c-40.4-16.6-76.2-42.9-105.7-75L118.8,528l-8.7-10.7l-6.5-10.6C79,471.2,63.8,430.4,56.8,388.1c0.3,11.3,3.4,29.5,6.7,46.4
	c5.6,28.8,16.4,56.4,32.2,81c7.7,12,16.3,22.8,27.9,35.8c40.6,42.6,75.8,63.6,130.3,83.4c33.7,10.9,68.3,20.8,104.9,16.8
	c58.1-6.2,115-23.9,163.1-56.5c4.6-3.7,9.1-7.4,13.7-10.9C540.6,579,545.3,573.7,550,568.2L550,568.2z"/>
<path class="st2" d="M457.5,474.7c34.4,20.9,63,12.2,98.4,19.5c13.8,4.1,27.4,14.2,42.4,11.1c16.9-6,2.3-25.7-11-30.7
	c-20.8-7.8-23.9,10.2-43.8,1.2c10.1-9.8,17.5-23.6,14.7-37.5c-7.4-13.8-8.3-29.5-12.9-44.2c-14.5-26.4-77.9-7.7-78.1-7.7
	c16.5-4.9,32.9-19.9,40.2-35.4c10.7-23.1-7.6-42.1-9-65.6c-0.9-21.2,2.8-44.2-10.1-63.5c-19.4-26.1-32.6-52.6-39.6-83.8
	c-2.8-8.3-5.5-15.7-8.3-23.9c-10.7-23.9-28-49.4-21.2-77.3c0.6-10.1,10-36.5-7.4-36.8C373.3,18,382.5,149,376,188.5l12.8,85
	l26.9,97.7l29.9,74.6L457.5,474.7z"/>
<path class="st0" d="M397.5,172.6c0-0.3,0-0.5,0.1-0.8c0.9-10.8,1.7-21.6,1.6-32.5c-0.1-9.5-3.3-20.7,2.1-29.3
	c3.3-5.3,9.8-8.8,13.7-2.1c4.2,7,3.7,15.1,5.3,22.7c1.8,8.6,6.2,17,9.8,25c4.6,10.5,7.7,21.5,10.3,32.6c2.5,10.4,4.1,21.8,1.6,32.6
	c-2.5,10.7-9,19.1-13.6,28.7c-2.2,4.5-5.8,17.5-12.8,16.3c-6.4-1-9.5-12-11.6-16.9c-3.4-7.9-5.4-16.3-6.5-24.8
	C395.1,207.1,396.1,189.7,397.5,172.6z"/>
<path class="st0" d="M427.9,271.9c2.5-7.9,5.2-16.1,11.6-22.5c6.4-6.3,17.8-9.9,25.6-5.9c5.3,2.7,7.7,8.1,8.7,13.4
	c3.3,16.8-4,35.6,3.4,51.2c3.7,7.8,11.1,14.5,11.4,23.2c0.4,10.2-11.3,20.2-23.3,20.1c-11.5-0.1-20.1-7.9-26.6-15.6
	c-6.9-8.1-18.7-20-20.6-30.2c-0.8-4.5,2.2-9.8,3.6-14.2C423.8,284.9,425.9,278.4,427.9,271.9L427.9,271.9z"/>
<path class="st0" d="M525.6,400.3c4.6,1.3,4.7,6.9,6.4,11.6c1.7,4.8,1.2,10.4-1.5,14.5c-3.2,5-4.9,5.8-10.6,7
	c-8,1.7-16.5,1.1-24.3-1.7c-3.4-1.2-6.8-2.9-10.3-3.2c-4.5-0.4-9.1,1.5-13.5,0.3c-7.4-2-12.5-11.7-7.5-18.4c4.8-6.4,14.1-7.1,21.2-9
	C498.3,398.1,512.4,396.6,525.6,400.3L525.6,400.3z"/>
<path class="st0" d="M515.4,469.2c-1.6,1.1-3.5,1.6-5.5,1.9c-7.7,0.9-15.9,0.1-23.2-2.6c-8.8-3.3-15.6-12.5-17.4-21.6
	c-0.3-1.6-0.5-3.3,0.2-4.7c1.3-2.9,4.7-3.4,7.5-2.6c5.3,1.4,9.7,3.9,15.2,4.4c9.6,0.9,19.2-2,28.7-0.6c1.4,0.2,2.8,0.5,3.8,1.5
	c2.5,2.4,0.8,6.2-0.3,8.9c-1.2,2.9-2.8,5.5-4.2,8.4c-1.2,2.4-2.1,4.8-4.2,6.6C515.9,468.8,515.7,469,515.4,469.2L515.4,469.2z"/>
<g class="st3">
	<path d="M407.3,65.3c4,12,9.8,28.6,14.8,39.6c12,28,22.5,65.2,33.5,94.2c9,21,23.6,32.1,25.6,57.1c1,12,11.3,44.9,15.3,56.9
		c7.7,24,5.7,32.5-4,57.8c6.3-6,11.5-12.9,14.8-20c10.7-23.1-7.6-42.1-9-65.6c-0.9-21.2,2.8-44.2-10.1-63.5
		c-19.4-26.1-32.6-52.6-39.6-83.8c-2.8-8.3-5.5-15.7-8.3-23.9c-10.7-23.9-28-49.4-21.2-77.3c0.6-10.1,10-36.5-7.4-36.8
		c-3,1.4-5.6,3.5-8.1,6.1C406.3,28.5,401.5,42.9,407.3,65.3L407.3,65.3z"/>
	<path d="M587.1,474.5c-20.8-7.8-23.9,10.2-43.8,1.2c10.1-9.8,17.5-23.6,14.7-37.5c-7.4-13.8-8.3-29.5-12.9-44.2
		c-2.8-5.1-8.1-9.9-18.7-12.5c12.1,19.2,21.5,43.5,17.7,66.7c-2,10-9,19-7,30c1,6,9,2,14,3c12,3,25-2,36-1c3.7,0.3,7.5,0.9,11.4,1.8
		C595.2,478.7,591.1,476,587.1,474.5L587.1,474.5z"/>
</g>
<path class="st2" d="M211.9,480.4c-6.7-7.8-6.3-17.5-14.6-23c-9.2-5.5-17.5-10.1-25.8-16.6c-10.2-9-17.4-20.6-23.6-32.6
	c-2.8-5.5-5-12.2-8.7-17.1c-3.8-4.9-10-7-14-11.7c-9-10.8-20-19.5-29.5-29.8c-5.6-6.1-10.9-12.5-15.5-19.4
	c-4.8-7.2-7.6-15-11.8-22.4c-7.1-12.6-18.3-26.7-31.3-33.6c-12.9-6.4-27.6-8.3-36.8-19.3c-1.8-9.2,7.4-12.9,14.7-14.7
	c13.8-1.8,27.6,0.9,40.5,4.6c16.6,5.5,33.1,12,49.7,17.5c16.6,6.4,33.1,13.8,49.7,20.2c30.4,12.9,59.8,26.7,89.7,41l2.6,51.8
	l-11.8,69.4l-12.9,30.1L211.9,480.4z"/>
<path class="st2" d="M331.6,607.3c-10.1,12.1-14.7,26.8-20.2,41.6c-3.7,9.2-12,19.3-23,12.9c-10.1-7.4-7.4-20.2,0-28.5
	c5-6,12.1-9.5,18.1-14.3c2.8-2.2,5.5-4.7,7.1-7.9c1-1.9,4.1-10.2,0.5-10.7c-0.6-0.1-1.2,0.1-1.8,0.2c-4.1,0.8-7.2,0.9-11.1-0.7
	l7-26.1l-6.9-49.2l-2.9-33.3l40.2-46.4l16.6-5.8l25.3,23.4c0,0,4.2,27.4,3.8,28.8s-20.3,26.1-19.8,27.2s-23,29-23,29l-6.1,21.6
	l1.1,28.8v6.8L331.6,607.3z"/>
<path class="st0" d="M175.5,378.8c-5.1,1.4-10.8,3.5-12.6,8.4c-1.9,5.2,1.8,10.8,6,14.3c4.3,3.5,9.5,6.1,12.6,10.7
	c2.5,3.7,3.3,8.3,4.9,12.5c6.5,16.9,24.8,25.8,41.8,32.1c5.8,2.2,11.8,4.3,18,4.4s12.8-2.1,16.4-7.2c4.7-6.5,3.4-15.4,1.8-23.3
	c-3.2-16.1-3.2-53.6-19-63.7C229.2,356.6,192.2,374,175.5,378.8L175.5,378.8z"/>
<path class="st0" d="M314.1,516.9c-3.2,5.3-6.5,10.9-11.9,14s-13.2,2.9-16.7-2.2c-2.2-3.3-2.2-7.5-2.6-11.5
	c-0.6-5.6-2.4-11.4-0.9-16.9c1.4-5,5.2-8.9,9-12.4c7.3-6.8,15-13.3,22.8-19.5c3.7-2.9,8-5.9,12.6-5.1
	C348.3,466.9,319.6,507.7,314.1,516.9z"/>
<path class="st0" d="M309.3,554.3c-1.7,2.6-3.5,5.3-3.6,8.4c-0.1,4.6,3.8,8.6,8.4,10.3s9.7,1.6,14.6,1.4c1.9-0.1,3.9-0.1,5.5-1
	c1.8-1,2.9-2.8,3.9-4.5c4.8-8,9.6-16,11.7-24.9c2.6-11,1-22.4-0.8-33.6c-0.7-4.5-2.1-17.7-7.5-19.8c-5.7-2.2-7.7,13.3-9.3,17.7
	C326.5,524.4,318.8,539.9,309.3,554.3z"/>
<path class="st0" d="M100.9,282.4c-6.7-4-29.9-14.4-37.7-14c-1,0-2.5-0.1-2.9,0.9c-4.1,10.1,18.8,25.8,24.3,29.9
	c21.8,16.6,5.9,35.2,64.7,64.2c7.5,3.7,16.4,3.1,24.5,1.5s16-4.5,24.1-6.4c7.7-1.8,15.6-2.6,23.5-2.5c4.6,0,10-1.5,7.7-7.3
	c-1.6-3.9-4.6-3.6-7.9-4.6c-11.3-3.3-29.7-10.7-40.5-15.6c-22.4-10.2-19.1-4.8-40.7-16.5C127.4,305.3,113.1,289.7,100.9,282.4
	L100.9,282.4z"/>
<g class="st3">
	<path d="M119.8,281.7c31.6,13.9,62.4,28.7,93.2,44.9c10.6,5.5,21.4,9.5,31.9,13.7l-0.3-16.9c-29.9-14.3-59.3-28.1-89.7-41
		c-16.6-6.4-33.1-13.8-49.7-20.2c-16.6-5.5-33.1-12-49.7-17.5c-12.9-3.7-26.7-6.4-40.5-4.6c-6.6,1.7-14.8,4.8-15,12.2
		c12.4-1.5,24.9-1.5,37,0.2c17.3-0.4,34.2,8.5,49.8,15C97.9,272.2,108.9,276.9,119.8,281.7L119.8,281.7z"/>
	<path d="M379.3,458l-33-30.6l-17,6c7,10.4,29,35.6,33.5,47c9.2,17.9-1.5,24.5-1,45.3c7-9.7,22.1-28.6,22.5-30.1
		C384.7,493.8,379.3,458,379.3,458L379.3,458z"/>
</g>
<path class="st4" d="M346.9,446.2c-12.2,16.1-29.6,29.1-38.1,47.8c-10.6,23.5,6.7,44.3,5.4,68.3c0.1,27.7-19.6,48.1-38.7,66
	c-10.9,10.2-18.1,23.8-20,38.6c-1.3,10.7,0.2,20.6,3.1,34c-19.5-12.9-32.1-36.7-27.3-60.4c4.6-24.5,21.9-43.4,25.8-68.1
	c0.1-26-25.6-43.8-34.4-67.5v-6.7l56.5-25.6l50.5-26.4L346.9,446.2L346.9,446.2z"/>
<path class="st4" d="M272.4,278.4c0,0.3,16.2-26,46.7-16c14.8,4.9,25.1,11.1,34.3,23.8c4.9,6.8,10.2,17.2,18.2,19.4l-3.9,44.1
	l-17.3,33.5l-29.2,24.2l-29.2,33.4l-54.6,31.7l-18.8,3.6c-2.7-10.5,2.8-23.4,5.2-33.6c2.8-12.1,9.7-23.1,10.8-35.6
	c1.4-16.2-8.1-28.6-4.9-44.8c3.7-18.4,18.6-38.7,20.7-57.7c1.8-10.1,6.4-21.2,18-23.1L272.4,278.4z"/>
<g class="st5">
	<path d="M346.9,446.2h-17.2l-26.1,13.6c-15.3,35.5-19.9,47.7-4.5,86.4c9.5,21-13.9,64.9-25.5,84c0.6-0.6,1.2-1.2,1.9-1.8
		c19-18,38.8-38.3,38.7-66c1.3-24-16-44.8-5.4-68.3C317.2,475.3,334.6,462.4,346.9,446.2L346.9,446.2z"/>
	<path d="M353.4,286.3c-9.2-12.8-19.5-19-34.3-23.8c-17-5.6-29.6,0.1-37.4,6.2c23,1.3,44.5,9.4,58.7,30.7c15.2,23.3,14.2,50.7,4,74
		c-3,7.8-6.6,15.6-10.3,23.4l16.3-13.5l17.3-33.5l3.9-44.1C363.6,303.5,358.3,293.1,353.4,286.3L353.4,286.3z"/>
</g>
<path class="st6" d="M354.8,313.1c2.9,6.3,5.7,12.7,8.7,19c9.4-20.7,10.6-44.3,8.1-66.8c-0.8-7.4-2.1-14.9-5.3-21.6
	c-1.7-3.5-4-6.8-5.4-10.5c-1.4-3.8-1.9-7.9-2.4-11.9c-3.5-26.7-10-53-19.3-78.2c-2.1-5.6-0.4-12.7,1.3-19.2s-4.2-7.5-6.8-12.1
	c-1.1-1.9-6.4-9.8-2.9-8.5c5.7,2.5,9.4,8.1,10.9,10.7l0.1-0.7c-2.4-7.2-5.5-13.2-9.2-20.1c-0.4-0.7-0.6-1.7,0.1-2.1
	c0.3-0.2,0.7-0.1,1,0.1c0.8,0.3,1.6,0.8,2.3,1.4c3.1,2.8,5.5,7.2,7,11.4l0-0.2c-1.9-6.6-4.5-13.7-7.3-19.6c-0.3-0.6-0.5-1.2-0.2-1.7
	c0.3-0.5,1-0.6,1.6-0.4s2.1,1,2.6,1.4c2.9,2.3,4.8,8.3,4.8,8.3l0,0c-0.1-2.7-0.3-5.4-0.6-8.1c-0.2-1.9-0.4-3.1-0.7-5
	c-0.1-0.7,0-1.5,0.6-1.7c0.3-0.1,0.6,0.1,0.9,0.3c4,2.8,6.4,10.1,7,14.9c0.9,7.3,0.4,12.7,1.4,20.1l1.4-0.9c2.6-2.5,3.7-2.7,5.6-5.7
	c2.3-3.7,4.9-7.2,7.8-10.5c0.5-0.6,1.5-1.3,2.1-0.7c0.3,0.3,0.3,0.7,0.3,1.1c-0.2,4.6-1.9,9-3.3,13.4c-4,12.6-5.7,22.1-5.5,35.3
	c9.5,24.5,19.1,49.1,25.6,74.6c2.2,8.8,4.1,17.7,7.2,26.2c3.9,10.8,13.3,54.5,17.2,65.2c8.9,25.1,8.8,32.7,14.2,49.3
	c9.5,11.9,18,17.9,22.5,32.5c3.8,12.5,5,26.2,7,39.1c2.1,13.1,3,26.4,2.3,39.6c-0.8,14.7-4.5,27.3-4.5,27.3
	c15.2,53.3,0.7,126.7-32.6,170.9c2.7,32.3,5.4,64.7,8,97l0.4,0.8c22.4,56.3,2.4,98.7,22.4,155.6l1.1,1.9c3.7,6.3,8.3,16.2,3,23
	c-1.2,1.5-3,2.6-4.8,3.4c-12.4,5.8-27.9,3.4-41.4,7.1c-7,1.9-13.2,5.5-20,7.7s-14.9,3.2-21.3,0c-0.9-0.4-1.7-0.9-2.2-1.7
	c-2-2.9,2-6,5-8.1c12.5-8.9,26.7-23.2,37.7-33.4c4.2-3.9,5.7-7.1,6.4-12.4c-2.8-45.6-25.1-105.7-25.8-151.3
	c-3.8-6.2-6.5-13.2-9-20.2c-4.2,19-15.5,35.5-27.5,50.4c-16.4,20.5-35.7,39.2-47.9,62.7c-7.8,14.9-14.9,30.9-27,43
	c-5.8,5.8-30.6,24.2-39.1,15.5c-2.3-2.3-0.4-5.6,1.2-7.8c3.2-4.4,7-8.3,10.1-12.8c5-7.1,8.7-14.6,11.2-22.9
	c2.5-8.2,3.1-16.9,5.6-25.1c1.2-4,3.8-9,7.2-11.6c2.5-1.9,5-1.4,6.7,1.1v1.7c15.1-23.6,27.4-49,36.7-75.4
	c3.6-10.2,6.8-20.7,12.6-29.8c8.3-13,23.5-22.1,32.2-34.8c-7.5-18.8-15.2-37.6-22-56.7c-6.5-18.4-11.7-37.5-11.5-57.2
	c0.2-17.5,4.5-35.3,15-49.5c13.9-18.8,45.6-43.5,22-68.1c-2.7-2.8-5.9-5.1-8.5-8c-3.2-3.5-7.6-9.4-7.6-9.4
	c-14.6,6.9-29.2,13.7-43.9,20.6c-14.3,6.7-28.6,13.4-42.1,21.4c-7.8,4.6-15.4,9.7-23.8,13.2c-7.8,3.3-16.1,5.3-24.3,7.3
	c-12.4,3-24.7,5.9-37.1,8.9c0,0-2.9,7.1-6.5,10.5c-11.4,10.6-29.5,8.9-43.5,15.8c-3.7,1.8-7.3,4.3-11.4,4.4c-0.8,0-1.8-0.1-2.2-0.9
	s0-1.6,0.4-2.3c5.6-9.3,16.5-13.8,25.1-20.5c1.3-1,2.6-3.8,1.1-4.5c-5.4,1-10.9-0.2-16.2-1.7c-7.2-2-11.2-2.6-18-5.6
	c-0.3-0.1-3-1.1-3.4-1.4c-1.9-1.3-1.7-4.2,3.6-3.3c0,0,0,0,0.1,0c3.4,0.4,12.9,0.8,17.3,1.1c-0.3-0.3-5.7-0.6-5.7-0.6
	c-1.4-1.4-6.4-3.2-8.2-5.4c-1.8-2.3-1.9-3.6,2.3-3.3c0.3,0,0.5,0.2,0.7,0.2c0,0,14.6,4.5,21.1,5.1l1.9,0.2
	c-4.7-1.1-8.7-3.8-13.3-7.6c-1.8-1.4-3.5-3.2-3.8-5.5c-0.1-0.5-0.1-1,0.3-1.3c0.4-0.3,1-0.2,1.5,0c4.3,1.6,15.1,9.1,19.5,10.5
	c0,0,0,0,0,0c-1.2-1.4-3.5-4.4-4.7-5.8c-0.7-0.8-1.2-3.5-0.4-4.3c1.7,0.7,3.2,1.7,4.7,2.6c6.1,4,13.1,10.8,23.4,11.6
	c9.2-4.9,36.9-18.2,41.5-19.8c8-2.8,37.5-24.3,41.2-25.6c41.4-15,63.1-57.3,101.1-79.4l2.3,1.6c-4.7-6.9-7.5-9-12.8-11.9l-0.5-0.6
	c-1,1.2-2.2,2.2-3.7,3.2c-13.8,2.8-29.5-1.8-36.8-14.7c-8.3-5.5-14.7-12.9-21.7-20.3c0,0,3.9-25.9,14.1-26.5s14.5,9.6,22.4-2.6
	c0,0,5.7-11.8,15.4-12.5s14.4,7.3,14.4,7.3s5.4,13.2,7.4,12.1c2-1,4.5-3.2,5.3-3.1L354.8,313.1z"/>
<g class="st3">
	<path d="M448.4,503.5c7.1,23.1,8.2,52.4,7.5,76.1c4.4-27.8,3.7-56.2-3.1-80.4C450.1,499.2,450.1,501.3,448.4,503.5L448.4,503.5z"/>
	<path d="M341.8,796.8c-7.3,5.9-14.2,12.5-20.5,19.5c-8.6,9.6-21.7,23.5-21.7,28.7c-1.2,15.1-7.8,29.1-15.1,41.5
		c7.9-10.5,13.5-22.7,19.6-34.3c12.2-23.4,31.5-42.2,47.9-62.7C353.7,787.3,348.1,791.7,341.8,796.8z"/>
	<path d="M452,924.8l-1.1-1.9c-20-56.9,0-99.2-22.4-155.6l-0.4-0.8c-2.2-26.7-5.8-70.3-8-97c-0.3,5.3-5.7-28.2-17.2-59.2
		c-0.9-2.4,13.6-28.1,13.6-28.1c-13.4,12.3-16.1,23.8-16.9,22c-3.2-7.4-6.9-14.9-11.1-22l15.3,48c22.5,83.5,16.2,125.3,21.7,144.3
		c9.1,32.2,12.1,69.4,8.1,102.7c-1,8.1,0.1,15.1,4.1,22.2c9,15.5,12.5,33,14.5,50.8c1.1-0.7,2.1-1.4,2.8-2.4
		C460.3,940.9,455.7,931.1,452,924.8z"/>
	<path d="M457.1,471.2c0.7-13.2-0.2-26.5-2.3-39.6c-0.1-0.7-0.2-1.5-0.3-2.2c1.1,25.5-1,65.5-12.7,80.9c3.6-1.4,9.1-7.8,11-10.9
		c-0.1-0.3-0.1-0.5-0.2-0.8C452.7,498.5,456.3,486,457.1,471.2L457.1,471.2z"/>
	<path d="M259.1,482.2c-6,2-12,8-18,12c-16.7,7.9-34.9,10.4-50.6,18.3c8.1-1.9,16.2-3.9,24.3-5.8c8.2-2,16.5-4,24.3-7.3
		c8.4-3.6,15.9-8.6,23.8-13.2c13.6-8,27.9-14.7,42.1-21.4c14.6-6.9,29.2-13.7,43.9-20.6l-0.9-5C318.1,453.2,291.1,470.2,259.1,482.2
		L259.1,482.2z"/>
	<path d="M416.8,327.8c-1.4-4.8-3.1-10.3-5.6-17.2c-3.8-10.8-13.2-54.5-17.2-65.2c-3.1-8.5-5-17.4-7.2-26.2
		c-5.1-20-12.1-39.5-19.5-58.9c26.8,85.1,18.5,79.2,36.4,138.7C404.6,304.9,411.7,322,416.8,327.8L416.8,327.8z"/>
</g>
<g>
	<path class="st7" d="M321,310.1c-1.4-3.9,0.8-8.8,4.9-10.1c4.4-1.3,8.7,1.5,11.2,4.8c2.9,3.9,3.9,8.5,4.4,13c2,3.9,1.7,6.5-2.9,7.7
		c2.9-1.9,3.6-3.1,1.5-6.1c-0.2-0.3-0.5-0.7-0.6-1.2c-1.4-5.6-3.3-11.9-8.4-15C326,300,320.8,304.7,321,310.1L321,310.1z"/>
	<path class="st7" d="M326.4,305.8c2-1.3,5.4-0.2,6.5,2.5c1,2.6,0.6,5.3,1.2,7.8c0.1,0.3,0.2,0.8,0.3,0.9c0.5,0.5,1.3,1.1,1.8,1.5
		c-0.2-0.1-0.7,0.2-0.7,0.4c0,0.1,0.1,0,0.1-0.2c0.2-1.9-0.3-3.7-0.5-5.6c1.2,1.6,4.3,6.6,1.4,7.9c-0.8,0.3-1.7-0.1-2.2-0.5
		c-0.7-0.4-1.3-0.8-2-1.4c-1-1-1.2-2.3-1.4-3.5C330.3,311.3,332.2,306.3,326.4,305.8L326.4,305.8z"/>
	<path class="st7" d="M311.3,336.6c1.8-3.2,4.7-5.6,7-8.5c0.8-0.9,1.5-1.9,2.6-2.9c0.2,1.4,0,2.8-0.5,4
		C318.9,333.1,315.3,335.9,311.3,336.6L311.3,336.6z"/>
	<path class="st7" d="M303.4,342.6c-1.6,4.4-6.1,7.5-10.8,7.1c1.4-1.9,3.1-3,4.9-4.3C299.4,344.3,301.2,343.1,303.4,342.6
		L303.4,342.6z"/>
	<path class="st7" d="M307.8,328.6c2-5.3,7.1-9.4,12.7-10.4C317.1,322.7,312.8,326.1,307.8,328.6z"/>
	<path class="st7" d="M298.3,335.9c-2.1,2-4.4,3.4-6.9,4.8c-2.5,1.3-4.9,2.6-7.7,3.3C286.7,338.9,292.5,335.7,298.3,335.9
		L298.3,335.9z"/>
	<path class="st7" d="M311.4,343.3c3.2,1.8,5.8,5.3,5.9,9.1l-0.5-0.9c0,0.1,0,0.1,0.1,0.2c0.7,0.3,1.5-0.2,2.3-0.5
		c-0.2,1.1-0.9,2.3-2.2,2.6c-0.6,0.1-1.5,0-1.9-0.6C313.8,350,311.8,346.9,311.4,343.3L311.4,343.3z"/>
	<path class="st7" d="M317.9,362.8c1.6-0.6,1.3-2,2-3.4c0.4-0.9,1.2-1.8,2.2-2.1c0.5-0.2,0.9-0.2,1.1-0.3c0.4-0.1,0.7-0.4,1-0.6
		c0.1-0.1,0.2-0.3,0.2-0.5c0.5-1.8,2.4-3,4-3.3c0.8-0.1,1.4-0.2,2.2-0.4c-0.8,1.4-2.4,2.2-3,3.1c-0.5,0.6-0.5,1.3-0.7,2
		c-0.6,1.7-2.4,2.6-4.1,2.7c-0.2,0-0.3,0-0.5,0.1C321.3,361.1,319.9,363.8,317.9,362.8L317.9,362.8z"/>
	<path class="st7" d="M324.6,363.9c0.8-2.4,2.5-3.5,5-3.3C330,363.3,326.9,365.3,324.6,363.9z"/>
	<path class="st7" d="M339.4,397.2c5.6-3.6,11.9-6,18.1-8.2c7-2.5,10.4-2.5,15.2,3.6c-2.6-0.4-5.2-2-7.9-1.3
		c-1.2,0.4-2.4,0.9-3.6,1.5C354.4,395.7,347,397.7,339.4,397.2L339.4,397.2z"/>
	<path class="st7" d="M396.1,347.6c-0.8,7.6-4.1,14.5-8.4,20.7c-0.7,1.1-1.5,2.1-2.1,3.3c-1.1,2.5-0.1,5.3-0.1,8
		c-5.2-5.9-4.5-9.2-0.8-15.6C388,358.2,391.5,352.4,396.1,347.6L396.1,347.6z"/>
	<path class="st7" d="M420.8,483.9c2.6,3.8,1.7,7.2-0.3,11C415.9,493.1,416.7,485.9,420.8,483.9z"/>
	<path class="st7" d="M401.2,760.7c4-1.2,7.4-1.3,11.4-0.8c1.3,0.2,2.6,0.4,4.1,1c-0.9,1.4-2.2,2.3-3.5,2.9
		C409.1,765.5,403.8,764.6,401.2,760.7z"/>
	<path class="st7" d="M440,914.8c-2.1,5.7-9.4,8.3-14.7,5.6C429.3,916.3,434.3,914.6,440,914.8z"/>
	<path class="st7" d="M291.4,834.2c1.7,4.8,0.8,9.7-3,13.2C285.4,843.2,286.7,836.6,291.4,834.2z"/>
	<path class="st7" d="M358.2,740.2c4.3,1.5,7,4.2,10.2,7.3c1,1,2,2.2,2.7,3.9c-1.8,0.2-3.3-0.1-4.7-0.5
		C361.7,749.5,358.3,745.1,358.2,740.2L358.2,740.2z"/>
	<path class="st7" d="M355.2,313.1c5.4,7,9.2,14.8,13.2,22.5c3.4,6.9,8.3,16.2,11.7,23.1C366.8,348.1,358.9,329.3,355.2,313.1z"/>
	<path class="st7" d="M345.2,339.9c-0.4,10.8,0,26-11.8,31C342.1,362.7,340.6,350,345.2,339.9z"/>
	<path class="st7" d="M337.7,368.3c5-0.5,9.7,2.7,11.7,7.1c0.6,1.4,1.1,3,1.1,4.8c-1.7-0.6-3-1.5-4.1-2.3
		C342.8,375,339.9,372.3,337.7,368.3z"/>
	<path class="st7" d="M408.5,551.7c0.9,4.2-0.3,7.5-3.8,9.9C401.5,558.1,403.8,552.1,408.5,551.7z"/>
</g>
<g>
	<defs>
		<polygon id="SVGID_1_" points="330.7,537.9 315.5,544 330.7,550.1 314.8,546.1 323.5,560 313,547.5 311.9,563.7 310.8,547.5 
			300.3,560 309,546.1 293.1,550.1 308.3,544 293.1,537.9 309,541.9 300.3,528 310.8,540.6 311.9,524.3 313,540.6 323.5,528 
			314.8,541.9 		"/>
	</defs>
	<clipPath id="SVGID_00000018222964135190002220000009748179077864947353_">
		<use xlink:href="#SVGID_1_"  style="overflow:visible;"/>
	</clipPath>
	<path style="clip-path:url(#SVGID_00000018222964135190002220000009748179077864947353_);fill:#FFFFFF;" d="M293.1,524.3h37.5v39.5
		h-37.5V524.3z"/>
</g>
<g>
	<defs>
		<polygon id="SVGID_00000129920884251702112940000004297551397020478597_" points="330.7,537.9 315.5,544 330.7,550.1 314.8,546.1 
			323.5,560 313,547.5 311.9,563.7 310.8,547.5 300.3,560 309,546.1 293.1,550.1 308.3,544 293.1,537.9 309,541.9 300.3,528 
			310.8,540.6 311.9,524.3 313,540.6 323.5,528 314.8,541.9 		"/>
	</defs>
	<clipPath id="SVGID_00000139275371117036779840000017512783829344147079_">
		<use xlink:href="#SVGID_00000129920884251702112940000004297551397020478597_"  style="overflow:visible;"/>
	</clipPath>
	
		<circle style="clip-path:url(#SVGID_00000139275371117036779840000017512783829344147079_);fill:#FFFFFF;" cx="311.9" cy="544" r="19.5"/>
</g>
<g>
	<defs>
		<polygon id="SVGID_00000053526794192481275000000013460601238756970384_" points="330.7,537.9 315.5,544 330.7,550.1 314.8,546.1 
			323.5,560 313,547.5 311.9,563.7 310.8,547.5 300.3,560 309,546.1 293.1,550.1 308.3,544 293.1,537.9 309,541.9 300.3,528 
			310.8,540.6 311.9,524.3 313,540.6 323.5,528 314.8,541.9 		"/>
	</defs>
	<clipPath id="SVGID_00000002371365492130507200000005335383009870582684_">
		<use xlink:href="#SVGID_00000053526794192481275000000013460601238756970384_"  style="overflow:visible;"/>
	</clipPath>
	
		<circle style="clip-path:url(#SVGID_00000002371365492130507200000005335383009870582684_);fill:#FFFFFF;" cx="311.9" cy="544" r="9.7"/>
</g>
<path class="st11" d="M311.9,529.6l1.9,12.6l12.6,1.9l-12.6,1.9l-1.9,12.6l-1.9-12.6l-12.6-1.9l12.6-1.9L311.9,529.6z"/>
<g>
	<defs>
		<polygon id="SVGID_00000078728705262611246440000003473680218386116503_" points="246.2,409.2 228.6,416.3 246.2,423.4 
			227.8,418.8 237.9,434.8 225.7,420.3 224.4,439.2 223.1,420.3 211,434.8 221,418.8 202.7,423.4 220.2,416.3 202.7,409.2 
			221,413.8 211,397.8 223.1,412.3 224.4,393.4 225.7,412.3 237.9,397.8 227.8,413.8 		"/>
	</defs>
	<clipPath id="SVGID_00000024716994001561360290000012200825760401562794_">
		<use xlink:href="#SVGID_00000078728705262611246440000003473680218386116503_"  style="overflow:visible;"/>
	</clipPath>
	<path style="clip-path:url(#SVGID_00000024716994001561360290000012200825760401562794_);fill:#FFFFFF;" d="M202.7,393.4h43.5v45.7
		h-43.5V393.4z"/>
</g>
<g>
	<defs>
		<polygon id="SVGID_00000014633814418511947250000008947815775167953326_" points="246.2,409.2 228.6,416.3 246.2,423.4 
			227.8,418.8 237.9,434.8 225.7,420.3 224.4,439.2 223.1,420.3 211,434.8 221,418.8 202.7,423.4 220.2,416.3 202.7,409.2 
			221,413.8 211,397.8 223.1,412.3 224.4,393.4 225.7,412.3 237.9,397.8 227.8,413.8 		"/>
	</defs>
	<clipPath id="SVGID_00000131336758806928732850000013080862658472629131_">
		<use xlink:href="#SVGID_00000014633814418511947250000008947815775167953326_"  style="overflow:visible;"/>
	</clipPath>
	
		<circle style="clip-path:url(#SVGID_00000131336758806928732850000013080862658472629131_);fill:#FFFFFF;" cx="224.4" cy="416.3" r="22.6"/>
</g>
<g>
	<defs>
		<polygon id="SVGID_00000026157780330323633020000010266577009829688477_" points="246.2,409.2 228.6,416.3 246.2,423.4 
			227.8,418.8 237.9,434.8 225.7,420.3 224.4,439.2 223.1,420.3 211,434.8 221,418.8 202.7,423.4 220.2,416.3 202.7,409.2 
			221,413.8 211,397.8 223.1,412.3 224.4,393.4 225.7,412.3 237.9,397.8 227.8,413.8 		"/>
	</defs>
	<clipPath id="SVGID_00000041990547239532482270000010464229677564958133_">
		<use xlink:href="#SVGID_00000026157780330323633020000010266577009829688477_"  style="overflow:visible;"/>
	</clipPath>
	
		<circle style="clip-path:url(#SVGID_00000041990547239532482270000010464229677564958133_);fill:#FFFFFF;" cx="224.4" cy="416.3" r="11.3"/>
</g>
<path class="st11" d="M224.4,399.5l2.2,14.6l14.6,2.2l-14.6,2.2l-2.2,14.6l-2.2-14.6l-14.6-2.2l14.6-2.2L224.4,399.5z"/>
</svg>
