<svg enable-background="new 0 0 500.53 587.94" viewBox="0 0 500.53 587.94" xmlns="http://www.w3.org/2000/svg"><path d="m327.98 519.94c6.22 5.93 10.97 14.57 11.06 23.43.1 9.51-6.11 15.49-12.62 21.37-13.01 11.76-30.19 17.65-47.05 20.6-17.14 3-34.95 3.39-52.2 1.22-17.87-2.25-35.94-5.76-50.63-16.73-6.41-4.78-14.46-10.52-16.19-19.25-1.77-8.92 1.85-19.25 7.58-25.95 1.65-1.93 3.48-3.71 5.41-5.36z" fill="#95608f"/><path d="m272.78 214.22c2.75-7.36 6.87-16.41 2.03-23.72-.86-1.26-2.02-2.53-2.49-3.91-14.28 3.49-29.15 1.23-44.1-.03-.46 1.39-1.63 2.68-2.5 3.94-4.84 7.31-.72 16.35 2.03 23.72 5.58 14.63 2.73 22.45-.06 28.5 15.21 3.08 31.27 5.39 45.07-.18-2.76-6.02-5.5-13.83.02-28.32z" fill="#fac87d"/><path d="m273.2 422.61c-.13-1.73-1.01-3.68-3.08-6.01-.1-.16-.18-.33-.27-.5-13.2 2.42-26.88 2.03-40.09 1.27-1.57 1.96-2.27 3.65-2.41 5.16 15.29.87 30.57 1.56 45.85.08z" fill="#fac87d"/><path d="m274.3 471.58c-.15-.1-.28-.22-.44-.32 3.42-8.52 4.93-21.87-1.43-28.52-14.9 2.78-30.2 1.53-44.92.66-5.67 6.84-4.15 19.62-.84 27.86-.02.01-.04.03-.06.04 15.75 4.36 32.51 5.6 47.69.28z" fill="#fac87d"/><path d="m236.12 274.29c.12 1.8.29 3.55.43 5.23 8.94 0 18.4-.05 27.48-.6.14-1.57.29-3.19.39-4.85-9.43.83-18.86.31-28.3.22z" fill="#fac87d"/><path d="m267.78 294.31c-11.51 3.93-24.6 4.4-36.57.89-1.34.64-5.58 1.34-7.59 1.67-2.62 7.84-3.85 19.66-2.17 25.11 4.31 8.24 8.31 17.59 11.35 27.39 11.13 2.4 23.44 3.82 34.78.5 3.48-11.35 8.25-22.12 13.31-31.27-.24-7.97-.93-14.95-5.01-21.73-2.3-.48-6.75-1.63-8.1-2.56z" fill="#fac87d"/><g fill="#ed859e"><path d="m63.07 178.02h-16.17c-64.72.49-61.09 7.7 2.39 7.9l17.91-.08c60.4-.84 54.23-7.48-4.13-7.82z"/><path d="m453.63 178.01h-16.17c-58.33.34-64.56 6.98-4.14 7.82l17.91.08c63.46-.19 67.14-7.41 2.4-7.9z"/><path d="m259.7 99.83h-16.17c-60.44.36-64.1 7.21-2.41 7.85l18.27.03c62.19-.42 62.67-7.42.31-7.88z"/><path d="m272.43 442.74c-1.81-1.89-4.25-3.24-7.46-3.78-.8-6.88 8.68-10.1 8.23-16.35-15.28 1.48-30.57.79-45.85-.09-.58 6.34 9.02 9.49 8.2 16.43-3.58.6-6.2 2.21-8.05 4.45 14.74.87 30.04 2.12 44.93-.66z"/><path d="m284.03 494.27c-5.16-4.79-3.08-18.15-9.73-22.69-15.18 5.32-31.95 4.07-47.69-.27-2.56 1.59-4.32 4.9-5.06 7.87-2.16 26.65-29.76 23.3-48.24 40.11 0 0-2.75 13.08 13.3 11.14 0 0-5.13 17.91 14.69 13.58 0 0 6.15 15.95 22.55 6.51 0 0 11.96 14.81 28.36 3.03 0 0 18.11 9.56 27.68-3.38 0 0 18.11 6.22 23.92-6.16 1.11.05 14.23.05 11.28-13.58 12.9 2.95 12.9-10.48 12.9-10.48-12.87-12.52-31.38-15.18-43.96-25.68z"/><path d="m275.37 255.64c1.71-4.81-.46-8.41-2.61-13.09-13.8 5.57-29.86 3.25-45.07.18-2.12 4.6-4.22 8.17-2.53 12.92 5.9 4.85 11.45 8.83 10.9 17.68.02.32.04.64.06.96 9.44.1 18.87.61 28.31-.22.02-.25.03-.49.05-.74-.55-8.86 5-12.84 10.89-17.69z"/><path d="m272.09 84.95c-2.5-6.02-5.5-6.74-2-12.83 3.07-5.33.93-13.7.8-19.36-.15-6.3 1.77-12.77-.58-18.88-3.71-9.6-21.81-5.7-29.94-5.69-16.4.6-7.63 21.39-9.14 31.77-1.25 12.79 6.61 13.49 1.06 26.65.13 7.14 11.67 4.97 11.26 13.21h16.17c-.49-12.49 16.16-4.83 12.37-14.87z"/><path d="m75.46 163.14c-2.5-6.02-5.5-6.74-2-12.83 3.07-5.33.93-13.7.8-19.36-.15-6.3 1.77-12.77-.58-18.88-3.71-9.6-21.81-5.7-29.94-5.69-16.4.6-7.63 21.39-9.14 31.77-1.25 12.79 6.61 13.49 1.06 26.65.13 7.14 11.67 4.97 11.26 13.21h16.17c-.49-12.49 16.16-4.84 12.37-14.87z"/><path d="m267.78 294.31c-4.59-3.18-4.32-8.8-3.75-15.39-9.08.55-18.54.6-27.48.6.59 7 .68 12.82-5.34 15.68 11.97 3.51 25.06 3.04 36.57-.89z"/><path d="m232.8 349.36c7.09 22.82 9.02 48.06-2.39 67.23-.23.26-.44.52-.64.77 13.2.76 26.89 1.15 40.09-1.27-11.01-18.96-9.18-43.74-2.27-66.24-11.35 3.33-23.66 1.91-34.79-.49z"/><path d="m464.88 164.8c-5.55-13.13 2.3-13.88 1.06-26.65-1.52-10.38 7.26-31.18-9.14-31.77-8.13-.01-26.23-3.91-29.94 5.69-2.36 6.1-.44 12.57-.58 18.88-.13 5.66-2.27 14.03.8 19.36 3.51 6.08.5 6.81-2 12.83-3.76 10.02 12.94 2.46 12.39 14.88h16.17c-.42-8.25 11.12-6.08 11.24-13.22z"/><path d="m454.96 228.31c.65-7.71-.49-15.52-1.63-23.2-.84-5.66-1.68-11.31-2.52-16.97-.1-.65-.22-1.34-.68-1.8-.57-.56-1.45-.58-2.25-.57-4.69.06-9.37.12-14.06.18 2.84 1.05 3.62 4.81 2.9 7.75s-2.45 5.57-3.01 8.54c-1.78 9.41 5.73 17.83 4.13 27.74-1.46 9.02-6.74 17.72-17.19 15.04-2.17-.21-4.41.46-4.43 3.1 4.88 15.84-14.26 25.68-27.56 23.27-23.09-3.9-46.04-29.31-38.43-54.1.06.04.1.09.15.14.01-.05.01-.1.02-.14 3.31 7 10.9 4.84 16.86 4.34 4.27.4 8.63 5.03 12.99 3.64-14.36-18.11-3.63-41.62-17.11-59.16-15.73-21.1-62.08-28.51-69.07 6.43-8.65-2.33-13.63-2.99-22.84-1.42-.86-1.38-2.92-3.48-3.78-4.87.51-4.37-.29-8.9-2.28-12.8-2.04-6.66 1.34-9.34-4.97-14.57-1.74-7.88-.27-21.33-.81-31.18l-18.27-.03c-.54 9.81.92 23.35-.82 31.21-6.31 5.23-2.93 7.9-4.98 14.57-1.99 3.91-2.79 8.43-2.28 12.8-.86 1.38-2.92 3.48-3.78 4.87-9.2-1.57-9.5-1.2-18.15 1.13-9.15-38.18-58.03-27.24-73.76-6.14-13.48 17.56-2.74 41.02-17.1 59.16 4.36 1.39 8.72-3.24 12.99-3.64 5.96.5 13.54 2.67 16.86-4.34.01.05.01.1.02.14.05-.05.09-.1.15-.14 6.82 22.22-12 46.43-32.91 52.56-7.49 2.2-15.87 2.47-22.85-1.03s-12.05-11.37-10.7-19.06c.17-.97.43-2 .08-2.93-.98-2.52-4.66-1.55-7.35-1.26-3.77.41-7.52-1.6-9.89-4.56-2.37-2.95-3.52-6.72-4.02-10.48-.9-6.66.09-13.56 2.82-19.7.79-1.77 1.73-3.53 1.91-5.46.34-3.66-2.07-6.93-3.31-10.38-1.24-3.46-.44-8.49 3.18-9.1-5.99 0-11.97-.01-17.96-.01 1.75 2.46.95 5.91-.52 8.55-1.46 2.64-3.53 4.99-4.34 7.9-.84 3-.21 6.19.2 9.28 1.25 9.28.61 18.84 3.06 27.88 4.95 18.27 21.82 31.19 39.67 37.51 9.16 3.25 19.05 5.13 28.63 3.48s18.8-7.29 23.08-16.02c-.78 1.58.58 3.48 2.2 4.19 1.62.7 3.46.68 5.15 1.21 3.38 1.06 5.66 4.15 7.58 7.13 3.86 5.98 7.25 12.27 10.13 18.78 1.44 3.26 2.81 6.65 5.27 9.22 4.56 4.76 11.83 5.67 18.41 5.22 6.58-.44 13.2-1.94 19.7-.84 6.49 1.1 11.78 6.89 13.96 12.59-.33-5.36 2.13-10.57 3.37-15.65.74-3.05 1.1-8.44-1.79-10.65-3.12-2.39-8.72-.22-12.34-1.66-5.44-2.17-9.31-7.22-13.69-10.88-6.71-5.62-12.83-11.93-18.24-18.8-4.39-5.57-8.77-11.48-11.22-18.13-2.96-8.06-4.51-16.42-6.74-24.69-1.13-4.19-3.29-8.02-5.5-11.73-2.03-3.41-3.76-6.83-5.49-10.38-1.67-3.42-5.06-6.21-5.87-10.01-1.22-5.7-.02-11.45 2.76-16.48 4.92-8.91 16.51-14.15 26.29-14.94 4.83-.39 10.07.28 14.03 3.28 5.56 4.2 6.08 11.87 8.6 17.85 2.6 6.18 8.91 10.55 15.59 7.99 6.88-2.63 12.32-9.69 20.06-9.97-3.91.14-4.81 4.75-2.91 7.6.14.64.06 1.25-.14 1.85 14.95 1.25 29.82 3.52 44.1.03-.2-.6-.29-1.22-.15-1.87 1.89-2.85 1-7.46-2.91-7.6 10.29.38 18.52 8.41 28.77 8.81 4.52.18 9.15-1.78 12.31-5.22 5.99-6.51-4.41-11.82.41-17.52 4.34-5.13 12.46-6.04 18.7-5 8.98 1.5 19.73 6.44 24.37 14.71 2.71 4.89 3.92 10.43 2.86 15.99-.5 2.64-1.49 5.2-3.05 7.4-1.48 2.08-3.47 3.43-4.81 5.66-2.75 4.57-5.14 9.5-7.08 14.48-1.1 2.82-1.12 5.82-1.57 8.77-2.86 18.89-13.03 35.92-26.96 48.78-6.92 6.39-14.32 13.94-22.61 18.59-2.39 1.34-4.66 3.26-7.53 2.19-2.24-.83-4.85-1.65-6.85.15-1.65 1.49-2.32 4.2-1.29 6.2 3.05 5.88 5.75 10.69 5.95 17.5.65-1.17 1.3-2.32 1.95-3.43 1.78-6.6 10.81-3.57 15.2-3.9 1.02-.36 2.03-.73 3.03-1.1 10.53-3.87 23.53-1.33 32.43-9.29 8.82-7.89 9.25-21.72 17.89-29.98 1.81-1.26 12.8-1.59 9.84-6.49 11.2 18.58 37.99 23.76 55.92 13.99 17.66-9.62 34.44-26.57 37.47-47.2.16-.97.27-1.93.35-2.9zm-241.6 71.81c2.19.63 6.3 1.01 7.21 3.53.36.99-.49 5.62-2.21 4.46-2.94-2.01-6.1-4.2-7.22-7.77.52-.61 1.46-.44 2.22-.22zm-45.59-19.39c45.84 15.37-1.85 26.58-7.01-4.46 1.41 2.6 4.45 3.35 7.01 4.46zm114.41 27.37c-1.72 1.17-2.57-3.47-2.21-4.46.9-2.51 5.01-2.9 7.21-3.53.76-.22 1.7-.39 2.22.21-1.12 3.58-4.29 5.78-7.22 7.78zm50.59-27.37c2.56-1.11 5.59-1.86 7.01-4.46-5.17 31.04-52.85 19.83-7.01 4.46z"/></g><path d="m47.44 106.63c.47 2.92 4.35 5.71 7.69 4.44 2.45-.93 3.18-3.37 3.63-5.5.37-1.78.75-3.57.72-5.37-.05-2.96-4.01-21.77-6.89-21.77-2.12-.01-5.59 25.5-5.15 28.2z" fill="#95608f"/><path d="m256.77 28.2c-.47 2.92-4.35 5.71-7.69 4.44-2.45-.93-3.18-3.37-3.63-5.5-.37-1.78-.75-3.57-.72-5.37.04-2.96 4-21.77 6.89-21.77 2.12 0 5.59 25.51 5.15 28.2z" fill="#95608f"/><path d="m439.76 106.63c.47 2.92 4.35 5.71 7.69 4.44 2.45-.93 3.18-3.37 3.63-5.5.37-1.78.75-3.57.72-5.37-.05-2.96-4.01-21.77-6.89-21.77-2.12-.01-5.59 25.5-5.15 28.2z" fill="#95608f"/><g opacity=".1"><path d="m453.33 205.11c-.84-5.66-1.68-11.31-2.52-16.97-.1-.65-.22-1.34-.68-1.8-.57-.56-1.45-.58-2.25-.57-1.78.02-3.56.05-5.34.07 2.19 26.38 10.83 56.39-9.97 77.19-5.32 5.92-11.14 11.42-17.36 16.36.66-.31 1.31-.63 1.95-.98 17.66-9.62 34.44-26.57 37.47-47.2.14-.96.25-1.93.33-2.9.65-7.71-.49-15.52-1.63-23.2z"/><path d="m257.54 444.31c1.05 5.25-4.2 12.6-2.1 14.69 12.6 14.69-5.25 33.59 4.2 41.98 16.79 13.64 29.76 38.03 29.76 47.34 0 12.34-20.69 39.28-47.91 39.44 12.67.55 25.46-.25 37.9-2.42 16.86-2.95 34.03-8.83 47.05-20.6 6.5-5.88 12.72-11.86 12.62-21.37-.09-8.86-4.85-17.5-11.06-23.43-12.86-12.51-31.37-15.17-43.95-25.67-.33-.3-.62-.64-.9-1.01-.07-.09-.12-.2-.19-.3-.2-.29-.39-.58-.56-.9-.05-.09-.09-.19-.13-.28-.17-.35-.35-.7-.5-1.08-.02-.04-.03-.09-.05-.13-2.41-6.19-2.02-15.89-7.84-19.3.19-.47.37-.97.55-1.47.04-.12.08-.23.12-.35.17-.5.34-1.01.5-1.53.02-.06.04-.13.06-.19.14-.48.28-.98.41-1.48.03-.11.06-.22.09-.34.14-.55.26-1.1.38-1.67.02-.09.04-.19.06-.28.1-.52.2-1.04.28-1.57.01-.09.03-.17.04-.26.09-.58.17-1.17.23-1.76.01-.1.02-.21.03-.31.06-.57.11-1.15.14-1.72 0-.03 0-.06.01-.09.03-.6.05-1.2.05-1.8 0-.1 0-.2 0-.31 0-1.2-.07-2.39-.22-3.55-.01-.09-.02-.18-.03-.27-.08-.58-.17-1.16-.29-1.72 0-.02-.01-.04-.01-.07-.11-.55-.25-1.08-.41-1.6-.02-.07-.04-.14-.06-.2-.16-.54-.35-1.06-.56-1.57-.02-.05-.04-.1-.07-.15-.2-.48-.43-.95-.67-1.41-.02-.04-.04-.08-.06-.11-.26-.47-.55-.92-.86-1.35-.04-.06-.09-.12-.13-.18-.32-.43-.65-.84-1.02-1.22-.15-.15-.3-.3-.46-.44-.1-.1-.2-.19-.3-.28-.15-.13-.3-.25-.45-.37-.13-.1-.25-.2-.38-.3-.15-.11-.31-.21-.46-.32-.15-.1-.3-.19-.45-.29-.15-.09-.31-.18-.47-.27-.17-.09-.34-.18-.52-.27-.16-.08-.32-.15-.48-.22-.2-.09-.4-.17-.61-.24-.16-.06-.31-.12-.47-.17-.24-.08-.5-.15-.75-.23-.14-.04-.27-.08-.41-.12-.4-.1-.81-.19-1.24-.26-.03-.25-.04-.49-.04-.73 0-.07 0-.15 0-.22 0-.17.01-.34.03-.5.01-.08.02-.15.02-.23.02-.17.05-.34.09-.51.01-.06.02-.11.03-.17.05-.22.11-.44.18-.65.01-.04.03-.08.04-.12.06-.17.13-.35.2-.52.03-.06.06-.13.09-.19.07-.15.14-.3.22-.45.03-.06.06-.11.09-.17.1-.19.21-.38.33-.56.01-.01.01-.02.02-.03.13-.2.26-.4.4-.6.02-.03.05-.07.07-.1.12-.17.24-.33.37-.49.03-.04.06-.07.09-.11.14-.18.28-.35.43-.53.01-.01.01-.02.02-.03.94-1.13 2-2.21 2.93-3.32 0 0 0-.01.01-.01.11-.13.23-.27.33-.41.03-.04.06-.08.09-.12.1-.13.2-.26.3-.39.03-.04.05-.07.08-.11.18-.24.35-.49.51-.73.03-.05.06-.1.1-.15.07-.11.13-.22.2-.33.04-.08.09-.15.13-.23.06-.11.12-.22.17-.33.04-.08.08-.16.11-.25.05-.11.1-.22.14-.33.04-.1.07-.2.11-.3.06-.17.11-.35.16-.53.03-.1.05-.2.07-.3.02-.11.04-.21.05-.32.02-.1.03-.21.04-.31.01-.11.02-.22.02-.33 0-.12 0-.23 0-.35-.01-.43-.07-.87-.18-1.33-.03-.12-.06-.25-.09-.37-.04-.12-.08-.25-.13-.37-.05-.13-.1-.27-.15-.41-.05-.12-.11-.25-.17-.37-.07-.15-.14-.29-.22-.44-.06-.12-.13-.24-.2-.37-.09-.16-.2-.33-.3-.49-.07-.12-.15-.23-.23-.35-.13-.19-.27-.38-.42-.58-.08-.1-.15-.2-.23-.31-.24-.3-.49-.61-.77-.92-.1-.16-.18-.33-.27-.5-.03-.05-.06-.11-.09-.16-.31-.55-.62-1.1-.91-1.65-.25-.48-.49-.96-.73-1.44-.15-.3-.29-.6-.43-.91-.39-.83-.75-1.68-1.1-2.53-.11-.27-.23-.55-.33-.82-.2-.52-.4-1.05-.58-1.57-.09-.27-.18-.53-.27-.8-.31-.93-.6-1.86-.87-2.8-.07-.25-.14-.5-.21-.75-.15-.57-.3-1.14-.44-1.72-.02-.08-.04-.16-.06-.25-.27-1.15-.51-2.31-.71-3.49-.04-.22-.08-.44-.11-.66-.31-1.89-.55-3.8-.72-5.73-.01-.15-.02-.3-.04-.45-.1-1.3-.18-2.6-.22-3.92 0-.01 0-.02 0-.03-.06-2.11-.05-4.23.04-6.36 0-.02 0-.05 0-.07.43-10.03 2.48-20.3 5.5-30.13 3.04-9.91 7.06-19.36 11.4-27.69.03-.05.06-.11.09-.16.59-1.13 1.19-2.25 1.79-3.34.02-.04.04-.08.06-.12.58-1.05 1.17-2.08 1.75-3.09-37.85 46.44-31.91 30.24-25.13 128.86z"/><path d="m67.56 143.07c3.15 7.35-4.2 15.74-2.1 22.04 1.23 2.45 3.27 3.74 5.79 4.36 3.31-.82 5.97-1.66 4.2-6.33-2.5-6.02-5.5-6.74-2-12.83 3.07-5.33.93-13.7.8-19.36-.15-6.3 1.77-12.77-.58-18.88-1.66-4.31-6.23-5.89-11.49-6.34 1 6.25 1.13 11.66 5.37 18.44 4.21 5.26-3.14 11.55.01 18.9z"/><path d="m454.87 160.91c4.98-1.49 7.6 1.5 9.98 4.39.02-.16.03-.33.03-.5-5.55-13.13 2.3-13.88 1.06-26.65-1.52-10.38 7.26-31.18-9.14-31.77-.08 0-.18 0-.27-.01-.86 5.87-2.71 11.93-2.71 16.75 0 12.6 2.1 25.2 1.05 37.79z"/><path d="m275.37 255.64c.11-.32.21-.64.29-.95.03-.1.04-.21.07-.31.05-.21.09-.42.13-.62.02-.12.03-.24.05-.35.02-.19.04-.37.06-.55.01-.12.01-.24.02-.36.01-.18.01-.36 0-.53 0-.12-.01-.24-.01-.35-.01-.18-.03-.36-.05-.53-.01-.11-.02-.22-.04-.33-.03-.19-.06-.38-.1-.57-.02-.09-.03-.18-.05-.28-.06-.28-.13-.55-.21-.83v-.01c-.08-.28-.17-.56-.27-.85-.03-.1-.07-.19-.1-.29-.07-.19-.14-.37-.21-.56-.04-.11-.09-.23-.14-.34-.07-.17-.14-.35-.22-.52-.05-.12-.1-.24-.16-.36-.08-.17-.15-.35-.23-.53-.05-.12-.11-.24-.17-.36-.08-.18-.17-.37-.26-.55-.07-.14-.14-.29-.2-.44-.11-.24-.23-.49-.35-.74-.15-.31-.29-.63-.44-.95 0 0 0-.01-.01-.01-.01-.02-.02-.04-.02-.05-.15-.34-.31-.68-.46-1.03-.05-.12-.1-.25-.16-.37-.11-.25-.22-.51-.32-.77-.06-.15-.12-.3-.18-.45-.1-.24-.19-.49-.28-.74-.06-.16-.12-.33-.18-.5-.09-.25-.17-.49-.25-.75-.06-.18-.11-.36-.17-.54-.08-.26-.15-.52-.22-.78-.05-.18-.1-.37-.15-.56-.07-.28-.13-.56-.19-.85-.04-.19-.08-.37-.12-.56-.06-.32-.11-.66-.17-.99-.03-.17-.05-.33-.08-.49-.07-.51-.13-1.03-.17-1.56 0-.01 0-.03 0-.04-.04-.52-.06-1.06-.07-1.61 0-.18 0-.38 0-.57 0-.39 0-.78.02-1.18.01-.23.03-.47.04-.71.02-.38.05-.76.09-1.15.03-.26.06-.53.09-.79.05-.39.1-.78.16-1.18.04-.28.09-.56.14-.85.07-.41.16-.83.24-1.25.06-.29.12-.59.19-.89.1-.44.22-.9.34-1.36.08-.3.15-.59.24-.89.15-.52.31-1.05.48-1.58.08-.26.16-.52.25-.79.27-.81.57-1.65.89-2.51 2.72-7.3 6.78-16.25 2.15-23.52-1.72 7.52-7.24 14.06-12.14 20.6-5.25 7.35 4.2 16.79 2.1 27.29-1.05 5.25-3.15 10.5 3.15 15.74 2.09 2.09-2.06 6.26-1.06 9.41 2.11-3.07 5.21-5.46 8.42-8.11z"/><path d="m258.59 46.51c-2.1 6.3 5.25 13.64 8.4 18.89 2.1 6.3-2.1 15.74-5.25 23.09 2.88.72 5.76 1.44 8.64 2.03 1.93-.81 2.99-2.18 1.71-5.57-2.5-6.02-5.5-6.74-2-12.83 3.07-5.33.93-13.7.8-19.36-.15-6.3 1.77-12.77-.58-18.88-1.37-3.54-4.7-5.24-8.77-5.98.15 6.21-1.4 12.41-2.95 18.61z"/></g><path d="m184.69 566.71c-2.82-1.56-15.28-6.57-12.34-11.77 1.9-3.36 9.15 1.95 10.83 3.79 5 5.45 9.28 8.12 16.05 11.02.52.22.9.4 1.12.93-.75.71-1.55.69-2.62.72-4.33.14-10.37-3.21-13.04-4.69z" fill="#fff"/><path d="m166.09 552.52c-.8-.3-1.5-.9-1.97-1.87-.8-1.67-1.96-5.82-.46-7.7 5.66-7.06 12.04 13.14 2.43 9.57z" fill="#fff"/></svg>