<?xml version="1.0" encoding="utf-8"?>
<!-- Generator: Adobe Illustrator 26.2.1, SVG Export Plug-In . SVG Version: 6.00 Build 0)  -->
<svg version="1.1" id="Layer_1" xmlns="http://www.w3.org/2000/svg" xmlns:xlink="http://www.w3.org/1999/xlink" x="0px" y="0px"
	 viewBox="0 0 402.2 417.3" style="enable-background:new 0 0 402.2 417.3;" xml:space="preserve">
<style type="text/css">
	.st0{fill:#95608F;}
	.st1{fill:#EAD9EB;}
	.st2{fill:#ED859E;}
	.st3{fill:#FFFFFF;}
	.st4{opacity:0.1;}
</style>
<path class="st0" d="M11.7,327.7c-1.3,22.2-21,41.6-6.2,63.4c6.3,9.2,16.3,15.3,26.9,18.8c34.3,11.3,73.3,7.2,108.3,2.7
	c18.9-2.5,39.3-6.1,52.3-20.2c12.7-13.8,15-34.2,24.4-50.5c5.8-10,18.1-19,28.2-13.5c4.3,2.4,7,6.8,10.5,10.2
	c8.9,8.7,22.9,10.6,34.9,7.5c12-3.2,22.5-10.7,31.8-18.9c37.5-32.9,62.2-79,73.6-127.6c7.4-31.7,9.2-66.1-3.6-96
	c-16.1-37.8-52.8-63-90.3-79.9C247.7-1,181.1-11.7,128.7,17.9c-40.6,23-65.5,65.8-84.8,108.3c-11.5,25.3-22,52.6-18.5,80.1
	c1.7,13.8,6.9,27,8.3,40.8c1.4,13.8-2.2,29.5-13.8,37.1L11.7,327.7z"/>
<path class="st1" d="M54.9,233.8c-1.6,4.9-3.8,10.2-1.7,14.9c2.2,4.8,8,6.6,13.2,7c7.3,0.6,14.7-0.7,21.3-3.7
	c0.5-4.6,1-9.2,1.5-13.9c0.2-1.7,0.3-3.4-0.1-5.1c-0.4-1.4-1.3-2.7-1.9-4.1c-1.3-3-1.3-6.3-1.4-9.5c-0.7-12.5-5.4-25.2-15-33.3
	c-1.3-1.1-3-2.1-4.5-1.4c-0.7,0.4-1.2,1-1.6,1.7C54.5,201.7,60.6,217,54.9,233.8z"/>
<path class="st1" d="M117.3,169.2c0.7-3.2,1.4-6.5,3.2-9.2c2.9-4.3,8.2-6.3,13.2-7.9c4.7-1.5,9.5-2.8,14.3-4
	c7.4-1.8,15.5-3.1,22.5,0.1c16.5,7.7,22.6,32,18.1,48.1c-3.6,13-11.8,33-25.3,35.2c-5.1,0.8-11.1,1.1-16.2,2
	c-4.4,0.8-17.2-8.9-21.7-9.5C101.3,220.9,114.4,183.4,117.3,169.2L117.3,169.2z"/>
<path class="st1" d="M55.6,130.1c4.2-4.3,11.9-5.3,17.9-3.4c6,1.9,10.5,6.4,13.3,11.3s-1.7,7.6-0.4,13c0.2,0.7-1,3.1-1.6,3.5
	c-10.2,6.1-17.2,12.8-23.9,21.8c-2.2,3-4,6.7-7.9,7.6c-4.6,1.1-12.8,0.9-13.5-3.1s4.8-11.5,6.2-15.4
	C49.6,153.8,45.8,140.1,55.6,130.1z"/>
<path class="st2" d="M163.3,307.7l-4.3,6.8l-50.5,1.9L68.6,308l-35.5-4l-2.9,12.5l22.1,8.1l30.3,7.8l26.6,6.7l14.6,1.8l12.9-0.5
	l14.3,2.4l5.2,5c4.3,1,8.8-1.5,11.6-5s4.1-7.8,5.4-12c2-6.4,3.1-14.7,4-21.3c-1.9,1.3-4.6,0.6-6.2-0.9s-2.5-3.8-3.3-5.9
	c-1,1.9-2.4,3.5-4,4.8L163.3,307.7z"/>
<path class="st3" d="M157.3,347.1c0.6-3.7,0.9-8.4-2.4-10.3c-1.4-0.9-3.1-0.9-4.7-1c-1.7-0.1-3.7-0.3-5.7-0.6
	c-5.8-0.9-11.7-0.8-17.4,0.1c-1.4,0.2-2.6,0.3-3.3,0.2c-6.2-0.8-3.7-1-14-1.2c-2.4,0-4.8-0.5-7.1-1.1c-1.3-0.3-2.7-0.3-4-0.9
	c-0.9-0.4-1.6-1.2-2.5-1.7c-3-1.5-11.3-3.7-17.3-3.8c1.1-1.8-6.2-2.5-8.3-3c-4.2-0.9-3.8-2.1-8.1-1.4c-0.4,0.1-3.1-1.7-3.7-1.9
	c-2.4-0.9-5-1.3-7.6-1.9c-5.4-1.2-9.2-6.2-15.3-5.3c0,0,0.5-6.2-11.2-4.4c-1.5,0.6-1.1,2-1.5,3.6c-0.9,9.3-0.5,7-0.4,16.3l0,0
	c3.9,0.5,8-0.4,11.3-2.5c3.2,4,10.2,0.6,14.7,3.3c1.5,0.9,2.5,2.4,4.2,2.9c2.5,0.8,5-0.8,7.1-2.3c1.8,2.5,3.8,5,6.4,6.6
	s6.2,2.1,8.8,0.3c1.9,2.3,4.9,3.7,7.9,3.5c1.1-0.1,2.2-0.3,3.2,0.2c0.7,0.3,1.1,1,1.7,1.4c3.1,2.4,8.1-1,11.6,0.9
	c2,1.1,3.1,3.7,5.3,4.2c1.2,0.3,2.4-0.1,3.7-0.2c2.6-0.2,5,1.2,7.5,2.2c5.8,2.3,12.5,2.1,18.2-0.6c1-0.5,1.9-1,3-0.9
	c1.6,0.1,2.9,1.5,4.4,2.2c2.6,1.1,5.6-0.3,8.2-1.5c2.6-1.2,3.7-1.5,6.5-1L157.3,347.1z"/>
<path class="st3" d="M163.3,307.7c0,0-0.3,3,1.3,7.8c0.3,0.8,0.6,1.6,0.7,2.5c0.2,2.2-1.5,4.3-3.5,5.3c-2.5,1.3-5.1,0.9-7.8,1.6
	c-3,0.8-6,2.5-8.9,3.6c-0.9,0.4-1.9,0.7-2.8,1c-1.7,0.5-4.1,0.3-4.6-1.4c-2.2,2-5.3,2.5-8.2,2.5c-3.5,0-7-0.5-10.5-1
	c-3.4-0.5-6.9-1-10.3-1.5c-4.2-0.6-4-2.8-8.3-3.2c-2.9-0.3-4.4,1.5-12.1-1.8c-4.2,0.8-8.6,0.2-12.4-1.7c-1.4-0.7-0.4-1.4-2-1.7
	c-1.8-0.4-5.9-3.2-7.7-3c-3.1,0.3-8.6-0.6-11.6-1.2c-4.5-0.9-3.9,1-7.7-1.4c-0.9-0.6-4.6-0.5-5.7-0.8c-1.8-0.5-3.8,0.2-5.5-0.5
	c-2-0.7-3.1-3-5.2-3.5c-1.5-0.4-4.9,0.8-5.8-0.3c-2.7-3.2,5-24.7,7.4-24.5s8.3,3.6,10.4,4.8c4.5,2.6,7,0.5,11.5,3
	c2.4,1.4,5,2.8,7.8,2.8c1.8,0,3.6-0.6,5.3-0.3c3.2,0.6,5.3,4.2,8.5,4.1c1,0,2-0.4,3-0.6c2.9-0.8,10.1,3,11.8,5.4
	c2.9,3.9,9.4,0.3,13.9,2c1.3,0.5,2.3,1.4,3.6,2c4.1,2,9,0.1,13.5,0.6c5.8,0.6,11.2,5,16.9,3.8c1.4-0.3,2.6-0.9,4-1.2
	c3.5-0.8,7.1,0.8,10.6,0.4C157.5,310.7,163.3,307.7,163.3,307.7L163.3,307.7z"/>
<g>
	<path class="st0" d="M147.6,308c1.1,0.9,1.8,1.9,2.2,3c0.5,1,0.1,2.2,0.2,3.3c0.1,2.3,0.2,4.5,0.2,6.8l-0.4,0.1
		c-1.2-2-2.1-4.1-2.9-6.3c-0.4-1.1-1.1-2.1-1-3.3c0-0.6,0.1-1.2,0.3-1.8c0.2-0.6,0.5-1.2,1-1.8L147.6,308z"/>
	<path class="st0" d="M127,303.8c2.3,3.4,2.3,7.2,1.3,11c-0.6,3.6-1.6,7.2-2.9,10.7l-0.4-0.1c0.2-3.6,0.2-7.2,0.2-10.8
		c-0.4-3.8-0.4-7.2,1.5-10.7C126.6,303.8,127,303.8,127,303.8L127,303.8z"/>
	<path class="st0" d="M110.2,305.3c1.8,3.2,1.4,6.3,0.4,9.5c-0.7,3.1-1.5,6.2-2.4,9.2l-0.4,0c-0.2-3.2-0.4-6.3-0.4-9.5
		c0-1.6-0.4-3.2,0.1-4.7c0.4-1.5,1-3,2.3-4.5L110.2,305.3z"/>
	<path class="st0" d="M89.6,318.6c0.5-3,0.8-6,1.2-9.1c0-3.3,0.5-6,2.9-8.7l0.4,0c1.8,3.2,1.2,6.3-0.2,9.3c-1,3-2.3,5.8-3.9,8.5
		L89.6,318.6L89.6,318.6z"/>
	<path class="st0" d="M63,288.1c-0.2,2,0,3.7-0.2,5.6c-0.2,1.9-1.2,3.6-1.8,5.4c-1.3,3.6-2.7,7.1-4.2,10.6l-0.4-0.1
		c0.4-3.8,0.8-7.6,1.5-11.4c0.3-2.9,0.6-5.7,2.4-8.3c0.6-0.9,1.4-1.8,2.5-2.2L63,288.1z"/>
	<path class="st0" d="M40.3,303.5c-0.3-3.4-0.2-6.8,0.3-10.1c0.2-1.7,0.2-3.5,1-5c0.8-1.5,1.8-3,3.5-4.1l0.4,0.2
		c0.4,1.9,0.2,3.6,0,5.2c-0.2,1.6-1.2,3-1.7,4.5c-0.5,1.5-1.1,3.1-1.6,4.6c-0.5,1.6-1,3.1-1.4,4.8L40.3,303.5z"/>
	<path class="st0" d="M140,340c0.6,2.1,0.9,4.2,1.1,6.4c0.1,1.1,0.5,2.2,0.1,3.2c-0.4,1.2-1,2.2-2.1,3l-0.4-0.1
		c-0.5-0.6-0.8-1.1-1-1.7c-0.2-0.5-0.4-1.1-0.4-1.6c-0.2-1,0.4-2,0.6-3c0.4-1.8,1.1-4.4,1.6-6.1C139.6,340,140,340,140,340z"/>
	<path class="st0" d="M114.6,354.5c-1.2-0.8-1.8-2-2.1-3.3c-0.3-1.2,0.3-2.3,0.6-3.4c0.6-2.2,1.3-4.1,1.9-6.3l0.4,0
		c0.7,2.1,0.8,4.5,0.9,6.6c0.1,1.1,0.5,2.1,0.2,3.1c-0.3,1.2-0.8,2.1-1.5,3.2C115,354.4,114.6,354.4,114.6,354.5L114.6,354.5z"/>
	<path class="st0" d="M100.2,349.4c-1-1-1.5-2.1-1.7-3.3c-0.3-1.1,0.3-2.2,0.5-3.3c0.1-0.8,0.5-2.5,0.7-3.3c0.3-1.1,0.5-2.2,0.9-3.3
		l0.4,0c0.6,2.2,1,4.4,1.3,6.6c0.1,1.1,0.6,2.2,0.3,3.3c-0.3,1.2-0.9,2.3-1.9,3.2C100.6,349.4,100.2,349.4,100.2,349.4z"/>
	<path class="st0" d="M34.5,330.5c-1-1-1.5-2.1-1.7-3.3c-0.3-1.1,0.3-2.2,0.5-3.3c0.1-0.8,0.5-2.5,0.7-3.3c0.3-1.1,0.5-2.2,0.9-3.3
		l0.4,0c0.6,2.2,1,4.4,1.3,6.6c0.1,1.1,0.6,2.2,0.3,3.3c-0.3,1.2-0.9,2.3-1.9,3.2C34.8,330.6,34.5,330.5,34.5,330.5z"/>
	<path class="st0" d="M77.4,330.6c0,1.2,0.1,3.7,0.1,4.9c0,0.8,0.4,1.6,0.1,2.3c-0.4,0.9-1,1.5-1.9,2.2l-0.4,0
		c-0.9-0.7-1.4-1.6-1.6-2.6c-0.2-0.9,0.4-1.7,0.8-2.5s0.7-1.6,1.2-2.3c0.5-0.7,0.9-1.5,1.5-2.1L77.4,330.6z"/>
	<path class="st0" d="M60.9,325.8c0.4,1.7,0.6,3.4,0.5,5.1c0,0.8,0.3,1.8-0.2,2.5c-0.5,0.9-1.3,1.5-2.4,1.9l-0.4-0.1
		c-0.7-0.9-1-1.8-1.1-2.8c-0.1-0.8,0.6-1.5,0.9-2.2c0.3-0.7,0.7-1.5,1-2.2c0.4-0.7,0.7-1.5,1.2-2.3L60.9,325.8z"/>
</g>
<g class="st4">
	<path d="M392.9,103.6c-16.1-37.8-52.8-63-90.3-79.9c-24.1-10.9-50.6-19-77-22.3c12.3,7.2,24.4,14.8,37,20
		c47.6,19.3,90.7,39.7,117.9,83.9c5.7,9.1,0,19.3,3.4,28.3c4.1,15.1,12.8,30.6,16.5,45.5C404,153.6,402.9,127.3,392.9,103.6
		L392.9,103.6z"/>
	<path d="M257,218.2c4.6,6.8-14.3-9.4-15.7-17.4c-1.6-9.4,3.9-18.9,2.8-28.4c-0.9-7.9-6.2-14.7-12-20.2c-4-3.9-8.6-8.9-6.8-14.1
		c1-2.8,4.7-3.7,6.2-6.3c20.2-34.8,35.6-39.2,50.6-45.9c0,0-40.7,38.9-34.3,58.1s8.4,22.2,5.1,39.4S247.7,204.5,257,218.2L257,218.2
		z"/>
	<path d="M181.9,42.1c-5.1,3.2-10.2,6.4-14.3,10.1c-6.7,6-19.6,19.3-23.3,25.8c-9.2,16.4-9.7,26.6-27.5,41.3
		c4.9-11.5,9.9-23,14.8-34.5c2.7-6.2,13.1-20.4,16-26.6c1.6-3.3,3.2-6.7,6.6-9.8c4.2-3.9,10.4-6.6,16.3-9.2
		c17.1-7.5,31.1-11.5,46.9-17.1C205,28.1,193.2,35.1,181.9,42.1z"/>
	<path d="M300,243.1c11.6-0.3,23.6-2.7,34.5,1.2c8.8,3.2,16.7,10.4,26,9.7c-26-9.7-11.8-19.9-29.5-20.3c-15.5-0.3-13.7,8.4-66,2.5
		C272.7,243.4,289.9,243.4,300,243.1L300,243.1z"/>
	<path d="M170.5,148.4c-2.8-1.3-5.8-1.9-8.8-1.9c7.6,6.2,14.6,12.7,18.3,21.5c3.4,11.3,2.3,26.1-1.1,38.5
		c-5.7,14.7-26.1,12.5-39.7,21.5c-0.7,0.7-1.3,1.4-1.8,2.1c3.9,2.2,7.7,4,9.8,3.6c5.1-0.9,11.1-1.2,16.2-2
		c13.4-2.2,21.6-22.2,25.3-35.2C193.1,180.4,187,156,170.5,148.4L170.5,148.4z"/>
	<path d="M86.8,138.1c-2.8-4.9-7.2-9.4-13.3-11.3c-3.3-1.1-7.1-1.2-10.5-0.4c11.7,5.4,26.8,12.6,16.1,22.4c-12,11-17,22.9-25,35
		c3.1-1.4,4.8-4.6,6.8-7.2c6.7-9,13.7-15.7,23.9-21.8c0.7-0.4,1.8-2.8,1.6-3.5C85.1,145.7,89.6,143,86.8,138.1z"/>
	<path d="M89.2,233.1c-0.4-1.4-1.3-2.7-1.9-4.1c-1.3-3-1.3-6.3-1.4-9.5c-0.7-12.5-5.4-25.2-15-33.3c-1.2-1-2.7-1.9-4.1-1.5
		c11.8,18.9,20.1,41.8,14.6,63.7c-3.3,9.2-13.4,7.3-23,5.2c2.5,1.2,5.4,1.8,8.1,2c7.3,0.6,14.7-0.7,21.3-3.7c0.5-4.6,1-9.2,1.5-13.9
		C89.5,236.4,89.6,234.7,89.2,233.1z"/>
	<path d="M261.8,324.3c-12.4-12.6-24.2-15.6-39.2-6c-21.5,13.8-18.6,39-26.6,57c-4,9-9.2,18.2-15.2,26.6c4.5-2.5,8.7-5.6,12.2-9.5
		c12.7-13.8,15-34.2,24.4-50.5c5.8-10,18.1-19,28.2-13.5c4.3,2.4,7,6.8,10.5,10.2c8.9,8.7,22.9,10.6,34.9,7.5
		c5.5-1.4,10.6-3.8,15.5-6.7C290.1,339.1,280.1,342.8,261.8,324.3L261.8,324.3z"/>
</g>
</svg>
