<svg enable-background="new 0 0 281.59 523.26" viewBox="0 0 281.59 523.26" xmlns="http://www.w3.org/2000/svg"><path d="m272.82 502.59c-88 8.87-176.94 8.75-264.94-.06-4.11.15-7.96 3.28-7.88 7.03 0 3.88 3.8 7.06 8.45 7.06 87.91 8.85 176.77 8.85 264.68 0 11.24.15 10.66-14.81-.31-14.03z" fill="#ed859e"/><path d="m140.72 495.08c-44.66.27-89.3-2.79-133.72-6.51v-.02c-9.92 1.23-8.54 14.35 1.45 13.95 88.11 8.95 177.16 8.69 265.27.02 4.37-.26 7.86-3.32 7.86-7.03.09-3.96-4.26-7.26-8.6-7.03-43.93 4.43-88.1 6.63-132.26 6.62z" fill="#fac87d"/><path d="m211.49 457.57c-49.58 2.65-157.01 2.3-204.49-6.29v37.27c88.89 8.5 178.69 8.61 267.58-.02v-37.25c0 2.01-25.21 4.32-63.09 6.29z" fill="#95608f"/><path d="m200.61 448.41c-39.63 4.77-75.4 2.69-115.33 1.14-4.36.11-8.37-1.66-10.69-5.41-4.21.18-10.26.38-14.16.59-1.22 7.71-8.9 6.44-20.73 5.89-6.79-.32-12.75.03-16.14-3.16-55.64 5.94 40.44 11.96 116.95 12.4 76.2-.35 173.69-6.75 117.24-12.36-3.38 3.14-9.33 2.82-16.1 3.13-11.82.54-19.5 1.81-20.72-5.88-4.01-.22-11.17-.42-15.5-.61-1.32 1.74-2.85 3.35-4.82 4.27z" fill="#ed859e"/><path d="m274.43 59.56c-88.37 8.47-177.6 9.02-265.97-.04-4.23-.22-8.56 3.1-8.45 7.01.91 9.8 15.3 6.82 22.42 8.38 65.7 5.9 131.84 6.88 197.68 2.92 17.71-1.04 35.39-2.49 53.03-4.24 10.03.19 11.43-12.88 1.29-14.03z" fill="#ed859e"/><path d="m274.43 45.5c-88.86 8.69-178.58 8.47-267.43.04v-.02c-9.94 1.23-8.53 14.34 1.45 13.95 70.44 7.08 141.47 8.5 212.14 4.22 17.74-.99 35.45-2.65 53.13-4.2 9.69-.35 10.5-12.93.71-13.99z" fill="#fac87d"/><path d="m140.79 16.3c-73.89 0-133.79-4.97-133.79-8.05v37.27c88.91 8.5 178.67 8.61 267.58-.02v-37.25c0 3.08-59.9 8.05-133.79 8.05z" fill="#95608f"/><path d="m140.79 17.16c178.33-1.85 178.45-15.98 0-17.16-178.44 1.18-178.33 15.31 0 17.16z" fill="#ed859e"/><path d="m246.44 414.68c11.27-4.44 8.35-11.11-1.62-16.15 4.61-7.29-.74-28.78-.74-57.33 0-25.54 10.37-49.74 7-61.28-.05.02-.11.03-.17.05 5.5-2.47 9.16-8.01 8.62-18.34-.08-12-3.8-16.76-9.4-18.62 5.55-10.27-4.88-35.77-4.88-63.08 0-28.41 2.94-50.13-.84-57.65 10.45-4.95 13.46-12.08 1.65-16.45 8.61-5.66 15.06-21.17 13.2-30.94-13.03 1.17-26.08 2.17-39.15 2.93-.21 8.55 6.52 22.43 14.68 27.65-12.43 3.98-10.73 11.25.14 16.64-4.61 7.29.74 28.78.74 57.33 0 27.3-11.85 53.07-6.1 63.48-5.94 2.13-9.98 7.4-9.6 18.7 0 9.55 3.56 14.94 8.95 17.61-3.87 11.15 5.58 35.5 5.58 61.49 0 28.41-2.94 50.13.84 57.65-11.13 5.2-13.23 12.79-.56 16.8-8.66 5.81-15.7 20.15-14.51 29.58 1.21 7.69 8.81 7.26 20.52 6.72 6.72-.31 14.29.02 17.65-3.15 7.51-8.92-2.23-28.47-12-33.64z" fill="#95608f"/><path d="m46.81 415.17c12.43-3.98 10.73-11.25-.14-16.64 4.61-7.29-.74-28.78-.74-57.33 0-27.1 11.69-52.71 6.22-63.26-.65.32 8.02-6.73 7.59-16.31 0-11.75-3.35-16.02-8.42-17.57 6.97-9.49-4.23-35.84-4.23-64.13 0-28.41 2.94-50.13-.84-57.65 10.45-4.95 13.46-12.08 1.65-16.45 7.98-4.89 13.77-19.29 13.59-28.01-13.04-.76-26.06-1.76-39.07-2.92-2.21 9.72 5.44 24.55 14.2 30.58-12.43 3.98-10.73 11.25.14 16.64-4.61 7.29.74 28.78.74 57.33 0 28.12-12.57 54.62-5.53 64.38-5.65 1.72-9.47 6.45-9.15 17.8-.04 9.53 3.28 14.39 8.31 16.67-4.8 10.67 5.21 35.68 5.21 62.43 0 28.41-2.94 50.13.84 57.65-10.21 4.86-13.52 11.84-2.04 16.31-9.77 5.15-19.51 24.71-12 33.63 3.35 3.19 10.93 2.84 17.66 3.16 11.71.54 19.01.97 20.22-6.72 1.19-9.44-5.56-23.79-14.21-29.59z" fill="#95608f"/><g opacity=".1"><path d="m274.58 8.25c0 3.09-59.9 8.91-133.79 8.91-8.31 0-16.45-.07-24.34-.21 46.15 14.37 95.89 11.33 144.08 12.15-.35 5.88.01 11.76.49 17.64 4.52-.39 9.04-.8 13.56-1.24z"/><path d="m274.58 451.29c0 2-25.21 4.32-63.09 6.29-25.04 1.34-71.24 2.49-110.61 1.62 15.55 5.6 40.58 5.49 57.15 7.47 31.87 3.45 63.74 3.45 95.61 0 1.78 7.55 1.72 15.56 2.08 23.56 6.29-.52 12.58-1.08 18.87-1.69v-37.25z"/><path d="m272.98 488.47c-1.82.18-3.65.34-5.47.51 2.26.72 3.9 2.08 4.59 3.46 2.14 3.75.84 7.79-2.06 10.42 1.23-.12 2.46-.22 3.69-.34 4.37-.26 7.86-3.32 7.86-7.03.09-3.95-4.27-7.25-8.61-7.02z"/><path d="m272.82 502.59c-.84.08-1.68.16-2.52.24 3.37 1.26 5.7 4.04 4.8 7.62-.41 2.89-2.03 4.92-4.27 6.39.77-.08 1.54-.14 2.3-.22 11.24.15 10.66-14.81-.31-14.03z"/><path d="m274.43 45.5c-2.49.24-4.99.45-7.48.68 5.1 2.33 8.74 6.9 5.16 12.27-.23.46-.52.88-.85 1.26.82-.07 1.65-.15 2.47-.22 9.65-.84 10.49-12.93.7-13.99z"/><path d="m274.43 59.56c-1.84.18-3.68.33-5.53.5 3.07 1.31 5.2 3.7 5.2 5.39.56 3.89-1.67 6.55-4.62 8.48 1.22-.12 2.44-.23 3.65-.35 10.04.2 11.44-12.87 1.3-14.02z"/><path d="m46.81 415.17c12.43-3.98 10.73-11.25-.14-16.64 4.61-7.29-.74-28.78-.74-57.33 0-27.1 11.69-52.71 6.22-63.26-.65.32 8.02-6.73 7.59-16.31 0-11.75-3.35-16.02-8.42-17.57 6.97-9.49-4.23-35.84-4.23-64.13 0-28.41 2.94-50.13-.84-57.65 10.45-4.95 13.46-12.08 1.65-16.45 7.98-4.89 13.77-19.29 13.59-28.01-2.73-.16-5.45-.33-8.17-.51.68 7.16.59 17.64-4.69 23.03l-6.59 6.4s9.6 4.89 4.52 11.48l-4.52 3.39s4.89 20.33 2.07 42.73 3.92 55.37 4.71 64.56c1.36 15.95-12.89 15.25-12.89 15.25s17.32.67 17.69 9.6c.24 5.68 2.36 17.32-2.91 20.52l-13.79 3.34s13.15 1.18 8.89 30.73c-1.92 13.32-3.76 49.88-3.76 49.88s1.32 30.31 2.07 33.32-.19 9.41-.19 9.41 4.89 3.2 2.64 7.15c-2.26 3.95-3.76 7.87-3.76 7.87s5.84 5.69 7.15 11.33c1.06 4.54 4.43 15.62 3.35 24.16 4.35-.59 7.04-2.33 7.73-6.72 1.17-9.42-5.58-23.77-14.23-29.57z"/><path d="m246.44 414.68c11.27-4.44 8.35-11.11-1.62-16.15 4.61-7.29-.74-28.78-.74-57.33 0-25.54 10.37-49.74 7-61.28-.05.02-.11.03-.17.05 5.5-2.47 9.16-8.01 8.62-18.34-.08-12-3.8-16.76-9.4-18.62 5.55-10.27-4.88-35.77-4.88-63.08 0-28.41 2.94-50.13-.84-57.65 10.45-4.95 13.46-12.08 1.65-16.45 8.61-5.66 15.06-21.17 13.2-30.94-2.69.24-5.37.47-8.06.7.85 6.16.99 19.76-10.67 32.76 0 0 15.7 4.24 0 13.84 0 0 2.15 19.76 0 42.07s8.92 62.68 5.5 69.18c-3.42 6.49-4.26 7.62-9.06 9.88 0 0 12.14-1.41 12.71 11.01s.28 18.64-11.29 23.72c0 0 10.73 4.5 8.19 15.24s-10.95 39.82-6.04 74.83 0 34.77 0 34.77 6.49 3.92 3.72 9.28l-3.72 3.82s19.88 6.85 13.95 25.37c-1.41 4.39-3.3 7.53-5.38 9.77 3.89-.28 7.36-.93 9.35-2.8 7.49-8.93-2.25-28.48-12.02-33.65z"/></g><path d="m140.51 80.22c-23.16.21-46.53-1.12-69.55-1.61-30.75 58.11 14.66 118.96 52.79 161.47 10.31 9.88 10.95 22.43.27 32.23-41.38 44-90.51 112.42-50.94 171.44 2.36 3.87 6.34 6 10.88 5.81 39.53 1.55 79.88 3.62 119.12-1.14 48.75-53.57-2.56-128.52-41.44-172.98-8.31-9.45-14.04-22.53-4.22-32.3 18.27-23.55 37.42-46.87 49.99-73.9 12.53-27.72 19.43-62.27 5.65-89.91-23.65-1.75-48.49 1.89-72.55.89z" fill="#ead9eb"/><g fill="#ed859e"><path d="m137.15 355.33c-.17 1.57.23 3.3 1.43 5.2 11.3 9.55 9.69-2.75 7.88-10.98-2.62-5.78-9.25 2.62-9.31 5.78z"/><path d="m140.43 318.45c2.53 3.74 4.46-2.54 2.74-4.85-1.92-4.3 2.7-7.79 2.48-11.66-6.84-8.49-6.78 13.42-5.22 16.51z"/><path d="m140.75 290.22c1.33 8.25 4.49-2.49 4.61-5.06-.51-7.32-1.38-12.57-1.11-19.94.13-3.59 3.29-16.23-4.47-12.45.48 11.92 1.38 25.49.97 37.45z"/><path d="m207.06 142.57s-10.36 43.72-59.23 96.65c-2.63 2.69-6.93 2.78-9.67.2-.3-.3-49.81-50.37-59.28-84.86z"/><path d="m212.39 393.9c-.33 9.62-5.54 44.41-17.05 44.94-25.04 3.03-47.81 1.32-72.54 2.15-12.88.43-25.84 1.05-38.48-2.12-5.05-1.27-7.68-9.76-9.57-14.16-4.58-10.68-5.87-22.58-5.42-34.1z"/></g><path d="m153.77 135.49c12.62-3.37 24.9-11.55 37.66-8.69 11.42 1.68 26.2 20.06 5.24 20.42-27.35.46-54.89 1.02-82.03 4.34-9.69-.12-31.23 16.13-35.76 2.99.51-10.07 28.15-10.01 36.4-13.32 12.66-4.17 25.7-2.74 38.49-5.74z" fill="#95608f"/><path d="m112.73 380.33c-44.59-15.98-64.52 21-13.68 22.53 13.56.37 26.44-3.56 39.97-4.18 13.13-.6 71.17 10.71 73.37-4.78 3.91-11.64-64.74-14.22-73.89-12.46-8.5 1.4-17.52.58-25.77-1.11z" fill="#95608f"/><g opacity=".1"><path d="m191.43 126.8c-4.38-.99-8.71-.67-13.01.31 3.33 2.71 6.68 5.34 9.12 8.67 1.55 2.11.31 5.14-2.26 5.6-11.75 2.13-23.41 3.25-34.25 7.15 15.21-.77 30.46-1.06 45.65-1.32 20.95-.34 6.17-18.72-5.25-20.41z"/><path d="m184.37 383.11c4.32 2.34 7.04 4.51 3.74 7.34-6.61 4.96-14.06 8.32-21.98 10.42 20.71 1.88 44.87 2.92 46.28-6.97 1.79-5.37-11.89-8.82-28.04-10.79z"/><path d="m184.62 144.66c8.5 27.82-20.4 54.08-34.51 78.78-2.92 5.85-5.83 11.7-8.36 17.75 2.16.36 4.45-.3 6.09-1.98 48.88-52.93 59.23-96.65 59.23-96.65z"/><path d="m191.98 393.43c8.58 15.42 2.56 31.75-7.92 46.48 3.72-.27 7.47-.61 11.28-1.07 11.51-.53 16.72-35.32 17.05-44.94z"/></g><path d="m126.44 208.19c1.05-1.32 3.23-1.42 4.82-.55 1.56.84 2.64 2.33 3.67 3.77.58.81 1.16 1.63 1.74 2.44 1.05 1.46 1.92 3.11.75 4.83-2.03 2.98-6.73 1.09-8.56-1.08-1.55-1.84-3.23-5.32-3.04-7.77.06-.68.28-1.22.62-1.64z" fill="#fff"/><path d="m108.77 168c-1.3-2.28-3.46-5-4.84-3.97-.55.42-.72 1.35-.79 2.27-.46 5.87 2.12 12.9 5.64 18.58 3.41 5.51 7.6 9.93 11.67 14.46 3.16 3.51 5.75 8.13 6.16 2.59.53-7.32-14-27.2-17.84-33.93z" fill="#fff"/><path d="m82.95 405.19c1.16.76 1.93 2.02 1.91 3.47-.02 1.41-1.07 2.91-2.53 3.13-.99.15-1.93-.28-2.8-.7-1.69-.81-3.66-2.12-3.29-3.95.43-2.09 2.68-2.92 4.63-2.7.76.09 1.47.35 2.08.75z" fill="#fff"/><path d="m118.04 430.34c1.02.5 2.17 1.15 2.39 2.27.33 1.71-1.66 2.84-3.32 3.25-7.39 1.79-15.41.29-22.12-3.44-3.35-1.86-17.37-18.16-10.66-17.41 4.61.51 12.05 8.21 16.34 10.17 5.79 2.65 11.63 2.38 17.37 5.16z" fill="#fff"/></svg>