<svg enable-background="new 0 0 398.1 475.38" viewBox="0 0 398.1 475.38" xmlns="http://www.w3.org/2000/svg"><path d="m397.83 183.6c.32 11.76-6.67 23.42-17.2 28.66-7.37 3.67-15.83 4.27-24.03 5.06-31.89 3.07-41.13 23.04-72.46 26.98-7.72.97-54.68.26-62.45 0-41.56 0-65.72-8.89-107.09-12.9-6.62-.64-13.35-1.39-19.48-3.99-10.72-4.54-18.75-12.66-30.21-15.63-13.01-3.37-23.23-4.42-33.27-14.97-8.28-8.69-14.33-20.76-23.76-27.38 0 0 27.6-17.99 171.73-1.17 72.22 8.43 145.42 15.77 218.21 15.25.01.03.01.06.01.09z" fill="#ed859e"/><path d="m230.14 220.14c.13 1.47.58 2.57.62 4.04.56 21.9 7.01 38.6 8.41 55.19 2.17 25.7-2.89 44.56-4.17 70.24-.32 6.36-.74 12.78.62 19.09 1.62 7.51 5.69 14.63 8.23 22.01 6.17 17.98-13.32 47.77 1.62 62.71 2.66 2.66 5.91 5.21 6.81 8.45 1.85 6.68-7.16 13.68-16.19 13.51-31.02-.6-27.36-4.35-49.79-5.89-8.37-.57-16.76.75-25.13.11-76.66-5.77-36.12-7.47-29.81-64.7 1.89-17.16 2.84-24 4.38-35.44 1.55-11.44 7.29-26.74 6.45-46.51-.75-17.62-3.97-35.33-1.42-52.8 1.43-9.86 8.51-35.39 10.21-45.2 1.17-6.75-1.38-13.77-1.28-20.63 0 0 9.74-5.41 23.5-5.11s33.37 7.49 40.69 11.5c7.31 4 16.25 9.43 16.25 9.43z" fill="#fac87d"/><path d="m125.87 75.49c-35.46 31.13-72.97 45.41-111.15 70.97 0 0-11.07 10.06-12.76 12.63-8.2 12.48 11.54 9.53 18.07 9.8 30.7 1.28 50.23 27.2 78.37 34.5 31.36 8.14 64.37-7.14 95.44 4.02 15.13 5.44 29.91 14.87 46.6 10.78 12.58-3.08 22.67-11.21 34.47-16.07 36.37-14.98 76.82 4.56 111.82-12.36 15.45-7.47 13-1.22 5.29-18.57-1.24-2.8-5.66-5.64-10.63-8.76-16.2-10.14-31.09-23.24-43.97-39.14l-1.29-1.59c-10.32-12.74-21.91-23.77-34.5-32.82 0 0-10.94-7.87-10.95-7.87-25.63-18.44-44.89-45.44-65.52-69.21-22.19-25.56-35.64-3.92-55.72 11.63-15.16 11.76-28.96 39.24-43.57 52.06z" fill="#95608f"/><path d="m179.64 370.03c11.61 18.06 6.73 41.36.01 60.31-2.02 6.18-5.1 11.16 1.67 15.59 1.85 1.33 4.06 2.92 5.41 4.79 4.13 5.61 6.96 12.72 5.94 19.72-.63-6.71-3.99-12.77-8.42-17.57-2.41-2.55-5.51-3.54-8.16-5.89-5.75-4.9-3.16-12.17-1.13-18.19 6.3-18.97 11.9-39.21 4.68-58.76z" fill="#b5846f"/><path d="m211.62 422.06c-.51 4.53-1.45 8.88-.88 12.87 1.62 10.77 6.62 20.88 7.62 31.88.2 2.27.21 4.6-.21 6.85-3.9-12.89-11.52-24.79-11.33-38.64.2-4.79 2.29-9.05 4.8-12.96z" fill="#b5846f"/><path d="m172.49 387.83c3.4 6.14.99 13.46-.86 19.62-.65 2.01-1.31 3.95-1.99 6.26-2.64-3.98-2.08-9.16-1.16-13.49.81-3.75 2.76-8.76 4.01-12.39z" fill="#b5846f"/><path d="m199.48 235.69c2.84 13.99 1.17 31.48-4.34 44.66-.85-7.59-.4-15 .28-22.51.79-7.5 1.77-14.86 4.06-22.15z" fill="#b5846f"/><path d="m177.56 202.73c3.03 13.67 1.96 30.91-2.81 44.08-1.26-7.42-1.13-14.75-.71-22.17.54-7.42 1.34-14.71 3.52-21.91z" fill="#b5846f"/><path d="m157.57 220.15c2.54 13.28 1.91 27.13-1.29 40.18-.94 4.33-1.87 8.59-2.72 13.08-1.23-4.42-1.37-9.07-1.18-13.58.2-4.51.82-8.99 1.31-13.26.97-8.8 1.61-17.73 3.88-26.42z" fill="#b5846f"/><g fill="#ead9eb"><path d="m233.02 188.51c-6.15 1.38-12.85.6-18.81-1.63-2.7-1.01-5.56-2.65-6.1-5.19-.39-1.83.59-3.69 2.08-4.95 1.48-1.26 3.41-2.02 5.32-2.69 11.08-3.9 23.13-5.73 35.18-5.35.36.01.75.03 1.05.23.63.41.47 1.26.22 1.89-3.14 7.93-9.4 15.55-18.94 17.69z"/><path d="m270.98 161.16c-5.05-3.35-8.48-8.88-8.04-14.38.09-1.06.32-2.12.88-3.04.66-1.07 1.73-1.87 2.68-2.75 1.85-1.7 3.31-3.74 4.26-5.96.77-1.8 1.26-3.79 2.75-5.16 4.62-4.25 18.51-2.65 23.52.7 4.94 3.29 8.9 10.16 8.29 15.55-1.64 14.5-19.98 24.56-34.34 15.04z"/><path d="m177.04 49.58c-.47.45-.93.97-.91 1.59.02.69.63 1.27 1.26 1.7 2.86 1.96 6.71 2.43 10.18 1.87 3.47-.55 6.63-2.02 9.63-3.62.92-.49 1.86-1.03 2.36-1.87.76-1.28.28-2.87-.11-4.32-.44-1.6-.75-3.25-1.51-4.76-2.17-4.3-6.63-4.54-9.66-1.5-3.67 3.69-7.43 7.25-11.24 10.91z"/><path d="m70.63 125.63c-2.17.64-4.73 1.55-5.08 3.6-.4 2.36 2.49 4.14 5.04 4.85 8.46 2.36 17.51.5 25.68-2.18 8.14-2.67 21.97-12.91 8.28-17.72-10.33-3.64-24.87 8.78-33.92 11.45z"/><path d="m204.85 69.71c1.36 3.53.66 7.7-2.21 10.29-.68.61-1.49 1.14-2.43 1.38-1.14.29-2.37.13-3.55-.03-3.35-.45-7.1-1.15-9.02-3.68-2.35-3.1-.71-7.17-1.21-10.84-.23-1.64-.86-3.48.17-4.82.67-.87 1.89-1.26 3.06-1.48 6.36-1.19 13.22 4.04 15.19 9.18z"/><path d="m112.19 165.39c-5.1 3.76-12.72 3.2-19.09 1.2s-12.34-5.24-18.94-6.38c-12.14-2.1-25.8 2.92-36.25-3.22-.93-.55-1.83-1.19-2.46-2.03-2.22-2.95-.08-7.15 3.31-8.77s7.5-1.42 11.38-1.23c18.45.9 36.41-.28 54.73-1.21 6.44-.33 9.37-1.09 12.09 4.62 2.5 5.24-.19 13.65-4.77 17.02z"/><path d="m235.6 158.31c-1.9-.35-4.03-.84-5.03-2.34-4.83-7.24 5.4-17.14 13.22-10.58 2.7 2.27 4.88 6.53 4.46 9.84-.84 6.5-7.19 4.07-12.65 3.08z"/><path d="m266 166.4c-2.59.14-3.32 5.72-3.15 7.45.1.98.35 2 .01 2.92-.27.72-.87 1.3-1.39 1.89-1.21 1.38-3.12 3.85-2.66 5.76 1.53 6.36 10.86-.28 11.85-3.34.86-2.66.89-5.99.13-8.73-.46-1.66-1.46-4.23-3.02-5.33-.67-.46-1.25-.65-1.77-.62z"/><path d="m311.41 168.43c2.24.92 3.8 3.06 3.26 6-.7 3.78-4.42 4.42-8.36 3.52-4.09-.94-7.5-3.1-3.86-6.53 2.41-2.27 5.02-4.61 8.96-2.99z"/></g><g opacity=".1"><path d="m392.03 171.21c-1.24-2.8-5.66-5.64-10.63-8.76-16.2-10.14-31.09-23.24-43.97-39.14l-1.29-1.59c-10.32-12.74-21.91-23.77-34.5-32.82 0 0-10.94-7.87-10.95-7.87-25.63-18.44-44.89-45.44-65.52-69.21-11.61-13.38-22-15.89-36.23-4.78 6.21 1.39 18.95 6.04 22.93 10.03 25 25 32.54 55.18 62.54 73.18 28 18 50 38 70 64 4 5 5 15 5 22 0 7.37-2.89 14.1-5.76 20.91 14.81.3 29.36-.73 43.08-7.36 15.45-7.49 13.01-1.25 5.3-18.59z"/><path d="m252.28 461.87c-.9-3.23-4.15-5.79-6.81-8.45-14.94-14.94 4.55-44.73-1.62-62.71-2.53-7.38-6.61-14.5-8.23-22.01-1.36-6.31-.94-12.73-.62-19.09 1.28-25.67 6.34-44.54 4.17-70.24-1.4-16.59-7.85-33.28-8.41-55.19-.04-1.47-.49-2.57-.62-4.04 0 0-7.78-4.72-14.77-8.61 19.81 45.22 1.33 98.66-4.98 146.41-1 5 0 11 3 15 15 24 19 53 9 79-16.69 4.49-33.8 9.41-48.93 17.64 4.28-.18 8.56-.38 12.83-.09 22.43 1.54 18.77 5.28 49.79 5.89 9.04.17 18.05-6.83 16.2-13.51z"/><path d="m361.4 210.94c-11 4-25-3-35 4-16.35 12.72-32.71 22.13-50.56 29.75 3.86-.08 6.82-.2 8.31-.39 31.33-3.94 40.57-23.91 72.46-26.98 8.2-.79 16.66-1.39 24.03-5.06 8.46-4.22 14.63-12.58 16.56-21.8-11.58 7.88-23.09 15.39-35.8 20.48z"/></g></svg>