<svg enable-background="new 0 0 155.01 219.29" viewBox="0 0 155.01 219.29" xmlns="http://www.w3.org/2000/svg"><path d="m2.12 68.35c3.87 6.51 11.83 14.61 15.7 21.11 1.31 2.2 2.65 4.44 4.58 6.12 1.84 1.6 4.12 2.6 6.35 3.57 4.8 2.09 9.61 4.18 14.41 6.27l50.75 10.97c6.15-1.91 11.49.86 17.89 1.52s12.87 1.58 19.25.69c6.38-.88 21.46.16 23.4-9.24 0 0-.78-19.4-62.37-33.3s-89.96-7.71-89.96-7.71z" fill="#95608f"/><path d="m50.61 107.03 43.31 9.36c6.15-1.91 11.49.86 17.89 1.52s12.87 1.58 19.25.69c3.95-.55 11.26-.36 16.69-2.37-13.88-1.58-14.45.63-28.15-2.58-32.35-7.58-41.87-4.01-68.99-6.62z" opacity=".1"/><path d="m100.02 92.96c-6.53 19.44-13.3 48.13-14.25 68.4-.55 11.68.67 53.87-14.24 57.7-1.69.43-3.48.21-5.19-.12-10.93-2.1-19.96-9.97-31.14-11.09-29.77-2.97-38.98-10.59-22.96-36.01 7.01-11.13 11.08-25.89 18.2-36.95 5.23-8.11 9.03-17.04 12.8-25.92 4.34-10.21 1.97-8.6 6.31-18.81 0 0 12.35-3.99 22.11-3.86s28.36 6.66 28.36 6.66z" fill="#fac87d"/><path d="m90.22 89.87c.14 21.55-12.03 41.67-18.41 62.62-3 7 4 11 4 17 2 14 0 30-10 39-6 6-16-3-24 0-.29.17-.59.34-.88.52 8.69 2.56 16.4 8.2 25.4 9.93 1.71.33 3.5.56 5.19.12 14.91-3.83 13.69-46.02 14.24-57.7.95-20.27 7.72-48.96 14.25-68.4.01 0-4.26-1.51-9.79-3.09z" opacity=".1"/><path d="m106.51 3.6c6.64 2.58 13.13 18.22 18.07 23.38 10.71 11.17 19.29 25.26 22 40.4 4.35 24.36 10 38.43 8.03 42.04-.9 1.64-9.2-5.99-14.39-7.46-13.79-3.89-26.07-7.98-40.19-9-9.15-.66-22.06 1.8-31.17 1.94-18.86.29-30.13-15.12-47-20.69-8.72-2.87-22.35-1.03-21.85-12.21.7-15.63 35.31-31.22 47.18-39.2 23.33-15.71 32.57-29.6 59.32-19.2z" fill="#ed859e"/><path d="m146.58 67.37c-2.7-15.13-11.29-29.23-22-40.4-4.94-5.15-11.43-20.79-18.07-23.38-5.65-2.2-10.52-3.3-14.91-3.54 4.18 2.49 7.35 6.02 10.07 10.01 14.28 19.96 22.52 39.99 33.79 59.98 5.28 9.03 4.72 20.22 3.71 31.61.35.1.7.2 1.06.3 5.19 1.46 13.49 9.1 14.39 7.46 1.96-3.61-3.69-17.67-8.04-42.04z" opacity=".1"/><g fill="#b5846f" opacity=".6"><path d="m54.29 197.25c3.69-9.3 3.32-19.04 7.84-28.05 2.67 8.97 1.47 23.35-7.84 28.05z"/><path d="m50.82 107.28c2.56 10.23-2.85 19.97-9.45 27.44-.43-5.07 1.72-9.83 3.46-14.31 1.91-4.48 3.43-8.79 5.99-13.13z"/><path d="m75.02 95.51c-.62 5.58-4.44 10.7-7.09 15.48-2.86 4.61-3.49 9.79-5.06 15.04-1.01 3.64-2.31 7.37-4.46 10.63.44-7.77.25-15.18 2.61-22.69.58-1.94 1.77-3.92 2.93-5.55 3.3-4.74 7.58-8.35 11.07-12.91z"/></g><g fill="#ead9eb"><path d="m112.81 71.54c-1.89 1.24-3.4 3.8-2.17 5.7.92 1.42 2.86 1.69 4.55 1.75 7.52.26 17.25-2.35 12.59-12.14-1.15-2.42-2.85-4.17-5.59-3.09-1.87.74-2.51 3.2-3.9 4.48-1.61 1.47-3.68 2.11-5.48 3.3z"/><path d="m39.44 41.42c-.05-3.07-5.15-2-6.91-1.4-.65.22-1.34.71-1.9 1.1-2.52 1.79.14 2.96 2.02 3.3 2.21.4 6.61.24 6.79-2.78 0-.07 0-.14 0-.22z"/><path d="m32.35 53.2c2.66 1.97 1.24 7.7-1.86 8.97-5.74.61-14.59 2.49-14.02-5.48-.37-4.15 5.84-6.67 10.31-5.74z"/><path d="m42.74 58.72c-.76 2.27-1.15 4.84-2.92 6.45-1.34 1.22-3.57 2.23-3.21 4.01.15.73.74 1.28 1.3 1.77 1.13.99 2.34 2.03 3.83 2.26 1.75.27 3.45-.64 4.98-1.53 2.59-1.51 5.24-3.15 6.86-5.67 7.24-11.22-5.68-22.63-10.84-7.29z"/><path d="m128.3 83.29c-1.34.35-2.51 1.39-2.89 2.72-.12.41-.16.85-.07 1.27.28 1.3 1.68 2.02 2.98 2.34 1.69.42 2.8-.09 4.38-.55 1.1-.32 1.86-.57 1.8-1.91-.15-2.86-3.72-4.52-6.2-3.87z"/><path d="m93.04 9.64c-1.8-1.54-5.26-1.22-7.42-.48-2.66.91-4.98 3.19-5.28 5.98s1.98 5.79 4.79 5.67c1.85-.08 3.43-1.35 4.74-2.66 1.53-1.52 4.55-3.66 4.32-6.14-.1-1.07-.52-1.83-1.15-2.37z"/></g></svg>