<svg enable-background="new 0 0 345.51 193.66" viewBox="0 0 345.51 193.66" xmlns="http://www.w3.org/2000/svg"><path d="m295.07 106.05c-18.34-9.06-35.83-20.41-50.22-30.19-27.78-18.89-56.38-26.73-88.98-20.79-30.26 5.51-56.92 16.96-83.54 33.07-3.77 2.28-9.57 5.04-16.44 7.92-5.49 8.23-11.89 21.88-5.51 39.75 8.77 7.09 17.05 14.84 24.86 21.32 27.53 22.88 61.48 35.74 95.47 36.5 33.06.74 64.65-13.17 93.12-31.35 10.31-6.58 21.26-14.75 32.67-22 1.68-8.82 3.25-21.18-1.43-34.23z" fill="#ead9eb"/><path d="m263.21 88.85c-8.4 30.83-19.12 53.46-44.67 68.77-3.94 2.36-8.03 4.41-12.21 6.13-1.84.75-3.69 1.44-5.56 2.07-55.39 18.42-105.16-24.18-114.18-84.92l8.13-17.66 83.12-20.66 57.61 11.1 21.75 25.96z" fill="#fac87d"/><path d="m155.87 55.06c-12.6 2.3-24.58 5.64-36.19 9.9-5.37 18.65-4.61 39.29 5.38 56.48 24.06 41.39 91.68 36 107.08-16.5.52-1.78.97-3.56 1.34-5.35 2.18-10.46 1.83-21.03-.42-31.03-24.12-13.51-49.18-18.6-77.19-13.5z" fill="#95608f"/><path d="m197.46 108.83c1.5-.02 3.14.89 4.68 2.18 2.36-5.54 2.88-11.64 1.92-17.57-6.33 2.55-14.7-.58-17.82-7.62-2.99-6.75-1.71-11.75 1.49-14.77.73-.68 1.52-1.24 2.36-1.7-14.1-11.19-29.62-5.59-37.78 7.54-21.54 34.64 19 70.08 44.64 42.18.27-.29.52-.59.77-.89-3.88-3.97-6.19-9.26-.26-9.35z" fill="#ed859e"/><path d="m190.09 69.34c-.84.46-1.64 1.02-2.36 1.7-3.21 3.02-4.49 8.02-1.49 14.77 3.12 7.04 11.49 10.17 17.82 7.62 2.73-1.1 5.09-3.24 6.47-6.6 5.69-13.83-10.64-22.91-20.44-17.49z" fill="#fff"/><path d="m207.11 116.73c-1.08-1.68-2.93-4.02-4.96-5.72-1.54-1.28-3.18-2.2-4.68-2.18-5.93.09-3.63 5.38.26 9.34 2.43 2.48 5.48 4.44 7.52 4.27 3.94-.33 3.66-2.92 1.86-5.71z" fill="#fff"/><path d="m340.11 122.18c-2.36-.5-4.65-1.19-6.88-2.01-12.65-2.78-25.6-7.92-38.16-14.12 4.67 13.05 3.11 25.42 1.43 34.23 15.59-9.91 32.06-18.09 49-18.09.01-.01-5.39-.01-5.39-.01z" fill="#95608f"/><path d="m55.9 96.05c-15.45 6.47-36.33 13.54-51.87 17.16-1.37.32-2.77.77-4.03 1.3 8.11-3.39 17.51 1.66 24.83 4.84 4.58 1.99 8.92 4.49 13.08 7.22 2.74 1.8 11.37 6.14 12.48 9.23-6.39-17.87.02-31.52 5.51-39.75z" fill="#95608f"/><path d="m94.45 152.29c-3.72-3.46-20.9-15.88-14.41-22.73 4.18-4.42 13.26 6.48 15.14 9.92 5.57 10.25 11.12 15.97 20.38 22.98.71.54 1.22.96 1.35 1.85-1.42.8-2.63.46-4.29.11-6.68-1.42-14.64-8.85-18.17-12.13z" fill="#fff"/><path d="m69.11 126.42c-1.18-.64-2.15-1.74-2.66-3.36-.88-2.79-1.79-9.53.97-12.13 10.37-9.8 15.91 23.17 1.69 15.49z" fill="#fff"/><path d="m155.87 55.06c32.6-5.94 61.21 1.9 88.98 20.79 24.24 16.48 57.26 37.47 88.37 44.32-29.49-10.89-48.05-48.46-67.74-73.13-24.05-30.18-56.75-47.37-92.34-47.04-35.42.33-74.36 21.4-100.81 47.82-20.16 20.13-41.49 54.58-68.3 65.39 22.44-5.23 56.04-17.66 68.3-25.08 26.63-16.11 53.28-27.56 83.54-33.07z" fill="#ed859e"/><path d="m246.23 45.12c32.75 33.98 25.69 40.75 68.57 69.53 6.16 2.29 12.33 4.18 18.43 5.52-29.49-10.89-48.05-48.46-67.74-73.13-24.06-30.18-56.76-47.37-92.35-47.04-10.16.1-20.62 1.9-30.98 5.05 34.32-1.02 78.38 13.41 104.07 40.07z" opacity=".1"/></svg>