<svg enable-background="new 0 0 372.69 394.81" viewBox="0 0 372.69 394.81" xmlns="http://www.w3.org/2000/svg"><path d="m315.57 219.15c-6.73 8.63-4.82 18.44-6.82 31.11-2.37 15.08-5.09 30.75-11.24 44.81-11.26 25.75-51.09 82.11-82.75 87.61 0 0-20.87 12.64-38.81 12.11s-26.96-14.24-26.96-14.24-20.94-2.91-31.75-17.21c-10.82-14.3-41.48-58.77-48.76-84.28-4.78-16.76-7.18-34.08-6.81-51.51.14-6.65 2.94-15.92.5-22.18-4.09-10.5-16.52-16.47-21.9-26.72-7.58-14.43-10.43-29.78-15.01-45.21-4.25-14.33-11.87-27.47-16.14-41.84-4.4-14.86-11.14-34.53-8.54-50.28 2.34-14.11 1-49.08 26.15-39.76s107.5 122.37 107.5 122.37 12.54-4.62 16.13-2.84 5.03 1.94 16.87 2.71 11.57-1.46 29.64-.12 16.13-2.88 29.36 1.87c13.24 4.75 16.87-.07 16.87-.07 4.91-6.35 9.84-12.69 14.78-19.02 6.26-8.03 12.55-16.05 18.86-24.04 5.64-7.14 11.3-14.27 16.99-21.37 9.49-11.85 18.12-25.22 29.93-34.97 7.73-6.38 21.37-17.65 32.2-14.61 10.49 2.95 23.94 24.01 12.38 77.77-5.11 23.79-9.2 47.94-17.03 71.05-7.98 23.52-20.62 39.59-35.64 58.86z" fill="#ed859e"/><path d="m221.21 267.41c8.3-8.78 15.33-19.04 25.42-25.68 10.87-7.15 24.84-9.38 37.39-5.96-.28 5.75-3.04 20.07-5.66 25.2-5.03 9.82-16.04 15.44-26.98 16.85s-30.17-10.41-30.17-10.41z" fill="#fff"/><path d="m252.63 265.7s-6.57-6.31-6.6-14.12c-.02-5.52 4.76-10.32 5.77-12.66.4-.19.8-.38 1.2-.55.97 2.05 6.1 7.16 6.12 13.16.03 7.81-6.49 14.17-6.49 14.17z" fill="#95608f"/><path d="m145.07 263.53c-8.39-8.69-15.53-18.87-25.7-25.4-10.94-7.03-24.94-9.1-37.45-5.55.34 5.74 3.26 20.04 5.93 25.13 5.13 9.77 16.21 15.26 27.17 16.55s30.05-10.73 30.05-10.73z" fill="#fff"/><path d="m113.55 262.05s6.52-6.36 6.49-14.17c-.02-5.52-4.84-10.28-5.87-12.61-.4-.19-.8-.37-1.21-.54-.95 2.06-6.04 7.21-6.02 13.21.04 7.8 6.61 14.11 6.61 14.11z" fill="#95608f"/><path d="m147.78 217.03s15.27 19.31 33.94 19.18 33.67-19.65 33.67-19.65-15.27-19.31-33.94-19.18c-18.67.12-33.67 19.65-33.67 19.65z" fill="#fff"/><g fill="#95608f"><path d="m180.4 228.21s-6.33-7.7-6.37-17.23c-.02-5.48 3.4-10.37 4.59-13.54.97-.11 1.96-.18 2.95-.18.1 0 .2.01.3.01 1.22 3.15 4.74 8.08 4.76 13.66.03 9.53-6.23 17.28-6.23 17.28z"/><path d="m132.75 330.92c-17.59-.58-35-2.08-52.5-3.4-17.5-1.44-34.92-2.69-52.38-4.89 17.56-1.78 35.22-1.42 52.78-.09 17.54 1.45 35.04 3.88 52.1 8.38z"/><path d="m127.45 345.2c-18.52.05-36.87.11-55.31 1.3-18.44 1.06-36.66 3.22-55.06 5.41 35.16-11.69 74.06-14.02 110.37-6.71z"/><path d="m135.69 361.42c-16.3 3.19-32.75 4.91-49.04 7.72-16.32 2.7-32.19 6.43-47.92 11.76 28.38-17.53 64.3-20.56 96.96-19.48z"/><path d="m216.48 331c38.92-22.67 85.82-11.08 128-6.94-42.71 2.9-86.81-9.04-128 6.94z"/><path d="m224.19 345.03c41.41-7.76 81.14-3.69 119.7 13.48-19.75-4.29-39.28-9.1-59.33-11.24-20.03-2.26-40.16-1.87-60.37-2.24z"/><path d="m208.06 356.36c35.08 1.06 70.63 13.03 99.17 33.47-16.13-6.95-32.15-13.65-48.76-19.19-16.55-5.66-33.36-10.05-50.41-14.28z"/><path d="m211.8 268.83c.27 1.25 1.01 1.84 1.79 2.31 1.7.99 3.74 1.39 5.62 2.01 5.34 1.81 10.37 3.86 14.92 7.42-4.7.84-9.26-.06-13.61-1.67-3.32-1.41-6.96-2.85-8.81-6.2-.66-1.2-.77-2.92.09-3.87z"/><path d="m223.32 220.96c-1.96 5.73-6.75 10.11-12.65 11.49 1.01-6.13 6.46-11.06 12.65-11.49z"/><path d="m129.93 278.32c3.42-1.83 8.54-4.49 11.71-6.56 3.87-2.42 7.1-4.98 10.94-7.78-1.39 9.96-13.06 17.32-22.65 14.34z"/><path d="m223.68 142.76c-.05 1.03.29 2.01.98 2.78.69.76 1.63 1.22 2.66 1.27s2.01-.29 2.78-.98c.76-.69 1.22-1.63 1.27-2.66.07-1.32-.53-2.52-1.51-3.26-.6-.46-1.33-.74-2.14-.79-2.12-.12-3.93 1.52-4.04 3.64z"/><path d="m207.03 148.14c-.09 1.69 1.21 3.13 2.9 3.22s3.13-1.21 3.22-2.9c.05-1.05-.43-2-1.2-2.6-.47-.36-1.06-.59-1.7-.63-1.68-.08-3.13 1.22-3.22 2.91z"/><path d="m143.61 333.07c-.41.17-.88.18-1.33.02s-.83-.47-1.06-.87-.29-.85-.16-1.25c.13-.41.42-.72.83-.9.52-.22 1.13-.16 1.63.12.31.17.57.42.75.74.48.82.18 1.79-.66 2.14z"/><path d="m157.02 353.96c-1.01-.49-1.44-1.7-.95-2.71.23-.49.65-.86 1.16-1.04s1.06-.15 1.55.09c.04.02.07.04.11.06.43.24.76.63.93 1.1.18.51.15 1.06-.09 1.55-.49 1.01-1.7 1.43-2.71.95z"/><path d="m151.8 364.53c-.38.13-.79.11-1.15-.06s-.64-.48-.77-.86-.11-.79.06-1.15.48-.64.86-.77.79-.11 1.15.06c.03.01.06.03.08.04.32.18.56.47.69.82.13.38.11.79-.06 1.15-.17.37-.48.64-.86.77z"/><path d="m124.91 348.49c.96-.13 1.85.56 1.97 1.52s-.56 1.85-1.52 1.97c-.6.08-1.16-.16-1.54-.57-.23-.26-.39-.58-.43-.95-.12-.96.56-1.85 1.52-1.97z"/><path d="m222.15 338.11c.76.61 1.88.48 2.49-.28s.48-1.88-.28-2.49c-.47-.38-1.08-.47-1.62-.31-.33.1-.63.3-.86.59-.62.77-.49 1.88.27 2.49z"/><path d="m237.23 336.51c-.56-.8-1.66-1-2.46-.45-.8.56-1 1.66-.45 2.46.34.5.9.76 1.47.76.35 0 .69-.1 1-.31.79-.55.99-1.66.44-2.46z"/><path d="m192.11 351.88c-.64.74-.56 1.86.18 2.5s1.86.56 2.5-.18c.4-.46.52-1.06.37-1.61-.09-.33-.27-.65-.55-.89-.74-.63-1.86-.55-2.5.18z"/><path d="m215.54 370.87c1.1-.27 1.77-1.37 1.51-2.46-.13-.53-.45-.98-.92-1.26-.46-.28-1.01-.37-1.54-.24-.04.01-.08.02-.12.03-.48.15-.88.46-1.14.89-.28.46-.37 1.01-.24 1.54.25 1.09 1.36 1.77 2.45 1.5z"/><path d="m233.4 355.94c.34.21.75.28 1.14.18.39-.09.73-.34.94-.68s.28-.75.18-1.14c-.09-.39-.34-.73-.68-.94s-.75-.28-1.14-.18c-.03.01-.06.02-.09.02-.35.11-.65.34-.85.66-.21.35-.28.75-.18 1.14.09.4.34.73.68.94z"/><path d="m172.24 325.53c-5.77-.4-12.91-4.21-17.19-.78-1.82 1.46-5.35 8.58-1.23 11.55 1.89 1.37 6.45 2.15 8.76 2.48 7.33 1.05 2.28 9.74 6.62 12.11 2.85 1.56 6.74 2.11 13.15-.05 3.17-1.07 2.15-7.17 4.05-9.63 4.29-5.52 15.41 2.47 15.46-9.53.02-4.99-6.08-6.98-10.32-7.07-4.35-.09-8.67.84-13 1.09-1.94.11-4.08-.02-6.3-.17z"/></g><g opacity=".1"><path d="m291.63 175.98c-3.84-3.34-15.65-13.52-17.91-27.13-4.13 1.05-13.96-5.94-13.96-5.94-2.35-9.88 12.45-15.75 17.84-24.35s5.99-9.43 8.31-19.31c.83-3.54 1.11-7.26 2.66-10.56 1.33-2.84 3.53-5.18 5.73-7.42 5.12-5.21 10.6-10.19 16.37-14.93 0 0-13.02 24.18-15.01 36.12-1.78 10.67-14.54 17.12-15.41 28.49-.65 8.45 3.16 13.73 3.16 13.73-4 5.24 8.22 31.3 8.22 31.3z"/><path d="m78.55 178.08c4.91-6.31 9.07-13.64 6.93-21.07 4.6-.48 14.47-11.37 19.06-11.85-2.19-12.34-9.65-14.28-11.84-26.62-.56-3.16-1.13-6.35-2.4-9.3-1.3-3.01-3.28-5.67-5.28-8.27-7.26-9.46-14.91-18.61-22.93-27.43 0 0 15.46 30.34 18.79 51.51s5.44 21.47 2.23 22.45c-3.21.97-.45 2.23-1.32 12.42-.87 10.17-3.24 18.16-3.24 18.16z"/><path d="m249.45 351.88c2.78-3.46 3.68-8.14 3.37-12.58-.31-4.43-1.71-8.71-3.1-12.93 15.38-3.52 29.2-13.37 37.56-26.74 0 0-7.67 28.68-25.43 33.31 0 0 2.49 4.62-7.04 12.69z"/><path d="m111.32 339.26c-1.23-6.52-.3-13.42 2.6-19.39-13.62-3.72-23.93-14.85-31.76-26.6 0 0 7.92 29.12 22.43 29.06 0 0-.31 2.74.66 6.75.95 3.91 3.11 7.44 6.07 10.18z"/><path d="m200.53 377.97c-10.07-.23-21.19-5.85-25.5-14.96-2.46 6.62-12.02 11.9-19.08 11.88 0 0 8.84 10.87 18.95 3.81 0 0 .28.19.79.48 7.57 4.4 17.01 4.01 24.3-.86z"/><path d="m72.27 64.62c40.09 44.68 27.38 50.04 55.7 63.62 2 1 5-1 5-1 .93-1.4 1.26-3.32 1.26-3.32s-82.35-113.05-107.5-122.36c-.91-.34-1.78-.61-2.63-.84 8.3 7.88 40.94 55.85 48.17 63.9z"/><path d="m355.87 11.46c-2.51-.71-5.17-.64-7.87-.04 18.81 28.14 17.74 64.95 7.97 97.82-8 29-16 58-30 85-3 7-11 14-9 23 .01.03.02.06.03.08 14.39-18.47 26.5-34.27 34.23-57.05 7.84-23.11 11.92-47.25 17.03-71.05 11.55-53.75-1.91-74.81-12.39-77.76z"/></g></svg>