<svg enable-background="new 0 0 165.72 351.11" viewBox="0 0 165.72 351.11" xmlns="http://www.w3.org/2000/svg"><path d="m165.66 101.33c.83 9.03-8.51 18.87-12.42 20.99-1.99 1.08-4.23 1.71-6.27 2.71-1.96.96-3.74 2.27-5.84 2.96-6.81 2.25-15.4-2.37-21.19 1.64-1.33.93-2.31 2.21-3.39 3.39-2.48 2.71-3.7 4.78-7.17 6.29l-35.19 9.67c-7.05-6.24-25.79-.41-33.38 2.11-5.96 1.98-9.47-.09-15.09-1.66-3.78-1.06-7.92-.84-11.59-2.24-4.22-1.61-7.57-4.65-10.17-8.07l24.11-14.15 61.6-11.53 26.27-16.09z" fill="#95608f"/><path d="m140.65 113.26c-2 1-12.65.91-14.65 1.91-7 3-13.69 4.46-16.69 9.46-5.37 10.75-14.83 12.68-22.84 20.98l22.92-6.3c3.47-1.52 4.69-3.58 7.17-6.29 1.08-1.18 2.06-2.46 3.39-3.39 5.79-4.01 14.38.61 21.19-1.64 2.09-.69 3.87-2 5.84-2.96 2.04-1 4.28-1.63 6.27-2.71 2.62-1.42 7.68-6.31 10.48-12.09-10.76.15-12.09.59-23.08 3.03z" opacity=".1"/><path d="m100.94 108.06c6.51 23.03 7.01 38.28 10.35 59.86 2.67 17.24 12.8 37.87 17.44 54.16 3.57 12.53 7.03 25.1 11.32 37.23 10.21 28.89 16.99 28.33 22.64 55.56 4.36 21.04-6.44 26.9-29.12 34.39-7.3 2.41-19.66 1.79-19.66 1.79-17.6-5.57-27.83-16.42-29.05-30.35-1.49-16.95-3.04-54.39-1.96-71.42 2.85-44.51-10.38-90.86-18.96-131.98l17.72-7.85z" fill="#fac87d"/><path d="m162.67 314.86c-5.65-27.23-12.42-26.66-22.64-55.56-4.29-12.13-7.75-24.7-11.32-37.23-4.64-16.29-14.77-36.92-17.44-54.16-3.34-21.58-3.83-36.83-10.35-59.86l-11.06.79c1.65 6.14 2.39 12.56 4.12 18.33 2 5 2 11 3 17 5 28 13 53 17 81 1 5 12.49 18.6 14.49 25.6 8 27 8.51 44.4 17.51 70.4.93 2.18 1.57 4.54 1.83 6.9.29 2.62.6 5.23.97 7.83.36 2.48.48 4.97.28 7.39 11.84-5.73 16.82-13 13.61-28.43z" opacity=".1"/><g fill="#b5846f" opacity=".6"><path d="m128.49 330.26c-9.87-6.49-11.24-22.9-8.88-33.52 4.84 10.84 4.68 22.46 8.88 33.52z"/><path d="m104.89 319.37c-6.67-9.28-9.08-23.23-5.83-34.2 2.1 5.59 3.13 11.13 4.16 16.89.93 5.77 1.79 11.34 1.67 17.31z"/><path d="m77.97 115.11c2.58 4.99 2.24 11.37 2.68 16.82.18 5.42 2.52 10.08 4.13 15.32 1.18 3.58 2.17 7.42 2.18 11.32-3.94-6.71-8.21-12.77-10.41-20.33-.59-1.93-.7-4.24-.63-6.24.12-5.79 1.68-11.16 2.05-16.89z"/></g><path d="m15.56 61.41c-1.44 18.68-18.41 41.29-15.14 68.65 1.58 13.23 10.43 14.2 21.57 8.78 14.93-7.26 28.17-14.5 45.86-14.14 5.61.12 18.49 5.36 28.27-2.18 10.42-8.03 12.48-15.92 18.24-17.5 8.84-2.42 16.64 2.84 25.78 4.27 8.77 1.37 21.88 9.8 25.14-3.01 2.14-8.4-4.08-17.93-8.68-24.68-11.12-16.31-26.98-28.66-39.55-43.81-19.3-23.29-19.02-31.72-47.89-36.79-40.14-7.04-50.79 24.01-53.6 60.41z" fill="#ed859e"/><path d="m156.61 81.59c-11.12-16.31-26.98-28.66-39.55-43.81-19.31-23.28-19.03-31.71-47.9-36.78-7-1.23-13.08-1.28-18.4-.36 16.43 5.32 32.01 12.12 43.18 25.43 9.32 10.86 11.71 26.92 21.99 35.75 16.8 14.8 36.37 29.14 48.33 47.26.41-.8.76-1.72 1.04-2.8 2.13-8.41-4.09-17.94-8.69-24.69z" opacity=".1"/><g fill="#ead9eb"><path d="m15.46 92.5c-3.98 6.54-5.2 32.1 6.16 27.04 9.74-4.35 11.4-15.33 7.72-21.68-1.57-2.72-9.62-12.36-13.88-5.36z"/><path d="m36.04 87.41c6.74-3.95 17.13 3.36 9.38 10.11-2.21 1.92-5.65 2.12-8.13.47-2.66-1.78-4.62-6.58-2.52-9.44.36-.48.78-.85 1.27-1.14z"/><path d="m47.5 109.33c6.47-9 17.14-8.09 8.32 3.09-2.52 3.19-7.5 5.87-11.78 6.33-1.99.22-4.59-.01-6.25-1.38-6.92-5.7 8.25-6.02 9.71-8.04z"/><path d="m82.54 23.97c-1.56-2.41-4.8-2.92-7.43-2.63-2.86.31-5.73 3.08-5.15 6.03.4 2.04 2.23 3.4 4.07 4.16 2.34.96 5.16 1.24 7.29-.23 2.26-1.55 2.66-5.11 1.22-7.33z"/><path d="m59.68 16.25c.11.02.22.06.34.1 2.57.94 3.03 7.37 1.53 9.36-2.02 2.68-6.74 1.51-7.67-1.72-.79-2.75 2.65-8.4 5.8-7.74z"/></g></svg>