<svg enable-background="new 0 0 824.89 312.2" viewBox="0 0 824.89 312.2" xmlns="http://www.w3.org/2000/svg"><path d="m417.98 116.49c4.5 12.38 9.64 25 14.17 37.46 1.16 3.18 3.28 9.05 4.36 12.19.26.58 1.16 2.57 2.13 4.48 11.95 23.61 26.04 48.26 29.05 75.77 2.47 22.24-6.42 44.3-27.35 54.92-2.52 1.24-5.22 2.6-7.82 3.65-40.46 16.87-76.99 2.55-102.83-25.05-10.29-10.93-21.36-43.53-22.56-58.47-2.22-27.48-1.18-55.23 3.08-82.47 3.15-20.14 8.07-40.17 7.95-60.56-.13-20.39-10.32-42.41-25.49-56.03 48.44 17.97 54.45 89.63 58.79 133.62 1.25 13.88 1.97 27.87 3.43 41.12.18 1.3.32 2.56.66 3.89 3.34 14.03 11.85 29.42 22 39.47 8.8 8.79 18.31 12.6 29.26 8.9-.01-.01 43.51-21.73 11.17-132.89z" fill="#fac87d"/><path d="m318.15 78.39c.13 20.39-4.79 40.42-7.95 60.56-4.26 27.24-5.3 54.99-3.08 82.47 1.2 14.94 12.27 47.54 22.56 58.47-16.63-17.76-28.83-41.01-34.81-64.99-1.92-8.07-2.65-17.56-3.37-25.38-2.33-26.85-4-53.73-9.96-79.57-2.43-9.97-5.52-20.67-10.35-27.26-1.45.59-3.45 1.56-5.2 2.58-.25.86-.57 2.16-.8 3.74-2.18 19.42 1.75 40.53 4.58 60.64 5.24 38.85 19.23 97.06-2.1 132.64-11.66 19.92-33.65 29.68-56.15 28.28-26.1-.94-44.81-19.39-55.44-41.01-10.95-22.16-17.5-46.31-24.42-68.63-2.68-9.22-5.78-11.85-8.04-18.44-.15-.42-.29-.82-.41-1.21-3.4 1.97-6.15 2.56-10.21 3.72-16.61 4.02-32.97.13-47.86-5.28-4.96-1.8-9.8-4.02-14.48-6.58-22.76-14.21-62.78-40.43-47.12-59.74 26.59-33.34 92.01-32.02 127.02-.9 3.15 3.14 5.8 6.51 7.89 10.06s3.64 7.27 4.59 11.12c3.04.89 5.98 2.05 8.71 3.45 11.01 5.46 20.73 15.31 27.28 24.79 14.82 20.72 21.36 46.13 29.73 68.48 1.62 4.14 3.52 8.65 5.72 12.44.26-1.94.43-3.99.56-5.85.64-35.72-8.58-70.21-12.27-107.05-3.42-31.89-5.43-74.04 25.09-95.51 16.68-11.61 39.42-19.6 60.35-13.55 1.53.44 3.01.93 4.46 1.47 15.16 13.63 25.35 35.65 25.48 56.04z" fill="#ed859e"/><path d="m732.74 145.98c-18.54-4.78-22.11-17.19-37.34-23.7-11.22-5.07-24.04-7.93-36.34-7.29-11.2.46-21.31 3.09-31.34 5.14-1.58.33-3.14.63-4.69.92 1.76-9.3 2.87-18.78 2.8-28.41-.02-29.82-18.26-63.8-50.8-67.56-30.92-3.98-48.04 24.07-55.4 51.27-1.77 6.47-2.94 13.34-2.68 21.3.11 3.11 2.17 34.39 8.09 44.24 7.51 12.47 16.17 14.64 29.46 19.51 1 .39 2.01.76 3.02 1.11-6.19 13.78-17.99 27.95-29.6 36.05-.52.34-1.02.66-1.52.95-1.27-4.52-2.1-9.55-3.34-13.91-4.88-19.34-11.53-37.77-15.51-56.74-4.11-22.53-5.29-45.33-12.47-68.43-5.96-19.56-16.22-39.06-34.87-50.6-18.44-11.39-43.24-13.43-62.24-3.29-9.61 4.91-18.11 12.87-24.7 19.36-36.56 35.56-22.3 80.94-6.9 122.09 4.94 13.34 9.56 25.86 13.97 39.02 5.62 14.08 13.72 27.59 19.21 40.7 2.71 6.54 6.12 14.61 7.25 21.64 0 0 43.52-21.72 11.18-132.88-1.73-4.74-3.37-9.45-4.83-14.1-3.02-10.43-5.28-18.28-3.97-26.82.73-3.98 3.27-6.77 6.13-9.53 2.48-2.44 4.31-4.28 6.11-5.81 3.51-2.98 8.86-2.51 11.74 1.07.03.03.05.06.08.1 3.31 4.17 5.84 10.15 7.69 15.94 2.27 7.04 4.02 15.16 5.53 23.74 2.2 12.1 3.84 26.64 6.74 39.63 3.48 15.46 8.93 31.57 13.43 46.08 1.99 6.43 3.78 12.52 5.35 18.87 1.43 6.12 2.89 11.74 5.47 17.78 5.4 13.27 16.68 25.93 31.53 30.03 39.85 11.03 77.44-32.37 93.45-63.91 2.63-5.34 5.06-10.95 6.98-17.64.35-1.24.84-2.96 1.37-4.79 13.59-1.55 27.04-4.61 39.84-7.99 7.29-1.62 12.67-2.59 19.44-1.44 3.28.53 6.73 1.77 9.88 3.01 18.85 7.29 38.39 11.22 57.47 15.35 10.63 2.34 85.12 4.93 87.45-5.71 2.25-10.34-81.93-21.71-92.12-24.35zm-157.1-53.42c-.26 8.88-1.97 17.79-4.31 26.69-2.56-1.11-5.04-2.46-7.41-4.13-1.69-1.35-2.4-2.36-3.13-3.67-.68-1.34-1.42-3.34-1.98-6.33-.55-2.9-.96-6.51-1.12-9.63-.02-6.46 4.32-15.76 9.1-20.25 1.54-1.45 3.12-1 4.33.59 1.17 1.55 2.05 3.31 2.72 5.12 1.36 3.68 1.95 7.7 1.8 11.61z" fill="#ed859e"/><g fill="#95608f"><path d="m332.41 63.11c-1.18 4.21-.56 9.21-2.05 13.35-1.38 4.27-1.99 8.85-4.18 12.85-.92 1.7-2.47 2.13-4.18 1.27-1.37-.64-2.65-1.41-4.17-1.53 2.72-.42 6.09 3.33 7.69-.12 1.27-2.63 1.92-5.6 2.7-8.43.67-2.88 1.9-5.64 2.33-8.61.49-2.91.67-6 1.86-8.78z"/><path d="m342.98 98.08c-2.22 8.84-5.13 17.48-8.24 26.04-.63 1.59-1.11 3.42-2.37 4.72-1.28 1.33-3.29 1.58-4.94 1.91-3.24.62-6.81 1.34-9.99 2.15-2.21.52-4.4 1.14-6.56 1.85 6.21-2.8 13.09-3.88 19.57-5.7 2.1-.89 2.58-3.3 3.35-5.28 3.22-8.51 6.2-17.09 9.18-25.69z"/><path d="m349.75 139.17c-1.55 4.87-3.2 9.7-4.87 14.53-.82 2.42-1.7 4.81-2.55 7.22-.43 1.2-.92 2.5-1.93 3.5-1.03 1.01-2.39 1.44-3.64 1.75-5.01 1.09-9.98 2.19-14.98 3.23-4.39.89-10.67 2.19-15.03 2.96 4.25-1.14 10.52-2.66 14.87-3.71 4.96-1.19 9.96-2.29 14.91-3.45 1.21-.28 2.39-.67 3.21-1.46.83-.79 1.31-1.95 1.75-3.13 2.64-7.19 5.37-14.34 8.26-21.44z"/><path d="m353.26 179.03c-3.27 12.08-7.9 24.39-12.11 36.16-.07.19-.25.31-.44.32-5.86.22-11.68-.66-17.34-1.89-5.68-1.21-11.27-2.7-16.98-3.73 5.77.63 11.44 1.94 17.12 3 5.68 1.04 11.42 1.94 17.16 1.64l-.44.32c3.71-10.35 9.56-25.52 13.03-35.82z"/><path d="m362.82 220.78c-2.57 10.32-6.92 20.18-12.6 29.17-.1.16-.28.24-.45.22-6.36-.58-12.68-1.54-18.98-2.62-6.28-1.14-12.53-2.43-18.72-3.98 9.42 1.67 18.83 3.28 28.31 4.54 3.16.41 6.32.76 9.48 1.09l-.45.22c5.71-8.89 10.15-18.57 13.41-28.64z"/><path d="m377.54 240.46c-.22 7.1.9 14.12 1.63 21.17.39 3.53.64 7.08.61 10.66-.16 1.43.24 2.9-.64 4.19-.42.48-.97.62-1.39.75l-5.11 1.47c-3.41.95-6.95 1.8-10.55 1.87-10.26-.06-21.66-.95-31.89-1.53 10.19.01 21.69.62 31.86.62 3.51-.09 6.92-.94 10.31-1.92l5.12-1.42c.42-.11.77-.24.94-.45.56-.97.32-2.46.44-3.59.08-3.52-.19-7.04-.46-10.57-.56-7.05-1.51-14.16-.87-21.25z"/><path d="m400.79 250.67c2.09 13.56 15.91 21.2 19.38 34.22 0 0 .21.69.21.69.04 0-.02.43-.06.42-.4.6-.96 1.11-1.45 1.62-3.13 3.07-7.11 6.75-10.19 9.85-8.24 7.81-19.55 12.74-31 12.11 11.38.02 22.25-5 30.38-12.77 3.48-3.6 7.83-7.52 11.32-11.12 0 0 .09-.11.09-.11.05-.07-.01 0-.02.1-.01.06.03.18.01.13-3.16-13.2-17.28-21.28-18.67-35.14z"/><path d="m416.76 240.23c8.8 10 18.65 18.91 29.18 27.02.76.69.78 1.97.35 2.82 0 0-.88 2.33-.88 2.33l-1.76 4.66c-3.37 8.96-7.23 18.97-10.83 27.83 3.62-10.71 7.79-22.22 11.69-32.82l.86-2.34c.32-.79.33-1.28-.17-1.8-.92-.89-2.78-2.18-3.82-3.06-9.09-7.26-17.42-15.5-24.62-24.64z"/><path d="m424.11 227.23c6.24-1.01 12.23-3.41 17.38-7.05 1.72-1.09 3.01-2.69 4.83-3.65 1.46-.56 2.45 1.02 3.28 1.93 3.13 3.67 5.38 7.95 7.41 12.28 5.01 10 6.19 21.34 10.46 31.61-2.83-5.7-4.44-11.91-6.31-17.94-1.75-6.09-4.11-11.93-7.15-17.49-1.83-3.39-3.84-6.86-6.64-9.49-.45-.32-1.06-.02-1.64.47-6.02 5.21-13.7 8.58-21.62 9.33z"/><path d="m429.11 203.91c1.91-3.15 2.72-6.74 4.18-10.15 1.41-3.36 3.35-6.5 4.18-10.05.07-.35.52-.5.79-.27 3.03 2.42 5.74 5.22 8.23 8.18 2.17 2.57 5.09 6.36 7.18 9.04-4.02-4.12-7.62-8.65-11.74-12.67-1.36-1.33-2.8-2.59-4.29-3.77l.79-.27c-.95 3.66-2.89 6.86-4.45 10.12-1.58 3.27-2.63 6.92-4.87 9.84z"/><path d="m429 168.1c1.97-1.95 4.06-3.45 6.54-4.69-1.56 2.28-3.89 3.94-6.54 4.69z"/><path d="m3.75 114.02c1.86.1 3.72.27 5.57.4l1.39.13c.98 0 2.03.63 2.54 1.46 2.39 3.37 5.39 6.32 8.86 8.55.23.15.3.45.15.69-2.73 2.46-6.23 5.1-10.17 4.55-3.69-.54-7.21-1.39-10.83-2.18 3.62.37 7.29 1.06 10.89 1.42 3.71.31 6.7-2.12 9.36-4.44 0 0 .05.8.05.8-3.17-2.07-5.96-4.72-8.11-7.82-.56-.76-.97-1.66-1.62-2.09-.66-.42-1.68-.41-2.58-.58-1.83-.29-3.67-.56-5.5-.89z"/><path d="m12.22 115c3.18-2.26 6.9-3.69 10.65-4.67.2-.1.53-.27.44-.43-.05-.09-.3-.31-.48-.47-2.61-2.45-5.26-5-8.75-6.14 3.99.54 7.25 3.32 10.04 6.05.99 1.93-1.99 2.16-3.17 2.53-3 .79-5.88 1.87-8.73 3.13z"/><path d="m11.26 129.26c2.9 3.34 4.83 7.51 7.5 10.98.2.24.08.62-.21.72-1.17.4-2.26.99-3.38 1.62-1.11.63-2.31 1.21-3.56 1.51 2.35-1.15 4.13-3.07 6.61-4.01 0 0-.2.74-.2.74-2.87-3.48-4.64-7.62-6.76-11.56z"/><path d="m24.5 110.13c3.71-.59 7.55-.33 11.19.62.9.25 1.51.27 2.22-.4 1.35-1.15 5.04-4.2 6.46-5.37l-.03.74c-2.51-2.39-4.31-5.54-5.04-8.91l.32.29c-3.47-.5-6.92-1.18-10.3-2.11 3.46.53 6.92 1.01 10.39 1.36.16.02.28.13.32.27.86 3.19 2.59 6.14 4.99 8.39.22.2.2.56-.03.74-1.44 1.18-5.11 4.17-6.53 5.29-.36.29-.85.66-1.46.71-.58.06-1.08-.1-1.53-.23-3.53-1.13-7.25-1.55-10.97-1.39z"/><path d="m37.21 111.62c2.14 3.14 4.16 6.36 6.14 9.6.04.06.03.14-.02.2l-.4.47c-.04.05-.01.01-.11.06l-.25.13-.53.32c-2.53 1.7-4.93 3.62-7.33 5.49-.12.09-.27.12-.41.08-1.02-.29-2.06-.55-3.09-.8-3.18-.52-6.2-1.62-9.36-2.19 2.15 0 4.27.58 6.35.94 2.14.25 4.26.59 6.34 1.14 0 0-.42.09-.42.09 2.59-2.07 5.14-4.22 8.02-5.89.26-.12.53-.26.86-.27 0 0-.42.67-.42.67-1.86-3.3-3.68-6.64-5.37-10.04z"/><path d="m18.38 140.52c4.36-.56 8.73.71 12.84 2.02-.05-.04-.24-.03-.31.01.19-.15.39-.33.59-.52 2.69-2.51 5.11-5.16 8.25-7.2 0 0-.07.67-.07.67-1.17-1.12-2.21-2.37-3.11-3.7-.88-1.35-1.62-2.78-2.15-4.28 1.48 2.79 3.42 5.33 5.82 7.36.22.18.18.53-.07.67-1.65 1.12-3.14 2.62-4.62 3.99-.75.71-2.65 2.53-3.39 3.21-.32.24-.62.69-1.08.72-4.11-1.36-8.28-2.94-12.7-2.95z"/><path d="m31.08 142.99c1.96 2.31 4.27 4.53 6.6 6.41.28.2.26.65-.03.82-2.51 1.54-4.91 3.22-7.38 4.91 1.96-2.27 4.32-4.16 6.86-5.76l-.02.83c-2.48-2-4.66-4.36-6.03-7.21z"/><path d="m39.79 96.47c1.68-2.06 3.78-3.58 6.26-4.52-1.67 2.05-3.77 3.57-6.26 4.52z"/><path d="m44.93 105.51c4.07-.63 8.21-.82 12.33-.74.2-.01.23-.02.29-.08.65-.81.98-1.86 1.32-2.89.56-1.78 1.22-3.83 3.02-4.82 0 0 .07.8.07.8-3.18-1.22-6.15-3.06-8.55-5.47 2.7 2 5.66 3.6 8.84 4.64.23.08.35.33.27.55-.04.11-.11.19-.21.24-1.48.91-2 2.72-2.5 4.35-.36 1.12-.76 2.31-1.58 3.27-.22.25-.66.38-.96.36-3.73-.21-8.56-.24-12.34-.21z"/><path d="m42.67 121.83c4.13-.3 8.28-.42 12.42-.49.43-.02 1.03.02 1.17-.06.12-.01.36-.5.62-.91 1.31-1.94 2.9-3.65 4.52-5.32 0 0-.07.53-.07.53-1.78-3.33-2-7.07-3.58-10.45 2.01 3.05 2.54 6.9 4.36 10.01.1.17.07.38-.06.52-1.66 1.87-3.4 3.69-4.71 5.82-.13.21-.32.51-.69.68-.59.23-1.03.1-1.57.13-4.12-.07-8.27-.17-12.41-.46z"/><path d="m39.95 135.19c4.76.36 9.52.91 14.25 1.54.42.02.7.22.99-.09 1.62-2.24 3.57-4.32 5.8-5.98 0 0-.02.67-.02.67-2.69-2.61-1.99-6.91-4.46-9.63 2.73 2.2 2.51 6.72 5.02 8.97.21.17.2.51-.02.67-2.16 1.73-3.96 3.77-5.62 5.98-.41.54-1.26.5-1.83.37-4.71-.72-9.43-1.52-14.11-2.5z"/><path d="m37.7 149.98c4.91 1.23 10.01 2.52 15.07 2.44.98-.81 1.57-2.02 2.35-3.06.64-.81 1.13-1.88 2.19-2.25 0 0-.35.59-.35.59-1.17-3.4-1.66-6.94-2.44-10.44 1.26 3.32 1.98 6.84 3.28 10.14 0 0-.35.59-.35.59-.57.44-1.07 1.29-1.52 1.92-.77 1.07-1.4 2.32-2.42 3.23-.08.09-.37.22-.5.25-1.5.26-2.92-.12-4.39-.29-3.76-.6-7.45-1.62-10.92-3.12z"/><path d="m41.7 167.46c1.95-.53 4.6-1.83 6.49-2.6 0 0 6.44-2.76 6.44-2.76l-.28.52c-.54-3.23-.92-6.49-1.41-9.73 1.13 3.09 1.75 6.34 2.37 9.57.04.22-.08.43-.27.52-4.31 1.82-8.67 3.88-13.34 4.48z"/><path d="m62.1 97.35c3.95-.11 7.85.41 11.73.68.46.03.7.1 1.06-.18 1.08-.91 2.27-1.91 3.38-2.79 1.52-1.23 3.09-2.42 4.7-3.56-2.38 2.51-4.87 4.85-7.48 7.12-.21.18-.56.36-.89.4-4.23-.09-8.35-1-12.5-1.67z"/><path d="m61.73 115.36c5.26.05 10.64.52 15.86.66.38-.07.71-.46 1.1-.93 2.31-2.76 5.02-5.19 8.02-7.17l-.04.73c-3.88-3.35-8.18-6.43-11.23-10.63 3.49 3.85 7.82 6.65 11.82 9.92.23.19.21.57-.04.73-2.88 2.01-5.52 4.37-7.8 7.03-.36.41-.82 1.06-1.65 1.22-.77.11-1.29-.04-1.9-.07-4.72-.41-9.44-.88-14.14-1.49z"/><path d="m60.71 131.16c4.35-.72 8.8-.87 13.2-.53 1.52-.01 3.22.63 4.66.21 2.17-1.52 4.4-3.33 6.87-4.44 0 0-.11.71-.11.71-2.24-2.43-4.08-5.09-5.84-7.86-.57-.92-1.13-1.86-1.6-2.83 1.2 1.8 2.54 3.5 3.86 5.2 5.95 7.71 5.87 3.35-1.33 9.12-.42.32-.83.73-1.46 1-1.73.57-3.41-.17-5.13-.22-4.36-.47-8.74-.56-13.12-.36z"/><path d="m54.82 162.54c4.96 1.83 9.51 4.62 13.8 7.69 1.12 4.21 3.21 8.22 5.26 12.13-1.3-1.75-2.5-3.58-3.57-5.49-1.08-1.95-2.07-3.94-2.47-6.17 0 0 .2.33.2.33-4.27-3.02-8.63-5.93-13.22-8.49z"/><path d="m57.15 147.61c2.2.37 4.39.77 6.58 1.21 3.2.45 6.47 1.88 9.64 1.04 2.04-.69 7.02-3.16 9.09-4.04 0 0-.24.61-.24.61-1.99-4.86-2.18-10.09-3.5-15.11 1.85 4.78 2.31 10.06 4.37 14.75.1.23-.01.5-.24.61-2.23.96-6.94 3.4-9.21 4.11-2.28.67-4.61-.03-6.8-.59-3.13-.81-6.6-1.69-9.69-2.59z"/><path d="m85.88 107.86c4.6.12 9.23.56 13.78 1.03.55.04.86-.03 1.25-.37 1.92-1.84 4.33-4.05 6.33-5.84.88-.75 1.74-1.52 2.64-2.24-.74.89-1.54 1.73-2.3 2.59-1.41 1.49-3.36 3.57-4.79 5-.68.61-1.23 1.45-2.18 1.77-2.52.22-5.39-.54-7.91-.79-2.27-.34-4.55-.69-6.82-1.15z"/><path d="m72.76 150.49c1.76 3.64 3.31 7.35 5.66 10.64.53.75-.14 1.53-.71 1.95-1.47 1.19-3.12 2.04-4.38 3.47-1.46 1.52-2.89 3.43-5 4.08 2.91-1.61 4.07-5.06 6.84-6.88.68-.51 1.87-1.27 2.4-1.91.07-.16.08-.02.01-.2-2.34-3.35-3.73-7.25-4.82-11.15z"/><path d="m99.87 109.4c2.81 4.47 5.44 9.05 8.02 13.66.16.28-.01.64-.32.7-1.31.33-2.54 1.14-3.66 1.9-1.26.77-2.52 2.1-3.62 2.78-4.73.58-9.58-.72-14.29-1.45 3.54.14 7.15.67 10.66.78 1.17-.03 2.35-.13 3.52-.27l-.27.12c1.64-1.49 3.36-2.89 5.31-3.96.66-.35 1.35-.68 2.14-.85l-.32.7c-2.48-4.65-4.92-9.34-7.17-14.11z"/><path d="m82.69 146.5c4.11-.13 8.22-.11 12.32-.08 1.02.02 1.92-.1 2.76-.57 1.72-.99 5.9-3.96 7.64-5.08 0 0-.18.55-.18.55-1.54-4.49-3.44-8.86-5.01-13.35 2.11 4.28 4.22 8.55 5.89 13.03.08.21 0 .43-.18.55-1.88 1.22-5.81 4.12-7.74 5.16-.95.52-2.15.65-3.21.59-4.09-.2-8.19-.43-12.29-.8z"/><path d="m77.91 161.48c4.56.13 9.14.74 13.69.89.93-.09 3.33-1.09 4.26-1.38 0 0 5.8-1.99 5.8-1.99l-.29.58c-.68-2.19-1.27-4.38-2-6.53-.74-2.15-1.54-4.27-2.5-6.35 1.2 1.94 2.23 4 3.08 6.13.86 2.12 1.59 4.3 2.31 6.46.08.24-.05.5-.28.58 0 0-5.79 2.05-5.79 2.05-1.1.33-3.35 1.29-4.5 1.36-4.64-.23-9.2-1.11-13.78-1.8z"/><path d="m83.33 184.62c3.61-2.08 7.78-4.16 11.5-5.51-1.8-5.1-1.1-11.13-3.19-16.27 2.76 4.64 2.44 10.36 3.93 15.38.08.43.31.62.19 1.2-.14.4-.46.52-.63.59-2.98 1.1-8.8 3.41-11.8 4.61z"/><path d="m107.39 123.07c4.24.36 8.44 1.34 12.63 1.95.07.02.43.03.39.04-.06.05.09-.02.16-.06 2.75-1.39 5.95-2 8.61-3.45 0-4.02-2.09-7.78-2-11.87.44 4.14 2.89 7.83 2.9 12.04-.02.3-.33.66-.54.75-2.68 1.39-5.59 2.06-8.32 3.29-.26.09-.27.17-.61.23-.5.05-.83-.08-1.28-.13-3.81-.75-8.15-1.95-11.94-2.79z"/><path d="m105.69 141.17c4.11-.2 8.24.63 12.21 1.66.25.04.37.02.54-.07 2.15-1.68 4.83-2.8 7.2-4.21 0 0-.19.65-.19.65-2.21-4.34-3.71-8.97-4.83-13.69.63 1.69 1.96 5.06 2.63 6.73.93 2.21 1.92 4.4 3.05 6.5.12.23.04.52-.18.64-1.99 1.11-4.85 2.75-6.44 3.55-.21.2-.44.44-.78.64-.96.52-1.98-.17-2.89-.34-3.39-.99-6.81-1.76-10.32-2.06z"/><path d="m101.69 159.7c3.79.77 7.53 1.69 11.29 2.59.73.14 2.01.6 2.7.59.67-.02 1.86-.7 2.53-.95 1.77-.77 3.54-1.54 5.31-2.29l-.27.61c-1.87-5.63-2.69-11.48-4.93-16.97 2.84 5.17 3.95 11.13 5.85 16.65.08.24-.04.51-.27.61-1.77.78-3.54 1.53-5.32 2.28-.9.33-1.86.95-2.89.98-1.01-.03-2-.48-2.93-.7-3.71-1.09-7.41-2.18-11.07-3.4z"/><path d="m130.24 121.99c3.84 1.3 7.29 3.17 10.71 5.33-3.96-.88-7.55-2.83-10.71-5.33z"/><path d="m125.87 138.96c4.76 1.15 10.14 1.52 14.5 3.87.36.17.86-.04 1.5-.25 4.17-1.35 8.44-2.49 12.76-3.24l-3.56 1.2c-2.98.95-6.86 2.31-9.82 3.26-1.03.35-2.09-.56-2.92-.87-4.03-1.72-8.42-2.29-12.46-3.97z"/><path d="m124.31 160.54c3.6.64 7.45 1.46 11.03 2.22.52.11 1.06.24 1.5.25.96 0 1.67-.98 2.47-1.48 2.66-1.92 5.69-3.3 8.87-4.09l-.32.66c-1.85-4.37-5.12-10.44-7.33-14.72 3.07 4.58 5.88 9.32 8.2 14.34.12.27-.04.59-.32.66-3.95.91-7.34 3.07-10.63 5.33-1.36.5-2.87-.33-4.18-.58-3.01-.79-6.33-1.69-9.29-2.59z"/><path d="m137.37 163.39c1.94 4.58 2.66 9.58 4.36 14.22.16.3.19.91-.22 1.13-.41.21-.53.17-.75.24l-1.21.28-2.42.57c-1.53.28-3.39.93-4.99.94-1.8-.16-3.25-.94-4.86-1.59-2.67-1.16-6.43-2.95-9.09-4.05 3.21.88 6.27 2.18 9.38 3.33 1.29.42 3.28 1.34 4.59 1.36.73.01 1.51-.22 2.33-.4 1.2-.29 3.64-.85 4.85-1.11.3-.07 1.37-.31 1.65-.38-.03 0-.11.17-.09.17-1.58-4.59-2.18-10.04-3.53-14.71z"/><path d="m131.94 180.29c-.36 4.11-1.38 8.06-3.07 11.83.36-4.12 1.39-8.07 3.07-11.83z"/><path d="m148.11 157.4c4.69 1.65 9.34 3.63 13.88 5.6.52.21.82.14 1.35-.17l1.55-1.02c1.81-1.2 4.46-2.85 6.33-4.01 1.08-.63 2.14-1.29 3.24-1.89-.97.79-1.98 1.54-2.97 2.3-1.79 1.31-4.28 3.15-6.08 4.39-.86.53-1.55 1.26-2.6 1.49-.43.07-.84-.03-1.17-.15-4.62-2.05-9.09-4.16-13.53-6.54z"/><path d="m141.09 177.98c4.3 1.6 8.54 3.34 12.77 5.11.56.24.98.43 1.31.28.9-.43 3.45-2 4.39-2.51 1.99-1.13 3.98-2.27 5.98-3.38l-.22.49c-1-4.77-1.95-9.54-2.74-14.35 1.33 4.69 2.51 9.42 3.64 14.16.04.19-.04.38-.2.48-1.98 1.17-3.97 2.31-5.96 3.46-1.16.61-3.38 2.02-4.59 2.54-.68.26-1.41-.08-1.97-.35-4.17-1.91-8.32-3.85-12.41-5.93z"/><path d="m129.49 191.65c4.25 1.43 8.26 3.68 11.79 6.44.91.74 1.61.73 2.67.24 3.18-1.24 6.61-1.85 10.03-1.76l-.44.36c.78-4.28 1.87-8.66 1.48-13.03.92 4.35.04 8.87-.6 13.21-.04.21-.22.36-.43.36-2.2.02-4.41.27-6.54.81-1.76.28-3.18 1.31-4.98 1.36-.72-.08-1.27-.47-1.72-.82-3.46-2.88-7.21-5.25-11.26-7.17z"/><path d="m134.86 211.65c2.7.12 5.37.12 8.02-.05l-.45.49c-.09-2.17-.11-4.32-.08-6.47.02-2.15.12-4.3.2-6.47.41 2.13.56 4.29.67 6.45.11 1.88.13 4.57.16 6.47 0 .26-.2.47-.45.48-2.72.08-5.46-.2-8.07-.9z"/><path d="m166.22 177.41c3.94 1.48 7.78 3.24 11.56 5.05.46.22.89.39 1.31.42 1.46-.02 2.91-.88 4.33-1.27 0 0 2.98-1.01 2.98-1.01 1.01-.3 2.01-.64 3.03-.91-.94.48-1.9.91-2.85 1.37l-2.9 1.27c-1.54.58-2.93 1.51-4.65 1.53-.64-.03-1.2-.26-1.69-.49-3.77-1.85-7.51-3.77-11.12-5.96z"/><path d="m154.43 196.9c4.53 2.59 8.99 5.28 13.41 8.03.56.33 1.11.75 1.58.88 1.75.18 3.44-1.19 4.89-2.14 2.1-1.48 4.13-3.12 6.08-4.81l-.15.33c-.01-5.29-.12-10.62-1.23-15.81 1.62 5.09 2.01 10.5 2.12 15.82 0 .13-.06.25-.15.33-1.96 1.75-3.95 3.43-6.1 4.97-1.69 1.05-3.51 2.55-5.7 2.2-.79-.25-1.26-.68-1.82-1.01-4.36-2.86-8.68-5.78-12.93-8.79z"/><path d="m142.88 211.78c4.19 2.86 8.3 5.85 12.38 8.87 0 0 1.53 1.13 1.53 1.13 1.1.83 1.58 1.42 3.07 1.09 3.07-.39 6.06-1.48 8.82-2.88 0 0-.21.28-.21.28.99-4.52 2.24-9.44.88-14.01 1.04 2.18 1.08 4.71.97 7.08-.14 2.4-.46 4.78-1 7.15-.03.12-.1.22-.21.27-2.28 1.25-4.68 2.19-7.22 2.77-1.32.2-2.75.7-4.06.17-5.17-3.75-10.03-7.84-14.95-11.92z"/><path d="m141.75 233.46c1.7.35 4.23.59 5.98.85 1.91.11 3.92 1.16 5.79 1.14 0 0-.45.36-.45.36.42-1.26 1.39-1.66 1.78-2.84 1.08-2.94 1.99-6.42 2.89-9.46-.09 1.11-.26 2.2-.43 3.3-.65 2.71-.79 5.74-2.48 8.07-.37.44-.7.82-.81 1.2-.06.21-.25.34-.45.35-1.13.04-2.17-.29-3.11-.63-2.72-.92-6.05-1.24-8.71-2.34z"/><path d="m94.86 179.59c4.03.19 7.97-.59 12.02-.53 1.48-.1 2.9.58 4.19-.12.84-.44 5.6-3.12 6.53-3.65l-.1.08c.19-.19.25-.3.25-.36-.58-1.68-.8-3.63-1.04-5.4-.32-2.1-.42-4.23-.97-6.28.44.97.67 2.03.91 3.06.62 2.55.93 5.21 1.72 7.71.06.22.23.44.27.88.02.5-.3.83-.47 1.01-2.14 1.34-4.41 2.61-6.65 3.81-.21.11-.51.26-.8.32-1.33.27-2.56-.19-3.86-.19-3.97-.19-8.06.36-12-.34z"/><path d="m110.4 179.7c1.7 1.16 2.09 3.46 2.6 5.31-1.7-1.15-2.08-3.45-2.6-5.31z"/><path d="m180.66 198.71c3.87 2.74 7.03 6.36 10.14 9.9 0 0-.33-.17-.33-.17 3.57.31 7.22.38 10.76.99 0 0-5.41.11-5.41.11-1.81.01-3.61.01-5.43-.12-.13-.01-.25-.07-.33-.17-2.72-3.03-6.58-7.66-9.4-10.54z"/><path d="m169.22 220.65c2.69 2.6 6.5 6.48 9.14 9.21 0 0-.43-.11-.43-.11l8.23-2.8c2.74-.94 5.52-1.79 8.27-2.7l-.29.5c-.91-5.35-2.74-10.48-3.71-15.82 1.47 5.15 3.61 10.38 4.58 15.66.04.22-.08.43-.29.5-2.75.92-5.49 1.89-8.25 2.78l-8.29 2.67c-.16.06-.33.01-.43-.11-2.52-2.87-6.14-6.87-8.53-9.78z"/><path d="m154.02 235.54c2.69 3.2 5.47 6.31 8.41 9.27.9.79 2.32 2.54 3.29 3.04 2.51.31 5.05-.23 7.53-.68 2.71-.52 5.42-1.2 8.07-1.98l-.31.44c-.28-4.55-2.03-10.97-2.96-15.49 1.55 5.07 3.29 10.14 3.83 15.44.01.2-.12.38-.31.44-5.04 1.45-10.23 3.06-15.54 2.77-1.22-.01-1.97-1.23-2.74-1.92-3.37-3.53-6.51-7.3-9.27-11.33z"/><path d="m149.62 255.12c3.31 2.5 7.43 3.72 11.37 4.83 0 0-.58.28-.58.28 1.74-4.01 3.74-7.86 5.41-11.89-.92 4.28-2.78 8.3-4.5 12.29-.1.23-.34.35-.58.28-3.99-1.15-8.23-2.67-11.12-5.79z"/><path d="m194.58 224.67c2.82 3.81 5.49 7.7 7.76 11.87 0 0-.42-.25-.42-.25 2.94.01 5.87-.19 8.83-.54-2.83.93-5.82 1.41-8.82 1.49-.18.01-.33-.09-.42-.23-2.33-4.06-4.91-8.04-6.93-12.34z"/><path d="m181.66 245.37c1.65 1.52 3.27 3.07 4.9 4.61.75.8 1.77 1.52 2.41 2.48.31.7.04 1.35-.09 1.86-.5 1.57-.98 3.27-1.48 4.84-1.09 3.16-2.38 6.23-2.56 9.61-.02.22-.18.39-.38.43-5.25 1.05-10.54 1.34-15.85 1.76-.63-.01-.95-.69-1.22-1.06-2.22-3.22-4.94-6.15-6.63-9.71 2.16 3.6 5.22 6.6 7.7 9.97 5.19-.35 10.63-.94 15.78-1.91 0 0-.38.43-.38.43.42-4.93 2.9-9.74 4.37-14.54.19-.53.35-1.05.19-1.41-2.09-2.49-4.61-4.9-6.76-7.36z"/><path d="m201.91 236.97c.01 4.26 1.53 8.44.97 12.7-.06.24-.11.61-.35.77-2.27.99-4.76.73-7.11 1.37-2.17.5-4.42 1.09-6.69.92 3.38-.35 6.46-1.99 9.84-2.38 1.13-.2 2.34-.33 3.33-.69.08-.04-.08.04-.08.16.56-2 .11-4.03.01-6.1-.12-2.23-.23-4.51.08-6.75z"/><path d="m168.45 270.56c-1.12 3.69-3.47 6.77-5.33 10.09.56-3.82 3.02-7.09 5.33-10.09z"/><path d="m201.97 250.16c2.31 2.7 4.81 5.76 7.05 8.54 0 0 1.16 1.44 1.16 1.44.42.5.95 1.14.86 1.88-.2 1.33-.54 2.38-.75 3.66-.69 3.6-.98 7.26-.98 10.92 0 .27-.22.5-.49.5-4.46-.55-8.92-.69-13.41-.62-.57 0-1.23-.07-1.79-.38-3.14-2.26-6.22-4.97-9.21-7.4 3.13 2.13 6.39 4.69 9.52 6.8.44.22.94.26 1.48.24 4.47-.26 9-.08 13.48.38l-.55.49c-.05-4.92.71-9.9 1.92-14.64.08-.45-.26-.86-.64-1.38l-1.1-1.48c-2.16-2.86-4.49-6.05-6.55-8.95z"/><path d="m170.98 291.31c5.2 1.01 10.8.67 15.95 2.01 0 0-.55.21-.55.21 3.5-5.42 5.44-11.59 7.7-17.6-.74 3.15-1.56 6.27-2.62 9.35-1.08 3.06-2.48 6.04-4.25 8.78-.12.19-.35.26-.55.21-5.08-1.37-10.64-1.27-15.68-2.96z"/><path d="m214.47 242.86c2.23 2.6 4.54 5.1 6.93 7.55.09.1.13.22.12.35-.26 3.54-.58 7.08-.99 10.61-.03.23-.23.39-.45.38-1.58-.08-3.16-.22-4.73-.33-1.58-.12-3.15-.27-4.73-.45 1.59-.07 3.17-.1 4.75-.11 1.58.01 3.17-.01 4.75.02l-.45.4c.24-3.54.57-7.07.96-10.6l.12.35c-2.3-2.56-4.47-5.26-6.28-8.17z"/><path d="m186.64 294.04c5.71 3.63 11.36 7.74 18.04 9.34 1.02.26 2.56.36 3.12 1.48.15.28.94 1.75 1.1 2.06.56 1.12 1.15 2.22 1.69 3.35-.73-1.02-1.41-2.07-2.11-3.1l-1.01-1.58c-.3-.55-.54-.85-1.18-1.02-7.59-1.04-14.05-5.58-19.65-10.53z"/><path d="m209.28 276.69c3.74 3.57 7.39 7.22 11 10.92.44.48.9.89 1.35 1.46 1.13 1.74 1.07 3.83 1.55 5.78.42 2.56.75 5.11 1.28 7.63.05.24-.1.47-.34.52-2.81.55-5.64 1.03-8.46 1.52-2.84.38-5.76.53-8.58 0 5.74.49 11.28-1.37 16.85-2.4l-.35.53c-.57-2.53-.97-5.11-1.38-7.64-.4-1.75-.38-3.86-1.29-5.4-.35-.46-.83-.93-1.26-1.4-3.52-3.78-6.99-7.61-10.37-11.52z"/><path d="m220.28 261.09c3.59 4.49 7.86 8.26 12.28 11.87.69.97.39 2.19.47 3.22.02 1.33.07 2.66.13 3.99.14 2.66.38 5.32.72 7.97.03.21-.12.41-.33.44-3.94.57-7.95 1.27-11.93.82 3.97-.01 7.89-.86 11.77-1.62 0 0-.33.46-.33.46-.44-2.65-.74-5.33-.89-8.02-.15-1.96-.11-4.06-.15-5.99-.05-.59-.3-.85-.88-1.29-4.19-3.38-7.9-7.37-10.86-11.85z"/><path d="m224.02 302.56c3.71 1.16 7.25 2.68 10.34 5.07-3.71-1.16-7.25-2.69-10.34-5.07z"/><path d="m233.69 288.48c4.23 1.74 8.4 3.74 12.52 5.68 2.33 1 1 6.34.49 8.24.13-1.83.21-3.68.02-5.44-.16-.72-.09-1.68-.91-1.94-4.18-1.84-8.34-3.95-12.12-6.54z"/><path d="m232.65 273.78c3.23-.05 6.46-.07 9.69-.03 1.5.07 3.58-.2 4.93.64 2.45 1.49 5.72 3.75 8.14 5.31.32.22.73.43 1.06.89.33.48.37 1 .4 1.4l.17 2.42c.22 3.22.46 6.44.61 9.67.02.19-.12.35-.31.37-3.47.35-6.96.94-10.45 1.18 3.46-.6 6.87-1.37 10.37-1.87l-.31.37c-.34-3.21-.59-6.43-.86-9.65-.11-.61-.09-2.85-.44-3.31-.39-.47-4.24-2.92-4.81-3.36-2.03-1.18-3.7-3.12-6.13-3.28-3.98-.21-8.06-.43-12.06-.75z"/><path d="m221.05 250.63c2.25-.86 4.47-1.91 6.79-2.56 1.19.04 2.07 1.07 3.04 1.56 2.94 1.87 5.84 3.8 8.74 5.73l4.32 2.94c.76.46 1.67 1.26 1.8 2.22.61 4.37.65 8.75.23 13.13-.06-3.49-.26-6.96-.7-10.4-.25-1.17-.08-2.56-.88-3.45-.54-.51-4.63-3.11-5.33-3.61-3.59-2.4-7.18-4.93-10.71-7.4-.31-.19-.61-.14-1.03-.01-2.07.64-4.19 1.27-6.27 1.85z"/><path d="m245.33 259.75c3.54-.76 6.97-1.96 10.19-3.61.12-.06.26-.04.36.04 3.01 2.49 6.35 4.97 9.66 7.03.18.08.65.5.74.75 1.24 2.35 1.67 4.96 2.36 7.48.55 2.23 1.07 4.46 1.7 6.64.06.2-.05.41-.24.48-4.41 1.76-9.24 3.37-14.04 2.51 4.82.38 9.39-1.34 13.73-3.27 0 0-.23.5-.23.5-1.36-4.34-2.19-8.91-3.75-13.14-.16-.34-.27-.69-.51-.94-1.42-1.03-3.11-2.08-4.53-3.14-1.66-1.13-3.77-3.06-5.31-4.39 0 0 .36.04.36.04-3.32 1.55-6.87 2.59-10.49 3.02z"/><path d="m215.67 226.66c4.36 2.04 8.5 4.28 12.69 6.66.35.17.69.74.65 1.13-.08 1.67-.33 4.59-.43 6.28 0 0-.42 7.13-.42 7.13-.14-1.19-.2-2.38-.27-3.57-.14-3.23-.07-6.57.14-9.79-.03-.22-.02-.19-.21-.34-4.09-2.36-8.24-4.83-12.15-7.5z"/><path d="m228.4 234.04c3.96-1.41 8.18-1.93 12.17-3.21.31-.1.65-.22 1.06-.23.8-.05 1.45.57 1.94 1.05 1.87 1.77 3.82 3.46 5.83 5.06 1.99 1.63 4.05 3.18 6.18 4.63.14.1.21.26.19.42-.59 4.85-.98 9.84-.12 14.68-1.36-4.78-1.23-9.88-.75-14.8 0 0 .19.42.19.42-2.17-1.43-4.28-2.96-6.32-4.58-2.02-1.64-3.96-3.39-5.82-5.2-.48-.47-.87-.87-1.31-.84-4.29 1.1-8.89 1.63-13.24 2.6z"/><path d="m255.35 241.7c4.61-1.13 9.46.55 14.04-.32 1-.11 1.74.88 2.4 1.45 2.33 2.42 4.31 5.12 6.1 7.95 0 0-2.23-2.47-2.23-2.47-1.82-2.01-3.62-4.14-5.73-5.83-.18-.12-.25-.13-.47-.12-4.78.91-9.37-.99-14.11-.66z"/><path d="m214.46 211.01c4-1.71 8.03-3.29 12.06-4.87.15-.06.3-.03.41.07 2.19 1.94 5.83 3.99 8.36 5.49 0 0 8.58 5.28 8.58 5.28.16.09.24.28.19.46-1.03 4.47-1.8 9.03-2.1 13.61-.19-4.63.41-9.25 1.27-13.8 0 0 .19.46.19.46l-8.66-5.16c-2.54-1.56-6.22-3.7-8.37-5.7 0 0 .41.07.41.07-4.09 1.4-8.2 2.81-12.34 4.09z"/><path d="m243.66 217.35c5.7.39 11.65-.55 17.33-1.13.15-.02.29.04.39.14 2.02 2.23 4.15 4.37 6.27 6.52 2.13 2.15 4.33 4.22 6.57 6.25.11.1.15.26.11.4-.66 2.13-1.42 4.17-2.17 6.24-.38.99-1.37 3.66-1.73 4.62-.17.51-.43 1.04-.5 1.54.3-1.83 1.23-4.5 1.74-6.33.64-2.09 1.32-4.19 1.87-6.29l.12.41c-2.3-1.97-4.52-4.04-6.7-6.16-2.18-2.11-4.23-4.35-6.25-6.61l.39.15c-5.78.52-11.68 1.18-17.44.25z"/><path d="m265.5 263.76c3.11-1.06 6.39-1.11 9.61-.59-3.17.86-6.35.89-9.61.59z"/><path d="m273.62 229.21c1.37-.98 2.7-1.43 4.39-1.46-1.09 1.28-2.75 1.83-4.39 1.46z"/><path d="m211.48 187.41c5.32 2.19 10.3 5.1 15.38 7.76.28.1.44.42.47.68.33 3.62.03 7.15-.65 10.68.08-3.48.2-7.19-.3-10.59 0 .03.12.14.16.14-.06-.03-.43-.22-.5-.25-4.92-2.48-9.87-5.53-14.56-8.42z"/><path d="m261.04 216.66c-.19-4.19.11-8.44-.36-12.59-.04-.29.19-.54.48-.54 2.67.01 5.35-.37 8.05-.75 2.7-.34 5.45-.68 8.18-.41-2.72.19-5.37.7-8.04 1.24-2.67.5-5.4.97-8.18.9l.49-.54c.41 4.26-.15 8.47-.62 12.69z"/><path d="m226.74 195.65c3.89-2.42 8.12-4.88 12.66-5.66 5.79 2.95 11.16 6.59 16.49 10.27 1.78 1.22 3.52 2.49 5.27 3.76-7.39-4.13-14.77-9.17-22.17-13.21 0 0 .3.04.3.04-4.36.96-8.52 2.82-12.55 4.8z"/><path d="m209.04 174.52c3.23-1.52 6.43-2.95 9.76-4.33.89-.4 2.05-.01 2.84.42 4.87 2.27 10.33 4.64 15.01 7.27.24.16.61.36.66.67.6 3.99.72 7.99 1.89 11.86-1.62-3.65-1.9-7.87-2.73-11.63-1.96-1.14-5.92-2.88-8.01-3.9-2.18-.99-6.19-3.04-8.33-3.97-.35-.11-.7-.08-1.09.03-3.29 1.16-6.66 2.47-10 3.58z"/><path d="m236.9 178.5c5.05-2.45 10.51-3.92 15.71-5.99.71-.19 1.3.36 1.87.6 0 0 2.33 1.24 2.33 1.24 5.39 2.91 12.86 7.47 18.19 10.64-7.18-3.27-14.02-7.3-20.98-11.02-.29-.12-.9-.55-1.15-.54-5.23 1.97-10.69 3.2-15.97 5.07z"/><path d="m205.17 149.41c5.01 2.17 10.38 3 15.44 5.09.2.08.32.28.3.49-.32 5.07-.72 10.14-1.39 15.18-.05-2.55 0-5.09.07-7.63.06-2.54.19-5.08.32-7.61l.3.49c-4.93-2.06-10.42-3.15-15.04-6.01z"/><path d="m252.91 171.67c-.79-4.3-1.34-8.62-1.8-12.96-.03-.25.14-.47.37-.53 3.62-.96 7.11-2.58 10.43-4.33 1.13-.58 2.24-1.2 3.35-1.82-1.98 1.62-4.14 2.99-6.39 4.23-2.26 1.21-4.64 2.24-7.17 2.87l.37-.53c.43 4.35.75 8.7.84 13.07z"/><path d="m202.66 125.37c5.25 2.9 10.72 5.31 16.42 7.13 1.93.5 4.27 1.41 5.09 3.42 1.74 3.65 3.42 7.24 5.08 10.91.1.25.22.61.08 1-.24.58-1.34 1.21-1.78 1.62-2.29 1.8-4.81 3.78-7.13 5.5 2.13-1.95 4.52-4.08 6.72-5.98l1.13-.98c.43-.39.47-.43.28-.87l-5.25-10.74c-.83-1.93-2.62-2.45-4.5-3.03-5.71-1.89-11.18-4.57-16.14-7.98z"/><path d="m229 147.67c7.57 3.3 15.94 5.99 22.6 10.98-7.32-3.8-15.66-6.45-22.6-10.98z"/><path d="m221.75 133.99c2.62-1.04 6.13-2.54 8.62-3.74 2.81-1.36 5.56-2.88 7.93-4.85.13-.11.3-.12.44-.06 0 0 11.2 5.13 11.2 5.13 3.24 1.47 7.87 3.71 11.15 5.23.87 1.18.98 2.95 1.37 4.28 0 0 .83 4.07.83 4.07.64 2.56.83 5.54 2.07 7.85 1.31.43 3.11 1.07 4.57 1.59-1.57-.42-3.14-.87-4.71-1.31-.38-.26-.48-.64-.64-.97-1.28-3.39-2-7.52-2.91-11.05-.35-1.31-.64-2.71-1.16-3.87l.21.2c-3.3-1.51-7.95-3.62-11.19-5.14 0 0-11.14-5.25-11.14-5.25l.45-.06c-5.09 3.87-11.11 5.98-17.09 7.95z"/><path d="m201.65 111.21c3.01-2.24 5.69-4.86 7.96-7.8.08-.11.22-.15.35-.12 3.9 1 7.77 2.13 11.65 3.21 3.88 1.06 7.72 2.26 11.59 3.38.14.04.25.15.29.28.85 2.62 1.62 5.28 2.44 7.91.8 2.64 1.57 5.29 2.31 7.95-1.96-5.16-3.8-10.37-5.58-15.6 0 0 .29.28.29.28-7.75-2.15-15.49-4.36-23.17-6.75l.37-.12c-2.41 2.93-5.3 5.43-8.5 7.38z"/><path d="m261.25 136.41c1.62-1.79 3.62-3.02 5.96-3.65-1.62 1.8-3.62 3.02-5.96 3.65z"/><path d="m233.08 110.09c4.24-1.66 8.88-3.08 13.32-3.87 4.55 2.22 9.56 4.76 14.07 7.13 1.55.81 3.09 1.65 4.66 2.43-6.6-2.39-12.89-5.56-19.15-8.7 0 0 .32.04.32.04-3.89.87-9.42 1.95-13.22 2.97z"/><path d="m210.05 103.67c-1.09-2.14-1.87-4.42-2.66-6.69-.78-2.27-1.46-4.57-2.12-6.88-.04-.12.01-.25.11-.33 4.15-3.25 8.21-6.61 12.48-9.71.61-.36 1.19-.14 1.8-.03 6.67.28 12.94 3.19 18.46 6.78.76.52 1.56 1.05 2.24 1.68.13.11.19.32.11.48-.05.29-.64.24-.49.22l-.05-.02c-.02-.01-.09-.04-.09-.04-.34.61.51-.82.35-.71.21.11.51.3.7.42 1.15.61 1.19 2.47 1.49 3.56 1.05 4.81 1.89 9.69 3.8 14.25-2.22-4.42-3.27-9.33-4.45-14.1-.29-.85-.38-2.64-1.27-3.06-.13-.08-.45-.26-.58-.33-.03-.02-.06-.03-.09-.05-.17.1.68-1.34.35-.72l.07.03c.01 0 .03.01 0 0l-.03-.01c.15-.01-.42-.06-.46.23-.07.11-.02.32.05.39-5.79-4.28-12.7-7.51-19.94-8.05-.32 0-.69-.08-.99-.17-.37-.15-.75.15-1.27.54-3.91 2.99-7.84 5.97-11.8 8.91l.11-.34c1.24 4.63 2.36 9.32 4.17 13.75z"/><path d="m211.14 68.16c3.02 3.7 5.48 7.76 7.32 12.17-3.03-3.7-5.47-7.76-7.32-12.17z"/><path d="m241.32 89.3c2.98-2.24 5.73-4.95 8.63-7.12.35-.17.85-.15 1.16-.03 2.69 1.02 5.28 2.1 7.9 3.26 1.82.81 4.43 1.97 6.18 2.88-1.1-.32-2.17-.69-3.25-1.04-3.13-1.08-6.53-2.33-9.58-3.55-.53-.17-1.73-.84-2.05-.63-2.89 2.19-5.76 4.54-8.99 6.23z"/><path d="m211.14 68.16c3.24-2.78 6.57-5.45 10.08-7.9 1.18-.81 2.36-1.61 3.67-2.27.12-.06.27-.05.38.01 2.93 1.65 6.03 3.06 9.16 4.35 3.13 1.28 6.29 2.48 9.52 3.52 1.61.53 3.22.98 4.87 1.48 1.06.3 1.36 1.55 1.3 2.45.17 4.22.32 8.52.39 12.74-.53-4.55-.71-9.31-1.26-13.84-.1-.26-.4-.53-.67-.59-1.63-.41-3.28-.9-4.91-1.39-6.53-2.02-12.87-4.57-18.82-7.98l.4.02c-1.24.59-2.46 1.32-3.65 2.09-3.3 2.13-7.25 5-10.46 7.31z"/><path d="m217.16 44.24c2.5 4.72 5.68 9.26 7.92 14.14-3.43-4.17-6.65-8.84-7.92-14.14z"/><path d="m250.02 68.03 4.4-2.68c1.45-.91 2.91-1.83 4.29-2.81.1-.07.22-.07.32-.01 8.26 5.14 16.27 10.84 25.46 14.18.18.06.3.23.31.41.22 4.12 1.06 8.21 2.49 12.09.16.59.95 1.81.51 2.47-.21.32-.51.44-.74.56-2.83 1.36-5.84 2.39-8.9 3.04 3.01-.88 5.9-2.05 8.66-3.52.51-.25.65-.43.48-.89l-.61-1.42c-1.63-3.89-2.57-8.06-2.81-12.28l.31.41c-4.66-1.6-9.04-3.91-13.23-6.47-4.2-2.53-8.2-5.36-12.24-8.1l.32-.01c-2.9 1.9-5.96 3.46-9.02 5.03z"/><path d="m219.49 42c3.71-.85 7.27-2.28 10.78-3.63 2.4.67 4.66 1.76 6.82 2.93 6.33 3.66 13.03 6.66 20.36 7.46.22.02.38.22.34.44-.43 2.23-.47 4.54-.23 6.81.2 2.28.71 4.54 1.31 6.76-.82-2.16-1.43-4.41-1.8-6.7-.34-2.3-.4-4.66-.05-6.99l.34.45c-7.43-.58-14.39-3.64-20.7-7.46-2.13-1.17-4.28-2.31-6.57-3.06l.23-.01c-3.48 1.41-7.12 2.43-10.83 3z"/><path d="m228.92 33.67c1.25 1.35 1.32 3.25 1.27 5.03-1.26-1.36-1.32-3.26-1.27-5.03z"/><path d="m244.3 25.25c5.81 3.5 13.08 3.05 18.89 6.41 1.32 2.49 2.52 5.05 3.59 7.65 1.07 2.61 2.1 5.22 3.08 7.85.07.2-.03.42-.22.49-4.08.15-8.15 1.18-12.23 1.5 4.05-.72 7.94-1.95 12.08-2.24 0 0-.35.53-.35.53-1.11-2.58-2.11-5.2-3.23-7.76s-2.28-5.1-3.54-7.59l.2.2c-5.81-3.05-12.84-3.11-18.27-7.04z"/><path d="m269.5 47.29c7.76 4.9 16.53 9.85 24.56 14.37.16.09.25.25.25.41.01 3.99.41 7.97 1 11.92.04.2-.1.39-.3.4-3.62.44-7.2 1.6-10.67 2.75 3.41-1.51 6.88-2.85 10.6-3.44 0 0-.3.4-.3.4-.82-3.95-1.18-7.99-1.28-12.03l.25.41c-8.32-4.6-16.55-9.42-24.11-15.19z"/><path d="m262.78 31.88c4.77-2.48 9.93-4.34 14.42-7.31.14-.09.31-.08.43.02 5.13 3.75 11.79 8.77 16.89 12.64 1.29.86 2.69 2.17 3.08 3.74 0 0 .79 2.21.79 2.21 1.05 2.94 2.17 5.83 3.47 8.67.05.1.04.21-.01.29-1.1 1.85-2.26 3.65-3.54 5.37-1.31 1.67-2.59 3.52-4.47 4.56 3.38-2.59 5.28-6.68 7.46-10.25 0 0-.01.29-.01.29-1.39-2.8-2.66-5.7-3.71-8.64-.5-1.16-.97-3.2-1.85-4.07s-2.63-2.01-3.64-2.82c-4.38-3.34-10.61-8.05-14.89-11.4 0 0 .43.02.43.02-4.71 2.89-9.88 4.55-14.85 6.68z"/><path d="m277.61 18.99c.81 1.34.51 3.01.24 4.45-.4 1.74-.62 1.69-.78-.06-.12-1.51.25-2.93.54-4.39z"/><path d="m305.93 38.62c-3.65.62-7.5.71-11.02-.5 3.72-.17 7.35-.24 11.02.5z"/><path d="m301.56 51.99c5.03 2.54 9.93 5.28 14.21 8.98-5.03-2.54-9.93-5.29-14.21-8.98z"/><path d="m294.96 74.06c4.6 2.65 9.67 5.41 14.34 7.88.1.06.18.15.2.25l1.99 6.99c.63 2.35 1.32 4.65 1.78 7.08.05.25-.11.49-.36.55-3.21.82-6.5 1.31-9.81 1.45-1.07.02-2.27.14-3.4-.34-1.07-.47-1.96-1.04-2.94-1.55-2.78-1.54-5.85-3.25-8.58-4.84 3.88 1.78 7.91 3.93 11.77 5.72.94.36 2 .23 3.09.17 3.25-.19 6.47-.71 9.61-1.55l-.36.55c-.85-4-2.56-10.01-3.63-14.01 0 0 .2.25.2.25-4.69-2.72-9.43-5.46-13.9-8.6z"/><path d="m318.02 74.69c-2.51 3.04-5.52 5.62-8.91 7.61 2.53-3.07 5.48-5.58 8.91-7.61z"/><path d="m300.4 97.77c2.05 23.08 9.07 11.07-8.92 19.5-.48.23-1.21.08-1.62-.22 0 0-2.36-1.42-2.36-1.42-1.56-.96-3.12-1.93-4.66-2.94 2.39 1.15 5 2.5 7.36 3.75.84.52 1.4-.2 2.18-.53 3.29-1.71 6.89-2.87 10.56-3.41l-.38.63c-1.63-4.94-2.35-10.17-2.16-15.36z"/><path d="m290.75 117.01c-.74 3.34.45 6.6.13 9.97-.07.44-.67.82-1.04.87-1.49.59-2.85 1.6-4.46 2.03 1.13-.7 2.09-1.61 3.23-2.33.32-.25.91-.51 1.28-.68.05-.04.06-.06.08-.15.04-3.16-.84-6.75.78-9.71z"/><path d="m312.94 96.61c1.59.49 2.77 1.52 3.45 3.04-1.59-.49-2.76-1.52-3.45-3.04z"/><path d="m303.1 113.02c3.81 2.08 7.16 4.65 10.13 7.82-3.78-2.04-7.2-4.69-10.13-7.82z"/><path d="m290.75 126.78c5.08 3 9.76 6.78 14.02 10.82.22.25.86.04 1.14.04 0 0 1.47-.15 1.47-.15.99-.07 1.97-.18 2.96-.23-.95.27-1.92.47-2.88.71l-1.45.32c-.52.1-1.23.35-1.71-.06-4.4-3.68-9.27-7.64-13.55-11.45z"/><path d="m287.76 147.92c2.17 1.48 5.21 3.78 7.34 5.39 0 0-.36-.08-.36-.08 2.79-.61 5.59-1.2 8.4-1.74l-.4.42c.63-4.68.63-9.51 1.58-14.17-.27 4.78-.01 9.52-.6 14.3-.03.21-.18.37-.38.41-2.79.58-5.6 1.1-8.41 1.6-.13.03-.26 0-.36-.08-2.02-1.77-4.9-4.22-6.81-6.05z"/><path d="m303.29 151.79c1.97 1.43 3.47 3.13 4.62 5.27-2.13-1.16-3.74-3.01-4.62-5.27z"/><path d="m294.67 153.9c.21 3.82.8 7.74 1.02 11.55.01.22-.15.42-.37.44-1.78.22-3.56.37-5.37.4 1.73-.52 3.47-.93 5.23-1.27l-.37.48c-.47-3.83-.97-7.78-.14-11.6z"/><path d="m306.28 173.85c-1.8.4-3.63.7-5.49.64-.22-.01-.65-.06-.87-.31-1.97-2.66-3.18-5.79-4.67-8.73 2.16 2.3 3.53 5.18 5.18 7.83.06.09.12.16.18.24-.1-.02.13.06.27.07 1.78.15 3.59.12 5.4.26z"/><path d="m290.88 182.26c1.73.52 4.2 1.52 5.97 1.74 0 0-.51.32-.51.32 1.06-3.25 2.22-6.46 3.78-9.51-.66 3.38-1.72 6.63-2.89 9.85-.07.21-.29.33-.5.29-2.19-.45-4.03-1.5-5.85-2.69z"/><path d="m296.7 184.23c3.11 4.19 6.63 7.89 9.3 12.39-3.72-3.59-7.37-7.5-9.3-12.39z"/><path d="m294.38 211.43c1.68.59 3.29 1.27 4.87 1.99l-.46.07c.61-.67 1.22-1.55 1.82-2.36 1.67-2.32 3.81-5.1 5.53-7.36-1.68 3.82-3.95 7.31-6.8 10.38-.12.12-.31.13-.45.06-1.54-.87-3.06-1.79-4.51-2.78z"/><path d="m309.01 233.32c-1.1 1.85-2.18 3.51-3.37 5.24-.14.18-.54.31-.76.22-1.3-.62-2.01-1.78-3.04-2.72 1.08.33 1.92 1.03 2.85 1.58.16.1.37.21.43.22-.03-.04-.21.04-.17.03 1.03-1.75 2.35-3.4 4.06-4.57z"/><path d="m315.17 253.55c-.36 1.32-1.89 2.06-3.14 1.5 1.06-.87 1.79-1.22 3.14-1.5z"/><path d="m403.33 235.67c2.06-2.85 4.32-5.56 6.63-8.2.17-.13.45-.2.64-.2 4.13-.08 8.22.2 12.31.72-3.62.29-8.58.21-12.25.26-.01 0-.19.01-.09 0 .05.01.15-.18.08-.08-2.33 2.6-4.75 5.14-7.32 7.5z"/><path d="m410.32 227.81c-4.59-3.4-10.2-4.96-14.83-8.42-.15-.11-.15-.35 0-.46 1.57-1.17 2.9-2.68 4.15-4.22 1.24-1.55 2.4-3.18 3.48-4.85.08-.13.23-.21.37-.22l14.41-.99c.11 0 .56-.04.68-.05s.24-.03.36.04c2.62 3.71 4.49 7.91 6.59 11.93-2.04-3.82-4.54-8.16-6.74-11.52-.22.02-.62.06-.84.09 0 0-14.36 1.49-14.36 1.49l.37-.22c-1.16 1.65-2.39 3.26-3.7 4.79-1.33 1.52-2.72 3.02-4.41 4.19l.01-.47c4.38 3.54 9.99 5.34 14.46 8.89z"/><path d="m403.48 236c2.82 2.96 5.32 5.96 7.69 9.28-3.34-2.33-6.02-5.57-7.69-9.28z"/><path d="m403.54 210.14c-2.8-2.94-5.57-5.9-8.3-8.89-.08-.09-.1-.23-.05-.33 1.37-3.22 2.95-6.25 4.91-9.22.29-.43.94-.72 1.44-.72 6.01-.07 12.09-.35 18.06-.96.02-.01.71-.07.72-.08.06.02-.07-.06.32.05.08.04.14.09.17.14 1.57 2.87 2.94 7.05 4.2 10.09.04.09.02.2-.03.27-1.02 1.4-2.05 2.79-3.09 4.18s-2.07 2.78-3.13 4.16c1.89-2.91 3.8-5.8 5.75-8.67 0 0-.03.27-.03.27-1.35-3.16-2.72-6.36-4.17-9.44-.01-.04-.16-.27-.17-.3 0 0 .07.07.12.09.34.07.16.01.17.03-.01-.01-.69.09-.72.08-4.7.53-9.51.91-14.24.96 0 0-2.6.02-2.6.02-.7.06-1.61-.22-2.07.37-1.84 2.79-3.59 5.83-5.03 8.92l-.05-.33c2.64 3.07 5.24 6.17 7.82 9.31z"/><path d="m379.73 184.06c.76-.02 13.23-.41 13.44-.41.16 0 .44.14.44.16 1.16.89 2.18 1.96 3.22 2.97 1.43 1.39 2.79 2.85 4.27 4.19-2.49-1.49-4.85-3.68-7.06-5.56-.26-.22-.71-.62-.99-.8 0 0 .02.02.04.02-3.91.22-9.09.14-13.36-.57z"/><path d="m374.12 166.38c4.52-.37 9.05-.59 13.59-.77.44-.02 1.08-.03 1.51.27.38.3.54.4 1.03.62 3.38 1.54 6.73 3.33 9.48 5.87.14.13.18.33.1.5-.95 2.02-2.15 3.82-3.26 5.69-1.13 1.86-2.31 3.68-3.39 5.57.85-2 1.86-3.94 2.89-5.85.87-1.68 2.21-4.06 2.94-5.76 0 0 .12.52.12.52-1.73-1.44-3.54-2.72-5.53-3.76-1.51-.86-3.08-1.48-4.6-2.36-.23-.17-.29-.29-.54-.35-4.76-.12-9.57.03-14.34-.19z"/><path d="m388.74 166.16c2.16-3.12 3.71-6.58 6.13-9.54 0 0 .04.52.04.52-3.28-2.54-5.18-6.34-8.48-8.8-.41-.3-.74-.32-1.35-.28-4.12.33-9.95.78-14.02 1.01-2.36-1.93-4.38-4.49-6.58-6.68 2.29 2.02 4.55 4.06 6.78 6.15l-.26-.1c2.33-.25 4.66-.52 6.99-.71.65-.03 7.56-.79 8-.64 1.01.21 1.66 1.02 2.37 1.64 2.54 2.43 4.36 5.58 7 7.85.16.13.18.37.04.52-2.47 2.78-4.22 6.21-6.66 9.06z"/><path d="m386.12 147.63c1.94-2.17 3.23-4.86 4.66-7.37 0 0 .07.41.07.41l-4.85-4.15c-1.01-.84-3.08-2.66-4.02-3.32.04.02.16-.04.04-.02l-.8.07c-4.25.35-8.49.71-12.75.94l.25-.14c-.91 1.19-1.77 2.39-2.47 3.7l-2.14 3.94c1.23-2.76 2.23-5.98 4.31-8.17 4.5-.53 9.01-.93 13.51-1.32.02-.02.24.01.41.08 3.18 2.32 6.05 5.22 8.98 7.92.11.1.13.27.05.39-1.56 2.46-3.05 5.08-5.25 7.04z"/><path d="m399.44 172.9c4.04-.3 9.61-.93 13.6-.99.32.01.45-.03.89-.03.49.03.84.36 1.03.57l1.17 1.24c2.27 2.38 4.83 4.94 7.19 7.21.12.11.16.28.1.42-1.12 2.89-2.03 5.85-2.88 8.84.43-3.09 1.19-6.13 2.14-9.1l.1.42c-3-2.6-5.86-5.42-8.53-8.36-.18-.2-.3-.28-.39-.28-4.77-.02-9.63.31-14.42.06z"/><path d="m395.51 156.77c4.65-.62 9.27-1.11 13.95-1.51.6-.04 1.3 0 1.92.27 1.15.52 3.51 2 4.63 2.6 0 0 6.03 3.56 6.03 3.56.21.12.28.39.16.6-2.38 3.62-5.2 6.91-8.1 10.12 0 0 3.78-5.23 3.78-5.23 1.27-1.73 2.44-3.53 3.56-5.34l.15.62-6.09-3.46-3.02-1.77c-1-.59-1.8-1.16-2.99-1.06-4.1.22-9.92.55-13.98.6z"/><path d="m391.16 139.99c4.07-.18 8.13-.58 12.13-1.31.84-.11 2.02-.57 2.87 0 .53.31 1.69 1.11 2.22 1.45 2.84 1.87 5.94 3.95 8.72 5.87.18.12.23.37.12.56-1.51 2.39-3.01 4.77-4.7 7.04-.56.76-1.13 1.51-1.75 2.21.52-.78 1.02-1.58 1.5-2.38 1.38-2.35 2.91-4.93 4.21-7.3 0 0 .13.57.13.57-1.96-1.26-3.92-2.52-5.87-3.81-1.34-.88-3.76-2.51-5.07-3.38-.68-.41-1.43 0-2.25.04-4.05.57-8.18.75-12.26.44z"/><path d="m381.73 132.5c1.91-2.64 3.96-5.29 4.78-8.48.08-.5.52-1.03 1.04-1.06 0 0 1.22-.23 1.22-.23 3.49-.67 8.68-1.53 12.19-2.15.49-.08.95-.22 1.49.01.55.3.74.57 1.08.83 3.14 2.66 6.68 4.76 9.78 7.55.15.12.18.33.07.48-2.34 3.37-4.74 6.78-7.86 9.48 2.82-2.96 5.04-6.45 7.23-9.88 0 0 .07.48.07.48-3.45-2.76-7.35-5.23-10.79-8.03-.24-.1-.65.02-.94.05-3.51.55-8.67 1.41-12.18 1.91l-1.22.18c-.42.06-.43.2-.57.57-.96 3.23-3.21 5.81-5.39 8.29z"/><path d="m416.85 146.35c2.65-.98 5.39-1.3 8.2-.91-2.66.98-5.4 1.28-8.2.91z"/><path d="m421.82 162.07c1.92-.9 3.94-1.12 6.01-.65-1.92.9-3.94 1.11-6.01.65z"/><path d="m423.06 181.19c2.02-.84 4.13-1 6.25-.47-2.03.85-4.13 1-6.25.47z"/><path d="m413.06 129.24c2.35-1.13 4.84-1.59 7.43-1.36-2.34 1.13-4.83 1.58-7.43 1.36z"/><path d="m424.75 200.32c1.44-.62 2.88-.56 4.26.2-1.44.62-2.88.55-4.26-.2z"/><path d="m395.2 201.23c-2.79.9-5.73.18-8.53-.46 2.88-.74 5.68-.02 8.53.46z"/><path d="m368.44 133.84c-3.53-2.86-6.77-6.57-10.12-9.6-.16-.13-.19-.36-.08-.53 1.82-2.72 3.46-5.58 5.26-8.36.52-.7.85-1.48 1.55-2.12.78-.55 1.81-.44 2.64-.61 1.64-.2 3.29-.38 4.93-.52 1.89-.13 3.73-.34 5.63-.32.26.02.57.16.76.33 2.82 3.58 5.32 7.43 7.93 11.16-2.86-3.41-5.59-7.14-8.41-10.56-.21-.18-.46-.15-.91-.11-3.68.24-7.37.62-11.02 1.16-.96.07-1.09.35-1.6 1.1 0 0-.69 1.01-.69 1.01-1.83 2.72-3.47 5.59-5.41 8.29l-.1-.55c.96.86 1.67 1.7 2.49 2.56 2.31 2.47 4.75 5.3 7.15 7.67z"/><path d="m401.95 121.21c1.04-3.44 1.89-7.04 2.52-10.58.17-.67 1-.74 1.54-.84 1.29-.25 2.72-.51 4.01-.71 1.79-.29 3.59-.52 5.4-.69-3.02.96-6.12 1.7-9.21 2.36l-.66.14c-.22.08-.06-.02-.13.08-.65 3.53-1.71 7.08-3.47 10.24z"/><path d="m378.5 112.29c2.39-2.47 4.47-5.22 6.59-7.91.08-.1.18-.15.3-.16 1.78-.18 3.55-.36 5.32-.58 2.25-.25 4.45-.5 6.73-.57.26.01.55.05.82.19.58.24 1.96 2.08 2.41 2.52 1.18 1.34 2.32 2.72 3.45 4.11-1.31-1.21-2.62-2.44-3.88-3.71l-1.89-1.88c-.32-.29-.54-.38-.92-.38-3.97.33-7.96.97-11.95 1.18l.31-.17c-2.26 2.61-4.54 5.26-7.29 7.36z"/><path d="m352.92 103.29c1.69-.2 3.35-.33 5.05-.36.22 0 .52.08.74.25 2.89 3 4.96 6.64 6.73 10.38-1.9-2.31-3.57-4.76-5.31-7.14-.6-.82-1.29-1.82-1.94-2.54-1.26-.34-3.7-.27-5.27-.59z"/><path d="m350.44 83.62c1.79.07 3.58.18 5.37.31 1.06.14 3.09.11 4.11.45.54.21.9.64 1.17 1.02 1.01 1.49 2.06 2.88 3.24 4.21 1.18 1.31 2.43 2.57 3.79 3.7.2.17.23.46.07.66-2.89 3.53-6.09 6.88-9.86 9.47 3.37-3.04 6.33-6.49 9.11-10.06 0 0 .07.66.07.66-1.4-1.16-2.72-2.41-3.91-3.79-1.19-1.36-2.27-2.85-3.21-4.37-.23-.35-.48-.64-.77-.78-.71-.29-3.04-.48-3.85-.63-1.79-.25-3.56-.54-5.33-.85z"/><path d="m352.08 63.57c2.21.07 4.47.2 6.68.36 1.51-.04 2.42 1.46 3.3 2.46 2.3 2.73 4.42 5.62 6.39 8.6.11.16.11.38-.01.53-2.52 3.42-5.62 6.26-8.59 9.26 2.5-3.34 5.45-6.38 7.82-9.8 0 0-.01.53-.01.53-2-2.93-4.11-5.77-6.29-8.58-.45-.52-1.15-1.57-1.63-1.99-.53-.42-1.56-.41-2.4-.56-1.74-.23-3.5-.5-5.26-.81z"/><path d="m367.48 93.77c3.6.23 7.17.76 10.72 1.36.28.03.52.27.68.42.16.16.57.59.73.76 2.14 2.39 4.24 4.9 5.72 7.76-2.15-2.57-4.6-5.14-6.9-7.57-.07-.07-.27-.27-.35-.33-.02-.02-.13-.1-.04-.04.03.01.07.01.09.01l-.08-.02c-3.55-.64-7.09-1.35-10.57-2.35z"/><path d="m367.87 75.12c2.43-.02 5.98.16 8.45.27.1 0 .18.05.24.12 2.87 2.92 5.66 5.92 8.41 8.95.12.13.15.32.09.48-.77 2.01-1.82 3.89-2.99 5.66-1.16 1.78-2.47 3.45-3.85 5.05 2.26-3.52 4.54-7.1 5.95-11.03l.1.49c-2.81-2.97-5.58-5.98-8.27-9.06l.24.12c-2.47-.27-5.95-.68-8.37-1.05z"/><path d="m384.61 84.77c4.06.28 8.03.06 12.1.37.24.04.43.36.59.53.3.36 1.06 1.38 1.36 1.76 1.71 2.26 3.57 4.83 5.36 6.98.13.14.15.35.05.51-1.79 2.76-3.69 5.45-5.82 7.96 1.51-2.49 3.69-5.91 5.09-8.41 0 0 .05.51.05.51-2.27-2.51-4.36-5.44-6.38-8.15-.13-.17-.51-.68-.64-.84 0 .01.03-.01.03.01 0 .01.02.01.01 0h-.09c-3.45-.27-8.35-.51-11.71-1.23z"/><path d="m359.64 64.58c2.55-2.58 4.8-5.43 6.65-8.54.08-.14.23-.19.38-.16 4.13.67 8.52.84 12.72 1.26.25.05.56.04.79.23.24.21.31.34.47.54 1.62 2.23 3.59 5.53 5.08 7.87.18.34.53.79.27 1.49-.7 1.04-1.56 1.9-2.54 2.6-2.42 1.89-4.63 4.14-7.2 5.91 2.38-2 4.39-4.38 6.79-6.41.89-.68 1.65-1.56 2.23-2.46.04-.06-.06-.39-.27-.68-1.5-2.27-3.55-5.58-5.15-7.72-.08-.11-.28-.37-.29-.34.01.01.01 0-.05-.01l-.26-.04c-4.24-.52-8.53-.63-12.75-1.54 0 0 .38-.16.38-.16-1.99 3.06-4.43 5.84-7.25 8.16z"/><path d="m403.66 94.76c2.37-.81 4.85-.94 7.29-.37-2.4.81-4.82.93-7.29.37z"/><path d="m396.97 85.46c2.12-2.02 3.87-4.4 5.69-6.68 0 0-.05.45-.05.45-1.49-2.81-3.71-6.68-5.32-9.37 0 0 .28.21.28.21-3.93-1.13-7.92-2.04-11.89-3.06 2.04.21 4.08.5 6.1.86 2.03.35 4.04.76 6.04 1.28.12.03.22.11.28.21 1.91 3.07 3.68 6.23 5.24 9.5.08.15.06.33-.05.45-1.98 2.16-3.89 4.47-6.32 6.15z"/><path d="m370.71 148.77c-.19 2.35-.2 4.8-1.55 6.81.02-2.35.06-4.9 1.55-6.81z"/><path d="m402.9 78.79c1.91-.87 4.11-.82 5.97.13-2.06.42-3.92.37-5.97-.13z"/><path d="m397.7 69.61c2.26-2.19 4.4-4.53 7.1-6.2.22-.14.65-.21.9-.15 1.69.39 3.24.79 4.86 1.25 1.6.45 3.18.95 4.75 1.52-1.66-.19-3.31-.45-4.93-.77-1.61-.3-3.29-.68-4.83-1.02-.15-.02-.16-.02-.3.04-2.63 1.62-4.89 3.76-7.55 5.33z"/><path d="m366.66 56.05c-2.49-3.96-4.62-7.95-6.53-12.21 3.07 3.51 5.31 7.71 6.53 12.21z"/><path d="m379.85 57.73c2.52-3.69 4.37-7.79 7.53-11.03.12-.12.28-.15.43-.11 2.29.61 4.54 1.33 6.79 2.06 2.59.87 5.17 1.76 7.72 2.75.11.05.11.03.24.1.29 0-.75 1.4-.35.79-.13-.04-.28-.1-.35-.22-.07.14-.14-.63.27-.66.2-.03.07-.01.12-.01.35.05.63.13.97.31.54.31.62 1 .7 1.46.6 3.38 1.25 7.1 1.72 10.48-.88-3.29-1.73-6.98-2.49-10.32-.09-.36-.12-.71-.36-.88-.13-.07-.42-.15-.6-.18.05 0 .09-.01.13-.01.41-.03.33-.79.26-.66-.02-.06-.15-.15-.18-.16l.02.01c.41-.61-.62.79-.34.79.08.05.05.03.03.02-.06-.02-.24-.09-.3-.11-4.73-1.63-9.47-3.24-14.24-4.71l.43-.11c-3.18 3.03-5.27 7.08-8.15 10.4z"/><path d="m360.93 41.22c4.23-3.06 8.24-6.39 12.69-9.15.17-.09.51-.04.7.02 1.76.56 3.32 1.35 4.97 2.09.01.02 6.45 2.92 6.46 2.94.12.05.19.16.21.28.53 3.22 1 6.43 1.73 9.61-1.15-3.06-1.79-6.28-2.5-9.47 0 0 .24.29.24.29-3.75-1.39-7.61-3.39-11.35-4.8-.05-.01-.13-.04-.15-.04 0 .02.03-.04-.01 0l-.28.17c-3.82 2.41-8.8 5.88-12.71 8.06z"/><path d="m403.09 52.13c4.15-1.84 10.17-4.41 14.43-6.17 0 0-.23.46-.23.46-.78-2.76-2.43-9.16-3.26-11.75-2.18-.62-8.79-2.5-11.13-3.17-2.59-.75-5.18-1.52-7.73-2.5l.33-.05c-1.8 1.29-3.53 2.67-5.24 4.08s-3.34 2.92-4.95 4.45c2.95-3.33 6.24-6.37 9.77-9.09.1-.08.22-.09.33-.05 2.53.85 5.14 1.56 7.73 2.29l7.81 2.12c.95.25 1.99.56 2.93.85.46.15.97.26 1.08.84 1.15 3.92 2.11 7.82 3.08 11.78.05.19-.04.39-.23.46-4.33 1.61-10.41 3.96-14.72 5.45z"/><path d="m373.95 32.17c-.86-2.3-.76-4.87.28-7.1.33 2.45.24 4.69-.28 7.1z"/><path d="m395.46 28.25c-1.64-3.58-2.64-7.41-3.23-11.29l.43.4c-2.65-.3-5.2-.99-7.76-1.65 2.66.03 5.27.48 7.85.69.22.02.39.18.42.39.68 3.82 1.53 7.6 2.29 11.46z"/><path d="m392.7 16.88c2.4-1.68 5.04-3.31 6.81-5.67.07-.1.18-.15.3-.13 2.51.49 5.09.75 7.64 1.08 1.59.24 8.33.87 9.75 1.29.22.07.38.33.5.48.2.25.65.94.85 1.21 0 0 2.15 3.23 2.15 3.23 1.41 2.17 2.85 4.32 4.22 6.51.1.16.07.36-.07.49-3.02 2.64-7.22 6.43-10.27 8.95 2.77-2.79 6.85-6.77 9.74-9.53 0 0-.06.5-.06.5-1.9-2.77-5.41-8.1-7.35-10.75-.21-.28-.09-.17-.49-.26-.29-.06-1.11-.17-1.41-.22-5.1-.72-10.24-1.22-15.31-2.39l.31-.12c-1.93 2.37-4.7 3.83-7.31 5.33z"/><path d="m399.96 11.26c-1.21-1.32-1.8-2.91-1.73-4.71 1.22 1.32 1.8 2.92 1.73 4.71z"/><path d="m417.09 14.01c2.47-2.01 5.03-5.08 7.56-6.45-.16-1.01-.31-2.03-.43-3.04-.2-1.49-.33-3-.39-4.51.45 1.45.84 2.91 1.16 4.37.21.91.4 1.84.58 2.76.05.31.14.55-.07.9-.21.3-.37.32-.6.49-2.63 1.73-4.9 4.13-7.81 5.48z"/><path d="m425.57 7.62c4.82.95 9.7 1.65 14.52 2.58.16.05.2 0 .58.19.28.22.61.81.83 1.1 1.79 2.63 3.73 5.54 5.43 8.22.12.18.08.42-.06.56-2.5 2.43-5.07 4.79-7.86 6.88-.93.69-1.89 1.37-2.94 1.86.97-.63 1.86-1.37 2.72-2.13 2.58-2.31 5.02-4.77 7.43-7.25 0 0-.06.57-.06.57-1.21-1.81-4.3-6.41-5.45-8.17-.1-.14-.51-.75-.61-.89.12.09-.11-.01-.21-.02-4.79-1.07-9.64-2-14.32-3.5z"/><path d="m440.41 10.77c2.51-2.46 4.94-4.78 7.92-6.67-1.99 2.86-4.66 5.38-7.92 6.67z"/><path d="m417.67 46.32c4.03.85 9.85 2.19 13.91 3.17 0 0-.33.06-.33.06 1.69-1.28 3.44-2.46 5.18-3.66 1.74-1.19 3.47-2.39 5.16-3.63l-.14.65c-1.11-2.05-1.9-4.16-2.74-6.27-.28-.7-2.58-6.83-2.86-7.33-.49-.41-1.16-.53-1.81-.76 0 0-3.23-1.03-3.23-1.03-2.14-.72-4.29-1.4-6.43-2.15 3.17.77 6.67 1.71 9.84 2.57.67.2 1.48.33 2.09.81.33.37.47.84.68 1.26 1.81 4.11 3.21 8.47 5.32 12.4.12.22.06.5-.15.64-1.72 1.23-3.48 2.41-5.24 3.58s-3.49 2.35-5.22 3.55c-.1.07-.22.09-.33.06-4.03-1.13-9.75-2.68-13.7-3.92z"/><path d="m433.16 61.31c-1.24-3.71-1.81-7.53-1.68-11.44 1.24 3.71 1.8 7.53 1.68 11.44z"/><path d="m446.63 20.11c4.64 1.33 9.2 3.38 13.39 5.7.25.1.37.17.59.08 2.93-1.01 6.42-2.23 9.41-3.16 1.17-.34 2.32-.71 3.5-1.02-1.1.52-2.22.99-3.33 1.48-2 .82-4.77 1.97-6.76 2.72 0 0-1.7.64-1.7.64-.43.14-1.02.44-1.57.34-4.59-2.22-8.88-4.72-13.53-6.78z"/><path d="m459.98 26.38c2.93 4.1 5.72 8.3 7.79 12.94.08.18.02.39-.13.51-3.17 2.81-6.4 6.07-9.71 8.77-.27.24-.63.36-1.01.22-5.15-1.57-10.17-3.58-15-5.95 5.05 1.84 10.14 3.65 15.32 5.07.98-.72 3.27-2.92 4.26-3.8 1.84-1.67 3.64-3.38 5.57-4.99l-.13.51c-1.91-4.63-4.5-8.94-6.96-13.28z"/><path d="m457.34 48.41c1.03 4.17 1.92 8.36 2.77 12.57.03.17-.04.34-.18.44-1.88 1.33-3.85 2.4-5.83 3.48-1.61.83-3.15 1.71-4.84 2.38-.48.06-1.19-.27-1.65-.38-4.29-1.35-8.5-2.86-12.83-4.11 4.71.77 9.3 2.19 13.89 3.45l.38.09c.03-.01-.02.02.01.01 1.53-.7 3.07-1.54 4.57-2.33 1.97-1.05 3.95-2.13 5.79-3.33l-.18.44c-.71-4.22-1.37-8.45-1.9-12.71z"/><path d="m442.71 83.47c2.77-.93 5.56-1.71 8.37-2.41l-.34.53c-.73-4.9-1.33-9.82-1.51-14.78.57 2.42 1.03 4.85 1.42 7.29.4 2.45.72 4.91 1.02 7.38.03.23-.13.43-.34.48-2.86.61-5.73 1.14-8.62 1.51z"/><path d="m466.9 39.08c3.8 1.01 7.4 2.79 10.65 5.02.8.59 1.36.96 2.37.83 2.92-.23 5.86-.4 8.8-.38-2.89.58-5.79.98-8.72 1.33-.5.06-1.11.07-1.67-.16-3.76-2.32-7.36-4.74-11.43-6.64z"/><path d="m459.87 61.18c3.34.5 7.9 2.31 11.12 3.42.04.01.01 0 .01.02-.05-.01.31-.2.31-.2s.61-.37.61-.37c2.23-1.4 6.37-4 8.63-5.42 0 0-.21.47-.21.47-.31-2.28-.59-4.57-.84-6.86-.28-2.29-.5-4.58-.69-6.88.95 4.51 1.73 9.05 2.46 13.6.03.19-.06.37-.21.47-2.35 1.54-4.99 3.2-7.41 4.67-.73.4-1.78 1.14-2.56 1.41-3.87-1.24-7.31-3.23-11.22-4.33z"/><path d="m471.05 65.07 1.59 6.93 1.67 6.9c.04.16-.01.32-.12.43-2.99 2.89-5.93 5.9-9.44 8.16-.07.03-.08.09-.35.12-.27.01-.3-.03-.38-.04-2.51-.69-4.88-1.75-7.24-2.78-2.08-.95-4.13-1.99-5.99-3.32 4.18 2.23 9.14 3.96 13.46 5.22 3.14-2.05 6.36-5.32 9.3-8.01 0 0-.12.43-.12.43-1.01-4.65-1.88-9.32-2.38-14.04z"/><path d="m464.4 87.15c.93 3.59 1.77 8.89 2.5 12.58.04.22-.08.42-.27.51-2.92 1.35-5.77 2.91-8.5 4.62-.61.34-1.38 1.09-2.21.83-.56-.14-1.47-.65-1.99-.86-1.62-.77-5.84-2.91-7.49-3.75 2.55.84 5.29 2.05 7.78 3.06.41.13 1.5.62 1.89.71.17.03.25.02.4-.05 1.49-.97 3.11-2.06 4.7-2.93 1.63-.92 3.31-1.75 5.03-2.5l-.27.51c-.69-4.22-1.08-8.47-1.57-12.73z"/><path d="m455.94 105.31c.82 4.15 1.75 8.25 3 12.28.25.7.6 1.98-.09 2.69-1.25 1.67-2.62 3.39-3.94 5.01-.17.22-.49.47-.83.5-1.16-.06-2.09-.33-3.2-.53 1-.03 2.17.13 3.12.05.36-.05.58-.58.9-1.01l.89-1.32c.73-1.09 1.51-2.18 2.27-3.25.46-.61.12-1.05-.08-1.83-1.22-4.1-1.98-8.33-2.04-12.59z"/><path d="m481.05 58.89c4.53 2.28 8.72 5.09 12.81 8.05 0 0 .42.3.42.3.88.16 1.9.14 2.82.26-1.15.08-2.53.67-3.58-.01-4.4-2.5-8.6-5.32-12.47-8.6z"/><path d="m454.58 125.71c1.75 3.63 3.14 7.5 4.32 11.35.05.21.11.54-.06.87-.29.49-.66.58-1.04.87-1.3.85-2.69 1.57-4.13 2.14 1.42-1.08 3.13-2.24 4.38-3.39-1.22-3.8-2.7-7.82-3.47-11.84z"/><path d="m474.33 78.71c3.66 1.57 6.88 4.08 10.64 5.2.67.2 2.93-.73 3.64-.87 0 0 5.11-1.48 5.11-1.48l-.35.44c.16-4.83.38-9.67.8-14.49.21 4.83.22 9.67.16 14.51 0 .21-.15.39-.35.45l-5.11 1.5c-1.03.21-3.03 1.11-4.1.81-3.89-1.28-6.97-4.01-10.44-6.07z"/><path d="m493.84 82.13c2.69.64 5.09 2.15 6.82 4.31-2.57-1.06-4.76-2.45-6.82-4.31z"/><path d="m485.38 84.64c1.07 4.03 2.48 8.03 3.1 12.14-.09.7-.67 1.23-1.05 1.7l-1.53 1.79c-1.38 1.48-2.41 3.49-4.45 4.21-.25.09-.66 0-.79-.04-4.78-1.28-9.33-3.19-13.88-5.08 4.82 1.28 9.64 3.22 14.47 4.18.95-.34 1.69-1.32 2.38-2.1.98-1.2 2.05-2.42 3.08-3.58.45-.56 1.02-.89.86-1.66-.77-3.81-1.57-7.7-2.19-11.56z"/><path d="m458.89 118.77c6.13 1.11 12.12 3.15 17.72 5.88.48.27.8-.23 1.24-.44 0 0 1.58-.99 1.58-.99l6.38-3.88-.2.49c-1.3-5.1-2.8-10.34-4.39-15.35 1.6 3.67 2.95 7.45 4.14 11.27.41 1.27.76 2.56 1.11 3.85.05.19-.03.39-.19.49 0 0-6.33 3.97-6.33 3.97s-1.6.97-1.6.97c-.6.39-1.39.93-2.14.47-5.55-2.79-11.34-5-17.32-6.73z"/><path d="m458.61 137.67c3.84.58 7.65 1.29 11.46 2.06.93.2 1.72.32 2.61-.04 1.5-.62 3.78-1.64 5.32-2.28.26-.13 1.63-.65 1.8-.78 0-.01-.01.06-.01.04-1.13-3.75-1.96-7.63-2.82-11.46 1.35 3.66 2.59 7.99 3.71 11.29.18.66-.6 1.09-.97 1.21 0 0-1.33.59-1.33.59-1.61.69-3.75 1.67-5.38 2.3-.94.41-2.16.28-3.11.01-3.77-.9-7.55-1.85-11.28-2.94z"/><path d="m456.87 154.74c3.61.52 7.21 1.19 10.78 1.88 1.69.27 2.98-1.52 4.25-2.42 1.22-.96 3.25-2.91 4.03-3.44-.06.07-.08.2-.05.28-.01-.04-.08-.17-.09-.21-1.55-3.38-3.16-6.81-4.03-10.44 1.39 3.52 3.23 6.85 4.93 10.23.11.2.15.53-.05.69-1.33 1.25-2.7 2.46-4.1 3.65-1.46 1.07-3.05 3.02-5.06 2.53-3.57-.84-7.09-1.73-10.61-2.75z"/><path d="m488.02 96.79c3.5 1.81 6.75 3.98 9.92 6.3 0 0-.5-.01-.5-.01.85-.5 1.71-.99 2.59-1.45.87-.47 1.76-.91 2.67-1.32-1.52 1.27-3.13 2.43-4.77 3.54-.15.1-.33.09-.47 0-3.31-2.15-6.5-4.43-9.44-7.06z"/><path d="m486.05 119.71c2.88.47 5.7 1.1 8.46 2.06 0 0-.51.15-.51.15 1.68-2.47 3.41-4.91 5.17-7.33l-.08.36c-.57-3.82-1.08-7.64-1.4-11.5.93 3.75 1.67 7.54 2.35 11.34.02.13-.01.26-.08.36-1.72 2.45-3.47 4.89-5.26 7.28-.12.16-.32.21-.5.13-1.3-.56-2.66-1.04-4.03-1.49z"/><path d="m480.25 136.75c4.34 1.51 8.77 3.72 13.36 4.13 0 0-.23.08-.23.08 2.23-1.51 4.47-3 6.72-4.47l-.18.59c-1.96-4.92-3.86-9.88-5.56-14.9 2.3 4.78 4.41 9.64 6.46 14.53.09.22.01.46-.18.59-2.24 1.51-4.5 2.99-6.76 4.47-1.36.19-2.64-.36-3.83-.68-3.4-1.17-6.66-2.66-9.8-4.34z"/><path d="m476.34 150.97c3.54 1.83 7.12 3.97 11.06 4.71 0 0-.26.04-.26.04 2.73-1.29 5.47-2.55 8.23-3.76l-.26.49c-.57-3.69-1.1-7.39-1.48-11.1.91 3.63 1.66 7.28 2.37 10.95.04.21-.07.41-.26.49-2.81 1.27-5.6 2.76-8.48 3.82-4.07-.88-7.59-3.25-10.92-5.64z"/><path d="m468.41 157.11c.64 2.68 1.21 5.37 1.75 8.07l-.23-.26c4.47 1.24 8.89 2.6 13.31 4l-.33.01c1.98-.8 3.98-1.56 5.97-2.33l-.25.45c-.43-3.21-1-7.73-1.3-10.91.72 3.1 1.52 7.62 2.12 10.78.04.19-.07.37-.24.44-2.09.77-4.13 1.95-6.26 2.48-4.43-1.36-8.84-2.76-13.22-4.29-.12-.04-.22-.14-.23-.26-.41-2.72-.78-5.44-1.09-8.18z"/><path d="m499.56 114.88c2.21-.01 4.23.63 6.02 1.93-2.21.02-4.23-.64-6.02-1.93z"/><path d="m500.36 136.89c3.53 1.01 6.79 2.64 9.7 4.88-3.54-1.01-6.78-2.64-9.7-4.88z"/><path d="m495.56 152.37c4.24 2.26 8.26 4.88 12.2 7.61l-.46-.04c2.49-1.11 5.02-2.14 7.61-3.04-2.35 1.41-4.76 2.69-7.21 3.89-.15.07-.31.06-.44-.03-4.04-2.6-7.99-5.32-11.7-8.39z"/><path d="m469.84 165.38c-.61 2.48-1.62 4.8-2.72 7.09-.1.21-.33.31-.54.25-1.5-.44-2.99-.94-4.43-1.62 1.59.09 3.14.36 4.67.7l-.55.26c1-2.33 2.1-4.6 3.57-6.68z"/><path d="m489.12 166.84c4.04 1.08 7.79 2.99 11.58 4.71-.03.01-.11-.01-.14.02.1-.05.43-.26.53-.33 2.15-1.38 4.23-2.93 6.57-4 .13-.05.37-.14.38-.14 0 0-.05.06-.04.07-.34-2.23-.27-4.55-.5-6.81.64 2.16.7 4.44 1.23 6.62.07.24-.04.65-.3.78-2.2 1.03-4.74 3.01-6.81 4.3-.13.08-.48.3-.62.37-.5.27-1.07-.22-1.46-.36-3.49-1.71-6.87-3.64-10.42-5.23z"/><path d="m508.45 167.67c3.95.96 7.61 2.52 11.02 4.74-3.93-.94-7.64-2.54-11.02-4.74z"/><path d="m466.84 172c1.84 3.41 4.58 8.26 6.48 11.69.08.11.09.48.12.6.07.22-.22.56-.3.75-1.58 1.8-3.27 3.52-5 5.16 1.35-1.96 2.78-3.83 4.26-5.65-.17.28.2-.4.18-.39 0 0-.05.29-.05.29l-.08-.44.06.16c-2.27-3.85-4.41-7.85-5.67-12.17z"/><path d="m482.64 169.24c1.67 3.37 3.19 6.8 4.49 10.33.08.16 0 .5-.11.6-.4.52-.86.98-1.29 1.45-1.04 1.05-2.06 2.13-3.19 3.09-.21.18-.58.16-.84.18-2.79.02-5.56-.17-8.32-.5 2.55-.17 6.12-.21 8.65-.41.93-.92 2.03-2.04 2.98-3.05.42-.44.85-.87 1.22-1.32-.04.05-.04.15-.04.22-1.21-3.52-2.5-7.01-3.55-10.59z"/><path d="m500.74 172.02c1.17 2.36 2.19 4.78 3.21 7.2.07.17.02.36-.12.47-1.25 1.03-2.63 1.63-4.02 2.24-.92.3-1.9.98-2.91.77-.36-.05-1.29-.27-1.65-.35-2.9-.69-5.81-1.41-8.57-2.57 1.45.34 2.92.57 4.38.86 1.21.22 4.87.9 6.01 1.1l.26.04c.68-.16 1.41-.52 2.11-.78 1.34-.57 2.73-1.16 3.83-1.97l-.13.48c-.85-2.48-1.69-4.96-2.4-7.49z"/><path d="m482.09 184.55c1.65 3.28 3.13 6.62 4.57 9.99.07.16.04.34-.06.47-.93 1.12-1.85 2.27-2.8 3.38-.51.56-.86 1.12-1.55 1.67-.7.52-1.59.49-2.37.47-2.91-.11-5.83-.23-8.72-.5 2.91-.22 5.81-.3 8.7-.37 1.79.14 2.19-.7 3.19-1.91.91-1.12 1.85-2.2 2.78-3.31l-.06.47c-1.32-3.43-2.59-6.86-3.68-10.36z"/><path d="m205.29 66.69c2.11-.18 4.08.31 5.85 1.47-2.11.18-4.08-.32-5.85-1.47z"/><path d="m201.66 88.42c1.55-.11 2.88.43 3.92 1.59-1.55.12-2.88-.43-3.92-1.59z"/><path d="m504.03 179.73c3.63 1.49 8.09 3.22 11.76 4.62.19.07.4.14.49.16-.01-.01-.02-.01-.03 0 .48-.21.92-.53 1.38-.83 0 0 4.15-2.91 4.15-2.91-1.46 1.56-2.96 3.09-4.73 4.32-.23.16-.53.33-.83.33-4.31-1.24-8.47-3.15-12.19-5.69z"/><path d="m497.38 182.5c1.4 3.79 2.61 7.65 3.75 11.52.07.23-.04.46-.24.56-.83.41-1.53 1.22-2.25 1.98-.73.77-1.41 1.62-2.44 2.25-.11.07-.23.08-.34.06-3.43-.93-6.52-2.55-9.65-4.15 3.28 1.06 6.51 2.47 9.85 3.24l-.34.06c1.73-1.18 2.72-3.27 4.73-4.3 0 0-.26.57-.26.57-1.04-3.9-2.03-7.82-2.81-11.79z"/><path d="m481.75 199.84c.98 2.8 2.92 8.44 3.85 11.25.06.16.02.34-.08.47-1.82 2.18-3.55 4.49-5.76 6.31-.12.09-.37.16-.53.12-1.17-.07-2.3-.32-3.46-.42 1.22-.15 2.44-.03 3.64-.13.47-.52 1.03-1.13 1.49-1.72 0 0 3.83-4.78 3.83-4.78l-.08.47c-1.22-3.78-2.34-7.62-2.9-11.57z"/><path d="m495.96 198.42c1.49 3.16 2.83 6.38 4.12 9.62.05.14.04.29-.04.41-1.33 2.16-2.56 4.38-4.21 6.33-.08.11-.43.28-.59.21-3.52-.87-6.67-2.68-10.12-3.73.77.08 1.52.26 2.27.45 2.71.66 5.3 1.78 8.01 2.35-.01 0 .08.01-.02 0-.07-.01-.14.01-.19.04-.05.02-.04.02-.01-.01.59-.68 1.08-1.49 1.59-2.26 0 0 2.48-3.86 2.48-3.86l-.04.41c-1.16-3.3-2.28-6.61-3.25-9.96z"/><path d="m516.59 185.12c1.29 2.39 2.28 4.93 3.21 7.48.05.13.01.28-.08.37-1.75 1.67-3.46 3.36-5.6 4.53 0 0 .12-.82.12-.82.73.66 1.32 1.4 1.87 2.16 1.61 2.27 2.9 4.74 4.04 7.26.07.13.04.3-.07.4-1.73 1.58-3.47 3.13-5.26 4.63 1.55-1.75 3.16-3.44 4.79-5.12l-.07.4c-1.76-3.11-3.41-6.44-5.94-8.98-.21-.18-.22-.5-.03-.7 2.03-1.15 3.85-2.77 5.63-4.28l-.1.39c-.79-2.6-1.6-5.17-2.51-7.72z"/><path d="m500.51 194.18c4.6.29 9.09 1.25 13.39 2.88-4.61-.29-9.06-1.25-13.39-2.88z"/><path d="m514.81 211.13c-5.04-.29-9.86-1.5-14.69-2.91 5.04.05 9.94 1.28 14.69 2.91z"/><path d="m479.74 217.69c2.05 2.94 3.61 6.25 4.84 9.6.23.69.56 1.35.72 2.11.04.24-.02.53-.12.73-.65 1.13-1.6 2.07-2.68 2.76.72-.9 1.93-2.24 2.03-3.36-.16-.44-.62-1.4-.83-1.89-1.33-3.29-2.77-6.59-3.96-9.95z"/><path d="m495.67 214.91c1.93 2.54 4.11 4.89 6.61 6.88.28.23.54.41.86.71.74.61.48 1.81.03 2.49 0 0-2.19 3.7-2.19 3.7-.67.94-1 2.1-2.06 2.74-1.11.56-2.38.11-3.44-.02l-2.1-.32c-2.81-.41-5.66-.75-8.45-1.39 1.42.11 2.84.22 4.27.3 2.47.13 6.07.53 8.46.76.65-.02 1.03-.2 1.38-.77 0 0 1.09-1.82 1.09-1.82l2.21-3.64c.28-.51.6-.95.16-1.42-2.68-2.33-5.13-5.08-6.83-8.2z"/><path d="m503.53 223.26c4.53.47 8.96 1.84 13.46 2.41l-.32.07c2.23-1.41 4.23-3.16 5.92-5.18l-.03.55c-2.24-3.56-5.16-6.66-7.76-9.98 3.06 2.97 6.15 5.91 8.55 9.47.12.17.1.4-.03.55-1.71 2.04-4.03 4.41-6.46 5.47-4.57-.7-8.86-2.28-13.33-3.36z"/><path d="m498.36 231.57c2.55 2.26 5.51 4.39 8.14 6.54.09.08.35.29.44.37.11.09.16.15.2.37.02.16-.05.33-.11.41-1.56 1.69-3.15 3.23-4.8 4.81-1.32 1.15-2.99 3.04-4.44 4.01 2.71-3.22 5.46-6.42 8.43-9.39-.04.06-.09.2-.05.34.03.16.28.32.11.18-2.77-2.38-5.69-4.71-7.92-7.64z"/><path d="m516.93 226.15c1.79 1.92 4.25 4.86 5.97 6.89.1.12.11.29.04.43-1.18 2.29-2.42 4.55-3.66 6.8l-.12-.62c.67.56 1.2 1.2 1.7 1.84 1.62 2.1 3.04 4.33 4.24 6.69.04.12.15.21.08.54-1.58 2.52-3.97 4.44-6.16 6.42 1.83-2.09 3.8-4.13 5.35-6.43.04-.06.08-.17.08-.17.01.13.01.04-.04-.02-.89-1.54-1.88-3.05-2.9-4.51-.92-1.3-1.89-2.62-3-3.62-.17-.16-.21-.41-.1-.6 1.26-2.25 2.53-4.48 3.85-6.7l.04.43c-1.61-2.13-3.88-5.2-5.37-7.37z"/><path d="m506.53 238.97c4.18-.08 8.21.26 12.32 1.06-4.14.58-8.35.21-12.32-1.06z"/><path d="m519.44 192.72c1.89-.46 3.73-.25 5.46.65-1.89.47-3.73.24-5.46-.65z"/><path d="m520.16 206.2c4.11-.59 8.23-.93 12.37-1.17l-.39.22c1.47-2.31 2.82-4.74 4.27-7.08.12-.25.49-.24.6.01 0 0 .01.02.01.02.12-.08-1.05.69-.56.36-.89-1.51-2.43-2.53-3.25-4.09 1.12 1.4 2.78 2.23 3.8 3.72.5-.32-.68.44-.56.36-.01-.01-.03-.04-.04-.05l.57-.02c-.61 1.25-1.24 2.48-1.91 3.7s-1.35 2.42-2.12 3.61c-.09.14-.24.21-.39.22-4.13.21-8.26.33-12.4.19z"/><path d="m522.71 220.85c3.67-.8 7.47-1.3 11.16-1.93.24-.08.75-1.03.96-1.29 0 0 1.06-1.58 1.06-1.58l2.16-3.14 1.07-1.53c.09-.19.09-.17-.06-.38-1.94-1.66-4.63-3.76-6.51-5.48 1.87 1.16 4.48 3.01 6.31 4.29 2.1 1.23.89 2.12-.02 3.62 0 0-2.11 3.17-2.11 3.17l-1.08 1.57c-.42.52-.69 1.31-1.42 1.62-3.83.6-7.65.82-11.52 1.06z"/><path d="m522.51 233.06c3.64-1.1 7.42-1.76 11.21-2.11 1.3.02 1.76-.97 2.79-1.86 1.21-1.16 2.42-2.31 3.66-3.45l.01.62c-2.13-2.23-3.96-4.65-5.96-6.99 2.33 1.96 4.37 4.29 6.57 6.36.18.17.18.45.01.62-1.19 1.2-2.4 2.39-3.61 3.57-.63.56-1.21 1.27-1.96 1.75-.49.29-1.02.31-1.43.34-3.78.21-7.54.64-11.29 1.15z"/><path d="m524.64 248.13c3.59-.33 7.21-.96 10.75-1.67l.42-.1c-.01 0 .03 0-.03.03.04-.04.19-.19.23-.23 1.81-1.96 3.76-3.94 5.39-6.03.03-.02.08-.19.04 0-.01.04.02.09.01.12-1.08-1.48-3.16-4.24-4.32-5.79-.77-1.08-1.57-2.14-2.32-3.23 2.52 2.64 4.93 5.39 7.2 8.24.1.15.24.3.32.48.13.22-.1.63-.14.68-1.75 2.36-3.75 4.41-5.81 6.47-.26.19-.56.18-.8.25-3.61.58-7.28.99-10.94.78z"/><path d="m535.96 246.7c2.36.83 4.36 2.24 5.93 4.19-2.37-.83-4.35-2.24-5.93-4.19z"/><path d="m546.64 180.5c2.19 1.7 6.56 5.1 8.73 6.82.11.08.13.23.05.34l-4.14 6.62-.06-.47c2.72 2.36 5.4 4.76 8.09 7.15.32.3.74.6 1 1.17.25.53.08 1.18-.12 1.66-1.01 2.53-2.2 4.98-3.55 7.35l-.13-.65 7.34 5.7c.19.14.23.41.11.61-1.96 2.99-3.88 6-5.87 8.96l-.06-.48 7.34 7.16c.09.08.1.22.03.31-1.84 2.6-3.27 5.55-5.15 8.14 1.72-2.74 3.01-5.68 4.77-8.42 0 0 .03.31.03.31l-7.54-6.95c-.14-.13-.16-.33-.06-.48 1.88-3.04 3.83-6.03 5.74-9.04l.11.61-7.4-5.63c-.2-.15-.25-.43-.13-.65 1.34-2.31 2.53-4.72 3.55-7.2.17-.41.25-.72.14-.95-2.66-2.86-5.92-5.37-8.73-8.13-.14-.12-.16-.32-.06-.47l4.32-6.51.05.34c-2.1-1.78-6.32-5.42-8.4-7.22z"/><path d="m536.69 198.32c4.56-2.07 9.33-3.49 14.28-4.24-4.56 2.08-9.33 3.49-14.28 4.24z"/><path d="m539.6 211.25c5.51-.8 11.06-.93 16.6-.36-5.51.81-11.06.92-16.6.36z"/><path d="m540.48 225.95c5.74-.82 11.51-.95 17.29-.39-5.75.82-11.52.94-17.29.39z"/><path d="m541.91 240.13c6.14-.43 12.26-.18 18.34.76-6.14.44-12.26.18-18.34-.76z"/><path d="m561.39 166.58 5.92 2.17c1.97.72 3.94 1.46 5.9 2.21.16.06.23.25.16.4-1.4 2.86-2.98 5.64-4.76 8.29l-.09-.58 11.05 8.38c.2.15.25.42.13.63-1.85 3.34-3.42 6.84-4.63 10.47l-.2-.53 5.84 3.58 1.45.91.74.47c.25.18.56.41.69.83.13.43-.04.82-.18 1.09-1.14 1.97-2.75 4.69-3.91 6.66-.19.37-.54.75-.4 1.14 1.73 1.54 3.72 2.84 5.6 4.24-1.98-1.28-4.02-2.48-5.87-3.99-.39-.51.06-1.17.29-1.62.5-.94 1.93-3.54 2.46-4.51l.82-1.5c.26-.49.63-1.04.51-1.3-.08-.29-.66-.56-1.14-.85l-1.48-.86-5.88-3.51c-.18-.11-.26-.33-.2-.53 1.2-3.69 2.73-7.28 4.63-10.67l.13.63-10.97-8.49c-.18-.14-.22-.39-.09-.58 1.81-2.58 3.47-5.26 4.93-8.06l.15.4c-3.39-1.42-8.19-3.44-11.6-4.92z"/><path d="m561.39 166.58c-2.33 1.83-4.97 3.06-7.88 3.64 2.33-1.84 4.97-3.05 7.88-3.64z"/><path d="m568.25 179.4c-3.98 3.29-8.34 6-13.05 8.12 3.98-3.29 8.35-6 13.05-8.12z"/><path d="m574.64 198.4c-4.7 2.04-9.6 3.43-14.68 4.15 4.7-2.04 9.6-3.42 14.68-4.15z"/><path d="m563.57 216.55c4.93-1.95 10.05-3.24 15.32-3.86-4.94 1.96-10.05 3.24-15.32 3.86z"/><path d="m565.21 232.61c1.67-.71 3.39-.74 5.09-.08-1.68.72-3.4.74-5.09.08z"/><path d="m561.43 166.67c1.54-4.28 2.53-8.74 2.94-13.25.01-.12.1-.22.22-.24 4.43-.95 10.77-2.93 15.19-4.23.14-.04.29-.01.39.07 3.41 2.64 6.82 5.27 10.18 7.99.26.26.81.61 1.02.92.13.14.13.57.05.77-1.29 3.59-3.34 6.83-4.83 10.31 0 0-.15-.55-.15-.55 3.73 2.7 7.49 5.38 11.19 8.13.15.1.19.29.12.45-1.56 3.32-3.42 6.49-5.6 9.43l-.04-.31c2.64 2.11 5.49 3.96 8.32 5.81-2.94-1.69-5.84-3.45-8.6-5.46-.09-.07-.12-.2-.05-.3 2.06-2.99 3.85-6.17 5.3-9.49l.12.45c-3.79-2.62-7.54-5.31-11.3-7.98-.18-.13-.24-.36-.16-.55 1.48-3.32 3.57-7.31 4.78-10.2-3.56-2.98-7.25-5.84-10.9-8.73l.39.07c-5.08 1.47-10.14 2.92-15.33 3.94 0 0 .22-.24.22-.24-.52 4.53-1.7 8.99-3.47 13.19z"/><path d="m573.1 171.23c4.23-1.48 8.6-2.29 13.08-2.41-4.23 1.48-8.6 2.28-13.08 2.41z"/><path d="m579.26 187.83c4.15-1.18 8.4-1.69 12.71-1.51-4.14 1.19-8.39 1.69-12.71 1.51z"/><path d="m583.27 203.98c3.89-1.31 7.9-1.95 12.01-1.89-3.89 1.3-7.91 1.93-12.01 1.89z"/><path d="m564.52 153.01c-1.45-1.07-4.81-3.66-6.19-4.7-.61-.56-1.71-.98-1.79-1.93-.04-.48.11-.91.19-1.33.49-2.22 1.49-6.56 2.01-8.83 0 0 .08.27.08.27l-3.63-3.3c-1.12-1.1-2.63-2.19-3.59-3.47-.53-.82-.47-1.81-.35-2.62.55-3.47 1.39-8.63 1.98-12.12.09-1.12.68-2.29.05-3.24-.2-.27-.49-.52-.81-.79l-7.37-6.48c-.14-.12-.19-.3-.15-.47 1.24-5.58 4.22-10.7 5.23-16.28.02-.5-.23-.84-.72-1.25-2.88-2.44-5.62-5.26-8.8-7.23-.2-.12-.27-.39-.16-.6 1.13-2.09 2.17-4.27 3.09-6.47.93-2.2 1.74-4.46 2.29-6.77l.11.35c-3.01-2.8-5.76-6.09-9.56-7.77-.11-.05-.18-.17-.16-.29.95-6.32 1.17-12.82 2.6-19.07-.36 1.56-.53 3.16-.71 4.76-.53 4.61-.8 9.79-1.37 14.39 0 0-.16-.29-.16-.29 3.93 1.66 6.77 4.95 9.86 7.73.1.09.14.23.11.35-1.09 4.76-3.06 9.21-5.32 13.51 0 0-.16-.59-.16-.59 2.25 1.36 4.16 3.09 6.09 4.76.96.85 1.9 1.69 2.88 2.52.56.43 1.12 1.22 1.05 1.98-.92 5.78-3.99 10.93-5.26 16.49 0 0-.15-.47-.15-.47.55.55 8.05 7.03 8.26 7.46.87 1.15.23 2.71.09 3.91-.59 3.48-1.49 8.62-2.1 12.08-.45 1.84.58 2.71 1.85 3.84 0 0 1.79 1.68 1.79 1.68l3.58 3.36c.08.07.1.17.08.27-.56 2.23-1.64 6.57-2.21 8.79-.24.81-.44 1.64.4 2.17 0 0 1.01.81 1.01.81 1.37 1.11 4.67 3.75 6.04 4.88z"/><path d="m518.44 81.21 8.25 3.28c.09.04.14.14.11.23-1.3 4.16-2.62 8.32-3.72 12.53-.36 1.4-.71 2.81-.93 4.21l-.16-.4c2.14 1.58 4.38 3.03 6.71 4.31.17.09.25.28.23.46-.62 4.64-.99 9.31-1.21 13.99-.07 1.13-.11 2.11.73 2.94 2.51 2.35 5.36 4.53 8.15 6.57.15.11.21.3.16.47-.8 2.68-2.45 5.13-3.81 7.52-.1.19-.22.42-.26.54-.03-.03.02.06.04.12 1.57 2.94 3.5 5.7 5.5 8.37.57.72 1.16 1.45 1.84 2.03.06.05.07.12.04.19l-2.77 5.8 2.51-5.94.04.19c-1.47-1.2-2.57-2.72-3.72-4.21-1.44-1.99-2.89-3.98-4.07-6.14-.05-.15-.16-.28-.09-.54.12-.54 1.41-2.65 1.66-3.18.87-1.62 1.74-3.27 2.25-4.98l.17.47c-1.92-1.36-3.8-2.79-5.63-4.28-1.29-1.21-3.23-2.18-3.66-4.1-.13-.67-.08-1.29-.06-1.87.18-4.71.64-9.4 1.29-14.07l.23.46c-2.36-1.33-4.62-2.81-6.78-4.44-.13-.1-.18-.25-.16-.4.26-1.47.64-2.88 1.04-4.28 1.22-4.2 2.59-8.34 4.07-12.45 0 0 .11.24.11.24z"/><path d="m521.73 101.4c-1.18 1.27-2.67 1.94-4.4 1.95 1.17-1.28 2.67-1.93 4.4-1.95z"/><path d="m527.4 122.02c-1.92 2.26-4.26 3.98-6.99 5.12 1.92-2.25 4.26-3.96 6.99-5.12z"/><path d="m532.33 137.88c-2.1 1.93-4.54 3.28-7.3 4.01 2.09-1.93 4.54-3.27 7.3-4.01z"/><path d="m539.98 148.49c5.53-1.26 11.15-1.84 16.82-1.73-5.54 1.26-11.15 1.83-16.82 1.73z"/><path d="m536.34 129.68c5.11-.83 10.26-.98 15.41-.44-5.11.83-10.26.97-15.41.44z"/><path d="m528.47 105.77c5.58-1.23 11.24-1.79 16.96-1.65-5.59 1.24-11.25 1.78-16.96 1.65z"/><path d="m526.61 84.67c4.5-2.57 9.27-4.51 14.29-5.81-4.5 2.57-9.27 4.51-14.29 5.81z"/><path d="m536.54 57.73c-3.96 2.63-8.22 4.64-12.77 6.02 3.96-2.63 8.23-4.64 12.77-6.02z"/><path d="m579.69 149.36 9.15-8.94-.01.22c-1.39-1.69-2.83-3.35-4.32-4.95s-3.01-3.19-4.71-4.53c-.12-.09-.14-.26-.07-.38l7.51-12.65.06.48c-3.43-3.44-6.75-6.97-9.86-10.73-.12-.15-.13-.35-.04-.5 1.26-2.41 4.4-8.42 5.61-10.74.32-.61 1.07-2.05 1.37-2.63.03-.07-.05.1-.04.16.02.19.03.14.02.14l-.01-.02-.05-.08c-3.47-4.41-7.38-8.51-10.83-12.97-.11-.14-.13-.33-.06-.48 1.5-3.9 2.81-8.06 3.78-12.13-3.37-2.82-7.56-5.56-10.82-8.88-.77-.76-.51-2.08-.17-2.94.57-1.84 3.49-10.98 4.11-12.98 0 0 .06.26.06.26 0-.07-10.28-11.97-10.13-12.09 0 0 4.31-7.02 4.31-7.02l-4.13 7.13-.01-.12 10.39 11.74c.07.07.08.18.06.27l-3.14 10.43-.78 2.61c-.24.79-.56 1.54.05 2.2 3.2 3.14 7.07 5.65 10.55 8.51.21.19.54.43.56.82-.88 4.3-2.26 8.42-3.79 12.57 0 0-.06-.48-.06-.48 3.35 4.23 7.02 8.17 10.42 12.38.08.11.4.52.48.65.14.21.27.42.15.73-.06.13-.16.3-.22.42-1.82 3.48-5.01 9.46-6.86 12.99 0 0-.04-.5-.04-.5 3.05 3.74 6.39 7.25 9.73 10.73.13.13.15.33.06.48l-7.69 12.55-.07-.38c3.4 2.85 6.16 6.29 8.92 9.74.05.06.04.16-.01.22z"/><path d="m538.88 38.62c6.95-2.84 14.1-5.03 21.45-6.56-6.95 2.85-14.11 5.03-21.45 6.56z"/><path d="m546.25 65.48c6.45-2.89 13.13-5.14 20.03-6.72-6.46 2.89-13.14 5.13-20.03 6.72z"/><path d="m550.57 87.09c3.09-1.35 6.33-2.03 9.7-2.04-3.09 1.36-6.34 2.04-9.7 2.04z"/><path d="m553.87 111.89c2.26-.83 4.58-.98 6.93-.43-2.26.83-4.59.97-6.93.43z"/><path d="m577.79 107.61c-1.14 1.05-2.52 1.46-4.05 1.2 1.14-1.06 2.52-1.46 4.05-1.2z"/><path d="m559.02 136.3c6.82-2.45 13.81-4.24 20.96-5.36-6.81 2.45-13.8 4.23-20.96 5.36z"/><path d="m592.84 30.73c-2.39 3.27-4.23 8.15-5.84 11.21 0 0 13.51 10.16 13.51 10.16 1.08.87 3.18 1.91 1.96 3.57-2.69 3.35-5.68 6.32-8.91 9.12 0 0 .01-.57.01-.57l15.08 14.13c.17.16.19.43.04.61l-9.91 12.46-.02-.62c4.98 5.51 10.19 10.82 15.62 15.89.21.19.2.53-.01.71-3.47 3-6.62 6.39-9.36 10.08l-.02-.56 9.77 11.35c.14.16.13.39 0 .55l-4.27 4.81-4.32 4.76-.04-.49 10.52 8.62.33.27c.16.11.47.5.26.76 0 0-.07.11-.07.11l-.13.18c-2.11 2.61-5.96 6.69-8.19 9.23v-.17l8.56 8.97-8.75-8.79c-.05-.05-.05-.13 0-.17 2.2-2.59 5.91-6.76 7.98-9.37 0 0 .12-.16.12-.16.01-.01.07-.11.06-.09s-.01.06 0 .08c.03-.05-.27-.27-.48-.44l-10.62-8.5c-.15-.12-.17-.35-.04-.49 2.14-2.4 6.39-7.23 8.48-9.66v.55l-9.81-11.31c-.14-.16-.14-.4-.02-.56 2.77-3.75 5.94-7.2 9.46-10.26l-.01.71c-5.48-5.06-10.72-10.38-15.68-15.95-.16-.18-.16-.44-.02-.62l9.96-12.43.04.61-14.99-14.22c-.15-.14-.16-.38-.02-.54 3.19-2.71 6.28-5.69 8.93-8.91.96-1.3-1.01-2.01-1.79-2.78 0 0-13.33-10.4-13.33-10.4 1.4-3.94 3.57-7.92 5.96-11.44z"/><path d="m570.58 43.91c5.36-1.3 10.81-1.93 16.33-1.87-5.36 1.31-10.81 1.93-16.33 1.87z"/><path d="m577.64 68.53c5.05-2.01 10.28-3.36 15.67-4.04-5.05 2.02-10.28 3.36-15.67 4.04z"/><path d="m584.83 94.2c4.37-1.7 8.9-2.73 13.58-3.08-4.37 1.7-8.91 2.72-13.58 3.08z"/><path d="m587.58 118.34c5.64-1.06 11.33-1.44 17.06-1.13-5.63 1.06-11.33 1.43-17.06 1.13z"/><path d="m588.96 140.54c5.55-1.47 11.21-2.28 16.95-2.39-5.55 1.48-11.21 2.27-16.95 2.39z"/><path d="m590.98 158.2c5.87-1.09 11.8-1.51 17.76-1.23-5.87 1.1-11.8 1.51-17.76 1.23z"/><path d="m597.42 176.87c3.47-.72 6.96-.75 10.44-.09-3.46.72-6.96.74-10.44.09z"/><path d="m602.52 54.45c4.24-.98 8.55-1.27 12.89-.88-4.25.99-8.56 1.27-12.89.88z"/><path d="m608.34 78.67c5.21-1.23 10.5-1.78 15.85-1.64-5.2 1.24-10.5 1.78-15.85 1.64z"/><path d="m614.06 107.03c3.64-1.03 7.37-1.39 11.14-1.05-3.64 1.04-7.37 1.39-11.14 1.05z"/><path d="m645.73 116.7c-2.31 3.96-5.71 7.16-8.92 10.38 0 0-.03-.59-.03-.59 3.76 3.21 5.96 7.75 8.39 11.96.1.19.06.42-.08.57l-7.98 8.3.03-.54c2.95 4.32 5.25 8.98 7.34 13.75-2.49-4.51-4.93-9.12-8.01-13.25-.13-.16-.11-.39.03-.54l7.87-8.41-.08.57c-1.68-3.17-3.46-6.33-5.6-9.21-.72-.95-1.48-1.89-2.37-2.61-.16-.13-.19-.37-.06-.53 3.31-3.09 6.82-6.12 9.47-9.85z"/><path d="m614.44 128.54c7.31-1.26 14.69-1.84 22.11-1.73-7.31 1.26-14.69 1.83-22.11 1.73z"/><path d="m617.05 147.32c6.57-.78 13.16-.87 19.75-.27-6.57.77-13.16.86-19.75.27z"/><path d="m670.37 116.01c1.04 4.63 1.94 9.28 2.85 13.94.03.15-.03.29-.13.38-1.56 1.41-3.15 2.79-4.74 4.17-1.43 1.23-3.37 2.94-4.87 4.06 0 0 .1-.7.1-.7 3.21 4.16 6.23 8.64 9.84 12.44 1.74 1.32-4.85 6.13-5.93 7.07 1.88-1.82 3.87-3.58 5.35-5.72.13-.23.41-.65.27-.81-3.78-3.41-7.12-8.42-10.33-12.38-.17-.22-.12-.54.1-.69 2.85-2.21 6.86-5.67 9.65-8.05 0 0-.13.38-.13.38-.71-4.7-1.44-9.39-2.03-14.09z"/><path d="m705.01 128.16c-3.3 2.2-6.86 4.02-10.57 5.43 0 0 .15-.52.15-.52 2.8 3.4 5.67 7.36 8.28 10.93.89 1.24 1.81 2.46 2.67 3.72.15.21.1.5-.1.66-3.04 2.39-7.27 5.84-10.29 8.17 0 0 .07-.52.07-.52 2.38 3.53 5.71 8.6 7.95 12.16-2.55-3.31-6.09-8.28-8.58-11.72-.12-.16-.09-.38.06-.51 1.67-1.42 3.39-2.79 5.08-4.19l5.09-4.16-.09.67-5.29-7.43c-1.79-2.46-3.57-4.92-5.38-7.36-.12-.14-.09-.36.06-.47 3.75-1.33 7.41-2.92 10.89-4.86z"/><path d="m644.72 138.69c6.13-.86 12.29-1.04 18.46-.53-6.13.86-12.29 1.04-18.46.53z"/><path d="m672.81 130.01c7.27.41 14.45 1.49 21.52 3.26-7.27-.4-14.45-1.49-21.52-3.26z"/><path d="m673.27 150.57c7.38 1.23 14.61 3.11 21.64 5.67-7.38-1.22-14.6-3.11-21.64-5.67z"/><path d="m733.28 146.09c-3.99 2.01-8.14 3.71-12.36 5.17l.25-.66c2.63 4.31 5.34 8.59 7.55 13.15.11.21.08.55-.07.74-2.09 2.89-4.44 5.55-6.8 8.21 1.94-2.87 4.34-5.84 6.09-8.64-.35-.88-6.92-11.86-7.55-12.99-.15-.24-.03-.58.25-.66 4.25-1.33 8.45-2.8 12.64-4.32z"/><path d="m754.28 149.79c3.48 2.98 6.14 6.85 8.4 10.81.09.16.13.56-.08.74-.14.17-.64.58-.82.74-2.3 1.92-4.66 3.75-7.05 5.56l.13-.57c.95 1.93 2.01 3.82 3.22 5.62 1.21 1.79 2.51 3.54 3.93 5.2-1.61-1.47-3.11-3.09-4.43-4.84-1.33-1.75-2.53-3.6-3.54-5.56-.1-.2-.04-.44.13-.57 1.86-1.49 5.77-4.54 7.55-6.04.01-.01.18-.17.16-.14-.03.06-.05.13-.07.19-.01.03.03.09.01.04-2.12-3.95-4.52-7.85-7.54-11.18z"/><path d="m793.26 157.36c-2.62 1.84-5.46 3.42-7.98 5.37 0-.01-.04.08.04-.09.01-.14.04-.09.03-.15 0-.03-.03-.07 0-.02l.13.17c1.46 1.76 3.98 4.63 5.45 6.39.46.65 1.09 1.14 1.38 1.95-.01.1-.05.21-.1.3-.22.41-.73.91-1.01 1.26-1.65 1.9-3.34 3.73-5.12 5.5 1.27-1.75 3.18-4.24 4.53-5.98.18-.28.71-.95.83-1.16-.01.03-.01.07.01.09-.06.03.03.14-.05.04-.75-.94-2.83-3.27-3.65-4.22-1.06-1.27-2.18-2.5-3.14-3.86-.07-.12-.22-.38-.14-.58.13-.29.16-.24.29-.38 2.67-1.83 5.59-3.22 8.5-4.63z"/><path d="m705.14 147.99c5.33.27 10.55 1.22 15.64 2.84-5.33-.26-10.55-1.22-15.64-2.84z"/><path d="m728.39 164.1c8.74.38 17.49 1.45 26.06 3.18-8.74-.38-17.49-1.45-26.06-3.18z"/><path d="m762.31 160.95c7.57-.16 15.1.36 22.58 1.58-7.58.16-15.11-.37-22.58-1.58z"/><path d="m791.88 170.99c10.52-1.74 21.21-2.81 31.87-3.18-10.53 1.74-21.22 2.8-31.87 3.18z"/><path d="m61.91 89.4c-.17-.42-.64-.67-1.13-.63l-8.54.74c-11.42.9-15.76 3.49-15.94 3.59-.26.16-.43.41-.48.69-.04.28.05.56.25.77 4.32 4.5 8.12 7.3 12.85 7.03.9-.05 1.84-.22 2.81-.5 2.7-.79 4.42-3.45 6.07-6.03 1.15-1.79 2.35-3.65 3.71-4.52.41-.25.57-.72.4-1.14z"/><path d="m43.64 163.83c-.02-1.04-.04-2.11-.3-3.19-1-4.19-3.96-7.62-7.54-8.73-4.31-1.34-8.88.31-11.96 1.93-.29.15-.49.45-.51.78s.13.65.41.84l19.08 13.29c.18.12.39.18.6.17.2-.01.4-.09.56-.22.33-.28.43-.74.25-1.13-.54-1.13-.56-2.4-.59-3.74z"/></g><path d="m178.47 284.73c-2.95-3.19-16.81-14.87-10.84-20.3 3.85-3.5 10.9 6.37 12.28 9.43 4.1 9.1 8.46 14.33 15.91 20.89.57.5.98.9 1.04 1.66-1.26.6-2.27.23-3.66-.18-5.61-1.63-11.93-8.48-14.73-11.5z" fill="#fff"/><path d="m160.63 258.7c-.9-.72-1.54-1.79-1.73-3.23-.32-2.48-.06-8.29 2.66-10.06 10.23-6.66 9.87 21.92-.93 13.29z" fill="#fff"/><path d="m590.45 45.79c2.65 1.72 14.5 7.5 11.25 12.39-2.09 3.15-8.82-2.55-10.33-4.47-4.51-5.69-8.51-8.6-14.94-11.91-.49-.25-.85-.46-1.03-.99.78-.64 1.56-.56 2.61-.52 4.26.17 9.92 3.87 12.44 5.5z" fill="#fff"/><path d="m607.65 60.98c.76.35 1.41.99 1.79 1.97.67 1.69 1.51 5.84-.09 7.57-6.02 6.51-10.85-13.71-1.7-9.54z" fill="#fff"/><g opacity=".1"><path d="m209.01 231.05c-.08-.21-.17-.43-.25-.64-8.37-22.35-14.91-47.76-29.73-68.48-6.55-9.48-16.27-19.33-27.28-24.79-2.72-1.4-5.67-2.56-8.71-3.45-.95-3.85-2.49-7.58-4.59-11.12-2.09-3.55-4.74-6.92-7.89-10.06-8.32-7.4-18.36-13.11-29.19-17.07 16.37 8.7 25.63 27.48 29.22 45.46 42 1 53 50 72 81 1.53 3.06 3.08 6.71 6.42 9.15z"/><path d="m264.96 91.61c-10.51 15.6-10.9 36.17-6.37 54.28 9 39 12 76 4 115-3.43 18.3-12.76 35.29-26.66 46.67 13.04-4.25 24.43-12.75 31.75-25.26 21.33-35.58 7.34-93.79 2.1-132.64-2.7-19.21-6.4-39.35-4.82-58.05z"/><path d="m323.59 58.89c22.4 41.36 14.37 92.37 30.91 134.48-1.21-12.14-1.92-24.81-3.05-37.39-4.34-43.99-10.35-115.64-58.79-133.62-1.45-.54-2.93-1.03-4.46-1.47-10.6-3.06-21.67-2.52-32.18.27 27.86-.84 53.91 12.97 67.57 37.73z"/><path d="m524.3 190.65c-.39-1.73-.79-3.43-1.24-5.03-4.88-19.34-11.53-37.77-15.51-56.74-4.11-22.53-5.29-45.33-12.47-68.43-5.96-19.56-16.22-39.06-34.87-50.6-5.44-3.36-11.43-5.9-17.65-7.56 2.84 2.54 5.44 5.57 8.04 8.61 9 8 15 18 20 29 22 45 29 95 46 143 1.08 2.71 4.24 6.31 7.7 7.75z"/><path d="m438.63 170.61c-.97-1.91-1.87-3.9-2.13-4.48-1.08-3.14-3.2-9.01-4.36-12.19-4.53-12.46-9.66-25.08-14.17-37.46-1.73-4.74-3.37-9.45-4.83-14.1-2.86-9.86-5.03-17.41-4.15-25.43-4.17 7.84-4.45 18.08-2.41 26.93 13 64 68 121 44 186-1.2 3.09-2.82 5.79-4.77 8.18 16.99-11.47 24.1-31.51 21.86-51.69-3-27.5-17.09-52.15-29.04-75.76z"/><path d="m625.82 92.65c-.01-15.78-5.13-32.72-14.76-45.74 11.9 25.01 9.79 55.38 1.54 80.98-10.9 32.14-19.83 70.2-37.94 100.39 11.81-12.05 21.46-26.3 27.76-38.72 2.63-5.34 5.06-10.95 6.98-17.64.35-1.24.84-2.96 1.37-4.79 2.91-9.64 12.25-46.08 12.25-46.08 1.76-9.29 2.86-18.77 2.8-28.4z"/><path d="m732.74 145.98c-14.08-3.63-19.53-11.66-28-18.16 6.97 9.64 11.34 21.69 21.85 26.07 32 11 64 8 97 16 .42.09.85.18 1.27.28 1.17-10.32-81.99-21.56-92.12-24.19z"/><path d="m563.32 122.68c-1.59 12.92-2.94 27.41-8.65 38.79.95.37 1.89.72 2.84 1.05 10.87-17.98 13.82-43.27 13.82-43.27-2.56-1.11-5.04-2.46-7.41-4.13-1.69-1.35-2.4-2.36-3.13-3.67-.68-1.34-1.42-3.34-1.98-6.33-.55-2.9-.96-6.51-1.12-9.63-.01-5.92 3.63-14.2 7.9-19.01-17.02 10.47-20.11 40.33-2.27 46.2z"/></g></svg>