<svg enable-background="new 0 0 469.08 505.35" viewBox="0 0 469.08 505.35" xmlns="http://www.w3.org/2000/svg" xmlns:xlink="http://www.w3.org/1999/xlink"><clipPath id="a"><path d="m313.87 274.17-12.38 4.98 12.38 4.99-12.94-3.25 7.08 11.31-8.56-10.24-.91 13.31-.92-13.31-8.56 10.24 7.09-11.31-12.94 3.25 12.37-4.99-12.37-4.98 12.94 3.25-7.09-11.31 8.56 10.23.92-13.31.91 13.31 8.56-10.23-7.08 11.31z"/></clipPath><clipPath id="b"><path d="m271.32 189.25-14.29 5.75 14.29 5.75-14.94-3.75 8.18 13.05-9.89-11.81-1.05 15.37-1.06-15.37-9.88 11.81 8.18-13.05-14.94 3.75 14.29-5.75-14.29-5.75 14.94 3.74-8.18-13.05 9.88 11.81 1.06-15.36 1.05 15.36 9.89-11.81-8.18 13.05z"/></clipPath><clipPath id="c"><path d="m243.96 339.39-12.56 5.05 12.56 5.05-13.13-3.29 7.19 11.47-8.69-10.38-.92 13.5-.93-13.5-8.68 10.38 7.18-11.47-13.12 3.29 12.55-5.05-12.55-5.05 13.12 3.29-7.18-11.47 8.68 10.38.93-13.5.92 13.5 8.69-10.38-7.19 11.47z"/></clipPath><path d="m234.54 114.26c-80.93 0-146.53 65.6-146.53 146.53 0 44.1 19.49 83.65 50.32 110.52 7.98 6.96 16.72 13.06 26.09 18.17 20.83 11.37 44.72 17.84 70.12 17.84s49.29-6.47 70.12-17.84c9.36-5.11 18.1-11.22 26.09-18.17 30.83-26.86 50.32-66.41 50.32-110.52 0-80.93-65.61-146.53-146.53-146.53z" fill="#ead9eb"/><path d="m234.54 478.26c-83.25 0-150.73-21.08-150.73-47.09v29.23h.16c3.58 25.01 69.62 44.95 150.57 44.95s146.99-19.94 150.57-44.95h.16v-29.23c0 26.01-67.49 47.09-150.73 47.09z" fill="#95608f"/><path d="m349.65 400.77v10.96c0 19.86-51.54 35.96-115.11 35.96s-115.11-16.1-115.11-35.96v-10.96c-22.22 8.2-35.62 18.81-35.62 30.4 0 26.01 67.48 47.09 150.73 47.09s150.73-21.08 150.73-47.09c0-11.59-13.4-22.19-35.62-30.4z" fill="#ed859e"/><path d="m346.37 399.6c-12.28 15.73-57.69 27.41-111.83 27.41s-99.55-11.68-111.83-27.41c-2.14-2.74-3.28-5.6-3.28-8.55v9.72 10.96c0 19.86 51.54 35.96 115.11 35.96s115.11-16.1 115.11-35.96v-10.96-9.72c0 2.95-1.14 5.81-3.28 8.55z" fill="#95608f"/><path d="m349.54 389.52c-.9-6.71-7.69-12.94-18.79-18.21-7.98 6.96-16.72 13.06-26.09 18.17-20.83 11.37-44.72 17.84-70.12 17.84s-49.29-6.47-70.12-17.84c-9.36-5.11-18.1-11.22-26.09-18.17-11.1 5.27-17.89 11.5-18.79 18.21-.07.51-.11 1.02-.11 1.53 0 2.95 1.14 5.81 3.28 8.55 12.28 15.73 57.69 27.41 111.83 27.41s99.55-11.68 111.83-27.41c2.14-2.74 3.28-5.6 3.28-8.55v-1.53z" fill="#ed859e"/><path d="m321.7 289.19 11.78-40.61-34.94 29.63z" fill="#ed859e"/><path d="m333.48 248.58-42.51 16.36 7.57 13.27z" fill="#fac87d"/><path d="m333.82 288.39-.34-39.81-11.78 40.61z" fill="#95608f"/><path d="m321.7 289.19-23.16-10.98-48.02 96 7.6 2.76z" fill="#fac87d"/><path d="m290.97 264.94-21.26 48.08-16.09 36.4-7.55 17.08-2.32 5.25 6.77 2.46 48.02-96z" fill="#ed859e"/><path d="m333.82 288.39-12.12.8-63.58 87.78 6.81 2.47z" fill="#95608f"/><path d="m220.24 219.11-18.98 6.6 1.57 10.69 15.53 6.43z" fill="#95608f"/><path d="m213.18 262.38 10.3 50.31-5.12-69.86-15.53-6.43 3.13 21.32z" fill="#fac87d"/><path d="m242.61 166.12-41.35 59.59 18.98-6.6z" fill="#ed859e"/><path d="m220.24 219.11-1.88 23.72 45.62.25-1.15-24.46z" fill="#ed859e"/><path d="m283.73 223.87-20.9-5.25 1.15 24.46 17.85-7.16z" fill="#95608f"/><path d="m263.98 243.08-10.36 106.34 16.09-36.4 12.12-77.1z" fill="#95608f"/><path d="m283.73 223.87-41.12-57.75 20.22 52.5z" fill="#95608f"/><path d="m262.83 218.62-20.22-52.5-22.37 52.99z" fill="#fac87d"/><path d="m263.98 243.08-45.62-.25 5.12 69.86 10.84 52.88 11.75.93 7.55-17.08z" fill="#fac87d"/><path d="m189.93 291.99-17.86-4.26 40.15 93.42 13.4-3.85-31.57-102.28z" fill="#95608f"/><path d="m223.48 312.69-10.3-50.31-19.13 12.64 31.57 102.28 10.48-3.02-1.78-8.71z" fill="#ed859e"/><path d="m213.18 262.38-7.22-4.66-48.98-31.68 37.07 48.98z" fill="#95608f"/><path d="m156.98 226.04-4.52 61.82 19.61-.13z" fill="#ed859e"/><path d="m207.3 382.56 4.92-1.41-40.15-93.42-19.61.13z" fill="#fac87d"/><path d="m189.93 291.99 4.12-16.97-37.07-48.98 15.09 61.69z" fill="#fac87d"/><g fill="#fff"><path clip-path="url(#a)" d="m283.21 263.03h30.66v32.24h-30.66z"/><circle clip-path="url(#a)" cx="298.54" cy="279.15" r="15.91"/><circle clip-path="url(#a)" cx="298.54" cy="279.15" r="7.95"/><path d="m298.54 267.35 1.53 10.27 10.27 1.53-10.27 1.53-1.53 10.28-1.53-10.28-10.28-1.53 10.28-1.53z" opacity=".8"/><path clip-path="url(#b)" d="m235.92 176.39h35.4v37.22h-35.4z"/><circle clip-path="url(#b)" cx="253.62" cy="195" r="18.37"/><circle clip-path="url(#b)" cx="253.62" cy="195" r="9.18"/><path d="m253.62 181.37 1.76 11.86 11.87 1.77-11.87 1.76-1.76 11.87-1.77-11.87-11.86-1.76 11.86-1.77z" opacity=".8"/><path clip-path="url(#c)" d="m212.86 328.09h31.1v32.7h-31.1z"/><circle clip-path="url(#c)" cx="228.41" cy="344.44" r="16.14"/><circle clip-path="url(#c)" cx="228.41" cy="344.44" r="8.07"/><path d="m228.41 332.46 1.55 10.43 10.42 1.55-10.42 1.55-1.55 10.42-1.55-10.42-10.43-1.55 10.43-1.55z" opacity=".8"/><g opacity=".8"><path d="m327.72 181.45c8.22 10.81 13.59 21.66 18.12 32.34 1.42 3.34 2.57 7.19-.83 8.53-4.59 1.82-13.99-2.77-17.43-7.33-3.43-4.57-2.97-8.81-3.31-13.03-.88-10.77-7.88-23.05-19.56-34.31-4.56-4.4-19.97-17.96-3.31-11.25 10.55 4.24 21.47 18.67 26.32 25.05z"/><path d="m352.83 234.66c1.05 1.22 1.74 2.94 1.79 5.15.08 3.24-.79 6.49-1.31 9.68-.98 6.02-3.94 11.43-9.66 5.49-2.15-2.23-3.14-5.34-3.58-8.4-.44-3.11-.34-6.4 1.03-9.23 2.66-5.52 8.71-6.21 11.73-2.69z"/><path d="m140.45 350.18c-5.2-5.61-29.6-26.18-19.08-35.74 6.78-6.16 19.19 11.21 21.61 16.6 7.21 16.02 14.9 25.23 28.02 36.79 1.01.89 1.72 1.58 1.83 2.93-2.22 1.05-4 .4-6.45-.31-9.88-2.9-21-14.95-25.93-20.27z"/><path d="m109.04 304.35c-1.58-1.26-2.72-3.16-3.05-5.69-.56-4.36-.1-14.6 4.69-17.72 18.01-11.71 17.37 38.61-1.64 23.41z"/><path d="m284.63 146.39c.12.11.23.23.34.35 2.46 2.9.76 7.85-2.64 9.17-3.48 1.35-7.36-.57-10.17-3.19-2.04-1.9-3.9-4.86-2.91-7.59 1.39-3.87 6-3.38 8.62-1.65 1.84 1.23 4.99 1.28 6.76 2.91z"/><path d="m105.88 224.87c1.47-12.91 9.11-29.94 22.28-29.77 2.53.03 4.49 2.24 3.44 8.95-1.71 10.93-10.38 26.73-16.2 32.21-7.69 7.24-10.74-.64-9.52-11.39z"/></g></g><circle cx="234.54" cy="41.74" fill="#95608f" r="41.74"/><path d="m135.21 90.32c-21.66-7.89-32.83-31.84-24.95-53.5.45-1.22.95-2.41 1.49-3.56-15.98 1.09-30.59 11.36-36.42 27.37-7.89 21.66 3.29 45.62 24.95 53.5 20.44 7.44 42.91-2.09 52.01-21.38-5.62.38-11.43-.37-17.08-2.43z" fill="#95608f"/><path d="m45.96 176.33c-21.66-7.89-32.83-31.84-24.95-53.5 1.28-3.52 3-6.77 5.05-9.7-10.56 4.29-19.33 12.85-23.53 24.4-7.89 21.66 3.29 45.62 24.95 53.5 18.14 6.6 37.88-.16 48.45-15.25-9.25 3.75-19.86 4.23-29.97.55z" fill="#95608f"/><path d="m335.02 90.32c21.66-7.89 32.83-31.84 24.95-53.5-.45-1.22-.95-2.41-1.49-3.56 15.98 1.09 30.59 11.36 36.42 27.37 7.89 21.66-3.29 45.62-24.95 53.5-20.44 7.44-42.91-2.09-52.01-21.38 5.63.38 11.43-.37 17.08-2.43z" fill="#95608f"/><path d="m423.12 176.33c21.66-7.89 32.83-31.84 24.95-53.5-1.28-3.52-3-6.77-5.05-9.7 10.56 4.29 19.33 12.85 23.53 24.4 7.89 21.66-3.29 45.62-24.95 53.5-18.14 6.6-37.88-.16-48.45-15.25 9.24 3.75 19.85 4.23 29.97.55z" fill="#95608f"/><path d="m263.53 56.02c-.74-1.18-1.83-2.29-3.22-2.43-.68-.07-1.37.11-2.03.3-2.3.66-4.61 1.49-6.43 3.04s-3.07 3.96-2.67 6.31c.1.59.33 1.2.83 1.53.33.22.73.29 1.12.35 5.47.78 16.94-1.87 12.4-9.1z" fill="#ead9eb"/><path d="m260.35 37.82c-1.25 1.56-.67 3.61.2 5.64.8 1.85 3.05 3.02 4.71 2.04 1.26-.75 1.8-2.39 1.93-3.93.12-1.41-.03-2.93-.83-4.07-1.17-1.68-3.47-1.57-5.01-.58-.41.28-.74.58-1 .9z" fill="#ead9eb"/><path d="m229.17 61.45c-1.52-.15-3.29-.14-4.26 1.05-.47.58-.65 1.33-.74 2.07-.36 2.9.66 6.21 3.25 7.55 1.57.81 3.43.77 5.2.71 4.41-.15 12.5 1.21 10.07-5.82-1.66-4.8-9.39-5.15-13.52-5.56z" fill="#ead9eb"/><path d="m373.22 98.22c1.25.26 2 1.47 1.38 4.08-.59 2.5-3.88 3.45-6.13 3.43-3.03-.02-2-3.42-.52-5.09 1.5-1.66 3.76-2.74 5.27-2.42z" fill="#ead9eb"/><path d="m352.41 103.18c-2.15-.1-4.29-.2-6.44-.18-1.24.01-2.51.07-3.68.5-.23.08-.48.21-.56.44-.13.34.17.68.45.91 2.64 2.13 6.18 2.67 9.55 3.06 2.37.27 4.85.5 7.06-.39 1.73-.69 3.54-2.87 1.11-3.88-2.01-.84-5.33-.36-7.49-.46z" fill="#ead9eb"/><path d="m458.5 144.38c.3.77.82 1.65 1.65 1.67.77.02 1.34-.73 1.6-1.45.62-1.73.26-3.67-.33-5.42-.38-1.12-.85-2.21-1.4-3.25-.2-.37-.42-.75-.79-.94-.44-.22-.96-.13-1.44-.02-2.38.51-1.13 2.14-.8 3.82.38 1.89.8 3.78 1.51 5.59z" fill="#ead9eb"/><path d="m427.95 185.23c-.19.1-.4.21-.32.4.14.35 1.03.62 1.68.72 3.88.6 6.84-.13 9.54-.84 1.6-.42 8.89-4.79 1.26-5.92-1.9-.28-4.7 2-5.75 2.52-2.15 1.03-4.28 2.08-6.41 3.12z" fill="#ead9eb"/><path d="m108.56 101.96c3.73-.16 12.11 4.93 5.51 7.73-3.71 1.58-10.28-1.01-13.12-3.51-4.89-4.29 5.66-4.13 7.61-4.22z" fill="#ead9eb"/><path d="m98.45 94.34c-.46-2.36-2.16-4.86-3.92-5.15-1.43-.24-2.87.69-3.61 1.93-.8 1.33-.94 3.03-.37 4.47s1.83 2.59 3.32 3.02c1.14.33 2.43.23 3.44-.4 1.2-.75 1.45-2.28 1.14-3.87z" fill="#ead9eb"/><path d="m35.32 178.47c-.38-.28-.92-.54-1.31-.27-.16.11-.26.28-.34.46-.56 1.17-.68 2.52-.53 3.81.16 1.29.57 2.53 1.04 3.74.19.5.46 1.05.97 1.2.22.06.45.04.67 0 .57-.1 1.15-.32 1.56-.73 2.77-2.77.38-6.41-2.06-8.21z" fill="#ead9eb"/><path d="m18.29 178.17c-.93-.81-1.91-1.77-1.97-3-.04-.85.39-1.68 1.04-2.23s1.48-.85 2.32-.97c2.47-.36 5.61.64 7.58 2.16 1.74 1.35 1.69 2.55 1.46 4.54-.11.95.1 2.82-.53 3.58-.74.89-2.27.43-3.28.14-2.54-.75-4.67-2.51-6.62-4.22z" fill="#ead9eb"/><g opacity=".1"><path d="m239.57 114.35c53.55 16.89 104.51 47.53 123.2 99.85 16.16 43.87 4.01 96.52-13.65 137.92 20-25.05 31.95-56.79 31.95-91.34 0-79.23-62.91-143.77-141.5-146.43z"/><path d="m298.33 453.98c26.41-2.11 51.75-7.39 72.88-23.24 3.78-3.09 6.87-6.97 9.31-11.33-5.74-6.97-16.44-13.31-30.87-18.63v10.96c0 19.86-51.54 35.96-115.11 35.96-13.62 0-26.68-.74-38.81-2.1 34.17 6.57 68.12 9.87 102.6 8.38z"/><path d="m330.75 371.31c-7.98 6.95-16.72 13.06-26.09 18.17-20.83 11.37-44.72 17.84-70.12 17.84-.21 0-.41-.01-.61-.01 20.3 1.79 41.26.43 61.24-1.92 18.18-1.82 37.39-8.86 52.67-20.71-2.79-4.87-8.71-9.39-17.09-13.37z"/></g></svg>