<svg enable-background="new 0 0 216.59 446" viewBox="0 0 216.59 446" xmlns="http://www.w3.org/2000/svg"><path d="m136.05 120.99c24.26 3.63 41.15 11.72 41.15 21.12 0 12.79-31.28 23.16-69.86 23.16s-69.86-10.37-69.86-23.16c0-9.64 17.27-18.09 42.53-21.58z" fill="#ead9eb"/><path d="m131.76 140.66c.42-6.74.93-13.76 4.29-19.62 3.88-6.78 10.95-10.97 16.9-16.02 19.42-16.5 27.38-45.76 17.57-69.27-4.95-11.87-14.44-21.58-25.78-27.51-21.43-11.24-53.61-11.04-74.72.99-10.52 5.99-19.26 15.29-23.94 26.51-9.81 23.52-1.85 52.78 17.57 69.27 5.95 5.06 13.02 9.24 16.9 16.02 3.36 5.86 3.86 12.88 4.29 19.62l.06.01c15.46 3.09 31.39 3.09 46.86 0z" fill="#95608f"/><path d="m107.34 165.28c-38.58 0-69.86-10.37-69.86-23.16v15.87c0 5.14 5.05 9.88 13.59 13.72 1.39.63 2.87 1.23 4.44 1.81 1.02.37 2.08.73 3.17 1.08 12.58 4.05 29.74 6.55 48.66 6.55 18.93 0 36.08-2.5 48.66-6.55 2.18-.7 4.22-1.45 6.12-2.25 1.71-.72 3.3-1.46 4.75-2.24 6.54-3.53 10.33-7.68 10.33-12.12v-15.87c0 12.79-31.28 23.16-69.86 23.16z" fill="#95608f"/><path d="m215.1 236.84c-1.37-12.23-4.79-25.36-14.64-32.74-7.37-5.52-16.98-6.77-25.6-10.01-3.16-1.19-6.33-2.89-9.06-5.02-2.15 3.02-5.1 5.75-8.69 7.93-2.2 1.34-4.93 2.67-7.82 3.96-3.43 1.52-7.08 2.97-10.37 4.24.64 1.4 1.13 2.86 1.29 4.21.15 1.22.03 2.35-.52 3.24-.28.46-1.22 1.69-3.11 1.69-.48 0-1.01-.08-1.61-.27-1.39-.44-2.16-1.92-1.73-3.31.25-.78.82-1.37 1.53-1.65-.01-.02-.02-.05-.03-.08-.19-.58-.47-1.27-.81-1.99-.12.02-.23.03-.35.03-.18 0-.35-.02-.53-.06-.02 0-.04 0-.06-.01-1.11-.25-2.29-.58-3.51-.96-3.43-1.06-7.25-2.55-11.23-4.1s-8.09-3.15-11.85-4.33c-3.09-.97-5.59-1.53-7.63-1.74-4.98-.49-10.12-.65-15.09-.81-6.82-.22-13.87-.44-20.79-1.49-3.19-.49-6.57-1.18-9.66-2.92-.85-.48-1.63-1.03-2.35-1.63-2.75 2.15-5.94 3.88-9.13 5.07-8.62 3.24-18.23 4.49-25.6 10.01-9.85 7.37-13.27 20.51-14.64 32.74-6.08 54.39 6.96 107.65 28.07 158.15 1.82 4.35 3.84 9.07 6.14 13.72 44.11 26.78 99.2 21.76 145.01.33 2.37-4.76 4.45-9.6 6.31-14.05 21.1-50.5 34.14-103.76 28.06-158.15z" fill="#ead9eb"/><path d="m35.71 408.71c3.88 7.83 8.55 15.47 14.42 20.81 15.57 14.19 37.52 16.25 57.64 16.45 20.38.21 42.93-2.1 58.69-16.46 5.79-5.27 10.41-12.77 14.26-20.49-32.44 16.95-100.9 26.47-145.01-.31z" fill="#95608f"/><path d="m156.01 174.6c-12.58 4.05-29.74 6.55-48.66 6.55-18.93 0-36.08-2.5-48.66-6.55h-.01c.18 4.03-1.4 7.65-3.95 10.71.35.26.71.51 1.1.73 2.35 1.33 5.16 1.89 7.85 2.3 6.62 1.01 13.51 1.23 20.17 1.44 5.06.16 10.28.33 15.44.83 2.41.24 5.25.87 8.7 1.95 3.93 1.23 8.13 2.87 12.19 4.45 3.67 1.43 7.18 2.8 10.29 3.79 0-.7.26-1.4.81-1.92 1.05-1.01 2.73-.98 3.74.07.27.28.73.86 1.25 1.61 6-2.31 13.48-5.26 18.1-8.07 3.24-1.97 5.83-4.43 7.57-7.1-2.58-3.08-4.24-7.34-4.06-11.4z" fill="#ead9eb"/><path d="m191.14 283.49c-5.79 49.82-21.58 113.89-37.99 124.73-12.87 7.84-28.83 8.08-43.89 7.53-11.87-.43-24.2-1.34-34.58-7.12-14.68-8.17-22.71-24.48-28.61-40.23-11.45-30.57-18.06-66.54-19.92-99.13z" fill="#ed859e"/><path d="m183.91 272.99c-1.12-.48-2.28-.82-3.46-1.05-1.27 1.34-2.57 2.77-3.26 4.8-.92 2.75.26 4.76-.93 6.74-.26.43-.62.85-1.15 1.29-2.58 2.14-9.82 3-13.14 4.13-4.08 1.39-11.17 5.49-15.42 5.26-3.74-.21-3.87-2.55-7.47-4.25-2.92-1.39-6.56-.86-9.57-2.23-3.61-1.65-9.02-11.27-12.7-19-18.06-2.97-36.02-7.35-53.88-11.33-7.6-1.69-15.53-3.32-23.1-1.47s-16.33 10.07-12.99 17.14c3.59 7.58 16.21 17.1 24.28 19.26s16.54 2.06 24.89 2.35c35.45 1.22 79.46 24 105.61-2.14 2.61-2.61 7.21-2.91 8.79-6.26 2.38-5.01-1.47-11.09-6.5-13.24z" fill="#95608f"/><path d="m183.42 263.55c-1.91-7.11-9.89-17.85-12.13-24.88-3.36-10.53-.55-17.59-4.95-27.78-.47-1.09-1-2.22-1.96-2.93-2.2-1.62-6.94.05-9.81-1.32-2.04-.98-3.52-4.35-5.29-5.68-3.43 1.52-7.08 2.97-10.37 4.24.64 1.4 1.13 2.86 1.29 4.21.85.73 1.54 1.84 1.92 3.41 1.94 7.93-13.16 9-11.03 1.03.61-2.26 2.02-3.94 3.64-4.83-.19-.58-.47-1.27-.81-1.99-.11.02-.23.03-.35.03-.18 0-.35-.02-.53-.06-.02 0-.04 0-.06-.01-1.11-.25-2.29-.58-3.51-.96-4.19 1-9.53 2.14-11.78 4.15-2.84 2.54-1.01 4.59-2.6 8.45-1.16 2.8-3.72 5.03-6.15 6.8-3.48 2.55 2.6 29.6 4.2 34.5.57 1.75 1.93 5.02 3.69 8.72 3.67 7.73 9.08 17.35 12.7 19 3.01 1.37 6.64.85 9.57 2.23 3.6 1.71 3.73 4.05 7.47 4.25 4.25.24 11.34-3.87 15.42-5.26 3.32-1.13 10.56-1.99 13.14-4.13.52-.43.89-.86 1.15-1.29 1.19-1.98.01-3.99.93-6.74.68-2.03 1.99-3.45 3.26-4.8 2.08-2.2 4.07-4.2 2.95-8.36z" fill="#fac87d"/><path d="m183.42 263.55c-1.91-7.11-9.89-17.85-12.13-24.88-3.36-10.53-.55-17.59-4.95-27.78-.47-1.09-1-2.22-1.96-2.93-2.03-1.5-6.22-.19-9.11-1.06 2.4 5.78 4.02 12.11 7.66 17.94 3.15 5.24 0 11.53 2.1 16.78 4.57 11.75 9.14 23.1 12.19 35.05.69-1.99 1.97-3.4 3.23-4.72 2.1-2.24 4.09-4.24 2.97-8.4z" opacity=".1"/><path d="m168.97 250.7c-1.22 19.46-16.5 31.89-35.04 22.17-1.87-1.05-3.61-2.3-5.21-3.69-2.56-3.16-4.78-6.59-6.45-10.32-2.53-5.52-3.74-12.44-1.02-18.21 2.8-5.68 7.63-10.17 13.24-13.11 17.87-8.66 34.12 4.38 34.48 23.16zm-.3-.01c-.53-16.59-17.65-27.74-32.83-20.36-5.04 2.4-9.67 6.53-12.46 11.38-1.77 3.36-2.27 7.3-1.67 11.07.87 5.86 3.87 11.28 7.78 15.69 2.8 2.24 7.03 4.15 10.82 4.77 3.73.71 8.33.4 11.61-.43 9.41-3 16.28-12.25 16.75-22.12z" fill="#95608f"/><path d="m138.56 250.94c.08-7.5-.42-15.22-1.19-22.65 0 0 1.52 1.17 1.52 1.17 2.52 1.94 4.57 4.41 6.48 6.73 1.94 2.42 4.27 4.31 6.2 6.71 1.99 2.41 3.74 4.91 5.54 7.34 1.78 2.45 3.65 4.82 5.67 7.06l-1.37 1.07c.02.05.07.1.12.13.04.02.01.01.02.01.03 0-.07-.03-.1-.04-.89-.23-2.87-.19-3.82-.22-4.58-.79-9.19-1.68-13.71-2.77-6.25-1.53-14.21-3.42-20.49-4.44 3.36-1.7 6.94-3.38 10.14-5.24 3.78-2.22 7.48-4.97 11.53-6.89 3.87-1.82 8.26-3.24 11.31-6.07 0 0 2.19 2.28 2.19 2.28-.73.76-1.11 2.17-1.55 3.84-.51 1.7-1.05 3.19-1.66 4.83-1.17 3.12-2.87 6.22-4.68 9.04-2.54 4.22-5.32 8.56-8.7 12.24-.91 1.25-2.69 2.66-2.93 3.44l-1.79 5.9c.56-7.67 1.12-15.78 1.27-23.47zm.3 0c-.08 5.79 0 11.8.22 17.57 0 0-1.37-.03-1.37-.03.05-.75.34-1.13.58-1.54 4.82-6.15 8.41-13.05 12.22-19.89 1.38-2.84 2.5-5.97 3.45-8.97.49-1.74.92-3.71 2.36-5.17l2.19 2.28c-3.66 3.17-8.05 4.43-12.22 6.26-4.03 1.84-7.63 4.25-11.62 6.35-2.7 1.39-5.49 2.47-8.21 3.61l-.18-1.6c10.39 2.63 20.63 6.17 31.36 7.02 1.41 0 3.67-.49 4.94.26.12.1.23.21.32.34l-1.37 1.07c-2.24-2.14-4.33-4.43-6.31-6.79s-3.81-4.81-5.72-7.11c-1.92-2.35-4.31-4.43-6.03-6.92-1.86-2.48-3.46-4.98-5.63-6.98l1.35-.66c0 3.49-.09 6.98-.17 10.46-.07 2.61-.15 7.84-.16 10.44z" fill="#95608f"/><path d="m166.87 170.11c-1.45.78-3.04 1.53-4.75 2.24.14.49.42.95.84 1.31 1.05.88 1.59 2.67 1.44 4.79-.16 2.35-1.03 4.71-2.48 6.93-1.74 2.67-4.33 5.13-7.57 7.1-4.62 2.81-12.1 5.77-18.1 8.07-.52-.75-.98-1.33-1.25-1.61-1.01-1.05-2.68-1.09-3.74-.07-.54.52-.81 1.22-.81 1.92-3.11-1-6.62-2.36-10.29-3.79-4.06-1.58-8.26-3.22-12.19-4.45-3.44-1.08-6.29-1.72-8.7-1.95-5.16-.5-10.39-.67-15.44-.83-6.66-.21-13.55-.43-20.17-1.44-2.69-.41-5.51-.97-7.85-2.3-.39-.22-.75-.47-1.1-.73-1.65-1.23-2.77-2.83-3.07-4.47-.35-1.92.54-3.2 1.53-4.49 1.01-1.31 2.85-2.65 2.85-2.65-1.57-.58-3.57-1.37-4.96-1.99-3.36 1.79-5.36 6.02-4.62 10.08.5 2.73 2.07 5.25 4.42 7.22.72.6 1.5 1.15 2.35 1.63 3.09 1.75 6.47 2.44 9.66 2.92 6.93 1.05 13.98 1.28 20.79 1.49 4.97.16 10.11.32 15.09.81 2.04.2 4.54.77 7.63 1.74 3.76 1.18 7.87 2.78 11.85 4.33s7.8 3.04 11.23 4.1c1.22.38 2.4.71 3.51.96.02 0 .04 0 .06.01.17.04.35.06.53.06.12 0 .23-.01.35-.03.33.72.62 1.41.81 1.99.01.02.02.05.03.08-.7.29-1.28.87-1.53 1.65-.44 1.39.33 2.88 1.73 3.31.6.19 1.13.27 1.61.27 1.88 0 2.83-1.23 3.11-1.69.55-.89.67-2.02.52-3.24-.17-1.35-.66-2.81-1.29-4.21 3.28-1.27 6.94-2.72 10.37-4.24 2.89-1.29 5.63-2.62 7.82-3.96 3.6-2.19 6.55-4.92 8.69-7.93 2.27-3.2 3.64-6.71 3.88-10.26.26-3.54-.76-6.65-2.79-8.68z" fill="#ed859e"/><g opacity=".1"><path d="m170.51 35.74c-4.95-11.87-14.44-21.58-25.78-27.51-12.33-6.46-28.23-9.13-43.52-7.94 27.26 4.54 51.66 21.34 60.68 48.39 8.39 22.02-2.1 40.89-14.68 59.77-.61.81-1.21 1.66-1.79 2.54 2.5-2 5.1-3.92 7.52-5.97 19.42-16.51 27.38-45.77 17.57-69.28z"/><path d="m215.1 236.84c-1.37-12.23-4.79-25.36-14.64-32.74-7.37-5.52-16.98-6.77-25.61-10.01-3.16-1.19-6.33-2.89-9.06-5.02-.75 1.06-1.61 2.07-2.55 3.05 15.34 8.54 31.32 18.11 36.39 35.86 5.24 16.78 4.19 34.6 3.15 51.38-3.22 35.42-8.81 70.44-11.67 105.55 18.67-47.48 29.66-97.28 23.99-148.07z"/><path d="m183.91 272.99c-1.12-.48-2.28-.82-3.46-1.05-1.27 1.34-2.57 2.77-3.26 4.8-.92 2.75.26 4.76-.93 6.74-.26.43-.62.85-1.15 1.29-2.58 2.14-9.82 3-13.14 4.13-4.08 1.39-11.17 5.49-15.42 5.26-3.74-.21-3.87-2.55-7.47-4.25-2.92-1.39-6.56-.86-9.57-2.24-.17-.08-.36-.19-.54-.31-10.02 2.15-21.21 1.31-30.91-1.46-22.64-6.71-47.38-.77-68.94-9.28 5.12 6.73 15.18 13.82 22 15.64 8.07 2.16 16.54 2.06 24.89 2.35 35.45 1.22 79.46 24 105.61-2.14 2.61-2.61 7.21-2.91 8.79-6.26 2.38-4.99-1.47-11.07-6.5-13.22z"/><path d="m150.19 123.82c.08.04.15.07.23.12 16.07 10.16 9.07 20.22-1.76 24.87-29.89 12.83-47.54 13.23-71.92 14.13 9.25 1.5 19.63 2.34 30.61 2.34 38.58 0 69.85-10.37 69.86-23.16-.01-7.44-10.59-14.06-27.02-18.3z"/></g><g fill="#fff"><path d="m59.68 345.31c1.17 2.01 1.45 4.51.42 6.73-1 2.17-3.54 3.72-5.82 3-1.54-.48-2.62-1.83-3.61-3.1-1.92-2.47-3.9-5.91-2.1-8.47 2.04-2.92 5.89-2.58 8.59-.83 1.04.69 1.9 1.61 2.52 2.67z"/><path d="m93.51 399.34c.91 1.18 1.88 2.63 1.53 4.12-.53 2.26-3.43 2.52-5.56 2.06-9.46-2.02-17.88-8.4-23.59-16.75-2.85-4.17-10.24-31.97-2.91-27.24 5.02 3.24 9.45 16.83 13.33 21.66 5.24 6.52 12.1 9.51 17.2 16.15z"/><path d="m62.01 66.85c.39-1.53.1-3.22-.99-4.49-1.06-1.23-3.02-1.77-4.37-.87-.92.61-1.37 1.69-1.78 2.71-.79 1.98-1.44 4.6.21 5.94 1.89 1.53 4.34.58 5.78-1.07.55-.65.94-1.41 1.15-2.22z"/><path d="m74.02 25.13c.37-.95.74-2.07.23-2.98-.77-1.38-2.72-1.01-4.03-.31-5.81 3.1-10.13 8.85-12.3 15.39-1.09 3.26-.7 22.85 3.21 18.38 2.68-3.06 3.03-12.79 4.66-16.68 2.2-5.26 6.13-8.5 8.23-13.8z"/></g></svg>