<svg enable-background="new 0 0 468.29 522.2" viewBox="0 0 468.29 522.2" xmlns="http://www.w3.org/2000/svg"><path d="m269.06 0c49.45 48.67 94.39 144.83 73.05 211.58.53 4.93 4.12 17.24-.39 23.42-15.2 18.54-44.58 51.94-64.45 58.36-27.79 8.98-33.2 3.64-24.8 18.25 8.41 14.6 24.61 26.22 24.61 26.22s2.12 11.46 16.3 13.55c-5.81 8.54-18.89 4.43-22.32 14.75-2.88 9.42-1.46 12.27-6.24 14.02-6.11 2.24-5.5 6.2-5.73 12.36-69.36 47.61-179.65 52.95-259.09 36.44 133.84 159.51 398.3 106.11 457.41-97.3 42.78-141.6-44.82-295.78-188.35-331.65z" fill="#fac87d"/><g fill="#b5846f"><path d="m278.73 359.18c4.63-.29 8.43 3.17 8.52 7.82-4.64.31-8.41-3.18-8.52-7.82z"/><path d="m286.98 387.45c-7.33.67-15.92-4.11-18.42-11.18 3.77.91 6.82 2.32 10.02 4.19 3.16 1.93 6 3.92 8.4 6.99z"/><path d="m290.73 389.03c7.37 1.15 18.22 2.79 25.46 4.06.6.06 1.22.31 1.55.82 1.42 1.69 3.3 3.07 5.32 4.01 2.25 1.09 4.82 1.46 7.35 1.54-5.08 3.29-12.15 1.77-16.28-2.45 0 0 1.55.82 1.55.82-8.82-.85-18.05-2.96-24.95-8.8z"/><path d="m259.08 392.5c6.45 3.77 13.77 5.41 20.72 8.01 4.35 1.52 8.66 3.02 12.74 5.28-3.15.48-6.28.4-9.42.06-8.24-1-20.6-5.05-24.04-13.35z"/><path d="m342.7 387.94c5.31 5.49 6.37 13.64.29 19.05-2.9 2.8-6.63 4.89-10.71 5.19 1.78-2.05 3.44-3.81 4.97-5.64 6.67-7.52 5.6-9.05 5.45-18.6z"/><path d="m309.26 333.65c3.08 5.56-.58 14.64-7.43 14.58 2.05-5.11 3.56-10.36 7.43-14.58z"/><path d="m286.63 335.78c3.75-1.05 7.51-.35 10.61 1.95.84.62 1.59 1.75 1.4 2.97-.82 3.72-5.88 2.77-8.29 1.24 1.57-1.37 3.1-1.91 4.38-2.92.05-.05.01-.1-.14 0-.18.13-.31.28-.43.52-.17.31-.27.85-.18 1.24.15.75.51.92.4.9-2.86-1.52-5.66-3.05-7.75-5.9z"/><path d="m426.17 226.67c-1.25-.78-30.97-19.29-54.08-26.79-8.74-2.84-20-3.32-25.09-1.06-4.34 1.92-6.42 8.04-7.1 10.59-.26.97.03 1.99.77 2.66.72.66 1.73.86 2.65.53 1.37-.5 13.6-4.69 25.43-1.13 24.78 7.46 54.87 19.53 55.17 19.65s.62.18.93.18c.92 0 1.79-.5 2.23-1.37.58-1.16.19-2.57-.91-3.26z"/><path d="m354.83 230.26c6.9-5.04 17.02-2.75 23.18 2.44 3.04 2.99 3.15 2.95-1.07 2.21-3.19-.54-6.34-1.32-9.43-2.02-3.9-.86-8.65-1.92-12.68-2.63z"/><path d="m348.38 237.05c1.39 8.67 1.47 19.69-5.5 26.18 0 0 .44-2.73.44-2.73 8.56 9.88 22.15 11.7 34.37 9.1 0 0 .26 4.4.26 4.4-5.47-.97-10.62-2.56-15.56-5.05-4.79-2.41-9.46-5.91-11.88-10.78 2.2 2.5 4.86 4.34 7.72 5.84 6.29 3.08 13.32 4.76 20.25 5.54 2.5.23 2.72 3.85.29 4.39-1.71.38-3.42.79-5.15 1.11-11.47 1.94-24.06-1.08-31.93-10.04-1.1-1.32-3.3-3.44-1.3-4.99 6.29-5.1 7.19-15.32 7.99-22.97z"/><path d="m384.91 239.89c7.93 1.61 15.14 9.91 14.68 18.15-5.96-5.35-10.99-11-14.68-18.15z"/><path d="m326.29 267.75c3.08-1.08 5.88-2.65 8.6-4.4 1.3-.87 2.32-2.16 3.82-2.72 1.68-.63 3.23-1.07 5.19-1.02.2 0 .36.19.32.38-.41 2.11-1.5 3.62-2.8 4.83-1.27 1.3-3.18 1.56-4.81 2.13-3.31 1.07-6.82 1.7-10.29 1.29-.26-.02-.29-.43-.03-.49z"/><path d="m332.36 279.41c2.75-2.03 5.29-4.25 7.65-6.7 1.13-1.16 1.85-2.71 3.21-3.64 1.35-.93 2.7-1.84 4.82-2.5.17-.05.34.04.39.21.13 1.1-.01 2.18-.31 3.12-.56 1.8-1.61 3.5-3.22 4.52 0 0-2.39 1.42-2.39 1.42-3.06 1.9-6.43 3.32-9.96 4.04-.26.05-.42-.32-.19-.47z"/><path d="m347.17 284.75c2.04-2.09 3.58-4.52 4.79-7.14.56-1.25.6-2.69 1.43-3.82.96-1.31 1.87-2.39 3.38-3.4.16-.11.38-.08.48.09 1.38 2.53 1.31 5.29-.29 7.44-2.56 3.14-5.59 6.11-9.56 7.27-.25.08-.44-.27-.23-.44z"/><path d="m358.93 287.88c1.95-2.46 3.47-5.17 4.41-8.13.47-1.42.26-2.91.87-4.17.62-1.31 1.16-2.64 2.47-4.34.11-.17.36-.19.5-.04 1.46 1.52 2.02 3.46 1.94 5.32.03 1.9-1.21 3.5-2.19 4.99-1.88 2.92-4.58 5.34-7.71 6.79-.25.1-.48-.23-.29-.42z"/><path d="m391.6 297.09c-10.77 11.47-31.52 10.84-42.11-.57 3.67 1.13 7.12 2.07 10.63 2.71 10.68 2.18 21.05 1.16 31.48-2.14z"/></g><path d="m107.63 463.07c.2-2.02 1.18-3.85 2.76-5.14 1.57-1.29 3.56-1.89 5.58-1.69s3.85 1.18 5.14 2.75c2.66 3.25 2.18 8.06-1.07 10.72-.78.64-1.65 1.1-2.56 1.38-2.88.89-6.14.02-8.16-2.45-1.29-1.56-1.89-3.55-1.69-5.57z" fill="#95608f"/><path d="m83.92 462.22c-.07-2.76 2.12-5.07 4.89-5.13 1.34-.03 2.61.46 3.58 1.38s1.52 2.17 1.55 3.51-.46 2.61-1.38 3.58c-.6.63-1.33 1.08-2.13 1.33-.44.14-.9.21-1.37.22-1.34.03-2.61-.46-3.58-1.38-.97-.93-1.52-2.17-1.56-3.51z" fill="#95608f"/><path d="m426.33 243.14c1.77-.48 3.63-.25 5.23.66s2.75 2.39 3.23 4.17c.49 1.77.25 3.63-.66 5.23s-2.39 2.75-4.16 3.24c-.36.1-.72.17-1.09.21-3.3.36-6.47-1.73-7.38-5.03-1-3.68 1.17-7.48 4.83-8.48z" fill="#95608f"/><path d="m411.36 266.14c.61-.82 1.5-1.35 2.51-1.49 1-.13 2.01.11 2.83.72s1.35 1.5 1.49 2.51c.15 1.01-.11 2.01-.72 2.83-.66.88-1.63 1.39-2.65 1.5-.92.1-1.89-.13-2.69-.73-.82-.61-1.35-1.5-1.49-2.51s.11-2.01.72-2.83z" fill="#95608f"/><g opacity=".1"><path d="m269.06 0c2.78 2.74 5.54 5.63 8.28 8.65 44.79 11.32 87.99 48.34 115.28 86.95 45.29 61.78 69.51 120.03 64.47 196.18-1.11 8.01 1.8 15.07 2.7 23.1.24 2 .44 3.98.61 5.95 35.28-138.55-51.46-285.87-191.34-320.83z"/><path d="m304.17 492.74c-15 8-32.99 9.5-49.99 12.5-40 7-77-4-115-4-7 0-13-5-19-8-6-4-15-5-23-6-13.22-2.36-25.99-4.28-38.53-6.38 86.51 55.82 197.59 53.52 282.42 2.61-13.81-1.4-24.39 3.31-36.9 9.27z"/></g></svg>