<svg enable-background="new 0 0 205.08 633.23" viewBox="0 0 205.08 633.23" xmlns="http://www.w3.org/2000/svg"><path d="m195.99 534.5c-1.64-2.92-3.4-5.67-5.26-8.28 1.93-2.69 3.5-5.66 4.63-8.9 2.54-7.29 1.6-16.43-2.47-23.86-3.59-6.56-9.07-11.01-15.42-12.52-.52-.12-1.03-.14-1.53-.1-.23-.02-.46-.04-.7-.04-5.63 0-10.2 4.67-10.04 10.34.15 5.21 4.47 9.55 9.67 9.74 3.36.12 6.37-1.43 8.28-3.87.28.43.55.87.81 1.34 2.69 4.91 3.39 11.04 1.79 15.62-.47 1.36-1.06 2.65-1.75 3.87-17.32-19.13-41.02-29.13-65.1-37.7-1.51.87-3.26 1.38-5.12 1.38h-22.48c-1.86 0-3.61-.51-5.12-1.38-24.08 8.57-47.78 18.57-65.1 37.7-.68-1.23-1.27-2.52-1.75-3.87-1.6-4.58-.9-10.71 1.79-15.62.26-.47.53-.91.81-1.34 1.91 2.44 4.91 3.99 8.28 3.87 5.2-.19 9.52-4.53 9.67-9.74.16-5.67-4.4-10.34-10.04-10.34-.23 0-.46.02-.7.04-.5-.04-1.02-.02-1.53.1-6.35 1.51-11.83 5.96-15.42 12.52-4.07 7.43-5.01 16.58-2.47 23.86 1.13 3.24 2.69 6.21 4.63 8.9-1.86 2.61-3.62 5.36-5.26 8.28-14.89 26.51-11.37 54.92 9.63 77.93 11.74 12.85 34.2 17.99 52.26 11.95 5.91-1.98 11.06-5.69 14.7-10.42-.1.74-.17 1.49-.17 2.25 0 9.39 7.64 17.02 17.02 17.02 9.39 0 17.02-7.64 17.02-17.02 0-.76-.07-1.51-.17-2.25 3.64 4.73 8.79 8.44 14.7 10.42 18.05 6.04 40.52.91 52.26-11.95 21.02-23.01 24.53-51.41 9.65-77.93zm-14.41.5c.33 1.95.79 4.69.8 5.54.03 3.78-.46 6.77-1.59 9.68-.42 1.07-.91 2.08-1.44 3.01-1.62-3.38-5.06-5.73-9.06-5.73-1.32 0-2.58.26-3.73.73.52-2.44.85-4.88.94-7.32 1.07-.24 2.13-.51 3.17-.82 4.02-1.22 7.68-2.94 10.91-5.09zm-4.28-9.47c-2.72 2.08-5.94 3.71-9.57 4.8-.38.11-.76.2-1.14.3-1.75-8.28-5.98-16.33-12.47-23.86 8.94 5.24 16.64 11.27 23.18 18.76zm-20.91 6.39c-8.32-.06-16.65-2.68-23.03-7.53-8.46-6.43-16.09-21.12-20.26-34.7 24.33 11.45 39.57 26.5 43.29 42.23zm-64.42-42.23c-4.16 13.58-11.79 28.27-20.26 34.7-6.38 4.85-14.71 7.47-23.03 7.53 3.73-15.73 18.97-30.78 43.29-42.23zm-41.01 17.09c-6.49 7.53-10.72 15.58-12.47 23.86-.38-.1-.76-.19-1.14-.3-3.63-1.09-6.85-2.73-9.57-4.8 6.54-7.5 14.24-13.53 23.18-18.76zm-27.46 28.22c3.23 2.15 6.89 3.87 10.92 5.09 1.05.31 2.11.58 3.17.82.09 2.43.41 4.87.94 7.32-1.16-.46-2.41-.73-3.73-.73-3.99 0-7.44 2.35-9.06 5.73-.54-.93-1.03-1.95-1.44-3.01-1.13-2.91-1.63-5.89-1.59-9.68-.01-.86.45-3.59.79-5.54zm-13.02 32.31c-.03-.25-.1-.5-.17-.74.08-5.69 1.12-11.42 3.13-17.11.35 1.52.8 2.99 1.37 4.45 1.08 2.77 5.24 12 13.42 14.38 2.9.84 7.37 1.1 12.27-2.49.03-.02.05-.05.07-.07 1.58-1.12 2.82-2.68 3.55-4.51 4.58 6.25 11.44 10.55 19.55 12.26-.49 0-.97-.01-1.46.01-1.02-.29-2.09-.45-3.2-.45-5.17 0-9.56 3.32-11.2 7.93-1.83-2.47-4.76-4.08-8.06-4.08-5.54 0-10.04 4.5-10.04 10.04 0 .88.12 1.72.34 2.53-3.64-.45-7.46-1.59-10.07-3.31-5.4-3.54-8.24-9.18-9.5-18.84zm69.58 36.19c-2.03 5.13-6.63 9.32-12.31 11.22-14 4.68-32.62.58-41.51-9.16-2.43-2.66-4.57-5.4-6.45-8.22 9.22 3.48 22.89 4.38 28.54-3.8.42-.61.68-1.28.81-1.96 2.14 3.17 5.76 5.26 9.87 5.26 6.56 0 11.9-5.33 11.9-11.89 3.58 1.29 6.73 3.59 8.61 7.08 2.42 4.5 1.63 8.72.54 11.47zm22.48 19.93c-3.98 0-7.22-3.24-7.22-7.22s3.24-7.22 7.22-7.22 7.22 3.24 7.22 7.22-3.24 7.22-7.22 7.22zm14.06-36.22c-2.83 5.26-3.52 11.18-2.03 16.97-3.08-3.08-7.33-4.99-12.02-4.99s-8.94 1.91-12.02 4.98c1.48-5.78.8-11.7-2.03-16.97-3.56-6.62-10.12-11.15-17.72-12.91.79.02 1.57.03 2.38 0 14.53-.5 29.28-8.6 29.35-23.13.03-7.8-5.63-14.84-12.62-15.69-.71-.09-1.4-.02-2.04.16-5.33.24-9.59 4.63-9.59 10.02 0 5.54 4.5 10.04 10.04 10.04 1.1 0 2.16-.19 3.15-.51-.95 2.03-2.66 3.77-5.18 5.26-3.62 2.14-8.65 3.52-13.46 3.68-9.12.33-20.1-3.56-23.63-15.34-.67-2.24-1.09-4.48-1.27-6.72 10.79.08 21.68-3.25 29.99-9.57 12.23-9.29 20.67-28.39 24.66-42.75 3.99 14.35 12.43 33.45 24.66 42.75 8.32 6.32 19.2 9.65 29.99 9.57-.18 2.24-.6 4.49-1.27 6.72-3.53 11.79-14.51 15.67-23.63 15.34-4.81-.16-9.84-1.54-13.46-3.68-2.52-1.49-4.23-3.23-5.18-5.26.99.33 2.05.51 3.15.51 5.54 0 10.04-4.5 10.04-10.04 0-5.39-4.27-9.78-9.59-10.02-.64-.19-1.33-.25-2.04-.16-7 .86-12.66 7.9-12.62 15.69.07 14.53 14.81 22.63 29.35 23.13.8.03 1.59.01 2.38 0-7.63 1.77-14.18 6.3-17.74 12.92zm62.23 18.36c-8.89 9.73-27.51 13.84-41.51 9.16-5.67-1.9-10.27-6.09-12.31-11.22-1.09-2.75-1.88-6.97.54-11.47 1.88-3.49 5.03-5.79 8.61-7.08 0 6.56 5.34 11.89 11.9 11.89 4.1 0 7.73-2.09 9.87-5.26.13.68.39 1.35.81 1.96 5.64 8.17 19.32 7.28 28.54 3.8-1.87 2.81-4.02 5.56-6.45 8.22zm15.77-38.26c-1.27 9.66-4.1 15.3-9.49 18.85-2.6 1.72-6.43 2.85-10.07 3.31.21-.81.34-1.66.34-2.53 0-5.54-4.5-10.04-10.04-10.04-3.31 0-6.23 1.61-8.06 4.08-1.64-4.61-6.04-7.93-11.2-7.93-1.11 0-2.18.16-3.2.45-.49-.02-.97-.02-1.46-.01 8.11-1.71 14.96-6.01 19.55-12.26.73 1.83 1.97 3.39 3.55 4.51.03.02.05.05.07.07 4.9 3.59 9.38 3.34 12.27 2.49 8.17-2.38 12.34-11.61 13.42-14.38.57-1.45 1.02-2.93 1.37-4.45 2 5.69 3.04 11.42 3.13 17.11-.08.23-.15.47-.18.73z" fill="#95608f"/><path d="m119.36 197.34-6.04 193.17h-22.42l-5.18-193.17z" fill="#ed859e"/><path d="m114.05 405.12h-23.02c-4.02 0-7.3-3.29-7.3-7.3 0-4.02 3.29-7.3 7.3-7.3h23.03c4.02 0 7.3 3.29 7.3 7.3 0 4.01-3.29 7.3-7.31 7.3z" fill="#ed859e"/><path d="m114.05 419.73h-23.02c-4.02 0-7.3-3.29-7.3-7.3 0-4.02 3.29-7.3 7.3-7.3h23.03c4.02 0 7.3 3.29 7.3 7.3 0 4.01-3.29 7.3-7.31 7.3z" fill="#fac87d"/><path d="m114.05 434.34h-23.02c-4.02 0-7.3-3.29-7.3-7.3 0-4.02 3.29-7.3 7.3-7.3h23.03c4.02 0 7.3 3.29 7.3 7.3 0 4.01-3.29 7.3-7.31 7.3z" fill="#ed859e"/><path d="m114.05 448.95h-23.02c-4.02 0-7.3-3.29-7.3-7.3 0-4.02 3.29-7.3 7.3-7.3h23.03c4.02 0 7.3 3.29 7.3 7.3 0 4.01-3.29 7.3-7.31 7.3z" fill="#fac87d"/><path d="m114.05 463.56h-23.02c-4.02 0-7.3-3.29-7.3-7.3 0-4.02 3.29-7.3 7.3-7.3h23.03c4.02 0 7.3 3.29 7.3 7.3 0 4.01-3.29 7.3-7.31 7.3z" fill="#ed859e"/><path d="m118.39 483.67h-31.7c-5.53 0-10.06-4.53-10.06-10.06 0-5.53 4.53-10.06 10.06-10.06h31.71c5.53 0 10.06 4.53 10.06 10.06-.01 5.54-4.53 10.06-10.07 10.06z" fill="#fac87d"/><path d="m91.9 32.63h21.27v114.68h-21.27z" fill="#ed859e"/><g fill="#fac87d"><path d="m115.46 153.52h-23.03c-4.02 0-7.3-3.29-7.3-7.3 0-4.02 3.29-7.3 7.3-7.3h23.03c4.02 0 7.3 3.29 7.3 7.3 0 4.01-3.29 7.3-7.3 7.3z"/><path d="m115.46 168.12h-23.03c-4.02 0-7.3-3.29-7.3-7.3 0-4.02 3.29-7.3 7.3-7.3h23.03c4.02 0 7.3 3.29 7.3 7.3 0 4.02-3.29 7.3-7.3 7.3z"/><path d="m115.46 182.73h-23.03c-4.02 0-7.3-3.29-7.3-7.3 0-4.02 3.29-7.3 7.3-7.3h23.03c4.02 0 7.3 3.29 7.3 7.3 0 4.02-3.29 7.3-7.3 7.3z"/><path d="m118.12 200.73h-28.36c-4.95 0-9-4.05-9-9 0-4.95 4.05-9 9-9h28.36c4.95 0 9 4.05 9 9 0 4.95-4.05 9-9 9z"/><path d="m114.05 18.02h-23.03c-4.02 0-7.3 3.29-7.3 7.3 0 4.02 3.29 7.3 7.3 7.3h23.03c4.02 0 7.3-3.29 7.3-7.3.01-4.01-3.28-7.3-7.3-7.3z"/><path d="m116.74 0h-28.41c-4.96 0-9.01 4.06-9.01 9.01 0 4.96 4.06 9.01 9.01 9.01h28.41c4.96 0 9.01-4.06 9.01-9.01.01-4.95-4.05-9.01-9.01-9.01z"/></g><path d="m37.52 45.36h8.99 45.39v54.51h-23.78v-13.84h11.87v-6.82h-11.87v-12.27h-6.82v12.27h-11.87v6.82h11.87v13.84h-23.78v-9.41h-12.84v-45.1z" fill="#ed859e"/><g opacity=".1"><path d="m114.05 390.51h-3.36c3.32 3.2 5.06 7.38 2.19 12.56-.57.77-1.2 1.43-1.84 2.05h3.02c4.02 0 7.3-3.29 7.3-7.3 0-4.02-3.29-7.31-7.31-7.31z"/><path d="m114.05 405.12h-3.36c3.32 3.2 5.06 7.38 2.19 12.56-.57.77-1.2 1.43-1.84 2.05h3.02c4.02 0 7.3-3.29 7.3-7.3 0-4.02-3.29-7.31-7.31-7.31z"/><path d="m114.05 419.73h-3.36c3.32 3.2 5.06 7.38 2.19 12.56-.57.77-1.2 1.43-1.84 2.05h3.02c4.02 0 7.3-3.29 7.3-7.3 0-4.02-3.29-7.31-7.31-7.31z"/><path d="m114.05 434.34h-3.36c3.32 3.2 5.06 7.38 2.19 12.56-.57.77-1.2 1.43-1.84 2.05h3.02c4.02 0 7.3-3.29 7.3-7.3 0-4.02-3.29-7.31-7.31-7.31z"/><path d="m114.05 448.95h-3.36c3.32 3.2 5.06 7.38 2.19 12.56-.57.77-1.2 1.43-1.84 2.05h3.02c4.02 0 7.3-3.29 7.3-7.3 0-4.03-3.29-7.31-7.31-7.31z"/><path d="m118.39 463.56h-4.63c4.58 4.4 6.97 10.17 3.01 17.29-.79 1.05-1.65 1.97-2.54 2.83h4.16c5.53 0 10.06-4.53 10.06-10.06 0-5.54-4.52-10.06-10.06-10.06z"/><path d="m115.46 138.91h-3.36c3.32 3.2 5.06 7.38 2.19 12.56-.57.77-1.2 1.43-1.84 2.05h3.02c4.02 0 7.3-3.29 7.3-7.3-.01-4.03-3.3-7.31-7.31-7.31z"/><path d="m115.46 153.52h-3.36c3.32 3.2 5.06 7.38 2.19 12.56-.57.77-1.2 1.43-1.84 2.05h3.02c4.02 0 7.3-3.29 7.3-7.3-.01-4.03-3.3-7.31-7.31-7.31z"/><path d="m115.46 168.12h-3.36c3.32 3.2 5.06 7.38 2.19 12.56-.57.77-1.2 1.43-1.84 2.05h3.02c4.02 0 7.3-3.29 7.3-7.3-.01-4.02-3.3-7.31-7.31-7.31z"/><path d="m118.12 182.73h-4.14c4.1 3.94 6.23 9.09 2.69 15.46-.71.94-1.47 1.77-2.27 2.53h3.72c4.95 0 9-4.05 9-9 0-4.94-4.05-8.99-9-8.99z"/><path d="m114.05 32.63h-3.36c3.32-3.2 5.06-7.38 2.19-12.56-.57-.77-1.2-1.43-1.84-2.05h3.02c4.02 0 7.3 3.29 7.3 7.3 0 4.03-3.29 7.31-7.31 7.31z"/><path d="m116.74 18.02h-4.15c4.1-3.95 6.24-9.11 2.7-15.49-.71-.94-1.48-1.77-2.27-2.53h3.72c4.96 0 9.01 4.06 9.01 9.01.01 4.96-4.05 9.01-9.01 9.01z"/><path d="m91.9 45.36h-21.65c11.5 16.35 13.1 35.18 12.45 54.51h9.2z"/><path d="m105.92 200.73c.42 37.81 2.86 76.31 1.94 113.98-1 23.09 0 47.19-3.01 71.29-.18 1.47-.33 2.98-.44 4.51h8.91l5.93-189.78z"/><path d="m113.18 138.91v-106.28h-9.23c.58 35.62 3.7 70.8 4.7 106.27h4.53z"/><path d="m195.99 534.5c-1.64-2.92-3.4-5.67-5.26-8.28 1.93-2.69 3.5-5.66 4.63-8.9 2.54-7.29 1.6-16.43-2.47-23.86-3.59-6.56-9.07-11.01-15.42-12.52-.52-.12-1.03-.14-1.53-.1-.23-.02-.46-.04-.7-.04-5.63 0-10.2 4.67-10.04 10.34.15 5.21 4.47 9.55 9.67 9.74 3.36.12 6.37-1.43 8.28-3.87.28.43.55.87.81 1.34 2.69 4.91 3.39 11.04 1.79 15.62-.47 1.36-1.06 2.65-1.75 3.87-16.11-17.78-37.72-27.68-60.03-35.87-1.6 1.07-3.51 1.7-5.57 1.7h-8.43c9.92 4.65 19.27 10.23 26 18.8.88 1.04 1.74 2.1 2.6 3.18 9.54 8.14 15.65 17.09 17.82 26.27-.25 0-.5-.01-.74-.02 5.63 11.16 9.52 22.98 10.5 34.92 4.28 2.49 8.12 2.22 10.7 1.47 8.17-2.38 12.34-11.61 13.42-14.38.57-1.45 1.02-2.93 1.37-4.45 2 5.69 3.04 11.42 3.13 17.11-.07.24-.13.48-.17.74-1.27 9.66-4.1 15.3-9.49 18.85-2.6 1.72-6.43 2.85-10.07 3.31.21-.81.34-1.66.34-2.53 0-5.22-4.01-9.52-9.1-9.99-.43 6.95-1.96 13.89-4.8 20.71 6.69 3.54 16.6 2.42 23.81-.3-1.88 2.81-4.02 5.56-6.45 8.22-6.46 7.07-18.04 11.17-29.27 11.09-2.95 3.36-6.21 6.46-9.71 9.24 16.85 3.36 35.98-1.95 46.49-13.47 21.01-23.02 24.52-51.42 9.64-77.94zm-41.87-27.72c8.93 5.23 16.64 11.26 23.18 18.76-2.72 2.08-5.94 3.71-9.57 4.8-.38.11-.76.2-1.14.3-1.75-8.29-5.98-16.33-12.47-23.86zm26.67 43.43c-.42 1.07-.91 2.08-1.44 3.01-1.62-3.38-5.06-5.73-9.06-5.73-1.32 0-2.58.26-3.73.73.52-2.44.85-4.88.94-7.32 1.07-.24 2.13-.51 3.17-.82 4.03-1.21 7.68-2.93 10.92-5.09.33 1.95.79 4.69.8 5.54.02 3.79-.47 6.77-1.6 9.68z"/></g></svg>