<svg id="Capa_1" enable-background="new 0 0 512.012 512.012" height="512" viewBox="0 0 512.012 512.012" width="512" xmlns="http://www.w3.org/2000/svg"><g><path d="m256.006 512.012c107.6 0 195-88.244 195-196 0-66.177-34.187-100.649-64.35-131.063-29.861-30.11-55.65-56.114-55.65-109.938v-36.211l-25.606 25.605c-15.808 15.807-29.014 34.025-39.267 53.801-8.875-35.701-29.565-62.648-59.52-92.601l-25.607-25.605v36.212c0 69.129-27.208 98.559-56.014 129.717-29.992 32.442-63.986 69.212-63.986 150.083 0 107.587 87.244 196 195 196zm-108.986-325.717c25.167-27.222 53.151-57.491 61.504-114.307 21.213 25.961 32.481 51.589 32.481 88.923v60c0 .101 0 .102 0 .001v20.1h30v-20.1c0-.101 0-.102 0-.001 0-39.144 12.107-77.49 33.925-109.206 9.822 43.345 36.4 70.144 60.425 94.369 29.861 30.11 55.65 56.114 55.65 109.938 0 91.533-74.019 166-165 166s-165-74.467-165-166c.001-69.129 27.209-98.559 56.015-129.717z"/><path d="m256.006 452.012c74.466 0 135-61.427 135-136 0-39.506-16.052-57.406-46.829-88.198-19.327-19.276-17.65-18.381-43.171-45.401v73.599c0 24.813-20.187 45-45 45s-45-20.187-45-45v-113.166c-27.56 35.576-25.283 33.063-39.866 51.279-29.105 36.374-50.134 62.654-50.134 121.886 0 74.466 60.436 136.001 135 136.001zm-75-221.918v25.917c0 41.355 33.645 75 75 75 40.981 0 74.392-33.042 74.992-73.884 22.591 23.059 30.008 34.015 30.008 58.884 0 58.448-47.103 106-105 106s-105-47.552-105-106c0-39.96 11.038-60.93 30-85.917z"/></g></svg>