<svg id="Capa_1" enable-background="new 0 0 512 512" height="512" viewBox="0 0 512 512" width="512" xmlns="http://www.w3.org/2000/svg"><g><g><path d="m417.991 342.51v-174.625c0-19.669-15.945-35.614-35.614-35.614-20.385-.427-37.14 15.98-37.14 36.369v-86.569c0-17.344-14.06-31.403-31.403-31.403-17.344 0-31.403 14.06-31.403 31.403v-43.168c0-17.344-14.06-31.403-31.403-31.403-17.344 0-31.403 14.06-31.403 31.403v27.621c0-17.344-14.06-31.403-31.403-31.403-17.344 0-31.403 14.06-31.403 31.403v64.968c0-17.344-14.06-31.403-31.403-31.403-17.344 0-31.403 14.06-31.403 31.403v211.018c0 89.465 72.526 161.99 161.99 161.99 89.462 0 161.988-72.526 161.988-161.99z" fill="#ffbc8a"/><path d="m417.99 167.89v174.62c0 44.73-18.13 85.23-47.45 114.54-29.31 29.32-69.81 47.45-114.54 47.45-6.15 0-12.22-.34-18.19-1.02 37.47-4.18 71.07-21.14 96.36-46.43 29.31-29.31 47.44-69.81 47.44-114.54v-174.62c0-13.23-7.21-24.77-17.91-30.92 5.29-3 11.4-4.71 17.9-4.71.26 0 .52 0 .78.01 19.67 0 35.61 15.95 35.61 35.62z" fill="#f5a871"/></g><g><g><g><path d="m247.391 294.669-69.507 113.348c-1.743 2.843.302 6.497 3.637 6.497h139.013c3.335 0 5.381-3.654 3.637-6.497l-69.507-113.348c-1.663-2.715-5.608-2.715-7.273 0z" fill="#2db181"/><path d="m254.666 453.479 69.507-113.348c1.743-2.843-.302-6.497-3.637-6.497h-139.014c-3.335 0-5.381 3.654-3.637 6.497l69.507 113.348c1.664 2.716 5.609 2.716 7.274 0z" fill="#fb5532"/><g fill="#158f5e"><path d="m324.172 340.134-20.81 33.94-24.799-40.436h41.968c3.342 0 5.381 3.651 3.641 6.496z"/><path d="m223.494 333.638-24.799 40.436-20.81-33.94c-1.741-2.845.298-6.496 3.641-6.496z"/><path d="m278.563 414.51-23.894 38.974c-1.671 2.706-5.61 2.706-7.281 0l-23.894-38.974z"/></g><path d="m303.357 374.074-24.799 40.441h-55.059l-24.799-40.441 24.799-40.441h55.059z" fill="#7cc9a7"/></g><g><path d="m417.991 279.427c-4.142 0-7.5 3.358-7.5 7.5v55.583c0 85.186-69.304 154.49-154.491 154.49-39.173 0-76.538-14.694-105.21-41.377-3.031-2.821-7.777-2.651-10.6.381-2.821 3.032-2.651 7.778.381 10.6 31.458 29.274 72.451 45.396 115.429 45.396 93.458 0 169.491-76.033 169.491-169.49v-55.583c0-4.142-3.358-7.5-7.5-7.5z"/><path d="m101.509 342.51v-30.867l104.717-16.437c4.092-.642 6.889-4.48 6.246-8.572-.643-4.093-4.48-6.89-8.572-6.246l-102.391 16.072v-96.534c0-4.142-3.358-7.5-7.5-7.5s-7.5 3.358-7.5 7.5v142.584c0 36.891 11.647 71.962 33.684 101.423 1.473 1.969 3.728 3.008 6.012 3.008 1.563 0 3.139-.487 4.486-1.495 3.317-2.481 3.995-7.181 1.514-10.498-20.081-26.846-30.696-58.811-30.696-92.438z"/><path d="m382.452 124.771c-11.035-.21-21.486 3.617-29.715 10.832v-53.532c0-21.451-17.452-38.903-38.903-38.903-9.004 0-17.303 3.075-23.903 8.229v-12.494c-.001-21.451-17.453-38.903-38.905-38.903-20.454 0-37.271 15.866-38.792 35.938-6.618-5.208-14.96-8.317-24.015-8.317-21.451 0-38.903 17.452-38.903 38.903v34.294c-6.6-5.155-14.9-8.229-23.904-8.229-21.451 0-38.903 17.452-38.903 38.903v39.333c0 4.142 3.358 7.5 7.5 7.5s7.5-3.358 7.5-7.5v-39.333c0-13.18 10.723-23.903 23.904-23.903 13.18 0 23.903 10.723 23.903 23.903v94.971h-13.659c-4.142 0-7.5 3.358-7.5 7.5s3.358 7.5 7.5 7.5h177.068c4.142 0 7.5-3.358 7.5-7.5s-3.358-7.5-7.5-7.5h-22.795s0-143.879 0-144.393c0-13.18 10.723-23.903 23.903-23.903s23.903 10.723 23.903 23.903v198.11l-25.73 6.747c-14.994 3.932-28.837 10.548-41.225 19.673l-9.721-15.852c-2.156-3.517-5.906-5.616-10.031-5.616s-7.875 2.1-10.031 5.616l-21.699 35.385h-37.777c-4.255 0-8.189 2.307-10.268 6.02-1.734 3.098-1.936 6.78-.67 10.023l-12.68 2.047c-4.089.66-6.869 4.51-6.209 8.6.595 3.685 3.779 6.306 7.395 6.306.397 0 .8-.032 1.205-.097l18.546-2.994 11.06 18.036-18.41 30.022c-2.224 3.627-2.315 8.187-.237 11.899 2.079 3.713 6.013 6.019 10.268 6.019h37.777l21.699 35.386c2.157 3.516 5.906 5.615 10.031 5.615s7.875-2.099 10.031-5.615l21.699-35.385h37.777c4.255 0 8.189-2.306 10.268-6.019 2.078-3.712 1.987-8.272-.237-11.899l-18.41-30.023 18.41-30.022c2.225-3.627 2.315-8.187.237-11.899-2.078-3.713-6.013-6.02-10.268-6.02h-37.777l-4.108-6.7c11.115-8.391 23.603-14.441 37.161-17.996l31.328-8.215c3.298-.865 5.598-3.845 5.598-7.255 0 0 0-116.852 0-117.328 0-7.828 3.08-15.156 8.673-20.632 5.593-5.477 12.983-8.406 20.809-8.238.052.001.105.001.157.001 15.502 0 28.115 12.612 28.115 28.114v89.941c0 4.142 3.358 7.5 7.5 7.5s7.5-3.358 7.5-7.5v-89.941c-.001-23.747-19.301-43.073-43.04-43.113zm-218.136-58.247c0-13.18 10.723-23.903 23.903-23.903s23.903 10.723 23.903 23.903v159.939h-47.807v-159.939zm62.807 159.939v-187.56c0-13.18 10.723-23.903 23.903-23.903s23.903 10.723 23.903 23.903v187.56zm-39.826 114.671h22.803l-11.402 18.593zm40.399 0h46.665l20.199 32.94-20.2 32.941h-46.665l-20.199-32.94zm-40.399 65.881 11.402-18.593 11.402 18.593zm63.731 38.049-14.134-23.049h28.268zm63.732-38.049h-22.803l11.402-18.594zm0-65.881-11.402 18.593-11.402-18.593zm-77.865-15 14.134-23.049 14.134 23.049z"/><path d="m236.838 381.574h6.691v2.209c0 4.142 3.358 7.5 7.5 7.5s7.5-3.358 7.5-7.5v-2.209h6.69c4.142 0 7.5-3.358 7.5-7.5s-3.358-7.5-7.5-7.5h-28.381c-4.142 0-7.5 3.358-7.5 7.5s3.358 7.5 7.5 7.5z"/></g></g></g></g></svg>