<svg id="Capa_1" enable-background="new 0 0 512 512" height="512" viewBox="0 0 512 512" width="512" xmlns="http://www.w3.org/2000/svg"><g><path d="m136 512h240c24.813 0 45-20.187 45-45v-422c0-24.813-20.187-45-45-45h-240c-24.813 0-45 20.187-45 45v422c0 24.813 20.187 45 45 45zm-15-467c0-8.271 6.729-15 15-15h240c8.271 0 15 6.729 15 15v422c0 8.271-6.729 15-15 15h-240c-8.271 0-15-6.729-15-15z"/><path d="m241 60h30v30h-30z"/><path d="m226 422h60v30h-60z"/><path d="m166 347v45h180v-45c0-13.684-6.148-25.953-15.817-34.213 27.318-27.612 37.403-64.688 26.383-101.576-13.44-44.986-53.854-75.211-100.566-75.211-46.708 0-87.133 30.271-100.593 75.324-11.003 36.832-.909 73.867 26.407 101.465-9.667 8.26-15.814 20.528-15.814 34.211zm150 15h-120v-15c0-8.271 6.729-15 15-15h90c8.271 0 15 6.729 15 15zm-131.848-142.088c8.016-26.835 33.342-53.912 71.848-53.912 38.511 0 63.821 27.02 71.82 53.798 9.274 31.042-2.33 61.451-31.056 82.202h-81.528c-28.724-20.746-40.338-51.113-31.084-82.088z"/></g></svg>