<svg id="Capa_1" enable-background="new 0 0 512 512" height="512" viewBox="0 0 512 512" width="512" xmlns="http://www.w3.org/2000/svg"><g><path d="m241 0h30v61h-30z"/><path d="m61 181h60v30h-60z"/><path d="m391 181h60v30h-60z"/><path d="m342.672 64.328h60v30h-60z" transform="matrix(.707 -.707 .707 .707 53.058 286.751)"/><path d="m124.328 49.327h30v60h-30z" transform="matrix(.707 -.707 .707 .707 -15.285 121.754)"/><path d="m181 388.42v33.58h-75c-24.813 0-45 20.187-45 45s20.187 45 45 45h300c24.813 0 45-20.187 45-45s-20.187-45-45-45h-75v-33.58c4.695 1.665 9.741 2.58 15 2.58h135v-45c0-24.813-20.187-45-45-45h-45v-15c0-41.355-33.645-75-75-75h-120c-41.355 0-75 33.645-75 75v15h-45c-24.813 0-45 20.187-45 45v45h135c5.258 0 10.305-.915 15-2.58zm225 63.58c8.271 0 15 6.729 15 15s-6.729 15-15 15h-300c-8.271 0-15-6.729-15-15s6.729-15 15-15zm-345-106c0-8.271 6.729-15 15-15h75v-45c0-24.813 20.187-45 45-45h120c24.813 0 45 20.187 45 45v45h75c8.271 0 15 6.729 15 15v15h-105c-8.271 0-15-6.729-15-15v-75h-30v151h-90c0-18.475 0-132.692 0-151h-30v75c0 8.271-6.729 15-15 15h-105z"/><path d="m316 151c0-33.084-26.916-60-60-60s-60 26.916-60 60 26.916 60 60 60 60-26.916 60-60zm-60 30c-16.542 0-30-13.458-30-30s13.458-30 30-30 30 13.458 30 30-13.458 30-30 30z"/></g></svg>