<svg id="Capa_1" enable-background="new 0 0 511.919 511.919" height="512" viewBox="0 0 511.919 511.919" width="512" xmlns="http://www.w3.org/2000/svg"><g><path d="m458.886 53.033c-25.612-25.611-65.289-28.789-94.393-9.539-6.069-6.07-33.66-33.661-43.493-43.494l-10.606 10.607c-42.33 42.329-49.966 104.518-26.413 153.692l-283.981 283.98 63.64 63.639 283.98-283.98c49.125 23.529 111.325 15.955 153.691-26.413l10.606-10.607-43.493-43.494c19.251-29.103 16.073-68.78-9.538-94.391zm-137.14-9.86 21.525 21.525c-5.311 7.999-9.003 16.906-10.91 26.315h-30.437c2.488-17.405 9.255-33.775 19.822-47.84zm-258.106 426.319-21.214-21.213 84.853-84.853 21.213 21.214zm106.066-106.065-21.213-21.214 151.88-151.88c3.114 3.882 6.451 7.622 10.021 11.192s7.31 6.907 11.192 10.021zm132.189-242.414h30.443c1.901 9.448 5.603 18.392 10.934 26.421l-21.521 21.522c-10.589-14.094-17.382-30.498-19.856-47.943zm89.011 89.011c-17.445-2.474-33.848-9.267-47.942-19.855l21.53-21.53c8.155 5.393 17.14 9.016 26.412 10.888zm-16.873-72.138c-17.585-17.586-17.588-46.051 0-63.639 17.545-17.544 46.091-17.548 63.641 0 17.545 17.546 17.545 46.094 0 63.64-17.548 17.544-46.095 17.544-63.641-.001zm94.713 52.287c-14.065 10.567-30.436 17.334-47.841 19.821v-30.49c9.235-1.878 18.184-5.492 26.307-10.865z"/></g></svg>