<svg id="Capa_1" enable-background="new 0 0 512 512" height="512" viewBox="0 0 512 512" width="512" xmlns="http://www.w3.org/2000/svg"><g><path d="m344.9 42.8v105.87c0 32.29-17.22 60.54-42.96 76.11-5.46 3.3-9.86 7.91-12.9 13.3-3.03 5.38-4.7 11.54-4.7 17.92 0 12.77 6.67 24.62 17.6 31.22 25.74 15.57 42.96 43.82 42.96 76.11v105.87h-177.8v-105.87c0-32.29 17.22-60.54 42.96-76.11 5.46-3.3 9.86-7.91 12.9-13.3 3.03-5.38 4.7-11.54 4.7-17.92 0-12.77-6.67-24.62-17.6-31.22-25.74-15.57-42.96-43.82-42.96-76.11v-105.87z" fill="#d9ecfd"/><path d="m167.1 42.8v27.83h133.282c9.697 0 17.558 7.861 17.558 17.558v60.482c0 32.29-17.22 60.54-42.96 76.11-5.46 3.3-9.86 7.91-12.9 13.3-3.03 5.38-4.7 11.54-4.7 17.92 0 12.77 6.67 24.62 17.6 31.22 25.74 15.57 42.96 43.82 42.96 76.11v105.87h26.96v-105.87c0-32.29-17.22-60.54-42.96-76.11-10.93-6.6-17.6-18.45-17.6-31.22 0-6.38 1.67-12.54 4.7-17.92 3.04-5.39 7.44-10 12.9-13.3 25.74-15.57 42.96-43.82 42.96-76.11v-105.87z" fill="#b5dbfd"/><path d="m314.9 393.328v35.87c0 5.523-4.477 10-10 10h-97.8c-5.523 0-10-4.477-10-10v-36.502c0-19.153 23.521-54.211 52.99-59.998 4.271-.839 8.519 1.348 10.552 5.196 2.919 5.527 9.445 13.569 23.702 18.387 23.111 7.811 30.556 25.306 30.556 37.047z" fill="#fdd1a7"/><path d="m314.9 393.33v35.87c0 5.523-4.477 10-10 10h-18.34v-40.87c0-11.74-7.45-29.24-30.56-37.05-14.26-4.82-20.78-12.86-23.7-18.39-.4-.75-.88-1.44-1.44-2.06 5.95-3.9 12.43-6.79 19.23-8.13 4.27-.84 8.52 1.35 10.55 5.19 2.92 5.53 9.45 13.57 23.7 18.39 23.12 7.81 30.56 25.31 30.56 37.05z" fill="#ffbc8a"/><g><g><path d="m167.1 35.89v184.77c0 9.019-7.311 16.33-16.33 16.33-9.019 0-16.33-7.311-16.33-16.33v-184.77z" fill="#918291"/><path d="m134.44 35.89h32.66v34.745h-32.66z" fill="#7a6e79"/><path d="m167.1 291.34v184.77h-32.66v-184.77c0-9.02 7.31-16.33 16.33-16.33s16.33 7.31 16.33 16.33z" fill="#918291"/><path d="m167.1 291.34v5.41c-5.05 2.03-10.56 3.15-16.33 3.15s-11.28-1.12-16.33-3.15v-5.41c0-9.02 7.31-16.33 16.33-16.33s16.33 7.31 16.33 16.33z" fill="#7a6e79"/></g><g><path d="m377.56 35.89v184.77c0 9.019-7.311 16.33-16.33 16.33-9.019 0-16.33-7.311-16.33-16.33v-184.77z" fill="#918291"/><path d="m344.9 35.89h32.66v34.745h-32.66z" fill="#7a6e79"/><path d="m377.56 291.34v184.77h-32.66v-184.77c0-9.02 7.31-16.33 16.33-16.33s16.33 7.31 16.33 16.33z" fill="#918291"/><path d="m377.56 291.34v5.41c-5.05 2.03-10.56 3.15-16.33 3.15s-11.28-1.12-16.33-3.15v-5.41c0-9.02 7.31-16.33 16.33-16.33s16.33 7.31 16.33 16.33z" fill="#7a6e79"/></g></g><g><g><path d="m384.911 47.802h-257.822c-11.108 0-20.112-9.004-20.112-20.112v-10.134c0-5.554 4.502-10.056 10.056-10.056h277.934c5.554 0 10.056 4.502 10.056 10.056v10.134c0 11.107-9.005 20.112-20.112 20.112z" fill="#fcb44d"/><path d="m405.02 17.56v10.13c0 11.11-9 20.11-20.11 20.11h-29.81c11.11 0 20.11-9 20.11-20.11v-10.13c0-5.56-4.5-10.06-10.06-10.06h29.82c5.55 0 10.05 4.5 10.05 10.06z" fill="#fb9927"/></g><g><path d="m127.089 464.198h257.822c11.108 0 20.112 9.004 20.112 20.112v10.134c0 5.554-4.502 10.056-10.056 10.056h-277.934c-5.554 0-10.056-4.502-10.056-10.056v-10.134c0-11.107 9.004-20.112 20.112-20.112z" fill="#fcb44d"/><path d="m405.02 484.31v10.13c0 5.56-4.5 10.06-10.05 10.06h-29.82c5.56 0 10.06-4.5 10.06-10.06v-10.13c0-11.11-9-20.11-20.11-20.11h29.81c11.11 0 20.11 9 20.11 20.11z" fill="#fb9927"/></g></g><g><circle cx="150.77" cy="256" fill="#fcb44d" r="23.9"/><path d="m174.67 256c0 13.2-10.7 23.9-23.9 23.9-4.06 0-7.88-1.01-11.22-2.81 7.54-4.01 12.67-11.95 12.67-21.09s-5.13-17.08-12.67-21.09c3.34-1.8 7.16-2.81 11.22-2.81 13.2 0 23.9 10.7 23.9 23.9z" fill="#fb9927"/></g><g><circle cx="361.23" cy="256" fill="#fcb44d" r="23.9"/><path d="m385.13 256c0 13.2-10.7 23.9-23.9 23.9-4.06 0-7.88-1.01-11.22-2.81 7.54-4.01 12.67-11.95 12.67-21.09s-5.13-17.08-12.67-21.09c3.34-1.8 7.16-2.81 11.22-2.81 13.2 0 23.9 10.7 23.9 23.9z" fill="#fb9927"/></g><g><path d="m314.9 132.521v15.281c0 24.458-14.644 46.862-37.434 55.741-8.428 3.284-15.705 8.363-21.467 14.703-5.762-6.341-13.039-11.42-21.466-14.703-22.789-8.878-37.434-31.281-37.434-55.738v-21.429c0-2.557.98-5.006 2.73-6.869 5.317-5.66 18.64-16.629 42.038-16.629 29.384 0 23.915 17.299 63.569 19.659 5.305.315 9.464 4.671 9.464 9.984z" fill="#fdd1a7"/></g><g><path d="m314.9 132.52v15.28c0 24.46-14.64 46.86-37.43 55.74-8.43 3.29-15.71 8.37-21.47 14.71-4.02-4.43-8.79-8.24-14.17-11.26 2.32-1.31 4.75-2.46 7.29-3.45 22.79-8.88 37.44-31.28 37.44-55.74v-25.28c0-1.06-.16-2.07-.47-3.03 5.02 1.46 11.24 2.57 19.35 3.05 5.3.31 9.46 4.67 9.46 9.98z" fill="#ffbc8a"/></g><g><path d="m267.273 334.393c-3.638-6.889-11.12-10.526-18.628-9.054-8.596 1.688-17.078 5.566-25.21 11.526-3.341 2.449-4.064 7.142-1.616 10.483s7.142 4.064 10.483 1.616c6.343-4.649 12.814-7.645 19.234-8.906.946-.183 1.96.366 2.475 1.341 3.682 6.969 11.517 16.441 27.932 21.988 18.791 6.35 25.458 20.098 25.458 29.941v35.87c0 1.378-1.121 2.5-2.5 2.5h-97.8c-1.378 0-2.5-1.122-2.5-2.5v-36.501c0-6.303 3.643-15.677 9.506-24.466 2.299-3.446 1.369-8.103-2.076-10.401-3.445-2.299-8.103-1.369-10.401 2.076-7.644 11.458-12.028 23.409-12.028 32.791v36.501c0 9.649 7.851 17.5 17.5 17.5h97.8c9.649 0 17.5-7.851 17.5-17.5v-35.87c0-14.809-9.338-35.258-35.655-44.152-11.735-3.964-17.067-10.228-19.474-14.783z"/><path d="m385.06 55.298c15.157-.081 27.463-12.433 27.463-27.608v-10.134c0-9.68-7.876-17.556-17.557-17.556h-277.934c-9.68 0-17.556 7.875-17.556 17.556v10.134c0 15.175 12.306 27.527 27.463 27.608v102.012c0 4.142 3.358 7.5 7.5 7.5s7.5-3.358 7.5-7.5v-102.008h17.66v165.358c0 1.741-.504 3.404-1.437 4.827-2.372-.575-4.846-.887-7.393-.887s-5.022.313-7.395.888c-.933-1.424-1.435-3.089-1.435-4.828v-34.25c0-4.142-3.358-7.5-7.5-7.5s-7.5 3.358-7.5 7.5v34.25c0 4.192 1.085 8.224 3.11 11.776-6.541 5.759-10.68 14.185-10.68 23.564s4.139 17.805 10.68 23.564c-2.025 3.552-3.11 7.584-3.11 11.776v165.362c-15.157.081-27.463 12.433-27.463 27.608v10.134c0 9.681 7.875 17.556 17.556 17.556h277.934c9.681 0 17.557-7.875 17.557-17.556v-10.134c0-15.175-12.306-27.527-27.463-27.608v-165.362c0-4.198-1.084-8.227-3.11-11.777 6.541-5.759 10.679-14.184 10.679-23.563s-4.138-17.804-10.679-23.563c2.025-3.55 3.11-7.579 3.11-11.777zm-109.97.004c4.143 0 7.5-3.358 7.5-7.5s-3.357-7.5-7.5-7.5h-148.001c-6.954 0-12.612-5.658-12.612-12.612v-10.134c0-1.409 1.146-2.556 2.556-2.556h277.934c1.41 0 2.557 1.146 2.557 2.556v10.134c0 6.954-5.658 12.612-12.612 12.612h-80.722c-4.143 0-7.5 3.358-7.5 7.5s3.357 7.5 7.5 7.5h33.21v93.37c0 28.739-14.709 54.79-39.345 69.685-13.084 7.91-21.212 22.334-21.212 37.643s8.128 29.733 21.211 37.643c24.637 14.896 39.346 40.946 39.346 69.686v93.37h-162.8v-93.37c0-28.74 14.708-54.791 39.345-69.686 13.083-7.91 21.211-22.334 21.211-37.643s-8.128-29.732-21.211-37.643c-24.636-14.895-39.345-40.946-39.345-69.686v-93.37h100.49zm102.54 200.698c0 9.043-7.356 16.4-16.399 16.4s-16.4-7.357-16.4-16.4 7.357-16.4 16.4-16.4 16.399 7.357 16.399 16.4zm-37.121 23.563c-2.025 3.55-3.109 7.579-3.109 11.777v20.192c-7.839-12.288-18.53-22.833-31.585-30.726-8.618-5.21-13.972-14.715-13.972-24.806s5.354-19.596 13.973-24.807c13.055-7.893 23.746-18.438 31.584-30.725v20.192c0 4.198 1.084 8.227 3.109 11.777-6.541 5.759-10.679 14.184-10.679 23.563s4.138 17.805 10.679 23.563zm-165.909-58.903v-20.192c7.838 12.287 18.529 22.832 31.584 30.725 8.618 5.211 13.972 14.716 13.972 24.807s-5.354 19.596-13.972 24.807c-13.055 7.893-23.746 18.437-31.584 30.725v-20.192c0-4.197-1.085-8.226-3.11-11.776 6.541-5.759 10.68-14.184 10.68-23.563s-4.139-17.805-10.68-23.563c2.025-3.552 3.11-7.58 3.11-11.778zm-7.43 35.34c0 9.043-7.357 16.4-16.4 16.4s-16.4-7.357-16.4-16.4 7.357-16.4 16.4-16.4 16.4 7.357 16.4 16.4zm-16.4 31.4c2.547 0 5.02-.312 7.393-.887.933 1.423 1.437 3.086 1.437 4.827v165.358h-17.66v-165.358c0-1.739.502-3.404 1.435-4.828 2.373.575 4.847.888 7.395.888zm246.753 196.91v10.134c0 1.41-1.146 2.556-2.557 2.556h-277.934c-1.409 0-2.556-1.146-2.556-2.556v-10.134c0-6.954 5.658-12.612 12.612-12.612h257.822c6.955 0 12.613 5.658 12.613 12.612zm-27.463-192.97v165.358h-17.66v-165.358c0-1.742.504-3.404 1.437-4.827 2.373.575 4.847.887 7.393.887s5.02-.312 7.392-.887c.934 1.423 1.438 3.086 1.438 4.827zm-8.83-66.74c-2.547 0-5.021.312-7.393.887-.933-1.423-1.437-3.086-1.437-4.827v-165.358h17.66v165.358c0 1.741-.504 3.404-1.438 4.827-2.372-.575-4.845-.887-7.392-.887z"/><path d="m231.811 210.532c6.345 2.472 11.946 6.077 16.689 10.734v47.373c0 4.142 3.358 7.5 7.5 7.5 4.143 0 7.5-3.358 7.5-7.5v-47.373c4.742-4.656 10.344-8.262 16.689-10.734 25.248-9.837 42.211-35.046 42.211-62.729v-15.281c0-9.246-7.255-16.92-16.517-17.471-18.878-1.123-26.124-5.759-33.131-10.242-7.247-4.636-14.74-9.43-30.884-9.43-25.808 0-40.84 11.9-47.504 18.994-3.072 3.27-4.764 7.534-4.764 12.004v21.429c0 27.682 16.963 52.89 42.211 62.726zm-27.211-84.156c0-.64.248-1.256.697-1.734 5.004-5.327 16.411-14.264 36.572-14.264 11.756 0 16.389 2.963 22.8 7.065 7.817 5.001 17.546 11.225 40.324 12.58 1.35.08 2.407 1.177 2.407 2.498v15.281c0 21.55-13.124 41.143-32.656 48.753-6.851 2.669-13.221 6.503-18.744 11.251-5.524-4.749-11.894-8.583-18.744-11.251-19.533-7.609-32.656-27.2-32.656-48.75z"/><path d="m256 310.984c4.143 0 7.5-3.358 7.5-7.5v-7.32c0-4.142-3.357-7.5-7.5-7.5-4.142 0-7.5 3.358-7.5 7.5v7.32c0 4.142 3.358 7.5 7.5 7.5z"/></g></g></svg>