<svg id="Capa_1" enable-background="new 0 0 512 512" height="512" viewBox="0 0 512 512" width="512" xmlns="http://www.w3.org/2000/svg"><g><path d="m512 331v-90h-90v30h-61v-166c0-24.813-20.187-45-45-45-5.856 0-11.449 1.137-16.586 3.181-5.205-19.096-22.691-33.181-43.414-33.181-5.856 0-11.449 1.137-16.586 3.181-5.205-19.096-22.691-33.181-43.414-33.181s-38.209 14.085-43.414 33.181c-5.137-2.044-10.73-3.181-16.586-3.181-24.813 0-45 20.187-45 45v169.957l-7.224-11.8c-8.073-13.681-22.877-22.157-38.776-22.157-24.813 0-45 20.187-45 45 0 8.099 2.181 16.046 6.317 23.002l114.683 192.134v40.864h210v-41.511l24.339-49.489h66.661v30h90v-90h-90v30h-61v-90h61v30zm-60-60h30v30h-30zm-121 0h-30v30h30v90h-30v30h20.907l-20.907 42.511v18.489h-150v-19.136l-118.91-199.217c-1.367-2.298-2.09-4.943-2.09-7.647 0-8.271 6.729-15 15-15 5.267 0 10.176 2.793 12.884 7.308 5.557 9.079 60.106 98.201 63.116 103.119v-50.427h15c57.897 0 105 47.103 105 105h30c0-42.367-19.623-80.231-50.251-105h50.251v-30c-22.288 0-143.294 0-150 0v-196c0-8.271 6.729-15 15-15s15 6.729 15 15v166h30v-196c0-8.271 6.729-15 15-15s15 6.729 15 15v196h30v-166c0-8.271 6.729-15 15-15s15 6.729 15 15v166h30v-136c0-8.271 6.729-15 15-15s15 6.729 15 15zm121 120h30v30h-30z"/></g></svg>