<svg id="Capa_1" enable-background="new 0 0 512.076 512.076" height="512" viewBox="0 0 512.076 512.076" width="512" xmlns="http://www.w3.org/2000/svg"><g><circle cx="256.011" cy="256.065" fill="#fcb44d" r="187.327"/><path d="m342.381 89.796c41.08 34.36 67.21 86 67.21 143.74 0 59.572-27.811 112.643-71.152 146.954-35.86-27.869-72.988-60.844-109.498-97.354-47.06-47.06-89.22-96.4-121.17-141.61-15.81 20.43-27.49 44.23-33.79 70.12 29.96 39.25 66.11 80.32 106.12 120.33 22.885 22.885 46.039 44.444 69.03 64.326 8.916 7.711 4.343 22.341-7.382 23.558-6.405.665-12.907 1.006-19.488 1.006-31.17 0-60.55-7.61-86.4-21.08 31.854 26.663 72.709 42.935 117.347 43.59 104.631 1.535 189.673-81.83 190.131-186.471.318-72.664-40.737-135.769-100.958-167.109z" fill="#fca62f"/><path d="m265.47 443.165c-3.13.15-6.29.23-9.46.23-103.46 0-187.33-83.87-187.33-187.33 0-6.75.36-13.42 1.06-19.99 20.44 40.42 85.68 154.08 195.71 207.08.01.001.01.01.02.01z" fill="#915eb2"/><path d="m265.47 443.165c-4.05.2-8.14.27-12.26.21-44.64-.66-85.5-16.93-117.35-43.59 25.85 13.47 55.23 21.08 86.4 21.08 1.41 0 2.81-.02 4.21-.05 12.3 8.22 25.29 15.75 38.98 22.34.01.001.01.01.02.01z" fill="#804ea0"/><path d="m285.98 224.165c-70.75-40.35-116.43-87.08-141.39-118.7 24.61-18.24 53.84-30.59 85.62-34.96 6.54 33.591 21.861 92.691 55.77 153.66z" fill="#fb6a3b"/><path d="m443.341 256.066c0 39.8-12.42 76.71-33.59 107.05-127.2-87.75-167.71-231.87-179.54-292.61 8.43-1.17 17.05-1.77 25.8-1.77 103.459 0 187.33 83.869 187.33 187.33z" fill="#fee7c9"/><path d="m443.341 256.906c-.18 39.65-12.49 76.25-33.42 106.33-.06-.04-.11-.08-.17-.12-11.4-7.86-22.1-16.18-32.15-24.85 20.19-29.9 31.99-65.93 31.99-104.73 0-57.74-26.13-109.38-67.21-143.74 60.22 31.34 101.279 94.45 100.96 167.11z" fill="#ffd597"/><path d="m443.331 254.456c-113.5-44.45-151.95-144.62-162.99-184.15 91.449 11.85 162.199 89.66 162.99 184.15z" fill="#a176bd"/><path d="m409.52 238.475c.05-1.64.07-3.29.07-4.94 0-57.74-26.13-109.38-67.21-143.74 59.54 30.99 100.35 93.03 100.95 164.66-12.11-4.739-23.36-10.119-33.81-15.98z" fill="#915eb2"/><path d="m430.641 323.964c-4.189 10.802-9.424 21.297-15.699 31.32 27.525 38.044 40.532 65.553 32.525 73.56-16.054 16.054-110.612-52.46-211.193-153.041s-169.096-195.139-153.042-211.193c8.007-8.007 35.516 5 73.56 32.525 10.023-6.275 20.518-11.511 31.32-15.699-82.119-60.688-149.979-88.772-172.74-66.01-34.115 34.115 45.972 169.504 178.873 302.405s268.29 212.988 302.405 178.873c22.762-22.761-5.322-90.621-66.009-172.74z" fill="#fee7c9"/><path d="m503.611 483.116c-1.16 5.52-3.46 10.09-6.96 13.59-34.12 34.11-169.5-45.97-302.41-178.87-132.9-132.91-212.981-268.29-178.871-302.41 3.5-3.5 8.07-5.8 13.59-6.96-10.15 48.29 66.58 169.55 185.84 288.81s240.521 195.99 288.811 185.84z" fill="#fcc16d"/><path d="m439.083 322.789c1.864-5.115 3.531-10.333 4.955-15.574 1.085-3.997-1.275-8.118-5.272-9.203-3.991-1.083-8.118 1.274-9.204 5.272-1.647 6.067-3.637 12.109-5.912 17.959-.003.008-.005.015-.008.023-4.011 10.343-9.022 20.356-14.893 29.77-.06.088-.125.17-.182.261-.261.417-.541.821-.805 1.236-46.326-33.399-85.073-77.782-115.227-132.012-30.258-54.404-45.635-107.13-53.344-143.508 5.565-.514 11.175-.773 16.82-.773 6.251 0 12.428.323 18.517.948 12.662 42.203 52.461 137.408 161.263 182.305-.105 5.399-.441 10.857-1.032 16.279-.448 4.118 2.525 7.82 6.644 8.269.276.03.55.044.821.044 3.778 0 7.028-2.847 7.447-6.688.774-7.108 1.167-14.285 1.167-21.331 0-107.428-87.399-194.827-194.827-194.827-22.962 0-45.393 3.95-66.744 11.739-44.636-32.63-143.974-98.079-179.199-62.856-24.547 24.547.401 80.589 25.653 123.28 10.552 17.838 23.054 36.611 37.2 55.947-7.782 21.346-11.737 43.773-11.737 66.716 0 33.832 8.811 67.159 25.478 96.38 16.16 28.329 39.381 52.364 67.152 69.508 1.228.758 2.588 1.119 3.933 1.119 2.515 0 4.971-1.264 6.389-3.561 2.176-3.525 1.082-8.146-2.442-10.322-51.239-31.631-82.696-85.419-85.31-145.051 27.161 47.352 79.405 122.701 157.676 170.429-16.352-1.984-32.272-6.196-47.542-12.601-3.815-1.6-8.215.195-9.816 4.016-1.603 3.82.195 8.215 4.016 9.817 23.877 10.014 49.209 15.092 75.294 15.092 22.94 0 45.37-3.956 66.714-11.739 19.337 14.147 38.111 26.65 55.95 37.202 30.327 17.938 67.385 35.724 95.109 35.722 11.303-.001 21.061-2.959 28.17-10.068 35.227-35.229-30.248-134.593-62.872-179.219zm-3.723-79.785c-92.943-41.108-130.569-121.558-144.326-163.331 78.294 15.519 138.461 82.018 144.326 163.331zm-20.259 125.475c29.145 42.036 27.375 53.706 27.009 55.047-3.078 1.265-17.682-1.527-52.702-25.478 9.551-8.978 18.137-18.889 25.693-29.569zm-148.114-164.55c-56.055-35.777-92.416-73.841-111.538-96.961 1.754-1.185 3.527-2.345 5.324-3.47.031-.02.059-.043.09-.063 9.468-5.921 19.548-10.971 29.961-15.009.046-.018.086-.043.131-.061 10.823-4.201 21.963-7.312 33.332-9.334 6.742 32.153 19.368 77.056 42.7 124.898zm-152.962-81.264c-4.725-6.903-8.879-13.371-12.389-19.313-14.487-24.526-13.377-32.217-13.058-33.394 1.471-.38 13.263-1.932 55.01 27.01-10.68 7.558-20.587 16.145-29.563 25.697zm-37.273-98.543c26.846 10.5 59.951 29.639 96.282 55.622-5.428 2.554-10.74 5.363-15.9 8.407-56.511-40.167-72.271-35.775-79.206-28.844-8.188 8.188-5.267 23.734 9.192 48.925 11.857 20.659 31.323 47.459 56.292 77.504 2.647 3.187 7.376 3.622 10.563.975 3.186-2.647 3.622-7.376.975-10.562-12.098-14.557-22.866-28.325-32.054-40.945 6.331-6.97 13.17-13.425 20.479-19.306 21.951 26.656 66.471 73.114 137.083 113.739 31.126 55.412 71.036 100.866 118.718 135.198-6.669 8.767-14.131 16.91-22.313 24.343-.734-.535-1.456-1.056-2.206-1.606-38.95-28.627-86.214-70.205-133.081-117.072-24.277-24.278-47.093-48.602-67.81-72.295-2.728-3.118-7.466-3.436-10.583-.709-3.118 2.727-3.437 7.465-.709 10.583 20.937 23.944 43.981 48.515 68.494 73.028 48.914 48.914 97.994 91.896 138.198 121.028 60.091 43.544 76.493 39.123 83.602 32.013 6.934-6.933 11.323-22.697-28.843-79.206 3.044-5.161 5.853-10.472 8.406-15.9 25.983 36.331 45.123 69.436 55.622 96.282 6.584 16.836 9.59 30.811 8.98 41.103-.845.049-1.705.082-2.6.082-44.93-.005-151.495-61.802-274.229-184.537-56.167-56.167-105.615-115.792-139.235-167.892-30.31-46.97-46.561-86.252-45.22-108.939 10.292-.609 24.267 2.397 41.103 8.981zm190.224 411.432c-104.154-51.007-166.88-156.618-189.53-200.876 1.233-10.427 3.369-20.689 6.403-30.718 29.624 38.823 65.417 79.499 105.092 119.174 39.676 39.676 80.353 75.469 119.176 105.094-13.353 4.04-27.121 6.486-41.141 7.326zm119.335 27.889c-56.59-33.473-122.917-87.069-186.763-150.916-63.846-63.845-117.443-130.172-150.915-186.762-30.927-52.283-41.384-91.526-27.988-105.002 1.403 32.915 25.913 77.812 47.621 111.451 34.18 52.966 84.337 113.47 141.231 170.365 57.641 57.641 118.824 108.234 172.278 142.461 33.229 21.277 77.158 45.014 109.52 46.407-13.491 13.372-52.723 2.909-104.984-28.004z"/></g></svg>