<svg id="Capa_1" enable-background="new 0 0 512 512" height="512" viewBox="0 0 512 512" width="512" xmlns="http://www.w3.org/2000/svg"><g><path d="m286 121c-24.813 0-45 20.187-45 45s20.187 45 45 45 45-20.187 45-45-20.187-45-45-45zm0 60c-8.271 0-15-6.729-15-15s6.729-15 15-15 15 6.729 15 15-6.729 15-15 15z"/><path d="m444.615 202.907c-22.594-79.32-96.947-141.907-188.615-141.907-89.127 0-164.478 60.106-187.653 141.911-28.024 8.261-68.347 23.898-68.347 53.089 0 22.119 23 40.008 68.395 53.266 23.233 81.715 98.542 141.734 187.605 141.734 90.54 0 165.758-61.442 188.654-142.038 44.705-13.227 67.346-31.012 67.346-52.962 0-22.016-22.665-39.857-67.385-53.093zm-414.616 53.117c.261-2.084 6.863-10.257 31.968-19.461-.636 6.395-.967 12.878-.967 19.437 0 6.63.336 13.184.985 19.646-6.324-2.304-31.976-12.875-31.986-19.622zm226.001 164.976c-69.214 0-128.601-42.842-153.061-103.397 43.565 8.68 96.975 13.397 153.061 13.397 56.52 0 110.323-4.789 154.072-13.599-24.557 60.662-84.361 103.599-154.072 103.599zm163.495-136.38c-44.077 10.57-101.957 16.38-163.495 16.38-61.058 0-118.523-5.718-162.468-16.131-1.662-9.377-2.532-19.023-2.532-28.869 0-90.981 74.019-165 165-165 91.533 0 166 74.019 166 165 0 9.759-.863 19.321-2.505 28.62zm31.558-9.361c.628-6.361.947-12.787.947-19.259 0-6.517-.323-12.987-.96-19.392 24.862 9.231 30.96 17.464 30.96 19.392 0 6.617-24.678 16.934-30.947 19.259z"/><path d="m482 0h-30v30h-30v30h30v31h30v-31h30v-30h-30z"/><path d="m30 512h30v-30h30v-30h-30v-30h-30v30h-30v30h30z"/><path d="m166 181h30v30h-30z"/></g></svg>