<svg id="Capa_1" enable-background="new 0 0 511.995 511.995" height="512" viewBox="0 0 511.995 511.995" width="512" xmlns="http://www.w3.org/2000/svg"><g><g><g><path d="m246.974 12.71-206.182 357.117c-4.01 6.946 1.003 15.629 9.023 15.629h412.364c8.021 0 13.034-8.683 9.023-15.629l-206.181-357.117c-4.011-6.946-14.036-6.946-18.047 0z" fill="#fc7d4b"/><path d="m462.176 385.456h-30c8.02 0 13.04-8.68 9.03-15.63l-200.208-346.756 5.98-10.36c4.01-6.95 14.03-6.95 18.04 0l206.188 357.116c4.009 6.95-1.011 15.63-9.03 15.63z" fill="#fb6a3b"/><path d="m265.021 499.285 206.182-357.117c4.01-6.946-1.003-15.629-9.023-15.629h-412.364c-8.021 0-13.034 8.683-9.023 15.629l206.182 357.117c4.01 6.947 14.035 6.947 18.046 0z" fill="#fcb44d"/><path d="m471.205 142.169-206.188 357.116c-4.01 6.95-14.03 6.95-18.04 0l-5.98-10.36 200.208-346.757c4.01-6.95-1.01-15.63-9.03-15.63h30c8.02.001 13.04 8.681 9.03 15.631z" fill="#fb9927"/><g><path d="m405.496 255.998-74.739 129.448h-149.519l-74.739-129.448 74.739-129.449h149.519z" fill="#ffd597"/></g><path d="m330.747 126.549h-30l74.728 129.429h-268.966l-.01.02 29.26 50.679c34.37 21.16 76.459 33.03 120.239 33.03 17.921 0 35.558-1.99 52.499-5.793 9.666-2.17 17.322 8.11 12.368 16.689l-20.118 34.844h30l74.739-129.449z" fill="#fcc16d"/></g><g><path d="m405.483 255.984c-32.856 38.518-87.553 63.723-149.486 63.723s-116.629-25.205-149.486-63.723c32.856-38.491 87.553-63.696 149.486-63.696 61.934 0 116.63 25.205 149.486 63.696z" fill="#f3f0f3"/><g><circle cx="255.998" cy="255.998" fill="#433f43" r="63.566"/><path d="m319.566 255.998c0 35.111-28.457 63.568-63.568 63.568-19.526 0-36.992-8.793-48.656-22.655 2.416.297 4.891.436 7.387.436 35.111 0 63.568-28.457 63.568-63.568 0-15.585-5.604-29.863-14.912-40.913 31.625 3.643 56.181 30.516 56.181 63.132z" fill="#2d2b2d"/></g></g></g><g><path d="m378.828 90.547c3.084 2.292 6.145 4.702 9.096 7.163 1.402 1.17 3.105 1.74 4.799 1.74 2.148 0 4.281-.918 5.764-2.697 2.653-3.181 2.225-7.91-.957-10.563-3.165-2.639-6.446-5.224-9.754-7.683-3.326-2.471-8.023-1.779-10.494 1.545-2.47 3.326-1.778 8.025 1.546 10.495z"/><path d="m338.886 67.315c3.516 1.546 7.035 3.213 10.458 4.954 1.09.554 2.251.817 3.395.817 2.732 0 5.367-1.499 6.69-4.101 1.878-3.691.408-8.207-3.284-10.085-3.674-1.869-7.45-3.658-11.223-5.316-3.791-1.666-8.217.056-9.884 3.847-1.666 3.792.056 8.217 3.848 9.884z"/><path d="m340.392 444.019c-3.506 1.574-7.102 3.069-10.689 4.442-3.869 1.48-5.805 5.817-4.324 9.686 1.143 2.986 3.988 4.821 7.006 4.821.891 0 1.797-.16 2.679-.498 3.851-1.474 7.71-3.078 11.474-4.768 3.778-1.697 5.465-6.136 3.768-9.915s-6.136-5.466-9.914-3.768z"/><path d="m380.154 420.461c-3.067 2.317-6.239 4.578-9.429 6.719-3.439 2.309-4.356 6.968-2.048 10.407 1.448 2.156 3.819 3.321 6.234 3.321 1.437 0 2.89-.413 4.173-1.273 3.422-2.297 6.824-4.722 10.114-7.208 3.305-2.498 3.959-7.201 1.461-10.505-2.496-3.303-7.2-3.959-10.505-1.461z"/><path d="m119.272 99.451c1.694 0 3.397-.57 4.799-1.74 2.951-2.461 6.011-4.871 9.096-7.163 3.324-2.471 4.016-7.169 1.545-10.494-2.471-3.324-7.168-4.016-10.494-1.545-3.308 2.458-6.589 5.043-9.754 7.683-3.181 2.653-3.609 7.382-.957 10.563 1.485 1.778 3.617 2.696 5.765 2.696z"/><path d="m159.256 73.086c1.144 0 2.306-.263 3.395-.817 3.423-1.741 6.942-3.408 10.458-4.954 3.792-1.667 5.514-6.092 3.847-9.884s-6.091-5.514-9.884-3.847c-3.773 1.659-7.549 3.447-11.223 5.316-3.691 1.878-5.162 6.394-3.284 10.085 1.324 2.603 3.958 4.101 6.691 4.101z"/><path d="m141.27 427.181c-3.19-2.141-6.362-4.402-9.429-6.719-3.305-2.499-8.008-1.842-10.505 1.461-2.498 3.305-1.843 8.008 1.461 10.505 3.289 2.486 6.692 4.911 10.114 7.208 1.283.861 2.736 1.273 4.173 1.273 2.416 0 4.787-1.165 6.234-3.321 2.308-3.44 1.392-8.099-2.048-10.407z"/><path d="m182.292 448.46c-3.587-1.373-7.183-2.868-10.688-4.442-3.78-1.698-8.218-.011-9.915 3.768s-.01 8.218 3.769 9.915c3.762 1.69 7.623 3.294 11.473 4.768.882.338 1.788.498 2.679.498 3.018 0 5.863-1.834 7.006-4.821 1.48-3.869-.455-8.205-4.324-9.686z"/><path d="m43.177 244.468c.224.02.446.029.667.029 3.844 0 7.118-2.94 7.462-6.842.337-3.829.788-7.697 1.339-11.497.595-4.099-2.247-7.904-6.346-8.499-4.099-.59-7.904 2.247-8.499 6.346-.591 4.076-1.075 8.226-1.437 12.333-.362 4.126 2.688 7.766 6.814 8.13z"/><path d="m36.189 273.543c.323 4.112.767 8.267 1.318 12.35.509 3.764 3.727 6.497 7.423 6.497.334 0 .673-.022 1.014-.068 4.105-.555 6.983-4.333 6.428-8.437-.515-3.807-.928-7.682-1.229-11.516-.325-4.129-3.931-7.217-8.064-6.89-4.13.324-7.214 3.935-6.89 8.064z"/><path d="m466.051 292.321c.341.046.679.068 1.014.068 3.696 0 6.915-2.732 7.423-6.497.552-4.083.995-8.238 1.318-12.35.324-4.129-2.76-7.74-6.89-8.064-4.121-.32-7.74 2.76-8.064 6.89-.301 3.834-.715 7.708-1.229 11.516-.555 4.105 2.323 7.882 6.428 8.437z"/><path d="m468.151 244.498c.221 0 .443-.01.667-.029 4.126-.364 7.176-4.004 6.813-8.13-.362-4.107-.846-8.257-1.437-12.333-.595-4.1-4.404-6.938-8.499-6.346-4.099.595-6.94 4.4-6.346 8.499.551 3.8 1.002 7.668 1.339 11.497.344 3.902 3.618 6.842 7.463 6.842z"/><path d="m460.663 336.572c.711-.722 1.298-1.588 1.679-2.597 1.455-3.858 2.819-7.81 4.054-11.745 1.24-3.952-.959-8.161-4.911-9.401-3.955-1.24-8.162.959-9.401 4.911-.264.843-.556 1.685-.833 2.528l-37.107-64.271 37.113-64.282c.073.222.154.443.226.664 1.029 3.171 3.969 5.188 7.132 5.188.767 0 1.547-.119 2.316-.368 3.94-1.278 6.098-5.508 4.819-9.448-1.273-3.924-2.675-7.862-4.167-11.703-.164-.422-.367-.816-.595-1.19l16.709-28.941c3.239-5.61 3.239-12.309 0-17.919s-9.041-8.959-15.519-8.959h-32.676c-1.795-2.27-3.621-4.522-5.492-6.707-2.694-3.147-7.429-3.512-10.575-.819-2.235 1.913-3.059 4.854-2.389 7.526h-75.976l-37.431-64.833c2.825.579 5.652 1.2 8.437 1.895.61.152 1.22.225 1.821.225 3.362 0 6.42-2.277 7.271-5.687 1.003-4.019-1.442-8.09-5.461-9.092-4-.998-8.081-1.894-12.127-2.664-2.818-.536-5.565.582-7.246 2.67l-18.818-32.594c-3.239-5.61-9.04-8.959-15.519-8.959-6.478 0-12.279 3.349-15.518 8.959l-18.818 32.594c-1.682-2.088-4.429-3.205-7.246-2.67-4.047.77-8.127 1.666-12.127 2.664-4.019 1.002-6.464 5.073-5.461 9.092.851 3.41 3.909 5.687 7.271 5.687.601 0 1.212-.073 1.821-.225 2.785-.695 5.612-1.316 8.437-1.895l-37.431 64.833h-75.977c.67-2.672-.154-5.613-2.389-7.526-3.147-2.694-7.88-2.328-10.575.819-1.871 2.185-3.697 4.437-5.492 6.707h-32.676c-6.478 0-12.279 3.349-15.519 8.959-3.239 5.61-3.239 12.309 0 17.919l16.709 28.941c-.227.374-.431.768-.595 1.19-1.492 3.841-2.894 7.778-4.167 11.703-1.278 3.94.879 8.17 4.819 9.448.769.25 1.549.368 2.316.368 3.163 0 6.104-2.017 7.132-5.188.072-.222.153-.443.226-.664l5.431 9.407c2.071 3.588 6.659 4.816 10.245 2.745 3.587-2.071 4.816-6.658 2.745-10.245l-31.873-55.205c-.733-1.27-.314-2.374 0-2.919s1.062-1.459 2.528-1.459h36.308.006.009 82.126l-61.753 106.958-12.796-22.163c-2.071-3.587-6.659-4.817-10.245-2.745-3.587 2.071-4.816 6.658-2.745 10.245l17.126 29.663-37.107 64.272c-.277-.843-.569-1.686-.833-2.529-1.24-3.952-5.449-6.149-9.401-4.911-3.952 1.24-6.151 5.449-4.911 9.401 1.234 3.932 2.598 7.884 4.053 11.744.381 1.01.968 1.876 1.679 2.598l-17.034 29.504c-3.239 5.61-3.239 12.309 0 17.919s9.041 8.959 15.519 8.959h35.278c-.132 1.876.433 3.803 1.74 5.355 2.655 3.153 5.434 6.272 8.261 9.271 1.476 1.565 3.465 2.355 5.459 2.355 1.845 0 3.694-.677 5.143-2.042 3.014-2.841 3.154-7.588.313-10.602-1.339-1.42-2.665-2.87-3.971-4.337h74.886l37.517 64.982c-3.623-.139-6.908 2.362-7.635 6.028-.806 4.063 1.835 8.01 5.898 8.816 3.775.748 7.615 1.395 11.43 1.945l16.344 28.309c3.239 5.61 9.04 8.959 15.518 8.959 6.479 0 12.28-3.349 15.519-8.959l16.344-28.309c3.815-.55 7.655-1.197 11.43-1.945 4.063-.806 6.704-4.753 5.898-8.816-.728-3.667-4.014-6.169-7.635-6.029l37.517-64.981h23.908c4.142 0 7.5-3.358 7.5-7.5s-3.358-7.5-7.5-7.5h-15.248l61.753-106.959 59.224 102.58c.733 1.27.314 2.374 0 2.919-.315.545-1.062 1.459-2.528 1.459h-74.1c-4.142 0-7.5 3.358-7.5 7.5s3.358 7.5 7.5 7.5h21.877c-1.306 1.467-2.632 2.917-3.971 4.337-2.841 3.014-2.701 7.761.313 10.602 1.449 1.366 3.298 2.042 5.143 2.042 1.994 0 3.983-.79 5.459-2.355 2.827-2.999 5.606-6.118 8.261-9.271 1.307-1.552 1.872-3.479 1.74-5.355h35.278c6.478 0 12.279-3.349 15.519-8.959 3.239-5.61 3.239-12.309 0-17.919zm-34.806-202.533h.009.006 36.308c1.466 0 2.213.915 2.528 1.459.314.545.733 1.649 0 2.919l-59.224 102.58-61.753-106.959h82.126zm-172.388-117.58c.733-1.27 1.898-1.459 2.528-1.459s1.795.19 2.528 1.459l59.224 102.58h-123.504zm72.941 117.58 49.654 86.004c-33.489-22.512-75.824-35.255-120.067-35.255-44.244 0-86.579 12.743-120.067 35.255l49.654-86.004zm-140.825 243.917-49.664-86.021c31.589 21.247 71.058 33.781 112.577 35.135v50.886zm-69.023-121.97c22.61-24.226 54-41.668 89.219-50.227-12.875 12.869-20.85 30.64-20.85 50.239 0 19.598 7.974 37.368 20.848 50.237-35.222-8.563-66.611-26.013-89.217-50.249zm139.436 56.078c-30.915 0-56.066-25.151-56.066-56.066s25.151-56.066 56.066-56.066 56.066 25.151 56.066 56.066-25.151 56.066-56.066 56.066zm-206.182 65.892c-1.466 0-2.213-.915-2.528-1.459-.315-.545-.733-1.649 0-2.919l59.225-102.58 61.753 106.959h-118.45zm208.71 117.58c-.733 1.27-1.898 1.459-2.528 1.459-.629 0-1.794-.19-2.528-1.459l-59.224-102.58h123.504zm4.972-117.58v-50.881c27.474-.864 53.79-6.469 78.32-16.723 3.822-1.598 5.625-5.991 4.027-9.813s-5.993-5.624-9.813-4.027c-9.672 4.043-19.651 7.303-29.886 9.79 12.914-12.874 20.918-30.671 20.918-50.304 0-19.599-7.975-37.37-20.85-50.239 35.219 8.56 66.609 26.002 89.219 50.228-9.833 10.545-21.425 19.911-34.534 27.894-3.538 2.154-4.659 6.769-2.505 10.307 2.155 3.538 6.769 4.659 10.307 2.505 2.504-1.525 4.951-3.102 7.353-4.72l-49.643 85.984h-62.913z"/><path d="m256.055 94.431h-.116c-4.142 0-7.5 3.358-7.5 7.5s3.358 7.5 7.5 7.5h.116c4.142 0 7.5-3.358 7.5-7.5s-3.357-7.5-7.5-7.5z"/><path d="m256.087 67.391h-.116c-.011 0-.021 0-.032 0-4.127 0-7.482 3.337-7.5 7.468-.018 4.142 3.326 7.514 7.468 7.532h.116.032c4.127 0 7.482-3.337 7.5-7.468.018-4.143-3.326-7.515-7.468-7.532z"/><path d="m255.908 55.35h.116.032c4.127 0 7.482-3.337 7.5-7.468.018-4.142-3.326-7.514-7.468-7.532h-.116c-.011 0-.021 0-.032 0-4.127 0-7.482 3.337-7.5 7.468-.018 4.142 3.326 7.515 7.468 7.532z"/><path d="m256.087 456.645h-.116c-.011 0-.021 0-.032 0-4.127 0-7.482 3.337-7.5 7.468-.018 4.142 3.326 7.514 7.468 7.532h.116.032c4.127 0 7.482-3.337 7.5-7.468.018-4.142-3.326-7.514-7.468-7.532z"/><path d="m255.908 444.604h.116.032c4.127 0 7.482-3.337 7.5-7.468.018-4.142-3.326-7.514-7.468-7.532h-.116c-.011 0-.021 0-.032 0-4.127 0-7.482 3.337-7.5 7.468-.018 4.143 3.326 7.515 7.468 7.532z"/><path d="m255.94 417.564h.116c4.142 0 7.5-3.358 7.5-7.5s-3.358-7.5-7.5-7.5h-.116c-4.142 0-7.5 3.358-7.5 7.5s3.358 7.5 7.5 7.5z"/><path d="m116.322 337.205c1.388 2.411 3.911 3.76 6.507 3.76 1.269 0 2.556-.323 3.735-1.001 3.59-2.066 4.825-6.652 2.758-10.242l-.058-.1c-2.066-3.59-6.651-4.826-10.242-2.758-3.59 2.066-4.825 6.651-2.758 10.242z"/><path d="m105.885 343.208c-2.066-3.59-6.652-4.827-10.242-2.758-3.59 2.066-4.825 6.651-2.758 10.242l.058.1c1.388 2.411 3.911 3.76 6.507 3.76 1.269 0 2.556-.323 3.735-1.001 3.59-2.066 4.825-6.652 2.758-10.242z"/><path d="m82.507 356.795c-2.066-3.59-6.652-4.827-10.242-2.758-3.59 2.066-4.825 6.651-2.758 10.242l.058.1c1.388 2.411 3.911 3.76 6.507 3.76 1.269 0 2.556-.323 3.735-1.001 3.59-2.066 4.825-6.652 2.758-10.242z"/><path d="m429.489 155.2c1.388 2.411 3.911 3.76 6.507 3.76 1.269 0 2.556-.323 3.735-1.001 3.59-2.066 4.825-6.651 2.758-10.242l-.058-.1c-2.066-3.59-6.65-4.826-10.242-2.758-3.59 2.066-4.825 6.652-2.758 10.242z"/><path d="m406.11 168.787c1.388 2.411 3.911 3.76 6.507 3.76 1.269 0 2.556-.323 3.735-1.001 3.59-2.066 4.825-6.651 2.758-10.242l-.058-.1c-2.066-3.59-6.652-4.827-10.242-2.758-3.59 2.066-4.825 6.652-2.758 10.242z"/><path d="m395.674 174.791c-2.067-3.59-6.651-4.827-10.242-2.758-3.59 2.066-4.825 6.652-2.758 10.242l.058.1c1.388 2.411 3.911 3.76 6.507 3.76 1.269 0 2.556-.323 3.735-1.001 3.59-2.066 4.825-6.651 2.758-10.242z"/><path d="m385.432 339.963c1.179.679 2.465 1.001 3.735 1.001 2.595 0 5.119-1.349 6.507-3.76l.058-.1c2.066-3.59.832-8.175-2.758-10.242-3.59-2.066-8.175-.832-10.242 2.758l-.058.1c-2.067 3.591-.832 8.176 2.758 10.243z"/><path d="m412.545 354.551c2.595 0 5.119-1.349 6.507-3.76l.058-.1c2.066-3.59.832-8.175-2.758-10.242s-8.175-.832-10.242 2.758l-.058.1c-2.066 3.59-.832 8.175 2.758 10.242 1.18.68 2.466 1.002 3.735 1.002z"/><path d="m435.924 368.138c2.595 0 5.119-1.349 6.507-3.76l.058-.1c2.066-3.59.832-8.175-2.758-10.242s-8.175-.832-10.242 2.758l-.058.1c-2.066 3.59-.832 8.175 2.758 10.242 1.179.679 2.466 1.002 3.735 1.002z"/><path d="m82.564 155.1c2.066-3.59.832-8.175-2.758-10.242-3.591-2.066-8.175-.832-10.242 2.758l-.058.1c-2.066 3.59-.832 8.175 2.758 10.242 1.179.679 2.465 1.001 3.735 1.001 2.595 0 5.119-1.349 6.507-3.76z"/><path d="m95.644 171.545c1.179.679 2.465 1.001 3.735 1.001 2.595 0 5.119-1.349 6.507-3.76l.058-.1c2.066-3.59.832-8.175-2.758-10.242s-8.176-.832-10.242 2.758l-.058.1c-2.067 3.592-.832 8.177 2.758 10.243z"/><path d="m122.757 186.134c2.595 0 5.119-1.349 6.507-3.76l.058-.1c2.066-3.59.832-8.175-2.758-10.242-3.591-2.067-8.176-.832-10.242 2.758l-.058.1c-2.066 3.59-.832 8.175 2.758 10.242 1.179.679 2.466 1.002 3.735 1.002z"/><path d="m201.866 168.29h5.776c4.142 0 7.5-3.358 7.5-7.5s-3.358-7.5-7.5-7.5h-5.776c-4.142 0-7.5 3.358-7.5 7.5s3.358 7.5 7.5 7.5z"/><path d="m289.353 168.29h20.776c4.142 0 7.5-3.358 7.5-7.5s-3.358-7.5-7.5-7.5h-20.776c-4.142 0-7.5 3.358-7.5 7.5s3.358 7.5 7.5 7.5z"/><path d="m232.928 171.669c4.142 0 7.5-3.358 7.5-7.5v-8.447c0-4.142-3.358-7.5-7.5-7.5s-7.5 3.358-7.5 7.5v8.447c0 4.142 3.358 7.5 7.5 7.5z"/><path d="m255.338 171.669c2.006 0 4.007-.8 5.484-2.382l7.884-8.447c2.826-3.028 2.663-7.774-.366-10.601-3.028-2.827-7.773-2.664-10.6.366l-7.884 8.447c-2.826 3.028-2.663 7.774.366 10.6 1.446 1.349 3.283 2.017 5.116 2.017z"/><path d="m357.897 254.889-.058-.1c-2.066-3.59-6.651-4.826-10.242-2.758-3.59 2.066-4.825 6.652-2.758 10.242l.058.1c1.388 2.411 3.911 3.76 6.507 3.76 1.269 0 2.556-.323 3.735-1.001 3.59-2.068 4.825-6.653 2.758-10.243z"/><path d="m167.098 254.789c-2.066-3.59-6.651-4.826-10.242-2.758-3.59 2.066-4.825 6.652-2.758 10.242l.058.1c1.388 2.411 3.911 3.76 6.507 3.76 1.269 0 2.556-.323 3.735-1.001 3.59-2.066 4.825-6.651 2.758-10.242z"/></g></g></svg>