<svg id="Capa_1" enable-background="new 0 0 512 512" height="512" viewBox="0 0 512 512" width="512" xmlns="http://www.w3.org/2000/svg"><g><g><g><path d="m187.605 392.732c47.48-68.33 111.298-135.5 111.298-135.5l-41.502-41.502s-67.17 63.819-135.5 111.298c-57.927 40.251-111.769 177.472-111.769 177.472s137.222-53.841 177.473-111.768z" fill="#e2dee2"/><path d="m257.4 215.73s-9.8 9.31-25.74 23.48c1.06 1.52 2.26 2.95 3.58 4.27l14.054 14.051c4.593 4.592 4.847 11.957.569 16.844-22.666 25.898-53.74 63.145-79.871 100.752-28.144 40.503-103.71 79.011-146.599 98.501-8.387 18.448-13.258 30.869-13.258 30.869s137.214-53.84 177.467-111.759c47.483-68.336 111.304-135.505 111.304-135.505z" fill="#cbc5cb"/></g><g><path d="m303.573 264.752c7.315-8.148 16.135-17.24 16.135-17.24l-52.587-52.587s-9.092 8.819-17.24 16.135c-5.371 4.822-5.6 13.172-.495 18.276l35.912 35.912c5.104 5.104 13.453 4.875 18.275-.496z" fill="#433f43"/><path d="m285.304 265.246-19.917-19.917c5.102 5.102 13.445 4.879 18.27-.499 7.31-8.147 16.133-17.237 16.133-17.237l19.917 19.917s-8.824 9.091-16.133 17.237c-4.826 5.378-13.169 5.601-18.27.499z" fill="#2d2b2d"/></g><g><ellipse cx="386.301" cy="128.331" fill="#fb6a3b" rx="107.425" ry="33.309" transform="matrix(.707 -.707 .707 .707 22.401 310.743)"/><path d="m409.848 151.885c-41.945 41.945-86.499 65.415-99.507 52.407-3.294-3.294-4.247-8.628-3.152-15.439 20.015-3.241 52.772-24.245 84.077-55.55 31.296-31.296 52.3-64.053 55.55-84.077 6.811-1.113 12.145-.16 15.448 3.143 13.008 13.008-10.462 57.562-52.416 99.516z" fill="#fb5532"/><circle cx="470.795" cy="43.838" fill="#fcb44d" r="31.093"/><path d="m492.776 65.822c-12.145 12.145-31.822 12.145-43.966 0-3.953-3.953-6.624-8.708-7.987-13.738 12.109 8.369 28.83 7.159 39.612-3.624 8.191-8.191 10.853-19.811 7.987-30.228 1.531 1.051 2.992 2.261 4.354 3.624 12.145 12.145 12.145 31.822 0 43.966z" fill="#fb9927"/><path d="m489.856 68.387c-12.198 9.509-29.827 8.654-41.046-2.564-12.145-12.145-12.145-31.822 0-43.966 3.294-3.294 7.141-5.698 11.254-7.194.935 12.277 6.669 32.15 29.792 53.724z" fill="#e2dee2"/><path d="m489.856 68.387c-12.198 9.509-29.827 8.654-41.046-2.564-3.944-3.944-6.607-8.672-7.978-13.694-.009-.009-.018-.018-.009-.045 10.382 7.176 24.156 7.31 34.653.392 3.82 5.137 8.548 10.47 14.38 15.911z" fill="#cbc5cb"/><path d="m381.716 239.815.016-.016c-7.982-7.982-24.381-13.291-33.684-15.295-4.562-.983-7.817-5.019-7.812-9.685.007-5.952-2.355-11.663-6.564-15.872l-17.987-17.987c-4.209-4.209-9.92-6.571-15.872-6.564-4.666.005-8.702-3.25-9.685-7.812-2.004-9.303-7.313-25.702-15.295-33.684l-.016.016c-20.363-23.2-38.715-14.804-48.551-4.969-10.054 10.054-10.054 26.354 0 36.407 6.997 6.997 17.019 9.119 25.857 6.375.862 2.735 1.603 5.603 2.171 8.59 1.762 9.269 6.155 17.836 12.827 24.508l43.684 43.684c6.672 6.672 15.239 11.064 24.508 12.827 2.987.568 5.855 1.308 8.59 2.171-2.743 8.837-.622 18.859 6.375 25.857 10.054 10.054 26.354 10.054 36.407 0 9.835-9.836 18.232-28.188-4.969-48.551z" fill="#fcb44d"/><path d="m386.689 288.369c-10.052 10.052-26.364 10.052-36.416 0-3.081-3.081-5.218-6.749-6.411-10.649 8.815 2.707 18.805.57 25.776-6.402 7.862-7.862 14.807-21.164 5.431-36.594 2.546 1.549 4.826 3.241 6.66 5.075l-.018.018c23.213 20.363 14.817 38.713 4.978 48.552z" fill="#fb9927"/></g></g><path d="m500.816 68.087c12.249-15.142 11.34-37.466-2.732-51.539-8.43-8.43-19.822-12.134-30.857-11.118-.846-2.941-3.446-5.185-6.676-5.411-4.133-.288-7.717 2.824-8.007 6.956-.061.867-.101 1.853-.114 2.925-3.206 1.733-6.219 3.943-8.925 6.648-7.977 7.977-11.724 18.606-11.243 29.076-9.206 3.569-19.536 9.248-30.355 16.59-.857-.802-1.33-1.269-1.365-1.303-2.928-2.925-7.674-2.923-10.603.004-2.804 2.804-2.916 7.271-.352 10.217-5.687 4.369-11.437 9.125-17.167 14.217-2.768-1.267-6.146-.77-8.425 1.509-2.134 2.133-2.705 5.23-1.731 7.888-1.614 1.554-3.222 3.129-4.822 4.729-3.513 3.513-6.914 7.063-10.195 10.627-2.892-1.789-6.733-1.436-9.241 1.072-2.74 2.74-2.916 7.072-.529 10.018-4.833 5.742-9.309 11.47-13.369 17.105-2.935-2.157-7.08-1.918-9.735.737-2.929 2.929-2.929 7.678 0 10.606.127.127.569.565 1.271 1.233-3.614 5.795-6.708 11.414-9.203 16.758-2.143-.481-4.352-.736-6.602-.736-.013 0-.027-.003-.038 0-1.121 0-2.106-.795-2.342-1.891-.921-4.275-6.083-26.168-17.324-37.409-.032-.032-.064-.063-.096-.095-9.725-10.908-20.188-16.619-31.106-16.974-9.903-.323-19.836 3.98-27.972 12.116-12.961 12.962-12.961 34.052 0 47.014 6.875 6.876 16.245 10.299 25.682 9.669.099.466.193.931.281 1.394 1.161 6.105 3.284 11.867 6.268 17.102-3.052 2.86-5.846 5.431-8.324 7.656-4.087 3.669-6.516 8.923-6.664 14.415-.029 1.068.055 2.128.195 3.178-21.242 19.296-71.022 63.223-120.781 97.798-59.115 41.079-112.235 175.203-114.467 180.893-1.089 2.776-.43 5.934 1.679 8.043 1.433 1.433 3.35 2.196 5.304 2.196.92 0 1.849-.169 2.739-.519.426-.167 43.153-17.019 87.521-41.595 3.623-2.007 4.934-6.571 2.926-10.195-2.007-3.623-6.571-4.935-10.195-2.926-17.778 9.848-35.281 18.427-49.794 25.142l190.294-190.294 13.02 13.02c-20.61 24.272-44.364 53.834-65.2 83.819-11.524 16.585-32.905 34.682-63.549 53.787-3.515 2.191-4.588 6.817-2.396 10.332 1.422 2.281 3.868 3.533 6.372 3.533 1.354 0 2.726-.367 3.96-1.137 32.383-20.189 55.238-39.688 67.932-57.956 34.574-49.758 78.497-99.534 97.795-120.778.876.117 1.757.199 2.647.199.177 0 .355-.002.533-.007 5.492-.147 10.746-2.576 14.415-6.663 2.225-2.479 4.798-5.275 7.656-8.324 5.234 2.985 10.996 5.108 17.101 6.268.464.088.928.182 1.394.281-.628 9.439 2.793 18.806 9.669 25.681 6.278 6.279 14.627 9.737 23.507 9.737 8.879 0 17.228-3.458 23.507-9.737 13.14-13.14 15.735-29.988 6.944-45.07-2.086-3.579-6.679-4.787-10.257-2.702-3.578 2.086-4.788 6.678-2.702 10.257 6.793 11.652 1.252 21.064-4.591 26.909-3.446 3.446-8.027 5.343-12.9 5.343s-9.455-1.897-12.9-5.344c-3.156-3.156-4.976-7.272-5.287-11.568l3.659.763c.516.107 1.031.159 1.539.159 3.477 0 6.597-2.432 7.334-5.971.845-4.055-1.756-8.027-5.812-8.873 0 0-17.163-4.005-20.302-4.602-6.304-1.198-12.073-3.805-16.955-7.581 12.321-11.386 24.621-13.084 27.703-13.333 5.612 1.29 13.588 3.777 20.27 7.174 3.69 1.874 8.208.405 10.084-3.288s.405-8.208-3.288-10.084c-10.508-5.341-21.679-7.992-24.882-8.683-.008-.002-.017-.004-.025-.006-1.093-.238-1.886-1.222-1.884-2.343.003-2.262-.253-4.484-.736-6.638 9.619-4.491 20.122-10.904 30.945-18.829.733.231 1.465.465 2.204.68.699.204 1.404.3 2.097.3 3.25 0 6.246-2.13 7.198-5.408.436-1.5.381-3.027-.068-4.408 5.745-4.674 11.523-9.726 17.255-15.09.136.044.27.094.406.137.761.245 1.533.36 2.292.36 3.172 0 6.119-2.029 7.14-5.212.52-1.622.451-3.288-.075-4.779 5.432-5.485 10.6-11.054 15.44-16.629.439.078.878.13 1.312.13 3.22 0 6.197-2.091 7.177-5.333.494-1.637.395-3.308-.162-4.794 4.944-6.194 9.446-12.335 13.426-18.317.586.18 1.169.367 1.759.536.691.199 1.388.293 2.074.293 3.26 0 6.26-2.143 7.205-5.432.931-3.241-.421-6.595-3.103-8.348 3.053-5.477 5.57-10.728 7.482-15.658.595.027 1.193.044 1.793.044 6.507 0 12.767-1.604 18.334-4.617.669.579 1.325 1.157 2.018 1.737 1.404 1.175 3.112 1.749 4.81 1.749 2.143 0 4.272-.914 5.755-2.686 2.644-3.161 2.238-7.861-.898-10.526zm-30.021-47.831c6.042 0 12.083 2.3 16.683 6.899 8.339 8.339 9.091 21.404 2.312 30.63-13.842-14.538-19.334-27.74-21.333-37.41.777-.077 1.557-.119 2.338-.119zm-66.244 126.325c-.508.508-1.019 1.012-1.53 1.516-18.244-7.622-34.598-19.802-44.504-28.074 3.078-3.344 6.26-6.666 9.534-9.941 1.57-1.57 3.15-3.119 4.739-4.645 9.318 7.911 25.23 19.99 43.918 28.318-3.878 4.315-7.94 8.608-12.157 12.826zm-71.814 68.229c-.002 1.77.284 3.488.791 5.119-7.108 2.43-15.979 6.891-24.623 15.076l-9.765-9.765 25.11-25.111 4.12 4.12c2.82 2.821 4.371 6.571 4.367 10.561zm-32.934-32.915h.038c3.982 0 7.726 1.551 10.542 4.367l3.26 3.26-25.11 25.111-8.906-8.906c8.184-8.644 12.645-17.515 15.075-24.623 1.626.506 3.337.791 5.101.791zm-68.233-48.645c2.995-2.995 9.172-7.994 16.877-7.73 6.762.22 13.737 4.373 20.733 12.344.216.247.448.477.692.69 5.633 5.945 10.437 18.703 12.702 28.632-.253 3.108-1.965 15.387-13.332 27.688-3.775-4.881-6.382-10.651-7.581-16.955-.597-3.14-4.602-20.302-4.602-20.302-.846-4.055-4.82-6.654-8.873-5.812-4.055.846-6.657 4.818-5.812 8.873l.763 3.659c-4.296-.311-8.412-2.13-11.569-5.287-7.111-7.112-7.111-18.686.002-25.8zm-198.805 338.011c19.894-42.941 56.148-112.179 93.415-138.074 29.984-20.835 59.546-44.589 83.819-65.2l13.02 13.02zm261.571-209.83c-1.416.038-2.739-.49-3.736-1.487l-9.733-9.732c-2.929-2.93-7.678-2.929-10.606 0-2.929 2.929-2.929 7.678 0 10.606l7.881 7.881c-6.223 6.879-13.604 15.17-21.702 24.517l-35.023-35.023c9.346-8.098 17.638-15.479 24.516-21.702l3.751 3.75c1.465 1.464 3.384 2.196 5.303 2.196s3.839-.732 5.304-2.197c2.929-2.929 2.928-7.678 0-10.607l-5.602-5.601c-.997-.997-1.525-2.324-1.487-3.735.038-1.415.638-2.713 1.689-3.657 2.27-2.038 4.801-4.364 7.527-6.908l42.482 42.482c-2.544 2.725-4.869 5.256-6.907 7.527-.944 1.052-2.243 1.651-3.657 1.69zm45.776-66.584c-.367-.409-.744-.812-1.136-1.204l-17.987-17.987c-.391-.391-.793-.767-1.202-1.134 1.993-4.325 4.466-8.911 7.358-13.675 8.383 6.715 20.317 15.196 34.127 21.854-7.455 5.006-14.605 9.126-21.16 12.146zm35.203-22.341c-16.211-6.485-30.636-16.79-39.843-24.257 3.954-5.554 8.354-11.234 13.12-16.928 9.577 8.046 24.852 19.529 42.582 27.918-5.284 4.728-10.601 9.172-15.859 13.267zm51.613-50.711c-17.715-7.109-33.481-18.733-42.965-26.606 5.698-4.989 11.416-9.637 17.037-13.86 8.865 7.24 22.383 17.017 38.161 24.179-3.666 5.319-7.77 10.783-12.233 16.287zm20.375-29.098c-13.221-5.732-25.03-13.796-33.477-20.374 7.886-5.133 15.366-9.219 22.078-12 1.843 3.911 4.374 7.575 7.602 10.804 3.188 3.188 6.836 5.75 10.795 7.624-1.808 4.359-4.161 9.039-6.998 13.946zm6.809-32.177c-9.199-9.199-9.199-24.167 0-33.366.151-.151.315-.278.468-.423 2.871 11.084 9.282 24.992 22.837 39.757-2.125.618-4.349.942-6.623.942-6.301.001-12.226-2.454-16.682-6.91z"/></g></svg>