<svg id="Capa_1" enable-background="new 0 0 512 512" height="512" viewBox="0 0 512 512" width="512" xmlns="http://www.w3.org/2000/svg"><g><path d="m481.099 198.893c-3.348-22.119-15.718-39.687-31.942-45.627-31.019-85.626-103.671-153.266-193.157-153.266-89.538 0-162.153 67.685-193.157 153.266-16.225 5.94-28.594 23.508-31.942 45.627-18.123 7.717-30.901 30.056-30.901 57.107s12.778 49.39 30.901 57.107c3.348 22.119 15.717 39.687 31.942 45.627 31.02 85.626 103.67 153.266 193.157 153.266 89.537 0 162.155-67.685 193.156-153.266 16.225-5.94 28.595-23.508 31.942-45.627 18.125-7.717 30.902-30.056 30.902-57.107s-12.777-49.39-30.901-57.107zm-14.099 87.107h-15v15c0 17.921-8.779 29.779-14.823 30h-10.439c-.065.1-40.99 151-170.737 151-129.212 0-170.673-150.9-170.738-151h-10.44c-6.044-.221-14.823-12.079-14.823-30v-15h-15c-6.116 0-15-11.687-15-30s8.884-30 15-30h15v-15c0-17.921 8.779-29.779 14.823-30h10.439c.066-.1 40.993-151 170.738-151 129.213 0 170.672 150.9 170.737 151h10.439c6.044.221 14.823 12.079 14.823 30v15h15c6.116 0 15 11.687 15 30s-8.883 30-14.999 30z"/><path d="m256 60c-82.71 0-150 87.925-150 196s67.29 196 150 196c91.997 0 151-100.426 151-196 0-100.744-62.701-196-151-196zm0 362c-73.155 0-120-86.187-120-166 0-78.178 45.804-166 120-166 73.046 0 121 85.831 121 166 0 78.328-46.767 166-121 166z"/><path d="m177.36 196h127.279v30h-127.279z" transform="matrix(.707 -.707 .707 .707 -78.612 232.213)"/><path d="m207.36 286h127.279v30h-127.279z" transform="matrix(.707 -.707 .707 .707 -133.465 279.782)"/></g></svg>