<svg id="Capa_1" enable-background="new 0 0 511.979 511.979" height="512" viewBox="0 0 511.979 511.979" width="512" xmlns="http://www.w3.org/2000/svg"><g><path d="m147.616 425.853-20.063 20.063-45.81-45.81-19.378 19.378 45.81 45.81-20.063 20.063 16.168 16.168c3.949 3.949 10.353 3.949 14.302 0l45.202-45.202c3.949-3.949 3.949-10.353 0-14.302z" fill="#a69ca7"/><path d="m134.798 374.906-73.614 73.614c-6.429 6.429-16.862 6.436-23.298 0s-6.429-16.869 0-23.298l73.614-73.614z" fill="#7a6e79"/><path d="m134.798 374.906-20.431 20.431c-4.72-2.517-9.239-5.835-13.351-9.947s-7.43-8.631-9.947-13.351l20.431-20.431z" fill="#685e67"/><path d="m190.487 177.096h32.953v204.693h-32.953z" fill="#7a6e79" transform="matrix(.707 .707 -.707 .707 258.214 -64.498)"/><path d="m253.013 201.499h30.836v32.953h-30.836z" fill="#685e67" transform="matrix(.707 -.707 .707 .707 -75.51 253.653)"/><path d="m352.846 168.475-34.915-34.915c-5.204-5.204-5.204-13.641 0-18.845 5.204-5.204 13.641-5.204 18.845 0l34.915 34.915c5.204 5.204 5.204 13.641 0 18.845-5.204 5.203-13.641 5.203-18.845 0z" fill="#fcc16d"/><path d="m371.691 168.477c-2.603 2.603-6.007 3.904-9.425 3.904-3.411-.007-6.815-1.309-9.418-3.912l-14.095-14.095c2.603 2.603 6.014 3.912 9.418 3.912 3.411-.007 6.822-1.302 9.425-3.905 5.206-5.206 5.206-13.644 0-18.85l14.095 14.095c5.206 5.207 5.206 13.645 0 18.851z" fill="#fca62f"/><g><ellipse cx="129.969" cy="356.437" fill="#31a7fb" rx="20.718" ry="27.59" transform="matrix(.707 -.707 .707 .707 -213.972 196.3)"/><path d="m149.479 375.943c-8.095 8.095-23.384 5.921-34.161-4.856-2.331-2.331-4.262-4.877-5.771-7.516 9.54 5.463 20.302 5.428 26.645-.915 6.336-6.336 6.372-17.098.908-26.638 2.639 1.509 5.185 3.44 7.516 5.771 10.777 10.777 12.951 26.066 4.863 34.154z" fill="#1c96f9"/></g><circle cx="405.642" cy="80.764" fill="#31a7fb" r="19.932"/><path d="m419.739 94.856c-7.788 7.788-20.402 7.788-28.19 0-3.089-3.089-4.956-6.944-5.592-10.956 7.63 4.441 17.577 3.404 24.114-3.132 4.698-4.698 6.558-11.163 5.578-17.248 1.466.851 2.839 1.895 4.09 3.146 7.787 7.788 7.78 20.41 0 28.19z" fill="#1c96f9"/><path d="m310.693 214.73c-10.774 10.774-28.243 10.774-39.018 0s-10.774-28.243 0-39.018z" fill="#a69ca7"/><path d="m307.493 213.827-34.915-34.915c-5.204-5.204-5.204-13.641 0-18.845 5.204-5.204 13.641-5.204 18.845 0l34.915 34.915c5.204 5.204 5.204 13.641 0 18.845-5.204 5.204-13.641 5.204-18.845 0z" fill="#fcc16d"/><path d="m326.338 213.83c-2.603 2.603-6.007 3.904-9.425 3.904-3.411-.007-6.815-1.309-9.418-3.912l-14.095-14.094c2.603 2.603 6.014 3.912 9.418 3.912 3.411-.007 6.822-1.302 9.425-3.905 5.206-5.206 5.206-13.644 0-18.85l14.095 14.095c5.206 5.205 5.206 13.644 0 18.85z" fill="#fca62f"/><ellipse cx="322.047" cy="164.358" fill="#31a7fb" rx="20.718" ry="27.59" transform="matrix(.707 -.707 .707 .707 -21.894 275.861)"/><path d="m341.556 183.866c-8.088 8.088-23.384 5.921-34.161-4.856-2.481-2.481-4.512-5.213-6.05-8.038 9.411 5.177 19.894 5.02 26.116-1.201 6.221-6.221 6.379-16.705 1.201-26.116 2.825 1.538 5.556 3.568 8.038 6.05 10.777 10.777 12.944 26.073 4.856 34.161z" fill="#1c96f9"/><path d="m396.04 11.561c-3.276-3.109-7.1-5.747-11.429-7.731-20.865-9.56-45.556-.6-55.508 19.96-2.939-2.773-7.568-2.731-10.444.146-2.93 2.929-2.93 7.678-.001 10.607 6.468 6.469 8.517 16.162 5.219 24.694l-8.864 22.938c-3.645 8.125-3.507 17.302.053 25.179-.848.621-1.672 1.291-2.438 2.057-6.447 6.447-7.755 16.098-3.964 23.868-4.317 1.019-8.252 3.09-11.428 6.266-3.045 3.045-5.155 6.889-6.238 11.178-2.776-1.333-5.827-2.059-8.997-2.059-5.563 0-10.793 2.167-14.725 6.1-3.934 3.934-6.101 9.163-6.101 14.726 0 2.114.316 4.178.92 6.143-2.812 4.165-4.629 8.746-5.468 13.444l-.526-.526c-2.929-2.929-7.678-2.929-10.606 0-2.929 2.929-2.929 7.678 0 10.606l3.923 3.923-98.614 98.614-.347-.347c-2.929-2.93-7.678-2.929-10.606 0-2.929 2.929-2.929 7.678 0 10.606l.347.347-7.229 7.229-3.923-3.923c-2.929-2.929-7.678-2.929-10.606 0-2.595 2.595-2.886 6.615-.883 9.536-4.699.926-8.987 3.068-12.4 6.482-5.734 5.733-7.88 13.934-6.691 22.408l-21.413 21.413c-2.929 2.929-2.929 7.678 0 10.606 1.464 1.464 3.384 2.197 5.303 2.197s3.839-.732 5.303-2.197l16.674-16.674c1.595 2.459 3.489 4.818 5.683 7.011 2.194 2.195 4.557 4.082 7.017 5.678l-61.146 61.146c-1.696 1.695-3.95 2.629-6.347 2.629s-4.652-.934-6.347-2.629c-3.5-3.5-3.5-9.195 0-12.695l23.89-23.89c2.929-2.929 2.929-7.678 0-10.606-2.929-2.929-7.678-2.929-10.606 0l-23.89 23.89c-9.349 9.348-9.349 24.56 0 33.908 4.529 4.529 10.549 7.023 16.954 7.023 6.404 0 12.425-2.494 16.954-7.023l9.801-9.801 21.274 21.275-9.457 9.457-8.515-8.514c-2.929-2.93-7.678-2.929-10.606 0-2.929 2.929-2.929 7.678 0 10.606l29.986 29.986c3.434 3.433 7.944 5.15 12.454 5.15s9.021-1.717 12.454-5.15l14.189-14.19c2.929-2.929 2.929-7.678 0-10.606-2.929-2.93-7.678-2.929-10.606 0l-14.189 14.19c-1.019 1.019-2.676 1.019-3.696 0l-10.865-10.865 14.76-14.76c2.929-2.929 2.929-7.678 0-10.606l-26.579-26.578 8.771-8.771 26.578 26.578c2.928 2.93 7.677 2.929 10.606 0l14.76-14.76 10.865 10.865c1.019 1.019 1.019 2.677 0 3.696l-10.435 10.435c-2.929 2.929-2.929 7.678 0 10.606 1.464 1.464 3.384 2.197 5.303 2.197s3.839-.732 5.303-2.197l10.436-10.436c6.867-6.867 6.867-18.042 0-24.908l-29.986-29.986c-2.929-2.929-7.678-2.929-10.606 0-2.929 2.929-2.929 7.678 0 10.606l8.515 8.515-9.457 9.457-21.275-21.275 26.098-26.098c1.496.21 2.984.327 4.451.327 6.84 0 13.233-2.294 17.954-7.015 3.413-3.413 5.555-7.701 6.481-12.399 1.272.872 2.751 1.314 4.233 1.314 1.919 0 3.839-.732 5.303-2.197 2.929-2.929 2.929-7.678 0-10.606l-3.923-3.923 7.229-7.229.347.347c1.464 1.465 3.384 2.197 5.303 2.197s3.839-.732 5.303-2.197c2.929-2.929 2.929-7.678 0-10.606l-.347-.347 98.614-98.614 3.922 3.922c1.465 1.464 3.385 2.197 5.304 2.197s3.839-.732 5.304-2.197c2.929-2.929 2.929-7.678 0-10.606l-.542-.542c4.699-.838 9.28-2.645 13.447-5.456 1.969.606 4.037.925 6.155.925 5.563 0 10.793-2.167 14.725-6.1 3.934-3.934 6.101-9.163 6.101-14.726 0-3.181-.731-6.242-2.073-9.025 4.224-1.039 8.073-3.092 11.191-6.209h.001c3.176-3.176 5.247-7.111 6.266-11.428 2.877 1.404 6.006 2.125 9.142 2.125 5.333 0 10.666-2.03 14.727-6.09.767-.767 1.438-1.592 2.06-2.442 3.993 1.798 8.322 2.724 12.675 2.724 4.243 0 8.508-.875 12.5-2.666l22.938-8.866c8.532-3.299 18.225-1.249 24.694 5.219 2.928 2.93 7.677 2.929 10.606 0 2.877-2.877 2.921-7.506.145-10.445 20.561-9.952 29.522-34.644 19.961-55.508-2.099-4.582-4.946-8.67-8.391-12.146-16.624-16.801-25.33-46.571-25.415-46.866-.713-2.489-2.658-4.435-5.147-5.147-.298-.086-30.757-9.252-47.58-26.075zm-251.866 359.082c-5.065 5.066-15.853 2.841-23.553-4.859-4.011-4.011-6.702-9.055-7.382-13.839-.334-2.351-.451-6.739 2.523-9.713 1.844-1.844 4.445-2.722 7.379-2.722 5.129 0 11.275 2.683 16.173 7.581 4.011 4.011 6.702 9.055 7.382 13.839.336 2.35.453 6.738-2.522 9.713zm12.095-27.812-12.695-12.695 7.229-7.229 12.694 12.695zm17.836-17.836-12.694-12.695 98.614-98.614 12.694 12.694zm272.941-247.723c-4.724-.321-9.469.167-14.068 1.452-.468-6.33-3.109-12.527-7.938-17.357-4.831-4.831-11.03-7.472-17.361-7.939 1.295-4.663 1.753-9.419 1.433-14.08 10.768 5.87 21.053 9.667 26.469 11.477 1.809 5.412 5.602 15.686 11.465 26.447zm-83.323 53.783-8.362-8.362c6.124-2.709 11.323-7.378 14.589-13.477 4.047-7.556 4.774-16.175 2.049-24.271-.098-.29-.209-.574-.315-.86 2.223-.25 4.437-.673 6.622-1.283.468 6.331 3.109 12.529 7.939 17.359 4.837 4.837 11.046 7.478 17.386 7.94-.603 2.167-1.038 4.382-1.29 6.627-.293-.109-.584-.222-.88-.322-8.097-2.725-16.717-1.998-24.271 2.049-6.088 3.261-10.755 8.469-13.467 14.6zm-33.676-27.537c-3.052-4.487-3.594-10.303-1.297-15.316.063-.139.122-.279.178-.421l6.736-17.429c3.809 4.242 8.475 7.703 13.814 10.15 3.964 1.816 6.914 5.094 8.306 9.23 1.391 4.131 1.016 8.536-1.056 12.403-2.696 5.034-7.993 8.157-13.723 8.203l-.926-.926c-3.375-3.375-7.631-5.325-12.032-5.894zm84.253-13.843c-4.859 4.718-12.645 4.684-17.448-.12-4.739-4.74-4.831-12.378-.303-17.247.251-.246.506-.488.75-.74 2.362-2.145 5.348-3.231 8.344-3.231 3.184 0 6.367 1.211 8.79 3.635 4.777 4.777 4.836 12.5.199 17.363-.114.112-.221.228-.332.34zm-28.056-28.308c-2.638 2.52-6.215 4.958-9.738 6.267-2.737 1.016-5.567 1.572-8.401 1.685-.006 0-.012 0-.019 0-2.114.128-4.17-.658-5.66-2.148-1.395-1.394-2.162-3.247-2.162-5.218s.768-3.824 2.161-5.217c2.93-2.929 2.93-7.678.001-10.607-2.93-2.928-7.679-2.929-10.606 0-3.463 3.462-5.625 7.865-6.303 12.627-1.643-2.137-2.975-4.531-3.941-7.129-2.527-6.803-2.254-14.183.77-20.78 4.565-9.963 14.437-15.85 24.74-15.85 3.781 0 7.622.793 11.278 2.469 13.618 6.241 19.621 22.398 13.38 36.018-1.279 2.788-3.444 5.726-5.5 7.883zm-73.284 130.839 8.075 8.08c1.1 1.1 1.706 2.563 1.706 4.119s-.606 3.019-1.707 4.12c-1.1 1.1-2.563 1.706-4.118 1.706-1.557 0-3.02-.606-4.119-1.707l-7.827-7.827c-2.93-2.929-7.678-2.929-10.607 0s-2.929 7.678 0 10.606l3.014 3.014c-7.023 2.293-14.932.576-20.397-4.89-5.467-5.467-7.183-13.375-4.891-20.398l1.696 1.696c1.465 1.464 3.384 2.197 5.304 2.197 1.919 0 3.839-.732 5.303-2.196 2.93-2.929 2.93-7.678.001-10.607l-6.51-6.51c-1.101-1.101-1.707-2.563-1.707-4.119s.606-3.019 1.707-4.12c1.1-1.1 2.563-1.706 4.118-1.706 1.557 0 3.02.606 4.12 1.707l8.007 8.006c1.991 3.932 4.678 7.646 7.966 10.935 3.319 3.319 7.015 5.953 10.866 7.894zm23.294-13.642c-5.069 5.066-15.853 2.841-23.553-4.858-4.012-4.011-6.702-9.055-7.383-13.839-.334-2.351-.451-6.739 2.524-9.714 1.844-1.844 4.444-2.722 7.379-2.722 5.128 0 11.274 2.683 16.172 7.581 7.701 7.7 9.926 18.486 4.861 23.552zm-4.458-41.711-8.561-8.596c-2.271-2.271-2.271-5.967-.001-8.238s5.968-2.271 8.238 0l34.915 34.915c2.271 2.271 2.271 5.967 0 8.238s-5.967 2.271-8.238 0l-8.577-8.526c-1.908-3.625-4.433-7.102-7.571-10.24-3.129-3.129-6.593-5.648-10.205-7.553zm66.829 20.626c-.142.055-.282.114-.42.177-4.99 2.287-10.831 1.746-15.317-1.301-.57-4.401-2.52-8.656-5.893-12.029l-.924-.924c.041-5.725 3.178-11.034 8.201-13.724 3.867-2.071 8.272-2.446 12.404-1.056 4.135 1.392 7.413 4.342 9.229 8.306 2.446 5.338 5.908 10.005 10.15 13.813zm26.415-57.318c2.166-2.111 4.979-4.168 7.882-5.499 3.608-1.654 7.451-2.484 11.305-2.484 3.192 0 6.394.57 9.476 1.715 3.814 1.417 7.19 3.62 9.954 6.444.02.02.039.041.059.061 2.139 2.2 3.908 4.773 5.224 7.645 6.241 13.619.238 29.777-13.38 36.018-6.598 3.024-13.979 3.296-20.78.769-2.599-.965-4.992-2.298-7.129-3.941 4.762-.679 9.164-2.84 12.626-6.302 2.929-2.929 2.929-7.678 0-10.606-2.93-2.929-7.678-2.929-10.607 0-1.394 1.394-3.246 2.161-5.217 2.161s-3.823-.768-5.218-2.162c-1.392-1.391-2.156-3.284-2.15-5.246.168-6.845 3.137-13.642 7.955-18.573z"/></g></svg>