<svg id="Capa_1" enable-background="new 0 0 512 512" height="512" viewBox="0 0 512 512" width="512" xmlns="http://www.w3.org/2000/svg"><g><g><g><g><g><path d="m290.595 74.569c0 22.57-14.443 27.53-34.595 34.604-20.152-7.074-34.595-12.034-34.595-34.604 0-18.481 23.196-48.973 31.6-65.249 1.253-2.426 4.737-2.426 5.989 0 8.405 16.275 31.601 46.768 31.601 65.249z" fill="#fcc16d"/><path d="m290.59 74.57c0 22.57-14.44 27.53-34.59 34.6-4.91-1.72-9.49-3.32-13.59-5.08 12.74-5.46 21-12.46 21-29.52 0-12.91-11.31-31.67-21-47.36 4.18-6.78 8.06-12.98 10.6-17.89 1.25-2.43 4.73-2.43 5.98 0 8.41 16.28 31.6 46.77 31.6 65.25z" fill="#fca62f"/></g><path d="m274.719 90.448c0 12.213-7.815 14.896-18.719 18.724-10.904-3.828-18.719-6.512-18.719-18.724 0-10 12.551-26.5 17.099-35.307.678-1.313 2.563-1.313 3.241 0 4.547 8.808 17.098 25.307 17.098 35.307z" fill="#fb6a3b"/></g><g><g><path d="m221.405 437.431c0-22.57 14.443-27.53 34.595-34.604 20.152 7.074 34.595 12.034 34.595 34.604 0 18.481-23.196 48.973-31.6 65.249-1.253 2.426-4.737 2.426-5.989 0-8.405-16.275-31.601-46.768-31.601-65.249z" fill="#fcc16d"/><path d="m290.59 437.43c0 18.48-23.19 48.97-31.6 65.25-1.25 2.43-4.73 2.43-5.98 0-2.54-4.91-6.42-11.11-10.6-17.88 9.68-15.69 21-34.46 21-47.37 0-17.06-8.26-24.06-21-29.52 4.1-1.76 8.68-3.36 13.59-5.08 20.15 7.07 34.59 12.03 34.59 34.6z" fill="#fca62f"/></g><path d="m237.281 421.552c0-12.213 7.815-14.896 18.719-18.724 10.904 3.828 18.719 6.512 18.719 18.724 0 10-12.551 26.5-17.099 35.307-.678 1.313-2.563 1.313-3.241 0-4.547-8.808-17.098-25.307-17.098-35.307z" fill="#fb6a3b"/></g></g><g><g><g><path d="m226.455 73.678c7.719 21.209-4.156 30.809-20.673 44.349-21.356.245-36.624.524-44.343-20.685-6.321-17.367 5.047-53.953 7.378-72.122.347-2.708 3.621-3.9 5.628-2.048 13.463 12.42 45.689 33.14 52.01 50.506z" fill="#fcc16d"/><path d="m226.451 73.681c7.719 21.209-4.153 30.808-20.67 44.344-5.202.063-10.053.126-14.508-.126 10.104-9.488 15.472-18.891 9.637-34.922-4.415-12.131-21.46-25.892-35.932-37.321 1.609-7.801 3.134-14.954 3.842-20.436.343-2.711 3.614-3.901 5.619-2.045 13.472 12.421 45.692 33.141 52.012 50.506z" fill="#fca62f"/></g><path d="m216.968 94.03c4.177 11.476-2.249 16.671-11.186 23.997-11.556.132-19.817.283-23.994-11.193-3.42-9.397 2.731-29.194 3.992-39.025.188-1.465 1.959-2.11 3.045-1.108 7.286 6.72 24.723 17.932 28.143 27.329z" fill="#fb6a3b"/></g><g><g><path d="m285.545 438.322c-7.719-21.209 4.156-30.809 20.673-44.349 21.356-.245 36.624-.524 44.344 20.685 6.321 17.367-5.047 53.953-7.378 72.122-.347 2.708-3.621 3.9-5.628 2.048-13.464-12.42-45.69-33.14-52.011-50.506z" fill="#fcc16d"/><path d="m350.557 414.658c6.321 17.366-5.043 53.948-7.378 72.123-.344 2.711-3.614 3.901-5.619 2.045-4.066-3.745-9.833-8.244-16.076-13.176 3.73-18.055 7.948-39.564 3.532-51.696-5.835-16.031-15.991-19.784-29.83-20.557 3.251-3.056 7.007-6.126 11.033-9.422 21.353-.248 36.618-.526 44.338 20.683z" fill="#fca62f"/></g><path d="m295.032 417.97c-4.177-11.476 2.249-16.671 11.186-23.997 11.556-.132 19.817-.283 23.994 11.193 3.42 9.397-2.731 29.194-3.992 39.025-.188 1.465-1.959 2.11-3.045 1.108-7.286-6.72-24.723-17.932-28.143-27.329z" fill="#fb6a3b"/></g></g><g><g><g><path d="m165.879 94.779c14.508 17.29 6.632 30.373-4.258 48.745-19.984 7.534-34.236 13.018-48.744-4.271-11.879-14.157-13.711-52.426-17.735-70.296-.6-2.664 2.069-4.903 4.588-3.85 16.901 7.066 54.27 15.514 66.149 29.672z" fill="#fcc16d"/><path d="m165.876 94.783c14.508 17.29 6.634 30.371-4.257 48.739-4.867 1.838-9.404 3.557-13.676 4.844 6.25-12.372 8.078-23.043-2.888-36.112-8.298-9.89-29.021-16.991-46.529-22.781-1.156-7.881-2.169-15.124-3.379-20.518-.604-2.665 2.061-4.902 4.581-3.844 16.907 7.065 54.27 15.515 66.148 29.672z" fill="#fca62f"/></g><path d="m163.925 117.148c7.85 9.355 3.589 16.435-2.304 26.376-10.814 4.077-18.525 7.044-26.376-2.311-6.428-7.661-7.419-28.368-9.596-38.037-.325-1.441 1.12-2.653 2.483-2.083 9.145 3.823 29.365 8.394 35.793 16.055z" fill="#fb6a3b"/></g><g><g><path d="m346.121 417.221c-14.508-17.29-6.632-30.373 4.258-48.745 19.984-7.534 34.236-13.018 48.744 4.271 11.879 14.157 13.711 52.426 17.734 70.296.6 2.664-2.069 4.903-4.588 3.85-16.9-7.066-54.269-15.514-66.148-29.672z" fill="#fcc16d"/><path d="m399.118 372.749c11.879 14.156 13.713 52.419 17.735 70.297.604 2.665-2.061 4.902-4.581 3.844-5.102-2.129-12.059-4.384-19.613-6.883-2.67-18.241-6.064-39.896-14.362-49.786-10.966-13.069-21.793-13.122-35.062-9.115 2.01-3.984 4.49-8.153 7.145-12.627 19.981-7.537 34.231-13.019 48.738 4.27z" fill="#fca62f"/></g><path d="m348.075 394.852c-7.85-9.355-3.589-16.435 2.304-26.376 10.814-4.077 18.525-7.044 26.376 2.311 6.428 7.661 7.419 28.368 9.596 38.037.325 1.441-1.12 2.653-2.483 2.083-9.145-3.823-29.365-8.394-35.793-16.055z" fill="#fb6a3b"/></g></g><g><g><g><path d="m116.173 135.325c19.546 11.285 16.62 26.273 12.671 47.262-16.202 13.915-27.719 23.943-47.265 12.658-16.005-9.241-30.814-44.575-40.708-59.991-1.475-2.298.267-5.315 2.995-5.187 18.297.859 56.302-3.983 72.307 5.258z" fill="#fcc16d"/><path d="m116.172 135.329c19.546 11.285 16.622 26.27 12.669 47.256-3.945 3.392-7.62 6.559-11.194 9.229 1.642-13.763-.291-24.417-15.065-32.947-11.18-6.455-33.082-6.04-51.515-5.493-3.782-7.01-7.211-13.47-10.193-18.125-1.479-2.298.261-5.311 2.99-5.179 18.304.857 56.304-3.981 72.308 5.259z" fill="#fca62f"/></g><path d="m121.988 157.013c10.576 6.106 8.993 14.216 6.856 25.573-8.767 7.529-14.999 12.955-25.575 6.849-8.66-5-16.674-24.12-22.027-32.461-.798-1.243.145-2.876 1.62-2.807 9.901.466 30.465-2.154 39.126 2.846z" fill="#fb6a3b"/></g><g><g><path d="m395.827 376.675c-19.546-11.285-16.62-26.273-12.671-47.262 16.202-13.915 27.719-23.943 47.265-12.658 16.005 9.241 30.814 44.575 40.708 59.991 1.475 2.298-.267 5.315-2.995 5.187-18.297-.859-56.302 3.983-72.307-5.258z" fill="#fcc16d"/><path d="m430.418 316.759c16.004 9.24 30.814 44.568 40.708 59.991 1.479 2.298-.261 5.311-2.99 5.179-5.522-.255-12.832.005-20.785.24-8.748-16.228-19.343-35.417-30.524-41.872-14.774-8.53-24.967-4.877-36.065 3.427.526-4.431 1.43-9.197 2.396-14.309 16.198-13.915 27.714-23.941 47.26-12.656z" fill="#fca62f"/></g><path d="m390.012 354.987c-10.576-6.106-8.993-14.216-6.856-25.573 8.767-7.529 14.999-12.955 25.575-6.849 8.66 5 16.674 24.12 22.027 32.461.798 1.243-.145 2.876-1.62 2.807-9.901-.466-30.465 2.154-39.126-2.846z" fill="#fb6a3b"/></g></g><g><g><g><path d="m83.332 190.426c22.227 3.919 24.603 19.004 28.071 40.078-10.466 18.617-17.859 31.979-40.086 28.06-18.2-3.209-44.202-31.347-58.771-42.45-2.172-1.655-1.567-5.086 1.04-5.898 17.489-5.451 51.546-22.999 69.746-19.79z" fill="#fcc16d"/><path d="m83.333 190.431c22.227 3.919 24.604 19.001 28.068 40.073-2.546 4.537-4.917 8.769-7.363 12.501-3.165-13.495-8.624-22.845-25.425-25.807-12.714-2.242-33.153 5.639-50.287 12.457-5.951-5.294-11.383-10.191-15.777-13.546-2.176-1.653-1.572-5.08 1.038-5.889 17.493-5.455 51.547-22.998 69.746-19.789z" fill="#fca62f"/></g><path d="m96.214 208.818c12.027 2.121 13.313 10.283 15.189 21.686-5.663 10.074-9.663 17.304-21.69 15.183-9.848-1.737-23.918-16.962-31.801-22.97-1.175-.896-.848-2.752.563-3.192 9.463-2.949 27.891-12.444 37.739-10.707z" fill="#fb6a3b"/></g><g><g><path d="m428.668 321.574c-22.227-3.919-24.603-19.004-28.071-40.078 10.466-18.617 17.859-31.979 40.086-28.06 18.2 3.209 44.202 31.347 58.771 42.45 2.172 1.655 1.567 5.086-1.04 5.898-17.489 5.451-51.546 22.999-69.746 19.79z" fill="#fcc16d"/><path d="m440.68 253.44c18.199 3.209 44.199 31.341 58.771 42.45 2.176 1.653 1.572 5.08-1.038 5.889-5.276 1.649-12.056 4.393-19.449 7.334-13.771-12.258-30.29-26.665-43.004-28.907-16.801-2.962-25.129 3.957-32.718 15.555-1.021-4.343-1.802-9.132-2.643-14.266 10.462-18.615 17.854-31.974 40.081-28.055z" fill="#fca62f"/></g><path d="m415.786 303.182c-12.027-2.121-13.313-10.283-15.189-21.686 5.663-10.074 9.663-17.304 21.69-15.183 9.848 1.737 23.918 16.962 31.801 22.97 1.175.896.848 2.752-.563 3.192-9.463 2.949-27.891 12.444-37.739 10.707z" fill="#fb6a3b"/></g></g><g><g><g><path d="m71.318 253.436c22.227-3.919 29.619 9.443 40.086 28.06-3.468 21.074-5.844 36.159-28.071 40.078-18.2 3.209-52.257-14.339-69.745-19.789-2.607-.812-3.212-4.243-1.04-5.898 14.568-11.103 40.569-39.241 58.77-42.451z" fill="#fcc16d"/><path d="m71.32 253.441c22.227-3.919 29.619 9.44 40.081 28.056-.841 5.134-1.622 9.922-2.643 14.266-7.589-11.598-15.917-18.517-32.718-15.555-12.714 2.242-29.225 16.638-42.994 28.905-7.403-2.939-14.182-5.684-19.459-7.332-2.61-.809-3.214-4.236-1.038-5.889 14.572-11.11 40.572-39.242 58.771-42.451z" fill="#fca62f"/></g><path d="m89.713 266.313c12.027-2.121 16.027 5.11 21.69 15.183-1.876 11.403-3.162 19.566-15.189 21.686-9.848 1.737-28.277-7.759-37.739-10.708-1.411-.44-1.738-2.296-.563-3.192 7.883-6.007 21.953-21.233 31.801-22.969z" fill="#fb6a3b"/></g><g><g><path d="m440.682 258.564c-22.227 3.919-29.619-9.443-40.086-28.06 3.468-21.074 5.844-36.159 28.071-40.078 18.2-3.209 52.257 14.339 69.745 19.789 2.607.812 3.212 4.243 1.04 5.898-14.568 11.103-40.57 39.241-58.77 42.451z" fill="#fcc16d"/><path d="m428.667 190.43c18.199-3.209 52.253 14.334 69.746 19.789 2.61.809 3.214 4.236 1.038 5.889-4.394 3.354-9.826 8.252-15.768 13.544-17.133-6.808-37.583-14.697-50.297-12.455-16.801 2.962-22.26 12.312-25.425 25.807-2.445-3.732-4.816-7.965-7.363-12.501 3.465-21.071 5.842-36.153 28.069-40.073z" fill="#fca62f"/></g><path d="m422.287 245.687c-12.027 2.121-16.027-5.11-21.69-15.183 1.876-11.403 3.162-19.566 15.189-21.686 9.848-1.737 28.277 7.759 37.739 10.708 1.411.44 1.738 2.296.563 3.192-7.883 6.007-21.953 21.233-31.801 22.969z" fill="#fb6a3b"/></g></g><g><g><g><path d="m430.421 195.244c-19.546 11.285-31.063 1.257-47.265-12.658-3.949-20.989-6.875-35.977 12.671-47.262 16.005-9.241 54.01-4.399 72.307-5.258 2.728-.128 4.469 2.889 2.995 5.187-9.893 15.416-24.703 50.75-40.708 59.991z" fill="#fcc16d"/><path d="m430.418 195.241c-19.546 11.285-31.062 1.26-47.259-12.656-.965-5.112-1.87-9.879-2.396-14.309 11.099 8.303 21.291 11.957 36.065 3.427 11.18-6.455 21.772-25.63 30.515-41.867 7.962.23 15.271.49 20.793.235 2.729-.132 4.469 2.881 2.99 5.179-9.894 15.423-24.704 50.751-40.708 59.991z" fill="#fca62f"/></g><path d="m408.731 189.436c-10.576 6.106-16.808.68-25.575-6.849-2.137-11.357-3.72-19.467 6.856-25.573 8.66-5 29.225-2.38 39.126-2.845 1.476-.069 2.418 1.563 1.62 2.807-5.353 8.34-13.366 27.459-22.027 32.46z" fill="#fb6a3b"/></g><g><g><path d="m81.579 316.756c19.546-11.285 31.063-1.257 47.265 12.658 3.949 20.989 6.875 35.977-12.671 47.262-16.005 9.241-54.01 4.399-72.307 5.258-2.728.128-4.469-2.889-2.995-5.187 9.893-15.416 24.703-50.75 40.708-59.991z" fill="#fcc16d"/><path d="m116.172 376.671c-16.004 9.24-54.004 4.402-72.308 5.259-2.729.132-4.469-2.881-2.99-5.179 2.982-4.655 6.412-11.115 10.185-18.12 18.428.538 40.343.957 51.524-5.499 14.774-8.53 16.707-19.183 15.065-32.947 3.574 2.671 7.25 5.837 11.194 9.229 3.952 20.986 6.876 35.972-12.67 47.257z" fill="#fca62f"/></g><path d="m103.269 322.565c10.576-6.106 16.808-.68 25.575 6.849 2.137 11.357 3.72 19.467-6.856 25.573-8.66 5-29.225 2.38-39.126 2.845-1.476.069-2.418-1.563-1.62-2.807 5.353-8.341 13.366-27.46 22.027-32.46z" fill="#fb6a3b"/></g></g><g><g><g><path d="m399.123 139.253c-14.508 17.29-28.76 11.805-48.744 4.271-10.89-18.373-18.766-31.456-4.258-48.745 11.879-14.158 49.248-22.606 66.148-29.672 2.519-1.053 5.188 1.186 4.588 3.85-4.024 17.87-5.855 56.138-17.734 70.296z" fill="#fcc16d"/><path d="m399.118 139.251c-14.508 17.29-28.758 11.807-48.738 4.271-2.656-4.474-5.136-8.643-7.145-12.627 13.269 4.007 24.096 3.954 35.062-9.115 8.298-9.89 11.693-31.531 14.355-49.778 7.56-2.507 14.518-4.762 19.62-6.891 2.52-1.058 5.185 1.179 4.581 3.844-4.022 17.876-5.856 56.139-17.735 70.296z" fill="#fca62f"/></g><path d="m376.754 141.213c-7.85 9.355-15.562 6.388-26.376 2.311-5.892-9.941-10.154-17.021-2.304-26.376 6.428-7.661 26.648-12.232 35.793-16.056 1.363-.57 2.807.642 2.483 2.083-2.177 9.67-3.168 30.377-9.596 38.038z" fill="#fb6a3b"/></g><g><g><path d="m112.877 372.747c14.508-17.29 28.76-11.805 48.744-4.271 10.89 18.373 18.766 31.456 4.258 48.745-11.879 14.157-49.248 22.606-66.148 29.672-2.519 1.053-5.188-1.186-4.588-3.85 4.024-17.87 5.855-56.138 17.734-70.296z" fill="#fcc16d"/><path d="m165.877 417.218c-11.879 14.156-49.242 22.607-66.149 29.672-2.52 1.058-5.185-1.179-4.581-3.844 1.21-5.394 2.223-12.637 3.373-20.51 17.501-5.797 38.237-12.899 46.536-22.789 10.966-13.069 9.138-23.74 2.888-36.112 4.272 1.287 8.809 3.006 13.676 4.844 10.891 18.367 18.764 31.449 4.257 48.739z" fill="#fca62f"/></g><path d="m135.246 370.787c7.85-9.355 15.562-6.388 26.376-2.311 5.892 9.941 10.154 17.021 2.304 26.376-6.428 7.661-26.648 12.232-35.793 16.056-1.363.57-2.807-.642-2.483-2.083 2.177-9.67 3.168-30.377 9.596-38.038z" fill="#fb6a3b"/></g></g><g><g><g><path d="m350.561 97.342c-7.719 21.209-22.987 20.93-44.343 20.685-16.517-13.54-28.392-23.14-20.673-44.349 6.321-17.367 38.547-38.087 52.011-50.506 2.007-1.851 5.281-.66 5.628 2.048 2.33 18.169 13.698 54.756 7.377 72.122z" fill="#fcc16d"/><path d="m350.557 97.342c-7.719 21.209-22.985 20.931-44.338 20.683-4.026-3.296-7.782-6.366-11.033-9.422 13.839-.773 23.995-4.526 29.83-20.557 4.415-12.131.204-33.628-3.535-51.686 6.247-4.942 12.013-9.441 16.079-13.186 2.006-1.856 5.276-.666 5.619 2.045 2.335 18.175 13.698 54.758 7.378 72.123z" fill="#fca62f"/></g><path d="m330.212 106.835c-4.177 11.476-12.439 11.325-23.994 11.193-8.937-7.327-15.363-12.521-11.186-23.997 3.42-9.397 20.858-20.609 28.143-27.329 1.086-1.002 2.857-.357 3.045 1.108 1.261 9.83 7.412 29.628 3.992 39.025z" fill="#fb6a3b"/></g><g><g><path d="m161.439 414.658c7.719-21.209 22.987-20.93 44.343-20.685 16.517 13.54 28.392 23.14 20.673 44.349-6.321 17.367-38.547 38.087-52.011 50.506-2.007 1.851-5.281.66-5.628-2.048-2.33-18.169-13.698-54.756-7.377-72.122z" fill="#fcc16d"/><path d="m226.451 438.319c-6.321 17.366-38.54 38.085-52.011 50.507-2.006 1.856-5.276.666-5.619-2.045-.708-5.483-2.233-12.636-3.845-20.427 14.463-11.433 31.52-25.199 35.935-37.331 5.835-16.031.467-25.434-9.637-34.922 4.455-.251 9.306-.189 14.508-.126 16.516 13.535 28.389 23.135 20.669 44.344z" fill="#fca62f"/></g><path d="m181.788 405.165c4.177-11.476 12.439-11.325 23.994-11.193 8.937 7.327 15.363 12.521 11.186 23.997-3.42 9.397-20.858 20.609-28.143 27.329-1.086 1.002-2.857.357-3.045-1.108-1.261-9.83-7.412-29.628-3.992-39.025z" fill="#fb6a3b"/></g></g></g><g><g><circle cx="256" cy="256" fill="#1c96f9" r="164.492"/><path d="m420.495 256c0 90.849-73.646 164.495-164.495 164.495-4.973 0-9.899-.225-14.768-.656 83.928-7.464 149.726-77.972 149.726-163.839s-65.798-156.375-149.726-163.839c4.87-.431 9.796-.656 14.768-.656 90.849 0 164.495 73.646 164.495 164.495z" fill="#1785f8"/><circle cx="218.548" cy="256" fill="#fcc16d" r="127.04"/><path d="m345.585 256c0 70.162-56.873 127.044-127.035 127.044-4.373 0-8.7-.225-12.961-.656 64.075-6.49 114.083-60.6 114.083-126.389s-50.009-119.899-114.083-126.389c4.261-.431 8.588-.655 12.961-.655 70.162.001 127.035 56.883 127.035 127.045z" fill="#fca62f"/></g><circle cx="256" cy="256" fill="#f3f0f3" r="18.941"/><g><path d="m503.999 289.921c-3.787-2.886-8.656-7.227-13.811-11.823-8.432-7.517-17.707-15.787-26.898-22.093 9.114-6.251 18.324-14.459 26.898-22.104 5.154-4.595 10.023-8.936 13.812-11.823 3.245-2.474 4.82-6.51 4.11-10.534-.71-4.023-3.57-7.276-7.466-8.489-4.547-1.417-10.606-3.831-17.022-6.387-10.501-4.183-22.042-8.778-32.833-11.559 6.426-8.991 12.274-19.854 17.716-29.971 3.272-6.082 6.362-11.827 8.936-15.835 2.204-3.435 2.304-7.767.261-11.305s-5.855-5.623-9.92-5.424c-4.756.224-11.275.028-18.177-.18-11.285-.34-23.71-.708-34.81.37 2.964-10.647 4.743-22.856 6.398-34.224.995-6.834 1.935-13.291 2.981-17.938.896-3.98-.491-8.085-3.621-10.71-3.129-2.625-7.41-3.28-11.179-1.706-4.394 1.837-10.588 3.883-17.146 6.05-10.731 3.545-22.525 7.443-32.579 12.249-.857-11.019-3.361-23.101-5.694-34.35-1.402-6.761-2.728-13.147-3.334-17.871-.52-4.047-3.227-7.43-7.065-8.827-3.84-1.396-8.087-.546-11.086 2.221-3.501 3.229-8.621 7.27-14.042 11.548-9.023 7.121-18.712 14.77-26.452 22.664-1.511-3.321-3.305-6.881-5.429-10.745-1.995-3.63-6.556-4.954-10.185-2.96-3.63 1.995-4.955 6.555-2.96 10.186 3.689 6.712 6.261 12.293 7.843 17.006-1.118 1.914-2.05 3.834-2.749 5.754-.394 1.081-.74 2.144-1.052 3.195-2.422-4.863-5.44-9.758-8.289-14.369-1.929-3.12-3.75-6.067-4.871-8.237-1.605-3.112-4.78-5.045-8.284-5.045s-6.679 1.933-8.284 5.043c-1.121 2.171-2.942 5.119-4.871 8.239-2.849 4.61-5.868 9.506-8.289 14.369-.312-1.051-.659-2.114-1.052-3.195-.699-1.919-1.63-3.837-2.747-5.75 3.698-11.014 12.198-24.778 19.101-35.946 2.175-3.518 4.28-6.924 6.143-10.085.77 1.305 1.634 2.743 2.616 4.354 2.157 3.537 6.773 4.653 10.309 2.498 3.536-2.157 4.654-6.772 2.498-10.309-1.828-2.998-4.136-6.843-5.764-9.994-1.873-3.626-5.574-5.879-9.66-5.879s-7.787 2.253-9.658 5.878c-2.185 4.23-5.613 9.778-9.243 15.651-5.95 9.625-12.474 20.191-17.085 30.333-7.739-7.891-17.423-15.537-26.442-22.655-5.421-4.278-10.541-8.319-14.042-11.549-2.999-2.765-7.246-3.617-11.086-2.22-3.839 1.397-6.546 4.78-7.066 8.828-.605 4.723-1.931 11.108-3.333 17.868-2.294 11.057-4.816 23.228-5.681 34.346-9.971-4.768-21.686-8.64-32.595-12.244-6.557-2.166-12.751-4.212-17.144-6.049-3.764-1.573-8.047-.921-11.177 1.705s-4.518 6.73-3.621 10.712c1.046 4.646 1.985 11.102 2.979 17.936 1.625 11.158 3.422 23.462 6.413 34.212-11.001-1.071-23.336-.703-34.823-.357-6.901.208-13.422.404-18.178.18-4.091-.191-7.878 1.888-9.921 5.426-2.042 3.538-1.941 7.869.263 11.303 2.572 4.008 5.662 9.753 8.935 15.835 5.363 9.967 11.25 20.896 17.727 29.958-10.703 2.756-22.167 7.319-32.843 11.572-6.416 2.556-12.476 4.97-17.023 6.387-3.896 1.214-6.756 4.468-7.466 8.491-.709 4.023.866 8.059 4.112 10.533 3.788 2.887 8.657 7.228 13.812 11.824 8.45 7.534 17.719 15.788 26.903 22.088-9.115 6.251-18.327 14.462-26.904 22.108-5.154 4.596-10.023 8.937-13.81 11.822-3.247 2.474-4.822 6.509-4.113 10.533.71 4.023 3.571 7.277 7.467 8.491 4.547 1.417 10.606 3.831 17.022 6.387 10.501 4.183 22.042 8.777 32.833 11.559-6.426 8.991-12.274 19.854-17.716 29.971-3.272 6.082-6.362 11.827-8.936 15.835-2.204 3.435-2.304 7.767-.261 11.305s5.842 5.621 9.92 5.424c4.759-.224 11.276-.027 18.178.18 5.656.17 11.599.348 17.519.348 5.89 0 11.754-.181 17.29-.718-2.964 10.646-4.743 22.855-6.398 34.224-.995 6.835-1.935 13.291-2.981 17.938-.896 3.981.492 8.086 3.622 10.712 2 1.678 4.472 2.551 6.978 2.551 1.415 0 2.84-.278 4.198-.846 3.964-1.657 9.301-3.453 14.88-5.3 3.933-1.302 6.064-5.545 4.763-9.477-1.302-3.933-5.547-6.066-9.478-4.762-3.082 1.021-6.101 2.029-8.917 3.026.606-3.621 1.183-7.585 1.779-11.681 2.422-16.64 5.738-39.429 12.972-48.05 2.581-3.076 5.148-5.285 7.769-6.716-3.652 7.395-5.148 17.629-6.494 26.879-.528 3.631-1.027 7.06-1.565 9.447-.769 3.417.423 6.938 3.107 9.189 1.716 1.438 3.835 2.186 5.983 2.186 1.214 0 2.437-.239 3.602-.726 2.255-.943 5.545-2.03 9.028-3.18 5.147-1.7 10.606-3.51 15.587-5.679-.436 1.006-.855 2.042-1.249 3.124-.7 1.922-1.22 3.993-1.594 6.181-3.496 2.139-7.868 4.283-13.302 6.526-3.828 1.581-5.65 5.966-4.07 9.794 1.194 2.893 3.989 4.64 6.936 4.64.953 0 1.923-.183 2.859-.569 2.563-1.058 4.93-2.108 7.13-3.158.856 11.021 3.361 23.105 5.695 34.357 1.402 6.761 2.728 13.147 3.334 17.871.52 4.047 3.227 7.43 7.065 8.827 1.222.444 2.484.662 3.735.662 2.681 0 5.306-.996 7.351-2.882 3.501-3.229 8.621-7.27 14.042-11.548 9.019-7.118 18.704-14.764 26.443-22.655 4.611 10.141 11.133 20.705 17.082 30.329 3.631 5.875 7.061 11.423 9.245 15.655 1.873 3.626 5.574 5.878 9.659 5.878s7.786-2.252 9.659-5.879c2.185-4.231 5.614-9.78 9.245-15.654 5.949-9.624 12.471-20.188 17.082-30.329 7.739 7.891 17.423 15.537 26.443 22.655 5.421 4.278 10.541 8.319 14.042 11.548 2.045 1.886 4.67 2.882 7.351 2.882 1.251 0 2.514-.217 3.735-.662 3.839-1.397 6.546-4.78 7.066-8.828.605-4.724 1.931-11.111 3.333-17.873 2.294-11.055 4.816-23.224 5.681-34.341 9.971 4.768 21.686 8.64 32.595 12.244 6.557 2.166 12.751 4.212 17.144 6.049 1.358.568 2.784.846 4.199.846 2.506 0 4.978-.873 6.978-2.551 3.13-2.626 4.518-6.73 3.621-10.713-1.046-4.646-1.985-11.102-2.98-17.937-1.63-11.198-3.424-23.481-6.41-34.212 5.471.532 11.269.712 17.132.712 5.925 0 11.914-.18 17.686-.353 6.903-.207 13.425-.403 18.181-.18 4.087.2 7.878-1.888 9.921-5.426 2.042-3.538 1.941-7.869-.262-11.303-2.572-4.007-5.662-9.751-8.935-15.833-5.354-9.951-11.242-20.895-17.723-29.965 10.703-2.756 22.165-7.315 32.838-11.567 6.416-2.556 12.476-4.97 17.023-6.387 3.896-1.214 6.756-4.468 7.466-8.491.707-4.025-.868-8.061-4.114-10.535zm-14.925-75.018c-2.79 2.383-5.779 5.049-8.868 7.802-12.552 11.191-29.742 26.518-40.827 28.472-3.959.698-7.347.744-10.273.154 7.553-3.316 15.279-10.197 22.258-16.42 2.738-2.441 5.325-4.748 7.271-6.23 2.784-2.122 4.136-5.583 3.527-9.033-.608-3.45-3.062-6.241-6.405-7.284-2.333-.728-5.553-2.01-8.961-3.367-5.037-2.006-10.385-4.129-15.595-5.67.982-.491 1.97-1.012 2.97-1.589 1.769-1.021 3.495-2.27 5.185-3.703 11.443 1.712 25.898 7.461 38.715 12.567 3.844 1.533 7.566 3.015 11.003 4.301zm-111.815 184.989c.037.25.073.5.109.749-.238-.079-.477-.157-.716-.237-5.352-1.768-12.584-4.157-17.65-6.75 5.118-3.84 10.011-7.964 14.666-12.337 1.679 5.439 2.778 12.99 3.591 18.575zm-185.243 33.067c-.199.157-.396.313-.594.469-.051-.245-.103-.491-.153-.737-1.135-5.471-2.663-12.845-2.969-18.509 5.833 2.498 11.8 4.675 17.885 6.508-3.874 4.142-9.784 8.808-14.169 12.269zm-3.716-335.14c.305-5.664 1.833-13.036 2.968-18.506.052-.248.103-.495.153-.741.197.156.396.312.595.469 4.385 3.461 10.295 8.128 14.17 12.27-6.086 1.833-12.053 4.01-17.886 6.508zm-49.997 32.771c-1.663-5.433-2.755-12.928-3.562-18.482-.037-.25-.073-.5-.109-.749.238.079.477.157.716.237 5.324 1.758 12.507 4.132 17.568 6.71-5.06 3.802-9.941 7.895-14.613 12.284zm-35.839 47.756c-3.407-4.535-6.977-11.167-9.625-16.088-.119-.223-.239-.444-.357-.666.251-.007.502-.015.755-.022 5.594-.168 13.134-.393 18.767.294-3.495 5.325-6.675 10.828-9.54 16.482zm-17.257 57.225c-4.762-3.094-10.408-8.126-14.592-11.857-.188-.167-.376-.335-.563-.501.234-.093.469-.187.704-.28 5.197-2.07 12.208-4.859 17.735-6.141-1.432 6.166-2.536 12.432-3.284 18.779zm3.285 59.639c-5.528-1.282-12.54-4.073-17.737-6.143-.235-.093-.469-.187-.702-.279.188-.167.376-.335.565-.504 4.183-3.73 9.828-8.761 14.589-11.855.748 6.347 1.852 12.613 3.285 18.781zm23.512 54.927c-5.634.686-13.175.462-18.766.293-.253-.007-.505-.015-.756-.022.118-.221.238-.443.357-.666 2.648-4.921 6.218-11.552 9.625-16.088 2.865 5.654 6.045 11.157 9.54 16.483zm146.445-222.654c-12.468-3.804-26.261-6.023-39.902-6.023-24.567 0-47.614 6.624-67.457 18.172 27.92-25.208 64.795-40.623 104.909-40.623 86.565 0 156.991 70.426 156.991 156.992s-70.425 156.991-156.99 156.991c-40.115 0-76.989-15.416-104.91-40.623 19.844 11.548 42.891 18.172 67.458 18.172 68.652 0 126.132-51.387 133.702-119.53.457-4.117-2.509-7.825-6.626-8.282-4.122-.458-7.825 2.51-8.282 6.626-.854 7.684-2.425 15.126-4.637 22.267l-34.474-19.903c-3.59-2.072-8.175-.842-10.245 2.745-2.071 3.587-.842 8.174 2.745 10.245l36.557 21.105c-8.491 18.589-21.569 34.515-37.736 46.434l-2.925-10.917c-1.071-4.001-5.189-6.374-9.185-5.304-4.001 1.072-6.376 5.185-5.304 9.186l4.159 15.523c-4.125 2.272-8.398 4.303-12.797 6.083v-66.391c0-4.142-3.357-7.5-7.5-7.5s-7.5 3.358-7.5 7.5v71.334c-5.39 1.387-10.923 2.405-16.569 3.033l8.006-29.875c1.072-4.001-1.302-8.114-5.303-9.186-4.002-1.071-8.114 1.302-9.186 5.303l-9.238 34.474c-6.614-.128-13.099-.794-19.411-1.959l43.482-75.321c2.071-3.587.842-8.174-2.745-10.245-3.589-2.073-8.176-.842-10.245 2.746l-45.599 78.987c-19.728-6.409-37.22-17.816-50.978-32.724l41.988-24.244c3.587-2.071 4.816-6.658 2.745-10.245-2.072-3.588-6.659-4.814-10.245-2.745l-44.072 25.447c-4.866-6.83-9.027-14.194-12.389-21.981l53.798-14.417c4.001-1.072 6.375-5.185 5.303-9.186s-5.185-6.375-9.186-5.303l-54.995 14.738c-2.362-8.195-3.863-16.75-4.411-25.559h112.322c4.143 0 7.5-3.358 7.5-7.5s-3.357-7.5-7.5-7.5h-112.321c1.425-22.899 9.317-44.074 21.88-61.707l8.615 4.974c1.181.682 2.471 1.006 3.743 1.006 2.592 0 5.113-1.345 6.502-3.751 2.071-3.587.842-8.174-2.745-10.245l-6.531-3.771c5.4-5.852 11.376-11.164 17.837-15.847l33.004 33.003c1.465 1.464 3.385 2.197 5.304 2.197s3.839-.732 5.304-2.197c2.929-2.929 2.929-7.678 0-10.606l-30.612-30.611c6.385-3.478 13.123-6.383 20.141-8.663l45.599 78.987c1.389 2.406 3.91 3.752 6.502 3.752 1.272 0 2.562-.324 3.743-1.006 3.587-2.071 4.816-6.658 2.745-10.245l-43.483-75.321c6.313-1.165 12.797-1.832 19.412-1.959l3.009 11.232c.897 3.351 3.928 5.561 7.239 5.561.643 0 1.296-.083 1.946-.257 4.001-1.072 6.375-5.185 5.303-9.186l-1.777-6.631c5.644.63 11.177 1.652 16.569 3.043v71.321c0 4.142 3.357 7.5 7.5 7.5s7.5-3.358 7.5-7.5v-66.363c12.97 5.262 24.837 12.738 35.107 21.99l-14.834 25.693c-2.071 3.587-.842 8.174 2.745 10.245 1.182.682 2.471 1.006 3.743 1.006 2.592 0 5.113-1.345 6.502-3.751l12.722-22.034c7.134 8.342 13.142 17.696 17.784 27.839l-36.539 21.095c-3.587 2.071-4.816 6.658-2.745 10.245 1.389 2.406 3.91 3.751 6.502 3.751 1.272 0 2.563-.324 3.743-1.006l34.467-19.899c2.15 6.926 3.695 14.134 4.565 21.569.481 4.114 4.206 7.057 8.321 6.578 4.113-.481 7.059-4.207 6.577-8.321-6.312-53.958-44.082-97.339-93.711-112.727zm61.535-48.442c.199-.157.396-.313.594-.469.051.245.103.491.153.738 1.141 5.499 2.68 12.921 2.975 18.597-5.822-2.503-11.809-4.69-17.939-6.547 3.874-4.155 9.815-8.844 14.217-12.319zm103.492 137.743c5.532 1.279 12.562 4.075 17.769 6.149.235.093.469.187.702.279-.188.167-.376.335-.565.504-4.188 3.734-9.842 8.774-14.608 11.867-.758-6.378-1.859-12.652-3.298-18.799zm-23.6-54.909c5.645-.704 13.255-.476 18.887-.305.253.007.505.015.756.022-.118.221-.238.443-.357.666-2.663 4.95-6.26 11.633-9.685 16.17-2.898-5.708-6.108-11.231-9.601-16.553zm-22.617-49.767c-.812 5.585-1.912 13.136-3.591 18.576-4.655-4.374-9.548-8.498-14.666-12.338 5.065-2.593 12.298-4.983 17.65-6.75.239-.079.478-.158.716-.237-.036.249-.072.498-.109.749zm-121.259 315.884c3.205 0 6.387-.096 9.549-.269-2.219 5.231-6.202 11.677-9.153 16.452-.132.214-.264.428-.396.641-.132-.213-.264-.426-.396-.641-2.952-4.775-6.935-11.221-9.153-16.452 3.169.172 6.352.269 9.549.269zm67.706-13.899c-.295 5.675-1.833 13.096-2.974 18.594-.052.248-.103.495-.153.741-.197-.155-.396-.312-.594-.468-4.403-3.475-10.345-8.165-14.219-12.32 6.131-1.856 12.118-4.044 17.94-6.547zm85.77-80.521c3.425 4.537 7.022 11.221 9.685 16.17.119.223.239.444.357.666-.251.007-.502.015-.755.022-5.633.168-13.242.397-18.887-.307 3.494-5.321 6.703-10.843 9.6-16.551zm17.298-57.156c4.766 3.093 10.419 8.133 14.608 11.867.189.168.377.336.564.504-.233.093-.468.186-.703.28-5.207 2.074-12.235 4.87-17.767 6.149 1.439-6.146 2.54-12.421 3.298-18.8zm22.381-139.028c4.135.124 8.138.245 11.807.277-1.807 3.195-3.705 6.723-5.666 10.367-7.967 14.809-18.878 35.089-28.625 40.717-3.497 2.019-6.663 3.223-9.609 3.666 5.967-5.699 10.876-14.812 15.308-23.05 1.738-3.231 3.38-6.283 4.7-8.34 1.892-2.946 1.978-6.662.227-9.696-1.753-3.035-5.006-4.805-8.512-4.653-2.439.114-5.904.01-9.572-.099-5.417-.163-11.165-.329-16.586.005.754-.796 1.501-1.627 2.241-2.508 1.313-1.565 2.509-3.33 3.607-5.255 11.357-2.305 26.915-1.845 40.68-1.431zm-52.22-58.908c3.93-1.298 7.733-2.555 11.194-3.78-.605 3.621-1.183 7.585-1.779 11.681-2.422 16.64-5.738 39.43-12.972 48.051-2.586 3.081-5.152 5.295-7.773 6.723 3.655-7.395 5.151-17.633 6.498-26.887.528-3.631 1.027-7.06 1.565-9.447.769-3.417-.423-6.938-3.107-9.189-2.686-2.251-6.358-2.81-9.585-1.459-2.255.943-5.545 2.03-9.028 3.18-5.146 1.7-10.604 3.51-15.584 5.678.436-1.005.853-2.042 1.246-3.123.698-1.919 1.218-3.986 1.592-6.169 9.867-6.045 24.636-10.932 37.733-15.259zm-69.214-37.498c3.249-2.563 6.393-5.045 9.226-7.379.669 3.608 1.482 7.53 2.322 11.581 3.416 16.466 8.094 39.018 4.245 49.594-1.374 3.775-3.029 6.729-5.003 8.969.903-8.199-1.193-18.33-3.091-27.484-.745-3.591-1.449-6.984-1.76-9.405-.444-3.473-2.766-6.375-6.058-7.574-3.295-1.199-6.938-.47-9.512 1.905-1.797 1.658-4.518 3.805-7.398 6.078-7.338 5.792-15.455 12.205-20.033 19.066-.073-2.983.56-6.311 1.934-10.088 3.849-10.577 21.928-24.845 35.128-35.263zm-72.117 26.844c.132-.214.264-.428.396-.641.132.213.264.426.396.641 2.952 4.775 6.935 11.221 9.153 16.452-3.162-.174-6.344-.269-9.549-.269-3.197 0-6.38.097-9.549.269 2.219-5.232 6.202-11.677 9.153-16.452zm-82.873-22.645c.84-4.05 1.653-7.971 2.322-11.578 2.833 2.334 5.977 4.816 9.226 7.379 13.2 10.418 31.278 24.686 35.128 35.261 1.375 3.777 2.007 7.105 1.935 10.089-4.578-6.861-12.695-13.275-20.033-19.066-2.881-2.273-5.602-4.42-7.398-6.079-2.573-2.373-6.217-3.105-9.509-1.906-3.292 1.198-5.614 4.099-6.062 7.574-.311 2.425-1.015 5.818-1.76 9.41-1.101 5.308-2.263 10.942-2.875 16.34-.654-.882-1.34-1.764-2.081-2.647-1.313-1.565-2.843-3.049-4.548-4.464-.298-11.583 2.857-26.824 5.655-40.313zm-67.082 41.199c-.596-4.095-1.173-8.06-1.778-11.68 3.46 1.225 7.263 2.481 11.191 3.779 15.968 5.274 37.837 12.499 45.071 21.121 2.594 3.091 4.34 6.005 5.289 8.834-6.649-4.891-16.483-8.145-25.37-11.081-3.482-1.151-6.772-2.237-9.028-3.181-3.23-1.35-6.904-.791-9.587 1.461-2.684 2.251-3.873 5.772-3.104 9.189.537 2.385 1.036 5.814 1.564 9.445.78 5.36 1.614 11.048 2.884 16.326-.913-.603-1.864-1.191-2.858-1.765-1.772-1.023-3.722-1.895-5.812-2.644-4.239-10.796-6.482-26.206-8.462-39.804zm-48.945 61.652c-1.961-3.644-3.859-7.172-5.666-10.367 3.669-.032 7.673-.152 11.808-.277 16.812-.504 39.83-1.195 49.577 4.432 3.472 2.005 6.092 4.149 7.957 6.483-7.916-2.311-18.251-2.007-27.594-1.726-3.668.109-7.131.213-9.572.099-3.491-.158-6.759 1.62-8.511 4.653-1.751 3.034-1.665 6.75.227 9.696 1.32 2.057 2.962 5.109 4.7 8.34 2.567 4.771 5.297 9.832 8.297 14.359-1.065-.255-2.16-.485-3.292-.685-2.012-.354-4.139-.506-6.356-.495-7.687-8.709-15.352-22.945-21.575-34.512zm-24.909 74.675c-3.089-2.754-6.079-5.42-8.869-7.804 3.438-1.286 7.159-2.768 11.003-4.299 15.623-6.224 37.028-14.75 48.101-12.792 3.956.698 7.153 1.816 9.702 3.371-8.229.536-17.841 4.356-26.526 7.814-3.409 1.358-6.629 2.641-8.965 3.369-3.342 1.042-5.795 3.833-6.403 7.283s.743 6.911 3.528 9.033c1.943 1.481 4.529 3.787 7.267 6.228 4.047 3.608 8.346 7.432 12.715 10.662-1.091.125-2.198.278-3.333.479-2.013.355-4.065.939-6.145 1.708-10.202-5.555-22.269-16.31-32.075-25.052zm-8.869 74.39c2.79-2.383 5.78-5.049 8.868-7.803 12.552-11.191 29.742-26.518 40.826-28.472 3.974-.701 7.371-.756 10.294-.164-7.559 3.313-15.293 10.201-22.279 16.429-2.738 2.441-5.325 4.748-7.271 6.23-2.784 2.123-4.136 5.584-3.527 9.035.608 3.45 3.063 6.24 6.405 7.282 2.333.728 5.553 2.01 8.961 3.367 5.032 2.005 10.375 4.128 15.581 5.668-.978.489-1.963 1.017-2.956 1.591-1.769 1.021-3.495 2.27-5.185 3.703-11.443-1.712-25.898-7.461-38.715-12.567-3.843-1.531-7.565-3.013-11.002-4.299zm39.92 77.515c-4.135-.125-8.138-.245-11.808-.277 1.807-3.195 3.705-6.723 5.666-10.367 7.967-14.809 18.878-35.089 28.625-40.717 3.479-2.009 6.647-3.206 9.597-3.654-5.961 5.7-10.867 14.805-15.296 23.037-1.738 3.231-3.38 6.283-4.7 8.34-1.892 2.946-1.978 6.662-.227 9.696 1.753 3.035 5.015 4.82 8.512 4.653 2.439-.114 5.904-.011 9.572.099 3.146.095 6.404.192 9.647.192 2.335 0 4.66-.054 6.929-.193-.751.793-1.495 1.626-2.232 2.504-1.313 1.565-2.509 3.331-3.608 5.255-11.357 2.306-26.916 1.844-40.677 1.432zm72.502 25.792c-.239.079-.478.158-.716.237.036-.249.072-.499.109-.749.808-5.554 1.9-13.049 3.562-18.482 4.671 4.389 9.552 8.482 14.612 12.284-5.061 2.578-12.243 4.952-17.567 6.71zm48.931 70.614c-3.249 2.563-6.393 5.045-9.226 7.379-.669-3.608-1.482-7.53-2.322-11.581-3.416-16.466-8.094-39.018-4.245-49.594 1.376-3.782 3.03-6.742 5.005-8.981-.906 8.201 1.191 18.337 3.09 27.496.745 3.591 1.449 6.983 1.76 9.404.444 3.473 2.766 6.376 6.058 7.575 1.049.381 2.132.568 3.205.568 2.299 0 4.552-.854 6.307-2.473 1.797-1.658 4.518-3.805 7.398-6.078 7.335-5.789 15.448-12.199 20.027-19.057.071 2.987-.557 6.313-1.928 10.08-3.85 10.576-21.929 24.844-35.129 35.262zm77.866 11.563c-2.175 3.52-4.281 6.928-6.145 10.09-1.863-3.163-3.97-6.57-6.145-10.09-6.903-11.168-15.402-24.931-19.099-35.943 1.117-1.913 2.048-3.831 2.747-5.75.393-1.078.744-2.141 1.055-3.189 2.421 4.861 5.438 9.754 8.286 14.362 1.929 3.12 3.75 6.067 4.871 8.237 1.605 3.112 4.78 5.045 8.284 5.045s6.679-1.933 8.284-5.043c1.121-2.171 2.942-5.119 4.871-8.239 2.849-4.61 5.868-9.506 8.289-14.368.312 1.051.659 2.114 1.052 3.195.699 1.919 1.629 3.837 2.747 5.75-3.695 11.012-12.195 24.775-19.097 35.943zm77.125-15.768c-.841 4.052-1.654 7.975-2.324 11.583-2.832-2.334-5.977-4.816-9.225-7.379-13.2-10.418-31.278-24.686-35.128-35.261-1.375-3.777-2.007-7.106-1.934-10.089 4.578 6.862 12.696 13.275 20.035 19.067 2.88 2.273 5.6 4.419 7.396 6.076 1.755 1.619 4.008 2.474 6.308 2.474 1.072 0 2.154-.186 3.201-.567 3.293-1.198 5.615-4.099 6.063-7.574.311-2.425 1.015-5.818 1.76-9.41 1.1-5.304 2.261-10.934 2.874-16.329.652.879 1.344 1.757 2.082 2.637 1.313 1.565 2.843 3.049 4.547 4.464.296 11.583-2.858 26.822-5.655 40.308zm67.08-41.194c.597 4.096 1.174 8.061 1.779 11.681-3.46-1.225-7.263-2.481-11.191-3.779-15.968-5.274-37.837-12.499-45.071-21.12-2.579-3.074-4.308-5.985-5.262-8.816 6.648 4.88 16.467 8.13 25.344 11.062 3.482 1.151 6.772 2.237 9.028 3.181 1.166.487 2.389.726 3.603.726 2.149 0 4.27-.748 5.984-2.187 2.684-2.251 3.873-5.772 3.104-9.189-.537-2.385-1.036-5.814-1.564-9.445-.78-5.36-1.614-11.047-2.884-16.326.912.603 1.865 1.191 2.858 1.764 1.769 1.022 3.715 1.893 5.802 2.641 4.245 10.812 6.579 26.814 8.47 39.807zm48.948-61.649c1.96 3.643 3.857 7.17 5.664 10.365-3.67.032-7.675.152-11.811.276-16.806.505-39.828 1.196-49.574-4.432-3.469-2.003-6.088-4.147-7.954-6.481 5.249 1.532 11.56 1.917 17.945 1.917 3.241 0 6.501-.098 9.646-.192 3.668-.11 7.131-.213 9.572-.099 3.494.163 6.759-1.619 8.511-4.653 1.751-3.034 1.665-6.75-.227-9.696-1.32-2.057-2.962-5.109-4.7-8.34-2.568-4.773-5.299-9.835-8.299-14.363 1.067.255 2.16.488 3.294.689 1.947.343 3.997.502 6.136.501.071 0 .145-.006.215-.007 7.669 8.673 15.048 22.371 21.582 34.515zm22.773-62.574c-15.624 6.223-37.028 14.748-48.101 12.792-3.965-.699-7.169-1.812-9.714-3.367 8.232-.532 17.849-4.358 26.538-7.818 3.409-1.358 6.629-2.641 8.965-3.369 3.342-1.042 5.795-3.833 6.403-7.283s-.743-6.911-3.528-9.034c-1.944-1.481-4.531-3.788-7.27-6.229-4.047-3.608-8.346-7.432-12.716-10.662 1.092-.125 2.198-.276 3.335-.476 2.011-.355 4.061-.938 6.139-1.706 10.173 5.527 21.794 15.876 32.083 25.051 3.088 2.753 6.078 5.419 8.868 7.803-3.436 1.285-7.158 2.767-11.002 4.298z"/><path d="m319.672 248.5h-7.19c-4.143 0-7.5 3.358-7.5 7.5s3.357 7.5 7.5 7.5h7.19c4.143 0 7.5-3.358 7.5-7.5s-3.358-7.5-7.5-7.5z"/><path d="m383.17 226.101h.098c4.143 0 7.451-3.358 7.451-7.5s-3.406-7.5-7.549-7.5-7.5 3.358-7.5 7.5 3.357 7.5 7.5 7.5z"/><path d="m354.115 357.413h.038.098c4.143-.021 7.435-3.395 7.414-7.537-.021-4.129-3.423-7.462-7.548-7.462-.013 0-.025 0-.038 0-4.143.021-7.483 3.396-7.463 7.538.021 4.128 3.374 7.461 7.499 7.461z"/><path d="m300.425 121.46c-.013 0-.025 0-.038 0-4.143.021-7.483 3.396-7.463 7.538.021 4.129 3.374 7.462 7.499 7.462h.038.098c4.143-.021 7.435-3.395 7.414-7.537-.021-4.13-3.423-7.463-7.548-7.463z"/><path d="m363.706 209.753h.098c4.143 0 7.451-3.358 7.451-7.5s-3.406-7.5-7.549-7.5-7.5 3.358-7.5 7.5 3.357 7.5 7.5 7.5z"/><path d="m256 229.559c-14.58 0-26.441 11.861-26.441 26.441s11.861 26.441 26.441 26.441 26.441-11.861 26.441-26.441-11.861-26.441-26.441-26.441zm0 37.882c-6.309 0-11.441-5.133-11.441-11.441s5.133-11.441 11.441-11.441 11.441 5.133 11.441 11.441-5.132 11.441-11.441 11.441z"/><path d="m180.566 320.826-13.451 13.451c-2.929 2.929-2.929 7.678 0 10.606 1.465 1.464 3.385 2.197 5.304 2.197s3.839-.732 5.304-2.197l13.451-13.451c2.929-2.929 2.929-7.678 0-10.606-2.93-2.929-7.678-2.929-10.608 0z"/><path d="m213.77 271.718-24.892 14.373c-3.587 2.071-4.816 6.658-2.745 10.246 1.39 2.406 3.91 3.751 6.502 3.751 1.272 0 2.563-.324 3.743-1.006l24.892-14.373c3.587-2.071 4.816-6.658 2.745-10.246-2.073-3.587-6.661-4.817-10.245-2.745z"/><path d="m281.263 299.761c-3.587 2.071-4.816 6.658-2.745 10.245l12.143 21.031c1.39 2.406 3.91 3.751 6.502 3.751 1.272 0 2.563-.325 3.743-1.006 3.587-2.071 4.816-6.658 2.745-10.245l-12.143-21.031c-2.072-3.588-6.659-4.815-10.245-2.745z"/><path d="m221.27 227.292-62.019-35.81c-3.586-2.072-8.174-.843-10.245 2.745-2.071 3.587-.842 8.174 2.745 10.245l62.019 35.81c1.181.682 2.471 1.006 3.743 1.006 2.592 0 5.112-1.345 6.502-3.751 2.071-3.587.841-8.174-2.745-10.245z"/><path d="m160.49 222.642-22.794-6.109c-3.996-1.073-8.113 1.301-9.186 5.303-1.072 4.001 1.302 8.113 5.303 9.186l22.794 6.109c.65.174 1.304.258 1.946.258 3.312 0 6.342-2.21 7.239-5.561 1.073-4.001-1.301-8.114-5.302-9.186z"/></g></g></g></svg>