<svg id="Capa_1" enable-background="new 0 0 512 512" height="512" viewBox="0 0 512 512" width="512" xmlns="http://www.w3.org/2000/svg"><g><path d="m256 0c-140.96 0-256 115.049-256 256 0 140.96 115.049 256 256 256 140.96 0 256-115.049 256-256 0-140.96-115.049-256-256-256zm24.143 138.44c-7.801-1.6-15.875-2.44-24.143-2.44s-16.342.84-24.143 2.44l24.143-74.678zm-24.143 207.56c-49.626 0-90-40.374-90-90s40.374-90 90-90 90 40.374 90 90-40.374 90-90 90zm112.521 64.905-62.915-45.646c14.831-6.76 28.054-16.454 38.924-28.336zm-162.127-45.647-62.915 45.646 23.991-73.982c10.871 11.882 24.093 21.576 38.924 28.336zm28.676-334.28-39.182 121.197c-7.239 4.207-14 9.25-20.18 14.825h-127.387c32.013-74.333 102.802-128.276 186.749-136.022zm-83.474 165.921c-7.843 13.8-13.026 29.298-14.854 45.795l-62.934-45.795zm-121.596 59.101c0-17.12 1.924-33.798 5.549-49.839l103.122 75.037c1.758 8.193 4.352 16.078 7.692 23.56l-39.27 121.097c-47.227-41.451-77.093-102.227-77.093-169.855zm226 226c-42.19 0-81.708-11.633-115.54-31.841l103.099-74.801c4.091.423 8.241.642 12.441.642s8.35-.219 12.44-.642l103.099 74.801c-33.831 20.208-73.349 31.841-115.539 31.841zm226-226c0 67.628-29.866 128.404-77.093 169.856l-39.27-121.097c3.341-7.483 5.935-15.368 7.692-23.56l103.122-75.037c3.625 16.04 5.549 32.718 5.549 49.838zm-121.596-59.101h77.788l-62.934 45.795c-1.828-16.497-7.011-31.995-14.854-45.795zm-24.112-29.899c-6.18-5.575-12.941-10.618-20.18-14.825l-39.182-121.197c83.947 7.746 154.736 61.689 186.749 136.022z"/><path d="m256 196c-33.084 0-60 26.916-60 60s26.916 60 60 60 60-26.916 60-60-26.916-60-60-60zm0 90c-16.542 0-30-13.458-30-30s13.458-30 30-30 30 13.458 30 30-13.458 30-30 30z"/></g></svg>