<svg id="Capa_1" enable-background="new 0 0 512 512" height="512" viewBox="0 0 512 512" width="512" xmlns="http://www.w3.org/2000/svg"><g><path d="m383.187 504.5h-254.374c-11.046 0-20-8.954-20-20v-457c0-11.046 8.954-20 20-20h254.375c11.046 0 20 8.954 20 20v457c-.001 11.046-8.955 20-20.001 20z" fill="#fb6a3b"/><path d="m403.19 27.5v457c0 11.05-8.96 20-20 20h-35.98c11.04 0 20-8.95 20-20v-457c0-11.05-8.96-20-20-20h35.98c11.04 0 20 8.95 20 20z" fill="#fb5532"/><path d="m37.5 138.813h437v234.375h-437z" fill="#ffd597" transform="matrix(0 1 -1 0 512 0)"/><path d="m341.51 37.5h31.677v437h-31.677z" fill="#fcc16d"/><g><path d="m252.343 176.175-69.874 113.948c-1.753 2.858.304 6.532 3.657 6.532h139.749c3.353 0 5.409-3.674 3.657-6.532l-69.874-113.948c-1.675-2.73-5.641-2.73-7.315 0z" fill="#fb5532"/><path d="m259.657 335.825 69.874-113.948c1.753-2.858-.304-6.532-3.657-6.532h-139.748c-3.353 0-5.409 3.674-3.657 6.532l69.874 113.948c1.674 2.73 5.64 2.73 7.314 0z" fill="#fb5532"/><g fill="#fcac8d"><path d="m329.53 221.88-20.92 34.12-24.93-40.65h42.19c3.36 0 5.41 3.67 3.66 6.53z"/><path d="m228.32 215.35-24.93 40.65-20.92-34.12c-1.75-2.86.3-6.53 3.66-6.53z"/><path d="m283.68 296.65-24.02 39.18c-1.68 2.72-5.64 2.72-7.32 0l-24.02-39.18z"/></g><path d="m308.606 256-24.931 40.655h-55.35l-24.931-40.655 24.931-40.655h55.35z" fill="#fc7d4b"/></g><g><path d="m138.813 274.626c-4.142 0-7.5 3.358-7.5 7.5v192.374c0 4.142 3.358 7.5 7.5 7.5h234.375c4.142 0 7.5-3.358 7.5-7.5v-437c0-4.142-3.358-7.5-7.5-7.5h-234.375c-4.142 0-7.5 3.358-7.5 7.5v215.526c0 4.142 3.358 7.5 7.5 7.5s7.5-3.358 7.5-7.5v-208.026h219.375v422h-219.375v-184.874c0-4.142-3.358-7.5-7.5-7.5z"/><path d="m383.188 0h-254.375c-15.164 0-27.5 12.336-27.5 27.5v457c0 15.164 12.336 27.5 27.5 27.5h91.077c4.142 0 7.5-3.358 7.5-7.5s-3.358-7.5-7.5-7.5h-91.077c-6.893 0-12.5-5.607-12.5-12.5v-457c0-6.893 5.607-12.5 12.5-12.5h254.375c6.893 0 12.5 5.607 12.5 12.5v94.882c0 4.142 3.358 7.5 7.5 7.5s7.5-3.358 7.5-7.5v-94.882c0-15.164-12.337-27.5-27.5-27.5z"/><path d="m403.188 143.983c-4.142 0-7.5 3.358-7.5 7.5v333.017c0 6.893-5.607 12.5-12.5 12.5h-134.197c-4.142 0-7.5 3.358-7.5 7.5s3.358 7.5 7.5 7.5h134.197c15.164 0 27.5-12.336 27.5-27.5v-333.017c0-4.142-3.358-7.5-7.5-7.5z"/><path d="m175.838 213.876c-2.083 3.72-1.991 8.289.237 11.921l18.521 30.203-18.52 30.201c-2.229 3.634-2.32 8.202-.238 11.922s6.024 6.031 10.287 6.031h37.999l21.825 35.592c2.161 3.523 5.917 5.626 10.05 5.626s7.89-2.104 10.05-5.626l21.825-35.592h37.999c4.263 0 8.205-2.311 10.287-6.031 2.083-3.72 1.991-8.289-.237-11.921l-18.519-30.202 18.52-30.201c2.229-3.634 2.32-8.202.238-11.922s-6.024-6.031-10.287-6.031h-37.999l-21.825-35.592c-2.161-3.523-5.917-5.626-10.05-5.626s-7.89 2.104-10.05 5.626l-21.825 35.592h-37.999c-4.265 0-8.207 2.311-10.289 6.03zm16.023 75.278 11.533-18.807 11.533 18.807zm20.33-33.154 20.331-33.154h46.956l20.331 33.154-20.331 33.154h-46.956zm43.809 71.442-14.28-23.288h28.56zm64.139-38.288h-23.065l11.533-18.807zm0-66.308-11.533 18.807-11.533-18.807zm-64.139-38.288 14.28 23.288h-28.56zm-41.074 38.288-11.533 18.807-11.533-18.807z"/><path d="m174.389 108.031v-10.699c0-4.142-3.358-7.5-7.5-7.5s-7.5 3.358-7.5 7.5v10.699c0 4.142 3.358 7.5 7.5 7.5s7.5-3.358 7.5-7.5z"/><path d="m207.588 74.832c4.142 0 7.5-3.358 7.5-7.5s-3.358-7.5-7.5-7.5h-10.699c-4.142 0-7.5 3.358-7.5 7.5s3.358 7.5 7.5 7.5z"/><path d="m182.362 82.806c-2.929 2.929-2.929 7.678 0 10.606l7.565 7.565c1.464 1.464 3.384 2.197 5.303 2.197s3.839-.732 5.303-2.197c2.929-2.929 2.929-7.678 0-10.606l-7.565-7.565c-2.928-2.929-7.677-2.929-10.606 0z"/><path d="m166.976 59.833h-.104c-.012 0-.024 0-.036 0-4.125 0-7.479 3.334-7.499 7.465-.02 4.142 3.323 7.516 7.465 7.535h.104.036c4.125 0 7.479-3.334 7.499-7.465.019-4.142-3.323-7.516-7.465-7.535z"/><path d="m337.611 414.668c0 4.142 3.358 7.5 7.5 7.5s7.5-3.358 7.5-7.5v-10.699c0-4.142-3.358-7.5-7.5-7.5s-7.5 3.358-7.5 7.5z"/><path d="m304.412 437.168c-4.142 0-7.5 3.358-7.5 7.5s3.358 7.5 7.5 7.5h10.699c4.142 0 7.5-3.358 7.5-7.5s-3.358-7.5-7.5-7.5z"/><path d="m329.638 429.194c2.929-2.929 2.929-7.678 0-10.606l-7.565-7.565c-2.929-2.929-7.678-2.929-10.606 0-2.929 2.929-2.929 7.678 0 10.606l7.565 7.565c1.464 1.464 3.384 2.197 5.303 2.197s3.838-.732 5.303-2.197z"/><path d="m345.024 452.167h.104.036c4.125 0 7.479-3.334 7.499-7.465.02-4.142-3.323-7.516-7.465-7.535h-.104c-.012 0-.024 0-.036 0-4.125 0-7.479 3.334-7.499 7.465-.019 4.142 3.323 7.516 7.465 7.535z"/><path d="m349.432 71.321v-5.777c0-4.142-3.358-7.5-7.5-7.5s-7.5 3.358-7.5 7.5v5.777c0 4.142 3.358 7.5 7.5 7.5s7.5-3.358 7.5-7.5z"/><path d="m349.432 173.809v-20.777c0-4.142-3.358-7.5-7.5-7.5s-7.5 3.358-7.5 7.5v20.777c0 4.142 3.358 7.5 7.5 7.5s7.5-3.358 7.5-7.5z"/><path d="m331.054 96.607c0 4.142 3.358 7.5 7.5 7.5h8.446c4.142 0 7.5-3.358 7.5-7.5s-3.358-7.5-7.5-7.5h-8.447c-4.141 0-7.499 3.358-7.499 7.5z"/><path d="m352.118 121.419-8.447-7.884c-3.029-2.827-7.774-2.664-10.601.366-2.826 3.028-2.663 7.774.366 10.6l8.447 7.884c1.446 1.35 3.282 2.017 5.116 2.017 2.006 0 4.007-.8 5.484-2.383 2.827-3.027 2.663-7.773-.365-10.6z"/><path d="m162.568 440.679v5.777c0 4.142 3.358 7.5 7.5 7.5s7.5-3.358 7.5-7.5v-5.777c0-4.142-3.358-7.5-7.5-7.5s-7.5 3.358-7.5 7.5z"/><path d="m170.068 366.468c4.142 0 7.5-3.358 7.5-7.5v-20.777c0-4.142-3.358-7.5-7.5-7.5s-7.5 3.358-7.5 7.5v20.777c0 4.142 3.358 7.5 7.5 7.5z"/><path d="m165 422.893h8.447c4.142 0 7.5-3.358 7.5-7.5s-3.358-7.5-7.5-7.5h-8.447c-4.142 0-7.5 3.358-7.5 7.5s3.357 7.5 7.5 7.5z"/><path d="m159.882 390.581 8.447 7.884c1.446 1.35 3.283 2.017 5.116 2.017 2.006 0 4.007-.8 5.484-2.383 2.826-3.028 2.663-7.774-.366-10.6l-8.447-7.884c-3.028-2.827-7.773-2.664-10.6.366-2.826 3.027-2.662 7.773.366 10.6z"/><path d="m270.266 242.62h-28.531c-4.142 0-7.5 3.358-7.5 7.5s3.358 7.5 7.5 7.5h6.766v2.261c0 4.142 3.358 7.5 7.5 7.5s7.5-3.358 7.5-7.5v-2.261h6.766c4.142 0 7.5-3.358 7.5-7.5s-3.359-7.5-7.501-7.5z"/></g></g></svg>