<svg id="Capa_1" enable-background="new 0 0 512 512" height="512" viewBox="0 0 512 512" width="512" xmlns="http://www.w3.org/2000/svg"><g><path d="m64.181 300.414c-2.044 5.137-3.181 10.729-3.181 16.586 0 20.723 14.085 38.209 33.181 43.414-2.044 5.137-3.181 10.729-3.181 16.586 0 24.813 20.187 45 45 45 15.018 0 28.332-7.402 36.51-18.742 3.256 1.544 6.555 2.995 9.889 4.356-.909 4.659-1.399 9.465-1.399 14.386 0 23.949 11.065 45.772 30 59.929v30.071h90v-30.071c18.935-14.157 30-35.98 30-59.929 0-4.921-.49-9.727-1.399-14.386 3.335-1.36 6.633-2.812 9.889-4.356 8.178 11.34 21.492 18.742 36.51 18.742 24.813 0 45-20.187 45-45 0-5.857-1.137-11.449-3.181-16.586 19.096-5.205 33.181-22.691 33.181-43.414 0-5.857-1.137-11.449-3.181-16.586 19.096-5.205 33.181-22.691 33.181-43.414 0-11.517-4.354-22.032-11.495-30 7.142-7.968 11.495-18.483 11.495-30s-4.354-22.032-11.495-30c7.142-7.968 11.495-18.483 11.495-30 0-19.555-12.541-36.228-30-42.42v-94.58h-30v94.58c-17.459 6.192-30 22.865-30 42.42 0 11.517 4.354 22.032 11.495 30-7.141 7.968-11.495 18.483-11.495 30s4.354 22.032 11.495 30c-7.141 7.968-11.495 18.483-11.495 30 0 5.857 1.137 11.449 3.181 16.586-19.096 5.205-33.181 22.691-33.181 43.414 0 5.857 1.137 11.449 3.181 16.586-18.151 4.947-31.763 20.993-33.066 40.366-4.264 2.184-8.628 4.171-13.063 5.974-13.506-19.857-36.28-32.926-62.052-32.926s-48.546 13.069-62.052 32.925c-4.435-1.802-8.798-3.79-13.063-5.974-1.304-19.373-14.915-35.418-33.066-40.366 2.044-5.136 3.181-10.728 3.181-16.585 0-20.723-14.085-38.209-33.181-43.414 2.044-5.137 3.181-10.729 3.181-16.586 0-11.517-4.354-22.032-11.495-30 7.142-7.968 11.495-18.483 11.495-30s-4.354-22.032-11.495-30c7.142-7.968 11.495-18.483 11.495-30 0-19.555-12.541-36.228-30-42.42v-94.58h-30v94.58c-17.459 6.192-30 22.865-30 42.42 0 11.517 4.354 22.032 11.495 30-7.141 7.968-11.495 18.483-11.495 30s4.354 22.032 11.495 30c-7.141 7.968-11.495 18.483-11.495 30 0 20.723 14.085 38.209 33.181 43.414zm371.819-178.414c8.271 0 15 6.729 15 15s-6.729 15-15 15-15-6.729-15-15 6.729-15 15-15zm0 60c8.271 0 15 6.729 15 15s-6.729 15-15 15-15-6.729-15-15 6.729-15 15-15zm0 60c8.271 0 15 6.729 15 15s-6.729 15-15 15-15-6.729-15-15 6.729-15 15-15zm-30 60c8.271 0 15 6.729 15 15s-6.729 15-15 15-15-6.729-15-15 6.729-15 15-15zm-30 60c8.271 0 15 6.729 15 15s-6.729 15-15 15-15-6.729-15-15 6.729-15 15-15zm-162.42 45c6.192-17.459 22.865-30 42.42-30s36.228 12.541 42.42 30h-27.42v29.99l27.434.01c-7.008 19.832-24.006 25.65-27.434 28.284v16.716h-30v-16.716c-3.529-2.711-20.416-8.421-27.434-28.284h27.434v-30zm-77.58-45c8.271 0 15 6.729 15 15s-6.729 15-15 15-15-6.729-15-15 6.729-15 15-15zm-30-60c8.271 0 15 6.729 15 15s-6.729 15-15 15-15-6.729-15-15 6.729-15 15-15zm-30-180c8.271 0 15 6.729 15 15s-6.729 15-15 15-15-6.729-15-15 6.729-15 15-15zm0 60c8.271 0 15 6.729 15 15s-6.729 15-15 15-15-6.729-15-15 6.729-15 15-15zm0 60c8.271 0 15 6.729 15 15s-6.729 15-15 15-15-6.729-15-15 6.729-15 15-15z"/></g></svg>