<svg id="Capa_1" enable-background="new 0 0 512 512" height="512" viewBox="0 0 512 512" width="512" xmlns="http://www.w3.org/2000/svg"><g><circle cx="256.206" cy="256" fill="#fcb44d" r="248.5"/><path d="m504.706 256c0 137.24-111.26 248.5-248.5 248.5-7.71 0-15.33-.35-22.86-1.04 126.52-11.54 225.64-117.93 225.64-247.46s-99.12-235.92-225.64-247.46c7.53-.69 15.15-1.04 22.86-1.04 137.24 0 248.5 111.26 248.5 248.5z" fill="#fca62f"/><path d="m369.448 326.063 7.908 6.237c-29.772 68.975-98.696 117.099-178.76 116.372-106.029-.963-190.89-86.64-190.89-192.673.001-106.41 86.26-192.679 192.68-192.679 59.83 0 113.29 27.27 148.62 70.06v35.412c0 4.033 2.422 7.671 6.143 9.226l15.817 6.612-32.381 69.654c-3.082 6.629 1.758 14.216 9.068 14.216h31.233l-12.89 47.07c-1.061 3.874.299 8.006 3.452 10.493z" fill="#1785f8"/><path d="m369.446 326.06 7.91 6.24c-29.77 68.97-98.7 117.1-178.76 116.37-8.74-.08-17.33-.73-25.74-1.93 91.74-13.08 162.65-90.78 165.17-185.53 1.16 4.07 4.87 7.29 9.63 7.29h31.23l-12.89 47.07c-1.06 3.87.3 8.01 3.45 10.49z" fill="#1576f7"/><path d="m370.966 184.63-32.38 69.65c-.2.43-.36.86-.49 1.29-.21-97.1-71.59-177.04-165.14-190.31 8.96-1.28 18.12-1.94 27.43-1.94 59.83 0 113.29 27.27 148.62 70.06v35.41c0 4.03 2.42 7.67 6.14 9.23z" fill="#1576f7"/><path d="m363.426 358.69c-34.4 54.54-95.44 90.61-164.83 89.98-18.94-.17-37.2-3.05-54.43-8.26 4.18-22.19 23.67-38.97 47.07-38.97.02 0 .04.01.07.01 1.51-33.9 29.46-60.93 63.73-60.93 11.63 0 22.52 3.13 31.91 8.56 9.38-5.43 20.27-8.56 31.9-8.56 17.35 0 33.08 6.92 44.58 18.17z" fill="#8dcafc"/><path d="m363.426 358.69c-34.4 54.54-95.44 90.61-164.83 89.98-8.73-.08-17.31-.74-25.72-1.93 64.24-9.17 118.26-50.02 145.73-106.22h.24c17.35 0 33.08 6.92 44.58 18.17z" fill="#64b9fc"/><g><path d="m.534 269.075c3.302 65.601 31.363 126.757 79.015 172.205 47.817 45.604 110.555 70.72 176.657 70.72 73.209 0 143.065-31.459 191.659-86.311 2.746-3.1 2.46-7.84-.641-10.587-3.102-2.747-7.841-2.459-10.588.641-45.747 51.64-111.511 81.257-180.43 81.257-76.493 0-144.908-35.591-189.126-91.442 36.151 32.279 82.358 50.167 131.447 50.613.622.006 1.229.009 1.849.009 80.055-.006 152.094-47.301 183.866-120.908 1.347-3.121.427-6.756-2.241-8.861l-7.908-6.236c-.79-.623-1.129-1.653-.863-2.624l1.73-6.319c3.832 2.094 9.869 4.767 17.628 6.141 2.947.522 6.278.871 9.924.871 11.423 0 25.918-3.422 41.249-15.639 3.239-2.582 3.773-7.3 1.191-10.54-2.58-3.24-7.3-3.773-10.539-1.192-29.625 23.609-53.891 6.33-55.021 5.498-.099-.075-.204-.137-.306-.206l7.033-25.684c.618-2.256.148-4.671-1.271-6.53s-3.624-2.951-5.962-2.951h-31.232c-1.193 0-1.833-.724-2.108-1.156-.275-.431-.662-1.317-.159-2.398l32.381-69.654c.86-1.85.93-3.97.192-5.873s-2.218-3.422-4.101-4.209l-15.816-6.612c-.934-.39-1.536-1.295-1.536-2.306v-35.412c0-1.743-.607-3.431-1.717-4.775-17.105-20.717-37.813-37.532-61.549-49.978-24.426-12.808-50.801-20.301-78.395-22.272-4.127-.296-7.721 2.815-8.016 6.946-.295 4.132 2.815 7.72 6.947 8.016 49.264 3.52 95.664 27.092 127.729 64.791v32.686c0 7.079 4.22 13.416 10.751 16.146l8.62 3.603-29.093 62.581c-2.533 5.448-2.116 11.724 1.114 16.789 3.231 5.065 8.747 8.089 14.755 8.089h21.402l-10.293 37.589c-1.86 6.793.511 14 6.041 18.363l3.312 2.611c-2.03 4.333-4.218 8.558-6.546 12.677-12.278-9.209-27.22-14.22-42.723-14.22-11.087 0-22.03 2.598-31.902 7.543-9.88-4.946-20.825-7.543-31.908-7.543-24.359 0-45.885 12.148-58.75 30.832h-33.78c-4.143 0-7.5 3.358-7.5 7.5s3.357 7.5 7.5 7.5h25.896c-1.872 4.922-3.22 10.111-3.97 15.503-20.731 2.546-38.336 16.588-45.368 36.328-71.992-25.46-123.859-94.361-123.858-174.686.001-96.066 74.932-177.156 170.588-184.608 4.129-.322 7.216-3.931 6.895-8.06s-3.918-7.209-8.061-6.895c-44.38 3.458-85.927 21.515-118.696 51.271 44.11-56.604 112.955-92.707 190.274-92.707 127.367 0 233.031 99.501 240.554 226.524.245 4.135 3.819 7.293 7.931 7.043 4.135-.245 7.288-3.795 7.044-7.93-7.993-134.937-120.234-240.637-255.529-240.637-66.452 0-129.431 25.346-177.336 71.37-47.765 45.889-75.618 107.527-78.429 173.56-.169 3.365-.235 7.68-.235 11.069 0 4.012.097 9.105.328 13.076zm190.409 139.866c.122.006.243.009.362.009 4.013 0 7.313-3.158 7.492-7.166.368-8.252 2.496-16.009 5.997-22.932h44.595c4.143 0 7.5-3.358 7.5-7.5s-3.357-7.5-7.5-7.5h-33.547c10.142-9.821 23.967-15.832 39.192-15.832 9.875 0 19.611 2.612 28.155 7.553 2.326 1.344 5.19 1.344 7.513-.002 8.532-4.94 18.265-7.551 28.143-7.551 12.686 0 24.888 4.26 34.772 12.043-8.916 13.151-19.402 24.973-31.141 35.264h-66.272c-4.143 0-7.5 3.358-7.5 7.5s3.357 7.5 7.5 7.5h46.662c-29.736 19.739-65.171 30.853-102.494 30.853-.569 0-1.14-.003-1.71-.008-15.611-.142-30.77-2.246-45.249-6.065 5.816-15.512 20.652-26.045 37.53-26.166z"/><path d="m504.716 262.693c-4.146-.222-7.678 2.931-7.91 7.067-2.498 44.391-17.228 87.144-42.596 123.637-2.364 3.401-1.523 8.075 1.877 10.439 1.306.907 2.798 1.342 4.274 1.342 2.373 0 4.708-1.124 6.165-3.22 26.952-38.771 42.602-84.193 45.256-131.355.232-4.136-2.932-7.677-7.066-7.91z"/><path d="m160.006 221.226v-4.346c0-9.655 7.854-17.509 17.509-17.509h4.362c4.143 0 7.5-3.358 7.5-7.5s-3.357-7.5-7.5-7.5h-4.362c-9.654 0-17.509-7.854-17.509-17.509v-4.322c0-4.142-3.357-7.5-7.5-7.5s-7.5 3.358-7.5 7.5v4.322c0 9.655-7.854 17.509-17.509 17.509h-4.308c-4.143 0-7.5 3.358-7.5 7.5s3.357 7.5 7.5 7.5h4.308c9.654 0 17.509 7.854 17.509 17.509v4.346c0 4.142 3.357 7.5 7.5 7.5s7.5-3.358 7.5-7.5zm-11.765-29.356c1.549-1.287 2.977-2.715 4.264-4.264 1.287 1.549 2.715 2.977 4.264 4.264-1.549 1.287-2.977 2.715-4.264 4.264-1.287-1.549-2.714-2.977-4.264-4.264z"/><path d="m202.013 160.361v-2.364c0-3.365 2.737-6.102 6.103-6.102h2.372c4.143 0 7.5-3.358 7.5-7.5s-3.357-7.5-7.5-7.5h-2.372c-3.365 0-6.103-2.737-6.103-6.102v-2.351c0-4.142-3.357-7.5-7.5-7.5s-7.5 3.358-7.5 7.5v2.351c0 3.365-2.737 6.102-6.103 6.102h-2.342c-4.143 0-7.5 3.358-7.5 7.5s3.357 7.5 7.5 7.5h2.342c3.365 0 6.103 2.737 6.103 6.102v2.364c0 4.142 3.357 7.5 7.5 7.5s7.5-3.358 7.5-7.5z"/><path d="m133.175 363.979c4.143 0 7.5-3.358 7.5-7.5v-2.364c0-3.365 2.737-6.103 6.103-6.103h2.372c4.143 0 7.5-3.358 7.5-7.5s-3.357-7.5-7.5-7.5h-2.372c-3.365 0-6.103-2.737-6.103-6.102v-2.351c0-4.142-3.357-7.5-7.5-7.5s-7.5 3.358-7.5 7.5v2.351c0 3.365-2.737 6.102-6.103 6.102h-2.342c-4.143 0-7.5 3.358-7.5 7.5s3.357 7.5 7.5 7.5h2.342c3.365 0 6.103 2.738 6.103 6.103v2.364c0 4.143 3.357 7.5 7.5 7.5z"/><path d="m256.191 242.482c-4.143 0-7.5 3.358-7.5 7.5v2.351c0 3.365-2.737 6.103-6.103 6.103h-2.343c-4.143 0-7.5 3.358-7.5 7.5s3.357 7.5 7.5 7.5h2.343c3.365 0 6.103 2.737 6.103 6.102v2.364c0 4.142 3.357 7.5 7.5 7.5s7.5-3.358 7.5-7.5v-2.364c0-3.365 2.737-6.102 6.102-6.102h2.373c4.143 0 7.5-3.358 7.5-7.5s-3.357-7.5-7.5-7.5h-2.373c-3.364 0-6.102-2.738-6.102-6.103v-2.351c0-4.142-3.357-7.5-7.5-7.5z"/><path d="m431.902 167.799c-11.576 9.996-28.962 3.626-29.258 3.515-3.855-1.481-8.184.432-9.681 4.284-1.501 3.861.412 8.207 4.273 9.708.573.223 8.245 3.126 18.105 3.126 8.216 0 17.951-2.016 26.362-9.279 3.136-2.707 3.482-7.443.775-10.579-2.706-3.135-7.442-3.48-10.576-.775z"/></g></g></svg>