<svg id="Capa_1" enable-background="new 0 0 512 512" height="512" viewBox="0 0 512 512" width="512" xmlns="http://www.w3.org/2000/svg"><g><g><path d="m249.537 504.5c-9.616 0-17.439-7.823-17.439-17.439v-34.723l-43.041 43.04c-3.293 3.294-7.673 5.108-12.331 5.108s-9.037-1.814-12.331-5.108l-9.138-9.138c-6.8-6.799-6.8-17.862 0-24.662l66.935-66.935-92.426-92.427c-6.8-6.799-6.8-17.862 0-24.662l92.431-92.432-134.703-134.701c-6.799-6.799-6.799-17.862 0-24.662l9.138-9.138c3.293-3.294 7.673-5.108 12.331-5.108s9.037 1.814 12.331 5.108l110.804 110.804v-34.757l-42.247-42.247c-3.294-3.294-5.108-7.673-5.108-12.331s1.814-9.037 5.108-12.331l9.138-9.138c3.294-3.294 7.673-5.108 12.331-5.108s9.037 1.814 12.331 5.108l8.446 8.446v-.129c0-9.616 7.823-17.439 17.439-17.439h12.923c9.616 0 17.439 7.823 17.439 17.439v.129l8.447-8.446c3.294-3.294 7.673-5.108 12.331-5.108s9.037 1.814 12.331 5.108l9.138 9.138c6.799 6.8 6.799 17.863 0 24.662l-42.246 42.247v34.757l110.804-110.804c3.293-3.294 7.673-5.108 12.331-5.108s9.038 1.814 12.331 5.108l9.138 9.138c6.799 6.8 6.799 17.863 0 24.662l-134.703 134.703 92.432 92.432c3.294 3.293 5.108 7.673 5.108 12.331s-1.814 9.038-5.108 12.331l-92.427 92.426 66.934 66.935c6.8 6.799 6.8 17.862 0 24.662l-9.138 9.138c-3.294 3.294-7.673 5.108-12.331 5.108s-9.038-1.814-12.331-5.108l-43.04-43.04v34.722c0 9.616-7.823 17.439-17.439 17.439zm-17.439-167.549v-94.127l-47.063 47.063zm47.801-.001 47.063-47.063-47.063-47.063z" fill="#31a7fb"/></g><g><path d="m424.498 50.42-134.7 134.7 92.43 92.44c3.306 3.296 5.117 7.687 5.11 12.357-.007 4.748-2.07 9.263-5.428 12.621l-92.102 92.102 66.93 66.94c6.8 6.8 6.8 17.86 0 24.66l-8.858 8.859c-3.09 3.09-7.165 5.095-11.526 5.359-5.062.305-9.871-1.533-13.415-5.077l-5.74-5.74 3.39-3.4c6.8-6.8 6.8-17.86 0-24.66l-59.869-59.868c-3.905-3.905-3.905-10.237 0-14.143l85.358-85.349c3.3-3.3 5.11-7.67 5.11-12.33s-1.81-9.04-5.11-12.33l-85.36-85.369c-3.905-3.905-3.905-10.237 0-14.142l127.63-127.63c6.81-6.81 6.81-17.85 0-24.66l-3.39-3.39 5.74-5.75c3.3-3.29 7.68-5.11 12.34-5.11 4.65 0 9.03 1.82 12.33 5.11l9.13 9.14c6.8 6.8 6.8 17.86 0 24.66z" fill="#1c96f9"/></g><g><g><path d="m262.46 512h-12.923c-13.751 0-24.939-11.188-24.939-24.938v-16.616l-30.237 30.237c-4.71 4.711-10.973 7.305-17.634 7.305-6.662 0-12.925-2.595-17.634-7.306l-9.138-9.138c-4.705-4.705-7.297-10.967-7.297-17.634s2.592-12.929 7.297-17.634l61.631-61.631-23.222-23.222c-2.929-2.929-2.929-7.678 0-10.606 2.929-2.929 7.678-2.929 10.606 0l28.525 28.525c2.929 2.929 2.929 7.678 0 10.606l-66.935 66.935c-1.872 1.872-2.903 4.368-2.903 7.027 0 2.66 1.031 5.156 2.903 7.027l9.138 9.139c1.877 1.877 4.373 2.911 7.028 2.912 2.654 0 5.149-1.034 7.026-2.911l43.041-43.041c2.145-2.145 5.373-2.786 8.173-1.626 2.803 1.161 4.63 3.896 4.63 6.929v34.723c0 5.48 4.458 9.938 9.939 9.938h12.923c5.48 0 9.938-4.458 9.938-9.938v-34.722c0-3.033 1.827-5.768 4.63-6.929 2.803-1.159 6.028-.52 8.173 1.626l43.04 43.04c1.877 1.878 4.373 2.912 7.028 2.912 2.654 0 5.15-1.034 7.028-2.912l9.138-9.138c1.872-1.872 2.903-4.368 2.903-7.028s-1.031-5.155-2.903-7.027l-66.934-66.935c-2.929-2.929-2.929-7.678 0-10.606l92.427-92.426c1.877-1.877 2.911-4.373 2.911-7.028s-1.034-5.15-2.911-7.027l-92.433-92.432c-1.407-1.406-2.197-3.314-2.197-5.303s.79-3.897 2.197-5.303l134.706-134.706c1.872-1.872 2.903-4.368 2.903-7.027 0-2.66-1.031-5.156-2.902-7.028l-9.138-9.138c-1.877-1.877-4.373-2.911-7.027-2.911-2.655 0-5.151 1.034-7.027 2.91l-61.285 61.285c-2.929 2.929-7.678 2.929-10.606 0-2.929-2.929-2.929-7.678 0-10.606l61.283-61.285c4.708-4.71 10.972-7.305 17.634-7.305s12.925 2.594 17.635 7.305l9.137 9.138c4.705 4.706 7.296 10.968 7.296 17.635s-2.591 12.929-7.296 17.634l-129.4 129.4 87.129 87.128c4.71 4.709 7.305 10.972 7.305 17.634s-2.594 12.925-7.305 17.635l-87.123 87.123 61.631 61.631c4.705 4.705 7.296 10.967 7.296 17.634s-2.591 12.929-7.296 17.634l-9.138 9.138c-4.71 4.711-10.973 7.305-17.634 7.305-6.662 0-12.924-2.594-17.635-7.306l-30.236-30.236v16.616c-.001 13.752-11.189 24.939-24.94 24.939zm-89.37-158.958c-1.919 0-3.839-.732-5.303-2.197l-43.324-43.324c-4.705-4.705-7.296-10.967-7.296-17.634s2.591-12.93 7.296-17.635l87.127-87.128-129.4-129.4c-9.723-9.724-9.723-25.544 0-35.268l9.139-9.138c4.709-4.71 10.972-7.305 17.634-7.305 6.661 0 12.924 2.594 17.634 7.305l98 98v-13.543l-40.05-40.051c-4.71-4.71-7.304-10.973-7.304-17.634 0-6.662 2.594-12.924 7.304-17.634l9.138-9.138c4.71-4.71 10.973-7.305 17.634-7.305 6.577 0 12.764 2.528 17.453 7.125 4.476-6.709 12.113-11.138 20.765-11.138h12.923c8.652 0 16.289 4.428 20.763 11.138 4.689-4.597 10.877-7.125 17.453-7.125 6.661 0 12.923 2.594 17.634 7.305l9.139 9.138c9.723 9.724 9.723 25.545 0 35.268l-40.05 40.05v13.544l16.14-16.14c2.929-2.929 7.678-2.929 10.606 0 2.929 2.929 2.929 7.678 0 10.606l-28.943 28.943c-2.144 2.146-5.371 2.788-8.173 1.626-2.803-1.161-4.63-3.896-4.63-6.929v-34.756c0-1.989.79-3.896 2.197-5.303l42.247-42.247c3.875-3.875 3.875-10.18 0-14.056l-9.138-9.138c-1.877-1.877-4.373-2.911-7.027-2.911-2.655 0-5.15 1.034-7.028 2.911l-8.447 8.446c-2.144 2.146-5.369 2.787-8.173 1.626-2.803-1.161-4.63-3.896-4.63-6.929v-.129c0-5.48-4.458-9.938-9.938-9.938h-12.923c-5.48 0-9.939 4.458-9.939 9.938v.129c0 3.034-1.827 5.768-4.63 6.929-2.8 1.161-6.027.52-8.173-1.626l-8.446-8.446c-1.877-1.877-4.373-2.911-7.028-2.911s-5.15 1.034-7.028 2.911l-9.138 9.138c-1.877 1.877-2.911 4.373-2.911 7.028s1.034 5.15 2.911 7.027l42.247 42.248c1.407 1.407 2.197 3.314 2.197 5.303v34.756c0 3.033-1.827 5.768-4.63 6.929-2.8 1.162-6.027.52-8.173-1.626l-110.807-110.803c-1.877-1.877-4.373-2.911-7.028-2.911s-5.15 1.034-7.027 2.911l-9.139 9.139c-3.875 3.875-3.875 10.18 0 14.055l134.703 134.703c2.929 2.929 2.929 7.678 0 10.606l-92.431 92.432c-1.872 1.872-2.903 4.368-2.903 7.028s1.031 5.155 2.903 7.027l43.324 43.325c2.929 2.929 2.929 7.678 0 10.606-1.465 1.465-3.384 2.197-5.303 2.197zm59.009-8.591c-1.952 0-3.87-.762-5.305-2.197l-47.063-47.063c-2.929-2.929-2.929-7.678 0-10.606l47.063-47.063c2.145-2.145 5.372-2.785 8.173-1.626 2.803 1.161 4.63 3.896 4.63 6.929v29.939c0 4.142-3.358 7.5-7.5 7.5s-7.5-3.358-7.5-7.5v-11.833l-28.956 28.957 28.956 28.957v-16.98c0-4.142 3.358-7.5 7.5-7.5s7.5 3.358 7.5 7.5v35.087c0 3.034-1.827 5.768-4.63 6.929-.927.383-1.901.57-2.868.57zm47.798-.001c-.966 0-1.941-.187-2.869-.571-2.803-1.161-4.63-3.896-4.63-6.929v-94.126c0-3.034 1.827-5.768 4.63-6.929 2.803-1.16 6.029-.52 8.173 1.626l47.063 47.063c2.929 2.929 2.929 7.678 0 10.606l-47.063 47.063c-1.434 1.435-3.352 2.197-5.304 2.197zm7.502-83.519v57.912l28.956-28.956z"/></g></g></g></svg>