<svg id="Capa_1" enable-background="new 0 0 512 512" height="512" viewBox="0 0 512 512" width="512" xmlns="http://www.w3.org/2000/svg"><g><g><path d="m479.049 174.15-78.4 34.37c-24.15-15.71-29.911-50.725-10.61-78.98l49.7-30.53c20.98-12.89 48.49-5.3 59.91 16.51 11.41 21.82 1.95 48.75-20.6 58.63z" fill="#6a829a"/><path d="m400.649 208.52-35.84 15.72-31.36-59.95 56.59-34.75c-8.88 24.61-6.3 54.88 10.61 78.98z" fill="#5b778f"/><path d="m360.869 250.68-1.38.72c-46.749-12.665-55.545-74.66-25.7-102.95 5.44 2.63 10.12 6.96 13.13 12.72l26.26 50.2c7.45 14.26 1.94 31.85-12.31 39.31z" fill="#fbf198"/><path d="m359.489 251.4-48.1 25.17-39.36-109.09 35.58-18.61c8.49-4.44 18.17-4.29 26.18-.42-14.4 32.04-8.23 76.17 25.7 102.95z" fill="#fad989"/><path d="m307.029 95.05-16.98 43.8h-113.669c-4.372-25.754 3.5-58.362 34.98-77.29h72.73c17.289 0 29.179 17.37 22.939 33.49z" fill="#83deff"/><path d="m211.36 61.56c-15.65 23.14-27.43 49.38-34.98 77.29h-97.67l-16.98-43.8c-6.24-16.12 5.65-33.49 22.94-33.49z" fill="#2ecefb"/><path d="m359.959 373.19-132.15 19.35c-77.373-59.215-93.387-147.006-58.94-215.8h121.5l65.89 182.6c1.63 4.51 2.86 9.15 3.7 13.85z" fill="#83deff"/><path d="m227.81 392.54-36.23 5.31-182.78-24.66c.84-4.7 2.07-9.34 3.7-13.85l65.89-182.6h90.48c-9.35 72.65 8.51 151.88 58.94 215.8z" fill="#2ecefb"/><path d="m294.639 127v61.59h-127.039c-10.641-23.823-4.572-49.74 12.28-61.59z" fill="#fbf198"/><path d="m179.88 127c-6.3 19.73-10.44 40.43-12.28 61.59h-93.48v-61.59z" fill="#fad989"/><path d="m361.259 387.92v24.52c0 20.99-17.01 38-37.99 38h-34.13c-42.536-11.963-70.979-38.625-75.31-77.25h146.13c.86 4.85 1.3 9.78 1.3 14.73z" fill="#2ecefb"/><path d="m289.139 450.44h-243.649c-20.98 0-37.99-17.01-37.99-38v-24.52c0-4.95.44-9.88 1.3-14.73h205.03c19 28.79 43.959 55.12 75.309 77.25z" fill="#00bdfd"/><path d="m134.422 288.684c-.04 12.848-13.152 23.222-29.285 23.171s-29.179-10.506-29.139-23.354 13.151-23.222 29.285-23.172c16.134.051 29.18 10.507 29.139 23.355z" fill="#fff"/><path d="m234.337 288.997c-.04 12.848 13.006 23.304 29.139 23.354 16.133.051 29.244-10.323 29.285-23.171.04-12.848-13.006-23.304-29.139-23.355-16.134-.05-29.245 10.324-29.285 23.172z" fill="#fff"/><path d="m207.987 271.04c.046-14.555-10.495-15.956-23.502-15.997s-23.556 1.294-23.602 15.849c-.045 14.555 10.462 26.387 23.469 26.428 13.008.042 23.59-11.724 23.635-26.28z" fill="#495560"/></g><g><path d="m204.555 250.92c-5.415-2.767-11.926-3.351-20.036-3.377-9.291-.017-31.053-.097-31.127 23.327-.058 18.668 13.824 33.899 30.947 33.953h.09c17.082 0 31.011-15.124 31.069-33.759.038-12.007-5.93-17.582-10.943-20.144zm-20.126 38.903c-8.895-.028-16.07-8.509-16.037-18.906.018-5.787.663-8.373 15.657-8.373h.422c4.908.015 10.321.233 13.257 1.733 1.042.533 2.786 1.424 2.769 6.74-.031 10.381-7.235 18.806-16.068 18.806z"/><path d="m122.388 241.927c-.023 0-.045 0-.068 0-11.772 0-21.368 9.559-21.404 21.338-.013 4.142 3.335 7.511 7.477 7.524 4.155 0 7.511-3.343 7.524-7.477.011-3.525 2.882-6.385 6.404-6.385 3.551.011 6.416 2.894 6.405 6.425-.013 4.142 3.335 7.511 7.477 7.524 4.155 0 7.511-3.343 7.524-7.477.036-11.803-9.536-21.435-21.339-21.472z"/><path d="m246.683 242.316c-.023 0-.045 0-.068 0-11.771 0-21.367 9.558-21.404 21.338-.013 4.142 3.334 7.511 7.476 7.524 4.155 0 7.511-3.342 7.524-7.476.011-3.525 2.882-6.385 6.405-6.385 1.731.005 3.337.676 4.543 1.89 1.206 1.213 1.867 2.824 1.861 4.534-.013 4.142 3.334 7.511 7.477 7.524 4.155 0 7.511-3.342 7.524-7.476.019-5.718-2.191-11.1-6.222-15.156-4.03-4.055-9.398-6.299-15.116-6.317z"/><path d="m506.317 112.041c-6.401-12.235-17.706-21.358-31.018-25.028-13.315-3.671-27.696-1.63-39.462 5.596l-89.842 55.176c-11.566-10.81-29.581-12.98-43.837-4.528v-14.857l11.879-30.651c3.828-9.878 2.539-20.995-3.447-29.735-5.987-8.74-15.887-13.959-26.481-13.959h-140.69c-4.142 0-7.5 3.358-7.5 7.5s3.358 7.5 7.5 7.5h140.69c5.728 0 10.869 2.71 14.105 7.435s3.905 10.498 1.836 15.838l-10.529 27.169h-210.263l-10.529-27.169c-2.069-5.34-1.4-11.113 1.837-15.838s8.377-7.435 14.104-7.435h23.746c4.142 0 7.5-3.358 7.5-7.5s-3.358-7.5-7.5-7.5h-23.746c-10.594 0-20.493 5.218-26.48 13.959s-7.276 19.856-3.447 29.735l11.878 30.651v58.875l-61.176 169.52c-3.613 10.011-5.445 20.484-5.445 31.127v24.53c0 25.085 20.408 45.494 45.494 45.494h220.781c4.143 0 7.5-3.358 7.5-7.5s-3.358-7.5-7.5-7.5h-220.781c-16.814 0-30.493-13.679-30.493-30.493v-24.53c0-2.422.124-4.832.35-7.227h338.078c.226 2.396.35 4.806.35 7.227v24.53c0 16.814-13.679 30.493-30.494 30.493h-22.007c-4.143 0-7.5 3.358-7.5 7.5s3.358 7.5 7.5 7.5h22.007c25.085 0 45.495-20.409 45.495-45.494v-24.53c0-10.644-1.832-21.116-5.445-31.128l-30.031-83.218 31.064-16.251c12.736-6.663 19.917-19.816 19.629-33.298l98.092-43.009c12.647-5.545 22.525-16.197 27.101-29.226 4.575-13.027 3.528-27.516-2.873-39.751zm-424.696 69.045v-46.589h205.536v46.589zm268.854 184.608h-332.171c.387-1.276.797-2.548 1.251-3.807l59.833-165.8h210.002l59.833 165.8c.456 1.26.865 2.531 1.252 3.807zm6.938-121.659-29.249 15.302-26.005-72.061v-27.089l8.943-4.678c10.569-5.527 23.66-1.427 29.188 9.138l26.262 50.201c5.527 10.565 1.427 23.658-9.139 29.187zm137.622-97.212c-3.25 9.254-9.988 16.52-18.972 20.459l-95.583 41.908-25.696-49.199 88.903-54.6c8.358-5.133 18.168-6.526 27.625-3.918 9.456 2.607 17.167 8.829 21.713 17.52 4.547 8.693 5.261 18.575 2.01 27.83z"/></g></g></svg>