<svg id="Capa_1" enable-background="new 0 0 512 512" height="512" viewBox="0 0 512 512" width="512" xmlns="http://www.w3.org/2000/svg"><g><path d="m241 0h30v61h-30z"/><path d="m94.353 13.103h30v72.5h-30z" transform="matrix(.707 -.707 .707 .707 -2.869 91.78)"/><path d="m366.397 34.353h72.499v30h-72.499z" transform="matrix(.707 -.707 .707 .707 83.032 299.166)"/><path d="m256 452c57.814 0 105-47.888 105-106 0-57.897-47.103-105-105-105s-105 47.103-105 105c0 58.05 47.116 106 105 106zm0-181c41.355 0 75 33.645 75 75 0 41.906-33.645 76-75 76s-75-34.094-75-76c0-41.355 33.645-75 75-75z"/><path d="m173.077 125.977-27.622 11.705c8.301 19.589 24.391 41.081 47.86 55.701-59.982 24.727-102.315 83.817-102.315 152.617 0 90.993 73.861 166 165 166 91.005 0 165-74.861 165-166 0-68.8-42.333-127.89-102.314-152.618 23.469-14.62 39.559-36.112 47.86-55.701l-27.623-11.705c-1.273 3.004-8.3 18.458-23.371 32.227.284-2.364.448-4.764.448-7.203 0-33.084-26.916-60-60-60s-60 26.916-60 60c0 2.439.163 4.839.448 7.203-15.071-13.768-22.098-29.222-23.371-32.226zm82.923-4.977c16.542 0 30 13.458 30 30s-13.458 30-30 30-30-13.458-30-30 13.458-30 30-30zm0 90c74.439 0 135 60.561 135 135 0 74.991-60.561 136-135 136s-135-61.009-135-136c0-74.439 60.561-135 135-135z"/></g></svg>