<svg id="Capa_1" enable-background="new 0 0 512.003 512.003" height="512" viewBox="0 0 512.003 512.003" width="512" xmlns="http://www.w3.org/2000/svg"><g><path d="m399.617 195.868c0-50.413-26.178-94.823-65.65-120.364 12.784-8.259 24.335-18.611 34.157-30.847 7.899-9.842 6.325-24.223-3.517-32.122-9.841-7.899-24.223-6.325-32.122 3.517-18.646 23.231-46.394 36.555-76.129 36.555s-57.483-13.324-76.129-36.555c-7.9-9.842-22.282-11.415-32.122-3.517-9.842 7.899-11.416 22.281-3.517 32.122 9.822 12.237 21.373 22.588 34.157 30.847-39.473 25.541-65.65 69.951-65.65 120.364 0 71.219 52.24 130.457 120.412 141.432v48.365h-46.803c-12.619 0-22.85 10.23-22.85 22.85s10.23 22.85 22.85 22.85h46.803v50.29c0 12.62 10.23 22.85 22.85 22.85s22.85-10.23 22.85-22.85v-50.29h46.803c12.619 0 22.85-10.23 22.85-22.85s-10.23-22.85-22.85-22.85h-46.803v-48.365c68.169-10.975 120.41-70.214 120.41-141.432zm-240.825 0c0-53.796 43.766-97.562 97.562-97.562s97.562 43.766 97.562 97.562-43.766 97.562-97.562 97.562-97.562-43.766-97.562-97.562z" fill="#1ca56f"/><g fill="#158f5e"><path d="m279.205 431.363v49.75c0 12.61-10.313 23.429-22.924 23.39-5.032-.016-9.675-1.653-13.436-4.43 5.66-4.16 9.33-10.86 9.33-18.42v-40.29c0-5.523 4.477-10 10-10z"/><path d="m348.855 408.513c0 12.62-10.23 22.85-22.85 22.85h-27.03c12.62 0 22.85-10.23 22.85-22.85s-10.23-22.85-22.85-22.85h27.03c12.62 0 22.85 10.23 22.85 22.85z"/><path d="m399.615 195.863c0 71.22-52.24 130.46-120.41 141.44v48.36h-17.03c-5.523 0-10-4.477-10-10v-30.095c0-4.696 3.27-8.752 7.857-9.758 64.286-14.1 112.553-71.489 112.553-139.947 0-45.571-21.395-86.239-54.662-112.495-5.054-3.989-5.141-11.671-.083-15.654 8.501-6.695 16.311-14.405 23.255-23.061 7.9-9.84 6.32-24.22-3.52-32.12-.26-.21-.52-.41-.78-.6 8.13-5.98 19.57-6.02 27.81.6 9.84 7.9 11.42 22.28 3.52 32.12-9.82 12.24-21.37 22.59-34.16 30.85 39.47 25.54 65.65 69.95 65.65 120.36z"/></g><g><path d="m256.355 512.003c-16.735 0-30.35-13.615-30.35-30.35v-42.79h-39.304c-16.735 0-30.35-13.615-30.35-30.35s13.615-30.35 30.35-30.35h39.304v-34.615c-24.459-5.026-47.387-16.142-66.65-32.368-3.168-2.668-3.573-7.4-.904-10.568 2.668-3.169 7.399-3.574 10.568-.905 18.833 15.863 41.544 26.301 65.679 30.187 3.635.585 6.308 3.723 6.308 7.405v48.365c0 4.142-3.358 7.5-7.5 7.5h-46.804c-8.464 0-15.35 6.886-15.35 15.35s6.886 15.35 15.35 15.35h46.804c4.142 0 7.5 3.358 7.5 7.5v50.29c0 8.464 6.886 15.35 15.35 15.35s15.35-6.886 15.35-15.35v-50.29c0-4.142 3.358-7.5 7.5-7.5h46.804c8.464 0 15.35-6.886 15.35-15.35s-6.886-15.35-15.35-15.35h-46.804c-4.142 0-7.5-3.358-7.5-7.5v-48.365c0-3.682 2.673-6.819 6.308-7.405 60.732-9.777 107.377-59.351 113.434-120.555.408-4.122 4.078-7.131 8.202-6.725 4.122.408 7.133 4.08 6.725 8.202-6.514 65.837-55.322 119.557-119.668 132.735v34.613h39.304c16.735 0 30.35 13.615 30.35 30.35s-13.615 30.35-30.35 30.35h-39.304v42.79c-.003 16.734-13.617 30.349-30.352 30.349zm0-211.073c-57.932 0-105.063-47.131-105.063-105.062 0-25.171 9.075-49.537 25.554-68.608 16.303-18.868 38.756-31.365 63.224-35.19 4.085-.636 7.928 2.159 8.568 6.252.64 4.092-2.159 7.928-6.252 8.568-43.38 6.781-76.094 45.033-76.094 88.978 0 49.661 40.402 90.062 90.063 90.062s90.062-40.402 90.062-90.062c0-44.478-33.171-82.797-77.158-89.134-4.1-.59-6.945-4.393-6.354-8.493s4.394-6.94 8.493-6.354c24.75 3.565 47.504 15.967 64.072 34.921 16.732 19.144 25.948 43.669 25.948 69.059-.001 57.932-47.132 105.063-105.063 105.063zm-112.426-8.877c-2.215 0-4.408-.977-5.888-2.849-21.228-26.849-32.448-59.124-32.448-93.336 0-47.653 22.262-91.88 60.066-120.364-9.992-7.541-19.017-16.304-26.922-26.152-10.475-13.051-8.379-32.191 4.671-42.667 6.322-5.074 14.239-7.383 22.3-6.5 8.059.882 15.292 4.85 20.367 11.172 17.215 21.448 42.831 33.75 70.28 33.75s53.065-12.301 70.28-33.75c10.475-13.052 29.614-15.147 42.666-4.672 13.051 10.475 15.146 29.615 4.672 42.666-7.904 9.848-16.929 18.612-26.921 26.152 33.495 25.222 54.899 62.815 59.246 104.701.428 4.12-2.566 7.806-6.686 8.234-4.122.426-7.806-2.567-8.234-6.686-4.253-40.989-26.664-77.42-61.485-99.951-2.137-1.383-3.427-3.754-3.426-6.299s1.292-4.916 3.43-6.297c12.275-7.931 23.169-17.77 32.377-29.243 5.298-6.601 4.238-16.281-2.363-21.579-6.6-5.298-16.281-4.239-21.579 2.363-20.077 25.014-49.957 39.36-81.978 39.36s-61.901-14.346-81.978-39.36c-2.566-3.197-6.225-5.204-10.301-5.65-4.073-.443-8.081.722-11.278 3.288-6.601 5.298-7.661 14.978-2.363 21.579 9.208 11.473 20.102 21.312 32.377 29.242 2.138 1.381 3.429 3.752 3.43 6.297s-1.289 4.917-3.426 6.299c-38.963 25.21-62.224 67.852-62.224 114.066 0 30.801 10.102 59.86 29.214 84.034 2.569 3.249 2.018 7.966-1.232 10.535-1.374 1.089-3.015 1.616-4.644 1.617z"/></g></g></svg>