<svg id="Capa_1" enable-background="new 0 0 512.01 512.01" height="512" viewBox="0 0 512.01 512.01" width="512" xmlns="http://www.w3.org/2000/svg"><g><path d="m76.824 13.19c-17.585-17.585-46.052-17.589-63.639 0-17.546 17.546-17.546 46.094 0 63.639 14.117 14.12 34.882 16.666 51.311 8.759l34.921 34.421h-38.412v90h120v39.786l-55.592 55.593c-16.37-7.836-37.112-5.315-51.227 8.801-17.546 17.546-17.546 46.094-.001 63.639 17.586 17.587 46.051 17.588 63.641 0 13.826-13.827 16.747-34.485 8.781-51.208l34.399-34.399v219.789h150v-219.788l34.399 34.399c-7.966 16.724-5.045 37.381 8.782 51.209 17.585 17.585 46.052 17.589 63.639 0 17.546-17.546 17.546-46.094 0-63.639-14.109-14.112-34.838-16.646-51.227-8.801l-55.592-55.593v-39.787h120v-90h-38.413l34.921-34.421c16.417 7.901 37.195 5.358 51.311-8.759 17.546-17.546 17.546-46.094.001-63.639-17.586-17.587-46.051-17.588-63.641 0-13.802 13.804-16.739 34.415-8.823 51.123l-56.506 55.697h-53.891c9.438-12.544 15.041-28.129 15.041-45 0-41.355-33.645-75-75-75s-75 33.645-75 75c0 16.871 5.603 32.456 15.041 45h-53.891l-56.508-55.698c7.915-16.708 4.979-37.319-8.825-51.123zm-21.213 42.427c-5.861 5.862-15.35 5.863-21.213 0-5.848-5.849-5.848-15.365.002-21.214 5.859-5.861 15.35-5.862 21.211 0 5.848 5.849 5.848 15.365 0 21.214zm61 301c-5.862 5.862-15.351 5.863-21.213 0-5.849-5.848-5.849-15.365.001-21.214 5.86-5.862 15.351-5.862 21.211 0 5.849 5.849 5.849 15.366.001 21.214zm278.789-21.214c5.861-5.862 15.349-5.863 21.212 0 5.849 5.848 5.849 15.365-.001 21.214-5.859 5.861-15.35 5.862-21.211 0-5.849-5.848-5.849-15.365 0-21.214zm60.999-301c5.862-5.862 15.351-5.863 21.213 0 5.849 5.848 5.849 15.365-.001 21.214-5.86 5.861-15.349 5.862-21.212-.001-5.849-5.848-5.848-15.364 0-21.213zm-200.394-4.393c24.813 0 45 20.187 45 45s-20.187 45-45 45-45-20.187-45-45 20.187-45 45-45zm165 120v30h-120v302h-30v-196h-30v196h-30v-302h-120v-30z"/></g></svg>