<svg id="Capa_1" enable-background="new 0 0 512 512" height="512" viewBox="0 0 512 512" width="512" xmlns="http://www.w3.org/2000/svg"><g><g><g><path d="m282.28 465.079c0 9.73-4.67 18.34-10.08 25.04-21.24-8.103-33.465-33.635-21.64-56.81 1.76-.39 3.57-.6 5.44-.6 14.51 0 26.28 12.42 26.28 32.37z" fill="#6a829a"/><path d="m272.2 490.119c-5.04 6.27-10.72 10.86-13.84 13.17-1.4 1.03-3.32 1.03-4.72 0-6.46-4.77-23.92-19.4-23.92-38.21 0-17.39 8.94-29.06 20.84-31.77.66 19.84 7.55 40.1 21.64 56.81z" fill="#5b778f"/><path d="m287.2 414.679c0 17.23-13.97 31.19-31.2 31.19-1.43 0-2.85-.1-4.23-.29-13.905-19.849-7.92-50.35 11.13-61.33 13.91 3.13 24.3 15.57 24.3 30.43z" fill="#fbf198"/><path d="m251.77 445.579c-15.23-2.06-26.97-15.1-26.97-30.9 0-17.23 13.97-31.2 31.2-31.2 2.37 0 4.68.26 6.9.77-10.57 17.45-14.71 39.63-11.13 61.33z" fill="#fad989"/></g><g><path d="m384.312 429.904c0 9.73-4.67 18.34-10.08 25.04-21.24-8.103-33.465-33.635-21.64-56.81 1.76-.39 3.57-.6 5.44-.6 14.51 0 26.28 12.42 26.28 32.37z" fill="#6a829a"/><path d="m374.232 454.944c-5.04 6.27-10.72 10.86-13.84 13.17-1.4 1.03-3.32 1.03-4.72 0-6.46-4.77-23.92-19.4-23.92-38.21 0-17.39 8.94-29.06 20.84-31.77.66 19.84 7.55 40.1 21.64 56.81z" fill="#5b778f"/><path d="m389.232 379.504c0 17.23-13.97 31.19-31.2 31.19-1.43 0-2.85-.1-4.23-.29-13.905-19.849-7.92-50.35 11.13-61.33 13.91 3.13 24.3 15.57 24.3 30.43z" fill="#fbf198"/><path d="m353.802 410.404c-15.23-2.06-26.97-15.1-26.97-30.9 0-17.23 13.97-31.2 31.2-31.2 2.37 0 4.68.26 6.9.77-10.57 17.45-14.71 39.63-11.13 61.33z" fill="#fad989"/></g><g><path d="m180.247 429.903c0 9.73-4.67 18.34-10.08 25.04-21.24-8.103-33.465-33.635-21.64-56.81 1.76-.39 3.57-.6 5.44-.6 14.511.001 26.28 12.42 26.28 32.37z" fill="#6a829a"/><path d="m170.167 454.943c-5.04 6.27-10.72 10.86-13.84 13.17-1.4 1.03-3.32 1.03-4.72 0-6.46-4.77-23.92-19.4-23.92-38.21 0-17.39 8.94-29.06 20.84-31.77.661 19.84 7.551 40.1 21.64 56.81z" fill="#5b778f"/><path d="m185.167 379.504c0 17.23-13.97 31.19-31.2 31.19-1.43 0-2.85-.1-4.23-.29-13.905-19.849-7.92-50.35 11.13-61.33 13.911 3.13 24.3 15.57 24.3 30.43z" fill="#fbf198"/><path d="m149.738 410.404c-15.23-2.06-26.97-15.1-26.97-30.9 0-17.23 13.97-31.2 31.2-31.2 2.37 0 4.68.26 6.9.77-10.57 17.45-14.71 39.63-11.13 61.33z" fill="#fad989"/></g><path d="m449.64 201.579c0 85.49-55.39 158.04-132.25 183.72-147.223-69.156-156.522-305.501-64.08-377.34 107.865-1.579 196.422 85.745 196.33 193.62z" fill="#eaaa83"/><path d="m317.39 385.299c-19.29 6.44-39.93 9.93-61.39 9.93-106.95 0-193.64-86.7-193.64-193.65 0-106.04 85.24-192.18 190.95-193.62-71.98 106.14-61.84 277.88 64.08 377.34z" fill="#e4996d"/><path d="m405.02 201.579c0 74.51-54.67 136.24-126.08 147.27-101.947-61.115-115.294-213.658-50.58-293.73 8.96-1.68 18.2-2.56 27.64-2.56 82.3 0 149.02 66.72 149.02 149.02z" fill="#f3f5fc"/><path d="m278.94 348.849c-7.48 1.16-15.14 1.76-22.94 1.76-82.3 0-149.02-66.72-149.02-149.03 0-72.86 52.29-133.5 121.38-146.46-36.51 91.06-24.37 208.28 50.58 293.73z" fill="#d7ddf5"/></g><g><path d="m69.855 201.145c0-102.641 83.504-186.145 186.145-186.145 43.104 0 85.126 15.073 118.325 42.441 3.196 2.635 7.922 2.179 10.558-1.016 2.635-3.196 2.18-7.923-1.017-10.558-35.879-29.578-81.289-45.867-127.866-45.867-110.911 0-201.145 90.233-201.145 201.145 0 37.02 10.147 73.211 29.345 104.66 2.172 3.567 6.83 4.632 10.31 2.494 3.535-2.158 4.651-6.773 2.493-10.309-17.76-29.095-27.148-62.583-27.148-96.845z"/><path d="m457.145 201.145c0-47.445-16.845-93.514-47.432-129.722-2.673-3.164-7.404-3.562-10.569-.89-3.164 2.673-3.562 7.405-.89 10.569 28.304 33.504 43.891 76.136 43.891 120.042 0 102.641-83.504 186.145-186.145 186.145-52.977 0-103.613-22.696-138.926-62.268-2.756-3.089-7.498-3.361-10.589-.602-3.091 2.758-3.36 7.499-.603 10.589 5.934 6.65 12.27 12.857 18.952 18.602-6.092 6.975-9.562 15.986-9.562 25.449 0 10.423 4.15 19.891 10.876 26.855-3.877 6.576-5.962 14.686-5.962 23.544 0 26.886 28.53 45.411 29.745 46.186 2.461 1.572 5.611 1.572 8.072 0 1.215-.775 29.745-19.3 29.745-46.186 0-8.87-2.091-16.992-5.978-23.573 3.951-4.089 7.019-9.042 8.875-14.555 9.679 3.331 19.622 5.931 29.75 7.758-2.021 4.748-3.092 9.889-3.092 15.147 0 10.423 4.15 19.89 10.876 26.855-3.877 6.576-5.962 14.687-5.962 23.544 0 26.886 28.53 45.411 29.745 46.186 2.461 1.572 5.611 1.572 8.072 0 1.215-.775 29.745-19.3 29.745-46.186 0-8.857-2.085-16.968-5.962-23.544 6.725-6.965 10.876-16.432 10.876-26.855 0-5.243-1.065-10.369-3.074-15.105 10.203-1.831 20.138-4.442 29.75-7.754 1.857 5.495 4.918 10.432 8.859 14.509-3.887 6.581-5.978 14.702-5.978 23.573 0 26.886 28.53 45.411 29.745 46.186 2.461 1.572 5.611 1.572 8.072 0 1.215-.775 29.745-19.3 29.745-46.186 0-8.858-2.085-16.968-5.962-23.544 6.726-6.965 10.876-16.432 10.876-26.855 0-9.488-3.487-18.522-9.609-25.505 42.852-36.915 70.028-91.546 70.028-152.409zm-303.162 258.863c-6.55-5.274-18.797-16.957-18.797-30.549 0-5.706 1.161-10.83 3.324-14.935 4.738 2.073 9.964 3.231 15.457 3.231 5.467 0 10.694-1.166 15.445-3.255 2.171 4.109 3.337 9.242 3.337 14.959 0 13.691-12.209 25.301-18.766 30.549zm-.015-57.253c-13.065 0-23.695-10.63-23.695-23.695 0-6.027 2.305-11.752 6.323-16.091 12.45 9.18 25.889 16.866 40.025 22.943-2.966 9.761-12.079 16.843-22.653 16.843zm102.048 92.43c-6.55-5.274-18.797-16.957-18.797-30.549 0-5.706 1.161-10.829 3.324-14.935 4.738 2.073 9.964 3.231 15.457 3.231s10.719-1.158 15.457-3.231c2.163 4.105 3.324 9.229 3.324 14.935 0 13.691-12.209 25.301-18.765 30.549zm23.679-80.949c0 13.065-10.63 23.695-23.695 23.695s-23.695-10.63-23.695-23.695c0-4.635 1.37-9.114 3.875-12.943 6.559.652 13.171.997 19.82.997 6.692 0 13.307-.336 19.833-.978 2.497 3.826 3.862 8.297 3.862 12.924zm78.353 45.772c-6.55-5.274-18.797-16.957-18.797-30.549 0-5.717 1.166-10.849 3.337-14.959 4.75 2.089 9.978 3.255 15.445 3.255 5.494 0 10.72-1.158 15.457-3.231 2.163 4.105 3.324 9.229 3.324 14.935-.001 13.691-12.21 25.301-18.766 30.549zm23.68-80.948c0 13.065-10.63 23.695-23.695 23.695-10.562 0-19.665-7.066-22.642-16.81 14.25-6.145 27.653-13.89 39.982-23.011 4.037 4.343 6.355 10.083 6.355 16.126z"/><path d="m256 357.668c86.307 0 156.522-70.216 156.522-156.522s-70.215-156.523-156.522-156.523-156.522 70.215-156.522 156.522 70.215 156.523 156.522 156.523zm-134.498-112.482c10.763 4.268 23.008 6.688 35.895 7.018 10.564 20.319 27.225 36.98 47.545 47.545.33 12.886 2.75 25.131 7.017 35.894-42.67-14.007-76.45-47.787-90.457-90.457zm84.219-125.856c1.999 16.5 7.565 31.52 15.851 42.73-1.648 1.454-3.203 3.009-4.657 4.657-11.21-8.286-26.229-13.852-42.73-15.851 7.902-12.811 18.725-23.634 31.536-31.536zm132.093 31.536c-16.5 1.999-31.52 7.565-42.729 15.851-1.454-1.648-3.009-3.203-4.657-4.657 8.286-11.21 13.852-26.23 15.851-42.73 12.811 7.902 23.634 18.725 31.535 31.536zm59.708 50.279c0 8.512-.756 16.851-2.203 24.953-9.288 5.708-21.262 9.438-34.127 10.688 3.802-11.192 5.866-23.18 5.866-35.64 0-12.461-2.063-24.449-5.865-35.64 12.865 1.25 24.839 4.979 34.127 10.688 1.446 8.101 2.202 16.439 2.202 24.951zm-91.243 81.814c-1.999-16.5-7.565-31.519-15.851-42.729 1.648-1.454 3.203-3.009 4.657-4.657 11.21 8.286 26.229 13.852 42.729 15.851-7.901 12.811-18.724 23.634-31.535 31.535zm-132.093-31.535c16.5-1.999 31.519-7.565 42.729-15.851 1.454 1.648 3.009 3.203 4.657 4.657-8.286 11.21-13.852 26.229-15.851 42.729-12.811-7.901-23.634-18.724-31.535-31.535zm129.113-72.139c10.314-7.961 25.271-12.982 41.798-14.027 4.484 11.093 6.96 23.206 6.96 35.887s-2.476 24.794-6.96 35.887c-16.527-1.046-31.484-6.066-41.798-14.027 3.087-6.653 4.823-14.056 4.823-21.86s-1.736-15.207-4.823-21.86zm-10.177 21.86c0 20.469-16.653 37.123-37.122 37.123s-37.122-16.653-37.122-37.123 16.653-37.123 37.122-37.123 37.122 16.654 37.122 37.123zm-84.421 21.86c-10.314 7.961-25.271 12.982-41.798 14.027-4.484-11.093-6.96-23.206-6.96-35.887s2.476-24.794 6.96-35.887c16.527 1.046 31.485 6.066 41.798 14.027-3.087 6.653-4.823 14.056-4.823 21.86s1.736 15.207 4.823 21.86zm25.439 25.439c6.653 3.087 14.056 4.823 21.86 4.823s15.207-1.736 21.86-4.823c7.961 10.314 12.981 25.272 14.027 41.798-11.093 4.484-23.206 6.96-35.887 6.96s-24.794-2.476-35.887-6.96c1.045-16.526 6.065-31.483 14.027-41.798zm43.72-94.598c-6.653-3.087-14.056-4.823-21.86-4.823s-15.207 1.736-21.86 4.823c-7.961-10.314-12.981-25.272-14.027-41.799 11.093-4.484 23.206-6.96 35.887-6.96s24.794 2.476 35.887 6.96c-1.045 16.527-6.065 31.484-14.027 41.799zm-127.052 82.939c-12.865-1.25-24.839-4.979-34.127-10.688-1.447-8.102-2.203-16.441-2.203-24.953s.756-16.851 2.203-24.953c9.288-5.708 21.262-9.438 34.127-10.688-3.802 11.192-5.865 23.18-5.865 35.64-.001 12.463 2.063 24.451 5.865 35.642zm80.239 103.679c-5.708-9.288-9.437-21.261-10.687-34.127 11.192 3.802 23.18 5.866 35.64 5.866s24.448-2.064 35.64-5.866c-1.25 12.866-4.979 24.84-10.687 34.127-8.102 1.447-16.441 2.203-24.953 2.203s-16.851-.756-24.953-2.203zm68.994-4.821c4.268-10.763 6.688-23.008 7.017-35.894 20.319-10.565 36.98-27.225 47.545-47.545 12.886-.33 25.131-2.75 35.895-7.018-14.007 42.67-47.787 76.45-90.457 90.457zm90.457-178.539c-10.763-4.268-23.008-6.688-35.894-7.018-10.564-20.32-27.225-36.98-47.545-47.545-.33-12.886-2.75-25.131-7.017-35.894 42.669 14.007 76.449 47.787 90.456 90.457zm-109.545-95.278c5.708 9.287 9.437 21.261 10.687 34.127-11.192-3.802-23.18-5.866-35.64-5.866s-24.449 2.064-35.64 5.866c1.25-12.866 4.979-24.839 10.687-34.127 8.102-1.447 16.441-2.203 24.953-2.203s16.851.756 24.953 2.203zm-68.994 4.822c-4.268 10.763-6.688 23.008-7.017 35.894-20.319 10.565-36.98 27.225-47.545 47.545-12.886.33-25.131 2.75-35.894 7.018 14.006-42.671 47.786-76.451 90.456-90.457z"/></g></g></svg>