<svg id="Capa_1" enable-background="new 0 0 512 512" height="512" viewBox="0 0 512 512" width="512" xmlns="http://www.w3.org/2000/svg"><g><g><path d="m256 224.467c59.819 0 108.484-48.665 108.484-108.484 0-59.818-48.665-108.483-108.484-108.483-59.818 0-108.484 48.665-108.484 108.484 0 59.818 48.666 108.483 108.484 108.483zm0-170.036c33.94 0 61.553 27.612 61.553 61.552s-27.612 61.552-61.553 61.552-61.552-27.612-61.552-61.552c0-33.939 27.612-61.552 61.552-61.552z" fill="#a176bd"/><path d="m364.48 115.98c0 59.82-48.66 108.49-108.48 108.49-4.57 0-9.08-.28-13.51-.84 53.46-6.67 94.96-52.41 94.96-107.65 0-55.23-41.5-100.97-94.96-107.64 4.43-.56 8.94-.84 13.51-.84 59.82 0 108.48 48.67 108.48 108.48z" fill="#915eb2"/><path d="m458.427 115.984c0-12.96-10.506-23.466-23.466-23.466s-23.466 10.506-23.466 23.466c0 85.741-69.756 155.496-155.496 155.496-85.741 0-155.496-69.755-155.496-155.496 0-12.96-10.506-23.466-23.466-23.466s-23.466 10.506-23.466 23.466c0 103.682 78.358 189.392 178.962 201.059v77.811h-43.327c-12.96 0-23.466 10.506-23.466 23.466s10.506 23.466 23.466 23.466h43.327v39.249c0 12.96 10.506 23.466 23.466 23.466s23.466-10.506 23.466-23.466v-39.249h43.326c12.96 0 23.466-10.506 23.466-23.466s-10.506-23.466-23.466-23.466h-43.326v-77.811c100.604-11.667 178.962-97.377 178.962-201.059z" fill="#a176bd"/><g fill="#915eb2"><g><path d="m346.26 418.32c0 12.96-10.51 23.47-23.47 23.47h-27.03c12.96 0 23.47-10.51 23.47-23.47s-10.51-23.47-23.47-23.47h27.03c12.96 0 23.47 10.51 23.47 23.47z"/><path d="m279.47 441.79v38.686c0 12.942-10.239 23.865-23.18 24.022-5.141.062-9.917-1.536-13.81-4.288 6.03-4.24 9.96-11.25 9.96-19.18v-29.24c0-5.523 4.477-10 10-10z"/></g><path d="m458.429 116.538c-.281 103.439-78.54 188.863-178.959 200.502v77.81h-17.03c-5.523 0-10-4.477-10-10v-59.098c0-4.899 3.548-9.095 8.386-9.862 96.535-15.318 170.574-99.12 170.574-199.91 0-7.92-3.93-14.93-9.95-19.18 3.848-2.719 8.547-4.303 13.619-4.28 13.01.059 23.395 11.008 23.36 24.018z"/></g></g><g><g><path d="m256 231.967c-63.954 0-115.984-52.03-115.984-115.983s52.03-115.984 115.984-115.984 115.984 52.03 115.984 115.984-52.03 115.983-115.984 115.983zm0-216.967c-55.683 0-100.984 45.301-100.984 100.984s45.301 100.983 100.984 100.983 100.984-45.301 100.984-100.983-45.302-100.984-100.984-100.984zm0 170.036c-38.076 0-69.052-30.977-69.052-69.052 0-32.019 21.745-59.62 52.88-67.123 4.029-.969 8.078 1.508 9.048 5.535s-1.508 8.078-5.535 9.048c-24.372 5.873-41.394 27.478-41.394 52.54 0 29.805 24.248 54.052 54.052 54.052s54.053-24.248 54.053-54.052c0-24.947-16.925-46.529-41.157-52.485-4.022-.989-6.481-5.051-5.493-9.073.988-4.023 5.048-6.483 9.073-5.493 30.957 7.608 52.577 35.181 52.577 67.052 0 38.075-30.976 69.051-69.052 69.051z"/></g><g><path d="m256 512c-17.075 0-30.966-13.891-30.966-30.966v-31.749h-35.827c-17.074 0-30.965-13.891-30.965-30.966s13.891-30.966 30.965-30.966h35.827v-15.663c0-4.142 3.358-7.5 7.5-7.5s7.5 3.358 7.5 7.5v23.163c0 4.142-3.358 7.5-7.5 7.5h-43.327c-8.803 0-15.965 7.162-15.965 15.966s7.162 15.966 15.965 15.966h43.327c4.142 0 7.5 3.358 7.5 7.5v39.249c0 8.804 7.162 15.966 15.966 15.966s15.966-7.162 15.966-15.966v-39.249c0-4.142 3.357-7.5 7.5-7.5h43.326c8.804 0 15.966-7.162 15.966-15.966s-7.162-15.966-15.966-15.966h-43.326c-4.143 0-7.5-3.358-7.5-7.5v-77.811c0-3.808 2.854-7.011 6.636-7.45 98.242-11.393 172.326-94.627 172.326-193.609 0-8.804-7.162-15.966-15.966-15.966s-15.966 7.162-15.966 15.966c0 36.937-12.761 73.15-35.932 101.969-2.596 3.228-7.315 3.741-10.544 1.146-3.229-2.596-3.741-7.316-1.146-10.545 21.341-26.543 32.621-58.554 32.621-92.57 0-17.075 13.892-30.966 30.966-30.966s30.966 13.891 30.966 30.966c0 51.736-19.062 101.472-53.673 140.044-32.834 36.592-77.113 60.427-125.289 67.587v63.738h35.826c17.074 0 30.966 13.891 30.966 30.966s-13.892 30.966-30.966 30.966h-35.826v31.749c.001 17.076-13.891 30.967-30.965 30.967z"/></g><g><path d="m232.534 350.09c-4.142 0-7.5-3.358-7.5-7.5v-18.975c-48.175-7.161-92.456-30.996-125.29-67.587-34.611-38.572-53.672-88.308-53.672-140.044 0-17.075 13.891-30.966 30.966-30.966 17.074 0 30.965 13.891 30.965 30.966 0 81.605 66.391 147.996 147.996 147.996 35.182 0 69.304-12.619 96.082-35.532 3.146-2.694 7.882-2.324 10.574.823 2.693 3.147 2.325 7.882-.822 10.575-29.493 25.236-67.079 39.134-105.834 39.134-89.876 0-162.996-73.12-162.996-162.996 0-8.804-7.162-15.966-15.965-15.966-8.804 0-15.966 7.162-15.966 15.966 0 98.982 74.084 182.216 172.325 193.609 3.783.439 6.636 3.642 6.636 7.45v25.547c.001 4.142-3.357 7.5-7.499 7.5z"/></g></g></g></svg>