<svg id="Capa_1" enable-background="new 0 0 512 512" height="512" viewBox="0 0 512 512" width="512" xmlns="http://www.w3.org/2000/svg"><g><path d="m241 0h30v61h-30z"/><path d="m61 181h60v30h-60z"/><path d="m391 181h60v30h-60z"/><path d="m124.353 43.103h30v72.499h-30z" transform="matrix(.707 -.707 .707 .707 -15.296 121.779)"/><path d="m336.397 64.353h72.499v30h-72.499z" transform="matrix(.707 -.707 .707 .707 53.032 286.74)"/><path d="m183.271 121.859-62.271 176.107v135.493l-39.271 78.541h153.541l20.73-41.459 20.729 41.459h153.541l-39.27-78.541c0-28.187 0-105.113 0-135.493l-62.271-176.107c-6.107-18.469-23.249-30.859-42.729-30.859-11.517 0-22.032 4.354-30 11.495-7.968-7.141-18.483-11.495-30-11.495-19.48 0-36.622 12.39-42.729 30.859zm102.729-.859c6.397 0 12.037 4.003 14.15 10 4.306 12.178 57.977 163.989 60.85 172.113v137.427l20.729 41.46h-86.459l-24.27-48.541v-117.459c0-8.271 6.729-15 15-15s15 6.729 15 15v106h30v-106c0-5.259-.915-10.307-2.581-15.002l.013-.005-56.581-159.988c-.565-1.597-.851-3.281-.851-5.005 0-8.271 6.729-15 15-15zm.004 150c-.001 0-.003 0-.004 0-11.517 0-22.032 4.354-30 11.495-7.968-7.141-18.483-11.495-30-11.495-.001 0-.003 0-.004 0l30.004-84.84zm-45.004-135c0 1.724-.286 3.408-.851 5.004l-56.582 159.99.013.005c-1.665 4.694-2.58 9.742-2.58 15.001v106h30v-106c0-8.271 6.729-15 15-15s15 6.729 15 15v117.459l-24.271 48.541h-86.459l20.73-41.459c0-14.761 0-120.77 0-137.427 3.346-9.463 57.174-161.692 60.858-172.11 2.114-5.998 7.745-10.004 14.142-10.004 8.271 0 15 6.729 15 15z"/></g></svg>