<svg id="Capa_1" enable-background="new 0 0 512 512" height="512" viewBox="0 0 512 512" width="512" xmlns="http://www.w3.org/2000/svg"><g><g><path d="m446.74 46.239c-18.99 32.82-45.63 60.29-77.03 79.45-31.31 19.1-66.84 29.56-103.07 30.39-9.86-16.02-12.07-34.99-7.95-51.6 1.08.03 2.16.04 3.25.04 57.26 0 109.64-31.45 140.13-84.13 7.14-12.34 22.92-16.55 35.26-9.42 12.33 7.14 16.55 22.93 9.41 35.27z" fill="#6a829a"/><path d="m266.64 156.079c-1.57.04-3.13.06-4.7.06-37.85 0-75.11-10.53-107.76-30.45-31.41-19.16-58.05-46.63-77.04-79.45-7.14-12.34-2.92-28.13 9.41-35.27 12.34-7.13 28.12-2.92 35.26 9.42 29.91 51.68 80.89 82.93 136.88 84.09-4.12 16.61-1.91 35.58 7.95 51.6z" fill="#5b778f"/><path d="m390.69 255.4v145.91c0 11.88-5.71 23.04-15.34 29.99l-50.82 36.67c-97.602-65.84-105.58-236.775-35.08-304.53l85.9 61.97c9.63 6.95 15.34 18.1 15.34 29.99z" fill="#2ecefb"/><path d="m324.53 467.97-40.95 29.54c-12.92 9.32-30.36 9.32-43.28 0l-91.77-66.21c-9.63-6.95-15.34-18.11-15.34-29.99v-145.91c0-11.89 5.71-23.04 15.34-29.99l91.77-66.21c12.92-9.32 30.36-9.32 43.28 0l5.87 4.24c-50.101 88.25-44.69 215.45 35.08 304.53z" fill="#00bdfd"/><path d="m320.46 298.15v60.41c0 7.26-3.48 14.07-9.37 18.32l-30.99 22.35c-35.106-27.002-47.961-104.048-20.01-149.51 5.23-.44 10.59.96 15.06 4.19l35.94 25.92c5.89 4.25 9.37 11.06 9.37 18.32z" fill="#83deff"/><path d="m280.1 399.23-4.95 3.57c-7.89 5.69-18.53 5.69-26.42 0l-35.94-25.92c-5.89-4.25-9.37-11.06-9.37-18.32v-60.41c0-7.26 3.48-14.07 9.37-18.32l35.94-25.92c3.42-2.47 7.35-3.86 11.36-4.19-7.35 48.92-1.33 101.39 20.01 149.51z" fill="#2ecefb"/><path d="m304.93 130.329c0 17.99-11.04 33.4-26.71 39.81-34.616-15.031-36.46-63.671-12.58-82.64 22.02 1.87 39.29 20.34 39.29 42.83z" fill="#fbf198"/><path d="m278.22 170.139c-5.02 2.06-10.52 3.19-16.28 3.19-23.75 0-42.99-19.25-42.99-43 0-23.74 19.24-42.99 42.99-42.99 1.25 0 2.48.05 3.7.16-14.36 23.81-12.23 59.75 12.58 82.64z" fill="#fad989"/><g><path d="m447.751 436.488-27.41 14.99-8.21 15.02c-32.979-16.738-32.724-73.395-7.35-94.27.2.3.4.62.58.95l14.98 27.4 27.41 14.99c8.27 4.52 8.27 16.4 0 20.92z" fill="#fbf198"/><path d="m412.131 466.498-6.77 12.38c-4.53 8.27-16.4 8.27-20.93 0l-14.98-27.4-27.41-14.99c-8.27-4.52-8.27-16.4 0-20.92l27.41-14.99 14.98-27.4c4.35-7.94 15.46-8.26 20.35-.95-14.76 27.46-13.91 65.43 7.35 94.27z" fill="#fad989"/></g><g><path d="m169.959 246.59-27.41 14.99-8.21 15.02c-32.979-16.738-32.724-73.395-7.35-94.27.2.3.4.62.58.95l14.98 27.4 27.41 14.99c8.271 4.52 8.271 16.4 0 20.92z" fill="#fbf198"/><path d="m134.339 276.6-6.77 12.38c-4.53 8.27-16.4 8.27-20.93 0l-14.98-27.4-27.41-14.99c-8.27-4.52-8.27-16.4 0-20.92l27.41-14.99 14.98-27.4c4.35-7.94 15.46-8.26 20.35-.95-14.76 27.46-13.91 65.43 7.35 94.27z" fill="#fad989"/></g></g><g><path d="m208.404 382.951 35.934 25.924c5.263 3.798 11.433 5.697 17.602 5.697s12.338-1.899 17.602-5.697l35.934-25.924c7.817-5.638 12.484-14.76 12.484-24.399v-60.408c0-9.64-4.667-18.761-12.484-24.399l-35.934-25.924c-10.527-7.595-24.677-7.595-35.203 0l-35.934 25.924c-7.817 5.638-12.484 14.76-12.484 24.399v60.408c-.001 9.639 4.666 18.761 12.483 24.399zm2.515-84.807c0-4.834 2.34-9.407 6.259-12.235l35.934-25.924c5.28-3.809 12.373-3.809 17.653 0l35.935 25.925c3.92 2.828 6.259 7.401 6.259 12.235v60.408c0 4.834-2.34 9.407-6.259 12.235l-35.934 25.924c-5.28 3.809-12.373 3.809-17.653 0l-35.934-25.924c-3.92-2.828-6.259-7.401-6.259-12.235v-60.409z"/><path d="m451.335 408.976-25.473-13.932-13.933-25.474c-2.872-5.252-7.963-8.816-13.743-9.811v-104.365c0-14.25-6.899-27.734-18.455-36.071l-78.849-56.883c.758-.918 1.473-1.872 2.166-2.843 24.952-4.917 48.677-14.153 70.558-27.501 32.47-19.809 60.001-48.197 79.616-82.096 9.198-15.895 3.749-36.31-12.146-45.507-7.698-4.455-16.668-5.646-25.269-3.352-8.595 2.294-15.782 7.797-20.238 15.498-6.354 10.98-13.831 21.184-22.225 30.325-2.802 3.051-2.599 7.795.452 10.596 3.051 2.802 7.796 2.599 10.596-.452 9.131-9.944 17.259-21.033 24.158-32.957 2.449-4.232 6.4-7.257 11.125-8.518 4.721-1.261 9.656-.608 13.888 1.842 8.736 5.055 11.731 16.276 6.676 25.012-18.365 31.737-44.108 58.296-74.447 76.803-17.179 10.479-35.573 18.241-54.842 23.16.96-3.884 1.479-7.94 1.479-12.116 0-8.861-2.302-17.192-6.328-24.439 18.11-5.12 35.193-13.343 50.908-24.544 3.373-2.404 4.158-7.088 1.754-10.46s-7.086-4.158-10.46-1.754c-16.048 11.439-33.643 19.473-52.353 23.914-8.981-8.2-20.921-13.208-34.012-13.208-13.09 0-25.031 5.009-34.012 13.209-41.446-9.822-76.712-36.829-99.618-76.413-4.456-7.7-11.643-13.204-20.238-15.498-8.593-2.293-17.569-1.103-25.27 3.353-15.894 9.198-21.342 29.613-12.144 45.508 19.616 33.9 47.148 62.288 79.617 82.096 21.88 13.348 45.605 22.583 70.556 27.501.693.971 1.408 1.925 2.166 2.843l-65.982 47.601-8.929-4.884-13.933-25.474c-3.408-6.232-9.937-10.104-17.041-10.104-7.103 0-13.632 3.871-17.04 10.103l-13.933 25.474-25.473 13.932c-6.232 3.409-10.103 9.938-10.103 17.041s3.871 13.632 10.103 17.041l25.473 13.932 13.933 25.474c3.408 6.232 9.937 10.104 17.04 10.104 3.032 0 5.957-.711 8.582-2.004v100.626c0 14.25 6.899 27.734 18.455 36.071l22.176 15.998c3.323 2.407 8.032 1.686 10.469-1.694 2.424-3.359 1.665-8.047-1.694-10.47l-22.176-15.998c-7.659-5.525-12.231-14.462-12.231-23.906v-120.685l7.393-13.517 25.473-13.932c6.232-3.409 10.103-9.938 10.103-17.041s-3.871-13.633-10.103-17.041l-1.962-1.073 62.866-45.353c7.914 5.155 17.348 8.164 27.477 8.164s19.563-3.009 27.477-8.164l81.539 58.825c7.659 5.525 12.231 14.462 12.231 23.906v108.004c-2.159 1.631-3.994 3.714-5.339 6.172l-13.933 25.474-25.473 13.932c-6.232 3.409-10.103 9.938-10.103 17.041s3.871 13.633 10.103 17.041l4.421 2.418-63.677 45.938c-10.316 7.442-24.177 7.443-34.493 0l-41.209-29.729c-3.358-2.423-8.046-1.664-10.469 1.694-2.424 3.359-1.665 8.047 1.694 10.47l41.209 29.728c7.783 5.615 16.901 8.422 26.021 8.422 9.119 0 18.24-2.808 26.021-8.421l69.484-50.127 6.47 3.539 13.933 25.474c3.409 6.232 9.939 10.103 17.042 10.103 7.102 0 13.631-3.872 17.039-10.103l13.933-25.474 25.473-13.932c6.232-3.409 10.103-9.938 10.103-17.041.003-7.103-3.867-13.632-10.1-17.041zm-284.973-168.964-27.401 14.986c-1.259.688-2.293 1.723-2.981 2.981l-14.987 27.402c-1.136 2.077-3.093 2.301-3.882 2.301-.788 0-2.745-.224-3.881-2.302l-14.987-27.401c-.688-1.258-1.723-2.293-2.981-2.981l-27.401-14.986c-2.076-1.136-2.301-3.093-2.301-3.881 0-.789.225-2.746 2.301-3.882l27.401-14.986c1.259-.688 2.293-1.723 2.981-2.981l14.987-27.402c1.136-2.077 3.093-2.301 3.881-2.301.789 0 2.746.224 3.882 2.302l14.987 27.401c.688 1.258 1.723 2.293 2.981 2.981l27.401 14.986c2.076 1.136 2.301 3.093 2.301 3.882-.001.788-.225 2.745-2.301 3.881zm-8.275-120.721c-30.337-18.507-56.081-45.065-74.448-76.803-5.055-8.736-2.06-19.958 6.675-25.013 4.23-2.448 9.162-3.104 13.889-1.843 4.724 1.261 8.675 4.286 11.124 8.519 12.779 22.083 29.21 40.671 48.838 55.247 16.43 12.201 34.423 21.078 53.611 26.497-4.026 7.247-6.329 15.578-6.329 24.44 0 4.176.519 8.232 1.479 12.116-19.267-4.918-37.661-12.68-54.839-23.16zm68.36 11.044c0-19.571 15.922-35.493 35.492-35.493s35.492 15.922 35.492 35.493-15.922 35.492-35.492 35.492-35.492-15.921-35.492-35.492zm217.691 299.563-27.401 14.986c-1.259.688-2.293 1.723-2.981 2.981l-14.987 27.402c-1.136 2.077-3.093 2.301-3.881 2.301-.789 0-2.746-.224-3.882-2.302l-14.987-27.401c-.688-1.258-1.723-2.293-2.981-2.981l-27.401-14.986c-2.076-1.136-2.301-3.093-2.301-3.882s.225-2.745 2.301-3.881l27.401-14.986c1.259-.688 2.293-1.723 2.981-2.981l14.987-27.401c.847-1.616 2.472-2.3 3.882-2.301.788 0 2.745.224 3.881 2.301l14.987 27.402c.688 1.259 1.723 2.293 2.981 2.981l27.401 14.986c2.076 1.136 2.301 3.093 2.301 3.881 0 .789-.224 2.746-2.301 3.881z"/></g></g></svg>