<svg id="Capa_1" enable-background="new 0 0 512 512" height="512" viewBox="0 0 512 512" width="512" xmlns="http://www.w3.org/2000/svg"><g><path d="m256.446 504.5c-13.554 0-24.58-11.026-24.58-24.58v-31.709h-36.749c-13.554 0-24.581-11.027-24.581-24.581 0-13.555 11.027-24.582 24.581-24.582h36.749v-34.49h-153.63c-8.754 0-16.911-4.709-21.288-12.29s-4.377-17 0-24.581l177.764-307.897c4.377-7.581 12.534-12.29 21.288-12.29s16.91 4.709 21.286 12.291l177.765 307.896c4.378 7.581 4.379 17 0 24.581-4.377 7.58-12.534 12.289-21.287 12.289h-152.737v34.49h36.75c13.554 0 24.581 11.027 24.581 24.582 0 13.554-11.027 24.581-24.581 24.581h-36.75v31.709c0 13.554-11.027 24.581-24.581 24.581zm134.743-189.104-135.189-234.154-135.189 234.154z" fill="#fb6a3b"/><g fill="#fb5532"><path d="m281.029 448.211v31.105c0 13.517-10.653 24.959-24.168 25.181-6.089.101-11.693-2.025-16.042-5.616 5.46-4.511 8.95-11.341 8.95-18.96v-21.71c0-5.523 4.477-10 10-10z"/><path d="m342.36 423.631c0 13.55-11.03 24.58-24.58 24.58h-31.26c13.561 0 24.58-11.03 24.58-24.58 0-13.551-11.02-24.581-24.58-24.581h31.261c13.549 0 24.579 11.03 24.579 24.581z"/><path d="m281.029 364.56v34.489h-21.26c-5.522 0-10-4.477-10-10v-14.489c0-5.523 4.477-10 10-10z"/><path d="m246.03 19.79c-1.49-2.58-3.41-4.819-5.65-6.67 4.34-3.57 9.85-5.62 15.62-5.62 8.75 0 16.91 4.71 21.29 12.29l177.76 307.9c4.38 7.58 4.38 17 0 24.58s-12.53 12.29-21.29 12.29h-31.25c8.75 0 16.91-4.71 21.29-12.29s4.38-17 0-24.58z"/></g><g><path d="m256.446 512c-17.689 0-32.081-14.392-32.081-32.08v-31.709c0-4.143 3.357-7.5 7.5-7.5s7.5 3.357 7.5 7.5v31.708c0 9.418 7.662 17.081 17.081 17.081 9.418 0 17.08-7.663 17.08-17.081v-31.708c0-4.143 3.357-7.5 7.5-7.5h36.751c9.419 0 17.081-7.663 17.081-17.081 0-9.419-7.662-17.082-17.081-17.082h-36.751c-4.143 0-7.5-3.357-7.5-7.5v-34.49c0-4.143 3.357-7.5 7.5-7.5h152.737c6.082 0 11.75-3.272 14.792-8.54s3.042-11.813 0-17.081l-113.121-195.932c-2.07-3.587-.842-8.174 2.745-10.244 3.586-2.072 8.173-.844 10.245 2.744l113.122 195.932c5.714 9.896 5.714 22.188-.001 32.082-5.712 9.893-16.356 16.039-27.781 16.039h-145.237v19.49h29.25c17.688 0 32.081 14.393 32.081 32.082 0 17.688-14.393 32.081-32.081 32.081h-29.25v24.208c0 17.689-14.391 32.081-32.081 32.081z"/></g><g><path d="m202.765 455.711h-7.648c-17.689 0-32.081-14.393-32.081-32.081 0-17.689 14.392-32.082 32.081-32.082h29.249v-19.49h-146.129c-11.425 0-22.07-6.146-27.783-16.039-5.713-9.896-5.713-22.188 0-32.082l177.762-307.896c5.714-9.895 16.36-16.041 27.784-16.041 11.425 0 22.07 6.147 27.782 16.042l50.087 86.754c2.071 3.587.842 8.175-2.745 10.245-3.586 2.072-8.175.842-10.245-2.745l-50.088-86.755c-3.041-5.269-8.708-8.541-14.791-8.541s-11.752 3.273-14.794 8.541l-177.762 307.896c-3.041 5.268-3.041 11.813 0 17.081 3.042 5.267 8.71 8.54 14.793 8.54h153.629c4.143 0 7.5 3.357 7.5 7.5v34.49c0 4.143-3.357 7.5-7.5 7.5h-36.749c-9.419 0-17.081 7.663-17.081 17.082 0 9.418 7.662 17.081 17.081 17.081h7.648c4.143 0 7.5 3.357 7.5 7.5 0 4.142-3.358 7.5-7.5 7.5z"/></g><g><path d="m391.189 322.896h-185.678c-4.143 0-7.5-3.358-7.5-7.5 0-4.143 3.357-7.5 7.5-7.5h172.688l-122.199-211.654-122.199 211.654h42.609c4.143 0 7.5 3.357 7.5 7.5 0 4.142-3.357 7.5-7.5 7.5h-55.6c-2.68 0-5.155-1.431-6.495-3.75-1.34-2.32-1.34-5.181 0-7.5l135.19-234.154c1.34-2.32 3.815-3.75 6.495-3.75s5.154 1.43 6.495 3.75l135.188 234.154c1.341 2.319 1.341 5.18 0 7.5-1.34 2.32-3.815 3.75-6.494 3.75z"/></g></g></svg>