<svg id="Capa_1" enable-background="new 0 0 511.985 511.985" height="512" viewBox="0 0 511.985 511.985" width="512" xmlns="http://www.w3.org/2000/svg"><g><path d="m240.993 331.985h-30v30h90v-30h-30v-30h-30z"/><path d="m180.993 301.985c33.084 0 60-26.916 60-60s-26.916-60-60-60-60 26.916-60 60 26.916 60 60 60zm0-90c16.542 0 30 13.458 30 30s-13.458 30-30 30-30-13.458-30-30 13.458-30 30-30z"/><path d="m330.993 301.985c33.084 0 60-26.916 60-60s-26.916-60-60-60-60 26.916-60 60 26.916 60 60 60zm0-90c16.542 0 30 13.458 30 30s-13.458 30-30 30-30-13.458-30-30 13.458-30 30-30z"/><path d="m105.993 391.985h15v75c0 24.813 20.187 45 45 45h180c24.813 0 45-20.187 45-45v-75h15c41.355 0 75-33.645 75-75 0-19.989-7.873-38.696-21.902-52.695 4.583-17.424 6.902-34.977 6.902-52.305 0-115.17-93.092-211.783-209.974-211.985-.121 0-.236 0-.357 0-117.189 0-210.242 99.774-209.47 212.088.118 17.266 2.464 34.681 6.981 51.898-14.208 14.019-22.181 32.833-22.181 52.999.001 41.355 33.646 75 75.001 75zm255 75c0 8.271-6.729 15-15 15h-180c-8.271 0-15-6.729-15-15v-15h210zm-273.3-192.252c-1.566-6.241-11.274-29.76-11.501-62.85-.656-95.443 78.712-181.883 179.471-181.883h.304c99.267.171 180.026 81.81 180.026 181.985 0 32.974-9.852 56.764-11.394 62.915 3.099 3.293 26.394 14.226 26.394 42.085 0 24.813-20.187 45-45 45h-45v60h-30v-30h-30v30h-30v-30h-30v30h-30v-30h-30v30h-30v-60h-45c-24.813 0-45-20.187-45-45 0-28.055 23.412-38.794 26.7-42.252z"/></g></svg>