<svg id="Capa_1" enable-background="new 0 0 512 512" height="512" viewBox="0 0 512 512" width="512" xmlns="http://www.w3.org/2000/svg"><g><g><path d="m214.37 348.16v53.68c0 30.33-24.59 54.91-54.91 54.91h-97.05c-30.33 0-54.91-24.58-54.91-54.91v-153.09c0-30.33 24.58-54.91 54.91-54.91h60.16z" fill="#fad989"/><path d="m504.5 248.75v153.09c0 30.33-24.58 54.91-54.91 54.91h-97.05c-30.32 0-54.91-24.58-54.91-54.91v-53.68l91.8-154.32h60.16c30.33 0 54.91 24.58 54.91 54.91z" fill="#fad989"/><path d="m389.43 193.84v69.41c0 46.82-38.09 84.91-84.9 84.91h-6.9v-99.41c0-30.33 24.59-54.91 54.91-54.91z" fill="#fdc072"/><path d="m214.37 248.75v99.41h-6.9c-46.81 0-84.9-38.09-84.9-84.91v-69.41h36.89c30.32 0 54.91 24.58 54.91 54.91z" fill="#fdc072"/><path d="m359.43 110.16v153.09c0 23.57-14.85 43.67-35.7 51.46-101.494-46.637-115.8-207.823-45.57-259.46h26.37c30.32 0 54.9 24.58 54.9 54.91z" fill="#fbf198"/><path d="m323.73 314.71c-5.98 2.23-12.45 3.45-19.2 3.45h-97.06c-30.32 0-54.9-24.58-54.9-54.91v-153.09c0-30.33 24.58-54.91 54.9-54.91h70.69c-46.47 74.63-38.38 190.21 45.57 259.46z" fill="#fad989"/></g><g><path d="m213.233 264.114 42.767-42.767 42.767 42.767c2.929 2.929 7.678 2.929 10.606 0 2.929-2.929 2.929-7.678 0-10.606l-42.767-42.767 42.767-42.768c2.929-2.929 2.929-7.678 0-10.606l-48.07-48.07c-2.929-2.929-7.678-2.929-10.606 0l-48.07 48.07c-2.929 2.929-2.929 7.678 0 10.606l42.767 42.768-42.767 42.767c-2.929 2.929-2.929 7.678 0 10.606 2.928 2.928 7.677 2.928 10.606 0zm42.767-138.908 37.464 37.464-37.464 37.464-37.464-37.464z"/><path d="m493.545 204.446c-11.915-11.819-27.731-18.276-44.472-18.107-4.142.035-7.471 3.421-7.436 7.563.035 4.12 3.386 7.436 7.498 7.436h.065c12.745-.083 24.728 4.777 33.779 13.757 9.047 8.975 14.026 20.924 14.02 33.65v153.1c0 26.141-21.267 47.407-47.407 47.407h-97.052c-26.141 0-47.407-21.267-47.407-47.407v-76.199c29.653-.286 54.417-21.349 60.408-49.305l28.025 28.025v93.035c0 4.142 3.358 7.5 7.5 7.5s7.5-3.358 7.5-7.5v-93.035l45.874-45.874c2.929-2.929 2.929-7.678 0-10.606-2.929-2.929-7.678-2.929-10.606 0l-35.267 35.267v-29.964c0-4.142-3.358-7.5-7.5-7.5s-7.5 3.358-7.5 7.5v29.964l-26.634-26.634v-55.181h47.204c4.142 0 7.5-3.358 7.5-7.5s-3.358-7.5-7.5-7.5h-47.204v-76.184c0-34.411-27.996-62.407-62.407-62.407h-97.052c-34.412 0-62.407 27.996-62.407 62.407v76.184h-82.66c-34.411 0-62.407 27.996-62.407 62.407v153.1c0 34.412 27.996 62.407 62.407 62.407h97.052c34.411 0 62.407-27.996 62.407-62.407v-11.062c0-4.142-3.358-7.5-7.5-7.5s-7.5 3.358-7.5 7.5v11.062c0 26.141-21.267 47.407-47.407 47.407h-97.052c-26.14 0-47.407-21.267-47.407-47.407v-153.1c0-26.14 21.267-47.407 47.407-47.407h82.66v57.233l-34.134 52.892-40.231-62.341c-2.247-3.48-6.889-4.481-10.369-2.235s-4.481 6.888-2.235 10.369l43.909 68.039-43.909 68.039c-2.246 3.48-1.245 8.123 2.235 10.369 3.431 2.227 8.108 1.274 10.369-2.235l40.231-62.341 40.231 62.341c2.26 3.508 6.938 4.462 10.369 2.235 3.48-2.246 4.481-6.888 2.235-10.369l-43.909-68.039 28.037-43.445c7.874 25.173 31.297 43.53 58.969 43.797v30.136c0 4.142 3.358 7.5 7.5 7.5s7.5-3.358 7.5-7.5v-30.121h68.268v76.183c0 34.412 27.996 62.407 62.407 62.407h97.052c34.412 0 62.407-27.996 62.407-62.407v-153.096c.01-16.755-6.544-32.489-18.454-44.303zm-333.478 58.809v-153.1c0-26.14 21.267-47.407 47.407-47.407h97.052c26.141 0 47.407 21.267 47.407 47.407v153.1c0 26.14-21.267 47.407-47.407 47.407h-97.052c-26.141 0-47.407-21.267-47.407-47.407z"/></g></g></svg>