<svg id="Capa_1" enable-background="new 0 0 511.913 511.913" height="512" viewBox="0 0 511.913 511.913" width="512" xmlns="http://www.w3.org/2000/svg"><g><path d="m335.064 120.963-79.116-120.789-79.012 120.789h-176.936l88.526 135.156-88.206 134.844h176.529l79.108 120.776 79.108-120.776h176.849l-88.424-135 88.424-135zm-79.099-66.011 43.237 66.011h-86.417zm-200.453 96.011h101.8l-50.867 77.762zm.281 210 50.67-77.461 50.736 77.461zm200.164 96.024-43.245-66.024h86.491zm62.895-96.024h-125.791l-68.679-104.855 68.779-105.145h125.691l68.775 105zm137.549 0h-101.687l50.843-77.624zm-50.844-132.376-50.843-77.624h101.687z"/><path d="m255.957 180.963c-44.602 0-82.56 37.505-108.069 75 25.399 37.333 63.502 75 108.069 75 44.602 0 82.56-37.505 108.069-75-25.399-37.333-63.503-75-108.069-75zm0 120c-30.938 0-59.132-30.076-71.264-45.071 14.109-17.484 42.383-44.929 71.264-44.929 30.933 0 59.123 30.066 71.264 45.072-14.11 17.484-42.383 44.928-71.264 44.928z"/><circle cx="255.957" cy="255.963" r="15"/></g></svg>