<svg id="Capa_1" enable-background="new 0 0 512 512" height="512" viewBox="0 0 512 512" width="512" xmlns="http://www.w3.org/2000/svg"><g><path d="m484.362 381.185-209.44-362.76c-3.902-6.76-11.116-10.925-18.922-10.925s-15.02 4.165-18.922 10.925l-209.44 362.76c-3.903 6.76-3.903 15.089 0 21.85 3.903 6.76 11.116 10.925 18.922 10.925h85.59l-33.351 57.766c-3.903 6.76-3.903 15.089 0 21.85 3.902 6.76 11.116 10.925 18.922 10.925h276.558c7.806 0 15.02-4.165 18.922-10.925 3.903-6.76 3.903-15.089 0-21.85l-33.351-57.766h85.59c7.806 0 15.019-4.165 18.922-10.925s3.903-15.09 0-21.85zm-127.927 79.616h-200.87l27.044-46.841h146.782zm-148.596-90.541 48.161-83.416 48.161 83.417h-96.322zm146.781 0-79.698-138.04c-3.902-6.76-11.116-10.925-18.922-10.925s-15.02 4.165-18.922 10.925l-79.698 138.04h-72.976l171.596-297.211 171.596 297.211z" fill="#fcc16d"/><g><path d="m119.764 435.414h50.458l12.387-21.454h-50.459z" fill="#fca62f"/></g><path d="m484.36 403.03c-3.9 6.76-11.11 10.93-18.92 10.93h-30.41c7.81 0 15.02-4.17 18.92-10.93 3.91-6.76 3.91-15.08 0-21.84l-209.44-362.77c-1.02-1.78-2.28-3.37-3.71-4.76 4.02-3.9 9.45-6.16 15.2-6.16 7.81 0 15.02 4.16 18.92 10.92l209.44 362.77c3.91 6.76 3.91 15.08 0 21.84z" fill="#fca62f"/><path d="m413.2 471.73c4.601 7.975 3.774 18.136-2.482 25.326-4.225 4.856-10.493 7.444-16.929 7.444h-29.919c7.81 0 15.02-4.16 18.92-10.92 3.91-6.76 3.91-15.09 0-21.85l-138.28-239.51c-1.02-1.78-2.28-3.37-3.71-4.76 4.02-3.91 9.45-6.17 15.2-6.17 7.81 0 15.02 4.17 18.92 10.93z" fill="#fca62f"/><path d="m490.857 377.436-209.44-362.761c-5.226-9.052-14.965-14.675-25.417-14.675-10.453 0-20.192 5.623-25.417 14.675l-94.715 164.051c-2.071 3.587-.842 8.174 2.745 10.245 3.588 2.071 8.174.841 10.245-2.745l94.715-164.052c2.554-4.425 7.316-7.174 12.427-7.174s9.872 2.75 12.428 7.175l209.439 362.761c2.556 4.425 2.556 9.923 0 14.349-2.556 4.425-7.317 7.175-12.428 7.175h-81.259l-16.57-28.699h59.985c2.68 0 5.155-1.43 6.495-3.75s1.34-5.18 0-7.5l-171.595-297.212c-1.34-2.32-3.815-3.75-6.495-3.75s-5.155 1.43-6.495 3.75l-171.596 297.212c-1.34 2.32-1.34 5.18 0 7.5s3.815 3.75 6.495 3.75h152.222c4.143 0 7.5-3.358 7.5-7.5s-3.357-7.5-7.5-7.5h-15.796l35.17-60.917 35.171 60.917h-25.444c-4.143 0-7.5 3.358-7.5 7.5s3.357 7.5 7.5 7.5h34.105l16.569 28.699h-269.841c-5.109 0-9.871-2.75-12.427-7.175-2.556-4.426-2.556-9.924 0-14.349l100.164-173.489c2.071-3.587.842-8.174-2.745-10.245-3.59-2.073-8.176-.843-10.245 2.745l-100.164 173.488c-5.227 9.052-5.227 20.298 0 29.35s14.966 14.675 25.417 14.675h72.6l-26.855 46.516c-5.227 9.052-5.227 20.298 0 29.349 5.224 9.052 14.963 14.675 25.416 14.675h181.974c4.143 0 7.5-3.358 7.5-7.5s-3.357-7.5-7.5-7.5h-181.974c-5.11 0-9.872-2.749-12.427-7.175-2.556-4.426-2.556-9.924 0-14.35l31.186-54.016h33.139l-20.549 35.591c-1.34 2.32-1.34 5.18 0 7.5s3.815 3.75 6.495 3.75h200.87c2.68 0 5.155-1.43 6.495-3.75 1.34-2.321 1.34-5.18 0-7.5l-100.435-173.956c-1.34-2.32-3.815-3.75-6.495-3.75s-5.155 1.43-6.495 3.75l-45.995 79.666h-33.139l73.202-126.791c2.555-4.425 7.316-7.174 12.427-7.174s9.872 2.75 12.428 7.175l138.278 239.506c2.556 4.425 2.556 9.923 0 14.35-2.555 4.425-7.316 7.174-12.427 7.174h-65.483c-4.143 0-7.5 3.358-7.5 7.5s3.357 7.5 7.5 7.5h65.483c10.453 0 20.192-5.623 25.417-14.675 5.227-9.052 5.227-20.298 0-29.35l-26.856-46.516h72.6c10.452 0 20.191-5.623 25.418-14.675s5.225-20.297-.001-29.348zm-322.302 75.865 18.384-31.841h138.121l18.385 31.841zm87.445-239.506c-10.453 0-20.192 5.623-25.417 14.675l-77.533 134.291h-55.656l158.606-274.712 158.605 274.712h-55.655l-77.533-134.291c-5.226-9.052-14.965-14.675-25.417-14.675z"/></g></svg>