<svg id="Capa_1" enable-background="new 0 0 512 512" height="512" viewBox="0 0 512 512" width="512" xmlns="http://www.w3.org/2000/svg"><g><g><path d="m267.982 493.506c-3.61-3.609-5.806-8.622-5.709-14.129.485-27.653-4.777-55.987-46.197-75.902-9.703-4.667-13.788-16.314-9.122-26.018 4.665-9.704 16.314-13.788 26.018-9.122 26.476 12.729 45.479 30.351 56.481 52.373 8.467 16.948 12.218 35.808 11.806 59.353-.189 10.765-9.069 19.34-19.834 19.151-5.26-.092-9.996-2.259-13.443-5.706z" fill="#fb695b"/><path d="m182.991 498.798c-.143-.143-.284-.288-.424-.436-7.376-7.843-6.998-20.181.844-27.558 20.146-18.948 36.771-42.488 22.133-86.055-3.43-10.206 2.064-21.26 12.271-24.689 10.207-3.43 20.405 2.065 23.835 12.271.934 2.778 2.634 5.538 3.394 8.277 6.857 24.714 6.647 47.797-.642 68.726-6.232 17.892-17.124 33.739-34.277 49.873-7.694 7.236-19.716 7.009-27.134-.409z" fill="#fd7a6e"/><path d="m374.848 282.743c-4.755 5.786-.13 14.775 7.618 13.924l28.539-3.133c23.644-3.373 45.546 13.043 48.949 36.677 3.413 23.684-13.043 45.646-36.727 49.019 0 0-47.458 4.865-76.857 7.868-154.946-72.082-169.096-295.771-69.89-374.086 2.242 1.411 4.354 3.083 6.306 5.035 13.924 13.924 14.064 36.387.45 50.491l45.476-45.476c14.074-14.074 36.887-14.074 50.961 0 14.064 14.064 14.064 36.887 0 50.951l29.349-29.239c14.074-14.064 36.887-14.064 50.961 0 14.074 14.074 14.074 36.887 0 50.961l-28.449 28.449c14.124-13.233 36.296-12.963 50.09.831 14.064 14.064 14.064 36.877 0 50.951z" fill="#ffddcf"/><path d="m346.37 387.097c-13.243 1.361-22.863 2.342-22.923 2.342-14.324 2.843-50.461.591-86.767-18.499l-67.828 67.838c-11.762 11.752-30.821 11.752-42.573 0l-97.639-97.637c-11.752-11.762-11.752-30.821 0-42.573l68.249-68.249c-12.553-33.023-5.536-71.792 21.061-98.389l113.884-113.883c12.112-12.112 30.731-13.794 44.645-5.035-66.767 108.088-53.934 275.617 69.891 374.085z" fill="#ffcbbe"/><path d="m240.433 400.911c-8.278 8.278-21.692 8.278-29.97 0l-53.123-53.123c-21.574-32.773-18.891-58.839 1.101-58.839l81.992 81.992c8.278 8.279 8.278 21.702 0 29.97z" fill="#ff938a"/><path d="m157.34 347.788-90.841-90.841c-8.278-8.268-8.278-21.692 0-29.97s21.692-8.278 29.97 0l61.972 61.972c-9.88 16.637-11.061 39.58-1.101 58.839z" fill="#fd7a6e"/></g><path d="m455.685 191.271c-2.929 2.928-2.929 7.677 0 10.605 2.928 2.929 7.677 2.929 10.605 0l20.621-20.621c16.971-16.971 16.971-44.585 0-61.557-7.702-7.703-17.598-11.897-27.695-12.608l6.06-6.06c8.221-8.221 12.749-19.152 12.749-30.778 0-11.627-4.527-22.557-12.749-30.779-8.221-8.221-19.152-12.749-30.778-12.749-11.627 0-22.557 4.527-30.779 12.749l-6.131 6.131c-.68-10.149-4.878-20.105-12.619-27.846-16.971-16.972-44.586-16.971-61.557 0l-22.705 22.705c-.707-10.103-4.902-20.006-12.609-27.714-8.219-8.222-19.15-12.749-30.777-12.749s-22.557 4.527-30.778 12.749l-113.867 113.866c-23.078 23.078-33.184 55.279-27.998 86.814-8.64-.976-17.32 2.053-23.45 8.226-10.018 10.019-11.057 25.661-3.13 36.854l-34.725 34.725c-7.102 7.101-11.013 16.543-11.013 26.587 0 10.043 3.911 19.485 11.013 26.586l97.627 97.627c7.101 7.102 16.543 11.013 26.586 11.013s19.485-3.911 26.587-11.013l29.467-29.467c.349 21.591-9.938 36.236-25.346 50.727-11.073 10.377-11.338 28.049-.586 38.757 10.388 10.385 26.892 10.615 37.572.568 18.284-17.23 29.828-34.094 36.452-53.578 2.812 9.551 3.21 19.284 3.055 28.158-.58 14.685 12.315 27.77 26.996 27.466 14.665 0 26.722-11.798 26.981-26.519.434-24.798-3.568-44.762-12.594-62.83-4.073-8.154-9.185-15.744-15.279-22.75 16.774 3.268 30.291 4.382 44.43 2.184l98.666-10.094c.098-.01.196-.022.294-.036 13.44-1.917 25.325-8.956 33.465-19.82 8.141-10.865 11.559-24.248 9.624-37.686-3.979-27.635-29.669-46.92-57.304-43.05l-28.422 3.117c-.558.29-1.594-.875-1.111-1.547l60.986-60.986c2.929-2.928 2.929-7.677 0-10.605-2.928-2.928-7.677-2.928-10.605 0l-61.367 61.367c-.173.172-.337.353-.492.542-4.141 5.041-4.793 12.038-1.66 17.826 3.12 5.765 9.357 9.029 15.884 8.312l28.537-3.129c.081-.009.161-.019.242-.03 19.507-2.78 37.658 10.821 40.467 30.322 1.363 9.468-1.045 18.899-6.782 26.554-5.708 7.617-14.028 12.566-23.441 13.945-33.534 3.438-96.984 9.938-99.459 10.172-12.852 2.491-42.078.946-74.25-13.556l-106.816-106.739c-2.928-2.929-7.677-2.928-10.605 0-2.929 2.928-2.929 7.677 0 10.605l103.975 103.976c5.297 5.066 5.301 14.264 0 19.363-5.443 5.691-15.21 5.145-20.212-.849l-143.101-143.1c-5.338-5.338-5.338-14.025 0-19.364 4.779-4.977 13.277-5.347 18.458-.822l16.109 16.025c2.928 2.928 7.677 2.928 10.605 0 2.929-2.928 2.929-7.677 0-10.605l-15.017-15.017c-9.039-30.088-.976-62.352 21.292-84.621l113.867-113.866c5.388-5.388 12.552-8.356 20.173-8.356 7.62 0 14.785 2.967 20.173 8.356 10.969 10.969 11.113 28.715.45 39.873l-39.172 39.172c-2.929 2.928-2.929 7.677 0 10.605 2.928 2.929 7.677 2.929 10.605 0l84.642-84.642c11.124-11.122 29.222-11.123 40.346 0 11.123 11.123 11.123 29.223 0 40.346l-84.582 84.701c-2.929 2.928-2.929 7.677 0 10.605 2.928 2.928 7.677 2.928 10.605 0l113.937-113.936c5.389-5.388 12.553-8.356 20.173-8.356s14.784 2.967 20.173 8.356c5.388 5.389 8.356 12.553 8.356 20.173s-2.967 14.784-8.356 20.173l-113.937 113.937c-2.929 2.928-2.929 7.677 0 10.605 2.928 2.929 7.677 2.929 10.605 0l85.486-85.486c11.178-10.288 28.64-10.016 39.48.823 11.123 11.123 11.123 29.223 0 40.346zm-172.933 232.748c7.905 15.823 11.405 33.574 11.015 55.863-.116 6.613-5.577 11.888-12.203 11.782-6.445.017-12.033-5.757-11.782-12.201.268-15.245-1.011-34.769-12.853-52.359 1.191-11.676.581-23.844-1.825-36.409 12.048 9.501 21.323 20.663 27.648 33.324zm-64.157-10.263c8.087 2.027 17.09.28 23.736-4.653.767 13.298-.891 25.928-4.997 37.72-5.819 16.705-16.092 31.598-32.33 46.871-4.752 4.469-12.078 4.354-16.691-.248-4.775-4.763-4.666-12.614.256-17.226 15.538-14.615 30.645-33.314 30.026-62.464zm-150.187-144.347 129.589 129.589-34.43 34.43c-4.269 4.269-9.944 6.619-15.981 6.619s-11.712-2.351-15.981-6.619l-97.627-97.627c-4.269-4.269-6.619-9.944-6.619-15.981s2.351-11.713 6.619-15.981z"/></g></svg>