<svg id="Capa_1" enable-background="new 0 0 512 512" height="512" viewBox="0 0 512 512" width="512" xmlns="http://www.w3.org/2000/svg"><g><g><path d="m324.94 494.09c-21.78 6.77-44.94 10.41-68.94 10.41-7.38 0-14.68-.34-21.88-1.02-178.082-96.606-218.827-330.56-45.96-453.209 21.46-6.55 44.24-10.07 67.84-10.07 24 0 47.14 3.64 68.92 10.41z" fill="#f3f5fc"/><path d="m234.12 503.48c-117.95-11.03-210.27-110.3-210.27-231.13 0-104.61 69.19-193.06 164.31-222.08-132.8 128.841-105.77 333.99 45.96 453.21z" fill="#d7ddf5"/><path d="m488.15 272.35c0 87.98-48.95 164.55-121.11 203.92-120.61-10.663-191.88-102.754-190.803-203.92-1.068-101.167 79.763-203.919 190.793-203.919 72.16 39.36 121.12 115.929 121.12 203.919z" fill="#6a829a"/><path d="m367.04 476.27c-13.3 7.26-27.38 13.25-42.1 17.82-92.96-30.32-161.12-118.68-161.12-221.74s68.15-191.41 161.1-221.74c14.72 4.57 28.81 10.56 42.11 17.82-96.285 21.022-174.285 102.768-173.21 203.92-1.069 101.182 76.926 182.891 173.22 203.92z" fill="#5b778f"/><path d="m353.46 72.441-25.6 14-8.26 15.11c-31.794-17.616-31.794-71.485-7.25-90.39.57.63 1.07 1.34 1.51 2.13l14 25.6 25.6 14c7.72 4.23 7.72 15.33 0 19.55z" fill="#fbf198"/><path d="m319.6 101.551-5.74 10.49c-4.23 7.73-15.32 7.73-19.55 0l-14-25.6-25.6-14c-7.73-4.22-7.73-15.32 0-19.55l25.6-14 14-25.6c3.8-6.93 13.11-7.64 18.04-2.13-13.72 26.54-12.76 62.66 7.25 90.39z" fill="#fad989"/><g fill="#ffa1ac"><ellipse cx="246.43" cy="277.912" rx="29.355" ry="23.377"/><ellipse cx="405.543" cy="277.912" rx="29.355" ry="23.377"/></g></g><g><path d="m428.146 105.64c-2.881-2.974-7.629-3.051-10.605-.168-2.975 2.882-3.05 7.63-.168 10.605 40.807 42.121 63.279 97.619 63.279 156.271 0 99.468-64.987 184.03-154.726 213.495-92.575-30.322-154.603-115.802-154.603-213.495 0-73.671 35.909-142.222 96.26-184.319l7.201 3.938 12.947 23.672c3.271 5.981 9.537 9.696 16.354 9.696s13.083-3.715 16.354-9.696l12.947-23.672 23.672-12.947c2.117-1.158 3.943-2.697 5.428-4.497 10.302 5.56 20.219 11.94 29.55 19.051 3.266 2.496 7.987 1.894 10.511-1.419 2.511-3.294 1.876-8-1.419-10.511-10.886-8.296-22.52-15.669-34.627-21.974-.914-5.616-4.353-10.572-9.443-13.356l-23.672-12.947-12.948-23.671c-3.271-5.981-9.538-9.696-16.354-9.696s-13.083 3.715-16.354 9.696l-12.947 23.672-.138.076c-6.284-.486-12.546-.746-18.645-.746-64.013 0-124.195 24.928-169.459 70.192s-70.192 105.445-70.192 169.459c0 57.477 20.661 113.064 58.176 156.522 2.716 3.146 7.457 3.474 10.578.776 3.135-2.707 3.483-7.443.776-10.578-35.165-40.735-54.531-92.841-54.531-146.721 0-121.46 96.893-220.703 217.442-224.524-4.603 3.491-7.375 8.96-7.375 14.843 0 6.817 3.715 13.083 9.695 16.354l1.866 1.021c-60.742 45.19-96.655 116.192-96.655 192.306 0 51.973 16.361 101.415 47.314 142.982 25.474 34.21 58.826 60.548 97.394 77.133-14.551 2.974-29.611 4.537-45.029 4.537-53.574 0-105.458-19.178-146.094-54.001-3.146-2.695-7.879-2.331-10.575.814-2.695 3.146-2.331 7.88.814 10.575 43.354 37.152 98.704 57.612 155.855 57.612 64.014 0 124.195-24.928 169.459-70.192 45.265-45.264 70.192-105.446 70.192-169.459 0-62.569-23.973-121.774-67.505-166.709zm-141.256-63.147 14.001-25.6c.935-1.708 2.545-1.893 3.193-1.893s2.259.185 3.193 1.893l14.001 25.6c.688 1.259 1.723 2.293 2.981 2.981l25.6 14.001c1.708.935 1.893 2.544 1.893 3.193-.072 1.211-.354 2.275-1.893 3.193l-25.6 14.001c-1.259.688-2.293 1.723-2.981 2.981l-14.001 25.6c-.935 1.708-2.545 1.893-3.193 1.893s-2.259-.185-3.193-1.893l-14.001-25.6c-.688-1.259-1.723-2.293-2.981-2.981l-25.6-14.001c-1.708-.935-1.893-2.544-1.893-3.193 0-.648.184-2.258 1.893-3.193l25.6-14.001c1.258-.688 2.292-1.723 2.981-2.981z"/><path d="m256.038 243.409v12c0 4.142 3.357 7.5 7.5 7.5s7.5-3.358 7.5-7.5v-12c0-4.142-3.357-7.5-7.5-7.5s-7.5 3.358-7.5 7.5z"/><path d="m380.936 243.409v12c0 4.142 3.357 7.5 7.5 7.5s7.5-3.358 7.5-7.5v-12c0-4.142-3.357-7.5-7.5-7.5s-7.5 3.358-7.5 7.5z"/><path d="m336.797 250.124c-2.729 3.132-6.67 4.928-10.811 4.928s-8.08-1.796-10.81-4.928c-2.721-3.123-7.459-3.448-10.581-.727-3.123 2.721-3.449 7.458-.728 10.582 5.578 6.402 13.641 10.074 22.118 10.074 8.479 0 16.541-3.672 22.119-10.074 2.722-3.123 2.396-7.86-.728-10.582-3.12-2.721-7.858-2.397-10.579.727z"/></g></g></svg>