<svg id="Capa_1" enable-background="new 0 0 512 512" height="512" viewBox="0 0 512 512" width="512" xmlns="http://www.w3.org/2000/svg"><g><g><path d="m100.651 400.495v-218.816l89.422-106.458h178.752l65.252 175.356-84.835 212.067z" fill="#fc7d4b"/><path d="m264.728 342.21 53.59 112.703 30.924 7.731-58.215-113.864z" fill="#fb6a3b"/><path d="m272.947 171.56 65.098-96.339h30.78l-66.948 96.339z" fill="#fb6a3b"/><path d="m330.814 249.323-39.785 99.462 58.213 113.859 84.835-212.067z" fill="#fb5532"/><path d="m434.077 250.58-84.839 212.06-14.051-27.48 73.97-184.88z" fill="#ec462e"/><path d="m368.825 75.221-66.945 96.341 28.934 77.761 103.263 1.254z" fill="#ec462e"/><path d="m409.157 250.28-56.715-151.482 16.383-23.577 65.252 175.356z" fill="#d53e2d"/><path d="m190.073 75.221 44.896 96.341-37.977 45.21-96.341-35.093z" fill="#fb946d"/><path d="m190.073 75.221 44.896 96.341-37.977 45.21-18.925-6.894 37.021-43.22-37.021-77.143z" fill="#fc7d4b"/><path d="m196.992 216.772v108.504l-96.341 75.219v-218.816z" fill="#fb6a3b"/><path d="m196.992 216.772v108.504l-96.341 75.219v-27.172l77.457-62.274-.041-101.171z" fill="#fb5532"/><path d="m196.992 216.772 37.977-45.21h66.911l28.934 77.761-39.785 99.462-94.037-23.509z" fill="#fcac8d"/><path d="m330.817 249.32-39.79 99.46-26.299-6.57 37.149-92.89-28.93-77.76h28.93z" fill="#fb946d"/></g><g><path d="m441.107 247.962-65.252-175.357c-1.093-2.937-3.896-4.885-7.029-4.885h-93.649c-4.142 0-7.5 3.357-7.5 7.5s3.358 7.5 7.5 7.5h79.305l-56.523 81.341h-58.21l-37.906-81.341h44.232c4.142 0 7.5-3.357 7.5-7.5s-3.358-7.5-7.5-7.5h-56.001c-2.216 0-4.318.979-5.743 2.676l-89.422 106.459c-1.135 1.352-1.757 3.06-1.757 4.824v123.048c0 4.143 3.358 7.5 7.5 7.5s7.5-3.357 7.5-7.5v-112.333l81.341 29.628v99.595l-81.341 63.507v-51.296c0-4.143-3.358-7.5-7.5-7.5s-7.5 3.357-7.5 7.5v66.667c0 3.441 2.342 6.441 5.681 7.276l248.59 62.149c.608.151 1.219.225 1.822.225 3.004 0 5.8-1.815 6.96-4.715l84.835-212.067c.692-1.73.716-3.655.067-5.401zm-17.872-5.017-87.186-1.059-25.773-69.265 56.523-81.341zm-234.988-153.888 37.905 81.341-31.526 37.531-81.341-29.629zm97.657 266.178 49.148 96.131-217.671-54.419 81.342-63.508zm62.504 89.302-49.149-96.132 19.523-48.809c1.539-3.846-.332-8.21-4.178-9.749-3.845-1.539-8.21.333-9.749 4.179l-18.358 45.895-82.005-20.501v-99.916l33.972-40.442h58.204l26.107 70.164-7.151 17.878c-1.539 3.846.332 8.21 4.178 9.749 3.845 1.536 8.21-.333 9.749-4.179l6.316-15.79 87.186 1.059z"/><path d="m99.739 95.938v4.347c0 4.143 3.358 7.5 7.5 7.5s7.5-3.357 7.5-7.5v-4.347c0-9.654 7.854-17.509 17.509-17.509h4.362c4.142 0 7.5-3.357 7.5-7.5s-3.358-7.5-7.5-7.5h-4.362c-9.655 0-17.509-7.854-17.509-17.51v-4.322c0-4.143-3.358-7.5-7.5-7.5s-7.5 3.357-7.5 7.5v4.322c0 9.655-7.854 17.51-17.509 17.51h-4.307c-4.142 0-7.5 3.357-7.5 7.5s3.358 7.5 7.5 7.5h4.307c9.654 0 17.509 7.854 17.509 17.509zm7.5-29.274c1.287 1.549 2.715 2.977 4.265 4.265-1.549 1.287-2.977 2.715-4.265 4.265-1.287-1.549-2.715-2.977-4.265-4.265 1.549-1.288 2.978-2.716 4.265-4.265z"/><path d="m133.301 30.953h2.342c3.365 0 6.103 2.737 6.103 6.102v2.364c0 4.143 3.358 7.5 7.5 7.5s7.5-3.357 7.5-7.5v-2.364c0-3.364 2.737-6.102 6.102-6.102h2.372c4.142 0 7.5-3.357 7.5-7.5s-3.358-7.5-7.5-7.5h-2.372c-3.365 0-6.102-2.737-6.102-6.103v-2.35c0-4.143-3.358-7.5-7.5-7.5s-7.5 3.357-7.5 7.5v2.351c0 3.365-2.738 6.103-6.103 6.103h-2.342c-4.142 0-7.5 3.357-7.5 7.5s3.358 7.499 7.5 7.499z"/><path d="m423.392 481.034h-2.372c-3.365 0-6.102-2.737-6.102-6.103v-2.351c0-4.143-3.358-7.5-7.5-7.5s-7.5 3.357-7.5 7.5v2.351c0 3.365-2.738 6.103-6.103 6.103h-2.342c-4.142 0-7.5 3.357-7.5 7.5s3.358 7.5 7.5 7.5h2.342c3.365 0 6.103 2.737 6.103 6.102v2.364c0 4.143 3.358 7.5 7.5 7.5s7.5-3.357 7.5-7.5v-2.364c0-3.364 2.737-6.102 6.102-6.102h2.372c4.142 0 7.5-3.357 7.5-7.5s-3.358-7.5-7.5-7.5z"/></g></g></svg>