<svg id="Capa_1" enable-background="new 0 0 512 512" height="512" viewBox="0 0 512 512" width="512" xmlns="http://www.w3.org/2000/svg"><g><path d="m507.106 266c0-30.071-25.341-56-60-56-12.035 0-22.181 2.448-30.419 5.753.276-6.869.419-13.79.419-20.753v-15h-360v15c0 90.398 23.54 173.698 62.844 227h-115.056l90 90h283.426l90-90h-114.058c11.443-15.518 21.547-33.582 30.126-53.621 49.657-16.616 122.718-49.893 122.718-102.379zm-93.221-13.646c2.272-2.304 13.326-12.354 33.221-12.354 18.778 0 30 13.219 30 26 0 17.291-21.459 42.472-79.354 65.572 7.494-24.626 12.958-51.291 16.133-79.218zm-17.991 199.646-30 30h-258.575l-30-30zm-80.899-30h-155.777c-41.618-42.127-69.072-123.39-71.874-212.01h299.525c-2.802 88.62-30.256 169.883-71.874 212.01z"/><path d="m192.106 90h210c24.813 0 45-20.187 45-45s-20.187-45-45-45h-345v30h345c8.271 0 15 6.729 15 15s-6.729 15-15 15h-210c-24.813 0-45 20.187-45 45s20.187 45 45 45h150v-30h-150c-8.271 0-15-6.729-15-15s6.729-15 15-15z"/></g></svg>