<svg id="Capa_1" enable-background="new 0 0 512 512" height="512" viewBox="0 0 512 512" width="512" xmlns="http://www.w3.org/2000/svg"><g><g><g><path d="m504.5 256c0 109.12-70.33 201.81-168.14 235.21-208.672-99.495-213.592-397.885-79.33-483.7 136.77.55 247.47 111.59 247.47 248.49z" fill="#6a829a"/><path d="m336.36 491.21c-25.21 8.62-52.24 13.29-80.36 13.29-137.24 0-248.5-111.26-248.5-248.5s111.26-248.5 248.5-248.5c.34 0 .69 0 1.03.01-90.5 136.71-77.85 354.42 79.33 483.7z" fill="#5b778f"/><path d="m409.41 256c0 82.63-65.32 150-147.15 153.28-101.392-76.706-113.332-206.635-49.85-300.41 13.82-4.09 28.45-6.28 43.59-6.28 84.73 0 153.41 68.68 153.41 153.41z" fill="#f3f5fc"/><path d="m262.26 409.28c-2.08.09-4.16.13-6.26.13-84.73 0-153.41-68.68-153.41-153.41 0-69.59 46.32-128.35 109.82-147.13-25.04 96.64-11.23 208.25 49.85 300.41z" fill="#d7ddf5"/></g></g><g><path d="m209.129 284.703c0 25.845 21.026 46.871 46.871 46.871s46.871-21.026 46.871-46.871c0-17.295-9.424-32.422-23.399-40.544 7.783-6.645 12.731-16.518 12.731-27.53 0-19.963-16.24-36.204-36.203-36.204s-36.203 16.241-36.203 36.204c0 11.012 4.948 20.884 12.731 27.53-13.976 8.122-23.399 23.249-23.399 40.544zm25.668-68.074c0-11.692 9.512-21.204 21.203-21.204s21.203 9.512 21.203 21.204c0 11.691-9.512 21.203-21.203 21.203s-21.203-9.511-21.203-21.203zm21.203 36.204c17.574 0 31.871 14.297 31.871 31.871s-14.297 31.87-31.871 31.87-31.871-14.297-31.871-31.871 14.297-31.87 31.871-31.87z"/><path d="m490.955 154.21c-13.484-31.076-32.738-58.813-57.225-82.441-2.982-2.877-7.729-2.791-10.605.189-2.876 2.981-2.791 7.729.189 10.605 47.517 45.85 73.686 107.444 73.686 173.437 0 132.888-108.112 241-241 241s-241-108.112-241-241 108.112-241 241-241c51.14 0 99.998 15.824 141.291 45.761 3.353 2.431 8.043 1.684 10.475-1.67 2.431-3.354 1.684-8.043-1.67-10.475-43.871-31.805-95.774-48.616-150.096-48.616-68.38 0-132.667 26.629-181.02 74.98-48.351 48.353-74.98 112.64-74.98 181.02s26.629 132.667 74.98 181.02c48.353 48.351 112.64 74.98 181.02 74.98s132.667-26.629 181.02-74.98c48.351-48.353 74.98-112.64 74.98-181.02 0-35.362-7.08-69.609-21.045-101.79z"/><path d="m159.473 375.463c-2.445 3.343-1.718 8.036 1.626 10.481 27.692 20.258 60.509 30.966 94.901 30.966 88.727 0 160.91-72.184 160.91-160.911s-72.183-160.91-160.91-160.91-160.91 72.184-160.91 160.911c0 38.561 13.854 75.862 39.008 105.032 2.706 3.138 7.442 3.485 10.577.782 3.138-2.705 3.487-7.441.782-10.578-22.807-26.448-35.367-60.27-35.367-95.236 0-80.456 65.455-145.911 145.91-145.911s145.91 65.455 145.91 145.911-65.455 145.911-145.91 145.911c-31.187 0-60.94-9.707-86.046-28.072-3.342-2.444-8.034-1.719-10.481 1.624z"/></g></g></svg>