<svg id="Capa_1" enable-background="new 0 0 512 512" height="512" viewBox="0 0 512 512" width="512" xmlns="http://www.w3.org/2000/svg"><g><g><path d="m364.83 127.907-97.979-120.407-77.639 112.929 6.325 253.996 28.193 29.776 97.016 100.299 53.894-104.558z" fill="#64b9fc"/><path d="m355.378 405.676-34.632 98.824 53.894-104.558z" fill="#31a7fb"/><path d="m297.828 161.877-41.056-120.232 10.079-34.145 61.536 157.799z" fill="#31a7fb"/><path d="m266.851 7.5-77.639 112.929 34.518 33.151z" fill="#1c96f9"/><path d="m266.846 7.5-43.12 146.08-15.03-14.44 24.35-82.46z" fill="#1785f8"/><path d="m266.851 7.5 97.979 120.407-36.443 37.392z" fill="#8dcafc"/><path d="m347.087 146.113-80.236-138.613 97.979 120.407z" fill="#64b9fc"/><path d="m223.73 153.58v250.621l111.075 7.599-6.418-246.501z" fill="#31a7fb"/><path d="m303.828 409.68 30.977 2.12-6.417-246.501-30.56-3.422z" fill="#1c96f9"/><path d="m189.212 120.429 6.325 253.996 28.193 29.776v-250.621z" fill="#1785f8"/><path d="m208.696 139.14-2.225 246.831 17.259 18.23v-250.621z" fill="#1576f7"/><path d="m364.83 127.907 9.81 272.035-39.835 11.858-6.418-246.501z" fill="#b5dbfd"/><path d="m355.378 405.676 19.262-5.734-9.81-272.035-17.743 18.206z" fill="#8dcafc"/><path d="m223.73 404.201 97.015 100.299 14.06-92.7z" fill="#1785f8"/><path d="m303.828 409.68-8.253 68.798 25.171 26.022 14.059-92.7z" fill="#1576f7"/></g><g><path d="m370.647 123.174-21.944-26.967c-2.614-3.213-7.338-3.696-10.551-1.084-3.213 2.614-3.698 7.338-1.083 10.551l17.727 21.784-23.651 24.268-39.938-102.411 27.639 33.966c2.614 3.213 7.338 3.699 10.551 1.084 3.213-2.614 3.698-7.338 1.083-10.551l-57.812-71.048c-1.491-1.833-3.752-2.852-6.12-2.761-2.361.096-4.539 1.298-5.877 3.245l-77.639 112.929c-.896 1.303-1.357 2.855-1.317 4.436l6.325 253.997c.046 1.854.777 3.624 2.051 4.97l65.125 67.958c1.471 1.521 3.43 2.286 5.392 2.286 1.877 0 3.757-.701 5.213-2.109 2.977-2.88 3.056-7.628.176-10.605l-23.308-24.096 83.479 5.711-10.566 69.668-29.355-30.348c-2.88-2.977-7.628-3.056-10.605-.176s-3.056 7.628-.176 10.604l39.889 41.238c1.423 1.472 3.374 2.286 5.39 2.286.364 0 .729-.026 1.095-.08 2.391-.353 4.465-1.836 5.572-3.983l53.895-104.558c.59-1.145.875-2.421.829-3.707l-9.811-272.035c-.059-1.63-.648-3.197-1.678-4.462zm-171.647-3.744 47.298-68.797-26.27 88.993zm68.834-88.768 49.059 125.804-83.437-9.343zm99.102 363.748-24.888 7.408-6.08-233.551 21.999-22.573zm-25.43 23.22 18.402-5.478-24.897 48.301zm-144.342-279.166 19.066 18.311v71.086c0 4.143 3.358 7.5 7.5 7.5s7.5-3.357 7.5-7.5v-65.895l89.831 10.06 6.033 231.729-95.864-6.558v-140.235c0-4.143-3.358-7.5-7.5-7.5s-7.5 3.357-7.5 7.5v128.41l-13.267-14.011z"/><path d="m185.371 402.168h-4.336c-9.749 0-17.679-7.931-17.679-17.679v-4.352c0-4.143-3.358-7.5-7.5-7.5s-7.5 3.357-7.5 7.5v4.352c0 9.748-7.931 17.679-17.679 17.679h-4.391c-4.142 0-7.5 3.357-7.5 7.5s3.358 7.5 7.5 7.5h4.391c9.749 0 17.679 7.931 17.679 17.68v4.376c0 4.143 3.358 7.5 7.5 7.5s7.5-3.357 7.5-7.5v-4.376c0-9.749 7.931-17.68 17.679-17.68h4.336c4.142 0 7.5-3.357 7.5-7.5s-3.357-7.5-7.5-7.5zm-29.515 11.871c-1.317-1.591-2.781-3.055-4.371-4.371 1.591-1.317 3.055-2.781 4.371-4.371 1.317 1.59 2.781 3.055 4.371 4.371-1.59 1.317-3.054 2.781-4.371 4.371z"/><path d="m121.063 377.944v-2.38c0-3.416 2.779-6.194 6.195-6.194h2.358c4.142 0 7.5-3.357 7.5-7.5s-3.358-7.5-7.5-7.5h-2.358c-3.416 0-6.195-2.778-6.195-6.194v-2.367c0-4.143-3.358-7.5-7.5-7.5s-7.5 3.357-7.5 7.5v2.367c0 3.416-2.779 6.194-6.194 6.194h-2.388c-4.142 0-7.5 3.357-7.5 7.5s3.358 7.5 7.5 7.5h2.388c3.416 0 6.194 2.778 6.194 6.194v2.38c0 4.143 3.358 7.5 7.5 7.5s7.5-3.357 7.5-7.5z"/><path d="m414.519 66.179h-2.358c-3.416 0-6.194-2.779-6.194-6.195v-2.366c0-4.143-3.358-7.5-7.5-7.5s-7.5 3.357-7.5 7.5v2.366c0 3.416-2.779 6.195-6.195 6.195h-2.388c-4.142 0-7.5 3.357-7.5 7.5s3.358 7.5 7.5 7.5h2.388c3.416 0 6.195 2.778 6.195 6.194v2.38c0 4.143 3.358 7.5 7.5 7.5s7.5-3.357 7.5-7.5v-2.38c0-3.416 2.779-6.194 6.194-6.194h2.358c4.142 0 7.5-3.357 7.5-7.5s-3.358-7.5-7.5-7.5z"/></g></g></svg>