<svg id="Capa_1" enable-background="new 0 0 512 512" height="512" viewBox="0 0 512 512" width="512" xmlns="http://www.w3.org/2000/svg"><g><g><path d="m496.432 173.22-56.03 68.8c-51.193-34.675-65.584-102.548-45.59-148.879l74.73 16.17s10.87 4.51 21.71 13.33c15.39 12.539 17.71 35.179 5.18 50.579z" fill="#f3f5fc"/><path d="m394.812 93.14-64.61-13.99-54.42 66.83c61.11 22.28 113.729 72.08 133.369 134.399l31.25-38.36c-36.449-43.579-50.439-98.159-45.589-148.879z" fill="#d7ddf5"/><path d="m491.252 122.64c-15.39-12.53-38.04-10.21-50.57 5.18-6.6 8.1-9.08 18.21-7.71 27.8.19 1.33-.13 2.67-.87 3.79-1.8 2.7-5.54 3.27-8.06 1.22l-28.67-23.35c-14.371-30.783-13.958-71.193 8.06-86.15z" fill="#d7ddf5"/><path d="m395.372 137.28-63.4-51.63c-15.39-12.53-17.71-35.17-5.17-50.57 12.53-15.39 35.17-17.71 50.57-5.17l26.06 21.22c-8.71 27-11.63 56.64-8.06 86.15z" fill="#c5cff1"/><path d="m428.312 329.539c0 52.85-19.48 101.149-51.66 138.099-35.69 40.99-102.749 23.13-113.989-30.05-10.39-49.21-26.58-80.84-44.75-80.84-11.6 0-22.39 12.88-31.38 35-76.394-79.536-64.026-217.647 9.58-271.499 7.16-.74 14.44-1.11 21.8-1.11 116.199.001 210.399 94.201 210.399 210.4z" fill="#fbf198"/><path d="m186.533 391.749c-5.1 12.53-9.62 28.03-13.38 45.84-11.23 53.17-78.29 71.04-113.979 30.06-32.69-37.54-52.28-86.79-51.66-140.619 1.27-108.19 83.3-196.03 188.599-206.78-49.209 74.78-56.549 182.289-9.58 271.499z" fill="#fad989"/><path d="m165.66 265.628c.007 13.438-13.667 24.338-30.541 24.346s-30.559-10.878-30.565-24.315c-.007-13.438 13.667-24.338 30.541-24.347 16.873-.008 30.558 10.879 30.565 24.316z" fill="#ffa1ac"/><path d="m270.161 265.576c.007 13.438 13.691 24.324 30.565 24.315 16.874-.008 30.548-10.908 30.541-24.346s-13.691-24.324-30.565-24.316c-16.874.009-30.547 10.909-30.541 24.347z" fill="#ffa1ac"/><path d="m247.854 254.587c-.009-18.509-13.419-20.241-29.959-20.233s-29.948 1.754-29.939 20.263 13.426 33.506 29.966 33.498c16.541-.008 29.942-15.019 29.932-33.528z" fill="#495560"/></g><g><path d="m217.931 295.617c20.65-.01 37.441-18.418 37.43-41.033-.015-27.75-25.27-27.735-37.465-27.731-12.156.006-37.45.019-37.437 27.768.012 22.61 16.811 40.996 37.455 40.996zm-22.472-41.004c-.005-9.722 3.09-12.751 22.444-12.76h.093c19.268 0 22.359 3.032 22.364 12.737.007 14.345-10.059 26.019-22.437 26.026-12.383 0-22.456-11.663-22.464-26.003z"/><path d="m138.362 246.664c4.142-.002 7.498-3.361 7.496-7.504-.002-3.884 3.155-7.045 7.039-7.047 3.885 0 7.044 3.157 7.046 7.039.002 4.142 3.36 7.497 7.5 7.497 4.146-.002 7.502-3.361 7.5-7.504-.006-12.152-9.893-22.033-22.044-22.033-12.166.006-22.049 9.899-22.043 22.054.002 4.141 3.36 7.497 7.5 7.497.003.001.005.001.006.001z"/><path d="m268.364 246.599c4.142-.002 7.498-3.361 7.496-7.504-.002-3.884 3.155-7.045 7.039-7.047 3.885 0 7.044 3.157 7.046 7.039.002 4.142 3.359 7.497 7.5 7.497 4.146-.002 7.502-3.361 7.5-7.504-.006-12.152-9.893-22.033-22.044-22.033-5.899.003-11.433 2.298-15.594 6.464s-6.451 9.703-6.448 15.59c.002 4.141 3.359 7.497 7.5 7.497.002.001.004.001.005.001z"/><path d="m496.006 116.822c-.02-.014-73.699-60.014-73.699-60.014-3.211-2.616-7.936-2.131-10.551 1.08-2.616 3.212-2.132 7.936 1.079 10.552l48.253 39.294c-9.95 1.734-19.346 6.916-26.208 15.344-6.609 8.115-10.041 18.379-9.735 28.76l-88.426-72.008c-5.892-4.799-9.563-11.604-10.336-19.163s1.442-14.967 6.24-20.859c9.905-12.163 27.858-13.999 40.022-4.096l13.046 10.624c3.212 2.618 7.937 2.131 10.551-1.08 2.616-3.212 2.132-7.936-1.08-10.552l-13.045-10.624c-18.579-15.129-45.999-12.321-61.125 6.255-7.328 8.999-10.713 20.314-9.532 31.859.726 7.101 3.133 13.762 6.967 19.546l-32.989 40.511c-21.521-6.985-44.241-10.621-67.522-10.621-51.78 0-101.913 18.351-141.164 51.673-3.158 2.681-3.545 7.414-.864 10.572 2.681 3.157 7.413 3.545 10.572.863 36.542-31.023 83.228-48.108 131.456-48.108 111.887 0 202.914 91.028 202.914 202.916 0 48.985-17.694 96.281-49.823 133.176-14.756 16.945-36.562 23.686-58.328 18.031-22.013-5.718-37.963-22.432-42.67-44.71-8.364-39.596-24.191-86.796-52.095-86.796s-43.731 47.201-52.095 86.797c-4.706 22.278-20.658 38.992-42.671 44.71-21.764 5.654-43.565-1.085-58.321-18.026-32.706-37.555-50.398-85.716-49.815-135.612.551-47.061 17.453-92.676 47.594-128.439 2.669-3.167 2.266-7.899-.902-10.568-3.167-2.67-7.9-2.266-10.569.902-32.375 38.416-50.53 87.4-51.121 137.93-.626 53.582 18.375 105.305 53.502 145.639 14.111 16.201 34.064 25.08 54.834 25.079 6.161 0 12.398-.782 18.57-2.386 27.228-7.073 47.756-28.58 53.575-56.128 10.929-51.739 26.668-74.898 37.418-74.898s26.489 23.159 37.418 74.897c5.82 27.548 26.348 49.056 53.574 56.128 26.985 7.01 55.115-1.688 73.412-22.699 34.507-39.626 53.511-90.421 53.511-143.027 0-20.53-2.832-40.623-8.289-59.844l74.718-91.755c15.131-18.576 12.325-45.997-6.251-61.125zm-5.377 51.653-68.656 84.311c-10.778-28.692-27.647-55.008-49.968-77.329-20.844-20.844-45.171-36.936-71.663-47.753l28.474-34.966 90.502 73.698c5.694 4.839 15.038 3.417 19.042-2.874 1.774-2.664 2.503-5.864 2.051-9.008-1.123-7.845 1.101-15.866 6.101-22.006 9.902-12.159 27.844-14 40.007-4.107 12.178 9.923 14.014 27.873 4.11 40.034z"/></g></g></svg>