<svg id="Capa_1" enable-background="new 0 0 512 512" height="512" viewBox="0 0 512 512" width="512" xmlns="http://www.w3.org/2000/svg"><g><path d="m481.794 424.498c-2.472-74.777-26.659-134.372-47.122-171.925-13.332-24.467-26.673-42.778-35.9-54.225 20.218-14.678 52.228-45.476 52.228-93.348v-15h-31.517c1.001-4.917 1.517-9.942 1.517-15 0-41.355-33.645-75-75-75-16.359 0-32.129 5.367-45.012 15.032-12.541-9.433-28.122-15.032-44.988-15.032s-32.447 5.599-44.988 15.032c-12.883-9.665-28.653-15.032-45.012-15.032-41.355 0-75 33.645-75 75 0 5.058.516 10.083 1.517 15h-31.517v15c0 47.872 32.01 78.67 52.229 93.347-9.228 11.447-22.568 29.759-35.9 54.225-20.463 37.553-44.65 97.148-47.122 171.925-17.569 6.133-30.207 22.869-30.207 42.503 0 24.813 20.187 45 45 45h422c24.813 0 45-20.187 45-45 0-19.634-12.638-36.37-30.206-42.502zm-135.794-394.498c24.813 0 45 20.187 45 45 0 5.136-.89 10.21-2.579 15h-58.938c1.001-4.917 1.517-9.942 1.517-15 0-13.609-3.662-26.371-10.025-37.386 7.341-4.911 16.035-7.614 25.025-7.614zm-90 0c24.813 0 45 20.187 45 45 0 5.136-.89 10.21-2.579 15h-84.842c-1.689-4.79-2.579-9.864-2.579-15 0-24.813 20.187-45 45-45zm-90 0c8.99 0 17.684 2.703 25.025 7.614-6.363 11.015-10.025 23.777-10.025 37.386 0 5.058.516 10.083 1.517 15h-58.938c-1.689-4.79-2.579-9.864-2.579-15 0-24.813 20.187-45 45-45zm-73.402 89.99h326.805c-7.337 33.936-37.85 54.396-47.305 60.01h-232.191c-9.505-5.646-39.978-26.102-47.309-60.01zm374.402 362.01h-422c-8.271 0-15-6.729-15-15s6.729-15 15-15h15v-15c0-73.851 23.464-132.724 43.148-169.109 15.987-29.552 32.155-49.517 39.471-57.891h89.199l-49.258 99.336 26.877 13.328 46.563-93.899 46.562 93.899 26.877-13.328-49.258-99.336h89.198c7.326 8.386 23.489 28.348 39.472 57.891 19.685 36.385 43.149 95.258 43.149 169.109v15h15c8.271 0 15 6.729 15 15s-6.729 15-15 15z"/></g></svg>