<svg id="Capa_1" enable-background="new 0 0 511.999 511.999" height="512" viewBox="0 0 511.999 511.999" width="512" xmlns="http://www.w3.org/2000/svg"><g><g><g><circle cx="239.642" cy="201.66" fill="#fcc16d" r="35.593"/><path d="m275.24 201.661c0 19.66-15.94 35.59-35.6 35.59-4.14 0-8.12-.71-11.82-2.01 13.84-4.88 23.76-18.07 23.76-33.58s-9.92-28.7-23.76-33.58c3.7-1.3 7.68-2.01 11.82-2.01 19.66 0 35.6 15.93 35.6 35.59z" fill="#fca62f"/></g><g><path d="m160.039 285.977h159.206v47.513h-159.206z" fill="#5bbd93"/><path d="m287.149 285.98h32.1v47.51h-32.1z" fill="#1ca56f"/></g><path d="m248.201 499.826 85.487-133.042h-188.093l85.487 133.042c4.005 6.232 13.115 6.232 17.119 0z" fill="#ffd597"/><path d="m145.595 366.784 13.799 21.476h108.131c8.753 0 14.041 9.682 9.309 17.046l-53.244 82.864 7.49 11.66c4.01 6.23 13.12 6.23 17.12 0l85.49-133.05z" fill="#fcc16d"/><path d="m145.595 366.784h188.094l-14.444-39.49h-159.206z" fill="#fcc16d"/><path d="m333.689 366.78h-32.099l-14.441-39.49h32.101z" fill="#fca62f"/><path d="m165.888 215.372-20.293 37.311h188.093l-20.293-37.311c-1.781-3.275-5.21-5.313-8.938-5.313h-129.632c-3.727 0-7.156 2.038-8.937 5.313z" fill="#ffd597"/><path d="m333.689 252.68h-32.1l-20.29-37.31c-1.78-3.27-5.21-5.31-8.94-5.31h32.1c3.73 0 7.16 2.04 8.94 5.31z" fill="#fcc16d"/><path d="m333.689 252.683h-188.094l14.444 39.49h159.206z" fill="#fcc16d"/><path d="m333.688 252.683.001-.003-188.094.003 7.365 20.137h120.662c10.006 0 16.964 9.952 13.527 19.35h32.1z" fill="#fca62f"/></g><g><path d="m438.238 132.584h-24.183c-17.232 0-31.253-14.02-31.253-31.253 0-17.232 14.021-31.253 31.253-31.253h23.646c19.316 0 35.031-15.775 35.031-35.166v-.691c0-9.142-3.56-17.735-10.024-24.199-6.463-6.463-15.058-10.023-24.199-10.022l-258.986.016s-85.068 0-130.519-.005c-.002 0-.003 0-.005 0-9.459 0-18.345 3.688-25.019 10.387-6.673 6.698-10.349 15.622-10.349 25.126v.699c0 9.229 3.594 17.904 10.119 24.429 6.526 6.525 15.202 10.119 24.43 10.118l235.021-.01c7.802 0 15.137 3.037 20.653 8.554s8.555 12.852 8.555 20.653c0 16.105-13.103 29.208-29.208 29.208h-18.608v-5.432c0-13.758-11.193-24.95-24.951-24.95s-24.95 11.192-24.95 24.95v5.431l-114.167-.001c-.001 0-.001 0-.002 0-16.534 0-32.065 6.447-43.731 18.153-11.673 11.712-18.102 27.32-18.102 43.948v1.363c0 16.083 6.263 31.203 17.636 42.574 11.373 11.372 26.493 17.634 42.576 17.633l39.205-.003c.017.815.157 1.631.444 2.417l13.987 38.241s.013 32.269.021 32.409c0 0-13.741 37.611-13.799 37.827-1.023 2.296-.848 4.964.525 7.102l85.487 133.041c3.267 5.084 8.826 8.12 14.87 8.119 6.043 0 11.602-3.035 14.868-8.119l22.953-35.72c2.239-3.485 1.229-8.125-2.255-10.364-3.484-2.24-8.125-1.23-10.364 2.255l-22.953 35.721c-.687 1.068-1.704 1.228-2.249 1.228-.545.001-1.563-.159-2.25-1.229l-78.063-121.486h103.198c4.143 0 7.5-3.357 7.5-7.5s-3.357-7.5-7.5-7.5h-106.203l8.958-24.49h148.721l8.958 24.49h-31.333c-4.143 0-7.5 3.357-7.5 7.5s3.357 7.5 7.5 7.5h28.327l-39.404 61.323c-2.239 3.485-1.229 8.125 2.255 10.364 1.255.807 2.659 1.191 4.048 1.191 2.467 0 4.884-1.217 6.316-3.446l46.829-72.878c1.396-2.172 1.554-4.891.474-7.211-.065-.259-13.749-37.72-13.749-37.72.008-.139.021-32.405.021-32.405l13.988-38.242c.287-.786.427-1.602.444-2.417h97.061c33.155 0 60.129-26.974 60.129-60.129s-26.974-60.129-60.129-60.129zm-208.545-8.841c0-5.486 4.464-9.95 9.95-9.95 5.487 0 9.951 4.464 9.951 9.95v5.431h-19.901zm38.013 78.816h-20.377c-4.142 0-7.5 3.357-7.5 7.5s3.358 7.5 7.5 7.5h57.13c.98 0 1.88.535 2.349 1.396l14.266 26.229h-162.863l14.266-26.229c.468-.861 1.368-1.396 2.349-1.396h43.402c4.142 0 7.5-3.357 7.5-7.5s-3.358-7.5-7.5-7.5h-6.645c-.01-.299-.034-.598-.034-.897 0-15.489 12.601-28.09 28.09-28.09 15.495 0 28.1 12.601 28.1 28.09.001.298-.024.597-.033.897zm46.296 82.114h-148.721l-8.957-24.489h166.635zm-146.463 15h16.993v20.121h-16.993zm31.993 0h16.706v20.121h-16.706zm31.706 0h16.706v20.121h-16.706zm31.705 0h16.707v20.121h-16.707zm31.707 0h17.095v20.121h-17.095zm-55.01-141.102c-3.424 0-6.751.413-9.946 1.172v-15.568h19.901v15.57c-3.199-.76-6.529-1.174-9.955-1.174zm-140.739 79.275c-12.076.001-23.429-4.701-31.968-13.239-8.54-8.539-13.242-19.892-13.242-31.968v-1.363c0-12.631 4.875-24.479 13.726-33.36 8.832-8.861 20.59-13.741 33.109-13.741l114.167.001v22.386c-10.97 7.819-18.144 20.634-18.144 35.101 0 .299.011.598.017.897h-21.741c-6.48 0-12.43 3.537-15.526 9.23l-14.173 26.059c-.033 0-.064-.005-.097-.005zm339.337-.003h-104.083l-14.171-26.055c-3.097-5.693-9.046-9.229-15.525-9.229h-21.736c.006-.299.017-.599.017-.897 0-14.466-7.175-27.28-18.146-35.099v-22.387h18.608c24.376 0 44.208-19.832 44.208-44.208 0-11.809-4.599-22.91-12.948-31.26s-19.451-12.948-31.26-12.947l-235.022.009c-5.221 0-10.13-2.032-13.822-5.725s-5.726-8.601-5.726-13.822v-.699c0-5.508 2.122-10.671 5.975-14.538 3.838-3.854 8.949-5.975 14.393-5.975h.002c45.452.005 130.521.005 130.521.005l258.986-.016c5.135 0 9.963 1.999 13.594 5.629 3.63 3.631 5.63 8.457 5.63 13.592v.691c0 11.119-8.986 20.166-20.031 20.166h-23.646c-25.504 0-46.253 20.749-46.253 46.253s20.749 46.253 46.253 46.253h24.183c24.884 0 45.129 20.245 45.129 45.13-.001 24.884-20.246 45.129-45.13 45.129z"/><path d="m187.784 382.074c-4.142 0-7.5 3.357-7.5 7.5s3.358 7.5 7.5 7.5h.104c4.142 0 7.5-3.357 7.5-7.5s-3.358-7.5-7.5-7.5z"/><path d="m213.687 382.074c-4.142 0-7.5 3.357-7.5 7.5s3.358 7.5 7.5 7.5h.104c4.142 0 7.5-3.357 7.5-7.5s-3.358-7.5-7.5-7.5z"/><path d="m239.591 382.074c-4.142 0-7.5 3.357-7.5 7.5s3.358 7.5 7.5 7.5h.103c4.142 0 7.5-3.357 7.5-7.5s-3.358-7.5-7.5-7.5z"/><path d="m265.494 382.074c-4.143 0-7.5 3.357-7.5 7.5s3.357 7.5 7.5 7.5h.104c4.143 0 7.5-3.357 7.5-7.5s-3.357-7.5-7.5-7.5z"/><path d="m291.501 397.074c4.143 0 7.5-3.357 7.5-7.5s-3.357-7.5-7.5-7.5h-.104c-4.143 0-7.5 3.357-7.5 7.5s3.357 7.5 7.5 7.5z"/></g></g></svg>