<svg id="Capa_1" enable-background="new 0 0 512 512" height="512" viewBox="0 0 512 512" width="512" xmlns="http://www.w3.org/2000/svg"><g><path d="m391 136v-136h-270v136c0 58.667 37.62 108.704 90 127.278v40.302c-17.459 6.192-30 22.865-30 42.42s12.541 36.228 30 42.42v39.31l-60 30v54.27h210v-54.271l-60-30v-39.31c17.459-6.192 30-22.865 30-42.42s-12.541-36.228-30-42.42v-40.302c52.38-18.573 90-68.61 90-127.277zm-240-106h210v30h-210zm180 446.271v5.729h-150v-5.729l60-30v-55.271h30v55.271zm-45-115.271h-60c-8.271 0-15-6.729-15-15s6.729-15 15-15h60c8.271 0 15 6.729 15 15s-6.729 15-15 15zm-45-60v-30.838c4.927.547 9.93.838 15 .838s10.073-.291 15-.838v30.838zm15-60c-57.897 0-105-47.103-105-105v-46h210v46c0 57.897-47.103 105-105 105z"/></g></svg>