<svg id="Capa_1" enable-background="new 0 0 512 512" height="512" viewBox="0 0 512 512" width="512" xmlns="http://www.w3.org/2000/svg"><g><g><path d="m399.07 367.94v101.61c0 19.3-15.65 34.95-34.95 34.95h-216.24c-19.3 0-34.95-15.65-34.95-34.95v-101.61z" fill="#fee7c9"/><path d="m112.93 367.94v38.56h17.72v4.94c0 30.348 24.602 54.95 54.95 54.95h140.8c7.989 0 15.585-1.714 22.44-4.792 5.863-2.633 12.5 1.525 12.5 7.952 0 19.3-15.65 34.95-34.95 34.95h37.73c19.302 0 34.95-15.648 34.95-34.95v-101.61z" fill="#ffd597"/></g><g><path d="m435.963 264.731c7.474-20.46 11.559-42.552 11.571-65.597.053-106.095-85.121-191.461-191.215-191.634-105.927-.173-191.852 85.646-191.852 191.534 0 23.235 4.142 45.501 11.722 66.105 4.625 12.569 1.501 26.77-8.038 36.171-9.153 9.02-14.828 21.557-14.828 35.425 0 27.483 22.279 49.763 49.763 49.763h47.566v24.942c0 19.303 15.648 34.95 34.95 34.95h140.797c19.303 0 34.95-15.648 34.95-34.95v-24.942h47.566c27.483 0 49.762-22.279 49.762-49.762 0-13.866-5.674-26.402-14.825-35.422-9.651-9.514-12.539-23.855-7.889-36.583z" fill="#fff2e3"/><path d="m458.68 336.73c0 27.49-22.28 49.77-49.77 49.77h-35.47c27.48 0 49.76-22.28 49.76-49.77 0-6.93-1.42-13.53-3.98-19.53-2.56-5.99-6.26-11.38-10.84-15.89-9.66-9.51-12.54-23.85-7.89-36.58 7.47-20.46 11.56-42.55 11.57-65.6.05-100.19-75.91-181.9-173.72-190.82 5.91-.55 11.91-.82 17.98-.81 106.09.17 191.27 85.54 191.21 191.63-.01 23.05-4.09 45.14-11.57 65.6-4.65 12.73-1.76 27.07 7.89 36.58 4.57 4.51 8.28 9.9 10.85 15.89 2.56 6 3.98 12.6 3.98 19.53z" fill="#fee7c9"/><g><g><g><path d="m301.178 360.907c-8.749-24.812-20.986-45.582-35.543-60.303-5.29-5.349-13.98-5.349-19.27 0-14.557 14.722-26.794 35.491-35.543 60.303-3.123 8.858 3.465 18.15 12.858 18.15h64.641c9.392-.001 15.98-9.293 12.857-18.15z" fill="#554e55"/></g><g><path d="m288.32 379.06h-26.29c9.39 0 15.98-9.3 12.85-18.15-8.03-22.79-19-42.17-32.02-56.58 1.15-1.28 2.32-2.53 3.51-3.73 5.28-5.35 13.98-5.35 19.26 0 14.56 14.72 26.8 35.49 35.55 60.31 3.12 8.85-3.47 18.15-12.86 18.15z" fill="#433f43"/></g></g><g><g><path d="m287.293 240.281c0 37.319 30.253 67.573 67.573 67.573 24.414 0 44.205-19.791 44.205-44.205v-23.368c0-11.984-9.715-21.7-21.7-21.7h-68.378c-11.985 0-21.7 9.715-21.7 21.7z" fill="#554e55"/><path d="m399.07 240.28v23.37c0 12.21-4.95 23.25-12.95 31.25s-19.04 12.95-31.25 12.95c-5 0-9.88-.54-14.57-1.58 7.5-2.05 14.19-6.03 19.53-11.37 8-8 12.95-19.04 12.95-31.25v-23.37c0-11.98-9.72-21.7-21.7-21.7h26.29c11.99 0 21.7 9.72 21.7 21.7z" fill="#433f43"/></g><g><path d="m224.707 240.281c0 37.319-30.253 67.573-67.573 67.573-24.414 0-44.205-19.791-44.205-44.205v-23.368c0-11.984 9.715-21.7 21.7-21.7h68.378c11.985 0 21.7 9.715 21.7 21.7z" fill="#554e55"/><path d="m224.71 240.28c0 37.32-30.26 67.57-67.58 67.57-4.06 0-8-.55-11.73-1.58 30.32-6.65 53.01-33.67 53.01-65.99 0-11.98-9.71-21.7-21.7-21.7h26.3c11.98 0 21.7 9.72 21.7 21.7z" fill="#433f43"/></g></g></g><g><path d="m449.116 295.972c-7.405-7.301-9.804-18.553-6.108-28.668 7.968-21.81 12.014-44.744 12.025-68.167.027-53.314-20.568-103.331-57.992-140.838-37.425-37.508-87.396-58.212-140.709-58.299-.114 0-.221 0-.335 0-53.102 0-103.033 20.655-140.619 58.18-37.667 37.605-58.411 87.629-58.411 140.854 0 23.61 4.1 46.723 12.184 68.695 3.62 9.838 1.161 20.923-6.265 28.239-11.004 10.844-17.063 25.322-17.063 40.767 0 31.575 25.688 57.263 57.263 57.263h2.345v27.296c0 4.143 3.357 7.5 7.5 7.5s7.5-3.357 7.5-7.5v-27.296h22.722v17.442c0 22.402 17.446 40.794 39.464 42.333v18.375c0 4.143 3.357 7.5 7.5 7.5s7.5-3.357 7.5-7.5v-18.258h28.923v18.258c0 4.143 3.357 7.5 7.5 7.5s7.5-3.357 7.5-7.5v-18.258h28.924v18.258c0 4.143 3.357 7.5 7.5 7.5s7.5-3.357 7.5-7.5v-18.258h28.923v18.258c0 4.143 3.357 7.5 7.5 7.5s7.5-3.357 7.5-7.5v-18.375c22.018-1.539 39.464-19.931 39.464-42.333v-17.442h22.722v75.553c0 15.136-12.314 27.45-27.45 27.45h-216.243c-15.136 0-27.45-12.314-27.45-27.45v-19.156c0-4.143-3.357-7.5-7.5-7.5s-7.5 3.357-7.5 7.5v19.156c0 23.407 19.043 42.45 42.45 42.45h216.24c23.407 0 42.45-19.043 42.45-42.45v-75.553h2.345c10.522 0 20.814-2.883 29.763-8.336 3.537-2.155 4.656-6.771 2.501-10.308-2.157-3.537-6.771-4.658-10.308-2.501-6.596 4.02-14.188 6.145-21.956 6.145h-47.566c-4.143 0-7.5 3.357-7.5 7.5v24.942c0 15.136-12.314 27.45-27.45 27.45h-140.797c-15.136 0-27.45-12.314-27.45-27.45v-24.942c0-4.143-3.357-7.5-7.5-7.5h-47.566c-23.304 0-42.263-18.959-42.263-42.263 0-11.396 4.472-22.08 12.592-30.083 11.609-11.439 15.462-28.75 9.814-44.103-7.473-20.309-11.262-41.678-11.262-63.516 0-49.214 19.181-95.467 54.009-130.238 34.755-34.698 80.919-53.795 130.022-53.795h.31c101.357.165 183.777 82.765 183.726 184.129-.011 21.664-3.751 42.87-11.115 63.028-5.705 15.618-1.909 33.084 9.669 44.497 8.119 8.001 12.591 18.684 12.591 30.08 0 6.129-1.294 12.054-3.847 17.609-1.729 3.764-.079 8.217 3.685 9.946 3.765 1.729 8.217.08 9.946-3.685 3.461-7.534 5.216-15.565 5.216-23.871-.001-15.443-6.061-29.92-17.063-40.761z"/><path d="m223.68 386.557h64.641c6.844 0 13.292-3.337 17.248-8.927 3.953-5.585 4.956-12.77 2.683-19.218-9.099-25.803-21.99-47.616-37.283-63.082-3.978-4.023-9.293-6.239-14.968-6.239s-10.99 2.216-14.968 6.239c-15.293 15.466-28.185 37.279-37.283 63.082-2.273 6.448-1.271 13.633 2.683 19.218 3.955 5.59 10.403 8.927 17.247 8.927zm-5.784-23.157c8.367-23.729 20.056-43.621 33.803-57.523 1.139-1.151 2.666-1.786 4.302-1.786s3.163.635 4.302 1.786c13.747 13.902 25.436 33.794 33.803 57.523.667 1.893.383 3.921-.779 5.564-1.166 1.646-2.99 2.592-5.005 2.592h-64.642c-2.015 0-3.839-.945-5.005-2.592-1.162-1.643-1.446-3.671-.779-5.564z"/><path d="m406.57 263.648v-23.368c0-16.101-13.099-29.199-29.199-29.199h-68.379c-16.101 0-29.199 13.099-29.199 29.199 0 41.396 33.678 75.073 75.072 75.073 28.511.001 51.705-23.194 51.705-51.705zm-111.777-23.368c0-7.829 6.37-14.199 14.199-14.199h68.379c7.829 0 14.199 6.37 14.199 14.199v23.368c0 20.239-16.466 36.705-36.705 36.705-33.124.001-60.072-26.949-60.072-60.073z"/><path d="m105.43 240.28v23.368c0 28.511 23.194 51.705 51.705 51.705 41.395 0 75.072-33.678 75.072-75.073 0-16.101-13.099-29.199-29.199-29.199h-27.061c-4.143 0-7.5 3.357-7.5 7.5s3.357 7.5 7.5 7.5h27.061c7.829 0 14.199 6.37 14.199 14.199 0 33.124-26.948 60.073-60.072 60.073-20.239 0-36.705-16.466-36.705-36.705v-23.368c0-7.829 6.37-14.199 14.199-14.199h12.217c4.143 0 7.5-3.357 7.5-7.5s-3.357-7.5-7.5-7.5h-12.217c-16.101 0-29.199 13.099-29.199 29.199z"/><path d="m208.492 78.573c.896 0 1.81-.162 2.696-.504 3.865-1.491 5.79-5.832 4.3-9.696l-5.555-14.403c-1.49-3.864-5.83-5.79-9.696-4.3-3.865 1.491-5.79 5.832-4.3 9.696l5.555 14.403c1.149 2.978 3.988 4.804 7 4.804z"/><path d="m164.066 96.398c1.468 2.014 3.751 3.083 6.066 3.083 1.532 0 3.079-.469 4.412-1.44 3.347-2.439 4.083-7.131 1.643-10.479l-9.094-12.476c-2.439-3.346-7.131-4.083-10.479-1.643-3.347 2.439-4.083 7.131-1.643 10.479z"/><path d="m133.771 127.941c1.388 1.12 3.053 1.664 4.706 1.664 2.189 0 4.359-.953 5.841-2.789 2.602-3.224 2.098-7.945-1.125-10.547l-12.013-9.696c-3.226-2.604-7.947-2.098-10.547 1.125-2.602 3.224-2.098 7.945 1.125 10.547z"/><path d="m303.508 78.573c3.011 0 5.852-1.826 7-4.804l5.555-14.403c1.49-3.864-.435-8.205-4.3-9.696-3.862-1.489-8.206.435-9.696 4.3l-5.555 14.403c-1.49 3.864.435 8.205 4.3 9.696.886.342 1.798.504 2.696.504z"/><path d="m341.867 99.481c2.314 0 4.599-1.069 6.066-3.083l9.094-12.476c2.44-3.348 1.704-8.039-1.643-10.479-3.346-2.439-8.039-1.706-10.479 1.643l-9.094 12.476c-2.44 3.348-1.704 8.039 1.643 10.479 1.334.972 2.88 1.44 4.413 1.44z"/><path d="m373.522 129.605c1.653 0 3.318-.544 4.706-1.664l12.013-9.696c3.223-2.602 3.727-7.323 1.125-10.547-2.6-3.223-7.321-3.728-10.547-1.125l-12.013 9.696c-3.223 2.602-3.727 7.323-1.125 10.547 1.482 1.836 3.652 2.789 5.841 2.789z"/></g></g></g></svg>