<svg id="Capa_1" enable-background="new 0 0 512 512" height="512" viewBox="0 0 512 512" width="512" xmlns="http://www.w3.org/2000/svg"><g><g><path d="m387.39 242.51c0 89.71-40.11 167.68-99.08 207.28-166.685-102.014-171.142-357.696-66.14-440.64 93.05 13.83 165.22 113.04 165.22 233.36z" fill="#6a829a"/><path d="m288.31 449.79c-26.35 17.7-56.48 27.74-88.47 27.74-103.59 0-187.56-105.22-187.56-235.02 0-129.79 83.97-235.01 187.56-235.01 7.56 0 15.01.56 22.33 1.65-79.77 125.34-69.29 319.57 66.14 440.64z" fill="#5b778f"/><path d="m336.27 242.51c0 49.85-15.23 94.98-39.87 127.67l-71.62 4.25c-86.137-85.408-92.215-240.601-29.34-312.52 1.46-.07 2.93-.1 4.4-.1 75.35 0 136.43 80.9 136.43 180.7z" fill="#83deff"/><path d="m224.78 374.43-70.48 38.47c-52.96-24.83-90.9-91.73-90.9-170.39 0-97.85 58.71-177.53 132.04-180.6-37.67 95.85-31.52 214.9 29.34 312.52z" fill="#2ecefb"/><path d="m280.913 219.199c0 25.424-20.754 46-46.245 45.71-26.319-.299-46.586-23.218-45.072-49.496 2.104-36.527 34.034-63.444 43.175-70.432 1.432-1.095 3.415-1.102 4.847-.007 9.442 7.215 43.295 35.766 43.295 74.225z" fill="#fbf198"/><path d="m296.38 295.68v74.49c-12.97 17.2-28.54 30.97-45.87 40.16-48.105-23.687-65.673-71.874-61.99-114.65z" fill="#bd9cde"/><path d="m250.51 410.33c-15.66 8.32-32.76 12.89-50.67 12.89-15.97 0-31.3-3.64-45.54-10.32v-117.22h34.22c12.82 40.52 33.28 79.58 61.99 114.65z" fill="#b18cd9"/><path d="m296.38 251.99v107.8h-5.06c-19.57.1-35.75-12.57-41.88-29.76-4.05-11.35-14.99-18.78-27.04-18.78h-28.55c-20.764-17.366-27.248-40.462-16.15-59.26z" fill="#d7ddf5"/><path d="m193.85 311.25h-29.52c-16.37 0-29.63-13.27-29.63-29.63 0-16.37 13.26-29.63 29.63-29.63h13.37c3.61 19.98 8.97 39.83 16.15 59.26z" fill="#c5cff1"/><path d="m412.96 219.2c0 25.42-20.75 46-46.24 45.71-6.19-.07-12.05-1.39-17.36-3.72-11.357-53.209 10.119-88.461 33.39-104.71 13.25 13.24 30.21 35.5 30.21 62.72z" fill="#fbf198"/><path d="m382.75 156.48c-18.3 31.06-29.7 67.08-33.39 104.71-17.29-7.55-28.87-25.68-27.72-45.78 2.11-36.52 34.04-63.44 43.18-70.43 1.43-1.09 3.41-1.1 4.85-.01 2.76 2.11 7.6 6.04 13.08 11.51z" fill="#fad989"/><path d="m448.15 299.01v161.81h-38.51c-60.28-40.108-76.094-107.815-61.37-161.81z" fill="#bd9cde"/><path d="m409.64 460.82h-123.29v-161.81h61.92c2.23 56.46 21.81 113.99 61.37 161.81z" fill="#b18cd9"/><path d="m467.75 281.62v33.78c0 24.52-19.87 44.39-44.39 44.39-19.56.1-35.74-12.57-41.87-29.76-4.05-11.35-14.99-18.78-27.04-18.78h-5.42c-12.76-19.797-12.76-46.337 1.39-59.26h87.7c16.36 0 29.63 13.26 29.63 29.63z" fill="#d7ddf5"/><path d="m349.03 311.25h-52.65c-16.37 0-29.63-13.27-29.63-29.63 0-16.37 13.26-29.63 29.63-29.63h54.04c-2.57 19.4-3.08 39.31-1.39 59.26z" fill="#c5cff1"/><path d="m499.72 477.75c0 14.78-11.98 26.75-26.75 26.75h-17.68c-39.893-12.067-57.08-34.353-53.39-53.49h71.07c14.77 0 26.75 11.97 26.75 26.74z" fill="#eaaa83"/><path d="m455.29 504.5h-193.77c-14.77 0-26.74-11.97-26.74-26.75 0-14.77 11.97-26.74 26.74-26.74h140.38c14.63 19.47 32.37 37.53 53.39 53.49z" fill="#e4996d"/></g><path d="m472.97 443.509h-17.322v-87.532c11.933-9.515 19.602-24.162 19.602-40.575v-33.785c0-20.474-16.657-37.131-37.131-37.131h-24.029c4.16-7.67 6.37-16.296 6.37-25.288 0-38.665-30.359-67.394-43.302-77.886-15.162-41.054-39.168-75.946-69.53-101.002-31.958-26.371-69.232-40.31-107.792-40.31-27.646 0-54.357 7.035-79.395 20.909-24.027 13.315-45.339 32.248-63.343 56.272-2.484 3.314-1.811 8.015 1.504 10.499 3.314 2.486 8.015 1.811 10.499-1.504 34.398-45.898 80.827-71.176 130.735-71.176 67.636 0 129.697 48.363 160.367 124.059-5.442 4.142-17.656 14.271-28.158 28.913-9.914-30.207-25.626-56.357-46.03-76.306-24.997-24.441-54.797-37.359-86.179-37.359-38.853 0-75.241 19.855-102.462 55.909-26.746 35.425-41.476 82.41-41.476 132.299s14.73 96.875 41.476 132.299c27.221 36.054 63.609 55.909 102.462 55.909 28.17 0 55.687-10.832 79.01-30.814v43.599h-17.322c-15.139 0-28.006 9.877-32.517 23.523-9.633 1.988-19.424 2.997-29.172 2.997-99.281 0-180.052-102.062-180.052-227.515 0-45.816 10.749-89.991 31.084-127.748 1.964-3.647.6-8.196-3.047-10.16-3.647-1.965-8.196-.601-10.159 3.047-21.509 39.935-32.878 86.569-32.878 134.86 0 64.468 20.09 125.147 56.571 170.859 36.876 46.208 86.056 71.656 138.481 71.656 9.277 0 18.588-.826 27.788-2.458 2.349 16.61 16.652 29.429 33.9 29.429h211.447c18.883 0 34.246-15.362 34.246-34.246s-15.362-34.243-34.246-34.243zm-34.851-184.022c12.203 0 22.131 9.928 22.131 22.131v33.785c.006 20.402-16.662 36.987-37.099 36.888-15.415 0-29.306-9.941-34.602-24.784-5.07-14.211-18.774-23.759-34.101-23.759h-58.073c-12.203 0-22.131-9.928-22.131-22.13 0-12.203 9.928-22.131 22.131-22.131zm-70.872-106.857c10.756 8.716 38.213 34.147 38.213 66.569 0 9.43-3.392 18.299-9.591 25.288h-57.244c-6.199-6.989-9.591-15.858-9.591-25.288.001-32.424 27.464-57.857 38.213-66.569zm-220.448 247.754c-44.717-27.218-75.901-87.743-75.901-157.869 0-95.507 57.841-173.208 128.938-173.208 55.079 0 103.769 46.673 121.813 116.428-4.569 9.985-7.615 21.226-7.615 33.465 0 8.991 2.21 17.617 6.37 25.288h-38.361c4.16-7.67 6.37-16.297 6.37-25.288 0-48.092-46.975-80.821-48.974-82.19-2.555-1.75-5.922-1.75-8.477 0-2 1.37-48.975 34.099-48.975 82.19 0 8.991 2.21 17.617 6.37 25.288h-24.029c-20.474 0-37.13 16.657-37.13 37.13 0 14.138 7.944 26.452 19.601 32.722zm126.614-181.185c0 9.43-3.392 18.299-9.59 25.288h-57.245c-6.199-6.988-9.59-15.857-9.59-25.288 0-32.434 27.479-57.873 38.222-66.577 10.755 8.682 38.203 34.031 38.203 66.577zm-131.215 62.418c0-12.203 9.928-22.13 22.13-22.13h102.252c-4.606 6.185-7.336 13.844-7.336 22.131 0 14.138 7.944 26.452 19.602 32.722v35.779c-10.187-3.711-18.544-11.96-22.344-22.611-5.07-14.211-18.775-23.759-34.101-23.759h-58.073c-12.202-.001-22.13-9.929-22.13-22.132zm57.638 134.106c-13.235 0-26.009-2.696-38.037-7.695v-89.28h60.603c9.001 0 17.028 5.545 19.973 13.8 5.933 16.627 19.854 29.11 36.472 33.244v13.486c-22.533 23.524-50.487 36.445-79.011 36.445zm273.134 81.277h-211.445c-10.612 0-19.246-8.634-19.246-19.246s8.633-19.246 19.246-19.246h116.435c4.142 0 7.5-3.358 7.5-7.5s-3.358-7.5-7.5-7.5h-84.114v-124.76h60.603c9.001 0 17.028 5.546 19.973 13.8 7.425 20.809 26.984 34.743 48.693 34.743 6.129.028 12.054-1.027 17.533-2.972v79.191h-27.688c-4.142 0-7.5 3.358-7.5 7.5s3.358 7.5 7.5 7.5h60.01c10.612 0 19.246 8.634 19.246 19.246s-8.633 19.244-19.246 19.244z"/></g></svg>