<svg id="Capa_1" enable-background="new 0 0 512 512" height="512" viewBox="0 0 512 512" width="512" xmlns="http://www.w3.org/2000/svg"><g><path d="m394.506 147.019c-26.23 0-47.493 21.264-47.493 47.492v-94.937c0-16.755-13.582-30.338-30.338-30.338-16.755 0-30.337 13.583-30.337 30.338v-61.728c0-16.755-13.582-30.337-30.337-30.337s-30.337 13.582-30.337 30.337v61.728c0-16.755-13.582-30.338-30.337-30.338s-30.337 13.583-30.337 30.338v94.938c0-26.229-21.264-47.492-47.493-47.492-7.28 0-13.182 5.901-13.182 13.182v193.251c0 83.774 67.913 151.687 151.687 151.687 83.775 0 151.687-67.913 151.687-151.687v-193.252c-.001-7.28-5.903-13.182-13.183-13.182z" fill="#ffd597"/><path d="m407.692 160.203v193.244c0 41.893-16.981 79.811-44.427 107.266-27.454 27.444-65.372 44.426-107.265 44.426-4.656 0-9.271-.21-13.828-.621 36.366-3.294 69.027-19.414 93.418-43.805 27.445-27.455 44.427-65.373 44.427-107.266v-193.244c0-3.705-1.532-7.06-3.995-9.452 5.687-2.403 11.925-3.735 18.483-3.735 7.279-.001 13.187 5.908 13.187 13.187z" fill="#fcc16d"/><path d="m286.338 90.317v-52.471c0-16.755-13.582-30.337-30.337-30.337s-30.337 13.582-30.337 30.337v52.471z" fill="#fc7d4b"/><path d="m225.662 158.531h60.675v31.575h-60.675z" fill="#433f43"/><g fill="#2db181"><path d="m225.662 74.349h60.675v84.182h-60.675z"/><path d="m164.987 149.487c19.595 0 35.479 15.884 35.479 35.479s-15.884 35.479-35.479 35.479z"/><path d="m347.013 149.487c-19.595 0-35.479 15.884-35.479 35.479s15.884 35.479 35.479 35.479z"/></g><path d="m256 284.83c-78.359 34.394-67.083 100.747-67.083 100.747h67.083 67.083c-.001 0 11.276-66.354-67.083-100.747z" fill="#fc7d4b"/><path d="m323.085 385.577h-22.809c.05-18.693-6.308-63.38-63.891-90.394 5.817-3.685 12.326-7.159 19.615-10.354 78.359 34.394 67.085 100.748 67.085 100.748z" fill="#fb6a3b"/><path d="m323.082 385.577c-14.744 21.226-39.289 35.114-67.083 35.114-27.793 0-52.338-13.889-67.083-35.114 14.744-21.21 39.29-35.099 67.083-35.099 27.794 0 52.339 13.889 67.083 35.099z" fill="#f3f0f3"/><g><g><circle cx="256" cy="385.574" fill="#1ca56f" r="35.096"/><path d="m291.097 385.574c0 19.386-15.712 35.098-35.097 35.098-10.781 0-20.424-4.855-26.864-12.508 1.333.164 2.7.24 4.078.24 19.385 0 35.097-15.712 35.097-35.098 0-8.604-3.094-16.487-8.232-22.589 17.46 2.011 31.018 16.849 31.018 34.857z" fill="#158f5e"/></g></g><g><g><path d="m394.506 139.51c-15.736 0-29.949 6.642-39.983 17.27v-57.206c0-20.868-16.979-37.847-37.848-37.847-8.566 0-16.478 2.86-22.827 7.678v-31.559c0-20.868-16.979-37.846-37.848-37.846-20.868 0-37.847 16.979-37.847 37.847v31.56c-6.35-4.817-14.261-7.678-22.828-7.678-20.869 0-37.847 16.979-37.847 37.847v57.204c-10.035-10.628-24.248-17.27-39.983-17.27-11.41 0-20.691 9.281-20.691 20.691v58.188c0 4.146 3.362 7.509 7.51 7.509 4.147 0 7.509-3.362 7.509-7.509v-58.188c0-3.128 2.545-5.673 5.672-5.673 22.047 0 39.983 17.937 39.983 39.983v78.471c0 4.147 3.362 7.51 7.509 7.51s7.51-3.362 7.51-7.51v-45.692c20.4-3.585 35.479-21.333 35.479-42.324 0-20.993-15.078-38.74-35.479-42.324v-43.068c0-12.587 10.241-22.828 22.828-22.828s22.828 10.241 22.828 22.828v134.173c0 4.146 3.362 7.509 7.509 7.509s7.51-3.362 7.51-7.509v-36.132h45.656v33.686c0 4.147 3.362 7.51 7.51 7.51s7.509-3.362 7.509-7.51c0 0 0-131.387 0-131.728 0-12.587 10.241-22.828 22.828-22.828 12.588 0 22.828 10.241 22.828 22.828v43.066c-20.396 3.587-35.479 21.344-35.479 42.325 0 20.985 15.08 38.739 35.479 42.324v45.692c0 4.147 3.362 7.51 7.51 7.51s7.51-3.362 7.51-7.51c0 0 0-78.13 0-78.471 0-22.047 17.937-39.983 39.983-39.983 3.128 0 5.672 2.545 5.672 5.673v193.251c0 75.018-56.262 136.735-130.87 143.561-4.131.377-7.172 4.032-6.795 8.162.356 3.898 3.631 6.826 7.47 6.826.229 0 .46-.011.692-.032 39.367-3.601 75.823-21.686 102.652-50.923 27-29.422 41.868-67.634 41.868-107.594v-193.25c.001-11.409-9.28-20.69-20.689-20.69zm-201.549 45.456c0 12.745-8.54 23.652-20.46 26.948v-53.897c11.921 3.296 20.46 14.202 20.46 26.949zm40.215-103.108h45.656v69.164h-45.656zm22.828-66.839c12.587 0 22.828 10.24 22.828 22.827v28.994h-45.656v-28.994c0-12.586 10.241-22.827 22.828-22.827zm-22.828 167.577v-16.556h45.656v16.556zm85.871 2.37c0-12.74 8.541-23.651 20.46-26.949v53.897c-11.92-3.297-20.46-14.206-20.46-26.948z"/><path d="m241.594 496.915c-73.982-7.335-129.772-69.01-129.772-143.463v-105.926c0-4.147-3.362-7.51-7.509-7.51s-7.51 3.362-7.51 7.51v105.926c0 39.749 14.732 77.812 41.48 107.174 26.568 29.163 62.731 47.359 101.83 51.235.251.025.502.037.75.037 3.814 0 7.08-2.894 7.464-6.77.409-4.126-2.605-7.804-6.733-8.213z"/><path d="m263.51 427.877c4.815-.407 9.559-1.2 14.189-2.365l13.067 35.899c1.11 3.05 3.989 4.943 7.057 4.943.854 0 1.721-.146 2.567-.454 3.897-1.419 5.906-5.729 4.488-9.625l-12.973-35.645c4.213-1.856 8.279-4.031 12.159-6.516l16.785 20.005c1.484 1.771 3.612 2.683 5.756 2.683 1.703 0 3.417-.577 4.823-1.757 3.177-2.666 3.592-7.403.925-10.579l-16.361-19.5c3.266-2.97 6.324-6.195 9.146-9.66l14.974 8.646c1.183.683 2.475 1.007 3.748 1.007 2.596 0 5.12-1.347 6.511-3.756 2.073-3.592.843-8.185-2.749-10.258l-16.593-9.58c.564-10.109-.206-32.252-14.034-55.292-2.133-3.557-6.746-4.71-10.303-2.574-3.557 2.134-4.709 6.746-2.574 10.303 6.947 11.576 10.009 22.822 11.257 31.836-16.175-14.433-35.708-22.669-59.375-22.669 0 0 0 0-.001 0-22.105 0-43.17 8.225-59.341 22.64.909-6.538 2.761-14.283 6.385-22.48 9.407-21.284 27.212-38.112 52.957-50.059 12.044 5.597 22.474 12.354 31.035 20.114 3.072 2.786 7.822 2.553 10.607-.521 2.785-3.072 2.552-7.821-.521-10.607-10.47-9.49-23.289-17.6-38.102-24.103-1.924-.844-4.112-.844-6.036 0-30.918 13.571-52.342 33.457-63.677 59.103-8.407 19.021-8.777 36.216-8.333 44.308l-16.595 9.581c-3.592 2.073-4.822 6.666-2.749 10.258 1.391 2.409 3.915 3.756 6.51 3.756 1.273 0 2.566-.325 3.748-1.007l14.974-8.646c2.821 3.465 5.88 6.69 9.146 9.66l-16.362 19.5c-2.667 3.177-2.252 7.914.925 10.579 1.407 1.181 3.12 1.757 4.823 1.757 2.143 0 4.271-.912 5.756-2.683l16.786-20.005c3.878 2.484 7.946 4.659 12.159 6.516l-12.974 35.645c-1.418 3.896.591 8.206 4.489 9.625.848.309 1.714.454 2.567.454 3.067 0 5.947-1.894 7.057-4.943l13.067-35.898c4.63 1.164 9.374 1.957 14.19 2.364v47.717c0 4.147 3.362 7.51 7.509 7.51s7.51-3.362 7.51-7.51v-47.717zm-7.511-69.89c.001 0 .001 0 0 0 15.212 0 27.587 12.376 27.587 27.587 0 15.212-12.376 27.587-27.587 27.587s-27.587-12.375-27.587-27.587c.001-15.211 12.376-27.587 27.587-27.587zm57.704 27.592c-5.22 6.466-11.433 11.939-18.334 16.267 2.082-5.016 3.236-10.511 3.236-16.271 0-5.751-1.151-11.237-3.227-16.247 6.897 4.323 13.107 9.792 18.325 16.251zm-97.082-16.252c-2.075 5.01-3.226 10.495-3.226 16.246 0 5.761 1.156 11.255 3.236 16.271-6.901-4.327-13.114-9.8-18.333-16.266 5.216-6.458 11.426-11.927 18.323-16.251z"/><path d="m159.393 346.261c-.012 0-.024 0-.036 0-4.13 0-7.489 3.338-7.509 7.475-.02 4.147 3.328 7.525 7.475 7.545h.104.036c4.13 0 7.489-3.339 7.509-7.475.02-4.147-3.328-7.525-7.475-7.545z"/><path d="m170.916 324.052h.104c4.147 0 7.51-3.362 7.51-7.51 0-4.146-3.362-7.509-7.51-7.509h-.104c-4.147 0-7.51 3.362-7.51 7.509s3.363 7.51 7.51 7.51z"/><path d="m195.425 294.453h.104.036c4.13 0 7.489-3.338 7.509-7.475.02-4.146-3.327-7.525-7.475-7.544h-.104c-.012 0-.024 0-.036 0-4.13 0-7.488 3.338-7.508 7.475-.019 4.146 3.327 7.525 7.474 7.544z"/><path d="m228.4 273.028h.037c4.13 0 7.489-3.338 7.509-7.474.02-4.147-3.326-7.525-7.474-7.545h-.103c-.012 0-.024 0-.037 0-4.13 0-7.488 3.338-7.508 7.473-.02 4.147 3.326 7.525 7.473 7.546z"/><path d="m352.538 361.282h.036.104c4.147-.021 7.493-3.397 7.475-7.545-.021-4.135-3.379-7.475-7.509-7.475-.012 0-.023 0-.036 0h-.104c-4.147.021-7.494 3.397-7.475 7.545.02 4.135 3.378 7.475 7.509 7.475z"/><path d="m341.084 309.033h-.104c-4.146 0-7.509 3.362-7.509 7.509s3.362 7.51 7.509 7.51h.104c4.147 0 7.51-3.362 7.51-7.51 0-4.147-3.363-7.509-7.51-7.509z"/><path d="m316.435 294.454h.036.104c4.147-.02 7.493-3.397 7.475-7.544-.021-4.136-3.379-7.475-7.509-7.475-.012 0-.024 0-.036 0h-.105c-4.146.02-7.493 3.397-7.474 7.544.02 4.136 3.379 7.475 7.509 7.475z"/><path d="m283.6 273.028h.104c4.146-.021 7.492-3.398 7.473-7.546-.02-4.135-3.378-7.473-7.508-7.473-.013 0-.024 0-.037 0h-.104c-4.147.02-7.494 3.397-7.474 7.545.021 4.136 3.378 7.474 7.509 7.474z"/><path d="m255.947 251.335h.036.104c4.147-.021 7.494-3.397 7.475-7.545-.021-4.135-3.379-7.475-7.509-7.475-.012 0-.024 0-.036 0h-.104c-4.147.021-7.494 3.397-7.475 7.545.02 4.137 3.378 7.475 7.509 7.475z"/><path d="m255.947 221.971h.036.104c4.147-.02 7.494-3.397 7.475-7.545-.021-4.135-3.379-7.474-7.509-7.474-.012 0-.024 0-.036 0h-.104c-4.147.02-7.494 3.396-7.475 7.544.02 4.138 3.378 7.475 7.509 7.475z"/><path d="m316.138 142.36h.104c4.147 0 7.51-3.362 7.51-7.51s-3.362-7.51-7.51-7.51h-.104c-4.147 0-7.51 3.362-7.51 7.51s3.361 7.51 7.51 7.51z"/><path d="m316.138 109.681h.104c4.147 0 7.51-3.362 7.51-7.509s-3.362-7.51-7.51-7.51h-.104c-4.147 0-7.51 3.362-7.51 7.51 0 4.147 3.361 7.509 7.51 7.509z"/><path d="m195.862 127.341h-.104c-4.147 0-7.509 3.362-7.509 7.51s3.362 7.51 7.509 7.51h.104c4.147 0 7.51-3.362 7.51-7.51s-3.361-7.51-7.51-7.51z"/><path d="m195.862 94.663h-.104c-4.147 0-7.509 3.362-7.509 7.51 0 4.146 3.362 7.509 7.509 7.509h.104c4.147 0 7.51-3.362 7.51-7.509 0-4.148-3.361-7.51-7.51-7.51z"/><path d="m385.12 202.901v-5.784c0-4.147-3.362-7.51-7.51-7.51s-7.51 3.362-7.51 7.51v5.784c0 4.147 3.362 7.51 7.51 7.51s7.51-3.362 7.51-7.51z"/><path d="m370.101 284.715v20.804c0 4.147 3.362 7.51 7.51 7.51s7.51-3.362 7.51-7.51v-20.804c0-4.147-3.362-7.509-7.51-7.509s-7.51 3.361-7.51 7.509z"/><path d="m366.719 228.219c0 4.147 3.362 7.51 7.509 7.51h8.458c4.147 0 7.51-3.362 7.51-7.51s-3.362-7.51-7.51-7.51h-8.458c-4.147.001-7.509 3.363-7.509 7.51z"/><path d="m387.81 253.063-8.458-7.894c-3.032-2.83-7.784-2.666-10.613.366-2.83 3.032-2.667 7.784.366 10.614l8.458 7.893c1.447 1.352 3.287 2.02 5.122 2.02 2.009 0 4.013-.801 5.491-2.386 2.828-3.033 2.665-7.784-.366-10.613z"/><path d="m141.899 202.901v-5.784c0-4.147-3.362-7.51-7.51-7.51-4.147 0-7.509 3.362-7.509 7.51v5.784c0 4.147 3.362 7.51 7.509 7.51 4.148 0 7.51-3.362 7.51-7.51z"/><path d="m126.88 284.715v20.804c0 4.147 3.362 7.51 7.509 7.51s7.51-3.362 7.51-7.51v-20.804c0-4.147-3.362-7.509-7.51-7.509-4.146 0-7.509 3.361-7.509 7.509z"/><path d="m121.806 228.219c0 4.147 3.362 7.51 7.509 7.51h8.458c4.147 0 7.51-3.362 7.51-7.51s-3.362-7.51-7.51-7.51h-8.458c-4.147.001-7.509 3.363-7.509 7.51z"/><path d="m143.262 245.535c-2.831-3.031-7.583-3.194-10.614-.366l-8.458 7.894c-3.032 2.829-3.196 7.581-.366 10.613 1.479 1.585 3.482 2.386 5.491 2.386 1.835 0 3.675-.669 5.123-2.02l8.458-7.893c3.032-2.83 3.196-7.582.366-10.614z"/><path d="m251.771 108.911h8.458c4.147 0 7.51-3.362 7.51-7.51s-3.362-7.51-7.51-7.51h-8.458c-4.147 0-7.509 3.362-7.509 7.51s3.362 7.51 7.509 7.51z"/><path d="m256.895 118.351c-3.032-2.83-7.783-2.666-10.613.367-2.83 3.031-2.667 7.783.366 10.613l8.458 7.894c1.447 1.352 3.287 2.02 5.123 2.02 2.008 0 4.012-.801 5.49-2.386 2.83-3.032 2.666-7.784-.366-10.613z"/><path d="m256 56.634c4.148 0 7.509-3.362 7.509-7.51v-5.784c0-4.147-3.361-7.51-7.509-7.51-4.147 0-7.509 3.362-7.509 7.51v5.784c0 4.147 3.361 7.51 7.509 7.51z"/><path d="m60.189 92.019c-2.931-2.935-7.685-2.938-10.62-.007s-2.938 7.686-.007 10.62l31.764 31.809c1.467 1.469 3.39 2.202 5.314 2.202 1.919 0 3.84-.731 5.307-2.195 2.935-2.931 2.938-7.686.007-10.62z"/><path d="m72.952 143.743-10.379-2.604c-4.018-1.011-8.102 1.434-9.111 5.457-1.009 4.022 1.434 8.103 5.457 9.11l10.379 2.604c.613.154 1.228.229 1.833.229 3.362 0 6.423-2.275 7.278-5.685 1.008-4.024-1.435-8.103-5.457-9.111z"/><path d="m101.32 115.526c.839 3.43 3.909 5.728 7.289 5.728.591 0 1.19-.07 1.79-.218 4.028-.985 6.495-5.05 5.51-9.078l-2.543-10.396c-.985-4.028-5.048-6.496-9.079-5.51-4.028.985-6.495 5.05-5.51 9.078z"/><path d="m462.432 92.012c-2.935-2.93-7.689-2.927-10.621.007l-31.764 31.809c-2.931 2.935-2.927 7.689.007 10.62 1.466 1.464 3.387 2.195 5.307 2.195 1.924 0 3.847-.734 5.313-2.202l31.765-31.809c2.93-2.935 2.927-7.69-.007-10.62z"/><path d="m449.427 141.138-10.379 2.604c-4.023 1.008-6.466 5.088-5.457 9.11.855 3.409 3.915 5.685 7.278 5.685.604 0 1.22-.074 1.833-.229l10.379-2.604c4.023-1.009 6.467-5.089 5.457-9.11-1.009-4.022-5.091-6.466-9.111-5.456z"/><path d="m401.602 121.036c.6.146 1.199.218 1.79.218 3.38 0 6.449-2.298 7.288-5.728l2.544-10.396c.984-4.028-1.481-8.093-5.511-9.078-4.032-.986-8.093 1.481-9.078 5.51l-2.543 10.396c-.986 4.028 1.481 8.092 5.51 9.078z"/></g></g></g></svg>