<svg id="Capa_1" enable-background="new 0 0 512 512" height="512" viewBox="0 0 512 512" width="512" xmlns="http://www.w3.org/2000/svg"><g><g><path d="m500.66 221.963c-19.36 29.5-31.03 65.42-31.87 102.81-.17 7.51-3.12 14.68-8.43 19.99-7.48 7.48-18.43 10.21-28.58 7.24-17.57-5.15-36.15-7.93-55.38-7.93-26.71 0-52.17 5.32-75.39 14.96-126.922-78.855-146.755-237.986-41.44-320.45 3.27.49 6.45 1.68 9.33 3.56 30.91 20.18 67.83 31.91 107.5 31.91 19.23 0 37.81-2.77 55.38-7.92 10.15-2.97 21.1-.24 28.58 7.24 5.31 5.31 8.26 12.48 8.43 19.99.84 37.39 12.51 73.32 31.87 102.8 5.12 7.85 5.12 17.96 0 25.8z" fill="#eaaa83"/><path d="m301.01 359.033c-11.27 4.67-22.01 10.37-32.11 16.96-7.84 5.12-17.96 5.12-25.8 0-30.91-20.18-67.83-31.92-107.5-31.92-19.23 0-37.81 2.78-55.38 7.93-10.15 2.97-21.1.24-28.58-7.24-5.31-5.31-8.26-12.48-8.43-19.99-.84-37.39-12.51-73.32-31.87-102.81-5.12-7.84-5.12-17.95 0-25.8 19.36-29.49 31.03-65.41 31.87-102.8.17-7.51 3.12-14.68 8.43-19.99 7.48-7.48 18.43-10.21 28.58-7.24 17.57 5.15 36.15 7.92 55.38 7.92 39.67 0 76.59-11.73 107.5-31.91 4.96-3.24 10.84-4.43 16.47-3.56-59.4 89.93-53.89 230.74 41.44 320.45z" fill="#e4996d"/><path d="m408.48 171.223c0 9.26-7.51 16.77-16.77 16.77h-170.32c-11.053-9.403-13.913-23.256.15-33.54h170.17c9.26 0 16.77 7.51 16.77 16.77z" fill="#6a829a"/><path d="m221.39 187.993h-101.1c-9.26 0-16.77-7.51-16.77-16.77s7.51-16.77 16.77-16.77h101.25c-.77 11.09-.83 22.3-.15 33.54z" fill="#5b778f"/><path d="m364.25 246.913c0 9.26-7.51 16.77-16.77 16.77h-110.06c-17.866-10.146-18.932-21.867-10.04-33.54h120.1c9.26 0 16.77 7.51 16.77 16.77z" fill="#6a829a"/><path d="m237.42 263.683h-72.9c-9.26 0-16.77-7.51-16.77-16.77s7.51-16.77 16.77-16.77h62.86c2.56 11.31 5.9 22.52 10.04 33.54z" fill="#5b778f"/><path d="m430.3 473.693c-14.75.01-28.9-5.84-39.47-16.1-12.67-11.77-29.04-17.28-45.18-16.54-72.105-47.921-70.685-143.115-16.66-205.92.77-.61 1.52-1.19 2.25-1.76 10.19-7.89 24.4-7.89 34.59 0 30.85 23.88 94.45 81.8 118.8 168.93 10.03 35.87-17.09 71.39-54.33 71.39z" fill="#fbf198"/><path d="m345.65 441.053c-14.22.66-28.25 6.17-39.41 16.54-10.57 10.26-24.72 16.11-39.46 16.1-37.25 0-64.37-35.52-54.34-71.39 23.77-85.06 84.95-142.28 116.55-167.17-33.58 59.41-31.8 143.52 16.66 205.92z" fill="#fad989"/><circle cx="348.536" cy="313.553" fill="#eaaa83" r="27.059"/><g fill="#ffa1ac"><ellipse cx="268.979" cy="405.686" rx="29.355" ry="23.377"/><ellipse cx="428.092" cy="405.686" rx="29.355" ry="23.377"/></g></g><g><path d="m506.945 226.066c6.741-10.327 6.741-23.672-.011-34.015-18.981-28.908-29.862-64.017-30.642-98.861-.213-9.563-3.988-18.487-10.628-25.127-9.387-9.388-23.178-12.885-35.989-9.131-17.251 5.058-35.176 7.623-53.277 7.623-36.886 0-72.64-10.614-103.399-30.694-10.327-6.741-23.671-6.741-33.999 0-28.418 18.553-61.401 29.106-95.385 30.521-4.139.172-7.354 3.667-7.182 7.806.172 4.138 3.665 7.348 7.806 7.182 36.68-1.527 72.283-12.92 102.961-32.948 5.345-3.49 12.253-3.49 17.598 0 33.204 21.676 71.794 33.133 111.6 33.133 19.53 0 38.875-2.769 57.497-8.228 7.546-2.212 15.655-.165 21.162 5.343 3.896 3.896 6.111 9.172 6.238 14.855.841 37.618 12.596 75.533 33.088 106.743 3.49 5.345 3.49 12.253.011 17.582-20.503 31.229-32.257 69.142-33.098 106.758-.031 1.368-.186 2.716-.456 4.028-8.731-14.646-18.8-28.921-30.21-42.753-2.636-3.195-7.362-3.65-10.558-1.013-3.195 2.636-3.649 7.363-1.013 10.558 26.924 32.669 47.193 69.039 58.356 108.9 4.128 14.767 1.168 30.258-8.123 42.501-9.34 12.308-23.552 19.367-39.001 19.367-.018 0-.036 0-.054 0-12.748 0-24.887-4.965-34.185-13.985-.039-.038-.078-.075-.118-.112-26.579-24.688-68.217-24.689-94.795 0-.04.037-.079.074-.118.112-9.299 9.02-21.436 13.985-34.193 13.985-.017 0-.037 0-.054 0-15.441 0-29.653-7.059-38.993-19.367-9.29-12.243-12.251-27.734-8.123-42.501 19.052-68.925 66.614-126.753 116.176-165.025 7.479-5.788 17.925-5.787 25.403 0 11.931 9.233 23.618 19.566 34.736 30.711 2.925 2.933 7.674 2.938 10.607.013s2.938-7.674.013-10.607c-11.569-11.597-23.74-22.356-36.175-31.98-10.293-7.966-23.847-9.561-35.454-4.798h-170.441c-13.384 0-24.271 10.888-24.271 24.271s10.888 24.271 24.271 24.271h114.719c-22.921 24.794-43.679 54.965-57.37 84.465-27.061-12.648-56.04-19.071-86.27-19.071-19.529 0-38.874 2.768-57.498 8.228-7.546 2.212-15.654.165-21.162-5.343-3.896-3.896-6.111-9.172-6.238-14.855-.841-37.618-12.596-75.533-33.088-106.743-3.49-5.345-3.49-12.253-.011-17.582 20.503-31.228 32.257-69.143 33.098-106.758.127-5.684 2.343-10.96 6.239-14.856 5.508-5.508 13.616-7.556 21.162-5.342 9.707 2.846 19.75 4.984 29.851 6.356 4.105.562 7.883-2.318 8.441-6.422.558-4.105-2.318-7.883-6.422-8.441-9.359-1.272-18.661-3.252-27.649-5.887-12.813-3.759-26.602-.258-35.989 9.13-6.64 6.64-10.415 15.563-10.629 25.127-.779 34.842-11.661 69.952-30.652 98.877-6.741 10.327-6.741 23.672.011 34.015 18.981 28.908 29.862 64.017 30.642 98.861.213 9.563 3.988 18.487 10.628 25.127 9.388 9.389 23.177 12.885 35.989 9.131 17.252-5.058 35.177-7.622 53.277-7.622 28.131 0 55.088 5.997 80.244 17.809-4.156 10.17-7.718 20.474-10.633 30.901-5.402 19.325-1.531 39.592 10.62 55.606 12.2 16.079 30.768 25.3 50.934 25.3h.07c16.639-.001 32.464-6.448 44.568-18.159 20.837-19.3 53.427-19.301 74.264 0 12.105 11.712 27.927 18.159 44.56 18.159h.07c20.174 0 38.742-9.222 50.942-25.3 12.151-16.014 16.022-36.282 10.62-55.606-5.281-18.893-12.637-37.377-21.955-55.356 3.984-5.823 6.225-12.749 6.387-19.99.779-34.843 11.661-69.952 30.652-98.877zm-351.693 20.847c0-5.112 4.159-9.271 9.271-9.271h149.56c-6.265 5.313-13.138 11.489-20.342 18.542h-129.218c-5.112 0-9.271-4.159-9.271-9.271z"/><path d="m391.707 146.948h-271.414c-13.384 0-24.271 10.888-24.271 24.271s10.888 24.271 24.271 24.271h271.415c13.384 0 24.271-10.888 24.271-24.271s-10.888-24.271-24.272-24.271zm0 33.542h-271.414c-5.112 0-9.271-4.159-9.271-9.271s4.159-9.271 9.271-9.271h271.415c5.112 0 9.271 4.159 9.271 9.271s-4.16 9.271-9.272 9.271z"/><path d="m383.097 313.554c0-19.056-15.504-34.56-34.56-34.56s-34.56 15.503-34.56 34.56 15.503 34.56 34.56 34.56 34.56-15.504 34.56-34.56zm-34.56 19.56c-10.785 0-19.559-8.775-19.559-19.56s8.775-19.559 19.559-19.559c10.785 0 19.56 8.774 19.56 19.559s-8.774 19.56-19.56 19.56z"/><path d="m278.587 371.185v12c0 4.142 3.358 7.5 7.5 7.5s7.5-3.358 7.5-7.5v-12c0-4.142-3.358-7.5-7.5-7.5s-7.5 3.358-7.5 7.5z"/><path d="m403.487 371.185v12c0 4.142 3.358 7.5 7.5 7.5s7.5-3.358 7.5-7.5v-12c0-4.142-3.358-7.5-7.5-7.5s-7.5 3.358-7.5 7.5z"/><path d="m359.348 377.9c-2.729 3.132-6.67 4.928-10.81 4.928-4.141 0-8.081-1.796-10.81-4.928-2.721-3.123-7.46-3.448-10.582-.727-3.123 2.721-3.448 7.459-.727 10.582 5.578 6.402 13.64 10.073 22.119 10.073 8.478 0 16.54-3.671 22.119-10.073 2.721-3.123 2.396-7.86-.727-10.582-3.124-2.72-7.861-2.395-10.582.727z"/></g></g></svg>