<svg id="Capa_1" enable-background="new 0 0 512 512" height="512" viewBox="0 0 512 512" width="512" xmlns="http://www.w3.org/2000/svg"><g><path d="m270 0h-270v361h240v151h272v-361h-242zm-30 331h-210v-301h210zm242-150v301h-212c0-13.141 0-287.757 0-301z"/><path d="m90 232.213 45-45 45 45v68.787h30v-231.213l-75 75-75-75v231.213h30zm90-90v47.574l-23.787-23.787zm-90 0 23.787 23.787-23.787 23.787z"/><path d="m391 292.213 34.394 34.393 21.212-21.212-85.606-85.607v150l-34.394-34.393-21.212 21.212 85.606 85.607z"/></g></svg>