<svg id="Capa_1" enable-background="new 0 0 512 512" height="512" viewBox="0 0 512 512" width="512" xmlns="http://www.w3.org/2000/svg"><g><path d="m380.077 209.103-27.076-39.746-27.076 39.746-47.959 3.576 20.883 43.321-20.883 43.321 47.959 3.576 27.076 39.746 27.076-39.746 47.959-3.576-20.883-43.321 20.883-43.321zm1.813 63.576-18.465 1.376-10.424 15.302-10.424-15.302-18.465-1.376 8.041-16.679-8.041-16.679 18.465-1.376 10.424-15.302 10.424 15.302 18.465 1.376-8.041 16.679z"/><path d="m293.001 512c45.354 0 89.789-11.813 128.5-34.164l52.498-30.31c-62.701 2.367-61.495 2.474-67.998 2.474-106.972 0-194-87.028-194-194s87.028-194 194-194c6.503 0 5.282.106 67.998 2.474l-52.498-30.31c-38.711-22.351-83.146-34.164-128.5-34.164-140.607 0-255 114.841-255 256s114.393 256 255 256zm0-482c20.67 0 41.111 2.77 60.749 8.155-96.273 23.115-171.749 110.741-171.749 217.845 0 107.021 75.389 194.709 171.749 217.845-19.638 5.385-40.079 8.155-60.749 8.155-124.065 0-225-101.383-225-226s100.935-226 225-226z"/></g></svg>