<svg id="Capa_1" enable-background="new 0 0 512 512" height="512" viewBox="0 0 512 512" width="512" xmlns="http://www.w3.org/2000/svg"><g><g><g><path d="m494.5 436.969h-477c-5.523 0-10-4.477-10-10v-332.096c0-5.523 4.477-10 10-10h205.335c3.31 0 6.406 1.638 8.268 4.374l16.753 24.621c3.935 5.783 12.44 5.843 16.456.115l17.422-24.851c1.872-2.67 4.928-4.259 8.188-4.259h204.578c5.523 0 10 4.477 10 10v332.096c0 5.523-4.477 10-10 10z" fill="#915eb2"/><path d="m504.5 94.87v332.1c0 5.52-4.48 10-10 10h-32.26c5.52 0 10-4.48 10-10v-332.1c0-5.52-4.48-10-10-10h32.26c5.52 0 10 4.48 10 10z" fill="#804ea0"/><path d="m256 390.523h-206.238c-5.523 0-10-4.477-10-10v-295.492c0-5.523 4.477-10 10-10h166.238c22.091 0 40 17.909 40 40z" fill="#f3f0f3"/><path d="m256 115.03v275.49h-29.85v-275.49c0-22.09-17.9-40-40-40h29.85c22.09 0 40 17.91 40 40z" fill="#e2dee2"/><path d="m256 390.523h206.238c5.523 0 10-4.477 10-10v-295.492c0-5.523-4.477-10-10-10h-166.238c-22.091 0-40 17.909-40 40z" fill="#f3f0f3"/><path d="m472.24 85.03v295.49c0 5.53-4.48 10-10 10h-29.85c5.53 0 10-4.47 10-10v-295.49c0-5.52-4.47-10-10-10h29.85c5.52 0 10 4.48 10 10z" fill="#e2dee2"/><path d="m256 402.825h-206.238c-5.523 0-10-4.477-10-10v-42.048h216.238z" fill="#cbc5cb"/><path d="m226.15 350.78h29.85v52.05h-29.85z" fill="#b5adb6"/><path d="m462.238 402.825h-206.238v-52.048h216.238v42.048c0 5.523-4.477 10-10 10z" fill="#cbc5cb"/><path d="m472.24 350.78v42.05c0 5.52-4.48 10-10 10h-29.85c5.53 0 10-4.48 10-10v-42.05z" fill="#b5adb6"/></g><g><g><g><path d="m145.097 109.67-53.198 86.753c-1.334 2.176.231 4.973 2.784 4.973h106.396c2.553 0 4.118-2.797 2.784-4.973l-53.198-86.753c-1.274-2.078-4.294-2.078-5.568 0z" fill="#fb5532"/><path d="m150.665 231.219 53.198-86.753c1.334-2.176-.231-4.973-2.784-4.973h-106.396c-2.553 0-4.118 2.797-2.784 4.973l53.198 86.753c1.274 2.078 4.294 2.078 5.568 0z" fill="#fb5532"/><g fill="#fc7d4b"><path d="m203.863 144.467-15.927 25.977-18.98-30.949h32.121c2.557.001 4.118 2.795 2.786 4.972z"/><path d="m126.807 139.496-18.98 30.949-15.927-25.978c-1.332-2.177.228-4.972 2.786-4.972h32.121z"/><path d="m168.955 201.393-18.287 29.829c-1.279 2.071-4.294 2.071-5.573 0l-18.287-29.829z"/></g><path d="m187.932 170.444-18.98 30.953h-42.141l-18.981-30.953 18.981-30.952h42.141z" fill="#fb946d"/></g></g></g><g><g><g><path d="m432.956 280.898c0 17.402-14.115 31.517-31.517 31.517-2.122 0-4.187-.208-6.195-.616-14.437-2.87-25.322-15.621-25.322-30.901 0-17.412 14.115-31.517 31.517-31.517 13.67 0 25.312 8.706 29.679 20.888 1.194 3.316 1.838 6.896 1.838 10.629z" fill="#ffd597"/><path d="m432.961 280.896c0 17.406-14.121 31.517-31.518 31.517-2.129 0-4.187-.208-6.199-.613-1.516-.298-2.987-.713-4.412-1.227 12.172-4.358 20.889-15.998 20.889-29.677 0-3.727-.65-7.309-1.841-10.629-3.176-8.861-10.205-15.881-19.057-19.048 3.321-1.191 6.894-1.841 10.62-1.841 13.67 0 25.31 8.707 29.677 20.888 1.191 3.321 1.841 6.904 1.841 10.63z" fill="#fcc16d"/></g><g><path d="m432.956 280.898c0 17.402-14.115 31.517-31.517 31.517-2.122 0-4.187-.208-6.195-.616-1.203-3.316-1.847-6.896-1.847-10.629 0-17.411 14.105-31.517 31.517-31.517 2.122 0 4.197.208 6.205.616 1.193 3.316 1.837 6.896 1.837 10.629z" fill="#554e55"/><path d="m432.961 280.896c0 17.406-14.121 31.517-31.518 31.517-2.129 0-4.187-.208-6.199-.613-.325-.902-.614-1.823-.848-2.761 10.277-5.188 17.324-15.844 17.324-28.143 0-2.716-.343-5.36-.993-7.877 4.259-2.157 9.077-3.366 14.184-3.366 2.121 0 4.196.207 6.208.613 1.192 3.321 1.842 6.904 1.842 10.63z" fill="#433f43"/><path d="m438.178 267.737c-5.544-15.466-20.309-25.856-36.738-25.856-21.515 0-39.018 17.503-39.018 39.017 0 18.556 13.188 34.646 31.331 38.252 2.506.508 5.092.766 7.687.766 21.514 0 39.017-17.503 39.017-39.018-.001-4.536-.769-8.967-2.279-13.161zm-60.756 13.16c0-13.243 10.774-24.017 24.018-24.017 5.968 0 11.567 2.239 15.867 6.023-17.269 3.427-30.472 18.283-31.36 36.326-5.248-4.449-8.525-11.08-8.525-18.332zm24.017 24.018c-.081 0-.162-.005-.243-.006-.191-1.228-.3-2.476-.3-3.739 0-13.243 10.774-24.017 24.018-24.017.081 0 .161.005.242.006.19 1.227.3 2.473.3 3.738 0 13.244-10.773 24.018-24.017 24.018z"/></g></g><g><g><path d="m432.956 181.029c0 17.402-14.115 31.517-31.517 31.517-2.122 0-4.187-.208-6.195-.616-14.437-2.87-25.322-15.621-25.322-30.901 0-17.412 14.115-31.517 31.517-31.517 13.67 0 25.312 8.706 29.679 20.888 1.194 3.316 1.838 6.897 1.838 10.629z" fill="#554e55"/><path d="m432.961 181.027c0 17.406-14.121 31.517-31.518 31.517-2.129 0-4.187-.208-6.199-.614-1.516-.298-2.987-.713-4.412-1.227 12.172-4.358 20.889-15.998 20.889-29.677 0-3.727-.65-7.309-1.841-10.629-3.176-8.861-10.205-15.881-19.057-19.048 3.321-1.191 6.894-1.841 10.62-1.841 13.67 0 25.31 8.707 29.677 20.888 1.191 3.323 1.841 6.905 1.841 10.631z" fill="#433f43"/></g></g></g></g><g><path d="m504.5 347.422c4.143 0 7.5-3.357 7.5-7.5v-245.049c0-9.649-7.851-17.5-17.5-17.5h-16.551c-2.847-5.817-8.81-9.842-15.711-9.842h-166.238c-16.782 0-31.548 8.756-40 21.932-8.452-13.176-23.218-21.932-40-21.932h-166.238c-6.901 0-12.864 4.025-15.711 9.842h-16.551c-9.649 0-17.5 7.851-17.5 17.5v332.096c0 9.649 7.851 17.5 17.5 17.5h477c9.649 0 17.5-7.851 17.5-17.5v-57.946c0-4.143-3.357-7.5-7.5-7.5s-7.5 3.357-7.5 7.5v57.946c0 1.379-1.121 2.5-2.5 2.5h-477c-1.379 0-2.5-1.121-2.5-2.5v-332.096c0-1.379 1.121-2.5 2.5-2.5h14.762v108.459c0 4.143 3.357 7.5 7.5 7.5s7.5-3.357 7.5-7.5v-115.801c0-1.379 1.121-2.5 2.5-2.5h166.238c17.921 0 32.5 14.579 32.5 32.5v228.246h-201.238v-113.344c0-4.143-3.357-7.5-7.5-7.5s-7.5 3.357-7.5 7.5v162.893c0 9.649 7.851 17.5 17.5 17.5h412.477c9.649 0 17.5-7.851 17.5-17.5v-300.453h14.761c1.379 0 2.5 1.121 2.5 2.5v245.049c0 4.142 3.357 7.5 7.5 7.5zm-457.238 45.403v-34.548h201.238v11.023h-114.133c-4.143 0-7.5 3.357-7.5 7.5s3.357 7.5 7.5 7.5h114.133v11.024h-198.738c-1.379.001-2.5-1.12-2.5-2.499zm414.976 2.5h-198.738v-11.024h74.435c4.143 0 7.5-3.357 7.5-7.5s-3.357-7.5-7.5-7.5h-74.435v-11.023h145.854c4.143 0 7.5-3.357 7.5-7.5s-3.357-7.5-7.5-7.5h-145.854v-228.247c0-17.921 14.579-32.5 32.5-32.5h166.238c1.379 0 2.5 1.121 2.5 2.5v258.246h-26.284c-4.143 0-7.5 3.357-7.5 7.5s3.357 7.5 7.5 7.5h26.284v11.023h-71.055c-4.143 0-7.5 3.357-7.5 7.5s3.357 7.5 7.5 7.5h71.055v8.524c0 1.38-1.121 2.501-2.5 2.501z"/><path d="m85.288 137.5c-1.9 3.397-1.817 7.569.218 10.886l13.526 22.058-13.525 22.057c-2.036 3.318-2.119 7.49-.218 10.888s5.501 5.508 9.394 5.508h27.928l16.092 26.243c1.973 3.217 5.404 5.138 9.178 5.138s7.205-1.921 9.178-5.138l16.092-26.243h27.928c3.893 0 7.492-2.11 9.394-5.507s1.819-7.568-.216-10.888l-13.526-22.058 13.526-22.059c2.035-3.318 2.117-7.489.216-10.886s-5.501-5.507-9.394-5.507h-27.928l-16.093-26.243c-1.973-3.217-5.404-5.138-9.178-5.138s-7.205 1.921-9.178 5.138l-16.092 26.243h-27.927c-3.893 0-7.493 2.111-9.395 5.508zm16.958 56.396 5.583-9.105 5.583 9.105zm14.381-23.452 14.381-23.452h33.746l14.381 23.452-14.381 23.453h-33.745zm31.254 50.968-7.675-12.516h15.349zm45.636-27.516h-11.168l5.584-9.106zm-.001-46.904-5.583 9.105-5.583-9.105zm-45.635-27.515 7.675 12.516h-15.349zm-34.468 27.515-5.583 9.105-5.583-9.105z"/><path d="m77.374 263.811c0 4.143 3.357 7.5 7.5 7.5h48.471c4.143 0 7.5-3.357 7.5-7.5s-3.357-7.5-7.5-7.5h-48.471c-4.143 0-7.5 3.357-7.5 7.5z"/><path d="m133.345 281.65h-48.471c-4.143 0-7.5 3.357-7.5 7.5s3.357 7.5 7.5 7.5h48.471c4.143 0 7.5-3.357 7.5-7.5s-3.358-7.5-7.5-7.5z"/><path d="m133.345 306.991h-48.471c-4.143 0-7.5 3.357-7.5 7.5s3.357 7.5 7.5 7.5h48.471c4.143 0 7.5-3.357 7.5-7.5s-3.358-7.5-7.5-7.5z"/><path d="m210.888 256.311h-48.471c-4.143 0-7.5 3.357-7.5 7.5s3.357 7.5 7.5 7.5h48.471c4.143 0 7.5-3.357 7.5-7.5s-3.358-7.5-7.5-7.5z"/><path d="m210.888 281.65h-48.471c-4.143 0-7.5 3.357-7.5 7.5s3.357 7.5 7.5 7.5h48.471c4.143 0 7.5-3.357 7.5-7.5s-3.358-7.5-7.5-7.5z"/><path d="m210.888 306.991h-48.471c-4.143 0-7.5 3.357-7.5 7.5s3.357 7.5 7.5 7.5h48.471c4.143 0 7.5-3.357 7.5-7.5s-3.358-7.5-7.5-7.5z"/><path d="m72.245 100.611h-.103c-4.143 0-7.5 3.357-7.5 7.5s3.357 7.5 7.5 7.5h.103c4.143 0 7.5-3.357 7.5-7.5s-3.357-7.5-7.5-7.5z"/><path d="m94.958 115.611c4.143 0 7.5-3.357 7.5-7.5s-3.357-7.5-7.5-7.5h-.104c-4.143 0-7.5 3.357-7.5 7.5s3.357 7.5 7.5 7.5z"/><path d="m362.424 181.025c0 21.514 17.502 39.017 39.016 39.017s39.017-17.503 39.017-39.017-17.503-39.016-39.017-39.016-39.016 17.503-39.016 39.016zm39.015-24.015c13.243 0 24.017 10.773 24.017 24.016s-10.773 24.017-24.017 24.017c-13.242 0-24.016-10.773-24.016-24.017.001-13.243 10.774-24.016 24.016-24.016z"/><path d="m417.143 115.611h.103c4.143 0 7.5-3.357 7.5-7.5s-3.357-7.5-7.5-7.5h-.103c-4.143 0-7.5 3.357-7.5 7.5s3.357 7.5 7.5 7.5z"/><path d="m439.854 115.611h.104c4.143 0 7.5-3.357 7.5-7.5s-3.357-7.5-7.5-7.5h-.104c-4.143 0-7.5 3.357-7.5 7.5s3.358 7.5 7.5 7.5z"/><path d="m287.244 160.085h28.471c4.143 0 7.5-3.357 7.5-7.5s-3.357-7.5-7.5-7.5h-28.471c-4.143 0-7.5 3.357-7.5 7.5s3.358 7.5 7.5 7.5z"/><path d="m335.715 177.101h-48.471c-4.143 0-7.5 3.357-7.5 7.5s3.357 7.5 7.5 7.5h48.471c4.143 0 7.5-3.357 7.5-7.5s-3.358-7.5-7.5-7.5z"/><path d="m335.715 201.966h-48.471c-4.143 0-7.5 3.357-7.5 7.5s3.357 7.5 7.5 7.5h48.471c4.143 0 7.5-3.357 7.5-7.5s-3.358-7.5-7.5-7.5z"/><path d="m287.244 259.957h28.471c4.143 0 7.5-3.357 7.5-7.5s-3.357-7.5-7.5-7.5h-28.471c-4.143 0-7.5 3.357-7.5 7.5s3.358 7.5 7.5 7.5z"/><path d="m335.715 276.973h-48.471c-4.143 0-7.5 3.357-7.5 7.5s3.357 7.5 7.5 7.5h48.471c4.143 0 7.5-3.357 7.5-7.5s-3.358-7.5-7.5-7.5z"/><path d="m335.715 301.838h-48.471c-4.143 0-7.5 3.357-7.5 7.5s3.357 7.5 7.5 7.5h48.471c4.143 0 7.5-3.357 7.5-7.5s-3.358-7.5-7.5-7.5z"/><path d="m301.479 115.611h68.442c4.143 0 7.5-3.357 7.5-7.5s-3.357-7.5-7.5-7.5h-68.442c-4.143 0-7.5 3.357-7.5 7.5s3.358 7.5 7.5 7.5z"/><path d="m84.874 369.305h-9.354c-4.143 0-7.5 3.357-7.5 7.5s3.357 7.5 7.5 7.5h9.354c4.143 0 7.5-3.357 7.5-7.5s-3.357-7.5-7.5-7.5z"/></g></g></svg>