<svg id="Capa_1" enable-background="new 0 0 512 512" height="512" viewBox="0 0 512 512" width="512" xmlns="http://www.w3.org/2000/svg"><g><g><path d="m491.068 295.39c-18.15 23.5-47.78 57.689-85.879 87.189-25.35 19.62-50.799 34.32-76.149 44.04-169.624-76.576-144.544-294.156-54.53-354.417 43.2 4.28 87.069 23.47 130.679 57.219 38.1 29.5 67.729 63.689 85.879 87.189 17.909 23.19 17.909 55.59 0 78.78z" fill="#ffddcf"/><path d="m329.039 426.618c-24.5 9.38-48.89 14.1-73.039 14.1-49.14 0-99.339-19.56-149.189-58.139-38.1-29.5-67.729-63.689-85.879-87.189-17.91-23.19-17.91-55.589 0-78.779 18.15-23.5 47.78-57.689 85.879-87.189 49.85-38.58 100.049-58.14 149.189-58.14 6.16 0 12.33.31 18.51.92-65.55 100.239-57.06 258.097 54.529 354.416z" fill="#ffcbbe"/><path d="m459.758 273.98c-25.52 33.04-85.959 101.969-160.218 123.079-95.445-51.902-112.763-227.138-44.56-288.397 93.788-.791 174.403 89.928 204.778 129.359 8.17 10.589 8.17 25.369 0 35.959z" fill="#f3f5fc"/><path d="m299.54 397.059c-14.06 4-28.63 6.29-43.54 6.29-93.639 0-173.408-90.069-203.758-129.369-8.17-10.59-8.17-25.37 0-35.96 30.24-39.16 109.539-128.719 202.738-129.359-38.06 88.25-27.97 203.888 44.56 288.398z" fill="#d7ddf5"/><path d="m361.429 256c0 52.509-38.379 96.039-88.609 104.089-64.22-54.344-65.523-159.551-32.06-208.418 4.97-.73 10.06-1.1 15.24-1.1 58.229 0 105.429 47.2 105.429 105.429z" fill="#bd9cde"/><path d="m272.82 360.089c-5.48.88-11.1 1.34-16.82 1.34-58.229 0-105.429-47.2-105.429-105.429 0-53.049 39.18-96.949 90.189-104.329-16.02 67.219-7 143.529 32.06 208.418z" fill="#b18cd9"/></g><g><path d="m256 101.153c-97.056 0-178.979 92.511-209.696 132.286-10.259 13.284-10.259 31.839 0 45.124 30.717 39.773 112.641 132.284 209.696 132.284s178.979-92.511 209.696-132.286c10.26-13.284 10.26-31.839 0-45.123-30.717-39.774-112.64-132.285-209.696-132.285zm197.825 168.24c-29.363 38.021-107.419 126.454-197.825 126.454s-168.461-88.433-197.824-126.453c-6.09-7.886-6.09-18.901 0-26.787 29.363-38.021 107.419-126.454 197.824-126.454s168.461 88.433 197.825 126.454c6.09 7.885 6.09 18.901 0 26.786z"/><path d="m497.002 212.023c-18.412-23.841-48.49-58.553-87.222-88.53-3.725-2.882-7.656-5.804-11.685-8.683-3.367-2.406-8.054-1.629-10.463 1.742-2.408 3.37-1.628 8.054 1.742 10.462 3.874 2.768 7.65 5.574 11.224 8.341 37.478 29.005 66.655 62.688 84.532 85.836 15.827 20.495 15.827 49.123 0 69.618-17.877 23.148-47.054 56.83-84.532 85.836-48.505 37.541-97.155 56.576-144.598 56.576s-96.093-19.035-144.599-56.576c-37.476-29.004-66.654-62.687-84.532-85.836-15.828-20.495-15.828-49.123 0-69.618 17.877-23.149 47.055-56.832 84.531-85.836 48.507-37.541 97.157-56.576 144.6-56.576 34.266 0 69.435 10.026 104.533 29.798 3.611 2.034 8.184.756 10.216-2.853 2.033-3.609.756-8.183-2.853-10.215-37.373-21.055-75.02-31.73-111.896-31.73-50.845 0-102.584 20.09-153.78 59.714-38.731 29.975-68.809 64.688-87.222 88.529-19.998 25.894-19.998 62.062 0 87.956 18.414 23.842 48.493 58.555 87.223 88.53 51.196 39.623 102.935 59.714 153.78 59.714s102.583-20.09 153.78-59.714c38.733-29.977 68.811-64.689 87.222-88.531 19.996-25.893 19.996-62.061-.001-87.954z"/><path d="m256 143.066c-62.272 0-112.934 50.662-112.934 112.934 0 21.658 6.15 42.703 17.787 60.86 2.235 3.487 6.874 4.503 10.361 2.268s4.502-6.874 2.268-10.361c-10.085-15.736-15.416-33.983-15.416-52.766 0-54.001 43.933-97.934 97.934-97.934 47.519 0 87.235 34.02 96.087 78.983-1.445 16.473-7.312 32.291-17.024 45.803-23.323 32.448-68.694 39.875-101.142 16.55-12.25-8.804-20.337-21.851-22.773-36.738s1.071-29.832 9.875-42.081c6.809-9.474 16.901-15.73 28.415-17.614 11.513-1.884 23.074.828 32.547 7.638 7.254 5.214 12.043 12.94 13.486 21.756 1.442 8.816-.635 17.666-5.849 24.92-3.938 5.478-9.772 9.094-16.43 10.184-6.657 1.089-13.34-.479-18.818-4.417-4.057-2.916-6.735-7.237-7.542-12.168-.807-4.93.354-9.88 3.271-13.937 2.417-3.364 1.65-8.05-1.713-10.468-3.363-2.417-8.05-1.65-10.468 1.713-5.254 7.311-7.347 16.23-5.893 25.114 1.454 8.885 6.28 16.671 13.59 21.926 8.731 6.275 19.386 8.777 29.996 7.039 10.611-1.736 19.911-7.501 26.187-16.232 7.553-10.507 10.562-23.327 8.472-36.097s-9.027-23.962-19.535-31.515c-12.727-9.148-28.259-12.79-43.724-10.261-15.468 2.531-29.025 10.935-38.173 23.662-11.142 15.503-15.581 34.417-12.498 53.258s13.319 35.354 28.821 46.496c15.42 11.084 33.252 16.413 50.933 16.413 27.211 0 54.056-12.634 71.122-36.359-14.282 36.432-49.786 62.298-91.221 62.298-22.197 0-43.127-7.24-60.526-20.938-3.254-2.562-7.969-2.001-10.532 1.254-2.562 3.254-2.001 7.97 1.254 10.532 20.069 15.8 44.208 24.152 69.804 24.152 62.272 0 112.934-50.662 112.934-112.934s-50.661-112.933-112.933-112.933z"/></g></g></svg>