<svg id="Capa_1" enable-background="new 0 0 512 512" height="512" viewBox="0 0 512 512" width="512" xmlns="http://www.w3.org/2000/svg"><g><g><g><path d="m504.5 94.251v380.249c0 16.569-13.431 30-30 30h-17.07l-18.89-25.09c-1.6-2.13-3.99-3.53-6.63-3.9l-23.31-3.2c-3.37-.46-6.75.82-8.96 3.41l-7.929 9.261c-1.896 2.214-4.665 3.489-7.581 3.489h-68.48c-3.64 0-6.98 1.97-8.75 5.15l-3.18 5.73c-1.77 3.18-5.11 5.15-8.75 5.15h-257.47c-16.569 0-30-13.431-30-30v-255.22c0-2.66 1.06-5.22 2.95-7.09l22.71-22.56c5.14-5.11 3.31-13.82-3.46-16.43l-15.79-6.07c-3.86-1.49-6.41-5.2-6.41-9.34v-120.29c0-16.569 13.431-30 30-30h378.792c2.62 0 5.135 1.028 7.005 2.863l12.566 12.333c1.87 1.835 4.385 2.863 7.005 2.863h14.982c2.242 0 4.419.753 6.181 2.139l11.481 9.028c2.411 1.896 3.819 4.794 3.819 7.861v28.432c0 4.848 3.478 8.998 8.251 9.846l8.667 1.539c4.773.848 8.251 4.998 8.251 9.847z" fill="#fcac8d"/><path d="m504.5 94.25v380.25c0 16.57-13.43 30-30 30h-17.07l-4.06-5.4c7.76-5.41 12.84-14.41 12.84-24.6v-380.25c0-4.85-3.48-9-8.25-9.85l-8.67-1.53c-4.77-.85-8.25-5-8.25-9.85v-28.43c0-3.07-1.41-5.97-3.82-7.86l-11.48-9.03c-1.76-1.39-3.94-2.14-6.18-2.14h-14.98c-2.62 0-5.14-1.03-7.01-2.86l-12.56-12.34c-1.87-1.83-4.39-2.86-7.01-2.86h38.29c2.62 0 5.14 1.03 7.01 2.86l12.56 12.34c1.87 1.83 4.39 2.86 7.01 2.86h14.98c2.24 0 4.42.75 6.18 2.14l11.48 9.03c2.41 1.89 3.82 4.79 3.82 7.86v28.43c0 4.85 3.48 9 8.25 9.85l8.67 1.53c4.77.85 8.25 5 8.25 9.85z" fill="#fb946d"/></g><path d="m256 431.869c-20.678 0-37.5-16.822-37.5-37.5v-69.525c-.451-7.222-3.61-51.205-15.836-94.465-13.516-47.821-32.489-75.249-52.057-75.249-7.088 0-12.854 5.766-12.854 12.854s5.767 12.854 12.854 12.854c20.678 0 37.5 16.822 37.5 37.5s-16.822 37.5-37.5 37.5c-48.443 0-87.854-39.411-87.854-87.854s39.411-87.854 87.854-87.854c33.692 0 63.647 16.38 86.627 47.368 6.79 9.156 13.056 19.705 18.766 31.578 5.71-11.873 11.976-22.422 18.766-31.578 22.979-30.988 52.935-47.368 86.627-47.368 48.443 0 87.854 39.411 87.854 87.854s-39.411 87.854-87.854 87.854c-20.678 0-37.5-16.822-37.5-37.5s16.822-37.5 37.5-37.5c7.088 0 12.854-5.766 12.854-12.854s-5.767-12.854-12.854-12.854c-19.567 0-38.541 27.427-52.057 75.249-12.223 43.248-15.385 87.24-15.836 94.463v69.527c0 20.678-16.822 37.5-37.5 37.5z" fill="#fb946d"/><path d="m361.393 100.131c-27.493 0-51.234 13.216-70.563 39.281-13.951 18.813-25.582 44.564-34.57 76.539-.088.313-.173.625-.26.937-.087-.313-.172-.625-.26-.937-8.988-31.975-20.62-57.727-34.57-76.539-19.329-26.065-43.069-39.281-70.563-39.281-37.415 0-67.854 30.439-67.854 67.854s30.439 67.854 67.854 67.854c9.665 0 17.5-7.835 17.5-17.5s-7.835-17.5-17.5-17.5c-18.116 0-32.854-14.738-32.854-32.854s14.738-32.854 32.854-32.854c20.949 0 50.324 15.581 71.303 89.809 13.214 46.755 16.306 94.477 16.59 99.297v70.132c0 9.665 7.835 17.5 17.5 17.5s17.5-7.835 17.5-17.5v-70.134c.288-4.874 3.384-52.567 16.59-99.295 20.979-74.228 50.354-89.809 71.303-89.809 18.116 0 32.854 14.738 32.854 32.854s-14.738 32.854-32.854 32.854c-9.665 0-17.5 7.835-17.5 17.5s7.835 17.5 17.5 17.5c37.415 0 67.854-30.439 67.854-67.854.001-37.415-30.439-67.854-67.854-67.854z" fill="#fb5532"/><path d="m361.39 100.13c-27.49 0-51.23 13.22-70.56 39.28-13.95 18.81-25.58 44.57-34.57 76.54-.09.31-.17.63-.26.94-.09-.31-.17-.63-.26-.94-8.99-31.97-20.62-57.73-34.57-76.54-19.33-26.06-43.07-39.28-70.56-39.28-37.42 0-67.86 30.44-67.86 67.85 0 3.74.3 7.41.89 10.99 5.26-32.22 33.29-56.88 66.97-56.88 27.49 0 51.23 13.22 70.56 39.28 12.972 17.501 23.925 41.025 32.627 69.942.293.973 1.187 1.646 2.203 1.646 1.016 0 1.91-.673 2.203-1.646 8.702-28.917 19.655-52.441 32.627-69.942 19.33-26.06 43.07-39.28 70.56-39.28 33.68 0 61.71 24.66 66.97 56.88.59-3.58.89-7.25.89-10.99 0-37.41-30.44-67.85-67.86-67.85z" fill="#ec462e"/></g><g><path d="m497.56 77.02-8.667-1.539c-1.195-.212-2.063-1.247-2.063-2.461v-28.432c0-5.402-2.436-10.416-6.683-13.757l-11.48-9.027c-3.07-2.414-6.912-3.743-10.817-3.743h-14.981c-.659 0-1.281-.254-1.751-.716l-12.567-12.334c-3.292-3.232-7.646-5.011-12.259-5.011h-378.792c-20.678 0-37.5 16.822-37.5 37.5v120.29c0 7.184 4.504 13.748 11.219 16.341l15.783 6.067c1.109.428 1.451 1.326 1.555 1.824.104.496.154 1.454-.683 2.286l-22.7 22.551c-3.288 3.255-5.174 7.783-5.174 12.421v255.22c0 20.678 16.822 37.5 37.5 37.5h155.36c4.142 0 7.5-3.357 7.5-7.5s-3.358-7.5-7.5-7.5h-155.36c-12.407 0-22.5-10.094-22.5-22.5v-125.046l35.388 3.59c.253.025.505.038.757.038 1.885 0 3.712-.711 5.106-2.008l4.183-3.889 6.839 8.461c1.482 1.833 3.65 2.785 5.837 2.785 1.656 0 3.322-.545 4.71-1.667 3.222-2.604 3.722-7.326 1.119-10.548l-7.493-9.27.854-.794c3.034-2.82 3.206-7.565.386-10.6-2.82-3.033-7.566-3.208-10.6-.385l-13.563 12.609-33.523-3.399v-115.097c0-.662.265-1.304.736-1.77l22.712-22.563c4.224-4.199 6.013-10.186 4.788-16.013-1.226-5.829-5.277-10.589-10.844-12.736l-15.78-6.066c-.965-.371-1.612-1.313-1.612-2.342v-120.29c0-12.406 10.093-22.5 22.5-22.5h122.988l2.418 11.438c.445 2.105 1.774 3.918 3.647 4.978l19.428 10.981c1.166.659 2.433.972 3.684.972 2.616 0 5.157-1.37 6.536-3.811 2.038-3.605.767-8.182-2.839-10.22l-16.48-9.315-1.062-5.023h240.472c.659 0 1.281.254 1.751.716l12.566 12.334c3.292 3.231 7.646 5.011 12.258 5.011h14.981c.558 0 1.107.189 1.545.534l11.48 9.027c.607.478.956 1.193.956 1.966v28.432c0 8.498 6.073 15.744 14.44 17.23l8.667 1.539c1.195.212 2.063 1.247 2.063 2.461v187.818c0 4.143 3.358 7.5 7.5 7.5s7.5-3.357 7.5-7.5v-187.818c.001-8.498-6.072-15.744-14.439-17.23z"/><path d="m504.5 303.67c-4.142 0-7.5 3.357-7.5 7.5v163.33c0 12.406-10.093 22.5-22.5 22.5h-13.329l-16.635-22.095c-2.774-3.692-6.997-6.18-11.606-6.826l-23.314-3.199c-5.936-.815-11.798 1.42-15.673 5.962l-7.93 9.262c-.472.551-1.158.866-1.883.866h-17.859l-9.834-16.676 21.99-34.123c1.059-1.643 1.435-3.634 1.047-5.55l-1.328-6.564 9.371-2.426c4.01-1.038 6.419-5.131 5.381-9.141s-5.129-6.418-9.141-5.381l-8.591 2.224-.762-3.764c-.821-4.059-4.775-6.677-8.838-5.864-4.06.822-6.685 4.779-5.864 8.839l4.464 22.063-5.25 8.146-5.9-6.099c-2.881-2.977-7.627-3.056-10.605-.176-2.977 2.88-3.056 7.628-.176 10.605l8.337 8.618-9.251 14.355c-1.536 2.384-1.597 5.43-.156 7.872l7.69 13.041h-33.205c-6.349 0-12.213 3.45-15.308 9.011l-3.176 5.722c-.445.801-1.287 1.298-2.196 1.298h-73.009c-4.142 0-7.5 3.357-7.5 7.5s3.358 7.5 7.5 7.5h73.009c6.349 0 12.213-3.45 15.308-9.011l3.176-5.722c.445-.801 1.287-1.298 2.196-1.298h68.48c5.113 0 9.953-2.228 13.277-6.111l7.938-9.271c.552-.646 1.39-.963 2.235-.847l23.289 3.196c.668.093 1.278.449 1.68.983l18.89 25.09c1.417 1.883 3.636 2.989 5.992 2.989h17.07c20.678 0 37.5-16.822 37.5-37.5v-163.328c-.001-4.143-3.359-7.5-7.501-7.5z"/><path d="m231 324.461v69.908c0 13.785 11.215 25 25 25s25-11.215 25-25v-69.91c.372-6.141 3.507-52.187 16.308-97.479 9.094-32.177 20.489-55.594 33.868-69.599 9.35-9.787 19.516-14.75 30.217-14.75 13.98 0 25.354 11.373 25.354 25.354s-11.374 25.354-25.354 25.354c-13.785 0-25 11.215-25 25s11.215 25 25 25c41.551 0 75.354-33.804 75.354-75.354s-33.804-75.354-75.354-75.354c-29.999 0-55.766 14.236-76.587 42.313-11.095 14.962-20.748 34.04-28.808 56.898-5.982-16.957-12.853-31.866-20.52-44.511-2.147-3.543-6.759-4.673-10.302-2.524-3.542 2.147-4.671 6.76-2.524 10.302 10.136 16.714 18.839 37.867 25.868 62.872l.254.917c.902 3.245 3.857 5.49 7.226 5.49s6.323-2.245 7.226-5.49l.255-.918c8.74-31.093 19.969-56.024 33.375-74.101 17.836-24.054 39.55-36.249 64.538-36.249 33.28 0 60.354 27.074 60.354 60.354s-27.075 60.354-60.354 60.354c-5.514 0-10-4.486-10-10s4.486-10 10-10c22.251 0 40.354-18.103 40.354-40.354s-18.103-40.354-40.354-40.354c-23.537 0-56.266 16.528-78.52 95.269-13.397 47.403-16.545 95.559-16.86 100.894-.009.146-.013.294-.013.441v70.135c0 5.514-4.486 10-10 10s-10-4.486-10-10v-70.132c0-.147-.004-.294-.013-.441-.314-5.334-3.459-53.48-16.86-100.896-22.254-78.74-54.983-95.269-78.52-95.269-22.251 0-40.354 18.103-40.354 40.354 0 22.252 18.103 40.354 40.354 40.354 5.514 0 10 4.486 10 10s-4.486 10-10 10c-33.28 0-60.354-27.075-60.354-60.354s27.075-60.354 60.354-60.354c20.998 0 39.743 8.627 55.715 25.642 2.836 3.021 7.581 3.172 10.602.335 3.02-2.835 3.17-7.581.335-10.601-18.921-20.156-41.346-30.376-66.652-30.376-41.551 0-75.354 33.804-75.354 75.354 0 41.551 33.804 75.354 75.354 75.354 13.785 0 25-11.215 25-25s-11.215-25-25-25c-13.98 0-25.354-11.374-25.354-25.354s11.374-25.354 25.354-25.354c10.701 0 20.868 4.963 30.217 14.75 13.379 14.005 24.774 37.422 33.868 69.599 12.804 45.305 15.936 91.342 16.307 97.481z"/><path d="m138.71 291.625c-4.142 0-7.5 3.357-7.5 7.5s3.358 7.5 7.5 7.5h.104c4.142 0 7.5-3.357 7.5-7.5s-3.358-7.5-7.5-7.5z"/><path d="m174.853 308.237h-.104c-4.142 0-7.5 3.357-7.5 7.5s3.358 7.5 7.5 7.5h.104c4.142 0 7.5-3.357 7.5-7.5s-3.358-7.5-7.5-7.5z"/><path d="m401.055 437.264h-.104c-4.142 0-7.5 3.357-7.5 7.5s3.358 7.5 7.5 7.5h.104c4.142 0 7.5-3.357 7.5-7.5s-3.358-7.5-7.5-7.5z"/><path d="m82.701 418.608c-4.142 0-7.5 3.357-7.5 7.5s3.358 7.5 7.5 7.5h.104c4.142 0 7.5-3.357 7.5-7.5s-3.358-7.5-7.5-7.5z"/><path d="m414.889 375.044c4.142 0 7.5-3.357 7.5-7.5v-10.136c0-2.197-.964-4.285-2.637-5.71l-13.886-11.826c-3.153-2.686-7.887-2.307-10.573.847s-2.307 7.888.847 10.573l11.249 9.58v6.672c0 4.143 3.358 7.5 7.5 7.5z"/><path d="m277.235 67.666c2.052 0 4.096-.837 5.577-2.482l7.602-8.446c2.771-3.079 2.521-7.821-.557-10.592-3.08-2.771-7.821-2.522-10.592.557l-7.602 8.446c-2.771 3.079-2.521 7.821.557 10.592 1.433 1.289 3.227 1.925 5.015 1.925z"/></g></g></svg>