<svg id="Capa_1" enable-background="new 0 0 512 512" height="512" viewBox="0 0 512 512" width="512" xmlns="http://www.w3.org/2000/svg"><g><path d="m466 512v-361h-150v-151h-270v361h150v151zm-240-30v-27.42c12.764 4.527 22.893 14.656 27.42 27.42zm210 0h-27.42c4.527-12.764 14.656-22.893 27.42-27.42zm0-301v27.42c-12.764-4.527-22.893-14.656-27.42-27.42zm-120 0h61.509c5.98 29.344 29.147 52.51 58.491 58.491v184.019c-29.344 5.98-52.51 29.147-58.491 58.491h-93.019c-5.98-29.344-29.147-52.51-58.491-58.491v-62.51h90v-180zm-57.42 150c4.527-12.764 14.656-22.893 27.42-27.42v27.42zm27.42-301v27.42c-12.764-4.527-22.893-14.656-27.42-27.42zm-210-.01 27.42.01c-4.527 12.764-14.656 22.893-27.42 27.42zm0 301.01v-27.42c12.764 4.527 22.893 14.656 27.42 27.42zm58.491 0c-5.98-29.344-29.147-52.51-58.491-58.491v-184.018c29.344-5.98 52.51-29.147 58.491-58.491h93.019c5.98 29.344 29.147 52.51 58.491 58.491v184.019c-29.344 5.98-52.51 29.147-58.491 58.491h-93.019z"/><path d="m235.152 181 20.883-43.321-47.959-3.576-27.076-39.746-27.076 39.746-47.959 3.576 20.883 43.321-20.883 43.321 47.959 3.576 27.076 39.746 27.076-39.746 47.959-3.576zm-25.263 16.679-18.465 1.376-10.424 15.302-10.424-15.302-18.465-1.376 8.041-16.679-8.041-16.679 18.465-1.376 10.424-15.302 10.424 15.302 18.465 1.376-8.041 16.679z"/></g></svg>