<svg id="Capa_1" enable-background="new 0 0 512 512" height="512" viewBox="0 0 512 512" width="512" xmlns="http://www.w3.org/2000/svg"><g><g><path d="m429.19 146.829-10.04 9.87c-14.502-7.914-26.144-17.646-37.394-28.906-10.25-10.25-22.731-23.206-25.466-35.034l8.94-8.79c17.67-17.36 46.3-17.36 63.96 0s17.66 45.5 0 62.86z" fill="#fbf198"/><path d="m419.15 156.699-29.84 29.33c-15.87-25.76-37.39-47.66-62.85-63.95l29.83-29.32c11.65 8.12 22.66 17.34 32.91 27.59 11.25 11.26 21.26 23.43 29.95 36.35z" fill="#fad989"/><path d="m429.84 290.879c0 26.12-4.76 51.18-13.43 74.27-13.24 22.19-74.7 88.54-86.91 105.52-15.56 9.61-32.45 17.26-50.35 22.59-168.143-59.721-194.79-330.738-77.38-412.88 5.58-.45 11.21-.67 16.9-.67 116.63 0 211.17 94.54 211.17 211.17z" fill="#bd9cde"/><path d="m279.15 493.259c-19.16 5.72-39.46 8.79-60.48 8.79-116.63 0-211.17-94.55-211.17-211.17 0-110.94 85.54-201.9 194.27-210.5-76.55 117.93-62.99 305.63 77.38 412.88z" fill="#b18cd9"/><path d="m186.09 321.889c-6.12-26.1 3.8-54.02 24.72-70.47 13.65-10.73 33.85-3.81 38.19 13 2.38 9.2-.92 18.9-8.32 24.88-7.68 6.21-9.23 14.86-7.63 21.81 2.56 11.16 13.26 20.6 36.23 16.85 30.99-5.03 45.72-34.28 42.54-62.78-4.73-42.58-47.91-71-91.14-64.05-26 4.18-48.91 17.38-65.15 37.39-9.856-22.195-5.495-51.116 8.36-68.35 15.08-8.15 31.63-13.79 49.13-16.61 69.31-11.15 138.37 34.9 146.33 103.7 6.55 56.68-24.96 108.5-81.03 118.03-50.47 8.57-84.25-19.36-92.23-53.4z" fill="#fbf198"/><path d="m416.41 365.149c-16.55 44.06-47.42 81.12-86.91 105.52-21.63 7.69-44.01 10.76-66.04 9.82-29.188-11.683-58.338-41.292-55.22-62.43 24.99 12.26 54 17.2 83.63 12.44 29.5-4.75 79.96-15.74 124.54-65.35z" fill="#fbf198"/><path d="m263.46 480.489c-84.24-3.61-163.49-65.9-177.04-153.31-6.58-39.47 2.72-79.18 26.17-111.82 13.68-19.02 31.19-34.34 51.3-45.19-5.22 22.11-8.06 45.08-8.36 68.35-1.33 1.61-2.59 3.26-3.81 4.96-15.92 22.15-22.23 49.06-17.79 75.78 7.39 44.33 36.17 80.09 74.31 98.8 15 22.44 33.35 43.48 55.22 62.43z" fill="#fad989"/></g><g><path d="m428.874 269.352c-4.134.271-7.265 3.842-6.992 7.976.305 4.641.459 9.195.46 13.63.296 23.872-4.046 47.69-12.477 70.21-40.354 44.328-84.85 56.387-119.184 61.912-70.809 11.377-137.803-35.751-149.35-105.063-4.118-24.743 1.733-49.663 16.478-70.17 15.208-21.164 37.96-35.13 64.062-39.327 20.267-3.254 41.158 1.925 57.315 14.217 14.352 10.918 23.296 26.282 25.185 43.262 2.644 23.745-8.976 50.106-36.299 54.548-15.413 2.514-25.518-1.542-27.715-11.126-.596-2.593-1.295-9.179 5.043-14.301 9.692-7.838 13.957-20.63 10.866-32.59-2.686-10.387-10.361-18.641-20.532-22.078-10.123-3.42-21.171-1.529-29.554 5.06-23.439 18.426-34.189 49.073-27.388 78.077 4.578 19.526 16.444 36.312 33.413 47.265 18.659 12.044 41.958 16.13 67.372 11.813 28.668-4.87 53.17-20.703 68.992-44.58 15.195-22.933 21.67-51.947 18.229-81.698-3.834-33.142-21.2-62.943-48.899-83.915-30.04-22.744-68.704-32.341-106.068-26.328-42.823 6.893-80.229 29.914-105.327 64.824-24.627 34.27-34.388 75.973-27.496 117.346 8.384 54.064 41.6 102.011 91.13 131.546 31.109 18.55 65.521 28.107 99.67 28.309-16.696 4.391-33.9 6.582-51.137 6.363-68.607 0-132.181-34.233-170.057-91.574-2.283-3.456-6.936-4.408-10.392-2.124-3.456 2.283-4.407 6.936-2.124 10.392 40.66 61.557 108.912 98.307 182.478 98.306 57.336.955 113.861-23.313 154.449-64.184 40.858-40.532 65.26-97.251 64.316-154.486 0-4.668-.165-9.554-.491-14.521-.272-4.133-3.86-7.253-7.976-6.991zm-66.455 165.391c-11.282 11.28-23.736 21.11-37.015 29.379-47.91 16.484-101.595 10.279-147.583-17.144-45.68-27.239-76.293-71.327-84.003-121.044-6.244-37.488 2.588-75.208 24.867-106.21 22.75-31.644 56.677-52.515 95.529-58.769 33.347-5.364 67.839 3.192 94.632 23.478 24.403 18.477 39.693 44.643 43.053 73.679 6.377 55.153-25.095 101.316-74.833 109.767-47.898 8.136-76.945-19.032-83.67-47.714-5.392-22.99 3.472-48.251 22.054-62.859 4.452-3.499 10.095-4.462 15.482-2.643 5.437 1.837 9.377 6.073 10.811 11.621 1.624 6.282-.643 13.022-5.772 17.17-8.959 7.24-12.785 18.201-10.234 29.32 3.192 13.921 16.619 27.164 44.746 22.578 36.563-5.944 52.224-40.223 48.797-71.012-2.347-21.099-13.36-40.113-31.011-53.541-19.408-14.765-44.475-20.991-68.777-17.089-30.075 4.835-56.307 20.953-73.862 45.382-17.091 23.772-23.871 52.676-19.094 81.388 11.607 69.671 73.254 119.297 142.994 119.295 7.763 0 15.629-.615 23.534-1.886 26.524-4.268 62.919-13.079 98.577-39.856-8.242 13.163-18.021 25.511-29.222 36.71z"/><path d="m509.849 4.68c-2.903-2.955-7.653-2.993-10.605-.092l-70.429 69.221c-20.612-15.223-50.09-13.631-68.838 4.795l-26.573 26.117c-34.298-21.107-74.174-32.527-114.734-32.527-58.409 0-113.321 22.746-154.623 64.047-41.301 41.302-64.047 96.215-64.047 154.624 0 30.796 6.289 60.592 18.691 88.56 1.241 2.798 3.984 4.461 6.86 4.461 1.016 0 2.049-.208 3.036-.646 3.787-1.679 5.495-6.11 3.816-9.896-11.548-26.041-17.403-53.791-17.403-82.479 0-112.304 91.366-203.67 203.67-203.67 94.954 0 176.47 64.456 198.23 156.746.951 4.032 4.991 6.529 9.021 5.579 4.031-.951 6.528-4.989 5.578-9.021-5.079-21.54-13.495-42.155-24.753-61.106l27.702-27.227c9.989-9.817 15.49-22.879 15.49-36.78 0-11.343-3.666-22.126-10.441-31.044l70.259-69.053c2.955-2.906 2.997-7.655.093-10.609zm-85.913 136.786-25.459 25.023c-12.008-17.348-26.523-33.008-43.131-46.324-3-2.405-6.067-4.716-9.183-6.952l24.328-23.911c14.737-14.482 38.712-14.481 53.445 0 7.096 6.974 11.004 16.237 11.004 26.082-.001 9.845-3.909 19.108-11.004 26.082z"/></g></g></svg>