<svg id="Capa_1" enable-background="new 0 0 512 512" height="512" viewBox="0 0 512 512" width="512" xmlns="http://www.w3.org/2000/svg"><g><g><path d="m38.467 54.6h31.172v402.8h-31.172z" fill="#5b778f"/><g><path d="m91.753 256c0 16.07-10.05 29.78-24.21 35.21-33.17-12.185-33.452-56.961-11.02-72.83 19.67 1.27 35.23 17.63 35.23 37.62z" fill="#fbf198"/><path d="m67.543 291.21c-4.19 1.61-8.74 2.49-13.49 2.49-20.82 0-37.7-16.88-37.7-37.7s16.88-37.7 37.7-37.7c.83 0 1.65.03 2.47.08-11.31 21.59-9.15 52.07 11.02 72.83z" fill="#fad989"/></g><path d="m442.361 54.6h31.172v402.8h-31.172z" fill="#6a829a"/><g><path d="m495.65 256c0 16.07-10.05 29.78-24.21 35.21-33.17-12.185-33.452-56.961-11.02-72.83 19.67 1.27 35.23 17.63 35.23 37.62z" fill="#fbf198"/><path d="m471.44 291.21c-4.19 1.61-8.74 2.49-13.49 2.49-20.82 0-37.7-16.88-37.7-37.7s16.88-37.7 37.7-37.7c.83 0 1.65.03 2.47.08-11.31 21.59-9.15 52.07 11.02 72.83z" fill="#fad989"/></g><path d="m337.94 256c0 21.53 15.24 40.48 31.72 54.89 21.36 18.68 33.61 45.67 33.61 74.05v72.46h-54.25c-139.575-100.226-145.13-330.108-69.11-402.8h123.36v72.46c0 28.38-12.25 55.37-33.61 74.05-16.48 14.41-31.72 33.36-31.72 54.89z" fill="#83deff"/><path d="m349.02 457.4h-240.29v-72.46c0-28.38 12.25-55.37 33.61-74.05 16.48-14.41 31.72-33.36 31.72-54.89s-15.24-40.48-31.72-54.89c-21.36-18.68-33.61-45.67-33.61-74.05v-72.46h171.18c-55.03 123.06-39.36 287.48 69.11 402.8z" fill="#2ecefb"/><path d="m353.93 412.48v44.92h-4.91c-54.4-29.908-93.1-93.803-83.02-142.34 49.38 5.01 87.93 46.72 87.93 97.42z" fill="#fbf198"/><path d="m349.02 457.4h-190.95v-44.92c0-54.08 43.85-97.93 97.93-97.93 3.38 0 6.71.17 10 .51 15.9 51.08 43.21 100.02 83.02 142.34z" fill="#fad989"/><path d="m337.82 153.33c-8.98 13.62-21.26 24.87-35.71 32.6-13.81 7.38-22.53 21.65-22.53 37.3v16.79c0 12.87-10.31 23.33-23.12 23.58-.87.02-1.74-.02-2.59-.11-17.284-41.975-14.985-110.744 2.05-132.73h69.84c11.59 0 18.43 12.89 12.06 22.57z" fill="#fbf198"/><path d="m253.87 263.49c-12.02-1.13-21.45-11.66-21.45-24.01v-16.25c0-15.65-8.72-29.92-22.53-37.3-14.45-7.73-26.73-18.98-35.71-32.6-6.37-9.68.47-22.57 12.06-22.57h69.68c-8.38 42.83-9.3 88.02-2.05 132.73z" fill="#fad989"/><path d="m495.65 37.68c0 16.66-13.51 30.17-30.18 30.17h-191.14c-2.837-26.306 9.496-47.209 31.52-60.35h159.62c16.67 0 30.18 13.51 30.18 30.18z" fill="#bd9cde"/><path d="m305.85 7.5c-12.5 18.72-23.05 38.99-31.52 60.35h-227.8c-16.67 0-30.18-13.51-30.18-30.17 0-16.67 13.51-30.18 30.18-30.18h259.32z" fill="#b18cd9"/><path d="m495.65 474.32c0 16.67-13.51 30.18-30.18 30.18h-62.93c-34.235-12.825-61.455-38.326-65.4-60.35h128.33c16.67 0 30.18 13.51 30.18 30.17z" fill="#bd9cde"/><path d="m402.54 504.5h-356.01c-16.67 0-30.18-13.51-30.18-30.18 0-16.66 13.51-30.17 30.18-30.17h290.61c18.65 21.85 40.4 42.15 65.4 60.35z" fill="#b18cd9"/></g><g><path d="m503.148 256c0-16.494-8.885-30.947-22.115-38.841v-145.184c13.03-5.935 22.115-19.072 22.115-34.298 0-20.776-16.901-37.677-37.675-37.677h-418.946c-20.774 0-37.675 16.901-37.675 37.676 0 15.227 9.085 28.363 22.115 34.298v145.185c-13.231 7.894-22.115 22.347-22.115 38.841s8.885 30.947 22.115 38.841v145.185c-13.03 5.935-22.115 19.072-22.115 34.298 0 20.775 16.901 37.676 37.675 37.676h418.945c20.774 0 37.676-16.901 37.676-37.676 0-15.227-9.085-28.363-22.115-34.298v-145.185c13.231-7.894 22.115-22.347 22.115-38.841zm-45.201 30.201c-16.653 0-30.201-13.548-30.201-30.201s13.548-30.201 30.201-30.201 30.201 13.548 30.201 30.201-13.547 30.201-30.201 30.201zm-47.177 150.447v-51.71c0-30.541-13.185-59.587-36.173-79.692-19.348-16.922-29.157-33.49-29.157-49.245s9.81-32.323 29.157-49.245c22.988-20.105 36.173-49.152 36.173-79.692v-51.71h24.092v141.807c-13.231 7.894-22.115 22.347-22.115 38.841s8.885 30.947 22.115 38.841v141.807h-24.092zm55.263-225.11c-2.626-.476-5.325-.739-8.086-.739s-5.46.262-8.086.739v-136.186h15.611c.188 0 .373-.011.561-.014zm-442.181-173.862c0-12.504 10.171-22.676 22.675-22.676h418.945c12.504 0 22.676 10.172 22.676 22.676 0 12.503-10.172 22.676-22.676 22.676h-104.951c-4.143 0-7.5 3.358-7.5 7.5s3.357 7.5 7.5 7.5h35.248v51.71c0 26.213-11.316 51.145-31.048 68.401-22.748 19.896-34.282 40.264-34.282 60.536s11.534 40.64 34.282 60.536c19.731 17.257 31.048 42.188 31.048 68.401v51.71h-34.342v-24.167c0-58.133-47.295-105.427-105.428-105.427-20.148 0-39.737 5.706-56.649 16.501-3.491 2.229-4.516 6.866-2.287 10.357 2.229 3.492 6.866 4.514 10.357 2.287 14.497-9.253 31.296-14.145 48.579-14.145 49.862 0 90.428 40.565 90.428 90.427v24.167h-180.855v-24.167c0-19.766 6.263-38.541 18.111-54.295 2.489-3.31 1.824-8.012-1.486-10.502s-8.013-1.824-10.502 1.486c-13.818 18.374-21.123 40.267-21.123 63.311v24.167h-34.342v-51.71c0-26.213 11.316-51.145 31.048-68.401 22.748-19.896 34.282-40.264 34.282-60.536s-11.534-40.64-34.282-60.536c-19.731-17.257-31.048-42.188-31.048-68.401v-51.71h209.291c4.143 0 7.5-3.358 7.5-7.5s-3.357-7.5-7.5-7.5h-278.994c-12.504 0-22.675-10.172-22.675-22.676zm53.287 398.972v-141.807c13.231-7.894 22.115-22.347 22.115-38.841s-8.885-30.947-22.115-38.841v-141.807h24.092v51.71c0 30.541 13.185 59.587 36.173 79.692 19.348 16.922 29.157 33.49 29.157 49.245s-9.81 32.323-29.157 49.245c-22.988 20.105-36.173 49.152-36.173 79.692v51.71h-24.092zm-31.172-361.31c.187.003.373.014.561.014h15.611v136.185c-2.626-.476-5.325-.739-8.086-.739s-5.46.262-8.086.739zm8.086 150.461c16.653 0 30.201 13.548 30.201 30.201s-13.548 30.201-30.201 30.201-30.201-13.548-30.201-30.201 13.547-30.201 30.201-30.201zm-8.086 74.663c2.626.476 5.325.739 8.086.739s5.46-.262 8.086-.739v136.185h-15.612c-.188 0-.373.011-.561.014v-136.199zm442.181 173.862c0 12.504-10.172 22.676-22.676 22.676h-418.945c-12.504 0-22.676-10.172-22.676-22.676 0-12.503 10.172-22.676 22.676-22.676h418.945c12.505 0 22.676 10.172 22.676 22.676zm-22.115-37.662c-.187-.003-.373-.014-.561-.014h-15.611v-136.186c2.626.476 5.325.739 8.086.739s5.46-.262 8.086-.739z"/><path d="m186.24 123.262c-8.095 0-15.505 4.421-19.34 11.539-3.857 7.162-3.468 15.841 1.018 22.651 9.672 14.682 22.964 26.814 38.438 35.087 11.448 6.122 18.561 17.882 18.561 30.693v16.251c-.333 16.873 14.72 32.323 31.683 31.61 16.81-.319 30.485-14.261 30.485-31.079v-16.783c0-12.811 7.112-24.571 18.561-30.692 15.474-8.273 28.765-20.405 38.438-35.087 4.485-6.81 4.875-15.49 1.018-22.651-3.835-7.118-11.245-11.539-19.34-11.539zm145.654 18.654c1.257 2.333 1.13 5.056-.338 7.286-8.302 12.601-19.707 23.013-32.983 30.111-16.339 8.735-26.488 25.565-26.488 43.92v16.783c0 8.702-7.074 15.916-15.771 16.082-8.778.374-16.591-7.9-16.397-16.613v-16.251c0-18.355-10.149-35.185-26.488-43.921-13.276-7.098-24.683-17.51-32.983-30.11-1.468-2.229-1.595-4.953-.338-7.286.592-1.098 2.374-3.653 6.134-3.653h139.52c3.758-.002 5.54 2.553 6.132 3.652z"/></g></g></svg>