<svg id="Capa_1" enable-background="new 0 0 512 512" height="512" viewBox="0 0 512 512" width="512" xmlns="http://www.w3.org/2000/svg"><g><g><g><path d="m504.5 94.251v380.249c0 16.569-13.431 30-30 30h-17.07l-18.89-25.09c-1.6-2.13-3.99-3.53-6.63-3.9l-23.31-3.2c-3.37-.46-6.75.82-8.96 3.41l-7.929 9.261c-1.896 2.214-4.665 3.489-7.581 3.489h-68.48c-3.64 0-6.98 1.97-8.75 5.15l-3.18 5.73c-1.77 3.18-5.11 5.15-8.75 5.15h-257.47c-16.569 0-30-13.431-30-30v-255.22c0-2.66 1.06-5.22 2.95-7.09l22.71-22.56c5.14-5.11 3.31-13.82-3.46-16.43l-15.79-6.07c-3.86-1.49-6.41-5.2-6.41-9.34v-120.29c0-16.569 13.431-30 30-30h378.792c2.62 0 5.135 1.028 7.005 2.863l12.566 12.333c1.87 1.835 4.385 2.863 7.005 2.863h14.982c2.242 0 4.419.753 6.181 2.139l11.481 9.028c2.411 1.896 3.819 4.794 3.819 7.861v28.432c0 4.848 3.478 8.998 8.251 9.846l8.667 1.539c4.773.848 8.251 4.998 8.251 9.847z" fill="#fca62f"/><path d="m504.5 94.25v380.25c0 16.57-13.43 30-30 30h-17.07l-4.06-5.4c7.76-5.41 12.84-14.41 12.84-24.6v-380.25c0-4.85-3.48-9-8.25-9.85l-8.67-1.53c-4.77-.85-8.25-5-8.25-9.85v-28.43c0-3.07-1.41-5.97-3.82-7.86l-11.48-9.03c-1.76-1.39-3.94-2.14-6.18-2.14h-14.98c-2.62 0-5.14-1.03-7.01-2.86l-12.56-12.34c-1.87-1.83-4.39-2.86-7.01-2.86h38.29c2.62 0 5.14 1.03 7.01 2.86l12.56 12.34c1.87 1.83 4.39 2.86 7.01 2.86h14.98c2.24 0 4.42.75 6.18 2.14l11.48 9.03c2.41 1.89 3.82 4.79 3.82 7.86v28.43c0 4.85 3.48 9 8.25 9.85l8.67 1.53c4.77.85 8.25 5 8.25 9.85z" fill="#fb9927"/></g><path d="m256 456.057c-88.346 0-160.221-71.875-160.221-160.221 0-47.778 21.379-92.55 57.292-122.707-11.107-9.316-20.964-20.124-29.166-32.054-4.361-6.345-11.447-10.132-18.955-10.132-20.678 0-37.5-16.822-37.5-37.5s16.822-37.5 37.5-37.5c32.213 0 62.404 15.942 80.76 42.646 15.938 23.185 42.214 37.026 70.29 37.026s54.353-13.841 70.29-37.026c18.356-26.703 48.547-42.646 80.76-42.646 20.678 0 37.5 16.822 37.5 37.5s-16.822 37.5-37.5 37.5c-7.508 0-14.594 3.788-18.954 10.131-8.202 11.931-18.06 22.739-29.167 32.055 35.912 30.157 57.292 74.928 57.292 122.707 0 88.346-71.875 160.221-160.221 160.221zm0-245.443c-46.991 0-85.221 38.23-85.221 85.222s38.23 85.221 85.221 85.221 85.221-38.23 85.221-85.221-38.23-85.222-85.221-85.222z" fill="#fb9927"/><path d="m407.05 75.943c-25.625 0-49.655 12.701-64.279 33.975-19.669 28.614-52.107 45.696-86.771 45.696s-67.102-17.083-86.771-45.696c-14.624-21.274-38.654-33.975-64.279-33.975-9.665 0-17.5 7.835-17.5 17.5s7.835 17.5 17.5 17.5c14.096 0 27.343 7.029 35.436 18.802 12.552 18.259 29.016 32.98 47.834 43.376-43.159 23.933-72.441 69.966-72.441 122.715 0 77.318 62.903 140.221 140.221 140.221s140.221-62.903 140.221-140.221c0-52.749-29.283-98.781-72.441-122.715 18.819-10.396 35.283-25.117 47.834-43.376 8.093-11.773 21.34-18.802 35.436-18.802 9.665 0 17.5-7.835 17.5-17.5s-7.835-17.5-17.5-17.5zm-45.829 219.893c0 58.019-47.202 105.221-105.221 105.221s-105.221-47.202-105.221-105.221c0-58.02 47.202-105.222 105.221-105.222s105.221 47.202 105.221 105.222z" fill="#fb6a3b"/><path d="m424.55 93.44c0 4.43-1.64 8.47-4.35 11.55-3.2-3.65-7.9-5.96-13.15-5.96-25.62 0-49.65 12.7-64.28 33.98-19.67 28.61-52.11 45.69-86.77 45.69s-67.1-17.08-86.77-45.69c-14.63-21.28-38.66-33.98-64.28-33.98-5.25 0-9.95 2.31-13.15 5.96-2.71-3.08-4.35-7.12-4.35-11.55 0-9.66 7.83-17.5 17.5-17.5 25.62 0 49.65 12.7 64.28 33.98 19.67 28.61 52.11 45.69 86.77 45.69s67.1-17.08 86.77-45.69c14.63-21.28 38.66-33.98 64.28-33.98 9.67 0 17.5 7.84 17.5 17.5z" fill="#fb5532"/></g><g><path d="m497.56 77.02-8.667-1.539c-1.195-.212-2.063-1.247-2.063-2.461v-28.432c0-5.402-2.436-10.416-6.683-13.757l-11.48-9.027c-3.07-2.414-6.912-3.743-10.817-3.743h-14.981c-.659 0-1.281-.254-1.751-.716l-12.567-12.334c-3.292-3.232-7.646-5.011-12.259-5.011h-378.792c-20.678 0-37.5 16.822-37.5 37.5v120.29c0 7.184 4.504 13.748 11.219 16.341l15.783 6.067c1.109.428 1.451 1.326 1.555 1.824.104.496.154 1.454-.683 2.286l-22.7 22.551c-3.288 3.255-5.174 7.783-5.174 12.421v255.22c0 20.678 16.822 37.5 37.5 37.5h73.855c4.142 0 7.5-3.357 7.5-7.5s-3.358-7.5-7.5-7.5h-73.855c-12.407 0-22.5-10.094-22.5-22.5v-93.163l11.512 2.48 10.982 16.107c1.452 2.13 3.807 3.276 6.204 3.276 1.455 0 2.925-.423 4.218-1.305 3.422-2.333 4.305-6.999 1.972-10.421l-12.67-18.583c-1.083-1.59-2.736-2.702-4.617-3.107l-17.601-3.792v-146.712c0-.662.265-1.304.736-1.77l22.712-22.563c4.224-4.199 6.013-10.186 4.788-16.013-1.226-5.829-5.277-10.589-10.844-12.736l-15.78-6.066c-.965-.371-1.612-1.313-1.612-2.342v-120.29c0-12.406 10.093-22.5 22.5-22.5h142.114l10.634 34.88c.962 3.156 3.874 5.313 7.174 5.313h7.77l1.171 6.736c.634 3.646 3.802 6.216 7.38 6.216.426 0 .859-.036 1.294-.112 4.081-.709 6.813-4.593 6.104-8.674l-.724-4.166h6.569c4.142 0 7.5-3.357 7.5-7.5s-3.358-7.5-7.5-7.5h-24.01l-7.68-25.193h220.997c.659 0 1.281.254 1.751.716l12.566 12.334c3.292 3.231 7.646 5.011 12.258 5.011h14.981c.558 0 1.107.189 1.545.534l11.48 9.027c.607.478.956 1.193.956 1.966v28.432c0 8.498 6.073 15.744 14.44 17.23l8.667 1.539c1.195.212 2.063 1.247 2.063 2.461v44.046l-43.309 26.361-20.139-21.425c-2.836-3.018-7.583-3.164-10.602-.328-3.018 2.837-3.165 7.583-.328 10.602l8.51 9.054-7.6 5.808c-3.291 2.515-3.92 7.222-1.405 10.513 1.476 1.932 3.708 2.946 5.964 2.946 1.588 0 3.189-.502 4.549-1.541l8.818-6.739 5.469 5.818c1.459 1.553 3.452 2.363 5.468 2.363 1.339 0 2.688-.357 3.896-1.094l9.804-5.968v7.049c0 4.143 3.358 7.5 7.5 7.5s7.5-3.357 7.5-7.5v-16.179l15.903-9.68v318.644c0 12.406-10.093 22.5-22.5 22.5h-13.329l-16.635-22.095c-2.774-3.692-6.997-6.18-11.607-6.826l-23.313-3.199c-5.934-.815-11.797 1.42-15.673 5.962l-7.931 9.262c-.471.551-1.158.866-1.883.866h-68.48c-6.349 0-12.213 3.45-15.308 9.011l-3.176 5.722c-.445.801-1.287 1.298-2.196 1.298h-154.511c-4.142 0-7.5 3.357-7.5 7.5s3.358 7.5 7.5 7.5h154.514c6.349 0 12.213-3.45 15.308-9.011l3.176-5.722c.445-.801 1.287-1.298 2.196-1.298h68.48c5.113 0 9.953-2.228 13.277-6.111l7.938-9.271c.552-.646 1.39-.963 2.235-.847l23.288 3.196c.668.093 1.278.449 1.68.983l18.89 25.09c1.417 1.883 3.636 2.989 5.992 2.989h17.07c20.678 0 37.5-16.822 37.5-37.5v-380.249c0-8.498-6.073-15.744-14.44-17.23z"/><path d="m108.279 295.836c0 81.453 66.268 147.721 147.721 147.721s147.721-66.268 147.721-147.721c0-49.432-24.831-95.378-65.564-122.709 15.513-10.402 29.067-23.756 39.638-39.134 6.693-9.736 17.629-15.55 29.255-15.55 13.785 0 25-11.215 25-25s-11.215-25-25-25c-28.096 0-54.436 13.916-70.459 37.226-15.527 22.589-39.981 37.714-67.09 41.497-4.103.572-6.964 4.362-6.392 8.464.573 4.102 4.355 6.974 8.465 6.392 31.269-4.363 59.472-21.806 77.378-47.854 13.225-19.238 34.943-30.724 58.098-30.724 5.514 0 10 4.486 10 10s-4.486 10-10 10c-16.567 0-32.125 8.244-41.617 22.053-11.635 16.926-27.292 31.124-45.28 41.06-2.388 1.319-3.871 3.831-3.874 6.56-.002 2.728 1.477 5.242 3.863 6.564 42.301 23.458 68.579 67.967 68.579 116.156 0 73.183-59.539 132.721-132.721 132.721s-132.721-59.538-132.721-132.721c0-48.189 26.278-92.698 68.579-116.156 2.386-1.322 3.865-3.837 3.863-6.564-.002-2.729-1.485-5.24-3.874-6.56-17.988-9.936-33.646-24.134-45.28-41.059-9.492-13.81-25.05-22.054-41.617-22.054-5.514 0-10-4.486-10-10s4.486-10 10-10c23.155 0 44.874 11.485 58.098 30.724 17.9 26.04 46.093 43.48 77.35 47.851 4.109.567 7.893-2.287 8.466-6.39.574-4.102-2.287-7.893-6.389-8.466-27.099-3.788-51.543-18.912-67.065-41.493-16.024-23.31-42.364-37.226-70.459-37.226-13.785 0-25 11.215-25 25s11.215 25 25 25c11.626 0 22.563 5.813 29.255 15.551 10.571 15.377 24.125 28.73 39.638 39.133-40.734 27.33-65.565 73.276-65.565 122.708z"/><path d="m159.1 308.514c-.534-4.108-4.297-7.005-8.405-6.471-4.107.534-7.004 4.297-6.47 8.405 7.274 55.931 55.327 98.108 111.775 98.108 62.155 0 112.721-50.566 112.721-112.721s-50.566-112.722-112.721-112.722c-27.168 0-53.428 9.84-73.943 27.708-20.308 17.688-33.647 42-37.559 68.46-.606 4.098 2.225 7.91 6.322 8.516 4.105.614 7.911-2.226 8.517-6.322 7.026-47.523 48.583-83.361 96.664-83.361 53.884 0 97.721 43.838 97.721 97.722s-43.838 97.721-97.722 97.721c-48.937 0-90.595-36.561-96.9-85.043z"/><path d="m271.087 107.63h.104c4.142 0 7.5-3.357 7.5-7.5s-3.358-7.5-7.5-7.5h-.104c-4.142 0-7.5 3.357-7.5 7.5s3.358 7.5 7.5 7.5z"/><path d="m459.285 334.499h.103c4.142 0 7.5-3.357 7.5-7.5s-3.358-7.5-7.5-7.5h-.103c-4.142 0-7.5 3.357-7.5 7.5s3.358 7.5 7.5 7.5z"/><path d="m441.302 340.272h-.104c-4.142 0-7.5 3.357-7.5 7.5s3.358 7.5 7.5 7.5h.104c4.142 0 7.5-3.357 7.5-7.5s-3.358-7.5-7.5-7.5z"/><path d="m445.451 373.557c-4.142 0-7.5 3.357-7.5 7.5v10.137c0 2.198.964 4.285 2.637 5.71l13.885 11.825c1.412 1.202 3.14 1.79 4.859 1.79 2.122 0 4.23-.896 5.713-2.638 2.686-3.153 2.306-7.887-.847-10.572l-11.248-9.579v-6.673c.001-4.143-3.357-7.5-7.499-7.5z"/><path d="m230.785 295.362c2.052 0 4.096-.837 5.577-2.482l7.602-8.446c2.771-3.079 2.521-7.821-.557-10.592-3.08-2.771-7.822-2.522-10.592.557l-7.602 8.446c-2.771 3.079-2.521 7.821.557 10.592 1.433 1.29 3.227 1.925 5.015 1.925z"/></g></g></svg>