<svg id="Capa_1" enable-background="new 0 0 512 512" height="512" viewBox="0 0 512 512" width="512" xmlns="http://www.w3.org/2000/svg"><g><path d="m46 0v361h150v151h270v-361h-150v-151zm240 30v27.42c-12.764-4.527-22.893-14.656-27.42-27.42zm-210-.01 27.42.01c-4.527 12.764-14.656 22.893-27.42 27.42zm0 301.01v-27.42c12.764 4.527 22.893 14.656 27.42 27.42zm58.491 0c-5.98-29.344-29.147-52.51-58.491-58.491v-184.018c29.344-5.98 52.51-29.147 58.491-58.491h93.019c5.98 29.344 29.147 52.51 58.491 58.491v184.019c-29.344 5.98-52.51 29.147-58.491 58.491h-93.019zm151.509-27.42v27.42h-27.42c4.527-12.764 14.656-22.893 27.42-27.42zm-60 178.42v-27.42c12.764 4.527 22.893 14.656 27.42 27.42zm210 0h-27.42c4.527-12.764 14.656-22.893 27.42-27.42zm0-301v27.42c-12.764-4.527-22.893-14.656-27.42-27.42zm-58.491 0c5.98 29.344 29.147 52.51 58.491 58.491v184.019c-29.344 5.98-52.51 29.147-58.491 58.491h-93.019c-5.98-29.344-29.147-52.51-58.491-58.491v-62.51h90v-180z"/><path d="m211 106c-12.76 0-22.965 4.153-30 8.326-7.035-4.173-17.24-8.326-30-8.326-27.437 0-45 26.355-45 55 0 61.17 72.943 95.298 75 97.427 1.713-1.773 75-36.563 75-97.427 0-28.884-17.802-55-45-55zm-30 117.331c-28.72-18.867-45-41.277-45-62.331 0-13.785 6.729-25 15-25 11.03 0 18.351 6.611 19.239 7.454l10.455 11.525 11.127-11.591c.07-.074 7.611-7.388 19.179-7.388 8.271 0 15 11.215 15 25 0 21.054-16.28 43.464-45 62.331z"/></g></svg>