<svg id="Capa_1" enable-background="new 0 0 512 512" height="512" viewBox="0 0 512 512" width="512" xmlns="http://www.w3.org/2000/svg"><g><g><path d="m411.96 450.11-78.3 9.38c-68.636-31.477-100.031-93.915-91.33-160.07h62.97v60.27c0 29.44 18.06 55.85 45.48 66.55z" fill="#bd9cde"/><path d="m333.66 459.49-28.36 3.4h-98.6l-106.66-12.78 61.19-23.87c27.42-10.7 45.47-37.11 45.47-66.55v-60.27h35.63c15.57 57.71 45.48 113.2 91.33 160.07z" fill="#b18cd9"/><path d="m439.16 477.3c0 15.02-12.18 27.2-27.2 27.2h-25.29c-36.278-8.405-60.235-32.392-61.86-54.39h87.15c15.02 0 27.2 12.17 27.2 27.19z" fill="#fbf198"/><path d="m386.67 504.5h-286.63c-15.02 0-27.19-12.18-27.19-27.2s12.17-27.19 27.19-27.19h224.77c17.93 19.66 38.51 37.94 61.86 54.39z" fill="#fad989"/><path d="m375.56 212.4v46.57c0 26.88-21.79 48.67-48.66 48.67h-82.25c-27.8-27.08-33.011-63.767-15.07-95.24z" fill="#fbf198"/><path d="m244.65 307.64h-59.54c-26.88 0-48.67-21.79-48.67-48.67v-46.57h93.14c.9 31.8 5.84 63.89 15.07 95.24z" fill="#fad989"/><path d="m465.17 122.23c-37.33 77.89-116.4 132.63-209.17 132.3-7.77.03-15.44-.33-23-1.06-35-44.52-24.756-128.829 14.48-165.98l8.52-1.47z" fill="#bd9cde"/><path d="m233 253.47c-82.71-7.94-151.96-59.87-186.16-131.24l200.64-34.74c-17.05 51.88-22.35 109.18-14.48 165.98z" fill="#b18cd9"/><path d="m485.24 57.91c-3.59 22.61-10.44 44.24-20.07 64.32h-227.17c-11.779-44.858 3.401-93.186 48.22-114.73h156.06c26.78 0 47.16 23.96 42.96 50.41z" fill="#fbf198"/><path d="m286.22 7.5c-22.8 33.99-39.09 73.13-48.22 114.73h-191.16c-9.63-20.08-16.48-41.71-20.08-64.32-4.2-26.45 16.18-50.41 42.96-50.41z" fill="#fad989"/><g><path d="m392.276 65.451c0 8.57-5.25 15.92-12.71 19.01-22.873-9.364-19.528-31.659-5.93-39.49 10.46.97 18.64 9.76 18.64 20.48z" fill="#83deff"/><path d="m379.566 84.461c-2.42 1.01-5.08 1.56-7.87 1.56-11.36 0-20.57-9.21-20.57-20.57 0-11.37 9.21-20.58 20.57-20.58.65 0 1.3.03 1.94.1-6.55 11.52-5.47 28.39 5.93 39.49z" fill="#2ecefb"/></g><g><path d="m276.58 65.451c0 8.57-5.25 15.92-12.71 19.01-22.873-9.364-19.528-31.659-5.93-39.49 10.46.97 18.64 9.76 18.64 20.48z" fill="#83deff"/><path d="m263.87 84.461c-2.42 1.01-5.08 1.56-7.87 1.56-11.36 0-20.57-9.21-20.57-20.57 0-11.37 9.21-20.58 20.57-20.58.65 0 1.3.03 1.94.1-6.55 11.52-5.47 28.39 5.93 39.49z" fill="#2ecefb"/></g><g><path d="m160.88 65.45c0 8.57-5.25 15.92-12.71 19.01-22.873-9.364-19.528-31.659-5.93-39.49 10.46.97 18.64 9.76 18.64 20.48z" fill="#83deff"/><path d="m148.17 84.46c-2.42 1.01-5.08 1.56-7.87 1.56-11.36 0-20.57-9.21-20.57-20.57 0-11.37 9.21-20.58 20.57-20.58.65 0 1.3.03 1.94.1-6.55 11.52-5.47 28.39 5.93 39.49z" fill="#2ecefb"/></g></g><g><path d="m343.623 65.446c0 15.481 12.595 28.076 28.076 28.076s28.076-12.595 28.076-28.076-12.595-28.077-28.076-28.077-28.076 12.596-28.076 28.077zm41.152 0c0 7.21-5.866 13.076-13.076 13.076s-13.076-5.866-13.076-13.076c0-7.211 5.866-13.077 13.076-13.077s13.076 5.866 13.076 13.077z"/><path d="m227.924 65.446c0 15.481 12.595 28.076 28.076 28.076s28.077-12.595 28.077-28.076-12.596-28.077-28.077-28.077-28.076 12.596-28.076 28.077zm41.153 0c0 7.21-5.866 13.076-13.077 13.076-7.21 0-13.076-5.866-13.076-13.076 0-7.211 5.866-13.077 13.076-13.077s13.077 5.866 13.077 13.077z"/><path d="m112.224 65.446c0 15.481 12.595 28.076 28.077 28.076s28.076-12.595 28.076-28.076-12.595-28.077-28.076-28.077-28.077 12.596-28.077 28.077zm41.153 0c0 7.21-5.866 13.076-13.076 13.076s-13.077-5.866-13.077-13.076c0-7.211 5.866-13.077 13.077-13.077s13.076 5.866 13.076 13.077z"/><path d="m194.477 159.102c-11.726 0-21.265 9.54-21.265 21.266 0 4.143 3.358 7.5 7.5 7.5s7.5-3.357 7.5-7.5c0-3.455 2.811-6.266 6.265-6.266 3.455 0 6.265 2.811 6.265 6.266 0 4.143 3.358 7.5 7.5 7.5s7.5-3.357 7.5-7.5c.001-11.726-9.539-21.266-21.265-21.266z"/><path d="m303.758 187.867c4.142 0 7.5-3.357 7.5-7.5 0-3.455 2.811-6.266 6.265-6.266 3.455 0 6.265 2.811 6.265 6.266 0 4.143 3.358 7.5 7.5 7.5s7.5-3.357 7.5-7.5c0-11.726-9.54-21.266-21.265-21.266s-21.265 9.54-21.265 21.266c0 4.143 3.358 7.5 7.5 7.5z"/><path d="m276.256 201.383c2.721-3.123 2.396-7.861-.727-10.582-3.122-2.721-7.861-2.396-10.582.727-2.259 2.593-5.521 4.08-8.947 4.08s-6.688-1.487-8.947-4.08c-2.721-3.122-7.459-3.448-10.582-.727s-3.448 7.459-.727 10.582c5.109 5.862 12.492 9.225 20.255 9.225 7.765-.001 15.148-3.363 20.257-9.225z"/><path d="m326.895 315.137c30.969 0 56.164-25.195 56.164-56.164v-33.466c10.389-6.551 20.318-13.932 29.682-22.114 42.669-37.283 71.047-88.531 79.907-144.305 2.351-14.801-1.876-29.821-11.598-41.209-9.701-11.362-23.833-17.879-38.773-17.879h-33.809c-4.142 0-7.5 3.357-7.5 7.5s3.358 7.5 7.5 7.5h33.809c10.544 0 20.518 4.6 27.363 12.618 6.868 8.045 9.854 18.657 8.192 29.116-3.241 20.405-9.225 39.858-17.526 57.998h-408.611c-8.302-18.14-14.286-37.594-17.527-57.998-1.661-10.459 1.325-21.071 8.192-29.116 6.845-8.018 16.819-12.618 27.363-12.618h303.746c4.142 0 7.5-3.357 7.5-7.5s-3.358-7.5-7.5-7.5h-303.746c-14.94 0-29.072 6.517-38.771 17.879-9.722 11.388-13.949 26.408-11.599 41.209 8.86 55.773 37.238 107.021 79.907 144.305 9.364 8.182 19.294 15.565 29.682 22.116v33.464c0 30.969 25.195 56.164 56.164 56.164h14.092v44.559c0 26.536-15.974 49.914-40.696 59.558l-59.969 23.394c-18.433.794-33.186 16.032-33.186 34.658 0 19.131 15.564 34.695 34.696 34.695h32.267c4.142 0 7.5-3.357 7.5-7.5s-3.358-7.5-7.5-7.5h-32.267c-10.86 0-19.696-8.835-19.696-19.695 0-10.856 8.828-19.688 19.681-19.696.059-.001 311.888-.001 311.888-.001 10.912.009 19.74 8.841 19.74 19.696 0 10.86-8.835 19.695-19.695 19.695h-244.653c-4.142 0-7.5 3.357-7.5 7.5s3.358 7.5 7.5 7.5h244.652c19.131 0 34.695-15.564 34.695-34.695 0-18.626-14.753-33.864-33.186-34.658l-59.969-23.394c-24.722-9.644-40.696-33.021-40.696-59.558v-44.559h14.091zm-267.634-185.405h393.479c-38.908 70.668-114.389 117.915-197.555 117.296-82.62 0-157.229-47.089-195.924-117.296zm84.681 129.241v-24.758c34.038 18.139 72.166 27.815 111.175 27.815 39.592.273 78.412-9.407 112.942-27.818v24.761c0 22.698-18.466 41.164-41.164 41.164h-141.79c-22.697 0-41.163-18.466-41.163-41.164zm167.622 145.252c9.002 13.175 21.619 23.204 36.484 29.003l24.048 9.381h-232.192l24.048-9.381c14.866-5.799 27.482-15.828 36.484-29.003s13.761-28.572 13.761-44.529v-44.559h83.606v44.559c0 15.956 4.758 31.354 13.761 44.529z"/></g></g></svg>