<svg id="Capa_1" enable-background="new 0 0 512 512" height="512" viewBox="0 0 512 512" width="512" xmlns="http://www.w3.org/2000/svg"><g><path d="m151 45c0 24.813 20.187 45 45 45s45-20.187 45-45-20.187-45-45-45-45 20.187-45 45zm60 0c0 8.271-6.729 15-15 15s-15-6.729-15-15 6.729-15 15-15 15 6.729 15 15z"/><path d="m271 60h30v30h-30z"/><path d="m91 60h30v30h-30z"/><path d="m136.056 470.43c33.103 26.033 74.751 41.57 119.944 41.57s86.841-15.537 119.944-41.57l20.785 41.57h54.271v-30h-35.729l-16.387-32.773c32.319-34.994 52.116-81.827 52.116-133.227 0-61.914-26.849-99.037-44.615-123.602-7.912-10.94-15.385-21.273-15.385-27.398 0-8.271 6.729-15 15-15s15 6.729 15 15h30c0-24.813-20.187-45-45-45h-60l72-96-24-18-85.5 114h-202.5c-24.813 0-45 20.187-45 45h30c0-8.271 6.729-15 15-15s15 6.729 15 15c0 6.125-7.473 16.458-15.385 27.398-17.766 24.565-44.615 61.688-44.615 123.602 0 51.4 19.797 98.233 52.116 133.227l-16.387 32.773h-35.729v30h54.271zm74.944-320.43h90v105c0 8.271-6.729 15-15 15s-15-6.729-15-15v-60h-30c0 8.271-6.729 15-15 15s-15-6.729-15-15zm-120 166c0-52.202 21.582-82.043 38.923-106.021 11.31-15.638 21.077-29.143 21.077-44.979 0-5.258-.915-10.305-2.58-15h32.58v45c0 24.813 20.187 45 45 45 5.258 0 10.305-.915 15-2.58v17.58c0 24.813 20.187 45 45 45s45-20.187 45-45v-105.01l32.58.01c-1.665 4.695-2.58 9.742-2.58 15 0 15.836 9.767 29.341 21.077 44.979 17.341 23.978 38.923 53.819 38.923 106.021 0 91.533-74.019 166-165 166s-165-74.467-165-166z"/></g></svg>