<svg id="Capa_1" enable-background="new 0 0 512 512" height="512" viewBox="0 0 512 512" width="512" xmlns="http://www.w3.org/2000/svg"><g><g><path d="m336.92 437.363v39.03c0 13.63-9.88 24.95-22.87 27.19-35.87-9.382-63.27-30.66-70.2-66.22z" fill="#fbf198"/><path d="m314.05 503.583c-1.53.27-3.12.41-4.73.41h-106.64c-15.24 0-27.6-12.36-27.6-27.6v-39.03h68.77c19.63 24.1 42.97 46.42 70.2 66.22z" fill="#fad989"/><path d="m405.141 51.452c0 14.768-11.972 26.741-26.741 26.741-8.184 1.764-10.648 2.81-10.909-2.319-9.331-4.174-15.832-13.539-15.832-24.422 0-21.198 17.582-37.25 24.232-42.564 1.47-1.174 3.546-1.174 5.016 0 6.652 5.314 24.234 21.366 24.234 42.564z" fill="#fad989"/><path d="m410.193 190.519h-63.586v-72.479l-1.423-4.248 1.423-2.696v-12.971c0-11.008 8.924-19.932 19.932-19.932h23.721c11.008 0 19.932 8.924 19.932 19.932v92.394z" fill="#fd7a6e"/><path d="m371.925 87.052c0 14.769-11.973 26.741-26.742 26.741-15.984-.001-28.019-14.297-26.582-30.216 1.76-19.494 17.836-34.108 24.1-39.109 1.462-1.167 3.53-1.148 4.991.02 6.652 5.314 24.233 21.366 24.233 42.564z" fill="#fbf198"/><path d="m376.977 190.519h-63.586v-56.795c0-11.008 8.924-19.932 19.932-19.932h23.721c11.008 0 19.932 8.924 19.932 19.932v56.795z" fill="#ff938a"/><path d="m247.08 81.183c0 40.12-32.52 72.64-72.64 72.64-2.88 0-5.72-.17-8.51-.5-14.647-49.181 8.211-110.73 47.78-133.25 20.08 12.92 33.37 35.47 33.37 61.11z" fill="#83deff"/><path d="m213.71 20.073c-24.69 39.36-40.95 85.1-47.78 133.25-36.1-4.21-64.12-34.9-64.12-72.14 0-40.11 32.52-72.63 72.63-72.63 14.47 0 27.95 4.23 39.27 11.52z" fill="#2ecefb"/><path d="m244.84 158.323v32.2h-82.29c-10.064-17.203-8.56-41.867 6.43-55.42h52.64c12.82 0 23.22 10.4 23.22 23.22z" fill="#ff938a"/><path d="m168.98 135.103c-3.52 18.12-5.68 36.67-6.43 55.42h-58.5v-32.2c0-12.82 10.4-23.22 23.22-23.22z" fill="#fd7a6e"/><path d="m469.99 238.303v205.85c0 13.84-14.5 22.97-26.93 16.87-8.37-4.1-14.68-9.43-24.49-12.68l-19.91-15.03-24.45 16.78c-14.44 6.29-21.95 16.72-46.87 16.72-26.21 0-33.16-11.53-49.16-17.65l-22.17-15.85-9.76 6.97c-81.433-60.633-123.842-177.041-83.23-258.79h250.16c31.38 0 56.81 25.43 56.81 56.81z" fill="#bd9cde"/><path d="m246.25 440.283-12.43 8.88c-15.99 6.13-22.94 17.65-49.14 17.65-24.94 0-32.44-10.44-46.89-16.72l-24.45-16.78-19.91 15.03c-9.81 3.25-16.12 8.58-24.49 12.68-12.43 6.1-26.93-3.03-26.93-16.87v-205.85c0-31.38 25.43-56.81 56.81-56.81h64.2c-5.74 88.73 20.08 182.87 83.23 258.79z" fill="#b18cd9"/><path d="m278.18 327.153v122.01c-5.77-2.21-12.71-3.72-22.17-3.72-1.83 0-3.57.06-5.23.16-10.118-4.896-13.653-12.096-16.96-21.14v-97.31c0-12.25 9.93-22.18 22.18-22.18s22.18 9.93 22.18 22.18z" fill="#b18cd9"/><path d="m250.78 445.603c-6.89.45-12.3 1.78-16.96 3.56v-24.7c5.34 7.19 10.98 14.25 16.96 21.14z" fill="#a57cd2"/><path d="m396.388 304.971c-12.25 0-22.181 9.931-22.181 22.181v122.942c6.219-2.71 13.715-4.654 24.456-4.654 8.251 0 14.589 1.147 19.906 2.906v-121.194c0-12.25-9.931-22.181-22.181-22.181z" fill="#b18cd9"/><path d="m115.612 304.971c-12.25 0-22.181 9.931-22.181 22.181v121.195c5.318-1.76 11.657-2.907 19.912-2.907 10.736 0 18.231 1.943 24.45 4.651v-122.939c0-12.25-9.931-22.181-22.181-22.181z" fill="#a57cd2"/><g fill="#fff"><ellipse cx="176.443" cy="263.241" rx="29.355" ry="23.377"/><ellipse cx="335.557" cy="263.241" rx="29.355" ry="23.377"/></g></g><g><path d="m186.051 229.245v12c0 4.143 3.358 7.5 7.5 7.5s7.5-3.357 7.5-7.5v-12c0-4.143-3.358-7.5-7.5-7.5s-7.5 3.357-7.5 7.5z"/><path d="m310.949 229.245v12c0 4.143 3.358 7.5 7.5 7.5s7.5-3.357 7.5-7.5v-12c0-4.143-3.358-7.5-7.5-7.5s-7.5 3.357-7.5 7.5z"/><path d="m266.81 235.96c-2.729 3.133-6.669 4.929-10.81 4.929s-8.081-1.796-10.81-4.929c-2.721-3.123-7.459-3.447-10.582-.727-3.123 2.722-3.448 7.459-.727 10.582 5.579 6.401 13.641 10.073 22.119 10.073s16.54-3.672 22.119-10.073c2.721-3.123 2.396-7.86-.727-10.582-3.123-2.72-7.86-2.396-10.582.727z"/><path d="m469.991 375.561c4.142 0 7.5-3.357 7.5-7.5v-129.253c0-33.941-26.437-61.807-59.798-64.132v-76.044c0-10.179-5.577-19.074-13.832-23.808 5.454-6.067 8.779-14.084 8.779-22.864 0-29.754-28.777-49.808-30.002-50.646-2.556-1.751-5.925-1.75-8.479.002-.944.647-19.858 13.833-27.149 34.53-2.046-.514-4.257-.171-6.065 1.068-1.225.839-30.002 20.893-30.002 50.646 0 8.781 3.325 16.798 8.779 22.865-8.254 4.734-13.831 13.63-13.831 23.808v40.269h-53.555v-15.675c0-11.446-6.299-21.444-15.608-26.726 11.457-14.173 17.855-31.972 17.855-50.405 0-44.188-35.95-80.139-80.138-80.139-12.383 0-24.273 2.762-35.342 8.209-3.716 1.829-5.246 6.325-3.417 10.041 1.829 3.717 6.326 5.244 10.041 3.418 8.989-4.425 18.651-6.668 28.718-6.668 35.917 0 65.138 29.221 65.138 65.139 0 17.455-7.068 34.206-19.468 46.417h-91.34c-12.401-12.211-19.468-28.962-19.468-46.417 0-13.832 4.292-27.051 12.413-38.228 2.435-3.352 1.691-8.041-1.66-10.476-3.353-2.437-8.042-1.692-10.476 1.659-9.994 13.756-15.277 30.024-15.277 47.044 0 18.432 6.398 36.232 17.855 50.405-9.309 5.283-15.608 15.28-15.608 26.726v15.732c-34.413 1.199-62.044 29.55-62.044 64.25v205.853c0 9.131 4.63 17.469 12.386 22.304 7.719 4.812 17.193 5.302 25.343 1.303 14.39-7.21 20.272-14.811 41.105-14.822 14.556.099 21.375 3.312 31.811 9.621 6.116 3.665 12.793 7.646 22.427 9.907-1.786 20.645 14.107 39.14 35.102 39.026h106.633c20.995.114 36.885-18.378 35.102-39.022 9.64-2.261 16.32-6.243 22.438-9.91 10.438-6.311 17.25-9.521 31.807-9.621 20.83.011 26.712 7.61 41.098 14.82 8.149 3.997 17.623 3.51 25.342-1.301 7.757-4.835 12.388-13.173 12.388-22.305v-41.6c0-4.143-3.358-7.5-7.5-7.5s-7.5 3.357-7.5 7.5v41.6c0 3.977-1.94 7.467-5.322 9.575-3.344 2.085-7.281 2.291-10.802.563-7.069-3.519-12.614-7.785-20.298-11.09v-116.05c0-16.366-13.315-29.681-29.681-29.681s-29.681 13.314-29.681 29.681v118.223c-13.346 7.069-19.384 13.893-39.37 13.94-21.105.001-26.909-7.858-41.657-15.08v-117.083c0-16.366-13.315-29.681-29.681-29.681s-29.681 13.314-29.681 29.681v117.09c-14.738 7.222-20.544 15.073-41.642 15.073-19.994-.047-26.03-6.874-39.384-13.945v-118.218c0-16.366-13.315-29.681-29.681-29.681s-29.681 13.314-29.681 29.681v116.052c-7.682 3.304-13.23 7.572-20.297 11.09-3.522 1.727-7.459 1.521-10.803-.564-3.382-2.108-5.322-5.598-5.322-9.574v-205.855c0-27.188 22.12-49.308 49.308-49.308h314.366c27.188 0 49.308 22.119 49.308 49.308v129.253c0 4.143 3.358 7.5 7.5 7.5zm-88.284-47.902c0-8.095 6.586-14.681 14.681-14.681s14.681 6.586 14.681 14.681v111.719c-3.7-.585-7.788-.932-12.406-.932-6.6 0-12.141.696-16.956 1.815zm-140.388 0c0-8.095 6.586-14.681 14.681-14.681s14.681 6.586 14.681 14.681v112.119c-4.273-.828-9.089-1.332-14.672-1.332-5.591 0-10.412.505-14.689 1.335v-112.122zm-17.121 135.408c10.341-6.347 17.87-9.604 31.81-9.621 13.93.015 21.476 3.276 31.809 9.621 8.915 5.658 22.209 12.507 41.601 11.714.977 11.782-8.14 22.281-20.102 22.219h-106.632c-11.962.062-21.078-10.437-20.102-22.219 19.403.794 32.686-6.049 41.616-11.714zm-123.267-135.408c0-8.095 6.586-14.681 14.681-14.681s14.681 6.586 14.681 14.681v112.6c-4.814-1.117-10.353-1.813-16.95-1.813-4.62 0-8.711.348-12.412.933zm269.715-217.236c5.729-6.339 9.165-15.085 8.738-24.224h10.877c6.855 0 12.432 5.577 12.432 12.433v75.869h-18.216v-40.269c0-10.179-5.577-19.074-13.831-23.809zm7.756-93.341c6.771 5.898 19.239 18.928 19.239 34.877.056 11.391-9.904 20.13-21.141 19.24-3.843-10.744-10.795-19.442-16.706-25.393 2.58-13.112 12.739-23.608 18.608-28.724zm-33.219 35.599c7.01 5.605 19.833 20.922 19.241 34.878 0 10.603-8.621 19.23-19.221 19.24-10.638-.011-19.259-8.637-19.259-19.24 0-15.954 12.476-28.987 19.239-34.878zm-24.291 81.55c0-6.855 5.577-12.433 12.432-12.433h23.721c6.855 0 12.432 5.577 12.432 12.433v40.269h-48.585zm-193.624 8.881h94.354c8.665 0 15.714 7.049 15.714 15.714v15.675h-125.783v-15.675c0-8.665 7.05-15.714 15.715-15.714z"/></g></g></svg>