<svg id="Capa_1" enable-background="new 0 0 512 512" height="512" viewBox="0 0 512 512" width="512" xmlns="http://www.w3.org/2000/svg"><g><path d="m421 0h-330v192.459l-31.771 63.541 31.771 63.541v192.459h330c0-8.764 0-178.199 0-192.459l31.771-63.541-31.771-63.541c0-21.774 0-171.209 0-192.459zm-300 319.541 31.771-63.541-31.771-63.541v-102.469h45.483c-10.03 13.238-15.483 29.247-15.483 46.01 0 19.077 7.169 37.257 20.155 51.157l64.377 69.343-64.345 69.308c-13.018 13.935-20.187 32.115-20.187 51.192 0 16.871 5.603 32.456 15.041 45h-45.041zm207.43 42.459h-57.43v-67.297l47.859 51.551c.092.101.124.136.032.035 4.28 4.58 7.497 9.93 9.539 15.711zm-.01 30c-6.192 17.458-22.865 30-42.42 30h-60c-19.555 0-36.228-12.542-42.42-30zm-144.848-30c2.045-5.786 5.271-11.146 9.569-15.746l47.859-51.551v67.297zm72.428-127.546-49.626-53.454h99.252zm-72.43-83.454c-1.683-4.767-2.57-9.827-2.57-15 0-24.935 20.607-46 45-46h60c24.393 0 45 21.065 45 46 0 5.173-.886 10.233-2.57 15zm-77.57 131.459-13.229-26.459 13.229-26.459 13.229 26.459zm285 199.541h-270v-30h270zm0-289.541-31.771 63.541 31.771 63.541v102.459h-45.041c9.438-12.544 15.041-28.129 15.041-45 0-19.062-7.159-37.227-20.156-51.157l-.021-.023c-.004-.004-.007-.008-.011-.012l-64.344-69.308 64.345-69.308c.004-.004.007-.008.011-.012l.021-.023c12.997-13.93 20.155-32.095 20.155-51.157 0-16.763-5.453-32.772-15.483-46h45.483zm0-132.459c-7.842 0-262.172 0-270 0v-30h270zm15 222.459-13.229-26.459 13.229-26.459 13.229 26.459z"/></g></svg>