<svg id="Capa_1" enable-background="new 0 0 512 512" height="512" viewBox="0 0 512 512" width="512" xmlns="http://www.w3.org/2000/svg"><g><g><g><path d="m504.5 94.251v380.249c0 16.569-13.431 30-30 30h-17.07l-18.89-25.09c-1.6-2.13-3.99-3.53-6.63-3.9l-23.31-3.2c-3.37-.46-6.75.82-8.96 3.41l-7.929 9.261c-1.896 2.214-4.665 3.489-7.581 3.489h-68.48c-3.64 0-6.98 1.97-8.75 5.15l-3.18 5.73c-1.77 3.18-5.11 5.15-8.75 5.15h-257.47c-16.569 0-30-13.431-30-30v-255.22c0-2.66 1.06-5.22 2.95-7.09l22.71-22.56c5.14-5.11 3.31-13.82-3.46-16.43l-15.79-6.07c-3.86-1.49-6.41-5.2-6.41-9.34v-120.29c0-16.569 13.431-30 30-30h378.792c2.62 0 5.135 1.028 7.005 2.863l12.566 12.333c1.87 1.835 4.385 2.863 7.005 2.863h14.982c2.242 0 4.419.753 6.181 2.139l11.481 9.028c2.411 1.896 3.819 4.794 3.819 7.861v28.432c0 4.848 3.478 8.998 8.251 9.846l8.667 1.539c4.773.848 8.251 4.998 8.251 9.847z" fill="#b18bc8"/><g fill="#a176bd"><path d="m429.582 208.897c0-39.992-21.168-75.579-59.604-100.205-31.082-19.915-72.624-31.336-113.978-31.336-41.237 0-83.115 12.11-114.895 33.225-37.845 25.145-58.688 60.061-58.688 98.316 0 22.948 8.896 43.853 23.416 59.461-13.717 5.581-23.416 19.048-23.416 34.745 0 39.992 21.168 75.579 59.604 100.205 31.082 19.915 72.625 31.336 113.979 31.336 41.237 0 83.115-12.11 114.895-33.225 37.845-25.145 58.688-60.061 58.688-98.316 0-22.948-8.896-43.853-23.416-59.461 13.716-5.58 23.415-19.048 23.415-34.745zm-259.786-12.378c6.825 0 12.378 5.553 12.378 12.378s-5.553 12.378-12.378 12.378-12.378-5.553-12.378-12.378 5.553-12.378 12.378-12.378zm104.857 161.948c-6.147.78-12.388 1.177-18.653 1.177-27.394 0-54.189-7.103-73.518-19.486-16.632-10.655-25.064-23.123-25.064-37.055 0-2.683-.289-5.3-.827-7.825 4.308.656 8.717.997 13.205.997 48.181 0 87.378-39.198 87.378-87.378 0-20.652-7.302-40.082-19.827-55.364 6.147-.78 12.388-1.177 18.653-1.177 27.394 0 54.189 7.103 73.518 19.486 16.632 10.655 25.064 23.123 25.064 37.055 0 2.683.289 5.3.827 7.825-4.308-.656-8.717-.997-13.205-.997-48.181 0-87.378 39.198-87.378 87.378 0 20.652 7.302 40.082 19.827 55.364zm67.551-42.986c-6.825 0-12.378-5.553-12.378-12.378s5.553-12.378 12.378-12.378 12.378 5.553 12.378 12.378-5.553 12.378-12.378 12.378z"/><path d="m504.5 94.25v380.25c0 16.57-13.43 30-30 30h-17.07l-4.06-5.4c7.76-5.41 12.84-14.41 12.84-24.6v-380.25c0-4.85-3.48-9-8.25-9.85l-8.67-1.53c-4.77-.85-8.25-5-8.25-9.85v-28.43c0-3.07-1.41-5.97-3.82-7.86l-11.48-9.03c-1.76-1.39-3.94-2.14-6.18-2.14h-14.98c-2.62 0-5.14-1.03-7.01-2.86l-12.56-12.34c-1.87-1.83-4.39-2.86-7.01-2.86h38.29c2.62 0 5.14 1.03 7.01 2.86l12.56 12.34c1.87 1.83 4.39 2.86 7.01 2.86h14.98c2.24 0 4.42.75 6.18 2.14l11.48 9.03c2.41 1.89 3.82 4.79 3.82 7.86v28.43c0 4.85 3.48 9 8.25 9.85l8.67 1.53c4.77.85 8.25 5 8.25 9.85z"/></g></g><g><path d="m169.796 276.275c37.152 0 67.378-30.226 67.378-67.378 0-29.387-18.918-54.424-45.21-63.613 18.734-8.109 40.861-12.928 64.036-12.928 31.116 0 61.845 8.254 84.307 22.646 15.637 10.018 34.275 27.5 34.275 53.895 0 9.665 7.835 17.5 17.5 17.5s17.5-7.835 17.5-17.5c0-32.938-17.896-62.544-50.394-83.365-27.947-17.907-65.558-28.176-103.188-28.176-37.399 0-75.243 10.892-103.826 29.883-32.086 21.318-49.756 50.318-49.756 81.658 0 37.152 30.226 67.378 67.378 67.378zm32.378-67.378c0 17.854-14.524 32.378-32.378 32.378s-32.378-14.524-32.378-32.378 14.524-32.378 32.378-32.378 32.378 14.524 32.378 32.378z" fill="#804ea0"/><path d="m409.58 208.9c0 2.17-.4 4.25-1.12 6.16-4.38-27.24-21.49-51.45-49.27-69.25-27.95-17.91-65.56-28.18-103.19-28.18-37.4 0-75.24 10.89-103.83 29.88-28.41 18.88-45.52 43.79-49.06 71.01-.46-3.14-.69-6.35-.69-9.62 0-31.34 17.67-60.34 49.75-81.66 28.59-18.99 66.43-29.88 103.83-29.88 37.63 0 75.24 10.27 103.19 28.17 32.5 20.82 50.39 50.43 50.39 83.37z" fill="#6e4189"/><path d="m342.204 235.725c-37.152 0-67.378 30.226-67.378 67.378 0 29.387 18.918 54.424 45.21 63.613-18.734 8.109-40.861 12.928-64.036 12.928-31.116 0-61.845-8.254-84.307-22.646-15.637-10.018-34.275-27.5-34.275-53.895 0-9.665-7.835-17.5-17.5-17.5s-17.5 7.835-17.5 17.5c0 32.938 17.896 62.544 50.394 83.365 27.947 17.906 65.559 28.176 103.188 28.176 37.399 0 75.243-10.892 103.826-29.883 32.086-21.318 49.756-50.318 49.756-81.658 0-37.152-30.226-67.378-67.378-67.378zm-32.378 67.378c0-17.854 14.524-32.378 32.378-32.378s32.378 14.524 32.378 32.378-14.524 32.378-32.378 32.378-32.378-14.524-32.378-32.378z" fill="#804ea0"/><g><path d="m409.58 303.1c0 3.58-.23 7.14-.69 10.65-4.68-32.61-32.8-57.75-66.69-57.75-33.71 0-61.71 24.89-66.61 57.25-.5-3.31-.76-6.7-.76-10.15 0-37.15 30.22-67.37 67.37-67.37 37.16 0 67.38 30.22 67.38 67.37z" fill="#6e4189"/></g></g></g><g><path d="m504.5 173.566c4.143 0 7.5-3.357 7.5-7.5v-71.816c0-8.498-6.073-15.744-14.44-17.23l-8.666-1.539c-1.196-.212-2.063-1.247-2.063-2.461v-28.432c0-5.401-2.435-10.415-6.683-13.757l-11.482-9.028c-3.069-2.413-6.91-3.742-10.815-3.742h-14.982c-.658 0-1.28-.254-1.75-.716l-12.568-12.333c-3.292-3.233-7.646-5.012-12.259-5.012h-378.792c-20.678 0-37.5 16.822-37.5 37.5v120.29c0 7.184 4.505 13.748 11.219 16.341l15.783 6.067c1.109.428 1.45 1.326 1.555 1.824.104.497.154 1.454-.683 2.286l-22.701 22.552c-3.287 3.255-5.173 7.783-5.173 12.42v255.22c0 20.678 16.822 37.5 37.5 37.5h257.47c6.35 0 12.214-3.45 15.308-9.01l3.177-5.724c.445-.8 1.287-1.297 2.196-1.297h68.479c5.112 0 9.952-2.228 13.278-6.111l7.937-9.271c.552-.646 1.389-.963 2.235-.847l23.289 3.196c.667.093 1.278.45 1.679.983l18.891 25.09c1.416 1.883 3.636 2.989 5.991 2.989h17.07c20.678 0 37.5-16.822 37.5-37.5v-279.331c0-4.143-3.357-7.5-7.5-7.5s-7.5 3.357-7.5 7.5v43.62l-20.557 2.764-12.564-16.753c-2.485-3.313-7.186-3.984-10.5-1.5-3.313 2.485-3.985 7.187-1.5 10.5l2.116 2.821-6.339 8.452c-2.485 3.313-1.813 8.015 1.5 10.5 1.349 1.012 2.928 1.5 4.494 1.5 2.28 0 4.532-1.035 6.006-3l3.714-4.952 3.714 4.952c1.428 1.903 3.658 3 5.999 3 .332 0 .666-.021 1-.066l22.917-3.082v220.577c0 12.406-10.094 22.5-22.5 22.5h-13.329l-16.635-22.096c-2.775-3.692-6.997-6.179-11.606-6.825l-23.313-3.199c-5.938-.813-11.798 1.421-15.674 5.962l-7.929 9.261c-.472.551-1.158.867-1.884.867h-68.48c-6.35 0-12.214 3.45-15.308 9.01l-3.177 5.724c-.445.8-1.287 1.297-2.196 1.297h-189.38l6.534-31.071 32.192-11.516 31.121 12.803c3.834 1.581 8.215-.253 9.789-4.082 1.576-3.831-.252-8.214-4.082-9.789l-2.502-1.029c2.953-2.271 3.828-6.434 1.893-9.73-2.097-3.573-6.693-4.769-10.264-2.672l-8.974 5.267-13.94-5.735c-1.716-.707-3.633-.753-5.38-.126l-8.677 3.104-4.577-10.354 3.64-15.735c.934-4.035-1.581-8.063-5.616-8.997-4.032-.934-8.063 1.581-8.997 5.616l-4.204 18.172c-.366 1.581-.209 3.238.447 4.724l5.146 11.64-16.018 5.73c-2.454.878-4.276 2.967-4.813 5.518l-8.047 38.261h-52.76c-12.406 0-22.5-10.094-22.5-22.5v-255.22c0-.662.265-1.304.735-1.77l22.713-22.563c4.224-4.199 6.013-10.186 4.788-16.013-1.227-5.829-5.277-10.589-10.845-12.736l-15.78-6.066c-.964-.371-1.611-1.313-1.611-2.342v-120.29c0-12.406 10.094-22.5 22.5-22.5h378.792c.659 0 1.281.254 1.751.716l12.566 12.333c3.292 3.232 7.645 5.012 12.258 5.012h14.982c.558 0 1.106.19 1.545.534l11.479 9.026c.607.478.956 1.194.956 1.967v28.432c0 8.498 6.073 15.745 14.44 17.23l8.666 1.539c1.196.212 2.063 1.247 2.063 2.461v71.816c.002 4.143 3.359 7.5 7.502 7.5z"/><path d="m129.918 208.896c0 21.989 17.889 39.879 39.878 39.879 21.988 0 39.878-17.89 39.878-39.879 0-21.988-17.89-39.877-39.878-39.877-21.989.001-39.878 17.889-39.878 39.877zm39.878-24.876c13.718 0 24.878 11.16 24.878 24.877 0 13.719-11.16 24.879-24.878 24.879s-24.878-11.16-24.878-24.879c0-13.717 11.16-24.877 24.878-24.877z"/><path d="m169.796 283.775c41.288 0 74.878-33.591 74.878-74.879 0-25.537-13.032-48.896-33.743-62.538 14.332-4.277 29.642-6.503 45.069-6.503 29.721 0 58.975 7.822 80.261 21.462 14.061 9.008 30.821 24.574 30.821 47.579 0 13.785 11.215 25 25 25s25-11.215 25-25c0-35.583-19.123-67.432-53.848-89.681-29.122-18.659-68.208-29.36-107.234-29.36-34.484 0-69.16 8.816-97.638 24.825-3.611 2.03-4.893 6.603-2.863 10.213 2.03 3.611 6.602 4.894 10.213 2.863 26.271-14.769 58.336-22.901 90.288-22.901 36.234 0 72.371 9.838 99.143 26.991 30.27 19.394 46.939 46.757 46.939 77.05 0 5.514-4.486 10-10 10s-10-4.486-10-10c0-29.786-20.518-49.183-37.729-60.209-23.637-15.146-55.84-23.832-88.353-23.832-23.368 0-46.542 4.684-67.016 13.545-2.835 1.227-4.627 4.066-4.516 7.153s2.104 5.79 5.021 6.81c24.035 8.4 40.185 31.12 40.185 56.533 0 33.018-26.861 59.879-59.878 59.879s-59.878-26.861-59.878-59.879c0-24.171 11.45-46.779 33.111-65.38 3.143-2.699 3.503-7.434.805-10.576s-7.434-3.503-10.576-.805c-25.082 21.538-38.34 48.082-38.34 76.761 0 41.289 33.59 74.879 74.878 74.879z"/><path d="m417.082 303.104c0-41.288-33.59-74.879-74.878-74.879s-74.878 33.591-74.878 74.879c0 25.538 13.032 48.896 33.743 62.538-14.332 4.277-29.642 6.503-45.069 6.503-29.721 0-58.975-7.822-80.261-21.462-14.061-9.008-30.821-24.574-30.821-47.579 0-13.785-11.215-25-25-25s-25 11.215-25 25c0 35.583 19.123 67.432 53.848 89.681 25.23 16.165 57.858 26.396 91.873 28.809 4.125.3 7.719-2.819 8.012-6.951s-2.819-7.719-6.951-8.012c-31.556-2.237-61.687-11.641-84.842-26.477-30.27-19.394-46.939-46.757-46.939-77.05 0-5.514 4.486-10 10-10s10 4.486 10 10c0 29.786 20.518 49.183 37.729 60.209 23.637 15.146 55.84 23.832 88.353 23.832 23.368 0 46.542-4.684 67.016-13.545 2.835-1.227 4.627-4.066 4.516-7.153s-2.104-5.79-5.021-6.81c-24.035-8.4-40.185-31.12-40.185-56.533 0-33.018 26.861-59.879 59.878-59.879s59.878 26.861 59.878 59.879c0 28.746-16.48 55.527-46.406 75.41-23.829 15.833-54.354 25.821-85.952 28.125-4.131.302-7.235 3.895-6.935 8.026.288 3.945 3.578 6.954 7.473 6.954.184 0 .368-.006.554-.02 34.132-2.489 67.217-13.354 93.161-30.592 34.244-22.753 53.104-53.971 53.104-87.903z"/><path d="m382.082 303.104c0-21.989-17.889-39.879-39.878-39.879-21.988 0-39.878 17.89-39.878 39.879 0 21.988 17.89 39.877 39.878 39.877 21.989-.001 39.878-17.889 39.878-39.877zm-39.878 24.876c-13.718 0-24.878-11.16-24.878-24.877 0-13.718 11.16-24.879 24.878-24.879s24.878 11.161 24.878 24.879c0 13.717-11.16 24.877-24.878 24.877z"/><path d="m438.116 384.538c-4.143 0-7.5 3.357-7.5 7.5s3.357 7.5 7.5 7.5h.104c4.143 0 7.5-3.357 7.5-7.5s-3.357-7.5-7.5-7.5z"/><path d="m82.437 407.144c-.023 0-.048 0-.072 0-4.108 0-7.459 3.312-7.498 7.43-.039 4.142 3.287 7.531 7.43 7.57l.104.001h.072c4.108 0 7.459-3.312 7.498-7.43.039-4.142-3.287-7.531-7.43-7.57z"/><path d="m409.46 408.557.104.001h.072c4.108 0 7.459-3.312 7.498-7.43.039-4.142-3.287-7.531-7.43-7.57l-.104-.001c-.023 0-.048 0-.072 0-4.108 0-7.459 3.312-7.498 7.43-.039 4.141 3.287 7.531 7.43 7.57z"/><path d="m102.42 55.905c-4.143 0-7.5 3.357-7.5 7.5v10.137c0 2.198.964 4.285 2.638 5.71l13.886 11.825c1.411 1.202 3.14 1.79 4.858 1.79 2.122 0 4.23-.896 5.714-2.638 2.686-3.153 2.307-7.887-.848-10.572l-11.248-9.579v-6.673c0-4.142-3.357-7.5-7.5-7.5z"/><path d="m370.99 421.18-7.603 8.447c-2.771 3.079-2.521 7.821.557 10.593 1.434 1.29 3.228 1.925 5.016 1.925 2.052 0 4.096-.837 5.576-2.482l7.603-8.447c2.771-3.079 2.521-7.821-.557-10.593-3.078-2.77-7.82-2.521-10.592.557z"/><path d="m377.998 86.109c2.052 0 4.096-.837 5.576-2.482l7.603-8.446c2.771-3.079 2.522-7.821-.557-10.592-3.078-2.771-7.82-2.522-10.592.557l-7.603 8.446c-2.771 3.079-2.522 7.821.557 10.592 1.434 1.291 3.228 1.925 5.016 1.925z"/></g></g></svg>