<svg id="Capa_1" enable-background="new 0 0 512 512" height="512" viewBox="0 0 512 512" width="512" xmlns="http://www.w3.org/2000/svg"><g><g><path d="m504.5 94.251v380.249c0 16.569-13.431 30-30 30h-17.07l-18.89-25.09c-1.6-2.13-3.99-3.53-6.63-3.9l-23.31-3.2c-3.37-.46-6.75.82-8.96 3.41l-7.929 9.261c-1.896 2.214-4.665 3.489-7.581 3.489h-68.48c-3.64 0-6.98 1.97-8.75 5.15l-3.18 5.73c-1.77 3.18-5.11 5.15-8.75 5.15h-257.47c-16.569 0-30-13.431-30-30v-255.22c0-2.66 1.06-5.22 2.95-7.09l22.71-22.56c5.14-5.11 3.31-13.82-3.46-16.43l-15.79-6.07c-3.86-1.49-6.41-5.2-6.41-9.34v-120.29c0-16.569 13.431-30 30-30h378.792c2.62 0 5.135 1.028 7.005 2.863l12.566 12.333c1.87 1.835 4.385 2.863 7.005 2.863h14.982c2.242 0 4.419.753 6.181 2.139l11.481 9.028c2.411 1.896 3.819 4.794 3.819 7.861v28.432c0 4.848 3.478 8.998 8.251 9.846l8.667 1.539c4.773.848 8.251 4.998 8.251 9.847z" fill="#5bbd93"/><path d="m504.5 94.25v380.25c0 16.57-13.43 30-30 30h-17.07l-4.06-5.4c7.76-5.41 12.84-14.41 12.84-24.6v-380.25c0-4.85-3.48-9-8.25-9.85l-8.67-1.53c-4.77-.85-8.25-5-8.25-9.85v-28.43c0-3.07-1.41-5.97-3.82-7.86l-11.48-9.03c-1.76-1.39-3.94-2.14-6.18-2.14h-14.98c-2.62 0-5.14-1.03-7.01-2.86l-12.56-12.34c-1.87-1.83-4.39-2.86-7.01-2.86h38.29c2.62 0 5.14 1.03 7.01 2.86l12.56 12.34c1.87 1.83 4.39 2.86 7.01 2.86h14.98c2.24 0 4.42.75 6.18 2.14l11.48 9.03c2.41 1.89 3.82 4.79 3.82 7.86v28.43c0 4.85 3.48 9 8.25 9.85l8.67 1.53c4.77.85 8.25 5 8.25 9.85z" fill="#1ca56f"/></g><path d="m348.666 452.815c-1.525 0-3.073-.038-4.601-.111-48.786-2.348-88.06-42.439-89.409-91.271-.723-26.141 9.047-50.705 27.51-69.167.138-.139.32-.317.504-.495l27.883-26.736c14.346-14.475 22.244-33.664 22.244-54.055 0-20.796-8.184-40.276-23.044-54.849-14.027-13.758-33.342-21.756-52.989-21.944l-.764-.002c-20.514 0-39.799 7.988-54.304 22.493-24.597 24.597-29.579 62.789-12.117 92.876 3.745 6.453 8.974 12.6 15.54 18.271 9.429 8.143 31.361 30.737 31.361 64.57 0 43.655-35.516 79.171-79.17 79.171-1.262 0-2.542-.03-3.807-.09-19.522-.924-37.971-9.078-51.945-22.959-13.977-13.883-22.253-32.278-23.303-51.795-.976-18.125 4.349-36.165 14.992-50.798 5.794-7.966 13.031-14.763 21.232-20.057-21.365-55.309-8.58-119.459 34.183-162.223 28.672-28.67 66.791-44.46 107.337-44.46s78.665 15.79 107.336 44.46c59.187 59.186 59.187 155.488.001 214.674-.142.143-.323.32-.505.495l-27.84 26.695c-3.718 3.83-5.615 8.891-5.348 14.275.471 9.454 8.238 17.355 17.685 17.987.452.03.889.045 1.334.045 10.504-.001 19.05-8.545 19.05-19.047 0-20.678 16.822-37.5 37.5-37.5l.61.005c20.549.33 37.096 17.581 36.885 38.455-.517 51.326-42.706 93.087-94.04 93.087-.002 0 .003 0-.001 0zm-191.355-124.59c-2.301 0-4.172 1.871-4.172 4.171s1.871 4.171 4.172 4.171c2.299 0 4.17-1.871 4.17-4.171 0-.57-.109-1.109-.327-1.612-.269-.252-.531-.506-.788-.763l-1.485-1.485c-.493-.207-1.019-.311-1.57-.311z" fill="#1ca56f"/><path d="m405.501 341.271c-9.797-.157-17.788 7.737-17.788 17.498 0 22.415-18.985 40.479-41.718 38.957-19.577-1.31-35.35-17.353-36.325-36.949-.553-11.117 3.499-21.665 11.268-29.5l27.995-26.844c.088-.085.176-.17.262-.257 51.388-51.388 51.388-135.002 0-186.39-24.894-24.892-57.991-38.601-93.195-38.601s-68.301 13.709-93.194 38.602c-42.658 42.658-49.9 107.521-21.737 157.723-25.74 7.361-44.37 31.738-42.842 60.138 1.62 30.104 26.109 54.425 56.223 55.851 33.921 1.606 62.031-25.528 62.031-59.103 0-25.193-16.308-42.416-24.435-49.434-7.772-6.712-14.61-14.486-19.765-23.368-21.494-37.034-16.403-85.382 15.272-117.057 18.508-18.508 43.19-28.598 69.401-28.346 24.949.239 48.989 10.194 66.802 27.664 18.718 18.357 29.04 42.95 29.04 69.128 0 25.797-10.023 50.054-28.228 68.323l-28 26.848c-.088.085-.176.17-.262.257-14.483 14.483-22.228 33.908-21.659 54.472 1.063 38.44 31.968 69.998 70.379 71.847 42.22 2.032 77.262-31.516 77.682-73.201.098-9.65-7.56-18.103-17.207-18.258zm-248.191 15.296c-13.328 0-24.171-10.843-24.171-24.171s10.843-24.171 24.171-24.171c5.26 0 10.13 1.694 14.102 4.559l3.089 3.089c.541.541 1.116 1.023 1.706 1.478 3.297 4.132 5.274 9.361 5.274 15.045 0 13.328-10.843 24.171-24.171 24.171z" fill="#158f5e"/><g fill="#0f7a4f"><path d="m138.3 289.072c1.336 2.657.193 5.93-2.574 7.018-19.172 7.538-33.499 24.799-36.836 45.69-.33-2.01-.55-4.06-.66-6.13-1.37-25.52 13.53-47.79 35.24-57.39 1.439 3.661 3.048 7.268 4.83 10.812z"/><path d="m422.71 359.53c-.04 4.17-.43 8.27-1.15 12.25-2.46-6.65-8.68-11.62-16.06-11.74-9.8-.16-17.79 7.74-17.79 17.5 0 22.41-18.98 40.48-41.72 38.96-19.57-1.31-35.35-17.36-36.32-36.95-.19-3.9.18-7.74 1.09-11.41 4 16.12 18.18 28.45 35.23 29.59 22.74 1.52 41.72-16.55 41.72-38.96 0-9.76 7.99-17.66 17.79-17.5 9.65.16 17.31 8.61 17.21 18.26z"/><path d="m387.4 220.37c-2.16-30.56-14.9-60.5-38.21-83.81-24.89-24.9-57.99-38.6-93.19-38.6s-68.3 13.7-93.19 38.6c-23.31 23.31-36.05 53.25-38.21 83.8-2.6-36.81 10.13-74.5 38.21-102.57 24.89-24.9 57.99-38.61 93.19-38.61s68.3 13.71 93.19 38.61c28.08 28.07 40.82 65.77 38.21 102.58z"/></g><g><path d="m7.5 357.706c4.143 0 7.5-3.357 7.5-7.5v-130.926c0-.662.265-1.304.736-1.77l22.712-22.563c4.224-4.199 6.013-10.185 4.788-16.013-1.227-5.829-5.277-10.589-10.845-12.736l-15.78-6.066c-.964-.371-1.611-1.313-1.611-2.342v-64.67l26.102 4.749c.446.081.896.121 1.343.121 1.625 0 3.22-.528 4.533-1.525l5.289-4.012 9.525 12.666c1.474 1.96 3.723 2.992 6 2.992 1.569 0 3.151-.49 4.502-1.506 3.311-2.489 3.976-7.191 1.486-10.502l-9.563-12.717 15.592-11.829 23.453 5.882c4.013 1.01 8.092-1.432 9.099-5.45 1.008-4.018-1.432-8.091-5.45-9.099l-2.387-.599 5.274-4.257c3.223-2.602 3.727-7.323 1.125-10.547-2.601-3.222-7.322-3.729-10.547-1.125l-14.074 11.358-6.335-1.589c-2.204-.554-4.544-.076-6.357 1.3l-33.07 25.089-25.54-4.647v-40.373c0-12.406 10.094-22.5 22.5-22.5h273.08c4.143 0 7.5-3.357 7.5-7.5s-3.357-7.5-7.5-7.5h-273.08c-20.678 0-37.5 16.822-37.5 37.5v120.29c0 7.184 4.505 13.748 11.219 16.341l15.783 6.067c1.109.428 1.45 1.326 1.555 1.824.104.497.154 1.454-.683 2.286l-22.701 22.552c-3.287 3.255-5.173 7.783-5.173 12.42v130.926c0 4.143 3.357 7.5 7.5 7.5z"/><path d="m497.56 77.02-8.666-1.539c-1.196-.212-2.063-1.247-2.063-2.461v-28.432c0-5.401-2.435-10.415-6.683-13.757l-11.482-9.028c-3.069-2.413-6.91-3.742-10.815-3.742h-14.982c-.658 0-1.28-.254-1.75-.716l-12.568-12.333c-3.292-3.233-7.645-5.012-12.258-5.012h-76.612c-4.143 0-7.5 3.357-7.5 7.5s3.357 7.5 7.5 7.5h76.612c.658 0 1.28.254 1.75.716l12.566 12.333c3.292 3.232 7.645 5.012 12.258 5.012h14.982c.558 0 1.106.19 1.545.534l11.479 9.026c.607.478.956 1.194.956 1.967v28.432c0 8.498 6.073 15.745 14.44 17.23l8.666 1.539c1.196.212 2.063 1.247 2.063 2.461v81.936h-33.543l-16.268-21.603c-2.49-3.307-7.192-3.971-10.503-1.479-3.309 2.491-3.972 7.194-1.479 10.503l5.861 7.784-5.861 7.784c-2.492 3.31-1.829 8.012 1.479 10.503 1.352 1.018 2.936 1.509 4.506 1.509 2.275 0 4.523-1.031 5.997-2.988l3.268-4.339 3.268 4.339c1.417 1.882 3.636 2.988 5.991 2.988h37.286v283.313c0 12.406-10.094 22.5-22.5 22.5h-13.329l-16.635-22.096c-2.775-3.692-6.997-6.179-11.606-6.825l-23.313-3.199c-5.93-.814-11.799 1.42-15.673 5.962l-7.93 9.261c-.472.551-1.158.867-1.884.867h-68.48c-6.35 0-12.214 3.45-15.308 9.01l-3.177 5.724c-.445.8-1.287 1.297-2.196 1.297h-155.559l-1.919-10.985 15.125-15.651c2.878-2.979 2.797-7.727-.182-10.605-2.979-2.881-7.728-2.797-10.605.182l-5.396 5.584-7.343-6.13c-3.181-2.654-7.91-2.229-10.564.951s-2.229 7.91.951 10.564l6.504 5.43-1.929 1.996c-1.666 1.725-2.407 4.141-1.994 6.503l2.126 12.16h-86.684c-12.406 0-22.5-10.094-22.5-22.5v-95.193c0-4.143-3.357-7.5-7.5-7.5s-7.5 3.357-7.5 7.5v95.193c0 20.678 16.822 37.5 37.5 37.5h257.47c6.35 0 12.214-3.45 15.308-9.01l3.177-5.724c.445-.8 1.287-1.297 2.196-1.297h68.479c5.112 0 9.952-2.228 13.278-6.111l7.938-9.271c.551-.646 1.387-.962 2.233-.846l23.289 3.196c.667.093 1.278.45 1.679.983l18.891 25.09c1.416 1.883 3.636 2.989 5.991 2.989h17.07c20.678 0 37.5-16.822 37.5-37.5v-380.249c.001-8.498-6.072-15.744-14.439-17.23z"/><path d="m354.123 309.847c.016-.015.085-.081.1-.097l.275-.271c26.27-26.27 40.737-61.25 40.737-98.498s-14.468-72.229-40.737-98.498c-26.31-26.309-61.291-40.798-98.498-40.798s-72.188 14.489-98.498 40.799c-41.852 41.852-52.408 106.035-27.036 158.885-25.244 11.031-41.247 36.465-39.729 64.684.884 16.418 7.855 31.901 19.63 43.598 11.774 11.694 27.304 18.563 43.729 19.341 18.4.87 35.873-5.647 49.2-18.358 13.339-12.723 20.685-29.853 20.685-48.235 0-28.668-18.904-48.091-27.032-55.112-7.618-6.578-13.734-13.797-18.181-21.456-20.304-34.983-14.51-79.391 14.089-107.989 17.097-17.096 39.83-26.374 64.027-26.149 22.848.218 45.309 9.52 61.622 25.519 17.276 16.943 26.791 39.592 26.791 63.773 0 23.765-9.226 46.124-25.981 62.97l-27.959 26.809c-.128.124-.257.249-.352.346-16.009 16.008-24.48 37.31-23.854 59.982.411 14.871 4.949 29.373 13.123 41.939 2.259 3.472 6.905 4.456 10.377 2.197s4.456-6.904 2.197-10.377c-6.668-10.249-10.368-22.066-10.703-34.174-.512-18.51 6.401-35.898 19.495-48.991l28.119-26.965c.041-.039.082-.079.122-.119 19.613-19.684 30.415-45.828 30.415-73.617 0-28.243-11.111-54.695-31.288-74.482-19.337-18.964-44.9-29.551-71.981-29.81-.347-.003-.689-.005-1.036-.005-27.863 0-54.018 10.825-73.741 30.547-33.402 33.403-40.169 85.268-16.455 126.126 5.284 9.104 12.467 17.61 21.349 25.279 6.565 5.671 21.837 21.288 21.837 43.76 0 14.241-5.695 27.517-16.037 37.38-10.33 9.853-23.872 14.9-38.139 14.231-26.121-1.237-47.684-22.656-49.089-48.763-1.306-24.252 14.08-45.852 37.415-52.524 2.205-.631 4-2.235 4.873-4.356.873-2.12.728-4.523-.395-6.523-27.138-48.375-18.708-109.543 20.5-148.75 23.477-23.482 54.69-36.41 87.891-36.41s64.414 12.929 87.891 36.406c23.438 23.436 36.345 54.649 36.345 87.891s-12.907 64.455-36.374 87.921l-28.114 26.962c-.046.043-.091.087-.135.132-9.323 9.401-14.094 21.886-13.435 35.154 1.173 23.544 19.794 42.485 43.315 44.059 13.007.871 25.432-3.551 34.947-12.45 9.388-8.781 14.772-21.17 14.772-33.99 0-2.701 1.061-5.233 2.986-7.128 1.925-1.896 4.518-2.926 7.181-2.871 5.386.087 9.887 4.978 9.829 10.682-.183 18.215-7.61 35.159-20.914 47.711-13.285 12.533-30.652 18.944-48.907 18.074-12.241-.589-24.093-4.608-34.272-11.623-3.412-2.352-8.082-1.491-10.432 1.92-2.351 3.411-1.49 8.081 1.92 10.432 12.483 8.602 27.028 13.53 42.063 14.254 1.354.065 2.7.098 4.045.098 20.872 0 40.584-7.816 55.877-22.244 16.296-15.375 25.395-36.141 25.62-58.47.142-14.022-10.888-25.61-24.588-25.831-.138-.002-.275-.003-.414-.003-6.603 0-12.813 2.54-17.528 7.181-4.814 4.737-7.466 11.065-7.466 17.819 0 8.812-3.558 16.992-10.019 23.035-6.45 6.031-14.86 9.028-23.699 8.438-15.669-1.048-28.555-14.154-29.335-29.837-.447-8.977 2.763-17.419 9.04-23.783z"/><path d="m125.639 332.396c0 17.463 14.208 31.67 31.672 31.67 17.463 0 31.67-14.207 31.67-31.67 0-7.134-2.454-14.139-6.911-19.724-.375-.47-.805-.894-1.281-1.261-.42-.324-.734-.593-.983-.842l-3.089-3.09c-.284-.284-.592-.546-.918-.781-5.423-3.909-11.815-5.975-18.487-5.975-17.465.002-31.673 14.21-31.673 31.673zm31.672-16.671c3.32 0 6.512.976 9.265 2.828l2.627 2.629c.489.487 1.019.968 1.604 1.453 2.079 2.855 3.174 6.214 3.174 9.762 0 9.191-7.479 16.67-16.67 16.67-9.193 0-16.672-7.479-16.672-16.67 0-9.194 7.478-16.672 16.672-16.672z"/><path d="m91.2 398.108c-4.143 0-7.5 3.357-7.5 7.5v10.137c0 2.198.964 4.285 2.638 5.71l13.886 11.825c1.411 1.202 3.14 1.79 4.858 1.79 2.122 0 4.23-.896 5.714-2.638 2.686-3.153 2.307-7.887-.848-10.572l-11.248-9.579v-6.673c0-4.142-3.357-7.5-7.5-7.5z"/><path d="m441.198 275.576c-4.143 0-7.5 3.357-7.5 7.5s3.357 7.5 7.5 7.5h.104c4.143 0 7.5-3.357 7.5-7.5s-3.357-7.5-7.5-7.5z"/><path d="m449.681 264.537h.072c4.108 0 7.459-3.312 7.498-7.43.039-4.142-3.287-7.531-7.43-7.57l-.104-.001c-.023 0-.048 0-.072 0-4.108 0-7.459 3.312-7.498 7.43-.039 4.142 3.287 7.531 7.43 7.57z"/><path d="m237.236 153.521c-3.078-2.771-7.82-2.522-10.592.557l-7.603 8.446c-2.771 3.079-2.522 7.821.557 10.592 1.434 1.291 3.228 1.926 5.016 1.926 2.052 0 4.096-.837 5.576-2.482l7.603-8.446c2.771-3.081 2.522-7.823-.557-10.593z"/><path d="m215.358 443.432c-2.948 2.909-2.98 7.657-.071 10.606l7.981 8.09c1.468 1.487 3.402 2.232 5.339 2.232 1.902 0 3.807-.72 5.268-2.161 2.948-2.909 2.98-7.657.071-10.606l-7.981-8.09c-2.91-2.949-7.659-2.981-10.607-.071z"/></g></g></svg>