<svg id="Capa_1" enable-background="new 0 0 512 512" height="512" viewBox="0 0 512 512" width="512" xmlns="http://www.w3.org/2000/svg"><g><g><path d="m504.5 256c0 109.04-70.24 201.68-167.94 235.14-200.367-95.045-202.707-389.721-79.52-483.63 136.76.55 247.46 111.6 247.46 248.49z" fill="#eaaa83"/><path d="m336.56 491.14c-25.26 8.66-52.36 13.36-80.56 13.36-137.24 0-248.5-111.26-248.5-248.5s111.26-248.5 248.5-248.5c.35 0 .69 0 1.04.01-91.43 136.22-78.95 354.85 79.52 483.63z" fill="#e4996d"/><path d="m419.38 256c0 86.03-66.51 156.54-150.91 162.91-108.093-76.883-121.631-223.878-53.49-321.11 13.11-3.39 26.85-5.19 41.02-5.19 90.23 0 163.38 73.15 163.38 163.39z" fill="#e4996d"/><path d="m268.47 418.91c-4.11.31-8.27.47-12.47.47-90.23 0-163.38-73.15-163.38-163.38 0-76.07 51.98-140 122.36-158.2-30.39 102.37-16.07 223.82 53.49 321.11z" fill="#df8a57"/><path d="m431.09 212.8c-17.83 17.96-45.36 20.54-66.03 8.23-8.6-5.12-19.6-3.66-26.68 3.42l-113.51 113.51c-23.148-21.05-29.533-49.598-21.06-80.6l83.74-83.74c7.08-7.08 8.54-18.08 3.41-26.69-12.31-20.66-9.73-48.19 8.24-66.02 21.14-21.15 55.42-21.15 76.56 0 10.89 10.88 16.15 25.24 15.83 39.5 14.26-.32 28.62 4.94 39.5 15.82 21.15 21.15 21.15 55.43 0 76.57z" fill="#d7ddf5"/><path d="m212.8 431.09c-21.14 21.14-55.42 21.14-76.56 0-10.89-10.88-16.15-25.24-15.83-39.5-14.26.32-28.62-4.95-39.5-15.83-21.15-21.14-21.15-55.42 0-76.56 17.83-17.97 45.36-20.55 66.03-8.24 8.6 5.13 19.6 3.67 26.68-3.41l30.19-30.19c3.95 27.21 10.92 54.29 21.06 80.6l-.42.42c-7.08 7.08-8.54 18.08-3.41 26.68 12.3 20.67 9.72 48.19-8.24 66.03z" fill="#c5cff1"/><path d="m431.09 375.76c-10.88 10.88-25.24 16.15-39.5 15.83.32 14.26-4.94 28.62-15.83 39.5-21.14 21.14-55.42 21.14-76.56 0-17.97-17.84-20.55-45.36-8.24-66.03 5.13-8.6 3.67-19.6-3.41-26.68l-84.18-84.18c-22.825-52.696-22.825-133.349 14.91-166.92 12.87 17.58 13.67 41.32 2.76 59.65-5.13 8.61-3.67 19.61 3.41 26.69l113.93 113.93c7.08 7.08 18.08 8.54 26.68 3.41 20.67-12.31 48.2-9.73 66.03 8.24 21.15 21.14 21.15 55.42 0 76.56z" fill="#f3f5fc"/><path d="m203.37 254.2-29.75-29.75c-7.08-7.08-18.08-8.54-26.68-3.41-20.67 12.3-48.2 9.72-66.03-8.24-21.15-21.14-21.15-55.42 0-76.57 10.88-10.88 25.24-16.14 39.5-15.82-.32-14.26 4.94-28.62 15.83-39.5 21.14-21.15 55.42-21.15 76.56 0 2.02 2.01 3.85 4.14 5.48 6.37-17.27 52.14-22.73 109.76-14.91 166.92z" fill="#d7ddf5"/></g><g><path d="m437.02 74.98c-48.353-48.351-112.64-74.98-181.02-74.98-65.023 0-127.017 24.423-174.562 68.769-3.029 2.825-3.194 7.571-.369 10.6 2.827 3.03 7.572 3.196 10.601.369 44.758-41.747 103.118-64.738 164.33-64.738 132.888 0 241 108.112 241 241s-108.112 241-241 241-241-108.112-241-241c0-54.962 19.004-108.733 53.512-151.408 2.604-3.221 2.104-7.943-1.116-10.548-3.221-2.603-7.943-2.105-10.548 1.116-36.659 45.336-56.848 102.456-56.848 160.84 0 68.38 26.628 132.668 74.981 181.02 48.351 48.351 112.639 74.98 181.019 74.98s132.667-26.629 181.02-74.98c48.351-48.352 74.98-112.64 74.98-181.02s-26.629-132.667-74.98-181.02z"/><path d="m436.397 130.933c-10.244-10.243-23.376-16.406-37.572-17.757-1.351-14.194-7.514-27.329-17.757-37.572-11.643-11.642-27.121-18.053-43.586-18.053-16.464 0-31.942 6.411-43.565 18.034-3.668 3.641-6.788 7.654-9.358 11.926-18.803-3.156-38.308-3.156-57.112 0-2.567-4.265-5.682-8.272-9.343-11.907-24.033-24.032-63.137-24.031-87.17.001-10.243 10.243-16.406 23.377-17.756 37.571-14.194 1.352-27.331 7.515-37.572 17.757-11.642 11.643-18.054 27.121-18.054 43.586s6.412 31.943 18.035 43.566c3.641 3.667 7.654 6.788 11.924 9.359-1.582 9.403-2.393 18.983-2.393 28.556s.811 19.152 2.393 28.555c-4.265 2.567-8.271 5.681-11.905 9.342-24.033 24.033-24.033 63.139 0 87.172 10.244 10.243 23.377 16.406 37.572 17.757 1.35 14.194 7.513 27.328 17.756 37.572 11.642 11.642 27.121 18.053 43.585 18.053s31.943-6.411 43.566-18.034c3.667-3.641 6.787-7.654 9.358-11.925 9.401 1.582 18.981 2.393 28.558 2.393s19.155-.811 28.554-2.392c2.567 4.265 5.682 8.271 9.343 11.906 8.557 8.556 19.333 14.359 31.165 16.784 3.956.842 8.04-1.757 8.854-5.842.831-4.059-1.784-8.021-5.842-8.854-8.947-1.833-17.097-6.224-23.589-12.715-15.15-15.042-18.061-38.427-7.078-56.868 6.874-11.541 5.002-26.274-4.552-35.829l-113.93-113.929c-9.555-9.554-24.288-11.427-35.828-4.552-18.442 10.982-41.826 8.072-56.887-7.097-18.185-18.185-18.185-47.772 0-65.958 9.08-9.078 21.18-13.902 34.03-13.633 2.049.046 4.023-.747 5.471-2.194 1.448-1.448 2.241-3.425 2.195-5.472-.288-12.864 4.554-24.95 13.633-34.029 18.185-18.187 47.773-18.186 65.977.019 15.15 15.043 18.061 38.428 7.077 56.868-6.873 11.541-5.001 26.274 4.553 35.829l113.929 113.929c9.555 9.553 24.288 11.427 35.828 4.552 18.439-10.981 41.825-8.073 56.887 7.097 18.186 18.185 18.186 47.772 0 65.957-9.08 9.08-21.17 13.903-34.029 13.634-2.057-.03-4.024.747-5.472 2.194-1.447 1.448-2.24 3.425-2.194 5.472.288 12.864-4.554 24.95-13.634 34.029-3.641 3.642-7.835 6.638-12.467 8.906-3.72 1.821-5.259 6.313-3.437 10.034 1.821 3.719 6.311 5.261 10.034 3.437 6.119-2.997 11.663-6.957 16.477-11.77 10.243-10.244 16.406-23.378 17.757-37.572 14.194-1.351 27.329-7.514 37.572-17.757 24.033-24.033 24.033-63.139.019-87.152-3.641-3.667-7.654-6.786-11.925-9.357 1.582-9.404 2.394-18.984 2.394-28.559 0-9.573-.811-19.151-2.393-28.554 4.265-2.567 8.271-5.681 11.905-9.342 24.032-24.034 24.032-63.139-.001-87.172zm-228.901 294.857c-18.184 18.186-47.772 18.186-65.957.001-9.079-9.08-13.921-21.166-13.633-34.03.046-2.047-.747-4.023-2.195-5.472-1.448-1.447-3.428-2.233-5.471-2.194-12.876.278-24.95-4.554-34.03-13.634-18.185-18.185-18.185-47.772.019-65.977 15.042-15.149 38.426-18.06 56.869-7.077 11.541 6.876 26.273 5.002 35.828-4.552l26.247-26.249 40.22 40.22-26.248 26.248c-9.554 9.554-11.426 24.287-4.553 35.828 10.984 18.442 8.073 41.827-7.096 56.888zm77.024-64.562c-9.068 15.225-10.962 33.007-6.222 49.057-14.728 2.099-29.871 2.1-44.6 0 4.743-16.054 2.849-33.833-6.218-49.056-3.357-5.636-2.422-12.852 2.272-17.546l26.248-26.249 26.247 26.248c4.696 4.694 5.629 11.909 2.273 17.546zm-165.383-125.011c10.841 0 21.777-2.864 31.636-8.736 5.635-3.357 12.851-2.422 17.546 2.272l26.247 26.248-26.247 26.247c-4.694 4.695-11.91 5.628-17.546 2.272-15.226-9.069-33.01-10.962-49.06-6.221-1.054-7.367-1.597-14.833-1.597-22.299 0-7.468.543-14.937 1.598-22.306 5.656 1.671 11.525 2.524 17.423 2.523zm108.343-85.444c9.068-15.225 10.961-33.007 6.221-49.058 14.733-2.1 29.869-2.1 44.6 0-4.743 16.053-2.849 33.833 6.218 49.057 3.356 5.636 2.422 12.852-2.272 17.546l-26.247 26.249-26.247-26.247c-4.695-4.695-5.63-11.911-2.273-17.547zm184.404 105.227c0 7.467-.542 14.935-1.597 22.303-16.054-4.744-33.836-2.85-49.06 6.217-5.637 3.357-12.852 2.423-17.546-2.272l-26.248-26.248 26.247-26.248c4.696-4.693 11.91-5.627 17.547-2.272 15.225 9.068 33.009 10.962 49.06 6.221 1.055 7.367 1.597 14.834 1.597 22.299zm-42.982-41.406c-11.54-6.873-26.272-5.002-35.829 4.552l-26.248 26.248-40.219-40.219 26.248-26.248c9.554-9.555 11.426-24.288 4.552-35.828-10.983-18.441-8.072-41.826 7.098-56.887 18.183-18.186 47.771-18.186 65.956 0 9.08 9.079 13.922 21.165 13.634 34.029-.046 2.047.747 4.023 2.194 5.472 1.448 1.447 3.434 2.232 5.472 2.194 12.847-.288 24.95 4.554 34.029 13.634 18.185 18.185 18.185 47.772-.019 65.977-15.041 15.149-38.428 18.058-56.868 7.076z"/></g></g></svg>