<svg id="Capa_1" enable-background="new 0 0 511.996 511.996" height="512" viewBox="0 0 511.996 511.996" width="512" xmlns="http://www.w3.org/2000/svg"><g><path d="m330.998 376c0 7.896 2.079 15.671 6.014 22.482l38.986 67.514 38.987-67.514c3.934-6.812 6.013-14.585 6.013-22.481 0-19.555-12.541-36.228-30-42.42v-107.581c0-66.505-47.634-122.007-110.335-133.717l14.321-24.8c3.935-6.812 6.014-14.586 6.014-22.483 0-24.813-20.187-45-45-45s-45 20.187-45 45c0 7.898 2.08 15.672 6.013 22.481l14.322 24.801c-62.702 11.711-110.335 67.213-110.335 133.718v107.58c-17.459 6.192-30 22.865-30 42.42 0 7.898 2.08 15.672 6.013 22.481l38.987 67.514 38.987-67.512c3.934-6.812 6.013-14.586 6.013-22.483 0-19.555-12.541-36.228-30-42.42v-22.832c21.805 26.963 53.759 45.389 90 49.414v18.418c-17.459 6.192-30 22.865-30 42.42 0 8.308 2.192 16.867 6.013 23.482l38.987 67.514 38.987-67.514c3.821-6.617 6.013-15.176 6.013-23.481 0-19.555-12.541-36.228-30-42.42v-18.418c36.241-4.025 68.195-22.451 90-49.414v22.832c-17.459 6.191-30 22.864-30 42.419zm-181.992 7.479-13.008 22.525-13.008-22.527c-1.322-2.288-1.992-4.804-1.992-7.478 0-8.271 6.729-15 15-15s15 6.729 15 15c0 2.675-.67 5.192-1.992 7.48zm62.156-144.734c-16.205-1.697-41.185-5.503-55.826-12.745 14.655-7.249 39.663-11.051 55.825-12.744-.107 4.212-.163 8.463-.163 12.744 0 4.283.056 8.534.164 12.745zm-54.972 19.869c17.294 5.527 38.515 8.773 56.735 10.459 1.687 18.223 4.933 39.442 10.459 56.735-31.707-10.387-56.807-35.487-67.194-67.194zm56.72-75.686c-18.147 1.68-39.481 4.931-56.831 10.493 10.33-32.212 35.545-57.718 67.421-68.218-5.595 17.512-8.9 39.294-10.59 57.725zm56.095 246.552-13.007 22.524-13.008-22.526c-.99-1.713-1.992-5.176-1.992-8.478 0-8.271 6.729-15 15-15s15 6.729 15 15c0 3.302-1.002 6.764-1.993 8.48zm-25.752-158.644c4.21.107 8.462.164 12.745.164s8.534-.057 12.745-.164c-1.698 16.207-5.503 41.186-12.745 55.826-7.249-14.655-11.052-39.662-12.745-55.826zm27.508-30.073c-4.874.156-9.805.337-14.763.337s-9.889-.181-14.763-.337c-.156-4.874-.337-9.805-.337-14.763 0-4.955.18-9.886.336-14.763 4.874-.156 9.805-.337 14.764-.337s9.89.181 14.764.337c.155 4.878.336 9.808.336 14.763 0 4.959-.181 9.889-.337 14.763zm-27.526-59.598c1.707-16.475 5.528-41.704 12.763-56.618 7.23 14.907 11.053 40.122 12.763 56.618-4.216-.108-8.473-.165-12.763-.165s-8.547.057-12.763.165zm25.77-128.685-13.007 22.524-13.008-22.526c-1.322-2.288-1.992-4.804-1.992-7.478 0-8.271 6.729-15 15-15s15 6.729 15 15c0 2.674-.671 5.19-1.993 7.48zm86.912 140.941c-17.365-5.567-38.703-8.815-56.831-10.493-1.692-18.451-4.999-40.226-10.589-57.725 31.876 10.5 57.09 36.007 67.42 68.218zm-67.305 132.387c5.526-17.291 8.773-38.51 10.459-56.735 18.269-1.691 39.476-4.943 56.734-10.459-10.386 31.707-35.486 56.807-67.193 67.194zm12.222-87.063c.107-4.21.164-8.461.164-12.745 0-4.281-.056-8.532-.163-12.744 16.298 1.707 41.214 5.518 55.825 12.744-14.61 7.225-39.52 11.036-55.826 12.745zm75.164 122.255c8.271 0 15 6.729 15 15 0 2.673-.67 5.189-1.992 7.48l-13.008 22.524-13.008-22.525c-1.322-2.289-1.992-4.805-1.992-7.479 0-8.271 6.728-15 15-15z"/></g></svg>