<svg id="Capa_1" enable-background="new 0 0 512 512" height="512" viewBox="0 0 512 512" width="512" xmlns="http://www.w3.org/2000/svg"><g><g><path d="m7.5 37.5c0-16.569 13.431-30 30-30h378.792c2.62 0 5.135 1.028 7.005 2.863l12.566 12.333c1.87 1.835 4.385 2.863 7.005 2.863h14.982c2.242 0 4.419.753 6.181 2.139l11.481 9.028c2.411 1.896 3.819 4.794 3.819 7.861v28.432c0 4.848 3.478 8.998 8.251 9.846l8.667 1.539c4.774.848 8.251 4.998 8.251 9.846v380.25c0 16.569-13.431 30-30 30h-17.07l-18.89-25.09c-1.6-2.13-3.99-3.53-6.63-3.9l-23.31-3.2c-3.37-.46-6.75.82-8.96 3.41l-7.929 9.261c-1.896 2.214-4.665 3.489-7.581 3.489h-68.48c-3.64 0-6.98 1.97-8.75 5.15l-3.18 5.73c-1.77 3.18-5.11 5.15-8.75 5.15h-257.47c-16.569 0-30-13.431-30-30z" fill="#9ad4ba"/><path d="m504.5 94.25v380.25c0 16.57-13.43 30-30 30h-17.07l-4.06-5.4c7.76-5.41 12.84-14.41 12.84-24.6v-380.25c0-4.85-3.48-9-8.25-9.85l-8.67-1.53c-4.77-.85-8.25-5-8.25-9.85v-28.43c0-3.07-1.41-5.97-3.82-7.86l-11.48-9.03c-1.76-1.39-3.94-2.14-6.18-2.14h-14.98c-2.62 0-5.14-1.03-7.01-2.86l-12.56-12.34c-1.87-1.83-4.39-2.86-7.01-2.86h38.29c2.62 0 5.14 1.03 7.01 2.86l12.56 12.34c1.87 1.83 4.39 2.86 7.01 2.86h14.98c2.24 0 4.42.75 6.18 2.14l11.48 9.03c2.41 1.89 3.82 4.79 3.82 7.86v28.43c0 4.85 3.48 9 8.25 9.85l8.67 1.53c4.77.85 8.25 5 8.25 9.85z" fill="#5bbd93"/></g><path d="m314.788 432.023c-7.603 0-14.939-2.28-21.218-6.594-17.043-11.709-21.382-35.101-9.673-52.143l48.134-70.054-25.809-37.584c-15.172-22.093-20.991-49.999-16.172-77.063-.653-2.081-2.615-3.608-4.884-3.608-2.824 0-5.121 2.298-5.121 5.122v169.823c0 20.678-16.822 37.5-37.5 37.5s-37.5-16.822-37.5-37.5v-169.823c0-2.824-2.298-5.122-5.122-5.122s-5.122 2.298-5.122 5.122v169.823c0 20.678-16.822 37.5-37.5 37.5s-37.5-16.822-37.5-37.5v-169.823c0-2.824-2.298-5.122-5.122-5.122s-5.122 2.298-5.122 5.122c0 20.678-16.822 37.5-37.5 37.5s-37.5-16.822-37.5-37.5c0-44.179 35.942-80.122 80.122-80.122 15.313 0 29.971 4.278 42.622 12.271 12.65-7.994 27.308-12.271 42.622-12.271s29.971 4.278 42.621 12.271c12.651-7.994 27.309-12.271 42.622-12.271 16.397 0 32.25 5.053 45.522 14.236 13.05-8.732 28.118-13.675 43.824-14.201.647-.021 1.858-.035 3.061-.035 1.174 0 2.338.014 2.947.033 31.717 1.056 59.731 19.683 74.957 49.826 17.008 33.669 14.4 75.212-6.642 105.835l-25.816 37.574 47.834 69.658c5.67 8.256 7.786 18.228 5.956 28.076-1.829 9.849-7.384 18.395-15.642 24.065-6.274 4.309-13.61 6.588-21.21 6.588-.002 0-.002 0-.003 0-12.37-.001-23.933-6.085-30.929-16.275l-31.511-45.887-31.803 46.287c-7 10.185-18.559 16.265-30.921 16.265.003.001-.001.001-.002.001zm61.98-247.043c-5.423.305-8.953 6.155-10.228 8.677-4.759 9.421-4.153 21.291 1.509 29.535l9.486 13.814 9.487-13.809c5.666-8.246 6.273-20.119 1.512-29.546-1.271-2.517-4.795-8.346-10.265-8.672.001 0-1.211 0-1.501.001z" fill="#5bbd93"/><path d="m454.367 384.225-55.61-80.983 33.597-48.897c16.965-24.69 19.035-58.247 5.273-85.491-11.881-23.521-33.466-38.045-57.752-38.854-.966-.031-3.726-.03-4.691.001-17.1.573-32.86 7.96-44.838 20.495-11.028-12.565-27.187-20.519-45.179-20.519-16.643 0-31.725 6.8-42.621 17.765-10.897-10.964-25.979-17.765-42.622-17.765s-31.725 6.8-42.622 17.765c-10.897-10.964-25.979-17.765-42.622-17.765-33.151 0-60.122 26.971-60.122 60.122 0 9.665 7.835 17.5 17.5 17.5s17.5-7.835 17.5-17.5c0-13.853 11.27-25.122 25.122-25.122s25.122 11.27 25.122 25.122v169.823c0 9.665 7.835 17.5 17.5 17.5s17.5-7.835 17.5-17.5v-169.823c0-13.853 11.27-25.122 25.122-25.122s25.122 11.27 25.122 25.122v169.823c0 9.665 7.835 17.5 17.5 17.5s17.5-7.835 17.5-17.5v-169.823c0-13.853 11.27-25.122 25.121-25.122 13.608 0 24.715 10.877 25.104 24.393-4.718 22.331-.441 46.201 12.439 64.957l33.585 48.909-55.913 81.375c-5.473 7.966-3.452 18.86 4.514 24.333 3.028 2.081 6.479 3.079 9.895 3.078 5.57 0 11.046-2.653 14.439-7.591l48.292-70.285 47.994 69.89c5.471 7.968 16.367 9.99 24.332 4.52 7.967-5.47 9.991-16.364 4.519-24.331zm-102.806-149.711c-9.823-14.305-10.951-33.883-2.872-49.875 2.895-5.729 11.383-19.112 27.586-19.655.237-.005 2.287-.006 2.449-.003 16.279.542 24.768 13.925 27.661 19.653 8.082 16 6.952 35.583-2.879 49.89l-25.977 37.807z" fill="#1ca56f"/><path d="m445.94 218.51c-1.21-9.35-3.98-18.56-8.31-27.13-11.88-23.52-33.47-38.05-57.76-38.86-.96-.03-3.72-.03-4.69.01-15.496.516-29.892 6.634-41.364 17.102-1.933 1.764-4.916 1.713-6.793-.11-10.833-10.522-25.596-17.022-41.853-17.022-15.051 0-28.819 5.557-39.369 14.727-1.863 1.619-4.64 1.62-6.503.001-10.557-9.171-24.326-14.728-39.378-14.728-15.043 0-28.811 5.558-39.369 14.729-1.863 1.618-4.639 1.618-6.502 0-10.557-9.172-24.326-14.729-39.369-14.729-28.07 0-51.7 19.33-58.29 45.38-1.17-2.34-1.83-4.98-1.83-7.78 0-33.15 26.97-60.12 60.12-60.12 16.64 0 31.72 6.8 42.62 17.76 10.9-10.96 25.98-17.76 42.62-17.76 16.65 0 31.73 6.8 42.63 17.76 10.89-10.96 25.97-17.76 42.62-17.76 17.99 0 34.15 7.95 45.18 20.52 11.97-12.54 27.73-19.93 44.83-20.5.97-.03 3.73-.03 4.69 0 24.29.81 45.88 15.33 57.76 38.85 7.8 15.45 10.51 32.92 8.31 49.66z" fill="#158f5e"/><g><path d="m497.56 77.02-8.667-1.539c-1.195-.212-2.063-1.247-2.063-2.461v-28.432c0-5.402-2.436-10.416-6.683-13.757l-11.48-9.027c-3.07-2.414-6.912-3.743-10.817-3.743h-14.981c-.659 0-1.281-.254-1.751-.716l-12.567-12.334c-3.292-3.232-7.646-5.011-12.259-5.011h-194.331c-4.142 0-7.5 3.357-7.5 7.5s3.358 7.5 7.5 7.5h102.843l2.559 15.652-18.273 17.542c-2.988 2.868-3.085 7.616-.217 10.604 1.473 1.535 3.44 2.307 5.412 2.307 1.868 0 3.739-.693 5.193-2.09l3.885-3.73 6.632 6.897c1.473 1.531 3.438 2.302 5.407 2.302 1.87 0 3.743-.695 5.197-2.094 2.986-2.871 3.079-7.619.208-10.604l-6.623-6.888 6.411-6.154c1.78-1.709 2.606-4.185 2.208-6.62l-2.8-17.124h76.29c.659 0 1.281.254 1.751.716l12.566 12.334c3.292 3.231 7.646 5.011 12.258 5.011h14.981c.558 0 1.107.189 1.545.534l11.48 9.027c.607.478.956 1.193.956 1.966v28.432c0 8.498 6.073 15.744 14.44 17.23l8.667 1.539c1.195.212 2.063 1.247 2.063 2.461v380.25c0 12.406-10.093 22.5-22.5 22.5h-13.329l-16.635-22.095c-2.774-3.692-6.997-6.18-11.607-6.826l-23.313-3.199c-5.936-.816-11.798 1.421-15.673 5.962l-7.931 9.262c-.471.551-1.158.866-1.883.866h-68.48c-6.349 0-12.213 3.45-15.308 9.011l-3.176 5.722c-.445.801-1.287 1.298-2.196 1.298h-257.469c-12.407-.001-22.5-10.095-22.5-22.501v-109.083l20.687 15.339 4.733 46.542c.25 2.458 1.694 4.635 3.862 5.821l4.866 2.662c-.025.249-.038.502-.038.758v17.593c0 4.143 3.358 7.5 7.5 7.5s7.5-3.357 7.5-7.5v-10.165l10.299 5.635c1.143.625 2.376.922 3.593.921 2.653 0 5.224-1.41 6.586-3.901 1.988-3.634.654-8.191-2.98-10.18l-26.665-14.588-4.668-45.909c-.213-2.098-1.3-4.01-2.994-5.266l-32.281-23.936v-309.243c0-12.406 10.093-22.5 22.5-22.5h155.36c4.142 0 7.5-3.357 7.5-7.5s-3.358-7.5-7.5-7.5h-155.36c-20.678 0-37.5 16.822-37.5 37.5v437c0 20.678 16.822 37.5 37.5 37.5h257.47c6.349 0 12.213-3.45 15.308-9.011l3.176-5.722c.445-.801 1.287-1.298 2.196-1.298h68.48c5.113 0 9.953-2.228 13.277-6.111l7.938-9.271c.552-.646 1.39-.963 2.235-.847l23.288 3.196c.668.093 1.278.449 1.68.983l18.89 25.09c1.417 1.883 3.636 2.989 5.992 2.989h17.07c20.678 0 37.5-16.822 37.5-37.5v-380.248c0-8.498-6.073-15.744-14.44-17.23z"/><path d="m91.699 398.639-.104-.001c-.024 0-.048 0-.072 0-4.109 0-7.459 3.312-7.498 7.43-.039 4.142 3.287 7.531 7.429 7.57l.104.001h.072c4.109 0 7.459-3.312 7.498-7.43.039-4.142-3.287-7.531-7.429-7.57z"/><path d="m116.628 75.465c4.142 0 7.5-3.357 7.5-7.5s-3.358-7.5-7.5-7.5h-.104c-4.142 0-7.5 3.357-7.5 7.5s3.358 7.5 7.5 7.5z"/><path d="m109.768 419.484c-4.142 0-7.5 3.357-7.5 7.5s3.358 7.5 7.5 7.5h.104c4.142 0 7.5-3.357 7.5-7.5s-3.358-7.5-7.5-7.5z"/><path d="m163.399 75.465c4.142 0 7.5-3.357 7.5-7.5v-10.137c0-2.198-.964-4.285-2.637-5.71l-13.886-11.825c-3.152-2.685-7.886-2.306-10.573.848-2.686 3.153-2.306 7.887.847 10.572l11.249 9.579v6.673c0 4.142 3.358 7.5 7.5 7.5z"/><path d="m395.327 89.735c1.434 1.29 3.228 1.926 5.015 1.926 2.052 0 4.096-.837 5.577-2.482l7.602-8.446c2.771-3.079 2.521-7.821-.557-10.592-3.08-2.771-7.822-2.522-10.592.557l-7.602 8.446c-2.771 3.079-2.522 7.821.557 10.591z"/><path d="m236.066 444.893-7.602 8.446c-2.771 3.079-2.521 7.821.557 10.592 1.434 1.29 3.228 1.926 5.015 1.926 2.052 0 4.096-.837 5.577-2.482l7.602-8.446c2.771-3.079 2.521-7.821-.557-10.592-3.079-2.773-7.821-2.524-10.592.556z"/><path d="m378.814 157.481c-.181-.004-2.46-.002-2.791.007-20.216.678-30.532 16.848-34.029 23.769-9.296 18.401-7.968 40.973 3.384 57.503l25.969 37.816c1.399 2.036 3.711 3.254 6.182 3.254h.001c2.47 0 4.782-1.217 6.182-3.253l25.976-37.806c11.36-16.532 12.691-39.109 3.392-57.519-3.496-6.921-13.817-23.092-34.105-23.769-.054-.001-.107-.002-.161-.002zm20.877 30.536c6.865 13.59 5.937 30.178-2.366 42.26l-19.793 28.808-19.788-28.816c-8.296-12.08-9.223-28.663-2.361-42.246 2.288-4.529 8.917-15.095 21.078-15.539.38-.004 1.748-.003 2.107-.003 12.212.458 18.837 11.011 21.123 15.536z"/><path d="m361.218 124.32c-11.238 2.622-21.72 7.997-30.692 15.685-12.384-11.218-28.533-17.528-45.359-17.528-15.705 0-30.594 5.335-42.621 15.153-12.027-9.818-26.917-15.153-42.622-15.153s-30.595 5.335-42.622 15.153c-12.027-9.818-26.917-15.153-42.622-15.153-37.287 0-67.622 30.336-67.622 67.623 0 13.785 11.215 25 25 25s25-11.215 25-25c0-9.718 7.905-17.623 17.622-17.623s17.622 7.905 17.622 17.623v169.822c0 13.785 11.215 25 25 25s25-11.215 25-25v-169.822c0-9.718 7.905-17.623 17.622-17.623s17.622 7.905 17.622 17.623v169.822c0 13.785 11.215 25 25 25s25-11.215 25-25v-98.159c0-4.143-3.358-7.5-7.5-7.5s-7.5 3.357-7.5 7.5v98.159c0 5.514-4.486 10-10 10s-10-4.486-10-10v-169.822c0-17.988-14.634-32.623-32.622-32.623s-32.622 14.635-32.622 32.623v169.822c0 5.514-4.486 10-10 10s-10-4.486-10-10v-169.822c0-17.988-14.634-32.623-32.622-32.623s-32.623 14.634-32.623 32.623c0 5.514-4.486 10-10 10s-10-4.486-10-10c0-29.017 23.606-52.623 52.622-52.623 14.088 0 27.335 5.523 37.302 15.553 1.408 1.416 3.323 2.213 5.32 2.213s3.912-.797 5.32-2.213c9.967-10.029 23.214-15.553 37.302-15.553s27.335 5.523 37.302 15.553c1.408 1.416 3.323 2.213 5.32 2.213s3.912-.797 5.32-2.213c9.967-10.029 23.214-15.553 37.301-15.553 15.108 0 29.52 6.549 39.542 17.967 1.388 1.581 3.375 2.507 5.478 2.551 2.104.05 4.128-.796 5.581-2.316 8.057-8.433 18.036-14.225 28.859-16.75 4.034-.941 6.541-4.975 5.599-9.008-.94-4.035-4.972-6.544-9.007-5.601z"/><path d="m384.715 129.908c-.932 4.036 1.584 8.063 5.62 8.995 17.094 3.947 31.891 16.097 40.597 33.332 12.544 24.834 10.676 55.396-4.761 77.862l-33.597 48.897c-1.757 2.558-1.758 5.935-.001 8.493l55.611 80.982c1.512 2.201 2.076 4.86 1.588 7.486s-1.969 4.905-4.172 6.417c-2.202 1.512-4.859 2.075-7.486 1.589-2.626-.488-4.905-1.969-6.417-4.172l-47.994-69.89c-1.399-2.037-3.711-3.255-6.182-3.255 0 0 0 0-.001 0-2.47 0-4.783 1.217-6.182 3.253l-48.291 70.284c-1.868 2.718-4.955 4.34-8.259 4.34-2.019 0-3.972-.608-5.647-1.76-4.545-3.122-5.702-9.36-2.58-13.905l55.913-81.375c1.757-2.558 1.758-5.935.001-8.492l-33.585-48.91c-11.558-16.83-15.671-38.394-11.284-59.161.123-.58.176-1.173.159-1.766-.511-17.763-14.831-31.678-32.601-31.678-17.987 0-32.621 14.635-32.621 32.623v42.563c0 4.143 3.358 7.5 7.5 7.5s7.5-3.357 7.5-7.5v-42.56c0-9.718 7.905-17.623 17.621-17.623 9.171 0 16.889 7.248 17.566 16.314-4.901 24.468.104 49.847 13.794 69.781l30.668 44.663-52.992 77.129c-7.806 11.361-4.913 26.956 6.449 34.764 4.187 2.875 9.077 4.396 14.141 4.396 8.245 0 15.954-4.054 20.621-10.845l42.108-61.286 41.813 60.89c3.78 5.506 9.478 9.209 16.044 10.429 6.565 1.221 13.213-.191 18.716-3.972 5.505-3.779 9.209-9.478 10.428-16.043 1.22-6.565-.191-13.213-3.971-18.717l-52.694-76.736 30.679-44.651c18.493-26.915 20.765-63.467 5.786-93.12-10.719-21.221-29.166-36.231-50.61-41.184-4.037-.931-8.063 1.583-8.995 5.619z"/></g></g></svg>