<svg id="Capa_1" enable-background="new 0 0 512 512" height="512" viewBox="0 0 512 512" width="512" xmlns="http://www.w3.org/2000/svg"><g><path d="m300.778 222.541c-2.247-22.728-21.469-40.541-44.778-40.541s-42.531 17.813-44.778 40.541c-104.42-21.045-181.222-113.882-181.222-222.541h-30c0 122.728 87.876 228.026 205.239 251.915-49.355 20.102-84.239 68.592-84.239 125.085 0 74.439 60.561 135 135 135s135-60.561 135-135c0-56.093-34.523-104.836-84.239-125.085 117.421-23.901 205.239-129.248 205.239-251.915h-30c0 108.659-76.802 201.496-181.222 222.541zm-59.778 4.459c0-8.271 6.729-15 15-15s15 6.729 15 15v15.838c-4.927-.547-9.93-.838-15-.838s-10.073.291-15 .838zm120 150c0 57.897-47.103 105-105 105s-105-47.103-105-105 47.103-105 105-105c5.093 0 10.099.372 15 1.076-50.817 7.301-90 51.119-90 103.924 0 41.355 33.645 75 75 75s75-33.645 75-75c0-24.813-20.187-45-45-45s-45 20.187-45 45h30c0-8.271 6.729-15 15-15s15 6.729 15 15c0 24.813-20.187 45-45 45s-45-20.187-45-45c0-41.355 33.645-75 75-75s75 33.645 75 75z"/></g></svg>