<svg id="Capa_1" enable-background="new 0 0 512 512" height="512" viewBox="0 0 512 512" width="512" xmlns="http://www.w3.org/2000/svg"><g><g><path d="m487.378 247.991-140.429 131.479-223.02-214.419c1.53-1.87 3.21-3.67 5.02-5.37l146.93-137.579c21.8-20.41 56.02-19.29 76.44 2.52l137.579 146.929c20.41 21.8 19.29 56.02-2.52 76.44z" fill="#bd9cde"/><path d="m346.949 249.131v130.339l-6.5 6.09c-21.8 20.42-56.02 19.29-76.44-2.51l-137.57-146.929c-18.72-19.99-19.33-50.41-2.51-71.07h138.94c46.36 0 84.08 37.72 84.08 84.08z" fill="#b18cd9"/><path d="m445.678 230.891-98.73 92.44-163.759-158.28 107.01-100.21c12.84-12.02 33-11.36 45.02 1.48l111.939 119.55c12.02 12.84 11.36 32.99-1.48 45.02z" fill="#f3f5fc"/><path d="m346.949 249.131v74.2l-20.82 19.49c-12.84 12.03-32.99 11.36-45.02-1.48l-111.93-119.54c-12.03-12.84-11.36-33 1.48-45.02l12.53-11.73h79.68c46.36 0 84.08 37.72 84.08 84.08z" fill="#d7ddf5"/><circle cx="384.587" cy="206.347" fill="#6a829a" r="18.41"/><circle cx="308.165" cy="203.835" fill="#5b778f" r="18.41"/><circle cx="310.678" cy="127.413" fill="#6a829a" r="18.41"/><path d="m316.949 249.131v201.289c0 29.87-24.22 54.08-54.08 54.08h-37.83c-135.294-34.557-148.301-255.174-62.89-309.449h100.72c29.86 0 54.08 24.22 54.08 54.08z" fill="#83deff"/><path d="m225.039 504.5h-163.459c-29.87 0-54.08-24.21-54.08-54.08v-201.289c0-29.86 24.21-54.08 54.08-54.08h100.57c-57.39 88.85-45.91 230.829 62.889 309.449z" fill="#2ecefb"/><path d="m275.959 267.891v163.769c0 17.59-14.26 31.85-31.85 31.85h-62.99c-89.468-51.508-101.367-175.918-39.27-227.469h102.26c17.59 0 31.85 14.26 31.85 31.85z" fill="#f3f5fc"/><path d="m181.119 463.51h-100.779c-17.59 0-31.85-14.26-31.85-31.85v-163.769c0-17.59 14.26-31.85 31.85-31.85h61.51c-26.03 71.27-16.21 160.469 39.269 227.469z" fill="#d7ddf5"/><circle cx="216.289" cy="295.711" fill="#6a829a" r="18.41"/><circle cx="162.222" cy="349.778" fill="#6a829a" r="18.41"/><circle cx="108.155" cy="403.845" fill="#5b778f" r="18.41"/></g><g><path d="m383.737 232.242c.291.01.582.015.872.015 6.598 0 12.85-2.467 17.688-6.998 5.052-4.73 7.959-11.146 8.187-18.062s-2.253-13.508-6.982-18.56c-4.73-5.052-11.145-7.959-18.062-8.187-6.919-.235-13.509 2.253-18.561 6.982-5.052 4.73-7.959 11.146-8.186 18.062s2.253 13.509 6.982 18.561c4.73 5.052 11.145 7.96 18.062 8.187zm-6.606-33.859c2.037-1.908 4.67-2.946 7.447-2.946.123 0 .245.002.368.006 2.912.096 5.613 1.319 7.604 3.447 1.992 2.127 3.036 4.902 2.94 7.814-.197 6.013-5.237 10.73-11.263 10.546-6.012-.197-10.742-5.25-10.545-11.263.098-2.912 1.321-5.613 3.449-7.604z"/><path d="m309.828 153.308c.288.01.575.014.862.014 13.895 0 25.424-11.067 25.885-25.059.228-6.917-2.253-13.509-6.983-18.561s-11.146-7.959-18.062-8.187c-.288-.01-.575-.014-.862-.014-13.896 0-25.424 11.067-25.885 25.059-.47 14.28 10.765 26.278 25.045 26.748zm.845-36.806c.12 0 .242.002.363.006 6.013.197 10.743 5.25 10.546 11.262-.198 6.013-5.262 10.754-11.263 10.546-6.013-.197-10.743-5.25-10.546-11.262.195-5.892 5.049-10.552 10.9-10.552z"/><path d="m244.109 471.013c21.697 0 39.349-17.652 39.349-39.35v-163.772c0-21.697-17.651-39.349-39.349-39.349h-163.772c-21.697 0-39.35 17.651-39.35 39.349v163.772c0 21.697 17.652 39.35 39.35 39.35zm-188.122-39.35v-163.772c0-13.426 10.923-24.349 24.35-24.349h163.772c13.426 0 24.349 10.923 24.349 24.349v163.772c0 13.427-10.923 24.35-24.349 24.35h-163.772c-13.427 0-24.35-10.923-24.35-24.35z"/><path d="m216.29 321.607c6.635 0 13.27-2.525 18.321-7.576 10.102-10.103 10.102-26.54 0-36.643-10.104-10.102-26.539-10.102-36.643 0-10.102 10.103-10.102 26.54 0 36.643 5.052 5.051 11.687 7.576 18.322 7.576zm-7.714-33.611c2.126-2.127 4.92-3.19 7.714-3.19s5.588 1.063 7.714 3.19c4.254 4.253 4.254 11.175 0 15.428-4.252 4.254-11.176 4.254-15.428 0-4.254-4.253-4.254-11.175 0-15.428z"/><path d="m162.222 375.675c6.635 0 13.27-2.525 18.321-7.576 10.102-10.103 10.102-26.54 0-36.643-10.104-10.102-26.539-10.102-36.643 0-10.102 10.103-10.102 26.54 0 36.643 5.053 5.05 11.688 7.576 18.322 7.576zm-7.713-33.612c2.126-2.127 4.92-3.19 7.714-3.19s5.588 1.063 7.714 3.19c4.254 4.253 4.254 11.175 0 15.428-4.252 4.254-11.176 4.254-15.428 0-4.254-4.253-4.254-11.175 0-15.428z"/><path d="m108.155 429.742c6.635 0 13.27-2.525 18.321-7.576 10.102-10.103 10.102-26.54 0-36.643-10.104-10.102-26.539-10.102-36.643 0-10.102 10.103-10.102 26.54 0 36.643 5.053 5.051 11.687 7.576 18.322 7.576zm-7.714-33.611c2.126-2.127 4.92-3.19 7.714-3.19s5.588 1.063 7.714 3.19c4.254 4.253 4.254 11.175 0 15.428-4.252 4.254-11.176 4.254-15.428 0-4.254-4.253-4.254-11.175 0-15.428z"/><path d="m495.369 166.421-21.097-22.531c-2.831-3.023-7.578-3.18-10.601-.349s-3.18 7.577-.349 10.601l21.097 22.531c8.504 9.082 12.963 20.933 12.554 33.368-.408 12.435-5.636 23.967-14.718 32.471l-146.928 137.576c-3.252 3.045-6.933 5.583-10.882 7.577v-34.245c2.44-1.449 4.719-3.161 6.811-5.121l119.547-111.938c7.673-7.184 12.088-16.926 12.433-27.431.346-10.505-3.421-20.516-10.604-28.188l-111.938-119.546c-7.184-7.673-16.926-12.088-27.431-12.433-10.513-.35-20.515 3.42-28.187 10.604l-119.547 111.939c-4.847 4.539-8.387 10.074-10.432 16.249h-34.289c2.185-8.526 6.744-16.291 13.267-22.399l146.929-137.577c9.082-8.505 20.928-12.978 33.368-12.554 12.436.408 23.967 5.636 32.472 14.718l92.544 98.836c2.83 3.023 7.577 3.18 10.601.349s3.18-7.577.349-10.601l-92.544-98.836c-11.244-12.008-26.489-18.918-42.928-19.458-16.434-.532-32.105 5.354-44.113 16.597l-146.929 137.576c-9.569 8.959-15.939 20.614-18.371 33.349h-43.873c-33.955 0-61.58 27.625-61.58 61.58v10.665c0 4.143 3.357 7.5 7.5 7.5s7.5-3.357 7.5-7.5v-10.665c0-25.685 20.895-46.58 46.58-46.58h201.285c25.685 0 46.58 20.896 46.58 46.58v201.285c0 25.685-20.895 46.58-46.58 46.58h-201.285c-25.685 0-46.58-20.896-46.58-46.58v-155.62c0-4.143-3.357-7.5-7.5-7.5s-7.5 3.357-7.5 7.5v155.62c0 33.955 27.625 61.58 61.58 61.58h201.285c33.955 0 61.58-27.625 61.58-61.58v-46.424c7.811-2.83 15.033-7.245 21.134-12.959l146.929-137.576c12.007-11.242 18.918-26.487 19.458-42.928.54-16.439-5.354-32.106-16.597-44.112zm-182.285 47.142c-4.024-5.664-8.977-10.618-14.64-14.642 1.802-3.583 5.505-5.997 9.718-5.997.12 0 .241.002.363.006 6.012.197 10.743 5.25 10.545 11.263-.135 4.09-2.523 7.622-5.986 9.37zm-141.561-26.008c1.155-1.933 2.569-3.719 4.258-5.3l119.547-111.938c4.748-4.444 10.929-6.768 17.443-6.562 6.5.214 12.528 2.946 16.974 7.693l111.937 119.547c9.177 9.801 8.67 25.24-1.131 34.417l-116.106 108.716v-84.993c0-7.891-1.508-15.433-4.225-22.373 8.026-4.22 13.529-12.509 13.842-22.077.228-6.917-2.253-13.509-6.982-18.561-4.73-5.052-11.146-7.959-18.062-8.187-10.234-.345-19.297 5.301-23.775 13.844-6.942-2.718-14.484-4.227-22.377-4.227h-91.343z"/></g></g></svg>