<svg id="Capa_1" enable-background="new 0 0 512 512" height="512" viewBox="0 0 512 512" width="512" xmlns="http://www.w3.org/2000/svg"><g><path d="m136 121c-74.99 0-136 60.561-136 135s61.01 135 136 135c45.789 0 87.611-23.153 112.257-60h263.743v-150h-263.743c-24.646-36.847-66.468-60-112.257-60zm0 240c-58.448 0-106-47.103-106-105s47.552-105 106-105c40.254 0 76.582 22.98 94.113 58.364-33.591 15.605-79.066 31.636-124.113 31.636v30c45.047 0 90.522 16.031 124.113 31.636-17.531 35.384-53.859 58.364-94.113 58.364zm127.299-150h218.701v90h-218.701c1.705-4.827 3.024-8.692 4.591-13.195-8.251-3.933-36.285-19.531-74.501-31.805 38.254-12.286 66.375-27.932 74.501-31.805-1.556-4.474-2.903-8.416-4.591-13.195z"/><path d="m301 241h151v30h-151z"/></g></svg>