<svg id="Capa_1" enable-background="new 0 0 512 512" height="512" viewBox="0 0 512 512" width="512" xmlns="http://www.w3.org/2000/svg"><g><g><g><path d="m504.5 94.251v380.249c0 16.569-13.431 30-30 30h-17.07l-18.89-25.09c-1.6-2.13-3.99-3.53-6.63-3.9l-23.31-3.2c-3.37-.46-6.75.82-8.96 3.41l-7.929 9.261c-1.896 2.214-4.665 3.489-7.581 3.489h-68.48c-3.64 0-6.98 1.97-8.75 5.15l-3.18 5.73c-1.77 3.18-5.11 5.15-8.75 5.15h-257.47c-16.569 0-30-13.431-30-30v-255.22c0-2.66 1.06-5.22 2.95-7.09l22.71-22.56c5.14-5.11 3.31-13.82-3.46-16.43l-15.79-6.07c-3.86-1.49-6.41-5.2-6.41-9.34v-120.29c0-16.569 13.431-30 30-30h378.792c2.62 0 5.135 1.028 7.005 2.863l12.566 12.333c1.87 1.835 4.385 2.863 7.005 2.863h14.982c2.242 0 4.419.753 6.181 2.139l11.481 9.028c2.411 1.896 3.819 4.794 3.819 7.861v28.432c0 4.848 3.478 8.998 8.251 9.846l8.667 1.539c4.773.848 8.251 4.998 8.251 9.847z" fill="#eaf6ff"/><g fill="#d9ecfd"><path d="m423.616 321.536c12.874-5.945 21.835-18.971 21.835-34.058 0-20.678-16.822-37.5-37.5-37.5h-32.296c.327-3.621.49-7.266.49-10.929 0-66.248-53.896-120.144-120.145-120.144s-120.145 53.896-120.145 120.144c0 3.663.164 7.308.49 10.929h-32.296c-20.678 0-37.5 16.822-37.5 37.5 0 15.087 8.96 28.113 21.835 34.058-12.874 5.945-21.835 18.971-21.835 34.058 0 20.678 16.822 37.5 37.5 37.5h303.901c20.678 0 37.5-16.822 37.5-37.5.001-15.086-8.96-28.112-21.834-34.058zm-167.616-127.631c24.893 0 45.145 20.251 45.145 45.144 0 9.56-2.96 18.697-8.56 26.425-8.312 11.47-9.475 26.434-3.036 39.049 2.82 5.527 6.861 10.136 11.703 13.571h-90.503c4.841-3.435 8.882-8.044 11.702-13.57 6.439-12.617 5.276-27.58-3.035-39.05-5.6-7.728-8.56-16.866-8.56-26.425-.001-24.892 20.251-45.144 45.144-45.144z"/><path d="m504.5 94.25v380.25c0 16.57-13.43 30-30 30h-17.07l-4.06-5.4c7.76-5.41 12.84-14.41 12.84-24.6v-380.25c0-4.85-3.48-9-8.25-9.85l-8.67-1.53c-4.77-.85-8.25-5-8.25-9.85v-28.43c0-3.07-1.41-5.97-3.82-7.86l-11.48-9.03c-1.76-1.39-3.94-2.14-6.18-2.14h-14.98c-2.62 0-5.14-1.03-7.01-2.86l-12.56-12.34c-1.87-1.83-4.39-2.86-7.01-2.86h38.29c2.62 0 5.14 1.03 7.01 2.86l12.56 12.34c1.87 1.83 4.39 2.86 7.01 2.86h14.98c2.24 0 4.42.75 6.18 2.14l11.48 9.03c2.41 1.89 3.82 4.79 3.82 7.86v28.43c0 4.85 3.48 9 8.25 9.85l8.67 1.53c4.77.85 8.25 5 8.25 9.85z"/></g></g><g><path d="m407.951 304.978h-85c-6.577 0-12.598-3.688-15.587-9.545-2.99-5.858-2.442-12.897 1.417-18.223 8.089-11.164 12.365-24.359 12.365-38.161 0-35.92-29.224-65.144-65.145-65.144s-65.145 29.224-65.145 65.144c0 13.801 4.275 26.997 12.365 38.161 3.859 5.325 4.406 12.365 1.417 18.223s-9.011 9.545-15.587 9.545h-85c-9.665 0-17.5-7.835-17.5-17.5s7.835-17.5 17.5-17.5h56.671c-3.213-9.893-4.865-20.294-4.865-30.929 0-55.22 44.925-100.144 100.145-100.144s100.145 44.924 100.145 100.144c0 10.635-1.651 21.036-4.865 30.929h56.671c9.665 0 17.5 7.835 17.5 17.5s-7.837 17.5-17.502 17.5z" fill="#8dcafc"/><g fill="#64b9fc"><path d="m356.14 239.05c0 2.97-.13 5.92-.39 8.85-4.46-51.12-47.49-91.35-99.75-91.35s-95.29 40.23-99.75 91.35c-.26-2.93-.39-5.88-.39-8.85 0-55.22 44.92-100.14 100.14-100.14s100.14 44.92 100.14 100.14z"/><path d="m158.924 281.394c.8 3.16-1.579 6.226-4.839 6.226h-50.035c-6.45 0-12.08 3.49-15.11 8.68-1.562-2.661-2.437-5.766-2.388-9.087.144-9.644 8.354-17.233 17.999-17.233h52.179c.513 3.855 1.244 7.665 2.194 11.414z"/><path d="m425.448 287.213c.049 3.32-.826 6.425-2.388 9.087-3.03-5.19-8.66-8.68-15.11-8.68h-50.035c-3.26 0-5.639-3.066-4.839-6.226.949-3.749 1.68-7.559 2.194-11.414h52.179c9.645 0 17.856 7.589 17.999 17.233z"/></g><g><path d="m407.951 373.095h-303.902c-9.665 0-17.5-7.835-17.5-17.5s7.835-17.5 17.5-17.5h303.901c9.665 0 17.5 7.835 17.5 17.5s-7.834 17.5-17.499 17.5z" fill="#8dcafc"/></g><g><g><path d="m425.45 355.59c0 3.21-.87 6.23-2.38 8.82-3.04-5.19-8.67-8.67-15.12-8.67h-303.9c-6.45 0-12.08 3.48-15.12 8.67-1.51-2.59-2.38-5.61-2.38-8.82 0-9.66 7.83-17.5 17.5-17.5h303.9c9.67 0 17.5 7.84 17.5 17.5z" fill="#64b9fc"/></g></g></g></g><g><path d="m504.5 400.11c-4.142 0-7.5 3.357-7.5 7.5v66.89c0 12.406-10.093 22.5-22.5 22.5h-13.329l-16.635-22.095c-2.774-3.692-6.997-6.18-11.607-6.826l-23.313-3.199c-5.934-.816-11.797 1.421-15.673 5.962l-7.931 9.262c-.471.551-1.158.866-1.883.866h-68.48c-6.349 0-12.213 3.45-15.308 9.011l-3.176 5.722c-.445.801-1.287 1.298-2.196 1.298h-257.469c-12.407-.001-22.5-10.095-22.5-22.501v-38.298l36.971 7.68c.505.105 1.016.157 1.525.157 1.371 0 2.726-.376 3.912-1.101l9.437-5.769 7.666 12.165c.897 1.423 2.247 2.504 3.832 3.067l36.603 13.02c.831.296 1.679.436 2.514.436 3.083 0 5.974-1.917 7.066-4.988 1.388-3.902-.65-8.191-4.553-9.58l-34.156-12.149-6.172-9.794 10.817-6.612c3.534-2.16 4.648-6.777 2.487-10.312-2.16-3.532-6.776-4.647-10.311-2.487l-30.522 18.657-37.116-7.709v-201.603c0-.662.265-1.304.736-1.77l22.712-22.563c4.224-4.199 6.013-10.186 4.788-16.013-1.226-5.829-5.277-10.589-10.844-12.736l-15.78-6.066c-.965-.371-1.612-1.313-1.612-2.342v-45.817c0-4.143-3.358-7.5-7.5-7.5s-7.5 3.357-7.5 7.5v45.817c0 7.184 4.504 13.748 11.219 16.341l15.783 6.067c1.109.428 1.451 1.326 1.555 1.824.104.496.154 1.454-.683 2.286l-22.7 22.551c-3.288 3.255-5.174 7.783-5.174 12.421v255.22c0 20.678 16.822 37.5 37.5 37.5h257.47c6.349 0 12.213-3.45 15.308-9.011l3.176-5.722c.445-.801 1.287-1.298 2.196-1.298h68.48c5.113 0 9.953-2.228 13.277-6.111l7.938-9.271c.552-.646 1.39-.963 2.235-.847l23.288 3.196c.668.093 1.278.449 1.68.983l18.89 25.09c1.417 1.883 3.636 2.989 5.992 2.989h17.07c20.678 0 37.5-16.822 37.5-37.5v-66.89c0-4.14-3.358-7.498-7.5-7.498z"/><path d="m497.56 77.02-8.667-1.539c-1.195-.212-2.063-1.247-2.063-2.461v-28.432c0-5.402-2.436-10.416-6.683-13.757l-11.48-9.027c-3.07-2.414-6.912-3.743-10.817-3.743h-14.981c-.659 0-1.281-.254-1.751-.716l-12.567-12.334c-3.292-3.232-7.646-5.011-12.259-5.011h-378.792c-20.678 0-37.5 16.822-37.5 37.5v45.372c0 4.143 3.358 7.5 7.5 7.5s7.5-3.357 7.5-7.5v-45.372c0-12.406 10.093-22.5 22.5-22.5h80.904c.007.017.011.035.018.053l7.273 18.273c.772 1.94 2.318 3.471 4.266 4.223l10.282 3.971-7.985 15.285-33.461 5.447c-4.088.665-6.863 4.519-6.197 8.607.599 3.681 3.782 6.296 7.393 6.296.4 0 .806-.032 1.214-.099l10.74-1.748 4.216 8.094c1.337 2.566 3.951 4.037 6.658 4.037 1.167 0 2.352-.273 3.458-.851 3.674-1.913 5.101-6.442 3.188-10.116l-1.928-3.702 10.835-1.764c2.332-.379 4.349-1.836 5.442-3.93l10.51-20.119 35.326 13.643c.87.336 1.787.504 2.702.504 1.001 0 2.001-.2 2.939-.6l14.262-6.075 11.723 8.601c1.337.981 2.891 1.454 4.431 1.454 2.307 0 4.583-1.062 6.053-3.064 2.45-3.34 1.729-8.033-1.611-10.483l-4.554-3.341 3.057-1.302c3.811-1.624 5.584-6.029 3.96-9.84s-6.028-5.583-9.839-3.961l-30.56 13.019-53.795-20.775-3.874-9.737h281.747c.659 0 1.281.254 1.751.716l12.566 12.334c3.292 3.231 7.646 5.011 12.258 5.011h14.981c.558 0 1.107.189 1.545.534l11.48 9.026c.607.479.956 1.194.956 1.967v28.432c0 8.498 6.073 15.744 14.44 17.23l8.667 1.539c1.195.212 2.063 1.247 2.063 2.461v284.26c0 4.143 3.358 7.5 7.5 7.5s7.5-3.357 7.5-7.5v-284.26c0-8.498-6.073-15.744-14.44-17.23z"/><path d="m79.049 287.479c0 13.785 11.215 25 25 25h85c9.443 0 17.976-5.226 22.268-13.637 4.293-8.411 3.517-18.387-2.023-26.032-7.156-9.875-10.938-21.549-10.938-33.761 0-31.785 25.859-57.644 57.645-57.644s57.645 25.858 57.645 57.644c0 12.212-3.782 23.886-10.938 33.761-5.541 7.646-6.316 17.621-2.024 26.032s12.825 13.637 22.268 13.637h5.769c4.142 0 7.5-3.357 7.5-7.5s-3.358-7.5-7.5-7.5h-5.769c-3.777 0-7.19-2.09-8.907-5.455-1.717-3.364-1.407-7.354.81-10.412 9.022-12.451 13.792-27.169 13.792-42.563 0-40.056-32.588-72.644-72.645-72.644s-72.645 32.588-72.645 72.644c0 15.394 4.769 30.111 13.792 42.562 2.216 3.059 2.526 7.049.809 10.413-1.717 3.365-5.129 5.455-8.907 5.455h-85c-5.514 0-10-4.486-10-10s4.486-10 10-10h56.671c2.401 0 4.656-1.149 6.067-3.092 1.411-1.941 1.808-4.442 1.066-6.726-2.985-9.188-4.498-18.814-4.498-28.612 0-51.084 41.56-92.644 92.645-92.644s92.645 41.56 92.645 92.644c0 9.798-1.513 19.425-4.498 28.612-.742 2.283-.345 4.784 1.066 6.726s3.667 3.092 6.067 3.092h56.671c5.514 0 10 4.486 10 10s-4.486 10-10 10h-50.13c-4.142 0-7.5 3.357-7.5 7.5s3.358 7.5 7.5 7.5h50.13c13.785 0 25-11.215 25-25s-11.215-25-25-25h-46.863c1.698-7.648 2.555-15.493 2.555-23.43 0-59.354-48.289-107.644-107.645-107.644s-107.645 48.289-107.645 107.644c0 7.937.857 15.781 2.555 23.43h-46.861c-13.785 0-25 11.214-25 25z"/><path d="m104.049 380.595h303.901c13.785 0 25-11.215 25-25s-11.215-25-25-25h-303.901c-13.785 0-25 11.215-25 25s11.215 25 25 25zm0-35h303.901c5.514 0 10 4.486 10 10s-4.486 10-10 10h-303.901c-5.514 0-10-4.486-10-10s4.486-10 10-10z"/><path d="m424.602 140.18c4.142 0 7.5-3.357 7.5-7.5s-3.358-7.5-7.5-7.5h-.104c-4.142 0-7.5 3.357-7.5 7.5s3.358 7.5 7.5 7.5z"/><path d="m123.488 192.479c4.142 0 7.5-3.357 7.5-7.5s-3.358-7.5-7.5-7.5h-.104c-4.142 0-7.5 3.357-7.5 7.5s3.358 7.5 7.5 7.5z"/><path d="m387.77 136.326c4.142 0 7.5-3.357 7.5-7.5s-3.358-7.5-7.5-7.5h-.104c-4.142 0-7.5 3.357-7.5 7.5s3.358 7.5 7.5 7.5z"/><path d="m250.464 407.402-14.728 1.18-4.718-4.718c-2.929-2.928-7.678-2.928-10.606 0-2.929 2.93-2.929 7.678 0 10.607l7.167 7.167c1.412 1.412 3.322 2.196 5.303 2.196.199 0 .399-.008.6-.024l18.181-1.457c4.129-.33 7.208-3.946 6.877-8.075s-3.951-7.222-8.076-6.876z"/><path d="m326.49 108.768c2.052 0 4.096-.837 5.577-2.482l7.602-8.446c2.771-3.079 2.521-7.821-.557-10.592-3.08-2.771-7.821-2.522-10.592.557l-7.602 8.446c-2.771 3.079-2.521 7.821.557 10.592 1.434 1.289 3.228 1.925 5.015 1.925z"/></g></g></svg>