<svg id="Capa_1" enable-background="new 0 0 512 512" height="512" viewBox="0 0 512 512" width="512" xmlns="http://www.w3.org/2000/svg"><g><g><path d="m504.5 381.285c0 38.21-62.1 71.02-150.74 85.17-83.582-27.931-133.113-108.33-114.03-177.57 5.38-.13 10.8-.2 16.27-.2 137.24 0 248.5 41.46 248.5 92.6z" fill="#bd9cde"/><path d="m353.76 466.455c-30.01 4.79-63.05 7.44-97.76 7.44-137.24 0-248.5-41.46-248.5-92.61 0-49.1 102.57-89.28 232.23-92.4 15.7 66.08 52.69 129.45 114.03 177.57z" fill="#b18cd9"/><path d="m384.83 119.985c-9.86-9.04-22.91-15.78-39.22-13.93-19.77 2.25-35.3 28.73-25.75 60.15 14.63 48.1 72.92 184.97 72.92 184.97-28.32 15.04-69.66 25.31-116.59 27.62-95.56-77.45-73.49-278.378 3.51-333.8 12.46-4.48 25.46-6.89 38.5-6.89 44.02-.19 78.42 28.49 91.01 65.84 4.96 14.73-12.92 26.54-24.38 16.04z" fill="#bd9cde"/><path d="m276.19 378.795c-6.63.32-13.36.49-20.18.49-55.2 0-104.48-10.95-136.79-28.11 0 0 56.63-168.57 79.53-226.58 14.95-37.87 45.78-66.97 80.95-79.6-61 91.8-67.83 226.25-3.51 333.8z" fill="#b18cd9"/><path d="m404.84 371.415c-33.23 16.65-70.4 26.39-113.88 29.83-19.62-27.23-34.23-56.66-44.12-87.04 3.04.07 6.1.1 9.17.1 45.18 0 88.39-7.07 122.75-19.77 12.08-4.46 25.33 2.57 28.28 15.1l8.91 37.85c2.26 9.58-2.3 19.53-11.11 23.93z" fill="#6a829a"/><path d="m290.96 401.245c-11.22.9-22.85 1.37-34.95 1.44-58.98-.3-107.05-10.33-148.86-31.27-8.8-4.4-13.36-14.35-11.1-23.93l8.91-37.85c2.95-12.53 16.21-19.56 28.28-15.1 32.03 11.84 71.75 18.78 113.6 19.67 9.89 30.38 24.5 59.81 44.12 87.04z" fill="#5b778f"/><path d="m340.7 326.465v56.95c0 13.87-11.25 25.12-25.12 25.12h-19.21c-44.671-23.833-64.009-70.012-53.42-107.19h72.63c13.87 0 25.12 11.24 25.12 25.12z" fill="#fbf198"/><path d="m296.37 408.535h-99.95c-13.87 0-25.12-11.25-25.12-25.12v-56.95c0-13.88 11.25-25.12 25.12-25.12h46.53c10.55 37.67 28.16 74.19 53.42 107.19z" fill="#fad989"/><path d="m303.76 344.735v20.41c0 5.81-4.71 10.52-10.53 10.52h-18.89c-21.429-9.978-26.285-25.069-20.23-41.46h39.12c5.82 0 10.53 4.71 10.53 10.53z" fill="#6a829a"/><path d="m274.34 375.665h-55.57c-5.82 0-10.53-4.71-10.53-10.52v-20.41c0-5.82 4.71-10.53 10.53-10.53h35.34c5.66 14.14 12.39 28 20.23 41.46z" fill="#5b778f"/></g><g><path d="m411.925 301.385c-2.644-5.155-6.801-9.453-11.996-12.243-7.827-4.259-17.167-4.459-25.369-1.066-17.776-43.236-39.437-97.474-47.52-124.051-4.421-14.533-3.008-29.38 3.78-39.713 4.128-6.285 9.682-10.12 15.638-10.797 11.933-1.356 23.14 2.68 33.303 12 7.668 7.033 18.69 7.937 27.427 2.254 8.812-5.734 12.479-16.27 9.126-26.217-6.865-20.366-19.421-37.859-36.31-50.589-17.789-13.413-39.203-20.456-61.806-20.357-53.229 0-105.215 37.52-126.421 91.241-7.303 18.499-18.758 50.054-34.049 93.787-1.367 3.91.694 8.188 4.604 9.556s8.188-.694 9.556-4.604c15.225-43.548 26.611-74.915 33.842-93.23 18.999-48.133 65.248-81.749 112.499-81.749 38.422-.171 71.388 23.678 83.869 60.738 1.395 4.136-.683 7.284-3.092 8.852-1.14.742-5.162 2.884-9.107-.735-13.315-12.211-28.917-17.687-45.136-15.85-10.309 1.173-19.96 7.538-26.481 17.466-9.341 14.222-11.38 33.289-5.594 52.313 8.186 26.914 29.759 80.999 47.582 124.377-8.429 2.495-17.337 4.68-26.624 6.553-5.177-3.457-11.39-5.477-18.068-5.477h-119.156c-6.678 0-12.891 2.02-18.067 5.476-10.892-2.197-21.251-4.83-30.943-7.877 4.464-13.054 8.826-25.749 12.997-37.821 1.353-3.915-.725-8.186-4.64-9.538-3.922-1.354-8.186.726-9.538 4.64-4.185 12.113-8.562 24.852-13.041 37.951-7.072-1.87-14.63-1.018-21.118 2.468-5.194 2.789-9.35 7.086-11.994 12.24-63.648 18.718-100.078 47.74-100.078 79.912 0 28.094 27.582 53.843 77.665 72.506 47.753 17.794 111.087 27.594 178.335 27.594 64.11 0 125.285-9.024 172.258-25.412 3.911-1.364 5.976-5.641 4.61-9.552-1.364-3.909-5.641-5.976-9.552-4.61-45.424 15.846-104.845 24.574-167.316 24.574-144.16 0-241-44.002-241-85.1 0-23.309 29.705-46.343 80.147-62.696l-6.398 27.168c-3.081 13.075 3.107 26.383 15.047 32.362 20.331 10.18 41.713 17.713 65.252 22.999 5.821 8.964 15.913 14.909 27.374 14.909h119.156c11.461 0 21.553-5.945 27.374-14.908 23.532-5.284 44.914-12.818 65.25-23.001 11.94-5.978 18.129-19.285 15.051-32.361l-6.397-27.167c50.439 16.354 80.144 39.386 80.144 62.695 0 16.273-15.069 33.061-42.433 47.27-3.677 1.909-5.109 6.437-3.2 10.112 1.918 3.713 6.511 5.091 10.112 3.2 33.051-17.162 50.521-38.111 50.521-60.582 0-32.171-36.429-61.192-100.075-79.91zm-248.127 25.083v57.979c-19.006-4.852-36.538-11.343-53.285-19.729-5.697-2.854-8.643-9.231-7.164-15.511l8.914-37.848c.902-3.847 3.366-7.114 6.905-9 3.522-1.891 7.702-2.178 11.471-.783 11.223 4.148 23.441 7.718 36.428 10.669-2.093 4.302-3.269 9.127-3.269 14.223zm169.404 56.946c0 9.718-7.906 17.624-17.624 17.624h-119.156c-9.718 0-17.624-7.906-17.624-17.624v-56.946c0-9.718 7.906-17.623 17.624-17.623h119.156c9.718 0 17.624 7.905 17.624 17.623zm14.974 1.04c.001-.039.002-.032.004-.001-.002.001-.003.001-.004.001zm53.311-19.737c-16.753 8.387-34.286 14.879-53.285 19.73v-57.979c0-5.095-1.176-9.92-3.268-14.221 12.985-2.951 25.203-6.521 36.428-10.67 3.767-1.395 7.95-1.109 11.471.782 3.541 1.887 6.004 5.153 6.906 9.001l8.912 37.846c1.48 6.279-1.466 12.658-7.164 15.511z"/><path d="m293.231 326.71h-74.463c-9.94 0-18.027 8.087-18.027 18.027v20.408c0 9.94 8.087 18.027 18.027 18.027h74.463c9.94 0 18.027-8.087 18.027-18.027v-20.408c.001-9.94-8.086-18.027-18.027-18.027zm3.028 38.436c0 1.669-1.358 3.027-3.027 3.027h-74.463c-1.669 0-3.027-1.358-3.027-3.027v-20.408c0-1.669 1.358-3.027 3.027-3.027h74.463c1.669 0 3.027 1.358 3.027 3.027z"/></g></g></svg>