<svg id="Capa_1" enable-background="new 0 0 512 512" height="512" viewBox="0 0 512 512" width="512" xmlns="http://www.w3.org/2000/svg"><g><g><path d="m345.289 504.5h-20.096l20.096-48.999c26.662 0 48.275-21.614 48.275-48.275v-87.802c0-16.569 13.431-30 30-30s30 13.431 30 30v76.802c0 59.797-48.477 108.274-108.275 108.274z" fill="#5b778f"/><path d="m374.115 10.694c-.593-1.26-1.786-2.112-3.17-2.265-13.835-1.522-89.455-7.134-127.764 46.492-1.706 2.387-2.556 5.111-2.693 8.082 60.728 6.782 109.361 51.195 119.311 90.054 5.054-.69 9.113-2.727 11.757-6.427 38.309-53.626 8.484-123.342 2.559-135.936z" fill="#5b778f"/><path d="m345.728 109.003c-7.219-2.577-18.466-7.969-31.758-17.465-13.287-9.492-22.032-18.378-26.813-24.371 16.334-14.534 37.257-18.498 55.23-19.687 1.864-.106 3.551 1.097 4.059 2.894 4.529 16.045 7.893 38.854-.718 58.629z" fill="#ff938a"/><path d="m208.711 63.003c-.137-2.972-.987-5.695-2.693-8.082-38.309-53.626-113.929-48.014-127.763-46.492-1.384.152-2.577 1.005-3.17 2.265-5.926 12.594-35.75 82.31 2.559 135.936 2.644 3.701 6.703 5.738 11.757 6.427 9.949-38.858 58.583-83.272 119.31-90.054z" fill="#516980"/><path d="m103.472 109.003c7.219-2.577 18.466-7.969 31.758-17.465 13.287-9.492 22.032-18.378 26.813-24.371-16.334-14.534-37.257-18.498-55.23-19.687-1.864-.106-3.551 1.097-4.059 2.894-4.53 16.045-7.894 38.854.718 58.629z" fill="#fd7a6e"/><path d="m325.19 504.5h-10.54l-11.49-4c-130.439-69.525-161.883-196.745-133.49-308.74h128.74l34.8 92.4c20.81 55.2 33.36 113.09 37.47 171.78 1.84 26.28-19.14 48.56-45.49 48.56z" fill="#6a829a"/><path d="m303.16 500.5-31.79-11.06-46.77 15.06-45.03-15.06-45.02 15.06h-10.54c-26.35 0-47.34-22.28-45.49-48.56 4.11-58.69 16.66-116.58 37.47-171.78l34.8-92.4h18.88c-12.46 109.1 27.63 230.05 133.49 308.74z" fill="#5b778f"/><path d="m340.86 343.7c0 54.07-19.3 101.91-48.89 131.06h-19.59c-14.155-5.13-19.375-13.791-22.79-23.61 3.83-20.34 6.58-45.38 7.84-73.08.885-18.555-14.058-34.416-32.83-34.37-13.52 0-25.06 8.14-30.11 19.71-31.079-31.172-40.756-83.974-26.87-122.95 17.35 4.68 36.65 7.28 56.98 7.28 38.19 0 72.73-9.19 97.58-24.02 11.81 43.4 18.68 87.73 18.68 119.98z" fill="#5b778f"/><path d="m205.13 474.76h-47.9c-29.59-29.15-48.89-76.99-48.89-131.06 0-32.25 6.86-76.58 18.68-119.98 11.62 6.94 25.36 12.64 40.6 16.74 1.22 41.37 9.95 83.28 26.87 122.95-1.97 4.47-2.96 9.44-2.72 14.66 1.81 39.68 6.67 73.9 13.36 96.69z" fill="#516980"/><path d="m272.38 474.76h-28.31c2.02-6.88 3.87-14.81 5.52-23.61 7.11 8.13 14.7 16.01 22.79 23.61z" fill="#516980"/><path d="m377.6 168.52c0 49.7-68.5 90-153 90-19.93 0-38.97-2.24-56.43-6.32-22.015-72.528-5.093-151.658 52.54-200.83 1.29-.03 2.59-.05 3.89-.05 84.5 0 153 67.49 153 117.2z" fill="#6a829a"/><path d="m168.17 252.2c-56.57-13.21-96.57-45.7-96.57-83.68 0-48.95 66.41-115.13 149.11-117.15-38.45 56.08-57.18 128.03-52.54 200.83z" fill="#5b778f"/><path d="m224.6 504.5h-90.053v-9.074c0-24.867 20.159-45.026 45.026-45.026s45.026 20.159 45.026 45.026v9.074z" fill="#485c70"/><path d="m314.65 495.43v9.07h-6c-33.438-9.969-54.41-29.74-56.57-50.55 5.4-2.29 11.33-3.55 17.55-3.55 24.86 0 45.02 20.16 45.02 45.03z" fill="#516980"/><path d="m308.65 504.5h-84.05v-9.07c0-18.64 11.33-34.64 27.48-41.48 16.33 18.27 35.15 35.26 56.57 50.55z" fill="#485c70"/><g fill="#ffa1ac"><ellipse cx="143.792" cy="169.382" rx="29.816" ry="23.744"/><ellipse cx="305.407" cy="169.382" rx="29.816" ry="23.744"/></g></g><g><path d="m245.993 148.301c0 3.836-3.12 6.956-6.955 6.956s-6.955-3.12-6.955-6.956c0-4.143-3.358-7.5-7.5-7.5s-7.5 3.357-7.5 7.5c0 3.836-3.12 6.956-6.955 6.956s-6.955-3.12-6.955-6.956c0-4.143-3.358-7.5-7.5-7.5s-7.5 3.357-7.5 7.5c0 12.106 9.849 21.956 21.955 21.956 5.533 0 10.59-2.062 14.455-5.451 3.865 3.39 8.923 5.451 14.455 5.451 12.106 0 21.955-9.849 21.955-21.956 0-4.143-3.358-7.5-7.5-7.5s-7.5 3.357-7.5 7.5z"/><path d="m141.796 136.485c0 4.143 3.358 7.5 7.5 7.5s7.5-3.357 7.5-7.5c0-3.454 2.811-6.265 6.265-6.265 3.455 0 6.265 2.811 6.265 6.265 0 4.143 3.358 7.5 7.5 7.5s7.5-3.357 7.5-7.5c0-11.725-9.539-21.264-21.265-21.264s-21.265 9.539-21.265 21.264z"/><path d="m264.839 136.485c0 4.143 3.358 7.5 7.5 7.5s7.5-3.357 7.5-7.5c0-3.454 2.81-6.265 6.265-6.265s6.265 2.811 6.265 6.265c0 4.143 3.358 7.5 7.5 7.5s7.5-3.357 7.5-7.5c0-11.725-9.539-21.264-21.265-21.264s-21.265 9.539-21.265 21.264z"/><path d="m423.544 281.925c-20.677 0-37.499 16.822-37.499 37.499v87.801c0 9.974-3.532 19.291-9.8 26.559-5.092-48.322-15.852-95.789-32.07-141.404-2.411-16.733-5.82-34.479-10.094-52.321 5.69-3.214 11.036-6.697 15.977-10.443 3.301-2.503 3.948-7.207 1.445-10.508-2.502-3.3-7.208-3.946-10.508-1.445-27.96 21.198-70.391 33.356-116.413 33.356-39.55 0-76.62-8.994-104.382-25.324-26.513-15.596-41.115-35.901-41.115-57.174 0-43.149 62.478-109.692 145.497-109.692 83.018 0 145.496 66.543 145.496 109.692 0 8.653-2.431 17.211-7.224 25.432-2.086 3.578-.876 8.171 2.702 10.257 3.577 2.085 8.171.877 10.257-2.702 6.148-10.546 9.265-21.644 9.265-32.987 0-7.416-1.333-15.121-3.863-22.907 15.815-25.271 20.722-57.12 14.169-92.406-5.087-27.392-15.168-47.117-15.594-47.944-1.108-2.144-3.181-3.626-5.569-3.978-.916-.135-22.757-3.267-50.239.764-35.206 5.161-63.584 19.881-82.396 42.654-5.645-.573-11.32-.874-17.004-.874-5.685 0-11.359.301-17.004.874-18.811-22.773-47.19-37.493-82.395-42.654-27.484-4.028-49.323-.898-50.24-.764-2.388.353-4.461 1.834-5.569 3.978-.426.827-10.507 20.552-15.594 47.944-6.553 35.286-1.647 67.135 14.168 92.406-2.53 7.786-3.863 15.491-3.863 22.908-.343 27.35 19.217 53.927 50.999 71.532-4.273 17.84-7.683 35.585-10.094 52.317-12.679 35.663-22.1 72.784-27.998 110.351-.643 4.092 2.154 7.93 6.246 8.572 4.001.657 7.949-2.133 8.572-6.246 2.503-15.942 5.658-31.801 9.44-47.497 2.437 40.098 15.382 77.881 36.477 106.153-7.029 9.169-11.025 20.963-10.697 33.297-11.679.608-23.004-3.456-30.971-12.146-7.238-7.763-10.817-17.845-10.079-28.39.372-5.303.849-10.884 1.458-17.059.406-4.122-2.606-7.794-6.728-8.2-4.125-.397-7.793 2.606-8.2 6.727-.623 6.319-1.111 12.038-1.493 17.483-1.033 14.742 3.964 28.829 14.071 39.668 10.026 10.75 24.205 16.916 38.903 16.916h221.279c63.838 0 115.774-51.937 115.774-115.775v-76.801c-.001-20.677-16.823-37.499-37.5-37.499zm-80.528-191.668c-1.767-1.599-3.583-3.177-5.446-4.73-10.068-8.394-20.904-15.611-32.282-21.568 11.563-5.813 23.865-7.906 34.675-8.759 2.654 10.237 4.571 22.769 3.053 35.057zm25.11-74.553c6.267 14.069 26.954 67.148 5.523 112.54-4.674-8.565-10.697-17.045-17.916-25.171 5.735-20.718 1.638-42.699-3.03-57.929-1.004-3.275-4.103-5.442-7.522-5.294-16.523.776-37.57 3.406-56.416 16.506-9.557-3.828-19.396-6.81-29.403-8.901 35.962-35.516 93.36-33.126 108.764-31.751zm-256.532 69.823c-1.863 1.553-3.678 3.131-5.445 4.73-1.518-12.288.399-24.819 3.053-35.056 10.809.854 23.111 2.949 34.673 8.759-11.378 5.957-22.213 13.173-32.281 21.567zm-30.556-69.823c15.416-1.373 72.806-3.759 108.765 31.751-10.007 2.091-19.846 5.073-29.403 8.901-18.845-13.096-39.892-15.728-56.414-16.505-3.424-.149-6.519 2.018-7.523 5.294-4.668 15.23-8.765 37.211-3.03 57.929-7.22 8.125-13.243 16.605-17.916 25.17-21.434-45.396-.742-98.479 5.521-112.54zm34.788 327.994c0-26.267 4.718-61.089 13.032-96.708 27.474 12.342 60.768 19.029 95.725 19.029 35.105 0 68.429-6.752 95.728-19.014 8.312 35.613 13.028 70.428 13.028 96.692 0 41.203-11.847 80.576-32.702 109.382-8.701-6.393-19.429-10.18-31.029-10.18-3.838 0-7.576.425-11.182 1.21 3.169-19.321 5.387-41.745 6.477-65.7.506-11.125-3.452-21.685-11.144-29.735-7.688-8.047-18.05-12.477-29.176-12.477s-21.488 4.431-29.176 12.477c-7.693 8.05-11.651 18.61-11.144 29.735 1.09 23.955 3.308 46.379 6.477 65.7-3.606-.785-7.344-1.21-11.182-1.21-11.6 0-22.329 3.787-31.029 10.18-20.856-28.805-32.703-68.178-32.703-109.381zm26.205 153.302c0-20.692 16.834-39.1 37.526-39.1s37.526 18.408 37.526 39.1zm65.121-46.241c-3.937-20.598-6.665-45.748-7.906-73.03-.318-6.993 2.17-13.631 7.005-18.691 4.83-5.056 11.341-7.84 18.331-7.84s13.501 2.784 18.331 7.84c4.835 5.06 7.323 11.698 7.005 18.691-1.241 27.282-3.969 52.433-7.906 73.03-7.117 4.413-13.108 10.474-17.431 17.651-4.322-7.177-10.312-13.238-17.429-17.651zm24.93 46.241c0-20.692 16.834-39.1 37.526-39.1s37.526 18.408 37.526 39.1zm121.023-12.146c-7.967 8.69-19.293 12.755-30.971 12.146.328-12.335-3.667-24.127-10.697-33.297 21.094-28.27 34.039-66.051 36.477-106.146 7.805 32.398 12.928 65.478 15.27 98.907.738 10.545-2.842 20.627-10.079 28.39zm92.939-88.629c0 49.206-35.451 90.281-82.151 99.043 10.983-11.538 15.856-27.103 14.02-42.832 14.373-10.418 23.132-27.331 23.132-45.21v-87.801c0-12.406 10.093-22.5 22.5-22.5s22.5 10.094 22.5 22.5v76.8z"/></g></g></svg>