<svg id="Capa_1" enable-background="new 0 0 512 512" height="512" viewBox="0 0 512 512" width="512" xmlns="http://www.w3.org/2000/svg"><g><path d="m228.924 182.897 27.076 39.746 27.076-39.746 47.958-3.576-20.882-43.321 20.883-43.321-47.958-3.576-27.077-39.746-27.076 39.746-47.958 3.576 20.882 43.321-20.883 43.321zm-1.812-63.576 18.464-1.376 10.424-15.302 10.424 15.302 18.464 1.376-8.04 16.679 8.04 16.679-18.464 1.376-10.424 15.302-10.424-15.302-18.464-1.376 8.04-16.679z"/><path d="m256 271c74.439 0 135-60.561 135-135 0-74.991-60.561-136-135-136s-135 61.009-135 136c0 74.439 60.561 135 135 135zm0-241c57.897 0 105 47.551 105 106 0 57.897-47.103 105-105 105s-105-47.103-105-105c0-58.449 47.103-106 105-106z"/><path d="m121 512h120v-137.129l-87.193-86.877c-17.467-17.468-45.337-17.434-62.807-.692v-31.302c0-41.355-34.093-75-76-75h-15v166.148l121 120zm-91-177.351v-121.08c16.711 5.765 31 20.929 31 42.431v66.213l29.294 29.292 42.3 42.301 21.213-21.213-42.3-42.3c.035-.105.036-.107 0-.001l-.029-.029c-5.818-5.848-5.808-15.221.03-21.058 5.843-5.844 15.238-5.846 21.085.001l78.407 78.123v94.671h-60v-27.351z"/><path d="m512 181h-15c-40.05 0-75 31.904-75 75v31.302c-17.569-16.817-46.408-16.708-63.787.671l-87.213 86.898v137.129h120v-44.852l121-120zm-30 153.649-121 120v27.351h-60v-94.671l78.407-78.123c5.832-5.831 16.238-5.849 22.086 0 5.834 5.834 5.849 15.207.029 21.057l-43.204 42.207 20.964 21.46 43.3-42.3c.1-.1.224-.224.124-.124l29.294-29.293v-66.213c0-19.556 12.539-36.239 30-42.43z"/></g></svg>