<svg id="Capa_1" enable-background="new 0 0 512 512" height="512" viewBox="0 0 512 512" width="512" xmlns="http://www.w3.org/2000/svg"><g><g><g><path d="m7.5 37.5c0-16.569 13.431-30 30-30h378.792c2.62 0 5.135 1.028 7.005 2.863l12.566 12.333c1.87 1.835 4.385 2.863 7.005 2.863h14.982c2.242 0 4.419.753 6.181 2.139l11.481 9.028c2.411 1.896 3.819 4.794 3.819 7.861v28.432c0 4.848 3.478 8.998 8.251 9.846l8.667 1.539c4.774.848 8.251 4.998 8.251 9.846v380.25c0 16.569-13.431 30-30 30h-17.07l-18.89-25.09c-1.6-2.13-3.99-3.53-6.63-3.9l-23.31-3.2c-3.37-.46-6.75.82-8.96 3.41l-7.929 9.261c-1.896 2.214-4.665 3.489-7.581 3.489h-68.48c-3.64 0-6.98 1.97-8.75 5.15l-3.18 5.73c-1.77 3.18-5.11 5.15-8.75 5.15h-257.47c-16.569 0-30-13.431-30-30z" fill="#b5dbfd"/><path d="m504.5 94.25v380.25c0 16.57-13.43 30-30 30h-17.07l-4.06-5.4c7.76-5.41 12.84-14.41 12.84-24.6v-380.25c0-4.85-3.48-9-8.25-9.85l-8.67-1.53c-4.77-.85-8.25-5-8.25-9.85v-28.43c0-3.07-1.41-5.97-3.82-7.86l-11.48-9.03c-1.76-1.39-3.94-2.14-6.18-2.14h-14.98c-2.62 0-5.14-1.03-7.01-2.86l-12.56-12.34c-1.87-1.83-4.39-2.86-7.01-2.86h38.29c2.62 0 5.14 1.03 7.01 2.86l12.56 12.34c1.87 1.83 4.39 2.86 7.01 2.86h14.98c2.24 0 4.42.75 6.18 2.14l11.48 9.03c2.41 1.89 3.82 4.79 3.82 7.86v28.43c0 4.85 3.48 9 8.25 9.85l8.67 1.53c4.77.85 8.25 5 8.25 9.85z" fill="#8dcafc"/></g><g><path d="m457.266 323.879-35.226-40.226c-4.801-5.484-12.499-7.415-19.323-4.851-6.823 2.565-11.342 9.091-11.342 16.38v40.729c0 13.853-11.27 25.122-25.122 25.122s-25.122-11.27-25.122-25.122v-159.823c0-33.151-26.971-60.122-60.122-60.122-16.643 0-31.725 6.8-42.621 17.765-10.897-10.964-25.979-17.765-42.622-17.765s-31.725 6.8-42.622 17.765c-10.897-10.964-25.979-17.765-42.622-17.765-33.151 0-60.122 26.971-60.122 60.122 0 9.665 7.835 17.5 17.5 17.5s17.5-7.835 17.5-17.5c0-13.853 11.27-25.122 25.122-25.122s25.122 11.27 25.122 25.122v169.823c0 9.665 7.835 17.5 17.5 17.5s17.5-7.835 17.5-17.5v-169.823c0-13.853 11.27-25.122 25.122-25.122s25.122 11.27 25.122 25.122v169.823c0 9.665 7.835 17.5 17.5 17.5s17.5-7.835 17.5-17.5v-169.823c0-13.853 11.27-25.122 25.121-25.122 13.853 0 25.122 11.27 25.122 25.122v159.823c0 33.151 26.971 60.122 60.122 60.122 31.288 0 57.07-24.021 59.87-54.591l4.813 5.496c6.368 7.271 17.424 8.003 24.694 1.636s8.004-17.423 1.636-24.695z" fill="#fb6a3b"/><path d="m366.253 416.034c-44.18 0-80.122-35.942-80.122-80.122v-159.824c0-2.824-2.298-5.122-5.122-5.122s-5.121 2.298-5.121 5.122v169.823c0 20.678-16.822 37.5-37.5 37.5s-37.5-16.822-37.5-37.5v-169.823c0-2.824-2.298-5.122-5.122-5.122s-5.122 2.298-5.122 5.122v169.823c0 20.678-16.822 37.5-37.5 37.5s-37.5-16.822-37.5-37.5v-169.823c0-2.824-2.298-5.122-5.122-5.122s-5.122 2.298-5.122 5.122c0 20.678-16.822 37.5-37.5 37.5s-37.5-16.822-37.5-37.5c0-44.18 35.942-80.122 80.122-80.122 15.313 0 29.971 4.278 42.622 12.271 12.65-7.994 27.308-12.271 42.622-12.271 15.313 0 29.971 4.278 42.622 12.271 12.65-7.994 27.307-12.271 42.621-12.271 44.18 0 80.122 35.942 80.122 80.122v159.823c0 2.824 2.298 5.122 5.122 5.122s5.122-2.298 5.122-5.122v-40.729c0-15.531 9.768-29.637 24.305-35.102 4.238-1.592 8.676-2.398 13.192-2.398 10.813 0 21.097 4.665 28.216 12.797l35.224 40.223c6.6 7.535 9.869 17.19 9.207 27.185s-5.177 19.133-12.712 25.732c-6.84 5.99-15.611 9.289-24.697 9.289-.001 0-.002 0-.003 0-2.193 0-4.365-.192-6.492-.566-4.303 8.406-10.105 16.064-17.22 22.594-14.824 13.605-34.051 21.098-54.142 21.098z" fill="#8dcafc"/><path d="m457.266 323.879-35.226-40.226c-4.801-5.484-12.499-7.415-19.323-4.851-6.823 2.565-11.342 9.091-11.342 16.38v40.729c0 13.853-11.27 25.122-25.122 25.122s-25.122-11.27-25.122-25.122v-159.823c0-33.151-26.971-60.122-60.122-60.122-16.643 0-31.725 6.8-42.621 17.765-10.897-10.964-25.979-17.765-42.622-17.765s-31.725 6.8-42.622 17.765c-10.897-10.964-25.979-17.765-42.622-17.765-33.151 0-60.122 26.971-60.122 60.122 0 9.665 7.835 17.5 17.5 17.5s17.5-7.835 17.5-17.5c0-13.853 11.27-25.122 25.122-25.122s25.122 11.27 25.122 25.122v169.823c0 9.665 7.835 17.5 17.5 17.5s17.5-7.835 17.5-17.5v-169.823c0-13.853 11.27-25.122 25.122-25.122s25.122 11.27 25.122 25.122v169.823c0 9.665 7.835 17.5 17.5 17.5s17.5-7.835 17.5-17.5v-169.823c0-13.853 11.27-25.122 25.121-25.122 13.853 0 25.122 11.27 25.122 25.122v159.823c0 33.151 26.971 60.122 60.122 60.122 31.288 0 57.07-24.021 59.87-54.591l4.813 5.496c6.368 7.271 17.424 8.003 24.694 1.636s8.004-17.423 1.636-24.695z" fill="#31a7fb"/><g fill="#1c96f9"><path d="m341.13 177.005v19.085c0-33.15-26.97-60.12-60.12-60.12-15.043 0-28.819 5.557-39.371 14.722-1.862 1.617-4.637 1.618-6.5.001-10.558-9.165-24.326-14.722-39.369-14.722-15.052 0-28.822 5.558-39.379 14.722-1.863 1.617-4.638 1.617-6.5-.001-10.552-9.164-24.328-14.722-39.371-14.722-28.66 0-52.7 20.16-58.69 47.05-.92-2.12-1.43-4.47-1.43-6.93 0-33.15 26.97-60.12 60.12-60.12 16.64 0 31.73 6.8 42.62 17.76 10.9-10.96 25.98-17.76 42.63-17.76 16.64 0 31.72 6.8 42.62 17.76 10.939-11.009 26.116-17.821 42.844-17.76 33.266.122 59.896 27.769 59.896 61.035z"/><path d="m458.46 345.4c-.37-.52-.76-1.03-1.19-1.52l-35.23-40.23c-4.8-5.48-12.5-7.41-19.32-4.85-6.83 2.57-11.35 9.09-11.35 16.38v-20c0-7.29 4.52-13.81 11.35-16.38 6.82-2.56 14.52-.63 19.32 4.85l35.23 40.23c5.4 6.17 5.69 15.08 1.19 21.52z"/></g></g></g><g><path d="m497.56 77.02-8.666-1.539c-1.196-.212-2.063-1.247-2.063-2.461v-28.432c0-5.401-2.435-10.415-6.683-13.757l-11.482-9.028c-3.069-2.413-6.91-3.742-10.815-3.742h-14.982c-.658 0-1.28-.254-1.75-.716l-12.568-12.333c-3.292-3.233-7.646-5.012-12.259-5.012h-152.928c-4.143 0-7.5 3.357-7.5 7.5s3.357 7.5 7.5 7.5h152.928c.659 0 1.281.254 1.751.716l12.566 12.333c3.292 3.232 7.645 5.012 12.258 5.012h14.982c.558 0 1.106.19 1.545.534l11.479 9.026c.607.478.956 1.194.956 1.967v28.432c0 8.498 6.073 15.745 14.44 17.23l8.666 1.539c1.196.212 2.063 1.247 2.063 2.461v380.25c0 12.406-10.094 22.5-22.5 22.5h-13.329l-16.635-22.096c-2.775-3.692-6.997-6.179-11.606-6.825l-23.313-3.199c-5.938-.813-11.798 1.421-15.674 5.962l-7.929 9.261c-.472.551-1.158.867-1.884.867h-68.478c-6.35 0-12.214 3.45-15.308 9.01l-3.177 5.724c-.445.8-1.287 1.297-2.196 1.297h-176.81l15.339-20.686 46.543-4.733c2.458-.25 4.635-1.694 5.821-3.862l2.662-4.866c.249.025.502.038.758.038h17.593c4.142 0 7.5-3.357 7.5-7.5s-3.358-7.5-7.5-7.5h-10.165l5.634-10.299c1.988-3.634.654-8.191-2.98-10.18-3.633-1.988-8.191-.653-10.179 2.98l-14.588 26.664-45.91 4.669c-2.098.214-4.009 1.301-5.266 2.995l-23.905 32.237c-.01.014-.018.028-.028.042h-61.988c-12.407 0-22.5-10.094-22.5-22.5v-437c0-12.406 10.093-22.5 22.5-22.5h84.728l2.559 15.652-18.273 17.542c-2.988 2.868-3.085 7.616-.217 10.604 1.473 1.534 3.44 2.306 5.412 2.306 1.868 0 3.739-.693 5.193-2.09l3.885-3.729 6.632 6.896c1.473 1.531 3.438 2.302 5.407 2.302 1.87 0 3.743-.695 5.197-2.094 2.986-2.871 3.079-7.619.208-10.604l-6.623-6.888 6.411-6.154c1.78-1.709 2.606-4.185 2.208-6.62l-2.799-17.123h96.836c4.142 0 7.5-3.357 7.5-7.5s-3.358-7.5-7.5-7.5h-196.764c-20.678 0-37.5 16.822-37.5 37.5v437c0 20.678 16.822 37.5 37.5 37.5h257.47c6.35 0 12.214-3.45 15.308-9.01l3.177-5.724c.445-.8 1.287-1.297 2.196-1.297h68.479c5.112 0 9.952-2.228 13.278-6.111l7.937-9.271c.552-.646 1.39-.963 2.235-.847l23.289 3.196c.667.093 1.278.45 1.679.983l18.891 25.09c1.416 1.883 3.636 2.989 5.991 2.989h17.07c20.678 0 37.5-16.822 37.5-37.5v-380.248c0-8.498-6.073-15.744-14.44-17.23z"/><path d="m450.688 342.932c-4.147 3.633-10.479 3.214-14.11-.936l-4.813-5.495c-1.977-2.256-5.108-3.118-7.959-2.192-2.853.927-4.879 3.463-5.152 6.45-2.453 26.789-25.471 47.774-52.401 47.774-29.016 0-52.622-23.605-52.622-52.621v-159.824c0-17.987-14.634-32.621-32.622-32.621-17.987 0-32.621 14.634-32.621 32.621v169.824c0 5.514-4.486 10-10 10s-10-4.486-10-10v-118.5c0-4.143-3.358-7.5-7.5-7.5s-7.5 3.357-7.5 7.5v118.5c0 13.785 11.215 25 25 25s25-11.215 25-25v-169.824c0-9.716 7.905-17.621 17.621-17.621 9.717 0 17.622 7.905 17.622 17.621v159.824c0 37.286 30.335 67.621 67.622 67.621 16.952 0 33.179-6.324 45.689-17.807 8.77-8.048 15.179-18.124 18.73-29.228 9.125 5.804 21.359 5.193 29.898-2.282 5.023-4.399 8.033-10.492 8.475-17.155s-1.738-13.1-6.138-18.124l-10.917-12.467c-2.73-3.116-7.468-3.429-10.584-.701-3.116 2.729-3.43 7.468-.701 10.584l10.917 12.467c1.761 2.01 2.632 4.584 2.456 7.249-.176 2.666-1.38 5.103-3.39 6.863z"/><path d="m281.009 108.467c-15.705 0-30.594 5.335-42.621 15.151-12.028-9.816-26.917-15.151-42.622-15.151-15.706 0-30.595 5.335-42.622 15.152-12.027-9.817-26.916-15.152-42.622-15.152-37.287 0-67.622 30.335-67.622 67.621 0 13.785 11.215 25 25 25s25-11.215 25-25c0-9.716 7.905-17.621 17.622-17.621s17.622 7.905 17.622 17.621v169.824c0 13.785 11.215 25 25 25s25-11.215 25-25v-169.824c0-9.716 7.905-17.621 17.622-17.621s17.622 7.905 17.622 17.621v22.224c0 4.143 3.358 7.5 7.5 7.5s7.5-3.357 7.5-7.5v-22.224c0-17.987-14.634-32.621-32.622-32.621s-32.622 14.634-32.622 32.621v169.824c0 5.514-4.486 10-10 10s-10-4.486-10-10v-169.824c0-17.987-14.634-32.621-32.622-32.621s-32.622 14.634-32.622 32.621c0 5.514-4.486 10-10 10s-10-4.486-10-10c0-29.016 23.606-52.621 52.622-52.621 14.088 0 27.336 5.522 37.302 15.552 1.408 1.416 3.323 2.213 5.32 2.213s3.912-.797 5.32-2.213c9.966-10.029 23.214-15.552 37.302-15.552 14.087 0 27.335 5.522 37.303 15.551 1.408 1.416 3.322 2.213 5.319 2.213s3.912-.797 5.32-2.213c9.966-10.028 23.213-15.551 37.301-15.551 29.016 0 52.622 23.605 52.622 52.621v159.824c0 17.987 14.634 32.621 32.622 32.621s32.622-14.634 32.622-32.621v-40.729c0-4.142 2.604-7.903 6.479-9.36 3.876-1.456 8.316-.344 11.043 2.772l5.11 5.836c2.73 3.116 7.468 3.431 10.583.701 3.117-2.729 3.431-7.468.702-10.583l-5.109-5.835c-6.816-7.788-17.908-10.576-27.605-6.933-9.691 3.643-16.203 13.047-16.203 23.401v40.729c0 9.716-7.905 17.621-17.622 17.621s-17.622-7.905-17.622-17.621v-159.823c0-37.286-30.335-67.621-67.622-67.621z"/><path d="m280.704 413.54c-4.143 0-7.5 3.357-7.5 7.5s3.357 7.5 7.5 7.5h.104c4.143 0 7.5-3.357 7.5-7.5s-3.357-7.5-7.5-7.5z"/><path d="m351.428 77.154h.072c4.108 0 7.459-3.312 7.498-7.43.039-4.142-3.287-7.531-7.43-7.57l-.104-.001c-.023 0-.048 0-.072 0-4.108 0-7.459 3.312-7.498 7.43-.039 4.142 3.287 7.531 7.43 7.57z"/><path d="m253.675 420.298c-4.142 0-7.5 3.357-7.5 7.5s3.358 7.5 7.5 7.5h.104c4.143 0 7.5-3.357 7.5-7.5s-3.357-7.5-7.5-7.5z"/><path d="m76.603 381.238c4.142 0 7.5-3.357 7.5-7.5v-10.136c0-2.197-.964-4.285-2.637-5.71l-13.886-11.826c-3.153-2.685-7.887-2.306-10.573.847-2.686 3.154-2.307 7.888.847 10.573l11.249 9.58v6.672c0 4.143 3.357 7.5 7.5 7.5z"/><path d="m435.17 113.916c-3.078-2.771-7.82-2.522-10.592.557l-7.603 8.446c-2.771 3.079-2.522 7.821.557 10.592 1.434 1.291 3.228 1.926 5.016 1.926 2.052 0 4.096-.837 5.576-2.482l7.603-8.446c2.771-3.08 2.522-7.822-.557-10.593z"/></g></g></svg>