<svg id="Capa_1" enable-background="new 0 0 512 512" height="512" viewBox="0 0 512 512" width="512" xmlns="http://www.w3.org/2000/svg"><g><path d="m90 106c0-24.813-20.187-45-45-45s-45 20.187-45 45 20.187 45 45 45 45-20.187 45-45zm-45 15c-8.271 0-15-6.729-15-15s6.729-15 15-15 15 6.729 15 15-6.729 15-15 15z"/><path d="m512 106c0-24.813-20.187-45-45-45s-45 20.187-45 45 20.187 45 45 45 45-20.187 45-45zm-45 15c-8.271 0-15-6.729-15-15s6.729-15 15-15 15 6.729 15 15-6.729 15-15 15z"/><path d="m424.57 181h-93.57v60h-32.58c1.665-4.695 2.58-9.742 2.58-15 0-24.813-20.187-45-45-45s-45 20.187-45 45c0 5.258.915 10.305 2.58 15h-32.58v-60h-93.57c-6.191-17.461-22.874-30-42.43-30-24.813 0-45 20.187-45 45v255h512c0-54.285 0-203.704 0-255 0-24.813-20.187-45-45-45-19.556 0-36.239 12.539-42.43 30zm-333.57 240h-61v-90h61zm60-180h-91v30h91v150h-30v-120h-91v-105c0-8.271 6.729-15 15-15s15 6.729 15 15v15h91zm105-30c8.271 0 15 6.729 15 15s-6.729 15-15 15-15-6.729-15-15 6.729-15 15-15zm75 210h-150v-150h150zm151 0h-61v-90h61zm-30-225c0-8.271 6.729-15 15-15s15 6.729 15 15v105h-91v120h-30v-150h91v-30h-91v-30h91z"/></g></svg>