<svg id="Capa_1" enable-background="new 0 0 512 512" height="512" viewBox="0 0 512 512" width="512" xmlns="http://www.w3.org/2000/svg"><g><g><path d="m125.69 329.243c-1.597-.054-3.196-.106-4.783-.191-10.208-.546-18.318-8.655-18.864-18.864-.93-17.412-.411-43.349 7.061-69.293-6.967 3.55-13.933 7.591-20.81 12.121-44.393 29.24-67.541 73.394-78.944 103.958-6.855 18.375 6.143 38.108 25.731 39.065 32.583 1.592 82.289-2.242 126.682-31.482.613-.404 1.209-.818 1.815-1.226-15.665-7.506-28.822-19.397-37.888-34.088z" fill="#485c70"/><path d="m313.639 419.96h-10.702c-10.279 0-18.611-8.333-18.611-18.611v-30.549c-6.744.885-13.62 1.349-20.605 1.349h-20.761v57.582c0 10.279 8.332 18.611 18.611 18.611h14.557c8.889 0 16.461 5.561 19.479 13.385.155.003.308.018.464.018h17.568c11.539 0 20.892-9.354 20.892-20.892 0-11.539-9.354-20.893-20.892-20.893z" fill="#e4996d"/><path d="m276.817 443.074h-10.702c-10.279 0-18.611-8.333-18.611-18.611v-52.314h-41.784v52.314c0 10.279-8.332 18.611-18.611 18.611h-10.702c-11.539 0-20.892 9.354-20.892 20.892s9.354 20.892 20.892 20.892h17.568c5.461 0 10.791-1.675 15.271-4.798 10.435-7.275 24.298-7.275 34.732 0 4.48 3.123 9.81 4.798 15.271 4.798h17.568c11.539 0 20.892-9.354 20.892-20.892s-9.353-20.892-20.892-20.892z" fill="#eaaa83"/><path d="m500.777 94.131c-34.013-35.414-80.418-35.104-110.301-29.949 14.297 16.881 22.923 38.717 22.923 62.571v16.291c22.081-12.906 49.399-24.426 78.557-26.373 11.32-.756 16.68-14.358 8.821-22.54z" fill="#ff938a"/><path d="m420.5 124.021v96.76c0 86.58-70.19 156.77-156.78 156.77h-12.19c-38.271-12.953-49.19-34.391-49.19-59.55 15.42-5.86 30.29-14.53 42.9-27.14 19.41-19.4 31.94-43.23 35.3-67.09 3.24-23.02-2.53-43.25-16.25-56.97-9.67-9.67-22.55-15.39-37.55-16.78v-26c0-53.5 43.37-96.88 96.88-96.88 53.5 0 96.88 43.38 96.88 96.88z" fill="#6a829a"/><path d="m251.53 377.552h-55.88c-35.26 0-65.8-20.23-80.63-49.73 5.975 2.062 12.702 1.31 18.95 1.58 20.04 0 44.85-2.44 68.37-11.4 11.27 22.07 27.53 42.499 49.19 59.55z" fill="#5b778f"/><path d="m250.9 296.521c-13.24 13.24-28.74 22.36-44.73 28.56-59.427-47.337-54.93-136.94 2.62-182.78 23.54-2.69 45.66 3.35 61.16 18.85 32.12 32.12 23.59 92.72-19.05 135.37z" fill="#5b778f"/><path d="m206.17 325.081c-31.17 12.1-64.16 13.11-85.69 11.96-14.28-.76-25.66-12.15-26.43-26.43-1.74-32.58 1.47-91.36 40.53-130.42 22.07-22.07 48.96-35 74.21-37.89-32.58 50.7-36.36 123.53-2.62 182.78z" fill="#516980"/><ellipse cx="343.535" cy="127.884" fill="#ffa1ac" rx="29.355" ry="23.377"/></g><g><path d="m353.144 93.387v11.999c0 4.142 3.358 7.5 7.5 7.5s7.5-3.357 7.5-7.5v-11.999c0-4.142-3.358-7.5-7.5-7.5s-7.5 3.358-7.5 7.5z"/><path d="m506.18 88.941c-31.848-33.16-73.542-37.005-104.286-33.876-19.14-21.699-47.134-35.412-78.275-35.412-57.552 0-104.374 46.822-104.374 104.374v10.156c-33.299.479-64.316 15.412-89.959 40.71-19.313 19.313-30.289 43.1-36.321 66.338-14.617 8.62-28.701 19.645-39.928 31.287-2.875 2.981-2.789 7.729.192 10.604 2.979 2.873 7.726 2.792 10.605-.192 7.259-7.527 15.834-14.775 24.973-21.181-2.839 18.849-2.922 36.263-2.228 49.262.897 16.792 13.317 30.379 29.547 33.071 6.799 9.524 15.125 17.608 24.523 24.017-37.822 19.087-77.481 21.79-105.185 20.44-6.92-.338-13.074-3.849-16.884-9.635-3.81-5.785-4.607-12.826-2.186-19.316 6.813-18.261 15.545-35.219 25.953-50.401 2.342-3.417 1.471-8.085-1.945-10.426-3.415-2.341-8.084-1.47-10.426 1.944-11.099 16.189-20.397 34.237-27.636 53.641-4.113 11.024-2.76 22.983 3.713 32.81 6.472 9.826 16.926 15.791 28.678 16.366 38.12 1.312 77.807-2.523 121.487-26.775 12.964 5.762 27.414 8.604 42.01 8.301v39.405c0 6.127-4.984 11.111-11.111 11.111h-10.701c-15.655 0-28.391 12.737-28.391 28.391s12.736 28.391 28.391 28.391h17.568c7.03 0 13.793-2.126 19.559-6.146 7.821-5.453 18.331-5.454 26.152 0 5.767 4.02 12.53 6.146 19.56 6.146h17.568c13.851 0 25.409-9.972 27.891-23.112h8.928c15.655 0 28.391-12.737 28.391-28.391 0-15.655-12.736-28.391-28.391-28.391h-10.702c-6.126 0-11.11-4.984-11.11-11.111v-18.708c77.234-13.371 136.164-80.856 136.164-161.853v-9.894c0-4.142-3.358-7.5-7.5-7.5s-7.5 3.357-7.5 7.5v9.894c0 82.307-66.962 149.269-149.269 149.269h-68.063c-22.556-.011-43.865-9.103-59.42-25.174 34.522-.324 84.698-7.79 119.967-43.058 21.766-21.767 35.859-48.717 39.682-75.885 3.933-27.956-3.395-52.845-20.635-70.086-10.967-10.967-25.033-17.916-41.011-20.513v-11.306c0-49.281 40.093-89.375 89.375-89.375s89.375 40.094 89.375 89.375v51.86c0 4.142 3.358 7.5 7.5 7.5s7.5-3.357 7.5-7.5v-32.311c22.284-11.516 43.95-18.05 64.456-19.418 8.207-.547 15.15-5.649 18.119-13.315 2.949-7.618 1.268-16.011-4.39-21.902zm-229.358 388.407h-17.568c-3.946 0-7.743-1.193-10.981-3.451-12.953-9.029-30.356-9.029-43.31 0-3.237 2.258-7.034 3.451-10.98 3.451h-17.568c-7.384 0-13.391-6.008-13.391-13.392s6.008-13.392 13.391-13.392h10.701c14.397 0 26.11-11.713 26.11-26.11v-39.405h26.783v39.405c0 14.397 11.713 26.11 26.11 26.11h10.701c7.384 0 13.392 6.008 13.392 13.392s-6.006 13.392-13.39 13.392zm.009-92.823v16.816c0 14.397 11.713 26.11 26.11 26.11h10.701c7.384 0 13.392 6.008 13.392 13.392s-6.008 13.392-13.392 13.392h-10.143c-3.978-10.882-14.434-18.671-26.676-18.671h-10.701c-6.127 0-11.111-4.984-11.111-11.111v-39.405h8.716c4.41 0 8.779-.18 13.104-.523zm4.207-160.683c-3.372 23.965-15.957 47.889-35.435 67.368-37.169 37.168-94.089 39.969-124.711 38.336-10.464-.559-18.777-8.872-19.336-19.336-1.636-30.622 1.169-87.543 38.336-124.71 36.751-35.28 88.096-51.634 124.758-19.047 13.829 13.829 19.649 34.21 16.388 57.389zm215.543-118.415c-.319.824-1.633 3.532-5.13 3.765-20.421 1.364-41.719 7.302-63.457 17.65.489-20.807-5.181-40.915-15.517-57.511 26.064-1.123 58.153 4.249 82.885 30.001 2.303 2.397 1.62 5.06 1.219 6.095z"/></g></g></svg>