<svg id="Capa_1" enable-background="new 0 0 512 512" height="512" viewBox="0 0 512 512" width="512" xmlns="http://www.w3.org/2000/svg"><g><g><g><path d="m504.5 94.251v380.249c0 16.569-13.431 30-30 30h-17.07l-18.89-25.09c-1.6-2.13-3.99-3.53-6.63-3.9l-23.31-3.2c-3.37-.46-6.75.82-8.96 3.41l-7.929 9.261c-1.896 2.214-4.665 3.489-7.581 3.489h-68.48c-3.64 0-6.98 1.97-8.75 5.15l-3.18 5.73c-1.77 3.18-5.11 5.15-8.75 5.15h-257.47c-16.569 0-30-13.431-30-30v-255.22c0-2.66 1.06-5.22 2.95-7.09l22.71-22.56c5.14-5.11 3.31-13.82-3.46-16.43l-15.79-6.07c-3.86-1.49-6.41-5.2-6.41-9.34v-120.29c0-16.569 13.431-30 30-30h378.792c2.62 0 5.135 1.028 7.005 2.863l12.566 12.333c1.87 1.835 4.385 2.863 7.005 2.863h14.982c2.242 0 4.419.753 6.181 2.139l11.481 9.028c2.411 1.896 3.819 4.794 3.819 7.861v28.432c0 4.848 3.478 8.998 8.251 9.846l8.667 1.539c4.773.848 8.251 4.998 8.251 9.847z" fill="#915eb2"/><g fill="#804ea0"><path d="m111.28 438.22c-10.017 0-19.434-3.901-26.517-10.983s-10.983-16.5-10.983-26.517 3.9-19.434 10.984-26.517l115.433-115.433-16.468-16.467c-7.083-7.083-10.983-16.5-10.983-26.517s3.9-19.434 10.984-26.517c7.082-7.082 16.499-10.983 26.516-10.983s19.434 3.901 26.517 10.983l16.468 16.468 56.956-56.957h-39.428c-20.678 0-37.5-16.822-37.5-37.5s16.822-37.5 37.5-37.5h129.961c20.678 0 37.5 16.822 37.5 37.5v129.96c0 20.678-16.822 37.5-37.5 37.5s-37.5-16.822-37.5-37.5v-39.428l-56.957 56.957 16.468 16.468c7.084 7.083 10.984 16.5 10.984 26.517s-3.9 19.434-10.984 26.517c-7.082 7.082-16.499 10.983-26.516 10.983s-19.434-3.901-26.517-10.983l-16.468-16.468-115.433 115.433c-7.083 7.083-16.5 10.984-26.517 10.984z"/><path d="m504.5 94.25v380.25c0 16.57-13.43 30-30 30h-17.07l-4.06-5.4c7.76-5.41 12.84-14.41 12.84-24.6v-380.25c0-4.85-3.48-9-8.25-9.85l-8.67-1.53c-4.77-.85-8.25-5-8.25-9.85v-28.43c0-3.07-1.41-5.97-3.82-7.86l-11.48-9.03c-1.76-1.39-3.94-2.14-6.18-2.14h-14.98c-2.62 0-5.14-1.03-7.01-2.86l-12.56-12.34c-1.87-1.83-4.39-2.86-7.01-2.86h38.29c2.62 0 5.14 1.03 7.01 2.86l12.56 12.34c1.87 1.83 4.39 2.86 7.01 2.86h14.98c2.24 0 4.42.75 6.18 2.14l11.48 9.03c2.41 1.89 3.82 4.79 3.82 7.86v28.43c0 4.85 3.48 9 8.25 9.85l8.67 1.53c4.77.85 8.25 5 8.25 9.85z"/></g></g><path d="m400.72 93.78h-129.961c-9.665 0-17.5 7.835-17.5 17.5s7.835 17.5 17.5 17.5h87.712l-105.241 105.241-30.61-30.61c-6.834-6.834-17.914-6.834-24.748 0-6.835 6.834-6.835 17.915 0 24.749l30.61 30.61-129.576 129.575c-6.835 6.834-6.835 17.915 0 24.749 3.417 3.417 7.896 5.125 12.374 5.125s8.957-1.708 12.374-5.125l129.576-129.576 30.61 30.61c3.417 3.417 7.896 5.125 12.374 5.125s8.957-1.708 12.374-5.125c6.835-6.834 6.835-17.915 0-24.749l-30.61-30.61 105.242-105.24v87.712c0 9.665 7.835 17.5 17.5 17.5s17.5-7.835 17.5-17.5v-129.961c0-9.665-7.835-17.5-17.5-17.5z" fill="#6e4189"/><g fill="#5b3573"><path d="m418.22 111.28v21.4c0-9.67-7.84-17.5-17.5-17.5h-129.96c-5.64 0-10.66 2.66-13.86 6.8-2.28-2.96-3.64-6.67-3.64-10.7 0-9.66 7.83-17.5 17.5-17.5h129.96c9.66 0 17.5 7.84 17.5 17.5z"/><path d="m371.289 137.361-114.523 114.523c-1.953 1.953-5.118 1.953-7.071 0l-27.075-27.074c-6.83-6.83-17.91-6.83-24.75 0-.53.53-1.02 1.09-1.47 1.67-5.32-6.86-4.83-16.76 1.47-23.07 6.84-6.83 17.92-6.83 24.75 0l30.61 30.61 105.194-105.194h9.329c4.455 0 6.685 5.386 3.536 8.535z"/><path d="m235.645 265.934c1.953 1.953 1.953 5.118 0 7.071l-136.735 136.735c-.53.53-1.03 1.09-1.47 1.68-5.33-6.86-4.84-16.77 1.47-23.07l129.571-129.581z"/></g></g><g><path d="m333.521 480.97h-17.87c-6.35 0-12.214 3.45-15.308 9.01l-3.177 5.724c-.445.8-1.287 1.297-2.196 1.297h-119.91l28.159-42.621 16.657 7.804c2.13.997 4.603.938 6.683-.159l40.545-21.398c3.663-1.934 5.065-6.47 3.132-10.134-1.932-3.661-6.469-5.063-10.134-3.132l-12.966 6.843-2.201-6.639 10.147-38.083c1.066-4.002-1.313-8.111-5.316-9.178-3.996-1.067-8.112 1.313-9.178 5.316l-10.725 40.248c-.376 1.412-.332 2.903.128 4.291l3.695 11.143-10.828 5.715-19.144-8.969c-3.366-1.577-7.387-.447-9.439 2.657l-37.194 56.295h-119.581c-12.406 0-22.5-10.094-22.5-22.5v-154.173c0-4.143-3.357-7.5-7.5-7.5s-7.5 3.357-7.5 7.5v154.173c0 20.678 16.822 37.5 37.5 37.5h257.47c6.35 0 12.214-3.45 15.308-9.01l3.177-5.724c.445-.8 1.287-1.297 2.196-1.297h17.87c4.143 0 7.5-3.357 7.5-7.5s-3.358-7.499-7.5-7.499z"/><path d="m497.56 77.02-8.666-1.539c-1.196-.212-2.063-1.247-2.063-2.461v-28.432c0-5.401-2.435-10.415-6.683-13.757l-11.482-9.028c-3.069-2.413-6.91-3.742-10.815-3.742h-14.982c-.658 0-1.28-.254-1.75-.716l-12.568-12.333c-3.292-3.233-7.646-5.012-12.259-5.012h-378.792c-20.678 0-37.5 16.822-37.5 37.5v120.29c0 7.184 4.505 13.748 11.219 16.341l15.783 6.067c1.109.428 1.45 1.326 1.555 1.824.104.497.154 1.454-.683 2.286l-22.701 22.552c-3.287 3.255-5.173 7.783-5.173 12.42v71.946c0 4.143 3.357 7.5 7.5 7.5s7.5-3.357 7.5-7.5v-71.946c0-.662.265-1.304.735-1.77l22.713-22.563c4.224-4.199 6.013-10.186 4.788-16.013-1.227-5.829-5.277-10.589-10.845-12.736l-15.78-6.066c-.964-.371-1.611-1.313-1.611-2.342v-91.079l18.814 9.62c1.077.551 2.247.822 3.413.822 1.566 0 3.124-.49 4.435-1.451l7.03-5.153 7.844 8.362c1.476 1.574 3.471 2.369 5.472 2.369 1.839 0 3.682-.673 5.129-2.03 3.021-2.833 3.173-7.58.339-10.601l-6.596-7.032 5.56-4.075c3.341-2.448 4.064-7.142 1.615-10.482-2.448-3.343-7.144-4.064-10.482-1.615l-21.048 15.425-21.525-11.006v-12.364c0-12.406 10.094-22.5 22.5-22.5h378.792c.659 0 1.281.254 1.751.716l12.566 12.333c3.292 3.232 7.645 5.012 12.258 5.012h14.982c.558 0 1.106.19 1.545.534l11.479 9.026c.607.478.956 1.194.956 1.967v28.432c0 8.498 6.073 15.745 14.44 17.23l8.666 1.539c1.196.212 2.063 1.247 2.063 2.461v380.25c0 12.406-10.094 22.5-22.5 22.5h-13.329l-16.635-22.096c-2.775-3.692-6.997-6.179-11.606-6.825l-23.313-3.199c-5.938-.813-11.798 1.421-15.674 5.962l-7.929 9.261c-.472.551-1.158.867-1.884.867h-21.509c-4.143 0-7.5 3.357-7.5 7.5s3.357 7.5 7.5 7.5h21.509c5.112 0 9.952-2.228 13.278-6.111l7.937-9.271c.552-.646 1.389-.963 2.235-.847l23.289 3.196c.667.093 1.278.45 1.679.983l18.891 25.09c1.416 1.883 3.636 2.989 5.991 2.989h17.07c20.678 0 37.5-16.822 37.5-37.5v-380.249c.002-8.498-6.071-15.744-14.438-17.23z"/><path d="m86.28 400.72c0 6.678 2.601 12.956 7.322 17.677 4.721 4.723 10.999 7.323 17.678 7.323s12.957-2.601 17.678-7.322l124.272-124.274 25.308 25.309c4.723 4.722 11 7.321 17.677 7.321s12.954-2.6 17.678-7.321c4.722-4.723 7.322-11.001 7.322-17.679s-2.601-12.956-7.322-17.679l-25.308-25.306 87.135-87.134v69.604c0 13.785 11.215 25 25 25s25-11.215 25-25v-129.959c0-13.785-11.215-25-25-25h-44.293c-4.143 0-7.5 3.357-7.5 7.5s3.357 7.5 7.5 7.5h44.293c5.514 0 10 4.486 10 10v129.96c0 5.514-4.486 10-10 10s-10-4.486-10-10v-87.711c0-3.033-1.827-5.769-4.63-6.929-2.803-1.163-6.027-.52-8.174 1.625l-105.241 105.24c-1.406 1.407-2.196 3.314-2.196 5.304s.79 3.896 2.196 5.304l30.61 30.609c1.89 1.889 2.93 4.4 2.93 7.071s-1.04 5.183-2.929 7.071-4.4 2.929-7.071 2.929-5.182-1.04-7.07-2.928l-30.61-30.612c-1.407-1.406-3.314-2.196-5.304-2.196s-3.896.79-5.304 2.196l-129.576 129.578c-1.889 1.889-4.399 2.929-7.07 2.929s-5.182-1.04-7.071-2.93c-1.889-1.889-2.929-4.399-2.929-7.07s1.04-5.182 2.93-7.07l129.575-129.576c2.929-2.93 2.929-7.678 0-10.607l-30.61-30.609c-1.889-1.889-2.929-4.399-2.929-7.07s1.04-5.183 2.93-7.071c1.889-1.889 4.399-2.929 7.07-2.929s5.182 1.04 7.07 2.929l30.61 30.61c1.407 1.406 3.314 2.196 5.304 2.196s3.896-.79 5.304-2.196l105.24-105.241c2.145-2.146 2.786-5.371 1.625-8.174-1.16-2.803-3.896-4.63-6.929-4.63h-87.712c-5.514 0-10-4.486-10-10s4.486-10 10-10h56.567c4.143 0 7.5-3.357 7.5-7.5s-3.357-7.5-7.5-7.5h-56.567c-13.785 0-25 11.215-25 25s11.215 25 25 25h69.605l-87.134 87.135-25.307-25.308c-4.723-4.722-11-7.321-17.678-7.321s-12.955 2.6-17.678 7.321c-4.722 4.723-7.322 11.001-7.322 17.679s2.601 12.956 7.322 17.678l25.307 25.306-124.27 124.27c-4.723 4.722-7.324 11-7.324 17.678z"/><path d="m156.572 77.154h.072c4.108 0 7.459-3.312 7.498-7.43.039-4.142-3.287-7.531-7.43-7.57l-.104-.001c-.023 0-.048 0-.072 0-4.108 0-7.459 3.312-7.498 7.43-.039 4.142 3.287 7.531 7.43 7.57z"/><path d="m178.009 115.594c4.143 0 7.5-3.357 7.5-7.5s-3.357-7.5-7.5-7.5h-.104c-4.143 0-7.5 3.357-7.5 7.5s3.357 7.5 7.5 7.5z"/><path d="m388.512 339.307c-4.143 0-7.5 3.357-7.5 7.5s3.357 7.5 7.5 7.5h.104c4.143 0 7.5-3.357 7.5-7.5s-3.357-7.5-7.5-7.5z"/><path d="m143.727 85.321h-.104c-4.143 0-7.5 3.357-7.5 7.5s3.357 7.5 7.5 7.5h.104c4.143 0 7.5-3.357 7.5-7.5s-3.358-7.5-7.5-7.5z"/><path d="m341.388 400.29-11.248-9.579v-6.673c0-4.143-3.357-7.5-7.5-7.5s-7.5 3.357-7.5 7.5v10.137c0 2.197.964 4.285 2.637 5.71l13.885 11.825c1.412 1.202 3.14 1.79 4.859 1.79 2.122 0 4.23-.896 5.714-2.637 2.685-3.154 2.306-7.887-.847-10.573z"/><path d="m126.259 207.816-7.603 8.447c-2.771 3.079-2.521 7.821.557 10.593 1.434 1.29 3.228 1.925 5.016 1.925 2.052 0 4.096-.837 5.576-2.482l7.603-8.447c2.771-3.079 2.521-7.821-.557-10.593-3.078-2.77-7.821-2.522-10.592.557z"/></g></g></svg>