<svg id="Capa_1" enable-background="new 0 0 512 512" height="512" viewBox="0 0 512 512" width="512" xmlns="http://www.w3.org/2000/svg"><g><g><path d="m361.09 245.83-29.95-20.95 6.36-36c1.49-8.48-5.9-15.87-14.38-14.38l-36 6.36-20.95-29.95c-1.62-2.31-3.82-3.86-6.23-4.65-47.899 41.243-58.196 152.992 18.52 197.27l8.66-12.39 36 6.36c8.48 1.49 15.87-5.9 14.38-14.38l-6.36-36 29.95-20.95c7.05-4.94 7.05-15.4 0-20.34z" fill="#fad989"/><path d="m278.46 343.53-12.29 17.56c-4.94 7.05-15.4 7.05-20.34 0l-20.95-29.95-36 6.36c-8.48 1.49-15.87-5.9-14.38-14.38l6.36-36-29.95-20.95c-7.05-4.94-7.05-15.4 0-20.34l29.95-20.95-6.36-36c-1.49-8.48 5.9-15.87 14.38-14.38l36 6.36 20.95-29.95c3.32-4.74 9.15-6.3 14.11-4.65-35.96 55.18-34.33 139.55 18.52 197.27z" fill="#fdc072"/><path d="m302.38 256c0 18.47-10.78 34.41-26.4 41.87-19.98-3.714-31.126-24.19-31.126-41.87s8.857-37.678 31.126-41.87c15.62 7.46 26.4 23.4 26.4 41.87z" fill="#6a829a"/><path d="m275.98 297.87c-6.05 2.89-12.83 4.51-19.98 4.51-1.74 0-3.47-.1-5.16-.29-23.164-21.285-28.422-58.178-14.42-88.14 5.95-2.78 12.58-4.33 19.58-4.33 7.15 0 13.93 1.62 19.98 4.51-14.61 7.88-25.46 24.19-25.46 41.87s10.85 33.99 25.46 41.87z" fill="#f3f5fc"/><path d="m250.84 302.09c-23.19-2.56-41.22-22.21-41.22-46.09 0-18.62 10.97-34.68 26.8-42.05-3.13 29.13 1.34 59.92 14.42 88.14z" fill="#d7ddf5"/><g><path d="m453.528 322.228c0 14.82-9.04 27.54-21.91 32.94-29.969-9.72-34.47-52.579-10.2-68.46 18.03 1.8 32.11 17.02 32.11 35.52z" fill="#ff938a"/><path d="m431.618 355.168c-4.24 1.77-8.9 2.75-13.78 2.75-19.71 0-35.69-15.98-35.69-35.69s15.98-35.69 35.69-35.69c1.21 0 2.4.06 3.58.17-11.26 20.01-9.4 49.15 10.2 68.46z" fill="#fd7a6e"/></g><g><path d="m224.345 99.536c0 14.82-9.04 27.54-21.91 32.94-29.969-9.72-34.47-52.579-10.2-68.46 18.03 1.8 32.11 17.02 32.11 35.52z" fill="#83deff"/><path d="m202.435 132.476c-4.24 1.77-8.9 2.75-13.78 2.75-19.71 0-35.69-15.98-35.69-35.69s15.98-35.69 35.69-35.69c1.21 0 2.4.06 3.58.17-11.26 20.01-9.4 49.15 10.2 68.46z" fill="#2ecefb"/></g><g><path d="m93.84 412.62c0 14.82-9.04 27.54-21.91 32.94-29.969-9.72-34.47-52.579-10.2-68.46 18.03 1.8 32.11 17.02 32.11 35.52z" fill="#fad989"/><path d="m71.93 445.56c-4.24 1.77-8.9 2.75-13.78 2.75-19.71 0-35.69-15.98-35.69-35.69s15.98-35.69 35.69-35.69c1.21 0 2.4.06 3.58.17-11.26 20.01-9.4 49.15 10.2 68.46z" fill="#fdc072"/></g><g><path d="m467.071 81.943c0 14.82-9.04 27.54-21.91 32.94-29.969-9.72-34.47-52.579-10.2-68.46 18.03 1.8 32.11 17.02 32.11 35.52z" fill="#bd9cde"/><path d="m445.161 114.884c-4.24 1.77-8.9 2.75-13.78 2.75-19.71 0-35.69-15.98-35.69-35.69s15.98-35.69 35.69-35.69c1.21 0 2.4.06 3.58.17-11.26 20.009-9.4 49.149 10.2 68.46z" fill="#b18cd9"/></g></g><g><path d="m73.119 256c0 100.841 82.04 182.881 182.881 182.881 25.414 0 50.032-5.128 73.169-15.24 3.795-1.659 5.527-6.08 3.868-9.876-1.659-3.795-6.081-5.53-9.876-3.868-21.23 9.279-43.827 13.984-67.161 13.984-92.57 0-167.881-75.312-167.881-167.881 0-51.793 24.039-100.659 64.691-132.397 7.764 11.526 20.933 19.123 35.845 19.123 23.815 0 43.19-19.375 43.19-43.189 0-3.275-.379-6.462-1.073-9.53 8.323-1.253 16.776-1.887 25.228-1.887 92.569 0 167.881 75.312 167.881 167.881 0 7.769-.541 15.565-1.61 23.265-25.221-2.738-47.776 17.577-47.624 42.964 0 13.631 6.355 25.8 16.25 33.721-10.744 14.488-23.679 27.088-38.535 37.522-3.39 2.381-4.208 7.059-1.827 10.448 2.395 3.413 7.096 4.191 10.448 1.827 16.751-11.765 31.251-26.067 43.192-42.557 4.297 1.437 8.888 2.228 13.663 2.228 23.814 0 43.189-19.375 43.189-43.189 0-17.011-9.888-31.751-24.215-38.788 1.366-9.068 2.069-18.27 2.069-27.44 0-100.841-82.04-182.881-182.881-182.881-10.497 0-20.996.906-31.289 2.679-7.734-11.708-21.005-19.452-36.056-19.452-23.815 0-43.19 19.375-43.19 43.189 0 3.406.409 6.717 1.158 9.898-46.127 34.478-73.504 88.858-73.504 146.565zm372.908 66.229c0 15.544-12.646 28.189-28.189 28.189s-28.19-12.646-28.19-28.189 12.646-28.19 28.19-28.19 28.189 12.646 28.189 28.19zm-257.372-250.882c15.544 0 28.19 12.646 28.19 28.189s-12.646 28.189-28.19 28.189-28.19-12.646-28.19-28.189 12.646-28.189 28.19-28.189z"/><path d="m465.318 108.609c5.787-7.349 9.252-16.607 9.252-26.665 0-23.814-19.375-43.189-43.189-43.189-9.942 0-19.102 3.385-26.41 9.051-43.612-31.294-94.981-47.806-148.971-47.806-58.973 0-116.54 20.548-162.095 57.857-3.205 2.625-3.675 7.351-1.05 10.555 2.636 3.218 7.37 3.663 10.554 1.051 42.882-35.121 97.073-54.463 152.591-54.463 50.244 0 98.071 15.193 138.818 43.995-4.192 6.654-6.627 14.52-6.627 22.948 0 23.815 19.375 43.19 43.19 43.19 8.312 0 16.08-2.366 22.675-6.452 28.114 40.426 42.944 87.735 42.944 137.319 0 132.888-108.112 241-241 241-59.829 0-116.765-21.885-161.079-61.753 4.066-6.584 6.419-14.333 6.419-22.624 0-23.815-19.375-43.19-43.19-43.19-4.758 0-9.333.785-13.618 2.212-19.335-35.305-29.532-75.14-29.532-115.645 0-60.658 22.625-118.626 63.708-163.226 2.807-3.046 2.612-7.791-.435-10.598-3.047-2.806-7.792-2.611-10.598.436-43.64 47.376-67.675 108.953-67.675 173.388 0 43.001 10.823 85.298 31.346 122.794-9.972 7.918-16.385 20.135-16.385 33.829 0 23.814 19.375 43.189 43.19 43.189 10.12 0 19.431-3.508 26.801-9.359 47.064 42.319 107.522 65.547 171.048 65.547 68.38 0 132.667-26.629 181.02-74.98 48.351-48.353 74.98-112.64 74.98-181.02 0-53.29-16.124-104.112-46.682-147.391zm-62.128-26.666c0-15.544 12.646-28.189 28.19-28.189s28.189 12.646 28.189 28.189-12.646 28.19-28.189 28.19-28.19-12.646-28.19-28.19zm-345.04 358.869c-15.544 0-28.19-12.646-28.19-28.189s12.646-28.19 28.19-28.19 28.19 12.646 28.19 28.19-12.646 28.189-28.19 28.189z"/><path d="m373.88 256c0-6.491-3.175-12.589-8.494-16.311l-26.03-18.216 5.525-31.288c1.129-6.393-.938-12.949-5.527-17.539s-11.146-6.656-17.54-5.527l-31.287 5.525-18.216-26.03c-3.722-5.319-9.819-8.494-16.311-8.494s-12.589 3.175-16.311 8.494l-18.216 26.03-31.287-5.525c-6.39-1.129-12.95.938-17.54 5.528s-6.656 11.146-5.527 17.539l5.525 31.287-26.03 18.216c-5.318 3.722-8.494 9.819-8.494 16.311s3.175 12.589 8.494 16.311l26.03 18.216-5.525 31.287c-1.129 6.394.938 12.95 5.528 17.541 4.591 4.589 11.146 6.653 17.539 5.526l31.287-5.525 18.216 26.03c3.722 5.319 9.819 8.494 16.311 8.494 6.491 0 12.589-3.175 16.311-8.494l18.216-26.03 31.287 5.525c6.39 1.128 12.948-.937 17.539-5.526s6.657-11.147 5.528-17.541l-5.525-31.287 26.03-18.216c5.319-3.722 8.494-9.82 8.494-16.311zm-17.094 4.021-29.947 20.957c-2.39 1.672-3.593 4.577-3.086 7.449l6.356 35.994c.401 2.272-.819 3.782-1.363 4.325s-2.058 1.76-4.323 1.362l-35.995-6.356c-2.881-.509-5.778.696-7.449 3.086l-20.957 29.947c-1.323 1.89-3.253 2.094-4.021 2.094s-2.699-.204-4.021-2.094l-20.957-29.947c-1.668-2.398-4.619-3.595-7.449-3.086l-35.996 6.356c-2.269.397-3.78-.819-4.323-1.362s-1.764-2.053-1.363-4.324l6.357-35.995c.507-2.872-.696-5.777-3.085-7.449l-29.948-20.957c-1.89-1.323-2.094-3.253-2.094-4.021s.204-2.698 2.094-4.021l29.947-20.957c2.389-1.672 3.593-4.577 3.085-7.449l-6.357-35.995c-.401-2.271.819-3.78 1.362-4.323.543-.544 2.049-1.764 4.325-1.363l35.995 6.356c2.874.507 5.777-.695 7.449-3.086l20.957-29.947c1.322-1.89 3.252-2.094 4.021-2.094s2.698.204 4.021 2.094l20.957 29.947c1.671 2.39 4.569 3.593 7.449 3.086l35.994-6.356c2.273-.397 3.782.819 4.325 1.362.543.544 1.764 2.053 1.362 4.324l-6.356 35.995c-.507 2.872.696 5.777 3.086 7.449l29.947 20.957c1.89 1.323 2.094 3.253 2.094 4.021s-.203 2.698-2.093 4.021z"/><path d="m256 202.119c-29.71 0-53.881 24.171-53.881 53.881s24.171 53.881 53.881 53.881 53.881-24.171 53.881-53.881-24.171-53.881-53.881-53.881zm-38.881 53.881c0-21.439 17.442-38.881 38.881-38.881 1.144 0 2.273.06 3.392.157-10.345 9.967-16.368 23.782-16.368 38.724s6.023 28.757 16.368 38.724c-1.119.097-2.249.157-3.392.157-21.439 0-38.881-17.442-38.881-38.881zm59.335 33.047c-11.448-7.061-18.43-19.396-18.43-33.047s6.982-25.985 18.43-33.047c11.05 6.865 18.427 19.108 18.427 33.047s-7.377 26.182-18.427 33.047z"/></g></g></svg>