<svg id="Capa_1" enable-background="new 0 0 512 512" height="512" viewBox="0 0 512 512" width="512" xmlns="http://www.w3.org/2000/svg"><g><g><path d="m398.451 469.937h-46.481v-68.746c0-5.844 4.738-10.582 10.582-10.582h25.316c5.844 0 10.582 4.738 10.582 10.582v68.746z" fill="#fcb44d"/><path d="m398.45 401.19v68.75h-26.47v-68.75c0-5.63-4.4-10.24-9.97-10.57.18-.01.36-.01.54-.01h25.32c5.84 0 10.58 4.74 10.58 10.58z" fill="#fb9927"/></g><g><path d="m160.03 469.937h-46.481v-68.746c0-5.844 4.738-10.582 10.582-10.582h25.316c5.844 0 10.582 4.738 10.582 10.582v68.746z" fill="#fcb44d"/><path d="m160.03 401.19v68.75h-26.47v-68.75c0-5.63-4.4-10.24-9.97-10.57.18-.01.36-.01.54-.01h25.32c5.84 0 10.58 4.74 10.58 10.58z" fill="#fb9927"/></g><path d="m366.131 475.896h-220.261v-44.242c0-5.844 4.738-10.582 10.582-10.582h199.096c5.844 0 10.582 4.738 10.582 10.582v44.242z" fill="#554e55"/><path d="m366.13 431.65v44.25h-27.59v-44.25c0-5.84-4.74-10.58-10.58-10.58h27.59c5.84 0 10.58 4.74 10.58 10.58z" fill="#433f43"/><path d="m405.56 504.5h-299.119c-5.844 0-10.582-4.738-10.582-10.582v-13.398c0-5.844 4.738-10.582 10.582-10.582h299.119c5.844 0 10.582 4.738 10.582 10.582v13.398c0 5.844-4.738 10.582-10.582 10.582z" fill="#7a6e79"/><path d="m416.14 480.52v13.4c0 5.84-4.74 10.58-10.58 10.58h-27.59c5.84 0 10.58-4.74 10.58-10.58v-13.4c0-5.85-4.74-10.58-10.58-10.58h27.59c5.84 0 10.58 4.73 10.58 10.58z" fill="#685e67"/><g><circle cx="256" cy="183.89" fill="#eaf6ff" r="176.39"/><path d="m432.386 183.89c0 97.421-78.965 176.386-176.386 176.386-36.107 0-69.685-10.857-97.643-29.472 14.159 3.672 29.017 5.619 44.329 5.619 97.421 0 176.397-78.976 176.397-176.397 0-61.293-31.271-115.284-78.722-146.893 75.95 19.662 132.025 88.659 132.025 170.757z" fill="#d9ecfd"/><g><path d="m405.951 462.457v-61.266c0-9.971-8.112-18.082-18.083-18.082h-25.316c-9.971 0-18.082 8.111-18.082 18.082v12.381h-176.94v-12.381c0-9.971-8.112-18.082-18.083-18.082h-25.316c-9.971 0-18.083 8.111-18.083 18.082v61.266c-9.789.211-17.69 8.224-17.69 18.063v13.398c0 9.971 8.111 18.083 18.082 18.083h299.12c9.971 0 18.082-8.112 18.082-18.083v-13.398c0-9.839-7.902-17.852-17.691-18.063zm-43.399-64.348h25.316c1.7 0 3.083 1.383 3.083 3.082v61.246h-17.32v-30.782c0-8.623-6.072-15.844-14.161-17.642v-12.822c0-1.699 1.383-3.082 3.082-3.082zm-238.421 0h25.316c1.7 0 3.083 1.383 3.083 3.082v12.822c-8.089 1.798-14.161 9.019-14.161 17.642v30.782h-17.321v-61.246c.001-1.699 1.384-3.082 3.083-3.082zm284.511 95.808c0 1.7-1.383 3.083-3.082 3.083h-299.12c-1.699 0-3.082-1.383-3.082-3.083v-13.397c0-1.7 1.383-3.083 3.082-3.083h197.087c4.143 0 7.5-3.358 7.5-7.5s-3.357-7.5-7.5-7.5h-150.157v-30.782c0-1.7 1.383-3.083 3.082-3.083h199.096c1.7 0 3.083 1.383 3.083 3.083v30.782h-26.003c-4.143 0-7.5 3.358-7.5 7.5s3.357 7.5 7.5 7.5h72.932c1.699 0 3.082 1.383 3.082 3.083z"/><path d="m125.946 313.883c30.839 30.852 71.691 49.773 115.033 53.28.206.017.41.025.613.025 3.868 0 7.15-2.973 7.467-6.896.334-4.129-2.742-7.747-6.871-8.081-82.871-6.705-147.857-71.72-154.521-154.591-.332-4.129-3.954-7.192-8.077-6.875-4.129.332-7.207 3.948-6.875 8.077 3.487 43.346 22.391 84.208 53.231 115.061z"/><path d="m79.611 176.595c4.127.342 7.751-2.727 8.094-6.854 7.194-86.771 81.119-154.741 168.295-154.741 93.126 0 168.89 75.764 168.89 168.89 0 87.218-68.006 161.146-154.821 168.302-4.128.34-7.199 3.962-6.858 8.091.323 3.918 3.603 6.884 7.466 6.884.207 0 .416-.009.625-.026 45.836-3.778 88.345-24.515 119.695-58.391 31.529-34.069 48.894-78.412 48.894-124.86-.001-101.397-82.493-183.89-183.891-183.89-46.434 0-90.766 17.354-124.83 48.865-33.87 31.332-54.615 73.82-58.414 119.636-.342 4.128 2.727 7.752 6.855 8.094z"/><path d="m146.109 369.333c1.173.669 2.451.988 3.711.988 2.604 0 5.137-1.359 6.521-3.784 2.053-3.597.802-8.178-2.796-10.231-38.192-21.8-69.03-55.889-86.833-95.986-1.681-3.785-6.11-5.492-9.898-3.811-3.786 1.681-5.492 6.112-3.811 9.898 19.092 42.999 52.158 79.552 93.106 102.926z"/><path d="m88.544 344c-14.588-14.595-27.21-30.949-37.517-48.607-2.089-3.578-6.682-4.785-10.258-2.697-3.577 2.088-4.785 6.681-2.697 10.258 10.954 18.768 24.366 36.146 39.862 51.65 1.465 1.465 3.385 2.198 5.305 2.198 1.919 0 3.838-.732 5.302-2.195 2.93-2.928 2.931-7.677.003-10.607z"/><path d="m471.231 292.696c-3.576-2.087-8.17-.881-10.258 2.697-10.305 17.657-22.928 34.01-37.517 48.606-2.928 2.93-2.927 7.679.003 10.607 1.464 1.464 3.383 2.195 5.302 2.195 1.92 0 3.84-.733 5.305-2.198 15.498-15.506 28.909-32.883 39.862-51.65 2.088-3.576.88-8.169-2.697-10.257z"/><path d="m358.454 356.306c-3.598 2.054-4.85 6.634-2.796 10.231 1.384 2.425 3.915 3.784 6.521 3.784 1.261 0 2.538-.318 3.711-.988 40.95-23.375 74.016-59.928 93.106-102.926 1.681-3.786-.025-8.217-3.812-9.898-3.783-1.678-8.217.025-9.897 3.812-17.803 40.096-48.64 74.185-86.833 95.985z"/></g></g></g></svg>