<svg id="Capa_1" enable-background="new 0 0 512 512" height="512" viewBox="0 0 512 512" width="512" xmlns="http://www.w3.org/2000/svg"><g><g><path d="m504.5 94.251v380.249c0 16.569-13.431 30-30 30h-17.07l-18.89-25.09c-1.6-2.13-3.99-3.53-6.63-3.9l-23.31-3.2c-3.37-.46-6.75.82-8.96 3.41l-7.929 9.261c-1.896 2.214-4.665 3.489-7.581 3.489h-68.48c-3.64 0-6.98 1.97-8.75 5.15l-3.18 5.73c-1.77 3.18-5.11 5.15-8.75 5.15h-257.47c-16.569 0-30-13.431-30-30v-255.22c0-2.66 1.06-5.22 2.95-7.09l22.71-22.56c5.14-5.11 3.31-13.82-3.46-16.43l-15.79-6.07c-3.86-1.49-6.41-5.2-6.41-9.34v-120.29c0-16.569 13.431-30 30-30h378.792c2.62 0 5.135 1.028 7.005 2.863l12.566 12.333c1.87 1.835 4.385 2.863 7.005 2.863h14.982c2.242 0 4.419.753 6.181 2.139l11.481 9.028c2.411 1.896 3.819 4.794 3.819 7.861v28.432c0 4.848 3.478 8.998 8.251 9.846l8.667 1.539c4.773.848 8.251 4.998 8.251 9.847z" fill="#c1a3d4"/><path d="m231.025 414.281c-20.678 0-37.5-16.822-37.5-37.5s16.822-37.5 37.5-37.5h19.451c7.764 0 14.079-6.316 14.079-14.079v-141.165c0-6.24-5.077-11.317-11.317-11.317s-11.317 5.077-11.317 11.317v96.486c0 20.678-16.822 37.5-37.5 37.5s-37.5-16.822-37.5-37.5v-96.486c0-6.24-5.077-11.317-11.317-11.317s-11.316 5.077-11.316 11.317c0 20.678-16.822 37.5-37.5 37.5s-37.5-16.822-37.5-37.5c0-47.596 38.722-86.317 86.316-86.317 17.51 0 34.546 5.398 48.817 15.188 14.271-9.789 31.308-15.188 48.817-15.188 47.596 0 86.317 38.722 86.317 86.317v40.738c4.644-.747 9.353-1.126 14.078-1.126 49.118 0 89.079 39.961 89.079 89.079s-39.961 89.079-89.079 89.079c-15.13 0-29.857-3.842-42.909-11.039-16.276 14.966-37.702 23.513-60.248 23.513zm122.609-115.633c-7.763 0-14.078 6.316-14.078 14.079s6.315 14.079 14.078 14.079c7.764 0 14.079-6.316 14.079-14.079s-6.316-14.079-14.079-14.079z" fill="#b18bc8"/><path d="m353.634 243.648c-12.388 0-24.014 3.294-34.078 9.028v-68.64c0-36.567-29.75-66.317-66.317-66.317-19.296 0-36.688 8.289-48.817 21.487-12.13-13.198-29.522-21.487-48.817-21.487-36.567 0-66.316 29.75-66.316 66.317 0 9.665 7.835 17.5 17.5 17.5s17.5-7.835 17.5-17.5c0-17.269 14.049-31.317 31.316-31.317 17.269 0 31.317 14.049 31.317 31.317v96.486c0 9.665 7.835 17.5 17.5 17.5s17.5-7.835 17.5-17.5v-96.486c0-17.269 14.049-31.317 31.317-31.317s31.317 14.049 31.317 31.317v141.165c0 18.792-15.288 34.079-34.079 34.079h-19.451c-9.665 0-17.5 7.835-17.5 17.5s7.835 17.5 17.5 17.5h19.451c23.67 0 44.592-11.972 57.044-30.173 12.238 10.995 28.405 17.699 46.113 17.699 38.091 0 69.079-30.989 69.079-69.079s-30.988-69.079-69.079-69.079zm0 103.159c-18.791 0-34.078-15.288-34.078-34.079s15.287-34.079 34.078-34.079 34.079 15.288 34.079 34.079-15.288 34.079-34.079 34.079z" fill="#915eb2"/><g fill="#804ea0"><path d="m284.56 325.2v21.52c0 18.8-15.29 34.08-34.08 34.08h-19.45c-5.61 0-10.61 2.64-13.81 6.75-2.31-2.97-3.69-6.7-3.69-10.77 0-9.66 7.83-17.5 17.5-17.5h19.45c18.79 0 34.08-15.29 34.08-34.08z"/><path d="m319.56 184.919v20.641c0-36.57-29.75-66.32-66.32-66.32-17.551 0-33.522 6.855-45.395 18.025-1.928 1.814-4.922 1.814-6.85 0-11.873-11.169-27.844-18.025-45.395-18.025-31.65 0-58.2 22.29-64.75 52.01-1-2.2-1.56-4.64-1.56-7.21 0-36.57 29.75-66.32 66.31-66.32 19.3 0 36.69 8.29 48.82 21.49 12.336-13.424 30.112-21.77 49.805-21.483 36.386.531 65.335 30.802 65.335 67.192z"/><path d="m422.47 306.959c.472 5.672.236 11.194-.6 16.531-5.18-33-33.81-58.32-68.24-58.32-9.61 0-18.768 1.982-27.09 5.554-3.305 1.418-6.98-.986-6.98-4.582v-13.462c11.607-6.622 25.303-9.984 39.83-8.794 33.442 2.74 60.3 29.635 63.08 63.073z"/></g><path d="m504.5 94.25v380.25c0 16.57-13.43 30-30 30h-17.07l-4.06-5.4c7.76-5.41 12.84-14.41 12.84-24.6v-380.25c0-4.85-3.48-9-8.25-9.85l-8.67-1.53c-4.77-.85-8.25-5-8.25-9.85v-28.43c0-3.07-1.41-5.97-3.82-7.86l-11.48-9.03c-1.76-1.39-3.94-2.14-6.18-2.14h-14.98c-2.62 0-5.14-1.03-7.01-2.86l-12.56-12.34c-1.87-1.83-4.39-2.86-7.01-2.86h38.29c2.62 0 5.14 1.03 7.01 2.86l12.56 12.34c1.87 1.83 4.39 2.86 7.01 2.86h14.98c2.24 0 4.42.75 6.18 2.14l11.48 9.03c2.41 1.89 3.82 4.79 3.82 7.86v28.43c0 4.85 3.48 9 8.25 9.85l8.67 1.53c4.77.85 8.25 5 8.25 9.85z" fill="#b18bc8"/></g><g><path d="m7.5 315.057c4.143 0 7.5-3.357 7.5-7.5v-88.277c0-.662.265-1.304.736-1.77l22.712-22.563c4.224-4.199 6.013-10.186 4.788-16.013-1.226-5.829-5.277-10.589-10.845-12.735l-15.78-6.067c-.964-.371-1.611-1.313-1.611-2.342v-120.29c0-12.406 10.094-22.5 22.5-22.5h141.604v21.941l-20.437 16.54-13.006 2.067-6.676-8.425c-2.573-3.247-7.291-3.792-10.536-1.22-3.246 2.572-3.792 7.29-1.22 10.536l1.434 1.81-9.562 1.52c-4.09.65-6.88 4.494-6.229 8.585.587 3.691 3.774 6.323 7.398 6.323.391 0 .787-.03 1.186-.094l41.549-6.604c1.298-.206 2.519-.75 3.541-1.577l9.939-8.044 8.324 12.887c1.435 2.222 3.846 3.432 6.307 3.432 1.395 0 2.805-.389 4.063-1.201 3.479-2.247 4.479-6.89 2.23-10.369l-9.198-14.239 3.112-2.519c1.759-1.424 2.781-3.566 2.781-5.83v-25.519h104.088c4.143 0 7.5-3.357 7.5-7.5s-3.357-7.5-7.5-7.5h-260.692c-20.678 0-37.5 16.822-37.5 37.5v120.29c0 7.184 4.505 13.748 11.219 16.341l15.783 6.067c1.109.428 1.45 1.326 1.555 1.824.104.497.154 1.454-.683 2.286l-22.701 22.552c-3.287 3.255-5.173 7.783-5.173 12.42v88.276c0 4.143 3.357 7.501 7.5 7.501z"/><path d="m497.56 77.02-8.666-1.539c-1.196-.212-2.063-1.247-2.063-2.461v-28.432c0-5.401-2.435-10.415-6.683-13.757l-11.482-9.028c-3.069-2.413-6.91-3.742-10.815-3.742h-14.982c-.658 0-1.28-.254-1.75-.716l-12.568-12.333c-3.292-3.233-7.645-5.012-12.258-5.012h-89.001c-4.143 0-7.5 3.357-7.5 7.5s3.357 7.5 7.5 7.5h89.001c.658 0 1.28.254 1.75.716l12.566 12.333c3.292 3.232 7.645 5.012 12.258 5.012h14.982c.558 0 1.106.19 1.545.534l11.479 9.026c.607.478.956 1.194.956 1.967v28.432c0 8.498 6.073 15.745 14.44 17.23l8.666 1.539c1.196.212 2.063 1.247 2.063 2.461v380.25c0 12.406-10.094 22.5-22.5 22.5h-13.329l-16.635-22.096c-2.775-3.692-6.997-6.179-11.606-6.825l-23.313-3.199c-5.93-.816-11.799 1.42-15.673 5.962l-7.93 9.261c-.472.551-1.158.867-1.884.867h-68.478c-6.35 0-12.214 3.45-15.308 9.01l-3.177 5.724c-.445.8-1.287 1.297-2.196 1.297h-257.469c-12.406-.001-22.5-10.095-22.5-22.501v-42.368l33.355 9.095c.654.179 1.316.266 1.973.266 2.446 0 4.791-1.2 6.21-3.295l4.782-7.06 10.047 8.562c1.411 1.203 3.141 1.792 4.86 1.792 2.121 0 4.229-.895 5.712-2.636 2.687-3.152 2.31-7.886-.844-10.572l-11.313-9.641 5.714-8.437c2.322-3.43 1.426-8.093-2.004-10.416-3.431-2.323-8.093-1.426-10.416 2.004l-15.951 23.552-32.125-8.76v-79.929c0-4.143-3.357-7.5-7.5-7.5s-7.5 3.357-7.5 7.5v137.843c0 20.678 16.822 37.5 37.5 37.5h257.47c6.35 0 12.214-3.45 15.308-9.01l3.177-5.724c.445-.8 1.287-1.297 2.196-1.297h68.479c5.112 0 9.952-2.228 13.278-6.111l7.938-9.271c.551-.646 1.387-.962 2.233-.846l23.289 3.196c.667.093 1.278.45 1.679.983l18.891 25.09c1.416 1.883 3.636 2.989 5.991 2.989h17.07c20.678 0 37.5-16.822 37.5-37.5v-380.249c.001-8.498-6.072-15.744-14.439-17.23z"/><path d="m353.634 354.307c22.927 0 41.579-18.652 41.579-41.579s-18.652-41.579-41.579-41.579c-22.926 0-41.578 18.652-41.578 41.579s18.652 41.579 41.578 41.579zm0-68.159c14.655 0 26.579 11.923 26.579 26.579 0 14.655-11.924 26.579-26.579 26.579s-26.578-11.924-26.578-26.579c0-14.656 11.923-26.579 26.578-26.579z"/><path d="m253.238 110.219c-17.987 0-35.392 6.665-48.817 18.503-13.426-11.838-30.83-18.503-48.817-18.503-40.702 0-73.816 33.115-73.816 73.818 0 13.785 11.215 25 25 25s25-11.215 25-25c0-13.134 10.684-23.818 23.816-23.818s23.817 10.685 23.817 23.818v96.485c0 13.785 11.215 25 25 25s25-11.215 25-25v-96.485c0-13.134 10.685-23.818 23.817-23.818s23.817 10.685 23.817 23.818v81.286c0 4.143 3.357 7.5 7.5 7.5s7.5-3.357 7.5-7.5v-81.286c0-21.404-17.413-38.818-38.817-38.818s-38.817 17.414-38.817 38.818v96.485c0 5.514-4.486 10-10 10s-10-4.486-10-10v-96.485c0-21.404-17.413-38.818-38.817-38.818-21.403 0-38.816 17.414-38.816 38.818 0 5.514-4.486 10-10 10s-10-4.486-10-10c0-32.433 26.385-58.818 58.816-58.818 16.381 0 32.161 6.948 43.295 19.063 1.421 1.545 3.424 2.425 5.522 2.425s4.102-.88 5.522-2.425c11.134-12.114 26.914-19.063 43.295-19.063 32.432 0 58.817 26.386 58.817 58.818v68.64c0 2.672 1.422 5.142 3.731 6.484 2.312 1.343 5.162 1.354 7.481.032 9.236-5.263 19.736-8.045 30.365-8.045 33.955 0 61.579 27.624 61.579 61.579s-27.624 61.579-61.579 61.579c-15.179 0-29.775-5.604-41.1-15.777-1.608-1.444-3.763-2.128-5.906-1.867-2.146.257-4.076 1.428-5.296 3.211-11.528 16.85-30.54 26.908-50.855 26.908h-19.451c-5.514 0-10-4.486-10-10s4.486-10 10-10h19.451c22.927 0 41.579-18.652 41.579-41.58v-30.777c0-4.143-3.357-7.5-7.5-7.5s-7.5 3.357-7.5 7.5v30.777c0 14.656-11.923 26.58-26.579 26.58h-19.451c-13.785 0-25 11.215-25 25s11.215 25 25 25h19.451c22.566 0 43.831-9.967 58.325-27.011 13.006 9.422 28.651 14.536 44.832 14.536 42.226 0 76.579-34.354 76.579-76.579s-34.354-76.579-76.579-76.579c-9.088 0-18.1 1.634-26.578 4.78v-56.892c.002-40.702-33.113-73.817-73.816-73.817z"/><path d="m422.71 114.199c-4.143 0-7.5 3.357-7.5 7.5v10.136c0 2.197.964 4.285 2.637 5.71l13.886 11.826c1.412 1.202 3.14 1.79 4.859 1.79 2.122 0 4.23-.896 5.714-2.637 2.686-3.154 2.307-7.888-.847-10.573l-11.249-9.58v-6.672c0-4.142-3.357-7.5-7.5-7.5z"/><path d="m180.23 430.72h-.104c-4.143 0-7.5 3.357-7.5 7.5s3.357 7.5 7.5 7.5h.104c4.143 0 7.5-3.357 7.5-7.5s-3.357-7.5-7.5-7.5z"/><path d="m366.288 110.22-.104-.001c-.023 0-.048 0-.072 0-4.108 0-7.459 3.312-7.498 7.43-.039 4.142 3.287 7.531 7.43 7.57l.104.001h.072c4.108 0 7.459-3.312 7.498-7.43.039-4.142-3.287-7.531-7.43-7.57z"/><path d="m377.948 148.255h.104c4.143 0 7.5-3.357 7.5-7.5s-3.357-7.5-7.5-7.5h-.104c-4.143 0-7.5 3.357-7.5 7.5s3.358 7.5 7.5 7.5z"/><path d="m115.011 317.423c-2.948 2.909-2.98 7.657-.071 10.606l7.981 8.09c1.468 1.487 3.402 2.232 5.339 2.232 1.902 0 3.807-.72 5.268-2.161 2.948-2.909 2.98-7.657.071-10.606l-7.981-8.09c-2.911-2.949-7.659-2.98-10.607-.071z"/></g></g></svg>