<svg id="Capa_1" enable-background="new 0 0 512 512" height="512" viewBox="0 0 512 512" width="512" xmlns="http://www.w3.org/2000/svg"><g><g><path d="m234.57 164.42 41.39 29.106 22.49 45.064h-150.65z" fill="#b18cd9"/><path d="m488.039 151.51c-13.4 11.44-29.71 18.93-47.13 21.61-.07.01-.13.02-.2.03l-56.718-35.153-25.501-60.306c.08-.24.16-.48.24-.72 5.36-16.79 15.29-31.74 28.69-43.19 19.73-16.86 49.4-14.54 66.26 5.19l39.55 46.27c16.86 19.729 14.539 49.399-5.191 66.269z" fill="#bd9cde"/><path d="m440.709 173.15c-17.33 2.72-33.28 10.54-46.92 21.59-14.51 11.76-21.61 27.86-28.81 43.85h-32.54c-40.736-26.992-48.935-74.17-13.81-110.16 3.98-2.31 7.8-5.03 11.41-8.28 12.89-11.63 23.03-25.98 28.45-42.46z" fill="#6a829a"/><path d="m332.44 238.59h-33.99l-63.88-74.17.66-.56c23.49-22.31 56.88-20.01 83.4-35.43-15.35 33.19-12.55 77.27 13.81 110.16z" fill="#5b778f"/><path d="m391.74 422.65v29.66c0 20.53-16.64 37.18-37.17 37.18h-96.28c-46.316-15.53-65.954-42.469-58.52-66.84z" fill="#e4996d"/><path d="m258.29 489.49h-117.95c-20.53 0-37.17-16.65-37.17-37.18v-29.66h96.6c13.36 25.04 32.69 48.05 58.52 66.84z" fill="#df8a57"/><path d="m487.409 284.04v46.26c0 56.74-45.99 102.73-102.72 102.73h-178.959c-66.655-54.903-57.93-166.446-.81-205.46h226.03c31.179 0 56.459 25.28 56.459 56.47z" fill="#eaaa83"/><path d="m205.73 433.03h-95.5c-56.74 0-102.73-45.99-102.73-102.73v-46.26c0-31.19 25.28-56.47 56.46-56.47h140.96c-36.48 57.15-39.65 139.77.81 205.46z" fill="#e4996d"/><path d="m197.499 338.096c-.04 12.848-13.152 23.222-29.285 23.171s-29.179-10.506-29.139-23.354 13.151-23.222 29.285-23.172c16.133.051 29.179 10.507 29.139 23.355z" fill="#fff"/><path d="m297.413 338.409c-.04 12.848 13.006 23.304 29.139 23.354 16.133.051 29.245-10.323 29.285-23.171s-13.006-23.304-29.139-23.355c-16.134-.05-29.245 10.324-29.285 23.172z" fill="#fff"/><path d="m271.064 320.452c.046-14.555-10.495-15.956-23.502-15.997s-23.556 1.294-23.602 15.849c-.045 14.555 10.462 26.387 23.469 26.428 13.008.042 23.589-11.725 23.635-26.28z" fill="#495560"/></g><g><path d="m247.405 354.234h.093c8.42 0 16.296-3.603 22.184-10.151 5.699-6.337 8.853-14.72 8.88-23.605.038-12.007-5.93-17.581-10.942-20.143-5.415-2.768-11.926-3.352-20.036-3.377-8.057-.025-14.622.518-20.056 3.251-5.029 2.531-11.031 8.067-11.069 20.075-.028 8.886 3.073 17.288 8.731 23.66 5.87 6.608 13.76 10.264 22.215 10.29zm-13.135-40.627c2.842-1.43 7.979-1.651 12.744-1.651.175 0 .349 0 .522.001 4.907.016 10.32.233 13.257 1.734 1.042.532 2.785 1.423 2.769 6.739-.016 5.193-1.804 10.031-5.033 13.622-3.017 3.354-6.931 5.164-11.077 5.182-4.127-.013-8.05-1.878-11.046-5.251-3.207-3.611-4.964-8.46-4.947-13.653.016-5.316 1.766-6.196 2.811-6.723z"/><path d="m171.486 320.201c4.13 0 7.486-3.343 7.499-7.477.011-3.524 2.882-6.384 6.404-6.384 1.731.005 3.337.676 4.543 1.89 1.206 1.213 1.867 2.823 1.861 4.534-.013 4.142 3.334 7.51 7.477 7.523 4.154 0 7.511-3.343 7.523-7.477.019-5.717-2.191-11.099-6.222-15.154s-9.398-6.299-15.115-6.316c-.023 0-.045 0-.068 0-11.77 0-21.366 9.558-21.403 21.337-.013 4.142 3.334 7.51 7.477 7.523.008.001.015.001.024.001z"/><path d="m295.774 320.591c4.13 0 7.486-3.343 7.499-7.477.011-3.524 2.882-6.384 6.404-6.384 1.731.005 3.337.676 4.543 1.89 1.206 1.213 1.867 2.823 1.861 4.534-.013 4.142 3.334 7.51 7.477 7.523 4.154 0 7.511-3.343 7.523-7.477.019-5.717-2.191-11.099-6.222-15.154s-9.398-6.299-15.115-6.316c-.023 0-.046 0-.069 0-5.691 0-11.047 2.208-15.086 6.221-4.055 4.03-6.298 9.398-6.316 15.116-.013 4.142 3.334 7.51 7.477 7.523.008.001.016.001.024.001z"/><path d="m498.925 80.368-39.543-46.262c-9.458-11.066-22.66-17.788-37.174-18.925-14.516-1.13-28.601 3.446-39.668 12.905-14.463 12.362-25.169 28.476-30.961 46.6-4.681 14.653-13.867 28.447-26.565 39.892-12.338 11.12-27.703 15.312-43.97 19.751-17.611 4.806-35.821 9.775-50.838 23.96l-72.29 61.788h-37.249c-4.143 0-7.5 3.357-7.5 7.5s3.357 7.5 7.5 7.5h310.28c26.997 0 48.961 21.963 48.961 48.96v46.266c0 52.507-42.718 95.225-95.226 95.225h-274.456c-52.508 0-95.226-42.718-95.226-95.225v-46.266c0-26.997 21.963-48.96 48.96-48.96h21.709c4.143 0 7.5-3.357 7.5-7.5s-3.357-7.5-7.5-7.5h-21.709c-35.267 0-63.96 28.692-63.96 63.96v46.266c0 55.843 41.746 102.116 95.668 109.262v12.75c0 24.633 20.04 44.674 44.673 44.674h214.227c24.633 0 44.673-20.041 44.673-44.674v-12.75c53.923-7.146 95.668-53.419 95.668-109.262v-46.266c0-35.267-28.692-63.96-63.961-63.96h-48.548c4.118-7.085 9.17-13.886 16.111-19.51 13.118-10.629 27.957-17.591 42.987-19.935 18.984-2.96 36.803-10.926 51.406-23.422 11.066-9.459 17.788-22.661 18.925-37.175 1.137-14.513-3.446-28.6-12.904-39.667zm-144.357 401.62h-214.227c-16.361 0-29.673-13.311-29.673-29.674v-11.787h273.572v11.787c.001 16.363-13.311 29.674-29.672 29.674zm-120.171-307.548 39.006 45.636h-92.399zm262.479-55.576c-.824 10.518-5.695 20.088-13.717 26.943-11.454 9.79-25.204 16.416-39.95 19.297l-25.087-29.35c-2.691-3.148-7.426-3.521-10.574-.828-3.148 2.691-3.52 7.426-.828 10.574l19.85 23.224c-13.202 3.995-25.971 10.846-37.501 20.189-11.235 9.102-18.346 20.556-23.707 31.164h-72.229l-47.284-55.322c11.337-8.351 24.897-12.068 39.143-15.955 17.244-4.705 35.075-9.57 50.064-23.079 11.025-9.938 19.781-21.485 25.782-33.902l23.14 27.073c2.701 3.159 7.441 3.51 10.574.828 3.148-2.691 3.52-7.426.828-10.574l-28.376-33.199c5.141-14.117 13.827-26.668 25.282-36.459 8.02-6.855 18.23-10.172 28.75-9.353 10.519.824 20.088 5.695 26.943 13.717l39.543 46.262c6.856 8.02 10.178 18.231 9.354 28.75z"/></g></g></svg>