<svg id="Capa_1" enable-background="new 0 0 512 512" height="512" viewBox="0 0 512 512" width="512" xmlns="http://www.w3.org/2000/svg"><g><path d="m180 121h151v30h-151z"/><path d="m180 181h151v30h-151z"/><path d="m180 241h151v30h-151z"/><path d="m180 301h151v30h-151z"/><path d="m180 361h91v30h-91z"/><path d="m482 30h-30v-30h-392v30h-30v-30h-30v90h30v-30h30v30h30v52.213l23.787 23.787-23.787 23.787v232.213h-60v15c0 41.355 33.645 75 75 75h271c24.813 0 45-20.187 45-45 0-6.83 0-57.687 0-66.07l-23.959-24.757 23.959-23.957v-262.216h31v-30h30v30h30v-90h-30zm-377 452c-19.557 0-36.239-12.539-42.43-30h268.43v15c0 5.257.906 10.307 2.57 15zm286-181h-30v30h30v8.789l-36.041 36.038 36.041 37.243v53.93c0 8.271-6.729 15-15 15s-15-6.729-15-15v-45h-241v-151h30v-30h-30v-38.787l36.213-36.213-36.213-36.213v-39.787h271zm31-241h-332v-30h332z"/></g></svg>