<svg id="Capa_1" enable-background="new 0 0 512 512" height="512" viewBox="0 0 512 512" width="512" xmlns="http://www.w3.org/2000/svg"><g><path d="m182.509 271h-62.509c0-33.084-26.916-60-60-60s-60 26.916-60 60c0 28.243 17.847 56.388 35.105 83.605 12.24 19.302 24.895 39.261 24.895 51.395 0 8.271-6.729 15-15 15v30c24.813 0 45-20.187 45-45 0-20.844-14.358-43.487-29.559-67.46-14.268-22.502-30.441-48.007-30.441-67.54 0-16.542 13.458-30 30-30s30 13.458 30 30v15c0 65.272 38.067 120.844 91 147.963v3.037c0 24.813-20.187 45-45 45v30h240v-30c-24.813 0-45-20.187-45-45v-9.455c14.53-11.064 26.374-24.74 37.426-38.564l143.427-177.981h-115.273l-48.96 60h-18.129c-5.98-29.344-29.147-52.51-58.491-58.491v-32.509h15v-30h-60v30h15v32.509c-29.344 5.981-52.51 29.147-58.491 58.491zm13.45 211c7.807-10.375 12.973-22.836 14.53-36.38 14.637 4.2 29.918 6.38 45.511 6.38 17.464 0 32.352-2.909 45.35-7.841 1.343 14.11 6.604 27.093 14.691 37.841zm165.901-181 48.96-60h38.327l-104.131 129.22c-26.844 33.582-48.981 51.78-89.016 51.78-69.924 0-127.691-53.038-135.179-121zm-105.86-60c19.555 0 36.228 12.542 42.42 30h-84.84c6.192-17.458 22.865-30 42.42-30z"/><path d="m422 165h30c0-24.813-20.187-45-45-45h-61v30h61c8.271 0 15 6.729 15 15z"/><path d="m407 60h-61c-8.271 0-15-6.729-15-15s6.729-15 15-15h15v-30h-15c-24.813 0-45 20.187-45 45s20.187 45 45 45h61c41.355 0 75 33.645 75 75h30c0-57.897-47.103-105-105-105z"/></g></svg>