<svg id="Capa_1" enable-background="new 0 0 512 512" height="512" viewBox="0 0 512 512" width="512" xmlns="http://www.w3.org/2000/svg"><g><g><path d="m279.699 157.51-23.7 98.49-94.18 27.2-53.51-10.87c-18.944-27.966-20.461-62.304-5.71-91.03l153.4-153.401z" fill="#d7ddf5"/><path d="m108.309 272.33-80.42-16.33 74.71-74.7c-1.81 30.05.02 60.7 5.71 91.03z" fill="#c5cff1"/><path d="m255.999 27.899c0 60.5-56.99 171.111-56.99 171.111s-46.27 23.84-95.33 40.68c-38.481-82.18-1.752-195.765 55.93-230.851 35.32 2.1 69.65 8.4 96.39 19.06z" fill="#f3f5fc"/><path d="m103.679 239.69c-26.8 9.2-54.42 16.31-75.79 16.31-26.93-63.98-26.12-171.43-3.82-231.931 35.22-12.92 86.34-18.15 135.54-15.23-43.84 64.27-64.02 147.511-55.93 230.851z" fill="#d7ddf5"/><path d="m484.107 256-126.044-33.05-102.064 33.05-29.662 107.876 29.662 120.229z" fill="#d7ddf5"/><path d="m484.107 256h-228.108v-228.105z" fill="#c5cff1"/><path d="m487.935 24.064c-60.502-22.194-167.951-21.685-231.936 3.831 0 60.502 56.994 171.111 56.994 171.111s110.612 56.994 171.114 56.994c26.935-63.984 26.124-171.434 3.828-231.936z" fill="#f3f5fc"/><path d="m487.935 487.935c22.296-60.502 23.107-167.951-3.828-231.935-60.502 0-171.114 56.994-171.114 56.994s-56.994 110.609-56.994 171.111c63.985 25.516 171.434 26.025 231.936 3.83z" fill="#f3f5fc"/><path d="m255.999 256v228.101l-115.29-115.29c-28.85-28.52-44.033-76.404-35.09-112.81h150.38z" fill="#c5cff1"/><path d="m140.709 368.81-112.82-112.81h77.73c5.45 38.47 16.99 76.69 35.09 112.81z" fill="#adc0ed"/><path d="m255.999 484.101c-5.33 2.13-10.96 4.08-16.84 5.85-88.92-34.793-139.804-139.945-130.52-215.901 47.17 16.68 90.37 38.94 90.37 38.94s56.99 110.61 56.99 171.111z" fill="#f3f5fc"/><path d="m239.159 489.951c-64.71 19.6-159.63 18.33-215.09-2.02-22.3-60.5-23.11-167.95 3.82-231.931 22.69 0 52.44 8.02 80.75 18.05 15.35 79.91 57.48 157.491 130.52 215.901z" fill="#d7ddf5"/><path d="m171.549 399.98c0 5.66-.79 11.14-2.26 16.33-25.73-14.733-43.478-49.226-40.36-73.54 24.65 7.34 42.62 30.18 42.62 57.21z" fill="#fbf198"/><path d="m169.289 416.311c-7.1 25.03-30.12 43.37-57.43 43.37-32.97 0-59.69-26.73-59.69-59.7 0-32.96 26.72-59.69 59.69-59.69 5.93 0 11.66.87 17.07 2.48 10.35 25.509 23.75 50.229 40.36 73.54z" fill="#fad989"/><circle cx="111.86" cy="399.983" fill="#f3f5fc" r="25.046"/><path d="m171.549 112.02c0 32.96-26.72 59.69-59.69 59.69-2.89 0-5.73-.21-8.51-.61-19.794-40.776-1.422-95.026 29.72-114.9 22.5 8.559 38.48 30.32 38.48 55.82z" fill="#bd9cde"/><path d="m133.069 56.199c-16.1 35.51-26.19 74.56-29.72 114.9-28.94-4.12-51.18-29.01-51.18-59.08 0-32.97 26.72-59.7 59.69-59.7 7.47 0 14.62 1.37 21.21 3.88z" fill="#b18cd9"/><path d="m136.909 112.02c0 13.83-11.22 25.04-25.05 25.04-1.32 0-2.61-.1-3.87-.3-6.062-15.142-2.37-39.589 12.43-48.29 9.62 3.499 16.49 12.719 16.49 23.55z" fill="#f3f5fc"/><path d="m120.419 88.469c-5.24 15.65-9.39 31.8-12.43 48.29-11.99-1.85-21.17-12.22-21.17-24.74 0-13.84 11.21-25.05 25.04-25.05 3.01 0 5.89.531 8.56 1.5z" fill="#d7ddf5"/><circle cx="400.138" cy="112.017" fill="#83deff" r="59.692"/><circle cx="400.138" cy="112.017" fill="#f3f5fc" r="25.046"/><circle cx="400.138" cy="399.983" fill="#ff938a" r="59.692"/><circle cx="400.138" cy="399.983" fill="#f3f5fc" r="25.046"/></g><g><path d="m492.214 255.993c12.363-30.857 19.369-72.31 19.768-117.207.393-44.16-5.808-86.922-17.011-117.321-.761-2.063-2.389-3.689-4.454-4.447-30.024-11.015-72.778-16.997-117.339-16.435-44.612.57-86.074 7.4-117.205 19.268-13.572-5.17-29.157-9.418-46.432-12.615-4.063-.747-7.986 1.938-8.739 6.011s1.938 7.985 6.011 8.739c15.415 2.852 29.363 6.551 41.553 11.015-2.769 54.268-47.366 145.309-54.941 160.417-15.112 7.58-106.235 52.226-160.517 54.944-22.518-58.53-23.943-157.866-2.978-218.427 36.547-12.538 90.832-17.359 142.879-12.583 4.134.369 7.774-2.658 8.154-6.783.378-4.125-2.659-7.775-6.783-8.154-55.707-5.111-114.215.485-152.698 14.602-2.065.758-3.693 2.384-4.454 4.447-11.203 30.399-17.403 73.162-17.01 117.322.399 44.897 7.405 86.35 19.768 117.207-12.364 30.856-19.369 72.31-19.768 117.207-.393 44.16 5.808 86.922 17.011 117.321.761 2.063 2.389 3.689 4.454 4.447 29.594 11.023 74.484 17.11 117.34 16.435 44.598-.57 86.049-7.396 117.178-19.258 31.128 11.862 72.58 18.688 117.178 19.258 42.865.674 87.734-5.411 117.34-16.435 2.065-.758 3.693-2.384 4.454-4.447 11.203-30.399 17.403-73.161 17.011-117.321-.401-44.897-7.406-86.351-19.77-117.207zm-228.714-154.878c16.609 50.126 41.27 98.297 42.827 101.32.715 1.387 1.845 2.517 3.231 3.231 3.023 1.558 51.196 26.218 101.322 42.827h-147.38zm-15 309.756c-16.609-50.126-41.27-98.297-42.827-101.32-.715-1.387-1.845-2.517-3.231-3.231-3.023-1.558-51.196-26.218-101.322-42.827h147.38zm15-147.378h147.381c-50.126 16.609-98.299 41.27-101.322 42.827-1.387.715-2.517 1.845-3.231 3.231-1.558 3.023-26.218 51.194-42.827 101.32v-147.378zm218.57-233.559c20.969 60.562 19.544 159.896-2.977 218.429-54.256-2.718-145.401-47.366-160.518-54.946-7.575-15.106-52.174-106.147-54.941-160.415 59.994-21.917 159.308-23.375 218.436-3.068zm-279.629 175.732c1.387-.715 2.517-1.845 3.231-3.231 1.558-3.023 26.218-51.194 42.827-101.32v147.378h-147.38c50.127-16.61 98.299-41.27 101.322-42.827zm-172.511 276.385c-20.969-60.562-19.544-159.896 2.977-218.429 54.256 2.718 145.401 47.366 160.518 54.946 7.575 15.106 52.174 106.147 54.941 160.415-59.994 21.917-159.308 23.377-218.436 3.068zm452.14 0c-59.126 20.306-158.442 18.846-218.435-3.068 2.77-54.268 47.366-145.308 54.941-160.415 15.112-7.58 106.235-52.226 160.517-54.944 22.518 58.534 23.945 157.867 2.977 218.427z"/><path d="m111.861 332.784c-37.05 0-67.192 30.142-67.192 67.191s30.143 67.192 67.192 67.192 67.192-30.143 67.192-67.192-30.142-67.191-67.192-67.191zm0 119.384c-28.779 0-52.192-23.413-52.192-52.192 0-28.778 23.413-52.191 52.192-52.191s52.192 23.413 52.192 52.191c.001 28.778-23.412 52.192-52.192 52.192z"/><path d="m111.861 367.429c-17.946 0-32.546 14.6-32.546 32.546s14.6 32.547 32.546 32.547 32.546-14.601 32.546-32.547-14.599-32.546-32.546-32.546zm0 50.093c-9.675 0-17.546-7.871-17.546-17.547 0-9.675 7.871-17.546 17.546-17.546s17.546 7.871 17.546 17.546c0 9.676-7.871 17.547-17.546 17.547z"/><path d="m111.861 44.818c-37.05 0-67.192 30.143-67.192 67.192s30.143 67.191 67.192 67.191 67.192-30.142 67.192-67.191-30.142-67.192-67.192-67.192zm0 119.384c-28.779 0-52.192-23.413-52.192-52.191 0-28.779 23.413-52.192 52.192-52.192s52.192 23.413 52.192 52.192c.001 28.778-23.412 52.191-52.192 52.191z"/><path d="m111.861 79.463c-17.946 0-32.546 14.601-32.546 32.547s14.6 32.546 32.546 32.546 32.546-14.6 32.546-32.546-14.599-32.547-32.546-32.547zm0 50.093c-9.675 0-17.546-7.871-17.546-17.546 0-9.676 7.871-17.547 17.546-17.547s17.546 7.871 17.546 17.547c0 9.675-7.871 17.546-17.546 17.546z"/><path d="m400.139 179.202c37.05 0 67.192-30.142 67.192-67.191s-30.143-67.192-67.192-67.192-67.192 30.143-67.192 67.192 30.142 67.191 67.192 67.191zm0-119.384c28.779 0 52.192 23.413 52.192 52.192 0 28.778-23.413 52.191-52.192 52.191s-52.192-23.413-52.192-52.191c-.001-28.779 23.412-52.192 52.192-52.192z"/><path d="m400.139 144.556c17.946 0 32.546-14.6 32.546-32.546s-14.6-32.547-32.546-32.547-32.546 14.601-32.546 32.547 14.599 32.546 32.546 32.546zm0-50.093c9.675 0 17.546 7.871 17.546 17.547 0 9.675-7.871 17.546-17.546 17.546s-17.546-7.871-17.546-17.546 7.871-17.547 17.546-17.547z"/><path d="m367.593 399.975c0 17.946 14.6 32.547 32.546 32.547s32.546-14.601 32.546-32.547-14.6-32.546-32.546-32.546-32.546 14.6-32.546 32.546zm50.092 0c0 9.676-7.871 17.547-17.546 17.547s-17.546-7.871-17.546-17.547c0-9.675 7.871-17.546 17.546-17.546s17.546 7.871 17.546 17.546z"/><path d="m400.139 332.784c-37.05 0-67.192 30.142-67.192 67.191s30.143 67.192 67.192 67.192c10.304 0 20.2-2.278 29.413-6.771 3.724-1.815 5.27-6.306 3.454-10.028-1.815-3.722-6.305-5.268-10.028-3.454-7.148 3.486-14.833 5.254-22.839 5.254-28.779 0-52.192-23.413-52.192-52.192 0-28.778 23.413-52.191 52.192-52.191s52.192 23.413 52.192 52.191c0 9.129-2.405 18.125-6.955 26.017-2.069 3.588-.838 8.174 2.751 10.243 3.585 2.067 8.173.838 10.243-2.751 5.862-10.166 8.961-21.753 8.961-33.509 0-37.051-30.143-67.192-67.192-67.192z"/></g></g></svg>