<svg id="Capa_1" enable-background="new 0 0 512 512" height="512" viewBox="0 0 512 512" width="512" xmlns="http://www.w3.org/2000/svg"><g><g><g><path d="m504.5 94.251v380.249c0 16.569-13.431 30-30 30h-17.07l-18.89-25.09c-1.6-2.13-3.99-3.53-6.63-3.9l-23.31-3.2c-3.37-.46-6.75.82-8.96 3.41l-7.929 9.261c-1.896 2.214-4.665 3.489-7.581 3.489h-68.48c-3.64 0-6.98 1.97-8.75 5.15l-3.18 5.73c-1.77 3.18-5.11 5.15-8.75 5.15h-257.47c-16.569 0-30-13.431-30-30v-255.22c0-2.66 1.06-5.22 2.95-7.09l22.71-22.56c5.14-5.11 3.31-13.82-3.46-16.43l-15.79-6.07c-3.86-1.49-6.41-5.2-6.41-9.34v-120.29c0-16.569 13.431-30 30-30h378.792c2.62 0 5.135 1.028 7.005 2.863l12.566 12.333c1.87 1.835 4.385 2.863 7.005 2.863h14.982c2.242 0 4.419.753 6.181 2.139l11.481 9.028c2.411 1.896 3.819 4.794 3.819 7.861v28.432c0 4.848 3.478 8.998 8.251 9.846l8.667 1.539c4.773.848 8.251 4.998 8.251 9.847z" fill="#dac8e5"/><path d="m504.5 94.25v380.25c0 16.57-13.43 30-30 30h-17.07l-4.06-5.4c7.76-5.41 12.84-14.41 12.84-24.6v-380.25c0-4.85-3.48-9-8.25-9.85l-8.67-1.53c-4.77-.85-8.25-5-8.25-9.85v-28.43c0-3.07-1.41-5.97-3.82-7.86l-11.48-9.03c-1.76-1.39-3.94-2.14-6.18-2.14h-14.98c-2.62 0-5.14-1.03-7.01-2.86l-12.56-12.34c-1.87-1.83-4.39-2.86-7.01-2.86h38.29c2.62 0 5.14 1.03 7.01 2.86l12.56 12.34c1.87 1.83 4.39 2.86 7.01 2.86h14.98c2.24 0 4.42.75 6.18 2.14l11.48 9.03c2.41 1.89 3.82 4.79 3.82 7.86v28.43c0 4.85 3.48 9 8.25 9.85l8.67 1.53c4.77.85 8.25 5 8.25 9.85z" fill="#ceb5dc"/></g><g><g><path d="m349.595 268.316c-10.232 0-20.143-4.255-27.19-11.674l-35.203-37.064-35.202 37.064c-7.048 7.42-16.958 11.675-27.19 11.675s-20.142-4.255-27.189-11.674l-35.207-37.066-35.207 37.066c-7.047 7.419-16.958 11.674-27.192 11.674-9.651 0-18.821-3.661-25.822-10.309-14.993-14.242-15.605-38.025-1.365-53.017l62.396-65.692c7.047-7.419 16.957-11.674 27.189-11.674s20.143 4.255 27.189 11.674l35.207 37.066 35.204-37.065c7.048-7.419 16.958-11.675 27.19-11.675 10.233 0 20.144 4.255 27.191 11.675l35.2 37.062 35.198-37.062c7.047-7.42 16.958-11.676 27.193-11.676 9.651 0 18.82 3.661 25.82 10.307 7.265 6.899 11.407 16.212 11.666 26.226.258 10.013-3.398 19.528-10.296 26.791l-62.389 65.692c-7.047 7.421-16.957 11.676-27.191 11.676z" fill="#ceb5dc"/><path d="m100.013 248.316c-4.328 0-8.663-1.596-12.049-4.812-7.007-6.656-7.292-17.733-.636-24.741l62.396-65.692c3.304-3.478 7.891-5.448 12.688-5.448s9.385 1.97 12.688 5.448l49.708 52.333 49.706-52.333c3.304-3.479 7.892-5.448 12.689-5.448 4.798 0 9.385 1.97 12.689 5.448l49.703 52.332 49.7-52.331c6.656-7.008 17.732-7.293 24.741-.638 7.008 6.656 7.294 17.732.638 24.741l-62.389 65.692c-3.304 3.479-7.892 5.449-12.689 5.449s-9.385-1.97-12.689-5.448l-49.703-52.332-49.705 52.332c-3.304 3.479-7.891 5.448-12.689 5.448-4.797 0-9.384-1.969-12.688-5.448l-49.708-52.333-49.708 52.333c-3.441 3.622-8.063 5.448-12.693 5.448z" fill="#a176bd"/></g><g><g><path d="m425.13 176.66c-.34-.39-.7-.77-1.09-1.14-7.01-6.65-18.09-6.37-24.75.64l-46.074 48.513c-1.971 2.076-5.28 2.076-7.251 0l-46.075-48.513c-1.65-1.74-3.62-3.1-5.78-4.03s-4.51-1.42-6.91-1.42c-4.79 0-9.38 1.97-12.69 5.45l-46.075 48.513c-1.971 2.076-5.279 2.076-7.251 0l-46.084-48.513c-3.3-3.48-7.89-5.45-12.69-5.45-4.79 0-9.38 1.97-12.69 5.45l-62.39 65.69c-.16.17-.31.33-.46.51-5.92-6.72-5.83-16.98.46-23.6l62.39-65.69c3.31-3.48 7.9-5.45 12.69-5.45 4.8 0 9.39 1.97 12.69 5.45l49.71 52.34 49.7-52.34c3.31-3.48 7.9-5.45 12.69-5.45 2.4 0 4.75.49 6.91 1.42s4.13 2.29 5.78 4.03l49.7 52.33 49.7-52.33c6.66-7.01 17.74-7.29 24.75-.63 6.83 6.49 7.27 17.2 1.09 24.22z" fill="#915eb2"/></g></g><g><path d="m349.595 384.375c-10.232 0-20.143-4.255-27.19-11.674l-35.203-37.064-35.202 37.064c-7.048 7.42-16.958 11.675-27.19 11.675-10.231 0-20.141-4.254-27.188-11.672l-35.208-37.068-35.207 37.066c-7.047 7.419-16.958 11.674-27.192 11.674-9.651 0-18.821-3.661-25.822-10.309-14.993-14.242-15.605-38.025-1.365-53.017l62.396-65.692c7.047-7.419 16.957-11.674 27.189-11.674s20.143 4.255 27.189 11.674l35.207 37.066 35.204-37.065c7.048-7.419 16.958-11.675 27.19-11.675 10.233 0 20.144 4.255 27.191 11.675l35.2 37.062 35.198-37.062c7.047-7.42 16.959-11.675 27.194-11.675 9.65 0 18.82 3.66 25.82 10.307 7.265 6.899 11.407 16.212 11.666 26.226.258 10.013-3.398 19.528-10.296 26.791l-62.389 65.692c-7.048 7.42-16.958 11.675-27.192 11.675z" fill="#ceb5dc"/><path d="m100.013 364.375c-4.328 0-8.663-1.596-12.049-4.812-7.007-6.656-7.292-17.733-.636-24.741l62.396-65.692c3.304-3.478 7.891-5.448 12.688-5.448s9.385 1.97 12.688 5.448l49.708 52.333 49.706-52.333c3.304-3.479 7.892-5.448 12.689-5.448 4.798 0 9.385 1.97 12.689 5.448l49.703 52.332 49.7-52.331c6.656-7.008 17.732-7.293 24.741-.638 7.008 6.656 7.294 17.732.638 24.741l-62.389 65.692c-3.304 3.479-7.892 5.449-12.689 5.449s-9.385-1.97-12.689-5.448l-49.703-52.332-49.705 52.332c-3.304 3.479-7.891 5.448-12.689 5.448-4.797 0-9.384-1.97-12.688-5.448l-49.708-52.333-49.708 52.333c-3.441 3.622-8.063 5.448-12.693 5.448z" fill="#a176bd"/></g><g><path d="m425.13 292.72c-.34-.39-.7-.77-1.09-1.14-7.01-6.65-18.09-6.37-24.75.64l-46.074 48.513c-1.971 2.076-5.28 2.076-7.251 0l-46.075-48.513c-1.65-1.74-3.62-3.1-5.78-4.03s-4.51-1.42-6.91-1.42c-4.79 0-9.38 1.97-12.69 5.45l-46.075 48.513c-1.971 2.076-5.279 2.076-7.251 0l-46.084-48.513c-3.3-3.48-7.89-5.45-12.69-5.45-4.79 0-9.38 1.97-12.69 5.45l-62.39 65.69c-.16.17-.31.33-.46.51-5.92-6.72-5.83-16.98.46-23.6l62.39-65.69c3.31-3.48 7.9-5.45 12.69-5.45 4.8 0 9.39 1.97 12.69 5.45l49.71 52.33 49.7-52.33c3.31-3.48 7.9-5.45 12.69-5.45 2.4 0 4.75.49 6.91 1.42s4.13 2.29 5.78 4.03l49.7 52.33 49.7-52.33c6.66-7.01 17.74-7.29 24.75-.64 6.83 6.5 7.27 17.21 1.09 24.23z" fill="#915eb2"/></g></g></g><g><path d="m497.56 77.02-8.667-1.539c-1.195-.212-2.063-1.247-2.063-2.461v-28.432c0-5.402-2.436-10.416-6.683-13.757l-11.48-9.027c-3.07-2.414-6.912-3.743-10.817-3.743h-14.981c-.659 0-1.281-.254-1.751-.716l-12.567-12.334c-3.292-3.232-7.646-5.011-12.259-5.011h-378.792c-20.678 0-37.5 16.822-37.5 37.5v120.29c0 7.185 4.505 13.75 11.219 16.341l15.783 6.067c1.109.428 1.451 1.326 1.555 1.824.104.496.154 1.454-.683 2.286l-22.7 22.551c-3.288 3.255-5.174 7.783-5.174 12.421v156.562c0 4.143 3.358 7.5 7.5 7.5s7.5-3.357 7.5-7.5v-156.562c0-.662.265-1.304.736-1.77l22.712-22.563c4.224-4.199 6.013-10.186 4.788-16.013-1.226-5.829-5.277-10.589-10.844-12.736l-15.782-6.066c-.963-.371-1.61-1.313-1.61-2.342v-120.29c0-12.406 10.093-22.5 22.5-22.5h36.575l-3.157 26.563-21.108 17.261c-2.533 2.071-3.431 5.545-2.219 8.584l2.028 5.084-6.817 6.674c-2.96 2.897-3.01 7.646-.113 10.606 1.469 1.5 3.414 2.253 5.36 2.253 1.893 0 3.787-.712 5.246-2.141l2.345-2.296 4.467 11.201c1.171 2.937 3.989 4.724 6.969 4.724.924 0 1.865-.172 2.776-.535 3.848-1.535 5.723-5.897 4.188-9.745l-10.48-26.276 19.195-15.697c1.503-1.229 2.471-2.992 2.7-4.921l3.725-31.339h327.112c.659 0 1.281.254 1.751.716l12.566 12.334c3.292 3.231 7.646 5.011 12.258 5.011h14.981c.558 0 1.107.189 1.545.534l11.48 9.027c.607.478.956 1.193.956 1.966v28.432c0 8.498 6.073 15.744 14.44 17.23l8.667 1.539c1.195.212 2.063 1.247 2.063 2.461v251.155l-38.39 11.801c-2.26.694-4.06 2.414-4.857 4.64l-3.435 9.586h-11.337c-4.142 0-7.5 3.357-7.5 7.5s3.358 7.5 7.5 7.5h5.964l-2.52 7.033c-1.397 3.899.631 8.193 4.531 9.591.836.3 1.689.441 2.529.441 3.078 0 5.963-1.909 7.061-4.973l10.063-28.084 30.392-9.342v113.402c0 12.406-10.093 22.5-22.5 22.5h-13.329l-16.635-22.095c-2.774-3.692-6.997-6.18-11.607-6.826l-23.313-3.199c-5.936-.811-11.798 1.421-15.673 5.962l-7.931 9.262c-.471.551-1.158.866-1.883.866h-68.48c-6.349 0-12.213 3.45-15.308 9.011l-3.176 5.722c-.445.801-1.287 1.298-2.196 1.298h-257.469c-12.407-.001-22.5-10.095-22.5-22.501v-69.557c0-4.143-3.358-7.5-7.5-7.5s-7.5 3.357-7.5 7.5v69.557c0 20.678 16.822 37.5 37.5 37.5h257.47c6.349 0 12.213-3.45 15.308-9.011l3.176-5.722c.445-.801 1.287-1.298 2.196-1.298h68.48c5.113 0 9.953-2.228 13.277-6.111l7.938-9.271c.552-.646 1.39-.964 2.235-.847l23.288 3.196c.668.093 1.278.449 1.68.983l18.89 25.09c1.417 1.883 3.636 2.989 5.992 2.989h17.07c20.678 0 37.5-16.822 37.5-37.5v-380.248c0-8.498-6.073-15.744-14.44-17.23z"/><path d="m81.89 213.599c-9.494 9.995-9.086 25.851.91 35.345 4.667 4.432 10.78 6.873 17.214 6.873 6.823 0 13.431-2.836 18.129-7.782l44.27-46.608 44.27 46.608c4.698 4.946 11.305 7.782 18.126 7.782s13.429-2.837 18.127-7.783l44.267-46.606 44.265 46.606c4.699 4.946 11.306 7.783 18.127 7.783 6.823 0 13.43-2.837 18.128-7.784l62.388-65.691c4.599-4.842 7.037-11.185 6.864-17.86-.172-6.676-2.934-12.885-7.776-17.483-9.996-9.491-25.851-9.083-35.343.911l-13.344 14.05c-2.853 3.004-2.73 7.751.273 10.604 3.003 2.852 7.75 2.729 10.603-.273l13.344-14.05c3.797-3.999 10.14-4.159 14.138-.364 1.937 1.839 3.042 4.322 3.11 6.993.069 2.67-.906 5.207-2.746 7.144l-62.389 65.692c-1.879 1.979-4.522 3.113-7.251 3.113s-5.372-1.135-7.251-3.113l-49.703-52.332c-1.416-1.491-3.382-2.335-5.438-2.335s-4.022.844-5.438 2.335l-49.705 52.332c-1.879 1.979-4.522 3.113-7.251 3.113s-5.372-1.135-7.25-3.112l-49.708-52.334c-1.416-1.491-3.382-2.335-5.438-2.335s-4.022.844-5.438 2.335l-49.708 52.333c-1.907 2.008-4.483 3.113-7.254 3.113-2.572 0-5.018-.977-6.884-2.749-3.998-3.798-4.162-10.141-.364-14.139l62.396-65.691c1.878-1.978 4.521-3.112 7.25-3.112s5.372 1.135 7.25 3.112l49.708 52.333c1.416 1.491 3.382 2.335 5.438 2.335s4.022-.844 5.438-2.335l49.706-52.333c1.879-1.978 4.521-3.112 7.251-3.112s5.373 1.135 7.251 3.112l49.703 52.332c1.416 1.491 3.382 2.335 5.438 2.335s4.022-.845 5.438-2.335l16.309-17.173c2.852-3.004 2.73-7.751-.274-10.604s-7.75-2.729-10.603.273l-10.871 11.447-44.265-46.606c-4.697-4.945-11.304-7.782-18.127-7.782-6.822 0-13.429 2.836-18.127 7.782l-44.268 46.607-44.27-46.607c-4.697-4.945-11.304-7.782-18.126-7.782s-13.429 2.837-18.126 7.782z"/><path d="m349.595 371.875c6.823 0 13.431-2.837 18.128-7.783l62.388-65.692c9.493-9.995 9.084-25.85-.912-35.345-9.996-9.491-25.851-9.08-35.343.913l-44.261 46.604-44.265-46.605c-4.698-4.946-11.305-7.783-18.127-7.783-6.821 0-13.428 2.837-18.127 7.783l-44.268 46.607-44.27-46.609c-4.698-4.945-11.305-7.781-18.126-7.781s-13.428 2.836-18.126 7.782l-62.396 65.692c-9.494 9.995-9.086 25.85.91 35.346 4.667 4.431 10.781 6.871 17.213 6.871 6.823 0 13.431-2.836 18.129-7.782l44.27-46.608 11.344 11.943c2.853 3.004 7.601 3.126 10.603.273 3.003-2.853 3.125-7.601.273-10.604l-16.782-17.669c-1.416-1.491-3.382-2.335-5.438-2.335s-4.022.844-5.438 2.335l-49.708 52.333c-1.907 2.008-4.483 3.113-7.254 3.113-2.572 0-5.018-.977-6.884-2.748-3.998-3.798-4.162-10.141-.364-14.139l62.396-65.691c1.879-1.979 4.522-3.113 7.251-3.113s5.372 1.135 7.25 3.112l49.708 52.334c1.416 1.491 3.382 2.335 5.438 2.335s4.022-.844 5.438-2.335l49.706-52.333c1.879-1.979 4.522-3.113 7.251-3.113s5.372 1.135 7.251 3.113l49.703 52.331c1.416 1.491 3.382 2.335 5.438 2.335s4.022-.844 5.438-2.335l49.7-52.33c3.797-3.997 10.14-4.162 14.138-.365 3.999 3.797 4.162 10.139.365 14.137l-62.389 65.693c-1.878 1.978-4.521 3.112-7.251 3.112s-5.372-1.135-7.251-3.112l-49.703-52.332c-1.416-1.491-3.382-2.335-5.438-2.335s-4.022.844-5.438 2.335l-49.705 52.332c-1.879 1.978-4.521 3.112-7.251 3.112-2.729 0-5.372-1.135-7.25-3.112l-12.878-13.559c-2.853-3.004-7.601-3.127-10.603-.272-3.003 2.853-3.125 7.6-.273 10.603l12.878 13.559c4.698 4.946 11.305 7.782 18.126 7.782 6.822 0 13.429-2.836 18.127-7.782l44.267-46.606 44.265 46.606c4.698 4.946 11.305 7.782 18.127 7.782z"/><path d="m276.044 403.993-4.718 4.718-14.727-1.18c-4.125-.335-7.744 2.747-8.075 6.876s2.748 7.745 6.877 8.075l18.18 1.457c.2.017.4.024.6.024 1.981 0 3.891-.785 5.303-2.197l7.167-7.168c2.929-2.929 2.928-7.678 0-10.606-2.93-2.928-7.677-2.929-10.607.001z"/><path d="m152.504 96.354c2.052 0 4.097-.838 5.577-2.483l7.602-8.447c2.771-3.078 2.521-7.82-.558-10.592-3.08-2.771-7.822-2.521-10.592.559l-7.602 8.447c-2.771 3.078-2.521 7.82.558 10.592 1.434 1.289 3.227 1.924 5.015 1.924z"/><path d="m362.563 92.129c4.125 0 7.479-3.335 7.499-7.465v-.104c.02-4.142-3.323-7.516-7.465-7.535-.012 0-.024 0-.036 0-4.125 0-7.479 3.335-7.499 7.465v.104c-.02 4.142 3.323 7.516 7.465 7.535z"/><path d="m211.623 105.995v-.104c0-4.143-3.358-7.5-7.5-7.5s-7.5 3.357-7.5 7.5v.104c0 4.143 3.358 7.5 7.5 7.5s7.5-3.357 7.5-7.5z"/><path d="m339.396 79.213c4.125 0 7.479-3.335 7.499-7.465v-.104c.02-4.142-3.323-7.516-7.465-7.535-.012 0-.024 0-.036 0-4.125 0-7.479 3.335-7.499 7.465v.104c-.02 4.142 3.323 7.516 7.465 7.535z"/><path d="m121.252 408.912c-4.125 0-7.479 3.335-7.499 7.465v.104c-.02 4.142 3.323 7.516 7.465 7.535h.036c4.125 0 7.479-3.335 7.499-7.465v-.104c.02-4.142-3.323-7.516-7.465-7.535-.011 0-.023 0-.036 0z"/></g></g></svg>