<svg id="Capa_1" enable-background="new 0 0 512.258 512.258" height="512" viewBox="0 0 512.258 512.258" width="512" xmlns="http://www.w3.org/2000/svg"><g><path d="m283.205 239.232-27.076-39.746-27.076 39.746-47.958 3.576 20.883 43.321-20.883 43.321 47.958 3.576 27.076 39.746 27.076-39.746 47.958-3.576-20.883-43.321 20.883-43.321zm1.812 63.576-18.464 1.376-10.424 15.302-10.424-15.302-18.464-1.376 8.04-16.679-8.04-16.679 18.464-1.376 10.424-15.302 10.424 15.302 18.464 1.376-8.04 16.679z"/><path d="m256.129 151.129c-148.262 0-256.024 134.912-256.129 135 .102.092 109.265 135 256.129 135 148.262 0 256.024-134.912 256.129-135-.103-.092-109.265-135-256.129-135zm-111.121 211.569c-38.338-19.051-75.029-46.705-104.562-76.563 16.646-16.8 54.57-51.661 104.586-76.609-15.064 21.779-23.903 48.177-23.903 76.604 0 28.411 8.83 54.795 23.879 76.568zm111.121 28.431c-57.847 0-105-47.058-105-105 0-57.897 47.103-105 105-105 57.847 0 105 47.058 105 105 0 57.897-47.103 105-105 105zm111.097-28.397c15.064-21.779 23.903-48.177 23.903-76.604 0-28.412-8.83-54.796-23.879-76.569 38.411 19.087 75.091 46.769 104.562 76.563-16.646 16.801-54.57 51.663-104.586 76.61z"/><path d="m5.55 184.586 19.158 23.086c1.043-.865 105.74-86.543 231.421-86.543 84.351 0 179.395 43.504 231.421 86.543l19.158-23.086c-43.636-36.222-145.06-93.457-250.579-93.457-98.081 0-199.903 51.391-250.579 93.457z"/></g></svg>