<svg id="Capa_1" enable-background="new 0 0 512 512" height="512" viewBox="0 0 512 512" width="512" xmlns="http://www.w3.org/2000/svg"><g><g><g><path d="m504.5 94.251v380.249c0 16.569-13.431 30-30 30h-17.07l-18.89-25.09c-1.6-2.13-3.99-3.53-6.63-3.9l-23.31-3.2c-3.37-.46-6.75.82-8.96 3.41l-7.929 9.261c-1.896 2.214-4.665 3.489-7.581 3.489h-68.48c-3.64 0-6.98 1.97-8.75 5.15l-3.18 5.73c-1.77 3.18-5.11 5.15-8.75 5.15h-257.47c-16.569 0-30-13.431-30-30v-255.22c0-2.66 1.06-5.22 2.95-7.09l22.71-22.56c5.14-5.11 3.31-13.82-3.46-16.43l-15.79-6.07c-3.86-1.49-6.41-5.2-6.41-9.34v-120.29c0-16.569 13.431-30 30-30h378.792c2.62 0 5.135 1.028 7.005 2.863l12.566 12.333c1.87 1.835 4.385 2.863 7.005 2.863h14.982c2.242 0 4.419.753 6.181 2.139l11.481 9.028c2.411 1.896 3.819 4.794 3.819 7.861v28.432c0 4.848 3.478 8.998 8.251 9.846l8.667 1.539c4.773.848 8.251 4.998 8.251 9.847z" fill="#ffc5b0"/><path d="m504.5 94.25v380.25c0 16.57-13.43 30-30 30h-17.07l-4.06-5.4c7.76-5.41 12.84-14.41 12.84-24.6v-380.25c0-4.85-3.48-9-8.25-9.85l-8.67-1.53c-4.77-.85-8.25-5-8.25-9.85v-28.43c0-3.07-1.41-5.97-3.82-7.86l-11.48-9.03c-1.76-1.39-3.94-2.14-6.18-2.14h-14.98c-2.62 0-5.14-1.03-7.01-2.86l-12.56-12.34c-1.87-1.83-4.39-2.86-7.01-2.86h38.29c2.62 0 5.14 1.03 7.01 2.86l12.56 12.34c1.87 1.83 4.39 2.86 7.01 2.86h14.98c2.24 0 4.42.75 6.18 2.14l11.48 9.03c2.41 1.89 3.82 4.79 3.82 7.86v28.43c0 4.85 3.48 9 8.25 9.85l8.67 1.53c4.77.85 8.25 5 8.25 9.85z" fill="#fcac8d"/></g><path d="m422.014 447.37c-6.289 0-12.533-1.607-18.06-4.647-56.787-31.239-95.875-86.146-107.124-149.223h-81.661c-11.249 63.076-50.336 117.983-107.124 149.223-5.524 3.04-11.77 4.647-18.059 4.647-13.684 0-26.28-7.444-32.872-19.428-4.828-8.776-5.95-18.908-3.158-28.527 2.792-9.62 9.163-17.577 17.94-22.405 33.528-18.444 57.692-49.874 67.172-86.346-13.601-5.634-23.192-19.049-23.192-34.664s9.591-29.03 23.192-34.664c-9.48-36.472-33.644-67.902-67.172-86.346-8.776-4.828-15.147-12.784-17.939-22.404s-1.67-19.751 3.158-28.527c6.591-11.984 19.187-19.429 32.871-19.429 6.289 0 12.534 1.607 18.06 4.647 56.787 31.239 95.874 86.146 107.123 149.222h81.661c11.249-63.076 50.336-117.983 107.124-149.223 5.525-3.04 11.771-4.647 18.06-4.647 13.684 0 26.28 7.445 32.872 19.43 4.828 8.775 5.949 18.907 3.157 28.526-2.792 9.62-9.163 17.577-17.94 22.405-33.528 18.444-57.692 49.874-67.172 86.346 13.601 5.634 23.192 19.049 23.192 34.664s-9.591 29.03-23.192 34.664c9.48 36.472 33.644 67.902 67.172 86.346 8.776 4.828 15.147 12.784 17.939 22.404s1.67 19.751-3.158 28.527c-6.59 11.984-19.186 19.429-32.87 19.429z" fill="#fcac8d"/><path d="m430.464 394.533c-45.398-24.974-75.34-70.318-80.989-121.033h9.148c9.665 0 17.5-7.835 17.5-17.5s-7.835-17.5-17.5-17.5h-9.148c5.649-50.715 35.591-96.059 80.989-121.033 8.468-4.658 11.557-15.3 6.898-23.768-4.658-8.469-15.3-11.557-23.768-6.898-56.592 31.132-93.513 88.194-99.289 151.699h-116.61c-5.776-63.505-42.698-120.568-99.289-151.699-8.468-4.659-19.11-1.57-23.768 6.898-4.659 8.468-1.57 19.11 6.898 23.768 45.398 24.974 75.34 70.318 80.989 121.033h-9.148c-9.665 0-17.5 7.835-17.5 17.5s7.835 17.5 17.5 17.5h9.148c-5.649 50.715-35.591 96.059-80.989 121.033-8.468 4.658-11.557 15.3-6.898 23.768 3.187 5.793 9.173 9.068 15.349 9.068 2.852 0 5.745-.699 8.419-2.17 56.592-31.132 93.513-88.194 99.289-151.699h116.61c5.776 63.505 42.698 120.568 99.289 151.699 2.675 1.472 5.567 2.17 8.419 2.17 6.175 0 12.162-3.275 15.349-9.068 4.659-8.468 1.571-19.11-6.898-23.768z" fill="#fc7d4b"/><g fill="#fb6a3b"><path d="m436.55 111.9c-4.99-7.46-14.95-9.99-22.96-5.58-55.275 30.406-91.783 85.561-98.827 147.283-.287 2.519-2.424 4.417-4.96 4.417h-107.606c-2.535 0-4.672-1.898-4.96-4.417-7.044-61.722-43.553-116.876-98.827-147.283-8.01-4.41-17.97-1.88-22.96 5.58-3.54-5.26-4.08-12.27-.81-18.2 4.66-8.47 15.3-11.56 23.77-6.9 56.59 31.13 93.51 88.19 99.28 151.7h116.62c5.77-63.51 42.69-120.57 99.28-151.7 8.47-4.66 19.11-1.57 23.77 6.9 3.27 5.93 2.73 12.94-.81 18.2z"/><path d="m376.12 255.973c.005 3.63-1.095 7-2.97 9.797-3.14-4.67-8.47-7.75-14.53-7.75h-3.446c-3.043 0-5.402-2.699-4.956-5.71.69-4.66 1.59-9.268 2.692-13.81h5.247c9.613 0 17.948 7.859 17.963 17.473z"/><path d="m161.782 252.31c.446 3.01-1.913 5.71-4.956 5.71h-3.446c-6.06 0-11.39 3.08-14.53 7.75-1.875-2.797-2.975-6.167-2.97-9.797.015-9.614 8.35-17.473 17.963-17.473h5.247c1.102 4.543 2.002 9.151 2.692 13.81z"/></g></g><g><path d="m504.5 352.371c4.142 0 7.5-3.357 7.5-7.5v-250.621c0-8.498-6.073-15.744-14.44-17.23l-8.667-1.539c-1.195-.212-2.063-1.247-2.063-2.461v-28.432c0-5.402-2.436-10.416-6.683-13.757l-11.48-9.027c-3.07-2.414-6.912-3.743-10.817-3.743h-14.981c-.659 0-1.281-.254-1.751-.716l-12.567-12.334c-3.292-3.232-7.646-5.011-12.259-5.011h-378.792c-20.678 0-37.5 16.822-37.5 37.5v120.29c0 7.185 4.505 13.75 11.219 16.341l15.783 6.067c1.109.428 1.451 1.326 1.555 1.824.104.496.154 1.454-.683 2.286l-22.7 22.551c-3.288 3.255-5.174 7.783-5.174 12.421v255.22c0 20.678 16.822 37.5 37.5 37.5h257.47c6.349 0 12.213-3.45 15.308-9.011l3.176-5.722c.445-.801 1.287-1.298 2.196-1.298h68.48c5.113 0 9.953-2.228 13.277-6.111l7.938-9.271c.552-.646 1.39-.964 2.235-.847l23.288 3.196c.668.093 1.278.449 1.68.983l18.89 25.09c1.417 1.883 3.636 2.989 5.992 2.989h17.07c20.678 0 37.5-16.822 37.5-37.5v-100.527c0-4.143-3.358-7.5-7.5-7.5s-7.5 3.357-7.5 7.5v100.529c0 12.406-10.093 22.5-22.5 22.5h-13.329l-16.635-22.095c-2.774-3.692-6.997-6.18-11.607-6.826l-23.313-3.199c-5.934-.811-11.797 1.421-15.673 5.962l-7.931 9.262c-.471.551-1.158.866-1.883.866h-68.48c-6.349 0-12.213 3.45-15.308 9.011l-3.176 5.722c-.445.801-1.287 1.298-2.196 1.298h-257.469c-12.407-.001-22.5-10.095-22.5-22.501v-111.5l32.961-16.926c2.026-1.041 3.47-2.945 3.924-5.178l2.188-10.765 6.72 4.258c1.246.789 2.635 1.166 4.007 1.166 2.484 0 4.915-1.233 6.342-3.486 2.217-3.499 1.178-8.133-2.32-10.35l-11.551-7.32 2.532-12.454c.381-1.872.032-3.819-.974-5.444l-7.233-11.676 10.712-11.365c.79-.838 1.375-1.846 1.713-2.946l7.958-25.956c1.214-3.96-1.012-8.154-4.972-9.369-3.961-1.216-8.155 1.013-9.369 4.973l-7.445 24.283-6.772 7.185-1.801-2.907c-2.181-3.521-6.803-4.606-10.325-2.426-3.521 2.182-4.607 6.805-2.426 10.326l15.643 25.25-6.607 32.504-22.905 11.761v-126.858c0-.662.265-1.304.736-1.77l22.712-22.563c4.224-4.199 6.013-10.186 4.788-16.013-1.226-5.829-5.277-10.589-10.844-12.736l-15.782-6.066c-.963-.371-1.61-1.313-1.61-2.342v-120.29c0-12.406 10.093-22.5 22.5-22.5h290.95v17l-16.128 14.661c-3.065 2.786-3.291 7.53-.505 10.595 1.48 1.628 3.512 2.455 5.552 2.455 1.8 0 3.606-.645 5.042-1.95l4.812-4.375 6.901 4.928c1.321.943 2.844 1.397 4.353 1.397 2.34 0 4.646-1.093 6.109-3.142 2.408-3.371 1.627-8.055-1.744-10.463l-4.263-3.045 2.415-2.196c1.563-1.422 2.455-3.437 2.455-5.55v-20.315h72.843c.659 0 1.281.254 1.751.716l12.566 12.334c3.292 3.231 7.646 5.011 12.258 5.011h14.981c.558 0 1.107.189 1.545.534l11.48 9.027c.607.478.956 1.193.956 1.966v28.432c0 8.498 6.073 15.744 14.44 17.23l8.667 1.539c1.195.212 2.063 1.247 2.063 2.461v250.621c.001 4.143 3.359 7.5 7.501 7.5z"/><path d="m409.979 431.771c3.685 2.027 7.846 3.099 12.034 3.099 9.125 0 17.525-4.964 21.92-12.953 3.219-5.851 3.966-12.604 2.105-19.018s-6.108-11.718-11.959-14.937c-40.427-22.239-68.371-61.804-75.984-106.962h.529c13.785 0 25-11.215 25-25s-11.215-25-25-25h-.534c3.002-17.909 9.174-34.957 18.395-50.779 2.085-3.579.875-8.171-2.704-10.256-3.578-2.086-8.17-.875-10.256 2.703-11.7 20.077-18.935 41.947-21.503 65.002-.236 2.12.442 4.241 1.865 5.831s3.456 2.499 5.589 2.499h9.148c5.514 0 10 4.486 10 10s-4.486 10-10 10h-9.148c-2.134 0-4.167.909-5.589 2.499s-2.101 3.711-1.865 5.831c5.952 53.437 37.664 100.829 84.828 126.774 2.34 1.287 4.039 3.409 4.784 5.975.744 2.564.445 5.267-.842 7.607-1.759 3.196-5.122 5.183-8.777 5.183-1.691 0-3.307-.418-4.805-1.241-54.165-29.797-89.841-84.304-95.435-145.808-.352-3.862-3.59-6.82-7.469-6.82h-116.61c-3.879 0-7.118 2.958-7.469 6.82-5.594 61.504-41.27 116.011-95.435 145.808-1.497.823-3.113 1.241-4.804 1.241-3.655 0-7.019-1.986-8.777-5.184-1.288-2.34-1.586-5.042-.842-7.606.745-2.565 2.443-4.688 4.784-5.975 47.165-25.945 78.876-73.338 84.828-126.774.236-2.12-.442-4.241-1.865-5.831s-3.456-2.499-5.589-2.499h-9.148c-5.514 0-10-4.486-10-10s4.486-10 10-10h9.148c2.134 0 4.167-.909 5.589-2.499s2.101-3.711 1.865-5.831c-5.952-53.437-37.664-100.829-84.828-126.774-2.34-1.287-4.039-3.409-4.784-5.975-.744-2.564-.445-5.267.842-7.607 1.288-2.34 3.409-4.039 5.975-4.783 2.563-.746 5.267-.444 7.607.842 54.165 29.797 89.841 84.304 95.435 145.808.352 3.862 3.59 6.82 7.469 6.82h25.722c4.142 0 7.5-3.357 7.5-7.5s-3.358-7.5-7.5-7.5h-18.99c-7.982-63.668-45.878-119.674-102.406-150.771-5.85-3.219-12.604-3.967-19.018-2.104-6.414 1.861-11.718 6.108-14.937 11.959s-3.966 12.604-2.105 19.018 6.108 11.718 11.959 14.937c40.427 22.239 68.371 61.804 75.984 106.962h-.529c-13.785 0-25 11.215-25 25s11.215 25 25 25h.529c-7.613 45.158-35.558 84.723-75.984 106.962-5.851 3.219-10.098 8.522-11.959 14.937-1.861 6.413-1.114 13.167 2.105 19.017 4.395 7.99 12.794 12.954 21.92 12.954 4.188 0 8.35-1.071 12.034-3.099 56.528-31.097 94.424-87.103 102.406-150.771h103.146c7.981 63.666 45.878 119.672 102.405 150.769z"/><path d="m245.017 238.5c0 4.143 3.358 7.5 7.5 7.5h61.788c3.879 0 7.118-2.958 7.469-6.82 5.594-61.504 41.27-116.011 95.435-145.808 2.341-1.288 5.042-1.585 7.607-.843 2.565.745 4.687 2.444 5.975 4.785 1.288 2.34 1.586 5.042.842 7.606-.745 2.565-2.443 4.688-4.784 5.975-17.343 9.541-32.694 21.98-45.626 36.975-2.705 3.137-2.355 7.873.781 10.578 3.138 2.705 7.873 2.355 10.578-.781 11.761-13.638 25.723-24.952 41.496-33.629 5.851-3.219 10.098-8.522 11.959-14.937 1.861-6.413 1.114-13.167-2.105-19.017-3.218-5.852-8.523-10.1-14.936-11.961-6.414-1.86-13.167-1.113-19.018 2.105-56.526 31.098-94.423 87.104-102.405 150.772h-55.056c-4.142 0-7.5 3.357-7.5 7.5z"/><path d="m465.601 305.563c-.331-4.128-3.95-7.213-8.075-6.876l-14.727 1.18-4.718-4.718c-2.929-2.93-7.678-2.929-10.607-.001-2.929 2.929-2.929 7.678 0 10.606l7.167 7.168c1.412 1.413 3.322 2.197 5.303 2.197.199 0 .399-.008.6-.024l18.18-1.457c4.129-.329 7.208-3.946 6.877-8.075z"/><path d="m284.421 127.838c2.052 0 4.096-.837 5.577-2.482l7.603-8.446c2.771-3.079 2.522-7.821-.557-10.592-3.078-2.771-7.82-2.521-10.592.557l-7.603 8.446c-2.771 3.079-2.522 7.821.557 10.592 1.434 1.29 3.227 1.925 5.015 1.925z"/><path d="m199.739 420.38h.104c4.142 0 7.5-3.357 7.5-7.5s-3.358-7.5-7.5-7.5h-.104c-4.142 0-7.5 3.357-7.5 7.5s3.358 7.5 7.5 7.5z"/><path d="m221.176 443.819c-4.114 0-7.531 3.287-7.57 7.43-.039 4.142 3.287 7.531 7.429 7.57l.104.001h.072c4.109 0 7.459-3.312 7.498-7.43.039-4.142-3.287-7.531-7.429-7.57z"/><path d="m186.926 428.548h-.104c-4.142 0-7.5 3.357-7.5 7.5s3.358 7.5 7.5 7.5h.104c4.142 0 7.5-3.357 7.5-7.5s-3.358-7.5-7.5-7.5z"/><path d="m238.472 96.351-.104-.001c-.024 0-.048 0-.072 0-4.109 0-7.459 3.312-7.498 7.43-.039 4.142 3.287 7.531 7.429 7.57l.104.001h.072c4.109 0 7.459-3.312 7.498-7.43.039-4.142-3.287-7.531-7.429-7.57z"/></g></g></svg>