<svg id="Capa_1" enable-background="new 0 0 512 512" height="512" viewBox="0 0 512 512" width="512" xmlns="http://www.w3.org/2000/svg"><g><g><g><path d="m422.05 59.075-16.37 8.95-5.55 10.15c-21.611-12.422-18.786-48.339-4.9-58.81.58.51 1.09 1.15 1.5 1.9l8.95 16.37 16.37 8.95c4.94 2.7 4.94 9.79 0 12.49z" fill="#fbf198"/><path d="m400.13 78.175-3.4 6.22c-2.7 4.93-9.79 4.93-12.49 0l-8.95-16.37-16.37-8.95c-4.94-2.7-4.94-9.79 0-12.49l16.37-8.95 8.95-16.37c2.29-4.19 7.74-4.83 10.99-1.9-8.51 17.46-7.77 40.7 4.9 58.81z" fill="#fad989"/></g><path d="m330.21 267.16c-11.99 13.92-35.14 36.53-62.59 41.82-22.62-31.552-26.523-72.978-15.03-107 1.13-.07 2.27-.1 3.41-.1 32.45 0 60.56 27.11 74.21 42.96 5.52 6.41 5.52 15.91 0 22.32z" fill="#f3f5fc"/><path d="m267.62 308.98c-3.8.74-7.68 1.14-11.62 1.14-32.45 0-60.56-27.11-74.21-42.96-5.52-6.41-5.52-15.91 0-22.32 13.17-15.29 39.8-41.06 70.8-42.86-.17 35.61 4.72 71.77 15.03 107z" fill="#d7ddf5"/><path d="m282.9 256c0 13.19-9.48 24.15-22 26.44-14.582-12.692-15.9-36.896-7.46-53.22.84-.08 1.7-.12 2.56-.12 14.86 0 26.9 12.04 26.9 26.9z" fill="#83deff"/><path d="m260.9 282.44c-1.59.31-3.23.46-4.9.46-14.86 0-26.9-12.04-26.9-26.9 0-14 10.68-25.49 24.34-26.78 1.2 17.76 3.67 35.56 7.46 53.22z" fill="#2ecefb"/><path d="m421.93 256 44.92-77.81c7.03-12.18 7.03-26.72 0-38.9-7.03-12.17-19.62-19.44-33.68-19.44h-89.85l-49.12-85.06c-10.839 8.848-18.468 25.708-19.39 42.87l24.36 42.19h-37c-6.79 10.821-7.443 25.798-6.79 38.23h65.87l56.53 97.92-56.53 97.92h-37.22c.66 19.963 32.004 62.875 40.88 70.12l18.41-31.89h89.85c14.06 0 26.65-7.27 33.68-19.44 7.03-12.18 7.03-26.72 0-38.9zm-56.54-97.92h67.78c.24 0 .38 0 .57.33.2.33.12.45 0 .66l-33.89 58.7zm68.35 195.51c-.19.33-.33.33-.57.33h-67.78l34.46-59.69 33.89 58.7c.12.21.19.33 0 .66z" fill="#bd9cde"/><path d="m284.03 353.92h-93.28l-56.53-97.92 56.53-97.92h64.63c1.59-12.93 3.86-25.7 6.79-38.23h-49.34l42.6-73.79c.11-.21.19-.33.57-.33s.45.12.57.33l18.24 31.6c5.49-14.84 11.96-29.17 19.39-42.87l-4.52-7.84c-7.03-12.18-19.62-19.45-33.68-19.45s-26.65 7.27-33.68 19.45l-53.64 92.9h-89.85c-14.06 0-26.65 7.27-33.68 19.44-7.03 12.18-7.03 26.72 0 38.9l44.92 77.81-44.92 77.81c-7.03 12.18-7.03 26.72 0 38.9 7.03 12.17 19.62 19.44 33.68 19.44h89.85l53.64 92.9c7.03 12.18 19.62 19.45 33.68 19.45s26.65-7.27 33.68-19.45l35.23-61.01c-16.56-22.21-30.14-45.76-40.88-70.12zm-205.77-194.85c-.12-.21-.2-.33 0-.66.19-.33.33-.33.57-.33h67.78l-34.46 59.69zm.57 194.85c-.24 0-.38 0-.57-.33-.2-.33-.12-.45 0-.66l33.89-58.7 34.46 59.69zm177.74 112.02c-.12.21-.19.33-.57.33s-.46-.12-.57-.33l-42.6-73.79h86.34z" fill="#b18cd9"/><g><path d="m153.08 465.42-16.37 8.95-5.55 10.15c-21.611-12.422-18.786-48.339-4.9-58.81.58.51 1.09 1.15 1.5 1.9l8.95 16.37 16.37 8.95c4.94 2.7 4.94 9.79 0 12.49z" fill="#fbf198"/><path d="m131.16 484.52-3.4 6.22c-2.7 4.93-9.79 4.93-12.49 0l-8.95-16.37-16.37-8.95c-4.94-2.7-4.94-9.79 0-12.49l16.37-8.95 8.95-16.37c2.29-4.19 7.74-4.83 10.99-1.9-8.51 17.46-7.77 40.7 4.9 58.81z" fill="#fad989"/></g></g><g><g><path d="m256 317.618c-35.354 0-65.229-28.546-79.891-45.562-7.888-9.153-7.888-22.96 0-32.113 14.662-17.016 44.537-45.562 79.891-45.562s65.229 28.546 79.891 45.562c7.888 9.153 7.888 22.96 0 32.113-14.662 17.016-44.538 45.562-79.891 45.562zm0-108.236c-29.371 0-55.542 25.282-68.527 40.353-3.078 3.572-3.078 8.959 0 12.531 12.986 15.07 39.156 40.353 68.527 40.353s55.542-25.282 68.527-40.353c3.078-3.572 3.078-8.959 0-12.531-12.986-15.071-39.156-40.353-68.527-40.353z"/></g><g><path d="m256 290.4c-18.969 0-34.401-15.432-34.401-34.4s15.432-34.4 34.401-34.4 34.401 15.432 34.401 34.4-15.432 34.4-34.401 34.4zm0-53.8c-10.698 0-19.401 8.703-19.401 19.4s8.703 19.4 19.401 19.4 19.401-8.703 19.401-19.4-8.703-19.4-19.401-19.4z"/></g><g><path d="m390.485 95.593c-5.347 0-10.262-2.914-12.828-7.605l-7.896-14.437-14.438-7.896c-4.691-2.565-7.605-7.48-7.605-12.827 0-5.348 2.914-10.263 7.605-12.828l14.437-7.896 7.896-14.437c2.566-4.691 7.481-7.605 12.828-7.605s10.262 2.914 12.828 7.605l7.896 14.437 14.437 7.896c4.691 2.565 7.605 7.481 7.605 12.828 0 5.346-2.914 10.262-7.604 12.827l-14.438 7.896-7.896 14.437c-2.565 4.691-7.48 7.605-12.827 7.605zm-27.355-42.767 15.756 8.618c1.258.688 2.293 1.723 2.981 2.981l8.618 15.756 8.617-15.756c.688-1.259 1.723-2.293 2.981-2.981l15.756-8.617-15.756-8.618c-1.259-.688-2.293-1.723-2.981-2.981l-8.617-15.756-8.618 15.756c-.688 1.259-1.723 2.293-2.981 2.981z"/></g><g><path d="m121.514 501.939c-5.347 0-10.262-2.914-12.828-7.605l-7.896-14.437-14.437-7.896c-4.691-2.565-7.605-7.481-7.605-12.828 0-5.346 2.914-10.262 7.604-12.827l14.438-7.896 7.896-14.437c2.566-4.691 7.481-7.605 12.828-7.605s10.262 2.914 12.828 7.605l7.896 14.437 14.438 7.896c4.691 2.565 7.605 7.48 7.605 12.827 0 5.348-2.914 10.263-7.605 12.828l-14.437 7.896-7.896 14.437c-2.567 4.691-7.482 7.605-12.829 7.605zm-27.354-42.766 15.756 8.618c1.259.688 2.293 1.723 2.981 2.981l8.617 15.756 8.618-15.756c.688-1.259 1.723-2.293 2.981-2.981l15.756-8.617-15.756-8.618c-1.258-.688-2.293-1.723-2.981-2.981l-8.618-15.756-8.617 15.756c-.688 1.259-1.723 2.293-2.981 2.981z"/></g><g><path d="m255.999 512c-16.772 0-31.792-8.672-40.178-23.197l-51.471-89.149h-85.52c-16.772 0-31.792-8.672-40.178-23.197s-8.386-31.868 0-46.393l42.761-74.064-42.761-74.063c-8.386-14.524-8.386-31.868 0-46.394 8.386-14.525 23.406-23.197 40.178-23.197h25.185c4.142 0 7.5 3.357 7.5 7.5s-3.358 7.5-7.5 7.5h-25.185c-11.349 0-21.513 5.868-27.188 15.697-5.674 9.829-5.674 21.565 0 31.394l44.926 77.813c1.34 2.32 1.34 5.18 0 7.5l-44.926 77.813c-5.675 9.828-5.675 21.563 0 31.393s15.838 15.697 27.188 15.697h89.851c2.68 0 5.155 1.43 6.495 3.75l53.636 92.899c5.675 9.83 15.838 15.698 27.187 15.698s21.513-5.868 27.188-15.697l53.636-92.899c1.34-2.32 3.816-3.75 6.495-3.75h34.463c4.142 0 7.5 3.357 7.5 7.5s-3.358 7.5-7.5 7.5h-30.133l-51.471 89.149c-8.385 14.525-23.405 23.197-40.178 23.197zm0-38.23c-2.994 0-5.57-1.486-7.068-4.079l-42.601-73.787c-1.34-2.32-1.34-5.18 0-7.5s3.815-3.75 6.495-3.75h86.348c2.68 0 5.155 1.43 6.495 3.75s1.34 5.18 0 7.5l-42.6 73.784c-1.497 2.594-4.073 4.082-7.069 4.082zm-30.183-74.117 30.184 52.278 30.183-52.278zm207.353 0h-20.387c-4.142 0-7.5-3.357-7.5-7.5s3.358-7.5 7.5-7.5h20.387c11.35 0 21.514-5.868 27.189-15.698 5.674-9.828 5.674-21.563-.001-31.392l-44.926-77.813c-1.34-2.32-1.34-5.18 0-7.5l44.926-77.813c5.674-9.828 5.674-21.564 0-31.393-5.675-9.83-15.839-15.698-27.188-15.698h-89.851c-2.68 0-5.155-1.43-6.495-3.75l-53.636-92.9c-5.675-9.829-15.839-15.696-27.188-15.696s-21.513 5.867-27.188 15.695l-53.636 92.9c-1.34 2.32-3.815 3.75-6.495 3.75h-29.667c-4.142 0-7.5-3.357-7.5-7.5s3.358-7.5 7.5-7.5h25.336l51.471-89.15c8.388-14.524 23.407-23.195 40.179-23.195s31.792 8.671 40.178 23.195l51.471 89.15h85.521c16.773 0 31.793 8.672 40.179 23.198 8.386 14.524 8.386 31.868 0 46.393l-42.761 74.064 42.761 74.063c8.386 14.524 8.387 31.866.001 46.392-8.388 14.526-23.408 23.198-40.18 23.198zm0-38.231h-67.779c-2.68 0-5.155-1.43-6.495-3.75s-1.34-5.18 0-7.5l34.463-59.691c1.34-2.32 3.816-3.75 6.495-3.75 2.68 0 5.155 1.43 6.495 3.75l33.89 58.699c1.496 2.574 1.501 5.551.006 8.15-1.505 2.606-4.082 4.092-7.075 4.092zm-54.788-15h42.946l-21.473-37.191zm-57.135 15h-130.493c-2.68 0-5.155-1.43-6.495-3.75l-56.536-97.922c-1.34-2.32-1.34-5.18 0-7.5l56.536-97.923c1.34-2.32 3.815-3.75 6.495-3.75h130.492c2.68 0 5.155 1.43 6.495 3.75l56.536 97.923c1.34 2.32 1.34 5.18 0 7.5l-56.536 97.922c-1.339 2.32-3.814 3.75-6.494 3.75zm-126.163-15h121.833l52.205-90.422-52.206-90.423h-121.832l-52.205 90.423zm-48.475 15h-67.778c-2.993 0-5.569-1.486-7.067-4.077-1.508-2.601-1.505-5.59.014-8.194l33.873-58.67c1.34-2.32 3.815-3.75 6.495-3.75s5.155 1.43 6.495 3.75l34.463 59.691c1.34 2.32 1.34 5.18 0 7.5s-3.815 3.75-6.495 3.75zm-55.935-15h42.945l-21.473-37.191zm309.181-121.152c-2.68 0-5.155-1.43-6.495-3.75l-34.463-59.692c-1.34-2.32-1.34-5.18 0-7.5s3.815-3.75 6.495-3.75h67.778c2.994 0 5.57 1.486 7.068 4.077 1.504 2.608 1.5 5.588-.008 8.184l-33.88 58.682c-1.34 2.319-3.815 3.749-6.495 3.749zm-21.473-59.693 21.473 37.192 21.473-37.192zm-266.236 59.693c-2.68 0-5.155-1.43-6.495-3.75l-33.878-58.679c-1.512-2.599-1.515-5.582-.009-8.187 1.498-2.591 4.074-4.077 7.067-4.077h67.778c2.68 0 5.155 1.43 6.495 3.75s1.34 5.18 0 7.5l-34.463 59.693c-1.339 2.32-3.815 3.75-6.495 3.75zm-21.472-59.693 21.473 37.192 21.473-37.192zm208.5-38.231h-86.347c-2.68 0-5.155-1.43-6.495-3.75s-1.34-5.18 0-7.5l42.599-73.784c1.509-2.6 4.083-4.081 7.069-4.081 2.993 0 5.568 1.486 7.066 4.077l42.603 73.788c1.34 2.32 1.34 5.18 0 7.5s-3.815 3.75-6.495 3.75zm-73.357-15h60.366l-30.183-52.278z"/></g></g></g></svg>