<svg id="Capa_1" enable-background="new 0 0 512 512" height="512" viewBox="0 0 512 512" width="512" xmlns="http://www.w3.org/2000/svg"><g><g><path d="m417.04 340.869h-207.77c-36.883-44.603-27.461-117.018 14.56-169.91 35.47-23.67 54.86-87.55-3.79-155.88-2.47-2.88.06-7.26 3.78-6.54 174.23 33.82 240.9 212.22 193.22 332.33z" fill="#fbf198"/><path d="m209.27 340.869h-115.17c-25.11-67.88-11.07-153.67 49.87-218.07 2.58-2.72 7.16-.67 6.88 3.07-3.84 50.17 38.31 60.17 61.47 51.12 3.96-1.55 7.83-3.58 11.51-6.03-24 50.35-30.01 111.75-14.56 169.91z" fill="#fad989"/><path d="m364.2 340.869h-154.93c-19.924-26.836-22.346-65.87-6.32-98.62 47.1-29.86 108.23-45.97 120.58-111.79.66-3.47 5.13-4.49 7.19-1.62 56.69 78.84 48.65 164.93 33.48 212.03z" fill="#ff938a"/><path d="m209.27 340.869h-63.2c-.27-52.1 25.11-78.48 56.88-98.62-4.27 32.21-2.37 65.92 6.32 98.62z" fill="#fd7a6e"/><path d="m409.37 443.399v35.87c0 13.41-10.86 24.27-24.27 24.27-13.4 0-24.26-10.86-24.26-24.27v-10.05c14.457-17.355 32.291-28.123 48.53-25.82z" fill="#eaaa83"/><path d="m151.16 469.149v10.12c0 13.41-10.86 24.27-24.26 24.27-13.41 0-24.27-10.86-24.27-24.27v-35.9c12.697-1.922 35.299 4.996 48.53 25.78z" fill="#eaaa83"/><path d="m409.37 387.059v56.34c-15.28 10.2-31.54 18.85-48.53 25.82v-82.16z" fill="#e4996d"/><path d="m151.16 387.059v82.09c-16.97-6.97-33.25-15.62-48.53-25.78v-56.31z" fill="#e4996d"/><path d="m454.38 359.739c-40.44 54.68-102.94 92.06-174.37 98.96-54.86-21.91-79.626-79.94-73.21-127.95h233.01c14.92 0 23.44 16.99 14.57 28.99z" fill="#6a829a"/><path d="m280.01 458.699c-7.9.77-15.91 1.16-24.01 1.16-81.34 0-153.47-39.39-198.38-100.12-8.87-12-.35-28.99 14.57-28.99h134.61c10.33 46.58 34.15 91.64 73.21 127.95z" fill="#5b778f"/><g fill="#ffa1ac"><ellipse cx="176.443" cy="397.869" rx="29.355" ry="23.377"/><ellipse cx="335.557" cy="397.869" rx="29.355" ry="23.377"/></g></g><g><path d="m462.699 338.306c-4.383-8.691-13.155-14.091-22.892-14.091h-8.931c11.016-39.125 11.443-83.43 1.055-125.969-11.798-48.313-36.368-91.887-71.052-126.009-2.953-2.904-7.701-2.865-10.606.087-2.905 2.953-2.866 7.701.087 10.606 63.265 62.239 89.514 160.682 64.889 241.285h-38.527c9.11-40.94 16.896-126.172-45.885-206.78-1.876-2.409-5.026-3.439-7.962-2.607-2.938.832-5.077 3.362-5.41 6.397-5.971 54.375-44.725 75.114-85.756 97.07-15.054 8.057-30.621 16.387-44.385 26.467-3.342 2.447-4.066 7.141-1.619 10.482 2.447 3.342 7.14 4.066 10.482 1.619 12.911-9.455 28.003-17.532 42.599-25.343 38.312-20.502 77.795-41.629 90.386-90.821 49.409 73.642 40.459 148.705 32.156 183.515h-206.73c2.229-17.268 8.085-31.941 17.805-44.66 2.515-3.291 1.886-7.997-1.405-10.513-3.291-2.514-7.998-1.886-10.513 1.405-11.739 15.36-18.626 33.013-20.987 53.767h-43.168c-17.698-64.632-.013-134.738 46.794-188.37.685 21.175 9.627 33.629 18.152 40.73 16.492 13.74 39.436 13.964 53.773 8.359 23.225-9.08 41.452-31.795 47.57-59.28 4.591-20.626 5.862-60.185-30.511-106.731 34.286 7.925 65.3 22.004 92.43 41.988 3.335 2.458 8.029 1.745 10.487-1.59 2.457-3.335 1.745-8.03-1.59-10.486-34.52-25.429-74.887-41.83-119.979-48.748-3.173-.489-6.3 1.098-7.785 3.94-1.485 2.843-.999 6.315 1.211 8.64 46.191 48.591 45.574 89.604 41.095 109.728-5.047 22.673-19.757 41.283-38.39 48.568-10.692 4.181-27.422 3.492-38.71-5.913-11.516-9.594-15.347-26.322-11.079-48.378.621-3.207-.906-6.447-3.774-8.01s-6.419-1.092-8.777 1.169c-31.844 30.508-54.388 68.222-65.197 109.071-9.329 35.257-9.722 71.449-1.23 105.315h-8.627c-9.737 0-18.509 5.399-22.892 14.091-4.393 8.711-3.516 19 2.289 26.851 12.532 16.95 27.23 32.313 43.539 45.68v69.396c0 17.517 14.251 31.768 31.768 31.768s31.768-14.251 31.768-31.768v-31.254c30.677 12.692 63.939 19.34 97.336 19.34s66.659-6.649 97.336-19.34v31.254c0 17.517 14.251 31.768 31.768 31.768s31.768-14.251 31.768-31.768v-69.396c16.31-13.367 31.007-28.73 43.539-45.68 5.803-7.851 6.68-18.14 2.287-26.851zm-319.035 141.926c0 9.246-7.522 16.768-16.768 16.768s-16.768-7.521-16.768-16.768v-57.99c10.662 7.5 21.857 14.2 33.535 19.947v38.043zm258.207 0c0 9.246-7.522 16.768-16.768 16.768s-16.768-7.521-16.768-16.768v-38.043c11.678-5.746 22.873-12.446 33.535-19.947v57.99zm46.478-123.993c-44.946 60.788-116.852 97.08-192.349 97.08s-147.403-36.292-192.349-97.08c-2.455-3.32-2.812-7.499-.957-11.179 1.846-3.66 5.396-5.845 9.499-5.845h367.615c4.102 0 7.653 2.185 9.499 5.845 1.854 3.68 1.497 7.858-.958 11.179z"/><path d="m193.551 356.826c-4.142 0-7.5 3.357-7.5 7.5v12c0 4.143 3.358 7.5 7.5 7.5s7.5-3.357 7.5-7.5v-12c0-4.142-3.358-7.5-7.5-7.5z"/><path d="m318.449 356.826c-4.142 0-7.5 3.357-7.5 7.5v12c0 4.143 3.358 7.5 7.5 7.5s7.5-3.357 7.5-7.5v-12c0-4.142-3.358-7.5-7.5-7.5z"/><path d="m277.392 370.315c-3.124-2.721-7.86-2.396-10.582.727-2.729 3.133-6.669 4.929-10.81 4.929s-8.081-1.796-10.81-4.929c-2.721-3.122-7.459-3.447-10.582-.727-3.123 2.722-3.448 7.459-.727 10.582 5.579 6.401 13.641 10.073 22.119 10.073s16.54-3.672 22.119-10.073c2.721-3.123 2.396-7.861-.727-10.582z"/></g></g></svg>