<svg id="Capa_1" enable-background="new 0 0 512 512" height="512" viewBox="0 0 512 512" width="512" xmlns="http://www.w3.org/2000/svg"><g><path d="m121 211v301h270v-301c0-27.907-19.15-51.424-45-58.102v-62.898h30v-30h-60.855l22.5-60h-163.29l22.5 60h-60.855v30h30v62.898c-25.85 6.678-45 30.195-45 58.102zm240 271h-210v-211h210zm-66.645-452-11.25 30h-54.21l-11.25-30zm-22.5 60-11.25 30h-9.21l-11.25-30zm-90.855 91h15v-91h12.105l22.5 60h50.79l22.5-60h12.105v91h15c16.542 0 30 13.458 30 30v30h-210v-30c0-16.542 13.458-30 30-30z"/><path d="m301 331h30v30h-30z"/><path d="m211 421h30v30h-30z"/><path d="m226 391c24.813 0 45-20.187 45-45s-20.187-45-45-45-45 20.187-45 45 20.187 45 45 45zm0-60c8.271 0 15 6.729 15 15s-6.729 15-15 15-15-6.729-15-15 6.729-15 15-15z"/><path d="m0 301h61v30h-61z"/><path d="m451 301h61v30h-61z"/><path d="m34.353 163.103h30v72.5h-30z" transform="matrix(.707 -.707 .707 .707 -126.509 93.288)"/><path d="m13.104 417.647h72.5v30h-72.5z" transform="matrix(.707 -.707 .707 .707 -291.472 161.617)"/><path d="m426.397 184.353h72.5v30h-72.5z" transform="matrix(.707 -.707 .707 .707 -5.458 385.53)"/><path d="m447.647 396.397h30v72.5h-30z" transform="matrix(.707 -.707 .707 .707 -170.421 453.86)"/></g></svg>