<svg id="Capa_1" enable-background="new 0 0 512 512" height="512" viewBox="0 0 512 512" width="512" xmlns="http://www.w3.org/2000/svg"><g><g><g><path d="m504.5 94.251v380.249c0 16.569-13.431 30-30 30h-17.07l-18.89-25.09c-1.6-2.13-3.99-3.53-6.63-3.9l-23.31-3.2c-3.37-.46-6.75.82-8.96 3.41l-7.929 9.261c-1.896 2.214-4.665 3.489-7.581 3.489h-68.48c-3.64 0-6.98 1.97-8.75 5.15l-3.18 5.73c-1.77 3.18-5.11 5.15-8.75 5.15h-257.47c-16.569 0-30-13.431-30-30v-255.22c0-2.66 1.06-5.22 2.95-7.09l22.71-22.56c5.14-5.11 3.31-13.82-3.46-16.43l-15.79-6.07c-3.86-1.49-6.41-5.2-6.41-9.34v-120.29c0-16.569 13.431-30 30-30h378.792c2.62 0 5.135 1.028 7.005 2.863l12.566 12.333c1.87 1.835 4.385 2.863 7.005 2.863h14.982c2.242 0 4.419.753 6.181 2.139l11.481 9.028c2.411 1.896 3.819 4.794 3.819 7.861v28.432c0 4.848 3.478 8.998 8.251 9.846l8.667 1.539c4.773.848 8.251 4.998 8.251 9.847z" fill="#9ad4ba"/><path d="m504.5 94.25v380.25c0 16.57-13.43 30-30 30h-17.07l-4.06-5.4c7.76-5.41 12.84-14.41 12.84-24.6v-380.25c0-4.85-3.48-9-8.25-9.85l-8.67-1.53c-4.77-.85-8.25-5-8.25-9.85v-28.43c0-3.07-1.41-5.97-3.82-7.86l-11.48-9.03c-1.76-1.39-3.94-2.14-6.18-2.14h-14.98c-2.62 0-5.14-1.03-7.01-2.86l-12.56-12.34c-1.87-1.83-4.39-2.86-7.01-2.86h38.29c2.62 0 5.14 1.03 7.01 2.86l12.56 12.34c1.87 1.83 4.39 2.86 7.01 2.86h14.98c2.24 0 4.42.75 6.18 2.14l11.48 9.03c2.41 1.89 3.82 4.79 3.82 7.86v28.43c0 4.85 3.48 9 8.25 9.85l8.67 1.53c4.77.85 8.25 5 8.25 9.85z" fill="#5bbd93"/></g><path d="m89.598 437.609c-13.355 0-25.799-7.185-32.476-18.75-6.678-11.564-6.678-25.935.001-37.5l166.401-288.218c6.677-11.565 19.121-18.75 32.476-18.75s25.799 7.185 32.476 18.75l166.402 288.217c6.678 11.565 6.678 25.935 0 37.5-6.677 11.565-19.121 18.75-32.476 18.75h-332.804zm267.853-75-18.25-31.609-18.249 31.609zm-166.403 0-18.249-31.609-18.249 31.609zm64.952-37.5 18.25-31.609h-36.499zm18.25-106.609-18.25-31.609-18.249 31.609z" fill="#5bbd93"/><path d="m437.558 391.359-166.403-288.218c-3.126-5.415-8.903-8.75-15.155-8.75s-12.029 3.335-15.155 8.75l-166.403 288.218c-3.126 5.415-3.126 12.085 0 17.5s8.903 8.75 15.155 8.75h332.805c6.252 0 12.029-3.335 15.155-8.75s3.127-12.086.001-17.5zm-181.558-26.25-52.89-91.609h105.781l-26.445 45.804zm0-218.218 52.891 91.609h-105.781zm-136.091 235.718 52.89-91.609 52.89 91.609zm166.402 0 26.445-45.804 26.445-45.805 52.891 91.609z" fill="#1ca56f"/><path d="m437.56 408.86c-3.13 5.41-8.91 8.75-15.16 8.75h-19.85c5.51 0 10.59-2.94 13.35-7.71 2.75-4.77 2.75-10.64 0-15.41l-146.55-253.83c-2.76-4.77-7.84-7.71-13.35-7.71s-10.59 2.94-13.35 7.71l-146.55 253.83c-2.75 4.77-2.75 10.64 0 15.41 2.76 4.77 7.84 7.71 13.35 7.71h-19.85c-6.25 0-12.03-3.34-15.16-8.75-3.12-5.42-3.12-12.09 0-17.5l166.4-288.22c3.13-5.41 8.91-8.75 15.16-8.75s12.03 3.34 15.16 8.75l166.4 288.22c3.12 5.41 3.12 12.08 0 17.5z" fill="#158f5e"/></g><g><path d="m7.5 297.467c4.142 0 7.5-3.357 7.5-7.5v-70.687c0-.662.265-1.304.736-1.77l22.712-22.563c4.224-4.199 6.013-10.186 4.788-16.013-1.226-5.829-5.277-10.589-10.844-12.736l-15.782-6.066c-.963-.371-1.61-1.313-1.61-2.342v-52.427c0-4.143-3.358-7.5-7.5-7.5s-7.5 3.357-7.5 7.5v52.427c0 7.185 4.505 13.75 11.219 16.341l15.783 6.067c1.109.428 1.451 1.326 1.555 1.824.104.496.154 1.454-.683 2.286l-22.7 22.551c-3.288 3.255-5.174 7.783-5.174 12.421v70.687c0 4.142 3.358 7.5 7.5 7.5z"/><path d="m497.56 77.02-8.666-1.539c-1.196-.212-2.063-1.247-2.063-2.461v-28.432c0-5.401-2.435-10.415-6.683-13.757l-11.482-9.028c-3.069-2.413-6.91-3.742-10.815-3.742h-14.982c-.658 0-1.28-.254-1.75-.716l-12.568-12.333c-3.292-3.233-7.646-5.012-12.259-5.012h-378.792c-20.678 0-37.5 16.822-37.5 37.5v38.763c0 4.143 3.358 7.5 7.5 7.5s7.5-3.357 7.5-7.5v-38.763c0-12.406 10.093-22.5 22.5-22.5h303.569l8.997 50.935c.479 2.711 2.405 4.942 5.018 5.812l8.063 2.684-8.399 16.569c-.779 1.537-1.006 3.297-.64 4.981l5.631 25.947c.762 3.512 3.869 5.911 7.322 5.911.526 0 1.062-.057 1.598-.173 4.048-.878 6.617-4.872 5.738-8.92l-5.065-23.343 8.203-16.186 6.875 2.288c.786.262 1.584.386 2.369.386 3.142 0 6.068-1.989 7.115-5.134 1.308-3.93-.817-8.177-4.748-9.484l-25.087-8.35-7.758-43.923h59.991c.659 0 1.281.254 1.751.716l12.566 12.333c3.292 3.232 7.645 5.012 12.258 5.012h14.982c.558 0 1.106.19 1.545.534l11.479 9.026c.607.478.956 1.194.956 1.967v28.432c0 8.498 6.073 15.745 14.44 17.23l8.666 1.539c1.196.212 2.063 1.247 2.063 2.461v380.25c0 12.406-10.094 22.5-22.5 22.5h-13.329l-16.635-22.096c-2.775-3.692-6.997-6.179-11.606-6.825l-23.313-3.199c-5.938-.814-11.798 1.421-15.674 5.962l-7.929 9.261c-.472.551-1.158.867-1.884.867h-68.478c-6.35 0-12.214 3.45-15.308 9.01l-3.177 5.724c-.445.8-1.287 1.297-2.196 1.297h-174.647l10.988-14.636c1.855-2.471 2.005-5.825.379-8.451l-5.292-8.546 8.314-1.507c1.623-.294 3.104-1.115 4.213-2.336l13.515-14.872c2.786-3.065 2.559-7.809-.507-10.595-3.065-2.785-7.81-2.56-10.595.507l-11.804 12.99-11.624 2.106-2.656-4.289c-2.181-3.522-6.805-4.607-10.325-2.429-3.522 2.181-4.609 6.804-2.428 10.325l13.738 22.187-14.672 19.545h-64.066c-12.407 0-22.5-10.094-22.5-22.5v-155.433c0-4.143-3.358-7.5-7.5-7.5s-7.5 3.357-7.5 7.5v155.433c0 20.678 16.822 37.5 37.5 37.5h257.47c6.35 0 12.214-3.45 15.308-9.01l3.177-5.724c.445-.8 1.287-1.297 2.196-1.297h68.479c5.112 0 9.952-2.228 13.278-6.111l7.937-9.271c.552-.646 1.39-.964 2.235-.847l23.289 3.196c.667.093 1.278.45 1.679.983l18.891 25.09c1.416 1.883 3.636 2.989 5.991 2.989h17.07c20.678 0 37.5-16.822 37.5-37.5v-380.248c0-8.498-6.073-15.744-14.44-17.23z"/><path d="m203.11 246h37.348c4.142 0 7.5-3.357 7.5-7.5s-3.358-7.5-7.5-7.5h-24.358l39.9-69.109 39.9 69.109h-26.342c-4.143 0-7.5 3.357-7.5 7.5s3.357 7.5 7.5 7.5h39.332c2.68 0 5.155-1.43 6.495-3.75s1.34-5.18 0-7.5l-52.891-91.609c-1.34-2.32-3.815-3.75-6.495-3.75s-5.155 1.43-6.495 3.75l-52.89 91.609c-1.34 2.32-1.34 5.18 0 7.5s3.816 3.75 6.496 3.75z"/><path d="m249.505 368.859c1.34 2.32 3.815 3.75 6.495 3.75s5.155-1.43 6.495-3.75l52.891-91.609c1.34-2.32 1.34-5.18 0-7.5s-3.815-3.75-6.495-3.75h-105.781c-2.68 0-5.155 1.43-6.495 3.75s-1.34 5.18 0 7.5zm46.395-87.859-39.9 69.109-39.9-69.109z"/><path d="m67.947 412.609c4.452 7.71 12.748 12.5 21.65 12.5h332.805c8.902 0 17.198-4.79 21.65-12.5 4.451-7.711 4.451-17.29 0-25l-166.402-288.218c-4.452-7.71-12.748-12.5-21.65-12.5-8.903 0-17.199 4.79-21.65 12.5l-166.402 288.217c-4.453 7.71-4.453 17.29-.001 25.001zm12.99-17.5 166.403-288.218c1.781-3.084 5.099-5 8.66-5s6.88 1.916 8.66 5l166.402 288.219c1.78 3.084 1.78 6.916 0 10-1.781 3.084-5.099 5-8.66 5h-332.804c-3.561 0-6.879-1.916-8.66-5-1.781-3.085-1.781-6.917-.001-10.001z"/><path d="m279.815 386.359c1.34 2.32 3.815 3.75 6.495 3.75h105.781c2.68 0 5.155-1.43 6.495-3.75s1.34-5.18 0-7.5l-52.891-91.609c-1.34-2.32-3.815-3.75-6.495-3.75s-5.155 1.43-6.495 3.75l-52.891 91.609c-1.338 2.321-1.338 5.18.001 7.5zm59.386-80.359 39.9 69.109h-79.801z"/><path d="m119.909 390.109h105.78c2.68 0 5.155-1.43 6.495-3.75s1.34-5.18 0-7.5l-52.89-91.609c-1.34-2.32-3.815-3.75-6.495-3.75s-5.155 1.43-6.495 3.75l-52.89 91.609c-1.34 2.32-1.34 5.18 0 7.5s3.815 3.75 6.495 3.75zm52.89-84.109 39.9 69.109h-79.8z"/><path d="m442.354 150.881c-2.834-3.02-7.58-3.172-10.602-.338l-7.393 6.936c-1.603 1.504-2.465 3.635-2.359 5.83l.877 18.217c.193 4.015 3.509 7.14 7.485 7.14.121 0 .244-.003.366-.009 4.138-.199 7.33-3.715 7.131-7.852l-.71-14.757 4.866-4.565c3.021-2.835 3.173-7.581.339-10.602z"/><path d="m181.618 80.723c-3.078-2.771-7.821-2.522-10.592.557l-7.603 8.446c-2.771 3.079-2.522 7.821.557 10.592 1.434 1.291 3.227 1.926 5.015 1.926 2.052 0 4.096-.837 5.577-2.482l7.603-8.446c2.771-3.081 2.521-7.823-.557-10.593z"/><path d="m174.249 123.464c-.024 0-.048 0-.072 0-4.109 0-7.459 3.312-7.498 7.43-.039 4.142 3.287 7.531 7.429 7.57l.104.001h.072c4.109 0 7.459-3.312 7.498-7.43.039-4.142-3.287-7.531-7.429-7.57z"/><path d="m116.024 55.488h.072c4.109 0 7.459-3.312 7.498-7.43.039-4.142-3.287-7.531-7.429-7.57l-.104-.001c-.024 0-.048 0-.072 0-4.109 0-7.459 3.312-7.498 7.43-.039 4.142 3.287 7.531 7.429 7.57z"/><path d="m456.146 311.536c4.143 0 7.5-3.357 7.5-7.5s-3.357-7.5-7.5-7.5h-.104c-4.143 0-7.5 3.357-7.5 7.5s3.357 7.5 7.5 7.5z"/></g></g></svg>