<svg id="Capa_1" enable-background="new 0 0 512 512" height="512" viewBox="0 0 512 512" width="512" xmlns="http://www.w3.org/2000/svg"><g><path d="m241 302h30v30h-30z"/><path d="m241 422h30v30h-30z"/><path d="m61 0v15c0 95.542 67.907 174.075 154.365 192.682-2.795 5.857-4.365 12.407-4.365 19.318v22.722c-52.38 18.574-90 68.611-90 127.278 0 74.439 60.561 135 135 135s135-60.561 135-135c0-58.667-37.62-108.704-90-127.278v-22.722c0-6.911-1.57-13.461-4.365-19.318 86.412-18.596 154.365-97.098 154.365-192.682v-15h-30v15c0 92.084-74.019 167-165 167s-165-74.916-165-167v-15zm195 482c-57.897 0-105-47.103-105-105 0-29.301 12.069-55.832 31.491-74.897-.975 4.816-1.491 9.797-1.491 14.897 0 41.355 33.645 75 75 75 24.813 0 45 20.187 45 45s-20.187 45-45 45zm-15-255c0-8.271 6.729-15 15-15s15 6.729 15 15v15.838c-4.927-.547-9.93-.838-15-.838s-10.073.291-15 .838zm15 45c57.897 0 105 47.103 105 105 0 29.301-12.069 55.832-31.491 74.897.975-4.816 1.491-9.797 1.491-14.897 0-41.355-33.645-75-75-75-24.813 0-45-20.187-45-45s20.187-45 45-45z"/></g></svg>