<svg id="Capa_1" enable-background="new 0 0 512 512" height="512" viewBox="0 0 512 512" width="512" xmlns="http://www.w3.org/2000/svg"><g><g><path d="m441.78 127.66v339.43h-90.99c-123.195-90.477-150.035-249.486-98.92-358.61l4.13-.44z" fill="#eaaa83"/><path d="m350.79 467.09h-280.57v-339.43l181.65-19.18c-30.82 118.19-3.06 259.07 98.92 358.61z" fill="#e4996d"/><path d="m379.95 156.09v121.42c0 15.7-12.73 28.43-28.43 28.43h-49.09l-46.43-22.65-6.48 3.16c-28.337-56.037-32.3-128.255 2.02-176.68l8.8-1.73 91.18 19.62c15.7 0 28.43 12.73 28.43 28.43z" fill="#83deff"/><path d="m249.52 286.45-39.95 19.49h-49.09c-15.7 0-28.43-12.73-28.43-28.43v-121.42c0-15.7 12.73-28.43 28.43-28.43l91.06-17.89c-14.42 56.12-15.64 117.29-2.02 176.68z" fill="#2ecefb"/><path d="m327.08 370.66c0 11.4-9.24 20.64-20.64 20.64h-15.22c-16-9.403-26.441-27.898-20.95-41.29h36.17c11.4 0 20.64 9.25 20.64 20.65z" fill="#fbf198"/><path d="m291.22 391.3h-85.66c-11.4 0-20.64-9.24-20.64-20.64s9.24-20.65 20.64-20.65h64.71c6.04 14.05 13.02 27.85 20.95 41.29z" fill="#fad989"/><path d="m302.43 305.88v.06h-47.88c-24.119-28.408-31.605-94.462-13-138.38 4.61-1.25 9.45-1.91 14.45-1.91 30.57 0 55.36 24.78 55.36 55.36 0 20.38-11.03 38.18-27.43 47.78 11.24 8.48 18.5 21.94 18.5 37.09z" fill="#6a829a"/><path d="m228.07 268.79c-16.4-9.6-27.43-27.4-27.43-47.78 0-25.58 17.34-47.1 40.91-53.45-4.18 45.52-.11 92.71 13 138.38h-44.98v-.06c0-15.15 7.26-28.61 18.5-37.09z" fill="#5b778f"/><path d="m485.34 472.94c0 17.43-14.14 31.56-31.57 31.56h-58.26c-44.72-16.036-64.237-36.733-68.69-63.13h126.95c17.43 0 31.57 14.13 31.57 31.57z" fill="#bd9cde"/><path d="m395.51 504.5h-337.28c-17.43 0-31.57-14.13-31.57-31.56 0-17.44 14.14-31.57 31.57-31.57h268.59c19.42 22.95 42.27 44.21 68.69 63.13z" fill="#b18cd9"/><path d="m441.78 44.91v82.75h-194.36c-7.44-29.794 4.12-66.344 27.8-82.75z" fill="#fbf198"/><path d="m275.22 44.91c-12.56 25.87-21.9 53.75-27.8 82.75h-177.2v-82.75z" fill="#fad989"/><path d="m485.34 39.06c0 17.44-14.14 31.57-31.57 31.57h-189.72c-3.675-25.167 6.22-50.708 32.57-63.13h157.15c17.43 0 31.57 14.13 31.57 31.56z" fill="#bd9cde"/><path d="m296.62 7.5c-13.04 19.53-23.93 40.74-32.57 63.13h-205.82c-17.43 0-31.57-14.13-31.57-31.57 0-17.43 14.14-31.56 31.57-31.56z" fill="#b18cd9"/></g><g><path d="m205.556 342.515c-15.517 0-28.141 12.624-28.141 28.141 0 15.518 12.624 28.142 28.141 28.142h100.887c15.517 0 28.141-12.624 28.141-28.142 0-15.517-12.624-28.141-28.141-28.141zm114.028 28.14c0 7.246-5.895 13.142-13.141 13.142h-100.887c-7.246 0-13.141-5.896-13.141-13.142s5.895-13.141 13.141-13.141h100.887c7.246.001 13.141 5.895 13.141 13.141z"/><path d="m453.772 433.872h-4.491v-40.046c0-4.143-3.357-7.5-7.5-7.5s-7.5 3.357-7.5 7.5v40.046h-356.562v-298.711h53.582c-4.244 5.899-6.753 13.125-6.753 20.931v18.287c0 4.143 3.358 7.5 7.5 7.5s7.5-3.357 7.5-7.5v-18.287c0-11.541 9.39-20.931 20.931-20.931h191.044c11.541 0 20.931 9.39 20.931 20.931v121.417c0 11.541-9.39 20.931-20.931 20.931h-42.098c-1.48-10.843-6.177-20.844-13.537-28.878 14.362-11.841 22.969-29.683 22.969-48.556 0-34.66-28.197-62.857-62.856-62.857-34.66 0-62.857 28.197-62.857 62.857 0 18.873 8.607 36.715 22.97 48.556-7.36 8.033-12.057 18.035-13.537 28.878h-42.098c-11.541 0-20.931-9.39-20.931-20.931v-68.13c0-4.143-3.358-7.5-7.5-7.5s-7.5 3.357-7.5 7.5v68.13c0 19.812 16.119 35.931 35.931 35.931h191.044c19.812 0 35.931-16.118 35.931-35.931v-121.417c0-7.806-2.51-15.032-6.753-20.931h53.582v223.665c0 4.143 3.357 7.5 7.5 7.5s7.5-3.357 7.5-7.5v-280.698h4.491c21.54 0 39.064-17.523 39.064-39.063s-17.526-39.065-39.066-39.065h-395.545c-21.54 0-39.064 17.524-39.064 39.064s17.524 39.063 39.064 39.063h4.492v355.744h-4.492c-21.54 0-39.064 17.523-39.064 39.063s17.524 39.066 39.064 39.066h395.545c21.54 0 39.064-17.524 39.064-39.064s-17.524-39.064-39.064-39.064zm-221.911-171.55c-14.63-8.569-23.718-24.401-23.718-41.316 0-26.389 21.469-47.857 47.857-47.857s47.856 21.469 47.856 47.857c0 16.915-9.088 32.747-23.717 41.316-2.163 1.268-3.551 3.532-3.696 6.036-.146 2.503.969 4.913 2.971 6.423 7.836 5.91 13.003 14.285 14.8 23.658h-76.428c1.798-9.374 6.965-17.748 14.8-23.657 2.002-1.511 3.117-3.921 2.971-6.424-.146-2.504-1.533-4.768-3.696-6.036zm-197.698-223.258c0-13.269 10.795-24.064 24.064-24.064h395.545c13.27 0 24.064 10.795 24.064 24.064s-10.795 24.063-24.064 24.063h-395.545c-13.269.001-24.064-10.794-24.064-24.063zm400.118 39.064v42.033h-356.562v-42.033zm19.491 418.872h-395.545c-13.269 0-24.064-10.795-24.064-24.064s10.795-24.063 24.064-24.063h395.545c13.27 0 24.064 10.795 24.064 24.063.001 13.269-10.794 24.064-24.064 24.064z"/></g></g></svg>