<svg id="Capa_1" enable-background="new 0 0 512 512" height="512" viewBox="0 0 512 512" width="512" xmlns="http://www.w3.org/2000/svg"><g><g><g><path d="m504.5 94.251v380.249c0 16.569-13.431 30-30 30h-17.07l-18.89-25.09c-1.6-2.13-3.99-3.53-6.63-3.9l-23.31-3.2c-3.37-.46-6.75.82-8.96 3.41l-7.929 9.261c-1.896 2.214-4.665 3.489-7.581 3.489h-68.48c-3.64 0-6.98 1.97-8.75 5.15l-3.18 5.73c-1.77 3.18-5.11 5.15-8.75 5.15h-257.47c-16.569 0-30-13.431-30-30v-255.22c0-2.66 1.06-5.22 2.95-7.09l22.71-22.56c5.14-5.11 3.31-13.82-3.46-16.43l-15.79-6.07c-3.86-1.49-6.41-5.2-6.41-9.34v-120.29c0-16.569 13.431-30 30-30h378.792c2.62 0 5.135 1.028 7.005 2.863l12.566 12.333c1.87 1.835 4.385 2.863 7.005 2.863h14.982c2.242 0 4.419.753 6.181 2.139l11.481 9.028c2.411 1.896 3.819 4.794 3.819 7.861v28.432c0 4.848 3.478 8.998 8.251 9.846l8.667 1.539c4.773.848 8.251 4.998 8.251 9.847z" fill="#ffd597"/><path d="m496.25 84.4-8.67-1.53c-4.77-.85-8.25-5-8.25-9.85v-28.43c0-3.07-1.41-5.97-3.82-7.86l-11.48-9.03c-1.76-1.39-3.94-2.14-6.18-2.14h-14.98c-2.62 0-5.14-1.03-7.01-2.86l-12.56-12.34c-1.87-1.83-4.39-2.86-7.01-2.86h-38.29c2.62 0 5.14 1.03 7.01 2.86l12.56 12.34c1.87 1.83 4.39 2.86 7.01 2.86h14.98c2.24 0 4.42.75 6.18 2.14l11.48 9.03c2.41 1.89 3.82 4.79 3.82 7.86v28.43c0 4.85 3.48 9 8.25 9.85l8.67 1.53c4.77.85 8.25 5 8.25 9.85v46.09c0 10.673-14.093 14.43-19.457 5.202-38.537-66.301-110.636-110.787-192.867-110.012-120.266 1.133-218.037 99.586-218.366 219.858-.332 121.853 98.703 221.092 220.48 221.092 81.365 0 152.57-44.305 190.772-110.055 5.351-9.21 19.438-5.41 19.438 5.242v102.833c0 10.19-5.08 19.19-12.84 24.6l4.06 5.4h17.07c16.569 0 30-13.431 30-30v-380.25c0-4.85-3.48-9-8.25-9.85zm-240.25 317.08c-80.218 0-145.48-65.262-145.48-145.48s65.262-145.48 145.48-145.48 145.48 65.262 145.48 145.48-65.262 145.48-145.48 145.48z" fill="#fcc16d"/></g><g><path d="m256 456.48c-110.545 0-200.48-89.935-200.48-200.48s89.935-200.48 200.48-200.48 200.48 89.935 200.48 200.48-89.935 200.48-200.48 200.48zm0-365.96c-91.246 0-165.48 74.234-165.48 165.48s74.234 165.48 165.48 165.48 165.48-74.234 165.48-165.48-74.234-165.48-165.48-165.48z" fill="#fb9927"/><path d="m456.48 256c0 3.97-.12 7.91-.35 11.83-6.13-105.06-93.56-188.66-200.13-188.66s-194 83.6-200.13 188.66c-.23-3.92-.35-7.86-.35-11.83 0-110.54 89.94-200.48 200.48-200.48s200.48 89.94 200.48 200.48z" fill="#f98824"/></g><g><path d="m256 343.218c-48.093 0-87.219-39.126-87.219-87.218s39.126-87.218 87.219-87.218 87.219 39.126 87.219 87.218-39.126 87.218-87.219 87.218zm0-99.436c-6.737 0-12.219 5.481-12.219 12.218s5.481 12.218 12.219 12.218 12.219-5.481 12.219-12.218-5.482-12.218-12.219-12.218z" fill="#fcc16d"/><path d="m256 323.218c-37.064 0-67.219-30.154-67.219-67.218s30.154-67.218 67.219-67.218 67.219 30.154 67.219 67.218-30.155 67.218-67.219 67.218zm0-99.436c-17.766 0-32.219 14.453-32.219 32.218s14.453 32.218 32.219 32.218 32.219-14.453 32.219-32.218-14.453-32.218-32.219-32.218z" fill="#fb9927"/><path d="m323.22 256c0 4.04-.36 7.99-1.04 11.83-5.61-31.45-33.15-55.4-66.18-55.4s-60.57 23.95-66.18 55.4c-.68-3.84-1.04-7.79-1.04-11.83 0-37.06 30.16-67.22 67.22-67.22s67.22 30.16 67.22 67.22z" fill="#f98824"/></g></g><g><path d="m497.56 77.02-8.666-1.539c-1.196-.212-2.063-1.247-2.063-2.461v-28.432c0-5.401-2.435-10.415-6.683-13.757l-11.482-9.028c-3.069-2.413-6.91-3.742-10.815-3.742h-14.982c-.658 0-1.28-.254-1.75-.716l-12.568-12.333c-3.292-3.233-7.646-5.012-12.259-5.012h-378.792c-20.678 0-37.5 16.822-37.5 37.5v120.29c0 7.185 4.505 13.75 11.219 16.341l15.783 6.067c1.109.428 1.45 1.326 1.555 1.824.104.497.154 1.454-.683 2.286l-22.701 22.552c-3.287 3.255-5.173 7.783-5.173 12.42v146.707c0 4.143 3.357 7.5 7.5 7.5s7.5-3.357 7.5-7.5v-146.707c0-.662.265-1.304.735-1.77l22.713-22.563c4.224-4.199 6.013-10.186 4.788-16.013-1.227-5.829-5.277-10.589-10.845-12.736l-15.782-6.066c-.963-.371-1.609-1.313-1.609-2.342v-120.29c0-12.406 10.094-22.5 22.5-22.5h378.792c.659 0 1.281.254 1.751.716l12.566 12.333c3.292 3.232 7.645 5.012 12.258 5.012h10.034l-16.466 32.459h-19.945c-4.143 0-7.5 3.357-7.5 7.5s3.357 7.5 7.5 7.5h5.171v13.871c0 4.143 3.357 7.5 7.5 7.5s7.5-3.357 7.5-7.5v-13.871h4.38c2.825 0 5.41-1.588 6.688-4.107l18.854-37.166 4.292 3.375c.607.478.956 1.194.956 1.967v28.431c0 8.498 6.073 15.745 14.44 17.23l8.666 1.539c1.196.212 2.063 1.247 2.063 2.461v380.25c0 12.406-10.094 22.5-22.5 22.5h-13.329l-16.635-22.096c-2.775-3.692-6.997-6.179-11.606-6.825l-23.313-3.199c-5.938-.814-11.798 1.421-15.674 5.962l-7.929 9.261c-.472.551-1.158.867-1.884.867h-68.48c-6.35 0-12.214 3.45-15.308 9.01l-3.177 5.724c-.445.8-1.287 1.297-2.196 1.297h-100.44c-4.143 0-7.5 3.357-7.5 7.5s3.357 7.5 7.5 7.5h100.44c6.35 0 12.214-3.45 15.308-9.01l3.177-5.724c.445-.8 1.287-1.297 2.196-1.297h68.479c5.112 0 9.952-2.228 13.278-6.111l7.937-9.271c.552-.646 1.389-.964 2.235-.847l23.289 3.196c.667.093 1.278.45 1.679.983l18.891 25.09c1.416 1.883 3.636 2.989 5.991 2.989h17.07c20.678 0 37.5-16.822 37.5-37.5v-380.249c.001-8.498-6.072-15.744-14.439-17.23z"/><path d="m165.43 497h-32.01v-24.139c0-1.655-.548-3.265-1.558-4.576l-6.644-8.626 4.968-3.436c3.406-2.355 4.258-7.027 1.901-10.435-2.354-3.405-7.025-4.259-10.435-1.901l-5.599 3.873-6.154-7.99c-.949-1.231-2.257-2.139-3.743-2.594l-21.961-6.736c-3.956-1.217-8.155 1.01-9.369 4.971-1.215 3.96 1.011 8.154 4.971 9.369l19.676 6.036 18.946 24.6v21.584h-80.919c-12.406 0-22.5-10.094-22.5-22.5v-79.412c0-4.143-3.357-7.5-7.5-7.5s-7.5 3.357-7.5 7.5v79.412c0 20.678 16.822 37.5 37.5 37.5h127.93c4.143 0 7.5-3.357 7.5-7.5s-3.358-7.5-7.5-7.5z"/><path d="m256 463.98c114.681 0 207.98-93.3 207.98-207.98s-93.299-207.98-207.98-207.98-207.98 93.299-207.98 207.98 93.299 207.98 207.98 207.98zm0-400.96c106.41 0 192.98 86.57 192.98 192.98s-86.57 192.98-192.98 192.98-192.98-86.57-192.98-192.98 86.57-192.98 192.98-192.98z"/><path d="m256 428.98c95.382 0 172.98-77.599 172.98-172.98 0-39.285-13.595-77.781-38.28-108.398-2.601-3.224-7.322-3.729-10.547-1.131-3.224 2.601-3.73 7.322-1.131 10.547 22.543 27.959 34.958 63.111 34.958 98.982 0 87.11-70.87 157.98-157.98 157.98s-157.98-70.87-157.98-157.98 70.87-157.98 157.98-157.98c38.131 0 74.979 13.835 103.758 38.957 3.121 2.726 7.858 2.402 10.583-.718 2.724-3.121 2.402-7.858-.718-10.583-31.513-27.507-71.864-42.656-113.623-42.656-95.382 0-172.98 77.599-172.98 172.98s77.598 172.98 172.98 172.98z"/><path d="m181.281 256c0 41.2 33.519 74.719 74.719 74.719s74.719-33.519 74.719-74.719-33.519-74.719-74.719-74.719-74.719 33.519-74.719 74.719zm74.719-59.719c32.929 0 59.719 26.79 59.719 59.719s-26.79 59.719-59.719 59.719-59.719-26.79-59.719-59.719 26.79-59.719 59.719-59.719z"/><path d="m256 295.719c21.901 0 39.719-17.817 39.719-39.719s-17.818-39.719-39.719-39.719-39.719 17.818-39.719 39.719 17.818 39.719 39.719 39.719zm0-64.438c13.63 0 24.719 11.089 24.719 24.719s-11.089 24.719-24.719 24.719-24.719-11.089-24.719-24.719 11.089-24.719 24.719-24.719z"/><path d="m457.91 412.309-14.255 3.884-5.51-3.764c-3.42-2.339-8.087-1.458-10.423 1.962-2.337 3.42-1.459 8.087 1.962 10.423l8.369 5.718c1.259.86 2.736 1.308 4.23 1.308.659 0 1.322-.087 1.972-.264l17.598-4.794c3.996-1.089 6.354-5.211 5.265-9.208s-5.213-6.351-9.208-5.265z"/><path d="m467.944 400.117h.072c4.108 0 7.459-3.312 7.498-7.43.039-4.142-3.287-7.531-7.43-7.57l-.104-.001c-.023 0-.048 0-.072 0-4.108 0-7.459 3.312-7.498 7.43-.039 4.142 3.287 7.531 7.43 7.57z"/><path d="m112.405 44.507c4.143 0 7.5-3.357 7.5-7.5s-3.357-7.5-7.5-7.5h-.104c-4.143 0-7.5 3.357-7.5 7.5s3.357 7.5 7.5 7.5z"/><path d="m164.859 329.305c-4.143 0-7.5 3.357-7.5 7.5s3.357 7.5 7.5 7.5h.104c4.143 0 7.5-3.357 7.5-7.5s-3.357-7.5-7.5-7.5z"/><path d="m246.713 143.334c1.692 0 3.396-.57 4.798-1.738 3.182-2.651 3.611-7.381.96-10.563l-8.446-10.136c-2.651-3.181-7.381-3.611-10.563-.96s-3.611 7.381-.96 10.563l8.446 10.136c1.483 1.779 3.616 2.698 5.765 2.698z"/></g></g></svg>