<svg id="Capa_1" enable-background="new 0 0 512 512" height="512" viewBox="0 0 512 512" width="512" xmlns="http://www.w3.org/2000/svg"><g><g><g><path d="m504.5 94.251v380.249c0 16.569-13.431 30-30 30h-17.07l-18.89-25.09c-1.6-2.13-3.99-3.53-6.63-3.9l-23.31-3.2c-3.37-.46-6.75.82-8.96 3.41l-7.929 9.261c-1.896 2.214-4.665 3.489-7.581 3.489h-68.48c-3.64 0-6.98 1.97-8.75 5.15l-3.18 5.73c-1.77 3.18-5.11 5.15-8.75 5.15h-257.47c-16.569 0-30-13.431-30-30v-255.22c0-2.66 1.06-5.22 2.95-7.09l22.71-22.56c5.14-5.11 3.31-13.82-3.46-16.43l-15.79-6.07c-3.86-1.49-6.41-5.2-6.41-9.34v-120.29c0-16.569 13.431-30 30-30h378.792c2.62 0 5.135 1.028 7.005 2.863l12.566 12.333c1.87 1.835 4.385 2.863 7.005 2.863h14.982c2.242 0 4.419.753 6.181 2.139l11.481 9.028c2.411 1.896 3.819 4.794 3.819 7.861v28.432c0 4.848 3.478 8.998 8.251 9.846l8.667 1.539c4.773.848 8.251 4.998 8.251 9.847z" fill="#b5dbfd"/><path d="m504.5 94.25v380.25c0 16.57-13.43 30-30 30h-17.07l-4.06-5.4c7.76-5.41 12.84-14.41 12.84-24.6v-380.25c0-4.85-3.48-9-8.25-9.85l-8.67-1.53c-4.77-.85-8.25-5-8.25-9.85v-28.43c0-3.07-1.41-5.97-3.82-7.86l-11.48-9.03c-1.76-1.39-3.94-2.14-6.18-2.14h-14.98c-2.62 0-5.14-1.03-7.01-2.86l-12.56-12.34c-1.87-1.83-4.39-2.86-7.01-2.86h38.29c2.62 0 5.14 1.03 7.01 2.86l12.56 12.34c1.87 1.83 4.39 2.86 7.01 2.86h14.98c2.24 0 4.42.75 6.18 2.14l11.48 9.03c2.41 1.89 3.82 4.79 3.82 7.86v28.43c0 4.85 3.48 9 8.25 9.85l8.67 1.53c4.77.85 8.25 5 8.25 9.85z" fill="#8dcafc"/></g></g><path d="m323.479 464.346c-20.678 0-37.5-16.822-37.5-37.5v-27.89h-143.615c-13.911 0-26.604-7.633-33.125-19.921-6.521-12.292-5.727-27.082 2.072-38.602l120.949-178.648c5.339-7.885 5.894-17.33 1.523-25.913-4.118-8.089-11.556-12.9-20.405-13.199-.383-.013-.76-.02-1.137-.02-17.853 0-32.377 14.524-32.377 32.377 0 20.678-16.822 37.5-37.5 37.5s-37.5-16.822-37.5-37.5c0-59.208 48.169-107.377 107.377-107.377 1.225 0 2.446.021 3.662.062 36.419 1.23 68.087 21.464 84.717 54.127 16.625 32.654 14.229 71.734-6.255 101.989l-81.327 120.125h72.94v-7.578c0-20.678 16.822-37.5 37.5-37.5s37.5 16.822 37.5 37.5v7.578h8.657c20.678 0 37.5 16.822 37.5 37.5s-16.822 37.5-37.5 37.5h-8.657v27.89c.001 20.678-16.822 37.5-37.499 37.5z" fill="#8dcafc"/><path d="m369.636 343.957h-28.657v-27.578c0-9.665-7.835-17.5-17.5-17.5s-17.5 7.835-17.5 17.5v27.578h-130.633l102.458-151.337c16.403-24.228 18.316-55.534 4.993-81.702-13.277-26.078-38.535-42.232-67.563-43.213-.993-.033-1.991-.05-2.992-.05-48.18 0-87.377 39.197-87.377 87.377 0 9.665 7.835 17.5 17.5 17.5s17.5-7.835 17.5-17.5c0-28.881 23.496-52.377 52.377-52.377.606 0 1.212.01 1.812.031 16.104.544 30.144 9.558 37.554 24.113 7.658 15.041 6.617 32.312-2.785 46.2l-120.95 178.647c-3.631 5.363-4.003 12.292-.968 18.014 3.036 5.721 8.982 9.297 15.459 9.297h163.614v47.89c0 9.665 7.835 17.5 17.5 17.5s17.5-7.835 17.5-17.5v-47.89h28.657c9.665 0 17.5-7.835 17.5-17.5s-7.834-17.5-17.499-17.5z" fill="#31a7fb"/><g fill="#1c96f9"><path d="m290.87 158.38c-1.19-8.88-3.87-17.64-8.07-25.89-13.28-26.08-38.54-42.23-67.57-43.21-.99-.04-1.99-.05-2.99-.05-43.07 0-78.97 31.32-86.09 72.39-.83-2.03-1.29-4.26-1.29-6.59 0-48.18 39.2-87.38 87.38-87.38 1 0 2 .02 2.99.05 29.03.98 54.29 17.14 67.57 43.22 7.59 14.9 10.23 31.48 8.07 47.46z"/><path d="m305.98 343.96v16.57c0 2.761-2.239 5-5 5h-130.812c-4.009 0-6.388-4.482-4.141-7.803l9.319-13.767z"/><path d="m340.98 316.38v21.57c0-9.66-7.84-17.5-17.5-17.5-9.67 0-17.5 7.84-17.5 17.5v-21.57c0-9.67 7.83-17.5 17.5-17.5 9.66 0 17.5 7.83 17.5 17.5z"/><path d="m387.14 361.46c0 4.07-1.39 7.81-3.73 10.79-3.19-4.09-8.18-6.72-13.77-6.72h-23.66c-2.761 0-5-2.239-5-5v-16.57h28.66c9.66 0 17.5 7.83 17.5 17.5z"/></g><g><path d="m504.5 341.131c-4.143 0-7.5 3.357-7.5 7.5v125.869c0 12.406-10.094 22.5-22.5 22.5h-13.329l-16.635-22.096c-2.775-3.692-6.997-6.179-11.606-6.825l-23.313-3.199c-5.93-.811-11.799 1.42-15.673 5.962l-7.93 9.261c-.472.551-1.158.867-1.884.867h-68.48c-6.35 0-12.214 3.45-15.308 9.01l-3.177 5.724c-.445.8-1.287 1.297-2.196 1.297h-189.567l16.992-28.848c1.059-1.798 1.321-3.954.725-5.953l-3.778-12.648 18.001-4.933c1.615-.443 3.036-1.414 4.036-2.759l11.825-15.904c2.472-3.323 1.78-8.021-1.544-10.493-3.323-2.474-8.022-1.78-10.493 1.544l-10.282 13.829-15.837 4.34-3.008-10.072c-1.187-3.97-5.366-6.226-9.333-5.04-3.969 1.186-6.226 5.364-5.04 9.333l10.145 33.962-19.817 33.641h-50.494c-12.406 0-22.5-10.094-22.5-22.5v-255.22c0-.662.265-1.304.735-1.77l22.713-22.563c4.224-4.199 6.013-10.186 4.788-16.013-1.227-5.829-5.277-10.589-10.845-12.736l-15.782-6.066c-.963-.371-1.609-1.313-1.609-2.342v-120.29c0-12.406 10.094-22.5 22.5-22.5h90.066c4.143 0 7.5-3.357 7.5-7.5s-3.357-7.5-7.5-7.5h-90.066c-20.678 0-37.5 16.822-37.5 37.5v120.29c0 7.185 4.505 13.75 11.219 16.341l15.783 6.067c1.109.428 1.45 1.326 1.555 1.824.104.497.154 1.454-.683 2.286l-22.701 22.552c-3.287 3.255-5.173 7.783-5.173 12.42v255.22c0 20.678 16.822 37.5 37.5 37.5h257.47c6.35 0 12.214-3.45 15.308-9.01l3.177-5.724c.445-.8 1.287-1.297 2.196-1.297h68.479c5.112 0 9.952-2.228 13.278-6.111l7.938-9.271c.551-.646 1.387-.963 2.233-.846l23.289 3.196c.667.093 1.278.45 1.679.983l18.891 25.09c1.416 1.883 3.636 2.989 5.991 2.989h17.07c20.678 0 37.5-16.822 37.5-37.5v-125.868c.001-4.143-3.356-7.5-7.499-7.5z"/><path d="m497.56 77.02-8.666-1.539c-1.196-.212-2.063-1.247-2.063-2.461v-28.432c0-5.401-2.435-10.415-6.683-13.757l-11.481-9.028c-3.07-2.413-6.911-3.742-10.816-3.742h-14.982c-.658 0-1.28-.254-1.75-.716l-12.568-12.333c-3.292-3.233-7.645-5.012-12.258-5.012h-259.626c-4.143 0-7.5 3.357-7.5 7.5s3.357 7.5 7.5 7.5h259.626c.658 0 1.28.254 1.75.716l12.566 12.333c3.292 3.232 7.645 5.012 12.258 5.012h14.982c.558 0 1.106.19 1.545.534l11.479 9.026c.607.478.956 1.194.956 1.967v28.432c0 8.498 6.073 15.744 14.44 17.23l8.666 1.539c1.196.212 2.063 1.247 2.063 2.461v65.002l-53.554 10.728-31.32-27.918c-3.092-2.757-7.833-2.482-10.589.608-2.756 3.092-2.484 7.833.608 10.589l8.981 8.005-20.037 16.907h-21.755c-4.143 0-7.5 3.357-7.5 7.5s3.357 7.5 7.5 7.5h24.496c1.771 0 3.483-.626 4.837-1.768l23.77-20.057 13.822 12.32c1.387 1.236 3.167 1.901 4.99 1.901.49 0 .983-.048 1.473-.146l15.756-3.156-9.632 24.291c-1.527 3.851.356 8.21 4.207 9.736.907.36 1.843.53 2.763.53 2.984 0 5.807-1.794 6.974-4.737l13.08-32.987c.045-.113.077-.227.115-.34l21.015-4.21v144.982c0 4.143 3.357 7.5 7.5 7.5s7.5-3.357 7.5-7.5v-225.28c.002-8.498-6.071-15.744-14.438-17.23z"/><path d="m289.48 107.514c-14.534-28.547-42.196-46.231-73.996-47.306-1.077-.036-2.158-.054-3.243-.054-52.315 0-94.877 42.562-94.877 94.877 0 13.785 11.215 25 25 25s25-11.215 25-25c0-24.745 20.132-44.877 44.877-44.877.521 0 1.04.009 1.559.026 13.335.45 24.97 7.934 31.123 20.02 6.401 12.572 5.537 26.999-2.313 38.592l-120.948 178.649c-5.198 7.679-5.729 17.539-1.382 25.733 4.349 8.193 12.811 13.282 22.084 13.282h156.114v40.389c0 13.785 11.215 25 25 25s25-11.215 25-25v-40.389h21.157c13.785 0 25-11.215 25-25s-11.215-25-25-25h-21.157v-20.078c0-13.785-11.215-25-25-25s-25 11.215-25 25v20.078h-38.761c-4.143 0-7.5 3.357-7.5 7.5s3.357 7.5 7.5 7.5h46.261c4.143 0 7.5-3.357 7.5-7.5v-27.578c0-5.514 4.486-10 10-10s10 4.486 10 10v27.578c0 4.143 3.357 7.5 7.5 7.5h28.657c5.514 0 10 4.486 10 10s-4.486 10-10 10h-28.657c-4.143 0-7.5 3.357-7.5 7.5v47.889c0 5.514-4.486 10-10 10s-10-4.486-10-10v-47.889c0-4.143-3.357-7.5-7.5-7.5h-163.614c-3.71 0-7.095-2.036-8.833-5.313-1.739-3.277-1.527-7.223.553-10.294l120.948-178.648c10.955-16.183 12.174-36.298 3.258-53.808-8.667-17.024-25.109-27.568-43.98-28.206-.685-.022-1.376-.034-2.068-.034-33.017 0-59.877 26.86-59.877 59.877 0 5.514-4.486 10-10 10s-10-4.486-10-10c0-44.044 35.833-79.877 79.877-79.877.917 0 1.832.016 2.739.046 26.259.887 49.112 15.511 61.133 39.12 12.085 23.735 10.353 52.126-4.521 74.094l-102.458 151.339c-1.556 2.299-1.715 5.269-.414 7.721 1.301 2.451 3.85 3.984 6.625 3.984h55.271c4.143 0 7.5-3.357 7.5-7.5s-3.357-7.5-7.5-7.5h-41.137l94.534-139.633c17.933-26.488 20.028-60.71 5.466-89.31z"/><path d="m369.155 267.91c1.259.86 2.736 1.308 4.23 1.308.659 0 1.322-.087 1.972-.264l17.598-4.794c3.996-1.089 6.354-5.211 5.265-9.208-1.089-3.996-5.213-6.353-9.208-5.265l-14.255 3.884-5.51-3.764c-3.421-2.339-8.087-1.458-10.423 1.962-2.337 3.42-1.459 8.087 1.962 10.423z"/><path d="m106.626 275.011 7.602-8.446c2.771-3.079 2.521-7.821-.558-10.593-3.078-2.77-7.819-2.521-10.593.558l-7.602 8.446c-2.771 3.079-2.521 7.821.558 10.593 1.434 1.29 3.228 1.925 5.016 1.925 2.052-.001 4.096-.838 5.577-2.483z"/><path d="m92.229 289.387c-4.143 0-7.5 3.357-7.5 7.5s3.357 7.5 7.5 7.5h.104c4.143 0 7.5-3.357 7.5-7.5s-3.357-7.5-7.5-7.5z"/><path d="m420.842 98.021h.072c4.108 0 7.459-3.312 7.498-7.43.039-4.142-3.287-7.531-7.43-7.57l-.104-.001c-.023 0-.048 0-.072 0-4.108 0-7.459 3.312-7.498 7.43-.039 4.142 3.287 7.531 7.43 7.57z"/><path d="m395.079 91.892h.072c4.108 0 7.459-3.312 7.498-7.43.039-4.142-3.287-7.531-7.43-7.57l-.104-.001c-.023 0-.048 0-.072 0-4.108 0-7.459 3.312-7.498 7.43-.039 4.142 3.287 7.531 7.43 7.57z"/></g></g></svg>