<svg id="Capa_1" enable-background="new 0 0 512.065 512.065" height="512" viewBox="0 0 512.065 512.065" width="512" xmlns="http://www.w3.org/2000/svg"><g><path d="m228.989 392.93 27.076 39.746 27.076-39.746 47.959-3.576-20.883-43.321 20.883-43.321-47.959-3.576-27.076-39.746-27.076 39.746-47.959 3.576 20.883 43.321-20.883 43.321zm-1.812-63.576 18.465-1.376 10.424-15.302 10.424 15.302 18.465 1.376-8.041 16.679 8.041 16.679-18.465 1.376-10.424 15.302-10.424-15.302-18.465-1.376 8.041-16.679z"/><path d="m63.64 28.967-63.64 63.639 117.424 117.426h-117.359v15c0 99.219 57.643 186.247 140.668 228.394l-28.725 58.606h288.113l-28.725-58.606c83.01-42.139 140.668-129.156 140.668-228.394v-15h-267.361zm-21.214 63.639 21.214-21.212 138.638 138.639h-42.428zm288.4 346.209 21.183 43.217h-191.887l21.183-43.217c-1.548-1.223-140.718-47.908-150.742-198.793h451.006c-10.117 152.279-148.232 196.81-150.743 198.793z"/><path d="m211.065 90.033v15c0 41.355 33.645 75 75 75h75v-15c0-41.355-33.645-75-75-75zm117.43 60h-42.43c-19.557 0-36.239-12.539-42.43-30h42.43c19.557 0 36.24 12.539 42.43 30z"/><path d="m481.065 15.033v-15h-75c-41.355 0-75 33.645-75 75v15h75c41.356 0 75-33.645 75-75zm-75 14.99 42.43.01c-6.181 17.434-22.883 30-42.43 30h-42.43c6.191-17.461 22.874-30.01 42.43-30.01z"/></g></svg>