<svg id="Capa_1" enable-background="new 0 0 512 512" height="512" viewBox="0 0 512 512" width="512" xmlns="http://www.w3.org/2000/svg"><g><g><g><path d="m225.97 89.626c0 19.02-12.13 35.22-29.07 41.26-37.412-13.954-43.996-67.257-13.52-85.04 23.63.64 42.59 20 42.59 43.78z" fill="#fbf198"/><path d="m196.9 130.886c-4.6 1.65-9.56 2.54-14.72 2.54-24.19 0-43.8-19.61-43.8-43.8 0-24.18 19.61-43.79 43.8-43.79.4 0 .8.01 1.2.01-15.06 24.41-12.75 61.78 13.52 85.04z" fill="#fad989"/></g><g><path d="m354.25 51.297c0 19.02-12.13 35.22-29.07 41.26-37.412-13.954-43.996-67.257-13.52-85.04 23.63.64 42.59 20 42.59 43.78z" fill="#fbf198"/><path d="m325.18 92.557c-4.6 1.65-9.56 2.54-14.72 2.54-24.19 0-43.8-19.61-43.8-43.8 0-24.18 19.61-43.79 43.8-43.79.4 0 .8.01 1.2.01-15.06 24.41-12.75 61.78 13.52 85.04z" fill="#fad989"/></g><path d="m485.121 477.377c-5.805 27.853-51.257 27.094-77.6 22.33-13.4-2.59-25.56-6.9-35.6-12.26-14.6 4.24-29.07 7.69-43.47 10.34-172.793-77.72-168.452-327.493-73.14-414.621 38.631-.181 73.237 8.887 91.44 22.29 25.27 3.66 50.25 10.86 74.35 21.62 12.5 6.59 15.46 23.12 5.89 33.53-8.4 9.14-16.35 15.95-23.26 22.72-1.94 1.91-3.6 4-4.97 6.22-17.53 9.24-18.42 27 1.45 36.93.46.64.94 1.28 1.45 1.89 59.46 71.53 64.51 156.42 44.32 206.571 21.48 9.236 43.212 22.902 39.14 42.44z" fill="#bd9cde"/><path d="m328.45 497.787c-23.53 4.35-46.86 6.569-70.15 6.7-39.318.222-78.137-5.396-118.22-17.04-10.04 5.36-22.2 9.67-35.6 12.26-26.343 4.762-71.784 5.525-77.6-22.33-4.077-19.525 17.672-33.217 39.14-42.44-20.19-50.15-15.14-135.04 44.32-206.571.51-.61.99-1.25 1.45-1.89 13.79-4.73 24.3-25 1.45-36.93-1.37-2.22-3.03-4.31-4.97-6.22-6.91-6.77-14.86-13.58-23.26-22.72-9.57-10.41-6.61-26.94 5.89-33.53 24.1-10.76 49.08-17.96 74.35-21.62 18.1-13.26 51.63-22.19 90.06-22.29-77.72 117.58-65.52 305.681 73.14 414.621z" fill="#b18cd9"/><path d="m400.211 226.476h-191.921c-7.742-11.302-4.759-28.178 4.7-36.93h185.77c-6.939 11.26-6.499 25.89 1.451 36.93z" fill="#fbf198"/><path d="m212.99 189.546c-2.28 12.12-3.85 24.46-4.7 36.93h-96.5c7.95-11.04 8.39-25.67 1.45-36.93z" fill="#fad989"/><path d="m360.515 293.557-18.177-78.383c-3.062 10.01-12.371 17.29-23.383 17.29-4.015 0-7.8-.974-11.142-2.688l16.725 72.124c2.304 9.935 12.225 16.121 22.16 13.817s16.121-12.225 13.817-22.16z" fill="#fad989"/><path d="m318.955 232.464c-11.772 0-21.599-8.32-23.926-19.4l-13.056 56.301c-2.304 9.935 3.882 19.856 13.817 22.16s19.856-3.882 22.16-13.817l10.986-47.375c-3.049 1.366-6.425 2.131-9.981 2.131z" fill="#fbf198"/><ellipse cx="177.623" cy="386.596" fill="#fff" rx="28.92" ry="23.03"/><g><path d="m347.475 208.01c0 12.386-7.899 22.936-18.931 26.87-24.364-9.087-28.652-43.8-8.805-55.381 15.389.417 27.736 13.024 27.736 28.511z" fill="#6a829a"/><path d="m328.544 234.88c-2.996 1.074-6.226 1.654-9.586 1.654-15.753 0-28.524-12.771-28.524-28.524 0-15.747 12.771-28.518 28.524-28.518.261 0 .521.007.782.007-9.808 15.896-8.304 40.233 8.804 55.381z" fill="#5b778f"/></g><ellipse cx="334.377" cy="386.596" fill="#fff" rx="28.92" ry="23.03"/></g><g><path d="m480.209 446.771c-6.053-5.578-14.193-10.774-24.762-15.793 4.382-12.808 7.146-26.953 8.229-42.155.294-4.132-2.817-7.72-6.948-8.015-4.12-.294-7.719 2.815-8.015 6.948-1.149 16.137-4.5 31.481-9.691 44.375-1.522 3.779.252 8.083 3.996 9.691 25.49 10.953 37.186 22.397 34.763 34.014-4.604 22.066-47.096 20.431-68.836 16.498-12.216-2.357-23.798-6.338-33.494-11.511-1.727-.922-3.747-1.132-5.626-.584-38.747 11.279-75.98 16.761-113.825 16.761s-75.077-5.482-113.824-16.761c-1.88-.549-3.899-.339-5.626.584-9.696 5.173-21.278 9.153-33.409 11.495-21.83 3.948-64.324 5.589-68.92-16.48-2.418-11.611 9.278-23.057 34.764-34.017 3.742-1.609 5.516-5.912 3.994-9.69-19.141-47.542-13.951-129.701 42.464-198.159-.003.002 167.034 0 167.036.001l-7.813 33.692c-3.435 13.531 5.767 28.289 19.429 31.16 7.24 1.706 14.977.178 21.05-4.237l2.087 9c3.179 14.047 17.567 22.692 31.16 19.429 13.947-3.233 22.663-17.212 19.429-31.16l-13.424-57.884h42.158c36.88 44.74 48.396 89.959 51.539 120.095.43 4.12 4.106 7.109 8.238 6.682 4.12-.431 7.111-4.118 6.682-8.238-3.379-32.385-15.766-81.043-55.587-128.943-8.566-10.304-7.881-25.632 1.561-34.896 7.93-7.724 15.149-13.878 23.528-22.998 6.123-6.663 8.749-15.587 7.207-24.482-1.551-8.945-7.067-16.51-15.135-20.755-.142-.074-.286-.145-.432-.21-23.912-10.686-48.977-18.061-74.529-21.93-2.79-1.931-5.852-3.751-9.142-5.463 13.027-9.476 21.267-24.843 21.267-41.537 0-28.286-23.012-51.298-51.297-51.298s-51.297 23.012-51.297 51.297c0 8.678 2.206 17.086 6.266 24.53-3.114-.114-6.256-.177-9.424-.177-8.251 0-16.337.394-24.153 1.15-5.663-22.044-25.505-38.108-48.899-38.455-4.145-.074-7.549 3.246-7.61 7.388s3.246 7.549 7.388 7.61c15.915.237 29.504 10.75 34.087 25.417-22.139 3.656-41.24 10.402-54.44 19.538-4.915.744-9.811 1.621-14.685 2.623-1.194-3.624-1.81-7.402-1.81-11.296 0-9.388 3.582-18.299 10.086-25.09 2.864-2.991 2.762-7.739-.229-10.604-2.991-2.864-7.739-2.763-10.604.229-9.19 9.597-14.252 22.192-14.252 35.465 0 5.056.725 9.978 2.151 14.718-15.393 4.019-30.507 9.325-45.185 15.884-8.287 4.148-13.992 11.878-15.566 20.965-1.542 8.896 1.084 17.819 7.207 24.482 8.379 9.12 15.599 15.274 23.528 22.998 9.441 9.264 10.127 24.592 1.561 34.896-28.105 33.804-46.659 73.516-53.659 114.842-5.604 33.082-3.586 65.632 5.637 92.569-10.577 5.024-18.718 10.22-24.765 15.791-13.136 12.104-13.913 24.151-12.253 32.126 6.486 31.15 50.529 34.652 86.362 28.166 12.551-2.422 24.57-6.411 34.971-11.591 39.096 11.12 76.79 16.529 115.132 16.529 38.343 0 76.037-5.409 115.132-16.528 10.4 5.18 22.427 9.17 35.057 11.606 9.401 1.701 19.371 2.712 29.087 2.712 27.218-.002 52.401-7.94 57.188-30.892 1.663-7.971.886-20.016-12.255-32.127zm-195.564-227.798h-160.903c2.175-7.147 2.362-14.753.598-21.931h160.306c-1.108 3.46-1.712 7.143-1.712 10.966-.001 3.822.603 7.505 1.711 10.965zm25.997 57.036c-1.213 5.769-7.448 9.656-13.159 8.204-5.77-1.212-9.655-7.445-8.206-13.159l7.961-34.331c5.821 4.413 13.019 7.092 20.825 7.283zm8.312-46.981c-11.591 0-21.021-9.43-21.021-21.021s9.43-21.021 21.021-21.021 21.021 9.431 21.021 21.021-9.43 21.021-21.021 21.021zm26.049 79.377c-5.888 1.361-11.794-2.315-13.16-8.206l-5.706-24.607 8.112-34.982c1.948-.918 3.799-2.008 5.538-3.245l13.423 57.88c1.364 5.891-2.317 11.794-8.207 13.16zm8.259-89.432c1.108-3.459 1.712-7.142 1.712-10.965s-.604-7.506-1.712-10.966h34.398c-1.764 7.177-1.578 14.784.598 21.931zm1.451-104.629c21.594 3.883 42.772 10.416 63.082 19.47 3.812 2.077 6.411 5.688 7.148 9.939.741 4.272-.525 8.563-3.473 11.771-8.984 10.117-18.243 16.803-26.602 26.517h-50.988c-3.135-3.011-6.806-5.467-10.862-7.194 11.541-17.182 21.136-40.473 21.695-60.503zm-44.258-99.344c20.015 0 36.297 16.282 36.297 36.297 0 15.29-9.762 29.008-24.002 34.141-11.194-3.726-23.906-6.473-37.547-8.092-7.043-6.827-11.045-16.199-11.045-26.049 0-20.015 16.282-36.297 36.297-36.297zm-138.086 94.663c18.105-11.778 49.679-19.013 83.63-19.013 33.956 0 65.534 7.237 83.638 19.018 1.041 17.419-8.751 43.957-23.09 62.408-8.726.579-16.608 4.277-22.545 9.99-.292-.068-89.044 0-89.408-.023-18.249-16.428-33.522-50.886-32.225-72.38zm-81.84 45.862c-2.947-3.208-4.214-7.499-3.473-11.771.737-4.251 3.338-7.862 7.148-9.939 20.317-9.057 41.502-15.591 63.103-19.474.333 11.599 3.688 25.068 9.812 38.974 4.697 10.665 10.614 20.536 17.102 28.728h-67.091c-8.36-9.717-17.615-16.398-26.601-26.518z"/><path d="m173.213 361.529c0 4.143 3.357 7.5 7.5 7.5s7.5-3.357 7.5-7.5c0-3.454 2.811-6.265 6.265-6.265s6.265 2.811 6.265 6.265c0 4.143 3.357 7.5 7.5 7.5s7.5-3.357 7.5-7.5c0-11.726-9.539-21.265-21.265-21.265s-21.265 9.54-21.265 21.265z"/><path d="m296.257 361.529c0 4.143 3.357 7.5 7.5 7.5s7.5-3.357 7.5-7.5c0-3.454 2.811-6.265 6.265-6.265s6.265 2.811 6.265 6.265c0 4.143 3.357 7.5 7.5 7.5s7.5-3.357 7.5-7.5c0-11.726-9.539-21.265-21.265-21.265s-21.265 9.54-21.265 21.265z"/><path d="m275.53 371.965c-3.124-2.723-7.861-2.397-10.582.725-2.261 2.593-5.521 4.08-8.948 4.08s-6.688-1.487-8.948-4.08c-2.72-3.122-7.458-3.447-10.582-.725-3.122 2.722-3.446 7.459-.725 10.582 5.109 5.861 12.492 9.223 20.255 9.223s15.146-3.361 20.255-9.223c2.721-3.123 2.397-7.86-.725-10.582z"/></g></g></svg>