<svg id="Capa_1" enable-background="new 0 0 512 512" height="512" viewBox="0 0 512 512" width="512" xmlns="http://www.w3.org/2000/svg"><g><path d="m481 256c0-124.617-100.935-226-225-226s-225 101.383-225 226c0 65.729 28.423 128.075 77.858 171.104-27.974 10.901-47.858 38.112-47.858 69.896v15h390v-15c0-31.784-19.884-58.995-47.858-69.896 49.388-42.988 77.858-105.312 77.858-171.104zm-62.57 226h-324.86c6.19-17.461 22.873-30 42.43-30h240c19.557 0 36.239 12.539 42.43 30zm-58.504-60h-88.926v-61h-30v61h-88.926c-56.27-35.562-91.074-98.773-91.074-166 0-108.075 87.477-196 195-196s195 87.925 195 196c0 67.227-34.804 130.438-91.074 166z"/><path d="m241 90h30v61h-30z"/><path d="m145.541 130.54h30v60h-30z" transform="matrix(.707 -.707 .707 .707 -66.498 160.541)"/><path d="m336.46 321.459h30v60h-30z" transform="matrix(.707 -.707 .707 .707 -145.579 351.46)"/><path d="m130.54 336.46h60v30h-60z" transform="matrix(.707 -.707 .707 .707 -201.498 216.459)"/><path d="m321.459 145.541h60v30h-60z" transform="matrix(.707 -.707 .707 .707 -10.579 295.541)"/><path d="m30 90h30v-30h30v-30h-30v-30h-30v30h-30v30h30z"/><path d="m482 0h-30v30h-30v30h30v30h30v-30h30v-30h-30z"/><path d="m362.771 256c-27.079-53.045-67.883-75-106.771-75-38.881 0-79.688 21.949-106.771 75 27.079 53.045 67.883 75 106.771 75 38.881 0 79.688-21.949 106.771-75zm-106.771 45c-38.698 0-63.387-31.002-72.558-44.998 9.188-14.021 33.871-45.002 72.558-45.002 38.683 0 63.367 30.978 72.557 45-9.19 14.022-33.874 45-72.557 45z"/><path d="m241 241h30v30h-30z"/></g></svg>