<svg id="Capa_1" enable-background="new 0 0 512 512" height="512" viewBox="0 0 512 512" width="512" xmlns="http://www.w3.org/2000/svg"><g><g><path d="m469.84 148.96v222.3h-182.72c-98.048-67.344-101.145-229.547-6.92-289.78h122.16c37.27 0 67.48 30.21 67.48 67.48z" fill="#5b778f"/><path d="m287.12 371.26h-244.96v-222.3c0-37.27 30.21-67.48 67.48-67.48h170.56c-54.39 79.19-57.86 199.44 6.92 289.78z" fill="#516980"/><path d="m427.17 155.76v215.5h-140.05c-89.31-57.83-77.249-195.349-29.96-246.67h138.84c17.22 0 31.17 13.95 31.17 31.17z" fill="#f3f5fc"/><path d="m287.12 371.26h-202.29v-215.5c0-17.22 13.95-31.17 31.17-31.17h141.16c-30.59 75.69-23.93 171.53 29.96 246.67z" fill="#d7ddf5"/><path d="m504.5 385.51c0 24.86-20.15 45.01-45.02 45.01h-113.19c-40.154-10.158-54.912-36.361-58.86-58.83l31.93-9.2h162.12c12.71 0 23.02 10.31 23.02 23.02z" fill="#6a829a"/><path d="m346.29 430.52h-293.77c-24.87 0-45.02-20.15-45.02-45.01 0-12.71 10.31-23.02 23.02-23.02h162.12l63.36 18.25 31.43-9.05c15.6 21.67 35.14 41.61 58.86 58.83z" fill="#5b778f"/><path d="m330.4 232.61c0 36.29-29.41 65.7-65.7 65.7-4.92 0-9.72-.54-14.34-1.57-22.753-31.356-32.114-89.863-6.67-126.4 6.6-2.22 13.66-3.43 21.01-3.43 36.29 0 65.7 29.42 65.7 65.7z" fill="#83deff"/><path d="m250.36 296.74c-29.38-6.54-51.36-32.77-51.36-64.13 0-28.93 18.71-53.5 44.69-62.27-7.89 40.78-6.07 84.59 6.67 126.4z" fill="#2ecefb"/><path d="m331.59 298.51v14.92c0 8.24-6.68 14.92-14.92 14.92h-54.36c-21.181-10.44-23.351-30.04-15.59-44.76h69.95c8.24 0 14.92 6.68 14.92 14.92z" fill="#bd9cde"/><path d="m262.31 328.35h-49.58c-8.24 0-14.92-6.68-14.92-14.92v-14.92c0-8.24 6.68-14.92 14.92-14.92h33.99c3.77 15.19 8.95 30.19 15.59 44.76z" fill="#b18cd9"/><path d="m233.23 200.25-16.36 8.95-5.13 9.38c-22.668-10.023-19.213-47.08-4.69-57.4.33.38.62.8.87 1.26l8.95 16.36 16.36 8.95c4.94 2.7 4.94 9.79 0 12.5z" fill="#fbf198"/><path d="m211.74 218.58-3.82 6.98c-2.7 4.94-9.8 4.94-12.5 0l-8.95-16.36-16.36-8.95c-4.94-2.71-4.94-9.8 0-12.5l16.36-8.95 8.95-16.36c2.45-4.48 8.51-4.9 11.63-1.26-8.57 16.92-7.91 39.78 4.69 57.4z" fill="#fad989"/><path d="m319.36 362.49c0 12.18-6.83 22.77-16.87 28.15-15.06-7.982-21.38-17.13-21.38-28.15z" fill="#fbf198"/><path d="m302.49 390.64c-4.48 2.4-9.6 3.76-15.04 3.76h-62.9c-17.62 0-31.91-14.29-31.91-31.91h88.47c6.36 9.72 13.48 19.13 21.38 28.15z" fill="#fad989"/></g><g><path d="m481.48 354.989h-4.139v-206.034c0-41.345-33.636-74.98-74.98-74.98h-26.915c-4.143 0-7.5 3.357-7.5 7.5s3.357 7.5 7.5 7.5h26.915c33.073 0 59.98 26.907 59.98 59.98v206.034h-27.671v-199.232c0-21.322-17.347-38.669-38.668-38.669h-280.005c-21.321 0-38.668 17.347-38.668 38.669v199.232h-27.671v-206.034c0-33.073 26.907-59.98 59.98-59.98h230.808c4.143 0 7.5-3.357 7.5-7.5s-3.357-7.5-7.5-7.5h-230.807c-41.345 0-74.98 33.636-74.98 74.98v206.034h-4.139c-16.828 0-30.52 13.691-30.52 30.52 0 28.958 23.559 52.517 52.516 52.517h34.359c4.143 0 7.5-3.357 7.5-7.5s-3.357-7.5-7.5-7.5h-34.359c-20.687 0-37.516-16.83-37.516-37.517 0-8.558 6.962-15.52 15.52-15.52h155.347c3.513 18.156 19.52 31.911 38.687 31.911h62.895c19.167 0 35.173-13.755 38.687-31.911h155.344c8.558 0 15.52 6.962 15.52 15.52 0 20.687-16.829 37.517-37.516 37.517h-337.609c-4.143 0-7.5 3.357-7.5 7.5s3.357 7.5 7.5 7.5h337.609c28.957 0 52.516-23.559 52.516-52.517 0-16.828-13.691-30.52-30.52-30.52zm-389.151-199.232c0-13.051 10.617-23.669 23.668-23.669h280.006c13.051 0 23.668 10.618 23.668 23.669v199.232h-327.342zm195.118 231.143h-62.895c-10.844 0-20.055-7.11-23.227-16.911h109.349c-3.172 9.801-12.383 16.911-23.227 16.911z"/><path d="m190.31 298.506v14.92c0 12.362 10.058 22.42 22.42 22.42h103.944c12.362 0 22.42-10.058 22.42-22.42v-14.92c0-10.193-6.84-18.813-16.169-21.527 9.646-12.62 14.976-28.109 14.976-44.366 0-40.362-32.837-73.199-73.199-73.199-15.237 0-30.112 4.801-42.454 13.589l-7.748-14.166c-2.565-4.691-7.481-7.605-12.828-7.605-5.346 0-10.262 2.914-12.827 7.605l-7.896 14.438-14.437 7.896c-4.691 2.566-7.605 7.481-7.605 12.829.001 5.347 2.915 10.262 7.605 12.826l14.437 7.896 7.896 14.437c.715 1.307 1.617 2.47 2.655 3.477-.012 15.906 5.426 31.674 15.007 44.337-9.344 2.703-16.197 11.33-16.197 21.533zm132.59-65.893c0 16.718-7.098 32.412-19.541 43.473h-77.323c-11.469-10.149-18.57-24.929-19.441-40.179 3.32-1.188 6.157-3.555 7.904-6.749l7.896-14.437 14.436-7.896c4.691-2.565 7.605-7.48 7.606-12.827 0-5.221-2.783-10.023-7.28-12.636 8.416-4.519 17.887-6.949 27.544-6.949 32.091.001 58.199 26.109 58.199 58.2zm-132.828-29.998-15.756-8.617 15.756-8.617c1.259-.688 2.293-1.723 2.981-2.981l8.618-15.757 8.617 15.757c.688 1.259 1.723 2.293 2.981 2.981l15.756 8.617-15.756 8.617c-1.259.688-2.293 1.723-2.981 2.981l-8.618 15.756-8.617-15.756c-.688-1.258-1.722-2.292-2.981-2.981zm15.238 95.891c0-4.092 3.328-7.42 7.42-7.42h103.944c4.092 0 7.42 3.328 7.42 7.42v14.92c0 4.092-3.328 7.42-7.42 7.42h-103.945c-4.092 0-7.42-3.328-7.42-7.42v-14.92z"/></g></g></svg>