<svg id="Capa_1" enable-background="new 0 0 512 512" height="512" viewBox="0 0 512 512" width="512" xmlns="http://www.w3.org/2000/svg"><g><g><path d="m504.5 94.251v380.249c0 16.569-13.431 30-30 30h-17.07l-18.89-25.09c-1.6-2.13-3.99-3.53-6.63-3.9l-23.31-3.2c-3.37-.46-6.75.82-8.96 3.41l-7.929 9.261c-1.896 2.214-4.665 3.489-7.581 3.489h-68.48c-3.64 0-6.98 1.97-8.75 5.15l-3.18 5.73c-1.77 3.18-5.11 5.15-8.75 5.15h-257.47c-16.569 0-30-13.431-30-30v-255.22c0-2.66 1.06-5.22 2.95-7.09l22.71-22.56c5.14-5.11 3.31-13.82-3.46-16.43l-15.79-6.07c-3.86-1.49-6.41-5.2-6.41-9.34v-120.29c0-16.569 13.431-30 30-30h378.792c2.62 0 5.135 1.028 7.005 2.863l12.566 12.333c1.87 1.835 4.385 2.863 7.005 2.863h14.982c2.242 0 4.419.753 6.181 2.139l11.481 9.028c2.411 1.896 3.819 4.794 3.819 7.861v28.432c0 4.848 3.478 8.998 8.251 9.846l8.667 1.539c4.773.848 8.251 4.998 8.251 9.847z" fill="#ffd597"/><path d="m496.25 84.4-8.67-1.53c-4.77-.85-8.25-5-8.25-9.85v-28.43c0-3.07-1.41-5.97-3.82-7.86l-11.48-9.03c-1.76-1.39-3.94-2.14-6.18-2.14h-14.98c-2.62 0-5.14-1.03-7.01-2.86l-12.56-12.34c-1.87-1.83-4.39-2.86-7.01-2.86h-38.29c2.62 0 5.14 1.03 7.01 2.86l12.56 12.34c1.87 1.83 4.39 2.86 7.01 2.86h14.98c2.24 0 4.42.75 6.18 2.14l11.48 9.03c2.41 1.89 3.82 4.79 3.82 7.86v28.43c0 4.85 3.48 9 8.25 9.85l8.67 1.53c4.77.85 8.25 5 8.25 9.85v49.862c0 9.735-12.916 13.059-17.67 4.563-38.066-68.028-111.133-113.932-194.652-113.146-120.266 1.133-218.038 99.585-218.367 219.857-.334 121.854 98.701 221.094 220.479 221.094 82.652 0 154.821-45.718 192.561-113.193 4.742-8.479 17.649-5.12 17.649 4.595v106.618c0 10.19-5.08 19.19-12.84 24.6l4.06 5.4h17.07c16.569 0 30-13.431 30-30v-380.25c0-4.85-3.48-9-8.25-9.85zm-338.369 278.944c-29.814-27.233-47.361-65.954-47.361-107.344s17.547-80.111 47.361-107.344zm195.681.469c-26.812 24.29-61.46 37.667-97.562 37.667-7.76 0-15.492-.618-23.119-1.843v-106.137h163.692c-7.176 26.864-22.016 51.291-43.011 70.313zm-120.681-145.313v-106.138c7.627-1.225 15.359-1.843 23.119-1.843 36.102 0 70.75 13.378 97.562 37.668 20.995 19.021 35.836 43.448 43.012 70.313z" fill="#fcc16d"/></g><path d="m256 55.52c-110.545 0-200.48 89.935-200.48 200.48s89.935 200.48 200.48 200.48 200.48-89.935 200.48-200.48-89.935-200.48-200.48-200.48zm164.555 182.98h-207.674v-142.27c13.754-3.716 28.207-5.71 43.119-5.71 85.336 0 155.785 64.93 164.555 147.98zm-330.035 17.5c0-63.011 35.404-117.903 87.361-145.845v291.69c-51.957-27.942-87.361-82.834-87.361-145.845zm165.48 165.48c-14.912 0-29.365-1.995-43.119-5.71v-142.27h207.674c-8.77 83.05-79.219 147.98-164.555 147.98z" fill="#fca62f"/><path d="m456.48 256c0 3.97-.12 7.91-.35 11.82-6.13-105.07-93.56-188.66-200.13-188.66s-194 83.59-200.13 188.66c-.23-3.91-.35-7.85-.35-11.82 0-110.54 89.94-200.48 200.48-200.48s200.48 89.94 200.48 200.48z" fill="#fb9927"/><g><path d="m504.5 169.809c-4.142 0-7.5 3.357-7.5 7.5v297.191c0 12.406-10.093 22.5-22.5 22.5h-13.329l-16.635-22.095c-1.39-1.85-3.143-3.396-5.126-4.561v-17.114l22.468-23.298c2.875-2.981 2.79-7.729-.192-10.604-2.981-2.874-7.729-2.79-10.605.192l-6.498 6.738-3.849-7.016 3.549-19.1c.757-4.072-1.931-7.987-6.003-8.744-4.071-.75-7.988 1.932-8.744 6.004l-4.039 21.73c-.316 1.701-.034 3.46.798 4.978l7.382 13.456-7.167 7.431c-1.348 1.397-2.102 3.264-2.102 5.206v16.707l-14.794-2.03c-5.936-.812-11.798 1.42-15.673 5.962l-7.931 9.262c-.471.551-1.158.866-1.883.866h-68.48c-6.349 0-12.213 3.45-15.308 9.011l-3.176 5.722c-.445.801-1.287 1.298-2.196 1.298h-143.114c-4.142 0-7.5 3.357-7.5 7.5s3.358 7.5 7.5 7.5h143.117c6.349 0 12.213-3.45 15.308-9.011l3.176-5.722c.445-.801 1.287-1.298 2.196-1.298h68.48c5.113 0 9.953-2.228 13.277-6.111l7.938-9.271c.552-.646 1.39-.964 2.235-.847l23.288 3.196c.668.093 1.278.449 1.68.983l18.89 25.09c1.417 1.883 3.636 2.989 5.992 2.989h17.07c20.678 0 37.5-16.822 37.5-37.5v-297.19c0-4.143-3.358-7.5-7.5-7.5z"/><path d="m497.56 77.02-8.667-1.539c-1.195-.212-2.063-1.247-2.063-2.461v-28.432c0-5.402-2.436-10.416-6.683-13.757l-11.48-9.027c-3.07-2.414-6.912-3.743-10.817-3.743h-14.981c-.659 0-1.281-.254-1.751-.716l-12.567-12.334c-3.292-3.232-7.646-5.011-12.259-5.011h-378.792c-20.678 0-37.5 16.822-37.5 37.5v120.29c0 7.185 4.505 13.75 11.219 16.341l15.783 6.067c1.109.428 1.451 1.326 1.555 1.824.104.496.154 1.454-.683 2.286l-22.7 22.551c-3.288 3.255-5.174 7.783-5.174 12.421v255.22c0 20.678 16.822 37.5 37.5 37.5h85.252c4.142 0 7.5-3.357 7.5-7.5s-3.358-7.5-7.5-7.5h-85.252c-12.407 0-22.5-10.094-22.5-22.5v-255.22c0-.662.265-1.304.736-1.77l22.712-22.563c4.224-4.199 6.013-10.186 4.788-16.013-1.226-5.829-5.277-10.589-10.844-12.736l-15.782-6.066c-.963-.371-1.61-1.313-1.61-2.342v-120.29c0-12.406 10.093-22.5 22.5-22.5h42.218l2.613 12.147-19.875 19.957-24.898-7.03c-3.986-1.127-8.13 1.193-9.256 5.18s1.193 8.13 5.18 9.256l6.088 1.719-3.105 8.853c-1.371 3.909.687 8.189 4.596 9.56.821.288 1.659.425 2.482.425 3.097 0 5.995-1.933 7.078-5.02l3.413-9.734 8.588 2.425c.672.189 1.358.282 2.038.282 1.967 0 3.888-.774 5.314-2.208l25.86-25.967c1.793-1.8 2.553-4.385 2.019-6.869l-2.791-12.976h321.231c.659 0 1.281.254 1.751.716l12.566 12.334c3.292 3.231 7.646 5.011 12.258 5.011h14.981c.558 0 1.107.189 1.545.534l11.48 9.027c.607.478.956 1.193.956 1.966v28.432c0 8.498 6.073 15.744 14.44 17.23l8.667 1.539c1.195.212 2.063 1.247 2.063 2.461v53.958c0 4.143 3.358 7.5 7.5 7.5s7.5-3.357 7.5-7.5v-53.958c0-8.498-6.073-15.744-14.44-17.23z"/><path d="m212.881 246h63.603c4.142 0 7.5-3.357 7.5-7.5s-3.358-7.5-7.5-7.5h-56.103v-128.92c11.651-2.696 23.605-4.061 35.619-4.061 78.25 0 143.901 56.603 156.003 132.98h-106.419c-4.142 0-7.5 3.357-7.5 7.5s3.358 7.5 7.5 7.5h114.971c2.126 0 4.152-.902 5.575-2.482 1.422-1.581 2.107-3.69 1.884-5.806-4.456-42.199-24.339-81.23-55.988-109.904-31.88-28.881-73.086-44.787-116.026-44.787-15.248 0-30.414 2.009-45.075 5.97-3.271.884-5.544 3.852-5.544 7.24v142.27c0 4.143 3.358 7.5 7.5 7.5z"/><path d="m210.925 423.011c14.662 3.961 29.827 5.97 45.075 5.97 42.94 0 84.146-15.906 116.025-44.788 31.649-28.674 51.532-67.705 55.988-109.904.223-2.115-.461-4.225-1.884-5.806-1.422-1.58-3.449-2.482-5.575-2.482h-207.673c-4.142 0-7.5 3.357-7.5 7.5v142.271c0 3.387 2.272 6.355 5.544 7.239zm9.456-142.011h191.622c-12.102 76.378-77.753 132.98-156.003 132.98-12.014 0-23.968-1.364-35.619-4.061z"/><path d="m174.329 408.45c1.11.598 2.332.895 3.552.895 1.333 0 2.665-.355 3.848-1.063 2.265-1.354 3.652-3.799 3.652-6.438v-291.689c0-2.639-1.387-5.084-3.652-6.438-2.266-1.354-5.077-1.417-7.4-.168-56.322 30.291-91.309 88.706-91.309 152.451s34.987 122.16 91.309 152.45zm-3.948-285.162v265.424c-44.938-29.033-72.361-78.785-72.361-132.712s27.423-103.679 72.361-132.712z"/><path d="m256 463.98c114.681 0 207.98-93.3 207.98-207.98s-93.299-207.98-207.98-207.98-207.98 93.299-207.98 207.98 93.299 207.98 207.98 207.98zm0-400.96c106.41 0 192.98 86.57 192.98 192.98s-86.57 192.98-192.98 192.98-192.98-86.57-192.98-192.98 86.57-192.98 192.98-192.98z"/><path d="m306.533 169.061c0-4.143-3.358-7.5-7.5-7.5h-10.022l-.322-1.54c-.849-4.055-4.823-6.657-8.877-5.805-4.055.848-6.654 4.822-5.806 8.877l1.57 7.504c.727 3.475 3.791 5.964 7.341 5.964h16.115c4.143 0 7.501-3.358 7.501-7.5z"/><path d="m68.652 452.399c1.434 1.29 3.227 1.925 5.015 1.925 2.052 0 4.097-.838 5.577-2.483l7.602-8.447c2.771-3.078 2.521-7.82-.558-10.592-3.08-2.771-7.822-2.521-10.592.559l-7.602 8.447c-2.77 3.078-2.521 7.82.558 10.591z"/><path d="m314.779 207.114c4.142 0 7.5-3.357 7.5-7.5s-3.358-7.5-7.5-7.5h-.104c-4.142 0-7.5 3.357-7.5 7.5s3.358 7.5 7.5 7.5z"/><path d="m456.532 113.725c4.142 0 7.5-3.357 7.5-7.5s-3.358-7.5-7.5-7.5h-.104c-4.142 0-7.5 3.357-7.5 7.5s3.358 7.5 7.5 7.5z"/><path d="m70.572 405.774c0-4.143-3.358-7.5-7.5-7.5h-.104c-4.142 0-7.5 3.357-7.5 7.5s3.358 7.5 7.5 7.5h.104c4.142 0 7.5-3.357 7.5-7.5z"/></g></g></svg>