<svg id="Capa_1" enable-background="new 0 0 512 512" height="512" viewBox="0 0 512 512" width="512" xmlns="http://www.w3.org/2000/svg"><g><g><path d="m504.5 94.251v380.249c0 16.569-13.431 30-30 30h-17.07l-18.89-25.09c-1.6-2.13-3.99-3.53-6.63-3.9l-23.31-3.2c-3.37-.46-6.75.82-8.96 3.41l-7.929 9.261c-1.896 2.214-4.665 3.489-7.581 3.489h-68.48c-3.64 0-6.98 1.97-8.75 5.15l-3.18 5.73c-1.77 3.18-5.11 5.15-8.75 5.15h-257.47c-16.569 0-30-13.431-30-30v-255.22c0-2.66 1.06-5.22 2.95-7.09l22.71-22.56c5.14-5.11 3.31-13.82-3.46-16.43l-15.79-6.07c-3.86-1.49-6.41-5.2-6.41-9.34v-120.29c0-16.569 13.431-30 30-30h378.792c2.62 0 5.135 1.028 7.005 2.863l12.566 12.333c1.87 1.835 4.385 2.863 7.005 2.863h14.982c2.242 0 4.419.753 6.181 2.139l11.481 9.028c2.411 1.896 3.819 4.794 3.819 7.861v28.432c0 4.848 3.478 8.998 8.251 9.846l8.667 1.539c4.773.848 8.251 4.998 8.251 9.847z" fill="#b5dbfd"/><path d="m504.5 94.25v380.25c0 16.57-13.43 30-30 30h-17.07l-4.06-5.4c7.76-5.41 12.84-14.41 12.84-24.6v-380.25c0-4.85-3.48-9-8.25-9.85l-8.67-1.53c-4.77-.85-8.25-5-8.25-9.85v-28.43c0-3.07-1.41-5.97-3.82-7.86l-11.48-9.03c-1.76-1.39-3.94-2.14-6.18-2.14h-14.98c-2.62 0-5.14-1.03-7.01-2.86l-12.56-12.34c-1.87-1.83-4.39-2.86-7.01-2.86h38.29c2.62 0 5.14 1.03 7.01 2.86l12.56 12.34c1.87 1.83 4.39 2.86 7.01 2.86h14.98c2.24 0 4.42.75 6.18 2.14l11.48 9.03c2.41 1.89 3.82 4.79 3.82 7.86v28.43c0 4.85 3.48 9 8.25 9.85l8.67 1.53c4.77.85 8.25 5 8.25 9.85z" fill="#8dcafc"/></g><g><path d="m256 425.774c-16.578 0-30.984-10.647-35.849-26.495-12.734-41.482-33.286-84.855-62.829-132.598-26.032-42.069-57.5-81.107-93.529-116.029-12.011-11.64-14.844-30.048-6.887-44.764 6.559-12.129 19.197-19.664 32.985-19.664 2.765 0 5.537.309 8.24.917 51.402 11.582 104.515 17.453 157.869 17.453s106.467-5.871 157.865-17.451c2.707-.609 5.479-.918 8.244-.918 13.788 0 26.427 7.535 32.985 19.665 7.957 14.715 5.124 33.123-6.889 44.764-36.027 34.921-67.495 73.959-93.527 116.028-29.543 47.742-50.095 91.115-62.829 132.598-4.865 15.847-19.271 26.494-35.849 26.494zm-69.558-249.21c12.357 16.408 23.945 33.34 34.657 50.65 13.257 21.424 24.82 41.963 34.901 62.018 10.08-20.055 21.644-40.593 34.9-62.018 10.713-17.311 22.3-34.242 34.658-50.65-23.119 2.014-46.38 3.029-69.558 3.029s-46.439-1.015-69.558-3.029z" fill="#8dcafc"/><path d="m256 405.774c-7.687 0-14.474-5.016-16.729-12.364-13.243-43.141-34.485-88.036-64.941-137.253-26.898-43.469-59.405-83.798-96.616-119.866-5.63-5.456-6.943-13.992-3.214-20.89 3.729-6.896 11.592-10.47 19.24-8.748 52.837 11.904 107.43 17.94 162.261 17.94s109.423-6.036 162.261-17.94c7.647-1.722 15.511 1.851 19.24 8.748s2.417 15.434-3.214 20.89c-37.211 36.068-69.718 76.397-96.616 119.866-30.456 49.217-51.698 94.112-64.941 137.253-2.257 7.349-9.044 12.364-16.731 12.364zm-116.155-254.876c23.841 27.241 45.352 56.307 64.247 86.841 21.49 34.729 38.663 67.549 51.908 99.288 13.245-31.739 30.417-64.559 51.908-99.288 18.896-30.534 40.406-59.6 64.247-86.841-38.279 5.778-77.162 8.695-116.155 8.695s-77.876-2.916-116.155-8.695z" fill="#31a7fb"/><path d="m435.09 135.45c-4.17-4.61-10.57-6.75-16.83-5.34-52.84 11.91-107.43 17.94-162.26 17.94s-109.42-6.03-162.26-17.94c-6.26-1.41-12.66.73-16.83 5.34-4.95-5.46-5.95-13.49-2.41-20.05 3.73-6.9 11.59-10.47 19.24-8.75 52.84 11.91 107.43 17.94 162.26 17.94s109.42-6.03 162.26-17.94c7.65-1.72 15.51 1.85 19.24 8.75 3.54 6.56 2.54 14.59-2.41 20.05z" fill="#1c96f9"/></g><g><path d="m229.611 497h-102.185l3.447-26.014 28.787-15.908c1.428-.789 2.559-2.021 3.223-3.511l2.787-6.253c.166.011.33.025.499.025h14.359c4.142 0 7.5-3.357 7.5-7.5s-3.358-7.5-7.5-7.5h-8.183l.674-1.512c1.687-3.783-.013-8.218-3.796-9.904-3.784-1.688-8.217.014-9.904 3.797l-9.113 20.444-22.416 12.388-6.165-15.694c-1.514-3.855-5.866-5.75-9.723-4.238-3.855 1.515-5.753 5.867-4.238 9.723l8.228 20.943c.106.27.24.518.372.768l-3.969 29.946h-74.795c-12.407 0-22.5-10.094-22.5-22.5v-255.22c0-.662.265-1.304.736-1.77l22.712-22.563c4.224-4.199 6.013-10.186 4.788-16.013-1.226-5.829-5.277-10.589-10.844-12.736l-15.782-6.066c-.963-.371-1.61-1.313-1.61-2.342v-120.29c0-12.406 10.093-22.5 22.5-22.5h88.497c4.142 0 7.5-3.357 7.5-7.5s-3.358-7.5-7.5-7.5h-88.497c-20.678 0-37.5 16.822-37.5 37.5v120.29c0 7.185 4.505 13.75 11.219 16.341l15.783 6.067c1.109.428 1.451 1.326 1.555 1.824.104.496.154 1.454-.683 2.286l-22.7 22.551c-3.288 3.255-5.174 7.783-5.174 12.421v255.22c0 20.678 16.822 37.5 37.5 37.5h192.111c4.142 0 7.5-3.357 7.5-7.5s-3.358-7.5-7.5-7.5z"/><path d="m497.56 77.02-8.667-1.539c-1.195-.212-2.063-1.247-2.063-2.461v-28.432c0-5.402-2.436-10.416-6.683-13.757l-11.48-9.027c-3.07-2.414-6.911-3.743-10.817-3.743h-14.981c-.659 0-1.281-.254-1.751-.716l-12.567-12.334c-3.292-3.232-7.646-5.011-12.259-5.011h-261.194c-4.142 0-7.5 3.357-7.5 7.5s3.358 7.5 7.5 7.5h171.856c.014.061.021.122.037.183l5.068 20c.638 2.52 2.536 4.529 5.014 5.311l2.906.917-6.061 17.827c-1.333 3.922.765 8.182 4.687 9.515.8.272 1.614.401 2.415.401 3.124 0 6.039-1.966 7.1-5.088l6.168-18.143 5.592 1.764c.75.237 1.511.35 2.258.35 3.186 0 6.142-2.047 7.151-5.246 1.246-3.95-.947-8.163-4.897-9.408l-18.819-5.936-3.156-12.447h73.875c.659 0 1.281.254 1.751.716l12.566 12.334c3.292 3.231 7.646 5.011 12.258 5.011h14.981c.558 0 1.107.189 1.545.534l11.48 9.027c.607.478.956 1.193.956 1.966v28.432c0 8.498 6.073 15.744 14.44 17.23l8.667 1.539c1.195.212 2.063 1.247 2.063 2.461v380.25c0 12.406-10.093 22.5-22.5 22.5h-13.329l-16.635-22.095c-2.774-3.692-6.997-6.18-11.607-6.826l-23.313-3.199c-5.934-.812-11.797 1.42-15.673 5.962l-7.931 9.262c-.471.551-1.158.866-1.883.866h-68.48c-6.349 0-12.213 3.45-15.308 9.011l-3.176 5.722c-.445.801-1.287 1.298-2.196 1.298h-36.259c-4.142 0-7.5 3.357-7.5 7.5s3.358 7.5 7.5 7.5h36.259c6.349 0 12.213-3.45 15.308-9.011l3.176-5.722c.445-.801 1.287-1.298 2.196-1.298h68.48c5.113 0 9.953-2.228 13.277-6.111l7.938-9.271c.552-.646 1.39-.964 2.235-.847l23.288 3.196c.668.093 1.278.449 1.68.983l18.89 25.09c1.417 1.883 3.636 2.989 5.992 2.989h17.07c20.678 0 37.5-16.822 37.5-37.5v-380.249c.002-8.498-6.071-15.744-14.438-17.23z"/><path d="m279.899 395.611c13.052-42.52 34.036-86.844 64.149-135.508 26.574-42.944 58.69-82.789 95.458-118.427 8.008-7.76 9.896-20.032 4.592-29.842-5.303-9.809-16.604-14.953-27.486-12.498-52.298 11.783-106.335 17.758-160.612 17.758s-108.314-5.975-160.613-17.757c-10.881-2.452-22.181 2.69-27.484 12.497-5.305 9.811-3.417 22.083 4.591 29.843 36.768 35.638 68.884 75.482 95.458 118.427 30.113 48.664 51.096 92.988 64.148 135.508 3.243 10.564 12.848 17.663 23.899 17.663s20.657-7.099 23.9-17.664zm-33.459-4.402c-13.434-43.762-34.936-89.229-65.733-138.998-27.224-43.995-60.12-84.808-97.774-121.306-3.203-3.104-3.958-8.013-1.836-11.937 1.768-3.27 5.202-5.241 8.815-5.241.723 0 1.453.079 2.179.242 53.378 12.026 108.525 18.124 163.909 18.124s110.531-6.098 163.908-18.124c4.353-.976 8.874 1.076 10.995 4.998v.001c2.122 3.924 1.367 8.833-1.836 11.937-37.654 36.498-70.55 77.311-97.774 121.306-30.798 49.77-52.299 95.236-65.733 138.998-1.297 4.227-5.139 7.065-9.56 7.065s-8.263-2.838-9.56-7.065z"/><path d="m262.921 339.916c13.129-31.46 29.93-63.592 51.364-98.23 18.612-30.075 39.981-58.959 63.514-85.848 2.073-2.369 2.446-5.779.935-8.541s-4.589-4.29-7.698-3.814c-37.853 5.714-76.556 8.611-115.035 8.611s-77.182-2.897-115.035-8.611c-3.112-.47-6.187 1.054-7.698 3.814-1.512 2.762-1.138 6.172.935 8.541 20.318 23.216 39.088 48.007 55.789 73.683 2.258 3.473 6.905 4.457 10.376 2.198 3.472-2.259 4.456-6.904 2.198-10.376-13.527-20.797-28.378-41.023-44.292-60.332 32.316 4.04 65.101 6.083 97.728 6.083 32.625 0 65.413-2.044 97.727-6.083-19.07 23.137-36.581 47.549-52.197 72.782-18.269 29.524-33.255 57.303-45.53 84.432-10.522-23.255-23.02-46.942-37.943-71.946-2.124-3.558-6.728-4.72-10.284-2.597-3.557 2.123-4.719 6.728-2.596 10.284 17.97 30.108 32.331 58.223 43.902 85.95 1.166 2.793 3.895 4.611 6.921 4.611s5.754-1.818 6.919-4.611z"/><path d="m454.86 330.783c-3.647-1.963-8.195-.601-10.16 3.045l-4.808 8.923c-1.042 1.935-1.184 4.229-.387 6.278l6.615 16.997c1.154 2.966 3.989 4.781 6.991 4.781.904 0 1.825-.165 2.718-.513 3.86-1.502 5.771-5.85 4.269-9.71l-5.359-13.769 3.165-5.873c1.966-3.645.603-8.194-3.044-10.159z"/><path d="m264.712 67.243c2.052 0 4.097-.838 5.577-2.483l7.602-8.447c2.771-3.078 2.521-7.82-.558-10.592-3.08-2.771-7.822-2.521-10.592.559l-7.602 8.447c-2.771 3.078-2.521 7.82.558 10.592 1.434 1.289 3.228 1.924 5.015 1.924z"/><path d="m89.795 393.508h.072c4.109 0 7.459-3.312 7.498-7.43.039-4.142-3.287-7.531-7.429-7.57l-.104-.001c-.024 0-.048 0-.072 0-4.109 0-7.459 3.312-7.498 7.43-.039 4.142 3.287 7.531 7.429 7.57z"/><path d="m113.744 403.476.103.001h.073c4.109 0 7.459-3.312 7.498-7.429.04-4.143-3.287-7.531-7.428-7.571l-.103-.001c-4.125-.005-7.531 3.287-7.571 7.429s3.287 7.531 7.428 7.571z"/><path d="m439.73 263.898-.104-.001c-.024 0-.048 0-.072 0-4.109 0-7.459 3.312-7.498 7.43-.039 4.142 3.287 7.531 7.429 7.57l.104.001h.072c4.109 0 7.459-3.312 7.498-7.43.039-4.141-3.287-7.53-7.429-7.57z"/><path d="m232.042 81.659c4.142 0 7.5-3.357 7.5-7.5s-3.358-7.5-7.5-7.5h-.103c-4.142 0-7.5 3.357-7.5 7.5s3.358 7.5 7.5 7.5z"/></g></g></svg>