<svg id="Capa_1" enable-background="new 0 0 512.001 512.001" height="512" viewBox="0 0 512.001 512.001" width="512" xmlns="http://www.w3.org/2000/svg"><g><path d="m241 0h30v61h-30z"/><path d="m151 422v15c0 51.983 51.885 74.804 104.415 75 .236.001.468.001.704.001 52.553 0 104.881-22.975 104.881-75.001v-15h-60v-93.57c17.461-6.191 30-22.874 30-42.43v-3.541l-35.729-71.459h-24.271v-2.58c17.459-6.192 30-22.865 30-42.42 0-7.485-1.959-15.114-5.666-22.061l-39.334-67.836-39.333 67.835c-3.707 6.947-5.667 14.576-5.667 22.062 0 19.555 12.541 36.228 30 42.42v2.58h-30v41.459l-30 60v3.541c0 19.556 12.539 36.239 30 42.43v63.57zm92.027-263.734 12.973-22.369 12.974 22.368c1.345 2.587 2.026 5.188 2.026 7.735 0 8.271-6.729 15-15 15s-15-6.729-15-15c0-2.547.682-5.147 2.027-7.734zm-2.027 101.275v-18.541h35.729l23.978 47.956c-1.375 6.86-7.447 12.044-14.707 12.044h-15v121h-30v-91h-15c-7.259 0-13.331-5.184-14.708-12.044zm86.893 192.459c-10.6 22.922-46.491 30.002-71.778 30.001-.194 0-.393 0-.587-.001-28.557-.106-61.092-8.307-71.294-30z"/><path d="m30 271v30h-30v30h30v30h30v-30h30v-30h-30v-30z"/><path d="m482 271h-30v30h-30v30h30v30h30v-30h30v-30h-30z"/><path d="m61 181h60v30h-60z"/><path d="m391 181h60v30h-60z"/><path d="m124.354 43.103h30v72.5h-30z" transform="matrix(.707 -.707 .707 .707 -15.295 121.781)"/><path d="m336.398 64.353h72.5v30h-72.5z" transform="matrix(.707 -.707 .707 .707 53.035 286.744)"/></g></svg>