<svg id="Capa_1" enable-background="new 0 0 512 512" height="512" viewBox="0 0 512 512" width="512" xmlns="http://www.w3.org/2000/svg"><g><g><path d="m361.9 436.424c-15.46 0-29.85-3.96-42.31-10.86-2.037-28.912-.936-49.569-5.906-74.848l-13.206-63.949c19.79-4.67 47.211-3.262 68.721-7.323 23.18-.41 46.15-2.8 66.83-7.15l11.75 59.71c10.641 54.08-30.759 104.42-85.879 104.42z" fill="#d7ddf5"/><path d="m326.9 351.414c4.97 25.28 2.29 50.97-7.31 74.15-31.95-17.68-51.24-54.65-43.58-93.56l-.46-62.59c27.77 7.27 60.93 10.61 93.65 10.03-15.48 7.02-33.22 12.89-53.01 17.56z" fill="#c5cff1"/><path d="m504.5 232.164c0 16-9.11 30.61-23.5 37.61-6.686 3.251-14.105 6.137-22.094 8.663-12.18-2.832-24.748.57-33.519 7.977-27.214 4.695-57.563 6.206-86.788 4.521 11.834-12.66 23.148-19.115 33.11-25.805 20.972-14.085 38.2-33.085 38.2-65.985 0-26.71-9.805-45.604-30.805-62.123l-13.085-24.837c8.5.77 16.82 3.94 23.9 9.51l49.99 39.34 8.29 17.8 21.88 5.93 18.45 14.52c10.081 7.929 15.971 20.049 15.971 32.879z" fill="#fd7a6e"/><path d="m423.12 199.144c0 32.9-19.09 63.45-48.65 77.83-10.79 5.25-22.78 9.91-35.87 13.96-36.44-2.1-71.13-9.15-95.81-21.16-14.39-7-23.5-21.61-23.5-37.61 0-12.83 5.89-24.95 15.97-32.88l98.61-77.59c9.36-7.36 20.9-10.53 32.15-9.51l24.06 18.93c21 16.52 33.04 41.32 33.04 68.03z" fill="#fb695b"/><path d="m264.87 451.394c-86.2-22.345-118.008-119.537-103.83-185.57 39.22 2.83 80.32 1.38 117.59-4.38l18.83 95.76c7.22 36.73-6.77 71.92-32.59 94.19z" fill="#f3f5fc"/><path d="m264.87 451.394c-17.19 14.83-39.64 23.93-64.56 23.93-62.35 0-109.18-56.94-97.15-118.12l18.83-95.76c12.65 1.96 25.74 3.41 39.05 4.38 11.96 67.76 45.51 133.95 103.83 185.57z" fill="#d7ddf5"/><path d="m393.12 199.144c0 21.63-12.32 41.39-31.77 50.85-48.71 23.71-126.24 33.13-197.87 28.28-56.65-76.423-20.002-201.727 42.68-241.32 11.39 1.09 22.54 5.37 32.04 12.84l21.61 17 8.23 19.39 21.5 4 81.99 64.51c13.63 10.72 21.59 27.11 21.59 44.45z" fill="#ff938a"/><path d="m163.48 278.274c-47.31-3.2-92.04-12.63-124.21-28.28-19.45-9.46-31.77-29.22-31.77-50.85 0-17.34 7.96-33.73 21.59-44.45l81.99-64.51 23.93-4 5.8-19.39 21.61-17c12.74-10.02 28.45-14.3 43.74-12.84-44.81 66.65-61.18 155.88-42.68 241.32z" fill="#fd7a6e"/><circle cx="307.739" cy="201.852" fill="#f3f5fc" r="21.641"/><circle cx="92.882" cy="201.852" fill="#d7ddf5" r="21.641"/><circle cx="200.311" cy="164.294" fill="#f3f5fc" r="21.641"/><path d="m259.814 66.796c-7.8 3.271-13.279 10.977-13.279 19.964 0 11.952 9.689 21.641 21.641 21.641 10.786 0 19.726-7.892 21.368-18.215z" fill="#f3f5fc"/><g fill="#d7ddf5"><path d="m132.445 108.401c11.952 0 21.641-9.689 21.641-21.641 0-8.987-5.479-16.694-13.279-19.964l-29.73 23.39c1.643 10.324 10.583 18.215 21.368 18.215z"/><path d="m439.911 161.03c-7.507 3.396-12.734 10.946-12.734 19.722 0 11.952 9.689 21.641 21.641 21.641 10.579 0 19.38-7.593 21.263-17.626z"/><path d="m439.115 248.044c-11.952 0-21.641 9.689-21.641 21.641 0 6.74 3.082 12.76 7.913 16.729 11.89-2.051 23.182-4.708 33.519-7.977 1.186-2.677 1.849-5.636 1.849-8.752.001-11.952-9.688-21.641-21.64-21.641z"/></g></g><g><path d="m493.171 193.416-98.592-77.568c-18.277-14.485-43.768-14.998-62.793-1.943l-88.945-69.979c-25.041-19.703-60.019-19.701-85.061 0l-87.54 68.873c-3.255 2.562-3.818 7.276-1.257 10.532 2.562 3.256 7.278 3.817 10.532 1.257l28.255-22.23c5.18 8.256 14.332 13.571 24.674 13.571 16.068 0 29.141-13.072 29.141-29.141 0-7.752-3.056-14.962-8.234-20.292l13.704-10.782c19.58-15.406 46.93-15.406 66.51 0l13.704 10.782c-5.178 5.33-8.234 12.539-8.234 20.292 0 16.068 13.072 29.141 29.141 29.141 10.342 0 19.494-5.315 24.674-13.571l74.045 58.256c11.901 9.363 18.726 23.417 18.726 38.559 0 18.65-10.815 35.964-27.553 44.107-78.141 38.021-237.373 38.021-315.516 0-16.737-8.143-27.552-25.457-27.552-44.107 0-15.142 6.825-29.195 18.726-38.559l18.277-14.381c3.255-2.562 3.818-7.277 1.256-10.532-2.561-3.256-7.276-3.816-10.532-1.257l-18.277 14.381c-15.538 12.226-24.45 30.577-24.45 50.348 0 24.351 14.127 46.958 35.99 57.596 20.77 10.106 46.544 17.68 74.818 22.724l-15.006 76.291c-6.17 31.369 1.938 63.522 22.247 88.214 20.308 24.692 50.292 38.854 82.262 38.854s61.954-14.161 82.262-38.853c6.293-7.651 11.411-16.02 15.3-24.859 17.398 15.889 40.133 24.813 64.023 24.813 15.466 0 30.186-3.573 43.749-10.62 3.675-1.909 5.107-6.438 3.197-10.113-1.909-3.675-6.438-5.107-10.113-3.197-11.406 5.926-23.798 8.931-36.833 8.931-22.318 0-43.44-9.246-58.555-25.493 4.044-15.361 4.636-31.62 1.478-47.676l-12.352-62.797c22.058 4.177 45.787 6.208 69.327 6.208 24.468 0 48.714-2.19 70.621-6.415l8.005 40.7c4.64 23.594-1.468 47.771-16.759 66.332-2.634 3.196-2.177 7.924 1.02 10.558 3.177 2.622 7.913 2.19 10.557-1.021 18.157-22.039 25.41-50.747 19.899-78.764l-8.07-41.03c12.66-3.126 26.128-7.586 37.215-13.01 16.839-8.194 27.718-25.604 27.718-44.356 0-15.227-6.863-29.359-18.829-38.774zm-346.585-106.628c0 7.797-6.343 14.141-14.141 14.141-5.576 0-10.431-3.186-12.729-7.969l21.722-17.09c3.211 2.641 5.148 6.61 5.148 10.918zm292.842 83.432 21.862 17.2c-2.4 4.509-7.137 7.499-12.473 7.499-7.797 0-14.141-6.344-14.141-14.141.001-4.091 1.786-7.915 4.752-10.558zm-171.252-69.291c-7.797 0-14.141-6.344-14.141-14.141 0-4.308 1.937-8.277 5.148-10.918l21.722 17.09c-2.298 4.783-7.153 7.969-12.729 7.969zm2.811 333.541c-17.448 21.214-43.209 33.381-70.677 33.381s-53.229-12.167-70.677-33.382c-17.448-21.214-24.415-48.839-19.114-75.791l15.107-76.809c23.957 3.439 49.317 5.164 74.684 5.162 25.362-.001 50.723-1.726 74.683-5.166.004.021 15.108 76.813 15.108 76.813 5.301 26.952-1.665 54.577-19.114 75.792zm153.988-164.758c0-7.797 6.343-14.141 14.141-14.141 8.757-.096 15.64 8.241 13.876 16.815-7.842 2.301-16.265 4.275-25.107 5.91-1.872-2.442-2.91-5.439-2.91-8.584zm52.746-6.656c-3.016 1.468-6.219 2.86-9.577 4.181-1.261-14.913-13.794-26.665-29.028-26.665-16.068 0-29.141 13.072-29.141 29.141 0 3.86.757 7.613 2.182 11.081-37.189 4.978-79.535 4.408-116.293-2.432 25.9-5.019 49.494-12.214 68.767-21.592 21.863-10.637 35.99-33.245 35.99-57.596 0-19.771-8.912-38.122-24.451-50.348l-31.791-25.012c13.056-6.747 29.087-5.558 40.904 3.807l42.28 33.264c-4.959 5.308-7.886 12.379-7.886 19.894 0 16.068 13.072 29.141 29.141 29.141 10.06 0 19.105-5.149 24.362-13.145l10.717 8.431c8.327 6.551 13.103 16.387 13.103 26.984 0 13.051-7.568 25.168-19.279 30.866z"/><path d="m336.88 201.879c0-16.068-13.072-29.141-29.141-29.141s-29.141 13.072-29.141 29.141 13.072 29.141 29.141 29.141 29.141-13.073 29.141-29.141zm-43.281 0c0-7.797 6.343-14.141 14.141-14.141s14.141 6.344 14.141 14.141-6.343 14.141-14.141 14.141-14.141-6.344-14.141-14.141z"/><path d="m122.022 201.879c0-16.068-13.072-29.141-29.141-29.141s-29.141 13.072-29.141 29.141 13.072 29.141 29.141 29.141 29.141-13.073 29.141-29.141zm-43.281 0c0-7.797 6.343-14.141 14.141-14.141s14.141 6.344 14.141 14.141-6.343 14.141-14.141 14.141-14.141-6.344-14.141-14.141z"/><path d="m229.451 164.321c0-16.068-13.072-29.141-29.141-29.141s-29.141 13.072-29.141 29.141 13.072 29.141 29.141 29.141 29.141-13.072 29.141-29.141zm-43.281 0c0-7.797 6.343-14.141 14.141-14.141s14.141 6.344 14.141 14.141-6.343 14.141-14.141 14.141-14.141-6.344-14.141-14.141z"/></g></g></svg>