<svg id="Capa_1" enable-background="new 0 0 512 512" height="512" viewBox="0 0 512 512" width="512" xmlns="http://www.w3.org/2000/svg"><g><g><path d="m373.002 107.31c0-33.947 23.864-61.466 70.031-61.466 33.947 0 61.466 27.519 61.466 61.466s-27.519 61.466-61.466 61.466h-70.031z" fill="#fad989"/><path d="m443.03 45.84c-33.94 0-61.46 27.52-61.46 61.47v105.526c0 1.78-1.176 3.345-2.885 3.841l-40.285 11.713c-5.81 1.69-5.81 9.91 0 11.6l40.287 11.721c1.708.497 2.883 2.062 2.883 3.841v79.117c0 1.43-.763 2.751-2.002 3.465l-9.668 5.576c-4.03 2.33-4.03 8.14 0 10.47l9.668 5.576c1.239.714 2.002 2.035 2.002 3.465v41.469c0 33.95-27.52 61.47-61.47 61.47-14.42 0-28.58-1.76-28.58-1.76l-66.46-30.11c-139.434-94.612-139.99-317.336-26.38-388.45z" fill="#fbf198"/><path d="m225.06 434.29-165.46-74.98v-78.51c0-1.429.763-2.75 2-3.464l18.72-10.805c3.22-1.86 3.22-6.51 0-8.37l-18.72-10.806c-1.238-.714-2-2.035-2-3.464v-81.198c0-1.779 1.175-3.344 2.883-3.841l22.757-6.621c4.643-1.351 4.643-7.929 0-9.28l-22.757-6.621c-1.708-.497-2.883-2.062-2.883-3.841v-25.179c0-33.949 27.521-61.47 61.47-61.47h77.61c-84.54 96.32-85.84 276.48 26.38 388.45z" fill="#fad989"/><path d="m320.1 466.16h-57.26c-67.876-21.161-110.476-69.166-99.71-122.94h108.86c5.56 0 9.91 4.79 9.38 10.32-.22 2.28-1.25 4.41-2.94 5.96-12.17 11.23-19.8 27.32-19.8 45.19 0 33.95 27.52 61.47 61.47 61.47z" fill="#fad989"/><path d="m262.84 466.16h-193.87c-33.95 0-61.47-27.52-61.47-61.47s27.52-61.47 61.47-61.47h94.16c20.29 46.75 53.12 89.79 99.71 122.94z" fill="#fdc072"/><g fill="#ffa1ac"><ellipse cx="142.207" cy="182.433" rx="28.919" ry="23.03"/><ellipse cx="298.96" cy="182.433" rx="28.92" ry="23.03"/></g></g><g><path d="m443.034 38.344h-129.663c-4.142 0-7.5 3.357-7.5 7.5s3.358 7.5 7.5 7.5h86.766c-15.875 12.646-26.07 32.139-26.07 53.966v102.897l-37.766 10.983c-5.838 1.697-9.76 6.923-9.76 13.003 0 6.079 3.923 11.304 9.76 13.001l37.766 10.982v74.469l-7.92 4.572c-4.24 2.448-6.771 6.832-6.771 11.729 0 4.896 2.532 9.278 6.771 11.725l7.92 4.573v39.446c0 29.757-24.209 53.966-53.966 53.966-29.758 0-53.967-24.209-53.967-53.966 0-15.022 6.337-29.484 17.387-39.678 3.03-2.796 4.917-6.614 5.314-10.753.454-4.736-1.121-9.473-4.321-12.995-3.2-3.521-7.764-5.541-12.522-5.541h-136.954c-4.142 0-7.5 3.357-7.5 7.5s3.358 7.5 7.5 7.5h136.955c1.744-.007 2.537 2.081 1.356 3.265-14.118 13.024-22.215 31.504-22.215 50.702 0 21.827 10.194 41.32 26.07 53.966h-208.238c-29.757 0-53.966-24.209-53.966-53.966 0-29.758 24.209-53.967 53.966-53.967h31.071c4.142 0 7.5-3.357 7.5-7.5s-3.358-7.5-7.5-7.5h-32.937v-52.906l16.967-9.795c3.86-2.229 6.165-6.223 6.165-10.681 0-4.457-2.305-8.45-6.166-10.68l-16.966-9.794v-76.552l20.232-5.885c5.316-1.546 8.888-6.305 8.888-11.842 0-5.536-3.572-10.295-8.889-11.842l-20.231-5.882v-22.554c0-29.757 24.209-53.966 53.966-53.966h157.305c4.142 0 7.5-3.357 7.5-7.5s-3.358-7.5-7.5-7.5h-157.305c-38.028 0-68.966 30.938-68.966 68.966v28.185c0 3.336 2.203 6.271 5.406 7.202l16.829 4.894-16.829 4.895c-3.203.931-5.406 3.865-5.406 7.201v86.512c0 2.68 1.43 5.155 3.75 6.495l16.715 9.649-16.715 9.65c-2.32 1.34-3.75 3.815-3.75 6.495v59.331c-29.901 7.544-52.1 34.66-52.1 66.871 0 38.028 30.938 68.966 68.966 68.966h251.134c38.029 0 68.967-30.938 68.967-68.966v-43.776c0-2.68-1.429-5.155-3.75-6.495l-9.481-5.475 9.481-5.474c2.32-1.34 3.75-3.815 3.75-6.495v-84.429c0-3.336-2.203-6.271-5.406-7.202l-38.353-11.152 38.353-11.154c3.203-.931 5.406-3.865 5.406-7.201v-39.561h53.966c38.028 0 68.966-30.938 68.966-68.967s-30.937-68.965-68.965-68.965zm0 122.932h-53.966v-53.966c0-29.757 24.209-53.966 53.966-53.966s53.966 24.209 53.966 53.966-24.209 53.966-53.966 53.966z"/><path d="m159.061 151.106c3.455 0 6.265 2.811 6.265 6.266 0 4.143 3.358 7.5 7.5 7.5s7.5-3.357 7.5-7.5c0-11.726-9.54-21.266-21.265-21.266s-21.265 9.54-21.265 21.266c0 4.143 3.358 7.5 7.5 7.5s7.5-3.357 7.5-7.5c0-3.455 2.81-6.266 6.265-6.266z"/><path d="m260.841 157.372c0 4.143 3.358 7.5 7.5 7.5s7.5-3.357 7.5-7.5c0-3.455 2.811-6.266 6.265-6.266s6.265 2.811 6.265 6.266c0 4.143 3.358 7.5 7.5 7.5s7.5-3.357 7.5-7.5c0-11.726-9.54-21.266-21.265-21.266s-21.265 9.54-21.265 21.266z"/><path d="m220.583 187.612c7.764 0 15.147-3.362 20.256-9.225 2.721-3.123 2.396-7.861-.727-10.582-3.123-2.722-7.861-2.396-10.582.727-2.259 2.593-5.521 4.08-8.947 4.08s-6.688-1.487-8.947-4.08c-2.721-3.122-7.459-3.448-10.582-.727s-3.448 7.459-.727 10.582c5.11 5.863 12.493 9.225 20.256 9.225z"/><path d="m282.106 242.5h-123.045c-4.142 0-7.5 3.357-7.5 7.5s3.358 7.5 7.5 7.5h123.045c4.142 0 7.5-3.357 7.5-7.5s-3.358-7.5-7.5-7.5z"/><path d="m282.106 280.869h-123.045c-4.142 0-7.5 3.357-7.5 7.5s3.358 7.5 7.5 7.5h123.045c4.142 0 7.5-3.357 7.5-7.5s-3.358-7.5-7.5-7.5z"/></g></g></svg>