<svg id="Capa_1" enable-background="new 0 0 512 512" height="512" viewBox="0 0 512 512" width="512" xmlns="http://www.w3.org/2000/svg"><g><g><path d="m504.5 94.251v380.249c0 16.569-13.431 30-30 30h-17.07l-18.89-25.09c-1.6-2.13-3.99-3.53-6.63-3.9l-23.31-3.2c-3.37-.46-6.75.82-8.96 3.41l-7.929 9.261c-1.896 2.214-4.665 3.489-7.581 3.489h-68.48c-3.64 0-6.98 1.97-8.75 5.15l-3.18 5.73c-1.77 3.18-5.11 5.15-8.75 5.15h-257.47c-16.569 0-30-13.431-30-30v-255.22c0-2.66 1.06-5.22 2.95-7.09l22.71-22.56c5.14-5.11 3.31-13.82-3.46-16.43l-15.79-6.07c-3.86-1.49-6.41-5.2-6.41-9.34v-120.29c0-16.569 13.431-30 30-30h378.792c2.62 0 5.135 1.028 7.005 2.863l12.566 12.333c1.87 1.835 4.385 2.863 7.005 2.863h14.982c2.242 0 4.419.753 6.181 2.139l11.481 9.028c2.411 1.896 3.819 4.794 3.819 7.861v28.432c0 4.848 3.478 8.998 8.251 9.846l8.667 1.539c4.773.848 8.251 4.998 8.251 9.847z" fill="#b5adb6"/><g fill="#a69ca7"><path d="m292.449 457.84c-17.636 0-32.467-12.236-36.449-28.665-3.982 16.429-18.813 28.665-36.449 28.665h-62.103c-20.678 0-37.5-16.822-37.5-37.5s16.822-37.5 37.5-37.5h24.603v-87.476c-47.015-26.473-76.738-76.684-76.738-131.337 0-83.089 67.598-150.687 150.687-150.687 83.09 0 150.688 67.598 150.688 150.687 0 54.653-29.724 104.864-76.738 131.337v87.476h24.602c20.678 0 37.5 16.822 37.5 37.5s-16.822 37.5-37.5 37.5zm-36.449-369.499c-41.734 0-75.687 33.953-75.687 75.687 0 32.444 20.619 61.252 51.308 71.685 12.348 4.195 21.407 14.389 24.38 26.673 2.972-12.281 12.031-22.475 24.378-26.673 30.689-10.433 51.309-39.24 51.309-71.685 0-41.734-33.954-75.687-75.688-75.687z"/><path d="m504.5 94.25v380.25c0 16.57-13.43 30-30 30h-17.07l-4.06-5.4c7.76-5.41 12.84-14.41 12.84-24.6v-380.25c0-4.85-3.48-9-8.25-9.85l-8.67-1.53c-4.77-.85-8.25-5-8.25-9.85v-28.43c0-3.07-1.41-5.97-3.82-7.86l-11.48-9.03c-1.76-1.39-3.94-2.14-6.18-2.14h-14.98c-2.62 0-5.14-1.03-7.01-2.86l-12.56-12.34c-1.87-1.83-4.39-2.86-7.01-2.86h38.29c2.62 0 5.14 1.03 7.01 2.86l12.56 12.34c1.87 1.83 4.39 2.86 7.01 2.86h14.98c2.24 0 4.42.75 6.18 2.14l11.48 9.03c2.41 1.89 3.82 4.79 3.82 7.86v28.43c0 4.85 3.48 9 8.25 9.85l8.67 1.53c4.77.85 8.25 5 8.25 9.85z"/></g></g><g><path d="m354.551 437.84h-62.102c-9.665 0-17.5-7.835-17.5-17.5v-149.124c0-7.494 4.772-14.156 11.867-16.568 38.802-13.19 64.871-49.607 64.871-90.62 0-52.762-42.925-95.687-95.688-95.687-52.762 0-95.687 42.925-95.687 95.687 0 41.013 26.069 77.43 64.871 90.62 7.096 2.411 11.868 9.074 11.868 16.568v149.124c0 9.665-7.835 17.5-17.5 17.5h-62.103c-9.665 0-17.5-7.835-17.5-17.5s7.835-17.5 17.5-17.5h44.603v-119.743c-46.379-20.985-76.738-67.353-76.738-119.069 0-72.061 58.626-130.687 130.687-130.687 72.062 0 130.688 58.626 130.688 130.687 0 51.717-30.358 98.084-76.738 119.069v119.743h44.602c9.665 0 17.5 7.835 17.5 17.5s-7.836 17.5-17.501 17.5z" fill="#7a6e79"/></g><g><path d="m386.69 164.03c0 3.42-.13 6.81-.4 10.18-5.23-67.3-61.67-120.46-130.29-120.46s-125.06 53.16-130.29 120.46c-.27-3.37-.4-6.76-.4-10.18 0-72.06 58.63-130.69 130.69-130.69s130.69 58.63 130.69 130.69z" fill="#685e67"/></g><g><path d="m497.56 77.02-8.666-1.539c-1.196-.212-2.063-1.247-2.063-2.461v-28.432c0-5.401-2.435-10.415-6.683-13.757l-11.482-9.028c-3.069-2.413-6.91-3.742-10.815-3.742h-14.982c-.658 0-1.28-.254-1.75-.716l-12.568-12.333c-3.292-3.233-7.646-5.012-12.259-5.012h-378.792c-20.678 0-37.5 16.822-37.5 37.5v120.29c0 7.185 4.505 13.75 11.219 16.341l15.783 6.067c1.109.428 1.451 1.326 1.555 1.824.104.496.154 1.454-.683 2.286l-22.7 22.551c-3.288 3.255-5.174 7.783-5.174 12.421v255.22c0 20.678 16.822 37.5 37.5 37.5h66.12c4.142 0 7.5-3.357 7.5-7.5s-3.358-7.5-7.5-7.5h-66.12c-12.407 0-22.5-10.094-22.5-22.5v-241.555l34.103 21.707c1.217.774 2.616 1.173 4.028 1.173.75 0 1.504-.112 2.236-.342l6.696-2.092 3.305 11.129c.968 3.259 3.953 5.367 7.187 5.367.707 0 1.426-.101 2.138-.313 3.971-1.179 6.234-5.354 5.055-9.324l-3.366-11.334 6.015-1.879c3.954-1.235 6.157-5.441 4.922-9.396-1.236-3.953-5.445-6.161-9.396-4.921l-23.705 7.407-37.33-23.761 21.56-21.417c4.224-4.199 6.013-10.186 4.788-16.013-1.226-5.829-5.277-10.589-10.844-12.736l-15.782-6.066c-.963-.373-1.61-1.315-1.61-2.344v-120.29c0-12.406 10.093-22.5 22.5-22.5h378.792c.659 0 1.281.254 1.751.716l12.566 12.333c3.292 3.232 7.645 5.012 12.258 5.012h14.982c.558 0 1.106.19 1.545.534l11.479 9.026c.607.478.956 1.194.956 1.967v28.432c0 8.498 6.073 15.745 14.44 17.23l8.666 1.539c1.196.212 2.063 1.247 2.063 2.461v149.838l-61.832 37.26-27.141-4.927c-4.078-.735-7.979 1.965-8.72 6.04-.739 4.076 1.965 7.979 6.04 8.72l2.813.51-4.322 7.957c-1.977 3.64-.629 8.193 3.011 10.171 1.138.617 2.364.91 3.573.91 2.661 0 5.238-1.419 6.598-3.921l6.68-12.297 11.575 2.101c.445.08.894.12 1.34.12 1.355 0 2.695-.368 3.871-1.076l16.857-10.158-2.01 21.248c-.39 4.123 2.637 7.782 6.761 8.173.24.022.479.034.715.034 3.823 0 7.091-2.911 7.458-6.795l3.054-32.288 23.68-14.27v212.9c0 12.406-10.094 22.5-22.5 22.5h-13.329l-16.635-22.096c-2.775-3.692-6.997-6.179-11.606-6.825l-23.313-3.199c-5.938-.814-11.798 1.421-15.674 5.962l-7.929 9.261c-.472.551-1.158.867-1.884.867h-68.479c-6.35 0-12.214 3.45-15.308 9.01l-3.177 5.724c-.445.8-1.287 1.297-2.196 1.297h-162.249c-4.142 0-7.5 3.357-7.5 7.5s3.358 7.5 7.5 7.5h162.25c6.35 0 12.214-3.45 15.308-9.01l3.177-5.724c.445-.8 1.287-1.297 2.196-1.297h68.479c5.112 0 9.952-2.228 13.278-6.111l7.937-9.271c.552-.646 1.39-.964 2.235-.847l23.289 3.196c.667.093 1.278.45 1.679.983l18.891 25.09c1.416 1.883 3.636 2.989 5.991 2.989h17.07c20.678 0 37.5-16.822 37.5-37.5v-380.249c0-8.498-6.073-15.744-14.44-17.23z"/><path d="m256 75.841c20.151 0 39.136 6.65 54.903 19.232 3.238 2.584 7.957 2.053 10.54-1.185 2.584-3.237 2.054-7.956-1.185-10.54-18.188-14.514-41.009-22.507-64.258-22.507-56.897 0-103.187 46.289-103.187 103.187 0 44.226 28.113 83.496 69.958 97.722 4.056 1.378 6.781 5.183 6.781 9.467v56.064c0 4.143 3.358 7.5 7.5 7.5s7.5-3.357 7.5-7.5v-56.064c0-10.712-6.813-20.224-16.954-23.669-35.759-12.156-59.785-45.721-59.785-83.52 0-48.627 39.561-88.187 88.187-88.187z"/><path d="m394.188 164.027c0-76.196-61.99-138.187-138.188-138.187-76.197 0-138.187 61.99-138.187 138.187 0 52.545 29.963 100.615 76.738 123.813v107.5h-37.103c-13.785 0-25 11.215-25 25s11.215 25 25 25h62.103c13.785 0 25-11.215 25-25v-63.959c0-4.143-3.358-7.5-7.5-7.5s-7.5 3.357-7.5 7.5v63.959c0 5.514-4.486 10-10 10h-62.103c-5.514 0-10-4.486-10-10s4.486-10 10-10h44.603c4.142 0 7.5-3.357 7.5-7.5v-119.743c0-2.945-1.725-5.619-4.408-6.833-43.939-19.881-72.33-63.937-72.33-112.236 0-67.925 55.261-123.187 123.187-123.187s123.188 55.262 123.188 123.187c0 48.3-28.392 92.355-72.33 112.236-2.684 1.214-4.408 3.888-4.408 6.833v119.743c0 4.143 3.357 7.5 7.5 7.5h44.602c5.514 0 10 4.486 10 10s-4.486 10-10 10h-62.102c-5.514 0-10-4.486-10-10v-149.124c0-4.284 2.726-8.089 6.781-9.468 41.844-14.225 69.957-53.495 69.957-97.721 0-20.63-6.096-40.557-17.627-57.626-2.318-3.432-6.979-4.335-10.413-2.017-3.433 2.319-4.335 6.981-2.017 10.413 9.851 14.58 15.057 31.604 15.057 49.229 0 37.799-24.025 71.363-59.785 83.52-10.141 3.447-16.953 12.959-16.953 23.669v149.125c0 13.785 11.215 25 25 25h62.102c13.785 0 25-11.215 25-25s-11.215-25-25-25h-37.102v-107.5c46.775-23.197 76.738-71.268 76.738-123.813z"/><path d="m99.854 316.227-16.492-7.789c-3.745-1.771-8.215-.166-9.985 3.578-1.769 3.745-.167 8.216 3.579 9.984l13.359 6.31 1.742 6.44c.904 3.343 3.93 5.544 7.235 5.544.648 0 1.307-.085 1.963-.262 3.998-1.082 6.363-5.2 5.281-9.198l-2.646-9.784c-.573-2.122-2.048-3.885-4.036-4.823z"/><path d="m108.064 71.279c-3.08-2.771-7.822-2.521-10.592.559l-7.602 8.447c-2.771 3.078-2.521 7.82.558 10.592 1.434 1.29 3.227 1.925 5.015 1.925 2.052 0 4.097-.838 5.577-2.483l7.602-8.447c2.771-3.079 2.522-7.821-.558-10.593z"/><path d="m436.232 143.809c1.434 1.291 3.228 1.926 5.016 1.926 2.052 0 4.096-.837 5.576-2.482l7.603-8.446c2.771-3.079 2.522-7.821-.557-10.592-3.078-2.771-7.821-2.522-10.592.557l-7.603 8.446c-2.771 3.078-2.522 7.82.557 10.591z"/><path d="m454.982 398.477c4.143 0 7.5-3.357 7.5-7.5s-3.357-7.5-7.5-7.5h-.104c-4.143 0-7.5 3.357-7.5 7.5s3.357 7.5 7.5 7.5z"/><path d="m287.739 167.862c-.023 0-.048 0-.072 0-4.108 0-7.459 3.312-7.498 7.43-.039 4.142 3.287 7.531 7.43 7.57l.104.001h.072c4.108 0 7.459-3.312 7.498-7.43.039-4.142-3.287-7.531-7.43-7.57z"/><path d="m99.35 58.592c4.142 0 7.5-3.357 7.5-7.5s-3.358-7.5-7.5-7.5h-.103c-4.142 0-7.5 3.357-7.5 7.5s3.358 7.5 7.5 7.5z"/></g></g></svg>