<svg id="Capa_1" enable-background="new 0 0 512 512" height="512" viewBox="0 0 512 512" width="512" xmlns="http://www.w3.org/2000/svg"><g><path d="m191.903 241.897 27.076 39.746 27.076-39.746 47.958-3.576-20.882-43.321 20.883-43.321-47.958-3.576-27.076-39.746-27.076 39.746-47.958 3.576 20.881 43.321-20.883 43.321zm-1.812-63.576 18.464-1.376 10.424-15.302 10.424 15.302 18.464 1.376-8.04 16.679 8.04 16.679-18.464 1.376-10.424 15.302-10.424-15.302-18.464-1.376 8.04-16.679z"/><path d="m218.979 330c74.439 0 135-60.561 135-135s-60.561-135-135-135-135 60.561-135 135 60.561 135 135 135zm0-240c57.897 0 105 47.103 105 105s-47.103 105-105 105-105-47.103-105-105 47.103-105 105-105z"/><path d="m29.951 146.238c-10.324 42.042-7.205 84.84 9.019 123.765 29.445 70.652 45.009 149.147 45.009 226.997v15h240v-61h90v-121h74.035l-74.035-109.592v-25.408c0-106.706-85.956-193.82-192.836-194.988-95.043-1.024-171.026 64.109-191.192 146.226zm190.864-116.228c89.969.983 163.164 74.997 163.164 164.99v34.592l47.564 70.408h-47.564v121h-90v61h-180.183c-1.871-76.83-18.07-153.799-47.135-223.538-13.74-32.965-16.359-69.298-7.575-105.069 18.013-73.351 84.398-124.221 161.729-123.383z"/></g></svg>