<svg id="Capa_1" enable-background="new 0 0 512 512" height="512" viewBox="0 0 512 512" width="512" xmlns="http://www.w3.org/2000/svg"><g><path d="m31 45v422c0 24.813 20.187 45 45 45h405v-30h-15c-8.271 0-15-6.729-15-15s6.729-15 15-15h15c0-15.841 0-432.978 0-452-23.936 0-383.561 0-405 0-24.813 0-45 20.187-45 45zm90-15h330v392h-330zm-60 15c0-8.271 6.729-15 15-15h15v60h-30zm0 75h30v212h-30zm0 242h30v60h-15c-5.258 0-10.305.915-15 2.58zm15 89.99h347.58c-1.665 4.695-2.58 9.752-2.58 15.01s.915 10.305 2.58 15h-347.58c-8.271 0-15-6.729-15-15s6.729-15.01 15-15.01z"/><path d="m313.076 179.103-27.076-39.746-27.076 39.746-47.958 3.576 20.882 43.321-20.883 43.321 47.958 3.576 27.077 39.746 27.076-39.746 47.959-3.576-20.883-43.321 20.883-43.321zm1.813 63.576-18.465 1.376-10.424 15.302-10.424-15.302-18.464-1.376 8.04-16.679-8.04-16.679 18.464-1.376 10.424-15.302 10.424 15.302 18.465 1.376-8.041 16.679z"/><path d="m391 75v-15h-210v15c0 8.271-6.729 15-15 15h-15v272h15c8.271 0 15 6.729 15 15v15h210v-15c0-8.271 6.729-15 15-15h15v-272h-15c-8.271 0-15-6.729-15-15zm0 259.57c-12.768 4.527-22.903 14.662-27.43 27.43h-155.14c-4.527-12.768-14.662-22.903-27.43-27.43v-217.14c12.768-4.527 22.903-14.662 27.43-27.43h155.14c4.526 12.768 14.662 22.903 27.43 27.43z"/></g></svg>