<svg id="Capa_1" enable-background="new 0 0 512 512" height="512" viewBox="0 0 512 512" width="512" xmlns="http://www.w3.org/2000/svg"><g><g><path d="m504.5 94.251v380.249c0 16.569-13.431 30-30 30h-17.07l-18.89-25.09c-1.6-2.13-3.99-3.53-6.63-3.9l-23.31-3.2c-3.37-.46-6.75.82-8.96 3.41l-7.929 9.261c-1.896 2.214-4.665 3.489-7.581 3.489h-68.48c-3.64 0-6.98 1.97-8.75 5.15l-3.18 5.73c-1.77 3.18-5.11 5.15-8.75 5.15h-257.47c-16.569 0-30-13.431-30-30v-255.22c0-2.66 1.06-5.22 2.95-7.09l22.71-22.56c5.14-5.11 3.31-13.82-3.46-16.43l-15.79-6.07c-3.86-1.49-6.41-5.2-6.41-9.34v-120.29c0-16.569 13.431-30 30-30h378.792c2.62 0 5.135 1.028 7.005 2.863l12.566 12.333c1.87 1.835 4.385 2.863 7.005 2.863h14.982c2.242 0 4.419.753 6.181 2.139l11.481 9.028c2.411 1.896 3.819 4.794 3.819 7.861v28.432c0 4.848 3.478 8.998 8.251 9.846l8.667 1.539c4.773.848 8.251 4.998 8.251 9.847z" fill="#ffd597"/><path d="m504.5 94.25v380.25c0 16.57-13.43 30-30 30h-17.07l-4.06-5.4c7.76-5.41 12.84-14.41 12.84-24.6v-380.25c0-4.85-3.48-9-8.25-9.85l-8.67-1.53c-4.77-.85-8.25-5-8.25-9.85v-28.43c0-3.07-1.41-5.97-3.82-7.86l-11.48-9.03c-1.76-1.39-3.94-2.14-6.18-2.14h-14.98c-2.62 0-5.14-1.03-7.01-2.86l-12.56-12.34c-1.87-1.83-4.39-2.86-7.01-2.86h38.29c2.62 0 5.14 1.03 7.01 2.86l12.56 12.34c1.87 1.83 4.39 2.86 7.01 2.86h14.98c2.24 0 4.42.75 6.18 2.14l11.48 9.03c2.41 1.89 3.82 4.79 3.82 7.86v28.43c0 4.85 3.48 9 8.25 9.85l8.67 1.53c4.77.85 8.25 5 8.25 9.85z" fill="#fcc16d"/></g><path d="m171.169 465.036c-20.678 0-37.5-16.822-37.5-37.5v-272.57h-20.253c-20.678 0-37.5-16.822-37.5-37.5s16.822-37.5 37.5-37.5h20.521c2.229-18.564 18.076-33.002 37.231-33.002s35.003 14.438 37.231 33.002h20.522c20.678 0 37.5 16.822 37.5 37.5s-16.822 37.5-37.5 37.5h-20.254v18.322h116.423c22.091 0 42.858 8.603 58.479 24.224 32.245 32.245 32.245 84.711 0 116.957l-57.467 57.467c-4.134 4.134-4.134 10.861.001 14.996 1.993 1.992 4.655 3.09 7.496 3.09 1.646 0 4.809-.401 7.498-3.091l30.967-30.968c7.084-7.084 16.501-10.984 26.518-10.984s19.434 3.9 26.517 10.982c14.62 14.623 14.62 38.414.001 53.034l-30.968 30.968c-16.15 16.148-37.647 25.042-60.532 25.042s-44.382-8.894-60.53-25.041c-33.376-33.378-33.375-87.686 0-121.062l57.467-57.467c1.476-1.475 2.256-3.358 2.256-5.445 0-2.088-.78-3.972-2.257-5.448-1.474-1.474-3.357-2.254-5.445-2.254h-116.422v179.248c0 20.678-16.822 37.5-37.5 37.5z" fill="#fcc16d"/><path d="m410.958 370.104c-6.834-6.834-17.915-6.833-24.749.001l-30.967 30.968c-11.932 11.933-31.348 11.933-43.279.001-11.933-11.933-11.933-31.348-.001-43.28l57.467-57.467c24.447-24.447 24.447-64.226 0-88.673-11.843-11.843-27.589-18.365-44.337-18.365h-136.423v-58.322h40.254c9.665 0 17.5-7.835 17.5-17.5s-7.835-17.5-17.5-17.5h-40.254v-15.503c0-9.665-7.835-17.5-17.5-17.5s-17.5 7.835-17.5 17.5v15.502h-40.253c-9.665 0-17.5 7.835-17.5 17.5s7.835 17.5 17.5 17.5h40.253v292.57c0 9.665 7.835 17.5 17.5 17.5s17.5-7.835 17.5-17.5v-199.248h136.423c7.399 0 14.356 2.882 19.589 8.113 5.231 5.232 8.113 12.189 8.113 19.589 0 7.398-2.882 14.355-8.113 19.588l-57.467 57.467c-25.578 25.578-25.578 67.197 0 92.776 12.789 12.789 29.588 19.184 46.388 19.184s33.6-6.395 46.39-19.184l30.968-30.969c6.833-6.833 6.832-17.914-.002-24.748z" fill="#fb9927"/><path d="m387.07 265.37c-1.945-12.974-7.951-25.445-18.019-35.346-11.912-11.715-28.144-17.984-44.852-17.984h-130.529c-2.761 0-5-2.239-5-5v-13.75h135.482c16.641 0 32.823 6.196 44.731 17.82 15.01 14.652 21.072 35.005 18.187 54.26z" fill="#f98824"/><path d="m246.417 117.153c.063 3.57-.945 6.894-2.717 9.687-3.1-4.88-8.56-8.12-14.78-8.12h-35.25c-2.761 0-5-2.239-5-5v-10.051c0-9.816-8.033-18.146-17.847-17.955-9.509.185-17.153 7.953-17.153 17.497v10.51c0 2.761-2.239 5-5 5h-35.25c-6.22 0-11.68 3.24-14.78 8.12-1.773-2.793-2.781-6.116-2.717-9.687.17-9.615 8.323-17.183 17.939-17.183h39.808v-15.511c0-9.544 7.643-17.312 17.153-17.497 9.814-.191 17.847 8.139 17.847 17.955v15.052h39.808c9.616 0 17.769 7.569 17.939 17.183z" fill="#f98824"/><g><path d="m504.5 300.734c-4.143 0-7.5 3.357-7.5 7.5v166.266c0 12.406-10.094 22.5-22.5 22.5h-13.329l-16.635-22.096c-2.775-3.692-6.997-6.179-11.606-6.825l-23.313-3.199c-5.938-.814-11.798 1.421-15.674 5.962l-7.929 9.261c-.472.551-1.158.867-1.884.867h-68.48c-6.35 0-12.214 3.45-15.308 9.01l-3.177 5.724c-.445.8-1.287 1.297-2.196 1.297h-257.469c-12.406-.001-22.5-10.095-22.5-22.501v-94.508h25.607c1.926 0 3.778-.741 5.173-2.069l5.018-4.779 17.618 9.005v25.819c0 4.143 3.357 7.5 7.5 7.5s7.5-3.357 7.5-7.5v-10.69l9.428 4.233c.998.448 2.041.66 3.068.66 2.862 0 5.598-1.648 6.846-4.43 1.697-3.779.009-8.218-3.77-9.914l-15.572-6.991v-3.276c0-2.816-1.578-5.396-4.086-6.678l-17.022-8.701 1.21-1.153c2.999-2.856 3.115-7.604.258-10.604-2.855-2.998-7.604-3.113-10.604-.258l-15.565 14.824h-22.607v-69.428c0-4.143-3.357-7.5-7.5-7.5s-7.5 3.357-7.5 7.5v178.938c0 20.678 16.822 37.5 37.5 37.5h257.47c6.35 0 12.214-3.45 15.308-9.01l3.177-5.724c.445-.8 1.287-1.297 2.196-1.297h68.479c5.112 0 9.952-2.228 13.278-6.111l7.937-9.271c.552-.646 1.389-.964 2.235-.847l23.289 3.196c.667.093 1.278.45 1.679.983l18.891 25.09c1.416 1.882 3.636 2.989 5.991 2.989h17.07c20.678 0 37.5-16.822 37.5-37.5v-166.264c0-4.142-3.357-7.5-7.5-7.5z"/><path d="m497.56 77.02-8.666-1.539c-1.196-.212-2.063-1.247-2.063-2.461v-28.432c0-5.401-2.435-10.415-6.683-13.757l-11.482-9.028c-3.069-2.413-6.91-3.742-10.815-3.742h-14.982c-.658 0-1.28-.254-1.75-.716l-12.568-12.333c-3.292-3.233-7.646-5.012-12.259-5.012h-378.792c-20.678 0-37.5 16.822-37.5 37.5v120.29c0 7.185 4.505 13.75 11.219 16.341l15.783 6.067c1.109.428 1.45 1.326 1.555 1.824.104.497.154 1.454-.683 2.286l-22.701 22.552c-3.287 3.255-5.173 7.783-5.173 12.42v47.183c0 4.143 3.357 7.5 7.5 7.5s7.5-3.357 7.5-7.5v-47.183c0-.662.265-1.304.735-1.77l22.713-22.563c4.224-4.199 6.013-10.186 4.788-16.013-1.227-5.829-5.277-10.589-10.845-12.736l-15.782-6.066c-.963-.371-1.609-1.313-1.609-2.342v-120.29c0-12.406 10.094-22.5 22.5-22.5h305.604v38.204c0 2.726 1.479 5.236 3.862 6.559l15.866 8.801-6.032 26.957c-.282 1.262-.233 2.575.142 3.813l6.758 22.306c.981 3.239 3.956 5.327 7.175 5.327.72 0 1.453-.104 2.178-.324 3.964-1.201 6.204-5.388 5.003-9.353l-6.186-20.418 4.638-20.723 35.939 19.935c1.138.631 2.39.941 3.637.941 1.688 0 3.366-.569 4.733-1.682l10.218-8.31 9.644 14.316c1.448 2.15 3.815 3.311 6.227 3.311 1.441 0 2.898-.415 4.184-1.281 3.436-2.313 4.344-6.975 2.029-10.41l-10.4-15.437 8.913-7.248c3.213-2.613 3.7-7.337 1.086-10.551-2.613-3.213-7.338-3.701-10.551-1.086l-26.879 21.86-57.183-31.718v-33.789h58.188c.659 0 1.281.254 1.751.716l12.566 12.333c3.292 3.232 7.645 5.012 12.258 5.012h14.982c.558 0 1.106.19 1.545.534l11.479 9.026c.607.478.956 1.194.956 1.967v28.432c0 8.498 6.073 15.744 14.44 17.23l8.666 1.539c1.196.212 2.063 1.247 2.063 2.461v184.883c0 4.143 3.357 7.5 7.5 7.5s7.5-3.357 7.5-7.5v-184.883c.001-8.498-6.072-15.744-14.439-17.23z"/><path d="m171.169 59.464c-13.785 0-25 11.215-25 25v8.002h-32.753c-13.785 0-25 11.215-25 25s11.215 25 25 25h32.753v285.07c0 13.785 11.215 25 25 25s25-11.215 25-25v-191.748h37.679c4.143 0 7.5-3.357 7.5-7.5s-3.357-7.5-7.5-7.5h-45.179c-4.143 0-7.5 3.357-7.5 7.5v199.248c0 5.514-4.486 10-10 10s-10-4.486-10-10v-292.57c0-4.143-3.357-7.5-7.5-7.5h-40.253c-5.514 0-10-4.486-10-10s4.486-10 10-10h40.253c4.143 0 7.5-3.357 7.5-7.5v-15.502c0-5.514 4.486-10 10-10s10 4.486 10 10v15.502c0 4.143 3.357 7.5 7.5 7.5h40.254c5.514 0 10 4.486 10 10s-4.486 10-10 10h-40.254c-4.143 0-7.5 3.357-7.5 7.5v58.322c0 4.143 3.357 7.5 7.5 7.5h136.423c14.745 0 28.607 5.742 39.033 16.169 21.523 21.522 21.523 56.543 0 78.065l-57.467 57.468c-14.855 14.856-14.854 39.03.001 53.887 7.188 7.187 16.756 11.146 26.943 11.145 10.188 0 19.756-3.958 26.943-11.146l30.967-30.967c1.889-1.89 4.399-2.93 7.071-2.93 2.671 0 5.183 1.04 7.07 2.928 3.899 3.9 3.9 10.244.001 14.144l-30.967 30.968c-10.955 10.954-25.547 16.987-41.087 16.987-15.539 0-30.13-6.033-41.084-16.986-22.654-22.655-22.654-59.517 0-82.17l57.467-57.468c6.648-6.649 10.31-15.489 10.31-24.891s-3.661-18.242-10.311-24.893c-6.649-6.648-15.489-10.31-24.892-10.31h-62.143c-4.143 0-7.5 3.357-7.5 7.5s3.357 7.5 7.5 7.5h62.143c5.396 0 10.47 2.102 14.285 5.916 3.815 3.816 5.917 8.89 5.917 14.286s-2.102 10.469-5.917 14.284l-57.467 57.467c-28.502 28.503-28.502 74.88 0 103.384 13.788 13.787 32.146 21.38 51.691 21.38s37.904-7.593 51.693-21.38l30.968-30.969c9.746-9.747 9.746-25.607-.001-35.356-4.723-4.722-11.001-7.321-17.679-7.321s-12.956 2.601-17.678 7.322l-30.967 30.969c-4.354 4.354-10.155 6.752-16.336 6.752s-11.982-2.397-16.336-6.752c-9.009-9.008-9.009-23.665-.001-32.673l57.467-57.467c27.371-27.372 27.371-71.908 0-99.28-13.26-13.259-30.89-20.562-49.641-20.562h-128.919v-43.322h32.754c13.785 0 25-11.215 25-25s-11.215-25-25-25h-32.754v-8.002c0-13.785-11.215-25-25-25z"/><path d="m416.672 170.881 1.741 6.44c.904 3.343 3.931 5.544 7.235 5.544.648 0 1.308-.085 1.963-.262 3.999-1.082 6.363-5.2 5.282-9.198l-2.646-9.785c-.574-2.122-2.05-3.885-4.037-4.823l-16.492-7.789c-3.745-1.771-8.217-.167-9.984 3.578-1.77 3.746-.167 8.216 3.578 9.984z"/><path d="m87.099 224.855c1.433 1.29 3.227 1.925 5.015 1.925 2.052 0 4.096-.838 5.577-2.483l7.602-8.447c2.771-3.079 2.521-7.821-.559-10.592-3.076-2.771-7.818-2.521-10.592.559l-7.602 8.447c-2.77 3.079-2.52 7.821.559 10.591z"/><path d="m325.895 100.714c4.143 0 7.5-3.357 7.5-7.5s-3.357-7.5-7.5-7.5h-.104c-4.143 0-7.5 3.357-7.5 7.5s3.357 7.5 7.5 7.5z"/><path d="m313.437 119.464c0 4.143 3.357 7.5 7.5 7.5h.104c4.143 0 7.5-3.357 7.5-7.5s-3.357-7.5-7.5-7.5h-.104c-4.143 0-7.5 3.357-7.5 7.5z"/><path d="m273.48 296.925c4.143 0 7.5-3.357 7.5-7.5s-3.357-7.5-7.5-7.5h-.104c-4.143 0-7.5 3.357-7.5 7.5s3.357 7.5 7.5 7.5z"/></g></g></svg>