<svg id="Capa_1" enable-background="new 0 0 512 512" height="512" viewBox="0 0 512 512" width="512" xmlns="http://www.w3.org/2000/svg"><g><g><path d="m213.45 202.908h-87.23l-18.75-28.46c0-15.557 9.422-28.987 19.862-35.867 10.45-6.88 23.496-10.354 41.569-3.283z" fill="#eaaa83"/><path d="m168.9 135.298c-11.55 2.7-23.73 7.44-34.18 14.32-10.44 6.88-20.17 15.33-27.25 24.83l-15-22.77c-8.84-13.42-13.77-29.04-14.23-45.11l-.84-29.35c-.2-7.01 7.05-11.79 13.42-8.84l26.64 12.35c14.58 6.77 26.99 17.46 35.83 30.88z" fill="#ff938a"/><path d="m252.88 202.908h-75.64l-19.02-67.95c7.343-15.891 17.851-24.09 29.841-27.44 12-3.36 25.39-.647 40.449 8.32z" fill="#e4996d"/><path d="m228.51 115.838c-11.79-.91-24.83.19-36.83 3.55-11.99 3.35-23.84 8.7-33.46 15.57l-7.41-26.48c-4.33-15.48-4.26-31.86.19-47.3l8.15-28.21c1.95-6.75 10.31-9.09 15.48-4.34l21.6 19.89c11.83 10.88 20.39 24.84 24.72 40.32z" fill="#fd7a6e"/><path d="m404.531 174.448-18.75 28.46h-87.23l44.55-67.61c11.672-3.886 28.656-3.995 39.106 2.885 10.439 6.88 19.912 16.335 22.324 36.265z" fill="#eaaa83"/><path d="m434.601 77.218-.84 29.35c-.46 16.07-5.39 31.69-14.23 45.11l-15 22.77c-7.08-9.5-16.81-17.95-27.25-24.83-10.45-6.88-22.63-11.62-34.18-14.32l15.61-23.69c8.84-13.42 21.25-24.11 35.83-30.88l26.64-12.35c6.37-2.95 13.62 1.83 13.42 8.84z" fill="#ff938a"/><path d="m353.781 134.958-19.02 67.95h-75.64l24.37-87.071c9.28-9.71 28.449-9 40.449-5.64 11.99 3.351 23.221 10.772 29.841 24.761z" fill="#e4996d"/><path d="m361.19 108.478-7.41 26.48c-9.62-6.87-21.47-12.22-33.46-15.57-12-3.36-25.04-4.46-36.83-3.55l7.56-27c4.33-15.48 12.89-29.44 24.72-40.32l21.6-19.89c5.17-4.75 13.53-2.41 15.48 4.34l8.15 28.21c4.451 15.44 4.521 31.82.19 47.3z" fill="#fd7a6e"/><g><path d="m292.77 110.198v92.71h-72.84v-92.71c8.603-12.636 23.98-17.415 36.42-17.415s27.117 3.584 36.42 17.415z" fill="#eaaa83"/></g><path d="m292.77 82.448v27.75c-11.11-4.02-23.98-6.23-36.42-6.23s-25.31 2.21-36.42 6.23v-27.75c0-16.08 4.48-31.83 12.94-45.5l15.45-24.97c3.69-5.97 12.37-5.97 16.07 0l15.45 24.97c8.45 13.67 12.93 29.42 12.93 45.5z" fill="#ff938a"/><path d="m439.101 403.3c0 55.89-45.31 101.2-101.2 101.2h-33.42c-75.97-17.225-98.949-81.934-88.03-128.351l39.9-7.54z" fill="#ff938a"/><path d="m304.48 504.5h-130.38c-55.89 0-101.2-45.31-101.2-101.2l143.551-27.15c12.889 48.24 41.489 94.09 88.029 128.35z" fill="#fd7a6e"/><path d="m439.101 257.569v145.731h-213.591c-44.341-41.968-40.866-114.06-10.31-145.731z" fill="#fbf198"/><path d="m225.51 403.3h-152.611v-145.731h142.301c-11.5 46.46-8.84 98.21 10.31 145.731z" fill="#fad989"/><path d="m473.881 230.579c0 20.94-16.98 37.92-37.92 37.92h-223.181c-9.031-23.857.67-61.954 30.25-75.84h192.931c20.94-.001 37.92 16.98 37.92 37.92z" fill="#6a829a"/><path d="m243.03 192.658c-14.62 22.51-24.86 48.41-30.25 75.84h-136.741c-20.94 0-37.92-16.98-37.92-37.92s16.98-37.92 37.92-37.92z" fill="#5b778f"/><path d="m203.749 344.265c.007 13.438-13.667 24.338-30.541 24.346s-30.559-10.878-30.566-24.316 13.667-24.338 30.541-24.347c16.874-.007 30.559 10.879 30.566 24.317z" fill="#ffa1ac"/><path d="m308.251 344.213c.007 13.438 13.692 24.324 30.566 24.316s30.548-10.909 30.541-24.346c-.007-13.438-13.692-24.325-30.566-24.316-16.873.007-30.547 10.908-30.541 24.346z" fill="#ffa1ac"/><path d="m285.944 333.224c-.009-18.509-13.419-20.242-29.96-20.233-16.541.008-29.949 1.754-29.939 20.264.009 18.509 13.426 33.507 29.966 33.498 16.541-.009 29.942-15.02 29.933-33.529z" fill="#495560"/></g><g><path d="m280.552 309.474c-6.513-3.299-14.488-3.981-24.454-3.981-.039 0-.078 0-.117 0-10.02.005-18.032.688-24.568 4.006-8.544 4.339-12.874 12.333-12.868 23.761.005 10.798 3.803 20.986 10.694 28.689 7.099 7.936 16.6 12.305 26.757 12.305 10.183-.005 19.688-4.384 26.782-12.331 6.883-7.711 10.671-17.903 10.665-28.701-.006-11.429-4.342-19.419-12.891-23.748zm-8.963 42.458c-4.212 4.719-9.746 7.318-15.582 7.321-5.842 0-11.374-2.594-15.589-7.306-4.429-4.951-6.87-11.591-6.874-18.696-.003-7.04 2.237-9.148 4.659-10.378 4.111-2.087 10.977-2.378 17.785-2.381h.126c6.766 0 13.574.293 17.66 2.363 2.423 1.227 4.666 3.333 4.669 10.373.004 7.106-2.43 13.749-6.854 18.704z"/><path d="m190.989 295.753c-5.899.003-11.433 2.299-15.594 6.464-4.162 4.166-6.452 9.702-6.449 15.59.002 4.141 3.359 7.496 7.5 7.496 4.146-.002 7.502-3.361 7.5-7.504-.001-1.881.731-3.649 2.061-4.98s3.098-2.064 4.979-2.065c3.885 0 7.044 3.157 7.046 7.039.002 4.141 3.359 7.496 7.5 7.496 4.146-.002 7.502-3.361 7.5-7.504-.007-12.152-9.893-22.032-22.043-22.032z"/><path d="m320.985 295.688c-5.899.003-11.434 2.299-15.595 6.464-4.161 4.166-6.451 9.702-6.448 15.59.002 4.141 3.359 7.496 7.5 7.496 4.146-.002 7.502-3.361 7.5-7.504-.001-1.881.73-3.65 2.061-4.98 1.329-1.331 3.097-2.064 4.979-2.065 1.883 0 3.65.731 4.98 2.061 1.331 1.329 2.064 3.098 2.065 4.979.002 4.141 3.359 7.496 7.5 7.496 4.146-.002 7.502-3.361 7.5-7.504-.003-5.888-2.299-11.422-6.464-15.583-4.163-4.16-9.695-6.45-15.578-6.45z"/><path d="m481.377 230.581c0-25.042-20.374-45.416-45.417-45.416h-29.506l19.34-29.354c9.617-14.597 14.965-31.549 15.464-49.022l.839-29.352c.169-5.911-2.679-11.383-7.617-14.637s-11.091-3.711-16.456-1.223l-26.639 12.353c-6.985 3.239-13.538 7.343-19.51 12.171.091-9.087-1.125-18.181-3.672-27.005l-8.146-28.21c-1.641-5.683-6.021-10.026-11.716-11.62-5.694-1.593-11.693-.155-16.045 3.85l-21.608 19.883c-5.067 4.663-9.598 9.887-13.52 15.534-2.358-8.959-6.026-17.566-10.952-25.529l-15.45-24.973c-3.113-5.029-8.501-8.031-14.415-8.031-5.914.001-11.302 3.003-14.413 8.032l-15.448 24.971c-5.061 8.18-8.8 17.038-11.147 26.261-4.031-5.924-8.733-11.392-14.03-16.266l-21.607-19.883c-4.352-4.005-10.35-5.443-16.045-3.85-5.695 1.594-10.075 5.938-11.716 11.62l-8.146 28.21c-2.548 8.824-3.764 17.919-3.673 27.006-5.972-4.829-12.526-8.933-19.51-12.172l-26.64-12.353c-5.367-2.486-11.519-2.029-16.456 1.224-4.938 3.254-7.786 8.726-7.617 14.637l.839 29.352c.5 17.475 5.847 34.427 15.464 49.022l19.34 29.354h-29.506c-25.043 0-45.417 20.374-45.417 45.416 0 21.379 14.853 39.344 34.779 44.146v128.574c0 59.937 48.762 108.699 108.699 108.699h163.799c59.937 0 108.698-48.762 108.698-108.698v-128.574c19.926-4.803 34.779-22.768 34.779-44.147zm-133.864-45.416 10.472-37.413c5.285 2.255 10.366 4.969 15.166 8.131 8.26 5.442 15.534 12.036 21.702 19.627l-6.361 9.655zm-47.242 0v-61.787c6.078.505 12.114 1.578 18.022 3.232 9.525 2.666 18.462 6.73 26.65 12.08l-13.009 46.475zm-72.839 0v-69.245c9.327-2.945 19.029-4.449 28.92-4.449s19.594 1.504 28.92 4.449v69.245zm-47.368 0-13.009-46.475c8.189-5.35 17.127-9.414 26.651-12.079 6.131-1.716 12.403-2.81 18.725-3.286v61.841h-32.367zm217.631-97.628 26.639-12.353c1.531-.534 2.655.205 2.769 1.824l-.839 29.352c-.419 14.685-4.913 28.931-12.995 41.198l-9.818 14.902c-6.448-7.28-13.827-13.687-22.047-19.103-6.096-4.017-12.579-7.422-19.343-10.168l6.152-21.98c7.758-10.136 17.921-18.31 29.482-23.672zm-76.851-33.502 21.607-19.883c1.297-.974 2.592-.615 3.192.895l8.146 28.211c4.082 14.113 4.117 29.053.177 43.198l-4.81 17.185c-8.36-4.968-17.34-8.823-26.82-11.476-7.227-2.023-14.62-3.309-22.065-3.843v-23.586c4.327-11.677 11.416-22.273 20.573-30.701zm-81.598-13.14 15.448-24.971c.985-1.29 2.33-1.289 3.316-.001l15.448 24.972c7.729 12.493 11.813 26.862 11.813 41.553v17.846c-9.39-2.531-19.076-3.822-28.92-3.822s-19.53 1.292-28.92 3.823v-17.848c.001-14.69 4.086-29.059 11.815-41.552zm-81.036 22.362 8.146-28.21c.601-1.508 1.896-1.87 3.192-.895l21.607 19.884c9.696 8.921 17.03 20.207 21.276 32.689v21.559c-7.689.5-15.32 1.795-22.769 3.88-9.479 2.653-18.458 6.507-26.82 11.476l-4.81-17.185c-3.938-14.144-3.904-29.083.178-43.198zm-72.474 43.103-.839-29.352c.112-1.62 1.238-2.357 2.769-1.824l26.639 12.353c11.561 5.362 21.724 13.536 29.483 23.675l6.152 21.978c-6.764 2.747-13.246 6.152-19.342 10.168-8.22 5.416-15.598 11.823-22.047 19.103l-9.819-14.903c-8.083-12.266-12.576-26.512-12.996-41.198zm31.411 69.15c6.169-7.591 13.443-14.185 21.702-19.626 4.799-3.162 9.881-5.875 15.166-8.131l10.472 37.412h-40.979zm318.813 85.488h-40.759c-4.143 0-7.5 3.357-7.5 7.5s3.357 7.5 7.5 7.5h36.396v119.804h-277.614c-4.142 0-7.5 3.357-7.5 7.5s3.358 7.5 7.5 7.5h277.314c-3.833 48.171-44.257 86.198-93.398 86.198h-163.798c-49.141 0-89.564-38.027-93.398-86.198h38.28c4.142 0 7.5-3.357 7.5-7.5s-3.358-7.5-7.5-7.5h-38.581v-119.804h279.799c4.143 0 7.5-3.357 7.5-7.5s-3.357-7.5-7.5-7.5h-284.161c-16.771 0-30.417-13.645-30.417-30.417 0-16.771 13.645-30.416 30.417-30.416h359.92c16.771 0 30.417 13.645 30.417 30.416 0 16.773-13.646 30.417-30.417 30.417z"/></g></g></svg>