<svg id="Capa_1" enable-background="new 0 0 512 512" height="512" viewBox="0 0 512 512" width="512" xmlns="http://www.w3.org/2000/svg"><g><circle cx="256.192" cy="256" fill="#fcb44d" r="248.5"/><path d="m504.692 256c0 137.24-111.26 248.5-248.5 248.5-6.23 0-12.41-.23-18.52-.68 128.59-9.48 229.97-116.81 229.97-247.82s-101.38-238.34-229.97-247.82c6.11-.45 12.29-.68 18.52-.68 137.24 0 248.5 111.26 248.5 248.5z" fill="#fb9927"/><circle cx="256.192" cy="254.714" fill="#685e67" r="211.45"/><path d="m467.642 256c0 116.78-94.67 211.45-211.45 211.45-6.42 0-12.77-.29-19.05-.85 107.85-9.63 192.4-100.24 192.4-210.6s-84.55-200.97-192.4-210.6c6.28-.56 12.63-.85 19.05-.85 116.78 0 211.45 94.67 211.45 211.45z" fill="#554e55"/><g><path d="m256.192 125.255-113.229 196.118h226.457z" fill="#a69ca7"/><path d="m256.192 386.745 113.228-196.118h-226.457z" fill="#918291"/><g><path d="m331.682 256-37.74 65.37h-75.5l-37.74-65.37 37.74-65.37h75.5z" fill="#b5adb6"/></g></g><g><path d="m331.677 255.993c-16.591 19.45-44.211 32.178-75.486 32.178-31.274 0-58.894-12.728-75.486-32.178 16.592-19.437 44.211-32.165 75.486-32.165 31.275.001 58.895 12.728 75.486 32.165z" fill="#f3f0f3"/><g><circle cx="256.192" cy="256" fill="#433f43" r="32.099"/><path d="m288.292 256c0 17.73-14.37 32.1-32.1 32.1-9.86 0-18.68-4.44-24.57-11.44 1.22.15 2.47.22 3.73.22 17.73 0 32.1-14.37 32.1-32.1 0-7.87-2.83-15.08-7.53-20.66 15.97 1.84 28.37 15.41 28.37 31.88z" fill="#2d2b2d"/><g><path d="m214.119 328.873 34.573 59.882v50.049c0 4.142 3.357 7.5 7.5 7.5s7.5-3.358 7.5-7.5v-50.049l34.573-59.882h69.146l43.344 25.024c1.182.682 2.471 1.006 3.743 1.006 2.592 0 5.113-1.346 6.502-3.751 2.071-3.587.842-8.174-2.745-10.245l-43.344-25.024-34.573-59.883 34.574-59.885c.007-.004 43.342-25.022 43.342-25.022 3.587-2.071 4.816-6.658 2.745-10.245-2.072-3.588-6.66-4.817-10.245-2.745 0 0-43.335 25.021-43.341 25.024h-69.149l-34.573-59.882v-50.048c0-4.142-3.357-7.5-7.5-7.5s-7.5 3.358-7.5 7.5v50.049l-34.573 59.882h-69.146l-43.344-25.024c-3.589-2.072-8.175-.842-10.245 2.745-2.071 3.587-.842 8.174 2.745 10.245l43.344 25.024 34.574 59.882-34.573 59.883-43.344 25.024c-3.587 2.071-4.816 6.658-2.745 10.245 1.389 2.406 3.91 3.751 6.502 3.751 1.272 0 2.563-.324 3.743-1.006l43.344-25.024zm42.073 42.872-24.752-42.873h49.505zm0-91.146c-13.563 0-24.599-11.035-24.599-24.599s11.035-24.599 24.599-24.599 24.598 11.035 24.598 24.599-11.035 24.599-24.598 24.599zm-34.957-6.021c-11.602-4.232-21.989-10.538-30.258-18.583 8.271-8.042 18.658-14.345 30.259-18.575-2.959 5.545-4.643 11.869-4.643 18.58s1.683 13.034 4.642 18.578zm69.912-37.158c11.602 4.23 21.989 10.533 30.259 18.575-8.269 8.045-18.656 14.352-30.258 18.583 2.958-5.544 4.642-11.867 4.642-18.578 0-6.712-1.684-13.036-4.643-18.58zm-34.955-21.091c-18.004 0-35.416 4.06-50.524 11.436l17.111-29.637h66.826l17.111 29.637c-15.108-7.377-32.52-11.436-50.524-11.436zm0 79.342c18.006 0 35.419-4.061 50.526-11.44l-17.113 29.641h-66.826l-17.113-29.641c15.107 7.379 32.52 11.44 50.526 11.44zm100.238 18.202h-49.505l24.752-42.873zm0-115.746-24.753 42.873-24.753-42.873zm-100.238-57.872 24.752 42.873h-49.505zm-50.734 57.872-24.752 42.873-24.753-42.873zm-24.752 72.873 24.753 42.873h-49.505z"/><path d="m504.716 262.249c-4.16-.226-7.672 2.945-7.897 7.081-6.957 127.665-112.654 227.67-240.627 227.67-132.888 0-241-108.112-241-241s108.112-241 241-241c127.141 0 232.793 99.312 240.527 226.094.252 4.134 3.813 7.293 7.943 7.029 4.134-.252 7.281-3.808 7.029-7.942-8.216-134.681-120.446-240.181-255.499-240.181-68.38 0-132.667 26.629-181.02 74.98-48.351 48.353-74.98 112.64-74.98 181.02s26.629 132.667 74.98 181.02c48.353 48.352 112.64 74.98 181.02 74.98 135.939 0 248.215-106.235 255.605-241.854.225-4.136-2.945-7.672-7.081-7.897z"/><path d="m112.004 420.76c39.901 34.945 91.107 54.19 144.188 54.19 58.483 0 113.467-22.775 154.821-64.129s64.129-96.337 64.129-154.821c0-56.009-21.137-109.3-59.516-150.056-38.209-40.575-89.793-64.875-145.249-68.425-4.152-.266-7.699 2.872-7.964 7.006s2.872 7.699 7.005 7.964c106.948 6.844 190.724 96.238 190.724 203.511 0 112.458-91.492 203.95-203.95 203.95-49.442 0-97.14-17.926-134.305-50.475-3.115-2.729-7.854-2.416-10.583.701-2.73 3.116-2.416 7.855.7 10.584z"/><path d="m248.278 44.572c-.297-4.131-3.88-7.237-8.019-6.942-55.075 3.963-106.239 28.436-144.066 68.91-38.016 40.676-58.952 93.755-58.952 149.46 0 52.711 19.001 103.644 53.504 143.414 1.483 1.709 3.569 2.585 5.668 2.585 1.742 0 3.492-.604 4.912-1.835 3.129-2.714 3.465-7.451.75-10.58-32.135-37.042-49.834-84.483-49.834-133.584 0-106.43 83.06-195.778 189.094-203.409 4.132-.297 7.24-3.887 6.943-8.019z"/><path d="m206.937 72.181c-4.001 1.072-6.375 5.185-5.303 9.186l3.996 14.912c.897 3.351 3.928 5.561 7.239 5.561.643 0 1.296-.083 1.946-.257 4.001-1.072 6.375-5.185 5.303-9.186l-3.996-14.912c-1.071-4.003-5.183-6.377-9.185-5.304z"/><path d="m297.568 410.418c-4.001 1.072-6.375 5.185-5.303 9.186l3.996 14.912c.897 3.351 3.928 5.561 7.239 5.561.643 0 1.296-.083 1.946-.258 4.001-1.072 6.375-5.185 5.303-9.186l-3.996-14.912c-1.072-4.001-5.181-6.372-9.185-5.303z"/><path d="m161.04 91.192c-3.587 2.071-4.816 6.658-2.745 10.245l7.719 13.369c1.39 2.406 3.91 3.751 6.502 3.751 1.272 0 2.563-.324 3.743-1.006 3.587-2.071 4.816-6.658 2.745-10.245l-7.719-13.369c-2.071-3.587-6.66-4.816-10.245-2.745z"/><path d="m336.124 394.448c-3.587 2.071-4.816 6.658-2.745 10.245l7.719 13.369c1.39 2.406 3.91 3.751 6.502 3.751 1.272 0 2.563-.324 3.743-1.006 3.587-2.071 4.816-6.658 2.745-10.245l-7.719-13.369c-2.071-3.587-6.66-4.816-10.245-2.745z"/><path d="m121.626 121.435c-2.929 2.929-2.929 7.678 0 10.606l10.916 10.916c1.465 1.464 3.385 2.197 5.304 2.197s3.839-.732 5.304-2.197c2.929-2.929 2.929-7.678 0-10.606l-10.916-10.916c-2.93-2.929-7.678-2.929-10.608 0z"/><path d="m369.234 369.042c-2.929 2.929-2.929 7.678 0 10.606l10.916 10.916c1.465 1.464 3.385 2.197 5.304 2.197s3.839-.732 5.304-2.197c2.929-2.929 2.929-7.678 0-10.606l-10.916-10.916c-2.931-2.928-7.679-2.928-10.608 0z"/><path d="m96.47 205.438-14.911-3.996c-4.001-1.069-8.114 1.302-9.186 5.303s1.302 8.114 5.303 9.186l14.911 3.996c.65.174 1.304.257 1.946.257 3.312 0 6.342-2.21 7.239-5.561 1.073-4-1.301-8.113-5.302-9.185z"/><path d="m434.707 296.068-14.911-3.996c-4.001-1.07-8.114 1.303-9.186 5.303-1.072 4.001 1.302 8.114 5.303 9.186l14.911 3.996c.65.174 1.304.257 1.946.257 3.312 0 6.342-2.21 7.239-5.561 1.073-4-1.301-8.112-5.302-9.185z"/><path d="m299.514 101.839c3.312 0 6.342-2.21 7.239-5.561l3.996-14.912c1.072-4.001-1.302-8.114-5.303-9.186-4.002-1.073-8.114 1.302-9.186 5.303l-3.996 14.912c-1.072 4.001 1.302 8.114 5.303 9.186.651.174 1.304.258 1.947.258z"/><path d="m205.63 415.722-3.996 14.912c-1.072 4.001 1.302 8.114 5.303 9.186.65.174 1.304.258 1.946.258 3.312 0 6.342-2.21 7.239-5.561l3.996-14.912c1.072-4.001-1.302-8.114-5.303-9.186-4.002-1.07-8.114 1.302-9.185 5.303z"/><path d="m339.867 118.558c2.592 0 5.113-1.345 6.502-3.751l7.719-13.369c2.071-3.587.842-8.174-2.745-10.245-3.59-2.072-8.175-.843-10.245 2.745l-7.719 13.369c-2.071 3.587-.842 8.174 2.745 10.245 1.182.682 2.471 1.006 3.743 1.006z"/><path d="m166.014 397.193-7.719 13.369c-2.071 3.587-.842 8.174 2.745 10.245 1.182.682 2.471 1.006 3.743 1.006 2.592 0 5.113-1.345 6.502-3.751l7.719-13.369c2.071-3.587.842-8.174-2.745-10.245-3.59-2.072-8.175-.843-10.245 2.745z"/><path d="m374.537 145.154c1.919 0 3.839-.732 5.304-2.197l10.916-10.916c2.929-2.929 2.929-7.678 0-10.606-2.93-2.929-7.678-2.929-10.607 0l-10.916 10.916c-2.929 2.929-2.929 7.678 0 10.606 1.464 1.465 3.384 2.197 5.303 2.197z"/><path d="m132.542 369.042-10.916 10.916c-2.929 2.929-2.929 7.678 0 10.606 1.465 1.464 3.385 2.197 5.304 2.197s3.839-.732 5.304-2.197l10.916-10.916c2.929-2.929 2.929-7.678 0-10.606-2.93-2.928-7.678-2.928-10.608 0z"/><path d="m430.824 201.442-14.911 3.996c-4.001 1.072-6.375 5.185-5.303 9.186.897 3.351 3.928 5.561 7.239 5.561.643 0 1.296-.083 1.946-.257l14.911-3.996c4.001-1.072 6.375-5.185 5.303-9.186-1.07-4.001-5.183-6.372-9.185-5.304z"/><path d="m79.613 310.815c.643 0 1.296-.083 1.946-.257l14.911-3.996c4.001-1.072 6.375-5.185 5.303-9.186-1.071-4-5.184-6.374-9.186-5.303l-14.911 3.996c-4.001 1.072-6.375 5.185-5.303 9.186.898 3.35 3.928 5.56 7.24 5.56z"/><path d="m446.495 256c0-4.142-3.357-7.5-7.5-7.5h-15.438c-4.143 0-7.5 3.358-7.5 7.5s3.357 7.5 7.5 7.5h15.438c4.143 0 7.5-3.358 7.5-7.5z"/><path d="m96.325 256c0-4.142-3.357-7.5-7.5-7.5h-15.437c-4.143 0-7.5 3.358-7.5 7.5s3.357 7.5 7.5 7.5h15.438c4.142 0 7.499-3.358 7.499-7.5z"/></g></g></g></g></svg>