<svg id="Capa_1" enable-background="new 0 0 512 512" height="512" viewBox="0 0 512 512" width="512" xmlns="http://www.w3.org/2000/svg"><g><g><g><path d="m401.213 260.236-6.4 6.4c-23.619-6.085-40.919-29.854-39.4-53.15 13.08-15.87 12.2-39.41-2.64-54.26-3.8-3.8-8.18-6.69-12.85-8.65-12.636-25.62-5.808-54.908 11.38-67.8 18.29 4.4 35.64 13.74 49.91 28.01 41.27 41.271 41.27 108.18 0 149.45z" fill="#fbf198"/><path d="m394.813 266.636-40.98 40.98-46.14-46.14 45.08-45.08c.94-.94 1.82-1.91 2.64-2.91 9.07 19.54 22.15 37.76 39.4 53.15z" fill="#fad989"/><path d="m339.923 150.577c-14.71-6.21-32.34-3.33-44.32 8.65l-45.08 45.08-46.14-46.14 47.38-47.38c27-27 64.96-36.33 99.54-28.01-8.66 20.81-12.53 44.16-11.38 67.8z" fill="#fad989"/><path d="m394.293 481.215c-11.03 8.44-24.64 13.54-39.31 13.99l-49.79 1.53c-115.619-37.226-157.354-183.141-120.369-272.139l55.87 38.77z" fill="#2ecefb"/><path d="m305.193 496.735-251.419 7.74c-8.92.27-17.52-1.66-24.62-5.9-1.48-7.8-6.74-14.54-15.73-15.73-4.24-7.1-6.17-15.7-5.9-24.62l9.27-301.209c.45-14.67 5.55-28.29 13.98-39.32.01.01 154.049 106.9 154.049 106.9-6.909 96.76 29.831 201.319 120.37 272.139z" fill="#00bdfd"/><path d="m319.173 406.096-77.24 24.63c-75.935-35.89-88.041-134.654-57.64-196.869l56.4 29.51z" fill="#83deff"/><path d="m241.934 430.726-212.779 67.85c-6.03-4.34-11.39-9.7-15.73-15.73l92.47-290.019 78.4 41.03c-2.841 67.089 15.259 137.259 57.639 196.869z" fill="#2ecefb"/></g><path d="m210.734 120.638-31.065 53.277-73.774 18.912-75.109-75.119c9.8-12.85 24.13-22.16 40.889-25.5l56.519-11.23c22.34-4.45 45.429 2.56 61.539 18.66z" fill="#2ecefb"/><path d="m431.021 383.804-11.23 56.519c-3.34 16.759-12.65 31.089-25.49 40.889-.01 0-75.129-75.119-75.129-75.119l19.133-75.664 53.056-29.165 21 21c16.1 16.111 23.11 39.201 18.66 61.54z" fill="#83deff"/><path d="m391.363 301.266-72.19 104.83-134.239-134.23c-20.528-50.345-8.74-114.063 25.8-151.229z" fill="#2ecefb"/><path d="m184.934 271.866-79.04-79.04 104.84-72.19c-20.68 45.761-29.81 98.34-25.8 151.23z" fill="#00bdfd"/><g><g fill="#fff"><ellipse cx="195.896" cy="203.595" rx="23.376" ry="29.354" transform="matrix(.707 -.707 .707 .707 -86.587 198.153)"/><ellipse cx="308.405" cy="316.104" rx="23.376" ry="29.354" transform="matrix(.707 -.707 .707 .707 -133.189 310.658)"/></g></g></g><g><path d="m509.803 2.196c-2.93-2.928-7.678-2.928-10.608 0l-98.165 98.165c-13.241-11.596-29.023-19.971-46.052-24.385-4.007-1.04-8.104 1.369-9.142 5.378-1.04 4.01 1.368 8.103 5.378 9.142 14.443 3.744 27.847 10.785 39.175 20.506l-38.044 38.044c-18.73-13.621-45.173-11.996-62.056 4.886l-17.838 17.838-35.532-35.531 20.142-20.142c16.529-16.529 38.452-26.633 61.73-28.449 4.129-.322 7.216-3.932 6.894-8.062-.321-4.129-3.895-7.221-8.062-6.894-26.839 2.095-52.115 13.742-71.17 32.797l-20.142 20.142-10.14-10.14c-.011-.01-21.148-21.148-21.148-21.148-17.916-17.915-43.451-25.656-68.298-20.721l-56.525 11.237c-34.772 6.913-59.819 36.491-60.91 71.927l-9.27 301.221c-.385 14.676 4.91 28.569 15.319 38.653 10.04 10.406 24.065 15.723 38.653 15.319l301.222-9.271c35.437-1.091 65.014-26.138 71.928-60.91l11.238-56.527c4.939-24.851-2.806-50.383-20.721-68.298l-31.288-31.288 20.143-20.141c42.344-42.346 44.047-110.169 5.122-154.572l98.169-98.169c2.927-2.929 2.927-7.677-.002-10.607zm-208.905 162.342c6.219-6.219 14.486-9.645 23.281-9.645s17.063 3.426 23.281 9.645c6.219 6.219 9.645 14.486 9.645 23.281 0 8.794-3.425 17.063-9.645 23.281l-17.837 17.838-46.564-46.563zm80.604 137.494-62.55 93.247-202.198-202.198 93.215-62.583zm-349.579-172.566 64.559 64.559-81.277 258.158 9.077-294.936c.31-10.048 3.031-19.504 7.641-27.781zm41.203-29.894 56.526-11.238c3.959-.787 7.937-1.173 11.887-1.173 15.931 0 31.368 6.276 42.879 17.788l14.741 14.741-93.215 62.583-65.028-65.028c8.392-8.82 19.484-15.144 32.21-17.673zm281.626 388.144-294.92 9.077 101.345-31.889c3.951-1.243 6.147-5.454 4.903-9.405-1.243-3.952-5.457-6.148-9.405-4.903l-125.823 39.59c-1.728-1.224-3.373-2.597-4.907-4.132-1.534-1.534-2.907-3.177-4.132-4.905l86.63-275.162 197.606 197.605-115.969 36.49c-3.951 1.243-6.147 5.454-4.903 9.405 1.233 3.988 5.561 6.145 9.405 4.903l123.428-38.838 64.523 64.523c-8.277 4.61-17.732 7.331-27.781 7.641zm68.914-105.37-11.238 56.527c-2.53 12.725-8.853 23.817-17.673 32.21l-64.992-64.992 62.55-93.247 14.738 14.738c14.366 14.364 20.577 34.837 16.615 54.764zm-27.76-127.41-20.143 20.142-35.533-35.533 17.837-17.838c9.053-9.052 14.038-21.087 14.038-33.888 0-10.265-3.212-20.032-9.15-28.169l38.028-38.028c33.089 38.528 31.414 96.822-5.077 133.314z"/><path d="m227.08 185.995-8.485 8.485c-2.929 2.93-2.929 7.678 0 10.608 1.465 1.464 3.385 2.196 5.304 2.196s3.839-.732 5.304-2.196l8.485-8.485c2.929-2.93 2.929-7.678 0-10.608-2.931-2.928-7.679-2.928-10.608 0z"/><path d="m315.396 274.311-8.485 8.485c-2.929 2.93-2.929 7.678 0 10.608 1.465 1.464 3.385 2.196 5.304 2.196s3.839-.732 5.304-2.196l8.485-8.485c2.929-2.93 2.929-7.678 0-10.608-2.93-2.927-7.678-2.927-10.608 0z"/><path d="m279.436 247.849c-4.148.276-8.2-1.23-11.128-4.159-2.928-2.927-4.443-6.982-4.158-11.127.284-4.133-2.836-7.713-6.968-7.997-4.155-.267-7.712 2.836-7.997 6.968-.583 8.473 2.522 16.77 8.517 22.763 5.517 5.518 12.984 8.587 20.742 8.587.672 0 1.347-.023 2.021-.069 4.132-.284 7.252-3.864 6.968-7.997-.285-4.133-3.867-7.24-7.997-6.969z"/></g></g></svg>