<svg id="Capa_1" enable-background="new 0 0 512.183 512.183" height="512" viewBox="0 0 512.183 512.183" width="512" xmlns="http://www.w3.org/2000/svg"><g><path d="m61.091 331h60v30h-60z"/><path d="m391.091 331h60v30h-60z"/><path d="m94.445 223.103h30v72.499h-30z" transform="matrix(.707 -.707 .707 .707 -151.335 153.352)"/><path d="m73.195 417.647h72.499v30h-72.499z" transform="matrix(.707 -.707 .707 .707 -273.872 204.108)"/><path d="m366.489 244.353h72.5v30h-72.5z" transform="matrix(.707 -.707 .707 .707 -65.431 360.742)"/><path d="m387.738 396.397h30v72.5h-30z" transform="matrix(.707 -.707 .707 .707 -187.968 411.496)"/><path d="m166.091 151v-30c-24.813 0-45 20.187-45 45s20.187 45 45 45h45v105c0 92.074 29.978 161.781 31.254 164.703l13.746 31.479 13.746-31.479c1.276-2.922 31.254-72.629 31.254-164.703v-105h45c24.813 0 45-20.187 45-45s-20.187-45-45-45v30c8.271 0 15 6.729 15 15s-6.729 15-15 15h-45v-76c0-11.517-4.354-22.032-11.495-30 7.142-7.968 11.495-18.483 11.495-30 0-24.813-20.187-45-45-45s-45 20.187-45 45c0 11.517 4.354 22.032 11.495 30-7.142 7.968-11.495 18.483-11.495 30v76h-45c-8.271 0-15-6.729-15-15s6.729-15 15-15zm90-121c8.271 0 15 6.729 15 15s-6.729 15-15 15-15-6.729-15-15 6.729-15 15-15zm-15 75c0-8.271 6.729-15 15-15s15 6.729 15 15v76h-30zm0 106h30v105c0 44.256-7.623 83.428-15.018 111.013-7.384-27.53-14.982-66.639-14.982-111.013z"/></g></svg>