<svg id="Capa_1" enable-background="new 0 0 512 512" height="512" viewBox="0 0 512 512" width="512" xmlns="http://www.w3.org/2000/svg"><g><g><path d="m504.5 94.251v380.249c0 16.569-13.431 30-30 30h-17.07l-18.89-25.09c-1.6-2.13-3.99-3.53-6.63-3.9l-23.31-3.2c-3.37-.46-6.75.82-8.96 3.41l-7.929 9.261c-1.896 2.214-4.665 3.489-7.581 3.489h-68.48c-3.64 0-6.98 1.97-8.75 5.15l-3.18 5.73c-1.77 3.18-5.11 5.15-8.75 5.15h-257.47c-16.569 0-30-13.431-30-30v-255.22c0-2.66 1.06-5.22 2.95-7.09l22.71-22.56c5.14-5.11 3.31-13.82-3.46-16.43l-15.79-6.07c-3.86-1.49-6.41-5.2-6.41-9.34v-120.29c0-16.569 13.431-30 30-30h378.792c2.62 0 5.135 1.028 7.005 2.863l12.566 12.333c1.87 1.835 4.385 2.863 7.005 2.863h14.982c2.242 0 4.419.753 6.181 2.139l11.481 9.028c2.411 1.896 3.819 4.794 3.819 7.861v28.432c0 4.848 3.478 8.998 8.251 9.846l8.667 1.539c4.773.848 8.251 4.998 8.251 9.847z" fill="#b18bc8"/><path d="m504.5 94.25v380.25c0 16.57-13.43 30-30 30h-17.07l-4.06-5.4c7.76-5.41 12.84-14.41 12.84-24.6v-380.25c0-4.85-3.48-9-8.25-9.85l-8.67-1.53c-4.77-.85-8.25-5-8.25-9.85v-28.43c0-3.07-1.41-5.97-3.82-7.86l-11.48-9.03c-1.76-1.39-3.94-2.14-6.18-2.14h-14.98c-2.62 0-5.14-1.03-7.01-2.86l-12.56-12.34c-1.87-1.83-4.39-2.86-7.01-2.86h38.29c2.62 0 5.14 1.03 7.01 2.86l12.56 12.34c1.87 1.83 4.39 2.86 7.01 2.86h14.98c2.24 0 4.42.75 6.18 2.14l11.48 9.03c2.41 1.89 3.82 4.79 3.82 7.86v28.43c0 4.85 3.48 9 8.25 9.85l8.67 1.53c4.77.85 8.25 5 8.25 9.85z" fill="#a176bd"/></g><path d="m366.527 447.536c-48.773 0-88.454-39.681-88.454-88.454 0-20.678 16.822-37.5 37.5-37.5s37.5 16.822 37.5 37.5c0 7.419 6.035 13.454 13.454 13.454s13.455-6.035 13.455-13.454c0-2.493-1.132-10.242-11.617-28.307-8.119-13.989-19.301-29.896-30.113-45.279-9.295-13.224-18.845-26.812-27.489-40.518h-24.73l-56.506 153.226c-5.41 14.67-19.549 24.525-35.184 24.525s-29.773-9.855-35.184-24.525l-56.507-153.226h-8.135c-20.678 0-37.5-16.822-37.5-37.5s16.822-37.5 37.5-37.5h34.274c15.635 0 29.773 9.855 35.184 24.525l30.367 82.344 30.366-82.344c5.41-14.67 19.549-24.525 35.184-24.525h19.125c-.632-4.567-.944-9.041-.944-13.454v-3.606c0-48.773 39.681-88.454 88.454-88.454 48.774 0 88.455 39.681 88.455 88.454 0 38.635-24.897 71.564-59.49 83.585 1.378 1.966 2.752 3.92 4.118 5.863 28.476 40.514 55.372 78.778 55.372 116.716 0 48.773-39.68 88.454-88.455 88.454zm0-308.072c-7.419 0-13.454 6.035-13.454 13.454s6.035 13.455 13.454 13.455 13.455-6.036 13.455-13.455-6.036-13.454-13.455-13.454z" fill="#a176bd"/><path d="m360.817 221.117c1.885.157 3.786.257 5.71.257 37.746 0 68.455-30.709 68.455-68.455s-30.709-68.454-68.455-68.454-68.454 30.708-68.454 68.454v3.606c0 10.862 2.487 22.058 6.685 33.454h-44.865c-7.33 0-13.883 4.568-16.419 11.445l-49.131 133.228-49.132-133.228c-2.536-6.877-9.089-11.445-16.419-11.445h-34.274c-9.665 0-17.5 7.835-17.5 17.5s7.835 17.5 17.5 17.5h22.076l61.33 166.306c2.536 6.877 9.089 11.445 16.419 11.445s13.883-4.568 16.419-11.445l61.329-166.306h49.874c9.675 16.326 21.24 32.784 32.649 49.017 22.305 31.732 45.368 64.546 45.368 85.087 0 18.446-15.008 33.454-33.455 33.454-18.446 0-33.454-15.008-33.454-33.454 0-9.665-7.835-17.5-17.5-17.5s-17.5 7.835-17.5 17.5c0 37.746 30.708 68.454 68.454 68.454s68.455-30.708 68.455-68.454c0-31.61-25.129-67.362-51.734-105.214-7.48-10.643-15.275-21.736-22.431-32.752zm5.71-101.653c18.447 0 33.455 15.008 33.455 33.454 0 18.447-15.008 33.455-33.455 33.455-18.446 0-33.454-15.008-33.454-33.455 0-18.446 15.008-33.454 33.454-33.454z" fill="#804ea0"/><g fill="#6e4189"><path d="m399.98 379.08c0 18.45-15.01 33.46-33.45 33.46-18.45 0-33.46-15.01-33.46-33.46 0-9.66-7.83-17.5-17.5-17.5-7.31 0-13.58 4.49-16.19 10.86-.86-4.32-1.31-8.79-1.31-13.36 0-9.66 7.84-17.5 17.5-17.5 9.67 0 17.5 7.84 17.5 17.5 0 18.45 15.01 33.46 33.46 33.46 15 0 27.73-9.93 31.95-23.56.97 3.62 1.5 7 1.5 10.1z"/><path d="m309.542 202.99c1.414 3.31-.983 6.99-4.583 6.99h-45.069c-7.33 0-13.88 4.57-16.42 11.44l-45.56 123.548c-1.224 3.318-5.917 3.318-7.141 0l-45.559-123.548c-2.54-6.87-9.09-11.44-16.42-11.44h-34.27c-5.95 0-11.21 2.97-14.36 7.5-1.946-2.791-3.1-6.163-3.139-9.81-.104-9.73 8.239-17.69 17.97-17.69h33.799c7.33 0 13.88 4.57 16.42 11.44l49.13 133.23 49.13-133.23c2.54-6.87 9.09-11.44 16.42-11.44h44.87c1.317 4.316 2.927 8.669 4.782 13.01z"/><path d="m434.98 152.92c0 3.4-.25 6.73-.73 10-4.85-33.03-33.38-58.46-67.72-58.46-35.04 0-64.01 26.46-67.99 60.44-.31-2.81-.47-5.6-.47-8.38v-3.6c0-37.75 30.71-68.46 68.46-68.46 37.74 0 68.45 30.71 68.45 68.46z"/></g><g><path d="m497.56 77.02-8.666-1.539c-1.196-.212-2.063-1.247-2.063-2.461v-28.432c0-5.401-2.435-10.415-6.683-13.757l-11.482-9.028c-3.069-2.413-6.91-3.742-10.815-3.742h-14.982c-.658 0-1.28-.254-1.75-.716l-12.568-12.333c-3.292-3.233-7.645-5.012-12.258-5.012h-378.793c-20.678 0-37.5 16.822-37.5 37.5v120.29c0 7.185 4.505 13.75 11.219 16.341l15.783 6.067c1.109.428 1.45 1.326 1.555 1.824.104.497.154 1.454-.683 2.286l-22.701 22.552c-3.287 3.255-5.173 7.783-5.173 12.42v255.22c0 20.678 16.822 37.5 37.5 37.5h175.379c4.143 0 7.5-3.357 7.5-7.5s-3.357-7.5-7.5-7.5h-175.379c-12.406 0-22.5-10.094-22.5-22.5v-50.822l50.726-15.285c1.844-.555 3.402-1.799 4.354-3.472l3.338-5.868 9.649 8.601c1.43 1.274 3.212 1.901 4.987 1.901 2.064 0 4.12-.848 5.602-2.51 2.756-3.092 2.484-7.833-.608-10.589l-12.044-10.736 2.533-4.451c2.049-3.601.79-8.18-2.81-10.228-3.603-2.05-8.181-.791-10.228 2.81l-11.974 21.045-43.525 13.116v-188.732c0-.662.265-1.304.735-1.77l22.713-22.563c4.224-4.199 6.013-10.186 4.788-16.013-1.227-5.829-5.277-10.589-10.845-12.736l-15.782-6.066c-.963-.371-1.609-1.313-1.609-2.342v-120.29c0-12.406 10.094-22.5 22.5-22.5h81.691l12.33 43.622c.44 1.559 1.374 2.934 2.661 3.918l18.078 13.824-9.988 13.753c-.861 1.186-1.355 2.597-1.424 4.06l-1.156 24.939c-.191 4.138 3.007 7.647 7.145 7.84.119.005.236.008.354.008 3.982 0 7.3-3.134 7.486-7.152l1.052-22.696 8.451-11.636 13.081 10.003c1.359 1.039 2.961 1.542 4.55 1.542 2.257 0 4.487-1.014 5.964-2.944 2.516-3.29 1.889-7.997-1.402-10.514l-41.096-31.426-10.499-37.141h281.515c.658 0 1.28.254 1.75.716l12.566 12.333c3.292 3.232 7.645 5.012 12.258 5.012h14.982c.558 0 1.106.19 1.545.534l11.479 9.026c.607.478.956 1.194.956 1.967v28.432c0 8.498 6.073 15.745 14.44 17.23l8.666 1.539c1.196.212 2.063 1.247 2.063 2.461v380.25c0 12.406-10.094 22.5-22.5 22.5h-13.329l-16.635-22.096c-2.775-3.692-6.997-6.179-11.606-6.825l-23.313-3.199c-5.93-.813-11.799 1.42-15.673 5.962l-7.93 9.261c-.472.551-1.158.867-1.884.867h-68.478c-6.35 0-12.214 3.45-15.308 9.01l-3.177 5.724c-.445.8-1.287 1.297-2.196 1.297h-52.99c-4.143 0-7.5 3.357-7.5 7.5s3.357 7.5 7.5 7.5h52.99c6.35 0 12.214-3.45 15.308-9.01l3.177-5.724c.445-.8 1.287-1.297 2.196-1.297h68.479c5.112 0 9.952-2.228 13.278-6.111l7.938-9.271c.551-.646 1.387-.963 2.233-.846l23.289 3.196c.667.093 1.278.45 1.679.983l18.891 25.09c1.416 1.883 3.636 2.989 5.991 2.989h17.07c20.678 0 37.5-16.822 37.5-37.5v-380.25c.002-8.498-6.071-15.744-14.438-17.23z"/><path d="m442.482 152.918c0-41.881-34.073-75.954-75.955-75.954-36.699 0-68.116 26.199-74.701 62.296-.744 4.074 1.957 7.98 6.032 8.724 4.067.746 7.98-1.956 8.724-6.032 5.284-28.965 30.495-49.987 59.945-49.987 33.61 0 60.955 27.344 60.955 60.954s-27.345 60.955-60.955 60.955c-1.561 0-3.225-.075-5.087-.23-2.837-.243-5.59 1.167-7.06 3.624s-1.412 5.535.147 7.936c7.283 11.213 15.062 22.278 22.584 32.979 25.903 36.854 50.37 71.662 50.37 100.901 0 33.61-27.345 60.954-60.955 60.954s-60.954-27.344-60.954-60.954c0-5.514 4.486-10 10-10s10 4.486 10 10c0 22.582 18.372 40.954 40.954 40.954 22.583 0 40.955-18.372 40.955-40.954 0-18.518-14.463-43.053-37.798-76.639-2.362-3.401-7.035-4.243-10.438-1.88-3.401 2.363-4.243 7.037-1.88 10.438 12.272 17.664 35.116 50.542 35.116 68.08 0 14.312-11.644 25.954-25.955 25.954s-25.954-11.643-25.954-25.954c0-13.785-11.215-25-25-25s-25 11.215-25 25c0 41.881 34.073 75.954 75.954 75.954 41.882 0 75.955-34.073 75.955-75.954 0-33.983-25.792-70.678-53.099-109.527-4.861-6.916-9.832-13.986-14.682-21.118 38.055-4.091 67.782-36.399 67.782-75.52z"/><path d="m194.343 410.229c10.423 0 19.849-6.57 23.456-16.351l59.52-161.4h40.403c7.415 12.184 15.759 24.373 23.071 34.861 2.369 3.398 7.043 4.233 10.441 1.863 3.398-2.369 4.232-7.044 1.863-10.441-7.892-11.319-16.995-24.639-24.681-37.606-1.351-2.279-3.803-3.677-6.452-3.677h-49.874c-3.142 0-5.95 1.958-7.037 4.905l-61.329 166.306c-1.442 3.912-5.213 6.54-9.382 6.54s-7.939-2.628-9.382-6.54l-61.33-166.306c-1.087-2.947-3.896-4.905-7.037-4.905h-22.075c-5.514 0-10-4.486-10-10s4.486-10 10-10h34.274c4.169 0 7.939 2.628 9.382 6.54l49.132 133.228c1.087 2.947 3.896 4.905 7.037 4.905s5.95-1.958 7.037-4.905l49.131-133.228c1.442-3.912 5.213-6.54 9.382-6.54h44.865c2.452 0 4.749-1.199 6.152-3.21 1.402-2.012 1.733-4.582.885-6.883-2.438-6.617-4.179-12.983-5.176-18.921-.686-4.084-4.545-6.844-8.639-6.154-4.085.686-6.84 4.554-6.154 8.639.626 3.729 1.499 7.584 2.608 11.529h-34.542c-10.423 0-19.849 6.57-23.456 16.351l-42.094 114.146-42.095-114.146c-3.607-9.78-13.033-16.351-23.456-16.351h-34.273c-13.785 0-25 11.215-25 25s11.215 25 25 25h16.849l59.521 161.4c3.606 9.781 13.032 16.351 23.455 16.351z"/><path d="m407.482 152.918c0-22.582-18.372-40.954-40.955-40.954-22.582 0-40.954 18.372-40.954 40.954 0 22.583 18.372 40.955 40.954 40.955 22.583 0 40.955-18.372 40.955-40.955zm-66.909 0c0-14.312 11.643-25.954 25.954-25.954s25.955 11.643 25.955 25.954-11.644 25.955-25.955 25.955-25.954-11.644-25.954-25.955z"/><path d="m165.918 446.346-14.254 3.884-5.509-3.765c-3.421-2.338-8.087-1.458-10.424 1.961-2.337 3.42-1.459 8.087 1.961 10.424l8.369 5.719c1.26.86 2.736 1.308 4.231 1.308.659 0 1.322-.087 1.972-.264l17.597-4.794c3.996-1.089 6.354-5.211 5.265-9.208s-5.215-6.351-9.208-5.265z"/><path d="m318.517 301.148c2.052 0 4.096-.838 5.577-2.483l7.602-8.447c2.771-3.079 2.521-7.821-.559-10.592-3.075-2.77-7.819-2.521-10.592.559l-7.602 8.447c-2.771 3.079-2.521 7.821.559 10.592 1.433 1.29 3.227 1.924 5.015 1.924z"/><path d="m230.6 82.352c4.143 0 7.5-3.357 7.5-7.5s-3.357-7.5-7.5-7.5h-.104c-4.143 0-7.5 3.357-7.5 7.5s3.357 7.5 7.5 7.5z"/><path d="m455.034 435.036c4.143 0 7.5-3.357 7.5-7.5s-3.357-7.5-7.5-7.5h-.104c-4.143 0-7.5 3.357-7.5 7.5s3.357 7.5 7.5 7.5z"/><path d="m200.254 74.464h.104c4.143 0 7.5-3.357 7.5-7.5s-3.357-7.5-7.5-7.5h-.104c-4.143 0-7.5 3.357-7.5 7.5s3.357 7.5 7.5 7.5z"/></g></g></svg>