<svg id="Capa_1" enable-background="new 0 0 512 512" height="512" viewBox="0 0 512 512" width="512" xmlns="http://www.w3.org/2000/svg"><g><path d="m256 0c-74.439 0-135 60.561-135 135v107.509c-34.192 6.969-60 37.272-60 73.491v196h390v-196c0-36.219-25.808-66.522-60-73.491v-107.509c0-74.439-60.561-135-135-135zm64.94 52.548c24.382 19.244 40.06 49.051 40.06 82.452v106h-36.973c-10.22 0-18.901-6.694-21.902-15.926 17.558-13.739 28.875-35.103 28.875-59.074v-46h-15c-20.273 0-37.452-13.479-43.062-31.943 20.259-4.683 37.653-17.599 48.002-35.509zm-64.94 158.452c-24.813 0-45-20.187-45-45v-17.507c18.285-3.727 34.176-14.129 45-28.54 10.824 14.411 26.715 24.813 45 28.54v17.507c0 24.813-20.187 45-45 45zm35.209 48.578-35.209 35.209-35.209-35.209c6.985-5.521 12.56-12.75 16.067-21.063 6.113 1.615 12.527 2.485 19.142 2.485s13.029-.87 19.143-2.485c3.506 8.313 9.081 15.542 16.066 21.063zm-35.209-229.578c13.769 0 26.926 2.669 38.985 7.509-7.879 13.657-22.591 22.491-38.985 22.491s-31.106-8.834-38.985-22.491c12.059-4.84 25.216-7.509 38.985-7.509zm-105 105c0-33.401 15.678-63.208 40.06-82.452 10.349 17.91 27.743 30.826 48.002 35.509-5.61 18.464-22.789 31.943-43.062 31.943h-15v46c0 23.971 11.317 45.335 28.875 59.074-3.001 9.232-11.683 15.926-21.902 15.926h-36.973zm45.483 287c-9.37 0-36.733 0-45.483 0v-61h-30v91h60v30h-90v-166c0-24.813 20.187-45 45-45 0 0 53.153-.025 53.742-.045l36.305 36.305c-26.486 11.586-45.047 38.03-45.047 68.74 0 16.763 5.453 32.772 15.483 46zm104.517 60h-90v-30h90zm-45-60c-24.393 0-45-21.065-45-46 0-24.813 20.187-45 45-45s45 20.187 45 45c0 24.935-20.607 46-45 46zm165-106v166h-90v-30h60v-91h-30v61c-14.05 0-45.483 0-45.483 0 10.03-13.228 15.483-29.237 15.483-46 0-30.71-18.561-57.154-45.047-68.74l36.305-36.305c.589.02 53.742.045 53.742.045 24.813 0 45 20.187 45 45z"/></g></svg>