<svg id="Capa_1" enable-background="new 0 0 512 512" height="512" viewBox="0 0 512 512" width="512" xmlns="http://www.w3.org/2000/svg"><g><g><circle cx="403.972" cy="254.147" fill="#ffcbbe" r="35.907"/><circle cx="108.028" cy="254.147" fill="#ffb39d" r="35.907"/><path d="m170.119 417.159 54.213 39.064 17.878 48.277h-87.291c-12.29 0-21.53-11.2-19.21-23.27 4.78-24.85 17.07-47.031 34.41-64.071z" fill="#5b778f"/><path d="m357.081 504.5h-14.47c-26.684-7.275-49.489-25.752-53.48-46.56l1.9-4.59 50.85-36.19c17.34 17.04 29.63 39.22 34.41 64.07 2.32 12.07-6.92 23.27-19.21 23.27z" fill="#6a829a"/><path d="m342.611 504.5h-72.82l19.34-46.56c15.619 16.78 33.419 32.41 53.48 46.56z" fill="#5b778f"/><path d="m341.881 417.149c0 .01-42.42 51.4-42.42 51.4-32.42-10.61-57.11-45.498-57.11-75.03h65.58c12.649 5.92 24.11 13.95 33.95 23.63z" fill="#eaaa83"/><path d="m299.46 468.55-29.67 35.95h-27.58l-72.09-87.341c9.84-9.69 21.3-17.72 33.95-23.64h38.28c14.83 26.791 33.79 52.121 57.11 75.031z" fill="#e4996d"/><path d="m404.611 254.238c0 82.081-66.54 148.611-148.611 148.611-2.83 0-5.63-.08-8.42-.23-74.927-72.317-83.27-210.684-23.42-293.562 10.26-2.24 20.91-3.42 31.84-3.42 82.071.001 148.611 66.531 148.611 148.601z" fill="#ffddcf"/><path d="m247.58 402.619c-78.151-4.37-140.191-69.131-140.191-148.381 0-71.14 50-130.611 116.771-145.181-36.19 89.571-31.73 201.132 23.42 293.562z" fill="#ffcbbe"/><path d="m424.241 183.988c-56.176-14.126-277.153-13.755-336.482 0 20.09-74.071 87.8-128.561 168.241-128.561s148.151 54.49 168.241 128.561z" fill="#d7ddf5"/><path d="m401.841 65.897c-1.23 19.87-7.64 58.58-37.17 90.611-2.63 2.85-5.35 5.51-8.13 7.99-4.88-1.35-9.85-2.61-14.91-3.77 0-13.096 1.719-26.65 6.059-39.371 8.32-24.38 12.535-43.09 19.121-62.62 8.52-2.5 16.11-3.96 22.04-4.81 7.15-1.03 13.44 4.77 12.99 11.97z" fill="#6a829a"/><path d="m359.441 126.168c-4.34 12.72-10.41 24.48-17.81 34.56-20.78-4.77-42.91-7.86-65.87-8.99 1.06-16.6 10.05-36.34 25.8-53.42 20.65-22.39 45.46-33.79 65.25-39.58 2.02 19.759.95 43.049-7.37 67.43z" fill="#5b778f"/><path d="m340.521 119.708c-5.01 14.68-12.5 27.26-21.12 36.65-3.66-.6-7.35-1.16-11.07-1.65-1.285-15.694-.234-34.038-.234-52.478 0-28.86-6.996-51.287-6.996-71.223 7.48-6.51 14.54-11.44 20.08-14.9 6.12-3.83 14.21-1.06 16.72 5.7 6.9 18.67 16.68 56.67 2.62 97.901z" fill="#f3f5fc"/><path d="m318.92 103.507c0 18.44-3.72 36.29-10.59 51.2-16.5-2.21-33.6-3.4-51.08-3.46-5.72-15.6-5.47-37.29 2.02-59.25 9.45-27.7 26.52-47.67 41.83-60.99 9.66 19.03 17.82 43.64 17.82 72.5z" fill="#d7ddf5"/><path d="m170.369 160.728c-5.06 1.16-10.03 2.42-14.91 3.77-2.78-2.48-5.5-5.14-8.13-7.99-29.53-32.03-35.94-70.74-37.17-90.611-.45-7.2 5.84-13 12.99-11.97 5.93.85 13.52 2.31 22.04 4.81 5.051 21.237 7.031 40.762 15.351 65.142 4.34 12.721 8.828 26.065 9.829 36.849z" fill="#6a829a"/><path d="m236.24 151.738c-22.96 1.13-45.09 4.22-65.87 8.99-7.4-10.08-13.47-21.84-17.81-34.56-8.32-24.38-9.39-47.67-7.37-67.43 19.79 5.79 44.6 17.19 65.25 39.58 15.75 17.079 24.74 36.82 25.8 53.42z" fill="#5b778f"/><path d="m202.369 103.911c0 18.44.881 32.37 1.301 50.797-3.72.49-7.41 1.05-11.07 1.65-8.62-9.39-16.11-21.97-21.12-36.65-14.06-41.23-4.28-79.23 2.62-97.901 2.51-6.76 10.6-9.53 16.72-5.7 5.54 3.46 12.61 8.39 20.09 14.9-1.395 21.196-8.541 44.044-8.541 72.904z" fill="#f3f5fc"/><path d="m254.75 151.248c-17.48.06-34.58 1.25-51.08 3.46-6.87-14.91-10.59-32.76-10.59-51.2 0-28.86 8.16-53.47 17.83-72.5 15.3 13.33 32.37 33.29 41.82 60.99 7.49 21.959 7.74 43.65 2.02 59.25z" fill="#d7ddf5"/><path d="m298.92 103.507c0 18.99-4.54 36.22-11.91 48.94-.15-.01-.29-.02-.44-.03-61.518-22.834-63.404-109.505-25.44-143.701 1.38.69 2.65 1.68 3.7 2.98 12.57 15.431 34.09 48.241 34.09 91.811z" fill="#6a829a"/><path d="m286.57 152.418c-10.03-.78-20.23-1.18-30.57-1.18-10.49 0-20.84.41-31.01 1.21-7.37-12.72-11.91-29.95-11.91-48.94 0-43.57 21.52-76.381 34.09-91.811 3.5-4.3 9.36-5.3 13.96-2.98-26.47 40.99-22.11 105.75 25.44 143.701z" fill="#5b778f"/><path d="m430.311 229.738c-10.06 0-19.49-1.37-28.41-3.77-33.61-23.89-86.461-39.3-145.901-39.3-18.34 0-36.04 1.47-52.75 4.2-4.816-14.541-3.574-34.51 8.88-45.85 14.26-1.6 28.93-2.43 43.87-2.43 65.13 0 125.151 15.79 168.241 41.4 3.96 14.58 6.07 29.92 6.07 45.75z" fill="#eaaa83"/><path d="m212.13 145.018c-4.02 14.92-6.99 30.26-8.88 45.85-37.51 6.12-69.99 18.61-93.241 35.16-9.1 2.82-18.42 3.71-28.32 3.71 0-15.83 2.11-31.17 6.07-45.75 33.21-19.74 76.46-33.64 124.371-38.97z" fill="#e4996d"/><path d="m317.37 352.199v.21c0 40.28-34.35 66.671-51.65 77.411-32.601-17.838-52.749-64.334-48.43-94.001 12.15 1.67 25.17 2.58 38.71 2.58 14.62 0 28.63-1.06 41.6-2.99 10.3-1.54 19.73 6.37 19.77 16.79z" fill="#f3f5fc"/><path d="m265.72 429.82c-5.83 3.62-9.72 5.46-9.72 5.46s-61.37-29.03-61.37-82.871v-.21c.04-10.42 9.47-18.33 19.77-16.79.96.14 1.92.28 2.89.41 10.69 32.89 26.71 64.73 48.43 94.001z" fill="#d7ddf5"/><g fill="#ffa1ac"><ellipse cx="176.443" cy="289.827" rx="29.355" ry="23.377"/><ellipse cx="335.557" cy="289.827" rx="29.355" ry="23.377"/></g></g><g><path d="m437.779 226.951c-.605-40.024-14.53-79.036-39.53-110.414 8.786-22.362 10.681-42.176 11.078-50.171.352-5.694-1.854-11.18-6.049-15.049-4.197-3.869-9.846-5.622-15.491-4.812-8.391 1.207-20.482 3.662-33.97 8.641-1.964-14.856-5.688-27.287-8.888-35.935-1.98-5.352-6.214-9.478-11.616-11.32-5.402-1.844-11.275-1.165-16.114 1.86-7.678 4.802-18.375 12.441-29.192 23.22-5.792-10.724-12.046-19.482-17.359-26.009-3.601-4.424-8.94-6.962-14.648-6.962s-11.047 2.538-14.649 6.963c-5.058 6.214-11.412 15.006-17.357 26.01-10.816-10.779-21.515-18.418-29.194-23.222-4.838-3.026-10.711-3.704-16.113-1.859-5.402 1.843-9.636 5.969-11.616 11.32-3.2 8.648-6.924 21.08-8.888 35.935-13.487-4.98-25.578-7.435-33.97-8.641-5.646-.811-11.293.942-15.49 4.812-4.196 3.869-6.401 9.354-6.054 14.957.398 8.048 2.291 27.889 11.081 50.265-24.998 31.378-38.922 70.388-39.528 110.411-6.204 7.698-9.599 17.237-9.599 27.152-.075 12.189 5.143 23.933 14.313 32.22 7.541 6.814 17.136 10.738 27.05 11.202 12.057 41.901 41.283 77.259 81.006 96.794-30.272 19.016-51.835 50.028-58.65 85.495-1.53 7.96.552 16.109 5.714 22.358 5.159 6.246 12.764 9.828 20.864 9.828h154.714c4.142 0 7.5-3.357 7.5-7.5s-3.358-7.5-7.5-7.5h-23.93l18.766-22.737.729 5.476c.529 4.123 4.402 7.007 8.425 6.444 4.106-.547 6.991-4.319 6.444-8.425l-2.568-19.282 9.101-11.027 1.672 7.53c.88 4.073 5.008 6.605 8.947 5.696 4.043-.897 6.594-4.903 5.696-8.946l-4.207-18.951 3.554-4.306c13.4 15.204 22.759 33.862 26.665 54.174.683 3.551-.246 7.187-2.548 9.974-2.3 2.784-5.689 4.381-9.3 4.381h-12.447c-4.142 0-7.5 3.357-7.5 7.5s3.358 7.5 7.5 7.5h12.447c8.1 0 15.705-3.582 20.864-9.828 5.162-6.249 7.245-14.398 5.714-22.358-6.814-35.468-28.378-66.479-58.65-85.495 39.723-19.536 68.949-54.893 81.006-96.794 9.914-.464 19.509-4.389 27.05-11.203 9.17-8.287 14.387-20.03 14.312-32.173.002-9.959-3.393-19.502-9.597-27.199zm-32.662-7.892c-36.373-25.362-90.617-39.885-149.117-39.885-58.617 0-112.944 14.576-149.319 40.026-5.198 1.508-10.834 2.432-17.312 2.824.512-11.003 2.121-21.881 4.756-32.48 47.629-27.729 106.329-39.45 161.875-39.454 55.532.001 114.26 11.729 161.875 39.455 2.629 10.577 4.238 21.433 4.753 32.414-5.887-.443-11.675-1.403-17.511-2.9zm6.203-50.113c-10.989-5.509-22.646-10.389-34.855-14.605 5.88-7.284 10.719-14.835 14.689-22.344 8.286 11.454 15.052 23.879 20.166 36.949zm-21.398-107.592c3.051.03 4.182 1.073 4.429 4.179-.419 8.434-3.986 50.972-33.377 83.9-7.531-2.181-15.235-4.126-23.093-5.822 3.857-6.653 7.125-13.832 9.733-21.476 6.196-18.161 8.005-35.692 7.487-51.4 13.829-5.558 26.384-8.169 34.821-9.381zm-136.938-44.922c2.229-2.028 3.803-2.029 6.032 0 10.458 12.235 23.46 35.272 28.102 54.481 1.063 4.003 5.171 6.388 9.175 5.321 4.003-1.063 6.386-5.172 5.321-9.175-1.86-6.996-4.153-13.548-6.7-19.646 11.048-11.838 22.382-20.028 30.241-24.943 2.763-1.202 4.255-.693 5.708 1.947 9.708 24.935 13.596 62.478 2.556 92.874-2.85 8.355-6.722 16.312-11.288 23.29-6.796-1.156-13.689-2.128-20.66-2.923 3.23-10.506 4.93-22.057 4.95-33.937.007-4.143-3.345-7.506-7.487-7.513-4.149 0-7.506 3.35-7.513 7.487-.02 11.554-1.831 22.677-5.256 32.51-7.484-.558-15.046-.901-22.664-1.04v-43.17c0-4.143-3.358-7.5-7.5-7.5s-7.5 3.357-7.5 7.5v43.17c-7.618.139-15.18.482-22.664 1.04-3.446-9.89-5.258-21.079-5.258-32.7-.328-33.315 14.699-65.589 32.405-87.073zm-71.846 7.985c1.454-2.64 2.943-3.148 5.708-1.948 7.859 4.915 19.192 13.106 30.238 24.94-6.594 15.755-11.506 34.678-11.506 56.098 0 11.955 1.701 23.579 4.952 34.151-6.971.795-13.864 1.767-20.66 2.923-4.565-6.978-8.438-14.935-11.288-23.29-11.041-30.347-7.148-67.989 2.556-92.874zm-62.248 37.928c.508-.469 1.595-1.222 3.188-.991 8.437 1.213 20.992 3.824 34.822 9.381-.518 15.708 1.291 33.239 7.487 51.4 2.608 7.645 5.876 14.823 9.733 21.476-7.858 1.696-15.562 3.641-23.094 5.822-29.402-32.933-32.959-75.47-33.382-83.99-.099-1.605.738-2.63 1.246-3.098zm16.643 91.996c-12.208 4.216-23.864 9.095-34.852 14.604 5.113-13.067 11.879-25.492 20.163-36.946 3.97 7.509 8.809 15.059 14.689 22.342zm-46.542 120.851c-6.003-5.425-9.418-13.078-9.37-21.044 0-6.156 1.984-12.07 5.627-16.954 5.694-.131 10.883-.585 15.732-1.381-.723 6.118-1.089 12.283-1.089 18.43 0 9.428.843 18.704 2.467 27.745-4.898-1.01-9.532-3.331-13.367-6.796zm220.884 77.215c0 41.605-41.825 67.742-53.874 74.406-12.058-6.669-53.875-32.804-53.875-74.406v-.179c.012-2.768 1.193-5.301 3.328-7.132 1.798-1.544 4.07-2.376 6.399-2.376.48 0 .963.036 1.444.107 13.667 2.038 28.035 3.071 42.704 3.071s29.037-1.033 42.704-3.071c2.813-.416 5.674.406 7.843 2.269 2.134 1.831 3.316 4.364 3.328 7.101v.21zm-164.255 140.212c-2.302-2.787-3.231-6.423-2.548-9.974 3.906-20.312 13.265-38.97 26.665-54.174l3.554 4.306-4.207 18.952c-.897 4.043 1.653 8.049 5.696 8.946 3.939.909 8.067-1.624 8.947-5.696l1.672-7.531 9.101 11.027-2.568 19.284c-.547 4.105 2.338 7.878 6.444 8.425 4.023.562 7.896-2.321 8.425-6.444l.729-5.477 18.766 22.737h-71.377c-3.61 0-7-1.597-9.299-4.381zm100.126 4.381-65.328-79.152c7.14-6.238 15.075-11.636 23.678-15.995 18.862 25.8 46.927 39.371 48.697 40.208 2.03.961 4.384.961 6.414 0 1.771-.837 29.835-14.408 48.697-40.208 8.604 4.359 16.539 9.757 23.678 15.995l-65.328 79.152zm74.057-116.87c3.163-8.405 5.072-17.647 5.072-27.723v-.241c-.03-7.084-3.149-13.81-8.558-18.452-5.474-4.697-12.701-6.783-19.825-5.722-12.938 1.929-26.561 2.907-40.492 2.907s-27.554-.979-40.492-2.907c-7.125-1.061-14.35 1.024-19.825 5.722-5.409 4.643-8.528 11.368-8.558 18.483v.21c0 10.076 1.909 19.318 5.072 27.723-46.939-23.75-77.306-72.084-77.306-125.886 0-7.983.683-15.999 2.025-23.872 33.902-23.032 84.351-36.198 139.083-36.198 54.725 0 105.181 13.169 139.084 36.2 1.342 7.874 2.025 15.889 2.025 23.87 0 53.802-30.366 102.136-77.305 125.886zm103.206-104.938c-3.834 3.465-8.467 5.784-13.368 6.796 1.624-9.041 2.467-18.317 2.467-27.745 0-6.212-.372-12.442-1.11-18.624 5.215.879 10.477 1.402 15.746 1.565 3.648 4.886 5.634 10.81 5.634 17.009.049 7.921-3.366 15.575-9.369 20.999z"/><path d="m193.551 247.825c-4.142 0-7.5 3.357-7.5 7.5v12c0 4.143 3.358 7.5 7.5 7.5s7.5-3.357 7.5-7.5v-12c0-4.142-3.358-7.5-7.5-7.5z"/><path d="m318.449 247.825c-4.142 0-7.5 3.357-7.5 7.5v12c0 4.143 3.358 7.5 7.5 7.5s7.5-3.357 7.5-7.5v-12c0-4.142-3.358-7.5-7.5-7.5z"/><path d="m277.392 261.313c-3.124-2.722-7.861-2.396-10.582.727-2.729 3.132-6.669 4.928-10.81 4.928s-8.081-1.796-10.81-4.928c-2.722-3.122-7.459-3.447-10.582-.727-3.123 2.722-3.448 7.459-.727 10.582 5.579 6.401 13.641 10.072 22.119 10.072s16.54-3.671 22.119-10.072c2.721-3.123 2.396-7.86-.727-10.582z"/></g></g></svg>