<svg id="Capa_1" enable-background="new 0 0 512 512" height="512" viewBox="0 0 512 512" width="512" xmlns="http://www.w3.org/2000/svg"><g><g><path d="m471.729 306.58c-46.628 67.122-124.25 111.046-212.141 111.046-87.892 0-165.513-43.923-212.141-111.046 46.628-67.076 124.25-110.999 212.141-110.999 87.891-.001 165.513 43.922 212.141 110.999z" fill="#f3f0f3"/><path d="m471.725 306.581c-46.628 67.12-124.249 111.048-212.138 111.048-6.495 0-12.935-.244-19.308-.719 79.878-5.909 149.643-48.177 192.819-110.329-43.176-62.119-112.94-104.376-192.819-110.285 6.373-.476 12.813-.719 19.308-.719 87.889 0 165.51 43.928 212.138 111.004z" fill="#e2dee2"/><g><g><circle cx="259.586" cy="306.569" fill="#1c96f9" r="110.988"/><path d="m370.577 306.569c0 61.305-49.687 110.991-110.991 110.991-34.093 0-64.589-15.352-84.955-39.556 4.218.519 8.541.761 12.897.761 61.305 0 110.992-49.687 110.992-110.991 0-27.212-9.785-52.142-26.036-71.436 55.218 6.362 98.093 53.283 98.093 110.231z" fill="#1785f8"/></g></g></g><g><g><path d="m328.182 310.135c0 35.804-29.019 64.824-64.824 64.824-19.911 0-37.723-8.966-49.617-23.102 2.464.303 4.988.444 7.532.444 35.805 0 64.824-29.019 64.824-64.824 0-15.893-5.715-30.453-15.206-41.721 32.25 3.715 57.291 31.119 57.291 64.379z" fill="#ffd597"/></g><g><path d="m328.178 310.136c0 35.806-29.012 64.819-64.819 64.819-4.293 0-8.487-.42-12.548-1.217 29.887-5.776 52.448-32.066 52.448-63.635 0-19.862-8.929-37.632-22.993-49.516-2.445-5.378-5.621-10.357-9.372-14.827 32.244 3.706 57.284 31.114 57.284 64.376z" fill="#fcc16d"/></g><g><path d="m375.905 407.254-5.205-6.528c42.49-19.585 79.714-50.319 107.188-89.868 1.788-2.573 1.787-5.987-.001-8.56-13.407-19.288-29.332-36.749-47.33-51.896-3.168-2.667-7.9-2.26-10.567.909s-2.26 7.9.909 10.568c15.646 13.168 29.632 28.189 41.63 44.702-32.189 44.336-77.583 76.385-128.709 92.266 26.968-21.737 44.255-55.024 44.255-92.278 0-37.274-17.306-70.576-44.298-92.313 22.732 7.032 44.442 17.313 64.521 30.679 3.449 2.295 8.104 1.361 10.399-2.087s1.36-8.104-2.087-10.399c-36.028-23.982-76.997-38.613-119.803-42.976l-.729-10.959c-.274-4.134-3.879-7.255-7.981-6.985-4.133.275-7.261 3.849-6.985 7.981l.589 8.854c-4.026-.181-8.063-.283-12.113-.283 0 0 0 0-.001 0s0 0 0 0c-.001 0-.001 0-.002 0-46.984 0-92.398 12.468-132.068 35.201l-55.083-49.832c-3.068-2.777-7.813-2.542-10.593.53-2.779 3.072-2.542 7.814.53 10.594l51.815 46.875c-28.239 18.464-53.099 42.368-72.898 70.85-1.788 2.573-1.789 5.986-.001 8.56 49.703 71.55 131.312 114.267 218.3 114.267 33.575 0 66.346-6.369 96.792-18.298l7.798 9.779c1.481 1.857 3.665 2.825 5.869 2.825 1.639 0 3.29-.535 4.671-1.637 3.238-2.583 3.77-7.302 1.188-10.541zm-319.259-100.673c32.172-44.283 77.523-76.302 128.596-92.189-23.045 18.587-39.117 45.668-43.153 76.807-.532 4.107 2.365 7.869 6.474 8.402 4.104.525 7.87-2.366 8.401-6.474 6.653-51.334 50.771-90.045 102.619-90.046h.002c57.063 0 103.488 46.425 103.488 103.488s-46.425 103.488-103.488 103.488c-51.711 0-95.813-38.596-102.583-89.777-.543-4.107-4.325-6.997-8.419-6.452-4.106.543-6.995 4.313-6.452 8.419 4.111 31.072 20.235 58.091 43.299 76.624-51.156-15.873-96.578-47.932-128.784-92.29z"/><path d="m243.52 154.313h2.388c3.416 0 6.195 2.779 6.195 6.195v2.38c0 4.142 3.357 7.5 7.5 7.5s7.5-3.358 7.5-7.5v-2.38c0-3.416 2.778-6.195 6.194-6.195h2.358c4.143 0 7.5-3.358 7.5-7.5s-3.357-7.5-7.5-7.5h-2.358c-3.416 0-6.194-2.779-6.194-6.194v-2.367c0-4.142-3.357-7.5-7.5-7.5s-7.5 3.358-7.5 7.5v2.367c0 3.416-2.779 6.194-6.195 6.194h-2.388c-4.143 0-7.5 3.358-7.5 7.5s3.357 7.5 7.5 7.5z"/><path d="m116.462 53.114h2.388c3.416 0 6.194 2.779 6.194 6.194v2.38c0 4.142 3.357 7.5 7.5 7.5s7.5-3.358 7.5-7.5v-2.38c0-3.416 2.779-6.194 6.195-6.194h2.358c4.143 0 7.5-3.358 7.5-7.5s-3.357-7.5-7.5-7.5h-2.358c-3.416 0-6.195-2.779-6.195-6.195v-2.367c0-4.142-3.357-7.5-7.5-7.5s-7.5 3.358-7.5 7.5v2.367c0 3.416-2.778 6.195-6.194 6.195h-2.388c-4.143 0-7.5 3.358-7.5 7.5s3.357 7.5 7.5 7.5z"/><path d="m46.912 181.416v-4.723c0-10.848 8.825-19.673 19.674-19.673h4.68c4.143 0 7.5-3.358 7.5-7.5s-3.357-7.5-7.5-7.5h-4.68c-10.849 0-19.674-8.825-19.674-19.673v-4.696c0-4.142-3.357-7.5-7.5-7.5s-7.5 3.358-7.5 7.5v4.696c0 10.848-8.825 19.673-19.673 19.673h-4.739c-4.143 0-7.5 3.358-7.5 7.5s3.357 7.5 7.5 7.5h4.739c10.848 0 19.673 8.825 19.673 19.673v4.723c0 4.142 3.357 7.5 7.5 7.5s7.5-3.358 7.5-7.5zm-13.174-31.896c2.103-1.667 4.007-3.572 5.674-5.674 1.667 2.103 3.572 4.007 5.674 5.674-2.103 1.667-4.007 3.572-5.674 5.674-1.667-2.102-3.571-4.007-5.674-5.674z"/><path d="m504.5 458.873h-2.358c-3.416 0-6.194-2.779-6.194-6.195v-2.367c0-4.142-3.357-7.5-7.5-7.5s-7.5 3.358-7.5 7.5v2.367c0 3.416-2.779 6.195-6.195 6.195h-2.388c-4.143 0-7.5 3.358-7.5 7.5s3.357 7.5 7.5 7.5h2.388c3.416 0 6.195 2.779 6.195 6.194v2.38c0 4.142 3.357 7.5 7.5 7.5s7.5-3.358 7.5-7.5v-2.38c0-3.416 2.778-6.194 6.194-6.194h2.358c4.143 0 7.5-3.358 7.5-7.5s-3.357-7.5-7.5-7.5z"/><path d="m414.117 428.479h-2.358c-3.416 0-6.194-2.779-6.194-6.194v-2.367c0-4.142-3.357-7.5-7.5-7.5s-7.5 3.358-7.5 7.5v2.367c0 3.416-2.778 6.194-6.194 6.194h-2.389c-4.143 0-7.5 3.358-7.5 7.5s3.357 7.5 7.5 7.5h2.389c3.416 0 6.194 2.779 6.194 6.195v2.38c0 4.142 3.357 7.5 7.5 7.5s7.5-3.358 7.5-7.5v-2.38c0-3.416 2.778-6.195 6.194-6.195h2.358c4.143 0 7.5-3.358 7.5-7.5s-3.357-7.5-7.5-7.5z"/><path d="m458.102 438.78-15.708-4.782c-3.963-1.205-8.153 1.028-9.359 4.991-1.206 3.962 1.028 8.153 4.99 9.359l15.708 4.782c.729.222 1.464.327 2.188.327 3.214 0 6.188-2.083 7.172-5.318 1.205-3.962-1.03-8.153-4.991-9.359z"/><path d="m152.277 67.125c-2.358 3.405-1.51 8.078 1.896 10.436l70.745 48.999c1.303.902 2.791 1.335 4.264 1.335 2.378 0 4.716-1.128 6.173-3.23 2.358-3.405 1.51-8.078-1.896-10.436l-70.745-48.999c-3.406-2.36-8.077-1.509-10.437 1.895z"/><path d="m404.485 300.524h-.111c-4.143 0-7.5 3.358-7.5 7.5s3.357 7.5 7.5 7.5h.111c4.143 0 7.5-3.358 7.5-7.5s-3.357-7.5-7.5-7.5z"/><path d="m429.424 315.524c4.143 0 7.5-3.358 7.5-7.5s-3.357-7.5-7.5-7.5h-.11c-4.143 0-7.5 3.358-7.5 7.5s3.357 7.5 7.5 7.5z"/><path d="m89.861 300.524h-.111c-4.143 0-7.5 3.358-7.5 7.5s3.357 7.5 7.5 7.5h.111c4.143 0 7.5-3.358 7.5-7.5s-3.357-7.5-7.5-7.5z"/><path d="m114.8 300.524h-.11c-4.143 0-7.5 3.358-7.5 7.5s3.357 7.5 7.5 7.5h.11c4.143 0 7.5-3.358 7.5-7.5s-3.358-7.5-7.5-7.5z"/><path d="m234.594 285.38c-4.143 0-7.5 3.358-7.5 7.5v1.868c0 1.826-1.485 3.312-3.312 3.312h-1.885c-4.143 0-7.5 3.358-7.5 7.5s3.357 7.5 7.5 7.5h1.885c1.826 0 3.312 1.485 3.312 3.311v1.879c0 4.142 3.357 7.5 7.5 7.5s7.5-3.358 7.5-7.5v-1.879c0-1.826 1.485-3.311 3.312-3.311h1.861c4.143 0 7.5-3.358 7.5-7.5s-3.357-7.5-7.5-7.5h-1.861c-1.826 0-3.312-1.485-3.312-3.312v-1.868c0-4.142-3.358-7.5-7.5-7.5z"/><path d="m209.212 265.608h1.886c1.826 0 3.312 1.485 3.312 3.312v1.879c0 4.142 3.357 7.5 7.5 7.5s7.5-3.358 7.5-7.5v-1.879c0-1.826 1.485-3.312 3.311-3.312h1.862c4.143 0 7.5-3.358 7.5-7.5s-3.357-7.5-7.5-7.5h-1.862c-1.825 0-3.311-1.485-3.311-3.312v-1.868c0-4.142-3.357-7.5-7.5-7.5s-7.5 3.358-7.5 7.5v1.868c0 1.826-1.485 3.312-3.312 3.312h-1.886c-4.143 0-7.5 3.358-7.5 7.5s3.357 7.5 7.5 7.5z"/><path d="m221.273 344.8c-2.298 0-4.524-.13-6.617-.388-3.073-.379-6.041 1.159-7.509 3.869-1.47 2.711-1.131 6.045.854 8.404 13.782 16.38 33.959 25.774 55.356 25.774 15.417 0 30.142-4.798 42.582-13.875 3.346-2.441 4.079-7.133 1.638-10.479-2.442-3.346-7.133-4.081-10.479-1.638-9.855 7.191-21.522 10.992-33.74 10.992-10.838 0-21.281-3.041-30.26-8.625 34.274-5.66 60.498-35.503 60.498-71.357 0-10.212-2.168-20.246-6.264-29.445 19.843 9.11 33.349 29.164 33.349 52.103 0 9.342-2.306 18.622-6.668 26.837-1.942 3.658-.552 8.199 3.106 10.142 3.659 1.942 8.198.551 10.142-3.106 5.509-10.373 8.42-22.086 8.42-33.872 0-36.75-27.485-67.631-63.933-71.83-3.054-.351-6.013 1.195-7.466 3.903-1.454 2.708-1.109 6.029.871 8.379 8.668 10.292 13.442 23.393 13.442 36.89.002 31.607-25.713 57.322-57.322 57.322z"/></g></g></g></svg>