<svg id="Capa_1" enable-background="new 0 0 512 512" height="512" viewBox="0 0 512 512" width="512" xmlns="http://www.w3.org/2000/svg"><g><path d="m60 422h-30v30h-30v30h30v30h30v-30h30v-30h-30z"/><path d="m482 0h-30v30h-30v30h30v30h30v-30h30v-30h-30z"/><path d="m331 136c0 24.813 20.187 45 45 45s45-20.187 45-45-20.187-45-45-45-45 20.187-45 45zm60 0c0 8.271-6.729 15-15 15s-15-6.729-15-15 6.729-15 15-15 15 6.729 15 15z"/><path d="m512 286c0-24.813-20.187-45-45-45s-45 20.187-45 45c0 19.555 12.541 36.228 30 42.42v35.16c-15.513 5.502-27.136 19.281-29.535 36.003l-67.808 13.415c-6.583-11.021-17.741-18.998-30.834-21.303l-16.055-96.328c13.84-7.683 23.232-22.446 23.232-39.367 0-24.813-20.187-45-45-45-13.452 0-25.536 5.941-33.79 15.329l-71.257-28.503c.024-.606.046-1.213.046-1.826 0-24.813-20.187-45-45-45-6.987 0-13.608 1.602-19.514 4.456l-30.827-30.192c2.781-5.844 4.342-12.374 4.342-19.264 0-24.813-20.187-45-45-45s-45 20.187-45 45 20.187 45 45 45c6.987 0 13.608-1.602 19.514-4.456l30.827 30.192c-2.78 5.844-4.341 12.374-4.341 19.264 0 24.813 20.187 45 45 45 13.452 0 25.536-5.941 33.79-15.329l71.257 28.503c-.025.607-.047 1.214-.047 1.826 0 22.144 16.082 40.59 37.177 44.305l16.055 96.328c-13.84 7.683-23.232 22.446-23.232 39.367 0 24.813 20.187 45 45 45 22.634 0 41.41-16.8 44.535-38.583l67.808-13.415c7.861 13.162 22.244 21.998 38.657 21.998 24.813 0 45-20.187 45-45 0-19.555-12.541-36.228-30-42.42v-35.16c17.459-6.192 30-22.865 30-42.42zm-467-165c-8.271 0-15-6.729-15-15s6.729-15 15-15 15 6.729 15 15-6.729 15-15 15zm91 90c-8.271 0-15-6.729-15-15s6.729-15 15-15 15 6.729 15 15-6.729 15-15 15zm150 60c-8.271 0-15-6.729-15-15s6.729-15 15-15 15 6.729 15 15-6.729 15-15 15zm30 180c-8.271 0-15-6.729-15-15s6.729-15 15-15 15 6.729 15 15-6.729 15-15 15zm151-30c-8.271 0-15-6.729-15-15s6.729-15 15-15 15 6.729 15 15-6.729 15-15 15zm0-120c-8.271 0-15-6.729-15-15s6.729-15 15-15 15 6.729 15 15-6.729 15-15 15z"/><path d="m106 301c-24.813 0-45 20.187-45 45s20.187 45 45 45 45-20.187 45-45-20.187-45-45-45zm0 60c-8.271 0-15-6.729-15-15s6.729-15 15-15 15 6.729 15 15-6.729 15-15 15z"/></g></svg>