<svg id="Capa_1" enable-background="new 0 0 512 512" height="512" viewBox="0 0 512 512" width="512" xmlns="http://www.w3.org/2000/svg"><g><path d="m431.554 80.284c-46.935-46.936-109.339-72.784-175.716-72.784s-128.78 25.848-175.716 72.784-72.784 109.339-72.784 175.716 25.848 128.78 72.784 175.716 109.339 72.784 175.716 72.784 128.78-25.848 175.716-72.784 72.784-109.339 72.784-175.716-25.848-128.78-72.784-175.716zm-221.262 299.729h91.093l-45.546 75.466zm-20.159-33.402-54.687-90.611 54.687-90.611h131.411l54.687 90.611-54.687 90.611zm-149.393-90.611c0-25.176 4.362-49.349 12.346-71.821l43.346 71.821-43.346 71.821c-7.984-22.472-12.346-46.645-12.346-71.821zm40.019-90.611h70.361l-35.18 58.29zm35.18 122.932 35.18 58.29h-70.36zm185.446-156.334h-91.093l45.546-75.466zm59.172 33.402h70.361l-35.18 58.29zm35.181 122.932 35.18 58.29h-70.361zm19.506-32.321 43.346-71.821c7.984 22.472 12.346 46.645 12.346 71.821s-4.362 49.349-12.346 71.821zm16.248-124.013h-91.094l-53.626-88.852c59.606 8.623 111.379 41.767 144.72 88.852zm-206.588-88.852-53.626 88.852h-91.094c33.341-47.085 85.115-80.229 144.72-88.852zm-144.72 336.878h91.094l53.626 88.852c-59.605-8.623-111.379-41.767-144.72-88.852zm206.589 88.852 53.626-88.852h91.094c-33.342 47.085-85.115 80.229-144.72 88.852z" fill="#fb6a3b"/><path d="m504.338 256c0 66.38-25.85 128.78-72.78 175.72-46.94 46.93-109.34 72.78-175.72 72.78-5.18 0-10.33-.16-15.45-.47 60.55-3.7 116.97-29.05 160.23-72.31 46.94-46.94 72.79-109.34 72.79-175.72s-25.85-128.78-72.79-175.72c-43.26-43.26-99.68-68.61-160.23-72.31 5.12-.31 10.27-.47 15.45-.47 66.38 0 128.78 25.85 175.72 72.78 46.93 46.94 72.78 109.34 72.78 175.72z" fill="#fb5532"/><g><path d="m395.738 280.821c-2.627 0-5.063 1.375-6.421 3.625l-35.181 58.29c-1.398 2.316-1.44 5.206-.11 7.562s3.826 3.813 6.531 3.813h70.361c2.706 0 5.201-1.457 6.531-3.813s1.288-5.246-.11-7.562l-35.18-58.29c-1.358-2.25-3.794-3.625-6.421-3.625zm21.893 58.29h-43.788l21.894-36.275z"/><path d="m52.331 176.717c-2.884.292-5.342 2.219-6.313 4.951-8.479 23.867-12.778 48.876-12.778 74.332s4.299 50.464 12.779 74.332c.971 2.732 3.428 4.659 6.313 4.951.253.026.505.038.757.038 2.608 0 5.053-1.361 6.419-3.625l43.347-71.821c1.438-2.383 1.438-5.368 0-7.751l-43.347-71.821c-1.499-2.481-4.294-3.883-7.177-3.586zm2.952 132.948c-4.679-17.444-7.043-35.431-7.043-53.665s2.365-36.222 7.043-53.665l32.389 53.665z"/><path d="m151.12 157.889h-70.361c-2.706 0-5.201 1.457-6.531 3.813s-1.288 5.246.11 7.562l35.18 58.291c1.358 2.25 3.794 3.625 6.421 3.625s5.063-1.375 6.421-3.625l35.181-58.291c1.398-2.316 1.44-5.206.11-7.562s-3.826-3.813-6.531-3.813zm-35.181 51.276-21.894-36.276h43.788z"/><path d="m415.938 436.127c-44.047 39.255-100.905 60.873-160.1 60.873-64.374 0-124.894-25.068-170.413-70.587-42.322-42.322-67.279-98.445-70.272-158.03-.208-4.137-3.735-7.317-7.867-7.114-4.137.208-7.322 3.73-7.114 7.867 3.181 63.305 29.691 122.927 74.647 167.883 48.352 48.352 112.639 74.981 181.019 74.981 62.879 0 123.282-22.968 170.079-64.674 3.092-2.756 3.365-7.497.609-10.589s-7.495-3.364-10.588-.61z"/><path d="m436.858 74.98c-48.352-48.352-112.64-74.98-181.02-74.98s-132.667 26.628-181.019 74.98c-44.001 44.001-70.431 102.314-74.423 164.196-.267 4.134 2.868 7.701 7.001 7.967 4.132.271 7.701-2.868 7.967-7.001 3.756-58.244 28.638-113.132 70.06-154.555 45.52-45.519 106.041-70.587 170.414-70.587s124.894 25.068 170.413 70.587 70.587 106.04 70.587 170.413c0 59.226-21.638 116.105-60.927 160.161-2.757 3.091-2.485 7.832.606 10.589 1.43 1.275 3.213 1.902 4.989 1.902 2.063 0 4.118-.847 5.6-2.508 41.744-46.807 64.732-107.232 64.732-170.144 0-68.38-26.628-132.668-74.98-181.02z"/><path d="m437.449 161.702c-1.33-2.356-3.826-3.813-6.531-3.813h-70.361c-2.706 0-5.201 1.457-6.531 3.813s-1.288 5.246.11 7.562l35.181 58.291c1.357 2.25 3.793 3.625 6.421 3.625s5.063-1.375 6.421-3.625l35.18-58.291c1.398-2.316 1.44-5.206.11-7.562zm-41.711 47.463-21.894-36.276h43.788z"/><path d="m286.771 476.365c.356 0 .716-.025 1.075-.077 59.946-8.672 114.534-42.184 149.767-91.941 1.62-2.288 1.829-5.289.541-7.779-1.288-2.491-3.858-4.055-6.662-4.055h-91.094c-2.627 0-5.063 1.375-6.421 3.625l-53.626 88.853c-1.499 2.482-1.432 5.605.171 8.021 1.403 2.113 3.76 3.353 6.249 3.353zm57.861-88.852h71.704c-29.293 35.634-69.825 60.726-114.511 70.927z"/><path d="m255.838 49.021c-2.627 0-5.063 1.375-6.421 3.625l-45.547 75.466c-1.398 2.316-1.44 5.206-.11 7.563 1.33 2.356 3.826 3.813 6.531 3.813h91.093c2.706 0 5.201-1.457 6.531-3.813s1.288-5.246-.11-7.563l-45.545-75.466c-1.358-2.25-3.794-3.625-6.422-3.625zm-32.259 75.466 32.26-53.451 32.26 53.451z"/><path d="m287.846 35.712c-2.868-.415-5.721.861-7.324 3.277s-1.669 5.539-.171 8.021l53.626 88.853c1.357 2.25 3.793 3.625 6.421 3.625h91.094c2.804 0 5.374-1.564 6.662-4.054 1.288-2.491 1.08-5.492-.541-7.78-35.233-49.758-89.821-83.27-149.767-91.942zm56.786 88.775-42.807-70.927c44.686 10.201 85.218 35.293 114.511 70.927z"/><path d="m458.589 335.321c.251 0 .504-.012.757-.038 2.884-.292 5.342-2.219 6.313-4.951 8.479-23.867 12.779-48.876 12.779-74.332s-4.299-50.465-12.779-74.332c-.971-2.732-3.428-4.659-6.313-4.951-2.881-.292-5.677 1.105-7.176 3.586l-43.346 71.821c-1.439 2.383-1.439 5.368 0 7.751l43.346 71.821c1.366 2.264 3.811 3.625 6.419 3.625zm-2.196-132.986c4.679 17.444 7.043 35.431 7.043 53.665s-2.365 36.221-7.043 53.665l-32.388-53.665z"/><path d="m255.838 462.978c2.627 0 5.063-1.375 6.421-3.625l45.546-75.465c1.398-2.316 1.44-5.206.11-7.563-1.33-2.356-3.826-3.813-6.531-3.813h-91.093c-2.706 0-5.201 1.457-6.531 3.813s-1.288 5.246.11 7.563l45.547 75.465c1.358 2.25 3.794 3.625 6.421 3.625zm32.26-75.465-32.26 53.451-32.26-53.451z"/><path d="m74.227 350.297c1.33 2.356 3.826 3.813 6.531 3.813h70.361c2.706 0 5.201-1.457 6.531-3.813s1.288-5.246-.11-7.562l-35.181-58.29c-1.357-2.25-3.793-3.625-6.421-3.625s-5.063 1.375-6.421 3.625l-35.18 58.29c-1.398 2.317-1.44 5.206-.11 7.562zm41.712-47.462 21.894 36.275h-43.788z"/><path d="m74.063 384.347c35.233 49.758 89.821 83.269 149.767 91.941.359.052.719.077 1.075.077 2.489 0 4.847-1.241 6.249-3.354 1.603-2.416 1.669-5.539.171-8.021l-53.625-88.853c-1.358-2.25-3.794-3.625-6.421-3.625h-91.095c-2.804 0-5.374 1.564-6.662 4.055-1.287 2.491-1.079 5.492.541 7.78zm92.982 3.166 42.807 70.927c-44.686-10.201-85.218-35.293-114.511-70.927z"/><path d="m223.83 35.712c-59.946 8.672-114.534 42.184-149.767 91.941-1.62 2.288-1.829 5.289-.541 7.78 1.288 2.49 3.858 4.054 6.662 4.054h91.094c2.627 0 5.063-1.375 6.421-3.625l53.625-88.853c1.499-2.482 1.432-5.605-.171-8.021-1.602-2.415-4.452-3.69-7.323-3.276zm-56.785 88.775h-71.704c29.292-35.634 69.825-60.726 114.511-70.927z"/><path d="m251.826 172.889c4.142 0 7.5-3.358 7.5-7.5s-3.358-7.5-7.5-7.5h-61.693c-2.627 0-5.063 1.375-6.421 3.625l-54.687 90.611c-1.438 2.383-1.438 5.368 0 7.751l54.688 90.611c1.357 2.25 3.793 3.625 6.421 3.625h131.411c2.627 0 5.063-1.375 6.421-3.625l54.688-90.611c1.438-2.383 1.438-5.368 0-7.751l-54.687-90.611c-1.358-2.25-3.794-3.625-6.421-3.625h-40.617c-4.142 0-7.5 3.358-7.5 7.5s3.358 7.5 7.5 7.5h36.384l50.158 83.111-50.16 83.111h-122.945l-50.16-83.111 50.16-83.111z"/></g></g></svg>