<svg id="Capa_1" enable-background="new 0 0 512 512" height="512" viewBox="0 0 512 512" width="512" xmlns="http://www.w3.org/2000/svg"><g><path d="m476.931 230.221c-8.382-8.112-19.861-19.221-40.931-19.221-21.213 0-32.422 11.209-40.606 19.394-2.226 2.226-4.106 4.069-5.883 5.567-1.882-12.592-5.508-24.621-10.626-35.833 8.921-9.267 11.774-19.899 14.008-28.236 2.692-10.047 4.19-14.667 11.492-18.883s12.051-3.204 22.098-.511c11.18 2.997 26.492 7.1 44.863-3.508l12.99-7.5-15-25.98-12.99 7.5c-7.301 4.215-12.05 3.204-22.099.511-11.181-2.996-26.492-7.099-44.863 3.508-18.371 10.606-22.474 25.918-25.47 37.098-.824 3.075-1.537 5.638-2.338 7.84-7.799-9.779-16.923-18.455-27.102-25.752 3.11-12.505.26-23.155-1.977-31.501-2.692-10.047-3.705-14.797.511-22.099s8.835-8.799 18.882-11.492c11.18-2.996 26.492-7.098 37.099-25.47l7.5-12.99-25.98-15-7.5 12.99c-4.216 7.302-8.835 8.8-18.883 11.492-11.18 2.996-26.492 7.098-37.098 25.469-10.607 18.371-6.504 33.683-3.508 44.863.815 3.042 1.472 5.593 1.881 7.881-11.439-4.514-23.64-7.501-36.348-8.727-3.566-12.354-11.346-20.139-17.447-26.24-7.355-7.352-10.606-10.959-10.606-19.391 0-8.551 3.499-12.546 10.779-20.069 8.112-8.382 19.221-19.861 19.221-40.931v-15h-30v15c0 8.551-3.499 12.546-10.779 20.069-8.112 8.382-19.221 19.861-19.221 40.931 0 21.213 11.209 32.422 19.394 40.606 2.226 2.226 4.069 4.106 5.567 5.883-12.592 1.882-24.621 5.508-35.833 10.626-9.267-8.921-19.899-11.774-28.236-14.008-10.047-2.692-14.667-4.19-18.883-11.492-4.215-7.302-3.203-12.051-.511-22.098 2.996-11.18 7.099-26.492-3.508-44.863l-7.5-12.99-25.98 15 7.5 12.99c4.216 7.302 3.203 12.052.511 22.099-2.996 11.18-7.099 26.492 3.508 44.863 10.606 18.371 25.918 22.474 37.098 25.47 3.075.824 5.638 1.537 7.84 2.338-9.779 7.799-18.455 16.923-25.752 27.102-12.506-3.11-23.156-.259-31.501 1.977-10.048 2.692-14.797 3.705-22.099-.511s-8.799-8.835-11.492-18.882c-2.996-11.18-7.098-26.492-25.47-37.099l-12.99-7.5-15 25.98 12.99 7.5c7.302 4.216 8.8 8.835 11.492 18.883 2.996 11.18 7.098 26.492 25.469 37.098 15.824 9.136 28.73 7.831 44.863 3.508 3.042-.815 5.593-1.472 7.881-1.88-4.514 11.439-7.501 23.64-8.726 36.348-12.354 3.566-20.139 11.346-26.24 17.447-7.353 7.354-10.96 10.605-19.392 10.605-8.551 0-12.546-3.499-20.069-10.779-8.382-8.112-19.861-19.221-40.931-19.221h-15v30h15c8.551 0 12.546 3.499 20.069 10.779 8.382 8.112 19.861 19.221 40.931 19.221 21.213 0 32.422-11.209 40.606-19.394 2.226-2.226 4.106-4.069 5.883-5.567 1.882 12.592 5.508 24.621 10.626 35.833-8.921 9.267-11.774 19.899-14.008 28.236-2.692 10.047-4.19 14.667-11.492 18.883-7.302 4.215-12.052 3.203-22.098.511-11.18-2.995-26.491-7.099-44.863 3.508l-12.99 7.5 15 25.98 12.99-7.5c7.302-4.216 12.051-3.203 22.099-.511 11.181 2.996 26.492 7.098 44.863-3.508s22.474-25.918 25.47-37.098c.824-3.075 1.537-5.638 2.338-7.84 7.799 9.779 16.923 18.455 27.102 25.752-3.11 12.505-.26 23.155 1.977 31.501 2.692 10.047 3.705 14.797-.511 22.099s-8.835 8.799-18.882 11.492c-11.18 2.996-26.492 7.098-37.099 25.47l-7.5 12.99 25.98 15 7.5-12.99c4.216-7.302 8.835-8.8 18.883-11.492 11.18-2.996 26.492-7.098 37.098-25.469 10.607-18.371 6.504-33.683 3.508-44.863-.815-3.042-1.472-5.593-1.881-7.881 11.439 4.514 23.64 7.501 36.348 8.727 3.566 12.354 11.346 20.139 17.447 26.24 7.355 7.352 10.606 10.959 10.606 19.391 0 8.551-3.499 12.546-10.779 20.069-8.112 8.382-19.221 19.861-19.221 40.931v15h30v-15c0-8.551 3.499-12.546 10.779-20.069 8.112-8.382 19.221-19.861 19.221-40.931 0-21.213-11.209-32.422-19.394-40.606-2.226-2.226-4.069-4.106-5.567-5.883 12.592-1.882 24.621-5.508 35.833-10.626 9.267 8.921 19.899 11.774 28.236 14.008 10.047 2.692 14.667 4.19 18.883 11.492 4.215 7.302 3.203 12.051.511 22.098-2.996 11.18-7.099 26.492 3.508 44.863l7.5 12.99 25.98-15-7.5-12.99c-4.216-7.302-3.203-12.052-.511-22.099 2.996-11.18 7.099-26.492-3.508-44.863-10.606-18.371-25.918-22.474-37.098-25.47-3.075-.824-5.638-1.537-7.84-2.338 9.779-7.799 18.455-16.923 25.752-27.102 12.505 3.11 23.155.259 31.501-1.977 10.048-2.692 14.797-3.705 22.099.511s8.799 8.835 11.492 18.882c2.996 11.18 7.098 26.492 25.47 37.099l12.99 7.5 15-25.98-12.99-7.5c-7.302-4.216-8.8-8.835-11.492-18.883-2.996-11.18-7.098-26.492-25.469-37.098-18.372-10.607-33.684-6.503-44.863-3.508-3.042.815-5.593 1.472-7.881 1.88 4.514-11.439 7.501-23.64 8.726-36.348 12.354-3.566 20.139-11.346 26.24-17.447 7.353-7.354 10.96-10.605 19.392-10.605 8.551 0 12.546 3.499 20.069 10.779 8.382 8.112 19.861 19.221 40.931 19.221h15v-30h-15c-8.551 0-12.546-3.499-20.069-10.779zm-220.931 130.779c-57.897 0-105-47.103-105-105s47.103-105 105-105 105 47.103 105 105-47.103 105-105 105z"/></g></svg>