<svg id="Capa_1" enable-background="new 0 0 512 512" height="512" viewBox="0 0 512 512" width="512" xmlns="http://www.w3.org/2000/svg"><g><g><path d="m255.998 114.453c-98.39 0-268.299 183.98-174.25 293.417 61.49 46.01 128.7 35.24 174.25 35.22 45.54.02 112.75 10.79 174.24-35.21 97.787-123.112-75.85-293.427-174.24-293.427z" fill="#5b778f"/><path d="m368.598 408v87.32l-5.45 9.18h-21.15c-24.963-7.468-50.292-30.277-57.97-50.33 21.51-10.62 52.34-27.39 81.16-48.68 1.16.8 2.3 1.64 3.41 2.51z" fill="#bd9cde"/><path d="m341.998 504.5h-197.76c-13.6 0-23.83-12.4-21.26-25.75 4.89-25.43 16.89-48.33 33.84-66.55 48.51 33.97 99.29 54.8 99.29 54.8s11.11-4.54 27.92-12.83c16.99 18.11 36.29 35.01 57.97 50.33z" fill="#b18cd9"/><path d="m447.698 324.22c-7.81 36.3-45.59 62.38-80.39 88.45-26.98 20.21-55.99 36.46-77.61 47.41-77.14-52.21-113.144-138.834-102.66-218.54h233.54l11.24 17.42c11.31 20.27 19.92 46.54 15.88 65.26z" fill="#f3f5fc"/><path d="m289.698 460.08c-19.93 10.09-33.59 15.67-33.59 15.67s-240.61-98.71-174.7-216.79l7.76-17.42h97.87c8.34 78.09 41.32 156.01 102.66 218.54z" fill="#d7ddf5"/><path d="m420.578 227.53c0 90.84-73.63 164.47-164.47 164.47-6.68 0-13.26-.4-19.73-1.17-86.687-66.299-84.458-253.571-27.26-320.95 14.89-4.44 30.66-6.82 46.99-6.82 90.84 0 164.47 73.63 164.47 164.47z" fill="#ffddcf"/><path d="m236.378 390.83c-81.53-9.75-144.74-79.14-144.74-163.3 0-74.51 49.54-137.44 117.48-157.65-38.22 98.48-32.66 219.91 27.26 320.95z" fill="#ffcbbe"/><path d="m448.808 392c-6.11 5.93-12.31 11.2-18.57 15.87 61.31-115.26-75.85-275.04-174.24-275.04-21.65 0-45.18 7.74-68.06 21.05-15.333-43.9 10.905-118.242 53.04-145.81 4.97-.38 10.02-.57 15.13-.57 197.97.22 293.72 286.48 192.7 384.5z" fill="#bd9cde"/><path d="m240.978 8.07c-28.15 42.42-46.26 92.75-53.04 145.81-81.09 47.13-153.99 164.1-106.19 253.99-6.25-4.68-12.44-9.95-18.55-15.87-98.48-95.53-9.97-369.87 177.78-383.93z" fill="#b18cd9"/><path d="m469.128 366.78c.05 29.81-24.79 53.95-54.59 52.95v46.79c-42.053-34.884-40.541-126.184-2.8-152.55 1.46-.12 2.92-.18 4.4-.17 29.26 0 52.99 23.72 52.99 52.98z" fill="#eaaa83"/><path d="m414.868 504.5h-51.72v-139.32c-.03-27.09 22.5-49.08 48.59-51.21-26.6 42.75-28.27 104.22 2.8 152.55v32.74z" fill="#e4996d"/><path d="m461.918 478.47c0 10.45-6.15 19.45-15.03 23.6-20.908-4.274-41.701-26.32-39.73-48.46 2.44-.75 5.02-1.16 7.71-1.16h21.02c14.38 0 26.03 11.65 26.03 26.02z" fill="#ffddcf"/><path d="m446.888 502.07c-3.34 1.56-7.07 2.43-11 2.43h-21.02c-14.37 0-26.02-11.65-26.02-26.03 0-11.69 7.71-21.57 18.31-24.86 9.05 17.95 22.18 34.59 39.73 48.46z" fill="#ffcbbe"/><g fill="#ffa1ac"><ellipse cx="176.554" cy="267.301" rx="29.355" ry="23.377"/><ellipse cx="335.667" cy="267.301" rx="29.355" ry="23.377"/></g></g><g><path d="m435.923 444.946h-13.855v-17.966c30.4-2.956 54.27-28.507 54.573-59.599 42.189-77.314 16.799-206.808-57.206-289.942-2.755-3.096-7.496-3.369-10.589-.615-3.094 2.754-3.369 7.494-.615 10.588 34.061 38.264 58.462 88.181 68.71 140.558 8.373 42.794 6.385 82.575-5.42 114.469-4.547-10.295-11.877-19.091-21.04-25.427-7.867-45.414-34.218-92.964-72.704-130.976-39.057-38.576-83.433-60.7-121.749-60.7-27.957 0-59.05 11.679-89.918 33.772-52.946 38.236-97.247 100.689-105.79 166.248-2.444 19.709-1.366 38.49 3.201 56.145-19.206-21.388-30.575-51.778-32.991-88.419-2.506-37.99 5.057-80.969 21.294-121.017 30.788-75.935 100.619-157.065 204.27-157.065 46.33.051 90.527 16.859 127.853 48.609 3.154 2.683 7.887 2.302 10.572-.854 2.684-3.155 2.302-7.889-.854-10.572-40.069-34.083-87.621-52.128-137.523-52.183-48.962 0-95.744 17.337-135.322 50.136-35.217 29.184-63.882 69.397-82.896 116.292-36.81 90.785-28.741 183.6 20.077 230.957 20.054 19.509 43.728 34.431 70.146 43.178-5.811 11.615-10.05 23.992-12.506 36.766-1.649 8.574.595 17.353 6.155 24.084 5.558 6.729 13.75 10.587 22.475 10.587h19.559c4.142 0 7.5-3.357 7.5-7.5s-3.358-7.5-7.5-7.5h-19.56c-4.235 0-8.211-1.873-10.91-5.14-2.701-3.27-3.791-7.534-2.989-11.699 3.638-18.922 11.627-36.883 23.209-52.357 35.726 26.291 102.129 56.738 99.714 54.883 1.821.747 3.862.749 5.683.005 2.15-.879 49.395-20.341 96.705-52.506v66.814h-156.853c-4.142 0-7.5 3.357-7.5 7.5s3.358 7.5 7.5 7.5h237.094c18.486 0 33.526-15.04 33.526-33.526 0-18.488-15.04-33.528-33.526-33.528zm-2.461-136.116c-7.697-2.338-16.473-3.123-24.639-2.07 5.367-10.296 9.627-21.055 12.778-32.208 5.052 11.284 9.075 22.78 11.861 34.278zm-177.433-168.496c54.547 0 119.247 50.983 154.909 113.285-3.592 21.524-11.49 41.67-23.505 59.953-12.775 6.927-22.783 18.322-27.93 32.072-28.622 25.066-65.247 38.857-103.361 38.857-76.463 0-142.593-56.331-154.89-131.447 36.365-63.91 103.361-113.066 154.777-112.72zm-120.321 286.911c-17.483-5.524-33.264-13.531-48.043-24.364-8.88-17.274-13.343-36.488-13.452-56.78 12.499 24.429 34.96 48.821 67.191 72.938-1.992 2.673-3.898 5.406-5.696 8.206zm120.441 40.354c-22.183-9.623-166.673-75.312-177.929-157.012 2.728-12.059 6.85-24.304 12.333-36.574 8.998 32.063 27.247 61.073 52.686 83.235 31.277 27.248 71.373 42.254 112.902 42.254 35.894 0 70.588-11.16 99.541-31.738v44.131c-42.197 30.153-87.842 50.663-99.533 55.704zm114.533-100.814c0-25.082 20.405-45.487 45.487-45.487s45.487 20.405 45.487 45.487c0 23.081-17.285 42.188-39.588 45.091v-46.693c0-4.143-3.358-7.5-7.5-7.5s-7.5 3.357-7.5 7.5v80.696c-14.719 3.538-25.693 16.804-25.693 32.594 0 6.845 2.066 13.215 5.602 18.526h-16.295zm65.241 130.215h-21.021c-10.216 0-18.527-8.311-18.527-18.526s8.311-18.527 18.527-18.527h21.021c10.215 0 18.526 8.312 18.526 18.527s-8.311 18.526-18.526 18.526z"/><path d="m193.692 252.298c4.142 0 7.5-3.357 7.5-7.5v-12c0-4.143-3.358-7.5-7.5-7.5s-7.5 3.357-7.5 7.5v12c0 4.142 3.358 7.5 7.5 7.5z"/><path d="m318.59 252.298c4.142 0 7.5-3.357 7.5-7.5v-12c0-4.143-3.358-7.5-7.5-7.5s-7.5 3.357-7.5 7.5v12c0 4.142 3.357 7.5 7.5 7.5z"/><path d="m256.141 259.441c8.477 0 16.539-3.671 22.118-10.072 2.722-3.122 2.397-7.859-.726-10.581-3.122-2.722-7.86-2.396-10.582.726-2.73 3.132-6.67 4.928-10.811 4.928-4.14 0-8.081-1.796-10.811-4.928-2.723-3.124-7.459-3.448-10.582-.726s-3.447 7.459-.726 10.581c5.581 6.402 13.643 10.072 22.12 10.072z"/></g></g></svg>