<svg id="Capa_1" enable-background="new 0 0 512 512" height="512" viewBox="0 0 512 512" width="512" xmlns="http://www.w3.org/2000/svg"><g><g><ellipse cx="256" cy="284.176" fill="#5b778f" rx="187.131" ry="175.671"/><circle cx="419.766" cy="227.425" fill="#ffcbbe" r="39.74"/><circle cx="92.234" cy="227.425" fill="#ffb39d" r="39.74"/><path d="m367.87 504.5h-32.07c-65.199-25.445-106.04-74.561-110.75-122.83h88.42c38.67 18.13 67.37 53.97 75.66 97.08 2.57 13.35-7.66 25.75-21.26 25.75z" fill="#ff938a"/><path d="m335.8 504.5h-191.67c-13.6 0-23.83-12.4-21.26-25.75 8.29-43.11 36.99-78.95 75.66-97.08h26.52c25.57 46.16 62.17 88.44 110.75 122.83z" fill="#fd7a6e"/><path d="m312.74 381.67-33.94 73.46c-30.735-12.045-53.75-45.895-53.75-73.46z" fill="#f3f5fc"/><path d="m278.8 455.13-22.8 49.37-56.74-122.83h25.79c14.37 25.95 32.24 50.68 53.75 73.46z" fill="#d7ddf5"/><ellipse cx="428.353" cy="294.377" fill="#fbf198" rx="29.411" ry="41.552"/><ellipse cx="83.647" cy="294.377" fill="#fad989" rx="29.411" ry="41.552"/><path d="m420.47 227.53c0 90.84-73.64 164.47-164.47 164.47-8.93 0-17.69-.71-26.24-2.09-81.056-95.533-92.775-230.875-27.5-317.87 16.84-5.82 34.92-8.98 53.74-8.98 90.83 0 164.47 73.64 164.47 164.47z" fill="#ffddcf"/><path d="m229.76 389.91c-78.36-12.55-138.23-80.47-138.23-162.38 0-72.01 46.29-133.22 110.73-155.49-37.2 97.79-31.45 217.75 27.5 317.87z" fill="#ffcbbe"/><path d="m448.92 200.42c-29.15 0-130.48-39.91-192.92-96.46-21.75 19.7-48.04 37.38-74.36 52.06-17.471-51.47 2.214-115.564 52.92-147.34 7.04-.78 14.19-1.18 21.44-1.18 106.54 0 192.92 86.37 192.92 192.92z" fill="#6a829a"/><path d="m234.56 8.68c-28.3 42.87-46.38 93.75-52.92 147.34-49.23 27.45-98.57 44.4-118.56 44.4 0-99.3 75.03-181.08 171.48-191.74z" fill="#5b778f"/><ellipse cx="177.623" cy="284.768" fill="#ffa1ac" rx="28.919" ry="23.03"/><ellipse cx="334.377" cy="284.768" fill="#ffa1ac" rx="28.92" ry="23.03"/><path d="m307.4 190.15c0 12.43-18.12 22.76-42.05 24.93-22.028-9.423-24.581-40.646-8.7-50.27 28.09.17 50.75 11.45 50.75 25.34z" fill="#f3f5fc"/><path d="m265.35 215.08c-3.03.28-6.16.42-9.35.42-28.39 0-51.4-11.35-51.4-25.35s23.01-25.34 51.4-25.34h.65c-8 14.9-6.25 36.36 8.7 50.27z" fill="#d7ddf5"/><path d="m275.42 190.15c0 10.43-4.83 19.4-11.73 23.28-20.368-7.918-19.787-39.73-7.04-48.6 10.43.44 18.77 11.6 18.77 25.32z" fill="#83deff"/><path d="m263.69 213.43c-2.36 1.33-4.96 2.07-7.69 2.07-10.73 0-19.42-11.35-19.42-25.35s8.69-25.34 19.42-25.34c.22 0 .43 0 .65.02-7.69 14.32-6.36 34.7 7.04 48.6z" fill="#2ecefb"/></g><g><path d="m194.478 238.442c-11.726 0-21.265 9.539-21.265 21.265 0 4.143 3.358 7.5 7.5 7.5s7.5-3.357 7.5-7.5c0-3.454 2.811-6.265 6.265-6.265s6.265 2.811 6.265 6.265c0 4.143 3.358 7.5 7.5 7.5s7.5-3.357 7.5-7.5c0-11.726-9.54-21.265-21.265-21.265z"/><path d="m317.522 238.442c-11.726 0-21.265 9.539-21.265 21.265 0 4.143 3.357 7.5 7.5 7.5s7.5-3.357 7.5-7.5c0-3.454 2.811-6.265 6.265-6.265s6.265 2.811 6.265 6.265c0 4.143 3.357 7.5 7.5 7.5s7.5-3.357 7.5-7.5c0-11.726-9.539-21.265-21.265-21.265z"/><path d="m275.529 270.142c-3.123-2.721-7.86-2.396-10.582.727-2.26 2.593-5.521 4.08-8.947 4.08s-6.688-1.487-8.947-4.08c-2.721-3.121-7.458-3.448-10.582-.727-3.123 2.721-3.448 7.459-.727 10.582 5.109 5.862 12.492 9.225 20.255 9.225s15.146-3.362 20.256-9.225c2.723-3.123 2.396-7.861-.726-10.582z"/><path d="m256 223.001c33.58 0 58.903-14.121 58.903-32.848 0-18.726-25.323-32.847-58.903-32.847s-58.903 14.121-58.903 32.847c0 18.727 25.323 32.848 58.903 32.848zm-11.924-32.848c0-9.674 5.46-17.847 11.924-17.847 6.463 0 11.924 8.173 11.924 17.847 0 9.675-5.461 17.848-11.924 17.848-6.464 0-11.924-8.173-11.924-17.848zm55.827 0c0 4.749-7.287 10.898-19.795 14.599 1.798-4.401 2.815-9.357 2.815-14.599s-1.017-10.197-2.815-14.598c12.509 3.701 19.795 9.85 19.795 14.598zm-68.012-14.598c-1.798 4.401-2.815 9.356-2.815 14.598s1.017 10.198 2.815 14.599c-12.507-3.701-19.793-9.85-19.793-14.599-.001-4.748 7.285-10.897 19.793-14.598z"/><path d="m467.006 227.426c0-10.932-3.759-21.404-10.625-29.82-.731-53.822-22.406-103.954-61.251-141.43-2.979-2.877-7.729-2.789-10.604.19-2.876 2.98-2.791 7.729.19 10.604 34.575 33.357 54.461 77.548 56.522 125.191-33.393-5.501-121.66-40.743-180.208-93.764-2.856-2.588-7.212-2.586-10.069 0-37.001 35.942-130.794 86.312-180.199 93.821 4.303-98.45 85.745-177.218 185.238-177.218 36.503 0 71.83 10.606 102.161 30.674 3.455 2.285 8.108 1.338 10.394-2.116 2.285-3.455 1.338-8.108-2.116-10.394-32.795-21.696-70.984-33.164-110.439-33.164-109.57 0-198.868 88.387-200.38 197.604-6.866 8.415-10.626 18.885-10.626 29.776-.073 12.026 4.414 23.339 12.522 32.047-6.691 8.833-10.78 21.139-10.78 34.95 0 21.45 9.861 39.274 24.019 46.084 11.753 34.234 34.423 64.913 64.478 87.351-9.525 14.968-16.313 31.729-19.733 49.517-1.648 8.574.595 17.353 6.155 24.084 5.558 6.729 13.75 10.587 22.475 10.587h25.467c4.142 0 7.5-3.357 7.5-7.5s-3.358-7.5-7.5-7.5h-25.467c-4.235 0-8.211-1.873-10.91-5.14-2.701-3.27-3.791-7.534-2.99-11.699 7.268-37.796 31.483-70.446 65.334-88.6l48.71 105.439h-39.677c-4.142 0-7.5 3.357-7.5 7.5s3.358 7.5 7.5 7.5h163.273c8.726 0 16.917-3.858 22.475-10.587 5.561-6.731 7.804-15.51 6.155-24.084-3.421-17.788-10.208-34.55-19.733-49.517 30.055-22.438 52.726-53.118 64.479-87.352 14.158-6.81 24.019-24.633 24.019-46.083 0-13.811-4.089-26.117-10.78-34.95 8.107-8.708 12.595-20.013 12.521-32.001zm-21.704-19.668c4.341 5.623 6.704 12.508 6.704 19.714.05 8.22-3.068 15.964-8.691 21.923-4.903-2.822-10.509-4.324-16.266-4.031.607-5.863.921-11.812.921-17.833 0-7.776-.536-15.554-1.576-23.244 7.424 1.893 13.826 3.072 18.908 3.471zm-189.302 176.744c-86.554 0-156.971-70.417-156.971-156.971 0-9.286.817-18.571 2.433-27.665 52.526-16.927 116.339-52.297 154.534-85.894 46.478 40.21 110.921 71.488 154.5 85.667 1.644 9.171 2.476 18.533 2.476 27.892-.001 86.554-70.418 156.971-156.972 156.971zm42.726 9.626-42.726 92.488-42.727-92.489c13.666 3.507 27.982 5.374 42.726 5.374 14.745.001 29.061-1.866 42.727-5.373zm-213.141-189.706c-1.027 7.644-1.556 15.376-1.556 23.109 0 6.021.314 11.97.921 17.833-5.757-.293-11.361 1.208-16.265 4.031-5.622-5.959-8.741-13.711-8.691-21.969 0-7.159 2.358-14.033 6.691-19.652 5.216-.38 11.62-1.532 18.9-3.352zm-1.938 55.902c1.218 0 2.43.177 3.628.505 3.258 16.536 8.893 32.227 16.535 46.705-3.444 12.426-11.505 21.187-20.163 20.896-13.647-.459-21.461-16.17-21.911-34.053 0-18.459 10.035-34.053 21.911-34.053zm60.289 155.27c-25.287-18.952-44.842-44.212-56.182-72.465 10.46-1.498 19.669-8.666 25.662-19.548 16.983 25.129 40.429 45.549 67.932 58.856-14.41 8.834-27.047 20.102-37.412 33.157zm234.844 76.266c-2.698 3.267-6.675 5.14-10.91 5.14h-100.143l48.708-105.439c33.851 18.154 58.065 50.804 65.334 88.6.801 4.165-.289 8.43-2.989 11.699zm-10.717-76.266c-10.365-13.055-23.002-24.323-37.412-33.156 27.503-13.308 50.949-33.727 67.932-58.857 5.992 10.882 15.202 18.051 25.662 19.548-11.34 28.254-30.895 53.513-56.182 72.465zm60.29-87.164c-8.663 0-16.719-8.471-20.163-20.897 7.641-14.477 13.276-30.167 16.534-46.703 1.199-.328 2.411-.505 3.629-.505 11.877 0 21.911 15.594 21.911 34.053s-10.035 34.052-21.911 34.052z"/></g></g></svg>