<svg id="Capa_1" enable-background="new 0 0 512 512" height="512" viewBox="0 0 512 512" width="512" xmlns="http://www.w3.org/2000/svg"><g><path d="m412.9 168.5-96.31 12.31c13.75-18.4 22.17-43.08 22.17-70.21 0-56.94-37.06-103.1-82.76-103.1s-82.76 46.16-82.76 103.1c0 27.13 8.42 51.81 22.17 70.21l-96.31-12.31c-5.98-.76-11.27 3.89-11.27 9.92v71.91c0 6.03 5.29 10.68 11.27 9.92l124.95-15.98-22.7 249.32c-.53 5.86 4.08 10.91 9.96 10.91h89.38c5.88 0 10.49-5.05 9.96-10.91l-22.7-249.32 124.95 15.98c5.98.76 11.27-3.89 11.27-9.92v-71.91c0-6.03-5.29-10.68-11.27-9.92zm-156.9.34c-24.26 0-43.92-26.96-43.92-60.22s19.66-60.22 43.92-60.22 43.92 26.96 43.92 60.22-19.66 60.22-43.92 60.22z" fill="#fcb44d"/><path d="m338.76 110.6c0 25.35-7.35 48.55-19.53 66.5l-18.151 2.32c-4.123.527-7.065-3.92-4.939-7.491 10.201-17.135 16.24-38.354 16.24-61.33 0-51.35-30.14-93.93-69.57-101.79 4.29-.86 8.7-1.31 13.19-1.31 45.7.001 82.76 46.161 82.76 103.101z" fill="#fb9927"/><path d="m310.65 493.59-22.39-245.91-26.69-3.41 9.238 101.46h-55.995l-3.281 36.04h50.267c6.962 0 12.775 5.308 13.406 12.241l9.066 99.579c.53 5.86-4.08 10.91-9.96 10.91h26.38c5.879 0 10.489-5.05 9.959-10.91z" fill="#fb9927"/><path d="m115.22 170.56v87.63l-16.12 2.06c-5.98.76-11.27-3.89-11.27-9.92v-71.91c0-6.03 5.29-10.68 11.27-9.92z" fill="#fee7c9"/><path d="m424.17 178.42v71.91c0 6.03-5.29 10.68-11.27 9.92l-16.12-2.06v-87.63l16.12-2.06c5.98-.76 11.27 3.89 11.27 9.92z" fill="#ffd597"/><path d="m219.17 297.865-5.793 63.632h85.246l-5.793-63.632z" fill="#fb6a3b"/><path d="m298.62 361.5-5.79-63.64-73.66.005-3.845 42.234h44.723c5.802 0 10.648 4.424 11.173 10.203l1.019 11.198z" fill="#fb5532"/><path d="m224.051 244.275-6.981 76.678h77.86l-6.981-76.678z" fill="#2db181"/><path d="m294.93 320.95-6.98-76.68h-63.9l-4.79 52.59c1.21-.64 2.38-1.35 3.53-2.13 8.49-5.78 20.28-8.96 33.21-8.96h.096c5.266.007 9.626 4.109 10.103 9.353l2.351 25.827z" fill="#158f5e"/><g><path d="m201.696 281.236c-5.596 0-11.093-2.678-14.48-7.652-5.44-7.989-3.374-18.875 4.615-24.314 17.523-11.932 40.312-18.503 64.169-18.503s46.646 6.571 64.17 18.502c7.988 5.44 10.056 16.326 4.615 24.314-5.439 7.989-16.323 10.056-24.314 4.616-11.774-8.018-27.568-12.433-44.471-12.433s-32.696 4.416-44.47 12.433c-3.015 2.052-6.443 3.036-9.834 3.037z" fill="#fee7c9"/></g><g><path d="m324.79 273.58c-5.44 7.99-16.33 10.06-24.32 4.62-3.48-2.37-7.32-4.43-11.43-6.15 5.61-.19 11.05-2.96 14.46-7.96 5.67-8.34 3.51-19.69-4.82-25.36-.52-.35-1.03-.7-1.56-1.04 8.34 2.97 16.11 6.85 23.05 11.58 7.99 5.44 10.06 16.32 4.62 24.31z" fill="#ffd597"/></g><g><path d="m425.735 165.283c-3.773-3.321-8.795-4.861-13.782-4.223l-80.482 10.29c7.392-13.764 12.162-29.375 13.968-45.936.449-4.118-2.524-7.82-6.642-8.269-4.111-.448-7.82 2.524-8.269 6.642-2.159 19.792-9.057 37.959-19.947 52.538-1.802 2.412-1.986 5.667-.469 8.268 1.518 2.6 4.443 4.039 7.429 3.66l71.739-9.172v70.588l-68.137-8.711c-14.081-8.809-30.985-14.578-49.16-16.733-4.109-.486-7.843 2.451-8.331 6.564s2.451 7.843 6.564 8.331c17.209 2.041 33.023 7.694 45.731 16.348 2.208 1.503 3.698 3.777 4.197 6.401.498 2.624-.056 5.285-1.559 7.493-3.103 4.557-9.335 5.741-13.894 2.638-13.006-8.856-30.299-13.734-48.692-13.734s-35.685 4.877-48.691 13.733c-1.668 1.136-3.609 1.736-5.613 1.736-3.321 0-6.417-1.635-8.281-4.374-1.503-2.208-2.057-4.869-1.559-7.493.498-2.625 1.988-4.897 4.196-6.401 12.992-8.847 29.163-14.543 46.765-16.475 4.118-.452 7.089-4.156 6.637-8.273-.451-4.117-4.145-7.09-8.273-6.637-18.626 2.043-35.943 7.867-50.352 16.891-.084.008-.168.009-.253.019l-67.857 8.676v-70.588l71.739 9.172c2.987.386 5.912-1.059 7.429-3.66s1.333-5.856-.469-8.268c-13.333-17.849-20.675-41.19-20.675-65.727.002-52.712 33.762-95.597 75.258-95.597 36.962 0 68.956 34.985 74.421 81.377.485 4.114 4.207 7.058 8.326 6.571 4.114-.484 7.056-4.212 6.571-8.326-3.039-25.793-13.505-49.542-29.472-66.873-16.486-17.894-37.74-27.749-59.846-27.749-49.767 0-90.256 49.614-90.256 110.599 0 21.792 5.182 42.832 14.794 60.752l-80.491-10.291c-4.99-.639-10.01.902-13.782 4.223-3.773 3.321-5.937 8.109-5.937 13.136v71.912c0 5.027 2.164 9.814 5.937 13.136 3.213 2.829 7.333 4.365 11.564 4.364.737 0 1.479-.046 2.218-.141l77.347-9.889c-.102.42-.195.843-.276 1.271-1.245 6.561.139 13.213 3.897 18.733 4.661 6.845 12.391 10.931 20.681 10.931 3.848-.001 7.594-.886 11.009-2.57l-18.823 206.747c-.445 4.885 1.197 9.765 4.505 13.387s8.018 5.7 12.923 5.7h18.3c4.142 0 7.5-3.358 7.5-7.5s-3.358-7.5-7.5-7.5h-18.3c-.959 0-1.568-.51-1.846-.814s-.73-.957-.644-1.913l11.406-125.276h71.546l11.406 125.276c.087.956-.366 1.608-.644 1.913-.277.304-.887.814-1.846.814h-41.978c-4.142 0-7.5 3.358-7.5 7.5s3.358 7.5 7.5 7.5h41.978c4.905 0 9.615-2.078 12.923-5.7 3.308-3.623 4.95-8.502 4.505-13.387l-18.823-206.746c10.989 5.41 24.603 2.045 31.691-8.362 3.759-5.52 5.143-12.173 3.897-18.733-.081-.427-.174-.85-.276-1.27l77.347 9.889c.74.095 1.481.141 2.218.141 4.231 0 8.351-1.536 11.564-4.364 3.773-3.321 5.937-8.109 5.937-13.136v-71.912c.001-5.028-2.163-9.816-5.936-13.137zm-327.59 87.528c-.973.124-1.652-.325-1.969-.604s-.848-.893-.848-1.876v-71.912c0-.983.531-1.598.848-1.876.316-.279.996-.727 1.969-.604l9.575 1.224v74.424zm185.336 25.114 3.235 35.527h-61.432l3.235-35.527c8.248-3.038 17.633-4.659 27.481-4.659s19.233 1.621 27.481 4.659zm-61.888 76.073 2.326-25.545h64.163l2.326 25.545zm195.079-103.667c0 .983-.531 1.598-.848 1.876-.316.279-.995.727-1.969.604l-9.575-1.224v-74.424l9.575-1.224c.975-.123 1.652.325 1.969.604s.848.893.848 1.876z"/><path d="m139.92 192.356h-.104c-4.142 0-7.5 3.358-7.5 7.5s3.358 7.5 7.5 7.5h.104c4.142 0 7.5-3.358 7.5-7.5s-3.358-7.5-7.5-7.5z"/><path d="m139.852 221.946c-.012 0-.024 0-.036 0-4.125 0-7.479 3.334-7.499 7.465-.02 4.142 3.323 7.516 7.465 7.535h.104.036c4.125 0 7.479-3.334 7.499-7.465.02-4.142-3.323-7.516-7.465-7.535z"/><path d="m156.393 207.151c-4.142 0-7.5 3.358-7.5 7.5s3.358 7.5 7.5 7.5h.104c4.142 0 7.5-3.358 7.5-7.5s-3.358-7.5-7.5-7.5z"/><path d="m372.08 207.356h.104c4.142 0 7.5-3.358 7.5-7.5s-3.358-7.5-7.5-7.5h-.104c-4.142 0-7.5 3.358-7.5 7.5s3.358 7.5 7.5 7.5z"/><path d="m372.079 236.946h.036.104c4.142-.02 7.484-3.393 7.465-7.535-.02-4.13-3.374-7.465-7.499-7.465-.012 0-.024 0-.036 0h-.104c-4.142.02-7.484 3.393-7.465 7.535.02 4.131 3.374 7.465 7.499 7.465z"/><path d="m355.607 222.151c4.142 0 7.5-3.358 7.5-7.5s-3.358-7.5-7.5-7.5h-.104c-4.142 0-7.5 3.358-7.5 7.5s3.358 7.5 7.5 7.5z"/><path d="m234.033 197.11-25.771 6.422c-10.073 2.51-14.93 3.62-24.497 3.62-4.142 0-7.5 3.358-7.5 7.5s3.358 7.5 7.5 7.5c11.285 0 17.404-1.394 28.124-4.065l25.771-6.422c4.019-1.001 6.465-5.072 5.464-9.091s-5.071-6.465-9.091-5.464z"/><path d="m268.876 202.574c-1.001 4.019 1.445 8.089 5.464 9.091l25.771 6.422c10.719 2.671 16.838 4.065 28.124 4.065 4.142 0 7.5-3.358 7.5-7.5s-3.358-7.5-7.5-7.5c-9.567 0-14.423-1.11-24.497-3.62l-25.771-6.422c-4.02-1.004-8.09 1.445-9.091 5.464z"/><path d="m289.598 57.235 4.736-7.802c2.149-3.541 1.021-8.154-2.52-10.303-3.542-2.148-8.154-1.021-10.303 2.52l-3.455 5.693c-4.573-2.84-9.466-4.777-14.558-5.735l.021-7.124c.012-4.142-3.335-7.51-7.478-7.522-.008 0-.015 0-.023 0-4.131 0-7.487 3.343-7.5 7.478l-.022 7.169c-5.074.955-9.949 2.883-14.508 5.708l-3.476-5.804c-2.129-3.553-6.734-4.709-10.288-2.58-3.553 2.128-4.708 6.734-2.58 10.288l4.783 7.985c-1.224 1.391-2.41 2.857-3.544 4.413-9.223 12.647-14.303 29.339-14.303 47.002s5.08 34.354 14.303 47.001c1.157 1.586 2.365 3.081 3.615 4.496l-4.831 7.959c-2.149 3.541-1.021 8.154 2.52 10.303 1.216.738 2.559 1.089 3.884 1.089 2.535 0 5.008-1.285 6.419-3.609l3.575-5.891c4.54 2.8 9.39 4.714 14.439 5.663l-.022 7.393c-.012 4.142 3.335 7.51 7.478 7.522h.023c4.131 0 7.487-3.343 7.5-7.478l.022-7.44c5.03-.947 9.863-2.852 14.388-5.636l3.596 6.002c1.406 2.347 3.892 3.647 6.441 3.647 1.312 0 2.64-.344 3.847-1.067 3.553-2.128 4.708-6.735 2.58-10.288l-4.878-8.143c1.258-1.423 2.475-2.928 3.639-4.524 9.223-12.647 14.303-29.339 14.303-47.001s-5.08-34.355-14.303-47.002c-1.128-1.544-2.305-3-3.52-4.382zm-33.598 104.105c-20.082 0-36.42-23.65-36.42-52.72s16.338-52.72 36.42-52.72 36.42 23.65 36.42 52.72-16.338 52.72-36.42 52.72z"/><path d="m261.303 482.729 10.862-10.862c2.929-2.929 2.929-7.678 0-10.606-2.929-2.929-7.678-2.929-10.606 0l-5.559 5.559-5.559-5.559c-2.929-2.929-7.678-2.929-10.606 0-2.929 2.929-2.929 7.678 0 10.606l10.862 10.862c1.464 1.464 3.384 2.197 5.303 2.197s3.839-.732 5.303-2.197z"/><path d="m277.087 396.001c.935-4.035-1.579-8.064-5.614-9-4.038-.935-8.064 1.579-9 5.614-.702 3.031-3.364 5.148-6.474 5.148s-5.772-2.117-6.474-5.148c-.935-4.035-4.962-6.549-9-5.614-4.035.935-6.548 4.964-5.614 9 2.287 9.869 10.958 16.762 21.087 16.762s18.803-6.893 21.089-16.762z"/><path d="m255.953 439.888c-4.142 0-7.5 3.358-7.5 7.5s3.358 7.5 7.5 7.5h.092c4.142 0 7.454-3.358 7.454-7.5s-3.404-7.5-7.546-7.5z"/><path d="m255.953 418.826c-4.142 0-7.5 3.358-7.5 7.5s3.358 7.5 7.5 7.5h.092c4.142 0 7.454-3.358 7.454-7.5s-3.404-7.5-7.546-7.5z"/></g></g></svg>