<svg id="Capa_1" enable-background="new 0 0 512 512" height="512" viewBox="0 0 512 512" width="512" xmlns="http://www.w3.org/2000/svg"><g><g><g><path d="m85.92 7.5 33.001 252.207-33.001 244.793c-35.16 0-63.67-28.5-63.67-63.66v-369.68c0-35.16 28.51-63.66 63.67-63.66z" fill="#fad989"/><path d="m489.75 71.16v369.68c0 35.16-28.51 63.66-63.67 63.66h-43.66c-205.884-89.565-229.449-402.29-94.35-497h138.01c35.16 0 63.67 28.5 63.67 63.66z" fill="#bd9cde"/><path d="m382.42 504.5h-296.5v-497h202.15c-95.74 140.26-79.95 370.05 94.35 497z" fill="#b18cd9"/></g><g><g><g><path d="m409.79 445c-23.32 10.38-48.9 16.59-75.81 17.64-90.116-38.081-133.285-176.137-103.75-238.83 3.04.15 6.1.22 9.17.22 19.4 0 38.45-2.94 55.1-8.49-3.09 12.98-4.74 26.53-4.74 40.46 0 76.94 49.85 142.24 119 165.37 10.95 3.66 11.57 18.93 1.03 23.63z" fill="#fbf198"/></g><path d="m333.98 462.64c-2.74.12-5.49.17-8.25.17-114.05 0-206.53-92.32-206.81-206.3-.06-25.39 4.42-49.69 12.66-72.15.09.12.18.25.28.37 19.19 22.23 57.13 37.14 98.37 39.08 4.35 84.7 37.35 170.81 103.75 238.83z" fill="#fad989"/><path d="m408.76 90.63c-49.32 16.5-88.79 54.45-107.39 102.76-17.49 4.01-34.19 6.11-49.67 6.22h-.17c-7.56-.11-14.8-.53-21.76-1.28-17.986-34.689-12.658-102.057 29.37-138.27 20.08-6.78 41.57-10.57 63.95-10.85 30.92-.39 60.3 6.02 86.75 17.81 10.51 4.69 9.84 19.96-1.08 23.61z" fill="#83deff"/><path d="m259.14 60.06c-18.51 42.51-28.6 89.83-29.37 138.27-35.97-3.82-64.2-16.18-87.52-38.12 24.38-46.8 66.13-83.02 116.89-100.15z" fill="#2ecefb"/><path d="m451.65 184.53-17.78 9.73-6.35 11.6c-22.754-6.25-20.459-56.019-4-63.39.22.3.43.62.62.97l9.73 17.78 17.78 9.73c5.37 2.93 5.37 10.64 0 13.58z" fill="#fbf198"/><path d="m427.52 205.86-3.38 6.18c-2.93 5.37-10.64 5.37-13.58 0l-9.72-17.78-17.79-9.73c-5.37-2.94-5.37-10.65 0-13.58l17.79-9.73 9.72-17.78c2.75-5.02 9.67-5.35 12.96-.97-9.47 18.63-9.08 43.61 4 63.39z" fill="#fad989"/><g><path d="m312.75 194.78c-2.53 6.17-4.78 12.57-6.61 18.91-1.27 4.4-4.59 7.93-8.93 9.38-20.74 6.94-43.82 9.73-66.49 8.77-13.608-10.989-13.608-32.23-.74-41.54 6.77.75 13.98 1.2 21.66 1.31 18.28-.13 36.36-3.1 52.41-7.05 5.99-1.48 11.05 4.52 8.7 10.22z" fill="#f3f5fc"/></g><path d="m230.72 231.84c-42.23-1.79-83.08-16.61-104.92-41.89-3.45-3.99-4.41-9.56-2.43-14.46 2.98-7.36 6.27-14.62 9.95-21.61 2.34-4.45 8.34-5.43 11.91-1.9 18.41 18.18 43.53 33.78 84.75 38.32-.52 13.77-.28 27.64.74 41.54z" fill="#d7ddf5"/></g></g><g><g><ellipse cx="187.412" cy="308.028" fill="#ffa1ac" rx="27.03" ry="21.525"/></g></g></g><g><path d="m426.084 0h-240.596c-4.143 0-7.5 3.357-7.5 7.5s3.357 7.5 7.5 7.5h240.596c30.969 0 56.163 25.194 56.163 56.162v369.676c0 30.968-25.194 56.162-56.163 56.162h-332.668v-482h57.072c4.143 0 7.5-3.357 7.5-7.5s-3.357-7.5-7.5-7.5h-64.572c-39.239 0-71.163 31.923-71.163 71.162v369.676c0 39.239 31.924 71.162 71.163 71.162h340.168c39.239 0 71.163-31.923 71.163-71.162v-369.676c0-39.239-31.924-71.162-71.163-71.162zm-396.331 440.838v-369.676c0-28.424 21.23-51.967 48.663-55.646v480.969c-27.433-3.68-48.663-27.224-48.663-55.647z"/><path d="m412.895 60.175c-28.351-12.645-58.589-18.865-89.899-18.466-38.023.475-75.199 10.947-107.51 30.286-29.233 17.497-53.964 41.875-71.919 70.788-6.496-1.708-13.822 1.602-16.879 7.601-3.598 6.837-7.054 14.338-10.271 22.296-3.037 7.512-1.616 16.01 3.709 22.178.023.027.048.053.071.08-5.875 19.924-8.826 40.621-8.775 61.591.139 57.758 22.924 111.87 64.156 152.366 2.953 2.902 7.702 2.861 10.605-.096 2.902-2.955 2.86-7.703-.096-10.605-38.347-37.663-59.537-87.987-59.666-141.702-.041-16.874 2.007-33.554 6.093-49.739 17.16 13.838 40.657 23.99 67.921 29.151 27.306 5.17 56.365 4.934 83.073-1.218-.824 7.061-1.247 14.192-1.247 21.314 0 78.332 49.881 147.648 124.123 172.484 2.966.992 3.403 3.544 3.454 4.595.041.847-.062 3.714-3.104 5.069-25.553 11.387-52.808 17.16-81.005 17.16-40.847 0-80.114-12.279-113.559-35.51-3.401-2.361-8.075-1.521-10.438 1.882-2.362 3.401-1.521 8.075 1.882 10.438 35.968 24.983 78.195 38.189 122.115 38.189 30.315 0 59.623-6.211 87.11-18.459 7.685-3.425 12.388-11.076 11.981-19.493-.402-8.35-5.771-15.452-13.678-18.097-68.115-22.785-113.88-86.385-113.88-158.258 0-8.613.668-17.238 1.975-25.704 6.811-2.143 12.116-7.611 14.108-14.525 1.738-6.023 3.872-12.126 6.344-18.139 2.533-6.033.757-13.182-4.292-17.328 19.608-38.431 53.601-68.066 94.456-82.112v35.699c-2.429 1.374-4.482 3.407-5.87 5.947l-8.673 15.857-15.856 8.673c-4.89 2.674-7.928 7.796-7.928 13.369s3.037 10.697 7.927 13.371l15.857 8.673 8.673 15.857c2.674 4.89 7.797 7.927 13.37 7.927s10.696-3.037 13.37-7.927l8.673-15.857 15.857-8.673c4.89-2.674 7.927-7.798 7.927-13.371s-3.038-10.695-7.927-13.368l-15.857-8.674-8.673-15.857c-1.388-2.539-3.441-4.572-5.87-5.947-.017-.319.032-54.683-.017-54.958.124-8.124-4.496-15.438-11.941-18.758zm-113.962 151.437c-.594 2.06-2.129 3.684-4.106 4.346-57.567 18.863-130.724 5.925-163.347-30.904-1.633-1.891-2.075-4.478-1.156-6.752 3.03-7.495 6.273-14.538 9.637-20.982 28.161 27.812 63.614 41.092 111.573 41.791.054.001.11.001.161.001 16.772-.116 34.958-2.555 54.1-7.257.01.035.021.074.021.074-2.679 6.515-4.995 13.137-6.883 19.683zm110.913-132.716c-.051 1.058-.49 3.626-3.461 4.62-46.687 15.617-85.296 49.878-106.489 94.309-17.088 4.046-33.307 6.175-48.225 6.286-51.674-.772-79.318-17.727-95.914-32.527 35.903-58.66 98.048-94.01 167.425-94.877 29.084-.376 57.246 5.413 83.603 17.167 3.001 1.338 3.102 4.183 3.061 5.022zm20.425 88.906 17.786 9.729c.168.041.166.377-.001.418l-17.785 9.727c-1.259.688-2.293 1.723-2.981 2.981l-9.727 17.785c-.042.168-.378.168-.42 0l-9.727-17.785c-.688-1.259-1.723-2.293-2.981-2.981l-17.785-9.727c-.168-.042-.169-.377 0-.419l17.785-9.728c1.259-.688 2.293-1.723 2.981-2.981l9.727-17.785c.042-.168.378-.168.42 0l9.727 17.785c.688 1.258 1.722 2.292 2.981 2.981z"/><path d="m337.147 327.505c1.312 2.42 3.842 3.927 6.594 3.927h20.634c4.143 0 7.5-3.357 7.5-7.5s-3.357-7.5-7.5-7.5h-6.795l12.599-19.335c1.502-2.306 1.621-5.249.31-7.668-1.312-2.42-3.842-3.927-6.594-3.927h-19.52c-4.143 0-7.5 3.357-7.5 7.5s3.357 7.5 7.5 7.5h5.681l-12.599 19.335c-1.502 2.306-1.621 5.249-.31 7.668z"/><path d="m383.33 312.04c1.312 2.42 3.842 3.927 6.594 3.927h20.635c4.143 0 7.5-3.357 7.5-7.5s-3.357-7.5-7.5-7.5h-6.796l12.6-19.336c1.502-2.306 1.621-5.249.31-7.668-1.312-2.42-3.842-3.927-6.594-3.927h-19.52c-4.143 0-7.5 3.357-7.5 7.5s3.357 7.5 7.5 7.5h5.681l-12.6 19.336c-1.502 2.306-1.621 5.249-.31 7.668z"/><path d="m462.854 258.498c-1.312-2.42-3.842-3.927-6.594-3.927h-19.519c-4.143 0-7.5 3.357-7.5 7.5s3.357 7.5 7.5 7.5h5.681l-12.6 19.336c-1.502 2.306-1.621 5.249-.31 7.668 1.312 2.42 3.842 3.927 6.594 3.927h20.634c4.143 0 7.5-3.357 7.5-7.5s-3.357-7.5-7.5-7.5h-6.796l12.6-19.336c1.503-2.306 1.622-5.249.31-7.668z"/><path d="m222.766 284.853c2.722-3.123 2.396-7.86-.727-10.582-3.125-2.722-7.86-2.396-10.582.727-2.094 2.403-5.116 3.781-8.292 3.781s-6.198-1.378-8.292-3.781c-2.723-3.122-7.46-3.447-10.582-.727-3.122 2.722-3.448 7.459-.727 10.582 4.943 5.673 12.088 8.926 19.601 8.926s14.657-3.254 19.601-8.926z"/><ellipse cx="260.668" cy="298.962" rx="10.783" ry="11.5"/></g></g></svg>