<svg id="Capa_1" enable-background="new 0 0 512 512" height="512" viewBox="0 0 512 512" width="512" xmlns="http://www.w3.org/2000/svg"><g><g><g><path d="m264.959 430.799 158.157-318.924c3.296-6.647-1.539-14.443-8.959-14.443h-316.314c-7.42 0-12.255 7.796-8.959 14.443l158.157 318.924c3.675 7.41 14.243 7.41 17.918 0z" fill="#fcc16d"/><path d="m414.16 97.43h-28.72c7.42 0 12.25 7.8 8.96 14.45l-68.254 137.63h-169.016l47.91 96.6c16.26 7.14 33.42 10.89 50.96 10.89h.176c7.666-.011 12.722 7.946 9.316 14.814l-23.852 48.096 5.4 10.89c3.68 7.41 14.24 7.41 17.92 0l158.16-318.92c3.29-6.65-1.54-14.45-8.96-14.45z" fill="#fca62f"/></g><g><path d="m380.23 240.992c-27.305 58.03-72.761 96.004-124.23 96.004s-96.925-37.974-124.23-96.004c27.305-57.991 72.761-95.964 124.23-95.964s96.925 37.973 124.23 95.964z" fill="#fb6a3b"/><path d="m380.23 240.99c-27.31 58.03-72.76 96.01-124.23 96.01-5.61 0-11.15-.45-16.61-1.33 44.56-7.19 83.29-42.98 107.62-94.68-24.33-51.67-63.06-87.44-107.62-94.63 5.46-.88 11-1.33 16.61-1.33 51.47 0 96.92 37.97 124.23 95.96z" fill="#fb5532"/><path d="m380.23 241c-27.305 36.228-72.761 59.935-124.23 59.935s-96.925-23.707-124.23-59.935c27.305-36.203 72.761-59.91 124.23-59.91s96.925 23.706 124.23 59.91z" fill="#f3f0f3"/><path d="m380.23 241c-16 21.23-38.23 38.16-64.25 48.52 11.91-13.79 22.38-30.15 31.03-48.53-8.65-18.36-19.12-34.72-31.01-48.49 26.01 10.37 48.23 27.29 64.23 48.5z" fill="#e2dee2"/><g><g><circle cx="255.999" cy="240.994" fill="#433f43" r="59.904"/><path d="m315.905 240.994c0 33.088-26.818 59.906-59.906 59.906-18.401 0-34.861-8.286-45.853-21.35 2.277.28 4.61.411 6.961.411 33.088 0 59.906-26.818 59.906-59.906 0-14.687-5.281-28.143-14.053-38.556 29.804 3.433 52.945 28.758 52.945 59.495z" fill="#2d2b2d"/></g></g></g></g><g><path d="m504.5 248.5h-119.582c.706-1.429 1.413-2.858 2.098-4.315.952-2.023.952-4.366-.001-6.389-1.286-2.732-2.626-5.414-3.997-8.066l114.955-30.802c4.001-1.072 6.375-5.185 5.303-9.186-1.071-4.001-5.185-6.375-9.186-5.304l-113.696 30.465 15.331-30.914 79.232-45.745c3.587-2.071 4.816-6.658 2.745-10.245-2.072-3.587-6.66-4.816-10.245-2.745l-59.696 34.466 22.075-44.514c2.708-5.462 2.406-11.818-.808-17-.59-.95-1.26-1.829-1.996-2.633l9.987-9.988c2.929-2.929 2.929-7.678-.001-10.606-2.928-2.93-7.677-2.929-10.606 0l-14.787 14.788-51.086.165 26.206-45.39c2.071-3.587.842-8.174-2.745-10.245-3.589-2.071-8.176-.842-10.245 2.745l-30.536 52.89h-34.957l19.298-72.024c1.072-4.001-1.302-8.113-5.303-9.186-4.002-1.069-8.114 1.302-9.186 5.304l-20.339 75.906h-29.232v-82.432c0-4.142-3.357-7.5-7.5-7.5-4.142 0-7.5 3.358-7.5 7.5v82.433h-29.233l-20.339-75.906c-1.072-4.001-5.188-6.373-9.186-5.304-4.001 1.072-6.375 5.185-5.304 9.186l19.299 72.024h-34.957l-30.536-52.89c-2.072-3.588-6.659-4.816-10.245-2.745-3.587 2.071-4.816 6.658-2.745 10.245l26.206 45.39h-8.604c-4.142 0-7.5 3.358-7.5 7.5s3.358 7.5 7.5 7.5h271.301c1.21 0 1.851.741 2.124 1.182.274.442.653 1.345.116 2.429l-47.966 96.723c-8.965-13.062-19.001-24.598-29.782-34.151-3.101-2.747-7.841-2.46-10.587.64-2.747 3.1-2.461 7.84.64 10.587 5.48 4.855 10.754 10.292 15.779 16.218-25.831-16.047-56.55-24.967-88.463-24.97-.006 0-.013 0-.019 0-.011 0-.022.001-.033.001-31.918.006-62.636 8.927-88.463 24.976 25.031-29.431 56.128-46.038 88.497-46.038 17.337 0 34.312 4.637 50.453 13.783 3.604 2.042 8.181.775 10.223-2.828s.775-8.181-2.828-10.223c-18.424-10.439-37.887-15.732-57.848-15.732-42.637 0-82.966 24.747-112.447 67.706l-47.95-96.69c-.538-1.085-.158-1.988.116-2.429.273-.441.914-1.182 2.124-1.182h15.913c4.142 0 7.5-3.358 7.5-7.5s-3.358-7.5-7.5-7.5l-13.381-.165-14.788-14.79c-2.929-2.929-7.678-2.929-10.606 0-2.929 2.929-2.929 7.677 0 10.606l9.987 9.987c-.736.804-1.407 1.683-1.996 2.633-3.214 5.182-3.516 11.537-.807 17l22.075 44.513-59.697-34.466c-3.587-2.072-8.174-.842-10.245 2.745s-.842 8.174 2.745 10.245l79.232 45.745 15.33 30.914-113.697-30.463c-3.996-1.068-8.113 1.302-9.186 5.304-1.072 4.001 1.303 8.113 5.304 9.186l114.956 30.802c-1.365 2.646-2.707 5.323-3.998 8.066-.952 2.022-.953 4.365 0 6.388.685 1.457 1.392 2.885 2.098 4.315h-119.582c-4.142 0-7.5 3.358-7.5 7.5s3.358 7.5 7.5 7.5h127.664c2.978 5.082 6.092 9.957 9.339 14.611l-130.477 34.961c-4.001 1.072-6.375 5.185-5.304 9.186.898 3.351 3.928 5.561 7.24 5.561.643 0 1.296-.083 1.946-.257l136.367-36.539c2.868 3.475 5.823 6.779 8.844 9.943l-126.077 72.789c-3.587 2.071-4.816 6.658-2.745 10.245 1.389 2.406 3.91 3.751 6.502 3.751 1.272 0 2.562-.324 3.743-1.006l129.869-74.98c2.754 2.394 5.557 4.665 8.406 6.811l-107.836 107.837c-2.929 2.929-2.929 7.678 0 10.606 1.464 1.464 3.384 2.197 5.303 2.197s3.839-.732 5.303-2.197l104.396-104.396 6.061 12.223-70.79 122.611c-2.071 3.587-.842 8.174 2.745 10.245 1.181.682 2.471 1.006 3.743 1.006 2.592 0 5.113-1.346 6.502-3.751l65.802-113.973 10.438 21.049-30.047 112.059c-1.072 4.001 1.303 8.113 5.304 9.186.65.174 1.303.257 1.946.257 3.311 0 6.342-2.21 7.24-5.561l25.626-95.638 15.768 31.796c1.794 3.616 4.694 6.398 8.178 8.044v62.324c0 4.142 3.358 7.5 7.5 7.5 4.143 0 7.5-3.358 7.5-7.5v-62.324c3.484-1.646 6.384-4.428 8.178-8.045l15.768-31.796 25.626 95.639c.897 3.351 3.928 5.561 7.239 5.561.643 0 1.296-.083 1.946-.257 4.001-1.072 6.375-5.185 5.303-9.186l-29.924-111.677 10.316-21.432 65.803 113.974c1.389 2.406 3.91 3.751 6.502 3.751 1.272 0 2.563-.324 3.743-1.006 3.587-2.071 4.816-6.658 2.745-10.245l-70.79-122.612 6.061-12.222 104.397 104.397c1.465 1.465 3.384 2.197 5.304 2.197 1.919 0 3.839-.732 5.304-2.197 2.929-2.929 2.929-7.678 0-10.606l-107.837-107.838c2.848-2.146 5.651-4.417 8.405-6.811l129.868 74.98c1.182.682 2.471 1.006 3.743 1.006 2.592 0 5.113-1.346 6.502-3.751 2.071-3.587.842-8.174-2.745-10.245l-126.076-72.79c3.021-3.164 5.977-6.468 8.844-9.943l136.366 36.539c.65.174 1.304.257 1.946.257 3.312 0 6.342-2.21 7.239-5.561 1.072-4.001-1.302-8.113-5.303-9.186l-130.476-34.961c3.246-4.654 6.36-9.529 9.339-14.611h127.665c4.143 0 7.5-3.358 7.5-7.5s-3.357-7.499-7.5-7.499zm-248.5 80.996c-32.373 0-63.47-16.614-88.499-46.057 25.837 16.063 56.568 24.991 88.499 24.991 31.932 0 62.664-8.928 88.501-24.992-25.03 29.444-56.128 46.058-88.501 46.058zm-59.819-96.667c4.003 1.063 8.111-1.32 9.174-5.323 6.082-22.902 26.891-38.9 50.61-38.915h.035.018c28.887.011 52.385 23.514 52.385 52.403 0 28.896-23.509 52.404-52.404 52.404-24.468 0-45.445-16.623-51.011-40.424-.943-4.034-4.979-6.543-9.011-5.595-4.033.943-6.538 4.978-5.595 9.011 2.512 10.74 7.469 20.337 14.196 28.281-24.828-8.746-46.847-23.744-63.258-43.67 16.437-19.944 38.491-34.948 63.354-43.685-6.371 7.471-11.176 16.397-13.816 26.341-1.064 4.002 1.32 8.109 5.323 9.172zm111.034 51.912c10.08-11.784 16.188-27.061 16.188-43.747 0-16.666-6.093-31.927-16.151-43.705 24.894 8.734 46.975 23.747 63.428 43.711-16.456 19.981-38.553 35.005-63.465 43.741zm-100.165 48.536c13.282 6.24 27.205 9.964 41.45 10.937v72.647zm56.45 83.583v-72.647c14.245-.973 28.168-4.696 41.45-10.937z"/><path d="m152.927 134.76c.108 0 .217-.002.326-.007 4.139-.177 7.35-3.675 7.173-7.813l-.013-.297c-.177-4.138-3.666-7.353-7.813-7.173-4.139.177-7.35 3.675-7.173 7.813l.013.297c.172 4.03 3.493 7.18 7.487 7.18z"/><path d="m145.355 159.616c.172 4.029 3.493 7.18 7.488 7.18.108 0 .217-.002.326-.007 4.139-.177 7.35-3.675 7.173-7.813l-.013-.297c-.177-4.138-3.656-7.347-7.813-7.173-4.139.177-7.35 3.675-7.173 7.813z"/><path d="m168.448 150.671.278-.013c4.137-.204 7.326-3.722 7.123-7.859s-3.715-7.331-7.859-7.123l-.278.013c-4.137.204-7.326 3.722-7.123 7.859.197 4.012 3.511 7.132 7.484 7.132.124 0 .249-.003.375-.009z"/><path d="m137.779 150.583.278-.014c4.137-.203 7.326-3.722 7.122-7.859-.203-4.137-3.729-7.328-7.859-7.122l-.278.014c-4.137.203-7.326 3.722-7.122 7.859.197 4.012 3.512 7.131 7.484 7.131.125 0 .25-.003.375-.009z"/><path d="m359.158 134.76c.108 0 .217-.002.326-.007 4.139-.177 7.35-3.675 7.173-7.813l-.013-.297c-.177-4.139-3.687-7.359-7.813-7.173-4.139.177-7.35 3.675-7.173 7.813l.013.297c.172 4.03 3.493 7.18 7.487 7.18z"/><path d="m351.587 159.616c.172 4.029 3.493 7.18 7.487 7.18.108 0 .217-.002.326-.007 4.139-.177 7.35-3.675 7.173-7.813l-.013-.297c-.177-4.139-3.677-7.369-7.813-7.173-4.139.177-7.35 3.675-7.173 7.813z"/><path d="m374.681 150.671.277-.014c4.138-.204 7.326-3.723 7.122-7.86s-3.724-7.328-7.86-7.122l-.277.014c-4.138.204-7.326 3.723-7.122 7.86.198 4.012 3.513 7.131 7.485 7.131.124 0 .25-.003.375-.009z"/><path d="m344.012 150.583.277-.014c4.138-.204 7.326-3.723 7.122-7.86s-3.731-7.32-7.86-7.122l-.277.014c-4.138.204-7.326 3.723-7.122 7.86.198 4.012 3.513 7.131 7.485 7.131.124 0 .25-.003.375-.009z"/></g></g></svg>