<svg id="Capa_1" enable-background="new 0 0 512 512" height="512" viewBox="0 0 512 512" width="512" xmlns="http://www.w3.org/2000/svg"><g><path d="m512 211c0-33.084-26.916-60-60-60s-60 26.916-60 60h-91v-91c33.084 0 60-26.916 60-60s-26.916-60-60-60c-17.901 0-33.997 7.881-45 20.354-11.003-12.473-27.099-20.354-45-20.354-33.084 0-60 26.916-60 60s26.916 60 60 60v91h-91c0-33.084-26.916-60-60-60s-60 26.916-60 60c0 17.901 7.881 33.997 20.354 45-12.473 11.003-20.354 27.099-20.354 45 0 33.084 26.916 60 60 60s60-26.916 60-60h91v91c-33.084 0-60 26.916-60 60s26.916 60 60 60c17.901 0 33.997-7.881 45-20.354 11.003 12.473 27.099 20.354 45 20.354 33.084 0 60-26.916 60-60s-26.916-60-60-60v-91h91c0 33.084 26.916 60 60 60s60-26.916 60-60c0-17.901-7.881-33.997-20.354-45 12.473-11.003 20.354-27.099 20.354-45zm-422 60v30c0 16.542-13.458 30-30 30s-30-13.458-30-30 13.458-30 30-30v-30c-16.542 0-30-13.458-30-30s13.458-30 30-30 30 13.458 30 30v30h121v30zm181-181v332h30c16.542 0 30 13.458 30 30s-13.458 30-30 30-30-13.458-30-30h-30c0 16.542-13.458 30-30 30s-30-13.458-30-30 13.458-30 30-30h30v-332h-30c-16.542 0-30-13.458-30-30s13.458-30 30-30 30 13.458 30 30h30c0-16.542 13.458-30 30-30s30 13.458 30 30-13.458 30-30 30zm211 211c0 16.542-13.458 30-30 30s-30-13.458-30-30v-30h-121v-30h121v-30c0-16.542 13.458-30 30-30s30 13.458 30 30-13.458 30-30 30v30c16.542 0 30 13.458 30 30z"/></g></svg>