<svg id="Capa_1" enable-background="new 0 0 512 512" height="512" viewBox="0 0 512 512" width="512" xmlns="http://www.w3.org/2000/svg"><g><g><g><path d="m484.647 123.226c-8.72 8.73-23.02 18.36-39.21 26.41-50.445-14.95-64.291-103.238-14.6-141.882 19.25-1.67 39.08 4.86 53.81 19.6 26.471 26.472 26.471 69.392 0 95.872z" fill="#d7ddf5"/><path d="m445.438 149.637c-32.92 16.36-73.7 26.16-91.439 8.41-26.47-26.47 8.34-104.221 34.81-130.691 11.73-11.74 26.7-18.28 42.03-19.6-24.271 40.56-22.421 100.18 14.599 141.881z" fill="#c5cff1"/><g><path d="m299.218 124.236c0 37.44-30.34 117.041-67.77 117.041-14.38 0-27.72-11.75-38.69-28.35-13.988-63.29 7.797-134.359 51-155.361 31.551 5.79 55.46 33.43 55.46 66.67z" fill="#f3f5fc"/><path d="m243.759 57.566c-30.01 44.41-47.62 98.701-51 155.361-17.58-26.6-29.08-65.641-29.08-88.691 0-37.44 30.34-67.791 67.77-67.791 4.2.001 8.32.381 12.31 1.121z" fill="#d7ddf5"/><path d="m168.933 122.062c26.466 26.475 61.277 104.221 34.811 130.696s-104.186-8.347-130.651-34.822-26.466-69.399 0-95.874 69.375-26.475 95.84 0z" fill="#c5cff1"/><path d="m75.269 212.681c37.428 0 116.999 30.351 117 67.792s-79.57 67.794-116.999 67.794c-37.428 0-67.77-30.351-67.77-67.792s30.341-67.794 67.769-67.794z" fill="#d7ddf5"/><path d="m73.094 343.012c26.465-26.475 104.185-61.299 130.651-34.824 26.466 26.474-8.343 104.222-34.809 130.697-26.465 26.475-69.375 26.476-95.841.001-26.465-26.474-26.466-69.398-.001-95.874z" fill="#c5cff1"/><path d="m299.218 436.709c0 11.97-3.1 23.21-8.55 32.97-59.218-7.474-97.909-90.94-83.97-138.551 7.67-7.13 16.02-11.46 24.75-11.46 37.431 0 67.77 79.601 67.77 117.041z" fill="#f3f5fc"/><path d="m290.668 469.68c-11.57 20.77-33.75 34.82-59.22 34.82-37.43 0-67.77-30.35-67.77-67.791 0-28.7 17.83-82.181 43.02-105.581 15.251 50.201 42.811 98.151 83.97 138.552z" fill="#d7ddf5"/><path d="m293.967 438.884c-26.466-26.475-61.277-104.221-34.811-130.696s104.186 8.347 130.651 34.822 26.466 69.399 0 95.874c-26.465 26.474-69.375 26.474-95.84 0z" fill="#d7ddf5"/><path d="m387.631 348.264c-37.428 0-116.999-30.351-117-67.792s79.57-67.794 116.999-67.794 67.77 30.351 67.77 67.792c0 37.442-30.341 67.794-67.769 67.794z" fill="#f3f5fc"/></g><path d="m349.928 280.468c0 63.961-50.65 116.081-113.999 118.431-52.422-40.882-84.941-163.067-37.11-232.392 10.37-2.96 21.31-4.55 32.63-4.55 65.429 0 118.479 53.06 118.479 118.511z" fill="#fbf198"/><path d="m235.929 398.899c-1.49.06-2.98.09-4.48.09-65.43 0-118.469-53.061-118.469-118.521 0-54.131 36.28-99.781 85.84-113.961-15.371 75.58-4.601 159.621 37.109 232.392z" fill="#fad989"/></g></g><g><path d="m169.015 290.403c4.143 0 7.501-3.357 7.501-7.5v-12c0-4.143-3.358-7.5-7.501-7.5s-7.501 3.357-7.501 7.5v12c0 4.143 3.358 7.5 7.501 7.5z"/><path d="m293.92 290.403c4.143 0 7.501-3.357 7.501-7.5v-12c0-4.143-3.358-7.5-7.501-7.5s-7.501 3.357-7.501 7.5v12c0 4.143 3.358 7.5 7.501 7.5z"/><path d="m231.467 297.547c8.478 0 16.541-3.672 22.12-10.074 2.722-3.122 2.396-7.86-.728-10.581-3.122-2.722-7.862-2.396-10.582.728-2.73 3.132-6.669 4.928-10.81 4.928s-8.081-1.796-10.81-4.928c-2.721-3.123-7.459-3.448-10.582-.728-3.123 2.721-3.449 7.459-.728 10.581 5.579 6.402 13.642 10.074 22.12 10.074z"/><path d="m489.988 22.053c-14.218-14.221-33.122-22.053-53.228-22.053-20.108 0-39.011 7.833-53.229 22.055-14.606 14.611-30.306 42.049-39.065 68.274-11.103 33.241-9.592 59.176 4.255 73.026 8.653 8.655 20.714 11.672 33.325 11.672 16.608 0 34.167-5.233 46.147-9.71 3.88-1.45 5.85-5.771 4.4-9.651-1.45-3.879-5.77-5.849-9.652-4.399-29.673 11.089-53.451 11.645-63.611 1.483-9.478-9.48-9.71-30.5-.635-57.669 7.963-23.843 22.54-49.512 35.446-62.422 11.383-11.388 26.519-17.659 42.619-17.659 16.099 0 31.236 6.271 42.62 17.658 23.503 23.508 23.503 61.759.001 85.268-5.976 5.978-15.152 12.678-25.839 18.867-3.585 2.076-4.808 6.665-2.732 10.249 2.076 3.586 6.668 4.807 10.25 2.731 11.954-6.924 21.958-14.27 28.93-21.242 29.348-29.357 29.347-77.123-.002-106.478z"/><path d="m387.659 205.182c-13.151 0-31.033 3.504-48.803 9.472-10.399-16.913-24.676-31.193-41.585-41.594 5.967-17.776 9.471-35.663 9.471-48.817 0-41.517-33.768-75.293-75.275-75.293-18.821 0-36.836 6.984-50.726 19.667-10.745 9.811-18.314 22.383-21.994 36.215-11.34-6.592-24.258-10.121-37.725-10.121-20.108 0-39.011 7.833-53.228 22.054-13.308 13.311-21.108 30.99-21.965 49.781-.663 14.544 2.878 28.794 10.062 41.183-32.142 8.576-55.891 37.935-55.891 72.748 0 18.824 6.982 36.843 19.661 50.736 9.813 10.754 22.391 18.326 36.227 22.006-16.664 28.797-12.702 66.354 11.909 90.971 23.217 23.92 62.412 28.983 90.942 11.918 8.578 32.142 37.927 55.892 72.728 55.892 18.821 0 36.836-6.984 50.726-19.666 10.745-9.811 18.314-22.384 21.994-36.215 11.34 6.592 24.259 10.122 37.725 10.122 20.108-.001 39.011-7.833 53.228-22.054 13.308-13.311 21.108-30.99 21.965-49.781.663-14.544-2.879-28.795-10.061-41.184 32.141-8.577 55.89-37.936 55.89-72.749 0-20.11-7.83-39.018-22.046-53.238-14.219-14.222-33.123-22.054-53.229-22.053zm-156.192-141.233c33.235 0 60.274 27.047 60.274 60.293 0 11.057-2.905 26.188-7.894 41.639-15.96-7.328-33.7-11.42-52.379-11.42-10.129 0-19.98 1.21-29.423 3.479-9.235-18.237-18.984-32.966-30.067-43.342 4.637-29.125 29.574-50.649 59.489-50.649zm-153.065 63.42c11.385-11.388 26.52-17.659 42.62-17.659s31.236 6.271 42.619 17.657c7.815 7.818 16.457 20.57 23.85 35.021-26.494 9.904-48.79 28.483-63.414 52.268-19.437-6.369-36.76-9.903-51.936-9.393-17.311-23.874-14.894-56.733 6.261-77.894zm-63.401 153.108c0-33.245 27.039-60.292 60.274-60.293 11.052 0 26.18 2.905 41.628 7.897-7.326 15.964-11.419 33.709-11.419 52.394 0 9.943 1.195 19.824 3.496 29.427-18.238 9.242-32.978 18.992-43.345 30.083-29.116-4.639-50.634-29.583-50.634-59.508zm63.404 153.107c-23.503-23.509-23.503-61.76-.001-85.268 7.814-7.816 20.559-16.457 35.004-23.852 2.241 6.027 4.935 11.887 8.085 17.512 2.025 3.613 6.592 4.905 10.21 2.879 3.614-2.024 4.903-6.595 2.879-10.209-9.222-16.466-14.097-35.198-14.097-54.172 0-61.213 49.787-111.014 110.982-111.014s110.982 49.801 110.982 111.014-49.787 111.014-110.982 111.014c-28.756 0-56.022-10.959-76.778-30.857-2.99-2.866-7.739-2.767-10.605.224-2.866 2.989-2.767 7.737.224 10.604 6.577 6.305 13.73 11.818 21.335 16.492-6.357 19.425-9.882 36.728-9.371 51.898-23.864 17.31-56.712 14.893-77.867-6.265zm153.062 63.416c-33.235 0-60.274-27.047-60.274-60.293 0-11.044 2.898-26.154 7.878-41.588 16.259 7.443 34.061 11.369 52.396 11.369 10.129 0 19.979-1.21 29.423-3.479 9.235 18.238 18.985 32.967 30.067 43.343-4.637 29.124-29.574 50.648-59.49 50.648zm153.065-63.419c-11.385 11.388-26.52 17.658-42.62 17.659-16.1 0-31.235-6.271-42.619-17.658-7.815-7.817-16.457-20.569-23.85-35.021 26.494-9.903 48.79-28.483 63.414-52.268 19.434 6.369 36.759 9.903 51.936 9.392 17.312 23.876 14.894 56.736-6.261 77.896zm3.128-92.815c-11.054 0-26.182-2.905-41.628-7.897 7.327-15.964 11.419-33.709 11.419-52.394 0-18.686-4.093-36.432-11.419-52.396 15.446-4.992 30.573-7.897 41.628-7.897 16.1 0 31.236 6.271 42.62 17.657 11.385 11.388 17.655 26.528 17.655 42.634-.002 33.246-27.041 60.293-60.275 60.293z"/></g></g></svg>