<svg id="Capa_1" enable-background="new 0 0 512 512" height="512" viewBox="0 0 512 512" width="512" xmlns="http://www.w3.org/2000/svg"><g><g><g><g><path d="m249.632 391.442s-72.894-97.064-213.639-108.011c-13.948-1.085-24.978 15.554-22.092 33.58 6.796 42.451 26.762 108.896 85.161 108.896 85.811 0 152.117 23.762 152.117 23.762z" fill="#fb6a3b"/><path d="m251.181 449.664s-18.764-6.724-49.258-13.025c-54.665-30.624-71.188-96.877-76.183-132.898 81.862 31.73 123.893 87.701 123.893 87.701z" fill="#ffc5b0"/><path d="m251.186 449.664s-13.739-4.925-36.815-10.292c-1.021-7.88-1.762-15.598-2.177-22.791-.369-6.399-1.993-12.634-4.422-18.566-2.481-6.06-3.854-12.685-3.854-19.63 0-9.226 2.412-17.91 6.654-25.438 25.92 20.986 39.066 38.494 39.066 38.494z" fill="#fcac8d"/></g></g><g><g><path d="m262.368 391.442s72.893-97.064 213.639-108.011c13.948-1.085 24.978 15.554 22.092 33.58-6.796 42.451-26.762 108.896-85.161 108.896-85.811 0-152.117 23.762-152.117 23.762z" fill="#fb6a3b"/><path d="m498.098 317.007c-6.794 42.454-26.765 108.898-85.158 108.898-4.885 0-9.709.08-14.463.231 50.665-8.151 68.786-69.731 75.238-110.074 2.121-13.227-3.106-25.709-11.508-31.257 4.523-.553 9.126-1.015 13.799-1.377 13.951-1.086 24.976 15.558 22.092 33.579z" fill="#fb5532"/><path d="m260.819 449.664s18.764-6.724 49.258-13.025c54.665-30.624 71.188-96.877 76.183-132.898-81.862 31.73-123.893 87.701-123.893 87.701z" fill="#ffc5b0"/><path d="m386.255 303.74c-4.995 36.021-21.518 102.274-76.183 132.898-7.025 1.457-13.428 2.935-19.126 4.342 50.112-30.373 66.665-91.289 72.143-127.16 7.327-3.547 15.055-6.934 23.166-10.08z" fill="#fcac8d"/></g></g></g><g><g><g><path d="m251.981 432.516s-53.306-9.891-104.665 14.816c-9.435 4.539-10.338 17.688-1.6 23.455 8.449 5.576 21.909 10.293 42.983 9.179 0 0 36.874 29.305 50.287-13.956 2.736-8.823 12.995-33.494 12.995-33.494z" fill="#fff2e3"/><path d="m241.477 458.891c-1.045 2.804-1.93 5.297-2.493 7.116-13.408 43.268-50.283 13.96-50.283 13.96-21.076 1.115-34.534-3.608-42.986-9.176-8.734-5.769-7.829-18.925 1.598-23.458 3.849-1.849 7.719-3.508 11.568-4.995.573.553 1.206 1.065 1.91 1.528 8.452 5.578 21.91 10.292 42.986 9.176 0-.001 21.559 17.135 37.7 5.849z" fill="#fcac8d"/></g><g><path d="m259.125 432.516s53.306-9.891 104.665 14.816c9.435 4.539 10.338 17.688 1.6 23.455-8.449 5.576-21.909 10.293-42.983 9.179 0 0-36.874 29.305-50.287-13.956-2.736-8.823-12.995-33.494-12.995-33.494z" fill="#fff2e3"/><path d="m365.39 470.79c-8.453 5.568-21.91 10.292-42.986 9.176 0 0-36.876 29.307-50.283-13.96-.563-1.819-1.447-4.312-2.493-7.116 16.141 11.287 37.7-5.849 37.7-5.849 21.076 1.115 34.534-3.598 42.986-9.176.703-.462 1.337-.975 1.91-1.528 3.849 1.487 7.719 3.146 11.568 4.995 9.428 4.533 10.332 17.689 1.598 23.458z" fill="#fcac8d"/></g></g><g><path d="m309.898 124.098c0 30.812-25.649 55.639-56.758 54.292-28.915-1.251-52.055-25.591-51.931-54.532.001-.185.003-.371.005-.556.075-5.255 6.993-7.253 9.874-2.857 9.836 15.006 26.089 24.812 44.465 24.812 18.375 0 34.626-9.804 44.462-24.807 2.889-4.407 9.805-2.384 9.877 2.885.004.254.006.508.006.763z" fill="#ffd597"/><g><g><path d="m279.211 403.929c0 37.77-13.367 100.571-23.658 100.571s-23.658-62.801-23.658-100.571 13.368-42.045 23.658-42.045c10.291 0 23.658 4.274 23.658 42.045z" fill="#fb6a3b"/><g><path d="m279.207 403.924c0 37.77-13.367 100.576-23.649 100.576-2.945 0-6.131-5.136-9.196-13.347 7.639-20.523 14.453-60.253 14.453-87.229 0-26.966-6.814-36.855-14.453-40.313 3.065-1.377 6.252-1.729 9.196-1.729 10.282.001 23.649 4.272 23.649 42.042z" fill="#fb5532"/></g></g></g><g><g><g><path d="m110.393 160.783c0 19.384-15.722 35.106-35.106 35.106-2.364 0-4.664-.232-6.901-.686-16.081-3.197-28.205-17.4-28.205-34.42 0-19.394 15.722-35.106 35.106-35.106 15.226 0 28.195 9.697 33.059 23.267 1.329 3.693 2.047 7.682 2.047 11.839z" fill="#ffd597"/><path d="m110.398 160.781c0 19.388-15.729 35.107-35.107 35.107-2.372 0-4.663-.231-6.905-.683-1.689-.332-3.327-.794-4.915-1.367 13.558-4.854 23.267-17.82 23.267-33.056 0-4.151-.724-8.141-2.05-11.84-3.538-9.87-11.367-17.689-21.227-21.217 3.699-1.327 7.679-2.05 11.83-2.05 15.227 0 28.192 9.699 33.056 23.267 1.327 3.698 2.051 7.688 2.051 11.839z" fill="#fcc16d"/></g><g><path d="m110.393 160.783c0 19.384-15.722 35.106-35.106 35.106-2.364 0-4.664-.232-6.901-.686-1.34-3.693-2.058-7.682-2.058-11.839 0-19.394 15.712-35.106 35.106-35.106 2.364 0 4.675.232 6.911.686 1.33 3.693 2.048 7.682 2.048 11.839z" fill="#554e55"/><path d="m110.398 160.781c0 19.388-15.729 35.107-35.107 35.107-2.372 0-4.663-.231-6.905-.683-.362-1.005-.683-2.03-.945-3.076 11.448-5.779 19.297-17.649 19.297-31.348 0-3.025-.382-5.97-1.106-8.774 4.744-2.402 10.111-3.749 15.799-3.749 2.362 0 4.674.231 6.915.683 1.328 3.699 2.052 7.689 2.052 11.84z" fill="#433f43"/></g></g><g><g><path d="m400.713 160.783c0 19.384 15.722 35.106 35.106 35.106 2.364 0 4.664-.232 6.901-.686 16.081-3.197 28.205-17.4 28.205-34.42 0-19.394-15.722-35.106-35.106-35.106-15.226 0-28.195 9.697-33.059 23.267-1.329 3.693-2.047 7.682-2.047 11.839z" fill="#ffd597"/><path d="m470.921 160.781c0 17.026-12.121 31.227-28.202 34.423-2.231.452-4.533.683-6.905.683-4.151 0-8.141-.724-11.839-2.05 13.578-4.834 23.297-17.82 23.297-33.056 0-15.237-9.719-28.202-23.277-33.056 3.689-1.327 7.669-2.05 11.819-2.05 19.388 0 35.107 15.718 35.107 35.106z" fill="#fcc16d"/></g><g><path d="m400.713 160.783c0 19.384 15.722 35.106 35.106 35.106 2.364 0 4.664-.232 6.901-.686 1.34-3.693 2.058-7.682 2.058-11.839 0-19.394-15.712-35.106-35.106-35.106-2.364 0-4.675.232-6.911.686-1.33 3.693-2.048 7.682-2.048 11.839z" fill="#554e55"/><path d="m444.78 183.365c0 4.161-.724 8.141-2.06 11.84-2.231.452-4.533.683-6.905.683-4.151 0-8.141-.724-11.839-2.05 8.824-3.146 16.011-9.719 19.97-18.131.542 2.462.834 5.024.834 7.658z" fill="#433f43"/></g></g></g></g></g><circle cx="256" cy="378.388" fill="#554e55" r="31.978"/><path d="m287.981 378.386c0 17.659-14.322 31.981-31.981 31.981-7.86 0-15.066-2.834-20.634-7.548h.292c17.659 0 31.981-14.322 31.981-31.981 0-9.789-4.402-18.553-11.337-24.423 17.518.161 31.679 14.412 31.679 31.971z" fill="#433f43"/><g><g><circle cx="433.139" cy="337.59" fill="#554e55" r="19.269"/><path d="m452.408 337.59c0 10.644-8.623 19.267-19.267 19.267-3.538 0-6.865-.955-9.709-2.623 5.719-3.337 9.568-9.538 9.568-16.644s-3.849-13.307-9.568-16.644c2.844-1.668 6.171-2.623 9.709-2.623 10.644.001 19.267 8.624 19.267 19.267z" fill="#433f43"/></g><g><circle cx="78.861" cy="337.59" fill="#554e55" r="19.269"/><path d="m98.126 337.59c0 10.644-8.623 19.267-19.267 19.267-3.538 0-6.855-.955-9.699-2.623 5.719-3.337 9.558-9.538 9.558-16.644s-3.839-13.307-9.558-16.644c2.844-1.668 6.161-2.623 9.699-2.623 10.644.001 19.267 8.624 19.267 19.267z" fill="#433f43"/></g></g><g><path d="m496.313 284.679c-5.741-6.227-13.167-9.324-20.888-8.725-1.184.092-2.366.205-3.549.31-.507-3.134-2.981-5.72-6.289-6.217-4.094-.619-7.916 2.206-8.531 6.302-.079.524-.167 1.058-.252 1.589-10.43 1.411-20.775 3.318-30.918 5.704-4.032.949-6.531 4.986-5.583 9.019s4.994 6.531 9.019 5.583c15.414-3.627 31.316-6.095 47.267-7.335 3.911-.3 6.886 1.973 8.696 3.938 4.607 4.997 6.68 13.036 5.408 20.979-6.135 38.311-24.393 102.582-77.756 102.582-23.941 0-48.489 1.824-73.16 5.415 35.571-34.141 48.546-84.249 53.255-114.619 2.94-1.092 5.928-2.153 8.971-3.176 3.927-1.32 6.039-5.573 4.72-9.499-1.32-3.926-5.574-6.041-9.499-4.719-49.655 16.693-86.39 42.682-109.606 62.966-3.33-4.447-7.579-8.166-12.457-10.886l6.805-7.721c2.739-3.107 2.44-7.847-.667-10.586-3.108-2.739-7.847-2.44-10.585.667l-11.298 12.818c-1.127-.097-2.265-.157-3.417-.157s-2.289.06-3.417.157l-11.298-12.818c-2.738-3.106-7.479-3.406-10.585-.667-3.107 2.739-3.406 7.479-.667 10.586l6.805 7.721c-4.878 2.72-9.126 6.438-12.456 10.885-30.631-26.723-88.171-66.089-170.09-76.958-.078-.49-.172-.986-.245-1.471-.618-4.097-4.442-6.916-8.534-6.298-3.276.494-5.73 3.039-6.267 6.133-.89-.076-1.776-.157-2.671-.226-7.74-.598-15.146 2.498-20.889 8.725-7.65 8.298-11.172 21.141-9.19 33.518 1.351 8.437 3.027 16.646 4.983 24.401 1.014 4.017 5.093 6.448 9.106 5.438 4.017-1.013 6.451-5.09 5.438-9.106-1.849-7.328-3.436-15.102-4.718-23.104-1.271-7.943.801-15.982 5.408-20.979 1.811-1.964 4.793-4.241 8.696-3.938 31.323 2.436 59.221 9.309 83.568 18.377 4.715 30.346 17.688 80.414 53.227 114.532-24.661-3.59-49.198-5.411-73.144-5.411-28.328 0-49.993-17.773-64.392-52.827-1.573-3.831-5.954-5.66-9.787-4.088-3.832 1.574-5.662 5.956-4.088 9.787 16.695 40.645 43.759 62.128 78.267 62.128 17.79 0 35.925 1.038 54.199 3.088-3.064 1.248-6.133 2.603-9.197 4.077-6.901 3.32-11.33 9.873-11.848 17.531-.517 7.649 2.985 14.73 9.367 18.942 11.475 7.573 26.538 11.112 44.841 10.522 4.686 3.183 15.591 9.585 27.487 9.584 2.804 0 5.664-.356 8.51-1.194 5.595-1.647 10.399-4.873 14.395-9.609 6.8 22.207 13.206 25.65 18.734 25.65s11.934-3.443 18.735-25.651c4.009 4.751 8.83 7.982 14.447 9.624 2.829.827 5.671 1.179 8.458 1.179 11.896 0 22.801-6.402 27.486-9.584 18.298.591 33.367-2.95 44.841-10.522 6.383-4.212 9.885-11.294 9.368-18.943-.518-7.658-4.946-14.211-11.848-17.531-2.996-1.441-5.997-2.77-8.993-3.995 18.512-2.103 36.883-3.171 54.89-3.171 47.797 0 80.672-40.916 92.566-115.211 1.988-12.374-1.533-25.217-9.184-33.515zm-168.978 187.936-6.801-12.144c3.473-.228 6.805-.63 9.997-1.203l9.336 12.655c-3.9.519-8.085.745-12.532.692zm-19.61-27.064c-1.809-.093-3.618.483-5.047 1.605-3.38 2.656-12.752 8.365-21.131 8.061 1.024-5.708 1.916-11.469 2.656-17.148 13.088-.116 29.809 1.052 47.604 5.619-6.957 1.718-15.005 2.345-24.082 1.863zm-99.281 1.619c-1.434-1.14-3.227-1.708-5.063-1.619-9.079.481-17.128-.146-24.086-1.865 17.757-4.56 34.464-5.737 47.608-5.619.741 5.68 1.632 11.442 2.657 17.151-8.378.305-17.747-5.402-21.116-8.048zm62.066-21.478h-29.914c-.385-3.923-.683-7.731-.885-11.357 4.97 2.261 10.482 3.532 16.289 3.532 5.449 0 10.643-1.11 15.37-3.115-.201 3.5-.49 7.166-.86 10.94zm-26.173 26.921c-.708-3.958-1.351-7.95-1.921-11.921h26.275c-.571 3.971-1.213 7.963-1.921 11.921zm132.331-136.78c-6.263 32.897-22.124 82.006-62.101 109.196-10.528-1.472-20.284-1.973-28.738-1.968.575-6.837.882-13.316.882-19.133 0-.26-.005-.508-.006-.766 5.481-6.78 8.773-15.398 8.773-24.775 0-3.275-.408-6.456-1.163-9.501 17.975-16.171 45.549-36.902 82.353-53.053zm-96.19 62.555c0 13.497-10.98 24.478-24.478 24.478s-24.478-10.981-24.478-24.478 10.98-24.478 24.478-24.478 24.478 10.981 24.478 24.478zm-145.128-62.465c37.395 16.427 65.046 37.412 82.337 52.958-.756 3.047-1.165 6.229-1.165 9.507 0 8.864 2.937 17.053 7.888 23.65-.007.625-.016 1.247-.016 1.891 0 5.817.307 12.295.882 19.132-8.277-.006-17.773.475-28.001 1.866-39.832-27.189-55.662-76.169-61.925-109.004zm11.834 143.192c.071-1.056.544-3.659 3.384-5.024 2.414-1.161 4.832-2.235 7.25-3.242 2.544 1.587 5.246 2.995 8.125 4.2l-9.558 12.956c-2.343-1.001-4.529-2.154-6.536-3.478-2.619-1.728-2.736-4.36-2.665-5.412zm24.875 12.908 9.307-12.616c3.217.544 6.568.925 10.065 1.125l-6.759 12.071c-4.477.093-8.683-.102-12.613-.58zm46.165 9.536c-6.273 1.864-13.852-.939-19.22-3.847l7.764-13.864c5.585 3.05 13.632 6.377 22.211 6.377.13 0 .26-.006.39-.008-2.901 6.19-6.637 10-11.145 11.342zm37.329 12.173c-2.067-4.317-5.024-12.406-8.17-26.119h16.341c-3.147 13.713-6.105 21.802-8.171 26.119zm37.354-12.167c-4.519-1.335-8.265-5.146-11.172-11.349.13.002.261.008.392.008 8.93 0 17.298-3.607 22.897-6.751l7.761 13.86c-5.391 3.036-13.338 6.166-19.878 4.232zm71.016-22.45c.07 1.052-.047 3.685-2.665 5.413-1.812 1.196-3.768 2.256-5.855 3.189l-9.566-12.967c2.626-1.138 5.109-2.44 7.451-3.901 2.418 1.007 4.837 2.081 7.25 3.242 2.841 1.365 3.314 3.968 3.385 5.024z"/><path d="m115.157 87.341c-.022.018-.046.035-.068.053-3.225 2.6-3.731 7.321-1.132 10.546 1.481 1.838 3.652 2.793 5.844 2.793.939 0 1.875-.197 2.768-.553l126.488 219.085c1.34 2.32 3.815 3.75 6.495 3.75s5.155-1.43 6.495-3.75l126.481-219.072c.909.371 1.864.577 2.822.577 2.189 0 4.359-.954 5.842-2.791 2.601-3.224 2.097-7.946-1.127-10.547-.038-.031-.079-.061-.117-.092l43.931-76.091c1.34-2.32 1.34-5.18 0-7.5s-3.814-3.749-6.493-3.749h-355.665c-2.68 0-5.155 1.43-6.495 3.75s-1.34 5.18 0 7.5zm305.239-72.341-36.848 63.822c-2.809-.579-5.825.483-7.608 2.963-2.09 2.907-1.796 6.799.492 9.364l-120.879 209.366-120.869-209.351c2.33-2.563 2.639-6.489.537-9.414-1.797-2.501-4.848-3.563-7.677-2.952l-36.833-63.798z"/><path d="m248.053 185.469v24.44c-2.536-1.181-5.63-.898-7.935.998-3.198 2.632-3.658 7.358-1.026 10.557l10.669 12.967c1.425 1.731 3.55 2.735 5.792 2.735s4.367-1.003 5.791-2.734l10.67-12.967c2.632-3.199 2.173-7.925-1.025-10.557-2.305-1.896-5.399-2.179-7.936-.998v-24.426c13.206-1.579 25.468-7.329 35.269-16.714 12.302-11.781 19.076-27.645 19.076-44.671 0-.293-.001-.586-.006-.866-.078-5.685-3.812-10.576-9.291-12.171-5.476-1.593-11.245.527-14.357 5.277-8.792 13.412-23.069 21.419-38.19 21.419-15.122 0-29.399-8.009-38.192-21.423-3.112-4.75-8.885-6.871-14.363-5.278-5.471 1.59-9.201 6.469-9.282 12.128l-.006.643c-.136 31.192 23.841 57.878 54.342 61.641zm7.5-32.712c17.857 0 34.755-8.242 46.43-22.357-1.393 10.476-6.255 20.083-14.036 27.536-9.312 8.918-21.537 13.535-34.481 12.962-22.579-.977-41.252-18.563-44.315-40.467 11.672 14.095 28.558 22.326 46.402 22.326z"/><path d="m45.789 224.162c-4.118-.346-7.757 2.711-8.107 6.838-.335 3.943-.558 7.949-.662 11.906-.109 4.141 3.158 7.586 7.299 7.695.068.001.135.002.202.002 4.05 0 7.386-3.229 7.493-7.302.097-3.667.304-7.379.613-11.032.351-4.127-2.711-7.757-6.838-8.107z"/><path d="m338.289 70.083c3.459 1.475 6.919 3.063 10.282 4.721 1.066.526 2.196.774 3.31.774 2.767 0 5.428-1.537 6.733-4.186 1.831-3.716.304-8.212-3.412-10.043-3.607-1.778-7.318-3.482-11.028-5.065-3.811-1.624-8.217.146-9.841 3.957-1.625 3.811.146 8.217 3.956 9.842z"/><path d="m203.302 59.563c.589 0 1.188-.07 1.786-.216 3.643-.89 7.368-1.694 11.073-2.39 4.071-.764 6.752-4.684 5.987-8.755s-4.681-6.754-8.755-5.987c-3.97.745-7.962 1.606-11.866 2.561-4.023.983-6.488 5.042-5.506 9.066.838 3.426 3.904 5.721 7.281 5.721z"/><path d="m159.287 75.548c1.112 0 2.242-.249 3.307-.773 3.371-1.66 6.834-3.248 10.291-4.721 3.811-1.624 5.584-6.028 3.961-9.839-1.624-3.81-6.025-5.586-9.84-3.96-3.708 1.58-7.422 3.283-11.037 5.063-3.717 1.83-5.246 6.325-3.416 10.041 1.304 2.652 3.966 4.189 6.734 4.189z"/><path d="m295.036 56.975c3.698.696 7.42 1.5 11.063 2.392.599.146 1.198.217 1.788.217 3.375 0 6.441-2.295 7.279-5.719.984-4.023-1.479-8.083-5.503-9.068-3.902-.955-7.891-1.817-11.854-2.563-4.064-.766-7.991 1.913-8.758 5.983-.765 4.071 1.914 7.992 5.985 8.758z"/><path d="m249.939 53.385c3.786-.098 7.585-.096 11.339.003.067.001.134.002.201.002 4.051 0 7.387-3.229 7.493-7.303.109-4.141-3.159-7.586-7.3-7.695-4.011-.105-8.077-.107-12.12-.003-4.141.107-7.411 3.55-7.304 7.691.107 4.142 3.558 7.396 7.691 7.305z"/><path d="m465.317 224.163c-4.127.351-7.188 3.98-6.838 8.108.31 3.653.517 7.365.613 11.032.107 4.073 3.442 7.302 7.493 7.302.067 0 .135-.001.201-.002 4.142-.109 7.409-3.555 7.3-7.695-.104-3.958-.327-7.963-.662-11.906-.35-4.129-3.992-7.19-8.107-6.839z"/><path d="m45.217 190.933c-.471 1.596-.932 3.215-1.37 4.844-1.074 4 1.297 8.114 5.298 9.189.651.175 1.306.259 1.95.259 3.248 0 6.215-2.134 7.174-5.379 2.73 1.19 5.615 2.108 8.627 2.707 2.734.554 5.558.835 8.392.835 23.493 0 42.605-19.113 42.605-42.606 0-4.95-.838-9.788-2.486-14.37-3.279-9.147-9.516-16.664-17.391-21.637.649-.758 1.3-1.509 1.951-2.246 2.742-3.105 2.446-7.845-.658-10.586-3.106-2.74-7.846-2.446-10.586.659-1.356 1.536-2.719 3.125-4.048 4.724-.435.522-.778 1.089-1.048 1.679-2.713-.544-5.503-.829-8.339-.829-23.493 0-42.606 19.113-42.606 42.606-.001 11.629 4.748 22.364 12.535 30.151zm30.07-2.544c-.331 0-.661-.013-.992-.024-.3-1.635-.467-3.306-.467-5.001 0-15.222 12.384-27.606 27.606-27.606.334 0 .667.013 1 .025.298 1.635.458 3.305.458 5 .001 15.222-12.383 27.606-27.605 27.606zm0-55.212c7.46 0 14.425 3.039 19.503 8.102-20.213 3.179-35.745 20.619-35.952 41.662-6.823-5.083-11.158-13.212-11.158-22.159.001-15.221 12.384-27.605 27.607-27.605z"/><path d="m427.477 119c-.27-.587-.612-1.152-1.045-1.672-1.313-1.579-2.674-3.167-4.046-4.722-2.739-3.106-7.479-3.402-10.586-.663-3.105 2.74-3.402 7.48-.662 10.586.654.742 1.305 1.492 1.949 2.244-11.931 7.559-19.874 20.869-19.874 36.008 0 23.493 19.112 42.605 42.604 42.605 5.959 0 11.732-1.26 17.009-3.567.95 3.262 3.925 5.409 7.185 5.409.643 0 1.297-.083 1.946-.258 4.001-1.072 6.375-5.185 5.303-9.186-.431-1.608-.894-3.232-1.37-4.846 3.584-3.566 6.563-7.795 8.724-12.552 1.714-3.771.046-8.217-3.726-9.931-3.771-1.715-8.219-.045-9.931 3.726-1.974 4.344-5 8.006-8.691 10.746-.214-21.042-15.751-38.477-35.966-41.649 4.999-5.003 11.903-8.102 19.517-8.102 10.763 0 20.617 6.332 25.106 16.13 1.724 3.766 6.176 5.42 9.941 3.695 3.767-1.725 5.421-6.177 3.695-9.942-6.924-15.116-22.132-24.883-38.743-24.883-2.852-.002-5.64.286-8.339.824zm-17.805 36.758c15.223 0 27.606 12.384 27.606 27.606 0 1.686-.16 3.353-.457 4.984-.334.012-.667.037-1.003.037-15.221 0-27.604-12.383-27.604-27.605 0-1.706.164-3.373.461-4.994.332-.012.664-.028.997-.028z"/><path d="m459.908 337.59c0-14.76-12.009-26.769-26.769-26.769s-26.769 12.008-26.769 26.769 12.009 26.769 26.769 26.769 26.769-12.009 26.769-26.769zm-26.768 11.768c-6.489 0-11.769-5.279-11.769-11.769s5.279-11.769 11.769-11.769 11.769 5.279 11.769 11.769-5.28 11.769-11.769 11.769z"/><path d="m78.86 310.821c-14.76 0-26.769 12.008-26.769 26.769s12.009 26.769 26.769 26.769 26.769-12.008 26.769-26.769-12.009-26.769-26.769-26.769zm0 38.537c-6.489 0-11.769-5.279-11.769-11.769s5.279-11.769 11.769-11.769 11.769 5.279 11.769 11.769-5.279 11.769-11.769 11.769z"/><path d="m320.322 384.18 8.177 5.234c1.252.801 2.651 1.184 4.036 1.184 2.472 0 4.893-1.221 6.323-3.458 2.233-3.489 1.216-8.127-2.273-10.36l-8.177-5.234c-3.487-2.232-8.128-1.216-10.359 2.273-2.234 3.489-1.216 8.127 2.273 10.361z"/><path d="m333.694 362.663 9.813.262c.068.001.136.002.204.002 4.049 0 7.385-3.227 7.493-7.3.111-4.141-3.156-7.587-7.297-7.698l-9.813-.262c-4.133-.088-7.587 3.156-7.697 7.297-.111 4.141 3.157 7.588 7.297 7.699z"/><path d="m305.381 408.154c1.308 2.646 3.966 4.179 6.729 4.179 1.115 0 2.249-.25 3.317-.778 3.713-1.835 5.235-6.333 3.4-10.046l-4.351-8.803c-1.835-3.713-6.33-5.237-10.047-3.401-3.713 1.835-5.235 6.333-3.4 10.046z"/><path d="m191.678 384.18c3.489-2.233 4.507-6.872 2.273-10.36-2.232-3.488-6.871-4.505-10.359-2.273l-8.177 5.234c-3.489 2.233-4.507 6.872-2.273 10.36 1.432 2.236 3.852 3.458 6.323 3.458 1.384 0 2.784-.383 4.036-1.184z"/><path d="m185.603 354.965c-.11-4.141-3.585-7.39-7.697-7.297l-9.813.262c-4.141.111-7.408 3.557-7.297 7.698.108 4.073 3.443 7.3 7.493 7.3.067 0 .137-.001.204-.002l9.813-.262c4.14-.112 7.408-3.559 7.297-7.699z"/><path d="m196.572 411.555c1.068.528 2.201.778 3.317.778 2.764 0 5.422-1.533 6.729-4.179l4.351-8.803c1.835-3.713.313-8.211-3.4-10.046-3.715-1.836-8.211-.313-10.047 3.401l-4.351 8.803c-1.834 3.713-.312 8.211 3.401 10.046z"/><path d="m439.071 375.985c-.012 0-.023 0-.036 0-4.125 0-7.479 3.334-7.499 7.465-.02 4.142 3.322 7.516 7.465 7.535h.104.036c4.125 0 7.479-3.334 7.499-7.465.02-4.142-3.322-7.516-7.465-7.535z"/><path d="m418.963 393.53c-4.149-.041-7.516 3.322-7.535 7.465-.02 4.142 3.323 7.516 7.465 7.535h.104.036c4.125 0 7.479-3.335 7.499-7.465.02-4.142-3.323-7.516-7.465-7.535z"/><path d="m72.965 375.985c-.012 0-.024 0-.036 0h-.104c-4.143.02-7.484 3.393-7.465 7.535.02 4.13 3.373 7.465 7.499 7.465h.036.104c4.143-.02 7.484-3.393 7.465-7.535-.02-4.131-3.373-7.465-7.499-7.465z"/><path d="m93.037 393.53h-.104c-4.142.02-7.484 3.393-7.465 7.535.02 4.13 3.373 7.465 7.499 7.465h.036.104c4.142-.02 7.484-3.393 7.465-7.535-.02-4.13-3.373-7.465-7.499-7.465-.011 0-.024 0-.036 0z"/></g></g></svg>