<svg id="Capa_1" enable-background="new 0 0 512 512" height="512" viewBox="0 0 512 512" width="512" xmlns="http://www.w3.org/2000/svg"><g><path d="m392 46c-48.947 0-94.081 29.965-112.174 77.342-7.706-1.533-15.672-2.342-23.826-2.342-7.835 0-15.496.751-22.92 2.169-18.123-46.831-63.709-77.169-113.08-77.169-66.168 0-120 53.832-120 120 0 49.626 40.374 90 90 90h15v-30c-8.27 0-15-6.729-15-15v-45c0-16.542 13.458-30 30-30s30 13.458 30 30v17.184c-9.553 17.159-15 36.867-15 57.816 0 44.031 14.633 74.265 27.542 100.941 8.534 17.633 15.924 32.903 18.466 50.174.596 40.845 34.008 73.885 74.992 73.885s74.396-33.04 74.992-73.885c2.542-17.271 9.932-32.542 18.466-50.174 12.909-26.676 27.542-56.91 27.542-100.941 0-20.949-5.447-40.657-15-57.816v-17.184c0-16.542 13.458-30 30-30s30 13.458 30 30v45c0 8.271-6.729 15-15 15v30h15c49.626 0 90-40.374 90-90 0-66.168-53.832-120-120-120zm-272 60c-33.084 0-60 26.916-60 60v45c0 2.479.202 4.914.589 7.285-18.245-10.303-30.589-29.879-30.589-52.285 0-49.626 40.374-90 90-90 37.208 0 70.859 23.097 84.479 56.438-9.699 4.545-18.694 10.332-26.778 17.153-7.158-25.13-30.306-43.591-57.701-43.591zm226.29 150h-29.29v30l23.352-.01c-4.728 15.647-11.371 29.396-17.897 42.882-7.194 14.864-14.575 30.138-18.8 47.128h-32.655v29.99h27.42c-6.192 17.458-22.865 30.01-42.42 30.01s-36.228-12.542-42.42-30h27.42v-30h-32.654c-4.225-16.99-11.606-32.264-18.8-47.128-6.527-13.486-13.169-27.225-17.897-42.872h23.351v-30h-29.29c-.456-4.798-.71-9.783-.71-15 0-49.626 40.822-90 91-90s91 40.374 91 90c0 5.217-.254 10.202-.71 15zm105.121-37.715c.387-2.372.589-4.806.589-7.285v-45c0-33.084-26.916-60-60-60-27.395 0-50.543 18.461-57.7 43.591-7.865-6.636-16.589-12.299-25.989-16.787 13.389-33.984 46.211-56.804 83.689-56.804 49.626 0 90 40.374 90 90 0 22.406-12.344 41.982-30.589 52.285z"/></g></svg>