<svg xmlns="http://www.w3.org/2000/svg" width="128" height="128" viewBox="0 0 128 128">
  <title>AIR</title>
  <g>
    <path d="M24.788,54.035H72.245c.025,0,.048-.007.073-.008s.049.008.074.008A15.074,15.074,0,1,0,57.319,38.961a3.5,3.5,0,0,0,7,0,8.073,8.073,0,1,1,8.073,8.074c-.025,0-.049.007-.074.007s-.048-.007-.073-.007H24.788a3.5,3.5,0,1,0,0,7Z" fill="#00b7c2"/>
    <path d="M87.915,63.746H24.788a3.5,3.5,0,0,0,0,7H87.915a8.073,8.073,0,1,1-8.073,8.073,3.5,3.5,0,0,0-7,0A15.073,15.073,0,1,0,87.915,63.746Z" fill="#00b7c2"/>
    <path d="M55.43,79.825a3.419,3.419,0,0,0-.38-.038H24.788a3.5,3.5,0,1,0,0,7H54.675a4.034,4.034,0,0,1,0,8.067,3.5,3.5,0,0,0,0,7,11.027,11.027,0,0,0,.755-22.029Z" fill="#00b7c2"/>
  </g>
</svg>
