<svg xmlns="http://www.w3.org/2000/svg" width="128" height="128" viewBox="0 0 128 128">
  <title>ANKH</title>
  <path d="M81.3,62.846H72.564c4.923-3.59,8.165-10.232,8.165-18C80.729,33.159,73.381,24,64,24S47.271,33.159,47.271,44.85c0,7.764,3.242,14.406,8.165,18H46.7a5.332,5.332,0,1,0,0,10.664H58.668V98.668a5.332,5.332,0,1,0,10.664,0V73.51H81.3a5.332,5.332,0,1,0,0-10.664ZM64,34.664c2.868,0,6.065,4.183,6.065,10.186S66.868,55.036,64,55.036s-6.065-4.355-6.065-10.186S61.137,34.664,64,34.664Z" fill="#00b7c2"/>
</svg>
