<svg xmlns="http://www.w3.org/2000/svg" width="128" height="128" viewBox="0 0 128 128">
  <title>AQUARIUS</title>
  <g>
    <path d="M98.341,59.711a5.47,5.47,0,0,1-3.429-1.2L86.9,52.1l-8.014,6.411a5.493,5.493,0,0,1-6.862,0L64.008,52.1l-8.014,6.411a5.494,5.494,0,0,1-6.862,0L41.109,52.1l-8.024,6.414a5.493,5.493,0,1,1-6.86-8.582l11.454-9.156a5.493,5.493,0,0,1,6.86,0l8.022,6.413,8.015-6.412a5.494,5.494,0,0,1,6.863,0l8.018,6.411,8.014-6.411a5.493,5.493,0,0,1,6.864,0l11.442,9.156a5.493,5.493,0,0,1-3.436,9.782Z" fill="#00b7c2"/>
    <path d="M98.341,88.431a5.47,5.47,0,0,1-3.429-1.2l-8.01-6.41-8.014,6.411a5.493,5.493,0,0,1-6.862,0l-8.018-6.412-8.014,6.412a5.494,5.494,0,0,1-6.862,0l-8.023-6.414-8.024,6.414a5.493,5.493,0,0,1-6.86-8.582l11.454-9.156a5.493,5.493,0,0,1,6.86,0L52.561,75.9l8.015-6.411a5.493,5.493,0,0,1,6.863,0L75.457,75.9l8.014-6.411a5.494,5.494,0,0,1,6.864,0l11.442,9.156a5.494,5.494,0,0,1-3.436,9.783Z" fill="#00b7c2"/>
  </g>
</svg>
