<svg xmlns="http://www.w3.org/2000/svg" width="128" height="128" viewBox="0 0 128 128">
  <title>ASTROLOGY</title>
  <g>
    <path d="M105.35,64,100,84.77,76.7,71.3a14.446,14.446,0,0,0,1.97-7.32Z" fill="#ffd571"/>
    <path d="M84.66,99.77,64,105.35V78.65a14.563,14.563,0,0,0,7.33-1.98Z" fill="#ffd571"/>
    <path d="M56.67,76.67,43.31,99.81,28.62,85.43,51.33,71.35A14.349,14.349,0,0,0,56.67,76.67Z" fill="#ffd571"/>
    <path d="M51.32,56.65a14.563,14.563,0,0,0-1.98,7.33L22.66,64,28.2,43.3Z" fill="#ffd571"/>
    <path d="M105.35,64l-26.68-.02a14.563,14.563,0,0,0-1.98-7.33l3.02-1.75,20.1-11.6Z" fill="#ffc248"/>
    <path d="M100,84.77l-15.34,15L71.33,76.67A14.343,14.343,0,0,0,76.7,71.3Z" fill="#ffc248"/>
    <path d="M64,78.65v26.7L43.31,99.81,56.67,76.67A14.563,14.563,0,0,0,64,78.65Z" fill="#ffc248"/>
    <path d="M51.33,71.35,28.62,85.43,22.65,64l26.68-.02A14.446,14.446,0,0,0,51.3,71.3C51.31,71.32,51.32,71.33,51.33,71.35Z" fill="#ffc248"/>
    <path d="M56.68,51.28a14.343,14.343,0,0,0-5.37,5.37L28.19,43.3,43.34,28.18Z" fill="#ffc248"/>
    <path d="M84.66,28.18,71.32,51.28A14.446,14.446,0,0,0,64,49.31V22.65Z" fill="#ffc248"/>
    <path d="M99.91,43.3,76.79,56.65l-.26-.26a14.136,14.136,0,0,0-4.95-4.95l-.26-.16,13.34-23.1Z" fill="#ffd571"/>
    <path d="M64,22.65V49.31a14.446,14.446,0,0,0-7.32,1.97L43.34,28.18Z" fill="#ffd571"/>
    <path d="M64,94.285A30.285,30.285,0,1,1,94.285,64,30.32,30.32,0,0,1,64,94.285Zm0-57.07A26.784,26.784,0,1,0,77.382,40.8h0A26.722,26.722,0,0,0,64,37.215Z" fill="#fff1d4"/>
    <path d="M64,80.4a16.356,16.356,0,0,1-8.21-2.217,16.1,16.1,0,0,1-5.966-5.942c-.012-.018-.022-.037-.034-.056h0A16.321,16.321,0,0,1,49.8,55.771a16.37,16.37,0,0,1,22.408-6,3.555,3.555,0,0,1,.332.2A15.934,15.934,0,0,1,78,55.438c.076.111.146.229.214.351a16.323,16.323,0,0,1,0,16.4,16.084,16.084,0,0,1-6.017,6.007A16.33,16.33,0,0,1,64,80.4ZM52.846,70.476a12.6,12.6,0,0,0,4.687,4.671,13,13,0,0,0,12.917.01,12.615,12.615,0,0,0,4.731-4.725,12.825,12.825,0,0,0,0-12.9l-.07-.121a1.2,1.2,0,0,1-.083-.127,12.434,12.434,0,0,0-4.338-4.337,1.713,1.713,0,0,1-.163-.109c-.011-.007-.077-.039-.088-.046a13.046,13.046,0,0,0-12.872,0,12.623,12.623,0,0,0-4.732,4.724A12.867,12.867,0,0,0,51.08,63.98a12.729,12.729,0,0,0,1.729,6.433l.037.063Z" fill="#fff1d4"/>
  </g>
</svg>
