<svg xmlns="http://www.w3.org/2000/svg" width="128" height="128" viewBox="0 0 128 128">
  <title>BOOK</title>
  <g>
    <path d="M88.982,26.5V86.427H36.7a7.536,7.536,0,0,0-7.537,7.537V34.036A7.536,7.536,0,0,1,36.7,26.5Z" fill="#002854"/>
    <path d="M36.7,86.427a7.537,7.537,0,1,0,0,15.073H88.982V86.427Z" fill="#fff1d4"/>
    <path d="M77.474,69.084V43.01a7.615,7.615,0,0,1-7.615-7.616H51.231a7.615,7.615,0,0,1-7.615,7.616V69.084A7.615,7.615,0,0,1,51.231,76.7H69.859A7.615,7.615,0,0,1,77.474,69.084Z" fill="#ffc248"/>
    <polygon points="100.451 35.394 97.634 42.764 100.451 50.134 88.982 50.134 88.982 35.394 100.451 35.394" fill="#ffc248"/>
  </g>
</svg>
