<svg xmlns="http://www.w3.org/2000/svg" width="128" height="128" viewBox="0 0 128 128">
  <title>CANCER</title>
  <g>
    <path d="M64,23a40.793,40.793,0,0,0-22.979,7.041,5,5,0,1,0,5.611,8.277,30.99,30.99,0,0,1,43,8.265A17.562,17.562,0,1,0,105,64,41.047,41.047,0,0,0,64,23ZM87.43,71.57A7.57,7.57,0,1,1,95,64,7.58,7.58,0,0,1,87.43,71.57Z" fill="#00b7c2"/>
    <path d="M81.365,89.685A30.992,30.992,0,0,1,38.37,81.417,17.562,17.562,0,1,0,23,64,41,41,0,0,0,86.975,97.962a5,5,0,1,0-5.61-8.277ZM40.57,56.43A7.57,7.57,0,1,1,33,64,7.58,7.58,0,0,1,40.57,56.43Z" fill="#00b7c2"/>
  </g>
</svg>
