<svg xmlns="http://www.w3.org/2000/svg" width="128" height="128" viewBox="0 0 128 128">
  <title>CAPRICORN</title>
  <path d="M103.527,87.176a18.178,18.178,0,0,0-25.24-16.75V44.035A19.738,19.738,0,0,0,44.278,30.376a19.688,19.688,0,0,0-14.247-6.1,5.558,5.558,0,1,0,0,11.116,8.656,8.656,0,0,1,8.646,8.646V81.176a5.558,5.558,0,0,0,5.558,5.558l.043,0,.044,0a5.558,5.558,0,0,0,5.558-5.558V44.035a8.646,8.646,0,1,1,17.291,0V87.176a5.63,5.63,0,0,0,.029.569,18.048,18.048,0,0,0,1.4,6.492H58.526a5.559,5.559,0,1,0,0,11.117H85.349a5.63,5.63,0,0,0,.569-.029A18.186,18.186,0,0,0,103.527,87.176ZM85.349,94.237a7.062,7.062,0,1,1,7.062-7.061A7.07,7.07,0,0,1,85.349,94.237Z" fill="#00b7c2"/>
</svg>
