<svg xmlns="http://www.w3.org/2000/svg" width="128" height="128" viewBox="0 0 128 128">
  <title>COMET</title>
  <g>
    <circle cx="49.746" cy="77.318" r="19.38" fill="#ffc248"/>
    <g>
      <path d="M59.723,50.1a1.745,1.745,0,0,0,1.237-.513L74.107,36.439a1.75,1.75,0,1,0-2.474-2.475L58.485,47.112A1.75,1.75,0,0,0,59.723,50.1Z" fill="#00b7c2"/>
      <path d="M80.286,82.286,67.5,95.072A25.108,25.108,0,0,1,31.992,59.563L56,35.554a1.75,1.75,0,0,0-2.474-2.475l-24.01,24.01A28.608,28.608,0,0,0,69.975,97.547L82.761,84.761a1.75,1.75,0,0,0-2.475-2.475Z" fill="#00b7c2"/>
      <path d="M60.875,30.063a1.741,1.741,0,0,0,1.237-.513l4.75-4.75a1.75,1.75,0,0,0-2.474-2.475l-4.75,4.75a1.751,1.751,0,0,0,1.237,2.988Z" fill="#00b7c2"/>
      <path d="M77.42,32.4a1.746,1.746,0,0,0,1.237-.512l1.783-1.784a1.749,1.749,0,1,0-2.474-2.474l-1.783,1.783A1.75,1.75,0,0,0,77.42,32.4Z" fill="#00b7c2"/>
      <path d="M66.676,60.388a1.75,1.75,0,0,0,2.474,0l26.705-26.7a1.75,1.75,0,0,0-2.474-2.475l-26.7,26.705A1.749,1.749,0,0,0,66.676,60.388Z" fill="#00b7c2"/>
      <path d="M100.58,28.234a1.741,1.741,0,0,0,1.237-.513l3.553-3.553a1.75,1.75,0,1,0-2.474-2.475l-3.553,3.554a1.75,1.75,0,0,0,1.237,2.987Z" fill="#00b7c2"/>
      <path d="M99.81,62.763,91.8,70.776a1.75,1.75,0,1,0,2.475,2.475l8.013-8.014a1.749,1.749,0,0,0-2.474-2.474Z" fill="#00b7c2"/>
      <path d="M109.015,37.041a1.749,1.749,0,0,0-2.475,0L88.6,54.978a1.75,1.75,0,0,0,2.474,2.475l17.938-17.938A1.75,1.75,0,0,0,109.015,37.041Z" fill="#00b7c2"/>
      <path d="M81.947,61.633l-3.322,3.322A1.75,1.75,0,0,0,81.1,67.43l3.322-3.321a1.75,1.75,0,0,0-2.475-2.476Z" fill="#00b7c2"/>
    </g>
    <g>
      <path d="M56.475,84.487a1.75,1.75,0,0,0-1.75,1.75,2.519,2.519,0,1,1-2.519-2.519,1.75,1.75,0,0,0,0-3.5,6.019,6.019,0,1,0,6.019,6.019A1.751,1.751,0,0,0,56.475,84.487Z" fill="#fff1d4"/>
      <path d="M55.036,64.282a1.75,1.75,0,0,0,0,3.5,1.464,1.464,0,1,1-1.463,1.464,1.75,1.75,0,0,0-3.5,0,4.964,4.964,0,1,0,4.963-4.964Z" fill="#fff1d4"/>
      <path d="M37.942,72.433a1.75,1.75,0,1,0,.541,3.458,1.464,1.464,0,0,1,.453,2.892,1.751,1.751,0,0,0,.268,3.48,1.815,1.815,0,0,0,.273-.022,4.964,4.964,0,0,0-1.535-9.808Z" fill="#fff1d4"/>
    </g>
  </g>
</svg>
