<svg xmlns="http://www.w3.org/2000/svg" width="128" height="128" viewBox="0 0 128 128">
  <title>CRYSTAL BALL</title>
  <g>
    <path d="M38.994,93.5H91.006a5.86,5.86,0,0,1,5.86,5.86v5.994a0,0,0,0,1,0,0H33.134a0,0,0,0,1,0,0V99.36A5.86,5.86,0,0,1,38.994,93.5Z" fill="#009eaa"/>
    <path d="M43.62,83.968H86.38A2.736,2.736,0,0,1,89.116,86.7v6.8a0,0,0,0,1,0,0H40.884a0,0,0,0,1,0,0V86.7A2.736,2.736,0,0,1,43.62,83.968Z" fill="#00b7c2"/>
    <path d="M46.528,83.968H83.472a33.444,33.444,0,1,0-36.944,0Z" fill="#ffc248"/>
    <path d="M41.89,56.98a1.751,1.751,0,0,1-1.75-1.75A24.888,24.888,0,0,1,65,30.37a1.75,1.75,0,1,1,0,3.5A21.384,21.384,0,0,0,43.64,55.23,1.751,1.751,0,0,1,41.89,56.98Z" fill="#fff1d4"/>
  </g>
</svg>
