<svg xmlns="http://www.w3.org/2000/svg" width="128" height="128" viewBox="0 0 128 128">
  <title>DIAMOND</title>
  <g>
    <polygon points="36.431 31.647 22.646 49.288 50.215 49.288 36.431 31.647" fill="#ffde73"/>
    <polygon points="50.215 49.288 36.431 31.647 64 31.647 50.215 49.288" fill="#ffc248"/>
    <polygon points="64 31.647 50.215 49.288 77.785 49.288 64 31.647" fill="#ffde73"/>
    <polygon points="77.785 49.288 64 31.647 91.569 31.647 77.785 49.288" fill="#ffc248"/>
    <polygon points="91.569 31.647 77.785 49.288 105.354 49.288 91.569 31.647" fill="#ffde73"/>
    <polygon points="63.999 102.001 105.353 49.287 22.645 49.287 63.999 102.001" fill="#ffd571"/>
    <polygon points="50.215 49.288 63.999 102.001 22.645 49.287 50.215 49.288" fill="#ffc248"/>
    <polygon points="77.785 49.288 63.999 102.001 105.353 49.287 77.785 49.288" fill="#ffc248"/>
  </g>
</svg>
