<svg xmlns="http://www.w3.org/2000/svg" width="128" height="128" viewBox="0 0 128 128">
  <title>DOG</title>
  <g>
    <path d="M88.511,48.71V68.92a24.5,24.5,0,0,1-10.03,19.75,23.336,23.336,0,0,1-2.59,1.67c-.54.29-1.08.57-1.64.83a24.277,24.277,0,0,1-20.5,0c-.56-.26-1.1-.54-1.64-.83a23.336,23.336,0,0,1-2.59-1.67,24.5,24.5,0,0,1-10.03-19.75V48.71a24.486,24.486,0,0,1,37.46-20.79,25.406,25.406,0,0,1,4.37,3.48A24.432,24.432,0,0,1,88.511,48.71Z" fill="#ffd571"/>
    <path d="M64,95.191a1.749,1.749,0,0,1-1.75-1.75V79.713a1.75,1.75,0,1,1,3.5,0V93.441A1.749,1.749,0,0,1,64,95.191Z" fill="#002854"/>
    <path d="M51.053,27.918a24.554,24.554,0,0,0-11.565,20.79V63.779a13.12,13.12,0,0,1-6.763-.715A13.367,13.367,0,0,1,25.03,45.848l4.835-12.631a13.363,13.363,0,0,1,17.216-7.694A12.914,12.914,0,0,1,51.053,27.918Z" fill="#ffc248"/>
    <path d="M103.846,50.581a13.382,13.382,0,0,1-8.568,12.483,13.124,13.124,0,0,1-6.764.715V48.708A24.428,24.428,0,0,0,81.319,31.4a24.884,24.884,0,0,0-4.369-3.484,12.9,12.9,0,0,1,3.972-2.395,13.363,13.363,0,0,1,17.216,7.694l4.834,12.631A13.3,13.3,0,0,1,103.846,50.581Z" fill="#ffc248"/>
    <g>
      <circle cx="51.967" cy="50.357" r="3.575" fill="#002854"/>
      <circle cx="76.035" cy="50.357" r="3.575" fill="#002854"/>
    </g>
    <path d="M78.5,89.3a14.5,14.5,0,1,1-29,0c0-.21,0-.42.02-.63a23.336,23.336,0,0,0,2.59,1.67c.54.29,1.08.57,1.64.83a24.277,24.277,0,0,0,20.5,0c.56-.26,1.1-.54,1.64-.83a23.336,23.336,0,0,0,2.59-1.67C78.5,88.88,78.5,89.09,78.5,89.3Z" fill="#00b7c2"/>
    <ellipse cx="64.001" cy="73.897" rx="7.944" ry="5.816" fill="#002854"/>
  </g>
</svg>
