<svg xmlns="http://www.w3.org/2000/svg" width="128" height="128" viewBox="0 0 128 128">
  <title>DRAGON</title>
  <g>
    <g>
      <path d="M82.23,38.64a9.682,9.682,0,0,0-6.27-2.3H71.55A19.008,19.008,0,0,0,80.53,18.8l.21-.04C85.32,23.8,85,32.05,82.23,38.64Z" fill="#ffc248"/>
      <path d="M56.45,36.34H52.04a9.682,9.682,0,0,0-6.27,2.3C43,32.05,42.68,23.8,47.26,18.76l.21.04A19.008,19.008,0,0,0,56.45,36.34Z" fill="#ffc248"/>
    </g>
    <path d="M90.33,103.85H37.67a44.846,44.846,0,0,1,1.07-9.82c.12-.53.25-1.05.38-1.57.26-.97.54-1.93.86-2.86a37.7,37.7,0,0,1,1.73-4.27,34.109,34.109,0,0,1,2.94-5.04v-.01a29.747,29.747,0,0,1,4.14-4.81,5.95,5.95,0,0,1,.95,3.22v.11A14.523,14.523,0,0,0,63.31,93.44,14.263,14.263,0,0,0,78.26,79.2v-.51a5.95,5.95,0,0,1,.95-3.22,29.747,29.747,0,0,1,4.14,4.81v.01a34.109,34.109,0,0,1,2.94,5.04,37.7,37.7,0,0,1,1.73,4.27c.32.93.6,1.89.86,2.86.13.52.26,1.04.38,1.57A44.846,44.846,0,0,1,90.33,103.85Z" fill="#009eaa"/>
    <path d="M85.67,58.75H97.25L85.32,66.14a14.294,14.294,0,0,1-4.74,7.77,6.256,6.256,0,0,0-2.32,4.78v.51A14.263,14.263,0,0,1,63.31,93.44,14.523,14.523,0,0,1,49.74,78.8v-.11a6.256,6.256,0,0,0-2.32-4.78,14.294,14.294,0,0,1-4.74-7.77L30.75,58.75H42.33V51.13L29.75,43.34H42.72a9.712,9.712,0,0,1,9.32-7H75.96a9.712,9.712,0,0,1,9.32,7H98.25L85.67,51.13Z" fill="#00b7c2"/>
    <circle cx="53.58" cy="53.941" r="2.833" fill="#002854"/>
    <circle cx="75.527" cy="53.941" r="2.833" fill="#002854"/>
    <path d="M102.5,104.66c-3.6-6.71-8.88-11.3-13.62-12.2-.26-.97-.54-1.93-.86-2.86a37.7,37.7,0,0,0-1.73-4.27,34.109,34.109,0,0,0-2.94-5.04v-.01c1.93-3.45,7.71-12.77,7.71-12.77s12.11,15.52,12.62,26.7A32.139,32.139,0,0,1,102.5,104.66Z" fill="#ffd571"/>
    <path d="M44.65,80.28v.01a34.109,34.109,0,0,0-2.94,5.04,37.7,37.7,0,0,0-1.73,4.27c-.32.93-.6,1.89-.86,2.86-4.74.9-10.02,5.49-13.62,12.2a32.139,32.139,0,0,1-1.18-10.45c.51-11.18,12.62-26.7,12.62-26.7S42.72,76.83,44.65,80.28Z" fill="#ffd571"/>
    <path d="M64,56.165a1.75,1.75,0,0,0-1.75,1.75V71.5a1.75,1.75,0,0,0,3.5,0V57.915A1.75,1.75,0,0,0,64,56.165Z" fill="#009eaa"/>
    <path d="M58.391,79.375a1.75,1.75,0,1,0-2.475,2.475L57.97,83.9a1.75,1.75,0,0,0,2.475-2.474Z" fill="#002854"/>
    <path d="M69.61,79.375,67.555,81.43A1.75,1.75,0,1,0,70.03,83.9l2.054-2.054a1.75,1.75,0,1,0-2.474-2.475Z" fill="#002854"/>
    <path d="M48.167,92.583a1.749,1.749,0,0,0-1.75,1.75v9.517h3.5V94.333A1.75,1.75,0,0,0,48.167,92.583Zm31.666,0a1.75,1.75,0,0,0-1.75,1.75v9.517h3.5V94.333A1.749,1.749,0,0,0,79.833,92.583Z" fill="#002854"/>
  </g>
</svg>
