<svg xmlns="http://www.w3.org/2000/svg" width="128" height="128" viewBox="0 0 128 128">
  <title>DREAMCATCHER</title>
  <g>
    <path d="M64,87.42a36.13,36.13,0,1,1,36.129-36.129A36.17,36.17,0,0,1,64,87.42Zm0-61.665A25.536,25.536,0,1,0,89.535,51.291,25.564,25.564,0,0,0,64,25.755Z" fill="#ffd571"/>
    <polygon points="64 38.523 76.768 29.176 75.057 44.907 89.535 51.291 75.057 57.674 76.768 73.405 64 64.058 51.232 73.405 52.943 57.674 38.465 51.291 52.943 44.907 51.232 29.176 64 38.523" fill="#00b7c2"/>
    <circle cx="64" cy="51.291" r="12.836" fill="#ffd571"/>
    <ellipse cx="64" cy="103.318" rx="7.038" ry="15.898" fill="#ffc248"/>
    <path d="M64,101.871l-6.646,6.646c.955,6.223,3.566,10.7,6.646,10.7s5.691-4.476,6.646-10.7Z" fill="#ffd571"/>
    <ellipse cx="100.129" cy="92.724" rx="7.038" ry="15.898" fill="#ffc248"/>
    <path d="M100.129,91.277l-6.645,6.646c.954,6.223,3.565,10.7,6.645,10.7s5.692-4.476,6.646-10.7Z" fill="#ffd571"/>
    <ellipse cx="27.871" cy="92.724" rx="7.038" ry="15.898" fill="#ffc248"/>
    <path d="M27.871,91.277l-6.646,6.646c.954,6.223,3.566,10.7,6.646,10.7s5.691-4.476,6.645-10.7Z" fill="#ffd571"/>
    <path d="M27.871,78.576a1.75,1.75,0,0,1-1.75-1.75V51.291a1.75,1.75,0,0,1,3.5,0V76.826A1.75,1.75,0,0,1,27.871,78.576Z" fill="#002854"/>
    <path d="M64,89.17a1.75,1.75,0,0,1-1.75-1.75V76.826a1.75,1.75,0,0,1,3.5,0V87.42A1.75,1.75,0,0,1,64,89.17Z" fill="#002854"/>
    <path d="M64,27.505a1.749,1.749,0,0,1-1.75-1.75V15.161a1.75,1.75,0,0,1,3.5,0V25.755A1.749,1.749,0,0,1,64,27.505Z" fill="#002854"/>
    <path d="M38.465,53.041H27.871a1.75,1.75,0,1,1,0-3.5H38.465a1.75,1.75,0,0,1,0,3.5Z" fill="#002854"/>
    <path d="M100.129,53.041H89.535a1.75,1.75,0,0,1,0-3.5h10.594a1.75,1.75,0,1,1,0,3.5Z" fill="#002854"/>
    <path d="M100.129,78.576a1.75,1.75,0,0,1-1.75-1.75V51.291a1.75,1.75,0,0,1,3.5,0V76.826A1.75,1.75,0,0,1,100.129,78.576Z" fill="#002854"/>
  </g>
</svg>
