<svg xmlns="http://www.w3.org/2000/svg" width="128" height="128" viewBox="0 0 128 128">
  <title>HAMSA HAND</title>
  <g>
    <path d="M93.925,47.346A10.6,10.6,0,0,0,83.44,56.41V69.249a.125.125,0,0,1-.25,0V53.956a.126.126,0,0,1,.125-.125V37.766a5.3,5.3,0,0,0-10.484-1.125V64.249a.125.125,0,0,1-.25,0V33.766a.124.124,0,0,1,.125-.125v-5.69a5.3,5.3,0,0,0-10.61,0v5.69a.124.124,0,0,1,.125.125V64.249a.125.125,0,0,1-.25,0V36.641a5.3,5.3,0,0,0-10.485,1.125V53.831a.125.125,0,0,1,.125.125V69.249a.125.125,0,0,1-.25,0V56.41a10.6,10.6,0,0,0-10.485-9.064h0V78.829a26.525,26.525,0,1,0,53.049,0V47.346Z" fill="#ffc248"/>
    <ellipse cx="67.401" cy="84.525" rx="12.724" ry="6.064" fill="#fff1d4"/>
    <path d="M67.4,78.461a16.284,16.284,0,0,0-7.384,1.769,7.591,7.591,0,0,0,14.768,0A16.287,16.287,0,0,0,67.4,78.461Z" fill="#002854"/>
  </g>
</svg>
