<svg xmlns="http://www.w3.org/2000/svg" width="128" height="128" viewBox="0 0 128 128">
  <title>HORSE</title>
  <g>
    <path d="M90.2,27.045H86.109A10.911,10.911,0,0,0,75.2,37.956v5.379a9.241,9.241,0,0,1-9.241,9.241H32.751a10.1,10.1,0,0,0-10.1,10.1V74.473h0a10.1,10.1,0,0,0,10.1-10.105h0a5.09,5.09,0,0,1,5.09-5.09h2.22a12.8,12.8,0,0,0-1.566,6.15v35.527H47V82.346c4.169,0,8.23-1.554,8.23-9.346H71.235a6.471,6.471,0,0,1,6.471,6.471v21.484h8.929V75.032L89.248,66.6a21.123,21.123,0,0,0,.947-6.255V53.583h6.342l5.38-14.5.249-6.165,5.188-5.873Z" fill="#00b7c2"/>
    <circle cx="95.125" cy="36.375" r="1.539" fill="#002854"/>
    <path d="M90.2,38.578a1,1,0,0,0-1,1v14a1,1,0,0,0,1,1h0v-1h1v-14A1,1,0,0,0,90.2,38.578Z" fill="#fff"/>
  </g>
</svg>
