<svg xmlns="http://www.w3.org/2000/svg" width="128" height="128" viewBox="0 0 128 128">
  <title>HORS SHOE</title>
  <g>
    <path d="M90.146,103.849H81.633A7.5,7.5,0,0,1,75.346,92.26c4.242-6.524,9.3-16.292,9.3-25.776,0-16.093-8.49-27.333-20.646-27.333S43.354,50.391,43.354,66.484c0,9.484,5.058,19.252,9.3,25.776a7.5,7.5,0,0,1-6.287,11.589H37.854a7.5,7.5,0,0,1-3.706-14.022c-3.235-6.908-5.794-15.006-5.794-23.343,0-24.529,14.991-42.333,35.646-42.333s35.646,17.8,35.646,42.333c0,8.337-2.559,16.435-5.794,23.343a7.5,7.5,0,0,1-3.706,14.022Z" fill="#00b7c2"/>
    <g>
      <path d="M66.375,29.125h-4.75a1.75,1.75,0,0,0,0,3.5h4.75a1.75,1.75,0,0,0,0-3.5Z" fill="#002854"/>
      <path d="M43.59,37.98l-3.036,3.653a1.75,1.75,0,0,0,2.691,2.237l3.037-3.653A1.75,1.75,0,0,0,43.59,37.98Z" fill="#002854"/>
      <path d="M37.3,65.214v-4.75a1.75,1.75,0,0,0-3.5,0v4.75a1.75,1.75,0,0,0,3.5,0Z" fill="#002854"/>
      <path d="M39.648,80.682a1.75,1.75,0,1,0-3.216,1.379L38.3,86.427a1.75,1.75,0,0,0,3.217-1.379Z" fill="#002854"/>
      <path d="M87,41.633,83.962,37.98a1.75,1.75,0,0,0-2.691,2.237l3.036,3.653A1.75,1.75,0,0,0,87,41.633Z" fill="#002854"/>
      <path d="M92,58.714a1.75,1.75,0,0,0-1.75,1.75v4.75a1.75,1.75,0,0,0,3.5,0v-4.75A1.751,1.751,0,0,0,92,58.714Z" fill="#002854"/>
      <path d="M90.2,79.763a1.747,1.747,0,0,0-2.3.919l-1.871,4.366a1.75,1.75,0,1,0,3.217,1.379l1.871-4.366A1.751,1.751,0,0,0,90.2,79.763Z" fill="#002854"/>
    </g>
  </g>
</svg>
