<svg xmlns="http://www.w3.org/2000/svg" width="128" height="128" viewBox="0 0 128 128">
  <title>LOTUS</title>
  <g>
    <path d="M105.354,68.525v2.319A26.32,26.32,0,0,1,79.032,97.166H64V94.847A26.314,26.314,0,0,1,90.322,68.525Z" fill="#ffc248"/>
    <path d="M64,77.172V94.847A26.314,26.314,0,0,0,37.678,68.525H35.359V50.85h2.319A26.329,26.329,0,0,1,64,77.172Z" fill="#ffd571"/>
    <path d="M92.641,50.85V68.525H90.322A26.314,26.314,0,0,0,64,94.847V77.172A26.329,26.329,0,0,1,90.322,50.85Z" fill="#ffd571"/>
    <path d="M64,94.847v2.319H48.968A26.32,26.32,0,0,1,22.646,70.844V68.525H37.678A26.314,26.314,0,0,1,64,94.847Z" fill="#ffc248"/>
    <path d="M48.935,53.381A41.778,41.778,0,0,1,64,30.834,41.778,41.778,0,0,1,79.065,53.381,26.31,26.31,0,0,0,64,77.172,26.31,26.31,0,0,0,48.935,53.381Z" fill="#ffe088"/>
  </g>
</svg>
