<svg xmlns="http://www.w3.org/2000/svg" width="128" height="128" viewBox="0 0 128 128">
  <title>MERCURY</title>
  <path d="M86.555,60.523A21.389,21.389,0,0,0,78.751,44a21.3,21.3,0,0,0,7.977-16.628,4.819,4.819,0,0,0-9.637,0A11.742,11.742,0,0,1,65.417,39.1H65.36c-.091,0-.181,0-.271-.008A11.736,11.736,0,0,1,53.628,27.374a4.818,4.818,0,0,0-9.636,0,21.29,21.29,0,0,0,7.747,16.439A21.408,21.408,0,0,0,60.3,81.4v6.194H53.9a4.819,4.819,0,1,0,0,9.637h6.4v4.453a4.823,4.823,0,0,0,9.645,0V97.229h6.137a4.819,4.819,0,1,0,0-9.637H69.944V81.4A21.457,21.457,0,0,0,86.555,60.523ZM65.122,72.312A11.785,11.785,0,1,1,76.911,60.523,11.8,11.8,0,0,1,65.122,72.312Z" fill="#00b7c2"/>
</svg>
