<svg xmlns="http://www.w3.org/2000/svg" width="128" height="128" viewBox="0 0 128 128">
  <title>MONKEY</title>
  <g>
    <path d="M93.25,55.01a28.737,28.737,0,0,1-1.14,8.08,29.248,29.248,0,0,1-56.22,0,29.2,29.2,0,0,1,0-16.16,27.955,27.955,0,0,1,1.04-3,29.257,29.257,0,0,1,54.14,0,27.955,27.955,0,0,1,1.04,3A28.737,28.737,0,0,1,93.25,55.01Z" fill="#00b7c2"/>
    <path d="M85.625,51.093A11.565,11.565,0,0,0,64,45.383a11.564,11.564,0,1,0-15.128,16.1,15.129,15.129,0,0,0,30.256,0A11.56,11.56,0,0,0,85.625,51.093Z" fill="#ffd571"/>
    <circle cx="55" cy="51.763" r="2.688" fill="#002854"/>
    <circle cx="73" cy="51.763" r="2.688" fill="#002854"/>
    <path d="M64,70.053a8.072,8.072,0,0,1-8.063-8.062,1.75,1.75,0,0,1,3.5,0,4.563,4.563,0,0,0,9.125,0,1.75,1.75,0,0,1,3.5,0A8.071,8.071,0,0,1,64,70.053Z" fill="#002854"/>
    <path d="M103.27,35.983a8.691,8.691,0,0,1-12.2,7.95,29.178,29.178,0,0,0-5.16-8.29,8.683,8.683,0,0,1,17.36.34Z" fill="#009eaa"/>
    <path d="M42.09,35.643a29.178,29.178,0,0,0-5.16,8.29,8.694,8.694,0,1,1,5.16-8.29Z" fill="#009eaa"/>
    <path d="M94.59,104.88H33.41A30.572,30.572,0,0,1,47.47,79.14a29.244,29.244,0,0,0,33.06,0,30.821,30.821,0,0,1,6.34,5.43,30.493,30.493,0,0,1,7.72,20.31Z" fill="#009eaa"/>
    <path d="M105.67,90.77a4.009,4.009,0,0,1-5.66-.18c-2.96-3.15-6.47-1.22-8.64.62a30.333,30.333,0,0,0-4.5-6.64c6.45-5.02,13.88-4.88,18.97.55A3.988,3.988,0,0,1,105.67,90.77Z" fill="#00b7c2"/>
  </g>
</svg>
