<svg xmlns="http://www.w3.org/2000/svg" width="128" height="128" viewBox="0 0 128 128">
  <title>OX</title>
  <g>
    <path d="M47.4,37.63v.04c-4.485.42-7.99,3.9-7.99,8.14v3.36c-8.121-2.93-13.88-10.2-13.88-18.7V20.4h.251C27.293,30.13,36.383,37.63,47.4,37.63Z" fill="#ffc248"/>
    <path d="M102.471,20.4V30.47c0,8.5-5.759,15.77-13.88,18.7V45.81c0-4.24-3.5-7.72-7.99-8.14v-.04c11.016,0,20.106-7.5,21.619-17.23Z" fill="#ffc248"/>
    <path d="M88.591,45.81V72.27A21.817,21.817,0,0,1,80.3,89.19V88.03c0-3.74-3.331-6.8-7.391-6.8H55.1c-4.06,0-7.391,3.06-7.391,6.8v1.16a21.817,21.817,0,0,1-8.3-16.92V45.81c0-4.24,3.505-7.72,7.99-8.14.3-.03.61-.04.914-.04H79.687c.3,0,.609.01.914.04C85.086,38.09,88.591,41.57,88.591,45.81Z" fill="#00b7c2"/>
    <path d="M80.3,88.03v6.1c0,3.74-3.331,6.8-7.391,6.8H55.1c-4.06,0-7.391-3.06-7.391-6.8v-6.1c0-3.74,3.331-6.8,7.391-6.8h17.81C76.965,81.23,80.3,84.29,80.3,88.03Z" fill="#ffd571"/>
    <path d="M28.817,70.541H25.333V58.9c0-5.374,4.742-9.73,10.592-9.73h3.484V60.811C39.409,66.185,34.667,70.541,28.817,70.541Z" fill="#009eaa"/>
    <path d="M99.183,70.541h3.484V58.9c0-5.374-4.742-9.73-10.592-9.73H88.591V60.811C88.591,66.185,93.333,70.541,99.183,70.541Z" fill="#009eaa"/>
    <path d="M64,106.667c5.411,0,9.8-2.6,9.8-5.813H54.2C54.2,104.064,58.589,106.667,64,106.667Z" fill="#ffc248"/>
    <path d="M56.634,95.568a1.75,1.75,0,0,1-1.75-1.75V88.342a1.75,1.75,0,0,1,3.5,0v5.476A1.749,1.749,0,0,1,56.634,95.568Z" fill="#002854"/>
    <path d="M71.366,95.568a1.749,1.749,0,0,1-1.75-1.75V88.342a1.75,1.75,0,0,1,3.5,0v5.476A1.75,1.75,0,0,1,71.366,95.568Z" fill="#002854"/>
    <circle cx="53.027" cy="58.667" r="2.833" fill="#002854"/>
    <circle cx="74.973" cy="58.667" r="2.833" fill="#002854"/>
  </g>
</svg>
