<?xml version="1.0" encoding="utf-8"?>
<!-- Generator: Adobe Illustrator 23.0.6, SVG Export Plug-In . SVG Version: 6.00 Build 0)  -->
<svg version="1.1" id="Layer_1" xmlns="http://www.w3.org/2000/svg" xmlns:xlink="http://www.w3.org/1999/xlink" x="0px" y="0px"
	 viewBox="0 0 128 128" style="enable-background:new 0 0 128 128;" xml:space="preserve">
<style type="text/css">
	.st0{fill:#FFC248;}
</style>
<title>PENTAGRAM</title>
<path class="st0" d="M109.2,52c0,0-42-30.5-43.6-31.7c-0.9-0.6-2.1-0.8-3.2,0c-2.8,2-42.5,30.9-43.6,31.7c-0.2,0.2-1.6,1.1-1,3.1
	l16.7,51.3c0.3,1,1.3,1.9,2.6,1.9H91c1.2,0,2.3-0.8,2.6-1.9l16.6-51.3C110.6,53.7,110.1,52.8,109.2,52z M90.9,96.6l-7.1-21.8
	l18.5-13.5L90.9,96.6z M25.6,61.4l18.5,13.5l-7.1,21.8L25.6,61.4z M48.8,78.2l10.6,7.7L42.2,98.3L48.8,78.2z M45.9,69.4L28.8,56.9
	h21.1L45.9,69.4z M50.6,72.7l5.1-15.8h16.6l5.1,15.8L64,82.5L50.6,72.7z M57.5,51.5L64,31.4l6.5,20.1L57.5,51.5z M79.2,78.2
	l6.5,20.1L68.6,85.9L79.2,78.2z M78.1,56.9h21.1L82.1,69.4L78.1,56.9z M76.3,51.5l-7.1-21.8l30,21.8L76.3,51.5z M51.7,51.5H28.8
	l30-21.8L51.7,51.5z M64,89.3l18.5,13.5H45.5L64,89.3z"/>
</svg>
