<svg xmlns="http://www.w3.org/2000/svg" width="128" height="128" viewBox="0 0 128 128">
  <title>PIG</title>
  <g>
    <path d="M98.66,76.94c0,13.07-15.86,23.67-35.42,23.67S27.82,90.01,27.82,76.94c0-6.04,3.39-11.55,8.95-15.73a24.929,24.929,0,0,1-.21-3.13,23.082,23.082,0,0,1,.77-5.96,24.127,24.127,0,0,1,5.24-9.84,27.82,27.82,0,0,1,41.34,0,24.127,24.127,0,0,1,5.24,9.84,23.082,23.082,0,0,1,.77,5.96,24.929,24.929,0,0,1-.21,3.13C95.27,65.39,98.66,70.9,98.66,76.94Z" fill="#00b7c2"/>
    <g>
      <path d="M42.57,41.28v1a24.127,24.127,0,0,0-5.24,9.84H34.68a12.791,12.791,0,0,1-12.79-12.8V28.49h7.89A12.788,12.788,0,0,1,42.57,41.28Z" fill="#009eaa"/>
      <path d="M104.59,28.49V39.32A12.791,12.791,0,0,1,91.8,52.12H89.15a24.127,24.127,0,0,0-5.24-9.84v-1A12.788,12.788,0,0,1,96.7,28.49Z" fill="#009eaa"/>
    </g>
    <g>
      <path d="M97.325,32.606A8.411,8.411,0,0,0,88.866,40.3a1.75,1.75,0,1,0,3.5,0,4.96,4.96,0,0,1,4.893-4.191h.053a1.75,1.75,0,0,0,.013-3.5Z" fill="#fff1d4"/>
      <path d="M29.221,32.606h-.067a1.75,1.75,0,0,0,.013,3.5h.013a4.775,4.775,0,0,1,3.494,1.406,4.715,4.715,0,0,1,1.44,2.785,1.75,1.75,0,0,0,3.5,0,8.028,8.028,0,0,0-2.474-5.269A8.223,8.223,0,0,0,29.221,32.606Z" fill="#fff1d4"/>
    </g>
    <ellipse cx="63.24" cy="80" rx="19.135" ry="13.688" fill="#fff1d4"/>
    <g>
      <circle cx="52.636" cy="57.233" r="3.15" fill="#002854"/>
      <circle cx="73.844" cy="57.233" r="3.15" fill="#002854"/>
    </g>
    <g>
      <path d="M55.355,84.274a1.75,1.75,0,0,1-1.75-1.75V77.088a1.75,1.75,0,0,1,3.5,0v5.436A1.749,1.749,0,0,1,55.355,84.274Z" fill="#002854"/>
      <path d="M71.082,84.274a1.749,1.749,0,0,1-1.75-1.75V77.088a1.75,1.75,0,0,1,3.5,0v5.436A1.749,1.749,0,0,1,71.082,84.274Z" fill="#002854"/>
    </g>
  </g>
</svg>
