<svg xmlns="http://www.w3.org/2000/svg" width="128" height="128" viewBox="0 0 128 128">
  <title>PISCES</title>
  <path d="M98.455,89.773A15.932,15.932,0,0,1,82.542,73.859v-5.5H97.52a5.61,5.61,0,1,0,0-11.219H82.542V54.124A15.931,15.931,0,0,1,98.455,38.211a5.61,5.61,0,1,0,0-11.219A27.163,27.163,0,0,0,71.323,54.124v3.012H56.677V54.124A27.163,27.163,0,0,0,29.545,26.992a5.61,5.61,0,1,0,0,11.219A15.931,15.931,0,0,1,45.458,54.124v3.012H30.48a5.61,5.61,0,1,0,0,11.219H45.458v5.5A15.932,15.932,0,0,1,29.545,89.773a5.61,5.61,0,1,0,0,11.219A27.164,27.164,0,0,0,56.677,73.859v-5.5H71.323v5.5a27.164,27.164,0,0,0,27.132,27.133,5.61,5.61,0,1,0,0-11.219Z" fill="#00b7c2"/>
</svg>
