<svg xmlns="http://www.w3.org/2000/svg" width="128" height="128" viewBox="0 0 128 128">
  <title>PLUTO</title>
  <g>
    <path d="M64,57.692a15.75,15.75,0,1,0-15.75-15.75A15.768,15.768,0,0,0,64,57.692Zm0-21.513a5.764,5.764,0,1,1-5.763,5.763A5.771,5.771,0,0,1,64,36.179Z" fill="#00b7c2"/>
    <path d="M97.667,41.942a5.408,5.408,0,1,0-10.816,0,22.851,22.851,0,1,1-45.7,0,5.408,5.408,0,1,0-10.816,0A33.718,33.718,0,0,0,58.592,75.169v6.9H48.444a5.408,5.408,0,0,0,0,10.816H58.592v8.358a5.408,5.408,0,0,0,10.816,0V92.886H79.556a5.408,5.408,0,0,0,0-10.816H69.408v-6.9A33.718,33.718,0,0,0,97.667,41.942Z" fill="#00b7c2"/>
  </g>
</svg>
