<svg xmlns="http://www.w3.org/2000/svg" width="128" height="128" viewBox="0 0 128 128">
  <title>RABBIT</title>
  <g>
    <path d="M82.429,75.573a18.259,18.259,0,0,0,.154-2.29,16.876,16.876,0,0,0-.563-4.358,17.575,17.575,0,0,0-3.248-6.49c3.239-2.952,6.756-8.4,9.422-15.1,4.43-11.121,4.827-21.408.888-22.977S78.358,30.535,73.928,41.655A48.322,48.322,0,0,0,70.372,56.33a20.707,20.707,0,0,0-14.6,0,48.318,48.318,0,0,0-3.555-14.675C47.784,30.535,41,22.792,37.06,24.361s-3.542,11.856.887,22.977c2.666,6.694,6.184,12.145,9.422,15.1a17.573,17.573,0,0,0-3.247,6.49,16.876,16.876,0,0,0-.563,4.358,18.259,18.259,0,0,0,.153,2.29c-4.066,3.057-6.545,7.086-6.545,11.5,0,9.559,11.6,17.311,25.9,17.311s25.9-7.752,25.9-17.311C88.975,82.659,86.5,78.63,82.429,75.573Z" fill="#00b7c2"/>
    <g>
      <circle cx="54.527" cy="74.418" r="2.092" fill="#002854"/>
      <circle cx="71.615" cy="74.418" r="2.092" fill="#002854"/>
    </g>
    <path d="M71.589,91.461a1.75,1.75,0,0,0-1.75,1.75,2.509,2.509,0,0,1-5.018,0V88.124l3.208-1.283a1.75,1.75,0,1,0-1.3-3.25l-3.658,1.464-3.658-1.464a1.75,1.75,0,1,0-1.3,3.25l3.208,1.283v5.087a2.509,2.509,0,0,1-5.018,0,1.75,1.75,0,0,0-3.5,0,6.006,6.006,0,0,0,10.268,4.234,6.006,6.006,0,0,0,10.268-4.234A1.75,1.75,0,0,0,71.589,91.461Z" fill="#002854"/>
  </g>
</svg>
