<svg xmlns="http://www.w3.org/2000/svg" width="128" height="128" viewBox="0 0 128 128">
  <title>RAT</title>
  <g>
    <path d="M69.772,47.281c-21.219,0-44.923,13.414-44.923,29.961h76.839C101.688,60.7,90.99,47.281,69.772,47.281Z" fill="#00b7c2"/>
    <path d="M81.23,60.318A16.943,16.943,0,0,0,64.305,77.242h3.5A13.44,13.44,0,0,1,81.23,63.818a1.75,1.75,0,0,0,0-3.5Zm-26.222,6.33A10.605,10.605,0,0,0,44.414,77.242h3.5a7.1,7.1,0,0,1,7.094-7.094,1.75,1.75,0,1,0,0-3.5Z" fill="#002854"/>
    <circle cx="42.752" cy="45.545" r="7.665" fill="#009eaa"/>
    <circle cx="37.41" cy="67.487" r="2.323" fill="#002854"/>
    <path d="M103.914,91.07H65.959a1.75,1.75,0,0,1,0-3.5h37.955a4.289,4.289,0,0,0,0-8.578h-2.226a1.75,1.75,0,0,1,0-3.5h2.226a7.789,7.789,0,1,1,0,15.578Z" fill="#002854"/>
  </g>
</svg>
