<svg xmlns="http://www.w3.org/2000/svg" width="128" height="128" viewBox="0 0 128 128">
  <title>ROOSTER</title>
  <g>
    <path d="M79.434,69.207A13.892,13.892,0,0,1,65.542,55.316V47.858h0V40.835a8.149,8.149,0,0,0-8.149-8.149H49.243V51.667a11.837,11.837,0,0,1-1.823,6.267,21.223,21.223,0,0,0-3.215,11.987,21.349,21.349,0,0,0,42.686-.714Z" fill="#00b7c2"/>
    <polygon points="49.243 42.082 49.243 32.686 39.936 32.686 49.243 42.082" fill="#009eaa"/>
    <path d="M54.263,22.646H65.542a0,0,0,0,1,0,0v5.02a5.02,5.02,0,0,1-5.02,5.02H54.263a5.02,5.02,0,0,1-5.02-5.02v0a5.02,5.02,0,0,1,5.02-5.02Z" fill="#ffc248"/>
    <path d="M42.1,44.555h1.489a8.095,8.095,0,0,1,8.095,8.095v1.182a0,0,0,0,1,0,0H42.1a4.638,4.638,0,0,1-4.638-4.638v0A4.638,4.638,0,0,1,42.1,44.555Z" transform="translate(-4.618 93.768) rotate(-90)" fill="#ffc248"/>
    <path d="M65.571,55.888A13.52,13.52,0,0,0,59.4,67.234h0a13.55,13.55,0,0,0,13.549,13.55H73.5A13.54,13.54,0,0,0,86.891,69.207H79.434A13.881,13.881,0,0,1,65.571,55.888Z" fill="#009eaa"/>
    <path d="M81.6,99.7l2.458-2.458a1.75,1.75,0,0,0-2.475-2.475L78.4,97.946H66.1V90.523a1.75,1.75,0,0,0-3.5,0v7.423H50.1l.708-.708a1.75,1.75,0,1,0-2.475-2.475L44.64,98.458a1.8,1.8,0,0,0-.218.267,1.583,1.583,0,0,0-.076.14,1.557,1.557,0,0,0-.085.162,1.874,1.874,0,0,0-.056.18c-.014.049-.033.1-.043.146a1.76,1.76,0,0,0,0,.686c.01.051.029.1.043.146a1.894,1.894,0,0,0,.056.181,1.665,1.665,0,0,0,.085.162,1.566,1.566,0,0,0,.076.139,1.752,1.752,0,0,0,.218.267l3.7,3.7a1.75,1.75,0,0,0,2.475-2.474l-.708-.709H62.6v7.423a1.75,1.75,0,0,0,3.5,0v-7.423H78.4l3.183,3.183a1.75,1.75,0,0,0,2.475-2.474Z" fill="#002854"/>
    <path d="M96.123,51.629a9.232,9.232,0,0,0-9.232,9.232v8.346a9.232,9.232,0,1,1,18.463,0V60.861A9.231,9.231,0,0,0,96.123,51.629Z" fill="#ffc248"/>
    <circle cx="57.393" cy="41.282" r="2.833" fill="#002854"/>
  </g>
</svg>
