<?xml version="1.0" encoding="utf-8"?>
<!-- Generator: Adobe Illustrator 23.0.6, SVG Export Plug-In . SVG Version: 6.00 Build 0)  -->
<svg version="1.1" id="Layer_1" xmlns="http://www.w3.org/2000/svg" xmlns:xlink="http://www.w3.org/1999/xlink" x="0px" y="0px"
	 viewBox="0 0 128 128" style="enable-background:new 0 0 128 128;" xml:space="preserve">
<style type="text/css">
	.st0{fill:#00B7C2;}
</style>
<title>SAGITARIUS</title>
<path class="st0" d="M98.6,23.4h-33c-3.3,0-6,2.7-6,6s2.7,6,6,6h18.5L63.2,56.3L50.9,44.1c-2.3-2.3-6.1-2.3-8.5,0s-2.3,6.1,0,8.5
	l12.3,12.3L23.6,96c-2.3,2.4-2.3,6.2,0.1,8.5c2.3,2.3,6.1,2.3,8.4,0l31.1-31.1l12.3,12.3c2.3,2.3,6.1,2.3,8.5,0
	c2.3-2.3,2.3-6.1,0-8.5l0,0L71.7,64.8l20.9-20.9v18.5c0,3.3,2.7,6,6,6s6-2.7,6-6v-33C104.6,26.1,101.9,23.4,98.6,23.4z"/>
</svg>
