<svg xmlns="http://www.w3.org/2000/svg" width="128" height="128" viewBox="0 0 128 128">
  <title>SCORPPIO</title>
  <path d="M105.354,93.354A6.659,6.659,0,0,1,98.7,86.7V44.94A20.653,20.653,0,0,0,63.37,30.4a20.621,20.621,0,0,0-29.334,0A20.6,20.6,0,0,0,19.37,24.273a6,6,0,0,0,0,12,8.677,8.677,0,0,1,8.666,8.667V80.114a6,6,0,0,0,12,0V44.94a8.667,8.667,0,0,1,17.334,0V80.114a6,6,0,1,0,12,0V44.94a8.667,8.667,0,1,1,17.333,0V86.7c0,.207.011.412.031.614a18.659,18.659,0,0,0,18.62,18.037,6,6,0,0,0,0-12Z" fill="#00b7c2"/>
</svg>
