<svg xmlns="http://www.w3.org/2000/svg" width="128" height="128" viewBox="0 0 128 128">
  <title>SCROLL</title>
  <path d="M97.369,26.2v7.53c0,.11-.011.22-.022.33a3.86,3.86,0,0,1-4.015,3.22H34.667a3.86,3.86,0,0,1-4.015-3.22c-.011-.11-.022-.22-.022-.33V26.2c0-.11.011-.22.022-.33a3.86,3.86,0,0,1,4.015-3.22H93.332a3.86,3.86,0,0,1,4.015,3.22C97.358,25.976,97.369,26.086,97.369,26.2Z" fill="#ffd571"/>
  <path d="M30.63,33.726c0,.11.011.22.022.33H24v-8.19h6.653c-.011.11-.022.22-.022.33Z" fill="#ffc248"/>
  <path d="M104,25.866v8.19H97.347c.011-.11.022-.22.022-.33V26.2c0-.11-.011-.22-.022-.33Z" fill="#ffc248"/>
  <path d="M97.369,94.274v7.53c0,.11-.011.22-.022.33a3.86,3.86,0,0,1-4.015,3.22H34.667a3.86,3.86,0,0,1-4.015-3.22c-.011-.11-.022-.22-.022-.33v-7.53c0-.11.011-.22.022-.33a3.86,3.86,0,0,1,4.015-3.22H93.332a3.86,3.86,0,0,1,4.015,3.22C97.358,94.054,97.369,94.164,97.369,94.274Z" fill="#ffd571"/>
  <path d="M30.63,101.8c0,.11.011.22.022.33H24v-8.19h6.653c-.011.11-.022.22-.022.33Z" fill="#ffc248"/>
  <path d="M104,93.944v8.19H97.347c.011-.11.022-.22.022-.33v-7.53c0-.11-.011-.22-.022-.33Z" fill="#ffc248"/>
  <path d="M89.808,50.14h2.026V37.276H36.165V70.37h2.026a3.776,3.776,0,1,1,0,7.49H36.165V90.724H91.834V57.63H89.808a4.027,4.027,0,0,1-4.259-3.745A4.027,4.027,0,0,1,89.808,50.14Z" fill="#ffc248"/>
  <g>
    <path d="M49.055,49.636H80.521a1.75,1.75,0,0,0,0-3.5H49.055a1.75,1.75,0,0,0,0,3.5Z" fill="#fff1d4"/>
    <path d="M49.055,57.692H71.784a1.75,1.75,0,0,0,0-3.5H49.055a1.75,1.75,0,0,0,0,3.5Z" fill="#fff1d4"/>
    <path d="M80.521,62.25H65.576a1.75,1.75,0,1,0,0,3.5H80.521a1.75,1.75,0,1,0,0-3.5Z" fill="#fff1d4"/>
    <path d="M49.055,65.75h9.523a1.75,1.75,0,0,0,0-3.5H49.055a1.75,1.75,0,0,0,0,3.5Z" fill="#fff1d4"/>
    <path d="M49.055,73.808H67.508a1.75,1.75,0,0,0,0-3.5H49.055a1.75,1.75,0,1,0,0,3.5Z" fill="#fff1d4"/>
    <path d="M80.521,70.308H75.5a1.75,1.75,0,0,0,0,3.5h5.022a1.75,1.75,0,0,0,0-3.5Z" fill="#fff1d4"/>
    <path d="M80.521,78.364H49.055a1.75,1.75,0,0,0,0,3.5H80.521a1.75,1.75,0,0,0,0-3.5Z" fill="#fff1d4"/>
  </g>
</svg>
