<svg xmlns="http://www.w3.org/2000/svg" width="128" height="128" viewBox="0 0 128 128">
  <title>SUN</title>
  <g>
    <circle cx="64" cy="63.503" r="20.275" fill="#ffc248"/>
    <g>
      <path d="M103.837,61.753H91.2a1.75,1.75,0,0,0,0,3.5h12.635a1.75,1.75,0,0,0,0-3.5Z" fill="#ffd571"/>
      <path d="M38.548,63.5a1.749,1.749,0,0,0-1.75-1.75H24.163a1.75,1.75,0,1,0,0,3.5H36.8A1.749,1.749,0,0,0,38.548,63.5Z" fill="#ffd571"/>
      <path d="M64,88.956a1.749,1.749,0,0,0-1.75,1.75V103.34a1.75,1.75,0,0,0,3.5,0V90.706A1.749,1.749,0,0,0,64,88.956Z" fill="#ffd571"/>
      <path d="M64,21.917a1.749,1.749,0,0,0-1.75,1.75V36.3a1.75,1.75,0,0,0,3.5,0V23.667A1.749,1.749,0,0,0,64,21.917Z" fill="#ffd571"/>
      <path d="M47.972,32.242a1.75,1.75,0,0,0-3.032,1.75l3.027,5.241A1.75,1.75,0,1,0,51,37.483Z" fill="#ffd571"/>
      <path d="M80.033,87.773A1.75,1.75,0,0,0,77,89.523l3.026,5.242a1.75,1.75,0,0,0,3.032-1.75Z" fill="#ffd571"/>
      <path d="M39.729,47.47l-5.241-3.026a1.75,1.75,0,0,0-1.75,3.032L37.979,50.5a1.75,1.75,0,1,0,1.75-3.031Z" fill="#ffd571"/>
      <path d="M95.262,79.531l-5.241-3.025a1.75,1.75,0,1,0-1.75,3.031l5.241,3.026a1.75,1.75,0,0,0,1.75-3.032Z" fill="#ffd571"/>
      <path d="M37.979,76.506l-5.241,3.025a1.75,1.75,0,0,0,1.75,3.032l5.241-3.026a1.75,1.75,0,1,0-1.75-3.031Z" fill="#ffd571"/>
      <path d="M89.147,50.735a1.745,1.745,0,0,0,.874-.234l5.241-3.025a1.75,1.75,0,0,0-1.75-3.032L88.271,47.47a1.75,1.75,0,0,0,.876,3.265Z" fill="#ffd571"/>
      <path d="M50.357,87.133a1.75,1.75,0,0,0-2.39.64L44.94,93.015a1.75,1.75,0,0,0,3.032,1.75L51,89.523A1.75,1.75,0,0,0,50.357,87.133Z" fill="#ffd571"/>
      <path d="M82.419,31.6a1.75,1.75,0,0,0-2.391.64L77,37.483a1.75,1.75,0,1,0,3.031,1.75l3.027-5.241A1.75,1.75,0,0,0,82.419,31.6Z" fill="#ffd571"/>
    </g>
  </g>
</svg>
