<svg xmlns="http://www.w3.org/2000/svg" width="128" height="128" viewBox="0 0 128 128">
  <title>TAROT</title>
  <path d="M94.033,29.634V89.308a7.067,7.067,0,0,1-7.07,7.069H48.937a7.065,7.065,0,0,1-7.061-7.069V29.634a7.063,7.063,0,0,1,7.061-7.061H86.963A7.065,7.065,0,0,1,94.033,29.634Z" fill="#00b7c2"/>
  <path d="M85,96.377v1.989a7.071,7.071,0,0,1-7.07,7.061H39.905a7.071,7.071,0,0,1-7.07-7.061V38.692a7.073,7.073,0,0,1,7.07-7.069h1.971V89.308a7.065,7.065,0,0,0,7.061,7.069Z" fill="#009eaa"/>
  <g>
    <path d="M83.375,70.276a1.75,1.75,0,0,0,1.516-2.625l-4.636-8.028L84.891,51.6a1.75,1.75,0,0,0-1.516-2.625h-9.27l-4.636-8.03a1.751,1.751,0,0,0-3.032,0L61.8,48.97H52.531A1.75,1.75,0,0,0,51.016,51.6l4.635,8.028-4.635,8.028a1.75,1.75,0,0,0,1.515,2.625H61.8l4.635,8.03a1.751,1.751,0,0,0,3.032,0l4.636-8.03Zm-3.031-3.5H76.125l2.11-3.653Zm-8.26,0H63.823l-4.13-7.153,4.13-7.153h8.261l4.13,7.153Zm8.26-14.306-2.109,3.653-2.11-3.653ZM67.953,45.315l2.11,3.655h-4.22ZM55.562,52.47h4.219l-2.109,3.653Zm0,14.306,2.11-3.653,2.109,3.653Zm12.391,7.155-2.11-3.655h4.22Z" fill="#ffd571"/>
    <path d="M53.48,36.4V34.643h1.759a1.75,1.75,0,1,0,0-3.5H53.48v-1.76a1.75,1.75,0,0,0-3.5,0v1.76H48.221a1.75,1.75,0,0,0,0,3.5H49.98V36.4a1.75,1.75,0,0,0,3.5,0Z" fill="#002854"/>
    <path d="M87.686,84.6h-1.76V82.845a1.75,1.75,0,0,0-3.5,0V84.6h-1.76a1.75,1.75,0,0,0,0,3.5h1.76v1.759a1.75,1.75,0,0,0,3.5,0V88.1h1.76a1.75,1.75,0,0,0,0-3.5Z" fill="#002854"/>
  </g>
</svg>
