<svg xmlns="http://www.w3.org/2000/svg" width="128" height="128" viewBox="0 0 128 128">
  <title>TIGER</title>
  <g>
    <path d="M97.39,64.24v12.3A23.819,23.819,0,0,1,77.653,100c-2.088,3.822-8.626,6.617-16.384,6.617s-14.307-2.8-16.395-6.617A23.83,23.83,0,0,1,25.136,76.539V64.24a35.962,35.962,0,0,1,4.8-17.993A36.143,36.143,0,0,1,73.545,30.252a35.681,35.681,0,0,1,7.222,3.559A36.424,36.424,0,0,1,92.6,46.247,35.808,35.808,0,0,1,97.39,64.24Z" fill="#ffc248"/>
    <circle cx="42.064" cy="60.442" r="3.15" fill="#002854"/>
    <circle cx="80.703" cy="60.442" r="3.15" fill="#002854"/>
    <path d="M105.411,38.352A16.976,16.976,0,0,1,95.816,53.64,35.971,35.971,0,0,0,92.6,46.247,36.424,36.424,0,0,0,80.767,33.811a35.681,35.681,0,0,0-7.222-3.559,16.962,16.962,0,0,1,31.866,8.1Z" fill="#ffc248"/>
    <path d="M97.379,38.352a8.9,8.9,0,0,1-4.78,7.9A36.424,36.424,0,0,0,80.767,33.811a8.928,8.928,0,0,1,16.612,4.541Z" fill="#ffd571"/>
    <path d="M48.981,30.252A36.238,36.238,0,0,0,26.722,53.64,16.965,16.965,0,1,1,48.981,30.252Z" fill="#ffc248"/>
    <path d="M41.771,33.823A36.179,36.179,0,0,0,29.939,46.247,8.92,8.92,0,1,1,41.771,33.823Z" fill="#ffd571"/>
    <path d="M43.43,49.208H41.014a1.75,1.75,0,0,0,0,3.5H43.43c3.23,0,5.858,2.118,5.858,4.721v16.9a1.75,1.75,0,0,0,3.5,0v-16.9C52.788,52.9,48.59,49.208,43.43,49.208Zm-8.549,16.4H25.136v3.5h9.745a1.75,1.75,0,0,0,0-3.5ZM32.442,74.5H25.136v2.039c0,.492.037.976.066,1.461h7.24a1.75,1.75,0,1,0,0-3.5ZM81.516,49.208H79.1c-5.161,0-9.358,3.688-9.358,8.221v16.9a1.75,1.75,0,0,0,3.5,0v-16.9c0-2.6,2.628-4.721,5.858-4.721h2.417a1.75,1.75,0,0,0,0-3.5Zm15.863,16.4H87.635a1.75,1.75,0,0,0,0,3.5H97.39v-3.5ZM90.073,74.5a1.75,1.75,0,1,0,0,3.5h7.251c.03-.485.066-.969.066-1.461V74.5H90.073ZM52.959,38.417H69.567a1.75,1.75,0,0,0,0-3.5H52.959a1.75,1.75,0,0,0,0,3.5Zm-3.978,7.166H73.545a1.75,1.75,0,0,0,0-3.5H48.981a1.75,1.75,0,1,0,0,3.5Z" fill="#002854"/>
    <path d="M84.2,87.183a13.212,13.212,0,0,1-22.818,9.094A13.222,13.222,0,1,1,51.776,73.96a3.2,3.2,0,0,0-.741,2.065c0,3.309,4.586,10.554,10.234,10.554s10.223-7.245,10.223-10.554a3.256,3.256,0,0,0-.731-2.065h.217A13.225,13.225,0,0,1,84.2,87.183Z" fill="#ffd571"/>
    <path d="M71.492,76.025c0,3.309-4.575,10.554-10.223,10.554S51.035,79.334,51.035,76.025a3.2,3.2,0,0,1,.741-2.065c1.507-1.894,5.192-2.784,9.493-2.784s7.986.89,9.492,2.784A3.256,3.256,0,0,1,71.492,76.025Z" fill="#002854"/>
    <path d="M62.6,97.4a1.736,1.736,0,0,0,.415-1.12v-9.7a1.727,1.727,0,0,0-.024-.24,6.326,6.326,0,0,1-3.452,0,1.727,1.727,0,0,0-.024.24v9.7a1.746,1.746,0,0,0,.507,1.231,13.42,13.42,0,0,0,1.357-1.231A13.481,13.481,0,0,0,62.6,97.4Z" fill="#ffc248"/>
  </g>
</svg>
