<svg xmlns="http://www.w3.org/2000/svg" width="128" height="128" viewBox="0 0 128 128">
  <title>URANUS</title>
  <path d="M100.387,33.864a5.4,5.4,0,0,0-7.636-7.636,39.845,39.845,0,0,0-11.4,22.995H69.4V30.046a5.4,5.4,0,1,0-10.8,0V49.223H46.644A39.85,39.85,0,0,0,35.25,26.228a5.4,5.4,0,0,0-7.637,7.636,29.391,29.391,0,0,1,0,41.517,5.4,5.4,0,1,0,7.637,7.636A39.847,39.847,0,0,0,46.644,60.023H58.6V72.635a16.5,16.5,0,1,0,10.8,0V60.023H81.357A39.841,39.841,0,0,0,92.751,83.017a5.4,5.4,0,0,0,7.636-7.636A29.393,29.393,0,0,1,100.387,33.864ZM64,93.91a5.7,5.7,0,1,1,5.7-5.7A5.706,5.706,0,0,1,64,93.91Z" fill="#00b7c2"/>
</svg>
