<svg xmlns="http://www.w3.org/2000/svg" width="128" height="128" viewBox="0 0 128 128">
  <title>VIRGO</title>
  <path d="M100.155,92.871h-7.32A10.044,10.044,0,0,1,83.622,86.8l17.961-22.163A13.479,13.479,0,0,0,91.111,42.669H82.8V39.655A14.968,14.968,0,0,0,58.016,28.339a14.912,14.912,0,0,0-19.6,0,14.912,14.912,0,0,0-9.8-3.672,5.19,5.19,0,0,0,0,10.379,4.614,4.614,0,0,1,4.61,4.609V65.861a5.19,5.19,0,1,0,10.38,0V39.655a4.61,4.61,0,0,1,9.219,0V65.861a5.19,5.19,0,1,0,10.379,0V39.655a4.61,4.61,0,0,1,9.22,0V82.839c0,.417.016.829.041,1.24L63.783,94.793a5.19,5.19,0,0,0,8.064,6.535l4.862-6a20.381,20.381,0,0,0,16.126,7.922h7.32a5.19,5.19,0,1,0,0-10.379ZM82.8,65.861V53.049h8.307A3.1,3.1,0,0,1,93.519,58.1L82.8,71.322Z" fill="#00b7c2"/>
</svg>
