<svg xmlns="http://www.w3.org/2000/svg" width="128" height="128" viewBox="0 0 128 128">
  <title>WATER</title>
  <g>
    <path d="M42.947,79.916c6.81,0,10.53,2.933,13.246,5.073,2.317,1.825,3.714,2.927,7.056,2.927s4.738-1.1,7.055-2.927c2.716-2.14,6.435-5.073,13.244-5.073s10.527,2.933,13.244,5.073c2.314,1.825,3.712,2.927,7.053,2.927a5,5,0,0,1,0,10c-6.808,0-10.528-2.933-13.244-5.073-2.315-1.826-3.712-2.927-7.053-2.927s-4.738,1.1-7.055,2.927c-2.716,2.14-6.435,5.073-13.244,5.073S52.72,94.984,50,92.843c-2.317-1.826-3.714-2.927-7.057-2.927s-4.739,1.1-7.055,2.927c-2.716,2.141-6.437,5.073-13.246,5.073a5,5,0,0,1,0-10c3.342,0,4.74-1.1,7.056-2.927C32.418,82.848,36.139,79.916,42.947,79.916Z" fill="#00b7c2"/>
    <path d="M42.947,55c6.81,0,10.53,2.933,13.246,5.073C58.51,61.9,59.907,63,63.249,63s4.738-1.1,7.055-2.927C73.02,57.933,76.739,55,83.548,55s10.527,2.933,13.244,5.073C99.106,61.9,100.5,63,103.845,63a5,5,0,0,1,0,10c-6.808,0-10.528-2.933-13.244-5.073C88.286,66.1,86.889,65,83.548,65s-4.738,1.1-7.055,2.927C73.777,70.067,70.058,73,63.249,73S52.72,70.068,50,67.927C47.687,66.1,46.29,65,42.947,65s-4.739,1.1-7.055,2.927C33.176,70.068,29.455,73,22.646,73a5,5,0,0,1,0-10c3.342,0,4.74-1.1,7.056-2.927C32.418,57.932,36.139,55,42.947,55Z" fill="#00b7c2"/>
    <path d="M42.947,30.084c6.81,0,10.53,2.933,13.246,5.073,2.317,1.826,3.714,2.927,7.056,2.927s4.738-1.1,7.055-2.927c2.716-2.14,6.435-5.073,13.244-5.073s10.527,2.933,13.244,5.073c2.314,1.826,3.712,2.927,7.053,2.927a5,5,0,0,1,0,10c-6.808,0-10.528-2.933-13.244-5.073-2.315-1.825-3.712-2.927-7.053-2.927s-4.738,1.1-7.055,2.927c-2.716,2.14-6.435,5.073-13.244,5.073S52.72,45.152,50,43.011c-2.317-1.825-3.714-2.927-7.057-2.927s-4.739,1.1-7.055,2.927c-2.716,2.141-6.437,5.073-13.246,5.073a5,5,0,0,1,0-10c3.342,0,4.74-1.1,7.056-2.927C32.418,33.016,36.139,30.084,42.947,30.084Z" fill="#00b7c2"/>
  </g>
</svg>
