<svg xmlns="http://www.w3.org/2000/svg" width="128" height="128" viewBox="0 0 128 128">
  <title>WOOD</title>
  <g>
    <path d="M69.336,82.591A11.284,11.284,0,0,1,58.05,93.869H31.917a11.282,11.282,0,1,0,0-22.564H58.05A11.285,11.285,0,0,1,69.336,82.591Z" fill="#ffc248"/>
    <path d="M69.336,82.591A11.282,11.282,0,1,1,58.05,71.305,11.284,11.284,0,0,1,69.336,82.591Z" fill="#fff1d4"/>
    <g>
      <path d="M57.068,85.318A2.905,2.905,0,0,1,55.324,81.6a1.75,1.75,0,0,0-3.293-1.187,6.41,6.41,0,0,0,3.85,8.193,1.75,1.75,0,1,0,1.187-3.292Z" fill="#ffd571"/>
      <path d="M60.225,76.567a1.75,1.75,0,1,0-1.188,3.292,2.906,2.906,0,0,1,1.745,3.715,1.75,1.75,0,0,0,3.293,1.186A6.409,6.409,0,0,0,60.225,76.567Z" fill="#ffd571"/>
    </g>
    <path d="M107.409,82.591A11.285,11.285,0,0,1,96.122,93.869H58.05a11.282,11.282,0,1,0,0-22.564H96.122A11.286,11.286,0,0,1,107.409,82.591Z" fill="#ffd571"/>
    <path d="M43.2,82.591A11.282,11.282,0,1,1,31.915,71.305,11.284,11.284,0,0,1,43.2,82.591Z" fill="#fff1d4"/>
    <path d="M33.9,88.549a1.75,1.75,0,0,1-.745-3.334,2.9,2.9,0,1,0-3.859-1.393,1.75,1.75,0,0,1-3.168,1.49,6.4,6.4,0,1,1,8.516,3.071A1.746,1.746,0,0,1,33.9,88.549Z" fill="#ffd571"/>
    <path d="M55.913,60.028A11.282,11.282,0,1,1,44.627,48.742,11.283,11.283,0,0,1,55.913,60.028Z" fill="#fff1d4"/>
    <g>
      <path d="M49.211,58.093A1.751,1.751,0,0,0,47.53,59.91a2.9,2.9,0,0,1-5.525,1.35,1.75,1.75,0,1,0-3.168,1.487,6.4,6.4,0,0,0,12.191-2.973A1.735,1.735,0,0,0,49.211,58.093Z" fill="#ffd571"/>
      <path d="M42.653,57.566A1.725,1.725,0,0,0,43.4,57.4a2.885,2.885,0,0,1,2.218-.1A1.75,1.75,0,0,0,46.8,54a6.356,6.356,0,0,0-4.894.228,1.75,1.75,0,0,0,.745,3.334Z" fill="#ffd571"/>
    </g>
    <path d="M93.986,60.028A11.284,11.284,0,0,1,82.7,71.305H44.627a11.282,11.282,0,1,0,0-22.563H82.7A11.286,11.286,0,0,1,93.986,60.028Z" fill="#ffd571"/>
    <path d="M93.239,78.4h4.844a1.75,1.75,0,0,0,0-3.5H93.239a1.75,1.75,0,0,0,0,3.5Zm-7.8,0a1.75,1.75,0,0,0,0-3.5H67.665a1.739,1.739,0,0,0-1.046.354A11.273,11.273,0,0,1,68.525,78.4ZM98.3,82.587a1.75,1.75,0,0,0,1.75,1.75h1.48a1.75,1.75,0,0,0,0-3.5h-1.48A1.75,1.75,0,0,0,98.3,82.587ZM84.9,86.771H68.526a11.254,11.254,0,0,1-1.684,2.882,1.739,1.739,0,0,0,1.324.618H84.9a1.75,1.75,0,0,0,0-3.5Zm20.615,0H90.646a1.75,1.75,0,0,0,0,3.5H104.37a11.287,11.287,0,0,0,2.112-3.21A1.737,1.737,0,0,0,105.519,86.771ZM76.212,80.837a1.75,1.75,0,0,0,0,3.5H93.985a1.75,1.75,0,0,0,0-3.5Z" fill="#ffc248"/>
    <path d="M63.663,56.156h2.294a1.75,1.75,0,0,0,0-3.5H63.663a1.75,1.75,0,0,0,0,3.5Zm4.5,8.053H61.455a1.75,1.75,0,0,0,0,3.5h6.711a1.75,1.75,0,0,0,0-3.5Zm9.76-4.183a1.749,1.749,0,0,0-1.75-1.75l-20.263,0a1.464,1.464,0,0,0-.147.015,10.312,10.312,0,0,1,0,3.47c.049,0,.1.015.147.015l20.263,0A1.75,1.75,0,0,0,77.926,60.026Zm13.307-7.37H76.212a1.75,1.75,0,0,0,0,3.5H92.48a1.743,1.743,0,0,0,.746-.172A11.248,11.248,0,0,0,91.233,52.656Zm-5.042,5.62H81.709a1.75,1.75,0,0,0,0,3.5h4.482a1.75,1.75,0,0,0,0-3.5ZM84.9,64.209H76.212a1.75,1.75,0,1,0,0,3.5H84.9a1.75,1.75,0,0,0,0-3.5Z" fill="#ffc248"/>
  </g>
</svg>
