<svg xmlns="http://www.w3.org/2000/svg" width="128" height="128" viewBox="0 0 128 128">
  <title>YIN YANG</title>
  <g>
    <path d="M76.75,76.751a12.753,12.753,0,0,1-12.1,12.733c-.215.009-.429.018-.653.018s-.438-.009-.653-.018a25.491,25.491,0,0,1,0-50.966A12.75,12.75,0,0,0,64,64,12.75,12.75,0,0,1,76.75,76.751Z" fill="#002854"/>
    <path d="M89.5,64A25.487,25.487,0,0,1,64.653,89.484,12.75,12.75,0,0,0,64,64a12.75,12.75,0,0,1-.653-25.483c.215-.009.429-.018.653-.018s.438.009.653.018A25.487,25.487,0,0,1,89.5,64Z" fill="#ffc248"/>
    <circle cx="64" cy="51.176" r="4.561" fill="#002854"/>
    <circle cx="64" cy="76.477" r="4.561" fill="#ffc248"/>
    <g>
      <path d="M69.448,22.656h-10.9a4.552,4.552,0,1,0,0,9.1h10.9a4.552,4.552,0,1,0,0-9.1Z" fill="#ffc248"/>
      <path d="M69.448,96.26h-10.9a4.552,4.552,0,0,0,0,9.1h10.9a4.552,4.552,0,1,0,0-9.1Z" fill="#ffc248"/>
      <path d="M100.8,54.01a4.552,4.552,0,0,0-4.552,4.552v10.9a4.552,4.552,0,1,0,9.1,0v-10.9A4.552,4.552,0,0,0,100.8,54.01Z" fill="#ffc248"/>
      <path d="M31.75,69.458v-10.9a4.552,4.552,0,0,0-9.1,0v10.9a4.552,4.552,0,1,0,9.1,0Z" fill="#ffc248"/>
      <path d="M90.657,82.962l-7.7,7.7A4.552,4.552,0,0,0,89.389,97.1l7.7-7.7a4.552,4.552,0,0,0-6.437-6.437Z" fill="#ffc248"/>
      <path d="M38.611,30.916l-7.7,7.7a4.552,4.552,0,1,0,6.437,6.438l7.7-7.7a4.552,4.552,0,0,0-6.437-6.437Z" fill="#ffc248"/>
      <path d="M37.343,82.962A4.552,4.552,0,1,0,30.906,89.4l7.7,7.7a4.552,4.552,0,0,0,6.437-6.438Z" fill="#ffc248"/>
      <path d="M90.657,45.058a4.552,4.552,0,0,0,6.437-6.438l-7.7-7.7a4.552,4.552,0,0,0-6.437,6.437Z" fill="#ffc248"/>
    </g>
  </g>
</svg>
