<?xml version="1.0" encoding="utf-8"?>
<!-- Generator: Adobe Illustrator 26.1.0, SVG Export Plug-In . SVG Version: 6.00 Build 0)  -->
<svg version="1.1" xmlns="http://www.w3.org/2000/svg" xmlns:xlink="http://www.w3.org/1999/xlink" x="0px" y="0px"
	 viewBox="0 0 365.01 39.79" style="enable-background:new 0 0 365.01 39.79;" xml:space="preserve">
<style type="text/css">
	.st0{fill:#FFFFFF;}
	.st1{fill:#EAD9EB;}
	.st2{fill:#95608F;}
	.st3{fill:#ED859E;}
	.st4{fill:#FAC87D;}
	.st5{fill:#554B4E;}
	.st6{fill:#F8F4E9;}
	.st7{fill:#BFA071;}
	.st8{fill:#F2DED6;}
</style>
<g id="Bg">
</g>
<g id="Graphic">
	<g id="Small_moon_00000174599987259715095830000016871591885787247767_">
		<g>
			<path class="st5" d="M12.56,13.53C15.42,23.06,10.27,33.08,1,36.37c4.14,2.15,9.09,2.76,13.91,1.31
				c9.82-2.95,15.39-13.31,12.44-23.13C24.4,4.73,14.04-0.84,4.22,2.11C3.92,2.2,3.62,2.3,3.33,2.4
				C7.63,4.63,11.06,8.53,12.56,13.53z"/>
			<path class="st5" d="M9.55,39.48c-3.1,0-6.18-0.74-9.01-2.21C0.19,37.08-0.02,36.7,0,36.31c0.03-0.4,0.29-0.74,0.66-0.87
				C9.5,32.3,14.3,22.8,11.6,13.82l0,0C10.23,9.24,7.12,5.5,2.87,3.29C2.52,3.1,2.31,2.73,2.33,2.33C2.36,1.93,2.62,1.59,3,1.46
				c0.3-0.11,0.61-0.21,0.93-0.3C14.26-1.96,25.2,3.93,28.31,14.26c3.11,10.34-2.78,21.27-13.11,24.38
				C13.34,39.2,11.44,39.48,9.55,39.48z M3.51,36.39c3.56,1.31,7.43,1.44,11.11,0.33c9.28-2.79,14.56-12.61,11.77-21.89
				C23.73,6,14.7,0.79,5.82,2.72c3.69,2.51,6.39,6.18,7.69,10.52l0,0C16.29,22.48,11.94,32.21,3.51,36.39z"/>
		</g>
		<g>
			<circle class="st5" cx="182.5" cy="19.9" r="18.57"/>
			<path class="st5" d="M182.5,39.47c-10.79,0-19.57-8.78-19.57-19.57s8.78-19.57,19.57-19.57s19.57,8.78,19.57,19.57
				S193.3,39.47,182.5,39.47z M182.5,2.32c-9.69,0-17.57,7.88-17.57,17.57c0,9.69,7.88,17.57,17.57,17.57
				c9.69,0,17.57-7.88,17.57-17.57C200.08,10.21,192.19,2.32,182.5,2.32z"/>
		</g>
		<g>
			<path class="st5" d="M92.46,1c-4.57,0-8.77,1.57-12.07,4.19c4.36,3.46,7.15,8.76,7.15,14.7s-2.79,11.24-7.15,14.7
				c3.3,2.62,7.49,4.19,12.07,4.19c10.61,0,19.22-8.46,19.22-18.9C111.68,9.46,103.07,1,92.46,1z"/>
			<path class="st5" d="M92.46,39.79c-4.6,0-9.11-1.57-12.69-4.41c-0.24-0.19-0.38-0.48-0.38-0.78s0.14-0.59,0.38-0.78
				c4.31-3.42,6.78-8.49,6.78-13.92c0-5.43-2.47-10.5-6.78-13.92c-0.24-0.19-0.38-0.48-0.38-0.78s0.14-0.59,0.38-0.78
				C83.35,1.57,87.85,0,92.46,0c11.15,0,20.22,8.93,20.22,19.9S103.61,39.79,92.46,39.79z M82,34.55c3.07,2.13,6.66,3.24,10.46,3.24
				c10.05,0,18.22-8.03,18.22-17.9c0-9.87-8.17-17.9-18.22-17.9C88.66,2,85.07,3.12,82,5.24c4.18,3.77,6.55,9.04,6.55,14.65
				S86.18,30.78,82,34.55z"/>
		</g>
		<g>
			<path class="st5" d="M352.45,13.53c-2.86,9.53,2.29,19.55,11.56,22.84c-4.14,2.15-9.09,2.76-13.91,1.31
				c-9.82-2.95-15.39-13.31-12.44-23.13c2.95-9.82,13.31-15.39,23.13-12.44c0.3,0.09,0.59,0.19,0.88,0.29
				C357.38,4.63,353.95,8.53,352.45,13.53z"/>
			<path class="st5" d="M355.46,39.48c-1.89,0-3.79-0.28-5.64-0.83c-10.34-3.11-16.22-14.04-13.11-24.38s14.04-16.21,24.38-13.11
				c0.31,0.09,0.62,0.2,0.93,0.31c0.38,0.13,0.64,0.48,0.67,0.87c0.03,0.4-0.18,0.77-0.54,0.96c-4.25,2.21-7.35,5.95-8.73,10.53l0,0
				c-2.7,8.98,2.1,18.48,10.94,21.61c0.38,0.13,0.63,0.48,0.66,0.87c0.03,0.4-0.18,0.77-0.54,0.96
				C361.64,38.73,358.56,39.48,355.46,39.48z M355.46,2.32c-7.56,0-14.56,4.92-16.84,12.52c-2.79,9.28,2.49,19.1,11.77,21.89
				c3.68,1.11,7.55,0.98,11.11-0.33c-8.43-4.18-12.78-13.91-10.01-23.15l0,0c1.31-4.34,4-8.01,7.69-10.52
				C357.94,2.45,356.69,2.32,355.46,2.32z"/>
		</g>
		<g>
			<path class="st5" d="M272.55,1c4.57,0,8.77,1.57,12.07,4.19c-4.36,3.46-7.15,8.76-7.15,14.7s2.79,11.24,7.15,14.7
				c-3.3,2.62-7.49,4.19-12.07,4.19c-10.61,0-19.22-8.46-19.22-18.9S261.94,1,272.55,1z"/>
			<path class="st5" d="M272.55,39.79c-11.15,0-20.22-8.92-20.22-19.9S261.4,0,272.55,0c4.6,0,9.11,1.57,12.69,4.41
				c0.24,0.19,0.38,0.48,0.38,0.78s-0.14,0.59-0.38,0.78c-4.31,3.42-6.78,8.5-6.78,13.92c0,5.43,2.47,10.5,6.78,13.92
				c0.24,0.19,0.38,0.48,0.38,0.78s-0.14,0.59-0.38,0.78C281.66,38.23,277.15,39.79,272.55,39.79z M272.55,2
				c-10.05,0-18.22,8.03-18.22,17.9c0,9.87,8.17,17.9,18.22,17.9c3.8,0,7.39-1.12,10.46-3.24c-4.18-3.77-6.55-9.04-6.55-14.65
				s2.37-10.88,6.55-14.65C279.94,3.12,276.35,2,272.55,2z"/>
		</g>
	</g>
</g>
<g id="Guide">
</g>
</svg>
