<?xml version="1.0" encoding="utf-8"?>
<!-- Generator: Adobe Illustrator 26.1.0, SVG Export Plug-In . SVG Version: 6.00 Build 0)  -->
<svg version="1.1" xmlns="http://www.w3.org/2000/svg" xmlns:xlink="http://www.w3.org/1999/xlink" x="0px" y="0px"
	 viewBox="0 0 424.9 304.56" style="enable-background:new 0 0 424.9 304.56;" xml:space="preserve">
<style type="text/css">
	.st0{fill:#FFFFFF;}
	.st1{fill:#EAD9EB;}
	.st2{fill:#95608F;}
	.st3{fill:#ED859E;}
	.st4{fill:#FAC87D;}
	.st5{fill:#554B4E;}
	.st6{fill:#F8F4E9;}
	.st7{fill:#BFA071;}
	.st8{fill:#F2DED6;}
</style>
<g id="Bg">
</g>
<g id="Graphic">
	<g id="Constellation_1_00000008848699683233816570000013505667023932081544_">
		<g id="Line_00000088129511419001251350000007090943443442981268_">
			<g>
				<path class="st5" d="M353.46,101.68c-0.15,0-0.3-0.04-0.43-0.14c-0.34-0.24-0.42-0.71-0.18-1.05l62.07-87.44
					c0.24-0.34,0.71-0.42,1.05-0.18c0.34,0.24,0.42,0.71,0.18,1.05l-62.07,87.44C353.93,101.57,353.69,101.68,353.46,101.68z"/>
			</g>
			<g>
				<path class="st5" d="M229.77,101.83c-0.17,0-0.34-0.06-0.48-0.17l-52.68-43.59c-0.32-0.26-0.36-0.74-0.1-1.06
					c0.26-0.32,0.74-0.36,1.06-0.1l52.68,43.59c0.32,0.26,0.36,0.74,0.1,1.06C230.2,101.73,229.99,101.83,229.77,101.83z"/>
			</g>
			<g>
				<path class="st5" d="M345.3,106.23c0,0-0.01,0-0.02,0l-106.69-2.37c-0.41-0.01-0.74-0.35-0.73-0.77
					c0.01-0.41,0.34-0.73,0.75-0.73c0,0,0.01,0,0.02,0l106.69,2.37c0.41,0.01,0.74,0.35,0.73,0.77
					C346.04,105.9,345.71,106.23,345.3,106.23z"/>
			</g>
			<g>
				<path class="st5" d="M78.86,75.03c-0.35,0-0.67-0.25-0.74-0.61c-0.08-0.41,0.19-0.8,0.6-0.88l89.39-17
					c0.4-0.09,0.8,0.19,0.88,0.6c0.08,0.41-0.19,0.8-0.6,0.88L79,75.02C78.96,75.03,78.91,75.03,78.86,75.03z"/>
			</g>
			<g>
				<path class="st5" d="M83.65,179.31c-0.36,0-0.68-0.27-0.74-0.64L68.71,86.3c-0.06-0.41,0.22-0.79,0.63-0.86
					c0.42-0.05,0.79,0.22,0.86,0.63l14.2,92.37c0.06,0.41-0.22,0.79-0.63,0.86C83.73,179.3,83.69,179.31,83.65,179.31z"/>
			</g>
			<g>
				<path class="st5" d="M25.04,283.96c-0.13,0-0.26-0.03-0.37-0.1c-0.36-0.21-0.48-0.67-0.27-1.02l54.19-93.9
					c0.21-0.36,0.66-0.48,1.02-0.27c0.36,0.21,0.48,0.67,0.27,1.02l-54.19,93.9C25.56,283.83,25.3,283.96,25.04,283.96z"/>
			</g>
			<g>
				<path class="st5" d="M90.98,183.71c-0.27,0-0.53-0.14-0.66-0.4c-0.19-0.37-0.06-0.82,0.31-1.01l141.5-75.17
					c0.37-0.2,0.82-0.06,1.01,0.31c0.19,0.37,0.06,0.82-0.31,1.01l-141.5,75.17C91.22,183.68,91.1,183.71,90.98,183.71z"/>
			</g>
		</g>
		<g id="Star_00000014613621016083584220000011856947633165739153_">
			<g>
				<path class="st5" d="M74.51,84.2c5.74-1.31,13.35,0.59,25.9,4.38c-11.65-6.02-18.43-9.96-21.64-14.89
					c2.8-2.48,7.09-4.95,13.21-8.22c-6.61,2.11-11.36,3.47-15.1,3.75c-1.31-5.74,0.59-13.35,4.38-25.9
					c-6.02,11.65-9.96,18.43-14.89,21.64c-2.48-2.8-4.95-7.09-8.22-13.21c2.11,6.61,3.47,11.36,3.75,15.1
					c-5.74,1.31-13.35-0.59-25.9-4.38c11.65,6.02,18.43,9.96,21.64,14.89c-2.8,2.48-7.09,4.95-13.21,8.22
					c6.61-2.11,11.36-3.47,15.1-3.75c1.31,5.74-0.59,13.35-4.38,25.9c6.02-11.65,9.96-18.43,14.89-21.64
					c2.48,2.8,4.95,7.09,8.22,13.21C76.16,92.69,74.8,87.94,74.51,84.2z"/>
				<path class="st5" d="M55.15,108.73c-0.13,0-0.25-0.02-0.38-0.07c-0.48-0.19-0.73-0.72-0.58-1.22
					c3.71-12.28,5.39-19.31,4.53-24.53c-3.43,0.4-7.8,1.65-13.99,3.62c-0.49,0.16-1.02-0.09-1.22-0.56
					c-0.2-0.48-0.01-1.03,0.45-1.27c5.72-3.07,9.67-5.33,12.34-7.52c-3.15-4.25-9.36-7.94-20.76-13.83
					c-0.46-0.24-0.66-0.79-0.47-1.26c0.19-0.48,0.73-0.73,1.22-0.58c12.28,3.71,19.31,5.38,24.53,4.53
					c-0.4-3.43-1.65-7.8-3.62-13.99c-0.16-0.49,0.09-1.02,0.56-1.22c0.48-0.2,1.03-0.01,1.27,0.45c3.07,5.72,5.33,9.67,7.52,12.34
					c4.25-3.15,7.94-9.36,13.83-20.76c0.24-0.46,0.79-0.66,1.26-0.47c0.48,0.19,0.73,0.72,0.58,1.22
					c-3.71,12.28-5.39,19.31-4.53,24.53c3.43-0.4,7.81-1.65,13.99-3.62c0.49-0.15,1.02,0.09,1.22,0.56c0.2,0.48,0.01,1.03-0.45,1.27
					c-5.72,3.06-9.67,5.33-12.34,7.52c3.15,4.25,9.36,7.94,20.76,13.83c0.46,0.24,0.66,0.79,0.47,1.26
					c-0.19,0.48-0.72,0.73-1.22,0.58c-12.28-3.71-19.31-5.39-24.53-4.53c0.4,3.43,1.65,7.8,3.62,13.99
					c0.16,0.49-0.09,1.02-0.56,1.22c-0.47,0.2-1.03,0.01-1.27-0.45c-3.06-5.72-5.33-9.66-7.52-12.34
					c-4.25,3.15-7.94,9.36-13.83,20.76C55.86,108.54,55.51,108.73,55.15,108.73z M59.53,80.83c0.46,0,0.87,0.32,0.97,0.78
					c0.98,4.29,0.29,9.46-1.79,17.33c3.99-7.1,7.1-11.29,10.79-13.69c0.41-0.27,0.96-0.2,1.29,0.17c1.29,1.46,2.57,3.29,3.98,5.6
					c-0.68-2.62-1.1-4.82-1.25-6.76c-0.04-0.49,0.29-0.94,0.78-1.05c4.28-0.98,9.46-0.29,17.33,1.79
					c-7.1-3.99-11.29-7.1-13.69-10.79c-0.27-0.42-0.2-0.96,0.17-1.29c1.46-1.29,3.29-2.57,5.6-3.98c-2.62,0.68-4.82,1.1-6.76,1.25
					c-0.5,0.04-0.94-0.29-1.05-0.78c-0.98-4.29-0.29-9.46,1.79-17.33c-3.99,7.1-7.1,11.29-10.79,13.69
					c-0.41,0.27-0.96,0.2-1.29-0.17c-1.29-1.46-2.57-3.29-3.98-5.61c0.68,2.62,1.11,4.82,1.25,6.76c0.04,0.49-0.29,0.94-0.78,1.05
					c-4.29,0.98-9.46,0.29-17.33-1.79c7.1,3.99,11.29,7.1,13.69,10.79c0.27,0.42,0.2,0.97-0.17,1.29c-1.46,1.29-3.29,2.57-5.61,3.98
					c2.62-0.68,4.82-1.11,6.76-1.25C59.48,80.83,59.5,80.83,59.53,80.83z"/>
			</g>
			<g>
				<path class="st5" d="M25.05,283.21c0.06-3.72,2.36-8.09,6.57-15.22c-5.44,6.24-8.87,9.8-12.38,11.03
					c-1.1-2.09-1.97-5.09-3.06-9.33c0.3,4.36,0.42,7.48,0.03,9.82c-3.72-0.06-8.09-2.36-15.22-6.57c6.24,5.44,9.8,8.87,11.03,12.38
					c-2.09,1.1-5.09,1.97-9.33,3.06c4.36-0.3,7.48-0.42,9.82-0.03c-0.06,3.72-2.36,8.09-6.57,15.22c5.44-6.24,8.87-9.8,12.38-11.03
					c1.1,2.09,1.97,5.09,3.06,9.33c-0.3-4.36-0.42-7.48-0.03-9.82c3.72,0.06,8.09,2.36,15.22,6.57c-6.24-5.44-9.8-8.87-11.03-12.38
					c2.09-1.1,5.09-1.97,9.33-3.06C30.5,283.48,27.38,283.6,25.05,283.21z"/>
				<path class="st5" d="M5.94,304.56c-0.2,0-0.41-0.06-0.58-0.19c-0.42-0.3-0.54-0.87-0.28-1.32c3.94-6.67,6.01-10.65,6.37-13.84
					c-2.09-0.21-4.85-0.1-8.69,0.16c-0.52,0.03-0.97-0.33-1.06-0.84c-0.08-0.51,0.24-1,0.74-1.13c3.73-0.96,6.38-1.72,8.3-2.58
					c-1.36-2.92-4.56-6.04-10.41-11.13c-0.39-0.34-0.46-0.92-0.15-1.34s0.87-0.54,1.32-0.28c6.67,3.94,10.65,6.01,13.84,6.37
					c0.21-2.09,0.1-4.85-0.16-8.69c-0.04-0.52,0.33-0.97,0.84-1.06c0.51-0.08,1,0.24,1.13,0.74c0.96,3.73,1.72,6.38,2.58,8.3
					c2.92-1.35,6.04-4.56,11.13-10.41c0.34-0.39,0.92-0.46,1.34-0.15c0.42,0.3,0.54,0.87,0.28,1.32
					c-3.94,6.68-6.01,10.65-6.37,13.84c2.09,0.21,4.85,0.1,8.69-0.16c0.5-0.03,0.97,0.33,1.06,0.84c0.08,0.51-0.24,1-0.74,1.13
					c-3.73,0.96-6.38,1.72-8.3,2.58c1.35,2.92,4.56,6.04,10.41,11.13c0.39,0.34,0.46,0.92,0.15,1.34c-0.3,0.42-0.87,0.54-1.32,0.28
					c-6.68-3.94-10.65-6.01-13.84-6.37c-0.21,2.09-0.1,4.85,0.16,8.69c0.04,0.52-0.33,0.97-0.84,1.06s-1-0.24-1.13-0.74
					c-0.96-3.73-1.72-6.38-2.58-8.3c-2.92,1.36-6.04,4.56-11.13,10.41C6.5,304.44,6.22,304.56,5.94,304.56z M10.41,287.13
					c0.83,0.04,1.58,0.11,2.27,0.22c0.49,0.08,0.84,0.51,0.84,1c-0.04,2.36-0.84,4.84-2.53,8.21c2.67-2.66,4.77-4.2,7-4.98
					c0.46-0.16,0.98,0.04,1.21,0.48c0.33,0.62,0.63,1.31,0.93,2.09c0.04-0.83,0.11-1.58,0.22-2.27c0.08-0.48,0.5-0.84,0.99-0.84
					c0,0,0.01,0,0.02,0c2.36,0.04,4.84,0.84,8.21,2.53c-2.66-2.67-4.2-4.77-4.98-7c-0.16-0.47,0.04-0.98,0.48-1.21
					c0.62-0.33,1.31-0.63,2.09-0.93c-0.83-0.04-1.58-0.11-2.28-0.22c-0.49-0.08-0.84-0.51-0.84-1c0.04-2.36,0.84-4.84,2.53-8.21
					c-2.67,2.67-4.77,4.2-7,4.98c-0.46,0.17-0.98-0.04-1.21-0.48c-0.33-0.62-0.63-1.31-0.93-2.09c-0.04,0.83-0.11,1.58-0.22,2.27
					c-0.08,0.48-0.5,0.84-0.99,0.84c0,0-0.01,0-0.02,0c-2.36-0.04-4.84-0.84-8.21-2.53c2.67,2.67,4.2,4.77,4.98,7
					c0.16,0.47-0.04,0.98-0.48,1.21C11.87,286.53,11.18,286.83,10.41,287.13z"/>
			</g>
			<g>
				<circle class="st6" cx="417.64" cy="7.26" r="6.26"/>
				<path class="st5" d="M417.64,14.52c-3.41,0-6.46-2.42-7.13-5.89c-0.75-3.93,1.83-7.74,5.76-8.5c1.91-0.36,3.84,0.03,5.44,1.12
					c1.6,1.09,2.69,2.74,3.05,4.64s-0.03,3.84-1.12,5.44c-1.09,1.6-2.74,2.69-4.64,3.05C418.55,14.48,418.09,14.52,417.64,14.52z
					 M417.65,2c-0.33,0-0.67,0.03-1,0.1c-2.85,0.54-4.72,3.31-4.18,6.16c0.54,2.85,3.3,4.73,6.15,4.17
					c1.38-0.26,2.57-1.05,3.36-2.21c0.79-1.16,1.08-2.56,0.81-3.94c-0.26-1.38-1.05-2.57-2.21-3.36C419.71,2.31,418.69,2,417.65,2z"
					/>
			</g>
			<g>
				<circle class="st6" cx="172.72" cy="56.31" r="4.58"/>
				<path class="st5" d="M172.73,61.89c-0.67,0-1.34-0.12-1.99-0.37l0,0c-1.39-0.53-2.5-1.57-3.11-2.93s-0.66-2.88-0.12-4.27
					s1.57-2.5,2.93-3.11c1.36-0.61,2.88-0.65,4.27-0.12c1.39,0.53,2.5,1.57,3.11,2.93s0.66,2.88,0.12,4.27s-1.57,2.5-2.93,3.11
					C174.28,61.73,173.5,61.89,172.73,61.89z M172.72,52.73c-0.5,0-1,0.11-1.46,0.32c-0.87,0.39-1.54,1.1-1.88,1.99
					c-0.34,0.89-0.31,1.87,0.08,2.74c0.39,0.87,1.1,1.54,1.99,1.88l0,0c0.89,0.34,1.87,0.31,2.74-0.08c0.87-0.39,1.54-1.1,1.88-1.99
					c0.34-0.89,0.31-1.87-0.08-2.74s-1.1-1.54-1.99-1.88C173.58,52.81,173.15,52.73,172.72,52.73z"/>
			</g>
			<g>
				<circle class="st8" cx="84.41" cy="185.15" r="6.64"/>
				<path class="st5" d="M84.41,192.8c-0.92,0-1.84-0.17-2.72-0.5c-1.91-0.73-3.42-2.15-4.26-4.01c-0.84-1.86-0.9-3.94-0.17-5.85
					s2.15-3.42,4.01-4.26c1.86-0.84,3.94-0.9,5.85-0.17c1.91,0.73,3.42,2.15,4.26,4.01c0.84,1.86,0.9,3.94,0.17,5.85
					s-2.15,3.42-4.01,4.26C86.54,192.58,85.48,192.8,84.41,192.8z M84.41,179.51c-2.28,0-4.42,1.39-5.28,3.64
					c-1.11,2.91,0.36,6.18,3.27,7.28c1.41,0.54,2.94,0.49,4.32-0.13c1.38-0.62,2.43-1.73,2.96-3.14c1.11-2.91-0.36-6.18-3.27-7.28
					C85.76,179.63,85.08,179.51,84.41,179.51z"/>
			</g>
			<g>
				<circle class="st8" cx="234.09" cy="103.54" r="4.55"/>
				<path class="st5" d="M234.08,109.09c-0.65,0-1.32-0.12-1.97-0.36l0,0c-1.38-0.53-2.48-1.56-3.09-2.91
					c-0.61-1.35-0.65-2.86-0.12-4.25c0.53-1.39,1.56-2.48,2.91-3.09c1.35-0.61,2.86-0.65,4.25-0.12c2.86,1.09,4.3,4.3,3.21,7.16
					C238.43,107.73,236.32,109.09,234.08,109.09z M234.09,99.99c-0.49,0-0.99,0.1-1.45,0.31c-0.86,0.39-1.53,1.09-1.86,1.98
					s-0.31,1.85,0.08,2.71c0.39,0.86,1.09,1.53,1.98,1.86l0,0c1.83,0.7,3.88-0.23,4.58-2.05c0.7-1.83-0.23-3.88-2.06-4.58
					C234.94,100.07,234.51,99.99,234.09,99.99z"/>
			</g>
			<g>
				<path class="st5" d="M360.03,122.16c-9.02-13.16-10.63-13.61-25.21-7.15c13.16-9.02,13.61-10.63,7.15-25.21
					c9.02,13.16,10.63,13.61,25.21,7.15C354.02,105.96,353.57,107.58,360.03,122.16z"/>
				<path class="st5" d="M360.03,123.16c-0.32,0-0.63-0.15-0.83-0.43c-8.74-12.75-9.86-13.06-23.98-6.8
					c-0.47,0.21-1.03,0.02-1.28-0.43s-0.12-1.02,0.31-1.31c12.74-8.74,13.06-9.86,6.8-23.98c-0.21-0.47-0.02-1.03,0.43-1.28
					c0.45-0.25,1.02-0.12,1.31,0.31c8.74,12.74,9.86,13.06,23.98,6.8c0.47-0.21,1.03-0.03,1.28,0.43c0.25,0.45,0.12,1.02-0.31,1.31
					c-12.74,8.74-13.06,9.86-6.8,23.98c0.21,0.47,0.02,1.03-0.43,1.28C360.37,123.12,360.2,123.16,360.03,123.16z M347.43,109.98
					c3.27,0,5.71,1.59,8.69,5.16c-2.2-6.58-1.28-9.83,4.05-14.28c-6.58,2.2-9.83,1.28-14.28-4.05c2.2,6.58,1.28,9.83-4.05,14.28
					C344.01,110.37,345.82,109.98,347.43,109.98z"/>
			</g>
		</g>
	</g>
</g>
<g id="Guide">
</g>
</svg>
