<?xml version="1.0" encoding="utf-8"?>
<!-- Generator: Adobe Illustrator 26.1.0, SVG Export Plug-In . SVG Version: 6.00 Build 0)  -->
<svg version="1.1" xmlns="http://www.w3.org/2000/svg" xmlns:xlink="http://www.w3.org/1999/xlink" x="0px" y="0px"
	 viewBox="0 0 169.84 201.91" style="enable-background:new 0 0 169.84 201.91;" xml:space="preserve">
<style type="text/css">
	.st0{fill:#FFFFFF;}
	.st1{fill:#EAD9EB;}
	.st2{fill:#95608F;}
	.st3{fill:#ED859E;}
	.st4{fill:#FAC87D;}
	.st5{fill:#554B4E;}
	.st6{fill:#F8F4E9;}
	.st7{fill:#BFA071;}
	.st8{fill:#F2DED6;}
</style>
<g id="Bg">
</g>
<g id="Graphic">
	<g id="Small_crescent_00000104675427217601740870000004868446303219139459_">
		<g id="Crescent_00000127027128156561946760000013100772761030816136_">
			<path class="st7" d="M109.61,1.39C74.72,9.4,46.26,37.53,39.66,75.01c-8.81,49.97,24.55,97.62,74.52,106.43
				c19.26,3.4,38.18,0.52,54.66-7.15c-22.14,20.46-53.25,30.71-85.23,25.07C29.25,189.78-7.04,137.94,2.54,83.59
				C11.62,32.15,58.53-3.11,109.61,1.39z"/>
			<path class="st5" d="M101.24,201.91c-5.9,0-11.85-0.52-17.81-1.57c-26.55-4.68-49.69-19.42-65.15-41.51
				C2.82,136.75-3.12,109.97,1.56,83.42c4.41-25.03,17.96-47.3,38.16-62.7C59.79,5.4,84.64-1.82,109.7,0.39
				c0.49,0.04,0.88,0.44,0.91,0.93c0.03,0.49-0.29,0.93-0.77,1.04C74.16,10.55,47,39.14,40.64,75.18
				c-4.21,23.9,1.13,48.02,15.05,67.9c13.92,19.88,34.75,33.16,58.66,37.37c18.44,3.25,37.14,0.8,54.06-7.07
				c0.45-0.21,0.98-0.06,1.25,0.35c0.27,0.41,0.21,0.96-0.15,1.29C150.57,192.53,126.39,201.91,101.24,201.91z M100.85,2
				c-21.56,0-42.56,7.07-59.92,20.3C21.14,37.4,7.85,59.23,3.53,83.76c-4.59,26.02,1.23,52.28,16.39,73.93
				c15.16,21.65,37.84,36.1,63.86,40.68c28.62,5.05,57.29-2.48,79.63-20.69c-15.71,6.05-32.66,7.7-49.4,4.74
				c-24.43-4.31-45.72-17.87-59.95-38.19c-14.23-20.32-19.69-44.97-15.38-69.4c6.13-34.76,31.18-62.72,64.61-72.8
				C102.47,2.01,101.66,2,100.85,2z"/>
		</g>
		<g id="Sparkling_stars_00000143596371378799826090000011762098153537046419_">
			<g id="Line_00000148629753077877133410000014048268971666858659_">
				<g>
					<path class="st5" d="M109.61,22.14c-0.41,0-0.75-0.34-0.75-0.75v-20c0-0.41,0.34-0.75,0.75-0.75s0.75,0.34,0.75,0.75v20
						C110.36,21.8,110.03,22.14,109.61,22.14z"/>
				</g>
				<g>
					<path class="st5" d="M95.14,60.28c-0.41,0-0.75-0.34-0.75-0.75V46.74c0-0.41,0.34-0.75,0.75-0.75s0.75,0.34,0.75,0.75v12.79
						C95.89,59.95,95.56,60.28,95.14,60.28z M95.14,27.49c-0.41,0-0.75-0.34-0.75-0.75v-20c0-0.41,0.34-0.75,0.75-0.75
						s0.75,0.34,0.75,0.75v20C95.89,27.15,95.56,27.49,95.14,27.49z"/>
				</g>
				<g>
					<path class="st5" d="M71.5,40.98c-0.41,0-0.75-0.34-0.75-0.75v-20c0-0.41,0.34-0.75,0.75-0.75s0.75,0.34,0.75,0.75v20
						C72.25,40.65,71.91,40.98,71.5,40.98z"/>
				</g>
			</g>
			<g id="Star_00000132786012128357638180000017314129138090660527_">
				<g>
					<polygon class="st5" points="116.43,40.21 109.61,30.07 102.79,40.21 109.61,50.34 					"/>
					<path class="st5" d="M109.61,52.13l-8.03-11.92l8.03-11.92l8.03,11.92L109.61,52.13z M104,40.2l5.62,8.34l5.62-8.34l-5.62-8.34
						L104,40.2z"/>
				</g>
				<g>
					<polygon class="st8" points="81.49,55.92 71.5,41.08 61.51,55.92 71.5,70.75 					"/>
					<path class="st5" d="M71.5,72.54L60.31,55.92L71.5,39.29l11.19,16.63L71.5,72.54z M62.72,55.92l8.78,13.04l8.78-13.04
						L71.5,42.87L62.72,55.92z"/>
				</g>
				<g>
					<polygon class="st5" points="75.91,55.92 71.5,49.37 67.09,55.92 71.5,62.47 					"/>
					<path class="st5" d="M71.5,63.81l-5.31-7.89l5.31-7.89l5.31,7.89L71.5,63.81z M68,55.92l3.5,5.21l3.5-5.21l-3.5-5.21L68,55.92z
						"/>
				</g>
				<g>
					<polygon class="st8" points="111.62,84.01 95.14,59.53 78.67,84.01 95.14,108.48 					"/>
					<path class="st5" d="M95.14,110.27L77.46,84.01l17.68-26.27l17.68,26.27L95.14,110.27z M79.87,84.01l15.27,22.68l15.27-22.68
						L95.14,61.32L79.87,84.01z"/>
				</g>
				<g>
					<polygon class="st5" points="103.31,84.01 95.14,71.88 86.98,84.01 95.14,96.14 					"/>
					<path class="st5" d="M95.14,97.48l-9.07-13.47l9.07-13.47l9.07,13.47L95.14,97.48z M87.88,84.01l7.26,10.79l7.26-10.79
						l-7.26-10.79L87.88,84.01z"/>
				</g>
			</g>
		</g>
	</g>
</g>
<g id="Guide">
</g>
</svg>
