<?xml version="1.0" encoding="utf-8"?>
<!-- Generator: Adobe Illustrator 26.1.0, SVG Export Plug-In . SVG Version: 6.00 Build 0)  -->
<svg version="1.1" xmlns="http://www.w3.org/2000/svg" xmlns:xlink="http://www.w3.org/1999/xlink" x="0px" y="0px"
	 viewBox="0 0 266.32 224.1" style="enable-background:new 0 0 266.32 224.1;" xml:space="preserve">
<style type="text/css">
	.st0{fill:#FFFFFF;}
	.st1{fill:#EAD9EB;}
	.st2{fill:#95608F;}
	.st3{fill:#ED859E;}
	.st4{fill:#FAC87D;}
	.st5{fill:#554B4E;}
	.st6{fill:#F8F4E9;}
	.st7{fill:#BFA071;}
	.st8{fill:#F2DED6;}
</style>
<g id="Bg">
</g>
<g id="Graphic">
	<g id="Constellation_3_00000043440731024844894280000009563642833046492560_">
		<g id="Line_00000111158913927144874170000001814587540574851742_">
			<g>
				<path class="st5" d="M156.54,211.84c-0.25,0-0.49-0.12-0.63-0.34l-29.88-45.88c-0.23-0.35-0.13-0.81,0.22-1.04
					c0.35-0.23,0.81-0.13,1.04,0.22l29.88,45.88c0.23,0.35,0.13,0.81-0.22,1.04C156.82,211.8,156.68,211.84,156.54,211.84z"/>
			</g>
			<g>
				<path class="st5" d="M198.49,173.89c-0.28,0-0.55-0.16-0.68-0.43l-15.04-31.63c-0.18-0.37-0.02-0.82,0.36-1
					c0.38-0.18,0.82-0.02,1,0.36l15.04,31.63c0.18,0.37,0.02,0.82-0.36,1C198.71,173.87,198.6,173.89,198.49,173.89z"/>
			</g>
			<g>
				<path class="st5" d="M164.63,212.76c-0.2,0-0.4-0.08-0.54-0.24c-0.29-0.3-0.27-0.78,0.03-1.06l34.73-32.79
					c0.3-0.29,0.78-0.27,1.06,0.03c0.29,0.3,0.27,0.78-0.03,1.06l-34.73,32.79C165,212.69,164.82,212.76,164.63,212.76z"/>
			</g>
			<g>
				<path class="st5" d="M225.35,84.87c-0.09,0-0.19-0.02-0.28-0.05c-0.38-0.15-0.57-0.59-0.42-0.98l27.15-67.72
					c0.15-0.38,0.59-0.57,0.98-0.42c0.38,0.15,0.57,0.59,0.42,0.98L226.04,84.4C225.93,84.69,225.64,84.87,225.35,84.87z"/>
			</g>
			<g>
				<path class="st5" d="M183.58,136.09c-0.17,0-0.34-0.06-0.48-0.17c-0.32-0.26-0.36-0.74-0.1-1.06l41.24-49.7
					c0.26-0.32,0.74-0.36,1.06-0.1c0.32,0.26,0.36,0.74,0.1,1.06l-41.24,49.7C184,136,183.79,136.09,183.58,136.09z"/>
			</g>
			<g>
				<path class="st5" d="M127.97,161.24c-0.29,0-0.57-0.17-0.69-0.46c-0.16-0.38,0.02-0.82,0.4-0.98l50.12-21
					c0.38-0.16,0.82,0.02,0.98,0.4c0.16,0.38-0.02,0.82-0.4,0.98l-50.12,21C128.17,161.23,128.07,161.24,127.97,161.24z"/>
			</g>
			<g>
				<path class="st5" d="M25.18,169.65c-0.39,0-0.73-0.31-0.75-0.71c-0.02-0.41,0.29-0.77,0.71-0.79l96.63-5.33
					c0.39-0.03,0.77,0.29,0.79,0.71c0.02,0.41-0.29,0.77-0.71,0.79l-96.63,5.33C25.21,169.65,25.2,169.65,25.18,169.65z"/>
			</g>
		</g>
		<g id="Star_00000038396325795989392040000007722216279838720143_">
			<g>
				<circle class="st7" cx="257.09" cy="9.23" r="8.23"/>
				<path class="st5" d="M257.1,18.47c-0.95,0-1.91-0.15-2.84-0.45l0,0c-4.84-1.56-7.51-6.77-5.95-11.62
					c0.76-2.35,2.38-4.26,4.57-5.38c2.19-1.12,4.69-1.33,7.04-0.57c2.35,0.76,4.26,2.38,5.38,4.58c1.12,2.19,1.33,4.69,0.57,7.04
					s-2.38,4.26-4.57,5.38C259.97,18.12,258.54,18.47,257.1,18.47z M254.87,16.11c1.84,0.59,3.8,0.43,5.51-0.45
					c1.72-0.88,2.99-2.38,3.58-4.21c0.59-1.84,0.43-3.8-0.45-5.51c-0.88-1.72-2.38-2.99-4.22-3.58c-1.84-0.59-3.8-0.43-5.51,0.45
					c-1.72,0.88-2.99,2.38-3.58,4.21C248.98,10.81,251.07,14.89,254.87,16.11L254.87,16.11z"/>
			</g>
			<g>
				<circle class="st7" cx="160.62" cy="216.93" r="6.17"/>
				<path class="st5" d="M160.63,224.1c-0.74,0-1.48-0.12-2.21-0.35l0,0c-3.76-1.21-5.83-5.26-4.62-9.02
					c1.21-3.76,5.26-5.84,9.02-4.62c1.82,0.59,3.31,1.85,4.18,3.55c0.87,1.7,1.03,3.65,0.44,5.47c-0.59,1.82-1.85,3.31-3.55,4.18
					C162.86,223.83,161.75,224.1,160.63,224.1z M159.04,221.84c1.32,0.43,2.71,0.31,3.94-0.32c1.23-0.63,2.14-1.7,2.56-3.01
					c0.42-1.31,0.31-2.71-0.32-3.94c-0.63-1.23-1.7-2.14-3.01-2.56c-2.71-0.87-5.63,0.62-6.5,3.33
					C154.83,218.05,156.32,220.97,159.04,221.84L159.04,221.84z"/>
			</g>
			<g>
				<circle class="st6" cx="200.47" cy="175.95" r="3.45"/>
				<path class="st5" d="M200.48,180.4c-0.25,0-0.51-0.02-0.77-0.07c-1.17-0.2-2.19-0.85-2.88-1.82c-1.41-2-0.93-4.78,1.07-6.2
					c0.97-0.68,2.15-0.95,3.32-0.75c1.17,0.2,2.19,0.85,2.88,1.82c0.68,0.97,0.95,2.15,0.75,3.32c-0.2,1.17-0.85,2.19-1.82,2.88
					C202.28,180.12,201.39,180.4,200.48,180.4z M200.47,173.51c-0.5,0-0.99,0.15-1.4,0.45c-1.1,0.78-1.37,2.31-0.59,3.41
					c0.38,0.53,0.94,0.89,1.58,1c0.64,0.11,1.29-0.03,1.83-0.41c0.53-0.38,0.89-0.94,1-1.58c0.11-0.64-0.04-1.29-0.41-1.83
					c-0.38-0.53-0.94-0.89-1.58-1C200.75,173.52,200.61,173.51,200.47,173.51z"/>
			</g>
			<g>
				<circle class="st7" cx="124.83" cy="161.91" r="3.45"/>
				<path class="st5" d="M124.83,166.36c-0.65,0-1.29-0.14-1.89-0.43c-2.22-1.04-3.17-3.7-2.13-5.92c0.51-1.07,1.4-1.89,2.52-2.29
					c1.12-0.4,2.32-0.35,3.4,0.16c2.22,1.04,3.17,3.7,2.13,5.92c-0.5,1.07-1.4,1.89-2.52,2.29
					C125.85,166.27,125.34,166.36,124.83,166.36z M124.83,159.46c-0.28,0-0.56,0.05-0.83,0.15c-0.61,0.22-1.11,0.67-1.38,1.26
					c-0.57,1.22-0.05,2.68,1.17,3.26c0.59,0.28,1.25,0.31,1.87,0.09c0.62-0.22,1.11-0.67,1.39-1.26c0.57-1.22,0.05-2.68-1.17-3.25
					C125.54,159.54,125.19,159.46,124.83,159.46z"/>
			</g>
			<g>
				<circle class="st6" cx="181.3" cy="138.24" r="3.45"/>
				<path class="st5" d="M181.29,142.68c-0.63,0-1.28-0.14-1.89-0.42c-1.07-0.51-1.89-1.4-2.29-2.52c-0.4-1.12-0.34-2.32,0.16-3.4
					l0,0c1.04-2.22,3.7-3.17,5.92-2.13c1.07,0.5,1.89,1.4,2.29,2.52c0.4,1.12,0.34,2.33-0.16,3.4
					C184.57,141.74,182.96,142.68,181.29,142.68z M181.31,135.79c-0.92,0-1.8,0.52-2.22,1.4c0,0,0,0,0,0
					c-0.28,0.59-0.31,1.25-0.09,1.87s0.67,1.11,1.26,1.38c1.22,0.57,2.68,0.05,3.26-1.17c0.28-0.59,0.31-1.25,0.09-1.87
					c-0.22-0.62-0.67-1.11-1.26-1.39C182.01,135.87,181.65,135.79,181.31,135.79z M178.18,136.77L178.18,136.77L178.18,136.77z"/>
			</g>
			<g>
				<path class="st5" d="M237.2,85.94c-12.04-1.08-12.94-1.98-14.07-14.01c-1.08,12.04-1.98,12.94-14.01,14.07
					c12.04,1.08,12.94,1.98,14.07,14.01C224.27,87.97,225.17,87.07,237.2,85.94z"/>
				<path class="st5" d="M223.19,101.01c-0.52,0-0.95-0.39-1-0.91c-1.09-11.58-1.58-12.07-13.16-13.11
					c-0.51-0.05-0.91-0.48-0.91-0.99s0.39-0.95,0.91-1c11.58-1.09,12.07-1.58,13.11-13.16c0.05-0.51,0.48-0.91,0.99-0.91
					c0,0,0,0,0,0c0.52,0,0.95,0.39,1,0.91c1.09,11.58,1.58,12.07,13.16,13.11c0.51,0.05,0.91,0.48,0.91,0.99s-0.39,0.95-0.91,1
					c-11.58,1.09-12.07,1.58-13.11,13.16C224.14,100.61,223.71,101,223.19,101.01C223.19,101.01,223.19,101.01,223.19,101.01z
					 M216.41,85.98c4.07,0.95,5.79,2.67,6.76,6.73c0.95-4.07,2.67-5.79,6.74-6.76c-4.07-0.95-5.79-2.67-6.76-6.74
					C222.19,83.29,220.48,85.01,216.41,85.98z"/>
			</g>
			<g>
				<path class="st5" d="M9.45,149.24c6.71,16.11,6.17,17.86-8.45,27.4c16.11-6.71,17.86-6.17,27.4,8.45
					c-6.71-16.11-6.17-17.86,8.45-27.4C20.73,164.39,18.98,163.85,9.45,149.24z"/>
				<path class="st5" d="M28.4,186.08c-0.33,0-0.65-0.16-0.84-0.45c-9.28-14.22-10.5-14.6-26.17-8.07c-0.48,0.2-1.03,0-1.27-0.46
					c-0.24-0.46-0.1-1.02,0.34-1.31c14.22-9.28,14.6-10.5,8.07-26.17c-0.2-0.48,0-1.03,0.46-1.27c0.46-0.24,1.02-0.09,1.31,0.34
					c9.28,14.22,10.5,14.6,26.17,8.07c0.48-0.2,1.03,0,1.27,0.46c0.24,0.46,0.1,1.02-0.34,1.31c-14.22,9.28-14.6,10.5-8.07,26.17
					c0.2,0.48,0,1.03-0.46,1.27C28.71,186.04,28.55,186.08,28.4,186.08z M14.74,171.47c3.75,0,6.41,1.89,9.75,6.21
					c-2.5-7.68-1.43-11.14,4.96-16.08c-7.68,2.5-11.14,1.43-16.08-4.96c2.5,7.68,1.43,11.14-4.96,16.08
					C10.89,171.91,12.94,171.47,14.74,171.47z"/>
			</g>
		</g>
	</g>
</g>
<g id="Guide">
</g>
</svg>
