<?xml version="1.0" encoding="utf-8"?>
<!-- Generator: Adobe Illustrator 26.1.0, SVG Export Plug-In . SVG Version: 6.00 Build 0)  -->
<svg version="1.1" xmlns="http://www.w3.org/2000/svg" xmlns:xlink="http://www.w3.org/1999/xlink" x="0px" y="0px"
	 viewBox="0 0 227.82 227.82" style="enable-background:new 0 0 227.82 227.82;" xml:space="preserve">
<style type="text/css">
	.st0{fill:#FFFFFF;}
	.st1{fill:#EAD9EB;}
	.st2{fill:#95608F;}
	.st3{fill:#ED859E;}
	.st4{fill:#FAC87D;}
	.st5{fill:#554B4E;}
	.st6{fill:#F8F4E9;}
	.st7{fill:#BFA071;}
	.st8{fill:#F2DED6;}
</style>
<g id="Bg">
</g>
<g id="Graphic">
	<g id="Small_sun_00000138557475811036731120000017245074546672128418_">
		<g id="Circle_00000078763722696529681470000009151739151293396666_">
			<circle class="st6" cx="113.91" cy="113.91" r="63.23"/>
			<path class="st5" d="M113.91,178.14c-35.42,0-64.23-28.82-64.23-64.23s28.82-64.23,64.23-64.23s64.23,28.82,64.23,64.23
				S149.33,178.14,113.91,178.14z M113.91,51.68c-34.32,0-62.23,27.92-62.23,62.23s27.92,62.23,62.23,62.23s62.23-27.92,62.23-62.23
				S148.23,51.68,113.91,51.68z"/>
		</g>
		<g id="Shine_00000098927075804660504660000001948437530147731343_">
			<g>
				<path class="st5" d="M122.87,51.31c-0.27-0.7-0.51-1.4-0.71-2.09c-3.01-10.2,4.07-15.53,3.7-25.78
					c-0.29-8.05-6.66-18.6-14.54-22.45c3.24,7.16,5.75,15.92,1.5,22.54c-2.38,3.7-6.33,6.03-8.73,9.7
					c-3.62,5.54-1.5,12.15,0.38,18.14c3.08-0.46,6.24-0.7,9.46-0.7C116.95,50.68,119.94,50.9,122.87,51.31z"/>
				<path class="st5" d="M104.45,52.38c-0.43,0-0.82-0.28-0.95-0.7l-0.05-0.15c-1.91-6.07-4.07-12.95-0.21-18.83
					c1.25-1.91,2.89-3.47,4.47-4.97c1.6-1.52,3.12-2.96,4.25-4.73c3.24-5.04,2.72-12.1-1.57-21.59c-0.17-0.38-0.09-0.84,0.21-1.13
					c0.3-0.29,0.76-0.37,1.14-0.18c7.87,3.83,14.78,14.51,15.1,23.31c0.17,4.67-1.13,8.31-2.38,11.82
					c-1.52,4.26-2.96,8.29-1.36,13.71c0.17,0.59,0.39,1.23,0.69,2.02c0.12,0.33,0.07,0.7-0.15,0.98c-0.22,0.28-0.58,0.42-0.92,0.37
					c-6.02-0.86-12.16-0.83-18.12,0.07C104.55,52.38,104.5,52.38,104.45,52.38z M113.42,3.44c3.44,8.76,3.51,15.53,0.23,20.64
					c-1.27,1.97-2.94,3.56-4.56,5.1c-1.57,1.49-3.05,2.9-4.18,4.62c-3.21,4.91-1.55,10.77,0.24,16.48
					c5.35-0.73,10.82-0.79,16.23-0.16c-0.07-0.21-0.13-0.41-0.19-0.6c-1.79-6.05-0.17-10.57,1.39-14.95
					c1.19-3.33,2.42-6.78,2.26-11.07C124.59,16.44,119.51,7.79,113.42,3.44z"/>
			</g>
			<g>
				<path class="st5" d="M104.95,176.51c0.27,0.7,0.51,1.4,0.71,2.09c3.01,10.2-4.07,15.53-3.7,25.78
					c0.29,8.05,6.66,18.6,14.54,22.45c-3.24-7.16-5.75-15.92-1.5-22.54c2.38-3.7,6.33-6.03,8.73-9.7c3.62-5.54,1.5-12.15-0.38-18.14
					c-3.08,0.46-6.24,0.7-9.46,0.7C110.87,177.14,107.88,176.92,104.95,176.51z"/>
				<path class="st5" d="M116.52,227.82c-0.15,0-0.3-0.03-0.44-0.1c-7.87-3.83-14.78-14.51-15.1-23.31
					c-0.17-4.67,1.12-8.31,2.38-11.82c1.52-4.26,2.96-8.29,1.36-13.71c-0.18-0.6-0.4-1.26-0.69-2.01c-0.13-0.33-0.07-0.7,0.15-0.98
					c0.22-0.28,0.57-0.42,0.92-0.37c6.02,0.85,12.17,0.82,18.12-0.07c0.48-0.06,0.95,0.22,1.1,0.69l0.05,0.16
					c1.9,6.07,4.06,12.94,0.21,18.83c-1.25,1.91-2.89,3.47-4.47,4.97c-1.6,1.52-3.12,2.96-4.25,4.73
					c-3.24,5.04-2.72,12.1,1.57,21.59c0.17,0.38,0.09,0.84-0.21,1.13C117.02,227.72,116.77,227.82,116.52,227.82z M106.44,177.71
					c0.07,0.21,0.13,0.41,0.19,0.6c1.79,6.05,0.17,10.57-1.39,14.95c-1.19,3.33-2.42,6.78-2.26,11.08
					c0.26,7.04,5.34,15.69,11.43,20.05c-3.44-8.76-3.51-15.53-0.23-20.64c1.27-1.97,2.94-3.56,4.56-5.1
					c1.57-1.49,3.05-2.9,4.18-4.62c3.21-4.91,1.55-10.77-0.24-16.48C117.32,178.28,111.85,178.34,106.44,177.71z"/>
			</g>
			<g>
				<path class="st5" d="M88.71,53.77C81,46.44,84.46,38.28,79.02,29.6c-4.28-6.82-15.07-12.78-23.82-12.17
					c6.39,4.58,12.94,10.91,12.57,18.77c-0.21,4.4-2.46,8.39-2.71,12.77c-0.37,6.61,4.78,11.28,9.4,15.53
					c4.78-3.82,10.13-6.96,15.9-9.28C89.78,54.74,89.23,54.26,88.71,53.77z"/>
				<path class="st5" d="M74.46,65.49c-0.24,0-0.49-0.09-0.68-0.26l-0.12-0.11c-4.69-4.3-10-9.18-9.6-16.2
					c0.13-2.28,0.77-4.45,1.39-6.54c0.63-2.12,1.22-4.12,1.32-6.22c0.28-5.98-3.69-11.84-12.15-17.91
					c-0.34-0.25-0.49-0.68-0.38-1.08c0.11-0.41,0.47-0.7,0.89-0.72c8.74-0.62,20.06,5.17,24.74,12.63
					c2.48,3.96,3.18,7.76,3.85,11.43c0.81,4.45,1.58,8.65,5.68,12.55l0,0c0.45,0.43,0.96,0.87,1.6,1.39
					c0.27,0.22,0.41,0.58,0.36,0.92c-0.05,0.35-0.29,0.65-0.62,0.78c-5.62,2.26-10.89,5.33-15.65,9.13
					C74.9,65.42,74.68,65.49,74.46,65.49z M58.25,18.48c7.36,5.86,10.8,11.7,10.52,17.76c-0.11,2.34-0.77,4.55-1.4,6.69
					c-0.62,2.08-1.2,4.04-1.31,6.09c-0.33,5.86,4.05,10.1,8.46,14.16c4.3-3.34,8.98-6.12,13.96-8.26c-0.16-0.14-0.31-0.28-0.46-0.42
					c-4.57-4.35-5.43-9.07-6.27-13.64c-0.64-3.48-1.3-7.08-3.58-10.72C74.43,24.16,65.7,19.21,58.25,18.48z"/>
			</g>
			<g>
				<path class="st5" d="M139.12,174.05c7.71,7.33,4.24,15.49,9.69,24.17c4.28,6.82,15.07,12.78,23.82,12.17
					c-6.39-4.58-12.94-10.91-12.57-18.77c0.21-4.4,2.46-8.39,2.71-12.77c0.37-6.61-4.78-11.28-9.4-15.53
					c-4.78,3.82-10.13,6.96-15.9,9.28C138.04,173.08,138.6,173.56,139.12,174.05z"/>
				<path class="st5" d="M171.4,211.43c-8.52,0-18.99-5.58-23.44-12.68c-2.48-3.96-3.18-7.76-3.85-11.43
					c-0.81-4.45-1.58-8.65-5.68-12.55l0,0c-0.45-0.43-0.96-0.87-1.6-1.39c-0.27-0.22-0.41-0.58-0.36-0.92
					c0.05-0.35,0.29-0.65,0.62-0.78c5.63-2.26,10.89-5.33,15.65-9.13c0.38-0.31,0.94-0.29,1.3,0.04l0.13,0.12
					c4.68,4.3,9.99,9.18,9.6,16.2c-0.13,2.28-0.77,4.45-1.39,6.54c-0.63,2.12-1.22,4.12-1.32,6.22
					c-0.28,5.98,3.69,11.84,12.15,17.91c0.34,0.25,0.49,0.68,0.38,1.08c-0.11,0.41-0.47,0.7-0.89,0.72
					C172.27,211.42,171.83,211.43,171.4,211.43z M139.8,173.33c4.57,4.35,5.43,9.07,6.27,13.64c0.64,3.48,1.3,7.08,3.58,10.72
					c3.74,5.97,12.47,10.92,19.92,11.65c-7.36-5.86-10.8-11.7-10.52-17.76c0.11-2.34,0.77-4.55,1.4-6.69
					c0.61-2.07,1.2-4.03,1.31-6.08c0.33-5.86-4.05-10.1-8.46-14.16c-4.29,3.34-8.98,6.12-13.96,8.27
					C139.51,173.05,139.66,173.19,139.8,173.33L139.8,173.33z"/>
			</g>
			<g>
				<path class="st5" d="M62.01,74.43C51.67,71.93,50.6,63.14,41.54,58.34c-7.12-3.77-19.44-3.54-26.71,1.37
					c7.83,0.78,16.66,2.98,20.27,9.97c2.02,3.91,2.06,8.5,4.04,12.41c2.98,5.91,9.77,7.37,15.89,8.74
					c2.27-5.79,5.37-11.17,9.16-15.98C63.44,74.73,62.71,74.6,62.01,74.43z"/>
				<path class="st5" d="M55.02,91.83c-0.07,0-0.14-0.01-0.22-0.02l-0.16-0.03c-6.21-1.38-13.24-2.95-16.41-9.23
					c-1.03-2.04-1.56-4.24-2.07-6.36c-0.51-2.15-1-4.18-1.96-6.04c-2.75-5.32-9.12-8.41-19.48-9.43c-0.42-0.04-0.77-0.34-0.87-0.75
					c-0.1-0.41,0.06-0.84,0.41-1.07c7.25-4.9,19.96-5.55,27.74-1.42c4.13,2.19,6.63,5.13,9.05,7.97c2.93,3.45,5.7,6.7,11.2,8.03l0,0
					c0.61,0.15,1.28,0.28,2.09,0.41c0.35,0.06,0.64,0.29,0.77,0.62s0.07,0.7-0.15,0.98c-3.76,4.79-6.8,10.08-9.01,15.73
					C55.8,91.59,55.43,91.83,55.02,91.83z M17.99,59.1c9.3,1.4,15.21,4.73,17.99,10.13c1.07,2.08,1.61,4.33,2.13,6.49
					c0.5,2.11,0.98,4.09,1.91,5.93c2.64,5.23,8.54,6.72,14.38,8.03c2.05-5.03,4.73-9.77,7.98-14.13c-0.21-0.04-0.42-0.09-0.61-0.14
					l0,0c-6.13-1.48-9.24-5.14-12.25-8.68c-2.29-2.7-4.66-5.49-8.46-7.5C34.84,55.93,24.81,56,17.99,59.1z"/>
			</g>
			<g>
				<path class="st5" d="M165.81,153.39c10.34,2.49,11.42,11.29,20.47,16.09c7.11,3.77,19.44,3.54,26.71-1.37
					c-7.83-0.78-16.66-2.98-20.27-9.97c-2.02-3.91-2.06-8.5-4.04-12.41c-2.98-5.91-9.77-7.37-15.89-8.74
					c-2.27,5.79-5.37,11.17-9.16,15.98C164.38,153.09,165.11,153.22,165.81,153.39z"/>
				<path class="st5" d="M198.14,173.08c-4.47,0-8.88-0.89-12.33-2.71c-4.13-2.19-6.63-5.13-9.05-7.97
					c-2.93-3.45-5.7-6.7-11.19-8.03c-0.61-0.15-1.28-0.28-2.09-0.41c-0.35-0.06-0.64-0.29-0.77-0.62s-0.07-0.7,0.15-0.98
					c3.76-4.79,6.8-10.08,9.01-15.73c0.18-0.46,0.66-0.72,1.15-0.61l0.15,0.03c6.21,1.38,13.24,2.95,16.42,9.23
					c1.03,2.04,1.56,4.24,2.07,6.36c0.52,2.15,1,4.18,1.97,6.04c2.75,5.32,9.12,8.41,19.48,9.43c0.42,0.04,0.77,0.34,0.87,0.75
					c0.1,0.41-0.06,0.84-0.41,1.07C209.51,171.67,203.78,173.08,198.14,173.08z M165.43,152.28c0.21,0.04,0.42,0.09,0.62,0.14
					c0,0,0,0,0,0c6.13,1.48,9.24,5.14,12.25,8.68c2.29,2.7,4.66,5.49,8.46,7.5c6.23,3.3,16.26,3.22,23.08,0.13
					c-9.3-1.4-15.2-4.73-17.99-10.13c-1.08-2.08-1.61-4.33-2.13-6.5c-0.5-2.1-0.98-4.09-1.91-5.93c-2.64-5.23-8.54-6.72-14.38-8.03
					C171.36,143.18,168.68,147.92,165.43,152.28z"/>
			</g>
			<g>
				<path class="st5" d="M51.31,104.95c-0.7,0.27-1.4,0.51-2.09,0.71c-10.2,3.01-15.53-4.07-25.78-3.7
					c-8.05,0.29-18.6,6.66-22.45,14.54c7.16-3.24,15.92-5.75,22.54-1.5c3.7,2.38,6.03,6.33,9.7,8.73c5.54,3.62,12.15,1.5,18.14-0.38
					c-0.46-3.09-0.7-6.24-0.7-9.46C50.68,110.87,50.9,107.88,51.31,104.95z"/>
				<path class="st5" d="M40.24,126.72c-2.6,0-5.16-0.57-7.55-2.14c-1.91-1.25-3.47-2.89-4.97-4.48c-1.52-1.6-2.96-3.12-4.72-4.25
					c-5.04-3.24-12.1-2.72-21.59,1.57c-0.38,0.17-0.83,0.09-1.13-0.21c-0.29-0.3-0.37-0.76-0.18-1.14
					c3.83-7.87,14.51-14.78,23.31-15.1c4.67-0.17,8.31,1.13,11.82,2.38c4.26,1.52,8.28,2.96,13.71,1.36c0.6-0.18,1.24-0.4,2.01-0.69
					c0.33-0.13,0.7-0.07,0.98,0.15s0.42,0.57,0.37,0.92c-0.41,2.92-0.62,5.89-0.62,8.82c0,3.11,0.23,6.24,0.69,9.31
					c0.07,0.49-0.22,0.96-0.69,1.1l-0.15,0.05C47.93,125.5,44.04,126.72,40.24,126.72z M15.35,111.76c3.33,0,6.23,0.8,8.73,2.41
					c1.97,1.27,3.56,2.94,5.09,4.56c1.49,1.57,2.9,3.05,4.62,4.18c4.91,3.21,10.77,1.55,16.48-0.24c-0.39-2.89-0.59-5.83-0.59-8.76
					c0-2.48,0.15-4.99,0.43-7.47c-0.21,0.07-0.41,0.13-0.6,0.19c-6.05,1.79-10.57,0.17-14.95-1.39c-3.33-1.19-6.77-2.41-11.08-2.26
					c-7.04,0.26-15.69,5.34-20.05,11.43C7.91,112.64,11.87,111.76,15.35,111.76z"/>
			</g>
			<g>
				<path class="st5" d="M176.51,122.87c0.7-0.27,1.4-0.51,2.09-0.71c10.2-3.01,15.53,4.07,25.78,3.7
					c8.05-0.29,18.6-6.66,22.45-14.54c-7.16,3.24-15.92,5.75-22.54,1.5c-3.7-2.38-6.03-6.33-9.7-8.73
					c-5.54-3.62-12.15-1.5-18.14,0.38c0.46,3.08,0.7,6.24,0.7,9.46C177.14,116.95,176.92,119.94,176.51,122.87z"/>
				<path class="st5" d="M203.58,126.86c-4.28,0-7.69-1.22-10.99-2.39c-4.26-1.52-8.29-2.96-13.71-1.36
					c-0.6,0.18-1.24,0.4-2.02,0.69c-0.33,0.12-0.7,0.07-0.98-0.15c-0.28-0.22-0.42-0.57-0.37-0.92c0.42-2.92,0.62-5.89,0.62-8.82
					c0-3.11-0.23-6.24-0.69-9.31c-0.07-0.49,0.22-0.96,0.69-1.1l0.16-0.05c6.07-1.91,12.94-4.06,18.83-0.21
					c1.91,1.25,3.47,2.89,4.97,4.47c1.52,1.6,2.96,3.12,4.73,4.25c5.04,3.24,12.1,2.72,21.59-1.57c0.38-0.17,0.83-0.09,1.13,0.21
					c0.29,0.3,0.37,0.76,0.18,1.14c-3.83,7.87-14.51,14.78-23.31,15.1C204.13,126.86,203.85,126.86,203.58,126.86z M183.57,120.41
					c3.6,0,6.68,1.1,9.69,2.17c3.33,1.19,6.77,2.41,11.08,2.26c7.04-0.26,15.69-5.34,20.05-11.43c-8.76,3.44-15.53,3.51-20.64,0.23
					c-1.97-1.27-3.56-2.94-5.1-4.56c-1.49-1.57-2.9-3.05-4.61-4.18c-4.91-3.21-10.77-1.55-16.48,0.24c0.39,2.89,0.59,5.84,0.59,8.76
					c0,2.48-0.15,4.99-0.43,7.47c0.21-0.07,0.41-0.13,0.6-0.19C180.2,120.64,181.94,120.41,183.57,120.41z"/>
			</g>
			<g>
				<path class="st5" d="M53.77,139.11c-7.33,7.71-15.49,4.24-24.17,9.69c-6.82,4.28-12.78,15.07-12.17,23.82
					c4.58-6.39,10.91-12.94,18.77-12.57c4.4,0.21,8.39,2.46,12.77,2.71c6.61,0.37,11.28-4.78,15.53-9.4
					c-3.82-4.78-6.96-10.13-9.28-15.9C54.74,138.04,54.26,138.6,53.77,139.11z"/>
				<path class="st5" d="M17.43,173.62c-0.09,0-0.18-0.01-0.27-0.04c-0.41-0.11-0.7-0.47-0.72-0.89
					c-0.61-8.73,5.17-20.06,12.63-24.74c3.96-2.48,7.76-3.18,11.43-3.85c4.45-0.81,8.65-1.58,12.55-5.68l0,0
					c0.43-0.45,0.87-0.96,1.39-1.6c0.22-0.27,0.58-0.41,0.92-0.36c0.35,0.05,0.65,0.29,0.78,0.62c2.26,5.63,5.33,10.89,9.13,15.65
					c0.31,0.38,0.29,0.94-0.04,1.3l-0.12,0.13c-4.3,4.68-9.16,10.02-16.2,9.6c-2.28-0.13-4.45-0.77-6.54-1.39
					c-2.12-0.63-4.12-1.22-6.22-1.32c-5.97-0.29-11.84,3.69-17.91,12.15C18.05,173.47,17.75,173.62,17.43,173.62z M54.49,139.8
					c-4.35,4.57-9.07,5.43-13.64,6.27c-3.48,0.64-7.08,1.3-10.72,3.58c-5.97,3.74-10.92,12.47-11.65,19.92
					c5.86-7.36,11.7-10.8,17.76-10.52c2.34,0.11,4.55,0.77,6.69,1.4c2.07,0.61,4.03,1.2,6.08,1.31c5.87,0.34,10.1-4.05,14.16-8.46
					c-3.34-4.29-6.12-8.98-8.27-13.96C54.77,139.51,54.63,139.66,54.49,139.8L54.49,139.8z"/>
			</g>
			<g>
				<path class="st5" d="M174.05,88.71c7.33-7.71,15.49-4.24,24.17-9.69c6.82-4.28,12.78-15.07,12.17-23.82
					c-4.58,6.39-10.91,12.94-18.77,12.57c-4.4-0.21-8.39-2.46-12.77-2.71c-6.61-0.37-11.28,4.78-15.53,9.4
					c3.82,4.78,6.96,10.13,9.28,15.9C173.08,89.78,173.56,89.23,174.05,88.71z"/>
				<path class="st5" d="M172.61,91.36c-0.05,0-0.1,0-0.15-0.01c-0.35-0.05-0.65-0.29-0.78-0.62c-2.26-5.62-5.33-10.89-9.13-15.65
					c-0.31-0.38-0.29-0.94,0.04-1.3l0.11-0.12c4.3-4.69,9.18-10.03,16.2-9.6c2.28,0.13,4.45,0.77,6.54,1.39
					c2.12,0.63,4.12,1.22,6.22,1.32c5.98,0.28,11.84-3.69,17.91-12.15c0.25-0.34,0.68-0.49,1.08-0.38c0.41,0.11,0.7,0.47,0.72,0.89
					c0.61,8.73-5.17,20.06-12.63,24.74c-3.96,2.48-7.76,3.18-11.43,3.85c-4.45,0.81-8.65,1.58-12.55,5.68l0,0
					c-0.43,0.45-0.87,0.96-1.39,1.6C173.19,91.23,172.91,91.36,172.61,91.36z M174.05,88.71L174.05,88.71L174.05,88.71z
					 M164.64,74.51c3.34,4.3,6.12,8.98,8.26,13.96c0.14-0.16,0.28-0.31,0.42-0.46c4.35-4.57,9.07-5.43,13.64-6.27
					c3.48-0.64,7.08-1.3,10.72-3.58c5.97-3.74,10.92-12.47,11.65-19.92c-5.86,7.36-11.72,10.79-17.76,10.52
					c-2.34-0.11-4.55-0.77-6.69-1.4c-2.08-0.62-4.04-1.2-6.09-1.31C172.94,65.72,168.7,70.1,164.64,74.51z"/>
			</g>
			<g>
				<path class="st5" d="M74.43,165.81c-2.49,10.34-11.29,11.42-16.09,20.47c-3.77,7.12-3.54,19.44,1.37,26.71
					c0.78-7.83,2.98-16.66,9.97-20.27c3.91-2.02,8.5-2.06,12.41-4.04c5.91-2.98,7.37-9.77,8.74-15.89
					c-5.79-2.27-11.17-5.37-15.98-9.16C74.73,164.38,74.6,165.11,74.43,165.81z"/>
				<path class="st5" d="M59.71,214c-0.33,0-0.64-0.16-0.83-0.44c-4.9-7.25-5.55-19.96-1.42-27.74c2.19-4.13,5.13-6.63,7.97-9.05
					c3.45-2.93,6.7-5.7,8.03-11.19l0,0c0.15-0.61,0.28-1.28,0.41-2.09c0.06-0.35,0.29-0.64,0.62-0.77c0.33-0.13,0.7-0.07,0.98,0.15
					c4.79,3.76,10.08,6.8,15.73,9.01c0.46,0.18,0.72,0.67,0.61,1.15l-0.03,0.15c-1.38,6.21-2.95,13.24-9.23,16.42
					c-2.04,1.03-4.24,1.56-6.36,2.07c-2.15,0.51-4.18,1-6.04,1.96c-5.32,2.75-8.41,9.12-9.43,19.48c-0.04,0.42-0.34,0.77-0.75,0.87
					C59.87,213.99,59.79,214,59.71,214z M75.54,165.43c-0.04,0.21-0.09,0.42-0.14,0.62c0,0,0,0,0,0c-1.48,6.13-5.14,9.24-8.68,12.25
					c-2.7,2.29-5.49,4.66-7.5,8.46c-3.3,6.23-3.22,16.26-0.13,23.08c1.4-9.3,4.73-15.21,10.13-17.99c2.08-1.07,4.33-1.61,6.49-2.13
					c2.11-0.5,4.09-0.98,5.93-1.91c5.23-2.64,6.72-8.54,8.03-14.38C84.65,171.36,79.9,168.68,75.54,165.43z M74.43,165.81
					L74.43,165.81L74.43,165.81z"/>
			</g>
			<g>
				<path class="st5" d="M153.39,62.01c2.49-10.34,11.29-11.42,16.09-20.47c3.77-7.11,3.54-19.44-1.37-26.71
					c-0.78,7.83-2.98,16.66-9.97,20.27c-3.91,2.02-8.5,2.06-12.41,4.04c-5.91,2.98-7.37,9.77-8.74,15.89
					c5.79,2.27,11.17,5.37,15.98,9.16C153.09,63.44,153.22,62.71,153.39,62.01z"/>
				<path class="st5" d="M152.97,65.18c-0.22,0-0.44-0.07-0.62-0.21c-4.79-3.76-10.08-6.8-15.73-9.01
					c-0.46-0.18-0.72-0.67-0.61-1.15l0.03-0.16c1.38-6.21,2.95-13.24,9.23-16.41c2.04-1.03,4.24-1.56,6.36-2.07
					c2.15-0.52,4.18-1,6.04-1.97c5.32-2.75,8.41-9.12,9.43-19.48c0.04-0.42,0.34-0.77,0.75-0.87c0.41-0.1,0.84,0.06,1.07,0.41
					c4.9,7.25,5.55,19.96,1.42,27.74c-2.19,4.13-5.13,6.63-7.97,9.05c-3.45,2.93-6.7,5.7-8.03,11.19c-0.15,0.61-0.28,1.28-0.41,2.09
					c-0.06,0.35-0.29,0.64-0.62,0.77C153.21,65.16,153.09,65.18,152.97,65.18z M138.15,54.41c5.03,2.05,9.77,4.73,14.13,7.98
					c0.04-0.21,0.09-0.42,0.14-0.62c0,0,0,0,0,0c1.48-6.13,5.14-9.24,8.68-12.25c2.7-2.29,5.49-4.66,7.5-8.46
					c3.3-6.23,3.22-16.26,0.13-23.08c-1.4,9.3-4.73,15.2-10.13,17.99c-2.08,1.08-4.33,1.61-6.5,2.13c-2.1,0.5-4.09,0.98-5.93,1.91
					C140.95,42.67,139.46,48.57,138.15,54.41z"/>
			</g>
		</g>
	</g>
</g>
<g id="Guide">
</g>
</svg>
