<?xml version="1.0" encoding="utf-8"?>
<!-- Generator: Adobe Illustrator 26.1.0, SVG Export Plug-In . SVG Version: 6.00 Build 0)  -->
<svg version="1.1" xmlns="http://www.w3.org/2000/svg" xmlns:xlink="http://www.w3.org/1999/xlink" x="0px" y="0px"
	 viewBox="0 0 278.78 278.78" style="enable-background:new 0 0 278.78 278.78;" xml:space="preserve">
<style type="text/css">
	.st0{fill:#FFFFFF;}
	.st1{fill:#EAD9EB;}
	.st2{fill:#95608F;}
	.st3{fill:#ED859E;}
	.st4{fill:#FAC87D;}
	.st5{fill:#554B4E;}
	.st6{fill:#F8F4E9;}
	.st7{fill:#BFA071;}
	.st8{fill:#F2DED6;}
</style>
<g id="Bg">
</g>
<g id="Graphic">
	<g id="Moon_aura_2_00000012440912313666800670000007635164719020424623_">
		<g id="Line_00000000191100575755419260000018307059090540384431_">
			<g>
				<g>
					<path class="st5" d="M95.77,140.14h-15c-0.41,0-0.75-0.34-0.75-0.75s0.34-0.75,0.75-0.75h15c0.41,0,0.75,0.34,0.75,0.75
						S96.18,140.14,95.77,140.14z"/>
				</g>
				<g>
					<path class="st5" d="M67.76,140.14H28.75c-0.41,0-0.75-0.34-0.75-0.75s0.34-0.75,0.75-0.75h39.01c0.41,0,0.75,0.34,0.75,0.75
						S68.18,140.14,67.76,140.14z"/>
				</g>
				<g>
					<path class="st5" d="M15.75,140.14h-15c-0.41,0-0.75-0.34-0.75-0.75s0.34-0.75,0.75-0.75h15c0.41,0,0.75,0.34,0.75,0.75
						S16.16,140.14,15.75,140.14z"/>
				</g>
			</g>
			<g>
				<g>
					<path class="st5" d="M278.03,140.14h-15c-0.41,0-0.75-0.34-0.75-0.75s0.34-0.75,0.75-0.75h15c0.41,0,0.75,0.34,0.75,0.75
						S278.44,140.14,278.03,140.14z"/>
				</g>
				<g>
					<path class="st5" d="M250.03,140.14h-39.01c-0.41,0-0.75-0.34-0.75-0.75s0.34-0.75,0.75-0.75h39.01c0.41,0,0.75,0.34,0.75,0.75
						S250.44,140.14,250.03,140.14z"/>
				</g>
				<g>
					<path class="st5" d="M198.01,140.14h-15c-0.41,0-0.75-0.34-0.75-0.75s0.34-0.75,0.75-0.75h15c0.41,0,0.75,0.34,0.75,0.75
						S198.42,140.14,198.01,140.14z"/>
				</g>
			</g>
			<g>
				<g>
					<path class="st5" d="M92.95,166.95c-0.26,0-0.51-0.13-0.65-0.38c-0.21-0.36-0.08-0.82,0.27-1.02l8.66-5
						c0.36-0.21,0.82-0.08,1.02,0.27c0.21,0.36,0.08,0.82-0.27,1.02l-8.66,5C93.21,166.92,93.08,166.95,92.95,166.95z"/>
				</g>
				<g>
					<path class="st5" d="M67.57,181.61c-0.26,0-0.51-0.13-0.65-0.38c-0.21-0.36-0.08-0.82,0.27-1.02l12.69-7.33
						c0.36-0.21,0.82-0.08,1.02,0.27c0.21,0.36,0.08,0.82-0.27,1.02l-12.69,7.33C67.82,181.58,67.69,181.61,67.57,181.61z"/>
				</g>
				<g>
					<path class="st5" d="M46.21,193.94c-0.26,0-0.51-0.13-0.65-0.38c-0.21-0.36-0.08-0.82,0.27-1.02l8.66-5
						c0.36-0.21,0.82-0.08,1.02,0.27c0.21,0.36,0.08,0.82-0.27,1.02l-8.66,5C46.47,193.9,46.34,193.94,46.21,193.94z"/>
				</g>
			</g>
			<g>
				<g>
					<path class="st5" d="M223.91,91.34c-0.26,0-0.51-0.13-0.65-0.38c-0.21-0.36-0.08-0.82,0.27-1.02l8.66-5
						c0.36-0.21,0.82-0.08,1.02,0.27c0.21,0.36,0.08,0.82-0.27,1.02l-8.66,5C224.16,91.31,224.04,91.34,223.91,91.34z"/>
				</g>
				<g>
					<path class="st5" d="M198.52,106c-0.26,0-0.51-0.13-0.65-0.38c-0.21-0.36-0.08-0.82,0.27-1.02l12.69-7.33
						c0.36-0.21,0.82-0.08,1.02,0.27s0.08,0.82-0.27,1.02l-12.69,7.33C198.78,105.97,198.65,106,198.52,106z"/>
				</g>
				<g>
					<path class="st5" d="M177.17,118.33c-0.26,0-0.51-0.13-0.65-0.38c-0.21-0.36-0.08-0.82,0.27-1.02l8.66-5
						c0.36-0.21,0.82-0.08,1.02,0.27c0.21,0.36,0.08,0.82-0.27,1.02l-8.66,5C177.42,118.3,177.29,118.33,177.17,118.33z"/>
				</g>
			</g>
			<g>
				<g>
					<path class="st5" d="M112.58,186.58c-0.13,0-0.26-0.03-0.37-0.1c-0.36-0.21-0.48-0.67-0.27-1.02l5-8.66
						c0.21-0.36,0.67-0.48,1.02-0.27c0.36,0.21,0.48,0.67,0.27,1.02l-5,8.66C113.09,186.44,112.84,186.58,112.58,186.58z"/>
				</g>
				<g>
					<path class="st5" d="M97.92,211.96c-0.13,0-0.26-0.03-0.37-0.1c-0.36-0.21-0.48-0.67-0.27-1.02l7.33-12.69
						c0.21-0.36,0.66-0.48,1.02-0.27c0.36,0.21,0.48,0.67,0.27,1.02l-7.33,12.69C98.43,211.83,98.18,211.96,97.92,211.96z"/>
				</g>
				<g>
					<path class="st5" d="M85.59,233.32c-0.13,0-0.26-0.03-0.37-0.1c-0.36-0.21-0.48-0.67-0.27-1.02l5-8.66
						c0.21-0.36,0.66-0.48,1.02-0.27c0.36,0.21,0.48,0.67,0.27,1.02l-5,8.66C86.1,233.18,85.85,233.32,85.59,233.32z"/>
				</g>
			</g>
			<g>
				<g>
					<path class="st5" d="M188.18,55.62c-0.13,0-0.26-0.03-0.37-0.1c-0.36-0.21-0.48-0.67-0.27-1.02l5-8.66
						c0.21-0.36,0.67-0.48,1.02-0.27c0.36,0.21,0.48,0.67,0.27,1.02l-5,8.66C188.7,55.49,188.44,55.62,188.18,55.62z"/>
				</g>
				<g>
					<path class="st5" d="M173.53,81.01c-0.13,0-0.26-0.03-0.37-0.1c-0.36-0.21-0.48-0.67-0.27-1.02l7.33-12.69
						c0.21-0.36,0.67-0.48,1.02-0.27c0.36,0.21,0.48,0.67,0.27,1.02l-7.33,12.69C174.04,80.87,173.79,81.01,173.53,81.01z"/>
				</g>
				<g>
					<path class="st5" d="M161.2,102.36c-0.13,0-0.26-0.03-0.37-0.1c-0.36-0.21-0.48-0.67-0.27-1.02l5-8.66
						c0.21-0.36,0.66-0.48,1.02-0.27c0.36,0.21,0.48,0.67,0.27,1.02l-5,8.66C161.71,102.23,161.46,102.36,161.2,102.36z"/>
				</g>
			</g>
			<g>
				<g>
					<path class="st5" d="M139.39,198.76c-0.41,0-0.75-0.34-0.75-0.75v-15c0-0.41,0.34-0.75,0.75-0.75s0.75,0.34,0.75,0.75v15
						C140.14,198.42,139.8,198.76,139.39,198.76z"/>
				</g>
				<g>
					<path class="st5" d="M139.39,250.78c-0.41,0-0.75-0.34-0.75-0.75v-39.01c0-0.41,0.34-0.75,0.75-0.75s0.75,0.34,0.75,0.75v39.01
						C140.14,250.44,139.8,250.78,139.39,250.78z"/>
				</g>
				<g>
					<path class="st5" d="M139.39,278.78c-0.41,0-0.75-0.34-0.75-0.75v-15c0-0.41,0.34-0.75,0.75-0.75s0.75,0.34,0.75,0.75v15
						C140.14,278.44,139.8,278.78,139.39,278.78z"/>
				</g>
			</g>
			<g>
				<g>
					<path class="st5" d="M139.39,16.5c-0.41,0-0.75-0.34-0.75-0.75v-15c0-0.41,0.34-0.75,0.75-0.75s0.75,0.34,0.75,0.75v15
						C140.14,16.16,139.8,16.5,139.39,16.5z"/>
				</g>
				<g>
					<path class="st5" d="M139.39,68.52c-0.41,0-0.75-0.34-0.75-0.75V28.75c0-0.41,0.34-0.75,0.75-0.75s0.75,0.34,0.75,0.75v39.01
						C140.14,68.18,139.8,68.52,139.39,68.52z"/>
				</g>
				<g>
					<path class="st5" d="M139.39,96.52c-0.41,0-0.75-0.34-0.75-0.75v-15c0-0.41,0.34-0.75,0.75-0.75s0.75,0.34,0.75,0.75v15
						C140.14,96.18,139.8,96.52,139.39,96.52z"/>
				</g>
			</g>
			<g>
				<g>
					<path class="st5" d="M166.2,186.58c-0.26,0-0.51-0.13-0.65-0.38l-5-8.66c-0.21-0.36-0.08-0.82,0.27-1.02
						c0.36-0.21,0.82-0.08,1.02,0.27l5,8.66c0.21,0.36,0.08,0.82-0.27,1.02C166.46,186.54,166.33,186.58,166.2,186.58z"/>
				</g>
				<g>
					<path class="st5" d="M180.86,211.96c-0.26,0-0.51-0.13-0.65-0.38l-7.33-12.69c-0.21-0.36-0.08-0.82,0.27-1.02
						c0.36-0.21,0.82-0.08,1.02,0.27l7.33,12.69c0.21,0.36,0.08,0.82-0.27,1.02C181.11,211.93,180.99,211.96,180.86,211.96z"/>
				</g>
				<g>
					<path class="st5" d="M193.19,233.32c-0.26,0-0.51-0.13-0.65-0.38l-5-8.66c-0.21-0.36-0.08-0.82,0.27-1.02
						c0.36-0.21,0.82-0.08,1.02,0.27l5,8.66c0.21,0.36,0.08,0.82-0.27,1.02C193.44,233.29,193.31,233.32,193.19,233.32z"/>
				</g>
			</g>
			<g>
				<g>
					<path class="st5" d="M90.59,55.62c-0.26,0-0.51-0.13-0.65-0.38l-5-8.66c-0.21-0.36-0.08-0.82,0.27-1.02
						c0.36-0.21,0.82-0.08,1.02,0.27l5,8.66c0.21,0.36,0.08,0.82-0.27,1.02C90.85,55.59,90.72,55.62,90.59,55.62z"/>
				</g>
				<g>
					<path class="st5" d="M105.25,81.01c-0.26,0-0.51-0.13-0.65-0.38l-7.33-12.69c-0.21-0.36-0.08-0.82,0.27-1.02
						c0.36-0.21,0.82-0.08,1.02,0.27l7.33,12.69c0.21,0.36,0.08,0.82-0.27,1.02C105.51,80.98,105.38,81.01,105.25,81.01z"/>
				</g>
				<g>
					<path class="st5" d="M117.58,102.36c-0.26,0-0.51-0.13-0.65-0.38l-5-8.66c-0.21-0.36-0.08-0.82,0.27-1.02
						c0.36-0.21,0.82-0.08,1.02,0.27l5,8.66c0.21,0.36,0.08,0.82-0.27,1.02C117.84,102.33,117.71,102.36,117.58,102.36z"/>
				</g>
			</g>
			<g>
				<g>
					<path class="st5" d="M185.83,166.95c-0.13,0-0.26-0.03-0.37-0.1l-8.66-5c-0.36-0.21-0.48-0.67-0.27-1.02
						c0.21-0.36,0.66-0.48,1.02-0.27l8.66,5c0.36,0.21,0.48,0.67,0.27,1.02C186.34,166.82,186.09,166.95,185.83,166.95z"/>
				</g>
				<g>
					<path class="st5" d="M211.21,181.61c-0.13,0-0.26-0.03-0.37-0.1l-12.69-7.33c-0.36-0.21-0.48-0.67-0.27-1.02
						c0.21-0.36,0.66-0.48,1.02-0.27l12.69,7.33c0.36,0.21,0.48,0.67,0.27,1.02C211.72,181.47,211.47,181.61,211.21,181.61z"/>
				</g>
				<g>
					<path class="st5" d="M232.57,193.94c-0.13,0-0.26-0.03-0.37-0.1l-8.66-5c-0.36-0.21-0.48-0.67-0.27-1.02
						c0.21-0.36,0.66-0.48,1.02-0.27l8.66,5c0.36,0.21,0.48,0.67,0.27,1.02C233.08,193.8,232.83,193.94,232.57,193.94z"/>
				</g>
			</g>
			<g>
				<g>
					<path class="st5" d="M54.87,91.34c-0.13,0-0.26-0.03-0.37-0.1l-8.66-5c-0.36-0.21-0.48-0.67-0.27-1.02
						c0.21-0.36,0.66-0.48,1.02-0.27l8.66,5c0.36,0.21,0.48,0.67,0.27,1.02C55.38,91.21,55.13,91.34,54.87,91.34z"/>
				</g>
				<g>
					<path class="st5" d="M80.26,106c-0.13,0-0.26-0.03-0.37-0.1l-12.69-7.33c-0.36-0.21-0.48-0.67-0.27-1.02
						c0.21-0.36,0.66-0.48,1.02-0.27l12.69,7.33c0.36,0.21,0.48,0.67,0.27,1.02C80.77,105.87,80.52,106,80.26,106z"/>
				</g>
				<g>
					<path class="st5" d="M101.61,118.33c-0.13,0-0.26-0.03-0.37-0.1l-8.66-5c-0.36-0.21-0.48-0.67-0.27-1.02
						c0.21-0.36,0.66-0.48,1.02-0.27l8.66,5c0.36,0.21,0.48,0.67,0.27,1.02C102.12,118.19,101.87,118.33,101.61,118.33z"/>
				</g>
			</g>
		</g>
		<g id="Moon_00000088096494305515510170000016233185861289143952_">
			<g>
				<circle class="st8" cx="139.39" cy="139.39" r="43.62"/>
				<path class="st5" d="M139.39,184.01c-24.6,0-44.62-20.02-44.62-44.62s20.02-44.62,44.62-44.62s44.62,20.02,44.62,44.62
					S163.99,184.01,139.39,184.01z M139.39,96.77c-23.5,0-42.62,19.12-42.62,42.62s19.12,42.62,42.62,42.62s42.62-19.12,42.62-42.62
					S162.89,96.77,139.39,96.77z"/>
			</g>
			<g>
				<path class="st5" d="M160.28,166.28c-0.3,0-0.6-0.13-0.79-0.39c-0.34-0.44-0.26-1.06,0.18-1.4
					c9.51-7.34,14.25-20.35,12.06-33.15c-0.09-0.54,0.27-1.06,0.82-1.15c0.55-0.09,1.06,0.27,1.15,0.82
					c2.31,13.52-2.72,27.29-12.81,35.07C160.71,166.21,160.5,166.28,160.28,166.28z"/>
			</g>
			<g>
				<path class="st5" d="M149.77,163.27c-0.38,0-0.75-0.22-0.92-0.59c-0.22-0.5,0-1.1,0.51-1.32c7.17-3.18,10.69-6.82,12.53-12.97
					c0.16-0.53,0.72-0.83,1.25-0.67c0.53,0.16,0.83,0.72,0.67,1.25c-2.01,6.7-5.96,10.82-13.64,14.23
					C150.04,163.25,149.9,163.27,149.77,163.27z"/>
			</g>
			<g>
				<path class="st5" d="M146.97,172.55c-0.49,0-0.91-0.36-0.99-0.85c-0.08-0.55,0.29-1.06,0.84-1.14c3.15-0.47,6.25-1.6,8.97-3.26
					c0.47-0.29,1.09-0.14,1.38,0.33c0.29,0.47,0.14,1.09-0.33,1.38c-2.94,1.8-6.3,3.03-9.71,3.54
					C147.07,172.54,147.02,172.55,146.97,172.55z"/>
			</g>
			<g>
				<path class="st5" d="M119.21,120.03c1.1-0.97,1.21-2.63,0.25-3.73c-0.47-0.53-1.11-0.85-1.81-0.9c-0.7-0.05-1.39,0.18-1.92,0.65
					c-0.04,0.04-0.08,0.07-0.12,0.11c-0.46,0.45-0.74,1.05-0.78,1.7c-0.05,0.7,0.18,1.39,0.65,1.92
					C116.44,120.88,118.12,120.99,119.21,120.03z"/>
			</g>
			<g>
				<path class="st5" d="M130.57,115.32c1.24,0.24,2.45-0.58,2.69-1.82c0.24-1.24-0.58-2.45-1.82-2.69
					c-0.77-0.15-1.53,0.11-2.05,0.62c-0.32,0.31-0.55,0.72-0.64,1.2C128.51,113.88,129.33,115.08,130.57,115.32z"/>
			</g>
			<g>
				<path class="st5" d="M111.23,139.84c0.52,0.04,1.03-0.14,1.42-0.48c0.4-0.34,0.63-0.82,0.67-1.35c0.04-0.52-0.14-1.03-0.48-1.42
					c-0.35-0.4-0.82-0.63-1.35-0.67c-0.52-0.04-1.03,0.14-1.42,0.48c-0.03,0.03-0.06,0.05-0.09,0.08c-0.34,0.34-0.55,0.78-0.58,1.26
					c-0.04,0.52,0.14,1.03,0.48,1.42C110.22,139.57,110.7,139.81,111.23,139.84z"/>
			</g>
		</g>
	</g>
</g>
<g id="Guide">
</g>
</svg>
