<?xml version="1.0" encoding="utf-8"?>
<!-- Generator: Adobe Illustrator 26.1.0, SVG Export Plug-In . SVG Version: 6.00 Build 0)  -->
<svg version="1.1" xmlns="http://www.w3.org/2000/svg" xmlns:xlink="http://www.w3.org/1999/xlink" x="0px" y="0px"
	 viewBox="0 0 1979.1 1296.76" style="enable-background:new 0 0 1979.1 1296.76;" xml:space="preserve">
<style type="text/css">
	.st0{fill:#FFFFFF;}
	.st1{fill:#EAD9EB;}
	.st2{fill:#95608F;}
	.st3{fill:#ED859E;}
	.st4{fill:#FAC87D;}
	.st5{fill:#554B4E;}
	.st6{fill:#F8F4E9;}
	.st7{fill:#BFA071;}
	.st8{fill:#F2DED6;}
</style>
<g id="Bg">
</g>
<g id="Graphic">
	<g id="Sparkling_stars_00000139263354305555098070000014758125304220354698_">
		<g id="Dot_00000144328000578911111930000001312349929535139725_">
			<g>
				<circle class="st5" cx="971.39" cy="983.35" r="2.11"/>
				<path class="st5" d="M971.4,986.21c-0.9,0-1.79-0.42-2.34-1.22c-0.9-1.29-0.59-3.07,0.7-3.98l0,0c0,0,0,0,0,0l0,0
					c1.29-0.9,3.07-0.59,3.98,0.7c0.9,1.29,0.59,3.08-0.7,3.98C972.54,986.04,971.96,986.21,971.4,986.21z M971.39,982
					c-0.27,0-0.54,0.08-0.78,0.24h0c-0.61,0.43-0.76,1.28-0.33,1.89c0.43,0.61,1.28,0.76,1.89,0.33c0.61-0.43,0.76-1.28,0.33-1.89
					C972.24,982.2,971.82,982,971.39,982z M970.19,981.63L970.19,981.63L970.19,981.63z"/>
			</g>
			<g>
				<circle class="st5" cx="1004.13" cy="1052.07" r="3.41"/>
				<path class="st5" d="M1004.14,1056.23c-1.31,0-2.6-0.62-3.41-1.77c-0.64-0.91-0.88-2.01-0.69-3.11c0.19-1.09,0.8-2.05,1.71-2.69
					c0.91-0.64,2.01-0.88,3.11-0.69c1.09,0.19,2.05,0.8,2.68,1.71c0.64,0.91,0.88,2.01,0.69,3.11c-0.19,1.09-0.8,2.05-1.71,2.69
					C1005.8,1055.99,1004.96,1056.23,1004.14,1056.23z M1004.13,1049.41c-0.53,0-1.06,0.16-1.52,0.48
					c-0.58,0.41-0.97,1.02-1.09,1.72c-0.12,0.7,0.03,1.41,0.44,1.99c0.84,1.2,2.5,1.49,3.71,0.65c0.58-0.41,0.97-1.02,1.09-1.72
					c0.12-0.7-0.03-1.41-0.44-1.99C1005.8,1049.81,1004.97,1049.41,1004.13,1049.41z"/>
			</g>
			<g>
				<circle class="st5" cx="283.1" cy="1234.34" r="2.11"/>
				<path class="st5" d="M283.09,1237.2c-0.5,0-1-0.13-1.44-0.39c-0.66-0.39-1.13-1.01-1.32-1.75c-0.19-0.74-0.08-1.51,0.3-2.17
					c0.39-0.66,1.01-1.13,1.75-1.32c0.74-0.19,1.51-0.08,2.17,0.3c0.66,0.39,1.13,1.01,1.32,1.75c0.4,1.52-0.52,3.09-2.05,3.48
					C283.58,1237.17,283.33,1237.2,283.09,1237.2z M283.1,1232.98c-0.11,0-0.23,0.01-0.34,0.04c-0.35,0.09-0.64,0.31-0.83,0.63
					s-0.23,0.68-0.14,1.03c0.19,0.72,0.92,1.16,1.65,0.97c0.72-0.19,1.16-0.93,0.97-1.65c-0.09-0.35-0.31-0.64-0.63-0.83
					C283.57,1233.05,283.34,1232.98,283.1,1232.98z"/>
			</g>
			<g>
				<circle class="st5" cx="1436.51" cy="1115.97" r="2.11"/>
				<path class="st5" d="M1436.5,1118.83c-0.5,0-1-0.13-1.44-0.39c-0.66-0.39-1.13-1.01-1.32-1.75l0,0
					c-0.19-0.74-0.08-1.51,0.3-2.17c0.39-0.66,1.01-1.13,1.75-1.32c0.74-0.19,1.51-0.08,2.17,0.3c0.66,0.39,1.13,1.01,1.32,1.75
					c0.4,1.52-0.52,3.09-2.05,3.48C1436.99,1118.79,1436.74,1118.83,1436.5,1118.83z M1436.51,1114.61c-0.11,0-0.23,0.01-0.34,0.04
					c-0.35,0.09-0.64,0.31-0.83,0.63s-0.23,0.68-0.14,1.03l0,0c0.09,0.35,0.31,0.64,0.63,0.83c0.31,0.18,0.68,0.23,1.03,0.14
					c0.35-0.09,0.64-0.31,0.83-0.63s0.23-0.68,0.14-1.03C1437.66,1115.02,1437.11,1114.61,1436.51,1114.61z"/>
			</g>
			<g>
				<circle class="st5" cx="1788.95" cy="985.46" r="2.11"/>
				<path class="st5" d="M1788.95,988.32c-1.27,0-2.43-0.85-2.76-2.14l0,0c-0.19-0.74-0.08-1.51,0.3-2.17
					c0.39-0.66,1.01-1.13,1.75-1.32c1.53-0.4,3.09,0.52,3.48,2.05c0.4,1.52-0.52,3.09-2.05,3.48
					C1789.43,988.29,1789.19,988.32,1788.95,988.32z M1788.95,984.1c-0.11,0-0.23,0.01-0.34,0.04c-0.35,0.09-0.64,0.31-0.83,0.63
					s-0.23,0.68-0.14,1.03l0,0c0.09,0.35,0.31,0.64,0.63,0.83c0.31,0.18,0.68,0.23,1.03,0.14c0.72-0.19,1.16-0.93,0.97-1.65
					c-0.09-0.35-0.31-0.64-0.63-0.83C1789.43,984.17,1789.19,984.1,1788.95,984.1z"/>
			</g>
			<g>
				<circle class="st5" cx="1777.68" cy="893.06" r="3.41"/>
				<path class="st5" d="M1777.68,897.22c-1.85,0-3.54-1.24-4.03-3.12c-0.28-1.08-0.12-2.2,0.44-3.15c0.56-0.96,1.46-1.64,2.54-1.92
					c2.23-0.58,4.5,0.76,5.07,2.98c0.28,1.08,0.12,2.2-0.44,3.15s-1.46,1.64-2.54,1.92
					C1778.38,897.17,1778.03,897.22,1777.68,897.22z M1777.68,890.39c-0.22,0-0.45,0.03-0.67,0.09c-0.69,0.18-1.26,0.62-1.62,1.23
					c-0.36,0.61-0.46,1.33-0.28,2.02l0,0c0.18,0.69,0.62,1.26,1.23,1.62s1.33,0.46,2.02,0.28c0.69-0.18,1.26-0.62,1.62-1.23
					c0.36-0.61,0.46-1.33,0.28-2.02s-0.62-1.26-1.23-1.62C1778.61,890.52,1778.15,890.39,1777.68,890.39z"/>
			</g>
			<g>
				<circle class="st5" cx="1304.3" cy="709.87" r="2.11"/>
				<path class="st5" d="M1304.3,712.73c-1.17,0-2.27-0.72-2.69-1.88c-0.54-1.48,0.23-3.12,1.71-3.66c0.72-0.26,1.49-0.23,2.18,0.1
					c0.69,0.32,1.22,0.89,1.48,1.61c0.26,0.72,0.23,1.49-0.1,2.19c-0.32,0.69-0.89,1.22-1.61,1.48
					C1304.96,712.67,1304.63,712.73,1304.3,712.73z M1304.3,708.52c-0.15,0-0.31,0.03-0.46,0.08c-0.7,0.26-1.07,1.04-0.81,1.74
					c0.26,0.7,1.04,1.07,1.74,0.81c0.34-0.12,0.61-0.37,0.77-0.7c0.15-0.33,0.17-0.7,0.04-1.04l0,0
					C1305.37,708.86,1304.85,708.52,1304.3,708.52z"/>
			</g>
			<g>
				<circle class="st5" cx="1229.65" cy="710.39" r="3.41"/>
				<path class="st5" d="M1229.65,714.55c-0.6,0-1.2-0.13-1.76-0.39c-1.01-0.47-1.77-1.3-2.15-2.35c-0.38-1.04-0.33-2.17,0.14-3.18
					c0.47-1.01,1.3-1.77,2.35-2.15c1.05-0.38,2.18-0.33,3.18,0.14c1.01,0.47,1.77,1.3,2.15,2.35c0.38,1.04,0.33,2.17-0.14,3.18
					c-0.47,1.01-1.3,1.77-2.35,2.15C1230.61,714.47,1230.13,714.55,1229.65,714.55z M1229.65,707.73c-0.3,0-0.61,0.05-0.91,0.16
					c-0.67,0.24-1.2,0.73-1.5,1.38c-0.3,0.64-0.33,1.37-0.09,2.03c0.24,0.67,0.73,1.2,1.38,1.5c0.64,0.3,1.36,0.33,2.03,0.09
					c0.67-0.24,1.2-0.73,1.5-1.38c0.3-0.64,0.33-1.37,0.09-2.03c0,0,0,0,0,0C1231.76,708.4,1230.73,707.73,1229.65,707.73z"/>
			</g>
			<g>
				<circle class="st5" cx="1310.52" cy="99.89" r="2.11"/>
				<path class="st5" d="M1310.52,102.75c-1.58,0-2.86-1.28-2.86-2.86s1.28-2.86,2.86-2.86s2.86,1.28,2.86,2.86
					S1312.1,102.75,1310.52,102.75z M1310.52,98.54c-0.75,0-1.36,0.61-1.36,1.36s0.61,1.36,1.36,1.36s1.36-0.61,1.36-1.36
					S1311.27,98.54,1310.52,98.54z"/>
			</g>
			<g>
				<circle class="st5" cx="1191.27" cy="128.46" r="3.41"/>
				<path class="st5" d="M1191.27,132.62c-2.29,0-4.16-1.87-4.16-4.16s1.87-4.16,4.16-4.16s4.16,1.87,4.16,4.16
					S1193.57,132.62,1191.27,132.62z M1191.27,125.8c-1.47,0-2.66,1.19-2.66,2.66s1.19,2.66,2.66,2.66s2.66-1.19,2.66-2.66
					S1192.74,125.8,1191.27,125.8z"/>
			</g>
			<g>
				<circle class="st5" cx="268.36" cy="775.45" r="2.11"/>
				<path class="st5" d="M268.36,778.31c-1.58,0-2.86-1.28-2.86-2.86s1.28-2.86,2.86-2.86s2.86,1.28,2.86,2.86
					S269.93,778.31,268.36,778.31z M268.36,774.09c-0.75,0-1.36,0.61-1.36,1.36s0.61,1.36,1.36,1.36s1.36-0.61,1.36-1.36
					S269.1,774.09,268.36,774.09z"/>
			</g>
			<g>
				<circle class="st5" cx="59.17" cy="650.15" r="2.11"/>
				<path class="st5" d="M59.17,653.01c-1.58,0-2.86-1.28-2.86-2.86s1.28-2.86,2.86-2.86s2.86,1.28,2.86,2.86
					S60.75,653.01,59.17,653.01z M59.17,648.8c-0.75,0-1.36,0.61-1.36,1.36s0.61,1.36,1.36,1.36s1.36-0.61,1.36-1.36
					S59.92,648.8,59.17,648.8z"/>
			</g>
			<g>
				<circle class="st5" cx="227.97" cy="644.76" r="3.41"/>
				<path class="st5" d="M227.97,648.92c-2.29,0-4.16-1.87-4.16-4.16s1.87-4.16,4.16-4.16s4.16,1.87,4.16,4.16
					S230.26,648.92,227.97,648.92z M227.97,642.1c-1.47,0-2.66,1.19-2.66,2.66s1.19,2.66,2.66,2.66s2.66-1.19,2.66-2.66
					S229.43,642.1,227.97,642.1z"/>
			</g>
			<g>
				<circle class="st5" cx="660.11" cy="110.12" r="2.11"/>
				<path class="st5" d="M660.11,112.97c-1.26,0-2.42-0.84-2.76-2.11c-0.41-1.52,0.5-3.09,2.02-3.5c1.52-0.41,3.09,0.5,3.5,2.02
					c0.2,0.74,0.1,1.51-0.28,2.17s-1,1.13-1.73,1.33C660.61,112.94,660.36,112.97,660.11,112.97z M660.11,108.76
					c-0.12,0-0.23,0.01-0.35,0.05c-0.72,0.19-1.15,0.94-0.96,1.66s0.95,1.15,1.66,0.96h0c0.35-0.09,0.64-0.32,0.82-0.63
					c0.18-0.31,0.23-0.68,0.13-1.03C661.26,109.16,660.71,108.76,660.11,108.76z"/>
			</g>
			<g>
				<circle class="st5" cx="582.12" cy="38.85" r="3.41"/>
				<path class="st5" d="M582.12,43.01c-1.83,0-3.52-1.22-4.02-3.08c-0.29-1.07-0.14-2.2,0.41-3.16c0.55-0.96,1.45-1.65,2.52-1.94
					c1.07-0.29,2.19-0.14,3.16,0.41s1.65,1.45,1.94,2.52c0.6,2.22-0.72,4.5-2.94,5.1C582.84,42.97,582.48,43.01,582.12,43.01z
					 M582.12,36.19c-0.23,0-0.47,0.03-0.7,0.09c-0.69,0.18-1.26,0.62-1.62,1.24c-0.35,0.62-0.45,1.33-0.26,2.02
					c0.18,0.69,0.62,1.26,1.24,1.61c0.62,0.36,1.33,0.45,2.02,0.26c1.42-0.38,2.26-1.84,1.88-3.26c-0.18-0.69-0.62-1.26-1.24-1.61
					C583.04,36.31,582.58,36.19,582.12,36.19z"/>
			</g>
			<g>
				<circle class="st5" cx="1974.94" cy="38.85" r="3.41"/>
				<path class="st5" d="M1974.94,43.01c-2.29,0-4.16-1.87-4.16-4.16s1.87-4.16,4.16-4.16s4.16,1.87,4.16,4.16
					S1977.23,43.01,1974.94,43.01z M1974.94,36.19c-1.47,0-2.66,1.19-2.66,2.66s1.19,2.66,2.66,2.66s2.66-1.19,2.66-2.66
					S1976.4,36.19,1974.94,36.19z"/>
			</g>
		</g>
		<g id="Star_00000167381169032679684340000008768582228806135177_">
			<g>
				<path class="st5" d="M384.92,1283.24c-7.18-0.18-12.78-1.53-12.78-1.53s5.59-1.35,12.78-1.53c0.18-7.18,1.53-12.78,1.53-12.78
					s1.35,5.59,1.53,12.78c7.18,0.18,12.78,1.53,12.78,1.53s-5.59,1.35-12.78,1.53c-0.18,7.18-1.53,12.78-1.53,12.78
					S385.09,1290.42,384.92,1283.24z"/>
				<path class="st5" d="M386.45,1296.76c-0.35,0-0.65-0.24-0.73-0.57c-0.05-0.22-1.29-5.39-1.53-12.22
					c-6.83-0.24-12-1.48-12.22-1.53c-0.34-0.08-0.57-0.38-0.57-0.73s0.24-0.65,0.57-0.73c0.22-0.05,5.39-1.29,12.22-1.53
					c0.24-6.83,1.48-12,1.53-12.22c0.08-0.34,0.38-0.57,0.73-0.57s0.65,0.24,0.73,0.57c0.05,0.22,1.29,5.39,1.53,12.22
					c6.83,0.24,12,1.48,12.22,1.53c0.34,0.08,0.57,0.38,0.57,0.73s-0.24,0.65-0.57,0.73c-0.22,0.05-5.39,1.29-12.22,1.53
					c-0.24,6.83-1.48,12-1.53,12.22C387.1,1296.53,386.79,1296.76,386.45,1296.76z M376.24,1281.7c2.25,0.34,5.31,0.7,8.7,0.78
					c0.4,0.01,0.72,0.33,0.73,0.73c0.08,3.4,0.44,6.45,0.78,8.7c0.34-2.25,0.7-5.31,0.78-8.7c0.01-0.4,0.33-0.72,0.73-0.73
					c3.39-0.08,6.45-0.44,8.7-0.78c-2.25-0.34-5.31-0.7-8.7-0.78c-0.4-0.01-0.72-0.33-0.73-0.73c-0.08-3.4-0.44-6.45-0.78-8.7
					c-0.34,2.25-0.7,5.31-0.78,8.7c-0.01,0.4-0.33,0.72-0.73,0.73C381.54,1281.01,378.49,1281.36,376.24,1281.7z"/>
			</g>
			<g>
				<path class="st5" d="M1397.44,622.26c-5.29-0.13-9.42-1.13-9.42-1.13s4.12-1,9.42-1.13c0.13-5.29,1.13-9.42,1.13-9.42
					s1,4.12,1.13,9.42c5.29,0.13,9.42,1.13,9.42,1.13s-4.12,1-9.42,1.13c-0.13,5.29-1.13,9.42-1.13,9.42
					S1397.57,627.55,1397.44,622.26z"/>
				<path class="st5" d="M1398.57,632.42c-0.35,0-0.65-0.24-0.73-0.57c-0.04-0.16-0.93-3.9-1.13-8.87c-4.96-0.2-8.7-1.09-8.87-1.13
					c-0.34-0.08-0.57-0.38-0.57-0.73s0.24-0.65,0.57-0.73c0.16-0.04,3.9-0.93,8.87-1.13c0.2-4.96,1.09-8.7,1.13-8.87
					c0.08-0.34,0.38-0.57,0.73-0.57s0.65,0.24,0.73,0.57c0.04,0.16,0.93,3.9,1.13,8.87c4.96,0.2,8.7,1.09,8.87,1.13
					c0.34,0.08,0.57,0.38,0.57,0.73s-0.24,0.65-0.57,0.73c-0.16,0.04-3.9,0.93-8.87,1.13c-0.2,4.96-1.09,8.7-1.13,8.87
					C1399.22,632.19,1398.92,632.42,1398.57,632.42z M1392.47,621.13c1.43,0.18,3.14,0.33,4.99,0.38c0.4,0.01,0.72,0.33,0.73,0.73
					c0.05,1.85,0.2,3.55,0.38,4.99c0.18-1.43,0.33-3.14,0.38-4.99c0.01-0.4,0.33-0.72,0.73-0.73c1.85-0.05,3.55-0.2,4.99-0.38
					c-1.43-0.18-3.14-0.33-4.99-0.38c-0.4-0.01-0.72-0.33-0.73-0.73c-0.05-1.85-0.2-3.55-0.38-4.99c-0.18,1.43-0.33,3.14-0.38,4.99
					c-0.01,0.4-0.33,0.72-0.73,0.73C1395.61,620.8,1393.91,620.95,1392.47,621.13z"/>
			</g>
			<g>
				<path class="st5" d="M1666.25,1100.05c-9.56-0.24-17.01-2.04-17.01-2.04s7.45-1.8,17.01-2.04c0.24-9.56,2.04-17.01,2.04-17.01
					s1.8,7.45,2.04,17.01c9.56,0.24,17.01,2.04,17.01,2.04s-7.45,1.8-17.01,2.04c-0.24,9.56-2.04,17.01-2.04,17.01
					S1666.48,1109.61,1666.25,1100.05z"/>
				<path class="st5" d="M1668.29,1117.81c-0.35,0-0.65-0.24-0.73-0.57c-0.02-0.07-1.74-7.26-2.04-16.46
					c-9.2-0.3-16.39-2.02-16.46-2.04c-0.34-0.08-0.57-0.38-0.57-0.73s0.24-0.65,0.57-0.73c0.07-0.02,7.26-1.74,16.46-2.04
					c0.3-9.19,2.02-16.38,2.04-16.46c0.08-0.34,0.38-0.57,0.73-0.57s0.65,0.24,0.73,0.57c0.02,0.07,1.74,7.26,2.04,16.46
					c9.19,0.3,16.38,2.02,16.46,2.04c0.34,0.08,0.57,0.38,0.57,0.73s-0.24,0.65-0.57,0.73c-0.07,0.02-7.26,1.74-16.46,2.04
					c-0.3,9.19-2.02,16.38-2.04,16.46C1668.94,1117.57,1668.63,1117.81,1668.29,1117.81z M1653.13,1098.01
					c3.07,0.52,7.79,1.16,13.14,1.29c0.4,0.01,0.72,0.33,0.73,0.73c0.13,5.35,0.77,10.06,1.29,13.14c0.52-3.07,1.16-7.79,1.29-13.14
					c0.01-0.4,0.33-0.72,0.73-0.73c5.35-0.13,10.07-0.77,13.14-1.29c-3.07-0.52-7.79-1.16-13.14-1.29c-0.4-0.01-0.72-0.33-0.73-0.73
					c-0.13-5.35-0.77-10.07-1.29-13.14c-0.52,3.07-1.16,7.79-1.29,13.14c-0.01,0.4-0.33,0.72-0.73,0.73
					C1660.92,1096.85,1656.2,1097.49,1653.13,1098.01z"/>
			</g>
			<g>
				<path class="st5" d="M1401.1,21.84c-9.56-0.24-17.01-2.04-17.01-2.04s7.45-1.8,17.01-2.04c0.24-9.56,2.04-17.01,2.04-17.01
					s1.8,7.45,2.04,17.01c9.56,0.24,17.01,2.04,17.01,2.04s-7.45,1.8-17.01,2.04c-0.24,9.56-2.04,17.01-2.04,17.01
					S1401.33,31.4,1401.1,21.84z"/>
				<path class="st5" d="M1403.13,39.6L1403.13,39.6c-0.35,0-0.65-0.24-0.73-0.57c-0.02-0.07-1.74-7.26-2.04-16.46
					c-9.2-0.3-16.39-2.02-16.46-2.04c-0.34-0.08-0.57-0.38-0.57-0.73s0.24-0.65,0.57-0.73c0.07-0.02,7.26-1.74,16.46-2.04
					c0.3-9.19,2.02-16.38,2.04-16.46c0.08-0.34,0.38-0.57,0.73-0.57s0.65,0.24,0.73,0.57c0.02,0.07,1.74,7.26,2.04,16.46
					c9.19,0.3,16.38,2.02,16.46,2.04c0.34,0.08,0.57,0.38,0.57,0.73s-0.24,0.65-0.57,0.73c-0.07,0.02-7.26,1.74-16.46,2.04
					c-0.3,9.2-2.02,16.39-2.04,16.46C1403.78,39.37,1403.48,39.6,1403.13,39.6z M1387.98,19.8c3.07,0.52,7.79,1.16,13.14,1.29
					c0.4,0.01,0.72,0.33,0.73,0.73c0.13,5.35,0.77,10.07,1.29,13.14c0.52-3.07,1.16-7.79,1.29-13.14c0.01-0.4,0.33-0.72,0.73-0.73
					c5.35-0.13,10.07-0.77,13.14-1.29c-3.07-0.52-7.79-1.16-13.14-1.29c-0.4-0.01-0.72-0.33-0.73-0.73
					c-0.13-5.35-0.77-10.07-1.29-13.14c-0.52,3.07-1.16,7.79-1.29,13.14c-0.01,0.4-0.33,0.72-0.73,0.73
					C1395.76,18.64,1391.05,19.28,1387.98,19.8z"/>
			</g>
			<g>
				<path class="st5" d="M21.84,563.43c9.56-0.24,17.01-2.04,17.01-2.04s-7.45-1.8-17.01-2.04c-0.24-9.56-2.04-17.01-2.04-17.01
					s-1.8,7.45-2.04,17.01c-9.56,0.24-17.01,2.04-17.01,2.04s7.45,1.8,17.01,2.04c0.24,9.56,2.04,17.01,2.04,17.01
					S21.6,572.99,21.84,563.43z"/>
				<path class="st5" d="M19.8,581.19L19.8,581.19c-0.35,0-0.65-0.24-0.73-0.57c-0.02-0.07-1.74-7.26-2.04-16.46
					c-9.2-0.3-16.39-2.02-16.46-2.04C0.24,562.04,0,561.74,0,561.39s0.24-0.65,0.57-0.73c0.07-0.02,7.26-1.74,16.46-2.04
					c0.3-9.19,2.02-16.38,2.04-16.46c0.08-0.34,0.38-0.57,0.73-0.57s0.65,0.24,0.73,0.57c0.02,0.07,1.74,7.26,2.04,16.46
					c9.19,0.3,16.38,2.02,16.46,2.04c0.34,0.08,0.57,0.38,0.57,0.73s-0.24,0.65-0.57,0.73c-0.07,0.02-7.26,1.74-16.46,2.04
					c-0.3,9.19-2.02,16.38-2.04,16.46C20.45,580.95,20.15,581.19,19.8,581.19z M4.64,561.39c3.07,0.52,7.79,1.16,13.14,1.29
					c0.4,0.01,0.72,0.33,0.73,0.73c0.13,5.35,0.77,10.07,1.29,13.14c0.52-3.07,1.16-7.79,1.29-13.14c0.01-0.4,0.33-0.72,0.73-0.73
					c5.35-0.13,10.07-0.77,13.14-1.29c-3.07-0.52-7.79-1.16-13.14-1.29c-0.4-0.01-0.72-0.33-0.73-0.73
					c-0.13-5.35-0.77-10.07-1.29-13.14c-0.52,3.07-1.16,7.79-1.29,13.14c-0.01,0.4-0.33,0.72-0.73,0.73
					C12.43,560.23,7.71,560.87,4.64,561.39z"/>
			</g>
		</g>
	</g>
</g>
<g id="Guide">
</g>
</svg>
