<svg enable-background="new 0 0 569.76 204.12" viewBox="0 0 569.76 204.12" xmlns="http://www.w3.org/2000/svg"><path d="m568.54 127.07c.05 0 .1.01.14.01 0 0-6.19-6.23-7.81-7.61-27.18-23.12-51-18.07-73.88-11.29-11.51 3.41-21.74 5.3-31.59-3.18-6.98-6-6.65-19.26-14.75-28.45-10.59-12.02-21.01-12.02-31.91-11.34-.64.04-7.53-20.96-8.33-22.87-18.36-43.87-67.84-48.93-105.57-26.9-16.13-23.62-51.81-15.38-61.65 3.96l-.38-.14c-3.46-8.67-11.24-13.89-20.13-15.79-10.95-2.35-22.57.94-31.01 8.19-8.22 7.06-14.99 20.15-14.39 31.19-1.86-1.68-3.64-3.09-6.04-4-3.92-1.48-8.34-2.12-12.51-2.27-23.37-.88-44.69 13.39-55.54 33.64-4.04 7.53-6.85 15.77-8.03 24.24-1.62 11.65-.05 23.95 5 34.61-31.37-4.49-64.45 4.56-89.15 24.41 14.5-4.74 31.6-4.56 46.65-3.77 30.52 1.58 55.24 31.22 86.54 18.59 1.23-.4 5.4 6.4 6.02 7.26 4.94 6.83 10.1 12.28 18.54 14.28 9.78 2.32 31.24 2.29 35.16-10.02.09-.27.16-.55.22-.82l.15-.64c8.02 9.73 19.65 16.23 31.81 19.82 13.39 3.95 27.5 4.67 41.45 4.89 13.25.21 26.64-.04 39.5-3.21 10.33-2.54 20.48-7.17 27.55-15.11 7.08-7.94 10.54-19.62 6.83-29.59 2.63 7.06 12.55 11.24 19.37 12.51 9.28 1.72 19.59-1.05 26.47-7.62 7.06-6.73 4.29-25.25 4.29-25.25s5.16-3.99 13.74-3.16c23.24 2.25 41.73 26.41 66.32 22.18 21.35-3.67 37.46-19.85 57.64-26.42 6.36-2.07 13.67-1.77 20.27-1.59 5.89.16 11.75.67 17.62 1.17l1.61.21c-.07-.04-.15-.08-.22-.12z" fill="#ed859e"/><path d="m273.76 204.12c-2.03 0-4.1-.02-6.23-.05-15.84-.25-28.99-1.18-41.72-4.93-9.06-2.67-21.61-8.06-31.05-18.69-4.3 12.36-25.64 12.87-36.23 10.36-8.53-2.02-13.82-7.32-19.12-14.66-.11-.15-.31-.46-.59-.88-2.78-4.24-3.99-5.6-4.52-5.93-18.9 7.52-35.77-.21-52.09-7.7-11.05-5.07-22.47-10.3-34.61-10.93-14.9-.77-32.05-.93-46.29 3.73-.46.15-.96-.05-1.19-.47-.23-.44-.12-.97.25-1.27 24.34-19.55 57.15-28.78 88.12-24.86-4.4-10.14-5.94-21.97-4.33-33.51 1.17-8.41 3.91-16.68 8.14-24.58 11.58-21.61 33.75-35.04 56.46-34.17 4.88.18 9.2.97 12.83 2.34 1.77.67 3.2 1.57 4.66 2.74.3-11.47 7.42-23.44 14.77-29.75 8.9-7.64 20.81-10.79 31.87-8.41 9.37 2.01 16.65 7.42 20.23 14.97 5.71-9.63 17.9-16.54 30.95-17.38 12.76-.83 24.02 4.28 31.06 14.04 21.79-12.45 47.06-15.76 67.75-8.83 17.58 5.88 30.87 18.56 38.45 36.66.27.64 1.1 3.07 2.25 6.43 1.69 4.91 4.71 13.74 5.68 15.79 11.41-.67 21.73-.1 32.15 11.71 4.18 4.75 6.21 10.6 7.99 15.77 1.73 5.02 3.37 9.76 6.65 12.58 9.64 8.29 19.58 6.25 30.65 2.97 23.96-7.1 47.71-11.56 74.81 11.49 1.64 1.39 7.62 7.42 7.87 7.67.05.05.1.11.14.18.21.25.28.6.18.93-.15.46-.6.75-1.09.69l-2.27-.27c-5.52-.47-11.22-.95-16.85-1.1l-.83-.02c-6.18-.17-13.17-.36-19.11 1.57-8.67 2.83-16.76 7.55-24.58 12.12-10.3 6.01-20.95 12.23-33.19 14.34-14.23 2.45-26.52-4.41-38.41-11.03-8.98-5-18.26-10.18-28.18-11.14-6.64-.64-11.16 1.76-12.57 2.64.43 3.4 2 19.12-4.67 25.5-7.01 6.68-17.49 9.7-27.35 7.88-4.66-.86-12.25-3.43-16.88-8.18 1.04 8.45-1.98 17.74-8.39 24.94-6.44 7.23-15.89 12.42-28.06 15.42-10.48 2.57-21.19 3.28-33.51 3.28zm-79.48-26.76c.29 0 .58.13.77.36 9.24 11.21 22.13 16.79 31.32 19.5 12.51 3.69 25.51 4.61 41.19 4.85 14.87.24 27.23-.22 39.25-3.18 11.77-2.9 20.87-7.88 27.05-14.81 7.4-8.31 10.01-19.52 6.64-28.57-.19-.52.07-1.09.59-1.29s1.09.07 1.29.59c2.31 6.22 11.27 10.51 18.62 11.87 9.24 1.71 19.05-1.11 25.6-7.36 6.6-6.3 4.02-24.2 3.99-24.38-.05-.36.09-.72.38-.94.22-.17 5.58-4.21 14.45-3.36 10.33 1 19.81 6.28 28.96 11.38 12.12 6.75 23.56 13.13 37.09 10.81 11.89-2.05 22.38-8.17 32.52-14.09 7.91-4.62 16.1-9.4 24.97-12.29 6.26-2.03 13.44-1.83 19.78-1.66l.83.02c5.53.15 11.1.61 16.5 1.07-1.95-1.94-4.83-4.79-5.84-5.65-26.34-22.41-49.54-18.03-72.95-11.09-11.21 3.32-22.14 5.56-32.53-3.38-3.69-3.17-5.41-8.16-7.24-13.45-1.81-5.24-3.68-10.65-7.6-15.1-10.01-11.36-19.6-11.71-31.1-11.01-1.08.07-1.2.07-7.11-17.17-1.05-3.07-1.96-5.72-2.21-6.3-7.35-17.55-20.22-29.84-37.24-35.54-20.41-6.83-45.43-3.42-66.91 9.12-.46.27-1.04.13-1.33-.3-6.59-9.65-17.46-14.72-29.82-13.93-13.03.84-25.13 7.98-30.11 17.78-.23.45-.76.66-1.24.49l-.38-.14c-.27-.1-.48-.3-.58-.57-3.1-7.77-9.99-13.17-19.42-15.19-10.45-2.24-21.73.74-30.15 7.98-8.55 7.34-14.59 20.4-14.04 30.37.02.4-.2.78-.57.96-.37.17-.8.11-1.1-.16-1.94-1.75-3.58-3-5.72-3.8-3.43-1.29-7.53-2.03-12.2-2.21-21.98-.82-43.4 12.17-54.62 33.11-4.12 7.68-6.78 15.73-7.92 23.91-1.64 11.8.1 23.89 4.91 34.04.16.33.12.72-.1 1.02s-.58.45-.95.4c-29.23-4.19-60.32 3.64-84.23 21.02 13.4-3.27 28.56-3.07 41.92-2.38 12.52.65 24.12 5.97 35.34 11.11 16.72 7.67 32.52 14.92 50.77 7.55 1.42-.47 2.91 1.06 6.67 6.8.25.38.44.67.54.81 5.04 6.98 10.03 12.01 17.96 13.89 4.35 1.03 12.03 1.76 19.37.46 5.55-.99 12.59-3.49 14.6-9.82.08-.24.14-.48.19-.73l.16-.67c.09-.37.38-.65.75-.74.09 0 .17-.01.24-.01z" fill="#ed859e"/><g fill="#fff"><path d="m278.19 58.33c-.38 0-.7-.28-.74-.67-1.22-11.07-11.68-17.99-20.91-18.88-7.61-.73-14.89 1.25-19.96 5.45-.32.26-.79.22-1.06-.1-.26-.32-.22-.79.1-1.06 5.38-4.45 13.05-6.56 21.06-5.79 11.54 1.12 21.1 9.81 22.25 20.21.05.41-.25.78-.66.83-.03.01-.06.01-.08.01z"/><path d="m316.19 126.4c-.22 0-.44-.1-.58-.28-6.72-8.32-9.98-19.2-8.95-29.84.04-.41.41-.72.82-.67.41.04.71.41.67.82-.99 10.26 2.15 20.74 8.63 28.76.26.32.21.79-.11 1.05-.15.1-.31.16-.48.16z"/><path d="m227.91 176.4c-.15 0-.3-.04-.44-.14-6.72-4.8-12.35-11.02-16.27-18-.2-.36-.07-.82.29-1.02s.82-.08 1.02.29c3.82 6.79 9.29 12.84 15.84 17.51.34.24.42.71.17 1.05-.15.2-.38.31-.61.31z"/><path d="m270.87 176.18c-.41 0-.74-.33-.75-.74-.01-.42.32-.76.74-.76 7.26-.11 14.46-1.7 20.85-4.6.38-.17.82 0 .99.37.17.38 0 .82-.37.99-6.57 2.99-13.98 4.62-21.44 4.74-.01 0-.02 0-.02 0z"/><path d="m249.05 171.92c-.1 0-.2-.02-.3-.06-15.24-6.58-26.8-20.07-30.92-36.06-.1-.4.14-.81.54-.91s.81.14.91.54c3.95 15.32 15.47 28.75 30.07 35.06.38.16.56.61.39.99-.12.28-.4.44-.69.44z"/><path d="m353.64 139.96c-5.99 0-12.16-2.34-17.43-6.62-4.48-3.64-8.39-8.73-11.63-15.13-3.36-6.64-4.91-12.56-4.72-18.09.24-6.89 3.51-13.19 8.53-16.42.35-.23.81-.12 1.04.22s.12.81-.22 1.04c-4.62 2.97-7.62 8.8-7.84 15.21-.18 5.27 1.31 10.95 4.55 17.36 3.15 6.21 6.93 11.14 11.24 14.64 5 4.06 10.83 6.29 16.48 6.29h.4c.43-.02.76.32.76.74.01.41-.32.76-.74.76-.13 0-.27 0-.42 0z"/><path d="m383.71 65.28c-.37 0-.69-.27-.74-.64-1.4-9.73-6.17-18.75-13.41-25.39-3.33-3.05-7.14-5.57-10.45-7.68-.35-.22-.45-.69-.23-1.04s.69-.45 1.04-.23c3.36 2.15 7.24 4.71 10.66 7.84 7.5 6.88 12.43 16.21 13.88 26.28.06.41-.23.79-.64.85-.04.01-.08.01-.11.01z"/><path d="m287.38 43.83c-.06 0-.11-.01-.17-.02-.27-.06-.49-.28-.56-.55-2.65-10.67-14.84-18.21-25.57-15.82-.41.08-.81-.17-.9-.57s.16-.81.57-.9c11.23-2.49 23.46 4.71 26.96 15.57 15.1-16.89 39.63-24.14 61.5-18.06.4.11.63.52.52.92s-.52.63-.92.52c-21.42-5.96-46.45 1.7-60.86 18.63-.14.19-.35.28-.57.28z"/><path d="m159.53 105.12c-.1 0-.2-.02-.3-.06-.38-.17-.55-.61-.38-.99 7.6-17.27 16.11-23.97 28.25-29.71.38-.17.82-.02 1 .36.18.37.02.82-.36 1-11.81 5.59-20.1 12.12-27.51 28.96-.13.27-.41.44-.7.44z"/><path d="m166.75 133.33c-.02 0-.05 0-.08 0-.41-.04-.71-.41-.67-.82 1.31-13.12 7.39-25.74 17.1-35.52.29-.29.77-.3 1.06 0 .29.29.3.77 0 1.06-9.47 9.54-15.39 21.84-16.67 34.62-.04.38-.36.66-.74.66z"/><path d="m193.22 90.45c-.25 0-.49-.12-.63-.34-.23-.35-.13-.81.22-1.04 3.55-2.31 7.32-4.21 11.2-5.64.39-.14.82.06.96.45s-.06.82-.45.96c-3.78 1.39-7.45 3.24-10.9 5.49-.12.08-.26.12-.4.12z"/><path d="m166.98 177.7c-5.66 0-11.59-2.49-16.34-7.11-.3-.29-.3-.76-.01-1.06.29-.29.76-.3 1.06-.01 4.77 4.64 13.26 8.87 21.51 5.5.38-.16.82.03.98.41s-.03.82-.41.98c-2.16.87-4.45 1.29-6.79 1.29z"/><path d="m145.61 164.65c-.23 0-.46-.11-.61-.31l-6.29-8.7c-14.4 10.34-32.58 1.89-47.23-4.92-2.64-1.23-5.13-2.39-7.51-3.4-.38-.16-.56-.6-.4-.98s.6-.55.98-.4c2.4 1.02 4.91 2.19 7.56 3.42 14.49 6.74 32.53 15.12 46.31 4.63.16-.12.37-.17.56-.15.2.03.38.14.5.3l6.73 9.31c.24.34.17.8-.17 1.05-.13.1-.28.15-.43.15z"/><path d="m75.84 144.31c-.07 0-.14-.01-.21-.03-8.03-2.33-16.97-3.32-26.57-2.96-.44.05-.76-.31-.78-.72s.31-.76.72-.78c9.77-.37 18.86.65 27.05 3.02.4.12.63.53.51.93-.09.33-.39.54-.72.54z"/><path d="m128.63 60.09c-.26 0-.52-.14-.65-.38-.2-.36-.08-.82.29-1.02 10.53-5.94 23.67-6.89 39.03-2.83.4.11.64.52.53.92s-.52.64-.92.53c-14.97-3.96-27.73-3.05-37.91 2.69-.12.06-.24.09-.37.09z"/><path d="m103.76 115.15c-.32 0-.62-.21-.72-.53-5.61-18.17 1.69-39.57 17.36-50.89.33-.25.81-.17 1.05.17s.17.8-.17 1.05c-15.16 10.96-22.23 31.66-16.8 49.23.12.4-.1.82-.5.94-.07.02-.14.03-.22.03z"/><path d="m467.66 131.89c-6.83 0-13.74-1.55-20.82-5.42-10.07-5.51-18.22-13.71-26.09-21.63-3.63-3.65-7.38-7.43-11.25-10.86-5.16-4.58-9.94-8.06-14.63-10.64-12.22-6.73-27.92-7.65-39.07-2.28-6.49 3.13-11.35 8.85-13.32 15.71-1.87 6.49-.93 13.17 2.63 18.83 3.87 6.15 10.54 10.01 17.82 10.32 8.1.34 15.23-3.26 18.15-9.2 2.29-4.64 1.56-9.75-2.01-14.02-.35-.42-.3-1.05.13-1.41.42-.35 1.05-.3 1.41.13 4.04 4.83 4.89 10.88 2.27 16.19-3.28 6.64-11.14 10.69-20.03 10.31-7.94-.34-15.21-4.54-19.43-11.25-3.87-6.15-4.88-13.41-2.86-20.45 2.13-7.41 7.37-13.59 14.38-16.96 11.88-5.72 27.94-4.8 40.9 2.33 4.82 2.66 9.73 6.22 15 10.9 3.92 3.48 7.69 7.27 11.35 10.95 7.78 7.82 15.82 15.91 25.64 21.28 18.27 10 34.96 4.02 53.33-4.18 21.05-9.4 49.37-3.88 68.09 5.77.49.25.68.86.43 1.35s-.85.69-1.35.43c-18.3-9.43-45.91-14.85-66.36-5.72-11.45 5.08-22.76 9.52-34.31 9.52z"/><path d="m193.73 178.7c-.29 0-.59-.13-.78-.38-.63-.79-1.24-1.61-1.81-2.42-14.65-20.96-9.28-53.87 11.5-70.41 19.96-15.9 51.33-16.06 72.97-.39 10.16 7.36 16.62 16.85 18.19 26.73 1.9 11.92-4.22 23.88-14.22 27.81-7.85 3.08-17.96 1.23-27.05-4.97-7.5-5.11-12.45-11.74-13.95-18.66-1.6-7.41 1.4-17.17 9.21-20.66.5-.22 1.1 0 1.32.5.23.5 0 1.1-.5 1.32-6.88 3.08-9.51 11.78-8.07 18.41 1.39 6.42 6.05 12.61 13.12 17.43 8.54 5.82 17.96 7.6 25.19 4.76 10.04-3.95 14.48-16.13 12.97-25.63-1.49-9.35-7.66-18.38-17.39-25.43-20.94-15.17-51.28-15.03-70.56.33-19.99 15.92-25.18 47.56-11.1 67.7.55.78 1.13 1.57 1.73 2.32.34.43.27 1.06-.16 1.41-.18.16-.4.23-.61.23z"/></g></svg>