<?xml version="1.0" encoding="utf-8"?>
<!-- Generator: Adobe Illustrator 26.1.0, SVG Export Plug-In . SVG Version: 6.00 Build 0)  -->
<svg version="1.1" xmlns="http://www.w3.org/2000/svg" xmlns:xlink="http://www.w3.org/1999/xlink" x="0px" y="0px"
	 viewBox="0 0 505.15 566.84" style="enable-background:new 0 0 505.15 566.84;" xml:space="preserve">
<style type="text/css">
	.st0{fill:#FFFFFF;}
	.st1{fill:#EAD9EB;}
	.st2{fill:#95608F;}
	.st3{fill:#ED859E;}
	.st4{fill:#FAC87D;}
	.st5{fill:#554B4E;}
	.st6{fill:#F8F4E9;}
	.st7{fill:#BFA071;}
	.st8{fill:#F2DED6;}
</style>
<g id="Bg">
</g>
<g id="Graphic">
	<g id="Big_crescent_00000064331055448697468810000001969061602535559296_">
		<g id="Moon_00000057123728134399260240000003075136014817590952_">
			<path class="st4" d="M285.26,1c54.1,51.83,104.02,155,81.95,227.38c0.65,5.31,4.7,18.55-0.08,25.29
				c-16.14,20.24-47.37,56.73-68.74,63.96c-29.88,10.1-35.8,4.42-26.51,20.06c9.29,15.64,26.95,27.95,26.95,27.95
				s2.45,12.35,17.79,14.4c-6.15,9.31-20.33,5.06-23.89,16.25c-2.97,10.21-1.4,13.26-6.54,15.22c-6.56,2.5-5.84,6.77-6,13.43
				C206.02,477.36,87.01,484.73,1,468.06c146.84,170.28,431.59,108.76,492.45-111.71C537.58,202.83,440.75,37.64,285.26,1z"/>
			<path class="st4" d="M215.1,566.84c-28.46,0-56.73-4.13-83.79-12.36c-50.63-15.39-95.95-45.05-131.07-85.77
				c-0.28-0.32-0.32-0.79-0.11-1.16c0.21-0.37,0.64-0.56,1.06-0.48c84.87,16.44,203.65,9.61,278.02-42.67
				c0.01-0.51,0.01-1,0.02-1.48c0.06-5.51,0.1-9.87,6.62-12.35c3.01-1.15,3.29-2.57,4.11-6.8c0.39-2.01,0.88-4.52,1.82-7.76
				c2.08-6.54,7.5-8.22,12.74-9.85c3.93-1.22,7.67-2.38,10.31-5.4c-11.13-2.16-15.84-10.12-16.89-14.52
				c-2.46-1.77-18.32-13.55-26.92-28.03c-3.51-5.92-4.83-8.75-3.88-11c1.03-2.44,4.4-3.26,11.12-4.9
				c4.79-1.17,11.35-2.76,19.81-5.62c20.88-7.06,51.74-42.9,68.28-63.63c3.55-5,1.76-14.32,0.57-20.48c-0.31-1.6-0.57-2.98-0.7-4.07
				c-0.02-0.14,0-0.28,0.04-0.41c10-32.78,5.6-75.66-12.38-120.73C338,67.58,312.09,28.09,284.57,1.72c-0.33-0.31-0.4-0.8-0.19-1.2
				c0.21-0.4,0.67-0.6,1.11-0.5c38.08,8.97,73.32,25.66,104.75,49.6c30.23,23.03,55.42,51.55,74.89,84.79
				c19.45,33.22,31.99,69.12,37.28,106.7c5.5,39.08,2.81,77.94-7.99,115.51c-14.47,52.42-42.84,99-82.05,134.69
				c-36.81,33.51-82.51,57.12-132.14,68.28C258.71,564.43,236.84,566.84,215.1,566.84z M3.65,469.58
				c34.6,39.32,78.88,67.98,128.24,82.99c47.41,14.41,98.55,16.16,147.89,5.07c49.29-11.08,94.67-34.53,131.23-67.81
				c38.93-35.44,67.1-81.69,81.47-133.75c10.72-37.3,13.39-75.89,7.93-114.69c-5.25-37.33-17.71-72.98-37.03-105.97
				c-19.33-33.01-44.35-61.35-74.37-84.21c-30.22-23.02-64-39.29-100.45-48.38c27.09,26.82,51.45,64.43,67.15,103.78
				c18.11,45.4,22.55,88.67,12.5,121.85c0.13,1,0.38,2.27,0.66,3.73c1.25,6.5,3.13,16.31-0.94,22.06
				c-16.71,20.95-47.87,57.1-69.23,64.33c-8.55,2.89-15.15,4.5-19.98,5.67c-5.69,1.38-9.12,2.22-9.75,3.73
				c-0.59,1.41,0.86,4.32,3.76,9.2c9.07,15.27,26.49,27.52,26.67,27.64c0.21,0.15,0.36,0.37,0.41,0.63
				c0.1,0.47,2.54,11.67,16.95,13.6c0.34,0.05,0.63,0.26,0.78,0.58s0.11,0.68-0.08,0.96c-3.04,4.59-7.77,6.06-12.35,7.48
				c-5.18,1.61-9.66,2.99-11.42,8.52c-0.91,3.13-1.39,5.59-1.77,7.56c-0.85,4.35-1.31,6.75-5.36,8.29c-5.24,2-5.27,5.02-5.33,10.5
				c-0.01,0.65-0.01,1.32-0.03,2.01c-0.01,0.32-0.16,0.61-0.42,0.79c-51.85,36.64-125.26,51.24-193.87,51.24
				C57.59,476.99,29.16,474.33,3.65,469.58z"/>
		</g>
		<g id="Mouth_00000062876888138837900210000004317509902702047396_">
			<g>
				<path class="st2" d="M310.25,397.74c-0.18,0-0.36-0.06-0.5-0.19l-9.32-8.32c-0.31-0.28-0.33-0.75-0.06-1.06
					c0.28-0.31,0.75-0.34,1.06-0.06l9.32,8.32c0.31,0.28,0.33,0.75,0.06,1.06C310.66,397.66,310.46,397.74,310.25,397.74z"/>
			</g>
			<g>
				<path class="st2" d="M310.25,420.07c-0.12,0-0.25-0.02-0.37-0.07c-13.59-5.48-20.11-11.75-20.38-12.01
					c-0.4-0.38-0.4-1.02-0.02-1.41c0.38-0.4,1.02-0.4,1.41-0.02c0.06,0.06,6.54,6.27,19.73,11.59c0.51,0.21,0.76,0.79,0.55,1.3
					C311.02,419.83,310.65,420.07,310.25,420.07z"/>
			</g>
			<g>
				<path class="st2" d="M352.69,433.1c-6.28,0-10.44-3.75-11.53-4.86c-2.61-0.27-17.44-2-27.26-6.61c-0.5-0.24-0.71-0.83-0.48-1.33
					c0.24-0.5,0.83-0.71,1.33-0.48c10.25,4.82,26.81,6.46,26.97,6.47c0.25,0.02,0.49,0.14,0.66,0.33c0.23,0.26,5.86,6.47,14.65,3.81
					c0.53-0.16,1.09,0.14,1.25,0.67c0.16,0.53-0.14,1.09-0.67,1.25C355.85,432.88,354.21,433.1,352.69,433.1z"/>
			</g>
			<g>
				<path class="st2" d="M316.52,439.54c-0.04,0-0.08,0-0.12-0.01c-30.82-4.95-36.61-13.83-36.84-14.21
					c-0.22-0.35-0.11-0.81,0.25-1.03c0.35-0.22,0.81-0.11,1.03,0.24c0.07,0.11,5.9,8.72,35.81,13.52c0.41,0.07,0.69,0.45,0.62,0.86
					C317.2,439.28,316.88,439.54,316.52,439.54z"/>
			</g>
			<g>
				<path class="st2" d="M284.89,440.96c-0.1,0-0.2-0.02-0.3-0.06c-8.01-3.49-9.27-11.69-9.32-12.03c-0.06-0.41,0.22-0.79,0.63-0.85
					c0.41-0.07,0.79,0.22,0.85,0.63c0.01,0.08,1.21,7.73,8.44,10.87c0.38,0.17,0.55,0.61,0.39,0.99
					C285.45,440.79,285.18,440.96,284.89,440.96z"/>
			</g>
		</g>
		<g id="Nose_00000145758498495402102290000000559567627522493111_">
			<g>
				<path class="st2" d="M325.71,377.52c-0.33,0-0.66-0.17-0.85-0.47c-0.29-0.47-0.14-1.09,0.33-1.38
					c6.41-3.96,7.33-14.97,7.34-15.08c0.04-0.55,0.51-0.96,1.07-0.92c0.55,0.04,0.96,0.52,0.92,1.07
					c-0.04,0.49-1.01,12.13-8.29,16.63C326.07,377.47,325.89,377.52,325.71,377.52z"/>
			</g>
			<g>
				<path class="st2" d="M313.22,370.63c-0.39,0-0.72-0.3-0.75-0.7c-0.03-0.41,0.28-0.77,0.7-0.8c2.44-0.17,4.86-0.64,5.58-1.06
					c-2.17-1.69-9.78-4.05-9.85-4.07c-0.4-0.12-0.62-0.54-0.5-0.94c0.12-0.4,0.54-0.62,0.94-0.5c0.33,0.1,7.99,2.47,10.36,4.34
					c0.77,0.61,0.73,1.22,0.63,1.54c-0.44,1.43-4.08,1.97-7.06,2.18C313.25,370.63,313.24,370.63,313.22,370.63z M318.91,368.22
					L318.91,368.22L318.91,368.22z"/>
			</g>
		</g>
		<g id="Eye_00000089569211508596403350000012821212101969311365_">
			<g>
				<path class="st2" d="M367.43,282.43c0,0,12.1,17.49,39.65,10.42c0,0-22.21-2.35-30.11-14.29c0,0-3.05-4.18-3.68-6.95
					C373.29,271.61,371.53,279.59,367.43,282.43z"/>
				<path class="st2" d="M394.54,295.26c-7.92,0-13.9-2.12-17.97-4.32c-6.55-3.53-9.63-7.91-9.75-8.09
					c-0.24-0.34-0.15-0.81,0.19-1.04c3.82-2.64,5.54-10.28,5.55-10.36c0.08-0.34,0.38-0.59,0.73-0.59c0,0,0,0,0,0
					c0.35,0,0.65,0.24,0.73,0.58c0.58,2.59,3.52,6.63,3.55,6.67c7.64,11.53,29.36,13.96,29.58,13.98c0.36,0.04,0.64,0.33,0.67,0.69
					c0.03,0.36-0.21,0.69-0.56,0.78C402.57,294.78,398.33,295.26,394.54,295.26z M368.49,282.56c2.25,2.73,13.2,14.28,34.51,10.41
					c-6.86-1.28-20.63-4.91-26.65-14c-0.08-0.11-1.83-2.51-2.95-4.92C372.59,276.53,371.02,280.4,368.49,282.56z"/>
			</g>
			<g>
				<path class="st2" d="M367.56,226.93c-0.1,0.04-0.19-0.08-0.16-0.2c0.38-1.47,2.25-8.02,6.03-9.75
					c4.37-2.01,15.58-2.07,25.18,0.91c25.03,7.76,58.18,27.87,58.18,27.87S424,233.08,396.7,225.27
					C383.14,221.39,369.49,226.21,367.56,226.93z"/>
				<path class="st2" d="M456.79,246.76c-0.12,0-0.24-0.02-0.36-0.07c-0.33-0.13-33.06-12.75-60-20.46
					c-13.36-3.82-27,1.07-28.51,1.64c0,0,0,0,0,0c-0.39,0.15-0.82,0.06-1.13-0.22c-0.33-0.29-0.46-0.74-0.35-1.17
					c0.5-1.96,2.47-8.53,6.58-10.41c4.5-2.06,15.98-2.21,25.89,0.86c24.86,7.71,58.07,27.77,58.41,27.97
					c0.44,0.27,0.61,0.83,0.38,1.3C457.52,246.55,457.17,246.76,456.79,246.76z M385.57,222.79c3.64,0,7.54,0.41,11.42,1.52
					c17.19,4.92,36.72,11.83,48.75,16.24c-11.81-6.56-31.38-16.74-47.41-21.71c-9.34-2.89-20.39-2.82-24.47-0.95
					c-2.25,1.03-4.01,4.44-5.03,7.56C371.77,224.5,378.13,222.79,385.57,222.79z M368.37,226.97
					C368.37,226.98,368.37,226.98,368.37,226.97C368.37,226.98,368.37,226.98,368.37,226.97z M367.56,226.93L367.56,226.93
					L367.56,226.93z"/>
			</g>
			<g>
				<path class="st2" d="M408.93,254.23c-0.12,0-0.25-0.03-0.36-0.09c-15.88-8.7-27-5.11-27.11-5.07c-0.4,0.14-0.82-0.08-0.95-0.47
					c-0.13-0.39,0.08-0.82,0.47-0.95c0.47-0.16,11.8-3.86,28.32,5.18c0.36,0.2,0.5,0.66,0.3,1.02
					C409.45,254.09,409.2,254.23,408.93,254.23z"/>
			</g>
			<g>
				<path class="st2" d="M394.54,295.26c-7.92,0-13.9-2.12-17.97-4.32c-6.55-3.53-9.63-7.91-9.75-8.09
					c-0.22-0.32-0.16-0.77,0.15-1.01c8.27-6.61,6.66-25.79,6.65-25.98c-0.04-0.41,0.27-0.78,0.68-0.81
					c0.41-0.05,0.78,0.27,0.81,0.68c0.07,0.8,1.63,19.34-6.64,26.81c2.2,2.68,13.16,14.32,34.53,10.44
					c-6.86-1.28-20.63-4.91-26.65-14c-0.23-0.35-0.13-0.81,0.21-1.04c0.35-0.23,0.81-0.13,1.04,0.21
					c7.62,11.51,29.34,13.93,29.56,13.96c0.36,0.04,0.64,0.33,0.67,0.69c0.03,0.36-0.21,0.69-0.56,0.78
					C402.57,294.78,398.33,295.26,394.54,295.26z"/>
			</g>
			<g>
				<path class="st2" d="M429.95,278.46c-0.29,0-0.57-0.17-0.69-0.46c-4.69-11.11-15.74-18.99-15.85-19.06
					c-0.34-0.24-0.42-0.71-0.18-1.04c0.24-0.34,0.71-0.42,1.04-0.18c0.47,0.33,11.51,8.2,16.37,19.71c0.16,0.38-0.02,0.82-0.4,0.98
					C430.14,278.45,430.05,278.46,429.95,278.46z"/>
			</g>
			<g>
				<path class="st2" d="M356.52,285.69c-1.73,0-2.78-0.21-2.88-0.23c-0.4-0.08-0.66-0.48-0.58-0.89c0.08-0.41,0.48-0.66,0.89-0.58
					c0.06,0.01,5.76,1.13,13.17-2.25c0.38-0.17,0.82,0,0.99,0.37c0.17,0.38,0.01,0.82-0.37,0.99
					C363.06,285.25,359.05,285.69,356.52,285.69z"/>
			</g>
			<g>
				<path class="st2" d="M357.6,293.27c-0.37,0-0.7-0.28-0.74-0.66c-0.05-0.41,0.24-0.79,0.65-0.83c0.07-0.01,7.52-0.97,12.75-5.71
					c0.31-0.28,0.78-0.25,1.06,0.05c0.28,0.31,0.25,0.78-0.05,1.06c-5.59,5.07-13.26,6.05-13.58,6.09
					C357.67,293.27,357.63,293.27,357.6,293.27z"/>
			</g>
			<g>
				<path class="st2" d="M366.13,299.21c-0.34,0-0.65-0.23-0.73-0.58c-0.09-0.4,0.16-0.8,0.56-0.9c0.06-0.01,5.63-1.38,8.83-7.72
					c0.19-0.37,0.64-0.52,1.01-0.33c0.37,0.19,0.52,0.64,0.33,1.01c-3.53,7-9.58,8.45-9.83,8.5
					C366.24,299.2,366.18,299.21,366.13,299.21z"/>
			</g>
			<g>
				<path class="st2" d="M372.79,303.93c-0.3,0-0.59-0.19-0.7-0.49c-0.14-0.39,0.05-0.82,0.44-0.96c0.07-0.03,6.76-2.59,8.01-9.49
					c0.07-0.41,0.46-0.67,0.87-0.6c0.41,0.07,0.68,0.46,0.6,0.87c-1.4,7.75-8.66,10.51-8.97,10.63
					C372.96,303.92,372.87,303.93,372.79,303.93z"/>
			</g>
			<g>
				<path class="st2" d="M383.76,307.07c-0.22,0-0.43-0.09-0.58-0.28c-0.26-0.32-0.21-0.79,0.11-1.05
					c6.11-4.96,6.35-10.82,6.36-10.88c0.01-0.41,0.35-0.73,0.75-0.73c0.01,0,0.01,0,0.02,0c0.41,0.01,0.74,0.35,0.73,0.77
					c-0.01,0.27-0.24,6.59-6.91,12C384.1,307.01,383.93,307.07,383.76,307.07z"/>
			</g>
			<g>
				<path class="st2" d="M394.7,306.67c-0.17,0-0.33-0.05-0.47-0.17c-0.32-0.26-0.37-0.73-0.11-1.05
					c4.65-5.73,4.95-10.93,4.96-10.99c0.02-0.41,0.4-0.74,0.79-0.71c0.41,0.02,0.73,0.37,0.71,0.79c-0.01,0.23-0.33,5.75-5.29,11.86
					C395.13,306.57,394.92,306.67,394.7,306.67z"/>
			</g>
			<g>
				<path class="st2" d="M469.22,252.15c-0.08,0-0.15-0.02-0.23-0.05l-8.69-4.44c-0.25-0.13-0.34-0.43-0.22-0.67
					s0.43-0.34,0.67-0.22l8.69,4.44c0.25,0.13,0.34,0.43,0.22,0.67C469.57,252.05,469.4,252.15,469.22,252.15z"/>
			</g>
			<g>
				<path class="st2" d="M415.18,325.38c-0.38,0-0.71-0.29-0.75-0.68c-0.04-0.41,0.27-0.78,0.68-0.81
					c6.7-0.6,12.99-5.15,15.65-11.32c0.16-0.38,0.61-0.56,0.99-0.39c0.38,0.16,0.56,0.61,0.39,0.99
					c-2.88,6.66-9.67,11.58-16.9,12.22C415.23,325.38,415.2,325.38,415.18,325.38z"/>
			</g>
			<g>
				<path class="st2" d="M400.57,327.89c-8.68,0-17.25-2.52-24.56-7.27c-0.35-0.23-0.45-0.69-0.22-1.04
					c0.23-0.35,0.69-0.45,1.04-0.22c8.29,5.39,18.68,7.86,28.51,6.77c0.42-0.06,0.78,0.25,0.83,0.66c0.05,0.41-0.25,0.78-0.66,0.83
					C403.86,327.8,402.21,327.89,400.57,327.89z"/>
			</g>
		</g>
		<g id="Dot_00000011731075867586802780000005974499074798865296_">
			<g>
				<path class="st2" d="M372.35,489.02c0.31-1.09,1.03-2,2.03-2.55c0.99-0.55,2.14-0.68,3.24-0.37s2,1.03,2.55,2.03
					c1.14,2.05,0.39,4.65-1.66,5.79c-0.49,0.27-1.02,0.44-1.54,0.5c-1.67,0.2-3.38-0.6-4.24-2.16
					C372.17,491.26,372.04,490.11,372.35,489.02z"/>
			</g>
			<g>
				<path class="st2" d="M352.3,486.43c0.32-2.05,2.25-3.46,4.3-3.13c0.99,0.16,1.86,0.69,2.46,1.5s0.83,1.8,0.68,2.8
					c-0.15,0.99-0.69,1.86-1.5,2.46c-0.52,0.38-1.13,0.62-1.75,0.7c-0.34,0.04-0.69,0.04-1.04-0.02c-0.99-0.16-1.86-0.69-2.46-1.5
					S352.15,487.42,352.3,486.43z"/>
			</g>
			<g>
				<path class="st2" d="M378.86,469.52c0.24-0.83,0.79-1.52,1.55-1.94c0.76-0.42,1.64-0.52,2.47-0.28
					c0.83,0.24,1.52,0.79,1.95,1.55c0.87,1.57,0.3,3.55-1.27,4.41c-0.37,0.21-0.77,0.34-1.18,0.39c-0.43,0.05-0.86,0.02-1.29-0.1
					c-0.83-0.24-1.52-0.79-1.95-1.55S378.62,470.36,378.86,469.52z"/>
			</g>
			<g>
				<path class="st2" d="M463.83,265.93c1.38-1.9,4.05-2.32,5.95-0.94c1.9,1.38,2.32,4.05,0.94,5.95l0,0
					c-0.72,0.99-1.8,1.58-2.93,1.72c-1.03,0.13-2.11-0.12-3.01-0.78C462.87,270.5,462.45,267.83,463.83,265.93z"/>
			</g>
			<g>
				<path class="st2" d="M481.06,259.58c0.96-0.27,1.98-0.16,2.86,0.32c0.88,0.49,1.52,1.28,1.8,2.25c0.28,0.96,0.16,1.98-0.32,2.86
					c-0.49,0.88-1.28,1.52-2.25,1.8c-0.2,0.06-0.39,0.1-0.59,0.12c-1.8,0.22-3.54-0.89-4.06-2.69
					C477.92,262.24,479.07,260.15,481.06,259.58z"/>
			</g>
			<g>
				<path class="st2" d="M468.24,279.41c0.51-0.7,1.26-1.16,2.12-1.3c0.85-0.12,1.72,0.07,2.42,0.58c0.7,0.51,1.16,1.26,1.3,2.12
					c0.14,0.86-0.07,1.71-0.58,2.42l0,0c-0.55,0.76-1.37,1.21-2.24,1.31c-0.79,0.1-1.61-0.09-2.3-0.59c-0.7-0.51-1.16-1.26-1.3-2.12
					S467.73,280.12,468.24,279.41z"/>
			</g>
		</g>
		<g id="Line_00000029762915878100944060000015017653358948331450_">
			<g id="Line_00000147191877673491761020000012593757390035284125_">
				<g>
					<path class="st2" d="M428.33,214.83c-0.12,0-0.25-0.03-0.36-0.09c-0.13-0.07-13.18-7.29-26.05-11.25
						c-0.4-0.12-0.62-0.54-0.5-0.94c0.12-0.4,0.55-0.62,0.94-0.5c13.02,4.01,26.21,11.3,26.34,11.37c0.36,0.2,0.49,0.66,0.29,1.02
						C428.85,214.7,428.6,214.83,428.33,214.83z"/>
				</g>
				<g>
					<path class="st2" d="M392.57,200.03c-0.02,0-0.04,0-0.06,0c-7.49-0.57-7.02-9.28-6.7-15.04c0.05-0.89,0.09-1.71,0.11-2.43
						c0.01-0.41,0.34-0.74,0.75-0.74c0,0,0.01,0,0.01,0c0.41,0.01,0.74,0.35,0.74,0.76c-0.01,0.74-0.06,1.58-0.11,2.49
						c-0.38,6.86-0.25,13.05,5.32,13.47c0.41,0.03,0.72,0.39,0.69,0.8C393.29,199.73,392.96,200.03,392.57,200.03z"/>
				</g>
				<g>
					<path class="st2" d="M386.8,174.14c-0.41,0-0.75-0.33-0.75-0.74c-0.1-8.49-2.42-19.07-4.47-28.42
						c-0.38-1.75-0.75-3.44-1.09-5.03c-0.09-0.41,0.17-0.8,0.58-0.89c0.41-0.09,0.8,0.17,0.89,0.58c0.34,1.59,0.71,3.28,1.09,5.02
						c2.06,9.41,4.4,20.08,4.5,28.72C387.55,173.8,387.22,174.14,386.8,174.14C386.8,174.14,386.8,174.14,386.8,174.14z"/>
				</g>
				<g>
					<path class="st2" d="M460.25,170.2c-0.28,0-0.55-0.16-0.68-0.43c-4.02-8.55-8.34-16.89-12.82-24.8
						c-0.2-0.36-0.08-0.82,0.28-1.02c0.36-0.21,0.82-0.08,1.02,0.28c4.5,7.94,8.83,16.32,12.87,24.9c0.18,0.38,0.02,0.82-0.36,1
						C460.46,170.18,460.35,170.2,460.25,170.2z"/>
				</g>
				<g>
					<path class="st2" d="M440.54,133.78c-0.25,0-0.5-0.13-0.64-0.35c-3.9-6.28-7.99-12.38-12.17-18.14
						c-0.24-0.34-0.17-0.8,0.17-1.05c0.33-0.25,0.8-0.17,1.05,0.17c4.2,5.79,8.31,11.93,12.23,18.23c0.22,0.35,0.11,0.81-0.24,1.03
						C440.81,133.74,440.68,133.78,440.54,133.78z"/>
				</g>
				<g>
					<path class="st2" d="M420.96,105.86c-0.22,0-0.44-0.1-0.59-0.28c-3.72-4.69-7.6-9.23-11.51-13.51
						c-14.83-16.22-31.05-29.55-48.22-39.64c-0.36-0.21-0.48-0.67-0.27-1.03c0.21-0.36,0.67-0.48,1.03-0.27
						c17.3,10.16,33.64,23.59,48.57,39.92c3.94,4.3,7.83,8.88,11.58,13.59c0.26,0.32,0.2,0.8-0.12,1.05
						C421.29,105.8,421.12,105.86,420.96,105.86z"/>
				</g>
			</g>
			<g>
				<path class="st2" d="M407.33,464.57c-0.19,0-0.38-0.07-0.53-0.22c-0.29-0.29-0.3-0.77-0.01-1.06c4.31-4.35,8.4-8.71,12.17-12.97
					c0.28-0.31,0.75-0.34,1.06-0.06c0.31,0.28,0.34,0.75,0.06,1.06c-3.79,4.28-7.9,8.66-12.23,13.03
					C407.72,464.5,407.53,464.57,407.33,464.57z"/>
			</g>
			<g>
				<path class="st2" d="M428.45,441c-0.16,0-0.33-0.05-0.47-0.16c-0.32-0.26-0.38-0.73-0.12-1.05
					c10.54-13.24,19.47-27.83,26.57-43.38c0.17-0.38,0.62-0.54,0.99-0.37c0.38,0.17,0.54,0.62,0.37,0.99
					c-7.15,15.66-16.15,30.37-26.76,43.7C428.88,440.9,428.67,441,428.45,441z"/>
			</g>
			<g>
				<path class="st2" d="M469.86,364.36c-0.09,0-0.18-0.02-0.27-0.05c-0.39-0.15-0.58-0.58-0.43-0.97l0.48-1.25
					c3.1-8.03,6.95-18.02,8.52-28.02c0.07-0.41,0.46-0.68,0.86-0.62c0.41,0.06,0.69,0.45,0.62,0.86
					c-1.59,10.17-5.48,20.24-8.6,28.33l-0.48,1.25C470.45,364.17,470.16,364.36,469.86,364.36z"/>
			</g>
			<g>
				<path class="st2" d="M425.91,411.34c-0.16,0-0.31-0.05-0.45-0.15c-0.33-0.25-0.4-0.72-0.15-1.05
					c6.77-9.09,13.07-19.35,18.75-30.48c0.19-0.37,0.64-0.52,1.01-0.33c0.37,0.19,0.52,0.64,0.33,1.01
					c-5.71,11.2-12.06,21.53-18.88,30.69C426.36,411.24,426.14,411.34,425.91,411.34z"/>
			</g>
			<g>
				<path class="st2" d="M255.76,541.32c-0.36,0-0.68-0.26-0.74-0.63c-0.06-0.41,0.22-0.79,0.63-0.86
					c11.93-1.85,24.71-5.15,39.06-10.08c0.39-0.14,0.82,0.07,0.95,0.46c0.13,0.39-0.07,0.82-0.46,0.95
					c-14.44,4.96-27.3,8.28-39.31,10.15C255.83,541.32,255.79,541.32,255.76,541.32z"/>
			</g>
			<g>
				<path class="st2" d="M210.21,545.6c-23.25,0-48.27-4.03-73.77-11.98c-0.4-0.12-0.62-0.54-0.49-0.94
					c0.12-0.39,0.54-0.62,0.94-0.49c36.49,11.38,71.98,14.69,102.65,9.58c0.4-0.06,0.79,0.21,0.86,0.62
					c0.07,0.41-0.21,0.79-0.62,0.86C230.35,544.82,220.45,545.6,210.21,545.6z"/>
			</g>
			<g>
				<path class="st2" d="M126.46,530.18c-0.08,0-0.17-0.01-0.25-0.04c-12.46-4.51-25.04-10.06-37.37-16.48
					c-0.37-0.19-0.51-0.64-0.32-1.01s0.64-0.51,1.01-0.32c12.27,6.39,24.79,11.91,37.19,16.4c0.39,0.14,0.59,0.57,0.45,0.96
					C127.06,529.99,126.77,530.18,126.46,530.18z"/>
			</g>
			<g>
				<path class="st2" d="M214.03,529.27c-0.4,0-0.73-0.31-0.75-0.72c-0.02-0.41,0.3-0.76,0.72-0.78c7.47-0.32,15.06-0.85,22.4-1.37
					l1.16-0.08c0.43-0.03,0.77,0.28,0.8,0.7c0.03,0.41-0.28,0.77-0.7,0.8l-1.16,0.08c-7.35,0.51-14.95,1.05-22.44,1.37
					C214.05,529.27,214.04,529.27,214.03,529.27z"/>
			</g>
		</g>
	</g>
</g>
<g id="Guide">
</g>
</svg>
