<?xml version="1.0" encoding="utf-8"?>
<!-- Generator: Adobe Illustrator 26.1.0, SVG Export Plug-In . SVG Version: 6.00 Build 0)  -->
<svg version="1.1" xmlns="http://www.w3.org/2000/svg" xmlns:xlink="http://www.w3.org/1999/xlink" x="0px" y="0px"
	 viewBox="0 0 1991.17 1337.8" style="enable-background:new 0 0 1991.17 1337.8;" xml:space="preserve">
<style type="text/css">
	.st0{fill:#FFFFFF;}
	.st1{fill:#EAD9EB;}
	.st2{fill:#95608F;}
	.st3{fill:#ED859E;}
	.st4{fill:#FAC87D;}
	.st5{fill:#554B4E;}
	.st6{fill:#F8F4E9;}
	.st7{fill:#BFA071;}
	.st8{fill:#F2DED6;}
</style>
<g id="Bg">
</g>
<g id="Graphic">
	<g id="Sparkling_stars_00000161590347621655069030000013806707461324002690_">
		<g id="Dot_00000172426005718605115170000015533485742630487953_">
			<g>
				<circle class="st3" cx="921.91" cy="971.65" r="5"/>
			</g>
			<g>
				<circle class="st3" cx="975.4" cy="1067.6" r="8.09"/>
			</g>
			<g>
				<circle class="st3" cx="292.38" cy="1252.14" r="5.18"/>
			</g>
			<g>
				<circle class="st3" cx="1445.79" cy="1133.77" r="8.95"/>
			</g>
			<g>
				<circle class="st3" cx="1814.43" cy="982.07" r="4"/>
			</g>
			<g>
				<circle class="st3" cx="1798.88" cy="870.96" r="6.48"/>
			</g>
			<g>
				<circle class="st3" cx="1319.8" cy="728.9" r="4.41"/>
			</g>
			<g>
				<circle class="st3" cx="1190.85" cy="729.59" r="7.14"/>
			</g>
			<g>
				<circle class="st3" cx="1319.8" cy="116.3" r="5.09"/>
			</g>
			<g>
				<circle class="st3" cx="1214.38" cy="177.29" r="8.24"/>
			</g>
			<g>
				<circle class="st3" cx="242.65" cy="803.04" r="4.22"/>
			</g>
			<g>
				<circle class="st3" cx="137.59" cy="635.38" r="3.87"/>
			</g>
			<g>
				<circle class="st3" cx="294.5" cy="676.35" r="6.26"/>
			</g>
			<g>
				<circle class="st3" cx="673.57" cy="181.5" r="5.57"/>
			</g>
			<g>
				<circle class="st3" cx="605.11" cy="68.03" r="7.87"/>
			</g>
			<g>
				<circle class="st3" cx="1984.21" cy="56.66" r="6.96"/>
			</g>
		</g>
		<g id="Star_00000060741363525121297170000007878354162760473250_">
			<g>
				<path class="st2" d="M364.97,1307.9c-15.61-0.39-27.78-3.33-27.78-3.33s12.16-2.94,27.78-3.33c0.39-15.61,3.33-27.78,3.33-27.78
					s2.94,12.16,3.33,27.78c15.61,0.39,27.78,3.33,27.78,3.33s-12.16,2.94-27.78,3.33c-0.39,15.61-3.33,27.78-3.33,27.78
					S365.36,1323.51,364.97,1307.9z"/>
				<path class="st2" d="M368.3,1337.8l-0.49-2.01c-0.03-0.12-2.9-12.14-3.33-27.41c-15.26-0.43-27.29-3.3-27.41-3.33l-2.01-0.49
					l2.01-0.49c0.12-0.03,12.15-2.9,27.41-3.33c0.43-15.26,3.3-27.29,3.33-27.41l0.49-2.01l0.49,2.01
					c0.03,0.12,2.9,12.14,3.33,27.41c15.26,0.43,27.29,3.3,27.41,3.33l2.01,0.49l-2.01,0.49c-0.12,0.03-12.15,2.9-27.41,3.33
					c-0.43,15.26-3.3,27.29-3.33,27.41L368.3,1337.8z M339.57,1304.57c4.22,0.85,13.92,2.55,25.42,2.83l0.48,0.01l0.01,0.48
					c0.28,11.49,1.98,21.2,2.83,25.42c0.85-4.22,2.55-13.92,2.83-25.42l0.01-0.48l0.48-0.01c11.49-0.28,21.2-1.98,25.42-2.83
					c-4.22-0.85-13.92-2.55-25.42-2.83l-0.48-0.01l-0.01-0.48c-0.28-11.49-1.98-21.2-2.83-25.42c-0.85,4.22-2.55,13.92-2.83,25.42
					l-0.01,0.48l-0.48,0.01C353.5,1302.02,343.79,1303.72,339.57,1304.57z"/>
			</g>
			<g>
				<path class="st2" d="M1415.32,631.47c-9.46-0.23-16.84-2.02-16.84-2.02s7.37-1.78,16.84-2.02c0.23-9.46,2.02-16.84,2.02-16.84
					s1.78,7.37,2.02,16.84c9.46,0.23,16.84,2.02,16.84,2.02s-7.37,1.78-16.84,2.02c-0.23,9.46-2.02,16.84-2.02,16.84
					S1415.55,640.93,1415.32,631.47z"/>
				<path class="st2" d="M1417.33,650.43l-0.49-2.01c-0.02-0.07-1.74-7.28-2.02-16.47c-9.18-0.28-16.4-2-16.47-2.02l-2.01-0.49
					l2.01-0.49c0.07-0.02,7.28-1.74,16.47-2.02c0.28-9.18,2-16.4,2.02-16.47l0.49-2.01l0.49,2.01c0.02,0.07,1.74,7.28,2.02,16.47
					c9.18,0.28,16.4,2,16.47,2.02l2.01,0.49l-2.01,0.49c-0.07,0.02-7.28,1.74-16.47,2.02c-0.28,9.19-2,16.4-2.02,16.47
					L1417.33,650.43z M1400.95,629.45c2.9,0.54,8.21,1.37,14.38,1.52l0.48,0.01l0.01,0.48c0.15,6.16,0.98,11.48,1.52,14.38
					c0.54-2.9,1.37-8.22,1.52-14.38l0.01-0.48l0.48-0.01c6.16-0.15,11.47-0.98,14.38-1.52c-2.9-0.54-8.21-1.37-14.38-1.52
					l-0.48-0.01l-0.01-0.48c-0.15-6.16-0.98-11.47-1.52-14.38c-0.54,2.9-1.37,8.22-1.52,14.38l-0.01,0.48l-0.48,0.01
					C1409.17,628.08,1403.85,628.9,1400.95,629.45z"/>
			</g>
			<g>
				<path class="st2" d="M1670.39,1123.72c-11.89-0.29-21.16-2.54-21.16-2.54s9.26-2.24,21.16-2.54
					c0.29-11.89,2.54-21.16,2.54-21.16s2.24,9.26,2.54,21.16c11.89,0.29,21.16,2.54,21.16,2.54s-9.26,2.24-21.16,2.54
					c-0.29,11.89-2.54,21.16-2.54,21.16S1670.68,1135.61,1670.39,1123.72z"/>
				<path class="st2" d="M1672.93,1147l-0.49-2.01c-0.02-0.09-2.2-9.2-2.54-20.79c-11.58-0.34-20.69-2.52-20.79-2.54l-2.01-0.49
					l2.01-0.49c0.09-0.02,9.2-2.2,20.79-2.54c0.34-11.58,2.52-20.69,2.54-20.79l0.49-2.01l0.49,2.01c0.02,0.09,2.2,9.2,2.54,20.79
					c11.58,0.34,20.69,2.52,20.79,2.54l2.01,0.49l-2.01,0.49c-0.09,0.02-9.2,2.2-20.79,2.54c-0.34,11.58-2.52,20.69-2.54,20.79
					L1672.93,1147z M1651.66,1121.18c3.47,0.67,10.5,1.83,18.75,2.04l0.48,0.01l0.01,0.48c0.2,8.24,1.36,15.28,2.04,18.75
					c0.67-3.47,1.83-10.5,2.04-18.75l0.01-0.48l0.48-0.01c8.24-0.2,15.28-1.36,18.75-2.04c-3.47-0.67-10.5-1.83-18.75-2.04
					l-0.48-0.01l-0.01-0.48c-0.2-8.24-1.36-15.28-2.04-18.75c-0.67,3.47-1.83,10.5-2.04,18.75l-0.01,0.48l-0.48,0.01
					C1662.16,1119.35,1655.12,1120.51,1651.66,1121.18z"/>
			</g>
			<g>
				<path class="st2" d="M1408.61,41.4c-17.81-0.44-31.68-3.8-31.68-3.8s13.87-3.36,31.68-3.8c0.44-17.81,3.8-31.68,3.8-31.68
					s3.36,13.87,3.8,31.68c17.81,0.44,31.68,3.8,31.68,3.8s-13.87,3.36-31.68,3.8c-0.44,17.81-3.8,31.68-3.8,31.68
					S1409.05,59.21,1408.61,41.4z"/>
				<path class="st2" d="M1412.41,75.21l-0.49-2.01c-0.03-0.14-3.32-13.88-3.8-31.31c-17.43-0.48-31.17-3.77-31.31-3.8l-2.01-0.49
					l2.01-0.49c0.14-0.03,13.88-3.32,31.31-3.8c0.48-17.43,3.77-31.17,3.8-31.31l0.49-2.01l0.49,2.01
					c0.03,0.14,3.32,13.88,3.8,31.31c17.43,0.48,31.17,3.77,31.31,3.8l2.01,0.49l-2.01,0.49c-0.14,0.03-13.88,3.32-31.31,3.8
					c-0.48,17.43-3.77,31.17-3.8,31.31L1412.41,75.21z M1379.29,37.6c4.62,0.95,15.91,2.97,29.34,3.3l0.48,0.01l0.01,0.48
					c0.33,13.43,2.35,24.72,3.3,29.34c0.95-4.62,2.97-15.91,3.3-29.34l0.01-0.48l0.48-0.01c13.43-0.33,24.72-2.35,29.34-3.3
					c-4.62-0.95-15.91-2.97-29.34-3.3l-0.48-0.01l-0.01-0.48c-0.33-13.43-2.35-24.72-3.3-29.34c-0.94,4.62-2.97,15.91-3.3,29.34
					l-0.01,0.48l-0.48,0.01C1395.19,34.64,1383.91,36.66,1379.29,37.6z"/>
			</g>
			<g>
				<path class="st2" d="M31.96,582.08c13.53-0.33,24.07-2.89,24.07-2.89s-10.54-2.55-24.07-2.89c-0.33-13.53-2.89-24.07-2.89-24.07
					s-2.55,10.54-2.89,24.07c-13.53,0.33-24.07,2.89-24.07,2.89s10.54,2.55,24.07,2.89c0.33,13.53,2.89,24.07,2.89,24.07
					S31.63,595.61,31.96,582.08z"/>
				<path class="st2" d="M29.08,608.27l-0.49-2.01c-0.03-0.1-2.51-10.5-2.89-23.7c-13.2-0.38-23.59-2.86-23.7-2.89L0,579.19
					l2.01-0.49c0.1-0.03,10.5-2.51,23.7-2.89c0.38-13.2,2.86-23.59,2.89-23.7l0.49-2.01l0.49,2.01c0.03,0.1,2.51,10.5,2.89,23.7
					c13.2,0.38,23.59,2.86,23.7,2.89l2.01,0.49l-2.01,0.49c-0.1,0.03-10.5,2.51-23.7,2.89c-0.38,13.2-2.86,23.59-2.89,23.7
					L29.08,608.27z M4.52,579.19c3.81,0.75,12.02,2.15,21.68,2.39l0.48,0.01l0.01,0.48c0.24,9.67,1.63,17.87,2.39,21.68
					c0.75-3.81,2.15-12.02,2.39-21.68l0.01-0.48l0.48-0.01c9.67-0.24,17.87-1.63,21.68-2.39c-3.81-0.75-12.02-2.15-21.68-2.39
					l-0.48-0.01l-0.01-0.48c-0.24-9.67-1.63-17.87-2.39-21.68c-0.75,3.81-2.15,12.02-2.39,21.68l-0.01,0.48l-0.48,0.01
					C16.54,577.04,8.33,578.44,4.52,579.19z"/>
			</g>
		</g>
	</g>
</g>
<g id="Guide">
</g>
</svg>
