<?xml version="1.0" encoding="utf-8"?>
<!-- Generator: Adobe Illustrator 26.1.0, SVG Export Plug-In . SVG Version: 6.00 Build 0)  -->
<svg version="1.1" xmlns="http://www.w3.org/2000/svg" xmlns:xlink="http://www.w3.org/1999/xlink" x="0px" y="0px"
	 viewBox="0 0 2302 1522" style="enable-background:new 0 0 2302 1522;" xml:space="preserve">
<style type="text/css">
	.st0{fill:#FFFFFF;}
	.st1{fill:#EAD9EB;}
	.st2{fill:#95608F;}
	.st3{fill:#ED859E;}
	.st4{fill:#FAC87D;}
	.st5{fill:#554B4E;}
	.st6{fill:#F8F4E9;}
	.st7{fill:#BFA071;}
	.st8{fill:#F2DED6;}
</style>
<g id="Bg">
</g>
<g id="Graphic">
	<g id="Frame_00000167355245811052662750000003817666454870395068_">
		<g>
			<path class="st1" d="M2197.66,1H104.34c0,57.08-46.27,103.34-103.34,103.34v1313.31c57.08,0,103.34,46.27,103.34,103.34h2093.31
				c0-57.08,46.27-103.34,103.34-103.34V104.34C2243.92,104.34,2197.66,58.08,2197.66,1z M2286,1403.6
				c-53.28,6.77-95.63,49.12-102.4,102.4H118.4c-6.77-53.28-49.12-95.63-102.4-102.4V118.4c53.28-6.77,95.63-49.12,102.4-102.4
				h2065.2c6.77,53.28,49.12,95.63,102.4,102.4V1403.6z"/>
			<path class="st1" d="M2197.66,1522H104.34c-0.55,0-1-0.45-1-1c0-56.43-45.91-102.34-102.34-102.34c-0.55,0-1-0.45-1-1V104.34
				c0-0.55,0.45-1,1-1c56.43,0,102.34-45.91,102.34-102.34c0-0.55,0.45-1,1-1h2093.31c0.55,0,1,0.45,1,1
				c0,56.43,45.91,102.34,102.34,102.34c0.55,0,1,0.45,1,1v1313.31c0,0.55-0.45,1-1,1c-56.43,0-102.34,45.91-102.34,102.34
				C2198.66,1521.55,2198.21,1522,2197.66,1522z M105.34,1520h2091.32c0.54-56.74,46.6-102.8,103.34-103.34V105.34
				C2243.26,104.8,2197.2,58.74,2196.66,2H105.34C104.8,58.74,58.74,104.8,2,105.34v1311.32C58.74,1417.2,104.8,1463.26,105.34,1520
				z M2183.6,1507H118.4c-0.5,0-0.93-0.37-0.99-0.87c-6.74-53.04-48.49-94.79-101.53-101.53c-0.5-0.06-0.87-0.49-0.87-0.99V118.4
				c0-0.5,0.37-0.93,0.87-0.99c53.04-6.74,94.79-48.49,101.53-101.53c0.06-0.5,0.49-0.87,0.99-0.87h2065.2
				c0.5,0,0.93,0.37,0.99,0.87c6.74,53.04,48.49,94.79,101.53,101.53c0.5,0.06,0.87,0.49,0.87,0.99V1403.6
				c0,0.5-0.37,0.93-0.87,0.99c-53.04,6.74-94.79,48.49-101.53,101.53C2184.53,1506.63,2184.11,1507,2183.6,1507z M119.28,1505
				h2063.45c7.16-53.23,49.04-95.11,102.28-102.28V119.28c-53.23-7.16-95.11-49.04-102.28-102.28H119.28
				C112.11,70.23,70.23,112.11,17,119.28v1283.45C70.23,1409.89,112.11,1451.77,119.28,1505z M2286,1403.6L2286,1403.6L2286,1403.6z
				"/>
		</g>
		<g id="Moon_00000150075388350021724810000001894241654739158665_">
			<g>
				<path class="st2" d="M34.01,67.02c1.49,0,2.96-0.11,4.4-0.3c-6.48-6.03-10.54-14.62-10.54-24.17
					c0-16.74,12.46-30.56,28.61-32.71C50.59,4.36,42.69,1,34.01,1C15.78,1,1,15.78,1,34.01S15.78,67.02,34.01,67.02z"/>
				<path class="st2" d="M34.01,68.02C15.26,68.02,0,52.76,0,34.01S15.26,0,34.01,0c8.62,0,16.84,3.23,23.15,9.11
					c0.28,0.26,0.39,0.67,0.27,1.04c-0.12,0.37-0.44,0.64-0.82,0.69C40.8,12.94,28.87,26.57,28.87,42.55
					c0,8.86,3.72,17.4,10.22,23.44c0.28,0.26,0.39,0.67,0.27,1.04c-0.12,0.37-0.44,0.64-0.82,0.69C37,67.92,35.48,68.02,34.01,68.02
					z M34.01,2C16.36,2,2,16.36,2,34.01s14.36,32.01,32.01,32.01c0.72,0,1.45-0.03,2.19-0.08c-5.96-6.29-9.33-14.7-9.33-23.39
					c0-16.25,11.62-30.22,27.36-33.35C48.52,4.54,41.42,2,34.01,2z"/>
			</g>
			<g>
				<path class="st3" d="M27.87,42.55c0,9.55,4.06,18.14,10.54,24.17c16.15-2.15,28.61-15.97,28.61-32.71
					c0-9.55-4.06-18.14-10.54-24.17C40.33,11.99,27.87,25.81,27.87,42.55z"/>
				<path class="st3" d="M38.41,67.72c-0.25,0-0.49-0.09-0.68-0.27c-6.9-6.42-10.86-15.49-10.86-24.9
					c0-16.97,12.67-31.46,29.48-33.7c0.3-0.04,0.59,0.06,0.81,0.26c6.9,6.42,10.86,15.5,10.86,24.9c0,16.97-12.67,31.46-29.48,33.7
					C38.5,67.72,38.45,67.72,38.41,67.72z M56.15,10.9c-15.58,2.31-27.27,15.84-27.27,31.65c0,8.7,3.59,17.09,9.87,23.11
					c15.58-2.31,27.27-15.83,27.27-31.65C66.02,25.31,62.43,16.92,56.15,10.9z"/>
			</g>
			<g>
				<path class="st2" d="M2270.06,66.95c7.36-6.05,12.05-15.23,12.05-25.5c0-18.23-14.78-33.01-33.01-33.01
					c-0.7,0-1.39,0.03-2.07,0.07c5.7-4.69,13-7.51,20.96-7.51c18.23,0,33.01,14.78,33.01,33.01
					C2301,51.54,2287.33,65.88,2270.06,66.95z"/>
				<path class="st2" d="M2270.06,67.95c-0.41,0-0.78-0.25-0.93-0.63c-0.16-0.4-0.04-0.86,0.29-1.14
					c7.43-6.11,11.69-15.12,11.69-24.73c0-17.65-14.36-32.01-32.01-32.01c-0.68,0-1.34,0.03-2.01,0.07
					c-0.45,0.02-0.83-0.23-0.99-0.63c-0.16-0.4-0.04-0.86,0.29-1.14c6.06-4.99,13.73-7.74,21.6-7.74
					c18.75,0,34.01,15.26,34.01,34.01c0,17.92-14,32.83-31.88,33.94C2270.1,67.95,2270.08,67.95,2270.06,67.95z M2250.12,7.45
					c18.29,0.54,32.99,15.58,32.99,34c0,9.15-3.64,17.8-10.08,24.17c15.35-2.43,26.97-15.77,26.97-31.61
					C2300,16.36,2285.64,2,2267.99,2C2261.61,2,2255.37,3.92,2250.12,7.45z"/>
			</g>
			<g>
				<path class="st3" d="M2282.11,41.45c0,10.27-4.69,19.45-12.05,25.5c-0.69,0.04-1.38,0.07-2.07,0.07
					c-18.23,0-33.01-14.78-33.01-33.01c0-10.27,4.69-19.45,12.05-25.5c0.69-0.04,1.38-0.07,2.07-0.07
					C2267.33,8.44,2282.11,23.22,2282.11,41.45z"/>
				<path class="st3" d="M2267.99,68.02c-18.75,0-34.01-15.26-34.01-34.01c0-10.21,4.53-19.78,12.42-26.27
					c0.16-0.13,0.36-0.21,0.57-0.23c0.79-0.05,1.49-0.07,2.14-0.07c18.75,0,34.01,15.26,34.01,34.01c0,10.21-4.53,19.78-12.42,26.27
					c-0.16,0.13-0.36,0.21-0.57,0.23C2269.34,68,2268.64,68.02,2267.99,68.02z M2270.06,66.95L2270.06,66.95L2270.06,66.95z
					 M2247.42,9.49c-7.27,6.11-11.44,15.03-11.44,24.52c0,17.65,14.36,32.01,32.01,32.01c0.57,0,1.13-0.02,1.69-0.05
					c7.27-6.11,11.44-15.03,11.44-24.52c0-17.65-14.36-32.01-32.01-32.01C2248.54,9.44,2247.98,9.46,2247.42,9.49z"/>
			</g>
			<g>
				<path class="st2" d="M2301,1487.99c0,18.23-14.78,33.01-33.01,33.01c-13.31,0-24.76-7.88-29.99-19.22
					c2.81,0.78,5.78,1.21,8.84,1.21c18.23,0,33.01-14.78,33.01-33.01c0-4.93-1.09-9.6-3.02-13.79
					C2290.77,1460.05,2301,1472.82,2301,1487.99z"/>
				<path class="st2" d="M2267.99,1522c-13.23,0-25.36-7.77-30.9-19.8c-0.16-0.35-0.11-0.77,0.15-1.07c0.25-0.3,0.65-0.42,1.03-0.32
					c2.8,0.78,5.68,1.17,8.57,1.17c17.65,0,32.01-14.36,32.01-32.01c0-4.66-0.99-9.16-2.93-13.38c-0.16-0.35-0.11-0.77,0.15-1.07
					c0.25-0.3,0.65-0.42,1.03-0.32c14.66,4.07,24.91,17.54,24.91,32.77C2302,1506.74,2286.74,1522,2267.99,1522z M2239.86,1503.27
					c5.57,10.23,16.39,16.74,28.13,16.74c17.65,0,32.01-14.36,32.01-32.01c0-13.62-8.7-25.75-21.41-30.2
					c1.5,3.89,2.26,7.98,2.26,12.19c0,18.75-15.26,34.01-34.01,34.01C2244.5,1503.99,2242.16,1503.75,2239.86,1503.27z"/>
			</g>
			<g>
				<path class="st3" d="M2246.84,1502.99c-3.06,0-6.02-0.43-8.84-1.21c-1.93-4.2-3.02-8.87-3.02-13.79
					c0-18.23,14.78-33.01,33.01-33.01c3.06,0,6.02,0.43,8.84,1.21c1.93,4.2,3.02,8.87,3.02,13.79
					C2279.85,1488.21,2265.07,1502.99,2246.84,1502.99z"/>
				<path class="st3" d="M2246.84,1503.99c-3.07,0-6.13-0.42-9.11-1.24c-0.28-0.08-0.52-0.28-0.64-0.54
					c-2.07-4.48-3.11-9.27-3.11-14.21c0-18.75,15.26-34.01,34.01-34.01c3.07,0,6.13,0.42,9.1,1.24c0.28,0.08,0.52,0.28,0.64,0.54
					c2.07,4.48,3.11,9.27,3.11,14.21C2280.85,1488.73,2265.59,1503.99,2246.84,1503.99z M2238.72,1500.94
					c2.66,0.7,5.39,1.05,8.12,1.05c17.65,0,32.01-14.36,32.01-32.01c0-4.5-0.92-8.86-2.74-12.95c-2.66-0.7-5.39-1.05-8.12-1.05
					c-17.65,0-32.01,14.36-32.01,32.01C2235.98,1492.49,2236.9,1496.85,2238.72,1500.94z"/>
			</g>
			<g>
				<path class="st2" d="M48.56,1508.14c4.85,0,9.45-1.05,13.59-2.93c-5.8,9.46-16.23,15.79-28.14,15.79
					C15.78,1521,1,1506.22,1,1487.99c0-13.37,7.96-24.87,19.39-30.06c-3.07,5.01-4.84,10.9-4.84,17.2
					C15.55,1493.36,30.33,1508.14,48.56,1508.14z"/>
				<path class="st2" d="M34.01,1522C15.26,1522,0,1506.74,0,1487.99c0-13.31,7.84-25.47,19.98-30.97c0.4-0.18,0.87-0.08,1.16,0.25
					c0.29,0.33,0.33,0.81,0.1,1.18c-3.07,5.01-4.69,10.78-4.69,16.68c0,17.65,14.36,32.01,32.01,32.01c4.59,0,9.02-0.95,13.18-2.84
					c0.4-0.18,0.87-0.08,1.16,0.25c0.29,0.33,0.33,0.81,0.1,1.18C56.76,1515.92,45.92,1522,34.01,1522z M17.95,1460.31
					C8.17,1466,2,1476.54,2,1487.99c0,17.65,14.36,32.01,32.01,32.01c10.14,0,19.45-4.68,25.48-12.66c-3.51,1.19-7.17,1.8-10.93,1.8
					c-18.75,0-34.01-15.26-34.01-34.01C14.55,1469.97,15.72,1464.91,17.95,1460.31z"/>
			</g>
			<g>
				<path class="st3" d="M63.42,1502.98c-0.39,0.76-0.82,1.5-1.26,2.23c-4.14,1.88-8.75,2.93-13.59,2.93
					c-18.23,0-33.01-14.78-33.01-33.01c0-6.3,1.77-12.19,4.84-17.2c4.07-1.85,8.57-2.9,13.32-2.94c0.1,0,0.2-0.01,0.3-0.01
					c18.23,0,33.01,14.78,33.01,33.01C67.02,1493.39,65.72,1498.48,63.42,1502.98z"/>
				<path class="st3" d="M48.56,1509.14c-18.75,0-34.01-15.26-34.01-34.01c0-6.27,1.72-12.4,4.98-17.72
					c0.1-0.17,0.26-0.31,0.44-0.39c4.34-1.97,8.95-2.99,13.72-3.03l0.31-0.01c18.75,0,34.01,15.26,34.01,34.01
					c0,5.43-1.25,10.62-3.71,15.45l0,0c-0.37,0.72-0.8,1.48-1.3,2.3c-0.1,0.17-0.26,0.31-0.44,0.39
					C58.15,1508.13,53.44,1509.14,48.56,1509.14z M21.08,1458.71c-2.97,4.95-4.53,10.62-4.53,16.42c0,17.65,14.36,32.01,32.01,32.01
					c4.49,0,8.83-0.91,12.9-2.71c0.41-0.68,0.76-1.3,1.06-1.9c2.32-4.54,3.49-9.43,3.49-14.54c0-17.65-14.36-32.01-32.01-32.01
					l-0.29,0.01C29.33,1456.03,25.08,1456.94,21.08,1458.71z M63.42,1502.98L63.42,1502.98L63.42,1502.98z"/>
			</g>
		</g>
	</g>
</g>
<g id="Guide">
</g>
</svg>
