<?xml version="1.0" encoding="utf-8"?>
<!-- Generator: Adobe Illustrator 26.1.0, SVG Export Plug-In . SVG Version: 6.00 Build 0)  -->
<svg version="1.1" xmlns="http://www.w3.org/2000/svg" xmlns:xlink="http://www.w3.org/1999/xlink" x="0px" y="0px"
	 viewBox="0 0 365.01 39.79" style="enable-background:new 0 0 365.01 39.79;" xml:space="preserve">
<style type="text/css">
	.st0{fill:#FFFFFF;}
	.st1{fill:#EAD9EB;}
	.st2{fill:#95608F;}
	.st3{fill:#ED859E;}
	.st4{fill:#FAC87D;}
	.st5{fill:#554B4E;}
	.st6{fill:#F8F4E9;}
	.st7{fill:#BFA071;}
	.st8{fill:#F2DED6;}
</style>
<g id="Bg">
</g>
<g id="Graphic">
	<g id="Small_moon_00000001655689631882611120000015668054487732815543_">
		<g>
			<path class="st4" d="M12.56,13.53C15.42,23.06,10.27,33.08,1,36.38c4.14,2.15,9.09,2.76,13.91,1.31
				c9.82-2.95,15.39-13.31,12.44-23.13C24.4,4.73,14.04-0.84,4.22,2.11C3.92,2.2,3.62,2.3,3.33,2.4
				C7.63,4.63,11.06,8.53,12.56,13.53z"/>
			<path class="st4" d="M9.55,39.48c-3.1,0-6.18-0.75-9.01-2.21C0.19,37.08-0.02,36.7,0,36.31c0.03-0.4,0.29-0.74,0.66-0.87
				C9.5,32.3,14.3,22.8,11.6,13.82l0,0C10.22,9.24,7.12,5.5,2.87,3.29C2.52,3.1,2.31,2.73,2.33,2.33C2.36,1.93,2.62,1.59,3,1.46
				C3.3,1.35,3.61,1.25,3.93,1.15c5.01-1.5,10.3-0.97,14.91,1.51s7.97,6.6,9.47,11.6c1.5,5.01,0.97,10.3-1.51,14.91
				c-2.48,4.6-6.6,7.97-11.61,9.47C13.34,39.2,11.44,39.48,9.55,39.48z M3.51,36.4c3.56,1.31,7.43,1.44,11.1,0.33
				c4.5-1.35,8.2-4.37,10.42-8.5s2.7-8.89,1.35-13.38c-1.35-4.5-4.37-8.2-8.51-10.42c-3.73-2.01-7.97-2.59-12.06-1.7
				c3.69,2.51,6.39,6.18,7.69,10.52l0,0C16.29,22.49,11.94,32.21,3.51,36.4z"/>
		</g>
		<g>
			<circle class="st2" cx="182.5" cy="19.9" r="18.57"/>
			<path class="st2" d="M182.5,39.47c-10.79,0-19.57-8.78-19.57-19.57s8.78-19.57,19.57-19.57c10.79,0,19.57,8.78,19.57,19.57
				S193.3,39.47,182.5,39.47z M182.5,2.32c-9.69,0-17.57,7.88-17.57,17.57s7.88,17.57,17.57,17.57c9.69,0,17.57-7.88,17.57-17.57
				S192.19,2.32,182.5,2.32z"/>
		</g>
		<g>
			<path class="st3" d="M92.46,1c-4.57,0-8.77,1.57-12.07,4.19c4.36,3.46,7.15,8.76,7.15,14.7s-2.79,11.24-7.15,14.7
				c3.3,2.62,7.49,4.19,12.07,4.19c10.61,0,19.22-8.46,19.22-18.9S103.07,1,92.46,1z"/>
			<path class="st3" d="M92.46,39.79c-4.6,0-9.11-1.57-12.69-4.41c-0.24-0.19-0.38-0.48-0.38-0.78s0.14-0.59,0.38-0.78
				c4.31-3.42,6.78-8.49,6.78-13.92S84.08,9.4,79.77,5.98c-0.24-0.19-0.38-0.48-0.38-0.78s0.14-0.59,0.38-0.78
				C83.35,1.57,87.86,0,92.46,0c11.15,0,20.22,8.93,20.22,19.9S103.61,39.79,92.46,39.79z M82,34.55c3.05,2.1,6.72,3.25,10.46,3.25
				c10.05,0,18.22-8.03,18.22-17.9S102.5,2,92.46,2C88.72,2,85.05,3.14,82,5.24c4.17,3.77,6.54,9.04,6.54,14.65
				S86.18,30.78,82,34.55z"/>
		</g>
		<g>
			<path class="st4" d="M352.45,13.53c-2.86,9.53,2.29,19.55,11.56,22.84c-4.14,2.15-9.09,2.76-13.91,1.31
				c-9.82-2.95-15.39-13.31-12.44-23.13c2.95-9.82,13.31-15.39,23.13-12.44c0.3,0.09,0.59,0.19,0.88,0.29
				C357.38,4.63,353.95,8.53,352.45,13.53z"/>
			<path class="st4" d="M355.46,39.48c-1.89,0-3.79-0.28-5.65-0.83c-5.01-1.5-9.13-4.87-11.6-9.47s-3.01-9.9-1.51-14.91
				c1.5-5.01,4.87-9.13,9.47-11.6c4.61-2.48,9.9-3.01,14.9-1.51c0.31,0.09,0.63,0.2,0.93,0.31c0.38,0.13,0.63,0.48,0.66,0.87
				s-0.18,0.77-0.54,0.96c-4.25,2.21-7.35,5.95-8.73,10.53l0,0c-2.7,8.98,2.1,18.48,10.94,21.61c0.38,0.13,0.64,0.48,0.66,0.87
				c0.03,0.4-0.18,0.77-0.54,0.96C361.64,38.73,358.56,39.48,355.46,39.48z M355.42,2.32c-2.87,0-5.71,0.71-8.3,2.11
				c-4.13,2.22-7.15,5.92-8.51,10.42c-1.35,4.5-0.87,9.25,1.35,13.38s5.92,7.15,10.42,8.5c3.68,1.11,7.55,0.98,11.11-0.33
				c-8.43-4.18-12.78-13.91-10.01-23.15l0,0c1.3-4.34,4-8.01,7.69-10.52C357.94,2.45,356.68,2.32,355.42,2.32z M352.45,13.53
				L352.45,13.53L352.45,13.53z"/>
		</g>
		<g>
			<path class="st3" d="M272.55,1c4.57,0,8.77,1.57,12.07,4.19c-4.36,3.46-7.15,8.76-7.15,14.7s2.79,11.24,7.15,14.7
				c-3.3,2.62-7.49,4.19-12.07,4.19c-10.61,0-19.22-8.46-19.22-18.9S261.93,1,272.55,1z"/>
			<path class="st3" d="M272.55,39.79c-11.15,0-20.22-8.93-20.22-19.9S261.4,0,272.55,0c4.6,0,9.11,1.57,12.69,4.41
				c0.24,0.19,0.38,0.48,0.38,0.78s-0.14,0.59-0.38,0.78c-4.31,3.42-6.77,8.49-6.77,13.92s2.47,10.5,6.77,13.92
				c0.24,0.19,0.38,0.48,0.38,0.78s-0.14,0.59-0.38,0.78C281.66,38.23,277.15,39.79,272.55,39.79z M272.55,2
				c-10.05,0-18.22,8.03-18.22,17.9s8.17,17.9,18.22,17.9c3.8,0,7.39-1.12,10.46-3.24c-4.18-3.77-6.55-9.04-6.55-14.65
				s2.37-10.88,6.55-14.65C279.94,3.12,276.35,2,272.55,2z"/>
		</g>
	</g>
</g>
<g id="Guide">
</g>
</svg>
