<?xml version="1.0" encoding="utf-8"?>
<!-- Generator: Adobe Illustrator 26.1.0, SVG Export Plug-In . SVG Version: 6.00 Build 0)  -->
<svg version="1.1" xmlns="http://www.w3.org/2000/svg" xmlns:xlink="http://www.w3.org/1999/xlink" x="0px" y="0px"
	 viewBox="0 0 625.07 627.07" style="enable-background:new 0 0 625.07 627.07;" xml:space="preserve">
<style type="text/css">
	.st0{fill:#FFFFFF;}
	.st1{fill:#EAD9EB;}
	.st2{fill:#95608F;}
	.st3{fill:#ED859E;}
	.st4{fill:#FAC87D;}
	.st5{fill:#554B4E;}
	.st6{fill:#F8F4E9;}
	.st7{fill:#BFA071;}
	.st8{fill:#F2DED6;}
</style>
<g id="Bg">
</g>
<g id="Graphic">
	<g id="Big_sun_00000037680800947304478480000006575597470892381345_">
		<g id="Face_00000119103724500495551010000011247746359489163657_">
			<g id="Face_00000025402130330608884880000007231232901315352714_">
				<circle class="st4" cx="312.53" cy="313.53" r="156.03"/>
			</g>
			<g id="Mouth_00000176024964189406016670000006034782340576419764_">
				<g>
					<path class="st1" d="M348.87,388.58c-14.2,9.32-31.48,9.17-40.67,9.08c-17.32-0.17-33.72-7.45-33.72-7.45
						c14.88-7.78,23.74-8.13,34.69-7.4c3.3,0.22,6.59,0.29,9.85-0.12c1.75-0.22,6.8-0.66,9.76-0.5c8.89,0.47,13.38,4.5,19.95,6.49
						L348.87,388.58z"/>
					<path class="st2" d="M311.39,398.68c-1.15,0-2.22-0.01-3.21-0.02c-17.32-0.17-33.95-7.46-34.12-7.53
						c-0.35-0.16-0.58-0.5-0.59-0.88s0.2-0.74,0.54-0.92c15.5-8.1,24.75-8.21,35.22-7.52c2.67,0.18,6.18,0.32,9.66-0.12
						c1.54-0.19,6.77-0.67,9.94-0.51c5.97,0.32,10.01,2.19,13.92,3.99c1.97,0.91,3.83,1.77,5.91,2.43c0.39-0.09,0.81,0.07,1.05,0.43
						c0.3,0.46,0.17,1.08-0.29,1.38l-0.14,0.09c-0.01,0.01-0.02,0.01-0.03,0.02C336.34,397.93,321.13,398.68,311.39,398.68z
						 M276.87,390.11c4.86,1.89,17.9,6.42,31.33,6.55c8.73,0.09,24.63,0.24,38.2-7.72c-1.57-0.6-3.05-1.28-4.5-1.95
						c-3.73-1.73-7.59-3.51-13.18-3.81c-2.77-0.15-7.69,0.26-9.58,0.5c-3.65,0.46-7.29,0.31-10.05,0.13
						C299.38,383.16,290.76,383.23,276.87,390.11z"/>
				</g>
				<g>
					<path class="st2" d="M313.24,391.85c-1.91,0-3.64-0.32-5.98-0.76c-0.88-0.16-1.85-0.34-2.96-0.53
						c-8.54-1.45-29.52,0.63-29.73,0.65c-0.55,0.06-1.04-0.35-1.09-0.9c-0.05-0.55,0.35-1.04,0.9-1.09
						c0.87-0.09,21.45-2.12,30.26-0.63c1.12,0.19,2.1,0.37,2.99,0.54c4.77,0.89,6.56,1.22,12.69-0.51
						c9.69-2.74,27.75-1.01,28.52-0.93c0.55,0.05,0.95,0.54,0.9,1.09c-0.05,0.55-0.53,0.95-1.09,0.9
						c-0.18-0.02-18.45-1.77-27.78,0.87C317.48,391.49,315.26,391.85,313.24,391.85z"/>
				</g>
				<g>
					<path class="st2" d="M274.47,391.21c-0.06,0-0.12,0-0.18-0.02c-1.52-0.28-3.37-0.34-5.7-0.42c-3.27-0.12-7.34-0.26-12.55-1.07
						c-8.04-1.25-9.58-3.26-9.81-3.65c-0.28-0.48-0.12-1.09,0.36-1.37s1.09-0.12,1.37,0.36c0,0,0,0,0,0c0.01,0,1.41,1.59,8.39,2.68
						c5.09,0.79,9.09,0.93,12.31,1.04c2.42,0.08,4.33,0.15,5.99,0.46c0.54,0.1,0.9,0.62,0.8,1.16
						C275.37,390.88,274.95,391.21,274.47,391.21z"/>
				</g>
				<g>
					<path class="st2" d="M348.87,389.58c-0.55,0-1-0.44-1-0.99c0-0.55,0.44-1,0.99-1.01c0.09,0,9.44-0.09,18.13-1.44
						c7.07-1.1,8.42-2.72,8.43-2.74c0.28-0.48,0.87-0.61,1.35-0.33c0.48,0.28,0.62,0.92,0.34,1.4c-0.23,0.39-1.77,2.4-9.81,3.65
						C358.46,389.49,348.97,389.58,348.87,389.58C348.87,389.58,348.87,389.58,348.87,389.58z"/>
				</g>
			</g>
			<g id="Nose_00000175280811478693572210000012385222279619617666_">
				<g>
					<path class="st2" d="M311.67,357c-0.03,0-0.05,0-0.08,0c-3.07-0.24-4.75-1.48-6.54-2.79c-2.12-1.56-4.52-3.32-10.12-4.32
						c-11.37-2.02-11.24-8.55-11.23-8.83c0.02-0.55,0.47-1,1.04-0.96c0.55,0.02,0.98,0.49,0.96,1.04c0,0.2,0.04,5.08,9.58,6.78
						c6.06,1.08,8.77,3.07,10.95,4.68c1.73,1.27,2.98,2.2,5.43,2.4c2.45-0.21,3.7-1.13,5.43-2.4c2.18-1.6,4.89-3.6,10.95-4.68
						c9.55-1.7,9.59-6.59,9.58-6.79c-0.01-0.55,0.43-1.01,0.97-1.02c0.53-0.03,1,0.41,1.03,0.95c0.01,0.28,0.14,6.81-11.23,8.83
						c-5.6,1-8,2.76-10.12,4.32c-1.79,1.31-3.47,2.55-6.54,2.79C311.72,357,311.69,357,311.67,357z"/>
				</g>
				<g>
					<path class="st2" d="M311.7,346.57c-1.93-0.07-2.92-0.44-4.08-0.86c-1.34-0.49-2.86-1.05-6.43-1.37
						c-6.9-0.61-7.27-2.65-7.23-3.26c0.03-0.41,0.39-0.71,0.81-0.69c0.38,0.03,0.67,0.34,0.69,0.7c0.06,0.13,0.78,1.3,5.86,1.75
						c3.76,0.33,5.46,0.96,6.82,1.46c1.08,0.4,1.93,0.71,3.56,0.77c1.57-0.06,2.42-0.38,3.5-0.77c1.36-0.5,3.05-1.12,6.82-1.46
						c5.08-0.45,5.8-1.62,5.86-1.75c0.02-0.37,0.31-0.67,0.69-0.7c0.42-0.03,0.77,0.28,0.81,0.69c0.05,0.61-0.33,2.65-7.23,3.26
						c-3.57,0.32-5.09,0.88-6.43,1.37C314.56,346.13,313.57,346.5,311.7,346.57z M327.88,341.19
						C327.88,341.19,327.88,341.19,327.88,341.19C327.88,341.19,327.88,341.19,327.88,341.19z M295.46,341.19
						C295.46,341.19,295.46,341.19,295.46,341.19C295.46,341.19,295.46,341.19,295.46,341.19z M295.46,341.19
						C295.46,341.19,295.46,341.19,295.46,341.19C295.46,341.19,295.46,341.19,295.46,341.19z M295.46,341.19
						C295.46,341.19,295.46,341.19,295.46,341.19C295.46,341.19,295.46,341.19,295.46,341.19z M327.88,341.18
						C327.88,341.18,327.88,341.18,327.88,341.18C327.88,341.18,327.88,341.18,327.88,341.18z"/>
				</g>
				<g>
					<path class="st2" d="M311.67,340.92c-3.84,0-10.38-1.89-10.66-1.97c-0.4-0.12-0.63-0.53-0.51-0.93
						c0.12-0.4,0.53-0.62,0.93-0.51c0.07,0.02,6.62,1.91,10.24,1.91c3.36,0,10.18-1.89,10.25-1.91c0.4-0.11,0.81,0.12,0.92,0.52
						c0.11,0.4-0.12,0.81-0.52,0.92C322.03,339.04,315.23,340.92,311.67,340.92z"/>
				</g>
			</g>
			<g id="Eyes_00000082327520556890637080000015470067883768133271_">
				<g id="Right_00000062902360882959524850000016560306936783903419_">
					<g>
						<path class="st1" d="M345.17,294.23c11.48-4.91,23.3-21.49,40.35-9.69c13.43,9.29,17.79,8.8,17.79,8.8s-8.51,0.99-18.57,6.04
							c-10.11,5.08-16.2,3.79-21.19,1.42c-5.6-2.66-11.41-4.85-17.43-6.34L345.17,294.23z"/>
						<path class="st2" d="M372.11,303.88c-3.63,0-6.51-1-8.99-2.18c-5.85-2.78-11.66-4.88-17.24-6.27l-0.95-0.24
							c-0.42-0.1-0.72-0.46-0.76-0.89c-0.04-0.43,0.21-0.83,0.6-1c2.93-1.25,5.91-3.31,9.06-5.48c8.97-6.19,19.13-13.2,32.26-4.12
							c12.69,8.78,17.1,8.63,17.14,8.63c0.55-0.01,1.02,0.37,1.07,0.91c0.05,0.54-0.33,1.02-0.87,1.08
							c-0.08,0.01-8.47,1.04-18.23,5.94C379.9,302.94,375.65,303.88,372.11,303.88z M348.04,293.93c5.19,1.41,10.55,3.41,15.94,5.97
							c4.68,2.22,10.38,3.58,20.31-1.41c5.72-2.87,10.9-4.45,14.39-5.28c-2.9-1.14-7.31-3.4-13.74-7.85
							c-11.99-8.3-21.14-1.98-29.98,4.12C352.59,291.12,350.32,292.69,348.04,293.93z"/>
					</g>
					<g>
						<path class="st2" d="M376.33,296.77c8.42-1.65,8.81-10.51,9.19-12.23c-9.5-6.57-17.37-4.33-24.47-0.22
							C361.62,294.37,369.43,298.12,376.33,296.77z"/>
						<path class="st2" d="M373.58,298.04c-3.07,0-6-0.95-8.33-2.76c-2.19-1.7-4.87-4.97-5.21-10.9c-0.02-0.38,0.17-0.73,0.5-0.92
							c6.37-3.7,15.04-7.01,25.54,0.26c0.33,0.23,0.49,0.64,0.41,1.04c-0.04,0.17-0.07,0.41-0.12,0.7
							c-0.4,2.64-1.63,10.68-9.86,12.3l0,0C375.53,297.95,374.55,298.04,373.58,298.04z M376.33,296.77L376.33,296.77L376.33,296.77
							z M362.09,284.88c0.35,3.82,1.86,6.86,4.39,8.83c2.6,2.02,6.12,2.78,9.66,2.09c6.85-1.34,7.84-7.86,8.26-10.64
							c0.01-0.05,0.02-0.1,0.02-0.15C375.41,279.05,368.1,281.49,362.09,284.88z"/>
					</g>
					<g>
						<path class="st2" d="M361.05,310.03c-0.09,0-0.18-0.02-0.27-0.05c-9.93-3.8-19.59-11.43-19.69-11.5
							c-0.32-0.26-0.38-0.73-0.12-1.05c0.26-0.32,0.73-0.38,1.05-0.12c0.09,0.08,9.58,7.56,19.29,11.28
							c0.39,0.15,0.58,0.58,0.43,0.97C361.63,309.85,361.35,310.03,361.05,310.03z"/>
					</g>
					<g>
						<path class="st2" d="M372.85,311.91c-3.28,0-5.66-0.29-5.86-0.32c-0.41-0.05-0.7-0.43-0.65-0.84c0.05-0.41,0.43-0.7,0.84-0.65
							c0.1,0.01,9.83,1.21,17.33-1.32c0.39-0.13,0.82,0.08,0.95,0.47c0.13,0.39-0.08,0.82-0.47,0.95
							C380.94,311.57,376.37,311.91,372.85,311.91z"/>
					</g>
					<g>
						<path class="st2" d="M388.21,308.96c-0.32,0-0.61-0.2-0.71-0.52c-0.13-0.39,0.08-0.82,0.48-0.95
							c6.92-2.28,8.33-3.15,12.53-5.73c1.23-0.76,2.7-1.66,4.61-2.79c0.36-0.21,0.82-0.09,1.03,0.26c0.21,0.36,0.09,0.82-0.26,1.03
							c-1.9,1.12-3.36,2.02-4.59,2.78c-4.31,2.66-5.76,3.55-12.85,5.88C388.36,308.95,388.28,308.96,388.21,308.96z"/>
					</g>
					<g>
						<path class="st2" d="M338.98,267.25c-0.22,0-0.45-0.08-0.64-0.23c-0.43-0.35-0.49-0.98-0.14-1.41
							c0.33-0.4,8.18-9.79,22.4-15.11c23.76-8.88,46.07,0.96,60.6,10.77c0.46,0.31,0.58,0.93,0.27,1.39
							c-0.31,0.46-0.93,0.58-1.39,0.27c-20.25-13.67-40.55-17.34-58.7-10.59c-13.75,5.11-21.56,14.44-21.64,14.54
							C339.56,267.12,339.27,267.25,338.98,267.25z"/>
					</g>
					<g>
						<path class="st2" d="M340.23,281.44c-0.16,0-0.33-0.05-0.46-0.16c-0.32-0.26-0.38-0.73-0.12-1.05
							c0.35-0.45,8.83-11.02,25.23-14.57c0.4-0.09,0.8,0.17,0.89,0.57s-0.17,0.8-0.57,0.89c-15.84,3.43-24.28,13.93-24.37,14.04
							C340.67,281.34,340.45,281.44,340.23,281.44z"/>
					</g>
					<g>
						<path class="st2" d="M387.29,269.98c-0.12,0-0.24-0.03-0.35-0.09c-7.23-3.83-17.4-3.1-17.5-3.09
							c-0.42,0.03-0.77-0.28-0.81-0.69c-0.03-0.41,0.28-0.77,0.69-0.81c0.43-0.03,10.7-0.77,18.31,3.26
							c0.37,0.19,0.51,0.65,0.31,1.01C387.82,269.84,387.56,269.98,387.29,269.98z"/>
					</g>
					<g>
						<path class="st2" d="M412.26,288.81c-0.08,0-0.15-0.01-0.23-0.04c-9.41-3.05-12.6-5.26-15.69-7.4
							c-2.48-1.71-5.04-3.49-10.96-5.76c-16.88-6.48-28.02,1.59-36.16,7.48c-2.21,1.6-4.13,2.99-5.85,3.83
							c-0.37,0.18-0.82,0.03-1-0.34c-0.18-0.37-0.03-0.82,0.34-1c1.61-0.79,3.47-2.13,5.63-3.7c7.94-5.75,19.94-14.43,37.58-7.66
							c6.09,2.34,8.73,4.16,11.28,5.92c3.14,2.17,6.1,4.22,15.3,7.21c0.39,0.13,0.61,0.55,0.48,0.94
							C412.87,288.61,412.58,288.81,412.26,288.81z"/>
					</g>
				</g>
				<g id="Left_00000157986907450393277410000011111106559183311493_">
					<g>
						<path class="st1" d="M273.96,295.76c-11.18-5.56-22.03-22.79-39.73-11.99c-13.94,8.51-18.27,7.77-18.27,7.77
							s8.44,1.47,18.19,7.1c9.8,5.65,15.96,4.71,21.07,2.63c5.75-2.33,11.67-4.18,17.77-5.32L273.96,295.76z"/>
						<path class="st2" d="M247.61,303.88c-3.75,0-8.28-1.11-13.96-4.38c-9.47-5.46-17.78-6.96-17.86-6.98
							c-0.54-0.1-0.91-0.61-0.81-1.16c0.09-0.54,0.61-0.91,1.15-0.81c0.01,0,4.4,0.4,17.58-7.63c13.63-8.31,23.37-0.73,31.97,5.96
							c3.02,2.35,5.87,4.57,8.73,5.99c0.38,0.19,0.6,0.61,0.55,1.03c-0.06,0.42-0.38,0.77-0.81,0.84l-0.97,0.18
							c-5.66,1.06-11.58,2.83-17.58,5.27C253.32,303.11,250.73,303.88,247.61,303.88z M220.58,291.66c3.44,1.03,8.52,2.9,14.07,6.1
							c9.63,5.55,15.4,4.52,20.2,2.57c5.53-2.24,10.99-3.94,16.26-5.04c-2.2-1.38-4.38-3.07-6.66-4.84
							c-8.48-6.6-17.25-13.42-29.7-5.83C228.07,288.69,223.54,290.69,220.58,291.66z"/>
					</g>
					<g>
						<path class="st2" d="M242.7,296.5c6.63,2.53,15.09-1.63,15.24-12.02c-6.67-4.22-14.2-6.51-23.71-0.71
							c-0.05,0.03-0.09,0.05-0.13,0.08C234.49,286.15,236.17,294.01,242.7,296.5z"/>
						<path class="st2" d="M246.62,298.22c-1.44,0-2.89-0.26-4.27-0.79l0,0c-6.7-2.56-8.69-10.24-9.23-13.42
							c-0.07-0.41,0.12-0.81,0.47-1.02l0.65,0.78l-0.52-0.85c10.66-6.51,18.83-3.03,24.76,0.72c0.29,0.19,0.47,0.51,0.46,0.86
							c-0.07,5.11-2.08,9.27-5.65,11.69C251.3,297.53,248.97,298.22,246.62,298.22z M235.21,284.34c0.63,3.13,2.53,9.19,7.85,11.22
							l0,0c3.03,1.16,6.44,0.77,9.1-1.04c2.89-1.96,4.57-5.32,4.76-9.5C251.32,281.56,244.38,278.97,235.21,284.34z"/>
					</g>
					<g>
						<path class="st2" d="M257.24,310.62c-0.32,0-0.61-0.2-0.71-0.52c-0.13-0.39,0.09-0.82,0.49-0.94
							c9.92-3.16,19.81-10.08,19.91-10.15c0.34-0.24,0.81-0.16,1.05,0.18c0.24,0.34,0.16,0.81-0.18,1.04
							c-0.1,0.07-10.18,7.13-20.32,10.35C257.39,310.61,257.31,310.62,257.24,310.62z"/>
					</g>
					<g>
						<path class="st2" d="M248.51,311.91c-3.52,0-9.9-0.34-15.23-2.5c-0.38-0.16-0.57-0.59-0.41-0.98
							c0.15-0.38,0.59-0.57,0.98-0.41c7.33,2.96,17.12,2.33,17.22,2.32c0.41-0.01,0.77,0.28,0.8,0.7s-0.28,0.77-0.7,0.8
							C251.04,311.84,250.05,311.91,248.51,311.91z"/>
					</g>
					<g>
						<path class="st2" d="M230.18,307.99c-0.09,0-0.18-0.02-0.27-0.05c-6.13-2.42-12.16-8.1-12.42-8.34
							c-0.3-0.29-0.31-0.76-0.03-1.06s0.76-0.31,1.06-0.03c0.06,0.06,6.07,5.72,11.93,8.03c0.39,0.15,0.57,0.59,0.42,0.97
							C230.77,307.81,230.48,307.99,230.18,307.99z"/>
					</g>
					<g>
						<path class="st2" d="M298.24,308.24L298.24,308.24c-0.55,0-1-0.45-1-1c0-22.13-5.82-35.76-20.1-47.04
							c-15.34-12.12-42.82-18.49-73.94,0.02c-0.48,0.28-1.09,0.13-1.37-0.35s-0.13-1.09,0.35-1.37c32-19.02,60.35-12.4,76.21,0.13
							c18.33,14.49,20.86,31.93,20.86,48.61C299.24,307.79,298.79,308.24,298.24,308.24z"/>
					</g>
					<g>
						<path class="st2" d="M279.66,283.27c-0.24,0-0.47-0.11-0.62-0.32c-0.08-0.11-7.9-11.08-23.52-15.41
							c-0.4-0.11-0.63-0.52-0.52-0.92c0.11-0.4,0.52-0.63,0.92-0.52c16.16,4.49,24.02,15.53,24.35,16c0.24,0.34,0.15,0.81-0.19,1.04
							C279.96,283.23,279.81,283.27,279.66,283.27z"/>
					</g>
					<g>
						<path class="st2" d="M233.34,269.13c-0.28,0-0.56-0.16-0.68-0.44c-0.17-0.38-0.01-0.82,0.37-0.99
							c7.83-3.59,18.04-2.27,18.47-2.21c0.41,0.06,0.7,0.43,0.64,0.84c-0.06,0.41-0.44,0.7-0.84,0.64
							c-0.1-0.01-10.21-1.32-17.65,2.08C233.55,269.11,233.44,269.13,233.34,269.13z"/>
					</g>
					<g>
						<path class="st2" d="M276.54,288.66c-0.12,0-0.25-0.03-0.37-0.1c-1.67-0.94-3.5-2.43-5.62-4.16
							c-7.79-6.35-18.45-15.04-35.67-9.54c-6.04,1.93-8.7,3.55-11.28,5.12c-3.21,1.96-6.52,3.98-16.09,6.49
							c-0.4,0.1-0.81-0.13-0.92-0.54s0.13-0.81,0.54-0.92c9.35-2.45,12.43-4.33,15.69-6.31c2.65-1.62,5.39-3.29,11.6-5.27
							c18-5.74,29.48,3.61,37.08,9.81c2.06,1.68,3.85,3.14,5.41,4.01c0.36,0.2,0.49,0.66,0.29,1.02
							C277.06,288.52,276.8,288.66,276.54,288.66z"/>
					</g>
				</g>
			</g>
			<g id="Line_00000175311761504083813940000017675924060831625631_">
				<g>
					<path class="st2" d="M432.1,241.41c-0.26,0-0.51-0.13-0.65-0.37c-4.63-7.99-10.32-15.51-16.91-22.35
						c-0.29-0.3-0.28-0.77,0.02-1.06c0.3-0.29,0.77-0.28,1.06,0.02c6.68,6.93,12.45,14.54,17.13,22.64
						c0.21,0.36,0.09,0.82-0.27,1.03C432.36,241.37,432.23,241.41,432.1,241.41z"/>
				</g>
				<g>
					<path class="st2" d="M410.15,214.09c-0.18,0-0.36-0.07-0.51-0.2c-2.67-2.47-5.49-4.85-8.38-7.08
						c-0.33-0.25-0.39-0.72-0.14-1.05c0.25-0.33,0.72-0.39,1.05-0.14c2.93,2.26,5.78,4.67,8.48,7.17c0.3,0.28,0.32,0.76,0.04,1.06
						C410.55,214.01,410.35,214.09,410.15,214.09z"/>
				</g>
				<g>
					<path class="st2" d="M395.87,202.71c-0.15,0-0.29-0.04-0.42-0.13c-15.41-10.57-33.27-18.12-53.09-22.43
						c-0.4-0.09-0.66-0.49-0.57-0.89c0.09-0.4,0.49-0.66,0.89-0.57c20.01,4.35,38.05,11.98,53.62,22.66
						c0.34,0.23,0.43,0.7,0.19,1.04C396.35,202.6,396.11,202.71,395.87,202.71z"/>
				</g>
				<g>
					<path class="st2" d="M448.9,292.72c-0.38,0-0.7-0.29-0.74-0.67c-0.81-7.48-2.32-14.64-4.5-21.29
						c-0.13-0.39,0.09-0.82,0.48-0.95c0.39-0.13,0.82,0.09,0.95,0.48c2.21,6.75,3.74,14.01,4.56,21.6c0.04,0.41-0.25,0.78-0.67,0.83
						C448.95,292.72,448.93,292.72,448.9,292.72z"/>
				</g>
				<g>
					<path class="st2" d="M448.14,336.61c-0.05,0-0.11-0.01-0.16-0.02c-0.4-0.09-0.66-0.49-0.57-0.89
						c2.83-12.81,1.56-32.17,1.54-32.37c-0.03-0.41,0.28-0.77,0.7-0.8c0.41-0.03,0.77,0.28,0.8,0.7c0.01,0.2,1.31,19.77-1.58,32.79
						C448.8,336.37,448.49,336.61,448.14,336.61z"/>
				</g>
				<g>
					<path class="st2" d="M216.2,410.59c-0.17,0-0.35-0.06-0.49-0.18c-5.76-4.93-11.13-10.71-15.96-17.2
						c-0.25-0.33-0.18-0.8,0.15-1.05c0.33-0.25,0.8-0.18,1.05,0.15c4.77,6.39,10.06,12.1,15.74,16.95c0.31,0.27,0.35,0.74,0.08,1.06
						C216.62,410.51,216.41,410.59,216.2,410.59z"/>
				</g>
				<g>
					<path class="st2" d="M196.5,388.03c-0.24,0-0.48-0.12-0.63-0.34c-8.44-12.76-14.68-27.11-18.56-42.65
						c-0.1-0.4,0.14-0.81,0.55-0.91c0.4-0.11,0.81,0.14,0.91,0.55c3.84,15.38,10.01,29.57,18.35,42.19
						c0.23,0.34,0.13,0.81-0.21,1.04C196.78,387.99,196.64,388.03,196.5,388.03z"/>
				</g>
				<g>
					<path class="st2" d="M315.98,452.22c-0.01,0-0.02,0-0.04,0c-5.41-0.25-10.84-0.74-16.12-1.46c-0.41-0.06-0.7-0.43-0.64-0.84
						c0.06-0.41,0.43-0.71,0.84-0.64c5.24,0.71,10.62,1.2,15.99,1.45c0.41,0.02,0.73,0.37,0.71,0.78
						C316.71,451.91,316.38,452.22,315.98,452.22z"/>
				</g>
				<g>
					<path class="st2" d="M294.7,449.98c-0.02,0-0.04,0-0.05,0c-18.45-1.32-49.04-12.72-68.29-29.5c-0.31-0.27-0.34-0.75-0.07-1.06
						c0.27-0.31,0.75-0.34,1.06-0.07c19.02,16.57,49.21,27.83,67.42,29.13c0.41,0.03,0.72,0.39,0.69,0.8
						C295.42,449.68,295.09,449.98,294.7,449.98z"/>
				</g>
			</g>
			<g id="Dot_00000088853101874469795730000018322389028895496625_">
				<g>
					<path class="st2" d="M260.55,182.67c-1.35-1.07-3.31-0.85-4.38,0.5c-1.07,1.35-0.85,3.31,0.5,4.38
						c0.57,0.45,1.26,0.68,1.94,0.68c0.92,0,1.83-0.4,2.45-1.18h0C262.12,185.71,261.9,183.75,260.55,182.67z"/>
				</g>
				<g>
					<path class="st2" d="M242.75,193.18c-0.37-1.53-1.92-2.48-3.45-2.11c-1.53,0.37-2.48,1.92-2.11,3.45
						c0.18,0.74,0.64,1.37,1.29,1.77c0.45,0.28,0.97,0.42,1.49,0.42c0.23,0,0.45-0.03,0.68-0.08c0.74-0.18,1.37-0.64,1.77-1.29
						C242.81,194.69,242.93,193.92,242.75,193.18z"/>
				</g>
				<g>
					<path class="st2" d="M255.52,197.62c-0.08-0.66-0.4-1.25-0.92-1.66s-1.17-0.6-1.83-0.52c-0.66,0.08-1.25,0.4-1.66,0.92
						c-0.85,1.07-0.67,2.64,0.4,3.49c0.46,0.36,1,0.54,1.54,0.54c0.73,0,1.46-0.32,1.95-0.94
						C255.41,198.92,255.59,198.28,255.52,197.62z"/>
				</g>
				<g>
					<path class="st2" d="M239.02,206.94c-0.28-1.14-1.43-1.84-2.56-1.56c-1.14,0.28-1.84,1.43-1.56,2.56
						c0.23,0.97,1.11,1.62,2.06,1.62c0.17,0,0.33-0.02,0.5-0.06h0c0.55-0.13,1.02-0.47,1.31-0.96
						C239.07,208.06,239.16,207.49,239.02,206.94z"/>
				</g>
				<g>
					<path class="st2" d="M337.2,443.04c-0.47-0.69-1.18-1.15-2-1.3c-0.82-0.15-1.65,0.02-2.34,0.5c-0.69,0.47-1.15,1.18-1.3,2
						c-0.15,0.82,0.02,1.65,0.5,2.34c0.6,0.88,1.58,1.35,2.58,1.35c0.61,0,1.22-0.18,1.76-0.55
						C337.81,446.41,338.17,444.46,337.2,443.04z"/>
				</g>
				<g>
					<path class="st2" d="M362.12,434.95c-1.58-0.09-2.93,1.11-3.03,2.68c-0.05,0.76,0.21,1.5,0.71,2.07
						c0.51,0.57,1.21,0.91,1.97,0.96c0.06,0,0.12,0.01,0.18,0.01c0.7,0,1.37-0.25,1.89-0.72c0.57-0.51,0.91-1.21,0.96-1.97
						C364.9,436.41,363.69,435.05,362.12,434.95z"/>
				</g>
				<g>
					<path class="st2" d="M349.79,429.95c-0.77-1.13-2.32-1.42-3.45-0.64c-1.13,0.77-1.42,2.32-0.64,3.45
						c0.48,0.7,1.26,1.08,2.05,1.08c0.48,0,0.97-0.14,1.4-0.43C350.28,432.63,350.57,431.08,349.79,429.95z"/>
				</g>
				<g>
					<path class="st2" d="M380.32,425.78c-0.38-0.42-0.9-0.68-1.46-0.71c-0.57-0.04-1.11,0.15-1.54,0.53
						c-0.42,0.38-0.68,0.9-0.71,1.46c-0.03,0.57,0.15,1.11,0.53,1.54c0.38,0.42,0.9,0.68,1.46,0.71c0.04,0,0.09,0,0.13,0
						c0.52,0,1.01-0.19,1.41-0.53c0.42-0.38,0.68-0.9,0.71-1.46C380.89,426.75,380.7,426.21,380.32,425.78z"/>
				</g>
				<g>
					<path class="st2" d="M438.05,336.09c-1.18-1.04-2.99-0.93-4.04,0.25c-1.04,1.18-0.93,2.99,0.25,4.04
						c0.54,0.48,1.22,0.71,1.89,0.71c0.79,0,1.58-0.33,2.15-0.97C439.34,338.95,439.23,337.14,438.05,336.09z"/>
				</g>
				<g>
					<path class="st2" d="M439.84,354.4c-0.42-0.38-0.97-0.56-1.54-0.53c-0.57,0.04-1.08,0.29-1.46,0.71
						c-0.77,0.88-0.69,2.22,0.19,3c0.4,0.36,0.9,0.53,1.4,0.53c0.59,0,1.17-0.24,1.59-0.72c0.38-0.43,0.56-0.97,0.53-1.54
						C440.52,355.3,440.26,354.78,439.84,354.4z"/>
				</g>
			</g>
		</g>
		<g id="Shine_00000085219259180986491290000003981080717534749868_">
			<g id="Shine_00000104687728032447686170000013769925978221478027_">
				<g>
					<path class="st3" d="M344.87,160.86c0.19-3.25,0.4-5.9,0.41-6.51c0.06-10.45,1.42-21.74-0.73-32.01
						c-1.73-8.3-5.51-15.95-9.83-23.18c-8.61-14.41-19.86-27.97-22.76-44.99c-1.57-9.23-2.42-18.56-3.26-27.89
						c-0.74-8.25-1.11-17.33-3.02-25.29c-3.15,11.05-6.1,22.17-9.78,33.06c-5.93,17.53-5.61,36.52-2.55,54.58
						c1.66,9.83,4.12,19.68,3.4,29.62c-0.77,10.63-5.11,20.51-8.9,30.33c-1.47,3.8-2.89,7.64-4.03,11.55
						c9.31-1.73,18.9-2.65,28.71-2.65C323.62,157.5,334.44,158.66,344.87,160.86z"/>
					<path class="st3" d="M344.87,161.86c-0.07,0-0.14-0.01-0.21-0.02c-19.83-4.18-40.67-4.43-60.66-0.71
						c-0.34,0.06-0.69-0.05-0.92-0.31c-0.23-0.26-0.32-0.62-0.22-0.95c1.2-4.13,2.72-8.17,4.05-11.64c0.46-1.19,0.93-2.38,1.39-3.58
						c3.33-8.49,6.77-17.27,7.44-26.47c0.57-7.84-0.9-15.81-2.33-23.52c-0.36-1.96-0.72-3.91-1.05-5.86
						c-3.6-21.27-2.75-39.28,2.59-55.07c2.87-8.49,5.34-17.28,7.73-25.78c0.68-2.41,1.35-4.82,2.04-7.23
						c0.12-0.44,0.49-0.74,0.98-0.73c0.45,0.01,0.85,0.32,0.95,0.77c1.52,6.33,2.07,13.31,2.6,20.06c0.14,1.82,0.28,3.62,0.44,5.38
						c0.82,9.1,1.67,18.51,3.25,27.81c2.19,12.88,9.39,23.97,16.35,34.69c2.1,3.24,4.28,6.6,6.28,9.95
						c5.36,8.97,8.43,16.21,9.95,23.48c1.6,7.65,1.29,15.83,0.98,23.75c-0.11,2.8-0.22,5.71-0.24,8.48c0,0.37-0.06,1.29-0.16,2.7
						c-0.07,1.08-0.16,2.41-0.25,3.86c-0.02,0.29-0.16,0.56-0.39,0.74C345.3,161.79,345.09,161.86,344.87,161.86z M312.53,156.5
						c10.55,0,21.11,1.06,31.41,3.15c0.06-1.01,0.13-1.93,0.18-2.72c0.08-1.27,0.15-2.28,0.15-2.58c0.02-2.8,0.13-5.72,0.24-8.54
						c0.3-7.79,0.61-15.85-0.94-23.26c-1.47-7.04-4.47-14.09-9.71-22.87c-1.98-3.32-4.15-6.66-6.25-9.89
						c-7.07-10.89-14.38-22.16-16.64-35.44c-1.6-9.38-2.45-18.83-3.27-27.96c-0.16-1.77-0.3-3.57-0.44-5.4
						c-0.41-5.27-0.84-10.68-1.73-15.77c-0.31,1.09-0.62,2.19-0.92,3.29c-2.39,8.53-4.87,17.34-7.76,25.88
						c-5.23,15.47-6.06,33.16-2.51,54.09c0.33,1.94,0.69,3.89,1.05,5.83c1.45,7.83,2.95,15.93,2.36,24.03
						c-0.69,9.5-4.19,18.42-7.57,27.05c-0.47,1.19-0.93,2.38-1.39,3.57c-1.15,2.99-2.44,6.41-3.53,9.92
						C294.24,157.3,303.41,156.5,312.53,156.5z"/>
				</g>
				<g>
					<path class="st3" d="M280.2,466.2c-0.19,3.25-0.4,5.9-0.41,6.51c-0.06,10.45-1.42,21.74,0.73,32.01
						c1.73,8.3,5.51,15.95,9.83,23.18c8.61,14.41,19.86,27.97,22.76,44.99c1.57,9.23,2.42,18.56,3.26,27.89
						c0.74,8.25,1.11,17.33,3.02,25.29c3.15-11.05,6.1-22.17,9.78-33.06c5.93-17.53,5.61-36.52,2.55-54.58
						c-1.66-9.83-4.12-19.68-3.4-29.62c0.77-10.63,5.11-20.51,8.9-30.33c1.47-3.8,2.89-7.64,4.03-11.55
						c-9.31,1.73-18.9,2.65-28.71,2.65C301.44,469.57,290.63,468.4,280.2,466.2z"/>
					<path class="st3" d="M319.38,627.07c-0.01,0-0.01,0-0.02,0c-0.45-0.01-0.85-0.32-0.95-0.77c-1.52-6.34-2.07-13.32-2.6-20.06
						c-0.14-1.82-0.28-3.61-0.44-5.37c-0.82-9.1-1.67-18.51-3.25-27.81c-2.19-12.88-9.39-23.97-16.35-34.69
						c-2.1-3.25-4.28-6.6-6.28-9.95c-5.36-8.97-8.43-16.21-9.95-23.48c-1.6-7.65-1.29-15.83-0.98-23.75
						c0.11-2.8,0.22-5.71,0.24-8.48c0-0.36,0.06-1.28,0.16-2.68c0.07-1.09,0.16-2.43,0.25-3.89c0.02-0.29,0.16-0.56,0.39-0.74
						c0.23-0.18,0.53-0.24,0.81-0.18c19.84,4.18,40.69,4.43,60.66,0.71c0.34-0.06,0.69,0.05,0.92,0.31
						c0.23,0.26,0.32,0.62,0.22,0.95c-1.19,4.12-2.72,8.17-4.06,11.64c-0.46,1.19-0.93,2.38-1.39,3.58
						c-3.33,8.49-6.77,17.27-7.44,26.47c-0.57,7.84,0.9,15.81,2.33,23.52c0.36,1.96,0.72,3.91,1.05,5.86
						c3.6,21.26,2.75,39.28-2.59,55.07c-2.87,8.5-5.34,17.29-7.73,25.79c-0.68,2.41-1.35,4.82-2.04,7.22
						C320.22,626.77,319.83,627.07,319.38,627.07z M281.12,467.42c-0.06,1.02-0.13,1.95-0.18,2.75c-0.08,1.26-0.15,2.25-0.15,2.55
						c-0.02,2.8-0.13,5.72-0.24,8.54c-0.3,7.79-0.61,15.85,0.94,23.26c1.47,7.04,4.47,14.09,9.71,22.87
						c1.98,3.32,4.15,6.66,6.25,9.89c7.07,10.9,14.38,22.16,16.64,35.44c1.6,9.37,2.45,18.82,3.27,27.96
						c0.16,1.77,0.3,3.57,0.44,5.39c0.41,5.27,0.84,10.69,1.73,15.78c0.31-1.09,0.61-2.18,0.92-3.28c2.4-8.53,4.87-17.35,7.76-25.89
						c5.23-15.47,6.06-33.16,2.51-54.09c-0.33-1.94-0.69-3.89-1.05-5.83c-1.45-7.83-2.95-15.93-2.36-24.03
						c0.69-9.5,4.19-18.42,7.57-27.05c0.47-1.19,0.93-2.38,1.39-3.57c1.15-2.99,2.44-6.41,3.53-9.92
						C320.46,471.59,300.34,471.32,281.12,467.42z"/>
				</g>
				<g>
					<path class="st2" d="M261.3,159.31c-5.17-9.08-9.64-19.54-16.63-27.36c-5.65-6.32-12.75-11.06-20.1-15.16
						c-14.67-8.18-31.18-14.29-42.2-27.58c-5.98-7.21-11.38-14.87-16.77-22.52c-4.77-6.77-9.62-14.45-15.26-20.39
						c2.8,11.14,5.8,22.25,8.06,33.52c3.63,18.15,13.4,34.43,25.08,48.54c6.35,7.68,13.41,14.98,17.75,23.96
						c4.64,9.59,5.83,20.31,7.46,30.72c0.63,4.04,1.32,8.08,2.3,12.04c15.42-13.23,33.45-23.5,53.22-29.93
						C262.74,162.23,261.6,159.83,261.3,159.31z"/>
				</g>
				<g>
					<path class="st2" d="M363.77,467.76c5.17,9.08,9.64,19.54,16.63,27.36c5.65,6.32,12.75,11.06,20.1,15.16
						c14.67,8.18,31.18,14.29,42.2,27.58c5.98,7.21,11.38,14.87,16.77,22.52c4.77,6.77,9.62,14.45,15.26,20.39
						c-2.8-11.14-5.8-22.25-8.06-33.52c-3.63-18.15-13.4-34.43-25.08-48.54c-6.35-7.68-13.41-14.98-17.75-23.96
						c-4.64-9.59-5.83-20.31-7.46-30.72c-0.63-4.04-1.32-8.08-2.3-12.04c-15.42,13.23-33.45,23.5-53.22,29.93
						C362.32,464.83,363.47,467.23,363.77,467.76z"/>
				</g>
				<g>
					<path class="st3" d="M191.05,205.59c-9.01-5.28-18.12-12.1-28.09-15.38c-8.05-2.65-16.57-3.2-24.99-3.07
						c-16.79,0.25-34.15,3.21-50.34-2.79c-8.78-3.25-17.29-7.19-25.78-11.12c-7.52-3.48-15.56-7.71-23.41-10.03
						c7.99,8.25,16.15,16.37,23.74,25c12.21,13.9,28.82,23.12,45.99,29.5c9.34,3.47,19.11,6.27,27.35,11.87
						c8.82,5.99,15.2,14.68,21.82,22.87c2.56,3.17,5.16,6.32,7.98,9.25c6.89-19.58,17.58-37.37,31.18-52.48
						C193.78,207.41,191.57,205.89,191.05,205.59z"/>
					<path class="st3" d="M165.33,262.69c-0.27,0-0.53-0.11-0.72-0.31c-2.98-3.1-5.71-6.44-8.04-9.32c-0.8-0.99-1.6-1.99-2.4-2.99
						c-5.69-7.13-11.58-14.5-19.2-19.68c-6.51-4.42-14.14-7.12-21.53-9.74c-1.88-0.67-3.75-1.33-5.61-2.02
						c-20.21-7.51-35.39-17.25-46.39-29.78c-5.92-6.74-12.31-13.28-18.48-19.6c-1.74-1.79-3.49-3.57-5.23-5.37
						c-0.32-0.33-0.37-0.82-0.14-1.21c0.24-0.39,0.7-0.57,1.14-0.44c6.25,1.85,12.57,4.86,18.68,7.78c1.64,0.79,3.27,1.56,4.87,2.3
						c8.29,3.84,16.86,7.81,25.71,11.09c12.25,4.54,25.45,3.86,38.22,3.19c3.86-0.2,7.86-0.41,11.76-0.47
						c10.45-0.15,18.26,0.81,25.31,3.12c7.43,2.44,14.36,6.8,21.06,11.02c2.38,1.5,4.83,3.04,7.22,4.44l0,0
						c0.32,0.19,1.09,0.71,2.27,1.5c0.9,0.61,2.02,1.35,3.23,2.16c0.24,0.16,0.4,0.42,0.44,0.71c0.04,0.29-0.05,0.58-0.25,0.8
						c-13.75,15.29-24.18,32.83-30.98,52.15c-0.12,0.33-0.39,0.57-0.73,0.65C165.47,262.69,165.4,262.69,165.33,262.69z
						 M42.01,165.44c0.79,0.81,1.58,1.62,2.37,2.43c6.19,6.34,12.59,12.9,18.55,19.67c10.78,12.27,25.69,21.83,45.59,29.22
						c1.85,0.69,3.71,1.35,5.58,2.01c7.51,2.66,15.27,5.41,21.99,9.97c7.88,5.35,13.86,12.84,19.64,20.08c0.8,1,1.59,2,2.39,2.99
						c2.01,2.48,4.32,5.31,6.81,8.01c6.76-18.6,16.87-35.54,30.06-50.41c-0.84-0.56-1.62-1.08-2.28-1.52
						c-1.06-0.71-1.9-1.28-2.17-1.43l0,0c-2.42-1.42-4.89-2.97-7.28-4.48c-6.6-4.15-13.42-8.45-20.61-10.81
						c-6.84-2.25-14.45-3.19-24.66-3.03c-3.87,0.06-7.84,0.26-11.69,0.46c-12.97,0.67-26.38,1.37-39.02-3.31
						c-8.92-3.31-17.53-7.29-25.85-11.15c-1.61-0.75-3.24-1.53-4.89-2.31C51.77,169.55,46.87,167.21,42.01,165.44z"/>
				</g>
				<g>
					<path class="st3" d="M434.01,421.48c9.01,5.28,18.12,12.1,28.09,15.38c8.05,2.65,16.57,3.2,24.99,3.07
						c16.79-0.25,34.15-3.21,50.34,2.79c8.78,3.25,17.29,7.19,25.78,11.12c7.52,3.48,15.56,7.71,23.41,10.03
						c-7.99-8.25-16.15-16.37-23.74-25c-12.21-13.9-28.82-23.12-45.99-29.5c-9.34-3.47-19.11-6.27-27.35-11.87
						c-8.82-5.99-15.2-14.68-21.82-22.87c-2.56-3.17-5.16-6.32-7.98-9.25c-6.89,19.58-17.58,37.37-31.18,52.48
						C431.29,419.66,433.49,421.17,434.01,421.48z"/>
					<path class="st3" d="M586.62,464.87c-0.09,0-0.19-0.01-0.28-0.04c-6.25-1.85-12.57-4.86-18.68-7.78
						c-1.64-0.79-3.27-1.56-4.87-2.3c-8.29-3.84-16.86-7.81-25.71-11.09c-12.25-4.54-25.45-3.85-38.22-3.19
						c-3.86,0.2-7.86,0.41-11.76,0.47c-10.46,0.15-18.26-0.81-25.31-3.12c-7.43-2.44-14.36-6.8-21.06-11.02
						c-2.38-1.5-4.83-3.04-7.22-4.44l0,0c-0.32-0.19-1.09-0.71-2.27-1.5c-0.9-0.61-2.02-1.35-3.23-2.16
						c-0.24-0.16-0.4-0.42-0.44-0.71c-0.04-0.29,0.05-0.58,0.25-0.8c13.75-15.29,24.18-32.83,30.98-52.15
						c0.12-0.33,0.39-0.57,0.73-0.65c0.34-0.07,0.69,0.03,0.93,0.29c2.98,3.1,5.71,6.43,8.04,9.32c0.8,0.99,1.6,1.99,2.4,3
						c5.69,7.13,11.58,14.5,19.2,19.67c6.5,4.42,14.14,7.12,21.53,9.74c1.88,0.67,3.75,1.33,5.61,2.02
						c20.21,7.51,35.39,17.25,46.39,29.78c5.92,6.74,12.31,13.28,18.48,19.6c1.74,1.79,3.49,3.57,5.23,5.37
						c0.32,0.33,0.37,0.82,0.14,1.21C587.29,464.69,586.96,464.87,586.62,464.87z M512.78,437.98c8.44,0,16.87,0.79,24.99,3.8
						c8.92,3.31,17.53,7.29,25.85,11.15c1.61,0.75,3.24,1.53,4.89,2.31c4.77,2.28,9.67,4.62,14.53,6.39
						c-0.79-0.81-1.58-1.62-2.37-2.43c-6.19-6.34-12.59-12.9-18.55-19.67c-10.78-12.27-25.69-21.83-45.59-29.22
						c-1.85-0.69-3.71-1.35-5.58-2.01c-7.51-2.66-15.27-5.41-21.99-9.97c-7.88-5.35-13.86-12.84-19.64-20.08
						c-0.8-1-1.59-2-2.39-2.99c-2.01-2.49-4.32-5.31-6.81-8.01c-6.76,18.6-16.87,35.54-30.06,50.41c0.84,0.56,1.62,1.08,2.28,1.52
						c1.06,0.71,1.9,1.28,2.17,1.43l0,0c2.42,1.42,4.89,2.97,7.28,4.48c6.6,4.15,13.42,8.45,20.61,10.81
						c6.84,2.25,14.45,3.18,24.66,3.03c3.87-0.06,7.84-0.26,11.69-0.46C503.39,438.23,508.09,437.98,512.78,437.98z"/>
				</g>
				<g>
					<path class="st2" d="M159.86,281.2c-3.25-0.19-5.9-0.4-6.51-0.41c-10.45-0.06-21.74-1.42-32.01,0.73
						c-8.3,1.73-15.95,5.51-23.18,9.83c-14.41,8.61-27.97,19.86-44.99,22.76c-9.23,1.57-18.56,2.42-27.89,3.26
						c-8.25,0.74-17.33,1.11-25.29,3.02c11.05,3.15,22.17,6.1,33.06,9.78c17.53,5.93,36.52,5.61,54.58,2.55
						c9.83-1.66,19.68-4.12,29.62-3.4c10.63,0.77,20.51,5.11,30.33,8.9c3.8,1.47,7.64,2.89,11.55,4.03
						c-1.73-9.31-2.65-18.9-2.65-28.71C156.5,302.45,157.66,291.63,159.86,281.2z"/>
				</g>
				<g>
					<path class="st2" d="M465.2,345.87c3.25,0.19,5.9,0.4,6.51,0.41c10.45,0.06,21.74,1.42,32.01-0.73
						c8.3-1.73,15.95-5.51,23.18-9.83c14.41-8.61,27.97-19.86,44.99-22.76c9.23-1.57,18.56-2.42,27.89-3.26
						c8.25-0.74,17.33-1.11,25.29-3.02c-11.05-3.15-22.17-6.1-33.06-9.78c-17.53-5.93-36.52-5.61-54.58-2.55
						c-9.83,1.66-19.68,4.12-29.62,3.4c-10.63-0.77-20.51-5.11-30.33-8.9c-3.8-1.47-7.64-2.89-11.55-4.03
						c1.73,9.31,2.65,18.9,2.65,28.71C468.57,324.62,467.4,335.44,465.2,345.87z"/>
				</g>
				<g>
					<path class="st3" d="M158.31,364.77c-9.08,5.17-19.54,9.64-27.36,16.63c-6.32,5.65-11.06,12.75-15.16,20.1
						c-8.18,14.67-14.29,31.18-27.58,42.2c-7.21,5.98-14.87,11.38-22.52,16.77c-6.77,4.77-14.45,9.62-20.39,15.26
						c11.14-2.8,22.25-5.8,33.52-8.06c18.15-3.63,34.43-13.4,48.54-25.08c7.68-6.35,14.98-13.41,23.96-17.75
						c9.59-4.64,20.31-5.83,30.72-7.46c4.04-0.63,8.08-1.32,12.04-2.3c-13.23-15.42-23.5-33.45-29.93-53.22
						C161.23,363.32,158.83,364.47,158.31,364.77z"/>
					<path class="st3" d="M45.3,476.73c-0.36,0-0.7-0.19-0.88-0.52c-0.22-0.4-0.14-0.89,0.19-1.21c4.72-4.49,10.49-8.45,16.07-12.28
						c1.5-1.03,2.99-2.05,4.44-3.07c7.47-5.26,15.2-10.7,22.46-16.72c10.05-8.34,16.06-20.11,21.87-31.5
						c1.76-3.45,3.58-7.01,5.48-10.42c5.09-9.13,9.83-15.41,15.36-20.36c5.83-5.21,13.07-9.03,20.07-12.72
						c2.48-1.31,5.05-2.66,7.46-4.04l0,0c0.32-0.18,1.14-0.59,2.4-1.2c0.98-0.48,2.18-1.07,3.49-1.72c0.26-0.13,0.57-0.14,0.83-0.03
						c0.27,0.11,0.48,0.34,0.56,0.61c6.34,19.47,16.35,37.26,29.74,52.88c0.23,0.26,0.3,0.63,0.19,0.96
						c-0.11,0.33-0.38,0.58-0.71,0.67c-4.19,1.04-8.46,1.74-12.13,2.31c-1.26,0.2-2.53,0.39-3.8,0.58
						c-9.02,1.37-18.34,2.78-26.64,6.79c-7.08,3.43-13.24,8.69-19.2,13.78c-1.51,1.29-3.02,2.58-4.55,3.84
						c-16.62,13.75-32.64,22.02-48.99,25.29c-8.8,1.76-17.65,4.02-26.21,6.2c-2.42,0.62-4.84,1.24-7.27,1.84
						C45.46,476.72,45.38,476.73,45.3,476.73z M163.55,363.28c-0.91,0.45-1.75,0.86-2.46,1.21c-1.13,0.56-2.03,0.99-2.29,1.14l0,0
						c-2.44,1.39-5.02,2.75-7.52,4.07c-6.9,3.64-14.03,7.4-19.67,12.45c-5.36,4.8-9.97,10.92-14.95,19.84
						c-1.88,3.38-3.69,6.92-5.44,10.35c-5.9,11.57-12,23.53-22.38,32.13c-7.32,6.07-15.08,11.53-22.58,16.81
						c-1.45,1.02-2.95,2.05-4.46,3.09c-4.36,2.99-8.83,6.07-12.79,9.38c1.1-0.28,2.19-0.56,3.29-0.84
						c8.58-2.19,17.46-4.46,26.31-6.22c16.01-3.2,31.75-11.34,48.1-24.87c1.52-1.26,3.02-2.54,4.53-3.82
						c6.06-5.17,12.32-10.52,19.63-14.06c8.57-4.15,18.05-5.58,27.21-6.97c1.26-0.19,2.53-0.38,3.78-0.58
						c3.17-0.5,6.78-1.09,10.38-1.91C179.47,399.27,169.82,382.06,163.55,363.28z M158.31,364.77L158.31,364.77L158.31,364.77z"/>
				</g>
				<g>
					<path class="st3" d="M466.76,262.3c9.08-5.17,19.54-9.64,27.36-16.64c6.32-5.65,11.06-12.75,15.16-20.1
						c8.18-14.67,14.29-31.18,27.58-42.2c7.21-5.98,14.87-11.38,22.52-16.77c6.77-4.77,14.46-9.62,20.39-15.26
						c-11.14,2.8-22.25,5.8-33.52,8.06c-18.15,3.63-34.43,13.4-48.54,25.08c-7.68,6.35-14.98,13.41-23.96,17.75
						c-9.59,4.64-20.31,5.83-30.72,7.46c-4.04,0.63-8.08,1.32-12.04,2.3c13.23,15.42,23.5,33.45,29.93,53.22
						C463.83,263.74,466.23,262.6,466.76,262.3z"/>
					<path class="st3" d="M460.92,266.2c-0.13,0-0.26-0.03-0.39-0.08c-0.27-0.11-0.48-0.34-0.56-0.61
						c-6.34-19.48-16.35-37.27-29.74-52.88c-0.23-0.26-0.3-0.63-0.19-0.96c0.11-0.33,0.38-0.58,0.71-0.67
						c4.17-1.03,8.45-1.73,12.13-2.31c1.26-0.2,2.53-0.39,3.8-0.58c9.02-1.37,18.34-2.78,26.64-6.79
						c7.08-3.43,13.24-8.69,19.2-13.78c1.51-1.29,3.02-2.58,4.55-3.84c16.62-13.75,32.64-22.02,48.99-25.29
						c8.8-1.76,17.65-4.02,26.21-6.2c2.42-0.62,4.84-1.24,7.27-1.84c0.44-0.11,0.9,0.09,1.12,0.49c0.22,0.4,0.14,0.89-0.19,1.21
						c-4.73,4.49-10.49,8.45-16.07,12.28c-1.5,1.03-2.99,2.05-4.43,3.07c-7.47,5.26-15.2,10.7-22.46,16.72
						c-10.05,8.34-16.06,20.11-21.87,31.5c-1.76,3.45-3.58,7.01-5.48,10.42c-5.09,9.13-9.83,15.41-15.36,20.36
						c-5.83,5.21-13.07,9.03-20.07,12.72c-2.48,1.31-5.05,2.66-7.46,4.04l0,0c-0.31,0.18-1.14,0.58-2.39,1.2
						c-0.98,0.48-2.18,1.07-3.49,1.73C461.23,266.16,461.08,266.2,460.92,266.2z M432.81,212.58c12.79,15.21,22.44,32.43,28.7,51.21
						c0.91-0.45,1.75-0.87,2.47-1.22c1.13-0.55,2.02-0.99,2.28-1.14l0,0c2.44-1.39,5.02-2.75,7.52-4.07
						c6.9-3.64,14.03-7.4,19.67-12.45c5.36-4.79,9.97-10.92,14.95-19.84c1.88-3.38,3.69-6.92,5.44-10.35
						c5.9-11.57,12-23.53,22.38-32.13c7.32-6.07,15.08-11.53,22.58-16.81c1.45-1.02,2.94-2.05,4.45-3.08
						c4.36-2.99,8.83-6.07,12.79-9.39c-1.1,0.28-2.19,0.56-3.29,0.84c-8.58,2.19-17.46,4.46-26.31,6.22
						c-16.01,3.2-31.75,11.34-48.1,24.87c-1.52,1.26-3.02,2.54-4.53,3.82c-6.06,5.17-12.32,10.52-19.63,14.06
						c-8.57,4.15-18.05,5.58-27.21,6.97c-1.26,0.19-2.53,0.38-3.78,0.58C440.02,211.17,436.4,211.76,432.81,212.58z"/>
				</g>
				<g>
					<path class="st2" d="M204.59,435.01c-5.28,9.01-12.1,18.12-15.38,28.09c-2.65,8.05-3.2,16.57-3.07,24.99
						c0.25,16.79,3.21,34.15-2.79,50.34c-3.25,8.78-7.19,17.29-11.12,25.78c-3.48,7.52-7.71,15.56-10.03,23.41
						c8.25-7.99,16.37-16.15,25-23.74c13.9-12.21,23.12-28.82,29.5-45.99c3.47-9.34,6.27-19.11,11.87-27.35
						c5.99-8.82,14.68-15.2,22.87-21.82c3.17-2.56,6.32-5.16,9.25-7.98c-19.58-6.89-37.37-17.58-52.48-31.18
						C206.41,432.29,204.89,434.49,204.59,435.01z"/>
				</g>
				<g>
					<path class="st2" d="M420.48,192.05c5.28-9.01,12.1-18.12,15.38-28.09c2.65-8.05,3.2-16.57,3.07-24.99
						c-0.25-16.79-3.21-34.15,2.79-50.34c3.25-8.78,7.19-17.29,11.12-25.78c3.48-7.52,7.71-15.56,10.03-23.41
						c-8.25,7.99-16.37,16.15-25,23.74c-13.9,12.21-23.12,28.82-29.5,45.99c-3.47,9.34-6.27,19.11-11.87,27.35
						c-5.99,8.82-14.68,15.2-22.87,21.82c-3.17,2.56-6.32,5.16-9.25,7.98c19.58,6.89,37.37,17.58,52.48,31.18
						C418.66,194.78,420.17,192.57,420.48,192.05z"/>
				</g>
			</g>
			<g id="Line_00000098936685998979130600000012630914423349695885_">
				<g>
					<path class="st0" d="M314.79,158.27c-0.13,0-0.26-0.03-0.38-0.1c-0.36-0.21-0.47-0.67-0.26-1.03
						c6.76-11.4,7.96-15.13,5.37-28.71c-1.14-5.96-3.65-11.75-6.07-17.36c-3.45-7.98-7.03-16.23-6.67-25.06
						c0.02-0.41,0.36-0.75,0.78-0.72c0.41,0.02,0.74,0.37,0.72,0.78c-0.34,8.49,3.01,16.22,6.55,24.4c2.46,5.68,5,11.55,6.17,17.67
						c2.67,14,1.33,18.14-5.55,29.76C315.29,158.14,315.05,158.27,314.79,158.27z"/>
				</g>
				<g>
					<path class="st0" d="M329.23,143.83c-0.03,0-0.06,0-0.1-0.01c-0.41-0.05-0.7-0.43-0.65-0.84c1.44-11.33-0.46-23.26-5.35-33.58
						c-0.43-0.91-0.89-1.82-1.35-2.73c-1.77-3.51-3.59-7.15-4.03-11.15c-0.05-0.41,0.25-0.78,0.66-0.83
						c0.41-0.06,0.78,0.25,0.83,0.66c0.41,3.73,2.18,7.24,3.88,10.64c0.46,0.92,0.92,1.84,1.36,2.76
						c5.01,10.58,6.95,22.8,5.48,34.41C329.92,143.55,329.6,143.83,329.23,143.83z"/>
				</g>
				<g>
					<path class="st0" d="M306.97,146.04c-0.08,0-0.17-0.01-0.26-0.04c-0.39-0.14-0.59-0.57-0.45-0.96
						c2.18-6.03,2.33-12.73,0.41-18.85c-0.12-0.39,0.1-0.82,0.49-0.94c0.4-0.13,0.82,0.1,0.94,0.49c2.02,6.44,1.86,13.47-0.43,19.81
						C307.57,145.85,307.28,146.04,306.97,146.04z"/>
				</g>
				<g>
					<path class="st0" d="M231.72,158.38c-0.31,0-0.61-0.2-0.71-0.51l-4.21-12.59c-0.96-2.86-1.94-5.81-3.67-8.29
						c-3.17-4.56-8.52-7.14-13.7-9.63c-5.71-2.75-11.61-5.58-14.8-11.11c-0.21-0.36-0.08-0.82,0.28-1.02
						c0.36-0.21,0.82-0.08,1.02,0.27c2.96,5.13,8.39,7.74,14.15,10.51c5.35,2.58,10.89,5.24,14.28,10.12
						c1.84,2.66,2.87,5.72,3.86,8.67l4.21,12.59c0.13,0.39-0.08,0.82-0.47,0.95C231.88,158.36,231.8,158.38,231.72,158.38z"/>
				</g>
				<g>
					<path class="st0" d="M221.35,162.63c-0.32,0-0.62-0.21-0.72-0.53l-6.86-22.38c-0.12-0.4,0.1-0.82,0.5-0.94
						c0.39-0.12,0.81,0.1,0.94,0.5l6.86,22.38c0.12,0.4-0.1,0.82-0.5,0.94C221.49,162.61,221.42,162.63,221.35,162.63z"/>
				</g>
				<g>
					<path class="st0" d="M178.95,233.61c-0.2,0-0.39-0.08-0.54-0.23c-10.53-11-12.43-12.98-25.35-21.78
						c-3.02-2.06-7.05-4.6-11.47-5.98c-5.22-1.64-10.97-1.72-16.54-1.8c-7.5-0.11-15.25-0.22-21.77-4.15
						c-0.35-0.21-0.47-0.67-0.25-1.03c0.21-0.36,0.67-0.47,1.03-0.25c6.17,3.72,13.38,3.83,21.02,3.94
						c5.67,0.08,11.54,0.17,16.97,1.87c4.61,1.45,8.76,4.06,11.87,6.17c12.68,8.64,14.83,10.75,25.58,21.98
						c0.29,0.3,0.28,0.77-0.02,1.06C179.32,233.54,179.13,233.61,178.95,233.61z"/>
				</g>
				<g>
					<path class="st0" d="M186.59,222.16c-0.21,0-0.41-0.09-0.56-0.25c-8.6-9.73-17.39-13.97-28.87-18.9
						c-0.38-0.16-0.56-0.6-0.39-0.99c0.16-0.38,0.6-0.56,0.98-0.39c11.28,4.84,20.61,9.34,29.4,19.28c0.27,0.31,0.25,0.78-0.06,1.06
						C186.95,222.1,186.77,222.16,186.59,222.16z"/>
				</g>
				<g>
					<path class="st0" d="M152.2,225.39c-0.18,0-0.36-0.06-0.5-0.19c-4.7-4.22-10.33-7.57-16.28-9.69
						c-0.39-0.14-0.59-0.57-0.46-0.96c0.14-0.39,0.57-0.6,0.96-0.45c6.13,2.18,11.94,5.64,16.78,9.99c0.31,0.28,0.33,0.75,0.06,1.06
						C152.61,225.3,152.41,225.39,152.2,225.39z"/>
				</g>
				<g>
					<path class="st0" d="M77.54,319.96c-0.4,0-0.73-0.31-0.75-0.71c-0.02-0.41,0.3-0.76,0.71-0.78c8.31-0.39,16.36-3.29,24.14-6.1
						c6.06-2.18,12.32-4.44,18.76-5.56c16.59-2.88,20.02-2.38,36.31,2.41c0.4,0.12,0.62,0.53,0.51,0.93s-0.53,0.62-0.93,0.51
						c-16.23-4.78-19.26-5.22-35.63-2.37c-6.31,1.09-12.51,3.33-18.51,5.49c-7.89,2.84-16.05,5.79-24.58,6.19
						C77.56,319.96,77.55,319.96,77.54,319.96z"/>
				</g>
				<g>
					<path class="st0" d="M144.51,297.16c-0.06,0-0.13-0.01-0.19-0.02c-6.02-1.57-12.39-1.57-18.41-0.02
						c-0.4,0.1-0.81-0.14-0.91-0.54c-0.1-0.4,0.14-0.81,0.54-0.91c6.27-1.61,12.89-1.61,19.16,0.02c0.4,0.1,0.64,0.51,0.54,0.91
						C145.14,296.94,144.84,297.16,144.51,297.16z"/>
				</g>
				<g>
					<path class="st0" d="M116.93,318.39c-0.34,0-0.65-0.23-0.73-0.58c-0.09-0.4,0.16-0.81,0.56-0.9c4.12-0.95,8.49-1.03,12.64-0.21
						c0.41,0.08,0.67,0.47,0.59,0.88c-0.08,0.41-0.48,0.66-0.88,0.59c-3.94-0.77-8.1-0.71-12.01,0.2
						C117.04,318.38,116.99,318.39,116.93,318.39z"/>
				</g>
				<g>
					<path class="st0" d="M118.66,428.58c-0.15,0-0.3-0.04-0.44-0.14c-0.34-0.24-0.42-0.71-0.17-1.05
						c5.99-8.39,13.41-17.86,23.01-24.53c5.54-3.85,11.73-6.72,17.71-9.51l15.51-7.21c0.38-0.18,0.82-0.01,1,0.36
						c0.17,0.38,0.01,0.82-0.36,1l-15.51,7.21c-5.92,2.76-12.05,5.61-17.48,9.38c-9.41,6.54-16.73,15.88-22.65,24.17
						C119.12,428.47,118.89,428.58,118.66,428.58z"/>
				</g>
				<g>
					<path class="st0" d="M142.68,393.95c-0.24,0-0.47-0.11-0.61-0.32c-0.24-0.34-0.16-0.81,0.18-1.04
						c5.42-3.81,11.23-7.14,17.26-9.88c0.38-0.17,0.82,0,0.99,0.37c0.17,0.38,0,0.82-0.37,0.99c-5.95,2.7-11.68,5.98-17.02,9.74
						C142.98,393.91,142.83,393.95,142.68,393.95z"/>
				</g>
				<g>
					<path class="st0" d="M145.79,413.62c-0.26,0-0.51-0.14-0.65-0.38c-0.21-0.36-0.08-0.82,0.28-1.02
						c7.21-4.09,14.96-7.11,23.04-8.97c0.4-0.1,0.81,0.16,0.9,0.56c0.09,0.4-0.16,0.81-0.56,0.9c-7.94,1.83-15.55,4.79-22.63,8.81
						C146.05,413.59,145.92,413.62,145.79,413.62z"/>
				</g>
				<g>
					<path class="st0" d="M202.53,521.25c-0.09,0-0.18-0.02-0.26-0.05c-0.39-0.14-0.58-0.58-0.44-0.96
						c3.61-9.65,5.44-19.76,5.43-30.06c0-1-0.02-2-0.04-3c-0.08-4.5-0.16-9.16,1.29-13.53c1.39-4.16,4.02-7.67,6.56-11.05
						c2.73-3.63,4.94-6.18,7.08-8.65c2.12-2.44,4.32-4.97,7.01-8.57c0.25-0.33,0.72-0.4,1.05-0.15c0.33,0.25,0.4,0.72,0.15,1.05
						c-2.73,3.64-4.94,6.18-7.08,8.65c-2.12,2.44-4.32,4.97-7.01,8.56c-2.47,3.29-5.02,6.7-6.33,10.63
						c-1.37,4.12-1.29,8.65-1.22,13.03c0.02,1.01,0.04,2.02,0.04,3.03c0.01,10.48-1.85,20.77-5.52,30.59
						C203.12,521.06,202.84,521.25,202.53,521.25z"/>
				</g>
				<g>
					<path class="st0" d="M198.41,489.84c-0.37,0-0.7-0.28-0.74-0.66c-1.23-9.83,0.69-20.03,5.42-28.72c0.2-0.36,0.65-0.5,1.02-0.3
						c0.36,0.2,0.5,0.65,0.3,1.02c-4.58,8.42-6.45,18.3-5.25,27.82c0.05,0.41-0.24,0.79-0.65,0.84
						C198.48,489.83,198.45,489.84,198.41,489.84z"/>
				</g>
				<g>
					<path class="st0" d="M226.86,472.82c-0.1,0-0.21-0.02-0.31-0.07c-0.38-0.17-0.54-0.62-0.37-0.99c1.42-3.14,3.49-6.07,5.98-8.46
						c0.3-0.29,0.77-0.28,1.06,0.02c0.29,0.3,0.28,0.77-0.02,1.06c-2.35,2.26-4.31,5.02-5.65,8
						C227.42,472.66,227.15,472.82,226.86,472.82z"/>
				</g>
				<g>
					<path class="st0" d="M318.43,545.63c-0.36,0-0.67-0.26-0.74-0.62c-1.79-10.13-4.82-20.04-9-29.45
						c-0.37-0.82-0.74-1.64-1.12-2.46c-1.45-3.18-2.96-6.47-3.9-9.92c-1.59-5.8-1.58-11.84-1.44-17.54
						c0.09-3.39,0.58-6.37,1.05-9.24c0.37-2.23,0.75-4.53,0.96-7.07c0.03-0.41,0.39-0.72,0.81-0.69c0.41,0.03,0.72,0.4,0.69,0.81
						c-0.21,2.61-0.6,4.94-0.97,7.2c-0.49,2.95-0.95,5.75-1.03,9.04c-0.14,5.58-0.15,11.5,1.38,17.1c0.92,3.33,2.39,6.57,3.82,9.69
						c0.38,0.83,0.75,1.65,1.12,2.48c4.23,9.52,7.29,19.54,9.11,29.8c0.07,0.41-0.2,0.8-0.61,0.87
						C318.52,545.62,318.48,545.63,318.43,545.63z"/>
				</g>
				<g>
					<path class="st0" d="M297.46,511.74c-0.28,0-0.54-0.15-0.67-0.42c-2.58-5.24-4.1-11.1-4.39-16.93
						c-0.02-0.41,0.3-0.77,0.71-0.79c0.43-0.03,0.77,0.3,0.79,0.71c0.28,5.63,1.75,11.29,4.24,16.35c0.18,0.37,0.03,0.82-0.34,1
						C297.69,511.72,297.57,511.74,297.46,511.74z"/>
				</g>
				<g>
					<path class="st0" d="M319.2,503.35c-0.4,0-0.73-0.31-0.75-0.72c-0.37-8.5,0.19-17.05,1.68-25.42c0.07-0.41,0.46-0.67,0.87-0.61
						c0.41,0.07,0.68,0.46,0.61,0.87c-1.46,8.26-2.02,16.71-1.65,25.1c0.02,0.41-0.3,0.76-0.72,0.78
						C319.23,503.35,319.22,503.35,319.2,503.35z"/>
				</g>
				<g>
					<path class="st0" d="M292.32,490.43c-0.38,0-0.7-0.28-0.74-0.67c-0.5-4.53-0.59-9.12-0.29-13.67c0.03-0.41,0.4-0.71,0.8-0.7
						c0.41,0.03,0.73,0.38,0.7,0.8c-0.3,4.46-0.2,8.96,0.28,13.4c0.04,0.41-0.25,0.78-0.66,0.83
						C292.38,490.43,292.35,490.43,292.32,490.43z"/>
				</g>
				<g>
					<path class="st0" d="M435.14,511.12c-0.21,0-0.42-0.09-0.57-0.26c-5.13-6.01-11.96-10.49-18.56-14.82
						c-7.1-4.66-14.45-9.48-19.8-16.25c-7.77-9.81-8.96-15.78-11.32-27.67l-0.1-0.51c-0.08-0.41,0.18-0.8,0.59-0.88
						c0.4-0.08,0.8,0.18,0.88,0.59l0.1,0.51c2.39,12.02,3.48,17.5,11.03,27.03c5.2,6.58,12.44,11.33,19.45,15.92
						c6.69,4.39,13.61,8.93,18.88,15.1c0.27,0.32,0.23,0.79-0.08,1.06C435.48,511.07,435.31,511.12,435.14,511.12z"/>
				</g>
				<g>
					<path class="st0" d="M415.85,481.72c-0.14,0-0.29-0.04-0.42-0.13c-8.28-5.59-14.31-14.38-16.55-24.11
						c-0.09-0.4,0.16-0.81,0.56-0.9c0.41-0.09,0.81,0.16,0.9,0.56c2.15,9.37,7.96,17.83,15.92,23.2c0.34,0.23,0.43,0.7,0.2,1.04
						C416.32,481.6,416.09,481.72,415.85,481.72z"/>
				</g>
				<g>
					<path class="st0" d="M390.76,485.6c-0.17,0-0.34-0.06-0.48-0.18c-4.93-4.17-8.62-9.89-10.39-16.1
						c-0.11-0.4,0.12-0.81,0.52-0.93c0.4-0.12,0.81,0.12,0.93,0.52c1.69,5.93,5.21,11.39,9.92,15.37c0.32,0.27,0.36,0.74,0.09,1.06
						C391.19,485.51,390.97,485.6,390.76,485.6z"/>
				</g>
				<g>
					<path class="st0" d="M419.51,504.98c-0.11,0-0.22-0.02-0.32-0.07c-6.27-2.96-12.47-6.22-18.45-9.69
						c-0.36-0.21-0.48-0.67-0.27-1.02c0.21-0.36,0.67-0.48,1.03-0.27c5.94,3.45,12.11,6.69,18.34,9.63c0.37,0.18,0.53,0.62,0.36,1
						C420.06,504.82,419.79,504.98,419.51,504.98z"/>
				</g>
				<g>
					<path class="st0" d="M516.89,423c-0.12,0-0.24-0.03-0.36-0.09c-5.69-3.07-12.09-3.53-18.87-4.02
						c-4.46-0.32-9.07-0.65-13.43-1.8c-4.59-1.21-8.87-3.31-13.02-5.34c-2.32-1.14-4.48-2.1-6.56-3.03
						c-7.42-3.31-13.28-5.92-19.17-13.23c-0.26-0.32-0.21-0.79,0.11-1.05s0.79-0.21,1.05,0.11c5.66,7.03,11.37,9.58,18.61,12.8
						c2.09,0.93,4.26,1.9,6.61,3.05c4.08,2,8.29,4.07,12.74,5.24c4.23,1.11,8.77,1.44,13.16,1.76c6.64,0.48,13.5,0.97,19.48,4.2
						c0.36,0.2,0.5,0.65,0.3,1.02C517.41,422.86,517.15,423,516.89,423z"/>
				</g>
				<g>
					<path class="st0" d="M482.99,427.33c-0.03,0-0.06,0-0.1-0.01c-6.68-0.85-13.58-1.74-20.13-3.89
						c-7.35-2.42-13.33-6.26-17.27-11.11c-0.26-0.32-0.21-0.79,0.11-1.05c0.32-0.26,0.79-0.21,1.06,0.11
						c3.76,4.63,9.49,8.31,16.57,10.63c6.41,2.11,13.25,2.98,19.85,3.82c0.41,0.05,0.7,0.43,0.65,0.84
						C483.68,427.05,483.36,427.33,482.99,427.33z"/>
				</g>
				<g>
					<path class="st0" d="M474.12,400.45c-0.1,0-0.19-0.02-0.29-0.06c-5.98-2.48-11.39-6.37-15.64-11.24
						c-0.27-0.31-0.24-0.79,0.07-1.06c0.31-0.27,0.79-0.24,1.06,0.07c4.1,4.7,9.32,8.45,15.09,10.84c0.38,0.16,0.56,0.6,0.41,0.98
						C474.7,400.28,474.42,400.45,474.12,400.45z"/>
				</g>
				<g>
					<path class="st0" d="M388.75,178.01c-0.25,0-0.5-0.13-0.64-0.36c-0.21-0.35-0.1-0.82,0.25-1.03
						c13.54-8.22,18.18-15.09,26.6-28.62c2.19-3.53,4.83-8.23,5.75-13.33c0.56-3.12,0.5-6.45,0.44-9.66
						c-0.09-4.89-0.18-9.95,1.9-14.5c0.17-0.38,0.62-0.54,0.99-0.37c0.38,0.17,0.54,0.62,0.37,0.99c-1.94,4.24-1.85,8.91-1.76,13.85
						c0.06,3.29,0.12,6.68-0.47,9.95c-0.96,5.35-3.68,10.21-5.95,13.85c-8.55,13.74-13.27,20.72-27.1,29.11
						C389.02,177.98,388.88,178.01,388.75,178.01z"/>
				</g>
				<g>
					<path class="st0" d="M394.31,156.85c-0.22,0-0.44-0.1-0.59-0.29c-0.25-0.33-0.2-0.8,0.13-1.05c3.99-3.11,7.24-7.17,9.4-11.74
						c0.18-0.38,0.62-0.53,1-0.36c0.37,0.18,0.53,0.62,0.36,1c-2.26,4.78-5.66,9.03-9.83,12.29
						C394.63,156.8,394.47,156.85,394.31,156.85z"/>
				</g>
				<g>
					<path class="st0" d="M410.45,176.53c-0.17,0-0.34-0.06-0.48-0.17c-0.32-0.26-0.37-0.74-0.1-1.06
						c7.68-9.37,13.61-19.92,17.62-31.36c0.14-0.39,0.57-0.59,0.96-0.46c0.39,0.14,0.6,0.57,0.46,0.96
						c-4.07,11.6-10.08,22.31-17.87,31.82C410.88,176.43,410.67,176.53,410.45,176.53z"/>
				</g>
				<g>
					<path class="st0" d="M447.64,236.2c-0.34,0-0.65-0.23-0.73-0.58c-0.09-0.4,0.16-0.81,0.56-0.9
						c10.32-2.38,26.85-9.54,35.24-14.49c10.55-6.21,18.87-15.89,23.44-27.26c0.15-0.39,0.59-0.57,0.98-0.42
						c0.38,0.15,0.57,0.59,0.42,0.98c-4.68,11.67-13.23,21.61-24.06,27.99c-8.48,5-25.21,12.24-35.67,14.65
						C447.76,236.2,447.7,236.2,447.64,236.2z"/>
				</g>
				<g>
					<path class="st0" d="M453.75,222.35c-0.33,0-0.64-0.22-0.72-0.56c-0.11-0.4,0.13-0.81,0.53-0.92
						c9.97-2.65,19.55-6.6,28.49-11.75c0.36-0.21,0.82-0.08,1.02,0.28c0.21,0.36,0.08,0.82-0.28,1.02
						c-9.05,5.21-18.76,9.22-28.85,11.9C453.88,222.34,453.81,222.35,453.75,222.35z"/>
				</g>
				<g>
					<path class="st0" d="M468.09,237.56c-0.33,0-0.64-0.22-0.73-0.56c-0.1-0.4,0.14-0.81,0.54-0.91c6.11-1.57,13.21-3.7,19.57-7.6
						c6.47-3.97,11.26-9.41,13.51-15.33c0.15-0.39,0.58-0.58,0.97-0.44c0.39,0.15,0.58,0.58,0.44,0.97
						c-2.36,6.23-7.38,11.93-14.12,16.07c-6.57,4.03-14.13,6.27-19.98,7.77C468.21,237.55,468.15,237.56,468.09,237.56z"/>
				</g>
				<g>
					<path class="st0" d="M489.23,321.65c-4.76,0-8.41-0.31-14.29-0.8c-1.88-0.16-3.99-0.34-6.44-0.53
						c-0.41-0.03-0.72-0.39-0.69-0.81c0.03-0.41,0.39-0.72,0.81-0.69c2.45,0.19,4.56,0.37,6.44,0.53c9.6,0.81,13.2,1.11,25.62,0.38
						c5.29-0.31,10.42-0.75,15.14-2.74c2.49-1.05,4.84-2.54,7.12-3.99c1.59-1.01,3.23-2.05,4.92-2.95
						c8.09-4.29,17.61-5.46,26.02-6.49c0.42-0.05,0.79,0.24,0.84,0.65c0.05,0.41-0.24,0.79-0.65,0.83
						c-8.28,1.01-17.66,2.17-25.5,6.33c-1.64,0.87-3.26,1.9-4.82,2.89c-2.33,1.48-4.73,3-7.34,4.1c-4.93,2.08-10.43,2.55-15.63,2.86
						C495.86,321.52,492.31,321.65,489.23,321.65z"/>
				</g>
				<g>
					<path class="st0" d="M498.9,311.28c-7.55,0-15.13-0.69-22.55-2.04c-0.41-0.08-0.68-0.46-0.6-0.87c0.07-0.41,0.46-0.67,0.87-0.6
						c7.67,1.4,15.51,2.08,23.32,2.01c0,0,0,0,0.01,0c0.41,0,0.75,0.33,0.75,0.74c0,0.41-0.33,0.75-0.74,0.76
						C499.6,311.27,499.25,311.28,498.9,311.28z"/>
				</g>
				<g>
					<path class="st0" d="M490.52,333.22c-0.97,0-1.95-0.02-2.93-0.07c-0.41-0.02-0.73-0.37-0.72-0.78
						c0.02-0.41,0.37-0.74,0.78-0.71c7.5,0.34,14.94-0.66,22.09-2.96c0.39-0.13,0.82,0.09,0.94,0.48s-0.09,0.82-0.48,0.94
						C503.82,332.18,497.2,333.22,490.52,333.22z"/>
				</g>
			</g>
		</g>
	</g>
</g>
<g id="Guide">
</g>
</svg>
