<?xml version="1.0" encoding="utf-8"?>
<!-- Generator: Adobe Illustrator 26.1.0, SVG Export Plug-In . SVG Version: 6.00 Build 0)  -->
<svg version="1.1" xmlns="http://www.w3.org/2000/svg" xmlns:xlink="http://www.w3.org/1999/xlink" x="0px" y="0px"
	 viewBox="0 0 427.53 307.18" style="enable-background:new 0 0 427.53 307.18;" xml:space="preserve">
<style type="text/css">
	.st0{fill:#FFFFFF;}
	.st1{fill:#EAD9EB;}
	.st2{fill:#95608F;}
	.st3{fill:#ED859E;}
	.st4{fill:#FAC87D;}
	.st5{fill:#554B4E;}
	.st6{fill:#F8F4E9;}
	.st7{fill:#BFA071;}
	.st8{fill:#F2DED6;}
</style>
<g id="Bg">
</g>
<g id="Graphic">
	<g id="Constellation_1_00000164487625153931179790000001302419289347920795_">
		<g id="Line_00000179624566559606364950000004822929167779937942_">
			<g>
				<path class="st2" d="M356.09,101.68c-0.15,0-0.3-0.04-0.43-0.14c-0.34-0.24-0.42-0.71-0.18-1.05l62.07-87.44
					c0.24-0.34,0.71-0.42,1.05-0.18c0.34,0.24,0.42,0.71,0.18,1.05l-62.07,87.44C356.55,101.57,356.32,101.68,356.09,101.68z"/>
			</g>
			<g>
				<path class="st2" d="M232.4,101.82c-0.17,0-0.34-0.06-0.48-0.17l-52.68-43.59c-0.32-0.26-0.36-0.74-0.1-1.06
					c0.26-0.32,0.74-0.36,1.06-0.1l52.68,43.59c0.32,0.26,0.36,0.74,0.1,1.06C232.83,101.73,232.62,101.82,232.4,101.82z"/>
			</g>
			<g>
				<path class="st2" d="M347.93,106.23c0,0-0.01,0-0.02,0l-106.69-2.37c-0.41-0.01-0.74-0.35-0.73-0.77
					c0.01-0.41,0.34-0.73,0.75-0.73c0,0,0.01,0,0.02,0l106.69,2.37c0.41,0.01,0.74,0.35,0.73,0.77
					C348.67,105.9,348.34,106.23,347.93,106.23z"/>
			</g>
			<g>
				<path class="st2" d="M81.49,75.03c-0.35,0-0.67-0.25-0.74-0.61c-0.08-0.41,0.19-0.8,0.6-0.88l89.39-17
					c0.4-0.09,0.8,0.19,0.88,0.6c0.08,0.41-0.19,0.8-0.6,0.88l-89.39,17C81.58,75.03,81.53,75.03,81.49,75.03z"/>
			</g>
			<g>
				<path class="st2" d="M86.28,179.3c-0.36,0-0.68-0.27-0.74-0.64l-14.2-92.37c-0.06-0.41,0.22-0.79,0.63-0.86
					c0.41-0.06,0.79,0.22,0.85,0.63l14.2,92.37c0.06,0.41-0.22,0.79-0.63,0.86C86.35,179.3,86.32,179.3,86.28,179.3z"/>
			</g>
			<g>
				<path class="st2" d="M27.67,283.96c-0.13,0-0.26-0.03-0.37-0.1c-0.36-0.21-0.48-0.67-0.27-1.02l54.19-93.9
					c0.21-0.36,0.67-0.48,1.02-0.27c0.36,0.21,0.48,0.67,0.27,1.02l-54.19,93.9C28.18,283.83,27.93,283.96,27.67,283.96z"/>
			</g>
			<g>
				<path class="st2" d="M93.6,183.71c-0.27,0-0.53-0.14-0.66-0.4c-0.19-0.37-0.06-0.82,0.31-1.01l141.5-75.17
					c0.37-0.2,0.82-0.05,1.01,0.31s0.06,0.82-0.31,1.01l-141.5,75.17C93.84,183.68,93.72,183.71,93.6,183.71z"/>
			</g>
		</g>
		<g id="Star_00000155840373807921892820000014565646930423179953_">
			<g>
				<path class="st4" d="M77.14,84.2c5.74-1.31,13.35,0.59,25.9,4.38c-11.65-6.02-18.43-9.96-21.64-14.89
					c2.8-2.48,7.09-4.95,13.21-8.22c-6.61,2.11-11.36,3.47-15.1,3.75c-1.31-5.74,0.59-13.35,4.38-25.9
					C77.87,54.97,73.93,61.74,69,64.95c-2.48-2.8-4.95-7.09-8.22-13.21c2.11,6.61,3.47,11.36,3.75,15.1
					c-5.74,1.31-13.35-0.59-25.9-4.38c11.65,6.02,18.43,9.96,21.64,14.89c-2.8,2.48-7.09,4.95-13.21,8.22
					c6.61-2.11,11.36-3.47,15.1-3.75c1.31,5.74-0.59,13.35-4.38,25.9c6.02-11.65,9.96-18.43,14.89-21.64
					c2.48,2.8,4.95,7.09,8.22,13.21C78.79,92.69,77.42,87.94,77.14,84.2z"/>
				<path class="st4" d="M57.78,108.73c-0.13,0-0.25-0.02-0.38-0.07c-0.48-0.19-0.73-0.72-0.58-1.22
					c3.71-12.28,5.39-19.31,4.53-24.53c-3.42,0.4-7.8,1.65-13.99,3.62c-0.49,0.16-1.02-0.09-1.22-0.56
					c-0.2-0.48-0.01-1.03,0.45-1.27c5.72-3.07,9.67-5.33,12.34-7.52c-3.15-4.25-9.36-7.94-20.76-13.83
					c-0.46-0.24-0.66-0.79-0.47-1.26c0.19-0.48,0.72-0.73,1.22-0.58c12.28,3.71,19.31,5.38,24.53,4.53
					c-0.4-3.43-1.65-7.8-3.62-13.99c-0.16-0.49,0.09-1.02,0.56-1.22c0.48-0.2,1.03-0.01,1.27,0.45c3.07,5.72,5.34,9.67,7.52,12.34
					c4.25-3.15,7.94-9.36,13.83-20.76c0.24-0.46,0.78-0.66,1.26-0.47c0.48,0.19,0.73,0.72,0.58,1.22
					c-3.71,12.28-5.39,19.31-4.53,24.53c3.42-0.4,7.8-1.65,13.99-3.62c0.49-0.16,1.02,0.09,1.22,0.56c0.2,0.48,0.01,1.03-0.45,1.27
					c-5.72,3.07-9.67,5.33-12.34,7.52c3.15,4.25,9.36,7.94,20.76,13.83c0.46,0.24,0.66,0.79,0.47,1.26
					c-0.19,0.48-0.72,0.73-1.22,0.58c-12.28-3.71-19.31-5.39-24.53-4.53c0.4,3.42,1.65,7.8,3.62,13.99
					c0.16,0.49-0.09,1.02-0.56,1.22c-0.48,0.2-1.03,0.01-1.27-0.45c-3.07-5.72-5.34-9.67-7.52-12.34
					c-4.25,3.15-7.94,9.36-13.83,20.76C58.49,108.53,58.14,108.73,57.78,108.73z M62.16,80.83c0.46,0,0.87,0.32,0.97,0.78
					c0.98,4.29,0.29,9.46-1.79,17.33c3.99-7.1,7.1-11.29,10.78-13.69c0.42-0.27,0.97-0.2,1.29,0.17c1.29,1.46,2.57,3.29,3.98,5.61
					c-0.68-2.62-1.11-4.82-1.25-6.76c-0.04-0.49,0.29-0.94,0.78-1.05c4.29-0.98,9.46-0.29,17.33,1.79
					c-7.1-3.99-11.29-7.1-13.69-10.79c-0.27-0.42-0.2-0.96,0.18-1.29c1.46-1.29,3.29-2.57,5.61-3.98c-2.62,0.68-4.82,1.11-6.76,1.25
					c-0.51,0.03-0.94-0.29-1.05-0.78c-0.98-4.29-0.29-9.46,1.79-17.33c-3.99,7.1-7.1,11.29-10.78,13.69
					c-0.41,0.27-0.96,0.2-1.29-0.17c-1.29-1.46-2.57-3.29-3.98-5.61c0.68,2.62,1.1,4.82,1.25,6.76c0.04,0.49-0.29,0.94-0.78,1.05
					c-4.29,0.98-9.46,0.29-17.33-1.79c7.1,3.99,11.29,7.1,13.69,10.79c0.27,0.42,0.2,0.96-0.18,1.29c-1.46,1.29-3.29,2.57-5.61,3.98
					c2.62-0.68,4.82-1.11,6.76-1.25C62.11,80.83,62.13,80.83,62.16,80.83z"/>
			</g>
			<g>
				<path class="st3" d="M28.06,287c2.06-3.09,6.36-5.53,13.75-9.26c-7.95,2.31-12.76,3.46-16.37,2.6c0.2-2.36,1.09-5.35,2.46-9.5
					c-2.11,3.83-3.69,6.53-5.27,8.28c-3.09-2.06-5.53-6.36-9.26-13.75c2.31,7.95,3.46,12.76,2.6,16.37c-2.36-0.2-5.35-1.09-9.5-2.46
					c3.83,2.11,6.53,3.69,8.28,5.27c-2.06,3.09-6.36,5.53-13.75,9.26c7.95-2.31,12.76-3.46,16.37-2.6c-0.2,2.36-1.09,5.35-2.46,9.5
					c2.11-3.83,3.69-6.53,5.27-8.28c3.09,2.06,5.53,6.36,9.26,13.75c-2.31-7.95-3.46-12.76-2.6-16.37c2.36,0.2,5.35,1.09,9.5,2.46
					C32.51,290.17,29.82,288.59,28.06,287z"/>
				<path class="st3" d="M29.44,307.18c-0.37,0-0.72-0.2-0.89-0.55c-3.49-6.92-5.72-10.81-8.21-12.84c-1.31,1.64-2.7,4.03-4.56,7.4
					c-0.25,0.45-0.8,0.64-1.28,0.44c-0.47-0.21-0.71-0.74-0.55-1.23c1.21-3.66,2-6.3,2.31-8.38c-3.19-0.43-7.54,0.58-14.99,2.75
					c-0.5,0.15-1.02-0.11-1.21-0.59s0.02-1.03,0.48-1.26c6.92-3.49,10.81-5.72,12.84-8.21c-1.64-1.31-4.03-2.7-7.4-4.55
					c-0.45-0.25-0.64-0.8-0.44-1.28s0.74-0.71,1.23-0.55c3.66,1.21,6.3,2,8.38,2.31c0.43-3.19-0.58-7.54-2.75-14.99
					c-0.14-0.5,0.11-1.02,0.59-1.21c0.48-0.19,1.03,0.02,1.26,0.48c3.49,6.92,5.72,10.81,8.21,12.84c1.31-1.64,2.7-4.03,4.56-7.4
					c0.25-0.45,0.8-0.64,1.28-0.44c0.47,0.21,0.71,0.74,0.55,1.23c-1.21,3.66-2,6.3-2.31,8.38c3.19,0.43,7.54-0.58,14.99-2.75
					c0.5-0.15,1.02,0.11,1.21,0.59c0.19,0.48-0.02,1.03-0.48,1.26c-6.92,3.49-10.81,5.72-12.84,8.21c1.64,1.31,4.03,2.7,7.4,4.55
					c0.45,0.25,0.64,0.8,0.44,1.28c-0.21,0.47-0.74,0.71-1.23,0.55c-3.66-1.21-6.3-2-8.38-2.31c-0.43,3.19,0.58,7.54,2.75,14.99
					c0.14,0.5-0.11,1.02-0.59,1.21C29.68,307.16,29.56,307.18,29.44,307.18z M20.18,291.43c0.19,0,0.38,0.05,0.55,0.17
					c1.97,1.31,3.62,3.32,5.55,6.56c-0.8-3.69-0.96-6.28-0.41-8.58c0.11-0.48,0.55-0.82,1.06-0.76c0.7,0.06,1.44,0.18,2.26,0.35
					c-0.68-0.48-1.27-0.95-1.79-1.42c-0.37-0.33-0.44-0.88-0.16-1.3c1.31-1.97,3.32-3.62,6.56-5.55c-3.69,0.8-6.28,0.96-8.58,0.41
					c-0.48-0.11-0.81-0.57-0.76-1.06c0.06-0.7,0.18-1.44,0.35-2.26c-0.48,0.68-0.95,1.27-1.42,1.79c-0.33,0.37-0.88,0.44-1.3,0.16
					c-1.97-1.31-3.62-3.32-5.55-6.56c0.8,3.69,0.96,6.28,0.41,8.58c-0.11,0.48-0.56,0.81-1.06,0.76c-0.7-0.06-1.44-0.18-2.26-0.35
					c0.68,0.48,1.27,0.95,1.79,1.42c0.37,0.33,0.44,0.88,0.16,1.3c-1.31,1.97-3.32,3.62-6.56,5.55c3.69-0.8,6.28-0.96,8.58-0.41
					c0.48,0.11,0.81,0.57,0.76,1.06c-0.06,0.7-0.18,1.44-0.35,2.26c0.48-0.68,0.95-1.27,1.42-1.79
					C19.63,291.55,19.91,291.43,20.18,291.43z"/>
			</g>
			<g>
				<circle class="st2" cx="420.27" cy="7.26" r="6.26"/>
				<path class="st2" d="M420.25,14.52c-1.44,0-2.84-0.43-4.06-1.25c-1.6-1.09-2.69-2.74-3.05-4.64s0.03-3.84,1.12-5.44
					c1.09-1.6,2.74-2.69,4.64-3.05c3.94-0.75,7.74,1.83,8.5,5.76c0.36,1.91-0.03,3.84-1.12,5.44s-2.74,2.69-4.64,3.05
					C421.17,14.48,420.71,14.52,420.25,14.52z M420.27,2c-0.33,0-0.66,0.03-0.99,0.09c-1.38,0.26-2.57,1.05-3.36,2.21
					c-0.79,1.16-1.08,2.56-0.81,3.94c0.26,1.38,1.05,2.57,2.21,3.36c1.16,0.79,2.56,1.08,3.94,0.81l0,0
					c1.38-0.26,2.58-1.05,3.36-2.21c0.79-1.16,1.08-2.56,0.81-3.94C424.95,3.76,422.74,2,420.27,2z"/>
			</g>
			<g>
				<circle class="st3" cx="175.35" cy="56.31" r="4.58"/>
				<path class="st3" d="M175.35,61.89c-0.67,0-1.34-0.12-1.99-0.37l0,0c-1.39-0.53-2.5-1.57-3.11-2.93
					c-0.61-1.36-0.65-2.88-0.12-4.27s1.57-2.5,2.93-3.11c1.36-0.61,2.88-0.65,4.27-0.12c1.39,0.53,2.5,1.57,3.11,2.93
					s0.66,2.88,0.12,4.27s-1.57,2.5-2.93,3.11C176.91,61.73,176.13,61.89,175.35,61.89z M174.08,59.66
					c0.89,0.34,1.87,0.31,2.74-0.08c0.87-0.39,1.54-1.1,1.88-1.99c0.34-0.89,0.31-1.87-0.08-2.74c-0.39-0.87-1.1-1.54-1.99-1.88
					c-0.89-0.34-1.87-0.31-2.74,0.08c-0.87,0.39-1.54,1.1-1.88,1.99c-0.34,0.89-0.31,1.87,0.08,2.74
					C172.48,58.65,173.18,59.32,174.08,59.66L174.08,59.66z"/>
			</g>
			<g>
				<circle class="st3" cx="87.03" cy="185.15" r="6.64"/>
				<path class="st3" d="M87.03,192.8c-0.9,0-1.82-0.16-2.71-0.5c-1.91-0.73-3.42-2.15-4.26-4.01c-0.84-1.86-0.9-3.94-0.17-5.85
					s2.15-3.42,4.01-4.26s3.94-0.9,5.85-0.17c3.94,1.5,5.93,5.92,4.43,9.86C93.02,190.92,90.11,192.8,87.03,192.8z M87.04,179.51
					c-2.28,0-4.43,1.39-5.28,3.64c-1.11,2.91,0.36,6.18,3.27,7.28c2.91,1.1,6.18-0.36,7.28-3.27c1.11-2.91-0.36-6.18-3.27-7.28
					C88.38,179.63,87.71,179.51,87.04,179.51z"/>
			</g>
			<g>
				<circle class="st2" cx="236.72" cy="103.54" r="4.55"/>
				<path class="st2" d="M236.72,109.09c-0.67,0-1.33-0.12-1.97-0.37l0,0c-2.86-1.09-4.3-4.3-3.21-7.16c1.09-2.86,4.3-4.3,7.16-3.21
					c1.38,0.53,2.48,1.56,3.09,2.91c0.61,1.35,0.65,2.86,0.12,4.25c-0.53,1.39-1.56,2.48-2.91,3.09
					C238.26,108.93,237.49,109.09,236.72,109.09z M236.72,99.99c-1.43,0-2.78,0.87-3.32,2.29c-0.7,1.83,0.23,3.88,2.06,4.58l0,0
					c0.88,0.34,1.85,0.31,2.71-0.08c0.86-0.39,1.53-1.09,1.86-1.98c0.34-0.89,0.31-1.85-0.08-2.71c-0.39-0.86-1.09-1.53-1.98-1.86
					C237.56,100.07,237.14,99.99,236.72,99.99z"/>
			</g>
			<g>
				<path class="st4" d="M362.66,122.16c-9.02-13.16-10.63-13.61-25.21-7.15c13.16-9.02,13.61-10.63,7.15-25.21
					c9.02,13.16,10.63,13.61,25.21,7.15C356.65,105.96,356.19,107.58,362.66,122.16z"/>
				<path class="st4" d="M362.66,123.16c-0.32,0-0.63-0.15-0.83-0.43c-8.74-12.75-9.86-13.06-23.98-6.8
					c-0.47,0.21-1.03,0.03-1.28-0.43c-0.25-0.45-0.12-1.02,0.31-1.31c12.74-8.74,13.06-9.86,6.8-23.98
					c-0.21-0.47-0.02-1.03,0.43-1.28c0.45-0.25,1.02-0.12,1.31,0.31c8.74,12.75,9.86,13.06,23.98,6.8c0.47-0.21,1.03-0.03,1.28,0.43
					c0.25,0.45,0.12,1.02-0.31,1.31c-12.74,8.74-13.06,9.86-6.8,23.98c0.21,0.47,0.02,1.03-0.43,1.28
					C362.99,123.11,362.82,123.16,362.66,123.16z M350.05,109.98c3.27,0,5.71,1.59,8.69,5.16c-2.2-6.58-1.28-9.83,4.05-14.28
					c-6.58,2.2-9.83,1.28-14.28-4.05c2.2,6.58,1.28,9.83-4.05,14.28C346.63,110.37,348.44,109.98,350.05,109.98z"/>
			</g>
		</g>
	</g>
</g>
<g id="Guide">
</g>
</svg>
