<?xml version="1.0" encoding="utf-8"?>
<!-- Generator: Adobe Illustrator 26.1.0, SVG Export Plug-In . SVG Version: 6.00 Build 0)  -->
<svg version="1.1" xmlns="http://www.w3.org/2000/svg" xmlns:xlink="http://www.w3.org/1999/xlink" x="0px" y="0px"
	 viewBox="0 0 710.67 398.21" style="enable-background:new 0 0 710.67 398.21;" xml:space="preserve">
<style type="text/css">
	.st0{fill:#FFFFFF;}
	.st1{fill:#EAD9EB;}
	.st2{fill:#95608F;}
	.st3{fill:#ED859E;}
	.st4{fill:#FAC87D;}
	.st5{fill:#554B4E;}
	.st6{fill:#F8F4E9;}
	.st7{fill:#BFA071;}
	.st8{fill:#F2DED6;}
</style>
<g id="Bg">
</g>
<g id="Graphic">
	<g id="Cloud_1_00000009549605478960724750000014026289245656603792_">
		<g id="Color_00000108996491262008994660000002956081866541941413_">
			<path class="st2" d="M666.68,155.61c-15.18-4.19-28.82-12.19-44.25-15.63s-34.65-0.62-42.24,11.72
				c7.92-15.32,5.2-34.02-4.9-48.31c-10.1-14.29-26.84-24.33-44.97-29.55c-25.26-7.26-55.27-4.87-75.19,10.65
				c3.44-8.65-0.63-19.15-9.35-24.13s-21.23-3.95-28.75,2.37c-19.53-53.48-85.42-77.43-135.9-53.42
				c-26.6,12.65-47.18,45.7-43.79,84.29l-0.91,0.05c-16.17-3.44-33.98-0.3-47.41,8.37c-13.43,8.67-15.27,18.37-16.46,33.02
				c-11.95-5.09-25.05-5.19-37.11-0.34c-12.4,4.99-14.59,12.16-27.62,16.03c-9.54,2.83-21.61,0.16-31.4-0.26
				c-29.63-1.29-54.91,12.53-75.69,40.7c0,0,20.83-7.87,32.12-10.39c12.68-2.83,25.91-4.27,38.41,0.02
				c15.6,5.36,27.98,16.42,38.13,27.84c12.46,14.02,26.28,25.83,46.32,30.17c18.65,4.04,39.56,2.27,56.05-6.79
				c4.49-2.46,8.36-5.78,10.62-10.05c4.16,12.13,22.36,17.66,32.39,18.09c13.97,0.6,28.17-2.78,37.63-10.71l0,0
				c0,11.32,10.59,20.58,23.53,23.84c14.43,3.63,30.22,3.15,44.66-0.18c1.44-0.33,15.49-3.86,15.38-4.63
				c1.96,14.04,21.04,22.52,35.39,17.36c4.99-1.79,10.24-5.33,14.26-8.37c15.22,12.91,39.79,18.01,60.25,14.49
				c19.57-3.37,37.36-15.22,45.06-31.47c1.96-4.14,3.21-8.54,3.75-13.01l0.63,0.37c10.21,0.27,27.42,0.66,39.09-3.93
				c19-7.48,23.25-31.51,45.05-35.22c9.74-1.66,19.72-0.31,29.54-0.73c11.37-0.48,22.77-2.98,33-6.95
				c5.53-2.14,10.74-4.89,15.38-8.3c2.63-1.93,5.07-4.06,7.32-6.33c1.04-1.05,4.73-6.74,5.94-6.91
				C688.27,162.61,681.86,159.8,666.68,155.61z"/>
		</g>
		<g id="Sparkling_stars_00000123434830303672932260000002725436292385927094_">
			<g id="Line_00000041979179985754016910000011414154974195233938_">
				<g>
					<path class="st3" d="M476.62,293.86c-0.55,0-1-0.45-1-1v-20c0-0.55,0.45-1,1-1s1,0.45,1,1v20
						C477.62,293.41,477.17,293.86,476.62,293.86z"/>
				</g>
				<g>
					<path class="st3" d="M545.01,283.99c-0.55,0-1-0.45-1-1v-15.08c0-0.55,0.45-1,1-1s1,0.45,1,1v15.08
						C546.01,283.55,545.57,283.99,545.01,283.99z M545.01,248.91c-0.55,0-1-0.45-1-1v-20c0-0.55,0.45-1,1-1s1,0.45,1,1v20
						C546.01,248.46,545.57,248.91,545.01,248.91z"/>
				</g>
				<g>
					<path class="st3" d="M615.97,236.26c-0.55,0-1-0.45-1-1v-5.02c0-0.55,0.45-1,1-1s1,0.45,1,1v5.02
						C616.97,235.82,616.52,236.26,615.97,236.26z M615.97,211.24c-0.55,0-1-0.45-1-1v-20c0-0.55,0.45-1,1-1s1,0.45,1,1v20
						C616.97,210.8,616.52,211.24,615.97,211.24z"/>
				</g>
				<g>
					<path class="st3" d="M188.62,297.12c-0.55,0-1-0.45-1-1v-15.8c0-0.55,0.45-1,1-1s1,0.45,1,1v15.8
						C189.62,296.67,189.17,297.12,188.62,297.12z M188.62,261.32c-0.55,0-1-0.45-1-1v-20c0-0.55,0.45-1,1-1s1,0.45,1,1v20
						C189.62,260.87,189.17,261.32,188.62,261.32z"/>
				</g>
				<g>
					<path class="st3" d="M123.02,243.17c-0.55,0-1-0.45-1-1v-20c0-0.55,0.45-1,1-1s1,0.45,1,1v20
						C124.02,242.72,123.57,243.17,123.02,243.17z"/>
				</g>
				<g>
					<path class="st3" d="M263.47,287.24c-0.55,0-1-0.45-1-1v-6.27c0-0.55,0.45-1,1-1s1,0.45,1,1v6.27
						C264.47,286.79,264.02,287.24,263.47,287.24z M263.47,260.97c-0.55,0-1-0.45-1-1v-20c0-0.55,0.45-1,1-1s1,0.45,1,1v20
						C264.47,260.52,264.02,260.97,263.47,260.97z"/>
				</g>
				<g>
					<path class="st3" d="M327.2,312.08c-0.55,0-1-0.45-1-1v-15.63c0-0.55,0.45-1,1-1s1,0.45,1,1v15.63
						C328.2,311.64,327.75,312.08,327.2,312.08z M327.2,276.45c-0.55,0-1-0.45-1-1v-20c0-0.55,0.45-1,1-1s1,0.45,1,1v20
						C328.2,276,327.75,276.45,327.2,276.45z"/>
				</g>
				<g>
					<path class="st3" d="M404.05,352.64c-0.55,0-1-0.45-1-1v-4.07c0-0.55,0.45-1,1-1s1,0.45,1,1v4.07
						C405.05,352.19,404.6,352.64,404.05,352.64z M404.05,328.57c-0.55,0-1-0.45-1-1v-20c0-0.55,0.45-1,1-1s1,0.45,1,1v20
						C405.05,328.12,404.6,328.57,404.05,328.57z M404.05,288.57c-0.55,0-1-0.45-1-1v-20c0-0.55,0.45-1,1-1s1,0.45,1,1v20
						C405.05,288.12,404.6,288.57,404.05,288.57z"/>
				</g>
			</g>
			<g id="Star_00000128457320285130603060000002361091043325825667_">
				<g>
					<g>
						<polygon class="st3" points="461.2,323.91 476.62,301.01 492.03,323.91 476.62,346.81 						"/>
						<path class="st3" d="M476.62,347.81c-0.33,0-0.64-0.17-0.83-0.44l-15.41-22.9c-0.23-0.34-0.23-0.78,0-1.12l15.41-22.9
							c0.37-0.55,1.29-0.55,1.66,0l15.41,22.9c0.23,0.34,0.23,0.78,0,1.12l-15.41,22.9C477.26,347.64,476.95,347.81,476.62,347.81z
							 M462.41,323.91l14.21,21.11l14.21-21.11l-14.21-21.11L462.41,323.91z"/>
					</g>
					<g>
						<polygon class="st4" points="601.75,256.39 615.97,235.26 630.19,256.39 615.97,277.52 						"/>
						<path class="st4" d="M615.97,278.52L615.97,278.52c-0.33,0-0.64-0.17-0.83-0.44l-14.22-21.13c-0.23-0.34-0.23-0.78,0-1.12
							l14.22-21.13c0.37-0.55,1.29-0.55,1.66,0l14.22,21.13c0.23,0.34,0.23,0.78,0,1.12l-14.22,21.13
							C616.61,278.35,616.3,278.52,615.97,278.52z M602.96,256.39l13.01,19.34l13.02-19.34l-13.02-19.34L602.96,256.39z"/>
					</g>
					<g>
						<polygon class="st4" points="524.34,313.7 545.01,282.99 565.69,313.7 545.01,344.42 						"/>
						<path class="st4" d="M545.01,345.41c-0.33,0-0.64-0.17-0.83-0.44l-20.67-30.71c-0.23-0.34-0.23-0.78,0-1.12l20.67-30.71
							c0.37-0.55,1.29-0.55,1.66,0l20.67,30.71c0.23,0.34,0.23,0.78,0,1.12l-20.67,30.71C545.66,345.25,545.35,345.41,545.01,345.41
							z M525.55,313.7l19.47,28.92l19.47-28.92l-19.47-28.92L525.55,313.7z"/>
					</g>
					<g>
						<polygon class="st4" points="204.03,319.01 188.62,296.12 173.21,319.01 188.62,341.91 						"/>
						<path class="st4" d="M188.62,342.91c-0.33,0-0.64-0.17-0.83-0.44l-15.41-22.9c-0.23-0.34-0.23-0.78,0-1.12l15.41-22.9
							c0.37-0.55,1.29-0.55,1.66,0l15.41,22.9c0.23,0.34,0.23,0.78,0,1.12l-15.41,22.9C189.27,342.75,188.95,342.91,188.62,342.91z
							 M174.41,319.01l14.21,21.11l14.21-21.11l-14.21-21.11L174.41,319.01z"/>
					</g>
					<g>
						<polygon class="st4" points="134.92,279.05 123.02,261.38 111.12,279.05 123.02,296.73 						"/>
						<path class="st4" d="M123.02,297.73c-0.33,0-0.64-0.17-0.83-0.44l-11.9-17.68c-0.23-0.34-0.23-0.78,0-1.12l11.9-17.68
							c0.37-0.55,1.29-0.55,1.66,0l11.9,17.68c0.23,0.34,0.23,0.78,0,1.12l-11.9,17.68C123.66,297.56,123.35,297.73,123.02,297.73z
							 M112.32,279.05l10.69,15.89l10.69-15.89l-10.69-15.89L112.32,279.05z"/>
					</g>
					<g>
						<polygon class="st3" points="252.73,302.19 263.47,286.24 274.2,302.19 263.47,318.13 						"/>
						<path class="st3" d="M263.47,319.13c-0.33,0-0.64-0.17-0.83-0.44l-10.74-15.95c-0.23-0.34-0.23-0.78,0-1.12l10.74-15.95
							c0.37-0.55,1.29-0.55,1.66,0l10.74,15.95c0.23,0.34,0.23,0.78,0,1.12l-10.74,15.95C264.11,318.97,263.8,319.13,263.47,319.13z
							 M253.94,302.19l9.53,14.16l9.53-14.16l-9.53-14.16L253.94,302.19z"/>
					</g>
					<g>
						<polygon class="st3" points="388.71,374.43 404.05,351.64 419.39,374.43 404.05,397.21 						"/>
						<path class="st3" d="M404.05,398.21c-0.33,0-0.64-0.17-0.83-0.44l-15.34-22.79c-0.23-0.34-0.23-0.78,0-1.12l15.34-22.79
							c0.19-0.28,0.5-0.44,0.83-0.44l0,0c0.33,0,0.64,0.17,0.83,0.44l15.34,22.79c0.23,0.34,0.23,0.78,0,1.12l-15.34,22.79
							C404.69,398.05,404.38,398.21,404.05,398.21z M389.92,374.42l14.13,21l14.13-21l-14.13-21L389.92,374.42z"/>
					</g>
					<g>
						<polygon class="st3" points="302.99,347.05 327.2,311.08 351.41,347.05 327.2,383.01 						"/>
						<path class="st3" d="M327.2,384.01c-0.33,0-0.64-0.17-0.83-0.44l-24.21-35.97c-0.23-0.34-0.23-0.78,0-1.12l24.21-35.96
							c0.37-0.55,1.29-0.55,1.66,0l24.21,35.96c0.23,0.34,0.23,0.78,0,1.12l-24.21,35.97C327.84,383.85,327.53,384.01,327.2,384.01z
							 M304.2,347.05l23,34.17l23-34.17l-23-34.17L304.2,347.05z"/>
					</g>
				</g>
				<g>
					<g>
						<polygon class="st4" points="470.56,323.91 476.62,314.91 482.67,323.91 476.62,332.91 						"/>
						<path class="st4" d="M476.62,333.66c-0.25,0-0.48-0.12-0.62-0.33l-6.06-9c-0.17-0.25-0.17-0.58,0-0.84l6.06-9
							c0.14-0.21,0.37-0.33,0.62-0.33l0,0c0.25,0,0.48,0.12,0.62,0.33l6.06,9c0.17,0.25,0.17,0.58,0,0.84l-6.06,9
							C477.1,333.53,476.87,333.66,476.62,333.66z M471.46,323.91l5.15,7.66l5.15-7.66l-5.15-7.66L471.46,323.91z"/>
					</g>
					<g>
						<polygon class="st3" points="609.69,256.39 615.97,247.07 622.25,256.39 615.97,265.72 						"/>
						<path class="st3" d="M615.97,266.47c-0.25,0-0.48-0.12-0.62-0.33l-6.28-9.33c-0.17-0.25-0.17-0.58,0-0.84l6.28-9.32
							c0.28-0.41,0.96-0.41,1.24,0l6.28,9.32c0.17,0.25,0.17,0.58,0,0.84l-6.28,9.33C616.45,266.34,616.22,266.47,615.97,266.47z
							 M610.6,256.39l5.37,7.98l5.37-7.98l-5.37-7.98L610.6,256.39z"/>
					</g>
					<g>
						<polygon class="st2" points="534.77,313.7 545.01,298.48 555.26,313.7 545.01,328.93 						"/>
						<path class="st2" d="M545.01,329.68c-0.25,0-0.48-0.12-0.62-0.33l-10.25-15.22c-0.17-0.25-0.17-0.58,0-0.84l10.25-15.22
							c0.14-0.21,0.37-0.33,0.62-0.33l0,0c0.25,0,0.48,0.12,0.62,0.33l10.25,15.22c0.17,0.25,0.17,0.58,0,0.84l-10.25,15.22
							C545.5,329.55,545.26,329.68,545.01,329.68z M535.67,313.7l9.34,13.88l9.34-13.88l-9.34-13.88L535.67,313.7z"/>
					</g>
					<g>
						<polygon class="st2" points="194.68,319.01 188.62,310.01 182.56,319.01 188.62,328.01 						"/>
						<path class="st2" d="M188.62,328.76c-0.25,0-0.48-0.12-0.62-0.33l-6.06-9c-0.17-0.25-0.17-0.58,0-0.84l6.06-9
							c0.14-0.21,0.37-0.33,0.62-0.33l0,0c0.25,0,0.48,0.12,0.62,0.33l6.06,9c0.17,0.25,0.17,0.58,0,0.84l-6.06,9
							C189.1,328.64,188.87,328.76,188.62,328.76z M183.47,319.01l5.15,7.66l5.15-7.66l-5.15-7.66L183.47,319.01z"/>
					</g>
					<g>
						<polygon class="st3" points="128.27,279.05 123.02,271.25 117.77,279.05 123.02,286.85 						"/>
						<path class="st3" d="M123.02,287.6L123.02,287.6c-0.25,0-0.48-0.12-0.62-0.33l-5.25-7.8c-0.17-0.25-0.17-0.58,0-0.84l5.25-7.8
							c0.28-0.41,0.96-0.41,1.24,0l5.25,7.8c0.17,0.25,0.17,0.58,0,0.84l-5.25,7.8C123.5,287.48,123.27,287.6,123.02,287.6z
							 M118.67,279.05l4.35,6.46l4.35-6.46l-4.35-6.46L118.67,279.05z"/>
					</g>
					<g>
						<polygon class="st4" points="259.25,302.19 263.47,295.92 267.69,302.19 263.47,308.45 						"/>
						<path class="st4" d="M263.47,309.2c-0.25,0-0.48-0.12-0.62-0.33l-4.22-6.27c-0.17-0.25-0.17-0.58,0-0.84l4.22-6.27
							c0.28-0.41,0.96-0.41,1.24,0l4.22,6.27c0.17,0.25,0.17,0.58,0,0.84l-4.22,6.27C263.95,309.08,263.72,309.2,263.47,309.2z
							 M260.15,302.19l3.31,4.92l3.31-4.92l-3.31-4.92L260.15,302.19z"/>
					</g>
					<g>
						<polygon class="st1" points="397.28,374.43 404.05,364.37 410.82,374.43 404.05,384.48 						"/>
						<path class="st1" d="M404.05,385.23c-0.25,0-0.48-0.12-0.62-0.33l-6.77-10.06c-0.17-0.25-0.17-0.58,0-0.84l6.77-10.06
							c0.14-0.21,0.37-0.33,0.62-0.33l0,0c0.25,0,0.48,0.12,0.62,0.33l6.77,10.06c0.17,0.25,0.17,0.58,0,0.84l-6.77,10.06
							C404.53,385.11,404.3,385.23,404.05,385.23z M398.18,374.42l5.87,8.72l5.87-8.72l-5.87-8.71L398.18,374.42z"/>
					</g>
					<g>
						<polygon class="st4" points="315.2,347.05 327.2,329.22 339.2,347.05 327.2,364.87 						"/>
						<path class="st4" d="M327.2,365.62c-0.25,0-0.48-0.12-0.62-0.33l-12-17.83c-0.17-0.25-0.17-0.58,0-0.84l12-17.83
							c0.28-0.41,0.96-0.41,1.24,0l12,17.83c0.17,0.25,0.17,0.58,0,0.84l-12,17.83C327.68,365.5,327.45,365.62,327.2,365.62z
							 M316.11,347.05l11.09,16.48l11.09-16.48l-11.09-16.48L316.11,347.05z"/>
					</g>
				</g>
			</g>
		</g>
		<g id="Line_00000091712223852158353590000000949470413405532338_">
			<g>
				<path class="st0" d="M338.62,239.34c-9.52,0-19.33-2.46-24.43-11.12c-0.21-0.36-0.09-0.82,0.27-1.03s0.82-0.09,1.03,0.27
					c8.78,14.9,32.96,10.2,42.95,7.48c0.4-0.11,0.81,0.13,0.92,0.53s-0.13,0.81-0.53,0.92
					C354.16,237.66,346.49,239.34,338.62,239.34z"/>
			</g>
			<g>
				<path class="st0" d="M481.98,255.86c-0.32,0-0.62-0.21-0.72-0.53c-0.12-0.4,0.1-0.82,0.5-0.94
					c17.28-5.35,29.66-18.89,30.1-32.94c0.01-0.41,0.37-0.71,0.77-0.73c0.41,0.01,0.74,0.36,0.73,0.77
					c-0.39,12.41-10.18,27.83-31.16,34.33C482.13,255.85,482.05,255.86,481.98,255.86z"/>
			</g>
			<g>
				<path class="st0" d="M0.75,191.94c-0.22,0-0.45-0.1-0.59-0.29c-0.25-0.33-0.19-0.8,0.13-1.05
					c28.32-21.92,54.91-30.67,79.04-26.01c0.41,0.08,0.67,0.47,0.59,0.88c-0.08,0.41-0.46,0.68-0.88,0.59
					c-23.67-4.58-49.87,4.08-77.83,25.73C1.07,191.89,0.91,191.94,0.75,191.94z"/>
			</g>
			<g>
				<path class="st0" d="M174.68,212.09c-7.49,0-15.01-1.74-21.81-5.19c-8.53-4.91-15.91-10.92-23.06-16.74
					c-11.09-9.03-21.57-17.56-35-21.1c-0.4-0.11-0.64-0.52-0.53-0.92c0.11-0.4,0.51-0.64,0.92-0.53
					c13.75,3.62,24.35,12.25,35.57,21.39c7.1,5.78,14.44,11.75,22.82,16.58c12.31,6.25,27.1,6.69,39.53,1.15
					c9.89-4.41,16.97-12.22,19.43-21.4c0.11-0.4,0.52-0.64,0.92-0.53c0.4,0.11,0.64,0.52,0.53,0.92
					c-2.57,9.63-9.96,17.79-20.27,22.39C187.74,210.76,181.22,212.09,174.68,212.09z"/>
			</g>
			<g>
				<path class="st0" d="M217,174.48c-0.08,0-0.15-0.01-0.23-0.04c-0.39-0.13-0.61-0.55-0.48-0.94c4.09-12.7,15.69-22.6,29.56-25.22
					c0.42-0.08,0.8,0.19,0.88,0.6c0.08,0.41-0.19,0.8-0.6,0.88c-13.34,2.52-24.49,12.02-28.41,24.2
					C217.61,174.28,217.32,174.48,217,174.48z"/>
			</g>
			<g>
				<path class="st0" d="M430.24,187.59c-0.11,0-0.23-0.03-0.34-0.08c-0.37-0.19-0.52-0.64-0.33-1.01
					c10.05-20.02,26.94-30.41,50.19-30.9c19.36-0.37,45.39,4.48,60.48,19.38c0.29,0.29,0.3,0.77,0.01,1.06
					c-0.29,0.29-0.77,0.3-1.06,0.01c-14.77-14.58-40.37-19.36-59.4-18.95c-22.65,0.47-39.09,10.59-48.88,30.07
					C430.78,187.44,430.52,187.59,430.24,187.59z"/>
			</g>
			<g>
				<path class="st0" d="M547.04,105.72c-0.16,0-0.31-0.05-0.45-0.15c-20.62-15.3-52.65-18.01-79.71-6.73
					c-0.38,0.16-0.82-0.02-0.98-0.4c-0.16-0.38,0.02-0.82,0.4-0.98c27.52-11.48,60.15-8.7,81.18,6.91c0.33,0.25,0.4,0.72,0.16,1.05
					C547.5,105.61,547.27,105.72,547.04,105.72z"/>
			</g>
			<g>
				<path class="st0" d="M310.03,132.29c-8.71,0-17.58-2.37-24.06-6.84c-0.34-0.23-0.43-0.7-0.19-1.04c0.23-0.34,0.7-0.43,1.04-0.19
					c9.93,6.84,25.66,8.58,37.41,4.14c5.53-2.09,12.59-6.46,14.83-15.41c0.1-0.4,0.51-0.65,0.91-0.55c0.4,0.1,0.65,0.51,0.55,0.91
					c-1.89,7.58-7.34,13.27-15.75,16.45C320.25,131.47,315.17,132.29,310.03,132.29z"/>
			</g>
			<g>
				<path class="st0" d="M271.79,115.31c-0.21,0-0.41-0.08-0.56-0.25c-10.86-12.09-16.12-27.31-14.41-41.76
					c0.05-0.41,0.42-0.69,0.83-0.66c0.41,0.05,0.71,0.42,0.66,0.83c-1.65,14.02,3.46,28.81,14.04,40.58
					c0.28,0.31,0.25,0.78-0.06,1.06C272.14,115.25,271.97,115.31,271.79,115.31z"/>
			</g>
			<g>
				<path class="st0" d="M271.79,47.43c-0.13,0-0.26-0.03-0.38-0.1c-0.36-0.21-0.47-0.67-0.26-1.03
					c9.85-16.64,29.06-27.08,48.89-26.61c0.41,0.01,0.74,0.35,0.73,0.77s-0.31,0.74-0.77,0.73c-19.35-0.45-37.98,9.7-47.56,25.87
					C272.29,47.29,272.04,47.43,271.79,47.43z"/>
			</g>
			<g>
				<path class="st0" d="M398.64,67.84c-0.24,0-0.48-0.12-0.63-0.34c-21.06-31.83-37.67-38.33-51.15-40.49
					c-0.41-0.07-0.69-0.45-0.62-0.86c0.06-0.41,0.44-0.69,0.86-0.62c19.56,3.14,35.16,15.44,52.17,41.14
					c0.23,0.35,0.13,0.81-0.21,1.04C398.92,67.8,398.78,67.84,398.64,67.84z"/>
			</g>
			<g>
				<path class="st0" d="M373.4,143.19c-0.18,0-0.35-0.06-0.5-0.19c-0.31-0.27-0.34-0.75-0.06-1.06
					c9.18-10.37,12.82-22.25,10.82-35.29c-0.06-0.41,0.22-0.79,0.63-0.86c0.42-0.06,0.79,0.22,0.86,0.63
					c2.08,13.5-1.69,25.79-11.18,36.51C373.82,143.1,373.61,143.19,373.4,143.19z"/>
			</g>
			<g>
				<path class="st0" d="M538.69,203.13c-2.87,0-5.85-0.22-8.94-0.67c-0.41-0.06-0.69-0.44-0.63-0.85c0.06-0.41,0.45-0.69,0.85-0.63
					c13.25,1.91,24.36-0.38,33.03-6.81c4.47-3.31,8.08-7.03,11.58-10.63c7.83-8.05,15.22-15.66,30.29-16.6
					c8.79-0.55,17.56,0.71,26.05,1.93c7.47,1.08,15.22,2.19,22.86,2.04c18.15-0.34,38.85-1.53,54.92-11.42
					c0.36-0.22,0.82-0.11,1.03,0.25c0.22,0.35,0.11,0.82-0.25,1.03c-16.39,10.09-37.33,11.3-55.68,11.64
					c-7.78,0.16-15.57-0.97-23.1-2.06c-8.41-1.21-17.11-2.46-25.74-1.92c-14.49,0.91-21.36,7.97-29.31,16.15
					c-3.54,3.64-7.2,7.41-11.76,10.79C556.93,200.54,548.48,203.13,538.69,203.13z"/>
			</g>
			<g>
				<path class="st0" d="M467.65,232.92c-0.04,0-0.08,0-0.11-0.01c-12.9-1.95-21.98-9.82-24.31-21.05s2.9-22.68,13.31-29.19
					c10.22-6.38,24.61-8.48,38.51-5.6c10.55,2.18,20.19,6.98,27.15,13.51c10.05,9.43,15,23.32,13.23,37.17
					c-0.05,0.41-0.42,0.7-0.84,0.65c-0.41-0.05-0.7-0.43-0.65-0.84c1.71-13.37-3.07-26.79-12.77-35.89
					c-6.76-6.34-16.15-11-26.43-13.13c-13.53-2.8-27.51-0.78-37.41,5.4c-9.87,6.17-14.83,17.01-12.63,27.61
					c2.19,10.59,10.81,18.01,23.06,19.87c0.41,0.06,0.69,0.44,0.63,0.85C468.34,232.65,468.02,232.92,467.65,232.92z"/>
			</g>
			<g>
				<path class="st0" d="M313.35,154.11c-11.92,0-24.45-3.08-36.46-9.23c-22.85-11.7-38.29-31.31-40.29-51.19
					c-0.04-0.41,0.26-0.78,0.67-0.82c0.41-0.05,0.78,0.26,0.82,0.67c1.92,19.08,17.42,38.71,39.48,50
					c22.55,11.54,46.96,12.1,65.31,1.48c12.52-7.24,21.06-21.04,21.77-35.15c0.61-12.15-4.51-22.78-14.41-29.92
					c-11.59-8.36-26.71-7.42-37-3.74c-7.99,2.85-13.9,7.53-15.06,11.91c-0.11,0.4-0.51,0.64-0.92,0.53
					c-0.4-0.11-0.64-0.52-0.53-0.92c1.3-4.92,7.44-9.87,16.01-12.93c10.64-3.8,26.31-4.77,38.38,3.94
					c10.33,7.45,15.67,18.53,15.03,31.21c-0.73,14.61-9.57,28.88-22.52,36.37C334.65,151.52,324.26,154.11,313.35,154.11z"/>
			</g>
			<g>
				<path class="st0" d="M292.91,229.37c-0.21,0-0.42-0.09-0.57-0.27c-0.27-0.32-0.23-0.79,0.09-1.06c4.99-4.21,7.89-8.8,9.42-14.86
					c1.81-7.18,1.63-18.2-3.04-25.43c-5.74-8.86-15.19-14.87-25.29-16.07c-10.99-1.31-22.42,3.87-26.57,12.04
					c-2.06,4.05-2.16,8.95-0.27,13.46c1.95,4.65,5.76,8.17,10.45,9.66c0.39,0.12,0.61,0.55,0.49,0.94c-0.12,0.4-0.55,0.62-0.94,0.49
					c-5.11-1.62-9.26-5.45-11.38-10.51c-2.06-4.91-1.94-10.27,0.32-14.71c4.5-8.85,16.31-14.25,28.09-12.85
					c10.54,1.25,20.4,7.52,26.37,16.75c4.92,7.61,5.13,19.13,3.24,26.62c-1.61,6.38-4.67,11.21-9.91,15.64
					C293.26,229.31,293.08,229.37,292.91,229.37z"/>
			</g>
		</g>
	</g>
</g>
<g id="Guide">
</g>
</svg>
