<?xml version="1.0" encoding="utf-8"?>
<!-- Generator: Adobe Illustrator 26.1.0, SVG Export Plug-In . SVG Version: 6.00 Build 0)  -->
<svg version="1.1" xmlns="http://www.w3.org/2000/svg" xmlns:xlink="http://www.w3.org/1999/xlink" x="0px" y="0px"
	 viewBox="0 0 611.17 415.8" style="enable-background:new 0 0 611.17 415.8;" xml:space="preserve">
<style type="text/css">
	.st0{fill:#FFFFFF;}
	.st1{fill:#EAD9EB;}
	.st2{fill:#95608F;}
	.st3{fill:#ED859E;}
	.st4{fill:#FAC87D;}
	.st5{fill:#554B4E;}
	.st6{fill:#F8F4E9;}
	.st7{fill:#BFA071;}
	.st8{fill:#F2DED6;}
</style>
<g id="Bg">
</g>
<g id="Graphic">
	<g id="Full_Moon_00000017495018950918069370000007437262728578654117_">
		<g id="Big_moon_00000102507592012019855020000004206266478721091504_">
			<g>
				<circle class="st4" cx="305.58" cy="207.9" r="207.85"/>
			</g>
			<g>
				<g>
					<path class="st2" d="M175.58,110.32c-0.07,0-0.14-0.01-0.21-0.03c-0.79-0.24-1.53-0.57-2.19-0.99
						c-3.88-2.47-4.46-7.35-4.46-10.03c0-0.71,0.04-1.44,0.12-2.17c0.04-0.41,0.41-0.71,0.83-0.67c0.41,0.04,0.71,0.41,0.67,0.83
						c-0.07,0.67-0.11,1.35-0.11,2c0,2.38,0.49,6.68,3.77,8.77c0.54,0.35,1.15,0.62,1.81,0.82c0.4,0.12,0.62,0.54,0.51,0.93
						C176.2,110.11,175.9,110.32,175.58,110.32z M185.45,109.76c-0.34,0-0.64-0.23-0.73-0.57c-0.1-0.4,0.15-0.81,0.55-0.91
						c4.43-1.1,8.89-2.94,13.63-5.63c0.36-0.21,0.82-0.08,1.02,0.28c0.2,0.36,0.08,0.82-0.28,1.02c-4.87,2.76-9.45,4.65-14.01,5.78
						C185.57,109.76,185.51,109.76,185.45,109.76z M207.67,98.65c-0.23,0-0.46-0.11-0.61-0.31c-0.24-0.34-0.16-0.8,0.17-1.05
						c1.29-0.92,2.61-1.9,4.03-2.99c2.39-1.83,4.72-4.25,6.73-7c0.25-0.33,0.72-0.41,1.05-0.16c0.33,0.25,0.41,0.71,0.16,1.05
						c-2.1,2.86-4.53,5.39-7.03,7.3c-1.44,1.1-2.77,2.09-4.07,3.02C207.98,98.6,207.82,98.65,207.67,98.65z M171,91.76
						c-0.08,0-0.16-0.01-0.24-0.04c-0.39-0.13-0.6-0.56-0.47-0.95c1.43-4.28,3.77-8.98,6.76-13.58c0.23-0.35,0.69-0.45,1.04-0.22
						c0.35,0.23,0.45,0.69,0.22,1.04c-2.92,4.49-5.2,9.07-6.59,13.23C171.6,91.56,171.31,91.76,171,91.76z M223.47,79.78
						c-0.09,0-0.19-0.02-0.28-0.05c-0.38-0.15-0.57-0.59-0.42-0.97c1.35-3.39,2.07-6.75,2.07-9.7c0-1.61-0.21-3.11-0.62-4.46
						c-0.12-0.4,0.1-0.82,0.5-0.94c0.39-0.12,0.82,0.1,0.94,0.5c0.46,1.49,0.69,3.14,0.69,4.9c0,3.14-0.75,6.69-2.18,10.25
						C224.05,79.6,223.77,79.78,223.47,79.78z M183.68,70.36c-0.17,0-0.35-0.06-0.49-0.18c-0.31-0.27-0.35-0.74-0.08-1.06
						c3.6-4.16,7.5-7.67,11.28-10.15c0.35-0.23,0.81-0.13,1.04,0.22c0.23,0.35,0.13,0.81-0.22,1.04c-3.66,2.4-7.45,5.82-10.96,9.88
						C184.1,70.27,183.89,70.36,183.68,70.36z M218.59,57.8c-0.11,0-0.22-0.02-0.33-0.08c-2.5-1.21-5.7-1.83-9.49-1.83
						c-0.73,0-1.5,0.02-2.3,0.07c-0.79,0.05-1.6,0.16-2.42,0.33c-0.4,0.08-0.8-0.17-0.89-0.58s0.17-0.8,0.58-0.89
						c0.89-0.19,1.78-0.31,2.64-0.36c0.83-0.05,1.63-0.07,2.39-0.07c4.03,0,7.44,0.67,10.15,1.98c0.37,0.18,0.53,0.63,0.35,1
						C219.13,57.65,218.87,57.8,218.59,57.8z"/>
				</g>
				<g>
					<path class="st2" d="M259.64,42.79c-0.32,0-0.62-0.21-0.72-0.53c-0.12-0.4,0.1-0.82,0.5-0.94c7.29-2.25,13.42-3.98,19.29-5.44
						c0.4-0.1,0.81,0.14,0.91,0.55c0.1,0.4-0.14,0.81-0.55,0.91c-5.84,1.46-11.94,3.18-19.21,5.42
						C259.79,42.78,259.71,42.79,259.64,42.79z M357.64,37.98c-0.09,0-0.18-0.02-0.27-0.05c-5.97-2.28-12.42-3.96-19.16-4.99
						c-0.41-0.06-0.69-0.45-0.63-0.86s0.45-0.69,0.86-0.63c6.85,1.05,13.4,2.76,19.47,5.07c0.39,0.15,0.58,0.58,0.43,0.97
						C358.23,37.8,357.94,37.98,357.64,37.98z M298.48,33.37c-0.36,0-0.68-0.27-0.74-0.64c-0.06-0.41,0.22-0.79,0.63-0.85l0.67-0.1
						c6.62-0.97,13.12-1.52,19.34-1.62c0,0,0.01,0,0.01,0c0.41,0,0.74,0.33,0.75,0.74c0.01,0.41-0.32,0.76-0.74,0.76
						c-6.16,0.1-12.6,0.64-19.15,1.61l-0.66,0.1C298.55,33.37,298.51,33.37,298.48,33.37z"/>
				</g>
				<g>
					<path class="st2" d="M337.61,97.67c-0.17,0-0.33-0.05-0.47-0.17c-4.75-3.87-10.45-6.77-17.45-8.88
						c-0.4-0.12-0.62-0.54-0.5-0.93c0.12-0.4,0.54-0.62,0.93-0.5c7.18,2.17,13.06,5.16,17.96,9.15c0.32,0.26,0.37,0.73,0.11,1.06
						C338.05,97.57,337.83,97.67,337.61,97.67z M300.28,85c-0.03,0-0.05,0-0.08,0c-1.14-0.12-2.27-0.23-3.4-0.33
						c-5.46-0.49-11.01-0.85-16.5-1.07c-0.41-0.02-0.74-0.37-0.72-0.78c0.02-0.41,0.38-0.77,0.78-0.72
						c5.51,0.22,11.09,0.58,16.57,1.07c1.14,0.1,2.28,0.21,3.42,0.33c0.41,0.04,0.71,0.41,0.67,0.82
						C300.98,84.71,300.65,85,300.28,85z M245.53,84.03c-0.39,0-0.72-0.3-0.75-0.7c-0.03-0.41,0.29-0.77,0.7-0.8
						c4.92-0.32,9.91-0.53,14.84-0.63c0,0,0.01,0,0.02,0c0.41,0,0.74,0.33,0.75,0.73c0.01,0.41-0.32,0.76-0.73,0.77
						c-4.91,0.1-9.88,0.31-14.77,0.63C245.56,84.03,245.54,84.03,245.53,84.03z"/>
				</g>
				<g>
					<path class="st2" d="M285.82,173.48c-0.2,0-0.4-0.08-0.54-0.23c-4.57-4.83-9.15-9.77-13.62-14.67
						c-0.28-0.31-0.26-0.78,0.05-1.06c0.31-0.28,0.78-0.26,1.06,0.05c4.46,4.89,9.04,9.82,13.6,14.64c0.28,0.3,0.27,0.78-0.03,1.06
						C286.19,173.41,286,173.48,285.82,173.48z M258.87,143.92c-0.21,0-0.42-0.09-0.56-0.25c-4.38-4.99-8.78-10.09-13.07-15.16
						c-0.27-0.32-0.23-0.79,0.09-1.06s0.79-0.23,1.06,0.09c4.28,5.06,8.67,10.15,13.05,15.13c0.27,0.31,0.24,0.79-0.07,1.06
						C259.22,143.86,259.05,143.92,258.87,143.92z"/>
				</g>
				<g>
					<path class="st2" d="M213.7,251.23c-0.2,0-0.4-0.08-0.54-0.23c-4.38-4.58-8.06-10.05-11.26-16.71c-0.18-0.37-0.02-0.82,0.35-1
						c0.37-0.18,0.82-0.02,1,0.35c3.13,6.51,6.73,11.85,11,16.32c0.29,0.3,0.27,0.77-0.02,1.06
						C214.07,251.16,213.89,251.23,213.7,251.23z M195.65,215.97c-0.32,0-0.62-0.21-0.72-0.54c-0.64-2.18-1.29-4.56-1.99-7.26
						c-1.05-4.02-2.05-8.1-2.99-12.15c-0.09-0.4,0.16-0.81,0.56-0.9c0.4-0.1,0.81,0.16,0.9,0.56c0.94,4.03,1.94,8.1,2.98,12.11
						c0.7,2.69,1.35,5.05,1.98,7.23c0.12,0.4-0.11,0.81-0.51,0.93C195.79,215.96,195.72,215.97,195.65,215.97z M186.56,177.03
						c-0.35,0-0.67-0.25-0.74-0.61c-1.23-6.53-2.34-13.18-3.29-19.76c-0.06-0.41,0.22-0.79,0.63-0.85c0.41-0.05,0.79,0.22,0.85,0.63
						c0.95,6.56,2.05,13.18,3.28,19.7c0.08,0.41-0.19,0.8-0.6,0.88C186.65,177.03,186.6,177.03,186.56,177.03z"/>
				</g>
				<g>
					<path class="st2" d="M145.81,268.42c-0.27,0-0.52-0.14-0.66-0.39c-3.13-5.75-5.76-11.99-7.81-18.53
						c-0.12-0.4,0.1-0.82,0.49-0.94c0.4-0.13,0.82,0.1,0.94,0.49c2.02,6.45,4.61,12.6,7.7,18.27c0.2,0.36,0.06,0.82-0.3,1.02
						C146.06,268.39,145.93,268.42,145.81,268.42z M133.74,230.51c-0.37,0-0.69-0.27-0.74-0.65c-0.83-6.09-1.26-12.43-1.26-18.84
						c0-0.4,0-0.8,0-1.21c0-0.41,0.34-0.74,0.75-0.74c0,0,0,0,0.01,0c0.41,0,0.75,0.34,0.74,0.76c0,0.4,0,0.79,0,1.19
						c0,6.35,0.42,12.62,1.24,18.64c0.06,0.41-0.23,0.79-0.64,0.84C133.81,230.51,133.78,230.51,133.74,230.51z M133.96,190.64
						c-0.03,0-0.07,0-0.1-0.01c-0.41-0.06-0.7-0.43-0.64-0.84c0.9-6.57,2.22-13.2,3.92-19.7c0.1-0.4,0.51-0.64,0.92-0.54
						c0.4,0.1,0.64,0.51,0.54,0.92c-1.68,6.44-2.99,13.01-3.88,19.52C134.65,190.37,134.33,190.64,133.96,190.64z M144.06,152.02
						c-0.09,0-0.18-0.02-0.27-0.05c-0.39-0.15-0.58-0.59-0.42-0.97c2.49-6.33,5.35-12.45,8.5-18.19c0.2-0.36,0.65-0.5,1.02-0.3
						c0.36,0.2,0.5,0.66,0.3,1.02c-3.12,5.69-5.96,11.76-8.42,18.02C144.64,151.84,144.35,152.02,144.06,152.02z"/>
				</g>
				<g>
					<path class="st2" d="M471.54,262.35c-0.08,0-0.17-0.01-0.25-0.04c-0.39-0.14-0.59-0.57-0.45-0.96
						c2.71-7.59,4.57-13.44,6.04-18.99c0.11-0.4,0.52-0.64,0.92-0.53c0.4,0.11,0.64,0.52,0.53,0.92
						c-1.48,5.59-3.36,11.48-6.08,19.11C472.14,262.16,471.85,262.35,471.54,262.35z M481.26,223.66c-0.02,0-0.05,0-0.07,0
						c-0.41-0.04-0.71-0.41-0.67-0.82c0.09-0.96,0.17-1.92,0.24-2.89c0.19-2.78,0.29-5.6,0.29-8.38c0-2.86-0.1-5.75-0.3-8.58
						c-0.03-0.41,0.28-0.77,0.69-0.8c0.41-0.03,0.77,0.28,0.8,0.69c0.2,2.87,0.31,5.79,0.31,8.69c0,2.82-0.1,5.67-0.29,8.48
						c-0.07,0.98-0.15,1.96-0.24,2.94C481.96,223.37,481.64,223.66,481.26,223.66z M478.39,183.95c-0.34,0-0.64-0.23-0.73-0.57
						c-1.59-6.48-3.76-12.8-6.43-18.77c-0.17-0.38,0-0.82,0.38-0.99c0.38-0.17,0.82,0,0.99,0.38c2.71,6.05,4.9,12.45,6.52,19.02
						c0.1,0.4-0.15,0.81-0.55,0.91C478.51,183.94,478.45,183.95,478.39,183.95z"/>
				</g>
				<g>
					<path class="st2" d="M433.32,250.97c-0.37,0-0.69-0.28-0.74-0.65c-0.85-6.57-1.94-13.19-3.22-19.68
						c-0.08-0.41,0.18-0.8,0.59-0.88c0.4-0.08,0.8,0.18,0.88,0.59c1.29,6.52,2.38,13.18,3.24,19.78c0.05,0.41-0.24,0.79-0.65,0.84
						C433.39,250.97,433.35,250.97,433.32,250.97z"/>
				</g>
				<g>
					<path class="st2" d="M422.27,204.53c-0.28,0-0.55-0.16-0.68-0.43c-2.34-4.9-5.07-8.84-8.36-12.04c-0.3-0.29-0.3-0.76-0.01-1.06
						s0.76-0.3,1.06-0.01c3.42,3.33,6.25,7.41,8.66,12.47c0.18,0.37,0.02,0.82-0.35,1C422.49,204.5,422.38,204.53,422.27,204.53z"/>
				</g>
				<g>
					<path class="st2" d="M399.54,283.22c-0.18,0-0.37-0.07-0.51-0.2c-4.85-4.52-9.72-9.17-14.49-13.81
						c-0.3-0.29-0.3-0.76-0.01-1.06c0.29-0.3,0.76-0.3,1.06-0.01c4.76,4.64,9.62,9.28,14.46,13.79c0.3,0.28,0.32,0.76,0.04,1.06
						C399.94,283.14,399.74,283.22,399.54,283.22z"/>
				</g>
				<g>
					<path class="st2" d="M343.99,345.46c0,0-0.01,0-0.01,0c-6.98-0.13-13.72-0.65-20.02-1.54c-0.41-0.06-0.7-0.44-0.64-0.85
						c0.06-0.41,0.44-0.7,0.85-0.64c6.24,0.88,12.92,1.4,19.84,1.53c0.41,0.01,0.74,0.35,0.74,0.76
						C344.73,345.14,344.4,345.46,343.99,345.46z M363.97,344.84c-0.39,0-0.72-0.3-0.75-0.69c-0.03-0.41,0.28-0.77,0.69-0.81
						c6.2-0.48,12.47-1.24,18.65-2.24l1.13-0.19c0.4-0.07,0.79,0.21,0.86,0.62c0.07,0.41-0.21,0.79-0.62,0.86l-1.14,0.19
						c-6.21,1.01-12.53,1.77-18.77,2.26C364.01,344.84,363.99,344.84,363.97,344.84z M304.56,339.58c-0.08,0-0.15-0.01-0.23-0.04
						c-5.63-1.79-10.85-4-15.5-6.57c-0.97-0.53-1.92-1.07-2.87-1.62c-0.36-0.21-0.48-0.67-0.27-1.03c0.21-0.36,0.67-0.48,1.03-0.27
						c0.93,0.54,1.88,1.08,2.83,1.61c4.57,2.52,9.7,4.69,15.23,6.45c0.4,0.13,0.61,0.55,0.49,0.94
						C305.17,339.38,304.88,339.58,304.56,339.58z"/>
				</g>
				<g>
					<path class="st2" d="M297.99,381.5c-2.81,0-5.59-0.06-8.25-0.18c-0.41-0.02-0.73-0.37-0.71-0.78c0.02-0.41,0.36-0.75,0.78-0.71
						c6.23,0.28,13.01,0.23,19.92-0.16c0.41-0.03,0.77,0.29,0.79,0.71s-0.29,0.77-0.71,0.79C305.8,381.39,301.82,381.5,297.99,381.5
						z M329.67,379.18c-0.37,0-0.69-0.27-0.74-0.64c-0.06-0.41,0.23-0.79,0.64-0.85c6.89-0.98,13.48-2.22,19.58-3.7
						c0.4-0.09,0.81,0.15,0.9,0.55c0.1,0.4-0.15,0.81-0.55,0.91c-6.15,1.48-12.78,2.74-19.72,3.72
						C329.74,379.18,329.7,379.18,329.67,379.18z M269.93,379.03c-0.05,0-0.1,0-0.15-0.01c-7.49-1.5-13.91-3.68-19.08-6.47
						c-0.36-0.2-0.5-0.65-0.3-1.02c0.2-0.37,0.65-0.5,1.02-0.3c5.04,2.72,11.32,4.85,18.66,6.32c0.41,0.08,0.67,0.48,0.59,0.88
						C270.59,378.78,270.28,379.03,269.93,379.03z"/>
				</g>
			</g>
		</g>
		<g id="Small_moon_00000057848869363977724240000012066708253726583470_">
			<g>
				<g>
					<path class="st2" d="M561.88,232.41c-0.18,0-0.37-0.05-0.54-0.16c-13.64-8.74-29.89-17.71-48.32-26.67
						c-0.5-0.24-0.7-0.84-0.46-1.34c0.24-0.5,0.84-0.7,1.34-0.46c18.5,8.99,34.83,18,48.53,26.78c0.46,0.3,0.6,0.92,0.3,1.38
						C562.53,232.25,562.21,232.41,561.88,232.41z"/>
				</g>
				<g>
					<path class="st2" d="M521.86,317.06c-11.65,0-24.31-0.48-37.93-1.45c-10.04-0.72-20.08-1.65-30.67-2.85
						c-0.55-0.06-0.94-0.56-0.88-1.11s0.56-0.95,1.11-0.88c10.57,1.2,20.57,2.13,30.59,2.85c73.54,5.24,118.93-3.69,124.51-24.53
						c3.25-12.15-7.42-27.88-30.86-45.5c-0.44-0.33-0.53-0.96-0.2-1.4c0.33-0.44,0.96-0.53,1.4-0.2
						c24.49,18.41,35.12,34.43,31.59,47.61C605.73,307.47,574.02,317.06,521.86,317.06z"/>
				</g>
				<g>
					<path class="st2" d="M428.72,309.62c-0.05,0-0.09,0-0.14-0.01c-44.36-6.28-93.58-16.5-142.33-29.56
						c-70.41-18.87-137.53-43.03-188.98-68.04c-15.27-7.42-29.13-14.89-41.18-22.21c-0.47-0.29-0.62-0.9-0.34-1.37
						c0.29-0.47,0.9-0.62,1.37-0.34c12,7.28,25.8,14.72,41.02,22.12c51.34,24.95,118.33,49.07,188.63,67.9
						c48.68,13.04,97.81,23.25,142.09,29.52c0.55,0.08,0.93,0.58,0.85,1.13C429.64,309.26,429.21,309.62,428.72,309.62z"/>
				</g>
				<g>
					<path class="st2" d="M41.35,180.13c-0.2,0-0.39-0.06-0.57-0.18c-21.01-14.44-45.04-35.49-40.14-53.76
						c5.85-21.85,51.99-31.33,126.59-26.01c0.55,0.04,0.97,0.52,0.93,1.07s-0.52,0.97-1.07,0.93
						C53.54,96.94,8.16,105.87,2.57,126.71c-3.64,13.57,9.97,31.41,39.34,51.59c0.46,0.31,0.57,0.94,0.26,1.39
						C41.98,179.98,41.67,180.13,41.35,180.13z"/>
				</g>
			</g>
			<g>
				<g>
					<path class="st2" d="M55.48,188.17c3.05-5.3,2.83-11.58-0.02-16.53c-5.71,0.01-11.25,2.97-14.31,8.27
						c-3.05,5.3-2.83,11.58,0.02,16.53C46.88,196.43,52.43,193.47,55.48,188.17z"/>
					<path class="st2" d="M41.18,197.19c-0.27,0-0.52-0.14-0.65-0.38c-3.08-5.34-3.09-11.96-0.02-17.27
						c3.06-5.32,8.79-8.63,14.95-8.65c0,0,0,0,0,0c0.27,0,0.52,0.14,0.65,0.38c3.08,5.34,3.09,11.96,0.02,17.27l-0.65-0.37
						l0.65,0.37C53.07,193.86,47.34,197.18,41.18,197.19C41.18,197.19,41.18,197.19,41.18,197.19z M55.02,172.4
						c-5.46,0.17-10.5,3.16-13.22,7.89c-2.72,4.73-2.79,10.59-0.19,15.39c5.46-0.17,10.5-3.16,13.22-7.89l0,0
						C57.56,183.07,57.62,177.21,55.02,172.4z"/>
				</g>
				<g>
					<path class="st2" d="M559.75,237.25c3.05-5.3,8.6-8.26,14.31-8.27c2.55-0.01,5.13,0.57,7.54,1.8
						c-0.49-5.16-3.37-10.01-8.2-12.79c-2.61-1.51-5.47-2.2-8.28-2.19c-5.71,0.01-11.25,2.97-14.31,8.27s-2.83,11.58,0.02,16.53
						c1.41,2.44,3.44,4.55,6.05,6.06c0.24,0.14,0.49,0.25,0.74,0.38C557.31,243.74,557.97,240.33,559.75,237.25z"/>
					<path class="st2" d="M557.63,247.78c-0.12,0-0.23-0.03-0.34-0.08l-0.24-0.12c-0.18-0.09-0.36-0.17-0.53-0.28
						c-2.62-1.51-4.81-3.7-6.33-6.34c-3.08-5.34-3.09-11.96-0.02-17.27c3.06-5.32,8.79-8.63,14.95-8.65c0.01,0,0.03,0,0.04,0
						c3.03,0,6,0.79,8.61,2.29c4.84,2.79,8.04,7.79,8.57,13.37c0.03,0.27-0.1,0.54-0.33,0.69s-0.52,0.17-0.76,0.05
						c-2.24-1.14-4.65-1.72-7.16-1.72c-0.01,0-0.03,0-0.04,0c-5.63,0.01-10.86,3.04-13.66,7.89l0,0c-1.64,2.84-2.34,6.07-2.03,9.34
						c0.03,0.27-0.1,0.54-0.33,0.69C557.92,247.73,557.77,247.78,557.63,247.78z M565.16,216.55c-0.01,0-0.03,0-0.04,0
						c-5.63,0.01-10.86,3.04-13.66,7.89c-2.8,4.86-2.79,10.9,0.02,15.78c1.3,2.25,3.13,4.15,5.31,5.51
						c-0.05-3.11,0.73-6.14,2.3-8.85l0,0c3.06-5.32,8.79-8.63,14.95-8.65c0.01,0,0.03,0,0.04,0c2.29,0,4.49,0.44,6.58,1.3
						c-0.82-4.56-3.61-8.56-7.64-10.89C570.64,217.27,567.93,216.55,565.16,216.55z"/>
				</g>
				<g>
					<path class="st3" d="M579.47,240.58c1.78-3.09,2.43-6.5,2.12-9.8c-2.41-1.23-4.99-1.81-7.54-1.8
						c-5.71,0.01-11.25,2.97-14.31,8.27c-1.77,3.08-2.43,6.49-2.12,9.78C565.42,251.02,575.06,248.25,579.47,240.58z"/>
					<path class="st3" d="M565.16,249.6c-2.66,0-5.35-0.61-7.88-1.91c-0.23-0.12-0.38-0.34-0.4-0.6c-0.34-3.58,0.43-7.12,2.22-10.23
						c3.06-5.32,8.79-8.63,14.95-8.65c2.76,0,5.42,0.63,7.89,1.89c0.23,0.12,0.38,0.34,0.41,0.6c0.34,3.59-0.43,7.13-2.22,10.24
						C576.94,246.48,571.15,249.6,565.16,249.6z M558.34,246.55c7.42,3.56,16.36,0.83,20.49-6.34l0.65,0.37l-0.65-0.37
						c1.57-2.72,2.28-5.8,2.06-8.94c-2.13-1.02-4.41-1.54-6.79-1.54c-0.01,0-0.03,0-0.04,0c-5.63,0.01-10.86,3.04-13.66,7.89
						C558.83,240.34,558.12,243.42,558.34,246.55z"/>
				</g>
				<g>
					<path class="st2" d="M438,321.35c-2.61-1.51-4.65-3.62-6.05-6.06c-2.85-4.94-3.08-11.22-0.02-16.53
						c1.34-2.32,3.15-4.19,5.24-5.56c-0.2-0.01-0.4-0.02-0.6-0.02c-5.71,0.01-11.25,2.97-14.31,8.27
						c-3.05,5.3-2.83,11.58,0.02,16.53c1.41,2.44,3.44,4.55,6.05,6.06c5.58,3.22,12.25,2.8,17.3-0.5
						C443.04,323.45,440.42,322.74,438,321.35z"/>
					<path class="st2" d="M436.57,327.01c-2.96,0-5.93-0.77-8.61-2.31c-2.62-1.51-4.81-3.7-6.33-6.33
						c-3.08-5.34-3.09-11.96-0.02-17.27c3.06-5.32,8.79-8.63,14.95-8.65c0.16,0,0.32,0.01,0.47,0.01l0.16,0.01
						c0.33,0.01,0.61,0.23,0.7,0.55c0.09,0.31-0.04,0.65-0.31,0.83c-2.07,1.36-3.76,3.15-5,5.31c-2.8,4.86-2.79,10.9,0.02,15.78
						c1.39,2.41,3.39,4.41,5.78,5.79c0,0,0,0,0,0c2.24,1.29,4.7,2,7.29,2.09c0.33,0.01,0.61,0.23,0.7,0.55
						c0.09,0.32-0.04,0.65-0.31,0.83C443.16,326.06,439.87,327.01,436.57,327.01z M434.84,294.04c-4.95,0.56-9.42,3.44-11.93,7.8
						c-2.8,4.86-2.79,10.9,0.02,15.78c1.39,2.41,3.39,4.41,5.78,5.78c4.5,2.59,9.88,2.79,14.5,0.64c-1.96-0.35-3.86-1.04-5.58-2.03
						c-2.62-1.51-4.81-3.7-6.33-6.33c-3.08-5.34-3.09-11.96-0.02-17.27C432.23,296.73,433.43,295.28,434.84,294.04z"/>
				</g>
				<g>
					<path class="st3" d="M444.84,295.39c-2.43-1.4-5.06-2.09-7.67-2.18c-2.09,1.37-3.91,3.24-5.24,5.56
						c-3.05,5.3-2.83,11.58,0.02,16.53c1.41,2.44,3.44,4.55,6.05,6.06c2.41,1.39,5.03,2.1,7.63,2.19c2.11-1.38,3.94-3.24,5.28-5.57
						C455.48,310.06,452.76,299.94,444.84,295.39z"/>
					<path class="st3" d="M445.64,324.29c-0.01,0-0.02,0-0.03,0c-2.8-0.1-5.56-0.89-7.98-2.29c-2.62-1.51-4.81-3.7-6.33-6.33
						c-3.08-5.34-3.09-11.96-0.02-17.27c1.36-2.37,3.21-4.32,5.48-5.81c0.13-0.08,0.28-0.12,0.44-0.12c2.87,0.1,5.57,0.86,8.02,2.28
						c4,2.3,6.87,6.03,8.07,10.49s0.59,9.12-1.71,13.12c-1.36,2.36-3.22,4.32-5.52,5.83C445.93,324.25,445.78,324.29,445.64,324.29z
						 M437.38,293.97c-1.98,1.34-3.6,3.08-4.8,5.18c-2.8,4.86-2.79,10.9,0.02,15.78c1.39,2.41,3.39,4.41,5.78,5.79
						c2.18,1.25,4.55,1.95,7.05,2.08c2.01-1.36,3.64-3.1,4.84-5.19c2.1-3.65,2.66-7.91,1.56-11.98c-1.1-4.07-3.71-7.47-7.37-9.58
						c0,0,0,0,0,0C442.3,294.78,439.91,294.09,437.38,293.97z"/>
				</g>
				<g>
					<path class="st3" d="M63.74,173.84c-2.61-1.51-5.47-2.2-8.28-2.19c2.85,4.94,3.08,11.22,0.02,16.53
						c-3.05,5.3-8.6,8.26-14.31,8.27c1.41,2.44,3.44,4.55,6.05,6.06c7.91,4.56,18.03,1.84,22.59-6.08S71.65,178.4,63.74,173.84z"/>
					<path class="st3" d="M55.46,205.47c-2.99,0-5.94-0.78-8.6-2.31c-2.62-1.51-4.81-3.7-6.33-6.33c-0.13-0.23-0.13-0.52,0-0.75
						c0.13-0.23,0.38-0.38,0.65-0.38c5.63-0.01,10.86-3.04,13.66-7.9c2.8-4.86,2.79-10.9-0.02-15.78c-0.13-0.23-0.13-0.52,0-0.75
						c0.14-0.25,0.41-0.39,0.69-0.38c3.03,0,6.01,0.79,8.61,2.29c4,2.3,6.87,6.03,8.07,10.49s0.59,9.12-1.71,13.12
						c-2.3,4-6.03,6.87-10.49,8.07C58.48,205.27,56.96,205.47,55.46,205.47z M42.5,197.14c1.33,1.93,3.07,3.55,5.1,4.71
						c3.65,2.11,7.91,2.66,11.98,1.57c4.07-1.1,7.47-3.71,9.58-7.37c2.1-3.65,2.66-7.91,1.56-11.98c-1.1-4.07-3.71-7.47-7.37-9.58
						c0,0,0,0,0,0c-2.03-1.17-4.3-1.87-6.64-2.05c2.45,5.11,2.25,11.17-0.59,16.1C53.29,193.48,48.15,196.69,42.5,197.14z"/>
				</g>
			</g>
		</g>
	</g>
</g>
<g id="Guide">
</g>
</svg>
