<?xml version="1.0" encoding="utf-8"?>
<!-- Generator: Adobe Illustrator 26.1.0, SVG Export Plug-In . SVG Version: 6.00 Build 0)  -->
<svg version="1.1" xmlns="http://www.w3.org/2000/svg" xmlns:xlink="http://www.w3.org/1999/xlink" x="0px" y="0px"
	 viewBox="0 0 252.68 223.99" style="enable-background:new 0 0 252.68 223.99;" xml:space="preserve">
<style type="text/css">
	.st0{fill:#FFFFFF;}
	.st1{fill:#EAD9EB;}
	.st2{fill:#95608F;}
	.st3{fill:#ED859E;}
	.st4{fill:#FAC87D;}
	.st5{fill:#554B4E;}
	.st6{fill:#F8F4E9;}
	.st7{fill:#BFA071;}
	.st8{fill:#F2DED6;}
</style>
<g id="Bg">
</g>
<g id="Graphic">
	<g id="Constellation_2_00000158739326585040384340000003804542637839201461_">
		<g id="Line_00000084498671257509579370000015973249681012780416_">
			<g>
				<path class="st2" d="M80.26,40.8c-0.09,0-0.18-0.02-0.27-0.05L15.62,16.33c-0.39-0.15-0.58-0.58-0.44-0.97
					c0.15-0.39,0.58-0.58,0.97-0.44l64.38,24.42c0.39,0.15,0.58,0.58,0.44,0.97C80.85,40.61,80.56,40.8,80.26,40.8z"/>
			</g>
			<g>
				<path class="st2" d="M112.84,115.99c-0.33,0-0.64-0.22-0.72-0.56L96.65,55.91c-0.1-0.4,0.14-0.81,0.54-0.91
					c0.4-0.11,0.81,0.14,0.91,0.54l15.47,59.52c0.1,0.4-0.14,0.81-0.54,0.91C112.97,115.98,112.9,115.99,112.84,115.99z"/>
			</g>
			<g>
				<path class="st2" d="M156.54,162.93c-0.19,0-0.39-0.08-0.53-0.22l-40.07-40.7c-0.29-0.29-0.29-0.77,0.01-1.06
					c0.29-0.29,0.77-0.29,1.06,0.01l40.07,40.7c0.29,0.29,0.29,0.77-0.01,1.06C156.92,162.86,156.74,162.93,156.54,162.93z"/>
			</g>
			<g>
				<path class="st2" d="M225.53,198.46c-0.11,0-0.21-0.02-0.32-0.07l-64.27-30.05c-0.38-0.18-0.54-0.62-0.36-1
					c0.18-0.37,0.62-0.54,1-0.36l64.27,30.05c0.38,0.18,0.54,0.62,0.36,1C226.08,198.3,225.81,198.46,225.53,198.46z"/>
			</g>
		</g>
		<g id="Star_00000171687254596219472980000014771102971742357897_">
			<g>
				<path class="st2" d="M101.01,51.75c5.19-3.97,13.75-5.57,28.18-7.54c-14.54-0.7-23.21-1.54-28.73-5.05
					c1.69-3.8,4.88-8.27,9.54-14.4c-5.7,5.18-9.87,8.75-13.51,10.76c-3.97-5.19-5.57-13.75-7.54-28.18
					c-0.7,14.54-1.54,23.21-5.05,28.73c-3.8-1.69-8.27-4.88-14.4-9.54c5.18,5.7,8.75,9.87,10.76,13.51
					c-5.19,3.97-13.75,5.57-28.18,7.54c14.54,0.7,23.21,1.54,28.73,5.05c-1.69,3.8-4.88,8.27-9.54,14.4
					c5.7-5.18,9.87-8.75,13.51-10.76c3.97,5.19,5.57,13.75,7.54,28.18c0.7-14.54,1.54-23.21,5.05-28.73
					c3.8,1.69,8.27,4.88,14.4,9.54C106.6,59.56,103.03,55.39,101.01,51.75z"/>
				<path class="st2" d="M92.33,85.45c-0.5,0-0.92-0.37-0.99-0.87c-1.94-14.22-3.5-22.11-6.83-27c-3.3,1.98-7.17,5.29-12.56,10.18
					c-0.38,0.35-0.97,0.35-1.35,0s-0.43-0.93-0.12-1.34c4.4-5.79,7.36-9.94,9.05-13.4c-5.16-2.89-13.16-3.75-27.49-4.44
					c-0.52-0.03-0.93-0.44-0.95-0.96c-0.02-0.52,0.35-0.96,0.86-1.04c14.22-1.94,22.11-3.5,27-6.83c-1.98-3.3-5.29-7.17-10.18-12.56
					c-0.35-0.38-0.35-0.97,0-1.35c0.35-0.38,0.93-0.43,1.34-0.12c5.79,4.4,9.94,7.36,13.4,9.05c2.89-5.16,3.75-13.16,4.44-27.49
					c0.03-0.52,0.44-0.93,0.96-0.95c0.51-0.03,0.96,0.35,1.04,0.86c1.94,14.22,3.5,22.11,6.83,27c3.3-1.98,7.17-5.29,12.56-10.18
					c0.38-0.35,0.97-0.35,1.35,0c0.38,0.35,0.43,0.93,0.12,1.34c-4.4,5.79-7.36,9.93-9.05,13.4c5.16,2.89,13.16,3.76,27.49,4.44
					c0.52,0.03,0.93,0.44,0.95,0.96s-0.35,0.96-0.86,1.04c-14.22,1.94-22.11,3.5-27,6.83c1.99,3.3,5.29,7.17,10.18,12.56
					c0.35,0.38,0.35,0.97,0,1.35c-0.35,0.38-0.93,0.44-1.34,0.12c-5.8-4.4-9.94-7.36-13.4-9.05c-2.89,5.16-3.75,13.16-4.44,27.49
					c-0.03,0.52-0.44,0.93-0.96,0.95C92.36,85.45,92.34,85.45,92.33,85.45z M84.79,55.28c0.3,0,0.6,0.14,0.8,0.39
					c3.05,3.99,4.75,9.75,6.32,19.16c0.74-9.51,1.94-15.4,4.62-19.63c0.27-0.42,0.8-0.58,1.25-0.38c2.13,0.95,4.46,2.35,7.22,4.25
					c-2.13-2.58-3.73-4.78-4.86-6.83c-0.24-0.43-0.13-0.98,0.27-1.28c3.99-3.05,9.75-4.75,19.16-6.32
					c-9.51-0.74-15.4-1.94-19.63-4.62c-0.42-0.27-0.58-0.8-0.38-1.25c0.95-2.14,2.35-4.47,4.25-7.22c-2.58,2.13-4.78,3.73-6.82,4.86
					c-0.44,0.24-0.98,0.12-1.28-0.27c-3.05-3.99-4.75-9.75-6.32-19.16c-0.74,9.51-1.94,15.4-4.62,19.63
					c-0.26,0.42-0.8,0.58-1.25,0.38c-2.13-0.95-4.47-2.35-7.23-4.25c2.14,2.58,3.73,4.78,4.86,6.83c0.24,0.43,0.13,0.98-0.27,1.28
					c-3.99,3.05-9.75,4.75-19.16,6.32c9.51,0.74,15.4,1.94,19.63,4.62c0.42,0.27,0.58,0.8,0.38,1.25c-0.95,2.13-2.35,4.47-4.25,7.22
					c2.58-2.14,4.78-3.73,6.83-4.86C84.46,55.32,84.62,55.28,84.79,55.28z"/>
			</g>
			<g>
				<circle class="st4" cx="9.65" cy="9.65" r="8.65"/>
				<path class="st4" d="M9.64,19.3c-2.42,0-4.71-0.89-6.5-2.53c-1.9-1.74-3.01-4.12-3.12-6.69C-0.1,7.5,0.79,5.03,2.53,3.13
					c1.74-1.9,4.12-3.01,6.69-3.12c2.58-0.1,5.04,0.78,6.94,2.52c1.9,1.74,3.01,4.12,3.12,6.69c0.23,5.31-3.9,9.83-9.22,10.06
					C9.92,19.29,9.78,19.3,9.64,19.3z M9.66,2C9.54,2,9.43,2,9.31,2.01C7.27,2.1,5.39,2.98,4.01,4.48c-1.38,1.51-2.09,3.46-2,5.5
					c0.09,2.04,0.97,3.92,2.47,5.3c1.51,1.38,3.47,2.09,5.5,2c4.21-0.18,7.49-3.76,7.31-7.97c-0.09-2.04-0.97-3.92-2.47-5.3
					C13.39,2.71,11.57,2,9.66,2z"/>
			</g>
			<g>
				<circle class="st4" cx="159.01" cy="164.83" r="3.62"/>
				<path class="st4" d="M159.01,169.45c-1.16,0-2.26-0.43-3.12-1.21c-0.91-0.83-1.44-1.97-1.5-3.21s0.38-2.41,1.21-3.32
					s1.97-1.44,3.21-1.5c2.56-0.1,4.71,1.87,4.82,4.41l0,0c0.11,2.55-1.87,4.71-4.41,4.82
					C159.15,169.45,159.08,169.45,159.01,169.45z M159.02,162.21c-0.04,0-0.08,0-0.12,0c-0.7,0.03-1.35,0.33-1.82,0.85
					c-0.47,0.52-0.72,1.19-0.69,1.88c0.06,1.44,1.28,2.57,2.73,2.5c1.44-0.06,2.57-1.29,2.5-2.73l0,0
					C161.57,163.31,160.41,162.21,159.02,162.21z"/>
			</g>
			<g>
				<circle class="st4" cx="113.87" cy="118.97" r="3.62"/>
				<path class="st4" d="M113.87,123.59c-1.16,0-2.26-0.43-3.12-1.21c-0.91-0.83-1.44-1.97-1.5-3.21c-0.05-1.23,0.38-2.41,1.21-3.32
					s1.97-1.44,3.21-1.5c2.56-0.12,4.71,1.87,4.82,4.41l0,0c0.11,2.55-1.87,4.71-4.41,4.82C114,123.59,113.94,123.59,113.87,123.59z
					 M113.87,116.35c-0.04,0-0.08,0-0.12,0c-0.7,0.03-1.35,0.33-1.82,0.85c-0.47,0.52-0.72,1.19-0.69,1.88
					c0.03,0.7,0.33,1.35,0.85,1.82c0.52,0.47,1.19,0.71,1.89,0.69c1.44-0.06,2.57-1.29,2.5-2.73l0,0
					C116.43,117.45,115.27,116.35,113.87,116.35z"/>
			</g>
			<g>
				<path class="st3" d="M251.68,200.77c-18.17,2.48-19.47,3.9-20.35,22.22c-2.48-18.17-3.9-19.47-22.22-20.35
					c18.17-2.48,19.47-3.9,20.35-22.22C231.94,198.59,233.37,199.89,251.68,200.77z"/>
				<path class="st3" d="M231.33,223.99c-0.5,0-0.92-0.37-0.99-0.87c-2.42-17.72-3.41-18.63-21.27-19.49
					c-0.52-0.03-0.93-0.44-0.95-0.96s0.35-0.96,0.86-1.04c17.72-2.42,18.63-3.41,19.49-21.27c0.03-0.52,0.44-0.93,0.96-0.95
					c0.53-0.04,0.96,0.35,1.04,0.86c2.42,17.72,3.41,18.63,21.27,19.49c0.52,0.03,0.93,0.44,0.95,0.96s-0.35,0.96-0.86,1.04
					c-17.72,2.42-18.63,3.41-19.49,21.27c-0.03,0.52-0.44,0.93-0.96,0.95C231.36,223.99,231.34,223.99,231.33,223.99z M217.6,202.27
					c8.72,1.07,11.53,3.65,13.36,12.24c1.07-8.72,3.65-11.53,12.24-13.36c-8.72-1.07-11.53-3.65-13.36-12.24
					C228.77,197.63,226.19,200.44,217.6,202.27z"/>
			</g>
		</g>
	</g>
</g>
<g id="Guide">
</g>
</svg>
