<?xml version="1.0" encoding="utf-8"?>
<!-- Generator: Adobe Illustrator 26.1.0, SVG Export Plug-In . SVG Version: 6.00 Build 0)  -->
<svg version="1.1" xmlns="http://www.w3.org/2000/svg" xmlns:xlink="http://www.w3.org/1999/xlink" x="0px" y="0px"
	 viewBox="0 0 169.83 201.89" style="enable-background:new 0 0 169.83 201.89;" xml:space="preserve">
<style type="text/css">
	.st0{fill:#FFFFFF;}
	.st1{fill:#EAD9EB;}
	.st2{fill:#95608F;}
	.st3{fill:#ED859E;}
	.st4{fill:#FAC87D;}
	.st5{fill:#554B4E;}
	.st6{fill:#F8F4E9;}
	.st7{fill:#BFA071;}
	.st8{fill:#F2DED6;}
</style>
<g id="Bg">
</g>
<g id="Graphic">
	<g id="Small_crescent_00000071527234415893891830000005618809080822085023_">
		<g id="Crescent_00000038413250845645025300000007801484385092660398_">
			<path class="st4" d="M109.6,1.39C74.71,9.4,46.25,37.53,39.65,75.01c-8.81,49.97,24.55,97.62,74.52,106.43
				c19.26,3.4,38.18,0.52,54.66-7.15c-22.14,20.46-53.25,30.71-85.23,25.07C29.24,189.77-7.05,137.94,2.53,83.59
				C11.61,32.15,58.52-3.11,109.6,1.39z"/>
			<path class="st4" d="M101.23,201.91c-5.9,0-11.86-0.52-17.81-1.57c-26.55-4.68-49.69-19.42-65.15-41.51s-21.4-48.87-16.72-75.42
				c4.41-25.03,17.96-47.3,38.16-62.7C59.78,5.4,84.63-1.82,109.69,0.39c0.49,0.04,0.88,0.44,0.91,0.93
				c0.03,0.49-0.29,0.93-0.77,1.04c-35.68,8.19-62.84,36.77-69.2,72.82c-8.7,49.35,24.37,96.57,73.71,105.27
				c18.44,3.25,37.14,0.81,54.06-7.08c0.45-0.21,0.98-0.06,1.25,0.35c0.27,0.41,0.21,0.96-0.15,1.29
				C150.56,192.53,126.38,201.91,101.23,201.91z M100.84,2c-21.56,0-42.56,7.07-59.92,20.3C21.13,37.4,7.85,59.23,3.52,83.76
				c-4.59,26.02,1.23,52.28,16.39,73.93c15.16,21.65,37.84,36.1,63.86,40.69c28.62,5.05,57.29-2.48,79.62-20.69
				c-15.7,6.05-32.65,7.7-49.4,4.74c-50.43-8.89-84.23-57.16-75.33-107.59c6.13-34.76,31.18-62.72,64.61-72.8
				C102.46,2.01,101.65,2,100.84,2z"/>
		</g>
		<g id="Sparkling_stars_00000127046478440176712400000017337371115387611791_">
			<g id="Line_00000014603965697851334350000012325303045462882725_">
				<g>
					<path class="st3" d="M109.6,22.14c-0.41,0-0.75-0.34-0.75-0.75v-20c0-0.41,0.34-0.75,0.75-0.75s0.75,0.34,0.75,0.75v20
						C110.35,21.8,110.02,22.14,109.6,22.14z"/>
				</g>
				<g>
					<path class="st3" d="M95.13,60.28c-0.41,0-0.75-0.34-0.75-0.75V46.74c0-0.41,0.34-0.75,0.75-0.75s0.75,0.34,0.75,0.75v12.79
						C95.88,59.94,95.55,60.28,95.13,60.28z M95.13,27.49c-0.41,0-0.75-0.34-0.75-0.75v-20c0-0.41,0.34-0.75,0.75-0.75
						s0.75,0.34,0.75,0.75v20C95.88,27.15,95.55,27.49,95.13,27.49z"/>
				</g>
				<g>
					<path class="st3" d="M71.49,40.98c-0.41,0-0.75-0.34-0.75-0.75v-20c0-0.41,0.34-0.75,0.75-0.75s0.75,0.34,0.75,0.75v20
						C72.24,40.65,71.9,40.98,71.49,40.98z"/>
				</g>
			</g>
			<g id="Star_00000091724212314667287620000007377523400257679238_">
				<g>
					<polygon class="st2" points="116.42,40.2 109.6,30.07 102.78,40.2 109.6,50.34 					"/>
					<path class="st2" d="M109.6,51.34c-0.33,0-0.64-0.17-0.83-0.44l-6.82-10.13c-0.23-0.34-0.23-0.78,0-1.12l6.82-10.13
						c0.19-0.28,0.5-0.44,0.83-0.44l0,0c0.33,0,0.64,0.17,0.83,0.44l6.82,10.13c0.23,0.34,0.23,0.78,0,1.12l-6.82,10.13
						C110.25,51.17,109.94,51.34,109.6,51.34z M103.99,40.2l5.62,8.34l5.61-8.34l-5.61-8.34L103.99,40.2z"/>
				</g>
				<g>
					<polygon class="st2" points="81.48,55.92 71.49,41.08 61.5,55.92 71.49,70.75 					"/>
					<path class="st2" d="M71.49,71.75L71.49,71.75c-0.33,0-0.64-0.17-0.83-0.44l-9.99-14.84c-0.23-0.34-0.23-0.78,0-1.12
						l9.99-14.84c0.37-0.55,1.29-0.55,1.66,0l9.99,14.84c0.23,0.34,0.23,0.78,0,1.12l-9.99,14.84
						C72.13,71.59,71.82,71.75,71.49,71.75z M62.71,55.92l8.78,13.04l8.78-13.04l-8.78-13.04L62.71,55.92z"/>
				</g>
				<g>
					<polygon class="st1" points="75.9,55.92 71.49,49.37 67.08,55.92 71.49,62.46 					"/>
					<path class="st1" d="M71.49,63.21L71.49,63.21c-0.25,0-0.48-0.12-0.62-0.33l-4.41-6.55c-0.17-0.25-0.17-0.58,0-0.84l4.41-6.55
						c0.28-0.41,0.96-0.41,1.24,0l4.41,6.55c0.17,0.25,0.17,0.58,0,0.84l-4.41,6.55C71.97,63.09,71.74,63.21,71.49,63.21z
						 M67.99,55.92l3.5,5.21l3.5-5.21l-3.5-5.21L67.99,55.92z"/>
				</g>
				<g>
					<polygon class="st3" points="111.61,84.01 95.13,59.53 78.66,84.01 95.13,108.48 					"/>
					<path class="st3" d="M95.13,109.48c-0.33,0-0.64-0.17-0.83-0.44L77.83,84.57c-0.23-0.34-0.23-0.78,0-1.12L94.3,58.97
						c0.37-0.55,1.29-0.55,1.66,0l16.47,24.48c0.23,0.34,0.23,0.78,0,1.12l-16.47,24.48C95.78,109.32,95.47,109.48,95.13,109.48z
						 M79.86,84.01l15.27,22.68l15.27-22.68L95.13,61.32L79.86,84.01z"/>
				</g>
				<g>
					<polygon class="st1" points="103.3,84.01 95.13,71.88 86.97,84.01 95.13,96.14 					"/>
					<path class="st1" d="M95.13,96.89c-0.25,0-0.48-0.12-0.62-0.33l-8.17-12.13c-0.17-0.25-0.17-0.58,0-0.84l8.17-12.13
						c0.28-0.41,0.96-0.41,1.24,0l8.17,12.13c0.17,0.25,0.17,0.58,0,0.84l-8.17,12.13C95.61,96.76,95.38,96.89,95.13,96.89z
						 M87.87,84.01l7.26,10.79l7.26-10.79l-7.26-10.79L87.87,84.01z"/>
				</g>
			</g>
		</g>
	</g>
</g>
<g id="Guide">
</g>
</svg>
