<?xml version="1.0" encoding="utf-8"?>
<!-- Generator: Adobe Illustrator 26.1.0, SVG Export Plug-In . SVG Version: 6.00 Build 0)  -->
<svg version="1.1" xmlns="http://www.w3.org/2000/svg" xmlns:xlink="http://www.w3.org/1999/xlink" x="0px" y="0px"
	 viewBox="0 0 275.54 275.54" style="enable-background:new 0 0 275.54 275.54;" xml:space="preserve">
<style type="text/css">
	.st0{fill:#FFFFFF;}
	.st1{fill:#EAD9EB;}
	.st2{fill:#95608F;}
	.st3{fill:#ED859E;}
	.st4{fill:#FAC87D;}
	.st5{fill:#554B4E;}
	.st6{fill:#F8F4E9;}
	.st7{fill:#BFA071;}
	.st8{fill:#F2DED6;}
</style>
<g id="Bg">
</g>
<g id="Graphic">
	<g id="Small_sun_00000057853392855812885670000018091488871793841307_">
		<g id="Shine_00000123417513174864413270000009093529286574107561_">
			<g>
				<path class="st3" d="M147.72,68.4c-0.29-0.78-0.56-1.54-0.79-2.31c-3.33-11.27,4.5-17.16,4.08-28.48
					c-0.32-8.89-7.36-20.56-16.07-24.81c3.58,7.92,6.35,17.59,1.66,24.91c-2.63,4.09-7,6.67-9.65,10.72
					c-4.01,6.12-1.66,13.43,0.42,20.05c3.41-0.51,6.9-0.78,10.45-0.78C141.18,67.7,144.49,67.94,147.72,68.4z"/>
				<path class="st3" d="M127.37,69.48c-0.43,0-0.82-0.28-0.95-0.7l-0.05-0.17c-2.1-6.68-4.48-14.26-0.25-20.72
					c1.38-2.1,3.18-3.82,4.93-5.47c1.78-1.69,3.45-3.28,4.71-5.24c3.6-5.6,3.03-13.44-1.73-23.96c-0.17-0.38-0.09-0.84,0.21-1.13
					c0.3-0.29,0.76-0.37,1.13-0.18c8.66,4.22,16.28,15.98,16.63,25.67c0.19,5.15-1.24,9.15-2.62,13.02
					c-1.69,4.73-3.28,9.19-1.5,15.22c0.2,0.67,0.44,1.38,0.77,2.23c0.13,0.33,0.07,0.7-0.15,0.98s-0.57,0.42-0.92,0.37
					c-6.68-0.95-13.46-0.91-20.06,0.08C127.47,69.47,127.42,69.48,127.37,69.48z M137.06,15.2c3.92,9.8,4.04,17.36,0.39,23.04
					c-1.39,2.17-3.24,3.92-5.02,5.61c-1.74,1.65-3.38,3.21-4.63,5.12c-3.59,5.49-1.71,12.02,0.28,18.39
					c5.99-0.82,12.09-0.89,18.16-0.17c-0.09-0.28-0.18-0.55-0.26-0.82c-1.96-6.65-0.19-11.64,1.53-16.45
					c1.32-3.69,2.68-7.51,2.51-12.28C149.73,29.72,143.93,19.97,137.06,15.2z"/>
			</g>
			<g>
				<path class="st3" d="M127.92,206.75c0.29,0.78,0.56,1.54,0.79,2.31c3.33,11.27-4.5,17.16-4.08,28.48
					c0.32,8.89,7.36,20.56,16.07,24.81c-3.58-7.92-6.35-17.59-1.66-24.91c2.63-4.09,7-6.67,9.65-10.72
					c4.01-6.12,1.66-13.43-0.42-20.05c-3.41,0.51-6.9,0.78-10.45,0.78C134.46,207.45,131.16,207.21,127.92,206.75z"/>
				<path class="st3" d="M140.7,263.35c-0.15,0-0.3-0.03-0.44-0.1c-8.66-4.22-16.28-15.98-16.63-25.67
					c-0.19-5.15,1.24-9.15,2.62-13.02c1.69-4.73,3.28-9.19,1.5-15.22c-0.2-0.66-0.45-1.39-0.77-2.23c-0.13-0.33-0.07-0.7,0.15-0.98
					c0.22-0.28,0.57-0.41,0.92-0.37c6.66,0.95,13.47,0.91,20.06-0.08c0.49-0.06,0.96,0.22,1.1,0.69l0.05,0.17
					c2.1,6.68,4.48,14.26,0.25,20.72c-1.38,2.1-3.18,3.82-4.93,5.47c-1.78,1.68-3.45,3.28-4.71,5.24c-3.6,5.6-3.03,13.44,1.73,23.95
					c0.17,0.38,0.09,0.84-0.21,1.13C141.21,263.25,140.96,263.35,140.7,263.35z M129.41,207.95c0.09,0.29,0.18,0.56,0.26,0.82
					c1.96,6.65,0.19,11.64-1.53,16.46c-1.32,3.69-2.68,7.51-2.51,12.28c0.29,7.92,6.08,17.68,12.96,22.44
					c-3.92-9.8-4.04-17.36-0.39-23.04c1.39-2.17,3.24-3.92,5.02-5.61c1.74-1.65,3.38-3.21,4.63-5.12
					c3.59-5.49,1.71-12.02-0.28-18.39C141.6,208.61,135.47,208.67,129.41,207.95z"/>
			</g>
			<g>
				<path class="st2" d="M109.97,71.11c-8.52-8.1-4.69-17.11-10.71-26.71c-4.73-7.54-16.65-14.13-26.32-13.45
					C80,36.02,87.24,43.02,86.83,51.7c-0.23,4.86-2.72,9.27-2.99,14.11c-0.41,7.31,5.28,12.46,10.39,17.16
					c5.28-4.22,11.19-7.7,17.57-10.26C111.16,72.19,110.54,71.66,109.97,71.11z"/>
				<path class="st2" d="M94.23,83.96c-0.24,0-0.49-0.09-0.68-0.26l-0.14-0.13c-5.16-4.74-11.01-10.11-10.57-17.82
					c0.14-2.51,0.85-4.9,1.53-7.21c0.7-2.35,1.35-4.56,1.46-6.9C86.15,45,81.74,38.5,72.36,31.77c-0.34-0.25-0.49-0.68-0.38-1.08
					c0.11-0.41,0.47-0.7,0.89-0.72c9.62-0.67,22.09,5.7,27.24,13.91c2.74,4.36,3.5,8.54,4.24,12.59c0.9,4.94,1.75,9.6,6.31,13.93h0
					c0.5,0.48,1.06,0.97,1.77,1.54c0.27,0.22,0.41,0.58,0.36,0.92c-0.05,0.35-0.29,0.65-0.62,0.78c-6.23,2.5-12.05,5.9-17.32,10.11
					C94.67,83.89,94.45,83.96,94.23,83.96z M75.97,31.98C84.27,38.51,88.15,45,87.83,51.74c-0.12,2.57-0.84,5.01-1.54,7.37
					c-0.68,2.3-1.33,4.47-1.45,6.75c-0.37,6.55,4.53,11.27,9.44,15.79c4.8-3.75,10.05-6.85,15.62-9.24
					c-0.22-0.19-0.42-0.38-0.62-0.57l0,0c-5.03-4.78-5.98-9.98-6.9-15.02c-0.71-3.86-1.43-7.85-3.97-11.89
					C94.21,38.22,84.31,32.67,75.97,31.98z"/>
			</g>
			<g>
				<path class="st2" d="M165.68,204.04c8.52,8.1,4.69,17.11,10.71,26.71c4.73,7.54,16.65,14.13,26.32,13.45
					c-7.06-5.07-14.3-12.06-13.89-20.74c0.23-4.86,2.72-9.27,2.99-14.11c0.41-7.31-5.28-12.46-10.39-17.16
					c-5.28,4.22-11.19,7.7-17.57,10.26C164.49,202.96,165.1,203.49,165.68,204.04z"/>
				<path class="st2" d="M201.35,245.24c-9.39,0-20.91-6.15-25.81-13.96c-2.74-4.36-3.5-8.54-4.24-12.59
					c-0.9-4.93-1.75-9.6-6.31-13.93l0,0c-0.5-0.48-1.06-0.97-1.77-1.55c-0.27-0.22-0.41-0.58-0.36-0.93
					c0.05-0.35,0.29-0.64,0.62-0.78c6.23-2.5,12.05-5.9,17.32-10.11c0.38-0.31,0.94-0.29,1.3,0.04l0.14,0.13
					c5.16,4.74,11.01,10.11,10.58,17.82c-0.14,2.51-0.85,4.9-1.53,7.21c-0.7,2.35-1.35,4.56-1.46,6.9
					c-0.31,6.65,4.09,13.15,13.47,19.88c0.34,0.25,0.49,0.68,0.38,1.08c-0.11,0.41-0.47,0.7-0.89,0.72
					C202.31,245.23,201.83,245.24,201.35,245.24z M165.74,202.74c0.22,0.2,0.43,0.39,0.62,0.57l0,0c5.03,4.78,5.98,9.98,6.9,15.02
					c0.71,3.86,1.43,7.85,3.97,11.89c4.21,6.72,14.1,12.27,22.44,12.95c-8.29-6.53-12.18-13.02-11.86-19.76
					c0.12-2.58,0.84-5.01,1.54-7.37c0.68-2.3,1.32-4.47,1.45-6.75c0.37-6.55-4.53-11.27-9.44-15.79
					C176.56,197.25,171.32,200.35,165.74,202.74z"/>
			</g>
			<g>
				<path class="st3" d="M80.47,93.94c-11.43-2.76-12.62-12.48-22.63-17.78c-7.86-4.17-21.48-3.91-29.52,1.51
					c8.65,0.86,18.41,3.29,22.4,11.02c2.23,4.32,2.28,9.39,4.46,13.72c3.3,6.53,10.79,8.15,17.56,9.66
					c2.51-6.4,5.94-12.34,10.12-17.66C82.05,94.28,81.24,94.13,80.47,93.94z"/>
				<path class="st3" d="M72.75,113.07c-0.07,0-0.15-0.01-0.22-0.02l-0.17-0.04c-6.83-1.52-14.58-3.25-18.06-10.15
					c-1.13-2.25-1.71-4.67-2.28-7.01c-0.57-2.38-1.11-4.63-2.18-6.7c-3.05-5.92-10.12-9.34-21.61-10.48
					c-0.42-0.04-0.77-0.34-0.87-0.75c-0.1-0.41,0.06-0.84,0.41-1.07c7.99-5.39,21.98-6.11,30.55-1.57c4.55,2.41,7.3,5.65,9.97,8.78
					c3.25,3.82,6.32,7.43,12.43,8.91c0,0,0,0,0,0c0.67,0.16,1.41,0.31,2.32,0.45c0.35,0.06,0.64,0.29,0.77,0.62s0.07,0.7-0.15,0.98
					c-4.17,5.3-7.52,11.16-9.97,17.41C73.52,112.83,73.15,113.07,72.75,113.07z M31.46,77.05c10.45,1.51,17.05,5.18,20.15,11.18
					c1.18,2.29,1.78,4.76,2.35,7.15c0.56,2.33,1.09,4.54,2.12,6.57c2.96,5.85,9.55,7.49,16.05,8.95c2.29-5.63,5.29-10.94,8.94-15.81
					c-0.29-0.06-0.57-0.12-0.84-0.19l0,0c-6.74-1.62-10.17-5.66-13.48-9.56c-2.54-2.99-5.17-6.08-9.38-8.31
					C50.37,73.34,39.03,73.48,31.46,77.05z"/>
			</g>
			<g>
				<path class="st3" d="M195.18,181.21c11.43,2.76,12.62,12.48,22.63,17.78c7.86,4.17,21.48,3.91,29.52-1.51
					c-8.65-0.86-18.41-3.29-22.4-11.02c-2.23-4.32-2.28-9.39-4.46-13.72c-3.3-6.53-10.79-8.15-17.56-9.66
					c-2.51,6.4-5.94,12.34-10.12,17.66C193.6,180.87,194.4,181.02,195.18,181.21z"/>
				<path class="st3" d="M230.91,202.86c-4.93,0-9.78-0.98-13.57-2.99c-4.55-2.41-7.3-5.65-9.97-8.78
					c-3.25-3.82-6.32-7.43-12.43-8.91c-0.67-0.16-1.43-0.31-2.32-0.45c-0.35-0.06-0.64-0.29-0.77-0.62s-0.07-0.7,0.15-0.98
					c4.17-5.3,7.52-11.15,9.97-17.41c0.18-0.46,0.67-0.72,1.15-0.61l0.17,0.04c6.84,1.52,14.59,3.25,18.07,10.15
					c1.13,2.25,1.71,4.67,2.28,7.01c0.57,2.38,1.11,4.63,2.18,6.7c3.05,5.91,10.12,9.34,21.61,10.48c0.42,0.04,0.77,0.34,0.87,0.75
					c0.1,0.41-0.06,0.84-0.41,1.07C243.43,201.3,237.11,202.86,230.91,202.86z M194.57,180.05c0.29,0.06,0.57,0.12,0.84,0.19l0,0
					c6.74,1.63,10.17,5.66,13.48,9.56c2.54,2.99,5.17,6.08,9.38,8.31c7.01,3.71,18.35,3.57,25.91,0
					c-10.45-1.51-17.05-5.18-20.15-11.19c-1.18-2.29-1.78-4.76-2.35-7.15c-0.56-2.33-1.09-4.54-2.12-6.57
					c-2.96-5.85-9.55-7.49-16.05-8.95C201.23,169.87,198.22,175.18,194.57,180.05z"/>
			</g>
			<g>
				<path class="st2" d="M68.65,127.68c-0.78,0.29-1.54,0.56-2.31,0.79c-11.27,3.33-17.16-4.5-28.48-4.08
					c-8.89,0.32-20.56,7.36-24.81,16.07c7.92-3.58,17.59-6.35,24.91-1.66c4.09,2.63,6.67,7,10.72,9.65
					c6.12,4.01,13.43,1.66,20.05-0.42c-0.51-3.41-0.78-6.9-0.78-10.45C67.94,134.21,68.19,130.91,68.65,127.68z"/>
				<path class="st2" d="M56.41,151.63c-2.86,0-5.66-0.63-8.29-2.34c-2.1-1.38-3.82-3.18-5.47-4.93c-1.68-1.78-3.28-3.45-5.24-4.71
					c-5.6-3.6-13.44-3.03-23.95,1.73c-0.38,0.17-0.84,0.09-1.13-0.21c-0.29-0.3-0.37-0.76-0.18-1.14
					c4.22-8.66,15.98-16.28,25.67-16.63c5.15-0.2,9.15,1.24,13.02,2.62c4.73,1.69,9.19,3.28,15.22,1.5c0.66-0.2,1.38-0.44,2.24-0.77
					c0.33-0.12,0.7-0.07,0.98,0.15c0.28,0.22,0.42,0.57,0.37,0.92c-0.46,3.23-0.69,6.52-0.69,9.76c0,3.44,0.26,6.91,0.77,10.3
					c0.07,0.49-0.22,0.96-0.69,1.1l-0.17,0.05C64.88,150.28,60.6,151.63,56.41,151.63z M28.9,135.31c3.66,0,6.85,0.88,9.59,2.65
					c2.17,1.39,3.92,3.24,5.61,5.02c1.65,1.74,3.21,3.38,5.12,4.63c5.49,3.59,12.02,1.71,18.39-0.28c-0.44-3.22-0.67-6.5-0.67-9.75
					c0-2.79,0.17-5.61,0.5-8.41c-0.28,0.09-0.56,0.18-0.82,0.26c-6.65,1.96-11.64,0.18-16.45-1.54c-3.69-1.32-7.52-2.67-12.28-2.51
					c-7.92,0.29-17.68,6.08-22.44,12.96C20.52,136.32,24.98,135.31,28.9,135.31z"/>
			</g>
			<g>
				<path class="st2" d="M207,147.47c0.78-0.29,1.54-0.56,2.31-0.79c11.27-3.33,17.16,4.5,28.48,4.08
					c8.89-0.32,20.56-7.36,24.81-16.07c-7.92,3.58-17.59,6.35-24.91,1.66c-4.09-2.63-6.67-7-10.72-9.65
					c-6.12-4.01-13.43-1.66-20.05,0.42c0.51,3.41,0.78,6.9,0.78,10.45C207.7,140.94,207.46,144.24,207,147.47z"/>
				<path class="st2" d="M236.91,151.78c-4.71,0-8.47-1.34-12.11-2.64c-4.72-1.69-9.19-3.28-15.22-1.5
					c-0.67,0.2-1.38,0.44-2.23,0.77c-0.33,0.13-0.7,0.07-0.98-0.15c-0.28-0.22-0.42-0.57-0.37-0.92c0.46-3.23,0.69-6.52,0.69-9.76
					c0-3.44-0.26-6.91-0.77-10.3c-0.07-0.49,0.22-0.96,0.69-1.1l0.17-0.05c6.68-2.1,14.26-4.48,20.72-0.25
					c2.1,1.38,3.82,3.18,5.47,4.93c1.68,1.78,3.28,3.45,5.24,4.71c5.6,3.6,13.44,3.03,23.95-1.73c0.38-0.17,0.83-0.09,1.13,0.21
					c0.29,0.3,0.37,0.76,0.18,1.14c-4.22,8.66-15.98,16.28-25.67,16.63C237.52,151.78,237.21,151.78,236.91,151.78z M214.8,144.87
					c3.96,0,7.36,1.21,10.67,2.4c3.69,1.32,7.52,2.68,12.28,2.51c7.92-0.29,17.68-6.08,22.44-12.96c-9.8,3.92-17.36,4.04-23.04,0.39
					c-2.17-1.39-3.92-3.24-5.61-5.02c-1.65-1.74-3.21-3.38-5.12-4.63c-5.49-3.59-12.02-1.71-18.39,0.28
					c0.44,3.22,0.67,6.5,0.67,9.75c0,2.79-0.17,5.61-0.5,8.41c0.28-0.09,0.56-0.18,0.82-0.26
					C211.1,145.11,213.01,144.87,214.8,144.87z"/>
			</g>
			<g>
				<path class="st3" d="M71.36,165.43c-8.1,8.52-17.11,4.69-26.71,10.71c-7.54,4.73-14.13,16.65-13.45,26.32
					c5.07-7.06,12.06-14.3,20.74-13.89c4.86,0.23,9.27,2.72,14.11,2.99c7.31,0.41,12.46-5.28,17.16-10.39
					c-4.22-5.28-7.7-11.19-10.26-17.57C72.43,164.24,71.91,164.85,71.36,165.43z"/>
				<path class="st3" d="M31.2,203.46c-0.09,0-0.18-0.01-0.27-0.04c-0.41-0.11-0.7-0.47-0.73-0.89c-0.68-9.61,5.7-22.09,13.91-27.24
					c4.36-2.74,8.54-3.5,12.59-4.24c4.93-0.9,9.6-1.75,13.93-6.31c0.48-0.5,0.98-1.08,1.54-1.77c0.22-0.27,0.58-0.41,0.93-0.36
					c0.35,0.05,0.65,0.29,0.78,0.62c2.5,6.23,5.9,12.05,10.11,17.32c0.31,0.38,0.29,0.94-0.04,1.3l-0.13,0.14
					c-4.74,5.16-10.11,11-17.82,10.57c-2.51-0.14-4.9-0.85-7.21-1.53c-2.35-0.7-4.56-1.35-6.9-1.46
					c-6.65-0.33-13.15,4.09-19.88,13.47C31.82,203.31,31.52,203.46,31.2,203.46z M72.66,165.49c-0.2,0.22-0.39,0.43-0.57,0.62
					c0,0,0,0,0,0c-4.78,5.03-9.98,5.98-15.02,6.9c-3.86,0.71-7.85,1.43-11.89,3.97c-6.72,4.21-12.27,14.1-12.95,22.44
					c6.53-8.29,13.01-12.17,19.76-11.86c2.57,0.12,5.01,0.84,7.37,1.54c2.3,0.68,4.47,1.33,6.75,1.45
					c6.55,0.38,11.27-4.53,15.79-9.44C78.15,176.31,75.05,171.07,72.66,165.49z M71.36,165.43L71.36,165.43L71.36,165.43z"/>
			</g>
			<g>
				<path class="st3" d="M204.28,109.72c8.1-8.52,17.11-4.69,26.71-10.71c7.54-4.73,14.13-16.65,13.45-26.32
					c-5.07,7.06-12.06,14.3-20.74,13.89c-4.86-0.23-9.27-2.72-14.11-2.99c-7.31-0.41-12.46,5.28-17.16,10.39
					c4.22,5.28,7.7,11.19,10.26,17.57C203.21,110.91,203.74,110.3,204.28,109.72z"/>
				<path class="st3" d="M202.69,112.55c-0.05,0-0.1,0-0.15-0.01c-0.35-0.05-0.65-0.29-0.78-0.62c-2.5-6.23-5.9-12.05-10.11-17.32
					c-0.31-0.38-0.29-0.94,0.04-1.3l0.13-0.14c4.74-5.16,10.1-11.02,17.82-10.58c2.51,0.14,4.9,0.85,7.21,1.53
					c2.35,0.7,4.56,1.35,6.9,1.46c6.65,0.33,13.15-4.09,19.88-13.47c0.25-0.34,0.68-0.49,1.08-0.38s0.7,0.47,0.73,0.89
					c0.68,9.61-5.7,22.09-13.91,27.24c-4.36,2.74-8.54,3.5-12.59,4.24c-4.93,0.9-9.6,1.75-13.93,6.31c-0.48,0.5-0.98,1.08-1.54,1.77
					C203.27,112.42,202.99,112.55,202.69,112.55z M193.75,94.03c3.75,4.8,6.85,10.05,9.24,15.62c0.2-0.22,0.39-0.43,0.57-0.62
					c0,0,0,0,0,0c4.78-5.03,9.98-5.98,15.02-6.9c3.86-0.71,7.85-1.43,11.89-3.97c6.72-4.21,12.27-14.1,12.95-22.44
					c-6.53,8.29-13.01,12.15-19.76,11.86c-2.57-0.12-5.01-0.84-7.37-1.54c-2.3-0.68-4.47-1.33-6.75-1.45
					C202.97,84.24,198.26,89.12,193.75,94.03z"/>
			</g>
			<g>
				<path class="st2" d="M94.19,194.93c-2.76,11.43-12.48,12.62-17.78,22.63c-4.17,7.86-3.91,21.48,1.51,29.52
					c0.86-8.65,3.29-18.41,11.02-22.4c4.32-2.23,9.39-2.28,13.72-4.46c6.53-3.3,8.15-10.79,9.66-17.56
					c-6.4-2.51-12.34-5.94-17.66-10.12C94.53,193.35,94.38,194.15,94.19,194.93z"/>
				<path class="st2" d="M77.93,248.07c-0.33,0-0.64-0.16-0.83-0.44c-5.39-7.99-6.11-21.98-1.57-30.55c2.41-4.55,5.65-7.3,8.78-9.97
					c3.82-3.25,7.43-6.32,8.91-12.43c0.16-0.67,0.31-1.43,0.45-2.32c0.06-0.35,0.29-0.64,0.62-0.77s0.7-0.07,0.98,0.15
					c5.3,4.17,11.15,7.52,17.41,9.97c0.46,0.18,0.72,0.67,0.61,1.15l-0.04,0.17c-1.52,6.84-3.25,14.59-10.15,18.07
					c-2.24,1.13-4.67,1.71-7.01,2.28c-2.38,0.57-4.63,1.11-6.7,2.18c-5.91,3.05-9.34,10.12-10.48,21.61
					c-0.04,0.42-0.34,0.77-0.75,0.87C78.09,248.06,78.01,248.07,77.93,248.07z M95.35,194.32c-0.06,0.29-0.12,0.57-0.19,0.84l0,0
					c-1.63,6.74-5.66,10.17-9.56,13.48c-2.99,2.54-6.08,5.17-8.31,9.38c-3.71,7.01-3.57,18.35,0,25.91
					c1.51-10.45,5.18-17.05,11.19-20.15c2.29-1.18,4.76-1.78,7.15-2.35c2.33-0.56,4.54-1.09,6.57-2.12
					c5.85-2.96,7.49-9.55,8.95-16.05C105.53,200.98,100.22,197.98,95.35,194.32z M94.19,194.93L94.19,194.93L94.19,194.93z"/>
			</g>
			<g>
				<path class="st2" d="M181.45,80.22c2.76-11.43,12.48-12.62,17.78-22.63c4.17-7.86,3.91-21.48-1.51-29.52
					c-0.86,8.65-3.29,18.41-11.02,22.4c-4.32,2.23-9.39,2.28-13.72,4.46c-6.53,3.3-8.15,10.79-9.66,17.56
					c6.4,2.51,12.34,5.94,17.66,10.12C181.12,81.8,181.27,81,181.45,80.22z"/>
				<path class="st2" d="M180.98,83.62c-0.22,0-0.44-0.07-0.62-0.21c-5.3-4.17-11.15-7.52-17.41-9.97
					c-0.46-0.18-0.72-0.67-0.61-1.15l0.04-0.16c1.52-6.84,3.25-14.59,10.15-18.07c2.24-1.13,4.66-1.71,7.01-2.28
					c2.38-0.57,4.63-1.11,6.7-2.18c5.91-3.05,9.34-10.12,10.48-21.61c0.04-0.42,0.34-0.77,0.75-0.87c0.41-0.1,0.84,0.06,1.07,0.41
					c5.39,7.99,6.11,21.98,1.57,30.55c-2.41,4.55-5.65,7.3-8.78,9.97c-3.82,3.25-7.43,6.32-8.91,12.43
					c-0.16,0.67-0.31,1.43-0.45,2.32c-0.06,0.35-0.29,0.64-0.62,0.77C181.23,83.59,181.11,83.62,180.98,83.62z M164.49,71.89
					c5.63,2.29,10.94,5.29,15.81,8.94c0.06-0.29,0.12-0.57,0.19-0.84l0,0c1.63-6.74,5.66-10.17,9.56-13.48
					c2.99-2.54,6.08-5.17,8.31-9.38c3.71-7.01,3.57-18.35,0-25.91c-1.51,10.45-5.18,17.05-11.19,20.15
					c-2.29,1.18-4.76,1.78-7.15,2.35c-2.33,0.56-4.53,1.09-6.57,2.12C167.58,58.79,165.94,65.38,164.49,71.89z"/>
			</g>
		</g>
		<g id="Circle_00000089567541991163726480000017616868887093300100_">
			<circle class="st4" cx="137.82" cy="137.5" r="69.88"/>
		</g>
		<g id="Aura_00000052818810932575331810000003973982149112852625_">
			<g>
				<path class="st4" d="M119.64,70.84c-0.33,0-0.63-0.22-0.72-0.56l-6.93-25.87c-0.11-0.4,0.13-0.81,0.53-0.92
					c0.4-0.11,0.81,0.13,0.92,0.53l6.93,25.87c0.11,0.4-0.13,0.81-0.53,0.92C119.77,70.83,119.7,70.84,119.64,70.84z M108.82,30.48
					c-0.33,0-0.63-0.22-0.72-0.56l-7.76-28.98c-0.11-0.4,0.13-0.81,0.53-0.92c0.4-0.11,0.81,0.13,0.92,0.53l7.76,28.98
					c0.11,0.4-0.13,0.81-0.53,0.92C108.95,30.47,108.89,30.48,108.82,30.48z"/>
			</g>
			<g>
				<path class="st4" d="M174.49,275.54c-0.33,0-0.63-0.22-0.72-0.56l-6.93-25.87c-0.11-0.4,0.13-0.81,0.53-0.92
					c0.4-0.11,0.81,0.13,0.92,0.53l6.93,25.87c0.11,0.4-0.13,0.81-0.53,0.92C174.62,275.54,174.55,275.54,174.49,275.54z
					 M163.67,235.18c-0.33,0-0.63-0.22-0.72-0.56l-7.76-28.98c-0.11-0.4,0.13-0.81,0.53-0.92c0.4-0.11,0.81,0.13,0.92,0.53
					l7.76,28.98c0.11,0.4-0.13,0.81-0.53,0.92C163.8,235.17,163.74,235.18,163.67,235.18z"/>
			</g>
			<g>
				<path class="st4" d="M155.91,70.84c-0.06,0-0.13-0.01-0.19-0.03c-0.4-0.11-0.64-0.52-0.53-0.92l6.93-25.87
					c0.11-0.4,0.52-0.64,0.92-0.53c0.4,0.11,0.64,0.52,0.53,0.92l-6.93,25.87C156.54,70.62,156.24,70.84,155.91,70.84z
					 M166.72,30.48c-0.06,0-0.13-0.01-0.19-0.03c-0.4-0.11-0.64-0.52-0.53-0.92l7.76-28.98c0.11-0.4,0.52-0.63,0.92-0.53
					c0.4,0.11,0.64,0.52,0.53,0.92l-7.76,28.98C167.36,30.26,167.05,30.48,166.72,30.48z"/>
			</g>
			<g>
				<path class="st4" d="M101.06,275.54c-0.06,0-0.13-0.01-0.19-0.03c-0.4-0.11-0.64-0.52-0.53-0.92l6.93-25.87
					c0.11-0.4,0.52-0.64,0.92-0.53c0.4,0.11,0.64,0.52,0.53,0.92l-6.93,25.87C101.69,275.32,101.39,275.54,101.06,275.54z
					 M111.87,235.18c-0.06,0-0.13-0.01-0.19-0.03c-0.4-0.11-0.64-0.52-0.53-0.92l7.76-28.98c0.11-0.4,0.52-0.63,0.92-0.53
					c0.4,0.11,0.64,0.52,0.53,0.92l-7.76,28.98C112.51,234.96,112.2,235.18,111.87,235.18z"/>
			</g>
			<g>
				<g>
					<path class="st4" d="M48.07,48.82c-0.19,0-0.38-0.07-0.53-0.22L36.93,37.99c-0.29-0.29-0.29-0.77,0-1.06s0.77-0.29,1.06,0
						L48.6,47.54c0.29,0.29,0.29,0.77,0,1.06C48.46,48.75,48.26,48.82,48.07,48.82z"/>
				</g>
				<g>
					<path class="st4" d="M70.23,70.98c-0.19,0-0.38-0.07-0.53-0.22L54.93,55.99c-0.29-0.29-0.29-0.77,0-1.06s0.77-0.29,1.06,0
						L70.76,69.7c0.29,0.29,0.29,0.77,0,1.06C70.61,70.91,70.42,70.98,70.23,70.98z"/>
				</g>
				<g>
					<path class="st4" d="M88.22,88.97c-0.19,0-0.38-0.07-0.53-0.22L77.09,78.15c-0.29-0.29-0.29-0.77,0-1.06s0.77-0.29,1.06,0
						l10.61,10.61c0.29,0.29,0.29,0.77,0,1.06C88.61,88.9,88.42,88.97,88.22,88.97z"/>
				</g>
			</g>
			<g>
				<g>
					<path class="st4" d="M197.93,198.68c-0.19,0-0.38-0.07-0.53-0.22l-10.61-10.61c-0.29-0.29-0.29-0.77,0-1.06s0.77-0.29,1.06,0
						l10.61,10.61c0.29,0.29,0.29,0.77,0,1.06C198.31,198.6,198.12,198.68,197.93,198.68z"/>
				</g>
				<g>
					<path class="st4" d="M220.09,220.84c-0.19,0-0.38-0.07-0.53-0.22l-14.77-14.77c-0.29-0.29-0.29-0.77,0-1.06s0.77-0.29,1.06,0
						l14.77,14.77c0.29,0.29,0.29,0.77,0,1.06C220.47,220.76,220.28,220.84,220.09,220.84z"/>
				</g>
				<g>
					<path class="st4" d="M238.08,238.83c-0.19,0-0.38-0.07-0.53-0.22L226.94,228c-0.29-0.29-0.29-0.77,0-1.06s0.77-0.29,1.06,0
						l10.61,10.61c0.29,0.29,0.29,0.77,0,1.06C238.46,238.76,238.27,238.83,238.08,238.83z"/>
				</g>
			</g>
			<g>
				<path class="st4" d="M70.09,120.39c-0.06,0-0.13-0.01-0.19-0.03l-25.87-6.93c-0.4-0.11-0.64-0.52-0.53-0.92
					c0.11-0.4,0.52-0.64,0.92-0.53l25.87,6.93c0.4,0.11,0.64,0.52,0.53,0.92C70.72,120.17,70.42,120.39,70.09,120.39z M29.73,109.57
					c-0.06,0-0.13-0.01-0.19-0.03l-28.98-7.76c-0.4-0.11-0.64-0.52-0.53-0.92c0.11-0.4,0.52-0.64,0.92-0.53l28.98,7.76
					c0.4,0.11,0.64,0.52,0.53,0.92C30.36,109.35,30.06,109.57,29.73,109.57z"/>
			</g>
			<g>
				<path class="st4" d="M274.79,175.24c-0.06,0-0.13-0.01-0.19-0.03l-25.87-6.93c-0.4-0.11-0.64-0.52-0.53-0.92
					c0.11-0.4,0.52-0.64,0.92-0.53l25.87,6.93c0.4,0.11,0.64,0.52,0.53,0.92C275.43,175.02,275.13,175.24,274.79,175.24z
					 M234.43,164.42c-0.06,0-0.13-0.01-0.19-0.03l-28.98-7.76c-0.4-0.11-0.64-0.52-0.53-0.92c0.11-0.4,0.52-0.63,0.92-0.53
					l28.98,7.76c0.4,0.11,0.64,0.52,0.53,0.92C235.07,164.2,234.76,164.42,234.43,164.42z"/>
			</g>
			<g>
				<g>
					<path class="st4" d="M0.75,175.24c-0.33,0-0.63-0.22-0.72-0.56c-0.11-0.4,0.13-0.81,0.53-0.92l14.49-3.88
						c0.4-0.11,0.81,0.13,0.92,0.53c0.11,0.4-0.13,0.81-0.53,0.92l-14.49,3.88C0.88,175.23,0.81,175.24,0.75,175.24z"/>
				</g>
				<g>
					<path class="st4" d="M25.33,168.65c-0.33,0-0.63-0.22-0.72-0.56c-0.11-0.4,0.13-0.81,0.53-0.92l20.18-5.41
						c0.4-0.1,0.81,0.13,0.92,0.53s-0.13,0.81-0.53,0.92l-20.18,5.41C25.46,168.64,25.39,168.65,25.33,168.65z"/>
				</g>
				<g>
					<path class="st4" d="M55.6,160.54c-0.33,0-0.63-0.22-0.72-0.56c-0.11-0.4,0.13-0.81,0.53-0.92l14.49-3.88
						c0.4-0.11,0.81,0.13,0.92,0.53c0.11,0.4-0.13,0.81-0.53,0.92l-14.49,3.88C55.73,160.53,55.66,160.54,55.6,160.54z"/>
				</g>
			</g>
			<g>
				<g>
					<path class="st4" d="M205.45,120.39c-0.33,0-0.63-0.22-0.72-0.56c-0.11-0.4,0.13-0.81,0.53-0.92l14.49-3.88
						c0.4-0.11,0.81,0.13,0.92,0.53c0.11,0.4-0.13,0.81-0.53,0.92l-14.49,3.88C205.58,120.38,205.52,120.39,205.45,120.39z"/>
				</g>
				<g>
					<path class="st4" d="M230.03,113.8c-0.33,0-0.63-0.22-0.72-0.56c-0.11-0.4,0.13-0.81,0.53-0.92l20.18-5.41
						c0.4-0.11,0.81,0.13,0.92,0.53s-0.13,0.81-0.53,0.92l-20.18,5.41C230.16,113.79,230.1,113.8,230.03,113.8z"/>
				</g>
				<g>
					<path class="st4" d="M260.3,105.69c-0.33,0-0.63-0.22-0.72-0.56c-0.11-0.4,0.13-0.81,0.53-0.92l14.49-3.88
						c0.4-0.1,0.81,0.13,0.92,0.53c0.11,0.4-0.13,0.81-0.53,0.92l-14.49,3.88C260.43,105.68,260.37,105.69,260.3,105.69z"/>
				</g>
			</g>
			<g>
				<path class="st4" d="M37.46,238.83c-0.19,0-0.38-0.07-0.53-0.22c-0.29-0.29-0.29-0.77,0-1.06l21.21-21.21
					c0.29-0.29,0.77-0.29,1.06,0s0.29,0.77,0,1.06L38,238.61C37.85,238.76,37.66,238.83,37.46,238.83z M69.28,207.01
					c-0.19,0-0.38-0.07-0.53-0.22c-0.29-0.29-0.29-0.77,0-1.06l18.94-18.94c0.29-0.29,0.77-0.29,1.06,0s0.29,0.77,0,1.06
					l-18.94,18.94C69.67,206.94,69.48,207.01,69.28,207.01z"/>
			</g>
			<g>
				<path class="st4" d="M187.32,88.97c-0.19,0-0.38-0.07-0.53-0.22c-0.29-0.29-0.29-0.77,0-1.06L208,66.48
					c0.29-0.29,0.77-0.29,1.06,0s0.29,0.77,0,1.06l-21.21,21.21C187.7,88.9,187.51,88.97,187.32,88.97z M219.14,57.15
					c-0.19,0-0.38-0.07-0.53-0.22c-0.29-0.29-0.29-0.77,0-1.06l18.94-18.94c0.29-0.29,0.77-0.29,1.06,0s0.29,0.77,0,1.06
					l-18.94,18.94C219.52,57.08,219.33,57.15,219.14,57.15z"/>
			</g>
		</g>
		<g id="Line_00000052064423026836493580000008863675416523457707_">
			<g>
				<path class="st2" d="M161.15,190.24c-0.32,0-0.61-0.2-0.72-0.52c-0.12-0.39,0.09-0.82,0.49-0.94
					c12.27-3.87,22.51-12.72,28.1-24.27c0.18-0.37,0.63-0.53,1-0.35c0.37,0.18,0.53,0.63,0.35,1c-5.77,11.92-16.34,21.05-29,25.04
					C161.3,190.23,161.22,190.24,161.15,190.24z"/>
			</g>
			<g>
				<path class="st2" d="M192.5,158.36c-0.07,0-0.14-0.01-0.21-0.03c-0.4-0.12-0.62-0.54-0.5-0.93c1.24-4.17,1.9-8.46,1.96-12.73
					c0.01-0.41,0.37-0.75,0.76-0.74c0.41,0.01,0.75,0.35,0.74,0.76c-0.06,4.41-0.74,8.83-2.02,13.14
					C193.13,158.15,192.83,158.36,192.5,158.36z"/>
			</g>
			<g>
				<path class="st2" d="M163.61,174.01c-0.27,0-0.54-0.15-0.67-0.41c-0.19-0.37-0.04-0.82,0.33-1.01
					c8.69-4.44,15.6-12.66,18.46-21.99c0.12-0.4,0.54-0.62,0.94-0.5c0.4,0.12,0.62,0.54,0.5,0.94
					c-3.03,9.85-10.03,18.19-19.22,22.88C163.84,173.98,163.73,174.01,163.61,174.01z"/>
			</g>
			<g>
				<path class="st2" d="M82.87,136.21c-0.41,0-0.75-0.33-0.75-0.74c-0.12-9.61,2.54-19.21,7.69-27.77
					c0.21-0.35,0.67-0.47,1.03-0.26c0.35,0.21,0.47,0.67,0.26,1.03c-5,8.32-7.59,17.65-7.48,26.98
					C83.62,135.87,83.29,136.21,82.87,136.21C82.87,136.21,82.87,136.21,82.87,136.21z"/>
			</g>
			<g>
				<path class="st2" d="M95.75,101.51c-0.17,0-0.35-0.06-0.49-0.18c-0.31-0.27-0.35-0.74-0.08-1.06c3.1-3.6,6.64-6.72,10.5-9.27
					c0.34-0.23,0.81-0.13,1.04,0.21c0.23,0.35,0.13,0.81-0.21,1.04c-3.75,2.48-7.18,5.51-10.19,9
					C96.17,101.42,95.97,101.51,95.75,101.51z"/>
			</g>
			<g>
				<path class="st2" d="M93.06,143.98C93.06,143.98,93.05,143.98,93.06,143.98c-0.42,0-0.75-0.34-0.75-0.76
					c0.06-6.62,0.64-12.38,1.77-17.61c0.09-0.41,0.49-0.67,0.89-0.58c0.4,0.09,0.66,0.49,0.57,0.89
					c-1.11,5.13-1.67,10.79-1.73,17.31C93.8,143.65,93.47,143.98,93.06,143.98z"/>
			</g>
		</g>
	</g>
</g>
<g id="Guide">
</g>
</svg>
