<?xml version="1.0" encoding="utf-8"?>
<!-- Generator: Adobe Illustrator 26.1.0, SVG Export Plug-In . SVG Version: 6.00 Build 0)  -->
<svg version="1.1" xmlns="http://www.w3.org/2000/svg" xmlns:xlink="http://www.w3.org/1999/xlink" x="0px" y="0px"
	 viewBox="0 0 242.54 597.49" style="enable-background:new 0 0 242.54 597.49;" xml:space="preserve">
<style type="text/css">
	.st0{fill:#FFFFFF;}
	.st1{fill:#EAD9EB;}
	.st2{fill:#95608F;}
	.st3{fill:#ED859E;}
	.st4{fill:#FAC87D;}
	.st5{fill:#554B4E;}
	.st6{fill:#F8F4E9;}
	.st7{fill:#BFA071;}
	.st8{fill:#F2DED6;}
</style>
<g id="Bg">
</g>
<g id="Graphic">
	<g id="Constellation_3_00000073689019864738196320000008317193050933843866_">
		<g id="Line_00000015349730469936007410000012495456514451133598_">
			<g>
				<path class="st2" d="M223.72,581.87c-0.21,0-0.41-0.08-0.56-0.25l-62.91-70.31c-0.28-0.31-0.25-0.78,0.06-1.06
					c0.31-0.28,0.78-0.25,1.06,0.06l62.91,70.31c0.28,0.31,0.25,0.78-0.06,1.06C224.07,581.81,223.9,581.87,223.72,581.87z"/>
			</g>
			<g>
				<path class="st2" d="M101.83,115.15c-0.11,0-0.23-0.03-0.33-0.08c-0.37-0.18-0.52-0.64-0.34-1.01l46.55-93.52
					c0.19-0.37,0.63-0.52,1.01-0.34c0.37,0.18,0.52,0.64,0.34,1.01l-46.55,93.52C102.38,115,102.11,115.15,101.83,115.15z"/>
			</g>
			<g>
				<path class="st2" d="M90.93,114.97c-0.2,0-0.41-0.08-0.55-0.25L17.04,34.14c-0.28-0.31-0.26-0.78,0.05-1.06
					c0.31-0.28,0.78-0.26,1.06,0.05l73.34,80.59c0.28,0.31,0.26,0.78-0.05,1.06C91.29,114.91,91.11,114.97,90.93,114.97z"/>
			</g>
			<g>
				<path class="st2" d="M130.42,241.68c-0.34,0-0.64-0.23-0.73-0.57l-27.72-114.62c-0.1-0.4,0.15-0.81,0.55-0.91
					c0.4-0.1,0.81,0.15,0.91,0.55l27.72,114.62c0.1,0.4-0.15,0.81-0.55,0.91C130.53,241.67,130.48,241.68,130.42,241.68z"/>
			</g>
			<g>
				<path class="st2" d="M84.07,365.81c-0.1,0-0.2-0.02-0.3-0.06c-0.38-0.16-0.56-0.6-0.39-0.99l49.71-115.97
					c0.16-0.38,0.6-0.56,0.99-0.39c0.38,0.16,0.56,0.6,0.39,0.99L84.75,365.36C84.63,365.64,84.36,365.81,84.07,365.81z"/>
			</g>
			<g>
				<path class="st2" d="M140.45,486.89c-0.27,0-0.53-0.15-0.67-0.41L82.45,375.34c-0.19-0.37-0.04-0.82,0.32-1.01
					c0.37-0.19,0.82-0.04,1.01,0.32l57.34,111.14c0.19,0.37,0.04,0.82-0.32,1.01C140.69,486.86,140.57,486.89,140.45,486.89z"/>
			</g>
		</g>
		<g id="Star_00000016076731296170487180000009176966794832064919_">
			<g>
				<path class="st3" d="M155.25,483.93c-6.2-5.65-10.18-16.09-15.96-33.85c2.44,18.52,3.36,29.65,0.2,37.42
					c-5.19-1.26-11.56-4.27-20.36-8.75c7.84,6.01,13.3,10.46,16.67,14.6c-5.65,6.2-16.09,10.18-33.85,15.96
					c18.52-2.44,29.65-3.36,37.42-0.2c-1.26,5.19-4.27,11.56-8.75,20.36c6.01-7.84,10.46-13.3,14.6-16.67
					c6.2,5.65,10.18,16.09,15.96,33.85c-2.44-18.52-3.36-29.65-0.2-37.42c5.19,1.26,11.56,4.27,20.36,8.75
					c-7.84-6.01-13.3-10.46-16.67-14.6c5.65-6.2,16.09-10.18,33.85-15.96c-18.52,2.44-29.65,3.36-37.42,0.2
					c1.26-5.19,4.27-11.56,8.75-20.36C163.84,475.09,159.39,480.56,155.25,483.93z"/>
				<path class="st3" d="M161.19,547.66c-0.42,0-0.81-0.27-0.95-0.69c-5.78-17.75-9.59-27.41-15.05-32.82
					c-3.79,3.27-7.97,8.39-13.76,15.94c-0.32,0.41-0.89,0.51-1.33,0.24c-0.44-0.28-0.59-0.84-0.36-1.3
					c4.32-8.49,7.13-14.47,8.45-19.29c-7.24-2.59-17.59-1.87-36.1,0.57c-0.51,0.06-0.99-0.27-1.11-0.77
					c-0.11-0.5,0.17-1.01,0.67-1.17c17.75-5.78,27.41-9.59,32.82-15.05c-3.27-3.79-8.39-7.97-15.94-13.76
					c-0.41-0.31-0.51-0.89-0.24-1.33c0.27-0.44,0.84-0.59,1.3-0.36c8.49,4.32,14.47,7.13,19.29,8.45c2.59-7.24,1.87-17.6-0.57-36.1
					c-0.07-0.51,0.27-0.99,0.77-1.11c0.5-0.11,1.01,0.17,1.17,0.67c5.78,17.75,9.59,27.41,15.05,32.82
					c3.79-3.27,7.97-8.39,13.76-15.94c0.31-0.41,0.89-0.51,1.33-0.24c0.44,0.28,0.59,0.84,0.36,1.3
					c-4.32,8.49-7.13,14.47-8.45,19.29c7.24,2.59,17.6,1.87,36.1-0.57c0.5-0.07,0.99,0.27,1.11,0.77c0.11,0.5-0.17,1.01-0.67,1.17
					c-17.75,5.78-27.41,9.59-32.82,15.05c3.27,3.79,8.39,7.97,15.94,13.76c0.41,0.31,0.51,0.89,0.24,1.33
					c-0.28,0.44-0.84,0.59-1.3,0.36c-8.49-4.32-14.47-7.13-19.29-8.45c-2.59,7.24-1.87,17.59,0.57,36.1
					c0.07,0.51-0.27,0.99-0.77,1.11C161.33,547.65,161.26,547.66,161.19,547.66z M145.23,511.8c0.24,0,0.48,0.09,0.67,0.26
					c5.02,4.58,8.6,12.04,13.09,24.88c-1.49-13.52-1.48-21.8,1.08-28.09c0.19-0.46,0.68-0.71,1.16-0.59c3.36,0.82,7.21,2.34,12,4.59
					c-4.09-3.35-7.13-6.16-9.32-8.84c-0.31-0.38-0.3-0.94,0.04-1.31c4.58-5.02,12.04-8.6,24.88-13.09
					c-13.52,1.49-21.8,1.48-28.09-1.08c-0.46-0.19-0.71-0.68-0.6-1.16c0.82-3.36,2.34-7.2,4.59-11.99
					c-3.35,4.09-6.16,7.13-8.84,9.32c-0.38,0.31-0.94,0.3-1.31-0.04c-5.02-4.57-8.6-12.04-13.09-24.88
					c1.49,13.52,1.48,21.8-1.08,28.09c-0.19,0.46-0.68,0.71-1.16,0.6c-3.36-0.82-7.21-2.34-12-4.59c4.09,3.35,7.13,6.16,9.32,8.84
					c0.31,0.38,0.3,0.94-0.04,1.31c-4.58,5.02-12.04,8.6-24.88,13.09c13.51-1.49,21.8-1.48,28.09,1.08c0.46,0.19,0.71,0.68,0.6,1.16
					c-0.82,3.36-2.34,7.21-4.59,12c3.35-4.1,6.16-7.13,8.84-9.32C144.78,511.88,145,511.8,145.23,511.8z"/>
			</g>
			<g>
				<circle class="st2" cx="231.96" cy="586.91" r="9.58"/>
				<path class="st2" d="M231.96,597.49c-0.34,0-0.67-0.02-1.02-0.05c-5.81-0.56-10.08-5.73-9.52-11.54l0,0
					c0.27-2.81,1.62-5.35,3.8-7.15c2.18-1.8,4.92-2.64,7.74-2.37c5.81,0.56,10.08,5.73,9.52,11.54
					C241.96,593.38,237.34,597.49,231.96,597.49z M223.41,586.09L223.41,586.09c-0.45,4.71,3.01,8.91,7.72,9.36
					c4.7,0.44,8.91-3.01,9.36-7.72c0.45-4.71-3.01-8.91-7.72-9.36c-2.27-0.21-4.51,0.46-6.28,1.92S223.63,583.81,223.41,586.09z"/>
			</g>
			<g>
				<circle class="st4" cx="134.25" cy="244.12" r="4.99"/>
				<path class="st4" d="M134.26,250.11c-0.19,0-0.39-0.01-0.58-0.03c-3.29-0.31-5.71-3.25-5.39-6.54l0,0
					c0.31-3.29,3.25-5.71,6.54-5.39c1.59,0.15,3.03,0.92,4.05,2.15s1.5,2.79,1.34,4.38c-0.15,1.59-0.92,3.03-2.15,4.05
					C136.98,249.64,135.65,250.11,134.26,250.11z M130.28,243.74c-0.21,2.19,1.4,4.14,3.59,4.35c1.06,0.1,2.1-0.22,2.92-0.89
					c0.82-0.68,1.33-1.64,1.43-2.7c0.1-1.06-0.22-2.1-0.89-2.92c-0.68-0.82-1.64-1.33-2.7-1.43
					C132.43,239.95,130.49,241.55,130.28,243.74L130.28,243.74z"/>
			</g>
			<g>
				<circle class="st2" cx="153.59" cy="11.17" r="10.17"/>
				<path class="st2" d="M153.59,22.34c-0.36,0-0.71-0.02-1.07-0.05c-6.13-0.59-10.64-6.05-10.05-12.18l0,0
					c0.59-6.13,6.06-10.65,12.18-10.05c6.13,0.59,10.64,6.05,10.05,12.18C164.15,18,159.28,22.34,153.59,22.34z M144.46,10.29
					c-0.23,2.44,0.5,4.82,2.06,6.71c1.56,1.89,3.76,3.06,6.2,3.29c2.43,0.23,4.82-0.5,6.71-2.05c1.89-1.56,3.06-3.76,3.29-6.2
					c0.48-5.03-3.22-9.52-8.25-10C149.44,1.56,144.94,5.26,144.46,10.29L144.46,10.29z"/>
			</g>
			<g>
				<circle class="st3" cx="10.4" cy="25.73" r="9.4"/>
				<path class="st3" d="M10.42,36.14c-0.33,0-0.67-0.02-1.01-0.05c-2.77-0.26-5.26-1.59-7.03-3.73c-1.77-2.14-2.6-4.85-2.33-7.61
					c0.26-2.77,1.59-5.26,3.73-7.03s4.84-2.6,7.61-2.33c2.77,0.26,5.26,1.59,7.03,3.73c1.77,2.14,2.6,4.85,2.33,7.61
					c-0.26,2.77-1.59,5.26-3.73,7.03C15.14,35.31,12.83,36.14,10.42,36.14z M10.39,17.33c-1.94,0-3.81,0.67-5.33,1.92
					c-1.73,1.43-2.8,3.45-3.02,5.68C1.6,29.54,4.99,33.65,9.6,34.1c2.22,0.2,4.42-0.46,6.15-1.88c1.73-1.43,2.8-3.45,3.02-5.68
					c0.21-2.23-0.46-4.42-1.88-6.15c-1.43-1.73-3.45-2.8-5.68-3.02C10.93,17.34,10.66,17.33,10.39,17.33z"/>
			</g>
			<g>
				<circle class="st4" cx="83.59" cy="370.03" r="4.99"/>
				<path class="st4" d="M83.6,376.02c-0.19,0-0.39-0.01-0.58-0.03c-1.59-0.15-3.03-0.92-4.05-2.15c-1.02-1.23-1.5-2.79-1.34-4.38
					c0.15-1.59,0.92-3.03,2.15-4.05c1.23-1.02,2.79-1.5,4.38-1.34c3.29,0.31,5.71,3.25,5.39,6.54c-0.15,1.59-0.92,3.03-2.15,4.05
					C86.32,375.54,84.99,376.02,83.6,376.02z M83.58,366.04c-0.92,0-1.81,0.32-2.53,0.91c-0.82,0.68-1.33,1.64-1.43,2.7l0,0
					c-0.1,1.06,0.22,2.1,0.89,2.92c0.68,0.82,1.64,1.33,2.7,1.43c1.06,0.1,2.1-0.22,2.92-0.89s1.33-1.64,1.43-2.7
					c0.21-2.19-1.4-4.14-3.59-4.35C83.84,366.05,83.71,366.04,83.58,366.04z M78.62,369.55L78.62,369.55L78.62,369.55z"/>
			</g>
			<g>
				<path class="st4" d="M67.91,118.04c24.41,0.09,26.39-1.54,30.93-25.52c-0.09,24.41,1.54,26.39,25.52,30.93
					c-24.41-0.09-26.39,1.54-30.93,25.52C93.53,124.57,91.9,122.59,67.91,118.04z"/>
				<path class="st4" d="M93.44,149.98c-0.03,0-0.06,0-0.1,0c-0.51-0.05-0.91-0.48-0.9-1c0.09-23.83-1.3-25.51-24.71-29.95
					c-0.51-0.1-0.86-0.56-0.81-1.08c0.05-0.51,0.48-0.9,1-0.9c0,0,0,0,0,0c23.81,0.07,25.51-1.29,29.95-24.71
					c0.1-0.51,0.58-0.88,1.08-0.81c0.51,0.05,0.91,0.48,0.9,1c-0.09,23.83,1.3,25.51,24.71,29.95c0.51,0.1,0.86,0.56,0.81,1.08
					c-0.05,0.51-0.48,0.9-1,0.9c0,0,0,0,0,0c-23.83-0.09-25.51,1.29-29.95,24.71C94.33,149.64,93.91,149.98,93.44,149.98z
					 M76.97,118.91c13.53,3.25,16.71,7.11,17.33,21.01c3.25-13.52,7.11-16.71,21.01-17.33c-13.53-3.25-16.71-7.11-17.33-21.01
					C94.73,115.1,90.87,118.29,76.97,118.91z"/>
			</g>
		</g>
	</g>
</g>
<g id="Guide">
</g>
</svg>
