<?xml version="1.0" encoding="utf-8"?>
<!-- Generator: Adobe Illustrator 26.1.0, SVG Export Plug-In . SVG Version: 6.00 Build 0)  -->
<svg version="1.1" xmlns="http://www.w3.org/2000/svg" xmlns:xlink="http://www.w3.org/1999/xlink" x="0px" y="0px"
	 viewBox="0 0 490.73 352.37" style="enable-background:new 0 0 490.73 352.37;" xml:space="preserve">
<style type="text/css">
	.st0{fill:#FFFFFF;}
	.st1{fill:#EAD9EB;}
	.st2{fill:#95608F;}
	.st3{fill:#ED859E;}
	.st4{fill:#FAC87D;}
	.st5{fill:#554B4E;}
	.st6{fill:#F8F4E9;}
	.st7{fill:#BFA071;}
	.st8{fill:#F2DED6;}
</style>
<g id="Bg">
</g>
<g id="Graphic">
	<g id="Planet_00000148639570464025596420000010516519380214537095_">
		<g id="Planet_00000026871387894268913860000010287013531804665503_">
			<g>
				<path class="st2" d="M96.13,269.81c40.24,64.2,119.17,97.34,195.97,76.2s127.66-89.99,129.39-165.74
					c-40.41,22.19-95.67,44.14-158.13,61.33S142.2,268.21,96.13,269.81z"/>
			</g>
			<g>
				<path class="st4" d="M394.6,82.56c2.51,4.01,4.87,8.13,7.07,12.37c25.1,1.59,41.2,7.5,44.06,17.87
					c2.74,9.97-7.14,22.65-26.33,36.24c-32.66,23.12-92.3,48.85-162.73,68.23s-134.84,27.79-174.73,24.64
					c-23.44-1.85-38.42-7.7-41.16-17.66c-2.85-10.37,7.96-23.69,28.71-37.9c-0.28-4.77-0.36-9.52-0.26-14.25
					c-47.02,25.83-73.91,52-68.57,71.42s41.85,28.15,95.46,26.28c46.07-1.6,104.78-11.03,167.24-28.22s117.72-39.13,158.13-61.33
					c47.02-25.83,73.91-52,68.57-71.42C484.71,89.41,448.21,80.69,394.6,82.56z"/>
			</g>
			<g>
				<path class="st2" d="M401.67,94.93c-2.2-4.24-4.56-8.37-7.07-12.37c-40.24-64.2-119.17-97.34-195.97-76.2
					S70.97,96.35,69.24,172.1c-0.11,4.73-0.03,9.48,0.26,14.25c0.71,12.14,2.69,24.38,6.04,36.57c1.8,6.52,3.95,12.85,6.41,18.99
					c39.89,3.16,104.3-5.25,174.73-24.64s130.07-45.11,162.73-68.23c-1.03-6.53-2.42-13.07-4.21-19.59
					C411.84,117.25,407.27,105.72,401.67,94.93z"/>
			</g>
		</g>
		<g id="Dot_00000015333663174824961610000004749228140622950836_">
			<g>
				<path class="st0" d="M295.06,36.78c0.11,1.14,0.66,2.17,1.55,2.89c0.88,0.72,2,1.06,3.14,0.95c1.14-0.11,2.17-0.66,2.89-1.55
					c0.73-0.88,1.06-2,0.95-3.14c-0.14-1.46-1.01-2.68-2.2-3.33c-0.73-0.4-1.59-0.6-2.48-0.51
					C296.55,32.33,294.83,34.43,295.06,36.78z"/>
			</g>
			<g>
				<path class="st0" d="M259.73,30c1.84,1.16,4.26,0.61,5.42-1.22c0.56-0.89,0.74-1.94,0.51-2.96c-0.23-1.02-0.85-1.89-1.73-2.45
					c-0.07-0.04-0.14-0.08-0.21-0.12c-0.84-0.46-1.81-0.6-2.75-0.39c-1.02,0.23-1.9,0.85-2.46,1.73
					C257.35,26.41,257.9,28.85,259.73,30z"/>
			</g>
			<g>
				<path class="st0" d="M271.24,44.18c0.18,1.87,1.86,3.24,3.73,3.06c1.87-0.18,3.24-1.85,3.06-3.73c-0.11-1.16-0.8-2.13-1.75-2.65
					c-0.58-0.32-1.26-0.47-1.97-0.4C272.43,40.64,271.06,42.31,271.24,44.18z"/>
			</g>
			<g>
				<path class="st0" d="M231.77,28.97c0.17,0.76,0.63,1.41,1.29,1.82c0.66,0.42,1.44,0.55,2.2,0.38c0.76-0.17,1.41-0.63,1.82-1.29
					c0.42-0.66,0.55-1.44,0.38-2.2c-0.17-0.76-0.63-1.41-1.29-1.82c-0.05-0.03-0.1-0.06-0.16-0.09c-0.62-0.34-1.34-0.45-2.04-0.29
					c-0.76,0.17-1.41,0.63-1.82,1.29C231.73,27.43,231.6,28.21,231.77,28.97z"/>
			</g>
			<g>
				<path class="st0" d="M289.78,308.85c0.55,1,1.46,1.73,2.56,2.05c1.1,0.32,2.26,0.19,3.26-0.37c1-0.55,1.73-1.46,2.05-2.56
					c0.32-1.1,0.19-2.26-0.37-3.26c-0.71-1.28-1.98-2.06-3.34-2.19c-0.83-0.08-1.69,0.08-2.48,0.51
					C289.4,304.17,288.64,306.78,289.78,308.85z"/>
			</g>
			<g>
				<path class="st0" d="M271.23,329.32c0.91,1.65,2.99,2.24,4.63,1.34c1.65-0.91,2.24-2.98,1.34-4.63
					c-0.56-1.02-1.58-1.64-2.66-1.74c-0.66-0.06-1.35,0.06-1.97,0.41C270.92,325.6,270.32,327.68,271.23,329.32z"/>
			</g>
			<g>
				<path class="st0" d="M228.96,330.95c0.46,0.63,1.13,1.04,1.9,1.17c0.77,0.13,1.54-0.06,2.17-0.52c0.63-0.46,1.04-1.13,1.17-1.9
					c0.12-0.77-0.06-1.54-0.52-2.17c-0.46-0.63-1.13-1.04-1.9-1.17c-0.06-0.01-0.12-0.02-0.18-0.02c-0.71-0.07-1.41,0.12-1.99,0.54
					c-0.63,0.46-1.04,1.13-1.17,1.9C228.32,329.55,228.5,330.32,228.96,330.95z"/>
			</g>
		</g>
		<g id="Line_00000115506143838819888720000006904560457809739169_">
			<g>
				<path class="st0" d="M254.09,316.06c-36.02,0-65.64-18.19-84.21-33.54c-0.32-0.26-0.36-0.74-0.1-1.06
					c0.26-0.32,0.74-0.36,1.06-0.1c18.39,15.19,47.69,33.2,83.26,33.2c0.38,0,0.75,0,1.12-0.01c0,0,0.01,0,0.01,0
					c0.41,0,0.75,0.33,0.75,0.74c0,0.41-0.33,0.75-0.74,0.76C254.85,316.05,254.47,316.06,254.09,316.06z"/>
			</g>
			<g>
				<path class="st0" d="M127.9,230.34c-0.27,0-0.52-0.14-0.66-0.39c-7.17-13.28-12.62-27.13-16.23-41.18
					c-0.1-0.4,0.14-0.81,0.54-0.91c0.4-0.1,0.81,0.14,0.91,0.54c3.57,13.93,8.99,27.67,16.09,40.84c0.2,0.36,0.06,0.82-0.3,1.02
					C128.14,230.31,128.02,230.34,127.9,230.34z"/>
			</g>
			<g>
				<path class="st0" d="M108.91,176.95c-0.35,0-0.67-0.25-0.74-0.61c-1.76-9.44-2.61-18.9-2.52-28.1c0-0.41,0.34-0.74,0.75-0.74
					c0,0,0,0,0.01,0c0.41,0,0.75,0.34,0.74,0.76c-0.09,9.1,0.75,18.46,2.49,27.81c0.08,0.41-0.19,0.8-0.6,0.88
					C109,176.95,108.96,176.95,108.91,176.95z"/>
			</g>
			<g>
				<path class="st0" d="M169.96,304.51c-0.14,0-0.27-0.04-0.4-0.11c-2.95-1.83-5.85-3.75-8.62-5.69c-0.34-0.24-0.42-0.71-0.18-1.04
					s0.71-0.42,1.04-0.18c2.74,1.92,5.62,3.82,8.55,5.64c0.35,0.22,0.46,0.68,0.24,1.03C170.46,304.38,170.21,304.51,169.96,304.51z
					"/>
			</g>
			<g>
				<path class="st0" d="M152.81,292.41c-0.16,0-0.33-0.05-0.47-0.17c-6.76-5.41-12.96-11.27-18.43-17.4
					c-0.28-0.31-0.25-0.78,0.06-1.06c0.31-0.28,0.78-0.25,1.06,0.06c5.42,6.07,11.55,11.87,18.25,17.23
					c0.32,0.26,0.38,0.73,0.12,1.05C153.24,292.31,153.03,292.41,152.81,292.41z"/>
			</g>
			<g>
				<path class="st0" d="M110.16,236.32c-0.29,0-0.57-0.17-0.69-0.45c-3.19-7.39-6.2-15.66-9.21-25.29c-0.12-0.4,0.1-0.82,0.49-0.94
					c0.4-0.12,0.82,0.1,0.94,0.49c2.99,9.58,5.98,17.8,9.15,25.15c0.16,0.38-0.01,0.82-0.39,0.99
					C110.36,236.3,110.26,236.32,110.16,236.32z"/>
			</g>
			<g>
				<path class="st0" d="M235.79,292.04c-0.05,0-0.1,0-0.15-0.01c-12.42-2.53-24.38-7.84-34.59-15.34
					c-0.33-0.25-0.41-0.71-0.16-1.05c0.25-0.33,0.72-0.41,1.05-0.16c10.04,7.38,21.79,12.59,34,15.08c0.41,0.08,0.67,0.48,0.58,0.88
					C236.46,291.79,236.14,292.04,235.79,292.04z"/>
			</g>
			<g>
				<path class="st0" d="M126.6,159.08c-0.36,0-0.68-0.26-0.74-0.63c-1.43-9.11-1.91-18.39-1.43-27.6c0.02-0.41,0.37-0.75,0.79-0.71
					c0.41,0.02,0.73,0.38,0.71,0.79c-0.48,9.1-0.01,18.28,1.41,27.29c0.06,0.41-0.21,0.79-0.62,0.86
					C126.68,159.08,126.64,159.08,126.6,159.08z"/>
			</g>
			<g>
				<path class="st0" d="M403.45,148.99c-0.35,0-0.66-0.24-0.73-0.59c-1.72-7.96-4.18-15.75-7.32-23.16
					c-0.16-0.38,0.02-0.82,0.4-0.98c0.38-0.17,0.82,0.02,0.98,0.4c3.17,7.5,5.66,15.38,7.4,23.43c0.09,0.4-0.17,0.8-0.57,0.89
					C403.56,148.98,403.5,148.99,403.45,148.99z"/>
			</g>
			<g>
				<path class="st0" d="M391.08,115.17c-0.27,0-0.53-0.14-0.66-0.4c-4.87-9.13-10.95-17.9-18.09-26.06
					c-0.27-0.31-0.24-0.79,0.07-1.06c0.31-0.27,0.79-0.24,1.06,0.07c7.21,8.24,13.36,17.1,18.29,26.34
					c0.19,0.37,0.06,0.82-0.31,1.01C391.32,115.14,391.19,115.17,391.08,115.17z"/>
			</g>
			<g>
				<path class="st0" d="M363.26,78.75c-0.19,0-0.38-0.07-0.53-0.22c-5.21-5.17-11.02-10.43-17.75-16.08
					c-0.32-0.27-0.36-0.74-0.09-1.06c0.27-0.32,0.74-0.36,1.06-0.09c6.77,5.68,12.6,10.96,17.84,16.16c0.29,0.29,0.3,0.77,0,1.06
					C363.65,78.68,363.45,78.75,363.26,78.75z"/>
			</g>
			<g>
				<path class="st0" d="M376.08,144.29c-0.28,0-0.56-0.16-0.68-0.44c-1.59-3.49-3.37-6.97-5.28-10.33
					c-0.2-0.36-0.08-0.82,0.28-1.02c0.36-0.21,0.82-0.08,1.02,0.28c1.93,3.4,3.73,6.92,5.34,10.45c0.17,0.38,0.01,0.82-0.37,0.99
					C376.29,144.27,376.18,144.29,376.08,144.29z"/>
			</g>
			<g>
				<path class="st0" d="M364.98,116.69c-0.25,0-0.5-0.13-0.64-0.36c-14.51-24.05-26.68-39.3-52.98-55.92
					c-0.35-0.22-0.45-0.68-0.23-1.03c0.22-0.35,0.68-0.46,1.03-0.23c26.55,16.78,38.84,32.16,53.46,56.41
					c0.21,0.35,0.1,0.82-0.25,1.03C365.25,116.66,365.11,116.69,364.98,116.69z"/>
			</g>
			<g>
				<path class="st0" d="M364.83,164.4c-0.3,0-0.58-0.17-0.69-0.46c-0.29-0.7-0.61-1.53-0.97-2.45c-3.11-7.97-8.89-22.8-21.72-33.19
					c-0.32-0.26-0.37-0.73-0.11-1.05c0.26-0.32,0.73-0.37,1.05-0.11c13.14,10.64,19.02,25.71,22.18,33.81
					c0.36,0.91,0.67,1.73,0.96,2.42c0.16,0.38-0.03,0.82-0.41,0.98C365.02,164.38,364.92,164.4,364.83,164.4z"/>
			</g>
			<g>
				<path class="st2" d="M55.88,257.4c-11.72,0-32.52-3.97-39.51-14.75c-3.08-4.75-3.22-10.3-0.41-16.48
					c0.17-0.38,0.61-0.55,0.99-0.37c0.38,0.17,0.54,0.62,0.37,0.99c-2.58,5.69-2.48,10.75,0.3,15.04
					c6.67,10.29,26.84,14.07,38.25,14.07c0.11,0,0.21,0.01,0.34,0c0.41,0,0.75,0.33,0.75,0.75c0,0.41-0.33,0.75-0.75,0.75
					C56.11,257.4,56,257.4,55.88,257.4z"/>
			</g>
			<g>
				<path class="st2" d="M44.35,246.1c-0.07,0-0.13-0.01-0.2-0.03c-7.71-2.12-14.45-4.3-18.91-9.66c-0.26-0.32-0.22-0.79,0.1-1.06
					c0.32-0.27,0.79-0.22,1.06,0.1c4.18,5.03,10.7,7.13,18.15,9.17c0.4,0.11,0.63,0.52,0.52,0.92
					C44.98,245.88,44.68,246.1,44.35,246.1z"/>
			</g>
			<g>
				<path class="st2" d="M85.96,259.79c-6.54,0-13.08-0.22-19.59-0.66c-0.41-0.03-0.73-0.39-0.7-0.8c0.03-0.41,0.39-0.73,0.8-0.7
					c15.69,1.07,31.58,0.84,47.23-0.67c0.41-0.06,0.78,0.26,0.82,0.67c0.04,0.41-0.26,0.78-0.67,0.82
					C104.6,259.34,95.28,259.79,85.96,259.79z"/>
			</g>
			<g>
				<path class="st2" d="M470.57,130.66c-0.14,0-0.28-0.04-0.41-0.12c-0.35-0.23-0.45-0.69-0.22-1.04
					c3.58-5.51,7.11-13.58,3.58-20.72c-2.2-4.46-6.27-7.12-14.06-9.18c-0.4-0.11-0.64-0.52-0.53-0.92c0.11-0.4,0.52-0.64,0.92-0.53
					c6.03,1.6,12.03,3.92,15.02,9.97c3.84,7.77,0.12,16.36-3.67,22.2C471.06,130.54,470.82,130.66,470.57,130.66z"/>
			</g>
			<g>
				<path class="st2" d="M424.37,165.55c-0.26,0-0.5-0.13-0.65-0.37c-0.21-0.36-0.09-0.82,0.26-1.03
					c13.05-7.76,25.63-16.57,37.38-26.18c0.32-0.26,0.79-0.22,1.06,0.11c0.26,0.32,0.21,0.79-0.11,1.05
					c-11.81,9.66-24.45,18.51-37.57,26.31C424.63,165.51,424.5,165.55,424.37,165.55z"/>
			</g>
			<g>
				<path class="st2" d="M451.53,135.99c-0.25,0-0.5-0.13-0.64-0.36c-0.22-0.35-0.11-0.81,0.24-1.03c3.27-2.02,6.33-5.11,8.85-8.92
					c2.52-3.83,4.68-9.75,3.16-14.87c-0.12-0.4,0.11-0.81,0.5-0.93c0.4-0.12,0.82,0.11,0.93,0.5c2.1,7.07-2.03,14.13-3.34,16.13
					c-2.64,4-5.86,7.24-9.31,9.37C451.8,135.95,451.66,135.99,451.53,135.99z"/>
			</g>
			<g>
				<path class="st2" d="M75.35,250.41c0,0-0.01,0-0.01,0c-7.62-0.11-15.29-0.81-22.8-2.08c-0.41-0.07-0.68-0.46-0.61-0.86
					s0.46-0.69,0.86-0.61c7.44,1.26,15.03,1.95,22.57,2.06c0.41,0.01,0.75,0.35,0.74,0.76C76.1,250.08,75.76,250.41,75.35,250.41z"
					/>
			</g>
		</g>
	</g>
</g>
<g id="Guide">
</g>
</svg>
